<svg width="65" height="65" viewBox="0 0 65 65" fill="none" xmlns="http://www.w3.org/2000/svg">
<path d="M27.7996 1.90002H9.59961V32H27.7996V1.90002Z" stroke="#00C0F3" stroke-width="2" stroke-miterlimit="10" stroke-linecap="round" stroke-linejoin="round"/>
<path d="M17.6 5H13V10.2H17.6V5Z" stroke="#00C0F3" stroke-width="2" stroke-miterlimit="10" stroke-linecap="round" stroke-linejoin="round"/>
<path d="M24.6 5H20V10.2H24.6V5Z" stroke="#00C0F3" stroke-width="2" stroke-miterlimit="10" stroke-linecap="round" stroke-linejoin="round"/>
<path d="M17.6 13H13V18.2H17.6V13Z" stroke="#00C0F3" stroke-width="2" stroke-miterlimit="10" stroke-linecap="round" stroke-linejoin="round"/>
<path d="M24.6 13H20V18.2H24.6V13Z" stroke="#00C0F3" stroke-width="2" stroke-miterlimit="10" stroke-linecap="round" stroke-linejoin="round"/>
<path d="M24.2 21.9H13.5V32H24.2V21.9Z" stroke="#00C0F3" stroke-width="2" stroke-miterlimit="10" stroke-linecap="round" stroke-linejoin="round"/>
<path d="M6.7998 32H30.8998" stroke="#00C0F3" stroke-width="2" stroke-miterlimit="10" stroke-linecap="round" stroke-linejoin="round"/>
<path d="M18.8994 21.9V31.6" stroke="#00C0F3" stroke-width="2" stroke-miterlimit="10" stroke-linecap="round" stroke-linejoin="round"/>
<path d="M56.9002 31.6H38.7002V61.7H56.9002V31.6Z" stroke="#00C0F3" stroke-width="2" stroke-miterlimit="10" stroke-linecap="round" stroke-linejoin="round"/>
<path d="M46.6 35H42V40.2H46.6V35Z" stroke="#00C0F3" stroke-width="2" stroke-miterlimit="10" stroke-linecap="round" stroke-linejoin="round"/>
<path d="M53.6 35H49V40.2H53.6V35Z" stroke="#00C0F3" stroke-width="2" stroke-miterlimit="10" stroke-linecap="round" stroke-linejoin="round"/>
<path d="M46.6 43H42V48.2H46.6V43Z" stroke="#00C0F3" stroke-width="2" stroke-miterlimit="10" stroke-linecap="round" stroke-linejoin="round"/>
<path d="M53.6 43H49V48.2H53.6V43Z" stroke="#00C0F3" stroke-width="2" stroke-miterlimit="10" stroke-linecap="round" stroke-linejoin="round"/>
<path d="M53.4002 51.6H42.7002V61.7H53.4002V51.6Z" stroke="#00C0F3" stroke-width="2" stroke-miterlimit="10" stroke-linecap="round" stroke-linejoin="round"/>
<path d="M35.8994 61.7001H60.0994" stroke="#00C0F3" stroke-width="2" stroke-miterlimit="10" stroke-linecap="round" stroke-linejoin="round"/>
<path d="M48 52V61.7" stroke="#00C0F3" stroke-width="2" stroke-miterlimit="10" stroke-linecap="round" stroke-linejoin="round"/>
<path d="M52.9998 27.4C52.9998 27.4 50.1998 13.6 35.2998 12.3" stroke="#00C0F3" stroke-width="2" stroke-miterlimit="10" stroke-linecap="round" stroke-linejoin="round"/>
<path d="M37.6 10L32.5 11.9L36.7 14.9" stroke="#00C0F3" stroke-width="2" stroke-miterlimit="10" stroke-linecap="round" stroke-linejoin="round"/>
<path d="M14 36.7001C14 36.7001 16.8 50.5001 31.7 51.8001" stroke="#00C0F3" stroke-width="2" stroke-miterlimit="10" stroke-linecap="round" stroke-linejoin="round"/>
<path d="M29.5 54.0001L34.5 52.2001L30.3 49.2001" stroke="#00C0F3" stroke-width="2" stroke-miterlimit="10" stroke-linecap="round" stroke-linejoin="round"/>
</svg>
