<svg width="65" height="65" viewBox="0 0 65 65" fill="none" xmlns="http://www.w3.org/2000/svg">
<path d="M24.7998 2.40002H6.2998V33.8H24.7998V2.40002Z" stroke="#00C0F3" stroke-width="2" stroke-miterlimit="10" stroke-linecap="round" stroke-linejoin="round"/>
<path d="M14.7 6H10V11.3H14.7V6Z" stroke="#00C0F3" stroke-width="2" stroke-miterlimit="10" stroke-linecap="round" stroke-linejoin="round"/>
<path d="M21.7 6H17V11.3H21.7V6Z" stroke="#00C0F3" stroke-width="2" stroke-miterlimit="10" stroke-linecap="round" stroke-linejoin="round"/>
<path d="M14.7 14H10V19.3H14.7V14Z" stroke="#00C0F3" stroke-width="2" stroke-miterlimit="10" stroke-linecap="round" stroke-linejoin="round"/>
<path d="M21.7 14H17V19.3H21.7V14Z" stroke="#00C0F3" stroke-width="2" stroke-miterlimit="10" stroke-linecap="round" stroke-linejoin="round"/>
<path d="M21.3004 22.2001H10.4004V33.8001H21.3004V22.2001Z" stroke="#00C0F3" stroke-width="2" stroke-miterlimit="10" stroke-linecap="round" stroke-linejoin="round"/>
<path d="M3.5 33.8H28.1" stroke="#00C0F3" stroke-width="2" stroke-miterlimit="10" stroke-linecap="round" stroke-linejoin="round"/>
<path d="M15.7998 23V32.9" stroke="#00C0F3" stroke-width="2" stroke-miterlimit="10" stroke-linecap="round" stroke-linejoin="round"/>
<path d="M30.7002 8.70007C30.7002 8.70007 44.7002 11.5001 46.0002 26.7001" stroke="#00C0F3" stroke-width="2" stroke-miterlimit="10" stroke-linecap="round" stroke-linejoin="round"/>
<path d="M48.4004 24.4L46.5004 29.5L43.4004 25.3" stroke="#00C0F3" stroke-width="2" stroke-miterlimit="10" stroke-linecap="round" stroke-linejoin="round"/>
<path d="M25.5002 58.1001C25.5002 58.1001 11.5002 55.3001 10.2002 40.1001" stroke="#00C0F3" stroke-width="2" stroke-miterlimit="10" stroke-linecap="round" stroke-linejoin="round"/>
<path d="M7.90039 42.4001L9.70039 37.3L12.8004 41.5" stroke="#00C0F3" stroke-width="2" stroke-miterlimit="10" stroke-linecap="round" stroke-linejoin="round"/>
<path d="M46.0002 46.9H38.7002V62H46.0002V46.9Z" stroke="#00C0F3" stroke-width="2" stroke-miterlimit="10" stroke-linecap="round" stroke-linejoin="round"/>
<path d="M56.5004 49.1H49.4004V56.2H56.5004V49.1Z" stroke="#00C0F3" stroke-width="2" stroke-miterlimit="10" stroke-linecap="round" stroke-linejoin="round"/>
<path d="M32.0996 62H62.6996" stroke="#00C0F3" stroke-width="2" stroke-miterlimit="10" stroke-linecap="round" stroke-linejoin="round"/>
<path d="M34.2998 62V42.4001L47.3998 34.3L60.3998 42.4001V62" stroke="#00C0F3" stroke-width="2" stroke-miterlimit="10" stroke-linecap="round" stroke-linejoin="round"/>
</svg>
