<svg width="65" height="65" viewBox="0 0 65 65" fill="none" xmlns="http://www.w3.org/2000/svg">
<path d="M44.4994 44.4C51.7343 44.4 57.5994 38.5349 57.5994 31.2999C57.5994 24.065 51.7343 18.2 44.4994 18.2C37.2645 18.2 31.3994 24.065 31.3994 31.2999C31.3994 38.5349 37.2645 44.4 44.4994 44.4Z" stroke="#00C0F3" stroke-width="2" stroke-miterlimit="10" stroke-linecap="round" stroke-linejoin="round"/>
<path d="M44.6 40.6C49.6258 40.6 53.7 36.5258 53.7 31.5C53.7 26.4742 49.6258 22.4 44.6 22.4C39.5742 22.4 35.5 26.4742 35.5 31.5C35.5 36.5258 39.5742 40.6 44.6 40.6Z" stroke="#00C0F3" stroke-width="2" stroke-miterlimit="10" stroke-linecap="round" stroke-linejoin="round"/>
<path d="M58.1996 55.9C58.1996 55.9 58.9996 55.9 59.9996 55.9C60.9996 55.9 61.7996 54.6 61.7996 53.1V6.89998C61.7996 5.29998 60.4996 4.09998 58.9996 4.09998H6.39961C4.79961 4.09998 3.59961 5.39998 3.59961 6.89998V53.1C3.59961 54.7 4.89961 55.9 6.39961 55.9H51.9996" stroke="#00C0F3" stroke-width="2" stroke-miterlimit="10" stroke-linecap="round" stroke-linejoin="round"/>
<path d="M4 12.4H61.3" stroke="#00C0F3" stroke-width="2" stroke-miterlimit="10" stroke-linecap="round" stroke-linejoin="round"/>
<path d="M35.9 21.2V15.9H7.5V28.4H31.6" stroke="#00C0F3" stroke-width="2" stroke-miterlimit="10" stroke-linecap="round" stroke-linejoin="round"/>
<path d="M7.4 8.8C7.62091 8.8 7.8 8.62091 7.8 8.4C7.8 8.17909 7.62091 8 7.4 8C7.17909 8 7 8.17909 7 8.4C7 8.62091 7.17909 8.8 7.4 8.8Z" fill="#00C0F3" stroke="#00C0F3" stroke-width="2" stroke-miterlimit="10" stroke-linecap="round" stroke-linejoin="round"/>
<path d="M11.4 8.8C11.6209 8.8 11.8 8.62091 11.8 8.4C11.8 8.17909 11.6209 8 11.4 8C11.1791 8 11 8.17909 11 8.4C11 8.62091 11.1791 8.8 11.4 8.8Z" fill="#00C0F3" stroke="#00C0F3" stroke-width="2" stroke-miterlimit="10" stroke-linecap="round" stroke-linejoin="round"/>
<path d="M15.4 8.8C15.6209 8.8 15.8 8.62091 15.8 8.4C15.8 8.17909 15.6209 8 15.4 8C15.1791 8 15 8.17909 15 8.4C15 8.62091 15.1791 8.8 15.4 8.8Z" fill="#00C0F3" stroke="#00C0F3" stroke-width="2" stroke-miterlimit="10" stroke-linecap="round" stroke-linejoin="round"/>
<path d="M7.5 20.3H15.9" stroke="#00C0F3" stroke-width="2" stroke-miterlimit="10" stroke-linecap="round" stroke-linejoin="round"/>
<path d="M7.5 32.4H15.9" stroke="#00C0F3" stroke-width="2" stroke-miterlimit="10" stroke-linecap="round" stroke-linejoin="round"/>
<path d="M7.59961 40.3H15.9996" stroke="#00C0F3" stroke-width="2" stroke-miterlimit="10" stroke-linecap="round" stroke-linejoin="round"/>
<path d="M7.59961 48.3H15.9996" stroke="#00C0F3" stroke-width="2" stroke-miterlimit="10" stroke-linecap="round" stroke-linejoin="round"/>
<path d="M7.59961 36.4H26.1996" stroke="#00C0F3" stroke-width="2" stroke-miterlimit="10" stroke-linecap="round" stroke-linejoin="round"/>
<path d="M7.59961 44.3H30.6996" stroke="#00C0F3" stroke-width="2" stroke-miterlimit="10" stroke-linecap="round" stroke-linejoin="round"/>
<path d="M7.59961 52.2H39.6996" stroke="#00C0F3" stroke-width="2" stroke-miterlimit="10" stroke-linecap="round" stroke-linejoin="round"/>
<path d="M7.5 24.3H26.2" stroke="#00C0F3" stroke-width="2" stroke-miterlimit="10" stroke-linecap="round" stroke-linejoin="round"/>
<path d="M53.0992 45.3L48.6992 47.4L55.5992 61.2C55.5992 61.2 56.1992 62.8 58.3992 62.1C60.5992 61.4 59.4992 59 59.4992 59L53.0992 45.3Z" stroke="#00C0F3" stroke-width="2" stroke-miterlimit="10" stroke-linecap="round" stroke-linejoin="round"/>
<path d="M54.2994 49.8L51.3994 51.1" stroke="#00C0F3" stroke-width="2" stroke-miterlimit="10" stroke-linecap="round" stroke-linejoin="round"/>
<path d="M48.6992 27.4V33.1V27.4Z" stroke="#00C0F3" stroke-width="2" stroke-miterlimit="10" stroke-linecap="round" stroke-linejoin="round"/>
<path d="M44.5996 29V33.1V29Z" stroke="#00C0F3" stroke-width="2" stroke-miterlimit="10" stroke-linecap="round" stroke-linejoin="round"/>
<path d="M40.5996 29.3V33.1V29.3Z" stroke="#00C0F3" stroke-width="2" stroke-miterlimit="10" stroke-linecap="round" stroke-linejoin="round"/>
<path d="M49.5996 43.3L50.8996 46.3L49.5996 43.3Z" stroke="#00C0F3" stroke-width="2" stroke-miterlimit="10" stroke-linecap="round" stroke-linejoin="round"/>
</svg>
