<svg width="575" height="432" viewBox="0 0 575 432" fill="none" xmlns="http://www.w3.org/2000/svg">
<g clip-path="url(#clip0)">
<g filter="url(#filter0_d)">
<path d="M300.281 378.424C455.452 378.424 581.243 366.238 581.243 351.205C581.243 336.173 455.452 323.987 300.281 323.987C145.11 323.987 19.3184 336.173 19.3184 351.205C19.3184 366.238 145.11 378.424 300.281 378.424Z" fill="#A8E0F9"/>
<path d="M485.408 341.09H423.902C423.902 341.09 430.443 338.571 427.68 335.28C427.68 335.28 437.999 337.027 437.634 339.099C437.634 339.099 431.093 334.427 437.959 331.624C437.959 331.624 447.587 335.483 444.499 338.368C444.499 338.368 456.524 334.305 451.73 331.218C451.73 331.218 465.462 334.143 463.755 337.962C463.755 337.962 475.09 337.88 475.09 335.89C475.13 335.849 475.821 341.252 485.408 341.09Z" fill="url(#paint0_linear)"/>
<path d="M468.956 368.146H387.787C387.787 368.146 396.4 365.627 392.784 362.337C392.784 362.337 406.393 364.084 405.946 366.155C405.946 366.155 397.334 361.484 406.393 358.68C406.393 358.68 419.109 362.54 415.006 365.424C415.006 365.424 430.89 361.362 424.512 358.274C424.512 358.274 442.671 361.199 440.396 365.018C440.396 365.018 455.346 364.937 455.346 362.946C455.346 362.946 456.281 368.349 468.956 368.146Z" fill="#00AEEF"/>
<path d="M553.251 356.162H491.745C491.745 356.162 498.286 353.643 495.523 350.352C495.523 350.352 505.842 352.099 505.476 354.171C505.476 354.171 498.936 349.499 505.801 346.696C505.801 346.696 515.43 350.555 512.342 353.44C512.342 353.44 524.367 349.377 519.573 346.29C519.573 346.29 533.305 349.215 531.598 353.033C531.598 353.033 542.933 352.952 542.933 350.962C542.933 350.962 543.623 356.365 553.251 356.162Z" fill="url(#paint1_linear)"/>
<path d="M178.974 364.733H99.3896C99.3896 364.733 107.84 362.215 104.265 358.924C104.265 358.924 117.59 360.671 117.143 362.743C117.143 362.743 108.693 358.071 117.59 355.268C117.59 355.268 130.021 359.127 126.04 362.012C126.04 362.012 141.599 357.949 135.383 354.861C135.383 354.861 153.177 357.786 150.943 361.605C150.943 361.605 165.608 361.524 165.608 359.533C165.608 359.533 166.502 364.937 178.974 364.733Z" fill="#00AEEF"/>
<path d="M172.962 341.699H111.456C111.456 341.699 117.997 339.18 115.234 335.89C115.234 335.89 125.553 337.637 125.187 339.709C125.187 339.709 118.647 335.037 125.512 332.234C125.512 332.234 135.14 336.093 132.053 338.977C132.053 338.977 144.078 334.915 139.284 331.827C139.284 331.827 153.015 334.752 151.309 338.571C151.309 338.571 162.644 338.49 162.644 336.499C162.644 336.499 163.334 341.902 172.962 341.699Z" fill="url(#paint2_linear)"/>
<path d="M98.8617 354.496H37.3555C37.3555 354.496 43.8961 351.977 41.1336 348.687C41.1336 348.687 51.4523 350.434 51.0867 352.505C51.0867 352.505 44.5461 347.834 51.4117 345.03C51.4117 345.03 61.0398 348.89 57.9523 351.774C57.9523 351.774 69.9773 347.712 65.1836 344.624C65.1836 344.624 78.9148 347.549 77.2086 351.368C77.2086 351.368 88.543 351.287 88.543 349.296C88.543 349.296 89.2336 354.699 98.8617 354.496Z" fill="url(#paint3_linear)"/>
<path d="M402.94 338.693C402.94 338.693 434.1 255.858 471.637 236.521L478.99 273.368L477.65 234.368C477.65 234.368 526.847 227.99 544.6 237.496C544.6 237.496 525.262 291.893 502.756 306.477L477.203 297.012L499.669 309.483C499.669 309.483 488.415 316.796 481.022 318.787L459.165 308.793L476.025 320.98C476.065 320.94 437.797 342.593 402.94 338.693Z" fill="#63CDF6"/>
<path d="M540.537 239.161C540.537 239.161 426.828 308.102 402.493 333.655Z" fill="url(#paint4_linear)"/>
<path d="M540.537 239.161C528.878 246.84 517.178 254.437 505.478 262.074L487.928 273.49C482.078 277.308 476.228 281.127 470.418 284.986C464.568 288.805 458.759 292.665 452.99 296.565C447.181 300.424 441.453 304.365 435.684 308.346C432.84 310.336 429.956 312.327 427.112 314.358C425.69 315.374 424.268 316.39 422.846 317.405C421.425 318.421 420.003 319.437 418.622 320.493C415.818 322.565 413.056 324.677 410.334 326.871L408.303 328.496L406.312 330.202C404.971 331.299 403.712 332.518 402.412 333.696C403.631 332.437 404.768 331.137 406.068 329.918C406.678 329.308 407.328 328.699 407.978 328.09L409.928 326.343C411.228 325.165 412.568 324.027 413.868 322.89C415.209 321.752 416.55 320.655 417.89 319.518C423.334 315.13 428.9 310.905 434.546 306.762L438.772 303.674L443.037 300.627C445.881 298.596 448.765 296.605 451.609 294.615C457.378 290.633 463.187 286.774 468.997 282.915C474.847 279.096 480.696 275.277 486.587 271.54C492.478 267.802 498.409 264.065 504.34 260.449C516.325 253.137 528.35 245.986 540.537 239.161Z" fill="#0092D7"/>
<path d="M417.768 304.974C417.768 304.974 451.771 275.034 466.233 267.274L455.711 280.071L468.264 266.34C468.264 266.34 480.98 262.887 481.711 265.812C481.711 265.812 459.652 285.474 449.983 291.162L447.586 288.44L448.318 292.259C448.318 292.259 443.483 295.102 441.249 295.996L439.827 292.99L439.461 296.89C439.38 296.93 423.983 305.502 417.768 304.974Z" fill="url(#paint5_linear)"/>
<path d="M480.209 266.502C480.209 266.502 432.962 293.599 419.312 303.187Z" fill="url(#paint6_linear)"/>
<path d="M416.265 311.149C416.265 311.149 455.468 294.574 471.068 292.299L458.149 300.83L473.221 292.177C473.221 292.177 486.18 293.396 486.221 296.484C486.221 296.484 460.708 307.452 450.186 309.443L448.48 305.99L448.358 309.93C448.358 309.93 443.077 310.946 440.721 310.987L440.03 307.615L438.811 311.23C438.771 311.19 422.115 313.871 416.265 311.149Z" fill="url(#paint7_linear)"/>
<path d="M484.637 296.605C484.637 296.605 433.327 305.705 418.093 310.012Z" fill="url(#paint8_linear)"/>
<path d="M412.528 252.487C412.528 252.487 451.935 204.955 468.794 190.29L456.647 208.937L471.15 188.421C471.15 188.421 486.019 179.28 486.913 182.205C486.913 182.205 461.319 213.284 450.066 223.643L447.181 221.652L448.116 225.634C448.116 225.634 442.51 230.834 439.869 232.743L438.163 230.021L437.797 234.49C437.756 234.49 419.841 250.455 412.528 252.487Z" fill="url(#paint9_linear)"/>
<path d="M485.206 183.627C485.206 183.627 430.2 233.474 414.315 249.887Z" fill="url(#paint10_linear)"/>
<path d="M403.833 207.515C403.833 207.515 435.805 147.227 449.211 126.184L439.177 148.121L451.08 123.421C451.08 123.421 462.739 108.024 463.267 110.055C463.267 110.055 442.508 149.38 433.53 163.924L431.458 163.721L431.986 166.565C431.986 166.565 427.477 173.837 425.405 176.802L424.227 175.38L423.739 179.321C423.739 179.321 409.48 202.03 403.833 207.515Z" fill="url(#paint11_linear)"/>
<path d="M461.967 112.046C461.967 112.046 418.092 182.368 405.336 204.387Z" fill="url(#paint12_linear)"/>
<path d="M412.567 275.846C412.567 275.846 402.858 213.568 418.092 184.927L434.667 202.721L420.855 180.865C420.855 180.865 447.139 154.215 460.586 151.412C460.586 151.412 467.614 191.752 459.489 210.683L441.533 217.183L458.677 213.893C458.677 213.893 454.614 223.358 450.999 227.949L435.033 232.377L448.846 231.524C448.886 231.483 434.017 261.83 412.567 275.846Z" fill="#00C2F3"/>
<path d="M458.798 154.296C458.798 154.296 416.142 247.083 410.617 273.165Z" fill="url(#paint13_linear)"/>
<path d="M458.801 154.296C454.819 164.249 450.676 174.08 446.532 183.952L434.06 213.487C431.948 218.402 429.876 223.318 427.845 228.274C425.773 233.19 423.741 238.146 421.71 243.102L418.745 250.537C417.729 253.015 416.795 255.493 415.82 258.012C413.91 263.008 412.082 268.005 410.66 273.165C411.595 267.883 413.098 262.724 414.723 257.605C416.348 252.487 418.135 247.449 419.963 242.412L421.345 238.633L422.766 234.896L425.691 227.421C427.682 222.465 429.754 217.508 431.785 212.552C433.898 207.637 436.01 202.721 438.163 197.805C440.357 192.93 442.51 188.015 444.785 183.18C449.254 173.471 453.885 163.843 458.801 154.296Z" fill="#0092D7"/>
<path d="M407.166 295.468C407.166 295.468 444.663 224.049 468.185 204.955L461.888 235.059L471.719 202.68C471.719 202.68 497.516 193.499 503.61 200.04C503.61 200.04 479.56 246.88 464.61 260.774L454.657 254.884L462.294 263.496C462.294 263.496 454.819 270.443 450.675 272.718L442.672 266.096L447.669 274.952C447.71 274.993 423.172 295.996 407.166 295.468Z" fill="#9DDCF9"/>
<path d="M501.215 201.827C501.215 201.827 427.074 268.127 408.306 291.365Z" fill="#9DDCF9"/>
<path d="M501.213 201.827C493.535 209.384 485.775 216.818 477.975 224.212C474.116 227.949 470.175 231.605 466.275 235.302L454.535 246.352C450.635 250.049 446.694 253.705 442.835 257.443C438.894 261.099 435.075 264.877 431.135 268.533L425.325 274.14C423.375 276.009 421.506 277.918 419.556 279.787L418.094 281.208L416.672 282.63L413.828 285.515C413.341 286.002 412.853 286.449 412.406 286.937L411.025 288.399L408.263 291.324L410.741 288.155L412 286.571C412.406 286.043 412.853 285.555 413.3 285.027L415.941 281.98L417.281 280.437L418.622 278.934C420.45 276.943 422.238 274.952 424.106 273.002L429.713 267.193C431.581 265.283 433.491 263.374 435.4 261.465C437.31 259.555 439.219 257.687 441.128 255.777C444.988 251.999 448.888 248.302 452.788 244.605C456.728 240.949 460.628 237.252 464.61 233.637C468.591 230.021 472.572 226.405 476.594 222.83C484.719 215.68 492.844 208.612 501.213 201.827Z" fill="#0092D7"/>
<path d="M416.144 320.371C416.144 320.371 492.478 290.024 525.019 292.015L501.375 311.84L529.569 292.787C529.569 292.787 558.169 304.487 559.753 314.359C559.753 314.359 510.15 334.63 488.456 334.874L483.012 322.687L484.719 335.362C484.719 335.362 473.872 335.484 468.794 334.224L465.584 322.89L464.772 333.777C464.772 333.777 430.2 332.68 416.144 320.371Z" fill="#00BFF3"/>
<path d="M556.503 313.952C556.503 313.952 450.35 312.896 419.638 317.852Z" fill="url(#paint14_linear)"/>
<path d="M556.503 313.952C545.088 314.359 533.672 314.602 522.256 314.805L488.01 315.415C482.322 315.496 476.594 315.577 470.906 315.74C465.219 315.821 459.491 316.024 453.803 316.105L445.272 316.349C442.428 316.43 439.585 316.593 436.741 316.674L434.588 316.755L432.435 316.877L428.169 317.121C427.438 317.162 426.747 317.202 426.016 317.243L423.903 317.446L419.638 317.812L423.863 317.08L425.975 316.715C426.666 316.593 427.397 316.512 428.088 316.43L432.353 315.902L434.466 315.659L436.619 315.455L440.885 315.09C442.306 314.968 443.728 314.846 445.15 314.724L453.722 314.155C459.41 313.83 465.138 313.587 470.866 313.384C476.594 313.18 482.281 313.059 488.01 312.937C493.738 312.896 499.425 312.774 505.153 312.774C510.881 312.774 516.569 312.774 522.297 312.855C533.672 313.059 545.088 313.343 556.503 313.952Z" fill="#0092D7"/>
<path d="M186.734 328.699C186.734 328.699 162.725 244.037 121.165 223.968L106.622 261.424L114.34 221.693C114.34 221.693 56.8967 214.705 34.2686 224.252C34.2686 224.252 48.6904 279.868 73.1467 294.94L105.037 285.555L76.3967 298.027C76.3967 298.027 88.6248 305.583 97.0748 307.696L124.619 297.702L102.6 309.93C102.6 309.93 144.728 332.355 186.734 328.699Z" fill="#9DDCF9"/>
<path d="M38.8994 226.04C38.8994 226.04 163.171 297.337 188.074 323.621Z" fill="#9DDCF9"/>
<path d="M38.8994 226.04C52.0213 233.027 64.9807 240.38 77.8588 247.896C84.2775 251.633 90.6963 255.452 97.0744 259.271C103.453 263.13 109.79 267.03 116.087 270.971C122.384 274.952 128.681 278.933 134.896 283.037C136.44 284.052 137.984 285.108 139.568 286.124C141.112 287.18 142.656 288.196 144.199 289.212L148.831 292.34L153.421 295.549C159.515 299.815 165.568 304.202 171.459 308.793C174.384 311.108 177.309 313.424 180.112 315.902L182.224 317.771C182.915 318.38 183.606 319.03 184.256 319.68C185.637 320.94 186.896 322.321 188.156 323.662C186.774 322.402 185.434 321.102 184.012 319.924C183.281 319.315 182.59 318.705 181.859 318.137L179.665 316.43C176.74 314.155 173.774 311.921 170.728 309.768C167.721 307.615 164.674 305.462 161.587 303.39L159.271 301.805L156.956 300.262C155.412 299.246 153.868 298.19 152.324 297.174C146.109 293.071 139.893 289.008 133.637 285.027C127.381 281.005 121.084 277.024 114.787 273.083C108.49 269.102 102.193 265.202 95.8557 261.262L76.8432 249.48C64.2088 241.68 51.5338 233.88 38.8994 226.04Z" fill="#0092D7"/>
<path d="M210.093 321.427C210.093 321.427 165.73 230.549 133.271 204.996L137.537 242.371L128.315 201.868C128.315 201.868 90.7771 188.177 80.2959 195.612C80.2959 195.612 108.612 255.127 128.843 273.571L145.012 267.355L131.89 277.146C131.89 277.146 142.005 286.368 147.896 289.496L161.221 282.183L152.08 292.502C152.121 292.502 185.718 320.533 210.093 321.427Z" fill="#49C8F5"/>
<path d="M83.749 197.968C83.749 197.968 184.702 286.124 209.118 316.268Z" fill="url(#paint15_linear)"/>
<path d="M83.749 197.968C94.8803 207.068 105.808 216.411 116.655 225.877C122.058 230.59 127.421 235.383 132.783 240.177C138.146 244.971 143.427 249.846 148.749 254.68C153.99 259.596 159.312 264.471 164.471 269.427C169.671 274.383 174.83 279.38 179.949 284.458L187.546 292.136C188.805 293.396 190.065 294.736 191.283 296.036L194.98 299.937L196.808 301.886C197.418 302.536 198.027 303.227 198.596 303.877L202.171 307.899C202.78 308.59 203.39 309.24 203.958 309.93L205.665 312.043L209.037 316.227L205.38 312.286L203.552 310.296C202.943 309.646 202.293 309.036 201.643 308.386L197.865 304.568C197.215 303.918 196.605 303.268 195.955 302.658L194.005 300.79L190.146 297.011C188.846 295.752 187.587 294.493 186.287 293.274L178.487 285.84C175.846 283.402 173.246 280.924 170.646 278.486C168.046 276.008 165.405 273.571 162.765 271.133C157.524 266.218 152.243 261.383 146.962 256.508L115.233 227.34C104.793 217.549 94.2303 207.799 83.749 197.968Z" fill="#0092D7"/>
<path d="M182.021 262.115C182.021 262.115 145.743 226.405 129.98 216.574L140.99 231.443L127.787 215.396C127.787 215.396 113.69 210.358 112.715 213.446C112.715 213.446 136.237 236.846 146.759 243.955L149.643 241.274L148.546 245.337C148.546 245.337 153.787 248.912 156.265 250.09L158.052 247.002L158.215 251.227C158.255 251.227 174.993 262.033 182.021 262.115Z" fill="url(#paint16_linear)"/>
<path d="M114.299 214.34C114.299 214.34 165.649 248.302 180.396 260.043Z" fill="url(#paint17_linear)"/>
<path d="M181.819 318.421C181.819 318.421 137.944 299.327 120.394 296.443L134.816 306.03L117.997 296.24C117.997 296.24 103.331 297.174 103.25 300.465C103.25 300.465 131.809 313.059 143.631 315.537L145.622 311.84L145.703 316.105C145.703 316.105 151.634 317.365 154.275 317.446L155.128 313.83L156.428 317.73C156.428 317.771 175.156 321.184 181.819 318.421Z" fill="url(#paint18_linear)"/>
<path d="M104.997 300.668C104.997 300.668 162.644 312.002 179.747 317.121Z" fill="url(#paint19_linear)"/>
<path d="M176.537 317.73C176.537 317.73 126.975 278.487 107.718 265.527L124.375 280.355L105.118 263.862C105.118 263.862 89.4372 255.005 89.7216 256.833C89.7216 256.833 121.978 282.468 135.018 291.527L136.765 290.674L137.334 293.193C137.334 293.193 143.875 297.702 146.718 299.49L147.206 297.946L149.075 301.033C149.075 301.033 169.672 315.049 176.537 317.73Z" fill="url(#paint20_linear)"/>
<path d="M91.6309 258.052C91.6309 258.052 155.128 301.683 174.14 315.658Z" fill="url(#paint21_linear)"/>
<path d="M175.318 215.762C175.318 215.762 146.393 152.833 134.287 130.408L143.387 152.996L132.621 127.443C132.621 127.443 122.099 110.665 121.652 112.452C121.652 112.452 140.421 153.483 148.546 168.921L150.415 169.165L149.968 171.724C149.968 171.724 154.03 179.443 155.899 182.652L156.955 181.555L157.402 185.333C157.362 185.374 170.24 209.505 175.318 215.762Z" fill="url(#paint22_linear)"/>
<path d="M122.871 114.646C122.871 114.646 162.44 189.396 173.977 212.552Z" fill="url(#paint23_linear)"/>
<path d="M196.118 257.687C196.118 257.687 153.218 180.54 128.64 157.058L137.537 187.527L125.024 154.093C125.024 154.093 99.2682 139.712 93.9463 144.708C93.9463 144.708 121.571 195.165 137.293 211.821L146.393 208.287L139.812 214.99C139.812 214.99 147.693 223.318 151.878 226.365L158.987 221.652L155.006 229.127C155.006 229.168 180.721 254.762 196.118 257.687Z" fill="#00C1F3"/>
<path d="M96.5059 146.943C96.5059 146.943 174.343 227.015 194.656 253.462Z" fill="#00C1F3"/>
<path d="M96.5059 146.943C105.281 155.271 113.853 163.802 122.303 172.415C126.568 176.721 130.753 181.068 134.937 185.415C139.121 189.762 143.265 194.19 147.409 198.577C151.512 203.005 155.615 207.433 159.678 211.902C161.709 214.137 163.74 216.371 165.731 218.646C167.762 220.88 169.753 223.155 171.743 225.43L177.675 232.296C179.625 234.612 181.575 236.927 183.525 239.243L184.987 240.99L186.409 242.777L189.253 246.312C191.162 248.668 192.909 251.146 194.696 253.583L191.731 250.171L190.268 248.465C189.781 247.896 189.253 247.327 188.765 246.799L185.759 243.427L184.256 241.762L182.712 240.096C180.681 237.862 178.65 235.627 176.578 233.433L170.443 226.812L145.703 200.365L133.353 187.121C129.25 182.693 125.106 178.305 121.043 173.837C112.715 164.818 104.55 155.962 96.5059 146.943Z" fill="#0092D7"/>
<path d="M162.156 318.868C162.156 318.868 93.0123 289.658 63.3154 292.299L84.5217 311.921L59.1717 293.152C59.1717 293.152 32.8467 305.543 31.2217 315.618C31.2217 315.618 76.1123 335.158 95.9373 334.996L101.137 322.524L99.3498 335.443C99.3498 335.443 109.262 335.362 113.894 333.98L117.022 322.443L117.55 333.452C117.55 333.412 149.115 331.624 162.156 318.868Z" fill="#00C0F3"/>
<path d="M34.1875 315.13C34.1875 315.13 131.119 311.962 159.069 316.349Z" fill="url(#paint24_linear)"/>
<path d="M34.1875 315.13C44.5875 314.318 54.9875 313.79 65.3875 313.424C70.5875 313.221 75.7875 313.099 81.0281 312.977C86.2281 312.855 91.4281 312.855 96.6688 312.774C101.869 312.815 107.109 312.774 112.309 312.896C117.509 312.977 122.75 313.14 127.95 313.343L135.75 313.749C137.05 313.83 138.35 313.912 139.65 314.033L143.55 314.318L145.5 314.48C146.15 314.521 146.8 314.602 147.45 314.683L151.35 315.13C152 315.212 152.65 315.293 153.3 315.374L155.25 315.699L159.109 316.349L155.209 316.065L153.259 315.902C152.609 315.862 151.959 315.862 151.309 315.821L147.409 315.658C146.759 315.618 146.109 315.577 145.459 315.577L143.509 315.537C140.909 315.496 138.309 315.374 135.709 315.374L127.909 315.293C125.309 315.293 122.709 315.293 120.109 315.252C117.509 315.212 114.909 315.252 112.309 315.252C107.109 315.212 101.909 315.252 96.7094 315.252L65.4688 315.333C54.9875 315.333 44.5875 315.293 34.1875 315.13Z" fill="#0092D7"/>
<path d="M454.127 328.171H135.668V341.333H454.127V328.171Z" fill="#8A8C8E"/>
<path d="M294.917 350.23C382.846 350.23 454.127 346.174 454.127 341.171C454.127 336.168 382.846 332.112 294.917 332.112C206.988 332.112 135.708 336.168 135.708 341.171C135.708 346.174 206.988 350.23 294.917 350.23Z" fill="#8A8C8E"/>
<path d="M294.917 335.646C382.846 335.646 454.127 332.427 454.127 328.455C454.127 324.484 382.846 321.265 294.917 321.265C206.988 321.265 135.708 324.484 135.708 328.455C135.708 332.427 206.988 335.646 294.917 335.646Z" fill="#C9CACC"/>
<path d="M433.449 323.824C433.449 326.059 431.621 327.887 429.386 327.887H161.018C158.783 327.887 156.955 326.059 156.955 323.824V76.5398C156.955 74.3054 158.783 72.4773 161.018 72.4773H429.386C431.621 72.4773 433.449 74.3054 433.449 76.5398V323.824Z" fill="#636466"/>
<path d="M289.23 189.518C289.23 191.752 287.402 193.58 285.168 193.58H171.499C169.265 193.58 167.437 191.752 167.437 189.518V85.7617C167.437 83.5273 169.265 81.6992 171.499 81.6992H285.168C287.402 81.6992 289.23 83.5273 289.23 85.7617V189.518Z" fill="white"/>
<path d="M422.888 188.909C422.888 191.143 421.059 192.971 418.825 192.971H305.359C303.125 192.971 301.297 191.143 301.297 188.909V85.7617C301.297 83.5273 303.125 81.6992 305.359 81.6992H418.825C421.059 81.6992 422.888 83.5273 422.888 85.7617V188.909Z" fill="white"/>
<path d="M422.888 311.271C422.888 313.505 421.059 315.333 418.825 315.333H305.359C303.125 315.333 301.297 313.505 301.297 311.271V207.758C301.297 205.524 303.125 203.696 305.359 203.696H418.825C421.059 203.696 422.888 205.524 422.888 207.758V311.271Z" fill="white"/>
<path d="M288.499 310.783C288.499 313.018 286.671 314.846 284.437 314.846H171.499C169.265 314.846 167.437 313.018 167.437 310.783V207.758C167.437 205.524 169.265 203.696 171.499 203.696H284.437C286.671 203.696 288.499 205.524 288.499 207.758V310.783Z" fill="white"/>
<path d="M364.508 264.552H375.883C379.133 264.552 381.164 262.765 381.164 259.921C381.164 257.24 379.133 255.29 375.883 255.29H364.508C364.142 255.29 363.817 255.615 363.817 255.94V263.902C363.858 264.268 364.142 264.552 364.508 264.552ZM364.508 282.955H376.249C379.864 282.955 382.017 281.127 382.017 277.877C382.017 275.074 379.986 272.799 376.249 272.799H364.508C364.142 272.799 363.817 273.124 363.817 273.449V282.224C363.858 282.671 364.142 282.955 364.508 282.955ZM406.149 213.446L372.511 246.962H377.996C386.567 246.962 391.646 252.365 391.646 258.215C391.646 262.846 388.517 266.259 385.146 267.762C384.617 267.965 384.617 268.737 385.186 268.94C389.086 270.443 391.808 274.505 391.808 279.218C391.808 285.921 387.339 291.243 378.646 291.243H354.839C354.474 291.243 354.149 290.918 354.149 290.593V265.243L317.221 302.009C316.733 302.496 317.058 303.349 317.749 303.349H406.514C406.839 303.349 407.124 303.065 407.124 302.74V213.934C407.327 213.365 406.555 213.04 406.149 213.446Z" fill="#414042"/>
<path d="M182.021 105.18H274.159C280.009 105.18 284.721 109.893 284.721 115.743V150.924C284.721 156.774 280.009 161.487 274.159 161.487H241.131L245.681 172.577L225.734 161.487H182.062C176.212 161.487 171.499 156.774 171.499 150.924V115.743C171.459 109.933 176.171 105.18 182.021 105.18Z" fill="#414042"/>
<path d="M177.959 114.808C178.609 113.915 179.584 113.468 180.843 113.387C183.199 113.183 184.54 114.321 184.865 116.718C186.287 126.346 187.871 134.471 189.496 141.133L199.571 121.958C200.506 120.212 201.643 119.277 203.024 119.196C205.056 119.074 206.274 120.333 206.803 123.055C207.94 129.19 209.443 134.39 211.19 138.777C212.368 127.077 214.399 118.668 217.284 113.468C217.974 112.168 218.99 111.518 220.331 111.437C221.387 111.355 222.362 111.68 223.215 112.371C224.109 113.062 224.556 113.955 224.637 115.012C224.677 115.824 224.556 116.515 224.19 117.205C222.403 120.537 220.94 126.102 219.721 133.821C218.584 141.337 218.137 147.146 218.421 151.371C218.502 152.508 218.34 153.524 217.852 154.418C217.284 155.433 216.471 156.002 215.415 156.083C214.237 156.165 212.978 155.637 211.799 154.377C207.534 149.99 204.121 143.49 201.643 134.796C198.637 140.687 196.443 145.115 195.021 148.04C192.299 153.24 190.024 155.921 188.074 156.043C186.815 156.124 185.759 155.068 184.865 152.874C182.509 146.862 179.99 135.202 177.268 117.937C177.024 116.677 177.309 115.621 177.959 114.808ZM276.84 122.04C275.174 119.155 272.737 117.408 269.487 116.718C268.593 116.515 267.781 116.433 267.009 116.433C262.581 116.433 259.006 118.749 256.202 123.34C253.806 127.24 252.628 131.587 252.628 136.299C252.628 139.833 253.359 142.88 254.821 145.399C256.487 148.283 258.924 150.03 262.174 150.721C263.068 150.924 263.881 151.005 264.652 151.005C269.121 151.005 272.696 148.69 275.459 144.099C277.856 140.158 279.034 135.812 279.034 131.058C279.115 127.483 278.302 124.518 276.84 122.04ZM271.031 134.755C270.381 137.802 269.243 140.037 267.537 141.58C266.196 142.758 264.978 143.287 263.799 143.043C262.703 142.799 261.768 141.865 261.077 140.037C260.509 138.615 260.265 137.193 260.265 135.852C260.265 134.715 260.346 133.537 260.59 132.48C260.996 130.612 261.768 128.743 263.027 126.996C264.531 124.721 266.156 123.827 267.821 124.152C268.918 124.396 269.852 125.33 270.543 127.158C271.112 128.58 271.356 130.002 271.356 131.343C271.356 132.562 271.274 133.699 271.031 134.755ZM248.037 122.04C246.371 119.155 243.893 117.408 240.684 116.718C239.79 116.515 238.978 116.433 238.206 116.433C233.778 116.433 230.202 118.749 227.399 123.34C225.002 127.24 223.824 131.587 223.824 136.299C223.824 139.833 224.556 142.88 226.018 145.399C227.684 148.283 230.121 150.03 233.371 150.721C234.265 150.924 235.078 151.005 235.849 151.005C240.318 151.005 243.893 148.69 246.656 144.099C249.052 140.158 250.231 135.812 250.231 131.058C250.231 127.483 249.499 124.518 248.037 122.04ZM242.187 134.755C241.537 137.802 240.399 140.037 238.693 141.58C237.353 142.758 236.134 143.287 234.956 143.043C233.859 142.799 232.924 141.865 232.234 140.037C231.665 138.615 231.421 137.193 231.421 135.852C231.421 134.715 231.502 133.537 231.746 132.48C232.152 130.612 232.924 128.743 234.184 126.996C235.687 124.721 237.312 123.827 238.977 124.152C240.074 124.396 241.009 125.33 241.699 127.158C242.268 128.58 242.512 130.002 242.512 131.343C242.552 132.562 242.431 133.699 242.187 134.755Z" fill="white"/>
<path d="M362.111 94.3741L325.955 115.296V156.977L336.274 162.949L336.233 121.227L362.071 106.318L387.908 121.227V162.949L398.227 156.977V115.215L362.111 94.3741Z" fill="#414042"/>
<path d="M367.271 162.949L362.112 165.955L356.952 162.99V121.227L346.593 127.199V168.921L362.112 177.858L377.59 168.921V127.199L367.271 121.227V162.949Z" fill="#58595B"/>
<path d="M258.64 232.743C258.559 232.296 258.193 232.012 257.828 232.012C257.503 231.971 250.434 231.443 250.434 231.443C250.434 231.443 245.559 226.568 244.99 226.04C244.462 225.512 243.406 225.674 242.999 225.796C242.959 225.796 241.943 226.121 240.278 226.649C238.653 221.937 235.768 217.63 230.69 217.63C230.568 217.63 230.406 217.63 230.243 217.63C228.781 215.721 226.993 214.908 225.449 214.908C213.628 214.908 207.981 229.696 206.193 237.212C201.603 238.633 198.353 239.649 197.906 239.771C195.346 240.583 195.265 240.665 194.94 243.062C194.696 244.89 187.993 296.768 187.993 296.768L240.278 306.558L268.593 300.424C268.634 300.424 258.721 233.19 258.64 232.743ZM237.393 227.543L232.965 228.924C232.965 228.599 232.965 228.315 232.965 227.99C232.965 225.065 232.559 222.708 231.909 220.84C234.549 221.165 236.296 224.13 237.393 227.543ZM228.699 221.408C229.431 223.237 229.918 225.837 229.918 229.371C229.918 229.533 229.918 229.737 229.918 229.899C227.034 230.793 223.906 231.768 220.778 232.743C222.524 225.918 225.815 222.627 228.699 221.408ZM225.165 218.077C225.693 218.077 226.181 218.24 226.668 218.605C222.89 220.393 218.828 224.862 217.121 233.84L209.89 236.074C211.921 229.208 216.674 218.077 225.165 218.077Z" fill="#58595B"/>
<path d="M257.827 232.012C257.502 231.971 250.434 231.443 250.434 231.443C250.434 231.443 245.559 226.568 244.99 226.04C244.787 225.837 244.502 225.755 244.218 225.674L240.277 306.518L268.593 300.383C268.593 300.383 258.64 233.149 258.599 232.702C258.599 232.296 258.193 232.052 257.827 232.012Z" fill="#414042"/>
<path d="M230.691 247.652L227.197 258.052C227.197 258.052 224.15 256.427 220.372 256.427C214.887 256.427 214.603 259.88 214.603 260.733C214.603 265.487 226.953 267.315 226.953 278.405C226.953 287.14 221.387 292.787 213.913 292.787C204.934 292.787 200.344 287.221 200.344 287.221L202.741 279.299C202.741 279.299 207.453 283.362 211.434 283.362C214.034 283.362 215.091 281.33 215.091 279.827C215.091 273.652 204.934 273.368 204.934 263.171C204.934 254.599 211.069 246.312 223.5 246.312C228.334 246.271 230.691 247.652 230.691 247.652Z" fill="white"/>
</g>
</g>
<defs>
<filter id="filter0_d" x="-29" y="6" width="658" height="446.75" filterUnits="userSpaceOnUse" color-interpolation-filters="sRGB">
<feFlood flood-opacity="0" result="BackgroundImageFix"/>
<feColorMatrix in="SourceAlpha" type="matrix" values="0 0 0 0 0 0 0 0 0 0 0 0 0 0 0 0 0 0 127 0" result="hardAlpha"/>
<feOffset dy="4"/>
<feGaussianBlur stdDeviation="2"/>
<feColorMatrix type="matrix" values="0 0 0 0 0 0 0 0 0 0 0 0 0 0 0 0 0 0 0.5 0"/>
<feBlend mode="normal" in2="BackgroundImageFix" result="effect1_dropShadow"/>
<feBlend mode="normal" in="SourceGraphic" in2="effect1_dropShadow" result="shape"/>
</filter>
<linearGradient id="paint0_linear" x1="485.426" y1="336.133" x2="423.911" y2="336.133" gradientUnits="userSpaceOnUse">
<stop stop-color="#7DD3F7"/>
<stop offset="1" stop-color="#43B5E8"/>
</linearGradient>
<linearGradient id="paint1_linear" x1="491.736" y1="351.221" x2="553.251" y2="351.221" gradientUnits="userSpaceOnUse">
<stop stop-color="#00B5F1"/>
<stop offset="1" stop-color="#43B5E8"/>
</linearGradient>
<linearGradient id="paint2_linear" x1="172.961" y1="336.778" x2="111.446" y2="336.778" gradientUnits="userSpaceOnUse">
<stop stop-color="#7DD3F7"/>
<stop offset="1" stop-color="#43B5E8"/>
</linearGradient>
<linearGradient id="paint3_linear" x1="98.8695" y1="349.547" x2="37.3546" y2="349.547" gradientUnits="userSpaceOnUse">
<stop stop-color="#00B9F2"/>
<stop offset="1" stop-color="#43B5E8"/>
</linearGradient>
<linearGradient id="paint4_linear" x1="516.389" y1="303.325" x2="426.604" y2="269.547" gradientUnits="userSpaceOnUse">
<stop stop-color="#43B5E8"/>
<stop offset="1" stop-color="#43B5E8"/>
</linearGradient>
<linearGradient id="paint5_linear" x1="452.642" y1="289.462" x2="446.43" y2="280.661" gradientUnits="userSpaceOnUse">
<stop stop-color="#71459B"/>
<stop offset="0.8668" stop-color="#A76DAE"/>
</linearGradient>
<linearGradient id="paint6_linear" x1="451.267" y1="286.975" x2="448.301" y2="282.772" gradientUnits="userSpaceOnUse">
<stop stop-color="#71459B"/>
<stop offset="0.8668" stop-color="#A76DAE"/>
</linearGradient>
<linearGradient id="paint7_linear" x1="453.021" y1="308.989" x2="449.374" y2="298.357" gradientUnits="userSpaceOnUse">
<stop stop-color="#71459B"/>
<stop offset="0.8668" stop-color="#A76DAE"/>
</linearGradient>
<linearGradient id="paint8_linear" x1="452.813" y1="307.496" x2="449.929" y2="299.09" gradientUnits="userSpaceOnUse">
<stop stop-color="#71459B"/>
<stop offset="0.8668" stop-color="#A76DAE"/>
</linearGradient>
<linearGradient id="paint9_linear" x1="453.127" y1="220.81" x2="445.298" y2="212.654" gradientUnits="userSpaceOnUse">
<stop stop-color="#71459B"/>
<stop offset="0.8668" stop-color="#A76DAE"/>
</linearGradient>
<linearGradient id="paint10_linear" x1="450.215" y1="217.174" x2="449.192" y2="216.108" gradientUnits="userSpaceOnUse">
<stop stop-color="#71459B"/>
<stop offset="0.8668" stop-color="#A76DAE"/>
</linearGradient>
<linearGradient id="paint11_linear" x1="436.488" y1="160.683" x2="429.321" y2="155.878" gradientUnits="userSpaceOnUse">
<stop stop-color="#71459B"/>
<stop offset="0.8668" stop-color="#A76DAE"/>
</linearGradient>
<linearGradient id="paint12_linear" x1="435.45" y1="159.448" x2="431.825" y2="157.018" gradientUnits="userSpaceOnUse">
<stop stop-color="#71459B"/>
<stop offset="0.8668" stop-color="#A76DAE"/>
</linearGradient>
<linearGradient id="paint13_linear" x1="471.031" y1="204.972" x2="398.374" y2="222.539" gradientUnits="userSpaceOnUse">
<stop stop-color="#43B5E8"/>
<stop offset="1" stop-color="#43B5E8"/>
</linearGradient>
<linearGradient id="paint14_linear" x1="495.565" y1="336.279" x2="480.598" y2="295.465" gradientUnits="userSpaceOnUse">
<stop stop-color="#43B5E8"/>
<stop offset="1" stop-color="#43B5E8"/>
</linearGradient>
<linearGradient id="paint15_linear" x1="119.413" y1="270.396" x2="173.507" y2="243.779" gradientUnits="userSpaceOnUse">
<stop stop-color="#43B5E8"/>
<stop offset="1" stop-color="#43B5E8"/>
</linearGradient>
<linearGradient id="paint16_linear" x1="112.741" y1="237.273" x2="182.04" y2="237.273" gradientUnits="userSpaceOnUse">
<stop stop-color="#71459B"/>
<stop offset="0.8668" stop-color="#A76DAE"/>
</linearGradient>
<linearGradient id="paint17_linear" x1="114.319" y1="237.197" x2="180.416" y2="237.197" gradientUnits="userSpaceOnUse">
<stop stop-color="#71459B"/>
<stop offset="0.8668" stop-color="#A76DAE"/>
</linearGradient>
<linearGradient id="paint18_linear" x1="110.144" y1="320.145" x2="174.537" y2="297.619" gradientUnits="userSpaceOnUse">
<stop stop-color="#71459B"/>
<stop offset="0.8668" stop-color="#A76DAE"/>
</linearGradient>
<linearGradient id="paint19_linear" x1="111.628" y1="319.648" x2="173.083" y2="298.15" gradientUnits="userSpaceOnUse">
<stop stop-color="#71459B"/>
<stop offset="0.8668" stop-color="#A76DAE"/>
</linearGradient>
<linearGradient id="paint20_linear" x1="104.128" y1="277.95" x2="134.969" y2="256.891" gradientUnits="userSpaceOnUse">
<stop stop-color="#71459B"/>
<stop offset="0.8668" stop-color="#A76DAE"/>
</linearGradient>
<linearGradient id="paint21_linear" x1="105.362" y1="278.222" x2="134.821" y2="258.107" gradientUnits="userSpaceOnUse">
<stop stop-color="#71459B"/>
<stop offset="0.8668" stop-color="#A76DAE"/>
</linearGradient>
<linearGradient id="paint22_linear" x1="124.839" y1="140.08" x2="166.001" y2="135.325" gradientUnits="userSpaceOnUse">
<stop stop-color="#71459B"/>
<stop offset="0.8668" stop-color="#A76DAE"/>
</linearGradient>
<linearGradient id="paint23_linear" x1="125.891" y1="140.933" x2="165.163" y2="136.396" gradientUnits="userSpaceOnUse">
<stop stop-color="#71459B"/>
<stop offset="0.8668" stop-color="#A76DAE"/>
</linearGradient>
<linearGradient id="paint24_linear" x1="89.2989" y1="335.52" x2="103.911" y2="295.997" gradientUnits="userSpaceOnUse">
<stop stop-color="#43B5E8"/>
<stop offset="1" stop-color="#43B5E8"/>
</linearGradient>
<clipPath id="clip0">
<rect width="575" height="431.25" fill="white"/>
</clipPath>
</defs>
</svg>
