<svg width="65" height="65" viewBox="0 0 65 65" fill="none" xmlns="http://www.w3.org/2000/svg">
<path d="M26.3002 47.7C31.6021 47.7 35.9002 43.4019 35.9002 38.1C35.9002 32.7981 31.6021 28.5 26.3002 28.5C20.9983 28.5 16.7002 32.7981 16.7002 38.1C16.7002 43.4019 20.9983 47.7 26.3002 47.7Z" stroke="#00C0F3" stroke-width="2" stroke-miterlimit="10" stroke-linecap="round" stroke-linejoin="round"/>
<path d="M49.5006 19.1C51.9306 19.1 53.9006 17.13 53.9006 14.7C53.9006 12.2699 51.9306 10.3 49.5006 10.3C47.0705 10.3 45.1006 12.2699 45.1006 14.7C45.1006 17.13 47.0705 19.1 49.5006 19.1Z" stroke="#00C0F3" stroke-width="2" stroke-miterlimit="10" stroke-linecap="round" stroke-linejoin="round"/>
<path d="M31.2004 16.6L28.5004 20.2H24.1004L21.1004 16.6L15.0004 19.1V24.3L12.2004 26.7L7.80039 26.2L4.90039 32.9L8.30039 36.1V39.9L4.90039 42.5L7.60039 49.2H12.2004L14.8004 51.8L14.5004 56.4L20.8004 59.4L24.3004 55.9H27.9004L31.2004 59.4L37.4004 56.7V51.8L40.0004 49.4L44.3004 49.8L47.2004 43.2L44.0004 40.1L44.2004 35.9L47.2004 33.4L45.1004 27H40.1004L37.5004 24.4L37.8004 19.6L31.2004 16.6Z" stroke="#00C0F3" stroke-width="2" stroke-miterlimit="10" stroke-linecap="round" stroke-linejoin="round"/>
<path d="M56.3002 4.8L54.3002 6.1L52.1002 5.3L51.3002 3L47.8002 3.1L46.9002 5.7L45.1002 6.4L43.0002 5.3L40.4002 8.2L41.5002 10.3L40.8002 12.2L38.7002 12.9L38.8002 16.7L41.1002 17.5L41.9002 19.2L40.9002 21.5L43.5002 24.1L45.8002 22.9L47.6002 23.6L48.7002 25.9L52.2002 25.7L53.1002 23.3L54.8002 22.6L56.8002 23.5L59.4002 20.8L58.4002 18.7L59.2002 16.6L61.2002 15.9L61.3002 12.4L58.8002 11.5L58.0002 9.7L59.0002 7.4L56.3002 4.8Z" stroke="#00C0F3" stroke-width="2" stroke-miterlimit="10" stroke-linecap="round" stroke-linejoin="round"/>
</svg>
