<svg width="65" height="65" viewBox="0 0 65 65" fill="none" xmlns="http://www.w3.org/2000/svg">
<path d="M32.5996 24C35.9133 24 38.5996 21.3137 38.5996 18C38.5996 14.6863 35.9133 12 32.5996 12C29.2859 12 26.5996 14.6863 26.5996 18C26.5996 21.3137 29.2859 24 32.5996 24Z" stroke="#00C0F3" stroke-width="2" stroke-miterlimit="10" stroke-linecap="round" stroke-linejoin="round"/>
<path d="M41.6994 4.70005L39.0994 6.40005L36.0994 5.30005L34.9994 2.30005L30.1994 2.40005L28.9994 5.90005L26.4994 6.80005L23.6994 5.40005L20.1994 9.20005L21.6994 12.2L20.7994 14.7L17.8994 15.7L17.9994 20.8L21.0994 21.9L22.1994 24.2001L20.8994 27.3L24.4994 30.8L27.5994 29.3L29.9994 30.2001L31.3994 33.3L36.1994 33L37.3994 29.7001L39.6994 28.7001L42.4994 30.1L45.9994 26.4L44.5994 23.5L45.6994 20.7001L48.3994 19.8L48.4994 15L45.1994 13.7L43.9994 11.4L45.3994 8.20005L41.6994 4.70005Z" stroke="#00C0F3" stroke-width="2" stroke-miterlimit="10" stroke-linecap="round" stroke-linejoin="round"/>
<path d="M11.2998 62.7001C14.3374 62.7001 16.7998 60.2376 16.7998 57.2001C16.7998 54.1625 14.3374 51.7001 11.2998 51.7001C8.26224 51.7001 5.7998 54.1625 5.7998 57.2001C5.7998 60.2376 8.26224 62.7001 11.2998 62.7001Z" stroke="#00C0F3" stroke-width="2" stroke-miterlimit="10" stroke-linecap="round" stroke-linejoin="round"/>
<path d="M32.7998 62.7001C35.8374 62.7001 38.2998 60.2376 38.2998 57.2001C38.2998 54.1625 35.8374 51.7001 32.7998 51.7001C29.7622 51.7001 27.2998 54.1625 27.2998 57.2001C27.2998 60.2376 29.7622 62.7001 32.7998 62.7001Z" stroke="#00C0F3" stroke-width="2" stroke-miterlimit="10" stroke-linecap="round" stroke-linejoin="round"/>
<path d="M54.3994 62.7001C57.437 62.7001 59.8994 60.2376 59.8994 57.2001C59.8994 54.1625 57.437 51.7001 54.3994 51.7001C51.3618 51.7001 48.8994 54.1625 48.8994 57.2001C48.8994 60.2376 51.3618 62.7001 54.3994 62.7001Z" stroke="#00C0F3" stroke-width="2" stroke-miterlimit="10" stroke-linecap="round" stroke-linejoin="round"/>
<path d="M32.7998 33.3V51.7001" stroke="#00C0F3" stroke-width="2" stroke-miterlimit="10" stroke-linecap="round" stroke-linejoin="round"/>
<path d="M11.2998 51.7001V45.0001C11.2998 43.4001 12.5998 42.2001 14.0998 42.2001H51.5998C53.1998 42.2001 54.3998 43.5001 54.3998 45.0001V51.7001" stroke="#00C0F3" stroke-width="2" stroke-miterlimit="10" stroke-linecap="round" stroke-linejoin="round"/>
</svg>
