<svg width="325" height="100" viewBox="0 0 325 100" fill="none" xmlns="http://www.w3.org/2000/svg">
<path fill-rule="evenodd" clip-rule="evenodd" d="M22.209 60.73C18.9443 62.4126 16.1469 64.8772 14.0664 67.9039C16.4124 85.6855 31.5868 99.424 49.9894 99.5116H50.0051C68.4071 99.424 83.5815 85.6855 85.9275 67.9039C83.847 64.8772 81.0496 62.4126 77.7849 60.73C77.8502 61.5108 77.8822 62.2996 77.881 63.0965C77.881 78.5309 65.4172 91.0541 50.0075 91.1514H49.9918C34.5791 91.0559 22.1183 78.5333 22.1183 63.0965C22.1183 62.2988 22.1503 61.51 22.2144 60.73H22.209Z" fill="white"/>
<path fill-rule="evenodd" clip-rule="evenodd" d="M49.9758 0L0 27.0301L14.6847 34.9749C13.5746 37.0361 12.8273 40.9408 12.8273 45.435V47.0071C12.8273 53.6617 14.4646 59.0205 16.4943 59.0205H16.5802C20.0266 52.9615 26.5409 48.8754 34.0111 48.8754C40.5339 48.8754 46.3299 51.9917 49.9921 56.8148V56.836C49.9935 56.8322 49.9951 56.8286 49.997 56.8251C50.0006 56.8293 50.0048 56.8317 50.0079 56.836V56.8148C53.6701 51.9917 59.4655 48.8754 65.9883 48.8754C73.4585 48.8754 79.9704 52.9615 83.4198 59.0205H83.505C85.5348 59.0205 87.1727 53.6617 87.1727 47.0071V45.435C87.1727 40.9402 86.4248 37.0355 85.3147 34.9749L100 27.0301L50.023 0L49.9964 0.0102789L49.9758 0Z" fill="white"/>
<path d="M178.786 62.1987C178.786 66.4979 178.046 70.586 176.565 74.463C175.156 78.3395 173.147 81.7578 170.539 84.7181C167.931 87.6077 164.83 89.9335 161.236 91.6958C157.641 93.3873 153.694 94.2333 149.394 94.2338C146.716 94.2338 144.214 93.8461 141.888 93.0709C139.562 92.3658 137.378 91.2026 135.336 89.5812V92.7534H120V5H135.436V34.6039C137.198 33.1943 139.278 32.0664 141.676 31.2204C144.16 30.372 146.768 29.9434 149.393 29.9522C153.128 29.9522 156.758 30.7979 160.283 32.4894C163.807 34.1102 166.944 36.3656 169.693 39.2557C172.442 42.1458 174.626 45.5644 176.245 49.5116C177.939 53.3881 178.786 57.6171 178.786 62.1987ZM163.35 62.1987C163.35 59.3788 162.927 56.8049 162.081 54.4769C161.235 52.149 160.037 50.1756 158.486 48.5569C157.02 46.8747 155.171 45.5693 153.094 44.7506C151.05 43.8344 148.759 43.3763 146.223 43.3763C144.601 43.3763 142.733 43.7286 140.619 44.4332C138.504 45.0671 136.742 45.9138 135.33 46.9736V76.3654C138.643 79.3963 142.378 80.9118 146.537 80.9118C148.933 80.9118 151.154 80.4537 153.198 79.5375C155.312 78.6213 157.11 77.3526 158.59 75.7312C160.07 74.0397 161.233 72.0661 162.079 69.8104C162.924 67.4846 163.347 64.9473 163.348 62.1987" fill="white"/>
<path d="M249.588 43.2219C250.174 44.0638 250.703 44.9434 251.173 45.8551C251.722 46.7615 252.262 47.7169 252.793 48.7215L212.781 76.7383C214.268 77.8671 215.885 78.8147 217.597 79.561C219.356 80.2257 221.204 80.6283 223.08 80.7559C224.981 80.8262 226.883 80.6248 228.727 80.1577C230.651 79.5857 232.536 78.6528 234.383 77.3591C236.635 75.782 238.624 73.83 240.35 71.5031C242.035 69.1179 243.164 66.7358 243.735 64.3569L257.135 66.7195C255.49 71.743 253.377 75.976 250.796 79.4183C248.233 82.7618 245.103 85.7272 241.408 88.3146C237.655 90.9421 233.648 92.7153 229.387 93.6341C225.184 94.5123 221.041 94.6163 216.958 93.9461C212.933 93.2358 209.116 91.7783 205.507 89.5735C201.857 87.31 198.759 84.3597 196.212 80.7224C193.666 77.0851 191.973 73.1935 191.135 69.0477C190.256 64.8441 190.201 60.7103 190.969 56.6461C191.736 52.5819 193.252 48.7239 195.515 45.072C197.778 41.4223 200.757 38.3024 204.452 35.7123C207.922 33.2699 211.839 31.5359 215.98 30.6097C220.103 29.616 224.214 29.4047 228.314 29.9756C232.413 30.5465 236.317 31.9432 240.024 34.1656C243.692 36.3308 246.879 39.3467 249.588 43.2133V43.2219ZM233.114 47.5204C229.91 45.0322 226.37 43.725 222.495 43.5987C218.637 43.3735 215.121 44.3729 211.946 46.5969C208.826 48.7808 206.713 51.7231 205.607 55.4239C204.458 59.0674 204.505 62.8206 205.747 66.6836L233.114 47.5204Z" fill="white"/>
<path d="M324.985 92.7535H309.761V56.2779C309.761 54.094 309.408 52.1908 308.703 50.5685C308.069 48.877 307.188 47.5024 306.06 46.4448C304.965 45.338 303.625 44.5051 302.148 44.0136C300.736 43.449 299.229 43.1617 297.708 43.1673C295.359 43.1717 293.031 43.6017 290.836 44.4363C288.58 45.2116 286.536 46.4804 284.703 48.2426V92.7535H269.373V31.6432H284.707V36.1897C285.623 35.2734 286.751 34.4277 288.09 33.6524C289.402 32.89 290.782 32.2528 292.213 31.7492C293.653 31.197 295.139 30.7723 296.653 30.4802C298.118 30.2066 299.605 30.0651 301.095 30.0575C304.117 30.045 307.12 30.5461 309.975 31.5394C312.809 32.4925 315.404 34.0426 317.587 36.0851C319.843 38.1292 321.64 40.7725 322.98 44.0151C324.319 47.2578 324.989 51.0991 324.988 55.5393V92.755" fill="white"/>
</svg>
