<svg width="326" height="105" viewBox="0 0 326 105" fill="none" xmlns="http://www.w3.org/2000/svg">
<path fill-rule="evenodd" clip-rule="evenodd" d="M22.209 62.73C18.9443 64.4126 16.1469 66.8772 14.0664 69.9039C16.4124 87.6855 31.5868 101.424 49.9894 101.512H50.0051C68.4071 101.424 83.5815 87.6855 85.9275 69.9039C83.847 66.8772 81.0496 64.4126 77.7849 62.73C77.8502 63.5108 77.8822 64.2996 77.881 65.0965C77.881 80.5309 65.4172 93.0541 50.0075 93.1514H49.9918C34.5791 93.0559 22.1183 80.5333 22.1183 65.0965C22.1183 64.2988 22.1503 63.51 22.2144 62.73H22.209Z" fill="#FF872A"/>
<path fill-rule="evenodd" clip-rule="evenodd" d="M49.9758 2L0 29.0301L14.6847 36.9749C13.5746 39.0361 12.8273 42.9408 12.8273 47.435V49.0071C12.8273 55.6617 14.4646 61.0205 16.4943 61.0205H16.5802C20.0266 54.9615 26.5409 50.8754 34.0111 50.8754C40.5339 50.8754 46.3299 53.9917 49.9921 58.8148V58.836C49.9935 58.8322 49.9951 58.8286 49.997 58.8251C50.0006 58.8293 50.0048 58.8317 50.0079 58.836V58.8148C53.6701 53.9917 59.4655 50.8754 65.9883 50.8754C73.4585 50.8754 79.9704 54.9615 83.4198 61.0205H83.505C85.5348 61.0205 87.1727 55.6617 87.1727 49.0071V47.435C87.1727 42.9402 86.4248 39.0355 85.3147 36.9749L100 29.0301L50.023 2L49.9964 2.01028L49.9758 2Z" fill="#333333"/>
<path d="M178.786 57.1987C178.786 61.4979 178.046 65.586 176.565 69.463C175.156 73.3395 173.147 76.7578 170.539 79.7181C167.931 82.6077 164.83 84.9335 161.236 86.6958C157.641 88.3873 153.694 89.2333 149.394 89.2338C146.716 89.2338 144.214 88.8461 141.888 88.0709C139.562 87.3658 137.378 86.2026 135.336 84.5812V87.7534H120V0H135.436V29.6039C137.198 28.1943 139.278 27.0664 141.676 26.2204C144.16 25.372 146.768 24.9434 149.393 24.9522C153.128 24.9522 156.758 25.7979 160.283 27.4894C163.807 29.1102 166.944 31.3656 169.693 34.2557C172.442 37.1458 174.626 40.5644 176.245 44.5116C177.939 48.3881 178.786 52.6171 178.786 57.1987ZM163.35 57.1987C163.35 54.3788 162.927 51.8049 162.081 49.4769C161.235 47.149 160.037 45.1756 158.486 43.5569C157.02 41.8747 155.171 40.5693 153.094 39.7506C151.05 38.8344 148.759 38.3763 146.223 38.3763C144.601 38.3763 142.733 38.7286 140.619 39.4332C138.504 40.0671 136.742 40.9138 135.33 41.9736V71.3654C138.643 74.3963 142.378 75.9118 146.537 75.9118C148.933 75.9118 151.154 75.4537 153.198 74.5375C155.312 73.6213 157.11 72.3526 158.59 70.7312C160.07 69.0397 161.233 67.0661 162.079 64.8104C162.924 62.4846 163.347 59.9473 163.348 57.1987" fill="#333333"/>
<path d="M249.588 38.2219C250.174 39.0638 250.703 39.9434 251.173 40.8551C251.722 41.7615 252.262 42.7169 252.793 43.7215L212.781 71.7383C214.268 72.8671 215.885 73.8147 217.597 74.561C219.356 75.2257 221.204 75.6283 223.08 75.7559C224.981 75.8262 226.883 75.6248 228.727 75.1577C230.651 74.5857 232.536 73.6528 234.383 72.3591C236.635 70.782 238.624 68.83 240.35 66.5031C242.035 64.1179 243.164 61.7358 243.735 59.3569L257.135 61.7195C255.49 66.743 253.377 70.976 250.796 74.4183C248.233 77.7618 245.103 80.7272 241.408 83.3146C237.655 85.9421 233.648 87.7153 229.387 88.6341C225.184 89.5123 221.041 89.6163 216.958 88.9461C212.933 88.2358 209.116 86.7783 205.507 84.5735C201.857 82.31 198.759 79.3597 196.212 75.7224C193.666 72.0851 191.973 68.1935 191.135 64.0477C190.256 59.8441 190.201 55.7103 190.969 51.6461C191.736 47.5819 193.252 43.7239 195.515 40.072C197.778 36.4223 200.757 33.3024 204.452 30.7123C207.922 28.2699 211.839 26.5359 215.98 25.6097C220.103 24.616 224.214 24.4047 228.314 24.9756C232.413 25.5465 236.317 26.9432 240.024 29.1656C243.692 31.3308 246.879 34.3467 249.588 38.2133V38.2219ZM233.114 42.5204C229.91 40.0322 226.37 38.725 222.495 38.5987C218.637 38.3735 215.121 39.3729 211.946 41.5969C208.826 43.7808 206.713 46.7231 205.607 50.4239C204.458 54.0674 204.505 57.8206 205.747 61.6836L233.114 42.5204Z" fill="#333333"/>
<path d="M324.985 87.7535H309.761V51.2779C309.761 49.094 309.408 47.1908 308.703 45.5685C308.069 43.877 307.188 42.5024 306.06 41.4448C304.965 40.338 303.625 39.5051 302.148 39.0136C300.736 38.449 299.229 38.1617 297.708 38.1673C295.359 38.1717 293.031 38.6017 290.836 39.4363C288.58 40.2116 286.536 41.4804 284.703 43.2426V87.7535H269.373V26.6432H284.707V31.1897C285.623 30.2734 286.751 29.4277 288.09 28.6524C289.402 27.89 290.782 27.2528 292.213 26.7492C293.653 26.197 295.139 25.7723 296.653 25.4802C298.118 25.2066 299.605 25.0651 301.095 25.0575C304.117 25.045 307.12 25.5461 309.975 26.5394C312.809 27.4925 315.404 29.0426 317.587 31.0851C319.843 33.1292 321.64 35.7725 322.98 39.0151C324.319 42.2578 324.989 46.0991 324.988 50.5393V87.755" fill="#333333"/>
<path d="M125.993 101.846C125.996 102.138 125.932 102.427 125.806 102.69C125.687 102.942 125.518 103.168 125.311 103.355C125.103 103.541 124.862 103.687 124.6 103.785C124.332 103.889 124.047 103.941 123.759 103.941L120.891 103.933V96.9129H123.465C123.758 96.9104 124.051 96.9579 124.329 97.0533C124.588 97.1414 124.826 97.2807 125.031 97.4627C125.235 97.645 125.396 97.87 125.503 98.1218C125.619 98.3958 125.676 98.6909 125.672 98.9884C125.672 99.2649 125.61 99.538 125.489 99.7871C125.368 100.043 125.264 100.204 125.177 100.269C125.257 100.323 125.33 100.386 125.394 100.457C125.52 100.578 125.628 100.716 125.716 100.866C125.892 101.165 125.985 101.505 125.986 101.852L125.993 101.846ZM124.053 99.0079C124.057 98.891 124.032 98.775 123.98 98.6701C123.933 98.5779 123.865 98.4978 123.781 98.4361C123.691 98.3701 123.59 98.3209 123.482 98.2911C123.363 98.2565 123.24 98.2394 123.116 98.2404H122.53V99.7364C122.556 99.7364 122.624 99.7364 122.734 99.7364H123.116C123.241 99.7372 123.365 99.7228 123.486 99.6934C123.593 99.6685 123.695 99.6238 123.785 99.5616C123.867 99.5048 123.934 99.4295 123.982 99.3417C124.033 99.238 124.057 99.1234 124.053 99.0079V99.0079ZM124.305 101.771C124.306 101.663 124.284 101.557 124.24 101.459C124.2 101.367 124.14 101.285 124.064 101.219C123.987 101.151 123.899 101.098 123.802 101.063C123.697 101.025 123.585 101.006 123.473 101.007C123.284 101.001 123.099 101.001 122.916 101.007C122.734 101.013 122.604 101.007 122.53 101.007V102.506H123.326C123.45 102.506 123.575 102.491 123.696 102.462C123.809 102.436 123.916 102.39 124.013 102.326C124.1 102.267 124.172 102.189 124.225 102.099C124.28 101.998 124.307 101.884 124.303 101.769L124.305 101.771ZM131.91 103.926H127.049V96.9121H128.712V102.329H131.91V103.926ZM139.54 100.416C139.543 100.906 139.442 101.39 139.246 101.838C139.058 102.272 138.786 102.666 138.446 102.995C138.103 103.324 137.702 103.587 137.263 103.769C136.343 104.147 135.31 104.147 134.39 103.769C133.949 103.587 133.547 103.325 133.203 102.995C132.864 102.667 132.591 102.275 132.401 101.842C132.208 101.391 132.108 100.905 132.108 100.415C132.108 99.9237 132.208 99.4379 132.401 98.9868C132.591 98.5526 132.863 98.1596 133.203 97.8301C133.91 97.1528 134.851 96.7752 135.829 96.7764C136.553 96.7703 137.262 96.9767 137.87 97.3699C138.477 97.7631 138.956 98.3258 139.247 98.9884C139.444 99.4373 139.544 99.9229 139.541 100.413L139.54 100.416ZM137.892 100.416C137.894 100.142 137.838 99.8709 137.73 99.6194C137.517 99.1248 137.123 98.7308 136.628 98.5188C136.376 98.4087 136.104 98.3524 135.829 98.3535C135.55 98.3517 135.275 98.408 135.019 98.5188C134.773 98.6246 134.55 98.776 134.36 98.965C134.173 99.1531 134.022 99.3752 133.918 99.6194C133.812 99.8711 133.757 100.141 133.757 100.415C133.757 100.688 133.812 100.958 133.918 101.21C134.022 101.455 134.172 101.679 134.36 101.868C134.55 102.057 134.773 102.209 135.019 102.315C135.275 102.426 135.55 102.482 135.829 102.48C136.104 102.481 136.377 102.424 136.629 102.314C136.875 102.208 137.098 102.056 137.287 101.867C137.476 101.678 137.626 101.455 137.73 101.209C137.838 100.958 137.893 100.688 137.893 100.416L137.892 100.416ZM147.167 102.543C146.795 103.013 146.328 103.399 145.797 103.677C145.284 103.931 144.719 104.059 144.147 104.053C143.647 104.056 143.15 103.96 142.688 103.769C142.246 103.588 141.842 103.325 141.498 102.995C141.158 102.667 140.885 102.275 140.696 101.842C140.502 101.392 140.402 100.907 140.402 100.417C140.402 99.9267 140.502 99.4417 140.696 98.9915C141.081 98.1114 141.796 97.4178 142.688 97.0603C143.151 96.8715 143.647 96.7761 144.147 96.7795C144.719 96.7727 145.284 96.9018 145.796 97.1562C146.317 97.4256 146.776 97.801 147.143 98.2583L145.996 99.4376C145.725 99.0503 145.439 98.7731 145.138 98.6062C144.863 98.4576 144.558 98.3728 144.246 98.3581C143.934 98.3434 143.622 98.3991 143.334 98.5212C143.086 98.6277 142.859 98.7795 142.666 98.9689C142.476 99.1567 142.323 99.3787 142.215 99.6233C142.105 99.874 142.049 100.145 142.051 100.419C142.05 100.69 142.106 100.958 142.215 101.206C142.323 101.45 142.476 101.672 142.666 101.86C142.859 102.05 143.086 102.201 143.334 102.308C143.591 102.418 143.868 102.473 144.148 102.47C144.502 102.477 144.85 102.388 145.157 102.212C145.45 102.039 145.735 101.753 146.011 101.354L147.167 102.543ZM154.139 103.926H151.982L149.56 101.25V103.926H147.922V96.9066H149.56V99.6139L152.041 96.9066H154.046L150.874 100.36L154.139 103.926ZM160.254 102.542C159.882 103.012 159.415 103.398 158.884 103.676C158.371 103.93 157.806 104.058 157.234 104.052C156.733 104.055 156.237 103.959 155.775 103.768C155.333 103.587 154.929 103.325 154.584 102.994C154.244 102.666 153.972 102.274 153.782 101.841C153.589 101.391 153.489 100.906 153.489 100.416C153.489 99.926 153.589 99.441 153.782 98.9907C154.167 98.1103 154.883 97.4166 155.775 97.0595C156.238 96.8707 156.734 96.7753 157.234 96.7787C157.805 96.7718 158.37 96.901 158.882 97.1554C159.401 97.4259 159.858 97.8015 160.223 98.2583L159.075 99.4376C158.804 99.0503 158.518 98.7731 158.217 98.6062C157.942 98.4576 157.637 98.3728 157.325 98.3581C157.012 98.3434 156.701 98.3991 156.413 98.5212C156.165 98.6277 155.938 98.7795 155.745 98.9689C155.555 99.1563 155.402 99.3784 155.295 99.6233C155.184 99.8739 155.128 100.145 155.13 100.419C155.129 100.69 155.185 100.958 155.295 101.206C155.402 101.451 155.555 101.673 155.745 101.86C155.938 102.05 156.165 102.201 156.413 102.308C156.67 102.419 156.946 102.475 157.226 102.473C157.579 102.48 157.928 102.391 158.235 102.215C158.528 102.042 158.813 101.756 159.089 101.357L160.254 102.542ZM166.571 103.926H164.933V100.973H162.641V103.926H161.003V96.9121H162.641V99.5577H164.924V96.9121H166.562L166.571 103.926ZM175.146 103.926H173.345L172.726 102.591H169.704L169.08 103.926H167.276L170.595 96.9066H171.824L175.146 103.926ZM172.059 101.169L171.212 99.3503L170.358 101.17L172.059 101.169ZM177.492 103.926H175.854V96.9121H177.492V103.926ZM184.777 103.926H183.242L180.49 99.6623V103.929H178.876V96.909H180.591L183.154 100.854V96.909H184.769L184.777 103.926Z" fill="black"/>
<path d="M198.698 103.926H193.945V96.9119H198.698V98.3268H195.561V99.5747H198.656V100.964H195.561V102.454H198.698V103.926ZM206.692 100.416C206.695 100.881 206.612 101.342 206.446 101.777C206.29 102.188 206.057 102.566 205.76 102.891C205.456 103.222 205.087 103.484 204.676 103.663C204.265 103.841 203.82 103.931 203.372 103.927H200.408V96.9072H203.372C203.832 96.9026 204.288 96.9992 204.707 97.1904C205.104 97.37 205.462 97.6272 205.76 97.9469C206.058 98.2711 206.291 98.6498 206.446 99.0623C206.611 99.4953 206.694 99.9552 206.692 100.419V100.416ZM205.036 100.38C205.042 100.1 204.998 99.8218 204.904 99.5583C204.816 99.3097 204.68 99.0809 204.504 98.8852C204.326 98.6907 204.107 98.537 203.864 98.4344C203.593 98.3207 203.301 98.2643 203.006 98.269H202.052V102.481H203.006C203.295 102.486 203.583 102.433 203.851 102.325C204.09 102.226 204.305 102.078 204.482 101.89C204.659 101.698 204.796 101.473 204.884 101.227C204.984 100.956 205.037 100.671 205.04 100.382L205.036 100.38ZM214.59 96.9049V100.7C214.594 101.143 214.523 101.583 214.38 102.002C214.247 102.393 214.039 102.754 213.765 103.064C213.493 103.372 213.157 103.617 212.781 103.783C211.942 104.129 211 104.131 210.159 103.788C209.782 103.626 209.442 103.387 209.163 103.086C208.884 102.782 208.669 102.424 208.53 102.036C208.381 101.621 208.307 101.184 208.311 100.744V96.9072H209.949V100.752C209.947 100.978 209.98 101.202 210.047 101.418C210.107 101.612 210.204 101.792 210.333 101.949C210.459 102.1 210.617 102.221 210.796 102.303C210.998 102.392 211.216 102.436 211.437 102.432C211.665 102.438 211.891 102.396 212.102 102.31C212.279 102.235 212.436 102.119 212.56 101.972C212.686 101.817 212.78 101.639 212.837 101.448C212.903 101.228 212.935 100.998 212.932 100.768V96.9072L214.59 96.9049ZM222.891 102.543C222.519 103.013 222.052 103.399 221.521 103.677C221.009 103.93 220.443 104.059 219.871 104.053C219.371 104.056 218.875 103.959 218.412 103.769C217.971 103.588 217.567 103.325 217.222 102.995C216.882 102.667 216.609 102.275 216.42 101.842C216.226 101.392 216.126 100.907 216.126 100.417C216.126 99.9266 216.226 99.4416 216.42 98.9913C216.805 98.1113 217.521 97.4178 218.412 97.0601C218.875 96.8713 219.371 96.7759 219.871 96.7793C220.443 96.7725 221.008 96.9016 221.521 97.156C222.041 97.425 222.499 97.7996 222.867 98.2558L221.719 99.4351C221.448 99.0477 221.162 98.7706 220.861 98.6037C220.586 98.4551 220.281 98.3703 219.968 98.3556C219.656 98.3409 219.344 98.3966 219.057 98.5186C218.808 98.6253 218.582 98.7771 218.389 98.9664C218.198 99.1538 218.045 99.3759 217.938 99.6207C217.828 99.8714 217.772 100.142 217.774 100.416C217.772 100.687 217.828 100.956 217.938 101.203C218.045 101.448 218.198 101.67 218.389 101.858C218.582 102.047 218.808 102.199 219.057 102.305C219.313 102.416 219.59 102.473 219.869 102.471C220.223 102.478 220.572 102.389 220.879 102.213C221.172 102.04 221.458 101.754 221.737 101.355L222.891 102.543ZM231.393 103.927H229.591L228.972 102.592H225.955L225.332 103.927H223.529L226.848 96.9072H228.079L231.393 103.927ZM228.305 101.17L227.465 99.3501L226.611 101.17H228.305ZM236.503 98.4094H234.659V103.926H233.003V98.4094H231.158V96.9119H236.503V98.4094ZM239.681 103.926H238.044V96.9119H239.681V103.926ZM248.82 100.416C248.822 100.905 248.722 101.39 248.526 101.837C248.338 102.272 248.066 102.665 247.725 102.995C247.383 103.324 246.982 103.587 246.543 103.769C245.623 104.147 244.59 104.147 243.67 103.769C243.23 103.587 242.827 103.324 242.484 102.995C242.144 102.667 241.871 102.275 241.681 101.842C241.488 101.391 241.388 100.905 241.388 100.414C241.388 99.9235 241.488 99.4378 241.681 98.9866C241.87 98.5522 242.143 98.1591 242.484 97.8299C243.19 97.1538 244.131 96.7773 245.109 96.7793C245.832 96.7733 246.541 96.9796 247.149 97.3728C247.756 97.766 248.235 98.3287 248.526 98.9913C248.723 99.4402 248.823 99.9259 248.82 100.416V100.416ZM247.172 100.416C247.174 100.142 247.119 99.8708 247.01 99.6192C246.797 99.125 246.403 98.7312 245.908 98.5186C245.654 98.4096 245.38 98.3533 245.104 98.3533C244.827 98.3533 244.554 98.4096 244.3 98.5186C243.805 98.7304 243.41 99.1244 243.198 99.6192C243.092 99.8709 243.037 100.141 243.037 100.414C243.037 100.687 243.092 100.958 243.198 101.21C243.302 101.455 243.453 101.678 243.641 101.868C243.831 102.057 244.056 102.208 244.303 102.314C244.557 102.423 244.831 102.479 245.107 102.479C245.383 102.479 245.657 102.423 245.911 102.314C246.157 102.208 246.38 102.056 246.569 101.867C246.758 101.678 246.909 101.455 247.013 101.209C247.121 100.958 247.176 100.688 247.175 100.416L247.172 100.416ZM256.399 103.926H254.864L252.117 99.6597V103.926H250.503V96.9064H252.219L254.782 100.852V96.9064H256.397L256.399 103.926Z" fill="black"/>
<path d="M272.784 103.926H271.249L268.503 99.6598V103.926H266.889V96.9065H268.605L271.168 100.852V96.9065H272.782L272.784 103.926ZM280.563 103.926H275.811V96.912H280.563V98.3268H277.425V99.5748H280.521V100.964H277.425V102.455H280.563V103.926ZM288.258 98.4095H286.414V103.926H284.758V98.4095H282.913V96.912H288.258L288.258 98.4095ZM299.791 96.9042L297.508 103.924H296.119L295.021 100.233L293.916 103.924H292.525L290.243 96.9042H291.976L293.248 100.799L294.348 96.9042H295.674L296.774 100.808L298.063 96.9042H299.791ZM309.138 100.414C309.141 100.903 309.041 101.387 308.844 101.835C308.656 102.27 308.384 102.663 308.044 102.993C307.701 103.322 307.3 103.584 306.862 103.766C305.941 104.145 304.909 104.145 303.988 103.766C303.548 103.585 303.146 103.322 302.802 102.993C302.462 102.664 302.19 102.273 302 101.84C301.807 101.389 301.707 100.903 301.707 100.412C301.707 99.9213 301.807 99.4355 302 98.9844C302.19 98.5506 302.462 98.1582 302.803 97.8292C303.146 97.4998 303.549 97.2385 303.99 97.0594C304.668 96.7798 305.413 96.7041 306.133 96.8416C306.853 96.979 307.518 97.3236 308.046 97.8331C308.385 98.1638 308.656 98.5568 308.846 98.9906C309.043 99.4396 309.144 99.9252 309.14 100.416L309.138 100.414ZM307.491 100.414C307.493 100.14 307.437 99.8686 307.329 99.6169C307.116 99.1227 306.721 98.7289 306.227 98.5164C305.973 98.4073 305.699 98.351 305.423 98.351C305.146 98.351 304.872 98.4073 304.618 98.5164C304.123 98.7275 303.728 99.1218 303.516 99.6169C303.41 99.8686 303.356 100.139 303.356 100.412C303.356 100.685 303.41 100.956 303.516 101.207C303.621 101.453 303.771 101.676 303.959 101.866C304.149 102.055 304.372 102.206 304.618 102.313C304.873 102.421 305.146 102.477 305.423 102.477C305.699 102.477 305.973 102.421 306.227 102.313C306.723 102.1 307.117 101.704 307.329 101.207C307.436 100.957 307.492 100.687 307.491 100.414V100.414ZM317.38 103.924H315.516L315.002 102.286C314.959 102.139 314.901 101.998 314.829 101.862C314.769 101.745 314.69 101.638 314.595 101.545C314.501 101.457 314.391 101.388 314.27 101.345C314.123 101.293 313.968 101.268 313.812 101.272H313.5V103.924H311.877V96.9096L314.685 96.9018C314.978 96.8987 315.269 96.9517 315.543 97.0578C315.8 97.1574 316.035 97.3075 316.234 97.4993C316.428 97.6885 316.583 97.9147 316.689 98.1646C316.8 98.4263 316.856 98.7079 316.853 98.9922C316.854 99.2042 316.82 99.4149 316.753 99.6162C316.688 99.8145 316.593 100.002 316.472 100.172C316.35 100.343 316.204 100.495 316.038 100.623C315.87 100.754 315.769 100.8 315.735 100.762C315.809 100.738 315.921 100.809 316.071 100.976C316.224 101.147 316.344 101.346 316.424 101.561C316.464 101.657 316.501 101.753 316.534 101.849L316.639 102.148C316.675 102.25 316.717 102.362 316.756 102.482C316.795 102.602 316.844 102.734 316.894 102.879C316.955 103.06 317.01 103.213 317.061 103.338C317.153 103.542 317.26 103.738 317.381 103.926L317.38 103.924ZM315.204 99.0881C315.206 98.9657 315.181 98.8444 315.131 98.7325C315.083 98.628 315.016 98.5337 314.932 98.4548C314.846 98.3731 314.744 98.3097 314.633 98.2684C314.514 98.2232 314.387 98.2005 314.26 98.2013H313.498V99.9328H314.26C314.388 99.9341 314.515 99.914 314.637 99.8736C314.747 99.8369 314.849 99.7789 314.936 99.7027C315.023 99.6259 315.091 99.5311 315.138 99.4249C315.184 99.3188 315.207 99.2039 315.204 99.0881V99.0881ZM326.001 103.924H323.846L321.425 101.247V103.924H319.787V96.9042H321.425V99.6115L323.906 96.9042H325.911L322.739 100.357L326.001 103.924Z" fill="black"/>
</svg>
