<svg width="65" height="65" viewBox="0 0 65 65" fill="none" xmlns="http://www.w3.org/2000/svg">
<g clip-path="url(#clip0)">
<path d="M62.7998 5.59996C62.7998 3.99996 61.4998 2.79996 59.9998 2.79996H5.5998C4.0998 2.69996 2.7998 3.99996 2.7998 5.59996V59.8C2.7998 61.4 4.0998 62.6 5.5998 62.6H59.9998C61.5998 62.6 62.7998 61.3 62.7998 59.8V5.59996Z" stroke="#00B9F2" stroke-width="2" stroke-miterlimit="10"/>
<path d="M2.90039 12.3L62.5004 12.4" stroke="#00B9F2" stroke-width="2" stroke-miterlimit="10"/>
<path d="M30.9004 30.2L36.4004 26.1L41.7004 28.9L46.9004 23.3L51.6004 24.9L56.8004 21" stroke="#00B9F2" stroke-width="2" stroke-miterlimit="10" stroke-linecap="round" stroke-linejoin="round"/>
<path d="M16.8998 56.5C21.3733 56.5 24.9998 52.8736 24.9998 48.4001C24.9998 43.9265 21.3733 40.3 16.8998 40.3C12.4263 40.3 8.7998 43.9265 8.7998 48.4001C8.7998 52.8736 12.4263 56.5 16.8998 56.5Z" stroke="#00B9F2" stroke-width="2" stroke-miterlimit="10" stroke-linecap="round" stroke-linejoin="round"/>
<path d="M16.8998 48.4001L24.9998 48.6C24.8998 53 21.2998 56.5 16.8998 56.5C12.4998 56.5 8.7998 52.9001 8.7998 48.4001C8.7998 43.9001 12.3998 40.3 16.8998 40.3C19.2998 40.3 21.5998 41.4001 23.0998 43.2001L16.8998 48.4001Z" stroke="#00B9F2" stroke-width="2" stroke-miterlimit="10" stroke-linecap="round" stroke-linejoin="round"/>
<path d="M36.5996 46.7L40.7996 43.6" stroke="#00B9F2" stroke-width="2" stroke-miterlimit="10" stroke-linecap="round" stroke-linejoin="round"/>
<path d="M47.2002 42L51.1002 43" stroke="#00B9F2" stroke-width="2" stroke-miterlimit="10" stroke-linecap="round" stroke-linejoin="round"/>
<path d="M33.7998 50.9V56.7" stroke="#00B9F2" stroke-width="2" stroke-miterlimit="10" stroke-linecap="round" stroke-linejoin="round"/>
<path d="M44 45.3V56.5" stroke="#00B9F2" stroke-width="2" stroke-miterlimit="10" stroke-linecap="round" stroke-linejoin="round"/>
<path d="M54.2002 47.2V56.7" stroke="#00B9F2" stroke-width="2" stroke-miterlimit="10" stroke-linecap="round" stroke-linejoin="round"/>
<path d="M56.9 56.8H31" stroke="#00B9F2" stroke-width="2" stroke-miterlimit="10" stroke-linecap="round" stroke-linejoin="round"/>
<path d="M12.5004 21.9L11.4004 20.8" stroke="#00B9F2" stroke-width="2" stroke-miterlimit="10" stroke-linecap="round" stroke-linejoin="round"/>
<path d="M16.7998 20V18.5" stroke="#00B9F2" stroke-width="2" stroke-miterlimit="10" stroke-linecap="round" stroke-linejoin="round"/>
<path d="M21.5 21.8L22.6 20.8" stroke="#00B9F2" stroke-width="2" stroke-miterlimit="10" stroke-linecap="round" stroke-linejoin="round"/>
<path d="M8.90039 26.4H10.5004" stroke="#00B9F2" stroke-width="2" stroke-miterlimit="10" stroke-linecap="round" stroke-linejoin="round"/>
<path d="M11.4004 32.1L12.4004 30.9" stroke="#00B9F2" stroke-width="2" stroke-miterlimit="10" stroke-linecap="round" stroke-linejoin="round"/>
<path d="M18.5996 27.1L19.7996 27.6" stroke="#00B9F2" stroke-width="2" stroke-miterlimit="10" stroke-linecap="round" stroke-linejoin="round"/>
<path d="M22.9004 28.9L24.2004 29.6" stroke="#00B9F2" stroke-width="2" stroke-miterlimit="10" stroke-linecap="round" stroke-linejoin="round"/>
<path d="M23.4004 26.4L24.8004 26.6" stroke="#00B9F2" stroke-width="2" stroke-miterlimit="10" stroke-linecap="round" stroke-linejoin="round"/>
<path d="M21.5 30.9L22.5 31.9" stroke="#00B9F2" stroke-width="2" stroke-miterlimit="10" stroke-linecap="round" stroke-linejoin="round"/>
<path d="M16.8002 34.5C21.2737 34.5 24.9002 30.8736 24.9002 26.4C24.9002 21.9265 21.2737 18.3 16.8002 18.3C12.3267 18.3 8.7002 21.9265 8.7002 26.4C8.7002 30.8736 12.3267 34.5 16.8002 34.5Z" stroke="#00B9F2" stroke-width="2" stroke-miterlimit="10" stroke-linecap="round" stroke-linejoin="round"/>
<path d="M16.8996 28.2C17.8937 28.2 18.6996 27.3941 18.6996 26.4C18.6996 25.4059 17.8937 24.6 16.8996 24.6C15.9055 24.6 15.0996 25.4059 15.0996 26.4C15.0996 27.3941 15.9055 28.2 16.8996 28.2Z" stroke="#00B9F2" stroke-width="2" stroke-miterlimit="10" stroke-linecap="round" stroke-linejoin="round"/>
<path d="M57.1998 19.4C57.1998 18.6 56.5998 18 55.7998 18H32.1998C31.3998 18 30.7998 18.6 30.7998 19.4V32.7C30.7998 33.5 31.3998 34.1 32.1998 34.1H55.7998C56.5998 34.1 57.1998 33.5 57.1998 32.7V19.4Z" stroke="#00B9F2" stroke-width="2" stroke-miterlimit="10"/>
<path d="M33.8004 50.9C35.402 50.9 36.7004 49.6016 36.7004 48C36.7004 46.3984 35.402 45.1 33.8004 45.1C32.1988 45.1 30.9004 46.3984 30.9004 48C30.9004 49.6016 32.1988 50.9 33.8004 50.9Z" stroke="#00B9F2" stroke-width="2" stroke-miterlimit="10" stroke-linecap="round" stroke-linejoin="round"/>
<path d="M43.9996 44.8C45.6012 44.8 46.8996 43.5016 46.8996 41.9C46.8996 40.2984 45.6012 39 43.9996 39C42.398 39 41.0996 40.2984 41.0996 41.9C41.0996 43.5016 42.398 44.8 43.9996 44.8Z" stroke="#00B9F2" stroke-width="2" stroke-miterlimit="10" stroke-linecap="round" stroke-linejoin="round"/>
<path d="M53.9996 46.2C55.6012 46.2 56.8996 44.9016 56.8996 43.3C56.8996 41.6984 55.6012 40.4 53.9996 40.4C52.398 40.4 51.0996 41.6984 51.0996 43.3C51.0996 44.9016 52.398 46.2 53.9996 46.2Z" stroke="#00B9F2" stroke-width="2" stroke-miterlimit="10" stroke-linecap="round" stroke-linejoin="round"/>
</g>
<defs>
<clipPath id="clip0">
<rect width="65" height="65" fill="white"/>
</clipPath>
</defs>
</svg>
