<svg width="60" height="60" viewBox="0 0 60 60" fill="none" xmlns="http://www.w3.org/2000/svg">
<path d="M54.375 6.5625C54.8928 6.5625 55.3125 6.14277 55.3125 5.625C55.3125 5.10723 54.8928 4.6875 54.375 4.6875C53.8572 4.6875 53.4375 5.10723 53.4375 5.625C53.4375 6.14277 53.8572 6.5625 54.375 6.5625Z" fill="url(#paint0_linear)"/>
<path d="M50.625 6.5625C51.1428 6.5625 51.5625 6.14277 51.5625 5.625C51.5625 5.10723 51.1428 4.6875 50.625 4.6875C50.1072 4.6875 49.6875 5.10723 49.6875 5.625C49.6875 6.14277 50.1072 6.5625 50.625 6.5625Z" fill="url(#paint1_linear)"/>
<path d="M46.875 6.5625C47.3928 6.5625 47.8125 6.14277 47.8125 5.625C47.8125 5.10723 47.3928 4.6875 46.875 4.6875C46.3572 4.6875 45.9375 5.10723 45.9375 5.625C45.9375 6.14277 46.3572 6.5625 46.875 6.5625Z" fill="url(#paint2_linear)"/>
<path d="M56.7188 0H3.28125C2.41101 0 1.57641 0.345702 0.961056 0.961056C0.345702 1.57641 0 2.41101 0 3.28125L0 56.7188C0 57.589 0.345702 58.4236 0.961056 59.0389C1.57641 59.6543 2.41101 60 3.28125 60H56.7188C57.589 60 58.4236 59.6543 59.0389 59.0389C59.6543 58.4236 60 57.589 60 56.7188V3.28125C60 2.41101 59.6543 1.57641 59.0389 0.961056C58.4236 0.345702 57.589 0 56.7188 0ZM3.28125 1.875H56.7188C57.0917 1.875 57.4494 2.02316 57.7131 2.28688C57.9768 2.5506 58.125 2.90829 58.125 3.28125V9.375H1.875V3.28125C1.875 2.90829 2.02316 2.5506 2.28688 2.28688C2.5506 2.02316 2.90829 1.875 3.28125 1.875ZM56.7188 58.125H3.28125C2.90829 58.125 2.5506 57.9768 2.28688 57.7131C2.02316 57.4494 1.875 57.0917 1.875 56.7188V11.25H58.125V56.7188C58.125 57.0917 57.9768 57.4494 57.7131 57.7131C57.4494 57.9768 57.0917 58.125 56.7188 58.125Z" fill="url(#paint3_linear)"/>
<path d="M18.2813 25.4673C18.3798 25.242 18.3859 24.987 18.2982 24.7573C18.2105 24.5276 18.0361 24.3415 17.8125 24.2391L17.086 23.9391C17.087 23.7819 17.0729 23.6249 17.0438 23.4704C16.9585 22.975 16.7279 22.5162 16.3813 22.1521C16.0348 21.7881 15.5878 21.5352 15.0972 21.4257C14.6067 21.3162 14.0946 21.3549 13.6261 21.5369C13.1576 21.719 12.7537 22.0362 12.4658 22.4482C12.1779 22.8602 12.019 23.3485 12.0092 23.8511C11.9993 24.3536 12.1391 24.8478 12.4106 25.2708C12.6822 25.6937 13.0733 26.0265 13.5344 26.2267C13.9954 26.4269 14.5055 26.4857 15 26.3954C15.5167 26.3016 15.9907 26.0474 16.3547 25.6688L17.0813 25.9735C17.1961 26.0193 17.3186 26.0432 17.4422 26.0438C17.6227 26.0388 17.798 25.9816 17.9468 25.8794C18.0957 25.7771 18.2118 25.634 18.2813 25.4673ZM14.6344 24.5532C14.4626 24.5821 14.2862 24.5435 14.1422 24.4454C14 24.3456 13.9024 24.1942 13.8703 24.0235C13.8475 23.8593 13.8859 23.6925 13.9781 23.5548C14.0779 23.4126 14.2293 23.315 14.4 23.2829H14.5172C14.6513 23.2821 14.7824 23.3231 14.8922 23.4001C15.0344 23.4998 15.132 23.6512 15.1641 23.822C15.1869 23.9861 15.1485 24.153 15.0563 24.2907C14.9582 24.4264 14.8126 24.5201 14.6485 24.5532H14.6344Z" fill="url(#paint4_linear)"/>
<path d="M20.8313 17.6156C19.3745 16.1578 17.4574 15.2503 15.4065 15.0478C13.3556 14.8452 11.298 15.3602 9.58428 16.5049C7.87058 17.6496 6.60688 19.3532 6.00859 21.3253C5.41029 23.2974 5.51442 25.4159 6.30322 27.3198C7.09203 29.2238 8.51669 30.7952 10.3344 31.7663C12.1521 32.7374 14.2503 33.0482 16.2714 32.6455C18.2926 32.2428 20.1115 31.1517 21.4182 29.5581C22.725 27.9645 23.4386 25.967 23.4375 23.9062C23.4386 22.7373 23.2084 21.5797 22.7603 20.5001C22.3122 19.4205 21.655 18.4402 20.8266 17.6156H20.8313ZM10.2797 29.4937L10.7813 28.9828C10.8827 28.9002 10.9658 28.7974 11.0252 28.6808C11.0845 28.5643 11.1188 28.4366 11.1259 28.306C11.133 28.1754 11.1126 28.0447 11.0662 27.9225C11.0197 27.8002 10.9482 27.689 10.8562 27.596C10.7642 27.503 10.6538 27.4303 10.532 27.3826C10.4102 27.3348 10.2798 27.3131 10.1491 27.3188C10.0185 27.3244 9.89043 27.3574 9.77325 27.4155C9.65607 27.4736 9.55235 27.5556 9.46875 27.6562L8.95313 28.1718C8.20039 27.2051 7.71539 26.0573 7.54688 24.8437H8.28281C8.53145 24.8437 8.76991 24.7449 8.94573 24.5691C9.12154 24.3933 9.22031 24.1548 9.22031 23.9062C9.22031 23.6575 9.12154 23.4191 8.94573 23.2433C8.76991 23.0675 8.53145 22.9687 8.28281 22.9687H7.57031C7.73023 21.7606 8.20555 20.6159 8.94844 19.6499L9.45469 20.1562C9.5419 20.2439 9.64562 20.3135 9.75986 20.361C9.8741 20.4085 9.9966 20.4328 10.1203 20.4328C10.3061 20.4329 10.4878 20.3778 10.6422 20.2745C10.7967 20.1712 10.917 20.0244 10.9878 19.8526C11.0586 19.6808 11.0768 19.4918 11.04 19.3097C11.0032 19.1276 10.9132 18.9605 10.7813 18.8296L10.2656 18.3187C11.2345 17.5754 12.3827 17.1016 13.5938 16.9453V17.6671C13.5938 17.9158 13.6925 18.1542 13.8683 18.33C14.0442 18.5059 14.2826 18.6046 14.5313 18.6046C14.7799 18.6046 15.0183 18.5059 15.1942 18.33C15.37 18.1542 15.4688 17.9158 15.4688 17.6671V16.9453C16.6772 17.1168 17.8198 17.6016 18.7828 18.3515L18.2813 18.8296C18.1941 18.9173 18.1252 19.0214 18.0783 19.1357C18.0314 19.2501 18.0074 19.3726 18.0079 19.4962C18.0083 19.6198 18.0331 19.7422 18.0808 19.8562C18.1285 19.9702 18.1982 20.0738 18.2859 20.1609C18.3737 20.248 18.4777 20.317 18.592 20.3639C18.7064 20.4108 18.8289 20.4347 18.9525 20.4342C19.0762 20.4338 19.1985 20.409 19.3125 20.3613C19.4266 20.3136 19.5301 20.2439 19.6172 20.1562L20.1187 19.6546C20.8573 20.6209 21.3307 21.7633 21.4922 22.9687H20.7844C20.5357 22.9687 20.2973 23.0675 20.1215 23.2433C19.9456 23.4191 19.8469 23.6575 19.8469 23.9062C19.8469 24.1548 19.9456 24.3933 20.1215 24.5691C20.2973 24.7449 20.5357 24.8437 20.7844 24.8437H21.4922C21.4538 25.1348 21.3959 25.4229 21.3188 25.7062L20.6531 25.4296C20.4267 25.3492 20.1781 25.3588 19.9586 25.4564C19.7391 25.554 19.5654 25.7321 19.4734 25.954C19.3814 26.1759 19.3781 26.4247 19.4642 26.649C19.5502 26.8732 19.7191 27.0559 19.9359 27.1593L20.6016 27.4359C20.462 27.6885 20.3054 27.9312 20.1328 28.1624L19.6078 27.6562C19.4319 27.4803 19.1933 27.3814 18.9445 27.3814C18.6958 27.3814 18.4572 27.4803 18.2813 27.6562C18.1053 27.8321 18.0065 28.0707 18.0065 28.3195C18.0065 28.5682 18.1053 28.8068 18.2813 28.9828L18.7875 29.489C17.5677 30.4267 16.0722 30.9351 14.5336 30.9351C12.995 30.9351 11.4995 30.4267 10.2797 29.489V29.4937Z" fill="url(#paint5_linear)"/>
<path d="M21.4312 39.8437C20.1039 38.2173 18.2446 37.112 16.1816 36.723C14.1185 36.334 11.9844 36.6862 10.1559 37.7176C8.32729 38.749 6.92184 40.3931 6.18755 42.3599C5.45326 44.3266 5.43734 46.4896 6.1426 48.4669C6.84786 50.4443 8.22896 52.109 10.0421 53.1671C11.8553 54.2253 13.984 54.6089 16.0525 54.2504C18.1211 53.8918 19.9964 52.814 21.3476 51.2072C22.6988 49.6005 23.439 47.5681 23.4375 45.4687C23.4374 43.4193 22.7304 41.4326 21.4359 39.8437H21.4312ZM20.5172 41.7937C21.0276 42.6287 21.3581 43.5611 21.4875 44.5312H17.1609L20.5172 41.7937ZM14.5312 52.5C13.3837 52.5017 12.2532 52.2226 11.2383 51.6869C10.2235 51.1513 9.35517 50.3754 8.70917 49.4269C8.06317 48.4785 7.65912 47.3863 7.53229 46.2458C7.40546 45.1053 7.5597 43.9511 7.98156 42.8839C8.40341 41.8167 9.08005 40.869 9.95242 40.1235C10.8248 39.378 11.8664 38.8573 12.9863 38.6069C14.1062 38.3565 15.2703 38.384 16.3771 38.687C17.4839 38.9901 18.4998 39.5594 19.3359 40.3453L13.9312 44.7421C13.7808 44.8648 13.6721 45.0312 13.6202 45.2184C13.5684 45.4055 13.5759 45.6041 13.6418 45.7867C13.7076 45.9694 13.8286 46.1271 13.9879 46.2381C14.1472 46.349 14.3371 46.4078 14.5312 46.4062H21.4828C21.2562 48.0905 20.4272 49.6358 19.1492 50.7561C17.8713 51.8764 16.2307 52.4959 14.5312 52.5Z" fill="url(#paint6_linear)"/>
<path d="M53.4375 15H28.125C27.8764 15 27.6379 15.0988 27.4621 15.2746C27.2863 15.4504 27.1875 15.6889 27.1875 15.9375V31.4062C27.1875 31.6549 27.2863 31.8933 27.4621 32.0692C27.6379 32.245 27.8764 32.3438 28.125 32.3438H53.4375C53.6861 32.3438 53.9246 32.245 54.1004 32.0692C54.2762 31.8933 54.375 31.6549 54.375 31.4062V15.9375C54.375 15.6889 54.2762 15.4504 54.1004 15.2746C53.9246 15.0988 53.6861 15 53.4375 15ZM52.5 16.875V18.2812L48.0281 21.4594L43.6641 20.1797C43.4987 20.1334 43.3239 20.1334 43.1586 20.1797C42.9932 20.226 42.8438 20.3168 42.7266 20.4422L38.3859 25.1297L33.75 23.0484C33.5933 22.9784 33.4204 22.9528 33.2501 22.9742C33.0799 22.9957 32.9188 23.0636 32.7844 23.1703L29.0625 26.1094V16.875H52.5ZM29.0625 30.4688V28.4953L33.4969 24.9937L38.2172 27.1078C38.396 27.1872 38.5953 27.2087 38.7869 27.1692C38.9786 27.1297 39.1531 27.0312 39.2859 26.8875L43.6922 22.1578L47.9391 23.4C48.075 23.4397 48.2181 23.4481 48.3578 23.4246C48.4974 23.401 48.6299 23.3461 48.7453 23.2641L52.4953 20.5922V30.4688H29.0625Z" fill="url(#paint7_linear)"/>
<path d="M54.375 40.3125C54.376 39.4414 54.0738 38.5972 53.5202 37.9247C52.9666 37.2522 52.1961 36.7934 51.3411 36.6271C50.4861 36.4607 49.5999 36.5972 48.8345 37.0131C48.0692 37.429 47.4725 38.0983 47.1469 38.9062L44.4797 38.2922C44.3243 37.3648 43.8262 36.5297 43.0842 35.9523C42.3421 35.3749 41.4102 35.0973 40.4731 35.1746C39.536 35.2518 38.6622 35.6783 38.0247 36.3694C37.3872 37.0606 37.0326 37.966 37.0312 38.9062C37.0336 39.2031 37.0698 39.4988 37.139 39.7875L33.6797 42.45C33.2838 42.0212 32.7934 41.6908 32.2474 41.4849C31.7014 41.2791 31.1148 41.2035 30.5345 41.2642C29.9541 41.3249 29.3959 41.5201 28.9043 41.8345C28.4127 42.1488 28.0012 42.5736 27.7026 43.0749C27.404 43.5763 27.2265 44.1404 27.1843 44.7224C27.142 45.3044 27.2362 45.8882 27.4593 46.4274C27.6823 46.9666 28.0282 47.4463 28.4692 47.8284C28.9103 48.2104 29.4345 48.4843 30 48.6281V52.5H28.125C27.8763 52.5 27.6379 52.5988 27.4621 52.7746C27.2862 52.9504 27.1875 53.1888 27.1875 53.4375C27.1875 53.6861 27.2862 53.9246 27.4621 54.1004C27.6379 54.2762 27.8763 54.375 28.125 54.375H53.4375C53.6861 54.375 53.9246 54.2762 54.1004 54.1004C54.2762 53.9246 54.375 53.6861 54.375 53.4375C54.375 53.1888 54.2762 52.9504 54.1004 52.7746C53.9246 52.5988 53.6861 52.5 53.4375 52.5H51.5625V43.9406C52.367 43.7329 53.0797 43.2639 53.5888 42.6072C54.0978 41.9505 54.3744 41.1434 54.375 40.3125ZM50.625 38.4375C50.9958 38.4375 51.3583 38.5474 51.6667 38.7535C51.975 38.9595 52.2153 39.2523 52.3573 39.595C52.4992 39.9376 52.5363 40.3146 52.464 40.6783C52.3916 41.042 52.213 41.3761 51.9508 41.6383C51.6886 41.9005 51.3545 42.0791 50.9908 42.1515C50.6271 42.2238 50.2501 42.1867 49.9074 42.0448C49.5648 41.9028 49.272 41.6625 49.066 41.3542C48.8599 41.0458 48.75 40.6833 48.75 40.3125C48.75 39.8152 48.9475 39.3383 49.2992 38.9867C49.6508 38.635 50.1277 38.4375 50.625 38.4375ZM40.7812 37.0312C41.1521 37.0312 41.5146 37.1412 41.8229 37.3472C42.1313 37.5533 42.3716 37.8461 42.5135 38.1887C42.6554 38.5313 42.6925 38.9083 42.6202 39.272C42.5479 39.6357 42.3693 39.9698 42.1071 40.2321C41.8448 40.4943 41.5107 40.6729 41.147 40.7452C40.7833 40.8176 40.4063 40.7804 40.0637 40.6385C39.7211 40.4966 39.4282 40.2563 39.2222 39.9479C39.0162 39.6396 38.9062 39.2771 38.9062 38.9062C38.9062 38.409 39.1038 37.932 39.4554 37.5804C39.807 37.2288 40.2839 37.0312 40.7812 37.0312ZM29.0625 45C29.0625 44.6291 29.1724 44.2666 29.3785 43.9583C29.5845 43.6499 29.8773 43.4096 30.2199 43.2677C30.5626 43.1258 30.9396 43.0887 31.3033 43.161C31.667 43.2334 32.0011 43.4119 32.2633 43.6742C32.5255 43.9364 32.7041 44.2705 32.7765 44.6342C32.8488 44.9979 32.8117 45.3749 32.6698 45.7175C32.5278 46.0601 32.2875 46.353 31.9792 46.559C31.6708 46.765 31.3083 46.875 30.9375 46.875C30.4402 46.875 29.9633 46.6774 29.6117 46.3258C29.26 45.9742 29.0625 45.4973 29.0625 45ZM31.875 48.6281C32.6795 48.4204 33.3922 47.9514 33.9013 47.2947C34.4103 46.638 34.6869 45.8309 34.6875 45C34.6851 44.7031 34.6489 44.4074 34.5797 44.1187L38.039 41.4562C38.5255 41.9803 39.1517 42.3544 39.8437 42.5344V52.5H31.875V48.6281ZM41.7187 52.5V42.5344C42.3069 42.3821 42.8493 42.0893 43.2992 41.681C43.7491 41.2727 44.0931 40.7613 44.3015 40.1906L46.9078 40.7812C47.002 41.5255 47.3172 42.2244 47.8127 42.7876C48.3082 43.3508 48.9613 43.7524 49.6875 43.9406V52.5H41.7187Z" fill="url(#paint8_linear)"/>
<defs>
<linearGradient id="paint0_linear" x1="54.2625" y1="6.555" x2="54.4631" y2="4.62937" gradientUnits="userSpaceOnUse">
<stop stop-color="#75DAFF"/>
<stop offset="1" stop-color="#00BAFF"/>
</linearGradient>
<linearGradient id="paint1_linear" x1="50.5125" y1="6.555" x2="50.7131" y2="4.62937" gradientUnits="userSpaceOnUse">
<stop stop-color="#75DAFF"/>
<stop offset="1" stop-color="#00BAFF"/>
</linearGradient>
<linearGradient id="paint2_linear" x1="46.7625" y1="6.555" x2="46.9631" y2="4.62937" gradientUnits="userSpaceOnUse">
<stop stop-color="#75DAFF"/>
<stop offset="1" stop-color="#00BAFF"/>
</linearGradient>
<linearGradient id="paint3_linear" x1="26.4" y1="59.76" x2="32.82" y2="-1.86" gradientUnits="userSpaceOnUse">
<stop stop-color="#75DAFF"/>
<stop offset="1" stop-color="#00BAFF"/>
</linearGradient>
<linearGradient id="paint4_linear" x1="14.8032" y1="26.4163" x2="15.2383" y2="21.1872" gradientUnits="userSpaceOnUse">
<stop stop-color="#75DAFF"/>
<stop offset="1" stop-color="#00BAFF"/>
</linearGradient>
<linearGradient id="paint5_linear" x1="13.4625" y1="32.7459" x2="15.3684" y2="14.4525" gradientUnits="userSpaceOnUse">
<stop stop-color="#75DAFF"/>
<stop offset="1" stop-color="#00BAFF"/>
</linearGradient>
<linearGradient id="paint6_linear" x1="13.4625" y1="54.31" x2="15.3684" y2="36.0165" gradientUnits="userSpaceOnUse">
<stop stop-color="#75DAFF"/>
<stop offset="1" stop-color="#00BAFF"/>
</linearGradient>
<linearGradient id="paint7_linear" x1="39.15" y1="32.2744" x2="40.3414" y2="14.3482" gradientUnits="userSpaceOnUse">
<stop stop-color="#75DAFF"/>
<stop offset="1" stop-color="#00BAFF"/>
</linearGradient>
<linearGradient id="paint8_linear" x1="39.1427" y1="54.2981" x2="40.6027" y2="34.4595" gradientUnits="userSpaceOnUse">
<stop stop-color="#75DAFF"/>
<stop offset="1" stop-color="#00BAFF"/>
</linearGradient>
</defs>
</svg>
