<svg width="65" height="65" viewBox="0 0 65 65" fill="none" xmlns="http://www.w3.org/2000/svg">
<path d="M24.9004 37.3V50.9001" stroke="#00B9F2" stroke-width="2" stroke-miterlimit="10" stroke-linecap="round" stroke-linejoin="round"/>
<path d="M31.1006 37.3V51" stroke="#00B9F2" stroke-width="2" stroke-miterlimit="10" stroke-linecap="round" stroke-linejoin="round"/>
<path d="M35 37.4V51" stroke="#00B9F2" stroke-width="2" stroke-miterlimit="10" stroke-linecap="round" stroke-linejoin="round"/>
<path d="M40.7002 37.4V51" stroke="#00B9F2" stroke-width="2" stroke-miterlimit="10" stroke-linecap="round" stroke-linejoin="round"/>
<path d="M32.9008 15.2C35.9936 15.2 38.5008 12.6928 38.5008 9.6C38.5008 6.50721 35.9936 4 32.9008 4C29.808 4 27.3008 6.50721 27.3008 9.6C27.3008 12.6928 29.808 15.2 32.9008 15.2Z" stroke="#00B9F2" stroke-width="2" stroke-miterlimit="10" stroke-linecap="round" stroke-linejoin="round"/>
<path d="M9.50047 10.1001C9.50047 10.1001 6.00047 11.5001 6.30047 15.2001C6.60047 18.9001 10.0005 19.7001 10.1005 19.8001C10.2005 19.8001 13.8005 20.7001 15.8005 17.0001" stroke="#00B9F2" stroke-width="2" stroke-miterlimit="10" stroke-linecap="round" stroke-linejoin="round"/>
<path d="M49.7002 18.3C49.7002 18.3 51.1002 21.8 54.8002 21.5C58.5002 21.2 59.3002 17.8 59.4002 17.7C59.4002 17.6 60.3002 14 56.6002 12" stroke="#00B9F2" stroke-width="2" stroke-miterlimit="10" stroke-linecap="round" stroke-linejoin="round"/>
<path d="M27.3008 16.1L15.6008 4.60005C15.6008 4.60005 14.0008 3.00005 12.2008 4.10005C10.4008 5.20005 11.6008 7.30005 11.6008 7.30005L24.9008 21.4L25.0008 37.3H41.2008V21.8L54.4008 7.70005C54.4008 7.70005 55.5008 5.40005 53.8008 4.10005C52.1008 2.70005 50.5008 4.30005 50.5008 4.30005L38.7008 16.3" stroke="#00B9F2" stroke-width="2" stroke-miterlimit="10" stroke-linecap="round" stroke-linejoin="round"/>
<path d="M5 41.8V53.5" stroke="#00B9F2" stroke-width="2" stroke-miterlimit="10" stroke-linecap="round" stroke-linejoin="round"/>
<path d="M9.90039 41.8V53.5" stroke="#00B9F2" stroke-width="2" stroke-miterlimit="10" stroke-linecap="round" stroke-linejoin="round"/>
<path d="M13.8008 41.9V53.6" stroke="#00B9F2" stroke-width="2" stroke-miterlimit="10" stroke-linecap="round" stroke-linejoin="round"/>
<path d="M18.6006 41.9V53.6" stroke="#00B9F2" stroke-width="2" stroke-miterlimit="10" stroke-linecap="round" stroke-linejoin="round"/>
<path d="M47.6006 43.1001V54.8001" stroke="#00B9F2" stroke-width="2" stroke-miterlimit="10" stroke-linecap="round" stroke-linejoin="round"/>
<path d="M52.5004 43.1001L52.4004 54.8001" stroke="#00B9F2" stroke-width="2" stroke-miterlimit="10" stroke-linecap="round" stroke-linejoin="round"/>
<path d="M56.3008 43.1001V54.8001" stroke="#00B9F2" stroke-width="2" stroke-miterlimit="10" stroke-linecap="round" stroke-linejoin="round"/>
<path d="M61.2006 43.2001L61.1006 54.9001" stroke="#00B9F2" stroke-width="2" stroke-miterlimit="10" stroke-linecap="round" stroke-linejoin="round"/>
<path d="M4.40039 36.1001V41.1001H19.2004V36.3001" stroke="#00B9F2" stroke-width="2" stroke-miterlimit="10" stroke-linecap="round" stroke-linejoin="round"/>
<path d="M5.60039 20C5.60039 20 2.90039 20.9 2.90039 24.2C2.90039 27.5 3.00039 34.6 3.00039 34.6C3.00039 34.6 3.60039 36.3 5.60039 36.3C7.60039 36.3 7.70039 34.3 7.70039 34.3L7.60039 28.4" stroke="#00B9F2" stroke-width="2" stroke-miterlimit="10" stroke-linecap="round" stroke-linejoin="round"/>
<path d="M17.9004 20.1001C17.9004 20.1001 20.6004 21.0001 20.6004 24.3001C20.6004 27.6001 20.5004 34.7001 20.5004 34.7001C20.5004 34.7001 20.0004 36.3001 18.0004 36.3001C16.0004 36.3001 15.9004 34.3001 15.9004 34.3001L16.0004 28.4001" stroke="#00B9F2" stroke-width="2" stroke-miterlimit="10" stroke-linecap="round" stroke-linejoin="round"/>
<path d="M47 37.7001V42.7001L61.8 42.6001V37.9001" stroke="#00B9F2" stroke-width="2" stroke-miterlimit="10" stroke-linecap="round" stroke-linejoin="round"/>
<path d="M48.2 22.4C48.2 22.4 45.5 23.2 45.5 26.4C45.5 29.6 45.6 36.3 45.6 36.3C45.6 36.3 46.2 37.9 48.2 37.9C50.2 37.9 50.3 36 50.3 36L50.2 30.4" stroke="#00B9F2" stroke-width="2" stroke-miterlimit="10" stroke-linecap="round" stroke-linejoin="round"/>
<path d="M60.5 22.4C60.5 22.4 63.2 23.2 63.2 26.4C63.2 29.6 63.1 36.3 63.1 36.3C63.1 36.3 62.5 37.9 60.5 37.9C58.5 37.9 58.5 36 58.5 36L58.6 30.4" stroke="#00B9F2" stroke-width="2" stroke-miterlimit="10" stroke-linecap="round" stroke-linejoin="round"/>
<path d="M2.90039 63.6H62.9004V58.6H43.9004V54.3H22.3004V57.7001L3.00039 57.6L2.90039 63.6Z" stroke="#00B9F2" stroke-width="2" stroke-miterlimit="10" stroke-linecap="round" stroke-linejoin="round"/>
</svg>
