<svg width="60" height="60" viewBox="0 0 60 60" fill="none" xmlns="http://www.w3.org/2000/svg">
<g clip-path="url(#clip0)">
<path d="M3.29005 3.28997C3.19965 3.38557 3.12837 3.49758 3.08005 3.61997C3.02726 3.7397 3 3.86911 3 3.99997C3 4.13082 3.02726 4.26023 3.08005 4.37997C3.12594 4.50357 3.19752 4.61604 3.29005 4.70997C3.47961 4.89588 3.73453 5.00002 4.00005 5.00002C4.26556 5.00002 4.52048 4.89588 4.71005 4.70997C4.89596 4.5204 5.0001 4.26548 5.0001 3.99997C5.0001 3.73445 4.89596 3.47953 4.71005 3.28997C4.51666 3.11153 4.26318 3.01245 4.00005 3.01245C3.73692 3.01245 3.48343 3.11153 3.29005 3.28997Z" fill="url(#paint0_linear)"/>
<path d="M6.62006 3.07995C6.49645 3.12585 6.38398 3.19742 6.29006 3.28995C6.10414 3.47952 6 3.73444 6 3.99995C6 4.26547 6.10414 4.52039 6.29006 4.70995C6.42993 4.85098 6.60863 4.94716 6.80337 4.98623C6.99812 5.0253 7.20009 5.00549 7.38354 4.92932C7.56698 4.85316 7.72359 4.72409 7.83339 4.55857C7.94319 4.39305 8.00121 4.19858 8.00006 3.99995C7.99617 3.73523 7.89262 3.4817 7.71006 3.28995C7.56825 3.15311 7.38974 3.06041 7.19623 3.02313C7.00272 2.98584 6.80255 3.00559 6.62006 3.07995Z" fill="url(#paint1_linear)"/>
<path d="M9.62006 3.08003C9.49767 3.12835 9.38566 3.19963 9.29006 3.29003C9.10414 3.47959 9 3.73452 9 4.00003C9 4.26554 9.10414 4.52047 9.29006 4.71003C9.38732 4.79828 9.49892 4.8693 9.62006 4.92003C9.74028 4.97127 9.86938 4.99845 10.0001 5.00003C10.1317 5.00137 10.2624 4.97641 10.3843 4.92663C10.5062 4.87685 10.617 4.80324 10.7101 4.71012C10.8033 4.61699 10.8769 4.50622 10.9267 4.38429C10.9764 4.26236 11.0014 4.13172 11.0001 4.00003C10.9962 3.7353 10.8926 3.48177 10.7101 3.29003C10.5669 3.15534 10.3885 3.06408 10.1955 3.02691C10.0025 2.98973 9.80297 3.00815 9.62006 3.08003Z" fill="url(#paint2_linear)"/>
<path d="M27 17H13V19H27V17Z" fill="url(#paint3_linear)"/>
<path d="M27 23H13V25H27V23Z" fill="url(#paint4_linear)"/>
<path d="M32 29H13V31H32V29Z" fill="url(#paint5_linear)"/>
<path d="M26 35H13V37H26V35Z" fill="url(#paint6_linear)"/>
<path d="M21 41H13V43H21V41Z" fill="url(#paint7_linear)"/>
<path d="M19 47H13V49H19V47Z" fill="url(#paint8_linear)"/>
<path d="M56.171 12C55.668 11.9985 55.1697 12.097 54.705 12.2896C54.2403 12.4822 53.8185 12.7651 53.464 13.122L50 16.586V3C50 2.20435 49.6839 1.44129 49.1213 0.87868C48.5587 0.316071 47.7957 0 47 0H3C2.20435 0 1.44129 0.316071 0.87868 0.87868C0.316071 1.44129 0 2.20435 0 3V57C0 57.7957 0.316071 58.5587 0.87868 59.1213C1.44129 59.6839 2.20435 60 3 60H47C47.7957 60 48.5587 59.6839 49.1213 59.1213C49.6839 58.5587 50 57.7957 50 57V27.414L58.878 18.536C59.4138 18.0007 59.7787 17.3185 59.9267 16.5757C60.0746 15.8329 59.9989 15.063 59.7091 14.3632C59.4193 13.6635 58.9284 13.0655 58.2986 12.6448C57.6688 12.2241 56.9284 11.9997 56.171 12ZM2 3C2 2.73478 2.10536 2.48043 2.29289 2.29289C2.48043 2.10536 2.73478 2 3 2H47C47.2652 2 47.5196 2.10536 47.7071 2.29289C47.8946 2.48043 48 2.73478 48 3V6H2V3ZM48 57C48 57.2652 47.8946 57.5196 47.7071 57.7071C47.5196 57.8946 47.2652 58 47 58H3C2.73478 58 2.48043 57.8946 2.29289 57.7071C2.10536 57.5196 2 57.2652 2 57V8H48V18.586L42 24.586V21.586L31.414 11H8V55H42V35.414L48 29.414V57ZM24.126 42.46L21.419 50.581L29.54 47.874L32.414 45L40 37.414V53H10V13H30V23H40V26.586L27 39.586L24.126 42.46ZM27 42.414L29.586 45L28.46 46.126L24.581 47.419L25.874 43.54L27 42.414ZM32 14.414L38.586 21H32V14.414ZM31 43.586L28.414 41L52 17.414L54.586 20L31 43.586ZM57.464 17.122L56 18.586L53.414 16L54.878 14.536C55.0464 14.3602 55.2483 14.2197 55.4717 14.1229C55.6951 14.0261 55.9357 13.9749 56.1791 13.9723C56.4226 13.9697 56.6642 14.0157 56.8896 14.1077C57.1151 14.1997 57.3199 14.3357 57.4921 14.5079C57.6642 14.6801 57.8003 14.8849 57.8923 15.1104C57.9843 15.3358 58.0303 15.5774 58.0277 15.8209C58.0251 16.0643 57.9739 16.3049 57.8771 16.5283C57.7803 16.7517 57.6398 16.9536 57.464 17.122Z" fill="url(#paint9_linear)"/>
</g>
<defs>
<linearGradient id="paint0_linear" x1="3.88004" y1="4.99207" x2="4.09141" y2="2.95056" gradientUnits="userSpaceOnUse">
<stop stop-color="#75DAFF"/>
<stop offset="1" stop-color="#00BAFF"/>
</linearGradient>
<linearGradient id="paint1_linear" x1="6.88003" y1="4.99777" x2="7.09424" y2="2.94275" gradientUnits="userSpaceOnUse">
<stop stop-color="#75DAFF"/>
<stop offset="1" stop-color="#00BAFF"/>
</linearGradient>
<linearGradient id="paint2_linear" x1="9.88005" y1="4.99211" x2="10.0923" y2="2.94625" gradientUnits="userSpaceOnUse">
<stop stop-color="#75DAFF"/>
<stop offset="1" stop-color="#00BAFF"/>
</linearGradient>
<linearGradient id="paint3_linear" x1="19.16" y1="18.992" x2="19.1909" y2="16.9162" gradientUnits="userSpaceOnUse">
<stop stop-color="#75DAFF"/>
<stop offset="1" stop-color="#00BAFF"/>
</linearGradient>
<linearGradient id="paint4_linear" x1="19.16" y1="24.992" x2="19.1909" y2="22.9162" gradientUnits="userSpaceOnUse">
<stop stop-color="#75DAFF"/>
<stop offset="1" stop-color="#00BAFF"/>
</linearGradient>
<linearGradient id="paint5_linear" x1="21.36" y1="30.992" x2="21.3828" y2="28.916" gradientUnits="userSpaceOnUse">
<stop stop-color="#75DAFF"/>
<stop offset="1" stop-color="#00BAFF"/>
</linearGradient>
<linearGradient id="paint6_linear" x1="18.72" y1="36.992" x2="18.7533" y2="34.9162" gradientUnits="userSpaceOnUse">
<stop stop-color="#75DAFF"/>
<stop offset="1" stop-color="#00BAFF"/>
</linearGradient>
<linearGradient id="paint7_linear" x1="16.52" y1="42.992" x2="16.574" y2="40.9171" gradientUnits="userSpaceOnUse">
<stop stop-color="#75DAFF"/>
<stop offset="1" stop-color="#00BAFF"/>
</linearGradient>
<linearGradient id="paint8_linear" x1="15.64" y1="48.992" x2="15.712" y2="46.9182" gradientUnits="userSpaceOnUse">
<stop stop-color="#75DAFF"/>
<stop offset="1" stop-color="#00BAFF"/>
</linearGradient>
<linearGradient id="paint9_linear" x1="26.4002" y1="59.76" x2="32.8201" y2="-1.86001" gradientUnits="userSpaceOnUse">
<stop stop-color="#75DAFF"/>
<stop offset="1" stop-color="#00BAFF"/>
</linearGradient>
<clipPath id="clip0">
<rect width="60" height="60" fill="white"/>
</clipPath>
</defs>
</svg>
