<svg width="679" height="468" viewBox="0 0 679 468" fill="none" xmlns="http://www.w3.org/2000/svg">
<g filter="url(#filter0_d)">
<path d="M341.52 427.16C454.031 427.16 545.24 335.951 545.24 223.44C545.24 110.929 454.031 19.72 341.52 19.72C229.008 19.72 137.8 110.929 137.8 223.44C137.8 335.951 229.008 427.16 341.52 427.16Z" fill="url(#paint0_linear)"/>
<path d="M342.28 421.68C451.809 421.68 540.6 332.889 540.6 223.36C540.6 113.831 451.809 25.04 342.28 25.04C232.751 25.04 143.96 113.831 143.96 223.36C143.96 332.889 232.751 421.68 342.28 421.68Z" fill="#E1F4FD"/>
<path d="M567.28 96.88C567.28 96.88 438.8 197.96 424.92 203.16C411.04 208.36 346.36 206.72 334.84 213.88C323.32 221.04 262.48 283.36 263.64 288.12C264.8 292.88 270.44 303.52 280.12 304.36C280.12 304.36 286.8 319.16 297.04 319.88C297.04 319.88 304.56 338.24 317.68 335.12C317.68 335.12 327.44 352.32 338.96 347.72C350.48 343.08 435.6 298.28 452.28 259.68L640.44 174L567.28 96.88Z" fill="#D1D3D4"/>
<path d="M112.52 102.08C112.52 102.08 244.52 203.04 258.72 208.36C272.96 213.68 339.08 213.16 350.92 220.36C362.76 227.56 425.32 289.48 424.2 294.12C423.08 298.76 417.32 309.04 407.48 309.72C407.48 309.72 400.76 324.08 390.28 324.6C390.28 324.6 382.72 342.44 369.28 339.16C369.28 339.16 359.4 355.8 347.6 351.08C335.8 346.36 248.48 301.12 231.2 263.12L38.2002 176.16L112.52 102.08Z" fill="#E6E7E8"/>
<path d="M176.72 245.76L43.9201 184.48C43.9201 184.48 25.5601 173.12 25.5601 139.08C25.5601 105.04 26.1201 32.64 46.0801 47.24C66.0401 61.84 222.48 178.52 222.48 178.52L176.72 245.76Z" fill="url(#paint1_linear)"/>
<path d="M502.04 246.48L634.84 185.2C634.84 185.2 653.2 173.84 653.2 139.8C653.2 105.76 652.64 33.3601 632.68 47.9601C612.72 62.5601 456.28 179.24 456.28 179.24L502.04 246.48Z" fill="url(#paint2_linear)"/>
<path d="M248.44 309.48L269.92 256.2C269.92 256.2 285.72 243.88 295.44 259.04L272.2 320.88C272.2 320.88 249.52 331.28 248.44 309.48Z" fill="#D1D3D4"/>
<path d="M293.96 327.88L317.4 268.12C317.4 268.12 331.96 255.56 338.76 274.48L313 344.08C312.96 344.08 292.72 353.52 293.96 327.88Z" fill="#D1D3D4"/>
<path d="M272.24 320.08L295.68 260.32C295.68 260.32 310.24 247.76 317.04 266.68L291.28 336.28C291.24 336.28 271 345.72 272.24 320.08Z" fill="#D1D3D4"/>
<path d="M316.6 332.72L338.56 282.6C338.56 282.6 351.52 272.36 356.84 288.64L332.6 347.04C332.56 347.04 314.8 354.48 316.6 332.72Z" fill="#D1D3D4"/>
<path d="M366.4 208.64C366.4 208.64 297.36 209.84 292.6 209.24C287.88 208.64 289.6 239.68 369.24 231.32" fill="#D1D3D4"/>
<path d="M252.16 200.68C252.16 200.68 211.96 236.72 211.96 264.44L171.76 247.12C171.76 247.12 191.88 190.28 227.2 175.72L252.16 200.68Z" fill="#6ACFF6"/>
<path d="M424.92 200.68C424.92 200.68 465.12 236.72 465.12 264.44L505.32 247.12C505.32 247.12 485.2 190.28 449.88 175.72L424.92 200.68Z" fill="#8BD7F8"/>
<path d="M213.96 250.24L178.8 232.36L213.96 254.24V250.24Z" fill="#00B3F0"/>
<path d="M462.8 252.24L497.96 234.32L462.8 256.24V252.24Z" fill="#00B3F0"/>
<path d="M203.04 252.28C207.083 252.28 210.36 249.003 210.36 244.96C210.36 240.917 207.083 237.64 203.04 237.64C198.997 237.64 195.72 240.917 195.72 244.96C195.72 249.003 198.997 252.28 203.04 252.28Z" fill="white"/>
<path d="M474.92 252.64C478.963 252.64 482.24 249.363 482.24 245.32C482.24 241.277 478.963 238 474.92 238C470.877 238 467.6 241.277 467.6 245.32C467.6 249.363 470.877 252.64 474.92 252.64Z" fill="white"/>
<path d="M338.56 39.64C338.6 39.68 338.6 39.68 338.6 39.68C338.6 39.68 376.92 79.56 405.68 89.32C405.68 89.32 368.72 173.36 339 190.68C309.2 173.76 271.68 89.84 271.68 89.84C300.4 79.84 338.48 39.6 338.48 39.6C338.52 39.6 338.52 39.6 338.56 39.64Z" fill="#414042"/>
<path d="M338.6 43.12C338.6 43.12 338.64 43.16 338.6 43.12C338.64 43.16 375.12 81.16 402.52 90.44C402.52 90.44 367.32 170.48 339 187C310.6 170.88 274.88 90.96 274.88 90.96C302.2 81.44 338.52 43.12 338.52 43.12C338.56 43.08 338.6 43.08 338.6 43.12Z" fill="url(#paint3_linear)"/>
<path d="M338.08 46.48C338.08 46.48 338.12 46.48 338.08 46.48C338.12 46.52 372.84 82.68 398.88 91.52C398.88 91.52 365.36 167.68 338.44 183.4C311.44 168.08 277.44 92 277.44 92C303.44 82.92 338 46.48 338 46.48C338.04 46.44 338.04 46.44 338.08 46.48Z" fill="url(#paint4_linear)"/>
<path d="M338.36 140.88C356.475 140.88 371.16 126.195 371.16 108.08C371.16 89.9651 356.475 75.28 338.36 75.28C320.245 75.28 305.56 89.9651 305.56 108.08C305.56 126.195 320.245 140.88 338.36 140.88Z" fill="#E6E7E8"/>
<path d="M335.92 130.24C335.48 130.24 335.04 130.12 334.64 129.92C334.24 129.72 333.88 129.4 333.56 129L320.6 112.48C320 111.68 319.64 110.6 319.64 109.52C319.64 108.4 320 107.36 320.6 106.56C321.2 105.76 322.04 105.32 322.92 105.32C323.8 105.32 324.64 105.76 325.24 106.52L335.84 120.08L355.52 94.9201C356.12 94.1201 357 93.6801 357.84 93.6801C358.72 93.6801 359.56 94.1201 360.16 94.9201C360.76 95.7201 361.12 96.8001 361.12 97.9201C361.12 99.0401 360.76 100.12 360.16 100.92L338.12 129.04C337.8 129.44 337.44 129.76 337.04 129.96C336.8 130.12 336.36 130.24 335.92 130.24Z" fill="url(#paint5_linear)"/>
<path d="M231.32 346.8L231.44 367.12L231.32 346.8Z" fill="url(#paint6_linear)" stroke="#20C4F4" stroke-width="10" stroke-miterlimit="10" stroke-linecap="round" stroke-linejoin="round"/>
<path d="M241.32 356.48L221 356.6L241.32 356.48Z" fill="url(#paint7_linear)" stroke="#20C4F4" stroke-width="10" stroke-miterlimit="10" stroke-linecap="round" stroke-linejoin="round"/>
<path opacity="0.75" d="M231.04 161.24C241.821 161.24 250.56 152.501 250.56 141.72C250.56 130.939 241.821 122.2 231.04 122.2C220.259 122.2 211.52 130.939 211.52 141.72C211.52 152.501 220.259 161.24 231.04 161.24Z" fill="#81D4F7"/>
<path d="M231.04 131.32L231.16 152.2L231.04 131.32Z" fill="url(#paint8_linear)" stroke="white" stroke-width="10" stroke-miterlimit="10" stroke-linecap="round" stroke-linejoin="round"/>
<path d="M241.28 141.24L220.4 141.36L241.28 141.24Z" fill="url(#paint9_linear)" stroke="white" stroke-width="10" stroke-miterlimit="10" stroke-linecap="round" stroke-linejoin="round"/>
<path opacity="0.75" d="M480.04 324.8C490.821 324.8 499.56 316.061 499.56 305.28C499.56 294.499 490.821 285.76 480.04 285.76C469.259 285.76 460.52 294.499 460.52 305.28C460.52 316.061 469.259 324.8 480.04 324.8Z" fill="#6ACFF6"/>
<path d="M480.04 294.88L480.16 315.76L480.04 294.88Z" fill="url(#paint10_linear)" stroke="white" stroke-width="10" stroke-miterlimit="10" stroke-linecap="round" stroke-linejoin="round"/>
<path d="M490.28 304.8L469.4 304.92L490.28 304.8Z" fill="url(#paint11_linear)" stroke="white" stroke-width="10" stroke-miterlimit="10" stroke-linecap="round" stroke-linejoin="round"/>
<path d="M454.4 93.48L454.52 114.36L454.4 93.48Z" fill="#38C6F4" stroke="#44C8F5" stroke-width="10" stroke-miterlimit="10" stroke-linecap="round" stroke-linejoin="round"/>
<path d="M464.68 103.4L443.8 103.52L464.68 103.4Z" fill="url(#paint12_linear)" stroke="#2AC5F4" stroke-width="10" stroke-miterlimit="10" stroke-linecap="round" stroke-linejoin="round"/>
</g>
<defs>
<filter id="filter0_d" x="-6" y="-10" width="690" height="482" filterUnits="userSpaceOnUse" color-interpolation-filters="sRGB">
<feFlood flood-opacity="0" result="BackgroundImageFix"/>
<feColorMatrix in="SourceAlpha" type="matrix" values="0 0 0 0 0 0 0 0 0 0 0 0 0 0 0 0 0 0 127 0" result="hardAlpha"/>
<feOffset dy="15"/>
<feGaussianBlur stdDeviation="12.5"/>
<feColorMatrix type="matrix" values="0 0 0 0 0 0 0 0 0 0 0 0 0 0 0 0 0 0 0.25 0"/>
<feBlend mode="normal" in2="BackgroundImageFix" result="effect1_dropShadow"/>
<feBlend mode="normal" in="SourceGraphic" in2="effect1_dropShadow" result="shape"/>
</filter>
<linearGradient id="paint0_linear" x1="137.805" y1="223.452" x2="545.247" y2="223.452" gradientUnits="userSpaceOnUse">
<stop stop-color="#71459B"/>
<stop offset="0.8668" stop-color="#A76DAE"/>
</linearGradient>
<linearGradient id="paint1_linear" x1="175.15" y1="146.678" x2="-21.7441" y2="143.361" gradientUnits="userSpaceOnUse">
<stop stop-color="#43B5E8"/>
<stop offset="1" stop-color="#B3E3F9"/>
</linearGradient>
<linearGradient id="paint2_linear" x1="456.303" y1="146.265" x2="653.225" y2="146.265" gradientUnits="userSpaceOnUse">
<stop stop-color="#43B5E8"/>
<stop offset="1" stop-color="#B3E3F9"/>
</linearGradient>
<linearGradient id="paint3_linear" x1="274.895" y1="115.027" x2="402.516" y2="115.027" gradientUnits="userSpaceOnUse">
<stop stop-color="#71459B"/>
<stop offset="0.8668" stop-color="#A76DAE"/>
</linearGradient>
<linearGradient id="paint4_linear" x1="277.46" y1="114.889" x2="398.89" y2="114.889" gradientUnits="userSpaceOnUse">
<stop stop-color="#43B5E8"/>
<stop offset="1" stop-color="#B3E3F9"/>
</linearGradient>
<linearGradient id="paint5_linear" x1="319.705" y1="111.946" x2="361.27" y2="111.946" gradientUnits="userSpaceOnUse">
<stop stop-color="#71459B"/>
<stop offset="0.8668" stop-color="#A76DAE"/>
</linearGradient>
<linearGradient id="paint6_linear" x1="237.999" y1="351.267" x2="225.608" y2="361.97" gradientUnits="userSpaceOnUse">
<stop stop-color="#43B5E8"/>
<stop offset="1" stop-color="#43B5E8"/>
</linearGradient>
<linearGradient id="paint7_linear" x1="236.874" y1="363.142" x2="226.163" y2="350.75" gradientUnits="userSpaceOnUse">
<stop stop-color="#43B5E8"/>
<stop offset="1" stop-color="#43B5E8"/>
</linearGradient>
<linearGradient id="paint8_linear" x1="237.873" y1="135.881" x2="225.137" y2="146.881" gradientUnits="userSpaceOnUse">
<stop stop-color="#43B5E8"/>
<stop offset="1" stop-color="#43B5E8"/>
</linearGradient>
<linearGradient id="paint9_linear" x1="236.717" y1="148.081" x2="225.718" y2="135.346" gradientUnits="userSpaceOnUse">
<stop stop-color="#43B5E8"/>
<stop offset="1" stop-color="#43B5E8"/>
</linearGradient>
<linearGradient id="paint10_linear" x1="486.876" y1="299.442" x2="474.14" y2="310.441" gradientUnits="userSpaceOnUse">
<stop stop-color="#43B5E8"/>
<stop offset="1" stop-color="#43B5E8"/>
</linearGradient>
<linearGradient id="paint11_linear" x1="485.72" y1="311.641" x2="474.725" y2="298.906" gradientUnits="userSpaceOnUse">
<stop stop-color="#43B5E8"/>
<stop offset="1" stop-color="#43B5E8"/>
</linearGradient>
<linearGradient id="paint12_linear" x1="460.087" y1="110.242" x2="449.089" y2="97.5066" gradientUnits="userSpaceOnUse">
<stop stop-color="#43B5E8"/>
<stop offset="1" stop-color="#43B5E8"/>
</linearGradient>
</defs>
</svg>
