<svg width="641" height="465" viewBox="0 0 641 465" fill="none" xmlns="http://www.w3.org/2000/svg">
<g filter="url(#filter0_d)">
<path d="M326.27 389.373C421.614 389.373 498.906 312.059 498.906 216.687C498.906 121.314 421.614 44 326.27 44C230.926 44 153.635 121.314 153.635 216.687C153.635 312.059 230.926 389.373 326.27 389.373Z" fill="url(#paint0_linear)"/>
<path d="M326.924 384.716C419.741 384.716 494.985 309.45 494.985 216.605C494.985 123.76 419.741 48.4938 326.924 48.4938C234.106 48.4938 158.862 123.76 158.862 216.605C158.862 309.45 234.106 384.716 326.924 384.716Z" fill="#E1F4FD"/>
<path d="M517.57 109.406C517.57 109.406 408.688 195.075 396.925 199.487C385.163 203.9 330.354 202.511 320.593 208.557C310.832 214.603 259.291 267.467 260.23 271.512C261.21 275.556 265.989 284.544 274.198 285.279C274.198 285.279 279.834 297.821 288.533 298.434C288.533 298.434 294.904 313.999 306.013 311.384C306.013 311.384 314.304 325.969 324.024 322.047C333.785 318.125 405.91 280.132 420.041 247.408L579.567 174.771L517.57 109.406Z" fill="#D1D3D4"/>
<path d="M132.234 113.818C132.234 113.818 244.057 199.406 256.146 203.899C268.194 208.393 324.228 207.985 334.275 214.072C344.322 220.159 397.293 272.655 396.354 276.577C395.414 280.499 390.554 289.242 382.182 289.773C382.182 289.773 376.464 301.947 367.601 302.356C367.601 302.356 361.189 317.471 349.795 314.693C349.795 314.693 341.422 328.788 331.416 324.825C321.41 320.821 247.447 282.501 232.785 250.268L69.2569 176.61L132.234 113.818Z" fill="#E6E7E8"/>
<path d="M186.634 235.602L74.0761 183.677C74.0761 183.677 58.5157 174.077 58.5157 145.193C58.5157 116.31 59.0058 54.9895 75.914 67.368C92.8222 79.7466 225.393 178.652 225.393 178.652L186.634 235.602Z" fill="url(#paint1_linear)"/>
<path d="M462.312 236.214L574.829 184.249C574.829 184.249 590.39 174.649 590.39 145.765C590.39 116.882 589.94 55.5615 572.991 67.8991C556.042 80.2777 423.513 179.183 423.513 179.183L462.312 236.214Z" fill="url(#paint2_linear)"/>
<path d="M247.406 289.61L265.621 244.467C265.621 244.467 278.976 234.008 287.267 246.877L267.541 299.292C267.541 299.292 248.304 308.116 247.406 289.61Z" fill="#D1D3D4"/>
<path d="M285.96 305.216L305.809 254.558C305.809 254.558 318.143 243.936 323.901 259.95L302.051 318.942C302.051 318.942 284.898 326.949 285.96 305.216Z" fill="#D1D3D4"/>
<path d="M267.581 298.597L287.43 247.939C287.43 247.939 299.764 237.317 305.523 253.332L283.673 312.324C283.673 312.324 266.52 320.331 267.581 298.597Z" fill="#D1D3D4"/>
<path d="M305.155 309.301L323.738 266.813C323.738 266.813 334.724 258.153 339.217 271.92L318.674 321.393C318.674 321.434 303.603 327.767 305.155 309.301Z" fill="#D1D3D4"/>
<path d="M347.344 204.104C347.344 204.104 288.86 205.125 284.816 204.594C280.814 204.063 282.243 230.413 349.754 223.305" fill="#D1D3D4"/>
<path d="M250.551 197.363C250.551 197.363 216.489 227.921 216.489 251.412L182.428 236.705C182.428 236.705 199.458 188.539 229.436 176.201L250.551 197.363Z" fill="#6ACFF6"/>
<path d="M396.925 197.363C396.925 197.363 430.987 227.921 430.987 251.412L465.048 236.705C465.048 236.705 448.018 188.539 418.04 176.201L396.925 197.363Z" fill="#8BD7F8"/>
<path d="M218.205 239.401L188.391 224.244L218.205 242.792V239.401Z" fill="#00B3F0"/>
<path d="M429.026 241.117L458.84 225.919L429.026 244.467V241.117Z" fill="#00B3F0"/>
<path d="M208.933 241.117C212.362 241.117 215.141 238.337 215.141 234.907C215.141 231.478 212.362 228.697 208.933 228.697C205.505 228.697 202.726 231.478 202.726 234.907C202.726 238.337 205.505 241.117 208.933 241.117Z" fill="white"/>
<path d="M439.278 241.444C442.706 241.444 445.485 238.663 445.485 235.234C445.485 231.804 442.706 229.024 439.278 229.024C435.849 229.024 433.07 231.804 433.07 235.234C433.07 238.663 435.849 241.444 439.278 241.444Z" fill="white"/>
<path d="M323.738 60.8724C323.779 60.9132 323.779 60.9132 323.738 60.8724C323.779 60.9132 356.248 94.7397 380.589 102.992C380.589 102.992 349.264 174.24 324.106 188.906C298.866 174.567 267.051 103.441 267.051 103.441C291.392 94.944 323.656 60.8724 323.656 60.8724C323.738 60.8315 323.738 60.8724 323.738 60.8724Z" fill="#414042"/>
<path d="M323.779 63.8138C323.82 63.8547 323.82 63.8547 323.779 63.8138C323.82 63.8547 354.736 96.047 377.934 103.932C377.934 103.932 348.079 171.789 324.106 185.761C300.05 172.116 269.787 104.34 269.787 104.34C292.944 96.2512 323.697 63.7729 323.697 63.7729C323.779 63.8138 323.779 63.8138 323.779 63.8138Z" fill="url(#paint3_linear)"/>
<path d="M323.33 66.6735C323.37 66.6735 323.37 66.7144 323.33 66.6735C323.37 66.7144 352.776 97.3543 374.871 104.83C374.871 104.83 346.486 169.379 323.656 182.697C300.785 169.705 271.992 105.239 271.992 105.239C294.046 97.5586 323.289 66.6327 323.289 66.6327C323.289 66.6327 323.289 66.6327 323.33 66.6735C323.33 66.6327 323.33 66.6735 323.33 66.6735Z" fill="url(#paint4_linear)"/>
<path d="M323.615 146.664C338.953 146.664 351.387 134.227 351.387 118.884C351.387 103.541 338.953 91.1038 323.615 91.1038C308.277 91.1038 295.843 103.541 295.843 118.884C295.843 134.227 308.277 146.664 323.615 146.664Z" fill="#E6E7E8"/>
<path d="M321.533 137.676C321.165 137.676 320.797 137.595 320.471 137.39C320.144 137.227 319.817 136.941 319.572 136.614L308.586 122.602C308.055 121.948 307.769 121.008 307.769 120.069C307.769 119.129 308.055 118.23 308.586 117.536C309.117 116.882 309.811 116.474 310.546 116.474C311.282 116.474 311.976 116.841 312.507 117.495L321.492 128.975L338.196 107.649C338.727 106.996 339.421 106.587 340.156 106.587C340.891 106.587 341.626 106.955 342.117 107.649C342.647 108.303 342.933 109.243 342.933 110.182C342.933 111.122 342.647 112.021 342.117 112.715L323.452 136.573C323.207 136.9 322.88 137.186 322.554 137.35C322.268 137.595 321.9 137.676 321.533 137.676Z" fill="url(#paint5_linear)"/>
<path d="M232.907 321.271L232.989 338.47L232.907 321.271Z" fill="url(#paint6_linear)" stroke="#20C4F4" stroke-width="10" stroke-miterlimit="10" stroke-linecap="round" stroke-linejoin="round"/>
<path d="M241.361 329.441L224.167 329.523L241.361 329.441Z" fill="url(#paint7_linear)" stroke="#20C4F4" stroke-width="10" stroke-miterlimit="10" stroke-linecap="round" stroke-linejoin="round"/>
<path opacity="0.75" d="M232.662 163.945C241.797 163.945 249.203 156.537 249.203 147.4C249.203 138.262 241.797 130.854 232.662 130.854C223.527 130.854 216.122 138.262 216.122 147.4C216.122 156.537 223.527 163.945 232.662 163.945Z" fill="#81D4F7"/>
<path d="M232.621 138.575L232.703 156.265L232.621 138.575Z" fill="url(#paint8_linear)" stroke="white" stroke-width="10" stroke-miterlimit="10" stroke-linecap="round" stroke-linejoin="round"/>
<path d="M241.321 146.991L223.636 147.073L241.321 146.991Z" fill="url(#paint9_linear)" stroke="white" stroke-width="10" stroke-miterlimit="10" stroke-linecap="round" stroke-linejoin="round"/>
<path opacity="0.75" d="M443.648 302.601C452.783 302.601 460.188 295.193 460.188 286.055C460.188 276.918 452.783 269.51 443.648 269.51C434.512 269.51 427.107 276.918 427.107 286.055C427.107 295.193 434.512 302.601 443.648 302.601Z" fill="#6ACFF6"/>
<path d="M443.648 277.231L443.729 294.921L443.648 277.231Z" fill="url(#paint10_linear)" stroke="white" stroke-width="10" stroke-miterlimit="10" stroke-linecap="round" stroke-linejoin="round"/>
<path d="M452.347 285.647L434.662 285.729L452.347 285.647Z" fill="url(#paint11_linear)" stroke="white" stroke-width="10" stroke-miterlimit="10" stroke-linecap="round" stroke-linejoin="round"/>
<path d="M421.92 106.505L422.002 124.195L421.92 106.505Z" fill="#38C6F4" stroke="#44C8F5" stroke-width="10" stroke-miterlimit="10" stroke-linecap="round" stroke-linejoin="round"/>
<path d="M430.619 114.921L412.935 115.003L430.619 114.921Z" fill="url(#paint12_linear)" stroke="#2AC5F4" stroke-width="10" stroke-miterlimit="10" stroke-linecap="round" stroke-linejoin="round"/>
</g>
<defs>
<filter id="filter0_d" x="-50" y="-25" width="725" height="522" filterUnits="userSpaceOnUse" color-interpolation-filters="sRGB">
<feFlood flood-opacity="0" result="BackgroundImageFix"/>
<feColorMatrix in="SourceAlpha" type="matrix" values="0 0 0 0 0 0 0 0 0 0 0 0 0 0 0 0 0 0 127 0" result="hardAlpha"/>
<feOffset dy="25"/>
<feGaussianBlur stdDeviation="25"/>
<feColorMatrix type="matrix" values="0 0 0 0 0 0 0 0 0 0 0 0 0 0 0 0 0 0 0.25 0"/>
<feBlend mode="normal" in2="BackgroundImageFix" result="effect1_dropShadow"/>
<feBlend mode="normal" in="SourceGraphic" in2="effect1_dropShadow" result="shape"/>
</filter>
<linearGradient id="paint0_linear" x1="153.647" y1="216.69" x2="498.898" y2="216.69" gradientUnits="userSpaceOnUse">
<stop stop-color="#71459B"/>
<stop offset="0.8668" stop-color="#A76DAE"/>
</linearGradient>
<linearGradient id="paint1_linear" x1="185.291" y1="151.616" x2="18.4508" y2="148.806" gradientUnits="userSpaceOnUse">
<stop stop-color="#43B5E8"/>
<stop offset="1" stop-color="#B3E3F9"/>
</linearGradient>
<linearGradient id="paint2_linear" x1="423.531" y1="151.266" x2="590.395" y2="151.266" gradientUnits="userSpaceOnUse">
<stop stop-color="#43B5E8"/>
<stop offset="1" stop-color="#B3E3F9"/>
</linearGradient>
<linearGradient id="paint3_linear" x1="269.812" y1="124.788" x2="377.954" y2="124.788" gradientUnits="userSpaceOnUse">
<stop stop-color="#71459B"/>
<stop offset="0.8668" stop-color="#A76DAE"/>
</linearGradient>
<linearGradient id="paint4_linear" x1="271.985" y1="124.671" x2="374.881" y2="124.671" gradientUnits="userSpaceOnUse">
<stop stop-color="#43B5E8"/>
<stop offset="1" stop-color="#B3E3F9"/>
</linearGradient>
<linearGradient id="paint5_linear" x1="307.783" y1="122.176" x2="343.004" y2="122.176" gradientUnits="userSpaceOnUse">
<stop stop-color="#71459B"/>
<stop offset="0.8668" stop-color="#A76DAE"/>
</linearGradient>
<linearGradient id="paint6_linear" x1="238.549" y1="325.028" x2="228.046" y2="334.1" gradientUnits="userSpaceOnUse">
<stop stop-color="#43B5E8"/>
<stop offset="1" stop-color="#43B5E8"/>
</linearGradient>
<linearGradient id="paint7_linear" x1="237.594" y1="335.091" x2="228.521" y2="324.591" gradientUnits="userSpaceOnUse">
<stop stop-color="#43B5E8"/>
<stop offset="1" stop-color="#43B5E8"/>
</linearGradient>
<linearGradient id="paint8_linear" x1="238.441" y1="142.464" x2="227.647" y2="151.786" gradientUnits="userSpaceOnUse">
<stop stop-color="#43B5E8"/>
<stop offset="1" stop-color="#43B5E8"/>
</linearGradient>
<linearGradient id="paint9_linear" x1="237.461" y1="152.805" x2="228.137" y2="142.013" gradientUnits="userSpaceOnUse">
<stop stop-color="#43B5E8"/>
<stop offset="1" stop-color="#43B5E8"/>
</linearGradient>
<linearGradient id="paint10_linear" x1="449.438" y1="281.101" x2="438.643" y2="290.422" gradientUnits="userSpaceOnUse">
<stop stop-color="#43B5E8"/>
<stop offset="1" stop-color="#43B5E8"/>
</linearGradient>
<linearGradient id="paint11_linear" x1="448.458" y1="291.443" x2="439.132" y2="280.651" gradientUnits="userSpaceOnUse">
<stop stop-color="#43B5E8"/>
<stop offset="1" stop-color="#43B5E8"/>
</linearGradient>
<linearGradient id="paint12_linear" x1="426.737" y1="120.733" x2="417.414" y2="109.941" gradientUnits="userSpaceOnUse">
<stop stop-color="#43B5E8"/>
<stop offset="1" stop-color="#43B5E8"/>
</linearGradient>
</defs>
</svg>
