<svg width="700" height="495" viewBox="0 0 700 495" fill="none" xmlns="http://www.w3.org/2000/svg">
<g filter="url(#filter0_d)">
<path d="M352.05 419.611C459.606 419.611 546.798 332.393 546.798 224.805C546.798 117.217 459.606 30 352.05 30C244.494 30 157.302 117.217 157.302 224.805C157.302 332.393 244.494 419.611 352.05 419.611Z" fill="url(#paint0_linear)"/>
<path d="M352.787 414.357C457.494 414.357 542.375 329.451 542.375 224.713C542.375 119.976 457.494 35.0696 352.787 35.0696C248.081 35.0696 163.2 119.976 163.2 224.713C163.2 329.451 248.081 414.357 352.787 414.357Z" fill="#E1F4FD"/>
<path d="M567.853 103.784C567.853 103.784 445.024 200.426 431.755 205.403C418.486 210.381 356.657 208.814 345.646 215.634C334.635 222.455 276.492 282.09 277.551 286.653C278.657 291.215 284.047 301.354 293.308 302.184C293.308 302.184 299.666 316.332 309.479 317.024C309.479 317.024 316.667 334.582 329.198 331.633C329.198 331.633 338.551 348.085 349.516 343.661C360.527 339.237 441.891 296.377 457.832 259.462L637.791 177.521L567.853 103.784Z" fill="#D1D3D4"/>
<path d="M133.161 108.761C133.161 108.761 259.307 205.311 272.944 210.381C286.535 215.45 349.747 214.989 361.08 221.856C372.414 228.723 432.17 287.943 431.11 292.367C430.051 296.792 424.568 306.654 415.123 307.253C415.123 307.253 408.673 320.987 398.675 321.448C398.675 321.448 391.442 338.5 378.588 335.366C378.588 335.366 369.143 351.265 357.855 346.795C346.568 342.279 263.131 299.05 246.591 262.688L62.117 179.595L133.161 108.761Z" fill="#E6E7E8"/>
<path d="M194.529 246.143L67.5535 187.568C67.5535 187.568 50 176.738 50 144.155C50 111.572 50.5529 42.3969 69.6268 56.361C88.7007 70.325 238.252 181.899 238.252 181.899L194.529 246.143Z" fill="url(#paint1_linear)"/>
<path d="M505.517 246.834L632.447 188.213C632.447 188.213 650 177.383 650 144.8C650 112.217 649.493 43.0423 630.373 56.9603C611.253 70.9243 461.749 182.498 461.749 182.498L505.517 246.834Z" fill="url(#paint2_linear)"/>
<path d="M263.084 307.069L283.633 256.144C283.633 256.144 298.698 244.346 308.051 258.863L285.798 317.991C285.798 317.991 264.098 327.946 263.084 307.069Z" fill="#D1D3D4"/>
<path d="M306.577 324.674L328.968 267.527C328.968 267.527 342.882 255.545 349.378 273.611L324.729 340.159C324.729 340.159 305.379 349.192 306.577 324.674Z" fill="#D1D3D4"/>
<path d="M285.844 317.208L308.235 260.061C308.235 260.061 322.149 248.079 328.645 266.144L303.997 332.693C303.997 332.693 284.646 341.725 285.844 317.208Z" fill="#D1D3D4"/>
<path d="M328.231 329.282L349.194 281.353C349.194 281.353 361.587 271.583 366.655 287.114L343.481 342.924C343.481 342.97 326.48 350.113 328.231 329.282Z" fill="#D1D3D4"/>
<path d="M375.823 210.611C375.823 210.611 309.848 211.763 305.287 211.164C300.772 210.565 302.384 240.29 378.542 232.271" fill="#D1D3D4"/>
<path d="M266.632 203.007C266.632 203.007 228.208 237.479 228.208 263.979L189.783 247.388C189.783 247.388 208.996 193.052 242.813 179.134L266.632 203.007Z" fill="#6ACFF6"/>
<path d="M431.755 203.007C431.755 203.007 470.18 237.479 470.18 263.979L508.604 247.388C508.604 247.388 489.392 193.052 455.575 179.134L431.755 203.007Z" fill="#8BD7F8"/>
<path d="M230.143 250.429L196.51 233.331L230.143 254.254V250.429Z" fill="#00B3F0"/>
<path d="M467.968 252.365L501.601 235.221L467.968 256.144V252.365Z" fill="#00B3F0"/>
<path d="M219.684 252.365C223.552 252.365 226.687 249.229 226.687 245.36C226.687 241.491 223.552 238.355 219.684 238.355C215.817 238.355 212.681 241.491 212.681 245.36C212.681 249.229 215.817 252.365 219.684 252.365Z" fill="white"/>
<path d="M479.533 252.734C483.4 252.734 486.536 249.597 486.536 245.728C486.536 241.86 483.4 238.723 479.533 238.723C475.665 238.723 472.53 241.86 472.53 245.728C472.53 249.597 475.665 252.734 479.533 252.734Z" fill="white"/>
<path d="M349.194 49.0334C349.24 49.0795 349.24 49.0795 349.194 49.0334C349.24 49.0795 385.867 87.2387 413.326 96.5481C413.326 96.5481 377.989 176.922 349.608 193.467C321.136 177.291 285.245 97.055 285.245 97.055C312.704 87.4691 349.102 49.0334 349.102 49.0334C349.194 48.9873 349.194 49.0334 349.194 49.0334Z" fill="#414042"/>
<path d="M349.24 52.3518C349.286 52.3978 349.286 52.3978 349.24 52.3518C349.286 52.3978 384.163 88.7136 410.332 97.6082C410.332 97.6082 376.653 174.157 349.608 189.918C322.472 174.526 288.332 98.069 288.332 98.069C314.455 88.944 349.148 52.3057 349.148 52.3057C349.24 52.3518 349.24 52.3518 349.24 52.3518Z" fill="url(#paint3_linear)"/>
<path d="M348.733 55.5776C348.779 55.5776 348.779 55.6237 348.733 55.5776C348.779 55.6237 381.951 90.1881 406.876 98.6219C406.876 98.6219 374.856 171.438 349.102 186.462C323.301 171.806 290.82 99.0827 290.82 99.0827C315.699 90.4186 348.687 55.5315 348.687 55.5315C348.687 55.5315 348.687 55.5315 348.733 55.5776C348.733 55.5776 348.733 55.5315 348.733 55.5776Z" fill="url(#paint4_linear)"/>
<path d="M349.055 145.814C366.358 145.814 380.385 131.783 380.385 114.476C380.385 97.1679 366.358 83.1372 349.055 83.1372C331.753 83.1372 317.726 97.1679 317.726 114.476C317.726 131.783 331.753 145.814 349.055 145.814Z" fill="#E6E7E8"/>
<path d="M346.706 135.675C346.291 135.675 345.877 135.583 345.508 135.353C345.139 135.168 344.771 134.846 344.494 134.477L332.101 118.669C331.502 117.932 331.18 116.872 331.18 115.812C331.18 114.752 331.502 113.738 332.101 112.955C332.7 112.217 333.483 111.757 334.312 111.757C335.142 111.757 335.925 112.171 336.524 112.909L346.66 125.859L365.503 101.802C366.102 101.065 366.886 100.604 367.715 100.604C368.544 100.604 369.373 101.019 369.926 101.802C370.525 102.539 370.848 103.599 370.848 104.659C370.848 105.719 370.525 106.733 369.926 107.517L348.871 134.431C348.595 134.8 348.226 135.122 347.858 135.306C347.535 135.583 347.121 135.675 346.706 135.675Z" fill="url(#paint5_linear)"/>
<path d="M246.729 342.785L246.821 362.188L246.729 342.785Z" fill="url(#paint6_linear)" stroke="#20C4F4" stroke-width="10" stroke-miterlimit="10" stroke-linecap="round" stroke-linejoin="round"/>
<path d="M256.266 352.003L236.869 352.095L256.266 352.003Z" fill="url(#paint7_linear)" stroke="#20C4F4" stroke-width="10" stroke-miterlimit="10" stroke-linecap="round" stroke-linejoin="round"/>
<path opacity="0.75" d="M246.452 165.308C256.758 165.308 265.112 156.952 265.112 146.644C265.112 136.335 256.758 127.979 246.452 127.979C236.147 127.979 227.793 136.335 227.793 146.644C227.793 156.952 236.147 165.308 246.452 165.308Z" fill="#81D4F7"/>
<path d="M246.406 136.689L246.498 156.644L246.406 136.689Z" fill="url(#paint8_linear)" stroke="white" stroke-width="10" stroke-miterlimit="10" stroke-linecap="round" stroke-linejoin="round"/>
<path d="M256.22 146.183L236.27 146.275L256.22 146.183Z" fill="url(#paint9_linear)" stroke="white" stroke-width="10" stroke-miterlimit="10" stroke-linecap="round" stroke-linejoin="round"/>
<path opacity="0.75" d="M484.462 321.724C494.767 321.724 503.121 313.368 503.121 303.059C503.121 292.751 494.767 284.395 484.462 284.395C474.157 284.395 465.803 292.751 465.803 303.059C465.803 313.368 474.157 321.724 484.462 321.724Z" fill="#6ACFF6"/>
<path d="M484.462 293.105L484.554 313.06L484.462 293.105Z" fill="url(#paint10_linear)" stroke="white" stroke-width="10" stroke-miterlimit="10" stroke-linecap="round" stroke-linejoin="round"/>
<path d="M494.275 302.598L474.326 302.691L494.275 302.598Z" fill="url(#paint11_linear)" stroke="white" stroke-width="10" stroke-miterlimit="10" stroke-linecap="round" stroke-linejoin="round"/>
<path d="M459.952 100.511L460.044 120.467L459.952 100.511Z" fill="#38C6F4" stroke="#44C8F5" stroke-width="10" stroke-miterlimit="10" stroke-linecap="round" stroke-linejoin="round"/>
<path d="M469.765 110.005L449.816 110.097L469.765 110.005Z" fill="url(#paint12_linear)" stroke="#2AC5F4" stroke-width="10" stroke-miterlimit="10" stroke-linecap="round" stroke-linejoin="round"/>
</g>
<defs>
<filter id="filter0_d" x="0" y="-25" width="700" height="550" filterUnits="userSpaceOnUse" color-interpolation-filters="sRGB">
<feFlood flood-opacity="0" result="BackgroundImageFix"/>
<feColorMatrix in="SourceAlpha" type="matrix" values="0 0 0 0 0 0 0 0 0 0 0 0 0 0 0 0 0 0 127 0" result="hardAlpha"/>
<feOffset dy="25"/>
<feGaussianBlur stdDeviation="25"/>
<feColorMatrix type="matrix" values="0 0 0 0 0 0 0 0 0 0 0 0 0 0 0 0 0 0 0.25 0"/>
<feBlend mode="normal" in2="BackgroundImageFix" result="effect1_dropShadow"/>
<feBlend mode="normal" in="SourceGraphic" in2="effect1_dropShadow" result="shape"/>
</filter>
<linearGradient id="paint0_linear" x1="157.317" y1="224.81" x2="546.79" y2="224.81" gradientUnits="userSpaceOnUse">
<stop stop-color="#71459B"/>
<stop offset="0.8668" stop-color="#A76DAE"/>
</linearGradient>
<linearGradient id="paint1_linear" x1="193.014" y1="151.4" x2="4.80335" y2="148.23" gradientUnits="userSpaceOnUse">
<stop stop-color="#43B5E8"/>
<stop offset="1" stop-color="#B3E3F9"/>
</linearGradient>
<linearGradient id="paint2_linear" x1="461.769" y1="151.005" x2="650.006" y2="151.005" gradientUnits="userSpaceOnUse">
<stop stop-color="#43B5E8"/>
<stop offset="1" stop-color="#B3E3F9"/>
</linearGradient>
<linearGradient id="paint3_linear" x1="288.361" y1="121.135" x2="410.354" y2="121.135" gradientUnits="userSpaceOnUse">
<stop stop-color="#71459B"/>
<stop offset="0.8668" stop-color="#A76DAE"/>
</linearGradient>
<linearGradient id="paint4_linear" x1="290.812" y1="121.004" x2="406.887" y2="121.004" gradientUnits="userSpaceOnUse">
<stop stop-color="#43B5E8"/>
<stop offset="1" stop-color="#B3E3F9"/>
</linearGradient>
<linearGradient id="paint5_linear" x1="331.195" y1="118.19" x2="370.927" y2="118.19" gradientUnits="userSpaceOnUse">
<stop stop-color="#71459B"/>
<stop offset="0.8668" stop-color="#A76DAE"/>
</linearGradient>
<linearGradient id="paint6_linear" x1="253.093" y1="347.024" x2="241.245" y2="357.257" gradientUnits="userSpaceOnUse">
<stop stop-color="#43B5E8"/>
<stop offset="1" stop-color="#43B5E8"/>
</linearGradient>
<linearGradient id="paint7_linear" x1="252.016" y1="358.376" x2="241.781" y2="346.53" gradientUnits="userSpaceOnUse">
<stop stop-color="#43B5E8"/>
<stop offset="1" stop-color="#43B5E8"/>
</linearGradient>
<linearGradient id="paint8_linear" x1="252.971" y1="141.076" x2="240.794" y2="151.591" gradientUnits="userSpaceOnUse">
<stop stop-color="#43B5E8"/>
<stop offset="1" stop-color="#43B5E8"/>
</linearGradient>
<linearGradient id="paint9_linear" x1="251.866" y1="152.742" x2="241.348" y2="140.567" gradientUnits="userSpaceOnUse">
<stop stop-color="#43B5E8"/>
<stop offset="1" stop-color="#43B5E8"/>
</linearGradient>
<linearGradient id="paint10_linear" x1="490.994" y1="297.47" x2="478.817" y2="307.986" gradientUnits="userSpaceOnUse">
<stop stop-color="#43B5E8"/>
<stop offset="1" stop-color="#43B5E8"/>
</linearGradient>
<linearGradient id="paint11_linear" x1="489.888" y1="309.137" x2="479.368" y2="296.962" gradientUnits="userSpaceOnUse">
<stop stop-color="#43B5E8"/>
<stop offset="1" stop-color="#43B5E8"/>
</linearGradient>
<linearGradient id="paint12_linear" x1="465.386" y1="116.561" x2="454.868" y2="104.387" gradientUnits="userSpaceOnUse">
<stop stop-color="#43B5E8"/>
<stop offset="1" stop-color="#43B5E8"/>
</linearGradient>
</defs>
</svg>
