<svg width="609" height="450" viewBox="0 0 609 450" fill="none" xmlns="http://www.w3.org/2000/svg">
<g filter="url(#filter0_d)">
<path d="M596.4 98.1V134.7H576.1C574.7 139.9 572.7 144.8 570 149.5L584.3 163.8L558.4 189.7L544.3 175.6C539.6 178.3 534.6 180.4 529.4 181.8V201.8H492.8V181.8C487.6 180.3 482.6 178.2 477.9 175.6L463.7 189.8L437.8 163.9L452 149.6C449.4 144.9 447.4 139.9 445.9 134.8H425.6V98.2H446.1C447.6 93.1 449.6 88.3 452.2 83.7L437.6 69.1L463.5 43.2L478.2 57.9C482.8 55.4 487.6 53.4 492.6 52V31H529.2V51.8C534.2 53.2 539.1 55.2 543.6 57.7L558.3 43L584.2 68.9L569.8 83.6C572.4 88.2 574.5 93.1 575.9 98.1H596.4Z" fill="url(#paint0_linear)"/>
<path d="M63.2 247.1C61.2 248.2 59.1 249.1 56.9 249.7V258.6H41V249.6C38.8 249 36.7 248.1 34.8 247L28.4 253.4L17.2 242.2L23.6 235.8C22.5 233.8 21.6 231.7 21 229.6H12V213.7H20.9C21.5 211.5 22.4 209.4 23.5 207.4L17.2 201.1L28.4 189.9L34.6 196.1C36.6 195 38.8 194.1 41 193.4V184.7H56.9V193.4C59.2 194 61.3 194.9 63.4 196.1L69.5 190L80.7 201.2L74.6 207.3C75.7 209.3 76.6 211.5 77.3 213.8H86V229.7H77.3C76.7 231.9 75.8 234.1 74.6 236.1L80.8 242.3L69.6 253.5L63.2 247.1Z" fill="url(#paint1_linear)"/>
<path d="M33.2999 236.2C41.4999 244.4 54.7999 244.4 62.8999 236.2C71.0999 228 71.0999 214.7 62.8999 206.6C54.6999 198.4 41.3999 198.4 33.2999 206.6C25.0999 214.7 25.0999 228 33.2999 236.2Z" fill="white"/>
<path d="M36 232.7C42.5 239.2 53 239.2 59.5 232.7C66 226.2 66 215.7 59.5 209.2C53 202.7 42.5 202.7 36 209.2C29.5 215.7 29.5 226.2 36 232.7Z" fill="#AAAAAA"/>
<path d="M580.8 230C581.2 231.8 581.4 233.7 581.3 235.6L588.3 237.7L584.5 250.2L577.4 248C576.4 249.6 575.2 251 573.9 252.3L577.4 258.9L565.9 265.1L562.4 258.5C560.6 258.9 558.7 259.1 556.9 259.1L554.7 266.2L542.2 262.4L544.3 255.4C542.7 254.4 541.2 253.2 539.9 251.9L533.4 255.3L527.2 243.8L533.6 240.4C533.2 238.5 533 236.6 533 234.7L526.1 232.6L529.9 220.1L536.7 222.2C537.7 220.6 539 219.1 540.4 217.7L537 211.4L548.5 205.2L551.9 211.5C553.8 211.1 555.7 210.9 557.7 211L559.8 204.2L572.3 208L570.2 214.9C571.8 215.9 573.3 217.2 574.6 218.5L581 215.1L587.2 226.6L580.8 230Z" fill="url(#paint2_linear)"/>
<path d="M566.4 249.9C574.8 245.4 578 234.9 573.5 226.5C569 218.1 558.5 214.9 550.1 219.4C541.7 223.9 538.5 234.4 543 242.8C547.5 251.2 558 254.3 566.4 249.9Z" fill="white"/>
<path d="M113.8 173.3C113.4 174.6 112.9 175.9 112.2 177.2L116.1 181.1L109.2 188L105.3 184.1C104.1 184.8 102.8 185.3 101.5 185.7V191.2H91.8V185.6C90.5 185.2 89.2 184.7 88 184L84.1 187.9L77.2 181L81.1 177.1C80.4 175.9 79.9 174.6 79.5 173.2H74V163.5H79.4C79.8 162.1 80.3 160.8 81 159.6L77.2 155.8L84.1 148.9L87.9 152.7C89.2 152 90.5 151.4 91.9 151V145.7H101.6V151C103 151.4 104.3 151.9 105.6 152.7L109.4 148.9L116.3 155.8L112.5 159.6C113.2 160.8 113.7 162.2 114.1 163.5H119.5V173.2H113.8V173.3Z" fill="#F0F0F0"/>
<path d="M96.6004 175.7C100.6 175.7 103.8 172.5 103.8 168.5C103.8 164.5 100.6 161.3 96.6004 161.3C92.6004 161.3 89.4004 164.5 89.4004 168.5C89.4004 172.5 92.6004 175.7 96.6004 175.7Z" fill="white"/>
<path d="M533.9 289.3C533.5 290.6 533 291.9 532.3 293.2L536.2 297.1L529.3 304L525.4 300.1C524.2 300.8 522.9 301.3 521.6 301.7V307.2H511.9V301.6C510.6 301.2 509.3 300.7 508.1 300L504.2 303.9L497.3 297L501.2 293.1C500.5 291.9 500 290.6 499.6 289.2H494V279.6H499.4C499.8 278.2 500.3 276.9 501 275.7L497.2 271.9L504.1 265L507.9 268.8C509.2 268.1 510.5 267.5 511.9 267.1V261.8H521.6V267.1C523 267.5 524.3 268 525.6 268.8L529.4 265L536.3 271.9L532.5 275.7C533.2 276.9 533.7 278.3 534.1 279.6H539.5V289.3H533.9Z" fill="#F2F2F2"/>
<path d="M516.6 291.8C520.6 291.8 523.8 288.6 523.8 284.6C523.8 280.6 520.6 277.4 516.6 277.4C512.6 277.4 509.4 280.6 509.4 284.6C509.5 288.5 512.7 291.8 516.6 291.8Z" fill="white"/>
<path d="M161.9 354.5C160.5 359.4 158.5 364.2 156 368.6L170.2 382.8L145 408L130.7 393.7C126.3 396.2 121.6 398.1 116.7 399.5V419.7H81.0999V399.5C76.1999 398.1 71.4999 396.2 67.0999 393.7L52.7999 408L27.5999 382.8L41.7999 368.6C39.2999 364.1 37.2999 359.4 35.8999 354.5H15.8999V318.9H35.5999C36.9999 313.9 38.9999 309 41.4999 304.5L27.5999 290.6L52.7999 265.4L66.5999 279.2C71.1999 276.6 76.0999 274.6 81.0999 273.1V253.7H116.7V273.1C121.8 274.5 126.6 276.6 131.2 279.2L145 265.4L170.2 290.6L156.3 304.5C158.8 309 160.8 313.9 162.2 318.9H181.9V354.5H161.9Z" fill="url(#paint3_linear)"/>
<path d="M119 362.8C134.1 347.7 134.1 323.3 119 308.2C103.9 293.1 79.5002 293.1 64.4002 308.2C49.3002 323.3 49.3002 347.7 64.4002 362.8C79.5002 377.9 104 377.9 119 362.8Z" fill="#626262"/>
<path d="M542.6 147.2C559.6 130.2 559.6 102.7 542.6 85.8C525.6 68.8 498.1 68.8 481.2 85.8C464.2 102.8 464.2 130.3 481.2 147.2C498.1 164.2 525.6 164.2 542.6 147.2Z" fill="#636363"/>
<path d="M113.8 357.1C126.1 344.8 126.1 324.8 113.8 312.5C101.5 300.2 81.5001 300.2 69.2001 312.5C56.9001 324.8 56.9001 344.8 69.2001 357.1C81.5001 369.4 101.5 369.4 113.8 357.1Z" fill="white"/>
<path d="M485.7 90.9C471.7 104.9 471.7 127.5 485.7 141.4C499.7 155.4 522.3 155.4 536.2 141.4C550.2 127.4 550.2 104.8 536.2 90.9C522.3 76.9 499.6 76.9 485.7 90.9Z" fill="white"/>
<path d="M495.4 88.3H121.6C107.5 88.3 96.0996 99.7 96.0996 113.8V362.7C96.0996 376.8 107.5 388.2 121.6 388.2H495.4C509.5 388.2 520.9 376.8 520.9 362.7V113.8C520.9 99.7 509.5 88.3 495.4 88.3Z" fill="#555555"/>
<path d="M491.7 92.4H125.5C111.7 92.4 100.5 103.5 100.5 117.1V358.8C100.5 372.5 111.7 383.5 125.5 383.5H491.7C505.5 383.5 516.7 372.4 516.7 358.8V117.2C516.7 103.5 505.5 92.4 491.7 92.4Z" fill="#E9F7FE"/>
<path d="M180.2 92.4C155.9 92.4 146 123.4 165.8 137.3L477.5 356C494 367.6 516.7 355.9 516.7 335.8V117.2C516.7 103.5 505.6 92.5 491.8 92.5H180.2V92.4Z" fill="#DFF3FB"/>
<path d="M221.2 118.6H145.7C137.2 118.6 130.2 125.5 130.2 134.1V182.2C130.2 190.7 137.1 197.7 145.7 197.7H221.2C229.7 197.7 236.7 190.8 236.7 182.2V134.1C236.7 125.6 229.8 118.6 221.2 118.6Z" fill="#00BAFF"/>
<path d="M456.8 383.6H465.2C465.2 383.6 473.2 371.3 477.1 344.1C480.6 320.1 476.1 297.7 476.1 297.7L464.6 334.5L456.8 383.6Z" fill="#D0E2F7"/>
<path d="M291.7 218.9H145.7C137.2 218.9 130.2 225.8 130.2 234.4V334.9C130.2 343.4 137.1 350.4 145.7 350.4H291.7C300.2 350.4 307.2 343.5 307.2 334.9V234.4C307.2 225.8 300.3 218.9 291.7 218.9Z" fill="#00BAFF"/>
<path d="M471 118.6H364.1C355.6 118.6 348.6 125.5 348.6 134.1V182.2C348.6 190.7 355.5 197.7 364.1 197.7H471C479.5 197.7 486.5 190.8 486.5 182.2V134.1C486.5 125.6 479.5 118.6 471 118.6Z" fill="#00BAFF"/>
<path d="M484.8 222.1H350.3C349.9 222.1 349.5 221.9 349.2 221.6C348.9 221.3 348.7 220.9 348.7 220.5C348.7 220.3 348.7 220.1 348.8 219.9C348.9 219.7 349 219.5 349.2 219.4C349.4 219.3 349.5 219.1 349.7 219C349.9 218.9 350.1 218.9 350.3 218.9H484.9C485.1 218.9 485.3 218.9 485.5 219C485.7 219.1 485.9 219.2 486 219.4C486.2 219.6 486.3 219.7 486.4 219.9C486.5 220.1 486.5 220.3 486.5 220.5C486.5 220.7 486.5 220.9 486.4 221.1C486.3 221.3 486.2 221.5 486 221.6C485.9 221.8 485.7 221.9 485.5 222C485.3 222.1 485.1 222.1 484.8 222.1Z" fill="#009DD7"/>
<path d="M478.7 222.1C478.7 222.1 477.7 291.9 474.1 328.8C469.2 378.7 451.1 389.1 451.1 389.1H313.8C313.8 389.1 324.7 383.5 340 359.3C359.7 328 357.9 222.1 357.9 222.1H478.7Z" fill="#009DD7"/>
<path d="M478.7 222.1C478.7 222.1 477.7 291.9 474.1 328.8C469.2 378.7 451.1 389.1 451.1 389.1H449.2C448.5 385.8 447.9 382.3 447.3 378.7C429 269.6 357.8 222.1 357.8 222.1H478.7Z" fill="#00BAFF"/>
<path d="M449.8 242.3C449.8 240.7 448.5 239.5 447 239.5H388.2C386.6 239.5 385.4 240.8 385.4 242.3V244.4C385.4 246 386.7 247.2 388.2 247.2H447C448.6 247.2 449.8 245.9 449.8 244.4V242.3Z" fill="white"/>
<path d="M449.8 265H385.3C385 265 384.8 264.9 384.6 264.7C384.4 264.5 384.3 264.3 384.3 264C384.3 263.7 384.4 263.5 384.6 263.3C384.8 263.1 385 263 385.3 263H449.8C450.1 263 450.3 263.1 450.5 263.3C450.7 263.5 450.8 263.7 450.8 264C450.8 264.3 450.7 264.5 450.5 264.7C450.3 264.9 450.1 265 449.8 265Z" fill="white"/>
<path d="M449.8 287.5H385.3C385 287.5 384.8 287.4 384.6 287.2C384.4 287 384.3 286.8 384.3 286.5C384.3 286.2 384.4 286 384.6 285.8C384.8 285.6 385 285.5 385.3 285.5H449.8C450.1 285.5 450.3 285.6 450.5 285.8C450.7 286 450.8 286.2 450.8 286.5C450.8 286.8 450.7 287 450.5 287.2C450.3 287.4 450.1 287.5 449.8 287.5Z" fill="white"/>
<path d="M446.5 310H382C381.7 310 381.5 309.9 381.3 309.7C381.1 309.5 381 309.3 381 309C381 308.7 381.1 308.5 381.3 308.3C381.5 308.1 381.7 308 382 308H446.5C446.8 308 447 308.1 447.2 308.3C447.4 308.5 447.5 308.7 447.5 309C447.5 309.3 447.4 309.5 447.2 309.7C447 309.9 446.7 310 446.5 310Z" fill="white"/>
<path d="M441.2 332.6H376.7C376.4 332.6 376.2 332.5 376 332.3C375.8 332.1 375.7 331.9 375.7 331.6C375.7 331.3 375.8 331.1 376 330.9C376.2 330.7 376.4 330.6 376.7 330.6H441.2C441.5 330.6 441.7 330.7 441.9 330.9C442.1 331.1 442.2 331.3 442.2 331.6C442.2 331.9 442.1 332.1 441.9 332.3C441.7 332.5 441.5 332.6 441.2 332.6Z" fill="white"/>
<path d="M409.9 367.7H358.9C358.6 367.7 358.4 367.6 358.2 367.4C358 367.2 357.9 367 357.9 366.7C357.9 366.4 358 366.2 358.2 366C358.4 365.8 358.6 365.7 358.9 365.7H409.9C410.2 365.7 410.4 365.8 410.6 366C410.8 366.2 410.9 366.4 410.9 366.7C410.9 367 410.8 367.2 410.6 367.4C410.4 367.5 410.1 367.7 409.9 367.7Z" fill="white"/>
<path d="M405.2 376.3L354.1 375.6C354 375.6 353.8 375.6 353.7 375.5C353.6 375.4 353.5 375.4 353.4 375.3C353.3 375.2 353.2 375.1 353.2 375C353.2 374.9 353.1 374.7 353.1 374.6C353.1 374.5 353.1 374.3 353.2 374.2C353.3 374.1 353.3 374 353.4 373.9C353.5 373.8 353.6 373.7 353.7 373.7C353.8 373.7 354 373.6 354.1 373.6L405.1 374.3C405.4 374.3 405.6 374.4 405.8 374.6C406 374.8 406.1 375 406.1 375.3C406.1 375.6 406 375.8 405.8 376C405.7 376.2 405.4 376.3 405.2 376.3Z" fill="white"/>
<path d="M453.5 362C453.6 360.4 452.4 359.2 450.8 359.2H431.3C429.7 359.2 428.2 360.5 427.9 362L425.5 369.1C425 370.6 424 372.9 423.1 374.2C423.1 374.2 421.8 377.3 421.2 377.8C420.6 378.3 421.3 378.8 422.9 378.8H444.4C446 378.8 448.2 377.9 449.3 376.8L451.1 372.4C451.9 371.1 452.8 368.7 453 367.2L453.5 362Z" fill="white"/>
<path d="M165.6 159.3C165.6 157.7 164.3 156.5 162.8 156.5H159.2C157.6 156.5 156.4 157.8 156.4 159.3V181.6C156.4 183.2 157.7 184.4 159.2 184.4H162.8C164.4 184.4 165.6 183.1 165.6 181.6V159.3Z" fill="white"/>
<path d="M188.1 149.3C188.1 147.7 186.8 146.5 185.3 146.5H181.7C180.1 146.5 178.9 147.8 178.9 149.3V181.6C178.9 183.2 180.2 184.4 181.7 184.4H185.3C186.9 184.4 188.1 183.1 188.1 181.6V149.3Z" fill="#E1E1E1"/>
<path d="M210.6 134C210.6 132.4 209.3 131.2 207.8 131.2H204.2C202.6 131.2 201.4 132.5 201.4 134V181.6C201.4 183.2 202.7 184.4 204.2 184.4H207.8C209.4 184.4 210.6 183.1 210.6 181.6V134Z" fill="#C2C2C2"/>
<path d="M287.1 314.8C281.9 314.8 280.7 305.4 279.3 294.5C278 284.7 276.5 273.6 271.9 273.6C267.7 273.6 267.7 282.9 267.7 291.9C267.7 303.2 267.7 314.9 260.1 314.9C259.1 314.9 258.1 314.6 257.3 314C253.4 311 253.9 300.6 254.5 289.6C255.1 278.2 255.7 265.2 251 261.6C250.1 260.9 249.1 260.6 248 260.6C247.2 260.6 246.4 260.8 245.7 261.3C242.2 264 242.9 273.3 243.6 282.4C244.3 291.4 244.9 300 241.5 302.7C240.7 303.3 239.8 303.6 238.8 303.6C237.7 303.6 236.6 303.3 235.7 302.7C232.5 300.3 232.5 293.8 232.6 286.8C232.7 279.9 232.7 272.8 229.5 270.4C228.7 269.8 227.7 269.5 226.7 269.6C225.9 269.6 225 269.8 224.3 270.3C220.8 272.9 220.9 281.6 221 290C221.1 298.9 221.2 307.4 217.4 310.2C216.5 310.9 215.3 311.2 214.2 311.2C213.3 311.2 212.3 310.9 211.6 310.4C207.5 307.3 207.9 295.6 208.3 283.3C208.7 270.5 209.1 257.2 204.6 253.8C203.9 253.3 203.1 253 202.2 253C194.7 253 193.3 266.7 192 278.8C190.8 290 189.8 299.6 184.3 299.6C178.6 299.6 178.4 291.7 178.2 283.4C178 275.2 177.9 265.8 171.8 265.8C165.3 265.8 163.6 276.3 162.1 285.6C160.8 293.9 159.6 301.1 155.1 301.1C153.1 301.2 151.1 300.6 149.5 299.4C146.2 296.8 146.7 292.1 146.7 291.9L148 292C148 292 147.6 296.5 150.5 298.8C151.8 299.8 153.5 300.3 155.2 300.2C158.5 300.2 159.8 292.7 160.9 285.5C162.5 275.3 164.2 264.8 171.9 264.8C179.3 264.8 179.5 274.2 179.6 283.3C179.7 290.8 179.9 298.5 184.3 298.5C188.6 298.5 189.6 288.4 190.7 278.6C192.1 265.5 193.5 251.9 202.2 251.9C203.4 251.9 204.6 252.3 205.5 253C210.5 256.7 210 270.2 209.6 283.2C209.2 294.8 208.8 306.8 212.6 309.6C213.1 310 213.7 310.2 214.3 310.2C215.1 310.2 215.9 310 216.6 309.5C220 307 219.9 298.4 219.8 290C219.7 281 219.6 272.5 223.4 269.6C224.4 268.9 225.5 268.5 226.7 268.6C228 268.6 229.3 269 230.4 269.7C234.1 272.4 234 279.7 233.9 286.8C233.8 293.2 233.8 299.9 236.6 302C237.2 302.5 238 302.7 238.8 302.7C239.4 302.7 240.1 302.5 240.6 302.1C243.6 299.8 243 291 242.4 282.6C241.7 272.9 241 263.8 244.9 260.8C245.8 260.1 247 259.8 248.1 259.8C249.5 259.8 250.9 260.2 252.1 261.1C257.2 265 256.6 277.6 256 289.8C255.5 300.1 255 310.8 258.5 313.5C259 313.9 259.7 314.1 260.3 314.1C266.6 314.1 266.6 302.4 266.6 292.1C266.6 281.8 266.6 272.8 272.1 272.8C278 272.8 279.4 283.4 280.8 294.6C282 303.7 283.4 314.1 287.3 314.1C294.4 314.1 296 298 296 291.8H297.3C297.2 295.7 296.9 299.5 296.1 303.3C294.3 310.9 291.4 314.8 287.1 314.8Z" fill="#009DD7"/>
<path d="M177.4 317.5C169.8 317.5 169.8 305.8 169.8 294.5C169.8 285.5 169.8 276.2 165.6 276.2C160.9 276.2 159.5 287.3 158.2 297.1C156.8 308 155.5 317.4 150.4 317.4C146.2 317.4 143.2 313.4 141.6 305.6C140.9 301.8 140.5 298 140.4 294.1H141.7C141.7 300.3 143.3 316.4 150.4 316.4C154.4 316.4 155.7 306.1 156.9 296.9C158.4 285.7 159.8 275.1 165.6 275.1C171.1 275.1 171.1 284 171.1 294.4C171.1 304.7 171.1 316.4 177.4 316.4C178.1 316.4 178.7 316.2 179.2 315.8C182.7 313.1 182.2 302.4 181.7 292.1C181.1 279.9 180.5 267.3 185.6 263.4C186.7 262.5 188.1 262.1 189.6 262.1C190.8 262.1 191.9 262.4 192.8 263.1C196.7 266.1 196 275.2 195.3 284.9C194.7 293.4 194 302.1 197.1 304.4C197.6 304.8 198.2 305 198.9 305C199.7 305 200.4 304.8 201.1 304.3C203.9 302.2 203.9 295.5 203.8 289.1C203.7 282 203.7 274.7 207.3 272C208.4 271.2 209.7 270.8 211 270.9C212.2 270.9 213.3 271.2 214.3 271.9C218.2 274.8 218.1 283.3 217.9 292.3C217.8 300.6 217.7 309.3 221.1 311.8C221.8 312.3 222.6 312.5 223.4 312.5C224 312.5 224.6 312.3 225.1 311.9C228.8 309.1 228.4 297.1 228.1 285.5C227.7 272.5 227.2 259 232.2 255.3C233.2 254.6 234.3 254.2 235.5 254.2C244.2 254.2 245.6 267.8 247 280.9C248 290.7 249.1 300.8 253.4 300.8C257.8 300.8 258 293.1 258.1 285.6C258.3 276.5 258.4 267.1 265.8 267.1C273.5 267.1 275.1 277.6 276.8 287.8C278 295 279.2 302.5 282.5 302.5C284.2 302.6 285.8 302.1 287.2 301.1C290.1 298.8 289.7 294.4 289.7 294.3L291 294.2C291 294.4 291.5 299.1 288.2 301.7C286.6 302.9 284.6 303.5 282.6 303.4C278.1 303.4 276.9 296.2 275.6 287.9C274.1 278.6 272.4 268.1 265.9 268.1C259.8 268.1 259.6 277.4 259.5 285.7C259.3 294 259.2 301.9 253.4 301.9C247.9 301.9 246.9 292.3 245.7 281.1C244.4 269 243 255.3 235.5 255.3C234.6 255.3 233.8 255.6 233.1 256.1C228.5 259.5 229 272.8 229.4 285.6C229.8 298 230.2 309.6 226.1 312.7C225.3 313.3 224.4 313.6 223.5 313.5C222.3 313.5 221.2 313.2 220.3 312.5C216.5 309.7 216.6 301.2 216.7 292.3C216.8 283.9 216.9 275.2 213.4 272.6C212.7 272.1 211.9 271.8 211 271.9C210 271.9 209 272.2 208.2 272.7C204.9 275.1 205 282.2 205.1 289.1C205.2 296.1 205.2 302.6 202 305C201.1 305.6 200 306 198.9 305.9C197.9 305.9 197 305.6 196.2 305C192.8 302.4 193.4 293.8 194.1 284.7C194.8 275.7 195.5 266.3 192 263.6C191.4 263.1 190.6 262.9 189.7 262.9C188.6 262.9 187.6 263.2 186.7 263.9C182 267.5 182.6 280.5 183.2 291.9C183.7 302.9 184.3 313.4 180.4 316.3C179.4 317.2 178.4 317.5 177.4 317.5Z" fill="#EBF2FC"/>
<path d="M417.6 213.9L424.7 205.9H410.3L417.6 213.9Z" fill="#C2C2C2"/>
<path d="M389.3 130.3C389.3 128.7 388 127.5 386.5 127.5H360.1C358.5 127.5 357.3 128.8 357.3 130.3V139.9C357.3 141.5 358.6 142.7 360.1 142.7H386.5C388.1 142.7 389.3 141.4 389.3 139.9V130.3Z" fill="white"/>
<path d="M393.9 149.1H357.2C357 149.1 356.9 149 356.7 148.9C356.6 148.8 356.5 148.6 356.5 148.4C356.5 148.2 356.6 148.1 356.7 147.9C356.8 147.8 357 147.7 357.2 147.7H393.9C394.1 147.7 394.2 147.8 394.4 147.9C394.5 148 394.6 148.2 394.6 148.4C394.6 148.6 394.5 148.7 394.4 148.9C394.3 149.1 394.1 149.1 393.9 149.1Z" fill="white"/>
<path d="M400.8 156.6H357.3C357.1 156.6 357 156.5 356.8 156.4C356.7 156.3 356.6 156.1 356.6 155.9C356.6 155.7 356.7 155.6 356.8 155.4C356.9 155.3 357.1 155.2 357.3 155.2H400.8C401 155.2 401.1 155.3 401.3 155.4C401.4 155.5 401.5 155.7 401.5 155.9C401.5 156.1 401.4 156.2 401.3 156.4C401.1 156.6 400.9 156.6 400.8 156.6Z" fill="#C2C2C2"/>
<path d="M409.4 164.1H357.3C357.1 164.1 357 164 356.8 163.9C356.7 163.8 356.6 163.6 356.6 163.4C356.6 163.2 356.7 163.1 356.8 162.9C356.9 162.8 357.1 162.7 357.3 162.7H409.4C409.6 162.7 409.7 162.8 409.9 162.9C410 163 410.1 163.2 410.1 163.4C410.1 163.6 410 163.7 409.9 163.9C409.7 164.1 409.6 164.1 409.4 164.1Z" fill="white"/>
<path d="M477.6 183.5C477.6 182 476.3 180.7 474.8 180.7H360.3C358.7 180.7 357.5 181.9 357.5 183.5C357.5 185 358.8 186.3 360.3 186.3H474.8C476.4 186.2 477.6 185 477.6 183.5Z" fill="#E4E5E6"/>
<path d="M461.7 162.3C469.3 154.7 469.3 142.3 461.7 134.7C454.1 127.1 441.7 127.1 434.1 134.7C426.5 142.3 426.5 154.7 434.1 162.3C441.7 169.9 454.1 169.9 461.7 162.3Z" fill="white"/>
<path d="M269.3 186.3C264.4 181.4 261.101 175.1 260.001 168.3C258.901 161.5 259.901 154.5 263.001 148.2C266.101 142 271.001 136.9 277.101 133.6C283.201 130.3 290.201 129.1 297.101 130L296.201 136.6C290.701 135.9 285.101 136.9 280.201 139.5C275.301 142.1 271.4 146.2 268.9 151.1C266.5 156.1 265.601 161.7 266.501 167.1C267.401 172.6 270 177.6 273.9 181.5L269.3 186.3Z" fill="#C2C2C2"/>
<path d="M292.7 195.9C290.7 195.9 288.8 195.7 286.8 195.4L288 188.9C289.6 189.2 291.1 189.3 292.7 189.3C298.1 189.3 303.4 187.6 307.8 184.5C312.2 181.4 315.6 177 317.5 171.9C319.4 166.8 319.6 161.3 318.2 156C316.8 150.8 313.9 146.1 309.7 142.6L314 137.6C319.2 142 322.9 147.8 324.6 154.4C326.3 160.9 326 167.9 323.7 174.2C321.4 180.6 317.1 186 311.6 189.9C306.1 193.8 299.4 195.9 292.7 195.9Z" fill="#00BAFF"/>
<path d="M308.5 135.9V144.5L317.1 136.8L308.5 135.9Z" fill="#00BAFF"/>
<path d="M294.4 228H285.5V236.9H294.4V228Z" fill="white"/>
<path d="M279.9 231H265.6C265.5 231 265.4 230.9 265.3 230.9C265.2 230.8 265.2 230.7 265.2 230.6C265.2 230.5 265.2 230.4 265.3 230.3C265.4 230.2 265.5 230.2 265.6 230.2H279.9C280 230.2 280 230.2 280.1 230.2C280.2 230.2 280.2 230.3 280.3 230.3L280.4 230.4C280.4 230.5 280.4 230.5 280.4 230.6C280.4 230.7 280.4 230.7 280.4 230.8C280.4 230.9 280.3 230.9 280.3 230.9C280.3 230.9 280.2 231 280.1 231C280 231 279.9 231 279.9 231Z" fill="white"/>
<path d="M279.9 234.7H251.4C251.3 234.7 251.3 234.7 251.2 234.7C251.1 234.7 251.1 234.6 251 234.6L250.9 234.5C250.9 234.4 250.9 234.4 250.9 234.3C250.9 234.2 250.9 234.2 250.9 234.1C250.9 234 251 234 251 234C251 234 251.1 233.9 251.2 233.9C251.3 233.9 251.3 233.9 251.4 233.9H279.9C280 233.9 280 233.9 280.1 233.9C280.2 233.9 280.2 234 280.3 234L280.4 234.1C280.4 234.2 280.4 234.2 280.4 234.3C280.4 234.4 280.4 234.4 280.4 234.5C280.4 234.6 280.3 234.6 280.3 234.6C280.3 234.6 280.2 234.7 280.1 234.7C280 234.7 279.9 234.7 279.9 234.7Z" fill="white"/>
<path d="M294.4 241.1H285.5V250H294.4V241.1Z" fill="#009DD7"/>
<path d="M279.9 244.1H265.6C265.5 244.1 265.4 244 265.3 244C265.2 243.9 265.2 243.8 265.2 243.7C265.2 243.6 265.2 243.5 265.3 243.4C265.4 243.3 265.5 243.3 265.6 243.3H279.9C280 243.3 280 243.3 280.1 243.3C280.2 243.3 280.2 243.4 280.3 243.4L280.4 243.5C280.4 243.6 280.4 243.6 280.4 243.7C280.4 243.8 280.4 243.8 280.4 243.9C280.4 244 280.3 244 280.3 244C280.3 244 280.2 244.1 280.1 244.1C280 244.1 279.9 244.1 279.9 244.1Z" fill="white"/>
<path d="M279.9 247.8H251.4C251.3 247.8 251.3 247.8 251.2 247.8C251.1 247.8 251.1 247.7 251 247.7L250.9 247.6C250.9 247.5 250.9 247.5 250.9 247.4C250.9 247.3 250.9 247.3 250.9 247.2C250.9 247.1 251 247.1 251 247.1C251 247.1 251.1 247 251.2 247C251.3 247 251.3 247 251.4 247H279.9C280 247 280 247 280.1 247C280.2 247 280.2 247.1 280.3 247.1L280.4 247.2C280.4 247.3 280.4 247.3 280.4 247.4C280.4 247.5 280.4 247.5 280.4 247.6C280.4 247.7 280.3 247.7 280.3 247.7C280.3 247.7 280.2 247.8 280.1 247.8C280 247.8 279.9 247.8 279.9 247.8Z" fill="white"/>
<path d="M275.4 187.7V179.1L266.8 186.8L275.4 187.7Z" fill="#C2C2C2"/>
<path d="M548.5 244.7C553.9 250.1 562.7 250.1 568.1 244.7C573.5 239.3 573.5 230.5 568.1 225.1C562.7 219.7 553.9 219.7 548.5 225.1C543.1 230.5 543.1 239.3 548.5 244.7Z" fill="#A8A8A8"/>
</g>
<defs>
<filter id="filter0_d" x="-8" y="-8" width="624" height="474" filterUnits="userSpaceOnUse" color-interpolation-filters="sRGB">
<feFlood flood-opacity="0" result="BackgroundImageFix"/>
<feColorMatrix in="SourceAlpha" type="matrix" values="0 0 0 0 0 0 0 0 0 0 0 0 0 0 0 0 0 0 127 0" result="hardAlpha"/>
<feOffset dy="4"/>
<feGaussianBlur stdDeviation="6"/>
<feColorMatrix type="matrix" values="0 0 0 0 0 0 0 0 0 0 0 0 0 0 0 0 0 0 0.4 0"/>
<feBlend mode="normal" in2="BackgroundImageFix" result="effect1_dropShadow"/>
<feBlend mode="normal" in="SourceGraphic" in2="effect1_dropShadow" result="shape"/>
</filter>
<linearGradient id="paint0_linear" x1="425.62" y1="116.441" x2="596.422" y2="116.441" gradientUnits="userSpaceOnUse">
<stop stop-color="#42B4E7"/>
<stop offset="1" stop-color="#B1E2F8"/>
</linearGradient>
<linearGradient id="paint1_linear" x1="22.8162" y1="195.536" x2="75.0936" y2="247.814" gradientUnits="userSpaceOnUse">
<stop stop-color="#71439A"/>
<stop offset="0.8668" stop-color="#A76CAD"/>
</linearGradient>
<linearGradient id="paint2_linear" x1="530.475" y1="249.436" x2="584.236" y2="220.739" gradientUnits="userSpaceOnUse">
<stop stop-color="#71439A"/>
<stop offset="0.8668" stop-color="#A76CAD"/>
</linearGradient>
<linearGradient id="paint3_linear" x1="15.8618" y1="336.734" x2="181.835" y2="336.734" gradientUnits="userSpaceOnUse">
<stop stop-color="#42B4E7"/>
<stop offset="1" stop-color="#B1E2F8"/>
</linearGradient>
</defs>
</svg>
