<svg width="645" height="460" viewBox="0 0 645 460" fill="none" xmlns="http://www.w3.org/2000/svg">
<g filter="url(#filter0_d)">
<path d="M614.4 98.1V134.7H594.1C592.7 139.9 590.7 144.8 588 149.5L602.3 163.8L576.4 189.7L562.3 175.6C557.6 178.3 552.6 180.4 547.4 181.8V201.8H510.8V181.8C505.6 180.3 500.6 178.2 495.9 175.6L481.7 189.8L455.8 163.9L470 149.6C467.4 144.9 465.4 139.9 463.9 134.8H443.6V98.2H464.1C465.6 93.1 467.6 88.3 470.2 83.7L455.6 69.1L481.5 43.2L496.2 57.9C500.8 55.4 505.6 53.4 510.6 52V31H547.2V51.8C552.2 53.2 557.1 55.2 561.6 57.7L576.3 43L602.2 68.9L587.8 83.6C590.4 88.2 592.5 93.1 593.9 98.1H614.4Z" fill="url(#paint0_linear)"/>
<path d="M81.2 247.1C79.2 248.2 77.1 249.1 74.9 249.7V258.6H59V249.6C56.8 249 54.7 248.1 52.8 247L46.4 253.4L35.2 242.2L41.6 235.8C40.5 233.8 39.6 231.7 39 229.6H30V213.7H38.9C39.5 211.5 40.4 209.4 41.5 207.4L35.2 201.1L46.4 189.9L52.6 196.1C54.6 195 56.8 194.1 59 193.4V184.7H74.9V193.4C77.2 194 79.3 194.9 81.4 196.1L87.5 190L98.7 201.2L92.6 207.3C93.7 209.3 94.6 211.5 95.3 213.8H104V229.7H95.3C94.7 231.9 93.8 234.1 92.6 236.1L98.8 242.3L87.6 253.5L81.2 247.1Z" fill="url(#paint1_linear)"/>
<path d="M51.2999 236.2C59.4999 244.4 72.7999 244.4 80.8999 236.2C89.0999 228 89.0999 214.7 80.8999 206.6C72.6999 198.4 59.3999 198.4 51.2999 206.6C43.0999 214.7 43.0999 228 51.2999 236.2Z" fill="white"/>
<path d="M54 232.7C60.5 239.2 71 239.2 77.5 232.7C84 226.2 84 215.7 77.5 209.2C71 202.7 60.5 202.7 54 209.2C47.5 215.7 47.5 226.2 54 232.7Z" fill="#C4C6C8"/>
<path d="M598.8 230C599.2 231.8 599.4 233.7 599.3 235.6L606.3 237.7L602.5 250.2L595.4 248C594.4 249.6 593.2 251 591.9 252.3L595.4 258.9L583.9 265.1L580.4 258.5C578.6 258.9 576.7 259.1 574.9 259.1L572.7 266.2L560.2 262.4L562.3 255.4C560.7 254.4 559.2 253.2 557.9 251.9L551.4 255.3L545.2 243.8L551.6 240.4C551.2 238.5 551 236.6 551 234.7L544.1 232.6L547.9 220.1L554.7 222.2C555.7 220.6 557 219.1 558.4 217.7L555 211.4L566.5 205.2L569.9 211.5C571.8 211.1 573.7 210.9 575.7 211L577.8 204.2L590.3 208L588.2 214.9C589.8 215.9 591.3 217.2 592.6 218.5L599 215.1L605.2 226.6L598.8 230Z" fill="url(#paint2_linear)"/>
<path d="M584.4 249.9C592.8 245.4 596 234.9 591.5 226.5C587 218.1 576.5 214.9 568.1 219.4C559.7 223.9 556.5 234.4 561 242.8C565.5 251.2 576 254.3 584.4 249.9Z" fill="white"/>
<path d="M131.8 173.3C131.4 174.6 130.9 175.9 130.2 177.2L134.1 181.1L127.2 188L123.3 184.1C122.1 184.8 120.8 185.3 119.5 185.7V191.2H109.8V185.6C108.5 185.2 107.2 184.7 106 184L102.1 187.9L95.2 181L99.1 177.1C98.4 175.9 97.9 174.6 97.5 173.2H92V163.5H97.4C97.8 162.1 98.3 160.8 99 159.6L95.2 155.8L102.1 148.9L105.9 152.7C107.2 152 108.5 151.4 109.9 151V145.7H119.6V151C121 151.4 122.3 151.9 123.6 152.7L127.4 148.9L134.3 155.8L130.5 159.6C131.2 160.8 131.7 162.2 132.1 163.5H137.5V173.2H131.8V173.3Z" fill="#E6E7E8"/>
<path d="M114.6 175.7C118.6 175.7 121.8 172.5 121.8 168.5C121.8 164.5 118.6 161.3 114.6 161.3C110.6 161.3 107.4 164.5 107.4 168.5C107.4 172.5 110.6 175.7 114.6 175.7Z" fill="white"/>
<path d="M551.9 289.3C551.5 290.6 551 291.9 550.3 293.2L554.2 297.1L547.3 304L543.4 300.1C542.2 300.8 540.9 301.3 539.6 301.7V307.2H529.9V301.6C528.6 301.2 527.3 300.7 526.1 300L522.2 303.9L515.3 297L519.2 293.1C518.5 291.9 518 290.6 517.6 289.2H512V279.6H517.4C517.8 278.2 518.3 276.9 519 275.7L515.2 271.9L522.1 265L525.9 268.8C527.2 268.1 528.5 267.5 529.9 267.1V261.8H539.6V267.1C541 267.5 542.3 268 543.6 268.8L547.4 265L554.3 271.9L550.5 275.7C551.2 276.9 551.7 278.3 552.1 279.6H557.5V289.3H551.9Z" fill="#E6E7E8"/>
<path d="M534.6 291.8C538.6 291.8 541.8 288.6 541.8 284.6C541.8 280.6 538.6 277.4 534.6 277.4C530.6 277.4 527.4 280.6 527.4 284.6C527.5 288.5 530.7 291.8 534.6 291.8Z" fill="white"/>
<path d="M179.9 354.5C178.5 359.4 176.5 364.2 174 368.6L188.2 382.8L163 408L148.7 393.7C144.3 396.2 139.6 398.1 134.7 399.5V419.7H99.0999V399.5C94.1999 398.1 89.4999 396.2 85.0999 393.7L70.7999 408L45.5999 382.8L59.7999 368.6C57.2999 364.1 55.2999 359.4 53.8999 354.5H33.8999V318.9H53.5999C54.9999 313.9 56.9999 309 59.4999 304.5L45.5999 290.6L70.7999 265.4L84.5999 279.2C89.1999 276.6 94.0999 274.6 99.0999 273.1V253.7H134.7V273.1C139.8 274.5 144.6 276.6 149.2 279.2L163 265.4L188.2 290.6L174.3 304.5C176.8 309 178.8 313.9 180.2 318.9H199.9V354.5H179.9Z" fill="url(#paint3_linear)"/>
<path d="M137 362.8C152.1 347.7 152.1 323.3 137 308.2C121.9 293.1 97.5002 293.1 82.4002 308.2C67.3002 323.3 67.3002 347.7 82.4002 362.8C97.5002 377.9 122 377.9 137 362.8Z" fill="#6B6C6F"/>
<path d="M560.6 147.2C577.6 130.2 577.6 102.7 560.6 85.8C543.6 68.8 516.1 68.8 499.2 85.8C482.2 102.8 482.2 130.3 499.2 147.2C516.1 164.2 543.6 164.2 560.6 147.2Z" fill="#6B6C6F"/>
<path d="M131.8 357.1C144.1 344.8 144.1 324.8 131.8 312.5C119.5 300.2 99.5001 300.2 87.2001 312.5C74.9001 324.8 74.9001 344.8 87.2001 357.1C99.5001 369.4 119.5 369.4 131.8 357.1Z" fill="white"/>
<path d="M503.7 90.9C489.7 104.9 489.7 127.5 503.7 141.4C517.7 155.4 540.3 155.4 554.2 141.4C568.2 127.4 568.2 104.8 554.2 90.9C540.3 76.9 517.6 76.9 503.7 90.9Z" fill="white"/>
<path d="M513.4 88.3H139.6C125.5 88.3 114.1 99.7 114.1 113.8V362.7C114.1 376.8 125.5 388.2 139.6 388.2H513.4C527.5 388.2 538.9 376.8 538.9 362.7V113.8C538.9 99.7 527.5 88.3 513.4 88.3Z" fill="#6B6C6F"/>
<path d="M509.7 92.4H143.5C129.7 92.4 118.5 103.5 118.5 117.1V358.8C118.5 372.5 129.7 383.5 143.5 383.5H509.7C523.5 383.5 534.7 372.4 534.7 358.8V117.2C534.7 103.5 523.5 92.4 509.7 92.4Z" fill="#E9F7FE"/>
<path d="M198.2 92.4C173.9 92.4 164 123.4 183.8 137.3L495.5 356C512 367.6 534.7 355.9 534.7 335.8V117.2C534.7 103.5 523.6 92.5 509.8 92.5H198.2V92.4Z" fill="#DFF3FB"/>
<path d="M239.2 118.6H163.7C155.2 118.6 148.2 125.5 148.2 134.1V182.2C148.2 190.7 155.1 197.7 163.7 197.7H239.2C247.7 197.7 254.7 190.8 254.7 182.2V134.1C254.7 125.6 247.8 118.6 239.2 118.6Z" fill="#00BAFF"/>
<path d="M474.8 383.6H483.2C483.2 383.6 491.2 371.3 495.1 344.1C498.6 320.1 494.1 297.7 494.1 297.7L482.6 334.5L474.8 383.6Z" fill="#D0E2F7"/>
<path d="M309.7 218.9H163.7C155.2 218.9 148.2 225.8 148.2 234.4V334.9C148.2 343.4 155.1 350.4 163.7 350.4H309.7C318.2 350.4 325.2 343.5 325.2 334.9V234.4C325.2 225.8 318.3 218.9 309.7 218.9Z" fill="#00BAFF"/>
<path d="M489 118.6H382.1C373.6 118.6 366.6 125.5 366.6 134.1V182.2C366.6 190.7 373.5 197.7 382.1 197.7H489C497.5 197.7 504.5 190.8 504.5 182.2V134.1C504.5 125.6 497.5 118.6 489 118.6Z" fill="#00BAFF"/>
<path d="M502.8 222.1H368.3C367.9 222.1 367.5 221.9 367.2 221.6C366.9 221.3 366.7 220.9 366.7 220.5C366.7 220.3 366.7 220.1 366.8 219.9C366.9 219.7 367 219.5 367.2 219.4C367.4 219.3 367.5 219.1 367.7 219C367.9 218.9 368.1 218.9 368.3 218.9H502.9C503.1 218.9 503.3 218.9 503.5 219C503.7 219.1 503.9 219.2 504 219.4C504.2 219.6 504.3 219.7 504.4 219.9C504.5 220.1 504.5 220.3 504.5 220.5C504.5 220.7 504.5 220.9 504.4 221.1C504.3 221.3 504.2 221.5 504 221.6C503.9 221.8 503.7 221.9 503.5 222C503.3 222.1 503.1 222.1 502.8 222.1Z" fill="#009DD7"/>
<path d="M496.7 222.1C496.7 222.1 495.7 291.9 492.1 328.8C487.2 378.7 469.1 389.1 469.1 389.1H331.8C331.8 389.1 342.7 383.5 358 359.3C377.7 328 375.9 222.1 375.9 222.1H496.7Z" fill="#009DD7"/>
<path d="M496.7 222.1C496.7 222.1 495.7 291.9 492.1 328.8C487.2 378.7 469.1 389.1 469.1 389.1H467.2C466.5 385.8 465.9 382.3 465.3 378.7C447 269.6 375.8 222.1 375.8 222.1H496.7Z" fill="#00BAFF"/>
<path d="M467.8 242.3C467.8 240.7 466.5 239.5 465 239.5H406.2C404.6 239.5 403.4 240.8 403.4 242.3V244.4C403.4 246 404.7 247.2 406.2 247.2H465C466.6 247.2 467.8 245.9 467.8 244.4V242.3Z" fill="white"/>
<path d="M467.8 265H403.3C403 265 402.8 264.9 402.6 264.7C402.4 264.5 402.3 264.3 402.3 264C402.3 263.7 402.4 263.5 402.6 263.3C402.8 263.1 403 263 403.3 263H467.8C468.1 263 468.3 263.1 468.5 263.3C468.7 263.5 468.8 263.7 468.8 264C468.8 264.3 468.7 264.5 468.5 264.7C468.3 264.9 468.1 265 467.8 265Z" fill="white"/>
<path d="M467.8 287.5H403.3C403 287.5 402.8 287.4 402.6 287.2C402.4 287 402.3 286.8 402.3 286.5C402.3 286.2 402.4 286 402.6 285.8C402.8 285.6 403 285.5 403.3 285.5H467.8C468.1 285.5 468.3 285.6 468.5 285.8C468.7 286 468.8 286.2 468.8 286.5C468.8 286.8 468.7 287 468.5 287.2C468.3 287.4 468.1 287.5 467.8 287.5Z" fill="white"/>
<path d="M464.5 310H400C399.7 310 399.5 309.9 399.3 309.7C399.1 309.5 399 309.3 399 309C399 308.7 399.1 308.5 399.3 308.3C399.5 308.1 399.7 308 400 308H464.5C464.8 308 465 308.1 465.2 308.3C465.4 308.5 465.5 308.7 465.5 309C465.5 309.3 465.4 309.5 465.2 309.7C465 309.9 464.7 310 464.5 310Z" fill="white"/>
<path d="M459.2 332.6H394.7C394.4 332.6 394.2 332.5 394 332.3C393.8 332.1 393.7 331.9 393.7 331.6C393.7 331.3 393.8 331.1 394 330.9C394.2 330.7 394.4 330.6 394.7 330.6H459.2C459.5 330.6 459.7 330.7 459.9 330.9C460.1 331.1 460.2 331.3 460.2 331.6C460.2 331.9 460.1 332.1 459.9 332.3C459.7 332.5 459.5 332.6 459.2 332.6Z" fill="white"/>
<path d="M427.9 367.7H376.9C376.6 367.7 376.4 367.6 376.2 367.4C376 367.2 375.9 367 375.9 366.7C375.9 366.4 376 366.2 376.2 366C376.4 365.8 376.6 365.7 376.9 365.7H427.9C428.2 365.7 428.4 365.8 428.6 366C428.8 366.2 428.9 366.4 428.9 366.7C428.9 367 428.8 367.2 428.6 367.4C428.4 367.5 428.1 367.7 427.9 367.7Z" fill="white"/>
<path d="M423.2 376.3L372.1 375.6C372 375.6 371.8 375.6 371.7 375.5C371.6 375.4 371.5 375.4 371.4 375.3C371.3 375.2 371.2 375.1 371.2 375C371.2 374.9 371.1 374.7 371.1 374.6C371.1 374.5 371.1 374.3 371.2 374.2C371.3 374.1 371.3 374 371.4 373.9C371.5 373.8 371.6 373.7 371.7 373.7C371.8 373.7 372 373.6 372.1 373.6L423.1 374.3C423.4 374.3 423.6 374.4 423.8 374.6C424 374.8 424.1 375 424.1 375.3C424.1 375.6 424 375.8 423.8 376C423.7 376.2 423.4 376.3 423.2 376.3Z" fill="white"/>
<path d="M471.5 362C471.6 360.4 470.4 359.2 468.8 359.2H449.3C447.7 359.2 446.2 360.5 445.9 362L443.5 369.1C443 370.6 442 372.9 441.1 374.2C441.1 374.2 439.8 377.3 439.2 377.8C438.6 378.3 439.3 378.8 440.9 378.8H462.4C464 378.8 466.2 377.9 467.3 376.8L469.1 372.4C469.9 371.1 470.8 368.7 471 367.2L471.5 362Z" fill="white"/>
<path d="M183.6 159.3C183.6 157.7 182.3 156.5 180.8 156.5H177.2C175.6 156.5 174.4 157.8 174.4 159.3V181.6C174.4 183.2 175.7 184.4 177.2 184.4H180.8C182.4 184.4 183.6 183.1 183.6 181.6V159.3Z" fill="white"/>
<path d="M206.1 149.3C206.1 147.7 204.8 146.5 203.3 146.5H199.7C198.1 146.5 196.9 147.8 196.9 149.3V181.6C196.9 183.2 198.2 184.4 199.7 184.4H203.3C204.9 184.4 206.1 183.1 206.1 181.6V149.3Z" fill="#E1E1E1"/>
<path d="M228.6 134C228.6 132.4 227.3 131.2 225.8 131.2H222.2C220.6 131.2 219.4 132.5 219.4 134V181.6C219.4 183.2 220.7 184.4 222.2 184.4H225.8C227.4 184.4 228.6 183.1 228.6 181.6V134Z" fill="#C2C2C2"/>
<path d="M305.1 314.8C299.9 314.8 298.7 305.4 297.3 294.5C296 284.7 294.5 273.6 289.9 273.6C285.7 273.6 285.7 282.9 285.7 291.9C285.7 303.2 285.7 314.9 278.1 314.9C277.1 314.9 276.1 314.6 275.3 314C271.4 311 271.9 300.6 272.5 289.6C273.1 278.2 273.7 265.2 269 261.6C268.1 260.9 267.1 260.6 266 260.6C265.2 260.6 264.4 260.8 263.7 261.3C260.2 264 260.9 273.3 261.6 282.4C262.3 291.4 262.9 300 259.5 302.7C258.7 303.3 257.8 303.6 256.8 303.6C255.7 303.6 254.6 303.3 253.7 302.7C250.5 300.3 250.5 293.8 250.6 286.8C250.7 279.9 250.7 272.8 247.5 270.4C246.7 269.8 245.7 269.5 244.7 269.6C243.9 269.6 243 269.8 242.3 270.3C238.8 272.9 238.9 281.6 239 290C239.1 298.9 239.2 307.4 235.4 310.2C234.5 310.9 233.3 311.2 232.2 311.2C231.3 311.2 230.3 310.9 229.6 310.4C225.5 307.3 225.9 295.6 226.3 283.3C226.7 270.5 227.1 257.2 222.6 253.8C221.9 253.3 221.1 253 220.2 253C212.7 253 211.3 266.7 210 278.8C208.8 290 207.8 299.6 202.3 299.6C196.6 299.6 196.4 291.7 196.2 283.4C196 275.2 195.9 265.8 189.8 265.8C183.3 265.8 181.6 276.3 180.1 285.6C178.8 293.9 177.6 301.1 173.1 301.1C171.1 301.2 169.1 300.6 167.5 299.4C164.2 296.8 164.7 292.1 164.7 291.9L166 292C166 292 165.6 296.5 168.5 298.8C169.8 299.8 171.5 300.3 173.2 300.2C176.5 300.2 177.8 292.7 178.9 285.5C180.5 275.3 182.2 264.8 189.9 264.8C197.3 264.8 197.5 274.2 197.6 283.3C197.7 290.8 197.9 298.5 202.3 298.5C206.6 298.5 207.6 288.4 208.7 278.6C210.1 265.5 211.5 251.9 220.2 251.9C221.4 251.9 222.6 252.3 223.5 253C228.5 256.7 228 270.2 227.6 283.2C227.2 294.8 226.8 306.8 230.6 309.6C231.1 310 231.7 310.2 232.3 310.2C233.1 310.2 233.9 310 234.6 309.5C238 307 237.9 298.4 237.8 290C237.7 281 237.6 272.5 241.4 269.6C242.4 268.9 243.5 268.5 244.7 268.6C246 268.6 247.3 269 248.4 269.7C252.1 272.4 252 279.7 251.9 286.8C251.8 293.2 251.8 299.9 254.6 302C255.2 302.5 256 302.7 256.8 302.7C257.4 302.7 258.1 302.5 258.6 302.1C261.6 299.8 261 291 260.4 282.6C259.7 272.9 259 263.8 262.9 260.8C263.8 260.1 265 259.8 266.1 259.8C267.5 259.8 268.9 260.2 270.1 261.1C275.2 265 274.6 277.6 274 289.8C273.5 300.1 273 310.8 276.5 313.5C277 313.9 277.7 314.1 278.3 314.1C284.6 314.1 284.6 302.4 284.6 292.1C284.6 281.8 284.6 272.8 290.1 272.8C296 272.8 297.4 283.4 298.8 294.6C300 303.7 301.4 314.1 305.3 314.1C312.4 314.1 314 298 314 291.8H315.3C315.2 295.7 314.9 299.5 314.1 303.3C312.3 310.9 309.4 314.8 305.1 314.8Z" fill="#009DD7"/>
<path d="M195.4 317.5C187.8 317.5 187.8 305.8 187.8 294.5C187.8 285.5 187.8 276.2 183.6 276.2C178.9 276.2 177.5 287.3 176.2 297.1C174.8 308 173.5 317.4 168.4 317.4C164.2 317.4 161.2 313.4 159.6 305.6C158.9 301.8 158.5 298 158.4 294.1H159.7C159.7 300.3 161.3 316.4 168.4 316.4C172.4 316.4 173.7 306.1 174.9 296.9C176.4 285.7 177.8 275.1 183.6 275.1C189.1 275.1 189.1 284 189.1 294.4C189.1 304.7 189.1 316.4 195.4 316.4C196.1 316.4 196.7 316.2 197.2 315.8C200.7 313.1 200.2 302.4 199.7 292.1C199.1 279.9 198.5 267.3 203.6 263.4C204.7 262.5 206.1 262.1 207.6 262.1C208.8 262.1 209.9 262.4 210.8 263.1C214.7 266.1 214 275.2 213.3 284.9C212.7 293.4 212 302.1 215.1 304.4C215.6 304.8 216.2 305 216.9 305C217.7 305 218.4 304.8 219.1 304.3C221.9 302.2 221.9 295.5 221.8 289.1C221.7 282 221.7 274.7 225.3 272C226.4 271.2 227.7 270.8 229 270.9C230.2 270.9 231.3 271.2 232.3 271.9C236.2 274.8 236.1 283.3 235.9 292.3C235.8 300.6 235.7 309.3 239.1 311.8C239.8 312.3 240.6 312.5 241.4 312.5C242 312.5 242.6 312.3 243.1 311.9C246.8 309.1 246.4 297.1 246.1 285.5C245.7 272.5 245.2 259 250.2 255.3C251.2 254.6 252.3 254.2 253.5 254.2C262.2 254.2 263.6 267.8 265 280.9C266 290.7 267.1 300.8 271.4 300.8C275.8 300.8 276 293.1 276.1 285.6C276.3 276.5 276.4 267.1 283.8 267.1C291.5 267.1 293.1 277.6 294.8 287.8C296 295 297.2 302.5 300.5 302.5C302.2 302.6 303.8 302.1 305.2 301.1C308.1 298.8 307.7 294.4 307.7 294.3L309 294.2C309 294.4 309.5 299.1 306.2 301.7C304.6 302.9 302.6 303.5 300.6 303.4C296.1 303.4 294.9 296.2 293.6 287.9C292.1 278.6 290.4 268.1 283.9 268.1C277.8 268.1 277.6 277.4 277.5 285.7C277.3 294 277.2 301.9 271.4 301.9C265.9 301.9 264.9 292.3 263.7 281.1C262.4 269 261 255.3 253.5 255.3C252.6 255.3 251.8 255.6 251.1 256.1C246.5 259.5 247 272.8 247.4 285.6C247.8 298 248.2 309.6 244.1 312.7C243.3 313.3 242.4 313.6 241.5 313.5C240.3 313.5 239.2 313.2 238.3 312.5C234.5 309.7 234.6 301.2 234.7 292.3C234.8 283.9 234.9 275.2 231.4 272.6C230.7 272.1 229.9 271.8 229 271.9C228 271.9 227 272.2 226.2 272.7C222.9 275.1 223 282.2 223.1 289.1C223.2 296.1 223.2 302.6 220 305C219.1 305.6 218 306 216.9 305.9C215.9 305.9 215 305.6 214.2 305C210.8 302.4 211.4 293.8 212.1 284.7C212.8 275.7 213.5 266.3 210 263.6C209.4 263.1 208.6 262.9 207.7 262.9C206.6 262.9 205.6 263.2 204.7 263.9C200 267.5 200.6 280.5 201.2 291.9C201.7 302.9 202.3 313.4 198.4 316.3C197.4 317.2 196.4 317.5 195.4 317.5Z" fill="#EBF2FC"/>
<path d="M435.6 213.9L442.7 205.9H428.3L435.6 213.9Z" fill="#C2C2C2"/>
<path d="M407.3 130.3C407.3 128.7 406 127.5 404.5 127.5H378.1C376.5 127.5 375.3 128.8 375.3 130.3V139.9C375.3 141.5 376.6 142.7 378.1 142.7H404.5C406.1 142.7 407.3 141.4 407.3 139.9V130.3Z" fill="white"/>
<path d="M411.9 149.1H375.2C375 149.1 374.9 149 374.7 148.9C374.6 148.8 374.5 148.6 374.5 148.4C374.5 148.2 374.6 148.1 374.7 147.9C374.8 147.8 375 147.7 375.2 147.7H411.9C412.1 147.7 412.2 147.8 412.4 147.9C412.5 148 412.6 148.2 412.6 148.4C412.6 148.6 412.5 148.7 412.4 148.9C412.3 149.1 412.1 149.1 411.9 149.1Z" fill="white"/>
<path d="M418.8 156.6H375.3C375.1 156.6 375 156.5 374.8 156.4C374.7 156.3 374.6 156.1 374.6 155.9C374.6 155.7 374.7 155.6 374.8 155.4C374.9 155.3 375.1 155.2 375.3 155.2H418.8C419 155.2 419.1 155.3 419.3 155.4C419.4 155.5 419.5 155.7 419.5 155.9C419.5 156.1 419.4 156.2 419.3 156.4C419.1 156.6 418.9 156.6 418.8 156.6Z" fill="#C2C2C2"/>
<path d="M427.4 164.1H375.3C375.1 164.1 375 164 374.8 163.9C374.7 163.8 374.6 163.6 374.6 163.4C374.6 163.2 374.7 163.1 374.8 162.9C374.9 162.8 375.1 162.7 375.3 162.7H427.4C427.6 162.7 427.7 162.8 427.9 162.9C428 163 428.1 163.2 428.1 163.4C428.1 163.6 428 163.7 427.9 163.9C427.7 164.1 427.6 164.1 427.4 164.1Z" fill="white"/>
<path d="M495.6 183.5C495.6 182 494.3 180.7 492.8 180.7H378.3C376.7 180.7 375.5 181.9 375.5 183.5C375.5 185 376.8 186.3 378.3 186.3H492.8C494.4 186.2 495.6 185 495.6 183.5Z" fill="#E4E5E6"/>
<path d="M479.7 162.3C487.3 154.7 487.3 142.3 479.7 134.7C472.1 127.1 459.7 127.1 452.1 134.7C444.5 142.3 444.5 154.7 452.1 162.3C459.7 169.9 472.1 169.9 479.7 162.3Z" fill="white"/>
<path d="M287.3 186.3C282.4 181.4 279.101 175.1 278.001 168.3C276.901 161.5 277.901 154.5 281.001 148.2C284.101 142 289.001 136.9 295.101 133.6C301.201 130.3 308.201 129.1 315.101 130L314.201 136.6C308.701 135.9 303.101 136.9 298.201 139.5C293.301 142.1 289.4 146.2 286.9 151.1C284.5 156.1 283.601 161.7 284.501 167.1C285.401 172.6 288 177.6 291.9 181.5L287.3 186.3Z" fill="#C2C2C2"/>
<path d="M310.7 195.9C308.7 195.9 306.8 195.7 304.8 195.4L306 188.9C307.6 189.2 309.1 189.3 310.7 189.3C316.1 189.3 321.4 187.6 325.8 184.5C330.2 181.4 333.6 177 335.5 171.9C337.4 166.8 337.6 161.3 336.2 156C334.8 150.8 331.9 146.1 327.7 142.6L332 137.6C337.2 142 340.9 147.8 342.6 154.4C344.3 160.9 344 167.9 341.7 174.2C339.4 180.6 335.1 186 329.6 189.9C324.1 193.8 317.4 195.9 310.7 195.9Z" fill="#00BAFF"/>
<path d="M326.5 135.9V144.5L335.1 136.8L326.5 135.9Z" fill="#00BAFF"/>
<path d="M312.4 228H303.5V236.9H312.4V228Z" fill="white"/>
<path d="M297.9 231H283.6C283.5 231 283.4 230.9 283.3 230.9C283.2 230.8 283.2 230.7 283.2 230.6C283.2 230.5 283.2 230.4 283.3 230.3C283.4 230.2 283.5 230.2 283.6 230.2H297.9C298 230.2 298 230.2 298.1 230.2C298.2 230.2 298.2 230.3 298.3 230.3L298.4 230.4C298.4 230.5 298.4 230.5 298.4 230.6C298.4 230.7 298.4 230.7 298.4 230.8C298.4 230.9 298.3 230.9 298.3 230.9C298.3 230.9 298.2 231 298.1 231C298 231 297.9 231 297.9 231Z" fill="white"/>
<path d="M297.9 234.7H269.4C269.3 234.7 269.3 234.7 269.2 234.7C269.1 234.7 269.1 234.6 269 234.6L268.9 234.5C268.9 234.4 268.9 234.4 268.9 234.3C268.9 234.2 268.9 234.2 268.9 234.1C268.9 234 269 234 269 234C269 234 269.1 233.9 269.2 233.9C269.3 233.9 269.3 233.9 269.4 233.9H297.9C298 233.9 298 233.9 298.1 233.9C298.2 233.9 298.2 234 298.3 234L298.4 234.1C298.4 234.2 298.4 234.2 298.4 234.3C298.4 234.4 298.4 234.4 298.4 234.5C298.4 234.6 298.3 234.6 298.3 234.6C298.3 234.6 298.2 234.7 298.1 234.7C298 234.7 297.9 234.7 297.9 234.7Z" fill="white"/>
<path d="M312.4 241.1H303.5V250H312.4V241.1Z" fill="#009DD7"/>
<path d="M297.9 244.1H283.6C283.5 244.1 283.4 244 283.3 244C283.2 243.9 283.2 243.8 283.2 243.7C283.2 243.6 283.2 243.5 283.3 243.4C283.4 243.3 283.5 243.3 283.6 243.3H297.9C298 243.3 298 243.3 298.1 243.3C298.2 243.3 298.2 243.4 298.3 243.4L298.4 243.5C298.4 243.6 298.4 243.6 298.4 243.7C298.4 243.8 298.4 243.8 298.4 243.9C298.4 244 298.3 244 298.3 244C298.3 244 298.2 244.1 298.1 244.1C298 244.1 297.9 244.1 297.9 244.1Z" fill="white"/>
<path d="M297.9 247.8H269.4C269.3 247.8 269.3 247.8 269.2 247.8C269.1 247.8 269.1 247.7 269 247.7L268.9 247.6C268.9 247.5 268.9 247.5 268.9 247.4C268.9 247.3 268.9 247.3 268.9 247.2C268.9 247.1 269 247.1 269 247.1C269 247.1 269.1 247 269.2 247C269.3 247 269.3 247 269.4 247H297.9C298 247 298 247 298.1 247C298.2 247 298.2 247.1 298.3 247.1L298.4 247.2C298.4 247.3 298.4 247.3 298.4 247.4C298.4 247.5 298.4 247.5 298.4 247.6C298.4 247.7 298.3 247.7 298.3 247.7C298.3 247.7 298.2 247.8 298.1 247.8C298 247.8 297.9 247.8 297.9 247.8Z" fill="white"/>
<path d="M293.4 187.7V179.1L284.8 186.8L293.4 187.7Z" fill="#C2C2C2"/>
<path d="M566.5 244.7C571.9 250.1 580.7 250.1 586.1 244.7C591.5 239.3 591.5 230.5 586.1 225.1C580.7 219.7 571.9 219.7 566.5 225.1C561.1 230.5 561.1 239.3 566.5 244.7Z" fill="#C4C6C8"/>
</g>
<defs>
<filter id="filter0_d" x="-8" y="-20" width="660" height="510" filterUnits="userSpaceOnUse" color-interpolation-filters="sRGB">
<feFlood flood-opacity="0" result="BackgroundImageFix"/>
<feColorMatrix in="SourceAlpha" type="matrix" values="0 0 0 0 0 0 0 0 0 0 0 0 0 0 0 0 0 0 127 0" result="hardAlpha"/>
<feOffset dy="10"/>
<feGaussianBlur stdDeviation="15"/>
<feColorMatrix type="matrix" values="0 0 0 0 0 0 0 0 0 0 0 0 0 0 0 0 0 0 0.25 0"/>
<feBlend mode="normal" in2="BackgroundImageFix" result="effect1_dropShadow"/>
<feBlend mode="normal" in="SourceGraphic" in2="effect1_dropShadow" result="shape"/>
</filter>
<linearGradient id="paint0_linear" x1="443.62" y1="116.441" x2="614.422" y2="116.441" gradientUnits="userSpaceOnUse">
<stop stop-color="#42B4E7"/>
<stop offset="1" stop-color="#B1E2F8"/>
</linearGradient>
<linearGradient id="paint1_linear" x1="40.8162" y1="195.536" x2="93.0936" y2="247.814" gradientUnits="userSpaceOnUse">
<stop stop-color="#71439A"/>
<stop offset="0.8668" stop-color="#A76CAD"/>
</linearGradient>
<linearGradient id="paint2_linear" x1="548.475" y1="249.436" x2="602.236" y2="220.739" gradientUnits="userSpaceOnUse">
<stop stop-color="#71439A"/>
<stop offset="0.8668" stop-color="#A76CAD"/>
</linearGradient>
<linearGradient id="paint3_linear" x1="33.8618" y1="336.734" x2="199.835" y2="336.734" gradientUnits="userSpaceOnUse">
<stop stop-color="#42B4E7"/>
<stop offset="1" stop-color="#B1E2F8"/>
</linearGradient>
</defs>
</svg>
