<svg width="60" height="60" viewBox="0 0 60 60" fill="none" xmlns="http://www.w3.org/2000/svg">
<path d="M34.7726 0C31.0232 0 27.9545 3.06872 27.9545 6.81816C27.9545 9.41977 29.4408 11.6996 31.598 12.848L27.6136 25.9303C27.4992 25.9235 27.3882 25.9091 27.2727 25.9091C24.7724 25.9091 22.5333 27.0481 21.0298 28.8282L10.2485 20.3268C10.6701 19.5541 10.9091 18.6637 10.9091 17.7273C10.9091 14.731 8.45084 12.2728 5.45453 12.2728C2.45822 12.2728 0 14.731 0 17.7273C0 20.7237 2.45822 23.1819 5.45453 23.1819C6.51707 23.1819 7.51068 22.8622 8.35225 22.3296L19.6235 31.2145C19.2814 32.1142 19.0909 33.0747 19.0909 34.091C19.0909 35.8459 19.6549 37.4854 20.6037 38.8211L11.9318 47.4929C10.8557 46.7814 9.56091 46.3637 8.1818 46.3637C4.43242 46.3637 1.36363 49.4324 1.36363 53.1818C1.36363 56.9313 4.43242 60 8.1818 60C11.9312 60 15 56.9313 15 53.1818C15 51.7929 14.5702 50.5126 13.8494 49.4318L22.5426 40.7387C23.8835 41.6998 25.5052 42.2728 27.2727 42.2728C28.8084 42.2728 30.2392 41.8437 31.47 41.1009L36.7755 47.3651C35.9492 48.4108 35.4544 49.7093 35.4544 51.1364C35.4544 54.5093 38.2179 57.2727 41.5908 57.2727C44.9637 57.2727 47.7271 54.5093 47.7271 51.1364C47.7271 47.7635 44.9637 45 41.5908 45C40.6286 45 39.7191 45.2395 38.9061 45.6392L33.5582 39.3111C34.7387 37.8923 35.4544 36.0715 35.4544 34.091C35.4544 33.6689 35.4101 33.2605 35.3479 32.8552L51.5836 27.635C52.4618 28.6713 53.7746 29.3183 55.2271 29.3183C57.8469 29.3183 59.9998 27.1653 59.9998 24.5455C59.9998 21.9258 57.8469 19.7728 55.2271 19.7728C52.6074 19.7728 50.4544 21.9258 50.4544 24.5455C50.4544 24.7394 50.4742 24.9327 50.4967 25.1208L34.4953 30.2558C33.5844 28.5599 32.0788 27.2237 30.2765 26.5057L34.2183 13.6152C34.3994 13.6295 34.5876 13.6363 34.7723 13.6363C38.5217 13.6363 41.5905 10.5676 41.5905 6.81816C41.5905 3.06872 38.5217 0 34.7723 0H34.7726ZM34.7726 2.72727C37.0481 2.72727 38.8635 4.54267 38.8635 6.81816C38.8635 9.09366 37.0481 10.9091 34.7726 10.9091C32.4971 10.9091 30.6817 9.09366 30.6817 6.81816C30.6817 4.54267 32.4971 2.72727 34.7726 2.72727ZM5.45453 15C6.97689 15 8.1818 16.2049 8.1818 17.7272C8.1818 19.2496 6.97689 20.4545 5.45453 20.4545C3.93217 20.4545 2.72727 19.2496 2.72727 17.7272C2.72727 16.2049 3.93217 15 5.45453 15ZM55.2271 22.4999C56.3729 22.4999 57.2726 23.3996 57.2726 24.5454C57.2726 25.6912 56.3729 26.5908 55.2271 26.5908C54.0813 26.5908 53.1817 25.6912 53.1817 24.5454C53.1817 23.3996 54.0813 22.4999 55.2271 22.4999ZM27.2727 28.6363C30.3012 28.6363 32.7272 31.0622 32.7272 34.0909C32.7272 37.1195 30.3012 39.5454 27.2727 39.5454C24.2441 39.5454 21.8181 37.1195 21.8181 34.0909C21.8181 31.0622 24.2441 28.6363 27.2727 28.6363ZM41.5908 47.7271C43.4897 47.7271 44.9999 49.2373 44.9999 51.1362C44.9999 53.0351 43.4897 54.5453 41.5908 54.5453C39.6919 54.5453 38.1817 53.0351 38.1817 51.1362C38.1817 49.2373 39.6919 47.7271 41.5908 47.7271ZM8.1818 49.0908C10.4572 49.0908 12.2727 50.9062 12.2727 53.1817C12.2727 55.4571 10.4572 57.2726 8.1818 57.2726C5.90637 57.2726 4.0909 55.4571 4.0909 53.1817C4.0909 50.9062 5.90637 49.0908 8.1818 49.0908Z" fill="url(#paint0_linear)"/>
<defs>
<linearGradient id="paint0_linear" x1="26.3999" y1="59.76" x2="32.8199" y2="-1.86" gradientUnits="userSpaceOnUse">
<stop stop-color="#75DAFF"/>
<stop offset="1" stop-color="#00BAFF"/>
</linearGradient>
</defs>
</svg>
