<svg width="65" height="65" viewBox="0 0 65 65" fill="none" xmlns="http://www.w3.org/2000/svg">
<path d="M10.9004 23.3L22.5004 32.3" stroke="#00B9F2" stroke-width="2" stroke-miterlimit="10" stroke-linecap="round" stroke-linejoin="round"/>
<path d="M23.4 42.6L14 52.2" stroke="#00B9F2" stroke-width="2" stroke-miterlimit="10" stroke-linecap="round" stroke-linejoin="round"/>
<path d="M41.2002 50L34.7002 42.4" stroke="#00B9F2" stroke-width="2" stroke-miterlimit="10" stroke-linecap="round" stroke-linejoin="round"/>
<path d="M35.7004 14.7L31.4004 28.7" stroke="#00B9F2" stroke-width="2" stroke-miterlimit="10" stroke-linecap="round" stroke-linejoin="round"/>
<path d="M54.7008 28.5L37.3008 34.2" stroke="#00B9F2" stroke-width="2" stroke-miterlimit="10" stroke-linecap="round" stroke-linejoin="round"/>
<path d="M29.6004 44C33.5768 44 36.8004 40.7764 36.8004 36.8C36.8004 32.8235 33.5768 29.6 29.6004 29.6C25.6239 29.6 22.4004 32.8235 22.4004 36.8C22.4004 40.7764 25.6239 44 29.6004 44Z" stroke="#00B9F2" stroke-width="2" stroke-miterlimit="10" stroke-linecap="round" stroke-linejoin="round"/>
<path d="M7.00039 24.4C9.5409 24.4 11.6004 22.3405 11.6004 19.8C11.6004 17.2594 9.5409 15.2 7.00039 15.2C4.45988 15.2 2.40039 17.2594 2.40039 19.8C2.40039 22.3405 4.45988 24.4 7.00039 24.4Z" stroke="#00B9F2" stroke-width="2" stroke-miterlimit="10" stroke-linecap="round" stroke-linejoin="round"/>
<path d="M44.6 59.6C47.4167 59.6 49.7 57.3167 49.7 54.5C49.7 51.6834 47.4167 49.4 44.6 49.4C41.7833 49.4 39.5 51.6834 39.5 54.5C39.5 57.3167 41.7833 59.6 44.6 59.6Z" stroke="#00B9F2" stroke-width="2" stroke-miterlimit="10" stroke-linecap="round" stroke-linejoin="round"/>
<path d="M37.6002 14.3C40.8587 14.3 43.5002 11.6585 43.5002 8.4C43.5002 5.14152 40.8587 2.5 37.6002 2.5C34.3417 2.5 31.7002 5.14152 31.7002 8.4C31.7002 11.6585 34.3417 14.3 37.6002 14.3Z" stroke="#00B9F2" stroke-width="2" stroke-miterlimit="10" stroke-linecap="round" stroke-linejoin="round"/>
<path d="M10.0006 62.5C13.2591 62.5 15.9006 59.8584 15.9006 56.5999C15.9006 53.3415 13.2591 50.7 10.0006 50.7C6.74211 50.7 4.10059 53.3415 4.10059 56.5999C4.10059 59.8584 6.74211 62.5 10.0006 62.5Z" stroke="#00B9F2" stroke-width="2" stroke-miterlimit="10" stroke-linecap="round" stroke-linejoin="round"/>
<path d="M58.8 30.6C60.8987 30.6 62.6 28.8987 62.6 26.8C62.6 24.7013 60.8987 23 58.8 23C56.7013 23 55 24.7013 55 26.8C55 28.8987 56.7013 30.6 58.8 30.6Z" stroke="#00B9F2" stroke-width="2" stroke-miterlimit="10" stroke-linecap="round" stroke-linejoin="round"/>
</svg>
