<svg width="65" height="65" viewBox="0 0 65 65" fill="none" xmlns="http://www.w3.org/2000/svg">
<path d="M42.8004 39.4C45.5066 39.4 47.7004 37.2062 47.7004 34.5C47.7004 31.7938 45.5066 29.6 42.8004 29.6C40.0942 29.6 37.9004 31.7938 37.9004 34.5C37.9004 37.2062 40.0942 39.4 42.8004 39.4Z" stroke="#00B9F2" stroke-width="2" stroke-miterlimit="10" stroke-linecap="round" stroke-linejoin="round"/>
<path d="M42.7004 56.0999L47.7004 49.2999C56.1004 50.0999 62.0004 52.8999 62.0004 56.0999C62.0004 59.8999 53.3004 63.0999 42.7004 63.0999C32.1004 63.0999 23.4004 59.8999 23.4004 56.0999C23.4004 52.9999 29.2004 50.1999 37.6004 49.2999L42.7004 56.0999Z" stroke="#00B9F2" stroke-width="2" stroke-miterlimit="10" stroke-linecap="round" stroke-linejoin="round"/>
<path d="M3.10059 19.1L15.1006 15.2L27.5006 19.1L39.9006 19L51.5006 15" stroke="#00B9F2" stroke-width="2" stroke-miterlimit="10" stroke-linecap="round" stroke-linejoin="round"/>
<path d="M2.90039 31.3L15.1004 27.1L27.0004 31.2L32.0004 31.3" stroke="#00B9F2" stroke-width="2" stroke-miterlimit="10" stroke-linecap="round" stroke-linejoin="round"/>
<path d="M15.2002 3.69995V40.5999" stroke="#00B9F2" stroke-width="2" stroke-miterlimit="10" stroke-linecap="round" stroke-linejoin="round"/>
<path d="M27.3008 7L27.5008 40" stroke="#00B9F2" stroke-width="2" stroke-miterlimit="10" stroke-linecap="round" stroke-linejoin="round"/>
<path d="M39.6006 6.19995L39.8006 24.2999" stroke="#00B9F2" stroke-width="2" stroke-miterlimit="10" stroke-linecap="round" stroke-linejoin="round"/>
<path d="M33.4004 42.2999L23.2004 38.2999L2.90039 44.5V7.69995L15.2004 3.69995L31.4004 7.89995L51.6004 3.69995L51.7004 27.7999" stroke="#00B9F2" stroke-width="2" stroke-miterlimit="10" stroke-linecap="round" stroke-linejoin="round"/>
<path d="M42.5005 56.5999C42.5005 56.5999 33.8005 43.6999 32.1005 38.5999C30.4005 33.4999 32.8005 24.4 42.4005 24.2C42.4005 24.2 49.6005 24.3 52.8005 30.4C56.0005 36.4999 51.0005 43.6 50.1005 45C49.3005 46.4 42.5005 56.5999 42.5005 56.5999Z" stroke="#00B9F2" stroke-width="2" stroke-miterlimit="10" stroke-linecap="round" stroke-linejoin="round"/>
</svg>
