<svg width="60" height="60" viewBox="0 0 60 60" fill="none" xmlns="http://www.w3.org/2000/svg">
<g clip-path="url(#clip0)">
<path d="M46.857 44.4644C49.5 40.0474 52 35.0564 52 32.0004C52.0015 29.645 51.3056 27.3418 50 25.3814V1.00036C50 0.852053 49.9671 0.7056 49.9035 0.571604C49.84 0.437609 49.7474 0.319428 49.6325 0.225621C49.5177 0.131814 49.3834 0.0647295 49.2394 0.0292279C49.0954 -0.00627365 48.9453 -0.0093039 48.8 0.0203568L29.024 3.97536L13.242 0.0303568C13.0578 -0.0163301 12.8641 -0.00903997 12.684 0.051357L0.684 4.05136C0.484794 4.11771 0.311526 4.24507 0.188758 4.41541C0.0659893 4.58574 -5.05306e-05 4.79039 2.90094e-08 5.00036V41.0004C-1.07911e-05 41.1562 0.036414 41.3099 0.106367 41.4492C0.17632 41.5885 0.277865 41.7095 0.402896 41.8026C0.527927 41.8957 0.672983 41.9582 0.826486 41.9853C0.97999 42.0123 1.13769 42.0031 1.287 41.9584L20.965 36.0584L30.472 39.6254C31.272 41.2374 32.199 42.8884 33.143 44.4674C25.106 45.5704 20 48.4614 20 52.0004C20 57.2004 30.305 60.0004 40 60.0004C49.695 60.0004 60 57.2004 60 52.0004C60 48.4614 54.894 45.5704 46.857 44.4644ZM12 36.6564L2 39.6564V28.7214L12 25.3884V36.6564ZM12 23.2794L2 26.6124V16.7214L12 13.3884V23.2794ZM12 11.2794L2 14.6124V5.72136L12 2.38736V11.2794ZM38 4.22036L48 2.22036V11.2794L38 14.6134V4.22036ZM38 16.7204L48 13.3874V23.0804C46.667 21.8628 45.0718 20.9681 43.3379 20.4652C41.6039 19.9624 39.7776 19.8649 38 20.1804V16.7204ZM26 5.28136L28.758 5.97036C28.9014 6.00667 29.0511 6.01008 29.196 5.98036L36 4.62036V15.0004H26V5.28136ZM26 17.0004H36V20.7004C34.4893 21.2388 33.1013 22.0734 31.9173 23.1552C30.7333 24.237 29.7772 25.5442 29.105 27.0004H26V17.0004ZM24 35.0574L21.352 34.0634C21.1469 33.9871 20.9226 33.9797 20.713 34.0424L14 36.0564V25.3884L24 28.7214V35.0574ZM24 26.6134L14 23.2794V13.3884L24 16.7214V26.6134ZM24 14.6134L14 11.2794V2.27936L24 4.77936V14.6134ZM26 35.8134V29.0004H28.4C28.1399 29.9793 28.0055 30.9874 28 32.0004C28.1196 33.7466 28.5582 35.4562 29.294 37.0444L26 35.8134ZM30 32.0004C30 29.3482 31.0536 26.8047 32.9289 24.9293C34.8043 23.0539 37.3478 22.0004 40 22.0004C42.6522 22.0004 45.1957 23.0539 47.0711 24.9293C48.9464 26.8047 50 29.3482 50 32.0004C50 36.3364 43.4 46.5184 40 51.2934C36.6 46.5194 30 36.3384 30 32.0004ZM40 58.0004C29.393 58.0004 22 54.8384 22 52.0004C22 49.9254 26.309 47.2814 34.29 46.3394C36.728 50.2304 38.99 53.3164 39.195 53.5934C39.2879 53.7195 39.4092 53.822 39.549 53.8926C39.6889 53.9633 39.8433 54.0001 40 54.0001C40.1567 54.0001 40.3111 53.9633 40.451 53.8926C40.5908 53.822 40.7121 53.7195 40.805 53.5934C41.005 53.3164 43.272 50.2304 45.71 46.3394C53.691 47.2814 58 49.9254 58 52.0004C58 54.8384 50.607 58.0004 40 58.0004Z" fill="url(#paint0_linear)"/>
<path d="M46 31.0004C46 29.8137 45.6481 28.6536 44.9888 27.6669C44.3295 26.6803 43.3925 25.9112 42.2961 25.4571C41.1997 25.003 39.9933 24.8841 38.8295 25.1157C37.6656 25.3472 36.5965 25.9186 35.7574 26.7577C34.9182 27.5968 34.3468 28.6659 34.1153 29.8298C33.8838 30.9937 34.0026 32.2001 34.4567 33.2965C34.9109 34.3928 35.6799 35.3299 36.6666 35.9892C37.6533 36.6485 38.8133 37.0004 40 37.0004C41.5908 36.9988 43.116 36.3661 44.2409 35.2413C45.3658 34.1164 45.9984 32.5912 46 31.0004ZM36 31.0004C36 30.2092 36.2346 29.4359 36.6741 28.7781C37.1137 28.1203 37.7384 27.6076 38.4693 27.3049C39.2002 27.0021 40.0044 26.9229 40.7804 27.0772C41.5563 27.2316 42.269 27.6125 42.8284 28.1719C43.3878 28.7314 43.7688 29.4441 43.9231 30.22C44.0775 30.9959 43.9983 31.8002 43.6955 32.5311C43.3928 33.262 42.8801 33.8867 42.2223 34.3262C41.5645 34.7658 40.7911 35.0004 40 35.0004C38.9391 35.0004 37.9217 34.5789 37.1716 33.8288C36.4214 33.0786 36 32.0612 36 31.0004Z" fill="url(#paint1_linear)"/>
</g>
<defs>
<linearGradient id="paint0_linear" x1="26.4" y1="59.7604" x2="32.8201" y2="-1.86" gradientUnits="userSpaceOnUse">
<stop stop-color="#75DAFF"/>
<stop offset="1" stop-color="#00BAFF"/>
</linearGradient>
<linearGradient id="paint1_linear" x1="39.28" y1="36.9524" x2="40.564" y2="24.6284" gradientUnits="userSpaceOnUse">
<stop stop-color="#75DAFF"/>
<stop offset="1" stop-color="#00BAFF"/>
</linearGradient>
<clipPath id="clip0">
<rect width="60" height="60" fill="white"/>
</clipPath>
</defs>
</svg>
