<svg width="60" height="60" viewBox="0 0 60 60" fill="none" xmlns="http://www.w3.org/2000/svg">
<path d="M60 4.01016C60 1.7988 58.2006 0 55.9886 0H4.01072C1.79945 0 0 1.7988 0 4.01016V55.9886C0 58.2 1.79945 60 4.01072 60H55.9886C58.2006 60 60 58.2 60 55.9886V4.01016ZM4.01072 2.40001H55.9886C56.877 2.40001 57.6 3.12183 57.6 4.01016V14.7H2.40001V4.01016C2.40001 3.12183 3.12249 2.40001 4.01072 2.40001ZM55.9886 57.6H4.01072C3.12249 57.6 2.40001 56.877 2.40001 55.9886V17.1H57.6V55.9886C57.6 56.877 56.877 57.6 55.9886 57.6Z" fill="url(#paint0_linear)"/>
<path d="M8.66253 10.8373C9.32526 10.8373 9.86253 10.3006 9.86253 9.6373V7.46233C9.86253 6.79905 9.32526 6.26233 8.66253 6.26233C7.99989 6.26233 7.46252 6.79905 7.46252 7.46233V9.6373C7.46252 10.3006 7.99989 10.8373 8.66253 10.8373Z" fill="url(#paint1_linear)"/>
<path d="M13.6873 10.8373C14.3499 10.8373 14.8873 10.3006 14.8873 9.6373V7.46233C14.8873 6.79905 14.3499 6.26233 13.6873 6.26233C13.0246 6.26233 12.4873 6.79905 12.4873 7.46233V9.6373C12.4873 10.3006 13.0246 10.8373 13.6873 10.8373Z" fill="url(#paint2_linear)"/>
<path d="M18.7123 10.8373C19.3751 10.8373 19.9123 10.3006 19.9123 9.6373V7.46233C19.9123 6.79905 19.3751 6.26233 18.7123 6.26233C18.0497 6.26233 17.5123 6.79905 17.5123 7.46233V9.6373C17.5123 10.3006 18.0497 10.8373 18.7123 10.8373Z" fill="url(#paint3_linear)"/>
<path d="M27.4124 9.74986H51.3375C52.0001 9.74986 52.5375 9.21314 52.5375 8.54986C52.5375 7.88657 52.0001 7.34985 51.3375 7.34985H27.4124C26.7498 7.34985 26.2124 7.88657 26.2124 8.54986C26.2124 9.21314 26.7498 9.74986 27.4124 9.74986Z" fill="url(#paint4_linear)"/>
<path d="M49.6375 22.6439H10.3615C9.69887 22.6439 9.1615 23.1806 9.1615 23.8439V32.9998C9.1615 33.6631 9.69887 34.1998 10.3615 34.1998H17.7491C17.6714 34.6645 17.6213 35.1384 17.6213 35.6248C17.6213 40.3803 21.4902 44.2499 26.2463 44.2499C28.1925 44.2499 29.9839 43.5943 31.4287 42.5029L37.7231 48.7978C37.9574 49.0322 38.2644 49.1494 38.5715 49.1494C38.8785 49.1494 39.1855 49.0322 39.4199 48.7978C39.8887 48.3291 39.8887 47.5697 39.4199 47.101L33.1253 40.8058C34.216 39.3611 34.8713 37.5702 34.8713 35.6248C34.8713 35.1384 34.8211 34.6645 34.7434 34.1998H49.6375C50.3002 34.1998 50.8375 33.6631 50.8375 32.9998V23.8439C50.8375 23.1806 50.3002 22.6439 49.6375 22.6439ZM20.0213 35.6248C20.0213 32.1924 22.8138 29.3998 26.2463 29.3998C29.6787 29.3998 32.4713 32.1924 32.4713 35.6248C32.4713 39.0572 29.6787 41.8498 26.2463 41.8498C22.8138 41.8498 20.0213 39.0572 20.0213 35.6248ZM48.4375 31.7998H33.9652C32.5522 28.9604 29.6275 26.9998 26.2463 26.9998C22.865 26.9998 19.9405 28.9604 18.5275 31.7998H11.5615V25.0439H48.4375V31.7998Z" fill="url(#paint5_linear)"/>
<defs>
<linearGradient id="paint0_linear" x1="26.4" y1="59.76" x2="32.82" y2="-1.86" gradientUnits="userSpaceOnUse">
<stop stop-color="#75DAFF"/>
<stop offset="1" stop-color="#00BAFF"/>
</linearGradient>
<linearGradient id="paint1_linear" x1="8.51853" y1="10.819" x2="9.42601" y2="6.24973" gradientUnits="userSpaceOnUse">
<stop stop-color="#75DAFF"/>
<stop offset="1" stop-color="#00BAFF"/>
</linearGradient>
<linearGradient id="paint2_linear" x1="13.5433" y1="10.819" x2="14.4508" y2="6.24973" gradientUnits="userSpaceOnUse">
<stop stop-color="#75DAFF"/>
<stop offset="1" stop-color="#00BAFF"/>
</linearGradient>
<linearGradient id="paint3_linear" x1="18.5683" y1="10.819" x2="19.4758" y2="6.24973" gradientUnits="userSpaceOnUse">
<stop stop-color="#75DAFF"/>
<stop offset="1" stop-color="#00BAFF"/>
</linearGradient>
<linearGradient id="paint4_linear" x1="37.7954" y1="9.74026" x2="37.8191" y2="7.24892" gradientUnits="userSpaceOnUse">
<stop stop-color="#75DAFF"/>
<stop offset="1" stop-color="#00BAFF"/>
</linearGradient>
<linearGradient id="paint5_linear" x1="27.4989" y1="49.0434" x2="29.3143" y2="21.6471" gradientUnits="userSpaceOnUse">
<stop stop-color="#75DAFF"/>
<stop offset="1" stop-color="#00BAFF"/>
</linearGradient>
</defs>
</svg>
