<svg width="690" height="453" viewBox="0 0 690 453" fill="none" xmlns="http://www.w3.org/2000/svg">
<g filter="url(#filter0_d)">
<path d="M25.1001 180.5V170.5L33.3001 174V181.1L25.1001 180.5Z" fill="#E6E7E8"/>
<path d="M316.1 199.3L176 280.2C173.4 281.7 170.6 282.5 167.6 282.5C164.7 282.5 161.8 281.7 159.2 280.3L55.1001 220.1L141.5 170.2C144.2 168.6 147.3 167.8 150.5 167.8C153.7 167.8 156.7 168.7 159.5 170.3C162 171.8 164.8 172.5 167.7 172.6C170.6 172.7 173.4 171.9 175.9 170.4L228.5 140L316.2 190.6C317 191 317.6 191.7 318 192.4C318.4 193.2 318.7 194 318.7 194.9C318.7 195.8 318.5 196.6 318 197.4C317.5 198.2 316.9 198.8 316.1 199.3Z" fill="#9D9FA2"/>
<path d="M27.4001 183.6L159.2 259.7C161.8 261.2 164.6 261.9 167.6 261.9C170.5 261.9 173.4 261.1 176 259.7L316.1 178.8C316.9 178.4 317.5 177.7 317.9 177C318.3 176.2 318.6 175.4 318.6 174.5C318.6 173.6 318.4 172.8 317.9 172C317.5 171.2 316.8 170.6 316.1 170.2L185.2 94.6C182.5 93 179.4 92.2 176.3 92.2C173.2 92.2 170.1 93 167.4 94.6L27.4001 175.4C26.7001 175.8 26.1001 176.4 25.7001 177.1C25.3001 177.8 25.1001 178.6 25.1001 179.5C25.1001 180.3 25.3001 181.1 25.7001 181.9C26.0001 182.6 26.6001 183.2 27.4001 183.6Z" fill="#E6E7E8"/>
<path d="M27.4 173.7L159.2 249.8C161.8 251.3 164.6 252 167.6 252C170.5 252 173.4 251.2 176 249.8L316.1 168.9C316.9 168.5 317.5 167.8 317.9 167.1C318.3 166.3 318.6 165.5 318.6 164.6C318.6 163.7 318.4 162.9 317.9 162.1C317.5 161.3 316.8 160.7 316.1 160.3L185.2 84.7C182.5 83.1 179.4 82.3 176.3 82.3C173.2 82.3 170.1 83.1 167.4 84.7L27.4 165.5C26.7 165.9 26.1 166.5 25.7 167.2C25.3 167.9 25 168.8 25 169.6C25 170.4 25.2 171.2 25.6 172C26 172.7 26.6 173.3 27.4 173.7Z" fill="white"/>
<path d="M583.2 264.8L583 264.9L461.9 334.8L452.1 329.1C451.4 328.7 450.8 328.1 450.3 327.3C449.9 326.6 449.7 325.7 449.7 324.9C449.7 324.1 449.9 323.2 450.3 322.5C450.7 321.8 451.3 321.2 452.1 320.7L515.2 284.2C516 283.8 516.6 283.1 517.1 282.3C517.5 281.5 517.8 280.7 517.8 279.8C517.8 278.9 517.6 278 517.1 277.3C516.6 276.6 516 275.9 515.2 275.4L451.8 239C451.1 238.6 450.5 238 450.1 237.3C449.7 236.6 449.5 235.8 449.5 235C449.5 234.2 449.7 233.4 450.1 232.7C450.5 232 451.1 231.4 451.8 231L478.8 215.4C481.4 213.9 484.2 213.1 487.2 212.9C490.1 212.7 493.1 213.3 495.8 214.4C496.5 214.7 497.1 215 497.7 215.4L583.2 264.8Z" fill="#9D9FA2"/>
<path d="M427.3 354.9L340.6 404.9L305.3 384.5C304.5 384 303.9 383.4 303.4 382.6C303 381.8 302.7 380.9 302.7 380C302.7 379.1 302.9 378.2 303.4 377.4C303.9 376.6 304.5 376 305.3 375.5L324.3 364.5C326.7 363.1 329.5 362.4 332.3 362.4C335.1 362.4 337.9 363.1 340.3 364.5C343.1 366.1 346.3 367 349.6 367C352.9 367 356.1 366.1 358.9 364.5L392.4 345.2C395.2 343.6 398.4 342.7 401.6 342.7C404.8 342.7 408 343.6 410.8 345.2L427.3 354.9Z" fill="#9D9FA2"/>
<path d="M451.8 218.5L515.3 255.2C516.1 255.6 516.7 256.3 517.2 257.1C517.6 257.9 517.9 258.7 517.9 259.6C517.9 260.5 517.7 261.4 517.2 262.1C516.8 262.9 516.1 263.5 515.3 264L452.2 300.5C451.5 300.9 450.9 301.5 450.4 302.3C450 303 449.8 303.9 449.8 304.7C449.8 305.5 450 306.4 450.4 307.1C450.8 307.8 451.4 308.4 452.2 308.9L497 334.8C499.6 336.3 502.6 337.1 505.6 337.1C508.6 337.1 511.6 336.3 514.2 334.8L618.6 274.5C619.4 274 620.1 273.3 620.6 272.5C621.1 271.7 621.3 270.7 621.3 269.7C621.3 268.7 621 267.8 620.6 266.9C620.1 266.1 619.4 265.4 618.6 264.9L497.7 195.1C494.8 193.4 491.6 192.6 488.3 192.6C485 192.6 481.7 193.5 478.9 195.1L451.9 210.7C451.2 211.1 450.6 211.7 450.2 212.4C449.8 213.1 449.6 213.9 449.6 214.7C449.6 215.5 449.8 216.3 450.2 217C450.5 217.5 451.1 218.1 451.8 218.5Z" fill="#E6E7E8"/>
<path d="M449.7 304.6V294.6L452.5 294.9L455.3 300.1L449.7 304.6Z" fill="#E6E7E8"/>
<path d="M449.5 214.6V204.6L452.1 205L455.2 209.9L449.5 214.6Z" fill="#E6E7E8"/>
<path d="M621.3 269.6V259.6L615.7 258.9L616.7 268.8L621.3 269.6Z" fill="#E6E7E8"/>
<path d="M410.8 324.9L472.4 360.5C473.1 360.9 473.7 361.5 474.2 362.3C474.6 363 474.8 363.9 474.8 364.7C474.8 365.5 474.6 366.4 474.2 367.1C473.8 367.8 473.2 368.4 472.4 368.9L401.4 409.9C398.8 411.4 395.9 412.2 392.9 412.2C389.9 412.2 387 411.4 384.4 409.9L305.3 364C304.5 363.6 303.9 362.9 303.4 362.1C303 361.3 302.7 360.4 302.7 359.5C302.7 358.6 302.9 357.7 303.4 356.9C303.8 356.1 304.5 355.5 305.3 355L324.3 344C326.7 342.6 329.5 341.9 332.3 341.9C335.1 341.9 337.9 342.6 340.3 344C343.1 345.6 346.3 346.5 349.6 346.5C352.9 346.5 356.1 345.6 358.9 344L392.4 324.7C395.2 323.1 398.4 322.2 401.6 322.2C404.8 322.4 408 323.3 410.8 324.9Z" fill="#E6E7E8"/>
<path d="M302.7 359.6V349.6L310.9 353.1V360.2L302.7 359.6Z" fill="#E6E7E8"/>
<path d="M474.8 364.7V354.8L468.1 354.9L469.9 365L474.8 364.7Z" fill="#E6E7E8"/>
<path d="M462.4 256.6V246.7L455.7 246.8L457.5 256.9L462.4 256.6Z" fill="#939598"/>
<path d="M451.8 208.6L515.3 245.3C516.1 245.7 516.7 246.4 517.2 247.2C517.7 248 517.9 248.8 517.9 249.7C517.9 250.6 517.7 251.5 517.2 252.2C516.8 253 516.1 253.6 515.3 254.1L452.2 290.6C451.5 291 450.9 291.6 450.4 292.4C450 293.1 449.8 294 449.8 294.8C449.8 295.6 450 296.5 450.4 297.2C450.8 297.9 451.4 298.5 452.2 299L497 324.9C499.6 326.4 502.6 327.2 505.6 327.2C508.6 327.2 511.6 326.4 514.2 324.9L618.6 264.6C619.4 264.1 620.1 263.4 620.6 262.6C621.1 261.8 621.3 260.8 621.3 259.8C621.3 258.8 621 257.9 620.6 257C620.1 256.2 619.4 255.5 618.6 255L497.7 185C494.8 183.3 491.6 182.5 488.3 182.5C485 182.5 481.7 183.4 478.9 185L451.9 200.6C451.2 201 450.6 201.6 450.2 202.3C449.8 203 449.6 203.8 449.6 204.6C449.6 205.4 449.8 206.2 450.2 206.9C450.5 207.6 451.1 208.2 451.8 208.6Z" fill="white"/>
<path d="M410.8 315L472.4 350.6C473.1 351 473.7 351.6 474.2 352.4C474.6 353.1 474.8 354 474.8 354.8C474.8 355.6 474.6 356.5 474.2 357.2C473.8 357.9 473.2 358.5 472.4 359L401.4 400C398.8 401.5 395.9 402.3 392.9 402.3C389.9 402.3 387 401.5 384.4 400L305.3 354.3C304.5 353.9 303.9 353.2 303.4 352.4C303 351.6 302.7 350.7 302.7 349.8C302.7 348.9 302.9 348 303.4 347.2C303.8 346.4 304.5 345.8 305.3 345.3L324.3 334.3C326.7 332.9 329.5 332.2 332.3 332.2C335.1 332.2 337.9 332.9 340.3 334.3C343.1 335.9 346.3 336.8 349.6 336.8C352.9 336.8 356.1 335.9 358.9 334.3L392.4 315C395.2 313.4 398.4 312.5 401.6 312.5C404.8 312.5 408 313.4 410.8 315Z" fill="white"/>
<path d="M488.3 209.3C490.6 210.5 493.2 211.1 495.8 211.1C498.4 211.1 501 210.5 503.3 209.3C507.4 206.9 507.4 203 503.3 200.6C501 199.4 498.4 198.8 495.8 198.8C493.2 198.8 490.6 199.4 488.3 200.6C484.2 203 484.2 206.9 488.3 209.3Z" fill="#B7BAD2"/>
<path d="M488.3 206C490.6 207.2 493.2 207.8 495.8 207.8C498.4 207.8 501 207.2 503.3 206C507.4 203.6 507.4 199.7 503.3 197.3C501 196.1 498.4 195.5 495.8 195.5C493.2 195.5 490.6 196.1 488.3 197.3C484.2 199.7 484.2 203.6 488.3 206Z" fill="#EFEFF4"/>
<path d="M488.3 204.7C490.6 205.9 493.2 206.5 495.8 206.5C498.4 206.5 501 205.9 503.3 204.7C507.4 202.3 507.4 198.4 503.3 196C501 194.8 498.4 194.2 495.8 194.2C493.2 194.2 490.6 194.8 488.3 196C484.2 198.4 484.2 202.3 488.3 204.7Z" fill="#DCDDEB"/>
<path d="M488.3 203.4C490.6 204.6 493.2 205.2 495.8 205.2C498.4 205.2 501 204.6 503.3 203.4C507.4 201 507.4 197.1 503.3 194.7C501 193.5 498.4 192.9 495.8 192.9C493.2 192.9 490.6 193.5 488.3 194.7C484.2 197.1 484.2 201 488.3 203.4Z" fill="#EFEFF4"/>
<path d="M487.7 199.9C487.8 200.2 487.9 200.5 488.1 200.8C488.6 201.5 489.2 202 490 202.4C491.8 203.3 493.8 203.8 495.9 203.8C497.9 203.8 500 203.3 501.8 202.4C502.5 202 503.2 201.4 503.7 200.8C503.9 200.5 504 200.2 504.1 199.9C504.6 198.4 503.8 196.8 501.8 195.6C500 194.7 498 194.2 495.9 194.2C493.9 194.2 491.8 194.7 490 195.6C487.9 196.8 487.2 198.4 487.7 199.9Z" fill="#00BAFF"/>
<path d="M534.8 212.5L500.1 232.5V217.5L534.8 197.8V212.5Z" fill="#00BAFF"/>
<path d="M495.8 215.1V230L500.1 232.5V217.5L534.8 197.8L530.2 195.2L495.8 215.1Z" fill="#009DD7"/>
<path d="M517.4 220.7L529.1 213.9C529.6 213.5 530.1 213 530.4 212.4C530.7 211.8 530.9 211.2 530.9 210.5V205C530.9 203.7 530.1 203.1 529.1 203.7L517.4 210.5C516.9 210.9 516.4 211.4 516.1 212C515.8 212.6 515.6 213.2 515.6 213.9V219.4C515.6 220.7 516.4 221.3 517.4 220.7Z" fill="white"/>
<path d="M512.6 223.5L513 223.3V213.2L512.6 213.4V223.5Z" fill="white"/>
<path d="M510.3 224.8L510.7 224.6V214.5L510.3 214.7V224.8Z" fill="white"/>
<path d="M508 226.2L508.4 226V215.9L508 216V226.2Z" fill="white"/>
<path d="M505.3 227.7L505.7 227.5V217.4L505.3 217.6V227.7Z" fill="white"/>
<path d="M513.3 219.5L512.3 220.1V220.8L512.5 221L512.3 221.5V222.1L513.3 221.5V220.9L513 220.7L513.3 220.2V219.5Z" fill="#B7BAD2"/>
<path d="M511 216.4L510 217V217.7L510.2 217.9L510 218.4V219L511 218.4V217.8L510.7 217.6L511 217.1V216.4Z" fill="#B7BAD2"/>
<path d="M508.7 216.8L507.7 217.4V218.1L507.9 218.3L507.7 218.8V219.4L508.7 218.8V218.2L508.4 218L508.7 217.5V216.8Z" fill="#B7BAD2"/>
<path d="M506 221.5L505 222.1V222.8L505.2 223L505 223.5V224.1L506 223.5V222.9L505.7 222.7L506 222.2V221.5Z" fill="#B7BAD2"/>
<path d="M523.2 212.5C523.2 214.1 524.3 214.8 525.7 214C526.4 213.5 527.1 212.9 527.5 212.1C527.9 211.3 528.2 210.5 528.2 209.6C528.2 208 527.1 207.3 525.7 208.1C525 208.6 524.3 209.2 523.9 210C523.5 210.8 523.3 211.6 523.2 212.5Z" fill="#00BAFF"/>
<path d="M524.1 212C524.1 213 524.8 213.5 525.7 212.9C526.2 212.6 526.6 212.2 526.8 211.7C527.1 211.2 527.2 210.7 527.3 210.1C527.3 209.1 526.6 208.6 525.7 209.2C525.2 209.5 524.8 209.9 524.5 210.4C524.3 210.9 524.2 211.4 524.1 212Z" fill="white"/>
<path d="M517.3 214.1L521.2 211.8C521.3 211.7 521.4 211.6 521.5 211.5C521.6 211.4 521.6 211.3 521.6 211.1C521.6 210.9 521.4 210.8 521.2 210.9L517.3 213.2C517.2 213.3 517.1 213.4 517 213.5C516.9 213.6 516.9 213.7 516.9 213.9C516.9 214.1 517.1 214.2 517.3 214.1Z" fill="#B7BAD2"/>
<path d="M517.3 215.5L521.2 213.2C521.3 213.1 521.4 213 521.5 212.9C521.6 212.8 521.6 212.7 521.6 212.5C521.6 212.3 521.4 212.2 521.2 212.3L517.3 214.6C517.2 214.7 517.1 214.8 517 214.9C516.9 215 516.9 215.1 516.9 215.3C516.9 215.5 517.1 215.6 517.3 215.5Z" fill="#B7BAD2"/>
<path d="M517.3 216.8L521.2 214.5C521.3 214.4 521.4 214.3 521.5 214.2C521.6 214.1 521.6 214 521.6 213.8C521.6 213.6 521.4 213.5 521.2 213.6L517.3 215.9C517.2 216 517.1 216.1 517 216.2C516.9 216.3 516.9 216.4 516.9 216.6C516.9 216.8 517.1 216.9 517.3 216.8Z" fill="#B7BAD2"/>
<path d="M517.3 218.1L521.2 215.8C521.3 215.7 521.4 215.6 521.5 215.5C521.6 215.4 521.6 215.3 521.6 215.1C521.6 214.9 521.4 214.8 521.2 214.9L517.3 217.2C517.2 217.3 517.1 217.4 517 217.5C516.9 217.6 516.9 217.7 516.9 217.9C516.9 218.2 517.1 218.3 517.3 218.1Z" fill="#B7BAD2"/>
<path d="M480.6 215.8L495.8 224.9V221.8L483.2 214.3L483.1 214.2V214.1V214L483.2 213.9L489.4 210.3C489.7 210.2 489.8 209.9 490 209.7C490.1 209.4 490.1 209.1 490.1 208.9C490 208.6 489.9 208.4 489.6 208.2C489.4 208 489.1 207.9 488.8 207.9C488.6 207.9 488.3 208 488.1 208.1L480.7 212.4C480.4 212.6 480.1 212.8 480 213.1C479.8 213.4 479.7 213.7 479.7 214C479.7 214.4 479.7 214.8 479.9 215.1C480 215.3 480.3 215.6 480.6 215.8Z" fill="#00BAFF"/>
<path opacity="0.4" d="M157.1 318.4C173.7 308.8 200.6 308.8 217.1 318.4C230.8 326.3 233.2 338.2 224.3 347.5L284.3 382.5C285.4 383.2 286.1 384.3 286.4 385.5C286.7 386.7 286.5 388.1 285.9 389.2C285.3 390.3 284.2 391.1 283 391.5C281.8 391.9 280.5 391.7 279.3 391.1L217.9 355.3C217.2 354.9 216.6 354.3 216.2 353.6C199.6 362.6 173.4 362.5 157.1 353.1C140.5 343.5 140.5 328 157.1 318.4Z" fill="#312A47"/>
<path d="M151.2 327.1V333.7H152.2L155.1 328.3L151.2 327.1Z" fill="#F9BB41"/>
<path d="M236.2 334V326.5L233 328.1C233 328.1 232.2 332.7 232.5 332.9C232.7 333.1 236.2 334 236.2 334Z" fill="#F9BB41"/>
<path d="M193.7 358.2C217.1 358.2 236.2 347.2 236.2 333.7C236.2 320.2 217.2 309.2 193.7 309.2C170.3 309.2 151.2 320.2 151.2 333.7C151.2 347.3 170.3 358.2 193.7 358.2Z" fill="#B7BAD2"/>
<path d="M193.7 351C217.1 351 236.2 340 236.2 326.5C236.2 313 217.2 302 193.7 302C170.2 302 151.2 313 151.2 326.5C151.2 340 170.3 351 193.7 351Z" fill="#4E475E"/>
<path d="M158.5 327.1C158.8 332.1 162.2 337 168.8 340.8C182.6 348.8 204.9 348.8 218.7 340.8C225.3 337 228.7 332 229 327.1C229.3 321.7 225.9 316.2 218.7 312C204.9 304 182.6 304 168.8 312C161.6 316.2 158.1 321.7 158.5 327.1Z" fill="url(#paint0_linear)"/>
<path d="M158.5 327.1C158.8 332.1 162.2 337 168.8 340.8C182.6 348.8 204.9 348.8 218.7 340.8C225.3 337 228.7 332 229 327.1C228.7 322.1 225.3 317.2 218.7 313.4C204.9 305.5 182.6 305.5 168.8 313.4C162.2 317.2 158.7 322.1 158.5 327.1Z" fill="#B7BAD2"/>
<path d="M168.8 325.8C170.1 326.5 171.6 326.8 173.1 326.8C174.6 326.8 176.1 326.4 177.4 325.8C179.8 324.4 179.8 322.2 177.4 320.8C176.1 320.1 174.6 319.8 173.1 319.8C171.6 319.8 170.1 320.2 168.8 320.8C166.4 322.2 166.4 324.4 168.8 325.8Z" fill="#F3FEFF"/>
<path d="M198.6 339.3C198.1 338.5 196.7 338.1 195.3 338.3C192.7 338.7 190.1 338.5 187.6 337.7C183.8 336.5 180.6 333.9 178.5 330.4C178 329.6 176.6 329.2 175.2 329.4C173.6 329.6 172.6 330.6 173.2 331.5C175.9 335.8 180.1 339.1 184.9 340.5C188.7 341.6 192.6 341.9 196.5 341.4C198.2 341.2 199.2 340.2 198.6 339.3Z" fill="#F3FEFF"/>
<path d="M292.7 387.3C293.4 386.2 293.5 384.8 293.2 383.5C292.9 382.2 292 381.1 290.9 380.5L229.5 344.7C228.4 344 227 343.9 225.7 344.2C224.4 344.5 223.3 345.4 222.7 346.5C222 347.6 221.9 349 222.2 350.3C222.5 351.6 223.4 352.7 224.5 353.3L285.9 389.1C287 389.8 288.4 389.9 289.7 389.6C291 389.2 292 388.4 292.7 387.3Z" fill="url(#paint1_linear)"/>
<path d="M248 84.3V79.8L240.7 76.9L228.2 81C225.5 79.3 222.5 78 219.4 77L223.3 68.9V64.4L209 66.7L205.1 74.8C201.4 74.7 197.7 75 194 75.6L186.9 68.3L174.1 68V72.5L181.2 79.8C178.6 81.1 176.3 82.8 174.3 84.9L160.4 82.7L156.5 86.4V90.9L170.5 93.1C170.3 95.3 170.8 97.5 171.9 99.5L159.2 99V103.5L166.5 110.9L179.1 106.8C181.8 108.5 184.8 109.8 187.9 110.8L184 114.4V118.9L198.2 121.2L202.1 113.1C205.8 113.2 209.5 112.9 213.2 112.3L220.3 119.6L233.1 115.4V110.9L226 108.1C228.6 106.8 230.9 105.1 232.9 103L246.9 105.2L250.8 97V92.5L236.8 94.7C237 92.5 236.5 90.3 235.4 88.3L248 84.3Z" fill="url(#paint2_linear)"/>
<path d="M225.7 141.4V131.5L207.6 130.9L189.8 141.2C184 139.1 178 137.7 171.9 136.9V122.4H146.2V136.9C140.1 137.7 134.1 139.1 128.3 141.2L110.4 131L92.3 131.6V141.5L110.1 151.8C106.9 154.6 104.3 158.2 102.7 162.2H77.5V177H102.7C104.4 181 106.9 184.5 110.1 187.4L92.3 187.8V197.7L110.4 208L128.2 197.7C134 199.8 140 201.2 146.1 202V216.5H171.8V202C177.9 201.2 183.9 199.8 189.7 197.7L207.5 208L225.6 197.5V187.6L207.8 187.2C211 184.4 213.6 180.8 215.2 176.9H240.4V162.1H215.2C213.6 158.1 211 154.6 207.8 151.8L225.7 141.4Z" fill="url(#paint3_linear)"/>
<path d="M225.7 131.5L207.5 121L189.7 131.3C183.9 129.2 177.9 127.8 171.8 127V112.5H146.1V127C140 127.8 134 129.2 128.2 131.3L110.4 121L92.3 131.5L110.1 141.8C106.9 144.6 104.3 148.2 102.7 152.2H77.5V167H102.7C104.4 171 106.9 174.5 110.1 177.4L92.3 187.7L110.4 198.2L128.2 187.9C134 190 140 191.4 146.1 192.2V206.7H171.8V192.2C177.9 191.4 183.9 190 189.7 187.9L207.5 198.2L225.6 187.7L207.8 177.4C211 174.6 213.6 171 215.2 167.1H240.4V152.3H215.2C213.6 148.3 211 144.8 207.8 142L225.7 131.5Z" fill="#00BAFF"/>
<path d="M198.8 164.5C197.2 168.8 193.5 172.9 187.8 176.2C171.9 185.4 146.1 185.4 130.2 176.2C124.4 172.9 120.8 168.8 119.2 164.5C116.4 157 120.1 148.8 130.2 142.9C146.1 133.7 171.9 133.7 187.8 142.9C197.9 148.8 201.6 157 198.8 164.5Z" fill="#009DD7"/>
<path d="M247.8 80.1L240.5 72.7L227.9 76.8C225.2 75.1 222.2 73.8 219.1 72.8L223 64.7L208.8 62.4L204.9 70.5C201.2 70.4 197.5 70.7 193.8 71.3L186.7 64L173.9 68.2L181 75.5C178.4 76.8 176.1 78.5 174.1 80.6L160.2 78.4L156.3 86.6L170.3 88.8C170.1 91 170.6 93.2 171.7 95.2L159 99.3L166.3 106.7L178.9 102.6C181.6 104.3 184.6 105.6 187.7 106.6L183.8 114.7L198 117L201.9 108.9C205.6 109 209.3 108.7 213 108.1L220.1 115.4L232.9 111.2L225.8 103.9C228.4 102.6 230.7 100.9 232.7 98.8L246.7 101L250.6 92.8L236.6 90.6C236.8 88.4 236.3 86.2 235.2 84.2L247.8 80.1Z" fill="#00BAFF"/>
<path d="M226.5 91.9C225.4 95.8 221.3 99.3 214.9 101.4C203.6 105.1 189.4 102.8 183 96.3C181.7 95.1 180.8 93.6 180.3 91.9C178.7 86.4 183.1 80.8 191.9 77.9C203.2 74.2 217.4 76.5 223.8 83C226.5 85.8 227.3 88.9 226.5 91.9Z" fill="#009DD7"/>
<path d="M198.8 164.5C197.2 168.8 193.5 172.9 187.8 176.2C171.9 185.4 146.1 185.4 130.2 176.2C124.4 172.9 120.8 168.8 119.2 164.5C120.8 160.2 124.5 156.1 130.2 152.8C146.1 143.6 171.9 143.6 187.8 152.8C193.5 156.1 197.2 160.2 198.8 164.5Z" fill="#00BAFF"/>
<path d="M226.5 91.9C225.4 95.8 221.3 99.3 214.9 101.4C203.6 105.1 189.4 102.8 183 96.3C181.7 95.1 180.8 93.6 180.3 91.9C181.4 88 185.5 84.4 191.9 82.4C203.2 78.7 217.4 81 223.8 87.5C225 88.7 225.9 90.2 226.5 91.9Z" fill="#00BAFF"/>
<path d="M143.9 170.9L152.8 176C155.4 177.5 158.4 178.3 161.4 178.3C164.4 178.3 167.4 177.5 170 176L179.1 170.7C179.9 170.2 180.6 169.5 181.1 168.7C181.6 167.9 181.8 166.9 181.8 166C181.8 165 181.5 164.1 181.1 163.3C180.6 162.5 179.9 161.8 179.1 161.3L169.8 155.9C167.2 154.4 164.3 153.6 161.4 153.6C158.4 153.6 155.5 154.4 153 155.9L143.9 161.1C143 161.6 142.3 162.3 141.8 163.2C141.3 164.1 141 165 141 166C141 167 141.3 168 141.8 168.8C142.4 169.7 143.1 170.4 143.9 170.9Z" fill="#0090C6"/>
<path d="M141.4 169.5L150.3 174.6C152.9 176.1 155.9 176.9 158.9 176.9C161.9 176.9 164.9 176.1 167.5 174.6L176.6 169.3C177.4 168.8 178.1 168.1 178.6 167.3C179.1 166.5 179.3 165.5 179.3 164.6C179.3 163.6 179 162.7 178.6 161.9C178.1 161.1 177.4 160.4 176.6 159.9L167.3 154.5C164.7 153 161.8 152.2 158.9 152.2C155.9 152.2 153 153 150.5 154.5L141.4 159.7C140.5 160.2 139.8 160.9 139.3 161.8C138.8 162.7 138.5 163.6 138.5 164.6C138.5 165.6 138.8 166.6 139.3 167.4C139.9 168.3 140.6 169 141.4 169.5Z" fill="#E6E7E8"/>
<path d="M141.4 162.2L150.3 167.3C152.9 168.8 155.9 169.6 158.9 169.6C161.9 169.6 164.9 168.8 167.5 167.3L176.6 162C177.4 161.5 178.1 160.8 178.6 160C179.1 159.2 179.3 158.2 179.3 157.3C179.3 156.3 179 155.4 178.6 154.6C178.1 153.8 177.4 153.1 176.6 152.6L167.3 147.2C164.7 145.7 161.8 144.9 158.9 144.9C155.9 144.9 153 145.7 150.5 147.2L141.4 152.4C140.5 152.9 139.8 153.6 139.3 154.5C138.8 155.4 138.5 156.3 138.5 157.3C138.5 158.3 138.8 159.3 139.3 160.1C139.8 161 140.6 161.7 141.4 162.2Z" fill="white"/>
<path d="M194.1 96.7L199.1 99.6C200.6 100.5 202.3 100.9 204 100.9C205.7 100.9 207.4 100.5 208.9 99.6L214.1 96.6C214.6 96.3 215 95.9 215.2 95.5C215.5 95 215.6 94.5 215.6 93.9C215.6 93.4 215.5 92.8 215.2 92.3C214.9 91.8 214.5 91.4 214.1 91.2L208.8 88.2C207.3 87.4 205.7 86.9 204 86.9C202.3 86.9 200.7 87.3 199.2 88.2L194.1 91.2C193.6 91.5 193.2 91.9 192.9 92.4C192.6 92.9 192.5 93.4 192.5 94C192.5 94.6 192.6 95.1 192.9 95.6C193.2 96 193.6 96.4 194.1 96.7Z" fill="#0090C6"/>
<path d="M192.6 95.8L197.6 98.7C199.1 99.6 200.8 100 202.5 100C204.2 100 205.9 99.6 207.4 98.7L212.6 95.7C213.1 95.4 213.5 95 213.7 94.6C214 94.1 214.1 93.6 214.1 93C214.1 92.5 214 91.9 213.7 91.4C213.4 90.9 213 90.5 212.6 90.3L207.3 87.3C205.8 86.5 204.2 86 202.5 86C200.8 86 199.2 86.4 197.7 87.3L192.6 90.3C192.1 90.6 191.7 91 191.4 91.5C191.1 92 191 92.5 191 93.1C191 93.7 191.1 94.2 191.4 94.7C191.7 95.1 192.1 95.5 192.6 95.8Z" fill="#E6E7E8"/>
<path d="M192.6 91.7L197.6 94.6C199.1 95.5 200.8 95.9 202.5 95.9C204.2 95.9 205.9 95.5 207.4 94.6L212.6 91.6C213.1 91.3 213.5 90.9 213.7 90.5C214 90 214.1 89.5 214.1 88.9C214.1 88.4 214 87.8 213.7 87.3C213.4 86.8 213 86.4 212.6 86.2L207.3 83.2C205.8 82.4 204.2 81.9 202.5 81.9C200.8 81.9 199.2 82.3 197.7 83.2L192.6 86.2C192.1 86.5 191.7 86.9 191.4 87.4C191.1 87.9 191 88.4 191 89C191 89.6 191.1 90.1 191.4 90.6C191.7 91 192.1 91.4 192.6 91.7Z" fill="white"/>
<path d="M150 95.8V93L145.5 91.2L137.7 93.8C136 92.7 134.2 91.9 132.2 91.3L134.6 86.3V83.5L125.8 84.9L123.4 89.9C121.1 89.8 118.8 90 116.5 90.4L112.1 85.9L104.1 85.7V88.5L108.5 93C106.9 93.8 105.5 94.9 104.2 96.1L95.5998 94.7L93.2998 97V99.8L101.9 101.2C101.8 102.6 102.1 104 102.7 105.2L94.8998 105V107.8L99.3998 112.4L107.2 109.8C108.9 110.9 110.7 111.7 112.6 112.3L110.2 114.5V117.3L119 118.7L121.4 113.7C123.7 113.8 126 113.6 128.3 113.2L132.7 117.7L140.7 115.1V112.3L136.3 110.6C137.9 109.8 139.3 108.7 140.6 107.5L149.3 108.9L151.7 103.8V101L143.1 102.4C143.2 101 142.9 99.7 142.3 98.4L150 95.8Z" fill="url(#paint4_linear)"/>
<path d="M149.9 93.1L145.4 88.5L137.6 91.1C135.9 90 134.1 89.2 132.1 88.6L134.5 83.6L125.7 82.2L123.3 87.2C121 87.1 118.7 87.3 116.4 87.7L112 83.2L104 85.8L108.4 90.3C106.8 91.1 105.4 92.2 104.1 93.4L95.5001 92L93.1001 97.1L101.7 98.5C101.6 99.9 101.9 101.2 102.5 102.5L94.7001 105.1L99.2001 109.7L107 107.1C108.7 108.2 110.5 109 112.4 109.6L110 114.6L119 116L121.4 111C123.7 111.1 126 110.9 128.3 110.5L132.7 115L140.7 112.4L136.3 107.9C137.9 107.1 139.3 106 140.6 104.8L149.3 106.2L151.7 101.1L143.1 99.7C143.2 98.3 142.9 97 142.3 95.7L149.9 93.1Z" fill="#00BAFF"/>
<path d="M136.7 100.5C136 102.9 133.5 105.1 129.5 106.4C122.5 108.7 113.7 107.3 109.7 103.2C108.9 102.4 108.3 101.5 108 100.5C107 97.1 109.7 93.6 115.2 91.8C122.2 89.5 131 90.9 135 95C136.7 96.7 137.2 98.6 136.7 100.5Z" fill="#009DD7"/>
<path d="M136.7 100.5C136 102.9 133.5 105.1 129.5 106.4C122.5 108.7 113.7 107.3 109.7 103.2C108.9 102.4 108.3 101.5 108 100.5C108.7 98.1 111.2 95.9 115.2 94.6C122.2 92.3 131 93.7 135 97.8C135.8 98.5 136.3 99.4 136.7 100.5Z" fill="#00BAFF"/>
<path d="M116.6 103.4L119.7 105.2C120.6 105.7 121.7 106 122.7 106C123.8 106 124.8 105.7 125.7 105.2L128.9 103.4C129.2 103.2 129.4 103 129.6 102.7C129.8 102.4 129.9 102.1 129.9 101.7C129.9 101.4 129.8 101 129.6 100.7C129.4 100.4 129.2 100.2 128.9 100L125.6 98.1C124.7 97.6 123.7 97.3 122.6 97.3C121.6 97.3 120.5 97.6 119.6 98.1L116.4 99.9C116.1 100.1 115.8 100.3 115.7 100.6C115.5 100.9 115.4 101.2 115.4 101.6C115.4 101.9 115.5 102.3 115.7 102.6C116 103 116.3 103.3 116.6 103.4Z" fill="#0090C6"/>
<path d="M115.7 102.9L118.8 104.7C119.7 105.2 120.8 105.5 121.8 105.5C122.9 105.5 123.9 105.2 124.8 104.7L128 102.9C128.3 102.7 128.5 102.5 128.7 102.2C128.9 101.9 129 101.6 129 101.2C129 100.9 128.9 100.5 128.7 100.2C128.5 99.9 128.3 99.7 128 99.5L124.7 97.6C123.8 97.1 122.8 96.8 121.7 96.8C120.7 96.8 119.6 97.1 118.7 97.6L115.5 99.4C115.2 99.6 114.9 99.8 114.8 100.1C114.6 100.4 114.5 100.7 114.5 101.1C114.5 101.5 114.6 101.8 114.8 102.1C115.1 102.5 115.4 102.7 115.7 102.9Z" fill="#E6E7E8"/>
<path d="M115.7 100.4L118.8 102.2C119.7 102.7 120.8 103 121.8 103C122.9 103 123.9 102.7 124.8 102.2L128 100.4C128.3 100.2 128.5 100 128.7 99.7C128.9 99.4 129 99.1 129 98.7C129 98.3 128.9 98 128.7 97.7C128.5 97.4 128.3 97.2 128 97L124.7 95.1C123.8 94.6 122.8 94.3 121.7 94.3C120.7 94.3 119.6 94.6 118.7 95.1L115.5 96.9C115.2 97.1 114.9 97.3 114.8 97.6C114.6 97.9 114.5 98.2 114.5 98.6C114.5 98.9 114.6 99.3 114.8 99.6C115.1 99.9 115.4 100.2 115.7 100.4Z" fill="white"/>
<path d="M462.4 256.4V246.4L454.7 250L457.3 257.3L462.4 256.4Z" fill="#939598"/>
<path d="M236.8 253.4L241.6 256.2L248.3 244.7L236.8 253.4Z" fill="#C0C2D1"/>
<path d="M236.8 264.6L337.7 321.7C340.1 323.1 342.8 323.8 345.5 323.7C348.2 323.7 350.9 323 353.3 321.6L460 260C460.7 259.6 461.3 259 461.7 258.3C462.1 257.6 462.3 256.8 462.3 256C462.3 255.2 462.1 254.4 461.7 253.7C461.3 253 460.7 252.4 460 252L349.7 188.3L236.7 253.1V264.6H236.8Z" fill="#E6E7E8"/>
<path d="M236.8 253.4L358.5 183.6L358.6 73.7C358.6 72.7 358.3 71.7 357.8 70.8C357.3 69.9 356.5 69.2 355.7 68.7C354.8 68.2 353.8 67.9 352.8 67.9C351.8 67.9 350.8 68.2 349.9 68.7L245.6 128.9C243.1 130.3 241 132.4 239.6 134.9C238.2 137.4 237.4 140.2 237.4 143.1L236.8 253.4Z" fill="#939598"/>
<path d="M241.6 145.6V256.2L362.9 186.1V76.2C362.9 75.2 362.6 74.2 362.1 73.3C361.6 72.4 360.8 71.7 360 71.2C359.1 70.7 358.1 70.4 357.1 70.4C356.1 70.4 355.1 70.7 354.2 71.2L249.9 131.4C247.4 132.8 245.3 134.9 243.9 137.4C242.3 139.8 241.6 142.7 241.6 145.6Z" fill="#433A51"/>
<path d="M241.6 256.1L337.7 311.6C340.1 313 342.8 313.7 345.6 313.7C348.4 313.7 351.1 313 353.5 311.6L460.1 250C460.8 249.6 461.4 249 461.8 248.3C462.2 247.6 462.4 246.8 462.4 246C462.4 245.2 462.2 244.4 461.8 243.7C461.4 243 460.8 242.4 460.1 242L362.9 185.9L241.6 256.1Z" fill="white"/>
<path d="M388.9 291.1V290.6C388.9 290.1 389 289.6 389.3 289.1C389.6 288.7 389.9 288.3 390.4 288L420.5 270.9C420.9 270.6 421.4 270.5 421.9 270.5C422.4 270.5 422.9 270.6 423.3 270.9L423.5 271V271.2C423.5 271.7 423.4 272.2 423.1 272.7C422.8 273.1 422.5 273.5 422 273.8L391.8 291.1C391.4 291.4 390.9 291.5 390.3 291.5C389.8 291.5 389.3 291.4 388.8 291.1H388.9Z" fill="#D3D4E3"/>
<path d="M276.3 236.1L281.2 239L342 203.9L337 201.1L276.3 236.1Z" fill="#4E475E"/>
<path d="M247 139.2V243L358.5 178.6L358.6 75.3L247 139.2Z" fill="#EFEFF4"/>
<path d="M261.1 254.9L360.2 197.7C361 197.2 362 197 363 197C364 197 364.9 197.3 365.8 197.7L407.8 221.9C408 222 408.2 222.2 408.3 222.4C408.4 222.6 408.5 222.9 408.5 223.1C408.5 223.3 408.4 223.6 408.3 223.8C408.2 224 408 224.2 407.8 224.3L309 281.7C308.1 282.2 307.2 282.5 306.2 282.5C305.2 282.5 304.3 282.2 303.4 281.8L261.2 257.4C261 257.3 260.8 257.1 260.7 256.9C260.6 256.7 260.5 256.4 260.5 256.2C260.5 256 260.6 255.7 260.7 255.5C260.7 255.2 260.8 255 261.1 254.9Z" fill="#D3D4E3"/>
<path d="M305.4 272V271.3L306 271.4V272H305.4Z" fill="#433A51"/>
<path d="M314.3 272.4V271.7L313.6 271.8L313.7 272.3L314.3 272.4Z" fill="#433A51"/>
<path d="M312.4 268V267.3L313.1 267.5V267.9L312.4 268Z" fill="#433A51"/>
<path d="M321.2 268.4V267.8L320.4 267.9L320.5 268.4H321.2Z" fill="#433A51"/>
<path d="M319.4 264V263.4L320.2 263.6L320.1 264H319.4Z" fill="#433A51"/>
<path d="M328.2 264.4V263.7L327.4 263.8L327.3 264.4H328.2Z" fill="#433A51"/>
<path d="M326.4 259.9V259.3L327 259.4V259.7L326.4 259.9Z" fill="#433A51"/>
<path d="M368.3 241.3V240.7L367.6 240.8V241.1L368.3 241.3Z" fill="#433A51"/>
<path d="M366.4 236.8V236.2L367.1 236.4L367 236.8H366.4Z" fill="#433A51"/>
<path d="M376.3 236.6V235.9L375.9 236L375.8 236.3L376.3 236.6Z" fill="#433A51"/>
<path d="M373.4 232.8V232.1L374.4 232.4L374 232.8H373.4V232.8Z" fill="#433A51"/>
<path d="M382.8 232.8V232.2L382 232.4V232.8H382.8Z" fill="#433A51"/>
<path d="M382.9 230.2V229.5L383.7 229.7L383.6 230.1L382.9 230.2Z" fill="#433A51"/>
<path d="M390.2 228.5V227.9L389.6 228V228.5H390.2Z" fill="#433A51"/>
<path d="M389.1 226.7V226L389.8 226.1C389.8 226.1 389.9 226.4 389.8 226.5C389.6 226.5 389.3 226.6 389.1 226.7Z" fill="#433A51"/>
<path d="M396.3 224.9V224.3H395.5V224.8L396.3 224.9Z" fill="#433A51"/>
<path d="M395.2 223.1V222.4L395.8 222.6L395.7 223L395.2 223.1Z" fill="#433A51"/>
<path d="M402.5 221.4V220.8L402 220.9L401.9 221.2L402.5 221.4Z" fill="#433A51"/>
<path d="M384.8 224.3V223.6L385.4 223.7V224.2L384.8 224.3Z" fill="#433A51"/>
<path d="M392.1 222.6V222L391.3 222.1L391.2 222.6C391.2 222.5 392.1 222.6 392.1 222.6Z" fill="#433A51"/>
<path d="M393.8 216.4V215.8L393.2 215.9L392.9 216.3L393.8 216.4Z" fill="#433A51"/>
<path d="M377.7 220.1V219.5L378.1 219.6L378.2 220.1H377.7Z" fill="#433A51"/>
<path d="M380.4 224.1V223.5L379.8 223.6L379.7 224L380.4 224.1Z" fill="#433A51"/>
<path d="M371.6 223.6V223L372.1 223.2C372.1 223.2 372.3 223.6 372.2 223.6C372.1 223.6 371.6 223.6 371.6 223.6Z" fill="#433A51"/>
<path d="M373.4 228.1V227.5L373 227.6L372.9 228.1H373.4Z" fill="#433A51"/>
<path d="M364.6 227.7V227L365.3 227.2L365 227.5L364.6 227.7Z" fill="#433A51"/>
<path d="M364.6 223V222.3L363.8 222.4L364 222.8L364.6 223Z" fill="#433A51"/>
<path d="M355.8 222.6V221.9L356.4 222.1L356.3 222.6H355.8Z" fill="#433A51"/>
<path d="M362.8 218.6V217.9L363.6 218.2C363.5 218.3 363.5 218.5 363.4 218.6C363.4 218.6 362.8 218.6 362.8 218.6Z" fill="#433A51"/>
<path d="M371.6 219V218.3L370.7 218.4L370.6 218.8L371.6 219Z" fill="#433A51"/>
<path d="M370.3 214.3V213.6L371 213.8C371 213.8 371.1 214.3 371 214.3C370.9 214.3 370.3 214.3 370.3 214.3Z" fill="#433A51"/>
<path d="M385 211.3V210.6L384.1 210.7L384.2 211.1L385 211.3Z" fill="#433A51"/>
<path d="M366.4 232.1V231.5L365.5 231.7L365.6 232.1H366.4Z" fill="#433A51"/>
<path d="M357.6 231.7V231L358.3 231.2C358.3 231.3 358.2 231.4 358.2 231.6L357.6 231.7Z" fill="#433A51"/>
<path d="M357.6 227V226.4L356.8 226.5L356.7 226.9L357.6 227Z" fill="#433A51"/>
<path d="M348.8 226.6V226L349.4 226.2L349.2 226.6H348.8Z" fill="#433A51"/>
<path d="M341.8 230.7V230.1L342.4 230.3L342.3 230.6L341.8 230.7Z" fill="#433A51"/>
<path d="M350.6 231.1V230.5L350 230.7V231.1H350.6Z" fill="#433A51"/>
<path d="M350.6 235.8V235.1L351.6 235.4L351.2 235.8H350.6V235.8Z" fill="#433A51"/>
<path d="M359.5 236.1V235.5L358.9 235.6L358.7 235.9L359.5 236.1Z" fill="#433A51"/>
<path d="M352.5 240.2V239.5L351.8 239.6L351.7 240.1L352.5 240.2Z" fill="#433A51"/>
<path d="M343.6 239.8V239.2L344.2 239.3V239.7L343.6 239.8Z" fill="#433A51"/>
<path d="M343.7 235.1V234.5L342.7 234.6L342.8 235.1H343.7Z" fill="#433A51"/>
<path d="M334.8 234.7V234.1L335.4 234.2V234.5L334.8 234.7Z" fill="#433A51"/>
<path d="M327.8 238.7V238.1L328.4 238.3L328.3 238.7H327.8Z" fill="#433A51"/>
<path d="M336.7 239.2V238.5L336.2 238.6L336 239L336.7 239.2Z" fill="#433A51"/>
<path d="M336.6 243.8V243.1L337.4 243.3L337.1 243.8H336.6Z" fill="#433A51"/>
<path d="M345.5 244.2V243.6L345 243.7V244.2H345.5Z" fill="#433A51"/>
<path d="M338.5 248.3V247.6L337.9 247.7L337.8 247.9L338.5 248.3Z" fill="#433A51"/>
<path d="M329.6 247.9V247.2L330.2 247.5L330 247.7L329.6 247.9Z" fill="#433A51"/>
<path d="M329.7 243.2V242.6L329.1 242.7L328.9 243L329.7 243.2Z" fill="#433A51"/>
<path d="M320.8 242.8V242.1L321.4 242.3L321.2 242.7C321.3 242.8 320.8 242.8 320.8 242.8Z" fill="#433A51"/>
<path d="M313.9 246.8V246.1L314.5 246.2L314.3 246.7L313.9 246.8Z" fill="#433A51"/>
<path d="M322.7 247.2V246.5H322.1L321.9 247.1L322.7 247.2Z" fill="#433A51"/>
<path d="M322.7 251.9V251.2L323.3 251.4L323.1 251.8L322.7 251.9Z" fill="#433A51"/>
<path d="M331.5 252.3V251.7L330.8 251.8L330.6 252.4H331.5V252.3Z" fill="#433A51"/>
<path d="M324.5 256.3V255.7H323.9C323.9 255.9 324 256 324 256.1C324.2 256.2 324.4 256.3 324.5 256.3Z" fill="#433A51"/>
<path d="M315.7 255.9V255.3H316.1L316.3 255.7L315.7 255.9Z" fill="#433A51"/>
<path d="M315.7 251.2V250.6L315 250.8C315 250.8 315 251.3 315.1 251.3C315.3 251.3 315.5 251.3 315.7 251.2Z" fill="#433A51"/>
<path d="M306.9 250.8V250.2L307.4 250.4L307.3 250.8H306.9Z" fill="#433A51"/>
<path d="M299.9 254.9V254.2L300.5 254.4L300.3 254.8L299.9 254.9Z" fill="#433A51"/>
<path d="M308.7 255.3V254.7L308.3 254.8L308.1 255.3H308.7Z" fill="#433A51"/>
<path d="M308.7 260V259.4L309.3 259.6V259.9L308.7 260Z" fill="#433A51"/>
<path d="M317.5 260.4V259.7L316.8 259.6V260.1L317.5 260.4Z" fill="#433A51"/>
<path d="M310.5 264.4V263.8L309.9 263.9L309.8 264.1L310.5 264.4Z" fill="#433A51"/>
<path d="M301.7 264V263.3C301.9 263.3 302 263.4 302.2 263.4C302.2 263.5 302.2 263.7 302.2 263.8L301.7 264Z" fill="#433A51"/>
<path d="M301.7 259.3V258.6L301.1 258.7L301 259.1L301.7 259.3Z" fill="#433A51"/>
<path d="M292.9 258.9V258.2L293.5 258.4L293.4 258.8L292.9 258.9Z" fill="#433A51"/>
<path d="M321 238.9V238.2H320.5L320.3 238.7L321 238.9Z" fill="#433A51"/>
<path d="M312.1 238.5V237.8L312.6 238.1L312.5 238.4L312.1 238.5Z" fill="#433A51"/>
<path d="M355.9 218.7V218L355.3 218.1L355.2 218.5L355.9 218.7Z" fill="#433A51"/>
<path d="M347.1 218.3V217.7L348 217.9L347.9 218.3H347.1Z" fill="#433A51"/>
<path d="M354.1 214.3V213.7L354.7 213.8L354.8 214.3C354.5 214.3 354.3 214.3 354.1 214.3Z" fill="#433A51"/>
<path d="M362.9 214.7V214L362.4 214.1L362.2 214.5L362.9 214.7Z" fill="#433A51"/>
<path d="M361.1 210.3V209.6L361.7 209.8V210.1L361.1 210.3Z" fill="#433A51"/>
<path d="M369.9 210.7V210L369.4 210.1L369.3 210.6L369.9 210.7Z" fill="#433A51"/>
<path d="M368.1 206.2V205.5L368.7 205.6V206.1C368.6 206.1 368.1 206.2 368.1 206.2Z" fill="#433A51"/>
<path d="M376.9 206.6V206L376.2 206.1L376.1 206.6H376.9Z" fill="#433A51"/>
<path d="M348.9 222.7V222.1L348.1 222.2V222.7H348.9Z" fill="#433A51"/>
<path d="M340.1 222.4V221.7L340.8 222L340.3 222.4H340.1V222.4Z" fill="#433A51"/>
<path d="M333.1 226.4V225.8L333.7 226L333.6 226.5H333.1V226.4Z" fill="#433A51"/>
<path d="M341.9 226.8V226.2L341.2 226.3V226.7L341.9 226.8Z" fill="#433A51"/>
<path d="M335 230.8V230.1L334.3 230.2L334.4 230.6L335 230.8Z" fill="#433A51"/>
<path d="M326.1 230.4V229.7L326.8 229.8L326.7 230.2L326.1 230.4Z" fill="#433A51"/>
<path d="M319.1 234.4V233.8L319.8 234L319.6 234.3L319.1 234.4Z" fill="#433A51"/>
<path d="M328 234.8V234.2L327.5 234.3L327.4 234.8H328Z" fill="#433A51"/>
<path d="M314 242.9V242.3L313.3 242.5C313.3 242.5 313.5 242.9 313.5 243C313.5 242.9 314 242.9 314 242.9Z" fill="#433A51"/>
<path d="M305.2 242.5V241.9C305.2 241.9 306.1 242.1 306 242.1L305.6 242.6L305.2 242.5Z" fill="#433A51"/>
<path d="M307 247V246.3L306.4 246.4L306.3 247.1L307 247Z" fill="#433A51"/>
<path d="M298.2 246.6V245.9L299.3 246.2L298.8 246.6H298.2Z" fill="#433A51"/>
<path d="M300 251V250.3H299.3L299.4 250.9L300 251Z" fill="#433A51"/>
<path d="M291.2 250.6V250L291.8 250.1L291.7 250.7L291.2 250.6Z" fill="#433A51"/>
<path d="M293 255V254.3H292.1V254.8L293 255Z" fill="#433A51"/>
<path d="M284.2 254.6V254L285.2 254.2L284.9 254.8L284.2 254.6Z" fill="#433A51"/>
<path d="M298.4 276.1V275.5L299.1 275.6C299.1 275.6 299.2 276.1 299.1 276.1C299 276 298.4 276.1 298.4 276.1Z" fill="#433A51"/>
<path d="M307.3 276.5V275.8L306.6 275.9C306.6 275.9 306.4 276.4 306.5 276.4C306.6 276.5 307.3 276.5 307.3 276.5Z" fill="#433A51"/>
<path d="M289.4 271.1V270.4L290 270.7L289.8 271L289.4 271.1Z" fill="#433A51"/>
<path d="M304.3 268V267.4L303.7 267.5L303.4 268.1H304.3V268Z" fill="#433A51"/>
<path d="M280.6 266V265.3L281.3 265.5C281.3 265.7 281.2 265.8 281.1 266C280.9 266 280.7 266 280.6 266Z" fill="#433A51"/>
<path d="M294.1 263.7V263L293.4 263.1L293.2 263.7H294.1Z" fill="#433A51"/>
<path d="M272.5 261.4V260.7L273.2 261L273 261.4H272.5Z" fill="#433A51"/>
<path d="M286 259.1V258.4L285.3 258.5L285.1 259L286 259.1Z" fill="#433A51"/>
<path d="M368.8 202V201.3L368.1 201.5L368.4 201.9L368.8 202Z" fill="#433A51"/>
<path d="M355.3 204.3V203.7L355.8 203.8C355.9 204 356 204.1 356 204.3C356 204.2 355.3 204.3 355.3 204.3Z" fill="#433A51"/>
<path d="M357.1 208.7V208L356.6 208.1L356.5 208.4L357.1 208.7Z" fill="#433A51"/>
<path d="M348.3 208.3V207.6L348.8 207.9L348.6 208.3H348.3Z" fill="#433A51"/>
<path d="M350.2 212.7V212.1L349.7 212.2V212.6L350.2 212.7Z" fill="#433A51"/>
<path d="M341.3 212.3V211.7L342 212L341.8 212.3H341.3Z" fill="#433A51"/>
<path d="M343.2 216.8V216.2L342.3 216.3L342.5 216.7L343.2 216.8Z" fill="#433A51"/>
<path d="M334.3 216.4V215.8L334.9 216V216.3L334.3 216.4Z" fill="#433A51"/>
<path d="M336.2 220.8V220.1L335.8 220.2L335.6 220.5L336.2 220.8Z" fill="#433A51"/>
<path d="M327.3 220.4V219.7L328 219.9L327.9 220.3L327.3 220.4Z" fill="#433A51"/>
<path d="M329.2 224.8V224.2L328.7 224.3L328.6 224.6L329.2 224.8Z" fill="#433A51"/>
<path d="M320.3 224.4V223.7L320.9 223.8V224.2L320.3 224.4Z" fill="#433A51"/>
<path d="M322.2 228.9V228.2L321.6 228.5L321.8 228.8L322.2 228.9Z" fill="#433A51"/>
<path d="M313.4 228.5V227.8L313.9 228.1L313.8 228.5H313.4Z" fill="#433A51"/>
<path d="M315.2 232.9V232.3L314.6 232.5L314.7 233L315.2 232.9Z" fill="#433A51"/>
<path d="M306.4 232.5V231.9L306.8 232L307 232.4L306.4 232.5Z" fill="#433A51"/>
<path d="M308.2 236.9V236.3L307.6 236.4V237H308.2V236.9Z" fill="#433A51"/>
<path d="M299.4 236.5V235.9L300 236.1L299.8 236.4L299.4 236.5Z" fill="#433A51"/>
<path d="M301.2 241V240.3L300.6 240.4V240.8L301.2 241Z" fill="#433A51"/>
<path d="M292.4 240.6V239.9L293 240.1V240.5L292.4 240.6Z" fill="#433A51"/>
<path d="M294.2 245V244.3L293.8 244.4L293.7 244.7L294.2 245Z" fill="#433A51"/>
<path d="M285.4 244.6V244L285.8 244.1V244.6H285.4Z" fill="#433A51"/>
<path d="M287.3 249.1V248.4L286.5 248.5L286.7 249.1H287.3Z" fill="#433A51"/>
<path d="M278.4 248.6V248L278.8 248.1C278.8 248.2 278.9 248.4 278.9 248.5L278.4 248.6Z" fill="#433A51"/>
<path d="M280.3 252.5V253.1H279.9L279.6 252.7L279.9 252.5H280.3Z" fill="#433A51"/>
<path d="M271.4 252.7V252L271.8 252.1L271.9 252.5L271.4 252.7Z" fill="#433A51"/>
<path d="M273.3 256.5V257.2H272.9L272.6 256.7L273.3 256.5Z" fill="#433A51"/>
<path d="M264.4 256.7V256.1L265 256.3L264.7 256.8L264.4 256.7Z" fill="#433A51"/>
<path d="M273.2 257.3L269.5 259.4C269.4 259.4 269.3 259.5 269.2 259.5C269.1 259.5 269 259.5 268.9 259.4L264.7 257C264.5 256.9 264.5 256.7 264.7 256.6L268.4 254.5C268.5 254.5 268.6 254.4 268.7 254.4C268.8 254.4 268.9 254.4 269 254.5L273.2 256.9C273.3 257 273.3 257.2 273.2 257.3Z" fill="#433A51"/>
<path d="M280.1 253.3L276.4 255.4C276.3 255.4 276.2 255.5 276.1 255.5C276 255.5 275.9 255.5 275.8 255.4L271.6 253C271.4 252.9 271.4 252.7 271.6 252.6L275.3 250.5C275.4 250.5 275.5 250.4 275.6 250.4C275.7 250.4 275.8 250.4 275.9 250.5L280.1 252.9C280.3 253 280.3 253.2 280.1 253.3Z" fill="#433A51"/>
<path d="M287.1 249.2L283.4 251.3C283.3 251.3 283.2 251.4 283.1 251.4C283 251.4 282.9 251.4 282.8 251.3L278.6 248.9C278.4 248.8 278.4 248.6 278.6 248.5L282.3 246.4C282.4 246.4 282.5 246.3 282.6 246.3C282.7 246.3 282.8 246.3 282.9 246.4L287.1 248.8C287.3 248.9 287.3 249.1 287.1 249.2Z" fill="#433A51"/>
<path d="M294.1 245.2L290.4 247.3C290.3 247.3 290.2 247.4 290.1 247.4C290 247.4 289.9 247.4 289.8 247.3L285.6 244.9C285.4 244.8 285.4 244.6 285.6 244.5L289.3 242.4C289.4 242.4 289.5 242.3 289.6 242.3C289.7 242.3 289.8 242.3 289.9 242.4L294.1 244.8C294.3 244.9 294.3 245.1 294.1 245.2Z" fill="#433A51"/>
<path d="M301.1 241.2L297.4 243.3C297.3 243.3 297.2 243.4 297.1 243.4C297 243.4 296.9 243.4 296.8 243.3L292.6 240.9C292.4 240.8 292.4 240.6 292.6 240.5L296.3 238.4C296.4 238.4 296.5 238.3 296.6 238.3C296.7 238.3 296.8 238.3 296.9 238.4L301.1 240.8C301.3 240.9 301.3 241.1 301.1 241.2Z" fill="#433A51"/>
<path d="M308.1 237.1L304.4 239.2C304.3 239.2 304.2 239.3 304.1 239.3C304 239.3 303.9 239.3 303.8 239.2L299.6 236.8C299.4 236.7 299.4 236.5 299.6 236.4L303.3 234.3C303.4 234.3 303.5 234.2 303.6 234.2C303.7 234.2 303.8 234.2 303.9 234.3L308.1 236.7C308.3 236.8 308.3 237 308.1 237.1Z" fill="#433A51"/>
<path d="M315.1 233.1L311.4 235.2C311.3 235.3 311.2 235.3 311.1 235.3C311 235.3 310.9 235.3 310.8 235.2L306.6 232.8C306.4 232.7 306.4 232.5 306.6 232.4L310.3 230.3C310.4 230.2 310.5 230.2 310.6 230.2C310.7 230.2 310.8 230.2 310.9 230.3L315.1 232.7C315.2 232.8 315.3 233 315.1 233.1Z" fill="#433A51"/>
<path d="M322.1 229.1L318.4 231.2C318.3 231.2 318.2 231.3 318.1 231.3C318 231.3 317.9 231.3 317.8 231.2L313.6 228.8C313.4 228.7 313.4 228.5 313.5 228.4L317.2 226.3C317.3 226.3 317.4 226.2 317.5 226.2C317.6 226.2 317.7 226.2 317.8 226.3L322 228.7C322.2 228.8 322.3 229 322.1 229.1Z" fill="#433A51"/>
<path d="M329.1 225L325.4 227.1C325.3 227.1 325.2 227.2 325.1 227.2C325 227.2 324.9 227.2 324.8 227.1L320.6 224.7C320.4 224.6 320.4 224.4 320.6 224.3L324.3 222.2C324.4 222.2 324.5 222.1 324.6 222.1C324.7 222.1 324.8 222.1 324.9 222.2L329.1 224.6C329.2 224.7 329.2 224.9 329.1 225Z" fill="#433A51"/>
<path d="M336.1 221L332.4 223.1C332.3 223.1 332.2 223.2 332.1 223.2C332 223.2 331.9 223.2 331.8 223.1L327.6 220.7C327.4 220.6 327.4 220.4 327.6 220.3L331.3 218.2C331.4 218.2 331.5 218.1 331.6 218.1C331.7 218.1 331.8 218.1 331.9 218.2L336.1 220.6C336.2 220.7 336.2 220.9 336.1 221Z" fill="#433A51"/>
<path d="M343 216.9L339.3 219C339.2 219 339.1 219.1 339 219.1C338.9 219.1 338.8 219.1 338.7 219L334.5 216.6C334.3 216.5 334.3 216.3 334.5 216.2L338.2 214.1C338.3 214.1 338.4 214 338.5 214C338.6 214 338.7 214 338.8 214.1L343 216.5C343.2 216.7 343.2 216.8 343 216.9Z" fill="#433A51"/>
<path d="M350 212.9L346.3 215C346.2 215 346.1 215.1 346 215.1C345.9 215.1 345.8 215.1 345.7 215L341.5 212.6C341.3 212.5 341.3 212.3 341.4 212.2L345.1 210.1C345.2 210.1 345.3 210 345.4 210C345.5 210 345.6 210 345.7 210.1L349.9 212.5C350.2 212.6 350.2 212.8 350 212.9Z" fill="#433A51"/>
<path d="M357 208.9L353.3 211C353.2 211.1 353.1 211.1 353 211.1C352.9 211.1 352.8 211.1 352.7 211L348.5 208.6C348.3 208.5 348.3 208.3 348.5 208.2L352.2 206.1C352.3 206.1 352.4 206 352.5 206C352.6 206 352.7 206 352.8 206.1L357 208.5C357.2 208.6 357.2 208.8 357 208.9Z" fill="#433A51"/>
<path d="M368.7 202.1L360.4 206.9C360.3 206.9 360.2 207 360.1 207C360 207 359.9 207 359.8 206.9L355.6 204.5C355.4 204.4 355.4 204.2 355.5 204.1L363.8 199.3C363.9 199.3 364 199.2 364.1 199.2C364.2 199.2 364.3 199.2 364.4 199.3L368.6 201.7C368.9 201.9 368.9 202 368.7 202.1Z" fill="#433A51"/>
<path d="M373.1 208.9L376.8 206.8C377 206.7 377 206.5 376.8 206.4L372.6 204C372.5 203.9 372.4 203.9 372.3 203.9C372.2 203.9 372.1 203.9 372 204L368.3 206.1C368.1 206.2 368.1 206.4 368.3 206.5L372.5 208.9C372.6 209 372.7 209 372.8 209C372.9 209 373 209 373.1 208.9Z" fill="#433A51"/>
<path d="M366.1 212.9L369.7 210.8C369.9 210.7 369.9 210.5 369.7 210.4L365.5 208C365.4 207.9 365.3 207.9 365.2 207.9C365.1 207.9 365 207.9 364.9 208L361.2 210.1C361 210.2 361 210.4 361.2 210.5L365.4 212.9C365.5 213 365.6 213 365.7 213C365.9 213 366 213 366.1 212.9Z" fill="#433A51"/>
<path d="M359.1 217L362.8 214.9C363 214.8 363 214.6 362.8 214.5L358.6 212.1C358.5 212 358.4 212 358.3 212C358.2 212 358.1 212 358 212.1L354.3 214.2C354.1 214.3 354.1 214.5 354.4 214.6L358.6 217C358.7 217.1 358.8 217.1 358.9 217.1C358.9 217 359 217 359.1 217Z" fill="#433A51"/>
<path d="M352.2 221L355.9 218.9C356.1 218.8 356.1 218.6 355.9 218.5L351.7 216.1C351.6 216 351.5 216 351.4 216C351.3 216 351.2 216 351.1 216.1L347.4 218.2C347.2 218.3 347.2 218.5 347.4 218.6L351.6 221C351.7 221.1 351.8 221.1 351.9 221.1C351.9 221.1 352 221.1 352.2 221Z" fill="#433A51"/>
<path d="M345.2 225L348.9 222.9C349.1 222.8 349.1 222.6 348.9 222.5L344.7 220.1C344.6 220 344.5 220 344.4 220C344.3 220 344.2 220 344.1 220.1L340.4 222.2C340.2 222.3 340.2 222.5 340.4 222.6L344.6 225C344.7 225.1 344.8 225.1 344.9 225.1C344.9 225.1 345.1 225.1 345.2 225Z" fill="#433A51"/>
<path d="M338.2 229.1L341.9 227C342.1 226.9 342.1 226.7 341.9 226.6L337.7 224.2C337.6 224.1 337.5 224.1 337.4 224.1C337.3 224.1 337.2 224.1 337.1 224.2L333.4 226.3C333.2 226.4 333.2 226.6 333.4 226.7L337.6 229.1C337.7 229.2 337.8 229.2 337.9 229.2C337.9 229.1 338.1 229.1 338.2 229.1Z" fill="#433A51"/>
<path d="M331.2 233.1L334.9 231C335.1 230.9 335.1 230.7 334.9 230.6L330.7 228.2C330.6 228.1 330.5 228.1 330.4 228.1C330.3 228.1 330.2 228.1 330.1 228.2L326.5 230.3C326.3 230.4 326.3 230.6 326.5 230.7L330.7 233.1C330.8 233.2 330.9 233.2 331 233.2C331 233.2 331.1 233.2 331.2 233.1Z" fill="#433A51"/>
<path d="M324.2 237.2L327.9 235.1C328.1 235 328.1 234.8 327.9 234.7L323.7 232.3C323.6 232.2 323.5 232.2 323.4 232.2C323.3 232.2 323.2 232.2 323.1 232.3L319.4 234.4C319.2 234.5 319.2 234.7 319.4 234.8L323.6 237.2C323.7 237.3 323.8 237.3 323.9 237.3C324 237.2 324.1 237.2 324.2 237.2Z" fill="#433A51"/>
<path d="M317.2 241.2L320.9 239.1C321.1 239 321.1 238.8 320.9 238.7L316.7 236.3C316.6 236.2 316.5 236.2 316.4 236.2C316.3 236.2 316.2 236.2 316.1 236.3L312.5 238.4C312.3 238.5 312.3 238.7 312.5 238.8L316.7 241.2C316.8 241.3 316.9 241.3 317 241.3C317 241.3 317.1 241.2 317.2 241.2Z" fill="#433A51"/>
<path d="M310.2 245.2L313.9 243.1C314.1 243 314.1 242.8 313.8 242.7L309.6 240.3C309.5 240.2 309.4 240.2 309.3 240.2C309.2 240.2 309.1 240.2 309 240.3L305.4 242.4C305.2 242.5 305.2 242.7 305.4 242.8L309.6 245.2C309.7 245.3 309.8 245.3 309.9 245.3C310 245.3 310.1 245.3 310.2 245.2Z" fill="#433A51"/>
<path d="M303.2 249.3L306.9 247.2C307.1 247.1 307.1 246.9 306.9 246.8L302.7 244.4C302.6 244.3 302.5 244.3 302.4 244.3C302.3 244.3 302.2 244.3 302.1 244.4L298.5 246.5C298.3 246.6 298.3 246.8 298.5 246.9L302.7 249.3C302.8 249.4 302.9 249.4 303 249.4C303 249.3 303.1 249.3 303.2 249.3Z" fill="#433A51"/>
<path d="M296.2 253.3L299.8 251.2C300 251.1 300 250.9 299.8 250.8L295.6 248.4C295.5 248.3 295.4 248.3 295.3 248.3C295.2 248.3 295.1 248.3 295 248.4L291.3 250.5C291.1 250.6 291.1 250.8 291.3 250.9L295.5 253.3C295.6 253.4 295.7 253.4 295.8 253.4C296 253.4 296.1 253.3 296.2 253.3Z" fill="#433A51"/>
<path d="M289.3 257.3L292.9 255.2C293.1 255.1 293.1 254.9 292.9 254.8L288.7 252.4C288.6 252.3 288.5 252.3 288.4 252.3C288.3 252.3 288.2 252.3 288.1 252.4L284.4 254.5C284.2 254.6 284.2 254.8 284.5 254.9L288.7 257.3C288.8 257.4 288.9 257.4 289 257.4C289 257.4 289.1 257.4 289.3 257.3Z" fill="#433A51"/>
<path d="M277.6 264.1L285.9 259.3C286.1 259.2 286.1 259 285.8 258.9L281.6 256.5C281.5 256.4 281.4 256.4 281.3 256.4C281.2 256.4 281.1 256.4 281 256.5L272.7 261.3C272.5 261.4 272.5 261.6 272.7 261.7L276.9 264.1C277 264.2 277.1 264.2 277.2 264.2C277.3 264.1 277.5 264.1 277.6 264.1Z" fill="#433A51"/>
<path d="M375.3 216.9L384.8 211.4C385 211.3 385 211.1 384.8 211L380.6 208.6C380.5 208.5 380.4 208.5 380.3 208.5C380.2 208.5 380.1 208.5 380 208.6L370.5 214.1C370.3 214.2 370.3 214.4 370.5 214.5L374.7 216.9C374.8 217 374.9 217 375 217C375.1 217 375.2 217 375.3 216.9Z" fill="#433A51"/>
<path d="M367.8 221.3L371.5 219.2C371.7 219.1 371.7 218.9 371.5 218.8L367.3 216.4C367.2 216.3 367.1 216.3 367 216.3C366.9 216.3 366.8 216.3 366.7 216.4L363 218.5C362.8 218.6 362.8 218.8 363.1 218.9L367.3 221.3C367.4 221.4 367.5 221.4 367.6 221.4C367.6 221.3 367.7 221.3 367.8 221.3Z" fill="#433A51"/>
<path d="M360.9 225.3L364.6 223.2C364.8 223.1 364.8 222.9 364.6 222.8L360.4 220.4C360.3 220.3 360.2 220.3 360.1 220.3C360 220.3 359.9 220.3 359.8 220.4L356.1 222.5C355.9 222.6 355.9 222.8 356.1 222.9L360.3 225.3C360.4 225.4 360.5 225.4 360.6 225.4C360.6 225.4 360.8 225.4 360.9 225.3Z" fill="#433A51"/>
<path d="M353.9 229.3L357.6 227.2C357.8 227.1 357.8 226.9 357.6 226.8L353.4 224.4C353.3 224.3 353.2 224.3 353.1 224.3C353 224.3 352.9 224.3 352.8 224.4L349.1 226.5C348.9 226.6 348.9 226.8 349.2 226.9L353.4 229.3C353.5 229.4 353.6 229.4 353.7 229.4C353.6 229.4 353.8 229.4 353.9 229.3Z" fill="#433A51"/>
<path d="M346.9 233.4L350.6 231.3C350.8 231.2 350.8 231 350.6 230.9L346.4 228.5C346.3 228.4 346.2 228.4 346.1 228.4C346 228.4 345.9 228.4 345.8 228.5L342.1 230.6C341.9 230.7 341.9 230.9 342.1 231L346.3 233.4C346.4 233.5 346.5 233.5 346.6 233.5C346.7 233.4 346.8 233.4 346.9 233.4Z" fill="#433A51"/>
<path d="M339.9 237.4L343.6 235.3C343.8 235.2 343.8 235 343.6 234.9L339.4 232.5C339.3 232.4 339.2 232.4 339.1 232.4C339 232.4 338.9 232.4 338.8 232.5L335.1 234.6C334.9 234.7 334.9 234.9 335.1 235L339.3 237.4C339.4 237.5 339.5 237.5 339.6 237.5C339.7 237.5 339.8 237.5 339.9 237.4Z" fill="#433A51"/>
<path d="M332.9 241.4L336.6 239.3C336.8 239.2 336.8 239 336.6 238.9L332.4 236.5C332.3 236.4 332.2 236.4 332.1 236.4C332 236.4 331.9 236.4 331.8 236.5L328.1 238.6C327.9 238.7 327.9 238.9 328.1 239L332.3 241.4C332.4 241.5 332.5 241.5 332.6 241.5C332.7 241.5 332.8 241.5 332.9 241.4Z" fill="#433A51"/>
<path d="M325.9 245.5L329.6 243.4C329.8 243.3 329.8 243.1 329.6 243L325.4 240.6C325.3 240.5 325.2 240.5 325.1 240.5C325 240.5 324.9 240.5 324.8 240.6L321.1 242.7C320.9 242.8 320.9 243 321.1 243.1L325.3 245.5C325.4 245.6 325.5 245.6 325.6 245.6C325.7 245.5 325.8 245.5 325.9 245.5Z" fill="#433A51"/>
<path d="M318.9 249.5L322.6 247.4C322.8 247.3 322.8 247.1 322.6 247L318.4 244.6C318.3 244.5 318.2 244.5 318.1 244.5C318 244.5 317.9 244.5 317.8 244.6L314.1 246.7C313.9 246.8 313.9 247 314.1 247.1L318.3 249.5C318.4 249.6 318.5 249.6 318.6 249.6C318.7 249.6 318.8 249.6 318.9 249.5Z" fill="#433A51"/>
<path d="M311.9 253.5L315.6 251.4C315.8 251.3 315.8 251.1 315.6 251L311.4 248.6C311.3 248.5 311.2 248.5 311.1 248.5C311 248.5 310.9 248.5 310.8 248.6L307.1 250.7C306.9 250.8 306.9 251 307.1 251.1L311.3 253.5C311.4 253.6 311.5 253.6 311.6 253.6C311.7 253.6 311.8 253.6 311.9 253.5Z" fill="#433A51"/>
<path d="M304.9 257.6L308.6 255.5C308.8 255.4 308.8 255.2 308.6 255.1L304.4 252.7C304.3 252.6 304.2 252.6 304.1 252.6C304 252.6 303.9 252.6 303.8 252.7L300.1 254.8C299.9 254.9 299.9 255.1 300.1 255.2L304.3 257.6C304.4 257.7 304.5 257.7 304.6 257.7C304.7 257.7 304.8 257.6 304.9 257.6Z" fill="#433A51"/>
<path d="M298 261.6L301.7 259.5C301.9 259.4 301.9 259.2 301.7 259.1L297.5 256.7C297.4 256.6 297.3 256.6 297.2 256.6C297.1 256.6 297 256.6 296.9 256.7L293.2 258.8C293 258.9 293 259.1 293.2 259.2L297.4 261.6C297.5 261.7 297.6 261.7 297.7 261.7C297.7 261.7 297.8 261.7 298 261.6Z" fill="#433A51"/>
<path d="M285.6 268.7L293.9 263.9C294.1 263.8 294.1 263.6 293.9 263.5L289.7 261.1C289.6 261 289.5 261 289.4 261C289.3 261 289.2 261 289.1 261.1L280.8 265.9C280.6 266 280.6 266.2 280.8 266.3L285 268.7C285.1 268.8 285.2 268.8 285.3 268.8C285.4 268.8 285.5 268.8 285.6 268.7Z" fill="#433A51"/>
<path d="M378.5 235.5L382.8 233C383 232.9 383 232.7 382.8 232.6L378.6 230.2C378.5 230.1 378.4 230.1 378.3 230.1C378.2 230.1 378.1 230.1 378 230.2L373.7 232.7C373.5 232.8 373.5 233 373.7 233.1L377.9 235.5C378 235.6 378.1 235.6 378.2 235.6C378.2 235.5 378.4 235.5 378.5 235.5Z" fill="#433A51"/>
<path d="M371.5 239.5L376.2 236.8C376.4 236.7 376.4 236.5 376.1 236.4L371.9 234C371.8 233.9 371.7 233.9 371.6 233.9C371.5 233.9 371.4 233.9 371.3 234L366.6 236.7C366.4 236.8 366.4 237 366.7 237.1L370.9 239.5C371 239.6 371.1 239.6 371.2 239.6C371.3 239.6 371.4 239.5 371.5 239.5Z" fill="#433A51"/>
<path d="M331.5 262.6L368.2 241.4C368.4 241.3 368.4 241.1 368.2 241L364 238.6C363.9 238.5 363.8 238.5 363.7 238.5C363.6 238.5 363.5 238.5 363.4 238.6L326.7 259.8C326.5 259.9 326.5 260.1 326.7 260.2L330.9 262.6C331 262.7 331.1 262.7 331.2 262.7C331.2 262.7 331.3 262.7 331.5 262.6Z" fill="#433A51"/>
<path d="M324.5 266.6L328.1 264.5C328.3 264.4 328.3 264.2 328.1 264.1L323.9 261.7C323.8 261.6 323.7 261.6 323.6 261.6C323.5 261.6 323.4 261.6 323.3 261.7L319.7 263.8C319.5 263.9 319.5 264.1 319.7 264.2L323.9 266.6C324 266.7 324.1 266.7 324.2 266.7C324.2 266.7 324.4 266.7 324.5 266.6Z" fill="#433A51"/>
<path d="M317.5 270.7L321.1 268.6C321.3 268.5 321.3 268.3 321 268.2L316.8 265.8C316.7 265.7 316.6 265.7 316.5 265.7C316.4 265.7 316.3 265.7 316.2 265.8L312.6 267.9C312.4 268 312.4 268.2 312.6 268.3L316.8 270.7C316.9 270.8 317 270.8 317.1 270.8C317.2 270.8 317.4 270.7 317.5 270.7Z" fill="#433A51"/>
<path d="M310.5 274.7L314.1 272.6C314.3 272.5 314.3 272.3 314.1 272.2L309.9 269.8C309.8 269.7 309.7 269.7 309.6 269.7C309.5 269.7 309.4 269.7 309.2 269.8L305.6 271.9C305.4 272 305.4 272.2 305.7 272.3L309.9 274.7C310 274.8 310.1 274.8 310.2 274.8C310.3 274.8 310.4 274.8 310.5 274.7Z" fill="#433A51"/>
<path d="M303.5 278.8L307.1 276.7C307.3 276.6 307.3 276.4 307.1 276.3L302.9 273.9C302.8 273.8 302.7 273.8 302.6 273.8C302.5 273.8 302.4 273.8 302.3 273.9L298.7 276C298.5 276.1 298.5 276.3 298.8 276.4L303 278.8C303.1 278.9 303.2 278.9 303.3 278.9C303.3 278.8 303.4 278.8 303.5 278.8Z" fill="#433A51"/>
<path d="M382.8 222.8L393.7 216.5C393.9 216.4 393.9 216.2 393.7 216.1L389.5 213.7C389.4 213.6 389.3 213.6 389.2 213.6C389.1 213.6 389 213.6 388.9 213.7L378 220C377.8 220.1 377.8 220.3 378 220.4L382.2 222.8C382.3 222.9 382.4 222.9 382.5 222.9C382.6 222.9 382.7 222.9 382.8 222.8Z" fill="#433A51"/>
<path d="M385.4 231.4L390.1 228.7C390.3 228.6 390.3 228.4 390 228.3L388.4 227.4C388.3 227.3 388.2 227.3 388.1 227.3C388 227.3 387.9 227.3 387.8 227.4L383 230C382.8 230.1 382.8 230.3 383.1 230.4L384.7 231.3C384.8 231.4 384.9 231.4 385 231.4C385.2 231.5 385.3 231.4 385.4 231.4Z" fill="#433A51"/>
<path d="M391.5 227.8L396.2 225.1C396.4 225 396.4 224.8 396.2 224.7L394.6 223.8C394.5 223.7 394.4 223.7 394.3 223.7C394.2 223.7 394.1 223.7 394 223.8L389.3 226.5C389.1 226.6 389.1 226.8 389.3 226.9L390.9 227.8C391 227.9 391.1 227.9 391.2 227.9C391.3 227.9 391.4 227.9 391.5 227.8Z" fill="#433A51"/>
<path d="M387.3 225.5L392 222.8C392.2 222.7 392.2 222.5 392 222.4L390.4 221.5C390.3 221.4 390.2 221.4 390.1 221.4C390 221.4 389.9 221.4 389.8 221.5L385.1 224.2C384.9 224.3 384.9 224.5 385.1 224.6L386.7 225.5C386.8 225.6 386.9 225.6 387 225.6C387.1 225.6 387.2 225.5 387.3 225.5Z" fill="#433A51"/>
<path d="M397.7 224.3L402.4 221.6C402.6 221.5 402.6 221.3 402.3 221.2L400.7 220.3C400.6 220.2 400.5 220.2 400.4 220.2C400.3 220.2 400.2 220.2 400.1 220.3L395.4 223C395.2 223.1 395.2 223.3 395.4 223.4L397 224.3C397.1 224.4 397.2 224.4 397.3 224.4C397.5 224.4 397.6 224.3 397.7 224.3Z" fill="#433A51"/>
<path d="M376.7 226.3L380.4 224.2C380.6 224.1 380.6 223.9 380.4 223.8L376.2 221.4C376.1 221.3 376 221.3 375.9 221.3C375.8 221.3 375.7 221.3 375.6 221.4L371.9 223.5C371.7 223.6 371.7 223.8 371.9 223.9L376.1 226.3C376.2 226.4 376.3 226.4 376.4 226.4C376.4 226.4 376.5 226.4 376.7 226.3Z" fill="#433A51"/>
<path d="M369.7 230.4L373.4 228.3C373.6 228.2 373.6 228 373.4 227.9L369.2 225.5C369.1 225.4 369 225.4 368.9 225.4C368.8 225.4 368.7 225.4 368.6 225.5L364.9 227.6C364.7 227.7 364.7 227.9 364.9 228L369.1 230.4C369.2 230.5 369.3 230.5 369.4 230.5C369.4 230.5 369.6 230.4 369.7 230.4Z" fill="#433A51"/>
<path d="M362.7 234.4L366.4 232.3C366.6 232.2 366.6 232 366.4 231.9L362.2 229.5C362.1 229.4 362 229.4 361.9 229.4C361.8 229.4 361.7 229.4 361.6 229.5L357.9 231.6C357.7 231.7 357.7 231.9 358 232L362.2 234.4C362.3 234.5 362.4 234.5 362.5 234.5C362.4 234.5 362.6 234.5 362.7 234.4Z" fill="#433A51"/>
<path d="M355.7 238.5L359.4 236.4C359.6 236.3 359.6 236.1 359.4 236L355.2 233.6C355.1 233.5 355 233.5 354.9 233.5C354.8 233.5 354.7 233.5 354.6 233.6L350.9 235.7C350.7 235.8 350.7 236 350.9 236.1L355.1 238.5C355.2 238.6 355.3 238.6 355.4 238.6C355.5 238.5 355.6 238.5 355.7 238.5Z" fill="#433A51"/>
<path d="M348.7 242.5L352.4 240.4C352.6 240.3 352.6 240.1 352.4 240L348.2 237.6C348.1 237.5 348 237.5 347.9 237.5C347.8 237.5 347.7 237.5 347.6 237.6L343.9 239.7C343.7 239.8 343.7 240 343.9 240.1L348.1 242.5C348.2 242.6 348.3 242.6 348.4 242.6C348.5 242.6 348.6 242.5 348.7 242.5Z" fill="#433A51"/>
<path d="M341.7 246.5L345.4 244.4C345.6 244.3 345.6 244.1 345.4 244L341.2 241.6C341.1 241.5 341 241.5 340.9 241.5C340.8 241.5 340.7 241.5 340.6 241.6L336.9 243.7C336.7 243.8 336.7 244 336.9 244.1L341.1 246.5C341.2 246.6 341.3 246.6 341.4 246.6C341.5 246.6 341.6 246.6 341.7 246.5Z" fill="#433A51"/>
<path d="M334.7 250.6L338.4 248.5C338.6 248.4 338.6 248.2 338.4 248.1L334.2 245.7C334.1 245.6 334 245.6 333.9 245.6C333.8 245.6 333.7 245.6 333.6 245.7L329.9 247.8C329.7 247.9 329.7 248.1 329.9 248.2L334.1 250.6C334.2 250.7 334.3 250.7 334.4 250.7C334.5 250.6 334.6 250.6 334.7 250.6Z" fill="#433A51"/>
<path d="M327.7 254.6L331.4 252.5C331.6 252.4 331.6 252.2 331.4 252.1L327.2 249.7C327.1 249.6 327 249.6 326.9 249.6C326.8 249.6 326.7 249.6 326.6 249.7L322.9 251.8C322.7 251.9 322.7 252.1 322.9 252.2L327.1 254.6C327.2 254.7 327.3 254.7 327.4 254.7C327.5 254.7 327.6 254.6 327.7 254.6Z" fill="#433A51"/>
<path d="M320.7 258.6L324.4 256.5C324.6 256.4 324.6 256.2 324.4 256.1L320.2 253.7C320.1 253.6 320 253.6 319.9 253.6C319.8 253.6 319.7 253.6 319.6 253.7L315.9 255.8C315.7 255.9 315.7 256.1 315.9 256.2L320.1 258.6C320.2 258.7 320.3 258.7 320.4 258.7C320.5 258.7 320.6 258.7 320.7 258.6Z" fill="#433A51"/>
<path d="M313.8 262.7L317.5 260.6C317.7 260.5 317.7 260.3 317.4 260.2L313.2 257.8C313.1 257.7 313 257.7 312.9 257.7C312.8 257.7 312.7 257.7 312.6 257.8L308.9 259.9C308.7 260 308.7 260.2 308.9 260.3L313.1 262.7C313.2 262.8 313.3 262.8 313.4 262.8C313.5 262.7 313.6 262.7 313.8 262.7Z" fill="#433A51"/>
<path d="M306.8 266.7L310.5 264.6C310.7 264.5 310.7 264.3 310.5 264.2L306.3 261.8C306.2 261.7 306.1 261.7 306 261.7C305.9 261.7 305.8 261.7 305.7 261.8L302 263.9C301.8 264 301.8 264.2 302 264.3L306.2 266.7C306.3 266.8 306.4 266.8 306.5 266.8C306.5 266.8 306.7 266.7 306.8 266.7Z" fill="#433A51"/>
<path d="M294.4 273.8L304.1 268.2C304.3 268.1 304.3 267.9 304.1 267.8L299.9 265.4C299.8 265.3 299.7 265.3 299.6 265.3C299.5 265.3 299.4 265.3 299.3 265.4L289.6 271C289.4 271.1 289.4 271.3 289.6 271.4L293.8 273.8C293.9 273.9 294 273.9 294.1 273.9C294.2 273.9 294.3 273.9 294.4 273.8Z" fill="#433A51"/>
<path d="M273.2 256.6L269.5 258.7C269.4 258.7 269.3 258.8 269.2 258.8C269.1 258.8 269 258.8 268.9 258.7L264.7 256.3C264.5 256.2 264.5 256 264.7 255.9L268.4 253.8C268.5 253.8 268.6 253.7 268.7 253.7C268.8 253.7 268.9 253.7 269 253.8L273.2 256.2C273.3 256.4 273.3 256.5 273.2 256.6Z" fill="#4E475E"/>
<path d="M280.1 252.6L276.4 254.7C276.3 254.7 276.2 254.8 276.1 254.8C276 254.8 275.9 254.8 275.8 254.7L271.6 252.3C271.4 252.2 271.4 252 271.6 251.9L275.3 249.8C275.4 249.8 275.5 249.7 275.6 249.7C275.7 249.7 275.8 249.7 275.9 249.8L280.1 252.2C280.3 252.3 280.3 252.5 280.1 252.6Z" fill="#4E475E"/>
<path d="M287.1 248.6L283.4 250.7C283.3 250.7 283.2 250.8 283.1 250.8C283 250.8 282.9 250.8 282.8 250.7L278.6 248.3C278.4 248.2 278.4 248 278.6 247.9L282.3 245.8C282.4 245.8 282.5 245.7 282.6 245.7C282.7 245.7 282.8 245.7 282.9 245.8L287.1 248.2C287.3 248.3 287.3 248.5 287.1 248.6Z" fill="#4E475E"/>
<path d="M294.1 244.5L290.4 246.6C290.3 246.6 290.2 246.7 290.1 246.7C290 246.7 289.9 246.7 289.8 246.6L285.6 244.2C285.4 244.1 285.4 243.9 285.6 243.8L289.3 241.7C289.4 241.7 289.5 241.6 289.6 241.6C289.7 241.6 289.8 241.6 289.9 241.7L294.1 244.1C294.3 244.3 294.3 244.4 294.1 244.5Z" fill="#4E475E"/>
<path d="M301.1 240.5L297.4 242.6C297.3 242.6 297.2 242.7 297.1 242.7C297 242.7 296.9 242.7 296.8 242.6L292.6 240.2C292.4 240.1 292.4 239.9 292.6 239.8L296.3 237.7C296.4 237.7 296.5 237.6 296.6 237.6C296.7 237.6 296.8 237.6 296.9 237.7L301.1 240.1C301.3 240.2 301.3 240.4 301.1 240.5Z" fill="#4E475E"/>
<path d="M308.1 236.5L304.4 238.6C304.3 238.6 304.2 238.7 304.1 238.7C304 238.7 303.9 238.7 303.8 238.6L299.6 236.2C299.4 236.1 299.4 235.9 299.6 235.8L303.3 233.7C303.4 233.7 303.5 233.6 303.6 233.6C303.7 233.6 303.8 233.6 303.9 233.7L308.1 236.1C308.3 236.2 308.3 236.4 308.1 236.5Z" fill="#4E475E"/>
<path d="M315.1 232.4L311.4 234.5C311.3 234.5 311.2 234.6 311.1 234.6C311 234.6 310.9 234.6 310.8 234.5L306.6 232.1C306.4 232 306.4 231.8 306.6 231.7L310.3 229.6C310.4 229.6 310.5 229.5 310.6 229.5C310.7 229.5 310.8 229.5 310.9 229.6L315.1 232C315.2 232.1 315.3 232.3 315.1 232.4Z" fill="#4E475E"/>
<path d="M322.1 228.4L318.4 230.5C318.3 230.5 318.2 230.6 318.1 230.6C318 230.6 317.9 230.6 317.8 230.5L313.6 228.1C313.4 228 313.4 227.8 313.5 227.7L317.2 225.6C317.3 225.5 317.4 225.5 317.5 225.5C317.6 225.5 317.7 225.5 317.8 225.6L322 228C322.2 228.1 322.3 228.3 322.1 228.4Z" fill="#4E475E"/>
<path d="M329.1 224.4L325.4 226.5C325.3 226.5 325.2 226.6 325.1 226.6C325 226.6 324.9 226.6 324.8 226.5L320.6 224.1C320.4 224 320.4 223.8 320.6 223.7L324.3 221.6C324.4 221.6 324.5 221.5 324.6 221.5C324.7 221.5 324.8 221.5 324.9 221.6L329.1 224C329.2 224.1 329.2 224.3 329.1 224.4Z" fill="#4E475E"/>
<path d="M336.1 220.3L332.4 222.4C332.3 222.4 332.2 222.5 332.1 222.5C332 222.5 331.9 222.5 331.8 222.4L327.6 220C327.4 219.9 327.4 219.7 327.6 219.6L331.3 217.5C331.4 217.5 331.5 217.4 331.6 217.4C331.7 217.4 331.8 217.4 331.9 217.5L336.1 219.9C336.2 220 336.2 220.2 336.1 220.3Z" fill="#4E475E"/>
<path d="M343 216.3L339.3 218.4C339.2 218.4 339.1 218.5 339 218.5C338.9 218.5 338.8 218.5 338.7 218.4L334.5 216C334.3 215.9 334.3 215.7 334.5 215.6L338.2 213.5C338.3 213.5 338.4 213.4 338.5 213.4C338.6 213.4 338.7 213.4 338.8 213.5L343 215.9C343.2 216 343.2 216.2 343 216.3Z" fill="#4E475E"/>
<path d="M350 212.3L346.3 214.4C346.2 214.4 346.1 214.5 346 214.5C345.9 214.5 345.8 214.5 345.7 214.4L341.5 212C341.3 211.9 341.3 211.7 341.4 211.6L345.1 209.5C345.2 209.5 345.3 209.4 345.4 209.4C345.5 209.4 345.6 209.4 345.7 209.5L349.9 211.9C350.2 212 350.2 212.2 350 212.3Z" fill="#4E475E"/>
<path d="M357 208.2L353.3 210.3C353.2 210.3 353.1 210.4 353 210.4C352.9 210.4 352.8 210.4 352.7 210.3L348.5 207.9C348.3 207.8 348.3 207.6 348.5 207.5L352.2 205.4C352.3 205.4 352.4 205.3 352.5 205.3C352.6 205.3 352.7 205.3 352.8 205.4L357 207.8C357.2 207.9 357.2 208.1 357 208.2Z" fill="#4E475E"/>
<path d="M368.7 201.5L360.4 206.3C360.3 206.3 360.2 206.4 360.1 206.4C360 206.4 359.9 206.4 359.8 206.3L355.6 203.9C355.4 203.8 355.4 203.6 355.5 203.5L363.8 198.7C363.9 198.7 364 198.6 364.1 198.6C364.2 198.6 364.3 198.6 364.4 198.7L368.6 201.1C368.9 201.2 368.9 201.4 368.7 201.5Z" fill="#4E475E"/>
<path d="M373.1 208.2L376.8 206.1C377 206 377 205.8 376.8 205.7L372.6 203.3C372.5 203.2 372.4 203.2 372.3 203.2C372.2 203.2 372.1 203.2 372 203.3L368.3 205.4C368.1 205.5 368.1 205.7 368.3 205.8L372.5 208.2C372.6 208.3 372.7 208.3 372.8 208.3C372.9 208.3 373 208.3 373.1 208.2Z" fill="#4E475E"/>
<path d="M366.1 212.3L369.7 210.2C369.9 210.1 369.9 209.9 369.7 209.8L365.5 207.4C365.4 207.3 365.3 207.3 365.2 207.3C365.1 207.3 365 207.3 364.9 207.4L361.2 209.5C361 209.6 361 209.8 361.2 209.9L365.4 212.3C365.5 212.4 365.6 212.4 365.7 212.4C365.9 212.3 366 212.3 366.1 212.3Z" fill="#4E475E"/>
<path d="M359.1 216.3L362.8 214.2C363 214.1 363 213.9 362.8 213.8L358.6 211.4C358.5 211.3 358.4 211.3 358.3 211.3C358.2 211.3 358.1 211.3 358 211.4L354.3 213.5C354.1 213.6 354.1 213.8 354.4 213.9L358.6 216.3C358.7 216.4 358.8 216.4 358.9 216.4C358.9 216.4 359 216.4 359.1 216.3Z" fill="#4E475E"/>
<path d="M352.2 220.3L355.9 218.2C356.1 218.1 356.1 217.9 355.9 217.8L351.7 215.4C351.6 215.3 351.5 215.3 351.4 215.3C351.3 215.3 351.2 215.3 351.1 215.4L347.4 217.5C347.2 217.6 347.2 217.8 347.4 217.9L351.6 220.3C351.7 220.4 351.8 220.4 351.9 220.4C351.9 220.4 352 220.4 352.2 220.3Z" fill="#4E475E"/>
<path d="M345.2 224.4L348.9 222.3C349.1 222.2 349.1 222 348.9 221.9L344.7 219.5C344.6 219.4 344.5 219.4 344.4 219.4C344.3 219.4 344.2 219.4 344.1 219.5L340.4 221.6C340.2 221.7 340.2 221.9 340.4 222L344.6 224.4C344.7 224.5 344.8 224.5 344.9 224.5C344.9 224.5 345.1 224.4 345.2 224.4Z" fill="#4E475E"/>
<path d="M338.2 228.4L341.9 226.3C342.1 226.2 342.1 226 341.9 225.9L337.7 223.5C337.6 223.4 337.5 223.4 337.4 223.4C337.3 223.4 337.2 223.4 337.1 223.5L333.4 225.6C333.2 225.7 333.2 225.9 333.4 226L337.6 228.4C337.7 228.5 337.8 228.5 337.9 228.5C338 228.5 338.1 228.5 338.2 228.4Z" fill="#4E475E"/>
<path d="M331.2 232.5L334.9 230.4C335.1 230.3 335.1 230.1 334.9 230L330.7 227.6C330.6 227.5 330.5 227.5 330.4 227.5C330.3 227.5 330.2 227.5 330.1 227.6L326.5 229.7C326.3 229.8 326.3 230 326.5 230.1L330.7 232.5C330.8 232.6 330.9 232.6 331 232.6C331 232.5 331.1 232.5 331.2 232.5Z" fill="#4E475E"/>
<path d="M324.2 236.5L327.9 234.4C328.1 234.3 328.1 234.1 327.9 234L323.7 231.6C323.6 231.5 323.5 231.5 323.4 231.5C323.3 231.5 323.2 231.5 323.1 231.6L319.4 233.7C319.2 233.8 319.2 234 319.4 234.1L323.6 236.5C323.7 236.6 323.8 236.6 323.9 236.6C324 236.6 324.1 236.5 324.2 236.5Z" fill="#4E475E"/>
<path d="M317.2 240.5L320.9 238.4C321.1 238.3 321.1 238.1 320.9 238L316.7 235.6C316.6 235.5 316.5 235.5 316.4 235.5C316.3 235.5 316.2 235.5 316.1 235.6L312.5 237.7C312.3 237.8 312.3 238 312.5 238.1L316.7 240.5C316.8 240.6 316.9 240.6 317 240.6C317 240.6 317.1 240.6 317.2 240.5Z" fill="#4E475E"/>
<path d="M310.2 244.6L313.9 242.5C314.1 242.4 314.1 242.2 313.8 242.1L309.6 239.7C309.5 239.6 309.4 239.6 309.3 239.6C309.2 239.6 309.1 239.6 309 239.7L305.4 241.8C305.2 241.9 305.2 242.1 305.4 242.2L309.6 244.6C309.7 244.7 309.8 244.7 309.9 244.7C310 244.6 310.1 244.6 310.2 244.6Z" fill="#4E475E"/>
<path d="M303.2 248.6L306.9 246.5C307.1 246.4 307.1 246.2 306.9 246.1L302.7 243.7C302.6 243.6 302.5 243.6 302.4 243.6C302.3 243.6 302.2 243.6 302.1 243.7L298.5 245.8C298.3 245.9 298.3 246.1 298.5 246.2L302.7 248.6C302.8 248.7 302.9 248.7 303 248.7C303 248.7 303.1 248.6 303.2 248.6Z" fill="#4E475E"/>
<path d="M296.2 252.6L299.8 250.5C300 250.4 300 250.2 299.8 250.1L295.6 247.7C295.5 247.6 295.4 247.6 295.3 247.6C295.2 247.6 295.1 247.6 295 247.7L291.3 249.8C291.1 249.9 291.1 250.1 291.3 250.2L295.5 252.6C295.6 252.7 295.7 252.7 295.8 252.7C296 252.7 296.1 252.7 296.2 252.6Z" fill="#4E475E"/>
<path d="M289.3 256.7L292.9 254.6C293.1 254.5 293.1 254.3 292.9 254.2L288.7 251.8C288.6 251.7 288.5 251.7 288.4 251.7C288.3 251.7 288.2 251.7 288.1 251.8L284.4 253.9C284.2 254 284.2 254.2 284.5 254.3L288.7 256.7C288.8 256.8 288.9 256.8 289 256.8C289 256.7 289.1 256.7 289.3 256.7Z" fill="#4E475E"/>
<path d="M277.6 263.4L285.9 258.6C286.1 258.5 286.1 258.3 285.8 258.2L281.6 255.8C281.5 255.7 281.4 255.7 281.3 255.7C281.2 255.7 281.1 255.7 281 255.8L272.7 260.6C272.5 260.7 272.5 260.9 272.7 261L276.9 263.4C277 263.5 277.1 263.5 277.2 263.5C277.3 263.5 277.5 263.5 277.6 263.4Z" fill="#4E475E"/>
<path d="M375.3 216.3L384.8 210.8C385 210.7 385 210.5 384.8 210.4L380.6 208C380.5 207.9 380.4 207.9 380.3 207.9C380.2 207.9 380.1 207.9 380 208L370.5 213.5C370.3 213.6 370.3 213.8 370.5 213.9L374.7 216.3C374.8 216.4 374.9 216.4 375 216.4C375.1 216.4 375.2 216.3 375.3 216.3Z" fill="#4E475E"/>
<path d="M367.8 220.6L371.5 218.5C371.7 218.4 371.7 218.2 371.5 218.1L367.3 215.7C367.2 215.6 367.1 215.6 367 215.6C366.9 215.6 366.8 215.6 366.7 215.7L363 217.8C362.8 217.9 362.8 218.1 363.1 218.2L367.3 220.6C367.4 220.7 367.5 220.7 367.6 220.7C367.6 220.7 367.7 220.7 367.8 220.6Z" fill="#4E475E"/>
<path d="M360.9 224.6L364.6 222.5C364.8 222.4 364.8 222.2 364.6 222.1L360.4 219.7C360.3 219.6 360.2 219.6 360.1 219.6C360 219.6 359.9 219.6 359.8 219.7L356.1 221.8C355.9 221.9 355.9 222.1 356.1 222.2L360.3 224.6C360.4 224.7 360.5 224.7 360.6 224.7C360.6 224.7 360.8 224.7 360.9 224.6Z" fill="#4E475E"/>
<path d="M353.9 228.7L357.6 226.6C357.8 226.5 357.8 226.3 357.6 226.2L353.4 223.8C353.3 223.7 353.2 223.7 353.1 223.7C353 223.7 352.9 223.7 352.8 223.8L349.1 225.9C348.9 226 348.9 226.2 349.2 226.3L353.4 228.7C353.5 228.8 353.6 228.8 353.7 228.8C353.6 228.7 353.8 228.7 353.9 228.7Z" fill="#4E475E"/>
<path d="M346.9 232.7L350.6 230.6C350.8 230.5 350.8 230.3 350.6 230.2L346.4 227.8C346.3 227.7 346.2 227.7 346.1 227.7C346 227.7 345.9 227.7 345.8 227.8L342.1 229.9C341.9 230 341.9 230.2 342.1 230.3L346.3 232.7C346.4 232.8 346.5 232.8 346.6 232.8C346.7 232.8 346.8 232.8 346.9 232.7Z" fill="#4E475E"/>
<path d="M339.9 236.7L343.6 234.6C343.8 234.5 343.8 234.3 343.6 234.2L339.4 231.8C339.3 231.7 339.2 231.7 339.1 231.7C339 231.7 338.9 231.7 338.8 231.8L335.1 233.9C334.9 234 334.9 234.2 335.1 234.3L339.3 236.7C339.4 236.8 339.5 236.8 339.6 236.8C339.7 236.8 339.8 236.8 339.9 236.7Z" fill="#4E475E"/>
<path d="M332.9 240.8L336.6 238.7C336.8 238.6 336.8 238.4 336.6 238.3L332.4 235.9C332.3 235.8 332.2 235.8 332.1 235.8C332 235.8 331.9 235.8 331.8 235.9L328.1 238C327.9 238.1 327.9 238.3 328.1 238.4L332.3 240.8C332.4 240.9 332.5 240.9 332.6 240.9C332.7 240.9 332.8 240.8 332.9 240.8Z" fill="#4E475E"/>
<path d="M325.9 244.8L329.6 242.7C329.8 242.6 329.8 242.4 329.6 242.3L325.4 239.9C325.3 239.8 325.2 239.8 325.1 239.8C325 239.8 324.9 239.8 324.8 239.9L321 242C320.8 242.1 320.8 242.3 321 242.4L325.2 244.8C325.3 244.9 325.4 244.9 325.5 244.9C325.7 244.9 325.8 244.9 325.9 244.8Z" fill="#4E475E"/>
<path d="M318.9 248.9L322.6 246.8C322.8 246.7 322.8 246.5 322.6 246.4L318.4 244C318.3 243.9 318.2 243.9 318.1 243.9C318 243.9 317.9 243.9 317.8 244L314 246C313.8 246.1 313.8 246.3 314 246.4L318.2 248.8C318.3 248.9 318.4 248.9 318.5 248.9C318.7 248.9 318.8 248.9 318.9 248.9Z" fill="#4E475E"/>
<path d="M311.9 252.9L315.6 250.8C315.8 250.7 315.8 250.5 315.6 250.4L311.4 248C311.3 247.9 311.2 247.9 311.1 247.9C311 247.9 310.9 247.9 310.8 248L307 250C306.8 250.1 306.8 250.3 307 250.4L311.2 252.8C311.3 252.9 311.4 252.9 311.5 252.9C311.7 253 311.8 252.9 311.9 252.9Z" fill="#4E475E"/>
<path d="M304.9 256.9L308.6 254.8C308.8 254.7 308.8 254.5 308.6 254.4L304.4 252C304.3 251.9 304.2 251.9 304.1 251.9C304 251.9 303.9 251.9 303.8 252L300.1 254.1C299.9 254.2 299.9 254.4 300.1 254.5L304.3 256.9C304.4 257 304.5 257 304.6 257C304.7 257 304.8 257 304.9 256.9Z" fill="#4E475E"/>
<path d="M298 261L301.7 258.9C301.9 258.8 301.9 258.6 301.7 258.5L297.5 256.1C297.4 256 297.3 256 297.2 256C297.1 256 297 256 296.9 256.1L293.2 258.2C293 258.3 293 258.5 293.2 258.6L297.4 261C297.5 261.1 297.6 261.1 297.7 261.1C297.7 261 297.8 261 298 261Z" fill="#4E475E"/>
<path d="M285.6 268.1L293.9 263.3C294.1 263.2 294.1 263 293.9 262.9L289.7 260.5C289.6 260.4 289.5 260.4 289.4 260.4C289.3 260.4 289.2 260.4 289.1 260.5L280.8 265.3C280.6 265.4 280.6 265.6 280.8 265.7L285 268.1C285.1 268.2 285.2 268.2 285.3 268.2C285.4 268.1 285.5 268.1 285.6 268.1Z" fill="#4E475E"/>
<path d="M378.5 234.8L382.8 232.3C383 232.2 383 232 382.8 231.9L378.6 229.5C378.5 229.4 378.4 229.4 378.3 229.4C378.2 229.4 378.1 229.4 378 229.5L373.7 232C373.5 232.1 373.5 232.3 373.7 232.4L377.9 234.8C378 234.9 378.1 234.9 378.2 234.9C378.2 234.9 378.4 234.9 378.5 234.8Z" fill="#4E475E"/>
<path d="M371.5 238.8L376.2 236.1C376.4 236 376.4 235.8 376.1 235.7L371.9 233.3C371.8 233.2 371.7 233.2 371.6 233.2C371.5 233.2 371.4 233.2 371.3 233.3L366.6 236C366.4 236.1 366.4 236.3 366.7 236.4L370.9 238.8C371 238.9 371.1 238.9 371.2 238.9C371.3 238.9 371.4 238.9 371.5 238.8Z" fill="#4E475E"/>
<path d="M331.5 261.9L368.2 240.7C368.4 240.6 368.4 240.4 368.2 240.3L364 237.9C363.9 237.8 363.8 237.8 363.7 237.8C363.6 237.8 363.5 237.8 363.4 237.9L326.7 259.1C326.5 259.2 326.5 259.4 326.7 259.5L330.9 261.9C331 262 331.1 262 331.2 262C331.2 262 331.3 262 331.5 261.9Z" fill="#4E475E"/>
<path d="M324.5 266L328.1 263.9C328.3 263.8 328.3 263.6 328.1 263.5L323.9 261.1C323.8 261 323.7 261 323.6 261C323.5 261 323.4 261 323.3 261.1L319.7 263.2C319.5 263.3 319.5 263.5 319.7 263.6L323.9 266C324 266.1 324.1 266.1 324.2 266.1C324.2 266.1 324.4 266 324.5 266Z" fill="#4E475E"/>
<path d="M317.5 270L321.1 267.9C321.3 267.8 321.3 267.6 321 267.5L316.8 265.1C316.7 265 316.6 265 316.5 265C316.4 265 316.3 265 316.2 265.1L312.6 267.2C312.4 267.3 312.4 267.5 312.6 267.6L316.8 270C316.9 270.1 317 270.1 317.1 270.1C317.2 270.1 317.4 270.1 317.5 270Z" fill="#4E475E"/>
<path d="M310.5 274.1L314.1 272C314.3 271.9 314.3 271.7 314.1 271.6L309.9 269.2C309.8 269.1 309.7 269.1 309.6 269.1C309.5 269.1 309.4 269.1 309.3 269.2L305.7 271.3C305.5 271.4 305.5 271.6 305.8 271.7L310 274.1C310.1 274.2 310.2 274.2 310.3 274.2C310.3 274.1 310.4 274.1 310.5 274.1Z" fill="#4E475E"/>
<path d="M303.5 278.1L307.1 276C307.3 275.9 307.3 275.7 307.1 275.6L302.9 273.2C302.8 273.1 302.7 273.1 302.6 273.1C302.5 273.1 302.4 273.1 302.3 273.2L298.7 275.3C298.5 275.4 298.5 275.6 298.8 275.7L303 278.1C303.1 278.2 303.2 278.2 303.3 278.2C303.4 278.2 303.4 278.1 303.5 278.1Z" fill="#4E475E"/>
<path d="M382.8 222.2L393.7 215.9C393.9 215.8 393.9 215.6 393.7 215.5L389.5 213.1C389.4 213 389.3 213 389.2 213C389.1 213 389 213 388.9 213.1L378 219.4C377.8 219.5 377.8 219.7 378 219.8L382.2 222.2C382.3 222.3 382.4 222.3 382.5 222.3C382.6 222.2 382.7 222.2 382.8 222.2Z" fill="#4E475E"/>
<path d="M385.4 230.7L390.1 228C390.3 227.9 390.3 227.7 390 227.6L388.4 226.7C388.3 226.6 388.2 226.6 388.1 226.6C388 226.6 387.9 226.6 387.8 226.7L383.1 229.4C382.9 229.5 382.9 229.7 383.2 229.8L384.8 230.7C384.9 230.8 385 230.8 385.1 230.8C385.2 230.8 385.3 230.8 385.4 230.7Z" fill="#4E475E"/>
<path d="M391.5 227.2L396.2 224.5C396.4 224.4 396.4 224.2 396.2 224.1L394.6 223.2C394.5 223.1 394.4 223.1 394.3 223.1C394.2 223.1 394.1 223.1 394 223.2L389.3 225.9C389.1 226 389.1 226.2 389.3 226.3L390.9 227.2C391 227.3 391.1 227.3 391.2 227.3C391.3 227.3 391.4 227.2 391.5 227.2Z" fill="#4E475E"/>
<path d="M387.3 224.8L392 222.1C392.2 222 392.2 221.8 392 221.7L390.4 220.8C390.3 220.7 390.2 220.7 390.1 220.7C390 220.7 389.9 220.7 389.8 220.8L385.1 223.5C384.9 223.6 384.9 223.8 385.1 223.9L386.7 224.8C386.8 224.9 386.9 224.9 387 224.9C387.1 224.9 387.2 224.9 387.3 224.8Z" fill="#4E475E"/>
<path d="M397.7 223.6L402.4 220.9C402.6 220.8 402.6 220.6 402.3 220.5L400.7 219.6C400.6 219.5 400.5 219.5 400.4 219.5C400.3 219.5 400.2 219.5 400.1 219.6L395.4 222.3C395.2 222.4 395.2 222.6 395.4 222.7L397 223.6C397.1 223.7 397.2 223.7 397.3 223.7C397.5 223.7 397.6 223.7 397.7 223.6Z" fill="#4E475E"/>
<path d="M376.7 225.7L380.4 223.6C380.6 223.5 380.6 223.3 380.4 223.2L376.2 220.8C376.1 220.7 376 220.7 375.9 220.7C375.8 220.7 375.7 220.7 375.6 220.8L371.9 222.9C371.7 223 371.7 223.2 371.9 223.3L376.1 225.7C376.2 225.8 376.3 225.8 376.4 225.8C376.4 225.8 376.5 225.7 376.7 225.7Z" fill="#4E475E"/>
<path d="M369.7 229.7L373.4 227.6C373.6 227.5 373.6 227.3 373.4 227.2L369.2 224.8C369.1 224.7 369 224.7 368.9 224.7C368.8 224.7 368.7 224.7 368.6 224.8L364.9 226.9C364.7 227 364.7 227.2 364.9 227.3L369.1 229.7C369.2 229.8 369.3 229.8 369.4 229.8C369.4 229.8 369.6 229.8 369.7 229.7Z" fill="#4E475E"/>
<path d="M362.7 233.8L366.4 231.7C366.6 231.6 366.6 231.4 366.4 231.3L362.2 228.9C362.1 228.8 362 228.8 361.9 228.8C361.8 228.8 361.7 228.8 361.6 228.9L357.9 231C357.7 231.1 357.7 231.3 358 231.4L362.2 233.8C362.3 233.9 362.4 233.9 362.5 233.9C362.4 233.8 362.6 233.8 362.7 233.8Z" fill="#4E475E"/>
<path d="M355.7 237.8L359.4 235.7C359.6 235.6 359.6 235.4 359.4 235.3L355.2 232.9C355.1 232.8 355 232.8 354.9 232.8C354.8 232.8 354.7 232.8 354.6 232.9L350.9 235C350.7 235.1 350.7 235.3 350.9 235.4L355.1 237.8C355.2 237.9 355.3 237.9 355.4 237.9C355.5 237.9 355.6 237.8 355.7 237.8Z" fill="#4E475E"/>
<path d="M348.7 241.8L352.4 239.7C352.6 239.6 352.6 239.4 352.4 239.3L348.2 236.9C348.1 236.8 348 236.8 347.9 236.8C347.8 236.8 347.7 236.8 347.6 236.9L343.9 239C343.7 239.1 343.7 239.3 343.9 239.4L348.1 241.8C348.2 241.9 348.3 241.9 348.4 241.9C348.5 241.9 348.6 241.9 348.7 241.8Z" fill="#4E475E"/>
<path d="M341.7 245.9L345.4 243.8C345.6 243.7 345.6 243.5 345.4 243.4L341.2 241C341.1 240.9 341 240.9 340.9 240.9C340.8 240.9 340.7 240.9 340.6 241L336.9 243.1C336.7 243.2 336.7 243.4 336.9 243.5L341.1 245.9C341.2 246 341.3 246 341.4 246C341.5 245.9 341.6 245.9 341.7 245.9Z" fill="#4E475E"/>
<path d="M334.7 249.9L338.4 247.8C338.6 247.7 338.6 247.5 338.4 247.4L334.2 245C334.1 244.9 334 244.9 333.9 244.9C333.8 244.9 333.7 244.9 333.6 245L329.9 247.1C329.7 247.2 329.7 247.4 329.9 247.5L334.1 249.9C334.2 250 334.3 250 334.4 250C334.5 250 334.6 249.9 334.7 249.9Z" fill="#4E475E"/>
<path d="M327.7 253.9L331.4 251.8C331.6 251.7 331.6 251.5 331.4 251.4L327.2 249C327.1 248.9 327 248.9 326.9 248.9C326.8 248.9 326.7 248.9 326.6 249L322.9 251.1C322.7 251.2 322.7 251.4 322.9 251.5L327.1 253.9C327.2 254 327.3 254 327.4 254C327.5 254 327.6 254 327.7 253.9Z" fill="#4E475E"/>
<path d="M320.7 258L324.4 255.9C324.6 255.8 324.6 255.6 324.4 255.5L320.2 253.1C320.1 253 320 253 319.9 253C319.8 253 319.7 253 319.6 253.1L315.9 255.2C315.7 255.3 315.7 255.5 315.9 255.6L320.1 258C320.2 258.1 320.3 258.1 320.4 258.1C320.5 258 320.6 258 320.7 258Z" fill="#4E475E"/>
<path d="M313.8 262L317.5 259.9C317.7 259.8 317.7 259.6 317.4 259.5L313.2 257.1C313.1 257 313 257 312.9 257C312.8 257 312.7 257 312.6 257.1L308.9 259.2C308.7 259.3 308.7 259.5 308.9 259.6L313.1 262C313.2 262.1 313.3 262.1 313.4 262.1C313.5 262.1 313.6 262.1 313.8 262Z" fill="#4E475E"/>
<path d="M306.8 266L310.5 263.9C310.7 263.8 310.7 263.6 310.5 263.5L306.3 261.1C306.2 261 306.1 261 306 261C305.9 261 305.8 261 305.7 261.1L302 263.2C301.8 263.3 301.8 263.5 302 263.6L306.2 266C306.3 266.1 306.4 266.1 306.5 266.1C306.5 266.1 306.7 266.1 306.8 266Z" fill="#4E475E"/>
<path d="M294.4 273.1L304.1 267.5C304.3 267.4 304.3 267.2 304.1 267.1L299.9 264.7C299.8 264.6 299.7 264.6 299.6 264.6C299.5 264.6 299.4 264.6 299.3 264.7L289.6 270.3C289.4 270.4 289.4 270.6 289.6 270.7L293.8 273.1C293.9 273.2 294 273.2 294.1 273.2C294.2 273.2 294.3 273.2 294.4 273.1Z" fill="#4E475E"/>
<path d="M421.9 261.5C421.9 261.7 421.8 261.9 421.6 262.1C421.5 262.3 421.3 262.4 421.1 262.5L375.2 289C374.1 289.6 372.8 290 371.6 290C370.3 290 369.1 289.7 368 289L339.4 272.5C339.2 272.4 339 272.2 338.9 272.1C338.8 271.9 338.7 271.7 338.6 271.5C338.5 271.2 338.6 270.8 338.7 270.5C338.8 270.2 339.1 269.9 339.4 269.8L385.4 243.3C386.5 242.7 387.8 242.3 389 242.3C390.3 242.3 391.5 242.6 392.6 243.3L421.2 259.8C421.5 260 421.7 260.2 421.9 260.5C422.1 260.8 422 261.1 421.9 261.5Z" fill="#D3D4E3"/>
<path d="M421.9 261.5C421.9 261.7 421.8 261.9 421.6 262.1C421.5 262.3 421.3 262.4 421.1 262.5L375.2 289C374.1 289.6 372.8 290 371.6 290C370.3 290 369.1 289.7 368 289L339.4 272.5C339.2 272.4 339 272.3 338.8 272.1C338.7 271.9 338.6 271.7 338.6 271.4C338.6 271.2 338.7 270.9 338.8 270.7C338.9 270.5 339.1 270.4 339.4 270.3L385.4 243.8C386.5 243.2 387.8 242.8 389 242.8C390.3 242.8 391.5 243.1 392.6 243.8L421.2 260.3C421.4 260.4 421.6 260.6 421.7 260.7C421.8 261 421.9 261.3 421.9 261.5Z" fill="#EFEFF4"/>
<path opacity="0.4" d="M187.3 299.1C184.1 299.2 180.9 298.5 178.1 297L101.7 257C100.4 256.3 99.3002 255.3 98.5002 254.1C97.7002 252.9 97.3002 251.5 97.2002 250C97.2002 248.6 97.5002 247.1 98.2002 245.9C98.9002 244.6 100 243.6 101.2 242.8L116.7 233.5C117.7 232.9 118.8 232.8 119.9 233C121 233.3 121.9 233.9 122.5 234.8C123.1 235.7 123.3 236.8 123 237.9C122.7 239 122.1 239.9 121.1 240.4L105.6 249.7L182 289.7C183.5 290.5 185.3 290.9 187 290.8C188.7 290.8 190.4 290.3 191.9 289.4L198.9 285.2C201.9 283.4 205.3 282.4 208.9 282.3C212.4 282.2 215.9 283 219 284.6L225.9 288.2C227.5 289.1 229.4 289.5 231.2 289.4C233.1 289.3 234.9 288.8 236.5 287.9L258.3 274.9C259.3 274.3 260.4 274.2 261.5 274.4C262.6 274.7 263.5 275.3 264.1 276.2C264.4 276.7 264.6 277.2 264.7 277.7C264.8 278.2 264.8 278.8 264.6 279.3C264.5 279.8 264.2 280.3 263.9 280.8C263.6 281.2 263.2 281.6 262.7 281.9L240.9 294.9C238.1 296.6 234.8 297.5 231.5 297.6C228.2 297.7 224.9 296.9 221.9 295.4L215 291.8C213.2 290.9 211.2 290.4 209.1 290.4C207.1 290.5 205.1 291 203.3 292.1L196.3 296.3C193.6 298.1 190.5 299 187.3 299.1Z" fill="#2E2647"/>
<path d="M188 295.5C184.8 295.6 181.7 294.8 178.9 293.4L104.2 254.7C102.9 254 101.8 253.1 101.1 251.9C100.3 250.7 99.8999 249.4 99.8999 248C99.8999 246.6 100.2 245.3 100.9 244.1C101.6 242.9 102.6 241.9 103.9 241.2L119.3 232.5C120.2 232 121.4 231.8 122.4 232.1C123.5 232.3 124.4 233 125 233.9C125.6 234.8 125.7 235.8 125.5 236.8C125.2 237.8 124.6 238.7 123.6 239.2L108.2 247.9L183 286.6C184.5 287.4 186.2 287.8 187.9 287.7C189.6 287.7 191.3 287.2 192.8 286.4L199.8 282.5C202.8 280.8 206.2 279.9 209.6 279.8C213.1 279.7 216.5 280.5 219.5 282.1L226.3 285.6C227.9 286.4 229.7 286.8 231.5 286.8C233.3 286.8 235.1 286.3 236.7 285.4L258.3 273.2C259.2 272.7 260.4 272.5 261.4 272.8C262.5 273 263.4 273.7 264 274.6C264.3 275 264.5 275.5 264.5 276C264.6 276.5 264.6 277 264.4 277.5C264.3 278 264 278.5 263.7 278.9C263.4 279.3 263 279.7 262.5 279.9L240.9 292.1C238.1 293.7 234.9 294.6 231.6 294.6C228.3 294.7 225.1 293.9 222.2 292.4L215.4 288.9C213.6 288 211.6 287.5 209.6 287.6C207.6 287.6 205.6 288.2 203.9 289.1L196.9 293C194.2 294.6 191.1 295.4 188 295.5Z" fill="#0090C6"/>
<path d="M287.5 145.4V218.8L366.9 172.9V99.5L287.5 145.4Z" fill="#00A0DB"/>
<path opacity="0.8" d="M291.7 147.3V220.7L371.1 174.8V101.4L291.7 147.3Z" fill="#00BAFF"/>
<path d="M307.7 207.3L307.6 207.4C307 207.8 306.5 207.4 306.5 206.5V187.9C306.5 187.5 306.6 187.1 306.8 186.7C307 186.3 307.3 186 307.6 185.7L307.7 185.6C308.3 185.2 308.8 185.6 308.8 186.5V205.1C308.8 205.5 308.7 205.9 308.5 206.3C308.3 206.7 308 207.1 307.7 207.3Z" fill="white"/>
<path d="M313.7 203.8L313.6 203.9C313 204.3 312.5 203.9 312.5 203V180.1C312.5 179.7 312.6 179.2 312.8 178.9C313 178.5 313.3 178.2 313.6 177.9L313.7 177.8C314.3 177.4 314.8 177.8 314.8 178.7V201.6C314.8 202 314.7 202.5 314.5 202.8C314.3 203.3 314.1 203.6 313.7 203.8Z" fill="white"/>
<path d="M320.2 200.1L320.1 200.2C319.5 200.6 319 200.2 319 199.3V170.7C319 170.3 319.1 169.8 319.3 169.5C319.5 169.1 319.8 168.8 320.1 168.5L320.2 168.4C320.8 168 321.3 168.4 321.3 169.3V197.9C321.3 198.3 321.2 198.7 321 199.1C320.8 199.5 320.5 199.8 320.2 200.1Z" fill="white"/>
<path d="M326.6 196.4L326.5 196.5C325.9 196.9 325.4 196.5 325.4 195.6V162C325.4 161.6 325.5 161.1 325.7 160.8C325.9 160.4 326.2 160.1 326.5 159.8L326.6 159.7C327.2 159.3 327.7 159.7 327.7 160.6V194.2C327.7 194.6 327.6 195.1 327.4 195.4C327.3 195.8 327 196.1 326.6 196.4Z" fill="white"/>
<path d="M333.1 192.6L333 192.7C332.4 193.1 331.9 192.7 331.9 191.8V158.2C331.9 157.8 332 157.3 332.2 157C332.4 156.6 332.7 156.3 333 156L333.1 155.9C333.7 155.5 334.2 155.9 334.2 156.8V190.4C334.2 190.8 334.1 191.3 333.9 191.6C333.7 192.1 333.4 192.4 333.1 192.6Z" fill="white"/>
<path d="M339.5 188.9L339.4 189C338.8 189.4 338.3 189 338.3 188.1V148.3C338.3 147.9 338.4 147.4 338.6 147.1C338.8 146.7 339.1 146.4 339.4 146.1L339.5 146C340.1 145.6 340.6 146 340.6 146.9V186.7C340.6 187.1 340.5 187.6 340.3 187.9C340.2 188.3 339.9 188.7 339.5 188.9Z" fill="white"/>
<path d="M346 185.2L345.9 185.3C345.3 185.7 344.8 185.3 344.8 184.4V141.2C344.8 140.8 344.9 140.3 345.1 140C345.3 139.6 345.6 139.3 345.9 139L346 138.9C346.6 138.5 347.1 138.9 347.1 139.8V183C347.1 183.4 347 183.9 346.8 184.2C346.6 184.6 346.3 184.9 346 185.2Z" fill="white"/>
<path d="M352.4 181.5L352.3 181.6C351.7 182 351.2 181.6 351.2 180.7V134.8C351.2 134.4 351.3 133.9 351.5 133.6C351.7 133.2 352 132.9 352.3 132.6L352.4 132.5C353 132.1 353.5 132.5 353.5 133.4V179.3C353.5 179.7 353.4 180.2 353.2 180.5C353.1 180.9 352.8 181.2 352.4 181.5Z" fill="white"/>
<path d="M356.2 117.5L348.5 122.6L349.6 124.2L341.2 135.6C341.1 135.8 340.9 136 340.7 136.1C340.5 136.2 340.3 136.3 340 136.3H339.8C339.6 136.3 339.3 136.4 339.1 136.5C338.9 136.6 338.7 136.8 338.6 137L329.2 149.7C329.1 149.9 328.9 150.1 328.7 150.2C328.5 150.3 328.3 150.4 328 150.4L325.7 149.9C325.5 149.9 325.2 150 325 150.1C324.8 150.2 324.6 150.4 324.5 150.6L320.5 156.2C320.4 156.4 320.2 156.6 320 156.7C319.8 156.8 319.6 156.9 319.3 156.9L318.5 156.8C318.3 156.8 318 156.9 317.8 157C317.6 157.1 317.4 157.3 317.3 157.5L302.8 177C302.5 177.3 302.4 177.7 302.3 178.1C302.2 178.5 302.3 178.9 302.4 179.3L302.5 179.4C302.8 179.9 303.5 179.8 304.1 179.1L317.3 161.3C317.4 161.1 317.6 160.9 317.8 160.8C318 160.7 318.2 160.6 318.5 160.6L319.3 160.7C319.5 160.7 319.8 160.6 320 160.5C320.2 160.4 320.4 160.2 320.5 160L324.5 154.4C324.6 154.2 324.8 154 325 153.9C325.2 153.8 325.4 153.7 325.7 153.7L328 154.1C328.2 154.1 328.5 154 328.7 153.9C328.9 153.8 329.1 153.6 329.2 153.4L338.6 140.7C338.7 140.5 338.9 140.3 339.1 140.2C339.3 140.1 339.5 140 339.8 140H340C340.2 140 340.5 139.9 340.7 139.8C340.9 139.7 341.1 139.5 341.2 139.3L350.9 126.2L352 127.8L356.2 117.5Z" fill="white"/>
<path d="M451.6 180.7L425.7 165.6L436.6 159.3C437.4 158.8 438.1 158.1 438.6 157.3C439.1 156.5 439.3 155.5 439.3 154.5C439.3 153.5 439 152.6 438.6 151.7C438.1 150.9 437.4 150.2 436.6 149.7L435.6 149.1C433.2 147.7 430.4 147 427.6 147C424.8 147 422 147.7 419.6 149.2L392.4 164.9C391.6 165.4 390.9 166.1 390.4 166.9C389.9 167.7 389.7 168.7 389.7 169.6C389.7 170.6 390 171.5 390.4 172.3C390.8 173.1 391.6 173.8 392.4 174.3L393.8 175.1C396.2 176.5 398.9 177.2 401.6 177.2C404.3 177.2 407 176.5 409.4 175.1L421.1 168.4L446.8 183.6L451.6 180.7Z" fill="#9D9FA2"/>
<path d="M453.3 96.4L461.9 91.4L479.1 101.3L470.5 106.3V116.3L469.2 117.1L453.3 106.4V96.4Z" fill="#5B63AC"/>
<path d="M437.6 88.9C451.5 64.8 451.5 38.8 437.6 30.7C423.7 22.7 401.1 35.7 387.2 59.8C373.3 83.9 373.3 109.9 387.2 118C401.2 126 423.7 113 437.6 88.9Z" fill="#009DD7"/>
<path d="M442.7 91.5C456.6 67.4 456.6 41.4 442.7 33.3C428.8 25.3 406.2 38.3 392.3 62.4C378.4 86.5 378.4 112.5 392.3 120.6C406.2 128.6 428.8 115.6 442.7 91.5Z" fill="#00BAFF"/>
<path d="M435.8 87.5C445.9 70 445.9 51.2 435.8 45.3C425.7 39.5 409.4 48.9 399.3 66.4C389.2 83.9 389.2 102.7 399.3 108.6C409.3 114.4 425.7 105 435.8 87.5Z" fill="#0090C6"/>
<path d="M430 84.2C436.9 72.3 436.9 59.4 430 55.4C423.1 51.4 412 57.9 405.1 69.8C398.2 81.7 398.2 94.6 405.1 98.6C411.9 102.6 423.1 96.1 430 84.2Z" fill="#40CCFF"/>
<path d="M426.3 71.9C426.3 77.5 422.3 84.4 417.5 87.2C412.6 90 408.7 87.7 408.7 82.1C408.7 76.5 412.7 69.6 417.5 66.8C422.4 64 426.3 66.3 426.3 71.9Z" fill="white"/>
<path d="M459.4 104.1L415.9 79C415.4 78.7 415 78.2 414.8 77.6C414.6 77 414.7 76.4 415 75.9C415.3 75.4 415.8 75 416.4 74.8C417 74.6 417.6 74.7 418.1 75L461.6 100.1L459.4 104.1Z" fill="#4E475E"/>
<path d="M451.9 97.1L460.5 92.1L477.7 102L469.1 107V117L451.9 107V97.1Z" fill="url(#paint5_linear)"/>
<path d="M447 183.4L452.4 180.3L463.2 186.5L457.8 189.6V195.9L447 189.6V183.4Z" fill="#9D9FA2"/>
<path d="M665 186.1L612.1 155.6L539.4 197.6L592.3 228.1L665 186.1Z" fill="white"/>
<path d="M665 186.1V193.7L592.3 235.7V228L665 186.1Z" fill="#E6E7E8"/>
<path d="M592.3 228L539.4 197.5V205.1L592.3 235.6V228Z" fill="#E6E7E8"/>
<path d="M658.4 194.4L645.2 202L649.7 204.5L662.8 196.9L658.4 194.4Z" fill="white"/>
<path d="M662.7 200V197L649.6 204.6V207.7L662.7 200Z" fill="#E6E7E8"/>
<path d="M649.6 204.6L645.1 202.1V205.2L649.6 207.7V204.6Z" fill="#E6E7E8"/>
<path d="M605.5 197.5H592.3L539.4 167H552.6L605.5 197.5Z" fill="#39CAFF"/>
<path d="M618.7 189.9L565.8 159.4L552.6 167L605.5 197.5L618.7 189.9Z" fill="#EBEBEC"/>
<path d="M618.7 212.8V189.9L605.5 197.5H592.3V228L618.7 212.8Z" fill="#009DD7"/>
<path d="M592.3 197.5L539.4 167V197.5L592.3 228V197.5Z" fill="#00BAFF"/>
<path d="M620.9 196.2L592.3 212.7V220.3L620.9 203.8V196.2Z" fill="url(#paint6_linear)"/>
<path d="M620.9 196.2L618.7 195.3L592.3 210.2V212.7L620.9 196.2Z" fill="#DEDEEA"/>
<path d="M592.3 212.8L536.8 180.8V188.4L592.3 220.4V212.8Z" fill="url(#paint7_linear)"/>
<path d="M592.3 212.8V210.3L539.4 179.9L536.8 180.8L592.3 212.8Z" fill="#D2D3E2"/>
<path d="M587.2 184.8L587.6 185.1L600.8 192.7L609.5 187.7L609.9 187.4L596.3 179.5L587.2 184.8Z" fill="#CDC3C3"/>
<path d="M587.6 185L600.8 192.6L609.5 187.6L596.3 180L587.6 185Z" fill="#EEF2F9"/>
<path d="M560.7 169.5L561.1 169.8L574.3 177.4L583 172.4L583.4 172.1L569.8 164.2L560.7 169.5Z" fill="#CDC3C3"/>
<path d="M561.1 169.7L574.3 177.3L583 172.3L569.8 164.7L561.1 169.7Z" fill="#EEF2F9"/>
<path d="M588.5 184L600.1 190.7C600.3 190.8 600.6 190.9 600.8 190.9C601.1 190.9 601.3 190.8 601.5 190.7L608.5 186.6C608.6 186.5 608.7 186.5 608.7 186.4C608.8 186.3 608.8 186.2 608.8 186.1C608.8 186 608.8 185.9 608.7 185.8C608.6 185.7 608.6 185.6 608.5 185.6L596.9 178.9C596.7 178.8 596.4 178.7 596.2 178.7C595.9 178.7 595.7 178.8 595.5 178.9L588.5 183C588.4 183.1 588.3 183.1 588.3 183.2C588.2 183.3 588.2 183.4 588.2 183.5C588.2 183.6 588.2 183.7 588.3 183.8C588.3 183.8 588.4 183.9 588.5 184Z" fill="#00BAFF"/>
<path opacity="0.8" d="M562 168.7L573.6 175.4C573.8 175.5 574.1 175.6 574.3 175.6C574.5 175.6 574.8 175.5 575 175.4L582 171.3C582.1 171.2 582.2 171.2 582.2 171.1C582.3 171 582.3 170.9 582.3 170.8C582.3 170.7 582.3 170.6 582.2 170.5C582.1 170.4 582.1 170.3 582 170.3L570.4 163.6C570.2 163.5 569.9 163.4 569.7 163.4C569.5 163.4 569.2 163.5 569 163.6L562 167.7C561.9 167.8 561.8 167.8 561.8 167.9C561.7 168 561.7 168.1 561.7 168.2C561.7 168.3 561.7 168.4 561.8 168.5C561.9 168.6 561.9 168.6 562 168.7Z" fill="#00BAFF"/>
</g>
<defs>
<filter id="filter0_d" x="-5" y="-10" width="700" height="500" filterUnits="userSpaceOnUse" color-interpolation-filters="sRGB">
<feFlood flood-opacity="0" result="BackgroundImageFix"/>
<feColorMatrix in="SourceAlpha" type="matrix" values="0 0 0 0 0 0 0 0 0 0 0 0 0 0 0 0 0 0 127 0" result="hardAlpha"/>
<feOffset dy="15"/>
<feGaussianBlur stdDeviation="12.5"/>
<feColorMatrix type="matrix" values="0 0 0 0 0 0 0 0 0 0 0 0 0 0 0 0 0 0 0.25 0"/>
<feBlend mode="normal" in2="BackgroundImageFix" result="effect1_dropShadow"/>
<feBlend mode="normal" in="SourceGraphic" in2="effect1_dropShadow" result="shape"/>
</filter>
<linearGradient id="paint0_linear" x1="158.433" y1="326.477" x2="228.971" y2="326.477" gradientUnits="userSpaceOnUse">
<stop stop-color="#71439A"/>
<stop offset="0.8668" stop-color="#A76CAD"/>
</linearGradient>
<linearGradient id="paint1_linear" x1="222.049" y1="366.882" x2="293.377" y2="366.882" gradientUnits="userSpaceOnUse">
<stop stop-color="#71439A"/>
<stop offset="0.8668" stop-color="#A76CAD"/>
</linearGradient>
<linearGradient id="paint2_linear" x1="156.489" y1="92.8076" x2="250.754" y2="92.8076" gradientUnits="userSpaceOnUse">
<stop stop-color="#71439A"/>
<stop offset="0.8668" stop-color="#A76CAD"/>
</linearGradient>
<linearGradient id="paint3_linear" x1="77.4609" y1="169.463" x2="240.47" y2="169.463" gradientUnits="userSpaceOnUse">
<stop stop-color="#71439A"/>
<stop offset="0.8668" stop-color="#A76CAD"/>
</linearGradient>
<linearGradient id="paint4_linear" x1="93.293" y1="101.039" x2="151.71" y2="101.039" gradientUnits="userSpaceOnUse">
<stop stop-color="#71439A"/>
<stop offset="0.8668" stop-color="#A76CAD"/>
</linearGradient>
<linearGradient id="paint5_linear" x1="451.939" y1="104.581" x2="477.776" y2="104.581" gradientUnits="userSpaceOnUse">
<stop stop-color="#71439A"/>
<stop offset="0.8668" stop-color="#A76CAD"/>
</linearGradient>
<linearGradient id="paint6_linear" x1="592.3" y1="208.323" x2="620.932" y2="208.323" gradientUnits="userSpaceOnUse">
<stop stop-color="#71439A"/>
<stop offset="0.8668" stop-color="#A76CAD"/>
</linearGradient>
<linearGradient id="paint7_linear" x1="536.794" y1="200.568" x2="592.298" y2="200.568" gradientUnits="userSpaceOnUse">
<stop stop-color="#71439A"/>
<stop offset="0.8668" stop-color="#A76CAD"/>
</linearGradient>
</defs>
</svg>
