<svg width="600" height="453" viewBox="0 0 600 453" fill="none" xmlns="http://www.w3.org/2000/svg">
<g filter="url(#filter0_d)">
<path d="M427.7 53.7C427.7 45.9 421.3 39.5 413.5 39.5H154.8C147 39.5 140.6 45.9 140.6 53.7V84.5C140.6 92.3 147 98.7 154.8 98.7H413.6C421.4 98.7 427.8 92.3 427.8 84.5V53.7H427.7Z" fill="#7B7C7F"/>
<path d="M427.8 65.4H140.5V391H427.8V65.4Z" fill="#F1F2F2"/>
<path d="M398.9 103.2C398.9 100.1 396.3 97.5 393.2 97.5H193.9C190.8 97.5 188.2 100.1 188.2 103.2V153.7C188.2 156.8 190.8 159.4 193.9 159.4H393.2C396.3 159.4 398.9 156.8 398.9 153.7V103.2Z" fill="white"/>
<path d="M388.4 218.7C388.4 215.6 385.8 213 382.7 213H197.3C194.2 213 191.6 215.6 191.6 218.7V247.7C191.6 250.8 194.2 253.4 197.3 253.4H382.8C385.9 253.4 388.5 250.8 388.5 247.7V218.7H388.4Z" fill="white"/>
<path d="M187.9 160.8C187.9 157.7 185.3 155.1 182.2 155.1H67.5999C64.4999 155.1 61.8999 157.7 61.8999 160.8V194.5C61.8999 197.6 64.4999 200.2 67.5999 200.2H182.2C185.3 200.2 187.9 197.6 187.9 194.5V160.8Z" fill="url(#paint0_linear)"/>
<path d="M391.8 267C391.8 263.9 389.2 261.3 386.1 261.3H226.7C223.6 261.3 221 263.9 221 267V315.8C221 318.9 223.6 321.5 226.7 321.5H386.1C389.2 321.5 391.8 318.9 391.8 315.8V267Z" fill="url(#paint1_linear)"/>
<path d="M391.9 332.6C391.9 329.5 389.3 326.9 386.2 326.9H226.9C223.8 326.9 221.2 329.5 221.2 332.6V361.5C221.2 364.6 223.8 367.2 226.9 367.2H386.3C389.4 367.2 392 364.6 392 361.5V332.6H391.9Z" fill="url(#paint2_linear)"/>
<path d="M324.3 170C324.3 166.9 321.7 164.3 318.6 164.3H196.8C193.7 164.3 191.1 166.9 191.1 170V173.1C191.1 176.2 193.7 178.8 196.8 178.8H318.5C321.6 178.8 324.2 176.2 324.2 173.1V170H324.3Z" fill="white"/>
<path d="M365.7 187.9C365.7 184.8 363.1 182.2 360 182.2H196.8C193.7 182.2 191.1 184.8 191.1 187.9V200.4C191.1 203.5 193.7 206.1 196.8 206.1H360C363.1 206.1 365.7 203.5 365.7 200.4V187.9Z" fill="white"/>
<path d="M517 305.7H433.7V408.1H517V305.7Z" fill="url(#paint3_linear)"/>
<path d="M221 279.3H163.5C158.8 279.3 154.3 278.4 150.9 276.9C147.6 275.4 145.7 273.3 145.7 271.2V199.8H149.3V271.2C149.3 272.9 150.8 274.5 153.4 275.8C156 277 159.6 277.7 163.4 277.7H221V279.3Z" fill="#7B7C7F"/>
<path d="M296.6 80.2H201.6C196.2 80.2 191.8 83 191.8 86.6V87.4C191.8 90.9 196.2 93.8 201.6 93.8H296.6C302 93.8 306.4 91 306.4 87.4V86.6C306.4 83 302 80.2 296.6 80.2Z" fill="url(#paint4_linear)"/>
<path d="M387.9 112.9C387.9 112 386.6 111.2 385.1 111.2H203.2C201.6 111.2 200.4 112 200.4 112.9C200.4 113.8 201.7 114.6 203.2 114.6H385.1C386.6 114.7 387.9 113.9 387.9 112.9Z" fill="#E6E7E8"/>
<path d="M387.9 124.3C387.9 123.4 386.6 122.6 385.1 122.6H203.2C201.6 122.6 200.4 123.4 200.4 124.3C200.4 125.2 201.7 126 203.2 126H385.1C386.6 126 387.9 125.3 387.9 124.3Z" fill="#E6E7E8"/>
<path d="M387.9 135C387.9 134.1 386.6 133.3 385.1 133.3H203.2C201.6 133.3 200.4 134.1 200.4 135C200.4 135.9 201.7 136.7 203.2 136.7H385.1C386.6 136.7 387.9 135.9 387.9 135Z" fill="#E6E7E8"/>
<path d="M387.9 145.7C387.9 144.8 386.6 144 385.1 144H203.2C201.6 144 200.4 144.8 200.4 145.7C200.4 146.6 201.7 147.4 203.2 147.4H385.1C386.6 147.4 387.9 146.6 387.9 145.7Z" fill="#E6E7E8"/>
<path d="M383.2 246.1C383.2 245.2 381.9 244.4 380.4 244.4H198.4C196.8 244.4 195.6 245.2 195.6 246.1C195.6 247 196.9 247.8 198.4 247.8H380.3C381.9 247.8 383.2 247 383.2 246.1Z" fill="#E6E7E8"/>
<path d="M383.2 237.9C383.2 237 381.9 236.2 380.4 236.2H198.4C196.8 236.2 195.6 237 195.6 237.9C195.6 238.8 196.9 239.6 198.4 239.6H380.3C381.9 239.6 383.2 238.8 383.2 237.9Z" fill="#E6E7E8"/>
<path d="M382.9 228.1C382.9 227.2 381.6 226.4 380.1 226.4H198.1C196.5 226.4 195.3 227.2 195.3 228.1C195.3 229 196.6 229.8 198.1 229.8H380C381.6 229.8 382.9 229 382.9 228.1Z" fill="#E6E7E8"/>
<path d="M382.9 219.5C382.9 218.6 381.6 217.8 380.1 217.8H198.1C196.5 217.8 195.3 218.6 195.3 219.5C195.3 220.4 196.6 221.2 198.1 221.2H380C381.6 221.3 382.9 220.5 382.9 219.5Z" fill="#E6E7E8"/>
<path d="M445.5 255.8H403.2V261.5H490.6V275.4H403.2V280.6H490.6C490.6 280.6 499.7 279.9 499.7 268.2C499.7 256.5 488.8 255.8 488.8 255.8H445.5Z" fill="#00BAFF"/>
<path d="M490.7 261.4H406.5V275.3H490.7V261.4Z" fill="white"/>
<path d="M459.8 280.6H409V286.3H514V300.2H409V305.4H514C514 305.4 525 304.7 525 293C525 281.3 511.9 280.6 511.9 280.6H459.8Z" fill="#009DD7"/>
<path d="M514.1 286.3H412.9V300.2H514.1V286.3Z" fill="white"/>
<path d="M475.6 268.2H486.5V292.2L481.1 287.1L475.8 292.4L475.6 268.2Z" fill="url(#paint5_linear)"/>
<path d="M129.7 351.4H172V357.1H84.6V371H172V376.2H84.6C84.6 376.2 75.5 375.5 75.5 363.8C75.5 352.1 86.4 351.4 86.4 351.4H129.7Z" fill="url(#paint6_linear)"/>
<path d="M84.6001 357H168.8V371H84.6001V357Z" fill="white"/>
<path d="M133.7 376.2H184.5V381.9H79.5V395.8H184.5V401H79.5C79.5 401 68.5 400.3 68.5 388.6C68.5 376.9 81.6 376.2 81.6 376.2H133.7Z" fill="#009DD7"/>
<path d="M79.3999 381.8H180.6V395.7H79.3999V381.8Z" fill="white"/>
<path d="M99.6998 363.8H88.7998V387.8L94.1998 382.7L99.4998 388L99.6998 363.8Z" fill="#C8C8C8"/>
<path d="M125.9 301.9H83.6001V307.6H171V321.5H83.6001V326.7H171C171 326.7 180.1 326 180.1 314.3C180.1 302.6 169.2 301.9 169.2 301.9H125.9Z" fill="#00BAFF"/>
<path d="M171.1 307.5H86.7998V321.4H171V307.5H171.1Z" fill="white"/>
<path d="M121.9 326.7H71.2002V332.4H176.2V346.3H71.2002V351.5H176.2C176.2 351.5 187.2 350.8 187.2 339.1C187.2 327.4 174.1 326.7 174.1 326.7H121.9Z" fill="url(#paint7_linear)"/>
<path d="M176.2 332.4H75V346.3H176.2V332.4Z" fill="white"/>
<path d="M156 314.3H166.9V338.3L161.5 333.2L156.2 338.5L156 314.3Z" fill="url(#paint8_linear)"/>
<path d="M325.1 188.5L413.6 228.4L415 215.3L330.8 176.9L318.3 187.6L325.1 188.5Z" fill="#C8C8C8"/>
<path d="M274.3 105.7C262.7 105.7 251.3 109.2 241.6 115.6C231.9 122.1 224.4 131.3 219.9 142C215.4 152.8 214.3 164.6 216.6 176C218.9 187.4 224.5 197.9 232.7 206.1C240.9 214.3 251.4 219.9 262.8 222.2C274.2 224.5 286.1 223.3 296.8 218.9C307.6 214.4 316.7 206.9 323.2 197.2C329.7 187.5 333.1 176.1 333.1 164.5C333.1 148.9 326.9 133.9 315.9 122.9C304.9 111.9 289.9 105.7 274.3 105.7ZM274.3 213.9C264.5 213.9 255 211 246.9 205.6C238.8 200.2 232.5 192.5 228.7 183.4C225 174.4 224 164.5 225.9 154.9C227.8 145.3 232.5 136.5 239.4 129.6C246.3 122.7 255.1 118 264.7 116.1C274.3 114.2 284.2 115.2 293.2 118.9C302.2 122.6 309.9 129 315.4 137.1C320.8 145.2 323.7 154.8 323.7 164.5C323.7 171 322.4 177.4 319.9 183.4C317.4 189.4 313.8 194.8 309.2 199.4C304.6 204 299.2 207.6 293.2 210.1C287.2 212.6 280.8 213.9 274.3 213.9Z" fill="url(#paint9_linear)"/>
<path d="M274.3 112.3C263.9 112.3 253.7 115.4 245.1 121.2C236.5 127 229.7 135.2 225.7 144.8C221.7 154.4 220.7 165 222.7 175.2C224.7 185.4 229.7 194.8 237.1 202.1C244.5 209.5 253.8 214.5 264 216.5C274.2 218.5 284.8 217.5 294.4 213.5C304 209.5 312.2 202.8 318 194.1C323.8 185.5 326.9 175.3 326.9 164.9C326.9 151 321.4 137.6 311.5 127.7C301.6 117.8 288.2 112.3 274.3 112.3ZM274.3 208.9C265.6 208.9 257.1 206.3 249.8 201.5C242.6 196.7 236.9 189.8 233.6 181.7C230.3 173.6 229.4 164.8 231.1 156.2C232.8 147.6 237 139.8 243.2 133.6C249.4 127.4 257.2 123.2 265.8 121.5C274.4 119.8 283.2 120.7 291.3 124C299.4 127.3 306.2 133 311.1 140.2C315.9 147.4 318.5 156 318.5 164.7C318.5 170.5 317.4 176.2 315.1 181.6C312.9 186.9 309.6 191.8 305.5 195.9C301.4 200 296.5 203.2 291.2 205.5C285.8 207.8 280.1 208.9 274.3 208.9Z" fill="url(#paint10_linear)"/>
<path opacity="0.34" d="M274.3 213.9C301.6 213.9 323.7 191.8 323.7 164.5C323.7 137.2 301.6 115.1 274.3 115.1C247 115.1 224.9 137.2 224.9 164.5C224.9 191.8 247 213.9 274.3 213.9Z" fill="#CBCBCB"/>
<path d="M464.4 254.8L459.3 252.5L398.4 225.5L406.5 207.4L414.4 211.2L423.9 215.8L467.8 237.1L472.7 239.5C474.2 251.6 464.4 254.8 464.4 254.8Z" fill="#7B7C7F"/>
<path d="M464.4 254.8L459.3 252.5C459.3 252.5 468.8 249.1 467.9 237L472.8 239.4C474.2 251.6 464.4 254.8 464.4 254.8Z" fill="url(#paint11_linear)"/>
<path d="M202.3 335.8V336.1C202.3 335.9 202.3 335.8 202.3 335.8Z" stroke="#FFED00" stroke-width="0.25" stroke-miterlimit="10"/>
<path d="M386.8 398.3H352.1V410.5H386.1L386.8 398.3Z" fill="#009DD7"/>
<path d="M463.9 396.5H383.7V412.2H463.9V396.5Z" fill="url(#paint12_linear)"/>
<path d="M430.4 389.8H450C450.6 389.8 451.2 390 451.6 390.5C452 390.9 452.3 391.5 452.3 392.1V396.6H456.6V385.4H430.6C430 385.4 429.4 385.6 429 386.1C428.6 386.5 428.3 387.1 428.3 387.7C428.3 388 428.4 388.3 428.5 388.6C428.6 388.9 428.8 389.1 429 389.3C429.2 389.5 429.5 389.7 429.7 389.8C429.8 389.8 430.1 389.8 430.4 389.8Z" fill="url(#paint13_linear)"/>
<path d="M352.1 398.3L342.1 401.5V407.4L352.1 410.5V398.3Z" fill="url(#paint14_linear)"/>
<path d="M342 401.5L329.1 404.8L342 407.3V401.5Z" fill="#C2C2C2"/>
<path d="M380.7 400.1H354V401.3H380.6V400.1H380.7Z" fill="white"/>
<path d="M380.7 404.1H354V405.3H380.6V404.1H380.7Z" fill="white"/>
<path d="M380.7 407.6H354V408.8H380.6V407.6H380.7Z" fill="white"/>
<path d="M435.1 396.5H399.3V400.6H435.1V396.5Z" fill="white"/>
<path d="M423.8 394.5H407.8V396.6H423.8V394.5Z" fill="#00BAFF"/>
<path d="M507.4 330.4C507.4 332 506.1 333.2 504.6 333.2H445.6C444 333.2 442.8 331.9 442.8 330.4V314.7C442.8 313.1 444.1 311.9 445.6 311.9H504.6C506.2 311.9 507.4 313.2 507.4 314.7V330.4Z" fill="white"/>
<path d="M507.4 340.1C507.4 341.6 506.1 342.9 504.6 342.9H445.6C444 342.9 442.8 341.6 442.8 340.1C442.8 338.6 444.1 337.3 445.6 337.3H504.6C506.1 337.3 507.4 338.5 507.4 340.1Z" fill="white"/>
<path d="M235.9 284.3C241.036 284.3 245.2 280.136 245.2 275C245.2 269.864 241.036 265.7 235.9 265.7C230.764 265.7 226.6 269.864 226.6 275C226.6 280.136 230.764 284.3 235.9 284.3Z" fill="white"/>
<path d="M433.6 77.5999C436.8 64.0999 428.6 50.6 415.1 47.4C401.6 44.2 388.1 52.4 384.9 65.9C381.7 79.3999 389.9 92.8999 403.4 96.0999C416.8 99.3999 430.3 91.0999 433.6 77.5999Z" fill="url(#paint15_linear)"/>
<path d="M406.2 86.8L391.7 76.8L394.1 73.3L405.1 80.9L421 58L424.5 60.4L406.2 86.8Z" fill="white"/>
<path d="M178.4 165.9C178.4 165.1 177.1 164.4 175.6 164.4H96.0998C94.4998 164.4 93.2998 165.1 93.2998 165.9C93.2998 166.7 94.5998 167.4 96.0998 167.4H175.6C177.2 167.4 178.4 166.7 178.4 165.9Z" fill="white"/>
<path d="M387.6 272.1C387.6 271.3 386.3 270.6 384.8 270.6H254.8C253.2 270.6 252 271.3 252 272.1C252 272.9 253.3 273.6 254.8 273.6H384.7C386.3 273.5 387.6 272.9 387.6 272.1Z" fill="white"/>
<path d="M386.9 280.6C386.9 279.8 385.6 279.1 384.1 279.1H254.2C252.6 279.1 251.4 279.8 251.4 280.6C251.4 281.4 252.7 282.1 254.2 282.1H384.1C385.7 282.1 386.9 281.5 386.9 280.6Z" fill="white"/>
<path d="M362.5 357.9C362.5 357.1 361.2 356.4 359.7 356.4H229.7C228.1 356.4 226.9 357.1 226.9 357.9C226.9 358.7 228.2 359.4 229.7 359.4H359.6C361.2 359.4 362.5 358.7 362.5 357.9Z" fill="white"/>
<path d="M386.9 290C386.9 289.2 385.6 288.5 384.1 288.5H228.1C226.5 288.5 225.3 289.2 225.3 290C225.3 290.8 226.6 291.5 228.1 291.5H384.1C385.7 291.5 386.9 290.8 386.9 290Z" fill="white"/>
<path d="M386.9 297.7C386.9 296.9 385.6 296.2 384.1 296.2H228.1C226.5 296.2 225.3 296.9 225.3 297.7C225.3 298.5 226.6 299.2 228.1 299.2H384.1C385.7 299.2 386.9 298.6 386.9 297.7Z" fill="white"/>
<path d="M386.9 305.3C386.9 304.5 385.6 303.8 384.1 303.8H228.1C226.5 303.8 225.3 304.5 225.3 305.3C225.3 306.1 226.6 306.8 228.1 306.8H384.1C385.7 306.8 386.9 306.1 386.9 305.3Z" fill="white"/>
<path d="M386.9 313.7C386.9 312.9 385.6 312.2 384.1 312.2H228.1C226.5 312.2 225.3 312.9 225.3 313.7C225.3 314.5 226.6 315.2 228.1 315.2H384.1C385.7 315.2 386.9 314.6 386.9 313.7Z" fill="white"/>
<path d="M386.9 332.7C386.9 331.9 385.6 331.2 384.1 331.2H228.1C226.5 331.2 225.3 331.9 225.3 332.7C225.3 333.5 226.6 334.2 228.1 334.2H384.1C385.7 334.2 386.9 333.5 386.9 332.7Z" fill="white"/>
<path d="M386.9 340.7C386.9 339.9 385.6 339.2 384.1 339.2H228.1C226.5 339.2 225.3 339.9 225.3 340.7C225.3 341.5 226.6 342.2 228.1 342.2H384.1C385.7 342.2 386.9 341.5 386.9 340.7Z" fill="white"/>
<path d="M386.9 348.7C386.9 347.9 385.6 347.2 384.1 347.2H228.1C226.5 347.2 225.3 347.9 225.3 348.7C225.3 349.5 226.6 350.2 228.1 350.2H384.1C385.7 350.1 386.9 349.5 386.9 348.7Z" fill="white"/>
<path d="M178.6 173.8C178.6 173 177.3 172.3 175.8 172.3H96.3C94.7 172.3 93.5 173 93.5 173.8C93.5 174.6 94.8 175.3 96.3 175.3H175.8C177.3 175.3 178.6 174.6 178.6 173.8Z" fill="white"/>
<path d="M178.6 181.4C178.6 180.6 177.3 179.9 175.8 179.9H96.3C94.7 179.9 93.5 180.6 93.5 181.4C93.5 182.2 94.8 182.9 96.3 182.9H175.8C177.3 182.9 178.6 182.2 178.6 181.4Z" fill="white"/>
<path d="M178.6 189.7C178.6 188.9 177.3 188.2 175.8 188.2H96.3C94.7 188.2 93.5 188.9 93.5 189.7C93.5 190.5 94.8 191.2 96.3 191.2H175.8C177.3 191.2 178.6 190.5 178.6 189.7Z" fill="white"/>
<path d="M78.4999 186.3C84.6303 186.3 89.5999 181.33 89.5999 175.2C89.5999 169.07 84.6303 164.1 78.4999 164.1C72.3695 164.1 67.3999 169.07 67.3999 175.2C67.3999 181.33 72.3695 186.3 78.4999 186.3Z" fill="white"/>
</g>
<defs>
<filter id="filter0_d" x="-25" y="-10" width="650" height="500" filterUnits="userSpaceOnUse" color-interpolation-filters="sRGB">
<feFlood flood-opacity="0" result="BackgroundImageFix"/>
<feColorMatrix in="SourceAlpha" type="matrix" values="0 0 0 0 0 0 0 0 0 0 0 0 0 0 0 0 0 0 127 0" result="hardAlpha"/>
<feOffset dy="15"/>
<feGaussianBlur stdDeviation="12.5"/>
<feColorMatrix type="matrix" values="0 0 0 0 0 0 0 0 0 0 0 0 0 0 0 0 0 0 0.25 0"/>
<feBlend mode="normal" in2="BackgroundImageFix" result="effect1_dropShadow"/>
<feBlend mode="normal" in="SourceGraphic" in2="effect1_dropShadow" result="shape"/>
</filter>
<linearGradient id="paint0_linear" x1="61.9667" y1="177.638" x2="187.912" y2="177.638" gradientUnits="userSpaceOnUse">
<stop stop-color="#71439A"/>
<stop offset="0.8668" stop-color="#A76CAD"/>
</linearGradient>
<linearGradient id="paint1_linear" x1="221.066" y1="291.435" x2="391.823" y2="291.435" gradientUnits="userSpaceOnUse">
<stop stop-color="#42B4E7"/>
<stop offset="1" stop-color="#B1E2F8"/>
</linearGradient>
<linearGradient id="paint2_linear" x1="221.186" y1="347.087" x2="391.943" y2="347.087" gradientUnits="userSpaceOnUse">
<stop stop-color="#42B4E7"/>
<stop offset="1" stop-color="#B1E2F8"/>
</linearGradient>
<linearGradient id="paint3_linear" x1="433.658" y1="356.917" x2="516.948" y2="356.917" gradientUnits="userSpaceOnUse">
<stop stop-color="#42B4E7"/>
<stop offset="1" stop-color="#B1E2F8"/>
</linearGradient>
<linearGradient id="paint4_linear" x1="191.798" y1="86.9358" x2="306.448" y2="86.9358" gradientUnits="userSpaceOnUse">
<stop stop-color="#42B4E7"/>
<stop offset="1" stop-color="#B1E2F8"/>
</linearGradient>
<linearGradient id="paint5_linear" x1="475.579" y1="280.308" x2="486.469" y2="280.308" gradientUnits="userSpaceOnUse">
<stop stop-color="#71439A"/>
<stop offset="0.8668" stop-color="#A76CAD"/>
</linearGradient>
<linearGradient id="paint6_linear" x1="75.4106" y1="363.771" x2="171.968" y2="363.771" gradientUnits="userSpaceOnUse">
<stop stop-color="#71439A"/>
<stop offset="0.8668" stop-color="#A76CAD"/>
</linearGradient>
<linearGradient id="paint7_linear" x1="71.1567" y1="339.123" x2="187.172" y2="339.123" gradientUnits="userSpaceOnUse">
<stop stop-color="#42B4E7"/>
<stop offset="1" stop-color="#B1E2F8"/>
</linearGradient>
<linearGradient id="paint8_linear" x1="155.957" y1="326.398" x2="166.847" y2="326.398" gradientUnits="userSpaceOnUse">
<stop stop-color="#71439A"/>
<stop offset="0.8668" stop-color="#A76CAD"/>
</linearGradient>
<linearGradient id="paint9_linear" x1="215.43" y1="164.547" x2="333.158" y2="164.547" gradientUnits="userSpaceOnUse">
<stop stop-color="#71439A"/>
<stop offset="0.8668" stop-color="#A76CAD"/>
</linearGradient>
<linearGradient id="paint10_linear" x1="221.738" y1="164.86" x2="326.85" y2="164.86" gradientUnits="userSpaceOnUse">
<stop stop-color="#71439A"/>
<stop offset="0.8668" stop-color="#A76CAD"/>
</linearGradient>
<linearGradient id="paint11_linear" x1="459.296" y1="245.903" x2="472.881" y2="245.903" gradientUnits="userSpaceOnUse">
<stop stop-color="#71439A"/>
<stop offset="0.8668" stop-color="#A76CAD"/>
</linearGradient>
<linearGradient id="paint12_linear" x1="383.71" y1="404.382" x2="463.86" y2="404.382" gradientUnits="userSpaceOnUse">
<stop stop-color="#71439A"/>
<stop offset="0.8668" stop-color="#A76CAD"/>
</linearGradient>
<linearGradient id="paint13_linear" x1="428.141" y1="390.952" x2="456.407" y2="390.952" gradientUnits="userSpaceOnUse">
<stop stop-color="#71439A"/>
<stop offset="0.8668" stop-color="#A76CAD"/>
</linearGradient>
<linearGradient id="paint14_linear" x1="342.039" y1="404.382" x2="352.057" y2="404.382" gradientUnits="userSpaceOnUse">
<stop stop-color="#71439A"/>
<stop offset="0.8668" stop-color="#A76CAD"/>
</linearGradient>
<linearGradient id="paint15_linear" x1="384.126" y1="71.7823" x2="434.276" y2="71.7823" gradientUnits="userSpaceOnUse">
<stop stop-color="#42B4E7"/>
<stop offset="1" stop-color="#B1E2F8"/>
</linearGradient>
</defs>
</svg>
