<svg width="600" height="461" viewBox="0 0 600 461" fill="none" xmlns="http://www.w3.org/2000/svg">
<g filter="url(#filter0_d)">
<path d="M443.17 41.4192C443.17 34.0481 437.122 28 429.751 28H185.18C177.809 28 171.761 34.0481 171.761 41.4192V70.5258C171.761 77.8969 177.809 83.945 185.18 83.945H429.751C437.122 83.945 443.17 77.8969 443.17 70.5258V41.4192Z" fill="#7B7C7F"/>
<path d="M443.17 52.476H171.667V360.174H443.17V52.476V52.476Z" fill="#EAEAEA"/>
<path d="M512.44 284.572H433.72V381.342H512.44V284.572Z" fill="url(#paint0_linear)"/>
<path d="M380.043 88.9536H222.792C211.357 88.9536 202.002 93.7732 202.002 99.7268V135.165C202.002 141.119 211.263 145.938 222.792 145.938H380.043C391.478 145.938 400.833 141.119 400.833 135.165V99.7268C400.739 93.7732 391.478 88.9536 380.043 88.9536Z" fill="white"/>
<path d="M232.715 259.624H178.376C173.935 259.624 169.682 258.773 166.469 257.356C163.351 255.938 161.555 253.954 161.555 251.969V184.495H164.957V251.969C164.957 253.576 166.375 255.088 168.832 256.316C171.289 257.45 174.691 258.112 178.282 258.112H232.715V259.624Z" fill="#7B7C7F"/>
<path d="M381.555 239.4H244.811C238.196 239.4 232.715 242.802 232.715 247.055V290.998C232.715 295.251 238.101 298.653 244.811 298.653H381.555C388.17 298.653 393.651 295.251 393.651 290.998V247.055C393.557 242.802 388.17 239.4 381.555 239.4Z" fill="url(#paint1_linear)"/>
<path d="M297.259 170.509H216.933C212.302 170.509 208.617 174.194 208.617 178.825V179.77C208.617 184.4 212.302 188.086 216.933 188.086H297.259C301.89 188.086 305.576 184.4 305.576 179.77V178.825C305.576 174.289 301.89 170.509 297.259 170.509Z" fill="white"/>
<path d="M298.677 153.309H217.027C212.397 153.309 208.617 155.955 208.617 159.357V160.113C208.617 163.421 212.397 166.161 217.027 166.161H298.677C303.308 166.161 307.088 163.515 307.088 160.113V159.357C307.182 156.05 303.402 153.309 298.677 153.309Z" fill="white"/>
<path d="M304.158 71.4708H214.381C209.278 71.4708 205.12 74.1169 205.12 77.5189V78.275C205.12 81.5825 209.278 84.3231 214.381 84.3231H304.158C309.261 84.3231 313.419 81.677 313.419 78.275V77.5189C313.419 74.1169 309.261 71.4708 304.158 71.4708Z" fill="url(#paint2_linear)"/>
<path d="M383.35 193H216.933C212.302 193 208.617 196.686 208.617 201.316V219.838C208.617 224.469 212.302 228.155 216.933 228.155H383.445C388.076 228.155 391.761 224.469 391.761 219.838V201.316C391.667 196.78 387.981 193 383.35 193Z" fill="white"/>
<path d="M390.438 100.766H213.153V102.373H390.438V100.766Z" fill="#E6E7E8"/>
<path d="M381.555 205.002H216.555V206.608H381.555V205.002Z" fill="#E6E7E8"/>
<path d="M381.555 215.019H216.555V216.625H381.555V215.019Z" fill="#E6E7E8"/>
<path d="M391.761 113.997H213.153V115.603H391.667V113.997H391.761Z" fill="#E6E7E8"/>
<path d="M391.1 129.117H213.153V130.723H391.1V129.117Z" fill="#E6E7E8"/>
<path d="M389.021 248.756H258.608V250.079H388.926V248.756H389.021Z" fill="white"/>
<path d="M389.021 261.514H258.608V262.837H388.926V261.514H389.021Z" fill="white"/>
<path d="M387.792 274.366H242.826V275.689H387.792V274.366Z" fill="white"/>
<path d="M387.792 286.557H242.826V287.88H387.792V286.557Z" fill="white"/>
<path opacity="0.78" d="M189.622 139.984H94.5533C86.5206 139.984 80 143.954 80 148.868V175.801C80 180.715 86.5206 184.684 94.5533 184.684H189.716C197.749 184.684 204.27 180.715 204.27 175.801V148.868C204.175 143.954 197.655 139.984 189.622 139.984Z" fill="url(#paint3_linear)"/>
<path d="M382.028 302.055H244.338C237.629 302.055 232.148 304.701 232.148 308.009V341.935C232.148 345.242 237.629 347.888 244.338 347.888H382.028C388.737 347.888 394.218 345.242 394.218 341.935V308.009C394.218 304.701 388.737 302.055 382.028 302.055Z" fill="url(#paint4_linear)"/>
<path d="M193.308 154.349H112.792V156.333H193.308V154.349Z" fill="white"/>
<path d="M193.308 166.823H112.792V168.808H193.308V166.823Z" fill="white"/>
<path d="M444.871 237.416H404.897V242.802H487.491V255.938H404.897V260.852H487.491C487.491 260.852 496.091 260.191 496.091 249.134C496.091 238.077 485.79 237.416 485.79 237.416H444.871Z" fill="#00BAFF"/>
<path d="M487.586 242.708H408.015V255.844H487.586V242.708Z" fill="white"/>
<path d="M458.385 260.852H410.378V266.239H509.605V279.375H410.378V284.289H509.605C509.605 284.289 520 283.627 520 272.571C520 261.514 507.62 260.852 507.62 260.852H458.385Z" fill="#009DD7"/>
<path d="M509.699 266.239H414.064V279.375H509.699V266.239Z" fill="white"/>
<path d="M473.316 249.134H483.617V271.814L478.514 266.995L473.505 272.003L473.316 249.134Z" fill="url(#paint5_linear)"/>
<path d="M146.435 327.759H186.409V333.146H103.814V346.282H186.409V351.196H103.814C103.814 351.196 95.2148 350.534 95.2148 339.478C95.2148 328.421 105.515 327.759 105.515 327.759H146.435Z" fill="url(#paint6_linear)"/>
<path d="M103.814 333.052H183.385V346.282H103.814V333.052Z" fill="white"/>
<path d="M150.215 351.196H198.222V356.582H98.9948V369.718H198.222V374.632H98.9948C98.9948 374.632 88.5996 373.971 88.5996 362.914C88.5996 351.857 100.979 351.196 100.979 351.196H150.215Z" fill="#009DD7"/>
<path d="M98.9003 356.488H194.536V369.624H98.9003V356.488Z" fill="white"/>
<path d="M118.084 339.478H107.784V362.158L112.887 357.339L117.895 362.347L118.084 339.478Z" fill="#C8C8C8"/>
<path d="M142.844 280.981H102.869V286.368H185.464V299.503H102.869V304.418H185.464C185.464 304.418 194.064 303.756 194.064 292.699C194.064 281.643 183.763 280.981 183.763 280.981H142.844Z" fill="#00BAFF"/>
<path d="M185.558 286.273H105.893V299.409H185.464V286.273H185.558Z" fill="white"/>
<path d="M139.064 304.417H91.1512V309.804H190.378V322.94H91.1512V327.854H190.378C190.378 327.854 200.773 327.192 200.773 316.136C200.773 305.079 188.393 304.417 188.393 304.417H139.064Z" fill="url(#paint7_linear)"/>
<path d="M190.378 309.804H94.7422V322.94H190.378V309.804Z" fill="white"/>
<path d="M171.289 292.699H181.589V315.38L176.486 310.56L171.478 315.569L171.289 292.699Z" fill="url(#paint8_linear)"/>
<path d="M331.091 173.816L414.725 211.522L416.048 199.143L336.478 162.854L324.665 172.966L331.091 173.816Z" fill="#C8C8C8"/>
<path d="M283.084 95.5687C272.122 95.5687 261.349 98.8763 252.182 104.924C243.015 111.067 235.928 119.761 231.675 129.873C227.423 140.079 226.383 151.23 228.557 162.003C230.73 172.777 236.022 182.699 243.771 190.448C251.521 198.198 261.443 203.49 272.216 205.663C282.99 207.837 294.235 206.703 304.347 202.545C314.553 198.292 323.153 191.204 329.296 182.038C335.438 172.871 338.651 162.098 338.651 151.136C338.651 136.393 332.792 122.218 322.397 111.823C312.002 101.428 297.826 95.5687 283.084 95.5687ZM283.084 197.82C273.823 197.82 264.845 195.079 257.191 189.976C249.536 184.873 243.582 177.596 239.991 168.997C236.495 160.491 235.55 151.136 237.345 142.064C239.141 132.991 243.582 124.675 250.103 118.155C256.624 111.634 264.94 107.192 274.012 105.397C283.084 103.601 292.44 104.546 300.945 108.043C309.45 111.54 316.727 117.588 321.924 125.242C327.027 132.897 329.768 141.969 329.768 151.136C329.768 157.278 328.539 163.326 326.177 168.997C323.814 174.667 320.412 179.77 316.065 184.117C311.718 188.464 306.615 191.866 300.945 194.229C295.275 196.591 289.227 197.82 283.084 197.82Z" fill="url(#paint9_linear)"/>
<path d="M283.084 101.806C273.256 101.806 263.617 104.735 255.49 110.216C247.363 115.698 240.936 123.447 237.156 132.519C233.376 141.591 232.431 151.608 234.321 161.247C236.211 170.887 240.936 179.77 247.93 186.668C254.923 193.661 263.711 198.387 273.351 200.277C282.99 202.167 293.007 201.222 302.079 197.442C311.151 193.661 318.9 187.33 324.381 179.108C329.863 170.981 332.792 161.342 332.792 151.514C332.792 138.378 327.594 125.715 318.239 116.359C308.883 107.003 296.22 101.806 283.084 101.806ZM283.084 193.094C274.863 193.094 266.83 190.637 259.931 186.101C253.127 181.565 247.741 175.045 244.622 167.39C241.503 159.735 240.653 151.419 242.259 143.292C243.866 135.165 247.835 127.794 253.694 121.935C259.553 116.076 266.924 112.106 275.052 110.5C283.179 108.893 291.495 109.744 299.149 112.862C306.804 115.981 313.23 121.368 317.861 128.172C322.397 134.976 324.854 143.103 324.854 151.325C324.854 156.806 323.814 162.192 321.641 167.295C319.562 172.304 316.443 176.935 312.569 180.809C308.694 184.684 304.064 187.708 299.055 189.881C293.952 192.055 288.565 193.094 283.084 193.094Z" fill="url(#paint10_linear)"/>
<path opacity="0.34" d="M283.084 197.82C308.883 197.82 329.768 176.935 329.768 151.136C329.768 125.337 308.883 104.452 283.084 104.452C257.285 104.452 236.4 125.337 236.4 151.136C236.4 176.935 257.285 197.82 283.084 197.82Z" fill="#CBCBCB"/>
<path d="M462.732 236.471L457.912 234.297L400.361 208.782L408.015 191.677L415.481 195.268L424.459 199.615L465.945 219.744L470.576 222.012C471.993 233.447 462.732 236.471 462.732 236.471Z" fill="#7B7C7F"/>
<path d="M462.732 236.471L457.912 234.297C457.912 234.297 466.89 231.084 466.04 219.65L470.67 221.918C471.993 233.447 462.732 236.471 462.732 236.471Z" fill="url(#paint11_linear)"/>
<path d="M215.043 313.017V313.301C215.043 313.112 215.043 313.017 215.043 313.017Z" stroke="#FFED00" stroke-width="0.25" stroke-miterlimit="10"/>
<path d="M389.399 372.081H356.607V383.61H388.737L389.399 372.081Z" fill="#009DD7"/>
<path d="M462.259 370.38H386.469V385.217H462.259V370.38Z" fill="url(#paint12_linear)"/>
<path d="M430.601 364.048H449.124C449.691 364.048 450.258 364.237 450.636 364.71C451.014 365.088 451.297 365.655 451.297 366.222V370.474H455.361V359.89H430.79C430.223 359.89 429.656 360.079 429.278 360.552C428.9 360.93 428.617 361.497 428.617 362.064C428.617 362.347 428.711 362.631 428.806 362.914C428.9 363.198 429.089 363.387 429.278 363.576C429.467 363.765 429.751 363.954 429.94 364.048C430.034 364.048 430.318 364.048 430.601 364.048Z" fill="url(#paint13_linear)"/>
<path d="M356.607 372.081L347.156 375.105V380.68L356.607 383.61V372.081Z" fill="url(#paint14_linear)"/>
<path d="M347.062 375.105L334.871 378.223L347.062 380.586V375.105Z" fill="#C2C2C2"/>
<path d="M383.634 373.782H358.402V374.916H383.54V373.782H383.634Z" fill="white"/>
<path d="M383.634 377.562H358.402V378.696H383.54V377.562H383.634Z" fill="white"/>
<path d="M383.634 380.869H358.402V382.003H383.54V380.869H383.634Z" fill="white"/>
<path d="M435.043 370.38H401.211V374.254H435.043V370.38Z" fill="white"/>
<path d="M424.364 368.49H409.244V370.474H424.364V368.49Z" fill="#00BAFF"/>
<path d="M503.368 290.431H442.225V310.655H503.368V290.431Z" fill="white"/>
<path d="M503.368 314.435H442.225V319.727H503.368V314.435Z" fill="white"/>
<path d="M98.0498 171.737C103.843 171.737 108.539 167.041 108.539 161.247C108.539 155.454 103.843 150.758 98.0498 150.758C92.2565 150.758 87.5601 155.454 87.5601 161.247C87.5601 167.041 92.2565 171.737 98.0498 171.737Z" fill="white"/>
<path d="M246.796 264.349C251.649 264.349 255.584 260.414 255.584 255.56C255.584 250.706 251.649 246.771 246.796 246.771C241.942 246.771 238.007 250.706 238.007 255.56C238.007 260.414 241.942 264.349 246.796 264.349Z" fill="white"/>
<path d="M387.792 312.828H242.826V314.151H387.792V312.828Z" fill="white"/>
<path d="M387.792 323.79H242.826V325.113H387.792V323.79Z" fill="white"/>
<path d="M387.792 334.186H242.826V335.509H387.792V334.186Z" fill="white"/>
<path d="M433.625 69.0137C436.649 56.256 428.9 43.4983 416.143 40.4742C403.385 37.4502 390.627 45.1993 387.603 57.957C384.579 70.7148 392.328 83.4725 405.086 86.4966C417.749 89.6151 430.507 81.7715 433.625 69.0137Z" fill="url(#paint15_linear)"/>
<path d="M407.732 77.708L394.029 68.2578L396.297 64.9502L406.693 72.1323L421.718 50.4915L425.026 52.7595L407.732 77.708Z" fill="white"/>
</g>
<defs>
<filter id="filter0_d" x="-50" y="-25" width="700" height="550" filterUnits="userSpaceOnUse" color-interpolation-filters="sRGB">
<feFlood flood-opacity="0" result="BackgroundImageFix"/>
<feColorMatrix in="SourceAlpha" type="matrix" values="0 0 0 0 0 0 0 0 0 0 0 0 0 0 0 0 0 0 127 0" result="hardAlpha"/>
<feOffset dy="25"/>
<feGaussianBlur stdDeviation="25"/>
<feColorMatrix type="matrix" values="0 0 0 0 0 0 0 0 0 0 0 0 0 0 0 0 0 0 0.25 0"/>
<feBlend mode="normal" in2="BackgroundImageFix" result="effect1_dropShadow"/>
<feBlend mode="normal" in="SourceGraphic" in2="effect1_dropShadow" result="shape"/>
</filter>
<linearGradient id="paint0_linear" x1="433.68" y1="332.974" x2="512.39" y2="332.974" gradientUnits="userSpaceOnUse">
<stop stop-color="#42B4E7"/>
<stop offset="1" stop-color="#B1E2F8"/>
</linearGradient>
<linearGradient id="paint1_linear" x1="232.752" y1="269.006" x2="393.563" y2="269.006" gradientUnits="userSpaceOnUse">
<stop stop-color="#42B4E7"/>
<stop offset="1" stop-color="#B1E2F8"/>
</linearGradient>
<linearGradient id="paint2_linear" x1="205.119" y1="77.8363" x2="313.465" y2="77.8363" gradientUnits="userSpaceOnUse">
<stop stop-color="#42B4E7"/>
<stop offset="1" stop-color="#B1E2F8"/>
</linearGradient>
<linearGradient id="paint3_linear" x1="79.99" y1="162.29" x2="204.187" y2="162.29" gradientUnits="userSpaceOnUse">
<stop stop-color="#71439A"/>
<stop offset="0.8668" stop-color="#A76CAD"/>
</linearGradient>
<linearGradient id="paint4_linear" x1="232.172" y1="324.959" x2="394.218" y2="324.959" gradientUnits="userSpaceOnUse">
<stop stop-color="#42B4E7"/>
<stop offset="1" stop-color="#B1E2F8"/>
</linearGradient>
<linearGradient id="paint5_linear" x1="473.297" y1="260.577" x2="483.588" y2="260.577" gradientUnits="userSpaceOnUse">
<stop stop-color="#71439A"/>
<stop offset="0.8668" stop-color="#A76CAD"/>
</linearGradient>
<linearGradient id="paint6_linear" x1="95.1303" y1="339.451" x2="186.379" y2="339.451" gradientUnits="userSpaceOnUse">
<stop stop-color="#71439A"/>
<stop offset="0.8668" stop-color="#A76CAD"/>
</linearGradient>
<linearGradient id="paint7_linear" x1="91.1101" y1="316.157" x2="200.747" y2="316.157" gradientUnits="userSpaceOnUse">
<stop stop-color="#42B4E7"/>
<stop offset="1" stop-color="#B1E2F8"/>
</linearGradient>
<linearGradient id="paint8_linear" x1="171.248" y1="304.132" x2="181.539" y2="304.132" gradientUnits="userSpaceOnUse">
<stop stop-color="#71439A"/>
<stop offset="0.8668" stop-color="#A76CAD"/>
</linearGradient>
<linearGradient id="paint9_linear" x1="227.451" y1="151.18" x2="338.706" y2="151.18" gradientUnits="userSpaceOnUse">
<stop stop-color="#71439A"/>
<stop offset="0.8668" stop-color="#A76CAD"/>
</linearGradient>
<linearGradient id="paint10_linear" x1="233.412" y1="151.476" x2="332.745" y2="151.476" gradientUnits="userSpaceOnUse">
<stop stop-color="#71439A"/>
<stop offset="0.8668" stop-color="#A76CAD"/>
</linearGradient>
<linearGradient id="paint11_linear" x1="457.909" y1="228.063" x2="470.747" y2="228.063" gradientUnits="userSpaceOnUse">
<stop stop-color="#71439A"/>
<stop offset="0.8668" stop-color="#A76CAD"/>
</linearGradient>
<linearGradient id="paint12_linear" x1="386.479" y1="377.829" x2="462.222" y2="377.829" gradientUnits="userSpaceOnUse">
<stop stop-color="#71439A"/>
<stop offset="0.8668" stop-color="#A76CAD"/>
</linearGradient>
<linearGradient id="paint13_linear" x1="428.467" y1="365.137" x2="455.179" y2="365.137" gradientUnits="userSpaceOnUse">
<stop stop-color="#71439A"/>
<stop offset="0.8668" stop-color="#A76CAD"/>
</linearGradient>
<linearGradient id="paint14_linear" x1="347.098" y1="377.828" x2="356.566" y2="377.828" gradientUnits="userSpaceOnUse">
<stop stop-color="#71439A"/>
<stop offset="0.8668" stop-color="#A76CAD"/>
</linearGradient>
<linearGradient id="paint15_linear" x1="386.872" y1="63.516" x2="434.264" y2="63.516" gradientUnits="userSpaceOnUse">
<stop stop-color="#42B4E7"/>
<stop offset="1" stop-color="#B1E2F8"/>
</linearGradient>
</defs>
</svg>
