<svg width="600" height="450" viewBox="0 0 600 450" fill="none" xmlns="http://www.w3.org/2000/svg">
<g clip-path="url(#clip0)">
<g filter="url(#filter0_d)">
<path d="M447.258 337.983C447.258 337.983 475.461 273.054 511.047 258.413L518.859 287.656L516.789 256.812C516.789 256.812 563.82 252.634 581.047 260.482C581.047 260.482 563.625 303.156 542.336 314.284L517.609 306.358L539.406 316.587C539.406 316.587 528.781 322.171 521.711 323.615L500.578 315.338L517.023 325.294C516.984 325.255 480.734 341.653 447.258 337.983Z" fill="#63CDF6"/>
<path d="M577.144 261.731C577.144 261.731 469.526 314.206 446.714 334.001Z" fill="url(#paint0_linear)"/>
<path d="M577.141 261.731C566.164 267.627 555.187 273.445 544.172 279.223L527.688 287.93C522.18 290.819 516.672 293.708 511.203 296.675C505.695 299.565 500.227 302.532 494.758 305.499C489.289 308.428 483.859 311.434 478.391 314.44C477.023 315.182 475.695 315.963 474.328 316.705C472.961 317.447 471.633 318.227 470.266 319.008C467.57 320.531 464.875 322.132 462.219 323.694C459.563 325.294 456.906 326.895 454.289 328.613L452.336 329.901C451.672 330.331 451.047 330.799 450.422 331.229C449.133 332.088 447.922 333.064 446.672 334.001C448.977 331.893 451.398 329.941 453.937 328.105C456.437 326.231 459.016 324.513 461.594 322.757C466.789 319.321 472.102 316.041 477.453 312.839L481.477 310.458L485.539 308.115C488.234 306.553 490.969 305.031 493.664 303.508C499.094 300.463 504.602 297.534 510.07 294.567C515.578 291.678 521.086 288.789 526.633 285.938C532.18 283.127 537.727 280.316 543.313 277.583C554.523 272.117 565.734 266.768 577.141 261.731Z" fill="#0092D7"/>
<path d="M448.078 339.584C448.078 339.584 486.516 313.035 502.922 306.202L491.008 317.525L505.188 305.382C505.188 305.382 519.602 302.337 520.383 304.913C520.383 304.913 495.422 322.327 484.484 327.363L481.75 324.982L482.609 328.379C482.609 328.379 477.141 330.916 474.602 331.697L473 329.042L472.57 332.478C472.531 332.439 455.109 340.053 448.078 339.584Z" fill="url(#paint1_linear)"/>
<path d="M518.703 305.499C518.703 305.499 465.266 329.511 449.797 338.022Z" fill="url(#paint2_linear)"/>
<path d="M518.703 305.499C513.117 308.544 507.453 311.395 501.75 314.206C498.898 315.611 496.047 316.978 493.195 318.344L484.562 322.405C478.82 325.099 473.039 327.715 467.219 330.292C461.437 332.908 455.617 335.406 449.797 338.022C452.453 336.304 455.227 334.704 458 333.142L462.18 330.877C463.586 330.135 464.992 329.394 466.398 328.652C472.062 325.763 477.766 322.951 483.547 320.297C486.438 318.969 489.328 317.642 492.219 316.353C495.148 315.065 498.039 313.776 500.969 312.566C506.828 310.067 512.727 307.685 518.703 305.499Z" fill="#0092D7"/>
<path d="M455.344 307.568C455.344 307.568 496.984 247.168 519.562 229.52L510.031 253.883L522.844 227.334C522.844 227.334 545.93 217.182 550.187 221.633C550.187 221.633 523.312 261.146 508.742 273.796L501.125 270.321L506.398 276.216C506.398 276.216 499.133 282.541 495.305 284.767L489.445 280.472L492.414 286.836C492.492 286.875 468.82 306.163 455.344 307.568Z" fill="#00BFF3"/>
<path d="M446.438 289.491C446.438 289.491 446.711 233.347 467.805 211.599L482.414 230.496L471.437 208.632C471.437 208.632 503.937 190.945 518.742 191.297C518.742 191.297 519.367 227.841 507.492 242.6L487.297 244.513L506.086 245.216C506.086 245.216 500.148 252.595 495.539 255.836L477.805 256.382L492.687 258.53C492.648 258.491 471.633 281.761 446.438 289.491Z" fill="#00C2F3"/>
<path d="M516.32 193.444C516.32 193.444 455.148 265.245 444.836 286.758Z" fill="url(#paint3_linear)"/>
<path d="M516.32 193.444C510.344 201.253 504.25 208.944 498.156 216.597L479.875 239.633C476.828 243.459 473.781 247.324 470.773 251.15C467.726 254.977 464.758 258.881 461.75 262.746C460.266 264.699 458.781 266.651 457.297 268.603C455.812 270.555 454.367 272.507 452.922 274.499C451.477 276.49 450.07 278.481 448.703 280.511L447.687 282.034C447.336 282.541 447.023 283.088 446.711 283.596C446.047 284.611 445.461 285.704 444.836 286.758C445.812 284.494 446.945 282.307 448.156 280.199C449.367 278.051 450.656 275.982 451.984 273.874C454.641 269.735 457.414 265.675 460.266 261.692L462.414 258.686L464.602 255.719C466.047 253.727 467.531 251.775 469.016 249.823C471.984 245.919 475.031 242.053 478.039 238.188C481.086 234.362 484.172 230.535 487.297 226.748C490.422 222.961 493.547 219.174 496.75 215.465C503.117 207.968 509.601 200.628 516.32 193.444Z" fill="#0092D7"/>
<path d="M547.922 223.312C547.922 223.312 475.969 283.83 456.867 304.211Z" fill="url(#paint4_linear)"/>
<path d="M547.924 223.312C540.463 230.223 532.924 237.017 525.307 243.732C521.518 247.129 517.689 250.448 513.9 253.805L502.455 263.839L479.525 283.869C475.736 287.227 471.908 290.545 468.119 293.942C466.205 295.582 464.369 297.339 462.455 299.018C461.986 299.447 461.518 299.877 461.049 300.306L459.682 301.595L456.908 304.211C458.588 302.336 460.268 300.384 462.025 298.549L464.682 295.816L466.01 294.45L467.377 293.122C469.174 291.326 471.01 289.53 472.807 287.773L478.354 282.541C482.064 279.066 485.814 275.631 489.564 272.234C493.354 268.837 497.143 265.479 500.971 262.122C504.799 258.803 508.627 255.445 512.494 252.165C516.361 248.886 520.229 245.606 524.174 242.366C531.947 235.884 539.838 229.481 547.924 223.312Z" fill="#0092D7"/>
<path d="M164.875 345.597C164.875 345.597 139.68 273.444 102.531 254.86L91.789 285.743L96.4765 252.673C96.4765 252.673 46.1641 244.435 26.9844 251.502C26.9844 251.502 42.3359 298.823 64.3672 312.527L91.5937 305.968L67.3359 315.26C67.3359 315.26 78.3516 322.093 85.8125 324.24L109.25 316.978L90.7734 326.348C90.7734 326.309 128.547 346.885 164.875 345.597Z" fill="#49C8F5"/>
<path d="M31.0859 253.142C31.0859 253.142 142.766 318.227 165.773 341.341Z" fill="url(#paint5_linear)"/>
<path d="M31.0859 253.142C42.9219 259.506 54.6016 266.182 66.1641 273.015C71.9453 276.412 77.7266 279.887 83.4687 283.362C89.2109 286.875 94.914 290.389 100.617 293.981C106.281 297.573 111.945 301.204 117.57 304.914C120.383 306.749 123.156 308.623 125.969 310.497L130.148 313.347L134.289 316.236C139.797 320.102 145.266 324.045 150.578 328.144C153.234 330.214 155.852 332.322 158.43 334.509C161.008 336.695 163.469 338.96 165.773 341.419C164.523 340.326 163.273 339.155 161.945 338.14C161.281 337.632 160.656 337.085 159.992 336.539L158 335.016C155.344 332.986 152.609 330.995 149.875 329.082C147.141 327.129 144.367 325.216 141.594 323.381C140.187 322.444 138.82 321.507 137.414 320.57C136.008 319.633 134.641 318.696 133.234 317.798C127.648 314.128 122.023 310.458 116.359 306.827C110.734 303.196 105.031 299.604 99.3672 296.012C93.7031 292.42 88 288.867 82.2969 285.314L65.2266 274.655C53.8594 267.471 42.4531 260.365 31.0859 253.142Z" fill="#0092D7"/>
<path d="M188.859 310.067C188.859 310.067 167.844 227.451 148.469 199.535L147.648 230.223L145.422 195.904C145.422 195.904 121.398 176.187 113.625 179.623C113.625 179.623 126.867 233.542 138.742 252.946L150.266 251.814L140.422 256.499C140.422 256.499 146.359 266.182 150.031 270.087L159.758 267.393L152.57 273.444C152.57 273.444 172.492 303.625 188.859 310.067Z" fill="#49C8F5"/>
<path d="M115.695 182.278C115.695 182.278 175.187 276.06 188.742 305.773Z" fill="url(#paint6_linear)"/>
<path d="M115.695 182.278C122.492 192.117 129.055 202.151 135.5 212.224C138.742 217.261 141.906 222.337 145.07 227.412C148.234 232.488 151.32 237.603 154.445 242.717C157.492 247.871 160.578 252.986 163.625 258.139C166.633 263.293 169.602 268.486 172.531 273.718L176.867 281.605C178.312 284.221 179.68 286.915 181.047 289.53L182.062 291.522L183.039 293.552L185.031 297.573C185.344 298.237 185.695 298.901 186.008 299.604L186.906 301.673L188.703 305.773L186.594 301.829L185.539 299.838C185.187 299.174 184.797 298.55 184.445 297.886L182.258 293.981L181.164 292.029L180.031 290.116C178.508 287.539 177.062 284.923 175.5 282.386L170.93 274.655C167.844 269.54 164.836 264.386 161.711 259.272L152.453 243.928L143.156 228.544C140.109 223.391 136.984 218.315 133.937 213.161C127.805 202.932 121.672 192.624 115.695 182.278Z" fill="#0092D7"/>
<path d="M169.758 335.914C169.758 335.914 130.461 304.289 113.391 295.582L125.305 308.74L111.008 294.528C111.008 294.528 95.7344 290.077 94.6797 292.81C94.6797 292.81 120.188 313.542 131.555 319.828L134.68 317.446L133.508 321.038C133.508 321.038 139.172 324.201 141.867 325.255L143.82 322.522L143.977 326.27C143.977 326.309 162.141 335.875 169.758 335.914Z" fill="url(#paint7_linear)"/>
<path d="M96.3984 293.591C96.3984 293.591 152.023 323.693 168 334.079Z" fill="url(#paint8_linear)"/>
<path d="M96.3984 293.591C102.648 296.441 108.781 299.486 114.875 302.649C117.922 304.211 120.93 305.851 123.977 307.451C126.984 309.091 129.992 310.731 133 312.41C138.977 315.768 144.914 319.203 150.773 322.756C152.219 323.654 153.703 324.552 155.148 325.45L159.484 328.222C162.336 330.097 165.227 332.01 167.961 334.079L149.836 324.318C143.82 321.038 137.805 317.759 131.828 314.44L122.883 309.403C119.914 307.686 116.906 306.007 113.977 304.25C108.078 300.814 102.18 297.3 96.3984 293.591Z" fill="#0092D7"/>
<path d="M164.445 300.892C164.445 300.892 124.406 232.566 101.516 211.756L109.836 238.735L98.1562 209.101C98.1562 209.101 74.0938 196.333 69.1719 200.784C69.1719 200.784 94.9531 245.489 109.641 260.248L118.117 257.124L111.984 263.059C111.984 263.059 119.328 270.438 123.273 273.171L129.914 268.993L126.203 275.631C126.125 275.631 150.109 298.315 164.445 300.892Z" fill="#00C0F3"/>
<path d="M71.5156 202.737C71.5156 202.737 144.133 273.64 163.078 297.105Z" fill="url(#paint9_linear)"/>
<path d="M71.5156 202.737C79.6797 210.077 87.6484 217.573 95.5781 225.187C99.5234 228.974 103.43 232.839 107.336 236.665C111.242 240.531 115.109 244.435 118.977 248.3C122.805 252.244 126.633 256.148 130.422 260.092C134.211 264.074 137.961 268.056 141.711 272.078L147.258 278.169C149.094 280.199 150.891 282.268 152.687 284.338L154.055 285.899L155.383 287.461L158.039 290.624C159.797 292.732 161.437 294.918 163.117 297.105L160.344 294.059L158.977 292.537C158.508 292.029 158.039 291.561 157.57 291.053C155.656 289.101 153.82 287.071 151.906 285.118C149.992 283.166 148.117 281.175 146.203 279.223L140.461 273.366L117.375 249.979L105.852 238.266C102.023 234.323 98.1562 230.457 94.3672 226.514C86.6328 218.666 79.0156 210.78 71.5156 202.737Z" fill="#0092D7"/>
<path d="M214.406 340.756C214.406 341.849 213.547 342.708 212.453 342.708H189.406C188.313 342.708 187.453 341.849 187.453 340.756V184.23C187.453 183.137 188.313 182.278 189.406 182.278H212.453C213.547 182.278 214.406 183.137 214.406 184.23V340.756Z" fill="#A7A9AC"/>
<path d="M250.344 333.845C250.344 334.938 249.484 335.797 248.391 335.797H225.344C224.25 335.797 223.391 334.938 223.391 333.845V152.409C223.391 151.316 224.25 150.457 225.344 150.457H248.391C249.484 150.457 250.344 151.316 250.344 152.409V333.845Z" fill="url(#paint10_linear)"/>
<path d="M286.242 331.307C286.242 332.4 285.383 333.259 284.289 333.259H261.242C260.148 333.259 259.289 332.4 259.289 331.307V134.098C259.289 133.005 260.148 132.146 261.242 132.146H284.289C285.383 132.146 286.242 133.005 286.242 134.098V331.307Z" fill="#A7A9AC"/>
<path d="M431.789 352.898C431.789 353.991 430.93 354.85 429.836 354.85H406.789C405.695 354.85 404.836 353.991 404.836 352.898V105.987C404.836 104.893 405.695 104.034 406.789 104.034H429.836C430.93 104.034 431.789 104.893 431.789 105.987V352.898Z" fill="#A7A9AC"/>
<path d="M147.297 376.676C147.297 377.769 146.437 378.628 145.344 378.628H122.297C121.203 378.628 120.344 377.769 120.344 376.676V253.923C120.344 252.829 121.203 251.97 122.297 251.97H145.344C146.437 251.97 147.297 252.829 147.297 253.923V376.676Z" fill="url(#paint11_linear)"/>
<path d="M322.18 329.433C322.18 330.526 321.32 331.385 320.227 331.385H297.18C296.086 331.385 295.227 330.526 295.227 329.433V149.286C295.227 148.193 296.086 147.334 297.18 147.334H320.227C321.32 147.334 322.18 148.193 322.18 149.286V329.433Z" fill="#D1D3D4"/>
<path d="M180.93 331.034C180.93 332.127 180.07 332.986 178.977 332.986H155.93C154.836 332.986 153.977 332.127 153.977 331.034V223.43C153.977 222.336 154.836 221.478 155.93 221.478H178.977C180.07 221.478 180.93 222.336 180.93 223.43V331.034Z" fill="#D1D3D4"/>
<path d="M358.742 329.433C358.742 330.526 357.883 331.385 356.789 331.385H333.742C332.648 331.385 331.789 330.526 331.789 329.433V137.495C331.789 136.401 332.648 135.542 333.742 135.542H356.789C357.883 135.542 358.742 136.401 358.742 137.495V329.433Z" fill="url(#paint12_linear)"/>
<path d="M468.859 329.784C468.859 330.877 468 331.736 466.906 331.736H443.859C442.766 331.736 441.906 330.877 441.906 329.784V84.7859C441.906 83.6927 442.766 82.8337 443.859 82.8337H466.906C468 82.8337 468.859 83.6927 468.859 84.7859V329.784Z" fill="url(#paint13_linear)"/>
<path d="M395.305 331.307C395.305 332.4 394.445 333.259 393.352 333.259H370.305C369.211 333.259 368.352 332.4 368.352 331.307V114.459C368.352 113.405 369.211 112.507 370.305 112.507H393.352C394.445 112.507 395.305 113.366 395.305 114.459V331.307Z" fill="#D1D3D4"/>
<path d="M502.922 336.383C502.922 337.476 502.063 338.335 500.969 338.335H477.922C476.828 338.335 475.969 337.476 475.969 336.383V68.3877C475.969 67.2945 476.828 66.4355 477.922 66.4355H500.969C502.063 66.4355 502.922 67.2945 502.922 68.3877V336.383Z" fill="#D1D3D4"/>
<path d="M300.617 393.855C448.245 393.855 567.922 378.035 567.922 358.52C567.922 339.006 448.245 323.186 300.617 323.186C152.989 323.186 33.3125 339.006 33.3125 358.52C33.3125 378.035 152.989 393.855 300.617 393.855Z" fill="#A8E0F9"/>
<path d="M414.797 350.516H360.266C360.266 350.516 366.047 348.759 363.625 346.456C363.625 346.456 372.766 347.666 372.453 349.111C372.453 349.111 366.672 345.87 372.766 343.918C372.766 343.918 381.281 346.612 378.547 348.603C378.547 348.603 389.211 345.753 384.953 343.645C384.953 343.645 397.141 345.675 395.617 348.33C395.617 348.33 405.656 348.291 405.656 346.885C405.656 346.885 406.281 350.633 414.797 350.516Z" fill="#B9E5FB"/>
<path d="M466.594 335.602H373.234C373.234 335.602 383.156 331.346 378.977 325.841C378.977 325.841 394.641 328.769 394.094 332.244C394.094 332.244 384.172 324.396 394.602 319.672C394.602 319.672 409.211 326.192 404.523 330.995C404.523 330.995 422.766 324.162 415.461 319.008C415.461 319.008 436.32 323.928 433.703 330.331C433.703 330.331 450.93 330.214 450.93 326.856C450.93 326.856 451.984 335.953 466.594 335.602Z" fill="url(#paint14_linear)"/>
<path d="M414.797 350.516H360.266C360.266 350.516 366.047 348.759 363.625 346.456C363.625 346.456 372.766 347.666 372.453 349.111C372.453 349.111 366.672 345.87 372.766 343.918C372.766 343.918 381.281 346.612 378.547 348.603C378.547 348.603 389.211 345.753 384.953 343.645C384.953 343.645 397.141 345.675 395.617 348.33C395.617 348.33 405.656 348.291 405.656 346.885C405.656 346.885 406.281 350.633 414.797 350.516Z" fill="url(#paint15_linear)"/>
<path d="M256.32 346.417H162.961C162.961 346.417 172.883 342.161 168.703 336.656C168.703 336.656 184.367 339.584 183.82 343.059C183.82 343.059 173.898 335.211 184.328 330.487C184.328 330.487 198.937 337.007 194.25 341.81C194.25 341.81 212.492 334.977 205.187 329.823C205.187 329.823 226.047 334.743 223.43 341.146C223.43 341.146 240.656 341.029 240.656 337.671C240.656 337.671 241.711 346.768 256.32 346.417Z" fill="url(#paint16_linear)"/>
<path d="M411.789 277.895C411.789 320.96 384.68 357.661 346.555 371.873C335.305 376.051 323.43 378.198 311.437 378.198C256.008 378.198 211.086 333.298 211.086 277.895C211.086 234.245 238.977 197.114 277.883 183.332C288.664 179.506 299.992 177.593 311.437 177.593C366.867 177.593 411.789 222.493 411.789 277.895Z" fill="#43B5E8"/>
<path d="M311.437 368.633C361.555 368.633 402.219 328.027 402.219 277.895C402.219 227.764 361.594 187.158 311.437 187.158C261.32 187.158 220.656 227.764 220.656 277.895C220.656 328.027 261.32 368.633 311.437 368.633Z" fill="white"/>
<path opacity="0.15" d="M411.789 277.895C411.789 320.96 384.68 357.661 346.555 371.873L277.883 183.293C288.664 179.467 299.992 177.553 311.437 177.553C366.867 177.593 411.789 222.493 411.789 277.895Z" fill="#43B5E8"/>
<path d="M258.429 228.935L249.992 240.921C249.64 241.429 249.093 241.819 248.468 241.975C247.843 242.132 247.179 242.053 246.632 241.78L249.054 238.696L248.039 237.993L245.968 241.351C245.5 240.921 245.187 240.336 245.148 239.672C245.07 239.047 245.265 238.383 245.617 237.876L254.054 225.889C254.054 225.889 254.289 225.616 254.64 225.187C255.46 224.25 256.945 222.649 258.312 221.868C259.093 221.438 259.796 221.243 260.343 221.595C260.851 221.946 260.929 222.688 260.773 223.586C260.5 225.148 259.484 227.1 258.859 228.154C258.625 228.622 258.429 228.935 258.429 228.935Z" fill="#C2C2C2"/>
<path d="M258.43 228.935L260.539 240.96C260.578 241.077 260.539 241.195 260.5 241.312C260.461 241.429 260.383 241.507 260.266 241.585C260.148 241.663 260.031 241.663 259.914 241.663C259.797 241.663 259.68 241.624 259.602 241.546L252.883 236.822L258.43 228.935Z" fill="#C2C2C2"/>
<path d="M254.055 225.85L242.024 227.959C241.907 227.998 241.79 228.037 241.711 228.115C241.633 228.193 241.555 228.31 241.555 228.427C241.516 228.544 241.555 228.661 241.594 228.779C241.633 228.896 241.711 228.974 241.829 229.052L248.547 233.776L254.055 225.85Z" fill="#C2C2C2"/>
<path d="M249.054 238.695L246.632 241.78L245.187 243.576C245.148 243.615 245.109 243.654 245.031 243.654C244.953 243.654 244.914 243.654 244.836 243.615C244.796 243.576 244.757 243.537 244.718 243.459C244.679 243.381 244.718 243.342 244.757 243.264L245.968 241.311L248.039 237.954L249.054 238.695Z" fill="#C2C2C2"/>
<path d="M316.945 243.654L311.438 277.935L305.93 243.654L311.438 211.365L316.945 243.654Z" fill="#43B5E8"/>
<path d="M324.953 297.027L312.336 279.574L329.797 292.185L341.555 308.779L324.953 297.027Z" fill="#43B5E8"/>
<path d="M311.438 285.743C315.773 285.743 319.289 282.229 319.289 277.895C319.289 273.562 315.773 270.048 311.438 270.048C307.102 270.048 303.586 273.562 303.586 277.895C303.586 282.229 307.102 285.743 311.438 285.743Z" fill="#C2C2C2"/>
<path d="M365.93 223.469C351.398 208.944 332.023 200.901 311.438 200.901V204.532C331.047 204.532 349.484 212.146 363.352 226.006C377.219 239.867 384.836 258.295 384.836 277.895C384.836 297.495 377.219 315.924 363.352 329.784C349.484 343.645 331.047 351.258 311.438 351.258C291.828 351.258 273.391 343.645 259.523 329.784C245.656 315.924 238.039 297.495 238.039 277.895C238.039 268.486 239.836 259.154 243.352 250.409L240.109 248.691C236.32 257.944 234.406 267.861 234.406 277.856C234.406 298.432 242.414 317.759 256.984 332.322C271.555 346.846 290.891 354.889 311.477 354.889C332.063 354.889 351.399 346.885 365.969 332.322C380.5 317.759 388.547 298.432 388.547 277.856C388.469 257.358 380.461 237.993 365.93 223.469Z" fill="#43B5E8"/>
<path d="M447.141 362.034H392.609C392.609 362.034 398.391 360.277 395.969 357.974C395.969 357.974 405.109 359.184 404.797 360.629C404.797 360.629 399.016 357.388 405.109 355.436C405.109 355.436 413.625 358.13 410.891 360.121C410.891 360.121 421.555 357.271 417.297 355.163C417.297 355.163 429.484 357.193 427.961 359.848C427.961 359.848 438 359.809 438 358.403C438 358.403 438.625 362.19 447.141 362.034Z" fill="#00AEEF"/>
<path d="M493.82 350.829H439.289C439.289 350.829 445.07 349.072 442.648 346.768C442.648 346.768 451.789 347.979 451.477 349.423C451.477 349.423 445.695 346.183 451.789 344.23C451.789 344.23 460.305 346.924 457.57 348.916C457.57 348.916 468.234 346.065 463.977 343.957C463.977 343.957 476.164 345.987 474.641 348.642C474.641 348.642 484.68 348.603 484.68 347.198C484.719 347.198 485.305 350.946 493.82 350.829Z" fill="url(#paint17_linear)"/>
<path d="M184.328 359.145H129.797C129.797 359.145 135.578 357.388 133.156 355.085C133.156 355.085 142.297 356.295 141.984 357.74C141.984 357.74 136.203 354.499 142.297 352.547C142.297 352.547 150.813 355.241 148.078 357.232C148.078 357.232 158.742 354.382 154.484 352.273C154.484 352.273 166.672 354.304 165.148 356.959C165.148 356.959 175.187 356.92 175.187 355.514C175.187 355.514 175.773 359.262 184.328 359.145Z" fill="#00AEEF"/>
<path d="M235.461 363.088H180.93C180.93 363.088 186.711 361.331 184.289 359.028C184.289 359.028 193.43 360.238 193.117 361.683C193.117 361.683 187.336 358.442 193.43 356.49C193.43 356.49 201.945 359.184 199.211 361.175C199.211 361.175 209.875 358.325 205.617 356.217C205.617 356.217 217.805 358.247 216.281 360.902C216.281 360.902 226.32 360.863 226.32 359.457C226.32 359.457 226.945 363.245 235.461 363.088Z" fill="url(#paint18_linear)"/>
<path d="M136.359 350.243H81.8281C81.8281 350.243 87.6094 348.486 85.1875 346.182C85.1875 346.182 94.3281 347.393 94.0156 348.837C94.0156 348.837 88.2344 345.597 94.3281 343.645C94.3281 343.645 102.844 346.339 100.109 348.33C100.109 348.33 110.773 345.48 106.516 343.371C106.516 343.371 118.703 345.402 117.18 348.057C117.18 348.057 127.219 348.018 127.219 346.612C127.219 346.612 127.844 350.399 136.359 350.243Z" fill="url(#paint19_linear)"/>
</g>
</g>
<defs>
<filter id="filter0_d" x="-21" y="14" width="633" height="429.67" filterUnits="userSpaceOnUse" color-interpolation-filters="sRGB">
<feFlood flood-opacity="0" result="BackgroundImageFix"/>
<feColorMatrix in="SourceAlpha" type="matrix" values="0 0 0 0 0 0 0 0 0 0 0 0 0 0 0 0 0 0 127 0" result="hardAlpha"/>
<feOffset dy="4"/>
<feGaussianBlur stdDeviation="2"/>
<feColorMatrix type="matrix" values="0 0 0 0 0 0 0 0 0 0 0 0 0 0 0 0 0 0 0.5 0"/>
<feBlend mode="normal" in2="BackgroundImageFix" result="effect1_dropShadow"/>
<feBlend mode="normal" in="SourceGraphic" in2="effect1_dropShadow" result="shape"/>
</filter>
<linearGradient id="paint0_linear" x1="557.13" y1="314.881" x2="466.688" y2="280.842" gradientUnits="userSpaceOnUse">
<stop stop-color="#43B5E8"/>
<stop offset="1" stop-color="#43B5E8"/>
</linearGradient>
<linearGradient id="paint1_linear" x1="488.092" y1="327.68" x2="480.405" y2="316.784" gradientUnits="userSpaceOnUse">
<stop stop-color="#43B5E8"/>
<stop offset="1" stop-color="#43B5E8"/>
</linearGradient>
<linearGradient id="paint2_linear" x1="488.084" y1="327.152" x2="480.498" y2="316.399" gradientUnits="userSpaceOnUse">
<stop stop-color="#43B5E8"/>
<stop offset="1" stop-color="#43B5E8"/>
</linearGradient>
<linearGradient id="paint3_linear" x1="518.287" y1="238.445" x2="442.827" y2="241.772" gradientUnits="userSpaceOnUse">
<stop stop-color="#43B5E8"/>
<stop offset="1" stop-color="#43B5E8"/>
</linearGradient>
<linearGradient id="paint4_linear" x1="515.203" y1="272.314" x2="489.578" y2="255.209" gradientUnits="userSpaceOnUse">
<stop stop-color="#43B5E8"/>
<stop offset="1" stop-color="#43B5E8"/>
</linearGradient>
<linearGradient id="paint5_linear" x1="48.3908" y1="311.933" x2="148.49" y2="282.496" gradientUnits="userSpaceOnUse">
<stop stop-color="#43B5E8"/>
<stop offset="1" stop-color="#43B5E8"/>
</linearGradient>
<linearGradient id="paint6_linear" x1="131.335" y1="248.913" x2="173.039" y2="239.111" gradientUnits="userSpaceOnUse">
<stop stop-color="#43B5E8"/>
<stop offset="1" stop-color="#43B5E8"/>
</linearGradient>
<linearGradient id="paint7_linear" x1="127.626" y1="319.939" x2="136.772" y2="308.82" gradientUnits="userSpaceOnUse">
<stop stop-color="#43B5E8"/>
<stop offset="1" stop-color="#43B5E8"/>
</linearGradient>
<linearGradient id="paint8_linear" x1="127.677" y1="319.371" x2="136.703" y2="308.398" gradientUnits="userSpaceOnUse">
<stop stop-color="#43B5E8"/>
<stop offset="1" stop-color="#43B5E8"/>
</linearGradient>
<linearGradient id="paint9_linear" x1="102.822" y1="258.102" x2="131.782" y2="241.727" gradientUnits="userSpaceOnUse">
<stop stop-color="#43B5E8"/>
<stop offset="1" stop-color="#43B5E8"/>
</linearGradient>
<linearGradient id="paint10_linear" x1="223.365" y1="243.119" x2="250.332" y2="243.119" gradientUnits="userSpaceOnUse">
<stop stop-color="#71459B"/>
<stop offset="0.8668" stop-color="#A76DAE"/>
</linearGradient>
<linearGradient id="paint11_linear" x1="120.319" y1="315.299" x2="147.286" y2="315.299" gradientUnits="userSpaceOnUse">
<stop stop-color="#71459B"/>
<stop offset="0.8668" stop-color="#A76DAE"/>
</linearGradient>
<linearGradient id="paint12_linear" x1="331.782" y1="233.463" x2="358.749" y2="233.463" gradientUnits="userSpaceOnUse">
<stop stop-color="#71459B"/>
<stop offset="0.8668" stop-color="#A76DAE"/>
</linearGradient>
<linearGradient id="paint13_linear" x1="441.892" y1="207.286" x2="468.859" y2="207.286" gradientUnits="userSpaceOnUse">
<stop stop-color="#71459B"/>
<stop offset="0.8668" stop-color="#A76DAE"/>
</linearGradient>
<linearGradient id="paint14_linear" x1="466.578" y1="327.321" x2="373.209" y2="327.321" gradientUnits="userSpaceOnUse">
<stop stop-color="#7DD3F7"/>
<stop offset="1" stop-color="#43B5E8"/>
</linearGradient>
<linearGradient id="paint15_linear" x1="414.802" y1="347.062" x2="360.279" y2="347.062" gradientUnits="userSpaceOnUse">
<stop stop-color="#7DD3F7"/>
<stop offset="1" stop-color="#43B5E8"/>
</linearGradient>
<linearGradient id="paint16_linear" x1="256.309" y1="338.141" x2="162.941" y2="338.141" gradientUnits="userSpaceOnUse">
<stop stop-color="#7DD3F7"/>
<stop offset="1" stop-color="#43B5E8"/>
</linearGradient>
<linearGradient id="paint17_linear" x1="439.316" y1="347.376" x2="493.839" y2="347.376" gradientUnits="userSpaceOnUse">
<stop stop-color="#7DD3F7"/>
<stop offset="1" stop-color="#43B5E8"/>
</linearGradient>
<linearGradient id="paint18_linear" x1="235.456" y1="359.661" x2="180.933" y2="359.661" gradientUnits="userSpaceOnUse">
<stop stop-color="#7DD3F7"/>
<stop offset="1" stop-color="#43B5E8"/>
</linearGradient>
<linearGradient id="paint19_linear" x1="136.368" y1="346.802" x2="81.8457" y2="346.802" gradientUnits="userSpaceOnUse">
<stop stop-color="#7DD3F7"/>
<stop offset="1" stop-color="#43B5E8"/>
</linearGradient>
<clipPath id="clip0">
<rect width="600" height="450" fill="white"/>
</clipPath>
</defs>
</svg>
