<svg width="65" height="65" viewBox="0 0 65 65" fill="none" xmlns="http://www.w3.org/2000/svg">
<path d="M13.9 37L14 18.5L12 13.3L14 2.90002H21.1L22.9 13.3L20.6 18.7V37.8" stroke="#00B9F2" stroke-width="2" stroke-miterlimit="10" stroke-linecap="round" stroke-linejoin="round"/>
<path d="M17.5 42.2L17.6 58.5999" stroke="#00B9F2" stroke-width="2" stroke-miterlimit="10" stroke-linecap="round" stroke-linejoin="round"/>
<path d="M11.3002 39.1L11.2002 57.3C11.2002 57.3 12.2002 62.9 17.2002 62.9C22.2002 63 23.2002 58.4 23.2002 58.4L23.3002 38.4" stroke="#00B9F2" stroke-width="2" stroke-miterlimit="10" stroke-linecap="round" stroke-linejoin="round"/>
<path d="M9.2998 38.3999L25.6998 38.2999" stroke="#00B9F2" stroke-width="2" stroke-miterlimit="10" stroke-linecap="round" stroke-linejoin="round"/>
<path d="M38.6995 2.69998V11.4L48.2995 11.3L48.1995 2.59998C48.1995 2.59998 54.2995 3.99998 54.1995 12C54.0995 20 48.3995 22 48.3995 22V57.5C48.3995 57.5 48.1995 62.8 43.2995 62.8C38.3995 62.8 38.2995 58 38.2995 58L38.3995 22.1C38.3995 22.1 33.0995 19.3 32.8995 13.4C32.6995 7.59997 35.2995 5.49998 38.6995 2.69998Z" stroke="#00B9F2" stroke-width="2" stroke-miterlimit="10" stroke-linecap="round" stroke-linejoin="round"/>
</svg>
