<svg width="60" height="60" viewBox="0 0 60 60" fill="none" xmlns="http://www.w3.org/2000/svg">
<path d="M46.1125 0.144291C45.7376 -0.105628 45.2378 0.0193313 44.8629 0.144291C44.488 0.269251 44.2381 0.894049 44.2381 1.26893V8.26667H37.6152V1.39389C37.6152 1.01901 37.3653 0.51917 36.9904 0.269251C36.6155 0.0193314 36.1157 0.0193314 35.7408 0.269251C31.7421 2.26861 29.2429 6.26732 29.2429 10.6409C29.2429 14.6396 31.3672 18.3884 34.6162 20.3878V53.877C34.6162 57.2509 37.3653 60 40.7392 60C44.1131 60 46.8622 57.2509 46.8622 53.752V20.2628C50.2362 18.1385 52.2355 14.3897 52.2355 10.391C52.6104 6.0174 50.1112 2.14365 46.1125 0.144291ZM45.2378 18.5134C44.8629 18.7633 44.613 19.1382 44.613 19.638V53.752C44.613 55.7514 42.9885 57.3758 40.9891 57.5008C38.9898 57.5008 37.3653 55.8763 37.3653 53.877V19.638C37.3653 19.1382 37.1154 18.7633 36.7405 18.5134C33.8664 17.0139 31.992 13.8899 31.992 10.5159C31.992 7.76683 33.2416 5.26764 35.241 3.5182V9.39131C35.241 9.76619 35.3659 10.0161 35.6159 10.266C35.8658 10.5159 36.1157 10.6409 36.4906 10.6409H45.6126C46.2374 10.6409 46.8622 10.1411 46.8622 9.39131V3.5182C48.8616 5.26764 50.1112 7.76683 50.1112 10.5159C49.9862 13.8899 48.2368 16.8889 45.2378 18.5134Z" fill="url(#paint0_linear)"/>
<path d="M15.9971 60.0001C19.8709 60.0001 22.9948 56.8761 22.9948 53.0023V36.5077H23.7446C24.4944 36.5077 24.9942 36.0078 24.9942 35.2581C24.9942 34.5083 24.4944 34.0085 23.7446 34.0085C23.1198 34.0085 20.2457 34.0085 20.4957 34.0085V16.3891L22.37 11.8906C22.495 11.6407 22.495 11.3907 22.495 11.1408L20.8705 1.01909C20.7456 0.394288 20.2457 0.0194092 19.6209 0.0194092H12.4982C11.8734 0.0194092 11.3736 0.519248 11.2486 1.01909L9.49919 11.2658C9.49919 11.5157 9.49919 11.7656 9.62415 12.0155L11.4985 16.5141V34.1334C11.2486 34.1334 7.99968 34.1334 8.2496 34.1334C7.49984 34.1334 7 34.6333 7 35.383C7 36.1328 7.49984 36.6326 8.2496 36.6326H8.99935V53.2523C8.99935 56.8761 12.1233 60.0001 15.9971 60.0001ZM13.3729 2.5186H18.3713L19.7459 11.2658L17.8715 15.6394C17.7465 15.7643 17.7465 16.0143 17.7465 16.1392V34.0085H13.7478V16.1392C13.7478 16.0143 13.7478 15.7643 13.6229 15.6394L11.9984 11.2658L13.3729 2.5186ZM11.4985 36.5077C11.7485 36.5077 20.7456 36.5077 20.3707 36.5077V53.1273C20.3707 55.6265 18.3713 57.6258 15.8721 57.6258C13.3729 57.6258 11.3736 55.6265 11.3736 53.1273V36.5077H11.4985Z" fill="url(#paint1_linear)"/>
<path d="M15.997 55.7514C16.7468 55.7514 17.2466 55.2516 17.2466 54.5018V39.5067C17.2466 38.7569 16.7468 38.2571 15.997 38.2571C15.2473 38.2571 14.7474 38.7569 14.7474 39.5067V54.5018C14.7474 55.1266 15.2473 55.7514 15.997 55.7514Z" fill="url(#paint2_linear)"/>
<defs>
<linearGradient id="paint0_linear" x1="39.376" y1="59.76" x2="55.1235" y2="1.74566" gradientUnits="userSpaceOnUse">
<stop stop-color="#75DAFF"/>
<stop offset="1" stop-color="#00BAFF"/>
</linearGradient>
<linearGradient id="paint1_linear" x1="14.9174" y1="59.7602" x2="34.2153" y2="4.19328" gradientUnits="userSpaceOnUse">
<stop stop-color="#75DAFF"/>
<stop offset="1" stop-color="#00BAFF"/>
</linearGradient>
<linearGradient id="paint2_linear" x1="15.8471" y1="55.6815" x2="24.4936" y2="43.8257" gradientUnits="userSpaceOnUse">
<stop stop-color="#75DAFF"/>
<stop offset="1" stop-color="#00BAFF"/>
</linearGradient>
</defs>
</svg>
