<svg width="445" height="300" viewBox="0 0 445 300" fill="none" xmlns="http://www.w3.org/2000/svg">
<g filter="url(#filter0_d)">
<path d="M360.533 223.5C360.533 223.5 372.075 259.75 326.212 253.694C280.349 247.639 244.694 216.25 224.947 247.861C205.2 279.472 130.384 277.889 131.247 253.25C132.109 228.611 137.949 214.972 96.6479 217.556C55.3463 220.139 -6.20273 194.583 29.2026 171.444C64.6079 148.306 91.6416 110.889 71.3941 107.222C51.1466 103.556 47.5032 32.1667 101.432 48.25C155.36 64.3334 217.632 60.8334 218.133 44.9167C218.634 29 326.407 2.33336 325.044 40.3334C323.681 78.3334 335.335 136.167 371.686 111.194C408.037 86.2222 453.037 202.667 406.507 178.333C359.977 154 360.533 223.5 360.533 223.5Z" fill="#414042"/>
<path d="M214.434 115.083L223.89 136L226.199 133.889L217.271 113.889L213.377 113.833L214.434 115.083Z" fill="#C8C8C8"/>
<path d="M218.412 92.4723C216.353 90.639 213.795 89.4723 211.069 89.1112C208.343 88.7501 205.562 89.1945 203.087 90.389C200.612 91.6112 198.553 93.5001 197.163 95.889C195.772 98.2779 195.133 101 195.299 103.75C195.466 106.5 196.44 109.139 198.108 111.306C199.777 113.5 202.058 115.139 204.672 116.028C207.287 116.917 210.096 117.028 212.738 116.306C215.408 115.611 217.8 114.139 219.608 112.056C222.055 109.278 223.307 105.667 223.056 102C222.862 98.3612 221.165 94.9167 218.412 92.4723ZM201.474 111.639C199.749 110.111 198.498 108.111 197.914 105.889C197.33 103.667 197.413 101.306 198.164 99.1112C198.915 96.9167 200.306 95.0279 202.141 93.6112C203.977 92.2223 206.202 91.389 208.483 91.2501C210.791 91.1112 213.072 91.639 215.074 92.8056C217.077 93.9723 218.69 95.6945 219.691 97.7501C220.692 99.8334 221.082 102.139 220.776 104.445C220.47 106.722 219.496 108.861 217.967 110.611C216.965 111.75 215.714 112.695 214.351 113.361C212.96 114.028 211.486 114.417 209.957 114.528C208.427 114.611 206.897 114.417 205.451 113.917C203.949 113.445 202.614 112.667 201.474 111.639Z" fill="url(#paint0_linear)"/>
<path d="M217.354 93.639C215.519 92.0001 213.238 90.9723 210.791 90.639C208.343 90.3056 205.868 90.7223 203.671 91.7779C201.473 92.8612 199.61 94.5556 198.386 96.6945C197.162 98.8056 196.578 101.25 196.717 103.722C196.856 106.195 197.746 108.528 199.248 110.472C200.75 112.417 202.781 113.889 205.089 114.695C207.425 115.5 209.928 115.583 212.292 114.945C214.656 114.306 216.798 113 218.439 111.167C220.608 108.695 221.721 105.472 221.526 102.167C221.331 98.889 219.83 95.8334 217.354 93.639ZM202.252 110.778C200.695 109.417 199.61 107.611 199.081 105.639C198.553 103.639 198.636 101.556 199.304 99.6112C199.971 97.6668 201.195 95.9445 202.836 94.7223C204.477 93.4723 206.452 92.7501 208.51 92.6112C210.568 92.4723 212.626 92.9723 214.406 94.0001C216.186 95.0279 217.632 96.5834 218.522 98.4167C219.44 100.278 219.774 102.333 219.496 104.389C219.218 106.417 218.356 108.333 216.993 109.889C216.075 110.917 214.99 111.75 213.766 112.361C212.543 112.972 211.208 113.306 209.845 113.389C208.482 113.472 207.119 113.278 205.812 112.833C204.449 112.361 203.253 111.667 202.252 110.778Z" fill="url(#paint1_linear)"/>
<path opacity="0.34" d="M201.473 111.639C206.313 115.889 213.683 115.444 217.966 110.611C222.221 105.778 221.776 98.4167 216.937 94.1389C212.098 89.8611 204.727 90.3334 200.444 95.1667C196.161 100 196.634 107.389 201.473 111.639Z" fill="#CBCBCB"/>
<path d="M228.785 148.611L228.229 147.417L221.665 133.111L225.948 131.167L226.755 133.083L227.728 135.389L232.178 146L232.679 147.167C231.01 149.556 228.785 148.611 228.785 148.611Z" fill="#7C7D80"/>
<path d="M228.785 148.611L228.229 147.417C228.229 147.417 230.426 148.306 232.178 146.028L232.679 147.194C231.01 149.556 228.785 148.611 228.785 148.611Z" fill="url(#paint2_linear)"/>
<path d="M275.288 135.111L277.707 140.389L287.108 137.667C287.108 137.667 287.219 137.194 287.386 136.472C287.887 134.528 288.943 130.778 289.945 130.111C291.308 129.194 295.674 126.667 296.063 125.444C296.453 124.222 298.872 117.75 298.733 117.5C298.594 117.25 295.313 107.583 295.313 107.583L287.887 107L285.689 106.722L280.767 106.139L279.459 108.667C277.262 111.972 275.76 115.528 275.037 119.167C274.37 122.861 274.509 128.111 275.983 128.694C277.457 129.278 278.875 128.917 278.236 130.25C277.568 131.639 275.288 135.111 275.288 135.111Z" fill="#BCBEC0"/>
<path d="M277.067 100.639C276.817 102.528 276.956 102.333 276.845 105.917C276.845 106.472 276.984 107.028 277.234 107.528C277.512 108.028 277.874 108.444 278.347 108.75C280.015 109.972 284.66 108.917 286.301 111.111C287.97 113.306 289.194 116.444 287.942 117.694C286.69 118.944 285.912 119.417 286.635 119.278C287.358 119.139 290.973 117.972 290.946 119.111C290.862 119.75 290.64 120.333 290.334 120.889C290 121.417 289.583 121.889 289.054 122.278C287.414 123.222 289.833 127.028 289.082 127.722C288.331 128.417 290.417 129.167 294.534 125.639C298.65 122.111 301.876 114.417 298.594 110.583C295.312 106.75 297.009 104.806 292.448 102.167C289.472 100.444 284.354 101.806 283.492 100.556C282.63 99.3056 281.573 95.0278 281.017 96.8611C280.46 98.6945 280.599 102.222 280.599 102.222C280.599 102.222 279.125 96.8611 278.013 97.6945C277.262 98.2778 277.234 99.2778 277.067 100.639Z" fill="#010101"/>
<path d="M203.115 223.167C203.115 223.167 201.863 225.972 197.386 229.556C192.908 233.139 183.563 235.556 185.482 239.417C187.401 243.278 193.019 249.25 199.221 245.528C205.423 241.806 212.015 236.333 214.045 232.056C216.076 227.778 211.931 221.417 211.931 221.417L203.115 223.167Z" fill="#E6E7E8"/>
<path d="M252.676 198.306C252.676 198.306 257.933 200.5 259.574 203.5C261.215 206.5 268.056 221.5 265.22 224.833C262.383 228.167 258.016 228.333 255.457 224.278C252.899 220.222 245.64 209.25 242.803 207.361L239.966 205.472L252.676 198.306Z" fill="#E6E7E8"/>
<path d="M204.588 170.778C215.157 186.083 244.999 213.167 244.999 213.167L252.926 202.333L255.791 198.389L226.143 172.5C226.143 172.5 233.624 171.25 234.987 168.806C236.378 166.361 245.166 160.639 245.166 160.639C245.166 160.639 246.919 159.472 248.587 158.306L247.391 155.5L233.735 156.667C233.735 156.667 205.367 156.028 201.334 161.528C200.194 163.111 201.64 166.5 204.588 170.778Z" fill="#EAEAEA"/>
<path d="M204.588 170.778C215.157 186.083 244.999 213.167 244.999 213.167L252.926 202.333L204.588 170.778Z" fill="#C0BFBF"/>
<path d="M229.23 138.167L230.204 143.028C234.765 143.806 239.382 144.278 244.027 144.417C247.058 144.528 250.118 144.472 253.149 144.222C258.517 143.778 262.244 142.278 264.636 140.861C265.999 140.111 267.222 139.139 268.224 137.944L260.102 132.694C260.102 132.694 259.435 133.139 258.461 133.75C257.432 134.389 256.014 135.25 254.707 135.917C253.678 136.528 252.537 136.944 251.369 137.111C249.116 137.139 241.996 136.972 236.517 137.361C234.07 137.528 231.622 137.778 229.23 138.167Z" fill="#EAEAEA"/>
<path d="M263.078 177.167C263.078 177.167 245.862 194.833 237.268 202.139C228.674 209.444 213.961 236.667 213.961 236.667L197.913 226.528C197.913 226.528 231.9 176 235.265 172.694C238.603 169.417 251.981 161.389 251.981 161.389L260.519 164.361L263.078 177.167Z" fill="#EAEAEA"/>
<path d="M226.143 172.5C226.17 172.5 226.17 172.5 226.143 172.5C226.588 172.667 233.457 175.195 235.237 172.722C237.073 170.167 250.951 163.833 250.951 163.833L248.615 158.306C246.946 159.472 245.194 160.639 245.194 160.639C245.194 160.639 236.405 166.333 235.015 168.806C233.624 171.25 226.143 172.5 226.143 172.5Z" fill="#C0BFBF"/>
<path d="M244.026 144.445C247.058 144.556 250.117 144.5 253.149 144.25C258.517 143.806 262.244 142.306 264.635 140.889L264.274 138.778L260.881 135.778C260.881 135.778 258.85 134.028 258.684 133.833C258.656 133.806 258.572 133.806 258.461 133.778C257.432 134.417 256.014 135.278 254.706 135.944C254.706 135.944 255.596 140.333 254.484 141.25C253.399 142.167 244.36 144.361 244.026 144.445Z" fill="#C0BFBF"/>
<path d="M226.894 136.222C224.28 136.75 222.388 136.417 222.583 138.472V138.5C222.917 141.472 223.278 145.333 225.225 146.167C226.811 146.861 233.402 143.611 232.902 141.056C232.318 138.278 229.787 135.639 226.894 136.222Z" fill="#C0BFBF"/>
<path d="M273.34 131.167C273.34 131.167 272.728 129.972 270.309 130.333C267.889 130.667 260.102 132.778 260.102 132.778L262.493 137.639L264.496 138.806L273.34 131.167Z" fill="#EAEAEA"/>
<path d="M278.181 191.333C281.24 190.861 286.719 183.778 286.719 183.778C286.719 183.778 287.999 183 289.973 181.722C296.732 177.361 311.611 167.278 310.471 163.361C309.553 160.611 308.302 158 306.744 155.583C306.744 155.583 302.489 157.917 299.624 159.667C298.706 160.139 297.844 160.75 297.093 161.444C296.732 162.194 299.151 164.806 299.151 164.806C296.843 167.25 294.368 169.583 291.809 171.778C289.111 173.861 282.992 179.889 280.795 180.306C278.57 180.722 275.956 179.028 273.314 179.694C270.671 180.361 275.845 182.222 277.346 182.611C278.848 183 276.401 183.25 273.063 184.556C270.282 185.639 271.172 186.194 272.563 189.417C273.981 192.806 273.898 192 278.181 191.333Z" fill="#EAEAEA"/>
<path d="M226.393 136.111C224.001 136.583 222.277 136.194 222.527 138.333V138.361C222.889 141.444 223.334 145.444 225.114 146.361C226.588 147.111 232.512 143.917 231.983 141.278C231.399 138.389 229.035 135.583 226.393 136.111Z" fill="#EAEAEA"/>
<path d="M290.612 181.556C297.176 177.25 311.639 167.25 310.47 163.444C309.553 160.778 308.301 158.222 306.744 155.861C306.744 155.861 302.6 158.194 299.846 159.917L302.266 161.861C302.266 161.861 305.798 160.417 305.659 163.056C305.52 165.639 291.057 181.083 290.612 181.556Z" fill="#C8C8C8"/>
<path d="M179.752 85.3057L178.167 125.778L179.752 85.3057Z" stroke="#A36CAD" stroke-width="10" stroke-miterlimit="10" stroke-linecap="round" stroke-linejoin="round"/>
<path d="M164.399 79.9445L160.979 100.861L178.639 102.528" stroke="url(#paint3_linear)" stroke-width="10" stroke-miterlimit="10" stroke-linecap="round" stroke-linejoin="round"/>
<path d="M247.391 71.4446L245.806 111.917L247.391 71.4446Z" stroke="#A36CAD" stroke-width="10" stroke-miterlimit="10" stroke-linecap="round" stroke-linejoin="round"/>
<path d="M232.039 66.0834L228.59 86.9723L246.251 88.6667" stroke="url(#paint4_linear)" stroke-width="10" stroke-miterlimit="10" stroke-linecap="round" stroke-linejoin="round"/>
<path d="M284.104 132C294.134 132 302.266 123.879 302.266 113.861C302.266 103.843 294.134 95.7223 284.104 95.7223C274.074 95.7223 265.942 103.843 265.942 113.861C265.942 123.879 274.074 132 284.104 132Z" fill="#EAEAEA"/>
<path d="M293.477 147.472C293.477 147.472 296.092 166.611 261.438 178.861L267.417 147.472H293.477Z" fill="#C0BFBF"/>
<path d="M290.057 149.306C290.057 149.306 286.58 145.056 286.024 144.056C284.188 140.694 286.858 133.945 293.366 137.306C297.51 139.417 301.543 143.611 301.543 143.611C298.372 146.556 294.367 148.556 290.057 149.306Z" fill="#EAEAEA"/>
<path d="M276.984 98.3611C276.984 98.3611 265.859 101.889 267.139 117.278C267.139 117.278 270.615 124.972 298.734 117.5C298.706 117.5 293.95 96.8055 276.984 98.3611Z" fill="#58595B"/>
<path d="M299.095 119.278C300.263 119.278 301.209 118.333 301.209 117.167C301.209 116.001 300.263 115.056 299.095 115.056C297.928 115.056 296.981 116.001 296.981 117.167C296.981 118.333 297.928 119.278 299.095 119.278Z" fill="#BCBEC0"/>
<path d="M306.771 155.639L301.57 143.583L290.056 149.417L297.092 161.861L306.771 155.639Z" fill="#EAEAEA"/>
<path d="M305.715 153.25C305.715 153.25 308.496 162.556 301.71 169.028C294.924 175.5 299.624 168.333 299.624 168.333L300.291 161.889L298.011 155.889L305.715 153.25Z" fill="#EAEAEA"/>
<path d="M233.764 160.944C233.764 160.944 241.496 162.417 250.785 169.361C253.594 171.472 256.765 175.639 259.156 179.139C264.079 174.889 275.149 168.556 277.513 165.944C280.238 162.944 266.944 146.944 266.944 146.944L286.635 158.417L293.004 151.667L293.839 148.194C293.839 148.194 292.81 140.694 290.891 137.944C288.109 133.944 276.428 131.583 276.428 131.583C273.536 130.861 270.532 131.389 267.945 133C264.107 135.417 253.371 149.306 244.611 151.333C237.435 153 233.764 160.944 233.764 160.944Z" fill="#EAEAEA"/>
<path d="M280.961 132.722C280.961 132.722 273.925 145.167 260.102 150.806C246.279 156.445 243.804 164.889 243.804 164.889" stroke="#D1D3D4" stroke-miterlimit="10"/>
<path d="M210.985 235.667C210.985 235.667 203.949 242.861 198.942 245.056C198.942 245.056 195.827 247 192.573 245.667" stroke="#D1D3D4" stroke-width="2" stroke-miterlimit="10" stroke-linecap="round" stroke-linejoin="round"/>
<path d="M255.541 199.806C255.541 199.806 259.435 202.333 259.908 204.222C259.908 204.222 264.358 214.667 264.858 218.028C265.359 221.389 265.693 224.111 263.996 225.278" stroke="#D1D3D4" stroke-width="2" stroke-miterlimit="10" stroke-linecap="round" stroke-linejoin="round"/>
<path d="M247.92 150.083C247.92 150.083 259.963 151.472 273.341 173.694L277.485 171.278C277.485 171.278 272.59 155.972 252.926 146.833L247.92 150.083Z" fill="url(#paint5_linear)"/>
<path d="M61.4383 203.389C71.1615 203.389 79.0436 195.517 79.0436 185.806C79.0436 176.095 71.1615 168.222 61.4383 168.222C51.7152 168.222 43.833 176.095 43.833 185.806C43.833 195.517 51.7152 203.389 61.4383 203.389Z" fill="url(#paint6_linear)"/>
<path d="M149.493 259.444C154.884 259.444 159.255 255.079 159.255 249.694C159.255 244.31 154.884 239.944 149.493 239.944C144.101 239.944 139.73 244.31 139.73 249.694C139.73 255.079 144.101 259.444 149.493 259.444Z" fill="url(#paint7_linear)"/>
<path d="M89.6683 138.417C93.2319 138.417 96.1208 135.531 96.1208 131.972C96.1208 128.413 93.2319 125.528 89.6683 125.528C86.1047 125.528 83.2158 128.413 83.2158 131.972C83.2158 135.531 86.1047 138.417 89.6683 138.417Z" fill="url(#paint8_linear)"/>
<path d="M346.433 226.972C350.795 226.972 354.332 223.44 354.332 219.083C354.332 214.726 350.795 211.194 346.433 211.194C342.071 211.194 338.534 214.726 338.534 219.083C338.534 223.44 342.071 226.972 346.433 226.972Z" fill="url(#paint9_linear)"/>
<path d="M106.884 68.6944C118.128 68.6944 127.243 59.5908 127.243 48.361C127.243 37.1313 118.128 28.0277 106.884 28.0277C95.6403 28.0277 86.5254 37.1313 86.5254 48.361C86.5254 59.5908 95.6403 68.6944 106.884 68.6944Z" fill="url(#paint10_linear)"/>
<path d="M304.13 64.6667C312.333 64.6667 318.982 58.0256 318.982 49.8333C318.982 41.6411 312.333 35 304.13 35C295.928 35 289.278 41.6411 289.278 49.8333C289.278 58.0256 295.928 64.6667 304.13 64.6667Z" fill="url(#paint11_linear)"/>
<path d="M375.135 129.75C386.318 129.75 395.383 120.696 395.383 109.528C395.383 98.3593 386.318 89.3055 375.135 89.3055C363.953 89.3055 354.888 98.3593 354.888 109.528C354.888 120.696 363.953 129.75 375.135 129.75Z" fill="url(#paint12_linear)"/>
<path d="M98.2614 110.528C98.5379 110.528 98.762 110.304 98.762 110.028C98.762 109.752 98.5379 109.528 98.2614 109.528C97.9849 109.528 97.7607 109.752 97.7607 110.028C97.7607 110.304 97.9849 110.528 98.2614 110.528Z" fill="white"/>
<path d="M90.0013 93.1665C90.1702 93.1665 90.3072 93.0297 90.3072 92.861C90.3072 92.6922 90.1702 92.5554 90.0013 92.5554C89.8323 92.5554 89.6953 92.6922 89.6953 92.861C89.6953 93.0297 89.8323 93.1665 90.0013 93.1665Z" fill="white"/>
<path d="M123.07 81.5277C123.485 81.5277 123.821 81.1919 123.821 80.7777C123.821 80.3635 123.485 80.0277 123.07 80.0277C122.656 80.0277 122.319 80.3635 122.319 80.7777C122.319 81.1919 122.656 81.5277 123.07 81.5277Z" fill="white"/>
<path d="M91.8095 147.472C92.639 147.472 93.3114 146.801 93.3114 145.972C93.3114 145.144 92.639 144.472 91.8095 144.472C90.98 144.472 90.3076 145.144 90.3076 145.972C90.3076 146.801 90.98 147.472 91.8095 147.472Z" fill="white"/>
<path d="M150.605 164.833C152.048 164.833 153.219 163.664 153.219 162.222C153.219 160.78 152.048 159.611 150.605 159.611C149.161 159.611 147.99 160.78 147.99 162.222C147.99 163.664 149.161 164.833 150.605 164.833Z" fill="white"/>
<path d="M204.589 129.555C206.033 129.555 207.203 128.386 207.203 126.944C207.203 125.502 206.033 124.333 204.589 124.333C203.145 124.333 201.975 125.502 201.975 126.944C201.975 128.386 203.145 129.555 204.589 129.555Z" fill="white"/>
<path d="M337.227 152.694C338.671 152.694 339.841 151.525 339.841 150.083C339.841 148.641 338.671 147.472 337.227 147.472C335.783 147.472 334.612 148.641 334.612 150.083C334.612 151.525 335.783 152.694 337.227 152.694Z" fill="white"/>
<path d="M95.8976 177.167C97.3415 177.167 98.512 175.998 98.512 174.555C98.512 173.113 97.3415 171.944 95.8976 171.944C94.4537 171.944 93.2832 173.113 93.2832 174.555C93.2832 175.998 94.4537 177.167 95.8976 177.167Z" fill="white"/>
<path d="M122.32 171.167C123.134 171.167 123.794 170.507 123.794 169.694C123.794 168.881 123.134 168.222 122.32 168.222C121.506 168.222 120.846 168.881 120.846 169.694C120.846 170.507 121.506 171.167 122.32 171.167Z" fill="white"/>
<path d="M207.538 72.9444C207.998 72.9444 208.372 72.5713 208.372 72.111C208.372 71.6508 207.998 71.2777 207.538 71.2777C207.077 71.2777 206.703 71.6508 206.703 72.111C206.703 72.5713 207.077 72.9444 207.538 72.9444Z" fill="white"/>
<path d="M135.697 128.972C136.819 128.972 137.728 128.064 137.728 126.944C137.728 125.824 136.819 124.917 135.697 124.917C134.576 124.917 133.667 125.824 133.667 126.944C133.667 128.064 134.576 128.972 135.697 128.972Z" fill="white"/>
<path d="M84.4394 205.5C85.5915 205.5 86.5254 204.567 86.5254 203.417C86.5254 202.266 85.5915 201.333 84.4394 201.333C83.2874 201.333 82.3535 202.266 82.3535 203.417C82.3535 204.567 83.2874 205.5 84.4394 205.5Z" fill="white"/>
<path d="M129.44 206.528C129.717 206.528 129.941 206.304 129.941 206.028C129.941 205.752 129.717 205.528 129.44 205.528C129.164 205.528 128.939 205.752 128.939 206.028C128.939 206.304 129.164 206.528 129.44 206.528Z" fill="white"/>
<path d="M78.6813 74.9444C79.6951 74.9444 80.517 74.1236 80.517 73.111C80.517 72.0985 79.6951 71.2777 78.6813 71.2777C77.6675 71.2777 76.8457 72.0985 76.8457 73.111C76.8457 74.1236 77.6675 74.9444 78.6813 74.9444Z" fill="white"/>
<path d="M234.765 48.361C235.318 48.361 235.766 47.9133 235.766 47.361C235.766 46.8087 235.318 46.361 234.765 46.361C234.212 46.361 233.764 46.8087 233.764 47.361C233.764 47.9133 234.212 48.361 234.765 48.361Z" fill="white"/>
<path d="M275.9 71.2499C276.607 71.2499 277.18 70.6778 277.18 69.9721C277.18 69.2664 276.607 68.6943 275.9 68.6943C275.194 68.6943 274.621 69.2664 274.621 69.9721C274.621 70.6778 275.194 71.2499 275.9 71.2499Z" fill="white"/>
<path d="M246.002 122.389C246.447 122.389 246.808 122.028 246.808 121.583C246.808 121.138 246.447 120.778 246.002 120.778C245.556 120.778 245.195 121.138 245.195 121.583C245.195 122.028 245.556 122.389 246.002 122.389Z" fill="white"/>
<path d="M187.846 155.611C188.184 155.611 188.458 155.337 188.458 155C188.458 154.662 188.184 154.389 187.846 154.389C187.508 154.389 187.234 154.662 187.234 155C187.234 155.337 187.508 155.611 187.846 155.611Z" fill="white"/>
<path d="M184.425 193.639C184.886 193.639 185.26 193.266 185.26 192.805C185.26 192.345 184.886 191.972 184.425 191.972C183.964 191.972 183.591 192.345 183.591 192.805C183.591 193.266 183.964 193.639 184.425 193.639Z" fill="white"/>
<path d="M297.678 212.667C298.078 212.667 298.401 212.343 298.401 211.944C298.401 211.546 298.078 211.222 297.678 211.222C297.279 211.222 296.955 211.546 296.955 211.944C296.955 212.343 297.279 212.667 297.678 212.667Z" fill="white"/>
<path d="M322.347 176.194C323.023 176.194 323.571 175.647 323.571 174.972C323.571 174.297 323.023 173.75 322.347 173.75C321.671 173.75 321.123 174.297 321.123 174.972C321.123 175.647 321.671 176.194 322.347 176.194Z" fill="white"/>
<path d="M313.781 147.417C314.18 147.417 314.504 147.093 314.504 146.694C314.504 146.296 314.18 145.972 313.781 145.972C313.381 145.972 313.058 146.296 313.058 146.694C313.058 147.093 313.381 147.417 313.781 147.417Z" fill="white"/>
<path d="M315.45 124.917C316.372 124.917 317.119 124.17 317.119 123.25C317.119 122.329 316.372 121.583 315.45 121.583C314.528 121.583 313.781 122.329 313.781 123.25C313.781 124.17 314.528 124.917 315.45 124.917Z" fill="white"/>
<path d="M313.419 95.7222C313.619 95.7222 313.781 95.5605 313.781 95.3611C313.781 95.1617 313.619 95 313.419 95C313.22 95 313.058 95.1617 313.058 95.3611C313.058 95.5605 313.22 95.7222 313.419 95.7222Z" fill="white"/>
<path d="M269.698 90.3888C270.528 90.3888 271.2 89.7172 271.2 88.8888C271.2 88.0604 270.528 87.3888 269.698 87.3888C268.869 87.3888 268.196 88.0604 268.196 88.8888C268.196 89.7172 268.869 90.3888 269.698 90.3888Z" fill="white"/>
<path d="M311.806 71.2499C312.512 71.2499 313.085 70.6778 313.085 69.9721C313.085 69.2664 312.512 68.6943 311.806 68.6943C311.099 68.6943 310.526 69.2664 310.526 69.9721C310.526 70.6778 311.099 71.2499 311.806 71.2499Z" fill="white"/>
<path d="M356.168 141.222C356.889 141.222 357.475 140.638 357.475 139.917C357.475 139.196 356.889 138.611 356.168 138.611C355.446 138.611 354.86 139.196 354.86 139.917C354.86 140.638 355.446 141.222 356.168 141.222Z" fill="white"/>
<path d="M334.613 181.055C335.166 181.055 335.614 180.608 335.614 180.055C335.614 179.503 335.166 179.055 334.613 179.055C334.06 179.055 333.611 179.503 333.611 180.055C333.611 180.608 334.06 181.055 334.613 181.055Z" fill="white"/>
<path d="M320.679 209.889C321.6 209.889 322.347 209.143 322.347 208.222C322.347 207.302 321.6 206.555 320.679 206.555C319.757 206.555 319.01 207.302 319.01 208.222C319.01 209.143 319.757 209.889 320.679 209.889Z" fill="white"/>
<path d="M279.405 231.75C280.634 231.75 281.63 230.755 281.63 229.528C281.63 228.3 280.634 227.305 279.405 227.305C278.176 227.305 277.18 228.3 277.18 229.528C277.18 230.755 278.176 231.75 279.405 231.75Z" fill="white"/>
<path d="M318.065 238.583C318.587 238.583 319.01 238.16 319.01 237.639C319.01 237.117 318.587 236.694 318.065 236.694C317.543 236.694 317.119 237.117 317.119 237.639C317.119 238.16 317.543 238.583 318.065 238.583Z" fill="white"/>
<path d="M189.18 256.694C189.902 256.694 190.487 256.11 190.487 255.389C190.487 254.668 189.902 254.083 189.18 254.083C188.458 254.083 187.873 254.668 187.873 255.389C187.873 256.11 188.458 256.694 189.18 256.694Z" fill="white"/>
<path d="M171.325 262.5C172.169 262.5 172.854 261.816 172.854 260.972C172.854 260.128 172.169 259.444 171.325 259.444C170.48 259.444 169.795 260.128 169.795 260.972C169.795 261.816 170.48 262.5 171.325 262.5Z" fill="white"/>
<path d="M239.16 234.056C239.805 234.056 240.328 233.533 240.328 232.889C240.328 232.245 239.805 231.722 239.16 231.722C238.515 231.722 237.992 232.245 237.992 232.889C237.992 233.533 238.515 234.056 239.16 234.056Z" fill="white"/>
<path d="M398.777 168.222C399.714 168.222 400.473 167.464 400.473 166.528C400.473 165.592 399.714 164.833 398.777 164.833C397.84 164.833 397.08 165.592 397.08 166.528C397.08 167.464 397.84 168.222 398.777 168.222Z" fill="white"/>
<path d="M398.22 143.611C398.865 143.611 399.388 143.089 399.388 142.444C399.388 141.8 398.865 141.278 398.22 141.278C397.575 141.278 397.052 141.8 397.052 142.444C397.052 143.089 397.575 143.611 398.22 143.611Z" fill="white"/>
<path d="M376.553 153.972C377.337 153.972 377.972 153.338 377.972 152.555C377.972 151.773 377.337 151.139 376.553 151.139C375.77 151.139 375.135 151.773 375.135 152.555C375.135 153.338 375.77 153.972 376.553 153.972Z" fill="white"/>
<path d="M416.687 158.306C417.609 158.306 418.356 157.559 418.356 156.639C418.356 155.718 417.609 154.972 416.687 154.972C415.766 154.972 415.019 155.718 415.019 156.639C415.019 157.559 415.766 158.306 416.687 158.306Z" fill="white"/>
<path d="M374.357 172.722C374.787 172.722 375.136 172.374 375.136 171.944C375.136 171.515 374.787 171.167 374.357 171.167C373.927 171.167 373.578 171.515 373.578 171.944C373.578 172.374 373.927 172.722 374.357 172.722Z" fill="white"/>
<path d="M347.49 205.528C348.073 205.528 348.546 205.055 348.546 204.472C348.546 203.889 348.073 203.417 347.49 203.417C346.906 203.417 346.433 203.889 346.433 204.472C346.433 205.055 346.906 205.528 347.49 205.528Z" fill="white"/>
<path d="M344.764 250C346.269 250 347.489 248.781 347.489 247.278C347.489 245.774 346.269 244.555 344.764 244.555C343.258 244.555 342.038 245.774 342.038 247.278C342.038 248.781 343.258 250 344.764 250Z" fill="white"/>
<path d="M73.7037 154C74.8096 154 75.7062 153.105 75.7062 152C75.7062 150.895 74.8096 150 73.7037 150C72.5977 150 71.7012 150.895 71.7012 152C71.7012 153.105 72.5977 154 73.7037 154Z" fill="white"/>
<path d="M32.4575 189.222C32.8569 189.222 33.1806 188.899 33.1806 188.5C33.1806 188.101 32.8569 187.778 32.4575 187.778C32.0581 187.778 31.7344 188.101 31.7344 188.5C31.7344 188.899 32.0581 189.222 32.4575 189.222Z" fill="white"/>
<path d="M37.4083 201.611C38.1149 201.611 38.6877 201.039 38.6877 200.333C38.6877 199.628 38.1149 199.055 37.4083 199.055C36.7017 199.055 36.1289 199.628 36.1289 200.333C36.1289 201.039 36.7017 201.611 37.4083 201.611Z" fill="white"/>
<path d="M285.579 33.1666C286.393 33.1666 287.053 32.5075 287.053 31.6944C287.053 30.8813 286.393 30.2222 285.579 30.2222C284.764 30.2222 284.104 30.8813 284.104 31.6944C284.104 32.5075 284.764 33.1666 285.579 33.1666Z" fill="white"/>
<path d="M268.196 43.4722C269.026 43.4722 269.698 42.8006 269.698 41.9722C269.698 41.1437 269.026 40.4722 268.196 40.4722C267.367 40.4722 266.694 41.1437 266.694 41.9722C266.694 42.8006 267.367 43.4722 268.196 43.4722Z" fill="white"/>
<path d="M255.069 51.3054C255.484 51.3054 255.82 50.9696 255.82 50.5554C255.82 50.1412 255.484 49.8054 255.069 49.8054C254.655 49.8054 254.318 50.1412 254.318 50.5554C254.318 50.9696 254.655 51.3054 255.069 51.3054Z" fill="white"/>
<path d="M160.729 215.583C161.543 215.583 162.203 214.924 162.203 214.111C162.203 213.298 161.543 212.639 160.729 212.639C159.915 212.639 159.255 213.298 159.255 214.111C159.255 214.924 159.915 215.583 160.729 215.583Z" fill="white"/>
<path d="M178.418 210.333C178.541 210.333 178.64 210.234 178.64 210.111C178.64 209.988 178.541 209.889 178.418 209.889C178.295 209.889 178.195 209.988 178.195 210.111C178.195 210.234 178.295 210.333 178.418 210.333Z" fill="white"/>
<path d="M164.177 113.861C164.607 113.861 164.956 113.513 164.956 113.083C164.956 112.654 164.607 112.305 164.177 112.305C163.747 112.305 163.398 112.654 163.398 113.083C163.398 113.513 163.747 113.861 164.177 113.861Z" fill="white"/>
<path d="M136.726 97.7222C137.279 97.7222 137.727 97.2745 137.727 96.7222C137.727 96.1699 137.279 95.7222 136.726 95.7222C136.173 95.7222 135.725 96.1699 135.725 96.7222C135.725 97.2745 136.173 97.7222 136.726 97.7222Z" fill="white"/>
<path d="M142.762 73.9999C143.515 73.9999 144.125 73.3905 144.125 72.6388C144.125 71.8871 143.515 71.2777 142.762 71.2777C142.01 71.2777 141.399 71.8871 141.399 72.6388C141.399 73.3905 142.01 73.9999 142.762 73.9999Z" fill="white"/>
<path d="M108.164 125.75C108.855 125.75 109.415 125.19 109.415 124.5C109.415 123.81 108.855 123.25 108.164 123.25C107.472 123.25 106.912 123.81 106.912 124.5C106.912 125.19 107.472 125.75 108.164 125.75Z" fill="white"/>
<path d="M65.2492 86.3611C65.541 86.3611 65.7776 86.1248 65.7776 85.8333C65.7776 85.5418 65.541 85.3055 65.2492 85.3055C64.9573 85.3055 64.7207 85.5418 64.7207 85.8333C64.7207 86.1248 64.9573 86.3611 65.2492 86.3611Z" fill="white"/>
<path d="M81.4354 58.0833C81.9423 58.0833 82.3532 57.6729 82.3532 57.1667C82.3532 56.6604 81.9423 56.25 81.4354 56.25C80.9285 56.25 80.5176 56.6604 80.5176 57.1667C80.5176 57.6729 80.9285 58.0833 81.4354 58.0833Z" fill="white"/>
<path d="M193.992 86.3611C194.284 86.3611 194.521 86.1248 194.521 85.8333C194.521 85.5418 194.284 85.3055 193.992 85.3055C193.7 85.3055 193.464 85.5418 193.464 85.8333C193.464 86.1248 193.7 86.3611 193.992 86.3611Z" fill="white"/>
<path d="M289.167 145.722C288.833 146.417 287.998 146.694 287.303 146.361L278.654 142.194C277.958 141.861 277.68 141.028 278.014 140.333L278.598 139.139C278.932 138.444 279.766 138.167 280.461 138.5L289.111 142.667C289.806 143 290.084 143.833 289.751 144.528L289.167 145.722Z" fill="url(#paint13_linear)"/>
<path d="M283.771 148.028C283.576 148.444 283.076 148.611 282.659 148.417L276.29 145.361C275.872 145.167 275.706 144.667 275.9 144.25L276.429 143.139C276.623 142.722 277.124 142.555 277.541 142.75L283.91 145.805C284.327 146 284.494 146.5 284.3 146.917L283.771 148.028Z" fill="url(#paint14_linear)"/>
<path d="M305.187 151.917L302.628 153L300.486 148.056L303.045 146.944L305.187 151.917Z" fill="url(#paint15_linear)"/>
<path d="M306.216 154.361L303.018 155.75L302.295 154.111L305.521 152.722L306.216 154.361Z" fill="url(#paint16_linear)"/>
<path d="M304.853 151.139C305.048 151.556 304.825 152.056 304.408 152.222L300.959 153.694C300.542 153.889 300.041 153.667 299.874 153.25L298.4 149.806C298.206 149.389 298.428 148.889 298.845 148.722L302.294 147.25C302.711 147.056 303.212 147.278 303.379 147.694L304.853 151.139Z" fill="url(#paint17_linear)"/>
<path d="M306.104 154.111C306.16 154.25 306.104 154.417 305.965 154.472L302.516 155.944C302.377 156 302.21 155.944 302.155 155.806L301.654 154.667C301.599 154.528 301.654 154.361 301.793 154.306L305.242 152.833C305.381 152.778 305.548 152.833 305.603 152.972L306.104 154.111Z" fill="url(#paint18_linear)"/>
<path d="M216.159 233.25L200.083 223.167L197.914 226.611L213.99 236.694L216.159 233.25Z" fill="url(#paint19_linear)"/>
<path d="M244.917 213.167L256.236 198.472L253.01 196L241.69 210.694L244.917 213.167Z" fill="url(#paint20_linear)"/>
<path d="M240.902 193.091C243.122 190.209 242.504 186.015 239.521 183.723C236.538 181.431 232.321 181.909 230.101 184.791C227.881 187.672 228.499 191.867 231.482 194.159C234.465 196.451 238.682 195.972 240.902 193.091Z" fill="#D1D3D4"/>
<path d="M207.519 165.511C209.12 163.432 209.116 160.746 207.509 159.511C205.902 158.276 203.301 158.96 201.699 161.04C200.097 163.119 200.102 165.806 201.709 167.04C203.316 168.275 205.917 167.591 207.519 165.511Z" fill="#D1D3D4"/>
</g>
<defs>
<filter id="filter0_d" x="-12" y="-8" width="469" height="324" filterUnits="userSpaceOnUse" color-interpolation-filters="sRGB">
<feFlood flood-opacity="0" result="BackgroundImageFix"/>
<feColorMatrix in="SourceAlpha" type="matrix" values="0 0 0 0 0 0 0 0 0 0 0 0 0 0 0 0 0 0 127 0" result="hardAlpha"/>
<feOffset dy="4"/>
<feGaussianBlur stdDeviation="6"/>
<feColorMatrix type="matrix" values="0 0 0 0 0 0 0 0 0 0 0 0 0 0 0 0 0 0 0.4 0"/>
<feBlend mode="normal" in2="BackgroundImageFix" result="effect1_dropShadow"/>
<feBlend mode="normal" in="SourceGraphic" in2="effect1_dropShadow" result="shape"/>
</filter>
<linearGradient id="paint0_linear" x1="198.75" y1="93.7058" x2="219.604" y2="112.137" gradientUnits="userSpaceOnUse">
<stop stop-color="#71459B"/>
<stop offset="0.8668" stop-color="#A76DAE"/>
</linearGradient>
<linearGradient id="paint1_linear" x1="199.819" y1="94.7475" x2="218.438" y2="111.204" gradientUnits="userSpaceOnUse">
<stop stop-color="#71459B"/>
<stop offset="0.8668" stop-color="#A76DAE"/>
</linearGradient>
<linearGradient id="paint2_linear" x1="229.259" y1="146.241" x2="231.665" y2="148.368" gradientUnits="userSpaceOnUse">
<stop stop-color="#71459B"/>
<stop offset="0.8668" stop-color="#A76DAE"/>
</linearGradient>
<linearGradient id="paint3_linear" x1="158.193" y1="91.2399" x2="181.422" y2="91.2399" gradientUnits="userSpaceOnUse">
<stop stop-color="#71459B"/>
<stop offset="0.8668" stop-color="#A76DAE"/>
</linearGradient>
<linearGradient id="paint4_linear" x1="225.812" y1="77.374" x2="249.041" y2="77.374" gradientUnits="userSpaceOnUse">
<stop stop-color="#71459B"/>
<stop offset="0.8668" stop-color="#A76DAE"/>
</linearGradient>
<linearGradient id="paint5_linear" x1="247.908" y1="160.255" x2="277.475" y2="160.255" gradientUnits="userSpaceOnUse">
<stop stop-color="#43B5E8"/>
<stop offset="1" stop-color="#7DD3F7"/>
</linearGradient>
<linearGradient id="paint6_linear" x1="50.3539" y1="172.151" x2="72.4809" y2="199.513" gradientUnits="userSpaceOnUse">
<stop stop-color="#43B5E8"/>
<stop offset="1" stop-color="#7DD3F7"/>
</linearGradient>
<linearGradient id="paint7_linear" x1="142.587" y1="242.801" x2="156.377" y2="256.608" gradientUnits="userSpaceOnUse">
<stop stop-color="#43B5E8"/>
<stop offset="1" stop-color="#7DD3F7"/>
</linearGradient>
<linearGradient id="paint8_linear" x1="85.115" y1="127.422" x2="94.2301" y2="136.548" gradientUnits="userSpaceOnUse">
<stop stop-color="#71459B"/>
<stop offset="0.8668" stop-color="#A76DAE"/>
</linearGradient>
<linearGradient id="paint9_linear" x1="340.857" y1="213.502" x2="352.015" y2="224.673" gradientUnits="userSpaceOnUse">
<stop stop-color="#71459B"/>
<stop offset="0.8668" stop-color="#A76DAE"/>
</linearGradient>
<linearGradient id="paint10_linear" x1="88.3949" y1="43.2268" x2="127.61" y2="54.1673" gradientUnits="userSpaceOnUse">
<stop stop-color="#43B5E8"/>
<stop offset="1" stop-color="#7DD3F7"/>
</linearGradient>
<linearGradient id="paint11_linear" x1="291.95" y1="41.3376" x2="316.3" y2="58.343" gradientUnits="userSpaceOnUse">
<stop stop-color="#43B5E8"/>
<stop offset="1" stop-color="#7DD3F7"/>
</linearGradient>
<linearGradient id="paint12_linear" x1="364.139" y1="92.5426" x2="386.06" y2="126.548" gradientUnits="userSpaceOnUse">
<stop stop-color="#43B5E8"/>
<stop offset="1" stop-color="#7DD3F7"/>
</linearGradient>
<linearGradient id="paint13_linear" x1="278.303" y1="139.756" x2="289.441" y2="145.125" gradientUnits="userSpaceOnUse">
<stop stop-color="#43B5E8"/>
<stop offset="1" stop-color="#7DD3F7"/>
</linearGradient>
<linearGradient id="paint14_linear" x1="276.163" y1="143.691" x2="284.033" y2="147.485" gradientUnits="userSpaceOnUse">
<stop stop-color="#43B5E8"/>
<stop offset="1" stop-color="#7DD3F7"/>
</linearGradient>
<linearGradient id="paint15_linear" x1="301.569" y1="150.53" x2="304.134" y2="149.422" gradientUnits="userSpaceOnUse">
<stop stop-color="#43B5E8"/>
<stop offset="1" stop-color="#7DD3F7"/>
</linearGradient>
<linearGradient id="paint16_linear" x1="302.644" y1="154.919" x2="305.846" y2="153.537" gradientUnits="userSpaceOnUse">
<stop stop-color="#43B5E8"/>
<stop offset="1" stop-color="#7DD3F7"/>
</linearGradient>
<linearGradient id="paint17_linear" x1="299.169" y1="151.57" x2="304.137" y2="149.425" gradientUnits="userSpaceOnUse">
<stop stop-color="#43B5E8"/>
<stop offset="1" stop-color="#7DD3F7"/>
</linearGradient>
<linearGradient id="paint18_linear" x1="301.902" y1="155.254" x2="305.847" y2="153.551" gradientUnits="userSpaceOnUse">
<stop stop-color="#43B5E8"/>
<stop offset="1" stop-color="#7DD3F7"/>
</linearGradient>
<linearGradient id="paint19_linear" x1="198.987" y1="224.88" x2="215.045" y2="234.987" gradientUnits="userSpaceOnUse">
<stop stop-color="#43B5E8"/>
<stop offset="1" stop-color="#7DD3F7"/>
</linearGradient>
<linearGradient id="paint20_linear" x1="254.626" y1="197.221" x2="243.322" y2="211.931" gradientUnits="userSpaceOnUse">
<stop stop-color="#43B5E8"/>
<stop offset="1" stop-color="#7DD3F7"/>
</linearGradient>
</defs>
</svg>
