<svg width="200" height="43" viewBox="0 0 200 43" fill="none" xmlns="http://www.w3.org/2000/svg">
<path d="M0 42.1727L16.989 0H22.4521L39.3831 42.1727H32.3148L27.7993 30.7097H11.5258L7.13112 42.1727H0ZM19.7157 7.42604L12.7055 25.7784H26.4842L19.7157 7.42604Z" fill="white"/>
<path d="M44.4883 42.1727V0H51.1408V36.2938H73.7718V42.1727H44.4883Z" fill="white"/>
<path d="M91.1474 22.4521L84.5529 29.3415V42.1727H77.9004V0.0580135H84.5529V22.0364L104.631 0H111.757L91.1474 22.4521ZM97.4469 21.7946L112.71 42.1727H105.521L93.6614 25.9041L97.4469 21.7946Z" fill="white"/>
<path d="M116.844 42.1727L133.833 0H139.296L156.227 42.1727H149.159L144.643 30.7097H128.37L123.975 42.1727H116.844ZM136.564 7.42604L129.554 25.7784H143.333L136.564 7.42604Z" fill="white"/>
<path d="M160.168 42.1727V0H166.82V36.2938H189.451V42.1727H160.168Z" fill="white"/>
<path d="M193.348 42.1728V0.0581055H200V42.1728H193.348Z" fill="white"/>
</svg>
