<svg width="65" height="65" viewBox="0 0 65 65" fill="none" xmlns="http://www.w3.org/2000/svg">
<path d="M23 35.9C24.933 35.9 26.5 34.333 26.5 32.4C26.5 30.467 24.933 28.9 23 28.9C21.067 28.9 19.5 30.467 19.5 32.4C19.5 34.333 21.067 35.9 23 35.9Z" stroke="#00B9F2" stroke-width="2" stroke-miterlimit="10" stroke-linecap="round" stroke-linejoin="round"/>
<path d="M22.5996 36.7L17.3996 38.0999L15.5996 49.2999L17.4996 49.7999L19.4996 41.7V62.5999H22.0996" stroke="#00B9F2" stroke-width="2" stroke-miterlimit="10" stroke-linecap="round" stroke-linejoin="round"/>
<path d="M23.5 36.7L28.7 38.0999L30.4 49.2999L28.5 49.7999L26.6 41.7V62.5999H23.9" stroke="#00B9F2" stroke-width="2" stroke-miterlimit="10" stroke-linecap="round" stroke-linejoin="round"/>
<path d="M15.6002 45.2001H10.2002V8.80005H55.8002V45.5H30.3002" stroke="#00B9F2" stroke-width="2" stroke-miterlimit="10" stroke-linecap="round" stroke-linejoin="round"/>
<path d="M15.6 49.3C15.6 49.3 11.2 50 6.90005 51.2C2.60005 52.4 6.70005 45.3 6.50005 43.1C6.20005 40.9 4.20005 35.2 5.00005 33.8C5.80005 32.5 7.50005 23.4 6.20005 21.5C4.90005 19.6 6.30005 13.7 6.40005 11.5C6.50005 9.2 2.40005 2.3 5.30005 2.4C8.20005 2.5 11.4 6 14.6 5.3C17.8 4.6 22.4 1.9 24.9 3.7C27.4 5.5 35.6 6.6 37.6 5.2C39.6 3.8 45.2 4 47.6 4.4C50 4.8 54.3 4.7 55.9 3.6C57.4 2.4 61.5 2.1 60.5 6.1C59.4 10.1 58.4 12.4 59.6 14.1C60.8 15.8 60.8 19 60.4 21.6C60 24.2 58.9 29.1 59.9 31.3C60.9 33.5 61.3 38.6 60.8 40.2C60.3 41.8 60.3 47.2 61 48.6C61.8 50 59.3 51.9 54.3 49.5C49.3 47.1 47.1 51.5 40.1 49.5C33.1 47.5 30.7 49.2 30.7 49.2" stroke="#00B9F2" stroke-width="2" stroke-miterlimit="10" stroke-linecap="round" stroke-linejoin="round"/>
<path d="M23 51.4V62.6" stroke="#00B9F2" stroke-width="2" stroke-miterlimit="10" stroke-linecap="round" stroke-linejoin="round"/>
</svg>
