<svg width="600" height="450" viewBox="0 0 600 450" fill="none" xmlns="http://www.w3.org/2000/svg">
<g filter="url(#filter0_d)">
<path d="M367.05 117.587L217.237 117.4C217.237 117.4 225.037 108.874 253.912 111.465C253.912 111.465 266.4 106.771 285.9 106.771C305.4 106.771 311.662 110.601 311.662 110.601C311.662 110.601 317.137 107.296 335.85 107.634C354.562 107.972 356.925 111.127 356.925 111.127C356.925 111.127 380.287 113.944 367.05 117.587Z" fill="#F1F2F2"/>
<path d="M154.988 158.564L41.3252 158.376C41.3252 158.376 47.2502 148.761 69.1502 151.69C69.1502 151.69 78.6377 146.395 93.4127 146.395C108.188 146.395 112.95 150.714 112.95 150.714C112.95 150.714 117.113 146.995 131.288 147.371C145.463 147.747 147.263 151.315 147.263 151.315C147.263 151.315 165.038 154.432 154.988 158.564Z" fill="#F1F2F2"/>
<path d="M455.062 167.089L365.024 166.939C365.024 166.939 369.712 159.314 387.074 161.643C387.074 161.643 394.574 157.437 406.312 157.437C418.049 157.437 421.799 160.854 421.799 160.854C421.799 160.854 425.099 157.887 436.349 158.225C447.599 158.526 449.024 161.343 449.024 161.343C449.024 161.343 463.049 163.821 455.062 167.089Z" fill="#F1F2F2"/>
<path d="M346.725 131.296L387.863 131.146C387.863 131.146 385.725 124.348 377.775 126.451C377.775 126.451 374.363 122.695 369 122.695C363.638 122.695 361.913 125.738 361.913 125.738C361.913 125.738 360.413 123.108 355.275 123.371C350.138 123.634 349.5 126.151 349.5 126.151C349.5 126.151 343.088 128.404 346.725 131.296Z" fill="url(#paint0_linear)"/>
<path d="M429.413 154.92L462 154.808C462 154.808 460.313 149.437 454.013 151.089C454.013 151.089 451.313 148.122 447.038 148.122C442.8 148.122 441.45 150.526 441.45 150.526C441.45 150.526 440.25 148.423 436.2 148.648C432.113 148.873 431.625 150.826 431.625 150.826C431.625 150.826 426.525 152.629 429.413 154.92Z" fill="url(#paint1_linear)"/>
<path d="M22.6499 171.071L90.9749 170.958C90.9749 170.958 87.4124 165.587 74.2499 167.24C74.2499 167.24 68.5499 164.272 59.6624 164.272C50.7749 164.272 47.9249 166.676 47.9249 166.676C47.9249 166.676 45.4499 164.61 36.8999 164.798C28.3499 165.024 27.2999 166.977 27.2999 166.977C27.2999 166.977 16.6124 168.742 22.6499 171.071Z" fill="url(#paint2_linear)"/>
<path d="M193.125 106.32L261.45 106.207C261.45 106.207 257.887 100.836 244.725 102.489C244.725 102.489 239.025 99.5215 230.137 99.5215C221.25 99.5215 218.4 101.925 218.4 101.925C218.4 101.925 215.925 99.8595 207.375 100.047C198.825 100.273 197.775 102.226 197.775 102.226C197.775 102.226 187.05 104.029 193.125 106.32Z" fill="url(#paint3_linear)"/>
<path d="M302.775 376.555C457.049 376.555 582.113 363.237 582.113 346.808C582.113 330.379 457.049 317.062 302.775 317.062C148.501 317.062 23.4375 330.379 23.4375 346.808C23.4375 363.237 148.501 376.555 302.775 376.555Z" fill="#D9F1FD"/>
<path d="M488.999 245.737C488.999 244.686 488.174 243.859 487.124 243.859H415.199C414.149 243.859 413.324 244.686 413.324 245.737V283.822C413.324 284.873 414.149 285.7 415.199 285.7H487.124C488.174 285.7 488.999 284.873 488.999 283.822V245.737Z" fill="#E6E7E8"/>
<path d="M488.25 239.39L488.288 242.056L455.625 242.282V239.653L488.25 239.39Z" fill="url(#paint4_linear)"/>
<path d="M487.688 239.428V242.057H488.437V239.428H487.688Z" fill="url(#paint5_linear)"/>
<path d="M486.598 240.562L486.608 242.064L486.721 242.064L486.71 240.561L486.598 240.562Z" fill="white"/>
<path d="M484.546 240.573L484.557 242.075L484.669 242.074L484.658 240.572L484.546 240.573Z" fill="white"/>
<path d="M482.794 240.563L482.805 242.065L482.917 242.065L482.906 240.562L482.794 240.563Z" fill="white"/>
<path d="M480.797 240.582L480.808 242.084L480.92 242.083L480.909 240.581L480.797 240.582Z" fill="white"/>
<path d="M478.435 240.623L478.445 242.125L478.558 242.124L478.547 240.622L478.435 240.623Z" fill="white"/>
<path d="M475.915 240.616L475.926 242.118L476.038 242.117L476.028 240.615L475.915 240.616Z" fill="white"/>
<path d="M473.376 240.638L473.387 242.141L473.499 242.14L473.488 240.637L473.376 240.638Z" fill="white"/>
<path d="M471.173 240.679L471.184 242.182L471.296 242.181L471.285 240.678L471.173 240.679Z" fill="white"/>
<path d="M468.864 240.691L468.875 242.193L468.987 242.193L468.977 240.69L468.864 240.691Z" fill="white"/>
<path d="M466.594 240.703L466.604 242.205L466.717 242.204L466.706 240.702L466.594 240.703Z" fill="white"/>
<path d="M463.397 240.749L463.408 242.251L463.521 242.25L463.51 240.748L463.397 240.749Z" fill="white"/>
<path d="M460.692 240.736L460.703 242.238L460.816 242.237L460.805 240.735L460.692 240.736Z" fill="white"/>
<path d="M457.589 240.743L457.6 242.245L457.712 242.244L457.701 240.742L457.589 240.743Z" fill="white"/>
<path d="M494.588 278.638H491.963L491.7 245.962L494.363 245.925L494.588 278.638Z" fill="url(#paint6_linear)"/>
<path d="M494.588 278.037L491.926 278.075V278.826L494.588 278.788V278.037Z" fill="url(#paint7_linear)"/>
<path d="M493.438 276.949L491.938 276.96L491.938 277.073L493.438 277.062L493.438 276.949Z" fill="white"/>
<path d="M493.438 274.921L491.938 274.932L491.938 275.044L493.438 275.034L493.438 274.921Z" fill="white"/>
<path d="M493.438 273.155L491.938 273.166L491.938 273.279L493.438 273.268L493.438 273.155Z" fill="white"/>
<path d="M493.4 271.165L491.9 271.176L491.901 271.288L493.401 271.278L493.4 271.165Z" fill="white"/>
<path d="M493.4 268.799L491.9 268.81L491.901 268.922L493.401 268.911L493.4 268.799Z" fill="white"/>
<path d="M493.362 266.245L491.862 266.256L491.863 266.368L493.363 266.358L493.362 266.245Z" fill="white"/>
<path d="M493.325 263.69L491.825 263.701L491.826 263.814L493.326 263.803L493.325 263.69Z" fill="white"/>
<path d="M493.325 261.513L491.825 261.523L491.826 261.636L493.326 261.625L493.325 261.513Z" fill="white"/>
<path d="M493.325 259.222L491.825 259.232L491.826 259.345L493.326 259.334L493.325 259.222Z" fill="white"/>
<path d="M493.288 256.93L491.788 256.94L491.789 257.053L493.289 257.042L493.288 256.93Z" fill="white"/>
<path d="M493.25 253.737L491.75 253.748L491.751 253.861L493.251 253.85L493.25 253.737Z" fill="white"/>
<path d="M493.25 251.033L491.75 251.044L491.751 251.157L493.251 251.146L493.25 251.033Z" fill="white"/>
<path d="M493.25 247.916L491.75 247.927L491.751 248.039L493.251 248.029L493.25 247.916Z" fill="white"/>
<path d="M408.188 242.657C409.037 242.657 409.725 241.278 409.725 239.577C409.725 237.876 409.037 236.497 408.188 236.497C407.339 236.497 406.65 237.876 406.65 239.577C406.65 241.278 407.339 242.657 408.188 242.657Z" fill="url(#paint8_linear)"/>
<path d="M411.376 236.497H407.813V242.657H411.376V236.497Z" fill="url(#paint9_linear)"/>
<path d="M411.487 242.657C412.316 242.657 412.987 241.278 412.987 239.577C412.987 237.876 412.316 236.497 411.487 236.497C410.659 236.497 409.987 237.876 409.987 239.577C409.987 241.278 410.659 242.657 411.487 242.657Z" fill="url(#paint10_linear)"/>
<path d="M409.951 239.089H406.726V286.037H409.951V239.089Z" fill="url(#paint11_linear)"/>
<path d="M409.913 285.248H406.726V286.262H409.913V285.248Z" fill="url(#paint12_linear)"/>
<path d="M408.526 283.746H406.726V283.896H408.526V283.746Z" fill="white"/>
<path d="M408.526 281.004H406.726V281.154H408.526V281.004Z" fill="white"/>
<path d="M408.526 278.601H406.726V278.751H408.526V278.601Z" fill="white"/>
<path d="M408.526 275.934H406.726V276.084H408.526V275.934Z" fill="white"/>
<path d="M408.526 272.741H406.726V272.891H408.526V272.741Z" fill="white"/>
<path d="M408.526 269.323H406.726V269.473H408.526V269.323Z" fill="white"/>
<path d="M408.526 265.868H406.726V266.018H408.526V265.868Z" fill="white"/>
<path d="M408.526 262.901H406.726V263.052H408.526V262.901Z" fill="white"/>
<path d="M408.526 259.783H406.726V259.933H408.526V259.783Z" fill="white"/>
<path d="M408.526 256.704H406.726V256.854H408.526V256.704Z" fill="white"/>
<path d="M408.489 252.385H406.688V252.535H408.489V252.385Z" fill="white"/>
<path d="M408.526 248.704H406.726V248.854H408.526V248.704Z" fill="white"/>
<path d="M408.526 244.497H406.726V244.647H408.526V244.497Z" fill="white"/>
<path d="M408.526 241.267H406.726V241.417H408.526V241.267Z" fill="white"/>
<path d="M408.563 238.638H406.763V238.788H408.563V238.638Z" fill="white"/>
<path d="M409.5 236.723H407.7V236.873H409.5V236.723Z" fill="white"/>
<path d="M490.612 228.197C490.612 229.249 489.787 230.075 488.737 230.075H454.237C453.187 230.075 452.362 229.249 452.362 228.197V226.395C452.362 225.343 453.187 224.517 454.237 224.517H488.737C489.787 224.517 490.612 225.343 490.612 226.395V228.197Z" fill="#EDEDEE"/>
<path d="M453.075 238.639C454.691 238.639 456 237.394 456 235.859C456 234.324 454.691 233.08 453.075 233.08C451.46 233.08 450.15 234.324 450.15 235.859C450.15 237.394 451.46 238.639 453.075 238.639Z" fill="#EDEDEE"/>
<path d="M498.563 233.793C498.563 234.582 497.738 235.221 496.688 235.221H462.188C461.138 235.221 460.312 234.582 460.312 233.793C460.312 233.005 461.138 232.366 462.188 232.366H496.688C497.7 232.366 498.563 233.005 498.563 233.793Z" fill="#F1F2F2"/>
<path d="M450.713 293.249C450.713 294.301 449.888 295.127 448.838 295.127H414.338C413.288 295.127 412.463 294.301 412.463 293.249V291.446C412.463 290.395 413.288 289.568 414.338 289.568H448.838C449.888 289.568 450.713 290.395 450.713 291.446V293.249Z" fill="#EDEDEE"/>
<path d="M413.138 303.728C414.753 303.728 416.063 302.483 416.063 300.948C416.063 299.413 414.753 298.169 413.138 298.169C411.522 298.169 410.213 299.413 410.213 300.948C410.213 302.483 411.522 303.728 413.138 303.728Z" fill="#EDEDEE"/>
<path d="M458.625 298.845C458.625 299.634 457.8 300.272 456.75 300.272H422.25C421.2 300.272 420.375 299.634 420.375 298.845C420.375 298.056 421.2 297.418 422.25 297.418H456.75C457.8 297.418 458.625 298.056 458.625 298.845Z" fill="#F1F2F2"/>
<path d="M557.925 340.272H529.275C529.275 340.272 532.313 338.958 531.038 337.267C531.038 337.267 535.838 338.169 535.688 339.22C535.688 339.22 532.65 336.817 535.838 335.352C535.838 335.352 540.338 337.342 538.875 338.845C538.875 338.845 544.463 336.742 542.25 335.164C542.25 335.164 548.663 336.666 547.838 338.657C547.838 338.657 553.125 338.619 553.125 337.605C553.125 337.568 553.463 340.385 557.925 340.272Z" fill="url(#paint13_linear)"/>
<path d="M490.312 343.69H461.662C461.662 343.69 464.7 342.375 463.425 340.685C463.425 340.685 468.225 341.587 468.075 342.638C468.075 342.638 465.037 340.235 468.225 338.77C468.225 338.77 472.725 340.76 471.262 342.263C471.262 342.263 476.85 340.159 474.637 338.582C474.637 338.582 481.05 340.084 480.225 342.075C480.225 342.075 485.512 342.037 485.512 341.023C485.512 340.986 485.85 343.803 490.312 343.69Z" fill="url(#paint14_linear)"/>
<path d="M550.088 354.169H521.438C521.438 354.169 524.475 352.854 523.2 351.164C523.2 351.164 528 352.065 527.85 353.117C527.85 353.117 524.813 350.713 528 349.248C528 349.248 532.5 351.239 531.038 352.741C531.038 352.741 536.625 350.638 534.413 349.061C534.413 349.061 540.825 350.563 540 352.554C540 352.554 545.288 352.516 545.288 351.502C545.288 351.464 545.588 354.281 550.088 354.169Z" fill="url(#paint15_linear)"/>
<path d="M460.613 278.526C460.613 279.577 459.788 280.403 458.738 280.403H417.938C416.888 280.403 416.062 279.577 416.062 278.526V249.455C416.062 248.403 416.888 247.577 417.938 247.577H458.738C459.788 247.577 460.613 248.403 460.613 249.455V278.526Z" fill="#B1E3FA"/>
<path d="M459.487 255.202C459.487 257.268 457.799 258.958 455.737 258.958H420.824C418.762 258.958 417.074 257.268 417.074 255.202V252.535C417.074 250.469 418.762 248.779 420.824 248.779H455.737C457.799 248.779 459.487 250.469 459.487 252.535V255.202Z" fill="url(#paint16_linear)"/>
<path d="M437.512 275.296C437.512 276.986 435.825 278.338 433.762 278.338H421.05C418.987 278.338 417.3 276.986 417.3 275.296C417.3 273.606 418.987 272.254 421.05 272.254H433.762C435.825 272.254 437.512 273.644 437.512 275.296Z" fill="url(#paint17_linear)"/>
<path d="M459.375 275.258C459.375 276.948 457.687 278.3 455.625 278.3H442.912C440.85 278.3 439.162 276.948 439.162 275.258C439.162 273.568 440.85 272.216 442.912 272.216H455.625C457.687 272.216 459.375 273.568 459.375 275.258Z" fill="url(#paint18_linear)"/>
<path d="M483.9 257.644C483.9 259.709 482.212 261.399 480.15 261.399H467.437C465.375 261.399 463.688 259.709 463.688 257.644V251.033C463.688 248.967 465.375 247.277 467.437 247.277H480.15C482.212 247.277 483.9 248.967 483.9 251.033V257.644Z" fill="url(#paint19_linear)"/>
<path d="M484.087 274.845C484.087 276.91 482.4 278.601 480.337 278.601H467.625C465.562 278.601 463.875 276.91 463.875 274.845V268.234C463.875 266.169 465.562 264.479 467.625 264.479H480.337C482.4 264.479 484.087 266.169 484.087 268.234V274.845Z" fill="url(#paint20_linear)"/>
<path d="M443.699 254.526C443.699 256.591 442.012 258.282 439.949 258.282H436.274C434.212 258.282 432.524 256.591 432.524 254.526V253.437C432.524 251.371 434.212 249.681 436.274 249.681H439.949C442.012 249.681 443.699 251.371 443.699 253.437V254.526Z" fill="#BFE7FB"/>
<path d="M458.325 254.451C458.325 256.516 456.638 258.206 454.575 258.206H450.9C448.838 258.206 447.15 256.516 447.15 254.451V253.361C447.15 251.296 448.838 249.605 450.9 249.605H454.575C456.638 249.605 458.325 251.296 458.325 253.361V254.451Z" fill="#BFE7FB"/>
<path d="M426.6 267.183C426.6 269.249 424.912 270.939 422.85 270.939H421.05C418.987 270.939 417.3 269.249 417.3 267.183V264.065C417.3 262 418.987 260.31 421.05 260.31H422.85C424.912 260.31 426.6 262 426.6 264.065V267.183Z" fill="url(#paint21_linear)"/>
<path d="M437.362 267.146C437.362 269.211 435.675 270.902 433.613 270.902H431.812C429.75 270.902 428.062 269.211 428.062 267.146V264.028C428.062 261.963 429.75 260.272 431.812 260.272H433.613C435.675 260.272 437.362 261.963 437.362 264.028V267.146Z" fill="url(#paint22_linear)"/>
<path d="M448.5 267.07C448.5 269.136 446.813 270.826 444.75 270.826H442.95C440.888 270.826 439.2 269.136 439.2 267.07V263.953C439.2 261.887 440.888 260.197 442.95 260.197H444.75C446.813 260.197 448.5 261.887 448.5 263.953V267.07Z" fill="url(#paint23_linear)"/>
<path d="M459.375 267.22C459.375 269.286 457.688 270.976 455.625 270.976H453.825C451.763 270.976 450.075 269.286 450.075 267.22V264.103C450.075 262.037 451.763 260.347 453.825 260.347H455.625C457.688 260.347 459.375 262.037 459.375 264.103V267.22Z" fill="url(#paint24_linear)"/>
<path d="M430.237 254.525C430.237 256.591 428.55 258.281 426.487 258.281H422.85C420.787 258.281 419.1 256.591 419.1 254.525V253.474C419.1 251.408 420.787 249.718 422.85 249.718H426.487C428.55 249.718 430.237 251.408 430.237 253.474V254.525Z" fill="#D1D3D4"/>
<path d="M500.475 286.563L504.713 272.441L509.1 269.361C509.1 269.361 509.813 270.15 506.738 273.08C506.738 273.08 505.05 289.117 502.088 288.967C499.163 288.779 500.475 286.563 500.475 286.563Z" fill="#E6E7E8"/>
<path d="M522 288.516C522 288.516 523.725 293.136 524.7 294.113C525.112 294.488 525.562 294.789 526.05 295.014C526.312 295.164 526.65 295.164 526.912 295.089C527.212 294.976 527.437 294.789 527.587 294.488C527.662 294.338 527.737 294.188 527.737 294C527.887 292.873 527.925 291.371 527.437 290.244C527.4 290.169 527.362 290.094 527.325 289.981C527.062 289.343 526.8 288.779 526.612 288.291C526.2 287.277 526.012 286.638 526.012 286.638L523.35 286L523.2 286.263L522 288.516Z" fill="#E6E7E8"/>
<path d="M519.675 281.004C520.987 281.117 522.15 281.53 522.975 282.206C524.512 283.408 527.25 286.412 527.25 286.412C527.25 286.412 525.112 287.314 523.425 287.201L521.737 287.088L519.675 281.004Z" fill="url(#paint25_linear)"/>
<path d="M514.8 320.816L514.087 335.877L513.6 345.831H510.937L509.362 321.267L511.012 321.117L514.8 320.816Z" fill="#E6E7E8"/>
<path d="M518.138 320.592L520.275 343.765H523.163L523.65 319.39L518.138 320.592Z" fill="#E6E7E8"/>
<path d="M523.65 319.39H523.538L519.188 320.366C519.825 321.305 521.625 324.31 521.775 327.803C521.925 331.972 522.938 338.094 522.975 338.319L523.5 327.164L523.65 319.39Z" fill="#D1D3D4"/>
<path d="M514.8 320.816L514.088 335.877C514.05 335.69 513.263 330.807 513.113 327.502C513 324.122 510.9 321.342 510.9 321.342L511.088 321.117L514.8 320.816Z" fill="#D1D3D4"/>
<path d="M509.175 302.676L508.8 322.47L525.712 322.582C525.712 322.582 524.737 317.324 525.187 314.319C526.387 306.207 524.175 304.028 524.175 304.028L521.587 300.686L509.175 302.676Z" fill="url(#paint26_linear)"/>
<path d="M513.263 282.131C513.263 282.131 513.525 282.695 513.825 283.408C514.35 284.61 515.025 286.188 515.063 286.338C515.138 286.563 516.975 287.202 516.975 287.202C516.975 287.202 518.063 285.962 518.138 285.85C518.213 285.737 519.075 282.206 519.075 282.206C519.113 281.756 519.075 281.305 519 280.854C518.85 279.728 518.738 276.986 518.738 276.986L519.113 276.385L517.875 273.605C517.875 273.605 516.525 273.943 515.363 274.469C514.425 274.882 513.6 275.446 513.675 276.047C513.863 277.399 513.263 282.131 513.263 282.131Z" fill="#C8C7C6"/>
<path d="M518.55 267.859C518.438 269.511 518.063 271.089 517.538 272.666C517.163 271.577 516.713 270.338 516.713 270.338L513.45 267.671C513.45 267.671 511.575 267.108 510.863 267.258C510.675 267.295 510.413 267.333 510.15 267.408L515.55 265.793L518.55 267.859Z" fill="#F5D9DE"/>
<path d="M517.5 272.667C517.162 273.643 516.75 274.62 516.225 275.521C515.85 276.235 515.437 276.911 514.987 277.549C513.712 279.315 513.112 279.127 512.662 279.052C511.875 278.901 510.975 276.986 510.112 273.418C509.887 272.517 509.775 271.578 509.737 270.676C509.662 269.587 509.775 268.46 510.075 267.371H510.112C510.375 267.333 510.6 267.296 510.825 267.221C511.575 267.071 513.412 267.634 513.412 267.634L516.675 270.301C516.675 270.338 517.125 271.578 517.5 272.667Z" fill="#E6E7E8"/>
<path d="M517.5 272.666C517.162 273.643 516.75 274.619 516.225 275.521C515.85 276.234 515.437 276.91 514.987 277.549C514.95 277.511 513.637 275.709 513.525 274.732C513.45 273.755 512.85 274.657 512.25 275.183C511.65 275.708 511.65 272.216 511.237 272.403C510.825 272.554 510.225 271.502 510.15 271.126C510.112 271.014 510.075 270.901 510 270.826C509.925 270.751 509.85 270.676 509.737 270.638C509.662 269.549 509.775 268.422 510.075 267.333H510.112C510.375 267.295 510.6 267.258 510.825 267.183C511.575 267.032 513.412 267.596 513.412 267.596L516.675 270.263C516.675 270.338 517.125 271.577 517.5 272.666Z" fill="#D1D3D4"/>
<path d="M513.188 281.004C513.188 281.004 513.413 281.304 513.713 281.68L514.387 281.379C514.5 280.666 514.65 279.952 514.837 279.276C515.062 278.675 516.337 278.638 516.337 278.638L516.75 277.248L515.55 276.685C514.612 276.947 513.787 277.286 513.825 277.624C513.9 278.375 513.188 281.004 513.188 281.004Z" fill="#C8C7C6"/>
<path d="M506.25 308.385C506.25 308.385 509.85 310.676 515.925 310.263C521.138 309.925 527.25 306.995 527.25 306.995C527.25 306.995 527.25 306.357 526.05 299.634C525.938 298.958 525.825 298.357 525.675 297.718C525.113 294.789 524.512 292.347 523.95 290.319C521.062 280.141 518.475 280.366 518.475 280.366L517.95 280.291C515.887 279.991 513.825 280.516 512.1 281.681C511.725 281.944 511.387 282.244 511.125 282.62C509.625 285.099 506.25 308.385 506.25 308.385Z" fill="#F2F2F2"/>
<path d="M507.938 282.544C507.938 282.544 502.987 284.084 501.6 285.211C500.775 285.962 500.213 286.789 500.025 287.54C499.838 288.291 500.025 288.967 500.55 289.418L501.787 290.469L510.375 285.737L511.275 282.507L507.938 282.544Z" fill="#E6E7E8"/>
<path d="M513.188 281.004L505.388 282.431C505.388 282.431 506.55 286.901 509.663 288.403C509.663 288.365 510.038 285.06 513.188 281.004Z" fill="url(#paint27_linear)"/>
<path d="M510.037 267.37C510.037 267.37 511.537 262.45 517.162 263.577C522.787 264.704 526.762 270.675 525.187 271.314C523.612 271.99 520.35 277.624 523.425 277.737C526.537 277.849 524.7 282.732 522.937 282.657C521.175 282.544 516.9 287.389 519.45 289.267C522 291.145 524.925 297.117 520.575 297.305C520.575 297.305 521.625 293.06 519 293.06C516.375 293.06 509.475 289.68 512.1 288.328C514.725 287.013 516.637 279.652 513.9 279.915C511.162 280.178 511.312 276.121 512.737 275.183C514.162 274.244 513.075 267.183 510.037 267.37Z" fill="#010101"/>
<path d="M542.25 346.995H487.8C487.8 346.995 493.575 344.516 491.137 341.286C491.137 341.286 500.25 342.977 499.95 345.005C499.95 345.005 494.175 340.423 500.25 337.681C500.25 337.681 508.762 341.474 506.025 344.291C506.025 344.291 516.675 340.31 512.4 337.268C512.4 337.268 524.55 340.16 523.05 343.878C523.05 343.878 533.1 343.803 533.1 341.85C533.137 341.887 533.737 347.183 542.25 346.995Z" fill="#87D6F8"/>
<path d="M121.237 343.389C121.237 345.455 119.55 347.145 117.487 347.145H117.037C114.975 347.145 113.287 345.455 113.287 343.389V142.037C113.287 139.971 114.975 138.281 117.037 138.281H117.487C119.55 138.281 121.237 139.971 121.237 142.037V343.389Z" fill="#939598"/>
<path d="M230.775 140.16C230.775 141.212 229.95 142.038 228.9 142.038H97.125C96.075 142.038 95.25 141.212 95.25 140.16V139.859C95.25 138.808 96.075 137.981 97.125 137.981H228.9C229.95 137.981 230.775 138.808 230.775 139.859V140.16Z" fill="#939598"/>
<path d="M230.437 131.296C230.437 132.347 229.612 133.174 228.562 133.174H96.7871C95.7371 133.174 94.9121 132.347 94.9121 131.296V130.995C94.9121 129.943 95.7371 129.117 96.7871 129.117H228.562C229.612 129.117 230.437 129.943 230.437 130.995V131.296Z" fill="#A7A9AC"/>
<path d="M222.713 155.258L198.825 194.544H244.575L222.713 155.258Z" stroke="#939598" stroke-width="4" stroke-miterlimit="10"/>
<path d="M222.638 156.084L222.75 129.192" stroke="#939598" stroke-width="6" stroke-miterlimit="10"/>
<path d="M145.537 208.553C145.537 210.619 143.85 212.309 141.787 212.309H103.912C101.85 212.309 100.162 210.619 100.162 208.553V171.934C100.162 169.868 101.85 168.178 103.912 168.178H141.787C143.85 168.178 145.537 169.868 145.537 171.934V208.553Z" fill="#A7A9AC"/>
<path d="M93.2625 342.826C93.2625 344.892 91.575 346.582 89.5125 346.582H61.875C59.8125 346.582 58.125 344.892 58.125 342.826V316.159C58.125 314.093 59.8125 312.403 61.875 312.403H89.55C91.6125 312.403 93.3 314.093 93.3 316.159V342.826H93.2625Z" fill="#A7A9AC"/>
<path d="M160.725 340.685C160.725 342.751 159.037 344.441 156.975 344.441H129.3C127.237 344.441 125.55 342.751 125.55 340.685V314.019C125.55 311.953 127.237 310.263 129.3 310.263H156.975C159.037 310.263 160.725 311.953 160.725 314.019V340.685Z" fill="#A7A9AC"/>
<path d="M89.5127 309.023C89.5127 311.089 87.8252 312.779 85.7627 312.779H71.5127C69.4502 312.779 67.7627 311.089 67.7627 309.023V295.39C67.7627 293.324 69.4502 291.634 71.5127 291.634H85.7627C87.8252 291.634 89.5127 293.324 89.5127 295.39V309.023Z" fill="#E6E7E8"/>
<path d="M67.6123 343.239C67.6123 345.305 65.9248 346.995 63.8623 346.995H49.6123C47.5498 346.995 45.8623 345.305 45.8623 343.239V329.605C45.8623 327.54 47.5498 325.85 49.6123 325.85H63.8623C65.9248 325.85 67.6123 327.54 67.6123 329.605V343.239Z" fill="#E6E7E8"/>
<path d="M136.725 344.704C136.725 345.756 135.9 346.582 134.85 346.582H116.85C115.8 346.582 114.975 345.756 114.975 344.704V327.314C114.975 326.263 115.8 325.437 116.85 325.437H134.85C135.9 325.437 136.725 326.263 136.725 327.314V344.704Z" fill="url(#paint28_linear)"/>
<path d="M76.2002 344.855C76.2002 345.906 75.3752 346.733 74.3252 346.733H65.1377C64.0877 346.733 63.2627 345.906 63.2627 344.855V336.028C63.2627 334.977 64.0877 334.15 65.1377 334.15H74.3252C75.3752 334.15 76.2002 334.977 76.2002 336.028V344.855Z" fill="url(#paint29_linear)"/>
<path d="M74.5498 311.277C74.5498 312.328 73.7248 313.154 72.6748 313.154H63.4873C62.4373 313.154 61.6123 312.328 61.6123 311.277V307.107C61.6123 306.056 62.4373 305.229 63.4873 305.229H72.6748C73.7248 305.229 74.5498 306.056 74.5498 307.107V311.277Z" fill="url(#paint30_linear)"/>
<path d="M165.149 323.521C165.149 324.572 164.324 325.398 163.274 325.398H154.087C153.037 325.398 152.212 324.572 152.212 323.521V319.352C152.212 318.3 153.037 317.474 154.087 317.474H163.274C164.324 317.474 165.149 318.3 165.149 319.352V323.521Z" fill="url(#paint31_linear)"/>
<path d="M136.162 308.723C136.162 309.775 135.337 310.601 134.287 310.601H125.1C124.05 310.601 123.225 309.775 123.225 308.723V300.873C123.225 299.821 124.05 298.995 125.1 298.995H134.287C135.337 298.995 136.162 299.821 136.162 300.873V308.723Z" fill="url(#paint32_linear)"/>
<path d="M178.462 342.826C178.462 344.892 176.774 346.582 174.712 346.582H160.462C158.399 346.582 156.712 344.892 156.712 342.826V329.192C156.712 327.127 158.399 325.437 160.462 325.437H174.712C176.774 325.437 178.462 327.127 178.462 329.192V342.826Z" fill="#BCBEC0"/>
<path d="M102.787 343.39C102.787 345.455 101.099 347.145 99.0369 347.145H98.5869C96.5244 347.145 94.8369 345.455 94.8369 343.39V133.437C94.8369 131.371 96.5244 129.681 98.5869 129.681H99.0369C101.099 129.681 102.787 131.371 102.787 133.437V343.39Z" fill="#A7A9AC"/>
<path d="M391.162 341.587C391.162 342.638 390.337 343.465 389.287 343.465H185.175C184.125 343.465 183.3 342.638 183.3 341.587V204.873C183.3 203.821 184.125 202.995 185.175 202.995H389.25C390.3 202.995 391.125 203.821 391.125 204.873V341.587H391.162Z" fill="#6D6E71"/>
<path d="M388.5 338.582C388.5 339.634 387.675 340.46 386.625 340.46H187.763C186.713 340.46 185.888 339.634 185.888 338.582V207.728C185.888 206.676 186.713 205.85 187.763 205.85H386.625C387.675 205.85 388.5 206.676 388.5 207.728V338.582Z" fill="#E1F4FD"/>
<path d="M145.575 189.624C145.575 192.704 143.025 195.258 139.95 195.258H121.237C118.162 195.258 115.612 192.704 115.612 189.624V177.38C115.612 174.3 118.162 171.746 121.237 171.746H139.95C143.025 171.746 145.575 174.3 145.575 177.38V189.624Z" fill="#E6E7E8"/>
<path d="M383.363 248.892C383.363 250.957 381.675 252.648 379.613 252.648H194.25C192.188 252.648 190.5 250.957 190.5 248.892V214.676C190.5 212.61 192.188 210.92 194.25 210.92H379.613C381.675 210.92 383.363 212.61 383.363 214.676V248.892Z" fill="url(#paint33_linear)"/>
<path d="M283.312 328.403C283.312 330.469 281.625 332.159 279.562 332.159H195.187C193.125 332.159 191.438 330.469 191.438 328.403V310.938C191.438 308.873 193.125 307.183 195.187 307.183H279.562C281.625 307.183 283.312 308.873 283.312 310.938V328.403Z" fill="url(#paint34_linear)"/>
<path d="M248.775 214.676C248.775 216.742 247.087 218.432 245.025 218.432H201.675C199.612 218.432 197.925 216.742 197.925 214.676V186.92C197.925 184.854 199.612 183.164 201.675 183.164H245.025C247.087 183.164 248.775 184.854 248.775 186.92V214.676Z" fill="url(#paint35_linear)"/>
<path d="M245.437 212.498C245.437 214.563 243.75 216.253 241.687 216.253H204.862C202.8 216.253 201.112 214.563 201.112 212.498V199.803C201.112 197.737 202.8 196.047 204.862 196.047H241.687C243.75 196.047 245.437 197.737 245.437 199.803V212.498Z" fill="#E6E7E8"/>
<path d="M244.988 191.991C244.988 192.479 244.463 192.855 243.863 192.855H201.825C201.188 192.855 200.7 192.479 200.7 191.991C200.7 191.503 201.188 191.127 201.825 191.127H243.9C244.5 191.127 244.988 191.503 244.988 191.991Z" fill="#D1D3D4"/>
<path d="M245.137 188.084C245.137 188.572 244.612 188.948 244.012 188.948H201.975C201.337 188.948 200.85 188.572 200.85 188.084C200.85 187.596 201.337 187.22 201.975 187.22H244.05C244.65 187.183 245.137 187.596 245.137 188.084Z" fill="#D1D3D4"/>
<path d="M211.613 326.15C211.613 328.215 209.925 329.905 207.863 329.905H197.7C195.638 329.905 193.95 328.215 193.95 326.15V313.079C193.95 311.013 195.638 309.323 197.7 309.323H207.863C209.925 309.323 211.613 311.013 211.613 313.079V326.15Z" fill="white"/>
<path d="M233.738 326.15C233.738 328.215 232.05 329.905 229.988 329.905H219.825C217.763 329.905 216.075 328.215 216.075 326.15V313.079C216.075 311.013 217.763 309.323 219.825 309.323H229.988C232.05 309.323 233.738 311.013 233.738 313.079V326.15Z" fill="white"/>
<path d="M257.475 326.15C257.475 328.215 255.787 329.905 253.725 329.905H243.562C241.5 329.905 239.812 328.215 239.812 326.15V313.079C239.812 311.013 241.5 309.323 243.562 309.323H253.725C255.787 309.323 257.475 311.013 257.475 313.079V326.15Z" fill="white"/>
<path d="M280.725 326.15C280.725 328.215 279.038 329.905 276.975 329.905H266.813C264.75 329.905 263.062 328.215 263.062 326.15V313.079C263.062 311.013 264.75 309.323 266.813 309.323H276.975C279.038 309.323 280.725 311.013 280.725 313.079V326.15Z" fill="white"/>
<path d="M382.875 328.141C382.875 330.206 381.187 331.896 379.125 331.896H294.75C292.687 331.896 291 330.206 291 328.141V310.676C291 308.61 292.687 306.92 294.75 306.92H379.125C381.187 306.92 382.875 308.61 382.875 310.676V328.141Z" fill="url(#paint36_linear)"/>
<path d="M311.175 325.887C311.175 327.953 309.488 329.643 307.425 329.643H297.263C295.2 329.643 293.513 327.953 293.513 325.887V312.816C293.513 310.751 295.2 309.061 297.263 309.061H307.425C309.488 309.061 311.175 310.751 311.175 312.816V325.887Z" fill="white"/>
<path d="M333.3 325.887C333.3 327.953 331.613 329.643 329.55 329.643H319.388C317.325 329.643 315.638 327.953 315.638 325.887V312.816C315.638 310.751 317.325 309.061 319.388 309.061H329.55C331.613 309.061 333.3 310.751 333.3 312.816V325.887Z" fill="white"/>
<path d="M357 325.887C357 327.953 355.312 329.643 353.25 329.643H343.125C341.062 329.643 339.375 327.953 339.375 325.887V312.816C339.375 310.751 341.062 309.061 343.125 309.061H353.25C355.312 309.061 357 310.751 357 312.816V325.887Z" fill="white"/>
<path d="M380.288 325.887C380.288 327.953 378.6 329.643 376.538 329.643H366.375C364.313 329.643 362.625 327.953 362.625 325.887V312.816C362.625 310.751 364.313 309.061 366.375 309.061H376.538C378.6 309.061 380.288 310.751 380.288 312.816V325.887Z" fill="white"/>
<path d="M311.513 246.15C311.513 248.216 309.825 249.906 307.763 249.906H264.375C262.313 249.906 260.625 248.216 260.625 246.15V218.432C260.625 216.366 262.313 214.676 264.375 214.676H307.725C309.788 214.676 311.475 216.366 311.475 218.432V246.15H311.513Z" fill="white"/>
<path d="M378.075 245.737C378.075 247.803 376.387 249.493 374.325 249.493H330.975C328.912 249.493 327.225 247.803 327.225 245.737V217.981C327.225 215.916 328.912 214.226 330.975 214.226H374.325C376.387 214.226 378.075 215.916 378.075 217.981V245.737Z" fill="white"/>
<path d="M233.812 297.981C233.812 300.046 232.125 301.737 230.062 301.737H195.188C193.125 301.737 191.438 300.046 191.438 297.981V261.962C191.438 259.896 193.125 258.206 195.188 258.206H230.062C232.125 258.206 233.812 259.896 233.812 261.962V297.981Z" fill="#A7A9AC"/>
<path d="M212.249 285.061C218.587 285.061 223.724 279.916 223.724 273.568C223.724 267.221 218.587 262.075 212.249 262.075C205.912 262.075 200.774 267.221 200.774 273.568C200.774 279.916 205.912 285.061 212.249 285.061Z" fill="white"/>
<path d="M282.712 297.756C282.712 299.822 281.024 301.512 278.962 301.512H244.087C242.024 301.512 240.337 299.822 240.337 297.756V261.737C240.337 259.672 242.024 257.981 244.087 257.981H278.962C281.024 257.981 282.712 259.672 282.712 261.737V297.756Z" fill="#BCBEC0"/>
<path d="M261.15 284.873C267.487 284.873 272.625 279.727 272.625 273.38C272.625 267.032 267.487 261.887 261.15 261.887C254.812 261.887 249.675 267.032 249.675 273.38C249.675 279.727 254.812 284.873 261.15 284.873Z" fill="white"/>
<path d="M333.3 297.455C333.3 299.521 331.612 301.211 329.55 301.211H294.675C292.612 301.211 290.925 299.521 290.925 297.455V261.437C290.925 259.371 292.612 257.681 294.675 257.681H329.55C331.612 257.681 333.3 259.371 333.3 261.437V297.455Z" fill="#A7A9AC"/>
<path d="M311.738 284.535C318.075 284.535 323.213 279.389 323.213 273.042C323.213 266.694 318.075 261.549 311.738 261.549C305.4 261.549 300.263 266.694 300.263 273.042C300.263 279.389 305.4 284.535 311.738 284.535Z" fill="white"/>
<path d="M382.912 298.094C382.912 300.16 381.225 301.85 379.162 301.85H344.287C342.225 301.85 340.537 300.16 340.537 298.094V262.075C340.537 260.009 342.225 258.319 344.287 258.319H379.162C381.225 258.319 382.912 260.009 382.912 262.075V298.094Z" fill="#BCBEC0"/>
<path d="M361.35 285.173C367.687 285.173 372.825 280.028 372.825 273.68C372.825 267.333 367.687 262.188 361.35 262.188C355.013 262.188 349.875 267.333 349.875 273.68C349.875 280.028 355.013 285.173 361.35 285.173Z" fill="white"/>
<path d="M308.213 238.526C308.213 240.592 306.525 242.282 304.463 242.282H267.638C265.575 242.282 263.888 240.592 263.888 238.526V225.831C263.888 223.765 265.575 222.075 267.638 222.075H304.463C306.525 222.075 308.213 223.765 308.213 225.831V238.526Z" fill="#E6E7E8"/>
<path d="M375.037 232.742C375.037 234.807 373.35 236.498 371.287 236.498H334.5C332.437 236.498 330.75 234.807 330.75 232.742V220.047C330.75 217.981 332.437 216.291 334.5 216.291H371.325C373.387 216.291 375.075 217.981 375.075 220.047V232.742H375.037Z" fill="#E6E7E8"/>
<path d="M308.249 218.281C308.249 218.807 307.762 219.22 307.124 219.22H265.087C264.487 219.22 263.962 218.807 263.962 218.281C263.962 217.755 264.487 217.342 265.087 217.342H307.124C307.762 217.304 308.249 217.755 308.249 218.281Z" fill="#D1D3D4"/>
<path d="M307.913 245.624C307.913 246.15 307.425 246.563 306.788 246.563H264.75C264.15 246.563 263.625 246.15 263.625 245.624C263.625 245.099 264.15 244.686 264.75 244.686H306.825C307.425 244.686 307.913 245.099 307.913 245.624Z" fill="#D1D3D4"/>
<path d="M375.749 244.722C375.749 245.248 375.262 245.661 374.624 245.661H332.587C331.987 245.661 331.462 245.248 331.462 244.722C331.462 244.197 331.987 243.783 332.587 243.783H374.624C375.262 243.746 375.749 244.197 375.749 244.722Z" fill="#D1D3D4"/>
<path d="M375.749 240.479C375.749 241.005 375.262 241.418 374.624 241.418H332.587C331.987 241.418 331.462 241.005 331.462 240.479C331.462 239.953 331.987 239.54 332.587 239.54H374.624C375.262 239.54 375.749 239.991 375.749 240.479Z" fill="#D1D3D4"/>
<path d="M231.375 288.291C231.375 288.704 231.037 289.042 230.625 289.042H194.737C194.325 289.042 193.987 288.704 193.987 288.291C193.987 287.878 194.325 287.54 194.737 287.54H230.625C231.037 287.54 231.375 287.878 231.375 288.291Z" fill="white"/>
<path d="M279.974 288.103C279.974 288.516 279.637 288.854 279.224 288.854H243.337C242.924 288.854 242.587 288.516 242.587 288.103C242.587 287.69 242.924 287.352 243.337 287.352H279.224C279.637 287.352 279.974 287.69 279.974 288.103Z" fill="white"/>
<path d="M331.162 287.99C331.162 288.404 330.824 288.742 330.412 288.742H294.524C294.112 288.742 293.774 288.404 293.774 287.99C293.774 287.577 294.112 287.239 294.524 287.239H330.412C330.824 287.239 331.162 287.577 331.162 287.99Z" fill="white"/>
<path d="M380.625 287.99C380.625 288.404 380.287 288.742 379.875 288.742H343.987C343.575 288.742 343.237 288.404 343.237 287.99C343.237 287.577 343.575 287.239 343.987 287.239H379.875C380.287 287.239 380.625 287.577 380.625 287.99Z" fill="white"/>
<path d="M380.625 292.197C380.625 292.61 380.287 292.948 379.875 292.948H343.987C343.575 292.948 343.237 292.61 343.237 292.197C343.237 291.783 343.575 291.445 343.987 291.445H379.875C380.287 291.445 380.625 291.783 380.625 292.197Z" fill="white"/>
<path d="M380.625 296.591C380.625 297.004 380.287 297.342 379.875 297.342H343.987C343.575 297.342 343.237 297.004 343.237 296.591C343.237 296.178 343.575 295.84 343.987 295.84H379.875C380.287 295.84 380.625 296.178 380.625 296.591Z" fill="white"/>
<path d="M331.237 292.385C331.237 292.798 330.9 293.136 330.487 293.136H294.6C294.187 293.136 293.85 292.798 293.85 292.385C293.85 291.972 294.187 291.634 294.6 291.634H330.487C330.9 291.634 331.237 291.972 331.237 292.385Z" fill="white"/>
<path d="M331.237 296.591C331.237 297.004 330.9 297.342 330.487 297.342H294.6C294.187 297.342 293.85 297.004 293.85 296.591C293.85 296.178 294.187 295.84 294.6 295.84H330.487C330.9 295.84 331.237 296.178 331.237 296.591Z" fill="white"/>
<path d="M280.162 292.235C280.162 292.648 279.824 292.986 279.412 292.986H243.524C243.112 292.986 242.774 292.648 242.774 292.235C242.774 291.821 243.112 291.483 243.524 291.483H279.412C279.824 291.483 280.162 291.821 280.162 292.235Z" fill="white"/>
<path d="M280.162 296.441C280.162 296.854 279.824 297.192 279.412 297.192H243.524C243.112 297.192 242.774 296.854 242.774 296.441C242.774 296.027 243.112 295.689 243.524 295.689H279.412C279.824 295.689 280.162 296.027 280.162 296.441Z" fill="white"/>
<path d="M231.375 292.385C231.375 292.798 231.037 293.136 230.625 293.136H194.737C194.325 293.136 193.987 292.798 193.987 292.385C193.987 291.972 194.325 291.634 194.737 291.634H230.625C231.037 291.634 231.375 291.972 231.375 292.385Z" fill="white"/>
<path d="M231.375 296.516C231.375 296.929 231.037 297.267 230.625 297.267H194.737C194.325 297.267 193.987 296.929 193.987 296.516C193.987 296.103 194.325 295.765 194.737 295.765H230.625C231.037 295.765 231.375 296.103 231.375 296.516Z" fill="white"/>
<path d="M150.938 347.897H59.0625C59.0625 347.897 68.8125 344.554 64.725 340.272C64.725 340.272 80.1375 342.563 79.6125 345.268C79.6125 345.268 69.8625 339.108 80.1375 335.427C80.1375 335.427 94.5 340.535 89.8875 344.291C89.8875 344.291 107.85 338.92 100.65 334.901C100.65 334.901 121.163 338.77 118.613 343.765C118.613 343.765 135.563 343.69 135.563 341.061C135.525 341.023 136.538 348.16 150.938 347.897Z" fill="#ABE1FA"/>
<path d="M175.237 347.221H120.412C120.412 347.221 126.225 343.878 123.787 339.596C123.787 339.596 132.975 341.888 132.675 344.592C132.675 344.592 126.862 338.432 132.975 334.751C132.975 334.751 141.562 339.859 138.787 343.615C138.787 343.615 149.512 338.244 145.237 334.226C145.237 334.226 157.5 338.094 155.962 343.089C155.962 343.089 166.087 343.014 166.087 340.385C166.05 340.385 166.65 347.484 175.237 347.221Z" fill="#87D6F8"/>
<path d="M266.587 347.221H169.8C169.8 347.221 180.075 344.742 175.762 341.512C175.762 341.512 192 343.202 191.437 345.23C191.437 345.23 181.162 340.648 191.962 337.906C191.962 337.906 207.112 341.7 202.237 344.517C202.237 344.517 221.175 340.535 213.6 337.493C213.6 337.493 235.237 340.385 232.537 344.103C232.537 344.103 250.387 344.028 250.387 342.075C250.387 342.113 251.437 347.409 266.587 347.221Z" fill="url(#paint37_linear)"/>
<path d="M406.387 346.206H351.938C351.938 346.206 357.713 343.727 355.275 340.497C355.275 340.497 364.388 342.187 364.088 344.216C364.088 344.216 358.313 339.633 364.387 336.892C364.387 336.892 372.9 340.685 370.162 343.502C370.162 343.502 380.812 339.521 376.537 336.479C376.537 336.479 388.687 339.371 387.187 343.089C387.187 343.089 397.237 343.014 397.237 341.061C397.237 341.098 397.875 346.394 406.387 346.206Z" fill="#87D6F8"/>
<path d="M136.8 350.037H102.675C102.675 350.037 106.312 348.648 104.775 346.807C104.775 346.807 110.475 347.784 110.287 348.911C110.287 348.911 106.65 346.319 110.475 344.779C110.475 344.779 115.8 346.92 114.112 348.535C114.112 348.535 120.787 346.281 118.125 344.554C118.125 344.554 125.737 346.169 124.8 348.31C124.8 348.31 131.1 348.272 131.1 347.145C131.1 347.145 131.475 350.15 136.8 350.037Z" fill="url(#paint38_linear)"/>
<path d="M102 358.15H67.875C67.875 358.15 71.5125 356.76 69.975 354.92C69.975 354.92 75.675 355.896 75.4875 357.023C75.4875 357.023 71.85 354.431 75.675 352.891C75.675 352.891 81 355.032 79.3125 356.647C79.3125 356.647 85.9875 354.394 83.325 352.666C83.325 352.666 90.9375 354.281 90 356.422C90 356.422 96.3 356.384 96.3 355.258C96.2625 355.258 96.675 358.262 102 358.15Z" fill="url(#paint39_linear)"/>
<path d="M177.787 356.009H143.662C143.662 356.009 147.3 354.619 145.762 352.779C145.762 352.779 151.462 353.755 151.275 354.882C151.275 354.882 147.637 352.291 151.462 350.751C151.462 350.751 156.787 352.892 155.1 354.507C155.1 354.507 161.775 352.253 159.112 350.525C159.112 350.525 166.725 352.14 165.787 354.281C165.787 354.281 172.087 354.244 172.087 353.117C172.05 353.117 172.425 356.122 177.787 356.009Z" fill="url(#paint40_linear)"/>
<path d="M258.824 160.517L250.649 154.282L249.712 150.639C249.712 150.639 250.387 150.376 251.549 153.118C251.549 153.118 261.599 158.15 260.774 160.066C259.949 161.906 258.824 160.517 258.824 160.517Z" fill="#E6E7E8"/>
<path d="M274.5 160.554C274.5 160.554 275.7 163.784 276.412 164.46C276.712 164.723 277.012 164.948 277.35 165.098C277.537 165.211 277.762 165.211 277.95 165.136C278.137 165.061 278.325 164.911 278.437 164.723C278.512 164.61 278.512 164.498 278.55 164.385C278.662 163.596 278.7 162.544 278.325 161.793C278.287 161.718 278.287 161.681 278.25 161.606C278.062 161.155 277.875 160.779 277.762 160.441C277.5 159.728 277.35 159.277 277.35 159.277L275.475 158.826L275.362 159.014L274.5 160.554Z" fill="#E6E7E8"/>
<path d="M272.85 155.333C273.787 155.408 274.575 155.709 275.175 156.159C276.262 157.023 278.175 159.089 278.175 159.089C278.175 159.089 276.675 159.727 275.512 159.652L274.35 159.577L272.85 155.333Z" fill="url(#paint41_linear)"/>
<path d="M268.649 202.432L268.987 204.498L262.087 202.695C262.087 202.695 265.612 201.981 266.024 201.718C266.437 201.456 267.824 201.493 267.824 201.493L268.649 202.432Z" fill="#E6E7E8"/>
<path d="M275.475 201.492L275.813 203.821L268.388 201.98C268.388 201.98 271.763 201.455 272.325 201.042C272.925 200.628 275.1 200.779 275.1 200.779L275.475 201.492Z" fill="#E6E7E8"/>
<path d="M269.475 185.38L268.987 195.896L268.65 202.845H266.812L265.725 185.68L266.887 185.568L269.475 185.38Z" fill="#E6E7E8"/>
<path d="M271.8 185.23L273.3 201.38H275.325L275.662 184.366L271.8 185.23Z" fill="#E6E7E8"/>
<path d="M275.625 184.403H275.55L272.513 185.079C272.963 185.755 274.238 187.821 274.313 190.262C274.425 193.155 275.138 197.436 275.138 197.586L275.513 189.812L275.625 184.403Z" fill="#C2C1C1"/>
<path d="M276.599 173.774C276.599 173.774 277.087 176.291 276.637 182.976C276.262 188.122 277.574 200.178 277.574 200.178L271.237 199.765L267.149 196.159L267.487 183.69L271.349 171.483L276.599 173.774Z" fill="url(#paint42_linear)"/>
<path d="M269.474 185.38L268.987 195.896C268.949 195.784 268.387 192.366 268.312 190.075C268.237 187.709 266.774 185.755 266.774 185.755L266.887 185.605L269.474 185.38Z" fill="#C2C1C1"/>
<path d="M264.412 172.723L263.812 198.789L270.487 200.216C270.487 200.216 270.225 193.23 270.45 189.286C271.088 178.695 270.263 175.652 270.263 175.652L269.325 171.07L264.412 172.723Z" fill="url(#paint43_linear)"/>
<path d="M268.388 156.122C268.388 156.122 268.575 156.535 268.763 157.024C269.138 157.85 269.588 158.977 269.625 159.052C269.663 159.202 270.975 159.653 270.975 159.653C270.975 159.653 271.725 158.789 271.8 158.714C271.875 158.639 272.475 156.16 272.475 156.16C272.475 155.859 272.475 155.521 272.4 155.221C272.288 154.432 272.213 152.517 272.213 152.517L272.475 152.103L271.613 150.15C271.613 150.15 270.675 150.376 269.85 150.751C269.213 151.052 268.613 151.427 268.65 151.841C268.8 152.817 268.388 156.122 268.388 156.122Z" fill="#E6E7E8"/>
<path d="M272.062 146.168C271.987 147.295 271.724 148.422 271.349 149.511C271.087 148.76 270.787 147.896 270.787 147.896L268.499 146.018C268.499 146.018 267.187 145.643 266.699 145.718C266.549 145.755 266.399 145.793 266.212 145.793L269.999 144.666L272.062 146.168Z" fill="#F5D9DE"/>
<path d="M271.35 149.512C271.125 150.188 270.825 150.864 270.45 151.502C270.187 151.991 269.887 152.479 269.587 152.93C268.687 154.169 268.275 154.019 267.975 153.981C267.412 153.868 266.775 152.516 266.212 150.037C266.062 149.399 265.987 148.76 265.95 148.122C265.912 147.333 265.987 146.582 266.175 145.831C266.362 145.793 266.512 145.756 266.662 145.756C267.187 145.643 268.462 146.056 268.462 146.056L270.75 147.934C270.787 147.897 271.087 148.723 271.35 149.512Z" fill="#E6E7E8"/>
<path d="M271.35 149.512C271.125 150.188 270.825 150.864 270.45 151.502C270.188 151.99 269.888 152.479 269.588 152.929C269.55 152.892 268.65 151.652 268.575 150.976C268.538 150.3 268.125 150.901 267.675 151.314C267.263 151.69 267.263 149.249 266.963 149.361C266.663 149.474 266.25 148.723 266.213 148.46C266.213 148.385 266.175 148.31 266.1 148.272C266.063 148.197 265.988 148.16 265.913 148.122C265.875 147.333 265.95 146.582 266.138 145.831C266.325 145.793 266.475 145.756 266.625 145.756C267.15 145.643 268.425 146.056 268.425 146.056L270.713 147.934C270.788 147.897 271.088 148.723 271.35 149.512Z" fill="#D1D3D4"/>
<path d="M268.35 155.333C268.35 155.333 268.5 155.558 268.725 155.821L269.212 155.596C269.287 155.107 269.4 154.619 269.55 154.131C269.7 153.718 270.6 153.68 270.6 153.68L270.9 152.704L270.075 152.328C269.4 152.516 268.837 152.741 268.875 152.967C268.837 153.492 268.35 155.333 268.35 155.333Z" fill="#D1D3D4"/>
<path d="M263.475 174.451C263.475 174.451 265.987 176.066 270.225 175.765C273.862 175.502 278.137 173.512 278.137 173.512C278.137 173.512 278.137 173.061 277.275 168.366C277.2 167.915 277.125 167.465 277.012 167.052C276.6 164.986 276.187 163.296 275.812 161.868C273.825 154.77 271.987 154.92 271.987 154.92L271.612 154.883C270.187 154.695 268.725 155.033 267.525 155.859C267.262 156.047 267.037 156.272 266.85 156.535C265.837 158.188 263.475 174.451 263.475 174.451Z" fill="#F2F2F2"/>
<path d="M264.638 143.727C264.6 143.69 264.563 143.69 264.525 143.69C264.488 143.69 264.45 143.69 264.413 143.727C264.375 143.727 264.338 143.765 264.338 143.803C264.3 143.84 264.3 143.878 264.3 143.915C264.263 144.516 264.338 145.605 264.863 146.394C265.538 147.446 266.025 147.296 266.288 147.896C266.55 148.497 266.663 148.76 267.113 148.61C267.563 148.497 267.6 148.159 267.675 148.685C267.75 149.136 267.788 149.549 267.788 150C267.788 150.375 267.45 150.976 267.788 150.601C268.125 150.225 268.238 148.835 268.688 148.911C269.138 148.986 269.925 149.737 269.438 150.112C268.988 150.488 268.838 151.089 269.063 151.427C269.288 151.765 269.663 152.591 270.15 152.779C270.6 152.967 272.138 152.704 272.7 152.291C273.45 151.765 274.05 150.601 274.125 149.774C274.2 149.061 273.825 146.131 272.775 144.704C271.725 143.277 269.925 142.375 268.838 142.638C268.05 142.826 266.438 144.629 265.65 144.328C265.35 144.141 264.975 143.953 264.638 143.727Z" fill="#010101"/>
<path d="M264.674 156.385C264.674 156.385 261.224 157.474 260.249 158.263C259.687 158.789 259.274 159.352 259.162 159.878C259.012 160.404 259.162 160.892 259.537 161.193L260.399 161.906L266.4 158.601L267.037 156.348L264.674 156.385Z" fill="#E6E7E8"/>
<path d="M268.35 155.333L262.912 156.31C262.912 156.31 263.737 159.427 265.875 160.479C265.875 160.479 266.137 158.15 268.35 155.333Z" fill="url(#paint44_linear)"/>
</g>
<defs>
<filter id="filter0_d" x="-12" y="14" width="624" height="429.634" filterUnits="userSpaceOnUse" color-interpolation-filters="sRGB">
<feFlood flood-opacity="0" result="BackgroundImageFix"/>
<feColorMatrix in="SourceAlpha" type="matrix" values="0 0 0 0 0 0 0 0 0 0 0 0 0 0 0 0 0 0 127 0" result="hardAlpha"/>
<feOffset dy="4"/>
<feGaussianBlur stdDeviation="6"/>
<feColorMatrix type="matrix" values="0 0 0 0 0 0 0 0 0 0 0 0 0 0 0 0 0 0 0.4 0"/>
<feBlend mode="normal" in2="BackgroundImageFix" result="effect1_dropShadow"/>
<feBlend mode="normal" in="SourceGraphic" in2="effect1_dropShadow" result="shape"/>
</filter>
<linearGradient id="paint0_linear" x1="345.608" y1="127.008" x2="387.872" y2="127.008" gradientUnits="userSpaceOnUse">
<stop stop-color="#71459B"/>
<stop offset="0.8668" stop-color="#A76DAE"/>
</linearGradient>
<linearGradient id="paint1_linear" x1="428.522" y1="151.528" x2="461.997" y2="151.528" gradientUnits="userSpaceOnUse">
<stop stop-color="#71459B"/>
<stop offset="0.8668" stop-color="#A76DAE"/>
</linearGradient>
<linearGradient id="paint2_linear" x1="20.7896" y1="167.665" x2="90.9615" y2="167.665" gradientUnits="userSpaceOnUse">
<stop stop-color="#71459B"/>
<stop offset="0.8668" stop-color="#A76DAE"/>
</linearGradient>
<linearGradient id="paint3_linear" x1="191.261" y1="102.929" x2="261.433" y2="102.929" gradientUnits="userSpaceOnUse">
<stop stop-color="#71459B"/>
<stop offset="0.8668" stop-color="#A76DAE"/>
</linearGradient>
<linearGradient id="paint4_linear" x1="455.625" y1="240.826" x2="488.292" y2="240.79" gradientUnits="userSpaceOnUse">
<stop stop-color="#7DD3F7"/>
<stop offset="1" stop-color="#43B5E8"/>
</linearGradient>
<linearGradient id="paint5_linear" x1="487.696" y1="240.741" x2="488.463" y2="240.74" gradientUnits="userSpaceOnUse">
<stop stop-color="#71459B"/>
<stop offset="0.8668" stop-color="#A76DAE"/>
</linearGradient>
<linearGradient id="paint6_linear" x1="493.167" y1="245.942" x2="493.203" y2="278.66" gradientUnits="userSpaceOnUse">
<stop stop-color="#7DD3F7"/>
<stop offset="1" stop-color="#43B5E8"/>
</linearGradient>
<linearGradient id="paint7_linear" x1="493.253" y1="278.064" x2="493.254" y2="278.832" gradientUnits="userSpaceOnUse">
<stop stop-color="#71459B"/>
<stop offset="0.8668" stop-color="#A76DAE"/>
</linearGradient>
<linearGradient id="paint8_linear" x1="406.644" y1="239.592" x2="409.742" y2="239.592" gradientUnits="userSpaceOnUse">
<stop stop-color="#7DD3F7"/>
<stop offset="1" stop-color="#43B5E8"/>
</linearGradient>
<linearGradient id="paint9_linear" x1="407.829" y1="239.573" x2="411.391" y2="239.573" gradientUnits="userSpaceOnUse">
<stop stop-color="#7DD3F7"/>
<stop offset="1" stop-color="#43B5E8"/>
</linearGradient>
<linearGradient id="paint10_linear" x1="409.998" y1="239.563" x2="413.001" y2="239.563" gradientUnits="userSpaceOnUse">
<stop stop-color="#7DD3F7"/>
<stop offset="1" stop-color="#43B5E8"/>
</linearGradient>
<linearGradient id="paint11_linear" x1="406.718" y1="262.576" x2="409.928" y2="262.576" gradientUnits="userSpaceOnUse">
<stop stop-color="#7DD3F7"/>
<stop offset="1" stop-color="#43B5E8"/>
</linearGradient>
<linearGradient id="paint12_linear" x1="406.712" y1="285.766" x2="409.912" y2="285.766" gradientUnits="userSpaceOnUse">
<stop stop-color="#71459B"/>
<stop offset="0.8668" stop-color="#A76DAE"/>
</linearGradient>
<linearGradient id="paint13_linear" x1="557.933" y1="337.714" x2="529.283" y2="337.714" gradientUnits="userSpaceOnUse">
<stop stop-color="#7DD3F7"/>
<stop offset="1" stop-color="#43B5E8"/>
</linearGradient>
<linearGradient id="paint14_linear" x1="490.314" y1="341.141" x2="461.665" y2="341.141" gradientUnits="userSpaceOnUse">
<stop stop-color="#7DD3F7"/>
<stop offset="1" stop-color="#43B5E8"/>
</linearGradient>
<linearGradient id="paint15_linear" x1="550.084" y1="351.621" x2="521.435" y2="351.621" gradientUnits="userSpaceOnUse">
<stop stop-color="#7DD3F7"/>
<stop offset="1" stop-color="#43B5E8"/>
</linearGradient>
<linearGradient id="paint16_linear" x1="417.091" y1="253.878" x2="459.491" y2="253.878" gradientUnits="userSpaceOnUse">
<stop stop-color="#7DD3F7"/>
<stop offset="1" stop-color="#43B5E8"/>
</linearGradient>
<linearGradient id="paint17_linear" x1="417.301" y1="275.312" x2="437.499" y2="275.312" gradientUnits="userSpaceOnUse">
<stop stop-color="#7DD3F7"/>
<stop offset="1" stop-color="#43B5E8"/>
</linearGradient>
<linearGradient id="paint18_linear" x1="439.184" y1="275.25" x2="459.382" y2="275.25" gradientUnits="userSpaceOnUse">
<stop stop-color="#7DD3F7"/>
<stop offset="1" stop-color="#43B5E8"/>
</linearGradient>
<linearGradient id="paint19_linear" x1="463.685" y1="254.322" x2="483.882" y2="254.322" gradientUnits="userSpaceOnUse">
<stop stop-color="#7DD3F7"/>
<stop offset="1" stop-color="#43B5E8"/>
</linearGradient>
<linearGradient id="paint20_linear" x1="463.878" y1="271.546" x2="484.076" y2="271.546" gradientUnits="userSpaceOnUse">
<stop stop-color="#7DD3F7"/>
<stop offset="1" stop-color="#43B5E8"/>
</linearGradient>
<linearGradient id="paint21_linear" x1="417.301" y1="265.624" x2="426.617" y2="265.624" gradientUnits="userSpaceOnUse">
<stop stop-color="#7DD3F7"/>
<stop offset="1" stop-color="#43B5E8"/>
</linearGradient>
<linearGradient id="paint22_linear" x1="428.05" y1="265.576" x2="437.366" y2="265.576" gradientUnits="userSpaceOnUse">
<stop stop-color="#7DD3F7"/>
<stop offset="1" stop-color="#43B5E8"/>
</linearGradient>
<linearGradient id="paint23_linear" x1="439.169" y1="265.497" x2="448.484" y2="265.497" gradientUnits="userSpaceOnUse">
<stop stop-color="#7DD3F7"/>
<stop offset="1" stop-color="#43B5E8"/>
</linearGradient>
<linearGradient id="paint24_linear" x1="450.075" y1="265.653" x2="459.39" y2="265.653" gradientUnits="userSpaceOnUse">
<stop stop-color="#7DD3F7"/>
<stop offset="1" stop-color="#43B5E8"/>
</linearGradient>
<linearGradient id="paint25_linear" x1="519.498" y1="283.991" x2="527.411" y2="284.498" gradientUnits="userSpaceOnUse">
<stop stop-color="#71459B"/>
<stop offset="0.8668" stop-color="#A76DAE"/>
</linearGradient>
<linearGradient id="paint26_linear" x1="525.661" y1="311.541" x2="508.238" y2="312.537" gradientUnits="userSpaceOnUse">
<stop stop-color="#71459B"/>
<stop offset="0.8668" stop-color="#A76DAE"/>
</linearGradient>
<linearGradient id="paint27_linear" x1="505.665" y1="285.211" x2="513.512" y2="284.485" gradientUnits="userSpaceOnUse">
<stop stop-color="#71459B"/>
<stop offset="0.8668" stop-color="#A76DAE"/>
</linearGradient>
<linearGradient id="paint28_linear" x1="114.981" y1="335.993" x2="136.737" y2="335.993" gradientUnits="userSpaceOnUse">
<stop stop-color="#71459B"/>
<stop offset="0.8668" stop-color="#A76DAE"/>
</linearGradient>
<linearGradient id="paint29_linear" x1="63.2541" y1="340.455" x2="76.2052" y2="340.455" gradientUnits="userSpaceOnUse">
<stop stop-color="#71459B"/>
<stop offset="0.8668" stop-color="#A76DAE"/>
</linearGradient>
<linearGradient id="paint30_linear" x1="61.6136" y1="309.205" x2="74.5646" y2="309.205" gradientUnits="userSpaceOnUse">
<stop stop-color="#71459B"/>
<stop offset="0.8668" stop-color="#A76DAE"/>
</linearGradient>
<linearGradient id="paint31_linear" x1="152.186" y1="321.434" x2="165.138" y2="321.434" gradientUnits="userSpaceOnUse">
<stop stop-color="#71459B"/>
<stop offset="0.8668" stop-color="#A76DAE"/>
</linearGradient>
<linearGradient id="paint32_linear" x1="123.211" y1="304.809" x2="136.162" y2="304.809" gradientUnits="userSpaceOnUse">
<stop stop-color="#71459B"/>
<stop offset="0.8668" stop-color="#A76DAE"/>
</linearGradient>
<linearGradient id="paint33_linear" x1="190.488" y1="231.799" x2="383.362" y2="231.799" gradientUnits="userSpaceOnUse">
<stop stop-color="#7DD3F7"/>
<stop offset="1" stop-color="#43B5E8"/>
</linearGradient>
<linearGradient id="paint34_linear" x1="191.444" y1="319.665" x2="283.322" y2="319.665" gradientUnits="userSpaceOnUse">
<stop stop-color="#7DD3F7"/>
<stop offset="1" stop-color="#43B5E8"/>
</linearGradient>
<linearGradient id="paint35_linear" x1="197.914" y1="200.819" x2="248.782" y2="200.819" gradientUnits="userSpaceOnUse">
<stop stop-color="#71459B"/>
<stop offset="0.8668" stop-color="#A76DAE"/>
</linearGradient>
<linearGradient id="paint36_linear" x1="290.986" y1="319.413" x2="382.864" y2="319.413" gradientUnits="userSpaceOnUse">
<stop stop-color="#7DD3F7"/>
<stop offset="1" stop-color="#43B5E8"/>
</linearGradient>
<linearGradient id="paint37_linear" x1="266.595" y1="342.376" x2="169.785" y2="342.376" gradientUnits="userSpaceOnUse">
<stop stop-color="#7DD3F7"/>
<stop offset="1" stop-color="#43B5E8"/>
</linearGradient>
<linearGradient id="paint38_linear" x1="136.814" y1="347.286" x2="102.706" y2="347.286" gradientUnits="userSpaceOnUse">
<stop stop-color="#7DD3F7"/>
<stop offset="1" stop-color="#43B5E8"/>
</linearGradient>
<linearGradient id="paint39_linear" x1="101.996" y1="355.401" x2="67.8879" y2="355.401" gradientUnits="userSpaceOnUse">
<stop stop-color="#7DD3F7"/>
<stop offset="1" stop-color="#43B5E8"/>
</linearGradient>
<linearGradient id="paint40_linear" x1="177.777" y1="353.284" x2="143.669" y2="353.284" gradientUnits="userSpaceOnUse">
<stop stop-color="#7DD3F7"/>
<stop offset="1" stop-color="#43B5E8"/>
</linearGradient>
<linearGradient id="paint41_linear" x1="272.742" y1="157.406" x2="278.264" y2="157.759" gradientUnits="userSpaceOnUse">
<stop stop-color="#71459B"/>
<stop offset="0.8668" stop-color="#A76DAE"/>
</linearGradient>
<linearGradient id="paint42_linear" x1="277.556" y1="185.827" x2="267.161" y2="185.827" gradientUnits="userSpaceOnUse">
<stop stop-color="#71459B"/>
<stop offset="0.8668" stop-color="#A76DAE"/>
</linearGradient>
<linearGradient id="paint43_linear" x1="270.687" y1="185.659" x2="263.799" y2="185.659" gradientUnits="userSpaceOnUse">
<stop stop-color="#71459B"/>
<stop offset="0.8668" stop-color="#A76DAE"/>
</linearGradient>
<linearGradient id="paint44_linear" x1="263.082" y1="158.261" x2="268.558" y2="157.755" gradientUnits="userSpaceOnUse">
<stop stop-color="#71459B"/>
<stop offset="0.8668" stop-color="#A76DAE"/>
</linearGradient>
</defs>
</svg>
