<svg width="30" height="30" viewBox="0 0 30 30" fill="none" xmlns="http://www.w3.org/2000/svg">
<g clip-path="url(#clip0)">
<path d="M29.2197 0.765838C28.1993 -0.255182 26.5425 -0.255182 25.5221 0.766999L14.9928 11.3015L4.4642 0.766999C3.44202 -0.255764 1.78642 -0.255182 0.766564 0.765838C-0.255037 1.78744 -0.255618 3.44245 0.765401 4.46347L11.2964 15.0003L0.765401 25.5365C-0.255618 26.5575 -0.255037 28.2131 0.766564 29.2341C1.27678 29.7449 1.94565 29.9994 2.61509 29.9994C3.28454 29.9994 3.95456 29.7443 4.46478 29.2329L14.9934 18.6985L25.5221 29.2335C26.0329 29.7449 26.7017 30 27.3718 30C28.0406 30 28.7101 29.7449 29.2203 29.2347C30.2419 28.2137 30.2425 26.5581 29.2215 25.537L18.6893 15.0003L29.2209 4.46347C30.2419 3.44303 30.2413 1.78744 29.2197 0.765838Z" fill="black"/>
</g>
<defs>
<clipPath id="clip0">
<rect width="30" height="30" fill="white"/>
</clipPath>
</defs>
</svg>
