<svg width="150" height="70" viewBox="0 0 150 70" fill="none" xmlns="http://www.w3.org/2000/svg">
<path d="M37.0405 52.8384V57.99H35.5078V43.9829H40.4039C43.5544 43.9829 45.5129 45.7285 45.5129 48.4107C45.5129 51.0929 43.5544 52.8384 40.4039 52.8384H37.0405V52.8384ZM37.0405 45.3879V51.3909H40.6168C42.6178 51.3909 43.9802 50.4117 43.9802 48.4107C43.9802 46.4522 42.6604 45.4304 40.6168 45.4304H37.0405V45.3879Z" fill="#918F8F"/>
<path d="M46.7461 55.2222C46.7461 53.2637 48.2788 52.1568 50.3649 52.1568C51.3442 52.1568 52.2382 52.4122 53.0471 52.6251V51.6459C53.0471 50.1132 52.0254 49.3469 50.6204 49.3469C49.3432 49.3469 48.4065 50.1132 48.0659 50.9647L47.0441 49.9855C47.8105 48.6231 49.1303 47.9419 50.663 47.9419C52.962 47.9419 54.5373 49.2617 54.5373 51.7736V57.9895H53.0897V56.9677C52.4511 57.6489 51.4293 58.2024 50.0669 58.2024C48.2362 58.2024 46.7461 57.1806 46.7461 55.2222ZM50.1095 56.8826C51.3867 56.8826 52.4511 56.1588 53.0471 55.3073V53.9875C52.2808 53.732 51.3867 53.5192 50.4501 53.5192C48.8748 53.5192 48.2362 54.2855 48.2362 55.2647C48.1936 56.2865 49.0451 56.8826 50.1095 56.8826Z" fill="#918F8F"/>
<path d="M62.3707 49.4748C62.3707 49.4748 62.2004 49.4748 62.0301 49.4748C59.731 49.4748 58.7518 50.6243 58.7518 53.8174V57.9897H57.2617V48.1975H58.7093V49.5174C59.6033 48.4104 60.4974 48.0698 61.9024 48.0698C61.9875 48.0698 62.1152 48.0698 62.3281 48.0698V49.4748H62.3707Z" fill="#918F8F"/>
<path d="M65.1803 55.0945V49.5598H63.5625V48.1974H65.1803V45.4727H66.6705V48.1974H68.9695V49.5598H66.6705V54.8817C66.6705 56.0737 66.9259 56.6698 68.1606 56.6698C68.3734 56.6698 68.9269 56.6698 68.9269 56.6698V57.9896C68.9269 57.9896 68.5437 58.0322 67.9903 58.0322C66.1596 58.0322 65.1803 57.2658 65.1803 55.0945Z" fill="#918F8F"/>
<path d="M72.4636 49.3894C73.1022 48.5379 74.2943 47.9419 75.5715 47.9419C78.0834 47.9419 79.4884 49.5172 79.4884 52.2845V57.9895H77.9983V52.1568C77.9983 50.3261 77.0616 49.3043 75.4864 49.3043C73.5279 49.3043 72.5487 50.7944 72.5487 53.0934V57.9469H71.0586V48.1548H72.5061V49.3894H72.4636Z" fill="#918F8F"/>
<path d="M83.2319 53.5617C83.3596 55.6053 84.5943 56.84 86.5102 56.84C87.6597 56.84 88.5537 56.3291 89.3201 55.3925L90.3419 56.3291C89.4478 57.3935 88.2983 58.2024 86.5102 58.2024C83.5725 58.2024 81.6992 56.1162 81.6992 53.136C81.6992 50.2835 83.3596 47.9419 86.1696 47.9419C89.3627 47.9419 90.5548 50.5815 90.5548 52.838C90.5548 53.1786 90.5548 53.5192 90.5548 53.5192H83.2319V53.5617ZM83.2745 52.2419H89.0221C88.8943 50.5389 87.83 49.3469 86.1696 49.3469C84.5091 49.3469 83.5299 50.6241 83.2745 52.2419Z" fill="#918F8F"/>
<path d="M98.0074 49.4748C98.0074 49.4748 97.8371 49.4748 97.6668 49.4748C95.3678 49.4748 94.3886 50.6243 94.3886 53.8174V57.9897H92.8984V48.1975H94.346V49.5174C95.2401 48.4104 96.1341 48.0698 97.5391 48.0698C97.6242 48.0698 97.752 48.0698 97.9648 48.0698V49.4748H98.0074Z" fill="#918F8F"/>
<path d="M12.8289 36.6612V31.6722C18.0771 31.6722 22.159 26.424 20.1505 20.9166C19.373 18.8433 17.7531 17.2234 15.7446 16.5107C10.1724 14.5022 4.98902 18.5841 4.98902 23.8323H0C0 15.4093 8.09906 8.86521 16.9108 11.6513C20.7336 12.8823 23.8436 15.9276 25.0099 19.7504C27.7312 28.5621 21.1871 36.6612 12.8289 36.6612Z" fill="#918F8F"/>
<path fill-rule="evenodd" clip-rule="evenodd" d="M12.8266 31.7371H7.90234V26.748H12.8266V31.7371Z" fill="#918F8F"/>
<path fill-rule="evenodd" clip-rule="evenodd" d="M7.90479 35.4953H4.08203V31.7373H7.90479V35.4953Z" fill="#918F8F"/>
<path fill-rule="evenodd" clip-rule="evenodd" d="M4.08108 31.7368H0.90625V28.562H4.08108V31.7368Z" fill="#918F8F"/>
<path d="M45.6779 18.4544C44.1877 17.4178 42.3735 16.8994 40.2354 16.8994H35.5703V31.6721H40.2354C42.3735 31.6721 44.1877 31.1538 45.6779 30.0523C46.4554 29.4692 47.1034 28.6916 47.5569 27.655C48.0105 26.6831 48.2049 25.5168 48.2049 24.1562C48.2049 22.8603 48.0105 21.6941 47.5569 20.7222C47.1034 19.7503 46.4554 18.9728 45.6779 18.4544ZM38.2916 19.4263H39.7818C41.4016 19.4263 42.7623 19.7503 43.7342 20.3982C44.8356 21.0461 45.4188 22.342 45.4188 24.221C45.4188 26.1647 44.8356 27.4606 43.7342 28.2381C42.7623 28.886 41.4664 29.21 39.7818 29.21H38.2916V19.4263Z" fill="#918F8F"/>
<path d="M51.2487 16.7051C50.7952 16.7051 50.4064 16.8347 50.0825 17.1586C49.7585 17.4826 49.6289 17.8065 49.6289 18.2601C49.6289 18.7136 49.7585 19.1024 50.0825 19.4264C50.4064 19.7503 50.7952 19.8799 51.2487 19.8799C51.7023 19.8799 52.091 19.7503 52.415 19.4264C52.7389 19.1024 52.8685 18.7136 52.8685 18.2601C52.8685 17.8065 52.7389 17.4178 52.415 17.1586C52.0262 16.8995 51.6375 16.7051 51.2487 16.7051Z" fill="#918F8F"/>
<path d="M52.4823 21.2407H49.8906V31.6075H52.4823V21.2407Z" fill="#918F8F"/>
<path d="M61.5495 22.1479C60.772 21.4351 59.8649 21.0464 58.9578 21.0464C57.5323 21.0464 56.3013 21.5647 55.3942 22.5366C54.4871 23.5085 53.9688 24.7396 53.9688 26.2946C53.9688 27.7848 54.4223 29.0159 55.3294 29.9878C56.2365 30.9596 57.4675 31.478 58.893 31.478C59.9297 31.478 60.772 31.2188 61.4847 30.6357V30.8948C61.4847 31.7371 61.2255 32.4499 60.772 32.9034C60.3184 33.357 59.6705 33.6161 58.893 33.6161C57.6619 33.6161 56.9492 33.1626 55.9773 31.8667L54.2279 33.5513L54.2927 33.6161C54.6815 34.1345 55.2646 34.6528 56.0421 35.1711C56.8196 35.6895 57.7915 35.9487 58.9578 35.9487C60.5128 35.9487 61.7438 35.4951 62.7157 34.5232C63.6228 33.5513 64.1412 32.3203 64.1412 30.7653V21.2408H61.5495V22.1479ZM60.9015 28.2384C60.448 28.7567 59.8649 29.0159 59.0874 29.0159C58.3098 29.0159 57.7267 28.7567 57.2732 28.2384C56.8196 27.72 56.6252 27.0073 56.6252 26.2298C56.6252 25.3875 56.8844 24.6748 57.2732 24.1564C57.7267 23.6381 58.3098 23.3789 59.0874 23.3789C59.8649 23.3789 60.448 23.6381 60.9015 24.1564C61.3551 24.6748 61.6143 25.3875 61.6143 26.2298C61.5495 27.0721 61.3551 27.7848 60.9015 28.2384Z" fill="#918F8F"/>
<path d="M68.744 21.2407H66.1523V31.6075H68.744V21.2407Z" fill="#918F8F"/>
<path d="M67.5143 16.7051C67.0608 16.7051 66.672 16.8347 66.3481 17.1586C66.0241 17.4826 65.8945 17.8065 65.8945 18.2601C65.8945 18.7136 66.0241 19.1024 66.3481 19.4264C66.672 19.7503 67.0608 19.8799 67.5143 19.8799C67.9679 19.8799 68.3566 19.7503 68.6806 19.4264C69.0046 19.1024 69.1342 18.7136 69.1342 18.2601C69.1342 17.8065 69.0046 17.4178 68.6806 17.1586C68.3566 16.8995 67.9679 16.7051 67.5143 16.7051Z" fill="#918F8F"/>
<path d="M74.3163 18.4546H71.7246V21.2407H70.2344V23.638H71.7246V27.9791C71.7246 29.3397 71.9838 30.3116 72.5021 30.83C73.0205 31.4131 73.9923 31.6723 75.2882 31.6723C75.7417 31.6723 76.1305 31.6723 76.584 31.6075H76.7136V29.2101L75.8065 29.2749C75.1586 29.2749 74.7698 29.1454 74.5755 28.951C74.3811 28.7566 74.2515 28.2383 74.2515 27.5903V23.638H76.7136V21.2407H74.2515V18.4546H74.3163Z" fill="#918F8F"/>
<path d="M91.162 16.8994H88.5703V31.6721H91.162V16.8994Z" fill="#918F8F"/>
<path d="M116.688 27.9142C116.235 28.4326 115.716 28.8861 115.392 29.1453C115.004 29.4045 114.55 29.4693 114.032 29.4693C113.254 29.4693 112.671 29.2101 112.153 28.627C111.634 28.0438 111.375 27.3311 111.375 26.424C111.375 25.5169 111.634 24.8042 112.153 24.2211C112.671 23.6379 113.254 23.3788 114.032 23.3788C114.874 23.3788 115.781 23.8971 116.494 24.8042L118.243 23.1196C117.142 21.6294 115.652 20.9814 113.967 20.9814C112.542 20.9814 111.31 21.4998 110.274 22.5365C109.237 23.5731 108.719 24.869 108.719 26.424C108.719 27.979 109.237 29.2749 110.274 30.3116C111.31 31.3482 112.542 31.8666 113.967 31.8666C115.846 31.8666 117.401 31.0243 118.438 29.5341L116.688 27.9142Z" fill="#918F8F"/>
<path d="M127.769 22.731C127.38 22.2127 126.862 21.8239 126.279 21.4999C125.631 21.176 124.918 21.0464 124.141 21.0464C122.65 21.0464 121.484 21.5647 120.577 22.6662C119.735 23.7029 119.281 25.0635 119.281 26.5537C119.281 28.1088 119.735 29.4046 120.707 30.4413C121.679 31.4132 122.91 31.9315 124.465 31.9315C126.214 31.9315 127.704 31.2188 128.741 29.7934L128.806 29.7286L127.121 28.1088C126.992 28.3031 126.732 28.4975 126.538 28.6919C126.279 28.9511 126.02 29.1454 125.76 29.275C125.372 29.4694 124.918 29.5342 124.465 29.5342C123.752 29.5342 123.169 29.3398 122.65 28.8863C122.197 28.4975 122.003 27.9792 121.873 27.3313H128.806V26.3594C128.806 25.7114 128.741 25.0635 128.547 24.4156C128.417 23.7677 128.158 23.2493 127.769 22.731ZM122.067 25.1931C122.197 24.6748 122.391 24.286 122.78 23.962C123.104 23.6381 123.622 23.4437 124.141 23.4437C124.789 23.4437 125.242 23.6381 125.566 23.962C125.89 24.286 126.02 24.6748 126.084 25.1931H122.067Z" fill="#918F8F"/>
<path d="M137.749 22.0181C136.972 21.3702 135.87 20.9814 134.51 20.9814C133.667 20.9814 132.825 21.1758 132.112 21.5646C131.4 21.8885 130.752 22.4717 130.363 23.2492L132.048 24.869C132.76 23.7675 133.473 23.3788 134.51 23.3788C135.028 23.3788 135.482 23.5084 135.87 23.8323C136.194 24.0915 136.389 24.4802 136.389 24.9338V25.4521C135.741 25.2578 135.093 25.1282 134.445 25.1282C133.149 25.1282 132.112 25.4521 131.27 26.0353C130.493 26.6184 130.039 27.5255 130.039 28.627C130.039 29.5988 130.363 30.3764 131.076 30.9595C131.724 31.5426 132.631 31.8018 133.603 31.8018C134.575 31.8018 135.546 31.413 136.389 30.7003V31.5426H138.98V24.9986C138.98 23.7027 138.527 22.7308 137.749 22.0181ZM133.084 27.6551C133.408 27.4607 133.797 27.3311 134.315 27.3311C134.963 27.3311 135.611 27.4607 136.324 27.7199V28.7565C135.741 29.2749 135.028 29.5341 134.056 29.5341C133.603 29.5341 133.279 29.4045 133.02 29.2101C132.76 29.0157 132.696 28.7565 132.696 28.4326C132.696 28.1734 132.825 27.9142 133.084 27.6551Z" fill="#918F8F"/>
<path d="M148.957 22.2774C148.244 21.4351 147.207 21.0464 145.912 21.0464C144.875 21.0464 144.033 21.3704 143.385 21.9535V21.3056H140.793V31.6724H143.385V25.9706C143.385 25.1931 143.579 24.5452 143.968 24.0916C144.357 23.6381 144.875 23.4437 145.523 23.4437C146.106 23.4437 146.559 23.6381 146.883 24.0268C147.207 24.4156 147.402 24.9987 147.402 25.6467V31.6724H149.994V25.6467C150.058 24.2212 149.67 23.055 148.957 22.2774Z" fill="#918F8F"/>
<path d="M85.3314 22.0181C84.5539 21.3702 83.4524 20.9814 82.0918 20.9814C81.2495 20.9814 80.4072 21.1758 79.6945 21.5646C78.9817 21.8885 78.3338 22.4717 77.9451 23.2492L79.6297 24.869C80.3424 23.7675 81.0551 23.3788 82.0918 23.3788C82.6101 23.3788 83.0637 23.5084 83.4524 23.8323C83.7764 24.0915 83.9708 24.4802 83.9708 24.9338V25.4521C83.3228 25.2578 82.6749 25.1282 82.027 25.1282C80.7311 25.1282 79.6944 25.4521 78.8521 26.0353C78.0746 26.6184 77.6211 27.5255 77.6211 28.627C77.6211 29.5988 77.9451 30.3764 78.6578 30.9595C79.3057 31.5426 80.2128 31.8018 81.1847 31.8018C82.1566 31.8018 83.1285 31.413 83.9708 30.7003V31.5426H86.5625V24.9986C86.5625 23.7027 86.1737 22.7308 85.3314 22.0181ZM80.7311 27.6551C81.0551 27.4607 81.4438 27.3311 81.9622 27.3311C82.6101 27.3311 83.258 27.4607 83.9708 27.7199V28.7565C83.3876 29.2749 82.6749 29.5341 81.703 29.5341C81.2495 29.5341 80.9255 29.4045 80.6663 29.2101C80.4072 29.0157 80.3424 28.7565 80.3424 28.4326C80.2776 28.1734 80.4072 27.9142 80.7311 27.6551Z" fill="#918F8F"/>
<path d="M100.233 31.8665C96.0216 31.8665 92.6523 28.4325 92.6523 24.2858C92.6523 20.1391 96.0863 16.7051 100.233 16.7051C104.38 16.7051 107.814 20.1391 107.814 24.2858C107.814 28.4325 104.445 31.8665 100.233 31.8665ZM100.233 19.3616C97.5118 19.3616 95.3088 21.5645 95.3088 24.2858C95.3088 27.0071 97.5118 29.21 100.233 29.21C102.954 29.21 105.157 27.0071 105.157 24.2858C105.157 21.5645 102.954 19.3616 100.233 19.3616Z" fill="#918F8F"/>
</svg>
