<svg width="65" height="65" viewBox="0 0 65 65" fill="none" xmlns="http://www.w3.org/2000/svg">
<path d="M4.89961 22.4001C3.59961 21.5001 2.59961 22.0001 2.59961 23.6001V59.4001C2.59961 61.0001 3.89961 62.2001 5.39961 62.2001H59.4996C61.0996 62.2001 62.2996 60.9001 62.2996 59.4001V22.8001C62.2996 21.2001 61.2996 20.7001 59.9996 21.7001L34.7996 40.7001C33.5996 41.6001 31.4996 41.7001 30.1996 40.7001L4.89961 22.4001Z" stroke="#00B9F2" stroke-width="2" stroke-miterlimit="10"/>
<path d="M2.59961 58.1001L28.6996 39.6001" stroke="#00B9F2" stroke-width="2" stroke-miterlimit="10"/>
<path d="M62.3992 58.1001L36.1992 39.6001" stroke="#00B9F2" stroke-width="2" stroke-miterlimit="10"/>
<path d="M11 26V8.40002H53.9V26" stroke="#00B9F2" stroke-width="2" stroke-miterlimit="10" stroke-linecap="round" stroke-linejoin="round"/>
<path d="M3.39941 22.1001L10.9994 17.1001" stroke="#00B9F2" stroke-width="2" stroke-miterlimit="10" stroke-linecap="round" stroke-linejoin="round"/>
<path d="M61.4996 21L54.0996 16.5" stroke="#00B9F2" stroke-width="2" stroke-miterlimit="10" stroke-linecap="round" stroke-linejoin="round"/>
<path d="M22 8.40005L32.5 1.80005L43.4 8.40005" stroke="#00B9F2" stroke-width="2" stroke-miterlimit="10" stroke-linecap="round" stroke-linejoin="round"/>
<path d="M36.1994 21.5C36.1994 21.5 31.0994 18.9 28.6994 23.2C26.2994 27.5 32.1994 30 33.9994 28.2C35.7994 26.4 35.9994 26.8 36.2994 22.7C36.5994 18.6 35.4994 30.9 39.3994 28.8C43.2994 26.7 42.0994 18.2 35.5994 16.4C29.0994 14.6 23.2994 19.3 24.2994 26.2C25.2994 33.1 32.7994 33.2 32.7994 33.2" stroke="#00B9F2" stroke-width="2" stroke-miterlimit="10" stroke-linecap="round" stroke-linejoin="round"/>
</svg>
