<svg width="100" height="100" viewBox="0 0 100 100" fill="none" xmlns="http://www.w3.org/2000/svg">
<rect width="100" height="100" rx="50" fill="white"/>
<path d="M21.8996 40.4001C20.5996 39.5001 19.5996 40.0001 19.5996 41.6001V77.4001C19.5996 79.0001 20.8996 80.2001 22.3996 80.2001H76.4996C78.0996 80.2001 79.2996 78.9001 79.2996 77.4001V40.8001C79.2996 39.2001 78.2996 38.7001 76.9996 39.7001L51.7996 58.7001C50.5996 59.6001 48.4996 59.7001 47.1996 58.7001L21.8996 40.4001Z" stroke="#00B9F2" stroke-width="2" stroke-miterlimit="10"/>
<path d="M19.5996 76.1L45.6996 57.6" stroke="#00B9F2" stroke-width="2" stroke-miterlimit="10"/>
<path d="M79.3992 76.1L53.1992 57.6" stroke="#00B9F2" stroke-width="2" stroke-miterlimit="10"/>
<path d="M28 44V26.4H70.9V44" stroke="#00B9F2" stroke-width="2" stroke-miterlimit="10" stroke-linecap="round" stroke-linejoin="round"/>
<path d="M20.3994 40.1001L27.9994 35.1001" stroke="#00B9F2" stroke-width="2" stroke-miterlimit="10" stroke-linecap="round" stroke-linejoin="round"/>
<path d="M78.4996 39L71.0996 34.5" stroke="#00B9F2" stroke-width="2" stroke-miterlimit="10" stroke-linecap="round" stroke-linejoin="round"/>
<path d="M39 26.4L49.5 19.8L60.4 26.4" stroke="#00B9F2" stroke-width="2" stroke-miterlimit="10" stroke-linecap="round" stroke-linejoin="round"/>
<path d="M53.1994 39.5C53.1994 39.5 48.0994 36.9 45.6994 41.2C43.2994 45.5 49.1994 48 50.9994 46.2C52.7994 44.4 52.9994 44.8 53.2994 40.7C53.5994 36.6 52.4994 48.9 56.3994 46.8C60.2994 44.7 59.0994 36.2 52.5994 34.4C46.0994 32.6 40.2994 37.3 41.2994 44.2C42.2994 51.1 49.7994 51.2 49.7994 51.2" stroke="#00B9F2" stroke-width="2" stroke-miterlimit="10" stroke-linecap="round" stroke-linejoin="round"/>
</svg>
