<svg width="663" height="451" viewBox="0 0 663 451" fill="none" xmlns="http://www.w3.org/2000/svg">
<g filter="url(#filter0_d)">
<path d="M333.559 434.082C447.829 434.082 540.463 341.395 540.463 227.061C540.463 112.726 447.829 20.0396 333.559 20.0396C219.29 20.0396 126.656 112.726 126.656 227.061C126.656 341.395 219.29 434.082 333.559 434.082Z" fill="url(#paint0_linear)"/>
<path d="M334 419C440.039 419 526 332.815 526 226.5C526 120.185 440.039 34 334 34C227.961 34 142 120.185 142 226.5C142 332.815 227.961 419 334 419Z" fill="#EAF8FF"/>
<path d="M562.847 98.4498C562.847 98.4498 432.359 201.168 418.262 206.452C404.166 211.736 338.475 210.07 326.775 217.346C315.075 224.622 253.284 287.952 254.462 292.789C255.641 297.626 261.369 308.438 271.2 309.292C271.2 309.292 277.984 324.332 288.384 325.063C288.384 325.063 296.022 343.721 309.347 340.55C309.347 340.55 319.259 358.029 330.959 353.354C342.659 348.639 429.109 303.113 446.05 263.888L637.15 176.819L562.847 98.4498Z" fill="#C7C7C7"/>
<path d="M100.981 103.734C100.981 103.734 235.044 206.33 249.466 211.736C263.928 217.142 331.081 216.614 343.106 223.931C355.131 231.247 418.669 294.171 417.531 298.886C416.394 303.601 410.544 314.048 400.55 314.739C400.55 314.739 393.725 329.331 383.081 329.86C383.081 329.86 375.403 347.989 361.753 344.656C361.753 344.656 351.719 361.565 339.734 356.769C327.75 351.972 239.066 305.999 221.516 267.384L25.5 179.015L100.981 103.734Z" fill="#DBDBDB"/>
<path d="M166.184 249.742L31.3095 187.469C31.3095 187.469 12.6626 175.925 12.6626 141.334C12.6626 106.742 13.2313 33.1689 33.5032 48.0055C53.7751 62.842 212.659 181.413 212.659 181.413L166.184 249.742Z" fill="url(#paint1_linear)"/>
<path d="M496.587 250.474L631.462 188.201C631.462 188.201 650.109 176.657 650.109 142.065C650.109 107.474 649.54 33.9006 629.269 48.7371C608.997 63.5737 450.112 182.144 450.112 182.144L496.587 250.474Z" fill="url(#paint2_linear)"/>
<path d="M239.025 314.495L260.841 260.351C260.841 260.351 276.887 247.832 286.759 263.237L263.156 326.079C263.156 326.079 240.122 336.648 239.025 314.495Z" fill="#C7C7C7"/>
<path d="M285.256 333.193L309.063 272.465C309.063 272.465 323.85 259.701 330.756 278.928L304.594 349.655C304.553 349.655 283.997 359.248 285.256 333.193Z" fill="#C7C7C7"/>
<path d="M263.197 325.267L287.003 264.538C287.003 264.538 301.791 251.775 308.697 271.001L282.535 341.729C282.494 341.729 261.938 351.322 263.197 325.267Z" fill="#C7C7C7"/>
<path d="M308.25 338.111L330.553 287.179C330.553 287.179 343.716 276.773 349.119 293.317L324.5 352.663C324.46 352.663 306.422 360.224 308.25 338.111Z" fill="#C7C7C7"/>
<path d="M358.828 212.021C358.828 212.021 288.709 213.24 283.875 212.63C279.081 212.021 280.828 243.564 361.712 235.068" fill="#C7C7C7"/>
<path d="M242.803 203.932C242.803 203.932 201.975 240.556 201.975 268.725L161.147 251.124C161.147 251.124 181.581 193.363 217.453 178.567L242.803 203.932Z" fill="#6ACFF6"/>
<path d="M418.263 203.932C418.263 203.932 459.091 240.556 459.091 268.725L499.919 251.124C499.919 251.124 479.485 193.363 443.613 178.567L418.263 203.932Z" fill="#8BD7F8"/>
<path d="M204.006 254.295L168.297 236.125L204.006 258.36V254.295Z" fill="#00B3F0"/>
<path d="M456.734 256.327L492.444 238.117L456.734 260.392V256.327Z" fill="#00B3F0"/>
<path d="M192.916 256.368C197.022 256.368 200.35 253.037 200.35 248.929C200.35 244.821 197.022 241.491 192.916 241.491C188.81 241.491 185.481 244.821 185.481 248.929C185.481 253.037 188.81 256.368 192.916 256.368Z" fill="white"/>
<path d="M469.044 256.734C473.15 256.734 476.478 253.403 476.478 249.295C476.478 245.187 473.15 241.856 469.044 241.856C464.938 241.856 461.609 245.187 461.609 249.295C461.609 253.403 464.938 256.734 469.044 256.734Z" fill="white"/>
<path d="M330.553 40.2823C330.594 40.323 330.594 40.323 330.594 40.323C330.594 40.323 369.512 80.8492 398.722 90.7674C398.722 90.7674 361.184 176.169 331 193.77C300.734 176.576 262.628 91.2958 262.628 91.2958C291.797 81.1337 330.472 40.2417 330.472 40.2417C330.512 40.2417 330.512 40.2417 330.553 40.2823Z" fill="#BDBDBD"/>
<path d="M330.594 43.8187C330.594 43.8187 330.634 43.8593 330.594 43.8187C330.634 43.8593 367.684 82.4751 395.512 91.9055C395.512 91.9055 359.762 173.242 331 190.03C302.156 173.649 265.878 92.4339 265.878 92.4339C293.625 82.7596 330.512 43.8187 330.512 43.8187C330.553 43.778 330.594 43.778 330.594 43.8187Z" fill="url(#paint3_linear)"/>
<path d="M330.066 47.2331C330.066 47.2331 330.106 47.2331 330.066 47.2331C330.106 47.2738 365.369 84.0197 391.815 93.0029C391.815 93.0029 357.772 170.397 330.431 186.372C303.009 170.803 268.478 93.4907 268.478 93.4907C294.884 84.2636 329.984 47.2331 329.984 47.2331C330.025 47.1925 330.025 47.1925 330.066 47.2331Z" fill="url(#paint4_linear)"/>
<path d="M330.35 143.163C348.748 143.163 363.663 128.24 363.663 109.831C363.663 91.4228 348.748 76.4998 330.35 76.4998C311.952 76.4998 297.038 91.4228 297.038 109.831C297.038 128.24 311.952 143.163 330.35 143.163Z" fill="white"/>
<path d="M327.872 132.35C327.425 132.35 326.978 132.228 326.572 132.025C326.166 131.822 325.8 131.497 325.475 131.09L312.312 114.303C311.703 113.49 311.337 112.392 311.337 111.295C311.337 110.157 311.703 109.1 312.312 108.287C312.922 107.474 313.775 107.027 314.669 107.027C315.562 107.027 316.416 107.474 317.025 108.246L327.791 122.026L347.778 96.4581C348.387 95.6451 349.281 95.198 350.134 95.198C351.028 95.198 351.881 95.6451 352.491 96.4581C353.1 97.2711 353.466 98.3686 353.466 99.5067C353.466 100.645 353.1 101.742 352.491 102.555L330.106 131.131C329.781 131.537 329.416 131.863 329.009 132.066C328.766 132.228 328.319 132.35 327.872 132.35Z" fill="url(#paint5_linear)"/>
<path d="M221.638 352.419L221.76 373.069L221.638 352.419Z" fill="url(#paint6_linear)" stroke="#20C4F4" stroke-width="10" stroke-miterlimit="10" stroke-linecap="round" stroke-linejoin="round"/>
<path d="M231.794 362.256L211.156 362.378L231.794 362.256Z" fill="url(#paint7_linear)" stroke="#20C4F4" stroke-width="10" stroke-miterlimit="10" stroke-linecap="round" stroke-linejoin="round"/>
<path opacity="0.75" d="M221.353 163.853C232.302 163.853 241.178 154.972 241.178 144.016C241.178 133.061 232.302 124.18 221.353 124.18C210.404 124.18 201.528 133.061 201.528 144.016C201.528 154.972 210.404 163.853 221.353 163.853Z" fill="#81D4F7"/>
<path d="M221.353 133.448L221.475 154.666L221.353 133.448Z" fill="url(#paint8_linear)" stroke="white" stroke-width="10" stroke-miterlimit="10" stroke-linecap="round" stroke-linejoin="round"/>
<path d="M231.753 143.529L210.547 143.651L231.753 143.529Z" fill="url(#paint9_linear)" stroke="white" stroke-width="10" stroke-miterlimit="10" stroke-linecap="round" stroke-linejoin="round"/>
<path opacity="0.75" d="M474.244 330.063C485.193 330.063 494.069 321.182 494.069 310.227C494.069 299.271 485.193 290.39 474.244 290.39C463.295 290.39 454.419 299.271 454.419 310.227C454.419 321.182 463.295 330.063 474.244 330.063Z" fill="#6ACFF6"/>
<path d="M474.244 299.658L474.366 320.877L474.244 299.658Z" fill="url(#paint10_linear)" stroke="white" stroke-width="10" stroke-miterlimit="10" stroke-linecap="round" stroke-linejoin="round"/>
<path d="M484.644 309.739L463.438 309.861L484.644 309.739Z" fill="url(#paint11_linear)" stroke="white" stroke-width="10" stroke-miterlimit="10" stroke-linecap="round" stroke-linejoin="round"/>
<path d="M448.203 94.9948L448.325 116.213L448.203 94.9948Z" fill="#38C6F4" stroke="#44C8F5" stroke-width="10" stroke-miterlimit="10" stroke-linecap="round" stroke-linejoin="round"/>
<path d="M458.644 105.075L437.438 105.197L458.644 105.075Z" fill="url(#paint12_linear)" stroke="#2AC5F4" stroke-width="10" stroke-miterlimit="10" stroke-linecap="round" stroke-linejoin="round"/>
</g>
<defs>
<filter id="filter0_d" x="-6" y="-8" width="674" height="463" filterUnits="userSpaceOnUse" color-interpolation-filters="sRGB">
<feFlood flood-opacity="0" result="BackgroundImageFix"/>
<feColorMatrix in="SourceAlpha" type="matrix" values="0 0 0 0 0 0 0 0 0 0 0 0 0 0 0 0 0 0 127 0" result="hardAlpha"/>
<feOffset dy="4"/>
<feGaussianBlur stdDeviation="6"/>
<feColorMatrix type="matrix" values="0 0 0 0 0 0 0 0 0 0 0 0 0 0 0 0 0 0 0.4 0"/>
<feBlend mode="normal" in2="BackgroundImageFix" result="effect1_dropShadow"/>
<feBlend mode="normal" in="SourceGraphic" in2="effect1_dropShadow" result="shape"/>
</filter>
<linearGradient id="paint0_linear" x1="126.662" y1="227.073" x2="540.47" y2="227.073" gradientUnits="userSpaceOnUse">
<stop stop-color="#71459B"/>
<stop offset="0.8668" stop-color="#A76DAE"/>
</linearGradient>
<linearGradient id="paint1_linear" x1="164.59" y1="149.055" x2="-35.3808" y2="145.688" gradientUnits="userSpaceOnUse">
<stop stop-color="#43B5E8"/>
<stop offset="1" stop-color="#B3E3F9"/>
</linearGradient>
<linearGradient id="paint2_linear" x1="450.136" y1="148.635" x2="650.135" y2="148.635" gradientUnits="userSpaceOnUse">
<stop stop-color="#43B5E8"/>
<stop offset="1" stop-color="#B3E3F9"/>
</linearGradient>
<linearGradient id="paint3_linear" x1="265.894" y1="116.89" x2="395.509" y2="116.89" gradientUnits="userSpaceOnUse">
<stop stop-color="#71459B"/>
<stop offset="0.8668" stop-color="#A76DAE"/>
</linearGradient>
<linearGradient id="paint4_linear" x1="268.498" y1="116.75" x2="391.826" y2="116.75" gradientUnits="userSpaceOnUse">
<stop stop-color="#43B5E8"/>
<stop offset="1" stop-color="#B3E3F9"/>
</linearGradient>
<linearGradient id="paint5_linear" x1="311.404" y1="113.76" x2="353.618" y2="113.76" gradientUnits="userSpaceOnUse">
<stop stop-color="#71459B"/>
<stop offset="0.8668" stop-color="#A76DAE"/>
</linearGradient>
<linearGradient id="paint6_linear" x1="228.419" y1="356.959" x2="215.829" y2="367.825" gradientUnits="userSpaceOnUse">
<stop stop-color="#43B5E8"/>
<stop offset="1" stop-color="#43B5E8"/>
</linearGradient>
<linearGradient id="paint7_linear" x1="227.278" y1="369.024" x2="216.398" y2="356.437" gradientUnits="userSpaceOnUse">
<stop stop-color="#43B5E8"/>
<stop offset="1" stop-color="#43B5E8"/>
</linearGradient>
<linearGradient id="paint8_linear" x1="228.293" y1="138.083" x2="215.352" y2="149.254" gradientUnits="userSpaceOnUse">
<stop stop-color="#43B5E8"/>
<stop offset="1" stop-color="#43B5E8"/>
</linearGradient>
<linearGradient id="paint9_linear" x1="227.119" y1="150.481" x2="215.94" y2="137.545" gradientUnits="userSpaceOnUse">
<stop stop-color="#43B5E8"/>
<stop offset="1" stop-color="#43B5E8"/>
</linearGradient>
<linearGradient id="paint10_linear" x1="481.187" y1="304.294" x2="468.246" y2="315.466" gradientUnits="userSpaceOnUse">
<stop stop-color="#43B5E8"/>
<stop offset="1" stop-color="#43B5E8"/>
</linearGradient>
<linearGradient id="paint11_linear" x1="480.013" y1="316.691" x2="468.837" y2="303.756" gradientUnits="userSpaceOnUse">
<stop stop-color="#43B5E8"/>
<stop offset="1" stop-color="#43B5E8"/>
</linearGradient>
<linearGradient id="paint12_linear" x1="453.98" y1="112.029" x2="442.802" y2="99.0932" gradientUnits="userSpaceOnUse">
<stop stop-color="#43B5E8"/>
<stop offset="1" stop-color="#43B5E8"/>
</linearGradient>
</defs>
</svg>
