<svg width="150" height="70" viewBox="0 0 150 70" fill="none" xmlns="http://www.w3.org/2000/svg">
<path d="M66.2978 15.5293H68.3452V31.5469H66.4484V19.2627L62.9257 27.3318H61.0289L57.5062 19.2627V31.5469H55.6094V15.5293H57.6266L61.9622 25.3747L66.2978 15.5293Z" fill="#918F8F"/>
<path d="M80.4799 31.5469H78.7637L78.6433 30.5533C77.9809 31.0953 76.325 31.7878 74.8497 31.7878C72.2904 31.7878 71.2969 30.2824 71.2969 28.0543C71.2969 25.7059 72.4711 24.4714 75.0002 24.4714C76.5056 24.4714 77.8304 24.8628 78.4627 25.1338V23.2972C78.4627 21.7617 77.9809 21.0993 76.2045 21.0993C75.1507 21.0993 74.097 21.2498 73.0131 21.5509L72.712 19.895C73.7357 19.5638 75.1809 19.353 76.4153 19.353C79.1853 19.353 80.4799 20.5574 80.4799 23.1768V31.5469ZM78.4627 26.5188C77.8003 26.3081 76.4755 26.007 75.2712 26.007C73.6453 26.007 73.2539 26.7898 73.2539 28.1145C73.2539 29.5899 73.7357 30.2824 75.1206 30.2824C76.5658 30.2824 77.7702 29.7404 78.4326 29.2587V26.5188H78.4627Z" fill="#918F8F"/>
<path d="M89.6022 21.3101C88.2474 21.5811 86.8925 22.0327 85.8688 22.5746V31.577H83.8516V19.624H85.5075L85.7183 21.009C86.4409 20.2864 87.7656 19.5939 89.3313 19.4434L89.6022 21.3101Z" fill="#918F8F"/>
<path d="M91.7109 31.5465V14.5654H93.7282V25.1335L97.8831 19.6236H100.262L95.6852 25.5249L100.442 31.5465H98.0638L93.7282 25.8862V31.5465H91.7109Z" fill="#918F8F"/>
<path d="M103.662 26.4884C103.782 29.0175 104.415 30.2218 106.853 30.2218C108.118 30.2218 109.443 29.9207 110.376 29.5594L110.677 31.095C109.683 31.5165 108.118 31.8176 106.823 31.8176C102.518 31.8176 101.645 28.8669 101.645 25.5249C101.645 22.0926 102.789 19.3828 106.432 19.3828C109.683 19.3828 111.038 21.671 111.038 24.5313V26.4884H103.662V26.4884ZM103.662 24.8926H109.081V24.4711C109.081 22.2431 108.389 20.9183 106.402 20.9183C104.174 20.8882 103.692 22.5141 103.662 24.8926Z" fill="#918F8F"/>
<path d="M120.041 31.4264C119.529 31.6071 118.355 31.7877 117.572 31.7877C115.525 31.7877 114.652 30.6436 114.652 28.807V21.2498H112.574V19.6239H114.652V16.7034L116.669 16.4023V19.5938H120.071L119.891 21.2197H116.669V28.6866C116.669 29.8006 116.94 30.1317 118.054 30.1317C118.536 30.1317 119.228 30.0414 119.86 29.8909L120.041 31.4264Z" fill="#918F8F"/>
<path d="M123.503 14.7764C124.286 14.7764 124.858 15.3484 124.858 16.1312C124.858 16.9141 124.316 17.4861 123.503 17.4861C122.72 17.4861 122.148 16.9141 122.148 16.1312C122.179 15.3484 122.72 14.7764 123.503 14.7764ZM122.51 19.6238H124.527V31.5768H122.51V19.6238Z" fill="#918F8F"/>
<path d="M135.187 31.5469V22.8456C135.187 21.7617 134.735 21.2197 133.561 21.2197C132.297 21.2197 131.062 21.6413 130.189 22.0026V31.5469H128.172V19.5939H129.798L129.978 20.6477C130.942 19.9853 132.447 19.353 134.073 19.353C136.12 19.353 137.234 20.4971 137.234 22.6348V31.5469H135.187V31.5469Z" fill="#918F8F"/>
<path d="M146.206 19.6237H150V21.0087L148.404 21.3098C148.705 21.8517 148.856 22.5743 148.856 23.327C148.856 25.7959 147.14 27.2712 144.4 27.2712C143.948 27.2712 143.497 27.2411 143.135 27.1508C142.864 27.3916 142.593 27.7228 142.593 28.2648C142.593 28.8368 142.894 29.1078 143.677 29.1078H146.387C148.495 29.1078 149.789 30.4326 149.789 32.2993C149.789 34.8585 147.531 36.1231 144.31 36.1231C141.178 36.1231 139.492 35.1596 139.492 32.9015C139.492 31.4563 140.456 30.7939 141.389 30.3423C140.877 29.981 140.606 29.439 140.606 28.7465C140.606 27.6626 141.359 27.1207 141.991 26.7594C140.697 26.1271 139.944 24.9227 139.944 23.327C139.944 20.7678 141.419 19.3828 144.37 19.3828C145.062 19.3828 145.664 19.4731 146.206 19.6237ZM142.413 30.7638C141.871 31.2154 141.389 31.7875 141.389 32.7509C141.389 34.1359 142.563 34.6477 144.37 34.6477C146.477 34.6477 147.772 34.1058 147.772 32.5101C147.772 31.6068 147.26 30.8541 145.965 30.8541H143.376C143.015 30.8541 142.563 30.824 142.413 30.7638ZM144.4 20.828C142.684 20.828 141.871 21.5205 141.871 23.327C141.871 25.1335 142.804 25.826 144.4 25.826C145.996 25.826 146.959 25.0432 146.959 23.327C146.959 21.5807 146.056 20.828 144.4 20.828Z" fill="#918F8F"/>
<path d="M57.6868 49.6717V55.6332H55.6094V39.5854H60.3966C64.0999 39.5854 65.4548 41.693 65.4548 44.6135C65.4548 47.5341 64.0999 49.6416 60.3966 49.6416H57.6868V49.6717ZM57.6868 47.9857H60.3364C62.7451 47.9857 63.4074 46.6007 63.4074 44.6437C63.4074 42.6565 62.7451 41.3016 60.3364 41.3016H57.6868V47.9857Z" fill="#918F8F"/>
<path d="M75.6635 55.6333H73.9473L73.8269 54.6398C73.1645 55.1817 71.5086 55.8742 70.0332 55.8742C67.474 55.8742 66.4805 54.3688 66.4805 52.1408C66.4805 49.7923 67.6547 48.5579 70.1838 48.5579C71.6591 48.5579 73.014 48.9493 73.6463 49.2202V47.3836C73.6463 45.8481 73.1645 45.1857 71.3881 45.1857C70.3343 45.1857 69.2805 45.3363 68.1966 45.6374L67.8956 43.9814C68.9192 43.6502 70.3644 43.4395 71.5989 43.4395C74.3689 43.4395 75.6635 44.6438 75.6635 47.2632V55.6333ZM73.6463 50.6052C72.9839 50.3945 71.6591 50.0934 70.4548 50.0934C68.8289 50.0934 68.4375 50.8762 68.4375 52.201C68.4375 53.6763 68.9192 54.3688 70.3042 54.3688C71.7494 54.3688 72.9538 53.8268 73.6161 53.3451V50.6052H73.6463Z" fill="#918F8F"/>
<path d="M84.7858 45.3965C83.431 45.6675 82.0761 46.1191 81.0524 46.6611V55.6634H79.0352V43.7104H80.6911L80.9019 45.0954C81.6245 44.3728 82.9492 43.6803 84.5149 43.5298L84.7858 45.3965Z" fill="#918F8F"/>
<path d="M93.0344 55.5128C92.5226 55.6935 91.3483 55.8741 90.5655 55.8741C88.5182 55.8741 87.645 54.73 87.645 52.8934V45.3362H85.5977V43.7104H87.6751V40.7899L89.6924 40.4888V43.6803H93.0946L92.914 45.3061H89.6924V52.773C89.6924 53.887 89.9634 54.2182 91.0774 54.2182C91.5591 54.2182 92.2516 54.1279 92.8839 53.9773L93.0344 55.5128Z" fill="#918F8F"/>
<path d="M102.55 55.6333V46.932C102.55 45.8481 102.099 45.3062 100.925 45.3062C99.66 45.3062 98.4256 45.7277 97.5524 46.089V55.6333H95.5352V43.6803H97.161L97.3417 44.7341C98.3051 44.0717 99.8105 43.4395 101.436 43.4395C103.484 43.4395 104.598 44.5836 104.598 46.7213V55.6333H102.55V55.6333Z" fill="#918F8F"/>
<path d="M109.295 50.5753C109.415 53.1044 110.047 54.3087 112.486 54.3087C113.751 54.3087 115.075 54.0077 116.009 53.6464L116.31 55.1819C115.316 55.6034 113.751 55.9045 112.456 55.9045C108.15 55.9045 107.277 52.9539 107.277 49.6118C107.277 46.1795 108.421 43.4697 112.065 43.4697C115.316 43.4697 116.671 45.758 116.671 48.6183V50.5753H109.295V50.5753ZM109.295 48.9796H114.714V48.558C114.714 46.33 114.022 45.0053 112.034 45.0053C109.776 44.9751 109.295 46.601 109.295 48.9796Z" fill="#918F8F"/>
<path d="M125.251 45.3965C123.896 45.6675 122.541 46.1191 121.517 46.6611V55.6634H119.5V43.7104H121.156L121.367 45.0954C122.089 44.3728 123.414 43.6803 124.98 43.5298L125.251 45.3965Z" fill="#918F8F"/>
<path d="M41.7302 13H2.43878C1.0839 13 0 14.0839 0 15.4388V54.7302C0 56.085 1.0839 57.1689 2.43878 57.1689H23.5748V40.0674H17.8241V33.4135H23.5748V28.5058C23.5748 22.8153 27.0674 19.684 32.1557 19.684C34.5945 19.684 36.7021 19.8647 37.3042 19.955V25.9165H33.7816C31.0116 25.9165 30.4696 27.2412 30.4696 29.1682V33.4135H37.0634L36.1902 40.0674H30.4395V57.1689H41.7001C43.0549 57.1689 44.1388 56.085 44.1388 54.7302V15.4388C44.1388 14.0839 43.0549 13 41.7302 13Z" fill="#918F8F"/>
</svg>
