<svg width="650" height="450" viewBox="0 0 650 450" fill="none" xmlns="http://www.w3.org/2000/svg">
<g filter="url(#filter0_d)">
<path d="M328 62.4L356.4 398.3C356.5 399 356.4 399.8 356.2 400.5C356 401.2 355.6 401.9 355.1 402.4C354.6 403 354 403.4 353.4 403.8C352.7 404.1 352 404.3 351.3 404.4L113.2 424.5C111.7 424.6 110.2 424.2 109.1 423.2C108 422.2 107.3 420.9 107.1 419.4L78.7 83.5C78.6 82 79 80.5 80 79.4C81 78.3 82.3 77.6 83.8 77.4L321.9 57.3C322.6 57.2 323.4 57.3 324.1 57.5C324.8 57.7 325.5 58.1 326 58.6C326.6 59.1 327 59.7 327.4 60.3C327.7 60.9 327.9 61.7 328 62.4Z" fill="#E6E7E8"/>
<path d="M328 62.4L329.9 84.5L80.6 105.5L78.7 83.4C78.6 81.9 79 80.4 80 79.3C81 78.2 82.3 77.5 83.8 77.3L321.9 57.2C322.6 57.1 323.4 57.2 324.1 57.4C324.8 57.6 325.5 58 326 58.5C326.6 59 327 59.6 327.4 60.2C327.8 60.8 328 61.6 328 62.4Z" fill="url(#paint0_linear)"/>
<path d="M319.4 97.1C319.3 95.5 317.9 94.4 316.3 94.5L96.4999 113.1C94.8999 113.2 93.7999 114.6 93.8999 116.2L118.2 404C118.3 405.6 119.7 406.7 121.3 406.6L341.2 388C342.8 387.9 343.9 386.5 343.8 384.9L319.4 97.1Z" fill="url(#paint1_linear)"/>
<path d="M316.3 94.6C317.9 94.5 319.2 95.6 319.4 97.2L339.5 335.1C339.6 336.7 339.7 339.2 339.7 340.8L338.2 354.6C337.9 356.1 337.1 358.5 336.5 360L329.8 372.2C328.9 373.5 327.3 375.4 326.2 376.5L315.3 385.2C314 386 311.7 387.2 310.3 387.8L296.9 391.6C295.4 391.9 292.8 392.2 291.3 392.4L121.3 406.8C119.7 406.9 118.4 405.8 118.2 404.2L93.8999 116.2C93.7999 114.6 94.8999 113.3 96.4999 113.1L316.3 94.6Z" fill="url(#paint2_linear)"/>
<path d="M187.9 384.2C187.9 384.2 165.7 398.1 153.5 403.9L140.3 405C134.4 403.8 125.4 402.2 117.9 400.5L106.8 269.7C106.8 269.7 115.6 333.2 127.6 360.5C139.6 387.8 187.9 384.2 187.9 384.2Z" fill="url(#paint3_linear)"/>
<path d="M340.5 347C339.3 358.7 334.1 369.6 325.7 377.8C317.3 386 306.4 391.1 294.7 392L118.6 406.9C103.9 408.1 83.6 390 74 380.6C89.6 387.4 89.2 388 116.9 389H117C117 389 148.4 387.9 187.8 384.3C246.4 378.9 322.7 368 340.5 347Z" fill="url(#paint4_linear)"/>
<path d="M171.6 151.3C175.5 151 178.4 147.5 178.1 143.6C177.8 139.7 174.3 136.8 170.4 137.1C166.5 137.4 163.6 140.9 163.9 144.8C164.2 148.7 167.7 151.6 171.6 151.3Z" fill="url(#paint5_linear)"/>
<path d="M146.8 138.3L119.6 140.6C117.2 140.8 115.4 142.9 115.6 145.3L117.9 172.5C118.1 174.9 120.2 176.7 122.6 176.5L149.8 174.2C152.2 174 154 171.9 153.8 169.5L151.5 142.3C151.2 139.8 149.1 138.1 146.8 138.3Z" fill="url(#paint6_linear)"/>
<path d="M155.2 237.4L128 239.7C125.6 239.9 123.8 242 124 244.4L126.3 271.6C126.5 274 128.6 275.8 131 275.6L158.2 273.3C160.6 273.1 162.4 271 162.2 268.6L159.9 241.4C159.7 239 157.6 237.2 155.2 237.4Z" fill="url(#paint7_linear)"/>
<path d="M159.5 286.5L132.3 288.8C129.9 289 128.1 291.1 128.3 293.5L130.6 320.7C130.8 323.1 132.9 324.9 135.3 324.7L162.5 322.4C164.9 322.2 166.7 320.1 166.5 317.7L164.2 290.5C163.9 288.1 161.9 286.3 159.5 286.5Z" fill="url(#paint8_linear)"/>
<path d="M164 336.3L136.8 338.6C134.4 338.8 132.6 340.9 132.8 343.3L135.1 370.5C135.3 372.9 137.4 374.7 139.8 374.5L167 372.2C169.4 372 171.2 369.9 171 367.5L168.7 340.3C168.5 337.8 166.4 336.1 164 336.3Z" fill="url(#paint9_linear)"/>
<path d="M148.2 136.6L121 138.9C118.6 139.1 116.8 141.2 117 143.6L119.3 170.8C119.5 173.2 121.6 175 124 174.8L151.2 172.5C153.6 172.3 155.4 170.2 155.2 167.8L152.9 140.6C152.7 138.1 150.6 136.4 148.2 136.6Z" fill="url(#paint10_linear)"/>
<path d="M170.1 148C170 148 169.9 148 169.8 148C169.7 148 169.6 147.9 169.5 147.8L165.9 144.7C165.7 144.6 165.6 144.3 165.6 144.1C165.6 143.9 165.7 143.7 165.8 143.5C165.9 143.3 166.2 143.2 166.4 143.2C166.6 143.2 166.8 143.2 167 143.4L170 145.9L174.7 140.4C174.8 140.2 175.1 140.1 175.3 140.1C175.5 140.1 175.8 140.2 175.9 140.3C176.1 140.4 176.2 140.7 176.2 140.9C176.2 141.1 176.1 141.4 176 141.5L170.8 147.7C170.7 147.8 170.6 147.9 170.5 147.9C170.3 148 170.2 148 170.1 148Z" fill="url(#paint11_linear)"/>
<path d="M173 168.2C176.9 167.9 179.8 164.4 179.5 160.5C179.2 156.6 175.7 153.7 171.8 154C167.9 154.3 165 157.8 165.3 161.7C165.7 165.6 169.1 168.5 173 168.2Z" fill="url(#paint12_linear)"/>
<path d="M171.5 164.9C171.4 164.9 171.3 164.9 171.2 164.9C171.1 164.9 171 164.8 170.9 164.7L167.3 161.6C167.1 161.5 167 161.2 167 161C167 160.8 167.1 160.6 167.2 160.4C167.3 160.2 167.6 160.1 167.8 160.1C168 160.1 168.2 160.2 168.4 160.3L171.4 162.8L176.1 157.3C176.2 157.1 176.5 157 176.7 157C176.9 157 177.2 157.1 177.3 157.2C177.4 157.3 177.6 157.6 177.6 157.8C177.6 158 177.5 158.3 177.4 158.4L172.2 164.6C172.1 164.7 172 164.8 171.9 164.8C171.8 164.9 171.6 164.9 171.5 164.9Z" fill="url(#paint13_linear)"/>
<path d="M303.5 134.1L206.1 142.3C205.8 142.3 205.5 142.2 205.3 142C205.1 141.8 204.9 141.5 204.9 141.3C204.9 141 205 140.7 205.2 140.5C205.4 140.3 205.7 140.1 205.9 140.1L303.3 131.9C303.6 131.9 303.9 132 304.1 132.2C304.3 132.4 304.5 132.7 304.5 132.9C304.5 133.2 304.4 133.5 304.2 133.7C304 133.9 303.7 134 303.5 134.1Z" fill="url(#paint14_linear)"/>
<path d="M304.9 151L207.5 159.2C207.2 159.2 206.9 159.1 206.7 158.9C206.5 158.7 206.3 158.5 206.3 158.2C206.3 157.9 206.4 157.6 206.5 157.4C206.7 157.2 206.9 157 207.2 157L304.6 148.8C304.9 148.8 305.2 148.9 305.4 149.1C305.6 149.3 305.8 149.5 305.8 149.8C305.8 150.1 305.7 150.4 305.6 150.6C305.4 150.8 305.2 151 304.9 151Z" fill="url(#paint15_linear)"/>
<path d="M175.8 200.9C179.7 200.6 182.6 197.1 182.3 193.2C182 189.3 178.5 186.4 174.6 186.7C170.7 187 167.8 190.5 168.1 194.4C168.4 198.4 171.9 201.3 175.8 200.9Z" fill="url(#paint16_linear)"/>
<path d="M174.3 197.7C174.2 197.7 174.1 197.7 174 197.7C173.9 197.7 173.8 197.6 173.7 197.5L170.1 194.4C169.9 194.3 169.8 194 169.8 193.8C169.8 193.6 169.9 193.4 170 193.2C170.1 193 170.4 192.9 170.6 192.9C170.8 192.9 171 192.9 171.2 193.1L174.2 195.6L178.9 190.1C179 189.9 179.3 189.8 179.5 189.8C179.7 189.8 180 189.9 180.1 190C180.3 190.1 180.4 190.4 180.4 190.6C180.4 190.8 180.3 191.1 180.2 191.2L175 197.4C174.9 197.5 174.8 197.6 174.7 197.6C174.5 197.6 174.4 197.7 174.3 197.7Z" fill="url(#paint17_linear)"/>
<path d="M177.2 217.8C181.1 217.5 184 214 183.7 210.1C183.4 206.2 179.9 203.3 176 203.6C172.1 203.9 169.2 207.4 169.5 211.3C169.9 215.3 173.3 218.2 177.2 217.8Z" fill="url(#paint18_linear)"/>
<path d="M175.7 214.6C175.6 214.6 175.5 214.6 175.4 214.6C175.3 214.6 175.2 214.5 175.1 214.4L171.5 211.3C171.3 211.2 171.2 210.9 171.2 210.7C171.2 210.5 171.3 210.3 171.4 210.1C171.5 209.9 171.8 209.8 172 209.8C172.2 209.8 172.4 209.9 172.6 210L175.6 212.5L180.3 207C180.4 206.9 180.5 206.8 180.6 206.8C180.7 206.7 180.8 206.7 180.9 206.7C181 206.7 181.1 206.7 181.2 206.7C181.3 206.7 181.4 206.8 181.5 206.9C181.6 207 181.7 207.1 181.7 207.2C181.8 207.3 181.8 207.4 181.8 207.5C181.8 207.6 181.8 207.7 181.8 207.8C181.8 207.9 181.7 208 181.6 208.1L176.4 214.3C176.3 214.4 176.2 214.5 176.1 214.5C176 214.5 175.8 214.6 175.7 214.6Z" fill="url(#paint19_linear)"/>
<path d="M307.7 183.7L210.3 191.9C210 191.9 209.7 191.8 209.5 191.6C209.3 191.4 209.1 191.2 209.1 190.9C209.1 190.6 209.2 190.3 209.3 190.1C209.5 189.9 209.7 189.7 210 189.7L307.4 181.5C307.7 181.5 308 181.6 308.2 181.8C308.4 182 308.6 182.2 308.6 182.5C308.6 182.8 308.5 183.1 308.4 183.3C308.2 183.6 307.9 183.7 307.7 183.7Z" fill="url(#paint20_linear)"/>
<path d="M309.1 200.7L211.7 208.9C211.4 208.9 211.1 208.8 210.9 208.6C210.7 208.4 210.5 208.2 210.5 207.9C210.5 207.6 210.6 207.3 210.7 207.1C210.9 206.9 211.1 206.7 211.4 206.7L308.8 198.5C309.1 198.5 309.4 198.6 309.6 198.8C309.8 199 310 199.2 310 199.5C310 199.8 309.9 200.1 309.8 200.3C309.6 200.5 309.4 200.6 309.1 200.7Z" fill="url(#paint21_linear)"/>
<path d="M180 250.6C183.9 250.3 186.8 246.8 186.5 242.9C186.2 239 182.7 236.1 178.8 236.4C174.9 236.7 172 240.2 172.3 244.1C172.6 248 176.1 250.9 180 250.6Z" fill="url(#paint22_linear)"/>
<path d="M156.6 235.9L129.4 238.2C127 238.4 125.2 240.5 125.4 242.9L127.7 270.1C127.9 272.5 130 274.3 132.4 274.1L159.6 271.8C162 271.6 163.8 269.5 163.6 267.1L161.3 239.9C161.1 237.5 159 235.7 156.6 235.9Z" fill="url(#paint23_linear)"/>
<path d="M178.5 247.3C178.4 247.3 178.3 247.3 178.2 247.3C178.1 247.3 178 247.2 177.9 247.1L174.3 244C174.1 243.9 174 243.6 174 243.4C174 243.2 174.1 242.9 174.2 242.8C174.3 242.7 174.6 242.5 174.8 242.5C175 242.5 175.2 242.6 175.4 242.7L178.4 245.2L183.1 239.7C183.2 239.6 183.3 239.5 183.4 239.5C183.5 239.4 183.6 239.4 183.7 239.4C183.8 239.4 183.9 239.4 184 239.4C184.1 239.4 184.2 239.5 184.3 239.6C184.4 239.7 184.5 239.8 184.5 239.9C184.6 240 184.6 240.1 184.6 240.2C184.6 240.3 184.6 240.4 184.6 240.5C184.6 240.6 184.5 240.7 184.4 240.8L179.2 247C179.1 247.1 179 247.2 178.9 247.2C178.7 247.3 178.6 247.3 178.5 247.3Z" fill="url(#paint24_linear)"/>
<path d="M181.4 267.5C185.3 267.2 188.2 263.7 187.9 259.8C187.6 255.9 184.1 253 180.2 253.3C176.3 253.6 173.4 257.1 173.7 261C174.1 264.9 177.5 267.8 181.4 267.5Z" fill="url(#paint25_linear)"/>
<path d="M179.9 264.2C179.8 264.2 179.7 264.2 179.6 264.2C179.5 264.2 179.4 264.1 179.3 264L175.7 260.9C175.5 260.8 175.4 260.5 175.4 260.3C175.4 260.1 175.5 259.9 175.6 259.7C175.7 259.5 176 259.4 176.2 259.4C176.4 259.4 176.6 259.5 176.8 259.6L179.8 262.1L184.5 256.6C184.6 256.5 184.7 256.4 184.8 256.4C184.9 256.3 185 256.3 185.1 256.3C185.2 256.3 185.3 256.3 185.4 256.3C185.5 256.3 185.6 256.4 185.7 256.5C185.8 256.6 185.9 256.7 185.9 256.8C186 256.9 186 257 186 257.1C186 257.2 186 257.3 186 257.4C186 257.5 185.9 257.6 185.8 257.7L180.6 263.9C180.5 264 180.4 264.1 180.3 264.1C180.2 264.2 180 264.2 179.9 264.2Z" fill="url(#paint26_linear)"/>
<path d="M311.9 233.4L214.5 241.6C214.2 241.6 213.9 241.5 213.7 241.3C213.5 241.1 213.3 240.9 213.3 240.6C213.3 240.3 213.4 240 213.5 239.8C213.7 239.6 213.9 239.4 214.2 239.4L311.6 231.2C311.9 231.2 312.2 231.3 312.4 231.5C312.6 231.7 312.8 231.9 312.8 232.2C312.8 232.5 312.7 232.8 312.6 233C312.4 233.2 312.1 233.4 311.9 233.4Z" fill="url(#paint27_linear)"/>
<path d="M313.3 250.3L215.9 258.5C215.6 258.5 215.3 258.4 215.1 258.2C214.9 258 214.7 257.8 214.7 257.5C214.7 257.2 214.8 256.9 214.9 256.7C215.1 256.5 215.3 256.3 215.6 256.3L313 248.1C313.3 248.1 313.6 248.2 313.8 248.4C314 248.6 314.2 248.8 314.2 249.1C314.2 249.4 314.1 249.7 314 249.9C313.8 250.2 313.6 250.3 313.3 250.3Z" fill="url(#paint28_linear)"/>
<path d="M184.2 300.3C188.1 300 191 296.5 190.7 292.6C190.4 288.7 186.9 285.8 183 286.1C179.1 286.4 176.2 289.9 176.5 293.8C176.8 297.7 180.3 300.6 184.2 300.3Z" fill="url(#paint29_linear)"/>
<path d="M160.8 285.6L133.6 287.9C131.2 288.1 129.4 290.2 129.6 292.6L131.9 319.8C132.1 322.2 134.2 324 136.6 323.8L163.8 321.5C166.2 321.3 168 319.2 167.8 316.8L165.5 289.6C165.3 287.2 163.2 285.4 160.8 285.6Z" fill="url(#paint30_linear)"/>
<path d="M182.7 297C182.6 297 182.5 297 182.4 297C182.3 297 182.2 296.9 182.1 296.8L178.5 293.7C178.3 293.6 178.2 293.3 178.2 293.1C178.2 292.9 178.3 292.7 178.4 292.5C178.5 292.3 178.8 292.2 179 292.2C179.2 292.2 179.4 292.3 179.6 292.4L182.6 294.9L187.3 289.4C187.4 289.3 187.5 289.2 187.6 289.2C187.7 289.1 187.8 289.1 187.9 289.1C188 289.1 188.1 289.1 188.2 289.1C188.3 289.1 188.4 289.2 188.5 289.3C188.6 289.4 188.7 289.5 188.7 289.6C188.8 289.7 188.8 289.8 188.8 289.9C188.8 290 188.8 290.1 188.8 290.2C188.8 290.3 188.7 290.4 188.6 290.5L183.4 296.7C183.3 296.8 183.2 296.9 183.1 296.9C182.9 297 182.8 297 182.7 297Z" fill="url(#paint31_linear)"/>
<path d="M185.6 317.2C189.5 316.9 192.4 313.4 192.1 309.5C191.8 305.6 188.3 302.7 184.4 303C180.5 303.3 177.6 306.8 177.9 310.7C178.3 314.6 181.7 317.5 185.6 317.2Z" fill="url(#paint32_linear)"/>
<path d="M184.1 313.9C184 313.9 183.9 313.9 183.8 313.9C183.7 313.9 183.6 313.8 183.5 313.7L179.9 310.6C179.7 310.5 179.6 310.2 179.6 310C179.6 309.8 179.7 309.6 179.8 309.4C179.9 309.2 180.2 309.1 180.4 309.1C180.6 309.1 180.8 309.2 181 309.3L184 311.8L188.7 306.3C188.8 306.2 188.9 306.1 189 306.1C189.1 306 189.2 306 189.3 306C189.4 306 189.5 306 189.6 306C189.7 306 189.8 306.1 189.9 306.2C190 306.3 190.1 306.4 190.1 306.5C190.2 306.6 190.2 306.7 190.2 306.8C190.2 306.9 190.2 307 190.2 307.1C190.2 307.2 190.1 307.3 190 307.4L184.8 313.6C184.7 313.7 184.6 313.8 184.5 313.8C184.4 313.9 184.2 313.9 184.1 313.9Z" fill="url(#paint33_linear)"/>
<path d="M316.1 283.1L218.7 291.3C218.4 291.3 218.1 291.2 217.9 291C217.7 290.8 217.5 290.6 217.5 290.3C217.5 290 217.6 289.7 217.7 289.5C217.9 289.3 218.1 289.1 218.4 289.1L315.8 280.9C316.1 280.9 316.4 281 316.6 281.2C316.8 281.4 317 281.6 317 281.9C317 282.2 316.9 282.5 316.8 282.7C316.6 282.9 316.3 283.1 316.1 283.1Z" fill="url(#paint34_linear)"/>
<path d="M317.5 300L220.1 308.2C219.8 308.2 219.5 308.1 219.3 307.9C219.1 307.7 218.9 307.5 218.9 307.2C218.9 306.9 219 306.6 219.1 306.4C219.3 306.2 219.5 306 219.8 306L317.2 297.8C317.5 297.8 317.8 297.9 318 298.1C318.2 298.3 318.4 298.5 318.4 298.8C318.4 299.1 318.3 299.4 318.2 299.6C318 299.8 317.8 300 317.5 300Z" fill="url(#paint35_linear)"/>
<path d="M188.4 350C192.3 349.7 195.2 346.2 194.9 342.3C194.6 338.4 191.1 335.5 187.2 335.8C183.3 336.1 180.4 339.6 180.7 343.5C181 347.4 184.5 350.3 188.4 350Z" fill="url(#paint36_linear)"/>
<path d="M165 335.3L137.8 337.6C135.4 337.8 133.6 339.9 133.8 342.3L136.1 369.5C136.3 371.9 138.4 373.7 140.8 373.5L168 371.2C170.4 371 172.2 368.9 172 366.5L169.7 339.3C169.5 336.8 167.4 335.1 165 335.3Z" fill="url(#paint37_linear)"/>
<path d="M186.9 346.7C186.8 346.7 186.7 346.7 186.6 346.7C186.5 346.7 186.4 346.6 186.3 346.5L182.7 343.4C182.5 343.3 182.4 343 182.4 342.8C182.4 342.6 182.5 342.4 182.6 342.2C182.7 342 183 341.9 183.2 341.9C183.4 341.9 183.6 341.9 183.8 342.1L186.8 344.6L191.5 339.1C191.6 339 191.7 338.9 191.8 338.9C191.9 338.8 192 338.8 192.1 338.8C192.2 338.8 192.3 338.8 192.4 338.8C192.5 338.8 192.6 338.9 192.7 339C192.8 339.1 192.9 339.2 192.9 339.3C193 339.4 193 339.5 193 339.6C193 339.7 193 339.8 193 339.9C193 340 192.9 340.1 192.8 340.2L187.6 346.4C187.5 346.5 187.4 346.6 187.3 346.6C187.1 346.6 187 346.7 186.9 346.7Z" fill="url(#paint38_linear)"/>
<path d="M196.3 360.3C196.6 356.4 193.6 353 189.7 352.7C185.8 352.4 182.4 355.4 182.1 359.3C181.8 363.2 184.8 366.6 188.7 366.9C192.6 367.1 196 364.2 196.3 360.3Z" fill="url(#paint39_linear)"/>
<path d="M188.3 363.6C188.2 363.6 188.1 363.6 188 363.6C187.9 363.6 187.8 363.5 187.7 363.4L184.1 360.3C183.9 360.2 183.8 359.9 183.8 359.7C183.8 359.5 183.9 359.3 184 359.1C184.1 358.9 184.4 358.8 184.6 358.8C184.8 358.8 185 358.8 185.2 359L188.2 361.5L192.9 356C193 355.8 193.3 355.7 193.5 355.7C193.7 355.7 194 355.8 194.1 355.9C194.2 356 194.4 356.3 194.4 356.5C194.4 356.7 194.4 357 194.2 357.1L189 363.3C188.9 363.4 188.8 363.5 188.7 363.5C188.6 363.5 188.4 363.6 188.3 363.6Z" fill="url(#paint40_linear)"/>
<path d="M320.3 332.8L222.9 341C222.6 341 222.3 340.9 222.1 340.7C221.9 340.5 221.7 340.3 221.7 340C221.7 339.7 221.8 339.4 221.9 339.2C222.1 339 222.3 338.8 222.6 338.8L320 330.6C320.3 330.6 320.6 330.7 320.8 330.9C321 331.1 321.2 331.3 321.2 331.6C321.2 331.9 321.1 332.2 321 332.4C320.9 332.6 320.5 332.7 320.3 332.8Z" fill="url(#paint41_linear)"/>
<path d="M321.7 349.7L224.3 357.9C224 357.9 223.7 357.8 223.5 357.6C223.3 357.4 223.1 357.1 223.1 356.9C223.1 356.6 223.2 356.3 223.4 356.1C223.6 355.9 223.9 355.7 224.1 355.7L321.5 347.5C321.8 347.5 322.1 347.6 322.3 347.8C322.5 348 322.7 348.3 322.7 348.5C322.7 348.8 322.6 349.1 322.4 349.3C322.2 349.5 322 349.6 321.7 349.7Z" fill="url(#paint42_linear)"/>
<path d="M148.5 86.3L260.1 76.9L261.9 98.4C262.1 100.5 261.4 102.6 260 104.3C258.6 105.9 256.7 106.9 254.5 107.1L158.9 115.2C156.8 115.4 154.7 114.7 153 113.3C151.4 111.9 150.4 110 150.2 107.8L148.5 86.3Z" fill="url(#paint43_linear)"/>
<path d="M340.5 347C340.5 347 341.5 365.1 336.2 378.4C333.4 385.6 321.3 389 310.8 390.6L294.6 392C306.3 391 317.3 386 325.6 377.8C334.1 369.5 339.3 358.6 340.5 347Z" fill="url(#paint44_linear)"/>
<path d="M576.1 81.4L552.1 417.7C552 418.4 551.9 419.2 551.5 419.8C551.2 420.5 550.7 421 550.2 421.5C549.6 422 549 422.4 548.3 422.6C547.6 422.8 546.9 422.9 546.1 422.9L307.8 405.9C306.3 405.8 304.9 405.1 304 404C303 402.9 302.5 401.4 302.6 399.9L326.6 63.6C326.7 62.1 327.4 60.7 328.5 59.8C329.6 58.8 331.1 58.3 332.6 58.4L570.9 75.4C571.6 75.5 572.4 75.6 573 76C573.6 76.4 574.2 76.8 574.7 77.3C575.2 77.9 575.6 78.5 575.8 79.2C576.1 80 576.2 80.7 576.1 81.4Z" fill="#E6E7E8"/>
<path d="M576.1 81.4L574.5 103.5L325 85.7L326.6 63.6C326.7 62.1 327.4 60.7 328.5 59.8C329.6 58.8 331.1 58.3 332.6 58.4L570.9 75.4C571.6 75.5 572.4 75.6 573 76C573.7 76.3 574.2 76.8 574.7 77.3C575.2 77.9 575.6 78.5 575.8 79.2C576 79.9 576.2 80.7 576.1 81.4Z" fill="url(#paint45_linear)"/>
<path d="M562.3 114.4C562.4 112.8 561.2 111.5 559.7 111.4L339.5 95.7C337.9 95.6 336.6 96.8 336.5 98.3L315.9 386.4C315.8 388 317 389.3 318.5 389.4L538.7 405.2C540.3 405.3 541.6 404.1 541.7 402.6L562.3 114.4Z" fill="url(#paint46_linear)"/>
<path d="M559.6 111.6C561.2 111.7 562.3 113.1 562.2 114.6L545.2 352.6C545.1 354.2 544.8 356.7 544.5 358.2L540.8 371.6C540.2 373.1 539.1 375.3 538.3 376.6L529.8 387.6C528.7 388.7 526.8 390.4 525.5 391.3L513.5 398.2C512.1 398.8 509.7 399.6 508.1 400L494.3 401.7C492.7 401.7 490.2 401.7 488.6 401.6L318.5 389.5C316.9 389.4 315.8 388 315.9 386.5L336.4 98.5C336.5 96.9 337.9 95.8 339.4 95.9L559.6 111.6Z" fill="url(#paint47_linear)"/>
<path d="M384.7 376.8C384.7 376.8 360.4 386.5 347.4 390.1L334.2 388.9C328.6 386.7 320 383.5 313 380.5L325.4 249.8C325.4 249.8 322.8 313.9 329.7 342.8C336.5 371.7 384.7 376.8 384.7 376.8Z" fill="url(#paint48_linear)"/>
<path d="M544.4 364.5C541.4 375.8 534.6 385.8 525.1 392.6C515.6 399.4 503.9 402.7 492.2 401.8L315.9 389.2C301.2 388.2 283.9 367.1 276 356.3C290.4 365.4 289.9 366 317.1 371.2H317.2C317.2 371.2 348.4 375 387.9 377.5C446.5 381.4 523.6 382.5 544.4 364.5Z" fill="url(#paint49_linear)"/>
<path d="M410 144.6C413.9 145 417.4 142.1 417.7 138.2C418.1 134.3 415.2 130.8 411.3 130.5C407.4 130.1 403.9 133 403.6 136.9C403.3 140.8 406.1 144.3 410 144.6Z" fill="url(#paint50_linear)"/>
<path d="M389.6 126L362.4 123.4C360 123.2 357.9 124.9 357.7 127.3L355.1 154.5C354.9 156.9 356.6 159 359 159.2L386.2 161.8C388.6 162 390.7 160.3 390.9 157.9L393.5 130.7C393.7 128.3 392 126.2 389.6 126Z" fill="url(#paint51_linear)"/>
<path d="M409.2 141.2C409.1 141.2 409 141.2 408.9 141.1C408.8 141 408.7 141 408.6 140.9L405.6 137.2C405.5 137 405.4 136.8 405.4 136.6C405.4 136.4 405.5 136.2 405.7 136C405.9 135.9 406.1 135.8 406.3 135.8C406.5 135.8 406.7 135.9 406.9 136.1L409.4 139.1L415 134.5C415.2 134.4 415.4 134.3 415.6 134.3C415.8 134.3 416 134.4 416.2 134.6C416.3 134.8 416.4 135 416.4 135.2C416.4 135.4 416.3 135.6 416.1 135.8L409.9 141C409.8 141.1 409.7 141.1 409.6 141.2C409.4 141.2 409.3 141.2 409.2 141.2Z" fill="url(#paint52_linear)"/>
<path d="M408.4 161.5C412.3 161.9 415.8 159 416.1 155.1C416.5 151.2 413.6 147.7 409.7 147.4C405.8 147 402.3 149.9 402 153.8C401.7 157.7 404.5 161.2 408.4 161.5Z" fill="url(#paint53_linear)"/>
<path d="M407.6 158C407.5 158 407.4 158 407.3 157.9C407.2 157.8 407.1 157.8 407 157.7L404 154C403.9 153.8 403.8 153.6 403.8 153.4C403.8 153.2 403.9 153 404.1 152.8C404.3 152.7 404.5 152.6 404.7 152.6C404.9 152.6 405.1 152.7 405.3 152.9L407.8 155.9L413.4 151.3C413.6 151.2 413.8 151.1 414 151.1C414.2 151.1 414.4 151.2 414.6 151.4C414.7 151.6 414.8 151.8 414.8 152C414.8 152.2 414.7 152.4 414.5 152.6L408.3 157.8C408.2 157.9 408.1 157.9 408 158C407.8 158 407.7 158.1 407.6 158Z" fill="url(#paint54_linear)"/>
<path d="M540.8 148.4L443.3 141.4C443 141.4 442.7 141.2 442.6 141C442.4 140.8 442.3 140.5 442.3 140.2C442.3 139.9 442.5 139.6 442.7 139.5C442.9 139.3 443.2 139.2 443.5 139.2L541 146.2C541.3 146.2 541.6 146.4 541.7 146.6C541.9 146.8 542 147.1 542 147.4C542 147.7 541.8 148 541.6 148.1C541.4 148.4 541.1 148.5 540.8 148.4Z" fill="url(#paint55_linear)"/>
<path d="M539.6 165.4L442.1 158.4C441.8 158.4 441.6 158.2 441.4 158C441.2 157.8 441.1 157.5 441.1 157.2C441.1 156.9 441.3 156.7 441.5 156.5C441.7 156.3 442 156.2 442.3 156.2L539.8 163.2C540.1 163.2 540.3 163.4 540.5 163.6C540.7 163.8 540.8 164.1 540.8 164.4C540.8 164.7 540.6 164.9 540.4 165.1C540.2 165.3 539.9 165.4 539.6 165.4Z" fill="url(#paint56_linear)"/>
<path d="M405.3 194.3C409.2 194.7 412.7 191.8 413 187.9C413.4 184 410.5 180.5 406.6 180.2C402.7 179.8 399.2 182.7 398.9 186.6C398.6 190.4 401.4 193.9 405.3 194.3Z" fill="url(#paint57_linear)"/>
<path d="M404.5 190.8C404.4 190.8 404.3 190.8 404.2 190.7C404.1 190.6 404 190.6 403.9 190.5L400.9 186.8C400.8 186.6 400.7 186.4 400.7 186.2C400.7 186 400.8 185.8 401 185.6C401.2 185.5 401.4 185.4 401.6 185.4C401.8 185.4 402 185.5 402.2 185.7L404.7 188.7L410.3 184.1C410.5 184 410.7 183.9 410.9 183.9C411.1 183.9 411.3 184 411.5 184.2C411.6 184.4 411.7 184.6 411.7 184.8C411.7 185 411.6 185.2 411.4 185.4L405.2 190.6C405.1 190.7 405 190.7 404.9 190.8C404.7 190.8 404.6 190.8 404.5 190.8Z" fill="url(#paint58_linear)"/>
<path d="M403.7 211.1C407.6 211.5 411.1 208.6 411.4 204.7C411.7 200.8 408.9 197.3 405 197C401.1 196.6 397.6 199.5 397.3 203.4C397 207.3 399.8 210.8 403.7 211.1Z" fill="url(#paint59_linear)"/>
<path d="M402.9 207.7C402.8 207.7 402.7 207.7 402.6 207.6C402.5 207.5 402.4 207.5 402.3 207.4L399.3 203.7C399.2 203.5 399.1 203.3 399.1 203.1C399.1 202.9 399.2 202.7 399.4 202.5C399.6 202.4 399.8 202.3 400 202.3C400.2 202.3 400.4 202.4 400.6 202.6L403.1 205.6L408.7 201C408.8 200.9 408.9 200.9 409 200.8C409.1 200.8 409.2 200.8 409.3 200.8C409.4 200.8 409.5 200.8 409.6 200.9C409.7 201 409.8 201 409.9 201.1C410 201.2 410 201.3 410.1 201.4C410.1 201.5 410.1 201.6 410.1 201.7C410.1 201.8 410.1 201.9 410 202C409.9 202.1 409.9 202.2 409.8 202.3L403.6 207.5C403.5 207.6 403.4 207.6 403.3 207.7C403.1 207.7 403 207.7 402.9 207.7Z" fill="url(#paint60_linear)"/>
<path d="M537.3 198.2L439.8 191.2C439.5 191.2 439.3 191 439.1 190.8C438.9 190.6 438.8 190.3 438.8 190C438.8 189.7 439 189.5 439.2 189.3C439.4 189.1 439.7 189 440 189L537.5 196C537.8 196 538 196.2 538.2 196.4C538.4 196.6 538.5 196.9 538.5 197.2C538.5 197.5 538.3 197.7 538.1 197.9C537.8 198.1 537.5 198.2 537.3 198.2Z" fill="url(#paint61_linear)"/>
<path d="M536 215.1L438.5 208.1C438.2 208.1 438 207.9 437.8 207.7C437.6 207.5 437.5 207.2 437.5 206.9C437.5 206.6 437.7 206.3 437.9 206.2C438.1 206 438.4 205.9 438.7 205.9L536.2 212.9C536.5 212.9 536.7 213.1 536.9 213.3C537.1 213.5 537.2 213.8 537.2 214.1C537.2 214.4 537 214.6 536.8 214.8C536.6 215 536.3 215.1 536 215.1Z" fill="url(#paint62_linear)"/>
<path d="M400.6 243.9C404.5 244.3 408 241.4 408.3 237.5C408.7 233.6 405.8 230.1 401.9 229.8C398 229.4 394.5 232.3 394.2 236.2C393.9 240 396.7 243.5 400.6 243.9Z" fill="url(#paint63_linear)"/>
<path d="M380.2 225.3L353 222.7C350.6 222.5 348.5 224.2 348.3 226.6L345.7 253.8C345.5 256.2 347.2 258.3 349.6 258.5L376.8 261.1C379.2 261.3 381.3 259.6 381.5 257.2L384.1 230C384.4 227.6 382.6 225.5 380.2 225.3Z" fill="url(#paint64_linear)"/>
<path d="M399.8 240.4C399.7 240.4 399.6 240.4 399.5 240.3C399.4 240.2 399.3 240.2 399.2 240.1L396.2 236.4C396.1 236.2 396 236 396 235.8C396 235.6 396.1 235.4 396.3 235.2C396.5 235.1 396.7 235 396.9 235C397.1 235 397.3 235.1 397.5 235.3L400 238.3L405.6 233.7C405.7 233.6 405.8 233.6 405.9 233.5C406 233.5 406.1 233.5 406.2 233.5C406.3 233.5 406.4 233.5 406.5 233.6C406.6 233.7 406.7 233.7 406.8 233.8C406.9 233.9 406.9 234 407 234.1C407 234.2 407 234.3 407 234.4C407 234.5 407 234.6 406.9 234.7C406.8 234.8 406.8 234.9 406.7 235L400.5 240.2C400.4 240.3 400.3 240.3 400.2 240.4C400 240.4 399.9 240.4 399.8 240.4Z" fill="url(#paint65_linear)"/>
<path d="M399.1 260.8C403 261.2 406.5 258.3 406.8 254.4C407.2 250.5 404.3 247 400.4 246.7C396.5 246.3 393 249.2 392.7 253.1C392.3 256.9 395.1 260.4 399.1 260.8Z" fill="url(#paint66_linear)"/>
<path d="M398.2 257.3C398.1 257.3 398 257.3 397.9 257.2C397.8 257.1 397.7 257.1 397.6 257L394.6 253.3C394.5 253.1 394.4 252.9 394.4 252.7C394.4 252.5 394.5 252.3 394.7 252.1C394.9 251.9 395.1 251.9 395.3 251.9C395.5 251.9 395.7 252 395.9 252.2L398.4 255.2L404 250.6C404.1 250.5 404.2 250.5 404.3 250.4C404.4 250.4 404.5 250.4 404.6 250.4C404.7 250.4 404.8 250.4 404.9 250.5C405 250.6 405.1 250.6 405.2 250.7C405.3 250.8 405.3 250.9 405.4 251C405.4 251.1 405.4 251.2 405.4 251.3C405.4 251.4 405.4 251.5 405.3 251.6C405.2 251.7 405.2 251.8 405.1 251.9L398.9 257.1C398.8 257.2 398.7 257.2 398.6 257.3C398.4 257.3 398.3 257.3 398.2 257.3Z" fill="url(#paint67_linear)"/>
<path d="M533.7 247.9L436.2 240.9C435.9 240.9 435.7 240.7 435.5 240.5C435.3 240.3 435.2 240 435.2 239.7C435.2 239.4 435.4 239.2 435.6 239C435.8 238.8 436.1 238.7 436.4 238.7L533.9 245.7C534.2 245.7 534.4 245.9 534.6 246.1C534.8 246.3 534.9 246.6 534.9 246.9C534.9 247.2 534.7 247.4 534.5 247.6C534.3 247.8 534 247.9 533.7 247.9Z" fill="url(#paint68_linear)"/>
<path d="M532.5 264.8L435 257.8C434.7 257.8 434.5 257.6 434.3 257.4C434.1 257.2 434 256.9 434 256.6C434 256.3 434.2 256.1 434.4 255.9C434.6 255.7 434.9 255.6 435.2 255.6L532.7 262.6C533 262.6 533.2 262.8 533.4 263C533.6 263.2 533.7 263.5 533.7 263.8C533.7 264.1 533.5 264.3 533.3 264.5C533.1 264.7 532.8 264.8 532.5 264.8Z" fill="url(#paint69_linear)"/>
<path d="M396 293.5C399.9 293.9 403.4 291 403.7 287.1C404.1 283.2 401.2 279.7 397.3 279.4C393.4 279 389.9 281.9 389.6 285.8C389.2 289.7 392 293.1 396 293.5Z" fill="url(#paint70_linear)"/>
<path d="M375.5 274.9L348.3 272.3C345.9 272.1 343.8 273.8 343.6 276.2L341 303.4C340.8 305.8 342.5 307.9 344.9 308.1L372.1 310.7C374.5 310.9 376.6 309.2 376.8 306.8L379.4 279.6C379.7 277.2 377.9 275.1 375.5 274.9Z" fill="url(#paint71_linear)"/>
<path d="M395.1 290C395 290 394.9 290 394.8 289.9C394.7 289.8 394.6 289.8 394.5 289.7L391.5 286C391.4 285.8 391.3 285.6 391.3 285.4C391.3 285.2 391.4 285 391.6 284.8C391.8 284.7 392 284.6 392.2 284.6C392.4 284.6 392.6 284.7 392.8 284.9L395.3 287.9L400.9 283.3C401 283.2 401.1 283.2 401.2 283.1C401.3 283.1 401.4 283.1 401.5 283.1C401.6 283.1 401.7 283.1 401.8 283.2C401.9 283.3 402 283.3 402.1 283.4C402.2 283.5 402.2 283.6 402.3 283.7C402.3 283.8 402.3 283.9 402.3 284C402.3 284.1 402.3 284.2 402.2 284.3C402.1 284.4 402.1 284.5 402 284.6L395.8 289.8C395.7 289.9 395.6 289.9 395.5 290C395.3 290 395.2 290 395.1 290Z" fill="url(#paint72_linear)"/>
<path d="M394.4 310.4C398.3 310.8 401.8 307.9 402.1 304C402.5 300.1 399.6 296.6 395.7 296.3C391.8 295.9 388.3 298.8 388 302.7C387.6 306.6 390.5 310 394.4 310.4Z" fill="url(#paint73_linear)"/>
<path d="M393.5 306.9C393.4 306.9 393.3 306.9 393.2 306.8C393.1 306.7 393 306.7 392.9 306.6L389.9 302.9C389.8 302.7 389.7 302.5 389.7 302.3C389.7 302.1 389.8 301.9 390 301.7C390.2 301.6 390.4 301.5 390.6 301.5C390.8 301.5 391 301.6 391.2 301.8L393.7 304.8L399.3 300.2C399.4 300.1 399.5 300.1 399.6 300C399.7 300 399.8 300 399.9 300C400 300 400.1 300 400.2 300.1C400.3 300.2 400.4 300.2 400.5 300.3C400.6 300.4 400.6 300.5 400.7 300.6C400.7 300.7 400.7 300.8 400.7 300.9C400.7 301 400.7 301.1 400.6 301.2C400.5 301.3 400.5 301.4 400.4 301.5L394.2 306.7C394.1 306.8 394 306.8 393.9 306.9C393.7 306.9 393.6 306.9 393.5 306.9Z" fill="url(#paint74_linear)"/>
<path d="M530.2 297.6L432.7 290.6C432.4 290.6 432.2 290.4 432 290.2C431.8 290 431.7 289.7 431.7 289.4C431.7 289.1 431.9 288.9 432.1 288.7C432.3 288.5 432.6 288.4 432.9 288.4L530.4 295.4C530.7 295.4 530.9 295.6 531.1 295.8C531.3 296 531.4 296.3 531.4 296.6C531.4 296.9 531.2 297.1 531 297.3C530.7 297.5 530.4 297.6 530.2 297.6Z" fill="url(#paint75_linear)"/>
<path d="M529 314.5L431.5 307.5C431.2 307.5 431 307.3 430.8 307.1C430.6 306.9 430.5 306.6 430.5 306.3C430.5 306 430.7 305.8 430.9 305.6C431.1 305.4 431.4 305.3 431.7 305.3L529.2 312.3C529.5 312.3 529.7 312.5 529.9 312.7C530.1 312.9 530.2 313.2 530.2 313.5C530.2 313.8 530 314 529.8 314.2C529.5 314.5 529.2 314.6 529 314.5Z" fill="url(#paint76_linear)"/>
<path d="M391.3 343.1C395.2 343.5 398.7 340.6 399 336.7C399.4 332.8 396.5 329.3 392.6 329C388.7 328.6 385.2 331.5 384.9 335.4C384.5 339.3 387.4 342.8 391.3 343.1Z" fill="url(#paint77_linear)"/>
<path d="M370.8 324.5L343.6 321.9C341.2 321.7 339.1 323.4 338.9 325.8L336.3 353C336.1 355.4 337.8 357.5 340.2 357.7L367.4 360.3C369.8 360.5 371.9 358.8 372.1 356.4L374.7 329.2C375 326.9 373.2 324.7 370.8 324.5Z" fill="url(#paint78_linear)"/>
<path d="M390.4 339.7C390.3 339.7 390.2 339.7 390.1 339.6C390 339.5 389.9 339.5 389.8 339.4L386.8 335.7C386.7 335.5 386.6 335.3 386.6 335.1C386.6 334.9 386.7 334.7 386.9 334.5C387.1 334.4 387.3 334.3 387.5 334.3C387.7 334.3 387.9 334.4 388.1 334.6L390.6 337.6L396.2 333C396.3 332.9 396.4 332.9 396.5 332.8C396.6 332.8 396.7 332.8 396.8 332.8C396.9 332.8 397 332.8 397.1 332.9C397.2 333 397.3 333 397.4 333.1C397.5 333.2 397.5 333.3 397.6 333.4C397.6 333.5 397.6 333.6 397.6 333.7C397.6 333.8 397.6 333.9 397.5 334C397.4 334.1 397.4 334.2 397.3 334.3L391.1 339.5C391 339.6 390.9 339.6 390.8 339.7C390.6 339.7 390.5 339.7 390.4 339.7Z" fill="url(#paint79_linear)"/>
<path d="M397.2 354.7C398.2 350.9 395.8 347 392 346.1C388.2 345.1 384.3 347.5 383.4 351.3C382.4 355.1 384.8 359 388.6 359.9C392.4 360.8 396.3 358.5 397.2 354.7Z" fill="url(#paint80_linear)"/>
<path d="M388.8 356.6C388.7 356.6 388.6 356.6 388.5 356.5C388.4 356.4 388.3 356.4 388.2 356.3L385.2 352.6C385.1 352.4 385 352.2 385 352C385 351.8 385.1 351.6 385.3 351.4C385.5 351.3 385.7 351.2 385.9 351.2C386.1 351.2 386.3 351.3 386.5 351.5L389 354.5L394.6 349.9C394.8 349.8 395 349.7 395.2 349.7C395.4 349.7 395.6 349.8 395.8 350C395.9 350.2 396 350.4 396 350.6C396 350.8 395.9 351 395.7 351.2L389.5 356.4C389.4 356.5 389.3 356.5 389.2 356.6C389 356.6 388.9 356.6 388.8 356.6Z" fill="url(#paint81_linear)"/>
<path d="M526.6 347.3L429.1 340.3C428.8 340.3 428.6 340.1 428.4 339.9C428.2 339.7 428.1 339.4 428.1 339.1C428.1 338.8 428.3 338.6 428.5 338.4C428.7 338.2 429 338.1 429.3 338.1L526.8 345.1C527.1 345.1 527.3 345.3 527.5 345.5C527.7 345.7 527.8 346 527.8 346.3C527.8 346.6 527.6 346.8 527.4 347C527.2 347.3 526.9 347.3 526.6 347.3Z" fill="url(#paint82_linear)"/>
<path d="M525.4 364.3L427.9 357.3C427.6 357.3 427.3 357.1 427.2 356.9C427 356.7 426.9 356.4 426.9 356.1C426.9 355.8 427.1 355.5 427.3 355.4C427.5 355.2 427.8 355.1 428.1 355.1L525.6 362.1C525.9 362.1 526.2 362.3 526.3 362.5C526.5 362.7 526.6 363 526.6 363.3C526.6 363.6 526.4 363.9 526.2 364C526 364.2 525.7 364.3 525.4 364.3Z" fill="url(#paint83_linear)"/>
<path d="M395.2 77.2L507 85.2L505.5 106.7C505.3 108.8 504.4 110.8 502.7 112.2C501.1 113.6 499 114.3 496.9 114.1L401.2 107.3C399.1 107.1 397.1 106.2 395.7 104.6C394.3 103 393.6 100.9 393.8 98.8L395.2 77.2Z" fill="url(#paint84_linear)"/>
<path d="M544.4 364.5C544.4 364.5 542.6 382.5 535.3 394.9C531.4 401.6 519 403.1 508.4 403L492.2 401.8C503.9 402.6 515.5 399.4 525.1 392.6C534.6 385.8 541.5 375.8 544.4 364.5Z" fill="url(#paint85_linear)"/>
<path d="M465.2 31.4V410.3C465.2 411.1 465 412 464.7 412.7C464.4 413.5 463.9 414.2 463.3 414.8C462.7 415.4 462 415.9 461.3 416.2C460.5 416.5 459.7 416.7 458.9 416.7H190.4C188.7 416.7 187.1 416 185.9 414.8C184.7 413.6 184 412 184 410.3V31.4C184 29.7 184.7 28.1 185.9 26.9C187.1 25.7 188.7 25.1 190.4 25.1H458.9C459.7 25.1 460.5 25.3 461.3 25.6C462.1 25.9 462.8 26.4 463.3 27C463.9 27.6 464.4 28.3 464.7 29C465.1 29.8 465.2 30.6 465.2 31.4Z" fill="white"/>
<path d="M465.2 31.3V56.2H184.1V31.3C184.1 29.6 184.8 28 186 26.8C187.2 25.6 188.8 25 190.5 25H459C459.8 25 460.6 25.2 461.4 25.5C462.2 25.8 462.9 26.3 463.4 26.9C464 27.5 464.5 28.2 464.8 28.9C465.1 29.7 465.2 30.5 465.2 31.3Z" fill="url(#paint86_linear)"/>
<path d="M452.3 69.1C452.3 67.5 451 66.3 449.5 66.3H200.8C199.2 66.3 198 67.6 198 69.1V394.5C198 396.1 199.3 397.3 200.8 397.3H449.5C451.1 397.3 452.3 396 452.3 394.5V69.1Z" fill="url(#paint87_linear)"/>
<path d="M449.5 65.8C451.1 65.8 452.3 67.1 452.3 68.6V338.1C452.3 339.7 452.2 342.2 452 343.8L448.8 359.8C448.3 361.3 447.4 363.6 446.6 365L437.5 378.6C436.5 379.8 434.7 381.6 433.5 382.6L419.9 391.7C418.5 392.4 416.2 393.4 414.7 393.9L398.7 397.1C397.1 397.3 394.6 397.4 393 397.4H200.8C199.2 397.4 198 396.1 198 394.6V68.6C198 67 199.3 65.8 200.8 65.8H449.5Z" fill="url(#paint88_linear)"/>
<path d="M277.8 378.5C277.8 378.5 251.7 391.9 237.5 397.3H222.6C216.1 395.4 206.2 392.7 198 390.1V242.7C198 242.7 201.9 314.7 212.7 346.4C223.4 378 277.8 378.5 277.8 378.5Z" fill="url(#paint89_linear)"/>
<path d="M452.3 351.3C449.9 364.3 443 376 432.9 384.4C422.8 392.8 410 397.4 396.8 397.4H198.1C181.5 397.4 160.5 375.2 150.7 363.7C167.6 372.8 167 373.5 198 377.2H198.1C198.1 377.2 233.3 378.9 277.8 378.6C343.9 378.1 430.4 373.1 452.3 351.3Z" fill="url(#paint90_linear)"/>
<path d="M281.6 116.1C286 116.1 289.6 112.5 289.6 108.1C289.6 103.7 286 100.1 281.6 100.1C277.2 100.1 273.6 103.7 273.6 108.1C273.6 112.5 277.2 116.1 281.6 116.1Z" fill="url(#paint91_linear)"/>
<path d="M256.8 97.5H226.1C223.4 97.5 221.2 99.7 221.2 102.4V133.1C221.2 135.8 223.4 138 226.1 138H256.8C259.5 138 261.7 135.8 261.7 133.1V102.4C261.7 99.6 259.5 97.5 256.8 97.5Z" fill="url(#paint92_linear)"/>
<path d="M280.3 112.3C280.2 112.3 280 112.3 279.9 112.2C279.8 112.2 279.7 112.1 279.6 112L275.8 108.2C275.6 108 275.5 107.8 275.5 107.5C275.5 107.2 275.6 107 275.8 106.8C276 106.6 276.2 106.5 276.5 106.5C276.8 106.5 277 106.6 277.2 106.8L280.3 109.9L286.1 104.1C286.3 103.9 286.5 103.8 286.8 103.8C287.1 103.8 287.3 103.9 287.5 104.1C287.7 104.3 287.8 104.5 287.8 104.8C287.8 105.1 287.7 105.3 287.5 105.5L281.1 111.9C281 112 280.9 112.1 280.8 112.1C280.6 112.3 280.4 112.3 280.3 112.3Z" fill="url(#paint93_linear)"/>
<path d="M281.6 135.2C286 135.2 289.6 131.6 289.6 127.2C289.6 122.8 286 119.2 281.6 119.2C277.2 119.2 273.6 122.8 273.6 127.2C273.7 131.6 277.2 135.2 281.6 135.2Z" fill="url(#paint94_linear)"/>
<path d="M280.3 131.4C280.2 131.4 280 131.4 279.9 131.3C279.8 131.3 279.7 131.2 279.6 131.1L275.8 127.3C275.6 127.1 275.5 126.9 275.5 126.6C275.5 126.3 275.6 126.1 275.8 125.9C276 125.7 276.2 125.6 276.5 125.6C276.8 125.6 277 125.7 277.2 125.9L280.3 129L286.1 123.2C286.3 123 286.5 122.9 286.8 122.9C287.1 122.9 287.3 123 287.5 123.2C287.7 123.4 287.8 123.6 287.8 123.9C287.8 124.2 287.7 124.4 287.5 124.6L281.1 131C281 131.1 280.9 131.2 280.8 131.2C280.6 131.4 280.4 131.4 280.3 131.4Z" fill="url(#paint95_linear)"/>
<path d="M431 109.4H321.1C320.8 109.4 320.5 109.3 320.2 109C320 108.8 319.8 108.5 319.8 108.1C319.8 107.8 319.9 107.5 320.2 107.2C320.4 107 320.7 106.8 321.1 106.8H431C431.3 106.8 431.6 106.9 431.9 107.2C432.1 107.4 432.3 107.7 432.3 108.1C432.3 108.4 432.2 108.7 431.9 109C431.6 109.2 431.3 109.4 431 109.4Z" fill="url(#paint96_linear)"/>
<path d="M431 128.4H321.1C320.8 128.4 320.5 128.3 320.2 128C320 127.8 319.8 127.5 319.8 127.1C319.8 126.8 319.9 126.5 320.2 126.2C320.4 126 320.7 125.8 321.1 125.8H431C431.3 125.8 431.6 125.9 431.9 126.2C432.1 126.4 432.3 126.7 432.3 127.1C432.3 127.4 432.2 127.7 431.9 128C431.6 128.3 431.3 128.4 431 128.4Z" fill="url(#paint97_linear)"/>
<path d="M281.6 172.2C286 172.2 289.6 168.6 289.6 164.2C289.6 159.8 286 156.2 281.6 156.2C277.2 156.2 273.6 159.8 273.6 164.2C273.6 168.6 277.2 172.2 281.6 172.2Z" fill="url(#paint98_linear)"/>
<path d="M280.3 168.4C280.2 168.4 280 168.4 279.9 168.3C279.8 168.3 279.7 168.2 279.6 168.1L275.8 164.3C275.6 164.1 275.5 163.9 275.5 163.6C275.5 163.3 275.6 163.1 275.8 162.9C276 162.7 276.2 162.6 276.5 162.6C276.8 162.6 277 162.7 277.2 162.9L280.3 166L286.1 160.2C286.3 160 286.5 159.9 286.8 159.9C287.1 159.9 287.3 160 287.5 160.2C287.7 160.4 287.8 160.6 287.8 160.9C287.8 161.2 287.7 161.4 287.5 161.6L281.1 168C281 168.1 280.9 168.2 280.8 168.2C280.6 168.3 280.4 168.4 280.3 168.4Z" fill="url(#paint99_linear)"/>
<path d="M281.6 191.2C286 191.2 289.6 187.6 289.6 183.2C289.6 178.8 286 175.2 281.6 175.2C277.2 175.2 273.6 178.8 273.6 183.2C273.6 187.6 277.2 191.2 281.6 191.2Z" fill="url(#paint100_linear)"/>
<path d="M280.3 187.4C280.2 187.4 280 187.4 279.9 187.3C279.8 187.3 279.7 187.2 279.6 187.1L275.8 183.3C275.6 183.1 275.5 182.9 275.5 182.6C275.5 182.3 275.6 182.1 275.8 181.9C276 181.7 276.2 181.6 276.5 181.6C276.8 181.6 277 181.7 277.2 181.9L280.3 185L286.1 179.2C286.2 179.1 286.3 179 286.4 179C286.5 179 286.6 178.9 286.8 178.9C286.9 178.9 287.1 178.9 287.2 179C287.3 179 287.4 179.1 287.5 179.2C287.6 179.3 287.7 179.4 287.7 179.5C287.7 179.6 287.8 179.7 287.8 179.9C287.8 180 287.8 180.2 287.7 180.3C287.7 180.4 287.6 180.5 287.5 180.6L281.1 187C281 187.1 280.9 187.2 280.8 187.2C280.6 187.4 280.4 187.4 280.3 187.4Z" fill="url(#paint101_linear)"/>
<path d="M431 165.4H321.1C320.8 165.4 320.5 165.3 320.2 165C320 164.8 319.8 164.5 319.8 164.1C319.8 163.8 319.9 163.5 320.2 163.2C320.4 163 320.7 162.8 321.1 162.8H431C431.3 162.8 431.6 162.9 431.9 163.2C432.1 163.4 432.3 163.7 432.3 164.1C432.3 164.4 432.2 164.7 431.9 165C431.6 165.3 431.3 165.4 431 165.4Z" fill="url(#paint102_linear)"/>
<path d="M431 184.5H321.1C320.8 184.5 320.5 184.4 320.2 184.1C320 183.9 319.8 183.6 319.8 183.2C319.8 182.9 319.9 182.6 320.2 182.3C320.4 182.1 320.7 181.9 321.1 181.9H431C431.3 181.9 431.6 182 431.9 182.3C432.1 182.5 432.3 182.8 432.3 183.2C432.3 183.5 432.2 183.8 431.9 184.1C431.6 184.3 431.3 184.5 431 184.5Z" fill="url(#paint103_linear)"/>
<path d="M281.6 228.2C286 228.2 289.6 224.6 289.6 220.2C289.6 215.8 286 212.2 281.6 212.2C277.2 212.2 273.6 215.8 273.6 220.2C273.7 224.6 277.2 228.2 281.6 228.2Z" fill="url(#paint104_linear)"/>
<path d="M256.8 209.5H226.1C223.4 209.5 221.2 211.7 221.2 214.4V245.1C221.2 247.8 223.4 250 226.1 250H256.8C259.5 250 261.7 247.8 261.7 245.1V214.4C261.7 211.7 259.5 209.5 256.8 209.5Z" fill="url(#paint105_linear)"/>
<path d="M280.3 224.4C280.2 224.4 280 224.4 279.9 224.3C279.8 224.3 279.7 224.2 279.6 224.1L275.8 220.3C275.6 220.1 275.5 219.9 275.5 219.6C275.5 219.3 275.6 219.1 275.8 218.9C276 218.7 276.2 218.6 276.5 218.6C276.8 218.6 277 218.7 277.2 218.9L280.3 222L286.1 216.2C286.2 216.1 286.3 216 286.4 216C286.5 215.9 286.6 215.9 286.8 215.9C286.9 215.9 287.1 215.9 287.2 216C287.3 216 287.4 216.1 287.5 216.2C287.6 216.3 287.7 216.4 287.7 216.5C287.7 216.6 287.8 216.7 287.8 216.9C287.8 217 287.8 217.2 287.7 217.3C287.6 217.4 287.6 217.5 287.5 217.6L281.1 224C281 224.1 280.9 224.2 280.8 224.2C280.6 224.4 280.4 224.4 280.3 224.4Z" fill="url(#paint106_linear)"/>
<path d="M281.6 247.3C286 247.3 289.6 243.7 289.6 239.3C289.6 234.9 286 231.3 281.6 231.3C277.2 231.3 273.6 234.9 273.6 239.3C273.7 243.7 277.2 247.3 281.6 247.3Z" fill="url(#paint107_linear)"/>
<path d="M280.3 243.5C280.2 243.5 280 243.5 279.9 243.4C279.8 243.4 279.7 243.3 279.6 243.2L275.8 239.4C275.6 239.2 275.5 239 275.5 238.7C275.5 238.4 275.6 238.2 275.8 238C276 237.8 276.2 237.7 276.5 237.7C276.8 237.7 277 237.8 277.2 238L280.3 241.1L286.1 235.3C286.2 235.2 286.3 235.1 286.4 235.1C286.5 235 286.6 235 286.8 235C286.9 235 287.1 235 287.2 235.1C287.3 235.1 287.4 235.2 287.5 235.3C287.6 235.4 287.7 235.5 287.7 235.6C287.7 235.7 287.8 235.8 287.8 236C287.8 236.1 287.8 236.3 287.7 236.4C287.6 236.5 287.6 236.6 287.5 236.7L281.1 243.1C281 243.2 280.9 243.3 280.8 243.3C280.6 243.4 280.4 243.5 280.3 243.5Z" fill="url(#paint108_linear)"/>
<path d="M431 221.4H321.1C320.8 221.4 320.5 221.3 320.2 221C320 220.8 319.8 220.5 319.8 220.1C319.8 219.8 319.9 219.5 320.2 219.2C320.4 219 320.7 218.8 321.1 218.8H431C431.3 218.8 431.6 218.9 431.9 219.2C432.1 219.4 432.3 219.7 432.3 220.1C432.3 220.4 432.2 220.7 431.9 221C431.6 221.3 431.3 221.4 431 221.4Z" fill="url(#paint109_linear)"/>
<path d="M431 240.5H321.1C320.8 240.5 320.5 240.4 320.2 240.1C320 239.9 319.8 239.6 319.8 239.2C319.8 238.9 319.9 238.6 320.2 238.3C320.4 238.1 320.7 237.9 321.1 237.9H431C431.3 237.9 431.6 238 431.9 238.3C432.1 238.5 432.3 238.8 432.3 239.2C432.3 239.5 432.2 239.8 431.9 240.1C431.6 240.4 431.3 240.5 431 240.5Z" fill="url(#paint110_linear)"/>
<path d="M281.6 284.2C286 284.2 289.6 280.6 289.6 276.2C289.6 271.8 286 268.2 281.6 268.2C277.2 268.2 273.6 271.8 273.6 276.2C273.7 280.6 277.2 284.2 281.6 284.2Z" fill="url(#paint111_linear)"/>
<path d="M256.8 265.5H226.1C223.4 265.5 221.2 267.7 221.2 270.4V301.1C221.2 303.8 223.4 306 226.1 306H256.8C259.5 306 261.7 303.8 261.7 301.1V270.4C261.7 267.7 259.5 265.5 256.8 265.5Z" fill="url(#paint112_linear)"/>
<path d="M280.3 280.4C280.2 280.4 280 280.4 279.9 280.3C279.8 280.3 279.7 280.2 279.6 280.1L275.8 276.3C275.6 276.1 275.5 275.9 275.5 275.6C275.5 275.3 275.6 275.1 275.8 274.9C276 274.7 276.2 274.6 276.5 274.6C276.8 274.6 277 274.7 277.2 274.9L280.3 278L286.1 272.2C286.2 272.1 286.3 272 286.4 272C286.5 271.9 286.6 271.9 286.8 271.9C286.9 271.9 287.1 271.9 287.2 272C287.3 272 287.4 272.1 287.5 272.2C287.6 272.3 287.7 272.4 287.7 272.5C287.7 272.6 287.8 272.7 287.8 272.9C287.8 273 287.8 273.2 287.7 273.3C287.6 273.4 287.6 273.5 287.5 273.6L281.1 280C281 280.1 280.9 280.2 280.8 280.2C280.6 280.4 280.4 280.4 280.3 280.4Z" fill="url(#paint113_linear)"/>
<path d="M281.6 303.3C286 303.3 289.6 299.7 289.6 295.3C289.6 290.9 286 287.3 281.6 287.3C277.2 287.3 273.6 290.9 273.6 295.3C273.7 299.7 277.2 303.3 281.6 303.3Z" fill="url(#paint114_linear)"/>
<path d="M280.3 299.5C280.2 299.5 280 299.5 279.9 299.4C279.8 299.4 279.7 299.3 279.6 299.2L275.8 295.4C275.6 295.2 275.5 295 275.5 294.7C275.5 294.4 275.6 294.2 275.8 294C276 293.8 276.2 293.7 276.5 293.7C276.8 293.7 277 293.8 277.2 294L280.3 297.1L286.1 291.3C286.2 291.2 286.3 291.1 286.4 291.1C286.5 291 286.6 291 286.8 291C286.9 291 287.1 291 287.2 291.1C287.3 291.1 287.4 291.2 287.5 291.3C287.6 291.4 287.7 291.5 287.7 291.6C287.7 291.7 287.8 291.8 287.8 292C287.8 292.1 287.8 292.3 287.7 292.4C287.6 292.5 287.6 292.6 287.5 292.7L281.1 299.1C281 299.2 280.9 299.3 280.8 299.3C280.6 299.5 280.4 299.5 280.3 299.5Z" fill="url(#paint115_linear)"/>
<path d="M431 277.4H321.1C320.8 277.4 320.5 277.3 320.2 277C320 276.8 319.8 276.5 319.8 276.1C319.8 275.8 319.9 275.5 320.2 275.2C320.4 275 320.7 274.8 321.1 274.8H431C431.3 274.8 431.6 274.9 431.9 275.2C432.1 275.4 432.3 275.7 432.3 276.1C432.3 276.4 432.2 276.7 431.9 277C431.6 277.3 431.3 277.4 431 277.4Z" fill="url(#paint116_linear)"/>
<path d="M431 296.5H321.1C320.8 296.5 320.5 296.4 320.2 296.1C320 295.9 319.8 295.6 319.8 295.2C319.8 294.9 319.9 294.6 320.2 294.3C320.4 294.1 320.7 293.9 321.1 293.9H431C431.3 293.9 431.6 294 431.9 294.3C432.1 294.5 432.3 294.8 432.3 295.2C432.3 295.5 432.2 295.8 431.9 296.1C431.6 296.4 431.3 296.5 431 296.5Z" fill="url(#paint117_linear)"/>
<path d="M281.6 340.2C286 340.2 289.6 336.6 289.6 332.2C289.6 327.8 286 324.2 281.6 324.2C277.2 324.2 273.6 327.8 273.6 332.2C273.7 336.7 277.2 340.2 281.6 340.2Z" fill="url(#paint118_linear)"/>
<path d="M256.8 321.6H226.1C223.4 321.6 221.2 323.8 221.2 326.5V357.2C221.2 359.9 223.4 362.1 226.1 362.1H256.8C259.5 362.1 261.7 359.9 261.7 357.2V326.5C261.7 323.7 259.5 321.6 256.8 321.6Z" fill="url(#paint119_linear)"/>
<path d="M280.3 336.4C280.2 336.4 280 336.4 279.9 336.3C279.8 336.3 279.7 336.2 279.6 336.1L275.8 332.3C275.6 332.1 275.5 331.9 275.5 331.6C275.5 331.3 275.6 331.1 275.8 330.9C276 330.7 276.2 330.6 276.5 330.6C276.8 330.6 277 330.7 277.2 330.9L280.3 334L286.1 328.2C286.2 328.1 286.3 328 286.4 328C286.5 327.9 286.6 327.9 286.8 327.9C286.9 327.9 287.1 327.9 287.2 328C287.3 328 287.4 328.1 287.5 328.2C287.6 328.3 287.7 328.4 287.7 328.5C287.7 328.6 287.8 328.7 287.8 328.9C287.8 329 287.8 329.2 287.7 329.3C287.6 329.4 287.6 329.5 287.5 329.6L281.1 336C281 336.1 280.9 336.2 280.8 336.2C280.6 336.4 280.4 336.4 280.3 336.4Z" fill="url(#paint120_linear)"/>
<path d="M289.5 352.5C290.2 348.1 287.2 344.1 282.8 343.4C278.4 342.7 274.4 345.7 273.7 350.1C273 354.5 276 358.5 280.4 359.2C284.8 359.9 288.9 356.9 289.5 352.5Z" fill="url(#paint121_linear)"/>
<path d="M280.3 355.5C280.2 355.5 280 355.5 279.9 355.4C279.8 355.4 279.7 355.3 279.6 355.2L275.8 351.4C275.6 351.2 275.5 351 275.5 350.7C275.5 350.4 275.6 350.2 275.8 350C276 349.8 276.2 349.7 276.5 349.7C276.8 349.7 277 349.8 277.2 350L280.3 353.1L286.1 347.3C286.3 347.1 286.5 347 286.8 347C287.1 347 287.3 347.1 287.5 347.3C287.7 347.5 287.8 347.7 287.8 348C287.8 348.3 287.7 348.5 287.5 348.7L281.1 355.1C281 355.2 280.9 355.3 280.8 355.3C280.6 355.5 280.4 355.5 280.3 355.5Z" fill="url(#paint122_linear)"/>
<path d="M431 333.5H321.1C320.8 333.5 320.5 333.4 320.2 333.1C320 332.9 319.8 332.6 319.8 332.2C319.8 331.9 319.9 331.6 320.2 331.3C320.4 331.1 320.7 330.9 321.1 330.9H431C431.3 330.9 431.6 331 431.9 331.3C432.1 331.5 432.3 331.8 432.3 332.2C432.3 332.5 432.2 332.8 431.9 333.1C431.6 333.3 431.3 333.5 431 333.5Z" fill="url(#paint123_linear)"/>
<path d="M431 352.5H321.1C320.8 352.5 320.5 352.4 320.2 352.1C320 351.9 319.8 351.6 319.8 351.2C319.8 350.9 319.9 350.6 320.2 350.3C320.4 350.1 320.7 349.9 321.1 349.9H431C431.3 349.9 431.6 350 431.9 350.3C432.1 350.5 432.3 350.8 432.3 351.2C432.3 351.5 432.2 351.8 431.9 352.1C431.6 352.4 431.3 352.5 431 352.5Z" fill="url(#paint124_linear)"/>
<path d="M262 41.1H387.9V65.3C387.9 67.7 386.9 70 385.3 71.7C383.6 73.4 381.3 74.3 378.9 74.3H271C268.6 74.3 266.3 73.3 264.6 71.7C262.9 70 262 67.7 262 65.3V41.1Z" fill="url(#paint125_linear)"/>
<path d="M452.3 351.3C452.3 351.3 451.7 371.6 444.6 386.1C440.8 393.9 427 396.6 415.1 397.3H396.9C410.1 397.3 422.9 392.7 433 384.3C443 375.9 449.9 364.2 452.3 351.3Z" fill="url(#paint126_linear)"/>
</g>
<defs>
<filter id="filter0_d" x="-12" y="-8" width="674" height="474" filterUnits="userSpaceOnUse" color-interpolation-filters="sRGB">
<feFlood flood-opacity="0" result="BackgroundImageFix"/>
<feColorMatrix in="SourceAlpha" type="matrix" values="0 0 0 0 0 0 0 0 0 0 0 0 0 0 0 0 0 0 127 0" result="hardAlpha"/>
<feOffset dy="4"/>
<feGaussianBlur stdDeviation="6"/>
<feColorMatrix type="matrix" values="0 0 0 0 0 0 0 0 0 0 0 0 0 0 0 0 0 0 0.3 0"/>
<feBlend mode="normal" in2="BackgroundImageFix" result="effect1_dropShadow"/>
<feBlend mode="normal" in="SourceGraphic" in2="effect1_dropShadow" result="shape"/>
</filter>
<linearGradient id="paint0_linear" x1="79.4661" y1="91.7101" x2="328.711" y2="70.6335" gradientUnits="userSpaceOnUse">
<stop stop-color="#00BAFF"/>
<stop offset="1" stop-color="#7CDCFF"/>
</linearGradient>
<linearGradient id="paint1_linear" x1="106.036" y1="260.125" x2="331.544" y2="241.055" gradientUnits="userSpaceOnUse">
<stop stop-color="#00BAFF"/>
<stop offset="1" stop-color="#72D9FF"/>
</linearGradient>
<linearGradient id="paint2_linear" x1="84.6672" y1="134.891" x2="340.133" y2="355.327" gradientUnits="userSpaceOnUse">
<stop stop-color="#00BAFF"/>
<stop offset="1" stop-color="white"/>
</linearGradient>
<linearGradient id="paint3_linear" x1="112.646" y1="338.29" x2="183.471" y2="332.301" gradientUnits="userSpaceOnUse">
<stop stop-color="#54D1FF"/>
<stop offset="1" stop-color="#00BAFF"/>
</linearGradient>
<linearGradient id="paint4_linear" x1="74.8176" y1="389.985" x2="342.226" y2="367.373" gradientUnits="userSpaceOnUse">
<stop stop-color="#00BAFF"/>
<stop offset="1" stop-color="#00BAFF"/>
</linearGradient>
<linearGradient id="paint5_linear" x1="163.884" y1="144.796" x2="178.04" y2="143.599" gradientUnits="userSpaceOnUse">
<stop stop-color="#71439A"/>
<stop offset="0.8668" stop-color="#A76CAD"/>
</linearGradient>
<linearGradient id="paint6_linear" x1="116.724" y1="158.873" x2="152.585" y2="155.841" gradientUnits="userSpaceOnUse">
<stop stop-color="#71439A"/>
<stop offset="0.8668" stop-color="#A76CAD"/>
</linearGradient>
<linearGradient id="paint7_linear" x1="125.197" y1="258.006" x2="161.058" y2="254.974" gradientUnits="userSpaceOnUse">
<stop stop-color="#71439A"/>
<stop offset="0.8668" stop-color="#A76CAD"/>
</linearGradient>
<linearGradient id="paint8_linear" x1="129.434" y1="307.149" x2="165.294" y2="304.117" gradientUnits="userSpaceOnUse">
<stop stop-color="#71439A"/>
<stop offset="0.8668" stop-color="#A76CAD"/>
</linearGradient>
<linearGradient id="paint9_linear" x1="133.953" y1="356.857" x2="169.814" y2="353.825" gradientUnits="userSpaceOnUse">
<stop stop-color="#71439A"/>
<stop offset="0.8668" stop-color="#A76CAD"/>
</linearGradient>
<linearGradient id="paint10_linear" x1="118.136" y1="157.179" x2="153.997" y2="154.146" gradientUnits="userSpaceOnUse">
<stop stop-color="#EEF2EF"/>
<stop offset="1" stop-color="#F2F6F6"/>
</linearGradient>
<linearGradient id="paint11_linear" x1="174.497" y1="145.405" x2="167.419" y2="140.266" gradientUnits="userSpaceOnUse">
<stop stop-color="#EEF2EF"/>
<stop offset="1" stop-color="#F2F6F6"/>
</linearGradient>
<linearGradient id="paint12_linear" x1="165.314" y1="161.704" x2="179.47" y2="160.506" gradientUnits="userSpaceOnUse">
<stop stop-color="#71439A"/>
<stop offset="0.8668" stop-color="#A76CAD"/>
</linearGradient>
<linearGradient id="paint13_linear" x1="175.926" y1="162.313" x2="168.848" y2="157.174" gradientUnits="userSpaceOnUse">
<stop stop-color="#EEF2EF"/>
<stop offset="1" stop-color="#F2F6F6"/>
</linearGradient>
<linearGradient id="paint14_linear" x1="256.132" y1="154.689" x2="253.12" y2="119.557" gradientUnits="userSpaceOnUse">
<stop stop-color="#EEF2EF"/>
<stop offset="1" stop-color="#F2F6F6"/>
</linearGradient>
<linearGradient id="paint15_linear" x1="257.561" y1="171.598" x2="254.55" y2="136.462" gradientUnits="userSpaceOnUse">
<stop stop-color="#EEF2EF"/>
<stop offset="1" stop-color="#F2F6F6"/>
</linearGradient>
<linearGradient id="paint16_linear" x1="168.084" y1="194.465" x2="182.24" y2="193.268" gradientUnits="userSpaceOnUse">
<stop stop-color="#71439A"/>
<stop offset="0.8668" stop-color="#A76CAD"/>
</linearGradient>
<linearGradient id="paint17_linear" x1="178.697" y1="195.075" x2="171.618" y2="189.936" gradientUnits="userSpaceOnUse">
<stop stop-color="#EEF2EF"/>
<stop offset="1" stop-color="#F2F6F6"/>
</linearGradient>
<linearGradient id="paint18_linear" x1="169.514" y1="211.373" x2="183.669" y2="210.176" gradientUnits="userSpaceOnUse">
<stop stop-color="#71439A"/>
<stop offset="0.8668" stop-color="#A76CAD"/>
</linearGradient>
<linearGradient id="paint19_linear" x1="180.127" y1="211.983" x2="173.048" y2="206.843" gradientUnits="userSpaceOnUse">
<stop stop-color="#EEF2EF"/>
<stop offset="1" stop-color="#F2F6F6"/>
</linearGradient>
<linearGradient id="paint20_linear" x1="260.332" y1="204.36" x2="257.32" y2="169.224" gradientUnits="userSpaceOnUse">
<stop stop-color="#EEF2EF"/>
<stop offset="1" stop-color="#F2F6F6"/>
</linearGradient>
<linearGradient id="paint21_linear" x1="261.762" y1="221.268" x2="258.75" y2="186.132" gradientUnits="userSpaceOnUse">
<stop stop-color="#EEF2EF"/>
<stop offset="1" stop-color="#F2F6F6"/>
</linearGradient>
<linearGradient id="paint22_linear" x1="172.285" y1="244.135" x2="186.44" y2="242.938" gradientUnits="userSpaceOnUse">
<stop stop-color="#71439A"/>
<stop offset="0.8668" stop-color="#A76CAD"/>
</linearGradient>
<linearGradient id="paint23_linear" x1="126.536" y1="256.518" x2="162.397" y2="253.486" gradientUnits="userSpaceOnUse">
<stop stop-color="#EEF2EF"/>
<stop offset="1" stop-color="#F2F6F6"/>
</linearGradient>
<linearGradient id="paint24_linear" x1="182.906" y1="244.741" x2="175.818" y2="239.597" gradientUnits="userSpaceOnUse">
<stop stop-color="#EEF2EF"/>
<stop offset="1" stop-color="#F2F6F6"/>
</linearGradient>
<linearGradient id="paint25_linear" x1="173.714" y1="261.043" x2="187.87" y2="259.846" gradientUnits="userSpaceOnUse">
<stop stop-color="#71439A"/>
<stop offset="0.8668" stop-color="#A76CAD"/>
</linearGradient>
<linearGradient id="paint26_linear" x1="184.335" y1="261.648" x2="177.247" y2="256.504" gradientUnits="userSpaceOnUse">
<stop stop-color="#EEF2EF"/>
<stop offset="1" stop-color="#F2F6F6"/>
</linearGradient>
<linearGradient id="paint27_linear" x1="264.532" y1="254.03" x2="261.52" y2="218.894" gradientUnits="userSpaceOnUse">
<stop stop-color="#EEF2EF"/>
<stop offset="1" stop-color="#F2F6F6"/>
</linearGradient>
<linearGradient id="paint28_linear" x1="265.962" y1="270.937" x2="262.95" y2="235.801" gradientUnits="userSpaceOnUse">
<stop stop-color="#EEF2EF"/>
<stop offset="1" stop-color="#F2F6F6"/>
</linearGradient>
<linearGradient id="paint29_linear" x1="176.485" y1="293.805" x2="190.64" y2="292.608" gradientUnits="userSpaceOnUse">
<stop stop-color="#71439A"/>
<stop offset="0.8668" stop-color="#A76CAD"/>
</linearGradient>
<linearGradient id="paint30_linear" x1="130.737" y1="306.188" x2="166.598" y2="303.156" gradientUnits="userSpaceOnUse">
<stop stop-color="#EEF2EF"/>
<stop offset="1" stop-color="#F2F6F6"/>
</linearGradient>
<linearGradient id="paint31_linear" x1="187.106" y1="294.41" x2="180.018" y2="289.266" gradientUnits="userSpaceOnUse">
<stop stop-color="#EEF2EF"/>
<stop offset="1" stop-color="#F2F6F6"/>
</linearGradient>
<linearGradient id="paint32_linear" x1="177.915" y1="310.713" x2="192.07" y2="309.516" gradientUnits="userSpaceOnUse">
<stop stop-color="#71439A"/>
<stop offset="0.8668" stop-color="#A76CAD"/>
</linearGradient>
<linearGradient id="paint33_linear" x1="188.536" y1="311.318" x2="181.448" y2="306.174" gradientUnits="userSpaceOnUse">
<stop stop-color="#EEF2EF"/>
<stop offset="1" stop-color="#F2F6F6"/>
</linearGradient>
<linearGradient id="paint34_linear" x1="268.732" y1="303.7" x2="265.721" y2="268.564" gradientUnits="userSpaceOnUse">
<stop stop-color="#EEF2EF"/>
<stop offset="1" stop-color="#F2F6F6"/>
</linearGradient>
<linearGradient id="paint35_linear" x1="270.162" y1="320.608" x2="267.15" y2="285.472" gradientUnits="userSpaceOnUse">
<stop stop-color="#EEF2EF"/>
<stop offset="1" stop-color="#F2F6F6"/>
</linearGradient>
<linearGradient id="paint36_linear" x1="180.685" y1="343.475" x2="194.84" y2="342.278" gradientUnits="userSpaceOnUse">
<stop stop-color="#71439A"/>
<stop offset="0.8668" stop-color="#A76CAD"/>
</linearGradient>
<linearGradient id="paint37_linear" x1="134.936" y1="355.858" x2="170.797" y2="352.825" gradientUnits="userSpaceOnUse">
<stop stop-color="#EEF2EF"/>
<stop offset="1" stop-color="#F2F6F6"/>
</linearGradient>
<linearGradient id="paint38_linear" x1="191.306" y1="344.08" x2="184.218" y2="338.936" gradientUnits="userSpaceOnUse">
<stop stop-color="#EEF2EF"/>
<stop offset="1" stop-color="#F2F6F6"/>
</linearGradient>
<linearGradient id="paint39_linear" x1="188.722" y1="366.872" x2="189.662" y2="352.697" gradientUnits="userSpaceOnUse">
<stop stop-color="#71439A"/>
<stop offset="0.8668" stop-color="#A76CAD"/>
</linearGradient>
<linearGradient id="paint40_linear" x1="192.722" y1="360.994" x2="185.649" y2="355.857" gradientUnits="userSpaceOnUse">
<stop stop-color="#00BAFF"/>
<stop offset="1" stop-color="#00BAFF"/>
</linearGradient>
<linearGradient id="paint41_linear" x1="272.933" y1="353.369" x2="269.921" y2="318.233" gradientUnits="userSpaceOnUse">
<stop stop-color="#EEF2EF"/>
<stop offset="1" stop-color="#F2F6F6"/>
</linearGradient>
<linearGradient id="paint42_linear" x1="274.363" y1="370.277" x2="271.35" y2="335.143" gradientUnits="userSpaceOnUse">
<stop stop-color="#EEF2EF"/>
<stop offset="1" stop-color="#F2F6F6"/>
</linearGradient>
<linearGradient id="paint43_linear" x1="149.775" y1="101.013" x2="261.408" y2="91.5727" gradientUnits="userSpaceOnUse">
<stop stop-color="#C0C2D1"/>
<stop offset="1" stop-color="#D8D8D8"/>
</linearGradient>
<linearGradient id="paint44_linear" x1="292.99" y1="371.535" x2="342.226" y2="367.372" gradientUnits="userSpaceOnUse">
<stop stop-color="#00BAFF"/>
<stop offset="1" stop-color="#00BAFF"/>
</linearGradient>
<linearGradient id="paint45_linear" x1="326.016" y1="71.8565" x2="575.536" y2="89.6564" gradientUnits="userSpaceOnUse">
<stop stop-color="#00BAFF"/>
<stop offset="1" stop-color="#7CDCFF"/>
</linearGradient>
<linearGradient id="paint46_linear" x1="326.255" y1="242.368" x2="552.012" y2="258.473" gradientUnits="userSpaceOnUse">
<stop stop-color="#00BAFF"/>
<stop offset="1" stop-color="#72D9FF"/>
</linearGradient>
<linearGradient id="paint47_linear" x1="324.537" y1="115.466" x2="542.659" y2="372.833" gradientUnits="userSpaceOnUse">
<stop stop-color="#00BAFF"/>
<stop offset="1" stop-color="white"/>
</linearGradient>
<linearGradient id="paint48_linear" x1="318.835" y1="318.203" x2="389.603" y2="324.894" gradientUnits="userSpaceOnUse">
<stop stop-color="#54D1FF"/>
<stop offset="1" stop-color="#00BAFF"/>
</linearGradient>
<linearGradient id="paint49_linear" x1="275.288" y1="365.832" x2="542.991" y2="384.929" gradientUnits="userSpaceOnUse">
<stop stop-color="#00BAFF"/>
<stop offset="1" stop-color="#00BAFF"/>
</linearGradient>
<linearGradient id="paint50_linear" x1="403.645" y1="136.876" x2="417.79" y2="138.213" gradientUnits="userSpaceOnUse">
<stop stop-color="#EEF2EF"/>
<stop offset="1" stop-color="#F2F6F6"/>
</linearGradient>
<linearGradient id="paint51_linear" x1="356.421" y1="140.933" x2="392.253" y2="144.321" gradientUnits="userSpaceOnUse">
<stop stop-color="#EEF2EF"/>
<stop offset="1" stop-color="#F2F6F6"/>
</linearGradient>
<linearGradient id="paint52_linear" x1="413.981" y1="139.361" x2="407.929" y2="133.046" gradientUnits="userSpaceOnUse">
<stop stop-color="#00BAFF"/>
<stop offset="1" stop-color="#00BAFF"/>
</linearGradient>
<linearGradient id="paint53_linear" x1="402.048" y1="153.77" x2="416.192" y2="155.107" gradientUnits="userSpaceOnUse">
<stop stop-color="#EEF2EF"/>
<stop offset="1" stop-color="#F2F6F6"/>
</linearGradient>
<linearGradient id="paint54_linear" x1="412.384" y1="156.256" x2="406.331" y2="149.94" gradientUnits="userSpaceOnUse">
<stop stop-color="#00BAFF"/>
<stop offset="1" stop-color="#00BAFF"/>
</linearGradient>
<linearGradient id="paint55_linear" x1="490.888" y1="161.457" x2="493.357" y2="126.279" gradientUnits="userSpaceOnUse">
<stop stop-color="#71439A"/>
<stop offset="0.8668" stop-color="#A76CAD"/>
</linearGradient>
<linearGradient id="paint56_linear" x1="489.681" y1="178.385" x2="492.15" y2="143.203" gradientUnits="userSpaceOnUse">
<stop stop-color="#EEF2EF"/>
<stop offset="1" stop-color="#F2F6F6"/>
</linearGradient>
<linearGradient id="paint57_linear" x1="398.953" y1="186.506" x2="413.097" y2="187.843" gradientUnits="userSpaceOnUse">
<stop stop-color="#EEF2EF"/>
<stop offset="1" stop-color="#F2F6F6"/>
</linearGradient>
<linearGradient id="paint58_linear" x1="409.289" y1="188.991" x2="403.236" y2="182.676" gradientUnits="userSpaceOnUse">
<stop stop-color="#00BAFF"/>
<stop offset="1" stop-color="#00BAFF"/>
</linearGradient>
<linearGradient id="paint59_linear" x1="397.355" y1="203.4" x2="411.5" y2="204.737" gradientUnits="userSpaceOnUse">
<stop stop-color="#EEF2EF"/>
<stop offset="1" stop-color="#F2F6F6"/>
</linearGradient>
<linearGradient id="paint60_linear" x1="407.692" y1="205.885" x2="401.639" y2="199.57" gradientUnits="userSpaceOnUse">
<stop stop-color="#00BAFF"/>
<stop offset="1" stop-color="#00BAFF"/>
</linearGradient>
<linearGradient id="paint61_linear" x1="487.341" y1="211.183" x2="489.81" y2="176.002" gradientUnits="userSpaceOnUse">
<stop stop-color="#71439A"/>
<stop offset="0.8668" stop-color="#A76CAD"/>
</linearGradient>
<linearGradient id="paint62_linear" x1="486.133" y1="228.109" x2="488.603" y2="192.928" gradientUnits="userSpaceOnUse">
<stop stop-color="#71439A"/>
<stop offset="0.8668" stop-color="#A76CAD"/>
</linearGradient>
<linearGradient id="paint63_linear" x1="394.261" y1="236.136" x2="408.405" y2="237.473" gradientUnits="userSpaceOnUse">
<stop stop-color="#EEF2EF"/>
<stop offset="1" stop-color="#F2F6F6"/>
</linearGradient>
<linearGradient id="paint64_linear" x1="347.036" y1="240.193" x2="382.868" y2="243.581" gradientUnits="userSpaceOnUse">
<stop stop-color="#EEF2EF"/>
<stop offset="1" stop-color="#F2F6F6"/>
</linearGradient>
<linearGradient id="paint65_linear" x1="404.606" y1="238.619" x2="398.545" y2="232.297" gradientUnits="userSpaceOnUse">
<stop stop-color="#00BAFF"/>
<stop offset="1" stop-color="#00BAFF"/>
</linearGradient>
<linearGradient id="paint66_linear" x1="392.663" y1="253.03" x2="406.807" y2="254.367" gradientUnits="userSpaceOnUse">
<stop stop-color="#EEF2EF"/>
<stop offset="1" stop-color="#F2F6F6"/>
</linearGradient>
<linearGradient id="paint67_linear" x1="403.009" y1="255.512" x2="396.947" y2="249.19" gradientUnits="userSpaceOnUse">
<stop stop-color="#00BAFF"/>
<stop offset="1" stop-color="#00BAFF"/>
</linearGradient>
<linearGradient id="paint68_linear" x1="483.794" y1="260.907" x2="486.263" y2="225.726" gradientUnits="userSpaceOnUse">
<stop stop-color="#EEF2EF"/>
<stop offset="1" stop-color="#F2F6F6"/>
</linearGradient>
<linearGradient id="paint69_linear" x1="482.586" y1="277.833" x2="485.055" y2="242.652" gradientUnits="userSpaceOnUse">
<stop stop-color="#EEF2EF"/>
<stop offset="1" stop-color="#F2F6F6"/>
</linearGradient>
<linearGradient id="paint70_linear" x1="389.568" y1="285.766" x2="403.712" y2="287.103" gradientUnits="userSpaceOnUse">
<stop stop-color="#EEF2EF"/>
<stop offset="1" stop-color="#F2F6F6"/>
</linearGradient>
<linearGradient id="paint71_linear" x1="342.344" y1="289.823" x2="378.176" y2="293.211" gradientUnits="userSpaceOnUse">
<stop stop-color="#EEF2EF"/>
<stop offset="1" stop-color="#F2F6F6"/>
</linearGradient>
<linearGradient id="paint72_linear" x1="399.913" y1="288.248" x2="393.852" y2="281.926" gradientUnits="userSpaceOnUse">
<stop stop-color="#00BAFF"/>
<stop offset="1" stop-color="#00BAFF"/>
</linearGradient>
<linearGradient id="paint73_linear" x1="387.971" y1="302.66" x2="402.115" y2="303.997" gradientUnits="userSpaceOnUse">
<stop stop-color="#EEF2EF"/>
<stop offset="1" stop-color="#F2F6F6"/>
</linearGradient>
<linearGradient id="paint74_linear" x1="398.317" y1="305.142" x2="392.255" y2="298.82" gradientUnits="userSpaceOnUse">
<stop stop-color="#00BAFF"/>
<stop offset="1" stop-color="#00BAFF"/>
</linearGradient>
<linearGradient id="paint75_linear" x1="480.247" y1="310.632" x2="482.716" y2="275.451" gradientUnits="userSpaceOnUse">
<stop stop-color="#71439A"/>
<stop offset="0.8668" stop-color="#A76CAD"/>
</linearGradient>
<linearGradient id="paint76_linear" x1="479.039" y1="327.559" x2="481.508" y2="292.378" gradientUnits="userSpaceOnUse">
<stop stop-color="#71439A"/>
<stop offset="0.8668" stop-color="#A76CAD"/>
</linearGradient>
<linearGradient id="paint77_linear" x1="384.876" y1="335.395" x2="399.02" y2="336.733" gradientUnits="userSpaceOnUse">
<stop stop-color="#EEF2EF"/>
<stop offset="1" stop-color="#F2F6F6"/>
</linearGradient>
<linearGradient id="paint78_linear" x1="337.651" y1="339.453" x2="373.483" y2="342.841" gradientUnits="userSpaceOnUse">
<stop stop-color="#EEF2EF"/>
<stop offset="1" stop-color="#F2F6F6"/>
</linearGradient>
<linearGradient id="paint79_linear" x1="395.221" y1="337.878" x2="389.159" y2="331.556" gradientUnits="userSpaceOnUse">
<stop stop-color="#00BAFF"/>
<stop offset="1" stop-color="#00BAFF"/>
</linearGradient>
<linearGradient id="paint80_linear" x1="388.629" y1="359.85" x2="392.073" y2="346.066" gradientUnits="userSpaceOnUse">
<stop stop-color="#EEF2EF"/>
<stop offset="1" stop-color="#F2F6F6"/>
</linearGradient>
<linearGradient id="paint81_linear" x1="393.61" y1="354.776" x2="387.562" y2="348.464" gradientUnits="userSpaceOnUse">
<stop stop-color="#00BAFF"/>
<stop offset="1" stop-color="#00BAFF"/>
</linearGradient>
<linearGradient id="paint82_linear" x1="476.699" y1="360.356" x2="479.169" y2="325.175" gradientUnits="userSpaceOnUse">
<stop stop-color="#EEF2EF"/>
<stop offset="1" stop-color="#F2F6F6"/>
</linearGradient>
<linearGradient id="paint83_linear" x1="475.492" y1="377.283" x2="477.96" y2="342.103" gradientUnits="userSpaceOnUse">
<stop stop-color="#71439A"/>
<stop offset="0.8668" stop-color="#A76CAD"/>
</linearGradient>
<linearGradient id="paint84_linear" x1="394.126" y1="91.9431" x2="505.882" y2="99.9154" gradientUnits="userSpaceOnUse">
<stop stop-color="#C0C2D1"/>
<stop offset="1" stop-color="#D8D8D8"/>
</linearGradient>
<linearGradient id="paint85_linear" x1="493.701" y1="381.413" x2="542.991" y2="384.929" gradientUnits="userSpaceOnUse">
<stop stop-color="#00BAFF"/>
<stop offset="1" stop-color="#00BAFF"/>
</linearGradient>
<linearGradient id="paint86_linear" x1="184.085" y1="40.5981" x2="465.236" y2="40.5981" gradientUnits="userSpaceOnUse">
<stop stop-color="#00BAFF"/>
<stop offset="1" stop-color="#7CDCFF"/>
</linearGradient>
<linearGradient id="paint87_linear" x1="197.946" y1="231.83" x2="452.321" y2="231.83" gradientUnits="userSpaceOnUse">
<stop stop-color="#00BAFF"/>
<stop offset="1" stop-color="#72D9FF"/>
</linearGradient>
<linearGradient id="paint88_linear" x1="185.651" y1="89.0429" x2="451.268" y2="360.478" gradientUnits="userSpaceOnUse">
<stop stop-color="#00BAFF"/>
<stop offset="1" stop-color="white"/>
</linearGradient>
<linearGradient id="paint89_linear" x1="197.946" y1="320.001" x2="277.837" y2="320.001" gradientUnits="userSpaceOnUse">
<stop stop-color="#54D1FF"/>
<stop offset="1" stop-color="#00BAFF"/>
</linearGradient>
<linearGradient id="paint90_linear" x1="150.682" y1="374.317" x2="452.321" y2="374.317" gradientUnits="userSpaceOnUse">
<stop stop-color="#00BAFF"/>
<stop offset="1" stop-color="#00BAFF"/>
</linearGradient>
<linearGradient id="paint91_linear" x1="273.659" y1="108.14" x2="289.626" y2="108.14" gradientUnits="userSpaceOnUse">
<stop stop-color="#EEF2EF"/>
<stop offset="1" stop-color="#F2F6F6"/>
</linearGradient>
<linearGradient id="paint92_linear" x1="221.248" y1="117.676" x2="261.699" y2="117.676" gradientUnits="userSpaceOnUse">
<stop stop-color="#EEF2EF"/>
<stop offset="1" stop-color="#F2F6F6"/>
</linearGradient>
<linearGradient id="paint93_linear" x1="285.487" y1="109.828" x2="278.046" y2="103.402" gradientUnits="userSpaceOnUse">
<stop stop-color="#00BAFF"/>
<stop offset="1" stop-color="#00BAFF"/>
</linearGradient>
<linearGradient id="paint94_linear" x1="273.659" y1="127.212" x2="289.626" y2="127.212" gradientUnits="userSpaceOnUse">
<stop stop-color="#EEF2EF"/>
<stop offset="1" stop-color="#F2F6F6"/>
</linearGradient>
<linearGradient id="paint95_linear" x1="285.487" y1="128.9" x2="278.046" y2="122.474" gradientUnits="userSpaceOnUse">
<stop stop-color="#00BAFF"/>
<stop offset="1" stop-color="#00BAFF"/>
</linearGradient>
<linearGradient id="paint96_linear" x1="376.039" y1="127.958" x2="375.993" y2="88.3237" gradientUnits="userSpaceOnUse">
<stop stop-color="#EEF2EF"/>
<stop offset="1" stop-color="#F2F6F6"/>
</linearGradient>
<linearGradient id="paint97_linear" x1="376.039" y1="147.031" x2="375.993" y2="107.393" gradientUnits="userSpaceOnUse">
<stop stop-color="#EEF2EF"/>
<stop offset="1" stop-color="#F2F6F6"/>
</linearGradient>
<linearGradient id="paint98_linear" x1="273.659" y1="164.168" x2="289.626" y2="164.168" gradientUnits="userSpaceOnUse">
<stop stop-color="#EEF2EF"/>
<stop offset="1" stop-color="#F2F6F6"/>
</linearGradient>
<linearGradient id="paint99_linear" x1="285.487" y1="165.856" x2="278.045" y2="159.43" gradientUnits="userSpaceOnUse">
<stop stop-color="#00BAFF"/>
<stop offset="1" stop-color="#00BAFF"/>
</linearGradient>
<linearGradient id="paint100_linear" x1="273.659" y1="183.24" x2="289.626" y2="183.24" gradientUnits="userSpaceOnUse">
<stop stop-color="#EEF2EF"/>
<stop offset="1" stop-color="#F2F6F6"/>
</linearGradient>
<linearGradient id="paint101_linear" x1="285.487" y1="184.928" x2="278.045" y2="178.501" gradientUnits="userSpaceOnUse">
<stop stop-color="#00BAFF"/>
<stop offset="1" stop-color="#00BAFF"/>
</linearGradient>
<linearGradient id="paint102_linear" x1="376.039" y1="183.987" x2="375.993" y2="144.349" gradientUnits="userSpaceOnUse">
<stop stop-color="#EEF2EF"/>
<stop offset="1" stop-color="#F2F6F6"/>
</linearGradient>
<linearGradient id="paint103_linear" x1="376.039" y1="203.059" x2="375.993" y2="163.421" gradientUnits="userSpaceOnUse">
<stop stop-color="#EEF2EF"/>
<stop offset="1" stop-color="#F2F6F6"/>
</linearGradient>
<linearGradient id="paint104_linear" x1="273.659" y1="220.196" x2="289.626" y2="220.196" gradientUnits="userSpaceOnUse">
<stop stop-color="#EEF2EF"/>
<stop offset="1" stop-color="#F2F6F6"/>
</linearGradient>
<linearGradient id="paint105_linear" x1="221.248" y1="229.732" x2="261.699" y2="229.732" gradientUnits="userSpaceOnUse">
<stop stop-color="#EEF2EF"/>
<stop offset="1" stop-color="#F2F6F6"/>
</linearGradient>
<linearGradient id="paint106_linear" x1="285.497" y1="221.88" x2="278.046" y2="215.447" gradientUnits="userSpaceOnUse">
<stop stop-color="#00BAFF"/>
<stop offset="1" stop-color="#00BAFF"/>
</linearGradient>
<linearGradient id="paint107_linear" x1="273.659" y1="239.268" x2="289.626" y2="239.268" gradientUnits="userSpaceOnUse">
<stop stop-color="#EEF2EF"/>
<stop offset="1" stop-color="#F2F6F6"/>
</linearGradient>
<linearGradient id="paint108_linear" x1="285.497" y1="240.951" x2="278.046" y2="234.519" gradientUnits="userSpaceOnUse">
<stop stop-color="#00BAFF"/>
<stop offset="1" stop-color="#00BAFF"/>
</linearGradient>
<linearGradient id="paint109_linear" x1="376.039" y1="240.014" x2="375.993" y2="200.377" gradientUnits="userSpaceOnUse">
<stop stop-color="#EEF2EF"/>
<stop offset="1" stop-color="#F2F6F6"/>
</linearGradient>
<linearGradient id="paint110_linear" x1="376.039" y1="259.086" x2="375.993" y2="219.449" gradientUnits="userSpaceOnUse">
<stop stop-color="#EEF2EF"/>
<stop offset="1" stop-color="#F2F6F6"/>
</linearGradient>
<linearGradient id="paint111_linear" x1="273.659" y1="276.224" x2="289.626" y2="276.224" gradientUnits="userSpaceOnUse">
<stop stop-color="#EEF2EF"/>
<stop offset="1" stop-color="#F2F6F6"/>
</linearGradient>
<linearGradient id="paint112_linear" x1="221.248" y1="285.76" x2="261.699" y2="285.76" gradientUnits="userSpaceOnUse">
<stop stop-color="#EEF2EF"/>
<stop offset="1" stop-color="#F2F6F6"/>
</linearGradient>
<linearGradient id="paint113_linear" x1="285.497" y1="277.908" x2="278.046" y2="271.475" gradientUnits="userSpaceOnUse">
<stop stop-color="#00BAFF"/>
<stop offset="1" stop-color="#00BAFF"/>
</linearGradient>
<linearGradient id="paint114_linear" x1="273.659" y1="295.296" x2="289.626" y2="295.296" gradientUnits="userSpaceOnUse">
<stop stop-color="#EEF2EF"/>
<stop offset="1" stop-color="#F2F6F6"/>
</linearGradient>
<linearGradient id="paint115_linear" x1="285.497" y1="296.979" x2="278.046" y2="290.547" gradientUnits="userSpaceOnUse">
<stop stop-color="#00BAFF"/>
<stop offset="1" stop-color="#00BAFF"/>
</linearGradient>
<linearGradient id="paint116_linear" x1="376.039" y1="296.043" x2="375.993" y2="256.405" gradientUnits="userSpaceOnUse">
<stop stop-color="#EEF2EF"/>
<stop offset="1" stop-color="#F2F6F6"/>
</linearGradient>
<linearGradient id="paint117_linear" x1="376.039" y1="315.115" x2="375.993" y2="275.478" gradientUnits="userSpaceOnUse">
<stop stop-color="#EEF2EF"/>
<stop offset="1" stop-color="#F2F6F6"/>
</linearGradient>
<linearGradient id="paint118_linear" x1="273.659" y1="332.252" x2="289.626" y2="332.252" gradientUnits="userSpaceOnUse">
<stop stop-color="#EEF2EF"/>
<stop offset="1" stop-color="#F2F6F6"/>
</linearGradient>
<linearGradient id="paint119_linear" x1="221.248" y1="341.788" x2="261.699" y2="341.788" gradientUnits="userSpaceOnUse">
<stop stop-color="#EEF2EF"/>
<stop offset="1" stop-color="#F2F6F6"/>
</linearGradient>
<linearGradient id="paint120_linear" x1="285.497" y1="333.935" x2="278.045" y2="327.503" gradientUnits="userSpaceOnUse">
<stop stop-color="#00BAFF"/>
<stop offset="1" stop-color="#00BAFF"/>
</linearGradient>
<linearGradient id="paint121_linear" x1="280.445" y1="359.218" x2="282.84" y2="343.43" gradientUnits="userSpaceOnUse">
<stop stop-color="#EEF2EF"/>
<stop offset="1" stop-color="#F2F6F6"/>
</linearGradient>
<linearGradient id="paint122_linear" x1="285.482" y1="353.013" x2="278.046" y2="346.59" gradientUnits="userSpaceOnUse">
<stop stop-color="#00BAFF"/>
<stop offset="1" stop-color="#00BAFF"/>
</linearGradient>
<linearGradient id="paint123_linear" x1="376.039" y1="352.07" x2="375.993" y2="312.433" gradientUnits="userSpaceOnUse">
<stop stop-color="#EEF2EF"/>
<stop offset="1" stop-color="#F2F6F6"/>
</linearGradient>
<linearGradient id="paint124_linear" x1="376.039" y1="371.142" x2="375.993" y2="331.507" gradientUnits="userSpaceOnUse">
<stop stop-color="#EEF2EF"/>
<stop offset="1" stop-color="#F2F6F6"/>
</linearGradient>
<linearGradient id="paint125_linear" x1="262.003" y1="57.7668" x2="387.926" y2="57.7668" gradientUnits="userSpaceOnUse">
<stop stop-color="#C0C2D1"/>
<stop offset="1" stop-color="#D8D8D8"/>
</linearGradient>
<linearGradient id="paint126_linear" x1="396.783" y1="374.316" x2="452.321" y2="374.316" gradientUnits="userSpaceOnUse">
<stop stop-color="#00BAFF"/>
<stop offset="1" stop-color="#00BAFF"/>
</linearGradient>
</defs>
</svg>
