<svg width="150" height="70" viewBox="0 0 150 70" fill="none" xmlns="http://www.w3.org/2000/svg">
<path d="M13 7H27.575V62H13V7Z" fill="#918F8F"/>
<path d="M41.9667 54.6662H39.125V32.4829H46.7333C48.6583 32.4829 50.2167 33.1246 51.5917 34.3162C52.9667 35.5996 53.6083 37.1579 53.6083 39.0829C53.6083 41.0079 52.875 42.5662 51.5917 43.8496C50.2167 45.1329 48.5667 45.6829 46.7333 45.6829H42.0583V54.6662H41.9667ZM41.9667 43.0246H46.7333C47.925 43.0246 48.9333 42.6579 49.575 41.8329C50.3083 41.0079 50.675 40.1829 50.675 39.1746C50.675 38.1662 50.3083 37.3412 49.575 36.5162C48.8417 35.6912 47.925 35.3246 46.7333 35.3246H41.9667V43.0246V43.0246ZM60.3 55.2162C58.65 55.2162 57.3667 54.7579 56.2667 53.8412C55.1667 52.9246 54.6167 51.6412 54.6167 50.1746C54.6167 48.5246 55.2583 47.2412 56.5417 46.3246C57.825 45.4079 59.3833 44.9496 61.3083 44.9496C62.9583 44.9496 64.3333 45.2246 65.4333 45.8662V45.4079C65.4333 44.3079 65.0667 43.3912 64.2417 42.7496C63.5083 42.1079 62.5 41.7412 61.4 41.7412C60.575 41.7412 59.8417 41.9246 59.1083 42.2912C58.4667 42.6579 58.0083 43.2079 57.7333 43.9412L55.2583 42.7496C55.625 41.8329 56.2667 41.0079 57.3667 40.1829C58.375 39.4496 59.75 38.9912 61.4917 38.9912C63.4167 38.9912 65.0667 39.5412 66.35 40.7329C67.6333 41.8329 68.275 43.4829 68.275 45.4996V54.6662H65.525V52.5579H65.4333C64.15 54.2996 62.5 55.2162 60.3 55.2162V55.2162ZM60.7583 52.5579C61.95 52.5579 63.05 52.0996 63.9667 51.2746C64.8833 50.3579 65.4333 49.3496 65.4333 48.1579C64.6083 47.5162 63.4167 47.1496 61.7667 47.1496C60.3917 47.1496 59.3833 47.4246 58.65 48.0662C57.9167 48.7079 57.55 49.3496 57.55 50.1746C57.55 50.9079 57.825 51.5496 58.4667 51.9162C59.2 52.3746 59.9333 52.5579 60.7583 52.5579ZM74.1417 39.5412V42.0162H74.2333C74.6 41.0996 75.15 40.4579 76.0667 39.9079C76.9833 39.3579 77.9917 39.1746 79 39.1746C79.275 39.1746 79.6417 39.1746 80.0083 39.2662V42.0162C79.6417 42.0162 79.275 41.9246 78.8167 41.9246C77.4417 41.9246 76.3417 42.2912 75.425 43.1162C74.5083 43.9412 74.1417 45.0412 74.1417 46.4162V54.6662H71.3V39.5412H74.1417V39.5412ZM89.725 54.9412C88.1667 54.9412 86.8833 54.4829 86.0583 53.6579C85.2333 52.8329 84.775 51.6412 84.775 50.0829V42.1079H82.1167V39.5412H84.775V34.8662H87.6167V39.5412H91.375V42.1079H87.6167V49.8996C87.6167 51.5496 88.2583 52.3746 89.6333 52.3746C90.1833 52.3746 90.55 52.2829 90.9167 52.0996L91.925 54.5746C91.4667 54.8496 90.6417 54.9412 89.725 54.9412V54.9412ZM97.0583 39.5412V41.6496H97.15C97.6083 40.9162 98.25 40.2746 99.075 39.8162C99.9917 39.2662 100.908 39.0829 101.917 39.0829C103.842 39.0829 105.217 39.6329 106.225 40.8246C107.233 42.0162 107.692 43.5746 107.692 45.4996V54.6662H104.85V45.7746C104.85 42.9329 103.567 41.5579 101.092 41.5579C99.9 41.5579 98.9833 42.0162 98.25 42.9329C97.5167 43.8496 97.15 44.9496 97.15 46.2329V54.6662H94.3083V39.5412H97.0583ZM117.958 55.2162C115.667 55.2162 113.833 54.4829 112.367 52.9246C110.9 51.3662 110.167 49.4412 110.167 47.1496C110.167 44.9496 110.9 43.0246 112.275 41.4662C113.65 39.9079 115.483 39.0829 117.592 39.0829C119.883 39.0829 121.625 39.8162 123 41.2829C124.375 42.7496 125.017 44.6746 125.017 47.1496V47.6996H113.008C113.1 49.2579 113.558 50.4496 114.567 51.3662C115.483 52.2829 116.583 52.7412 117.867 52.7412C119.883 52.7412 121.258 51.9162 121.992 50.1746L124.558 51.2746C124.1 52.4662 123.275 53.4746 122.083 54.2079C121.075 54.7579 119.608 55.2162 117.958 55.2162V55.2162ZM122.083 45.3162C121.992 44.4912 121.625 43.6662 120.892 42.8412C120.158 42.0162 119.058 41.6496 117.592 41.6496C116.492 41.6496 115.667 42.0162 114.842 42.6579C114.017 43.2996 113.558 44.2162 113.283 45.3162H122.083ZM130.608 54.6662H127.767V39.5412H130.517V42.0162H130.608C130.883 41.1912 131.525 40.5496 132.35 39.9996C133.267 39.4496 134.092 39.1746 135.008 39.1746C135.833 39.1746 136.567 39.2662 137.117 39.5412L136.017 42.1996C135.65 42.0162 135.1 42.0162 134.458 42.0162C133.45 42.0162 132.533 42.3829 131.708 43.2079C130.883 44.0329 130.517 45.1329 130.517 46.4162V54.6662H130.608Z" fill="#918F8F"/>
<path d="M45.6367 27.4417C41.8784 27.4417 38.7617 24.4167 38.7617 20.6583C38.7617 16.9 41.8784 13.875 45.6367 13.875C47.7451 13.875 49.2117 14.7 50.3117 15.7083L49.0284 16.9917C48.2034 16.2583 47.1951 15.7083 45.6367 15.7083C42.8867 15.7083 40.7784 17.9083 40.7784 20.6583C40.7784 23.4083 42.8867 25.6083 45.6367 25.6083C47.3784 25.6083 48.3867 24.875 49.1201 24.2333C49.6701 23.6833 50.0367 22.95 50.1284 21.85H45.6367V19.925H51.8701C51.9617 20.2917 51.9617 20.75 51.9617 21.1167C51.9617 22.4917 51.5951 24.2333 50.3117 25.425C49.2117 26.8 47.6534 27.4417 45.6367 27.4417Z" fill="#918F8F"/>
<path d="M61.9523 23.0421C61.9523 25.6088 59.9357 27.4421 57.5523 27.4421C55.169 27.4421 53.1523 25.6088 53.1523 23.0421C53.1523 20.4754 55.169 18.6421 57.5523 18.6421C59.9357 18.6421 61.9523 20.4754 61.9523 23.0421ZM60.0273 23.0421C60.0273 21.4838 58.8357 20.3838 57.5523 20.3838C56.269 20.3838 55.0773 21.4838 55.0773 23.0421C55.0773 24.6004 56.269 25.7004 57.5523 25.7004C58.8357 25.7004 60.0273 24.6004 60.0273 23.0421Z" fill="#918F8F"/>
<path d="M71.9406 23.0421C71.9406 25.6088 69.924 27.4421 67.5406 27.4421C65.1573 27.4421 63.1406 25.6088 63.1406 23.0421C63.1406 20.4754 65.1573 18.6421 67.5406 18.6421C69.924 18.6421 71.9406 20.4754 71.9406 23.0421ZM70.0156 23.0421C70.0156 21.4838 68.824 20.3838 67.5406 20.3838C66.2573 20.3838 65.0656 21.4838 65.0656 23.0421C65.0656 24.6004 66.2573 25.7004 67.5406 25.7004C68.824 25.7004 70.0156 24.6004 70.0156 23.0421Z" fill="#918F8F"/>
<path d="M81.4784 18.9171V26.8004C81.4784 30.0088 79.5534 31.3838 77.3534 31.3838C75.245 31.3838 73.9617 29.9171 73.5034 28.8171L75.1534 28.0838C75.4284 28.8171 76.1617 29.6421 77.3534 29.6421C78.82 29.6421 79.7367 28.7254 79.7367 27.0754V26.4338H79.645C79.1867 26.9838 78.3617 27.4421 77.3534 27.4421C75.1534 27.4421 73.1367 25.5171 73.1367 23.0421C73.1367 20.5671 75.1534 18.6421 77.3534 18.6421C78.3617 18.6421 79.1867 19.1004 79.645 19.6504H79.7367V18.9171H81.4784ZM79.7367 23.0421C79.7367 21.4838 78.7284 20.3838 77.3534 20.3838C76.07 20.3838 74.8784 21.4838 74.8784 23.0421C74.8784 24.6004 75.9784 25.7004 77.3534 25.7004C78.7284 25.7004 79.7367 24.6004 79.7367 23.0421Z" fill="#918F8F"/>
<path d="M85.2297 14.2422V27.1672H83.3047V14.2422H85.2297Z" fill="#918F8F"/>
<path d="M93.1177 24.5088L94.5844 25.5171C94.126 26.2504 92.9344 27.4421 90.9177 27.4421C88.4427 27.4421 86.6094 25.5171 86.6094 23.0421C86.6094 20.4754 88.4427 18.6421 90.7344 18.6421C93.026 18.6421 94.126 20.4754 94.4927 21.3921L94.676 21.8504L88.8094 24.2338C89.2677 25.1504 90.001 25.6088 90.9177 25.6088C91.926 25.7004 92.5677 25.2421 93.1177 24.5088V24.5088ZM88.4427 22.8588L92.3844 21.2088C92.201 20.6588 91.5594 20.2921 90.7344 20.2921C89.8177 20.3838 88.4427 21.2088 88.4427 22.8588Z" fill="#918F8F"/>
</svg>
