<svg width="65" height="65" viewBox="0 0 65 65" fill="none" xmlns="http://www.w3.org/2000/svg">
<path d="M33.3994 12.9C35.6086 12.9 37.3994 11.1092 37.3994 8.90002C37.3994 6.69088 35.6086 4.90002 33.3994 4.90002C31.1903 4.90002 29.3994 6.69088 29.3994 8.90002C29.3994 11.1092 31.1903 12.9 33.3994 12.9Z" stroke="#00B9F2" stroke-width="2" stroke-miterlimit="10" stroke-linecap="round" stroke-linejoin="round"/>
<path d="M26.8992 39.6C26.8992 39.6 17.2992 41 17.3992 45.5C17.4992 50 33.1992 51.1 35.6992 50.9C38.0992 50.7 48.7992 49.6 49.7992 45.3C50.7992 41 40.0992 39.7 40.0992 39.7" stroke="#00B9F2" stroke-width="2" stroke-miterlimit="10" stroke-linecap="round" stroke-linejoin="round"/>
<path d="M26.8996 36.4001C26.8996 36.4001 15.2996 37.8001 11.3996 42.9001C7.49959 48.0001 17.6996 54.7001 26.1996 55.1001C34.6996 55.5001 48.4996 55.4001 55.1996 49.5001C61.8996 43.6001 49.5996 35.7001 40.6996 36.3001" stroke="#00B9F2" stroke-width="2" stroke-miterlimit="10" stroke-linecap="round" stroke-linejoin="round"/>
<path d="M27.1997 32.5C27.1997 32.5 13.3997 34.6 6.6997 39.6C-0.000302076 44.6 2.9997 57.4 21.7997 59.5C40.5997 61.6 56.4997 58.4 61.8997 50.8C67.2997 43.2 56.7997 34.5 40.2997 32.4" stroke="#00B9F2" stroke-width="2" stroke-miterlimit="10" stroke-linecap="round" stroke-linejoin="round"/>
<path d="M32.8996 14.1L27.4996 15.6L25.5996 27.4L27.5996 27.9L29.6996 19.4V41.3H32.4996" stroke="#00B9F2" stroke-width="2" stroke-miterlimit="10" stroke-linecap="round" stroke-linejoin="round"/>
<path d="M33.8994 14.1L39.2994 15.6L41.1994 27.4L39.1994 27.9L37.0994 19.4V41.3H34.2994" stroke="#00B9F2" stroke-width="2" stroke-miterlimit="10" stroke-linecap="round" stroke-linejoin="round"/>
<path d="M33.3994 29.1V40.9" stroke="#00B9F2" stroke-width="2" stroke-miterlimit="10" stroke-linecap="round" stroke-linejoin="round"/>
</svg>
