<svg width="150" height="70" viewBox="0 0 150 70" fill="none" xmlns="http://www.w3.org/2000/svg">
<g clip-path="url(#clip0)">
<path d="M173.186 18.0255L166.935 34.0142H163.589L157.314 18.0255H161.288L165.262 28.7853L169.236 18.0255H173.186ZM174.999 34.0142V18.0255H185.085V21.1861H178.88V24.3699H184.179V27.4142H178.88V30.8537H185.271V34.0142H174.999ZM192.057 21.0931V25.3227H193.823C195.148 25.3227 196.101 24.4163 196.101 23.2079C196.101 21.953 195.148 21.0931 193.823 21.0931H192.057ZM188.269 34.0142V18.0255H194.334C197.634 18.0255 199.982 20.1635 199.982 23.2079C199.982 25.2762 198.889 26.9494 197.053 27.8325L200.609 34.0142H196.472L193.358 28.367H192.057V34.0142H188.269ZM203.142 34.0142V18.0255H207.023V34.0142H203.142ZM210.834 34.0142V18.0255H220.92V21.1861H214.715V24.9741H220.014V28.1346H214.715V34.0142H210.834ZM223.546 34.0142V18.0255H227.427V34.0142H223.546ZM231.239 34.0142V18.0255H241.324V21.1861H235.12V24.3699H240.418V27.4142H235.12V30.8537H241.51V34.0142H231.239ZM244.508 34.0142V18.0255H250.853C255.477 18.0255 258.754 21.3487 258.754 26.0199C258.754 30.691 255.477 34.0142 250.853 34.0142H244.508ZM248.389 21.1861V30.8537H250.667C253.107 30.8537 254.803 28.8783 254.803 26.0199C254.803 23.1614 253.107 21.1861 250.667 21.1861H248.389ZM267.376 34.0142V18.0255H273.534C276.881 18.0255 279.251 20.21 279.251 23.3008C279.251 26.3917 276.881 28.5297 273.534 28.5297H271.164V34.0142H267.376ZM271.164 21.0931V25.4853H273.023C274.394 25.4853 275.393 24.579 275.393 23.3008C275.393 21.9762 274.394 21.0931 273.023 21.0931H271.164ZM278.415 34.0142L284.689 18.0255H288.036L294.287 34.0142H290.522L289.291 30.7142H283.411L282.203 34.0142H278.415ZM286.363 22.6966L284.48 27.8325H288.222L286.363 22.6966ZM299.888 21.0931V25.3227H301.654C302.979 25.3227 303.932 24.4163 303.932 23.2079C303.932 21.953 302.979 21.0931 301.654 21.0931H299.888ZM296.1 34.0142V18.0255H302.165C305.465 18.0255 307.812 20.1635 307.812 23.2079C307.812 25.2762 306.72 26.9494 304.884 27.8325L308.44 34.0142H304.303L301.189 28.367H299.888V34.0142H296.1ZM313.855 34.0142V21.1861H309.23V18.0255H322.314V21.1861H317.712V34.0142H313.855ZM324.777 34.0142V18.0255H328.124L335.328 27.879V18.0255H338.93V34.0142H335.584L328.403 24.1607V34.0142H324.777ZM342.741 34.0142V18.0255H352.827V21.1861H346.622V24.3699H351.921V27.4142H346.622V30.8537H353.013V34.0142H342.741ZM359.799 21.0931V25.3227H361.565C362.89 25.3227 363.843 24.4163 363.843 23.2079C363.843 21.953 362.89 21.0931 361.565 21.0931H359.799ZM356.011 34.0142V18.0255H362.077C365.377 18.0255 367.724 20.1635 367.724 23.2079C367.724 25.2762 366.632 26.9494 364.796 27.8325L368.351 34.0142H364.215L361.101 28.367H359.799V34.0142H356.011ZM106.703 16.0704L140.505 8.66211V35.0654L106.703 42.4649V16.0704ZM119.47 31.382C120.203 32.078 121.375 32.0743 122.104 31.3736L131.504 22.3427C132.238 21.6296 132.238 20.4734 131.504 19.7603C130.771 19.0472 129.581 19.0472 128.847 19.7603L120.791 27.4712L118.361 25.2531C117.627 24.54 116.437 24.54 115.704 25.2531C114.97 25.9662 114.97 27.1223 115.704 27.8354L119.47 31.382ZM89.7269 28.1468H78.9523C79.1976 30.7872 81.0879 31.5644 83.2324 31.5644C85.4186 31.5644 87.1395 31.0944 88.6405 30.3187V34.8572C87.144 35.7044 85.1704 36.3173 82.5384 36.3173C77.1779 36.3173 73.4209 32.8815 73.4209 26.0875C73.4209 20.3505 76.6072 15.7938 81.8444 15.7938C87.0727 15.7938 89.8012 20.349 89.8012 26.1179C89.8012 26.6624 89.7522 27.8426 89.7269 28.1468ZM81.8087 20.387C80.4325 20.387 78.9033 21.4501 78.9033 23.9886H84.5938C84.5938 21.4532 83.1611 20.387 81.8087 20.387ZM64.6913 36.3173C62.7652 36.3173 61.5882 35.4854 60.7976 34.8922L60.7857 41.2664L55.2825 42.4649L55.2795 16.1695H60.1273L60.4127 17.5611C61.1751 16.8326 62.5676 15.7938 64.7255 15.7938C68.5909 15.7938 72.232 19.3573 72.232 25.9156C72.232 33.0747 68.6296 36.3173 64.6913 36.3173ZM63.4102 20.784C62.1455 20.784 61.3549 21.257 60.7812 21.9003L60.8139 30.2716C61.3474 30.8632 62.1188 31.3408 63.4102 31.3408C65.4447 31.3408 66.809 29.0731 66.809 26.0403C66.809 23.0928 65.4239 20.784 63.4102 20.784ZM47.5055 16.1695H53.031V35.9143H47.5055V16.1695ZM47.5055 9.86517L53.031 8.66211V13.2508L47.5055 14.4523V9.86517ZM41.7972 22.5285V35.9143H36.2955V16.1695H41.0541L41.4004 17.8349C42.6874 15.4105 45.2614 15.9018 45.9941 16.171V21.3482C45.2941 21.1171 43.0976 20.7794 41.7972 22.5285ZM30.18 28.9864C30.18 32.3066 33.6531 31.2739 34.359 30.9849V35.5705C33.6248 35.9827 32.2947 36.3173 30.495 36.3173C27.2285 36.3173 24.7778 33.8549 24.7778 30.5195L24.8016 12.4462L30.1755 11.2781L30.18 16.1695H34.3605V20.9726H30.18V28.9864ZM23.5012 29.9476C23.5012 34.0024 20.3476 36.3173 15.7703 36.3173C13.8725 36.3173 11.7978 35.9401 9.75137 35.0382V29.6602C11.5987 30.6883 13.9527 31.4594 15.7762 31.4594C17.0038 31.4594 17.888 31.1218 17.888 30.0815C17.888 27.3924 9.51953 28.4054 9.51953 22.168C9.51953 18.1801 12.4963 15.7938 16.9607 15.7938C18.7842 15.7938 20.6077 16.0812 22.4312 16.825V22.13C20.7563 21.2053 18.6311 20.6806 16.9562 20.6806C15.803 20.6806 15.0866 21.0212 15.0866 21.9019C15.0866 24.4357 23.5012 23.2312 23.5012 29.9476Z" fill="#918F8F"/>
<g clip-path="url(#clip1)">
<path d="M38.8684 54.1175L36.2909 60.7098H34.9111L32.324 54.1175H33.9625L35.601 58.5539L37.2395 54.1175H38.8684ZM39.6158 60.7098V54.1175H43.7744V55.4206H41.216V56.7333H43.4007V57.9885H41.216V59.4067H43.851V60.7098H39.6158ZM46.6489 55.3823V57.1262H47.3771C47.9233 57.1262 48.3162 56.7525 48.3162 56.2542C48.3162 55.7368 47.9233 55.3823 47.3771 55.3823H46.6489ZM45.0871 60.7098V54.1175H47.5879C48.9486 54.1175 49.9163 54.999 49.9163 56.2542C49.9163 57.107 49.466 57.7969 48.709 58.161L50.175 60.7098H48.4695L47.1855 58.3814H46.6489V60.7098H45.0871ZM51.2195 60.7098V54.1175H52.8196V60.7098H51.2195ZM54.3911 60.7098V54.1175H58.5496V55.4206H55.9912V56.9824H58.1759V58.2856H55.9912V60.7098H54.3911ZM59.6324 60.7098V54.1175H61.2325V60.7098H59.6324ZM62.804 60.7098V54.1175H66.9625V55.4206H64.4041V56.7333H66.5888V57.9885H64.4041V59.4067H67.0392V60.7098H62.804ZM68.2752 60.7098V54.1175H70.8911C72.7979 54.1175 74.1489 55.4877 74.1489 57.4136C74.1489 59.3396 72.7979 60.7098 70.8911 60.7098H68.2752ZM69.8754 55.4206V59.4067H70.8144C71.8205 59.4067 72.52 58.5922 72.52 57.4136C72.52 56.2351 71.8205 55.4206 70.8144 55.4206H69.8754ZM77.7038 60.7098V54.1175H80.243C81.6228 54.1175 82.6001 55.0182 82.6001 56.2925C82.6001 57.5669 81.6228 58.4485 80.243 58.4485H79.2656V60.7098H77.7038ZM79.2656 55.3823V57.1932H80.0322C80.5975 57.1932 81.0095 56.8196 81.0095 56.2925C81.0095 55.7464 80.5975 55.3823 80.0322 55.3823H79.2656ZM82.2552 60.7098L84.8423 54.1175H86.2221L88.7996 60.7098H87.2473L86.7395 59.3492H84.3153L83.817 60.7098H82.2552ZM85.5322 56.0434L84.7561 58.161H86.2987L85.5322 56.0434ZM91.1088 55.3823V57.1262H91.8371C92.3832 57.1262 92.7761 56.7525 92.7761 56.2542C92.7761 55.7368 92.3832 55.3823 91.8371 55.3823H91.1088ZM89.547 60.7098V54.1175H92.0479C93.4085 54.1175 94.3763 54.999 94.3763 56.2542C94.3763 57.107 93.9259 57.7969 93.1689 58.161L94.635 60.7098H92.9294L91.6454 58.3814H91.1088V60.7098H89.547ZM96.8676 60.7098V55.4206H94.9608V54.1175H100.355V55.4206H98.4581V60.7098H96.8676ZM101.371 60.7098V54.1175H102.751L105.721 58.1802V54.1175H107.206V60.7098H105.827L102.866 56.6471V60.7098H101.371ZM108.778 60.7098V54.1175H112.936V55.4206H110.378V56.7333H112.563V57.9885H110.378V59.4067H113.013V60.7098H108.778ZM115.811 55.3823V57.1262H116.539C117.085 57.1262 117.478 56.7525 117.478 56.2542C117.478 55.7368 117.085 55.3823 116.539 55.3823H115.811ZM114.249 60.7098V54.1175H116.75C118.111 54.1175 119.078 54.999 119.078 56.2542C119.078 57.107 118.628 57.7969 117.871 58.161L119.337 60.7098H117.631L116.348 58.3814H115.811V60.7098H114.249ZM11.4564 53.3114L25.3937 50.2568V61.1432L11.4564 64.1941V53.3114ZM16.7204 59.6245C17.0228 59.9115 17.506 59.9099 17.8064 59.621L21.6825 55.8975C21.985 55.6035 21.985 55.1268 21.6825 54.8328C21.38 54.5387 20.8895 54.5387 20.587 54.8328L17.2652 58.012L16.2631 57.0975C15.9606 56.8035 15.4701 56.8035 15.1676 57.0975C14.8651 57.3915 14.8651 57.8682 15.1676 58.1622L16.7204 59.6245ZM4.45713 58.2906H0.0146502C0.115755 59.3792 0.895178 59.6997 1.77938 59.6997C2.68075 59.6997 3.39032 59.5059 4.0092 59.1861V61.0574C3.39216 61.4067 2.57842 61.6594 1.49323 61.6594C-0.716981 61.6594 -2.26602 60.2428 -2.26602 57.4415C-2.26602 55.0761 -0.952279 53.1973 1.20707 53.1973C3.36274 53.1973 4.48776 55.0755 4.48776 57.4541C4.48776 57.6786 4.46754 58.1652 4.45713 58.2906ZM1.19236 55.0911C0.624953 55.0911 -0.00557117 55.5295 -0.00557117 56.5761H2.34067C2.34067 55.5307 1.74997 55.0911 1.19236 55.0911ZM-5.86535 61.6594C-6.65948 61.6594 -7.14478 61.3164 -7.47077 61.0718L-7.47567 63.7L-9.7447 64.1941L-9.74593 53.3522H-7.74712L-7.62947 53.926C-7.31513 53.6256 -6.74098 53.1973 -5.85126 53.1973C-4.25748 53.1973 -2.75623 54.6666 -2.75623 57.3707C-2.75623 60.3224 -4.24155 61.6594 -5.86535 61.6594ZM-6.39355 55.2548C-6.915 55.2548 -7.24099 55.4498 -7.47751 55.7151L-7.46403 59.1667C-7.24405 59.4106 -6.92603 59.6075 -6.39355 59.6075C-5.55468 59.6075 -4.99218 58.6725 -4.99218 57.4221C-4.99218 56.2068 -5.56326 55.2548 -6.39355 55.2548ZM-12.9513 53.3522H-10.673V61.4932H-12.9513V53.3522ZM-12.9513 50.7529L-10.673 50.2568V52.1488L-12.9513 52.6442V50.7529ZM-15.3048 55.9741V61.4932H-17.5733V53.3522H-15.6112L-15.4685 54.0389C-14.9378 53.0393 -13.8765 53.2418 -13.5744 53.3528V55.4875C-13.863 55.3922 -14.7687 55.2529 -15.3048 55.9741ZM-20.0948 58.6368C-20.0948 60.0057 -18.6627 59.5799 -18.3717 59.4608V61.3515C-18.6744 61.5214 -19.2228 61.6594 -19.9649 61.6594C-21.3117 61.6594 -22.3221 60.6441 -22.3221 59.2689L-22.3123 51.8171L-20.0966 51.3354L-20.0948 53.3522H-18.3711V55.3326H-20.0948V58.6368ZM-22.8485 59.0331C-22.8485 60.7049 -24.1487 61.6594 -26.036 61.6594C-26.8185 61.6594 -27.6739 61.5039 -28.5177 61.132V58.9146C-27.756 59.3385 -26.7854 59.6564 -26.0336 59.6564C-25.5274 59.6564 -25.1629 59.5172 -25.1629 59.0883C-25.1629 57.9796 -28.6133 58.3972 -28.6133 55.8255C-28.6133 54.1812 -27.3859 53.1973 -25.5452 53.1973C-24.7934 53.1973 -24.0415 53.3158 -23.2897 53.6225V55.8098C-23.9802 55.4285 -24.8565 55.2122 -25.5471 55.2122C-26.0226 55.2122 -26.3179 55.3526 -26.3179 55.7157C-26.3179 56.7605 -22.8485 56.2638 -22.8485 59.0331Z" fill="#918F8F"/>
</g>
</g>
<defs>
<clipPath id="clip0">
<rect width="135" height="57.0423" fill="white" transform="translate(8 6)"/>
</clipPath>
<clipPath id="clip1">
<rect width="90" height="13.9547" fill="white" transform="translate(30.5 50.1001)"/>
</clipPath>
</defs>
</svg>
