<svg width="460" height="324" viewBox="0 0 460 324" fill="none" xmlns="http://www.w3.org/2000/svg">
<g filter="url(#filter0_d)">
<path d="M255.914 308C351.961 308 429.823 294.64 429.823 278.16C429.823 261.68 351.961 248.321 255.914 248.321C159.867 248.321 82.0049 261.68 82.0049 278.16C82.0049 294.64 159.867 308 255.914 308Z" fill="url(#paint0_linear)"/>
<path d="M239.078 165.362L240.858 264.364L245.805 258.589L253.137 194.239L239.078 165.362Z" fill="#E6E7E8"/>
<path d="M258.868 183.651L255.273 228.357L250.433 266.004H243.136L241.285 257.483L244.595 206.146L258.868 183.651Z" fill="#E6E7E8"/>
<path d="M281.044 183.651L277.449 228.357L272.608 266.004H265.312L263.461 257.483L266.771 206.146L281.044 183.651Z" fill="#E6E7E8"/>
<path d="M250.433 61.7611L250.895 74.9162L257.978 81.0838L268.3 71.6364L264.99 56.0214L250.433 61.7611Z" fill="#E6E7E8"/>
<path d="M261.68 167.144L263.424 264.364L268.371 258.695L275.703 195.522L261.68 167.144Z" fill="#E6E7E8"/>
<path d="M233.739 145.897L237.263 199.444C237.263 199.444 259.402 192.385 283.89 197.84L289.692 135.273L233.739 145.897Z" fill="url(#paint1_linear)"/>
<path d="M277.732 70.9589C277.732 70.9589 293.002 90.9946 293.215 97.1265C293.429 103.223 276.415 105.397 276.415 105.397L277.732 70.9589Z" fill="#E6E7E8"/>
<path d="M246.197 70.0677C246.197 70.0677 232.28 69.2834 224.877 101.975C217.473 134.667 236.16 100.513 236.16 100.513L246.197 70.0677Z" fill="#E6E7E8"/>
<path d="M241.535 40.1568C241.286 45.2905 242.14 50.3885 244.063 55.1657C245.344 58.0534 246.803 60.8342 248.441 63.5436C249.188 64.827 250.398 65.7539 251.822 66.1461C253.246 66.5383 254.776 66.3957 256.093 65.6827C260.364 63.401 266.38 59.5151 269.369 54.2388C274.281 45.54 268.088 33.5257 268.088 33.5257L260.044 29.3903L252.569 31.1371L241.535 40.1568Z" fill="#F1F2F2"/>
<path d="M263.851 145.041C263.566 145.041 263.246 144.934 263.032 144.756C262.819 144.542 262.676 144.292 262.641 143.971C262.605 143.686 262.712 143.365 262.89 143.116C263.068 142.866 263.352 142.724 263.637 142.688C266.164 142.26 268.656 141.654 271.112 140.834C273.176 140.121 275.134 139.087 276.914 137.768C277.163 137.59 277.483 137.483 277.768 137.519C278.088 137.554 278.373 137.697 278.551 137.946C278.764 138.196 278.836 138.481 278.8 138.802C278.764 139.123 278.622 139.408 278.373 139.586C276.415 141.084 274.208 142.26 271.859 143.08C269.297 143.936 266.663 144.613 263.958 145.041C263.922 145.041 263.886 145.041 263.851 145.041Z" fill="#DCDBDC"/>
<path d="M241.463 40.9769C241.463 40.9769 254.81 22.3672 271.504 44.1854C271.504 44.1854 271.753 49.2478 268.158 57.9466C268.158 57.9466 278.302 49.2835 276.273 35.8075C274.244 22.3316 246.339 14.4884 241.463 40.9769Z" fill="#231F20"/>
<path d="M266.129 32.2423C270.65 32.2423 274.315 28.5712 274.315 24.0427C274.315 19.5141 270.65 15.843 266.129 15.843C261.608 15.843 257.942 19.5141 257.942 24.0427C257.942 28.5712 261.608 32.2423 266.129 32.2423Z" fill="#231F20"/>
<path d="M256.626 33.597C256.626 33.597 261.04 46.9304 271.682 43.401C282.324 39.8716 272.536 35.3083 272.536 35.3083L256.626 33.597Z" fill="#231F20"/>
<path d="M249.649 33.4902C249.649 33.4902 246.41 37.8753 241.534 40.1569L246.624 34.1319L249.649 33.4902Z" fill="#231F20"/>
<path d="M274.598 45.7958C274.83 43.6228 274.084 41.7609 272.931 41.6372C271.777 41.5134 270.654 43.1748 270.422 45.3478C270.189 47.5209 270.936 49.3828 272.089 49.5065C273.242 49.6302 274.365 47.9689 274.598 45.7958Z" fill="#E6E7E8"/>
<path d="M332.795 280.62C354.065 280.62 371.307 277.572 371.307 273.811C371.307 270.051 354.065 267.002 332.795 267.002C311.526 267.002 294.283 270.051 294.283 273.811C294.283 277.572 311.526 280.62 332.795 280.62Z" fill="#6D6E71"/>
<path d="M372.233 294.774C393.502 294.774 410.745 291.055 410.745 286.467C410.745 281.879 393.502 278.16 372.233 278.16C350.963 278.16 333.721 281.879 333.721 286.467C333.721 291.055 350.963 294.774 372.233 294.774Z" fill="#58595B"/>
<path d="M341.16 220.87C340.306 205.076 359.242 171.957 359.242 171.957C359.242 171.957 338.099 182.724 337.103 219.408L341.16 220.87Z" fill="url(#paint2_linear)"/>
<path d="M335.5 223.294C330.588 182.403 341.159 150.781 341.159 150.781C341.159 150.781 345.003 175.63 337.671 218.232L335.5 223.294Z" fill="url(#paint3_linear)"/>
<path d="M326.745 224.114C327.599 208.321 308.663 175.201 308.663 175.201C308.663 175.201 329.806 185.932 330.802 222.652L326.745 224.114Z" fill="url(#paint4_linear)"/>
<path d="M330.945 224.828C321.619 196.093 327.172 143.58 327.172 143.58C327.172 143.58 338.312 194.061 335.572 223.936L330.945 224.828Z" fill="url(#paint5_linear)"/>
<path d="M347.744 271.53H317.988L323.185 221.868L332.866 221.726H342.939L347.673 270.567L347.744 271.53Z" fill="#939598"/>
<path d="M342.655 217.947H322.936C322.331 217.947 321.868 218.66 321.868 219.551V220.264C321.868 221.155 322.331 221.868 322.936 221.868H342.655C343.26 221.868 343.723 221.155 343.723 220.264V219.551C343.723 218.66 343.224 217.947 342.655 217.947Z" fill="#808285"/>
<path d="M332.866 273.989C341.182 273.989 347.922 272.888 347.922 271.53C347.922 270.171 341.182 269.07 332.866 269.07C324.551 269.07 317.811 270.171 317.811 271.53C317.811 272.888 324.551 273.989 332.866 273.989Z" fill="#939598"/>
<path d="M146.429 279.515C167.699 279.515 184.941 277.057 184.941 274.025C184.941 270.993 167.699 268.535 146.429 268.535C125.159 268.535 107.917 270.993 107.917 274.025C107.917 277.057 125.159 279.515 146.429 279.515Z" fill="#58595B"/>
<path d="M154.792 231.209C153.938 218.41 172.873 191.636 172.873 191.636C172.873 191.636 151.731 200.335 150.734 230.032L154.792 231.209Z" fill="url(#paint6_linear)"/>
<path d="M149.17 233.134C144.258 200.05 154.829 174.453 154.829 174.453C154.829 174.453 158.673 194.56 151.341 229.034L149.17 233.134Z" fill="url(#paint7_linear)"/>
<path d="M140.377 233.847C141.232 221.048 122.296 194.275 122.296 194.275C122.296 194.275 143.438 202.973 144.435 232.67L140.377 233.847Z" fill="url(#paint8_linear)"/>
<path d="M144.577 234.381C135.252 211.173 140.805 168.642 140.805 168.642C140.805 168.642 151.945 209.497 149.205 233.668L144.577 234.381Z" fill="url(#paint9_linear)"/>
<path d="M161.377 272.171H131.621L136.818 231.993L146.499 231.85H156.572L161.306 271.387L161.377 272.171Z" fill="#939598"/>
<path d="M156.288 228.82H136.57C135.965 228.82 135.502 229.39 135.502 230.139V230.71C135.502 231.423 135.965 232.029 136.57 232.029H156.288C156.893 232.029 157.356 231.458 157.356 230.71V230.139C157.356 229.39 156.893 228.82 156.288 228.82Z" fill="#808285"/>
<path d="M146.499 274.167C154.815 274.167 161.555 273.274 161.555 272.171C161.555 271.068 154.815 270.175 146.499 270.175C138.184 270.175 131.443 271.068 131.443 272.171C131.443 273.274 138.184 274.167 146.499 274.167Z" fill="#939598"/>
<path d="M380.597 254.025C379.742 244.328 398.678 224.007 398.678 224.007C398.678 224.007 377.536 230.603 376.539 253.098L380.597 254.025Z" fill="url(#paint10_linear)"/>
<path d="M374.974 255.523C370.062 230.424 380.633 211.031 380.633 211.031C380.633 211.031 384.477 226.253 377.145 252.421L374.974 255.523Z" fill="url(#paint11_linear)"/>
<path d="M366.181 256.022C367.035 246.325 348.1 226.004 348.1 226.004C348.1 226.004 369.242 232.599 370.239 255.095L366.181 256.022Z" fill="url(#paint12_linear)"/>
<path d="M370.381 256.449C361.056 238.838 366.608 206.61 366.608 206.61C366.608 206.61 377.749 237.59 375.008 255.914L370.381 256.449Z" fill="url(#paint13_linear)"/>
<path d="M387.182 285.112H357.426L362.622 254.631L372.304 254.524H382.377L387.111 284.506L387.182 285.112Z" fill="#939598"/>
<path d="M382.092 252.242H362.373C361.768 252.242 361.306 252.67 361.306 253.241V253.668C361.306 254.203 361.768 254.667 362.373 254.667H382.092C382.697 254.667 383.16 254.239 383.16 253.668V253.241C383.16 252.67 382.662 252.242 382.092 252.242Z" fill="#808285"/>
<path d="M372.304 286.61C380.619 286.61 387.36 285.939 387.36 285.112C387.36 284.285 380.619 283.615 372.304 283.615C363.989 283.615 357.248 284.285 357.248 285.112C357.248 285.939 363.989 286.61 372.304 286.61Z" fill="#939598"/>
<path d="M144.258 86.9304C144.258 87.9286 143.475 88.7129 142.478 88.7129H55.2035C54.2069 88.7129 53.4238 87.9286 53.4238 86.9304V34.8804C53.4238 33.8822 54.2069 33.0979 55.2035 33.0979H142.478C143.475 33.0979 144.258 33.8822 144.258 34.8804V86.9304Z" fill="#E6E7E8"/>
<path d="M139.097 82.7238C139.097 83.722 138.314 84.5063 137.317 84.5063H60.3646C59.368 84.5063 58.585 83.722 58.585 82.7238V39.0873C58.585 38.0891 59.368 37.3048 60.3646 37.3048H137.317C138.314 37.3048 139.097 38.0891 139.097 39.0873V82.7238Z" fill="url(#paint14_linear)"/>
<path d="M151.803 70.2102C150.806 70.2102 150.023 69.4259 150.023 68.4277V21.4758C150.023 20.4776 150.806 19.6932 151.803 19.6932H188.891C189.888 19.6932 190.671 20.4776 190.671 21.4758V68.4277C190.671 69.4259 189.888 70.2102 188.891 70.2102H151.803Z" fill="#E6E7E8"/>
<path d="M154.865 66.9304C153.868 66.9304 153.085 66.1461 153.085 65.1479V24.7557C153.085 23.7575 153.868 22.9731 154.865 22.9731H185.795C186.792 22.9731 187.575 23.7575 187.575 24.7557V65.1479C187.575 66.1461 186.792 66.9304 185.795 66.9304H154.865Z" fill="url(#paint15_linear)"/>
<path d="M341.871 51.1015C341.871 50.1033 342.654 49.319 343.651 49.319H387.929C388.925 49.319 389.709 50.1033 389.709 51.1015V86.1461C389.709 87.1443 388.925 87.9286 387.929 87.9286H343.651C342.654 87.9286 341.871 87.1443 341.871 86.1461V51.1015Z" fill="#E6E7E8"/>
<path d="M346.642 55.3084C346.642 54.3102 347.425 53.5259 348.421 53.5259H383.16C384.157 53.5259 384.94 54.3458 384.94 55.3084V81.9038C384.94 82.902 384.157 83.6863 383.16 83.6863H348.421C347.425 83.6863 346.642 82.8664 346.642 81.9038V55.3084Z" fill="url(#paint16_linear)"/>
<path d="M140.77 24.8984C140.77 25.4688 140.272 25.9679 139.702 25.9679H123.899C123.294 25.9679 122.831 25.4688 122.831 24.8984V9.06952C122.831 8.49911 123.294 8 123.899 8H139.702C140.272 8 140.77 8.49911 140.77 9.06952V24.8984Z" fill="#D1D3D4"/>
<path d="M171.273 94.9873C171.273 95.5577 170.81 96.0568 170.205 96.0568H154.153C153.583 96.0568 153.085 95.5577 153.085 94.9873V78.9089C153.085 78.3385 153.583 77.8394 154.153 77.8394H170.205C170.81 77.8394 171.273 78.3385 171.273 78.9089V94.9873Z" fill="#D1D3D4"/>
<path d="M47.6577 92.5277C47.6577 93.0981 47.195 93.5972 46.5899 93.5972H32.0678C31.4983 93.5972 31 93.0981 31 92.5277V60.763C31 60.1926 31.4983 59.6935 32.0678 59.6935H46.5899C47.195 59.6935 47.6577 60.1926 47.6577 60.763V92.5277Z" fill="#F1F2F2"/>
<path d="M414.09 63.2584C414.09 63.8288 413.628 64.3279 413.022 64.3279H395.795C395.19 64.3279 394.728 63.8288 394.728 63.2584V46.0035C394.728 45.4331 395.19 44.934 395.795 44.934H413.022C413.628 44.934 414.09 45.4331 414.09 46.0035V63.2584Z" fill="#F1F2F2"/>
<path d="M399.426 70.8163C399.426 70.2459 399.924 69.7468 400.494 69.7468H423.38C423.985 69.7468 424.448 70.2459 424.448 70.8163V87.8574C424.448 88.4278 423.985 88.9269 423.38 88.9269H400.494C399.924 88.9269 399.426 88.4278 399.426 87.8574V70.8163Z" fill="#D1D3D4"/>
<path d="M249.756 68.7485L238.224 70.8876L233.811 156.485L254.882 153.098L258.477 133.347L267.055 151.137L289.834 147.465L279.05 71.1015L268.158 69.8181C268.123 69.8181 255.131 83.1514 249.756 68.7485Z" fill="#F1F2F2"/>
<path d="M306.278 145.219C306.314 146.182 305.531 147.037 304.57 147.073L210.532 150.317C209.571 150.353 208.717 149.569 208.681 148.606L206.83 94.7022C206.795 93.7397 207.578 92.8841 208.539 92.8484L302.576 89.6042C303.537 89.5685 304.392 90.3529 304.427 91.3154L306.278 145.219Z" fill="#808285"/>
<path d="M229.859 103.009L230.428 119.158L227.581 119.265L227.011 103.115L222.704 103.258L222.598 100.584L234.059 100.192L234.165 102.866L229.859 103.009Z" fill="#F1F2F2" stroke="#F1F2F2" stroke-miterlimit="10"/>
<path d="M236.017 98.374L238.757 98.2671L239.078 107.964C240.003 107.037 241.071 106.574 242.245 106.538C243.598 106.502 244.666 106.895 245.484 107.715C246.196 108.463 246.588 109.64 246.623 111.28L246.873 118.552L244.132 118.659L243.883 111.636C243.847 110.674 243.669 109.996 243.313 109.604C242.957 109.176 242.423 108.998 241.676 109.034C240.715 109.069 240.074 109.39 239.683 109.996C239.327 110.602 239.184 111.636 239.22 113.098L239.434 118.838L236.693 118.944L236.017 98.374Z" fill="#F1F2F2" stroke="#F1F2F2" stroke-miterlimit="10"/>
<path d="M258.689 106.288L261.43 106.181L261.821 118.053L259.08 118.16L259.045 116.912C257.941 118.018 256.767 118.588 255.45 118.624C253.813 118.695 252.424 118.124 251.321 116.984C250.218 115.807 249.648 114.31 249.577 112.492C249.506 110.709 250.004 109.212 251.001 108C252.033 106.788 253.314 106.146 254.916 106.075C256.304 106.039 257.55 106.538 258.689 107.643V106.288ZM252.424 112.42C252.46 113.561 252.816 114.488 253.421 115.165C254.062 115.878 254.88 116.199 255.806 116.164C256.802 116.128 257.621 115.736 258.226 115.023C258.831 114.274 259.116 113.347 259.08 112.242C259.045 111.137 258.689 110.21 258.048 109.533C257.408 108.855 256.589 108.534 255.592 108.57C254.667 108.606 253.884 108.998 253.279 109.711C252.638 110.46 252.353 111.351 252.424 112.42Z" fill="#F1F2F2" stroke="#F1F2F2" stroke-miterlimit="10"/>
<path d="M264.883 106.075L267.623 105.968L267.659 107.073C268.584 106.075 269.652 105.576 270.827 105.54C272.215 105.504 273.283 105.897 274.101 106.717C274.778 107.43 275.169 108.642 275.24 110.282L275.49 117.554L272.749 117.661L272.535 111.03C272.5 109.854 272.322 109.069 271.966 108.606C271.645 108.178 271.04 107.964 270.222 108C269.296 108.036 268.691 108.356 268.335 108.963C267.979 109.569 267.837 110.602 267.873 112.1L268.086 117.84L265.346 117.947L264.883 106.075Z" fill="#F1F2F2" stroke="#F1F2F2" stroke-miterlimit="10"/>
<path d="M280.971 96.8054L281.398 109.354L285.135 105.397L288.801 105.255L283.818 110.424L289.584 117.126L286.025 117.233L281.932 112.349L281.505 112.813L281.647 117.376L278.906 117.483L278.194 96.9124L280.971 96.8054Z" fill="#F1F2F2" stroke="#F1F2F2" stroke-miterlimit="10"/>
<path d="M237.476 137.376L231.816 127.893L234.984 127.786L238.828 134.488L241.961 127.536L245.057 127.429L236.266 146.074L233.133 146.181L237.476 137.376Z" fill="#F1F2F2" stroke="#F1F2F2" stroke-miterlimit="10"/>
<path d="M246.125 133.276C246.054 131.565 246.623 130.068 247.798 128.855C248.973 127.608 250.467 126.966 252.212 126.895C253.991 126.823 255.486 127.394 256.768 128.57C258.013 129.747 258.69 131.208 258.761 132.955C258.832 134.738 258.262 136.235 257.088 137.483C255.913 138.731 254.418 139.372 252.603 139.444C250.823 139.515 249.328 138.945 248.083 137.768C246.837 136.592 246.161 135.094 246.125 133.276ZM248.901 133.24C248.937 134.417 249.293 135.344 249.934 136.021C250.61 136.699 251.464 137.019 252.532 136.984C253.6 136.948 254.454 136.556 255.059 135.843C255.664 135.13 255.949 134.203 255.913 133.062C255.878 131.921 255.522 130.994 254.845 130.317C254.169 129.64 253.315 129.319 252.247 129.355C251.215 129.39 250.361 129.782 249.756 130.495C249.186 131.208 248.866 132.135 248.901 133.24Z" fill="#F1F2F2" stroke="#F1F2F2" stroke-miterlimit="10"/>
<path d="M264.171 126.788L264.42 133.597C264.491 135.558 265.31 136.52 266.84 136.449C268.371 136.378 269.118 135.379 269.047 133.419L268.798 126.609L271.539 126.502L271.788 133.383C271.823 134.346 271.717 135.166 271.503 135.843C271.29 136.485 270.934 137.055 270.364 137.554C269.474 138.374 268.3 138.838 266.876 138.873C265.452 138.909 264.278 138.552 263.317 137.804C262.747 137.34 262.32 136.77 262.071 136.164C261.822 135.629 261.679 134.809 261.644 133.704L261.395 126.823L264.171 126.788Z" fill="#F1F2F2" stroke="#F1F2F2" stroke-miterlimit="10"/>
<path d="M276.094 136.877C276.094 136.413 276.237 136.021 276.557 135.665C276.877 135.308 277.269 135.13 277.732 135.13C278.194 135.13 278.586 135.273 278.942 135.593C279.298 135.914 279.476 136.306 279.476 136.77C279.476 137.233 279.333 137.661 279.013 137.982C278.693 138.303 278.301 138.481 277.838 138.517C277.376 138.517 276.949 138.374 276.628 138.089C276.272 137.768 276.094 137.376 276.094 136.877ZM276.308 134.06L275.81 119.444L278.55 119.337L279.049 133.953L276.308 134.06Z" fill="#F1F2F2" stroke="#F1F2F2" stroke-miterlimit="10"/>
<path d="M304.876 129.17C309.119 129.023 312.406 124.453 312.217 118.963C312.027 113.473 308.434 109.142 304.19 109.288C299.947 109.435 296.66 114.005 296.85 119.495C297.039 124.985 300.632 129.316 304.876 129.17Z" fill="#E6E7E8"/>
<path d="M208.916 132.165C213.159 132.018 216.446 127.448 216.257 121.958C216.067 116.468 212.474 112.137 208.23 112.284C203.987 112.43 200.7 117 200.89 122.49C201.079 127.98 204.672 132.311 208.916 132.165Z" fill="#E6E7E8"/>
<path d="M249.756 68.7485L257.089 76.9125L257.302 83.0088C257.302 83.0088 246.838 78.8377 245.734 69.5328L249.756 68.7485Z" fill="url(#paint17_linear)"/>
<path d="M268.123 69.8182L258.548 76.5918L258.761 82.9376C258.761 82.9376 265.097 80.4065 271.789 70.246L268.123 69.8182Z" fill="url(#paint18_linear)"/>
<path d="M251.073 262.046C251.073 262.046 247.442 265.504 240.715 262.046C240.715 262.046 239.861 266.111 240.003 267.394C240.146 268.677 240.324 272.563 242.21 273.134C244.097 273.704 253.173 275.023 253.137 271.137C253.102 267.251 251.073 262.046 251.073 262.046Z" fill="black"/>
<path d="M263.104 262.046C263.104 262.046 266.734 265.861 273.461 262.046C273.461 262.046 274.315 266.503 274.173 267.964C274.031 269.426 273.853 273.669 271.966 274.31C270.08 274.952 261.004 276.378 261.039 272.1C261.075 267.822 263.104 262.046 263.104 262.046Z" fill="black"/>
<path d="M251.358 262.046L254.561 273.847C254.561 273.847 256.448 278.018 254.099 279.765C251.749 281.512 243.065 281.833 241.854 276.485C241.854 276.485 242.78 275.166 241.854 272.67" fill="black"/>
<path d="M262.784 262.118L259.616 273.918C259.616 273.918 257.729 278.089 260.079 279.836C262.428 281.583 271.041 281.904 272.287 276.556C272.287 276.556 271.362 275.237 272.287 272.742" fill="black"/>
<path d="M239.968 267.394V275.059H241.285V268.535L239.968 267.394Z" fill="black"/>
<path d="M274.209 267.679V275.344H272.892V268.856L274.209 267.679Z" fill="black"/>
</g>
<defs>
<filter id="filter0_d" x="-12" y="-6" width="484" height="335" filterUnits="userSpaceOnUse" color-interpolation-filters="sRGB">
<feFlood flood-opacity="0" result="BackgroundImageFix"/>
<feColorMatrix in="SourceAlpha" type="matrix" values="0 0 0 0 0 0 0 0 0 0 0 0 0 0 0 0 0 0 127 0" result="hardAlpha"/>
<feOffset dy="4"/>
<feGaussianBlur stdDeviation="6"/>
<feColorMatrix type="matrix" values="0 0 0 0 0 0 0 0 0 0 0 0 0 0 0 0 0 0 0.4 0"/>
<feBlend mode="normal" in2="BackgroundImageFix" result="effect1_dropShadow"/>
<feBlend mode="normal" in="SourceGraphic" in2="effect1_dropShadow" result="shape"/>
</filter>
<linearGradient id="paint0_linear" x1="82.0137" y1="278.143" x2="429.834" y2="278.143" gradientUnits="userSpaceOnUse">
<stop stop-color="#7DD3F7"/>
<stop offset="1" stop-color="#43B5E8"/>
</linearGradient>
<linearGradient id="paint1_linear" x1="234.507" y1="168.347" x2="290.759" y2="166.408" gradientUnits="userSpaceOnUse">
<stop stop-color="#71459B"/>
<stop offset="0.8668" stop-color="#A76DAE"/>
</linearGradient>
<linearGradient id="paint2_linear" x1="344.138" y1="219.867" x2="351.535" y2="171.544" gradientUnits="userSpaceOnUse">
<stop stop-color="#7DD3F7"/>
<stop offset="1" stop-color="#43B5E8"/>
</linearGradient>
<linearGradient id="paint3_linear" x1="322.276" y1="212.623" x2="355.439" y2="159.953" gradientUnits="userSpaceOnUse">
<stop stop-color="#7DD3F7"/>
<stop offset="1" stop-color="#43B5E8"/>
</linearGradient>
<linearGradient id="paint4_linear" x1="315.843" y1="224.244" x2="323.676" y2="173.065" gradientUnits="userSpaceOnUse">
<stop stop-color="#7DD3F7"/>
<stop offset="1" stop-color="#43B5E8"/>
</linearGradient>
<linearGradient id="paint5_linear" x1="314.077" y1="216.101" x2="349.682" y2="149.762" gradientUnits="userSpaceOnUse">
<stop stop-color="#7DD3F7"/>
<stop offset="1" stop-color="#43B5E8"/>
</linearGradient>
<linearGradient id="paint6_linear" x1="158.597" y1="230.581" x2="164.658" y2="190.988" gradientUnits="userSpaceOnUse">
<stop stop-color="#7DD3F7"/>
<stop offset="1" stop-color="#43B5E8"/>
</linearGradient>
<linearGradient id="paint7_linear" x1="138.846" y1="224.751" x2="165.975" y2="181.664" gradientUnits="userSpaceOnUse">
<stop stop-color="#7DD3F7"/>
<stop offset="1" stop-color="#43B5E8"/>
</linearGradient>
<linearGradient id="paint8_linear" x1="130.258" y1="233.705" x2="136.507" y2="192.88" gradientUnits="userSpaceOnUse">
<stop stop-color="#7DD3F7"/>
<stop offset="1" stop-color="#43B5E8"/>
</linearGradient>
<linearGradient id="paint9_linear" x1="131.006" y1="227.369" x2="159.641" y2="174.017" gradientUnits="userSpaceOnUse">
<stop stop-color="#7DD3F7"/>
<stop offset="1" stop-color="#43B5E8"/>
</linearGradient>
<linearGradient id="paint10_linear" x1="385.195" y1="253.81" x2="389.886" y2="223.163" gradientUnits="userSpaceOnUse">
<stop stop-color="#7DD3F7"/>
<stop offset="1" stop-color="#43B5E8"/>
</linearGradient>
<linearGradient id="paint11_linear" x1="367.718" y1="249.486" x2="388.664" y2="216.219" gradientUnits="userSpaceOnUse">
<stop stop-color="#7DD3F7"/>
<stop offset="1" stop-color="#43B5E8"/>
</linearGradient>
<linearGradient id="paint12_linear" x1="356.844" y1="255.656" x2="361.469" y2="225.443" gradientUnits="userSpaceOnUse">
<stop stop-color="#7DD3F7"/>
<stop offset="1" stop-color="#43B5E8"/>
</linearGradient>
<linearGradient id="paint13_linear" x1="360.168" y1="251.172" x2="381.659" y2="211.128" gradientUnits="userSpaceOnUse">
<stop stop-color="#7DD3F7"/>
<stop offset="1" stop-color="#43B5E8"/>
</linearGradient>
<linearGradient id="paint14_linear" x1="58.5752" y1="60.9043" x2="139.099" y2="60.9043" gradientUnits="userSpaceOnUse">
<stop stop-color="#7DD3F7"/>
<stop offset="1" stop-color="#43B5E8"/>
</linearGradient>
<linearGradient id="paint15_linear" x1="153.095" y1="44.9606" x2="187.579" y2="44.9606" gradientUnits="userSpaceOnUse">
<stop stop-color="#7DD3F7"/>
<stop offset="1" stop-color="#43B5E8"/>
</linearGradient>
<linearGradient id="paint16_linear" x1="346.624" y1="68.608" x2="384.937" y2="68.608" gradientUnits="userSpaceOnUse">
<stop stop-color="#7DD3F7"/>
<stop offset="1" stop-color="#43B5E8"/>
</linearGradient>
<linearGradient id="paint17_linear" x1="245.946" y1="76.1352" x2="257.046" y2="75.7525" gradientUnits="userSpaceOnUse">
<stop stop-color="#71459B"/>
<stop offset="0.8668" stop-color="#A76DAE"/>
</linearGradient>
<linearGradient id="paint18_linear" x1="258.531" y1="76.5425" x2="271.986" y2="76.0786" gradientUnits="userSpaceOnUse">
<stop stop-color="#71459B"/>
<stop offset="0.8668" stop-color="#A76DAE"/>
</linearGradient>
</defs>
</svg>
