<svg width="64" height="64" viewBox="0 0 64 64" fill="none" xmlns="http://www.w3.org/2000/svg">
<path d="M55.7491 16.6163C54.9816 16.9567 54.1925 17.244 53.3862 17.4773C54.3408 16.3977 55.0686 15.1274 55.5129 13.7374C55.6125 13.4258 55.5092 13.0848 55.2531 12.881C54.9973 12.6771 54.642 12.6526 54.3603 12.8195C52.648 13.8351 50.8006 14.565 48.8635 14.9917C46.9123 13.0851 44.2621 12 41.5223 12C35.7392 12 31.0342 16.7049 31.0342 22.4879C31.0342 22.9433 31.063 23.3963 31.1201 23.8429C23.9437 23.2128 17.272 19.6856 12.6905 14.0657C12.5273 13.8654 12.2757 13.7574 12.0182 13.7781C11.7605 13.7982 11.529 13.9435 11.3988 14.1669C10.4696 15.7613 9.97839 17.5849 9.97839 19.4403C9.97839 21.9675 10.8807 24.3652 12.4745 26.2387C11.9899 26.0709 11.5196 25.8611 11.0707 25.612C10.8298 25.4779 10.5357 25.4799 10.2963 25.6172C10.0567 25.7544 9.90653 26.0069 9.90023 26.2829C9.89912 26.3294 9.89912 26.3759 9.89912 26.423C9.89912 30.1952 11.9293 33.5913 15.0333 35.4423C14.7666 35.4157 14.5001 35.3771 14.2353 35.3265C13.9624 35.2743 13.6817 35.37 13.4976 35.5782C13.3132 35.7862 13.2522 36.0762 13.3372 36.341C14.4861 39.9279 17.4441 42.5663 21.0201 43.3707C18.0542 45.2284 14.6624 46.2014 11.1019 46.2014C10.359 46.2014 9.61182 46.1577 8.88055 46.0712C8.51728 46.028 8.16993 46.2425 8.04621 46.588C7.92249 46.9336 8.05362 47.3189 8.36267 47.517C12.9367 50.4498 18.2256 52 23.6573 52C34.3354 52 41.0153 46.9647 44.7386 42.7405C49.3816 37.4733 52.0444 30.5015 52.0444 23.613C52.0444 23.3252 52.04 23.0346 52.0311 22.7449C53.8629 21.3648 55.44 19.6945 56.7234 17.7748C56.9183 17.4832 56.8972 17.0979 56.6714 16.8295C56.4459 16.561 56.07 16.4741 55.7491 16.6163Z" fill="#6B7280"/>
</svg>
