<svg width="150" height="70" viewBox="0 0 150 70" fill="none" xmlns="http://www.w3.org/2000/svg">
<path d="M74.825 26.5C68.975 26.5 64.75 30.325 64.75 36.05C64.75 41.775 69.5 45.6 75.35 45.6C78.9 45.6 82 44.2 83.95 41.85L79.9 39.5C78.825 40.675 77.2 41.35 75.375 41.35C72.825 41.35 70.675 40.025 69.875 37.9H84.75C84.875 37.3 84.925 36.7 84.925 36.05C84.9 30.3 80.7 26.5 74.825 26.5ZM69.8 34.175C70.475 32.05 72.275 30.725 74.825 30.725C77.375 30.725 79.175 32.05 79.85 34.175H69.8ZM131.95 26.5C126.1 26.5 121.875 30.325 121.875 36.05C121.875 41.775 126.625 45.6 132.475 45.6C136.025 45.6 139.125 44.2 141.075 41.85L137.025 39.5C135.95 40.675 134.325 41.35 132.5 41.35C129.95 41.35 127.8 40.025 127 37.9H141.875C142 37.3 142.05 36.7 142.05 36.05C142.05 30.3 137.825 26.5 131.95 26.5ZM126.95 34.175C127.625 32.05 129.425 30.725 131.975 30.725C134.525 30.725 136.325 32.05 137 34.175H126.95ZM106.25 36.05C106.25 39.225 108.325 41.35 111.55 41.35C113.725 41.35 115.375 40.35 116.225 38.75L120.3 41.1C118.625 43.9 115.45 45.6 111.55 45.6C105.675 45.6 101.475 41.775 101.475 36.05C101.475 30.325 105.7 26.5 111.55 26.5C115.45 26.5 118.6 28.2 120.3 31L116.225 33.35C115.375 31.725 113.75 30.75 111.55 30.75C108.325 30.725 106.25 32.85 106.25 36.05ZM150 20.65V45.05H145.225V20.65H150V20.65ZM19.6 18L39.2 51.95H0L19.6 18ZM68.625 20.65L53.925 46.125L39.225 20.65H44.75L53.95 36.575L63.15 20.65H68.625ZM99.875 27.025V32.175C99.35 32.025 98.775 31.925 98.175 31.925C95.1 31.925 92.875 34.05 92.875 37.225V45.075H88.1V27.025H92.875V31.9C92.875 29.2 96 27.025 99.875 27.025Z" fill="#918F8F"/>
</svg>
