<svg width="150" height="70" viewBox="0 0 150 70" fill="none" xmlns="http://www.w3.org/2000/svg">
<path d="M87.1485 30.8809H84.1516C84.09 30.6357 84.0441 30.3512 84.0136 30.0282C83.9525 29.3997 83.9525 28.7667 84.0136 28.1382C84.0441 27.8159 84.09 27.5317 84.1516 27.285H91.6205V50.9358C91.2466 51.0008 90.8697 51.0467 90.4911 51.0733C90.115 51.1022 89.738 51.1174 89.3609 51.119C88.9996 51.1167 88.6385 51.1015 88.2783 51.0733C87.8998 51.0465 87.523 51.0004 87.1493 50.9351V30.88V30.8805L87.1485 30.8809ZM113.15 36.8287C113.15 35.9678 113.034 35.1459 112.804 34.3615C112.574 33.5783 112.234 32.8946 111.79 32.3103C111.344 31.7269 110.775 31.2578 110.084 30.9045C109.392 30.551 108.57 30.374 107.617 30.374C105.743 30.374 104.306 30.9435 103.307 32.0802C102.308 33.2171 101.701 34.7999 101.486 36.8287H113.15H113.15ZM101.44 40.24C101.501 42.8217 102.17 44.7122 103.445 45.9102C104.72 47.1087 106.603 47.7089 109.093 47.7089C111.274 47.7089 113.349 47.3242 115.316 46.5559C115.561 47.0169 115.761 47.5779 115.915 48.2387C116.066 48.8821 116.158 49.5378 116.191 50.1978C115.178 50.6292 114.063 50.9505 112.85 51.1662C111.635 51.3807 110.29 51.4889 108.816 51.4889C106.664 51.4889 104.819 51.1883 103.284 50.5895C101.746 49.9895 100.479 49.1443 99.4798 48.0538C98.4811 46.963 97.7508 45.6719 97.2898 44.181C96.8291 42.6908 96.598 41.054 96.598 39.2714C96.598 37.5196 96.8207 35.8827 97.2665 34.361C97.7114 32.8405 98.3967 31.5187 99.3177 30.3969C100.24 29.2746 101.4 28.3837 102.799 27.7229C104.197 27.0621 105.848 26.7312 107.755 26.7312C109.383 26.7312 110.813 27.0082 112.042 27.5613C113.271 28.1144 114.301 28.8752 115.131 29.8433C115.961 30.8117 116.591 31.9643 117.021 33.3005C117.451 34.638 117.667 36.09 117.667 37.6578C117.667 38.0883 117.651 38.5413 117.62 39.0174C117.595 39.425 117.564 39.8323 117.528 40.239H101.439L101.439 40.2397L101.44 40.24ZM122.695 27.285C123.016 27.2267 123.339 27.1807 123.663 27.1469C123.97 27.1169 124.293 27.1013 124.631 27.1013C124.969 27.1013 125.307 27.1169 125.645 27.1469C125.983 27.1782 126.291 27.2244 126.568 27.285C126.659 27.7462 126.751 28.3539 126.843 29.106C126.935 29.8592 126.982 30.4964 126.982 31.0192C127.627 29.9746 128.48 29.0673 129.54 28.2988C130.601 27.531 131.961 27.1462 133.62 27.1462C133.866 27.1462 134.119 27.1544 134.381 27.1698C134.604 27.1818 134.828 27.2044 135.049 27.2383C135.11 27.5153 135.157 27.8078 135.188 28.1146C135.218 28.4217 135.233 28.7446 135.233 29.0825C135.233 29.4516 135.211 29.8361 135.165 30.2348C135.12 30.6202 135.067 31.0044 135.004 31.3871C134.754 31.3258 134.499 31.2949 134.242 31.295H133.62C132.79 31.295 131.998 31.4105 131.245 31.6406C130.492 31.8714 129.816 32.2788 129.217 32.8622C128.618 33.4465 128.141 34.2458 127.788 35.2601C127.434 36.2744 127.258 37.5806 127.258 39.1786V50.9351C126.884 51 126.507 51.0464 126.128 51.0731C125.714 51.1039 125.337 51.1188 124.999 51.1188C124.622 51.1173 124.245 51.1021 123.87 51.0731C123.476 51.0445 123.083 50.9985 122.694 50.9353V27.2852L122.695 27.285ZM90.3388 14.6565C90.3389 15.2083 90.2393 15.7556 90.0448 16.272C89.5282 16.4665 88.9808 16.5662 88.4288 16.5663H88.4221C87.8701 16.5664 87.3227 16.4668 86.8061 16.2722C86.6113 15.7558 86.5115 15.2083 86.5115 14.6563V14.6491C86.5115 14.0804 86.6159 13.5357 86.8049 13.0331C87.3216 12.8383 87.8692 12.7387 88.4213 12.739H88.4276C88.9965 12.739 89.541 12.8434 90.0435 13.0331C90.2383 13.5496 90.3379 14.0971 90.3376 14.6491V14.6563H90.3384L90.3388 14.6565ZM95.9721 13.3772H91.5051L94.6634 10.2187C94.1668 9.52119 93.5571 8.91162 92.8594 8.41516L89.7006 11.5737V7.10653C89.2806 7.03587 88.8554 7.00024 88.4295 7H88.4213C87.988 7 87.5636 7.03703 87.15 7.10653V11.5737L83.9905 8.41492C83.6425 8.66257 83.3159 8.93895 83.0142 9.24117L83.0127 9.24261C82.711 9.5446 82.4348 9.87116 82.1872 10.2189L85.3467 13.3772H80.8788C80.8788 13.3772 80.7725 14.2165 80.7725 14.6503V14.6556C80.7725 15.0894 80.8093 15.5145 80.879 15.9284H85.347L82.187 19.0864C82.684 19.7838 83.2937 20.3935 83.9912 20.8904L87.1502 17.7321V22.1995C87.5634 22.2688 87.9871 22.3054 88.4199 22.3058H88.4307C88.8562 22.3054 89.2808 22.2699 89.7004 22.1995V17.7321L92.8597 20.8912C93.2077 20.6433 93.5345 20.3669 93.8367 20.0649H93.8374C94.139 19.7626 94.4151 19.4358 94.6627 19.0879L91.5044 15.9286H95.9723C96.0416 15.515 96.0781 15.0913 96.0781 14.6584V14.6474C96.0781 14.2218 96.0425 13.7973 95.9723 13.3777V13.3772H95.9721ZM15 50.2906L27.4476 30.9271H16.475C16.3832 30.374 16.3372 29.7599 16.3372 29.0834C16.3372 28.4383 16.3839 27.8383 16.476 27.2847H34.225L34.4558 27.8852L21.9161 47.2939H33.6717C33.7638 47.9088 33.8102 48.5383 33.8102 49.1835C33.8102 49.7991 33.764 50.3827 33.6719 50.9358H15.2308L15 50.2899V50.2906ZM50.913 39.8247C50.4521 39.7639 49.868 39.703 49.1612 39.6407C48.4542 39.5799 47.855 39.5486 47.364 39.5486C45.458 39.5486 44.0058 39.9021 43.0076 40.6091C42.008 41.3166 41.5095 42.3917 41.5095 43.8362C41.5095 44.7582 41.6778 45.4805 42.0162 46.0028C42.3538 46.5261 42.7768 46.9248 43.2839 47.2016C43.7913 47.4781 44.3516 47.6474 44.966 47.7089C45.5804 47.7703 46.1647 47.8008 46.7178 47.8008C47.4248 47.8008 48.1546 47.7623 48.9078 47.6854C49.6604 47.6092 50.3289 47.4935 50.9133 47.3398V39.8247H50.913ZM50.913 35.3534C50.913 33.5393 50.4521 32.2793 49.5303 31.5723C48.6079 30.8653 47.2711 30.5118 45.5193 30.5118C44.4427 30.5118 43.4369 30.597 42.4998 30.7658C41.5724 30.9322 40.6561 31.1552 39.756 31.4335C39.1717 30.4192 38.8807 29.2061 38.8807 27.7914C39.9243 27.4538 41.0767 27.1926 42.3374 27.0082C43.5975 26.8235 44.8114 26.7312 45.9798 26.7312C49.053 26.7312 51.3887 27.4309 52.9871 28.8293C54.5848 30.2288 55.3846 32.4644 55.3846 35.5374V50.3363C54.3082 50.5821 53.0025 50.8355 51.4659 51.0969C49.9122 51.3593 48.3392 51.4904 46.7635 51.4889C45.2577 51.4889 43.8971 51.3511 42.6837 51.0743C41.4694 50.797 40.4397 50.3524 39.5947 49.7368C38.7487 49.1227 38.0965 48.3387 37.6348 47.3862C37.1741 46.4333 36.9435 45.2809 36.9435 43.9283C36.9435 42.6072 37.2123 41.4467 37.7503 40.4473C38.2788 39.4599 39.0284 38.6079 39.9405 37.9579C40.8624 37.2981 41.9226 36.8056 43.1214 36.4834C44.3203 36.1604 45.5799 35.9988 46.9015 35.9988C47.8851 35.9988 48.6918 36.0224 49.3221 36.0686C49.9516 36.1143 50.4821 36.1681 50.9126 36.2297V35.3537L50.913 35.3534ZM64.9276 47.0623C65.5096 47.2773 66.1121 47.4319 66.7258 47.5235C67.3404 47.6161 68.1388 47.6621 69.1233 47.6621C70.2294 47.6621 71.2432 47.4858 72.1652 47.1323C73.0876 46.7795 73.8788 46.2334 74.5396 45.4954C75.2004 44.7582 75.7227 43.829 76.1069 42.706C76.491 41.5849 76.6836 40.2561 76.6836 38.7185C76.6836 36.26 76.2296 34.3083 75.3235 32.8636C74.4162 31.4194 72.9332 30.697 70.8748 30.697C70.1065 30.697 69.3683 30.835 68.6625 31.112C67.9546 31.3886 67.325 31.8036 66.7717 32.3567C66.2186 32.9098 65.773 33.6095 65.4352 34.4546C65.0961 35.3005 64.9278 36.3062 64.9278 37.4744V47.063V47.0626L64.9276 47.0623ZM60.3635 27.2845C60.6761 27.2229 60.9911 27.177 61.3085 27.1465C61.6381 27.116 61.9689 27.1007 62.3 27.1008C62.6063 27.1008 62.9288 27.1166 63.2676 27.1465C63.6052 27.1777 63.9279 27.2241 64.2357 27.2847C64.266 27.3473 64.305 27.5384 64.3512 27.8614C64.3968 28.1843 64.443 28.5299 64.4894 28.8983C64.5356 29.2674 64.5815 29.6216 64.6277 29.9587C64.6739 30.2973 64.6969 30.5125 64.6969 30.6046C65.0035 30.1134 65.3727 29.6365 65.8031 29.1755C66.2335 28.7143 66.7489 28.2995 67.3481 27.9311C67.9474 27.562 68.6231 27.2703 69.3765 27.0548C70.1291 26.8399 70.9667 26.7314 71.8889 26.7314C73.2716 26.7314 74.555 26.9623 75.7388 27.4235C76.9214 27.8852 77.935 28.5987 78.7807 29.567C79.6255 30.5354 80.2861 31.7649 80.7629 33.2551C81.239 34.747 81.4771 36.5062 81.4771 38.5343C81.4771 42.5911 80.3782 45.7652 78.1803 48.0545C75.9824 50.3445 72.8714 51.4889 68.8453 51.4889C68.1688 51.4889 67.4777 51.4427 66.7707 51.3506C66.0633 51.258 65.4491 51.1349 64.9264 50.982V61.816C64.5369 61.8794 64.1449 61.9255 63.7514 61.9543C63.3361 61.9844 62.9593 62 62.6212 62C62.2444 61.9984 61.8677 61.9831 61.492 61.9543C61.1135 61.9275 60.7366 61.8813 60.3627 61.816V27.2847L60.3635 27.2845Z" fill="#918F8F"/>
</svg>
