<svg width="700" height="605" viewBox="0 0 700 605" fill="none" xmlns="http://www.w3.org/2000/svg">
<g filter="url(#filter0_d)">
<path opacity="0.27" d="M350 529.113C512.924 529.113 645 489.908 645 441.546C645 393.185 512.924 353.98 350 353.98C187.076 353.98 55 393.185 55 441.546C55 489.908 187.076 529.113 350 529.113Z" fill="url(#paint0_linear)"/>
<path opacity="0.43" d="M100.146 486.118H180.389C180.389 486.118 171.859 481.986 175.445 476.66C175.445 476.66 161.971 479.486 162.46 482.856C162.46 482.856 170.99 475.246 162.026 470.681C162.026 470.681 149.476 476.986 153.496 481.66C153.496 481.66 137.796 475.029 144.098 470.028C144.098 470.028 126.169 474.812 128.397 481.008C128.397 481.008 113.62 480.899 113.62 477.638C113.62 477.584 112.696 486.444 100.146 486.118Z" fill="url(#paint1_linear)"/>
<path opacity="0.43" d="M85.4778 451.928H267.748C267.748 451.928 248.407 442.524 256.556 430.403C256.556 430.403 226.024 436.817 227.056 444.481C227.056 444.481 246.397 427.142 226.024 416.76C226.024 416.76 197.502 431.11 206.683 441.763C206.683 441.763 171.044 426.653 185.278 415.292C185.278 415.292 144.532 426.164 149.639 440.296C149.639 440.296 116.064 440.024 116.064 432.632C116.064 432.632 114 452.689 85.4778 451.928Z" fill="url(#paint2_linear)"/>
<path opacity="0.43" d="M406.229 448.178H586.272C586.272 448.178 567.149 438.883 575.189 426.925C575.189 426.925 545.037 433.284 546.015 440.84C546.015 440.84 565.138 423.718 544.983 413.445C544.983 413.445 516.841 427.631 525.859 438.122C525.859 438.122 490.655 423.229 504.726 411.977C504.726 411.977 464.469 422.739 469.521 436.654C469.521 436.654 436.327 436.437 436.327 429.099C436.381 429.099 434.371 448.884 406.229 448.178Z" fill="url(#paint3_linear)"/>
<path opacity="0.37" d="M581.763 486.335H519.068C519.068 486.335 525.751 482.312 522.926 477.094C522.926 477.094 533.411 479.866 533.085 483.128C533.085 483.128 526.403 475.681 533.411 471.278C533.411 471.278 543.244 477.42 540.093 481.986C540.093 481.986 552.371 475.518 547.427 470.626C547.427 470.626 561.444 475.301 559.706 481.334C559.706 481.334 571.277 481.225 571.277 478.073C571.277 478.073 571.984 486.661 581.763 486.335Z" fill="url(#paint4_linear)"/>
<path opacity="0.48" d="M60.4871 445.677H97.7016C97.7016 445.677 93.7357 443.014 95.4199 439.644C95.4199 439.644 89.1722 441.437 89.3895 443.611C89.3895 443.611 93.3554 438.774 89.1722 435.839C89.1722 435.839 83.3591 439.861 85.2062 442.85C85.2062 442.85 77.9263 438.611 80.86 435.404C80.86 435.404 72.5478 438.448 73.5801 442.416C73.5801 442.416 66.7348 442.361 66.7348 440.241C66.6804 440.241 66.3001 445.894 60.4871 445.677Z" fill="url(#paint5_linear)"/>
<path opacity="0.48" d="M369.775 519.981H406.99C406.99 519.981 403.024 517.317 404.708 513.947C404.708 513.947 398.46 515.741 398.678 517.915C398.678 517.915 402.644 513.078 398.46 510.142C398.46 510.142 392.647 514.165 394.495 517.154C394.495 517.154 387.215 512.914 390.148 509.708C390.148 509.708 381.836 512.751 382.868 516.719C382.868 516.719 376.023 516.665 376.023 514.545C376.023 514.545 375.588 520.198 369.775 519.981Z" fill="url(#paint6_linear)"/>
<path opacity="0.48" d="M445.617 501.065H482.832C482.832 501.065 478.866 498.402 480.55 495.032C480.55 495.032 474.302 496.825 474.519 499C474.519 499 478.485 494.162 474.302 491.227C474.302 491.227 468.489 495.249 470.336 498.239C470.336 498.239 463.056 493.999 465.99 490.792C465.99 490.792 457.678 493.836 458.71 497.804C458.71 497.804 451.865 497.749 451.865 495.63C451.865 495.63 451.484 501.282 445.617 501.065Z" fill="url(#paint7_linear)"/>
<path opacity="0.48" d="M594.366 447.797H631.581C631.581 447.797 627.615 445.134 629.299 441.764C629.299 441.764 623.052 443.557 623.269 445.732C623.269 445.732 627.235 440.894 623.052 437.959C623.052 437.959 617.238 441.981 619.086 444.971C619.086 444.971 611.806 440.731 614.739 437.524C614.739 437.524 606.427 440.568 607.459 444.536C607.459 444.536 600.614 444.481 600.614 442.362C600.614 442.362 600.18 448.014 594.366 447.797Z" fill="url(#paint8_linear)"/>
<path opacity="0.48" d="M244.876 522.209H304.799C304.799 522.209 298.443 519.111 301.105 515.089C301.105 515.089 291.054 517.208 291.38 519.763C291.38 519.763 297.737 514.056 291.054 510.577C291.054 510.577 281.656 515.306 284.698 518.839C284.698 518.839 272.963 513.838 277.69 510.088C277.69 510.088 264.271 513.675 265.955 518.35C265.955 518.35 254.926 518.241 254.926 515.795C254.926 515.85 254.274 522.426 244.876 522.209Z" fill="url(#paint9_linear)"/>
<path opacity="0.25" d="M231.294 297.831L60.5414 297.287C60.5414 297.287 69.4511 271.849 102.319 279.622C102.319 279.622 116.553 265.598 138.773 265.598C160.994 265.598 168.11 277.013 168.11 277.013C168.11 277.013 174.358 267.174 195.655 268.207C217.006 269.24 219.668 278.589 219.668 278.589C219.668 278.589 246.397 286.905 231.294 297.831Z" fill="#D5D7D8"/>
<path opacity="0.38" d="M320.283 309.68L128.94 309.137C128.94 309.137 138.882 283.699 175.771 291.471C175.771 291.471 191.689 277.448 216.625 277.448C241.562 277.448 249.494 288.862 249.494 288.862C249.494 288.862 256.447 279.024 280.406 280.057C304.365 281.09 307.298 290.439 307.298 290.439C307.298 290.439 337.233 298.809 320.283 309.68Z" fill="#D5D7D8"/>
<path opacity="0.5" d="M402.644 210.59L573.396 210.264C573.396 210.264 564.486 194.664 531.618 199.447C531.618 199.447 517.384 190.859 495.164 190.859C472.944 190.859 465.827 197.871 465.827 197.871C465.827 197.871 459.579 191.838 438.283 192.436C416.932 193.088 414.27 198.795 414.27 198.795C414.27 198.795 387.541 203.905 402.644 210.59Z" fill="url(#paint10_linear)"/>
<path opacity="0.25" d="M428.504 149.713L579.155 149.387C579.155 149.387 571.332 132.972 542.266 137.972C542.266 137.972 529.716 128.895 510.104 128.895C490.492 128.895 484.19 136.287 484.19 136.287C484.19 136.287 478.703 129.928 459.851 130.58C440.999 131.232 438.663 137.266 438.663 137.266C438.663 137.266 415.139 142.701 428.504 149.713Z" fill="#D5D7D8"/>
<path opacity="0.5" d="M115.467 169.444L175.064 169.227C175.064 169.227 171.968 159.388 160.45 162.432C160.45 162.432 155.506 156.997 147.738 156.997C139.969 156.997 137.47 161.399 137.47 161.399C137.47 161.399 135.296 157.595 127.854 157.975C120.411 158.355 119.487 161.997 119.487 161.997C119.487 161.997 110.197 165.204 115.467 169.444Z" fill="url(#paint11_linear)"/>
<path opacity="0.25" d="M179.736 156.018L239.334 155.801C239.334 155.801 236.237 145.962 224.72 149.006C224.72 149.006 219.776 143.571 212.007 143.571C204.238 143.571 201.739 147.974 201.739 147.974C201.739 147.974 199.566 144.169 192.123 144.549C184.68 144.93 183.757 148.571 183.757 148.571C183.757 148.571 174.467 151.778 179.736 156.018Z" fill="#D5D7D8"/>
<path opacity="0.5" d="M506.193 228.691L565.79 228.474C565.79 228.474 562.693 218.635 551.176 221.679C551.176 221.679 546.232 216.244 538.463 216.244C530.694 216.244 528.195 220.646 528.195 220.646C528.195 220.646 526.022 216.842 518.579 217.222C511.136 217.603 510.213 221.244 510.213 221.244C510.213 221.244 500.923 224.451 506.193 228.691Z" fill="url(#paint12_linear)"/>
<path opacity="0.25" d="M60.8673 260.217L120.465 260C120.465 260 117.368 250.162 105.851 253.206C105.851 253.206 100.907 247.77 93.1381 247.77C85.3692 247.77 82.8701 252.173 82.8701 252.173C82.8701 252.173 80.697 248.368 73.2541 248.748C65.8112 249.129 64.8876 252.771 64.8876 252.771C64.8876 252.771 55.5975 256.032 60.8673 260.217Z" fill="#D5D7D8"/>
<path opacity="0.5" d="M101.885 138.57L264.108 138.298C264.108 138.298 255.633 125.579 224.394 129.493C224.394 129.493 210.867 122.481 189.733 122.481C168.599 122.481 161.863 128.188 161.863 128.188C161.863 128.188 155.941 123.242 135.677 123.785C115.413 124.329 112.859 129.004 112.859 129.004C112.859 129.004 87.4881 133.08 101.885 138.57Z" fill="url(#paint13_linear)"/>
<path opacity="0.68" d="M241.127 433.72C241.127 433.72 236.727 345.664 201.685 312.997L179.791 343.707L195.709 308.648C195.709 308.648 142.739 283.156 119.215 284.732C119.215 284.732 120.791 342.131 140.729 364.417L173 365.993L143.12 368.385C143.12 368.385 153.062 379.527 160.668 384.311L188.972 383.93L165.448 388.333C165.448 388.279 200.49 423.338 241.127 433.72Z" fill="url(#paint14_linear)"/>
<path opacity="0.68" d="M123.236 287.83C123.236 287.83 225.589 396.214 243.517 429.316Z" fill="url(#paint15_linear)"/>
<path opacity="0.68" d="M123.236 287.83C134.319 298.646 145.13 309.789 155.724 321.095C161.048 326.748 166.263 332.455 171.533 338.163C176.749 343.924 181.91 349.686 187.071 355.502C192.178 361.318 197.285 367.188 202.283 373.113C204.782 376.103 207.281 379.092 209.726 382.082L213.42 386.593L217.06 391.159C221.895 397.247 226.622 403.389 231.131 409.694C233.358 412.847 235.586 416.054 237.704 419.315C239.823 422.576 241.779 425.946 243.517 429.371C242.485 427.74 241.453 426.109 240.312 424.533C239.769 423.718 239.226 422.957 238.628 422.141L236.889 419.804C234.608 416.706 232.217 413.662 229.773 410.618C227.382 407.574 224.937 404.585 222.438 401.65C219.994 398.66 217.494 395.725 214.995 392.735C209.997 386.865 204.945 380.94 199.838 375.124C194.785 369.254 189.679 363.438 184.572 357.676C179.465 351.86 174.358 346.044 169.197 340.282L153.822 322.889C143.609 311.202 133.341 299.57 123.236 287.83Z" fill="#0092D7"/>
<path d="M238.193 412.629C238.193 412.629 255.089 355.502 240.041 326.857L219.233 341.533L237.215 322.726C237.215 322.726 209.128 294.624 193.808 290.384C193.808 290.384 182.018 327.346 189.733 345.99L209.943 354.197L190.385 349.034C190.385 349.034 194.242 358.383 197.991 363.112L216.082 369.199L200.11 366.753C200.11 366.753 214.615 396.921 238.193 412.629Z" fill="url(#paint16_linear)"/>
<path d="M195.655 293.266C195.655 293.266 236.672 385.235 240.747 410.347Z" fill="url(#paint17_linear)"/>
<path d="M195.655 293.266C200.49 302.56 204.999 312.018 209.345 321.585C211.518 326.368 213.583 331.151 215.702 335.934C217.766 340.772 219.776 345.61 221.732 350.447C225.644 360.177 229.392 369.961 232.76 379.908C234.445 384.854 236.02 389.855 237.487 394.964C238.845 400.019 240.203 405.129 240.747 410.401C239.497 405.292 237.759 400.4 235.966 395.453C235.097 393.007 234.173 390.561 233.195 388.115C232.272 385.67 231.348 383.224 230.37 380.832C226.567 371.102 222.601 361.427 218.69 351.752C216.788 346.914 214.778 342.077 212.822 337.185C210.921 332.347 208.911 327.509 207.009 322.617C203.097 312.888 199.24 303.104 195.655 293.266Z" fill="#0092D7"/>
<path opacity="0.68" d="M468.435 431.219C468.435 431.219 472.835 343.163 507.877 310.496L529.771 341.206L513.853 306.147C513.853 306.147 566.822 280.655 590.346 282.231C590.346 282.231 588.771 339.63 568.832 361.916L536.562 363.492L566.442 365.884C566.442 365.884 556.5 377.026 548.894 381.81L520.589 381.429L544.113 385.832C544.113 385.778 509.072 420.891 468.435 431.219Z" fill="url(#paint18_linear)"/>
<path opacity="0.68" d="M586.326 285.383C586.326 285.383 483.972 393.768 466.044 426.87Z" fill="url(#paint19_linear)"/>
<path opacity="0.68" d="M586.326 285.383C576.221 297.124 565.953 308.756 555.685 320.334L540.31 337.727C535.203 343.543 530.042 349.305 524.936 355.121C519.829 360.937 514.722 366.753 509.615 372.569C504.508 378.385 499.51 384.256 494.458 390.18C491.959 393.115 489.459 396.105 487.015 399.094C484.516 402.084 482.071 405.074 479.68 408.063C477.236 411.053 474.9 414.151 472.564 417.249L470.825 419.586C470.227 420.347 469.739 421.163 469.141 421.978C468 423.554 467.022 425.185 465.936 426.816C467.674 423.337 469.63 419.967 471.749 416.76C473.867 413.499 476.095 410.292 478.322 407.139C482.886 400.834 487.558 394.692 492.393 388.604L496.033 384.038L499.727 379.527C502.172 376.537 504.671 373.548 507.17 370.558C512.168 364.633 517.275 358.763 522.382 352.947C527.543 347.131 532.704 341.369 537.92 335.608C543.135 329.9 548.405 324.193 553.729 318.54C564.486 307.343 575.243 296.2 586.326 285.383Z" fill="#0092D7"/>
<path d="M233.521 423.338C233.521 423.338 191.526 400.998 177.998 388.659L194.079 393.605L176.26 386.865C176.26 386.865 167.296 374.146 169.577 371.7C169.577 371.7 197.013 386.104 206.52 394.04L205.271 398.334L208.259 395.29C208.259 395.29 212.985 399.258 214.832 401.378L212.877 404.694L216.462 402.954C216.462 402.9 231.076 415.837 233.521 423.338Z" fill="url(#paint20_linear)"/>
<path d="M170.881 372.896C170.881 372.896 216.516 412.14 231.294 422.522Z" fill="url(#paint21_linear)"/>
<path d="M170.881 372.896C176.26 376.646 181.475 380.56 186.582 384.582C191.689 388.604 196.741 392.735 201.794 396.866C206.792 401.052 211.736 405.237 216.679 409.531C221.623 413.825 226.458 418.119 231.348 422.467C228.469 420.837 225.752 419.043 223.036 417.249C220.319 415.401 217.712 413.499 215.05 411.542C209.834 407.629 204.727 403.552 199.729 399.367C194.731 395.181 189.787 390.887 184.952 386.539C180.117 382.136 175.336 377.679 170.881 372.896Z" fill="#0092D7"/>
<path d="M233.412 434.806C233.412 434.806 177.563 418.5 158.114 408.064L178.433 410.673L155.561 406.487C155.561 406.487 141.327 394.964 143.174 392.192C143.174 392.192 179.574 402.682 193.047 409.259L192.884 413.771L195.492 410.292C195.492 410.292 202.228 413.608 204.999 415.456L203.695 419.098L207.335 416.815C207.335 416.706 228.36 427.577 233.412 434.806Z" fill="url(#paint22_linear)"/>
<path d="M145.075 393.225C145.075 393.225 210.214 426.055 230.587 434.317Z" fill="url(#paint23_linear)"/>
<path d="M145.075 393.225C152.464 396.16 159.69 399.367 166.861 402.682C170.447 404.313 174.032 405.998 177.618 407.683L188.32 412.792C195.437 416.217 202.5 419.804 209.508 423.392C216.571 426.979 223.525 430.621 230.587 434.317C226.784 433.121 223.09 431.708 219.396 430.295L213.909 428.066C212.062 427.305 210.269 426.49 208.422 425.729C201.142 422.576 193.97 419.261 186.854 415.782C183.322 414.043 179.737 412.303 176.26 410.455C172.728 408.607 169.197 406.868 165.72 404.965C158.712 401.215 151.812 397.41 145.075 393.225Z" fill="#0092D7"/>
<path d="M470.119 432.741C470.119 432.741 503.259 384.908 519.34 369.743L510.43 388.17L521.622 367.787C521.622 367.787 537.051 357.894 539.115 360.557C539.115 360.557 517.656 391.812 507.116 402.465L502.879 400.889L505.378 404.476C505.378 404.476 500.108 409.803 497.5 411.869L494.458 409.477L495.49 413.662C495.49 413.717 478.54 430.186 470.119 432.741Z" fill="url(#paint24_linear)"/>
<path d="M537.485 362.024C537.485 362.024 485.765 413.445 471.477 430.132Z" fill="url(#paint25_linear)"/>
<path d="M537.485 362.024C532.379 368.058 527 373.928 521.622 379.69C518.96 382.625 516.189 385.452 513.472 388.332L505.215 396.866C499.673 402.519 494.077 408.118 488.482 413.662C482.886 419.206 477.181 424.696 471.477 430.186C473.813 426.979 476.312 423.881 478.866 420.837L482.723 416.325C484.027 414.803 485.331 413.39 486.689 411.868C492.013 405.998 497.391 400.236 502.933 394.583C505.704 391.811 508.474 388.985 511.299 386.213C514.124 383.44 516.949 380.668 519.829 377.951C525.588 372.515 531.401 367.134 537.485 362.024Z" fill="#0092D7"/>
<path d="M464.577 392.246C464.577 392.246 486.634 303.538 505.214 273.099L504.834 305.712L508.148 269.131C508.148 269.131 530.586 247.172 537.539 250.487C537.539 250.487 523.577 308.376 512.114 329.466L501.737 328.759L510.43 333.325C510.43 333.325 504.726 343.87 501.249 348.164L492.556 345.718L498.804 351.86C498.749 351.806 479.626 384.691 464.577 392.246Z" fill="url(#paint26_linear)"/>
<path d="M460.34 337.565C460.34 337.565 440.238 283.427 452.354 254.945L473.053 267.936L454.744 250.814C454.744 250.814 479.192 222.223 493.317 217.277C493.317 217.277 507.17 252.227 501.249 270.654L482.777 279.677L500.868 273.643C500.868 273.643 497.935 282.884 494.729 287.613L478.105 294.461L492.991 291.2C492.936 291.254 481.473 321.15 460.34 337.565Z" fill="url(#paint27_linear)"/>
<path d="M491.796 220.157C491.796 220.157 459.796 311.094 457.841 335.499Z" fill="url(#paint28_linear)"/>
<path d="M491.796 220.157C489.134 229.832 486.254 239.453 483.266 249.02C481.854 253.803 480.278 258.586 478.811 263.37L474.356 277.719C471.368 287.286 468.38 296.852 465.447 306.419L463.328 313.594C462.622 315.986 461.915 318.377 461.263 320.823C459.905 325.661 458.656 330.498 457.786 335.445C457.895 330.39 458.764 325.389 459.688 320.443C460.666 315.496 461.752 310.604 463.002 305.712C465.447 295.983 468.217 286.308 471.26 276.741C472.781 271.958 474.302 267.175 475.932 262.391C477.562 257.662 479.137 252.879 480.876 248.15C484.298 238.801 487.83 229.398 491.796 220.157Z" fill="#0092D7"/>
<path d="M535.475 253.368C535.475 253.368 478.214 355.502 464.849 387.626Z" fill="url(#paint29_linear)"/>
<path d="M535.475 253.368C529.879 264.728 524.066 275.98 518.199 287.177C515.319 292.776 512.277 298.374 509.343 303.973L500.434 320.714L482.451 354.088C479.463 359.687 476.475 365.231 473.541 370.83C472.02 373.602 470.608 376.428 469.141 379.201C468.761 379.907 468.38 380.614 468.054 381.32L467.022 383.44L464.903 387.68C466.044 384.745 467.076 381.755 468.38 378.82L470.227 374.472L471.151 372.297L472.129 370.123C473.433 367.242 474.737 364.362 476.095 361.481L480.224 352.947C482.994 347.24 485.874 341.641 488.753 335.988C491.633 330.335 494.621 324.791 497.554 319.192C500.597 313.648 503.585 308.05 506.627 302.56C509.724 297.015 512.766 291.526 515.971 286.036C522.273 274.947 528.684 264.076 535.475 253.368Z" fill="#0092D7"/>
<path d="M215.213 252.228C214.833 254.728 214.235 257.12 213.311 259.457L221.135 265.382L210.649 279.242L202.772 273.263C200.816 274.731 198.643 275.981 196.415 277.014L197.774 286.798L180.552 289.189L179.194 279.405C176.749 279.079 174.358 278.427 172.022 277.557L166.046 285.439L152.193 274.948L158.114 267.121C156.593 265.11 155.289 262.99 154.311 260.707L144.641 262.066L142.251 244.835L151.812 243.531C152.138 241.03 152.79 238.53 153.714 236.193L146.054 230.431L156.539 216.571L164.145 222.332C166.209 220.756 168.382 219.451 170.773 218.419L169.469 209.015L186.691 206.624L187.995 216.027C190.548 216.353 193.047 217.06 195.438 217.984L201.196 210.374L215.05 220.865L209.291 228.529C210.812 230.54 212.116 232.768 213.094 235.106L222.656 233.801L225.046 251.032L215.213 252.228Z" fill="url(#paint30_linear)"/>
<path d="M199.675 258.641C205.977 250.325 204.293 238.53 196.035 232.225C187.723 225.92 175.934 227.605 169.632 235.867C163.33 244.183 165.014 255.978 173.272 262.283C181.53 268.588 193.373 266.958 199.675 258.641Z" fill="#6C6D70"/>
<path d="M196.742 256.195C201.848 249.401 200.544 239.726 193.754 234.616C186.963 229.507 177.292 230.811 172.185 237.606C167.079 244.4 168.382 254.075 175.173 259.185C181.964 264.348 191.635 262.99 196.742 256.195Z" fill="white"/>
<path d="M483.158 95.956C483.158 92.9665 480.713 90.5205 477.725 90.5205H223.851C220.863 90.5205 218.418 92.9665 218.418 95.956V454.646C218.418 457.636 220.863 460.082 223.851 460.082H477.725C480.713 460.082 483.158 457.636 483.158 454.646V95.956Z" fill="#6C6D70"/>
<path d="M478.268 99.7607C478.268 96.7712 475.823 94.3252 472.835 94.3252H227.165C224.177 94.3252 221.732 96.7712 221.732 99.7607V450.08C221.732 453.07 224.177 455.516 227.165 455.516H472.835C475.823 455.516 478.268 453.07 478.268 450.08V99.7607Z" fill="#E9F7FE"/>
<path d="M531.292 171.727C530.314 172.27 529.282 172.705 528.195 172.977V177.325H520.481V172.923C519.449 172.597 518.416 172.216 517.438 171.672L514.342 174.771L508.855 169.281L511.951 166.183C511.408 165.204 510.973 164.226 510.702 163.139H506.301V155.366H510.647C510.919 154.279 511.354 153.246 511.897 152.268L508.855 149.224L514.342 143.734L517.384 146.778C518.362 146.234 519.394 145.799 520.481 145.473V141.179H528.25V145.419C529.336 145.745 530.423 146.18 531.401 146.723L534.389 143.734L539.876 149.224L536.888 152.213C537.431 153.192 537.866 154.279 538.192 155.366H542.429V163.139H538.137C537.811 164.226 537.377 165.259 536.834 166.237L539.876 169.281L534.389 174.771L531.292 171.727Z" fill="url(#paint31_linear)"/>
<path d="M516.732 166.346C520.753 170.368 527.218 170.368 531.184 166.346C535.204 162.324 535.204 155.855 531.184 151.887C527.163 147.865 520.698 147.865 516.732 151.887C512.712 155.91 512.712 162.378 516.732 166.346Z" fill="white"/>
<path d="M518.036 164.661C521.187 167.814 526.349 167.814 529.499 164.661C532.65 161.508 532.65 156.345 529.499 153.192C526.349 150.039 521.187 150.039 518.036 153.192C514.885 156.345 514.885 161.508 518.036 164.661Z" fill="#C5C6C8"/>
<path d="M174.304 301.962C174.521 302.886 174.576 303.756 174.576 304.68L177.998 305.713L176.151 311.801L172.674 310.768C172.185 311.529 171.588 312.236 170.936 312.888L172.62 316.095L166.97 319.084L165.286 315.877C164.416 316.095 163.493 316.149 162.569 316.149L161.537 319.628L155.452 317.78L156.485 314.355C155.724 313.866 155.018 313.268 154.366 312.616L151.215 314.301L148.227 308.648L151.323 306.963C151.106 306.039 150.997 305.115 151.052 304.191L147.683 303.158L149.531 297.07L152.845 298.103C153.334 297.288 153.931 296.581 154.637 295.929L153.008 292.831L158.658 289.841L160.288 292.939C161.211 292.722 162.135 292.668 163.113 292.668L164.145 289.352L170.23 291.2L169.197 294.57C169.958 295.059 170.718 295.657 171.316 296.364L174.413 294.679L177.401 300.332L174.304 301.962Z" fill="url(#paint32_linear)"/>
<path d="M167.241 311.692C171.37 309.518 172.892 304.409 170.718 300.278C168.545 296.147 163.438 294.625 159.31 296.799C155.181 298.973 153.659 304.082 155.833 308.213C158.06 312.344 163.167 313.866 167.241 311.692Z" fill="white"/>
<path d="M140.186 273.643C140.023 274.295 139.752 274.948 139.371 275.545L141.273 277.448L137.904 280.818L136.003 278.916C135.405 279.242 134.808 279.513 134.156 279.676V282.394H129.429V279.676C128.777 279.513 128.125 279.242 127.582 278.916L125.681 280.818L122.312 277.448L124.214 275.545C123.888 274.948 123.616 274.295 123.399 273.643H120.737V268.914H123.345C123.508 268.262 123.779 267.61 124.105 267.012L122.258 265.164L125.626 261.794L127.473 263.642C128.071 263.316 128.723 263.044 129.429 262.826V260.217H134.156V262.826C134.808 263.044 135.46 263.316 136.112 263.642L137.959 261.794L141.327 265.164L139.48 267.012C139.806 267.61 140.078 268.262 140.241 268.914H142.848V273.643H140.186Z" fill="#C2C2C2"/>
<path d="M131.765 274.839C133.721 274.839 135.297 273.263 135.297 271.306C135.297 269.349 133.721 267.773 131.765 267.773C129.81 267.773 128.234 269.349 128.234 271.306C128.288 273.263 129.864 274.839 131.765 274.839Z" fill="white"/>
<path d="M502.172 146.833C502.009 147.485 501.738 148.137 501.358 148.735L503.259 150.637L499.891 154.007L497.989 152.105C497.392 152.431 496.794 152.703 496.142 152.866V155.584H491.416V152.866C490.764 152.703 490.112 152.431 489.568 152.105L487.667 154.007L484.299 150.637L486.2 148.735C485.874 148.137 485.602 147.485 485.385 146.833H482.723V142.104H485.331C485.494 141.451 485.766 140.799 486.091 140.201L484.244 138.299L487.613 134.929L489.46 136.777C490.057 136.451 490.709 136.179 491.416 135.961V133.407H496.142V136.016C496.794 136.233 497.446 136.505 498.098 136.831L499.945 134.983L503.313 138.353L501.466 140.201C501.792 140.799 502.064 141.451 502.227 142.104H504.835V146.833H502.172Z" fill="#C2C2C2"/>
<path d="M252.536 94.8149C236.292 94.8149 229.664 133.625 242.92 151.018L451.267 424.697C462.296 439.155 477.508 424.534 477.508 399.422V125.743C477.508 108.676 470.065 94.8149 460.883 94.8149H252.536Z" fill="#E0F3FB"/>
<path d="M293.934 107.534H245.745C240.312 107.534 235.912 111.936 235.912 117.372V148.083C235.912 153.518 240.312 157.921 245.745 157.921H293.88C299.312 157.921 303.713 153.518 303.713 148.083V117.372C303.767 111.936 299.367 107.534 293.934 107.534Z" fill="#43B5E8"/>
<path d="M443.987 279.622H449.42C449.42 279.622 454.581 271.686 457.135 254.129C459.416 238.638 456.537 224.18 456.537 224.18L449.148 247.933L443.987 279.622Z" fill="#D0E1F4"/>
<path d="M337.45 173.304H243.192C237.705 173.304 233.195 177.761 233.195 183.305V248.205C233.195 253.695 237.65 258.207 243.192 258.207H337.45C342.938 258.207 347.447 253.749 347.447 248.205V183.305C347.392 177.761 342.938 173.304 337.45 173.304Z" fill="#43B5E8"/>
<path d="M453.169 107.534H384.987C379.555 107.534 375.154 111.936 375.154 117.372V148.083C375.154 153.518 379.555 157.921 384.987 157.921H453.114C458.547 157.921 462.948 153.518 462.948 148.083V117.372C463.002 111.936 458.602 107.534 453.169 107.534Z" fill="#43B5E8"/>
<path d="M258.404 131.667H252.482V149.496H258.404V131.667Z" fill="white"/>
<path d="M272.801 125.308H266.879V149.551H272.801V125.308Z" fill="#E1E2E1"/>
<path d="M287.143 115.524H281.221V149.496H287.143V115.524Z" fill="#C2C2C2"/>
<path d="M334.463 235.269C331.149 235.269 330.334 229.181 329.41 222.115C328.595 215.755 327.617 208.58 324.629 208.58C321.967 208.58 321.913 214.559 321.913 220.375C321.913 227.659 321.913 235.214 316.969 235.214C316.317 235.214 315.719 235.051 315.176 234.616C312.677 232.714 313.003 225.974 313.329 218.853C313.709 211.461 314.09 203.145 311.047 200.807C310.504 200.372 309.798 200.155 309.091 200.155C308.548 200.155 308.059 200.318 307.625 200.59C305.343 202.329 305.832 208.363 306.266 214.179C306.701 219.995 307.136 225.539 304.908 227.278C304.419 227.659 303.767 227.876 303.17 227.822C302.463 227.822 301.757 227.604 301.16 227.224C299.095 225.702 299.095 221.462 299.149 216.951C299.204 212.494 299.258 207.874 297.139 206.352C296.596 205.971 295.998 205.808 295.346 205.808C294.803 205.808 294.26 205.971 293.825 206.297C291.544 207.982 291.652 213.581 291.707 219.016C291.761 224.778 291.87 230.214 289.425 232.062C288.827 232.496 288.121 232.714 287.36 232.714C286.763 232.714 286.165 232.551 285.676 232.17C283.014 230.159 283.286 222.658 283.503 214.668C283.775 206.406 284.046 197.818 281.113 195.644C280.678 195.317 280.135 195.154 279.591 195.154C274.756 195.154 273.833 204.014 273.018 211.787C272.257 219.016 271.605 225.213 268.074 225.213C264.38 225.213 264.271 220.158 264.162 214.777C264.054 209.45 263.945 203.416 260.033 203.416C255.85 203.416 254.764 210.211 253.786 216.19C252.916 221.571 252.156 226.246 249.222 226.246C247.918 226.3 246.614 225.919 245.582 225.158C243.463 223.473 243.735 220.43 243.789 220.321L244.659 220.375C244.659 220.43 244.387 223.256 246.234 224.724C247.103 225.376 248.19 225.648 249.222 225.593C251.395 225.593 252.156 220.756 252.916 216.136C254.003 209.559 255.09 202.764 260.033 202.764C264.814 202.764 264.923 208.852 265.032 214.722C265.14 219.56 265.195 224.561 268.074 224.561C270.845 224.561 271.497 218.038 272.203 211.678C273.072 203.199 273.996 194.448 279.646 194.448C280.406 194.448 281.167 194.665 281.819 195.154C285.024 197.546 284.753 206.243 284.481 214.668C284.264 222.169 283.992 229.942 286.382 231.735C286.708 231.953 287.089 232.116 287.469 232.116C288.012 232.116 288.501 231.953 288.936 231.681C291.163 230.05 291.055 224.506 291 219.125C290.946 213.309 290.837 207.819 293.336 205.971C293.934 205.536 294.695 205.319 295.455 205.319C296.324 205.319 297.139 205.536 297.846 206.025C300.182 207.765 300.182 212.494 300.127 217.06C300.073 221.245 300.073 225.539 301.866 226.898C302.246 227.17 302.789 227.333 303.278 227.333C303.713 227.333 304.093 227.224 304.419 226.952C306.375 225.43 305.94 219.777 305.56 214.342C305.071 208.091 304.637 202.221 307.19 200.264C307.788 199.829 308.548 199.612 309.254 199.612C310.178 199.612 311.047 199.883 311.808 200.427C315.122 202.982 314.687 211.08 314.307 218.962C313.981 225.648 313.655 232.551 315.882 234.29C316.208 234.562 316.643 234.671 317.078 234.671C321.098 234.671 321.152 227.115 321.152 220.43C321.152 213.744 321.152 207.982 324.738 207.982C328.541 207.982 329.41 214.831 330.388 222.06C331.149 227.931 332.018 234.616 334.571 234.616C339.189 234.616 340.167 224.234 340.167 220.212H341.036C340.982 222.712 340.765 225.158 340.276 227.604C339.135 232.659 337.179 235.269 334.463 235.269Z" fill="#049DD7"/>
<path d="M331.474 240.215C328.16 240.215 327.346 234.127 326.422 227.061C325.607 220.701 324.629 213.526 321.641 213.526C318.979 213.526 318.925 219.506 318.925 225.322C318.925 232.605 318.925 240.161 313.981 240.161C313.329 240.161 312.731 239.997 312.188 239.563C309.689 237.66 310.015 230.92 310.341 223.8C310.721 216.407 311.102 208.091 308.059 205.754C307.516 205.319 306.81 205.101 306.103 205.101C305.56 205.101 305.071 205.264 304.637 205.536C302.355 207.276 302.844 213.309 303.278 219.125C303.713 224.941 304.148 230.485 301.92 232.225C301.431 232.605 300.779 232.823 300.182 232.768C299.475 232.768 298.769 232.551 298.172 232.17C296.107 230.648 296.107 226.409 296.161 221.897C296.216 217.44 296.27 212.82 294.151 211.298C293.608 210.917 293.01 210.754 292.358 210.754C291.815 210.754 291.272 210.917 290.837 211.244C288.556 212.929 288.664 218.527 288.718 223.963C288.773 229.724 288.881 235.16 286.437 237.008C285.839 237.443 285.133 237.66 284.372 237.66C283.775 237.66 283.177 237.497 282.688 237.117C280.026 235.105 280.298 227.604 280.515 219.614C280.787 211.352 281.058 202.764 278.125 200.59C277.69 200.264 277.147 200.101 276.603 200.101C271.768 200.101 270.845 208.961 270.03 216.733C269.269 223.963 268.617 230.159 265.086 230.159C261.392 230.159 261.283 225.104 261.174 219.723C261.066 214.396 260.957 208.363 257.045 208.363C252.862 208.363 251.776 215.157 250.798 221.136C249.928 226.517 249.168 231.192 246.234 231.192C244.93 231.246 243.626 230.866 242.594 230.105C240.475 228.42 240.747 225.376 240.801 225.267L241.671 225.322C241.671 225.376 241.399 228.202 243.246 229.67C244.115 230.322 245.202 230.594 246.234 230.54C248.407 230.54 249.168 225.702 249.928 221.082C251.015 214.505 252.102 207.71 257.045 207.71C261.826 207.71 261.935 213.798 262.044 219.669C262.152 224.506 262.206 229.507 265.086 229.507C267.857 229.507 268.509 222.984 269.215 216.625C270.084 208.145 271.008 199.394 276.658 199.394C277.418 199.394 278.179 199.611 278.831 200.101C282.036 202.492 281.765 211.189 281.493 219.614C281.276 227.115 281.004 234.888 283.394 236.682C283.72 236.899 284.101 237.062 284.481 237.062C285.024 237.062 285.513 236.899 285.948 236.627C288.175 234.997 288.067 229.453 288.012 224.071C287.958 218.255 287.849 212.765 290.348 210.917C290.946 210.483 291.707 210.265 292.467 210.265C293.336 210.265 294.151 210.483 294.858 210.972C297.194 212.711 297.194 217.44 297.139 222.006C297.085 226.191 297.085 230.485 298.878 231.844C299.258 232.116 299.801 232.279 300.29 232.279C300.725 232.279 301.105 232.17 301.431 231.899C303.387 230.377 302.952 224.724 302.572 219.288C302.083 213.037 301.648 207.167 304.202 205.21C304.8 204.775 305.56 204.558 306.266 204.558C307.19 204.558 308.059 204.83 308.82 205.373C312.134 207.928 311.699 216.027 311.319 223.908C310.993 230.594 310.667 237.497 312.894 239.236C313.22 239.508 313.655 239.617 314.09 239.617C318.11 239.617 318.164 232.062 318.164 225.376C318.164 218.69 318.164 212.929 321.75 212.929C325.553 212.929 326.422 219.777 327.4 227.007C328.16 232.877 329.03 239.563 331.583 239.563C336.201 239.563 337.179 229.181 337.179 225.158H338.048C337.994 227.659 337.777 230.105 337.288 232.551C336.147 237.66 334.245 240.215 331.474 240.215Z" fill="white"/>
<path d="M418.671 170.096L423.288 164.933H413.998L418.671 170.096Z" fill="#C2C2C2"/>
<path d="M401.068 113.187H380.641V122.916H401.068V113.187Z" fill="white"/>
<path d="M404.002 126.993H380.641C380.532 126.993 380.424 126.939 380.369 126.884C380.315 126.83 380.261 126.721 380.261 126.558C380.261 126.45 380.315 126.341 380.369 126.286C380.424 126.232 380.532 126.178 380.641 126.178H404.002C404.111 126.178 404.219 126.232 404.328 126.286C404.382 126.341 404.437 126.45 404.437 126.558C404.437 126.667 404.382 126.776 404.328 126.884C404.219 126.939 404.111 126.993 404.002 126.993Z" fill="white"/>
<path d="M408.403 131.776H380.641C380.532 131.776 380.424 131.722 380.369 131.668C380.315 131.613 380.261 131.504 380.261 131.341C380.261 131.233 380.315 131.124 380.369 131.07C380.424 131.015 380.532 130.961 380.641 130.961H408.403C408.511 130.961 408.62 131.015 408.674 131.07C408.729 131.124 408.783 131.233 408.783 131.341C408.783 131.45 408.729 131.559 408.674 131.668C408.62 131.722 408.511 131.776 408.403 131.776Z" fill="#C2C2C2"/>
<path d="M413.89 136.559H380.641C380.532 136.559 380.424 136.505 380.369 136.451C380.315 136.396 380.261 136.288 380.261 136.125C380.261 136.016 380.315 135.907 380.369 135.853C380.424 135.799 380.532 135.744 380.641 135.744H413.89C413.998 135.744 414.107 135.799 414.216 135.853C414.27 135.907 414.324 136.016 414.324 136.125C414.324 136.233 414.27 136.342 414.216 136.451C414.107 136.505 413.998 136.559 413.89 136.559Z" fill="white"/>
<path d="M457.352 147.104H380.75V150.638H457.352V147.104Z" fill="#C2C2C2"/>
<path d="M447.247 135.364C452.136 130.472 452.136 122.59 447.247 117.752C442.357 112.861 434.48 112.861 429.645 117.752C424.755 122.644 424.755 130.526 429.645 135.364C434.48 140.256 442.412 140.256 447.247 135.364Z" fill="white"/>
<path d="M324.575 150.692C321.424 147.593 319.359 143.571 318.653 139.223C317.947 134.874 318.599 130.417 320.554 126.449C322.51 122.481 325.661 119.22 329.573 117.154C333.484 115.089 337.939 114.274 342.286 114.871L341.742 119.057C338.265 118.568 334.68 119.22 331.583 120.905C328.486 122.59 325.933 125.145 324.412 128.352C322.836 131.504 322.347 135.092 322.891 138.57C323.488 142.049 325.118 145.256 327.617 147.756L324.575 150.692Z" fill="#C2C2C2"/>
<path d="M339.461 156.78C338.211 156.78 336.961 156.671 335.712 156.453L336.473 152.322C337.45 152.486 338.483 152.594 339.461 152.594C342.938 152.594 346.306 151.561 349.131 149.55C351.956 147.594 354.129 144.767 355.324 141.506C356.52 138.244 356.682 134.711 355.813 131.396C354.944 128.08 353.043 125.09 350.435 122.808L353.151 119.601C356.465 122.373 358.801 126.123 359.888 130.309C360.974 134.494 360.757 138.897 359.29 142.973C357.823 147.05 355.107 150.529 351.576 152.975C347.99 155.475 343.752 156.78 339.461 156.78Z" fill="#43B5E8"/>
<path d="M349.566 118.514V124.004L354.998 119.057L349.566 118.514Z" fill="#43B5E8"/>
<path d="M339.189 179.174H333.484V184.881H339.189V179.174Z" fill="white"/>
<path d="M329.79 181.076H320.609C320.555 181.076 320.5 181.022 320.446 180.968C320.392 180.913 320.392 180.859 320.392 180.804C320.392 180.75 320.392 180.641 320.446 180.641C320.5 180.587 320.555 180.533 320.609 180.533H329.79C329.845 180.533 329.845 180.533 329.899 180.533C329.953 180.533 329.953 180.587 330.008 180.587C330.062 180.587 330.062 180.641 330.062 180.696C330.062 180.75 330.062 180.75 330.062 180.804C330.062 180.859 330.062 180.859 330.062 180.913C330.062 180.968 330.008 180.968 330.008 181.022C329.953 181.022 329.953 181.076 329.899 181.076C329.845 181.076 329.845 181.131 329.79 181.076Z" fill="#5FBDEB"/>
<path d="M329.79 183.522H311.373C311.319 183.522 311.319 183.522 311.265 183.522C311.21 183.522 311.21 183.468 311.156 183.468C311.102 183.468 311.102 183.413 311.102 183.359C311.102 183.305 311.102 183.305 311.102 183.25C311.102 183.196 311.102 183.196 311.102 183.142C311.102 183.087 311.156 183.087 311.156 183.033C311.21 183.033 311.21 182.979 311.265 182.979C311.319 182.979 311.319 182.979 311.373 182.979H329.79C329.845 182.979 329.845 182.979 329.899 182.979C329.953 182.979 329.953 183.033 330.008 183.033C330.062 183.033 330.062 183.087 330.062 183.142C330.062 183.196 330.062 183.196 330.062 183.25C330.062 183.305 330.062 183.305 330.062 183.359C330.062 183.413 330.008 183.413 330.008 183.468C329.953 183.468 329.953 183.522 329.899 183.522C329.845 183.522 329.845 183.522 329.79 183.522Z" fill="#5FBDEB"/>
<path d="M339.189 187.653H333.484V193.36H339.189V187.653Z" fill="#049DD7"/>
<path d="M329.79 189.61H320.609C320.555 189.61 320.5 189.556 320.446 189.501C320.392 189.447 320.392 189.393 320.392 189.338C320.392 189.284 320.392 189.175 320.446 189.175C320.5 189.121 320.555 189.066 320.609 189.066H329.79C329.845 189.066 329.845 189.066 329.899 189.066C329.953 189.066 329.953 189.121 330.008 189.121C330.062 189.121 330.062 189.175 330.062 189.229C330.062 189.284 330.062 189.284 330.062 189.338C330.062 189.393 330.062 189.393 330.062 189.447C330.062 189.501 330.008 189.501 330.008 189.556C329.953 189.556 329.953 189.61 329.899 189.61C329.845 189.61 329.845 189.61 329.79 189.61Z" fill="#5FBDEB"/>
<path d="M458.764 301.038C458.764 304.028 456.32 306.474 453.332 306.474H375.371C372.383 306.474 369.938 304.028 369.938 301.038V184.881C369.938 181.892 372.383 179.446 375.371 179.446H453.332C456.32 179.446 458.764 181.892 458.764 184.881V301.038Z" fill="#43B5E8"/>
<path d="M458.764 366.917C458.764 369.906 456.32 372.352 453.332 372.352H375.371C372.383 372.352 369.938 369.906 369.938 366.917V317.127C369.938 314.138 372.383 311.692 375.371 311.692H453.332C456.32 311.692 458.764 314.138 458.764 317.127V366.917Z" fill="#43B5E8"/>
<path d="M458.764 433.176C458.764 436.166 456.32 438.612 453.332 438.612H375.371C372.383 438.612 369.938 436.166 369.938 433.176V383.387C369.938 380.397 372.383 377.951 375.371 377.951H453.332C456.32 377.951 458.764 380.397 458.764 383.387V433.176Z" fill="#43B5E8"/>
<path d="M329.79 192.002H311.373C311.319 192.002 311.319 192.002 311.265 192.002C311.21 192.002 311.21 191.948 311.156 191.948C311.102 191.948 311.102 191.893 311.102 191.839C311.102 191.785 311.102 191.785 311.102 191.73C311.102 191.676 311.102 191.676 311.102 191.622C311.102 191.567 311.156 191.567 311.156 191.513C311.21 191.513 311.21 191.458 311.265 191.458C311.319 191.458 311.319 191.458 311.373 191.458H329.79C329.845 191.458 329.845 191.458 329.899 191.458C329.953 191.458 329.953 191.513 330.008 191.513C330.062 191.513 330.062 191.567 330.062 191.622C330.062 191.676 330.062 191.676 330.062 191.73C330.062 191.785 330.062 191.785 330.062 191.839C330.062 191.893 330.008 191.893 330.008 191.948C329.953 191.948 329.953 192.002 329.899 192.002C329.845 192.002 329.845 192.002 329.79 192.002Z" fill="#5FBDEB"/>
<path d="M328.486 151.616V146.126L323.053 151.072L328.486 151.616Z" fill="#C2C2C2"/>
<path d="M158.549 309.191C161.211 311.855 165.503 311.855 168.111 309.191C170.773 306.528 170.773 302.234 168.111 299.625C165.449 296.962 161.157 296.962 158.549 299.625C155.887 302.234 155.887 306.528 158.549 309.191Z" fill="#C5C6C8"/>
<path d="M447.084 185.479H380.75V192.056H447.084V185.479Z" fill="white"/>
<path d="M444.639 201.732H382.38C382.108 201.732 381.891 201.677 381.728 201.568C381.565 201.46 381.456 201.297 381.456 201.134C381.456 200.971 381.565 200.807 381.728 200.699C381.891 200.59 382.162 200.536 382.38 200.536H444.639C444.911 200.536 445.128 200.59 445.291 200.699C445.454 200.807 445.563 200.971 445.563 201.134C445.563 201.297 445.454 201.46 445.291 201.568C445.128 201.623 444.911 201.732 444.639 201.732Z" fill="white"/>
<path d="M444.422 209.232H382.162C381.891 209.232 381.674 209.178 381.511 209.069C381.348 208.961 381.239 208.798 381.239 208.635C381.239 208.471 381.348 208.308 381.511 208.2C381.674 208.091 381.945 208.037 382.162 208.037H444.422C444.694 208.037 444.911 208.091 445.074 208.2C445.237 208.308 445.346 208.471 445.346 208.635C445.346 208.798 445.237 208.961 445.074 209.069C444.911 209.178 444.694 209.232 444.422 209.232Z" fill="white"/>
<path d="M444.422 216.788H382.162C381.891 216.788 381.674 216.734 381.511 216.625C381.348 216.516 381.239 216.353 381.239 216.19C381.239 216.027 381.348 215.864 381.511 215.755C381.674 215.647 381.945 215.592 382.162 215.592H444.422C444.694 215.592 444.911 215.647 445.074 215.755C445.237 215.864 445.346 216.027 445.346 216.19C445.346 216.353 445.237 216.516 445.074 216.625C444.911 216.679 444.694 216.788 444.422 216.788Z" fill="white"/>
<path d="M444.639 239.78H382.38C382.108 239.78 381.891 239.726 381.728 239.617C381.565 239.508 381.456 239.345 381.456 239.182C381.456 239.019 381.565 238.856 381.728 238.748C381.891 238.639 382.162 238.584 382.38 238.584H444.639C444.911 238.584 445.128 238.639 445.291 238.748C445.454 238.856 445.563 239.019 445.563 239.182C445.563 239.345 445.454 239.508 445.291 239.617C445.128 239.726 444.911 239.78 444.639 239.78Z" fill="white"/>
<path d="M444.639 271.958H382.38C382.108 271.958 381.891 271.904 381.728 271.795C381.565 271.687 381.456 271.524 381.456 271.361C381.456 271.198 381.565 271.034 381.728 270.926C381.891 270.817 382.162 270.763 382.38 270.763H444.639C444.911 270.763 445.128 270.817 445.291 270.926C445.454 271.034 445.563 271.198 445.563 271.361C445.563 271.524 445.454 271.687 445.291 271.795C445.128 271.904 444.911 271.958 444.639 271.958Z" fill="white"/>
<path d="M444.205 280.981H381.945C381.673 280.981 381.456 280.927 381.293 280.818C381.13 280.71 381.021 280.547 381.021 280.384C381.021 280.22 381.13 280.057 381.293 279.949C381.456 279.84 381.728 279.786 381.945 279.786H444.205C444.476 279.786 444.694 279.84 444.857 279.949C445.02 280.057 445.128 280.22 445.128 280.384C445.128 280.547 445.02 280.71 444.857 280.818C444.694 280.873 444.476 280.981 444.205 280.981Z" fill="white"/>
<path d="M444.205 289.732H381.945C381.673 289.732 381.456 289.678 381.293 289.569C381.13 289.461 381.021 289.298 381.021 289.135C381.021 288.971 381.13 288.808 381.293 288.7C381.456 288.591 381.728 288.537 381.945 288.537H444.205C444.476 288.537 444.694 288.591 444.857 288.7C445.02 288.808 445.128 288.971 445.128 289.135C445.128 289.298 445.02 289.461 444.857 289.569C444.694 289.678 444.476 289.732 444.205 289.732Z" fill="white"/>
<path d="M444.422 247.934H382.162C381.891 247.934 381.674 247.879 381.511 247.771C381.348 247.662 381.239 247.499 381.239 247.336C381.239 247.173 381.348 247.01 381.511 246.901C381.674 246.792 381.945 246.738 382.162 246.738H444.422C444.694 246.738 444.911 246.792 445.074 246.901C445.237 247.01 445.346 247.173 445.346 247.336C445.346 247.499 445.237 247.662 445.074 247.771C444.911 247.879 444.694 247.934 444.422 247.934Z" fill="white"/>
<path d="M444.639 256.086H382.38C382.108 256.086 381.891 256.032 381.728 255.923C381.565 255.815 381.456 255.652 381.456 255.489C381.456 255.325 381.565 255.162 381.728 255.054C381.891 254.945 382.162 254.891 382.38 254.891H444.639C444.911 254.891 445.128 254.945 445.291 255.054C445.454 255.162 445.563 255.325 445.563 255.489C445.563 255.652 445.454 255.815 445.291 255.923C445.128 256.032 444.911 256.086 444.639 256.086Z" fill="white"/>
<path d="M493.806 147.648C495.762 147.648 497.337 146.071 497.337 144.115C497.337 142.158 495.762 140.582 493.806 140.582C491.85 140.582 490.275 142.158 490.275 144.115C490.275 146.071 491.85 147.648 493.806 147.648Z" fill="white"/>
<path d="M349.62 437.47C349.62 440.46 347.175 442.906 344.187 442.906H238.248C235.26 442.906 232.815 440.46 232.815 437.47V403.498C232.815 400.508 235.26 398.062 238.248 398.062H344.187C347.175 398.062 349.62 400.508 349.62 403.498V437.47Z" fill="#76CCF3"/>
<path d="M261.772 441.166C255.904 441.166 255.904 433.611 255.904 426.327C255.904 420.511 255.904 414.532 252.699 414.532C249.113 414.532 247.973 421.707 246.995 428.067C245.908 435.133 244.93 441.221 240.964 441.221C237.705 441.221 235.423 438.666 234.173 433.611C233.63 431.165 233.304 428.665 233.25 426.219H234.282C234.282 430.241 235.477 440.623 240.964 440.623C244.007 440.623 245.039 433.937 245.962 428.067C247.103 420.837 248.19 413.989 252.699 413.989C256.937 413.989 256.937 419.75 256.937 426.436C256.937 433.122 256.991 440.677 261.772 440.677C262.261 440.677 262.75 440.568 263.184 440.297C265.901 438.557 265.466 431.654 265.086 424.968C264.597 417.087 264.162 408.988 268.074 406.433C268.943 405.89 270.03 405.564 271.116 405.618C271.985 405.618 272.909 405.835 273.615 406.27C276.603 408.173 276.114 414.097 275.517 420.348C275.028 425.784 274.539 431.437 276.875 432.959C277.255 433.23 277.744 433.339 278.233 433.339C278.831 433.339 279.428 433.23 279.917 432.904C282.09 431.545 282.036 427.251 281.982 423.066C281.927 418.5 281.873 413.771 284.698 412.032C285.513 411.543 286.545 411.271 287.523 411.325C288.447 411.325 289.316 411.543 290.077 411.977C293.065 413.826 292.956 419.315 292.902 425.131C292.793 430.513 292.739 436.057 295.346 437.687C295.835 438.014 296.487 438.177 297.085 438.122C297.574 438.122 298.009 438.014 298.389 437.742C301.268 435.948 300.942 428.175 300.671 420.674C300.345 412.249 300.019 403.607 303.822 401.161C304.582 400.726 305.451 400.454 306.375 400.454C313.057 400.454 314.144 409.205 315.23 417.685C315.991 423.99 316.806 430.567 320.12 430.567C323.543 430.567 323.651 425.566 323.76 420.729C323.869 414.858 324.032 408.77 329.736 408.77C335.603 408.77 336.907 415.565 338.211 422.142C339.135 426.816 340.058 431.6 342.612 431.6C343.916 431.654 345.165 431.328 346.197 430.73C348.425 429.262 348.099 426.382 348.099 426.382L349.131 426.327C349.131 426.436 349.511 429.48 346.958 431.165C345.708 431.926 344.187 432.306 342.612 432.252C339.135 432.252 338.211 427.577 337.179 422.196C336.038 416.217 334.734 409.423 329.736 409.423C325.064 409.423 324.901 415.456 324.792 420.783C324.683 426.164 324.575 431.219 320.12 431.219C315.882 431.219 315.122 424.968 314.198 417.793C313.22 410.021 312.134 401.161 306.375 401.161C305.723 401.161 305.071 401.324 304.528 401.65C300.997 403.878 301.323 412.412 301.648 420.674C301.974 428.665 302.246 436.22 299.095 438.177C298.497 438.557 297.791 438.72 297.085 438.72C296.216 438.72 295.346 438.503 294.64 438.068C291.706 436.274 291.815 430.784 291.869 425.023C291.978 419.587 292.032 413.934 289.37 412.304C288.827 411.977 288.23 411.814 287.578 411.814C286.817 411.814 286.056 411.977 285.459 412.358C282.96 413.934 283.014 418.5 283.068 422.957C283.123 427.469 283.177 431.708 280.678 433.23C279.972 433.665 279.157 433.883 278.288 433.828C277.527 433.828 276.821 433.665 276.169 433.285C273.561 431.6 274.05 426.055 274.539 420.185C275.028 414.369 275.571 408.336 272.909 406.596C272.42 406.27 271.768 406.107 271.171 406.161C270.356 406.161 269.541 406.379 268.834 406.814C265.195 409.151 265.683 417.522 266.118 424.86C266.553 431.98 266.933 438.72 263.945 440.623C263.293 441.003 262.532 441.166 261.772 441.166Z" fill="#ECF2FA"/>
<path d="M551.502 79.9212V97.8041H541.614C540.908 100.304 539.93 102.75 538.681 105.033L545.635 111.991L532.976 124.656L526.077 117.752C523.795 119.057 521.35 120.09 518.797 120.796V130.58H500.923V120.796C498.369 120.09 495.925 119.057 493.643 117.752L486.635 124.71L473.976 112.045L480.93 105.088C479.681 102.805 478.648 100.359 477.997 97.8584H468.109V79.9756H478.16C478.866 77.4752 479.898 75.138 481.148 72.855L474.031 65.7345L486.689 53.0697L493.86 60.2446C496.088 58.9945 498.424 58.0161 500.869 57.3638V47.145H518.742V57.3094C521.187 58.0161 523.578 58.9945 525.751 60.1903L532.922 53.0154L545.58 65.6801L538.463 72.8007C539.713 75.0292 540.745 77.4209 541.451 79.9212H551.502Z" fill="url(#paint33_linear)"/>
<path d="M525.208 103.892C533.465 95.63 533.465 82.1499 525.208 73.8879C516.95 65.6259 503.476 65.6259 495.219 73.8879C486.961 82.1499 486.961 95.63 495.219 103.892C503.531 112.208 516.95 112.208 525.208 103.892Z" fill="#6C6D70"/>
<path d="M497.391 76.3883C490.6 83.1827 490.6 94.2712 497.391 101.066C504.182 107.86 515.265 107.86 522.056 101.066C528.847 94.2712 528.847 83.1827 522.056 76.3883C515.265 69.5939 504.237 69.5939 497.391 76.3883Z" fill="white"/>
<path d="M246.288 166.074C246.288 166.509 246.18 166.889 245.908 167.27C245.636 167.65 245.365 167.868 244.93 168.031C244.55 168.194 244.115 168.248 243.681 168.139C243.246 168.031 242.866 167.867 242.594 167.541C242.322 167.27 242.105 166.889 241.996 166.454C241.888 166.019 241.942 165.639 242.105 165.204C242.268 164.824 242.54 164.497 242.866 164.226C243.192 164.008 243.626 163.845 244.061 163.845C244.604 163.845 245.147 164.063 245.582 164.443C246.071 164.987 246.288 165.53 246.288 166.074Z" fill="url(#paint34_linear)"/>
<path d="M254.437 168.194C255.633 168.194 256.556 167.27 256.556 166.074C256.556 164.878 255.633 163.954 254.437 163.954C253.242 163.954 252.319 164.878 252.319 166.074C252.319 167.27 253.297 168.194 254.437 168.194Z" fill="url(#paint35_linear)"/>
<path d="M266.227 166.074C266.227 166.509 266.118 166.889 265.846 167.27C265.575 167.65 265.303 167.868 264.868 168.031C264.488 168.194 264.053 168.248 263.619 168.139C263.184 168.031 262.804 167.867 262.532 167.541C262.261 167.27 262.043 166.889 261.935 166.454C261.826 166.019 261.88 165.639 262.043 165.204C262.206 164.769 262.478 164.497 262.804 164.226C263.13 164.008 263.564 163.845 263.999 163.845C264.542 163.845 265.086 164.063 265.52 164.443C266.009 164.987 266.227 165.53 266.227 166.074Z" fill="url(#paint36_linear)"/>
<path d="M272.094 265.435H241.942C237.813 265.435 234.499 268.751 234.499 272.882V303.049C234.499 307.18 237.813 310.496 241.942 310.496H272.094C276.223 310.496 279.537 307.18 279.537 303.049V272.882C279.537 268.751 276.168 265.435 272.094 265.435Z" fill="url(#paint37_linear)"/>
<path d="M269.541 317.127H244.496C244.387 317.127 244.278 317.072 244.224 317.018C244.17 316.964 244.115 316.855 244.115 316.746C244.115 316.637 244.17 316.529 244.224 316.474C244.278 316.42 244.387 316.366 244.496 316.366H269.541C269.649 316.366 269.758 316.42 269.812 316.474C269.867 316.529 269.921 316.637 269.921 316.746C269.921 316.855 269.867 316.964 269.812 317.018C269.758 317.127 269.649 317.127 269.541 317.127Z" fill="#C2C2C2"/>
<path d="M276.603 322.236H237.378C237.27 322.236 237.161 322.182 237.107 322.127C237.052 322.073 236.998 321.964 236.998 321.856C236.998 321.747 237.052 321.638 237.107 321.584C237.161 321.529 237.27 321.475 237.378 321.475H276.603C276.712 321.475 276.82 321.529 276.875 321.584C276.929 321.638 276.983 321.747 276.983 321.856C276.983 321.964 276.929 322.073 276.875 322.127C276.82 322.182 276.712 322.236 276.603 322.236Z" fill="#C2C2C2"/>
<path d="M272.094 333.705H241.942C237.813 333.705 234.499 337.021 234.499 341.152V371.319C234.499 375.45 237.813 378.766 241.942 378.766H272.094C276.223 378.766 279.537 375.45 279.537 371.319V341.152C279.537 337.021 276.168 333.705 272.094 333.705Z" fill="url(#paint38_linear)"/>
<path d="M269.541 385.397H244.496C244.387 385.397 244.278 385.343 244.224 385.288C244.17 385.234 244.115 385.125 244.115 385.017C244.115 384.908 244.17 384.799 244.224 384.745C244.278 384.691 244.387 384.636 244.496 384.636H269.541C269.649 384.636 269.758 384.691 269.812 384.745C269.867 384.799 269.921 384.908 269.921 385.017C269.921 385.125 269.867 385.234 269.812 385.288C269.758 385.397 269.649 385.397 269.541 385.397Z" fill="#C2C2C2"/>
<path d="M276.603 390.506H237.378C237.27 390.506 237.161 390.452 237.107 390.398C237.052 390.343 236.998 390.235 236.998 390.126C236.998 390.017 237.052 389.909 237.107 389.854C237.161 389.8 237.27 389.746 237.378 389.746H276.603C276.712 389.746 276.82 389.8 276.875 389.854C276.929 389.909 276.983 390.017 276.983 390.126C276.983 390.235 276.929 390.343 276.875 390.398C276.82 390.452 276.712 390.506 276.603 390.506Z" fill="#C2C2C2"/>
<path d="M340.33 333.705H310.178C306.049 333.705 302.735 337.021 302.735 341.152V371.319C302.735 375.45 306.103 378.766 310.178 378.766H340.33C344.459 378.766 347.773 375.45 347.773 371.319V341.152C347.773 337.021 344.404 333.705 340.33 333.705Z" fill="url(#paint39_linear)"/>
<path d="M337.776 385.397H312.731C312.622 385.397 312.514 385.343 312.459 385.288C312.405 385.234 312.351 385.125 312.351 385.017C312.351 384.908 312.405 384.799 312.459 384.745C312.514 384.691 312.622 384.636 312.731 384.636H337.776C337.885 384.636 337.994 384.691 338.048 384.745C338.102 384.799 338.157 384.908 338.157 385.017C338.157 385.125 338.102 385.234 338.048 385.288C337.994 385.397 337.885 385.397 337.776 385.397Z" fill="#C2C2C2"/>
<path d="M344.839 390.506H305.614C305.506 390.506 305.397 390.452 305.343 390.398C305.288 390.343 305.234 390.235 305.234 390.126C305.234 390.017 305.288 389.909 305.343 389.854C305.397 389.8 305.506 389.746 305.614 389.746H344.839C344.948 389.746 345.056 389.8 345.111 389.854C345.165 389.909 345.219 390.017 345.219 390.126C345.219 390.235 345.165 390.343 345.111 390.398C345.056 390.452 344.948 390.506 344.839 390.506Z" fill="#C2C2C2"/>
<path d="M340.167 264.837H310.015C305.886 264.837 302.572 268.153 302.572 272.284V302.451C302.572 306.582 305.886 309.898 310.015 309.898H340.167C344.296 309.898 347.61 306.582 347.61 302.451V272.284C347.664 268.207 344.296 264.837 340.167 264.837Z" fill="url(#paint40_linear)"/>
<path d="M337.668 316.584H312.568C312.46 316.584 312.351 316.529 312.297 316.475C312.242 316.421 312.188 316.312 312.188 316.203C312.188 316.095 312.242 315.986 312.297 315.931C312.351 315.877 312.46 315.823 312.568 315.823H337.613C337.722 315.823 337.831 315.877 337.885 315.931C337.939 315.986 337.994 316.095 337.994 316.203C337.994 316.312 337.939 316.421 337.885 316.475C337.885 316.529 337.776 316.584 337.668 316.584Z" fill="#C2C2C2"/>
<path d="M344.73 321.638H305.506C305.397 321.638 305.288 321.584 305.234 321.53C305.18 321.475 305.125 321.367 305.125 321.258C305.125 321.149 305.18 321.04 305.234 320.986C305.288 320.932 305.397 320.877 305.506 320.877H344.73C344.839 320.877 344.948 320.932 345.002 320.986C345.056 321.04 345.111 321.149 345.111 321.258C345.111 321.367 345.056 321.475 345.002 321.53C344.948 321.638 344.839 321.638 344.73 321.638Z" fill="#C2C2C2"/>
<path d="M359.127 258.423C358.747 258.423 358.367 258.26 358.095 257.988C357.823 257.717 357.66 257.336 357.66 256.956V177.597C357.66 177.216 357.823 176.836 358.095 176.564C358.367 176.292 358.747 176.129 359.127 176.129C359.507 176.129 359.888 176.292 360.159 176.564C360.431 176.836 360.594 177.216 360.594 177.597V256.901C360.594 257.282 360.431 257.662 360.159 257.934C359.888 258.26 359.507 258.423 359.127 258.423Z" fill="#C2C2C2"/>
<path d="M359.236 220.81C358.584 220.81 357.932 220.538 357.443 220.049C356.954 219.56 356.682 218.962 356.682 218.255V211.243C356.682 210.591 356.954 209.939 357.443 209.449C357.932 208.96 358.53 208.688 359.236 208.688C359.562 208.688 359.888 208.743 360.214 208.906C360.54 209.015 360.811 209.232 361.029 209.449C361.246 209.667 361.463 209.939 361.572 210.265C361.681 210.591 361.789 210.917 361.789 211.243V218.255C361.789 218.581 361.735 218.907 361.572 219.233C361.463 219.56 361.246 219.831 361.029 220.049C360.811 220.266 360.54 220.484 360.214 220.592C359.888 220.755 359.562 220.81 359.236 220.81Z" fill="url(#paint41_linear)"/>
<path d="M256.882 290.928C262.152 290.928 266.444 286.634 266.444 281.361C266.444 276.089 262.152 271.795 256.882 271.795C251.612 271.795 247.321 276.089 247.321 281.361C247.321 286.688 251.612 290.928 256.882 290.928Z" fill="white"/>
<path d="M325.009 291.798C330.279 291.798 334.571 287.504 334.571 282.231C334.571 276.959 330.279 272.665 325.009 272.665C319.74 272.665 315.448 276.959 315.448 282.231C315.502 287.504 319.74 291.798 325.009 291.798Z" fill="white"/>
<path d="M256.61 359.959C261.88 359.959 266.172 355.665 266.172 350.393C266.172 345.12 261.88 340.826 256.61 340.826C251.341 340.826 247.049 345.12 247.049 350.393C247.049 355.665 251.341 359.959 256.61 359.959Z" fill="white"/>
<path d="M324.738 359.959C330.007 359.959 334.299 355.665 334.299 350.393C334.299 345.12 330.007 340.826 324.738 340.826C319.468 340.826 315.176 345.12 315.176 350.393C315.23 355.719 319.468 359.959 324.738 359.959Z" fill="white"/>
<path d="M266.607 296.907H246.94C246.18 296.907 245.419 296.744 244.876 296.418C244.332 296.091 244.006 295.657 244.006 295.222C244.006 295.004 244.061 294.787 244.224 294.569C244.387 294.352 244.604 294.189 244.876 294.026C245.147 293.863 245.473 293.754 245.799 293.645C246.125 293.537 246.506 293.537 246.886 293.537H266.553C267.313 293.537 268.074 293.7 268.617 294.026C269.16 294.352 269.486 294.787 269.486 295.222C269.486 295.657 269.16 296.091 268.617 296.418C268.128 296.744 267.367 296.907 266.607 296.907Z" fill="white"/>
<path d="M334.679 297.451H315.013C314.252 297.451 313.492 297.288 312.948 296.961C312.405 296.635 312.079 296.2 312.079 295.766C312.079 295.548 312.133 295.331 312.296 295.113C312.459 294.896 312.677 294.733 312.948 294.57C313.22 294.407 313.546 294.298 313.872 294.189C314.198 294.081 314.578 294.081 314.959 294.081H334.625C335.386 294.081 336.146 294.244 336.69 294.57C337.233 294.896 337.559 295.331 337.559 295.766C337.559 296.2 337.233 296.635 336.69 296.961C336.146 297.288 335.44 297.451 334.679 297.451Z" fill="white"/>
<path d="M266.335 366.101H246.669C245.908 366.101 245.147 365.938 244.604 365.612C244.061 365.286 243.735 364.851 243.735 364.416C243.735 364.199 243.789 363.981 243.952 363.764C244.115 363.546 244.332 363.383 244.604 363.22C244.876 363.057 245.202 362.948 245.528 362.84C245.854 362.731 246.234 362.731 246.614 362.731H266.281C267.041 362.731 267.802 362.894 268.345 363.22C268.889 363.546 269.215 363.981 269.215 364.416C269.215 364.851 268.889 365.286 268.345 365.612C267.856 365.938 267.096 366.101 266.335 366.101Z" fill="white"/>
<path d="M334.679 365.557H315.013C314.252 365.557 313.492 365.394 312.948 365.068C312.405 364.742 312.079 364.307 312.079 363.872C312.079 363.655 312.133 363.438 312.296 363.22C312.459 363.003 312.677 362.84 312.948 362.677C313.22 362.514 313.546 362.405 313.872 362.296C314.198 362.187 314.578 362.188 314.959 362.188H334.625C335.386 362.188 336.146 362.351 336.69 362.677C337.233 363.003 337.559 363.438 337.559 363.872C337.559 364.307 337.233 364.742 336.69 365.068C336.146 365.394 335.44 365.557 334.679 365.557Z" fill="white"/>
<path d="M451.539 318.867L467.511 334.141L464.849 335.554L449.583 321.096L450.778 317.562L451.539 318.867Z" fill="#C8C8C8"/>
<path d="M436.924 322.562C440.184 323.921 443.878 323.976 447.192 322.671C449.637 321.693 451.756 319.953 453.223 317.779C454.69 315.605 455.505 312.996 455.559 310.333C455.559 307.669 454.798 305.114 453.386 302.886C451.919 300.657 449.855 298.918 447.41 297.885C444.965 296.852 442.303 296.581 439.695 297.07C437.087 297.559 434.697 298.809 432.796 300.657C430.894 302.505 429.59 304.897 429.101 307.506C428.558 310.115 428.83 312.779 429.808 315.225C431.111 318.54 433.665 321.149 436.924 322.562ZM453.386 310.278C453.386 311.746 453.06 313.213 452.517 314.572C451.973 315.931 451.104 317.181 450.072 318.214C449.04 319.247 447.79 320.062 446.432 320.606C444.367 321.421 442.14 321.638 439.967 321.204C437.794 320.769 435.784 319.682 434.262 318.105C432.687 316.529 431.655 314.518 431.22 312.344C430.785 310.169 431.057 307.887 431.926 305.875C432.796 303.81 434.262 302.071 436.11 300.875C437.957 299.679 440.13 299.027 442.357 299.027C444.585 299.027 446.758 299.733 448.551 300.983C450.398 302.234 451.81 303.973 452.625 306.038C453.114 307.343 453.386 308.811 453.386 310.278Z" fill="url(#paint42_linear)"/>
<path d="M437.577 321.204C440.51 322.454 443.77 322.454 446.704 321.258C448.877 320.388 450.778 318.866 452.082 316.91C453.386 314.953 454.147 312.67 454.147 310.278C454.147 307.941 453.495 305.604 452.191 303.647C450.887 301.69 449.04 300.114 446.867 299.19C444.693 298.266 442.303 297.994 439.967 298.429C437.631 298.864 435.512 300.005 433.828 301.636C432.144 303.321 431.003 305.441 430.514 307.724C430.025 310.061 430.242 312.453 431.166 314.627C432.361 317.616 434.643 319.954 437.577 321.204ZM452.245 310.278C452.245 311.583 451.973 312.887 451.43 314.083C450.941 315.279 450.181 316.42 449.257 317.344C448.333 318.269 447.193 318.975 445.997 319.519C444.15 320.28 442.14 320.443 440.184 320.062C438.228 319.682 436.49 318.703 435.077 317.29C433.665 315.877 432.741 314.083 432.361 312.126C431.981 310.17 432.198 308.158 432.959 306.365C433.719 304.517 435.023 302.995 436.707 301.908C438.337 300.821 440.293 300.223 442.303 300.277C444.259 300.277 446.215 300.875 447.844 302.016C449.474 303.158 450.778 304.734 451.484 306.528C452.028 307.669 452.245 308.974 452.245 310.278Z" fill="url(#paint43_linear)"/>
<path opacity="0.34" d="M452.571 305.984C454.907 311.746 452.136 318.269 446.378 320.606C440.619 322.943 434.1 320.171 431.763 314.409C429.427 308.648 432.198 302.125 437.957 299.788C443.716 297.505 450.235 300.277 452.571 305.984Z" fill="#CBCBCB"/>
<path d="M477.399 342.62L476.475 341.75L465.61 331.206L462.459 334.467L463.925 335.826L465.718 337.456L473.922 344.903L474.845 345.718C477.562 344.957 477.399 342.62 477.399 342.62Z" fill="#7C7D80"/>
<path d="M398.46 472.855C398.46 472.855 399.71 473.345 399.438 475.627C399.167 477.91 398.841 478.345 396.994 479.976C395.038 481.607 383.52 488.238 380.315 486.662C377.164 485.085 374.937 481.498 377.979 479.922C383.086 477.312 385.368 473.508 387.541 471.66C389.659 469.811 390.855 469.159 391.941 469.214C393.082 469.268 398.46 472.855 398.46 472.855Z" fill="#231F20"/>
<path d="M399.221 470.464L398.189 473.834C398.189 473.834 394.332 476.932 391.615 474.921C388.899 472.91 390.311 470.41 390.311 470.41L392.647 464.811L396.559 464.92L399.221 470.464Z" fill="url(#paint44_linear)"/>
<path d="M450.887 402.465C450.887 402.465 450.507 401.758 451.267 400.454C452.028 399.095 454.038 397.79 454.038 397.79C454.038 397.79 457.569 396.594 459.688 398.714C462.513 401.595 462.73 418.173 460.286 419.804C457.243 421.815 454.635 419.967 454.364 418.391C454.092 416.923 453.712 413.825 453.712 413.825L449.909 403.606L450.887 402.465Z" fill="#231F20"/>
<path d="M455.722 408.064L458.438 405.509C458.438 405.509 458.438 402.954 456.591 401.704C454.092 399.965 452.191 400.889 452.191 400.889L449.963 403.552L449.692 406.433L455.722 408.064Z" fill="url(#paint45_linear)"/>
<path d="M439.043 411.814C440.456 410.836 441.543 409.477 442.303 407.955C443.444 405.889 444.802 403.932 446.323 402.139C449.203 402.954 451.811 404.422 454.038 406.378C456.265 408.335 458.004 410.781 459.199 413.499C455.885 414.314 452.951 416.38 451.104 419.261C448.062 424.044 443.281 430.132 439.424 432.306C436.707 433.719 433.828 434.698 430.894 435.295L436.979 412.412L439.043 411.814Z" fill="url(#paint46_linear)"/>
<path d="M387.866 462.963C387.866 462.963 388.301 463.18 391.724 464.484C395.201 465.789 393.897 467.257 396.559 469.105C398.46 470.301 400.579 471.061 402.752 471.333C403.296 469.159 404.002 467.039 404.762 464.974C406.338 460.571 405.795 452.2 406.066 440.84C406.338 429.48 413.183 421.544 418.29 413.499C418.833 412.63 419.322 411.814 419.811 410.999C419.757 416.598 420.409 424.696 422.093 430.458C423.94 436.492 428.015 436.6 433.719 434.317C439.858 431.871 436.273 416.978 439.75 409.423C443.064 402.248 439.532 397.247 439.532 397.247L432.089 394.801L425.19 394.366C425.19 394.366 424.103 396.16 422.962 398.552L416.389 394.366L406.501 396.16C406.501 396.16 406.501 398.715 400.471 409.423C394.44 420.131 392.919 423.881 393.68 441.057C394.331 452.852 387.866 462.963 387.866 462.963Z" fill="url(#paint47_linear)"/>
<path d="M466.588 340.446C466.588 340.446 466.262 340.011 466.859 339.25C467.892 337.891 466.696 336.967 466.479 335.663C466.262 334.358 466.914 334.358 467.783 333.652C468.109 333.38 468.381 333.108 468.707 332.782C468.815 332.673 468.924 332.619 469.033 332.565C469.141 332.51 469.304 332.51 469.413 332.565C469.521 332.619 469.63 332.673 469.739 332.728C469.847 332.836 469.902 332.945 469.956 333.054C470.065 333.38 470.01 333.706 469.902 333.978C469.63 334.141 469.413 334.358 469.25 334.63C469.087 334.902 468.978 335.228 468.978 335.554C468.978 335.88 469.033 336.206 469.141 336.478C469.304 336.75 469.467 337.022 469.739 337.185C469.739 337.62 469.63 338.055 469.467 338.435C469.304 338.816 469.033 339.196 468.707 339.468C468.707 339.468 470.499 341.316 470.173 342.783C469.847 344.251 468.218 344.251 468.218 344.251L467.511 342.566L466.588 340.446Z" fill="url(#paint48_linear)"/>
<path d="M376.566 338.163C376.566 338.163 374.611 338.815 373.796 341.587C373.307 343.381 373.307 345.284 373.796 347.077L377.164 346.588L379.337 344.903L379.88 340.772L376.566 338.163Z" fill="#231F20"/>
<path d="M369.341 343.979C369.341 343.979 368.906 344.849 368.417 345.012C367.928 345.12 366.896 345.012 366.353 345.392C366.027 345.664 365.809 345.99 365.646 346.425C366.679 346.588 367.711 346.534 368.689 346.316C369.721 345.936 370.699 345.447 371.677 344.957L371.949 343.707L370.808 343.49L369.341 343.979Z" fill="url(#paint49_linear)"/>
<path d="M364.995 343.979C364.832 344.142 364.723 344.305 364.614 344.522C364.56 344.74 364.506 344.957 364.506 345.175C364.506 345.501 364.451 345.772 364.288 346.044C364.234 346.153 364.18 346.262 364.071 346.316C363.962 346.37 363.854 346.425 363.745 346.425C363.636 346.425 363.528 346.425 363.419 346.37C363.31 346.316 363.202 346.207 363.147 346.099C362.876 345.664 362.658 345.175 362.441 344.74C362.169 344.196 362.006 343.653 362.006 343.055H363.745L364.995 343.979Z" fill="url(#paint50_linear)"/>
<path d="M376.947 340.228C376.132 340.446 375.317 340.392 374.556 340.011C373.089 339.468 372.274 337.619 369.123 337.511C367.276 337.511 365.484 337.783 363.745 338.38C363.419 338.489 363.093 338.707 362.876 338.924C362.604 339.196 362.441 339.468 362.332 339.848C362.115 340.555 362.007 341.261 362.061 341.968C362.115 342.566 362.17 343.001 362.278 343.327C362.332 343.599 362.441 343.816 362.658 343.979C362.876 344.142 363.093 344.196 363.365 344.196C363.908 344.196 364.451 344.088 364.995 343.979C366.19 343.707 367.928 343.327 369.341 343.87C370.699 344.414 370.536 344.903 372.166 344.849C372.709 344.849 373.252 344.794 373.741 344.686C373.904 344.631 374.067 344.631 374.23 344.631C374.393 344.631 374.556 344.686 374.719 344.794L375.589 345.284C375.589 345.284 378.305 343.87 378.902 343.653C379.5 343.49 380.043 342.022 380.043 342.022L376.947 340.228Z" fill="url(#paint51_linear)"/>
<path d="M428.83 351.099C428.83 351.099 431.383 350.447 434.588 352.132C437.794 353.817 436.87 354.741 441.923 354.198C446.921 353.654 448.931 355.122 451.267 353.382C453.603 351.589 458.112 346.153 460.883 343.544C462.296 342.131 463.817 340.935 465.555 339.902C466.859 340.283 468.054 340.989 468.924 342.022C469.684 342.946 470.282 344.033 470.608 345.175C470.608 345.175 459.579 361.536 451.484 363.384C443.39 365.232 439.152 364.308 439.152 364.308C439.152 364.308 437.251 370.015 438.337 375.287C439.424 380.614 442.086 383.876 442.683 389.42C443.281 394.747 442.031 398.497 439.424 399.421C436.816 400.345 428.667 401.052 422.528 398.986C418.29 397.573 412.423 397.41 409.109 397.464C408.402 397.464 407.696 397.247 407.207 396.758C406.664 396.269 406.338 395.671 406.229 394.964C405.74 391.648 406.066 388.224 407.207 385.071C409.163 379.853 409.652 374.146 408.511 368.656C407.642 364.634 407.859 361.046 405.36 360.612C402.861 360.177 397.265 359.796 392.919 357.078C388.573 354.361 373.796 347.023 373.796 347.023C373.796 347.023 376.24 345.12 376.729 342.62C377.055 341.098 377.001 339.576 376.566 338.108C378.305 339.359 380.098 340.446 381.999 341.478C386.019 343.707 393.788 349.36 396.505 349.74C399.221 350.175 403.839 350.991 407.533 350.393C411.065 349.958 414.596 349.74 418.127 349.849L428.83 351.099Z" fill="url(#paint52_linear)"/>
<path d="M420.409 360.666C421.007 360.503 421.658 360.557 422.202 360.829C422.582 360.992 422.962 361.21 423.288 361.481C424.212 362.242 425.027 363.112 425.733 364.036C426.874 362.242 427.689 360.285 428.232 358.22C428.884 355.23 428.612 353.545 428.612 353.545L424.809 353.763L421.115 356.535L420.626 359.525L420.409 360.666Z" fill="url(#paint53_linear)"/>
<path d="M415.791 363.873C416.443 363.166 417.204 362.514 417.964 361.97C418.453 361.59 418.942 361.318 419.485 361.046C419.757 360.883 420.083 360.774 420.355 360.666L420.137 359.524L419.268 355.502L417.095 355.176C416.497 356.426 416.117 357.73 415.845 359.089C415.791 360.666 415.791 363.873 415.791 363.873Z" fill="url(#paint54_linear)"/>
<path d="M421.333 363.003C421.333 363.003 421.713 368.765 420.572 372.352C419.485 375.94 419.703 384.419 419.703 384.419C419.703 384.419 419.051 386.267 418.616 388.061C418.399 388.876 418.236 389.746 418.182 390.616C416.986 389.529 415.954 388.278 415.194 386.865C414.596 385.832 414.053 384.745 413.672 383.604C413.183 381.104 413.564 378.495 414.759 376.212C417.095 371.754 419.703 362.677 419.703 362.677L420.355 361.862L421.333 363.003Z" fill="url(#paint55_linear)"/>
<path d="M428.612 349.469C428.612 349.469 429.482 353.328 427.852 355.122C426.222 356.915 420.409 360.666 420.409 360.666C420.409 360.666 416.986 356.644 417.204 355.176C417.421 353.763 418.181 353.817 418.127 351.969C418.073 350.121 418.127 348.49 418.127 348.49L420.572 347.24L427.906 346.044L428.612 349.469Z" fill="url(#paint56_linear)"/>
<path d="M419.486 362.134C419.54 362.46 419.703 362.731 419.866 362.949C419.975 363.112 420.192 363.221 420.409 363.275C420.626 363.329 420.844 363.275 421.007 363.221C421.333 363.058 421.659 362.84 421.876 362.568C422.039 362.297 422.148 362.025 422.202 361.753C422.256 361.481 422.256 361.155 422.148 360.883C421.55 360.666 420.952 360.612 420.355 360.72C420.029 360.829 419.757 360.938 419.486 361.101C419.431 361.373 419.431 361.753 419.486 362.134Z" fill="url(#paint57_linear)"/>
<path d="M421.061 330.064C418.725 332.021 416.769 334.412 415.357 337.13C413.781 340.337 413.835 346.914 413.835 346.914C416.009 348.219 418.562 348.816 421.061 348.599C423.723 348.219 426.331 347.403 428.776 346.207L432.959 345.175L433.882 339.413L433.067 335.01L428.015 330.771L421.061 330.064Z" fill="url(#paint58_linear)"/>
<path d="M422.093 322.345C422.093 322.345 419.105 327.998 421.006 330.553C422.691 332.836 429.264 332.564 430.025 335.988C430.84 339.576 429.536 339.141 428.612 340.772C427.906 341.968 428.232 343.163 428.449 343.055C428.667 342.946 430.46 340.5 431.22 341.859C431.981 343.218 430.84 344.957 429.645 345.12C428.449 345.283 427.634 344.74 426.711 345.827C425.896 346.805 427.146 349.958 429.916 349.577C432.687 349.197 436.707 347.62 437.794 343.544C438.88 339.467 437.794 337.836 437.794 337.836C437.794 337.836 439.043 331.423 434.425 328.324C429.699 325.226 427.634 327.129 425.407 325.933C423.94 325.117 422.799 323.867 422.093 322.345Z" fill="#231F20"/>
<path d="M375.915 346.805C375.915 346.968 375.969 347.131 376.023 347.24C376.132 347.349 376.241 347.458 376.349 347.512C376.512 347.566 376.621 347.566 376.784 347.566C376.947 347.512 377.055 347.457 377.164 347.349C377.273 347.24 377.327 347.131 377.381 346.968C377.436 346.805 377.381 346.642 377.327 346.533C377.273 346.37 377.164 346.262 377.055 346.207C376.947 346.099 376.784 346.099 376.621 346.099C376.404 346.099 376.241 346.153 376.078 346.316C376.023 346.425 375.915 346.588 375.915 346.805Z" fill="#EBF0E1"/>
<path d="M464.577 342.294C464.577 342.457 464.632 342.62 464.686 342.729C464.795 342.838 464.903 342.946 465.012 343.001C465.175 343.055 465.284 343.055 465.447 343.055C465.61 343.001 465.718 342.946 465.827 342.838C465.936 342.729 465.99 342.62 466.044 342.457C466.099 342.294 466.044 342.131 465.99 342.022C465.936 341.859 465.827 341.75 465.718 341.696C465.61 341.587 465.447 341.587 465.284 341.587C465.066 341.587 464.903 341.642 464.74 341.805C464.686 341.914 464.577 342.077 464.577 342.294Z" fill="#EBF0E1"/>
<path d="M469.739 335.391C469.739 335.391 472.346 334.195 473.433 335.336C474.574 336.478 475.334 340.228 475.334 340.228C475.334 340.228 472.727 341.261 471.314 340.391C469.902 339.522 469.739 335.391 469.739 335.391Z" fill="url(#paint59_linear)"/>
<path d="M270.247 67.8002C270.247 67.8546 270.084 68.1264 269.921 68.5612C269.758 68.9961 269.541 69.4853 269.269 70.0832C268.563 71.7682 267.694 73.725 267.694 73.725C266.444 73.2358 265.357 72.3661 264.597 71.279C263.51 69.5396 259.599 67.148 259.599 67.148L259.762 65.2999L259.925 63.3975H267.911C267.911 63.3975 269.541 66.1152 270.084 67.2567C270.193 67.4198 270.247 67.6372 270.247 67.8002Z" fill="#010101"/>
<path d="M330.171 85.5196C330.171 85.5196 343.535 88.1286 349.131 86.1175C354.727 84.1607 379.12 65.2451 381.293 66.0061C383.466 66.767 393.028 72.5287 393.028 72.5287C393.028 72.5287 384.879 61.2771 382.054 60.5162C379.229 59.7552 355.216 72.4743 347.773 74.7573C341.416 76.6597 321.858 71.7134 321.858 71.7134L330.171 85.5196Z" fill="#C8C8C8"/>
<path d="M394.494 86.8244C394.494 86.8244 386.454 79.0516 384.498 77.8558C383.412 77.1492 374.067 81.0084 365.049 84.5959C358.041 87.4224 351.25 90.0858 348.642 90.3575C342.72 91.0642 330.279 85.5743 330.279 85.5743L326.748 74.8663L325.227 70.2461C325.227 70.2461 327.074 71.1701 329.79 72.4203C331.366 73.1269 333.267 73.9966 335.223 74.8119C340.493 77.0405 346.577 79.1604 349.837 78.9429C357.606 78.3994 383.846 71.2788 386.4 72.6377C389.062 74.1053 394.494 86.8244 394.494 86.8244Z" fill="#C2C2C2"/>
<path d="M262.532 60.8967C262.369 61.7664 262.098 62.6361 261.717 63.4514C261.337 64.2667 260.902 65.0821 260.468 65.843C260.196 66.3322 259.925 66.7671 259.653 67.1476C259.001 68.0716 258.458 68.8869 258.132 69.2674C256.285 71.7677 253.894 69.3761 251.667 66.3322C250.417 64.5385 249.385 62.5817 248.57 60.5162C248.081 59.266 247.755 58.3964 247.755 58.3964C247.755 58.3964 252.482 53.1239 252.862 52.9065C252.916 52.9065 252.971 52.8521 253.079 52.9065C253.731 52.9608 254.438 53.0695 255.089 53.1783C256.013 53.3413 256.937 53.5587 256.937 53.5587C257.969 54.3197 259.001 55.1894 259.925 56.1134C261.283 57.6354 262.695 59.4291 262.532 60.8967Z" fill="#C8C8C8"/>
<path d="M256.067 88.8354H232.055V90.4118H256.067V88.8354Z" fill="#BDBEC0"/>
<path d="M232.054 88.8354L225.046 66.3323L226.567 65.7344L233.847 88.781H232.054V88.8354Z" fill="#BDBEC0"/>
<path d="M270.084 67.3108C270.084 67.7457 270.03 68.1261 269.921 68.561C269.867 69.1045 269.649 69.6481 269.269 70.0829C269.106 70.246 268.889 70.4091 268.617 70.4634C268.345 70.5178 268.128 70.4634 267.911 70.3547C266.498 69.8655 263.402 67.9631 260.414 65.8432C260.196 65.6802 259.925 65.5171 259.707 65.354C257.751 64.0495 256.393 62.0383 255.796 59.8098C254.926 57.1464 248.787 60.462 248.516 60.6251C248.027 59.3749 247.701 58.5053 247.701 58.5053C247.701 58.5053 252.427 53.2328 252.808 53.0154C252.862 53.0154 252.916 52.961 253.025 53.0154H254.546L255.035 53.2871L259.816 56.2223C261.283 57.6899 262.695 59.4836 262.478 60.9512C262.315 61.8209 262.043 62.6906 261.663 63.5059H267.856C267.911 63.3972 269.541 66.115 270.084 67.3108Z" fill="#C8C8C8"/>
<path d="M248.244 59.7554C247.212 58.6139 246.506 57.2007 246.125 55.6787C245.636 53.3415 249.168 47.6885 254.166 47.145C260.413 46.4927 262.641 48.0147 266.933 52.2544C271.225 56.4941 272.8 58.0704 275.951 58.2334C281.004 58.4509 281.764 61.7665 281.982 63.5603C282.199 65.1909 281.601 69.5937 276.169 69.9198C270.736 70.246 261.337 66.8759 259.925 63.4515C258.512 60.0272 258.621 56.4941 255.144 55.8418C251.775 55.2439 248.244 59.7554 248.244 59.7554Z" fill="#010101"/>
<path d="M365.049 84.65C358.041 87.4765 351.25 90.1399 348.642 90.4117C342.72 91.1183 330.279 85.6284 330.279 85.6284L326.748 74.9204L329.79 72.5288C331.366 73.2354 333.267 74.1051 335.223 74.9204C335.223 74.9204 335.44 80.0842 340.167 82.7476C344.948 85.4653 365.049 84.65 365.049 84.65Z" fill="#C8C8C8"/>
<path d="M332.181 75.518C332.235 80.573 330.062 90.357 330.062 90.357C330.062 90.357 304.799 90.3026 300.779 90.357C296.813 90.4113 286.708 90.357 282.96 90.0852C277.472 89.7047 276.277 86.6065 274.267 83.6169C272.257 80.6274 268.943 79.0511 266.498 76.279C264.542 74.0504 264.108 71.1696 264.271 70.7347C264.434 70.2999 268.454 69.3759 267.693 66.8212C266.987 64.2665 281.927 63.4512 281.927 63.4512C281.927 63.4512 294.314 70.1912 301.105 68.941C307.896 67.6909 312.297 64.2121 319.848 64.2121C321.804 64.2121 331.474 63.2881 331.474 63.2881C331.474 63.2881 331.8 65.9515 332.018 70.0825C332.126 71.8219 332.181 73.6156 332.181 75.518Z" fill="url(#paint60_linear)"/>
<path d="M278.45 79.7037C277.69 82.3128 276.332 84.7044 274.484 86.7156C272.203 89.1072 269.541 90.1399 267.259 90.1399C264.651 90.1399 253.84 83.3999 251.069 81.3344C248.298 79.3233 245.582 79.2146 244.876 79.8668C244.169 80.5191 242.703 80.6821 241.29 81.0083C239.878 81.3344 238.737 79.8125 238.574 79.2146C238.411 78.5623 239.226 78.0731 238.9 77.8013C238.519 77.5295 235.966 78.7797 235.423 78.9428C234.825 79.1058 234.39 79.1602 234.173 78.9428C233.956 78.7254 237.541 76.8773 238.737 76.4968C239.932 76.062 245.419 75.8445 248.244 75.8989C251.069 75.9532 261.12 81.28 263.184 81.9867C266.716 83.1825 267.367 82.3128 268.617 80.4104C269.649 78.7797 270.518 77.1491 271.333 75.4097C271.496 75.3553 280.732 72.3658 278.45 79.7037Z" fill="#C8C8C8"/>
<path d="M233.739 88.8901V88.8357C233.739 88.6727 233.63 88.564 233.467 88.564H232.381C232.218 88.564 232.109 88.6727 232.109 88.8357V88.8901C232.109 89.0532 232.218 89.1619 232.381 89.1619H233.467C233.63 89.1619 233.739 89.0532 233.739 88.8901Z" fill="#43B5E8"/>
<path d="M332.072 70.1919C327.182 71.3877 321.641 74.7033 313.709 77.3124C302.844 80.8455 281.33 66.8218 276.766 68.5612C272.203 70.3006 264.325 70.8441 264.325 70.8441C264.488 70.4093 268.508 69.4852 267.748 66.9305C267.041 64.3759 281.982 63.5605 281.982 63.5605C281.982 63.5605 294.368 70.3006 301.159 69.0504C307.95 67.8002 312.351 64.3215 319.902 64.3215C321.858 64.3215 331.529 63.3975 331.529 63.3975C331.529 63.3975 331.855 66.1152 332.072 70.1919Z" fill="url(#paint61_linear)"/>
<path d="M269.486 74.2685L279.537 81.0085C279.537 81.0085 281.656 76.497 282.253 72.9096C282.416 71.8768 282.416 70.8441 282.308 69.8657C282.253 69.3221 282.036 68.7786 281.764 68.2894C281.493 67.8002 281.058 67.3654 280.623 67.0936C280.134 66.7675 279.591 66.55 279.048 66.4413C278.505 66.3326 277.907 66.387 277.364 66.55C275.951 66.8762 274.702 67.5828 273.669 68.6155C271.985 70.1918 269.486 74.2685 269.486 74.2685Z" fill="url(#paint62_linear)"/>
<path d="M285.948 463.723H192.83C192.83 463.723 202.717 459.701 198.534 454.483C198.534 454.483 214.126 457.255 213.637 460.516C213.637 460.516 203.749 453.069 214.18 448.612C214.18 448.612 228.74 454.754 224.068 459.32C224.068 459.32 242.268 452.852 234.988 447.96C234.988 447.96 255.796 452.635 253.188 458.668C253.188 458.668 270.355 458.559 270.355 455.352C270.355 455.461 271.388 464.049 285.948 463.723Z" fill="url(#paint63_linear)"/>
<path d="M521.513 463.343H422.256C422.256 463.343 432.796 459.32 428.341 454.102C428.341 454.102 444.965 456.874 444.422 460.136C444.422 460.136 433.882 452.689 444.965 448.232C444.965 448.232 460.503 454.374 455.505 458.94C455.505 458.94 474.9 452.472 467.131 447.58C467.131 447.58 489.297 452.254 486.526 458.288C486.526 458.288 504.834 458.179 504.834 454.972C504.889 455.081 505.975 463.669 521.513 463.343Z" fill="url(#paint64_linear)"/>
</g>
<defs>
<filter id="filter0_d" x="-50" y="-25" width="800" height="675" filterUnits="userSpaceOnUse" color-interpolation-filters="sRGB">
<feFlood flood-opacity="0" result="BackgroundImageFix"/>
<feColorMatrix in="SourceAlpha" type="matrix" values="0 0 0 0 0 0 0 0 0 0 0 0 0 0 0 0 0 0 127 0" result="hardAlpha"/>
<feOffset dy="25"/>
<feGaussianBlur stdDeviation="25"/>
<feColorMatrix type="matrix" values="0 0 0 0 0 0 0 0 0 0 0 0 0 0 0 0 0 0 0.25 0"/>
<feBlend mode="normal" in2="BackgroundImageFix" result="effect1_dropShadow"/>
<feBlend mode="normal" in="SourceGraphic" in2="effect1_dropShadow" result="shape"/>
</filter>
<linearGradient id="paint0_linear" x1="54.9928" y1="441.528" x2="644.957" y2="441.528" gradientUnits="userSpaceOnUse">
<stop stop-color="#43B5E8"/>
<stop offset="1" stop-color="#43B5E8"/>
</linearGradient>
<linearGradient id="paint1_linear" x1="100.15" y1="478.044" x2="180.403" y2="478.044" gradientUnits="userSpaceOnUse">
<stop stop-color="#43B5E8"/>
<stop offset="1" stop-color="#43B5E8"/>
</linearGradient>
<linearGradient id="paint2_linear" x1="85.502" y1="433.628" x2="267.754" y2="433.628" gradientUnits="userSpaceOnUse">
<stop stop-color="#43B5E8"/>
<stop offset="1" stop-color="#43B5E8"/>
</linearGradient>
<linearGradient id="paint3_linear" x1="406.204" y1="430.074" x2="586.244" y2="430.074" gradientUnits="userSpaceOnUse">
<stop stop-color="#43B5E8"/>
<stop offset="1" stop-color="#43B5E8"/>
</linearGradient>
<linearGradient id="paint4_linear" x1="581.781" y1="478.509" x2="519.068" y2="478.509" gradientUnits="userSpaceOnUse">
<stop stop-color="#43B5E8"/>
<stop offset="1" stop-color="#43B5E8"/>
</linearGradient>
<linearGradient id="paint5_linear" x1="60.4615" y1="440.541" x2="97.6668" y2="440.541" gradientUnits="userSpaceOnUse">
<stop stop-color="#43B5E8"/>
<stop offset="1" stop-color="#43B5E8"/>
</linearGradient>
<linearGradient id="paint6_linear" x1="369.776" y1="514.834" x2="406.982" y2="514.834" gradientUnits="userSpaceOnUse">
<stop stop-color="#43B5E8"/>
<stop offset="1" stop-color="#43B5E8"/>
</linearGradient>
<linearGradient id="paint7_linear" x1="445.638" y1="495.917" x2="482.843" y2="495.917" gradientUnits="userSpaceOnUse">
<stop stop-color="#43B5E8"/>
<stop offset="1" stop-color="#43B5E8"/>
</linearGradient>
<linearGradient id="paint8_linear" x1="594.376" y1="442.649" x2="631.582" y2="442.649" gradientUnits="userSpaceOnUse">
<stop stop-color="#43B5E8"/>
<stop offset="1" stop-color="#43B5E8"/>
</linearGradient>
<linearGradient id="paint9_linear" x1="244.871" y1="516.153" x2="304.821" y2="516.153" gradientUnits="userSpaceOnUse">
<stop stop-color="#43B5E8"/>
<stop offset="1" stop-color="#43B5E8"/>
</linearGradient>
<linearGradient id="paint10_linear" x1="398" y1="200.724" x2="573.388" y2="200.724" gradientUnits="userSpaceOnUse">
<stop stop-color="#71459B"/>
<stop offset="0.8668" stop-color="#A76DAE"/>
</linearGradient>
<linearGradient id="paint11_linear" x1="113.856" y1="163.213" x2="175.085" y2="163.213" gradientUnits="userSpaceOnUse">
<stop stop-color="#71459B"/>
<stop offset="0.8668" stop-color="#A76DAE"/>
</linearGradient>
<linearGradient id="paint12_linear" x1="504.562" y1="222.464" x2="565.79" y2="222.464" gradientUnits="userSpaceOnUse">
<stop stop-color="#71459B"/>
<stop offset="0.8668" stop-color="#A76DAE"/>
</linearGradient>
<linearGradient id="paint13_linear" x1="97.4664" y1="130.508" x2="264.112" y2="130.508" gradientUnits="userSpaceOnUse">
<stop stop-color="#71459B"/>
<stop offset="0.8668" stop-color="#A76DAE"/>
</linearGradient>
<linearGradient id="paint14_linear" x1="119.234" y1="359.14" x2="241.114" y2="359.14" gradientUnits="userSpaceOnUse">
<stop stop-color="#43B5E8"/>
<stop offset="1" stop-color="#43B5E8"/>
</linearGradient>
<linearGradient id="paint15_linear" x1="123.217" y1="358.578" x2="243.504" y2="358.578" gradientUnits="userSpaceOnUse">
<stop stop-color="#43B5E8"/>
<stop offset="1" stop-color="#43B5E8"/>
</linearGradient>
<linearGradient id="paint16_linear" x1="177.187" y1="337.855" x2="254.892" y2="365.088" gradientUnits="userSpaceOnUse">
<stop stop-color="#43B5E8"/>
<stop offset="1" stop-color="#43B5E8"/>
</linearGradient>
<linearGradient id="paint17_linear" x1="179.852" y1="338.388" x2="256.541" y2="365.265" gradientUnits="userSpaceOnUse">
<stop stop-color="#43B5E8"/>
<stop offset="1" stop-color="#43B5E8"/>
</linearGradient>
<linearGradient id="paint18_linear" x1="590.328" y1="356.675" x2="468.448" y2="356.675" gradientUnits="userSpaceOnUse">
<stop stop-color="#43B5E8"/>
<stop offset="1" stop-color="#43B5E8"/>
</linearGradient>
<linearGradient id="paint19_linear" x1="586.345" y1="356.113" x2="466.058" y2="356.113" gradientUnits="userSpaceOnUse">
<stop stop-color="#43B5E8"/>
<stop offset="1" stop-color="#43B5E8"/>
</linearGradient>
<linearGradient id="paint20_linear" x1="205.306" y1="390.053" x2="197.691" y2="404.813" gradientUnits="userSpaceOnUse">
<stop stop-color="#43B5E8"/>
<stop offset="1" stop-color="#43B5E8"/>
</linearGradient>
<linearGradient id="paint21_linear" x1="204.788" y1="390.396" x2="197.272" y2="404.963" gradientUnits="userSpaceOnUse">
<stop stop-color="#43B5E8"/>
<stop offset="1" stop-color="#43B5E8"/>
</linearGradient>
<linearGradient id="paint22_linear" x1="190.515" y1="405.451" x2="186.018" y2="421.441" gradientUnits="userSpaceOnUse">
<stop stop-color="#43B5E8"/>
<stop offset="1" stop-color="#43B5E8"/>
</linearGradient>
<linearGradient id="paint23_linear" x1="190.011" y1="405.873" x2="185.572" y2="421.654" gradientUnits="userSpaceOnUse">
<stop stop-color="#43B5E8"/>
<stop offset="1" stop-color="#43B5E8"/>
</linearGradient>
<linearGradient id="paint24_linear" x1="511.487" y1="401.339" x2="497.747" y2="392.016" gradientUnits="userSpaceOnUse">
<stop stop-color="#43B5E8"/>
<stop offset="1" stop-color="#43B5E8"/>
</linearGradient>
<linearGradient id="paint25_linear" x1="511.247" y1="400.726" x2="497.686" y2="391.525" gradientUnits="userSpaceOnUse">
<stop stop-color="#43B5E8"/>
<stop offset="1" stop-color="#43B5E8"/>
</linearGradient>
<linearGradient id="paint26_linear" x1="519.939" y1="325.705" x2="482.084" y2="316.903" gradientUnits="userSpaceOnUse">
<stop stop-color="#43B5E8"/>
<stop offset="1" stop-color="#43B5E8"/>
</linearGradient>
<linearGradient id="paint27_linear" x1="512.449" y1="262.149" x2="441.131" y2="292.609" gradientUnits="userSpaceOnUse">
<stop stop-color="#43B5E8"/>
<stop offset="1" stop-color="#43B5E8"/>
</linearGradient>
<linearGradient id="paint28_linear" x1="509.974" y1="262.806" x2="439.588" y2="292.868" gradientUnits="userSpaceOnUse">
<stop stop-color="#43B5E8"/>
<stop offset="1" stop-color="#43B5E8"/>
</linearGradient>
<linearGradient id="paint29_linear" x1="518.834" y1="324.849" x2="481.474" y2="316.162" gradientUnits="userSpaceOnUse">
<stop stop-color="#43B5E8"/>
<stop offset="1" stop-color="#43B5E8"/>
</linearGradient>
<linearGradient id="paint30_linear" x1="143.417" y1="253.42" x2="223.676" y2="242.284" gradientUnits="userSpaceOnUse">
<stop stop-color="#44B4E7"/>
<stop offset="1" stop-color="#B3E3F9"/>
</linearGradient>
<linearGradient id="paint31_linear" x1="511.591" y1="146.503" x2="537.126" y2="172.024" gradientUnits="userSpaceOnUse">
<stop stop-color="#71459B"/>
<stop offset="0.8668" stop-color="#A76DAE"/>
</linearGradient>
<linearGradient id="paint32_linear" x1="149.722" y1="311.473" x2="175.974" y2="297.468" gradientUnits="userSpaceOnUse">
<stop stop-color="#71459B"/>
<stop offset="0.8668" stop-color="#A76DAE"/>
</linearGradient>
<linearGradient id="paint33_linear" x1="468.097" y1="88.87" x2="551.482" y2="88.87" gradientUnits="userSpaceOnUse">
<stop stop-color="#44B4E7"/>
<stop offset="1" stop-color="#B3E3F9"/>
</linearGradient>
<linearGradient id="paint34_linear" x1="242.055" y1="166.073" x2="246.294" y2="166.073" gradientUnits="userSpaceOnUse">
<stop stop-color="#71459B"/>
<stop offset="0.8668" stop-color="#A76DAE"/>
</linearGradient>
<linearGradient id="paint35_linear" x1="252.344" y1="166.074" x2="256.585" y2="166.074" gradientUnits="userSpaceOnUse">
<stop stop-color="#71459B"/>
<stop offset="0.8668" stop-color="#A76DAE"/>
</linearGradient>
<linearGradient id="paint36_linear" x1="262.005" y1="166.073" x2="266.246" y2="166.073" gradientUnits="userSpaceOnUse">
<stop stop-color="#71459B"/>
<stop offset="0.8668" stop-color="#A76DAE"/>
</linearGradient>
<linearGradient id="paint37_linear" x1="234.472" y1="287.974" x2="279.534" y2="287.974" gradientUnits="userSpaceOnUse">
<stop stop-color="#7DD3F7"/>
<stop offset="1" stop-color="#43B5E8"/>
</linearGradient>
<linearGradient id="paint38_linear" x1="234.472" y1="356.243" x2="279.534" y2="356.243" gradientUnits="userSpaceOnUse">
<stop stop-color="#7DD3F7"/>
<stop offset="1" stop-color="#43B5E8"/>
</linearGradient>
<linearGradient id="paint39_linear" x1="302.707" y1="356.243" x2="347.769" y2="356.243" gradientUnits="userSpaceOnUse">
<stop stop-color="#7DD3F7"/>
<stop offset="1" stop-color="#43B5E8"/>
</linearGradient>
<linearGradient id="paint40_linear" x1="302.59" y1="287.401" x2="347.652" y2="287.401" gradientUnits="userSpaceOnUse">
<stop stop-color="#7DD3F7"/>
<stop offset="1" stop-color="#43B5E8"/>
</linearGradient>
<linearGradient id="paint41_linear" x1="356.742" y1="214.778" x2="361.77" y2="214.778" gradientUnits="userSpaceOnUse">
<stop stop-color="#71459B"/>
<stop offset="0.8668" stop-color="#A76DAE"/>
</linearGradient>
<linearGradient id="paint42_linear" x1="437.14" y1="297.827" x2="447.193" y2="322.644" gradientUnits="userSpaceOnUse">
<stop stop-color="#71459B"/>
<stop offset="0.8668" stop-color="#A76DAE"/>
</linearGradient>
<linearGradient id="paint43_linear" x1="437.744" y1="299.131" x2="446.72" y2="321.288" gradientUnits="userSpaceOnUse">
<stop stop-color="#71459B"/>
<stop offset="0.8668" stop-color="#A76DAE"/>
</linearGradient>
<linearGradient id="paint44_linear" x1="399.204" y1="470.245" x2="389.944" y2="470.245" gradientUnits="userSpaceOnUse">
<stop stop-color="#C8C8C8"/>
<stop offset="1" stop-color="#C8C8C8"/>
</linearGradient>
<linearGradient id="paint45_linear" x1="458.458" y1="404.362" x2="449.687" y2="404.362" gradientUnits="userSpaceOnUse">
<stop stop-color="#C8C8C8"/>
<stop offset="1" stop-color="#C8C8C8"/>
</linearGradient>
<linearGradient id="paint46_linear" x1="459.183" y1="418.708" x2="430.847" y2="418.708" gradientUnits="userSpaceOnUse">
<stop stop-color="#223E98"/>
<stop offset="1" stop-color="#384EA2"/>
</linearGradient>
<linearGradient id="paint47_linear" x1="441.293" y1="432.863" x2="387.884" y2="432.863" gradientUnits="userSpaceOnUse">
<stop stop-color="#223E98"/>
<stop offset="1" stop-color="#223E98"/>
</linearGradient>
<linearGradient id="paint48_linear" x1="470.2" y1="338.435" x2="466.46" y2="338.435" gradientUnits="userSpaceOnUse">
<stop stop-color="#CECECD"/>
<stop offset="1" stop-color="#CECECD"/>
</linearGradient>
<linearGradient id="paint49_linear" x1="371.956" y1="344.961" x2="365.638" y2="344.961" gradientUnits="userSpaceOnUse">
<stop stop-color="#CECECD"/>
<stop offset="1" stop-color="#CECECD"/>
</linearGradient>
<linearGradient id="paint50_linear" x1="365.004" y1="344.754" x2="362.108" y2="344.754" gradientUnits="userSpaceOnUse">
<stop stop-color="#CECECD"/>
<stop offset="1" stop-color="#CECECD"/>
</linearGradient>
<linearGradient id="paint51_linear" x1="379.936" y1="341.442" x2="361.945" y2="341.442" gradientUnits="userSpaceOnUse">
<stop stop-color="#CECECD"/>
<stop offset="1" stop-color="#CECECD"/>
</linearGradient>
<linearGradient id="paint52_linear" x1="470.589" y1="369.291" x2="373.813" y2="369.291" gradientUnits="userSpaceOnUse">
<stop offset="0.002" stop-color="#F2F2F2"/>
<stop offset="0.9792" stop-color="#F2F2F2"/>
</linearGradient>
<linearGradient id="paint53_linear" x1="428.676" y1="358.811" x2="420.39" y2="358.811" gradientUnits="userSpaceOnUse">
<stop stop-color="#E0E1E0"/>
<stop offset="1" stop-color="#E0E1E0"/>
</linearGradient>
<linearGradient id="paint54_linear" x1="420.39" y1="359.533" x2="415.771" y2="359.533" gradientUnits="userSpaceOnUse">
<stop stop-color="#E0E1E0"/>
<stop offset="1" stop-color="#E0E1E0"/>
</linearGradient>
<linearGradient id="paint55_linear" x1="421.402" y1="376.272" x2="413.503" y2="376.272" gradientUnits="userSpaceOnUse">
<stop stop-color="#71459B"/>
<stop offset="0.8668" stop-color="#A76DAE"/>
</linearGradient>
<linearGradient id="paint56_linear" x1="428.817" y1="353.368" x2="417.151" y2="353.368" gradientUnits="userSpaceOnUse">
<stop stop-color="#C8C8C8"/>
<stop offset="1" stop-color="#C8C8C8"/>
</linearGradient>
<linearGradient id="paint57_linear" x1="422.271" y1="361.937" x2="419.43" y2="361.937" gradientUnits="userSpaceOnUse">
<stop stop-color="#71459B"/>
<stop offset="0.8668" stop-color="#A76DAE"/>
</linearGradient>
<linearGradient id="paint58_linear" x1="433.914" y1="339.363" x2="413.849" y2="339.363" gradientUnits="userSpaceOnUse">
<stop stop-color="#C8C8C8"/>
<stop offset="1" stop-color="#C8C8C8"/>
</linearGradient>
<linearGradient id="paint59_linear" x1="475.452" y1="337.879" x2="469.687" y2="337.709" gradientUnits="userSpaceOnUse">
<stop stop-color="#CECECD"/>
<stop offset="1" stop-color="#CECECD"/>
</linearGradient>
<linearGradient id="paint60_linear" x1="264.262" y1="76.9195" x2="332.207" y2="76.9195" gradientUnits="userSpaceOnUse">
<stop stop-color="#223E98"/>
<stop offset="1" stop-color="#223E98"/>
</linearGradient>
<linearGradient id="paint61_linear" x1="264.3" y1="70.6571" x2="332.056" y2="70.6571" gradientUnits="userSpaceOnUse">
<stop stop-color="#223E98"/>
<stop offset="1" stop-color="#223E98"/>
</linearGradient>
<linearGradient id="paint62_linear" x1="269.508" y1="73.683" x2="282.405" y2="73.683" gradientUnits="userSpaceOnUse">
<stop stop-color="#223E98"/>
<stop offset="1" stop-color="#223E98"/>
</linearGradient>
<linearGradient id="paint63_linear" x1="285.969" y1="455.886" x2="192.809" y2="455.886" gradientUnits="userSpaceOnUse">
<stop stop-color="#43B5E8"/>
<stop offset="1" stop-color="#43B5E8"/>
</linearGradient>
<linearGradient id="paint64_linear" x1="521.513" y1="455.498" x2="422.261" y2="455.498" gradientUnits="userSpaceOnUse">
<stop stop-color="#43B5E8"/>
<stop offset="1" stop-color="#43B5E8"/>
</linearGradient>
</defs>
</svg>
