<svg width="651" height="447" viewBox="0 0 651 447" fill="none" xmlns="http://www.w3.org/2000/svg">
<g filter="url(#filter0_d)">
<path d="M325.511 430.145C467.731 430.145 583.022 395.986 583.022 353.849C583.022 311.711 467.731 277.552 325.511 277.552C183.292 277.552 68 311.711 68 353.849C68 395.986 183.292 430.145 325.511 430.145Z" fill="#C9EBFC"/>
<path d="M107.386 392.708H177.45C177.45 392.708 170.004 389.091 173.137 384.457C173.137 384.457 161.378 386.936 161.785 389.863C161.785 389.863 169.231 383.197 161.378 379.213C161.378 379.213 150.433 384.741 153.932 388.806C153.932 388.806 140.221 382.993 145.713 378.644C145.713 378.644 130.049 382.831 132.002 388.237C132.002 388.237 119.104 388.156 119.104 385.31C119.144 385.31 118.371 392.993 107.386 392.708Z" fill="url(#paint0_linear)"/>
<path d="M94.6099 362.913H253.698C253.698 362.913 236.813 354.702 243.933 344.134C243.933 344.134 217.283 349.743 218.137 356.41C218.137 356.41 235.022 341.329 217.242 332.265C217.242 332.265 192.341 344.784 200.357 354.052C200.357 354.052 169.231 340.882 181.681 330.964C181.681 330.964 146.12 340.435 150.555 352.751C150.555 352.751 121.219 352.548 121.219 346.085C121.26 346.126 119.511 363.564 94.6099 362.913Z" fill="#4EC9F5"/>
<path d="M374.58 359.661H531.756C531.756 359.661 515.074 351.572 522.113 341.126C522.113 341.126 495.788 346.654 496.643 353.28C496.643 353.28 513.324 338.362 495.747 329.419C495.747 329.419 471.172 341.776 479.066 350.922C479.066 350.922 448.347 337.915 460.634 328.118C460.634 328.118 425.521 337.508 429.915 349.621C429.915 349.621 400.946 349.418 400.946 343.036C400.905 343.036 399.155 360.271 374.58 359.661Z" fill="#4EC9F5"/>
<path d="M527.85 392.952H473.084C473.084 392.952 478.903 389.456 476.462 384.904C476.462 384.904 485.657 387.302 485.331 390.188C485.331 390.188 479.513 383.725 485.657 379.823C485.657 379.823 494.201 385.188 491.475 389.172C491.475 389.172 502.176 383.522 497.904 379.294C497.904 379.294 510.151 383.359 508.605 388.643C508.605 388.643 518.695 388.562 518.695 385.798C518.695 385.717 519.305 393.237 527.85 392.952Z" fill="url(#paint1_linear)"/>
<path d="M72.7603 357.466H105.229C105.229 357.466 101.77 355.149 103.235 352.182C103.235 352.182 97.7831 353.767 97.9865 355.637C97.9865 355.637 101.445 351.41 97.8238 348.849C97.8238 348.849 92.7378 352.345 94.3653 354.946C94.3653 354.946 88.0181 351.247 90.5407 348.483C90.5407 348.483 83.2983 351.166 84.1934 354.58C84.1934 354.58 78.2124 354.54 78.2124 352.711C78.1717 352.751 77.8462 357.67 72.7603 357.466Z" fill="url(#paint2_linear)"/>
<path d="M342.763 422.26H375.231C375.231 422.26 371.773 419.943 373.238 416.975C373.238 416.975 367.786 418.561 367.989 420.43C367.989 420.43 371.447 416.203 367.826 413.642C367.826 413.642 362.74 417.138 364.368 419.739C364.368 419.739 358.021 416.04 360.543 413.276C360.543 413.276 353.301 415.959 354.196 419.374C354.196 419.374 348.215 419.333 348.215 417.504C348.215 417.544 347.849 422.422 342.763 422.26Z" fill="url(#paint3_linear)"/>
<path d="M409.002 405.756H441.471C441.471 405.756 438.012 403.439 439.477 400.472C439.477 400.472 434.025 402.057 434.228 403.927C434.228 403.927 437.687 399.7 434.065 397.139C434.065 397.139 428.98 400.635 430.607 403.236C430.607 403.236 424.26 399.537 426.782 396.773C426.782 396.773 419.54 399.456 420.435 402.87C420.435 402.87 414.454 402.83 414.454 401.001C414.454 401.041 414.088 405.919 409.002 405.756Z" fill="url(#paint4_linear)"/>
<path d="M538.876 359.336H571.345C571.345 359.336 567.887 357.019 569.351 354.052C569.351 354.052 563.899 355.637 564.103 357.507C564.103 357.507 567.561 353.28 563.94 350.719C563.94 350.719 558.854 354.215 560.482 356.816C560.482 356.816 554.134 353.117 556.657 350.353C556.657 350.353 549.415 353.036 550.31 356.45C550.31 356.45 544.329 356.41 544.329 354.58C544.288 354.58 543.922 359.499 538.876 359.336Z" fill="url(#paint5_linear)"/>
<path d="M233.72 424.211H286.085C286.085 424.211 280.511 421.487 282.871 417.992C282.871 417.992 274.082 419.861 274.408 422.056C274.408 422.056 279.982 417.057 274.123 414.049C274.123 414.049 265.945 418.195 268.549 421.243C268.549 421.243 258.295 416.894 262.405 413.602C262.405 413.602 250.728 416.731 252.152 420.796C252.152 420.796 242.509 420.715 242.509 418.601C242.509 418.642 241.939 424.414 233.72 424.211Z" fill="url(#paint6_linear)"/>
<path d="M221.88 228.571L72.8013 228.124C72.8013 228.124 80.5726 205.971 109.298 212.759C109.298 212.759 121.708 200.524 141.116 200.524C160.524 200.524 166.749 210.483 166.749 210.483C166.749 210.483 172.201 201.865 190.836 202.8C209.471 203.694 211.79 211.865 211.79 211.865C211.79 211.865 235.063 219.1 221.88 228.571Z" fill="#F1F2F2"/>
<path d="M299.552 238.936L132.53 238.489C132.53 238.489 141.237 216.336 173.421 223.124C173.421 223.124 187.336 210.889 209.104 210.889C230.872 210.889 237.83 220.848 237.83 220.848C237.83 220.848 243.933 212.231 264.805 213.165C285.678 214.06 288.282 222.23 288.282 222.23C288.282 222.23 314.363 229.425 299.552 238.936Z" fill="#F1F2F2"/>
<path d="M371.488 152.559L520.567 152.275C520.567 152.275 512.796 138.657 484.071 142.844C484.071 142.844 471.661 135.365 452.253 135.365C432.845 135.365 426.62 141.462 426.62 141.462C426.62 141.462 421.168 136.178 402.533 136.747C383.898 137.316 381.579 142.316 381.579 142.316C381.579 142.316 358.265 146.746 371.488 152.559Z" fill="url(#paint7_linear)"/>
<path d="M394.029 99.5132L525.572 99.2287C525.572 99.2287 518.736 84.9205 493.388 89.3105C493.388 89.3105 482.443 81.4248 465.314 81.4248C448.184 81.4248 442.691 87.8472 442.691 87.8472C442.691 87.8472 437.89 82.2784 421.452 82.8881C405.015 83.4572 402.94 88.7415 402.94 88.7415C402.94 88.7415 382.392 93.3754 394.029 99.5132Z" fill="#F1F2F2"/>
<path d="M120.772 116.667L172.811 116.504C172.811 116.504 170.085 107.927 160.076 110.569C160.076 110.569 155.722 105.854 148.968 105.854C142.214 105.854 140.017 109.716 140.017 109.716C140.017 109.716 138.104 106.383 131.594 106.749C125.084 107.114 124.271 110.244 124.271 110.244C124.271 110.244 116.174 113.008 120.772 116.667Z" fill="url(#paint8_linear)"/>
<path d="M176.88 104.96L228.919 104.798C228.919 104.798 226.193 96.2208 216.184 98.8629C216.184 98.8629 211.831 94.1477 205.076 94.1477C198.322 94.1477 196.125 98.0093 196.125 98.0093C196.125 98.0093 194.213 94.6761 187.703 95.042C181.193 95.4078 180.379 98.5377 180.379 98.5377C180.379 98.5377 172.282 101.302 176.88 104.96Z" fill="#F1F2F2"/>
<path d="M461.855 168.331L513.894 168.168C513.894 168.168 511.168 159.591 501.159 162.233C501.159 162.233 496.806 157.518 490.052 157.518C483.297 157.518 481.1 161.38 481.1 161.38C481.1 161.38 479.188 158.047 472.678 158.413C466.168 158.778 465.354 161.908 465.354 161.908C465.354 161.908 457.257 164.672 461.855 168.331Z" fill="url(#paint9_linear)"/>
<path d="M73.086 195.809L125.125 195.646C125.125 195.646 122.399 187.069 112.39 189.712C112.39 189.712 108.037 184.996 101.282 184.996C94.5283 184.996 92.3312 188.858 92.3312 188.858C92.3312 188.858 90.4189 185.525 83.9089 185.891C77.3989 186.256 76.5851 189.386 76.5851 189.386C76.5851 189.386 68.4883 192.15 73.086 195.809Z" fill="#F1F2F2"/>
<path d="M108.891 89.7577L250.524 89.5139C250.524 89.5139 243.16 78.4169 215.858 81.8314C215.858 81.8314 204.059 75.7341 185.627 75.7341C167.196 75.7341 161.256 80.6932 161.256 80.6932C161.256 80.6932 156.088 76.3845 138.389 76.8316C120.69 77.2788 118.452 81.3436 118.452 81.3436C118.452 81.3436 96.3591 85.0019 108.891 89.7577Z" fill="url(#paint10_linear)"/>
<path d="M230.465 347.02C230.465 347.02 226.641 270.235 196.044 241.782L176.92 268.528L190.836 237.961C190.836 237.961 144.574 215.726 124.067 217.108C124.067 217.108 125.451 267.146 142.824 286.576L170.98 287.958L144.899 290.031C144.899 290.031 153.607 299.746 160.198 303.933L184.895 303.567L164.389 307.388C164.389 307.428 194.986 337.996 230.465 347.02Z" fill="#63CDF6"/>
<path d="M127.526 219.913C127.526 219.913 216.876 314.42 232.54 343.24L127.526 219.913Z" fill="url(#paint11_linear)"/>
<path d="M127.526 219.913C137.169 229.425 146.527 239.14 155.804 249.017C160.442 253.936 164.999 258.935 169.556 263.894C174.113 268.894 178.629 273.934 183.105 279.016C187.54 284.097 192.016 289.218 196.369 294.381C198.566 296.982 200.723 299.543 202.879 302.185L206.093 306.087L209.267 310.03C213.499 315.314 217.649 320.68 221.595 326.127C223.548 328.891 225.501 331.655 227.373 334.5C229.245 337.305 230.953 340.232 232.5 343.24C231.604 341.817 230.709 340.354 229.733 339.012C229.245 338.321 228.797 337.63 228.309 336.939L226.803 334.907C224.81 332.183 222.735 329.541 220.619 326.899C218.503 324.257 216.387 321.615 214.231 319.054C213.173 317.753 212.075 316.452 211.017 315.152C209.918 313.851 208.86 312.55 207.762 311.29C203.408 306.128 199.014 301.006 194.579 295.925C190.144 290.803 185.709 285.722 181.233 280.682C176.798 275.601 172.282 270.561 167.806 265.52L154.339 250.359C145.428 240.197 136.436 230.075 127.526 219.913Z" fill="#0092D7"/>
<path d="M227.902 328.687C227.902 328.687 242.631 278.893 229.529 253.895L211.342 266.658L227.047 250.277C227.047 250.277 202.553 225.766 189.167 222.067C189.167 222.067 178.873 254.261 185.587 270.561L203.245 277.755L186.156 273.243C186.156 273.243 189.533 281.373 192.788 285.519L208.616 290.803L194.701 288.649C194.66 288.69 207.314 314.989 227.902 328.687Z" fill="url(#paint12_linear)"/>
<path d="M190.754 224.628C190.754 224.628 226.559 304.827 230.099 326.696L190.754 224.628Z" fill="url(#paint13_linear)"/>
<path d="M190.754 224.628C194.905 232.758 198.811 241.05 202.554 249.383C204.425 253.529 206.256 257.756 208.047 261.943C209.837 266.13 211.586 270.357 213.336 274.585C215.045 278.812 216.713 283.08 218.341 287.348C219.154 289.503 219.927 291.616 220.741 293.771L221.921 296.982L223.06 300.234C224.566 304.542 225.949 308.932 227.21 313.322C227.821 315.517 228.431 317.753 228.919 319.989C229.448 322.224 229.855 324.46 230.14 326.736C229.855 325.639 229.611 324.501 229.285 323.444C229.123 322.915 229.001 322.346 228.797 321.818L228.268 320.192C227.577 318.038 226.844 315.883 226.071 313.729C225.298 311.575 224.525 309.461 223.711 307.307C222.898 305.193 222.084 303.038 221.27 300.925C219.602 296.697 217.934 292.429 216.225 288.202C214.557 283.974 212.848 279.747 211.098 275.52L200.845 250.155C197.386 241.66 194.009 233.205 190.754 224.628Z" fill="#0092D7"/>
<path d="M428.939 344.906C428.939 344.906 432.764 268.122 463.361 239.668L482.484 266.415L468.569 235.847C468.569 235.847 514.83 213.613 535.337 214.995C535.337 214.995 533.953 265.033 516.58 284.462L488.424 285.844L514.505 287.917C514.505 287.917 505.798 297.632 499.206 301.819L474.509 301.453L495.015 305.274C494.975 305.274 464.378 335.842 428.939 344.906Z" fill="#63CDF6"/>
<path d="M531.838 217.759C531.838 217.759 442.488 312.266 426.823 341.085L531.838 217.759Z" fill="url(#paint14_linear)"/>
<path d="M531.838 217.759C522.927 227.961 513.976 238.042 504.984 248.123L491.516 263.285C487.041 268.325 482.524 273.365 478.09 278.446C473.614 283.487 469.179 288.568 464.744 293.69C460.309 298.771 455.915 303.892 451.561 309.055C450.463 310.355 449.405 311.656 448.306 312.916C447.208 314.217 446.15 315.518 445.092 316.818C442.936 319.42 440.82 322.021 438.704 324.663C436.588 327.306 434.554 329.988 432.519 332.671L431.014 334.704C430.526 335.395 430.038 336.086 429.59 336.777C428.613 338.159 427.718 339.581 426.823 341.004C428.369 337.996 430.119 335.069 431.95 332.265C433.781 329.419 435.734 326.655 437.727 323.891C441.715 318.404 445.824 313.038 450.056 307.794L453.229 303.852L456.444 299.949C458.6 297.348 460.757 294.746 462.954 292.145C467.307 286.983 471.783 281.902 476.218 276.78C480.694 271.699 485.21 266.699 489.767 261.659C494.324 256.659 498.881 251.7 503.519 246.782C512.837 236.985 522.195 227.23 531.838 217.759Z" fill="#0092D7"/>
<path d="M223.833 337.996C223.833 337.996 187.133 318.526 175.374 307.754L189.412 312.063L173.828 306.169C173.828 306.169 166.016 295.072 167.969 292.917C167.969 292.917 191.934 305.478 200.194 312.388L199.095 316.127L201.74 313.485C201.74 313.485 205.89 316.94 207.477 318.769L205.768 321.655L208.901 320.111C208.901 320.192 221.717 331.452 223.833 337.996Z" fill="url(#paint15_linear)"/>
<path d="M169.108 294.055C169.108 294.055 208.982 328.281 221.839 337.305L169.108 294.055Z" fill="url(#paint16_linear)"/>
<path d="M169.108 294.055C173.747 297.389 178.263 300.844 182.698 304.38C184.936 306.128 187.133 307.957 189.371 309.705L195.962 315.111C200.356 318.729 204.669 322.428 208.982 326.127L221.88 337.305C219.398 335.882 217.038 334.256 214.678 332.671L211.179 330.192C210.04 329.338 208.901 328.484 207.762 327.631C203.205 324.176 198.77 320.639 194.375 317.022C192.219 315.192 190.022 313.363 187.865 311.493C185.709 309.624 183.552 307.754 181.477 305.843C177.287 302.022 173.096 298.12 169.108 294.055Z" fill="#0092D7"/>
<path d="M223.752 347.995C223.752 347.995 175.008 333.768 158.001 324.663L175.741 326.94L155.763 323.281C155.763 323.281 143.313 313.241 144.94 310.802C144.94 310.802 176.717 319.948 188.476 325.679L188.313 329.622L190.592 326.574C190.592 326.574 196.451 329.46 198.892 331.045L197.753 334.216L200.926 332.224C200.967 332.264 219.317 341.736 223.752 347.995Z" fill="url(#paint17_linear)"/>
<path d="M146.608 311.778C146.608 311.778 203.49 340.394 221.27 347.589L146.608 311.778Z" fill="url(#paint18_linear)"/>
<path d="M146.608 311.778C152.996 314.42 159.303 317.266 165.569 320.152C168.702 321.574 171.794 323.078 174.927 324.542L184.244 329.013C190.47 332.021 196.613 335.11 202.798 338.199L221.27 347.548C217.974 346.492 214.76 345.231 211.546 343.931L206.745 341.939C205.158 341.248 203.571 340.557 201.984 339.866C195.678 337.061 189.412 334.175 183.186 331.127C180.094 329.582 177.002 328.078 173.91 326.533C170.858 324.948 167.766 323.403 164.714 321.778C158.611 318.607 152.549 315.314 146.608 311.778Z" fill="#0092D7"/>
<path d="M430.363 346.207C430.363 346.207 459.292 304.543 473.329 291.291L465.558 307.388L475.363 289.625C475.363 289.625 488.831 281.007 490.621 283.324C490.621 283.324 471.864 310.559 462.709 319.867L459.007 318.485L461.163 321.615C461.163 321.615 456.566 326.249 454.287 328.037L451.642 325.964L452.538 329.623C452.497 329.623 437.727 343.971 430.363 346.207Z" fill="url(#paint19_linear)"/>
<path d="M489.197 284.584C489.197 284.584 444.034 329.419 431.543 343.971L489.197 284.584Z" fill="url(#paint20_linear)"/>
<path d="M489.196 284.584C484.68 289.787 479.96 294.868 475.241 299.868C472.881 302.388 470.48 304.868 468.12 307.347L460.919 314.745C456.077 319.664 451.235 324.541 446.312 329.378L431.583 343.931C433.658 341.166 435.855 338.484 438.093 335.842L441.511 331.939C442.65 330.639 443.83 329.378 444.969 328.078C449.608 322.956 454.368 317.956 459.21 313.038C461.651 310.599 464.052 308.12 466.534 305.721C469.015 303.323 471.457 300.884 473.979 298.527C478.862 293.771 483.948 289.096 489.196 284.584Z" fill="#0092D7"/>
<path d="M425.521 310.884C425.521 310.884 444.766 233.571 461 206.987L460.634 235.4L463.523 203.491C463.523 203.491 483.134 184.346 489.156 187.232C489.156 187.232 476.95 237.676 466.982 256.09L457.908 255.48L465.517 259.464C465.517 259.464 460.512 268.65 457.501 272.39L449.933 270.276L455.386 275.601C455.386 275.642 438.663 304.339 425.521 310.884Z" fill="url(#paint21_linear)"/>
<path d="M421.859 263.203C421.859 263.203 404.323 216.011 414.861 191.175L432.926 202.516L416.936 187.598C416.936 187.598 438.256 162.64 450.625 158.372C450.625 158.372 462.71 188.858 457.542 204.914L441.43 212.8L457.217 207.556C457.217 207.556 454.654 215.604 451.846 219.751L437.321 225.726L450.3 222.921C450.3 222.84 440.291 248.936 421.859 263.203Z" fill="#63CDF6"/>
<path d="M449.323 160.892C449.323 160.892 421.412 240.156 419.662 261.415L449.323 160.892Z" fill="url(#paint22_linear)"/>
<path d="M449.323 160.892C446.922 169.306 444.359 177.68 441.755 186.013L433.943 211.052C432.641 215.198 431.339 219.385 430.037 223.572C428.735 227.718 427.473 231.904 426.212 236.091C425.602 238.164 424.992 240.278 424.381 242.392C423.771 244.505 423.161 246.578 422.632 248.692C421.492 252.919 420.394 257.147 419.702 261.456C419.784 259.261 419.987 257.066 420.312 254.911C420.638 252.757 421.045 250.562 421.452 248.408C422.306 244.099 423.323 239.831 424.381 235.603L425.195 232.433L426.049 229.262L427.84 222.921C429.06 218.694 430.322 214.548 431.624 210.361C432.966 206.174 434.309 202.028 435.692 197.882C437.116 193.736 438.5 189.59 440.005 185.484C442.853 177.192 445.946 168.981 449.323 160.892Z" fill="#0092D7"/>
<path d="M487.407 189.833C487.407 189.833 437.402 278.853 425.765 306.859L487.407 189.833Z" fill="url(#paint23_linear)"/>
<path d="M487.407 189.833C482.443 199.711 477.357 209.467 472.189 219.222C469.626 224.1 467.022 228.937 464.459 233.815L456.647 248.407L440.982 277.512C438.419 282.389 435.774 287.226 433.251 292.104C431.949 294.543 430.729 296.982 429.468 299.462C429.142 300.071 428.817 300.681 428.532 301.291L427.637 303.16L425.806 306.859C426.823 304.299 427.759 301.697 428.857 299.177L430.525 295.397L431.339 293.486L432.194 291.616C433.374 289.096 434.513 286.617 435.693 284.097L439.314 276.658C441.755 271.699 444.278 266.78 446.8 261.903C449.323 256.984 451.927 252.147 454.531 247.269C457.176 242.432 459.78 237.554 462.465 232.758C465.15 227.961 467.836 223.124 470.562 218.328C476.014 208.735 481.588 199.223 487.407 189.833Z" fill="#0092D7"/>
<path d="M207.842 188.858C207.517 191.012 206.988 193.126 206.174 195.158L213.01 200.321L203.855 212.393L196.979 207.19C195.27 208.491 193.398 209.589 191.405 210.442L192.585 218.978L177.571 221.051L176.391 212.515C174.235 212.231 172.159 211.662 170.125 210.889L164.917 217.759L152.833 208.613L158 201.784C156.658 200.036 155.559 198.166 154.664 196.175L146.242 197.353L144.167 182.354L152.507 181.216C152.792 179.021 153.362 176.867 154.135 174.794L147.462 169.753L156.617 157.681L163.249 162.681C165.039 161.299 166.951 160.16 169.027 159.266L167.887 151.055L182.901 148.982L184.04 157.193C186.278 157.478 188.434 158.087 190.51 158.9L195.514 152.275L207.598 161.421L202.553 168.087C203.896 169.875 204.994 171.786 205.889 173.818L214.23 172.68L216.305 187.679L207.842 188.858Z" fill="url(#paint24_linear)"/>
<path d="M194.253 194.427C199.746 187.192 198.281 176.867 191.039 171.42C183.796 165.933 173.462 167.396 168.009 174.631C162.517 181.867 163.981 192.191 171.224 197.638C178.466 203.126 188.76 201.662 194.253 194.427Z" fill="#6C6D70"/>
<path d="M191.731 192.313C196.206 186.419 195.026 177.964 189.127 173.493C183.186 169.022 174.764 170.2 170.288 176.094C165.813 181.988 166.993 190.443 172.892 194.914C178.792 199.426 187.255 198.248 191.731 192.313Z" fill="white"/>
<path d="M441.755 51.9144C441.755 49.6788 439.924 47.8496 437.686 47.8496H214.719C212.481 47.8496 210.65 49.6788 210.65 51.9144V365.921C210.65 368.157 212.481 369.986 214.719 369.986H437.686C439.924 369.986 441.755 368.157 441.755 365.921V51.9144Z" fill="#6C6D70"/>
<path d="M438.256 55.2474C438.256 53.0118 436.425 51.1826 434.187 51.1826H217.567C215.329 51.1826 213.498 53.0118 213.498 55.2474V361.978C213.498 364.214 215.329 366.043 217.567 366.043H434.187C436.425 366.043 438.256 364.214 438.256 361.978V55.2474Z" fill="#E9F7FE"/>
<path d="M483.785 118.658C482.931 119.146 482.036 119.512 481.1 119.756V123.577H474.346V119.715C473.41 119.471 472.515 119.065 471.701 118.618L468.975 121.341L464.215 116.585L466.941 113.862C466.453 113.008 466.086 112.155 465.842 111.22H462.018V104.472H465.842C466.086 103.537 466.453 102.643 466.941 101.789L464.255 99.1067L469.016 94.3509L471.66 96.993C472.515 96.5052 473.451 96.1394 474.387 95.8549V92.1152H481.141V95.8142C482.117 96.0987 483.012 96.4646 483.907 96.9524L486.511 94.3509L491.272 99.1067L488.668 101.708C489.156 102.562 489.522 103.497 489.807 104.472H493.51V111.22H489.766C489.482 112.155 489.115 113.09 488.627 113.943L491.272 116.585L486.511 121.341L483.785 118.658Z" fill="url(#paint25_linear)"/>
<path d="M471.05 114.025C474.549 117.521 480.205 117.521 483.704 114.025C487.203 110.529 487.203 104.879 483.704 101.383C480.205 97.8875 474.549 97.8875 471.05 101.383C467.591 104.879 467.591 110.529 471.05 114.025Z" fill="white"/>
<path d="M472.23 112.521C474.997 115.285 479.473 115.285 482.24 112.521C485.006 109.757 485.006 105.285 482.24 102.521C479.473 99.7572 474.997 99.7572 472.23 102.521C469.464 105.285 469.464 109.757 472.23 112.521Z" fill="#C5C6C8"/>
<path d="M172.119 232.229C172.282 233.002 172.363 233.815 172.322 234.628L175.333 235.522L173.706 240.847L170.695 239.912C170.247 240.562 169.759 241.172 169.189 241.741L170.695 244.546L165.772 247.147L164.266 244.343C163.493 244.505 162.72 244.586 161.906 244.586L160.971 247.594L155.641 245.968L156.536 242.961C155.844 242.513 155.234 242.026 154.664 241.457L151.897 242.92L149.293 238.001L152.019 236.538C151.857 235.725 151.775 234.912 151.775 234.099L148.846 233.205L150.473 227.88L153.403 228.774C153.85 228.083 154.379 227.433 154.949 226.864L153.525 224.181L158.448 221.58L159.872 224.262C160.686 224.1 161.5 224.018 162.313 224.018L163.208 221.092L168.538 222.718L167.643 225.644C168.335 226.092 168.945 226.62 169.515 227.189L172.241 225.726L174.845 230.644L172.119 232.229Z" fill="url(#paint26_linear)"/>
<path d="M165.975 240.684C169.556 238.774 170.939 234.303 168.986 230.726C167.074 227.148 162.598 225.766 159.018 227.718C155.437 229.628 154.054 234.099 156.007 237.676C157.919 241.213 162.395 242.595 165.975 240.684Z" fill="white"/>
<path d="M142.336 207.515C142.173 208.084 141.929 208.654 141.644 209.141L143.312 210.808L140.383 213.735L138.715 212.068C138.186 212.353 137.657 212.596 137.087 212.759V215.117H132.937V212.759C132.367 212.596 131.838 212.393 131.31 212.068L129.641 213.735L126.712 210.808L128.38 209.141C128.095 208.613 127.851 208.084 127.688 207.515H125.369V203.369H127.648C127.81 202.8 128.055 202.231 128.339 201.703L126.712 200.077L129.641 197.15L131.228 198.735C131.757 198.451 132.327 198.207 132.937 198.044V195.768H137.087V198.044C137.697 198.207 138.226 198.451 138.796 198.735L140.383 197.15L143.312 200.077L141.685 201.703C141.97 202.231 142.214 202.8 142.377 203.369H144.655V207.515H142.336Z" fill="#A7A9AC"/>
<path d="M135.012 208.532C136.721 208.532 138.064 207.15 138.064 205.483C138.064 203.776 136.68 202.435 135.012 202.435C133.344 202.435 131.96 203.817 131.96 205.483C131.96 207.19 133.303 208.532 135.012 208.532Z" fill="white"/>
<path d="M458.355 96.9932C458.193 97.5622 457.948 98.1313 457.664 98.6191L459.332 100.286L456.402 103.212L454.734 101.546C454.205 101.83 453.676 102.074 453.107 102.237V104.594H448.957V102.237C448.387 102.074 447.858 101.871 447.329 101.546L445.661 103.212L442.731 100.286L444.4 98.6191C444.115 98.0907 443.871 97.5622 443.708 96.9932H441.389V92.847H443.667C443.83 92.278 444.074 91.7089 444.359 91.1805L442.731 89.5546L445.661 86.6279L447.248 88.2132C447.777 87.9286 448.346 87.6847 448.957 87.5221V85.2458H453.107V87.5221C453.717 87.6847 454.246 87.9286 454.816 88.2132L456.402 86.6279L459.332 89.5546L457.704 91.1805C457.989 91.7089 458.233 92.278 458.396 92.847H460.675V96.9932H458.355Z" fill="#A7A9AC"/>
<path d="M240.555 51.1421C226.274 51.1421 220.456 85.0426 232.133 100.245L415.227 339.175C424.91 351.816 438.256 339.012 438.256 317.103V78.1731C438.256 63.2552 431.705 51.1421 423.649 51.1421H240.555Z" fill="#E0F3FB"/>
<path d="M276.564 62.7268H234.493C229.732 62.7268 225.908 66.5884 225.908 71.3036V98.0907C225.908 102.847 229.773 106.667 234.493 106.667H276.523C281.283 106.667 285.108 102.806 285.108 98.0907V71.3036C285.149 66.5884 281.283 62.7268 276.564 62.7268Z" fill="#43B5E8"/>
<path d="M407.537 212.759H412.298C412.298 212.759 416.773 205.849 419.011 190.565C421.005 177.07 418.482 164.469 418.482 164.469L412.013 185.159L407.537 212.759Z" fill="#D0E1F4"/>
<path d="M314.566 120.041H232.296C227.495 120.041 223.589 123.943 223.589 128.739V185.321C223.589 190.118 227.495 194.02 232.296 194.02H314.566C319.367 194.02 323.273 190.118 323.273 185.321V128.739C323.273 123.943 319.367 120.041 314.566 120.041Z" fill="#43B5E8"/>
<path d="M415.553 62.7268H356.067C351.307 62.7268 347.482 66.5884 347.482 71.3036V98.0907C347.482 102.847 351.348 106.667 356.067 106.667H415.553C420.313 106.667 424.138 102.806 424.138 98.0907V71.3036C424.178 66.5884 420.313 62.7268 415.553 62.7268Z" fill="#43B5E8"/>
<path d="M245.56 85.0019C245.56 84.3109 245.031 83.7825 244.339 83.7825H241.613C240.962 83.7825 240.393 84.3109 240.393 85.0019V98.0906C240.393 98.7816 240.962 99.3101 241.613 99.3101H244.339C245.031 99.3101 245.56 98.7816 245.56 98.0906V85.0019Z" fill="white"/>
<path d="M258.132 79.4331C258.132 78.7827 257.603 78.2136 256.912 78.2136H254.185C253.494 78.2136 252.965 78.7827 252.965 79.4331V98.1312C252.965 98.8222 253.494 99.3507 254.185 99.3507H256.912C257.603 99.3507 258.132 98.8222 258.132 98.1312V79.4331Z" fill="#E1E2E1"/>
<path d="M270.664 70.8969C270.664 70.2466 270.135 69.6775 269.444 69.6775H266.718C266.026 69.6775 265.497 70.2466 265.497 70.8969V98.0905C265.497 98.7816 266.026 99.31 266.718 99.31H269.444C270.135 99.31 270.664 98.7816 270.664 98.0905V70.8969Z" fill="#C2C2C2"/>
<path d="M311.962 174.062C309.073 174.062 308.341 168.737 307.527 162.599C306.795 157.071 305.981 150.811 303.336 150.811C300.976 150.811 300.976 156.055 300.976 161.095C300.976 167.436 300.936 174.021 296.663 174.021C296.094 174.021 295.565 173.859 295.117 173.534C292.92 171.867 293.205 166.014 293.531 159.794C293.856 153.372 294.222 146.096 291.537 144.023C291.049 143.657 290.438 143.454 289.828 143.454C289.38 143.454 288.933 143.576 288.567 143.86C286.614 145.364 286.98 150.608 287.387 155.73C287.753 160.811 288.119 165.648 286.207 167.111C285.759 167.436 285.23 167.599 284.661 167.599C284.05 167.599 283.399 167.436 282.911 167.07C281.08 165.729 281.121 162.03 281.162 158.128C281.202 154.266 281.243 150.242 279.412 148.86C278.964 148.535 278.435 148.372 277.866 148.413C277.378 148.413 276.93 148.535 276.523 148.819C274.57 150.283 274.611 155.161 274.692 159.916C274.774 164.957 274.814 169.672 272.699 171.257C272.17 171.623 271.519 171.826 270.908 171.826C270.379 171.826 269.85 171.664 269.444 171.339C267.124 169.591 267.328 163.046 267.572 156.055C267.816 148.86 268.06 141.381 265.497 139.47C265.131 139.186 264.642 139.023 264.154 139.023C259.923 139.023 259.15 146.706 258.417 153.535C257.766 159.835 257.197 165.241 254.104 165.241C250.849 165.241 250.768 160.811 250.687 156.136C250.605 151.502 250.483 146.259 247.065 146.259C243.404 146.259 242.468 152.193 241.613 157.396C240.84 162.071 240.189 166.136 237.667 166.136C236.527 166.176 235.429 165.851 234.493 165.201C232.621 163.737 232.906 161.095 232.906 160.973L233.639 161.014C233.639 161.055 233.394 163.534 235.022 164.835C235.795 165.404 236.69 165.648 237.626 165.607C239.498 165.607 240.189 161.42 240.84 157.356C241.776 151.624 242.712 145.73 247.025 145.73C251.175 145.73 251.297 151.014 251.378 156.136C251.46 160.364 251.541 164.713 254.023 164.713C256.424 164.713 257.034 159.022 257.603 153.494C258.377 146.137 259.15 138.495 264.073 138.495C264.764 138.495 265.415 138.698 265.944 139.105C268.752 141.178 268.467 148.779 268.264 156.096C268.06 162.64 267.816 169.387 269.932 170.973C270.217 171.176 270.542 171.298 270.868 171.298C271.315 171.298 271.763 171.176 272.129 170.891C274.041 169.469 274.001 164.632 273.919 159.916C273.838 154.835 273.797 150.039 275.954 148.413C276.482 148.007 277.133 147.803 277.825 147.844C278.558 147.803 279.29 148.047 279.9 148.454C281.975 149.958 281.935 154.104 281.894 158.087C281.853 161.705 281.813 165.485 283.44 166.623C283.806 166.867 284.213 167.03 284.661 166.989C285.027 166.989 285.352 166.867 285.637 166.664C287.346 165.363 286.98 160.445 286.614 155.689C286.207 150.242 285.841 145.121 288.038 143.413C288.567 143.047 289.218 142.844 289.869 142.844C290.682 142.844 291.455 143.088 292.106 143.576C294.995 145.771 294.629 152.884 294.304 159.713C294.019 165.526 293.734 171.542 295.687 173.046C295.972 173.29 296.338 173.371 296.704 173.371C300.244 173.371 300.244 166.786 300.244 160.973C300.244 155.161 300.244 150.12 303.336 150.12C306.632 150.12 307.405 156.096 308.259 162.396C308.951 167.518 309.683 173.371 311.921 173.371C315.949 173.371 316.804 164.306 316.804 160.811H317.536C317.495 162.965 317.292 165.16 316.885 167.274C316.031 171.826 314.322 174.062 311.962 174.062Z" fill="#049DD7"/>
<path d="M309.358 178.371C306.469 178.371 305.737 173.046 304.923 166.908C304.191 161.38 303.377 155.12 300.732 155.12C298.372 155.12 298.372 160.364 298.372 165.404C298.372 171.745 298.332 178.33 294.059 178.33C293.49 178.33 292.961 178.168 292.513 177.842C290.316 176.176 290.601 170.323 290.927 164.103C291.252 157.681 291.618 150.405 288.933 148.332C288.445 147.966 287.834 147.763 287.224 147.763C286.776 147.763 286.329 147.885 285.963 148.169C284.01 149.673 284.376 154.917 284.783 160.039C285.149 165.12 285.515 169.957 283.603 171.42C283.155 171.745 282.626 171.908 282.057 171.908C281.446 171.908 280.795 171.745 280.307 171.379C278.476 170.038 278.517 166.339 278.558 162.437C278.598 158.575 278.639 154.551 276.808 153.169C276.36 152.844 275.831 152.681 275.262 152.722C274.774 152.722 274.326 152.844 273.919 153.128C271.966 154.592 272.007 159.469 272.088 164.225C272.17 169.266 272.21 173.981 270.095 175.566C269.566 175.932 268.915 176.135 268.304 176.135C267.775 176.135 267.246 175.973 266.84 175.647C264.52 173.9 264.724 167.355 264.968 160.364C265.212 153.169 265.456 145.69 262.893 143.779C262.527 143.495 262.038 143.332 261.55 143.332C257.319 143.332 256.546 151.015 255.813 157.844C255.162 164.144 254.593 169.55 251.5 169.55C248.245 169.55 248.164 165.12 248.083 160.445C248.001 155.811 247.879 150.568 244.461 150.568C240.8 150.568 239.864 156.502 239.009 161.705C238.236 166.38 237.585 170.444 235.063 170.444C233.923 170.485 232.825 170.16 231.889 169.51C230.017 168.046 230.302 165.404 230.302 165.282L231.035 165.323C231.035 165.363 230.79 167.843 232.418 169.144C233.191 169.713 234.086 169.957 235.022 169.916C236.894 169.916 237.585 165.729 238.236 161.664C239.172 155.933 240.108 150.039 244.421 150.039C248.571 150.039 248.693 155.323 248.774 160.445C248.856 164.672 248.937 169.022 251.419 169.022C253.82 169.022 254.43 163.331 254.999 157.803C255.773 150.446 256.546 142.804 261.469 142.804C262.16 142.804 262.811 143.007 263.34 143.413C266.148 145.486 265.863 153.088 265.66 160.404C265.456 166.949 265.212 173.696 267.328 175.282C267.613 175.485 267.938 175.607 268.264 175.607C268.711 175.607 269.159 175.485 269.525 175.2C271.437 173.778 271.397 168.94 271.315 164.225C271.234 159.144 271.193 154.348 273.35 152.722C273.878 152.315 274.529 152.112 275.221 152.153C275.954 152.112 276.686 152.356 277.296 152.763C279.371 154.266 279.331 158.413 279.29 162.396C279.249 166.014 279.209 169.794 280.836 170.932C281.202 171.176 281.609 171.339 282.057 171.298C282.423 171.298 282.748 171.176 283.033 170.973C284.742 169.672 284.376 164.754 284.01 159.998C283.603 154.551 283.237 149.429 285.434 147.722C285.963 147.356 286.614 147.153 287.265 147.153C288.078 147.153 288.851 147.397 289.502 147.885C292.391 150.08 292.025 157.193 291.7 164.022C291.415 169.835 291.13 175.851 293.083 177.355C293.368 177.599 293.734 177.68 294.1 177.68C297.64 177.68 297.64 171.095 297.64 165.282C297.64 159.469 297.64 154.429 300.732 154.429C304.028 154.429 304.801 160.404 305.655 166.705C306.347 171.826 307.079 177.68 309.317 177.68C313.345 177.68 314.2 168.615 314.2 165.12H314.932C314.891 167.274 314.688 169.469 314.281 171.583C313.427 176.135 311.759 178.371 309.358 178.371Z" fill="white"/>
<path d="M385.444 117.236L389.472 112.724H381.375L385.444 117.236Z" fill="#C2C2C2"/>
<path d="M370.104 68.8645C370.104 68.2141 369.535 67.645 368.884 67.645H353.504C352.853 67.645 352.283 68.2141 352.283 68.8645V74.8804C352.283 75.5308 352.853 76.0998 353.504 76.0998H368.884C369.535 76.0998 370.104 75.5308 370.104 74.8804V68.8645Z" fill="white"/>
<path d="M372.668 79.677H352.283C352.202 79.677 352.08 79.6363 352.039 79.555C351.958 79.4737 351.917 79.3924 351.917 79.3111C351.917 79.2298 351.958 79.1079 352.039 79.0673C352.12 78.986 352.202 78.9453 352.283 78.9453H372.668C372.749 78.9453 372.871 78.986 372.912 79.0673C372.993 79.1486 373.034 79.2298 373.034 79.3111C373.034 79.3924 372.993 79.5144 372.912 79.555C372.871 79.6363 372.749 79.677 372.668 79.677Z" fill="white"/>
<path d="M376.492 83.823H352.283C352.202 83.823 352.08 83.7823 352.039 83.701C351.958 83.6197 351.917 83.5384 351.917 83.4571C351.917 83.3759 351.958 83.2539 352.039 83.2133C352.12 83.132 352.202 83.0913 352.283 83.0913H376.492C376.574 83.0913 376.696 83.132 376.736 83.2133C376.818 83.2946 376.858 83.3759 376.858 83.4571C376.858 83.5384 376.818 83.6604 376.736 83.701C376.655 83.823 376.574 83.823 376.492 83.823Z" fill="#C2C2C2"/>
<path d="M381.253 88.01H352.243C352.161 88.01 352.039 87.9693 351.999 87.888C351.917 87.8067 351.876 87.7254 351.876 87.6442C351.876 87.5629 351.917 87.4409 351.999 87.4003C352.08 87.319 352.161 87.2783 352.243 87.2783H381.253C381.334 87.2783 381.456 87.319 381.497 87.4003C381.578 87.4816 381.619 87.5629 381.619 87.6442C381.619 87.7254 381.578 87.8474 381.497 87.888C381.456 87.9693 381.375 88.01 381.253 88.01Z" fill="white"/>
<path d="M419.255 98.4565C419.255 97.8061 418.726 97.2371 418.034 97.2371H353.626C352.975 97.2371 352.405 97.8061 352.405 98.4565V99.1069C352.405 99.7979 352.975 100.326 353.626 100.326H418.034C418.726 100.326 419.255 99.7979 419.255 99.1069V98.4565Z" fill="#C2C2C2"/>
<path d="M410.426 86.9936C414.657 82.7662 414.657 75.856 410.426 71.6286C406.194 67.4012 399.277 67.4012 395.046 71.6286C390.814 75.856 390.814 82.7662 395.046 86.9936C399.277 91.221 406.153 91.221 410.426 86.9936Z" fill="white"/>
<path d="M303.336 100.326C300.61 97.603 298.779 94.1072 298.169 90.3269C297.518 86.5467 298.128 82.6444 299.837 79.1894C301.546 75.7343 304.272 72.8889 307.69 71.1004C311.108 69.2712 314.973 68.5802 318.797 69.1086L318.309 72.7669C315.258 72.3605 312.165 72.9295 309.439 74.3522C306.713 75.8156 304.516 78.0512 303.173 80.8153C301.79 83.5793 301.343 86.7093 301.871 89.7172C302.36 92.7658 303.824 95.5705 306.022 97.7249L303.336 100.326Z" fill="#C2C2C2"/>
<path d="M316.316 105.651C315.217 105.651 314.118 105.57 313.061 105.367L313.712 101.749C314.566 101.912 315.461 101.993 316.356 101.993C319.367 101.993 322.297 101.058 324.779 99.3507C327.26 97.6435 329.132 95.2046 330.19 92.3593C331.248 89.5139 331.37 86.4653 330.597 83.5386C329.824 80.612 328.196 78.0105 325.877 76.0594L328.278 73.2546C331.167 75.6935 333.201 78.9454 334.177 82.6037C335.154 86.262 334.95 90.083 333.648 93.6194C332.346 97.1557 329.987 100.204 326.894 102.359C323.761 104.513 320.099 105.651 316.316 105.651Z" fill="#43B5E8"/>
<path d="M325.145 72.3196V77.0754L329.905 72.7667L325.145 72.3196Z" fill="#43B5E8"/>
<path d="M316.071 125.162H311.067V130.162H316.071V125.162Z" fill="white"/>
<path d="M307.852 126.829H299.837C299.796 126.829 299.715 126.788 299.674 126.748C299.633 126.707 299.593 126.626 299.593 126.585C299.593 126.544 299.633 126.463 299.674 126.422C299.715 126.382 299.756 126.341 299.837 126.341H307.852C307.893 126.341 307.934 126.341 307.934 126.341C307.974 126.341 308.015 126.382 308.015 126.382C308.056 126.422 308.056 126.422 308.056 126.463C308.056 126.504 308.096 126.544 308.096 126.544C308.096 126.544 308.096 126.626 308.056 126.626C308.056 126.666 308.015 126.666 308.015 126.707C307.974 126.748 307.974 126.748 307.934 126.748C307.934 126.829 307.893 126.869 307.852 126.829Z" fill="white"/>
<path d="M307.853 128.943H291.781C291.741 128.943 291.7 128.943 291.7 128.943C291.659 128.943 291.618 128.902 291.618 128.902C291.578 128.861 291.578 128.861 291.578 128.821C291.578 128.78 291.537 128.739 291.537 128.739C291.537 128.739 291.537 128.658 291.578 128.658C291.578 128.617 291.618 128.617 291.618 128.577C291.659 128.536 291.659 128.536 291.7 128.536C291.741 128.536 291.781 128.536 291.781 128.536H307.853C307.893 128.536 307.934 128.536 307.934 128.536C307.975 128.536 308.016 128.577 308.016 128.577C308.056 128.617 308.056 128.617 308.056 128.658C308.056 128.699 308.097 128.739 308.097 128.739C308.097 128.739 308.097 128.821 308.056 128.821C308.056 128.861 308.016 128.861 308.016 128.902C307.975 128.943 307.975 128.943 307.934 128.943C307.934 128.943 307.893 128.943 307.853 128.943Z" fill="white"/>
<path d="M316.071 132.56H311.067V137.56H316.071V132.56Z" fill="#049DD7"/>
<path d="M307.852 134.227H299.837C299.796 134.227 299.715 134.186 299.674 134.145C299.633 134.105 299.593 134.024 299.593 133.983C299.593 133.942 299.633 133.861 299.674 133.82C299.715 133.78 299.756 133.739 299.837 133.739H307.852C307.893 133.739 307.934 133.739 307.934 133.739C307.974 133.739 308.015 133.78 308.015 133.78C308.056 133.82 308.056 133.82 308.056 133.861C308.056 133.902 308.096 133.942 308.096 133.942C308.096 133.942 308.096 134.024 308.056 134.024C308.056 134.064 308.015 134.064 308.015 134.105C307.974 134.145 307.974 134.145 307.934 134.145C307.934 134.227 307.893 134.267 307.852 134.227Z" fill="white"/>
<path d="M420.476 232.108C420.476 234.343 418.645 236.172 416.407 236.172H346.994C344.756 236.172 342.925 234.343 342.925 232.108V129.471C342.925 127.235 344.756 125.406 346.994 125.406H416.407C418.645 125.406 420.476 127.235 420.476 129.471V232.108Z" fill="#43B5E8"/>
<path d="M420.476 289.503C420.476 291.738 418.645 293.568 416.407 293.568H346.994C344.756 293.568 342.925 291.738 342.925 289.503V244.749C342.925 242.513 344.756 240.684 346.994 240.684H416.407C418.645 240.684 420.476 242.513 420.476 244.749V289.503Z" fill="#43B5E8"/>
<path d="M420.476 347.264C420.476 349.499 418.645 351.329 416.407 351.329H346.994C344.756 351.329 342.925 349.499 342.925 347.264V302.51C342.925 300.274 344.756 298.445 346.994 298.445H416.407C418.645 298.445 420.476 300.274 420.476 302.51V347.264Z" fill="#43B5E8"/>
<path d="M307.853 136.341H291.781C291.741 136.341 291.7 136.341 291.7 136.341L291.618 136.3C291.578 136.259 291.578 136.259 291.578 136.219C291.578 136.178 291.537 136.137 291.537 136.137C291.537 136.137 291.537 136.056 291.578 136.056C291.578 136.015 291.618 136.015 291.618 135.975C291.659 135.934 291.659 135.934 291.7 135.934C291.741 135.934 291.781 135.934 291.781 135.934H307.853C307.893 135.934 307.934 135.934 307.934 135.934C307.975 135.934 308.016 135.975 308.016 135.975C308.056 136.015 308.056 136.015 308.056 136.056C308.056 136.097 308.097 136.137 308.097 136.137C308.097 136.137 308.097 136.219 308.056 136.219C308.056 136.259 308.016 136.259 308.016 136.3C307.975 136.341 307.975 136.341 307.934 136.341C307.893 136.341 307.893 136.341 307.853 136.341Z" fill="white"/>
<path d="M306.714 101.139V96.3833L301.953 100.651L306.714 101.139Z" fill="#C2C2C2"/>
<path d="M158.367 238.489C160.686 240.806 164.429 240.806 166.708 238.489C169.027 236.172 169.027 232.433 166.708 230.156C164.389 227.839 160.645 227.839 158.367 230.156C156.048 232.433 156.048 236.172 158.367 238.489Z" fill="#C5C6C8"/>
<path d="M410.263 131.91C410.263 131.26 409.693 130.69 409.042 130.69H353.585C352.894 130.69 352.365 131.26 352.365 131.91V135.202C352.365 135.853 352.894 136.422 353.585 136.422H409.042C409.693 136.422 410.263 135.853 410.263 135.202V131.91Z" fill="white"/>
<path d="M408.148 144.795H353.789C353.586 144.795 353.341 144.755 353.179 144.633C353.016 144.511 352.935 144.389 352.935 144.226C352.935 144.064 353.016 143.942 353.179 143.82C353.341 143.698 353.545 143.657 353.789 143.657H408.148C408.351 143.657 408.595 143.698 408.758 143.82C408.921 143.942 409.002 144.064 409.002 144.226C409.002 144.389 408.921 144.511 408.758 144.633C408.554 144.755 408.351 144.795 408.148 144.795Z" fill="white"/>
<path d="M407.944 151.38H353.626C353.422 151.38 353.178 151.34 353.016 151.218C352.853 151.096 352.771 150.974 352.771 150.811C352.771 150.649 352.853 150.527 353.016 150.405C353.178 150.283 353.382 150.242 353.626 150.242H407.984C408.188 150.242 408.432 150.283 408.595 150.405C408.757 150.527 408.839 150.649 408.839 150.811C408.839 150.974 408.757 151.096 408.595 151.218C408.391 151.299 408.188 151.38 407.944 151.38Z" fill="white"/>
<path d="M407.944 157.925H353.626C353.422 157.925 353.178 157.884 353.016 157.762C352.853 157.64 352.771 157.518 352.771 157.356C352.771 157.193 352.853 157.071 353.016 156.949C353.178 156.827 353.382 156.787 353.626 156.787H407.984C408.188 156.787 408.432 156.827 408.595 156.949C408.757 157.071 408.839 157.193 408.839 157.356C408.839 157.518 408.757 157.64 408.595 157.762C408.391 157.884 408.188 157.925 407.944 157.925Z" fill="white"/>
<path d="M408.148 178.005H353.789C353.586 178.005 353.341 177.964 353.179 177.842C353.016 177.72 352.935 177.598 352.935 177.436C352.935 177.273 353.016 177.151 353.179 177.029C353.341 176.907 353.545 176.867 353.789 176.867H408.148C408.351 176.867 408.595 176.907 408.758 177.029C408.921 177.151 409.002 177.273 409.002 177.436C409.002 177.598 408.921 177.72 408.758 177.842C408.554 177.924 408.351 178.005 408.148 178.005Z" fill="white"/>
<path d="M408.148 206.052H353.789C353.586 206.052 353.341 206.012 353.179 205.89C353.016 205.768 352.935 205.646 352.935 205.483C352.935 205.321 353.016 205.199 353.179 205.077C353.341 204.955 353.545 204.914 353.789 204.914H408.148C408.351 204.914 408.595 204.955 408.758 205.077C408.921 205.199 409.002 205.321 409.002 205.483C409.002 205.646 408.921 205.768 408.758 205.89C408.554 206.012 408.351 206.052 408.148 206.052Z" fill="white"/>
<path d="M407.781 213.897H353.423C353.219 213.897 352.975 213.857 352.812 213.735C352.65 213.613 352.568 213.491 352.568 213.328C352.568 213.166 352.65 213.044 352.812 212.922C352.975 212.8 353.179 212.759 353.423 212.759H407.781C407.985 212.759 408.229 212.8 408.392 212.922C408.554 213.044 408.636 213.166 408.636 213.328C408.636 213.491 408.554 213.613 408.392 213.735C408.188 213.857 407.985 213.897 407.781 213.897Z" fill="white"/>
<path d="M407.781 221.539H353.423C353.219 221.539 352.975 221.498 352.812 221.376C352.65 221.254 352.568 221.133 352.568 220.97C352.568 220.807 352.65 220.685 352.812 220.563C352.975 220.442 353.179 220.401 353.423 220.401H407.781C407.985 220.401 408.229 220.442 408.392 220.563C408.554 220.685 408.636 220.807 408.636 220.97C408.636 221.133 408.554 221.254 408.392 221.376C408.188 221.498 407.985 221.539 407.781 221.539Z" fill="white"/>
<path d="M407.944 185.078H353.626C353.422 185.078 353.178 185.037 353.016 184.915C352.853 184.793 352.771 184.671 352.771 184.509C352.771 184.346 352.853 184.224 353.016 184.102C353.178 183.98 353.382 183.939 353.626 183.939H407.984C408.188 183.939 408.432 183.98 408.595 184.102C408.757 184.224 408.839 184.346 408.839 184.509C408.839 184.671 408.757 184.793 408.595 184.915C408.391 185.037 408.188 185.078 407.944 185.078Z" fill="white"/>
<path d="M408.148 192.191H353.789C353.586 192.191 353.341 192.15 353.179 192.029C353.016 191.907 352.935 191.785 352.935 191.622C352.935 191.459 353.016 191.338 353.179 191.216C353.341 191.094 353.545 191.053 353.789 191.053H408.148C408.351 191.053 408.595 191.094 408.758 191.216C408.921 191.338 409.002 191.459 409.002 191.622C409.002 191.785 408.921 191.907 408.758 192.029C408.554 192.15 408.351 192.191 408.148 192.191Z" fill="white"/>
<path d="M451.032 97.6841C452.741 97.6841 454.084 96.3021 454.084 94.6355C454.084 92.9283 452.7 91.5869 451.032 91.5869C449.323 91.5869 447.98 92.9689 447.98 94.6355C447.98 96.3427 449.364 97.6841 451.032 97.6841Z" fill="white"/>
<path d="M325.186 351.004C325.186 353.239 323.355 355.068 321.117 355.068H227.291C225.054 355.068 223.223 353.239 223.223 351.004V320.03C223.223 317.794 225.054 315.965 227.291 315.965H321.117C323.355 315.965 325.186 317.794 325.186 320.03V351.004Z" fill="#76CCF3"/>
<path d="M248.489 353.564C243.404 353.564 243.363 346.979 243.363 340.638C243.363 335.557 243.322 330.354 240.555 330.354C237.422 330.354 236.446 336.614 235.592 342.142C234.615 348.28 233.801 353.605 230.343 353.605C227.495 353.605 225.501 351.369 224.402 346.939C223.914 344.825 223.67 342.63 223.629 340.476H224.525C224.525 343.971 225.582 353.036 230.343 353.036C232.988 353.036 233.923 347.223 234.737 342.061C235.714 335.76 236.649 329.785 240.596 329.785C244.299 329.785 244.299 334.826 244.299 340.638C244.299 346.451 244.339 353.036 248.53 353.036C248.978 353.036 249.385 352.914 249.751 352.711C252.111 351.207 251.744 345.191 251.419 339.378C251.012 332.549 250.605 325.436 254.023 323.241C254.796 322.753 255.732 322.509 256.668 322.509C257.441 322.469 258.214 322.672 258.824 323.078C261.428 324.745 260.981 329.907 260.492 335.354C260.085 340.11 259.638 345.028 261.672 346.329C261.998 346.532 262.445 346.654 262.852 346.654C263.381 346.654 263.869 346.532 264.317 346.288C266.229 345.11 266.189 341.37 266.148 337.712C266.107 333.728 266.066 329.582 268.508 328.078C269.24 327.631 270.095 327.428 270.99 327.468C271.803 327.468 272.576 327.671 273.187 328.037C275.791 329.663 275.709 334.46 275.628 339.541C275.547 344.215 275.465 349.093 277.784 350.516C278.232 350.8 278.761 350.922 279.29 350.922C279.697 350.922 280.104 350.8 280.429 350.597C282.911 349.012 282.667 342.264 282.423 335.72C282.138 328.403 281.853 320.802 285.19 318.729C285.841 318.322 286.614 318.119 287.427 318.119C293.286 318.119 294.222 325.761 295.158 333.118C295.85 338.646 296.541 344.337 299.43 344.337C302.4 344.337 302.522 339.988 302.604 335.76C302.726 330.639 302.848 325.355 307.812 325.355C312.938 325.355 314.078 331.289 315.176 336.98C315.949 341.045 316.763 345.231 319.001 345.231C320.099 345.272 321.239 344.988 322.134 344.459C324.087 343.158 323.802 340.679 323.802 340.638L324.697 340.598C324.697 340.72 325.023 343.362 322.826 344.825C321.727 345.475 320.384 345.841 319.042 345.76C315.99 345.76 315.217 341.695 314.322 337.021C313.305 331.777 312.165 325.883 307.812 325.883C303.743 325.883 303.621 331.127 303.499 335.76C303.377 340.435 303.296 344.866 299.43 344.866C295.728 344.866 295.036 339.419 294.263 333.159C293.408 326.371 292.473 318.648 287.427 318.648C286.858 318.648 286.288 318.81 285.841 319.095C282.789 321.005 283.074 328.484 283.359 335.679C283.643 342.63 283.888 349.215 281.121 350.963C280.592 351.288 279.982 351.451 279.371 351.451C278.598 351.451 277.825 351.288 277.215 350.882C274.652 349.296 274.733 344.54 274.814 339.541C274.896 334.785 274.977 329.907 272.617 328.444C272.17 328.159 271.6 328.037 271.03 328.037C270.379 328.037 269.728 328.2 269.199 328.484C267.002 329.826 267.043 333.85 267.084 337.712C267.124 341.614 267.165 345.313 265.009 346.654C264.398 347.02 263.666 347.223 262.934 347.183C262.283 347.183 261.632 347.02 261.103 346.695C258.824 345.191 259.231 340.394 259.679 335.313C260.126 330.232 260.614 324.948 258.254 323.444C257.807 323.16 257.278 323.038 256.749 323.038C256.017 323.038 255.325 323.241 254.715 323.607C251.541 325.639 251.948 332.956 252.355 339.378C252.721 345.597 253.087 351.451 250.442 353.117C249.791 353.402 249.14 353.564 248.489 353.564Z" fill="#ECF2FA"/>
<path d="M501.403 38.663V54.2719H492.777C492.167 56.4669 491.312 58.5806 490.214 60.5724L496.317 66.6696L485.29 77.6853L479.269 71.6693C477.275 72.8075 475.119 73.7017 472.921 74.3115V82.8476H457.298V74.3521C455.06 73.7424 452.944 72.8481 450.91 71.71L444.888 77.7666L433.862 66.7509L439.965 60.6537C438.866 58.6619 437.971 56.5482 437.401 54.3532H428.735V38.663H437.483C438.093 36.5087 438.988 34.4356 440.087 32.4845L433.862 26.2654L444.888 15.2497L451.154 21.5095C453.107 20.412 455.141 19.5991 457.298 18.9893V10.0874H472.921V18.9487C475.078 19.5584 477.112 20.412 479.065 21.4689L485.331 15.2091L496.357 26.2247L490.132 32.4439C491.231 34.395 492.126 36.468 492.736 38.6224L501.403 38.663Z" fill="url(#paint27_linear)"/>
<path d="M478.455 59.5562C485.698 52.3208 485.698 40.6142 478.455 33.4194C471.213 26.1841 459.495 26.1841 452.293 33.4194C445.051 40.6548 445.051 52.3615 452.293 59.5562C459.536 66.7916 471.254 66.7916 478.455 59.5562Z" fill="#6C6D70"/>
<path d="M454.205 35.5738C448.265 41.5084 448.265 51.142 454.205 57.0766C460.146 63.0113 469.789 63.0113 475.729 57.0766C481.669 51.142 481.669 41.5084 475.729 35.5738C469.789 29.6391 460.146 29.6391 454.205 35.5738Z" fill="white"/>
<path d="M234.981 113.74C234.981 114.106 234.859 114.472 234.656 114.756C234.452 115.041 234.167 115.285 233.842 115.447C233.516 115.569 233.15 115.61 232.784 115.569C232.418 115.488 232.092 115.325 231.848 115.082C231.604 114.838 231.401 114.512 231.36 114.147C231.319 113.781 231.319 113.415 231.482 113.09C231.604 112.765 231.848 112.48 232.174 112.277C232.459 112.074 232.825 111.952 233.191 111.952C233.679 111.952 234.167 112.155 234.493 112.48C234.778 112.805 234.981 113.252 234.981 113.74Z" fill="url(#paint28_linear)"/>
<path d="M242.101 115.61C243.119 115.61 243.932 114.797 243.932 113.781C243.932 112.765 243.119 111.952 242.101 111.952C241.084 111.952 240.271 112.765 240.271 113.781C240.271 114.756 241.084 115.61 242.101 115.61Z" fill="url(#paint29_linear)"/>
<path d="M252.395 113.74C252.395 114.106 252.273 114.472 252.07 114.756C251.866 115.041 251.582 115.285 251.256 115.447C250.931 115.61 250.564 115.61 250.198 115.569C249.832 115.488 249.506 115.325 249.262 115.082C249.018 114.838 248.815 114.512 248.774 114.147C248.693 113.781 248.733 113.415 248.896 113.09C249.018 112.765 249.262 112.48 249.588 112.277C249.873 112.074 250.239 111.952 250.605 111.952C251.093 111.952 251.582 112.155 251.907 112.48C252.192 112.805 252.395 113.252 252.395 113.74Z" fill="url(#paint30_linear)"/>
<path d="M257.481 200.361H231.156C227.576 200.361 224.646 203.288 224.646 206.865V233.164C224.646 236.741 227.576 239.668 231.156 239.668H257.481C261.062 239.668 263.991 236.741 263.991 233.164V206.865C263.991 203.288 261.062 200.361 257.481 200.361Z" fill="url(#paint31_linear)"/>
<path d="M259.19 245.44H229.081C228.959 245.44 228.837 245.4 228.756 245.278C228.674 245.156 228.634 245.034 228.634 244.871C228.634 244.708 228.674 244.587 228.756 244.465C228.837 244.343 228.959 244.302 229.081 244.302H259.19C259.312 244.302 259.434 244.343 259.516 244.465C259.597 244.587 259.638 244.708 259.638 244.871C259.638 245.034 259.597 245.156 259.516 245.278C259.434 245.4 259.312 245.44 259.19 245.44Z" fill="#C2C2C2"/>
<path d="M319.042 245.44H288.933C288.811 245.44 288.689 245.4 288.607 245.278C288.526 245.156 288.485 245.034 288.485 244.871C288.485 244.708 288.526 244.587 288.607 244.465C288.689 244.343 288.811 244.302 288.933 244.302H319.042C319.164 244.302 319.286 244.343 319.367 244.465C319.449 244.587 319.489 244.708 319.489 244.871C319.489 245.034 319.449 245.156 319.367 245.278C319.286 245.4 319.164 245.44 319.042 245.44Z" fill="#C2C2C2"/>
<path d="M259.434 304.502H229.325C229.203 304.502 229.081 304.461 229 304.339C228.919 304.217 228.878 304.095 228.878 303.933C228.878 303.77 228.919 303.648 229 303.526C229.081 303.404 229.203 303.364 229.325 303.364H259.434C259.556 303.364 259.678 303.404 259.76 303.526C259.841 303.648 259.882 303.77 259.882 303.933C259.882 304.095 259.841 304.217 259.76 304.339C259.678 304.461 259.556 304.502 259.434 304.502Z" fill="#C2C2C2"/>
<path d="M319.529 304.746H289.421C289.299 304.746 289.177 304.705 289.095 304.583C289.014 304.461 288.973 304.339 288.973 304.177C288.973 304.014 289.014 303.892 289.095 303.77C289.177 303.648 289.299 303.608 289.421 303.608H319.529C319.652 303.608 319.774 303.648 319.855 303.77C319.936 303.892 319.977 304.014 319.977 304.177C319.977 304.339 319.936 304.461 319.855 304.583C319.774 304.705 319.652 304.746 319.529 304.746Z" fill="#C2C2C2"/>
<path d="M261.428 249.871H227.21C227.129 249.871 227.047 249.83 226.966 249.708C226.884 249.586 226.844 249.464 226.844 249.302C226.844 249.139 226.884 249.017 226.966 248.895C227.047 248.773 227.129 248.733 227.21 248.733H261.428C261.509 248.733 261.591 248.773 261.672 248.895C261.754 249.017 261.794 249.139 261.794 249.302C261.794 249.464 261.754 249.586 261.672 249.708C261.632 249.83 261.55 249.871 261.428 249.871Z" fill="#C2C2C2"/>
<path d="M321.32 249.383H287.102C287.02 249.383 286.939 249.342 286.857 249.22C286.776 249.098 286.735 248.977 286.735 248.814C286.735 248.651 286.776 248.529 286.857 248.407C286.939 248.286 287.02 248.245 287.102 248.245H321.32C321.401 248.245 321.482 248.286 321.564 248.407C321.645 248.529 321.686 248.651 321.686 248.814C321.686 248.977 321.645 249.098 321.564 249.22C321.482 249.342 321.401 249.383 321.32 249.383Z" fill="#C2C2C2"/>
<path d="M261.916 308.241H227.698C227.617 308.241 227.535 308.201 227.454 308.079C227.373 307.957 227.332 307.835 227.332 307.672C227.332 307.51 227.373 307.388 227.454 307.266C227.535 307.144 227.617 307.103 227.698 307.103H261.916C261.998 307.103 262.079 307.144 262.161 307.266C262.242 307.388 262.283 307.51 262.283 307.672C262.283 307.835 262.242 307.957 262.161 308.079C262.12 308.16 262.038 308.241 261.916 308.241Z" fill="#C2C2C2"/>
<path d="M321.32 308.445H287.102C287.02 308.445 286.939 308.404 286.857 308.282C286.776 308.16 286.735 308.038 286.735 307.876C286.735 307.713 286.776 307.591 286.857 307.469C286.939 307.347 287.02 307.307 287.102 307.307H321.32C321.401 307.307 321.482 307.347 321.564 307.469C321.645 307.591 321.686 307.713 321.686 307.876C321.686 308.038 321.645 308.16 321.564 308.282C321.482 308.404 321.401 308.445 321.32 308.445Z" fill="#C2C2C2"/>
<path d="M257.481 259.87H231.156C227.576 259.87 224.646 262.797 224.646 266.374V292.673C224.646 296.25 227.576 299.177 231.156 299.177H257.481C261.062 299.177 263.991 296.25 263.991 292.673V266.374C263.991 262.797 261.062 259.87 257.481 259.87Z" fill="url(#paint32_linear)"/>
<path d="M317.048 259.87H290.723C287.142 259.87 284.213 262.797 284.213 266.374V292.673C284.213 296.25 287.142 299.177 290.723 299.177H317.048C320.628 299.177 323.558 296.25 323.558 292.673V266.374C323.558 262.797 320.669 259.87 317.048 259.87Z" fill="url(#paint33_linear)"/>
<path d="M316.966 199.874H290.641C287.061 199.874 284.131 202.8 284.131 206.377V232.677C284.131 236.254 287.061 239.18 290.641 239.18H316.966C320.547 239.18 323.476 236.254 323.476 232.677V206.377C323.476 202.76 320.547 199.874 316.966 199.874Z" fill="url(#paint34_linear)"/>
<path d="M333.485 194.223C333.16 194.223 332.834 194.102 332.59 193.858C332.346 193.614 332.224 193.289 332.224 192.963V123.821C332.224 123.496 332.346 123.171 332.59 122.927C332.834 122.683 333.16 122.561 333.485 122.561C333.811 122.561 334.136 122.683 334.381 122.927C334.625 123.171 334.747 123.496 334.747 123.821V192.963C334.747 193.289 334.625 193.614 334.381 193.858C334.136 194.102 333.811 194.223 333.485 194.223Z" fill="#C2C2C2"/>
<path d="M333.608 161.461C333.038 161.461 332.469 161.217 332.062 160.811C331.655 160.404 331.411 159.835 331.411 159.266V153.169C331.411 152.6 331.655 152.031 332.062 151.624C332.469 151.218 333.038 150.974 333.608 150.974C333.893 150.974 334.177 151.015 334.462 151.136C334.747 151.258 334.95 151.421 335.154 151.624C335.357 151.827 335.52 152.071 335.642 152.356C335.764 152.64 335.805 152.925 335.805 153.21V159.307C335.805 159.591 335.764 159.876 335.642 160.16C335.52 160.445 335.357 160.648 335.154 160.892C334.95 161.095 334.706 161.258 334.462 161.38C334.177 161.38 333.893 161.461 333.608 161.461Z" fill="url(#paint35_linear)"/>
<path d="M244.217 222.596C248.815 222.596 252.558 218.856 252.558 214.263C252.558 209.67 248.815 205.93 244.217 205.93C239.619 205.93 235.876 209.67 235.876 214.263C235.876 218.856 239.619 222.596 244.217 222.596Z" fill="white"/>
<path d="M303.702 223.328C308.3 223.328 312.043 219.588 312.043 214.995C312.043 210.402 308.3 206.662 303.702 206.662C299.105 206.662 295.361 210.402 295.361 214.995C295.361 219.588 299.105 223.328 303.702 223.328Z" fill="white"/>
<path d="M243.973 282.755C248.571 282.755 252.314 279.015 252.314 274.422C252.314 269.829 248.571 266.089 243.973 266.089C239.376 266.089 235.632 269.829 235.632 274.422C235.632 279.015 239.376 282.755 243.973 282.755Z" fill="white"/>
<path d="M303.499 282.755C308.097 282.755 311.84 279.015 311.84 274.422C311.84 269.829 308.097 266.089 303.499 266.089C298.901 266.089 295.158 269.829 295.158 274.422C295.158 279.015 298.861 282.755 303.499 282.755Z" fill="white"/>
<path d="M414.169 246.944L428.085 260.236L425.765 261.456L412.42 248.814L413.478 245.725L414.169 246.944Z" fill="#C8C8C8"/>
<path d="M401.434 250.156C404.282 251.375 407.497 251.375 410.385 250.237C412.542 249.383 414.373 247.879 415.675 245.969C416.977 244.058 417.668 241.823 417.709 239.506C417.709 237.189 417.058 234.953 415.797 233.002C414.536 231.092 412.705 229.547 410.589 228.653C408.473 227.758 406.113 227.515 403.835 227.921C401.556 228.368 399.481 229.466 397.813 231.051C396.185 232.677 395.046 234.75 394.558 236.986C394.07 239.262 394.314 241.579 395.168 243.733C396.307 246.66 398.586 248.936 401.434 250.156ZM415.756 239.465C415.756 240.766 415.471 242.026 414.983 243.205C414.495 244.383 413.762 245.481 412.827 246.375C411.891 247.269 410.833 248.001 409.612 248.489C407.822 249.221 405.828 249.383 403.957 249.017C402.044 248.611 400.336 247.676 398.952 246.294C397.61 244.912 396.674 243.164 396.308 241.254C395.941 239.343 396.145 237.392 396.918 235.603C397.691 233.815 398.952 232.311 400.58 231.254C402.207 230.197 404.079 229.628 406.032 229.628C407.985 229.628 409.856 230.238 411.443 231.335C413.03 232.433 414.291 233.978 415.024 235.766C415.553 236.904 415.797 238.205 415.756 239.465Z" fill="url(#paint36_linear)"/>
<path d="M401.963 248.977C404.526 250.074 407.374 250.074 409.938 249.058C411.85 248.286 413.478 246.944 414.658 245.237C415.837 243.53 416.448 241.538 416.448 239.465C416.448 237.392 415.878 235.4 414.739 233.652C413.6 231.945 411.972 230.563 410.101 229.791C408.188 228.978 406.113 228.775 404.079 229.14C402.044 229.506 400.173 230.522 398.708 231.945C397.243 233.408 396.226 235.238 395.819 237.27C395.412 239.302 395.575 241.375 396.348 243.286C397.406 245.847 399.4 247.879 401.963 248.977ZM414.78 239.465C414.78 240.603 414.535 241.741 414.088 242.798C413.64 243.855 412.989 244.831 412.176 245.603C411.362 246.416 410.385 247.026 409.327 247.473C407.741 248.123 405.95 248.286 404.282 247.92C402.573 247.554 401.027 246.741 399.807 245.481C398.586 244.262 397.772 242.676 397.447 240.969C397.121 239.262 397.325 237.514 397.976 235.929C398.667 234.343 399.766 232.961 401.231 232.026C402.695 231.091 404.364 230.563 406.113 230.604C407.863 230.604 409.531 231.132 410.955 232.108C412.379 233.083 413.478 234.465 414.129 236.051C414.576 237.148 414.78 238.286 414.78 239.465Z" fill="url(#paint37_linear)"/>
<path d="M415.064 235.725C417.099 240.725 414.657 246.456 409.653 248.489C404.648 250.521 398.911 248.082 396.877 243.083C394.843 238.083 397.284 232.352 402.288 230.319C407.334 228.287 413.03 230.726 415.064 235.725Z" fill="#CBCBCB"/>
<path d="M436.751 267.634L435.937 266.862L426.417 257.676L423.69 260.521L424.992 261.7L426.539 263.122L433.7 269.585L434.513 270.317C436.873 269.667 436.751 267.634 436.751 267.634Z" fill="#7C7D80"/>
<path d="M367.826 381.164C367.826 381.164 368.925 381.571 368.64 383.563C368.355 385.554 368.152 385.961 366.483 387.343C364.774 388.806 354.725 394.538 351.958 393.156C349.191 391.814 347.238 388.644 349.924 387.302C354.399 385.026 356.393 381.733 358.264 380.108C360.136 378.482 361.153 377.913 362.13 377.953C363.106 378.034 367.826 381.164 367.826 381.164Z" fill="#231F20"/>
<path d="M368.477 379.091L367.582 382.059C367.582 382.059 364.205 384.782 361.845 383.034C359.485 381.286 360.706 379.091 360.706 379.091L362.74 374.214L366.158 374.295L368.477 379.091Z" fill="url(#paint38_linear)"/>
<path d="M413.599 319.786C413.599 319.786 413.274 319.176 413.966 317.997C414.617 316.818 416.407 315.68 416.407 315.68C416.407 315.68 419.499 314.664 421.33 316.493C423.812 319.013 423.975 333.484 421.859 334.866C419.214 336.614 416.936 335.029 416.692 333.606C416.448 332.305 416.122 329.663 416.122 329.663L412.786 320.761L413.599 319.786Z" fill="#231F20"/>
<path d="M417.79 324.704L420.191 322.468C420.191 322.468 420.191 320.233 418.563 319.135C416.366 317.631 414.698 318.404 414.698 318.404L412.745 320.761L412.542 323.281L417.79 324.704Z" fill="url(#paint39_linear)"/>
<path d="M403.224 327.956C404.445 327.102 405.421 325.924 406.072 324.582C407.09 322.794 408.27 321.086 409.612 319.501C412.094 320.192 414.413 321.452 416.366 323.2C418.319 324.907 419.865 327.021 420.883 329.419C417.994 330.151 415.471 331.94 413.803 334.46C411.158 338.646 406.968 343.971 403.59 345.801C401.231 347.02 398.708 347.874 396.104 348.402L401.393 328.444L403.224 327.956Z" fill="url(#paint40_linear)"/>
<path d="M358.59 372.547C358.59 372.547 358.956 372.75 361.967 373.888C365.018 375.027 363.879 376.327 366.198 377.913C367.826 378.969 369.698 379.62 371.61 379.823C372.098 377.953 372.668 376.083 373.359 374.254C374.743 370.393 374.255 363.117 374.499 353.198C374.743 343.28 380.683 336.37 385.159 329.338C385.647 328.606 386.054 327.875 386.461 327.184C386.42 332.061 386.949 339.134 388.454 344.134C390.041 349.418 393.581 349.499 398.586 347.508C403.916 345.394 400.823 332.387 403.875 325.802C406.764 319.542 403.672 315.192 403.672 315.192L397.162 313.079L391.14 312.713C391.14 312.713 390.204 314.298 389.187 316.371L383.45 312.713L374.824 314.298C374.824 314.298 374.824 316.534 369.535 325.883C364.245 335.191 362.943 338.484 363.594 353.442C364.205 363.726 358.59 372.547 358.59 372.547Z" fill="url(#paint41_linear)"/>
<path d="M427.311 265.764C427.311 265.764 426.986 265.398 427.515 264.707C428.41 263.529 427.352 262.716 427.189 261.577C427.026 260.439 427.596 260.48 428.328 259.83C428.613 259.586 428.857 259.342 429.101 259.057C429.183 258.976 429.264 258.895 429.386 258.895C429.508 258.854 429.59 258.854 429.712 258.895C429.834 258.935 429.915 258.976 429.997 259.057C430.078 259.139 430.159 259.22 430.159 259.342C430.241 259.626 430.241 259.911 430.078 260.155C429.834 260.277 429.63 260.48 429.468 260.724C429.305 260.968 429.223 261.252 429.223 261.537C429.223 261.821 429.264 262.106 429.386 262.35C429.508 262.594 429.671 262.838 429.915 263C429.915 263.366 429.834 263.772 429.671 264.098C429.508 264.464 429.305 264.748 429.02 264.992C429.02 264.992 430.607 266.577 430.322 267.878C430.037 269.179 428.613 269.138 428.613 269.138L428.003 267.634L427.311 265.764Z" fill="url(#paint42_linear)"/>
<path d="M348.744 263.772C348.744 263.772 347.035 264.342 346.303 266.78C345.896 268.366 345.896 269.992 346.303 271.577L349.273 271.17L351.185 269.707L351.673 266.089L348.744 263.772Z" fill="#231F20"/>
<path d="M342.396 268.813C342.396 268.813 341.99 269.585 341.583 269.707C341.176 269.829 340.24 269.707 339.792 270.032C339.508 270.276 339.304 270.561 339.182 270.927C340.077 271.049 340.972 271.008 341.827 270.845C342.722 270.52 343.576 270.114 344.431 269.626L344.675 268.528L343.698 268.325L342.396 268.813Z" fill="url(#paint43_linear)"/>
<path d="M338.613 268.854C338.491 268.976 338.369 269.138 338.287 269.301C338.206 269.463 338.206 269.667 338.206 269.829C338.206 270.073 338.125 270.358 338.043 270.601C338.002 270.683 337.962 270.805 337.88 270.845C337.799 270.927 337.718 270.967 337.596 270.967C337.474 270.967 337.392 270.967 337.311 270.927C337.229 270.886 337.148 270.805 337.107 270.723C336.863 270.317 336.7 269.951 336.497 269.545C336.253 269.097 336.131 268.61 336.131 268.081H337.636L338.613 268.854Z" fill="url(#paint44_linear)"/>
<path d="M349.028 265.561C348.337 265.764 347.604 265.683 346.953 265.399C345.692 264.911 344.96 263.325 342.193 263.204C340.606 263.163 338.979 263.447 337.473 263.976C337.188 264.057 336.904 264.26 336.7 264.464C336.497 264.667 336.334 264.951 336.212 265.236C336.008 265.846 335.927 266.455 335.968 267.106C336.008 267.594 336.09 268 336.13 268.325C336.171 268.528 336.293 268.732 336.456 268.894C336.619 269.016 336.863 269.098 337.066 269.098C337.555 269.057 338.002 269.016 338.45 268.935C339.508 268.691 341.013 268.366 342.234 268.854C343.414 269.341 343.291 269.748 344.716 269.707C345.163 269.707 345.651 269.667 346.099 269.545C346.221 269.504 346.384 269.504 346.546 269.504C346.709 269.504 346.831 269.585 346.953 269.626L347.726 270.073C347.726 270.073 350.127 268.813 350.615 268.65C351.144 268.488 351.632 267.228 351.632 267.228L349.028 265.561Z" fill="url(#paint45_linear)"/>
<path d="M394.314 275.032C394.314 275.032 396.552 274.463 399.359 275.926C402.167 277.39 401.353 278.203 405.747 277.755C410.141 277.268 411.85 278.568 413.925 277.024C415.96 275.479 419.906 270.723 422.307 268.406C423.528 267.187 424.87 266.089 426.376 265.236C427.515 265.561 428.532 266.211 429.305 267.106C429.997 267.919 430.485 268.853 430.811 269.87C430.811 269.87 421.168 284.137 414.129 285.763C407.049 287.389 403.347 286.576 403.347 286.576C403.347 286.576 401.678 291.535 402.655 296.169C403.591 300.803 405.91 303.648 406.439 308.485C406.968 313.119 405.869 316.412 403.591 317.225C401.312 318.038 394.192 318.647 388.862 316.859C385.159 315.599 380.033 315.477 377.184 315.518C376.574 315.518 375.964 315.314 375.516 314.908C375.069 314.501 374.743 313.932 374.662 313.323C374.214 310.396 374.54 307.429 375.516 304.664C377.225 300.112 377.632 295.153 376.655 290.356C375.882 286.82 376.086 283.731 373.889 283.365C371.692 282.999 366.85 282.674 363.025 280.316C359.241 277.959 346.343 271.577 346.343 271.577C346.343 271.577 348.459 269.91 348.907 267.715C349.191 266.415 349.11 265.073 348.785 263.772C350.29 264.87 351.877 265.845 353.504 266.699C357.003 268.65 363.798 273.569 366.158 273.934C368.518 274.3 372.546 274.991 375.76 274.504C378.812 274.097 381.904 273.934 384.996 274.016L394.314 275.032Z" fill="url(#paint46_linear)"/>
<path d="M386.949 283.365C387.478 283.243 388.048 283.284 388.536 283.487C388.902 283.609 389.228 283.812 389.513 284.056C390.286 284.706 391.018 285.479 391.669 286.292C392.645 284.706 393.378 282.999 393.825 281.211C394.395 278.609 394.151 277.146 394.151 277.146L390.815 277.349L387.56 279.747L387.112 282.349L386.949 283.365Z" fill="url(#paint47_linear)"/>
<path d="M382.921 286.17C383.491 285.56 384.142 284.991 384.834 284.503C385.241 284.178 385.729 283.934 386.176 283.69C386.421 283.568 386.665 283.446 386.949 283.365L386.746 282.389L386.014 278.853L384.142 278.568C383.654 279.666 383.288 280.804 383.084 281.983C382.921 283.365 382.921 286.17 382.921 286.17Z" fill="url(#paint48_linear)"/>
<path d="M387.804 285.438C387.804 285.438 388.129 290.478 387.153 293.568C386.176 296.657 386.421 304.095 386.421 304.095C386.421 304.095 385.851 305.681 385.485 307.266C385.281 307.998 385.159 308.729 385.078 309.502C384.02 308.567 383.125 307.469 382.474 306.25C381.945 305.356 381.497 304.38 381.172 303.404C380.765 301.209 381.09 298.933 382.108 296.941C384.183 293.08 386.421 285.153 386.421 285.153L386.99 284.462L387.804 285.438Z" fill="url(#paint49_linear)"/>
<path d="M394.11 273.609C394.11 273.609 394.843 276.983 393.459 278.528C392.076 280.072 386.949 283.365 386.949 283.365C386.949 283.365 383.938 279.828 384.142 278.609C384.345 277.39 384.996 277.43 384.915 275.804C384.833 274.178 384.915 272.756 384.915 272.756L387.031 271.699L393.419 270.683L394.11 273.609Z" fill="url(#paint50_linear)"/>
<path d="M386.176 284.666C386.217 284.95 386.339 285.194 386.542 285.397C386.665 285.56 386.827 285.641 386.99 285.682C387.153 285.722 387.356 285.682 387.519 285.6C387.804 285.479 388.089 285.275 388.292 285.031C388.455 284.828 388.536 284.584 388.577 284.3C388.617 284.056 388.617 283.771 388.536 283.527C388.048 283.324 387.478 283.284 386.949 283.406C386.665 283.487 386.42 283.609 386.176 283.731C386.095 284.015 386.095 284.34 386.176 284.666Z" fill="url(#paint51_linear)"/>
<path d="M387.56 256.74C385.484 258.447 383.816 260.521 382.596 262.878C381.253 265.642 381.253 271.374 381.253 271.374C383.125 272.512 385.362 273.04 387.56 272.837C389.919 272.512 392.198 271.78 394.314 270.723L397.935 269.829L398.749 264.829L398.057 260.968L393.622 257.309L387.56 256.74Z" fill="url(#paint52_linear)"/>
<path d="M388.455 249.952C388.455 249.952 385.851 254.871 387.478 257.106C388.943 259.098 394.68 258.854 395.372 261.821C396.104 264.951 394.965 264.545 394.111 266.008C393.5 267.065 393.785 268.081 393.948 268C394.151 267.919 395.697 265.764 396.348 266.943C396.999 268.122 396.023 269.626 394.965 269.788C393.907 269.951 393.215 269.463 392.442 270.398C391.751 271.211 392.849 274.016 395.25 273.65C397.65 273.284 401.19 271.943 402.126 268.406C403.102 264.87 402.126 263.447 402.126 263.447C402.126 263.447 403.224 257.838 399.196 255.155C395.046 252.432 393.256 254.098 391.303 253.082C390.042 252.432 389.065 251.294 388.455 249.952Z" fill="#231F20"/>
<path d="M348.133 271.292C348.133 271.414 348.174 271.536 348.255 271.658C348.337 271.78 348.418 271.861 348.54 271.902C348.662 271.943 348.784 271.983 348.947 271.943C349.069 271.902 349.191 271.861 349.273 271.74C349.354 271.618 349.435 271.536 349.476 271.414C349.517 271.292 349.476 271.13 349.435 271.008C349.395 270.886 349.313 270.764 349.191 270.723C349.069 270.642 348.947 270.601 348.825 270.601C348.662 270.601 348.459 270.683 348.337 270.805C348.215 270.967 348.133 271.13 348.133 271.292Z" fill="#EBF0E1"/>
<path d="M425.562 267.35C425.562 267.472 425.602 267.594 425.684 267.716C425.765 267.837 425.846 267.919 425.968 267.959C426.09 268 426.213 268.041 426.375 268C426.497 267.959 426.619 267.919 426.701 267.797C426.782 267.675 426.863 267.594 426.904 267.472C426.945 267.35 426.904 267.187 426.863 267.065C426.823 266.943 426.741 266.821 426.619 266.781C426.497 266.699 426.375 266.659 426.253 266.659C426.09 266.659 425.887 266.74 425.765 266.862C425.643 267.025 425.562 267.187 425.562 267.35Z" fill="#EBF0E1"/>
<path d="M430.078 261.334C430.078 261.334 432.316 260.317 433.333 261.293C434.35 262.268 435.001 265.561 435.001 265.561C435.001 265.561 432.763 266.455 431.502 265.683C430.241 264.911 430.078 261.334 430.078 261.334Z" fill="url(#paint53_linear)"/>
<path d="M255.895 28.0538C255.854 28.0945 255.772 28.3384 255.61 28.7042C255.447 29.07 255.284 29.5172 255.04 30.0049C254.43 31.4683 253.697 33.2162 253.697 33.2162C252.599 32.8097 251.663 32.0374 250.971 31.0618C250.036 29.5578 246.577 27.4848 246.577 27.4848L246.699 25.8995L246.821 24.2329H253.82C253.82 24.2329 255.244 26.5905 255.691 27.6067C255.813 27.7693 255.895 27.9319 255.895 28.0538Z" fill="#010101"/>
<path d="M308.219 43.5408C308.219 43.5408 319.856 45.8171 324.779 44.0692C329.702 42.362 350.941 25.8589 352.894 26.5092C354.806 27.1596 363.147 32.2 363.147 32.2C363.147 32.2 355.986 22.4038 353.545 21.7534C351.104 21.103 330.15 32.1593 323.599 34.1511C318.065 35.8177 300.977 31.4683 300.977 31.4683L308.219 43.5408Z" fill="#E6E7E8"/>
<path d="M364.368 44.6789C364.368 44.6789 357.329 37.9313 355.62 36.8744C354.643 36.2647 346.506 39.6385 338.653 42.7684C332.55 45.2073 326.61 47.5649 324.331 47.8088C319.164 48.4185 308.3 43.622 308.3 43.622L305.249 34.2729L303.947 30.2488C303.947 30.2488 305.534 31.0617 307.893 32.1592C309.277 32.8096 310.904 33.5413 312.654 34.2729C317.252 36.1834 322.582 38.0532 325.43 37.85C332.225 37.3622 355.132 31.143 357.369 32.3625C359.607 33.5413 364.368 44.6789 364.368 44.6789Z" fill="#F1F2F2"/>
<path d="M249.14 22.0381C249.018 22.8104 248.774 23.5421 248.449 24.2331C248.123 24.9648 247.757 25.6558 247.35 26.3062C247.106 26.7126 246.862 27.1191 246.618 27.4443C246.048 28.2573 245.56 28.9483 245.316 29.2735C243.688 31.4278 241.613 29.3954 239.66 26.7126C238.562 25.1274 237.667 23.4608 236.975 21.6723C236.527 20.6154 236.283 19.8431 236.283 19.8431C236.283 19.8431 240.433 15.2499 240.759 15.0873C240.8 15.0873 240.881 15.0466 240.922 15.0466C241.491 15.0873 242.102 15.1686 242.671 15.2905C243.485 15.4531 244.258 15.6157 244.258 15.6157C245.153 16.3067 246.048 17.0384 246.862 17.8514C248.083 19.2334 249.303 20.8187 249.14 22.0381Z" fill="#F1F2F2"/>
<path d="M243.526 46.4268H222.572V47.7681H243.526V46.4268Z" fill="#939598"/>
<path d="M222.531 46.4269L216.387 26.8345L217.689 26.3467L224.036 46.4675H222.531V46.4269Z" fill="#939598"/>
<path d="M255.732 27.6474C255.732 28.0133 255.65 28.3791 255.61 28.7449C255.528 29.2327 255.366 29.6798 255.04 30.0457C254.877 30.2083 254.715 30.3302 254.471 30.3709C254.267 30.4115 254.023 30.3709 253.82 30.2896C252.599 29.8831 249.873 28.2165 247.269 26.3873C247.065 26.2248 246.862 26.1028 246.659 25.9402C244.99 24.8021 243.77 23.0542 243.241 21.1031C242.508 18.7861 237.097 21.6722 236.853 21.7941C236.405 20.7373 236.161 19.9649 236.161 19.9649C236.161 19.9649 240.311 15.3717 240.637 15.2091C240.677 15.2091 240.759 15.1685 240.8 15.1685H242.142L242.549 15.4123L246.74 17.9732C248.001 19.2333 249.263 20.8186 249.1 22.0786C248.978 22.851 248.734 23.5826 248.408 24.2736H253.82C253.86 24.2736 255.284 26.6312 255.732 27.6474Z" fill="#E6E7E8"/>
<path d="M236.65 21.1031C235.754 20.0869 235.144 18.8674 234.819 17.5667C234.412 15.5343 237.463 10.5752 241.817 10.1281C247.269 9.55902 249.181 10.8598 252.965 14.5587C256.708 18.2577 258.092 19.6398 260.859 19.7617C265.293 19.9649 265.945 22.851 266.107 24.3956C266.27 25.8183 265.782 29.6392 261.062 29.9237C256.302 30.2083 248.123 27.241 246.862 24.2736C245.601 21.3063 245.723 18.2171 242.671 17.648C239.782 17.1196 236.65 21.1031 236.65 21.1031Z" fill="#010101"/>
<path d="M338.653 42.7686C332.55 45.2075 326.609 47.5651 324.331 47.809C319.164 48.4187 308.3 43.6222 308.3 43.6222L305.249 34.2731L307.893 32.1594C309.277 32.8098 310.904 33.5415 312.654 34.2731C312.654 34.2731 312.816 38.7851 316.967 41.102C321.117 43.4596 338.653 42.7686 338.653 42.7686Z" fill="#E6E7E8"/>
<path d="M309.968 34.8421C310.009 39.2321 308.137 47.8088 308.137 47.8088C308.137 47.8088 286.085 47.7682 282.545 47.8088C279.087 47.8495 270.298 47.8088 267.002 47.5649C262.201 47.2398 261.184 44.557 259.435 41.9555C257.644 39.354 254.796 37.972 252.64 35.5331C250.931 33.6226 250.565 31.0618 250.727 30.696C250.89 30.3301 254.349 29.5172 253.738 27.2815C253.128 25.0459 266.148 24.3549 266.148 24.3549C266.148 24.3549 276.93 30.2488 282.911 29.1513C288.852 28.0538 292.676 25.0459 299.268 25.0052C300.976 25.0052 309.439 24.2329 309.439 24.2329C309.439 24.2329 309.724 26.5905 309.887 30.1675C309.928 31.5496 309.968 33.1349 309.968 34.8421Z" fill="url(#paint54_linear)"/>
<path d="M263.056 38.4597C262.405 40.736 261.225 42.8497 259.597 44.5975C257.604 46.6706 255.285 47.6055 253.291 47.6055C251.012 47.6055 241.573 41.7115 239.172 39.9636C236.772 38.1751 234.371 38.0938 233.761 38.7036C233.151 39.2726 231.889 39.3946 230.628 39.6791C229.367 39.9636 228.39 38.6629 228.227 38.0938C228.065 37.5248 228.797 37.1183 228.512 36.8744C228.187 36.6305 225.949 37.728 225.461 37.8906C224.972 38.0532 224.565 38.0938 224.362 37.8906C224.159 37.6874 227.292 36.1021 228.309 35.7362C229.367 35.3704 234.168 35.1672 236.609 35.2078C239.05 35.2485 247.839 39.923 249.629 40.5327C252.681 41.5896 253.291 40.8173 254.389 39.1913C255.285 37.7686 256.058 36.346 256.79 34.842C256.993 34.6794 265.05 32.0779 263.056 38.4597Z" fill="#F1F2F2"/>
<path d="M223.996 46.4676V46.3863C223.996 46.2644 223.915 46.1831 223.793 46.1831H222.857C222.735 46.1831 222.653 46.2644 222.653 46.3863V46.4676C222.653 46.5896 222.735 46.6709 222.857 46.6709H223.793C223.915 46.6709 223.996 46.5896 223.996 46.4676Z" fill="#43B5E8"/>
<path d="M309.847 30.1675C305.574 31.2244 300.733 34.1104 293.816 36.3867C284.336 39.476 265.538 27.2409 261.591 28.7449C257.604 30.2488 250.687 30.696 250.687 30.696C250.85 30.3301 254.308 29.5172 253.698 27.2815C253.088 25.0459 266.108 24.3549 266.108 24.3549C266.108 24.3549 276.89 30.2488 282.871 29.1513C288.811 28.0538 292.636 25.0459 299.227 25.0052C300.936 25.0052 309.399 24.2329 309.399 24.2329C309.399 24.2329 309.684 26.5905 309.847 30.1675Z" fill="url(#paint55_linear)"/>
<path d="M255.244 33.7447L264.032 39.6387C264.032 39.6387 265.863 35.6958 266.433 32.5659C266.555 31.6717 266.555 30.7774 266.473 29.8831C266.433 29.3954 266.229 28.9076 265.985 28.5011C265.741 28.0946 265.375 27.7288 264.968 27.4443C264.561 27.1597 264.073 26.9971 263.585 26.9158C263.096 26.8345 262.608 26.8752 262.12 26.9971C260.899 27.2817 259.76 27.8914 258.865 28.7856C257.4 30.1677 255.244 33.7447 255.244 33.7447Z" fill="url(#paint56_linear)"/>
<path d="M269.606 373.238H188.272C188.272 373.238 196.898 369.702 193.277 365.19C193.277 365.19 206.907 367.588 206.459 370.474C206.459 370.474 197.834 364.011 206.907 360.109C206.907 360.109 219.642 365.474 215.533 369.458C215.533 369.458 231.441 363.808 225.094 359.54C225.094 359.54 243.281 363.604 241.003 368.889C241.003 368.889 256.017 368.807 256.017 366.003C255.976 366.003 256.912 373.523 269.606 373.238Z" fill="url(#paint57_linear)"/>
<path d="M475.241 372.913H388.617C388.617 372.913 397.813 369.376 393.947 364.864C393.947 364.864 408.473 367.262 407.984 370.148C407.984 370.148 398.789 363.685 408.473 359.783C408.473 359.783 422.022 365.149 417.668 369.132C417.668 369.132 434.594 363.482 427.84 359.214C427.84 359.214 447.207 363.279 444.766 368.563C444.766 368.563 460.756 368.482 460.756 365.677C460.715 365.677 461.692 373.156 475.241 372.913Z" fill="url(#paint58_linear)"/>
<path d="M258.661 226.457C258.661 227.026 257.929 227.474 257.034 227.474H232.052C231.157 227.474 230.424 227.026 230.424 226.457C230.424 225.888 231.157 225.441 232.052 225.441H257.034C257.929 225.441 258.661 225.929 258.661 226.457Z" fill="white"/>
<path d="M318.35 227.067C318.35 227.636 317.618 228.083 316.722 228.083H291.74C290.845 228.083 290.113 227.636 290.113 227.067C290.113 226.498 290.845 226.051 291.74 226.051H316.722C317.618 226.091 318.35 226.539 318.35 227.067Z" fill="white"/>
<path d="M318.35 231.579C318.35 232.148 317.618 232.595 316.722 232.595H291.74C290.845 232.595 290.113 232.148 290.113 231.579C290.113 231.01 290.845 230.563 291.74 230.563H316.722C317.618 230.563 318.35 231.01 318.35 231.579Z" fill="white"/>
<path d="M258.498 287.511C258.498 288.08 257.766 288.527 256.871 288.527H231.889C230.994 288.527 230.261 288.08 230.261 287.511C230.261 286.942 230.994 286.495 231.889 286.495H256.871C257.766 286.495 258.498 286.942 258.498 287.511Z" fill="white"/>
<path d="M258.498 292.145C258.498 292.714 257.766 293.161 256.871 293.161H231.889C230.994 293.161 230.261 292.714 230.261 292.145C230.261 291.576 230.994 291.129 231.889 291.129H256.871C257.766 291.129 258.498 291.576 258.498 292.145Z" fill="white"/>
<path d="M318.513 287.348C318.513 287.917 317.78 288.364 316.885 288.364H291.903C291.008 288.364 290.275 287.917 290.275 287.348C290.275 286.779 291.008 286.332 291.903 286.332H316.885C317.78 286.332 318.513 286.779 318.513 287.348Z" fill="white"/>
<path d="M318.513 291.982C318.513 292.551 317.78 292.998 316.885 292.998H291.903C291.008 292.998 290.275 292.551 290.275 291.982C290.275 291.413 291.008 290.966 291.903 290.966H316.885C317.78 290.966 318.513 291.413 318.513 291.982Z" fill="white"/>
<path d="M258.661 231.457C258.661 232.026 257.929 232.473 257.034 232.473H232.052C231.157 232.473 230.424 232.026 230.424 231.457C230.424 230.888 231.157 230.441 232.052 230.441H257.034C257.929 230.441 258.661 230.888 258.661 231.457Z" fill="white"/>
</g>
<defs>
<filter id="filter0_d" x="-12" y="-8" width="675" height="463" filterUnits="userSpaceOnUse" color-interpolation-filters="sRGB">
<feFlood flood-opacity="0" result="BackgroundImageFix"/>
<feColorMatrix in="SourceAlpha" type="matrix" values="0 0 0 0 0 0 0 0 0 0 0 0 0 0 0 0 0 0 127 0" result="hardAlpha"/>
<feOffset dy="4"/>
<feGaussianBlur stdDeviation="6"/>
<feColorMatrix type="matrix" values="0 0 0 0 0 0 0 0 0 0 0 0 0 0 0 0 0 0 0.3 0"/>
<feBlend mode="normal" in2="BackgroundImageFix" result="effect1_dropShadow"/>
<feBlend mode="normal" in="SourceGraphic" in2="effect1_dropShadow" result="shape"/>
</filter>
<linearGradient id="paint0_linear" x1="107.394" y1="385.7" x2="177.456" y2="385.7" gradientUnits="userSpaceOnUse">
<stop stop-color="#43B5E8"/>
<stop offset="1" stop-color="#43B5E8"/>
</linearGradient>
<linearGradient id="paint1_linear" x1="527.86" y1="386.105" x2="473.111" y2="386.105" gradientUnits="userSpaceOnUse">
<stop stop-color="#43B5E8"/>
<stop offset="1" stop-color="#43B5E8"/>
</linearGradient>
<linearGradient id="paint2_linear" x1="72.7454" y1="353.007" x2="105.226" y2="353.007" gradientUnits="userSpaceOnUse">
<stop stop-color="#43B5E8"/>
<stop offset="1" stop-color="#43B5E8"/>
</linearGradient>
<linearGradient id="paint3_linear" x1="342.779" y1="417.77" x2="375.26" y2="417.77" gradientUnits="userSpaceOnUse">
<stop stop-color="#43B5E8"/>
<stop offset="1" stop-color="#43B5E8"/>
</linearGradient>
<linearGradient id="paint4_linear" x1="409.007" y1="401.28" x2="441.487" y2="401.28" gradientUnits="userSpaceOnUse">
<stop stop-color="#43B5E8"/>
<stop offset="1" stop-color="#43B5E8"/>
</linearGradient>
<linearGradient id="paint5_linear" x1="538.856" y1="354.845" x2="571.337" y2="354.845" gradientUnits="userSpaceOnUse">
<stop stop-color="#43B5E8"/>
<stop offset="1" stop-color="#43B5E8"/>
</linearGradient>
<linearGradient id="paint6_linear" x1="233.736" y1="418.921" x2="286.073" y2="418.921" gradientUnits="userSpaceOnUse">
<stop stop-color="#43B5E8"/>
<stop offset="1" stop-color="#43B5E8"/>
</linearGradient>
<linearGradient id="paint7_linear" x1="367.419" y1="143.954" x2="520.534" y2="143.954" gradientUnits="userSpaceOnUse">
<stop stop-color="#71459B"/>
<stop offset="0.8668" stop-color="#A76DAE"/>
</linearGradient>
<linearGradient id="paint8_linear" x1="119.36" y1="111.255" x2="172.812" y2="111.255" gradientUnits="userSpaceOnUse">
<stop stop-color="#71459B"/>
<stop offset="0.8668" stop-color="#A76DAE"/>
</linearGradient>
<linearGradient id="paint9_linear" x1="460.447" y1="162.905" x2="513.9" y2="162.905" gradientUnits="userSpaceOnUse">
<stop stop-color="#71459B"/>
<stop offset="0.8668" stop-color="#A76DAE"/>
</linearGradient>
<linearGradient id="paint10_linear" x1="105.051" y1="82.7452" x2="250.534" y2="82.7452" gradientUnits="userSpaceOnUse">
<stop stop-color="#71459B"/>
<stop offset="0.8668" stop-color="#A76DAE"/>
</linearGradient>
<linearGradient id="paint11_linear" x1="127.532" y1="281.558" x2="232.543" y2="281.558" gradientUnits="userSpaceOnUse">
<stop stop-color="#43B5E8"/>
<stop offset="1" stop-color="#43B5E8"/>
</linearGradient>
<linearGradient id="paint12_linear" x1="174.645" y1="263.494" x2="242.46" y2="287.295" gradientUnits="userSpaceOnUse">
<stop stop-color="#43B5E8"/>
<stop offset="1" stop-color="#43B5E8"/>
</linearGradient>
<linearGradient id="paint13_linear" x1="176.971" y1="263.958" x2="243.9" y2="287.449" gradientUnits="userSpaceOnUse">
<stop stop-color="#43B5E8"/>
<stop offset="1" stop-color="#43B5E8"/>
</linearGradient>
<linearGradient id="paint14_linear" x1="531.845" y1="279.41" x2="426.834" y2="279.41" gradientUnits="userSpaceOnUse">
<stop stop-color="#43B5E8"/>
<stop offset="1" stop-color="#43B5E8"/>
</linearGradient>
<linearGradient id="paint15_linear" x1="199.199" y1="308.998" x2="192.566" y2="321.873" gradientUnits="userSpaceOnUse">
<stop stop-color="#43B5E8"/>
<stop offset="1" stop-color="#43B5E8"/>
</linearGradient>
<linearGradient id="paint16_linear" x1="198.746" y1="309.298" x2="192.2" y2="322.004" gradientUnits="userSpaceOnUse">
<stop stop-color="#43B5E8"/>
<stop offset="1" stop-color="#43B5E8"/>
</linearGradient>
<linearGradient id="paint17_linear" x1="186.285" y1="322.418" x2="182.37" y2="336.359" gradientUnits="userSpaceOnUse">
<stop stop-color="#43B5E8"/>
<stop offset="1" stop-color="#43B5E8"/>
</linearGradient>
<linearGradient id="paint18_linear" x1="185.845" y1="322.786" x2="181.981" y2="336.545" gradientUnits="userSpaceOnUse">
<stop stop-color="#43B5E8"/>
<stop offset="1" stop-color="#43B5E8"/>
</linearGradient>
<linearGradient id="paint19_linear" x1="466.492" y1="318.832" x2="454.507" y2="310.689" gradientUnits="userSpaceOnUse">
<stop stop-color="#43B5E8"/>
<stop offset="1" stop-color="#43B5E8"/>
</linearGradient>
<linearGradient id="paint20_linear" x1="466.282" y1="318.298" x2="454.454" y2="310.261" gradientUnits="userSpaceOnUse">
<stop stop-color="#43B5E8"/>
<stop offset="1" stop-color="#43B5E8"/>
</linearGradient>
<linearGradient id="paint21_linear" x1="473.872" y1="252.903" x2="440.83" y2="245.208" gradientUnits="userSpaceOnUse">
<stop stop-color="#43B5E8"/>
<stop offset="1" stop-color="#43B5E8"/>
</linearGradient>
<linearGradient id="paint22_linear" x1="465.176" y1="198.07" x2="403.757" y2="224.341" gradientUnits="userSpaceOnUse">
<stop stop-color="#43B5E8"/>
<stop offset="1" stop-color="#43B5E8"/>
</linearGradient>
<linearGradient id="paint23_linear" x1="472.908" y1="252.157" x2="440.297" y2="244.563" gradientUnits="userSpaceOnUse">
<stop stop-color="#43B5E8"/>
<stop offset="1" stop-color="#43B5E8"/>
</linearGradient>
<linearGradient id="paint24_linear" x1="145.167" y1="189.887" x2="215.23" y2="180.152" gradientUnits="userSpaceOnUse">
<stop stop-color="#44B4E7"/>
<stop offset="1" stop-color="#B3E3F9"/>
</linearGradient>
<linearGradient id="paint25_linear" x1="466.584" y1="96.6884" x2="488.843" y2="118.969" gradientUnits="userSpaceOnUse">
<stop stop-color="#71459B"/>
<stop offset="0.8668" stop-color="#A76DAE"/>
</linearGradient>
<linearGradient id="paint26_linear" x1="150.669" y1="240.497" x2="173.572" y2="228.26" gradientUnits="userSpaceOnUse">
<stop stop-color="#71459B"/>
<stop offset="0.8668" stop-color="#A76DAE"/>
</linearGradient>
<linearGradient id="paint27_linear" x1="428.613" y1="46.4481" x2="501.408" y2="46.4481" gradientUnits="userSpaceOnUse">
<stop stop-color="#44B4E7"/>
<stop offset="1" stop-color="#B3E3F9"/>
</linearGradient>
<linearGradient id="paint28_linear" x1="231.277" y1="113.748" x2="234.978" y2="113.748" gradientUnits="userSpaceOnUse">
<stop stop-color="#71459B"/>
<stop offset="0.8668" stop-color="#A76DAE"/>
</linearGradient>
<linearGradient id="paint29_linear" x1="240.26" y1="113.748" x2="243.962" y2="113.748" gradientUnits="userSpaceOnUse">
<stop stop-color="#71459B"/>
<stop offset="0.8668" stop-color="#A76DAE"/>
</linearGradient>
<linearGradient id="paint30_linear" x1="248.694" y1="113.748" x2="252.396" y2="113.748" gradientUnits="userSpaceOnUse">
<stop stop-color="#71459B"/>
<stop offset="0.8668" stop-color="#A76DAE"/>
</linearGradient>
<linearGradient id="paint31_linear" x1="224.658" y1="220.012" x2="263.997" y2="220.012" gradientUnits="userSpaceOnUse">
<stop stop-color="#7DD3F7"/>
<stop offset="1" stop-color="#43B5E8"/>
</linearGradient>
<linearGradient id="paint32_linear" x1="224.658" y1="279.524" x2="263.997" y2="279.524" gradientUnits="userSpaceOnUse">
<stop stop-color="#7DD3F7"/>
<stop offset="1" stop-color="#43B5E8"/>
</linearGradient>
<linearGradient id="paint33_linear" x1="284.227" y1="279.524" x2="323.566" y2="279.524" gradientUnits="userSpaceOnUse">
<stop stop-color="#7DD3F7"/>
<stop offset="1" stop-color="#43B5E8"/>
</linearGradient>
<linearGradient id="paint34_linear" x1="284.125" y1="219.512" x2="323.464" y2="219.512" gradientUnits="userSpaceOnUse">
<stop stop-color="#7DD3F7"/>
<stop offset="1" stop-color="#43B5E8"/>
</linearGradient>
<linearGradient id="paint35_linear" x1="331.4" y1="156.205" x2="335.789" y2="156.205" gradientUnits="userSpaceOnUse">
<stop stop-color="#71459B"/>
<stop offset="0.8668" stop-color="#A76DAE"/>
</linearGradient>
<linearGradient id="paint36_linear" x1="401.588" y1="228.599" x2="410.343" y2="250.241" gradientUnits="userSpaceOnUse">
<stop stop-color="#71459B"/>
<stop offset="0.8668" stop-color="#A76DAE"/>
</linearGradient>
<linearGradient id="paint37_linear" x1="402.116" y1="229.735" x2="409.932" y2="249.057" gradientUnits="userSpaceOnUse">
<stop stop-color="#71459B"/>
<stop offset="0.8668" stop-color="#A76DAE"/>
</linearGradient>
<linearGradient id="paint38_linear" x1="368.47" y1="378.9" x2="360.385" y2="378.9" gradientUnits="userSpaceOnUse">
<stop stop-color="#C8C8C8"/>
<stop offset="1" stop-color="#C8C8C8"/>
</linearGradient>
<linearGradient id="paint39_linear" x1="420.198" y1="321.469" x2="412.541" y2="321.469" gradientUnits="userSpaceOnUse">
<stop stop-color="#C8C8C8"/>
<stop offset="1" stop-color="#C8C8C8"/>
</linearGradient>
<linearGradient id="paint40_linear" x1="420.832" y1="333.975" x2="396.094" y2="333.975" gradientUnits="userSpaceOnUse">
<stop stop-color="#223E98"/>
<stop offset="1" stop-color="#384EA2"/>
</linearGradient>
<linearGradient id="paint41_linear" x1="405.213" y1="346.314" x2="358.587" y2="346.314" gradientUnits="userSpaceOnUse">
<stop stop-color="#223E98"/>
<stop offset="1" stop-color="#223E98"/>
</linearGradient>
<linearGradient id="paint42_linear" x1="430.449" y1="263.999" x2="427.185" y2="263.999" gradientUnits="userSpaceOnUse">
<stop stop-color="#CECECD"/>
<stop offset="1" stop-color="#CECECD"/>
</linearGradient>
<linearGradient id="paint43_linear" x1="344.682" y1="269.688" x2="339.166" y2="269.688" gradientUnits="userSpaceOnUse">
<stop stop-color="#CECECD"/>
<stop offset="1" stop-color="#CECECD"/>
</linearGradient>
<linearGradient id="paint44_linear" x1="338.613" y1="269.508" x2="336.085" y2="269.508" gradientUnits="userSpaceOnUse">
<stop stop-color="#CECECD"/>
<stop offset="1" stop-color="#CECECD"/>
</linearGradient>
<linearGradient id="paint45_linear" x1="351.648" y1="266.621" x2="335.942" y2="266.621" gradientUnits="userSpaceOnUse">
<stop stop-color="#CECECD"/>
<stop offset="1" stop-color="#CECECD"/>
</linearGradient>
<linearGradient id="paint46_linear" x1="430.789" y1="290.897" x2="346.303" y2="290.897" gradientUnits="userSpaceOnUse">
<stop offset="0.002" stop-color="#F2F2F2"/>
<stop offset="0.9792" stop-color="#F2F2F2"/>
</linearGradient>
<linearGradient id="paint47_linear" x1="394.199" y1="281.761" x2="386.965" y2="281.761" gradientUnits="userSpaceOnUse">
<stop stop-color="#E0E1E0"/>
<stop offset="1" stop-color="#E0E1E0"/>
</linearGradient>
<linearGradient id="paint48_linear" x1="386.965" y1="282.391" x2="382.933" y2="282.391" gradientUnits="userSpaceOnUse">
<stop stop-color="#E0E1E0"/>
<stop offset="1" stop-color="#E0E1E0"/>
</linearGradient>
<linearGradient id="paint49_linear" x1="387.849" y1="296.983" x2="380.953" y2="296.983" gradientUnits="userSpaceOnUse">
<stop stop-color="#71459B"/>
<stop offset="0.8668" stop-color="#A76DAE"/>
</linearGradient>
<linearGradient id="paint50_linear" x1="394.322" y1="277.017" x2="384.137" y2="277.017" gradientUnits="userSpaceOnUse">
<stop stop-color="#C8C8C8"/>
<stop offset="1" stop-color="#C8C8C8"/>
</linearGradient>
<linearGradient id="paint51_linear" x1="388.607" y1="284.486" x2="386.127" y2="284.486" gradientUnits="userSpaceOnUse">
<stop stop-color="#71459B"/>
<stop offset="0.8668" stop-color="#A76DAE"/>
</linearGradient>
<linearGradient id="paint52_linear" x1="398.772" y1="264.808" x2="381.254" y2="264.808" gradientUnits="userSpaceOnUse">
<stop stop-color="#C8C8C8"/>
<stop offset="1" stop-color="#C8C8C8"/>
</linearGradient>
<linearGradient id="paint53_linear" x1="435.034" y1="263.513" x2="430.002" y2="263.364" gradientUnits="userSpaceOnUse">
<stop stop-color="#CECECD"/>
<stop offset="1" stop-color="#CECECD"/>
</linearGradient>
<linearGradient id="paint54_linear" x1="250.665" y1="36.0309" x2="309.981" y2="36.0309" gradientUnits="userSpaceOnUse">
<stop stop-color="#223E98"/>
<stop offset="1" stop-color="#223E98"/>
</linearGradient>
<linearGradient id="paint55_linear" x1="250.698" y1="30.5713" x2="309.849" y2="30.5713" gradientUnits="userSpaceOnUse">
<stop stop-color="#223E98"/>
<stop offset="1" stop-color="#223E98"/>
</linearGradient>
<linearGradient id="paint56_linear" x1="255.244" y1="33.2092" x2="266.504" y2="33.2092" gradientUnits="userSpaceOnUse">
<stop stop-color="#223E98"/>
<stop offset="1" stop-color="#223E98"/>
</linearGradient>
<linearGradient id="paint57_linear" x1="269.614" y1="366.384" x2="188.286" y2="366.384" gradientUnits="userSpaceOnUse">
<stop stop-color="#43B5E8"/>
<stop offset="1" stop-color="#43B5E8"/>
</linearGradient>
<linearGradient id="paint58_linear" x1="475.245" y1="366.046" x2="388.598" y2="366.046" gradientUnits="userSpaceOnUse">
<stop stop-color="#43B5E8"/>
<stop offset="1" stop-color="#43B5E8"/>
</linearGradient>
</defs>
</svg>
