<svg width="601" height="450" viewBox="0 0 601 450" fill="none" xmlns="http://www.w3.org/2000/svg">
<g filter="url(#filter0_d)">
<path d="M392.8 219.7V90.2999C392.8 89.4999 393 88.7999 393.4 88.0999C393.8 87.3999 394.3 86.8999 395 86.4999C395.7 86.0999 396.4 85.8999 397.2 85.8999C398 85.8999 398.7 86.0999 399.4 86.4999L559.6 179C561.6 180.1 563.2 181.8 564.3 183.7C565.4 185.7 566 187.9 566 190.2V319.6C566 320.4 565.8 321.1 565.4 321.8C565 322.5 564.5 323 563.8 323.4C563.1 323.8 562.4 324 561.6 324C560.8 324 560.1 323.8 559.4 323.4L399.2 230.9C397.2 229.8 395.6 228.1 394.5 226.2C393.4 224.3 392.8 222 392.8 219.7Z" fill="#979797"/>
<path opacity="0.84" d="M389.6 221.5V92.1C389.6 91.3 389.8 90.6 390.2 89.9C390.6 89.2 391.1 88.7 391.8 88.3C392.5 87.9 393.2 87.7 394 87.7C394.8 87.7 395.5 87.9 396.2 88.3L556.4 180.8C558.4 181.9 560 183.6 561.1 185.5C562.2 187.5 562.8 189.7 562.8 192V321.4C562.8 322.2 562.6 322.9 562.2 323.6C561.8 324.3 561.3 324.8 560.6 325.2C559.9 325.6 559.2 325.8 558.4 325.8C557.6 325.8 556.9 325.6 556.2 325.2L396 232.7C394 231.6 392.4 229.9 391.3 228C390.2 226 389.6 223.8 389.6 221.5Z" fill="#E9F7FE"/>
<path d="M399.2 101.3V190.1L553.1 278.9V190.1L400 101.7L399.2 101.3Z" stroke="#00AEEF" stroke-width="0.25" stroke-miterlimit="10"/>
<path d="M400 101.7V189.7L553.1 278.1V190.1L400 101.7Z" fill="#F8F8F8"/>
<path d="M400 122.7V125.2C406.8 129.2 414.8 133.8 422.7 138.5C432.8 144.5 435.4 154.6 437.9 164.5C440.4 174.1 442.7 183.2 451.5 188.3C462.5 194.6 466.3 188.3 469.1 183.6C471.5 179.6 472.7 178.3 475.5 179.9C479.5 182.2 480.8 185 482.2 188.2C483 190.1 484 192 485.4 194.1C485.8 194.7 486.3 195.3 486.8 195.9C488.6 197.9 491.1 200 494.7 202.1C503.2 207 510.9 219.3 517.2 229.1C521.8 236.3 525.3 242 528.4 243.7C531.9 245.7 542.9 252.1 553 257.9V255.4C543.2 249.8 532.9 243.8 529.5 241.9C526.9 240.4 523.3 234.7 519.1 228C512.7 217.9 504.8 205.4 495.8 200.2C492.2 198.1 489.9 196.1 488.2 194.1C487.7 193.5 487.2 192.9 486.8 192.3C485.7 190.6 484.9 188.9 484.2 187.3C482.6 183.9 481.2 180.6 476.6 178C471.6 175.1 469.2 179 467.2 182.5C464.4 187.2 461.7 191.7 452.6 186.4C444.6 181.8 442.4 173.1 440 164C437.4 153.7 434.7 143.1 423.7 136.7C415.4 131.7 407 126.8 400 122.7Z" fill="url(#paint0_linear)"/>
<path d="M400 144.9V147.4L411.8 154.2C417 157.2 419.5 165.6 421.6 173C423.4 179.1 424.8 183.9 427.5 185.5L460.3 204.4C463.7 206.4 466.8 207.2 469.6 207.2C477 207.2 482.4 201.4 486.9 195.8C487.4 195.2 487.8 194.6 488.3 194.1C494.4 186.5 498.4 182 504.4 185.5C512.8 190.4 514.7 198.2 516.4 205.1C517.8 210.8 519 216.1 523.7 218.8C525 219.6 526.4 220 527.9 220C532.2 220 535.7 216.2 538.7 213.1C541.7 209.9 543.6 208.1 545 209L553 213.6V211.1L546.1 207.1C543 205.3 540.1 208.4 537 211.6C532.6 216.3 529.1 219.5 524.7 216.9C520.9 214.7 519.7 210 518.4 204.6C516.6 197.2 514.6 188.9 505.4 183.6C497.6 179.1 492.1 185.7 486.8 192.3C486.7 192.4 486.6 192.6 486.5 192.7C486.1 193.2 485.8 193.6 485.4 194.1C479.2 201.8 472.5 209 461.3 202.5L428.5 183.6C426.6 182.5 425.1 177.6 423.6 172.4C421.3 164.6 418.7 155.7 412.7 152.3L400 144.9Z" fill="url(#paint1_linear)"/>
<path d="M512.4 277.6C512.4 285.1 517.7 294.3 524.2 298.1C530.1 301.5 535 299.4 535.9 293.4C536 292.7 536.1 292 536.1 291.3C536.1 283.7 530.8 274.6 524.3 270.8V275.5C528.6 278 532.1 284.1 532.1 289C532.1 289.3 532.1 289.7 532 290C531.6 294.3 528.3 295.8 524.2 293.5C519.9 291 516.4 285 516.4 280C516.4 278.9 516.6 277.9 517 276.9L513.1 273.5C512.6 274.8 512.4 276.2 512.4 277.6Z" fill="#00BAFF"/>
<path d="M513.1 273.4L517 276.8C518.2 274.2 521 273.6 524.2 275.4V270.7C519.1 267.9 514.7 269.1 513.1 273.4Z" fill="#009DD7"/>
<path d="M476.5 248.4C472.4 251.9 473.2 261 478.3 268.7C482.6 275.2 488.6 278.6 492.8 277.4L490.4 272.3C487.6 273.1 483.7 270.8 480.8 266.6C477.4 261.5 476.9 255.6 479.6 253.2C480 252.8 480.5 252.6 481 252.4C483.8 251.6 487.7 253.9 490.6 258.1L493.1 255.9C488.8 249.4 482.8 246 478.6 247.2C477.9 247.5 477.2 247.9 476.5 248.4Z" fill="#009DD7"/>
<path d="M493.2 255.9L490.7 258.1C494.1 263.2 494.6 269.2 491.9 271.5C491.5 271.9 491 272.1 490.5 272.3L492.9 277.4C493.7 277.2 494.4 276.8 495.1 276.2C499.1 272.7 498.3 263.6 493.2 255.9Z" fill="#00BAFF"/>
<path d="M453 233.9C452 233.3 451.2 233.8 451.2 234.9V256C451.2 256.6 451.4 257.2 451.7 257.8C452 258.3 452.4 258.8 453 259.1C454 259.7 454.8 259.2 454.8 258.1V237C454.8 236.4 454.6 235.8 454.3 235.2C453.9 234.7 453.5 234.2 453 233.9Z" fill="#00BAFF"/>
<path d="M446.8 238.9C445.8 238.3 445 238.8 445 239.9V252.5C445 253.1 445.2 253.7 445.5 254.3C445.8 254.8 446.2 255.3 446.8 255.6C447.8 256.2 448.6 255.7 448.6 254.6V242C448.6 241.4 448.4 240.8 448.1 240.2C447.8 239.7 447.4 239.2 446.8 238.9Z" fill="#A8A8A8"/>
<path d="M440.7 242.1C439.7 241.5 438.9 242 438.9 243.1V249C438.9 249.6 439.1 250.2 439.4 250.8C439.7 251.3 440.1 251.8 440.7 252.1C441.7 252.7 442.5 252.2 442.5 251.1V245.2C442.5 244.6 442.3 244 442 243.4C441.7 242.9 441.3 242.4 440.7 242.1Z" fill="#00BAFF"/>
<path d="M434.6 228.1C433.6 227.5 432.8 228 432.8 229.1V245.4C432.8 246 433 246.6 433.3 247.2C433.6 247.7 434 248.2 434.6 248.5C435.6 249.1 436.4 248.6 436.4 247.5V231.2C436.4 230.6 436.2 230 435.9 229.4C435.6 228.9 435.1 228.5 434.6 228.1Z" fill="#00BAFF"/>
<path d="M428.5 227.5C427.5 226.9 426.7 227.4 426.7 228.5V241.9C426.7 242.5 426.9 243.1 427.2 243.7C427.5 244.2 427.9 244.7 428.5 245C429.5 245.6 430.3 245.1 430.3 244V230.6C430.3 230 430.1 229.4 429.8 228.8C429.5 228.3 429 227.8 428.5 227.5Z" fill="#C2C2C2"/>
<path d="M422.4 209.9C421.4 209.3 420.6 209.8 420.6 210.9V238.4C420.6 239 420.8 239.6 421.1 240.2C421.4 240.7 421.8 241.2 422.4 241.5C423.4 242.1 424.2 241.6 424.2 240.5V213C424.2 212.4 424 211.8 423.7 211.2C423.4 210.7 422.9 210.2 422.4 209.9Z" fill="#00BAFF"/>
<path d="M200.6 91V222.9C200.6 224.2 200.3 225.5 199.6 226.7C198.9 227.8 198 228.8 196.8 229.5L36 322.3C35.4 322.7 34.7 322.8 34 322.8C33.3 322.8 32.6 322.6 32 322.3C31.4 321.9 30.9 321.4 30.5 320.8C30.1 320.2 30 319.5 30 318.8V186.8C30 185.5 30.3 184.2 31 183C31.7 181.9 32.6 180.9 33.8 180.2L194.6 87.3C195.2 86.9 195.9 86.8 196.6 86.8C197.3 86.8 198 87 198.6 87.3C199.2 87.7 199.7 88.2 200.1 88.8C200.4 89.6 200.6 90.3 200.6 91Z" fill="#979797"/>
<path d="M203.4 92.7V224.6C203.4 225.9 203.1 227.2 202.4 228.4C201.7 229.5 200.8 230.5 199.6 231.2L38.7002 324C38.1002 324.4 37.4002 324.5 36.7002 324.5C36.0002 324.5 35.3002 324.3 34.7002 324C34.1002 323.6 33.6002 323.1 33.2002 322.5C32.8002 321.9 32.7002 321.2 32.7002 320.5V188.5C32.7002 187.2 33.0002 185.9 33.7002 184.7C34.4002 183.6 35.3002 182.6 36.5002 181.9L197.3 89C197.9 88.6 198.6 88.5 199.3 88.5C200 88.5 200.7 88.7 201.3 89C201.9 89.4 202.4 89.9 202.8 90.5C203.2 91.3 203.4 92 203.4 92.7Z" fill="#E9F7FE"/>
<path d="M156.8 237.9L149 242.4L56.0002 296.2L48.2002 300.7V216.7C48.2002 215 48.7002 213.3 49.5002 211.8C50.4002 210.3 51.6002 209.1 53.1002 208.2L152.3 150.9C152.8 150.6 153.3 150.5 153.8 150.5C154.3 150.5 154.8 150.6 155.3 150.9C155.8 151.2 156.1 151.5 156.4 152C156.7 152.5 156.8 153 156.8 153.5V237.9Z" fill="url(#paint2_linear)"/>
<path d="M149 242.4L56 296.2V224.9L149 171.2V242.4Z" fill="#F8F8F8"/>
<path d="M163 148.3V213.2C163 213.5 163.1 213.9 163.3 214.1C163.5 214.4 163.7 214.6 164 214.8C164.3 215 164.6 215.1 164.9 215.1C165.2 215.1 165.6 215 165.8 214.8L193.8 198.6C194.7 198.1 195.5 197.3 196 196.4C196.5 195.5 196.8 194.4 196.8 193.3V128.4C196.8 128.1 196.7 127.7 196.5 127.5C196.3 127.3 196.1 127 195.8 126.8C195.5 126.6 195.2 126.5 194.9 126.5C194.6 126.5 194.2 126.6 194 126.8L166 143C165.1 143.5 164.3 144.3 163.8 145.2C163.3 146.2 163 147.2 163 148.3Z" fill="url(#paint3_linear)"/>
<path d="M175.5 159.1C177.2 156.1 177.2 152.9 175.5 151.9C173.8 150.9 171 152.5 169.3 155.5C167.6 158.5 167.6 161.7 169.3 162.7C171 163.7 173.7 162.1 175.5 159.1Z" fill="url(#paint4_linear)"/>
<path d="M167.3 124.5C167.3 125.2 167.1 125.9 166.7 126.5C166.3 127.1 165.9 127.6 165.3 128C164.2 128.6 163.3 128.1 163.3 126.8C163.3 126.1 163.5 125.4 163.9 124.8C164.2 124.2 164.7 123.7 165.3 123.3C166.4 122.7 167.3 123.2 167.3 124.5Z" fill="#C2C2C2"/>
<path d="M175.5 177C177.2 174 177.2 170.8 175.5 169.8C173.8 168.8 171 170.4 169.3 173.4C167.6 176.4 167.6 179.6 169.3 180.6C171 181.6 173.7 180 175.5 177Z" fill="url(#paint5_linear)"/>
<path d="M175.5 194.9C177.2 191.9 177.2 188.7 175.5 187.7C173.8 186.7 171 188.3 169.3 191.3C167.6 194.3 167.6 197.5 169.3 198.5C171 199.5 173.7 197.9 175.5 194.9Z" fill="url(#paint6_linear)"/>
<path d="M66.1 213C67.4 210.7 67.4 208.3 66.1 207.5C64.8 206.7 62.7 208 61.3 210.3C59.9 212.6 60 215 61.3 215.8C62.7 216.5 64.8 215.3 66.1 213Z" fill="url(#paint7_linear)"/>
<path d="M54.0998 185.4L73.4998 174.2C75.5998 173 77.2998 174 77.2998 176.4C77.2998 178.8 75.5998 181.7 73.4998 182.9L54.0998 194.1C51.9998 195.3 50.2998 194.3 50.2998 191.9C50.2998 189.5 51.9998 186.6 54.0998 185.4Z" fill="white"/>
<path d="M133.2 256.7L147.4 248.5C148.9 247.6 150.2 248.3 150.2 250.1C150.2 251.9 149 254 147.4 254.9L133.2 263.1C131.7 264 130.4 263.3 130.4 261.5C130.4 259.7 131.7 257.6 133.2 256.7Z" fill="#C2C2C2"/>
<path d="M183 211.6L192.6 206C193.6 205.4 194.5 205.9 194.5 207.1C194.5 207.7 194.3 208.4 194 208.9C193.7 209.5 193.2 209.9 192.7 210.3L183 216C182 216.6 181.1 216.1 181.1 214.9C181.1 214.3 181.3 213.6 181.7 213.1C182 212.5 182.5 212 183 211.6Z" fill="#C2C2C2"/>
<path d="M123.3 143.7L150.4 128.1C153.3 126.4 155.7 127.8 155.7 131.1C155.7 134.5 153.3 138.5 150.4 140.2L123.3 155.8C120.4 157.5 118 156.1 118 152.7C118 149.4 120.4 145.4 123.3 143.7Z" fill="#00BAFF"/>
<path d="M79.2001 229.5C79.1001 229.5 78.9001 229.5 78.8001 229.4C78.7001 229.3 78.6001 229.2 78.6001 229.1C78.6001 229 78.6001 228.8 78.6001 228.7C78.6001 228.6 78.7001 228.5 78.8001 228.4L140.8 192.6C140.9 192.6 140.9 192.5 141 192.5C141.1 192.5 141.2 192.5 141.2 192.5L141.4 192.6C141.5 192.6 141.5 192.7 141.6 192.8C141.6 192.9 141.7 192.9 141.7 193C141.7 193.1 141.7 193.2 141.7 193.2C141.7 193.3 141.6 193.3 141.6 193.4C141.5 193.5 141.5 193.5 141.4 193.5L79.4001 229.3C79.5001 229.5 79.4001 229.6 79.2001 229.5Z" fill="#D7D7D9"/>
<path d="M63.7001 249.2C63.6001 249.2 63.4001 249.2 63.3001 249.1C63.2001 249 63.1001 248.9 63.1001 248.8C63.1001 248.7 63.1001 248.5 63.1001 248.4C63.1001 248.3 63.2001 248.2 63.3001 248.1L140.8 203.3C140.9 203.3 140.9 203.2 141 203.2C141.1 203.2 141.2 203.2 141.2 203.2C141.3 203.2 141.4 203.3 141.4 203.3C141.5 203.3 141.5 203.4 141.6 203.5C141.6 203.6 141.7 203.6 141.7 203.7C141.7 203.8 141.7 203.9 141.7 203.9C141.7 204 141.6 204 141.6 204.1C141.5 204.2 141.5 204.2 141.4 204.2L64.0001 249.1C63.9001 249.1 63.8001 249.2 63.7001 249.2Z" fill="#D7D7D9"/>
<path d="M63.7001 259.8C63.6001 259.8 63.4001 259.8 63.3001 259.7C63.2001 259.6 63.1001 259.5 63.1001 259.4C63.1001 259.3 63.1001 259.1 63.1001 259C63.1001 258.9 63.2001 258.8 63.3001 258.7L140.9 213.9C141 213.9 141 213.8 141.1 213.8C141.2 213.8 141.3 213.8 141.3 213.8C141.4 213.8 141.5 213.9 141.5 213.9C141.6 213.9 141.6 214 141.7 214.1C141.7 214.2 141.8 214.2 141.8 214.3C141.8 214.4 141.8 214.5 141.8 214.5C141.8 214.6 141.7 214.6 141.7 214.7C141.6 214.8 141.6 214.8 141.5 214.8L64.0001 259.7C63.9001 259.8 63.8001 259.8 63.7001 259.8Z" fill="#D7D7D9"/>
<path d="M63.7001 270.4C63.6001 270.4 63.4001 270.4 63.3001 270.3C63.2001 270.2 63.1001 270.1 63.1001 270C63.1001 269.9 63.1001 269.7 63.1001 269.6C63.1001 269.5 63.2001 269.4 63.3001 269.3L140.8 224.5C140.9 224.5 140.9 224.4 141 224.4C141.1 224.4 141.2 224.4 141.2 224.4C141.3 224.4 141.4 224.5 141.4 224.5C141.5 224.5 141.5 224.6 141.6 224.7C141.6 224.8 141.7 224.8 141.7 224.9C141.7 225 141.7 225.1 141.7 225.1C141.7 225.2 141.6 225.2 141.6 225.3C141.5 225.4 141.5 225.4 141.4 225.4L64.0001 270.4C63.9001 270.4 63.8001 270.4 63.7001 270.4Z" fill="#D7D7D9"/>
<path d="M63.7001 281.1C63.6001 281.1 63.4001 281.1 63.3001 281C63.2001 280.9 63.1001 280.8 63.1001 280.7C63.1001 280.6 63.1001 280.4 63.1001 280.3C63.1001 280.2 63.2001 280.1 63.3001 280L140.8 235.2C140.9 235.2 140.9 235.1 141 235.1C141.1 235.1 141.2 235.1 141.2 235.1C141.3 235.1 141.4 235.2 141.4 235.2C141.5 235.2 141.5 235.3 141.6 235.4C141.6 235.5 141.7 235.5 141.7 235.6C141.7 235.7 141.7 235.8 141.7 235.8C141.7 235.9 141.6 235.9 141.6 236C141.5 236.1 141.5 236.1 141.4 236.1L64.0001 281C63.9001 281.1 63.8001 281.1 63.7001 281.1Z" fill="#D7D7D9"/>
<path d="M168 82.5001L218.3 69.2001C220.8 68.5001 222.3 70.0001 221.6 72.6001L217.9 86.3001C217.2 88.8001 214.6 91.4001 212.1 92.1001L161.8 105.4C159.3 106.1 157.8 104.6 158.5 102L162.2 88.3001C162.8 85.7001 165.4 83.1001 168 82.5001Z" fill="#009DD7"/>
<path d="M169.1 83.4L219.4 70.1C221.9 69.4 223.4 70.9 222.7 73.5L219 87.2C218.3 89.7 215.7 92.3 213.2 93L162.9 106.3C160.4 107 158.9 105.5 159.6 102.9L163.3 89.2C164 86.7 166.6 84.1 169.1 83.4Z" fill="url(#paint8_linear)"/>
<path d="M177.2 96.8001C180.9 93.1001 182.2 88.3001 180.1 86.2001C178 84.0001 173.2 85.3001 169.5 89.0001C165.8 92.7001 164.5 97.5001 166.6 99.6001C168.8 101.7 173.5 100.5 177.2 96.8001Z" fill="white"/>
<path d="M175 92.5C174.8 93 174.6 93.4 174.2 93.8C173.8 94.2 173.4 94.4 172.9 94.6C172 94.8 171.5 94.3 171.7 93.4C171.9 92.9 172.1 92.5 172.5 92.1C172.9 91.7 173.3 91.5 173.8 91.3C174.7 91 175.2 91.6 175 92.5Z" fill="url(#paint9_linear)"/>
<path d="M174.3 89.5001C171.4 90.3001 167.5 94.4001 167.5 94.4001C167.5 94.4001 169.5 97.0001 172.4 96.2001C175.3 95.4001 179.2 91.3001 179.2 91.3001C179.2 91.3001 177.2 88.7001 174.3 89.5001ZM172.7 95.5001C171.3 95.9001 170.4 95.0001 170.8 93.6001C171.2 92.2001 172.7 90.7001 174.1 90.3001C175.5 89.9001 176.4 90.8001 176 92.2001C175.6 93.6001 174.1 95.1001 172.7 95.5001Z" fill="url(#paint10_linear)"/>
<path d="M185.8 91.1001L185.6 91.8001L182.2 92.7001L182.4 92.0001L184.2 90.2001C184.8 89.6001 185.2 89.2001 185.5 88.9001C185.7 88.7001 185.9 88.4001 186 88.1001C186 88.0001 186 87.9001 186 87.8001C186 87.7001 185.9 87.6001 185.9 87.6001C185.8 87.5001 185.7 87.5001 185.6 87.5001C185.5 87.5001 185.4 87.5001 185.3 87.5001C185 87.6001 184.8 87.7001 184.6 87.9001C184.4 88.1001 184.2 88.3001 184.1 88.5001L183.5 88.4001C183.7 88.0001 184 87.7001 184.3 87.4001C184.6 87.1001 185 86.9001 185.4 86.8001C185.9 86.7001 186.3 86.7001 186.5 86.9001C186.7 87.1001 186.8 87.4001 186.7 87.9001C186.6 88.4001 186.1 89.1001 185.4 89.8001L183.4 91.8001L185.8 91.1001Z" fill="white"/>
<path d="M190.3 89.1C190.1 89.6 189.9 90.1 189.5 90.4C189.1 90.8 188.6 91.1 188.1 91.2C187.9 91.3 187.8 91.3 187.6 91.3C187.4 91.3 187.3 91.2 187.1 91.2C187 91.1 186.9 91 186.8 90.9C186.7 90.8 186.7 90.6 186.7 90.4L187.4 90C187.4 90.1 187.4 90.2 187.4 90.3C187.4 90.4 187.5 90.5 187.6 90.6C187.7 90.7 187.8 90.7 187.9 90.7C188 90.7 188.1 90.7 188.2 90.7C188.5 90.6 188.8 90.4 189 90.2C189.2 90 189.4 89.7 189.5 89.4C189.5 89.3 189.6 89.2 189.5 89.1C189.5 89 189.4 88.9 189.3 88.8C189.2 88.7 189.1 88.7 189 88.7C188.9 88.7 188.8 88.7 188.6 88.7L188.1 88.8L188.3 88.1L188.7 88C189 87.9 189.3 87.8 189.5 87.6C189.7 87.4 189.9 87.2 189.9 86.9C189.9 86.8 189.9 86.7 189.9 86.6C189.9 86.5 189.8 86.4 189.8 86.4C189.7 86.3 189.6 86.3 189.5 86.3C189.4 86.3 189.3 86.3 189.2 86.4C189 86.5 188.7 86.6 188.5 86.8C188.3 87 188.1 87.2 188 87.4L187.4 87.3C187.6 86.9 187.9 86.6 188.2 86.3C188.5 86 188.9 85.8 189.3 85.7C189.8 85.6 190.1 85.6 190.4 85.8C190.6 86 190.7 86.3 190.6 86.7C190.4 87.3 190.1 87.7 189.6 88C189.7 88 189.8 88.1 189.9 88.1C190 88.2 190.1 88.2 190.1 88.3C190.3 88.6 190.4 88.9 190.3 89.1Z" fill="white"/>
<path d="M195.5 83.9L196.4 83.7L193.7 86.7L195.1 89.3L194.2 89.5L193.1 87.4L192 88.6L191.6 90.2L190.9 90.4L192.4 84.8L193.1 84.6L192.3 87.5L195.5 83.9Z" fill="white"/>
<path d="M199.3 88.2L198.5 88.4L198 83.3L198.8 83.1L199.1 87.2L201.9 82.2L202.7 82L199.3 88.2Z" fill="white"/>
<path d="M204.1 82.1001C204.1 82.3001 204 82.4001 203.9 82.5001C203.8 82.6001 203.7 82.7001 203.5 82.7001C203.4 82.7001 203.4 82.7001 203.3 82.7001C203.2 82.7001 203.2 82.7001 203.1 82.6001C203.1 82.6001 203 82.5001 203 82.4001C203 82.3001 203 82.3001 203 82.2001C203 82.0001 203.1 81.9001 203.2 81.8001C203.3 81.7001 203.4 81.6001 203.6 81.6001C203.7 81.6001 203.7 81.6001 203.8 81.6001C203.9 81.6001 203.9 81.6001 204 81.7001C204 81.7001 204.1 81.8001 204.1 81.9001C204.1 82.0001 204.1 82.0001 204.1 82.1001ZM203.6 83.5001L202.6 87.3001L201.9 87.5001L202.9 83.7001L203.6 83.5001Z" fill="white"/>
<path d="M205.1 86.7C204.5 86.8 204.1 86.8 203.9 86.5C203.6 86.2 203.6 85.8 203.7 85.2C203.9 84.6 204.2 84 204.6 83.6C205 83.1 205.5 82.8 206.1 82.7C206.7 82.5 207.1 82.6 207.3 82.9C207.5 83.2 207.6 83.7 207.4 84.3V84.4L204.4 85.2C204.3 85.6 204.4 85.8 204.5 86C204.6 86.1 204.7 86.1 204.9 86.2C205 86.2 205.2 86.2 205.3 86.2C205.8 86 206.3 85.7 206.6 85.2L207.2 85.3C206.9 85.7 206.6 86 206.3 86.3C205.9 86.4 205.5 86.6 205.1 86.7ZM204.6 84.5L206.8 83.9C206.8 83.8 206.8 83.7 206.8 83.6C206.8 83.5 206.7 83.4 206.6 83.3C206.5 83.2 206.4 83.2 206.2 83.2C206.1 83.2 205.9 83.2 205.8 83.3C205.5 83.4 205.2 83.5 205 83.7C205 84 204.8 84.2 204.6 84.5Z" fill="white"/>
<path d="M214 80.7L211.7 84.9L211 85.1L210.8 82.4L209 85.6L208.3 85.8L208.1 82.3L208.9 82.1L209 84.8L210.7 81.6L211.4 81.4L211.6 84.1L213.2 81L214 80.7Z" fill="white"/>
<path d="M216.7 82.6C216.6 83 216.3 83.3 216 83.6C215.7 83.9 215.2 84.1 214.8 84.2C214.5 84.3 214.2 84.3 213.9 84.2C213.8 84.1 213.7 84.0001 213.6 83.9001C213.5 83.8001 213.5 83.7 213.5 83.5L214.2 83.1C214.2 83.2 214.2 83.3001 214.3 83.3001C214.3 83.4001 214.4 83.4 214.5 83.5C214.7 83.6 214.9 83.6 215 83.5C215.2 83.4 215.4 83.3 215.6 83.2C215.8 83.1 215.9 83.0001 215.9 82.8001C216 82.6001 215.8 82.4001 215.5 82.4001H214.9C214.2 82.4001 213.9 82.1 214.1 81.6C214.2 81.2 214.4 80.9 214.8 80.6C215.1 80.3 215.5 80.1 216 80C216.3 79.9 216.6 79.9 216.9 80C217 80 217.1 80.1 217.2 80.2C217.3 80.3 217.3 80.4 217.3 80.5L216.6 80.9001C216.6 80.8001 216.6 80.8 216.5 80.7C216.5 80.6 216.4 80.6 216.3 80.6C216.1 80.6 216 80.6 215.8 80.6C215.6 80.7 215.4 80.7001 215.3 80.9001C215.2 81.0001 215 81.1001 215 81.3001C214.9 81.5001 215.1 81.6 215.5 81.6H216C216.6 81.7 216.9 82 216.7 82.6Z" fill="white"/>
<path d="M273.9 70.2L269.6 79.1C268.8 80.7 269.6 81.9 271.3 81.8L315.4 79.2C317.1 79.1 319.2 77.7 319.9 76.1L324.2 67.2C325 65.6 324.2 64.4 322.5 64.5L278.4 67.1C276.7 67.2 274.7 68.6 273.9 70.2Z" fill="#009DD7"/>
<path d="M274.8 71.2999L270.5 79.8999C269.7 81.3999 270.5 82.5999 272.2 82.4999L316.3 79.8999C318 79.7999 320.1 78.4999 320.8 76.8999L325.1 68.2999C325.9 66.7999 325.1 65.5999 323.4 65.6999L279.3 68.2999C277.6 68.3999 275.6 69.6999 274.8 71.2999Z" fill="url(#paint11_linear)"/>
<path d="M286.2 74.6001C285 77.0001 281.8 79.1001 279.2 79.2001C276.5 79.4001 275.3 77.5001 276.5 75.1001C277.7 72.7001 280.9 70.6001 283.5 70.5001C286.2 70.4001 287.4 72.2001 286.2 74.6001Z" fill="white"/>
<path d="M293.1 75.8999L292.5 77.0999L291.6 77.1999L292.2 75.9999L289.2 76.1999L289.5 75.5999L294.4 71.4999L295.3 71.3999L293.4 75.1999H294.2L293.8 75.8999H293.1ZM290.6 75.2999L292.7 75.1999L294 72.4999L290.6 75.2999Z" fill="white"/>
<path d="M299.4 75.0001C299.1 75.6001 298.6 76.1001 298.1 76.4001C297.6 76.8001 296.9 77.0001 296.3 77.0001C296.1 77.0001 295.9 77.0001 295.7 77.0001C295.5 76.9001 295.3 76.8001 295.2 76.7001C295.1 76.6001 295 76.4001 294.9 76.2001C294.9 76.0001 294.9 75.8001 294.9 75.6001L295.8 75.3001C295.8 75.4001 295.7 75.6001 295.8 75.7001C295.8 75.8001 295.9 76.0001 295.9 76.1001C296 76.2001 296.1 76.3001 296.2 76.3001C296.3 76.3001 296.5 76.4001 296.6 76.3001C297 76.3001 297.4 76.1001 297.7 75.9001C298 75.7001 298.3 75.4001 298.5 75.0001C298.7 74.6001 298.7 74.4001 298.6 74.2001C298.5 74.0001 298.2 73.9001 297.8 73.9001C297.3 73.9001 296.8 74.1001 296.5 74.5001L295.8 74.2001L297.7 71.3001L301.1 71.1001L300.7 71.8001L298.1 72.0001L297 73.7001C297.4 73.5001 297.9 73.3001 298.3 73.3001C298.9 73.3001 299.3 73.4001 299.5 73.8001C299.7 74.0001 299.7 74.4001 299.4 75.0001Z" fill="white"/>
<path d="M300.8 73.8001C301.2 72.9001 301.8 72.2001 302.6 71.6001C303.2 71.1001 304 70.7001 304.9 70.6001C305.7 70.6001 306.1 70.8001 306.3 71.3001C306.5 71.8001 306.4 72.5001 305.9 73.4001C305.5 74.3001 304.9 75.0001 304.1 75.6001C303.5 76.1001 302.7 76.5001 301.8 76.6001C301 76.6001 300.6 76.4001 300.4 75.9001C300.2 75.4001 300.4 74.7001 300.8 73.8001ZM305 73.6001C305.3 72.9001 305.4 72.4001 305.3 72.0001C305.2 71.6001 304.9 71.4001 304.4 71.4001C303.8 71.5001 303.3 71.7001 302.9 72.1001C302.4 72.6001 301.9 73.1001 301.6 73.7001C301.3 74.4001 301.2 74.9001 301.2 75.3001C301.3 75.7001 301.6 75.9001 302.1 75.9001C302.7 75.8001 303.2 75.6001 303.6 75.2001C304.3 74.8001 304.7 74.2001 305 73.6001Z" fill="white"/>
<path d="M306.7 73.5C307.1 72.6 307.7 71.9 308.5 71.3C309.1 70.8 309.9 70.4 310.8 70.3C311.6 70.3 312 70.5 312.2 71C312.4 71.5 312.3 72.2 311.8 73.1C311.4 74 310.8 74.7 310 75.3C309.4 75.8 308.6 76.2 307.7 76.3C306.9 76.3 306.5 76.1 306.3 75.6C306.2 75 306.3 74.3 306.7 73.5ZM311 73.2C311.3 72.5 311.4 72 311.3 71.6C311.2 71.2 310.9 71 310.4 71C309.8 71.1 309.3 71.3 308.9 71.7C308.4 72.2 307.9 72.7 307.6 73.3C307.3 74 307.2 74.5 307.2 74.9C307.3 75.3 307.6 75.5 308.1 75.5C308.7 75.4 309.2 75.2 309.6 74.8C310.3 74.4 310.7 73.9 311 73.2Z" fill="white"/>
<path d="M318.4 69.8L319.5 69.7L315.7 72.4L316.7 75.6L315.6 75.7L314.8 73L313.2 74.1L312.3 75.8L311.4 75.9L314.4 69.9L315.3 69.8L313.8 72.9L318.4 69.8Z" fill="white"/>
<path d="M283.7 72.9C283.5 73.3 283.2 73.6 282.9 73.8C282.6 74 282.2 74.2 281.7 74.2C280.9 74.2 280.6 73.7 280.9 73C281.1 72.6 281.4 72.3 281.7 72.1C282 71.9 282.4 71.7 282.9 71.7C283.7 71.7 284 72.2 283.7 72.9Z" fill="url(#paint12_linear)"/>
<path d="M277.8 78.0001C277.8 78.0001 279.4 74.8 281.5 74.7C283.6 74.6 282 77.8001 282 77.8001L277.8 78.0001Z" fill="url(#paint13_linear)"/>
<path d="M382 58.1L419.2 94C421.6 96.4 423.1 100.4 422.4 103.1L419.9 112.9C419.2 115.6 416.7 115.9 414.3 113.5L377.1 77.6C374.7 75.2 373.2 71.2 373.9 68.5L376.4 58.7C377 56 379.6 55.7 382 58.1Z" fill="#009DD7"/>
<path d="M380.5 58.3999L417.7 94.2999C420.1 96.6999 421.6 100.7 420.9 103.4L418.4 113.2C417.7 115.9 415.2 116.2 412.8 113.8L375.6 77.9999C373.2 75.5999 371.7 71.5999 372.4 68.8999L374.9 59.0999C375.5 56.2999 378 56.0999 380.5 58.3999Z" fill="url(#paint14_linear)"/>
<path d="M381.9 76.8C384.1 76.2 385 72.6 383.9 68.8C382.8 65 380.2 62.5 378 63.1C375.8 63.7 374.9 67.3 376 71.1C377 74.9 379.7 77.5 381.9 76.8Z" fill="white"/>
<path d="M380.3 68.5C380.4 68.4 380.5 68.4 380.7 68.4C381.2 68.3 381.7 68.6 382.2 69.4C382.6 70.1 382.8 70.9 382.7 71.7C382.7 71.9 382.6 72.2 382.5 72.4C382.4 72.6 382.3 72.8 382.1 73C381.8 73.3 381.4 73.4 381 73.5C380.4 73.6 379.8 73.7 379.1 73.6C379.1 73.6 379 73.6 379 73.5C378.5 72.3 378 71.1 377.7 69.8C377.5 69.2 377.4 68.6 377.4 68C377.3 66.5 378.1 65.7 379.1 66.3C379.7 66.7 380.1 67.4 380.3 68.5C380.3 68.4 380.3 68.5 380.3 68.5Z" fill="url(#paint15_linear)"/>
<path d="M388.2 79.2999C388.1 79.7999 387.8 80.1999 387.4 80.1999C387 80.2999 386.6 80.0999 386.2 79.6999C385.8 79.2999 385.5 78.8999 385.4 78.3999C385.2 77.8999 385.1 77.2999 385.1 76.6999L385.7 76.8999C385.7 77.2999 385.7 77.6999 385.9 77.9999C386 78.2999 386.2 78.5999 386.4 78.7999C386.5 78.8999 386.6 78.9999 386.7 78.9999C386.8 79.0999 387 79.0999 387.1 79.0999C387.2 79.0999 387.3 78.9999 387.4 78.8999C387.5 78.7999 387.5 78.6999 387.5 78.5999C387.6 78.1999 387.5 77.8999 387.4 77.4999C387.3 77.0999 387.1 76.7999 386.8 76.4999L386.4 76.0999L386.6 75.2999L386.9 75.5999C387 75.6999 387.1 75.7999 387.2 75.7999C387.3 75.8999 387.4 75.8999 387.6 75.8999C387.8 75.8999 387.9 75.6999 388 75.3999C388.1 75.0999 388 74.7999 387.9 74.4999C387.8 74.1999 387.6 73.8999 387.4 73.6999C387 73.2999 386.7 73.2999 386.4 73.6999L385.9 72.7999C386 72.6999 386.1 72.5999 386.2 72.4999C386.3 72.3999 386.5 72.3999 386.6 72.3999C387 72.3999 387.3 72.5999 387.5 72.8999C387.9 73.2999 388.2 73.7999 388.4 74.3999C388.6 74.8999 388.6 75.4999 388.5 75.9999C388.4 76.5999 388 76.7999 387.6 76.6999C387.8 77.0999 387.9 77.3999 388 77.8999C388.3 78.5999 388.3 78.9999 388.2 79.2999Z" fill="white"/>
<path d="M389.1 78.5C389.3 77.6 389.7 76.9999 390.2 76.6999C390.7 76.3999 391.2 76.4999 391.8 77.0999C392.4 77.6999 392.8 78.5 392.9 79.3C393.1 80.2 393.1 81.1999 392.8 82.0999C392.6 82.9999 392.2 83.6 391.7 83.9C391.2 84.2 390.7 84.1 390.1 83.5C389.5 82.9 389.1 82.1 389 81.3C388.9 80.4 388.9 79.5 389.1 78.5ZM392.2 81.5C392.4 80.8 392.4 80.1 392.3 79.4C392.2 78.8 392 78.3 391.6 77.9C391.2 77.5 390.9 77.4999 390.5 77.6999C390.2 77.8999 389.9 78.3999 389.7 79.0999C389.5 79.7999 389.5 80.4999 389.6 81.1999C389.7 81.7999 389.9 82.2999 390.3 82.6999C390.7 83.0999 391 83.1 391.4 82.9C391.7 82.7 392 82.2 392.2 81.5Z" fill="white"/>
<path d="M393.4 82.6999C393.6 81.7999 394 81.1999 394.5 80.8999C395 80.5999 395.5 80.6999 396.1 81.2999C396.7 81.8999 397.1 82.6999 397.2 83.4999C397.4 84.3999 397.4 85.3999 397.1 86.2999C396.9 87.1999 396.5 87.7999 396 88.0999C395.5 88.3999 395 88.2999 394.4 87.6999C393.8 87.0999 393.4 86.2999 393.3 85.4999C393.1 84.5999 393.2 83.5999 393.4 82.6999ZM396.4 85.5999C396.6 84.8999 396.6 84.1999 396.5 83.4999C396.4 82.8999 396.2 82.3999 395.8 81.9999C395.4 81.5999 395.1 81.5999 394.7 81.7999C394.4 81.9999 394.1 82.4999 393.9 83.1999C393.7 83.8999 393.7 84.5999 393.8 85.2999C393.9 85.8999 394.1 86.3999 394.5 86.7999C394.9 87.1999 395.2 87.1999 395.6 86.9999C396 86.7999 396.3 86.2999 396.4 85.5999Z" fill="white"/>
<path d="M397.7 86.8C397.9 85.9 398.3 85.3 398.8 85C399.3 84.7 399.8 84.8 400.4 85.4C401 86 401.4 86.8 401.5 87.6C401.7 88.5 401.7 89.5 401.4 90.4C401.2 91.3 400.8 91.9 400.3 92.2C399.8 92.5 399.3 92.4 398.7 91.8C398.1 91.2 397.7 90.4 397.6 89.6C397.4 88.7 397.4 87.7 397.7 86.8ZM400.7 89.8C400.9 89.1 400.9 88.4 400.8 87.7C400.7 87.1 400.5 86.6 400.1 86.2C399.7 85.8 399.4 85.8 399 86C398.7 86.2 398.4 86.7 398.2 87.4C398 88.1 398 88.8 398.1 89.5C398.2 90.1 398.4 90.6 398.8 91C399.2 91.4 399.5 91.4 399.9 91.2C400.3 91 400.5 90.5 400.7 89.8Z" fill="white"/>
<path d="M405.5 98.3L402.8 95.7L404.4 89.2L405 89.8L403.6 95.5L405.7 97.5L405.5 98.3Z" fill="white"/>
<path d="M408.4 93.6C408.4 93.7 408.4 93.7 408.3 93.8C408.3 93.9 408.2 93.9 408.1 93.9C408 93.9 408 93.9 407.9 93.9C407.8 93.9 407.8 93.8 407.7 93.8C407.6 93.7 407.5 93.5 407.4 93.3C407.4 93.1 407.3 92.9 407.4 92.8C407.4 92.7 407.4 92.7 407.5 92.6C407.5 92.5 407.6 92.5 407.7 92.5C407.8 92.5 407.8 92.5 407.9 92.5C408 92.5 408 92.6 408.1 92.6C408.2 92.7 408.3 92.9 408.4 93.1C408.5 93.3 408.4 93.4 408.4 93.6ZM407.8 95L406.7 99.4L406.1 98.8L407.2 94.4L407.8 95Z" fill="white"/>
<path d="M410.4 103L409.7 102.3L409.2 99.2L408.5 99.4L408.1 100.8L407.5 100.2L409.1 93.7L409.7 94.3L408.7 98.3L410.6 97.7L411.4 98.5L409.7 99L410.4 103Z" fill="white"/>
<path d="M412.1 104.8C411.6 104.3 411.2 103.7 411.1 103C410.9 102.3 410.9 101.6 411.1 100.9C411.3 100.2 411.6 99.7999 412 99.6999C412.4 99.4999 412.9 99.6999 413.3 100.2C413.8 100.7 414.1 101.3 414.3 102C414.5 102.7 414.5 103.5 414.3 104.2V104.3L411.7 101.8C411.6 102.3 411.6 102.7 411.8 103.2C411.9 103.6 412.1 104 412.4 104.3C412.8 104.7 413.2 104.7 413.5 104.4L414 105.3C413.9 105.4 413.8 105.5 413.6 105.5C413.5 105.5 413.3 105.6 413.1 105.5C412.7 105.3 412.4 105.1 412.1 104.8ZM411.9 101L413.8 102.8C413.9 102.5 413.8 102.1 413.7 101.8C413.6 101.4 413.4 101.1 413.1 100.8C413 100.7 412.9 100.6 412.8 100.6C412.7 100.5 412.6 100.5 412.4 100.5C412.3 100.5 412.2 100.6 412.1 100.7C412 100.7 411.9 100.8 411.9 101Z" fill="white"/>
<path d="M417.1 107.9C417 108.3 416.8 108.5 416.5 108.5C416.2 108.5 415.8 108.4 415.5 108C415.2 107.7 414.9 107.3 414.7 106.8C414.5 106.3 414.4 105.9 414.4 105.4L415 105.6C415 105.9 415.1 106.3 415.2 106.6C415.3 106.9 415.5 107.1 415.7 107.3C415.8 107.5 416 107.6 416.2 107.6H416.3H416.4C416.4 107.6 416.5 107.6 416.5 107.5V107.4C416.6 107.1 416.5 106.8 416.2 106.3L415.7 105.6C415.1 104.8 414.9 104 415.1 103.4C415.2 103 415.4 102.8 415.7 102.8C416 102.8 416.3 103 416.7 103.3C417 103.6 417.2 104 417.4 104.3C417.6 104.7 417.7 105.1 417.7 105.5L417.1 105.3C417.1 105 417 104.8 416.9 104.6C416.8 104.4 416.6 104.2 416.5 104C416.4 103.9 416.2 103.8 416 103.7H415.9H415.8C415.8 103.7 415.8 103.7 415.7 103.8V103.9C415.6 104.2 415.8 104.5 416.1 105L416.6 105.7C417.1 106.5 417.3 107.3 417.1 107.9Z" fill="white"/>
<path d="M298.1 373.2C337.4 373.2 369.2 354.8 369.2 332.2C369.2 309.6 337.4 291.2 298.1 291.2C258.8 291.2 227 309.6 227 332.2C227 354.8 258.9 373.2 298.1 373.2Z" fill="#979797"/>
<path d="M298.1 363.4C337.4 363.4 369.2 345 369.2 322.4C369.2 299.7 337.4 281.4 298.1 281.4C258.8 281.4 227 299.8 227 322.4C227 345.1 258.9 363.4 298.1 363.4Z" fill="#E6E7E8"/>
<path d="M310.1 358.2C309.8 358.8 309.4 359.3 308.8 359.6C306.9 360.7 303.9 360.7 302.1 359.6C301.5 359.3 301 358.8 300.8 358.2C300.5 357.3 301 356.4 302.1 355.7C304 354.6 307 354.6 308.8 355.7C310 356.4 310.4 357.3 310.1 358.2Z" fill="#979797"/>
<path d="M310.1 358.2C309.8 358.8 309.4 359.3 308.8 359.6C306.9 360.7 303.9 360.7 302.1 359.6C301.5 359.3 301 358.8 300.8 358.2C301 357.6 301.5 357.1 302.1 356.8C304 355.7 307 355.7 308.8 356.8C309.4 357 309.9 357.5 310.1 358.2Z" fill="white"/>
<path d="M336.9 353.1C336.6 353.7 336.2 354.2 335.6 354.5C333.7 355.6 330.7 355.6 328.9 354.5C328.3 354.2 327.8 353.7 327.6 353.1C327.3 352.2 327.8 351.3 328.9 350.6C330.8 349.5 333.8 349.5 335.6 350.6C336.7 351.3 337.2 352.2 336.9 353.1Z" fill="#979797"/>
<path d="M336.9 353.1C336.6 353.7 336.2 354.2 335.6 354.5C333.7 355.6 330.7 355.6 328.9 354.5C328.3 354.2 327.8 353.7 327.6 353.1C327.8 352.5 328.3 352 328.9 351.7C330.8 350.6 333.8 350.6 335.6 351.7C336.2 351.9 336.7 352.5 336.9 353.1Z" fill="white"/>
<path d="M357 340.3C356.7 340.9 356.3 341.4 355.7 341.7C353.8 342.8 350.8 342.8 349 341.7C348.4 341.4 347.9 340.9 347.7 340.3C347.4 339.4 347.9 338.5 349 337.8C350.9 336.7 353.9 336.7 355.7 337.8C356.9 338.5 357.3 339.4 357 340.3Z" fill="#979797"/>
<path d="M357 340.3C356.7 340.9 356.3 341.4 355.7 341.7C353.8 342.8 350.8 342.8 349 341.7C348.4 341.4 347.9 340.9 347.7 340.3C347.9 339.7 348.4 339.2 349 338.9C350.9 337.8 353.9 337.8 355.7 338.9C356.3 339.1 356.8 339.7 357 340.3Z" fill="white"/>
<path d="M273.9 356.4C274.2 357 274.6 357.5 275.2 357.8C277.1 358.9 280.1 358.9 281.9 357.8C282.5 357.5 283 357 283.2 356.4C283.5 355.5 283 354.6 281.9 353.9C280 352.8 277 352.8 275.2 353.9C274.1 354.7 273.6 355.6 273.9 356.4Z" fill="#979797"/>
<path d="M273.9 356.4C274.2 357 274.6 357.5 275.2 357.8C277.1 358.9 280.1 358.9 281.9 357.8C282.5 357.5 283 357 283.2 356.4C283 355.8 282.5 355.3 281.9 355C280 353.9 277 353.9 275.2 355C274.6 355.3 274.2 355.8 273.9 356.4Z" fill="white"/>
<path d="M247.1 345.8C247.4 346.4 247.8 346.9 248.4 347.2C250.3 348.3 253.3 348.3 255.1 347.2C255.7 346.9 256.2 346.4 256.4 345.8C256.7 344.9 256.2 344 255.1 343.3C253.2 342.2 250.2 342.2 248.4 343.3C247.3 344 246.8 344.9 247.1 345.8Z" fill="#979797"/>
<path d="M247.1 345.8C247.4 346.4 247.8 346.9 248.4 347.2C250.3 348.3 253.3 348.3 255.1 347.2C255.7 346.9 256.2 346.4 256.4 345.8C256.2 345.2 255.7 344.7 255.1 344.4C253.2 343.3 250.2 343.3 248.4 344.4C247.8 344.6 247.4 345.2 247.1 345.8Z" fill="white"/>
<path d="M349.8 327C348.2 333.1 343.3 339 335.1 343.7C314.7 355.5 281.6 355.5 261.2 343.7C253 339 248.1 333.1 246.5 327C244.1 317.8 249 308.1 261.2 301.1C281.6 289.3 314.7 289.3 335.1 301.1C347.3 308.1 352.2 317.8 349.8 327Z" fill="#009DD7"/>
<path d="M349.8 327C348.2 333.1 343.3 339 335.1 343.7C314.7 355.5 281.6 355.5 261.2 343.7C253 339 248.1 333.1 246.5 327C248.1 320.9 253 315 261.2 310.3C281.6 298.5 314.7 298.5 335.1 310.3C343.2 315 348.1 320.9 349.8 327Z" fill="#00BAFF"/>
<path d="M356.6 144.6H242.4C239.1 144.6 236 145.9 233.6 148.2C231.2 150.5 230 153.7 230 157V271.6C230 274.1 230.7 276.5 232.1 278.5C233.5 280.5 235.4 282.1 237.7 283.1L294.8 306.3C297.8 307.5 301.1 307.5 304.1 306.3L361.2 283.1C363.5 282.2 365.4 280.6 366.8 278.5C368.2 276.5 368.9 274 368.9 271.6V157C368.9 153.7 367.6 150.6 365.3 148.2C363.1 145.9 359.9 144.6 356.6 144.6ZM360 271.6C360 272.3 359.8 272.9 359.4 273.5C359 274.1 358.5 274.5 357.9 274.7L300.8 297.9C300 298.2 299.1 298.2 298.3 297.9L241.2 274.7C240.6 274.4 240 274 239.7 273.5C239.3 272.9 239.1 272.3 239.1 271.6V157C239.1 156.1 239.5 155.2 240.1 154.6C240.7 154 241.6 153.6 242.5 153.6H356.7C357.6 153.6 358.5 154 359.1 154.6C359.7 155.2 360.1 156.1 360.1 157V271.6H360Z" fill="#A7A9AC"/>
<path d="M356.6 141.5H242.4C239.1 141.5 236 142.8 233.6 145.1C231.3 147.4 230 150.6 230 153.9V268.5C230 271 230.7 273.4 232.1 275.4C233.5 277.4 235.4 279 237.7 280L294.8 303.2C297.8 304.4 301.1 304.4 304.1 303.2L361.2 280C363.5 279.1 365.4 277.5 366.8 275.4C368.2 273.4 368.9 270.9 368.9 268.5V153.9C368.9 150.6 367.6 147.5 365.3 145.1C363.1 142.8 359.9 141.5 356.6 141.5ZM360 268.5C360 269.2 359.8 269.8 359.4 270.4C359 271 358.5 271.4 357.9 271.6L300.8 294.8C300 295.1 299.1 295.1 298.3 294.8L241.2 271.6C240.6 271.3 240 270.9 239.7 270.4C239.3 269.8 239.1 269.2 239.1 268.5V153.9C239.1 153 239.5 152.1 240.1 151.5C240.7 150.9 241.6 150.5 242.5 150.5H356.7C357.6 150.5 358.5 150.9 359.1 151.5C359.7 152.1 360.1 153 360.1 153.9V268.5H360Z" fill="#E6E7E8"/>
<path d="M359.8 274.2L301 297.2C300.1 297.5 299.1 297.5 298.3 297.2L239.5 274.2C238.8 273.9 238.2 273.4 237.8 272.8C237.4 272.2 237.1 271.4 237.1 270.7V151.8C237.1 150.8 237.5 149.8 238.2 149.1C238.9 148.4 239.9 148 240.9 148H358.6C359.6 148 360.6 148.4 361.3 149.1C362 149.8 362.4 150.8 362.4 151.8V270.7C362.4 271.5 362.2 272.2 361.7 272.8C361.1 273.4 360.5 273.9 359.8 274.2Z" fill="url(#paint16_linear)"/>
<path d="M274.9 192.2C281.7 185.3 290.2 181.7 299.4 181.7C308.7 181.7 317.2 185.3 324 192.2C324.3 192.5 324.8 192.7 325.3 192.7C325.8 192.7 326.3 192.5 326.6 192.2C326.9 191.9 327.1 191.4 327.2 190.9C327.2 190.4 327 189.9 326.7 189.6C319.2 182 309.8 178 299.5 178C289.2 178 279.8 182 272.3 189.6C272.1 189.8 272 190 271.9 190.2C271.8 190.4 271.8 190.7 271.8 190.9C271.8 191.1 271.8 191.4 271.9 191.6C272 191.8 272.1 192 272.3 192.2C272.5 192.4 272.7 192.5 272.9 192.6C273.1 192.7 273.4 192.7 273.6 192.7C273.8 192.7 274.1 192.6 274.3 192.6C274.6 192.5 274.8 192.4 274.9 192.2Z" fill="white"/>
<path d="M299.5 185.4C296.9 185.4 294.3 185.7 291.7 186.4C291.2 186.5 290.8 186.8 290.6 187.2C290.3 187.6 290.3 188.1 290.4 188.6C290.5 189.1 290.8 189.5 291.2 189.7C291.6 190 292.1 190 292.6 189.9C296.7 188.9 301 188.8 305.1 189.6C309.2 190.5 313.1 192.3 316.5 194.8C319.8 197.4 322.5 200.7 324.4 204.5C326.3 208.3 327.2 212.5 327.2 216.7C327.2 217.2 327.4 217.7 327.7 218C328 218.3 328.5 218.5 329 218.5C329.5 218.5 330 218.3 330.3 218C330.6 217.7 330.8 217.2 330.8 216.7C330.8 208.4 327.5 200.4 321.6 194.5C315.8 188.7 307.8 185.4 299.5 185.4Z" fill="white"/>
<path d="M271.8 216.8C271.9 209.3 274.8 202.4 279.9 197.3C281.6 195.6 283.5 194.1 285.6 192.8C286 192.6 286.3 192.1 286.5 191.7C286.6 191.2 286.6 190.7 286.3 190.3C286.1 189.9 285.6 189.6 285.2 189.4C284.7 189.3 284.2 189.3 283.8 189.6C281.4 191 279.2 192.7 277.3 194.7C271.5 200.5 268.3 208.4 268.2 216.8C268.2 217 268.2 217.3 268.3 217.5C268.4 217.7 268.5 217.9 268.7 218.1C268.9 218.3 269.1 218.4 269.3 218.5C269.5 218.6 269.8 218.6 270 218.6C270.5 218.6 270.9 218.4 271.3 218.1C271.6 217.8 271.8 217.3 271.8 216.8Z" fill="white"/>
<path d="M279.2 217.2C279.2 211.5 281.3 206.3 285.1 202.4C287 200.5 289.2 199 291.7 197.9C294.2 196.9 296.8 196.3 299.5 196.3C302.4 196.3 305.3 196.9 307.9 198.1C310.5 199.3 312.9 201.1 314.8 203.3C315.1 203.7 315.6 203.9 316.1 203.9C316.6 203.9 317.1 203.8 317.4 203.4C317.8 203.1 318 202.6 318 202.1C318 201.6 317.9 201.1 317.6 200.8C315.3 198.2 312.6 196.1 309.4 194.7C306.3 193.3 302.9 192.5 299.5 192.5C296.3 192.5 293.2 193.1 290.3 194.3C287.4 195.5 284.7 197.3 282.5 199.6C278 204.2 275.5 210.3 275.5 217.1C275.5 221.1 274.3 225.8 272 230.4L271 232.2C270.9 232.4 270.8 232.6 270.8 232.9C270.8 233.1 270.8 233.4 270.9 233.6C271 233.8 271.1 234.1 271.2 234.2C271.3 234.3 271.5 234.6 271.7 234.7C271.9 234.8 272.1 234.9 272.4 234.9C272.6 234.9 272.9 234.9 273.1 234.8C273.3 234.7 273.6 234.6 273.7 234.5C273.9 234.4 274.1 234.2 274.2 234L275.3 232.1C277.8 227.1 279.2 221.9 279.2 217.2Z" fill="white"/>
<path d="M324.9 231.3C323.7 226 323.6 220.8 323.6 217.8V216.8C323.6 214.1 323.1 211.4 322.2 208.8C322 208.3 321.7 208 321.3 207.7C320.9 207.5 320.3 207.5 319.9 207.6C319.4 207.8 319.1 208.1 318.8 208.5C318.6 208.9 318.6 209.5 318.7 209.9C319.5 212.1 319.9 214.4 319.9 216.7V217.7C320 220.9 320.1 226.2 321.4 232.1L323.5 239.1C323.6 239.5 323.8 239.8 324.2 240C324.5 240.2 324.9 240.4 325.3 240.4C325.5 240.4 325.7 240.4 325.8 240.3C326.3 240.2 326.7 239.8 326.9 239.4C327.1 239 327.2 238.5 327 238L324.9 231.3Z" fill="white"/>
<path d="M319.8 241.1C316.8 231.6 316.2 220.9 316.1 216.8C316.1 212.4 314.3 208.2 311.2 205C308.1 201.9 303.9 200.1 299.4 200.1C290.2 200.1 282.8 207.7 282.8 217.1C282.8 219 282.4 229.3 274.6 240.6C274.3 241 274.2 241.5 274.3 242C274.4 242.5 274.7 242.9 275.1 243.2C275.5 243.5 276 243.6 276.5 243.5C277 243.4 277.4 243.1 277.7 242.7C285.9 230.8 286.5 220.1 286.5 217.1C286.5 209.8 292.3 203.9 299.4 203.9C302.8 203.9 306.1 205.3 308.6 207.7C311 210.1 312.4 213.4 312.4 216.9C312.5 222.3 313.2 232.7 316.3 242.3L318 247.8C318.1 248.2 318.4 248.5 318.7 248.7C319 248.9 319.4 249.1 319.8 249.1C320 249.1 320.2 249.1 320.4 249C320.9 248.9 321.3 248.5 321.5 248.1C321.7 247.7 321.8 247.2 321.6 246.7L319.8 241.1Z" fill="white"/>
<path d="M308.7 216.8C308.7 215.6 308.5 214.4 308 213.3C307.5 212.2 306.8 211.2 306 210.3C305.1 209.4 304.1 208.8 303 208.3C301.9 207.8 300.7 207.6 299.5 207.6C298.3 207.6 297.1 207.8 296 208.3C294.9 208.8 293.9 209.5 293 210.3C292.1 211.2 291.5 212.2 291 213.3C290.5 214.4 290.3 215.6 290.3 216.9C290.3 217.5 290.7 232 279 247.3C278.9 247.5 278.7 247.7 278.7 247.9C278.6 248.1 278.6 248.4 278.7 248.6C278.7 248.8 278.8 249.1 278.9 249.3C279 249.5 279.2 249.7 279.4 249.8C279.6 249.9 279.8 250.1 280 250.1C280.2 250.2 280.5 250.2 280.7 250.1C280.9 250.1 281.2 250 281.4 249.9C281.6 249.8 281.8 249.6 281.9 249.4C294.4 233.1 294 217.3 294 216.7C294 216 294.1 215.2 294.4 214.6C294.7 214 295.1 213.3 295.6 212.8C296.1 212.3 296.7 211.9 297.4 211.6C298.1 211.3 298.8 211.2 299.5 211.2C300.2 211.2 301 211.3 301.6 211.6C302.3 211.9 302.9 212.3 303.4 212.8C303.9 213.3 304.3 213.9 304.6 214.6C304.9 215.3 305 216 305 216.7C305.1 218.8 305.1 237.4 290.6 256.2C290.5 256.4 290.3 256.6 290.3 256.8C290.2 257 290.2 257.3 290.3 257.5C290.3 257.7 290.4 258 290.5 258.2C290.6 258.4 290.8 258.6 291 258.7C291.2 258.8 291.4 259 291.6 259C291.8 259.1 292.1 259.1 292.3 259C292.5 259 292.8 258.9 293 258.8C293.2 258.7 293.4 258.5 293.5 258.3C308.8 238.8 308.8 218.9 308.7 216.8Z" fill="white"/>
<path d="M298.6 226C298.7 226 298.8 226 298.9 226C299.3 226 299.8 225.8 300.1 225.6C300.4 225.3 300.7 224.9 300.7 224.5C301.5 219.8 301.3 216.9 301.3 216.7C301.3 216.5 301.2 216.2 301.1 216C301 215.8 300.9 215.6 300.7 215.4C300.5 215.2 300.3 215.1 300.1 215C299.9 214.9 299.6 214.9 299.4 214.9C298.9 214.9 298.5 215.1 298.1 215.5C297.8 215.9 297.6 216.3 297.6 216.8C297.6 219.1 297.4 221.5 297 223.8C296.9 224.3 297 224.8 297.3 225.2C297.7 225.6 298.1 225.9 298.6 226Z" fill="white"/>
<path d="M297.7 229.8C297.2 229.7 296.7 229.7 296.3 229.9C295.9 230.1 295.5 230.5 295.4 231C293 238.9 289.2 246.3 284 252.7C283.7 253.1 283.6 253.6 283.6 254.1C283.7 254.6 283.9 255 284.3 255.3C284.7 255.6 285.2 255.7 285.7 255.7C286.2 255.6 286.6 255.4 286.9 255C292.4 248.2 296.5 240.4 299 232.1C299.1 231.6 299.1 231.1 298.9 230.7C298.6 230.3 298.2 230 297.7 229.8Z" fill="white"/>
<path d="M313.4 244.9C312.5 242.2 311.7 239.4 311.7 239.4C311.6 239 311.4 238.7 311.1 238.5C310.8 238.3 310.4 238.1 310.1 238.1C309.7 238.1 309.3 238.2 309 238.4C308.7 238.6 308.4 238.9 308.3 239.3C308.3 239.4 304.1 249.1 299.4 256.5C299.1 256.9 299 257.4 299.2 257.9C299.3 258.4 299.6 258.8 300 259.1C300.4 259.4 300.9 259.5 301.4 259.3C301.9 259.2 302.3 258.9 302.6 258.5C305.5 254 308.1 248.8 309.7 245.2C309.8 245.5 309.9 245.8 310 246.1L312.2 253.1C312.3 253.6 312.7 254 313.1 254.2C313.5 254.4 314 254.5 314.5 254.3C315 254.2 315.4 253.8 315.6 253.4C315.8 253 315.9 252.5 315.7 252L313.4 244.9Z" fill="white"/>
</g>
<defs>
<filter id="filter0_d" x="-29" y="-20" width="660" height="510" filterUnits="userSpaceOnUse" color-interpolation-filters="sRGB">
<feFlood flood-opacity="0" result="BackgroundImageFix"/>
<feColorMatrix in="SourceAlpha" type="matrix" values="0 0 0 0 0 0 0 0 0 0 0 0 0 0 0 0 0 0 127 0" result="hardAlpha"/>
<feOffset dy="10"/>
<feGaussianBlur stdDeviation="15"/>
<feColorMatrix type="matrix" values="0 0 0 0 0 0 0 0 0 0 0 0 0 0 0 0 0 0 0.25 0"/>
<feBlend mode="normal" in2="BackgroundImageFix" result="effect1_dropShadow"/>
<feBlend mode="normal" in="SourceGraphic" in2="effect1_dropShadow" result="shape"/>
</filter>
<linearGradient id="paint0_linear" x1="399.999" y1="190.357" x2="553.121" y2="190.357" gradientUnits="userSpaceOnUse">
<stop stop-color="#75DAFF"/>
<stop offset="1" stop-color="#00BAFF"/>
</linearGradient>
<linearGradient id="paint1_linear" x1="399.999" y1="182.465" x2="553.121" y2="182.465" gradientUnits="userSpaceOnUse">
<stop stop-color="#71439A"/>
<stop offset="0.8668" stop-color="#A76CAD"/>
</linearGradient>
<linearGradient id="paint2_linear" x1="48.1672" y1="225.608" x2="156.845" y2="225.608" gradientUnits="userSpaceOnUse">
<stop stop-color="#75DAFF"/>
<stop offset="1" stop-color="#00BAFF"/>
</linearGradient>
<linearGradient id="paint3_linear" x1="163.036" y1="170.789" x2="196.968" y2="170.789" gradientUnits="userSpaceOnUse">
<stop stop-color="#75DAFF"/>
<stop offset="1" stop-color="#00BAFF"/>
</linearGradient>
<linearGradient id="paint4_linear" x1="167.977" y1="157.302" x2="176.744" y2="157.302" gradientUnits="userSpaceOnUse">
<stop stop-color="#71439A"/>
<stop offset="0.8668" stop-color="#A76CAD"/>
</linearGradient>
<linearGradient id="paint5_linear" x1="167.977" y1="175.227" x2="176.744" y2="175.227" gradientUnits="userSpaceOnUse">
<stop stop-color="#71439A"/>
<stop offset="0.8668" stop-color="#A76CAD"/>
</linearGradient>
<linearGradient id="paint6_linear" x1="167.977" y1="193.146" x2="176.744" y2="193.146" gradientUnits="userSpaceOnUse">
<stop stop-color="#71439A"/>
<stop offset="0.8668" stop-color="#A76CAD"/>
</linearGradient>
<linearGradient id="paint7_linear" x1="60.3612" y1="211.607" x2="67.099" y2="211.607" gradientUnits="userSpaceOnUse">
<stop stop-color="#71439A"/>
<stop offset="0.8668" stop-color="#A76CAD"/>
</linearGradient>
<linearGradient id="paint8_linear" x1="159.437" y1="88.1719" x2="222.975" y2="88.1719" gradientUnits="userSpaceOnUse">
<stop stop-color="#75DAFF"/>
<stop offset="1" stop-color="#00BAFF"/>
</linearGradient>
<linearGradient id="paint9_linear" x1="171.686" y1="92.8915" x2="175.051" y2="92.8915" gradientUnits="userSpaceOnUse">
<stop stop-color="#71439A"/>
<stop offset="0.8668" stop-color="#A76CAD"/>
</linearGradient>
<linearGradient id="paint10_linear" x1="167.502" y1="92.8907" x2="179.231" y2="92.8907" gradientUnits="userSpaceOnUse">
<stop stop-color="#71439A"/>
<stop offset="0.8668" stop-color="#A76CAD"/>
</linearGradient>
<linearGradient id="paint11_linear" x1="270.164" y1="74.1263" x2="325.405" y2="74.1263" gradientUnits="userSpaceOnUse">
<stop stop-color="#75DAFF"/>
<stop offset="1" stop-color="#00BAFF"/>
</linearGradient>
<linearGradient id="paint12_linear" x1="280.815" y1="73.0043" x2="283.834" y2="73.0043" gradientUnits="userSpaceOnUse">
<stop stop-color="#71439A"/>
<stop offset="0.8668" stop-color="#A76CAD"/>
</linearGradient>
<linearGradient id="paint13_linear" x1="277.822" y1="76.2777" x2="282.578" y2="76.2777" gradientUnits="userSpaceOnUse">
<stop stop-color="#71439A"/>
<stop offset="0.8668" stop-color="#A76CAD"/>
</linearGradient>
<linearGradient id="paint14_linear" x1="372.223" y1="86.1539" x2="420.978" y2="86.1539" gradientUnits="userSpaceOnUse">
<stop stop-color="#75DAFF"/>
<stop offset="1" stop-color="#00BAFF"/>
</linearGradient>
<linearGradient id="paint15_linear" x1="377.389" y1="69.8242" x2="382.65" y2="69.8242" gradientUnits="userSpaceOnUse">
<stop stop-color="#71439A"/>
<stop offset="0.8668" stop-color="#A76CAD"/>
</linearGradient>
<linearGradient id="paint16_linear" x1="288.962" y1="296.383" x2="307.937" y2="143.696" gradientUnits="userSpaceOnUse">
<stop stop-color="#75DAFF"/>
<stop offset="1" stop-color="#00BAFF"/>
</linearGradient>
</defs>
</svg>
