<svg width="632" height="473" viewBox="0 0 632 473" fill="none" xmlns="http://www.w3.org/2000/svg">
<g filter="url(#filter0_d)">
<path d="M317.754 397.373C413.098 397.373 490.39 320.059 490.39 224.687C490.39 129.314 413.098 52 317.754 52C222.41 52 145.119 129.314 145.119 224.687C145.119 320.059 222.41 397.373 317.754 397.373Z" fill="url(#paint0_linear)"/>
<path d="M318.408 392.716C411.226 392.716 486.469 317.45 486.469 224.605C486.469 131.76 411.226 56.4937 318.408 56.4937C225.59 56.4937 150.347 131.76 150.347 224.605C150.347 317.45 225.59 392.716 318.408 392.716Z" fill="#E1F4FD"/>
<path d="M509.054 117.406C509.054 117.406 400.172 203.075 388.41 207.488C376.647 211.9 321.839 210.511 312.078 216.557C302.316 222.603 250.775 275.467 251.714 279.512C252.695 283.556 257.473 292.544 265.682 293.279C265.682 293.279 271.318 305.821 280.017 306.434C280.017 306.434 286.388 321.999 297.497 319.385C297.497 319.385 305.788 333.969 315.508 330.047C325.269 326.125 397.395 288.132 411.526 255.408L571.051 182.771L509.054 117.406Z" fill="#D1D3D4"/>
<path d="M123.718 121.818C123.718 121.818 235.541 207.406 247.63 211.9C259.678 216.394 315.712 215.985 325.759 222.072C335.806 228.159 388.777 280.656 387.838 284.578C386.899 288.5 382.038 297.242 373.666 297.773C373.666 297.773 367.948 309.947 359.086 310.356C359.086 310.356 352.674 325.472 341.279 322.694C341.279 322.694 332.907 336.788 322.9 332.825C312.894 328.822 238.931 290.501 224.269 258.268L60.7412 184.61L123.718 121.818Z" fill="#E6E7E8"/>
<path d="M178.119 243.602L65.5605 191.677C65.5605 191.677 50 182.077 50 153.193C50 124.31 50.4901 62.9894 67.3983 75.368C84.3065 87.7465 216.877 186.652 216.877 186.652L178.119 243.602Z" fill="url(#paint1_linear)"/>
<path d="M453.796 244.214L566.314 192.249C566.314 192.249 581.874 182.648 581.874 153.765C581.874 124.882 581.425 63.5613 564.476 75.8989C547.527 88.2775 414.997 187.183 414.997 187.183L453.796 244.214Z" fill="url(#paint2_linear)"/>
<path d="M238.89 297.609L257.105 252.467C257.105 252.467 270.46 242.008 278.751 254.877L259.025 307.292C259.025 307.292 239.789 316.116 238.89 297.609Z" fill="#D1D3D4"/>
<path d="M277.444 313.216L297.293 262.558C297.293 262.558 309.627 251.936 315.386 267.95L293.536 326.942C293.536 326.942 276.382 334.95 277.444 313.216Z" fill="#D1D3D4"/>
<path d="M259.066 306.597L278.915 255.939C278.915 255.939 291.249 245.318 297.007 261.332L275.157 320.324C275.157 320.324 258.004 328.331 259.066 306.597Z" fill="#D1D3D4"/>
<path d="M296.64 317.301L315.222 274.814C315.222 274.814 326.209 266.153 330.701 279.92L310.158 329.394C310.158 329.434 295.088 335.767 296.64 317.301Z" fill="#D1D3D4"/>
<path d="M338.828 212.104C338.828 212.104 280.344 213.125 276.301 212.594C272.298 212.063 273.728 238.413 341.238 231.305" fill="#D1D3D4"/>
<path d="M242.035 205.363C242.035 205.363 207.973 235.921 207.973 259.412L173.912 244.705C173.912 244.705 190.943 196.539 220.92 184.201L242.035 205.363Z" fill="#6ACFF6"/>
<path d="M388.41 205.363C388.41 205.363 422.471 235.921 422.471 259.412L456.533 244.705C456.533 244.705 439.502 196.539 409.525 184.201L388.41 205.363Z" fill="#8BD7F8"/>
<path d="M209.689 247.401L179.875 232.245L209.689 250.792V247.401Z" fill="#00B3F0"/>
<path d="M420.511 249.117L450.325 233.919L420.511 252.467V249.117Z" fill="#00B3F0"/>
<path d="M200.418 249.117C203.846 249.117 206.626 246.336 206.626 242.907C206.626 239.477 203.846 236.697 200.418 236.697C196.989 236.697 194.21 239.477 194.21 242.907C194.21 246.336 196.989 249.117 200.418 249.117Z" fill="white"/>
<path d="M430.762 249.444C434.19 249.444 436.97 246.664 436.97 243.234C436.97 239.805 434.19 237.024 430.762 237.024C427.333 237.024 424.554 239.805 424.554 243.234C424.554 246.664 427.333 249.444 430.762 249.444Z" fill="white"/>
<path d="M315.222 68.8722C315.263 68.913 315.263 68.913 315.222 68.8722C315.263 68.913 347.732 102.739 372.073 110.992C372.073 110.992 340.748 182.24 315.59 196.906C290.35 182.567 258.535 111.441 258.535 111.441C282.876 102.944 315.141 68.8722 315.141 68.8722C315.222 68.8313 315.222 68.8722 315.222 68.8722Z" fill="#414042"/>
<path d="M315.263 71.8138C315.304 71.8547 315.304 71.8547 315.263 71.8138C315.304 71.8547 346.221 104.047 369.419 111.932C369.419 111.932 339.564 179.789 315.59 193.761C291.534 180.116 261.271 112.34 261.271 112.34C284.428 104.251 315.182 71.7729 315.182 71.7729C315.263 71.8138 315.263 71.8138 315.263 71.8138Z" fill="url(#paint3_linear)"/>
<path d="M314.814 74.6737C314.855 74.6737 314.855 74.7145 314.814 74.6737C314.855 74.7145 344.26 105.354 366.355 112.831C366.355 112.831 337.971 177.379 315.141 190.697C292.27 177.706 263.477 113.239 263.477 113.239C285.531 105.559 314.773 74.6328 314.773 74.6328C314.773 74.6328 314.773 74.6328 314.814 74.6737C314.814 74.6737 314.814 74.6328 314.814 74.6737Z" fill="url(#paint4_linear)"/>
<path d="M315.1 154.664C330.438 154.664 342.872 142.226 342.872 126.884C342.872 111.541 330.438 99.1035 315.1 99.1035C299.762 99.1035 287.328 111.541 287.328 126.884C287.328 142.226 299.762 154.664 315.1 154.664Z" fill="#E6E7E8"/>
<path d="M313.017 145.677C312.649 145.677 312.282 145.595 311.955 145.391C311.628 145.227 311.302 144.941 311.057 144.614L300.07 130.602C299.539 129.948 299.253 129.009 299.253 128.069C299.253 127.129 299.539 126.231 300.07 125.536C300.601 124.882 301.296 124.474 302.031 124.474C302.766 124.474 303.46 124.842 303.991 125.495L312.976 136.975L329.68 115.65C330.211 114.996 330.905 114.587 331.641 114.587C332.376 114.587 333.111 114.955 333.601 115.65C334.132 116.303 334.418 117.243 334.418 118.182C334.418 119.122 334.132 120.021 333.601 120.715L314.936 144.574C314.691 144.9 314.365 145.186 314.038 145.35C313.752 145.595 313.385 145.677 313.017 145.677Z" fill="url(#paint5_linear)"/>
<path d="M224.392 329.271L224.473 346.47L224.392 329.271Z" fill="url(#paint6_linear)" stroke="#20C4F4" stroke-width="10" stroke-miterlimit="10" stroke-linecap="round" stroke-linejoin="round"/>
<path d="M232.846 337.441L215.652 337.523L232.846 337.441Z" fill="url(#paint7_linear)" stroke="#20C4F4" stroke-width="10" stroke-miterlimit="10" stroke-linecap="round" stroke-linejoin="round"/>
<path opacity="0.75" d="M224.147 171.945C233.282 171.945 240.687 164.537 240.687 155.4C240.687 146.262 233.282 138.854 224.147 138.854C215.011 138.854 207.606 146.262 207.606 155.4C207.606 164.537 215.011 171.945 224.147 171.945Z" fill="#81D4F7"/>
<path d="M224.106 146.575L224.187 164.265L224.106 146.575Z" fill="url(#paint8_linear)" stroke="white" stroke-width="10" stroke-miterlimit="10" stroke-linecap="round" stroke-linejoin="round"/>
<path d="M232.805 154.991L215.121 155.073L232.805 154.991Z" fill="url(#paint9_linear)" stroke="white" stroke-width="10" stroke-miterlimit="10" stroke-linecap="round" stroke-linejoin="round"/>
<path opacity="0.75" d="M435.132 310.601C444.267 310.601 451.672 303.193 451.672 294.055C451.672 284.917 444.267 277.51 435.132 277.51C425.997 277.51 418.591 284.917 418.591 294.055C418.591 303.193 425.997 310.601 435.132 310.601Z" fill="#6ACFF6"/>
<path d="M435.132 285.231L435.214 302.92L435.132 285.231Z" fill="url(#paint10_linear)" stroke="white" stroke-width="10" stroke-miterlimit="10" stroke-linecap="round" stroke-linejoin="round"/>
<path d="M443.831 293.647L426.147 293.729L443.831 293.647Z" fill="url(#paint11_linear)" stroke="white" stroke-width="10" stroke-miterlimit="10" stroke-linecap="round" stroke-linejoin="round"/>
<path d="M413.404 114.505L413.486 132.195L413.404 114.505Z" fill="#38C6F4" stroke="#44C8F5" stroke-width="10" stroke-miterlimit="10" stroke-linecap="round" stroke-linejoin="round"/>
<path d="M422.104 122.921L404.419 123.003L422.104 122.921Z" fill="url(#paint12_linear)" stroke="#2AC5F4" stroke-width="10" stroke-miterlimit="10" stroke-linecap="round" stroke-linejoin="round"/>
</g>
<defs>
<filter id="filter0_d" x="-34" y="-25" width="700" height="550" filterUnits="userSpaceOnUse" color-interpolation-filters="sRGB">
<feFlood flood-opacity="0" result="BackgroundImageFix"/>
<feColorMatrix in="SourceAlpha" type="matrix" values="0 0 0 0 0 0 0 0 0 0 0 0 0 0 0 0 0 0 127 0" result="hardAlpha"/>
<feOffset dy="25"/>
<feGaussianBlur stdDeviation="25"/>
<feColorMatrix type="matrix" values="0 0 0 0 0 0 0 0 0 0 0 0 0 0 0 0 0 0 0.25 0"/>
<feBlend mode="normal" in2="BackgroundImageFix" result="effect1_dropShadow"/>
<feBlend mode="normal" in="SourceGraphic" in2="effect1_dropShadow" result="shape"/>
</filter>
<linearGradient id="paint0_linear" x1="145.132" y1="224.69" x2="490.383" y2="224.69" gradientUnits="userSpaceOnUse">
<stop stop-color="#71459B"/>
<stop offset="0.8668" stop-color="#A76DAE"/>
</linearGradient>
<linearGradient id="paint1_linear" x1="176.776" y1="159.616" x2="9.93512" y2="156.806" gradientUnits="userSpaceOnUse">
<stop stop-color="#43B5E8"/>
<stop offset="1" stop-color="#B3E3F9"/>
</linearGradient>
<linearGradient id="paint2_linear" x1="415.015" y1="159.265" x2="581.88" y2="159.265" gradientUnits="userSpaceOnUse">
<stop stop-color="#43B5E8"/>
<stop offset="1" stop-color="#B3E3F9"/>
</linearGradient>
<linearGradient id="paint3_linear" x1="261.297" y1="132.788" x2="369.438" y2="132.788" gradientUnits="userSpaceOnUse">
<stop stop-color="#71459B"/>
<stop offset="0.8668" stop-color="#A76DAE"/>
</linearGradient>
<linearGradient id="paint4_linear" x1="263.47" y1="132.671" x2="366.365" y2="132.671" gradientUnits="userSpaceOnUse">
<stop stop-color="#43B5E8"/>
<stop offset="1" stop-color="#B3E3F9"/>
</linearGradient>
<linearGradient id="paint5_linear" x1="299.267" y1="130.177" x2="334.488" y2="130.177" gradientUnits="userSpaceOnUse">
<stop stop-color="#71459B"/>
<stop offset="0.8668" stop-color="#A76DAE"/>
</linearGradient>
<linearGradient id="paint6_linear" x1="230.033" y1="333.029" x2="219.53" y2="342.1" gradientUnits="userSpaceOnUse">
<stop stop-color="#43B5E8"/>
<stop offset="1" stop-color="#43B5E8"/>
</linearGradient>
<linearGradient id="paint7_linear" x1="229.079" y1="343.091" x2="220.005" y2="332.59" gradientUnits="userSpaceOnUse">
<stop stop-color="#43B5E8"/>
<stop offset="1" stop-color="#43B5E8"/>
</linearGradient>
<linearGradient id="paint8_linear" x1="229.925" y1="150.464" x2="219.131" y2="159.786" gradientUnits="userSpaceOnUse">
<stop stop-color="#43B5E8"/>
<stop offset="1" stop-color="#43B5E8"/>
</linearGradient>
<linearGradient id="paint9_linear" x1="228.945" y1="160.806" x2="219.622" y2="150.014" gradientUnits="userSpaceOnUse">
<stop stop-color="#43B5E8"/>
<stop offset="1" stop-color="#43B5E8"/>
</linearGradient>
<linearGradient id="paint10_linear" x1="440.922" y1="289.101" x2="430.127" y2="298.422" gradientUnits="userSpaceOnUse">
<stop stop-color="#43B5E8"/>
<stop offset="1" stop-color="#43B5E8"/>
</linearGradient>
<linearGradient id="paint11_linear" x1="439.942" y1="299.443" x2="430.616" y2="288.651" gradientUnits="userSpaceOnUse">
<stop stop-color="#43B5E8"/>
<stop offset="1" stop-color="#43B5E8"/>
</linearGradient>
<linearGradient id="paint12_linear" x1="418.222" y1="128.733" x2="408.898" y2="117.941" gradientUnits="userSpaceOnUse">
<stop stop-color="#43B5E8"/>
<stop offset="1" stop-color="#43B5E8"/>
</linearGradient>
</defs>
</svg>
