<svg width="637" height="450" viewBox="0 0 637 450" fill="none" xmlns="http://www.w3.org/2000/svg">
<g filter="url(#filter0_d)">
<path d="M130.7 247.113V359.013C130.7 359.413 129.8 359.812 128.1 360.112C127 360.312 125.7 360.512 124 360.812C115.4 361.913 99.2999 362.612 80.9999 362.612C62.6999 362.612 46.4999 361.913 37.9999 360.812C36.3999 360.613 34.9999 360.412 33.8999 360.112C32.5999 359.812 31.7999 359.512 31.4999 359.212L31.3999 359.112C31.3999 359.012 31.3999 359.013 31.3999 358.913V247.113C31.3999 243.113 32.5999 239.312 34.8999 236.012L44.7999 221.812H117.4L127.3 236.012C129.5 239.212 130.7 243.113 130.7 247.113Z" fill="url(#paint0_linear)"/>
<path d="M462.199 112.913V322.413C462.199 324.913 461.699 327.413 460.799 329.713C459.799 332.013 458.399 334.113 456.699 335.913C454.899 337.713 452.799 339.113 450.499 340.013C448.199 341.013 445.699 341.513 443.199 341.413H138.399C135.899 341.413 133.399 340.913 131.099 340.013C128.799 339.013 126.699 337.613 124.899 335.913C123.099 334.113 121.699 332.013 120.799 329.713C119.799 327.413 119.299 324.913 119.399 322.413V112.913H462.199Z" fill="#E9F7FE"/>
<path d="M462.199 102.013V112.913H119.199V102.013C119.199 99.5126 119.699 97.0126 120.599 94.7126C121.599 92.4126 122.999 90.3126 124.699 88.5126C126.499 86.7126 128.599 85.3126 130.899 84.4126C133.199 83.4126 135.699 82.9126 138.199 83.0126H442.899C445.399 83.0126 447.899 83.5126 450.199 84.5126C452.499 85.5126 454.599 86.9126 456.399 88.6126C458.199 90.4126 459.599 92.5126 460.499 94.8126C461.699 97.0126 462.199 99.5126 462.199 102.013Z" fill="#7B7C7F"/>
<path d="M149.901 97.8126C149.901 98.8126 149.601 99.9126 149.001 100.713C148.401 101.613 147.601 102.213 146.601 102.613C145.601 103.013 144.601 103.113 143.501 102.913C142.501 102.713 141.501 102.213 140.801 101.513C140.101 100.813 139.601 99.8126 139.401 98.8126C139.201 97.8126 139.301 96.7126 139.701 95.7126C140.101 94.7126 140.801 93.9126 141.601 93.3126C142.401 92.7126 143.501 92.4126 144.501 92.4126C145.901 92.4126 147.201 93.0126 148.201 93.9126C149.301 95.1126 149.901 96.4126 149.901 97.8126Z" fill="url(#paint1_linear)"/>
<path d="M170 97.8126C170 98.8126 169.7 99.9126 169.1 100.713C168.5 101.613 167.7 102.213 166.7 102.613C165.7 103.013 164.7 103.113 163.6 102.913C162.6 102.713 161.6 102.213 160.9 101.513C160.2 100.813 159.7 99.8126 159.5 98.8126C159.3 97.8126 159.4 96.7126 159.8 95.7126C160.2 94.7126 160.9 93.9126 161.7 93.3126C162.6 92.7126 163.6 92.4126 164.6 92.4126C166 92.4126 167.3 93.0126 168.3 93.9126C169.4 95.1126 170 96.4126 170 97.8126Z" fill="url(#paint2_linear)"/>
<path d="M189.799 97.8126C189.799 98.8126 189.499 99.9126 188.899 100.713C188.299 101.613 187.499 102.213 186.499 102.613C185.499 103.013 184.499 103.113 183.399 102.913C182.399 102.713 181.399 102.213 180.699 101.513C179.999 100.813 179.499 99.8126 179.299 98.8126C179.099 97.8126 179.199 96.7126 179.599 95.7126C179.999 94.7126 180.699 93.9126 181.499 93.3126C182.399 92.7126 183.399 92.4126 184.399 92.4126C185.799 92.4126 187.099 93.0126 188.099 93.9126C189.199 95.1126 189.799 96.4126 189.799 97.8126Z" fill="url(#paint3_linear)"/>
<path d="M225.401 142.613H167.101C164.201 142.613 161.801 145.013 161.801 147.913V206.213C161.801 209.113 164.201 211.513 167.101 211.513H225.401C228.301 211.513 230.701 209.113 230.701 206.213V147.913C230.701 145.013 228.301 142.613 225.401 142.613Z" fill="#00BAFF"/>
<path d="M223.001 202.412C222.301 202.912 221.401 203.212 220.501 203.212H171.801C170.901 203.212 170.001 202.912 169.301 202.412C170.001 197.512 172.001 192.812 175.101 188.912C178.201 185.012 182.401 182.112 187.101 180.412C183.801 178.412 181.201 175.412 179.701 171.812C178.301 168.212 178.001 164.312 179.001 160.512C180.001 156.812 182.201 153.512 185.301 151.112C188.401 148.812 192.101 147.512 196.001 147.512C199.901 147.512 203.601 148.812 206.701 151.112C209.801 153.412 212.001 156.712 213.001 160.512C214.001 164.212 213.801 168.212 212.301 171.812C210.901 175.412 208.301 178.412 204.901 180.412C209.601 182.112 213.801 185.012 216.901 188.912C220.401 192.712 222.401 197.412 223.001 202.412Z" fill="white"/>
<path d="M245.601 229.012H167.401C164.301 229.012 161.801 231.512 161.801 234.612V245.212C161.801 248.312 164.301 250.812 167.401 250.812H245.601C248.701 250.812 251.201 248.312 251.201 245.212V234.612C251.201 231.512 248.701 229.012 245.601 229.012Z" fill="url(#paint4_linear)"/>
<path d="M406.001 260.712H166.601C164.001 260.712 161.801 262.812 161.801 265.512V315.112C161.801 317.712 163.901 319.912 166.601 319.912H406.001C408.601 319.912 410.801 317.812 410.801 315.112V265.512C410.801 262.812 408.701 260.712 406.001 260.712Z" fill="url(#paint5_linear)"/>
<path opacity="0.1" d="M462.2 158.213V200.513H315L284.9 222.613C284.7 222.713 284.5 222.813 284.3 222.713C284.1 222.713 283.9 222.613 283.7 222.413C283.5 222.313 283.4 222.113 283.4 221.813C283.4 221.613 283.4 221.413 283.5 221.213L290.2 200.413H291C289.3 200.513 287.6 199.813 286.3 198.713C285 197.513 284.3 195.913 284.2 194.113V164.413C284.3 162.713 285 161.013 286.3 159.813C287.6 158.613 289.3 158.013 291 158.113L462.2 158.213Z" fill="black"/>
<path d="M558.4 211.613H509.7C504.1 211.613 499.6 216.113 499.6 221.713V341.513C499.6 347.113 504.1 351.613 509.7 351.613H558.4C564 351.613 568.5 347.113 568.5 341.513V221.713C568.6 216.113 564 211.613 558.4 211.613Z" fill="#009DD7"/>
<path d="M565.9 223.913V343.712C565.9 346.212 565 348.613 563.4 350.413C562.5 351.513 561.3 352.312 560 352.913C558.7 353.513 557.3 353.812 555.8 353.812H507.1C505.8 353.812 504.5 353.513 503.2 353.013C502 352.513 500.9 351.712 499.9 350.812C499 349.913 498.2 348.713 497.7 347.513C497.2 346.313 496.9 345.012 496.9 343.612V223.913C496.9 222.113 497.4 220.312 498.3 218.712C499.2 217.112 500.5 215.812 502.1 215.012C503.6 214.212 505.2 213.812 506.9 213.812H555.6C558.3 213.812 560.9 214.913 562.8 216.812C564.8 218.613 565.9 221.213 565.9 223.913Z" fill="url(#paint6_linear)"/>
<path d="M558.8 228.113H504C502.7 228.113 501.6 229.213 501.6 230.513V333.813C501.6 335.113 502.7 336.213 504 336.213H558.8C560.1 336.213 561.2 335.113 561.2 333.813V230.513C561.2 229.113 560.1 228.113 558.8 228.113Z" fill="#D3DDF8"/>
<path d="M531.4 350.212C534.4 350.212 536.9 347.712 536.9 344.712C536.9 341.712 534.4 339.212 531.4 339.212C528.4 339.212 525.9 341.712 525.9 344.712C525.9 347.712 528.3 350.212 531.4 350.212Z" fill="white"/>
<path d="M522.6 221.113C522.6 221.413 522.5 221.813 522.3 222.113C522.1 222.413 521.8 222.612 521.5 222.712C521.2 222.812 520.8 222.912 520.5 222.812C520.2 222.713 519.8 222.612 519.6 222.312C519.4 222.112 519.2 221.713 519.1 221.413C519 221.113 519.1 220.713 519.2 220.413C519.3 220.113 519.6 219.813 519.8 219.613C520.1 219.413 520.4 219.312 520.8 219.312C521.3 219.312 521.7 219.512 522 219.812C522.4 220.212 522.6 220.713 522.6 221.113Z" fill="white"/>
<path d="M536.6 222.212H526.2C525.9 222.212 525.6 222.112 525.4 221.912C525.2 221.712 525.1 221.412 525.1 221.112C525.1 220.812 525.2 220.512 525.4 220.312C525.6 220.112 525.9 220.012 526.2 220.012H536.6C536.9 220.012 537.2 220.112 537.4 220.312C537.6 220.512 537.7 220.812 537.7 221.112C537.7 221.412 537.6 221.712 537.4 221.912C537.2 222.112 536.9 222.212 536.6 222.212Z" fill="white"/>
<path d="M558.8 228.113H504C502.7 228.113 501.6 229.213 501.6 230.513V333.813C501.6 335.113 502.7 336.213 504 336.213H558.8C560.1 336.213 561.2 335.113 561.2 333.813V230.513C561.2 229.113 560.1 228.113 558.8 228.113Z" fill="#E9F7FE"/>
<path d="M532 255.213C533.7 247.713 529.1 240.313 521.6 238.513C514.1 236.813 506.7 241.413 504.9 248.913C503.2 256.413 507.8 263.813 515.3 265.613C522.8 267.313 530.2 262.713 532 255.213Z" fill="white"/>
<path d="M554.2 250.712H542.1C540.7 250.712 539.5 251.812 539.5 253.312V257.312C539.5 258.712 540.6 259.912 542.1 259.912H554.2C555.6 259.912 556.8 258.812 556.8 257.312V253.312C556.8 251.812 555.6 250.712 554.2 250.712Z" fill="#C2C2C2"/>
<path d="M548.8 320.212C552.5 320.212 555.5 317.213 555.5 313.513C555.5 309.813 552.5 306.812 548.8 306.812C545.1 306.812 542.1 309.813 542.1 313.513C542.1 317.213 545.1 320.212 548.8 320.212Z" fill="#C2C2C2"/>
<path d="M504.4 312.612V314.513C504.4 315.513 504.8 316.512 505.5 317.212C506.2 317.912 507.2 318.312 508.2 318.312H532.1L537.2 321.712C537.3 321.812 537.4 321.812 537.5 321.812C537.6 321.812 537.7 321.812 537.8 321.712C537.9 321.612 537.9 321.613 537.9 321.513C537.9 321.413 537.9 321.312 537.9 321.212L536.4 317.913C537 317.613 537.5 317.113 537.9 316.513C538.3 315.913 538.5 315.213 538.5 314.513V312.612C538.5 311.612 538.1 310.613 537.4 309.913C536.7 309.213 535.7 308.812 534.7 308.812H508.2C507.2 308.812 506.2 309.213 505.5 309.913C504.8 310.613 504.4 311.612 504.4 312.612Z" fill="#C2C2C2"/>
<path d="M512.3 293.712C516 293.712 519 290.713 519 287.013C519 283.313 516 280.312 512.3 280.312C508.6 280.312 505.6 283.313 505.6 287.013C505.6 290.713 508.6 293.712 512.3 293.712Z" fill="#00BAFF"/>
<path d="M556.6 286.012V287.912C556.6 288.912 556.2 289.912 555.5 290.612C554.8 291.312 553.8 291.712 552.8 291.712H528.9L523.8 295.112C523.7 295.212 523.6 295.212 523.5 295.212C523.4 295.212 523.3 295.212 523.2 295.112C523.1 295.012 523.1 295.012 523.1 294.912C523.1 294.812 523.1 294.712 523.1 294.612L524.6 291.312C524 291.012 523.5 290.512 523.1 289.912C522.7 289.312 522.5 288.612 522.5 287.912V286.012C522.5 285.012 522.9 284.012 523.6 283.312C524.3 282.612 525.3 282.212 526.3 282.212H552.8C553.8 282.212 554.8 282.612 555.5 283.312C556.2 284.112 556.6 285.012 556.6 286.012Z" fill="#00BAFF"/>
<path opacity="0.1" d="M530.4 252.312V255.913C530.4 256.813 530.2 257.713 529.9 258.613C529.5 259.513 529 260.213 528.4 260.913C527.8 261.613 527 262.113 526.1 262.413C525.2 262.813 524.3 262.913 523.4 262.913H509.8H501.6H499.7H497V245.312H499.7H501.6H506.4H523.5C525.4 245.312 527.1 246.013 528.5 247.413C529.6 248.713 530.4 250.412 530.4 252.312Z" fill="black"/>
<path d="M529.3 250.313V253.913C529.3 254.813 529.1 255.713 528.8 256.613C528.4 257.513 527.9 258.213 527.3 258.913C526.6 259.613 525.9 260.113 525 260.413C524.1 260.813 523.2 260.913 522.3 260.913H477.9L468.5 267.213C468.4 267.313 468.2 267.313 468 267.313C467.8 267.313 467.7 267.213 467.5 267.113C467.4 267.013 467.3 266.813 467.2 266.713C467.2 266.513 467.2 266.413 467.2 266.213L469.9 260.113C468.7 259.513 467.8 258.613 467.1 257.513C466.4 256.413 466.1 255.113 466.1 253.813V250.213C466.1 248.313 466.8 246.613 468.2 245.213C469.5 243.913 471.3 243.113 473.2 243.213H522.2C524.1 243.213 525.8 243.913 527.2 245.313C528.5 246.613 529.3 248.413 529.3 250.313Z" fill="#00BAFF"/>
<path d="M245.5 239.112C245.5 238.212 244.6 237.512 243.5 237.512H170.5C169.4 237.512 168.5 238.212 168.5 239.112C168.5 240.012 169.4 240.712 170.5 240.712H243.5C244.6 240.712 245.5 240.012 245.5 239.112Z" fill="white"/>
<path d="M401.8 273.812C401.8 272.912 400.9 272.212 399.8 272.212H169.9C168.8 272.212 167.9 272.912 167.9 273.812C167.9 274.712 168.8 275.412 169.9 275.412H399.8C400.9 275.312 401.8 274.612 401.8 273.812Z" fill="white"/>
<path d="M401.8 289.013C401.8 288.113 400.9 287.413 399.8 287.413H169.9C168.8 287.413 167.9 288.113 167.9 289.013C167.9 289.913 168.8 290.613 169.9 290.613H399.8C400.9 290.513 401.8 289.813 401.8 289.013Z" fill="white"/>
<path d="M401.8 304.213C401.8 303.313 400.9 302.613 399.8 302.613H169.9C168.8 302.613 167.9 303.313 167.9 304.213C167.9 305.113 168.8 305.813 169.9 305.813H399.8C400.9 305.713 401.8 305.013 401.8 304.213Z" fill="white"/>
<path d="M517.7 251.812C517.7 250.912 516.8 250.212 515.7 250.212H481.4C480.3 250.212 479.4 250.912 479.4 251.812C479.4 252.712 480.3 253.412 481.4 253.412H515.7C516.8 253.412 517.7 252.712 517.7 251.812Z" fill="white"/>
<path d="M574.499 158.413C574.499 158.413 573.499 158.413 571.799 158.513L571.699 156.713C573.499 156.613 574.399 156.613 574.399 156.613L574.499 158.413Z" fill="url(#paint7_linear)"/>
<path d="M474.599 225.312L473.199 224.912C473.499 222.712 473.999 220.512 474.699 218.312L475.999 219.112C475.299 221.112 474.799 223.212 474.599 225.312ZM478.299 213.412L477.099 212.412C478.099 210.612 479.099 208.812 480.299 207.112L481.299 208.312C480.299 209.912 479.299 211.612 478.299 213.412ZM515.499 207.712C515.199 207.712 514.799 207.812 514.499 207.812L514.299 206.012C515.999 205.812 517.699 205.512 519.399 204.912L519.799 206.612C518.399 207.112 516.999 207.512 515.499 207.712ZM508.999 207.512C506.999 207.112 505.199 206.212 503.599 204.912L504.299 203.512C505.699 204.612 507.299 205.412 509.099 205.812L508.999 207.512ZM524.799 204.112L524.099 202.612C525.599 201.612 526.799 200.212 527.599 198.512L528.799 199.412C527.899 201.312 526.499 202.912 524.799 204.112ZM485.099 203.812L484.199 202.412C485.499 201.012 486.899 199.612 488.399 198.412L489.199 199.912C487.799 201.112 486.399 202.412 485.099 203.812ZM501.799 198.412L500.399 198.612C500.199 196.212 500.399 193.812 501.099 191.512L502.399 192.212C501.799 194.212 501.599 196.312 501.799 198.412ZM527.299 192.912C526.499 191.212 525.099 189.912 523.399 189.212L523.799 187.512C525.899 188.412 527.599 190.012 528.499 192.012L527.299 192.912ZM493.599 196.512L492.899 194.912C494.399 193.812 495.999 192.912 497.599 192.012L498.199 193.612C496.599 194.512 495.099 195.512 493.599 196.512ZM502.999 191.312L502.499 189.612C504.199 188.912 505.899 188.312 507.599 187.812L507.999 189.512C506.299 190.012 504.599 190.612 502.999 191.312ZM518.299 188.112C516.699 188.012 515.099 188.112 513.499 188.312L513.099 188.412L512.899 186.712L513.299 186.612C514.899 186.412 516.599 186.312 518.299 186.412V188.112ZM504.699 186.512L503.499 185.512C504.399 183.712 505.599 181.912 506.799 180.312L507.799 181.612C506.599 183.112 505.499 184.712 504.699 186.512ZM511.699 177.412L510.899 175.912C512.299 174.612 513.799 173.412 515.299 172.312L515.999 173.912C514.499 174.912 513.099 176.112 511.699 177.412ZM520.599 171.012L519.999 169.412C521.499 168.512 523.199 167.712 524.899 166.912L525.399 168.612C523.699 169.312 522.099 170.112 520.599 171.012ZM530.299 166.512L529.799 164.812C531.399 164.212 533.099 163.612 534.899 163.012L535.299 164.712C533.599 165.312 531.899 165.912 530.299 166.512ZM540.499 163.212L540.099 161.512C541.799 161.012 543.599 160.612 545.299 160.212L545.599 161.912C543.899 162.312 542.199 162.812 540.499 163.212ZM566.499 158.912C564.899 159.012 563.199 159.212 561.199 159.412L560.999 157.712C562.899 157.512 564.699 157.312 566.299 157.212L566.499 158.912ZM550.799 160.912L550.499 159.212C552.299 158.912 554.099 158.612 555.799 158.312L555.999 160.012C554.299 160.312 552.599 160.612 550.799 160.912Z" fill="url(#paint8_linear)"/>
<path d="M473.301 234.413C473.101 232.813 472.901 231.213 472.801 229.613H474.601C474.701 231.113 474.901 232.613 475.101 234.113L473.301 234.413Z" fill="url(#paint9_linear)"/>
<path d="M600.501 167.612L599.501 159.912L580.301 157.212L600.501 167.612Z" fill="#C2C2C2"/>
<path d="M597.1 162.512L600.5 167.612L580.4 157.212L597.1 162.512Z" fill="url(#paint10_linear)"/>
<path d="M580.4 157.212L589.8 171.812L597.1 162.612L580.4 157.212Z" fill="url(#paint11_linear)"/>
<path d="M599.501 159.913L606.401 156.613L580.301 157.213L599.501 159.913Z" fill="url(#paint12_linear)"/>
<path d="M493.8 152.612V182.312C493.8 183.212 493.6 184.012 493.2 184.812C492.8 185.612 492.3 186.312 491.7 186.912C491.1 187.512 490.3 187.912 489.5 188.212C488.7 188.512 487.8 188.612 487 188.612H322.6L292.4 210.612C292.2 210.712 292 210.812 291.8 210.712C291.6 210.712 291.4 210.612 291.2 210.412C291 210.312 290.9 210.112 290.9 209.912C290.9 209.712 290.9 209.512 291 209.312L297.7 188.512H298.5C297.6 188.512 296.8 188.412 296 188.112C295.2 187.812 294.4 187.312 293.8 186.812C293.2 186.212 292.6 185.512 292.3 184.712C292 183.912 291.7 183.112 291.7 182.212V152.512C291.8 150.812 292.5 149.112 293.8 147.912C295.1 146.712 296.8 146.112 298.5 146.212H486.9C488.1 146.212 489.3 146.512 490.3 147.012C491.3 147.612 492.2 148.412 492.8 149.412C493.5 150.412 493.8 151.512 493.8 152.612Z" fill="url(#paint13_linear)"/>
<path opacity="0.7" d="M329.8 154.813L332.5 163.213C332.5 163.313 332.6 163.413 332.7 163.513C332.8 163.613 332.9 163.613 333.1 163.613H342C342.1 163.613 342.3 163.613 342.4 163.713C342.5 163.813 342.6 163.913 342.6 164.013C342.6 164.113 342.6 164.313 342.6 164.413C342.6 164.513 342.5 164.613 342.4 164.713L335.2 169.913C335.1 170.013 335 170.113 335 170.213C335 170.313 335 170.513 335 170.613L337.7 179.013C337.7 179.113 337.7 179.313 337.7 179.413C337.7 179.513 337.6 179.613 337.5 179.713C337.4 179.813 337.3 179.813 337.1 179.813C337 179.813 336.8 179.813 336.7 179.713L329.5 174.513C329.4 174.413 329.3 174.413 329.1 174.413C329 174.413 328.8 174.413 328.7 174.513L321.5 179.713C321.4 179.813 321.3 179.813 321.1 179.813C321 179.813 320.8 179.813 320.7 179.713C320.6 179.613 320.5 179.513 320.5 179.413C320.5 179.313 320.5 179.113 320.5 179.013L323.2 170.613C323.2 170.513 323.2 170.313 323.2 170.213C323.2 170.113 323.1 170.013 323 169.913L315.8 164.713C315.7 164.613 315.6 164.513 315.6 164.413C315.6 164.313 315.6 164.113 315.6 164.013C315.6 163.913 315.7 163.813 315.8 163.713C315.9 163.613 316 163.613 316.2 163.613H325.1C325.2 163.613 325.4 163.613 325.5 163.513C325.6 163.413 325.7 163.313 325.7 163.213L328.4 154.813C328.4 154.713 328.5 154.613 328.6 154.513C328.7 154.413 328.8 154.413 329 154.413C329.1 154.413 329.3 154.413 329.4 154.513C329.6 154.613 329.7 154.713 329.8 154.813Z" fill="url(#paint14_linear)"/>
<path opacity="0.75" d="M362.2 154.813L364.9 163.213C364.9 163.313 365 163.413 365.1 163.513C365.2 163.613 365.3 163.613 365.5 163.613H374.4C374.5 163.613 374.7 163.613 374.8 163.713C374.9 163.813 375 163.913 375 164.013C375 164.113 375 164.313 375 164.413C375 164.513 374.9 164.613 374.8 164.713L367.6 169.913C367.5 170.013 367.4 170.113 367.4 170.213C367.4 170.313 367.4 170.513 367.4 170.613L370.1 179.013C370.1 179.113 370.1 179.313 370.1 179.413C370.1 179.513 370 179.613 369.9 179.713C369.8 179.813 369.7 179.813 369.5 179.813C369.4 179.813 369.2 179.813 369.1 179.713L361.9 174.513C361.8 174.413 361.7 174.413 361.5 174.413C361.4 174.413 361.2 174.413 361.1 174.513L353.9 179.713C353.8 179.813 353.7 179.813 353.5 179.813C353.4 179.813 353.2 179.813 353.1 179.713C353 179.613 352.9 179.513 352.9 179.413C352.9 179.313 352.9 179.113 352.9 179.013L355.6 170.613C355.6 170.513 355.6 170.313 355.6 170.213C355.6 170.113 355.5 170.013 355.4 169.913L348.2 164.713C348.1 164.613 348 164.513 348 164.413C348 164.313 348 164.113 348 164.013C348 163.913 348.1 163.813 348.2 163.713C348.3 163.613 348.4 163.613 348.6 163.613H357.5C357.6 163.613 357.8 163.613 357.9 163.513C358 163.413 358.1 163.313 358.1 163.213L360.8 154.813C360.8 154.713 360.9 154.613 361 154.513C361.1 154.413 361.2 154.413 361.4 154.413C361.6 154.413 361.6 154.413 361.8 154.513C362.1 154.613 362.2 154.713 362.2 154.813Z" fill="url(#paint15_linear)"/>
<path opacity="0.75" d="M394.7 154.813L397.4 163.213C397.4 163.313 397.5 163.413 397.6 163.513C397.7 163.613 397.8 163.613 398 163.613H406.9C407 163.613 407.2 163.613 407.3 163.713C407.4 163.813 407.5 163.913 407.5 164.013C407.5 164.113 407.5 164.313 407.5 164.413C407.5 164.513 407.4 164.613 407.3 164.713L400.1 169.913C400 170.013 399.9 170.113 399.9 170.213C399.9 170.313 399.9 170.513 399.9 170.613L402.6 179.013C402.6 179.113 402.6 179.313 402.6 179.413C402.6 179.513 402.5 179.613 402.4 179.713C402.3 179.813 402.2 179.813 402 179.813C401.9 179.813 401.7 179.813 401.6 179.713L394.4 174.513C394.3 174.413 394.2 174.413 394 174.413C393.9 174.413 393.7 174.413 393.6 174.513L386.4 179.713C386.3 179.813 386.2 179.813 386 179.813C385.9 179.813 385.7 179.813 385.6 179.713C385.5 179.613 385.4 179.513 385.4 179.413C385.4 179.313 385.4 179.113 385.4 179.013L388.1 170.613C388.1 170.513 388.1 170.313 388.1 170.213C388.1 170.113 388 170.013 387.9 169.913L380.7 164.713C380.6 164.613 380.5 164.513 380.5 164.413C380.5 164.313 380.5 164.113 380.5 164.013C380.5 163.913 380.6 163.813 380.7 163.713C380.8 163.613 380.9 163.613 381.1 163.613H390C390.1 163.613 390.3 163.613 390.4 163.513C390.5 163.413 390.6 163.313 390.6 163.213L393.3 154.813C393.3 154.713 393.4 154.613 393.5 154.513C393.6 154.413 393.7 154.413 393.9 154.413C394 154.413 394.1 154.413 394.3 154.513C394.5 154.613 394.6 154.713 394.7 154.813Z" fill="url(#paint16_linear)"/>
<path opacity="0.76" d="M426.3 154.612L429 163.012C429 163.112 429.1 163.212 429.2 163.312C429.3 163.412 429.4 163.412 429.6 163.412H438.5C438.6 163.412 438.8 163.412 438.9 163.512C439 163.612 439.1 163.712 439.1 163.812C439.1 163.912 439.1 164.112 439.1 164.212C439.1 164.312 439 164.412 438.9 164.512L431.7 169.712C431.6 169.812 431.5 169.912 431.5 170.012C431.5 170.112 431.5 170.312 431.5 170.412L434.2 178.812C434.2 178.912 434.2 179.112 434.2 179.212C434.2 179.312 434.1 179.412 434 179.512C433.9 179.612 433.8 179.612 433.6 179.612C433.5 179.612 433.3 179.612 433.2 179.512L426 174.312C425.9 174.212 425.8 174.212 425.6 174.212C425.5 174.212 425.3 174.212 425.2 174.312L418 179.512C417.9 179.612 417.8 179.612 417.6 179.612C417.5 179.612 417.3 179.612 417.2 179.512C417.1 179.412 417 179.312 417 179.212C417 179.112 417 178.912 417 178.812L419.7 170.412C419.7 170.312 419.7 170.112 419.7 170.012C419.7 169.912 419.6 169.812 419.5 169.712L412.3 164.512C412.2 164.412 412.1 164.312 412.1 164.212C412.1 164.112 412.1 163.912 412.1 163.812C412.1 163.712 412.2 163.612 412.3 163.512C412.4 163.412 412.5 163.412 412.7 163.412H421.6C421.7 163.412 421.9 163.412 422 163.312C422.1 163.212 422.2 163.112 422.2 163.012L424.9 154.612C424.9 154.512 425 154.412 425.1 154.312C425.2 154.212 425.3 154.212 425.5 154.212C425.6 154.212 425.8 154.212 425.9 154.312C426.1 154.412 426.2 154.512 426.3 154.612Z" fill="url(#paint17_linear)"/>
<path opacity="0.77" d="M457.3 154.513L460 162.913C460 163.013 460.1 163.113 460.2 163.213C460.3 163.313 460.4 163.313 460.6 163.313H469.5C469.6 163.313 469.8 163.313 469.9 163.413C470 163.513 470.1 163.613 470.1 163.713C470.1 163.813 470.1 164.013 470.1 164.113C470.1 164.213 470 164.313 469.9 164.413L462.7 169.613C462.6 169.713 462.5 169.813 462.5 169.913C462.5 170.013 462.5 170.213 462.5 170.313L465.2 178.713C465.2 178.813 465.2 179.013 465.2 179.113C465.2 179.213 465.1 179.313 465 179.413C464.9 179.513 464.8 179.513 464.6 179.513C464.5 179.513 464.3 179.513 464.2 179.413L457 174.213C456.9 174.113 456.8 174.113 456.6 174.113C456.5 174.113 456.3 174.113 456.2 174.213L449 179.413C448.9 179.513 448.8 179.513 448.6 179.513C448.5 179.513 448.3 179.513 448.2 179.413C448.1 179.313 448 179.213 448 179.113C448 179.013 448 178.813 448 178.713L450.7 170.313C450.7 170.213 450.7 170.013 450.7 169.913C450.7 169.813 450.6 169.713 450.5 169.613L443.3 164.413C443.2 164.313 443.1 164.213 443.1 164.113C443.1 164.013 443.1 163.813 443.1 163.713C443.1 163.613 443.2 163.513 443.3 163.413C443.4 163.313 443.5 163.313 443.7 163.313H452.6C452.7 163.313 452.9 163.313 453 163.213C453.1 163.113 453.2 163.013 453.2 162.913L455.9 154.513C455.9 154.413 456 154.313 456.1 154.213C456.2 154.113 456.3 154.113 456.5 154.113C456.6 154.113 456.8 154.113 456.9 154.213C457.2 154.313 457.3 154.413 457.3 154.513Z" fill="url(#paint18_linear)"/>
<path d="M116.7 219.012H44.1001V221.812H116.7V219.012Z" fill="#8AB6C1"/>
<path d="M117.1 208.812H43.7998C42.1998 208.812 40.7998 210.112 40.7998 211.812V214.712C40.7998 216.312 42.0998 217.712 43.7998 217.712H117.1C118.7 217.712 120.1 216.412 120.1 214.712V211.812C120.1 210.112 118.7 208.812 117.1 208.812Z" fill="#D1EEFC"/>
<path d="M44.0998 219.013L43.7998 217.613H117.1L116.7 219.013H44.0998Z" fill="#E6F4FC"/>
<path d="M115.7 194.312H45.1998C42.7998 194.312 40.7998 196.312 40.7998 198.712V201.812C40.7998 204.212 42.7998 206.212 45.1998 206.212H115.7C118.1 206.212 120.1 204.212 120.1 201.812V198.712C120.1 196.312 118.1 194.312 115.7 194.312Z" fill="url(#paint19_linear)"/>
<path d="M114.3 206.212H46.5V208.812H114.3V206.212Z" fill="#8AB6C1"/>
<path d="M69.3 206.212H46.5V208.812H69.3V206.212Z" fill="#68949B"/>
<path d="M84.2001 206.212H71.1001V208.812H84.2001V206.212Z" fill="#68949B"/>
<path d="M88.3001 206.212H86.6001V208.812H88.3001V206.212Z" fill="#68949B"/>
<path d="M91.5999 206.212H89.8999V208.812H91.5999V206.212Z" fill="#68949B"/>
<path d="M106.1 206.212H93.2998V208.812H106.1V206.212Z" fill="#68949B"/>
<path d="M102.6 213.212C102.6 213.312 102.6 213.413 102.5 213.613C102.5 213.713 102.4 213.813 102.3 213.913C102.2 214.013 102.1 214.113 102 214.113C101.9 214.113 101.8 214.212 101.6 214.212H40.7998V212.312H101.6C101.7 212.312 101.8 212.313 102 212.413C102.1 212.413 102.2 212.513 102.3 212.613C102.4 212.713 102.5 212.813 102.5 212.913C102.5 213.013 102.6 213.112 102.6 213.212Z" fill="#AAD6E2"/>
<path d="M130.2 359.013C130.2 359.413 129.3 359.812 127.6 360.112C126.5 360.312 125.2 360.512 123.5 360.812C114.9 361.912 98.7999 362.612 80.4999 362.612C62.1999 362.612 45.9999 361.912 37.4999 360.812C35.8999 360.613 34.4999 360.412 33.3999 360.112C32.0999 359.812 31.2999 359.512 30.9999 359.212L30.8999 359.112C30.8999 359.012 30.8999 359.013 30.8999 358.913C30.8999 356.913 53.1999 355.312 80.5999 355.312C108 355.312 130.2 357.013 130.2 359.013Z" fill="#AAD6E2"/>
<path d="M120.099 212.213V214.113H108.699C108.499 214.113 108.199 214.013 107.999 213.813C107.799 213.613 107.699 213.413 107.699 213.113C107.699 212.813 107.799 212.613 107.999 212.413C108.199 212.213 108.399 212.113 108.699 212.113H120.099V212.213Z" fill="#AAD6E2"/>
<path d="M58.2998 199.813C58.2998 199.913 58.2998 200.013 58.3998 200.213C58.3998 200.313 58.4998 200.413 58.5998 200.513C58.6998 200.613 58.7998 200.713 58.8998 200.713C58.9998 200.713 59.0998 200.813 59.2998 200.813H120.1V198.913H59.2998C59.1998 198.913 59.0998 198.913 58.8998 199.013C58.7998 199.013 58.6998 199.113 58.5998 199.213C58.4998 199.313 58.3998 199.413 58.3998 199.513C58.2998 199.613 58.2998 199.713 58.2998 199.813Z" fill="white"/>
<path d="M40.7998 198.913V200.812H52.1998C52.3998 200.812 52.6998 200.712 52.8998 200.512C53.0998 200.312 53.1998 200.112 53.1998 199.812C53.1998 199.613 53.0998 199.313 52.8998 199.113C52.6998 198.913 52.4998 198.812 52.1998 198.812H40.7998V198.913Z" fill="white"/>
<path d="M90.4998 353.013L62.7998 365.213L65.9998 358.013L55.7998 356.713L83.2998 344.613L90.4998 353.013Z" fill="#E6F4FC"/>
<path d="M82.3001 335.213L47.6001 332.413L56.7001 337.813L48.9001 341.813L83.3001 344.613L82.3001 335.213Z" fill="#E6F4FC"/>
<path d="M93.3997 323.112C92.2997 323.312 90.4997 320.512 89.4997 320.812C88.3997 321.112 88.3997 324.412 87.3997 324.812C86.3997 325.312 83.8997 323.112 82.9997 323.712C82.0997 324.312 83.0997 327.412 82.2997 328.212C81.4997 329.012 78.3997 327.812 77.7997 328.712C77.1997 329.612 79.3997 332.012 78.9997 333.112C78.5997 334.112 75.2997 334.412 75.1997 335.512C74.9997 336.612 78.0997 337.812 78.1997 338.912C78.2997 340.012 75.3997 341.612 75.6997 342.712C75.9997 343.712 79.2997 343.712 79.6997 344.712C80.2997 345.912 78.1997 348.612 78.9997 349.712C79.6997 350.812 82.9997 349.812 83.8997 350.812C84.7997 351.712 83.6997 354.912 84.6997 355.812C85.6997 356.612 88.5997 354.912 89.6997 355.612C90.7997 356.312 90.4997 359.612 91.6997 360.212C92.8997 360.812 95.2997 358.412 96.4997 358.812C97.6997 359.212 98.1997 362.612 99.4997 362.912C100.8 363.212 102.6 360.412 103.9 360.512C105.2 360.612 106.4 363.812 107.7 363.812C109 363.812 110.1 360.612 111.4 360.412C112.5 360.212 114.3 363.012 115.3 362.712C116.4 362.412 116.4 359.112 117.4 358.712C118.4 358.212 120.9 360.412 121.8 359.812C122.7 359.212 121.7 356.112 122.5 355.312C123.3 354.512 126.4 355.712 127 354.812C127.6 353.912 125.4 351.512 125.8 350.412C126.2 349.412 129.5 349.112 129.6 348.012C129.8 346.912 126.7 345.712 126.6 344.612C126.5 343.512 129.4 341.912 129.1 340.812C128.8 339.812 125.5 339.812 125.1 338.812C124.5 337.612 126.6 334.912 125.8 333.812C125.1 332.712 121.8 333.712 120.9 332.712C120 331.812 121.1 328.612 120.1 327.712C119.1 326.912 116.2 328.612 115.1 327.912C114 327.212 114.3 323.912 113.1 323.312C111.9 322.712 109.5 325.112 108.3 324.712C107.1 324.312 106.6 320.912 105.3 320.612C104 320.312 102.2 323.112 100.9 323.012C99.5997 322.912 98.3997 319.712 97.0997 319.712C95.7997 319.712 94.6997 322.912 93.3997 323.112Z" fill="#68949B"/>
<path d="M119.2 347.612C121.6 340.812 116 332.612 106.8 329.412C97.6 326.212 88.1 329.112 85.8 335.912C83.4 342.712 89 350.912 98.2 354.112C107.4 357.312 116.8 354.412 119.2 347.612Z" fill="#BDE5EF"/>
<path d="M111.2 339.913L105.1 338.613C104.9 338.613 104.7 338.413 104.6 338.313L101.6 333.713C101.3 333.313 100.6 333.213 100.4 333.613L98.0001 337.613C97.9001 337.713 97.9001 337.713 97.8001 337.813C97.7001 337.813 97.6001 337.913 97.5001 337.913H91.5001C91.0001 337.913 90.8001 338.413 91.2001 338.813L95.8001 342.613C95.9001 342.713 95.9001 342.713 96.0001 342.813C96.0001 342.913 96.1001 343.013 96.0001 343.113L95.3001 347.713C95.2001 348.113 95.8001 348.513 96.3001 348.413L101.5 346.813C101.7 346.713 101.9 346.813 102.1 346.913L107.6 349.713C108.1 350.013 108.7 349.713 108.5 349.213L107.1 344.413C107.1 344.313 107.1 344.213 107.1 344.113C107.1 344.013 107.2 344.013 107.3 343.913L111.4 341.013C112 340.613 111.8 340.013 111.2 339.913Z" fill="#8AB6C1"/>
<path d="M50.2998 338.712C50.2998 338.712 51.3998 345.512 55.5998 352.712C59.6998 359.812 73.5998 364.212 73.5998 364.212L68.6998 357.212L79.0998 358.712C79.0998 358.712 68.1998 354.212 66.0998 350.512C63.9998 346.812 62.4998 337.512 62.4998 337.512L50.2998 338.712Z" fill="#8AB6C1"/>
<path d="M62.1001 337.013C62.1001 337.013 65.3001 343.113 71.7001 348.613C77.9001 354.013 92.4001 353.813 92.4001 353.813L85.5001 348.713L95.9001 346.813C95.9001 346.813 84.1001 346.013 80.9001 343.213C77.7001 340.413 73.4001 332.113 73.4001 332.113L62.1001 337.013Z" fill="#8AB6C1"/>
<path d="M76.2999 313.012C76.6999 314.112 74.1999 316.212 74.4999 317.312C74.7999 318.512 77.9999 319.012 78.1999 320.112C78.3999 321.312 75.4999 322.712 75.4999 323.812C75.4999 325.012 78.4999 326.312 78.2999 327.412C78.1999 328.612 74.9999 329.212 74.6999 330.312C74.3999 331.512 76.7999 333.612 76.1999 334.612C75.6999 335.712 72.4999 335.112 71.7999 336.012C71.0999 336.912 72.3999 339.912 71.4999 340.612C70.5999 341.312 67.9999 339.412 66.9999 339.912C65.9999 340.412 65.7999 343.612 64.5999 343.812C63.2999 344.112 61.7999 341.212 60.4999 341.212C59.1999 341.212 57.5999 344.012 56.2999 343.712C55.0999 343.412 54.6999 340.212 53.4999 339.712C52.2999 339.212 49.7999 341.312 48.6999 340.712C47.5999 340.112 48.1999 336.812 47.1999 336.012C46.1999 335.212 43.1999 336.612 42.2999 335.712C41.3999 334.812 42.6999 331.812 41.8999 330.812C41.0999 329.812 37.8999 330.512 37.1999 329.512C36.4999 328.412 38.4999 325.812 37.8999 324.612C37.2999 323.512 33.9999 323.512 33.5999 322.312C33.1999 321.212 35.6999 319.112 35.3999 318.012C35.0999 316.812 31.8999 316.312 31.6999 315.212C31.4999 314.012 34.3999 312.612 34.3999 311.512C34.3999 310.312 31.3999 309.012 31.5999 307.912C31.6999 306.712 34.8999 306.112 35.1999 305.012C35.4999 303.812 33.0999 301.712 33.6999 300.712C34.1999 299.612 37.3999 300.212 38.0999 299.312C38.7999 298.412 37.4999 295.412 38.3999 294.712C39.2999 294.012 41.8999 295.912 42.8999 295.412C43.8999 294.912 44.0999 291.712 45.2999 291.512C46.5999 291.212 48.0999 294.112 49.3999 294.112C50.6999 294.112 52.2999 291.312 53.5999 291.612C54.7999 291.912 55.1999 295.112 56.3999 295.612C57.5999 296.112 60.0999 294.012 61.1999 294.612C62.2999 295.212 61.6999 298.512 62.6999 299.312C63.6999 300.112 66.6999 298.712 67.5999 299.612C68.4999 300.512 67.1999 303.512 67.9999 304.512C68.7999 305.512 71.9999 304.812 72.6999 305.812C73.3999 306.912 71.3999 309.512 71.9999 310.712C72.5999 311.812 75.7999 311.812 76.2999 313.012Z" fill="#68949B"/>
<path d="M64.5001 332.812C70.7001 328.912 71.4001 318.913 66.0001 310.513C60.7001 302.113 51.3001 298.513 45.2001 302.513C39.0001 306.413 38.3001 316.412 43.7001 324.812C49.0001 333.112 58.4001 336.712 64.5001 332.812Z" fill="#8AB6C1"/>
<path d="M51.8998 308.413L55.9998 313.213C56.0998 313.313 56.0998 313.313 56.1998 313.413C56.2998 313.413 56.3998 313.513 56.4998 313.513L61.4998 313.413C61.9998 313.413 62.3998 314.013 62.1998 314.413L60.3998 319.213C60.3998 319.313 60.3998 319.413 60.3998 319.513C60.3998 319.613 60.3998 319.713 60.4998 319.813L63.4998 325.413C63.7998 325.913 63.4998 326.413 62.9998 326.213L57.7998 324.313C57.6998 324.313 57.5998 324.313 57.4998 324.313C57.3998 324.313 57.2998 324.413 57.2998 324.413L54.0998 328.013C53.7998 328.313 53.1998 328.013 53.0998 327.513L51.6998 321.613C51.5998 321.413 51.4998 321.213 51.2998 321.113L46.3998 317.713C45.8998 317.413 45.8998 316.713 46.2998 316.513L50.6998 314.713C50.7998 314.713 50.8998 314.613 50.8998 314.513C50.8998 314.413 50.9998 314.313 50.9998 314.213L51.0998 308.513C50.8998 308.113 51.4998 307.913 51.8998 308.413Z" fill="#BDE5EF"/>
<path d="M96.1998 309.813C96.1998 309.813 91.9998 315.213 84.7998 319.613C77.7998 323.813 63.4998 321.113 63.4998 321.113L71.1998 317.313L61.2998 313.613C61.2998 313.613 72.9998 314.913 76.6998 312.613C80.2998 310.413 86.0998 302.913 86.0998 302.913L96.1998 309.813Z" fill="#D7F0F9"/>
<path d="M86.7 302.712C86.7 302.712 81 306.512 72.7 308.312C64.7 310.012 52 302.912 52 302.912L60.5 301.812L52.3 295.112C52.3 295.112 63 300.112 67.2 299.112C71.3 298.112 79.2 293.012 79.2 293.012L86.7 302.712Z" fill="#D7F0F9"/>
<path d="M87.7997 277.112C86.8997 277.912 83.8997 276.512 83.1997 277.312C82.3997 278.212 83.8997 281.012 83.1997 281.912C82.4997 282.912 79.2997 282.112 78.6997 283.112C78.0997 284.112 80.2997 286.512 79.8997 287.612C79.3997 288.712 76.1997 288.912 75.8997 290.012C75.5997 291.212 78.4997 292.712 78.3997 293.912C78.2997 295.112 75.3997 296.412 75.5997 297.612C75.7997 298.812 78.9997 299.012 79.4997 300.112C79.8997 301.212 77.8997 303.712 78.5997 304.612C79.2997 305.512 82.2997 304.312 83.1997 305.112C84.1997 305.912 83.5997 309.212 84.6997 309.812C85.7997 310.412 88.1997 308.012 89.3997 308.412C90.5997 308.812 91.2997 312.012 92.5997 312.112C93.8997 312.212 95.2997 309.312 96.5997 309.212C97.8997 309.212 99.3997 312.112 100.7 311.912C102 311.712 102.6 308.512 103.8 308.112C105 307.812 107.2 310.212 108.4 309.712C109.6 309.212 109.5 305.912 110.6 305.312C111.7 304.712 114.4 306.612 115.5 305.912C116.6 305.212 115.7 302.012 116.7 301.112C117.6 300.312 120.6 301.712 121.3 300.912C122.1 300.012 120.6 297.212 121.3 296.312C122 295.312 125.2 296.112 125.8 295.112C126.4 294.112 124.2 291.712 124.6 290.612C125.1 289.512 128.3 289.312 128.6 288.212C128.9 287.012 126 285.512 126.1 284.312C126.2 283.112 129.1 281.812 128.9 280.612C128.7 279.412 125.5 279.212 125 278.112C124.6 277.012 126.6 274.512 125.9 273.612C125.2 272.712 122.2 273.912 121.3 273.112C120.3 272.312 120.9 269.012 119.8 268.412C118.7 267.812 116.3 270.212 115.1 269.812C113.9 269.412 113.2 266.212 111.9 266.112C110.6 266.012 109.2 268.912 107.9 269.012C106.6 269.012 105.1 266.112 103.8 266.312C102.5 266.512 101.9 269.712 100.7 270.112C99.4997 270.412 97.2997 268.012 96.0997 268.512C94.8997 269.012 94.9997 272.312 93.8997 272.912C92.7997 273.512 90.0997 271.612 88.9997 272.312C87.8997 273.012 88.7997 276.212 87.7997 277.112Z" fill="#AAD6E2"/>
<path d="M108.7 300.812C117.4 296.012 121.6 286.912 118.1 280.512C114.6 274.112 104.7 272.812 95.9999 277.612C87.2999 282.412 83.0999 291.512 86.5999 297.912C90.0999 304.212 99.9999 305.512 108.7 300.812Z" fill="#BDE5EF"/>
<path d="M109.4 282.512L103.5 284.812C103.4 284.812 103.3 284.912 103.2 284.912C103.1 284.912 103 284.912 102.9 284.812L98.5997 282.312C98.1997 282.112 97.4997 282.412 97.4997 282.912L96.7997 288.012C96.7997 288.112 96.6997 288.212 96.6997 288.312C96.5997 288.412 96.5997 288.512 96.4997 288.512L91.1997 292.012C90.6997 292.312 90.6997 292.912 91.1997 293.012L96.6997 293.912C96.7997 293.912 96.8997 293.912 96.8997 294.012C96.9997 294.112 96.9997 294.112 96.9997 294.212L97.9997 298.912C98.0997 299.312 98.7997 299.312 99.0997 298.912L103.2 294.412C103.4 294.212 103.6 294.112 103.8 294.112L109.7 293.512C110.2 293.412 110.6 292.912 110.4 292.512L107.4 288.812C107.3 288.712 107.3 288.612 107.3 288.512C107.3 288.412 107.3 288.312 107.4 288.212L110 283.212C110.4 282.612 110 282.312 109.4 282.512Z" fill="#E6F4FC"/>
<path d="M51.6001 280.612C51.6001 280.612 52.9001 287.413 57.4001 294.513C61.8001 301.413 75.7001 305.513 75.7001 305.513L70.6001 298.712L81.1001 299.913C81.1001 299.913 70.1001 295.712 67.8001 292.112C65.6001 288.512 63.8001 279.312 63.8001 279.312L51.6001 280.612Z" fill="#8AB6C1"/>
<path d="M63.2998 278.612C63.2998 278.612 66.6998 284.613 73.1998 289.913C79.5998 295.113 94.0998 294.413 94.0998 294.413L87.0998 289.612L97.3998 287.312C97.3998 287.312 85.5998 286.912 82.2998 284.212C79.0998 281.412 74.3998 273.312 74.3998 273.312L63.2998 278.612Z" fill="#8AB6C1"/>
<path d="M76.6998 254.212C77.1998 255.312 74.6998 257.412 75.0998 258.512C75.3998 259.612 78.5998 260.112 78.7998 261.212C78.9998 262.412 76.1998 263.912 76.2998 265.012C76.3998 266.212 79.2998 267.412 79.1998 268.512C79.0998 269.712 75.9998 270.412 75.6998 271.512C75.3998 272.712 77.7998 274.712 77.3998 275.812C76.8998 276.912 73.7998 276.412 73.0998 277.312C72.3998 278.212 73.7998 281.112 72.8998 281.912C71.9998 282.612 69.3998 280.812 68.2998 281.412C67.2998 281.912 67.1998 285.112 65.9998 285.412C64.6998 285.712 63.0998 282.912 61.7998 282.912C60.4998 282.912 58.9998 285.812 57.6998 285.512C56.4998 285.312 55.9998 282.012 54.7998 281.612C53.5998 281.212 51.1998 283.312 49.9998 282.712C48.8998 282.112 49.3998 278.912 48.2998 278.112C47.2998 277.412 44.3998 278.812 43.3998 278.012C42.4998 277.112 43.6998 274.112 42.7998 273.112C41.9998 272.112 38.7998 273.012 38.0998 271.912C37.3998 270.912 39.1998 268.212 38.5998 267.012C37.9998 265.912 34.6998 266.012 34.1998 264.812C33.6998 263.712 36.1998 261.612 35.7998 260.512C35.4998 259.412 32.2998 258.912 32.0998 257.812C31.8998 256.612 34.6998 255.112 34.5998 254.012C34.4998 252.812 31.5998 251.612 31.6998 250.512C31.7998 249.312 34.8998 248.612 35.1998 247.512C35.4998 246.312 33.0998 244.312 33.4998 243.212C33.9998 242.112 37.0998 242.612 37.7998 241.712C38.4998 240.812 37.0998 237.912 37.9998 237.112C38.8998 236.412 41.4998 238.212 42.5998 237.612C43.5998 237.112 43.6998 233.912 44.8998 233.612C46.1998 233.312 47.7998 236.112 49.0998 236.112C50.3998 236.112 51.8998 233.312 53.1998 233.512C54.3998 233.712 54.8998 237.012 56.0998 237.412C57.2998 237.812 59.6998 235.712 60.8998 236.312C61.9998 236.912 61.4998 240.112 62.5998 240.912C63.5998 241.612 66.4998 240.212 67.4998 241.012C68.3998 241.912 67.1998 244.912 68.0998 245.912C68.8998 246.912 72.0998 246.012 72.7998 247.112C73.4998 248.112 71.6998 250.812 72.2998 252.012C72.9998 253.112 76.1998 253.012 76.6998 254.212Z" fill="#AAD6E2"/>
<path d="M65.5997 274.313C71.5997 270.213 71.9997 260.213 66.3997 252.013C60.7997 243.813 51.3997 240.513 45.2997 244.613C39.2997 248.713 38.8997 258.713 44.4997 266.913C50.0997 275.213 59.4997 278.513 65.5997 274.313Z" fill="#8AB6C1"/>
<path d="M52.1999 250.312L56.3999 255.012C56.4999 255.112 56.4999 255.112 56.5999 255.212C56.6999 255.212 56.7999 255.312 56.8999 255.312L61.8999 255.012C62.3999 255.012 62.7999 255.612 62.5999 256.012L60.8999 260.812C60.8999 260.912 60.8999 261.012 60.8999 261.112C60.8999 261.212 60.9999 261.312 60.9999 261.412L64.1999 266.912C64.4999 267.412 64.1999 267.912 63.6999 267.812L58.3999 266.112C58.2999 266.112 58.1999 266.112 58.0999 266.112C57.9999 266.112 57.8999 266.212 57.8999 266.212L54.8999 269.912C54.5999 270.212 53.9999 269.912 53.8999 269.412L52.2999 263.512C52.1999 263.312 52.0999 263.112 51.8999 263.012L46.8999 259.812C46.3999 259.512 46.2999 258.812 46.6999 258.612L50.9999 256.712C51.0999 256.712 51.0999 256.612 51.1999 256.512C51.1999 256.412 51.2999 256.312 51.2999 256.212L51.1999 250.512C51.1999 250.012 51.7999 249.912 52.1999 250.312Z" fill="#BDE5EF"/>
<path d="M88.8999 337.812L69.9999 362.013L70.4999 352.812L61.8999 355.312L80.5999 331.312L88.8999 337.812Z" fill="#BDE5EF"/>
<path d="M76.9997 321.512L48.1997 331.912L57.0997 334.312L51.9997 341.712L80.5997 331.412L76.9997 321.512Z" fill="#BDE5EF"/>
<path d="M82.7 303.413C81.7 304.113 79 302.813 78.2 303.613C77.3 304.513 78.6 307.113 77.9 308.113C77.2 309.113 74.2 308.713 73.7 309.713C73.2 310.813 75.2 312.913 74.8 314.013C74.4 315.113 71.5 315.713 71.3 316.813C71.1 318.013 73.7 319.413 73.7 320.613C73.7 321.813 71.1 323.213 71.3 324.413C71.5 325.613 74.4 326.113 74.8 327.213C75.2 328.313 73.1 330.513 73.6 331.513C74.1 332.513 77.1 332.113 77.8 333.113C78.5 334.113 77.2 336.813 78 337.613C78.9 338.513 81.5 337.213 82.5 337.913C83.5 338.613 83.1 341.613 84.1 342.113C85.2 342.613 87.3 340.613 88.4 341.013C89.5 341.413 90.1 344.313 91.2 344.513C92.4 344.713 93.8 342.113 95 342.113C96.2 342.113 97.6 344.713 98.8 344.513C100 344.313 100.5 341.413 101.6 341.013C102.7 340.613 104.9 342.713 105.9 342.213C106.9 341.713 106.5 338.713 107.5 338.013C108.5 337.313 111.2 338.613 112 337.813C112.9 336.913 111.6 334.313 112.3 333.313C113 332.313 116 332.713 116.5 331.713C117 330.613 115 328.513 115.4 327.413C115.8 326.313 118.7 325.713 118.9 324.613C119.1 323.413 116.5 322.013 116.5 320.813C116.5 319.613 119.1 318.213 118.9 317.013C118.7 315.813 115.8 315.313 115.4 314.213C115 313.113 117.1 310.913 116.6 309.913C116.1 308.913 113.1 309.313 112.4 308.313C111.7 307.313 113 304.613 112.2 303.813C111.3 302.913 108.7 304.213 107.7 303.513C106.7 302.813 107.1 299.813 106.1 299.313C105 298.813 102.9 300.813 101.8 300.413C100.7 300.013 100.1 297.113 99 296.913C97.8 296.713 96.4 299.313 95.2 299.313C94 299.313 92.6 296.713 91.4 296.913C90.2 297.113 89.7 300.013 88.6 300.413C87.5 300.813 85.3 298.713 84.3 299.213C83.3 299.813 83.7 302.713 82.7 303.413Z" fill="#8AB6C1"/>
<path d="M95.3001 336.013C103.7 336.013 110.5 329.213 110.5 320.813C110.5 312.413 103.7 305.613 95.3001 305.613C86.9001 305.613 80.1001 312.413 80.1001 320.813C80.1001 329.113 86.9001 336.013 95.3001 336.013Z" fill="#BDE5EF"/>
<path d="M101.8 315.412L96.5001 316.312C96.4001 316.312 96.3001 316.312 96.2001 316.312C96.1001 316.312 96.0001 316.212 96.0001 316.112L92.3001 312.212C92.2001 312.112 92.1001 312.112 92.0001 312.012C91.9001 311.912 91.8001 312.012 91.7001 312.012C91.6001 312.012 91.5001 312.112 91.4001 312.212C91.3001 312.312 91.3001 312.412 91.3001 312.512L90.5001 317.812C90.5001 317.912 90.4001 318.012 90.4001 318.112C90.3001 318.212 90.3001 318.212 90.2001 318.312L85.4001 320.712C85.3001 320.712 85.2001 320.812 85.2001 320.912C85.1001 321.012 85.1001 321.112 85.1001 321.212C85.1001 321.312 85.1001 321.412 85.2001 321.512C85.3001 321.612 85.3001 321.712 85.4001 321.712L90.2001 324.112C90.3001 324.112 90.4001 324.212 90.4001 324.312C90.5001 324.412 90.5001 324.512 90.5001 324.612L91.3001 329.912C91.3001 330.012 91.4001 330.112 91.4001 330.212C91.5001 330.312 91.6001 330.312 91.7001 330.412C91.8001 330.412 91.9001 330.412 92.0001 330.412C92.1001 330.412 92.2001 330.312 92.3001 330.212L96.1001 326.412C96.2001 326.312 96.3001 326.312 96.3001 326.212C96.4001 326.212 96.5001 326.212 96.6001 326.212L101.9 327.112C102 327.112 102.1 327.112 102.2 327.112C102.3 327.112 102.4 327.012 102.5 326.912C102.6 326.812 102.6 326.712 102.6 326.612C102.6 326.512 102.6 326.412 102.5 326.312L100 321.512C100 321.412 99.9001 321.312 99.9001 321.212C99.9001 321.112 99.9001 321.012 100 320.912L102.5 316.112C102.6 316.012 102.6 315.912 102.6 315.812C102.6 315.712 102.6 315.612 102.5 315.512C102.4 315.412 102.3 315.312 102.2 315.312C102 315.412 101.9 315.312 101.8 315.412Z" fill="#8AB6C1"/>
<path d="M103.2 266.512L102.1 297.112L97.1001 289.312L91.6001 296.412L92.7001 266.012L103.2 266.512Z" fill="#68949B"/>
<path d="M83.9998 260.312L66.7998 285.612L75.3998 282.312L75.5998 291.312L92.6998 266.212L83.9998 260.312Z" fill="#68949B"/>
<path d="M77.9997 242.312C77.5997 243.512 74.6997 244.012 74.4997 245.112C74.2997 246.312 76.8997 247.712 76.8997 248.912C76.8997 250.112 74.2997 251.512 74.4997 252.712C74.6997 253.912 77.5997 254.412 77.9997 255.512C78.3997 256.612 76.2997 258.812 76.7997 259.812C77.2997 260.912 80.2997 260.512 80.9997 261.412C81.6997 262.412 80.3997 265.012 81.1997 265.912C81.9997 266.712 84.6997 265.512 85.6997 266.212C86.6997 266.912 86.1997 269.812 87.2997 270.412C88.2997 270.912 90.4997 268.912 91.5997 269.312C92.7997 269.712 93.2997 272.612 94.3997 272.812C95.5997 273.012 96.9997 270.412 98.1997 270.412C99.3997 270.412 100.8 273.012 102 272.812C103.2 272.612 103.7 269.712 104.8 269.312C105.9 268.912 108.1 271.012 109.1 270.512C110.2 270.012 109.8 267.012 110.7 266.312C111.7 265.612 114.3 266.912 115.2 266.112C116 265.312 114.8 262.612 115.5 261.612C116.2 260.612 119.1 261.112 119.7 260.012C120.2 259.012 118.2 256.812 118.6 255.712C119 254.512 121.9 254.012 122.1 252.912C122.3 251.712 119.7 250.312 119.7 249.112C119.7 247.912 122.3 246.512 122.1 245.312C121.9 244.112 119 243.612 118.6 242.512C118.2 241.412 120.3 239.212 119.8 238.212C119.3 237.112 116.3 237.512 115.6 236.612C114.9 235.612 116.2 233.012 115.4 232.112C114.6 231.312 111.9 232.512 110.9 231.812C109.9 231.112 110.4 228.212 109.3 227.612C108.3 227.112 106.1 229.112 105 228.712C103.8 228.312 103.3 225.412 102.2 225.212C101 225.012 99.5997 227.612 98.3997 227.612C97.1997 227.612 95.7997 225.012 94.5997 225.212C93.3997 225.412 92.8997 228.312 91.7997 228.712C90.6997 229.112 88.4997 227.012 87.4997 227.512C86.3997 228.012 86.7997 231.012 85.8997 231.712C84.8997 232.412 82.2997 231.112 81.3997 231.912C80.5997 232.712 81.7997 235.412 81.0997 236.412C80.3997 237.412 77.4997 236.912 76.8997 238.012C76.2997 239.012 78.3997 241.112 77.9997 242.312Z" fill="#8AB6C1"/>
<path d="M109.1 259.713C115 253.813 115 244.113 109.1 238.213C103.2 232.313 93.4998 232.313 87.5998 238.213C81.6998 244.113 81.6998 253.813 87.5998 259.713C93.4998 265.613 103.2 265.613 109.1 259.713Z" fill="#BDE5EF"/>
<path d="M100.5 240.813L96.6997 244.613C96.5997 244.713 96.4997 244.713 96.4997 244.813C96.3997 244.813 96.2997 244.813 96.1997 244.813L90.8997 243.913C90.7997 243.913 90.6997 243.913 90.5997 243.913C90.4997 243.913 90.3997 244.013 90.2997 244.113C90.1997 244.213 90.1997 244.313 90.1997 244.413C90.1997 244.513 90.1997 244.613 90.2997 244.713L92.7997 249.513C92.7997 249.613 92.8997 249.713 92.8997 249.813C92.8997 249.913 92.8997 250.013 92.7997 250.113L90.2997 254.913C90.1997 255.013 90.1997 255.113 90.1997 255.213C90.1997 255.313 90.1997 255.413 90.2997 255.513C90.3997 255.613 90.4997 255.713 90.5997 255.713C90.6997 255.713 90.7997 255.813 90.8997 255.713L96.1997 254.813C96.2997 254.813 96.3997 254.813 96.4997 254.813C96.5997 254.813 96.6997 254.913 96.6997 255.013L100.4 258.913C100.5 259.013 100.6 259.013 100.7 259.113C100.8 259.113 100.9 259.113 101 259.113C101.1 259.113 101.2 259.013 101.3 258.913C101.4 258.813 101.4 258.713 101.4 258.613L102.2 253.313C102.2 253.213 102.3 253.113 102.3 253.013C102.4 252.913 102.4 252.913 102.5 252.813L107.4 250.313C107.5 250.313 107.6 250.213 107.6 250.113C107.7 250.013 107.7 249.913 107.7 249.813C107.7 249.713 107.7 249.613 107.6 249.513C107.5 249.413 107.5 249.313 107.4 249.313L102.6 246.913C102.5 246.913 102.4 246.813 102.4 246.713C102.3 246.613 102.3 246.513 102.3 246.413L101.5 241.113C101.5 241.013 101.4 240.913 101.4 240.813C101.3 240.713 101.2 240.713 101.1 240.613C101 240.613 100.9 240.613 100.8 240.613C100.6 240.613 100.5 240.713 100.5 240.813Z" fill="#8AB6C1"/>
<path d="M130.8 360.912C130.8 362.112 130.1 362.712 130.1 362.712C129.9 363.112 129 363.412 127.6 363.712C121 365.112 102.4 366.112 80.5 366.112C58.6 366.112 40 365.112 33.4 363.712C32.1 363.412 31.2 363.112 30.9 362.812C30.6 362.612 30.4 362.412 30.2 362.112C30 361.812 30 361.512 30 361.112C30 359.912 30.8 359.012 30.8 359.012C30.8 359.112 30.8 359.112 30.8 359.212C30.8 359.312 30.9 359.312 30.9 359.312C31.2 359.612 32.1 359.912 33.3 360.212C34.4 360.412 35.7 360.612 37.4 360.912C46 362.012 62.1 362.712 80.4 362.712C98.8 362.712 114.9 362.012 123.4 360.912C125 360.712 126.4 360.512 127.5 360.212C129.2 359.812 130.1 359.512 130.1 359.112C130.2 359.012 130.8 359.612 130.8 360.912Z" fill="#8AB6C1"/>
<path opacity="0.58" d="M130.2 247.113V359.013C130.2 359.413 129.3 359.812 127.6 360.112C126.5 360.312 125.2 360.512 123.5 360.812C114.9 361.913 98.7999 362.612 80.4999 362.612C62.1999 362.612 45.9999 361.913 37.4999 360.812C35.8999 360.613 34.4999 360.412 33.3999 360.112C32.0999 359.812 31.2999 359.512 30.9999 359.212L30.8999 359.112C30.8999 359.012 30.8999 359.013 30.8999 358.913V247.113C30.8999 243.113 32.0999 239.312 34.3999 236.012L44.2999 221.812H117L126.9 236.012C128.9 239.212 130.2 243.113 130.2 247.113Z" fill="url(#paint20_linear)"/>
<path d="M68.8997 296.613L59.1997 330.313L67.3997 323.613L70.7997 333.313L80.3997 299.913L68.8997 296.613Z" fill="url(#paint21_linear)"/>
<path d="M91.8999 296.613L101.6 330.313L93.3999 323.613L89.9999 333.313L80.3999 299.913L91.8999 296.613Z" fill="url(#paint22_linear)"/>
<path d="M108 279.212C108 280.612 104.8 281.712 104.6 283.012C104.4 284.412 107.1 286.412 106.7 287.712C106.3 289.012 102.9 289.112 102.3 290.312C101.7 291.512 103.6 294.312 102.8 295.412C102 296.512 98.7 295.512 97.8 296.512C96.8 297.512 97.8 300.712 96.7 301.512C95.6 302.312 92.8 300.412 91.6 301.012C90.4 301.612 90.3 305.012 89 305.412C87.7 305.812 85.7 303.112 84.3 303.312C83 303.512 81.9 306.712 80.5 306.712C79.1 306.712 78 303.512 76.7 303.312C75.3 303.112 73.3 305.812 72 305.412C70.7 305.012 70.6 301.612 69.4 301.012C68.2 300.412 65.4 302.312 64.3 301.512C63.2 300.712 64.2 297.412 63.2 296.512C62.2 295.512 59 296.512 58.2 295.412C57.4 294.312 59.3 291.512 58.7 290.312C58.1 289.112 54.7 289.012 54.3 287.712C53.9 286.412 56.6 284.412 56.4 283.012C56.2 281.712 53 280.612 53 279.212C53 277.812 56.2 276.712 56.4 275.412C56.6 274.012 53.9 272.012 54.3 270.712C54.7 269.412 58.1 269.312 58.7 268.112C59.3 266.912 57.4 264.112 58.2 263.012C59 261.912 62.3 262.912 63.2 261.912C64.2 260.912 63.2 257.712 64.3 256.912C65.4 256.112 68.2 258.012 69.4 257.412C70.6 256.812 70.7 253.412 72 253.012C73.3 252.612 75.3 255.312 76.7 255.112C78 254.912 79.1 251.712 80.5 251.712C81.9 251.712 83 254.912 84.3 255.112C85.7 255.312 87.7 252.612 89 253.012C90.3 253.412 90.4 256.812 91.6 257.412C92.8 258.012 95.6 256.112 96.7 256.912C97.8 257.712 96.8 261.012 97.8 261.912C98.8 262.912 102 261.912 102.8 263.012C103.6 264.112 101.7 266.912 102.3 268.112C102.9 269.312 106.3 269.412 106.7 270.712C107.1 272.012 104.4 274.012 104.6 275.412C104.8 276.712 108 277.812 108 279.212Z" fill="url(#paint23_linear)"/>
<path d="M80.4 296.612C90 296.612 97.8 288.812 97.8 279.212C97.8 269.612 90 261.812 80.4 261.812C70.8 261.812 63 269.612 63 279.212C63 288.812 70.8 296.612 80.4 296.612Z" fill="white"/>
<path d="M80.9998 269.612L83.6998 275.112C83.6998 275.212 83.7998 275.312 83.8998 275.412C83.9998 275.512 84.0998 275.512 84.1998 275.512L90.2998 276.412C90.3998 276.412 90.4998 276.512 90.5998 276.612C90.6998 276.712 90.7998 276.812 90.7998 276.912C90.7998 277.012 90.7998 277.212 90.7998 277.312C90.7998 277.412 90.6998 277.512 90.5998 277.612L86.1998 281.912C86.0998 282.012 86.0998 282.112 85.9998 282.212C85.9998 282.312 85.9998 282.412 85.9998 282.512L86.9998 288.612C86.9998 288.712 86.9998 288.912 86.9998 289.012C86.9998 289.112 86.8998 289.212 86.7998 289.312C86.6998 289.412 86.5998 289.412 86.3998 289.412C86.2998 289.412 86.0998 289.412 85.9998 289.312L80.5998 286.412C80.4998 286.312 80.3998 286.312 80.2998 286.312C80.1998 286.312 80.0998 286.312 79.9998 286.412L74.5998 289.312C74.4998 289.412 74.3998 289.412 74.1998 289.412C74.0998 289.412 73.9998 289.312 73.7998 289.312C73.6998 289.212 73.5998 289.112 73.5998 289.012C73.5998 288.912 73.4998 288.812 73.5998 288.612L74.5998 282.512C74.5998 282.412 74.5998 282.312 74.5998 282.212C74.5998 282.112 74.4998 282.012 74.3998 281.912L69.9998 277.612C69.8998 277.512 69.7998 277.412 69.7998 277.312C69.7998 277.212 69.7998 277.012 69.7998 276.912C69.7998 276.812 69.8998 276.712 69.9998 276.612C70.0998 276.512 70.1998 276.512 70.2998 276.412L76.3998 275.512C76.4998 275.512 76.5998 275.412 76.6998 275.412C76.7998 275.312 76.8998 275.212 76.8998 275.112L79.5998 269.612C79.6998 269.512 79.6998 269.412 79.8998 269.312C79.9998 269.212 80.0998 269.212 80.2998 269.212C80.3998 269.212 80.5998 269.212 80.6998 269.312C80.8998 269.312 80.8998 269.412 80.9998 269.612Z" fill="url(#paint24_linear)"/>
</g>
<defs>
<filter id="filter0_d" x="-12" y="-20" width="660" height="510" filterUnits="userSpaceOnUse" color-interpolation-filters="sRGB">
<feFlood flood-opacity="0" result="BackgroundImageFix"/>
<feColorMatrix in="SourceAlpha" type="matrix" values="0 0 0 0 0 0 0 0 0 0 0 0 0 0 0 0 0 0 127 0" result="hardAlpha"/>
<feOffset dy="10"/>
<feGaussianBlur stdDeviation="15"/>
<feColorMatrix type="matrix" values="0 0 0 0 0 0 0 0 0 0 0 0 0 0 0 0 0 0 0.25 0"/>
<feBlend mode="normal" in2="BackgroundImageFix" result="effect1_dropShadow"/>
<feBlend mode="normal" in="SourceGraphic" in2="effect1_dropShadow" result="shape"/>
</filter>
<linearGradient id="paint0_linear" x1="44.1844" y1="301.763" x2="133.468" y2="278.925" gradientUnits="userSpaceOnUse">
<stop stop-color="white"/>
<stop offset="1" stop-color="#B1E2F8"/>
</linearGradient>
<linearGradient id="paint1_linear" x1="139.29" y1="97.8394" x2="149.855" y2="97.8394" gradientUnits="userSpaceOnUse">
<stop stop-color="#75DAFF"/>
<stop offset="1" stop-color="#00BAFF"/>
</linearGradient>
<linearGradient id="paint2_linear" x1="159.399" y1="97.8394" x2="169.964" y2="97.8394" gradientUnits="userSpaceOnUse">
<stop stop-color="#75DAFF"/>
<stop offset="1" stop-color="#00BAFF"/>
</linearGradient>
<linearGradient id="paint3_linear" x1="179.218" y1="97.8394" x2="189.784" y2="97.8394" gradientUnits="userSpaceOnUse">
<stop stop-color="#75DAFF"/>
<stop offset="1" stop-color="#00BAFF"/>
</linearGradient>
<linearGradient id="paint4_linear" x1="161.794" y1="239.895" x2="251.236" y2="239.895" gradientUnits="userSpaceOnUse">
<stop stop-color="#75DAFF"/>
<stop offset="1" stop-color="#00BAFF"/>
</linearGradient>
<linearGradient id="paint5_linear" x1="161.794" y1="290.297" x2="410.797" y2="290.297" gradientUnits="userSpaceOnUse">
<stop stop-color="#75DAFF"/>
<stop offset="1" stop-color="#00BAFF"/>
</linearGradient>
<linearGradient id="paint6_linear" x1="496.921" y1="283.807" x2="565.853" y2="283.807" gradientUnits="userSpaceOnUse">
<stop stop-color="#75DAFF"/>
<stop offset="1" stop-color="#00BAFF"/>
</linearGradient>
<linearGradient id="paint7_linear" x1="571.643" y1="157.588" x2="574.491" y2="157.588" gradientUnits="userSpaceOnUse">
<stop stop-color="#71439A"/>
<stop offset="0.8668" stop-color="#A76CAD"/>
</linearGradient>
<linearGradient id="paint8_linear" x1="473.22" y1="191.223" x2="566.517" y2="191.223" gradientUnits="userSpaceOnUse">
<stop stop-color="#71439A"/>
<stop offset="0.8668" stop-color="#A76CAD"/>
</linearGradient>
<linearGradient id="paint9_linear" x1="472.817" y1="231.999" x2="475.123" y2="231.999" gradientUnits="userSpaceOnUse">
<stop stop-color="#71439A"/>
<stop offset="0.8668" stop-color="#A76CAD"/>
</linearGradient>
<linearGradient id="paint10_linear" x1="580.379" y1="162.373" x2="600.508" y2="162.373" gradientUnits="userSpaceOnUse">
<stop stop-color="#71439A"/>
<stop offset="0.8668" stop-color="#A76CAD"/>
</linearGradient>
<linearGradient id="paint11_linear" x1="580.379" y1="164.454" x2="597.085" y2="164.454" gradientUnits="userSpaceOnUse">
<stop stop-color="#71439A"/>
<stop offset="0.8668" stop-color="#A76CAD"/>
</linearGradient>
<linearGradient id="paint12_linear" x1="580.379" y1="158.252" x2="606.481" y2="158.252" gradientUnits="userSpaceOnUse">
<stop stop-color="#71439A"/>
<stop offset="0.8668" stop-color="#A76CAD"/>
</linearGradient>
<linearGradient id="paint13_linear" x1="290.919" y1="178.502" x2="493.797" y2="178.502" gradientUnits="userSpaceOnUse">
<stop stop-color="#42B4E7"/>
<stop offset="1" stop-color="#B1E2F8"/>
</linearGradient>
<linearGradient id="paint14_linear" x1="315.818" y1="167.153" x2="342.571" y2="167.153" gradientUnits="userSpaceOnUse">
<stop stop-color="#71439A"/>
<stop offset="0.8668" stop-color="#A76CAD"/>
</linearGradient>
<linearGradient id="paint15_linear" x1="348.262" y1="167.157" x2="375.015" y2="167.157" gradientUnits="userSpaceOnUse">
<stop stop-color="#71439A"/>
<stop offset="0.8668" stop-color="#A76CAD"/>
</linearGradient>
<linearGradient id="paint16_linear" x1="380.705" y1="167.157" x2="407.458" y2="167.157" gradientUnits="userSpaceOnUse">
<stop stop-color="#71439A"/>
<stop offset="0.8668" stop-color="#A76CAD"/>
</linearGradient>
<linearGradient id="paint17_linear" x1="412.306" y1="166.941" x2="439.058" y2="166.941" gradientUnits="userSpaceOnUse">
<stop stop-color="#71439A"/>
<stop offset="0.8668" stop-color="#A76CAD"/>
</linearGradient>
<linearGradient id="paint18_linear" x1="443.379" y1="166.822" x2="470.131" y2="166.822" gradientUnits="userSpaceOnUse">
<stop stop-color="#71439A"/>
<stop offset="0.8668" stop-color="#A76CAD"/>
</linearGradient>
<linearGradient id="paint19_linear" x1="40.8493" y1="200.25" x2="120.055" y2="200.25" gradientUnits="userSpaceOnUse">
<stop stop-color="#71439A"/>
<stop offset="0.8668" stop-color="#A76CAD"/>
</linearGradient>
<linearGradient id="paint20_linear" x1="43.5954" y1="301.763" x2="132.879" y2="278.925" gradientUnits="userSpaceOnUse">
<stop stop-color="#42B4E7"/>
<stop offset="1" stop-color="#B1E2F8"/>
</linearGradient>
<linearGradient id="paint21_linear" x1="59.1746" y1="314.984" x2="80.3952" y2="314.984" gradientUnits="userSpaceOnUse">
<stop stop-color="#71439A"/>
<stop offset="0.8668" stop-color="#A76CAD"/>
</linearGradient>
<linearGradient id="paint22_linear" x1="80.3943" y1="314.984" x2="101.615" y2="314.984" gradientUnits="userSpaceOnUse">
<stop stop-color="#71439A"/>
<stop offset="0.8668" stop-color="#A76CAD"/>
</linearGradient>
<linearGradient id="paint23_linear" x1="52.7932" y1="279.221" x2="107.996" y2="279.221" gradientUnits="userSpaceOnUse">
<stop stop-color="#71439A"/>
<stop offset="0.8668" stop-color="#A76CAD"/>
</linearGradient>
<linearGradient id="paint24_linear" x1="69.8806" y1="279.221" x2="90.9082" y2="279.221" gradientUnits="userSpaceOnUse">
<stop stop-color="#71439A"/>
<stop offset="0.8668" stop-color="#A76CAD"/>
</linearGradient>
</defs>
</svg>
