<svg width="601" height="450" viewBox="0 0 601 450" fill="none" xmlns="http://www.w3.org/2000/svg">
<g filter="url(#filter0_d)">
<path d="M112.7 247.113V359.013C112.7 359.413 111.8 359.812 110.1 360.112C109 360.312 107.7 360.512 106 360.812C97.3999 361.913 81.2999 362.612 62.9999 362.612C44.6999 362.612 28.4999 361.913 19.9999 360.812C18.3999 360.613 16.9999 360.412 15.8999 360.112C14.5999 359.812 13.7999 359.512 13.4999 359.212L13.3999 359.112C13.3999 359.012 13.3999 359.013 13.3999 358.913V247.113C13.3999 243.113 14.5999 239.312 16.8999 236.012L26.7999 221.812H99.3999L109.3 236.012C111.5 239.212 112.7 243.113 112.7 247.113Z" fill="url(#paint0_linear)"/>
<path d="M444.199 112.913V322.413C444.199 324.913 443.699 327.413 442.799 329.713C441.799 332.013 440.399 334.113 438.699 335.913C436.899 337.713 434.799 339.113 432.499 340.013C430.199 341.013 427.699 341.513 425.199 341.413H120.399C117.899 341.413 115.399 340.913 113.099 340.013C110.799 339.013 108.699 337.613 106.899 335.913C105.099 334.113 103.699 332.013 102.799 329.713C101.799 327.413 101.299 324.913 101.399 322.413V112.913H444.199Z" fill="#E9F7FE"/>
<path d="M444.199 102.013V112.913H101.199V102.013C101.199 99.5126 101.699 97.0126 102.599 94.7126C103.599 92.4126 104.999 90.3126 106.699 88.5126C108.499 86.7126 110.599 85.3126 112.899 84.4126C115.199 83.4126 117.699 82.9126 120.199 83.0126H424.899C427.399 83.0126 429.899 83.5126 432.199 84.5126C434.499 85.5126 436.599 86.9126 438.399 88.6126C440.199 90.4126 441.599 92.5126 442.499 94.8126C443.699 97.0126 444.199 99.5126 444.199 102.013Z" fill="#7B7C7F"/>
<path d="M131.901 97.8126C131.901 98.8126 131.601 99.9126 131.001 100.713C130.401 101.613 129.601 102.213 128.601 102.613C127.601 103.013 126.601 103.113 125.501 102.913C124.501 102.713 123.501 102.213 122.801 101.513C122.101 100.813 121.601 99.8126 121.401 98.8126C121.201 97.8126 121.301 96.7126 121.701 95.7126C122.101 94.7126 122.801 93.9126 123.601 93.3126C124.401 92.7126 125.501 92.4126 126.501 92.4126C127.901 92.4126 129.201 93.0126 130.201 93.9126C131.301 95.1126 131.901 96.4126 131.901 97.8126Z" fill="url(#paint1_linear)"/>
<path d="M152 97.8126C152 98.8126 151.7 99.9126 151.1 100.713C150.5 101.613 149.7 102.213 148.7 102.613C147.7 103.013 146.7 103.113 145.6 102.913C144.6 102.713 143.6 102.213 142.9 101.513C142.2 100.813 141.7 99.8126 141.5 98.8126C141.3 97.8126 141.4 96.7126 141.8 95.7126C142.2 94.7126 142.9 93.9126 143.7 93.3126C144.6 92.7126 145.6 92.4126 146.6 92.4126C148 92.4126 149.3 93.0126 150.3 93.9126C151.4 95.1126 152 96.4126 152 97.8126Z" fill="url(#paint2_linear)"/>
<path d="M171.799 97.8126C171.799 98.8126 171.499 99.9126 170.899 100.713C170.299 101.613 169.499 102.213 168.499 102.613C167.499 103.013 166.499 103.113 165.399 102.913C164.399 102.713 163.399 102.213 162.699 101.513C161.999 100.813 161.499 99.8126 161.299 98.8126C161.099 97.8126 161.199 96.7126 161.599 95.7126C161.999 94.7126 162.699 93.9126 163.499 93.3126C164.399 92.7126 165.399 92.4126 166.399 92.4126C167.799 92.4126 169.099 93.0126 170.099 93.9126C171.199 95.1126 171.799 96.4126 171.799 97.8126Z" fill="url(#paint3_linear)"/>
<path d="M207.401 142.613H149.101C146.201 142.613 143.801 145.013 143.801 147.913V206.213C143.801 209.113 146.201 211.513 149.101 211.513H207.401C210.301 211.513 212.701 209.113 212.701 206.213V147.913C212.701 145.013 210.301 142.613 207.401 142.613Z" fill="#00BAFF"/>
<path d="M205.001 202.412C204.301 202.912 203.401 203.212 202.501 203.212H153.801C152.901 203.212 152.001 202.912 151.301 202.412C152.001 197.512 154.001 192.812 157.101 188.912C160.201 185.012 164.401 182.112 169.101 180.412C165.801 178.412 163.201 175.412 161.701 171.812C160.301 168.212 160.001 164.312 161.001 160.512C162.001 156.812 164.201 153.512 167.301 151.112C170.401 148.812 174.101 147.512 178.001 147.512C181.901 147.512 185.601 148.812 188.701 151.112C191.801 153.412 194.001 156.712 195.001 160.512C196.001 164.212 195.801 168.212 194.301 171.812C192.901 175.412 190.301 178.412 186.901 180.412C191.601 182.112 195.801 185.012 198.901 188.912C202.401 192.712 204.401 197.412 205.001 202.412Z" fill="white"/>
<path d="M227.601 229.012H149.401C146.301 229.012 143.801 231.512 143.801 234.612V245.212C143.801 248.312 146.301 250.812 149.401 250.812H227.601C230.701 250.812 233.201 248.312 233.201 245.212V234.612C233.201 231.512 230.701 229.012 227.601 229.012Z" fill="url(#paint4_linear)"/>
<path d="M388.001 260.712H148.601C146.001 260.712 143.801 262.812 143.801 265.512V315.112C143.801 317.712 145.901 319.912 148.601 319.912H388.001C390.601 319.912 392.801 317.812 392.801 315.112V265.512C392.801 262.812 390.701 260.712 388.001 260.712Z" fill="url(#paint5_linear)"/>
<path opacity="0.1" d="M444.2 158.213V200.513H297L266.9 222.613C266.7 222.713 266.5 222.813 266.3 222.713C266.1 222.713 265.9 222.613 265.7 222.413C265.5 222.313 265.4 222.113 265.4 221.813C265.4 221.613 265.4 221.413 265.5 221.213L272.2 200.413H273C271.3 200.513 269.6 199.813 268.3 198.713C267 197.513 266.3 195.913 266.2 194.113V164.413C266.3 162.713 267 161.013 268.3 159.813C269.6 158.613 271.3 158.013 273 158.113L444.2 158.213Z" fill="black"/>
<path d="M540.4 211.613H491.7C486.1 211.613 481.6 216.113 481.6 221.713V341.513C481.6 347.113 486.1 351.613 491.7 351.613H540.4C546 351.613 550.5 347.113 550.5 341.513V221.713C550.6 216.113 546 211.613 540.4 211.613Z" fill="#009DD7"/>
<path d="M547.9 223.913V343.712C547.9 346.212 547 348.613 545.4 350.413C544.5 351.513 543.3 352.312 542 352.913C540.7 353.513 539.3 353.812 537.8 353.812H489.1C487.8 353.812 486.5 353.513 485.2 353.013C484 352.513 482.9 351.712 481.9 350.812C481 349.913 480.2 348.713 479.7 347.513C479.2 346.313 478.9 345.012 478.9 343.612V223.913C478.9 222.113 479.4 220.312 480.3 218.712C481.2 217.112 482.5 215.812 484.1 215.012C485.6 214.212 487.2 213.812 488.9 213.812H537.6C540.3 213.812 542.9 214.913 544.8 216.812C546.8 218.613 547.9 221.213 547.9 223.913Z" fill="url(#paint6_linear)"/>
<path d="M540.8 228.113H486C484.7 228.113 483.6 229.213 483.6 230.513V333.813C483.6 335.113 484.7 336.213 486 336.213H540.8C542.1 336.213 543.2 335.113 543.2 333.813V230.513C543.2 229.113 542.1 228.113 540.8 228.113Z" fill="#D3DDF8"/>
<path d="M513.4 350.212C516.4 350.212 518.9 347.712 518.9 344.712C518.9 341.712 516.4 339.212 513.4 339.212C510.4 339.212 507.9 341.712 507.9 344.712C507.9 347.712 510.3 350.212 513.4 350.212Z" fill="white"/>
<path d="M504.6 221.113C504.6 221.413 504.5 221.813 504.3 222.113C504.1 222.413 503.8 222.612 503.5 222.712C503.2 222.812 502.8 222.912 502.5 222.812C502.2 222.713 501.8 222.612 501.6 222.312C501.4 222.112 501.2 221.713 501.1 221.413C501 221.113 501.1 220.713 501.2 220.413C501.3 220.113 501.6 219.813 501.8 219.613C502.1 219.413 502.4 219.312 502.8 219.312C503.3 219.312 503.7 219.512 504 219.812C504.4 220.212 504.6 220.713 504.6 221.113Z" fill="white"/>
<path d="M518.6 222.212H508.2C507.9 222.212 507.6 222.112 507.4 221.912C507.2 221.712 507.1 221.412 507.1 221.112C507.1 220.812 507.2 220.512 507.4 220.312C507.6 220.112 507.9 220.012 508.2 220.012H518.6C518.9 220.012 519.2 220.112 519.4 220.312C519.6 220.512 519.7 220.812 519.7 221.112C519.7 221.412 519.6 221.712 519.4 221.912C519.2 222.112 518.9 222.212 518.6 222.212Z" fill="white"/>
<path d="M540.8 228.113H486C484.7 228.113 483.6 229.213 483.6 230.513V333.813C483.6 335.113 484.7 336.213 486 336.213H540.8C542.1 336.213 543.2 335.113 543.2 333.813V230.513C543.2 229.113 542.1 228.113 540.8 228.113Z" fill="#E9F7FE"/>
<path d="M514 255.213C515.7 247.713 511.1 240.313 503.6 238.513C496.1 236.813 488.7 241.413 486.9 248.913C485.2 256.413 489.8 263.813 497.3 265.613C504.8 267.313 512.2 262.713 514 255.213Z" fill="white"/>
<path d="M536.2 250.712H524.1C522.7 250.712 521.5 251.812 521.5 253.312V257.312C521.5 258.712 522.6 259.912 524.1 259.912H536.2C537.6 259.912 538.8 258.812 538.8 257.312V253.312C538.8 251.812 537.6 250.712 536.2 250.712Z" fill="#C2C2C2"/>
<path d="M530.8 320.212C534.5 320.212 537.5 317.213 537.5 313.513C537.5 309.813 534.5 306.812 530.8 306.812C527.1 306.812 524.1 309.813 524.1 313.513C524.1 317.213 527.1 320.212 530.8 320.212Z" fill="#C2C2C2"/>
<path d="M486.4 312.612V314.513C486.4 315.513 486.8 316.512 487.5 317.212C488.2 317.912 489.2 318.312 490.2 318.312H514.1L519.2 321.712C519.3 321.812 519.4 321.812 519.5 321.812C519.6 321.812 519.7 321.812 519.8 321.712C519.9 321.612 519.9 321.613 519.9 321.513C519.9 321.413 519.9 321.312 519.9 321.212L518.4 317.913C519 317.613 519.5 317.113 519.9 316.513C520.3 315.913 520.5 315.213 520.5 314.513V312.612C520.5 311.612 520.1 310.613 519.4 309.913C518.7 309.213 517.7 308.812 516.7 308.812H490.2C489.2 308.812 488.2 309.213 487.5 309.913C486.8 310.613 486.4 311.612 486.4 312.612Z" fill="#C2C2C2"/>
<path d="M494.3 293.712C498 293.712 501 290.713 501 287.013C501 283.313 498 280.312 494.3 280.312C490.6 280.312 487.6 283.313 487.6 287.013C487.6 290.713 490.6 293.712 494.3 293.712Z" fill="#00BAFF"/>
<path d="M538.6 286.012V287.912C538.6 288.912 538.2 289.912 537.5 290.612C536.8 291.312 535.8 291.712 534.8 291.712H510.9L505.8 295.112C505.7 295.212 505.6 295.212 505.5 295.212C505.4 295.212 505.3 295.212 505.2 295.112C505.1 295.012 505.1 295.012 505.1 294.912C505.1 294.812 505.1 294.712 505.1 294.612L506.6 291.312C506 291.012 505.5 290.512 505.1 289.912C504.7 289.312 504.5 288.612 504.5 287.912V286.012C504.5 285.012 504.9 284.012 505.6 283.312C506.3 282.612 507.3 282.212 508.3 282.212H534.8C535.8 282.212 536.8 282.612 537.5 283.312C538.2 284.112 538.6 285.012 538.6 286.012Z" fill="#00BAFF"/>
<path opacity="0.1" d="M512.4 252.312V255.913C512.4 256.813 512.2 257.713 511.9 258.613C511.5 259.513 511 260.213 510.4 260.913C509.8 261.613 509 262.113 508.1 262.413C507.2 262.813 506.3 262.913 505.4 262.913H491.8H483.6H481.7H479V245.312H481.7H483.6H488.4H505.5C507.4 245.312 509.1 246.013 510.5 247.413C511.6 248.713 512.4 250.412 512.4 252.312Z" fill="black"/>
<path d="M511.3 250.313V253.913C511.3 254.813 511.1 255.713 510.8 256.613C510.4 257.513 509.9 258.213 509.3 258.913C508.6 259.613 507.9 260.113 507 260.413C506.1 260.813 505.2 260.913 504.3 260.913H459.9L450.5 267.213C450.4 267.313 450.2 267.313 450 267.313C449.8 267.313 449.7 267.213 449.5 267.113C449.4 267.013 449.3 266.813 449.2 266.713C449.2 266.513 449.2 266.413 449.2 266.213L451.9 260.113C450.7 259.513 449.8 258.613 449.1 257.513C448.4 256.413 448.1 255.113 448.1 253.813V250.213C448.1 248.313 448.8 246.613 450.2 245.213C451.5 243.913 453.3 243.113 455.2 243.213H504.2C506.1 243.213 507.8 243.913 509.2 245.313C510.5 246.613 511.3 248.413 511.3 250.313Z" fill="#00BAFF"/>
<path d="M227.5 239.112C227.5 238.212 226.6 237.512 225.5 237.512H152.5C151.4 237.512 150.5 238.212 150.5 239.112C150.5 240.012 151.4 240.712 152.5 240.712H225.5C226.6 240.712 227.5 240.012 227.5 239.112Z" fill="white"/>
<path d="M383.8 273.812C383.8 272.912 382.9 272.212 381.8 272.212H151.9C150.8 272.212 149.9 272.912 149.9 273.812C149.9 274.712 150.8 275.412 151.9 275.412H381.8C382.9 275.312 383.8 274.612 383.8 273.812Z" fill="white"/>
<path d="M383.8 289.013C383.8 288.113 382.9 287.413 381.8 287.413H151.9C150.8 287.413 149.9 288.113 149.9 289.013C149.9 289.913 150.8 290.613 151.9 290.613H381.8C382.9 290.513 383.8 289.813 383.8 289.013Z" fill="white"/>
<path d="M383.8 304.213C383.8 303.313 382.9 302.613 381.8 302.613H151.9C150.8 302.613 149.9 303.313 149.9 304.213C149.9 305.113 150.8 305.813 151.9 305.813H381.8C382.9 305.713 383.8 305.013 383.8 304.213Z" fill="white"/>
<path d="M499.7 251.812C499.7 250.912 498.8 250.212 497.7 250.212H463.4C462.3 250.212 461.4 250.912 461.4 251.812C461.4 252.712 462.3 253.412 463.4 253.412H497.7C498.8 253.412 499.7 252.712 499.7 251.812Z" fill="white"/>
<path d="M556.499 158.413C556.499 158.413 555.499 158.413 553.799 158.513L553.699 156.713C555.499 156.613 556.399 156.613 556.399 156.613L556.499 158.413Z" fill="url(#paint7_linear)"/>
<path d="M456.599 225.312L455.199 224.912C455.499 222.712 455.999 220.512 456.699 218.312L457.999 219.112C457.299 221.112 456.799 223.212 456.599 225.312ZM460.299 213.412L459.099 212.412C460.099 210.612 461.099 208.812 462.299 207.112L463.299 208.312C462.299 209.912 461.299 211.612 460.299 213.412ZM497.499 207.712C497.199 207.712 496.799 207.812 496.499 207.812L496.299 206.012C497.999 205.812 499.699 205.512 501.399 204.912L501.799 206.612C500.399 207.112 498.999 207.512 497.499 207.712ZM490.999 207.512C488.999 207.112 487.199 206.212 485.599 204.912L486.299 203.512C487.699 204.612 489.299 205.412 491.099 205.812L490.999 207.512ZM506.799 204.112L506.099 202.612C507.599 201.612 508.799 200.212 509.599 198.512L510.799 199.412C509.899 201.312 508.499 202.912 506.799 204.112ZM467.099 203.812L466.199 202.412C467.499 201.012 468.899 199.612 470.399 198.412L471.199 199.912C469.799 201.112 468.399 202.412 467.099 203.812ZM483.799 198.412L482.399 198.612C482.199 196.212 482.399 193.812 483.099 191.512L484.399 192.212C483.799 194.212 483.599 196.312 483.799 198.412ZM509.299 192.912C508.499 191.212 507.099 189.912 505.399 189.212L505.799 187.512C507.899 188.412 509.599 190.012 510.499 192.012L509.299 192.912ZM475.599 196.512L474.899 194.912C476.399 193.812 477.999 192.912 479.599 192.012L480.199 193.612C478.599 194.512 477.099 195.512 475.599 196.512ZM484.999 191.312L484.499 189.612C486.199 188.912 487.899 188.312 489.599 187.812L489.999 189.512C488.299 190.012 486.599 190.612 484.999 191.312ZM500.299 188.112C498.699 188.012 497.099 188.112 495.499 188.312L495.099 188.412L494.899 186.712L495.299 186.612C496.899 186.412 498.599 186.312 500.299 186.412V188.112ZM486.699 186.512L485.499 185.512C486.399 183.712 487.599 181.912 488.799 180.312L489.799 181.612C488.599 183.112 487.499 184.712 486.699 186.512ZM493.699 177.412L492.899 175.912C494.299 174.612 495.799 173.412 497.299 172.312L497.999 173.912C496.499 174.912 495.099 176.112 493.699 177.412ZM502.599 171.012L501.999 169.412C503.499 168.512 505.199 167.712 506.899 166.912L507.399 168.612C505.699 169.312 504.099 170.112 502.599 171.012ZM512.299 166.512L511.799 164.812C513.399 164.212 515.099 163.612 516.899 163.012L517.299 164.712C515.599 165.312 513.899 165.912 512.299 166.512ZM522.499 163.212L522.099 161.512C523.799 161.012 525.599 160.612 527.299 160.212L527.599 161.912C525.899 162.312 524.199 162.812 522.499 163.212ZM548.499 158.912C546.899 159.012 545.199 159.212 543.199 159.412L542.999 157.712C544.899 157.512 546.699 157.312 548.299 157.212L548.499 158.912ZM532.799 160.912L532.499 159.212C534.299 158.912 536.099 158.612 537.799 158.312L537.999 160.012C536.299 160.312 534.599 160.612 532.799 160.912Z" fill="url(#paint8_linear)"/>
<path d="M455.301 234.413C455.101 232.813 454.901 231.213 454.801 229.613H456.601C456.701 231.113 456.901 232.613 457.101 234.113L455.301 234.413Z" fill="url(#paint9_linear)"/>
<path d="M582.501 167.612L581.501 159.912L562.301 157.212L582.501 167.612Z" fill="#C2C2C2"/>
<path d="M579.1 162.512L582.5 167.612L562.4 157.212L579.1 162.512Z" fill="url(#paint10_linear)"/>
<path d="M562.4 157.212L571.8 171.812L579.1 162.612L562.4 157.212Z" fill="url(#paint11_linear)"/>
<path d="M581.501 159.913L588.401 156.613L562.301 157.213L581.501 159.913Z" fill="url(#paint12_linear)"/>
<path d="M475.8 152.612V182.312C475.8 183.212 475.6 184.012 475.2 184.812C474.8 185.612 474.3 186.312 473.7 186.912C473.1 187.512 472.3 187.912 471.5 188.212C470.7 188.512 469.8 188.612 469 188.612H304.6L274.4 210.612C274.2 210.712 274 210.812 273.8 210.712C273.6 210.712 273.4 210.612 273.2 210.412C273 210.312 272.9 210.112 272.9 209.912C272.9 209.712 272.9 209.512 273 209.312L279.7 188.512H280.5C279.6 188.512 278.8 188.412 278 188.112C277.2 187.812 276.4 187.312 275.8 186.812C275.2 186.212 274.6 185.512 274.3 184.712C274 183.912 273.7 183.112 273.7 182.212V152.512C273.8 150.812 274.5 149.112 275.8 147.912C277.1 146.712 278.8 146.112 280.5 146.212H468.9C470.1 146.212 471.3 146.512 472.3 147.012C473.3 147.612 474.2 148.412 474.8 149.412C475.5 150.412 475.8 151.512 475.8 152.612Z" fill="url(#paint13_linear)"/>
<path opacity="0.7" d="M311.8 154.813L314.5 163.213C314.5 163.313 314.6 163.413 314.7 163.513C314.8 163.613 314.9 163.613 315.1 163.613H324C324.1 163.613 324.3 163.613 324.4 163.713C324.5 163.813 324.6 163.913 324.6 164.013C324.6 164.113 324.6 164.313 324.6 164.413C324.6 164.513 324.5 164.613 324.4 164.713L317.2 169.913C317.1 170.013 317 170.113 317 170.213C317 170.313 317 170.513 317 170.613L319.7 179.013C319.7 179.113 319.7 179.313 319.7 179.413C319.7 179.513 319.6 179.613 319.5 179.713C319.4 179.813 319.3 179.813 319.1 179.813C319 179.813 318.8 179.813 318.7 179.713L311.5 174.513C311.4 174.413 311.3 174.413 311.1 174.413C311 174.413 310.8 174.413 310.7 174.513L303.5 179.713C303.4 179.813 303.3 179.813 303.1 179.813C303 179.813 302.8 179.813 302.7 179.713C302.6 179.613 302.5 179.513 302.5 179.413C302.5 179.313 302.5 179.113 302.5 179.013L305.2 170.613C305.2 170.513 305.2 170.313 305.2 170.213C305.2 170.113 305.1 170.013 305 169.913L297.8 164.713C297.7 164.613 297.6 164.513 297.6 164.413C297.6 164.313 297.6 164.113 297.6 164.013C297.6 163.913 297.7 163.813 297.8 163.713C297.9 163.613 298 163.613 298.2 163.613H307.1C307.2 163.613 307.4 163.613 307.5 163.513C307.6 163.413 307.7 163.313 307.7 163.213L310.4 154.813C310.4 154.713 310.5 154.613 310.6 154.513C310.7 154.413 310.8 154.413 311 154.413C311.1 154.413 311.3 154.413 311.4 154.513C311.6 154.613 311.7 154.713 311.8 154.813Z" fill="url(#paint14_linear)"/>
<path opacity="0.75" d="M344.2 154.813L346.9 163.213C346.9 163.313 347 163.413 347.1 163.513C347.2 163.613 347.3 163.613 347.5 163.613H356.4C356.5 163.613 356.7 163.613 356.8 163.713C356.9 163.813 357 163.913 357 164.013C357 164.113 357 164.313 357 164.413C357 164.513 356.9 164.613 356.8 164.713L349.6 169.913C349.5 170.013 349.4 170.113 349.4 170.213C349.4 170.313 349.4 170.513 349.4 170.613L352.1 179.013C352.1 179.113 352.1 179.313 352.1 179.413C352.1 179.513 352 179.613 351.9 179.713C351.8 179.813 351.7 179.813 351.5 179.813C351.4 179.813 351.2 179.813 351.1 179.713L343.9 174.513C343.8 174.413 343.7 174.413 343.5 174.413C343.4 174.413 343.2 174.413 343.1 174.513L335.9 179.713C335.8 179.813 335.7 179.813 335.5 179.813C335.4 179.813 335.2 179.813 335.1 179.713C335 179.613 334.9 179.513 334.9 179.413C334.9 179.313 334.9 179.113 334.9 179.013L337.6 170.613C337.6 170.513 337.6 170.313 337.6 170.213C337.6 170.113 337.5 170.013 337.4 169.913L330.2 164.713C330.1 164.613 330 164.513 330 164.413C330 164.313 330 164.113 330 164.013C330 163.913 330.1 163.813 330.2 163.713C330.3 163.613 330.4 163.613 330.6 163.613H339.5C339.6 163.613 339.8 163.613 339.9 163.513C340 163.413 340.1 163.313 340.1 163.213L342.8 154.813C342.8 154.713 342.9 154.613 343 154.513C343.1 154.413 343.2 154.413 343.4 154.413C343.6 154.413 343.6 154.413 343.8 154.513C344.1 154.613 344.2 154.713 344.2 154.813Z" fill="url(#paint15_linear)"/>
<path opacity="0.75" d="M376.7 154.813L379.4 163.213C379.4 163.313 379.5 163.413 379.6 163.513C379.7 163.613 379.8 163.613 380 163.613H388.9C389 163.613 389.2 163.613 389.3 163.713C389.4 163.813 389.5 163.913 389.5 164.013C389.5 164.113 389.5 164.313 389.5 164.413C389.5 164.513 389.4 164.613 389.3 164.713L382.1 169.913C382 170.013 381.9 170.113 381.9 170.213C381.9 170.313 381.9 170.513 381.9 170.613L384.6 179.013C384.6 179.113 384.6 179.313 384.6 179.413C384.6 179.513 384.5 179.613 384.4 179.713C384.3 179.813 384.2 179.813 384 179.813C383.9 179.813 383.7 179.813 383.6 179.713L376.4 174.513C376.3 174.413 376.2 174.413 376 174.413C375.9 174.413 375.7 174.413 375.6 174.513L368.4 179.713C368.3 179.813 368.2 179.813 368 179.813C367.9 179.813 367.7 179.813 367.6 179.713C367.5 179.613 367.4 179.513 367.4 179.413C367.4 179.313 367.4 179.113 367.4 179.013L370.1 170.613C370.1 170.513 370.1 170.313 370.1 170.213C370.1 170.113 370 170.013 369.9 169.913L362.7 164.713C362.6 164.613 362.5 164.513 362.5 164.413C362.5 164.313 362.5 164.113 362.5 164.013C362.5 163.913 362.6 163.813 362.7 163.713C362.8 163.613 362.9 163.613 363.1 163.613H372C372.1 163.613 372.3 163.613 372.4 163.513C372.5 163.413 372.6 163.313 372.6 163.213L375.3 154.813C375.3 154.713 375.4 154.613 375.5 154.513C375.6 154.413 375.7 154.413 375.9 154.413C376 154.413 376.1 154.413 376.3 154.513C376.5 154.613 376.6 154.713 376.7 154.813Z" fill="url(#paint16_linear)"/>
<path opacity="0.76" d="M408.3 154.612L411 163.012C411 163.112 411.1 163.212 411.2 163.312C411.3 163.412 411.4 163.412 411.6 163.412H420.5C420.6 163.412 420.8 163.412 420.9 163.512C421 163.612 421.1 163.712 421.1 163.812C421.1 163.912 421.1 164.112 421.1 164.212C421.1 164.312 421 164.412 420.9 164.512L413.7 169.712C413.6 169.812 413.5 169.912 413.5 170.012C413.5 170.112 413.5 170.312 413.5 170.412L416.2 178.812C416.2 178.912 416.2 179.112 416.2 179.212C416.2 179.312 416.1 179.412 416 179.512C415.9 179.612 415.8 179.612 415.6 179.612C415.5 179.612 415.3 179.612 415.2 179.512L408 174.312C407.9 174.212 407.8 174.212 407.6 174.212C407.5 174.212 407.3 174.212 407.2 174.312L400 179.512C399.9 179.612 399.8 179.612 399.6 179.612C399.5 179.612 399.3 179.612 399.2 179.512C399.1 179.412 399 179.312 399 179.212C399 179.112 399 178.912 399 178.812L401.7 170.412C401.7 170.312 401.7 170.112 401.7 170.012C401.7 169.912 401.6 169.812 401.5 169.712L394.3 164.512C394.2 164.412 394.1 164.312 394.1 164.212C394.1 164.112 394.1 163.912 394.1 163.812C394.1 163.712 394.2 163.612 394.3 163.512C394.4 163.412 394.5 163.412 394.7 163.412H403.6C403.7 163.412 403.9 163.412 404 163.312C404.1 163.212 404.2 163.112 404.2 163.012L406.9 154.612C406.9 154.512 407 154.412 407.1 154.312C407.2 154.212 407.3 154.212 407.5 154.212C407.6 154.212 407.8 154.212 407.9 154.312C408.1 154.412 408.2 154.512 408.3 154.612Z" fill="url(#paint17_linear)"/>
<path opacity="0.77" d="M439.3 154.513L442 162.913C442 163.013 442.1 163.113 442.2 163.213C442.3 163.313 442.4 163.313 442.6 163.313H451.5C451.6 163.313 451.8 163.313 451.9 163.413C452 163.513 452.1 163.613 452.1 163.713C452.1 163.813 452.1 164.013 452.1 164.113C452.1 164.213 452 164.313 451.9 164.413L444.7 169.613C444.6 169.713 444.5 169.813 444.5 169.913C444.5 170.013 444.5 170.213 444.5 170.313L447.2 178.713C447.2 178.813 447.2 179.013 447.2 179.113C447.2 179.213 447.1 179.313 447 179.413C446.9 179.513 446.8 179.513 446.6 179.513C446.5 179.513 446.3 179.513 446.2 179.413L439 174.213C438.9 174.113 438.8 174.113 438.6 174.113C438.5 174.113 438.3 174.113 438.2 174.213L431 179.413C430.9 179.513 430.8 179.513 430.6 179.513C430.5 179.513 430.3 179.513 430.2 179.413C430.1 179.313 430 179.213 430 179.113C430 179.013 430 178.813 430 178.713L432.7 170.313C432.7 170.213 432.7 170.013 432.7 169.913C432.7 169.813 432.6 169.713 432.5 169.613L425.3 164.413C425.2 164.313 425.1 164.213 425.1 164.113C425.1 164.013 425.1 163.813 425.1 163.713C425.1 163.613 425.2 163.513 425.3 163.413C425.4 163.313 425.5 163.313 425.7 163.313H434.6C434.7 163.313 434.9 163.313 435 163.213C435.1 163.113 435.2 163.013 435.2 162.913L437.9 154.513C437.9 154.413 438 154.313 438.1 154.213C438.2 154.113 438.3 154.113 438.5 154.113C438.6 154.113 438.8 154.113 438.9 154.213C439.2 154.313 439.3 154.413 439.3 154.513Z" fill="url(#paint18_linear)"/>
<path d="M98.7001 219.012H26.1001V221.812H98.7001V219.012Z" fill="#8AB6C1"/>
<path d="M99.0998 208.812H25.7998C24.1998 208.812 22.7998 210.112 22.7998 211.812V214.712C22.7998 216.312 24.0998 217.712 25.7998 217.712H99.0998C100.7 217.712 102.1 216.412 102.1 214.712V211.812C102.1 210.112 100.7 208.812 99.0998 208.812Z" fill="#D1EEFC"/>
<path d="M26.0998 219.013L25.7998 217.613H99.0998L98.6998 219.013H26.0998Z" fill="#E6F4FC"/>
<path d="M97.6998 194.312H27.1998C24.7998 194.312 22.7998 196.312 22.7998 198.712V201.812C22.7998 204.212 24.7998 206.212 27.1998 206.212H97.6998C100.1 206.212 102.1 204.212 102.1 201.812V198.712C102.1 196.312 100.1 194.312 97.6998 194.312Z" fill="url(#paint19_linear)"/>
<path d="M96.3 206.212H28.5V208.812H96.3V206.212Z" fill="#8AB6C1"/>
<path d="M51.3 206.212H28.5V208.812H51.3V206.212Z" fill="#68949B"/>
<path d="M66.2001 206.212H53.1001V208.812H66.2001V206.212Z" fill="#68949B"/>
<path d="M70.3001 206.212H68.6001V208.812H70.3001V206.212Z" fill="#68949B"/>
<path d="M73.5999 206.212H71.8999V208.812H73.5999V206.212Z" fill="#68949B"/>
<path d="M88.0998 206.212H75.2998V208.812H88.0998V206.212Z" fill="#68949B"/>
<path d="M84.5998 213.212C84.5998 213.312 84.5998 213.413 84.4998 213.613C84.4998 213.713 84.3998 213.813 84.2998 213.913C84.1998 214.013 84.0998 214.113 83.9998 214.113C83.8998 214.113 83.7998 214.212 83.5998 214.212H22.7998V212.312H83.5998C83.6998 212.312 83.7998 212.313 83.9998 212.413C84.0998 212.413 84.1998 212.513 84.2998 212.613C84.3998 212.713 84.4998 212.813 84.4998 212.913C84.4998 213.013 84.5998 213.112 84.5998 213.212Z" fill="#AAD6E2"/>
<path d="M112.2 359.013C112.2 359.413 111.3 359.812 109.6 360.112C108.5 360.312 107.2 360.512 105.5 360.812C96.8999 361.912 80.7999 362.612 62.4999 362.612C44.1999 362.612 27.9999 361.912 19.4999 360.812C17.8999 360.613 16.4999 360.412 15.3999 360.112C14.0999 359.812 13.2999 359.512 12.9999 359.212L12.8999 359.112C12.8999 359.012 12.8999 359.013 12.8999 358.913C12.8999 356.913 35.1999 355.312 62.5999 355.312C89.9999 355.312 112.2 357.013 112.2 359.013Z" fill="#AAD6E2"/>
<path d="M102.099 212.213V214.113H90.6992C90.4992 214.113 90.1992 214.013 89.9992 213.813C89.7992 213.613 89.6992 213.413 89.6992 213.113C89.6992 212.813 89.7992 212.613 89.9992 212.413C90.1992 212.213 90.3992 212.113 90.6992 212.113H102.099V212.213Z" fill="#AAD6E2"/>
<path d="M40.2998 199.813C40.2998 199.913 40.2998 200.013 40.3998 200.213C40.3998 200.313 40.4998 200.413 40.5998 200.513C40.6998 200.613 40.7998 200.713 40.8998 200.713C40.9998 200.713 41.0998 200.813 41.2998 200.813H102.1V198.913H41.2998C41.1998 198.913 41.0998 198.913 40.8998 199.013C40.7998 199.013 40.6998 199.113 40.5998 199.213C40.4998 199.313 40.3998 199.413 40.3998 199.513C40.2998 199.613 40.2998 199.713 40.2998 199.813Z" fill="white"/>
<path d="M22.7998 198.913V200.812H34.1998C34.3998 200.812 34.6998 200.712 34.8998 200.512C35.0998 200.312 35.1998 200.112 35.1998 199.812C35.1998 199.613 35.0998 199.313 34.8998 199.113C34.6998 198.913 34.4998 198.812 34.1998 198.812H22.7998V198.913Z" fill="white"/>
<path d="M72.4998 353.013L44.7998 365.213L47.9998 358.013L37.7998 356.713L65.2998 344.613L72.4998 353.013Z" fill="#E6F4FC"/>
<path d="M64.3001 335.213L29.6001 332.413L38.7001 337.813L30.9001 341.813L65.3001 344.613L64.3001 335.213Z" fill="#E6F4FC"/>
<path d="M75.3997 323.112C74.2997 323.312 72.4997 320.512 71.4997 320.812C70.3997 321.112 70.3997 324.412 69.3997 324.812C68.3997 325.312 65.8997 323.112 64.9997 323.712C64.0997 324.312 65.0997 327.412 64.2997 328.212C63.4997 329.012 60.3997 327.812 59.7997 328.712C59.1997 329.612 61.3997 332.012 60.9997 333.112C60.5997 334.112 57.2997 334.412 57.1997 335.512C56.9997 336.612 60.0997 337.812 60.1997 338.912C60.2997 340.012 57.3997 341.612 57.6997 342.712C57.9997 343.712 61.2997 343.712 61.6997 344.712C62.2997 345.912 60.1997 348.612 60.9997 349.712C61.6997 350.812 64.9997 349.812 65.8997 350.812C66.7997 351.712 65.6997 354.912 66.6997 355.812C67.6997 356.612 70.5997 354.912 71.6997 355.612C72.7997 356.312 72.4997 359.612 73.6997 360.212C74.8997 360.812 77.2997 358.412 78.4997 358.812C79.6997 359.212 80.1997 362.612 81.4997 362.912C82.7997 363.212 84.5997 360.412 85.8997 360.512C87.1997 360.612 88.3997 363.812 89.6997 363.812C90.9997 363.812 92.0997 360.612 93.3997 360.412C94.4997 360.212 96.2997 363.012 97.2997 362.712C98.3997 362.412 98.3997 359.112 99.3997 358.712C100.4 358.212 102.9 360.412 103.8 359.812C104.7 359.212 103.7 356.112 104.5 355.312C105.3 354.512 108.4 355.712 109 354.812C109.6 353.912 107.4 351.512 107.8 350.412C108.2 349.412 111.5 349.112 111.6 348.012C111.8 346.912 108.7 345.712 108.6 344.612C108.5 343.512 111.4 341.912 111.1 340.812C110.8 339.812 107.5 339.812 107.1 338.812C106.5 337.612 108.6 334.912 107.8 333.812C107.1 332.712 103.8 333.712 102.9 332.712C102 331.812 103.1 328.612 102.1 327.712C101.1 326.912 98.1997 328.612 97.0997 327.912C95.9997 327.212 96.2997 323.912 95.0997 323.312C93.8997 322.712 91.4997 325.112 90.2997 324.712C89.0997 324.312 88.5997 320.912 87.2997 320.612C85.9997 320.312 84.1997 323.112 82.8997 323.012C81.5997 322.912 80.3997 319.712 79.0997 319.712C77.7997 319.712 76.6997 322.912 75.3997 323.112Z" fill="#68949B"/>
<path d="M101.2 347.612C103.6 340.812 98 332.612 88.8 329.412C79.6 326.212 70.1 329.112 67.8 335.912C65.4 342.712 71 350.912 80.2 354.112C89.4 357.312 98.8 354.412 101.2 347.612Z" fill="#BDE5EF"/>
<path d="M93.2001 339.913L87.1001 338.613C86.9001 338.613 86.7001 338.413 86.6001 338.313L83.6001 333.713C83.3001 333.313 82.6001 333.213 82.4001 333.613L80.0001 337.613C79.9001 337.713 79.9001 337.713 79.8001 337.813C79.7001 337.813 79.6001 337.913 79.5001 337.913H73.5001C73.0001 337.913 72.8001 338.413 73.2001 338.813L77.8001 342.613C77.9001 342.713 77.9001 342.713 78.0001 342.813C78.0001 342.913 78.1001 343.013 78.0001 343.113L77.3001 347.713C77.2001 348.113 77.8001 348.513 78.3001 348.413L83.5001 346.813C83.7001 346.713 83.9001 346.813 84.1001 346.913L89.6001 349.713C90.1001 350.013 90.7001 349.713 90.5001 349.213L89.1001 344.413C89.1001 344.313 89.1001 344.213 89.1001 344.113C89.1001 344.013 89.2001 344.013 89.3001 343.913L93.4001 341.013C94.0001 340.613 93.8001 340.013 93.2001 339.913Z" fill="#8AB6C1"/>
<path d="M32.2998 338.712C32.2998 338.712 33.3998 345.512 37.5998 352.712C41.6998 359.812 55.5998 364.212 55.5998 364.212L50.6998 357.212L61.0998 358.712C61.0998 358.712 50.1998 354.212 48.0998 350.512C45.9998 346.812 44.4998 337.512 44.4998 337.512L32.2998 338.712Z" fill="#8AB6C1"/>
<path d="M44.1001 337.013C44.1001 337.013 47.3001 343.113 53.7001 348.613C59.9001 354.013 74.4001 353.813 74.4001 353.813L67.5001 348.713L77.9001 346.813C77.9001 346.813 66.1001 346.013 62.9001 343.213C59.7001 340.413 55.4001 332.113 55.4001 332.113L44.1001 337.013Z" fill="#8AB6C1"/>
<path d="M58.2999 313.012C58.6999 314.112 56.1999 316.212 56.4999 317.312C56.7999 318.512 59.9999 319.012 60.1999 320.112C60.3999 321.312 57.4999 322.712 57.4999 323.812C57.4999 325.012 60.4999 326.312 60.2999 327.412C60.1999 328.612 56.9999 329.212 56.6999 330.312C56.3999 331.512 58.7999 333.612 58.1999 334.612C57.6999 335.712 54.4999 335.112 53.7999 336.012C53.0999 336.912 54.3999 339.912 53.4999 340.612C52.5999 341.312 49.9999 339.412 48.9999 339.912C47.9999 340.412 47.7999 343.612 46.5999 343.812C45.2999 344.112 43.7999 341.212 42.4999 341.212C41.1999 341.212 39.5999 344.012 38.2999 343.712C37.0999 343.412 36.6999 340.212 35.4999 339.712C34.2999 339.212 31.7999 341.312 30.6999 340.712C29.5999 340.112 30.1999 336.812 29.1999 336.012C28.1999 335.212 25.1999 336.612 24.2999 335.712C23.3999 334.812 24.6999 331.812 23.8999 330.812C23.0999 329.812 19.8999 330.512 19.1999 329.512C18.4999 328.412 20.4999 325.812 19.8999 324.612C19.2999 323.512 15.9999 323.512 15.5999 322.312C15.1999 321.212 17.6999 319.112 17.3999 318.012C17.0999 316.812 13.8999 316.312 13.6999 315.212C13.4999 314.012 16.3999 312.612 16.3999 311.512C16.3999 310.312 13.3999 309.012 13.5999 307.912C13.6999 306.712 16.8999 306.112 17.1999 305.012C17.4999 303.812 15.0999 301.712 15.6999 300.712C16.1999 299.612 19.3999 300.212 20.0999 299.312C20.7999 298.412 19.4999 295.412 20.3999 294.712C21.2999 294.012 23.8999 295.912 24.8999 295.412C25.8999 294.912 26.0999 291.712 27.2999 291.512C28.5999 291.212 30.0999 294.112 31.3999 294.112C32.6999 294.112 34.2999 291.312 35.5999 291.612C36.7999 291.912 37.1999 295.112 38.3999 295.612C39.5999 296.112 42.0999 294.012 43.1999 294.612C44.2999 295.212 43.6999 298.512 44.6999 299.312C45.6999 300.112 48.6999 298.712 49.5999 299.612C50.4999 300.512 49.1999 303.512 49.9999 304.512C50.7999 305.512 53.9999 304.812 54.6999 305.812C55.3999 306.912 53.3999 309.512 53.9999 310.712C54.5999 311.812 57.7999 311.812 58.2999 313.012Z" fill="#68949B"/>
<path d="M46.5001 332.812C52.7001 328.912 53.4001 318.913 48.0001 310.513C42.7001 302.113 33.3001 298.513 27.2001 302.513C21.0001 306.413 20.3001 316.412 25.7001 324.812C31.0001 333.112 40.4001 336.712 46.5001 332.812Z" fill="#8AB6C1"/>
<path d="M33.8998 308.413L37.9998 313.213C38.0998 313.313 38.0998 313.313 38.1998 313.413C38.2998 313.413 38.3998 313.513 38.4998 313.513L43.4998 313.413C43.9998 313.413 44.3998 314.013 44.1998 314.413L42.3998 319.213C42.3998 319.313 42.3998 319.413 42.3998 319.513C42.3998 319.613 42.3998 319.713 42.4998 319.813L45.4998 325.413C45.7998 325.913 45.4998 326.413 44.9998 326.213L39.7998 324.313C39.6998 324.313 39.5998 324.313 39.4998 324.313C39.3998 324.313 39.2998 324.413 39.2998 324.413L36.0998 328.013C35.7998 328.313 35.1998 328.013 35.0998 327.513L33.6998 321.613C33.5998 321.413 33.4998 321.213 33.2998 321.113L28.3998 317.713C27.8998 317.413 27.8998 316.713 28.2998 316.513L32.6998 314.713C32.7998 314.713 32.8998 314.613 32.8998 314.513C32.8998 314.413 32.9998 314.313 32.9998 314.213L33.0998 308.513C32.8998 308.113 33.4998 307.913 33.8998 308.413Z" fill="#BDE5EF"/>
<path d="M78.1998 309.813C78.1998 309.813 73.9998 315.213 66.7998 319.613C59.7998 323.813 45.4998 321.113 45.4998 321.113L53.1998 317.313L43.2998 313.613C43.2998 313.613 54.9998 314.913 58.6998 312.613C62.2998 310.413 68.0998 302.913 68.0998 302.913L78.1998 309.813Z" fill="#D7F0F9"/>
<path d="M68.7 302.712C68.7 302.712 63 306.512 54.7 308.312C46.7 310.012 34 302.912 34 302.912L42.5 301.812L34.3 295.112C34.3 295.112 45 300.112 49.2 299.112C53.3 298.112 61.2 293.012 61.2 293.012L68.7 302.712Z" fill="#D7F0F9"/>
<path d="M69.7997 277.112C68.8997 277.912 65.8997 276.512 65.1997 277.312C64.3997 278.212 65.8997 281.012 65.1997 281.912C64.4997 282.912 61.2997 282.112 60.6997 283.112C60.0997 284.112 62.2997 286.512 61.8997 287.612C61.3997 288.712 58.1997 288.912 57.8997 290.012C57.5997 291.212 60.4997 292.712 60.3997 293.912C60.2997 295.112 57.3997 296.412 57.5997 297.612C57.7997 298.812 60.9997 299.012 61.4997 300.112C61.8997 301.212 59.8997 303.712 60.5997 304.612C61.2997 305.512 64.2997 304.312 65.1997 305.112C66.1997 305.912 65.5997 309.212 66.6997 309.812C67.7997 310.412 70.1997 308.012 71.3997 308.412C72.5997 308.812 73.2997 312.012 74.5997 312.112C75.8997 312.212 77.2997 309.312 78.5997 309.212C79.8997 309.212 81.3997 312.112 82.6997 311.912C83.9997 311.712 84.5997 308.512 85.7997 308.112C86.9997 307.812 89.1997 310.212 90.3997 309.712C91.5997 309.212 91.4997 305.912 92.5997 305.312C93.6997 304.712 96.3997 306.612 97.4997 305.912C98.5997 305.212 97.6997 302.012 98.6997 301.112C99.5997 300.312 102.6 301.712 103.3 300.912C104.1 300.012 102.6 297.212 103.3 296.312C104 295.312 107.2 296.112 107.8 295.112C108.4 294.112 106.2 291.712 106.6 290.612C107.1 289.512 110.3 289.312 110.6 288.212C110.9 287.012 108 285.512 108.1 284.312C108.2 283.112 111.1 281.812 110.9 280.612C110.7 279.412 107.5 279.212 107 278.112C106.6 277.012 108.6 274.512 107.9 273.612C107.2 272.712 104.2 273.912 103.3 273.112C102.3 272.312 102.9 269.012 101.8 268.412C100.7 267.812 98.2997 270.212 97.0997 269.812C95.8997 269.412 95.1997 266.212 93.8997 266.112C92.5997 266.012 91.1997 268.912 89.8997 269.012C88.5997 269.012 87.0997 266.112 85.7997 266.312C84.4997 266.512 83.8997 269.712 82.6997 270.112C81.4997 270.412 79.2997 268.012 78.0997 268.512C76.8997 269.012 76.9997 272.312 75.8997 272.912C74.7997 273.512 72.0997 271.612 70.9997 272.312C69.8997 273.012 70.7997 276.212 69.7997 277.112Z" fill="#AAD6E2"/>
<path d="M90.6999 300.812C99.3999 296.012 103.6 286.912 100.1 280.512C96.5999 274.112 86.6999 272.812 77.9999 277.612C69.2999 282.412 65.0999 291.512 68.5999 297.912C72.0999 304.212 81.9999 305.512 90.6999 300.812Z" fill="#BDE5EF"/>
<path d="M91.3997 282.512L85.4997 284.812C85.3997 284.812 85.2997 284.912 85.1997 284.912C85.0997 284.912 84.9997 284.912 84.8997 284.812L80.5997 282.312C80.1997 282.112 79.4997 282.412 79.4997 282.912L78.7997 288.012C78.7997 288.112 78.6997 288.212 78.6997 288.312C78.5997 288.412 78.5997 288.512 78.4997 288.512L73.1997 292.012C72.6997 292.312 72.6997 292.912 73.1997 293.012L78.6997 293.912C78.7997 293.912 78.8997 293.912 78.8997 294.012C78.9997 294.112 78.9997 294.112 78.9997 294.212L79.9997 298.912C80.0997 299.312 80.7997 299.312 81.0997 298.912L85.1997 294.412C85.3997 294.212 85.5997 294.112 85.7997 294.112L91.6997 293.512C92.1997 293.412 92.5997 292.912 92.3997 292.512L89.3997 288.812C89.2997 288.712 89.2997 288.612 89.2997 288.512C89.2997 288.412 89.2997 288.312 89.3997 288.212L91.9997 283.212C92.3997 282.612 91.9997 282.312 91.3997 282.512Z" fill="#E6F4FC"/>
<path d="M33.6001 280.612C33.6001 280.612 34.9001 287.413 39.4001 294.513C43.8001 301.413 57.7001 305.513 57.7001 305.513L52.6001 298.712L63.1001 299.913C63.1001 299.913 52.1001 295.712 49.8001 292.112C47.6001 288.512 45.8001 279.312 45.8001 279.312L33.6001 280.612Z" fill="#8AB6C1"/>
<path d="M45.2998 278.612C45.2998 278.612 48.6998 284.613 55.1998 289.913C61.5998 295.113 76.0998 294.413 76.0998 294.413L69.0998 289.612L79.3998 287.312C79.3998 287.312 67.5998 286.912 64.2998 284.212C61.0998 281.412 56.3998 273.312 56.3998 273.312L45.2998 278.612Z" fill="#8AB6C1"/>
<path d="M58.6998 254.212C59.1998 255.312 56.6998 257.412 57.0998 258.512C57.3998 259.612 60.5998 260.112 60.7998 261.212C60.9998 262.412 58.1998 263.912 58.2998 265.012C58.3998 266.212 61.2998 267.412 61.1998 268.512C61.0998 269.712 57.9998 270.412 57.6998 271.512C57.3998 272.712 59.7998 274.712 59.3998 275.812C58.8998 276.912 55.7998 276.412 55.0998 277.312C54.3998 278.212 55.7998 281.112 54.8998 281.912C53.9998 282.612 51.3998 280.812 50.2998 281.412C49.2998 281.912 49.1998 285.112 47.9998 285.412C46.6998 285.712 45.0998 282.912 43.7998 282.912C42.4998 282.912 40.9998 285.812 39.6998 285.512C38.4998 285.312 37.9998 282.012 36.7998 281.612C35.5998 281.212 33.1998 283.312 31.9998 282.712C30.8998 282.112 31.3998 278.912 30.2998 278.112C29.2998 277.412 26.3998 278.812 25.3998 278.012C24.4998 277.112 25.6998 274.112 24.7998 273.112C23.9998 272.112 20.7998 273.012 20.0998 271.912C19.3998 270.912 21.1998 268.212 20.5998 267.012C19.9998 265.912 16.6998 266.012 16.1998 264.812C15.6998 263.712 18.1998 261.612 17.7998 260.512C17.4998 259.412 14.2998 258.912 14.0998 257.812C13.8998 256.612 16.6998 255.112 16.5998 254.012C16.4998 252.812 13.5998 251.612 13.6998 250.512C13.7998 249.312 16.8998 248.612 17.1998 247.512C17.4998 246.312 15.0998 244.312 15.4998 243.212C15.9998 242.112 19.0998 242.612 19.7998 241.712C20.4998 240.812 19.0998 237.912 19.9998 237.112C20.8998 236.412 23.4998 238.212 24.5998 237.612C25.5998 237.112 25.6998 233.912 26.8998 233.612C28.1998 233.312 29.7998 236.112 31.0998 236.112C32.3998 236.112 33.8998 233.312 35.1998 233.512C36.3998 233.712 36.8998 237.012 38.0998 237.412C39.2998 237.812 41.6998 235.712 42.8998 236.312C43.9998 236.912 43.4998 240.112 44.5998 240.912C45.5998 241.612 48.4998 240.212 49.4998 241.012C50.3998 241.912 49.1998 244.912 50.0998 245.912C50.8998 246.912 54.0998 246.012 54.7998 247.112C55.4998 248.112 53.6998 250.812 54.2998 252.012C54.9998 253.112 58.1998 253.012 58.6998 254.212Z" fill="#AAD6E2"/>
<path d="M47.5997 274.313C53.5997 270.213 53.9997 260.213 48.3997 252.013C42.7997 243.813 33.3997 240.513 27.2997 244.613C21.2997 248.713 20.8997 258.713 26.4997 266.913C32.0997 275.213 41.4997 278.513 47.5997 274.313Z" fill="#8AB6C1"/>
<path d="M34.1999 250.312L38.3999 255.012C38.4999 255.112 38.4999 255.112 38.5999 255.212C38.6999 255.212 38.7999 255.312 38.8999 255.312L43.8999 255.012C44.3999 255.012 44.7999 255.612 44.5999 256.012L42.8999 260.812C42.8999 260.912 42.8999 261.012 42.8999 261.112C42.8999 261.212 42.9999 261.312 42.9999 261.412L46.1999 266.912C46.4999 267.412 46.1999 267.912 45.6999 267.812L40.3999 266.112C40.2999 266.112 40.1999 266.112 40.0999 266.112C39.9999 266.112 39.8999 266.212 39.8999 266.212L36.8999 269.912C36.5999 270.212 35.9999 269.912 35.8999 269.412L34.2999 263.512C34.1999 263.312 34.0999 263.112 33.8999 263.012L28.8999 259.812C28.3999 259.512 28.2999 258.812 28.6999 258.612L32.9999 256.712C33.0999 256.712 33.0999 256.612 33.1999 256.512C33.1999 256.412 33.2999 256.312 33.2999 256.212L33.1999 250.512C33.1999 250.012 33.7999 249.912 34.1999 250.312Z" fill="#BDE5EF"/>
<path d="M70.8999 337.812L51.9999 362.013L52.4999 352.812L43.8999 355.312L62.5999 331.312L70.8999 337.812Z" fill="#BDE5EF"/>
<path d="M58.9997 321.512L30.1997 331.912L39.0997 334.312L33.9997 341.712L62.5997 331.412L58.9997 321.512Z" fill="#BDE5EF"/>
<path d="M64.7 303.413C63.7 304.113 61 302.813 60.2 303.613C59.3 304.513 60.6 307.113 59.9 308.113C59.2 309.113 56.2 308.713 55.7 309.713C55.2 310.813 57.2 312.913 56.8 314.013C56.4 315.113 53.5 315.713 53.3 316.813C53.1 318.013 55.7 319.413 55.7 320.613C55.7 321.813 53.1 323.213 53.3 324.413C53.5 325.613 56.4 326.113 56.8 327.213C57.2 328.313 55.1 330.513 55.6 331.513C56.1 332.513 59.1 332.113 59.8 333.113C60.5 334.113 59.2 336.813 60 337.613C60.9 338.513 63.5 337.213 64.5 337.913C65.5 338.613 65.1 341.613 66.1 342.113C67.2 342.613 69.3 340.613 70.4 341.013C71.5 341.413 72.1 344.313 73.2 344.513C74.4 344.713 75.8 342.113 77 342.113C78.2 342.113 79.6 344.713 80.8 344.513C82 344.313 82.5 341.413 83.6 341.013C84.7 340.613 86.9 342.713 87.9 342.213C88.9 341.713 88.5 338.713 89.5 338.013C90.5 337.313 93.2 338.613 94 337.813C94.9 336.913 93.6 334.313 94.3 333.313C95 332.313 98 332.713 98.5 331.713C99 330.613 97 328.513 97.4 327.413C97.8 326.313 100.7 325.713 100.9 324.613C101.1 323.413 98.5 322.013 98.5 320.813C98.5 319.613 101.1 318.213 100.9 317.013C100.7 315.813 97.8 315.313 97.4 314.213C97 313.113 99.1 310.913 98.6 309.913C98.1 308.913 95.1 309.313 94.4 308.313C93.7 307.313 95 304.613 94.2 303.813C93.3 302.913 90.7 304.213 89.7 303.513C88.7 302.813 89.1 299.813 88.1 299.313C87 298.813 84.9 300.813 83.8 300.413C82.7 300.013 82.1 297.113 81 296.913C79.8 296.713 78.4 299.313 77.2 299.313C76 299.313 74.6 296.713 73.4 296.913C72.2 297.113 71.7 300.013 70.6 300.413C69.5 300.813 67.3 298.713 66.3 299.213C65.3 299.813 65.7 302.713 64.7 303.413Z" fill="#8AB6C1"/>
<path d="M77.3001 336.013C85.7001 336.013 92.5001 329.213 92.5001 320.813C92.5001 312.413 85.7001 305.613 77.3001 305.613C68.9001 305.613 62.1001 312.413 62.1001 320.813C62.1001 329.113 68.9001 336.013 77.3001 336.013Z" fill="#BDE5EF"/>
<path d="M83.8001 315.412L78.5001 316.312C78.4001 316.312 78.3001 316.312 78.2001 316.312C78.1001 316.312 78.0001 316.212 78.0001 316.112L74.3001 312.212C74.2001 312.112 74.1001 312.112 74.0001 312.012C73.9001 311.912 73.8001 312.012 73.7001 312.012C73.6001 312.012 73.5001 312.112 73.4001 312.212C73.3001 312.312 73.3001 312.412 73.3001 312.512L72.5001 317.812C72.5001 317.912 72.4001 318.012 72.4001 318.112C72.3001 318.212 72.3001 318.212 72.2001 318.312L67.4001 320.712C67.3001 320.712 67.2001 320.812 67.2001 320.912C67.1001 321.012 67.1001 321.112 67.1001 321.212C67.1001 321.312 67.1001 321.412 67.2001 321.512C67.3001 321.612 67.3001 321.712 67.4001 321.712L72.2001 324.112C72.3001 324.112 72.4001 324.212 72.4001 324.312C72.5001 324.412 72.5001 324.512 72.5001 324.612L73.3001 329.912C73.3001 330.012 73.4001 330.112 73.4001 330.212C73.5001 330.312 73.6001 330.312 73.7001 330.412C73.8001 330.412 73.9001 330.412 74.0001 330.412C74.1001 330.412 74.2001 330.312 74.3001 330.212L78.1001 326.412C78.2001 326.312 78.3001 326.312 78.3001 326.212C78.4001 326.212 78.5001 326.212 78.6001 326.212L83.9001 327.112C84.0001 327.112 84.1001 327.112 84.2001 327.112C84.3001 327.112 84.4001 327.012 84.5001 326.912C84.6001 326.812 84.6001 326.712 84.6001 326.612C84.6001 326.512 84.6001 326.412 84.5001 326.312L82.0001 321.512C82.0001 321.412 81.9001 321.312 81.9001 321.212C81.9001 321.112 81.9001 321.012 82.0001 320.912L84.5001 316.112C84.6001 316.012 84.6001 315.912 84.6001 315.812C84.6001 315.712 84.6001 315.612 84.5001 315.512C84.4001 315.412 84.3001 315.312 84.2001 315.312C84.0001 315.412 83.9001 315.312 83.8001 315.412Z" fill="#8AB6C1"/>
<path d="M85.2001 266.512L84.1001 297.112L79.1001 289.312L73.6001 296.412L74.7001 266.012L85.2001 266.512Z" fill="#68949B"/>
<path d="M65.9998 260.312L48.7998 285.612L57.3998 282.312L57.5998 291.312L74.6998 266.212L65.9998 260.312Z" fill="#68949B"/>
<path d="M59.9997 242.312C59.5997 243.512 56.6997 244.012 56.4997 245.112C56.2997 246.312 58.8997 247.712 58.8997 248.912C58.8997 250.112 56.2997 251.512 56.4997 252.712C56.6997 253.912 59.5997 254.412 59.9997 255.512C60.3997 256.612 58.2997 258.812 58.7997 259.812C59.2997 260.912 62.2997 260.512 62.9997 261.412C63.6997 262.412 62.3997 265.012 63.1997 265.912C63.9997 266.712 66.6997 265.512 67.6997 266.212C68.6997 266.912 68.1997 269.812 69.2997 270.412C70.2997 270.912 72.4997 268.912 73.5997 269.312C74.7997 269.712 75.2997 272.612 76.3997 272.812C77.5997 273.012 78.9997 270.412 80.1997 270.412C81.3997 270.412 82.7997 273.012 83.9997 272.812C85.1997 272.612 85.6997 269.712 86.7997 269.312C87.8997 268.912 90.0997 271.012 91.0997 270.512C92.1997 270.012 91.7997 267.012 92.6997 266.312C93.6997 265.612 96.2997 266.912 97.1997 266.112C97.9997 265.312 96.7997 262.612 97.4997 261.612C98.1997 260.612 101.1 261.112 101.7 260.012C102.2 259.012 100.2 256.812 100.6 255.712C101 254.512 103.9 254.012 104.1 252.912C104.3 251.712 101.7 250.312 101.7 249.112C101.7 247.912 104.3 246.512 104.1 245.312C103.9 244.112 101 243.612 100.6 242.512C100.2 241.412 102.3 239.212 101.8 238.212C101.3 237.112 98.2997 237.512 97.5997 236.612C96.8997 235.612 98.1997 233.012 97.3997 232.112C96.5997 231.312 93.8997 232.512 92.8997 231.812C91.8997 231.112 92.3997 228.212 91.2997 227.612C90.2997 227.112 88.0997 229.112 86.9997 228.712C85.7997 228.312 85.2997 225.412 84.1997 225.212C82.9997 225.012 81.5997 227.612 80.3997 227.612C79.1997 227.612 77.7997 225.012 76.5997 225.212C75.3997 225.412 74.8997 228.312 73.7997 228.712C72.6997 229.112 70.4997 227.012 69.4997 227.512C68.3997 228.012 68.7997 231.012 67.8997 231.712C66.8997 232.412 64.2997 231.112 63.3997 231.912C62.5997 232.712 63.7997 235.412 63.0997 236.412C62.3997 237.412 59.4997 236.912 58.8997 238.012C58.2997 239.012 60.3997 241.112 59.9997 242.312Z" fill="#8AB6C1"/>
<path d="M91.0998 259.713C96.9998 253.813 96.9998 244.113 91.0998 238.213C85.1998 232.313 75.4998 232.313 69.5998 238.213C63.6998 244.113 63.6998 253.813 69.5998 259.713C75.4998 265.613 85.1998 265.613 91.0998 259.713Z" fill="#BDE5EF"/>
<path d="M82.4997 240.813L78.6997 244.613C78.5997 244.713 78.4997 244.713 78.4997 244.813C78.3997 244.813 78.2997 244.813 78.1997 244.813L72.8997 243.913C72.7997 243.913 72.6997 243.913 72.5997 243.913C72.4997 243.913 72.3997 244.013 72.2997 244.113C72.1997 244.213 72.1997 244.313 72.1997 244.413C72.1997 244.513 72.1997 244.613 72.2997 244.713L74.7997 249.513C74.7997 249.613 74.8997 249.713 74.8997 249.813C74.8997 249.913 74.8997 250.013 74.7997 250.113L72.2997 254.913C72.1997 255.013 72.1997 255.113 72.1997 255.213C72.1997 255.313 72.1997 255.413 72.2997 255.513C72.3997 255.613 72.4997 255.713 72.5997 255.713C72.6997 255.713 72.7997 255.813 72.8997 255.713L78.1997 254.813C78.2997 254.813 78.3997 254.813 78.4997 254.813C78.5997 254.813 78.6997 254.913 78.6997 255.013L82.3997 258.913C82.4997 259.013 82.5997 259.013 82.6997 259.113C82.7997 259.113 82.8997 259.113 82.9997 259.113C83.0997 259.113 83.1997 259.013 83.2997 258.913C83.3997 258.813 83.3997 258.713 83.3997 258.613L84.1997 253.313C84.1997 253.213 84.2997 253.113 84.2997 253.013C84.3997 252.913 84.3997 252.913 84.4997 252.813L89.3997 250.313C89.4997 250.313 89.5997 250.213 89.5997 250.113C89.6997 250.013 89.6997 249.913 89.6997 249.813C89.6997 249.713 89.6997 249.613 89.5997 249.513C89.4997 249.413 89.4997 249.313 89.3997 249.313L84.5997 246.913C84.4997 246.913 84.3997 246.813 84.3997 246.713C84.2997 246.613 84.2997 246.513 84.2997 246.413L83.4997 241.113C83.4997 241.013 83.3997 240.913 83.3997 240.813C83.2997 240.713 83.1997 240.713 83.0997 240.613C82.9997 240.613 82.8997 240.613 82.7997 240.613C82.5997 240.613 82.4997 240.713 82.4997 240.813Z" fill="#8AB6C1"/>
<path d="M112.8 360.912C112.8 362.112 112.1 362.712 112.1 362.712C111.9 363.112 111 363.412 109.6 363.712C103 365.112 84.4 366.112 62.5 366.112C40.6 366.112 22 365.112 15.4 363.712C14.1 363.412 13.2 363.112 12.9 362.812C12.6 362.612 12.4 362.412 12.2 362.112C12 361.812 12 361.512 12 361.112C12 359.912 12.8 359.012 12.8 359.012C12.8 359.112 12.8 359.112 12.8 359.212C12.8 359.312 12.9 359.312 12.9 359.312C13.2 359.612 14.1 359.912 15.3 360.212C16.4 360.412 17.7 360.612 19.4 360.912C28 362.012 44.1 362.712 62.4 362.712C80.8 362.712 96.9 362.012 105.4 360.912C107 360.712 108.4 360.512 109.5 360.212C111.2 359.812 112.1 359.512 112.1 359.112C112.2 359.012 112.8 359.612 112.8 360.912Z" fill="#8AB6C1"/>
<path opacity="0.58" d="M112.2 247.113V359.013C112.2 359.413 111.3 359.812 109.6 360.112C108.5 360.312 107.2 360.512 105.5 360.812C96.8999 361.913 80.7999 362.612 62.4999 362.612C44.1999 362.612 27.9999 361.913 19.4999 360.812C17.8999 360.613 16.4999 360.412 15.3999 360.112C14.0999 359.812 13.2999 359.512 12.9999 359.212L12.8999 359.112C12.8999 359.012 12.8999 359.013 12.8999 358.913V247.113C12.8999 243.113 14.0999 239.312 16.3999 236.012L26.2999 221.812H98.9999L108.9 236.012C110.9 239.212 112.2 243.113 112.2 247.113Z" fill="url(#paint20_linear)"/>
<path d="M50.8997 296.613L41.1997 330.313L49.3997 323.613L52.7997 333.313L62.3997 299.913L50.8997 296.613Z" fill="url(#paint21_linear)"/>
<path d="M73.8999 296.613L83.5999 330.313L75.3999 323.613L71.9999 333.313L62.3999 299.913L73.8999 296.613Z" fill="url(#paint22_linear)"/>
<path d="M90 279.212C90 280.612 86.8 281.712 86.6 283.012C86.4 284.412 89.1 286.412 88.7 287.712C88.3 289.012 84.9 289.112 84.3 290.312C83.7 291.512 85.6 294.312 84.8 295.412C84 296.512 80.7 295.512 79.8 296.512C78.8 297.512 79.8 300.712 78.7 301.512C77.6 302.312 74.8 300.412 73.6 301.012C72.4 301.612 72.3 305.012 71 305.412C69.7 305.812 67.7 303.112 66.3 303.312C65 303.512 63.9 306.712 62.5 306.712C61.1 306.712 60 303.512 58.7 303.312C57.3 303.112 55.3 305.812 54 305.412C52.7 305.012 52.6 301.612 51.4 301.012C50.2 300.412 47.4 302.312 46.3 301.512C45.2 300.712 46.2 297.412 45.2 296.512C44.2 295.512 41 296.512 40.2 295.412C39.4 294.312 41.3 291.512 40.7 290.312C40.1 289.112 36.7 289.012 36.3 287.712C35.9 286.412 38.6 284.412 38.4 283.012C38.2 281.712 35 280.612 35 279.212C35 277.812 38.2 276.712 38.4 275.412C38.6 274.012 35.9 272.012 36.3 270.712C36.7 269.412 40.1 269.312 40.7 268.112C41.3 266.912 39.4 264.112 40.2 263.012C41 261.912 44.3 262.912 45.2 261.912C46.2 260.912 45.2 257.712 46.3 256.912C47.4 256.112 50.2 258.012 51.4 257.412C52.6 256.812 52.7 253.412 54 253.012C55.3 252.612 57.3 255.312 58.7 255.112C60 254.912 61.1 251.712 62.5 251.712C63.9 251.712 65 254.912 66.3 255.112C67.7 255.312 69.7 252.612 71 253.012C72.3 253.412 72.4 256.812 73.6 257.412C74.8 258.012 77.6 256.112 78.7 256.912C79.8 257.712 78.8 261.012 79.8 261.912C80.8 262.912 84 261.912 84.8 263.012C85.6 264.112 83.7 266.912 84.3 268.112C84.9 269.312 88.3 269.412 88.7 270.712C89.1 272.012 86.4 274.012 86.6 275.412C86.8 276.712 90 277.812 90 279.212Z" fill="url(#paint23_linear)"/>
<path d="M62.4 296.612C72 296.612 79.8 288.812 79.8 279.212C79.8 269.612 72 261.812 62.4 261.812C52.8 261.812 45 269.612 45 279.212C45 288.812 52.8 296.612 62.4 296.612Z" fill="white"/>
<path d="M62.9998 269.612L65.6998 275.112C65.6998 275.212 65.7998 275.312 65.8998 275.412C65.9998 275.512 66.0998 275.512 66.1998 275.512L72.2998 276.412C72.3998 276.412 72.4998 276.512 72.5998 276.612C72.6998 276.712 72.7998 276.812 72.7998 276.912C72.7998 277.012 72.7998 277.212 72.7998 277.312C72.7998 277.412 72.6998 277.512 72.5998 277.612L68.1998 281.912C68.0998 282.012 68.0998 282.112 67.9998 282.212C67.9998 282.312 67.9998 282.412 67.9998 282.512L68.9998 288.612C68.9998 288.712 68.9998 288.912 68.9998 289.012C68.9998 289.112 68.8998 289.212 68.7998 289.312C68.6998 289.412 68.5998 289.412 68.3998 289.412C68.2998 289.412 68.0998 289.412 67.9998 289.312L62.5998 286.412C62.4998 286.312 62.3998 286.312 62.2998 286.312C62.1998 286.312 62.0998 286.312 61.9998 286.412L56.5998 289.312C56.4998 289.412 56.3998 289.412 56.1998 289.412C56.0998 289.412 55.9998 289.312 55.7998 289.312C55.6998 289.212 55.5998 289.112 55.5998 289.012C55.5998 288.912 55.4998 288.812 55.5998 288.612L56.5998 282.512C56.5998 282.412 56.5998 282.312 56.5998 282.212C56.5998 282.112 56.4998 282.012 56.3998 281.912L51.9998 277.612C51.8998 277.512 51.7998 277.412 51.7998 277.312C51.7998 277.212 51.7998 277.012 51.7998 276.912C51.7998 276.812 51.8998 276.712 51.9998 276.612C52.0998 276.512 52.1998 276.512 52.2998 276.412L58.3998 275.512C58.4998 275.512 58.5998 275.412 58.6998 275.412C58.7998 275.312 58.8998 275.212 58.8998 275.112L61.5998 269.612C61.6998 269.512 61.6998 269.412 61.8998 269.312C61.9998 269.212 62.0998 269.212 62.2998 269.212C62.3998 269.212 62.5998 269.212 62.6998 269.312C62.8998 269.312 62.8998 269.412 62.9998 269.612Z" fill="url(#paint24_linear)"/>
</g>
<defs>
<filter id="filter0_d" x="-12" y="-8" width="624" height="474" filterUnits="userSpaceOnUse" color-interpolation-filters="sRGB">
<feFlood flood-opacity="0" result="BackgroundImageFix"/>
<feColorMatrix in="SourceAlpha" type="matrix" values="0 0 0 0 0 0 0 0 0 0 0 0 0 0 0 0 0 0 127 0" result="hardAlpha"/>
<feOffset dy="4"/>
<feGaussianBlur stdDeviation="6"/>
<feColorMatrix type="matrix" values="0 0 0 0 0 0 0 0 0 0 0 0 0 0 0 0 0 0 0.3 0"/>
<feBlend mode="normal" in2="BackgroundImageFix" result="effect1_dropShadow"/>
<feBlend mode="normal" in="SourceGraphic" in2="effect1_dropShadow" result="shape"/>
</filter>
<linearGradient id="paint0_linear" x1="26.1844" y1="301.763" x2="115.468" y2="278.925" gradientUnits="userSpaceOnUse">
<stop stop-color="white"/>
<stop offset="1" stop-color="#B1E2F8"/>
</linearGradient>
<linearGradient id="paint1_linear" x1="121.29" y1="97.8394" x2="131.855" y2="97.8394" gradientUnits="userSpaceOnUse">
<stop stop-color="#75DAFF"/>
<stop offset="1" stop-color="#00BAFF"/>
</linearGradient>
<linearGradient id="paint2_linear" x1="141.399" y1="97.8394" x2="151.964" y2="97.8394" gradientUnits="userSpaceOnUse">
<stop stop-color="#75DAFF"/>
<stop offset="1" stop-color="#00BAFF"/>
</linearGradient>
<linearGradient id="paint3_linear" x1="161.218" y1="97.8394" x2="171.784" y2="97.8394" gradientUnits="userSpaceOnUse">
<stop stop-color="#75DAFF"/>
<stop offset="1" stop-color="#00BAFF"/>
</linearGradient>
<linearGradient id="paint4_linear" x1="143.794" y1="239.895" x2="233.236" y2="239.895" gradientUnits="userSpaceOnUse">
<stop stop-color="#75DAFF"/>
<stop offset="1" stop-color="#00BAFF"/>
</linearGradient>
<linearGradient id="paint5_linear" x1="143.794" y1="290.297" x2="392.797" y2="290.297" gradientUnits="userSpaceOnUse">
<stop stop-color="#75DAFF"/>
<stop offset="1" stop-color="#00BAFF"/>
</linearGradient>
<linearGradient id="paint6_linear" x1="478.921" y1="283.807" x2="547.853" y2="283.807" gradientUnits="userSpaceOnUse">
<stop stop-color="#75DAFF"/>
<stop offset="1" stop-color="#00BAFF"/>
</linearGradient>
<linearGradient id="paint7_linear" x1="553.643" y1="157.588" x2="556.491" y2="157.588" gradientUnits="userSpaceOnUse">
<stop stop-color="#71439A"/>
<stop offset="0.8668" stop-color="#A76CAD"/>
</linearGradient>
<linearGradient id="paint8_linear" x1="455.22" y1="191.223" x2="548.517" y2="191.223" gradientUnits="userSpaceOnUse">
<stop stop-color="#71439A"/>
<stop offset="0.8668" stop-color="#A76CAD"/>
</linearGradient>
<linearGradient id="paint9_linear" x1="454.817" y1="231.999" x2="457.123" y2="231.999" gradientUnits="userSpaceOnUse">
<stop stop-color="#71439A"/>
<stop offset="0.8668" stop-color="#A76CAD"/>
</linearGradient>
<linearGradient id="paint10_linear" x1="562.379" y1="162.373" x2="582.508" y2="162.373" gradientUnits="userSpaceOnUse">
<stop stop-color="#71439A"/>
<stop offset="0.8668" stop-color="#A76CAD"/>
</linearGradient>
<linearGradient id="paint11_linear" x1="562.379" y1="164.454" x2="579.085" y2="164.454" gradientUnits="userSpaceOnUse">
<stop stop-color="#71439A"/>
<stop offset="0.8668" stop-color="#A76CAD"/>
</linearGradient>
<linearGradient id="paint12_linear" x1="562.379" y1="158.252" x2="588.481" y2="158.252" gradientUnits="userSpaceOnUse">
<stop stop-color="#71439A"/>
<stop offset="0.8668" stop-color="#A76CAD"/>
</linearGradient>
<linearGradient id="paint13_linear" x1="272.919" y1="178.502" x2="475.797" y2="178.502" gradientUnits="userSpaceOnUse">
<stop stop-color="#42B4E7"/>
<stop offset="1" stop-color="#B1E2F8"/>
</linearGradient>
<linearGradient id="paint14_linear" x1="297.818" y1="167.153" x2="324.571" y2="167.153" gradientUnits="userSpaceOnUse">
<stop stop-color="#71439A"/>
<stop offset="0.8668" stop-color="#A76CAD"/>
</linearGradient>
<linearGradient id="paint15_linear" x1="330.262" y1="167.157" x2="357.015" y2="167.157" gradientUnits="userSpaceOnUse">
<stop stop-color="#71439A"/>
<stop offset="0.8668" stop-color="#A76CAD"/>
</linearGradient>
<linearGradient id="paint16_linear" x1="362.705" y1="167.157" x2="389.458" y2="167.157" gradientUnits="userSpaceOnUse">
<stop stop-color="#71439A"/>
<stop offset="0.8668" stop-color="#A76CAD"/>
</linearGradient>
<linearGradient id="paint17_linear" x1="394.306" y1="166.941" x2="421.058" y2="166.941" gradientUnits="userSpaceOnUse">
<stop stop-color="#71439A"/>
<stop offset="0.8668" stop-color="#A76CAD"/>
</linearGradient>
<linearGradient id="paint18_linear" x1="425.379" y1="166.822" x2="452.131" y2="166.822" gradientUnits="userSpaceOnUse">
<stop stop-color="#71439A"/>
<stop offset="0.8668" stop-color="#A76CAD"/>
</linearGradient>
<linearGradient id="paint19_linear" x1="22.8493" y1="200.25" x2="102.055" y2="200.25" gradientUnits="userSpaceOnUse">
<stop stop-color="#71439A"/>
<stop offset="0.8668" stop-color="#A76CAD"/>
</linearGradient>
<linearGradient id="paint20_linear" x1="25.5954" y1="301.763" x2="114.879" y2="278.925" gradientUnits="userSpaceOnUse">
<stop stop-color="#42B4E7"/>
<stop offset="1" stop-color="#B1E2F8"/>
</linearGradient>
<linearGradient id="paint21_linear" x1="41.1746" y1="314.984" x2="62.3952" y2="314.984" gradientUnits="userSpaceOnUse">
<stop stop-color="#71439A"/>
<stop offset="0.8668" stop-color="#A76CAD"/>
</linearGradient>
<linearGradient id="paint22_linear" x1="62.3943" y1="314.984" x2="83.615" y2="314.984" gradientUnits="userSpaceOnUse">
<stop stop-color="#71439A"/>
<stop offset="0.8668" stop-color="#A76CAD"/>
</linearGradient>
<linearGradient id="paint23_linear" x1="34.7932" y1="279.221" x2="89.9964" y2="279.221" gradientUnits="userSpaceOnUse">
<stop stop-color="#71439A"/>
<stop offset="0.8668" stop-color="#A76CAD"/>
</linearGradient>
<linearGradient id="paint24_linear" x1="51.8806" y1="279.221" x2="72.9082" y2="279.221" gradientUnits="userSpaceOnUse">
<stop stop-color="#71439A"/>
<stop offset="0.8668" stop-color="#A76CAD"/>
</linearGradient>
</defs>
</svg>
