<svg width="65" height="65" viewBox="0 0 65 65" fill="none" xmlns="http://www.w3.org/2000/svg">
<path d="M62.1996 12C62.1996 10.4 60.8996 9.20001 59.3996 9.20001H5.39961C3.79961 9.20001 2.59961 10.5 2.59961 12V55.2C2.59961 56.8 3.89961 58 5.39961 58H59.3996C60.9996 58 62.1996 56.7 62.1996 55.2V12Z" stroke="#00B9F2" stroke-width="2" stroke-miterlimit="10"/>
<path d="M42.4998 44.8H22.2998V49.2H42.4998V44.8Z" stroke="#00B9F2" stroke-width="2" stroke-miterlimit="10" stroke-linecap="round" stroke-linejoin="round"/>
<path d="M2.7998 18.1L62.3998 18.2" stroke="#00B9F2" stroke-width="2" stroke-miterlimit="10"/>
<path d="M7.09961 13.8H20.2996" stroke="#00B9F2" stroke-width="2" stroke-miterlimit="10" stroke-linecap="round" stroke-linejoin="round"/>
<path d="M42.4994 33.6C43.6592 33.6 44.5994 32.6598 44.5994 31.5C44.5994 30.3402 43.6592 29.4 42.4994 29.4C41.3396 29.4 40.3994 30.3402 40.3994 31.5C40.3994 32.6598 41.3396 33.6 42.4994 33.6Z" stroke="#00B9F2" stroke-width="2" stroke-miterlimit="10" stroke-linecap="round" stroke-linejoin="round"/>
<path d="M57.8992 14C58.0097 14 58.0992 13.9105 58.0992 13.8C58.0992 13.6896 58.0097 13.6 57.8992 13.6C57.7888 13.6 57.6992 13.6896 57.6992 13.8C57.6992 13.9105 57.7888 14 57.8992 14Z" stroke="#00B9F2" stroke-width="2" stroke-miterlimit="10" stroke-linecap="round" stroke-linejoin="round"/>
<path d="M37.2 26.8H16V36.1H20.3L20.4 31.4H24.8V35.3L29.4 35.2V31.3H35.4" stroke="#00B9F2" stroke-width="2" stroke-miterlimit="10" stroke-linecap="round" stroke-linejoin="round"/>
<path d="M42.5 37.8C46.0899 37.8 49 34.8898 49 31.3C49 27.7101 46.0899 24.8 42.5 24.8C38.9101 24.8 36 27.7101 36 31.3C36 34.8898 38.9101 37.8 42.5 37.8Z" stroke="#00B9F2" stroke-width="2" stroke-miterlimit="10" stroke-linecap="round" stroke-linejoin="round"/>
</svg>
