<svg width="65" height="65" viewBox="0 0 65 65" fill="none" xmlns="http://www.w3.org/2000/svg">
<path d="M56.1998 14.5C59.4583 14.5 62.0998 11.8585 62.0998 8.60001C62.0998 5.34153 59.4583 2.70001 56.1998 2.70001C52.9413 2.70001 50.2998 5.34153 50.2998 8.60001C50.2998 11.8585 52.9413 14.5 56.1998 14.5Z" stroke="#00B9F2" stroke-width="2" stroke-miterlimit="10"/>
<path d="M47.2 53C50.0719 53 52.4 50.6719 52.4 47.8C52.4 44.9282 50.0719 42.6 47.2 42.6C44.3281 42.6 42 44.9282 42 47.8C42 50.6719 44.3281 53 47.2 53Z" stroke="#00B9F2" stroke-width="2" stroke-miterlimit="10"/>
<path d="M28.1996 26.7C29.3594 26.7 30.2996 25.7598 30.2996 24.6C30.2996 23.4402 29.3594 22.5 28.1996 22.5C27.0398 22.5 26.0996 23.4402 26.0996 24.6C26.0996 25.7598 27.0398 26.7 28.1996 26.7Z" stroke="#00B9F2" stroke-width="2" stroke-miterlimit="10"/>
<path d="M37.1996 17.7C38.3594 17.7 39.2996 16.7598 39.2996 15.6C39.2996 14.4402 38.3594 13.5 37.1996 13.5C36.0398 13.5 35.0996 14.4402 35.0996 15.6C35.0996 16.7598 36.0398 17.7 37.1996 17.7Z" stroke="#00B9F2" stroke-width="2" stroke-miterlimit="10"/>
<path d="M43.1996 23.7C44.3594 23.7 45.2996 22.7598 45.2996 21.6C45.2996 20.4402 44.3594 19.5 43.1996 19.5C42.0398 19.5 41.0996 20.4402 41.0996 21.6C41.0996 22.7598 42.0398 23.7 43.1996 23.7Z" stroke="#00B9F2" stroke-width="2" stroke-miterlimit="10"/>
<path d="M47.2002 56.5C52.1708 56.5 56.2002 52.4706 56.2002 47.5C56.2002 42.5294 52.1708 38.5 47.2002 38.5C42.2296 38.5 38.2002 42.5294 38.2002 47.5C38.2002 52.4706 42.2296 56.5 47.2002 56.5Z" stroke="#00B9F2" stroke-width="2" stroke-miterlimit="10"/>
<path d="M47.1996 62.8C55.5391 62.8 62.2996 56.0395 62.2996 47.7C62.2996 39.3605 55.5391 32.6 47.1996 32.6C38.8601 32.6 32.0996 39.3605 32.0996 47.7C32.0996 56.0395 38.8601 62.8 47.1996 62.8Z" stroke="#00B9F2" stroke-width="2" stroke-miterlimit="10"/>
<path d="M10.2998 35.6H6.2998V43.7H10.2998V35.6Z" stroke="#00B9F2" stroke-width="2" stroke-miterlimit="10" stroke-linecap="round" stroke-linejoin="round"/>
<path d="M18.2002 37.6H14.2002V43.7H18.2002V37.6Z" stroke="#00B9F2" stroke-width="2" stroke-miterlimit="10" stroke-linecap="round" stroke-linejoin="round"/>
<path d="M26.2002 29.5H22.2002V43.6H26.2002V29.5Z" stroke="#00B9F2" stroke-width="2" stroke-miterlimit="10" stroke-linecap="round" stroke-linejoin="round"/>
<path d="M10.2998 13.6H22.4998" stroke="#00B9F2" stroke-width="2" stroke-miterlimit="10" stroke-linecap="round" stroke-linejoin="round"/>
<path d="M10.0996 17.6H22.3996" stroke="#00B9F2" stroke-width="2" stroke-miterlimit="10" stroke-linecap="round" stroke-linejoin="round"/>
<path d="M10.0996 21.6H22.3996" stroke="#00B9F2" stroke-width="2" stroke-miterlimit="10" stroke-linecap="round" stroke-linejoin="round"/>
<path d="M10.0996 25.6H22.3996" stroke="#00B9F2" stroke-width="2" stroke-miterlimit="10" stroke-linecap="round" stroke-linejoin="round"/>
<path d="M6.09961 13.6H6.39961" stroke="#00B9F2" stroke-width="2" stroke-miterlimit="10" stroke-linecap="round" stroke-linejoin="round"/>
<path d="M6.09961 17.6H6.39961" stroke="#00B9F2" stroke-width="2" stroke-miterlimit="10" stroke-linecap="round" stroke-linejoin="round"/>
<path d="M6.09961 21.6H6.39961" stroke="#00B9F2" stroke-width="2" stroke-miterlimit="10" stroke-linecap="round" stroke-linejoin="round"/>
<path d="M6.09961 25.6H6.39961" stroke="#00B9F2" stroke-width="2" stroke-miterlimit="10" stroke-linecap="round" stroke-linejoin="round"/>
<path d="M56.2002 35.2V15.4" stroke="#00B9F2" stroke-width="2" stroke-miterlimit="10" stroke-linecap="round" stroke-linejoin="round"/>
<path d="M47.2002 38.6V33.3" stroke="#00B9F2" stroke-width="2" stroke-miterlimit="10" stroke-linecap="round" stroke-linejoin="round"/>
<path d="M41.1998 19.6L39.2998 17.7" stroke="#00B9F2" stroke-width="2" stroke-miterlimit="10" stroke-linecap="round" stroke-linejoin="round"/>
<path d="M29.8994 23L35.1994 17.5" stroke="#00B9F2" stroke-width="2" stroke-miterlimit="10" stroke-linecap="round" stroke-linejoin="round"/>
<path d="M45.0996 19.9L51.1996 13.6" stroke="#00B9F2" stroke-width="2" stroke-miterlimit="10" stroke-linecap="round" stroke-linejoin="round"/>
<path d="M34.7998 54.7L38.4998 52.5" stroke="#00B9F2" stroke-width="2" stroke-miterlimit="10" stroke-linecap="round" stroke-linejoin="round"/>
<path d="M55.7002 52.2L59.4002 54.5" stroke="#00B9F2" stroke-width="2" stroke-miterlimit="10" stroke-linecap="round" stroke-linejoin="round"/>
<path d="M50.2998 9.40002H5.0998C3.4998 9.40002 2.2998 10.7 2.2998 12.2V44.9C2.2998 46.5 3.5998 47.7 5.0998 47.7L32.0998 47.6" stroke="#00B9F2" stroke-width="2" stroke-miterlimit="10" stroke-linecap="round" stroke-linejoin="round"/>
<path d="M32.6998 43.6H30.2998V33.6H34.1998V38.6V39.6" stroke="#00B9F2" stroke-width="2" stroke-miterlimit="10" stroke-linecap="round" stroke-linejoin="round"/>
</svg>
