<svg width="600" height="457" viewBox="0 0 600 457" fill="none" xmlns="http://www.w3.org/2000/svg">
<g filter="url(#filter0_d)">
<path d="M552.1 27.7H46.6998C34.8998 27.7 25.2998 37.5 25.2998 49.5V394.3C25.2998 406.4 34.8998 416.1 46.6998 416.1H552.1C563.9 416.1 573.5 406.3 573.5 394.3V49.5C573.5 37.5 563.9 27.7 552.1 27.7Z" fill="#86888A"/>
<path d="M546.6 35.2H53.4C41.9 35.2 32.5 44.5999 32.5 56.0999V386C32.5 397.5 41.9 406.9 53.4 406.9H546.5C558 406.9 567.4 397.5 567.4 386V56.0999C567.5 44.5999 558.1 35.2 546.6 35.2Z" fill="#E9F7FE"/>
<path d="M84.6998 58.9H59.4998C58.4998 58.9 57.5998 58.5 56.8998 57.8C56.1998 57.1 55.7998 56.2 55.7998 55.2C55.7998 54.7 55.8998 54.2 56.0998 53.8C56.2998 53.4 56.5998 52.9 56.8998 52.6C57.1998 52.3 57.5998 52 58.0998 51.8C58.4998 51.6 58.9998 51.5 59.4998 51.5H84.5998C85.0998 51.5 85.5998 51.6 85.9998 51.8C86.3998 52 86.8998 52.3 87.1998 52.6C87.4998 52.9 87.7998 53.3 87.9998 53.8C88.1998 54.2 88.2998 54.7 88.2998 55.2C88.2998 56.2 87.8998 57.1 87.1998 57.8C86.5998 58.5 85.6998 58.9 84.6998 58.9Z" fill="url(#paint0_linear)"/>
<path d="M144.7 58.9H119.6C119.1 58.9 118.6 58.8 118.2 58.6C117.8 58.4 117.3 58.1 117 57.8C116.7 57.5 116.4 57.1 116.2 56.6C116 56.2 115.9 55.7 115.9 55.2C115.9 54.7 116 54.2 116.2 53.8C116.4 53.4 116.7 52.9 117 52.6C117.3 52.3 117.7 52 118.2 51.8C118.6 51.6 119.1 51.5 119.6 51.5H144.7C145.7 51.5 146.6 51.9 147.3 52.6C148 53.3 148.4 54.2 148.4 55.2C148.4 56.2 148 57.1 147.3 57.8C146.6 58.5 145.6 58.9 144.7 58.9Z" fill="url(#paint1_linear)"/>
<path d="M200.3 58.9H175.2C174.2 58.9 173.3 58.5 172.6 57.8C171.9 57.1 171.5 56.2 171.5 55.2C171.5 54.7 171.6 54.2 171.8 53.8C172 53.4 172.3 52.9 172.6 52.6C172.9 52.3 173.3 52 173.8 51.8C174.2 51.6 174.7 51.5 175.2 51.5H200.3C201.3 51.5 202.2 51.9 202.9 52.6C203.6 53.3 204 54.2 204 55.2C204 56.2 203.6 57.1 202.9 57.8C202.2 58.5 201.3 58.9 200.3 58.9Z" fill="url(#paint2_linear)"/>
<path d="M388 63.8H256.6C255.5 63.8 254.3 63.6 253.3 63.1C252.2 62.7 251.3 62 250.5 61.2C249.7 60.4 249.1 59.4 248.6 58.4C248.2 57.3 247.9 56.2 247.9 55.1C247.9 52.8 248.8 50.6 250.4 49C252 47.4 254.2 46.5 256.5 46.5H388C390.3 46.5 392.5 47.4 394.1 49C395.7 50.6 396.6 52.8 396.6 55.1C396.6 57.4 395.7 59.6 394.1 61.2C392.5 62.8 390.3 63.8 388 63.8Z" fill="url(#paint3_linear)"/>
<path d="M518.1 55.2001C518.1 56.0001 517.9 56.7001 517.4 57.4001C517 58.0001 516.4 58.5001 515.6 58.8001C514.9 59.1001 514.1 59.2001 513.3 59.0001C512.5 58.8001 511.8 58.5001 511.3 57.9001C510.8 57.4001 510.4 56.7001 510.2 55.9001C510 55.1001 510.1 54.4001 510.4 53.6001C510.7 52.9001 511.2 52.3001 511.8 51.8001C512.4 51.4001 513.2 51.1001 514 51.1001C515 51.1001 516 51.5001 516.8 52.2001C517.7 53.1001 518.1 54.1001 518.1 55.2001Z" fill="url(#paint4_linear)"/>
<path d="M533.2 59.1C535.4 59.1 537.1 57.4001 537.1 55.2001C537.1 53.0001 535.4 51.3 533.2 51.3C531 51.3 529.3 53.0001 529.3 55.2001C529.3 57.3001 531 59.1 533.2 59.1Z" fill="url(#paint5_linear)"/>
<path d="M554.9 55.2001C554.9 56.0001 554.7 56.7001 554.2 57.4001C553.8 58.0001 553.2 58.5001 552.4 58.8001C551.6 59.1001 550.9 59.2001 550.1 59.0001C549.3 58.8001 548.6 58.5001 548.1 57.9001C547.6 57.4001 547.2 56.7001 547 55.9001C546.8 55.1001 546.9 54.4001 547.2 53.6001C547.5 52.9001 548 52.3001 548.6 51.8001C549.2 51.4001 550 51.1001 550.8 51.1001C551.8 51.1001 552.8 51.5001 553.6 52.2001C554.4 53.1001 554.9 54.1001 554.9 55.2001Z" fill="url(#paint6_linear)"/>
<path d="M142.9 120H77.8002C68.9002 120 61.7002 127.2 61.7002 136.1V201.2C61.7002 210.1 68.9002 217.3 77.8002 217.3H142.9C151.8 217.3 159 210.1 159 201.2V136.1C159.1 127.2 151.8 120 142.9 120Z" fill="url(#paint7_linear)"/>
<path d="M144.9 228.9C144.9 228.9 142.7 228.9 139.9 228.9H76.8001C74.0001 228.9 71.7001 228.9 71.5001 228.8C71.3001 228.7 70.8001 228 70.6001 227.6C70.6001 227.6 70.6001 227.6 70.6001 227.1C70.6001 226.6 70.7001 226.2 70.9001 225.9C71.1001 225.6 71.1001 225.6 71.1001 225.6C71.4001 225.5 74.0001 225.4 76.7001 225.4H139.8C142.6 225.4 144.9 225.4 145.1 225.5C145.3 225.6 145.8 226.3 146 226.7C146 226.7 146 226.7 146 227.2C146 227.7 145.9 228.1 145.7 228.4C145.5 228.7 145.5 228.7 145.5 228.7C145.2 228.9 144.9 228.9 144.9 228.9Z" fill="#C2C2C2"/>
<path d="M293.9 228.5C293.9 228.5 291.7 228.5 288.9 228.5H225.8C223 228.5 220.7 228.5 220.5 228.4C220.3 228.3 219.8 227.6 219.6 227.2C219.6 227.2 219.6 227.2 219.6 226.7C219.6 226.2 219.7 225.8 219.9 225.5C220.1 225.2 220.1 225.2 220.1 225.2C220.4 225.1 223 225 225.7 225H288.8C291.6 225 293.9 225 294.1 225.1C294.3 225.2 294.8 225.9 295 226.3C295 226.3 295 226.3 295 226.8C295 227.3 294.9 227.7 294.7 228C294.5 228.3 294.5 228.3 294.5 228.3C294.2 228.4 293.9 228.5 293.9 228.5Z" fill="#C2C2C2"/>
<path d="M144.5 376.1C144.5 376.1 142.3 376.1 139.5 376.1H76.4002C73.6002 376.1 71.3002 376.1 71.1002 376C70.9002 375.9 70.4002 375.2 70.2002 374.8C70.2002 374.8 70.2002 374.8 70.2002 374.3C70.2002 373.8 70.3002 373.4 70.5002 373.1C70.7002 372.8 70.7002 372.8 70.7002 372.8C71.0002 372.7 73.6002 372.6 76.3002 372.6H139.4C142.2 372.6 144.5 372.6 144.7 372.7C144.9 372.8 145.4 373.5 145.6 373.9C145.6 373.9 145.6 373.9 145.6 374.4C145.6 374.9 145.5 375.3 145.3 375.6C145.1 375.9 145.1 375.9 145.1 375.9C144.7 376 144.5 376.1 144.5 376.1Z" fill="#C2C2C2"/>
<path d="M294.4 375.6C294.4 375.6 292.2 375.6 289.4 375.6H226.3C223.5 375.6 221.2 375.6 221 375.5C220.8 375.4 220.3 374.7 220.1 374.3C220.1 374.3 220.1 374.3 220.1 373.8C220.1 373.3 220.2 372.9 220.4 372.6C220.6 372.3 220.6 372.3 220.6 372.3C220.9 372.2 223.5 372.1 226.2 372.1H289.3C292.1 372.1 294.4 372.1 294.6 372.2C294.8 372.3 295.3 373 295.5 373.4C295.5 373.4 295.5 373.4 295.5 373.9C295.5 374.4 295.4 374.8 295.2 375.1C295 375.4 295 375.4 295 375.4C294.7 375.5 294.4 375.6 294.4 375.6Z" fill="#C2C2C2"/>
<path d="M156.7 385.8C156.7 385.8 154.5 385.8 151.7 385.8H62.8998C60.0998 385.8 57.6998 385.8 57.4998 385.7C57.2998 385.6 56.5998 384.9 56.2998 384.5C56.2998 384.5 56.2998 384.5 56.2998 384C56.2998 383.5 56.4998 383.1 56.7998 382.7C57.0998 382.4 57.0998 382.4 57.0998 382.4C57.5998 382.3 60.1998 382.2 62.8998 382.2H151.7C154.5 382.2 156.9 382.2 157.1 382.3C157.3 382.4 158 383.1 158.3 383.5C158.3 383.5 158.3 383.5 158.3 384C158.3 384.5 158.1 384.9 157.8 385.3C157.5 385.6 157.5 385.6 157.5 385.6C157.1 385.7 156.7 385.8 156.7 385.8Z" fill="#C2C2C2"/>
<path d="M306.1 396.5C306.1 396.5 303.9 396.5 301.1 396.5H212.3C209.5 396.5 207.1 396.5 206.9 396.4C206.7 396.3 206 395.6 205.7 395.2C205.7 395.2 205.7 395.2 205.7 394.7C205.7 394.2 205.9 393.8 206.2 393.4C206.5 393.1 206.5 393.1 206.5 393.1C207 393 209.6 392.9 212.3 392.9H301.1C303.9 392.9 306.3 392.9 306.5 393C306.7 393.1 307.4 393.8 307.7 394.2C307.7 394.2 307.7 394.2 307.7 394.7C307.7 395.2 307.5 395.6 307.2 396C306.9 396.3 306.9 396.3 306.9 396.3C306.5 396.4 306.1 396.5 306.1 396.5Z" fill="#C2C2C2"/>
<path d="M307.1 386.8C307.1 386.8 304.9 386.8 302.1 386.8H213.3C210.5 386.8 208.1 386.8 207.9 386.7C207.7 386.6 207 385.9 206.7 385.5C206.7 385.5 206.7 385.5 206.7 385C206.7 384.5 206.9 384.1 207.2 383.7C207.5 383.4 207.5 383.4 207.5 383.4C208 383.3 210.6 383.2 213.3 383.2H302.1C304.9 383.2 307.3 383.2 307.5 383.3C307.7 383.4 308.4 384.1 308.7 384.5C308.7 384.5 308.7 384.5 308.7 385C308.7 385.5 308.5 385.9 308.2 386.3C307.9 386.6 307.9 386.6 307.9 386.6C307.5 386.7 307.1 386.8 307.1 386.8Z" fill="#C2C2C2"/>
<path d="M157.2 239.1C157.2 239.1 155 239.1 152.2 239.1H63.3998C60.5998 239.1 58.1998 239.1 57.9998 239C57.7998 238.9 57.0998 238.2 56.7998 237.8C56.7998 237.8 56.7998 237.8 56.7998 237.3C56.7998 236.8 56.9998 236.4 57.2998 236C57.5998 235.7 57.5998 235.7 57.5998 235.7C58.0998 235.6 60.6998 235.5 63.3998 235.5H152.2C155 235.5 157.4 235.5 157.6 235.6C157.8 235.7 158.5 236.4 158.8 236.8C158.8 236.8 158.8 236.8 158.8 237.3C158.8 237.8 158.6 238.2 158.3 238.6C158 239 158 239 158 239C157.5 239.1 157.2 239.1 157.2 239.1Z" fill="#C2C2C2"/>
<path d="M156.7 396.5C156.7 396.5 154.5 396.5 151.7 396.5H62.8998C60.0998 396.5 57.6998 396.5 57.4998 396.4C57.2998 396.3 56.5998 395.6 56.2998 395.2C56.2998 395.2 56.2998 395.2 56.2998 394.7C56.2998 394.2 56.4998 393.8 56.7998 393.4C57.0998 393.1 57.0998 393.1 57.0998 393.1C57.5998 393 60.1998 392.9 62.8998 392.9H151.7C154.5 392.9 156.9 392.9 157.1 393C157.3 393.1 158 393.8 158.3 394.2C158.3 394.2 158.3 394.2 158.3 394.7C158.3 395.2 158.1 395.6 157.8 396C157.5 396.3 157.5 396.3 157.5 396.3C157.1 396.4 156.7 396.5 156.7 396.5Z" fill="#C2C2C2"/>
<path d="M305.2 238.2C305.2 238.2 303 238.2 300.2 238.2H211.4C208.6 238.2 206.2 238.2 206 238.1C205.8 238 205.1 237.3 204.8 236.9C204.8 236.9 204.8 236.9 204.8 236.4C204.8 235.9 205 235.5 205.3 235.1C205.6 234.8 205.6 234.8 205.6 234.8C206.1 234.7 208.7 234.6 211.4 234.6H300.2C303 234.6 305.4 234.6 305.6 234.7C305.8 234.8 306.5 235.5 306.8 235.9C306.8 235.9 306.8 235.9 306.8 236.4C306.8 236.9 306.6 237.3 306.3 237.7C306 238 306 238 306 238C305.6 238.1 305.2 238.2 305.2 238.2Z" fill="#C2C2C2"/>
<path d="M304.3 248.4C304.3 248.4 302.1 248.4 299.3 248.4H210.5C207.7 248.4 205.3 248.4 205.1 248.3C204.9 248.2 204.2 247.5 203.9 247.1C203.9 247.1 203.9 247.1 203.9 246.6C203.9 246.1 204.1 245.7 204.4 245.3C204.7 245 204.7 245 204.7 245C205.2 244.9 207.8 244.8 210.5 244.8H299.3C302.1 244.8 304.5 244.8 304.7 244.9C304.9 245 305.6 245.7 305.9 246.1C305.9 246.1 305.9 246.1 305.9 246.6C305.9 247.1 305.7 247.5 305.4 247.9C305.1 248.2 305.1 248.2 305.1 248.2C304.7 248.3 304.3 248.4 304.3 248.4Z" fill="#C2C2C2"/>
<path d="M156.7 248.4C156.7 248.4 154.5 248.4 151.7 248.4H62.8998C60.0998 248.4 57.6998 248.4 57.4998 248.3C57.2998 248.2 56.5998 247.5 56.2998 247.1C56.2998 247.1 56.2998 247.1 56.2998 246.6C56.2998 246.1 56.4998 245.7 56.7998 245.3C57.0998 245 57.0998 245 57.0998 245C57.5998 244.9 60.1998 244.8 62.8998 244.8H151.7C154.5 244.8 156.9 244.8 157.1 244.9C157.3 245 158 245.7 158.3 246.1C158.3 246.1 158.3 246.1 158.3 246.6C158.3 247.1 158.1 247.5 157.8 247.9C157.5 248.2 157.5 248.2 157.5 248.2C157.1 248.3 156.7 248.4 156.7 248.4Z" fill="#C2C2C2"/>
<path d="M142.9 267.5H77.8002C68.9002 267.5 61.7002 274.7 61.7002 283.6V348.7C61.7002 357.6 68.9002 364.8 77.8002 364.8H142.9C151.8 364.8 159 357.6 159 348.7V283.6C159.1 274.7 151.8 267.5 142.9 267.5Z" fill="url(#paint8_linear)"/>
<path d="M290.4 267.5H225.3C216.4 267.5 209.2 274.7 209.2 283.6V348.7C209.2 357.6 216.4 364.8 225.3 364.8H290.4C299.3 364.8 306.5 357.6 306.5 348.7V283.6C306.5 274.7 299.3 267.5 290.4 267.5Z" fill="url(#paint9_linear)"/>
<path d="M290.2 118.7H225C216.1 118.7 208.9 125.9 208.9 134.8V200C208.9 208.9 216.1 216.1 225 216.1H290.1C299 216.1 306.2 208.9 306.2 200V134.9C306.3 126 299.1 118.7 290.2 118.7Z" fill="url(#paint10_linear)"/>
<path d="M390.4 389.3C389.1 389.3 387.9 388.8 387 387.9C386.1 387 385.6 385.8 385.6 384.5V124.8C385.6 123.5 386.1 122.3 387 121.4C387.9 120.5 389.1 120 390.4 120C391.7 120 392.9 120.5 393.8 121.4C394.7 122.3 395.2 123.5 395.2 124.8V384.6C395.2 385.9 394.7 387.1 393.8 388C392.9 388.8 391.7 389.3 390.4 389.3Z" fill="#C2C2C2"/>
<path d="M390.9 266.2C388.7 266.2 386.6 265.3 385.1 263.8C383.6 262.3 382.7 260.2 382.7 258V235C382.7 232.8 383.6 230.7 385.1 229.2C386.6 227.7 388.7 226.8 390.9 226.8C392 226.8 393.1 227 394.1 227.4C395.1 227.8 396 228.4 396.8 229.2C397.6 230 398.2 230.9 398.6 231.9C399 232.9 399.2 234 399.2 235.1V258.1C399.2 259.2 399 260.3 398.6 261.3C398.2 262.3 397.6 263.2 396.8 264C396 264.8 395.1 265.4 394.1 265.8C393 266 392 266.2 390.9 266.2Z" fill="url(#paint11_linear)"/>
<path d="M520.6 120H458.4C447.3 120 438.2 129 438.2 140.2V371.4C438.2 382.5 447.2 391.6 458.4 391.6H520.6C531.7 391.6 540.8 382.6 540.8 371.4V140.1C540.7 129 531.7 120 520.6 120Z" fill="url(#paint12_linear)"/>
<path d="M489.5 195.9C504.3 195.9 516.4 183.9 516.4 169C516.4 154.2 504.4 142.1 489.5 142.1C474.6 142.1 462.6 154.1 462.6 169C462.6 183.8 474.7 195.9 489.5 195.9Z" fill="white"/>
<path d="M110.1 175.1C121.5 175.1 130.7 165.9 130.7 154.5C130.7 143.1 121.5 133.9 110.1 133.9C98.7 133.9 89.5 143.1 89.5 154.5C89.5 165.9 98.7 175.1 110.1 175.1Z" fill="white"/>
<path d="M257.4 176.9C268.8 176.9 278 167.7 278 156.3C278 144.9 268.8 135.7 257.4 135.7C246 135.7 236.8 144.9 236.8 156.3C236.7 167.7 246 176.9 257.4 176.9Z" fill="white"/>
<path d="M109.5 324.2C120.9 324.2 130.1 315 130.1 303.6C130.1 292.2 120.9 283 109.5 283C98.0999 283 88.8999 292.2 88.8999 303.6C88.8999 315 98.0999 324.2 109.5 324.2Z" fill="white"/>
<path d="M256.8 324.2C268.2 324.2 277.4 315 277.4 303.6C277.4 292.2 268.2 283 256.8 283C245.4 283 236.2 292.2 236.2 303.6C236.2 315 245.4 324.2 256.8 324.2Z" fill="white"/>
<path d="M531.9 205.7H447.4C446.8 205.7 446.2 205.5 445.8 205.2C445.4 204.9 445.1 204.4 445.1 204C445.1 203.5 445.3 203.1 445.8 202.8C446.2 202.5 446.8 202.3 447.4 202.3H531.9C532.5 202.3 533.1 202.5 533.5 202.8C533.9 203.1 534.2 203.6 534.2 204C534.2 204.5 534 204.9 533.5 205.2C533.1 205.6 532.5 205.7 531.9 205.7Z" fill="white"/>
<path d="M531.9 215.2H447.4C446.8 215.2 446.2 215 445.8 214.7C445.4 214.4 445.1 213.9 445.1 213.5C445.1 213 445.3 212.6 445.8 212.3C446.2 212 446.8 211.8 447.4 211.8H531.9C532.5 211.8 533.1 212 533.5 212.3C533.9 212.6 534.2 213.1 534.2 213.5C534.2 214 534 214.4 533.5 214.7C533.1 215.1 532.5 215.2 531.9 215.2Z" fill="white"/>
<path d="M531.9 225.4H447.4C446.8 225.4 446.2 225.2 445.8 224.9C445.4 224.6 445.1 224.1 445.1 223.7C445.1 223.2 445.3 222.8 445.8 222.5C446.2 222.2 446.8 222 447.4 222H531.9C532.5 222 533.1 222.2 533.5 222.5C533.9 222.8 534.2 223.3 534.2 223.7C534.2 224.2 534 224.6 533.5 224.9C533.1 225.2 532.5 225.4 531.9 225.4Z" fill="white"/>
<path d="M531.9 235.5H447.4C446.8 235.5 446.2 235.3 445.8 235C445.4 234.7 445.1 234.2 445.1 233.8C445.1 233.3 445.3 232.9 445.8 232.6C446.2 232.3 446.8 232.1 447.4 232.1H531.9C532.5 232.1 533.1 232.3 533.5 232.6C533.9 232.9 534.2 233.4 534.2 233.8C534.2 234.3 534 234.7 533.5 235C533.1 235.3 532.5 235.5 531.9 235.5Z" fill="white"/>
<path d="M531.6 261.5H447.1C446.5 261.5 445.9 261.3 445.5 261C445.1 260.7 444.8 260.2 444.8 259.8C444.8 259.3 445 258.9 445.5 258.6C445.9 258.3 446.5 258.1 447.1 258.1H531.6C532.2 258.1 532.8 258.3 533.2 258.6C533.6 258.9 533.9 259.4 533.9 259.8C533.9 260.3 533.7 260.7 533.2 261C532.8 261.3 532.2 261.5 531.6 261.5Z" fill="white"/>
<path d="M531.3 271.6H446.8C446.2 271.6 445.6 271.4 445.2 271.1C444.8 270.8 444.5 270.3 444.5 269.9C444.5 269.4 444.7 269 445.2 268.7C445.6 268.4 446.2 268.2 446.8 268.2H531.3C531.9 268.2 532.5 268.4 532.9 268.7C533.3 269 533.6 269.5 533.6 269.9C533.6 270.4 533.4 270.8 532.9 271.1C532.5 271.5 531.9 271.6 531.3 271.6Z" fill="white"/>
<path d="M531.3 282.1H446.8C446.2 282.1 445.6 281.9 445.2 281.6C444.8 281.3 444.5 280.8 444.5 280.4C444.5 279.9 444.7 279.5 445.2 279.2C445.6 278.9 446.2 278.7 446.8 278.7H531.3C531.9 278.7 532.5 278.9 532.9 279.2C533.3 279.5 533.6 280 533.6 280.4C533.6 280.9 533.4 281.3 532.9 281.6C532.5 281.9 531.9 282.1 531.3 282.1Z" fill="white"/>
<path d="M531.3 292.8H446.8C446.2 292.8 445.6 292.6 445.2 292.3C444.8 292 444.5 291.5 444.5 291.1C444.5 290.6 444.7 290.2 445.2 289.9C445.6 289.6 446.2 289.4 446.8 289.4H531.3C531.9 289.4 532.5 289.6 532.9 289.9C533.3 290.2 533.6 290.7 533.6 291.1C533.6 291.6 533.4 292 532.9 292.3C532.5 292.6 531.9 292.8 531.3 292.8Z" fill="white"/>
<path d="M531.3 318.8H446.8C446.2 318.8 445.6 318.6 445.2 318.3C444.8 318 444.5 317.5 444.5 317.1C444.5 316.6 444.7 316.2 445.2 315.9C445.6 315.6 446.2 315.4 446.8 315.4H531.3C531.9 315.4 532.5 315.6 532.9 315.9C533.3 316.2 533.6 316.7 533.6 317.1C533.6 317.6 533.4 318 532.9 318.3C532.5 318.6 531.9 318.8 531.3 318.8Z" fill="white"/>
<path d="M531.3 328H446.8C446.2 328 445.6 327.8 445.2 327.5C444.8 327.2 444.5 326.7 444.5 326.3C444.5 325.8 444.7 325.4 445.2 325.1C445.6 324.8 446.2 324.6 446.8 324.6H531.3C531.9 324.6 532.5 324.8 532.9 325.1C533.3 325.4 533.6 325.9 533.6 326.3C533.6 326.8 533.4 327.2 532.9 327.5C532.5 327.8 531.9 328 531.3 328Z" fill="white"/>
<path d="M531.3 339.1H446.8C446.2 339.1 445.6 338.9 445.2 338.6C444.8 338.3 444.5 337.8 444.5 337.4C444.5 336.9 444.7 336.5 445.2 336.2C445.6 335.9 446.2 335.7 446.8 335.7H531.3C531.9 335.7 532.5 335.9 532.9 336.2C533.3 336.5 533.6 337 533.6 337.4C533.6 337.9 533.4 338.3 532.9 338.6C532.5 338.9 531.9 339.1 531.3 339.1Z" fill="white"/>
<path d="M531.3 349.2H446.8C446.2 349.2 445.6 349 445.2 348.7C444.8 348.4 444.5 347.9 444.5 347.5C444.5 347 444.7 346.6 445.2 346.3C445.6 346 446.2 345.8 446.8 345.8H531.3C531.9 345.8 532.5 346 532.9 346.3C533.3 346.6 533.6 347.1 533.6 347.5C533.6 348 533.4 348.4 532.9 348.7C532.5 349 531.9 349.2 531.3 349.2Z" fill="white"/>
<path d="M531.6 381.3H447.1C446.5 381.3 445.9 380.2 445.5 378.3C445.1 376.4 444.8 373.8 444.8 371C444.8 368.3 445 365.7 445.5 363.7C445.9 361.8 446.5 360.7 447.1 360.7H531.6C532.2 360.7 532.8 361.8 533.2 363.7C533.6 365.6 533.9 368.2 533.9 371C533.9 373.7 533.7 376.3 533.2 378.3C532.8 380.2 532.2 381.3 531.6 381.3Z" fill="white"/>
<path d="M131.1 188H88.5999C86.8999 188 85.3999 187.6 84.1999 186.9C82.9999 186.2 82.3999 185.3 82.3999 184.3C82.3999 183.8 82.5999 183.3 82.8999 182.9C83.1999 182.5 83.6999 182 84.2999 181.7C84.8999 181.4 85.5999 181.1 86.2999 180.9C87.0999 180.7 87.8999 180.6 88.6999 180.6H131.2C132.9 180.6 134.4 181 135.6 181.7C136.8 182.4 137.4 183.3 137.4 184.3C137.4 185.3 136.7 186.2 135.6 186.9C134.4 187.6 132.8 188 131.1 188Z" fill="white"/>
<path d="M278.2 189.2H235.7C234 189.2 232.5 188.8 231.3 188.1C230.1 187.4 229.5 186.5 229.5 185.5C229.5 185 229.7 184.5 230 184.1C230.3 183.7 230.8 183.2 231.4 182.9C232 182.6 232.7 182.3 233.4 182.1C234.2 181.9 235 181.8 235.8 181.8H278.3C280 181.8 281.5 182.2 282.7 182.9C283.9 183.6 284.5 184.5 284.5 185.5C284.5 186.5 283.8 187.4 282.7 188.1C281.4 188.8 279.9 189.2 278.2 189.2Z" fill="white"/>
<path d="M130.5 337.5H87.9998C86.2998 337.5 84.7998 337.1 83.5998 336.4C82.3998 335.7 81.7998 334.8 81.7998 333.8C81.7998 333.3 81.9998 332.8 82.2998 332.4C82.5998 332 83.0998 331.5 83.6998 331.2C84.2998 330.9 84.9998 330.6 85.6998 330.4C86.4998 330.2 87.2998 330.1 88.0998 330.1H130.6C132.3 330.1 133.8 330.5 135 331.2C136.2 331.9 136.8 332.8 136.8 333.8C136.8 334.8 136.1 335.7 135 336.4C133.8 337.1 132.2 337.5 130.5 337.5Z" fill="white"/>
<path d="M278.2 336.3H235.7C234 336.3 232.5 335.9 231.3 335.2C230.1 334.5 229.5 333.6 229.5 332.6C229.5 332.1 229.7 331.6 230 331.2C230.3 330.8 230.8 330.3 231.4 330C232 329.7 232.7 329.4 233.4 329.2C234.2 329 235 328.9 235.8 328.9H278.3C280 328.9 281.5 329.3 282.7 330C283.9 330.7 284.5 331.6 284.5 332.6C284.5 333.6 283.8 334.5 282.7 335.2C281.4 335.9 279.9 336.3 278.2 336.3Z" fill="white"/>
</g>
<defs>
<filter id="filter0_d" x="-25" y="-10" width="650" height="500" filterUnits="userSpaceOnUse" color-interpolation-filters="sRGB">
<feFlood flood-opacity="0" result="BackgroundImageFix"/>
<feColorMatrix in="SourceAlpha" type="matrix" values="0 0 0 0 0 0 0 0 0 0 0 0 0 0 0 0 0 0 127 0" result="hardAlpha"/>
<feOffset dy="15"/>
<feGaussianBlur stdDeviation="12.5"/>
<feColorMatrix type="matrix" values="0 0 0 0 0 0 0 0 0 0 0 0 0 0 0 0 0 0 0.25 0"/>
<feBlend mode="normal" in2="BackgroundImageFix" result="effect1_dropShadow"/>
<feBlend mode="normal" in="SourceGraphic" in2="effect1_dropShadow" result="shape"/>
</filter>
<linearGradient id="paint0_linear" x1="55.8594" y1="55.1712" x2="88.3768" y2="55.1712" gradientUnits="userSpaceOnUse">
<stop stop-color="#71439A"/>
<stop offset="0.8668" stop-color="#A76CAD"/>
</linearGradient>
<linearGradient id="paint1_linear" x1="115.837" y1="55.1712" x2="148.356" y2="55.1712" gradientUnits="userSpaceOnUse">
<stop stop-color="#71439A"/>
<stop offset="0.8668" stop-color="#A76CAD"/>
</linearGradient>
<linearGradient id="paint2_linear" x1="171.464" y1="55.1712" x2="203.982" y2="55.1712" gradientUnits="userSpaceOnUse">
<stop stop-color="#71439A"/>
<stop offset="0.8668" stop-color="#A76CAD"/>
</linearGradient>
<linearGradient id="paint3_linear" x1="247.932" y1="55.1712" x2="396.65" y2="55.1712" gradientUnits="userSpaceOnUse">
<stop stop-color="#71439A"/>
<stop offset="0.8668" stop-color="#A76CAD"/>
</linearGradient>
<linearGradient id="paint4_linear" x1="510.328" y1="55.1708" x2="518.13" y2="55.1708" gradientUnits="userSpaceOnUse">
<stop stop-color="#71439A"/>
<stop offset="0.8668" stop-color="#A76CAD"/>
</linearGradient>
<linearGradient id="paint5_linear" x1="529.268" y1="55.1721" x2="537.073" y2="55.1721" gradientUnits="userSpaceOnUse">
<stop stop-color="#71439A"/>
<stop offset="0.8668" stop-color="#A76CAD"/>
</linearGradient>
<linearGradient id="paint6_linear" x1="547.051" y1="55.1722" x2="554.857" y2="55.1722" gradientUnits="userSpaceOnUse">
<stop stop-color="#71439A"/>
<stop offset="0.8668" stop-color="#A76CAD"/>
</linearGradient>
<linearGradient id="paint7_linear" x1="61.6538" y1="168.687" x2="159.051" y2="168.687" gradientUnits="userSpaceOnUse">
<stop stop-color="#75DAFF"/>
<stop offset="1" stop-color="#00BAFF"/>
</linearGradient>
<linearGradient id="paint8_linear" x1="61.6538" y1="316.171" x2="159.051" y2="316.171" gradientUnits="userSpaceOnUse">
<stop stop-color="#75DAFF"/>
<stop offset="1" stop-color="#00BAFF"/>
</linearGradient>
<linearGradient id="paint9_linear" x1="209.137" y1="316.171" x2="306.534" y2="316.171" gradientUnits="userSpaceOnUse">
<stop stop-color="#75DAFF"/>
<stop offset="1" stop-color="#00BAFF"/>
</linearGradient>
<linearGradient id="paint10_linear" x1="208.884" y1="167.448" x2="306.281" y2="167.448" gradientUnits="userSpaceOnUse">
<stop stop-color="#75DAFF"/>
<stop offset="1" stop-color="#00BAFF"/>
</linearGradient>
<linearGradient id="paint11_linear" x1="382.635" y1="246.446" x2="399.111" y2="246.446" gradientUnits="userSpaceOnUse">
<stop stop-color="#71439A"/>
<stop offset="0.8668" stop-color="#A76CAD"/>
</linearGradient>
<linearGradient id="paint12_linear" x1="438.273" y1="255.769" x2="540.749" y2="255.769" gradientUnits="userSpaceOnUse">
<stop stop-color="#75DAFF"/>
<stop offset="1" stop-color="#00BAFF"/>
</linearGradient>
</defs>
</svg>
