<svg width="600" height="197" viewBox="0 0 600 197" fill="none" xmlns="http://www.w3.org/2000/svg">
<path d="M65.807 0L66.9271 1.12594C95.2836 35.7299 130.99 62.943 170.762 81.6279C210.436 100.959 254.636 111.133 300.014 111.133C345.399 111.133 389.645 100.965 429.89 81.6279C468.998 62.943 504.716 35.7241 533.102 1.12594L534.193 0L600 53.3292L597.171 56.6955C560.846 100.359 516.028 134.946 466.169 158.781C414.56 183.176 358.465 196.22 300.02 196.22C242.193 196.22 185.486 183.176 134.443 158.781C83.9606 134.94 39.1481 100.359 2.87548 56.6955L0 53.3292L65.807 0Z" fill="#F6D951"/>
</svg>
