<svg width="32" height="32" viewBox="0 0 32 32" fill="none" xmlns="http://www.w3.org/2000/svg">
<rect width="32" height="32" rx="16" fill="#D9EDE1"/>
<path d="M14.3138 22C14.1606 22 14.0073 21.9489 13.9051 21.8979C13.7518 21.8468 13.6496 21.7447 13.5474 21.5915L9.30659 16.1787C9.10221 15.9234 9 15.566 9 15.2085C9 14.8511 9.10221 14.4936 9.30659 14.2383C9.51096 13.983 9.76644 13.8298 10.073 13.8298C10.3796 13.8298 10.635 13.983 10.8394 14.2383L14.3138 18.6809L20.8029 10.4085C21.0072 10.1532 21.2627 10 21.5693 10C21.8758 10 22.1313 10.1532 22.3357 10.4085C22.5401 10.6638 22.6423 11.0213 22.6423 11.3787C22.6423 11.7362 22.5401 12.0936 22.3357 12.3489L15.0803 21.5915C14.9781 21.7447 14.8759 21.8468 14.7226 21.8979C14.5693 22 14.4671 22 14.3138 22Z" fill="#5CC186"/>
</svg>
