<svg width="667" height="450" viewBox="0 0 667 450" fill="none" xmlns="http://www.w3.org/2000/svg">
<g filter="url(#filter0_d)">
<path d="M648.2 229.2C622.1 252.8 526.2 278.9 558.6 305C591 331.1 646.5 364.5 623.5 383.2C596.7 405 561.4 413.2 525.6 414.3C446 416.6 363.4 383.2 363.4 383.2L355.4 288.8C355.4 288.8 372.9 273.9 402.9 257.2C431.8 241 472.2 223 519.5 215C615.8 198.5 674.3 205.5 648.2 229.2Z" fill="url(#paint0_linear)"/>
<path d="M411.5 333.7C411.5 333.7 386.1 392.9 296.4 416C245 429.2 172.4 430.6 71.3999 402.1C-0.000118256 382 81.5999 344.6 107.1 316.5C130.2 291 4.39988 296.4 12.3999 270.7C28.8999 217.7 94.5999 211 166.6 222.3C199.3 227.4 233.3 236.2 264.6 246C364.8 277.4 411.5 333.7 411.5 333.7Z" fill="url(#paint1_linear)"/>
<path d="M451.1 68.4V204.3C451.1 205.9 450.8 207.5 450.2 209C449.6 210.5 448.7 211.9 447.5 213C446.4 214.1 445 215.1 443.5 215.7C442 216.3 440.4 216.6 438.8 216.6H225.5C223.9 216.6 222.3 216.3 220.8 215.7C219.3 215.1 217.9 214.2 216.8 213C215.7 211.9 214.7 210.5 214.1 209C213.5 207.5 213.2 205.9 213.2 204.3V68.4C213.2 65.1 214.5 62 216.8 59.7C219.1 57.4 222.3 56.1 225.5 56.1H438.7C440.3 56.1 441.9 56.4 443.4 57C444.9 57.6 446.3 58.5 447.4 59.7C448.5 60.8 449.5 62.2 450.1 63.7C450.8 65.2 451.1 66.8 451.1 68.4Z" fill="url(#paint2_linear)"/>
<path d="M451.1 68.4V204.3C451.1 206.5 450.5 208.7 449.4 210.6C448.3 212.5 446.7 214.1 444.8 215.1L216.6 59.8C217.7 58.6 219.1 57.6 220.7 57C222.2 56.3 223.9 56 225.5 56H438.7C442 56 445.1 57.3 447.4 59.6C449.8 62 451.1 65.1 451.1 68.4Z" fill="url(#paint3_linear)"/>
<path d="M405.4 112.5H253C241.4 112.5 232 121.9 232 133.5V161.2C232 172.8 241.4 182.2 253 182.2H405.4C417 182.2 426.4 172.8 426.4 161.2V133.5C426.4 121.8 417 112.5 405.4 112.5Z" fill="#DCDDDE"/>
<path d="M248.9 103.2C258.2 103.2 265.8 95.6 265.8 86.3C265.8 77 258.2 69.4 248.9 69.4C239.6 69.4 232 77 232 86.3C232 95.6 239.6 103.2 248.9 103.2Z" fill="#DCDDDE"/>
<path d="M414.2 195.8H379.4C376.7 195.8 374.6 198.3 374.6 201.5V201.6C374.6 204.7 376.8 207.3 379.4 207.3H414.2C416.9 207.3 419 204.8 419 201.6V201.5C419 198.3 416.8 195.8 414.2 195.8Z" fill="url(#paint4_linear)"/>
<path d="M442.2 84.7999C453.8 84.7999 463.2 75.3999 463.2 63.7999C463.2 52.1999 453.8 42.7999 442.2 42.7999C430.6 42.7999 421.2 52.1999 421.2 63.7999C421.2 75.3999 430.6 84.7999 442.2 84.7999Z" fill="white"/>
<path d="M441.2 73C441 73 440.8 73 440.6 72.9C440.4 72.8 440.3 72.7 440.2 72.5L434.2 65.1C434 64.8 433.9 64.5 433.9 64.2C433.9 63.9 434.1 63.5 434.4 63.3C434.7 63.1 435 63 435.3 63C435.6 63 436 63.2 436.2 63.5L441 69.3L447.7 56.3C447.9 56 448.1 55.8 448.5 55.7C448.8 55.6 449.2 55.6 449.5 55.8C449.8 56 450 56.2 450.1 56.6C450.2 56.9 450.2 57.3 450 57.6L442.4 72.3C442.3 72.5 442.2 72.7 442 72.8C441.8 72.9 441.6 73 441.4 73C441.3 73 441.3 73 441.2 73Z" fill="url(#paint5_linear)"/>
<path d="M188.6 101.4C188.5 101.4 188.4 101.4 188.4 101.3C188.3 101.2 188.3 101.1 188.3 101.1V96.9C188.3 96.8 188.3 96.7 188.4 96.7C188.5 96.6 188.6 96.6 188.6 96.6C188.7 96.6 188.8 96.6 188.8 96.7C188.9 96.8 188.9 96.9 188.9 96.9V101.1C188.9 101.2 188.9 101.3 188.8 101.3C188.8 101.3 188.7 101.4 188.6 101.4Z" fill="#231F20"/>
<path d="M188.6 89.6999H188.5C188.5 89.6999 188.4 89.6999 188.4 89.5999L188.3 89.4999V89.3999V81.8999C188.3 81.7999 188.3 81.6999 188.4 81.6999C188.5 81.5999 188.6 81.5999 188.6 81.5999C188.7 81.5999 188.8 81.5999 188.8 81.6999C188.9 81.7999 188.9 81.8999 188.9 81.8999V89.3999V89.4999C188.9 89.4999 188.9 89.5999 188.8 89.5999L188.7 89.6999C188.7 89.6999 188.7 89.6999 188.6 89.6999ZM188.6 74.6999C188.5 74.6999 188.4 74.6999 188.4 74.5999C188.3 74.4999 188.3 74.3999 188.3 74.3999V66.8999C188.3 66.7999 188.3 66.6999 188.4 66.6999C188.5 66.5999 188.6 66.5999 188.6 66.5999C188.7 66.5999 188.8 66.5999 188.8 66.6999C188.9 66.7999 188.9 66.8999 188.9 66.8999V74.3999V74.4999C188.9 74.4999 188.9 74.5999 188.8 74.5999L188.7 74.6999C188.7 74.6999 188.7 74.6999 188.6 74.6999ZM188.6 59.7999H188.5C188.5 59.7999 188.4 59.7999 188.4 59.6999L188.3 59.5999V59.4999V51.9999C188.3 51.8999 188.3 51.7999 188.4 51.7999C188.5 51.6999 188.6 51.6999 188.6 51.6999C188.7 51.6999 188.8 51.6999 188.8 51.7999C188.9 51.8999 188.9 51.9999 188.9 51.9999V59.4999V59.5999C188.9 59.5999 188.9 59.6999 188.8 59.6999L188.7 59.7999C188.7 59.7999 188.7 59.7999 188.6 59.7999ZM188.6 44.8999C188.5 44.8999 188.4 44.8999 188.4 44.7999C188.3 44.6999 188.3 44.5999 188.3 44.5999V37.0999C188.3 36.9999 188.3 36.8999 188.4 36.8999C188.5 36.7999 188.6 36.7999 188.6 36.7999C188.7 36.7999 188.8 36.7999 188.8 36.8999C188.9 36.9999 188.9 37.0999 188.9 37.0999V44.5999C188.9 44.6999 188.9 44.7999 188.8 44.7999C188.8 44.7999 188.7 44.8999 188.6 44.8999Z" fill="#414042"/>
<path d="M188.6 29.9H188.5C188.5 29.9 188.4 29.9 188.4 29.8L188.3 29.7V29.6V25.4V25.3C188.3 25.3 188.3 25.2 188.4 25.2L188.5 25.1H188.6H192.8C192.9 25.1 193 25.1 193 25.2C193.1 25.3 193.1 25.4 193.1 25.4C193.1 25.5 193.1 25.6 193 25.6C192.9 25.7 192.8 25.7 192.8 25.7H189V29.6V29.7C189 29.7 189 29.8 188.9 29.8L188.8 29.9C188.7 29.9 188.7 29.9 188.6 29.9Z" fill="#3E3E3F"/>
<path d="M505.3 25.7H496.6C496.5 25.7 496.4 25.7 496.4 25.6C496.3 25.5 496.3 25.4 496.3 25.4C496.3 25.3 496.3 25.2 496.4 25.2C496.5 25.1 496.6 25.1 496.6 25.1H505.3C505.4 25.1 505.5 25.1 505.5 25.2C505.6 25.3 505.6 25.4 505.6 25.4C505.6 25.5 505.6 25.6 505.5 25.6C505.4 25.7 505.3 25.7 505.3 25.7ZM487.9 25.7H479.2C479.1 25.7 479 25.7 479 25.6C478.9 25.5 478.9 25.4 478.9 25.4C478.9 25.3 478.9 25.2 479 25.2C479.1 25.1 479.2 25.1 479.2 25.1H487.9C488 25.1 488.1 25.1 488.1 25.2C488.2 25.3 488.2 25.4 488.2 25.4C488.2 25.5 488.2 25.6 488.1 25.6C488.1 25.7 488 25.7 487.9 25.7ZM470.5 25.7H461.8C461.7 25.7 461.6 25.7 461.6 25.6C461.5 25.5 461.5 25.4 461.5 25.4C461.5 25.3 461.5 25.2 461.6 25.2C461.7 25.1 461.8 25.1 461.8 25.1H470.5C470.6 25.1 470.7 25.1 470.7 25.2C470.8 25.3 470.8 25.4 470.8 25.4C470.8 25.5 470.8 25.6 470.7 25.6C470.7 25.7 470.6 25.7 470.5 25.7ZM453.2 25.7H444.5C444.4 25.7 444.3 25.7 444.3 25.6C444.2 25.5 444.2 25.4 444.2 25.4C444.2 25.3 444.2 25.2 444.3 25.2C444.4 25.1 444.5 25.1 444.5 25.1H453.2C453.3 25.1 453.4 25.1 453.4 25.2C453.5 25.3 453.5 25.4 453.5 25.4C453.5 25.5 453.5 25.6 453.4 25.6C453.4 25.7 453.3 25.7 453.2 25.7ZM435.8 25.7H427.1C427 25.7 426.9 25.7 426.9 25.6C426.8 25.5 426.8 25.4 426.8 25.4C426.8 25.3 426.8 25.2 426.9 25.2C427 25.1 427.1 25.1 427.1 25.1H435.8C435.9 25.1 436 25.1 436 25.2C436.1 25.3 436.1 25.4 436.1 25.4C436.1 25.5 436.1 25.6 436 25.6C436 25.7 435.9 25.7 435.8 25.7ZM418.5 25.7H409.8C409.7 25.7 409.6 25.7 409.6 25.6C409.5 25.5 409.5 25.4 409.5 25.4C409.5 25.3 409.5 25.2 409.6 25.2C409.7 25.1 409.8 25.1 409.8 25.1H418.5C418.6 25.1 418.7 25.1 418.7 25.2C418.8 25.3 418.8 25.4 418.8 25.4C418.8 25.5 418.8 25.6 418.7 25.6C418.7 25.7 418.6 25.7 418.5 25.7ZM401.1 25.7H392.4C392.3 25.7 392.2 25.7 392.2 25.6C392.1 25.5 392.1 25.4 392.1 25.4C392.1 25.3 392.1 25.2 392.2 25.2C392.3 25.1 392.4 25.1 392.4 25.1H401.1C401.2 25.1 401.3 25.1 401.3 25.2C401.4 25.3 401.4 25.4 401.4 25.4C401.4 25.5 401.4 25.6 401.3 25.6C401.3 25.7 401.2 25.7 401.1 25.7ZM383.8 25.7H375.1C375 25.7 374.9 25.7 374.9 25.6C374.8 25.5 374.8 25.4 374.8 25.4C374.8 25.3 374.8 25.2 374.9 25.2C375 25.1 375.1 25.1 375.1 25.1H383.8C383.9 25.1 384 25.1 384 25.2C384.1 25.3 384.1 25.4 384.1 25.4C384.1 25.5 384.1 25.6 384 25.6C384 25.7 383.9 25.7 383.8 25.7ZM366.4 25.7H357.7C357.6 25.7 357.5 25.7 357.5 25.6C357.4 25.5 357.4 25.4 357.4 25.4C357.4 25.3 357.4 25.2 357.5 25.2C357.6 25.1 357.7 25.1 357.7 25.1H366.4C366.5 25.1 366.6 25.1 366.6 25.2C366.7 25.3 366.7 25.4 366.7 25.4C366.7 25.5 366.7 25.6 366.6 25.6C366.6 25.7 366.5 25.7 366.4 25.7ZM349.1 25.7H340.4C340.3 25.7 340.2 25.7 340.2 25.6C340.1 25.5 340.1 25.4 340.1 25.4C340.1 25.3 340.1 25.2 340.2 25.2C340.3 25.1 340.4 25.1 340.4 25.1H349.1C349.2 25.1 349.3 25.1 349.3 25.2C349.4 25.3 349.4 25.4 349.4 25.4C349.4 25.5 349.4 25.6 349.3 25.6C349.2 25.7 349.2 25.7 349.1 25.7ZM331.7 25.7H323C322.9 25.7 322.8 25.7 322.8 25.6C322.7 25.5 322.7 25.4 322.7 25.4C322.7 25.3 322.7 25.2 322.8 25.2C322.9 25.1 323 25.1 323 25.1H331.7C331.8 25.1 331.9 25.1 331.9 25.2C332 25.3 332 25.4 332 25.4C332 25.5 332 25.6 331.9 25.6C331.9 25.7 331.8 25.7 331.7 25.7ZM314.4 25.7H305.7C305.6 25.7 305.5 25.7 305.5 25.6C305.4 25.5 305.4 25.4 305.4 25.4C305.4 25.3 305.4 25.2 305.5 25.2C305.6 25.1 305.7 25.1 305.7 25.1H314.4C314.5 25.1 314.6 25.1 314.6 25.2C314.7 25.3 314.7 25.4 314.7 25.4C314.7 25.5 314.7 25.6 314.6 25.6C314.5 25.7 314.4 25.7 314.4 25.7ZM297 25.7H288.3C288.2 25.7 288.1 25.7 288.1 25.6C288 25.5 288 25.4 288 25.4C288 25.3 288 25.2 288.1 25.2C288.2 25.1 288.3 25.1 288.3 25.1H297C297.1 25.1 297.2 25.1 297.2 25.2C297.3 25.3 297.3 25.4 297.3 25.4C297.3 25.5 297.3 25.6 297.2 25.6C297.2 25.7 297.1 25.7 297 25.7ZM279.6 25.7H271C270.9 25.7 270.8 25.7 270.8 25.6C270.7 25.5 270.7 25.4 270.7 25.4C270.7 25.3 270.7 25.2 270.8 25.2C270.9 25.1 271 25.1 271 25.1H279.7C279.8 25.1 279.9 25.1 279.9 25.2C280 25.3 280 25.4 280 25.4C280 25.5 280 25.6 279.9 25.6C279.8 25.7 279.7 25.7 279.6 25.7ZM262.3 25.7H253.6C253.5 25.7 253.4 25.7 253.4 25.6C253.3 25.5 253.3 25.4 253.3 25.4C253.3 25.3 253.3 25.2 253.4 25.2C253.5 25.1 253.6 25.1 253.6 25.1H262.3C262.4 25.1 262.5 25.1 262.5 25.2C262.6 25.3 262.6 25.4 262.6 25.4C262.6 25.5 262.6 25.6 262.5 25.6C262.5 25.7 262.4 25.7 262.3 25.7ZM244.9 25.7H236.2C236.1 25.7 236 25.7 236 25.6C235.9 25.5 235.9 25.4 235.9 25.4C235.9 25.3 235.9 25.2 236 25.2C236.1 25.1 236.2 25.1 236.2 25.1H244.9C245 25.1 245.1 25.1 245.1 25.2C245.2 25.3 245.2 25.4 245.2 25.4C245.2 25.5 245.2 25.6 245.1 25.6C245.1 25.7 245 25.7 244.9 25.7ZM227.6 25.7H218.9C218.8 25.7 218.7 25.7 218.7 25.6C218.6 25.5 218.6 25.4 218.6 25.4C218.6 25.3 218.6 25.2 218.7 25.2C218.8 25.1 218.9 25.1 218.9 25.1H227.6C227.7 25.1 227.8 25.1 227.8 25.2C227.9 25.3 227.9 25.4 227.9 25.4C227.9 25.5 227.9 25.6 227.8 25.6C227.8 25.7 227.7 25.7 227.6 25.7ZM210.2 25.7H201.5C201.4 25.7 201.3 25.7 201.3 25.6C201.2 25.5 201.2 25.4 201.2 25.4C201.2 25.3 201.2 25.2 201.3 25.2C201.4 25.1 201.5 25.1 201.5 25.1H210.2C210.3 25.1 210.4 25.1 210.4 25.2C210.5 25.3 210.5 25.4 210.5 25.4C210.5 25.5 210.5 25.6 210.4 25.6C210.4 25.7 210.3 25.7 210.2 25.7Z" fill="#414042"/>
<path d="M518.2 29.9C518.1 29.9 518 29.9 518 29.8C517.9 29.7 517.9 29.6 517.9 29.6V25.7H514C513.9 25.7 513.8 25.7 513.8 25.6C513.7 25.5 513.7 25.4 513.7 25.4C513.7 25.3 513.7 25.2 513.8 25.2C513.9 25.1 514 25.1 514 25.1H518.2H518.3C518.3 25.1 518.4 25.1 518.4 25.2L518.5 25.3V25.4V29.6V29.7C518.5 29.7 518.5 29.8 518.4 29.8L518.3 29.9H518.2Z" fill="#231F20"/>
<path d="M518.2 73.1C518.1 73.1 518 73.1 518 73C518 72.9 517.9 72.8 517.9 72.8V65.6C517.9 65.5 517.9 65.4 518 65.4C518.1 65.4 518.2 65.3 518.2 65.3C518.3 65.3 518.4 65.3 518.4 65.4C518.4 65.5 518.5 65.6 518.5 65.6V72.8C518.5 72.9 518.5 73 518.4 73C518.3 73.1 518.3 73.1 518.2 73.1ZM518.2 58.7C518.1 58.7 518 58.7 518 58.6C517.9 58.5 517.9 58.4 517.9 58.4V51.2C517.9 51.1 517.9 51 518 51C518.1 51 518.2 50.9 518.2 50.9C518.3 50.9 518.4 50.9 518.4 51C518.4 51.1 518.5 51.2 518.5 51.2V58.4V58.5C518.5 58.5 518.5 58.6 518.4 58.6C518.3 58.6 518.3 58.7 518.3 58.7H518.2ZM518.2 44.3C518.1 44.3 518 44.3 518 44.2C518 44.1 517.9 44 517.9 44V36.8C517.9 36.7 517.9 36.6 518 36.6C518.1 36.6 518.2 36.5 518.2 36.5C518.3 36.5 518.4 36.5 518.4 36.6C518.4 36.7 518.5 36.8 518.5 36.8V44V44.1C518.5 44.1 518.5 44.2 518.4 44.2L518.3 44.3H518.2Z" fill="#414042"/>
<path d="M518.2 84.6C518.1 84.6 518 84.6 518 84.5C517.9 84.4 517.9 84.3 517.9 84.3V80C517.9 79.9 517.9 79.8 518 79.8C518.1 79.8 518.2 79.7 518.2 79.7C518.3 79.7 518.4 79.7 518.4 79.8C518.4 79.9 518.5 80 518.5 80V84.2C518.5 84.3 518.5 84.4 518.4 84.4C518.3 84.5 518.3 84.6 518.2 84.6Z" fill="#231F20"/>
<path d="M142.5 94.1C142.4 94.1 142.3 94.1 142.3 94C142.2 93.9 142.2 93.9 142.2 93.8C142.2 93.7 142.2 93.6 142.2 93.6C142.2 93.5 142.3 93.5 142.4 93.4C142.4 93.4 143.8 92.8 146.3 91.7C146.4 91.7 146.5 91.7 146.6 91.7C146.7 91.7 146.8 91.8 146.8 91.9C146.8 92 146.8 92.1 146.8 92.2C146.8 92.3 146.7 92.4 146.6 92.4C144.1 93.5 142.8 94.1 142.8 94.1C142.6 94.1 142.6 94.1 142.5 94.1Z" fill="#231F20"/>
<path d="M434.5 176.4C434.4 176.4 434.4 176.4 434.3 176.4C434.2 176.4 434.2 176.3 434.2 176.3C434.2 176.3 433.4 175 431.9 172.8C431.9 172.8 431.9 172.7 431.8 172.7V172.6C431.8 172.6 431.8 172.5 431.9 172.5L432 172.4C432 172.4 432.1 172.4 432.1 172.3H432.2C432.2 172.3 432.3 172.3 432.3 172.4L432.4 172.5C433.9 174.7 434.7 176 434.7 176.1V176.2V176.3C434.7 176.3 434.7 176.4 434.6 176.4L434.5 176.5C434.6 176.4 434.6 176.4 434.5 176.4Z" fill="#231F20"/>
<path d="M332 339.4L302.4 299V307L332 339.4Z" fill="url(#paint6_linear)"/>
<path d="M109.5 345L136.1 399.7L153 370.1L181 361.6L109.5 345Z" fill="url(#paint7_linear)"/>
<path d="M153.1 370.1L109.5 345.1L181.1 361.7L153.1 370.1Z" fill="url(#paint8_linear)"/>
<path d="M153.1 370.1V357.6L109.6 345L153.1 370.1Z" fill="url(#paint9_linear)"/>
<path d="M279.7 310.5L332 339.5L317.2 290L305.3 306.5L279.7 310.5Z" fill="url(#paint10_linear)"/>
<path d="M305.3 306.5L332 339.5L317.2 290L305.3 306.5Z" fill="url(#paint11_linear)"/>
<path d="M540.6 101C540.5 102.4 540.1 103.8 539.2 104.9C538.4 106 537.2 106.9 535.9 107.4C534.6 107.9 533.1 108 531.7 107.7C530.3 107.4 529.1 106.7 528.1 105.6C527.1 104.6 526.5 103.3 526.2 101.9C525.9 100.5 526.1 99.1 526.7 97.8C527.3 96.5 528.2 95.4 529.4 94.6C530.6 93.8 532 93.4 533.4 93.4C535.4 93.4 537.2 94.3 538.6 95.7C539.9 97.2 540.6 99.1 540.6 101Z" fill="#231F20"/>
<path d="M512.6 358.3C511.5 359.2 510.8 360.4 510.7 361.8C510.7 365.4 510 369 508.6 372.3C506.4 377.5 501.5 383.4 502.8 385.8C504 388.2 507.4 390.6 510.6 389.2C513.9 387.8 523.7 377.8 523.7 377.8L528.8 362.5L529.9 363.6C530 363.7 530.1 363.8 530.3 363.9C530.5 364 530.6 364 530.8 364C531 364 531.1 363.9 531.2 363.9C531.3 363.8 531.5 363.7 531.5 363.6L533.6 360.7C533.7 360.5 533.8 360.2 533.8 360C533.8 359.8 533.7 359.5 533.5 359.3C532.9 358.7 531.8 357.7 529.8 356.1C525.3 352.4 523.3 352.4 523.3 352.4L518.2 352.8L512.6 358.3Z" fill="#231F20"/>
<path d="M465.4 281.9C465.4 281.9 462.8 287.7 467 294.9C471.2 302.1 513.9 360.1 513.9 360.1C513.9 360.1 517.3 362.1 521.8 359.3C526.1 356.7 525.2 352.8 525.2 352.8C525.2 352.8 509.3 316.2 503.5 309.2C497.6 302.1 500 283.6 500 283.6C500 283.6 494.9 274.9 493.5 274C492 273.1 479.3 270.9 479.3 270.9L465.4 281.9Z" fill="#F1F2F2"/>
<path d="M473.5 370.7C473.5 370.7 469.9 370.9 465.9 377.5C462.1 383.7 458.8 390.3 455.9 397C453.8 402.1 451.3 406.1 457.7 407.6C462.6 408.7 468.1 404.8 472.1 400.5C476 396.2 483.4 388 483.4 388V390.4C483.4 390.5 483.4 390.7 483.5 390.8C483.6 390.9 483.7 391 483.8 391.1C483.9 391.2 484.1 391.2 484.2 391.2C484.3 391.2 484.5 391.1 484.6 391L487.9 388.3C487.9 388.3 489.4 385.5 488.6 380.6C488.2 377.8 487.3 375.1 486 372.6L477.8 370.1L473.5 370.7Z" fill="#231F20"/>
<path d="M502.3 194.6L514.9 227.2C514.9 227.2 513.1 242.5 513.1 243.5C513.1 244.5 500.1 246.6 500.1 246.6L490.5 239.5C490.5 239.5 488.1 224.8 488.9 224C489.6 223.2 491.7 209.5 491.7 209.5L502.3 194.6Z" fill="url(#paint12_linear)"/>
<path d="M492.4 285.5C490.6 288 489.2 290.8 488.5 293.9C487.7 297.7 468.9 373.8 468.9 373.8C468.9 373.8 468.9 380 474 380.9C481 382.2 484 378.7 484 378.7C484 378.7 497.1 335.5 501.9 327.2C506.7 318.9 507.6 305.2 511.7 301.3C514.6 298.5 516.7 295 518 291.2L511.9 280.5L503.6 276.3L492.4 285.5Z" fill="white"/>
<path d="M483 238.4C483 238.4 482.5 248.3 477.1 253.3C461.9 267.2 461.9 282.9 461.9 282.9C461.9 282.9 475.2 278 488.8 284C520.1 297.6 534.6 287.8 534.6 287.8C534.6 287.8 534.7 276.3 538.7 270.9C547.4 259.3 548.5 240.4 548.5 240.4C548.5 240.4 535.5 238.9 534.7 238.6C533.9 238.3 502.2 238.6 502.2 238.6C499.6 238.7 497 238.2 494.7 237C490.5 234.8 483 238.4 483 238.4Z" fill="url(#paint13_linear)"/>
<path d="M504.8 141.7C503.5 141.8 502.2 142.3 501 142.9C499.8 143.6 498.8 144.4 498 145.5C488.5 157.1 488.1 176.4 483.4 178.1C477.5 180.2 460.8 187.1 460.8 187.1L465.6 200.3C465.6 200.3 497.4 191.5 502.2 183.8C507 176.1 502 150.9 502 150.9L504.8 141.7Z" fill="url(#paint14_linear)"/>
<path d="M509.8 140.6C508.2 141.3 506.5 141.7 504.8 141.7C502.1 141.8 497.5 154.8 496.2 161.5C495 168.2 489.9 173.1 491.6 177.5C493.3 181.9 496.2 183 496.4 185.7C496.6 188.5 494.8 203.6 494.8 203.6L482.1 236.7C483.3 239.1 484.9 241.3 486.8 243.2C488.5 244.9 490.5 246.3 492.7 247.4C492.7 247.4 497.3 239.9 498.3 232.9C499.4 226 498.9 214.7 498.9 214.7L502.2 219.9C503.8 225 504 230.5 502.9 235.8C501 244.1 499.1 250 499.1 250C499.1 250 516.6 254.1 530.1 250.6C544.4 246.8 553.7 234.8 553.7 234.8C553.7 234.8 545.6 218.9 544.2 212.1C542.7 205.3 543.2 202.2 543.2 202.2L546.7 155.1C546.7 155.1 545.7 152.2 541.2 148C538.3 145.3 534.9 143.3 531.2 142.2L509.8 140.6Z" fill="url(#paint15_linear)"/>
<path d="M510.7 157.2C511.7 157.4 512.6 157.8 513.4 158.4C514.2 159 514.8 159.8 515.2 160.7C516.3 162.7 517.1 164.9 517.7 167.1C517.7 167.1 525.9 159.7 528.2 155.1C530.5 150.5 531.2 142.1 531.2 142.1C531.2 142.1 524.7 144.1 524.5 144.2C524.4 144.4 510.7 157.2 510.7 157.2Z" fill="url(#paint16_linear)"/>
<path d="M510.7 157.2C510.7 157.2 510.4 156 508.2 156.3C506.8 156.5 505.5 156.9 504.3 157.5C504.4 154.2 505 151 506.1 148C507.1 145.4 508.3 142.9 509.7 140.6L514.9 140.3L510.7 157.2Z" fill="url(#paint17_linear)"/>
<path d="M509 138.7C510.2 141.3 510.9 144.1 511 147C511.1 151.3 510.7 157.2 510.7 157.2C510.7 157.2 516.5 158.3 523.4 153C530.4 147.7 531.2 142.2 531.2 142.2C531.2 142.2 527.2 136 526.4 132.6C526 131.3 525.7 129.9 525.6 128.5L520.2 127.2L508.7 132L509 138.7Z" fill="#F1F2F2"/>
<path d="M497.5 111C495.6 115.7 494.7 120.7 495 125.8C495.3 128.9 495.7 132 496.3 135C496.6 136.4 497.4 137.7 498.6 138.5C499.8 139.3 501.3 139.7 502.7 139.5C507.4 138.8 514.3 137.1 518.8 133.2C526.2 126.7 524.4 113.5 524.4 113.5L518.3 107L510.8 106.2L497.5 111Z" fill="white"/>
<path d="M522.7 231.5C522.3 231.5 522 231.4 521.7 231.1C521.4 230.9 521.3 230.5 521.3 230.2C521.3 229.8 521.4 229.5 521.6 229.2C521.8 228.9 522.2 228.7 522.5 228.7C525.5 228.3 528.5 227.7 531.5 226.8C534 226 536.4 224.9 538.5 223.4C538.8 223.2 539.2 223.1 539.5 223.1C539.9 223.2 540.2 223.3 540.4 223.6C540.6 223.9 540.7 224.3 540.7 224.6C540.7 225 540.5 225.3 540.2 225.5C537.8 227.2 535.1 228.5 532.3 229.4C529.2 230.3 526 231 522.8 231.4C522.8 231.5 522.7 231.5 522.7 231.5Z" fill="#DBDBDC"/>
<path d="M497.5 111.1C497.5 111.1 498 114.7 505.6 115C517.6 115.6 517.8 127.6 517.3 132.9C517.3 133.2 517.3 133.5 517.4 133.8C517.5 134.1 517.7 134.3 517.9 134.5C518.1 134.7 518.4 134.9 518.7 135C519 135.1 519.3 135.1 519.6 135.1C523.8 134.5 532.2 132.3 535.7 124.2C540.1 113.9 535.4 99.2 525.5 96.6C501.9 90.1 497.5 111.1 497.5 111.1Z" fill="#231F20"/>
<path d="M482.6 241.9L490.8 200.3L444.9 183L439.6 215.1L482.6 241.9Z" fill="url(#paint18_linear)"/>
<path d="M444.9 183L469 166.1L490.8 200.2L444.9 183Z" fill="url(#paint19_linear)"/>
<path d="M444.9 183L459.8 213.7L490.8 200.2L444.9 183Z" fill="url(#paint20_linear)"/>
<path d="M439.6 215.2L461.9 203.4L482.6 241.9L439.6 215.2Z" fill="url(#paint21_linear)"/>
<path d="M499.9 205.8C499.9 205.8 497.7 207.6 495.9 207.5C494.6 207.4 493.7 208.1 491.7 209.5C488.4 211.8 483.2 210.2 481 209.3C480.7 209.2 480.4 209.2 480.1 209.3C479.8 209.4 479.6 209.6 479.4 209.8C477.7 212.3 476.8 215.2 476.8 218.3C477 221.2 477.6 224.1 478.6 226.9C478.7 227.1 478.8 227.3 479 227.5C479.2 227.7 479.4 227.8 479.6 227.8C482.6 228.4 485.6 228.2 488.5 227.3C494.3 225.1 497.2 223.2 498.3 221.9C499.9 220 504.6 218.6 504.6 218.6C504.6 218.6 508.2 216.3 508.1 215.6C508 214.9 504 205.3 504 205.3L499.9 205.8Z" fill="url(#paint22_linear)"/>
<path d="M553.7 194.1C547.9 202 529 208.4 519.9 216C510.8 223.6 504.3 224.1 504.3 224.1C504.3 224.1 505.8 216.4 503.5 211.4C502 208.2 499.9 205.4 497.2 203L533 187.3C533 187.3 530.1 175.1 530.1 166.2C530.1 165.4 530.1 164.7 530.2 164C530.4 161.9 530.8 159.8 531.6 157.8C532.2 156.3 533.1 154.8 534.2 153.6C535.2 152.3 536.5 151.2 537.9 150.4C538.8 150 539.8 149.9 540.7 150.2C542 150.6 543.3 151.2 544.3 152.1C545.2 153 546 154 546.7 155.1C546.7 155.1 546.7 155.2 546.8 155.2C546.9 155.5 547.1 155.8 547.2 156.2C547.2 156.2 547.2 156.2 547.2 156.3C548.9 160.4 549.5 161.9 549.7 162.4C549.7 162.5 549.8 162.6 549.8 162.6C549.8 162.6 549.8 162.6 549.8 162.7C554 173.3 557.8 188.5 553.7 194.1Z" fill="url(#paint23_linear)"/>
<path d="M246.1 384.9C246.1 384.9 243.8 385.8 244.3 390C244.8 394.2 245.4 395.1 248.9 398.1C252.5 401.2 274 413.4 279.9 410.5C285.8 407.6 290 400.9 284.2 398C274.7 393.2 270.4 386.1 266.4 382.6C262.4 379.1 260.2 377.9 258.2 378C256.2 378.2 246.1 384.9 246.1 384.9Z" fill="#231F20"/>
<path d="M244.7 380.5L246.6 386.8C246.6 386.8 253.8 392.6 258.8 388.9C263.8 385.2 261.2 380.5 261.2 380.5L256.9 370.1L249.6 370.3L244.7 380.5Z" fill="#F1F2F2"/>
<path d="M148.5 253.8C148.5 253.8 149.2 252.5 147.7 250C146.3 247.5 142.5 245 142.5 245C142.5 245 135.9 242.8 132 246.8C126.7 252.2 126.3 283.1 130.9 286.1C136.5 289.8 141.4 286.4 141.9 283.4C142.4 280.6 143.1 274.9 143.1 274.9L150.2 255.9L148.5 253.8Z" fill="#231F20"/>
<path d="M139.4 264.3L134.3 259.6C134.3 259.6 134.3 254.9 137.8 252.5C142.5 249.3 146 251 146 251L150.2 256L150.7 261.3L139.4 264.3Z" fill="#EBEBEC"/>
<path d="M170.5 271.3C167.9 269.4 165.8 267 164.5 264.1C162.3 260.3 159.8 256.6 157 253.3C151.7 254.8 146.8 257.5 142.6 261.2C138.5 264.9 135.2 269.4 133 274.5C139.2 276.1 144.6 279.9 148.1 285.3C153.7 294.2 162.6 305.6 169.9 309.5C174.9 312.1 180.3 313.9 185.8 315L174.5 272.4L170.5 271.3Z" fill="url(#paint24_linear)"/>
<path d="M265.8 366.5C265.8 366.5 265 366.9 258.6 369.4C252.1 371.9 254.5 374.6 249.6 378C246.1 380.2 242.1 381.6 238 382.1C237 378.1 235.7 374.1 234.2 370.2C231.3 362 232.3 346.4 231.7 325.2C231.2 304 218.5 289.2 209 274.2C208 272.6 207.1 271.1 206.2 269.6C206.3 280 205.1 295.1 201.9 305.8C198.5 317.1 190.9 317.3 180.3 313C168.9 308.5 175.5 280.7 169 266.6C162.8 253.2 169.4 244 169.4 244L183.3 239.5L196.2 238.7C196.2 238.7 198.2 242.1 200.3 246.5L212.5 238.7L230.9 242.1C230.9 242.1 230.9 246.9 242.2 266.8C253.5 286.7 256.3 293.7 254.8 325.7C253.8 347.7 265.8 366.5 265.8 366.5Z" fill="url(#paint25_linear)"/>
<path d="M128.7 94.6L72.7998 141.2L105.2 144.6L132.3 151.6L128.7 94.6Z" fill="url(#paint26_linear)"/>
<path d="M128.7 94.6L105.3 144.6L132.4 151.6L128.7 94.6Z" fill="url(#paint27_linear)"/>
<path d="M128.4 95L109.5 153.1L105 145L128.4 95Z" fill="url(#paint28_linear)"/>
<path d="M119.2 138.4C119.2 138.4 119.9 137.6 118.7 136.2C116.8 133.7 119 131.9 119.4 129.5C119.8 127 118.5 127.1 116.9 125.8C116.3 125.3 115.7 124.8 115.2 124.2C115 124 114.8 123.9 114.6 123.8C114.4 123.7 114.1 123.7 113.9 123.8C113.7 123.9 113.5 124 113.3 124.1C113.1 124.3 113 124.5 112.9 124.7C112.7 125.3 112.8 125.9 113 126.5C113.5 126.8 114 127.2 114.3 127.7C114.6 128.2 114.8 128.8 114.8 129.4C114.8 130 114.7 130.6 114.5 131.1C114.2 131.6 113.9 132.1 113.4 132.5C113.4 133.3 113.6 134.1 113.9 134.9C114.2 135.6 114.7 136.3 115.3 136.9C115.3 136.9 111.9 140.3 112.5 143C113.1 145.7 116.1 145.7 116.1 145.7L117.4 142.5L119.2 138.4Z" fill="url(#paint29_linear)"/>
<path d="M286.9 134.1C286.9 134.1 290.5 135.3 292.1 140.5C293 143.8 293 147.4 292.1 150.7L285.8 149.8L281.7 146.7L280.7 139L286.9 134.1Z" fill="#231F20"/>
<path d="M300.4 145C300.4 145 301.2 146.7 302.1 146.9C303 147.1 305 146.9 305.9 147.6C306.5 148.1 307 148.8 307.2 149.5C305.3 149.8 303.4 149.7 301.5 149.3C299.6 148.6 297.7 147.7 295.9 146.7L295.3 144.4L297.4 144L300.4 145Z" fill="#F1F2F2"/>
<path d="M308.5 145C308.8 145.3 309 145.6 309.2 146C309.3 146.4 309.4 146.8 309.4 147.2C309.4 147.8 309.6 148.3 309.8 148.8C309.9 149 310 149.2 310.2 149.3C310.4 149.4 310.6 149.5 310.8 149.5C311 149.5 311.2 149.5 311.4 149.4C311.6 149.3 311.8 149.1 311.9 148.9C312.4 148.1 312.8 147.2 313.2 146.3C313.7 145.3 314 144.3 314 143.2H310.8L308.5 145Z" fill="#F1F2F2"/>
<path d="M286.2 138C287.7 138.4 289.3 138.3 290.7 137.6C293.4 136.5 294.9 133.2 300.8 132.9C304.2 132.9 307.6 133.4 310.9 134.5C311.5 134.7 312.1 135.1 312.6 135.5C313.1 136 313.4 136.5 313.6 137.2C314 138.5 314.2 139.8 314.1 141.2C314 142.3 313.8 143.1 313.7 143.8C313.6 144.3 313.3 144.7 313 145C312.6 145.3 312.2 145.4 311.7 145.4C310.7 145.4 309.7 145.2 308.7 145C306.5 144.5 303.2 143.8 300.6 144.8C298 145.9 298.4 146.7 295.3 146.7C294.3 146.7 293.3 146.6 292.3 146.4C292 146.3 291.7 146.3 291.4 146.3C291.1 146.3 290.8 146.4 290.5 146.6L288.9 147.5C288.9 147.5 283.8 144.8 282.7 144.5C281.6 144.1 280.6 141.4 280.6 141.4L286.2 138Z" fill="#F1F2F2"/>
<path d="M288.1 150.2C288.1 150.5 288 150.8 287.9 151C287.7 151.2 287.5 151.4 287.3 151.5C287 151.6 286.8 151.6 286.5 151.6C286.2 151.5 286 151.4 285.8 151.2C285.6 151 285.5 150.7 285.4 150.5C285.3 150.2 285.4 149.9 285.5 149.7C285.6 149.5 285.8 149.2 286 149.1C286.2 148.9 286.5 148.9 286.8 148.9C287.2 148.9 287.5 149.1 287.8 149.3C288 149.5 288.1 149.9 288.1 150.2Z" fill="#EBF0E1"/>
<path d="M122.9 141.8C122.9 142.1 122.8 142.4 122.7 142.6C122.5 142.8 122.3 143 122.1 143.1C121.8 143.2 121.6 143.2 121.3 143.2C121 143.1 120.8 143 120.6 142.8C120.4 142.6 120.3 142.3 120.2 142.1C120.1 141.8 120.2 141.5 120.3 141.3C120.4 141 120.6 140.8 120.8 140.7C121 140.5 121.3 140.5 121.6 140.5C122 140.5 122.3 140.7 122.6 140.9C122.8 141.1 122.9 141.4 122.9 141.8Z" fill="#EBF0E1"/>
<path d="M419 75.4999C419 78.2999 416.8 80.4999 414 80.4999H275C272.2 80.4999 270 78.2999 270 75.4999V74.7999C270 71.9999 272.2 69.7999 275 69.7999H414C416.8 69.7999 419 71.9999 419 74.7999V75.4999Z" fill="url(#paint30_linear)"/>
<path d="M419.2 86.7C419.2 87.6 418.3 88.3 417.2 88.3H272.2C271.1 88.3 270.2 87.6 270.2 86.7C270.2 85.8 271.1 85.1 272.2 85.1H417.2C418.3 85.1 419.2 85.8 419.2 86.7Z" fill="url(#paint31_linear)"/>
<path d="M419.1 94.8C419.1 95.7 418.2 96.4 417.1 96.4H272.1C271 96.4 270.1 95.7 270.1 94.8C270.1 93.9 271 93.2 272.1 93.2H417.1C418.2 93.2 419.1 93.9 419.1 94.8Z" fill="url(#paint32_linear)"/>
<path d="M418.9 103C418.9 103.9 418 104.6 416.9 104.6H272C270.9 104.6 270 103.9 270 103C270 102.1 270.9 101.4 272 101.4H417C418 101.4 418.9 102.1 418.9 103Z" fill="url(#paint33_linear)"/>
<path d="M370.3 197.7C370.3 198.6 369.4 199.3 368.3 199.3H223.3C222.2 199.3 221.3 198.6 221.3 197.7C221.3 196.8 222.2 196.1 223.3 196.1H368.3C369.4 196.1 370.3 196.8 370.3 197.7Z" fill="url(#paint34_linear)"/>
<path d="M370.3 205C370.3 205.9 369.4 206.6 368.3 206.6H223.3C222.2 206.6 221.3 205.9 221.3 205C221.3 204.1 222.2 203.4 223.3 203.4H368.3C369.4 203.4 370.3 204.1 370.3 205Z" fill="url(#paint35_linear)"/>
<path d="M427.3 166.1C427.2 166.1 427.2 166.1 427.1 166.1L427 166C425.4 163.9 423.6 161.7 421.8 159.5L421.7 159.4V159.3V159.2L421.8 159.1L421.9 159H422H422.1L422.2 159.1C424 161.3 425.8 163.4 427.4 165.6C427.4 165.7 427.5 165.7 427.5 165.8C427.5 165.9 427.5 165.9 427.5 166C427.5 166.1 427.4 166.1 427.4 166.1H427.3ZM416.5 153.4H416.4C416.4 153.4 416.3 153.4 416.3 153.3C414.4 151.3 412.5 149.3 410.6 147.3L410.5 147.2V147.1V147C410.5 147 410.5 146.9 410.6 146.9L410.7 146.8H410.8H410.9C410.9 146.8 411 146.8 411 146.9C413 148.9 414.9 150.9 416.8 152.9C416.8 153 416.9 153 416.9 153.1C416.9 153.2 416.9 153.2 416.9 153.3C416.9 153.4 416.8 153.4 416.8 153.5C416.7 153.4 416.6 153.4 416.5 153.4ZM404.8 141.6C404.7 141.6 404.6 141.6 404.6 141.5C402.6 139.6 400.5 137.8 398.4 136L398.3 135.9V135.8V135.7C398.3 135.7 398.3 135.6 398.4 135.6L398.5 135.5H398.6H398.7C398.7 135.5 398.8 135.5 398.8 135.6C400.9 137.4 403 139.3 405 141.1C405.1 141.1 405.1 141.2 405.1 141.3C405.1 141.4 405.1 141.4 405.1 141.5C405.1 141.6 405 141.6 405 141.7C405 141.6 404.9 141.6 404.8 141.6ZM392.2 130.8C392.1 130.8 392 130.8 392 130.7C389.8 129 387.6 127.3 385.4 125.7L385.3 125.6C385.3 125.6 385.3 125.5 385.2 125.5V125.4C385.2 125.4 385.2 125.3 385.3 125.3L385.4 125.2H385.5H385.6C385.6 125.2 385.7 125.2 385.7 125.3C387.9 126.9 390.2 128.6 392.3 130.3L392.4 130.4V130.5V130.6C392.4 130.6 392.4 130.7 392.3 130.7L392.2 130.8C392.3 130.8 392.3 130.8 392.2 130.8ZM278.7 121.6C278.6 121.6 278.5 121.6 278.5 121.5C278.4 121.4 278.4 121.4 278.4 121.3C278.4 121.2 278.4 121.1 278.5 121C278.6 120.9 278.6 120.9 278.7 120.9C281.4 120.6 284.1 120 286.7 119.2H286.8H286.9L287 119.3L287.1 119.4V119.5V119.6C287.1 119.6 287.1 119.7 287 119.7C286.9 119.7 286.9 119.8 286.9 119.8C284.3 120.7 281.5 121.3 278.7 121.6ZM378.8 121C378.7 121 378.7 121 378.6 120.9C376.3 119.4 374 117.9 371.6 116.4C371.5 116.4 371.5 116.3 371.4 116.2C371.4 116.1 371.4 116 371.4 115.9C371.4 115.8 371.5 115.8 371.6 115.7C371.7 115.7 371.8 115.7 371.9 115.7C374.3 117.1 376.6 118.7 378.9 120.2C379 120.2 379 120.3 379 120.4C379 120.5 379 120.5 379 120.6C379 120.7 378.9 120.7 378.9 120.8C378.9 120.9 378.9 121 378.8 121ZM270.5 121H270.4C268.2 120.1 267.7 118.9 267.7 117.9C267.7 116.7 268.5 115.4 269.9 113.9L270 113.8H270.1H270.2C270.2 113.8 270.3 113.8 270.3 113.9L270.4 114V114.1V114.2C270.4 114.2 270.4 114.3 270.3 114.3C269 115.6 268.3 116.8 268.3 117.7C268.3 119 269.5 119.7 270.5 120.1C270.6 120.1 270.6 120.2 270.7 120.3C270.7 120.4 270.8 120.5 270.7 120.5C270.7 120.6 270.6 120.7 270.6 120.7C270.7 120.9 270.6 121 270.5 121ZM294.4 116.4C294.3 116.4 294.2 116.4 294.2 116.3C294.1 116.3 294.1 116.2 294.1 116.1C294.1 116 294.1 115.9 294.1 115.9C294.1 115.8 294.2 115.8 294.2 115.7C296.5 114.3 298.7 112.5 300.5 110.5L300.6 110.4H300.7H300.8C300.8 110.4 300.9 110.4 300.9 110.5L301 110.6V110.7V110.8C301 110.8 301 110.9 300.9 110.9C299 113 296.9 114.8 294.5 116.3C294.5 116.4 294.5 116.4 294.4 116.4ZM364.6 112.4C364.5 112.4 364.5 112.4 364.4 112.4C361.9 111.1 359.4 109.9 357 108.8C356.9 108.8 356.8 108.7 356.8 108.6C356.8 108.5 356.8 108.4 356.8 108.3C356.8 108.2 356.9 108.1 357 108.1C357.1 108.1 357.2 108.1 357.3 108.1C359.8 109.2 362.3 110.4 364.8 111.8C364.9 111.8 364.9 111.9 365 112C365 112.1 365 112.2 365 112.2C365 112.2 364.9 112.3 364.9 112.4C364.8 112.3 364.7 112.4 364.6 112.4ZM276.9 109.7C276.8 109.7 276.7 109.7 276.7 109.6C276.6 109.6 276.6 109.5 276.6 109.4C276.6 109.3 276.6 109.2 276.6 109.2C276.6 109.2 276.7 109.1 276.7 109C279.1 107.6 281.6 106.4 284.2 105.3C284.3 105.3 284.4 105.3 284.5 105.3C284.6 105.3 284.7 105.4 284.7 105.5C284.7 105.6 284.7 105.7 284.7 105.8C284.7 105.9 284.6 106 284.5 106C282 107.1 279.5 108.3 277.1 109.6C277.1 109.7 277 109.7 276.9 109.7ZM349.4 105.6H349.3C346.7 104.7 344 103.8 341.4 103.1C341.3 103.1 341.2 103 341.2 102.9C341.2 102.8 341.1 102.7 341.2 102.6C341.2 102.5 341.3 102.4 341.4 102.4C341.5 102.4 341.6 102.3 341.7 102.4C344.4 103.1 347 103.9 349.7 104.9C349.8 104.9 349.8 105 349.9 105.1C349.9 105.2 350 105.3 349.9 105.3C349.9 105.4 349.8 105.5 349.8 105.5C349.6 105.6 349.5 105.6 349.4 105.6ZM304.9 104H304.8C304.8 104 304.7 104 304.7 103.9L304.6 103.8V103.7V103.6C305.5 101 305.6 98.2 305 95.6V95.5V95.4L305.1 95.3C305.1 95.3 305.2 95.3 305.2 95.2H305.3H305.4L305.5 95.3C305.5 95.3 305.5 95.4 305.6 95.4C305.9 96.5 306 97.7 306 98.9C306 100.6 305.7 102.2 305.2 103.8C305.2 103.9 305.1 103.9 305.1 104C305 104 305 104 304.9 104ZM292.2 103.3C292.1 103.3 292 103.3 292 103.2C292 103.1 291.9 103.1 291.9 103C291.9 102.9 291.9 102.8 292 102.8C292 102.7 292.1 102.7 292.2 102.7C294.8 101.9 297.6 101.3 300.3 100.8H300.4C300.4 100.8 300.5 100.8 300.5 100.9L300.6 101C300.6 101 300.6 101.1 300.7 101.1V101.2C300.7 101.2 300.7 101.3 300.6 101.3L300.5 101.4H300.4C297.6 101.9 294.9 102.5 292.2 103.3C292.3 103.3 292.3 103.3 292.2 103.3ZM333.4 101.3C333.4 101.4 333.3 101.4 333.4 101.3C330.6 100.8 327.9 100.4 325.1 100.2H325L324.9 100.1L324.8 100V99.9V99.8L324.9 99.7L325 99.6H325.1C327.8 99.8 330.6 100.2 333.4 100.7C333.5 100.7 333.6 100.8 333.6 100.8C333.7 100.9 333.7 101 333.7 101C333.7 101.1 333.7 101.2 333.6 101.2C333.5 101.3 333.5 101.4 333.4 101.3ZM308.5 100.2C308.4 100.2 308.3 100.2 308.3 100.1C308.2 100 308.2 100 308.2 99.9C308.2 99.8 308.2 99.7 308.3 99.7C308.4 99.6 308.4 99.6 308.5 99.6C311.2 99.4 314 99.2 316.7 99.2H316.8C316.9 99.2 317 99.2 317 99.3C317.1 99.4 317.1 99.5 317.1 99.5C317.1 99.6 317.1 99.7 317 99.7C316.9 99.8 316.8 99.8 316.8 99.8H316.7C314 99.8 311.3 100 308.5 100.2ZM154 89C153.9 89 153.8 89 153.8 88.9C153.7 88.8 153.7 88.8 153.7 88.7C153.7 88.6 153.7 88.5 153.7 88.5C153.7 88.4 153.8 88.4 153.9 88.3C156.4 87.2 159 86.2 161.6 85.1C161.7 85.1 161.8 85.1 161.9 85.1C162 85.1 162 85.2 162.1 85.3C162.2 85.4 162.1 85.5 162.1 85.6C162.1 85.7 162 85.8 161.9 85.8C159.3 86.8 156.7 87.9 154.2 89C154.1 89 154.1 89.1 154 89ZM301.7 88.4C301.6 88.4 301.6 88.4 301.5 88.4L301.4 88.3C299.7 86.1 297.8 84.1 295.7 82.4L295.6 82.3V82.2V82.1C295.6 82.1 295.6 82 295.7 82L295.8 81.9H295.9H296C296 81.9 296.1 81.9 296.1 82C298.3 83.8 300.2 85.8 301.9 88C301.9 88 301.9 88.1 302 88.1V88.2V88.3L301.9 88.4C301.8 88.3 301.8 88.4 301.7 88.4ZM169.5 82.9C169.4 82.9 169.3 82.9 169.3 82.8C169.2 82.7 169.2 82.7 169.2 82.6C169.2 82.5 169.2 82.4 169.2 82.4C169.2 82.3 169.3 82.3 169.4 82.2C172 81.2 174.6 80.2 177.2 79.3C177.3 79.3 177.4 79.3 177.5 79.3C177.6 79.3 177.6 79.4 177.7 79.5C177.7 79.6 177.7 79.7 177.7 79.8C177.7 79.9 177.6 79.9 177.5 80C174.9 80.9 172.3 81.9 169.7 82.9C169.5 82.9 169.5 82.9 169.5 82.9ZM289.1 77.6C289 77.6 289 77.6 288.9 77.5C286.7 76.2 284.2 74.8 281.6 73.6C281.6 73.6 281.5 73.6 281.5 73.5L281.4 73.4V73.3V73.2C281.4 73.2 281.4 73.1 281.5 73.1L281.6 73H281.7H281.8C284.4 74.3 286.9 75.6 289.2 76.9C289.3 76.9 289.3 77 289.3 77.1C289.3 77.2 289.3 77.3 289.3 77.3C289.3 77.4 289.2 77.4 289.2 77.5C289.3 77.6 289.2 77.6 289.1 77.6ZM185.1 77.2C185 77.2 184.9 77.2 184.9 77.1C184.8 77 184.8 77 184.8 76.9C184.8 76.8 184.8 76.7 184.8 76.7C184.8 76.6 184.9 76.6 185 76.5C187.7 75.6 190.3 74.7 192.9 73.9C193 73.9 193.1 73.9 193.2 73.9C193.3 73.9 193.3 74 193.4 74.1C193.4 74.2 193.4 74.3 193.4 74.4C193.4 74.5 193.3 74.5 193.2 74.6C190.6 75.4 188 76.3 185.3 77.2C185.2 77.2 185.2 77.2 185.1 77.2ZM201 72.3C200.9 72.3 200.8 72.3 200.8 72.2C200.7 72.1 200.7 72.1 200.7 72C200.7 71.9 200.7 71.8 200.8 71.8C200.8 71.7 200.9 71.7 201 71.7C203.7 70.9 206.4 70.2 209 69.5H209.1H209.2L209.3 69.6C209.3 69.6 209.3 69.7 209.4 69.7V69.8V69.9L209.3 70C209.3 70 209.2 70 209.2 70.1C206.6 70.8 203.9 71.5 201.2 72.3C201.1 72.3 201 72.3 201 72.3ZM274.2 70.4H274.1C271.6 69.4 269 68.5 266.3 67.6C266.2 67.6 266.1 67.5 266.1 67.4C266.1 67.3 266 67.2 266.1 67.1C266.1 67 266.2 66.9 266.3 66.9C266.4 66.9 266.5 66.8 266.6 66.9C269.3 67.8 272 68.7 274.5 69.7C274.6 69.7 274.6 69.8 274.7 69.9C274.7 70 274.8 70.1 274.7 70.1C274.7 70.2 274.6 70.3 274.6 70.3C274.3 70.4 274.3 70.4 274.2 70.4ZM217.1 68.2C217 68.2 216.9 68.2 216.9 68.1C216.8 68 216.8 68 216.8 67.9C216.8 67.8 216.8 67.7 216.9 67.7C217 67.7 217 67.6 217.1 67.6C219.9 67 222.6 66.4 225.3 66C225.4 66 225.5 66 225.6 66.1C225.7 66.2 225.7 66.2 225.7 66.3C225.7 66.4 225.7 66.5 225.6 66.6C225.5 66.7 225.5 66.7 225.4 66.7C222.7 67 220 67.6 217.1 68.2C217.2 68.2 217.1 68.2 217.1 68.2ZM258.3 65.5C255.5 65 252.8 64.7 250 64.6C249.9 64.6 249.8 64.6 249.8 64.5C249.7 64.4 249.7 64.3 249.7 64.2C249.7 64.1 249.7 64 249.8 64C249.9 63.9 250 63.9 250.1 63.9C252.9 64 255.7 64.3 258.4 64.8C258.5 64.8 258.6 64.9 258.6 64.9C258.7 65 258.7 65.1 258.7 65.1C258.7 65.2 258.7 65.3 258.6 65.3C258.5 65.3 258.4 65.5 258.3 65.5ZM233.5 65.3C233.4 65.3 233.3 65.3 233.3 65.2C233.2 65.1 233.2 65.1 233.2 65C233.2 64.9 233.2 64.8 233.3 64.8C233.4 64.7 233.4 64.7 233.5 64.7C236.4 64.3 239.2 64.1 241.8 64H241.9C241.9 64 242 64 242 64.1L242.1 64.2V64.3C242.1 64.4 242.1 64.5 242 64.6C241.9 64.7 241.9 64.7 241.8 64.7C239.2 64.7 236.4 65 233.5 65.3Z" fill="#414042"/>
<path d="M189.6 158.2C189.6 158.2 184.9 157 178.9 160.1C172.9 163.2 174.6 165 165.3 164C156 163 152.2 165.7 147.9 162.4C143.5 159.1 135.1 149 130 144C127.4 141.4 124.5 139.1 121.3 137.2C118.9 137.9 116.7 139.2 115 141.2C113.5 142.9 112.5 144.9 111.8 147.1C111.8 147.1 132.3 177.6 147.4 181C162.5 184.4 170.4 182.8 170.4 182.8C170.4 182.8 173.9 193.4 171.9 203.3C169.9 213.2 164.9 219.3 163.8 229.6C162.7 239.5 165 246.5 169.9 248.3C174.7 250.1 189.9 251.4 201.3 247.5C209.2 244.8 220.2 244.6 226.3 244.7C227.6 244.7 228.9 244.3 229.9 243.4C230.9 242.5 231.5 241.3 231.7 240C232.6 233.8 232 227.5 229.9 221.5C226.2 211.7 225.4 201.2 227.4 190.9C229 183.4 228.6 176.7 233.3 175.9C238 175.1 248.3 174.4 256.5 169.3C264.6 164.2 292.1 150.6 292.1 150.6C292.1 150.6 287.6 147.1 286.6 142.4C286 139.6 286.1 136.7 286.9 134C283.7 136.3 280.3 138.4 276.8 140.3C269.3 144.5 254.8 155 249.8 155.7C244.7 156.5 236.2 158 229.3 156.9C222.8 156.1 216.2 155.7 209.6 155.9L189.6 158.2Z" fill="url(#paint36_linear)"/>
<path d="M205.3 176C204.2 175.7 203 175.8 201.9 176.3C201.1 176.6 200.4 177 199.8 177.6C198.1 179 196.6 180.6 195.2 182.4C193.1 179 191.6 175.4 190.6 171.6C189.4 166 189.9 162.9 189.9 162.9L197 163.3L203.9 168.4L204.8 173.9L205.3 176Z" fill="url(#paint37_linear)"/>
<path d="M213.9 182C212.7 180.7 211.3 179.5 209.8 178.4C208.9 177.7 207.9 177.2 206.9 176.7C206.4 176.4 205.8 176.2 205.3 176L205.7 173.9L207.3 166.4L211.3 165.8C212.4 168.1 213.1 170.6 213.6 173.1C213.9 176 213.9 182 213.9 182Z" fill="url(#paint38_linear)"/>
<path d="M203.5 180.4C203.5 180.4 202.8 191.1 204.9 197.8C207 204.4 206.5 220.3 206.5 220.3C206.5 220.3 207.7 223.7 208.5 227.1C208.9 228.7 209.2 230.3 209.3 231.9C211.5 229.9 213.4 227.6 214.9 224.9C216 223 217 220.9 217.7 218.8C218.6 214.1 217.9 209.3 215.7 205C211.3 196.7 206.5 179.8 206.5 179.8L205.3 178.3L203.5 180.4Z" fill="url(#paint39_linear)"/>
<path d="M190 155.2C190 155.2 188.4 162.4 191.4 165.7C194.4 169 205.3 176 205.3 176C205.3 176 211.7 168.5 211.3 165.8C210.9 163.2 209.5 163.3 209.6 159.8C209.7 156.3 209.6 153.3 209.6 153.3L205.1 151L191.5 148.8L190 155.2Z" fill="url(#paint40_linear)"/>
<path d="M206.9 178.7C206.8 179.3 206.5 179.8 206.2 180.2C206 180.5 205.6 180.7 205.2 180.8C204.8 180.9 204.4 180.8 204.1 180.7C203.5 180.4 202.9 180 202.4 179.5C202.1 179 201.9 178.5 201.8 178C201.7 177.4 201.7 176.9 201.9 176.3C203 175.8 204.1 175.7 205.3 176C205.9 176.2 206.4 176.4 206.9 176.7C207.1 177.4 207.1 178.1 206.9 178.7Z" fill="url(#paint41_linear)"/>
<path d="M204 119.1C208.4 122.7 212 127.2 214.6 132.2C217.5 138.1 217.5 150.4 217.5 150.4C213.5 152.9 208.7 153.9 204 153.5C199 152.8 194.1 151.3 189.6 149L181.8 147.1L180 136.4L181.5 128.2L190.9 120.4L204 119.1Z" fill="#F1F2F2"/>
<path d="M202.1 104.6C202.1 104.6 207.7 115.1 204.2 119.9C201.1 124.1 188.8 123.7 187.4 130C185.9 136.7 188.3 135.8 190.1 139C191.4 141.3 190.8 143.5 190.4 143.3C190 143.1 186.7 138.5 185.3 141.1C183.9 143.6 186 146.8 188.3 147.1C190.5 147.4 192 146.4 193.7 148.4C195.2 150.2 192.9 156.1 187.7 155.4C182.6 154.7 175 151.8 173 144.2C171 136.6 173 133.6 173 133.6C173 133.6 170.7 121.6 179.3 115.9C188.1 110.1 192 113.7 196.1 111.5C198.7 109.9 200.8 107.5 202.1 104.6Z" fill="#231F20"/>
</g>
<defs>
<filter id="filter0_d" x="-2" y="-8" width="674" height="474" filterUnits="userSpaceOnUse" color-interpolation-filters="sRGB">
<feFlood flood-opacity="0" result="BackgroundImageFix"/>
<feColorMatrix in="SourceAlpha" type="matrix" values="0 0 0 0 0 0 0 0 0 0 0 0 0 0 0 0 0 0 127 0" result="hardAlpha"/>
<feOffset dy="4"/>
<feGaussianBlur stdDeviation="6"/>
<feColorMatrix type="matrix" values="0 0 0 0 0 0 0 0 0 0 0 0 0 0 0 0 0 0 0.3 0"/>
<feBlend mode="normal" in2="BackgroundImageFix" result="effect1_dropShadow"/>
<feBlend mode="normal" in="SourceGraphic" in2="effect1_dropShadow" result="shape"/>
</filter>
<linearGradient id="paint0_linear" x1="355.501" y1="310.179" x2="654.417" y2="310.179" gradientUnits="userSpaceOnUse">
<stop stop-color="#7BD2F7"/>
<stop offset="1" stop-color="#C4E9FB"/>
</linearGradient>
<linearGradient id="paint1_linear" x1="12.0001" y1="321.293" x2="411.47" y2="321.293" gradientUnits="userSpaceOnUse">
<stop stop-color="#7BD2F7"/>
<stop offset="1" stop-color="#C4E9FB"/>
</linearGradient>
<linearGradient id="paint2_linear" x1="213.192" y1="136.381" x2="451.107" y2="136.381" gradientUnits="userSpaceOnUse">
<stop stop-color="#00BAFF"/>
<stop offset="1" stop-color="#75DAFF"/>
</linearGradient>
<linearGradient id="paint3_linear" x1="216.645" y1="135.601" x2="451.107" y2="135.601" gradientUnits="userSpaceOnUse">
<stop stop-color="#00BAFF"/>
<stop offset="1" stop-color="#77DAFF"/>
</linearGradient>
<linearGradient id="paint4_linear" x1="374.562" y1="201.468" x2="419.015" y2="201.468" gradientUnits="userSpaceOnUse">
<stop offset="0.001" stop-color="white"/>
<stop offset="0.9999" stop-color="white"/>
<stop offset="1" stop-color="#06246E"/>
</linearGradient>
<linearGradient id="paint5_linear" x1="433.927" y1="64.3486" x2="450.103" y2="64.3486" gradientUnits="userSpaceOnUse">
<stop stop-color="#71439A"/>
<stop offset="0.8668" stop-color="#A76CAD"/>
</linearGradient>
<linearGradient id="paint6_linear" x1="302.387" y1="319.222" x2="332.009" y2="319.222" gradientUnits="userSpaceOnUse">
<stop stop-color="#71439A"/>
<stop offset="0.8668" stop-color="#A76CAD"/>
</linearGradient>
<linearGradient id="paint7_linear" x1="109.549" y1="372.358" x2="181.136" y2="372.358" gradientUnits="userSpaceOnUse">
<stop stop-color="#71439A"/>
<stop offset="0.8668" stop-color="#A76CAD"/>
</linearGradient>
<linearGradient id="paint8_linear" x1="109.55" y1="357.543" x2="181.137" y2="357.543" gradientUnits="userSpaceOnUse">
<stop stop-color="#71439A"/>
<stop offset="0.8668" stop-color="#A76CAD"/>
</linearGradient>
<linearGradient id="paint9_linear" x1="109.55" y1="357.545" x2="153.102" y2="357.545" gradientUnits="userSpaceOnUse">
<stop stop-color="#71439A"/>
<stop offset="0.8668" stop-color="#A76CAD"/>
</linearGradient>
<linearGradient id="paint10_linear" x1="279.7" y1="314.699" x2="332.009" y2="314.699" gradientUnits="userSpaceOnUse">
<stop stop-color="#71439A"/>
<stop offset="0.8668" stop-color="#A76CAD"/>
</linearGradient>
<linearGradient id="paint11_linear" x1="305.327" y1="314.7" x2="332.01" y2="314.7" gradientUnits="userSpaceOnUse">
<stop stop-color="#71439A"/>
<stop offset="0.8668" stop-color="#A76CAD"/>
</linearGradient>
<linearGradient id="paint12_linear" x1="488.805" y1="220.638" x2="514.958" y2="220.638" gradientUnits="userSpaceOnUse">
<stop stop-color="#00BAFF"/>
<stop offset="1" stop-color="#75DAFF"/>
</linearGradient>
<linearGradient id="paint13_linear" x1="461.9" y1="263.697" x2="548.556" y2="263.697" gradientUnits="userSpaceOnUse">
<stop offset="0.001" stop-color="#1631A4"/>
<stop offset="1" stop-color="#1631A4"/>
</linearGradient>
<linearGradient id="paint14_linear" x1="460.872" y1="170.971" x2="504.775" y2="170.971" gradientUnits="userSpaceOnUse">
<stop stop-color="#E0E0E0"/>
<stop offset="1" stop-color="#F1F2F2"/>
</linearGradient>
<linearGradient id="paint15_linear" x1="512.925" y1="214.738" x2="549.773" y2="153.23" gradientUnits="userSpaceOnUse">
<stop stop-color="#F1F1F1"/>
<stop offset="1" stop-color="white"/>
</linearGradient>
<linearGradient id="paint16_linear" x1="510.748" y1="154.67" x2="531.224" y2="154.67" gradientUnits="userSpaceOnUse">
<stop stop-color="#00BAFF"/>
<stop offset="1" stop-color="#77DAFF"/>
</linearGradient>
<linearGradient id="paint17_linear" x1="504.334" y1="148.886" x2="514.956" y2="148.886" gradientUnits="userSpaceOnUse">
<stop stop-color="#00BAFF"/>
<stop offset="1" stop-color="#75DAFF"/>
</linearGradient>
<linearGradient id="paint18_linear" x1="437.432" y1="205.807" x2="490.035" y2="219.123" gradientUnits="userSpaceOnUse">
<stop stop-color="#71439A"/>
<stop offset="0.8668" stop-color="#A76CAD"/>
</linearGradient>
<linearGradient id="paint19_linear" x1="449.817" y1="170.273" x2="490.684" y2="195.002" gradientUnits="userSpaceOnUse">
<stop stop-color="#71439A"/>
<stop offset="0.8668" stop-color="#A76CAD"/>
</linearGradient>
<linearGradient id="paint20_linear" x1="447.321" y1="186.139" x2="484.578" y2="213.977" gradientUnits="userSpaceOnUse">
<stop offset="0.002" stop-color="#EAEAEA"/>
<stop offset="1" stop-color="#EAEAEA"/>
</linearGradient>
<linearGradient id="paint21_linear" x1="439.624" y1="222.649" x2="482.553" y2="222.649" gradientUnits="userSpaceOnUse">
<stop stop-color="#71439A"/>
<stop offset="0.8668" stop-color="#A76CAD"/>
</linearGradient>
<linearGradient id="paint22_linear" x1="476.943" y1="216.721" x2="508.305" y2="216.721" gradientUnits="userSpaceOnUse">
<stop stop-color="white"/>
<stop offset="1" stop-color="white"/>
</linearGradient>
<linearGradient id="paint23_linear" x1="497.281" y1="187.042" x2="555.473" y2="187.042" gradientUnits="userSpaceOnUse">
<stop stop-color="#E0E0E0"/>
<stop offset="1" stop-color="#F1F2F2"/>
</linearGradient>
<linearGradient id="paint24_linear" x1="133.001" y1="284.107" x2="185.79" y2="284.107" gradientUnits="userSpaceOnUse">
<stop stop-color="#1631A4"/>
<stop offset="1" stop-color="#0029D9"/>
</linearGradient>
<linearGradient id="paint25_linear" x1="166.329" y1="310.464" x2="265.828" y2="310.464" gradientUnits="userSpaceOnUse">
<stop stop-color="#1631A4"/>
<stop offset="1" stop-color="#1631A4"/>
</linearGradient>
<linearGradient id="paint26_linear" x1="72.7869" y1="123.049" x2="132.296" y2="123.049" gradientUnits="userSpaceOnUse">
<stop stop-color="#71439A"/>
<stop offset="0.8668" stop-color="#A76CAD"/>
</linearGradient>
<linearGradient id="paint27_linear" x1="105.229" y1="123.049" x2="132.295" y2="123.049" gradientUnits="userSpaceOnUse">
<stop stop-color="#71439A"/>
<stop offset="0.8668" stop-color="#A76CAD"/>
</linearGradient>
<linearGradient id="paint28_linear" x1="105" y1="124.033" x2="128.422" y2="124.033" gradientUnits="userSpaceOnUse">
<stop stop-color="#71439A"/>
<stop offset="0.8668" stop-color="#A76CAD"/>
</linearGradient>
<linearGradient id="paint29_linear" x1="112.477" y1="134.636" x2="119.444" y2="134.636" gradientUnits="userSpaceOnUse">
<stop stop-color="#E0E0E0"/>
<stop offset="1" stop-color="#E6E7E8"/>
</linearGradient>
<linearGradient id="paint30_linear" x1="270.02" y1="75.1666" x2="419.008" y2="75.1666" gradientUnits="userSpaceOnUse">
<stop stop-color="white"/>
<stop offset="1" stop-color="white"/>
</linearGradient>
<linearGradient id="paint31_linear" x1="270.239" y1="86.6529" x2="419.227" y2="86.6529" gradientUnits="userSpaceOnUse">
<stop stop-color="white"/>
<stop offset="1" stop-color="white"/>
</linearGradient>
<linearGradient id="paint32_linear" x1="270.096" y1="94.7641" x2="419.085" y2="94.7641" gradientUnits="userSpaceOnUse">
<stop stop-color="white"/>
<stop offset="1" stop-color="white"/>
</linearGradient>
<linearGradient id="paint33_linear" x1="269.954" y1="103.018" x2="418.943" y2="103.018" gradientUnits="userSpaceOnUse">
<stop stop-color="white"/>
<stop offset="1" stop-color="white"/>
</linearGradient>
<linearGradient id="paint34_linear" x1="221.32" y1="197.714" x2="370.308" y2="197.714" gradientUnits="userSpaceOnUse">
<stop stop-color="white"/>
<stop offset="1" stop-color="white"/>
</linearGradient>
<linearGradient id="paint35_linear" x1="221.32" y1="204.963" x2="370.308" y2="204.963" gradientUnits="userSpaceOnUse">
<stop stop-color="white"/>
<stop offset="1" stop-color="white"/>
</linearGradient>
<linearGradient id="paint36_linear" x1="111.753" y1="192.093" x2="292.043" y2="192.093" gradientUnits="userSpaceOnUse">
<stop stop-color="#F1F1F1"/>
<stop offset="1" stop-color="white"/>
</linearGradient>
<linearGradient id="paint37_linear" x1="189.834" y1="172.577" x2="205.272" y2="172.577" gradientUnits="userSpaceOnUse">
<stop stop-color="#00BAFF"/>
<stop offset="1" stop-color="#00BAFF"/>
</linearGradient>
<linearGradient id="paint38_linear" x1="205.272" y1="173.922" x2="213.876" y2="173.922" gradientUnits="userSpaceOnUse">
<stop stop-color="#00BAFF"/>
<stop offset="1" stop-color="#00BAFF"/>
</linearGradient>
<linearGradient id="paint39_linear" x1="203.385" y1="205.091" x2="218.102" y2="205.091" gradientUnits="userSpaceOnUse">
<stop stop-color="#00BAFF"/>
<stop offset="1" stop-color="#00BAFF"/>
</linearGradient>
<linearGradient id="paint40_linear" x1="189.572" y1="162.443" x2="211.306" y2="162.443" gradientUnits="userSpaceOnUse">
<stop stop-color="#E0E0E0"/>
<stop offset="1" stop-color="#E6E7E8"/>
</linearGradient>
<linearGradient id="paint41_linear" x1="201.766" y1="178.397" x2="207.06" y2="178.397" gradientUnits="userSpaceOnUse">
<stop stop-color="#00BAFF"/>
<stop offset="1" stop-color="#B1EAFF"/>
</linearGradient>
</defs>
</svg>
