<svg width="616" height="471" viewBox="0 0 616 471" fill="none" xmlns="http://www.w3.org/2000/svg">
<g filter="url(#filter0_d)">
<path d="M350 121.4C349.5 119 348.9 116.7 348.1 114.4C348 114.1 347.8 113.8 347.5 113.6C347.2 113.4 346.9 113.3 346.6 113.3L339.6 113C339.3 113 339 112.9 338.7 112.7C338.4 112.5 338.2 112.3 338.1 112C338 111.7 337.9 111.4 337.9 111.1C337.9 110.8 338 110.5 338.2 110.3L342.2 104.5C342.4 104.2 342.5 103.9 342.5 103.5C342.5 103.2 342.4 102.8 342.2 102.5C339.5 98.5 336.3 94.8 332.7 91.7C332.4 91.5 332.1 91.3 331.8 91.3C331.5 91.3 331.1 91.3 330.8 91.5L324.6 94.7C324.3 94.8 324 94.9 323.7 94.9C323.4 94.9 323.1 94.8 322.9 94.6C322.6 94.4 322.4 94.2 322.3 93.9C322.2 93.6 322.1 93.3 322.1 93L322.7 86C322.7 85.7 322.7 85.3 322.5 85C322.3 84.7 322.1 84.5 321.8 84.3C317.5 82.1 312.9 80.6 308.2 79.7C307.9 79.6 307.5 79.7 307.2 79.8C306.9 79.9 306.6 80.2 306.4 80.4L302.6 86.3C302.4 86.6 302.2 86.8 301.9 86.9C301.6 87 301.3 87.1 301 87.1C300.7 87.1 300.4 87 300.2 86.8C299.9 86.6 299.7 86.4 299.6 86.1L296.6 79.7C296.5 79.4 296.2 79.1 295.9 79C295.6 78.8 295.3 78.7 294.9 78.8C290.1 79.1 285.3 80 280.8 81.6C280.5 81.7 280.2 81.9 280 82.2C279.8 82.5 279.7 82.8 279.7 83.1L279.4 90.1C279.4 90.4 279.3 90.7 279.1 91C278.9 91.3 278.7 91.5 278.4 91.6C278.1 91.7 277.8 91.8 277.5 91.8C277.2 91.8 276.9 91.7 276.7 91.5L270.9 87.5C270.6 87.3 270.3 87.2 270 87.2C269.7 87.2 269.3 87.3 269 87.5C265 90.2 261.3 93.4 258.2 97C258 97.3 257.8 97.6 257.8 97.9C257.8 98.2 257.8 98.6 258 98.9L261.2 105.1C261.3 105.4 261.4 105.7 261.4 106C261.4 106.3 261.3 106.6 261.1 106.8C260.9 107.1 260.7 107.3 260.4 107.4C260.1 107.5 259.8 107.6 259.5 107.6L252.5 107C252.2 107 251.8 107 251.5 107.2C251.2 107.4 251 107.6 250.8 107.9C248.6 112.2 247.1 116.8 246.2 121.5C246.1 121.8 246.2 122.2 246.3 122.5C246.4 122.8 246.7 123.1 246.9 123.3L252.8 127.1C253.1 127.3 253.3 127.5 253.4 127.8C253.5 128.1 253.6 128.4 253.6 128.7C253.6 129 253.5 129.3 253.3 129.5C253.1 129.8 252.9 130 252.6 130.1L246.2 133.1C245.9 133.2 245.6 133.5 245.5 133.8C245.3 134.1 245.2 134.4 245.3 134.8C245.6 139.6 246.5 144.4 248.1 148.9C248.2 149.2 248.4 149.5 248.7 149.7C249 149.9 249.3 150 249.6 150L256.6 150.3C256.9 150.3 257.2 150.4 257.5 150.6C257.8 150.8 258 151 258.1 151.3C258.2 151.6 258.3 151.9 258.3 152.2C258.3 152.5 258.2 152.8 258 153L254 158.8C253.8 159.1 253.7 159.4 253.7 159.8C253.7 160.1 253.8 160.5 254 160.8C256.7 164.8 259.9 168.5 263.5 171.6C263.8 171.8 264.1 172 264.4 172C264.7 172 265.1 172 265.4 171.8L271.7 168.6C272 168.5 272.3 168.4 272.6 168.4C272.9 168.4 273.2 168.5 273.4 168.7C273.7 168.9 273.9 169.1 274 169.4C274.1 169.7 274.2 170 274.2 170.3L273.6 177.3C273.6 177.6 273.6 178 273.8 178.3C274 178.6 274.2 178.8 274.5 179C278.8 181.2 283.4 182.7 288.2 183.6C288.5 183.7 288.9 183.6 289.2 183.5C289.5 183.4 289.8 183.1 290 182.9L293.8 177C294 176.7 294.2 176.5 294.5 176.4C294.8 176.3 295.1 176.2 295.4 176.2C295.7 176.2 296 176.3 296.2 176.5C296.5 176.7 296.7 176.9 296.8 177.2L299.8 183.6C299.9 183.9 300.2 184.2 300.5 184.3C300.8 184.5 301.1 184.6 301.5 184.5C306.3 184.2 311.1 183.3 315.6 181.7C315.9 181.6 316.2 181.4 316.4 181.1C316.6 180.8 316.7 180.5 316.7 180.2L317 173.2C317 172.9 317.1 172.6 317.3 172.3C317.5 172 317.7 171.8 318 171.7C318.3 171.6 318.6 171.5 318.9 171.5C319.2 171.5 319.5 171.6 319.7 171.8L325.5 175.8C325.8 176 326.1 176.1 326.4 176.1C326.7 176.1 327.1 176 327.4 175.8C331.4 173.1 335.1 169.9 338.2 166.3C338.4 166 338.6 165.7 338.6 165.4C338.6 165.1 338.6 164.7 338.4 164.4L335.2 158.2C335.1 157.9 335 157.6 335 157.3C335 157 335.1 156.7 335.3 156.5C335.5 156.2 335.7 156 336 155.9C336.3 155.8 336.6 155.7 336.9 155.7L343.7 156.3C344.1 156.3 344.5 156.2 344.8 156C345.1 155.8 345.4 155.5 345.5 155.1L350 141.8C350.1 141.4 350.1 141 350 140.7C349.9 140.3 349.6 140 349.3 139.8L343.5 136.1C343.2 135.9 343 135.7 342.9 135.4C342.8 135.1 342.7 134.8 342.7 134.5C342.7 134.2 342.8 133.9 343 133.7C343.2 133.4 343.4 133.2 343.7 133.1L350 130.1C350.3 130 350.6 129.7 350.7 129.4C350.9 129.1 351 128.8 350.9 128.4C350.8 126.2 350.5 123.8 350 121.4ZM331.5 130.5C331.6 132.8 331.4 135.1 331.1 137.4C330.5 140.9 329.4 144.2 327.7 147.4C326.6 149.4 325.3 151.4 323.9 153.1C319 159 312.3 163 304.8 164.5C300.8 165.3 296.7 165.4 292.7 164.7C289.2 164.1 285.9 163 282.7 161.3C280.7 160.2 278.7 158.9 277 157.5C274.3 155.3 271.9 152.6 270.1 149.6C268.9 147.7 267.8 145.6 267.1 143.4C265.9 140.1 265.2 136.6 265 133.1C264.9 130.8 265 128.5 265.4 126.2C266 122.7 267.1 119.4 268.8 116.3C269.9 114.3 271.2 112.3 272.6 110.6C274.8 107.9 277.5 105.5 280.5 103.7C283.9 101.5 287.8 100 291.7 99.2C299.2 97.7 307 98.8 313.8 102.4C315.8 103.5 317.8 104.8 319.5 106.2C322.2 108.4 324.6 111.1 326.4 114.1C327.6 116 328.6 118.1 329.4 120.3C330.7 123.5 331.3 127 331.5 130.5Z" fill="url(#paint0_linear)"/>
<path d="M238.1 134.6C238 134 237.8 133.4 237.6 132.8C237.6 132.7 237.5 132.6 237.5 132.6C237.4 132.5 237.3 132.5 237.3 132.5L235.5 132.4C235.4 132.4 235.3 132.4 235.3 132.3C235.2 132.3 235.2 132.2 235.2 132.1C235.2 132 235.2 132 235.2 131.9C235.2 131.8 235.2 131.8 235.3 131.7L236.3 130.2C236.3 130.1 236.4 130 236.4 130C236.4 129.9 236.4 129.8 236.3 129.8C235.6 128.8 234.8 127.9 233.9 127.1C233.8 127 233.8 127 233.7 127C233.6 127 233.5 127 233.5 127L231.9 127.8C231.8 127.8 231.8 127.9 231.7 127.8C231.6 127.8 231.5 127.8 231.5 127.7C231.4 127.7 231.4 127.6 231.4 127.5C231.4 127.4 231.4 127.4 231.4 127.3L231.5 125.5C231.5 125.4 231.5 125.3 231.4 125.3C231.4 125.2 231.3 125.2 231.2 125.1C230.1 124.6 229 124.2 227.8 123.9C227.7 123.9 227.6 123.9 227.6 123.9C227.5 123.9 227.5 124 227.4 124.1L226.4 125.6C226.4 125.7 226.3 125.7 226.2 125.8C226.1 125.8 226.1 125.8 226 125.8C225.9 125.8 225.8 125.8 225.8 125.7C225.7 125.7 225.7 125.6 225.7 125.5L224.9 123.9C224.9 123.8 224.8 123.8 224.7 123.7C224.6 123.7 224.5 123.6 224.5 123.6C223.3 123.7 222.1 123.9 220.9 124.3C220.8 124.3 220.7 124.4 220.7 124.4C220.6 124.5 220.6 124.6 220.6 124.6L220.5 126.4C220.5 126.5 220.5 126.6 220.4 126.6C220.4 126.7 220.3 126.7 220.2 126.7C220.1 126.7 220.1 126.7 220 126.7C219.9 126.7 219.9 126.7 219.8 126.6L218.3 125.6C218.2 125.6 218.1 125.5 218.1 125.5C218 125.5 217.9 125.5 217.9 125.6C216.9 126.3 216 127.1 215.2 128C215.1 128.1 215.1 128.1 215.1 128.2C215.1 128.3 215.1 128.4 215.1 128.4L215.9 130C215.9 130.1 216 130.1 215.9 130.2C215.9 130.3 215.9 130.4 215.8 130.4C215.8 130.5 215.7 130.5 215.6 130.5C215.5 130.5 215.5 130.5 215.4 130.5L213.6 130.4C213.5 130.4 213.4 130.4 213.4 130.5C213.3 130.5 213.3 130.6 213.2 130.7C212.7 131.8 212.3 132.9 212 134.1C212 134.2 212 134.3 212 134.4C212 134.5 212.1 134.5 212.2 134.6L213.7 135.6C213.8 135.6 213.8 135.7 213.9 135.8C213.9 135.9 214 135.9 213.9 136C213.9 136.1 213.9 136.2 213.8 136.2C213.8 136.3 213.7 136.3 213.6 136.3L212 137.1C211.9 137.1 211.9 137.2 211.8 137.3C211.8 137.4 211.7 137.5 211.7 137.5C211.8 138.7 212 139.9 212.4 141.1C212.4 141.2 212.5 141.3 212.5 141.3C212.6 141.4 212.7 141.4 212.7 141.4L214.5 141.5C214.6 141.5 214.7 141.5 214.7 141.6C214.8 141.6 214.8 141.7 214.8 141.8C214.8 141.9 214.8 141.9 214.8 142C214.8 142.1 214.8 142.1 214.7 142.2L213.7 143.7C213.7 143.8 213.6 143.9 213.6 143.9C213.6 144 213.6 144.1 213.7 144.1C214.4 145.1 215.2 146 216.1 146.8C216.2 146.9 216.2 146.9 216.3 146.9C216.4 146.9 216.5 146.9 216.5 146.9L218.1 146.1C218.2 146.1 218.2 146 218.3 146.1C218.4 146.1 218.5 146.1 218.5 146.2C218.6 146.2 218.6 146.3 218.6 146.4C218.6 146.5 218.6 146.5 218.6 146.6L218.5 148.4C218.5 148.5 218.5 148.6 218.6 148.6C218.6 148.7 218.7 148.7 218.8 148.8C219.9 149.3 221 149.7 222.2 150C222.3 150 222.4 150 222.4 150C222.5 150 222.5 149.9 222.6 149.8L223.6 148.3C223.6 148.2 223.7 148.2 223.8 148.1C223.9 148.1 223.9 148.1 224 148.1C224.1 148.1 224.1 148.1 224.2 148.2C224.3 148.2 224.3 148.3 224.3 148.4L225.1 150C225.1 150.1 225.2 150.1 225.3 150.2C225.4 150.2 225.5 150.3 225.5 150.3C226.7 150.2 227.9 150 229.1 149.6C229.2 149.6 229.3 149.5 229.3 149.5C229.4 149.4 229.4 149.3 229.4 149.3L229.5 147.5C229.5 147.4 229.5 147.3 229.6 147.3C229.6 147.2 229.7 147.2 229.8 147.2C229.9 147.2 229.9 147.2 230 147.2C230.1 147.2 230.1 147.2 230.2 147.3L231.7 148.3C231.8 148.3 231.9 148.4 231.9 148.4C232 148.4 232.1 148.4 232.1 148.3C233.1 147.6 234 146.8 234.8 145.9C234.9 145.8 234.9 145.8 234.9 145.7C234.9 145.6 234.9 145.5 234.9 145.5L234.1 143.9C234.1 143.8 234 143.8 234.1 143.7C234.1 143.6 234.1 143.5 234.2 143.5C234.2 143.4 234.3 143.4 234.4 143.4C234.5 143.4 234.5 143.4 234.6 143.4L236.3 143.5C236.4 143.5 236.5 143.5 236.6 143.4C236.7 143.3 236.7 143.3 236.8 143.2L237.9 139.9C237.9 139.8 237.9 139.7 237.9 139.6C237.9 139.5 237.8 139.4 237.7 139.4L236.2 138.5C236.1 138.5 236.1 138.4 236 138.3C236 138.2 236 138.2 236 138.1C236 138 236 137.9 236.1 137.9C236.1 137.8 236.2 137.8 236.3 137.8L237.9 137C238 137 238 136.9 238.1 136.8C238.1 136.7 238.2 136.6 238.2 136.6C238.3 135.8 238.3 135.2 238.1 134.6ZM233.5 136.9C233.5 137.5 233.5 138.1 233.4 138.6C233.3 139.5 233 140.3 232.5 141.1C232.2 141.6 231.9 142.1 231.5 142.5C230.3 144 228.6 145 226.7 145.4C225.7 145.6 224.7 145.6 223.7 145.4C222.8 145.3 222 145 221.2 144.5C220.7 144.2 220.2 143.9 219.8 143.5C219.1 142.9 218.5 142.3 218.1 141.5C217.8 141 217.5 140.5 217.3 139.9C217 139.1 216.8 138.2 216.8 137.3C216.8 136.7 216.8 136.1 216.9 135.6C217 134.7 217.3 133.9 217.8 133.1C218.1 132.6 218.4 132.1 218.8 131.7C219.4 131 220 130.4 220.8 130C221.7 129.5 222.6 129.1 223.6 128.9C225.5 128.5 227.5 128.8 229.2 129.7C229.7 130 230.2 130.3 230.6 130.7C231.3 131.3 231.9 131.9 232.3 132.7C232.6 133.2 232.9 133.7 233.1 134.3C233.3 135.1 233.4 136 233.5 136.9Z" fill="url(#paint1_linear)"/>
<path d="M564 396.7C564 395.2 563.9 393.6 563.7 392.1C563.7 391.9 563.6 391.7 563.4 391.5C563.3 391.3 563.1 391.2 562.9 391.2L558.6 390.1C558.4 390.1 558.2 390 558.1 389.8C558 389.7 557.9 389.5 557.8 389.3C557.7 389.1 557.8 388.9 557.8 388.7C557.8 388.5 558 388.3 558.1 388.2L561.3 385.1C561.5 384.9 561.6 384.8 561.6 384.5C561.6 384.3 561.6 384.1 561.5 383.9C560.3 381.1 558.8 378.4 556.9 376C556.8 375.8 556.6 375.7 556.4 375.6C556.2 375.5 556 375.5 555.8 375.6L551.5 376.8C551.3 376.9 551.1 376.9 550.9 376.8C550.7 376.8 550.5 376.7 550.4 376.5C550.3 376.4 550.2 376.2 550.1 376C550.1 375.8 550.1 375.6 550.1 375.4L551.3 371.1C551.4 370.9 551.4 370.7 551.3 370.5C551.2 370.3 551.1 370.1 550.9 370C548.5 368.1 545.8 366.6 543 365.4C542.8 365.3 542.6 365.3 542.4 365.3C542.2 365.3 542 365.5 541.8 365.6L538.7 368.8C538.6 368.9 538.4 369 538.2 369.1C538 369.2 537.8 369.2 537.6 369.1C537.4 369 537.2 369 537.1 368.8C537 368.7 536.9 368.5 536.8 368.3L535.7 364C535.6 363.8 535.5 363.6 535.4 363.5C535.2 363.4 535 363.3 534.8 363.2C531.8 362.8 528.7 362.8 525.6 363.2C525.4 363.2 525.2 363.3 525 363.5C524.8 363.6 524.7 363.8 524.7 364L523.6 368.3C523.6 368.5 523.5 368.7 523.3 368.8C523.2 368.9 523 369 522.8 369.1C522.6 369.2 522.4 369.1 522.2 369.1C522 369 521.8 368.9 521.7 368.8L518.6 365.6C518.4 365.4 518.3 365.3 518 365.3C517.8 365.3 517.6 365.3 517.4 365.4C514.6 366.6 511.9 368.1 509.4 370C509.2 370.1 509.1 370.3 509 370.5C508.9 370.7 508.9 370.9 509 371.1L510.2 375.4C510.3 375.6 510.3 375.8 510.2 376C510.2 376.2 510.1 376.4 509.9 376.5C509.8 376.6 509.6 376.7 509.4 376.8C509.2 376.8 509 376.8 508.8 376.8L504.5 375.6C504.3 375.5 504.1 375.5 503.9 375.6C503.7 375.7 503.5 375.8 503.4 376C501.5 378.4 500 381.1 498.8 383.9C498.7 384.1 498.7 384.3 498.7 384.5C498.7 384.7 498.9 384.9 499 385.1L502.2 388.2C502.3 388.3 502.4 388.5 502.5 388.7C502.6 388.9 502.6 389.1 502.5 389.3C502.5 389.5 502.4 389.7 502.2 389.8C502.1 389.9 501.9 390 501.7 390.1L497.4 391.2C497.2 391.3 497 391.4 496.9 391.5C496.8 391.7 496.7 391.9 496.6 392.1C496.2 395.1 496.2 398.2 496.6 401.3C496.6 401.5 496.7 401.7 496.9 401.9C497 402.1 497.2 402.2 497.4 402.2L501.7 403.3C501.9 403.3 502.1 403.4 502.2 403.6C502.3 403.7 502.4 403.9 502.5 404.1C502.5 404.3 502.5 404.5 502.5 404.7C502.4 404.9 502.3 405.1 502.2 405.2L499 408.3C498.8 408.5 498.7 408.6 498.7 408.9C498.7 409.1 498.7 409.3 498.8 409.5C500 412.3 501.5 415 503.4 417.4C503.5 417.6 503.7 417.7 503.9 417.8C504.1 417.9 504.3 417.9 504.5 417.8L508.8 416.6C509 416.5 509.2 416.5 509.4 416.6C509.6 416.6 509.8 416.7 509.9 416.9C510 417 510.1 417.2 510.2 417.4C510.2 417.6 510.2 417.8 510.2 418L509 422.3C508.9 422.5 508.9 422.7 509 422.9C509.1 423.1 509.2 423.3 509.4 423.4C511.8 425.3 514.5 426.8 517.4 428C517.6 428.1 517.8 428.1 518 428.1C518.2 428.1 518.4 427.9 518.6 427.8L521.7 424.6C521.8 424.5 522 424.4 522.2 424.3C522.4 424.2 522.6 424.2 522.8 424.3C523 424.4 523.2 424.4 523.3 424.6C523.4 424.7 523.5 424.9 523.6 425.1L524.7 429.4C524.8 429.6 524.9 429.8 525 429.9C525.2 430 525.4 430.1 525.6 430.2C528.6 430.6 531.7 430.6 534.8 430.2C535 430.2 535.2 430.1 535.4 429.9C535.6 429.8 535.7 429.6 535.7 429.4L536.8 425.1C536.8 424.9 536.9 424.7 537.1 424.6C537.3 424.5 537.4 424.4 537.6 424.3C537.8 424.2 538 424.3 538.2 424.3C538.4 424.4 538.6 424.5 538.7 424.6L541.8 427.8C541.9 428 542.1 428.1 542.4 428.1C542.6 428.1 542.8 428.1 543 428C545.8 426.8 548.5 425.3 550.9 423.4C551.1 423.3 551.2 423.1 551.3 422.9C551.4 422.7 551.4 422.5 551.3 422.3L550.1 418C550 417.8 550 417.6 550.1 417.4C550.1 417.2 550.2 417 550.4 416.9C550.5 416.8 550.7 416.7 550.9 416.6C551.1 416.6 551.3 416.6 551.5 416.6L555.7 417.8C555.9 417.9 556.2 417.9 556.4 417.8C556.6 417.7 556.8 417.5 556.9 417.3L561.4 409.6C561.5 409.4 561.6 409.1 561.5 408.9C561.5 408.7 561.4 408.4 561.2 408.3L558.1 405.3C558 405.2 557.9 405 557.8 404.8C557.7 404.6 557.7 404.4 557.8 404.2C557.9 404 557.9 403.8 558.1 403.7C558.2 403.6 558.4 403.5 558.6 403.4L562.9 402.3C563.1 402.2 563.3 402.1 563.4 402C563.5 401.8 563.6 401.6 563.7 401.4C563.9 399.8 564 398.2 564 396.7ZM551.2 400.1C551 401.5 550.6 403 550.1 404.3C549.3 406.4 548.2 408.4 546.8 410.1C545.9 411.2 544.8 412.3 543.7 413.2C539.9 416.3 535.2 417.9 530.3 417.9C527.7 417.9 525.1 417.4 522.7 416.5C520.6 415.7 518.6 414.6 516.9 413.2C515.8 412.3 514.7 411.2 513.8 410.1C512.4 408.4 511.3 406.4 510.5 404.3C510 402.9 509.6 401.5 509.4 400.1C509 397.9 509 395.6 509.4 393.4C509.6 392 510 390.5 510.5 389.2C511.3 387.1 512.4 385.2 513.8 383.4C514.7 382.3 515.8 381.2 516.9 380.3C518.6 378.9 520.6 377.8 522.7 377C525.1 376.1 527.7 375.6 530.3 375.6C535.2 375.6 539.9 377.3 543.7 380.3C544.8 381.2 545.9 382.3 546.8 383.4C548.2 385.1 549.3 387.1 550.1 389.2C550.6 390.6 551 392 551.2 393.4C551.6 395.6 551.6 397.8 551.2 400.1Z" fill="url(#paint2_linear)"/>
<path d="M488 428.7C488.6 428.3 489.1 427.9 489.6 427.4C489.7 427.3 489.7 427.3 489.7 427.2C489.7 427.1 489.7 427 489.7 426.9L489 425.1C489 425 489 424.9 489 424.9C489 424.8 489.1 424.7 489.1 424.7C489.2 424.6 489.2 424.6 489.3 424.6C489.4 424.6 489.5 424.6 489.5 424.6L491.4 425C491.5 425 491.6 425 491.7 425C491.8 425 491.9 424.9 491.9 424.8C492.6 423.7 493.2 422.4 493.6 421.2C493.6 421.1 493.6 421 493.6 420.9C493.6 420.8 493.5 420.7 493.4 420.7L491.9 419.5C491.8 419.4 491.8 419.4 491.8 419.3C491.8 419.2 491.8 419.1 491.8 419.1C491.8 419 491.9 418.9 491.9 418.9C492 418.8 492 418.8 492.1 418.8L494 418.2C494.1 418.2 494.2 418.1 494.2 418C494.3 417.9 494.3 417.8 494.3 417.7C494.4 416.4 494.3 415 494 413.7C494 413.6 493.9 413.5 493.9 413.5C493.8 413.4 493.7 413.4 493.7 413.4L491.8 413.1C491.7 413.1 491.6 413 491.6 413C491.5 412.9 491.5 412.9 491.5 412.8C491.5 412.7 491.5 412.6 491.5 412.6C491.5 412.5 491.6 412.4 491.6 412.4L492.9 410.9C493 410.8 493 410.7 493 410.6C493 410.5 493 410.4 493 410.3C492.4 409.1 491.6 408 490.7 407C490.6 406.9 490.6 406.9 490.5 406.9C490.4 406.9 490.3 406.9 490.2 406.9L488.4 407.6C488.3 407.6 488.2 407.6 488.2 407.6C488.1 407.6 488 407.5 488 407.5C487.9 407.4 487.9 407.4 487.9 407.3C487.9 407.2 487.9 407.1 487.9 407.1L488.3 405.2C488.3 405.1 488.3 405 488.3 404.9C488.3 404.8 488.2 404.7 488.1 404.7C487 404 485.7 403.4 484.5 403C484.4 403 484.3 403 484.2 403C484.1 403 484 403.1 484 403.2L482.8 404.7C482.7 404.8 482.7 404.8 482.6 404.8C482.5 404.8 482.4 404.8 482.4 404.8C482.3 404.8 482.2 404.7 482.2 404.7C482.1 404.6 482.1 404.6 482.1 404.5L481.5 402.6C481.5 402.5 481.4 402.4 481.3 402.4C481.2 402.3 481.1 402.3 481 402.3C479.7 402.2 478.3 402.3 477 402.6C476.9 402.6 476.8 402.7 476.8 402.7C476.7 402.8 476.7 402.9 476.7 402.9L476.4 404.8C476.4 404.9 476.3 405 476.3 405C476.2 405.1 476.2 405.1 476.1 405.1C476 405.1 475.9 405.1 475.9 405.1C475.8 405.1 475.7 405 475.7 405L474.2 403.7C474.1 403.6 474 403.6 473.9 403.6C473.8 403.6 473.7 403.6 473.6 403.6C472.4 404.2 471.3 405 470.3 405.9C470.2 406 470.2 406 470.2 406.1C470.2 406.2 470.2 406.3 470.2 406.4L470.9 408.2C470.9 408.3 470.9 408.4 470.9 408.4C470.9 408.5 470.8 408.6 470.8 408.6C470.7 408.7 470.7 408.7 470.6 408.7C470.5 408.7 470.4 408.7 470.4 408.7L468.5 408.3C468.4 408.3 468.3 408.3 468.2 408.3C468.1 408.3 468 408.4 468 408.5C467.3 409.6 466.7 410.9 466.3 412.1C466.3 412.2 466.3 412.3 466.3 412.4C466.3 412.5 466.4 412.6 466.5 412.6L468 413.9C468.1 414 468.1 414 468.1 414.1C468.1 414.2 468.1 414.3 468.1 414.3C468.1 414.4 468 414.5 468 414.5C467.9 414.6 467.9 414.6 467.8 414.6L465.9 415.2C465.8 415.2 465.7 415.3 465.7 415.4C465.6 415.5 465.6 415.6 465.6 415.7C465.5 417 465.6 418.4 465.9 419.7C465.9 419.8 466 419.9 466 419.9C466.1 420 466.2 420 466.2 420L468.1 420.3C468.2 420.3 468.3 420.4 468.3 420.4C468.3 420.4 468.4 420.5 468.4 420.6C468.4 420.7 468.4 420.8 468.4 420.8C468.4 420.9 468.3 421 468.3 421L467 422.5C466.9 422.6 466.9 422.7 466.9 422.8C466.9 422.9 466.9 423 466.9 423.1C467.5 424.3 468.3 425.4 469.2 426.4C469.3 426.5 469.3 426.5 469.4 426.5C469.5 426.5 469.6 426.5 469.7 426.5L471.5 425.8C471.6 425.8 471.7 425.8 471.7 425.8C471.8 425.8 471.9 425.9 471.9 425.9C472 426 472 426 472 426.1C472 426.2 472 426.3 472 426.3L471.6 428.2C471.6 428.3 471.6 428.4 471.6 428.5C471.6 428.6 471.7 428.7 471.8 428.7C472.9 429.4 474.2 430 475.4 430.4C475.5 430.4 475.6 430.4 475.7 430.4C475.8 430.4 475.9 430.3 475.9 430.2L477.1 428.7C477.2 428.6 477.2 428.6 477.3 428.6C477.4 428.6 477.5 428.6 477.5 428.6C477.6 428.6 477.7 428.7 477.7 428.7C477.8 428.8 477.8 428.8 477.8 428.9L478.4 430.7C478.4 430.8 478.5 430.9 478.6 430.9C478.7 431 478.8 431 478.9 431L482.8 430.7C482.9 430.7 483 430.6 483.1 430.6C483.2 430.5 483.2 430.4 483.2 430.3L483.5 428.4C483.5 428.3 483.6 428.2 483.6 428.2C483.7 428.1 483.7 428.1 483.8 428.1C483.9 428.1 484 428.1 484 428.1C484.1 428.1 484.2 428.2 484.2 428.2L485.7 429.5C485.8 429.6 485.9 429.6 486 429.6C486.1 429.6 486.2 429.6 486.3 429.6C486.9 429.5 487.5 429.1 488 428.7ZM483.7 425C483.1 425.3 482.5 425.5 481.9 425.6C480.9 425.8 480 425.9 479 425.8C478.4 425.7 477.7 425.6 477.1 425.5C475 424.9 473.3 423.6 472.1 421.8C471.5 420.9 471 419.8 470.7 418.7C470.5 417.7 470.4 416.8 470.5 415.8C470.6 415.2 470.7 414.5 470.9 413.9C471.2 413 471.6 412.1 472.2 411.3C472.6 410.8 473 410.3 473.5 409.8C474.2 409.1 475 408.6 475.9 408.1C476.5 407.8 477.1 407.6 477.7 407.5C478.7 407.3 479.6 407.2 480.6 407.3C481.2 407.4 481.9 407.5 482.5 407.7C483.4 408 484.3 408.4 485.2 409C486.1 409.6 486.9 410.5 487.6 411.4C488.8 413.2 489.4 415.3 489.2 417.4C489.1 418 489 418.7 488.8 419.3C488.5 420.2 488.1 421.1 487.5 422C487.1 422.5 486.7 423 486.3 423.5C485.4 424 484.5 424.5 483.7 425Z" fill="url(#paint3_linear)"/>
<path opacity="0.9" d="M585 128.3C585.5 124 585.8 119.6 585.7 115.2C585.7 114.6 585.5 114 585.1 113.5C584.7 113 584.3 112.6 583.7 112.4L571.8 107.8C571.3 107.6 570.8 107.3 570.5 106.8C570.2 106.4 569.9 105.9 569.9 105.3C569.8 104.8 569.9 104.2 570.1 103.7C570.3 103.2 570.7 102.7 571.1 102.4L581.3 94.7C581.8 94.3 582.2 93.8 582.4 93.2C582.6 92.6 582.6 92 582.5 91.4C580.2 83 576.8 74.9 572.3 67.4C572 66.9 571.5 66.5 571 66.2C570.4 65.9 569.8 65.9 569.2 66L556.6 68C556.1 68.1 555.5 68 555 67.8C554.5 67.6 554 67.3 553.7 66.8C553.4 66.4 553.1 65.9 553.1 65.3C553 64.8 553.1 64.2 553.3 63.7L558.3 52C558.5 51.4 558.6 50.8 558.5 50.2C558.4 49.6 558.1 49 557.7 48.6C551.5 42.4 544.5 37.2 536.9 32.9C536.4 32.6 535.7 32.5 535.1 32.5C534.5 32.6 533.9 32.8 533.4 33.2L523.5 41.2C523.1 41.5 522.6 41.8 522 41.8C521.5 41.9 520.9 41.8 520.4 41.6C519.9 41.4 519.4 41.1 519.1 40.6C518.8 40.2 518.6 39.6 518.5 39.1L517 26.5C516.9 25.9 516.7 25.3 516.3 24.9C515.9 24.4 515.4 24.1 514.8 23.9C506.4 21.7 497.7 20.6 488.9 20.7C488.3 20.7 487.7 20.9 487.2 21.3C486.7 21.7 486.3 22.1 486.1 22.7L481.5 34.6C481.3 35.1 481 35.6 480.5 35.9C480.1 36.2 479.6 36.5 479 36.5C478.4 36.5 477.9 36.5 477.4 36.3C476.9 36.1 476.5 35.7 476.1 35.3L468.4 25.1C468 24.6 467.5 24.2 466.9 24C466.3 23.8 465.7 23.8 465.1 23.9C456.7 26.2 448.6 29.6 441.1 34.1C440.6 34.4 440.2 34.9 439.9 35.4C439.6 36 439.6 36.6 439.7 37.2L441.7 49.8C441.8 50.3 441.7 50.9 441.5 51.4C441.3 51.9 441 52.4 440.5 52.7C440.1 53 439.6 53.3 439 53.3C438.5 53.4 437.9 53.3 437.4 53.1L425.7 48.1C425.1 47.9 424.5 47.8 423.9 47.9C423.3 48 422.7 48.3 422.3 48.7C416.1 54.9 410.8 61.9 406.6 69.5C406.3 70 406.2 70.7 406.2 71.3C406.3 71.9 406.5 72.5 406.9 73L414.9 82.9C415.2 83.3 415.5 83.8 415.6 84.4C415.7 84.9 415.6 85.5 415.4 86C415.2 86.5 414.9 87 414.4 87.3C414 87.6 413.4 87.8 412.9 87.9L400.3 89.4C399.7 89.5 399.1 89.7 398.6 90.1C398.1 90.5 397.8 91 397.6 91.6C395.4 100 394.3 108.8 394.4 117.5C394.4 118.1 394.6 118.7 395 119.2C395.4 119.7 395.8 120.1 396.4 120.3L408.3 124.9C408.8 125.1 409.3 125.4 409.6 125.9C409.9 126.3 410.2 126.8 410.2 127.4C410.3 127.9 410.2 128.5 410 129C409.8 129.5 409.4 130 409 130.3L398.8 138C398.3 138.4 397.9 138.9 397.7 139.5C397.5 140.1 397.5 140.7 397.6 141.3C399.9 149.7 403.3 157.8 407.8 165.3C408.1 165.8 408.6 166.2 409.1 166.5C409.7 166.8 410.3 166.8 410.9 166.7L423.5 164.7C424 164.6 424.6 164.7 425.1 164.9C425.6 165.1 426.1 165.4 426.4 165.9C426.7 166.3 427 166.8 427 167.4C427.1 167.9 427 168.5 426.8 169L421.8 180.7C421.6 181.3 421.5 181.9 421.6 182.5C421.7 183.1 422 183.7 422.4 184.1C428.6 190.3 435.6 195.6 443.2 199.8C443.7 200.1 444.4 200.2 445 200.2C445.6 200.1 446.2 199.9 446.7 199.5L456.6 191.5C457 191.2 457.5 190.9 458.1 190.9C458.6 190.8 459.2 190.9 459.7 191.1C460.2 191.3 460.7 191.6 461 192.1C461.3 192.5 461.5 193.1 461.6 193.6L463.1 206.2C463.2 206.8 463.4 207.4 463.8 207.8C464.2 208.3 464.7 208.6 465.3 208.8C473.7 211 482.4 212.1 491.2 212C491.8 212 492.4 211.8 492.9 211.4C493.4 211 493.8 210.6 494 210L498.6 198.1C498.8 197.6 499.1 197.1 499.6 196.8C500 196.5 500.5 196.2 501.1 196.2C501.6 196.1 502.2 196.2 502.7 196.4C503.2 196.6 503.7 197 504 197.4L511.7 207.6C512.1 208.1 512.6 208.5 513.2 208.7C513.8 208.9 514.4 208.9 515 208.8C523.4 206.5 531.5 203.1 539 198.6C539.5 198.3 539.9 197.8 540.2 197.3C540.5 196.7 540.5 196.1 540.4 195.5L538.4 182.9C538.3 182.4 538.4 181.8 538.6 181.3C538.8 180.8 539.1 180.3 539.6 180C540 179.7 540.5 179.4 541.1 179.4C541.6 179.3 542.2 179.4 542.7 179.6L554.1 184.4C554.7 184.7 555.4 184.7 556.1 184.5C556.8 184.3 557.3 183.9 557.8 183.4L573.1 163.2C573.5 162.7 573.7 162 573.7 161.3C573.7 160.6 573.4 159.9 573 159.4L565.2 149.8C564.9 149.4 564.6 148.9 564.5 148.3C564.4 147.8 564.5 147.2 564.7 146.7C564.9 146.2 565.2 145.7 565.7 145.4C566.1 145.1 566.7 144.9 567.2 144.8L579.8 143.3C580.4 143.2 581 143 581.5 142.6C582 142.2 582.3 141.7 582.5 141.1C583.6 136.9 584.5 132.6 585 128.3ZM548 133.3C546.9 137.3 545.3 141.2 543.3 144.8C540.3 150.4 536.4 155.6 531.8 160C528.8 162.9 525.5 165.4 522 167.7C513 173.3 502.7 176.5 492.2 176.8C485.8 177 479.5 176.2 473.3 174.5C469.3 173.4 465.4 171.8 461.7 169.8C456.1 166.8 450.9 162.9 446.5 158.3C443.6 155.3 441.1 152 438.8 148.5C435.4 143.1 432.9 137.2 431.4 131C430.4 127 429.8 122.8 429.7 118.7C429.5 112.3 430.3 105.9 432 99.8C433.1 95.8 434.7 91.9 436.7 88.2C439.7 82.6 443.6 77.5 448.2 73.1C451.2 70.2 454.5 67.7 458 65.4C463.4 62 469.3 59.5 475.5 58C482.6 56.2 490.1 55.8 497.4 56.7C511.1 58.4 523.9 64.8 533.5 74.7C536.4 77.7 538.9 81 541.2 84.5C544.6 89.9 547.1 95.8 548.6 102C549.6 106 550.2 110.2 550.3 114.3C550.6 120.8 549.8 127.1 548 133.3Z" fill="url(#paint4_linear)"/>
<path opacity="0.9" d="M203.6 323.5C203.6 322.2 203.5 320.8 203.3 319.5C203.3 319.3 203.2 319.1 203.1 319C203 318.9 202.8 318.8 202.6 318.7L198.8 317.8C198.6 317.8 198.5 317.7 198.4 317.6C198.3 317.5 198.2 317.3 198.2 317.2C198.2 317 198.2 316.9 198.2 316.7C198.2 316.5 198.3 316.4 198.5 316.3L201.3 313.6C201.4 313.5 201.5 313.3 201.6 313.1C201.6 312.9 201.6 312.7 201.6 312.5C200.6 310 199.2 307.7 197.6 305.6C197.5 305.5 197.3 305.3 197.1 305.3C196.9 305.2 196.7 305.2 196.5 305.3L192.8 306.4C192.6 306.4 192.5 306.4 192.3 306.4C192.1 306.4 192 306.3 191.9 306.2C191.8 306.1 191.7 305.9 191.7 305.8C191.7 305.6 191.7 305.5 191.7 305.3L192.8 301.6C192.9 301.4 192.8 301.2 192.8 301C192.7 300.8 192.6 300.7 192.5 300.5C190.4 298.9 188.1 297.5 185.6 296.5C185.4 296.4 185.2 296.4 185 296.5C184.8 296.5 184.6 296.6 184.5 296.8L181.8 299.6C181.7 299.7 181.5 299.8 181.4 299.9C181.2 299.9 181.1 299.9 180.9 299.9C180.7 299.9 180.6 299.8 180.5 299.7C180.4 299.6 180.3 299.4 180.3 299.3L179.4 295.5C179.4 295.3 179.3 295.2 179.1 295C179 294.9 178.8 294.8 178.6 294.8C176 294.4 173.3 294.4 170.6 294.8C170.4 294.8 170.2 294.9 170.1 295C170 295.1 169.9 295.3 169.8 295.5L168.9 299.3C168.9 299.5 168.8 299.6 168.7 299.7C168.6 299.8 168.4 299.9 168.3 299.9C168.1 299.9 168 299.9 167.8 299.9C167.6 299.9 167.5 299.8 167.4 299.6L164.7 296.8C164.6 296.7 164.4 296.6 164.2 296.5C164 296.5 163.8 296.5 163.7 296.5C161.2 297.5 158.9 298.8 156.8 300.5C156.7 300.6 156.5 300.8 156.5 301C156.4 301.2 156.4 301.4 156.5 301.6L157.6 305.3C157.6 305.5 157.6 305.6 157.6 305.8C157.6 306 157.5 306.1 157.4 306.2C157.3 306.3 157.1 306.4 157 306.4C156.8 306.4 156.7 306.4 156.5 306.4L152.8 305.3C152.6 305.2 152.4 305.3 152.2 305.3C152 305.4 151.9 305.5 151.7 305.6C150.1 307.7 148.7 310 147.7 312.5C147.6 312.7 147.6 312.9 147.7 313.1C147.7 313.3 147.8 313.5 148 313.6L150.8 316.3C150.9 316.4 151 316.6 151.1 316.7C151.1 316.9 151.1 317 151.1 317.2C151.1 317.4 151 317.5 150.9 317.6C150.8 317.7 150.6 317.8 150.5 317.8L146.7 318.7C146.5 318.7 146.4 318.8 146.2 319C146.1 319.1 146 319.3 146 319.5C145.6 322.1 145.6 324.8 146 327.5C146 327.7 146.1 327.9 146.2 328C146.3 328.1 146.5 328.2 146.7 328.3L150.5 329.2C150.7 329.2 150.8 329.3 150.9 329.4C151 329.5 151.1 329.7 151.1 329.8C151.1 330 151.1 330.1 151.1 330.3C151.1 330.5 151 330.6 150.8 330.7L148 333.4C147.9 333.5 147.8 333.7 147.7 333.9C147.7 334.1 147.7 334.3 147.7 334.5C148.7 337 150.1 339.3 151.7 341.4C151.8 341.5 152 341.7 152.2 341.7C152.4 341.8 152.6 341.8 152.8 341.7L156.5 340.6C156.7 340.6 156.8 340.6 157 340.6C157.2 340.6 157.3 340.7 157.4 340.8C157.5 340.9 157.6 341.1 157.6 341.2C157.6 341.4 157.6 341.5 157.6 341.7L156.5 345.4C156.4 345.6 156.5 345.8 156.5 346C156.6 346.2 156.7 346.3 156.8 346.5C158.9 348.1 161.2 349.5 163.7 350.5C163.9 350.6 164.1 350.6 164.2 350.5C164.4 350.5 164.6 350.4 164.7 350.2L167.4 347.4C167.5 347.3 167.7 347.2 167.8 347.1C168 347.1 168.1 347.1 168.3 347.1C168.5 347.1 168.6 347.2 168.7 347.3C168.8 347.4 168.9 347.6 168.9 347.7L169.8 351.5C169.8 351.7 169.9 351.8 170.1 352C170.2 352.1 170.4 352.2 170.6 352.2C173.2 352.6 175.9 352.6 178.6 352.2C178.8 352.2 179 352.1 179.1 352C179.2 351.9 179.3 351.7 179.4 351.5L180.3 347.7C180.3 347.5 180.4 347.4 180.5 347.3C180.6 347.2 180.8 347.1 180.9 347.1C181.1 347.1 181.2 347.1 181.4 347.1C181.6 347.1 181.7 347.2 181.8 347.4L184.5 350.2C184.6 350.3 184.8 350.4 185 350.5C185.2 350.5 185.4 350.5 185.5 350.5C188 349.5 190.3 348.2 192.4 346.5C192.5 346.4 192.7 346.2 192.7 346C192.8 345.8 192.8 345.6 192.7 345.4L191.6 341.7C191.6 341.5 191.6 341.4 191.6 341.2C191.6 341 191.7 340.9 191.8 340.8C191.9 340.7 192.1 340.6 192.2 340.6C192.4 340.6 192.5 340.6 192.7 340.6L196.3 341.6C196.5 341.7 196.7 341.6 196.9 341.6C197.1 341.5 197.3 341.4 197.4 341.2L201.3 334.5C201.4 334.3 201.4 334.1 201.4 333.9C201.4 333.7 201.3 333.5 201.1 333.4L198.4 330.8C198.3 330.7 198.2 330.5 198.1 330.4C198.1 330.2 198.1 330.1 198.1 329.9C198.1 329.7 198.2 329.6 198.3 329.5C198.4 329.4 198.6 329.3 198.7 329.3L202.5 328.4C202.7 328.4 202.8 328.3 203 328.1C203.1 328 203.2 327.8 203.2 327.6C203.5 326.2 203.6 324.9 203.6 323.5ZM192.5 326.4C192.3 327.7 192 328.9 191.5 330.1C190.8 331.9 189.8 333.6 188.6 335.1C187.8 336.1 186.9 337 185.9 337.8C182.6 340.5 178.5 341.9 174.3 341.9C172 341.9 169.8 341.5 167.7 340.7C165.9 340 164.2 339 162.7 337.8C161.7 337 160.8 336.1 160 335.1C158.8 333.6 157.8 331.9 157.1 330.1C156.6 328.9 156.3 327.7 156.1 326.4C155.8 324.5 155.8 322.5 156.1 320.6C156.3 319.3 156.6 318.1 157.1 316.9C157.8 315.1 158.8 313.4 160 311.9C160.8 310.9 161.7 310 162.7 309.2C164.2 308 165.9 307 167.7 306.3C169.8 305.5 172 305.1 174.3 305.1C178.5 305.1 182.6 306.6 185.9 309.2C186.9 310 187.8 310.9 188.6 311.9C189.8 313.4 190.8 315.1 191.5 316.9C192 318.1 192.3 319.3 192.5 320.6C192.8 322.6 192.8 324.5 192.5 326.4Z" fill="url(#paint5_linear)"/>
<path d="M203.3 152.1H518.5C524.6 152.1 530.4 154.5 534.7 158.8C539 163.1 541.4 168.9 541.4 175V384.4H180.3V175.1C180.3 169 182.7 163.2 187 158.9C191.3 154.5 197.2 152.1 203.3 152.1Z" fill="#231F20"/>
<path d="M531.1 173.4C531.1 167.9 526.6 163.4 521.1 163.4H200.7C195.2 163.4 190.7 167.9 190.7 173.4V354.3C190.7 359.8 195.2 364.3 200.7 364.3H521.1C526.6 364.3 531.1 359.8 531.1 354.3V173.4Z" fill="url(#paint6_linear)"/>
<path opacity="0.79" d="M541.5 375.7H180.3V384.4H541.5V375.7Z" fill="white"/>
<path d="M171.3 400.2H550.4C554.6 400.2 558.6 398.5 561.5 395.6C564.5 392.6 566.1 388.6 566.1 384.5H155.6C155.6 388.7 157.3 392.7 160.2 395.6C163.1 398.6 167.1 400.2 171.3 400.2Z" fill="#EBEBEC"/>
<path d="M384.7 391.2H336.8C335 391.2 333.3 390.5 332 389.2C330.7 387.9 330 386.2 330 384.4H391.4C391.4 385.3 391.2 386.2 390.9 387C390.6 387.8 390.1 388.6 389.4 389.2C388.8 389.8 388 390.3 387.2 390.7C386.4 391 385.6 391.2 384.7 391.2Z" fill="#666666"/>
<path opacity="0.8" d="M230.1 263.3L275.7 283.1V295L229.9 314.9L230.1 300.9L260.4 289.1L230.1 277.2V263.3Z" fill="#F6F6F6"/>
<path opacity="0.8" d="M299.5 334.4V321.4H347.2V334.4H299.5Z" fill="#F6F6F6"/>
<path opacity="0.9" d="M124.2 305.3C121.7 274.9 176.6 211.3 176.6 211.3C176.6 211.3 115.3 232 112.5 302.5L124.2 305.3Z" fill="url(#paint7_linear)"/>
<path opacity="0.9" d="M107.8 309.9C93.6001 231.3 124.2 170.5 124.2 170.5C124.2 170.5 135.4 218.2 114.1 300.1L107.8 309.9Z" fill="url(#paint8_linear)"/>
<path opacity="0.9" d="M82.4 311.5C84.9 281.1 30 217.5 30 217.5C30 217.5 91.3 238.2 94.1 308.7L82.4 311.5Z" fill="url(#paint9_linear)"/>
<path opacity="0.9" d="M94.6002 312.9C67.6002 257.7 83.7002 156.8 83.7002 156.8C83.7002 156.8 116 253.8 108.1 311.2L94.6002 312.9Z" fill="url(#paint10_linear)"/>
<path d="M143.2 402.6H57.1001L72.1001 307.2L100.2 306.9H129.4L143.1 400.8L143.2 402.6Z" fill="#F1F2F2"/>
<path d="M128.5 299.6H71.3998C69.6998 299.6 68.2998 301 68.2998 302.7V304.1C68.2998 305.8 69.6998 307.2 71.3998 307.2H128.5C130.2 307.2 131.6 305.8 131.6 304.1V302.7C131.6 301 130.2 299.6 128.5 299.6Z" fill="#F1F2F2"/>
<path opacity="0.5" d="M143 400.8L57.1001 402.7C129.3 399.3 122.8 307 122.8 307H129.3L143 400.8Z" fill="url(#paint11_linear)"/>
<g opacity="0.3">
<path opacity="0.3" d="M418.2 163.4C418.3 163.4 418.3 163.5 418.2 163.5L204 342.2C203.9 342.3 203.8 342.4 203.7 342.5L190.9 353.2C190.8 353.3 190.7 353.2 190.7 353.1V166.9C190.7 166.8 190.8 166.6 190.8 166.5L192.8 164.4C192.9 164.3 193 164.2 193.1 164.2L196.3 163.4C196.4 163.4 196.6 163.4 196.7 163.4H418.2Z" fill="white"/>
</g>
<path opacity="0.3" d="M521.6 163.4L327.9 364.2H239.3L430.1 163.4H521.6Z" fill="white"/>
<path d="M205.5 161.8C205.5 161.8 190.3 160 189.1 172.9" stroke="#231F20" stroke-width="3" stroke-miterlimit="10"/>
<g clip-path="url(#clip0)">
<path fill-rule="evenodd" clip-rule="evenodd" d="M493.281 183.315C514.692 183.315 534.101 191.519 548.709 204.925C541.605 204.725 534.401 209.027 534.101 218.732C533.501 238.442 557.613 242.644 544.607 282.164L533.901 314.88L504.587 228.537C504.086 227.236 504.687 226.436 506.287 226.436H514.592C514.992 226.436 515.392 226.036 515.392 225.636V220.733C515.392 220.333 514.992 219.933 514.592 219.933C498.884 220.633 483.376 220.633 467.868 219.933C467.468 219.933 467.068 220.333 467.068 220.733V225.636C467.068 226.036 467.468 226.436 467.868 226.436H476.173C478.073 226.436 478.574 227.036 478.974 228.237L490.98 261.153L472.871 315.88L443.156 228.137C442.756 227.036 443.256 226.436 444.257 226.436H453.761C454.162 226.436 454.562 226.036 454.562 225.636V220.733C454.562 220.333 454.162 219.933 453.761 219.933C443.856 220.433 433.851 220.533 424.547 220.633C439.154 198.222 464.467 183.315 493.281 183.315ZM565.317 226.236C571.62 237.842 575.222 251.148 575.222 265.255C575.222 296.271 558.013 323.284 532.601 337.191L558.113 264.755C562.115 253.65 565.717 238.442 565.317 226.236ZM520.695 342.594C512.09 345.695 502.886 347.296 493.281 347.296C484.977 347.296 476.973 346.095 469.469 343.794L494.682 271.458L520.695 342.594ZM458.264 339.392C430.55 326.286 411.44 297.972 411.44 265.255C411.44 253.149 414.042 241.644 418.844 231.238L458.264 339.392ZM493.281 175.611C542.806 175.611 582.926 215.731 582.926 265.255C582.926 314.78 542.806 354.9 493.281 354.9C443.756 354.9 403.636 314.78 403.636 265.255C403.636 215.831 443.756 175.611 493.281 175.611ZM493.281 170.008C545.907 170.008 588.528 212.729 588.528 265.355C588.528 317.981 545.907 360.703 493.281 360.703C440.655 360.703 398.034 317.981 398.034 265.355C398.034 212.729 440.655 170.008 493.281 170.008Z" fill="white"/>
</g>
</g>
<defs>
<filter id="filter0_d" x="-20" y="-15" width="660" height="510" filterUnits="userSpaceOnUse" color-interpolation-filters="sRGB">
<feFlood flood-opacity="0" result="BackgroundImageFix"/>
<feColorMatrix in="SourceAlpha" type="matrix" values="0 0 0 0 0 0 0 0 0 0 0 0 0 0 0 0 0 0 127 0" result="hardAlpha"/>
<feOffset dy="10"/>
<feGaussianBlur stdDeviation="15"/>
<feColorMatrix type="matrix" values="0 0 0 0 0 0 0 0 0 0 0 0 0 0 0 0 0 0 0.25 0"/>
<feBlend mode="normal" in2="BackgroundImageFix" result="effect1_dropShadow"/>
<feBlend mode="normal" in="SourceGraphic" in2="effect1_dropShadow" result="shape"/>
</filter>
<linearGradient id="paint0_linear" x1="245.379" y1="131.789" x2="350.966" y2="131.789" gradientUnits="userSpaceOnUse">
<stop stop-color="#71439A"/>
<stop offset="0.8668" stop-color="#A76CAD"/>
</linearGradient>
<linearGradient id="paint1_linear" x1="211.787" y1="137.206" x2="238.376" y2="137.206" gradientUnits="userSpaceOnUse">
<stop stop-color="#71439A"/>
<stop offset="0.8668" stop-color="#A76CAD"/>
</linearGradient>
<linearGradient id="paint2_linear" x1="496.606" y1="396.71" x2="563.961" y2="396.71" gradientUnits="userSpaceOnUse">
<stop stop-color="#71439A"/>
<stop offset="0.8668" stop-color="#A76CAD"/>
</linearGradient>
<linearGradient id="paint3_linear" x1="464.874" y1="416.514" x2="494.426" y2="416.514" gradientUnits="userSpaceOnUse">
<stop stop-color="#71439A"/>
<stop offset="0.8668" stop-color="#A76CAD"/>
</linearGradient>
<linearGradient id="paint4_linear" x1="491.901" y1="20.903" x2="488.088" y2="218.4" gradientUnits="userSpaceOnUse">
<stop stop-color="#75DAFF"/>
<stop offset="1" stop-color="#00BAFF"/>
</linearGradient>
<linearGradient id="paint5_linear" x1="171.286" y1="352.613" x2="177.543" y2="292.562" gradientUnits="userSpaceOnUse">
<stop stop-color="#75DAFF"/>
<stop offset="1" stop-color="#00BAFF"/>
</linearGradient>
<linearGradient id="paint6_linear" x1="354.738" y1="363.893" x2="367.451" y2="157.18" gradientUnits="userSpaceOnUse">
<stop stop-color="#75DAFF"/>
<stop offset="1" stop-color="#00BAFF"/>
</linearGradient>
<linearGradient id="paint7_linear" x1="136.902" y1="304.332" x2="151.477" y2="208.955" gradientUnits="userSpaceOnUse">
<stop stop-color="#75DAFF"/>
<stop offset="1" stop-color="#00BAFF"/>
</linearGradient>
<linearGradient id="paint8_linear" x1="84.4418" y1="290.623" x2="149.631" y2="186.923" gradientUnits="userSpaceOnUse">
<stop stop-color="#75DAFF"/>
<stop offset="1" stop-color="#00BAFF"/>
</linearGradient>
<linearGradient id="paint9_linear" x1="54.7819" y1="310.631" x2="69.3564" y2="215.254" gradientUnits="userSpaceOnUse">
<stop stop-color="#75DAFF"/>
<stop offset="1" stop-color="#00BAFF"/>
</linearGradient>
<linearGradient id="paint10_linear" x1="62.4633" y1="296.27" x2="129.939" y2="170.347" gradientUnits="userSpaceOnUse">
<stop stop-color="#75DAFF"/>
<stop offset="1" stop-color="#00BAFF"/>
</linearGradient>
<linearGradient id="paint11_linear" x1="99.8704" y1="402.817" x2="111.259" y2="304.747" gradientUnits="userSpaceOnUse">
<stop stop-color="#75DAFF"/>
<stop offset="1" stop-color="#00BAFF"/>
</linearGradient>
<clipPath id="clip0">
<rect width="201.1" height="222.11" fill="white" transform="translate(330 154)"/>
</clipPath>
</defs>
</svg>
