<svg width="600" height="450" viewBox="0 0 600 450" fill="none" xmlns="http://www.w3.org/2000/svg">
<g filter="url(#filter0_d)">
<path d="M340 116.4C339.5 114 338.9 111.7 338.1 109.4C338 109.1 337.8 108.8 337.5 108.6C337.2 108.4 336.9 108.3 336.6 108.3L329.6 108C329.3 108 329 107.9 328.7 107.7C328.4 107.5 328.2 107.3 328.1 107C328 106.7 327.9 106.4 327.9 106.1C327.9 105.8 328 105.5 328.2 105.3L332.2 99.5C332.4 99.2 332.5 98.9 332.5 98.5C332.5 98.2 332.4 97.8 332.2 97.5C329.5 93.5 326.3 89.8 322.7 86.7C322.4 86.5 322.1 86.3 321.8 86.3C321.5 86.3 321.1 86.3 320.8 86.5L314.6 89.7C314.3 89.8 314 89.9 313.7 89.9C313.4 89.9 313.1 89.8 312.9 89.6C312.6 89.4 312.4 89.2 312.3 88.9C312.2 88.6 312.1 88.3 312.1 88L312.7 81C312.7 80.7 312.7 80.3 312.5 80C312.3 79.7 312.1 79.5 311.8 79.3C307.5 77.1 302.9 75.6 298.2 74.7C297.9 74.6 297.5 74.7 297.2 74.8C296.9 74.9 296.6 75.2 296.4 75.4L292.6 81.3C292.4 81.6 292.2 81.8 291.9 81.9C291.6 82 291.3 82.1 291 82.1C290.7 82.1 290.4 82 290.2 81.8C289.9 81.6 289.7 81.4 289.6 81.1L286.6 74.7C286.5 74.4 286.2 74.1 285.9 74C285.6 73.8 285.3 73.7 284.9 73.8C280.1 74.1 275.3 75 270.8 76.6C270.5 76.7 270.2 76.9 270 77.2C269.8 77.5 269.7 77.8 269.7 78.1L269.4 85.1C269.4 85.4 269.3 85.7 269.1 86C268.9 86.3 268.7 86.5 268.4 86.6C268.1 86.7 267.8 86.8 267.5 86.8C267.2 86.8 266.9 86.7 266.7 86.5L260.9 82.5C260.6 82.3 260.3 82.2 260 82.2C259.7 82.2 259.3 82.3 259 82.5C255 85.2 251.3 88.4 248.2 92C248 92.3 247.8 92.6 247.8 92.9C247.8 93.2 247.8 93.6 248 93.9L251.2 100.1C251.3 100.4 251.4 100.7 251.4 101C251.4 101.3 251.3 101.6 251.1 101.8C250.9 102.1 250.7 102.3 250.4 102.4C250.1 102.5 249.8 102.6 249.5 102.6L242.5 102C242.2 102 241.8 102 241.5 102.2C241.2 102.4 241 102.6 240.8 102.9C238.6 107.2 237.1 111.8 236.2 116.5C236.1 116.8 236.2 117.2 236.3 117.5C236.4 117.8 236.7 118.1 236.9 118.3L242.8 122.1C243.1 122.3 243.3 122.5 243.4 122.8C243.5 123.1 243.6 123.4 243.6 123.7C243.6 124 243.5 124.3 243.3 124.5C243.1 124.8 242.9 125 242.6 125.1L236.2 128.1C235.9 128.2 235.6 128.5 235.5 128.8C235.3 129.1 235.2 129.4 235.3 129.8C235.6 134.6 236.5 139.4 238.1 143.9C238.2 144.2 238.4 144.5 238.7 144.7C239 144.9 239.3 145 239.6 145L246.6 145.3C246.9 145.3 247.2 145.4 247.5 145.6C247.8 145.8 248 146 248.1 146.3C248.2 146.6 248.3 146.9 248.3 147.2C248.3 147.5 248.2 147.8 248 148L244 153.8C243.8 154.1 243.7 154.4 243.7 154.8C243.7 155.1 243.8 155.5 244 155.8C246.7 159.8 249.9 163.5 253.5 166.6C253.8 166.8 254.1 167 254.4 167C254.7 167 255.1 167 255.4 166.8L261.7 163.6C262 163.5 262.3 163.4 262.6 163.4C262.9 163.4 263.2 163.5 263.4 163.7C263.7 163.9 263.9 164.1 264 164.4C264.1 164.7 264.2 165 264.2 165.3L263.6 172.3C263.6 172.6 263.6 173 263.8 173.3C264 173.6 264.2 173.8 264.5 174C268.8 176.2 273.4 177.7 278.2 178.6C278.5 178.7 278.9 178.6 279.2 178.5C279.5 178.4 279.8 178.1 280 177.9L283.8 172C284 171.7 284.2 171.5 284.5 171.4C284.8 171.3 285.1 171.2 285.4 171.2C285.7 171.2 286 171.3 286.2 171.5C286.5 171.7 286.7 171.9 286.8 172.2L289.8 178.6C289.9 178.9 290.2 179.2 290.5 179.3C290.8 179.5 291.1 179.6 291.5 179.5C296.3 179.2 301.1 178.3 305.6 176.7C305.9 176.6 306.2 176.4 306.4 176.1C306.6 175.8 306.7 175.5 306.7 175.2L307 168.2C307 167.9 307.1 167.6 307.3 167.3C307.5 167 307.7 166.8 308 166.7C308.3 166.6 308.6 166.5 308.9 166.5C309.2 166.5 309.5 166.6 309.7 166.8L315.5 170.8C315.8 171 316.1 171.1 316.4 171.1C316.7 171.1 317.1 171 317.4 170.8C321.4 168.1 325.1 164.9 328.2 161.3C328.4 161 328.6 160.7 328.6 160.4C328.6 160.1 328.6 159.7 328.4 159.4L325.2 153.2C325.1 152.9 325 152.6 325 152.3C325 152 325.1 151.7 325.3 151.5C325.5 151.2 325.7 151 326 150.9C326.3 150.8 326.6 150.7 326.9 150.7L333.7 151.3C334.1 151.3 334.5 151.2 334.8 151C335.1 150.8 335.4 150.5 335.5 150.1L340 136.8C340.1 136.4 340.1 136 340 135.7C339.9 135.3 339.6 135 339.3 134.8L333.5 131.1C333.2 130.9 333 130.7 332.9 130.4C332.8 130.1 332.7 129.8 332.7 129.5C332.7 129.2 332.8 128.9 333 128.7C333.2 128.4 333.4 128.2 333.7 128.1L340 125.1C340.3 125 340.6 124.7 340.7 124.4C340.9 124.1 341 123.8 340.9 123.4C340.8 121.2 340.5 118.8 340 116.4ZM321.5 125.5C321.6 127.8 321.4 130.1 321.1 132.4C320.5 135.9 319.4 139.2 317.7 142.4C316.6 144.4 315.3 146.4 313.9 148.1C309 154 302.3 158 294.8 159.5C290.8 160.3 286.7 160.4 282.7 159.7C279.2 159.1 275.9 158 272.7 156.3C270.7 155.2 268.7 153.9 267 152.5C264.3 150.3 261.9 147.6 260.1 144.6C258.9 142.7 257.8 140.6 257.1 138.4C255.9 135.1 255.2 131.6 255 128.1C254.9 125.8 255 123.5 255.4 121.2C256 117.7 257.1 114.4 258.8 111.3C259.9 109.3 261.2 107.3 262.6 105.6C264.8 102.9 267.5 100.5 270.5 98.7C273.9 96.5 277.8 95 281.7 94.2C289.2 92.7 297 93.8 303.8 97.4C305.8 98.5 307.8 99.8 309.5 101.2C312.2 103.4 314.6 106.1 316.4 109.1C317.6 111 318.6 113.1 319.4 115.3C320.7 118.5 321.3 122 321.5 125.5Z" fill="url(#paint0_linear)"/>
<path d="M228.1 129.6C228 129 227.8 128.4 227.6 127.8C227.6 127.7 227.5 127.6 227.5 127.6C227.4 127.5 227.3 127.5 227.3 127.5L225.5 127.4C225.4 127.4 225.3 127.4 225.3 127.3C225.2 127.3 225.2 127.2 225.2 127.1C225.2 127 225.2 127 225.2 126.9C225.2 126.8 225.2 126.8 225.3 126.7L226.3 125.2C226.3 125.1 226.4 125 226.4 125C226.4 124.9 226.4 124.8 226.3 124.8C225.6 123.8 224.8 122.9 223.9 122.1C223.8 122 223.8 122 223.7 122C223.6 122 223.5 122 223.5 122L221.9 122.8C221.8 122.8 221.8 122.9 221.7 122.8C221.6 122.8 221.5 122.8 221.5 122.7C221.4 122.7 221.4 122.6 221.4 122.5C221.4 122.4 221.4 122.4 221.4 122.3L221.5 120.5C221.5 120.4 221.5 120.3 221.4 120.3C221.4 120.2 221.3 120.2 221.2 120.1C220.1 119.6 219 119.2 217.8 118.9C217.7 118.9 217.6 118.9 217.6 118.9C217.5 118.9 217.5 119 217.4 119.1L216.4 120.6C216.4 120.7 216.3 120.7 216.2 120.8C216.1 120.8 216.1 120.8 216 120.8C215.9 120.8 215.8 120.8 215.8 120.7C215.7 120.7 215.7 120.6 215.7 120.5L214.9 118.9C214.9 118.8 214.8 118.8 214.7 118.7C214.6 118.7 214.5 118.6 214.5 118.6C213.3 118.7 212.1 118.9 210.9 119.3C210.8 119.3 210.7 119.4 210.7 119.4C210.6 119.5 210.6 119.6 210.6 119.6L210.5 121.4C210.5 121.5 210.5 121.6 210.4 121.6C210.4 121.7 210.3 121.7 210.2 121.7C210.1 121.7 210.1 121.7 210 121.7C209.9 121.7 209.9 121.7 209.8 121.6L208.3 120.6C208.2 120.6 208.1 120.5 208.1 120.5C208 120.5 207.9 120.5 207.9 120.6C206.9 121.3 206 122.1 205.2 123C205.1 123.1 205.1 123.1 205.1 123.2C205.1 123.3 205.1 123.4 205.1 123.4L205.9 125C205.9 125.1 206 125.1 205.9 125.2C205.9 125.3 205.9 125.4 205.8 125.4C205.8 125.5 205.7 125.5 205.6 125.5C205.5 125.5 205.5 125.5 205.4 125.5L203.6 125.4C203.5 125.4 203.4 125.4 203.4 125.5C203.3 125.5 203.3 125.6 203.2 125.7C202.7 126.8 202.3 127.9 202 129.1C202 129.2 202 129.3 202 129.4C202 129.5 202.1 129.5 202.2 129.6L203.7 130.6C203.8 130.6 203.8 130.7 203.9 130.8C203.9 130.9 204 130.9 203.9 131C203.9 131.1 203.9 131.2 203.8 131.2C203.8 131.3 203.7 131.3 203.6 131.3L202 132.1C201.9 132.1 201.9 132.2 201.8 132.3C201.8 132.4 201.7 132.5 201.7 132.5C201.8 133.7 202 134.9 202.4 136.1C202.4 136.2 202.5 136.3 202.5 136.3C202.6 136.4 202.7 136.4 202.7 136.4L204.5 136.5C204.6 136.5 204.7 136.5 204.7 136.6C204.8 136.6 204.8 136.7 204.8 136.8C204.8 136.9 204.8 136.9 204.8 137C204.8 137.1 204.8 137.1 204.7 137.2L203.7 138.7C203.7 138.8 203.6 138.9 203.6 138.9C203.6 139 203.6 139.1 203.7 139.1C204.4 140.1 205.2 141 206.1 141.8C206.2 141.9 206.2 141.9 206.3 141.9C206.4 141.9 206.5 141.9 206.5 141.9L208.1 141.1C208.2 141.1 208.2 141 208.3 141.1C208.4 141.1 208.5 141.1 208.5 141.2C208.6 141.2 208.6 141.3 208.6 141.4C208.6 141.5 208.6 141.5 208.6 141.6L208.5 143.4C208.5 143.5 208.5 143.6 208.6 143.6C208.6 143.7 208.7 143.7 208.8 143.8C209.9 144.3 211 144.7 212.2 145C212.3 145 212.4 145 212.4 145C212.5 145 212.5 144.9 212.6 144.8L213.6 143.3C213.6 143.2 213.7 143.2 213.8 143.1C213.9 143.1 213.9 143.1 214 143.1C214.1 143.1 214.1 143.1 214.2 143.2C214.3 143.2 214.3 143.3 214.3 143.4L215.1 145C215.1 145.1 215.2 145.1 215.3 145.2C215.4 145.2 215.5 145.3 215.5 145.3C216.7 145.2 217.9 145 219.1 144.6C219.2 144.6 219.3 144.5 219.3 144.5C219.4 144.4 219.4 144.3 219.4 144.3L219.5 142.5C219.5 142.4 219.5 142.3 219.6 142.3C219.6 142.2 219.7 142.2 219.8 142.2C219.9 142.2 219.9 142.2 220 142.2C220.1 142.2 220.1 142.2 220.2 142.3L221.7 143.3C221.8 143.3 221.9 143.4 221.9 143.4C222 143.4 222.1 143.4 222.1 143.3C223.1 142.6 224 141.8 224.8 140.9C224.9 140.8 224.9 140.8 224.9 140.7C224.9 140.6 224.9 140.5 224.9 140.5L224.1 138.9C224.1 138.8 224 138.8 224.1 138.7C224.1 138.6 224.1 138.5 224.2 138.5C224.2 138.4 224.3 138.4 224.4 138.4C224.5 138.4 224.5 138.4 224.6 138.4L226.3 138.5C226.4 138.5 226.5 138.5 226.6 138.4C226.7 138.3 226.7 138.3 226.8 138.2L227.9 134.9C227.9 134.8 227.9 134.7 227.9 134.6C227.9 134.5 227.8 134.4 227.7 134.4L226.2 133.5C226.1 133.5 226.1 133.4 226 133.3C226 133.2 226 133.2 226 133.1C226 133 226 132.9 226.1 132.9C226.1 132.8 226.2 132.8 226.3 132.8L227.9 132C228 132 228 131.9 228.1 131.8C228.1 131.7 228.2 131.6 228.2 131.6C228.3 130.8 228.3 130.2 228.1 129.6ZM223.5 131.9C223.5 132.5 223.5 133.1 223.4 133.6C223.3 134.5 223 135.3 222.5 136.1C222.2 136.6 221.9 137.1 221.5 137.5C220.3 139 218.6 140 216.7 140.4C215.7 140.6 214.7 140.6 213.7 140.4C212.8 140.3 212 140 211.2 139.5C210.7 139.2 210.2 138.9 209.8 138.5C209.1 137.9 208.5 137.3 208.1 136.5C207.8 136 207.5 135.5 207.3 134.9C207 134.1 206.8 133.2 206.8 132.3C206.8 131.7 206.8 131.1 206.9 130.6C207 129.7 207.3 128.9 207.8 128.1C208.1 127.6 208.4 127.1 208.8 126.7C209.4 126 210 125.4 210.8 125C211.7 124.5 212.6 124.1 213.6 123.9C215.5 123.5 217.5 123.8 219.2 124.7C219.7 125 220.2 125.3 220.6 125.7C221.3 126.3 221.9 126.9 222.3 127.7C222.6 128.2 222.9 128.7 223.1 129.3C223.3 130.1 223.4 131 223.5 131.9Z" fill="url(#paint1_linear)"/>
<path d="M554 391.7C554 390.2 553.9 388.6 553.7 387.1C553.7 386.9 553.6 386.7 553.4 386.5C553.3 386.3 553.1 386.2 552.9 386.2L548.6 385.1C548.4 385.1 548.2 385 548.1 384.8C548 384.7 547.9 384.5 547.8 384.3C547.7 384.1 547.8 383.9 547.8 383.7C547.8 383.5 548 383.3 548.1 383.2L551.3 380.1C551.5 379.9 551.6 379.8 551.6 379.5C551.6 379.3 551.6 379.1 551.5 378.9C550.3 376.1 548.8 373.4 546.9 371C546.8 370.8 546.6 370.7 546.4 370.6C546.2 370.5 546 370.5 545.8 370.6L541.5 371.8C541.3 371.9 541.1 371.9 540.9 371.8C540.7 371.8 540.5 371.7 540.4 371.5C540.3 371.4 540.2 371.2 540.1 371C540.1 370.8 540.1 370.6 540.1 370.4L541.3 366.1C541.4 365.9 541.4 365.7 541.3 365.5C541.2 365.3 541.1 365.1 540.9 365C538.5 363.1 535.8 361.6 533 360.4C532.8 360.3 532.6 360.3 532.4 360.3C532.2 360.3 532 360.5 531.8 360.6L528.7 363.8C528.6 363.9 528.4 364 528.2 364.1C528 364.2 527.8 364.2 527.6 364.1C527.4 364 527.2 364 527.1 363.8C527 363.7 526.9 363.5 526.8 363.3L525.7 359C525.6 358.8 525.5 358.6 525.4 358.5C525.2 358.4 525 358.3 524.8 358.2C521.8 357.8 518.7 357.8 515.6 358.2C515.4 358.2 515.2 358.3 515 358.5C514.8 358.6 514.7 358.8 514.7 359L513.6 363.3C513.6 363.5 513.5 363.7 513.3 363.8C513.2 363.9 513 364 512.8 364.1C512.6 364.2 512.4 364.1 512.2 364.1C512 364 511.8 363.9 511.7 363.8L508.6 360.6C508.4 360.4 508.3 360.3 508 360.3C507.8 360.3 507.6 360.3 507.4 360.4C504.6 361.6 501.9 363.1 499.4 365C499.2 365.1 499.1 365.3 499 365.5C498.9 365.7 498.9 365.9 499 366.1L500.2 370.4C500.3 370.6 500.3 370.8 500.2 371C500.2 371.2 500.1 371.4 499.9 371.5C499.8 371.6 499.6 371.7 499.4 371.8C499.2 371.8 499 371.8 498.8 371.8L494.5 370.6C494.3 370.5 494.1 370.5 493.9 370.6C493.7 370.7 493.5 370.8 493.4 371C491.5 373.4 490 376.1 488.8 378.9C488.7 379.1 488.7 379.3 488.7 379.5C488.7 379.7 488.9 379.9 489 380.1L492.2 383.2C492.3 383.3 492.4 383.5 492.5 383.7C492.6 383.9 492.6 384.1 492.5 384.3C492.5 384.5 492.4 384.7 492.2 384.8C492.1 384.9 491.9 385 491.7 385.1L487.4 386.2C487.2 386.3 487 386.4 486.9 386.5C486.8 386.7 486.7 386.9 486.6 387.1C486.2 390.1 486.2 393.2 486.6 396.3C486.6 396.5 486.7 396.7 486.9 396.9C487 397.1 487.2 397.2 487.4 397.2L491.7 398.3C491.9 398.3 492.1 398.4 492.2 398.6C492.3 398.7 492.4 398.9 492.5 399.1C492.5 399.3 492.5 399.5 492.5 399.7C492.4 399.9 492.3 400.1 492.2 400.2L489 403.3C488.8 403.5 488.7 403.6 488.7 403.9C488.7 404.1 488.7 404.3 488.8 404.5C490 407.3 491.5 410 493.4 412.4C493.5 412.6 493.7 412.7 493.9 412.8C494.1 412.9 494.3 412.9 494.5 412.8L498.8 411.6C499 411.5 499.2 411.5 499.4 411.6C499.6 411.6 499.8 411.7 499.9 411.9C500 412 500.1 412.2 500.2 412.4C500.2 412.6 500.2 412.8 500.2 413L499 417.3C498.9 417.5 498.9 417.7 499 417.9C499.1 418.1 499.2 418.3 499.4 418.4C501.8 420.3 504.5 421.8 507.4 423C507.6 423.1 507.8 423.1 508 423.1C508.2 423.1 508.4 422.9 508.6 422.8L511.7 419.6C511.8 419.5 512 419.4 512.2 419.3C512.4 419.2 512.6 419.2 512.8 419.3C513 419.4 513.2 419.4 513.3 419.6C513.4 419.7 513.5 419.9 513.6 420.1L514.7 424.4C514.8 424.6 514.9 424.8 515 424.9C515.2 425 515.4 425.1 515.6 425.2C518.6 425.6 521.7 425.6 524.8 425.2C525 425.2 525.2 425.1 525.4 424.9C525.6 424.8 525.7 424.6 525.7 424.4L526.8 420.1C526.8 419.9 526.9 419.7 527.1 419.6C527.3 419.5 527.4 419.4 527.6 419.3C527.8 419.2 528 419.3 528.2 419.3C528.4 419.4 528.6 419.5 528.7 419.6L531.8 422.8C531.9 423 532.1 423.1 532.4 423.1C532.6 423.1 532.8 423.1 533 423C535.8 421.8 538.5 420.3 540.9 418.4C541.1 418.3 541.2 418.1 541.3 417.9C541.4 417.7 541.4 417.5 541.3 417.3L540.1 413C540 412.8 540 412.6 540.1 412.4C540.1 412.2 540.2 412 540.4 411.9C540.5 411.8 540.7 411.7 540.9 411.6C541.1 411.6 541.3 411.6 541.5 411.6L545.7 412.8C545.9 412.9 546.2 412.9 546.4 412.8C546.6 412.7 546.8 412.5 546.9 412.3L551.4 404.6C551.5 404.4 551.6 404.1 551.5 403.9C551.5 403.7 551.4 403.4 551.2 403.3L548.1 400.3C548 400.2 547.9 400 547.8 399.8C547.7 399.6 547.7 399.4 547.8 399.2C547.9 399 547.9 398.8 548.1 398.7C548.2 398.6 548.4 398.5 548.6 398.4L552.9 397.3C553.1 397.2 553.3 397.1 553.4 397C553.5 396.8 553.6 396.6 553.7 396.4C553.9 394.8 554 393.2 554 391.7ZM541.2 395.1C541 396.5 540.6 398 540.1 399.3C539.3 401.4 538.2 403.4 536.8 405.1C535.9 406.2 534.8 407.3 533.7 408.2C529.9 411.3 525.2 412.9 520.3 412.9C517.7 412.9 515.1 412.4 512.7 411.5C510.6 410.7 508.6 409.6 506.9 408.2C505.8 407.3 504.7 406.2 503.8 405.1C502.4 403.4 501.3 401.4 500.5 399.3C500 397.9 499.6 396.5 499.4 395.1C499 392.9 499 390.6 499.4 388.4C499.6 387 500 385.5 500.5 384.2C501.3 382.1 502.4 380.2 503.8 378.4C504.7 377.3 505.8 376.2 506.9 375.3C508.6 373.9 510.6 372.8 512.7 372C515.1 371.1 517.7 370.6 520.3 370.6C525.2 370.6 529.9 372.3 533.7 375.3C534.8 376.2 535.9 377.3 536.8 378.4C538.2 380.1 539.3 382.1 540.1 384.2C540.6 385.6 541 387 541.2 388.4C541.6 390.6 541.6 392.8 541.2 395.1Z" fill="url(#paint2_linear)"/>
<path d="M478 423.7C478.6 423.3 479.1 422.9 479.6 422.4C479.7 422.3 479.7 422.3 479.7 422.2C479.7 422.1 479.7 422 479.7 421.9L479 420.1C479 420 479 419.9 479 419.9C479 419.8 479.1 419.7 479.1 419.7C479.2 419.6 479.2 419.6 479.3 419.6C479.4 419.6 479.5 419.6 479.5 419.6L481.4 420C481.5 420 481.6 420 481.7 420C481.8 420 481.9 419.9 481.9 419.8C482.6 418.7 483.2 417.4 483.6 416.2C483.6 416.1 483.6 416 483.6 415.9C483.6 415.8 483.5 415.7 483.4 415.7L481.9 414.5C481.8 414.4 481.8 414.4 481.8 414.3C481.8 414.2 481.8 414.1 481.8 414.1C481.8 414 481.9 413.9 481.9 413.9C482 413.8 482 413.8 482.1 413.8L484 413.2C484.1 413.2 484.2 413.1 484.2 413C484.3 412.9 484.3 412.8 484.3 412.7C484.4 411.4 484.3 410 484 408.7C484 408.6 483.9 408.5 483.9 408.5C483.8 408.4 483.7 408.4 483.7 408.4L481.8 408.1C481.7 408.1 481.6 408 481.6 408C481.5 407.9 481.5 407.9 481.5 407.8C481.5 407.7 481.5 407.6 481.5 407.6C481.5 407.5 481.6 407.4 481.6 407.4L482.9 405.9C483 405.8 483 405.7 483 405.6C483 405.5 483 405.4 483 405.3C482.4 404.1 481.6 403 480.7 402C480.6 401.9 480.6 401.9 480.5 401.9C480.4 401.9 480.3 401.9 480.2 401.9L478.4 402.6C478.3 402.6 478.2 402.6 478.2 402.6C478.1 402.6 478 402.5 478 402.5C477.9 402.4 477.9 402.4 477.9 402.3C477.9 402.2 477.9 402.1 477.9 402.1L478.3 400.2C478.3 400.1 478.3 400 478.3 399.9C478.3 399.8 478.2 399.7 478.1 399.7C477 399 475.7 398.4 474.5 398C474.4 398 474.3 398 474.2 398C474.1 398 474 398.1 474 398.2L472.8 399.7C472.7 399.8 472.7 399.8 472.6 399.8C472.5 399.8 472.4 399.8 472.4 399.8C472.3 399.8 472.2 399.7 472.2 399.7C472.1 399.6 472.1 399.6 472.1 399.5L471.5 397.6C471.5 397.5 471.4 397.4 471.3 397.4C471.2 397.3 471.1 397.3 471 397.3C469.7 397.2 468.3 397.3 467 397.6C466.9 397.6 466.8 397.7 466.8 397.7C466.7 397.8 466.7 397.9 466.7 397.9L466.4 399.8C466.4 399.9 466.3 400 466.3 400C466.2 400.1 466.2 400.1 466.1 400.1C466 400.1 465.9 400.1 465.9 400.1C465.8 400.1 465.7 400 465.7 400L464.2 398.7C464.1 398.6 464 398.6 463.9 398.6C463.8 398.6 463.7 398.6 463.6 398.6C462.4 399.2 461.3 400 460.3 400.9C460.2 401 460.2 401 460.2 401.1C460.2 401.2 460.2 401.3 460.2 401.4L460.9 403.2C460.9 403.3 460.9 403.4 460.9 403.4C460.9 403.5 460.8 403.6 460.8 403.6C460.7 403.7 460.7 403.7 460.6 403.7C460.5 403.7 460.4 403.7 460.4 403.7L458.5 403.3C458.4 403.3 458.3 403.3 458.2 403.3C458.1 403.3 458 403.4 458 403.5C457.3 404.6 456.7 405.9 456.3 407.1C456.3 407.2 456.3 407.3 456.3 407.4C456.3 407.5 456.4 407.6 456.5 407.6L458 408.9C458.1 409 458.1 409 458.1 409.1C458.1 409.2 458.1 409.3 458.1 409.3C458.1 409.4 458 409.5 458 409.5C457.9 409.6 457.9 409.6 457.8 409.6L455.9 410.2C455.8 410.2 455.7 410.3 455.7 410.4C455.6 410.5 455.6 410.6 455.6 410.7C455.5 412 455.6 413.4 455.9 414.7C455.9 414.8 456 414.9 456 414.9C456.1 415 456.2 415 456.2 415L458.1 415.3C458.2 415.3 458.3 415.4 458.3 415.4C458.3 415.4 458.4 415.5 458.4 415.6C458.4 415.7 458.4 415.8 458.4 415.8C458.4 415.9 458.3 416 458.3 416L457 417.5C456.9 417.6 456.9 417.7 456.9 417.8C456.9 417.9 456.9 418 456.9 418.1C457.5 419.3 458.3 420.4 459.2 421.4C459.3 421.5 459.3 421.5 459.4 421.5C459.5 421.5 459.6 421.5 459.7 421.5L461.5 420.8C461.6 420.8 461.7 420.8 461.7 420.8C461.8 420.8 461.9 420.9 461.9 420.9C462 421 462 421 462 421.1C462 421.2 462 421.3 462 421.3L461.6 423.2C461.6 423.3 461.6 423.4 461.6 423.5C461.6 423.6 461.7 423.7 461.8 423.7C462.9 424.4 464.2 425 465.4 425.4C465.5 425.4 465.6 425.4 465.7 425.4C465.8 425.4 465.9 425.3 465.9 425.2L467.1 423.7C467.2 423.6 467.2 423.6 467.3 423.6C467.4 423.6 467.5 423.6 467.5 423.6C467.6 423.6 467.7 423.7 467.7 423.7C467.8 423.8 467.8 423.8 467.8 423.9L468.4 425.7C468.4 425.8 468.5 425.9 468.6 425.9C468.7 426 468.8 426 468.9 426L472.8 425.7C472.9 425.7 473 425.6 473.1 425.6C473.2 425.5 473.2 425.4 473.2 425.3L473.5 423.4C473.5 423.3 473.6 423.2 473.6 423.2C473.7 423.1 473.7 423.1 473.8 423.1C473.9 423.1 474 423.1 474 423.1C474.1 423.1 474.2 423.2 474.2 423.2L475.7 424.5C475.8 424.6 475.9 424.6 476 424.6C476.1 424.6 476.2 424.6 476.3 424.6C476.9 424.5 477.5 424.1 478 423.7ZM473.7 420C473.1 420.3 472.5 420.5 471.9 420.6C470.9 420.8 470 420.9 469 420.8C468.4 420.7 467.7 420.6 467.1 420.5C465 419.9 463.3 418.6 462.1 416.8C461.5 415.9 461 414.8 460.7 413.7C460.5 412.7 460.4 411.8 460.5 410.8C460.6 410.2 460.7 409.5 460.9 408.9C461.2 408 461.6 407.1 462.2 406.3C462.6 405.8 463 405.3 463.5 404.8C464.2 404.1 465 403.6 465.9 403.1C466.5 402.8 467.1 402.6 467.7 402.5C468.7 402.3 469.6 402.2 470.6 402.3C471.2 402.4 471.9 402.5 472.5 402.7C473.4 403 474.3 403.4 475.2 404C476.1 404.6 476.9 405.5 477.6 406.4C478.8 408.2 479.4 410.3 479.2 412.4C479.1 413 479 413.7 478.8 414.3C478.5 415.2 478.1 416.1 477.5 417C477.1 417.5 476.7 418 476.3 418.5C475.4 419 474.5 419.5 473.7 420Z" fill="url(#paint3_linear)"/>
<path opacity="0.9" d="M575 123.3C575.5 119 575.8 114.6 575.7 110.2C575.7 109.6 575.5 109 575.1 108.5C574.7 108 574.3 107.6 573.7 107.4L561.8 102.8C561.3 102.6 560.8 102.3 560.5 101.8C560.2 101.4 559.9 100.9 559.9 100.3C559.8 99.8 559.9 99.2 560.1 98.7C560.3 98.2 560.7 97.7 561.1 97.4L571.3 89.7C571.8 89.3 572.2 88.8 572.4 88.2C572.6 87.6 572.6 87 572.5 86.4C570.2 78 566.8 69.9 562.3 62.4C562 61.9 561.5 61.5 561 61.2C560.4 60.9 559.8 60.9 559.2 61L546.6 63C546.1 63.1 545.5 63 545 62.8C544.5 62.6 544 62.3 543.7 61.8C543.4 61.4 543.1 60.9 543.1 60.3C543 59.8 543.1 59.2 543.3 58.7L548.3 47C548.5 46.4 548.6 45.8 548.5 45.2C548.4 44.6 548.1 44 547.7 43.6C541.5 37.4 534.5 32.2 526.9 27.9C526.4 27.6 525.7 27.5 525.1 27.5C524.5 27.6 523.9 27.8 523.4 28.2L513.5 36.2C513.1 36.5 512.6 36.8 512 36.8C511.5 36.9 510.9 36.8 510.4 36.6C509.9 36.4 509.4 36.1 509.1 35.6C508.8 35.2 508.6 34.6 508.5 34.1L507 21.5C506.9 20.9 506.7 20.3 506.3 19.9C505.9 19.4 505.4 19.1 504.8 18.9C496.4 16.7 487.7 15.6 478.9 15.7C478.3 15.7 477.7 15.9 477.2 16.3C476.7 16.7 476.3 17.1 476.1 17.7L471.5 29.6C471.3 30.1 471 30.6 470.5 30.9C470.1 31.2 469.6 31.5 469 31.5C468.4 31.5 467.9 31.5 467.4 31.3C466.9 31.1 466.5 30.7 466.1 30.3L458.4 20.1C458 19.6 457.5 19.2 456.9 19C456.3 18.8 455.7 18.8 455.1 18.9C446.7 21.2 438.6 24.6 431.1 29.1C430.6 29.4 430.2 29.9 429.9 30.4C429.6 31 429.6 31.6 429.7 32.2L431.7 44.8C431.8 45.3 431.7 45.9 431.5 46.4C431.3 46.9 431 47.4 430.5 47.7C430.1 48 429.6 48.3 429 48.3C428.5 48.4 427.9 48.3 427.4 48.1L415.7 43.1C415.1 42.9 414.5 42.8 413.9 42.9C413.3 43 412.7 43.3 412.3 43.7C406.1 49.9 400.8 56.9 396.6 64.5C396.3 65 396.2 65.7 396.2 66.3C396.3 66.9 396.5 67.5 396.9 68L404.9 77.9C405.2 78.3 405.5 78.8 405.6 79.4C405.7 79.9 405.6 80.5 405.4 81C405.2 81.5 404.9 82 404.4 82.3C404 82.6 403.4 82.8 402.9 82.9L390.3 84.4C389.7 84.5 389.1 84.7 388.6 85.1C388.1 85.5 387.8 86 387.6 86.6C385.4 95 384.3 103.8 384.4 112.5C384.4 113.1 384.6 113.7 385 114.2C385.4 114.7 385.8 115.1 386.4 115.3L398.3 119.9C398.8 120.1 399.3 120.4 399.6 120.9C399.9 121.3 400.2 121.8 400.2 122.4C400.3 122.9 400.2 123.5 400 124C399.8 124.5 399.4 125 399 125.3L388.8 133C388.3 133.4 387.9 133.9 387.7 134.5C387.5 135.1 387.5 135.7 387.6 136.3C389.9 144.7 393.3 152.8 397.8 160.3C398.1 160.8 398.6 161.2 399.1 161.5C399.7 161.8 400.3 161.8 400.9 161.7L413.5 159.7C414 159.6 414.6 159.7 415.1 159.9C415.6 160.1 416.1 160.4 416.4 160.9C416.7 161.3 417 161.8 417 162.4C417.1 162.9 417 163.5 416.8 164L411.8 175.7C411.6 176.3 411.5 176.9 411.6 177.5C411.7 178.1 412 178.7 412.4 179.1C418.6 185.3 425.6 190.6 433.2 194.8C433.7 195.1 434.4 195.2 435 195.2C435.6 195.1 436.2 194.9 436.7 194.5L446.6 186.5C447 186.2 447.5 185.9 448.1 185.9C448.6 185.8 449.2 185.9 449.7 186.1C450.2 186.3 450.7 186.6 451 187.1C451.3 187.5 451.5 188.1 451.6 188.6L453.1 201.2C453.2 201.8 453.4 202.4 453.8 202.8C454.2 203.3 454.7 203.6 455.3 203.8C463.7 206 472.4 207.1 481.2 207C481.8 207 482.4 206.8 482.9 206.4C483.4 206 483.8 205.6 484 205L488.6 193.1C488.8 192.6 489.1 192.1 489.6 191.8C490 191.5 490.5 191.2 491.1 191.2C491.6 191.1 492.2 191.2 492.7 191.4C493.2 191.6 493.7 192 494 192.4L501.7 202.6C502.1 203.1 502.6 203.5 503.2 203.7C503.8 203.9 504.4 203.9 505 203.8C513.4 201.5 521.5 198.1 529 193.6C529.5 193.3 529.9 192.8 530.2 192.3C530.5 191.7 530.5 191.1 530.4 190.5L528.4 177.9C528.3 177.4 528.4 176.8 528.6 176.3C528.8 175.8 529.1 175.3 529.6 175C530 174.7 530.5 174.4 531.1 174.4C531.6 174.3 532.2 174.4 532.7 174.6L544.1 179.4C544.7 179.7 545.4 179.7 546.1 179.5C546.8 179.3 547.3 178.9 547.8 178.4L563.1 158.2C563.5 157.7 563.7 157 563.7 156.3C563.7 155.6 563.4 154.9 563 154.4L555.2 144.8C554.9 144.4 554.6 143.9 554.5 143.3C554.4 142.8 554.5 142.2 554.7 141.7C554.9 141.2 555.2 140.7 555.7 140.4C556.1 140.1 556.7 139.9 557.2 139.8L569.8 138.3C570.4 138.2 571 138 571.5 137.6C572 137.2 572.3 136.7 572.5 136.1C573.6 131.9 574.5 127.6 575 123.3ZM538 128.3C536.9 132.3 535.3 136.2 533.3 139.8C530.3 145.4 526.4 150.6 521.8 155C518.8 157.9 515.5 160.4 512 162.7C503 168.3 492.7 171.5 482.2 171.8C475.8 172 469.5 171.2 463.3 169.5C459.3 168.4 455.4 166.8 451.7 164.8C446.1 161.8 440.9 157.9 436.5 153.3C433.6 150.3 431.1 147 428.8 143.5C425.4 138.1 422.9 132.2 421.4 126C420.4 122 419.8 117.8 419.7 113.7C419.5 107.3 420.3 100.9 422 94.8C423.1 90.8 424.7 86.9 426.7 83.2C429.7 77.6 433.6 72.5 438.2 68.1C441.2 65.2 444.5 62.7 448 60.4C453.4 57 459.3 54.5 465.5 53C472.6 51.2 480.1 50.8 487.4 51.7C501.1 53.4 513.9 59.8 523.5 69.7C526.4 72.7 528.9 76 531.2 79.5C534.6 84.9 537.1 90.8 538.6 97C539.6 101 540.2 105.2 540.3 109.3C540.6 115.8 539.8 122.1 538 128.3Z" fill="url(#paint4_linear)"/>
<path opacity="0.9" d="M193.6 318.5C193.6 317.2 193.5 315.8 193.3 314.5C193.3 314.3 193.2 314.1 193.1 314C193 313.9 192.8 313.8 192.6 313.7L188.8 312.8C188.6 312.8 188.5 312.7 188.4 312.6C188.3 312.5 188.2 312.3 188.2 312.2C188.2 312 188.2 311.9 188.2 311.7C188.2 311.5 188.3 311.4 188.5 311.3L191.3 308.6C191.4 308.5 191.5 308.3 191.6 308.1C191.6 307.9 191.6 307.7 191.6 307.5C190.6 305 189.2 302.7 187.6 300.6C187.5 300.5 187.3 300.3 187.1 300.3C186.9 300.2 186.7 300.2 186.5 300.3L182.8 301.4C182.6 301.4 182.5 301.4 182.3 301.4C182.1 301.4 182 301.3 181.9 301.2C181.8 301.1 181.7 300.9 181.7 300.8C181.7 300.6 181.7 300.5 181.7 300.3L182.8 296.6C182.9 296.4 182.8 296.2 182.8 296C182.7 295.8 182.6 295.7 182.5 295.5C180.4 293.9 178.1 292.5 175.6 291.5C175.4 291.4 175.2 291.4 175 291.5C174.8 291.5 174.6 291.6 174.5 291.8L171.8 294.6C171.7 294.7 171.5 294.8 171.4 294.9C171.2 294.9 171.1 294.9 170.9 294.9C170.7 294.9 170.6 294.8 170.5 294.7C170.4 294.6 170.3 294.4 170.3 294.3L169.4 290.5C169.4 290.3 169.3 290.2 169.1 290C169 289.9 168.8 289.8 168.6 289.8C166 289.4 163.3 289.4 160.6 289.8C160.4 289.8 160.2 289.9 160.1 290C160 290.1 159.9 290.3 159.8 290.5L158.9 294.3C158.9 294.5 158.8 294.6 158.7 294.7C158.6 294.8 158.4 294.9 158.3 294.9C158.1 294.9 158 294.9 157.8 294.9C157.6 294.9 157.5 294.8 157.4 294.6L154.7 291.8C154.6 291.7 154.4 291.6 154.2 291.5C154 291.5 153.8 291.5 153.7 291.5C151.2 292.5 148.9 293.8 146.8 295.5C146.7 295.6 146.5 295.8 146.5 296C146.4 296.2 146.4 296.4 146.5 296.6L147.6 300.3C147.6 300.5 147.6 300.6 147.6 300.8C147.6 301 147.5 301.1 147.4 301.2C147.3 301.3 147.1 301.4 147 301.4C146.8 301.4 146.7 301.4 146.5 301.4L142.8 300.3C142.6 300.2 142.4 300.3 142.2 300.3C142 300.4 141.9 300.5 141.7 300.6C140.1 302.7 138.7 305 137.7 307.5C137.6 307.7 137.6 307.9 137.7 308.1C137.7 308.3 137.8 308.5 138 308.6L140.8 311.3C140.9 311.4 141 311.6 141.1 311.7C141.1 311.9 141.1 312 141.1 312.2C141.1 312.4 141 312.5 140.9 312.6C140.8 312.7 140.6 312.8 140.5 312.8L136.7 313.7C136.5 313.7 136.4 313.8 136.2 314C136.1 314.1 136 314.3 136 314.5C135.6 317.1 135.6 319.8 136 322.5C136 322.7 136.1 322.9 136.2 323C136.3 323.1 136.5 323.2 136.7 323.3L140.5 324.2C140.7 324.2 140.8 324.3 140.9 324.4C141 324.5 141.1 324.7 141.1 324.8C141.1 325 141.1 325.1 141.1 325.3C141.1 325.5 141 325.6 140.8 325.7L138 328.4C137.9 328.5 137.8 328.7 137.7 328.9C137.7 329.1 137.7 329.3 137.7 329.5C138.7 332 140.1 334.3 141.7 336.4C141.8 336.5 142 336.7 142.2 336.7C142.4 336.8 142.6 336.8 142.8 336.7L146.5 335.6C146.7 335.6 146.8 335.6 147 335.6C147.2 335.6 147.3 335.7 147.4 335.8C147.5 335.9 147.6 336.1 147.6 336.2C147.6 336.4 147.6 336.5 147.6 336.7L146.5 340.4C146.4 340.6 146.5 340.8 146.5 341C146.6 341.2 146.7 341.3 146.8 341.5C148.9 343.1 151.2 344.5 153.7 345.5C153.9 345.6 154.1 345.6 154.2 345.5C154.4 345.5 154.6 345.4 154.7 345.2L157.4 342.4C157.5 342.3 157.7 342.2 157.8 342.1C158 342.1 158.1 342.1 158.3 342.1C158.5 342.1 158.6 342.2 158.7 342.3C158.8 342.4 158.9 342.6 158.9 342.7L159.8 346.5C159.8 346.7 159.9 346.8 160.1 347C160.2 347.1 160.4 347.2 160.6 347.2C163.2 347.6 165.9 347.6 168.6 347.2C168.8 347.2 169 347.1 169.1 347C169.2 346.9 169.3 346.7 169.4 346.5L170.3 342.7C170.3 342.5 170.4 342.4 170.5 342.3C170.6 342.2 170.8 342.1 170.9 342.1C171.1 342.1 171.2 342.1 171.4 342.1C171.6 342.1 171.7 342.2 171.8 342.4L174.5 345.2C174.6 345.3 174.8 345.4 175 345.5C175.2 345.5 175.4 345.5 175.5 345.5C178 344.5 180.3 343.2 182.4 341.5C182.5 341.4 182.7 341.2 182.7 341C182.8 340.8 182.8 340.6 182.7 340.4L181.6 336.7C181.6 336.5 181.6 336.4 181.6 336.2C181.6 336 181.7 335.9 181.8 335.8C181.9 335.7 182.1 335.6 182.2 335.6C182.4 335.6 182.5 335.6 182.7 335.6L186.3 336.6C186.5 336.7 186.7 336.6 186.9 336.6C187.1 336.5 187.3 336.4 187.4 336.2L191.3 329.5C191.4 329.3 191.4 329.1 191.4 328.9C191.4 328.7 191.3 328.5 191.1 328.4L188.4 325.8C188.3 325.7 188.2 325.5 188.1 325.4C188.1 325.2 188.1 325.1 188.1 324.9C188.1 324.7 188.2 324.6 188.3 324.5C188.4 324.4 188.6 324.3 188.7 324.3L192.5 323.4C192.7 323.4 192.8 323.3 193 323.1C193.1 323 193.2 322.8 193.2 322.6C193.5 321.2 193.6 319.9 193.6 318.5ZM182.5 321.4C182.3 322.7 182 323.9 181.5 325.1C180.8 326.9 179.8 328.6 178.6 330.1C177.8 331.1 176.9 332 175.9 332.8C172.6 335.5 168.5 336.9 164.3 336.9C162 336.9 159.8 336.5 157.7 335.7C155.9 335 154.2 334 152.7 332.8C151.7 332 150.8 331.1 150 330.1C148.8 328.6 147.8 326.9 147.1 325.1C146.6 323.9 146.3 322.7 146.1 321.4C145.8 319.5 145.8 317.5 146.1 315.6C146.3 314.3 146.6 313.1 147.1 311.9C147.8 310.1 148.8 308.4 150 306.9C150.8 305.9 151.7 305 152.7 304.2C154.2 303 155.9 302 157.7 301.3C159.8 300.5 162 300.1 164.3 300.1C168.5 300.1 172.6 301.6 175.9 304.2C176.9 305 177.8 305.9 178.6 306.9C179.8 308.4 180.8 310.1 181.5 311.9C182 313.1 182.3 314.3 182.5 315.6C182.8 317.6 182.8 319.5 182.5 321.4Z" fill="url(#paint5_linear)"/>
<path d="M193.3 147.1H508.5C514.6 147.1 520.4 149.5 524.7 153.8C529 158.1 531.4 163.9 531.4 170V379.4H170.3V170.1C170.3 164 172.7 158.2 177 153.9C181.3 149.5 187.2 147.1 193.3 147.1Z" fill="#231F20"/>
<path d="M521.1 168.4C521.1 162.9 516.6 158.4 511.1 158.4H190.7C185.2 158.4 180.7 162.9 180.7 168.4V349.3C180.7 354.8 185.2 359.3 190.7 359.3H511.1C516.6 359.3 521.1 354.8 521.1 349.3V168.4Z" fill="url(#paint6_linear)"/>
<path opacity="0.79" d="M531.5 370.7H170.3V379.4H531.5V370.7Z" fill="white"/>
<path d="M161.3 395.2H540.4C544.6 395.2 548.6 393.5 551.5 390.6C554.5 387.6 556.1 383.6 556.1 379.5H145.6C145.6 383.7 147.3 387.7 150.2 390.6C153.1 393.6 157.1 395.2 161.3 395.2Z" fill="#EBEBEC"/>
<path d="M374.7 386.2H326.8C325 386.2 323.3 385.5 322 384.2C320.7 382.9 320 381.2 320 379.4H381.4C381.4 380.3 381.2 381.2 380.9 382C380.6 382.8 380.1 383.6 379.4 384.2C378.8 384.8 378 385.3 377.2 385.7C376.4 386 375.6 386.2 374.7 386.2Z" fill="#666666"/>
<path opacity="0.8" d="M220.1 258.3L265.7 278.1V290L219.9 309.9L220.1 295.9L250.4 284.1L220.1 272.2V258.3Z" fill="#F6F6F6"/>
<path opacity="0.8" d="M289.5 329.4V316.4H337.2V329.4H289.5Z" fill="#F6F6F6"/>
<path opacity="0.9" d="M114.2 300.3C111.7 269.9 166.6 206.3 166.6 206.3C166.6 206.3 105.3 227 102.5 297.5L114.2 300.3Z" fill="url(#paint7_linear)"/>
<path opacity="0.9" d="M97.8001 304.9C83.6001 226.3 114.2 165.5 114.2 165.5C114.2 165.5 125.4 213.2 104.1 295.1L97.8001 304.9Z" fill="url(#paint8_linear)"/>
<path opacity="0.9" d="M72.4 306.5C74.9 276.1 20 212.5 20 212.5C20 212.5 81.3 233.2 84.1 303.7L72.4 306.5Z" fill="url(#paint9_linear)"/>
<path opacity="0.9" d="M84.6002 307.9C57.6002 252.7 73.7002 151.8 73.7002 151.8C73.7002 151.8 106 248.8 98.1002 306.2L84.6002 307.9Z" fill="url(#paint10_linear)"/>
<path d="M133.2 397.6H47.1001L62.1001 302.2L90.2001 301.9H119.4L133.1 395.8L133.2 397.6Z" fill="#F1F2F2"/>
<path d="M118.5 294.6H61.3998C59.6998 294.6 58.2998 296 58.2998 297.7V299.1C58.2998 300.8 59.6998 302.2 61.3998 302.2H118.5C120.2 302.2 121.6 300.8 121.6 299.1V297.7C121.6 296 120.2 294.6 118.5 294.6Z" fill="#F1F2F2"/>
<path opacity="0.5" d="M133 395.8L47.1001 397.7C119.3 394.3 112.8 302 112.8 302H119.3L133 395.8Z" fill="url(#paint11_linear)"/>
<g opacity="0.3">
<path opacity="0.3" d="M408.2 158.4C408.3 158.4 408.3 158.5 408.2 158.5L194 337.2C193.9 337.3 193.8 337.4 193.7 337.5L180.9 348.2C180.8 348.3 180.7 348.2 180.7 348.1V161.9C180.7 161.8 180.8 161.6 180.8 161.5L182.8 159.4C182.9 159.3 183 159.2 183.1 159.2L186.3 158.4C186.4 158.4 186.6 158.4 186.7 158.4H408.2Z" fill="white"/>
</g>
<path opacity="0.3" d="M511.6 158.4L317.9 359.2H229.3L420.1 158.4H511.6Z" fill="white"/>
<path d="M195.5 156.8C195.5 156.8 180.3 155 179.1 167.9" stroke="#231F20" stroke-width="3" stroke-miterlimit="10"/>
<g clip-path="url(#clip0)">
<path fill-rule="evenodd" clip-rule="evenodd" d="M483.281 178.315C504.692 178.315 524.101 186.519 538.709 199.925C531.605 199.725 524.401 204.027 524.101 213.732C523.501 233.442 547.613 237.644 534.607 277.164L523.901 309.88L494.587 223.537C494.086 222.236 494.687 221.436 496.287 221.436H504.592C504.992 221.436 505.392 221.036 505.392 220.636V215.733C505.392 215.333 504.992 214.933 504.592 214.933C488.884 215.633 473.376 215.633 457.868 214.933C457.468 214.933 457.068 215.333 457.068 215.733V220.636C457.068 221.036 457.468 221.436 457.868 221.436H466.173C468.073 221.436 468.574 222.036 468.974 223.237L480.98 256.153L462.871 310.88L433.156 223.137C432.756 222.036 433.256 221.436 434.257 221.436H443.761C444.162 221.436 444.562 221.036 444.562 220.636V215.733C444.562 215.333 444.162 214.933 443.761 214.933C433.856 215.433 423.851 215.533 414.547 215.633C429.154 193.222 454.467 178.315 483.281 178.315ZM555.317 221.236C561.62 232.842 565.222 246.148 565.222 260.255C565.222 291.271 548.013 318.284 522.601 332.191L548.113 259.755C552.115 248.65 555.717 233.442 555.317 221.236ZM510.695 337.594C502.09 340.695 492.886 342.296 483.281 342.296C474.977 342.296 466.973 341.096 459.469 338.794L484.682 266.458L510.695 337.594ZM448.264 334.392C420.55 321.286 401.44 292.972 401.44 260.255C401.44 248.149 404.042 236.644 408.844 226.238L448.264 334.392ZM483.281 170.611C532.806 170.611 572.926 210.731 572.926 260.255C572.926 309.78 532.806 349.9 483.281 349.9C433.756 349.9 393.636 309.78 393.636 260.255C393.636 210.831 433.756 170.611 483.281 170.611ZM483.281 165.008C535.907 165.008 578.528 207.729 578.528 260.355C578.528 312.981 535.907 355.703 483.281 355.703C430.655 355.703 388.034 312.981 388.034 260.355C388.034 207.729 430.655 165.008 483.281 165.008Z" fill="white"/>
</g>
</g>
<defs>
<filter id="filter0_d" x="-12" y="-8" width="624" height="474" filterUnits="userSpaceOnUse" color-interpolation-filters="sRGB">
<feFlood flood-opacity="0" result="BackgroundImageFix"/>
<feColorMatrix in="SourceAlpha" type="matrix" values="0 0 0 0 0 0 0 0 0 0 0 0 0 0 0 0 0 0 127 0" result="hardAlpha"/>
<feOffset dy="4"/>
<feGaussianBlur stdDeviation="6"/>
<feColorMatrix type="matrix" values="0 0 0 0 0 0 0 0 0 0 0 0 0 0 0 0 0 0 0.3 0"/>
<feBlend mode="normal" in2="BackgroundImageFix" result="effect1_dropShadow"/>
<feBlend mode="normal" in="SourceGraphic" in2="effect1_dropShadow" result="shape"/>
</filter>
<linearGradient id="paint0_linear" x1="235.379" y1="126.789" x2="340.966" y2="126.789" gradientUnits="userSpaceOnUse">
<stop stop-color="#71439A"/>
<stop offset="0.8668" stop-color="#A76CAD"/>
</linearGradient>
<linearGradient id="paint1_linear" x1="201.787" y1="132.206" x2="228.376" y2="132.206" gradientUnits="userSpaceOnUse">
<stop stop-color="#71439A"/>
<stop offset="0.8668" stop-color="#A76CAD"/>
</linearGradient>
<linearGradient id="paint2_linear" x1="486.606" y1="391.71" x2="553.961" y2="391.71" gradientUnits="userSpaceOnUse">
<stop stop-color="#71439A"/>
<stop offset="0.8668" stop-color="#A76CAD"/>
</linearGradient>
<linearGradient id="paint3_linear" x1="454.874" y1="411.514" x2="484.426" y2="411.514" gradientUnits="userSpaceOnUse">
<stop stop-color="#71439A"/>
<stop offset="0.8668" stop-color="#A76CAD"/>
</linearGradient>
<linearGradient id="paint4_linear" x1="481.901" y1="15.903" x2="478.088" y2="213.4" gradientUnits="userSpaceOnUse">
<stop stop-color="#75DAFF"/>
<stop offset="1" stop-color="#00BAFF"/>
</linearGradient>
<linearGradient id="paint5_linear" x1="161.286" y1="347.613" x2="167.543" y2="287.562" gradientUnits="userSpaceOnUse">
<stop stop-color="#75DAFF"/>
<stop offset="1" stop-color="#00BAFF"/>
</linearGradient>
<linearGradient id="paint6_linear" x1="344.738" y1="358.893" x2="357.451" y2="152.18" gradientUnits="userSpaceOnUse">
<stop stop-color="#75DAFF"/>
<stop offset="1" stop-color="#00BAFF"/>
</linearGradient>
<linearGradient id="paint7_linear" x1="126.902" y1="299.332" x2="141.477" y2="203.955" gradientUnits="userSpaceOnUse">
<stop stop-color="#75DAFF"/>
<stop offset="1" stop-color="#00BAFF"/>
</linearGradient>
<linearGradient id="paint8_linear" x1="74.4418" y1="285.623" x2="139.631" y2="181.923" gradientUnits="userSpaceOnUse">
<stop stop-color="#75DAFF"/>
<stop offset="1" stop-color="#00BAFF"/>
</linearGradient>
<linearGradient id="paint9_linear" x1="44.7819" y1="305.631" x2="59.3564" y2="210.254" gradientUnits="userSpaceOnUse">
<stop stop-color="#75DAFF"/>
<stop offset="1" stop-color="#00BAFF"/>
</linearGradient>
<linearGradient id="paint10_linear" x1="52.4633" y1="291.27" x2="119.939" y2="165.347" gradientUnits="userSpaceOnUse">
<stop stop-color="#75DAFF"/>
<stop offset="1" stop-color="#00BAFF"/>
</linearGradient>
<linearGradient id="paint11_linear" x1="89.8704" y1="397.817" x2="101.259" y2="299.747" gradientUnits="userSpaceOnUse">
<stop stop-color="#75DAFF"/>
<stop offset="1" stop-color="#00BAFF"/>
</linearGradient>
<clipPath id="clip0">
<rect width="201.1" height="222.11" fill="white" transform="translate(320 149)"/>
</clipPath>
</defs>
</svg>
