<svg width="1800" height="1350" viewBox="0 0 1800 1350" fill="none" xmlns="http://www.w3.org/2000/svg">
<g filter="url(#filter0_d)">
<path d="M1020 349.2C1018.5 342 1016.7 335.1 1014.3 328.2C1014 327.3 1013.4 326.4 1012.5 325.8C1011.6 325.2 1010.7 324.9 1009.8 324.9L988.8 324C987.9 324 987 323.7 986.1 323.1C985.2 322.5 984.6 321.9 984.3 321C984 320.1 983.7 319.2 983.7 318.3C983.7 317.4 984 316.5 984.6 315.9L996.6 298.5C997.2 297.6 997.5 296.7 997.5 295.5C997.5 294.6 997.2 293.4 996.6 292.5C988.5 280.5 978.9 269.4 968.1 260.1C967.2 259.5 966.3 258.9 965.4 258.9C964.5 258.9 963.3 258.9 962.4 259.5L943.8 269.1C942.9 269.4 942 269.7 941.1 269.7C940.2 269.7 939.3 269.4 938.7 268.8C937.8 268.2 937.2 267.6 936.9 266.7C936.6 265.8 936.3 264.9 936.3 264L938.1 243C938.1 242.1 938.1 240.9 937.5 240C936.9 239.1 936.3 238.5 935.4 237.9C922.5 231.3 908.7 226.8 894.6 224.1C893.7 223.8 892.5 224.1 891.6 224.4C890.7 224.7 889.8 225.6 889.2 226.2L877.8 243.9C877.2 244.8 876.6 245.4 875.7 245.7C874.8 246 873.9 246.3 873 246.3C872.1 246.3 871.2 246 870.6 245.4C869.7 244.8 869.1 244.2 868.8 243.3L859.8 224.1C859.5 223.2 858.6 222.3 857.7 222C856.8 221.4 855.9 221.1 854.7 221.4C840.3 222.3 825.9 225 812.4 229.8C811.5 230.1 810.6 230.7 810 231.6C809.4 232.5 809.1 233.4 809.1 234.3L808.2 255.3C808.2 256.2 807.9 257.1 807.3 258C806.7 258.9 806.1 259.5 805.2 259.8C804.3 260.1 803.4 260.4 802.5 260.4C801.6 260.4 800.7 260.1 800.1 259.5L782.7 247.5C781.8 246.9 780.9 246.6 780 246.6C779.1 246.6 777.9 246.9 777 247.5C765 255.6 753.9 265.2 744.6 276C744 276.9 743.4 277.8 743.4 278.7C743.4 279.6 743.4 280.8 744 281.7L753.6 300.3C753.9 301.2 754.2 302.1 754.2 303C754.2 303.9 753.9 304.8 753.3 305.4C752.7 306.3 752.1 306.9 751.2 307.2C750.3 307.5 749.4 307.8 748.5 307.8L727.5 306C726.6 306 725.4 306 724.5 306.6C723.6 307.2 723 307.8 722.4 308.7C715.8 321.6 711.3 335.4 708.6 349.5C708.3 350.4 708.6 351.6 708.9 352.5C709.2 353.4 710.1 354.3 710.7 354.9L728.4 366.3C729.3 366.9 729.9 367.5 730.2 368.4C730.5 369.3 730.8 370.2 730.8 371.1C730.8 372 730.5 372.9 729.9 373.5C729.3 374.4 728.7 375 727.8 375.3L708.6 384.3C707.7 384.6 706.8 385.5 706.5 386.4C705.9 387.3 705.6 388.2 705.9 389.4C706.8 403.8 709.5 418.2 714.3 431.7C714.6 432.6 715.2 433.5 716.1 434.1C717 434.7 717.9 435 718.8 435L739.8 435.9C740.7 435.9 741.6 436.2 742.5 436.8C743.4 437.4 744 438 744.3 438.9C744.6 439.8 744.9 440.7 744.9 441.6C744.9 442.5 744.6 443.4 744 444L732 461.4C731.4 462.3 731.1 463.2 731.1 464.4C731.1 465.3 731.4 466.5 732 467.4C740.1 479.4 749.7 490.5 760.5 499.8C761.4 500.4 762.3 501 763.2 501C764.1 501 765.3 501 766.2 500.4L785.1 490.8C786 490.5 786.9 490.2 787.8 490.2C788.7 490.2 789.6 490.5 790.2 491.1C791.1 491.7 791.7 492.3 792 493.2C792.3 494.1 792.6 495 792.6 495.9L790.8 516.9C790.8 517.8 790.8 519 791.4 519.9C792 520.8 792.6 521.4 793.5 522C806.4 528.6 820.2 533.1 834.6 535.8C835.5 536.1 836.7 535.8 837.6 535.5C838.5 535.2 839.4 534.3 840 533.7L851.4 516C852 515.1 852.6 514.5 853.5 514.2C854.4 513.9 855.3 513.6 856.2 513.6C857.1 513.6 858 513.9 858.6 514.5C859.5 515.1 860.1 515.7 860.4 516.6L869.4 535.8C869.7 536.7 870.6 537.6 871.5 537.9C872.4 538.5 873.3 538.8 874.5 538.5C888.9 537.6 903.3 534.9 916.8 530.1C917.7 529.8 918.6 529.2 919.2 528.3C919.8 527.4 920.1 526.5 920.1 525.6L921 504.6C921 503.7 921.3 502.8 921.9 501.9C922.5 501 923.1 500.4 924 500.1C924.9 499.8 925.8 499.5 926.7 499.5C927.6 499.5 928.5 499.8 929.1 500.4L946.5 512.4C947.4 513 948.3 513.3 949.2 513.3C950.1 513.3 951.3 513 952.2 512.4C964.2 504.3 975.3 494.7 984.6 483.9C985.2 483 985.8 482.1 985.8 481.2C985.8 480.3 985.8 479.1 985.2 478.2L975.6 459.6C975.3 458.7 975 457.8 975 456.9C975 456 975.3 455.1 975.9 454.5C976.5 453.6 977.1 453 978 452.7C978.9 452.4 979.8 452.1 980.7 452.1L1001.1 453.9C1002.3 453.9 1003.5 453.6 1004.4 453C1005.3 452.4 1006.2 451.5 1006.5 450.3L1020 410.4C1020.3 409.2 1020.3 408 1020 407.1C1019.7 405.9 1018.8 405 1017.9 404.4L1000.5 393.3C999.6 392.7 999 392.1 998.7 391.2C998.4 390.3 998.1 389.4 998.1 388.5C998.1 387.6 998.4 386.7 999 386.1C999.6 385.2 1000.2 384.6 1001.1 384.3L1020 375.3C1020.9 375 1021.8 374.1 1022.1 373.2C1022.7 372.3 1023 371.4 1022.7 370.2C1022.4 363.6 1021.5 356.4 1020 349.2ZM964.5 376.5C964.8 383.4 964.2 390.3 963.3 397.2C961.5 407.7 958.2 417.6 953.1 427.2C949.8 433.2 945.9 439.2 941.7 444.3C927 462 906.9 474 884.4 478.5C872.4 480.9 860.1 481.2 848.1 479.1C837.6 477.3 827.7 474 818.1 468.9C812.1 465.6 806.1 461.7 801 457.5C792.9 450.9 785.7 442.8 780.3 433.8C776.7 428.1 773.4 421.8 771.3 415.2C767.7 405.3 765.6 394.8 765 384.3C764.7 377.4 765 370.5 766.2 363.6C768 353.1 771.3 343.2 776.4 333.9C779.7 327.9 783.6 321.9 787.8 316.8C794.4 308.7 802.5 301.5 811.5 296.1C821.7 289.5 833.4 285 845.1 282.6C867.6 278.1 891 281.4 911.4 292.2C917.4 295.5 923.4 299.4 928.5 303.6C936.6 310.2 943.8 318.3 949.2 327.3C952.8 333 955.8 339.3 958.2 345.9C962.1 355.5 963.9 366 964.5 376.5Z" fill="url(#paint0_linear)"/>
<path d="M684.301 388.8C684.001 387 683.401 385.2 682.801 383.4C682.801 383.1 682.501 382.8 682.501 382.8C682.201 382.5 681.901 382.5 681.901 382.5L676.501 382.2C676.201 382.2 675.901 382.2 675.901 381.9C675.601 381.9 675.601 381.6 675.601 381.3C675.601 381 675.601 381 675.601 380.7C675.601 380.4 675.601 380.4 675.901 380.1L678.901 375.6C678.901 375.3 679.201 375 679.201 375C679.201 374.7 679.201 374.4 678.901 374.4C676.801 371.4 674.401 368.7 671.701 366.3C671.401 366 671.401 366 671.101 366C670.801 366 670.501 366 670.501 366L665.701 368.4C665.401 368.4 665.401 368.7 665.101 368.4C664.801 368.4 664.501 368.4 664.501 368.1C664.201 368.1 664.201 367.8 664.201 367.5C664.201 367.2 664.201 367.2 664.201 366.9L664.501 361.5C664.501 361.2 664.501 360.9 664.201 360.9C664.201 360.6 663.901 360.6 663.601 360.3C660.301 358.8 657.001 357.6 653.401 356.7C653.101 356.7 652.801 356.7 652.801 356.7C652.501 356.7 652.501 357 652.201 357.3L649.201 361.8C649.201 362.1 648.901 362.1 648.601 362.4C648.301 362.4 648.301 362.4 648.001 362.4C647.701 362.4 647.401 362.4 647.401 362.1C647.101 362.1 647.101 361.8 647.101 361.5L644.701 356.7C644.701 356.4 644.401 356.4 644.101 356.1C643.801 356.1 643.501 355.8 643.501 355.8C639.901 356.1 636.301 356.7 632.701 357.9C632.401 357.9 632.101 358.2 632.101 358.2C631.801 358.5 631.801 358.8 631.801 358.8L631.501 364.2C631.501 364.5 631.501 364.8 631.201 364.8C631.201 365.1 630.901 365.1 630.601 365.1C630.301 365.1 630.301 365.1 630.001 365.1C629.701 365.1 629.701 365.1 629.401 364.8L624.901 361.8C624.601 361.8 624.301 361.5 624.301 361.5C624.001 361.5 623.701 361.5 623.701 361.8C620.701 363.9 618.001 366.3 615.601 369C615.301 369.3 615.301 369.3 615.301 369.6C615.301 369.9 615.301 370.2 615.301 370.2L617.701 375C617.701 375.3 618.001 375.3 617.701 375.6C617.701 375.9 617.701 376.2 617.401 376.2C617.401 376.5 617.101 376.5 616.801 376.5C616.501 376.5 616.501 376.5 616.201 376.5L610.801 376.2C610.501 376.2 610.201 376.2 610.201 376.5C609.901 376.5 609.901 376.8 609.601 377.1C608.101 380.4 606.901 383.7 606.001 387.3C606.001 387.6 606.001 387.9 606.001 388.2C606.001 388.5 606.301 388.5 606.601 388.8L611.101 391.8C611.401 391.8 611.401 392.1 611.701 392.4C611.701 392.7 612.001 392.7 611.701 393C611.701 393.3 611.701 393.6 611.401 393.6C611.401 393.9 611.101 393.9 610.801 393.9L606.001 396.3C605.701 396.3 605.701 396.6 605.401 396.9C605.401 397.2 605.101 397.5 605.101 397.5C605.401 401.1 606.001 404.7 607.201 408.3C607.201 408.6 607.501 408.9 607.501 408.9C607.801 409.2 608.101 409.2 608.101 409.2L613.501 409.5C613.801 409.5 614.101 409.5 614.101 409.8C614.401 409.8 614.401 410.1 614.401 410.4C614.401 410.7 614.401 410.7 614.401 411C614.401 411.3 614.401 411.3 614.101 411.6L611.101 416.1C611.101 416.4 610.801 416.7 610.801 416.7C610.801 417 610.801 417.3 611.101 417.3C613.201 420.3 615.601 423 618.301 425.4C618.601 425.7 618.601 425.7 618.901 425.7C619.201 425.7 619.501 425.7 619.501 425.7L624.301 423.3C624.601 423.3 624.601 423 624.901 423.3C625.201 423.3 625.501 423.3 625.501 423.6C625.801 423.6 625.801 423.9 625.801 424.2C625.801 424.5 625.801 424.5 625.801 424.8L625.501 430.2C625.501 430.5 625.501 430.8 625.801 430.8C625.801 431.1 626.101 431.1 626.401 431.4C629.701 432.9 633.001 434.1 636.601 435C636.901 435 637.201 435 637.201 435C637.501 435 637.501 434.7 637.801 434.4L640.801 429.9C640.801 429.6 641.101 429.6 641.401 429.3C641.701 429.3 641.701 429.3 642.001 429.3C642.301 429.3 642.301 429.3 642.601 429.6C642.901 429.6 642.901 429.9 642.901 430.2L645.301 435C645.301 435.3 645.601 435.3 645.901 435.6C646.201 435.6 646.501 435.9 646.501 435.9C650.101 435.6 653.701 435 657.301 433.8C657.601 433.8 657.901 433.5 657.901 433.5C658.201 433.2 658.201 432.9 658.201 432.9L658.501 427.5C658.501 427.2 658.501 426.9 658.801 426.9C658.801 426.6 659.101 426.6 659.401 426.6C659.701 426.6 659.701 426.6 660.001 426.6C660.301 426.6 660.301 426.6 660.601 426.9L665.101 429.9C665.401 429.9 665.701 430.2 665.701 430.2C666.001 430.2 666.301 430.2 666.301 429.9C669.301 427.8 672.001 425.4 674.401 422.7C674.701 422.4 674.701 422.4 674.701 422.1C674.701 421.8 674.701 421.5 674.701 421.5L672.301 416.7C672.301 416.4 672.001 416.4 672.301 416.1C672.301 415.8 672.301 415.5 672.601 415.5C672.601 415.2 672.901 415.2 673.201 415.2C673.501 415.2 673.501 415.2 673.801 415.2L678.901 415.5C679.201 415.5 679.501 415.5 679.801 415.2C680.101 414.9 680.101 414.9 680.401 414.6L683.701 404.7C683.701 404.4 683.701 404.1 683.701 403.8C683.701 403.5 683.401 403.2 683.101 403.2L678.601 400.5C678.301 400.5 678.301 400.2 678.001 399.9C678.001 399.6 678.001 399.6 678.001 399.3C678.001 399 678.001 398.7 678.301 398.7C678.301 398.4 678.601 398.4 678.901 398.4L683.701 396C684.001 396 684.001 395.7 684.301 395.4C684.301 395.1 684.601 394.8 684.601 394.8C684.901 392.4 684.901 390.6 684.301 388.8ZM670.501 395.7C670.501 397.5 670.501 399.3 670.201 400.8C669.901 403.5 669.001 405.9 667.501 408.3C666.601 409.8 665.701 411.3 664.501 412.5C660.901 417 655.801 420 650.101 421.2C647.101 421.8 644.101 421.8 641.101 421.2C638.401 420.9 636.001 420 633.601 418.5C632.101 417.6 630.601 416.7 629.401 415.5C627.301 413.7 625.501 411.9 624.301 409.5C623.401 408 622.501 406.5 621.901 404.7C621.001 402.3 620.401 399.6 620.401 396.9C620.401 395.1 620.401 393.3 620.701 391.8C621.001 389.1 621.901 386.7 623.401 384.3C624.301 382.8 625.201 381.3 626.401 380.1C628.201 378 630.001 376.2 632.401 375C635.101 373.5 637.801 372.3 640.801 371.7C646.501 370.5 652.501 371.4 657.601 374.1C659.101 375 660.601 375.9 661.801 377.1C663.901 378.9 665.701 380.7 666.901 383.1C667.801 384.6 668.701 386.1 669.301 387.9C669.901 390.3 670.201 393 670.501 395.7Z" fill="url(#paint1_linear)"/>
<path d="M1662 1175.1C1662 1170.6 1661.7 1165.8 1661.1 1161.3C1661.1 1160.7 1660.8 1160.1 1660.2 1159.5C1659.9 1158.9 1659.3 1158.6 1658.7 1158.6L1645.8 1155.3C1645.2 1155.3 1644.6 1155 1644.3 1154.4C1644 1154.1 1643.7 1153.5 1643.4 1152.9C1643.1 1152.3 1643.4 1151.7 1643.4 1151.1C1643.4 1150.5 1644 1149.9 1644.3 1149.6L1653.9 1140.3C1654.5 1139.7 1654.8 1139.4 1654.8 1138.5C1654.8 1137.9 1654.8 1137.3 1654.5 1136.7C1650.9 1128.3 1646.4 1120.2 1640.7 1113C1640.4 1112.4 1639.8 1112.1 1639.2 1111.8C1638.6 1111.5 1638 1111.5 1637.4 1111.8L1624.5 1115.4C1623.9 1115.7 1623.3 1115.7 1622.7 1115.4C1622.1 1115.4 1621.5 1115.1 1621.2 1114.5C1620.9 1114.2 1620.6 1113.6 1620.3 1113C1620.3 1112.4 1620.3 1111.8 1620.3 1111.2L1623.9 1098.3C1624.2 1097.7 1624.2 1097.1 1623.9 1096.5C1623.6 1095.9 1623.3 1095.3 1622.7 1095C1615.5 1089.3 1607.4 1084.8 1599 1081.2C1598.4 1080.9 1597.8 1080.9 1597.2 1080.9C1596.6 1080.9 1596 1081.5 1595.4 1081.8L1586.1 1091.4C1585.8 1091.7 1585.2 1092 1584.6 1092.3C1584 1092.6 1583.4 1092.6 1582.8 1092.3C1582.2 1092 1581.6 1092 1581.3 1091.4C1581 1091.1 1580.7 1090.5 1580.4 1089.9L1577.1 1077C1576.8 1076.4 1576.5 1075.8 1576.2 1075.5C1575.6 1075.2 1575 1074.9 1574.4 1074.6C1565.4 1073.4 1556.1 1073.4 1546.8 1074.6C1546.2 1074.6 1545.6 1074.9 1545 1075.5C1544.4 1075.8 1544.1 1076.4 1544.1 1077L1540.8 1089.9C1540.8 1090.5 1540.5 1091.1 1539.9 1091.4C1539.6 1091.7 1539 1092 1538.4 1092.3C1537.8 1092.6 1537.2 1092.3 1536.6 1092.3C1536 1092 1535.4 1091.7 1535.1 1091.4L1525.8 1081.8C1525.2 1081.2 1524.9 1080.9 1524 1080.9C1523.4 1080.9 1522.8 1080.9 1522.2 1081.2C1513.8 1084.8 1505.7 1089.3 1498.2 1095C1497.6 1095.3 1497.3 1095.9 1497 1096.5C1496.7 1097.1 1496.7 1097.7 1497 1098.3L1500.6 1111.2C1500.9 1111.8 1500.9 1112.4 1500.6 1113C1500.6 1113.6 1500.3 1114.2 1499.7 1114.5C1499.4 1114.8 1498.8 1115.1 1498.2 1115.4C1497.6 1115.4 1497 1115.4 1496.4 1115.4L1483.5 1111.8C1482.9 1111.5 1482.3 1111.5 1481.7 1111.8C1481.1 1112.1 1480.5 1112.4 1480.2 1113C1474.5 1120.2 1470 1128.3 1466.4 1136.7C1466.1 1137.3 1466.1 1137.9 1466.1 1138.5C1466.1 1139.1 1466.7 1139.7 1467 1140.3L1476.6 1149.6C1476.9 1149.9 1477.2 1150.5 1477.5 1151.1C1477.8 1151.7 1477.8 1152.3 1477.5 1152.9C1477.5 1153.5 1477.2 1154.1 1476.6 1154.4C1476.3 1154.7 1475.7 1155 1475.1 1155.3L1462.2 1158.6C1461.6 1158.9 1461 1159.2 1460.7 1159.5C1460.4 1160.1 1460.1 1160.7 1459.8 1161.3C1458.6 1170.3 1458.6 1179.6 1459.8 1188.9C1459.8 1189.5 1460.1 1190.1 1460.7 1190.7C1461 1191.3 1461.6 1191.6 1462.2 1191.6L1475.1 1194.9C1475.7 1194.9 1476.3 1195.2 1476.6 1195.8C1476.9 1196.1 1477.2 1196.7 1477.5 1197.3C1477.5 1197.9 1477.5 1198.5 1477.5 1199.1C1477.2 1199.7 1476.9 1200.3 1476.6 1200.6L1467 1209.9C1466.4 1210.5 1466.1 1210.8 1466.1 1211.7C1466.1 1212.3 1466.1 1212.9 1466.4 1213.5C1470 1221.9 1474.5 1230 1480.2 1237.2C1480.5 1237.8 1481.1 1238.1 1481.7 1238.4C1482.3 1238.7 1482.9 1238.7 1483.5 1238.4L1496.4 1234.8C1497 1234.5 1497.6 1234.5 1498.2 1234.8C1498.8 1234.8 1499.4 1235.1 1499.7 1235.7C1500 1236 1500.3 1236.6 1500.6 1237.2C1500.6 1237.8 1500.6 1238.4 1500.6 1239L1497 1251.9C1496.7 1252.5 1496.7 1253.1 1497 1253.7C1497.3 1254.3 1497.6 1254.9 1498.2 1255.2C1505.4 1260.9 1513.5 1265.4 1522.2 1269C1522.8 1269.3 1523.4 1269.3 1524 1269.3C1524.6 1269.3 1525.2 1268.7 1525.8 1268.4L1535.1 1258.8C1535.4 1258.5 1536 1258.2 1536.6 1257.9C1537.2 1257.6 1537.8 1257.6 1538.4 1257.9C1539 1258.2 1539.6 1258.2 1539.9 1258.8C1540.2 1259.1 1540.5 1259.7 1540.8 1260.3L1544.1 1273.2C1544.4 1273.8 1544.7 1274.4 1545 1274.7C1545.6 1275 1546.2 1275.3 1546.8 1275.6C1555.8 1276.8 1565.1 1276.8 1574.4 1275.6C1575 1275.6 1575.6 1275.3 1576.2 1274.7C1576.8 1274.4 1577.1 1273.8 1577.1 1273.2L1580.4 1260.3C1580.4 1259.7 1580.7 1259.1 1581.3 1258.8C1581.9 1258.5 1582.2 1258.2 1582.8 1257.9C1583.4 1257.6 1584 1257.9 1584.6 1257.9C1585.2 1258.2 1585.8 1258.5 1586.1 1258.8L1595.4 1268.4C1595.7 1269 1596.3 1269.3 1597.2 1269.3C1597.8 1269.3 1598.4 1269.3 1599 1269C1607.4 1265.4 1615.5 1260.9 1622.7 1255.2C1623.3 1254.9 1623.6 1254.3 1623.9 1253.7C1624.2 1253.1 1624.2 1252.5 1623.9 1251.9L1620.3 1239C1620 1238.4 1620 1237.8 1620.3 1237.2C1620.3 1236.6 1620.6 1236 1621.2 1235.7C1621.5 1235.4 1622.1 1235.1 1622.7 1234.8C1623.3 1234.8 1623.9 1234.8 1624.5 1234.8L1637.1 1238.4C1637.7 1238.7 1638.6 1238.7 1639.2 1238.4C1639.8 1238.1 1640.4 1237.5 1640.7 1236.9L1654.2 1213.8C1654.5 1213.2 1654.8 1212.3 1654.5 1211.7C1654.5 1211.1 1654.2 1210.2 1653.6 1209.9L1644.3 1200.9C1644 1200.6 1643.7 1200 1643.4 1199.4C1643.1 1198.8 1643.1 1198.2 1643.4 1197.6C1643.7 1197 1643.7 1196.4 1644.3 1196.1C1644.6 1195.8 1645.2 1195.5 1645.8 1195.2L1658.7 1191.9C1659.3 1191.6 1659.9 1191.3 1660.2 1191C1660.5 1190.4 1660.8 1189.8 1661.1 1189.2C1661.7 1184.4 1662 1179.6 1662 1175.1ZM1623.6 1185.3C1623 1189.5 1621.8 1194 1620.3 1197.9C1617.9 1204.2 1614.6 1210.2 1610.4 1215.3C1607.7 1218.6 1604.4 1221.9 1601.1 1224.6C1589.7 1233.9 1575.6 1238.7 1560.9 1238.7C1553.1 1238.7 1545.3 1237.2 1538.1 1234.5C1531.8 1232.1 1525.8 1228.8 1520.7 1224.6C1517.4 1221.9 1514.1 1218.6 1511.4 1215.3C1507.2 1210.2 1503.9 1204.2 1501.5 1197.9C1500 1193.7 1498.8 1189.5 1498.2 1185.3C1497 1178.7 1497 1171.8 1498.2 1165.2C1498.8 1161 1500 1156.5 1501.5 1152.6C1503.9 1146.3 1507.2 1140.6 1511.4 1135.2C1514.1 1131.9 1517.4 1128.6 1520.7 1125.9C1525.8 1121.7 1531.8 1118.4 1538.1 1116C1545.3 1113.3 1553.1 1111.8 1560.9 1111.8C1575.6 1111.8 1589.7 1116.9 1601.1 1125.9C1604.4 1128.6 1607.7 1131.9 1610.4 1135.2C1614.6 1140.3 1617.9 1146.3 1620.3 1152.6C1621.8 1156.8 1623 1161 1623.6 1165.2C1624.8 1171.8 1624.8 1178.4 1623.6 1185.3Z" fill="url(#paint2_linear)"/>
<path d="M1434 1271.1C1435.8 1269.9 1437.3 1268.7 1438.8 1267.2C1439.1 1266.9 1439.1 1266.9 1439.1 1266.6C1439.1 1266.3 1439.1 1266 1439.1 1265.7L1437 1260.3C1437 1260 1437 1259.7 1437 1259.7C1437 1259.4 1437.3 1259.1 1437.3 1259.1C1437.6 1258.8 1437.6 1258.8 1437.9 1258.8C1438.2 1258.8 1438.5 1258.8 1438.5 1258.8L1444.2 1260C1444.5 1260 1444.8 1260 1445.1 1260C1445.4 1260 1445.7 1259.7 1445.7 1259.4C1447.8 1256.1 1449.6 1252.2 1450.8 1248.6C1450.8 1248.3 1450.8 1248 1450.8 1247.7C1450.8 1247.4 1450.5 1247.1 1450.2 1247.1L1445.7 1243.5C1445.4 1243.2 1445.4 1243.2 1445.4 1242.9C1445.4 1242.6 1445.4 1242.3 1445.4 1242.3C1445.4 1242 1445.7 1241.7 1445.7 1241.7C1446 1241.4 1446 1241.4 1446.3 1241.4L1452 1239.6C1452.3 1239.6 1452.6 1239.3 1452.6 1239C1452.9 1238.7 1452.9 1238.4 1452.9 1238.1C1453.2 1234.2 1452.9 1230 1452 1226.1C1452 1225.8 1451.7 1225.5 1451.7 1225.5C1451.4 1225.2 1451.1 1225.2 1451.1 1225.2L1445.4 1224.3C1445.1 1224.3 1444.8 1224 1444.8 1224C1444.5 1223.7 1444.5 1223.7 1444.5 1223.4C1444.5 1223.1 1444.5 1222.8 1444.5 1222.8C1444.5 1222.5 1444.8 1222.2 1444.8 1222.2L1448.7 1217.7C1449 1217.4 1449 1217.1 1449 1216.8C1449 1216.5 1449 1216.2 1449 1215.9C1447.2 1212.3 1444.8 1209 1442.1 1206C1441.8 1205.7 1441.8 1205.7 1441.5 1205.7C1441.2 1205.7 1440.9 1205.7 1440.6 1205.7L1435.2 1207.8C1434.9 1207.8 1434.6 1207.8 1434.6 1207.8C1434.3 1207.8 1434 1207.5 1434 1207.5C1433.7 1207.2 1433.7 1207.2 1433.7 1206.9C1433.7 1206.6 1433.7 1206.3 1433.7 1206.3L1434.9 1200.6C1434.9 1200.3 1434.9 1200 1434.9 1199.7C1434.9 1199.4 1434.6 1199.1 1434.3 1199.1C1431 1197 1427.1 1195.2 1423.5 1194C1423.2 1194 1422.9 1194 1422.6 1194C1422.3 1194 1422 1194.3 1422 1194.6L1418.4 1199.1C1418.1 1199.4 1418.1 1199.4 1417.8 1199.4C1417.5 1199.4 1417.2 1199.4 1417.2 1199.4C1416.9 1199.4 1416.6 1199.1 1416.6 1199.1C1416.3 1198.8 1416.3 1198.8 1416.3 1198.5L1414.5 1192.8C1414.5 1192.5 1414.2 1192.2 1413.9 1192.2C1413.6 1191.9 1413.3 1191.9 1413 1191.9C1409.1 1191.6 1404.9 1191.9 1401 1192.8C1400.7 1192.8 1400.4 1193.1 1400.4 1193.1C1400.1 1193.4 1400.1 1193.7 1400.1 1193.7L1399.2 1199.4C1399.2 1199.7 1398.9 1200 1398.9 1200C1398.6 1200.3 1398.6 1200.3 1398.3 1200.3C1398 1200.3 1397.7 1200.3 1397.7 1200.3C1397.4 1200.3 1397.1 1200 1397.1 1200L1392.6 1196.1C1392.3 1195.8 1392 1195.8 1391.7 1195.8C1391.4 1195.8 1391.1 1195.8 1390.8 1195.8C1387.2 1197.6 1383.9 1200 1380.9 1202.7C1380.6 1203 1380.6 1203 1380.6 1203.3C1380.6 1203.6 1380.6 1203.9 1380.6 1204.2L1382.7 1209.6C1382.7 1209.9 1382.7 1210.2 1382.7 1210.2C1382.7 1210.5 1382.4 1210.8 1382.4 1210.8C1382.1 1211.1 1382.1 1211.1 1381.8 1211.1C1381.5 1211.1 1381.2 1211.1 1381.2 1211.1L1375.5 1209.9C1375.2 1209.9 1374.9 1209.9 1374.6 1209.9C1374.3 1209.9 1374 1210.2 1374 1210.5C1371.9 1213.8 1370.1 1217.7 1368.9 1221.3C1368.9 1221.6 1368.9 1221.9 1368.9 1222.2C1368.9 1222.5 1369.2 1222.8 1369.5 1222.8L1374 1226.7C1374.3 1227 1374.3 1227 1374.3 1227.3C1374.3 1227.6 1374.3 1227.9 1374.3 1227.9C1374.3 1228.2 1374 1228.5 1374 1228.5C1373.7 1228.8 1373.7 1228.8 1373.4 1228.8L1367.7 1230.6C1367.4 1230.6 1367.1 1230.9 1367.1 1231.2C1366.8 1231.5 1366.8 1231.8 1366.8 1232.1C1366.5 1236 1366.8 1240.2 1367.7 1244.1C1367.7 1244.4 1368 1244.7 1368 1244.7C1368.3 1245 1368.6 1245 1368.6 1245L1374.3 1245.9C1374.6 1245.9 1374.9 1246.2 1374.9 1246.2C1374.9 1246.2 1375.2 1246.5 1375.2 1246.8C1375.2 1247.1 1375.2 1247.4 1375.2 1247.4C1375.2 1247.7 1374.9 1248 1374.9 1248L1371 1252.5C1370.7 1252.8 1370.7 1253.1 1370.7 1253.4C1370.7 1253.7 1370.7 1254 1370.7 1254.3C1372.5 1257.9 1374.9 1261.2 1377.6 1264.2C1377.9 1264.5 1377.9 1264.5 1378.2 1264.5C1378.5 1264.5 1378.8 1264.5 1379.1 1264.5L1384.5 1262.4C1384.8 1262.4 1385.1 1262.4 1385.1 1262.4C1385.4 1262.4 1385.7 1262.7 1385.7 1262.7C1386 1263 1386 1263 1386 1263.3C1386 1263.6 1386 1263.9 1386 1263.9L1384.8 1269.6C1384.8 1269.9 1384.8 1270.2 1384.8 1270.5C1384.8 1270.8 1385.1 1271.1 1385.4 1271.1C1388.7 1273.2 1392.6 1275 1396.2 1276.2C1396.5 1276.2 1396.8 1276.2 1397.1 1276.2C1397.4 1276.2 1397.7 1275.9 1397.7 1275.6L1401.3 1271.1C1401.6 1270.8 1401.6 1270.8 1401.9 1270.8C1402.2 1270.8 1402.5 1270.8 1402.5 1270.8C1402.8 1270.8 1403.1 1271.1 1403.1 1271.1C1403.4 1271.4 1403.4 1271.4 1403.4 1271.7L1405.2 1277.1C1405.2 1277.4 1405.5 1277.7 1405.8 1277.7C1406.1 1278 1406.4 1278 1406.7 1278L1418.4 1277.1C1418.7 1277.1 1419 1276.8 1419.3 1276.8C1419.6 1276.5 1419.6 1276.2 1419.6 1275.9L1420.5 1270.2C1420.5 1269.9 1420.8 1269.6 1420.8 1269.6C1421.1 1269.3 1421.1 1269.3 1421.4 1269.3C1421.7 1269.3 1422 1269.3 1422 1269.3C1422.3 1269.3 1422.6 1269.6 1422.6 1269.6L1427.1 1273.5C1427.4 1273.8 1427.7 1273.8 1428 1273.8C1428.3 1273.8 1428.6 1273.8 1428.9 1273.8C1430.7 1273.5 1432.5 1272.3 1434 1271.1ZM1421.1 1260C1419.3 1260.9 1417.5 1261.5 1415.7 1261.8C1412.7 1262.4 1410 1262.7 1407 1262.4C1405.2 1262.1 1403.1 1261.8 1401.3 1261.5C1395 1259.7 1389.9 1255.8 1386.3 1250.4C1384.5 1247.7 1383 1244.4 1382.1 1241.1C1381.5 1238.1 1381.2 1235.4 1381.5 1232.4C1381.8 1230.6 1382.1 1228.5 1382.7 1226.7C1383.6 1224 1384.8 1221.3 1386.6 1218.9C1387.8 1217.4 1389 1215.9 1390.5 1214.4C1392.6 1212.3 1395 1210.8 1397.7 1209.3C1399.5 1208.4 1401.3 1207.8 1403.1 1207.5C1406.1 1206.9 1408.8 1206.6 1411.8 1206.9C1413.6 1207.2 1415.7 1207.5 1417.5 1208.1C1420.2 1209 1422.9 1210.2 1425.6 1212C1428.3 1213.8 1430.7 1216.5 1432.8 1219.2C1436.4 1224.6 1438.2 1230.9 1437.6 1237.2C1437.3 1239 1437 1241.1 1436.4 1242.9C1435.5 1245.6 1434.3 1248.3 1432.5 1251C1431.3 1252.5 1430.1 1254 1428.9 1255.5C1426.2 1257 1423.5 1258.5 1421.1 1260Z" fill="url(#paint3_linear)"/>
<path d="M1725 369.9C1726.5 357 1727.4 343.8 1727.1 330.6C1727.1 328.8 1726.5 327 1725.3 325.5C1724.1 324 1722.9 322.8 1721.1 322.2L1685.4 308.4C1683.9 307.8 1682.4 306.9 1681.5 305.4C1680.6 304.2 1679.7 302.7 1679.7 300.9C1679.4 299.4 1679.7 297.6 1680.3 296.1C1680.9 294.6 1682.1 293.1 1683.3 292.2L1713.9 269.1C1715.4 267.9 1716.6 266.4 1717.2 264.6C1717.8 262.8 1717.8 261 1717.5 259.2C1710.6 234 1700.4 209.7 1686.9 187.2C1686 185.7 1684.5 184.5 1683 183.6C1681.2 182.7 1679.4 182.7 1677.6 183L1639.8 189C1638.3 189.3 1636.5 189 1635 188.4C1633.5 187.8 1632 186.9 1631.1 185.4C1630.2 184.2 1629.3 182.7 1629.3 180.9C1629 179.4 1629.3 177.6 1629.9 176.1L1644.9 141C1645.5 139.2 1645.8 137.4 1645.5 135.6C1645.2 133.8 1644.3 132 1643.1 130.8C1624.5 112.2 1603.5 96.6003 1580.7 83.7003C1579.2 82.8003 1577.1 82.5003 1575.3 82.5003C1573.5 82.8003 1571.7 83.4003 1570.2 84.6003L1540.5 108.6C1539.3 109.5 1537.8 110.4 1536 110.4C1534.5 110.7 1532.7 110.4 1531.2 109.8C1529.7 109.2 1528.2 108.3 1527.3 106.8C1526.4 105.6 1525.8 103.8 1525.5 102.3L1521 64.5003C1520.7 62.7003 1520.1 60.9003 1518.9 59.7003C1517.7 58.2003 1516.2 57.3003 1514.4 56.7003C1489.2 50.1003 1463.1 46.8003 1436.7 47.1003C1434.9 47.1003 1433.1 47.7003 1431.6 48.9003C1430.1 50.1003 1428.9 51.3003 1428.3 53.1003L1414.5 88.8003C1413.9 90.3003 1413 91.8003 1411.5 92.7003C1410.3 93.6003 1408.8 94.5003 1407 94.5003C1405.2 94.5003 1403.7 94.5003 1402.2 93.9003C1400.7 93.3003 1399.5 92.1003 1398.3 90.9003L1375.2 60.3003C1374 58.8003 1372.5 57.6003 1370.7 57.0003C1368.9 56.4003 1367.1 56.4003 1365.3 56.7003C1340.1 63.6003 1315.8 73.8003 1293.3 87.3003C1291.8 88.2003 1290.6 89.7003 1289.7 91.2003C1288.8 93.0003 1288.8 94.8003 1289.1 96.6003L1295.1 134.4C1295.4 135.9 1295.1 137.7 1294.5 139.2C1293.9 140.7 1293 142.2 1291.5 143.1C1290.3 144 1288.8 144.9 1287 144.9C1285.5 145.2 1283.7 144.9 1282.2 144.3L1247.1 129.3C1245.3 128.7 1243.5 128.4 1241.7 128.7C1239.9 129 1238.1 129.9 1236.9 131.1C1218.3 149.7 1202.4 170.7 1189.8 193.5C1188.9 195 1188.6 197.1 1188.6 198.9C1188.9 200.7 1189.5 202.5 1190.7 204L1214.7 233.7C1215.6 234.9 1216.5 236.4 1216.8 238.2C1217.1 239.7 1216.8 241.5 1216.2 243C1215.6 244.5 1214.7 246 1213.2 246.9C1212 247.8 1210.2 248.4 1208.7 248.7L1170.9 253.2C1169.1 253.5 1167.3 254.1 1165.8 255.3C1164.3 256.5 1163.4 258 1162.8 259.8C1156.2 285 1152.9 311.4 1153.2 337.5C1153.2 339.3 1153.8 341.1 1155 342.6C1156.2 344.1 1157.4 345.3 1159.2 345.9L1194.9 359.7C1196.4 360.3 1197.9 361.2 1198.8 362.7C1199.7 363.9 1200.6 365.4 1200.6 367.2C1200.9 368.7 1200.6 370.5 1200 372C1199.4 373.5 1198.2 375 1197 375.9L1166.4 399C1164.9 400.2 1163.7 401.7 1163.1 403.5C1162.5 405.3 1162.5 407.1 1162.8 408.9C1169.7 434.1 1179.9 458.4 1193.4 480.9C1194.3 482.4 1195.8 483.6 1197.3 484.5C1199.1 485.4 1200.9 485.4 1202.7 485.1L1240.5 479.1C1242 478.8 1243.8 479.1 1245.3 479.7C1246.8 480.3 1248.3 481.2 1249.2 482.7C1250.1 483.9 1251 485.4 1251 487.2C1251.3 488.7 1251 490.5 1250.4 492L1235.4 527.1C1234.8 528.9 1234.5 530.7 1234.8 532.5C1235.1 534.3 1236 536.1 1237.2 537.3C1255.8 555.9 1276.8 571.8 1299.6 584.4C1301.1 585.3 1303.2 585.6 1305 585.6C1306.8 585.3 1308.6 584.7 1310.1 583.5L1339.8 559.5C1341 558.6 1342.5 557.7 1344.3 557.7C1345.8 557.4 1347.6 557.7 1349.1 558.3C1350.6 558.9 1352.1 559.8 1353 561.3C1353.9 562.5 1354.5 564.3 1354.8 565.8L1359.3 603.6C1359.6 605.4 1360.2 607.2 1361.4 608.4C1362.6 609.9 1364.1 610.8 1365.9 611.4C1391.1 618 1417.2 621.3 1443.6 621C1445.4 621 1447.2 620.4 1448.7 619.2C1450.2 618 1451.4 616.8 1452 615L1465.8 579.3C1466.4 577.8 1467.3 576.3 1468.8 575.4C1470 574.5 1471.5 573.6 1473.3 573.6C1474.8 573.3 1476.6 573.6 1478.1 574.2C1479.6 574.8 1481.1 576 1482 577.2L1505.1 607.8C1506.3 609.3 1507.8 610.5 1509.6 611.1C1511.4 611.7 1513.2 611.7 1515 611.4C1540.2 604.5 1564.5 594.3 1587 580.8C1588.5 579.9 1589.7 578.4 1590.6 576.9C1591.5 575.1 1591.5 573.3 1591.2 571.5L1585.2 533.7C1584.9 532.2 1585.2 530.4 1585.8 528.9C1586.4 527.4 1587.3 525.9 1588.8 525C1590 524.1 1591.5 523.2 1593.3 523.2C1594.8 522.9 1596.6 523.2 1598.1 523.8L1632.3 538.2C1634.1 539.1 1636.2 539.1 1638.3 538.5C1640.4 537.9 1641.9 536.7 1643.4 535.2L1689.3 474.6C1690.5 473.1 1691.1 471 1691.1 468.9C1691.1 466.8 1690.2 464.7 1689 463.2L1665.6 434.4C1664.7 433.2 1663.8 431.7 1663.5 429.9C1663.2 428.4 1663.5 426.6 1664.1 425.1C1664.7 423.6 1665.6 422.1 1667.1 421.2C1668.3 420.3 1670.1 419.7 1671.6 419.4L1709.4 414.9C1711.2 414.6 1713 414 1714.5 412.8C1716 411.6 1716.9 410.1 1717.5 408.3C1720.8 395.7 1723.5 382.8 1725 369.9ZM1614 384.9C1610.7 396.9 1605.9 408.6 1599.9 419.4C1590.9 436.2 1579.2 451.8 1565.4 465C1556.4 473.7 1546.5 481.2 1536 488.1C1509 504.9 1478.1 514.5 1446.6 515.4C1427.4 516 1408.5 513.6 1389.9 508.5C1377.9 505.2 1366.2 500.4 1355.1 494.4C1338.3 485.4 1322.7 473.7 1309.5 459.9C1300.8 450.9 1293.3 441 1286.4 430.5C1276.2 414.3 1268.7 396.6 1264.2 378C1261.2 366 1259.4 353.4 1259.1 341.1C1258.5 321.9 1260.9 302.7 1266 284.4C1269.3 272.4 1274.1 260.7 1280.1 249.6C1289.1 232.8 1300.8 217.5 1314.6 204.3C1323.6 195.6 1333.5 188.1 1344 181.2C1360.2 171 1377.9 163.5 1396.5 159C1417.8 153.6 1440.3 152.4 1462.2 155.1C1503.3 160.2 1541.7 179.4 1570.5 209.1C1579.2 218.1 1586.7 228 1593.6 238.5C1603.8 254.7 1611.3 272.4 1615.8 291C1618.8 303 1620.6 315.6 1620.9 327.9C1621.8 347.4 1619.4 366.3 1614 384.9Z" fill="url(#paint4_linear)"/>
<path d="M580.801 955.5C580.801 951.6 580.501 947.4 579.901 943.5C579.901 942.9 579.601 942.3 579.301 942C579.001 941.7 578.401 941.4 577.801 941.1L566.401 938.4C565.801 938.4 565.501 938.1 565.201 937.8C564.901 937.5 564.601 936.9 564.601 936.6C564.601 936 564.601 935.7 564.601 935.1C564.601 934.5 564.901 934.2 565.501 933.9L573.901 925.8C574.201 925.5 574.501 924.9 574.801 924.3C574.801 923.7 574.801 923.1 574.801 922.5C571.801 915 567.601 908.1 562.801 901.8C562.501 901.5 561.901 900.9 561.301 900.9C560.701 900.6 560.101 900.6 559.501 900.9L548.401 904.2C547.801 904.2 547.501 904.2 546.901 904.2C546.301 904.2 546.001 903.9 545.701 903.6C545.401 903.3 545.101 902.7 545.101 902.4C545.101 901.8 545.101 901.5 545.101 900.9L548.401 889.8C548.701 889.2 548.401 888.6 548.401 888C548.101 887.4 547.801 887.1 547.501 886.5C541.201 881.7 534.301 877.5 526.801 874.5C526.201 874.2 525.601 874.2 525.001 874.5C524.401 874.5 523.801 874.8 523.501 875.4L515.401 883.8C515.101 884.1 514.501 884.4 514.201 884.7C513.601 884.7 513.301 884.7 512.701 884.7C512.101 884.7 511.801 884.4 511.501 884.1C511.201 883.8 510.901 883.2 510.901 882.9L508.201 871.5C508.201 870.9 507.901 870.6 507.301 870C507.001 869.7 506.401 869.4 505.801 869.4C498.001 868.2 489.901 868.2 481.801 869.4C481.201 869.4 480.601 869.7 480.301 870C480.001 870.3 479.701 870.9 479.401 871.5L476.701 882.9C476.701 883.5 476.401 883.8 476.101 884.1C475.801 884.4 475.201 884.7 474.901 884.7C474.301 884.7 474.001 884.7 473.401 884.7C472.801 884.7 472.501 884.4 472.201 883.8L464.101 875.4C463.801 875.1 463.201 874.8 462.601 874.5C462.001 874.5 461.401 874.5 461.101 874.5C453.601 877.5 446.701 881.4 440.401 886.5C440.101 886.8 439.501 887.4 439.501 888C439.201 888.6 439.201 889.2 439.501 889.8L442.801 900.9C442.801 901.5 442.801 901.8 442.801 902.4C442.801 903 442.501 903.3 442.201 903.6C441.901 903.9 441.301 904.2 441.001 904.2C440.401 904.2 440.101 904.2 439.501 904.2L428.401 900.9C427.801 900.6 427.201 900.9 426.601 900.9C426.001 901.2 425.701 901.5 425.101 901.8C420.301 908.1 416.101 915 413.101 922.5C412.801 923.1 412.801 923.7 413.101 924.3C413.101 924.9 413.401 925.5 414.001 925.8L422.401 933.9C422.701 934.2 423.001 934.8 423.301 935.1C423.301 935.7 423.301 936 423.301 936.6C423.301 937.2 423.001 937.5 422.701 937.8C422.401 938.1 421.801 938.4 421.501 938.4L410.101 941.1C409.501 941.1 409.201 941.4 408.601 942C408.301 942.3 408.001 942.9 408.001 943.5C406.801 951.3 406.801 959.4 408.001 967.5C408.001 968.1 408.301 968.7 408.601 969C408.901 969.3 409.501 969.6 410.101 969.9L421.501 972.6C422.101 972.6 422.401 972.9 422.701 973.2C423.001 973.5 423.301 974.1 423.301 974.4C423.301 975 423.301 975.3 423.301 975.9C423.301 976.5 423.001 976.8 422.401 977.1L414.001 985.2C413.701 985.5 413.401 986.1 413.101 986.7C413.101 987.3 413.101 987.9 413.101 988.5C416.101 996 420.301 1002.9 425.101 1009.2C425.401 1009.5 426.001 1010.1 426.601 1010.1C427.201 1010.4 427.801 1010.4 428.401 1010.1L439.501 1006.8C440.101 1006.8 440.401 1006.8 441.001 1006.8C441.601 1006.8 441.901 1007.1 442.201 1007.4C442.501 1007.7 442.801 1008.3 442.801 1008.6C442.801 1009.2 442.801 1009.5 442.801 1010.1L439.501 1021.2C439.201 1021.8 439.501 1022.4 439.501 1023C439.801 1023.6 440.101 1023.9 440.401 1024.5C446.701 1029.3 453.601 1033.5 461.101 1036.5C461.701 1036.8 462.301 1036.8 462.601 1036.5C463.201 1036.5 463.801 1036.2 464.101 1035.6L472.201 1027.2C472.501 1026.9 473.101 1026.6 473.401 1026.3C474.001 1026.3 474.301 1026.3 474.901 1026.3C475.501 1026.3 475.801 1026.6 476.101 1026.9C476.401 1027.2 476.701 1027.8 476.701 1028.1L479.401 1039.5C479.401 1040.1 479.701 1040.4 480.301 1041C480.601 1041.3 481.201 1041.6 481.801 1041.6C489.601 1042.8 497.701 1042.8 505.801 1041.6C506.401 1041.6 507.001 1041.3 507.301 1041C507.601 1040.7 507.901 1040.1 508.201 1039.5L510.901 1028.1C510.901 1027.5 511.201 1027.2 511.501 1026.9C511.801 1026.6 512.401 1026.3 512.701 1026.3C513.301 1026.3 513.601 1026.3 514.201 1026.3C514.801 1026.3 515.101 1026.6 515.401 1027.2L523.501 1035.6C523.801 1035.9 524.401 1036.2 525.001 1036.5C525.601 1036.5 526.201 1036.5 526.501 1036.5C534.001 1033.5 540.901 1029.6 547.201 1024.5C547.501 1024.2 548.101 1023.6 548.101 1023C548.401 1022.4 548.401 1021.8 548.101 1021.2L544.801 1010.1C544.801 1009.5 544.801 1009.2 544.801 1008.6C544.801 1008 545.101 1007.7 545.401 1007.4C545.701 1007.1 546.301 1006.8 546.601 1006.8C547.201 1006.8 547.501 1006.8 548.101 1006.8L558.901 1009.8C559.501 1010.1 560.101 1009.8 560.701 1009.8C561.301 1009.5 561.901 1009.2 562.201 1008.6L573.901 988.5C574.201 987.9 574.201 987.3 574.201 986.7C574.201 986.1 573.901 985.5 573.301 985.2L565.201 977.4C564.901 977.1 564.601 976.5 564.301 976.2C564.301 975.6 564.301 975.3 564.301 974.7C564.301 974.1 564.601 973.8 564.901 973.5C565.201 973.2 565.801 972.9 566.101 972.9L577.501 970.2C578.101 970.2 578.401 969.9 579.001 969.3C579.301 969 579.601 968.4 579.601 967.8C580.501 963.6 580.801 959.7 580.801 955.5ZM547.501 964.2C546.901 968.1 546.001 971.7 544.501 975.3C542.401 980.7 539.401 985.8 535.801 990.3C533.401 993.3 530.701 996 527.701 998.4C517.801 1006.5 505.501 1010.7 492.901 1010.7C486.001 1010.7 479.401 1009.5 473.101 1007.1C467.701 1005 462.601 1002 458.101 998.4C455.101 996 452.401 993.3 450.001 990.3C446.401 985.8 443.401 980.7 441.301 975.3C439.801 971.7 438.901 968.1 438.301 964.2C437.401 958.5 437.401 952.5 438.301 946.8C438.901 942.9 439.801 939.3 441.301 935.7C443.401 930.3 446.401 925.2 450.001 920.7C452.401 917.7 455.101 915 458.101 912.6C462.601 909 467.701 906 473.101 903.9C479.401 901.5 486.001 900.3 492.901 900.3C505.501 900.3 517.801 904.8 527.701 912.6C530.701 915 533.401 917.7 535.801 920.7C539.401 925.2 542.401 930.3 544.501 935.7C546.001 939.3 546.901 942.9 547.501 946.8C548.401 952.8 548.401 958.5 547.501 964.2Z" fill="url(#paint5_linear)"/>
<path d="M579.899 441.3H1525.5C1543.8 441.3 1561.2 448.5 1574.1 461.4C1587 474.3 1594.2 491.7 1594.2 510V1138.2H510.899V510.3C510.899 492 518.099 474.6 530.999 461.7C543.899 448.5 561.599 441.3 579.899 441.3Z" fill="#231F20"/>
<path d="M1563.3 505.2C1563.3 488.7 1549.8 475.2 1533.3 475.2H572.101C555.601 475.2 542.101 488.7 542.101 505.2V1047.9C542.101 1064.4 555.601 1077.9 572.101 1077.9H1533.3C1549.8 1077.9 1563.3 1064.4 1563.3 1047.9V505.2V505.2Z" fill="url(#paint6_linear)"/>
<path opacity="0.7" d="M1594.5 1112.1H510.899V1138.2H1594.5V1112.1Z" fill="white"/>
<path d="M483.9 1185.6H1621.2C1633.8 1185.6 1645.8 1180.5 1654.5 1171.8C1663.5 1162.8 1668.3 1150.8 1668.3 1138.5H436.8C436.8 1151.1 441.9 1163.1 450.6 1171.8C459.3 1180.8 471.3 1185.6 483.9 1185.6Z" fill="#E6E7E8"/>
<path d="M1124.1 1158.6H980.4C975 1158.6 969.9 1156.5 966 1152.6C962.1 1148.7 960 1143.6 960 1138.2H1144.2C1144.2 1140.9 1143.6 1143.6 1142.7 1146C1141.8 1148.4 1140.3 1150.8 1138.2 1152.6C1136.4 1154.4 1134 1155.9 1131.6 1157.1C1129.2 1158 1126.8 1158.6 1124.1 1158.6Z" fill="#666666"/>
<path opacity="0.8" d="M660.3 774.9L797.1 834.3V870L659.7 929.7L660.3 887.7L751.2 852.3L660.3 816.6V774.9V774.9Z" fill="#F6F6F6"/>
<path opacity="0.8" d="M868.5 988.2V949.2H1011.6V988.2H868.5Z" fill="#F6F6F6"/>
<path d="M342.6 900.9C335.1 809.7 499.8 618.9 499.8 618.9C499.8 618.9 315.9 681 307.5 892.5L342.6 900.9Z" fill="url(#paint7_linear)"/>
<path d="M293.4 914.7C250.8 678.9 342.6 496.5 342.6 496.5C342.6 496.5 376.2 639.6 312.3 885.3L293.4 914.7Z" fill="url(#paint8_linear)"/>
<path d="M217.2 919.5C224.7 828.3 60 637.5 60 637.5C60 637.5 243.9 699.6 252.3 911.1L217.2 919.5Z" fill="url(#paint9_linear)"/>
<path d="M253.8 923.7C172.8 758.1 221.1 455.4 221.1 455.4C221.1 455.4 318 746.4 294.3 918.6L253.8 923.7Z" fill="url(#paint10_linear)"/>
<path d="M399.6 1192.8H141.3L186.3 906.6L270.6 905.7H358.2L399.3 1187.4L399.6 1192.8Z" fill="#F1F2F2"/>
<path d="M355.499 883.8H184.199C179.099 883.8 174.899 888 174.899 893.1V897.3C174.899 902.4 179.099 906.6 184.199 906.6H355.499C360.599 906.6 364.799 902.4 364.799 897.3V893.1C364.799 888 360.599 883.8 355.499 883.8Z" fill="#F1F2F2"/>
<path opacity="0.5" d="M399 1187.4L141.3 1193.1C357.9 1182.9 338.4 906 338.4 906H357.9L399 1187.4Z" fill="url(#paint11_linear)"/>
<g opacity="0.3">
<path opacity="0.3" d="M1224.6 475.2C1224.9 475.2 1224.9 475.5 1224.6 475.5L582.001 1011.6C581.701 1011.9 581.401 1012.2 581.101 1012.5L542.701 1044.6C542.401 1044.9 542.101 1044.6 542.101 1044.3V485.7C542.101 485.4 542.401 484.8 542.401 484.5L548.401 478.2C548.701 477.9 549.001 477.6 549.301 477.6L558.901 475.2C559.201 475.2 559.801 475.2 560.101 475.2H1224.6Z" fill="white"/>
</g>
<path opacity="0.3" d="M1534.8 475.2L953.699 1077.6H687.899L1260.3 475.2H1534.8V475.2Z" fill="white"/>
<path d="M586.5 470.4C586.5 470.4 540.9 465 537.3 503.7" stroke="#231F20" stroke-width="3" stroke-miterlimit="10"/>
<g clip-path="url(#clip0)">
<path fill-rule="evenodd" clip-rule="evenodd" d="M1446.84 534.921C1511.07 534.921 1569.3 559.534 1613.13 599.755C1591.81 599.154 1570.2 612.061 1569.3 641.176C1567.5 700.307 1639.84 712.914 1600.82 831.476L1568.7 929.627L1480.76 670.592C1479.26 666.69 1481.06 664.289 1485.86 664.289H1510.77C1511.97 664.289 1513.17 663.088 1513.17 661.887V647.18C1513.17 645.979 1511.97 644.778 1510.77 644.778C1463.65 646.879 1417.12 646.879 1370.6 644.778C1369.4 644.778 1368.2 645.979 1368.2 647.18V661.887C1368.2 663.088 1369.4 664.289 1370.6 664.289H1395.51C1401.22 664.289 1402.72 666.09 1403.92 669.691L1439.94 768.443L1385.61 932.629L1296.46 669.391C1295.26 666.09 1296.76 664.289 1299.76 664.289H1328.28C1329.48 664.289 1330.68 663.088 1330.68 661.887V647.18C1330.68 645.979 1329.48 644.778 1328.28 644.778C1298.56 646.279 1268.55 646.579 1240.63 646.879C1284.45 579.644 1360.39 534.921 1446.84 534.921ZM1662.95 663.688C1681.86 698.506 1692.67 738.427 1692.67 780.75C1692.67 873.798 1641.04 954.841 1564.8 996.562L1641.34 779.249C1653.35 745.931 1664.15 700.307 1662.95 663.688ZM1529.08 1012.77C1503.27 1022.08 1475.65 1026.88 1446.84 1026.88C1421.93 1026.88 1397.91 1023.28 1375.4 1016.37L1451.04 799.359L1529.08 1012.77ZM1341.78 1003.17C1258.64 963.845 1201.31 878.901 1201.31 780.75C1201.31 744.431 1209.11 709.912 1223.52 678.696L1341.78 1003.17ZM1446.84 511.809C1595.42 511.809 1715.78 632.172 1715.78 780.75C1715.78 929.327 1595.42 1049.69 1446.84 1049.69C1298.26 1049.69 1177.9 929.327 1177.9 780.75C1177.9 632.472 1298.26 511.809 1446.84 511.809ZM1446.84 495C1604.72 495 1732.59 623.167 1732.59 781.05C1732.59 938.932 1604.72 1067.1 1446.84 1067.1C1288.96 1067.1 1161.09 938.932 1161.09 781.05C1161.09 623.167 1288.96 495 1446.84 495Z" fill="white"/>
</g>
</g>
<defs>
<filter id="filter0_d" x="-12" y="-8" width="1824" height="1374" filterUnits="userSpaceOnUse" color-interpolation-filters="sRGB">
<feFlood flood-opacity="0" result="BackgroundImageFix"/>
<feColorMatrix in="SourceAlpha" type="matrix" values="0 0 0 0 0 0 0 0 0 0 0 0 0 0 0 0 0 0 127 0" result="hardAlpha"/>
<feOffset dy="4"/>
<feGaussianBlur stdDeviation="6"/>
<feColorMatrix type="matrix" values="0 0 0 0 0 0 0 0 0 0 0 0 0 0 0 0 0 0 0.4 0"/>
<feBlend mode="normal" in2="BackgroundImageFix" result="effect1_dropShadow"/>
<feBlend mode="normal" in="SourceGraphic" in2="effect1_dropShadow" result="shape"/>
</filter>
<linearGradient id="paint0_linear" x1="706.138" y1="380.367" x2="1022.9" y2="380.367" gradientUnits="userSpaceOnUse">
<stop stop-color="#71439A"/>
<stop offset="0.8668" stop-color="#A76CAD"/>
</linearGradient>
<linearGradient id="paint1_linear" x1="605.36" y1="396.618" x2="685.127" y2="396.618" gradientUnits="userSpaceOnUse">
<stop stop-color="#71439A"/>
<stop offset="0.8668" stop-color="#A76CAD"/>
</linearGradient>
<linearGradient id="paint2_linear" x1="1459.82" y1="1175.13" x2="1661.88" y2="1175.13" gradientUnits="userSpaceOnUse">
<stop stop-color="#71439A"/>
<stop offset="0.8668" stop-color="#A76CAD"/>
</linearGradient>
<linearGradient id="paint3_linear" x1="1364.62" y1="1234.54" x2="1453.28" y2="1234.54" gradientUnits="userSpaceOnUse">
<stop stop-color="#71439A"/>
<stop offset="0.8668" stop-color="#A76CAD"/>
</linearGradient>
<linearGradient id="paint4_linear" x1="1445.7" y1="47.7094" x2="1434.26" y2="640.201" gradientUnits="userSpaceOnUse">
<stop stop-color="#75DAFF"/>
<stop offset="1" stop-color="#00BAFF"/>
</linearGradient>
<linearGradient id="paint5_linear" x1="483.859" y1="1042.84" x2="502.628" y2="862.687" gradientUnits="userSpaceOnUse">
<stop stop-color="#75DAFF"/>
<stop offset="1" stop-color="#00BAFF"/>
</linearGradient>
<linearGradient id="paint6_linear" x1="1034.21" y1="1076.68" x2="1072.35" y2="456.538" gradientUnits="userSpaceOnUse">
<stop stop-color="#75DAFF"/>
<stop offset="1" stop-color="#00BAFF"/>
</linearGradient>
<linearGradient id="paint7_linear" x1="380.705" y1="897.995" x2="424.43" y2="611.864" gradientUnits="userSpaceOnUse">
<stop stop-color="#75DAFF"/>
<stop offset="1" stop-color="#00BAFF"/>
</linearGradient>
<linearGradient id="paint8_linear" x1="223.325" y1="856.869" x2="418.892" y2="545.769" gradientUnits="userSpaceOnUse">
<stop stop-color="#75DAFF"/>
<stop offset="1" stop-color="#00BAFF"/>
</linearGradient>
<linearGradient id="paint9_linear" x1="134.346" y1="916.893" x2="178.069" y2="630.762" gradientUnits="userSpaceOnUse">
<stop stop-color="#75DAFF"/>
<stop offset="1" stop-color="#00BAFF"/>
</linearGradient>
<linearGradient id="paint10_linear" x1="157.39" y1="873.81" x2="359.816" y2="496.041" gradientUnits="userSpaceOnUse">
<stop stop-color="#75DAFF"/>
<stop offset="1" stop-color="#00BAFF"/>
</linearGradient>
<linearGradient id="paint11_linear" x1="269.611" y1="1193.45" x2="303.776" y2="899.242" gradientUnits="userSpaceOnUse">
<stop stop-color="#75DAFF"/>
<stop offset="1" stop-color="#00BAFF"/>
</linearGradient>
<clipPath id="clip0">
<rect width="573.3" height="573.3" fill="white" transform="translate(990 495)"/>
</clipPath>
</defs>
</svg>
