<svg width="650" height="468" viewBox="0 0 650 468" fill="none" xmlns="http://www.w3.org/2000/svg">
<g filter="url(#filter0_d)">
<path d="M576.3 344H427.2C427.9 341.7 429.2 339.6 430.9 337.9C432.6 336.2 434.7 334.8 437.1 334C439.5 333.2 442 332.8 444.5 333.1C447 333.3 449.4 334.1 451.6 335.3C452.9 331.1 455.7 327.3 459.5 324.7C463.3 322 467.9 320.6 472.6 320.6C476.1 320.6 479.6 321.4 482.8 323C484.8 317.6 488.5 313 493.4 309.6C498.3 306.2 504.1 304.3 510.1 304.1C516.1 303.9 522.1 305.3 527.2 308.3C532.3 311.3 536.4 315.6 538.9 320.8C543.5 320.3 548.1 321.1 552.2 323.2C556.2 325.3 559.5 328.6 561.4 332.5C562.1 332.4 562.8 332.3 563.4 332.4C566.8 332.4 570 333.6 572.4 335.8C574.8 337.9 576.2 340.9 576.3 344Z" fill="url(#paint0_linear)"/>
<path d="M615.2 346.8H441.8C442.6 345.7 444.1 344.6 446.1 343.8C448.1 342.9 450.6 342.3 453.3 341.8C456 341.3 459 341.2 461.9 341.3C464.8 341.4 467.6 341.8 470.1 342.4C471.7 340.3 474.9 338.4 479.3 337.1C483.7 335.8 489 335.1 494.5 335.1C498.6 335.1 502.7 335.5 506.3 336.3C508.7 333.6 512.9 331.3 518.6 329.6C524.3 327.9 531 327 538 326.8C545 326.7 552 327.4 557.9 328.9C563.9 330.4 568.6 332.5 571.5 335.1C576.8 334.8 582.2 335.2 586.9 336.3C591.6 337.3 595.4 339 597.6 340.9C598.4 340.8 599.2 340.8 600 340.8C603.9 340.8 607.6 341.4 610.5 342.5C613.4 343.7 615.1 345.2 615.2 346.8Z" fill="white"/>
<path d="M524.1 361.3H415.3C415.8 359.6 416.7 358 418 356.7C419.3 355.4 420.8 354.4 422.5 353.7C424.2 353.1 426.1 352.8 427.9 353C429.7 353.2 431.5 353.7 433.1 354.7C434.1 351.5 436.1 348.7 438.8 346.7C441.6 344.7 444.9 343.6 448.3 343.6C450.9 343.6 453.4 344.2 455.7 345.4C457.2 341.4 459.9 337.9 463.4 335.3C466.9 332.8 471.2 331.3 475.6 331.1C480 330.9 484.4 332 488.1 334.3C491.9 336.5 494.8 339.8 496.6 343.7C499.9 343.3 503.3 343.9 506.3 345.5C509.2 347.1 511.6 349.5 513 352.5C513.5 352.4 514 352.4 514.5 352.4C516.9 352.4 519.3 353.3 521.1 355C523 356.6 524 358.9 524.1 361.3Z" fill="url(#paint1_linear)"/>
<path d="M274 340.7H244.3C243.9 338.4 242.8 336.3 241.3 334.5C239.8 332.7 237.9 331.2 235.6 330.3C233.4 329.4 231 329 228.6 329.1C226.2 329.3 223.9 330 221.8 331.2C220.6 327.3 218.1 323.8 214.7 321.4C211.3 318.9 207.1 317.6 202.9 317.6C199.7 317.6 196.5 318.3 193.7 319.8C191.9 314.8 188.5 310.5 184.1 307.4C179.7 304.3 174.4 302.5 169 302.3C163.5 302.1 158.1 303.4 153.5 306.2C148.8 309 145.1 313 142.9 317.8C142.1 317.7 141.3 317.6 140.5 317.7C136.7 317.7 133 318.7 129.9 320.7C126.7 322.6 124.2 325.4 122.6 328.7C122 328.6 121.4 328.6 120.7 328.6C117.6 328.6 114.6 329.8 112.4 331.9C110.2 334 109 336.9 109 339.9C109 340.2 109 340.6 109.1 340.9H80.1001C79.2001 338.5 79.0001 335.9 79.4001 333.3C79.8001 330.8 80.8001 328.3 82.4001 326.2C84.0001 324.1 86.0001 322.4 88.4001 321.2C90.8001 320 93.4001 319.4 96.1001 319.4C97.0001 319.4 97.9001 319.5 98.8001 319.6C101.1 314.9 104.7 310.9 109.3 308.1C113.9 305.3 119.1 303.8 124.5 303.8C125.7 303.8 126.8 303.9 128 304C131.2 297.1 136.5 291.4 143.2 287.4C149.9 283.4 157.6 281.5 165.5 281.8C173.3 282.1 180.9 284.7 187.2 289.1C193.5 293.6 198.3 299.8 200.9 306.9C204.6 305 208.7 304 212.9 303.8C217.1 303.6 221.3 304.3 225.1 305.9C229 307.5 232.4 309.8 235.2 312.8C238 315.8 240.1 319.4 241.3 323.2C244.5 321.3 248.2 320.2 252 320.1C255.8 320 259.6 320.9 262.9 322.7C266.2 324.5 269 327.1 270.9 330.2C272.9 333.5 273.9 337 274 340.7Z" fill="url(#paint2_linear)"/>
<path d="M244.7 344.1H104.2C104.2 343.7 104.1 343.2 104.1 342.8C104.1 338.9 105.4 335.2 107.7 332.4C110 329.7 113.1 328.1 116.3 328.1C116.9 328.1 117.6 328.2 118.2 328.3C119.9 324 122.5 320.4 125.8 317.9C129.1 315.4 132.9 314 136.8 314C137.6 314 138.5 314.1 139.3 314.2C141.6 308 145.5 302.8 150.3 299.2C155.1 295.6 160.7 293.9 166.4 294.1C172.1 294.4 177.5 296.7 182.1 300.8C186.7 304.9 190.1 310.5 192 316.9C194.9 315 198.2 314 201.6 314C206 314 210.3 315.7 213.9 318.9C217.4 322.1 220 326.6 221.3 331.7C223.4 330.1 225.9 329.2 228.4 329C230.9 328.8 233.4 329.3 235.7 330.5C238 331.7 240 333.6 241.6 335.9C243.2 338.3 244.2 341.1 244.7 344.1Z" fill="white"/>
<path d="M143.7 340.4H34C34.1 339.2 34.5 338 35.1 336.9C35.7 335.8 36.6 334.9 37.6 334.1C38.6 333.3 39.8 332.8 41.1 332.5C42.4 332.2 43.7 332.1 45 332.4C46.3 329.7 48.4 327.5 50.9 325.9C53.5 324.3 56.5 323.5 59.6 323.5C60.3 323.5 60.9 323.5 61.6 323.6C63.4 319.7 66.4 316.4 70.2 314.2C74 312 78.4 310.9 82.8 311C87.2 311.2 91.5 312.6 95.1 315.2C98.7 317.7 101.4 321.2 102.9 325.3C105 324.2 107.3 323.6 109.7 323.5C112.1 323.4 114.5 323.8 116.7 324.7C118.9 325.6 120.9 326.9 122.5 328.6C124.1 330.3 125.3 332.3 125.9 334.5C127.4 333.6 129.2 333 131 332.8C132.8 332.6 134.6 332.8 136.3 333.4C138 334 139.6 334.9 140.8 336.1C142.1 337.3 143.1 338.7 143.7 340.4Z" fill="#EFEFF0"/>
<path d="M296.4 146.3H280.2C280 145.8 279.4 145.4 278.6 145C277.8 144.6 276.7 144.3 275.5 144.1C274.3 143.9 273 143.8 271.7 143.8C270.4 143.8 269.1 144 268 144.3C267.3 143.5 266 142.7 264.1 142.2C262.2 141.7 260 141.4 257.7 141.4C256 141.4 254.2 141.6 252.7 141.9C251.7 140.8 249.9 139.9 247.5 139.2C245.1 138.5 242.2 138.1 239.3 138.1C236.3 138.1 233.4 138.3 230.8 138.9C228.3 139.5 226.3 140.4 225 141.4C224.6 141.4 224.1 141.4 223.7 141.4C221.7 141.4 219.6 141.6 217.9 142C216.2 142.4 214.8 143 213.9 143.7C213.6 143.7 213.2 143.7 212.9 143.7C211.2 143.7 209.6 144 208.4 144.4C207.2 144.9 206.5 145.5 206.5 146.1C206.5 146.2 206.5 146.2 206.5 146.3H190.9C190.4 145.8 190.3 145.2 190.5 144.7C190.7 144.2 191.3 143.6 192.1 143.2C192.9 142.8 194.1 142.4 195.4 142.1C196.7 141.8 198.1 141.7 199.6 141.7C200.1 141.7 200.6 141.7 201.1 141.7C202.3 140.7 204.3 139.8 206.8 139.2C209.3 138.6 212.2 138.3 215.1 138.3C215.7 138.3 216.4 138.3 217 138.3C218.8 136.8 221.6 135.6 225.3 134.7C228.9 133.9 233.2 133.4 237.4 133.5C241.7 133.6 245.8 134.1 249.2 135.1C252.6 136.1 255.2 137.4 256.7 138.9C258.7 138.5 261 138.3 263.2 138.2C265.5 138.2 267.8 138.3 269.9 138.7C272 139 273.9 139.5 275.4 140.2C276.9 140.8 278.1 141.6 278.7 142.4C280.5 142 282.5 141.8 284.5 141.7C286.6 141.7 288.6 141.9 290.4 142.3C292.2 142.7 293.7 143.2 294.8 143.9C295.9 144.8 296.4 145.5 296.4 146.3Z" fill="#EFEFF0"/>
<path d="M280.5 147.1H204.1C204.1 147 204.1 146.9 204.1 146.8C204.1 146 204.8 145.2 206 144.6C207.2 144 208.9 143.7 210.7 143.7C211 143.7 211.4 143.7 211.7 143.7C212.6 142.8 214 142 215.8 141.5C217.6 141 219.7 140.7 221.8 140.7C222.3 140.7 222.7 140.7 223.2 140.7C224.5 139.4 226.6 138.2 229.2 137.5C231.8 136.7 234.9 136.4 238 136.4C241.1 136.4 244.1 137 246.5 137.8C249 138.7 250.9 139.9 251.9 141.3C253.5 140.9 255.3 140.7 257.1 140.7C259.5 140.7 261.8 141.1 263.8 141.8C265.7 142.5 267.1 143.4 267.8 144.5C269 144.2 270.3 144 271.6 143.9C273 143.9 274.3 144 275.6 144.2C276.8 144.5 277.9 144.9 278.8 145.4C279.7 145.8 280.2 146.4 280.5 147.1Z" fill="url(#paint3_linear)"/>
<path d="M225.6 144.8H165.9C166 144.5 166.2 144.3 166.5 144C166.8 143.8 167.3 143.6 167.9 143.4C168.5 143.2 169.1 143.1 169.8 143.1C170.5 143 171.2 143 171.9 143.1C172.6 142.5 173.7 142 175.1 141.7C176.5 141.4 178.1 141.2 179.8 141.2C180.2 141.2 180.5 141.2 180.9 141.2C181.9 140.4 183.5 139.7 185.6 139.2C187.7 138.7 190.1 138.5 192.5 138.5C194.9 138.5 197.3 138.8 199.2 139.4C201.1 140 202.6 140.7 203.4 141.6C204.5 141.4 205.8 141.2 207.1 141.2C208.4 141.2 209.7 141.3 210.9 141.5C212.1 141.7 213.2 142 214 142.3C214.9 142.7 215.5 143.1 215.9 143.6C216.7 143.4 217.7 143.3 218.7 143.2C219.7 143.2 220.7 143.2 221.6 143.3C222.5 143.4 223.4 143.6 224.1 143.9C224.7 144.1 225.2 144.4 225.6 144.8Z" fill="url(#paint4_linear)"/>
<path d="M366.2 84.1H350C349.8 83.6 349.2 83.2 348.4 82.8C347.6 82.4 346.5 82.1 345.3 81.9C344.1 81.7 342.8 81.6 341.5 81.6C340.2 81.6 338.9 81.8 337.8 82.1C337.1 81.3 335.8 80.5 333.9 80C332 79.5 329.8 79.2 327.5 79.2C325.8 79.2 324 79.4 322.5 79.7C321.5 78.6 319.7 77.7 317.3 77C314.9 76.3 312 75.9 309.1 75.9C306.1 75.9 303.2 76.1 300.6 76.7C298.1 77.3 296.1 78.2 294.8 79.2C294.4 79.2 293.9 79.2 293.5 79.2C291.5 79.2 289.4 79.4 287.7 79.8C286 80.2 284.6 80.8 283.7 81.5C283.4 81.5 283 81.5 282.7 81.5C281 81.5 279.4 81.8 278.2 82.2C277 82.7 276.3 83.3 276.3 83.9C276.3 84 276.3 84 276.3 84.1H260.8C260.3 83.6 260.2 83 260.4 82.5C260.6 82 261.2 81.4 262 81C262.8 80.6 264 80.2 265.3 79.9C266.6 79.6 268 79.5 269.5 79.5C270 79.5 270.5 79.5 271 79.5C272.2 78.5 274.2 77.6 276.7 77C279.2 76.4 282.1 76.1 285 76.1C285.6 76.1 286.3 76.1 286.9 76.1C288.7 74.6 291.5 73.4 295.2 72.5C298.8 71.7 303.1 71.2 307.3 71.3C311.6 71.4 315.7 71.9 319.1 72.9C322.5 73.9 325.1 75.2 326.6 76.7C328.6 76.3 330.9 76.1 333.1 76C335.4 76 337.7 76.1 339.8 76.5C341.9 76.8 343.8 77.3 345.3 78C346.8 78.6 348 79.4 348.6 80.2C350.4 79.8 352.4 79.6 354.4 79.5C356.5 79.5 358.5 79.7 360.3 80.1C362.1 80.5 363.6 81 364.7 81.7C365.7 82.6 366.2 83.3 366.2 84.1Z" fill="#E6E7E8"/>
<path d="M350.3 84.8H273.9C273.9 84.7 273.9 84.6 273.9 84.5C273.9 83.7 274.6 82.9 275.8 82.3C277 81.7 278.7 81.4 280.5 81.4C280.8 81.4 281.2 81.4 281.5 81.4C282.4 80.5 283.8 79.7 285.6 79.2C287.4 78.7 289.5 78.4 291.6 78.4C292.1 78.4 292.5 78.4 293 78.4C294.3 77.1 296.4 75.9 299 75.2C301.6 74.4 304.7 74.1 307.8 74.1C310.9 74.2 313.9 74.7 316.3 75.5C318.8 76.4 320.7 77.6 321.7 79C323.3 78.6 325.1 78.4 326.9 78.4C329.3 78.4 331.6 78.8 333.6 79.5C335.5 80.2 336.9 81.1 337.6 82.2C338.8 81.9 340.1 81.7 341.4 81.6C342.8 81.6 344.1 81.7 345.4 81.9C346.6 82.2 347.7 82.6 348.6 83.1C349.5 83.6 350 84.2 350.3 84.8Z" fill="url(#paint5_linear)"/>
<path d="M467.5 198.1H451.3C451.1 197.6 450.5 197.2 449.7 196.8C448.9 196.4 447.8 196.1 446.6 195.9C445.4 195.7 444.1 195.6 442.8 195.6C441.5 195.6 440.2 195.8 439.1 196.1C438.4 195.3 437.1 194.5 435.2 194C433.3 193.5 431.1 193.2 428.8 193.2C427.1 193.2 425.3 193.4 423.8 193.7C422.8 192.6 421 191.7 418.6 191C416.2 190.3 413.3 189.9 410.4 189.9C407.4 189.9 404.5 190.1 401.9 190.7C399.4 191.3 397.4 192.2 396.1 193.2C395.7 193.2 395.2 193.2 394.8 193.2C392.8 193.2 390.701 193.4 389 193.8C387.3 194.2 385.9 194.8 385 195.5C384.701 195.5 384.3 195.5 384 195.5C382.3 195.5 380.701 195.8 379.5 196.2C378.3 196.7 377.6 197.3 377.6 197.9C377.6 198 377.6 198 377.6 198.1H362C361.5 197.6 361.4 197 361.6 196.5C361.8 196 362.4 195.4 363.2 195C364 194.6 365.2 194.2 366.5 193.9C367.8 193.6 369.2 193.5 370.7 193.5C371.2 193.5 371.7 193.5 372.2 193.5C373.4 192.5 375.4 191.6 377.9 191C380.4 190.4 383.3 190.1 386.2 190.1C386.8 190.1 387.5 190.1 388.1 190.1C389.9 188.6 392.7 187.4 396.4 186.5C400 185.7 404.3 185.2 408.5 185.3C412.8 185.4 416.9 185.9 420.3 186.9C423.7 187.9 426.3 189.2 427.8 190.7C429.8 190.3 432.1 190.1 434.3 190C436.6 190 438.9 190.1 441 190.5C443.1 190.8 445 191.3 446.5 192C448 192.6 449.2 193.4 449.8 194.2C451.6 193.8 453.6 193.6 455.6 193.5C457.7 193.5 459.7 193.7 461.5 194.1C463.3 194.5 464.8 195 465.9 195.7C467 196.5 467.5 197.3 467.5 198.1Z" fill="#E6E7E8"/>
<path d="M451.6 198.8H375.2C375.2 198.7 375.2 198.6 375.2 198.5C375.2 197.7 375.9 196.9 377.1 196.3C378.3 195.7 380 195.4 381.8 195.4C382.1 195.4 382.5 195.4 382.8 195.4C383.7 194.5 385.1 193.7 386.9 193.2C388.7 192.7 390.8 192.4 392.9 192.4C393.4 192.4 393.8 192.4 394.3 192.4C395.6 191.1 397.7 189.9 400.3 189.2C402.9 188.4 406 188.1 409.1 188.1C412.2 188.2 415.2 188.7 417.6 189.5C420.1 190.4 422 191.6 423 193C424.6 192.6 426.4 192.4 428.2 192.4C430.6 192.4 432.9 192.8 434.9 193.5C436.8 194.2 438.2 195.1 438.9 196.2C440.1 195.9 441.4 195.7 442.7 195.6C444.1 195.6 445.4 195.7 446.7 195.9C447.9 196.2 449 196.6 449.9 197.1C450.8 197.6 451.3 198.2 451.6 198.8Z" fill="#EFEFF0"/>
<path d="M396.7 196.5H337C337.1 196.2 337.3 196 337.6 195.7C337.9 195.5 338.4 195.3 339 195.1C339.6 194.9 340.2 194.8 340.9 194.8C341.6 194.7 342.3 194.7 343 194.8C343.7 194.2 344.8 193.7 346.2 193.4C347.6 193.1 349.2 192.9 350.9 192.9C351.3 192.9 351.6 192.9 352 192.9C353 192.1 354.6 191.4 356.7 190.9C358.8 190.4 361.2 190.2 363.6 190.2C366 190.2 368.4 190.5 370.3 191.1C372.2 191.7 373.7 192.4 374.5 193.3C375.6 193.1 376.9 192.9 378.2 192.9C379.5 192.9 380.8 193 382 193.2C383.2 193.4 384.3 193.7 385.1 194C386 194.4 386.6 194.8 387 195.3C387.8 195.1 388.8 195 389.8 194.9C390.8 194.9 391.8 194.9 392.7 195C393.6 195.1 394.5 195.3 395.2 195.6C395.8 195.9 396.3 196.2 396.7 196.5Z" fill="url(#paint6_linear)"/>
<path d="M256.3 282.4H240.1C239.9 281.9 239.3 281.5 238.5 281.1C237.7 280.7 236.6 280.4 235.4 280.2C234.2 280 232.9 279.9 231.6 279.9C230.3 279.9 229 280.1 227.9 280.4C227.2 279.6 225.9 278.8 224 278.3C222.1 277.8 219.9 277.5 217.6 277.5C215.9 277.5 214.1 277.7 212.6 278C211.6 276.9 209.8 276 207.4 275.3C205 274.6 202.1 274.2 199.2 274.2C196.2 274.2 193.3 274.4 190.7 275C188.2 275.6 186.2 276.5 184.9 277.5C184.5 277.5 184 277.5 183.6 277.5C181.6 277.5 179.5 277.7 177.8 278.1C176.1 278.5 174.7 279.1 173.8 279.8C173.5 279.8 173.1 279.8 172.8 279.8C171.1 279.8 169.5 280.1 168.3 280.5C167.1 281 166.4 281.6 166.4 282.2C166.4 282.3 166.4 282.3 166.4 282.4H150.8C150.3 281.9 150.2 281.3 150.4 280.8C150.6 280.3 151.2 279.7 152 279.3C152.8 278.9 154 278.5 155.3 278.2C156.6 277.9 158 277.8 159.5 277.8C160 277.8 160.5 277.8 161 277.8C162.2 276.8 164.2 275.9 166.7 275.3C169.2 274.7 172.1 274.4 175 274.4C175.6 274.4 176.3 274.4 176.9 274.4C178.7 272.9 181.5 271.7 185.2 270.8C188.8 270 193.1 269.5 197.3 269.6C201.6 269.7 205.7 270.2 209.1 271.2C212.5 272.2 215.1 273.5 216.6 275C218.6 274.6 220.9 274.4 223.1 274.3C225.4 274.3 227.7 274.4 229.8 274.8C231.9 275.1 233.8 275.6 235.3 276.3C236.8 276.9 238 277.7 238.6 278.5C240.4 278.1 242.4 277.9 244.4 277.8C246.5 277.8 248.5 278 250.3 278.4C252.1 278.8 253.6 279.3 254.7 280C255.8 280.9 256.3 281.6 256.3 282.4Z" fill="url(#paint7_linear)"/>
<path d="M240.4 283.1H164C164 283 164 282.9 164 282.8C164 282 164.7 281.2 165.9 280.6C167.1 280 168.8 279.7 170.6 279.7C170.9 279.7 171.3 279.7 171.6 279.7C172.5 278.8 173.9 278 175.7 277.5C177.5 277 179.6 276.7 181.7 276.7C182.2 276.7 182.6 276.7 183.1 276.7C184.4 275.4 186.5 274.2 189.1 273.5C191.7 272.7 194.8 272.4 197.9 272.4C201 272.5 204 273 206.4 273.8C208.9 274.7 210.8 275.9 211.8 277.3C213.4 276.9 215.2 276.7 217 276.7C219.4 276.7 221.7 277.1 223.7 277.8C225.6 278.5 227 279.4 227.7 280.5C228.9 280.2 230.2 280 231.5 279.9C232.9 279.9 234.2 280 235.5 280.2C236.7 280.5 237.8 280.9 238.7 281.4C239.6 281.9 240.2 282.5 240.4 283.1Z" fill="url(#paint8_linear)"/>
<path d="M185.5 280.9H125.8C125.9 280.6 126.1 280.4 126.4 280.1C126.7 279.9 127.2 279.7 127.8 279.5C128.4 279.3 129 279.2 129.7 279.2C130.4 279.1 131.1 279.1 131.8 279.2C132.5 278.6 133.6 278.1 135 277.8C136.4 277.5 138 277.3 139.7 277.3C140.1 277.3 140.4 277.3 140.8 277.3C141.8 276.5 143.4 275.8 145.5 275.3C147.6 274.8 150 274.6 152.4 274.6C154.8 274.6 157.2 274.9 159.1 275.5C161 276 162.5 276.8 163.3 277.7C164.4 277.5 165.7 277.3 167 277.3C168.3 277.3 169.6 277.4 170.8 277.6C172 277.8 173.1 278.1 173.9 278.4C174.8 278.8 175.4 279.2 175.8 279.7C176.6 279.5 177.6 279.4 178.6 279.3C179.6 279.3 180.6 279.3 181.5 279.4C182.4 279.5 183.3 279.7 184 280C184.6 280.2 185.1 280.5 185.5 280.9Z" fill="url(#paint9_linear)"/>
<path d="M557.8 252.9C557.8 253.8 557.5 254.7 556.9 255.6H531C530.9 254.1 529.6 252.7 527.3 251.6C525.1 250.6 522.1 250 518.9 250C518.3 250 517.6 250 517 250.1C515.2 248.2 512.2 246.7 508.4 245.7C504.6 244.7 500.3 244.3 496.1 244.6C493.8 242.1 490 240.1 485.2 238.7C480.4 237.3 474.9 236.6 469.2 236.7C463.6 236.8 458.2 237.7 453.7 239.3C449.2 240.9 445.8 243.1 443.9 245.7C441 245 437.7 244.6 434.4 244.6C430 244.6 425.8 245.3 422.2 246.5C418.7 247.8 416.1 249.5 414.9 251.5C412.9 250.9 410.6 250.5 408.3 250.4C406 250.3 403.6 250.4 401.4 250.8C399.2 251.2 397.2 251.8 395.6 252.7C394 253.5 392.8 254.5 392.2 255.6H359.5C359.5 253.7 360.5 251.9 362.5 250.3C364.5 248.7 367.3 247.4 370.7 246.5C374.1 245.6 377.9 245.1 381.8 245.2C385.7 245.2 389.5 245.8 392.7 246.8C393.9 244.8 396 243 398.9 241.5C401.8 240 405.3 238.8 409.2 238C413.1 237.2 417.4 236.8 421.7 236.9C426 237 430.2 237.5 433.9 238.5C436.6 234.9 441.5 231.7 447.9 229.5C454.3 227.2 462 225.9 470 225.8C478 225.6 485.9 226.6 492.7 228.6C499.5 230.6 504.9 233.6 508.2 237C509.4 236.9 510.6 236.9 511.8 236.9C517.3 236.9 522.7 237.7 527.3 239.1C531.9 240.5 535.6 242.5 538 244.9C538.9 244.8 539.8 244.8 540.7 244.8C542.9 244.8 545.2 245 547.3 245.4C549.4 245.8 551.3 246.4 552.9 247.2C554.5 248 555.7 248.9 556.6 249.9C557.3 250.7 557.8 251.8 557.8 252.9Z" fill="#EFEFF0"/>
<path d="M530.9 255.6H392.2C392.9 254.5 394 253.5 395.6 252.7C397.2 251.9 399.2 251.2 401.4 250.8C403.6 250.4 406 250.2 408.3 250.4C410.6 250.5 412.9 250.9 414.9 251.5C416.1 249.5 418.7 247.7 422.2 246.5C425.7 245.2 430 244.6 434.4 244.6C437.7 244.6 441 245 443.9 245.7C445.8 243.2 449.2 240.9 453.7 239.3C458.2 237.7 463.6 236.8 469.2 236.7C474.8 236.6 480.4 237.3 485.2 238.7C490 240.1 493.8 242.2 496.1 244.6C500.4 244.3 504.7 244.7 508.4 245.7C512.2 246.7 515.2 248.2 517 250.1C517.6 250.1 518.3 250 518.9 250C522 250 525 250.6 527.3 251.6C529.5 252.6 530.8 254.1 530.9 255.6Z" fill="#E6E7E8"/>
<path d="M574.4 250.4H476.8C477.3 249.6 478.1 248.9 479.2 248.4C480.3 247.8 481.7 247.4 483.3 247.1C484.8 246.8 486.5 246.7 488.2 246.8C489.8 246.9 491.4 247.1 492.8 247.5C493.7 246.1 495.5 244.8 498 244C500.5 243.2 503.5 242.6 506.6 242.6C508.9 242.6 511.2 242.9 513.3 243.4C514.6 241.6 517 240.1 520.2 238.9C523.4 237.8 527.2 237.1 531.1 237C535.1 236.9 539 237.4 542.3 238.4C545.7 239.4 548.3 240.8 550 242.6C553 242.4 556 242.7 558.7 243.4C561.3 244.1 563.5 245.2 564.7 246.5C565.1 246.5 565.6 246.4 566 246.5C568.2 246.5 570.3 246.9 571.9 247.6C573.4 248.3 574.3 249.3 574.4 250.4Z" fill="white"/>
<path d="M301.3 186.4C301.3 187.2 301 188.1 300.4 188.9H274.6C274.5 187.5 273.2 186.2 270.9 185.2C268.7 184.2 265.7 183.7 262.6 183.7C262 183.7 261.3 183.7 260.7 183.8C258.9 182.1 255.9 180.6 252.2 179.7C248.5 178.8 244.1 178.4 239.9 178.6C237.6 176.3 233.8 174.4 229 173.1C224.2 171.8 218.7 171.1 213.1 171.2C207.5 171.3 202.1 172.2 197.6 173.6C193.1 175.1 189.7 177.1 187.8 179.5C184.9 178.8 181.7 178.4 178.4 178.4C174 178.4 169.8 179 166.3 180.2C162.8 181.4 160.2 183 159 184.9C157 184.3 154.8 184 152.4 183.9C150.1 183.8 147.7 183.9 145.5 184.3C143.3 184.7 141.3 185.3 139.8 186C138.2 186.8 137 187.7 136.4 188.7H103.7C103.7 187 104.7 185.3 106.7 183.8C108.7 182.3 111.5 181.1 114.8 180.2C118.2 179.4 122 178.9 125.8 179C129.7 179 133.4 179.5 136.7 180.5C137.9 178.7 140 177 142.9 175.6C145.7 174.2 149.3 173.1 153.2 172.3C157.1 171.6 161.4 171.2 165.6 171.3C169.9 171.4 174 171.9 177.8 172.8C180.5 169.4 185.3 166.5 191.7 164.4C198.1 162.3 205.8 161.1 213.7 160.9C221.7 160.8 229.5 161.7 236.3 163.5C243.1 165.4 248.5 168.1 251.8 171.4C253 171.3 254.2 171.3 255.4 171.3C260.9 171.3 266.2 172 270.9 173.3C275.5 174.6 279.2 176.5 281.5 178.7C282.4 178.6 283.3 178.6 284.2 178.6C286.4 178.6 288.7 178.8 290.7 179.2C292.8 179.6 294.7 180.1 296.2 180.9C297.8 181.6 299 182.5 299.9 183.4C300.9 184.4 301.3 185.4 301.3 186.4Z" fill="white"/>
<path d="M274.6 188.9H136.4C137.1 187.9 138.2 187 139.8 186.2C141.4 185.4 143.4 184.8 145.5 184.5C147.7 184.1 150 184 152.4 184.1C154.7 184.2 157 184.5 159 185.1C160.2 183.2 162.8 181.6 166.3 180.4C169.8 179.2 174 178.6 178.4 178.6C181.7 178.6 184.9 179 187.8 179.7C189.7 177.3 193.1 175.3 197.6 173.8C202.1 172.3 207.5 171.5 213.1 171.4C218.7 171.3 224.2 171.9 229 173.3C233.8 174.6 237.5 176.5 239.9 178.8C244.1 178.6 248.5 178.9 252.2 179.9C255.9 180.8 258.9 182.3 260.7 184C261.3 184 262 183.9 262.6 183.9C265.7 183.9 268.7 184.4 270.9 185.4C273.2 186.2 274.5 187.5 274.6 188.9Z" fill="url(#paint10_linear)"/>
<path d="M315 185.8H234.7C235.1 185 235.8 184.3 236.7 183.8C237.6 183.2 238.8 182.8 240 182.5C241.3 182.2 242.6 182.1 244 182.2C245.4 182.3 246.7 182.5 247.8 182.9C248.5 181.5 250 180.2 252 179.4C254 178.5 256.5 178 259 178C260.9 178 262.8 178.3 264.5 178.8C265.6 177 267.6 175.5 270.2 174.3C272.8 173.1 275.9 172.5 279.2 172.4C282.4 172.3 285.7 172.8 288.4 173.8C291.2 174.8 293.4 176.2 294.7 178C297.2 177.8 299.7 178.1 301.8 178.8C304 179.5 305.7 180.6 306.8 181.9C307.2 181.9 307.5 181.8 307.9 181.9C309.7 181.9 311.4 182.3 312.7 183C314.2 183.8 314.9 184.8 315 185.8Z" fill="white"/>
<path d="M500.5 118.6C500.5 119.4 500.3 120.2 499.8 120.9H479.9C479.8 119.6 478.8 118.4 477.1 117.5C475.4 116.6 473.1 116.1 470.7 116.1C470.2 116.1 469.7 116.1 469.2 116.2C467.8 114.6 465.5 113.3 462.6 112.4C459.7 111.5 456.4 111.2 453.1 111.4C451.3 109.3 448.4 107.5 444.7 106.3C441 105.1 436.8 104.5 432.4 104.6C428.1 104.7 423.9 105.5 420.5 106.8C417 108.2 414.4 110.1 412.9 112.2C410.7 111.6 408.2 111.2 405.6 111.2C402.2 111.2 399 111.8 396.3 112.9C393.6 114 391.6 115.5 390.7 117.2C389.2 116.7 387.4 116.4 385.6 116.3C383.8 116.2 382 116.3 380.3 116.7C378.6 117 377.1 117.6 375.9 118.3C374.7 119 373.8 119.9 373.3 120.8H348.1C348.1 119.2 348.9 117.7 350.4 116.3C351.9 114.9 354.1 113.8 356.7 113C359.3 112.2 362.2 111.8 365.2 111.9C368.2 111.9 371.1 112.4 373.6 113.2C374.5 111.5 376.2 110 378.3 108.7C380.5 107.4 383.2 106.4 386.2 105.7C389.2 105 392.5 104.7 395.8 104.8C399.1 104.9 402.3 105.3 405.2 106.2C407.3 103.1 411 100.4 415.9 98.5001C420.8 96.6001 426.8 95.4001 432.9 95.3001C439 95.2001 445.1 96.0001 450.3 97.7001C455.5 99.4001 459.7 101.9 462.2 104.9C463.1 104.8 464 104.8 464.9 104.8C469.1 104.8 473.3 105.4 476.8 106.7C480.4 107.9 483.2 109.6 485 111.7C485.7 111.6 486.4 111.6 487.1 111.6C488.8 111.6 490.5 111.8 492.1 112.1C493.7 112.5 495.1 113 496.4 113.6C497.6 114.3 498.6 115 499.3 115.9C500.1 116.8 500.5 117.7 500.5 118.6Z" fill="white"/>
<path d="M479.9 120.9H373.2C373.7 120 374.6 119.1 375.8 118.4C377 117.7 378.5 117.1 380.2 116.8C381.9 116.5 383.7 116.3 385.5 116.4C387.3 116.5 389 116.8 390.6 117.3C391.6 115.6 393.5 114.1 396.2 113C398.9 111.9 402.2 111.3 405.5 111.3C408 111.3 410.5 111.6 412.8 112.3C414.2 110.1 416.9 108.2 420.4 106.9C423.9 105.6 428 104.7 432.3 104.7C436.6 104.6 440.9 105.2 444.6 106.4C448.3 107.6 451.2 109.4 453 111.5C456.3 111.3 459.6 111.6 462.5 112.5C465.4 113.4 467.7 114.7 469.1 116.3C469.6 116.3 470.1 116.2 470.6 116.2C473 116.2 475.3 116.7 477 117.6C478.8 118.4 479.8 119.6 479.9 120.9Z" fill="#EFEFF0"/>
<path d="M533.2 121.3H458.2C458.6 120.6 459.2 120.1 460.1 119.6C461 119.1 462 118.7 463.2 118.5C464.4 118.3 465.7 118.2 466.9 118.2C468.2 118.3 469.4 118.5 470.5 118.8C471.2 117.6 472.6 116.5 474.5 115.8C476.4 115.1 478.7 114.6 481.1 114.6C482.9 114.6 484.6 114.8 486.2 115.3C487.2 113.8 489.1 112.4 491.5 111.5C493.9 110.5 496.9 110 499.9 109.9C502.9 109.8 505.9 110.2 508.5 111.1C511.1 111.9 513.1 113.2 514.4 114.7C516.7 114.5 519 114.8 521.1 115.4C523.1 116 524.8 116.9 525.7 118.1C526 118.1 526.4 118.1 526.7 118.1C528.4 118.1 530 118.4 531.2 119.1C532.4 119.5 533.1 120.4 533.2 121.3Z" fill="white"/>
<path d="M484.7 208.2H192.4V221.4H484.7V208.2Z" fill="url(#paint11_linear)"/>
<path d="M220.1 221.4H210.7V358.6H220.1V221.4Z" fill="#575859"/>
<path d="M301.1 221.4H291.7V358.6H301.1V221.4Z" fill="#231F20"/>
<path d="M384.3 221.4H374.9V358.6H384.3V221.4Z" fill="#231F20"/>
<path d="M429.5 364.6H417.7C417.4 363.9 417 363.2 416.4 362.7C415.8 362.2 415.1 361.7 414.3 361.5C413.5 361.2 412.7 361.2 411.9 361.2C411.1 361.3 410.3 361.5 409.6 361.9C409.3 360.9 408.8 360 408 359.3C407.3 358.5 406.4 357.9 405.4 357.5C404.4 357.1 403.3 356.9 402.2 357C401.1 357 400.1 357.3 399.1 357.8C398.4 356 397.2 354.4 395.5 353.3C393.8 352.2 391.9 351.5 389.9 351.4C387.9 351.3 385.9 351.8 384.1 352.8C382.4 353.8 381 355.3 380.2 357C379.9 357 379.6 356.9 379.3 356.9C377.9 356.9 376.5 357.3 375.4 358C374.2 358.7 373.3 359.7 372.7 360.9C372.1 360.8 371.5 360.8 370.9 361C370.3 361.1 369.8 361.4 369.3 361.7C368.8 362 368.4 362.5 368.2 363C367.9 363.5 367.7 364 367.7 364.6H356.5C356.3 364 356.2 363.3 356.2 362.7C356.2 361.9 356.4 361.1 356.7 360.4C357 359.7 357.5 359 358.1 358.5C358.7 357.9 359.4 357.5 360.2 357.2C361 356.9 361.8 356.7 362.6 356.7C362.9 356.7 363.3 356.7 363.6 356.8C364.6 354.9 366.1 353.3 368.1 352.3C370.1 351.3 372.3 350.9 374.6 351.1C375.8 348.6 377.8 346.4 380.3 345C382.8 343.5 385.7 342.8 388.7 342.9C391.7 343 394.5 344 396.9 345.6C399.3 347.3 401.1 349.5 402.1 352.2C403.5 351.5 405 351.1 406.6 351C408.2 350.9 409.8 351.2 411.2 351.8C412.7 352.4 414 353.3 415 354.4C416.1 355.5 416.8 356.8 417.3 358.3C418.5 357.6 419.9 357.2 421.3 357.2C422.7 357.2 424.1 357.5 425.4 358.2C426.7 358.9 427.7 359.8 428.4 361C429.1 362.2 429.5 363.2 429.5 364.6Z" fill="url(#paint12_linear)"/>
<path d="M466.3 221.4H456.9V358.6H466.3V221.4Z" fill="#5A5B5D"/>
<path d="M297.5 281.1C297.4 281.1 297.3 281.1 297.2 281L214.1 238.6C213.9 238.5 213.8 238.4 213.8 238.2C213.7 238 213.8 237.8 213.9 237.7C214 237.5 214.1 237.4 214.3 237.4C214.5 237.3 214.7 237.4 214.8 237.4L297.9 279.8C298 279.9 298.2 280 298.2 280.1C298.3 280.2 298.3 280.4 298.2 280.5C298.2 280.6 298.1 280.8 297.9 280.9C297.8 281 297.6 281.1 297.5 281.1Z" fill="#636466"/>
<path d="M214.4 281.1C214.2 281.1 214.1 281 214 281C213.9 280.9 213.8 280.8 213.7 280.6C213.7 280.5 213.7 280.3 213.7 280.2C213.8 280.1 213.9 279.9 214 279.9L297.1 237.5C297.3 237.4 297.5 237.4 297.6 237.5C297.8 237.6 297.9 237.7 298 237.8C298.1 238 298.1 238.1 298.1 238.3C298 238.5 297.9 238.6 297.8 238.7L214.8 281C214.7 281.1 214.5 281.1 214.4 281.1Z" fill="#636466"/>
<path d="M297.5 323.5C297.4 323.5 297.3 323.5 297.2 323.4L214.1 281C213.9 280.9 213.8 280.8 213.8 280.6C213.7 280.4 213.8 280.2 213.9 280.1C214 279.9 214.1 279.8 214.3 279.8C214.5 279.7 214.7 279.8 214.8 279.8L297.9 322.2C298 322.3 298.2 322.4 298.2 322.5C298.3 322.6 298.3 322.8 298.2 322.9C298.2 323 298.1 323.2 297.9 323.3C297.8 323.4 297.6 323.5 297.5 323.5Z" fill="#636466"/>
<path d="M214.4 323.5C214.2 323.5 214.1 323.5 214 323.4C213.9 323.3 213.8 323.2 213.7 323C213.7 322.9 213.7 322.7 213.7 322.6C213.7 322.5 213.9 322.3 214 322.3L297.1 279.9C297.3 279.8 297.5 279.8 297.6 279.9C297.8 280 297.9 280.1 298 280.2C298.1 280.4 298.1 280.5 298.1 280.7C298 280.9 297.9 281 297.8 281.1L214.8 323.4C214.7 323.4 214.5 323.5 214.4 323.5Z" fill="#636466"/>
<path d="M380.6 281.1C380.5 281.1 380.4 281.1 380.3 281L297.2 238.6C297 238.5 296.9 238.4 296.9 238.2C296.8 238 296.9 237.8 297 237.7C297.1 237.5 297.2 237.4 297.4 237.4C297.6 237.3 297.8 237.4 297.9 237.4L381 279.8C381.1 279.9 381.3 280 381.3 280.1C381.4 280.2 381.4 280.4 381.3 280.5C381.3 280.6 381.2 280.8 381 280.9C380.9 281 380.7 281.1 380.6 281.1Z" fill="#636466"/>
<path d="M297.5 281.1C297.3 281.1 297.2 281 297.1 281C297 280.9 296.9 280.8 296.8 280.6C296.8 280.5 296.8 280.3 296.8 280.2C296.9 280.1 297 279.9 297.1 279.9L380.2 237.5C380.4 237.4 380.6 237.4 380.7 237.5C380.9 237.6 381 237.7 381.1 237.8C381.2 238 381.2 238.1 381.2 238.3C381.1 238.5 381 238.6 380.9 238.7L297.8 281C297.7 281.1 297.6 281.1 297.5 281.1Z" fill="#636466"/>
<path d="M380.6 323.5C380.5 323.5 380.4 323.5 380.3 323.4L297.2 281C297 280.9 296.9 280.8 296.9 280.6C296.8 280.4 296.9 280.2 297 280.1C297.1 279.9 297.2 279.8 297.4 279.8C297.6 279.7 297.8 279.8 297.9 279.8L381 322.2C381.1 322.3 381.3 322.4 381.3 322.5C381.4 322.6 381.4 322.8 381.3 322.9C381.3 323 381.2 323.2 381 323.3C380.9 323.4 380.7 323.5 380.6 323.5Z" fill="#636466"/>
<path d="M297.5 323.5C297.3 323.5 297.2 323.5 297.1 323.4C297 323.3 296.9 323.2 296.8 323C296.8 322.9 296.8 322.7 296.8 322.6C296.9 322.5 297 322.3 297.1 322.3L380.2 279.9C380.4 279.8 380.6 279.8 380.7 279.9C380.9 280 381 280.1 381.1 280.2C381.2 280.3 381.2 280.5 381.2 280.7C381.1 280.9 381 281 380.9 281.1L297.8 323.4C297.7 323.4 297.6 323.5 297.5 323.5Z" fill="#636466"/>
<path d="M463.5 281.1C463.4 281.1 463.3 281.1 463.2 281L380.1 238.6C379.9 238.5 379.8 238.4 379.8 238.2C379.8 238 379.8 237.8 379.9 237.7C380 237.5 380.1 237.4 380.3 237.4C380.5 237.3 380.7 237.4 380.8 237.4L463.9 279.8C464 279.9 464.2 280 464.2 280.1C464.3 280.2 464.3 280.4 464.2 280.5C464.1 280.6 464.1 280.8 463.9 280.9C463.8 281 463.7 281.1 463.5 281.1Z" fill="#636466"/>
<path d="M380.4 281.1C380.2 281.1 380.1 281 380 281C379.9 280.9 379.8 280.8 379.7 280.6C379.7 280.5 379.7 280.3 379.7 280.2C379.8 280.1 379.9 279.9 380 279.9L463.1 237.5C463.2 237.5 463.3 237.4 463.4 237.4C463.5 237.4 463.6 237.4 463.7 237.4C463.8 237.4 463.9 237.5 463.9 237.5C464 237.6 464 237.6 464.1 237.7C464.1 237.8 464.2 237.9 464.2 238C464.2 238.1 464.2 238.2 464.2 238.3C464.2 238.4 464.1 238.5 464.1 238.5C464 238.6 464 238.6 463.9 238.7L380.8 281C380.7 281.1 380.6 281.1 380.4 281.1Z" fill="#636466"/>
<path d="M463.5 323.5C463.4 323.5 463.3 323.5 463.2 323.4L380.1 281C379.9 280.9 379.8 280.8 379.8 280.6C379.7 280.4 379.8 280.2 379.9 280.1C380 280 380.1 279.8 380.3 279.8C380.5 279.7 380.7 279.8 380.8 279.8L463.9 322.2C464 322.3 464.2 322.4 464.2 322.5C464.3 322.6 464.3 322.8 464.2 322.9C464.2 323 464.1 323.2 463.9 323.3C463.8 323.4 463.7 323.5 463.5 323.5Z" fill="#636466"/>
<path d="M380.4 323.5C380.2 323.5 380.1 323.4 380 323.4C379.9 323.3 379.8 323.2 379.7 323C379.7 322.9 379.7 322.7 379.7 322.6C379.8 322.5 379.9 322.3 380 322.3L463.1 279.9C463.3 279.8 463.5 279.8 463.7 279.8C463.9 279.9 464 280 464.1 280.1C464.2 280.3 464.2 280.4 464.2 280.6C464.1 280.8 464 280.9 463.9 281L380.8 323.4C380.7 323.4 380.6 323.5 380.4 323.5Z" fill="#636466"/>
<path d="M411 364.1L410.5 364C410.6 364 410.8 364 411 364.1Z" fill="url(#paint13_linear)"/>
<path d="M199.8 216.5C200.8 216.1 201.3 215 200.9 214.1C200.5 213.2 199.3 212.7 198.3 213.1C197.3 213.5 196.8 214.6 197.2 215.5C197.7 216.4 198.8 216.9 199.8 216.5Z" fill="url(#paint14_linear)"/>
<path d="M476.9 217C477.9 216.6 478.4 215.5 478 214.6C477.6 213.7 476.4 213.2 475.4 213.6C474.4 214 473.9 215.1 474.3 216C474.8 216.9 475.9 217.4 476.9 217Z" fill="url(#paint15_linear)"/>
<path d="M318.6 354.1C318.6 354.7 318.5 355.3 318.3 355.8H254.5C254.5 354.6 254.8 353.5 255.5 352.4C256.1 351.4 257 350.5 258.1 350C259.2 349.5 260.4 349.1 261.7 349.2C263 349.2 264.2 349.6 265.2 350.2C265.6 349 266.3 347.8 267.2 346.8C268.1 345.8 269.3 345.1 270.5 344.6C271.8 344.1 273.2 343.9 274.5 343.9C275.9 344 277.2 344.3 278.5 344.9C279.4 342.6 280.9 340.6 283 339.2C285.1 337.8 287.6 336.9 290.2 336.8C292.8 336.7 295.3 337.3 297.5 338.6C299.7 339.9 301.4 341.7 302.5 344C302.9 344 303.3 343.9 303.7 343.9C305.5 343.9 307.2 344.4 308.7 345.3C310.2 346.2 311.4 347.5 312.1 349C312.9 348.9 313.7 348.9 314.5 349.1C315.3 349.3 316 349.7 316.6 350.2C317.2 350.7 317.7 351.3 318 352C318.3 352.7 318.6 353.3 318.6 354.1Z" fill="url(#paint16_linear)"/>
<path d="M243.9 359H123.4C123.4 358.6 123.3 358.3 123.3 357.9C123.3 354.6 124.4 351.5 126.4 349.2C128.4 346.9 131 345.6 133.8 345.6C134.4 345.6 134.9 345.7 135.4 345.8C136.8 342.2 139.1 339.2 141.9 337.1C144.7 335 148 333.9 151.4 333.9C152.1 333.9 152.9 333.9 153.6 334.1C155.6 328.9 158.9 324.5 163.1 321.5C167.2 318.5 172.1 317 176.9 317.3C181.8 317.5 186.5 319.5 190.4 322.9C194.3 326.3 197.3 331 198.9 336.4C201.4 334.8 204.2 334 207.1 334C210.9 334 214.6 335.4 217.6 338.1C220.6 340.8 222.9 344.5 224 348.8C225.8 347.5 227.9 346.7 230 346.5C232.1 346.3 234.3 346.8 236.3 347.8C238.3 348.8 240 350.4 241.3 352.4C242.6 354.2 243.6 356.5 243.9 359Z" fill="url(#paint17_linear)"/>
<path d="M417.7 364.6H367.7C367.8 364 367.9 363.5 368.2 363C368.5 362.5 368.9 362.1 369.3 361.7C369.8 361.4 370.3 361.1 370.9 361C371.5 360.9 372.1 360.8 372.7 360.9C373.3 359.7 374.2 358.7 375.4 358C376.6 357.3 377.9 356.9 379.3 356.9C379.6 356.9 379.9 356.9 380.2 357C381 355.3 382.4 353.8 384.1 352.8C385.8 351.8 387.8 351.3 389.9 351.4C391.9 351.5 393.9 352.1 395.5 353.3C397.1 354.5 398.4 356 399.1 357.8C400.1 357.3 401.1 357.1 402.2 357C403.3 357 404.4 357.1 405.4 357.5C406.4 357.9 407.3 358.5 408 359.3C408.7 360.1 409.3 361 409.6 361.9C410.3 361.5 411.1 361.2 411.9 361.2C412.7 361.1 413.5 361.2 414.3 361.5C415.1 361.8 415.8 362.2 416.4 362.7C417 363.2 417.5 363.9 417.7 364.6Z" fill="url(#paint18_linear)"/>
<path d="M394.5 374.9H386.3C386.1 374.4 385.8 373.9 385.4 373.6C385 373.3 384.5 372.9 384 372.8C383.5 372.6 382.9 372.6 382.3 372.6C381.7 372.7 381.2 372.8 380.7 373.1C380.5 372.4 380.1 371.8 379.6 371.3C379.1 370.8 378.5 370.4 377.8 370.1C377.1 369.8 376.4 369.7 375.6 369.7C374.8 369.7 374.1 369.9 373.4 370.2C372.9 369 372.1 367.9 370.9 367.1C369.8 366.3 368.4 365.9 367 365.8C365.6 365.7 364.2 366.1 363 366.8C361.8 367.5 360.9 368.5 360.3 369.7C360.1 369.7 359.9 369.7 359.7 369.7C358.7 369.7 357.8 370 357 370.5C356.2 371 355.5 371.7 355.1 372.5C354.7 372.4 354.3 372.5 353.9 372.5C353.5 372.6 353.1 372.8 352.8 373C352.5 373.2 352.2 373.5 352 373.9C351.8 374.2 351.7 374.6 351.6 375H343.9C343.7 374.6 343.7 374.1 343.7 373.7C343.7 373.2 343.8 372.6 344 372.1C344.2 371.6 344.5 371.1 345 370.8C345.4 370.4 345.9 370.1 346.4 369.9C346.9 369.7 347.5 369.6 348.1 369.6C348.3 369.6 348.6 369.6 348.8 369.6C349.5 368.3 350.6 367.2 351.9 366.5C353.3 365.8 354.8 365.5 356.4 365.7C357.2 363.9 358.6 362.5 360.4 361.5C362.1 360.5 364.2 360 366.2 360.1C368.2 360.2 370.2 360.8 371.9 362C373.5 363.1 374.8 364.7 375.5 366.5C376.5 366 377.5 365.7 378.6 365.7C379.7 365.7 380.8 365.8 381.8 366.2C382.8 366.6 383.7 367.2 384.4 368C385.1 368.8 385.7 369.7 386 370.7C386.8 370.2 387.8 369.9 388.8 369.9C389.8 369.9 390.8 370.1 391.6 370.6C392.5 371.1 393.2 371.7 393.7 372.5C394.2 373.3 394.5 374 394.5 374.9Z" fill="#EFEFF0"/>
<path d="M386.3 374.9H351.7C351.7 374.5 351.9 374.1 352.1 373.8C352.3 373.5 352.6 373.2 352.9 372.9C353.2 372.7 353.6 372.5 354 372.4C354.4 372.3 354.8 372.3 355.2 372.4C355.6 371.6 356.3 370.9 357.1 370.4C357.9 369.9 358.9 369.7 359.8 369.6C360 369.6 360.2 369.6 360.4 369.6C361 368.4 361.9 367.4 363.1 366.7C364.3 366 365.7 365.7 367.1 365.7C368.5 365.8 369.9 366.2 371 367C372.1 367.8 373 368.9 373.5 370.1C374.2 369.8 374.9 369.6 375.7 369.5C376.5 369.5 377.2 369.6 377.9 369.9C378.6 370.2 379.2 370.6 379.7 371.1C380.2 371.6 380.6 372.3 380.8 372.9C381.3 372.6 381.8 372.4 382.4 372.4C383 372.3 383.5 372.4 384.1 372.6C384.6 372.8 385.1 373.1 385.5 373.4C385.9 373.7 386.1 374.4 386.3 374.9Z" fill="url(#paint19_linear)"/>
<path d="M175.6 361H83.2998C83.3998 360 83.6998 358.9 84.2998 358C84.7998 357.1 85.4998 356.3 86.3998 355.6C87.2998 355 88.2998 354.5 89.2998 354.2C90.3998 353.9 91.4998 353.9 92.4998 354.1C93.5998 351.9 95.2998 350 97.4998 348.6C99.6998 347.3 102.2 346.6 104.8 346.6C105.4 346.6 105.9 346.6 106.5 346.7C108 343.4 110.6 340.7 113.8 338.8C117 336.9 120.7 336 124.4 336.1C128.1 336.3 131.8 337.5 134.8 339.6C137.8 341.7 140.1 344.7 141.4 348.1C143.2 347.2 145.1 346.7 147.1 346.6C149.1 346.5 151.1 346.9 152.9 347.6C154.7 348.3 156.4 349.5 157.7 350.9C159 352.3 160 354 160.6 355.9C161.9 355.1 163.3 354.7 164.9 354.5C166.4 354.3 167.9 354.5 169.4 355C170.8 355.5 172.1 356.3 173.2 357.3C174.3 358.4 175.1 359.7 175.6 361Z" fill="url(#paint20_linear)"/>
<path d="M326 359.5H268.4C268.5 358.9 268.7 358.2 269 357.7C269.3 357.1 269.8 356.6 270.3 356.3C270.8 355.9 271.5 355.6 272.1 355.5C272.8 355.3 273.5 355.3 274.1 355.4C274.8 354 275.9 352.9 277.2 352.1C278.6 351.3 280.1 350.9 281.7 350.9C282 350.9 282.4 350.9 282.7 351C283.7 349 285.2 347.3 287.2 346.2C289.2 345 291.5 344.5 293.8 344.6C296.1 344.7 298.4 345.4 300.3 346.7C302.2 348 303.6 349.8 304.4 351.9C305.5 351.3 306.7 351 308 351C309.2 350.9 310.5 351.2 311.6 351.6C312.8 352.1 313.8 352.7 314.6 353.6C315.4 354.5 316.1 355.5 316.4 356.6C317.2 356.1 318.1 355.8 319.1 355.7C320 355.6 321 355.7 321.9 356C322.8 356.3 323.6 356.8 324.3 357.4C325 358 325.7 358.7 326 359.5Z" fill="url(#paint21_linear)"/>
<path d="M590.7 323.7H533.1C533.2 323.1 533.4 322.4 533.7 321.9C534 321.3 534.5 320.8 535 320.5C535.5 320.1 536.2 319.8 536.8 319.7C537.5 319.5 538.2 319.5 538.8 319.6C539.5 318.2 540.6 317.1 541.9 316.3C543.3 315.5 544.8 315.1 546.4 315.1C546.7 315.1 547.1 315.1 547.4 315.2C548.4 313.2 549.9 311.5 551.9 310.4C553.9 309.2 556.2 308.7 558.5 308.8C560.8 308.9 563.1 309.6 565 310.9C566.9 312.2 568.3 314 569.1 316.1C570.2 315.5 571.4 315.2 572.7 315.2C573.9 315.1 575.2 315.4 576.3 315.8C577.5 316.3 578.5 316.9 579.3 317.8C580.1 318.7 580.8 319.7 581.1 320.8C581.9 320.3 582.8 320 583.8 319.9C584.7 319.8 585.7 319.9 586.6 320.2C587.5 320.5 588.3 321 589 321.6C589.9 322.1 590.4 322.9 590.7 323.7Z" fill="url(#paint22_linear)"/>
<path d="M330.5 374.3C330.5 374.9 330.4 375.5 330.1 376H252.9C252.9 374.8 253.3 373.7 254.1 372.6C254.9 371.6 256 370.7 257.3 370.2C258.6 369.7 260.1 369.3 261.6 369.4C263.1 369.4 264.6 369.8 265.9 370.4C266.4 369.2 267.2 368 268.3 367C269.4 366 270.8 365.3 272.3 364.8C273.8 364.3 275.5 364.1 277.2 364.1C278.9 364.2 280.5 364.5 282 365.1C283 362.8 284.9 360.8 287.5 359.4C290 358 293 357.1 296.1 357C299.2 356.9 302.3 357.5 305 358.8C307.7 360.1 309.8 361.9 311.1 364.2C311.6 364.2 312 364.1 312.5 364.1C314.6 364.1 316.8 364.6 318.6 365.5C320.4 366.4 321.9 367.7 322.8 369.2C323.8 369.1 324.7 369.1 325.7 369.3C326.6 369.5 327.5 369.9 328.2 370.4C328.9 370.9 329.5 371.5 329.9 372.2C330.3 372.8 330.5 373.5 330.5 374.3Z" fill="#E6E7E8"/>
<path d="M339.4 379.7H269.8C269.9 379.1 270.1 378.4 270.5 377.9C270.9 377.3 271.4 376.8 272.1 376.5C272.8 376.1 273.5 375.8 274.3 375.7C275.1 375.5 275.9 375.5 276.8 375.6C277.6 374.2 278.9 373.1 280.6 372.3C282.2 371.5 284.1 371.1 286.1 371.1C286.5 371.1 286.9 371.1 287.4 371.2C288.6 369.2 290.5 367.5 292.9 366.4C295.3 365.2 298.1 364.7 300.9 364.8C303.7 364.9 306.4 365.6 308.7 366.9C311 368.2 312.7 370 313.6 372.1C314.9 371.5 316.4 371.2 317.9 371.2C319.4 371.1 320.9 371.4 322.3 371.8C323.7 372.3 324.9 372.9 326 373.8C327 374.7 327.8 375.7 328.2 376.8C329.2 376.3 330.3 376 331.4 375.9C332.5 375.8 333.7 375.9 334.8 376.2C335.9 376.5 336.9 377 337.7 377.6C338.4 378.1 339.1 378.9 339.4 379.7Z" fill="url(#paint23_linear)"/>
<path d="M592.6 369.3H441.5C442.2 367.2 443.5 365.4 445.3 363.8C447 362.2 449.2 361 451.6 360.3C454 359.5 456.6 359.2 459.1 359.4C461.6 359.6 464.1 360.3 466.3 361.4C467.7 357.6 470.5 354.2 474.3 351.8C478.1 349.4 482.8 348.1 487.5 348.1C491.1 348.1 494.6 348.8 497.8 350.2C499.9 345.4 503.6 341.2 508.5 338.1C513.4 335.1 519.3 333.3 525.4 333.1C531.5 332.9 537.6 334.2 542.8 336.9C548 339.6 552.1 343.5 554.7 348.2C559.3 347.7 564 348.5 568.1 350.4C572.2 352.3 575.5 355.2 577.4 358.8C578.1 358.7 578.8 358.7 579.5 358.7C582.9 358.7 586.2 359.8 588.6 361.8C591 363.8 592.5 366.5 592.6 369.3Z" fill="url(#paint24_linear)"/>
<path d="M595.4 360.8H512.9C513.3 359.5 514 358.4 514.9 357.4C515.8 356.4 517 355.7 518.3 355.2C519.6 354.7 521 354.6 522.4 354.7C523.8 354.8 525.1 355.2 526.3 355.9C527 353.6 528.6 351.5 530.7 350C532.8 348.5 535.3 347.7 537.9 347.7C539.9 347.7 541.8 348.2 543.5 349C544.6 346 546.7 343.5 549.3 341.6C552 339.7 555.2 338.7 558.5 338.5C561.8 338.4 565.1 339.2 568 340.8C570.8 342.4 573.1 344.9 574.5 347.7C577 347.4 579.6 347.9 581.8 349C584 350.2 585.8 352 586.9 354.1C587.3 354 587.7 354 588 354C589.9 354 591.6 354.7 593 355.9C594.6 357.4 595.4 359 595.4 360.8Z" fill="url(#paint25_linear)"/>
<path d="M378.6 237.7C378.5 237.7 378.4 237.7 378.3 237.6L307 199C306.9 198.9 306.8 198.8 306.7 198.6C306.7 198.4 306.7 198.3 306.8 198.1C306.9 198 307 197.9 307.2 197.8C307.4 197.8 307.5 197.8 307.7 197.8L379 236.4C379.1 236.5 379.2 236.6 379.3 236.7C379.4 236.8 379.4 237 379.3 237.1C379.3 237.2 379.2 237.4 379.1 237.4C378.9 237.7 378.8 237.7 378.6 237.7Z" fill="url(#paint26_linear)"/>
<path d="M455.5 388.8V418L479.9 426.1V396.5L455.5 388.8Z" fill="url(#paint27_linear)"/>
<path d="M504.3 388.8V418L479.9 426.1V396.5L504.3 388.8Z" fill="url(#paint28_linear)"/>
<path d="M455.5 388.8L479.9 382.9L504.3 388.8L479.9 396.5L455.5 388.8Z" fill="url(#paint29_linear)"/>
<path d="M490 370.6V374.5L469.2 369.1H469.1C468.3 369.1 467.7 368.2 467.7 367.2C467.7 366.1 468.3 365.3 469.1 365.3L469.6 365.4L490 370.6Z" fill="url(#paint30_linear)"/>
<path d="M407.3 364.1L406.8 364C407 364 407.1 364 407.3 364.1Z" fill="url(#paint31_linear)"/>
<path d="M480.7 371.5H478.3V389.5H480.7V371.5Z" fill="#252324"/>
<path d="M491.401 372.6C491.401 373.7 490.801 374.5 490.001 374.5C489.201 374.5 488.601 373.6 488.601 372.6C488.601 371.5 489.201 370.7 490.001 370.7C490.801 370.7 491.401 371.5 491.401 372.6Z" fill="#100C14"/>
<path d="M480.7 389.6C480.7 389.7 480.2 389.8 479.5 389.8C478.8 389.8 478.3 389.7 478.3 389.6C478.3 389.5 478.8 389.4 479.5 389.4C480.2 389.3 480.7 389.4 480.7 389.6Z" fill="#231F20"/>
<path d="M224 397.6V427.4L248.8 403.7V378.7L224 397.6Z" fill="url(#paint32_linear)"/>
<path d="M224 397.6H185.3V427.4H224V397.6Z" fill="#00ADEF"/>
<path d="M231.2 378.7H248.8L224 397.6H177.7L192.1 378.7H231.2Z" fill="url(#paint33_linear)"/>
<path d="M202.1 363.2L234.2 363.4L228.4 384.5L195.3 383.8L202.1 363.2Z" fill="#231F20"/>
<path d="M230.5 366L226.2 381.5C226.2 381.7 226.1 381.8 225.9 381.9C225.8 382 225.7 382.1 225.6 382.1C225.5 382.1 225.3 382.2 225.2 382.2L199.9 381.6C199.7 381.6 199.6 381.6 199.5 381.5C199.4 381.4 199.2 381.3 199.2 381.2C199.1 381.1 199.1 380.9 199 380.8C199 380.6 199 380.5 199 380.3L204 365.3C204.1 365.1 204.1 365 204.3 364.9C204.4 364.8 204.5 364.7 204.6 364.7C204.7 364.7 204.8 364.6 205 364.6L229.6 364.7C229.8 364.7 229.9 364.7 230 364.8C230.1 364.9 230.3 365 230.3 365.1C230.3 365.2 230.5 365.4 230.5 365.5C230.6 365.7 230.6 365.9 230.5 366Z" fill="url(#paint34_linear)"/>
<path d="M230.5 366L226.2 381.5C226.2 381.7 226.1 381.8 225.9 381.9L204.2 364.9C204.3 364.8 204.4 364.7 204.5 364.7C204.6 364.7 204.7 364.6 204.9 364.6L229.5 364.7C229.7 364.7 229.8 364.7 229.9 364.8C230 364.9 230.2 365 230.2 365.1C230.3 365.2 230.4 365.4 230.4 365.5C230.4 365.6 230.6 365.9 230.5 366Z" fill="url(#paint35_linear)"/>
<path d="M379.9 164.2C379.9 177.3 379 190.5 377.1 203.5C377 204.2 376.9 205 376.8 205.7C376.4 208.2 376 210.7 375.6 213.2C375 216.7 374.3 220.1 373.6 223.4C373.4 224.3 373.2 225.2 373 226.1C372.9 226.5 372.8 227 372.7 227.4C372.6 227.8 372.5 228.3 372.4 228.7C372.2 229.6 372 230.4 371.8 231.3C371 234.7 370.1 238.1 369.2 241.2C369 242 368.8 242.7 368.6 243.4C366.8 249.8 364.8 255.7 362.9 261C355.8 280.7 349.2 292.1 349.2 292.1C349.2 292.1 348.4 293 343.1 294.4C340.8 295 339.2 295.4 338.2 295.6C338 295.6 337.8 295.7 337.7 295.7C337.5 295.7 337.3 295.7 337.1 295.6C336.1 295.4 334.5 295.1 332.2 294.4C326.9 293 326.1 292.1 326.1 292.1C326.1 292.1 319.5 280.7 312.4 260.9C304.1 237.6 298.8 213.3 296.6 188.6C295.9 180.8 295.5 172.7 295.5 164.2C295.5 155.5 296 146.8 297 138.2C302.7 88.4 323.4 55.7 333.1 42.7C336.2 32.6 337.2 27.5 337.5 25.6C337.5 25.6 337.5 25.5 337.6 25.5H337.7H337.8C337.8 25.5 337.8 25.6 337.9 25.6C338.1 26.5 338.4 28 339 30.4C339.7 33.2 340.7 37.3 342.3 42.7C353.7 57.8 379.9 99.8 379.9 164.2Z" fill="url(#paint36_linear)"/>
<path d="M312.6 260.8L293.5 279.4L282.8 289.9V242.5L288.6 236.6L302 223.2C304.7 236 308.2 248.6 312.6 260.8Z" fill="url(#paint37_linear)"/>
<path d="M392.8 242.5V289.9L363 260.9C367.4 248.6 370.9 236.1 373.6 223.3L392.8 242.5Z" fill="url(#paint38_linear)"/>
<path d="M381.2 265.9C381.2 291.6 391.7 309.6 391.7 309.6C392.3 310 393 310.3 393.8 310.4C394.6 310.6 395.1 310.7 395.5 310.8C395.6 310.8 395.8 310.8 395.9 310.8C396.2 310.7 396.8 310.6 397.6 310.4C398.3 310.3 399 310 399.7 309.6C399.7 309.6 410.2 291.6 410.2 265.9C410.2 248.8 404.8 236.3 400.5 229.1L399.2 227.3C398.8 226.7 398.3 226.3 397.7 226C397.1 225.7 396.4 225.5 395.8 225.5C395.1 225.5 394.5 225.7 393.9 226C393.3 226.3 392.8 226.8 392.4 227.3L391.1 229.1C386.6 236.2 381.2 248.7 381.2 265.9Z" fill="url(#paint39_linear)"/>
<path d="M336.2 143.2V194.1H327.5C317.1 194.1 306.8 192.3 297.1 188.7L296.8 188.6C296.7 188 296.7 187.5 296.7 186.9C305.7 189.9 315.1 191.4 324.6 191.4H333.4V143.2H336.2Z" fill="url(#paint40_linear)"/>
<path d="M333.3 143.2V191.4H324.6C315.1 191.4 305.7 189.9 296.7 186.9C296.1 179.6 295.8 172 295.8 164.2C295.8 155.5 296.3 146.8 297.3 138.2L301.5 139.5C309.8 142 318.3 143.3 327 143.3L333.3 143.2Z" fill="url(#paint41_linear)"/>
<path d="M336.2 194L333.3 191.4V143.2H336.2V194Z" fill="#6F7173"/>
<path d="M304.401 148H304.301C303.601 148 303.101 148.6 303.101 149.2V156.1C303.101 156.8 303.701 157.3 304.301 157.3H304.401C305.101 157.3 305.601 156.7 305.601 156.1V149.2C305.701 148.6 305.101 148 304.401 148Z" fill="url(#paint42_linear)"/>
<path d="M324.7 148H324.6C323.9 148 323.4 148.6 323.4 149.2V156.1C323.4 156.8 324 157.3 324.6 157.3H324.7C325.4 157.3 325.9 156.7 325.9 156.1V149.2C326 148.6 325.4 148 324.7 148Z" fill="url(#paint43_linear)"/>
<path d="M311.101 154.5C312.001 154.1 312.401 153.1 312.001 152.2C311.601 151.3 310.601 150.9 309.701 151.3C308.801 151.7 308.401 152.7 308.801 153.6C309.201 154.4 310.201 154.9 311.101 154.5Z" fill="url(#paint44_linear)"/>
<path d="M319.4 154.5C320.3 154.1 320.7 153.1 320.3 152.2C319.9 151.3 318.9 150.9 318 151.3C317.1 151.7 316.7 152.7 317.1 153.6C317.5 154.4 318.5 154.9 319.4 154.5Z" fill="url(#paint45_linear)"/>
<path d="M306.5 181.6C306.5 181.9 306.4 182.3 306.2 182.6C306 182.9 305.7 183.1 305.4 183.2C305.1 183.3 304.7 183.4 304.4 183.3C304.1 183.2 303.8 183.1 303.5 182.8C303.3 182.6 303.1 182.3 303 181.9C302.9 181.6 303 181.2 303.1 180.9C303.2 180.6 303.5 180.3 303.7 180.1C304 179.9 304.3 179.8 304.7 179.8C304.9 179.8 305.2 179.8 305.4 179.9C305.6 180 305.8 180.1 306 180.3C306.2 180.5 306.3 180.6 306.4 180.9C306.5 181.1 306.5 181.3 306.5 181.6Z" fill="url(#paint46_linear)"/>
<path d="M326 181.8C326.2 180.9 325.5 180 324.6 179.8C323.7 179.6 322.8 180.3 322.6 181.2C322.4 182.1 323.1 183 324 183.2C324.9 183.4 325.8 182.8 326 181.8Z" fill="url(#paint47_linear)"/>
<path d="M316.2 181.8C316.4 180.9 315.7 180 314.8 179.8C313.9 179.6 313 180.3 312.8 181.2C312.6 182.1 313.3 183 314.2 183.2C315.2 183.4 316.1 182.8 316.2 181.8Z" fill="url(#paint48_linear)"/>
<path d="M310 161.8V167.5C310 167.8 309.9 168.1 309.6 168.4C309.4 168.6 309.1 168.8 308.7 168.8H303V169.9H309.8C310.1 169.9 310.4 169.8 310.7 169.5C310.9 169.3 311.1 169 311.1 168.6V161.8H310Z" fill="url(#paint49_linear)"/>
<path d="M326 168.6H318.8C318.4 168.6 318 168.8 317.8 169C317.5 169.3 317.4 169.7 317.4 170V177.7H318.5V171.2C318.5 170.8 318.7 170.4 318.9 170.2C319.2 169.9 319.6 169.8 319.9 169.8H326V168.6Z" fill="url(#paint50_linear)"/>
<path d="M312.7 174.5H305.1C305 174.5 304.9 174.4 304.8 174.4C304.7 174.3 304.7 174.2 304.7 174.1C304.7 174 304.7 173.9 304.8 173.8C304.9 173.7 305 173.7 305.1 173.7H312.7C313 173.7 313.3 173.6 313.5 173.4C313.7 173.2 313.8 172.9 313.8 172.6V167C313.8 166.5 314 166 314.4 165.6C314.8 165.2 315.3 165 315.8 165H323.6C323.7 165 323.8 165.1 323.9 165.1C324 165.2 324 165.3 324 165.4C324 165.5 324 165.6 323.9 165.7C323.8 165.8 323.7 165.8 323.6 165.8H315.8C315.5 165.8 315.2 165.9 315 166.1C314.8 166.3 314.7 166.6 314.7 166.9V172.5C314.7 173 314.5 173.5 314.1 173.9C313.7 174.3 313.2 174.5 312.7 174.5Z" fill="url(#paint51_linear)"/>
<path d="M305.701 174.1C305.701 174.3 305.701 174.4 305.601 174.5C305.501 174.6 305.401 174.7 305.201 174.8C305.101 174.9 304.901 174.9 304.701 174.8C304.501 174.8 304.401 174.7 304.301 174.6C304.201 174.5 304.101 174.3 304.101 174.2C304.101 174 304.101 173.9 304.101 173.7C304.201 173.6 304.301 173.4 304.401 173.3C304.501 173.2 304.701 173.2 304.801 173.2C304.901 173.2 305.001 173.2 305.101 173.3C305.201 173.3 305.301 173.4 305.401 173.5C305.501 173.6 305.501 173.7 305.601 173.8C305.701 173.9 305.701 174 305.701 174.1Z" fill="url(#paint52_linear)"/>
<path d="M324.4 165.4C324.4 165.6 324.4 165.7 324.3 165.8C324.2 165.9 324.1 166 323.9 166.1C323.8 166.2 323.6 166.2 323.4 166.1C323.2 166.1 323.1 166 323 165.9C322.9 165.8 322.8 165.6 322.8 165.5C322.8 165.3 322.8 165.2 322.8 165C322.9 164.9 323 164.7 323.1 164.6C323.2 164.5 323.4 164.5 323.5 164.5C323.6 164.5 323.7 164.5 323.8 164.6C323.9 164.6 324 164.7 324.1 164.8C324.2 164.9 324.2 165 324.3 165.1C324.4 165.2 324.4 165.3 324.4 165.4Z" fill="url(#paint53_linear)"/>
<path d="M307.5 165.6C307.5 165.8 307.4 166 307.3 166.2C307.2 166.4 307 166.5 306.8 166.6C306.6 166.7 306.4 166.7 306.2 166.7C306 166.7 305.8 166.6 305.7 166.4C305.6 166.3 305.5 166.1 305.4 165.9C305.4 165.7 305.4 165.5 305.5 165.3C305.6 165.1 305.7 165 305.9 164.8C306.1 164.7 306.3 164.6 306.5 164.6C306.8 164.6 307 164.7 307.2 164.9C307.4 165.1 307.5 165.3 307.5 165.6Z" fill="url(#paint54_linear)"/>
<path d="M323.1 173.8C323.1 174 323 174.2 322.9 174.4C322.8 174.6 322.6 174.7 322.4 174.8C322.2 174.9 322 174.9 321.8 174.9C321.6 174.9 321.4 174.8 321.3 174.6C321.2 174.5 321.1 174.3 321 174.1C320.9 173.9 321 173.7 321.1 173.5C321.2 173.3 321.3 173.2 321.5 173C321.7 172.9 321.9 172.8 322.1 172.8C322.4 172.8 322.6 172.9 322.8 173.1C323 173.3 323.1 173.6 323.1 173.8Z" fill="url(#paint55_linear)"/>
<path d="M299.501 140.7C299.501 140.8 299.501 141 299.401 141.1C299.301 141.2 299.201 141.3 299.101 141.4C299.001 141.5 298.801 141.5 298.701 141.4C298.601 141.4 298.401 141.3 298.301 141.2C298.201 141.1 298.101 141 298.101 140.8C298.101 140.7 298.101 140.5 298.101 140.4C298.201 140.3 298.201 140.2 298.401 140.1C298.501 140 298.701 140 298.801 140C298.901 140 299.001 140 299.101 140.1C299.201 140.1 299.301 140.2 299.301 140.3C299.401 140.4 299.401 140.4 299.501 140.5C299.501 140.5 299.501 140.6 299.501 140.7Z" fill="url(#paint56_linear)"/>
<path d="M331.8 145.2C331.8 145.3 331.8 145.5 331.7 145.6C331.6 145.7 331.5 145.8 331.4 145.9C331.3 146 331.1 146 331 145.9C330.9 145.9 330.7 145.8 330.6 145.7C330.5 145.6 330.4 145.5 330.4 145.3C330.4 145.2 330.4 145 330.4 144.9C330.5 144.8 330.5 144.7 330.7 144.6C330.8 144.5 330.9 144.5 331.1 144.5C331.3 144.5 331.5 144.6 331.6 144.7C331.8 144.8 331.8 145 331.8 145.2Z" fill="url(#paint57_linear)"/>
<path d="M332.3 189.5C332.3 189.6 332.3 189.8 332.3 189.9C332.3 190 332.2 190.2 332.1 190.2C332 190.3 331.9 190.4 331.7 190.4C331.6 190.4 331.4 190.4 331.3 190.3C331.2 190.2 331.1 190.1 331 190C330.9 189.9 330.9 189.7 330.9 189.6C330.9 189.5 331 189.3 331 189.2C331.1 189.1 331.2 189 331.3 189C331.5 188.9 331.7 189 331.8 189C332.1 189.2 332.2 189.3 332.3 189.5Z" fill="url(#paint58_linear)"/>
<path d="M298.7 185.6C298.7 185.7 298.7 185.9 298.6 186C298.5 186.1 298.4 186.2 298.3 186.3C298.2 186.4 298 186.4 297.9 186.3C297.8 186.3 297.6 186.2 297.5 186.1C297.4 186 297.3 185.9 297.3 185.7C297.3 185.6 297.3 185.4 297.3 185.3C297.4 185.2 297.4 185.1 297.6 185C297.7 184.9 297.9 184.9 298 184.9C298.2 184.9 298.4 185 298.5 185.1C298.6 185.2 298.7 185.4 298.7 185.6Z" fill="url(#paint59_linear)"/>
<path d="M337.801 30.4C340.101 30.4 342.001 28.5 342.001 26.2C342.001 23.9 340.101 22 337.801 22C335.501 22 333.601 23.9 333.601 26.2C333.701 28.6 335.501 30.4 337.801 30.4Z" fill="#231F20"/>
<path d="M294.5 265.9C294.5 291.6 284 309.6 284 309.6C283.4 310 282.7 310.3 281.9 310.4C281.1 310.6 280.6 310.7 280.2 310.8C280.1 310.8 280.1 310.8 280 310.8C279.9 310.8 279.9 310.8 279.8 310.8C279.5 310.7 278.9 310.6 278.1 310.4C277.4 310.3 276.7 310 276 309.6C276 309.6 265.5 291.6 265.5 265.9C265.5 248.8 270.9 236.3 275.2 229.1L276.5 227.3C276.9 226.7 277.4 226.3 278 226C278.6 225.7 279.3 225.5 279.9 225.5C280.5 225.5 281.2 225.7 281.8 226C282.4 226.3 282.9 226.8 283.3 227.3L284.6 229.1C289.1 236.2 294.5 248.7 294.5 265.9Z" fill="url(#paint60_linear)"/>
<path d="M379.9 164.2C379.9 177.3 379 190.5 377.1 203.5C377 204.2 376.9 205 376.8 205.7C376.4 208.2 376 210.7 375.6 213.2C375 216.7 374.3 220.1 373.6 223.4C373.4 224.3 373.2 225.2 373 226.1C372.9 226.5 372.8 227 372.7 227.4C372.6 227.8 372.5 228.3 372.4 228.7C372.2 229.6 372 230.4 371.8 231.3C371 234.7 370.1 238.1 369.2 241.2C369 242 368.8 242.7 368.6 243.4C366.8 249.8 364.8 255.7 362.9 261C355.8 280.7 349.2 292.1 349.2 292.1C349.2 292.1 348.4 293 343.1 294.4C340.8 295 339.2 295.4 338.2 295.6C338 295.6 337.8 295.7 337.7 295.7V295.6V30.4L338.9 30.3C339.6 33.1 340.6 37.2 342.2 42.6C353.7 57.8 379.9 99.8001 379.9 164.2Z" fill="url(#paint61_linear)"/>
<path d="M350.1 268.1H344.4C343.3 268.1 342.5 269 342.5 270V275.7C342.5 276.8 343.4 277.6 344.4 277.6H350.1C351.2 277.6 352 276.7 352 275.7V270C352.1 269 351.2 268.1 350.1 268.1Z" fill="url(#paint62_linear)"/>
<path d="M349.5 273C349.5 273.5 349.4 273.9 349.1 274.3C348.8 274.7 348.5 275 348.1 275.1C347.7 275.3 347.2 275.3 346.8 275.2C346.4 275.1 346 274.9 345.6 274.6C345.3 274.3 345.1 273.9 345 273.4C344.9 273 345 272.5 345.1 272.1C345.3 271.7 345.6 271.3 345.9 271.1C346.3 270.8 346.7 270.7 347.2 270.7C347.8 270.7 348.4 270.9 348.8 271.4C349.3 271.8 349.5 272.4 349.5 273Z" fill="url(#paint63_linear)"/>
<path d="M349 117.9C356 110.9 356 99.4 349 92.4C342 85.4 330.5 85.4 323.5 92.4C316.5 99.4 316.5 110.9 323.5 117.9C330.5 124.9 341.9 124.9 349 117.9Z" fill="#EFEFF0"/>
<path d="M351.801 105C351.801 108.1 350.901 111.1 349.201 113.7C347.501 116.3 345.101 118.3 342.201 119.4C339.401 120.6 336.201 120.9 333.201 120.3C330.201 119.7 327.401 118.2 325.201 116C323.001 113.8 321.501 111 320.901 108C320.301 105 320.601 101.8 321.801 99C323.001 96.2 325.001 93.7 327.501 92C330.101 90.3 333.101 89.4 336.201 89.4C338.201 89.4 340.301 89.8 342.201 90.6C344.101 91.4 345.801 92.5 347.301 94C348.701 95.4 349.901 97.2 350.701 99.1C351.401 101 351.801 103 351.801 105Z" fill="url(#paint64_linear)"/>
<path d="M348.6 105.1C348.6 107.5 347.9 109.9 346.5 112C345.1 114 343.2 115.6 340.9 116.6C338.6 117.5 336.2 117.8 333.8 117.3C331.4 116.8 329.2 115.6 327.5 113.9C325.8 112.2 324.6 110 324.1 107.6C323.6 105.2 323.9 102.7 324.8 100.5C325.7 98.2 327.3 96.3 329.4 94.9C331.4 93.5 333.8 92.8 336.3 92.8C337.9 92.8 339.5 93.1001 341 93.7001C342.5 94.3001 343.9 95.2 345 96.4C346.1 97.5 347.1 98.9 347.7 100.4C348.3 101.9 348.6 103.5 348.6 105.1Z" fill="url(#paint65_linear)"/>
<path d="M342.8 105.9C342.8 106.3 342.7 106.7 342.5 107C342.3 107.3 342 107.6 341.6 107.7C341.2 107.8 340.9 107.9 340.5 107.8C340.1 107.7 339.8 107.5 339.5 107.3C339.2 107 339 106.7 339 106.3C338.9 105.9 339 105.5 339.1 105.2C339.2 104.8 339.5 104.5 339.8 104.3C340.1 104.1 340.5 104 340.9 104C341.4 104 341.9 104.2 342.3 104.6C342.6 104.9 342.8 105.4 342.8 105.9Z" fill="url(#paint66_linear)"/>
<path d="M339 101.3C339 101.5 338.9 101.7 338.8 101.9C338.7 102.1 338.5 102.2 338.3 102.3C338.1 102.4 337.9 102.4 337.7 102.4C337.5 102.4 337.3 102.3 337.2 102.1C337.1 102 337 101.8 336.9 101.6C336.9 101.4 336.9 101.2 337 101C337.1 100.8 337.2 100.6 337.4 100.5C337.6 100.4 337.8 100.3 338 100.3C338.1 100.3 338.3 100.3 338.4 100.4C338.5 100.5 338.6 100.5 338.7 100.6C338.8 100.7 338.9 100.8 338.9 100.9C339 101 339 101.2 339 101.3Z" fill="url(#paint67_linear)"/>
<path d="M454.2 408.3C454.1 408.3 454 408.3 454 408.3C453.8 408.3 429.4 404.4 393.3 385.3C364.4 370.1 371 336.5 375.4 314.2C376.6 309 377.4 303.8 377.8 298.5C377.8 282.1 347.9 274.1 347.6 274.1C347.5 274.1 347.3 274 347.2 273.9C347.1 273.8 347 273.7 346.9 273.6C346.8 273.5 346.8 273.4 346.8 273.3C346.8 273.2 346.8 273.1 346.9 273C347 272.9 347 272.8 347.1 272.7C347.2 272.6 347.3 272.6 347.5 272.5C347.6 272.5 347.8 272.4 347.9 272.4C348.1 272.4 348.2 272.4 348.3 272.4C353.9 274 359.2 276.1 364.1 278.7C374.5 284.3 380 291.1 380 298.4C379.7 303.7 378.9 309.1 377.6 314.3C373.3 336.1 366.7 369.1 394.5 383.8C430.2 402.6 454 406.4 454.3 406.5C454.6 406.5 454.8 406.7 455 406.8C455.2 407 455.2 407.2 455.2 407.4C455.2 407.6 455 407.8 454.8 407.9C454.7 408.2 454.4 408.3 454.2 408.3Z" fill="url(#paint68_linear)"/>
<path d="M337.5 377C323.1 360.6 328.5 335.6 328.5 335.6C325.7 342.1 312.3 344.9 312.3 344.9C309.3 333.3 322 320.4 322 320.4C319.7 324.6 308.6 326.9 308.6 326.9C308.1 315.6 328 294 328 294C328 294 337 299.3 346.5 294C346.5 294 366.4 315.5 365.9 326.9C365.9 326.9 354.8 324.6 352.5 320.4C352.5 320.4 365.2 333.4 362.2 344.9C362.2 344.9 348.8 342.1 346 335.6C346 335.6 351.3 360.6 337 377" fill="#D5D7D8"/>
<path d="M337.8 369.5C324.9 354.8 329.7 332.4 329.7 332.4C327.2 338.2 315.2 340.7 315.2 340.7C312.5 330.3 323.9 318.7 323.9 318.7C321.8 322.4 311.9 324.5 311.9 324.5C311.5 314.3 329.3 295 329.3 295C329.3 295 337.4 299.8 345.9 295C345.9 295 363.7 314.3 363.3 324.5C363.3 324.5 353.3 322.4 351.3 318.7C351.3 318.7 362.7 330.3 360 340.7C360 340.7 348 338.2 345.5 332.4C345.5 332.4 350.3 354.8 337.4 369.5" fill="url(#paint69_linear)"/>
<path d="M337.8 360.3C327.8 347.6 331.5 328.2 331.5 328.2C329.6 333.2 320.2 335.4 320.2 335.4C318.1 326.4 327 316.4 327 316.4C325.4 319.6 317.7 321.4 317.7 321.4C317.4 312.6 331.2 295.9 331.2 295.9C331.2 295.9 337.5 300 344.1 295.9C344.1 295.9 358 312.6 357.6 321.4C357.6 321.4 349.9 319.6 348.3 316.4C348.3 316.4 357.2 326.4 355.1 335.4C355.1 335.4 345.8 333.2 343.8 328.2C343.8 328.2 347.5 347.6 337.5 360.3" fill="#F1F2F2"/>
</g>
<defs>
<filter id="filter0_d" x="-30" y="-20" width="710" height="510" filterUnits="userSpaceOnUse" color-interpolation-filters="sRGB">
<feFlood flood-opacity="0" result="BackgroundImageFix"/>
<feColorMatrix in="SourceAlpha" type="matrix" values="0 0 0 0 0 0 0 0 0 0 0 0 0 0 0 0 0 0 127 0" result="hardAlpha"/>
<feOffset dy="10"/>
<feGaussianBlur stdDeviation="15"/>
<feColorMatrix type="matrix" values="0 0 0 0 0 0 0 0 0 0 0 0 0 0 0 0 0 0 0.25 0"/>
<feBlend mode="normal" in2="BackgroundImageFix" result="effect1_dropShadow"/>
<feBlend mode="normal" in="SourceGraphic" in2="effect1_dropShadow" result="shape"/>
</filter>
<linearGradient id="paint0_linear" x1="427.193" y1="324.011" x2="576.278" y2="324.011" gradientUnits="userSpaceOnUse">
<stop stop-color="#71439A"/>
<stop offset="0.8668" stop-color="#A76CAD"/>
</linearGradient>
<linearGradient id="paint1_linear" x1="415.288" y1="346.186" x2="524.07" y2="346.186" gradientUnits="userSpaceOnUse">
<stop stop-color="white"/>
<stop offset="0.999" stop-color="#E9E9EA"/>
</linearGradient>
<linearGradient id="paint2_linear" x1="79.2146" y1="311.217" x2="273.953" y2="311.217" gradientUnits="userSpaceOnUse">
<stop stop-color="#71439A"/>
<stop offset="0.8668" stop-color="#A76CAD"/>
</linearGradient>
<linearGradient id="paint3_linear" x1="204.066" y1="141.7" x2="280.502" y2="141.7" gradientUnits="userSpaceOnUse">
<stop stop-color="white"/>
<stop offset="0.999" stop-color="#EFEFF0"/>
</linearGradient>
<linearGradient id="paint4_linear" x1="165.884" y1="141.622" x2="225.559" y2="141.622" gradientUnits="userSpaceOnUse">
<stop stop-color="white"/>
<stop offset="0.999" stop-color="#E9E9EA"/>
</linearGradient>
<linearGradient id="paint5_linear" x1="273.866" y1="79.4773" x2="350.302" y2="79.4773" gradientUnits="userSpaceOnUse">
<stop stop-color="white"/>
<stop offset="0.999" stop-color="#E6E7E8"/>
</linearGradient>
<linearGradient id="paint6_linear" x1="336.985" y1="193.377" x2="396.659" y2="193.377" gradientUnits="userSpaceOnUse">
<stop stop-color="white"/>
<stop offset="0.999" stop-color="white"/>
</linearGradient>
<linearGradient id="paint7_linear" x1="150.405" y1="276.091" x2="256.32" y2="276.091" gradientUnits="userSpaceOnUse">
<stop offset="0.001" stop-color="#C0C2D1"/>
<stop offset="1" stop-color="#C4C4C4"/>
</linearGradient>
<linearGradient id="paint8_linear" x1="163.968" y1="277.787" x2="240.404" y2="277.787" gradientUnits="userSpaceOnUse">
<stop stop-color="white"/>
<stop offset="0.999" stop-color="#E6E7E8"/>
</linearGradient>
<linearGradient id="paint9_linear" x1="125.786" y1="277.71" x2="185.46" y2="277.71" gradientUnits="userSpaceOnUse">
<stop stop-color="white"/>
<stop offset="0.999" stop-color="white"/>
</linearGradient>
<linearGradient id="paint10_linear" x1="136.356" y1="180.085" x2="274.583" y2="180.085" gradientUnits="userSpaceOnUse">
<stop stop-color="white"/>
<stop offset="0.999" stop-color="#E9E9EA"/>
</linearGradient>
<linearGradient id="paint11_linear" x1="192.383" y1="214.786" x2="484.672" y2="214.786" gradientUnits="userSpaceOnUse">
<stop stop-color="#6D6E71"/>
<stop offset="1" stop-color="#58595B"/>
</linearGradient>
<linearGradient id="paint12_linear" x1="356.235" y1="353.719" x2="429.534" y2="353.719" gradientUnits="userSpaceOnUse">
<stop stop-color="#71439A"/>
<stop offset="0.8668" stop-color="#A76CAD"/>
</linearGradient>
<linearGradient id="paint13_linear" x1="410.462" y1="364.061" x2="410.966" y2="364.061" gradientUnits="userSpaceOnUse">
<stop stop-color="#0010FF"/>
<stop offset="1" stop-color="#2A44FF"/>
</linearGradient>
<linearGradient id="paint14_linear" x1="197.257" y1="215.533" x2="200.869" y2="214.038" gradientUnits="userSpaceOnUse">
<stop stop-color="#E9EAFF"/>
<stop offset="1" stop-color="#E9EBFF"/>
</linearGradient>
<linearGradient id="paint15_linear" x1="474.382" y1="216.011" x2="477.994" y2="214.515" gradientUnits="userSpaceOnUse">
<stop stop-color="#E9EAFF"/>
<stop offset="1" stop-color="#E9EBFF"/>
</linearGradient>
<linearGradient id="paint16_linear" x1="254.492" y1="346.267" x2="318.592" y2="346.267" gradientUnits="userSpaceOnUse">
<stop stop-color="#71439A"/>
<stop offset="0.8668" stop-color="#A76CAD"/>
</linearGradient>
<linearGradient id="paint17_linear" x1="123.361" y1="337.992" x2="243.954" y2="337.992" gradientUnits="userSpaceOnUse">
<stop stop-color="white"/>
<stop offset="0.999" stop-color="#E6E7E8"/>
</linearGradient>
<linearGradient id="paint18_linear" x1="367.732" y1="357.996" x2="417.739" y2="357.996" gradientUnits="userSpaceOnUse">
<stop stop-color="white"/>
<stop offset="0.999" stop-color="#E6E7E8"/>
</linearGradient>
<linearGradient id="paint19_linear" x1="351.711" y1="370.341" x2="386.332" y2="370.341" gradientUnits="userSpaceOnUse">
<stop stop-color="white"/>
<stop offset="0.999" stop-color="#E6E7E8"/>
</linearGradient>
<linearGradient id="paint20_linear" x1="83.3376" y1="348.616" x2="175.61" y2="348.616" gradientUnits="userSpaceOnUse">
<stop stop-color="#71439A"/>
<stop offset="0.8668" stop-color="#A76CAD"/>
</linearGradient>
<linearGradient id="paint21_linear" x1="268.404" y1="351.937" x2="326.006" y2="351.937" gradientUnits="userSpaceOnUse">
<stop stop-color="white"/>
<stop offset="0.999" stop-color="white"/>
</linearGradient>
<linearGradient id="paint22_linear" x1="533.11" y1="316.116" x2="590.712" y2="316.116" gradientUnits="userSpaceOnUse">
<stop stop-color="white"/>
<stop offset="0.999" stop-color="white"/>
</linearGradient>
<linearGradient id="paint23_linear" x1="269.778" y1="372.128" x2="339.437" y2="372.128" gradientUnits="userSpaceOnUse">
<stop stop-color="white"/>
<stop offset="0.999" stop-color="white"/>
</linearGradient>
<linearGradient id="paint24_linear" x1="441.522" y1="351.288" x2="592.582" y2="351.288" gradientUnits="userSpaceOnUse">
<stop stop-color="white"/>
<stop offset="0.999" stop-color="#E9E9EA"/>
</linearGradient>
<linearGradient id="paint25_linear" x1="512.957" y1="349.699" x2="595.449" y2="349.699" gradientUnits="userSpaceOnUse">
<stop stop-color="#71439A"/>
<stop offset="0.8668" stop-color="#A76CAD"/>
</linearGradient>
<linearGradient id="paint26_linear" x1="306.761" y1="217.8" x2="379.247" y2="217.8" gradientUnits="userSpaceOnUse">
<stop stop-color="#E9EAFF"/>
<stop offset="1" stop-color="#E9EBFF"/>
</linearGradient>
<linearGradient id="paint27_linear" x1="472.74" y1="408.968" x2="449.601" y2="401.172" gradientUnits="userSpaceOnUse">
<stop stop-color="#00BAFF"/>
<stop offset="1" stop-color="#AEE9FF"/>
</linearGradient>
<linearGradient id="paint28_linear" x1="479.924" y1="407.496" x2="504.339" y2="407.496" gradientUnits="userSpaceOnUse">
<stop stop-color="#00BAFF"/>
<stop offset="1" stop-color="#86DEFF"/>
</linearGradient>
<linearGradient id="paint29_linear" x1="455.506" y1="389.746" x2="504.338" y2="389.746" gradientUnits="userSpaceOnUse">
<stop stop-color="#00BAFF"/>
<stop offset="1" stop-color="#E9F9FF"/>
</linearGradient>
<linearGradient id="paint30_linear" x1="467.707" y1="369.925" x2="489.984" y2="369.925" gradientUnits="userSpaceOnUse">
<stop stop-color="#100C14"/>
<stop offset="1" stop-color="#424244"/>
</linearGradient>
<linearGradient id="paint31_linear" x1="406.801" y1="364.061" x2="407.275" y2="364.061" gradientUnits="userSpaceOnUse">
<stop stop-color="#0010FF"/>
<stop offset="1" stop-color="#2A44FF"/>
</linearGradient>
<linearGradient id="paint32_linear" x1="227.282" y1="408.562" x2="248.533" y2="395.711" gradientUnits="userSpaceOnUse">
<stop stop-color="#00BAFF"/>
<stop offset="1" stop-color="#A7E7FF"/>
</linearGradient>
<linearGradient id="paint33_linear" x1="177.692" y1="388.147" x2="248.792" y2="388.147" gradientUnits="userSpaceOnUse">
<stop stop-color="#00BAFF"/>
<stop offset="1" stop-color="#ABE8FF"/>
</linearGradient>
<linearGradient id="paint34_linear" x1="198.936" y1="373.403" x2="230.553" y2="373.403" gradientUnits="userSpaceOnUse">
<stop stop-color="#71439A"/>
<stop offset="0.8668" stop-color="#A76CAD"/>
</linearGradient>
<linearGradient id="paint35_linear" x1="204.24" y1="373.261" x2="230.552" y2="373.261" gradientUnits="userSpaceOnUse">
<stop stop-color="#E9EAFF"/>
<stop offset="1" stop-color="#D4DFFF"/>
</linearGradient>
<linearGradient id="paint36_linear" x1="295.744" y1="160.428" x2="379.948" y2="160.428" gradientUnits="userSpaceOnUse">
<stop stop-color="#00BAFF"/>
<stop offset="1" stop-color="#DCF6FF"/>
</linearGradient>
<linearGradient id="paint37_linear" x1="282.816" y1="256.558" x2="312.63" y2="256.558" gradientUnits="userSpaceOnUse">
<stop stop-color="#6ECFF5"/>
<stop offset="1" stop-color="#00BAFF"/>
</linearGradient>
<linearGradient id="paint38_linear" x1="363.058" y1="256.581" x2="392.835" y2="256.581" gradientUnits="userSpaceOnUse">
<stop stop-color="#00BAFF"/>
<stop offset="1" stop-color="#6ECFF6"/>
</linearGradient>
<linearGradient id="paint39_linear" x1="381.157" y1="268.14" x2="409.951" y2="268.14" gradientUnits="userSpaceOnUse">
<stop stop-color="#00BAFF"/>
<stop offset="1" stop-color="#99E3FF"/>
</linearGradient>
<linearGradient id="paint40_linear" x1="296.685" y1="168.609" x2="336.225" y2="168.609" gradientUnits="userSpaceOnUse">
<stop stop-color="#E3E3E3"/>
<stop offset="0.999" stop-color="#C1C1C1"/>
</linearGradient>
<linearGradient id="paint41_linear" x1="295.756" y1="164.779" x2="333.329" y2="164.779" gradientUnits="userSpaceOnUse">
<stop stop-color="#969797"/>
<stop offset="1" stop-color="#DEDFE0"/>
</linearGradient>
<linearGradient id="paint42_linear" x1="303.103" y1="152.705" x2="305.691" y2="152.705" gradientUnits="userSpaceOnUse">
<stop stop-color="#71439A"/>
<stop offset="0.8668" stop-color="#A76CAD"/>
</linearGradient>
<linearGradient id="paint43_linear" x1="323.39" y1="152.705" x2="325.978" y2="152.705" gradientUnits="userSpaceOnUse">
<stop stop-color="#71439A"/>
<stop offset="0.8668" stop-color="#A76CAD"/>
</linearGradient>
<linearGradient id="paint44_linear" x1="308.825" y1="153.561" x2="312.003" y2="152.237" gradientUnits="userSpaceOnUse">
<stop stop-color="#71439A"/>
<stop offset="0.8668" stop-color="#A76CAD"/>
</linearGradient>
<linearGradient id="paint45_linear" x1="317.12" y1="153.561" x2="320.297" y2="152.237" gradientUnits="userSpaceOnUse">
<stop stop-color="#71439A"/>
<stop offset="0.8668" stop-color="#A76CAD"/>
</linearGradient>
<linearGradient id="paint46_linear" x1="303.104" y1="181.562" x2="306.545" y2="181.562" gradientUnits="userSpaceOnUse">
<stop stop-color="#71439A"/>
<stop offset="0.8668" stop-color="#A76CAD"/>
</linearGradient>
<linearGradient id="paint47_linear" x1="323.981" y1="183.261" x2="324.532" y2="179.864" gradientUnits="userSpaceOnUse">
<stop stop-color="#71439A"/>
<stop offset="0.8668" stop-color="#A76CAD"/>
</linearGradient>
<linearGradient id="paint48_linear" x1="314.264" y1="183.261" x2="314.815" y2="179.864" gradientUnits="userSpaceOnUse">
<stop stop-color="#71439A"/>
<stop offset="0.8668" stop-color="#A76CAD"/>
</linearGradient>
<linearGradient id="paint49_linear" x1="303.103" y1="165.753" x2="311.124" y2="165.753" gradientUnits="userSpaceOnUse">
<stop stop-color="#71439A"/>
<stop offset="0.8668" stop-color="#A76CAD"/>
</linearGradient>
<linearGradient id="paint50_linear" x1="317.283" y1="173.147" x2="325.978" y2="173.147" gradientUnits="userSpaceOnUse">
<stop stop-color="#71439A"/>
<stop offset="0.8668" stop-color="#A76CAD"/>
</linearGradient>
<linearGradient id="paint51_linear" x1="304.675" y1="169.731" x2="323.994" y2="169.731" gradientUnits="userSpaceOnUse">
<stop stop-color="#71439A"/>
<stop offset="0.8668" stop-color="#A76CAD"/>
</linearGradient>
<linearGradient id="paint52_linear" x1="304.116" y1="174.062" x2="305.695" y2="174.062" gradientUnits="userSpaceOnUse">
<stop stop-color="white"/>
<stop offset="1" stop-color="white"/>
</linearGradient>
<linearGradient id="paint53_linear" x1="322.808" y1="165.358" x2="324.387" y2="165.358" gradientUnits="userSpaceOnUse">
<stop stop-color="white"/>
<stop offset="1" stop-color="white"/>
</linearGradient>
<linearGradient id="paint54_linear" x1="305.484" y1="165.587" x2="307.52" y2="165.587" gradientUnits="userSpaceOnUse">
<stop stop-color="#71439A"/>
<stop offset="0.8668" stop-color="#A76CAD"/>
</linearGradient>
<linearGradient id="paint55_linear" x1="321.113" y1="173.834" x2="323.149" y2="173.834" gradientUnits="userSpaceOnUse">
<stop stop-color="#71439A"/>
<stop offset="0.8668" stop-color="#A76CAD"/>
</linearGradient>
<linearGradient id="paint56_linear" x1="298.135" y1="140.657" x2="299.533" y2="140.657" gradientUnits="userSpaceOnUse">
<stop stop-color="white"/>
<stop offset="1" stop-color="white"/>
</linearGradient>
<linearGradient id="paint57_linear" x1="330.446" y1="145.165" x2="331.844" y2="145.165" gradientUnits="userSpaceOnUse">
<stop stop-color="white"/>
<stop offset="1" stop-color="white"/>
</linearGradient>
<linearGradient id="paint58_linear" x1="330.908" y1="189.737" x2="332.306" y2="189.737" gradientUnits="userSpaceOnUse">
<stop stop-color="white"/>
<stop offset="1" stop-color="white"/>
</linearGradient>
<linearGradient id="paint59_linear" x1="297.254" y1="185.553" x2="298.652" y2="185.553" gradientUnits="userSpaceOnUse">
<stop stop-color="white"/>
<stop offset="1" stop-color="white"/>
</linearGradient>
<linearGradient id="paint60_linear" x1="265.702" y1="268.14" x2="294.494" y2="268.14" gradientUnits="userSpaceOnUse">
<stop stop-color="#A8E7FF"/>
<stop offset="1" stop-color="#00BAFF"/>
</linearGradient>
<linearGradient id="paint61_linear" x1="337.847" y1="162.898" x2="379.949" y2="162.898" gradientUnits="userSpaceOnUse">
<stop stop-color="#6DD8FF"/>
<stop offset="0.189" stop-color="#7DDCFF"/>
<stop offset="0.476" stop-color="#4FCFFF"/>
<stop offset="1" stop-color="#00BAFF"/>
</linearGradient>
<linearGradient id="paint62_linear" x1="342.483" y1="272.927" x2="352.057" y2="272.927" gradientUnits="userSpaceOnUse">
<stop stop-color="#71439A"/>
<stop offset="0.8668" stop-color="#A76CAD"/>
</linearGradient>
<linearGradient id="paint63_linear" x1="344.987" y1="272.998" x2="349.544" y2="272.998" gradientUnits="userSpaceOnUse">
<stop stop-color="white"/>
<stop offset="1" stop-color="white"/>
</linearGradient>
<linearGradient id="paint64_linear" x1="320.63" y1="105.032" x2="351.823" y2="105.032" gradientUnits="userSpaceOnUse">
<stop stop-color="#71439A"/>
<stop offset="0.8668" stop-color="#A76CAD"/>
</linearGradient>
<linearGradient id="paint65_linear" x1="323.851" y1="105.127" x2="348.602" y2="105.127" gradientUnits="userSpaceOnUse">
<stop stop-color="#00BAFF"/>
<stop offset="1" stop-color="#3DCAFF"/>
</linearGradient>
<linearGradient id="paint66_linear" x1="338.98" y1="105.909" x2="342.822" y2="105.909" gradientUnits="userSpaceOnUse">
<stop stop-color="#E9EAFF"/>
<stop offset="1" stop-color="#E9EBFF"/>
</linearGradient>
<linearGradient id="paint67_linear" x1="336.878" y1="101.311" x2="338.979" y2="101.311" gradientUnits="userSpaceOnUse">
<stop stop-color="#E9EAFF"/>
<stop offset="1" stop-color="#E9EBFF"/>
</linearGradient>
<linearGradient id="paint68_linear" x1="346.767" y1="340.384" x2="455.309" y2="340.384" gradientUnits="userSpaceOnUse">
<stop stop-color="#71439A"/>
<stop offset="0.8668" stop-color="#A76CAD"/>
</linearGradient>
<linearGradient id="paint69_linear" x1="311.841" y1="332.238" x2="363.306" y2="332.238" gradientUnits="userSpaceOnUse">
<stop stop-color="#71439A"/>
<stop offset="0.8668" stop-color="#A76CAD"/>
</linearGradient>
</defs>
</svg>
