<svg width="601" height="450" viewBox="0 0 601 450" fill="none" xmlns="http://www.w3.org/2000/svg">
<g filter="url(#filter0_d)">
<path d="M110.2 167.1C110.2 167.1 50.9003 247.4 84.7003 285.7C118.5 324 126.7 285.7 126.7 285.7C126.7 285.7 160 271 110.2 167.1Z" fill="url(#paint0_linear)"/>
<path d="M73.1002 178.1C73.1002 178.1 31.6002 272.1 91.3002 288.9C151.1 305.7 78.5002 210.5 73.1002 178.1Z" fill="url(#paint1_linear)"/>
<path opacity="0.3" d="M108.6 285C108.6 285 90.4003 250 150.6 184.9C150.5 184.9 176.7 275.4 108.6 285Z" fill="url(#paint2_linear)"/>
<path d="M37.1004 206.4C37.1004 206.4 95.3004 224.3 116.8 271.3C138.3 318.3 80.1004 295 80.1004 295C80.1004 295 36.7004 270.1 37.1004 206.4Z" fill="url(#paint3_linear)"/>
<path opacity="0.3" d="M170 201.1C170 201.1 101.8 237.4 104.5 284.6C107.2 331.9 179.6 258.8 170 201.1Z" fill="url(#paint4_linear)"/>
<path d="M195.1 346.1L156.2 389.1H50.9L12 346.1L50.9 273.2H156.2L195.1 346.1Z" fill="#F1F2F2"/>
<path d="M195.1 346.1L156.2 389.1H50.9004C151 383 156.2 273.2 156.2 273.2L195.1 346.1Z" fill="url(#paint5_linear)"/>
<path d="M564.8 167.5H551.3V347.3H564.8V167.5Z" fill="url(#paint6_linear)"/>
<path d="M560 167.5H551.4V347.3H560V167.5Z" fill="url(#paint7_linear)"/>
<path d="M555.7 167.5H551.4V347.3H555.7V167.5Z" fill="url(#paint8_linear)"/>
<path opacity="0.3" d="M551.3 347.2H564.8V361.1C564.8 362 564.6 362.9 564.3 363.7C564 364.5 563.5 365.3 562.8 365.9C562.2 366.5 561.4 367 560.6 367.4C559.8 367.7 558.9 367.9 558 367.9C556.2 367.9 554.5 367.2 553.2 365.9C551.9 364.6 551.2 362.9 551.2 361.1V347.2H551.3Z" fill="url(#paint9_linear)"/>
<path opacity="0.8" d="M558.1 134L562.8 157.4L564.8 167.4H551.3L553.3 157.4L558.1 134Z" fill="white"/>
<path opacity="0.3" d="M551.3 352.6H564.8V347.2H551.3V352.6Z" fill="url(#paint10_linear)"/>
<path opacity="0.3" d="M558.1 134L560.7 147L555.3 147.8L558.1 134Z" fill="url(#paint11_linear)"/>
<path opacity="0.56" d="M570 160.8L560.8 340.4L574.3 341.1L583.5 161.5L570 160.8Z" fill="url(#paint12_linear)"/>
<path opacity="0.3" d="M574.8 161L565.6 340.6L574.2 341L583.4 161.4L574.8 161Z" fill="#42B5E8"/>
<path opacity="0.3" d="M579.1 161.3L569.9 340.9L574.2 341.1L583.4 161.5L579.1 161.3Z" fill="url(#paint13_linear)"/>
<path d="M583.4 161.5L569.9 160.8L570.6 146.9C570.6 146 570.9 145.1 571.2 144.4C571.6 143.6 572.1 142.9 572.8 142.3C573.5 141.7 574.2 141.2 575.1 141C575.9 140.7 576.8 140.6 577.7 140.6C578.6 140.6 579.5 140.9 580.2 141.2C581 141.6 581.7 142.1 582.3 142.8C582.9 143.5 583.4 144.2 583.6 145.1C583.9 145.9 584 146.8 584 147.7L583.4 161.5Z" fill="url(#paint14_linear)"/>
<path opacity="0.3" d="M565.8 374.2L562.3 350.5L560.8 340.4L574.3 341.1L571.8 351L565.8 374.2Z" fill="url(#paint15_linear)"/>
<path d="M583.7 156.2L570.2 155.5L569.9 160.9L583.4 161.6L583.7 156.2Z" fill="url(#paint16_linear)"/>
<path opacity="0.3" d="M565.8 374.2L563.9 361.1L569.3 360.6L565.8 374.2Z" fill="url(#paint17_linear)"/>
<path d="M525.2 157.5L511.7 158.2L520.8 337.8L534.3 337.1L525.2 157.5Z" fill="url(#paint18_linear)"/>
<path d="M520.4 157.8L511.8 158.2L520.9 337.8L529.5 337.4L520.4 157.8Z" fill="url(#paint19_linear)"/>
<path d="M516.1 158L511.8 158.2L520.9 337.8L525.2 337.6L516.1 158Z" fill="url(#paint20_linear)"/>
<path opacity="0.75" d="M511.8 158.2L525.3 157.5L524.6 143.6C524.5 141.8 523.7 140.1 522.4 138.9C521.1 137.7 519.3 137.1 517.5 137.2C515.7 137.3 514 138.1 512.8 139.4C511.6 140.7 511 142.5 511.1 144.3L511.8 158.2Z" fill="white"/>
<path opacity="0.3" d="M529.3 370.8L532.8 347.1L534.3 337L520.8 337.7L523.3 347.6L529.3 370.8Z" fill="url(#paint21_linear)"/>
<path opacity="0.3" d="M511.8 158.2L525.3 157.5L525 152.1L511.5 152.8L511.8 158.2Z" fill="url(#paint22_linear)"/>
<path opacity="0.3" d="M529.3 370.8L531.2 357.7L525.8 357.1L529.3 370.8Z" fill="url(#paint23_linear)"/>
<path d="M468.3 40L434.9 51.2L539.1 362L572.5 350.8L468.3 40Z" fill="#97DAF8"/>
<path opacity="0.3" d="M443.5 48.3L434.9 51.2L539.1 362L547.7 359.1L443.5 48.3Z" fill="url(#paint24_linear)"/>
<path opacity="0.3" d="M465.6 74L449.2 79.5L450 81.8L466.4 76.3L465.6 74Z" fill="url(#paint25_linear)"/>
<path opacity="0.3" d="M459.6 56.2001L443.2 61.7001L444 64.0001L460.4 58.5001L459.6 56.2001Z" fill="url(#paint26_linear)"/>
<path opacity="0.3" d="M471.6 91.8L455.2 97.3L456 99.6L472.4 94.1L471.6 91.8Z" fill="url(#paint27_linear)"/>
<path opacity="0.3" d="M477.5 109.6L461.1 115.1L461.9 117.4L478.3 111.9L477.5 109.6Z" fill="url(#paint28_linear)"/>
<path opacity="0.3" d="M483.5 127.3L467.1 132.8L467.9 135.1L484.3 129.6L483.5 127.3Z" fill="url(#paint29_linear)"/>
<path opacity="0.3" d="M489.5 145.1L473.1 150.6L473.9 152.9L490.3 147.4L489.5 145.1Z" fill="url(#paint30_linear)"/>
<path opacity="0.3" d="M495.4 162.9L479 168.4L479.8 170.7L496.2 165.2L495.4 162.9Z" fill="url(#paint31_linear)"/>
<path opacity="0.3" d="M501.4 180.7L485 186.2L485.8 188.5L502.2 183L501.4 180.7Z" fill="url(#paint32_linear)"/>
<path opacity="0.3" d="M507.4 198.5L491 204L491.8 206.3L508.2 200.8L507.4 198.5Z" fill="url(#paint33_linear)"/>
<path opacity="0.3" d="M513.3 216.3L496.9 221.8L497.7 224.1L514.1 218.6L513.3 216.3Z" fill="url(#paint34_linear)"/>
<path opacity="0.3" d="M519.3 234.1L502.9 239.6L503.7 241.9L520.1 236.4L519.3 234.1Z" fill="url(#paint35_linear)"/>
<path opacity="0.3" d="M525.3 251.9L508.9 257.4L509.7 259.7L526.1 254.2L525.3 251.9Z" fill="url(#paint36_linear)"/>
<path opacity="0.3" d="M531.2 269.7L514.8 275.2L515.6 277.5L532 272L531.2 269.7Z" fill="url(#paint37_linear)"/>
<path opacity="0.3" d="M537.2 287.5L520.8 293L521.6 295.3L538 289.8L537.2 287.5Z" fill="url(#paint38_linear)"/>
<path opacity="0.3" d="M543.2 305.3L526.8 310.8L527.6 313.1L544 307.6L543.2 305.3Z" fill="url(#paint39_linear)"/>
<path opacity="0.3" d="M549.1 323L532.7 328.5L533.5 330.8L549.9 325.3L549.1 323Z" fill="url(#paint40_linear)"/>
<path opacity="0.3" d="M555.1 340.8L538.7 346.3L539.5 348.6L555.9 343.1L555.1 340.8Z" fill="url(#paint41_linear)"/>
<path d="M497.6 384.1H573.4L588.5 199.3H482.5L497.6 384.1Z" fill="url(#paint42_linear)"/>
<path opacity="0.4" d="M482.5 199.3C482.5 199.3 501 320.2 573.4 384.1H497.6L482.5 199.3Z" fill="white"/>
<path d="M341.8 397.2H277.5L284.3 388.7C289.5 382.2 292.3 374.2 292.3 365.9V306.2H326.8V365.9C326.8 374.2 329.6 382.2 334.8 388.7L341.8 397.2Z" fill="url(#paint43_linear)"/>
<path d="M341.8 397.2H277.5V402.5H341.8V397.2Z" fill="url(#paint44_linear)"/>
<path d="M327 312.8V359.3L292.5 346.5V312.8H327Z" fill="url(#paint45_linear)"/>
<path d="M494.2 83V282.9H125.2V83C125.2 82.4 125.3 81.7 125.5 81.1C125.9 80 126.6 79.1 127.5 78.5C128.4 77.9 129.5 77.5 130.6 77.5H488.6C489.3 77.5 490 77.6 490.7 77.9C491.4 78.2 492 78.6 492.5 79.1C493 79.6 493.4 80.2 493.7 80.9C494 81.5 494.2 82.2 494.2 83Z" fill="#231F20"/>
<path d="M125.2 282.9H494.2V319.9C494.2 322.4 493.2 324.9 491.4 326.6C489.6 328.4 487.2 329.4 484.7 329.4H134.7C132.2 329.4 129.7 328.4 128 326.6C126.2 324.8 125.2 322.4 125.2 319.9V282.9Z" fill="url(#paint46_linear)"/>
<path d="M485.8 91.1C485.8 88.3 483.6 86.1 480.8 86.1H139C136.2 86.1 134 88.3 134 91.1V270.2C134 273 136.2 275.2 139 275.2H480.8C483.6 275.2 485.8 273 485.8 270.2V91.1Z" fill="url(#paint47_linear)"/>
<path d="M318.9 308.3C320.1 303.2 317 298.1 311.9 296.9C306.8 295.7 301.7 298.8 300.5 303.9C299.3 309 302.4 314.1 307.5 315.3C312.6 316.5 317.7 313.4 318.9 308.3Z" fill="#231F20"/>
<path opacity="0.8" d="M235 196.7H160.5C158.3 196.7 156.6 198.5 156.6 200.6V248.8C156.6 251 158.4 252.7 160.5 252.7H235C237.2 252.7 238.9 250.9 238.9 248.8V200.6C239 198.4 237.2 196.7 235 196.7Z" fill="url(#paint48_linear)"/>
<path opacity="0.9" d="M458.8 108.2H160.5C158.3 108.2 156.6 110 156.6 112.1V176.3C156.6 178.5 158.4 180.2 160.5 180.2H458.8C461 180.2 462.7 178.4 462.7 176.3V112.1C462.8 109.9 461 108.2 458.8 108.2Z" fill="url(#paint49_linear)"/>
<path opacity="0.5" d="M458.8 204.5H260.6C259.6 204.5 258.6 204.1 257.8 203.3C257.1 202.6 256.6 201.6 256.6 200.5C256.6 199.5 257 198.5 257.8 197.7C258.5 197 259.5 196.5 260.6 196.5H458.8C459.3 196.5 459.8 196.6 460.3 196.8C460.8 197 461.2 197.3 461.6 197.7C462 198.1 462.3 198.5 462.5 199C462.7 199.5 462.8 200 462.8 200.5C462.8 201 462.7 201.5 462.5 202C462.3 202.5 462 202.9 461.6 203.3C461.2 203.7 460.8 204 460.3 204.2C459.9 204.4 459.4 204.5 458.8 204.5Z" fill="url(#paint50_linear)"/>
<path opacity="0.5" d="M458.8 252.7H260.6C259.6 252.7 258.6 252.3 257.8 251.5C257.1 250.8 256.6 249.8 256.6 248.7C256.6 247.7 257 246.7 257.8 245.9C258.5 245.2 259.5 244.7 260.6 244.7H458.8C459.3 244.7 459.8 244.8 460.3 245C460.8 245.2 461.2 245.5 461.6 245.9C462 246.3 462.3 246.7 462.5 247.2C462.7 247.7 462.8 248.2 462.8 248.7C462.8 249.2 462.7 249.7 462.5 250.2C462.3 250.7 462 251.1 461.6 251.5C461.2 251.9 460.8 252.2 460.3 252.4C459.9 252.6 459.4 252.7 458.8 252.7Z" fill="url(#paint51_linear)"/>
<path opacity="0.5" d="M458.8 228.8H260.6C258.4 228.8 256.7 230.6 256.7 232.7C256.7 234.9 258.5 236.6 260.6 236.6H458.8C461 236.6 462.7 234.8 462.7 232.7C462.8 230.5 461 228.8 458.8 228.8Z" fill="url(#paint52_linear)"/>
<path opacity="0.5" d="M458.8 220.6H260.6C259.6 220.6 258.6 220.2 257.8 219.4C257.1 218.7 256.6 217.7 256.6 216.6C256.6 215.6 257 214.6 257.8 213.8C258.5 213.1 259.5 212.6 260.6 212.6H458.8C459.8 212.6 460.8 213 461.6 213.8C462.3 214.5 462.8 215.5 462.8 216.6C462.8 217.1 462.7 217.6 462.5 218.1C462.3 218.6 462 219 461.6 219.4C461.2 219.8 460.8 220.1 460.3 220.3C459.9 220.5 459.4 220.6 458.8 220.6Z" fill="url(#paint53_linear)"/>
<path opacity="0.3" d="M331.8 86.1L145.4 279.7L134 291.5V89.7C134.4 88.6 135.1 87.7 136 87.1C136.9 86.5 138 86.1 139.1 86.1H331.8Z" fill="white"/>
<path opacity="0.3" d="M454.1 86.2001L290.6 275.2H215.8L376.9 86.2001H454.1Z" fill="white"/>
<path d="M165.7 224.8H120.4V237.8H165.7V224.8Z" fill="url(#paint54_linear)"/>
<path d="M186.1 221.7H109.5C108.3 221.7 107.1 221.9 106 222.4C104.9 222.9 103.9 223.5 103 224.4C102.1 225.3 101.5 226.3 101 227.4C100.5 228.5 100.3 229.7 100.3 230.9V400.3C100.3 402.7 101.3 405.1 103 406.8C104.7 408.5 107.1 409.5 109.5 409.5H186.1C187.3 409.5 188.5 409.3 189.6 408.8C190.7 408.3 191.7 407.7 192.6 406.8C193.5 405.9 194.1 404.9 194.6 403.8C195.1 402.7 195.3 401.5 195.3 400.3V230.9C195.3 229.7 195.1 228.5 194.6 227.4C194.1 226.3 193.5 225.3 192.6 224.4C191.7 223.5 190.7 222.9 189.6 222.4C188.5 221.9 187.3 221.7 186.1 221.7ZM134.9 226.6C134.9 226.4 135 226.2 135.1 226.1C135.2 226 135.2 226 135.3 226C135.4 226 135.5 225.9 135.6 225.9H156.5C156.6 225.9 156.7 225.9 156.8 226C156.9 226 157 226.1 157 226.2C157.1 226.3 157.1 226.3 157.2 226.4C157.2 226.5 157.3 226.6 157.3 226.7C157.3 226.9 157.2 227.1 157.1 227.2C157 227.3 156.8 227.4 156.6 227.4H135.7C135.6 227.4 135.5 227.4 135.4 227.4C135.3 227.4 135.2 227.3 135.2 227.3C135.1 227.2 135.1 227.2 135 227.1C134.9 226.8 134.9 226.7 134.9 226.6ZM159.3 226.6C159.3 226.5 159.3 226.3 159.4 226.2C159.5 226.1 159.6 226 159.7 225.9C159.8 225.8 160 225.8 160.1 225.9C160.2 225.9 160.4 226 160.5 226.1C160.6 226.2 160.7 226.3 160.7 226.5C160.7 226.6 160.7 226.8 160.7 226.9C160.6 227 160.6 227.1 160.4 227.2C160.2 227.3 160.2 227.3 160 227.3C159.8 227.3 159.6 227.2 159.5 227.1C159.4 227 159.3 226.8 159.3 226.6Z" fill="#231F20"/>
<path d="M169.9 224.5C166.9 228.9 161.6 231.5 156 231.5H139.6C134 231.5 128.7 228.9 125.7 224.5H108.4C107.8 224.5 107.1 224.6 106.6 224.9C106 225.1 105.5 225.5 105 225.9C104.6 226.3 104.2 226.9 104 227.5C103.8 228.1 103.6 228.7 103.6 229.3V401.4C103.6 402 103.7 402.7 104 403.2C104.2 403.8 104.6 404.3 105 404.8C105.4 405.2 106 405.6 106.6 405.8C107.2 406 107.8 406.2 108.4 406.2H187.2C188.5 406.2 189.7 405.7 190.6 404.8C191.5 403.9 192 402.7 192 401.4V229.3C192 228.7 191.9 228 191.6 227.5C191.4 226.9 191 226.4 190.6 225.9C190.2 225.5 189.6 225.1 189 224.9C188.4 224.7 187.8 224.5 187.2 224.5H169.9Z" fill="url(#paint55_linear)"/>
<path d="M125.7 224.5C125.8 224.6 125.8 224.6 125.9 224.7C126 224.8 126.1 225 126.2 225.1C126.3 225.2 126.4 225.3 126.5 225.5C126.6 225.6 126.7 225.7 126.8 225.9C126.9 226 127 226.1 127.1 226.3C127.2 226.4 127.3 226.5 127.4 226.6C127.5 226.7 127.6 226.8 127.8 226.9C128 227.1 128.3 227.3 128.5 227.5C128.6 227.6 128.7 227.7 128.9 227.8L129.3 228.1C129.4 228.2 129.6 228.3 129.7 228.4C129.8 228.5 130 228.6 130.1 228.7C130.2 228.8 130.4 228.9 130.5 229C130.8 229.2 131.1 229.3 131.4 229.5C131.5 229.6 131.7 229.6 131.8 229.7C131.9 229.8 132.1 229.8 132.2 229.9C132.3 230 132.5 230 132.7 230.1C133 230.2 133.3 230.3 133.6 230.5C133.8 230.6 133.9 230.6 134.1 230.7C134.3 230.8 134.5 230.8 134.8 230.9H134.9C135.1 231 135.4 231 135.6 231.1C135.8 231.1 135.9 231.2 136.1 231.2C136.3 231.2 136.4 231.3 136.6 231.3C136.7 231.3 136.7 231.3 136.8 231.3C136.9 231.3 137 231.3 137.1 231.3C137.2 231.3 137.3 231.3 137.4 231.3H137.7C137.8 231.3 138 231.3 138.1 231.3C138.4 231.3 138.7 231.3 139 231.4C139.2 231.4 139.5 231.4 139.7 231.4H156.1C156.3 231.4 156.5 231.4 156.7 231.4C157 231.4 157.2 231.4 157.5 231.4C157.7 231.4 157.9 231.4 158 231.3C158.1 231.3 158.2 231.3 158.3 231.3C158.4 231.3 158.6 231.3 158.7 231.2C158.9 231.2 159.1 231.1 159.3 231.1C159.5 231.1 159.7 231 159.9 231C160.1 231 160.3 230.9 160.5 230.8C160.7 230.7 160.9 230.7 161.1 230.6C161.3 230.5 161.5 230.5 161.8 230.4C162 230.3 162.1 230.3 162.3 230.2C162.4 230.1 162.6 230.1 162.7 230C163.1 229.8 163.5 229.7 163.9 229.5C164 229.4 164.2 229.3 164.3 229.3C164.4 229.3 164.6 229.1 164.7 229.1C164.8 229 165 228.9 165.1 228.9C165.2 228.8 165.4 228.7 165.5 228.6C165.6 228.5 165.7 228.4 165.9 228.3C166 228.2 166.2 228.1 166.3 228C166.5 227.8 166.7 227.7 166.9 227.5C167.1 227.3 167.3 227.2 167.4 227C167.5 226.9 167.6 226.8 167.7 226.7C167.8 226.6 168 226.5 168.1 226.3C168.2 226.2 168.3 226 168.5 225.9C168.6 225.8 168.7 225.7 168.8 225.6C168.9 225.5 169 225.3 169.1 225.2C169.3 224.9 169.5 224.7 169.7 224.4L125.7 224.5ZM157 227.1C156.9 227.2 156.9 227.2 156.8 227.3C156.7 227.3 156.6 227.4 156.5 227.4H135.6C135.5 227.4 135.4 227.4 135.3 227.4C135.2 227.4 135.1 227.3 135.1 227.3C135 227.2 135 227.2 134.9 227.1C134.9 227 134.8 226.9 134.8 226.8C134.8 226.6 134.9 226.4 135 226.3C135.1 226.2 135.1 226.2 135.2 226.1C135.3 226.1 135.4 226 135.5 226H156.4C156.6 226 156.8 226.1 156.9 226.2C157 226.3 157.1 226.5 157.1 226.7C157.1 226.8 157.1 226.9 157 227C156.9 227.1 157.1 227 157 227.1ZM160 227.3C159.9 227.3 159.7 227.3 159.6 227.2C159.5 227.1 159.4 227 159.3 226.9C159.2 226.8 159.2 226.6 159.3 226.5C159.3 226.4 159.4 226.2 159.5 226.1C159.6 226 159.7 225.9 159.9 225.9C160 225.9 160.2 225.9 160.3 225.9C160.4 226 160.5 226 160.6 226.2C160.7 226.3 160.7 226.4 160.7 226.6C160.7 226.7 160.7 226.8 160.6 226.9C160.6 227 160.5 227.1 160.5 227.1C160.4 227.2 160.4 227.2 160.3 227.2C160.2 227.2 160.1 227.3 160 227.3Z" fill="#231F20"/>
<path opacity="0.9" d="M184.1 235.7H111.5C110.6 235.7 109.9 236.4 109.9 237.3V269.4C109.9 270.3 110.6 271 111.5 271H184.1C185 271 185.7 270.3 185.7 269.4V237.3C185.8 236.4 185 235.7 184.1 235.7Z" fill="url(#paint56_linear)"/>
<path opacity="0.5" d="M131.5 280.7H111.5C110.6 280.7 109.9 281.4 109.9 282.3V302.3C109.9 303.2 110.6 303.9 111.5 303.9H131.5C132.4 303.9 133.1 303.2 133.1 302.3V282.3C133.2 281.4 132.4 280.7 131.5 280.7Z" fill="url(#paint57_linear)"/>
<path opacity="0.5" d="M184.4 313.5H164.4C163.5 313.5 162.8 314.2 162.8 315.1V335.1C162.8 336 163.5 336.7 164.4 336.7H184.4C185.3 336.7 186 336 186 335.1V315.1C186 314.2 185.3 313.5 184.4 313.5Z" fill="url(#paint58_linear)"/>
<path opacity="0.5" d="M131.5 345H111.5C110.6 345 109.9 345.7 109.9 346.6V366.6C109.9 367.5 110.6 368.2 111.5 368.2H131.5C132.4 368.2 133.1 367.5 133.1 366.6V346.6C133.2 345.7 132.4 345 131.5 345Z" fill="url(#paint59_linear)"/>
<path opacity="0.5" d="M184.4 345H164.4C163.5 345 162.8 345.7 162.8 346.6V366.6C162.8 367.5 163.5 368.2 164.4 368.2H184.4C185.3 368.2 186 367.5 186 366.6V346.6C186 345.7 185.3 345 184.4 345Z" fill="url(#paint60_linear)"/>
<path opacity="0.5" d="M157.9 345H137.9C137 345 136.3 345.7 136.3 346.6V366.6C136.3 367.5 137 368.2 137.9 368.2H157.9C158.8 368.2 159.5 367.5 159.5 366.6V346.6C159.6 345.7 158.9 345 157.9 345Z" fill="url(#paint61_linear)"/>
<g opacity="0.5">
<path opacity="0.5" d="M184.1 283.9H141.3C140.9 283.9 140.4 283.7 140.1 283.4C139.8 283.1 139.6 282.7 139.6 282.2C139.6 281.8 139.8 281.3 140.1 281C140.4 280.7 140.8 280.5 141.3 280.5H184.1C184.3 280.5 184.5 280.5 184.7 280.6C184.9 280.7 185.1 280.8 185.2 281C185.4 281.2 185.5 281.3 185.6 281.5C185.7 281.7 185.7 281.9 185.7 282.1C185.7 282.3 185.7 282.5 185.6 282.7C185.5 282.9 185.4 283.1 185.2 283.2C185 283.4 184.9 283.5 184.7 283.6C184.5 283.8 184.3 283.9 184.1 283.9Z" fill="url(#paint62_linear)"/>
<path opacity="0.5" d="M184.1 304H141.3C140.9 304 140.4 303.8 140.1 303.5C139.8 303.2 139.6 302.8 139.6 302.3C139.6 301.9 139.8 301.4 140.1 301.1C140.4 300.8 140.8 300.6 141.3 300.6H184.1C184.3 300.6 184.5 300.6 184.7 300.7C184.9 300.8 185.1 300.9 185.2 301.1C185.4 301.3 185.5 301.4 185.6 301.6C185.7 301.8 185.7 302 185.7 302.2C185.7 302.4 185.7 302.6 185.6 302.8C185.5 303 185.4 303.2 185.2 303.3C185 303.5 184.9 303.6 184.7 303.7C184.5 303.9 184.3 304 184.1 304Z" fill="url(#paint63_linear)"/>
<path opacity="0.5" d="M184.1 297.3H141.3C140.9 297.3 140.4 297.1 140.1 296.8C139.8 296.5 139.6 296.1 139.6 295.6C139.6 295.2 139.8 294.7 140.1 294.4C140.4 294.1 140.8 293.9 141.3 293.9H184.1C184.3 293.9 184.5 293.9 184.7 294C184.9 294.1 185.1 294.2 185.2 294.4C185.4 294.6 185.5 294.7 185.6 294.9C185.7 295.1 185.7 295.3 185.7 295.5C185.7 295.7 185.7 295.9 185.6 296.1C185.5 296.3 185.4 296.5 185.2 296.6C185 296.8 184.9 296.9 184.7 297C184.5 297.2 184.3 297.3 184.1 297.3Z" fill="url(#paint64_linear)"/>
<path opacity="0.5" d="M184.1 287.3H141.3C140.4 287.3 139.7 288 139.7 288.9C139.7 289.8 140.4 290.5 141.3 290.5H184.1C185 290.5 185.7 289.8 185.7 288.9C185.8 288 185 287.3 184.1 287.3Z" fill="url(#paint65_linear)"/>
</g>
<g opacity="0.5">
<path opacity="0.5" d="M154.6 316.8H111.8C111.4 316.8 110.9 316.6 110.6 316.3C110.3 316 110.1 315.6 110.1 315.1C110.1 314.9 110.1 314.7 110.2 314.5C110.3 314.3 110.4 314.1 110.6 314C110.8 313.8 110.9 313.7 111.1 313.6C111.3 313.5 111.5 313.5 111.7 313.5H154.5C154.9 313.5 155.4 313.7 155.7 314C156 314.3 156.2 314.7 156.2 315.2C156.2 315.6 156 316.1 155.7 316.4C155.4 316.6 155 316.8 154.6 316.8Z" fill="url(#paint66_linear)"/>
<path opacity="0.5" d="M154.6 336.9H111.8C111.6 336.9 111.4 336.9 111.2 336.8C111 336.7 110.8 336.6 110.7 336.4C110.5 336.2 110.4 336.1 110.3 335.9C110.2 335.7 110.2 335.5 110.2 335.3C110.2 335.1 110.2 334.9 110.3 334.7C110.4 334.5 110.5 334.3 110.7 334.2C110.9 334 111 333.9 111.2 333.8C111.4 333.7 111.6 333.7 111.8 333.7H154.6C155 333.7 155.5 333.9 155.8 334.2C156.1 334.5 156.3 334.9 156.3 335.4C156.3 335.8 156.1 336.3 155.8 336.6C155.4 336.7 155 336.9 154.6 336.9Z" fill="url(#paint67_linear)"/>
<path opacity="0.5" d="M154.6 330.2H111.8C111.6 330.2 111.4 330.2 111.2 330.1C111 330 110.8 329.9 110.7 329.7C110.5 329.5 110.4 329.4 110.3 329.2C110.2 329 110.2 328.8 110.2 328.6C110.2 328.2 110.4 327.7 110.7 327.4C111 327.1 111.4 326.9 111.9 326.9H154.7C155.1 326.9 155.6 327.1 155.9 327.4C156.2 327.7 156.4 328.1 156.4 328.6C156.4 329 156.2 329.5 155.9 329.8C155.4 330 155 330.2 154.6 330.2Z" fill="url(#paint68_linear)"/>
<path opacity="0.5" d="M154.6 323.5H111.8C111.6 323.5 111.4 323.5 111.2 323.4C111 323.3 110.8 323.2 110.7 323C110.5 322.8 110.4 322.7 110.3 322.5C110.2 322.3 110.2 322.1 110.2 321.9C110.2 321.5 110.4 321 110.7 320.7C111 320.4 111.4 320.2 111.9 320.2H154.7C155.1 320.2 155.6 320.4 155.9 320.7C156.2 321 156.4 321.4 156.4 321.9C156.4 322.3 156.2 322.8 155.9 323.1C155.4 323.3 155 323.5 154.6 323.5Z" fill="url(#paint69_linear)"/>
</g>
</g>
<defs>
<filter id="filter0_d" x="-12" y="-8" width="624" height="474" filterUnits="userSpaceOnUse" color-interpolation-filters="sRGB">
<feFlood flood-opacity="0" result="BackgroundImageFix"/>
<feColorMatrix in="SourceAlpha" type="matrix" values="0 0 0 0 0 0 0 0 0 0 0 0 0 0 0 0 0 0 127 0" result="hardAlpha"/>
<feOffset dy="4"/>
<feGaussianBlur stdDeviation="6"/>
<feColorMatrix type="matrix" values="0 0 0 0 0 0 0 0 0 0 0 0 0 0 0 0 0 0 0.3 0"/>
<feBlend mode="normal" in2="BackgroundImageFix" result="effect1_dropShadow"/>
<feBlend mode="normal" in="SourceGraphic" in2="effect1_dropShadow" result="shape"/>
</filter>
<linearGradient id="paint0_linear" x1="95.9076" y1="300.773" x2="125.847" y2="166.666" gradientUnits="userSpaceOnUse">
<stop stop-color="#71439A"/>
<stop offset="0.8668" stop-color="#A76CAD"/>
</linearGradient>
<linearGradient id="paint1_linear" x1="79.5726" y1="289.597" x2="103.204" y2="177.531" gradientUnits="userSpaceOnUse">
<stop stop-color="#71439A"/>
<stop offset="0.8668" stop-color="#A76CAD"/>
</linearGradient>
<linearGradient id="paint2_linear" x1="100.605" y1="218.153" x2="143.754" y2="243.127" gradientUnits="userSpaceOnUse">
<stop stop-color="#2269F9"/>
<stop offset="1" stop-color="#165BCB"/>
</linearGradient>
<linearGradient id="paint3_linear" x1="73.2605" y1="300.245" x2="84.5088" y2="203.61" gradientUnits="userSpaceOnUse">
<stop stop-color="#71439A"/>
<stop offset="0.8668" stop-color="#A76CAD"/>
</linearGradient>
<linearGradient id="paint4_linear" x1="173.815" y1="233.868" x2="107.399" y2="271.757" gradientUnits="userSpaceOnUse">
<stop stop-color="#2269F9"/>
<stop offset="1" stop-color="#165BCB"/>
</linearGradient>
<linearGradient id="paint5_linear" x1="121.196" y1="389.231" x2="131.197" y2="269.738" gradientUnits="userSpaceOnUse">
<stop stop-color="#71439A"/>
<stop offset="0.8668" stop-color="#A76CAD"/>
</linearGradient>
<linearGradient id="paint6_linear" x1="2461.97" y1="637.881" x2="2431.69" y2="631.828" gradientUnits="userSpaceOnUse">
<stop stop-color="#71439A"/>
<stop offset="0.8668" stop-color="#A76CAD"/>
</linearGradient>
<linearGradient id="paint7_linear" x1="3840.91" y1="-475.118" x2="3868.71" y2="-481.315" gradientUnits="userSpaceOnUse">
<stop stop-color="#71439A"/>
<stop offset="0.8668" stop-color="#A76CAD"/>
</linearGradient>
<linearGradient id="paint8_linear" x1="3384.97" y1="130.513" x2="3389.04" y2="130.331" gradientUnits="userSpaceOnUse">
<stop stop-color="#71439A"/>
<stop offset="0.8668" stop-color="#A76CAD"/>
</linearGradient>
<linearGradient id="paint9_linear" x1="80.0356" y1="-2932.04" x2="85.0221" y2="-2897.76" gradientUnits="userSpaceOnUse">
<stop stop-color="#2269F9"/>
<stop offset="1" stop-color="#165BCB"/>
</linearGradient>
<linearGradient id="paint10_linear" x1="-1716.11" y1="349.931" x2="-1729.6" y2="349.931" gradientUnits="userSpaceOnUse">
<stop stop-color="#2269F9"/>
<stop offset="1" stop-color="#165BCB"/>
</linearGradient>
<linearGradient id="paint11_linear" x1="572.956" y1="316.527" x2="574.704" y2="336.298" gradientUnits="userSpaceOnUse">
<stop stop-color="#2269F9"/>
<stop offset="1" stop-color="#165BCB"/>
</linearGradient>
<linearGradient id="paint12_linear" x1="-213.371" y1="210.968" x2="-351.182" y2="203.954" gradientUnits="userSpaceOnUse">
<stop stop-color="white"/>
<stop offset="1" stop-color="#2BC5F4"/>
</linearGradient>
<linearGradient id="paint13_linear" x1="-187.158" y1="212.17" x2="-256.776" y2="208.614" gradientUnits="userSpaceOnUse">
<stop stop-color="white"/>
<stop offset="1" stop-color="#00BAFF"/>
</linearGradient>
<linearGradient id="paint14_linear" x1="420.816" y1="-1000.12" x2="425.467" y2="-965.769" gradientUnits="userSpaceOnUse">
<stop stop-color="#71439A"/>
<stop offset="0.8668" stop-color="#A76CAD"/>
</linearGradient>
<linearGradient id="paint15_linear" x1="-32.5145" y1="199.403" x2="-17.5125" y2="203.342" gradientUnits="userSpaceOnUse">
<stop stop-color="#2269F9"/>
<stop offset="1" stop-color="#165BCB"/>
</linearGradient>
<linearGradient id="paint16_linear" x1="2810.54" y1="271.923" x2="2824.26" y2="272.62" gradientUnits="userSpaceOnUse">
<stop stop-color="#71439A"/>
<stop offset="0.8668" stop-color="#A76CAD"/>
</linearGradient>
<linearGradient id="paint17_linear" x1="2827.8" y1="367.355" x2="2833.22" y2="367.355" gradientUnits="userSpaceOnUse">
<stop stop-color="#2269F9"/>
<stop offset="1" stop-color="#165BCB"/>
</linearGradient>
<linearGradient id="paint18_linear" x1="3049.47" y1="618.425" x2="3019.06" y2="613.962" gradientUnits="userSpaceOnUse">
<stop stop-color="#71439A"/>
<stop offset="0.8668" stop-color="#A76CAD"/>
</linearGradient>
<linearGradient id="paint19_linear" x1="3382.25" y1="-543.122" x2="3409.62" y2="-550.688" gradientUnits="userSpaceOnUse">
<stop stop-color="#71439A"/>
<stop offset="0.8668" stop-color="#A76CAD"/>
</linearGradient>
<linearGradient id="paint20_linear" x1="3367.96" y1="-30.3933" x2="3372.06" y2="-30.793" gradientUnits="userSpaceOnUse">
<stop stop-color="#71439A"/>
<stop offset="0.8668" stop-color="#A76CAD"/>
</linearGradient>
<linearGradient id="paint21_linear" x1="2240.14" y1="802.66" x2="2255.13" y2="806.599" gradientUnits="userSpaceOnUse">
<stop stop-color="#2269F9"/>
<stop offset="1" stop-color="#165BCB"/>
</linearGradient>
<linearGradient id="paint22_linear" x1="-1832.1" y1="274.689" x2="-1845.82" y2="275.387" gradientUnits="userSpaceOnUse">
<stop stop-color="#2269F9"/>
<stop offset="1" stop-color="#165BCB"/>
</linearGradient>
<linearGradient id="paint23_linear" x1="2865.83" y1="364.027" x2="2871.26" y2="364.027" gradientUnits="userSpaceOnUse">
<stop stop-color="#2269F9"/>
<stop offset="1" stop-color="#165BCB"/>
</linearGradient>
<linearGradient id="paint24_linear" x1="622.712" y1="167.87" x2="611.68" y2="171.002" gradientUnits="userSpaceOnUse">
<stop stop-color="#2269F9"/>
<stop offset="1" stop-color="#165BCB"/>
</linearGradient>
<linearGradient id="paint25_linear" x1="2802.08" y1="-708.609" x2="2818.4" y2="-714.086" gradientUnits="userSpaceOnUse">
<stop stop-color="#2269F9"/>
<stop offset="1" stop-color="#165BCB"/>
</linearGradient>
<linearGradient id="paint26_linear" x1="2807.41" y1="-730.19" x2="2823.74" y2="-735.667" gradientUnits="userSpaceOnUse">
<stop stop-color="#2269F9"/>
<stop offset="1" stop-color="#165BCB"/>
</linearGradient>
<linearGradient id="paint27_linear" x1="2796.72" y1="-687.018" x2="2813.04" y2="-692.494" gradientUnits="userSpaceOnUse">
<stop stop-color="#2269F9"/>
<stop offset="1" stop-color="#165BCB"/>
</linearGradient>
<linearGradient id="paint28_linear" x1="2791.38" y1="-665.427" x2="2807.7" y2="-670.903" gradientUnits="userSpaceOnUse">
<stop stop-color="#2269F9"/>
<stop offset="1" stop-color="#165BCB"/>
</linearGradient>
<linearGradient id="paint29_linear" x1="2786.03" y1="-643.851" x2="2802.36" y2="-649.327" gradientUnits="userSpaceOnUse">
<stop stop-color="#2269F9"/>
<stop offset="1" stop-color="#165BCB"/>
</linearGradient>
<linearGradient id="paint30_linear" x1="2781.02" y1="-621.921" x2="2797.35" y2="-627.398" gradientUnits="userSpaceOnUse">
<stop stop-color="#2269F9"/>
<stop offset="1" stop-color="#165BCB"/>
</linearGradient>
<linearGradient id="paint31_linear" x1="2775.34" y1="-600.672" x2="2791.67" y2="-606.148" gradientUnits="userSpaceOnUse">
<stop stop-color="#2269F9"/>
<stop offset="1" stop-color="#165BCB"/>
</linearGradient>
<linearGradient id="paint32_linear" x1="2770.28" y1="-578.959" x2="2786.59" y2="-584.43" gradientUnits="userSpaceOnUse">
<stop stop-color="#2269F9"/>
<stop offset="1" stop-color="#165BCB"/>
</linearGradient>
<linearGradient id="paint33_linear" x1="2764.75" y1="-557.191" x2="2781.07" y2="-562.662" gradientUnits="userSpaceOnUse">
<stop stop-color="#2269F9"/>
<stop offset="1" stop-color="#165BCB"/>
</linearGradient>
<linearGradient id="paint34_linear" x1="2759.41" y1="-535.603" x2="2775.73" y2="-541.074" gradientUnits="userSpaceOnUse">
<stop stop-color="#2269F9"/>
<stop offset="1" stop-color="#165BCB"/>
</linearGradient>
<linearGradient id="paint35_linear" x1="2753.9" y1="-514.542" x2="2770.2" y2="-520.014" gradientUnits="userSpaceOnUse">
<stop stop-color="#2269F9"/>
<stop offset="1" stop-color="#165BCB"/>
</linearGradient>
<linearGradient id="paint36_linear" x1="2748.74" y1="-493.019" x2="2765.05" y2="-498.491" gradientUnits="userSpaceOnUse">
<stop stop-color="#2269F9"/>
<stop offset="1" stop-color="#165BCB"/>
</linearGradient>
<linearGradient id="paint37_linear" x1="2743.38" y1="-470.857" x2="2759.69" y2="-476.328" gradientUnits="userSpaceOnUse">
<stop stop-color="#2269F9"/>
<stop offset="1" stop-color="#165BCB"/>
</linearGradient>
<linearGradient id="paint38_linear" x1="2737.87" y1="-449.689" x2="2754.2" y2="-455.167" gradientUnits="userSpaceOnUse">
<stop stop-color="#2269F9"/>
<stop offset="1" stop-color="#165BCB"/>
</linearGradient>
<linearGradient id="paint39_linear" x1="2732.57" y1="-427.994" x2="2748.89" y2="-433.471" gradientUnits="userSpaceOnUse">
<stop stop-color="#2269F9"/>
<stop offset="1" stop-color="#165BCB"/>
</linearGradient>
<linearGradient id="paint40_linear" x1="2727.35" y1="-406.016" x2="2743.68" y2="-411.493" gradientUnits="userSpaceOnUse">
<stop stop-color="#2269F9"/>
<stop offset="1" stop-color="#165BCB"/>
</linearGradient>
<linearGradient id="paint41_linear" x1="2721.84" y1="-384.938" x2="2738.16" y2="-390.416" gradientUnits="userSpaceOnUse">
<stop stop-color="#2269F9"/>
<stop offset="1" stop-color="#165BCB"/>
</linearGradient>
<linearGradient id="paint42_linear" x1="511.855" y1="380.244" x2="545.608" y2="194.537" gradientUnits="userSpaceOnUse">
<stop stop-color="#75DAFF"/>
<stop offset="1" stop-color="#00BAFF"/>
</linearGradient>
<linearGradient id="paint43_linear" x1="277.566" y1="351.657" x2="341.825" y2="351.657" gradientUnits="userSpaceOnUse">
<stop stop-color="white"/>
<stop offset="1" stop-color="#D8D9DA"/>
</linearGradient>
<linearGradient id="paint44_linear" x1="309.417" y1="363.992" x2="309.749" y2="407.064" gradientUnits="userSpaceOnUse">
<stop stop-color="white"/>
<stop offset="1" stop-color="#48494A"/>
</linearGradient>
<linearGradient id="paint45_linear" x1="308.329" y1="292.154" x2="309.518" y2="324.97" gradientUnits="userSpaceOnUse">
<stop stop-color="white"/>
<stop offset="1" stop-color="#979899"/>
</linearGradient>
<linearGradient id="paint46_linear" x1="308.278" y1="204.965" x2="309.738" y2="304.429" gradientUnits="userSpaceOnUse">
<stop stop-color="white"/>
<stop offset="1" stop-color="#DEDFE0"/>
</linearGradient>
<linearGradient id="paint47_linear" x1="304.585" y1="275.082" x2="315.514" y2="79.9216" gradientUnits="userSpaceOnUse">
<stop stop-color="#75DAFF"/>
<stop offset="1" stop-color="#00BAFF"/>
</linearGradient>
<linearGradient id="paint48_linear" x1="197.251" y1="210.257" x2="212.994" y2="633.981" gradientUnits="userSpaceOnUse">
<stop stop-color="white"/>
<stop offset="1" stop-color="#2166F0"/>
</linearGradient>
<linearGradient id="paint49_linear" x1="309.939" y1="200.374" x2="311.823" y2="624.983" gradientUnits="userSpaceOnUse">
<stop stop-color="white"/>
<stop offset="1" stop-color="#2166F0"/>
</linearGradient>
<linearGradient id="paint50_linear" x1="359.765" y1="300.449" x2="359.786" y2="348.669" gradientUnits="userSpaceOnUse">
<stop stop-color="white"/>
<stop offset="1" stop-color="#2166F0"/>
</linearGradient>
<linearGradient id="paint51_linear" x1="359.749" y1="305.538" x2="359.77" y2="353.761" gradientUnits="userSpaceOnUse">
<stop stop-color="white"/>
<stop offset="1" stop-color="#2166F0"/>
</linearGradient>
<linearGradient id="paint52_linear" x1="359.755" y1="303.84" x2="359.776" y2="352.06" gradientUnits="userSpaceOnUse">
<stop stop-color="white"/>
<stop offset="1" stop-color="#2166F0"/>
</linearGradient>
<linearGradient id="paint53_linear" x1="359.759" y1="302.144" x2="359.78" y2="350.364" gradientUnits="userSpaceOnUse">
<stop stop-color="white"/>
<stop offset="1" stop-color="#2166F0"/>
</linearGradient>
<linearGradient id="paint54_linear" x1="143.004" y1="221.699" x2="142.955" y2="210.347" gradientUnits="userSpaceOnUse">
<stop stop-color="white"/>
<stop offset="1" stop-color="#00BAFF"/>
</linearGradient>
<linearGradient id="paint55_linear" x1="129.121" y1="402.61" x2="167.765" y2="222.28" gradientUnits="userSpaceOnUse">
<stop stop-color="#75DAFF"/>
<stop offset="1" stop-color="#00BAFF"/>
</linearGradient>
<linearGradient id="paint56_linear" x1="147.141" y1="214.516" x2="154.544" y2="639.523" gradientUnits="userSpaceOnUse">
<stop stop-color="white"/>
<stop offset="1" stop-color="#2166F0"/>
</linearGradient>
<linearGradient id="paint57_linear" x1="140.648" y1="400.841" x2="159.687" y2="508.873" gradientUnits="userSpaceOnUse">
<stop stop-color="white"/>
<stop offset="1" stop-color="#2166F0"/>
</linearGradient>
<linearGradient id="paint58_linear" x1="186.411" y1="393.603" x2="205.427" y2="501.613" gradientUnits="userSpaceOnUse">
<stop stop-color="white"/>
<stop offset="1" stop-color="#2166F0"/>
</linearGradient>
<linearGradient id="paint59_linear" x1="129.855" y1="403.983" x2="148.87" y2="512.017" gradientUnits="userSpaceOnUse">
<stop stop-color="white"/>
<stop offset="1" stop-color="#2166F0"/>
</linearGradient>
<linearGradient id="paint60_linear" x1="181.126" y1="395.128" x2="200.141" y2="503.16" gradientUnits="userSpaceOnUse">
<stop stop-color="white"/>
<stop offset="1" stop-color="#2166F0"/>
</linearGradient>
<linearGradient id="paint61_linear" x1="155.5" y1="399.552" x2="174.539" y2="507.584" gradientUnits="userSpaceOnUse">
<stop stop-color="white"/>
<stop offset="1" stop-color="#2166F0"/>
</linearGradient>
<linearGradient id="paint62_linear" x1="162.708" y1="288.926" x2="162.999" y2="668.957" gradientUnits="userSpaceOnUse">
<stop stop-color="white"/>
<stop offset="1" stop-color="#2166F0"/>
</linearGradient>
<linearGradient id="paint63_linear" x1="162.693" y1="290.253" x2="162.984" y2="670.279" gradientUnits="userSpaceOnUse">
<stop stop-color="white"/>
<stop offset="1" stop-color="#2166F0"/>
</linearGradient>
<linearGradient id="paint64_linear" x1="162.698" y1="289.812" x2="162.989" y2="669.839" gradientUnits="userSpaceOnUse">
<stop stop-color="white"/>
<stop offset="1" stop-color="#2166F0"/>
</linearGradient>
<linearGradient id="paint65_linear" x1="162.702" y1="289.368" x2="162.993" y2="669.398" gradientUnits="userSpaceOnUse">
<stop stop-color="white"/>
<stop offset="1" stop-color="#2166F0"/>
</linearGradient>
<linearGradient id="paint66_linear" x1="133.161" y1="295.246" x2="133.452" y2="675.276" gradientUnits="userSpaceOnUse">
<stop stop-color="white"/>
<stop offset="1" stop-color="#2166F0"/>
</linearGradient>
<linearGradient id="paint67_linear" x1="133.146" y1="296.569" x2="133.437" y2="676.635" gradientUnits="userSpaceOnUse">
<stop stop-color="white"/>
<stop offset="1" stop-color="#2166F0"/>
</linearGradient>
<linearGradient id="paint68_linear" x1="133.151" y1="296.129" x2="133.442" y2="676.192" gradientUnits="userSpaceOnUse">
<stop stop-color="white"/>
<stop offset="1" stop-color="#2166F0"/>
</linearGradient>
<linearGradient id="paint69_linear" x1="133.156" y1="295.691" x2="133.447" y2="675.721" gradientUnits="userSpaceOnUse">
<stop stop-color="white"/>
<stop offset="1" stop-color="#2166F0"/>
</linearGradient>
</defs>
</svg>
