<svg width="600" height="450" viewBox="0 0 600 450" fill="none" xmlns="http://www.w3.org/2000/svg">
<g filter="url(#filter0_d)">
<path d="M125.2 239.3L126.8 240.2C127.9 240.8 129.1 241.1 130.3 241.1C131.5 241.1 132.7 240.8 133.8 240.2L205.4 198.9C205.8 198.7 206.1 198.4 206.3 198C206.5 197.6 206.6 197.2 206.6 196.8C206.6 196.4 206.5 196 206.3 195.6C206.1 195.2 205.8 194.9 205.4 194.7L203.8 193.8C202.7 193.2 201.5 192.9 200.3 192.9C199.1 192.9 197.9 193.2 196.8 193.8L125.2 235.1C124.8 235.3 124.5 235.6 124.3 236C124.1 236.4 124 236.8 124 237.2C124 237.6 124.1 238 124.3 238.4C124.5 238.8 124.8 239.1 125.2 239.3Z" fill="#A9ABAE"/>
<path d="M122.9 221.3L196.6 178.8C198.8 177.5 200.7 175.6 202 173.4C203.3 171.2 204 168.6 204 166V20.3C204 19.6 203.8 18.8 203.4 18.2C203 17.6 202.5 17 201.8 16.6C201.2 16.2 200.4 16 199.7 16C199 16 198.2 16.2 197.6 16.6L123.9 59.2C121.7 60.5 119.8 62.4 118.5 64.6C117.2 66.8 116.5 69.4 116.5 72V217.7C116.5 218.4 116.7 219.2 117.1 219.8C117.5 220.4 118 221 118.7 221.4C119.3 221.8 120.1 222 120.8 222C121.5 221.9 122.2 221.7 122.9 221.3Z" fill="#00BAFF"/>
<path d="M123.6 223.3L118.9 221.2L119.3 218.9L126.7 219.5L123.6 223.3Z" fill="#00BAFF"/>
<path d="M201.3 16.4L206.3 18.6L203.3 21.5L199.7 18L201.3 16.4Z" fill="#00BAFF"/>
<path d="M127.8 223.5L201.5 181C203.7 179.7 205.6 177.8 206.9 175.6C208.2 173.4 208.9 170.8 208.9 168.2V22.5001C208.9 21.8001 208.7 21.0001 208.3 20.4001C207.9 19.8001 207.4 19.2001 206.7 18.8001C206.1 18.4001 205.3 18.2001 204.6 18.2001C203.9 18.2001 203.1 18.4001 202.5 18.8001L128.8 61.4001C126.6 62.7001 124.7 64.6001 123.4 66.8001C122.1 69.0001 121.4 71.6001 121.4 74.2001V219.9C121.4 220.6 121.6 221.4 122 222C122.4 222.6 122.9 223.2 123.6 223.6C124.2 224 125 224.2 125.7 224.2C126.4 224 127.1 223.8 127.8 223.5Z" fill="#231F20"/>
<path d="M206.1 165.1C206.1 167.5 205.5 169.9 204.2 172C203 174.1 201.2 175.9 199.1 177.1L130.1 216.9C129.5 217.2 128.8 217.4 128.1 217.4C127.4 217.4 126.7 217.2 126.1 216.9C125.5 216.6 125 216 124.6 215.4C124.3 214.8 124.1 214.1 124.1 213.4V77.1001C124.1 74.7001 124.7 72.3001 126 70.2001C127.2 68.1001 129 66.4001 131.1 65.1001L143.3 58.0001L185.3 33.7001L200 25.2001C200.6 24.9001 201.3 24.7001 202 24.7001C202.7 24.7001 203.4 24.9001 204 25.2001C204.6 25.5001 205.1 26.1001 205.5 26.7001C205.8 27.3001 206 28.0001 206 28.7001L206.1 165.1Z" fill="#F8F8F8"/>
<path d="M185.5 32.8L183.1 42.4C183 42.9 182.7 43.4001 182.4 43.8001C182.1 44.2001 181.7 44.6 181.2 44.9L152 61.5C151.6 61.7 151.1 61.9 150.7 61.9C150.2 61.9 149.8 61.8 149.4 61.5L142.6 57.7L185.5 32.8Z" fill="#231F20"/>
<path d="M85.9997 272.1C98.5997 272.1 108.8 266.2 108.8 258.9C108.8 251.6 98.5997 245.7 85.9997 245.7C73.3997 245.7 63.1997 251.6 63.1997 258.9C63.1997 266.2 73.3997 272.1 85.9997 272.1Z" fill="#E0E0E0"/>
<path d="M125.2 73.4001C137 52.9001 137 30.8001 125.2 23.9001C113.4 17.1001 94.1998 28.1001 82.3998 48.6001C70.5998 69.1001 70.5998 91.2001 82.3998 98.1001C94.1998 105 113.4 93.9001 125.2 73.4001Z" fill="url(#paint0_linear)"/>
<path d="M85.9997 269.6C98.5997 269.6 108.8 263.7 108.8 256.4C108.8 249.1 98.5997 243.2 85.9997 243.2C73.3997 243.2 63.1997 249.1 63.1997 256.4C63.1997 263.7 73.3997 269.6 85.9997 269.6Z" fill="#00BAFF"/>
<path d="M80.4997 256.5C83.6997 256.5 86.1997 255 86.1997 253.2C86.1997 251.4 83.5997 249.9 80.4997 249.9C77.2997 249.9 74.7997 251.4 74.7997 253.2C74.6997 255 77.2997 256.5 80.4997 256.5Z" fill="#FFBDCD"/>
<path d="M102.7 254.3C103.9 257.5 102.4 260.9 98.1 263.4C93.9 265.8 88.2 266.7 82.8 266.1C80.9 263.1 80.7 259.5 86 256.4C90.9 253.6 96.8 253 102.7 254.3Z" fill="#FFBDCD"/>
<path d="M85.9997 267.6C98.5997 267.6 108.8 261.7 108.8 254.4C108.8 247.1 98.5997 241.2 85.9997 241.2C73.3997 241.2 63.1997 247.1 63.1997 254.4C63.1997 261.7 73.3997 267.6 85.9997 267.6Z" fill="#E0E0E0"/>
<path d="M85.9997 265.1C98.5997 265.1 108.8 259.2 108.8 251.9C108.8 244.6 98.5997 238.7 85.9997 238.7C73.3997 238.7 63.1997 244.6 63.1997 251.9C63.1997 259.2 73.3997 265.1 85.9997 265.1Z" fill="#00BAFF"/>
<path d="M80.4997 252C83.6997 252 86.1997 250.5 86.1997 248.7C86.1997 246.9 83.5997 245.4 80.4997 245.4C77.2997 245.4 74.7997 246.9 74.7997 248.7C74.6997 250.5 77.2997 252 80.4997 252Z" fill="#FFBDCD"/>
<path d="M102.7 249.8C103.9 253 102.4 256.4 98.1 258.9C93.9 261.3 88.2 262.2 82.8 261.6C80.9 258.6 80.7 255 86 251.9C90.9 249.1 96.8 248.5 102.7 249.8Z" fill="#FFBDCD"/>
<path d="M85.9997 263.1C98.5997 263.1 108.8 257.2 108.8 249.9C108.8 242.6 98.5997 236.7 85.9997 236.7C73.3997 236.7 63.1997 242.6 63.1997 249.9C63.1997 257.2 73.3997 263.1 85.9997 263.1Z" fill="#E0E0E0"/>
<path d="M85.9997 260.6C98.5997 260.6 108.8 254.7 108.8 247.4C108.8 240.1 98.5997 234.2 85.9997 234.2C73.3997 234.2 63.1997 240.1 63.1997 247.4C63.1997 254.7 73.3997 260.6 85.9997 260.6Z" fill="#00BAFF"/>
<path d="M80.4997 247.5C83.6997 247.5 86.1997 246 86.1997 244.2C86.1997 242.4 83.5997 240.9 80.4997 240.9C77.2997 240.9 74.7997 242.4 74.7997 244.2C74.6997 246 77.2997 247.5 80.4997 247.5Z" fill="#FFBDCD"/>
<path d="M102.7 245.3C103.9 248.5 102.4 251.9 98.1 254.4C93.9 256.8 88.2 257.7 82.8 257.1C80.9 254.1 80.7 250.5 86 247.4C90.9 244.6 96.8 244.1 102.7 245.3Z" fill="#FFBDCD"/>
<path d="M85.9997 258.6C98.5997 258.6 108.8 252.7 108.8 245.4C108.8 238.1 98.5997 232.2 85.9997 232.2C73.3997 232.2 63.1997 238.1 63.1997 245.4C63.1997 252.7 73.3997 258.6 85.9997 258.6Z" fill="#E0E0E0"/>
<path d="M85.9997 256.1C98.5997 256.1 108.8 250.2 108.8 242.9C108.8 235.6 98.5997 229.7 85.9997 229.7C73.3997 229.7 63.1997 235.6 63.1997 242.9C63.1997 250.2 73.3997 256.1 85.9997 256.1Z" fill="#00BAFF"/>
<path d="M80.4997 243C83.6997 243 86.1997 241.5 86.1997 239.7C86.1997 237.9 83.5997 236.4 80.4997 236.4C77.2997 236.4 74.7997 237.9 74.7997 239.7C74.6997 241.5 77.2997 243 80.4997 243Z" fill="#FFBDCD"/>
<path d="M102.7 240.8C103.9 244 102.4 247.4 98.1 249.9C93.9 252.3 88.2 253.2 82.8 252.6C80.9 249.6 80.7 246 86 242.9C90.9 240.1 96.8 239.6 102.7 240.8Z" fill="#FFBDCD"/>
<path d="M85.9997 254.1C98.5997 254.1 108.8 248.2 108.8 240.9C108.8 233.6 98.5997 227.7 85.9997 227.7C73.3997 227.7 63.1997 233.6 63.1997 240.9C63.1997 248.2 73.3997 254.1 85.9997 254.1Z" fill="#E0E0E0"/>
<path d="M85.9997 251.6C98.5997 251.6 108.8 245.7 108.8 238.4C108.8 231.1 98.5997 225.2 85.9997 225.2C73.3997 225.2 63.1997 231.1 63.1997 238.4C63.1997 245.7 73.3997 251.6 85.9997 251.6Z" fill="#00BAFF"/>
<path d="M80.4997 238.5C83.6997 238.5 86.1997 237 86.1997 235.2C86.1997 233.4 83.5997 231.9 80.4997 231.9C77.2997 231.9 74.7997 233.4 74.7997 235.2C74.6997 237 77.2997 238.5 80.4997 238.5Z" fill="white"/>
<path d="M102.7 236.3C103.9 239.5 102.4 242.9 98.1 245.4C93.9 247.8 88.2 248.7 82.8 248.1C80.9 245.1 80.7 241.5 86 238.4C90.9 235.6 96.8 235.1 102.7 236.3Z" fill="white"/>
<path d="M109.8 231.6C111.4 224.5 102.8 216.5 90.6 213.6C78.3 210.8 67.1 214.2 65.4 221.3C63.8 228.4 72.4 236.4 84.6 239.3C96.9 242.2 108.2 238.7 109.8 231.6Z" fill="#E0E0E0"/>
<path d="M110.4 229.2C112 222.1 103.4 214.1 91.1997 211.2C78.8997 208.4 67.6997 211.8 65.9997 218.9C64.3997 226 72.9997 234 85.1997 236.9C97.4997 239.7 108.8 236.2 110.4 229.2Z" fill="#00BAFF"/>
<path d="M89.1 220.9C89.5 219.1 87.4 217.1 84.3 216.4C81.2 215.7 78.4 216.5 78 218.3C77.6 220.1 79.7 222.1 82.8 222.8C85.8 223.5 88.7 222.7 89.1 220.9Z" fill="white"/>
<path d="M105 225.7C105.5 229.1 103.2 232.1 98.4999 233.5C93.8999 234.9 88.0999 234.5 82.9999 232.7C81.7999 229.3 82.3999 225.8 88.2999 224C93.5999 222.4 99.3999 223.2 105 225.7Z" fill="white"/>
<path d="M76.1 296.7C83.3 296.7 89.2 293.3 89.2 289.1C89.2 284.9 83.3 281.5 76.1 281.5C68.9 281.5 63 284.9 63 289.1C63 293.3 68.8 296.7 76.1 296.7Z" fill="#E0E0E0"/>
<path d="M76.1 295.2C83.3 295.2 89.2 291.8 89.2 287.6C89.2 283.4 83.3 280 76.1 280C68.9 280 63 283.4 63 287.6C63 291.8 68.8 295.2 76.1 295.2Z" fill="#00BAFF"/>
<path d="M72.8996 287.7C74.6996 287.7 76.1996 286.9 76.1996 285.8C76.1996 284.8 74.6996 283.9 72.8996 283.9C71.0996 283.9 69.5996 284.7 69.5996 285.8C69.5996 286.9 70.9996 287.7 72.8996 287.7Z" fill="#FFBDCD"/>
<path d="M85.5998 286.5C86.2998 288.3 85.3998 290.3 82.9998 291.7C80.5998 293.1 77.2998 293.6 74.1998 293.3C73.0998 291.6 72.9998 289.5 75.9998 287.7C78.7998 286.1 82.1998 285.8 85.5998 286.5Z" fill="#FFBDCD"/>
<path d="M76.1 294.1C83.3 294.1 89.2 290.7 89.2 286.5C89.2 282.3 83.3 278.9 76.1 278.9C68.9 278.9 63 282.3 63 286.5C63 290.7 68.8 294.1 76.1 294.1Z" fill="#E0E0E0"/>
<path d="M76.1 292.6C83.3 292.6 89.2 289.2 89.2 285C89.2 280.8 83.3 277.4 76.1 277.4C68.9 277.4 63 280.8 63 285C63 289.2 68.8 292.6 76.1 292.6Z" fill="#00BAFF"/>
<path d="M72.8996 285.1C74.6996 285.1 76.1996 284.3 76.1996 283.2C76.1996 282.2 74.6996 281.3 72.8996 281.3C71.0996 281.3 69.5996 282.1 69.5996 283.2C69.5996 284.3 70.9996 285.1 72.8996 285.1Z" fill="#FFBDCD"/>
<path d="M85.5998 283.9C86.2998 285.7 85.3998 287.7 82.9998 289.1C80.5998 290.5 77.2998 291 74.1998 290.7C73.0998 289 72.9998 286.9 75.9998 285.1C78.7998 283.5 82.1998 283.2 85.5998 283.9Z" fill="#FFBDCD"/>
<path d="M76.1 291.5C83.3 291.5 89.2 288.1 89.2 283.9C89.2 279.7 83.3 276.4 76.1 276.4C68.9 276.4 63 279.8 63 284C63 288.2 68.8 291.5 76.1 291.5Z" fill="#E0E0E0"/>
<path d="M76.1 290.1C83.3 290.1 89.2 286.7 89.2 282.5C89.2 278.3 83.3 274.9 76.1 274.9C68.9 274.9 63 278.3 63 282.5C63 286.7 68.8 290.1 76.1 290.1Z" fill="#00BAFF"/>
<path d="M72.8996 282.6C74.6996 282.6 76.1996 281.8 76.1996 280.7C76.1996 279.7 74.6996 278.8 72.8996 278.8C71.0996 278.8 69.5996 279.6 69.5996 280.7C69.5996 281.7 70.9996 282.6 72.8996 282.6Z" fill="#FFBDCD"/>
<path d="M85.5998 281.3C86.2998 283.1 85.3998 285.1 82.9998 286.5C80.5998 287.9 77.2998 288.4 74.1998 288.1C73.0998 286.4 72.9998 284.3 75.9998 282.5C78.7998 280.9 82.1998 280.6 85.5998 281.3Z" fill="#FFBDCD"/>
<path d="M76.1 289C83.3 289 89.2 285.6 89.2 281.4C89.2 277.2 83.3 273.8 76.1 273.8C68.9 273.8 63 277.2 63 281.4C63 285.6 68.8 289 76.1 289Z" fill="#E0E0E0"/>
<path d="M76.1 287.5C83.3 287.5 89.2 284.1 89.2 279.9C89.2 275.7 83.3 272.3 76.1 272.3C68.9 272.3 63 275.7 63 279.9C63 284.1 68.8 287.5 76.1 287.5Z" fill="#00BAFF"/>
<path d="M72.8996 280C74.6996 280 76.1996 279.2 76.1996 278.1C76.1996 277.1 74.6996 276.2 72.8996 276.2C71.0996 276.2 69.5996 277 69.5996 278.1C69.5996 279.1 70.9996 280 72.8996 280Z" fill="#FFBDCD"/>
<path d="M85.5998 278.7C86.2998 280.5 85.3998 282.5 82.9998 283.9C80.5998 285.3 77.2998 285.8 74.1998 285.5C73.0998 283.8 72.9998 281.7 75.9998 279.9C78.7998 278.3 82.1998 278 85.5998 278.7Z" fill="#FFBDCD"/>
<path d="M76.1 286.4C83.3 286.4 89.2 283 89.2 278.8C89.2 274.6 83.3 271.2 76.1 271.2C68.9 271.2 63 274.6 63 278.8C63 283 68.8 286.4 76.1 286.4Z" fill="#E0E0E0"/>
<path d="M76.1 284.9C83.3 284.9 89.2 281.5 89.2 277.3C89.2 273.1 83.3 269.7 76.1 269.7C68.9 269.7 63 273.1 63 277.3C63 281.5 68.8 284.9 76.1 284.9Z" fill="#00BAFF"/>
<path d="M72.8996 277.4C74.6996 277.4 76.1996 276.6 76.1996 275.5C76.1996 274.5 74.6996 273.6 72.8996 273.6C71.0996 273.6 69.5996 274.4 69.5996 275.5C69.5996 276.6 70.9996 277.4 72.8996 277.4Z" fill="white"/>
<path d="M85.5998 276.1C86.2998 277.9 85.3998 279.9 82.9998 281.3C80.5998 282.7 77.2998 283.2 74.1998 282.9C73.0998 281.2 72.9998 279.1 75.9998 277.3C78.7998 275.8 82.1998 275.4 85.5998 276.1Z" fill="white"/>
<path d="M89.6999 273.5C90.5999 269.4 85.6999 264.8 78.6999 263.2C71.6999 261.6 65.1999 263.5 64.2999 267.6C63.3999 271.7 68.2999 276.3 75.2999 277.9C82.2999 279.5 88.7999 277.5 89.6999 273.5Z" fill="#E0E0E0"/>
<path d="M89.9997 272.1C90.8997 268 85.9997 263.4 78.9997 261.8C71.9997 260.2 65.4997 262.1 64.5997 266.2C63.6997 270.3 68.5997 274.9 75.5997 276.5C82.5997 278.1 89.0997 276.1 89.9997 272.1Z" fill="#00BAFF"/>
<path d="M77.7997 267.3C77.9997 266.3 76.7997 265.1 74.9997 264.7C73.1997 264.3 71.5997 264.8 71.3997 265.8C71.1997 266.8 72.3997 268 74.1997 268.4C75.8997 268.8 77.5997 268.3 77.7997 267.3Z" fill="white"/>
<path d="M86.8997 270.1C87.1997 272 85.8997 273.8 83.0997 274.6C80.4997 275.4 77.0997 275.2 74.1997 274.1C73.4997 272.2 73.8997 270.1 77.2997 269.1C80.3997 268.2 83.6997 268.6 86.8997 270.1Z" fill="white"/>
<path d="M240.2 185.1C248.8 185.1 255.7 181.1 255.7 176.1C255.7 171.2 248.8 167.1 240.2 167.1C231.6 167.1 224.7 171.1 224.7 176.1C224.7 181.1 231.7 185.1 240.2 185.1Z" fill="#E0E0E0"/>
<path d="M240.2 183.4C248.8 183.4 255.7 179.4 255.7 174.4C255.7 169.4 248.8 165.4 240.2 165.4C231.6 165.4 224.7 169.4 224.7 174.4C224.7 179.4 231.7 183.4 240.2 183.4Z" fill="#00BAFF"/>
<path d="M236.5 174.5C238.6 174.5 240.4 173.5 240.4 172.3C240.4 171.1 238.7 170.1 236.5 170.1C234.4 170.1 232.6 171.1 232.6 172.3C232.6 173.5 234.3 174.5 236.5 174.5Z" fill="#FFBDCD"/>
<path d="M251.6 173C252.4 175.2 251.4 177.5 248.5 179.2C245.7 180.8 241.7 181.4 238.1 181C236.8 178.9 236.6 176.5 240.3 174.4C243.5 172.5 247.5 172.2 251.6 173Z" fill="#FFBDCD"/>
<path d="M240.2 182.1C248.8 182.1 255.7 178.1 255.7 173.1C255.7 168.2 248.8 164.1 240.2 164.1C231.6 164.1 224.7 168.1 224.7 173.1C224.7 178.1 231.7 182.1 240.2 182.1Z" fill="#E0E0E0"/>
<path d="M240.2 180.3C248.8 180.3 255.7 176.3 255.7 171.3C255.7 166.4 248.8 162.3 240.2 162.3C231.6 162.3 224.7 166.3 224.7 171.3C224.7 176.3 231.7 180.3 240.2 180.3Z" fill="#00BAFF"/>
<path d="M236.5 171.4C238.6 171.4 240.4 170.4 240.4 169.2C240.4 168 238.7 167 236.5 167C234.4 167 232.6 168 232.6 169.2C232.6 170.4 234.3 171.4 236.5 171.4Z" fill="#FFBDCD"/>
<path d="M251.6 169.9C252.4 172.1 251.4 174.4 248.5 176.1C245.7 177.7 241.7 178.3 238.1 177.9C236.8 175.8 236.6 173.4 240.3 171.3C243.5 169.5 247.5 169.1 251.6 169.9Z" fill="#FFBDCD"/>
<path d="M240.2 179C248.8 179 255.7 175 255.7 170C255.7 165 248.8 161 240.2 161C231.6 161 224.7 165 224.7 170C224.7 175 231.7 179 240.2 179Z" fill="#E0E0E0"/>
<path d="M240.2 177.3C248.8 177.3 255.7 173.3 255.7 168.3C255.7 163.4 248.8 159.3 240.2 159.3C231.6 159.3 224.7 163.3 224.7 168.3C224.7 173.3 231.7 177.3 240.2 177.3Z" fill="#00BAFF"/>
<path d="M236.5 168.4C238.6 168.4 240.4 167.4 240.4 166.2C240.4 165 238.7 164 236.5 164C234.4 164 232.6 165 232.6 166.2C232.6 167.4 234.3 168.4 236.5 168.4Z" fill="#FFBDCD"/>
<path d="M251.6 166.9C252.4 169.1 251.4 171.4 248.5 173.1C245.7 174.7 241.7 175.3 238.1 174.9C236.8 172.8 236.6 170.4 240.3 168.3C243.5 166.4 247.5 166.1 251.6 166.9Z" fill="#FFBDCD"/>
<path d="M240.2 176C248.8 176 255.7 172 255.7 167C255.7 162.1 248.8 158 240.2 158C231.6 158 224.7 162 224.7 167C224.7 172 231.7 176 240.2 176Z" fill="#E0E0E0"/>
<path d="M240.2 174.2C248.8 174.2 255.7 170.2 255.7 165.2C255.7 160.3 248.8 156.2 240.2 156.2C231.6 156.2 224.7 160.2 224.7 165.2C224.7 170.2 231.7 174.2 240.2 174.2Z" fill="#00BAFF"/>
<path d="M236.5 165.3C238.6 165.3 240.4 164.3 240.4 163.1C240.4 161.9 238.7 160.9 236.5 160.9C234.4 160.9 232.6 161.9 232.6 163.1C232.6 164.3 234.3 165.3 236.5 165.3Z" fill="#FFBDCD"/>
<path d="M251.6 163.8C252.4 166 251.4 168.3 248.5 170C245.7 171.6 241.7 172.2 238.1 171.8C236.8 169.7 236.6 167.3 240.3 165.2C243.5 163.4 247.5 163 251.6 163.8Z" fill="#FFBDCD"/>
<path d="M240.2 172.9C248.8 172.9 255.7 168.9 255.7 163.9C255.7 159 248.8 154.9 240.2 154.9C231.6 154.9 224.7 158.9 224.7 163.9C224.7 168.9 231.7 172.9 240.2 172.9Z" fill="#E0E0E0"/>
<path d="M240.2 171.2C248.8 171.2 255.7 167.2 255.7 162.2C255.7 157.2 248.8 153.2 240.2 153.2C231.6 153.2 224.7 157.2 224.7 162.2C224.7 167.2 231.7 171.2 240.2 171.2Z" fill="#00BAFF"/>
<path d="M236.5 162.3C238.6 162.3 240.4 161.3 240.4 160.1C240.4 158.9 238.7 157.9 236.5 157.9C234.4 157.9 232.6 158.9 232.6 160.1C232.6 161.3 234.3 162.3 236.5 162.3Z" fill="white"/>
<path d="M251.6 160.8C252.4 163 251.4 165.3 248.5 167C245.7 168.6 241.7 169.2 238.1 168.8C236.8 166.7 236.6 164.3 240.3 162.2C243.5 160.3 247.5 159.9 251.6 160.8Z" fill="white"/>
<path d="M256.4 157.6C257.5 152.8 251.7 147.3 243.3 145.4C235 143.5 227.3 145.8 226.2 150.6C225.1 155.4 230.9 160.9 239.3 162.8C247.6 164.8 255.3 162.4 256.4 157.6Z" fill="#E0E0E0"/>
<path d="M256.8 155.9C257.9 151.1 252.1 145.6 243.7 143.7C235.4 141.8 227.7 144.1 226.6 148.9C225.5 153.7 231.3 159.2 239.7 161.1C248 163.1 255.7 160.7 256.8 155.9Z" fill="#00BAFF"/>
<path d="M242.3 150.3C242.6 149.1 241.1 147.7 239 147.2C236.9 146.7 235 147.3 234.7 148.5C234.4 149.7 235.9 151.1 238 151.6C240.1 152.1 242 151.5 242.3 150.3Z" fill="white"/>
<path d="M253.1 153.6C253.4 155.9 251.9 157.9 248.6 158.9C245.5 159.9 241.5 159.6 238 158.3C237.2 156 237.6 153.6 241.6 152.4C245.4 151.3 249.3 151.8 253.1 153.6Z" fill="white"/>
<path opacity="0.76" d="M129.8 76.1C141.6 55.6 141.6 33.5 129.8 26.6C118 19.8 98.7999 30.8 86.9999 51.3C75.1999 71.8 75.1999 93.9 86.9999 100.8C98.7999 107.6 117.9 96.6 129.8 76.1Z" fill="white"/>
<path d="M113.7 54.7C116.7 49.6 116.7 44 113.7 42.3C110.7 40.6 105.9 43.4 103 48.5C100 53.6 100 59.2 103 60.9C105.9 62.6 110.8 59.8 113.7 54.7Z" fill="#00BAFF"/>
<path d="M127.5 66.8C123.5 76.4 116.4 85.3 108.3 90C100.5 94.5 93.6 93.9 89.5 89.4C92.6 79.9 98.2 69.6 108.3 63.8C117.5 58.4 123.9 60.1 127.5 66.8Z" fill="#00BAFF"/>
<path d="M128.6 45.8001L124.5 48.2001V43.4001C124.5 42.8001 124 42.5001 123.5 42.8001C123.2 43.0001 123 43.2001 122.8 43.6001C122.6 43.9001 122.5 44.2001 122.5 44.6001V49.4001L118.4 51.8001C118.1 52.0001 117.9 52.3001 117.7 52.6001C117.5 52.9001 117.4 53.2001 117.4 53.6001C117.4 54.2001 117.9 54.5001 118.4 54.2001L122.5 51.8001V56.4001C122.5 57.0001 123 57.3001 123.5 57.0001C123.8 56.8001 124 56.6001 124.2 56.2001C124.4 55.9001 124.5 55.6001 124.5 55.2001V50.5001L128.6 48.1001C128.9 47.9001 129.1 47.6001 129.3 47.3001C129.5 47.0001 129.6 46.7001 129.6 46.3001C129.6 45.8001 129.2 45.5001 128.6 45.8001Z" fill="#00BAFF"/>
<path d="M196.2 64L195.2 63.4L196.2 61.7C196.3 61.5 196.3 61.2 196.2 61.1C196.1 61 195.8 61.1 195.7 61.4L194.7 63.2L193.7 62.6C193.6 62.5 193.3 62.6 193.2 62.9C193.1 63.1 193.1 63.4 193.2 63.5L194.2 64.1L193.2 65.8C193.1 66 193.1 66.3 193.2 66.4C193.3 66.5 193.6 66.4 193.7 66.1L194.7 64.4L195.7 65C195.8 65.1 196.1 65 196.2 64.7C196.4 64.3 196.4 64.1 196.2 64Z" fill="#D5D5DB"/>
<path d="M196.2 94.3L195.2 93.7001L196.2 92C196.3 91.8 196.3 91.5 196.2 91.4C196.1 91.3 195.8 91.4001 195.7 91.7001L194.7 93.5L193.7 92.9C193.6 92.8 193.3 92.9001 193.2 93.2001C193.1 93.4001 193.1 93.7 193.2 93.8L194.2 94.4L193.2 96.1C193.1 96.3 193.1 96.6001 193.2 96.7001C193.3 96.8001 193.6 96.7 193.7 96.4L194.7 94.7001L195.7 95.3C195.8 95.4 196.1 95.3 196.2 95C196.4 94.6 196.4 94.3 196.2 94.3Z" fill="#D5D5DB"/>
<path d="M196.2 124.5L195.2 123.9L196.2 122.2C196.3 122 196.3 121.7 196.2 121.6C196.1 121.5 195.8 121.6 195.7 121.9L194.7 123.7L193.7 123.1C193.6 123 193.3 123.1 193.2 123.4C193.1 123.6 193.1 123.9 193.2 124L194.2 124.6L193.2 126.3C193.1 126.5 193.1 126.8 193.2 126.9C193.3 127 193.6 126.9 193.7 126.6L194.7 124.9L195.7 125.5C195.8 125.6 196.1 125.5 196.2 125.2C196.4 124.8 196.4 124.6 196.2 124.5Z" fill="#D5D5DB"/>
<path d="M196.2 154.8L195.2 154.2L196.2 152.5C196.3 152.3 196.3 152 196.2 151.9C196.1 151.8 195.8 151.9 195.7 152.2L194.7 154L193.7 153.4C193.6 153.3 193.3 153.4 193.2 153.7C193.1 153.9 193.1 154.2 193.2 154.3L194.2 154.9L193.2 156.6C193.1 156.8 193.1 157.1 193.2 157.2C193.3 157.3 193.6 157.2 193.7 156.9L194.7 155.2L195.7 155.8C195.8 155.9 196.1 155.8 196.2 155.5C196.4 155.1 196.4 154.9 196.2 154.8Z" fill="#D5D5DB"/>
<path d="M148.3 96.0001C150.9 91.4001 150.9 86.5001 148.3 85.0001C145.7 83.5001 141.4 85.9001 138.8 90.5001C136.2 95.1001 136.2 100 138.8 101.5C141.4 103 145.7 100.6 148.3 96.0001Z" fill="#00BAFF"/>
<path d="M145.2 89.6C145.2 90.2 145 90.8 144.7 91.3C144.4 91.8 144 92.2 143.5 92.6C142.6 93.1 141.8 92.7 141.8 91.6C141.8 91 142 90.4 142.3 89.9C142.6 89.4 143 89 143.5 88.6C144.5 88.1 145.2 88.5 145.2 89.6Z" fill="white"/>
<path d="M147.8 93.9C146.9 96 145.3 98 143.5 99.1C141.8 100.1 140.2 100 139.3 99C140 96.9 141.2 94.6 143.5 93.3C145.6 92.1 147 92.5 147.8 93.9Z" fill="white"/>
<path d="M148.3 126.3C150.9 121.7 150.9 116.8 148.3 115.3C145.7 113.8 141.4 116.2 138.8 120.8C136.2 125.4 136.2 130.3 138.8 131.8C141.4 133.3 145.7 130.9 148.3 126.3Z" fill="#E0E0E0"/>
<path d="M144.7 121.6C145.4 120.5 145.4 119.2 144.7 118.8C144 118.4 143 119 142.3 120.2C141.6 121.3 141.6 122.6 142.3 123C143 123.3 144.1 122.7 144.7 121.6Z" fill="#00BAFF"/>
<path d="M147.8 124.2C146.9 126.3 145.3 128.3 143.5 129.4C141.8 130.4 140.2 130.3 139.3 129.3C140 127.2 141.2 124.9 143.5 123.6C145.6 122.4 147 122.7 147.8 124.2Z" fill="#00BAFF"/>
<path d="M148.3 156.6C150.9 152 150.9 147.1 148.3 145.6C145.7 144.1 141.4 146.5 138.8 151.1C136.2 155.7 136.2 160.6 138.8 162.1C141.4 163.6 145.7 161.2 148.3 156.6Z" fill="#00BAFF"/>
<path d="M144.7 151.8C145.4 150.7 145.4 149.4 144.7 149C144 148.6 143 149.2 142.3 150.4C141.6 151.5 141.6 152.8 142.3 153.2C143 153.6 144.1 153 144.7 151.8Z" fill="white"/>
<path d="M147.8 154.5C146.9 156.6 145.3 158.6 143.5 159.7C141.8 160.7 140.2 160.6 139.3 159.6C140 157.5 141.2 155.2 143.5 153.9C145.6 152.7 147 153 147.8 154.5Z" fill="white"/>
<path d="M148.3 186.9C150.9 182.3 150.9 177.4 148.3 175.9C145.7 174.4 141.4 176.8 138.8 181.4C136.2 186 136.2 190.9 138.8 192.4C141.4 193.9 145.7 191.4 148.3 186.9Z" fill="#E0E0E0"/>
<path d="M145.2 180.5C145.2 181.1 145 181.7 144.7 182.2C144.4 182.7 144 183.1 143.5 183.5C142.6 184 141.8 183.6 141.8 182.5C141.8 181.9 142 181.3 142.3 180.8C142.6 180.3 143 179.9 143.5 179.5C144.5 179 145.2 179.4 145.2 180.5Z" fill="#00BAFF"/>
<path d="M147.8 184.8C146.9 186.9 145.3 188.9 143.5 190C141.8 191 140.2 190.9 139.3 189.9C140 187.8 141.2 185.5 143.5 184.2C145.6 183 147 183.3 147.8 184.8Z" fill="#00BAFF"/>
<path d="M180.8 69.9L190.3 64.4C190.7 64.1 191.1 64.4 191.1 64.9V66.7C191.1 67 191 67.3 190.9 67.5C190.8 67.7 190.6 67.9 190.3 68.1L180.8 73.6C180.4 73.9 180 73.6 180 73.1V71.3C180 71 180.1 70.7 180.2 70.5C180.3 70.3 180.5 70.1 180.8 69.9Z" fill="#00BAFF"/>
<path d="M180.8 100.2L190.3 94.7C190.7 94.4 191.1 94.7 191.1 95.2V97C191.1 97.3 191 97.6 190.9 97.8C190.8 98 190.6 98.2 190.3 98.4L180.8 103.9C180.4 104.2 180 103.9 180 103.4V101.6C180 101.3 180.1 101 180.2 100.8C180.4 100.5 180.5 100.3 180.8 100.2Z" fill="#00BAFF"/>
<path d="M180.8 130.4L190.3 124.9C190.7 124.6 191.1 124.9 191.1 125.4V127.2C191.1 127.5 191 127.8 190.9 128C190.8 128.2 190.6 128.4 190.3 128.6L180.8 134.1C180.4 134.4 180 134.1 180 133.6V131.8C180 131.5 180.1 131.2 180.2 131C180.4 130.8 180.5 130.6 180.8 130.4Z" fill="#00BAFF"/>
<path d="M180.8 160.7L190.3 155.2C190.7 154.9 191.1 155.2 191.1 155.7V157.5C191.1 157.8 191 158.1 190.9 158.3C190.8 158.5 190.6 158.7 190.3 158.9L180.8 164.4C180.4 164.7 180 164.4 180 163.9V162.1C180 161.8 180.1 161.5 180.2 161.3C180.4 161 180.5 160.8 180.8 160.7Z" fill="#00BAFF"/>
<path d="M157 84.5C156.9 84.5 156.7 84.5 156.6 84.4C156.5 84.3 156.4 84.2 156.4 84C156.4 83.9 156.4 83.7 156.4 83.6C156.5 83.5 156.6 83.4 156.7 83.3L172.9 73.9C173.1 73.8 173.2 73.8 173.4 73.8C173.6 73.8 173.7 74 173.8 74.1C173.9 74.3 173.9 74.4 173.9 74.6C173.9 74.8 173.7 74.9 173.6 75L157.4 84.4C157.3 84.5 157.2 84.5 157 84.5Z" fill="#E0E0E0"/>
<path d="M157 87.7C156.9 87.7 156.7 87.7 156.6 87.6C156.5 87.5 156.4 87.4 156.4 87.2C156.4 87.1 156.4 86.9 156.4 86.8C156.5 86.7 156.6 86.6 156.7 86.5L172.9 77.1C173.1 77 173.2 77 173.4 77C173.6 77 173.7 77.2 173.8 77.3C173.9 77.5 173.9 77.6 173.9 77.8C173.9 78 173.7 78.1 173.6 78.2L157.4 87.6C157.3 87.6 157.2 87.7 157 87.7Z" fill="#E0E0E0"/>
<path d="M157 114.8C156.9 114.8 156.7 114.8 156.6 114.7C156.5 114.6 156.4 114.5 156.4 114.3C156.4 114.2 156.4 114 156.4 113.9C156.5 113.8 156.6 113.7 156.7 113.6L172.9 104.2C173 104.2 173.1 104.1 173.1 104.1C173.2 104.1 173.3 104.1 173.4 104.1C173.5 104.1 173.6 104.2 173.6 104.2C173.7 104.3 173.7 104.3 173.8 104.4C173.8 104.5 173.9 104.6 173.9 104.6C173.9 104.7 173.9 104.8 173.9 104.9C173.9 105 173.8 105.1 173.8 105.1C173.7 105.2 173.7 105.2 173.6 105.3L157.4 114.7C157.3 114.7 157.2 114.8 157 114.8Z" fill="#B0E9FF"/>
<path d="M157 117.9C156.9 117.9 156.7 117.9 156.6 117.8C156.5 117.7 156.4 117.6 156.4 117.4C156.4 117.3 156.4 117.1 156.4 117C156.5 116.9 156.6 116.8 156.7 116.7L172.9 107.3C173 107.3 173.1 107.2 173.1 107.2C173.2 107.2 173.3 107.2 173.4 107.2C173.5 107.2 173.6 107.3 173.6 107.3C173.6 107.3 173.7 107.4 173.8 107.5C173.8 107.6 173.9 107.7 173.9 107.7C173.9 107.8 173.9 107.9 173.9 108C173.9 108.1 173.8 108.2 173.8 108.2C173.7 108.3 173.7 108.3 173.6 108.4L157.4 117.8C157.3 117.9 157.2 117.9 157 117.9Z" fill="#B0E9FF"/>
<path d="M157 145C156.9 145 156.7 145 156.6 144.9C156.5 144.8 156.4 144.7 156.4 144.5C156.4 144.4 156.4 144.2 156.4 144.1C156.5 144 156.6 143.9 156.7 143.8L172.9 134.4C173.1 134.3 173.2 134.3 173.4 134.3C173.6 134.3 173.7 134.5 173.8 134.6C173.9 134.8 173.9 134.9 173.9 135.1C173.9 135.3 173.7 135.4 173.6 135.5L157.4 144.9C157.3 145 157.2 145 157 145Z" fill="#E0E0E0"/>
<path d="M157 148.2C156.9 148.2 156.7 148.2 156.6 148.1C156.5 148 156.4 147.9 156.4 147.7C156.4 147.6 156.4 147.4 156.4 147.3C156.4 147.2 156.6 147.1 156.7 147L172.9 137.6C173.1 137.5 173.2 137.5 173.4 137.5C173.6 137.5 173.7 137.7 173.8 137.8C173.9 138 173.9 138.1 173.9 138.3C173.9 138.5 173.7 138.6 173.6 138.7L157.4 148.1C157.3 148.2 157.2 148.2 157 148.2Z" fill="#E0E0E0"/>
<path d="M157 175.3C156.9 175.3 156.7 175.3 156.6 175.2C156.5 175.1 156.4 175 156.4 174.8C156.4 174.7 156.4 174.5 156.4 174.4C156.5 174.3 156.6 174.2 156.7 174.1L172.9 164.7C173.1 164.6 173.2 164.6 173.4 164.6C173.6 164.6 173.7 164.8 173.8 164.9C173.9 165.1 173.9 165.2 173.9 165.4C173.9 165.6 173.7 165.7 173.6 165.8L157.4 175.2C157.3 175.3 157.2 175.3 157 175.3Z" fill="#B0E9FF"/>
<path d="M157 178.4C156.9 178.4 156.7 178.4 156.6 178.3C156.5 178.2 156.4 178.1 156.4 177.9C156.4 177.8 156.4 177.6 156.4 177.5C156.5 177.4 156.6 177.3 156.7 177.2L172.9 167.8C173 167.8 173.1 167.7 173.1 167.7C173.2 167.7 173.3 167.7 173.4 167.7C173.5 167.7 173.6 167.8 173.6 167.8C173.7 167.9 173.7 167.9 173.8 168C173.8 168.1 173.9 168.2 173.9 168.2C173.9 168.3 173.9 168.4 173.9 168.5C173.9 168.6 173.8 168.7 173.8 168.7C173.7 168.8 173.7 168.8 173.6 168.9L157.4 178.3C157.3 178.4 157.2 178.4 157 178.4Z" fill="#B0E9FF"/>
<path d="M190.5 178.2L145 204.4C144.5 204.7 144.1 204.5 144.1 203.9C144.1 203.6 144.2 203.3 144.4 203C144.5 202.7 144.8 202.5 145 202.4L190.5 176.2C191 175.9 191.4 176.1 191.4 176.7C191.4 177 191.3 177.3 191.1 177.6C191 177.8 190.8 178 190.5 178.2Z" fill="#231F20"/>
<path d="M141.2 73.6L137.5 75.8L138.8 73.4C138.9 73.2 138.9 72.9 138.8 72.8C138.7 72.7 138.4 72.9 138.3 73.1L136.3 76.8L138.2 78.4H138.3H138.4C138.5 78.3 138.6 78.3 138.6 78.2C138.7 78 138.8 77.7 138.6 77.6L137.3 76.6L141.1 74.4C141.2 74.3 141.3 74.2 141.3 74.1C141.4 74 141.4 73.9 141.4 73.8C141.6 73.6 141.4 73.5 141.2 73.6Z" fill="#00BAFF"/>
<path d="M536.4 226.3L505.1 244.4L359.3 160.1V157.1L390.6 142.1L536.5 223.3V226.3H536.4Z" fill="#231F20"/>
<path d="M536.4 223.3L505.1 241.4L359.3 157.1L390.6 139.1L536.4 223.3Z" fill="#9D9FA2"/>
<path d="M367.1 157.1L371.3 159.5L505.2 235.3L523.1 225L527.2 222.6L390.5 144L367.1 157.1Z" fill="#424244"/>
<path d="M371.3 159.5L505.2 235.3L523.1 225L518 222.1L467.7 193.2L390.6 148.9L371.3 159.5Z" fill="#D8F4FF"/>
<path d="M365.1 163.5L369.7 187.2L505.2 265.4V244.4L365.1 163.5Z" fill="#00A6E3"/>
<path d="M533.6 227.9L531.8 250L505.2 265.4V244.4L533.6 227.9Z" fill="#00B1F3"/>
<path d="M380.1 72.8L453.1 76.4V78.8L432.3 90.8L463.6 108.9L484.5 157L494.9 163L505.3 193.1L536.6 208.4V211.1L505.3 229.2L474.1 211.2L463.7 181.1L453.3 175.1L432.4 127L401.1 108.9L380.2 120.9L380.1 72.8Z" fill="#00A6E3"/>
<path d="M536.5 208.5L505.2 226.6L476.3 209.8L465.9 179.7L455.5 173.7L434.6 125.6L401 106.2L391.2 111.8L388.2 113.5L386.4 114.5L380.1 118.1V114.5V87.0001V70.7001L453 76.5001L432.2 88.2001L465.8 107.6L486.7 155.7L497.1 161.7L507.5 191.8L536.5 208.5Z" fill="#00BAFF"/>
<path d="M458.1 188.2L454.1 190.5L450.1 188.2L454.1 185.9L458.1 188.2Z" fill="#C4C4C4"/>
<path d="M454.1 190.5V195.1L458.1 192.8V188.2L454.1 190.5Z" fill="#BABABA"/>
<path d="M454.1 190.5L450.1 188.2V192.8L454.1 195.1V190.5Z" fill="#CDCDCD"/>
<path d="M435.2 154.9L427.2 159.5L419.2 154.9L427.2 150.3L435.2 154.9Z" fill="url(#paint1_linear)"/>
<path d="M427.2 159.5V168.7L435.2 164.1V154.9L427.2 159.5Z" fill="url(#paint2_linear)"/>
<path d="M427.2 159.5L419.2 154.9V164.1L427.2 168.7V159.5Z" fill="url(#paint3_linear)"/>
<path d="M418.2 149.2L413.8 151.7L409.4 149.2L413.8 146.7L418.2 149.2Z" fill="#C4C4C4"/>
<path d="M413.8 151.7V156.8L418.2 154.3V149.2L413.8 151.7Z" fill="#BABABA"/>
<path d="M413.8 151.7L409.4 149.2V154.3L413.8 156.8V151.7Z" fill="#CDCDCD"/>
<path d="M404.7 125.9L400.3 128.4L395.9 125.9L400.3 123.4L404.7 125.9Z" fill="url(#paint4_linear)"/>
<path d="M400.3 128.4V133.5L404.7 131V125.9L400.3 128.4Z" fill="url(#paint5_linear)"/>
<path d="M400.3 128.4L395.9 125.9V131L400.3 133.5V128.4Z" fill="url(#paint6_linear)"/>
<path d="M416.8 121.6L413.8 123.4L410.8 121.6L413.8 119.8L416.8 121.6Z" fill="url(#paint7_linear)"/>
<path d="M413.8 123.4V126.9L416.8 125.1V121.6L413.8 123.4Z" fill="url(#paint8_linear)"/>
<path d="M413.8 123.4L410.8 121.6V125.1L413.8 126.9V123.4Z" fill="url(#paint9_linear)"/>
<path d="M222 63.7L225.9 62.5C225.9 62.5 231 70.9 225.9 73.8L222.8 72.6C222.9 72.6 227.6 68.5 222 63.7Z" fill="url(#paint10_linear)"/>
<path d="M211.2 53.3L209.4 57C209.4 57 199.8 54.9 201.2 49.2L204.2 47.8C204.1 47.8 203.9 54.1 211.2 53.3Z" fill="#E0E0E0"/>
<path d="M223.1 41.4L224.8 43.9C224.8 43.9 219.9 49.2 216.8 46.2L217 43.8C216.9 43.8 220.8 46.3 223.1 41.4Z" fill="#E0E0E0"/>
<path d="M169.1 30.4001L168.2 33.3001C168.2 33.3001 161 32.9001 161.3 28.6001L163.3 27.2001C163.3 27.2001 163.8 31.8001 169.1 30.4001Z" fill="url(#paint11_linear)"/>
<path d="M177.8 55.6L176.9 58.5C176.9 58.5 169.7 58.1 170 53.8L172 52.4C172.1 52.4 172.6 57 177.8 55.6Z" fill="url(#paint12_linear)"/>
<path d="M215 92.8L217.9 93.7001C217.9 93.7001 217.5 100.9 213.2 100.6L211.8 98.6C211.8 98.6 216.3 98 215 92.8Z" fill="url(#paint13_linear)"/>
<path d="M205 72.7001L208.6 73.8001C208.6 73.8001 208.1 82.8001 202.7 82.4001L201 79.9001C201 80.0001 206.7 79.3001 205 72.7001Z" fill="#E0E0E0"/>
<path d="M109.1 117.5L107 120.7C107 120.7 98.4996 117.8 100.3 112.7L103.2 111.7C103.2 111.7 102.3 117.4 109.1 117.5Z" fill="url(#paint14_linear)"/>
<path d="M222.8 141.4L224.7 143.2C224.7 143.2 221.6 148.6 218.4 146.7L218.1 144.6C218.1 144.6 221.8 146 222.8 141.4Z" fill="url(#paint15_linear)"/>
<path d="M113.9 136.5L117 138.7C117 138.7 113.7 147.1 108.7 145.1L107.8 142.2C107.9 142.2 113.5 143.3 113.9 136.5Z" fill="#E0E0E0"/>
<path d="M218.4 130.3L217.3 133.9C217.3 133.9 208.3 133.4 208.7 128L211.2 126.3C211.1 126.2 211.8 132 218.4 130.3Z" fill="#E0E0E0"/>
<path d="M125.4 120.6L126.4 118.3C126.4 118.3 132.3 119.4 131.6 122.9L129.8 123.8C129.9 123.9 129.9 120 125.4 120.6Z" fill="url(#paint16_linear)"/>
<path d="M103.8 159.5L104.8 157.2C104.8 157.2 110.7 158.3 110 161.8L108.2 162.7C108.2 162.8 108.3 159 103.8 159.5Z" fill="url(#paint17_linear)"/>
<path d="M128.6 165L132.2 166C132.2 166 132 174.8 126.7 174.6L124.9 172.2C124.8 172.2 130.4 171.4 128.6 165Z" fill="url(#paint18_linear)"/>
<path d="M287.1 52.2L281.9 61.1H277.2L278.4 59H280.8L285 51.8L287.1 52.2Z" fill="#00BAFF"/>
<path d="M289.4 52.4L283.2 63.2H273.6L280.8 50.8H283.2L277.2 61.1H281.9L287.1 52.2L289.4 52.4Z" fill="#05B4F4"/>
<path d="M273.6 63.2L272.4 61.1L278.4 50.8H280.8L273.6 63.2Z" fill="#009CD6"/>
<path d="M286.5 40.3H289.3V54.1H286.6L286.5 40.3Z" fill="#00BAFF"/>
<path d="M289.3 54.2C291.5 54.2 293.3 51.1 293.3 47.3C293.3 43.5 291.5 40.4 289.3 40.4C287.1 40.4 285.3 43.5 285.3 47.3C285.3 51.1 287.1 54.2 289.3 54.2Z" fill="#00BAFF"/>
<path d="M289.4 52.1C288.4 53.8001 287.1 54.4 285.9 54C285.9 54 270.6 52.4001 265.2 61.8001C265.4 61.3001 270.1 52.3001 268.4 41.8001C267.9 38.7001 266.9 35.6 265.4 32.8C265.4 32.8 274.9 40.3001 286.4 40.3001C287.5 40.2001 288.6 40.9001 289.4 42.3001C290.1 43.6001 290.5 45.1 290.6 46.5C290.7 48.6 290.3 50.6 289.4 52.1Z" fill="#00BAFF"/>
<path d="M289.4 52.1C288.4 53.8 287.1 54.4 285.9 54C285.9 54 270.6 52.4 265.2 61.8C265.4 61.3 270.1 52.3 268.4 41.8L269.2 41.1C269.2 41.1 272.6 50.8 278.8 51.2C285 51.6 289.8 50.6 290.6 46.6C290.7 48.6 290.3 50.6 289.4 52.1Z" fill="#00BAFF"/>
<path d="M260.3 64.3001C265.7 64.2001 270 56.5001 269.9 47.1001C269.8 37.7001 265.2 30.1001 259.8 30.2001C254.4 30.3001 250.1 38.0001 250.2 47.4001C250.4 56.8001 254.9 64.4001 260.3 64.3001Z" fill="#0097CF"/>
<path d="M265.2 59.2C264.1 61.2 262.7 62.7 261.2 63.5C257.8 65.4 254 64 251.3 59.4C247.4 52.8 247.2 42 251 35.3C253.3 31.2 256.5 29.6 259.5 30.4C261.5 30.9 263.4 32.5 264.9 35.1C268.8 41.7 269 52.5 265.2 59.2Z" fill="#00BAFF"/>
<path d="M267.2 54.1C266.8 55.9 266.1 57.6 265.3 59.2C264.2 61.2 262.8 62.7 261.3 63.5C259.9 63.1 258.6 62.3 257.6 61.2C256.9 60.5 256.3 59.7 255.8 58.8C251.9 52.2 251.7 41.4 255.5 34.7C256.6 32.7 258 31.2 259.5 30.4C261.5 30.9 263.4 32.5 264.9 35.1C265 35.3 265.1 35.5 265.2 35.6C266 37.1 266.6 38.7 267 40.3C267.3 41.5 267.5 42.6 267.7 43.8C268.1 47.3 267.9 50.8 267.2 54.1Z" fill="#0295CC"/>
<path d="M267.2 54.1C266.8 55.9 266.1 57.6 265.3 59.2C264.2 61.2 262.8 62.7 261.3 63.5C259.9 63.1 258.6 62.3 257.6 61.2C257.7 61.3 260.8 62.8 263.1 60.2C265.6 57.3 269.5 41.5 259.5 30.5C261.5 31 263.4 32.6 264.9 35.2C265 35.4 265.1 35.6 265.2 35.7C266 37.2 266.6 38.8 267 40.4C267.3 41.6 267.5 42.7 267.7 43.9C268.1 47.3 267.9 50.8 267.2 54.1Z" fill="#00BAFF"/>
<path d="M267.7 51.4C267.6 52.3 267.4 53.2 267.2 54.1H262.1C260.9 54.1 259.7 53.8 258.7 53.2C257.7 52.6 256.8 51.7 256.2 50.7C255.6 49.7 255.3 48.5 255.3 47.3C255.3 46.1 255.6 44.9 256.2 43.9C256.8 42.9 257.7 42 258.7 41.4C259.7 40.8 260.9 40.5 262.1 40.5H267C267.9 44 268.2 47.7 267.7 51.4Z" fill="#E0E0E0"/>
<path d="M267.7 51.4C267.6 52.3 267.4 53.2 267.2 54.1H262.1C260.9 54.1 259.7 53.8 258.7 53.2C257.7 52.6 256.8 51.7 256.2 50.7C255.5 49.5 255.2 48 255.3 46.6C255.5 47.3 257.3 51.5 262.7 51.5C264.8 51.4 266.4 51.4 267.7 51.4Z" fill="#E0E0E0"/>
<path d="M115.7 322.5C115.1 311.1 107.3 307.4 107.3 307.3L107.6 306.6C107.7 306.6 115.9 310.5 116.5 322.4L115.7 322.5Z" fill="url(#paint19_linear)"/>
<path d="M188.7 364.6L188 364.5C189.7 352 199.6 347.3 199.7 347.3L200 348C199.9 348 190.4 352.5 188.7 364.6Z" fill="url(#paint20_linear)"/>
<path d="M122 338.1L208.5 375.8V377.3L188.7 388.8L99.2998 337.2V335.7L122 338.1Z" fill="#231F20"/>
<path d="M119.1 324.2L208.5 375.8L188.7 387.3L99.2998 335.7L119.1 324.2Z" fill="#5E5F61"/>
<path d="M202 374.9L199.3 376.4L187 383.5L108.5 338L105.9 336.5L120.8 327.9L202 374.9Z" fill="#4D4D4F"/>
<path d="M135.2 341.5C133.6 332.8 135.5 326.9 137.4 323.5C139.5 319.8 141.9 318.2 142 318.1L142.4 318.7C142.3 318.8 133 325.1 135.9 341.3L135.2 341.5Z" fill="#C0C2D1"/>
<path d="M126.1 308.6L134.3 314.5C134.3 314.5 142.4 305.9 140.6 298.7C140.6 298.7 132.8 298.1 126.1 308.6Z" fill="url(#paint21_linear)"/>
<path d="M120.6 308L127 304.1C127 304.1 123 295.3 117.6 295.5C117.6 295.5 115.3 300.5 120.6 308Z" fill="#E0E0E0"/>
<path d="M150.1 323.2L158.9 325C158.9 325 162.6 314.1 157.7 309.8C157.6 309.8 151.6 312.3 150.1 323.2Z" fill="#00BAFF"/>
<path d="M126.2 318.5C127.6 312.9 134.2 305.1 134.3 305.1C134.3 305.1 128.1 311.2 126 316.6C125 307.5 120.4 300.5 120.4 300.5C120.5 300.7 130.2 319 122.5 334L123.2 334.3C125.9 329.2 126.5 323.6 126.2 318.5Z" fill="url(#paint22_linear)"/>
<path d="M162.3 326.3L164.7 331C164.7 331 171.1 328.7 171.3 324.8C171.4 324.9 168 323 162.3 326.3Z" fill="url(#paint23_linear)"/>
<path d="M199.3 376.4L187 383.5L166.8 371.8L166.7 371.7L154.5 364.6L151.7 363L132.3 351.8L130.3 350.6L108.5 338L120.8 330.9L124.3 332.9L126.2 334L133.1 338L133.7 338.3L145.2 345L149.7 347.6L153.6 349.9L155.6 351.1L168.1 358.3L170 359.4L172.3 360.8L176 363L179.6 365.1L182 366.5L199.3 376.4Z" fill="#231F20"/>
<path d="M188.6 388.8V398.8L152.3 377.8L108.7 352.6L102.9 339.3L168.6 377.2L188.6 388.8Z" fill="#5A5B5F"/>
<path d="M179.6 333.2L184.3 341.2C184.3 341.2 196 336.9 198.3 329.4C198.3 329.4 189.2 326.8 179.6 333.2Z" fill="#00BAFF"/>
<path d="M206.3 378.6L204.4 389.7L200.5 391.9L188.6 398.8V388.8L193.9 385.7L206.3 378.6Z" fill="#56575A"/>
<path d="M156.6 349.4C155.3 331.8 167 326.8 167 326.8C167 326.8 164.2 328.2 161.7 331.6C159.3 334.8 156.7 340.4 157.4 349.3L156.6 349.4Z" fill="url(#paint24_linear)"/>
<path d="M165.2 356.5L164.5 356.4C166 349.1 172.8 343.1 178.2 339.4C181.8 336.9 185.8 335 190 333.7C189.8 333.7 168 342.9 165.2 356.5Z" fill="#C0C2D1"/>
<path d="M156.6 355.2C149.4 333.3 156 315.6 156 315.6C155 319.7 154.3 323.9 154 328.2C153.5 334.2 153.7 343.7 157.4 355L156.6 355.2Z" fill="#C0C2D1"/>
<path d="M170.3 361.1C169.5 366.5 168.4 369.8 167 371.7L154.8 364.6L152 363C152 361.3 152.2 359.6 152.4 357.9C152.4 357.9 153 354.1 153.8 349.9C154.8 344.7 156.1 339 156.8 339.3C158 339.8 157.7 349.1 159.1 348C160.5 346.9 160.1 334 161.7 334.2C163.3 334.3 162.2 353.6 164.2 352.9C166.2 352.2 164.4 338.8 167.1 339.3C169.3 339.7 170 354.3 170.2 359.4C170.3 360.4 170.3 361.1 170.3 361.1Z" fill="#E0E0E0"/>
<path d="M199.3 376.4L187 383.5L166.8 371.8C167.1 368.1 167.5 362.9 168 358.3C168.7 352 169.6 346.6 170.7 346.6C172.2 346.5 172.1 354.4 172.3 360.8C172.4 365.3 172.7 369.1 173.8 369.1C175.3 369.1 175.6 365.8 176.1 363C176.4 361 176.9 359.1 177.9 358.7C179.3 358.2 179.4 361.9 179.6 365C179.8 367.2 180.1 369.1 181 368.8C181.5 368.6 181.8 367.7 182 366.4C182.6 361.7 181.5 351.8 183.1 352.4C185.1 353.2 185.1 366.5 186.7 366.1C188.3 365.7 185.4 344.2 188.7 344C192 343.8 193 366.5 195.4 366.8C197.8 367.2 196.8 353 199.4 353.9C202 354.7 199.3 376.4 199.3 376.4Z" fill="#00BAFF"/>
<path d="M155.6 351C155.5 356.6 155.1 361.9 154.5 364.6L132.3 351.8L130.3 350.6C130.6 349.1 131.2 347.6 131.9 346.2C131.9 346.2 132.6 342.4 133.6 338.3C134.8 333.2 136.5 327.6 137.8 327.6C140.2 327.8 135.9 339.2 137.8 339.9C139.7 340.5 142.3 325.1 144.5 325.7C146.1 326.2 144.2 338.3 145.1 345C145.4 347.2 146 348.8 147.1 349.3C148.1 349.7 148.9 349 149.6 347.6C151.7 343 151.9 331.2 153.8 332C155.2 332.6 155.7 342.1 155.6 351Z" fill="#00BAFF"/>
<path d="M132.3 351.8L108.6 338C108.6 338 107.4 320.1 110 320.3C112.7 320.5 112.2 330.5 113.5 330.9C114.8 331.3 112.2 311.8 115.6 312.2C119 312.7 116.8 329.5 119 328.8C121.2 328.1 119.1 317.6 122.6 317.6C125.3 317.6 124 327.8 124.2 332.8C124.3 334.3 124.4 335.3 124.9 335.5C125.4 335.7 125.8 335 126.1 333.9C126.9 330.7 127.1 324 129.7 325C131.6 325.7 132.7 331.6 133 337.9C133.3 343.2 133.1 348.8 132.3 351.8Z" fill="#E0E0E0"/>
<path d="M106 309.3C107.3 309.3 108.3 308.3 108.3 307C108.3 305.7 107.3 304.7 106 304.7C104.7 304.7 103.7 305.7 103.7 307C103.7 308.3 104.7 309.3 106 309.3Z" fill="url(#paint25_linear)"/>
<path d="M199.9 350C201.2 350 202.3 348.9 202.3 347.6C202.3 346.3 201.2 345.2 199.9 345.2C198.6 345.2 197.5 346.3 197.5 347.6C197.5 348.9 198.5 350 199.9 350Z" fill="url(#paint26_linear)"/>
<path d="M145.1 319C145.4 317.8 144.7 316.7 143.5 316.4C142.3 316.1 141.2 316.8 140.9 318C140.6 319.2 141.3 320.3 142.5 320.6C143.6 320.9 144.8 320.1 145.1 319Z" fill="#E0E0E0"/>
<path d="M188.6 388.8V398.8L152.3 377.8C158.3 380.8 164.8 383.7 166.3 383C169.3 381.6 168.6 377.2 168.6 377.2L188.6 388.8Z" fill="#454549"/>
<path d="M200.5 391.9L188.6 398.8V388.8L193.9 385.7C193.9 385.7 193.9 385.8 194 385.8C194 385.8 193.2 389.5 194 391.8C194.8 394.1 200.5 391.9 200.5 391.9Z" fill="#3E3E42"/>
<path opacity="0.4" d="M305.5 245.2C305.5 245.3 305.6 245.4 305.7 245.4C305.6 244.4 305.5 245.1 305.5 245.2Z" fill="#00BAFF"/>
<path d="M518.4 285.1L515.1 287L292.8 415.3L230.3 379.2L229.7 378.9C229.4 378.7 229.2 378.5 229 378.2C228.8 377.9 228.8 377.6 228.8 377.3C228.8 377 228.9 376.7 229 376.4C229.2 376.1 229.4 375.9 229.7 375.7L256 360.5C258.6 359 261.5 358.2 264.5 358.2C267.5 358.2 270.4 359 273 360.5L295.1 373.3C297.2 374.5 299.6 375.2 302 375.2C304.4 375.2 306.8 374.6 308.9 373.3L428.5 304.4L449.1 292.5C449.5 292.3 449.8 292 450 291.6C450.2 291.2 450.3 290.8 450.3 290.4C450.3 290 450.2 289.6 450 289.2C449.8 288.8 449.5 288.5 449.1 288.3L419 271L417.7 270.3C417.4 270.1 417.2 269.9 417 269.6C416.8 269.3 416.8 269 416.8 268.7C416.8 268.4 416.9 268.1 417 267.8C417.2 267.5 417.4 267.3 417.7 267.1L444 251.9C446.6 250.4 449.6 249.6 452.6 249.6C455.6 249.6 458.6 250.4 461.2 251.9L518.4 281.4V285.1Z" fill="#231F20"/>
<path d="M515.2 287V305.4L293.2 433.5L231.2 397.7C230.9 397.5 230.7 397.3 230.5 397C230.3 396.7 230.3 396.4 230.3 396.1V379.2L292.8 415.3L515.2 287Z" fill="#E6E7E8"/>
<path d="M292.8 415.3V433.5L515.2 305.4V287L292.8 415.3Z" fill="#E0E0E0"/>
<path d="M238.1 381.3V377.7L243.1 377.3L242.2 381.1L238.1 381.3Z" fill="#231F20"/>
<path d="M457.1 296.8L436.1 306.4L416 295.3L417 269.7L438.8 281.8L457.2 292C457.7 292.3 458.1 292.6 458.3 293.1C458.6 293.5 458.7 294 458.7 294.5C458.7 295 458.5 295.5 458.2 295.9C458 296.3 457.6 296.6 457.1 296.8Z" fill="#E6E7E8"/>
<path d="M426.1 273V269L429.9 269.2V273H426.1Z" fill="#231F20"/>
<path d="M229.8 372.2L256.1 357C258.7 355.5 261.6 354.7 264.6 354.7C267.6 354.7 270.5 355.5 273.1 357L295.2 369.8C297.3 371 299.7 371.7 302.1 371.7C304.5 371.7 306.9 371.1 309 369.8L448.9 289C449.3 288.8 449.6 288.5 449.8 288.1C450 287.7 450.1 287.3 450.1 286.9C450.1 286.5 450 286.1 449.8 285.7C449.6 285.3 449.3 285 448.9 284.8L417.6 266.7C417.3 266.5 417.1 266.3 416.9 266C416.7 265.7 416.7 265.4 416.7 265.1C416.7 264.8 416.8 264.5 416.9 264.2C417.1 263.9 417.3 263.7 417.6 263.5L443.9 248.3C446.5 246.8 449.5 246 452.5 246C455.5 246 458.5 246.8 461.1 248.3L518.3 281.4L292.8 411.7L229.7 375.3C229.4 375.1 229.2 374.9 229 374.6C228.8 374.3 228.8 374 228.8 373.7C228.8 373.4 228.9 373.1 229 372.8C229.2 372.5 229.5 372.3 229.8 372.2Z" fill="#F8F8F8"/>
<path d="M322.1 220L313.9 234.6C301.6 232 288.5 231.3 275.7 232.3L270.4 217.3C287.6 215.7 305.4 216.6 322.1 220Z" fill="#E6E7E8"/>
<path d="M322.1 211.7L313.9 226.3C301.6 223.7 288.5 223 275.7 224L270.4 209C287.6 207.4 305.4 208.3 322.1 211.7Z" fill="#F8F8F8"/>
<path d="M275.6 232.2V223.9L270.3 208.9V217.2L275.6 232.2Z" fill="#B6B6BA"/>
<path d="M392.9 277.2C392.9 277.6 392.9 277.9 392.9 278.3V278.7C392.6 293 383.7 307.2 366.2 318.5L347.8 307.9L347.4 307.6C367.8 293.8 371.8 274.7 359.3 258.8C359.3 258.8 359.2 258.7 359 258.4C355.2 253.7 349.9 249.2 343.1 245.3C334.6 240.4 324.6 236.8 313.9 234.6V200.8L322.1 186.2L340.4 201.1L386.2 237.3L383.6 249.2L392.9 277.2Z" fill="#E6E7E8"/>
<path d="M392.9 244.1V277.2C392.9 277.6 392.9 277.9 392.9 278.3V278.7C392.9 280.1 392.8 281.5 392.6 282.8C390.8 295.6 382 308.2 366.2 318.5V284.7L376.8 268.7L392.9 244.1Z" fill="#E6E7E8"/>
<path d="M358.9 258.4C355.1 253.7 349.8 249.2 343 245.3C334.5 240.4 324.5 236.8 313.8 234.6V200.8L322 186.2L340.3 201.1L339.9 209.7C339.9 209.7 338.8 228.5 344.7 238.2C350 246.9 357.4 256.4 358.9 258.4Z" fill="#E6E7E8"/>
<path d="M392.5 282.7C390.7 295.5 381.9 308.1 366.1 318.4V284.6L376.7 268.6L378.1 275.2C378.1 275.1 384 306.4 392.5 282.7Z" fill="#E6E7E8"/>
<path d="M366.1 284.6L347.7 274L347.3 273.7C374 255.7 372.6 228.5 343 211.4C334.5 206.5 324.5 202.9 313.8 200.7L322 186.1C336.5 189 350.1 193.9 361.7 200.6C401.7 223.7 403.2 260.5 366.1 284.6Z" fill="#F8F8F8"/>
<path d="M347.8 274V307.8L366.2 318.4V284.6L347.8 274Z" fill="#E0E0E0"/>
<path d="M234.6 243V217.4L215.8 206.6V232.2L234.6 243Z" fill="#009AD3"/>
<path d="M264.6 321.9L256.4 336.5C240.1 333.7 224.6 328.6 211.7 321.1C191.9 309.6 181.5 294.8 180.7 279.8H180.6V252L187.7 252.5L187.8 255.4C193 247.7 201 234.4 211.7 228.2C212.6 227.7 213.5 233.3 214.4 232.8C214.9 232.5 214.6 223.7 215 223.4L221.5 235.3L221.7 235.4L224.7 237.1L234.6 242.8C233.2 243.5 231.8 244.3 230.4 245.1C228.1 246.4 225.9 247.9 223.7 249.5C223.4 249.7 223.2 249.9 222.9 250.1C214 256.9 208.9 264.8 207.4 272.9C205 286.2 212.6 300 230.3 310.2C238 314.6 246.8 318 256.2 320.2C259 320.9 261.8 321.4 264.6 321.9Z" fill="#009BD5"/>
<path d="M264.6 296.3V321.9L256.4 336.5V310.9L264.6 296.3Z" fill="#2CC6FF"/>
<path d="M366.1 318.4C366 318.5 365.8 318.6 365.7 318.7C364.4 319.5 363.1 320.3 361.8 321.1C347.7 329.3 330.6 334.6 312.5 337.2C294.1 339.9 274.6 339.6 256.3 336.5V329.9L264.5 321.9C278.6 324.2 293 324.3 307.1 322.2C320.2 320.2 332.6 316.2 342.9 310.3C344.3 309.5 345.6 308.7 346.8 307.9C346.9 307.8 347.1 307.7 347.2 307.6L347.6 307.9L366 311.9V318.4H366.1Z" fill="#00A6E3"/>
<path d="M366.1 311.8C366 311.9 365.8 312 365.7 312.1C364.4 312.9 363.1 313.7 361.8 314.5C347.7 322.7 330.6 328 312.5 330.6C308.6 331.2 304.6 331.6 300.5 331.9C297.6 332.1 294.8 332.3 291.9 332.3C280 332.6 268.1 331.8 256.3 329.8L264.5 315.2C278.6 317.5 293 317.6 307.1 315.5C311.4 314.9 315.6 314 319.8 312.9C328.2 310.7 336 307.6 342.9 303.6C344.3 302.8 345.6 302 346.8 301.2C346.9 301.1 347.1 301 347.2 300.9L347.6 301.2L366.1 311.8Z" fill="#00BAFF"/>
<path d="M256.3 310.9V336.5C240 333.7 224.5 328.6 211.6 321.1C198.7 313.7 189.8 304.8 185 295.4C185 295.3 184.9 295.3 184.9 295.3C182.3 290.2 180.9 285 180.6 279.8H180.5V252L204.5 284.3L224.5 294.6L256.3 310.9Z" fill="#00A6E3"/>
<path d="M256.3 310.9V336.5C240 333.7 224.5 328.6 211.6 321.1C198.7 313.7 189.8 304.8 185 295.4C185.7 296.6 193.8 309.8 205.6 310.9C217.9 312.1 220.2 299.9 220.2 299.9L224.6 294.6L256.3 310.9Z" fill="#00A6E3"/>
<path d="M264.6 296.3L256.4 310.9C240.1 308.1 224.6 303 211.7 295.5C170.3 271.6 170.3 232.8 211.7 208.8C213.1 208 214.5 207.3 215.9 206.5L234.7 217.3C233.3 218 231.9 218.8 230.5 219.6C227.7 221.2 225.1 223 222.5 225C218.3 228.3 214.9 231.9 212.4 235.7C201.5 252.1 207.5 271.4 230.5 284.7C240.3 290.4 252.1 294.2 264.6 296.3Z" fill="#00BAFF"/>
<path d="M289.3 291.7C313.1 291.7 332.4 280.6 332.4 266.8C332.4 253.1 313.1 241.9 289.3 241.9C265.5 241.9 246.2 253 246.2 266.8C246.2 280.6 265.5 291.7 289.3 291.7Z" fill="#292A2C"/>
<path d="M289.3 285.8C313.1 285.8 332.4 274.7 332.4 260.9C332.4 247.2 313.1 236 289.3 236C265.5 236 246.2 247.1 246.2 260.9C246.2 274.7 265.5 285.8 289.3 285.8Z" fill="#78797C"/>
<path d="M296.5 282.6C296.4 282.9 296.1 283.2 295.7 283.5C294.6 284.1 292.7 284.1 291.6 283.5C291.2 283.3 290.9 283 290.8 282.6C290.6 282.1 290.9 281.5 291.6 281.1C292.7 280.5 294.6 280.5 295.7 281.1C296.4 281.5 296.7 282.1 296.5 282.6Z" fill="#CDCDCD"/>
<path d="M296.5 282.6C296.4 282.9 296.1 283.2 295.7 283.5C294.6 284.1 292.7 284.1 291.6 283.5C291.2 283.3 290.9 283 290.8 282.6C290.9 282.3 291.2 282 291.6 281.7C292.7 281 294.6 281 295.7 281.7C296.2 282 296.4 282.3 296.5 282.6Z" fill="#231F20"/>
<path d="M312.8 279.5C312.7 279.8 312.4 280.1 312 280.4C310.9 281.1 309 281.1 307.9 280.4C307.5 280.2 307.2 279.9 307.1 279.5C306.9 279 307.2 278.4 307.9 278C309 277.3 310.9 277.3 312 278C312.7 278.4 313 279 312.8 279.5Z" fill="#CDCDCD"/>
<path d="M312.8 279.5C312.7 279.8 312.4 280.1 312 280.4C310.9 281.1 309 281.1 307.9 280.4C307.5 280.2 307.2 279.9 307.1 279.5C307.2 279.2 307.5 278.9 307.9 278.6C309 277.9 310.9 277.9 312 278.6C312.4 278.9 312.7 279.2 312.8 279.5Z" fill="#231F20"/>
<path d="M325 271.8C324.9 272.1 324.6 272.4 324.2 272.7C323.1 273.3 321.2 273.3 320.1 272.7C319.7 272.5 319.4 272.2 319.3 271.8C319.1 271.3 319.4 270.7 320.1 270.3C321.2 269.6 323.1 269.6 324.2 270.3C324.9 270.7 325.2 271.2 325 271.8Z" fill="#CDCDCD"/>
<path d="M325 271.8C324.9 272.1 324.6 272.4 324.2 272.7C323.1 273.3 321.2 273.3 320.1 272.7C319.7 272.5 319.4 272.2 319.3 271.8C319.4 271.5 319.7 271.2 320.1 270.9C321.2 270.3 323.1 270.3 324.2 270.9C324.6 271.1 324.9 271.4 325 271.8Z" fill="#231F20"/>
<path d="M274.6 281.6C274.7 281.9 275 282.2 275.4 282.5C276.5 283.1 278.4 283.1 279.5 282.5C279.9 282.3 280.2 282 280.3 281.6C280.5 281.1 280.2 280.5 279.5 280.1C278.4 279.4 276.5 279.4 275.4 280.1C274.7 280.5 274.4 281 274.6 281.6Z" fill="#CDCDCD"/>
<path d="M274.6 281.6C274.7 281.9 275 282.2 275.4 282.5C276.5 283.2 278.4 283.2 279.5 282.5C279.9 282.3 280.2 282 280.3 281.6C280.2 281.3 279.9 281 279.5 280.7C278.4 280 276.5 280 275.4 280.7C275 280.9 274.7 281.2 274.6 281.6Z" fill="#231F20"/>
<path d="M258.3 275.1C258.4 275.4 258.7 275.7 259.1 276C260.2 276.6 262.1 276.6 263.2 276C263.6 275.8 263.9 275.5 264 275.1C264.2 274.6 263.9 274 263.2 273.6C262.1 272.9 260.2 272.9 259.1 273.6C258.4 274 258.2 274.6 258.3 275.1Z" fill="#CDCDCD"/>
<path d="M258.3 275.1C258.4 275.4 258.7 275.7 259.1 276C260.2 276.6 262.1 276.6 263.2 276C263.6 275.8 263.9 275.5 264 275.1C263.9 274.8 263.6 274.5 263.2 274.2C262.1 273.6 260.2 273.6 259.1 274.2C258.7 274.5 258.4 274.8 258.3 275.1Z" fill="#231F20"/>
<path d="M320.6 263.7C319.6 267.4 316.6 271 311.7 273.8C299.3 281 279.3 281 266.9 273.8C261.9 270.9 259 267.4 258 263.7C256.5 258.1 259.5 252.3 266.9 248C279.3 240.8 299.3 240.8 311.7 248C319.1 252.3 322.1 258.1 320.6 263.7Z" fill="#231F20"/>
<path d="M320.6 263.7C319.6 267.4 316.6 271 311.7 273.8C299.3 281 279.3 281 266.9 273.8C261.9 270.9 259 267.4 258 263.7C259 260 262 256.4 266.9 253.6C279.3 246.4 299.3 246.4 311.7 253.6C316.6 256.4 319.6 260 320.6 263.7Z" fill="#D8F4FF"/>
<path d="M276.5 198.2L283 201.9L289.5 198.2L283 194.5L276.5 198.2Z" fill="url(#paint27_linear)"/>
<path d="M276.5 198.2V205.7L283 209.4V201.9L276.5 198.2Z" fill="url(#paint28_linear)"/>
<path d="M289.5 198.2V205.7L283 209.4V201.9L289.5 198.2Z" fill="url(#paint29_linear)"/>
<path d="M299.2 211.2L302.4 213.1L305.6 211.2L302.3 209.3L299.2 211.2Z" fill="#C4C4C4"/>
<path d="M299.2 211.2V215L302.4 216.9V213.1L299.2 211.2Z" fill="#CDCDCD"/>
<path d="M305.7 211.2V215L302.5 216.9V213.1L305.7 211.2Z" fill="#BABABA"/>
<path d="M292.7 192.6L296 194.5L299.2 192.6L295.9 190.7L292.7 192.6Z" fill="url(#paint30_linear)"/>
<path d="M292.7 192.6V196.4L296 198.3V194.4L292.7 192.6Z" fill="url(#paint31_linear)"/>
<path d="M299.2 192.6V196.4L296 198.3V194.4L299.2 192.6Z" fill="url(#paint32_linear)"/>
<path d="M280.9 170.8L289.5 175.8L298.1 170.8L289.5 165.8L280.9 170.8Z" fill="url(#paint33_linear)"/>
<path d="M280.9 170.8V180.7L289.5 185.7V175.8L280.9 170.8Z" fill="url(#paint34_linear)"/>
<path d="M298.1 170.8V180.7L289.5 185.7V175.8L298.1 170.8Z" fill="url(#paint35_linear)"/>
<path d="M271.3 164.8L274.5 166.7L277.7 164.8L274.5 162.9L271.3 164.8Z" fill="url(#paint36_linear)"/>
<path d="M271.3 164.8V168.5L274.5 170.4V166.7L271.3 164.8Z" fill="url(#paint37_linear)"/>
<path d="M277.8 164.8V168.5L274.6 170.4V166.7L277.8 164.8Z" fill="url(#paint38_linear)"/>
<path d="M288.4 152.3L294.1 155.6L299.7 152.3L294 149L288.4 152.3Z" fill="#C4C4C4"/>
<path d="M288.4 152.3V158.8L294.1 162.1V155.6L288.4 152.3Z" fill="#CDCDCD"/>
<path d="M299.6 152.3V158.8L294 162.1V155.6L299.6 152.3Z" fill="#BABABA"/>
<path d="M304.5 169L306.9 170.4L309.3 169L306.9 167.6L304.5 169Z" fill="#C4C4C4"/>
<path d="M304.5 169V171.8L306.9 173.2V170.4L304.5 169Z" fill="#CDCDCD"/>
<path d="M309.4 169V171.8L307 173.2V170.4L309.4 169Z" fill="#BABABA"/>
<path d="M274.1 219.2L276.5 220.6L278.9 219.2L276.5 217.8L274.1 219.2Z" fill="#C4C4C4"/>
<path d="M274.1 219.2V222L276.5 223.4V220.6L274.1 219.2Z" fill="#CDCDCD"/>
<path d="M279 219.2V222L276.6 223.4V220.6L279 219.2Z" fill="#BABABA"/>
<path d="M281.5 235.5L289.5 240.1L297.5 235.5L289.5 230.9L281.5 235.5Z" fill="url(#paint39_linear)"/>
<path d="M281.5 235.5V244.7L289.5 249.3V240.1L281.5 235.5Z" fill="url(#paint40_linear)"/>
<path d="M297.5 235.5V244.7L289.5 249.3V240.1L297.5 235.5Z" fill="url(#paint41_linear)"/>
</g>
<defs>
<filter id="filter0_d" x="-12" y="-8" width="624" height="474" filterUnits="userSpaceOnUse" color-interpolation-filters="sRGB">
<feFlood flood-opacity="0" result="BackgroundImageFix"/>
<feColorMatrix in="SourceAlpha" type="matrix" values="0 0 0 0 0 0 0 0 0 0 0 0 0 0 0 0 0 0 127 0" result="hardAlpha"/>
<feOffset dy="4"/>
<feGaussianBlur stdDeviation="6"/>
<feColorMatrix type="matrix" values="0 0 0 0 0 0 0 0 0 0 0 0 0 0 0 0 0 0 0.4 0"/>
<feBlend mode="normal" in2="BackgroundImageFix" result="effect1_dropShadow"/>
<feBlend mode="normal" in="SourceGraphic" in2="effect1_dropShadow" result="shape"/>
</filter>
<linearGradient id="paint0_linear" x1="73.5059" y1="61.0738" x2="134.096" y2="61.0738" gradientUnits="userSpaceOnUse">
<stop stop-color="#71439A"/>
<stop offset="0.8668" stop-color="#A76CAD"/>
</linearGradient>
<linearGradient id="paint1_linear" x1="419.242" y1="154.854" x2="435.214" y2="154.854" gradientUnits="userSpaceOnUse">
<stop stop-color="#71439A"/>
<stop offset="0.8668" stop-color="#A76CAD"/>
</linearGradient>
<linearGradient id="paint2_linear" x1="427.222" y1="161.768" x2="435.213" y2="161.768" gradientUnits="userSpaceOnUse">
<stop stop-color="#71439A"/>
<stop offset="0.8668" stop-color="#A76CAD"/>
</linearGradient>
<linearGradient id="paint3_linear" x1="419.242" y1="161.771" x2="427.233" y2="161.771" gradientUnits="userSpaceOnUse">
<stop stop-color="#71439A"/>
<stop offset="0.8668" stop-color="#A76CAD"/>
</linearGradient>
<linearGradient id="paint4_linear" x1="395.949" y1="125.913" x2="404.711" y2="125.913" gradientUnits="userSpaceOnUse">
<stop stop-color="#71439A"/>
<stop offset="0.8668" stop-color="#A76CAD"/>
</linearGradient>
<linearGradient id="paint5_linear" x1="400.326" y1="129.706" x2="404.71" y2="129.706" gradientUnits="userSpaceOnUse">
<stop stop-color="#71439A"/>
<stop offset="0.8668" stop-color="#A76CAD"/>
</linearGradient>
<linearGradient id="paint6_linear" x1="395.949" y1="129.708" x2="400.332" y2="129.708" gradientUnits="userSpaceOnUse">
<stop stop-color="#71439A"/>
<stop offset="0.8668" stop-color="#A76CAD"/>
</linearGradient>
<linearGradient id="paint7_linear" x1="410.725" y1="121.628" x2="416.815" y2="121.628" gradientUnits="userSpaceOnUse">
<stop stop-color="#71439A"/>
<stop offset="0.8668" stop-color="#A76CAD"/>
</linearGradient>
<linearGradient id="paint8_linear" x1="413.768" y1="124.264" x2="416.814" y2="124.264" gradientUnits="userSpaceOnUse">
<stop stop-color="#71439A"/>
<stop offset="0.8668" stop-color="#A76CAD"/>
</linearGradient>
<linearGradient id="paint9_linear" x1="410.725" y1="124.265" x2="413.773" y2="124.265" gradientUnits="userSpaceOnUse">
<stop stop-color="#71439A"/>
<stop offset="0.8668" stop-color="#A76CAD"/>
</linearGradient>
<linearGradient id="paint10_linear" x1="222.044" y1="68.1697" x2="228.231" y2="68.1697" gradientUnits="userSpaceOnUse">
<stop stop-color="#71439A"/>
<stop offset="0.8668" stop-color="#A76CAD"/>
</linearGradient>
<linearGradient id="paint11_linear" x1="161.251" y1="30.2625" x2="169.058" y2="30.2625" gradientUnits="userSpaceOnUse">
<stop stop-color="#71439A"/>
<stop offset="0.8668" stop-color="#A76CAD"/>
</linearGradient>
<linearGradient id="paint12_linear" x1="170.042" y1="55.4693" x2="177.849" y2="55.4693" gradientUnits="userSpaceOnUse">
<stop stop-color="#71439A"/>
<stop offset="0.8668" stop-color="#A76CAD"/>
</linearGradient>
<linearGradient id="paint13_linear" x1="211.756" y1="96.6705" x2="217.858" y2="96.6705" gradientUnits="userSpaceOnUse">
<stop stop-color="#71439A"/>
<stop offset="0.8668" stop-color="#A76CAD"/>
</linearGradient>
<linearGradient id="paint14_linear" x1="100.036" y1="116.187" x2="109.058" y2="116.187" gradientUnits="userSpaceOnUse">
<stop stop-color="#71439A"/>
<stop offset="0.8668" stop-color="#A76CAD"/>
</linearGradient>
<linearGradient id="paint15_linear" x1="218.103" y1="144.285" x2="224.686" y2="144.285" gradientUnits="userSpaceOnUse">
<stop stop-color="#71439A"/>
<stop offset="0.8668" stop-color="#A76CAD"/>
</linearGradient>
<linearGradient id="paint16_linear" x1="125.442" y1="121.092" x2="131.714" y2="121.092" gradientUnits="userSpaceOnUse">
<stop stop-color="#71439A"/>
<stop offset="0.8668" stop-color="#A76CAD"/>
</linearGradient>
<linearGradient id="paint17_linear" x1="103.802" y1="160.028" x2="110.074" y2="160.028" gradientUnits="userSpaceOnUse">
<stop stop-color="#71439A"/>
<stop offset="0.8668" stop-color="#A76CAD"/>
</linearGradient>
<linearGradient id="paint18_linear" x1="124.84" y1="169.78" x2="132.134" y2="169.78" gradientUnits="userSpaceOnUse">
<stop stop-color="#71439A"/>
<stop offset="0.8668" stop-color="#A76CAD"/>
</linearGradient>
<linearGradient id="paint19_linear" x1="107.271" y1="314.548" x2="116.462" y2="314.548" gradientUnits="userSpaceOnUse">
<stop stop-color="#71439A"/>
<stop offset="0.8668" stop-color="#A76CAD"/>
</linearGradient>
<linearGradient id="paint20_linear" x1="187.969" y1="355.905" x2="200.023" y2="355.905" gradientUnits="userSpaceOnUse">
<stop stop-color="#71439A"/>
<stop offset="0.8668" stop-color="#A76CAD"/>
</linearGradient>
<linearGradient id="paint21_linear" x1="126.056" y1="306.627" x2="140.797" y2="306.627" gradientUnits="userSpaceOnUse">
<stop stop-color="#71439A"/>
<stop offset="0.8668" stop-color="#A76CAD"/>
</linearGradient>
<linearGradient id="paint22_linear" x1="120.425" y1="317.406" x2="134.284" y2="317.406" gradientUnits="userSpaceOnUse">
<stop stop-color="#71439A"/>
<stop offset="0.8668" stop-color="#A76CAD"/>
</linearGradient>
<linearGradient id="paint23_linear" x1="162.332" y1="327.694" x2="171.354" y2="327.694" gradientUnits="userSpaceOnUse">
<stop stop-color="#71439A"/>
<stop offset="0.8668" stop-color="#A76CAD"/>
</linearGradient>
<linearGradient id="paint24_linear" x1="156.457" y1="338.092" x2="167.006" y2="338.092" gradientUnits="userSpaceOnUse">
<stop stop-color="#71439A"/>
<stop offset="0.8668" stop-color="#A76CAD"/>
</linearGradient>
<linearGradient id="paint25_linear" x1="103.616" y1="307.007" x2="108.286" y2="307.007" gradientUnits="userSpaceOnUse">
<stop stop-color="#71439A"/>
<stop offset="0.8668" stop-color="#A76CAD"/>
</linearGradient>
<linearGradient id="paint26_linear" x1="197.45" y1="347.588" x2="202.28" y2="347.588" gradientUnits="userSpaceOnUse">
<stop stop-color="#71439A"/>
<stop offset="0.8668" stop-color="#A76CAD"/>
</linearGradient>
<linearGradient id="paint27_linear" x1="276.539" y1="198.168" x2="289.48" y2="198.168" gradientUnits="userSpaceOnUse">
<stop stop-color="#71439A"/>
<stop offset="0.8668" stop-color="#A76CAD"/>
</linearGradient>
<linearGradient id="paint28_linear" x1="276.539" y1="203.774" x2="283.017" y2="203.774" gradientUnits="userSpaceOnUse">
<stop stop-color="#71439A"/>
<stop offset="0.8668" stop-color="#A76CAD"/>
</linearGradient>
<linearGradient id="paint29_linear" x1="283.017" y1="203.778" x2="289.479" y2="203.778" gradientUnits="userSpaceOnUse">
<stop stop-color="#71439A"/>
<stop offset="0.8668" stop-color="#A76CAD"/>
</linearGradient>
<linearGradient id="paint30_linear" x1="292.726" y1="192.558" x2="299.218" y2="192.558" gradientUnits="userSpaceOnUse">
<stop stop-color="#71439A"/>
<stop offset="0.8668" stop-color="#A76CAD"/>
</linearGradient>
<linearGradient id="paint31_linear" x1="292.726" y1="195.37" x2="295.976" y2="195.37" gradientUnits="userSpaceOnUse">
<stop stop-color="#71439A"/>
<stop offset="0.8668" stop-color="#A76CAD"/>
</linearGradient>
<linearGradient id="paint32_linear" x1="295.975" y1="195.373" x2="299.218" y2="195.373" gradientUnits="userSpaceOnUse">
<stop stop-color="#71439A"/>
<stop offset="0.8668" stop-color="#A76CAD"/>
</linearGradient>
<linearGradient id="paint33_linear" x1="280.894" y1="170.765" x2="298.094" y2="170.765" gradientUnits="userSpaceOnUse">
<stop stop-color="#71439A"/>
<stop offset="0.8668" stop-color="#A76CAD"/>
</linearGradient>
<linearGradient id="paint34_linear" x1="280.894" y1="178.215" x2="289.504" y2="178.215" gradientUnits="userSpaceOnUse">
<stop stop-color="#71439A"/>
<stop offset="0.8668" stop-color="#A76CAD"/>
</linearGradient>
<linearGradient id="paint35_linear" x1="289.504" y1="178.22" x2="298.094" y2="178.22" gradientUnits="userSpaceOnUse">
<stop stop-color="#71439A"/>
<stop offset="0.8668" stop-color="#A76CAD"/>
</linearGradient>
<linearGradient id="paint36_linear" x1="271.341" y1="164.832" x2="277.787" y2="164.832" gradientUnits="userSpaceOnUse">
<stop stop-color="#71439A"/>
<stop offset="0.8668" stop-color="#A76CAD"/>
</linearGradient>
<linearGradient id="paint37_linear" x1="271.341" y1="167.625" x2="274.568" y2="167.625" gradientUnits="userSpaceOnUse">
<stop stop-color="#71439A"/>
<stop offset="0.8668" stop-color="#A76CAD"/>
</linearGradient>
<linearGradient id="paint38_linear" x1="274.568" y1="167.627" x2="277.787" y2="167.627" gradientUnits="userSpaceOnUse">
<stop stop-color="#71439A"/>
<stop offset="0.8668" stop-color="#A76CAD"/>
</linearGradient>
<linearGradient id="paint39_linear" x1="281.523" y1="235.468" x2="297.484" y2="235.468" gradientUnits="userSpaceOnUse">
<stop stop-color="#71439A"/>
<stop offset="0.8668" stop-color="#A76CAD"/>
</linearGradient>
<linearGradient id="paint40_linear" x1="281.523" y1="242.382" x2="289.512" y2="242.382" gradientUnits="userSpaceOnUse">
<stop stop-color="#71439A"/>
<stop offset="0.8668" stop-color="#A76CAD"/>
</linearGradient>
<linearGradient id="paint41_linear" x1="289.512" y1="242.388" x2="297.484" y2="242.388" gradientUnits="userSpaceOnUse">
<stop stop-color="#71439A"/>
<stop offset="0.8668" stop-color="#A76CAD"/>
</linearGradient>
</defs>
</svg>
