<svg width="600" height="478" viewBox="0 0 600 478" fill="none" xmlns="http://www.w3.org/2000/svg">
<g filter="url(#filter0_d)">
<path d="M125.2 243.3L126.8 244.2C127.9 244.8 129.1 245.1 130.3 245.1C131.5 245.1 132.7 244.8 133.8 244.2L205.4 202.9C205.8 202.7 206.1 202.4 206.3 202C206.5 201.6 206.6 201.2 206.6 200.8C206.6 200.4 206.5 200 206.3 199.6C206.1 199.2 205.8 198.9 205.4 198.7L203.8 197.8C202.7 197.2 201.5 196.9 200.3 196.9C199.1 196.9 197.9 197.2 196.8 197.8L125.2 239.1C124.8 239.3 124.5 239.6 124.3 240C124.1 240.4 124 240.8 124 241.2C124 241.6 124.1 242 124.3 242.4C124.5 242.8 124.8 243.1 125.2 243.3Z" fill="#A9ABAE"/>
<path d="M122.9 225.3L196.6 182.8C198.8 181.5 200.7 179.6 202 177.4C203.3 175.2 204 172.6 204 170V24.3C204 23.6 203.8 22.8 203.4 22.2C203 21.6 202.5 21 201.8 20.6C201.2 20.2 200.4 20 199.7 20C199 20 198.2 20.2 197.6 20.6L123.9 63.2C121.7 64.5 119.8 66.4 118.5 68.6C117.2 70.8 116.5 73.4 116.5 76V221.7C116.5 222.4 116.7 223.2 117.1 223.8C117.5 224.4 118 225 118.7 225.4C119.3 225.8 120.1 226 120.8 226C121.5 225.9 122.2 225.7 122.9 225.3Z" fill="#00BAFF"/>
<path d="M123.6 227.3L118.9 225.2L119.3 222.9L126.7 223.5L123.6 227.3Z" fill="#00BAFF"/>
<path d="M201.3 20.4L206.3 22.6L203.3 25.5L199.7 22L201.3 20.4Z" fill="#00BAFF"/>
<path d="M127.8 227.5L201.5 185C203.7 183.7 205.6 181.8 206.9 179.6C208.2 177.4 208.9 174.8 208.9 172.2V26.5001C208.9 25.8001 208.7 25.0001 208.3 24.4001C207.9 23.8001 207.4 23.2001 206.7 22.8001C206.1 22.4001 205.3 22.2001 204.6 22.2001C203.9 22.2001 203.1 22.4001 202.5 22.8001L128.8 65.4001C126.6 66.7001 124.7 68.6001 123.4 70.8001C122.1 73.0001 121.4 75.6001 121.4 78.2001V223.9C121.4 224.6 121.6 225.4 122 226C122.4 226.6 122.9 227.2 123.6 227.6C124.2 228 125 228.2 125.7 228.2C126.4 228 127.1 227.8 127.8 227.5Z" fill="#231F20"/>
<path d="M206.1 169.1C206.1 171.5 205.5 173.9 204.2 176C203 178.1 201.2 179.9 199.1 181.1L130.1 220.9C129.5 221.2 128.8 221.4 128.1 221.4C127.4 221.4 126.7 221.2 126.1 220.9C125.5 220.6 125 220 124.6 219.4C124.3 218.8 124.1 218.1 124.1 217.4V81.1001C124.1 78.7001 124.7 76.3001 126 74.2001C127.2 72.1001 129 70.4001 131.1 69.1001L143.3 62.0001L185.3 37.7001L200 29.2001C200.6 28.9001 201.3 28.7001 202 28.7001C202.7 28.7001 203.4 28.9001 204 29.2001C204.6 29.5001 205.1 30.1001 205.5 30.7001C205.8 31.3001 206 32.0001 206 32.7001L206.1 169.1Z" fill="#F8F8F8"/>
<path d="M185.5 36.8L183.1 46.4C183 46.9 182.7 47.4001 182.4 47.8001C182.1 48.2001 181.7 48.6 181.2 48.9L152 65.5C151.6 65.7 151.1 65.9 150.7 65.9C150.2 65.9 149.8 65.8 149.4 65.5L142.6 61.7L185.5 36.8Z" fill="#231F20"/>
<path d="M85.9997 276.1C98.5997 276.1 108.8 270.2 108.8 262.9C108.8 255.6 98.5997 249.7 85.9997 249.7C73.3997 249.7 63.1997 255.6 63.1997 262.9C63.1997 270.2 73.3997 276.1 85.9997 276.1Z" fill="#E0E0E0"/>
<path d="M125.2 77.4001C137 56.9001 137 34.8001 125.2 27.9001C113.4 21.1001 94.1998 32.1001 82.3998 52.6001C70.5998 73.1001 70.5998 95.2001 82.3998 102.1C94.1998 109 113.4 97.9001 125.2 77.4001Z" fill="url(#paint0_linear)"/>
<path d="M85.9997 273.6C98.5997 273.6 108.8 267.7 108.8 260.4C108.8 253.1 98.5997 247.2 85.9997 247.2C73.3997 247.2 63.1997 253.1 63.1997 260.4C63.1997 267.7 73.3997 273.6 85.9997 273.6Z" fill="#00BAFF"/>
<path d="M80.4997 260.5C83.6997 260.5 86.1997 259 86.1997 257.2C86.1997 255.4 83.5997 253.9 80.4997 253.9C77.2997 253.9 74.7997 255.4 74.7997 257.2C74.6997 259 77.2997 260.5 80.4997 260.5Z" fill="#FFBDCD"/>
<path d="M102.7 258.3C103.9 261.5 102.4 264.9 98.1 267.4C93.9 269.8 88.2 270.7 82.8 270.1C80.9 267.1 80.7 263.5 86 260.4C90.9 257.6 96.8 257 102.7 258.3Z" fill="#FFBDCD"/>
<path d="M85.9997 271.6C98.5997 271.6 108.8 265.7 108.8 258.4C108.8 251.1 98.5997 245.2 85.9997 245.2C73.3997 245.2 63.1997 251.1 63.1997 258.4C63.1997 265.7 73.3997 271.6 85.9997 271.6Z" fill="#E0E0E0"/>
<path d="M85.9997 269.1C98.5997 269.1 108.8 263.2 108.8 255.9C108.8 248.6 98.5997 242.7 85.9997 242.7C73.3997 242.7 63.1997 248.6 63.1997 255.9C63.1997 263.2 73.3997 269.1 85.9997 269.1Z" fill="#00BAFF"/>
<path d="M80.4997 256C83.6997 256 86.1997 254.5 86.1997 252.7C86.1997 250.9 83.5997 249.4 80.4997 249.4C77.2997 249.4 74.7997 250.9 74.7997 252.7C74.6997 254.5 77.2997 256 80.4997 256Z" fill="#FFBDCD"/>
<path d="M102.7 253.8C103.9 257 102.4 260.4 98.1 262.9C93.9 265.3 88.2 266.2 82.8 265.6C80.9 262.6 80.7 259 86 255.9C90.9 253.1 96.8 252.5 102.7 253.8Z" fill="#FFBDCD"/>
<path d="M85.9997 267.1C98.5997 267.1 108.8 261.2 108.8 253.9C108.8 246.6 98.5997 240.7 85.9997 240.7C73.3997 240.7 63.1997 246.6 63.1997 253.9C63.1997 261.2 73.3997 267.1 85.9997 267.1Z" fill="#E0E0E0"/>
<path d="M85.9997 264.6C98.5997 264.6 108.8 258.7 108.8 251.4C108.8 244.1 98.5997 238.2 85.9997 238.2C73.3997 238.2 63.1997 244.1 63.1997 251.4C63.1997 258.7 73.3997 264.6 85.9997 264.6Z" fill="#00BAFF"/>
<path d="M80.4997 251.5C83.6997 251.5 86.1997 250 86.1997 248.2C86.1997 246.4 83.5997 244.9 80.4997 244.9C77.2997 244.9 74.7997 246.4 74.7997 248.2C74.6997 250 77.2997 251.5 80.4997 251.5Z" fill="#FFBDCD"/>
<path d="M102.7 249.3C103.9 252.5 102.4 255.9 98.1 258.4C93.9 260.8 88.2 261.7 82.8 261.1C80.9 258.1 80.7 254.5 86 251.4C90.9 248.6 96.8 248.1 102.7 249.3Z" fill="#FFBDCD"/>
<path d="M85.9997 262.6C98.5997 262.6 108.8 256.7 108.8 249.4C108.8 242.1 98.5997 236.2 85.9997 236.2C73.3997 236.2 63.1997 242.1 63.1997 249.4C63.1997 256.7 73.3997 262.6 85.9997 262.6Z" fill="#E0E0E0"/>
<path d="M85.9997 260.1C98.5997 260.1 108.8 254.2 108.8 246.9C108.8 239.6 98.5997 233.7 85.9997 233.7C73.3997 233.7 63.1997 239.6 63.1997 246.9C63.1997 254.2 73.3997 260.1 85.9997 260.1Z" fill="#00BAFF"/>
<path d="M80.4997 247C83.6997 247 86.1997 245.5 86.1997 243.7C86.1997 241.9 83.5997 240.4 80.4997 240.4C77.2997 240.4 74.7997 241.9 74.7997 243.7C74.6997 245.5 77.2997 247 80.4997 247Z" fill="#FFBDCD"/>
<path d="M102.7 244.8C103.9 248 102.4 251.4 98.1 253.9C93.9 256.3 88.2 257.2 82.8 256.6C80.9 253.6 80.7 250 86 246.9C90.9 244.1 96.8 243.6 102.7 244.8Z" fill="#FFBDCD"/>
<path d="M85.9997 258.1C98.5997 258.1 108.8 252.2 108.8 244.9C108.8 237.6 98.5997 231.7 85.9997 231.7C73.3997 231.7 63.1997 237.6 63.1997 244.9C63.1997 252.2 73.3997 258.1 85.9997 258.1Z" fill="#E0E0E0"/>
<path d="M85.9997 255.6C98.5997 255.6 108.8 249.7 108.8 242.4C108.8 235.1 98.5997 229.2 85.9997 229.2C73.3997 229.2 63.1997 235.1 63.1997 242.4C63.1997 249.7 73.3997 255.6 85.9997 255.6Z" fill="#00BAFF"/>
<path d="M80.4997 242.5C83.6997 242.5 86.1997 241 86.1997 239.2C86.1997 237.4 83.5997 235.9 80.4997 235.9C77.2997 235.9 74.7997 237.4 74.7997 239.2C74.6997 241 77.2997 242.5 80.4997 242.5Z" fill="white"/>
<path d="M102.7 240.3C103.9 243.5 102.4 246.9 98.1 249.4C93.9 251.8 88.2 252.7 82.8 252.1C80.9 249.1 80.7 245.5 86 242.4C90.9 239.6 96.8 239.1 102.7 240.3Z" fill="white"/>
<path d="M109.8 235.6C111.4 228.5 102.8 220.5 90.6 217.6C78.3 214.8 67.1 218.2 65.4 225.3C63.8 232.4 72.4 240.4 84.6 243.3C96.9 246.2 108.2 242.7 109.8 235.6Z" fill="#E0E0E0"/>
<path d="M110.4 233.2C112 226.1 103.4 218.1 91.1997 215.2C78.8997 212.4 67.6997 215.8 65.9997 222.9C64.3997 230 72.9997 238 85.1997 240.9C97.4997 243.7 108.8 240.2 110.4 233.2Z" fill="#00BAFF"/>
<path d="M89.1 224.9C89.5 223.1 87.4 221.1 84.3 220.4C81.2 219.7 78.4 220.5 78 222.3C77.6 224.1 79.7 226.1 82.8 226.8C85.8 227.5 88.7 226.7 89.1 224.9Z" fill="white"/>
<path d="M105 229.7C105.5 233.1 103.2 236.1 98.4999 237.5C93.8999 238.9 88.0999 238.5 82.9999 236.7C81.7999 233.3 82.3999 229.8 88.2999 228C93.5999 226.4 99.3999 227.2 105 229.7Z" fill="white"/>
<path d="M76.1 300.7C83.3 300.7 89.2 297.3 89.2 293.1C89.2 288.9 83.3 285.5 76.1 285.5C68.9 285.5 63 288.9 63 293.1C63 297.3 68.8 300.7 76.1 300.7Z" fill="#E0E0E0"/>
<path d="M76.1 299.2C83.3 299.2 89.2 295.8 89.2 291.6C89.2 287.4 83.3 284 76.1 284C68.9 284 63 287.4 63 291.6C63 295.8 68.8 299.2 76.1 299.2Z" fill="#00BAFF"/>
<path d="M72.8996 291.7C74.6996 291.7 76.1996 290.9 76.1996 289.8C76.1996 288.8 74.6996 287.9 72.8996 287.9C71.0996 287.9 69.5996 288.7 69.5996 289.8C69.5996 290.9 70.9996 291.7 72.8996 291.7Z" fill="#FFBDCD"/>
<path d="M85.5998 290.5C86.2998 292.3 85.3998 294.3 82.9998 295.7C80.5998 297.1 77.2998 297.6 74.1998 297.3C73.0998 295.6 72.9998 293.5 75.9998 291.7C78.7998 290.1 82.1998 289.8 85.5998 290.5Z" fill="#FFBDCD"/>
<path d="M76.1 298.1C83.3 298.1 89.2 294.7 89.2 290.5C89.2 286.3 83.3 282.9 76.1 282.9C68.9 282.9 63 286.3 63 290.5C63 294.7 68.8 298.1 76.1 298.1Z" fill="#E0E0E0"/>
<path d="M76.1 296.6C83.3 296.6 89.2 293.2 89.2 289C89.2 284.8 83.3 281.4 76.1 281.4C68.9 281.4 63 284.8 63 289C63 293.2 68.8 296.6 76.1 296.6Z" fill="#00BAFF"/>
<path d="M72.8996 289.1C74.6996 289.1 76.1996 288.3 76.1996 287.2C76.1996 286.2 74.6996 285.3 72.8996 285.3C71.0996 285.3 69.5996 286.1 69.5996 287.2C69.5996 288.3 70.9996 289.1 72.8996 289.1Z" fill="#FFBDCD"/>
<path d="M85.5998 287.9C86.2998 289.7 85.3998 291.7 82.9998 293.1C80.5998 294.5 77.2998 295 74.1998 294.7C73.0998 293 72.9998 290.9 75.9998 289.1C78.7998 287.5 82.1998 287.2 85.5998 287.9Z" fill="#FFBDCD"/>
<path d="M76.1 295.5C83.3 295.5 89.2 292.1 89.2 287.9C89.2 283.7 83.3 280.4 76.1 280.4C68.9 280.4 63 283.8 63 288C63 292.2 68.8 295.5 76.1 295.5Z" fill="#E0E0E0"/>
<path d="M76.1 294.1C83.3 294.1 89.2 290.7 89.2 286.5C89.2 282.3 83.3 278.9 76.1 278.9C68.9 278.9 63 282.3 63 286.5C63 290.7 68.8 294.1 76.1 294.1Z" fill="#00BAFF"/>
<path d="M72.8996 286.6C74.6996 286.6 76.1996 285.8 76.1996 284.7C76.1996 283.7 74.6996 282.8 72.8996 282.8C71.0996 282.8 69.5996 283.6 69.5996 284.7C69.5996 285.7 70.9996 286.6 72.8996 286.6Z" fill="#FFBDCD"/>
<path d="M85.5998 285.3C86.2998 287.1 85.3998 289.1 82.9998 290.5C80.5998 291.9 77.2998 292.4 74.1998 292.1C73.0998 290.4 72.9998 288.3 75.9998 286.5C78.7998 284.9 82.1998 284.6 85.5998 285.3Z" fill="#FFBDCD"/>
<path d="M76.1 293C83.3 293 89.2 289.6 89.2 285.4C89.2 281.2 83.3 277.8 76.1 277.8C68.9 277.8 63 281.2 63 285.4C63 289.6 68.8 293 76.1 293Z" fill="#E0E0E0"/>
<path d="M76.1 291.5C83.3 291.5 89.2 288.1 89.2 283.9C89.2 279.7 83.3 276.3 76.1 276.3C68.9 276.3 63 279.7 63 283.9C63 288.1 68.8 291.5 76.1 291.5Z" fill="#00BAFF"/>
<path d="M72.8996 284C74.6996 284 76.1996 283.2 76.1996 282.1C76.1996 281.1 74.6996 280.2 72.8996 280.2C71.0996 280.2 69.5996 281 69.5996 282.1C69.5996 283.1 70.9996 284 72.8996 284Z" fill="#FFBDCD"/>
<path d="M85.5998 282.7C86.2998 284.5 85.3998 286.5 82.9998 287.9C80.5998 289.3 77.2998 289.8 74.1998 289.5C73.0998 287.8 72.9998 285.7 75.9998 283.9C78.7998 282.3 82.1998 282 85.5998 282.7Z" fill="#FFBDCD"/>
<path d="M76.1 290.4C83.3 290.4 89.2 287 89.2 282.8C89.2 278.6 83.3 275.2 76.1 275.2C68.9 275.2 63 278.6 63 282.8C63 287 68.8 290.4 76.1 290.4Z" fill="#E0E0E0"/>
<path d="M76.1 288.9C83.3 288.9 89.2 285.5 89.2 281.3C89.2 277.1 83.3 273.7 76.1 273.7C68.9 273.7 63 277.1 63 281.3C63 285.5 68.8 288.9 76.1 288.9Z" fill="#00BAFF"/>
<path d="M72.8996 281.4C74.6996 281.4 76.1996 280.6 76.1996 279.5C76.1996 278.5 74.6996 277.6 72.8996 277.6C71.0996 277.6 69.5996 278.4 69.5996 279.5C69.5996 280.6 70.9996 281.4 72.8996 281.4Z" fill="white"/>
<path d="M85.5998 280.1C86.2998 281.9 85.3998 283.9 82.9998 285.3C80.5998 286.7 77.2998 287.2 74.1998 286.9C73.0998 285.2 72.9998 283.1 75.9998 281.3C78.7998 279.8 82.1998 279.4 85.5998 280.1Z" fill="white"/>
<path d="M89.6999 277.5C90.5999 273.4 85.6999 268.8 78.6999 267.2C71.6999 265.6 65.1999 267.5 64.2999 271.6C63.3999 275.7 68.2999 280.3 75.2999 281.9C82.2999 283.5 88.7999 281.5 89.6999 277.5Z" fill="#E0E0E0"/>
<path d="M89.9997 276.1C90.8997 272 85.9997 267.4 78.9997 265.8C71.9997 264.2 65.4997 266.1 64.5997 270.2C63.6997 274.3 68.5997 278.9 75.5997 280.5C82.5997 282.1 89.0997 280.1 89.9997 276.1Z" fill="#00BAFF"/>
<path d="M77.7997 271.3C77.9997 270.3 76.7997 269.1 74.9997 268.7C73.1997 268.3 71.5997 268.8 71.3997 269.8C71.1997 270.8 72.3997 272 74.1997 272.4C75.8997 272.8 77.5997 272.3 77.7997 271.3Z" fill="white"/>
<path d="M86.8997 274.1C87.1997 276 85.8997 277.8 83.0997 278.6C80.4997 279.4 77.0997 279.2 74.1997 278.1C73.4997 276.2 73.8997 274.1 77.2997 273.1C80.3997 272.2 83.6997 272.6 86.8997 274.1Z" fill="white"/>
<path d="M240.2 189.1C248.8 189.1 255.7 185.1 255.7 180.1C255.7 175.2 248.8 171.1 240.2 171.1C231.6 171.1 224.7 175.1 224.7 180.1C224.7 185.1 231.7 189.1 240.2 189.1Z" fill="#E0E0E0"/>
<path d="M240.2 187.4C248.8 187.4 255.7 183.4 255.7 178.4C255.7 173.4 248.8 169.4 240.2 169.4C231.6 169.4 224.7 173.4 224.7 178.4C224.7 183.4 231.7 187.4 240.2 187.4Z" fill="#00BAFF"/>
<path d="M236.5 178.5C238.6 178.5 240.4 177.5 240.4 176.3C240.4 175.1 238.7 174.1 236.5 174.1C234.4 174.1 232.6 175.1 232.6 176.3C232.6 177.5 234.3 178.5 236.5 178.5Z" fill="#FFBDCD"/>
<path d="M251.6 177C252.4 179.2 251.4 181.5 248.5 183.2C245.7 184.8 241.7 185.4 238.1 185C236.8 182.9 236.6 180.5 240.3 178.4C243.5 176.5 247.5 176.2 251.6 177Z" fill="#FFBDCD"/>
<path d="M240.2 186.1C248.8 186.1 255.7 182.1 255.7 177.1C255.7 172.2 248.8 168.1 240.2 168.1C231.6 168.1 224.7 172.1 224.7 177.1C224.7 182.1 231.7 186.1 240.2 186.1Z" fill="#E0E0E0"/>
<path d="M240.2 184.3C248.8 184.3 255.7 180.3 255.7 175.3C255.7 170.4 248.8 166.3 240.2 166.3C231.6 166.3 224.7 170.3 224.7 175.3C224.7 180.3 231.7 184.3 240.2 184.3Z" fill="#00BAFF"/>
<path d="M236.5 175.4C238.6 175.4 240.4 174.4 240.4 173.2C240.4 172 238.7 171 236.5 171C234.4 171 232.6 172 232.6 173.2C232.6 174.4 234.3 175.4 236.5 175.4Z" fill="#FFBDCD"/>
<path d="M251.6 173.9C252.4 176.1 251.4 178.4 248.5 180.1C245.7 181.7 241.7 182.3 238.1 181.9C236.8 179.8 236.6 177.4 240.3 175.3C243.5 173.5 247.5 173.1 251.6 173.9Z" fill="#FFBDCD"/>
<path d="M240.2 183C248.8 183 255.7 179 255.7 174C255.7 169 248.8 165 240.2 165C231.6 165 224.7 169 224.7 174C224.7 179 231.7 183 240.2 183Z" fill="#E0E0E0"/>
<path d="M240.2 181.3C248.8 181.3 255.7 177.3 255.7 172.3C255.7 167.4 248.8 163.3 240.2 163.3C231.6 163.3 224.7 167.3 224.7 172.3C224.7 177.3 231.7 181.3 240.2 181.3Z" fill="#00BAFF"/>
<path d="M236.5 172.4C238.6 172.4 240.4 171.4 240.4 170.2C240.4 169 238.7 168 236.5 168C234.4 168 232.6 169 232.6 170.2C232.6 171.4 234.3 172.4 236.5 172.4Z" fill="#FFBDCD"/>
<path d="M251.6 170.9C252.4 173.1 251.4 175.4 248.5 177.1C245.7 178.7 241.7 179.3 238.1 178.9C236.8 176.8 236.6 174.4 240.3 172.3C243.5 170.4 247.5 170.1 251.6 170.9Z" fill="#FFBDCD"/>
<path d="M240.2 180C248.8 180 255.7 176 255.7 171C255.7 166.1 248.8 162 240.2 162C231.6 162 224.7 166 224.7 171C224.7 176 231.7 180 240.2 180Z" fill="#E0E0E0"/>
<path d="M240.2 178.2C248.8 178.2 255.7 174.2 255.7 169.2C255.7 164.3 248.8 160.2 240.2 160.2C231.6 160.2 224.7 164.2 224.7 169.2C224.7 174.2 231.7 178.2 240.2 178.2Z" fill="#00BAFF"/>
<path d="M236.5 169.3C238.6 169.3 240.4 168.3 240.4 167.1C240.4 165.9 238.7 164.9 236.5 164.9C234.4 164.9 232.6 165.9 232.6 167.1C232.6 168.3 234.3 169.3 236.5 169.3Z" fill="#FFBDCD"/>
<path d="M251.6 167.8C252.4 170 251.4 172.3 248.5 174C245.7 175.6 241.7 176.2 238.1 175.8C236.8 173.7 236.6 171.3 240.3 169.2C243.5 167.4 247.5 167 251.6 167.8Z" fill="#FFBDCD"/>
<path d="M240.2 176.9C248.8 176.9 255.7 172.9 255.7 167.9C255.7 163 248.8 158.9 240.2 158.9C231.6 158.9 224.7 162.9 224.7 167.9C224.7 172.9 231.7 176.9 240.2 176.9Z" fill="#E0E0E0"/>
<path d="M240.2 175.2C248.8 175.2 255.7 171.2 255.7 166.2C255.7 161.2 248.8 157.2 240.2 157.2C231.6 157.2 224.7 161.2 224.7 166.2C224.7 171.2 231.7 175.2 240.2 175.2Z" fill="#00BAFF"/>
<path d="M236.5 166.3C238.6 166.3 240.4 165.3 240.4 164.1C240.4 162.9 238.7 161.9 236.5 161.9C234.4 161.9 232.6 162.9 232.6 164.1C232.6 165.3 234.3 166.3 236.5 166.3Z" fill="white"/>
<path d="M251.6 164.8C252.4 167 251.4 169.3 248.5 171C245.7 172.6 241.7 173.2 238.1 172.8C236.8 170.7 236.6 168.3 240.3 166.2C243.5 164.3 247.5 163.9 251.6 164.8Z" fill="white"/>
<path d="M256.4 161.6C257.5 156.8 251.7 151.3 243.3 149.4C235 147.5 227.3 149.8 226.2 154.6C225.1 159.4 230.9 164.9 239.3 166.8C247.6 168.8 255.3 166.4 256.4 161.6Z" fill="#E0E0E0"/>
<path d="M256.8 159.9C257.9 155.1 252.1 149.6 243.7 147.7C235.4 145.8 227.7 148.1 226.6 152.9C225.5 157.7 231.3 163.2 239.7 165.1C248 167.1 255.7 164.7 256.8 159.9Z" fill="#00BAFF"/>
<path d="M242.3 154.3C242.6 153.1 241.1 151.7 239 151.2C236.9 150.7 235 151.3 234.7 152.5C234.4 153.7 235.9 155.1 238 155.6C240.1 156.1 242 155.5 242.3 154.3Z" fill="white"/>
<path d="M253.1 157.6C253.4 159.9 251.9 161.9 248.6 162.9C245.5 163.9 241.5 163.6 238 162.3C237.2 160 237.6 157.6 241.6 156.4C245.4 155.3 249.3 155.8 253.1 157.6Z" fill="white"/>
<path opacity="0.76" d="M129.8 80.1C141.6 59.6 141.6 37.5 129.8 30.6C118 23.8 98.7999 34.8 86.9999 55.3C75.1999 75.8 75.1999 97.9 86.9999 104.8C98.7999 111.6 117.9 100.6 129.8 80.1Z" fill="white"/>
<path d="M113.7 58.7C116.7 53.6 116.7 48 113.7 46.3C110.7 44.6 105.9 47.4 103 52.5C100 57.6 100 63.2 103 64.9C105.9 66.6 110.8 63.8 113.7 58.7Z" fill="#00BAFF"/>
<path d="M127.5 70.8C123.5 80.4 116.4 89.3 108.3 94C100.5 98.5 93.6 97.9 89.5 93.4C92.6 83.9 98.2 73.6 108.3 67.8C117.5 62.4 123.9 64.1 127.5 70.8Z" fill="#00BAFF"/>
<path d="M128.6 49.8001L124.5 52.2001V47.4001C124.5 46.8001 124 46.5001 123.5 46.8001C123.2 47.0001 123 47.2001 122.8 47.6001C122.6 47.9001 122.5 48.2001 122.5 48.6001V53.4001L118.4 55.8001C118.1 56.0001 117.9 56.3001 117.7 56.6001C117.5 56.9001 117.4 57.2001 117.4 57.6001C117.4 58.2001 117.9 58.5001 118.4 58.2001L122.5 55.8001V60.4001C122.5 61.0001 123 61.3001 123.5 61.0001C123.8 60.8001 124 60.6001 124.2 60.2001C124.4 59.9001 124.5 59.6001 124.5 59.2001V54.5001L128.6 52.1001C128.9 51.9001 129.1 51.6001 129.3 51.3001C129.5 51.0001 129.6 50.7001 129.6 50.3001C129.6 49.8001 129.2 49.5001 128.6 49.8001Z" fill="#00BAFF"/>
<path d="M196.2 68L195.2 67.4L196.2 65.7C196.3 65.5 196.3 65.2 196.2 65.1C196.1 65 195.8 65.1 195.7 65.4L194.7 67.2L193.7 66.6C193.6 66.5 193.3 66.6 193.2 66.9C193.1 67.1 193.1 67.4 193.2 67.5L194.2 68.1L193.2 69.8C193.1 70 193.1 70.3 193.2 70.4C193.3 70.5 193.6 70.4 193.7 70.1L194.7 68.4L195.7 69C195.8 69.1 196.1 69 196.2 68.7C196.4 68.3 196.4 68.1 196.2 68Z" fill="#D5D5DB"/>
<path d="M196.2 98.3L195.2 97.7001L196.2 96C196.3 95.8 196.3 95.5 196.2 95.4C196.1 95.3 195.8 95.4001 195.7 95.7001L194.7 97.5L193.7 96.9C193.6 96.8 193.3 96.9001 193.2 97.2001C193.1 97.4001 193.1 97.7 193.2 97.8L194.2 98.4L193.2 100.1C193.1 100.3 193.1 100.6 193.2 100.7C193.3 100.8 193.6 100.7 193.7 100.4L194.7 98.7001L195.7 99.3C195.8 99.4 196.1 99.3 196.2 99C196.4 98.6 196.4 98.3 196.2 98.3Z" fill="#D5D5DB"/>
<path d="M196.2 128.5L195.2 127.9L196.2 126.2C196.3 126 196.3 125.7 196.2 125.6C196.1 125.5 195.8 125.6 195.7 125.9L194.7 127.7L193.7 127.1C193.6 127 193.3 127.1 193.2 127.4C193.1 127.6 193.1 127.9 193.2 128L194.2 128.6L193.2 130.3C193.1 130.5 193.1 130.8 193.2 130.9C193.3 131 193.6 130.9 193.7 130.6L194.7 128.9L195.7 129.5C195.8 129.6 196.1 129.5 196.2 129.2C196.4 128.8 196.4 128.6 196.2 128.5Z" fill="#D5D5DB"/>
<path d="M196.2 158.8L195.2 158.2L196.2 156.5C196.3 156.3 196.3 156 196.2 155.9C196.1 155.8 195.8 155.9 195.7 156.2L194.7 158L193.7 157.4C193.6 157.3 193.3 157.4 193.2 157.7C193.1 157.9 193.1 158.2 193.2 158.3L194.2 158.9L193.2 160.6C193.1 160.8 193.1 161.1 193.2 161.2C193.3 161.3 193.6 161.2 193.7 160.9L194.7 159.2L195.7 159.8C195.8 159.9 196.1 159.8 196.2 159.5C196.4 159.1 196.4 158.9 196.2 158.8Z" fill="#D5D5DB"/>
<path d="M148.3 100C150.9 95.4001 150.9 90.5001 148.3 89.0001C145.7 87.5001 141.4 89.9001 138.8 94.5001C136.2 99.1001 136.2 104 138.8 105.5C141.4 107 145.7 104.6 148.3 100Z" fill="#00BAFF"/>
<path d="M145.2 93.6C145.2 94.2 145 94.8 144.7 95.3C144.4 95.8 144 96.2 143.5 96.6C142.6 97.1 141.8 96.7 141.8 95.6C141.8 95 142 94.4 142.3 93.9C142.6 93.4 143 93 143.5 92.6C144.5 92.1 145.2 92.5 145.2 93.6Z" fill="white"/>
<path d="M147.8 97.9C146.9 100 145.3 102 143.5 103.1C141.8 104.1 140.2 104 139.3 103C140 100.9 141.2 98.6 143.5 97.3C145.6 96.1 147 96.5 147.8 97.9Z" fill="white"/>
<path d="M148.3 130.3C150.9 125.7 150.9 120.8 148.3 119.3C145.7 117.8 141.4 120.2 138.8 124.8C136.2 129.4 136.2 134.3 138.8 135.8C141.4 137.3 145.7 134.9 148.3 130.3Z" fill="#E0E0E0"/>
<path d="M144.7 125.6C145.4 124.5 145.4 123.2 144.7 122.8C144 122.4 143 123 142.3 124.2C141.6 125.3 141.6 126.6 142.3 127C143 127.3 144.1 126.7 144.7 125.6Z" fill="#00BAFF"/>
<path d="M147.8 128.2C146.9 130.3 145.3 132.3 143.5 133.4C141.8 134.4 140.2 134.3 139.3 133.3C140 131.2 141.2 128.9 143.5 127.6C145.6 126.4 147 126.7 147.8 128.2Z" fill="#00BAFF"/>
<path d="M148.3 160.6C150.9 156 150.9 151.1 148.3 149.6C145.7 148.1 141.4 150.5 138.8 155.1C136.2 159.7 136.2 164.6 138.8 166.1C141.4 167.6 145.7 165.2 148.3 160.6Z" fill="#00BAFF"/>
<path d="M144.7 155.8C145.4 154.7 145.4 153.4 144.7 153C144 152.6 143 153.2 142.3 154.4C141.6 155.5 141.6 156.8 142.3 157.2C143 157.6 144.1 157 144.7 155.8Z" fill="white"/>
<path d="M147.8 158.5C146.9 160.6 145.3 162.6 143.5 163.7C141.8 164.7 140.2 164.6 139.3 163.6C140 161.5 141.2 159.2 143.5 157.9C145.6 156.7 147 157 147.8 158.5Z" fill="white"/>
<path d="M148.3 190.9C150.9 186.3 150.9 181.4 148.3 179.9C145.7 178.4 141.4 180.8 138.8 185.4C136.2 190 136.2 194.9 138.8 196.4C141.4 197.9 145.7 195.4 148.3 190.9Z" fill="#E0E0E0"/>
<path d="M145.2 184.5C145.2 185.1 145 185.7 144.7 186.2C144.4 186.7 144 187.1 143.5 187.5C142.6 188 141.8 187.6 141.8 186.5C141.8 185.9 142 185.3 142.3 184.8C142.6 184.3 143 183.9 143.5 183.5C144.5 183 145.2 183.4 145.2 184.5Z" fill="#00BAFF"/>
<path d="M147.8 188.8C146.9 190.9 145.3 192.9 143.5 194C141.8 195 140.2 194.9 139.3 193.9C140 191.8 141.2 189.5 143.5 188.2C145.6 187 147 187.3 147.8 188.8Z" fill="#00BAFF"/>
<path d="M180.8 73.9L190.3 68.4C190.7 68.1 191.1 68.4 191.1 68.9V70.7C191.1 71 191 71.3 190.9 71.5C190.8 71.7 190.6 71.9 190.3 72.1L180.8 77.6C180.4 77.9 180 77.6 180 77.1V75.3C180 75 180.1 74.7 180.2 74.5C180.3 74.3 180.5 74.1 180.8 73.9Z" fill="#00BAFF"/>
<path d="M180.8 104.2L190.3 98.7C190.7 98.4 191.1 98.7 191.1 99.2V101C191.1 101.3 191 101.6 190.9 101.8C190.8 102 190.6 102.2 190.3 102.4L180.8 107.9C180.4 108.2 180 107.9 180 107.4V105.6C180 105.3 180.1 105 180.2 104.8C180.4 104.5 180.5 104.3 180.8 104.2Z" fill="#00BAFF"/>
<path d="M180.8 134.4L190.3 128.9C190.7 128.6 191.1 128.9 191.1 129.4V131.2C191.1 131.5 191 131.8 190.9 132C190.8 132.2 190.6 132.4 190.3 132.6L180.8 138.1C180.4 138.4 180 138.1 180 137.6V135.8C180 135.5 180.1 135.2 180.2 135C180.4 134.8 180.5 134.6 180.8 134.4Z" fill="#00BAFF"/>
<path d="M180.8 164.7L190.3 159.2C190.7 158.9 191.1 159.2 191.1 159.7V161.5C191.1 161.8 191 162.1 190.9 162.3C190.8 162.5 190.6 162.7 190.3 162.9L180.8 168.4C180.4 168.7 180 168.4 180 167.9V166.1C180 165.8 180.1 165.5 180.2 165.3C180.4 165 180.5 164.8 180.8 164.7Z" fill="#00BAFF"/>
<path d="M157 88.5C156.9 88.5 156.7 88.5 156.6 88.4C156.5 88.3 156.4 88.2 156.4 88C156.4 87.9 156.4 87.7 156.4 87.6C156.5 87.5 156.6 87.4 156.7 87.3L172.9 77.9C173.1 77.8 173.2 77.8 173.4 77.8C173.6 77.8 173.7 78 173.8 78.1C173.9 78.3 173.9 78.4 173.9 78.6C173.9 78.8 173.7 78.9 173.6 79L157.4 88.4C157.3 88.5 157.2 88.5 157 88.5Z" fill="#E0E0E0"/>
<path d="M157 91.7C156.9 91.7 156.7 91.7 156.6 91.6C156.5 91.5 156.4 91.4 156.4 91.2C156.4 91.1 156.4 90.9 156.4 90.8C156.5 90.7 156.6 90.6 156.7 90.5L172.9 81.1C173.1 81 173.2 81 173.4 81C173.6 81 173.7 81.2 173.8 81.3C173.9 81.5 173.9 81.6 173.9 81.8C173.9 82 173.7 82.1 173.6 82.2L157.4 91.6C157.3 91.6 157.2 91.7 157 91.7Z" fill="#E0E0E0"/>
<path d="M157 118.8C156.9 118.8 156.7 118.8 156.6 118.7C156.5 118.6 156.4 118.5 156.4 118.3C156.4 118.2 156.4 118 156.4 117.9C156.5 117.8 156.6 117.7 156.7 117.6L172.9 108.2C173 108.2 173.1 108.1 173.1 108.1C173.2 108.1 173.3 108.1 173.4 108.1C173.5 108.1 173.6 108.2 173.6 108.2C173.7 108.3 173.7 108.3 173.8 108.4C173.8 108.5 173.9 108.6 173.9 108.6C173.9 108.7 173.9 108.8 173.9 108.9C173.9 109 173.8 109.1 173.8 109.1C173.7 109.2 173.7 109.2 173.6 109.3L157.4 118.7C157.3 118.7 157.2 118.8 157 118.8Z" fill="#B0E9FF"/>
<path d="M157 121.9C156.9 121.9 156.7 121.9 156.6 121.8C156.5 121.7 156.4 121.6 156.4 121.4C156.4 121.3 156.4 121.1 156.4 121C156.5 120.9 156.6 120.8 156.7 120.7L172.9 111.3C173 111.3 173.1 111.2 173.1 111.2C173.2 111.2 173.3 111.2 173.4 111.2C173.5 111.2 173.6 111.3 173.6 111.3C173.6 111.3 173.7 111.4 173.8 111.5C173.8 111.6 173.9 111.7 173.9 111.7C173.9 111.8 173.9 111.9 173.9 112C173.9 112.1 173.8 112.2 173.8 112.2C173.7 112.3 173.7 112.3 173.6 112.4L157.4 121.8C157.3 121.9 157.2 121.9 157 121.9Z" fill="#B0E9FF"/>
<path d="M157 149C156.9 149 156.7 149 156.6 148.9C156.5 148.8 156.4 148.7 156.4 148.5C156.4 148.4 156.4 148.2 156.4 148.1C156.5 148 156.6 147.9 156.7 147.8L172.9 138.4C173.1 138.3 173.2 138.3 173.4 138.3C173.6 138.3 173.7 138.5 173.8 138.6C173.9 138.8 173.9 138.9 173.9 139.1C173.9 139.3 173.7 139.4 173.6 139.5L157.4 148.9C157.3 149 157.2 149 157 149Z" fill="#E0E0E0"/>
<path d="M157 152.2C156.9 152.2 156.7 152.2 156.6 152.1C156.5 152 156.4 151.9 156.4 151.7C156.4 151.6 156.4 151.4 156.4 151.3C156.4 151.2 156.6 151.1 156.7 151L172.9 141.6C173.1 141.5 173.2 141.5 173.4 141.5C173.6 141.5 173.7 141.7 173.8 141.8C173.9 142 173.9 142.1 173.9 142.3C173.9 142.5 173.7 142.6 173.6 142.7L157.4 152.1C157.3 152.2 157.2 152.2 157 152.2Z" fill="#E0E0E0"/>
<path d="M157 179.3C156.9 179.3 156.7 179.3 156.6 179.2C156.5 179.1 156.4 179 156.4 178.8C156.4 178.7 156.4 178.5 156.4 178.4C156.5 178.3 156.6 178.2 156.7 178.1L172.9 168.7C173.1 168.6 173.2 168.6 173.4 168.6C173.6 168.6 173.7 168.8 173.8 168.9C173.9 169.1 173.9 169.2 173.9 169.4C173.9 169.6 173.7 169.7 173.6 169.8L157.4 179.2C157.3 179.3 157.2 179.3 157 179.3Z" fill="#B0E9FF"/>
<path d="M157 182.4C156.9 182.4 156.7 182.4 156.6 182.3C156.5 182.2 156.4 182.1 156.4 181.9C156.4 181.8 156.4 181.6 156.4 181.5C156.5 181.4 156.6 181.3 156.7 181.2L172.9 171.8C173 171.8 173.1 171.7 173.1 171.7C173.2 171.7 173.3 171.7 173.4 171.7C173.5 171.7 173.6 171.8 173.6 171.8C173.7 171.9 173.7 171.9 173.8 172C173.8 172.1 173.9 172.2 173.9 172.2C173.9 172.3 173.9 172.4 173.9 172.5C173.9 172.6 173.8 172.7 173.8 172.7C173.7 172.8 173.7 172.8 173.6 172.9L157.4 182.3C157.3 182.4 157.2 182.4 157 182.4Z" fill="#B0E9FF"/>
<path d="M190.5 182.2L145 208.4C144.5 208.7 144.1 208.5 144.1 207.9C144.1 207.6 144.2 207.3 144.4 207C144.5 206.7 144.8 206.5 145 206.4L190.5 180.2C191 179.9 191.4 180.1 191.4 180.7C191.4 181 191.3 181.3 191.1 181.6C191 181.8 190.8 182 190.5 182.2Z" fill="#231F20"/>
<path d="M141.2 77.6L137.5 79.8L138.8 77.4C138.9 77.2 138.9 76.9 138.8 76.8C138.7 76.7 138.4 76.9 138.3 77.1L136.3 80.8L138.2 82.4H138.3H138.4C138.5 82.3 138.6 82.3 138.6 82.2C138.7 82 138.8 81.7 138.6 81.6L137.3 80.6L141.1 78.4C141.2 78.3 141.3 78.2 141.3 78.1C141.4 78 141.4 77.9 141.4 77.8C141.6 77.6 141.4 77.5 141.2 77.6Z" fill="#00BAFF"/>
<path d="M536.4 230.3L505.1 248.4L359.3 164.1V161.1L390.6 146.1L536.5 227.3V230.3H536.4Z" fill="#231F20"/>
<path d="M536.4 227.3L505.1 245.4L359.3 161.1L390.6 143.1L536.4 227.3Z" fill="#9D9FA2"/>
<path d="M367.1 161.1L371.3 163.5L505.2 239.3L523.1 229L527.2 226.6L390.5 148L367.1 161.1Z" fill="#424244"/>
<path d="M371.3 163.5L505.2 239.3L523.1 229L518 226.1L467.7 197.2L390.6 152.9L371.3 163.5Z" fill="#D8F4FF"/>
<path d="M365.1 167.5L369.7 191.2L505.2 269.4V248.4L365.1 167.5Z" fill="#00A6E3"/>
<path d="M533.6 231.9L531.8 254L505.2 269.4V248.4L533.6 231.9Z" fill="#00B1F3"/>
<path d="M380.1 76.8L453.1 80.4V82.8L432.3 94.8L463.6 112.9L484.5 161L494.9 167L505.3 197.1L536.6 212.4V215.1L505.3 233.2L474.1 215.2L463.7 185.1L453.3 179.1L432.4 131L401.1 112.9L380.2 124.9L380.1 76.8Z" fill="#00A6E3"/>
<path d="M536.5 212.5L505.2 230.6L476.3 213.8L465.9 183.7L455.5 177.7L434.6 129.6L401 110.2L391.2 115.8L388.2 117.5L386.4 118.5L380.1 122.1V118.5V91.0001V74.7001L453 80.5001L432.2 92.2001L465.8 111.6L486.7 159.7L497.1 165.7L507.5 195.8L536.5 212.5Z" fill="#00BAFF"/>
<path d="M458.1 192.2L454.1 194.5L450.1 192.2L454.1 189.9L458.1 192.2Z" fill="#C4C4C4"/>
<path d="M454.1 194.5V199.1L458.1 196.8V192.2L454.1 194.5Z" fill="#BABABA"/>
<path d="M454.1 194.5L450.1 192.2V196.8L454.1 199.1V194.5Z" fill="#CDCDCD"/>
<path d="M435.2 158.9L427.2 163.5L419.2 158.9L427.2 154.3L435.2 158.9Z" fill="url(#paint1_linear)"/>
<path d="M427.2 163.5V172.7L435.2 168.1V158.9L427.2 163.5Z" fill="url(#paint2_linear)"/>
<path d="M427.2 163.5L419.2 158.9V168.1L427.2 172.7V163.5Z" fill="url(#paint3_linear)"/>
<path d="M418.2 153.2L413.8 155.7L409.4 153.2L413.8 150.7L418.2 153.2Z" fill="#C4C4C4"/>
<path d="M413.8 155.7V160.8L418.2 158.3V153.2L413.8 155.7Z" fill="#BABABA"/>
<path d="M413.8 155.7L409.4 153.2V158.3L413.8 160.8V155.7Z" fill="#CDCDCD"/>
<path d="M404.7 129.9L400.3 132.4L395.9 129.9L400.3 127.4L404.7 129.9Z" fill="url(#paint4_linear)"/>
<path d="M400.3 132.4V137.5L404.7 135V129.9L400.3 132.4Z" fill="url(#paint5_linear)"/>
<path d="M400.3 132.4L395.9 129.9V135L400.3 137.5V132.4Z" fill="url(#paint6_linear)"/>
<path d="M416.8 125.6L413.8 127.4L410.8 125.6L413.8 123.8L416.8 125.6Z" fill="url(#paint7_linear)"/>
<path d="M413.8 127.4V130.9L416.8 129.1V125.6L413.8 127.4Z" fill="url(#paint8_linear)"/>
<path d="M413.8 127.4L410.8 125.6V129.1L413.8 130.9V127.4Z" fill="url(#paint9_linear)"/>
<path d="M222 67.7L225.9 66.5C225.9 66.5 231 74.9 225.9 77.8L222.8 76.6C222.9 76.6 227.6 72.5 222 67.7Z" fill="url(#paint10_linear)"/>
<path d="M211.2 57.3L209.4 61C209.4 61 199.8 58.9 201.2 53.2L204.2 51.8C204.1 51.8 203.9 58.1 211.2 57.3Z" fill="#E0E0E0"/>
<path d="M223.1 45.4L224.8 47.9C224.8 47.9 219.9 53.2 216.8 50.2L217 47.8C216.9 47.8 220.8 50.3 223.1 45.4Z" fill="#E0E0E0"/>
<path d="M169.1 34.4001L168.2 37.3001C168.2 37.3001 161 36.9001 161.3 32.6001L163.3 31.2001C163.3 31.2001 163.8 35.8001 169.1 34.4001Z" fill="url(#paint11_linear)"/>
<path d="M177.8 59.6L176.9 62.5C176.9 62.5 169.7 62.1 170 57.8L172 56.4C172.1 56.4 172.6 61 177.8 59.6Z" fill="url(#paint12_linear)"/>
<path d="M215 96.8L217.9 97.7001C217.9 97.7001 217.5 104.9 213.2 104.6L211.8 102.6C211.8 102.6 216.3 102 215 96.8Z" fill="url(#paint13_linear)"/>
<path d="M205 76.7001L208.6 77.8001C208.6 77.8001 208.1 86.8001 202.7 86.4001L201 83.9001C201 84.0001 206.7 83.3001 205 76.7001Z" fill="#E0E0E0"/>
<path d="M109.1 121.5L107 124.7C107 124.7 98.4996 121.8 100.3 116.7L103.2 115.7C103.2 115.7 102.3 121.4 109.1 121.5Z" fill="url(#paint14_linear)"/>
<path d="M222.8 145.4L224.7 147.2C224.7 147.2 221.6 152.6 218.4 150.7L218.1 148.6C218.1 148.6 221.8 150 222.8 145.4Z" fill="url(#paint15_linear)"/>
<path d="M113.9 140.5L117 142.7C117 142.7 113.7 151.1 108.7 149.1L107.8 146.2C107.9 146.2 113.5 147.3 113.9 140.5Z" fill="#E0E0E0"/>
<path d="M218.4 134.3L217.3 137.9C217.3 137.9 208.3 137.4 208.7 132L211.2 130.3C211.1 130.2 211.8 136 218.4 134.3Z" fill="#E0E0E0"/>
<path d="M125.4 124.6L126.4 122.3C126.4 122.3 132.3 123.4 131.6 126.9L129.8 127.8C129.9 127.9 129.9 124 125.4 124.6Z" fill="url(#paint16_linear)"/>
<path d="M103.8 163.5L104.8 161.2C104.8 161.2 110.7 162.3 110 165.8L108.2 166.7C108.2 166.8 108.3 163 103.8 163.5Z" fill="url(#paint17_linear)"/>
<path d="M128.6 169L132.2 170C132.2 170 132 178.8 126.7 178.6L124.9 176.2C124.8 176.2 130.4 175.4 128.6 169Z" fill="url(#paint18_linear)"/>
<path d="M287.1 56.2L281.9 65.1H277.2L278.4 63H280.8L285 55.8L287.1 56.2Z" fill="#00BAFF"/>
<path d="M289.4 56.4L283.2 67.2H273.6L280.8 54.8H283.2L277.2 65.1H281.9L287.1 56.2L289.4 56.4Z" fill="#05B4F4"/>
<path d="M273.6 67.2L272.4 65.1L278.4 54.8H280.8L273.6 67.2Z" fill="#009CD6"/>
<path d="M286.5 44.3H289.3V58.1H286.6L286.5 44.3Z" fill="#00BAFF"/>
<path d="M289.3 58.2C291.5 58.2 293.3 55.1 293.3 51.3C293.3 47.5 291.5 44.4 289.3 44.4C287.1 44.4 285.3 47.5 285.3 51.3C285.3 55.1 287.1 58.2 289.3 58.2Z" fill="#00BAFF"/>
<path d="M289.4 56.1C288.4 57.8001 287.1 58.4 285.9 58C285.9 58 270.6 56.4001 265.2 65.8001C265.4 65.3001 270.1 56.3001 268.4 45.8001C267.9 42.7001 266.9 39.6 265.4 36.8C265.4 36.8 274.9 44.3001 286.4 44.3001C287.5 44.2001 288.6 44.9001 289.4 46.3001C290.1 47.6001 290.5 49.1 290.6 50.5C290.7 52.6 290.3 54.6 289.4 56.1Z" fill="#00BAFF"/>
<path d="M289.4 56.1C288.4 57.8 287.1 58.4 285.9 58C285.9 58 270.6 56.4 265.2 65.8C265.4 65.3 270.1 56.3 268.4 45.8L269.2 45.1C269.2 45.1 272.6 54.8 278.8 55.2C285 55.6 289.8 54.6 290.6 50.6C290.7 52.6 290.3 54.6 289.4 56.1Z" fill="#00BAFF"/>
<path d="M260.3 68.3001C265.7 68.2001 270 60.5001 269.9 51.1001C269.8 41.7001 265.2 34.1001 259.8 34.2001C254.4 34.3001 250.1 42.0001 250.2 51.4001C250.4 60.8001 254.9 68.4001 260.3 68.3001Z" fill="#0097CF"/>
<path d="M265.2 63.2C264.1 65.2 262.7 66.7 261.2 67.5C257.8 69.4 254 68 251.3 63.4C247.4 56.8 247.2 46 251 39.3C253.3 35.2 256.5 33.6 259.5 34.4C261.5 34.9 263.4 36.5 264.9 39.1C268.8 45.7 269 56.5 265.2 63.2Z" fill="#00BAFF"/>
<path d="M267.2 58.1C266.8 59.9 266.1 61.6 265.3 63.2C264.2 65.2 262.8 66.7 261.3 67.5C259.9 67.1 258.6 66.3 257.6 65.2C256.9 64.5 256.3 63.7 255.8 62.8C251.9 56.2 251.7 45.4 255.5 38.7C256.6 36.7 258 35.2 259.5 34.4C261.5 34.9 263.4 36.5 264.9 39.1C265 39.3 265.1 39.5 265.2 39.6C266 41.1 266.6 42.7 267 44.3C267.3 45.5 267.5 46.6 267.7 47.8C268.1 51.3 267.9 54.8 267.2 58.1Z" fill="#0295CC"/>
<path d="M267.2 58.1C266.8 59.9 266.1 61.6 265.3 63.2C264.2 65.2 262.8 66.7 261.3 67.5C259.9 67.1 258.6 66.3 257.6 65.2C257.7 65.3 260.8 66.8 263.1 64.2C265.6 61.3 269.5 45.5 259.5 34.5C261.5 35 263.4 36.6 264.9 39.2C265 39.4 265.1 39.6 265.2 39.7C266 41.2 266.6 42.8 267 44.4C267.3 45.6 267.5 46.7 267.7 47.9C268.1 51.3 267.9 54.8 267.2 58.1Z" fill="#00BAFF"/>
<path d="M267.7 55.4C267.6 56.3 267.4 57.2 267.2 58.1H262.1C260.9 58.1 259.7 57.8 258.7 57.2C257.7 56.6 256.8 55.7 256.2 54.7C255.6 53.7 255.3 52.5 255.3 51.3C255.3 50.1 255.6 48.9 256.2 47.9C256.8 46.9 257.7 46 258.7 45.4C259.7 44.8 260.9 44.5 262.1 44.5H267C267.9 48 268.2 51.7 267.7 55.4Z" fill="#E0E0E0"/>
<path d="M267.7 55.4C267.6 56.3 267.4 57.2 267.2 58.1H262.1C260.9 58.1 259.7 57.8 258.7 57.2C257.7 56.6 256.8 55.7 256.2 54.7C255.5 53.5 255.2 52 255.3 50.6C255.5 51.3 257.3 55.5 262.7 55.5C264.8 55.4 266.4 55.4 267.7 55.4Z" fill="#E0E0E0"/>
<path d="M115.7 326.5C115.1 315.1 107.3 311.4 107.3 311.3L107.6 310.6C107.7 310.6 115.9 314.5 116.5 326.4L115.7 326.5Z" fill="url(#paint19_linear)"/>
<path d="M188.7 368.6L188 368.5C189.7 356 199.6 351.3 199.7 351.3L200 352C199.9 352 190.4 356.5 188.7 368.6Z" fill="url(#paint20_linear)"/>
<path d="M122 342.1L208.5 379.8V381.3L188.7 392.8L99.2998 341.2V339.7L122 342.1Z" fill="#231F20"/>
<path d="M119.1 328.2L208.5 379.8L188.7 391.3L99.2998 339.7L119.1 328.2Z" fill="#5E5F61"/>
<path d="M202 378.9L199.3 380.4L187 387.5L108.5 342L105.9 340.5L120.8 331.9L202 378.9Z" fill="#4D4D4F"/>
<path d="M135.2 345.5C133.6 336.8 135.5 330.9 137.4 327.5C139.5 323.8 141.9 322.2 142 322.1L142.4 322.7C142.3 322.8 133 329.1 135.9 345.3L135.2 345.5Z" fill="#C0C2D1"/>
<path d="M126.1 312.6L134.3 318.5C134.3 318.5 142.4 309.9 140.6 302.7C140.6 302.7 132.8 302.1 126.1 312.6Z" fill="url(#paint21_linear)"/>
<path d="M120.6 312L127 308.1C127 308.1 123 299.3 117.6 299.5C117.6 299.5 115.3 304.5 120.6 312Z" fill="#E0E0E0"/>
<path d="M150.1 327.2L158.9 329C158.9 329 162.6 318.1 157.7 313.8C157.6 313.8 151.6 316.3 150.1 327.2Z" fill="#00BAFF"/>
<path d="M126.2 322.5C127.6 316.9 134.2 309.1 134.3 309.1C134.3 309.1 128.1 315.2 126 320.6C125 311.5 120.4 304.5 120.4 304.5C120.5 304.7 130.2 323 122.5 338L123.2 338.3C125.9 333.2 126.5 327.6 126.2 322.5Z" fill="url(#paint22_linear)"/>
<path d="M162.3 330.3L164.7 335C164.7 335 171.1 332.7 171.3 328.8C171.4 328.9 168 327 162.3 330.3Z" fill="url(#paint23_linear)"/>
<path d="M199.3 380.4L187 387.5L166.8 375.8L166.7 375.7L154.5 368.6L151.7 367L132.3 355.8L130.3 354.6L108.5 342L120.8 334.9L124.3 336.9L126.2 338L133.1 342L133.7 342.3L145.2 349L149.7 351.6L153.6 353.9L155.6 355.1L168.1 362.3L170 363.4L172.3 364.8L176 367L179.6 369.1L182 370.5L199.3 380.4Z" fill="#231F20"/>
<path d="M188.6 392.8V402.8L152.3 381.8L108.7 356.6L102.9 343.3L168.6 381.2L188.6 392.8Z" fill="#5A5B5F"/>
<path d="M179.6 337.2L184.3 345.2C184.3 345.2 196 340.9 198.3 333.4C198.3 333.4 189.2 330.8 179.6 337.2Z" fill="#00BAFF"/>
<path d="M206.3 382.6L204.4 393.7L200.5 395.9L188.6 402.8V392.8L193.9 389.7L206.3 382.6Z" fill="#56575A"/>
<path d="M156.6 353.4C155.3 335.8 167 330.8 167 330.8C167 330.8 164.2 332.2 161.7 335.6C159.3 338.8 156.7 344.4 157.4 353.3L156.6 353.4Z" fill="url(#paint24_linear)"/>
<path d="M165.2 360.5L164.5 360.4C166 353.1 172.8 347.1 178.2 343.4C181.8 340.9 185.8 339 190 337.7C189.8 337.7 168 346.9 165.2 360.5Z" fill="#C0C2D1"/>
<path d="M156.6 359.2C149.4 337.3 156 319.6 156 319.6C155 323.7 154.3 327.9 154 332.2C153.5 338.2 153.7 347.7 157.4 359L156.6 359.2Z" fill="#C0C2D1"/>
<path d="M170.3 365.1C169.5 370.5 168.4 373.8 167 375.7L154.8 368.6L152 367C152 365.3 152.2 363.6 152.4 361.9C152.4 361.9 153 358.1 153.8 353.9C154.8 348.7 156.1 343 156.8 343.3C158 343.8 157.7 353.1 159.1 352C160.5 350.9 160.1 338 161.7 338.2C163.3 338.3 162.2 357.6 164.2 356.9C166.2 356.2 164.4 342.8 167.1 343.3C169.3 343.7 170 358.3 170.2 363.4C170.3 364.4 170.3 365.1 170.3 365.1Z" fill="#E0E0E0"/>
<path d="M199.3 380.4L187 387.5L166.8 375.8C167.1 372.1 167.5 366.9 168 362.3C168.7 356 169.6 350.6 170.7 350.6C172.2 350.5 172.1 358.4 172.3 364.8C172.4 369.3 172.7 373.1 173.8 373.1C175.3 373.1 175.6 369.8 176.1 367C176.4 365 176.9 363.1 177.9 362.7C179.3 362.2 179.4 365.9 179.6 369C179.8 371.2 180.1 373.1 181 372.8C181.5 372.6 181.8 371.7 182 370.4C182.6 365.7 181.5 355.8 183.1 356.4C185.1 357.2 185.1 370.5 186.7 370.1C188.3 369.7 185.4 348.2 188.7 348C192 347.8 193 370.5 195.4 370.8C197.8 371.2 196.8 357 199.4 357.9C202 358.7 199.3 380.4 199.3 380.4Z" fill="#00BAFF"/>
<path d="M155.6 355C155.5 360.6 155.1 365.9 154.5 368.6L132.3 355.8L130.3 354.6C130.6 353.1 131.2 351.6 131.9 350.2C131.9 350.2 132.6 346.4 133.6 342.3C134.8 337.2 136.5 331.6 137.8 331.6C140.2 331.8 135.9 343.2 137.8 343.9C139.7 344.5 142.3 329.1 144.5 329.7C146.1 330.2 144.2 342.3 145.1 349C145.4 351.2 146 352.8 147.1 353.3C148.1 353.7 148.9 353 149.6 351.6C151.7 347 151.9 335.2 153.8 336C155.2 336.6 155.7 346.1 155.6 355Z" fill="#00BAFF"/>
<path d="M132.3 355.8L108.6 342C108.6 342 107.4 324.1 110 324.3C112.7 324.5 112.2 334.5 113.5 334.9C114.8 335.3 112.2 315.8 115.6 316.2C119 316.7 116.8 333.5 119 332.8C121.2 332.1 119.1 321.6 122.6 321.6C125.3 321.6 124 331.8 124.2 336.8C124.3 338.3 124.4 339.3 124.9 339.5C125.4 339.7 125.8 339 126.1 337.9C126.9 334.7 127.1 328 129.7 329C131.6 329.7 132.7 335.6 133 341.9C133.3 347.2 133.1 352.8 132.3 355.8Z" fill="#E0E0E0"/>
<path d="M106 313.3C107.3 313.3 108.3 312.3 108.3 311C108.3 309.7 107.3 308.7 106 308.7C104.7 308.7 103.7 309.7 103.7 311C103.7 312.3 104.7 313.3 106 313.3Z" fill="url(#paint25_linear)"/>
<path d="M199.9 354C201.2 354 202.3 352.9 202.3 351.6C202.3 350.3 201.2 349.2 199.9 349.2C198.6 349.2 197.5 350.3 197.5 351.6C197.5 352.9 198.5 354 199.9 354Z" fill="url(#paint26_linear)"/>
<path d="M145.1 323C145.4 321.8 144.7 320.7 143.5 320.4C142.3 320.1 141.2 320.8 140.9 322C140.6 323.2 141.3 324.3 142.5 324.6C143.6 324.9 144.8 324.1 145.1 323Z" fill="#E0E0E0"/>
<path d="M188.6 392.8V402.8L152.3 381.8C158.3 384.8 164.8 387.7 166.3 387C169.3 385.6 168.6 381.2 168.6 381.2L188.6 392.8Z" fill="#454549"/>
<path d="M200.5 395.9L188.6 402.8V392.8L193.9 389.7C193.9 389.7 193.9 389.8 194 389.8C194 389.8 193.2 393.5 194 395.8C194.8 398.1 200.5 395.9 200.5 395.9Z" fill="#3E3E42"/>
<path opacity="0.4" d="M305.5 249.2C305.5 249.3 305.6 249.4 305.7 249.4C305.6 248.4 305.5 249.1 305.5 249.2Z" fill="#00BAFF"/>
<path d="M518.4 289.1L515.1 291L292.8 419.3L230.3 383.2L229.7 382.9C229.4 382.7 229.2 382.5 229 382.2C228.8 381.9 228.8 381.6 228.8 381.3C228.8 381 228.9 380.7 229 380.4C229.2 380.1 229.4 379.9 229.7 379.7L256 364.5C258.6 363 261.5 362.2 264.5 362.2C267.5 362.2 270.4 363 273 364.5L295.1 377.3C297.2 378.5 299.6 379.2 302 379.2C304.4 379.2 306.8 378.6 308.9 377.3L428.5 308.4L449.1 296.5C449.5 296.3 449.8 296 450 295.6C450.2 295.2 450.3 294.8 450.3 294.4C450.3 294 450.2 293.6 450 293.2C449.8 292.8 449.5 292.5 449.1 292.3L419 275L417.7 274.3C417.4 274.1 417.2 273.9 417 273.6C416.8 273.3 416.8 273 416.8 272.7C416.8 272.4 416.9 272.1 417 271.8C417.2 271.5 417.4 271.3 417.7 271.1L444 255.9C446.6 254.4 449.6 253.6 452.6 253.6C455.6 253.6 458.6 254.4 461.2 255.9L518.4 285.4V289.1Z" fill="#231F20"/>
<path d="M515.2 291V309.4L293.2 437.5L231.2 401.7C230.9 401.5 230.7 401.3 230.5 401C230.3 400.7 230.3 400.4 230.3 400.1V383.2L292.8 419.3L515.2 291Z" fill="#E6E7E8"/>
<path d="M292.8 419.3V437.5L515.2 309.4V291L292.8 419.3Z" fill="#E0E0E0"/>
<path d="M238.1 385.3V381.7L243.1 381.3L242.2 385.1L238.1 385.3Z" fill="#231F20"/>
<path d="M457.1 300.8L436.1 310.4L416 299.3L417 273.7L438.8 285.8L457.2 296C457.7 296.3 458.1 296.6 458.3 297.1C458.6 297.5 458.7 298 458.7 298.5C458.7 299 458.5 299.5 458.2 299.9C458 300.3 457.6 300.6 457.1 300.8Z" fill="#E6E7E8"/>
<path d="M426.1 277V273L429.9 273.2V277H426.1Z" fill="#231F20"/>
<path d="M229.8 376.2L256.1 361C258.7 359.5 261.6 358.7 264.6 358.7C267.6 358.7 270.5 359.5 273.1 361L295.2 373.8C297.3 375 299.7 375.7 302.1 375.7C304.5 375.7 306.9 375.1 309 373.8L448.9 293C449.3 292.8 449.6 292.5 449.8 292.1C450 291.7 450.1 291.3 450.1 290.9C450.1 290.5 450 290.1 449.8 289.7C449.6 289.3 449.3 289 448.9 288.8L417.6 270.7C417.3 270.5 417.1 270.3 416.9 270C416.7 269.7 416.7 269.4 416.7 269.1C416.7 268.8 416.8 268.5 416.9 268.2C417.1 267.9 417.3 267.7 417.6 267.5L443.9 252.3C446.5 250.8 449.5 250 452.5 250C455.5 250 458.5 250.8 461.1 252.3L518.3 285.4L292.8 415.7L229.7 379.3C229.4 379.1 229.2 378.9 229 378.6C228.8 378.3 228.8 378 228.8 377.7C228.8 377.4 228.9 377.1 229 376.8C229.2 376.5 229.5 376.3 229.8 376.2Z" fill="#F8F8F8"/>
<path d="M322.1 224L313.9 238.6C301.6 236 288.5 235.3 275.7 236.3L270.4 221.3C287.6 219.7 305.4 220.6 322.1 224Z" fill="#E6E7E8"/>
<path d="M322.1 215.7L313.9 230.3C301.6 227.7 288.5 227 275.7 228L270.4 213C287.6 211.4 305.4 212.3 322.1 215.7Z" fill="#F8F8F8"/>
<path d="M275.6 236.2V227.9L270.3 212.9V221.2L275.6 236.2Z" fill="#B6B6BA"/>
<path d="M392.9 281.2C392.9 281.6 392.9 281.9 392.9 282.3V282.7C392.6 297 383.7 311.2 366.2 322.5L347.8 311.9L347.4 311.6C367.8 297.8 371.8 278.7 359.3 262.8C359.3 262.8 359.2 262.7 359 262.4C355.2 257.7 349.9 253.2 343.1 249.3C334.6 244.4 324.6 240.8 313.9 238.6V204.8L322.1 190.2L340.4 205.1L386.2 241.3L383.6 253.2L392.9 281.2Z" fill="#E6E7E8"/>
<path d="M392.9 248.1V281.2C392.9 281.6 392.9 281.9 392.9 282.3V282.7C392.9 284.1 392.8 285.5 392.6 286.8C390.8 299.6 382 312.2 366.2 322.5V288.7L376.8 272.7L392.9 248.1Z" fill="#E6E7E8"/>
<path d="M358.9 262.4C355.1 257.7 349.8 253.2 343 249.3C334.5 244.4 324.5 240.8 313.8 238.6V204.8L322 190.2L340.3 205.1L339.9 213.7C339.9 213.7 338.8 232.5 344.7 242.2C350 250.9 357.4 260.4 358.9 262.4Z" fill="#E6E7E8"/>
<path d="M392.5 286.7C390.7 299.5 381.9 312.1 366.1 322.4V288.6L376.7 272.6L378.1 279.2C378.1 279.1 384 310.4 392.5 286.7Z" fill="#E6E7E8"/>
<path d="M366.1 288.6L347.7 278L347.3 277.7C374 259.7 372.6 232.5 343 215.4C334.5 210.5 324.5 206.9 313.8 204.7L322 190.1C336.5 193 350.1 197.9 361.7 204.6C401.7 227.7 403.2 264.5 366.1 288.6Z" fill="#F8F8F8"/>
<path d="M347.8 278V311.8L366.2 322.4V288.6L347.8 278Z" fill="#E0E0E0"/>
<path d="M234.6 247V221.4L215.8 210.6V236.2L234.6 247Z" fill="#009AD3"/>
<path d="M264.6 325.9L256.4 340.5C240.1 337.7 224.6 332.6 211.7 325.1C191.9 313.6 181.5 298.8 180.7 283.8H180.6V256L187.7 256.5L187.8 259.4C193 251.7 201 238.4 211.7 232.2C212.6 231.7 213.5 237.3 214.4 236.8C214.9 236.5 214.6 227.7 215 227.4L221.5 239.3L221.7 239.4L224.7 241.1L234.6 246.8C233.2 247.5 231.8 248.3 230.4 249.1C228.1 250.4 225.9 251.9 223.7 253.5C223.4 253.7 223.2 253.9 222.9 254.1C214 260.9 208.9 268.8 207.4 276.9C205 290.2 212.6 304 230.3 314.2C238 318.6 246.8 322 256.2 324.2C259 324.9 261.8 325.4 264.6 325.9Z" fill="#009BD5"/>
<path d="M264.6 300.3V325.9L256.4 340.5V314.9L264.6 300.3Z" fill="#2CC6FF"/>
<path d="M366.1 322.4C366 322.5 365.8 322.6 365.7 322.7C364.4 323.5 363.1 324.3 361.8 325.1C347.7 333.3 330.6 338.6 312.5 341.2C294.1 343.9 274.6 343.6 256.3 340.5V333.9L264.5 325.9C278.6 328.2 293 328.3 307.1 326.2C320.2 324.2 332.6 320.2 342.9 314.3C344.3 313.5 345.6 312.7 346.8 311.9C346.9 311.8 347.1 311.7 347.2 311.6L347.6 311.9L366 315.9V322.4H366.1Z" fill="#00A6E3"/>
<path d="M366.1 315.8C366 315.9 365.8 316 365.7 316.1C364.4 316.9 363.1 317.7 361.8 318.5C347.7 326.7 330.6 332 312.5 334.6C308.6 335.2 304.6 335.6 300.5 335.9C297.6 336.1 294.8 336.3 291.9 336.3C280 336.6 268.1 335.8 256.3 333.8L264.5 319.2C278.6 321.5 293 321.6 307.1 319.5C311.4 318.9 315.6 318 319.8 316.9C328.2 314.7 336 311.6 342.9 307.6C344.3 306.8 345.6 306 346.8 305.2C346.9 305.1 347.1 305 347.2 304.9L347.6 305.2L366.1 315.8Z" fill="#00BAFF"/>
<path d="M256.3 314.9V340.5C240 337.7 224.5 332.6 211.6 325.1C198.7 317.7 189.8 308.8 185 299.4C185 299.3 184.9 299.3 184.9 299.3C182.3 294.2 180.9 289 180.6 283.8H180.5V256L204.5 288.3L224.5 298.6L256.3 314.9Z" fill="#00A6E3"/>
<path d="M256.3 314.9V340.5C240 337.7 224.5 332.6 211.6 325.1C198.7 317.7 189.8 308.8 185 299.4C185.7 300.6 193.8 313.8 205.6 314.9C217.9 316.1 220.2 303.9 220.2 303.9L224.6 298.6L256.3 314.9Z" fill="#00A6E3"/>
<path d="M264.6 300.3L256.4 314.9C240.1 312.1 224.6 307 211.7 299.5C170.3 275.6 170.3 236.8 211.7 212.8C213.1 212 214.5 211.3 215.9 210.5L234.7 221.3C233.3 222 231.9 222.8 230.5 223.6C227.7 225.2 225.1 227 222.5 229C218.3 232.3 214.9 235.9 212.4 239.7C201.5 256.1 207.5 275.4 230.5 288.7C240.3 294.4 252.1 298.2 264.6 300.3Z" fill="#00BAFF"/>
<path d="M289.3 295.7C313.1 295.7 332.4 284.6 332.4 270.8C332.4 257.1 313.1 245.9 289.3 245.9C265.5 245.9 246.2 257 246.2 270.8C246.2 284.6 265.5 295.7 289.3 295.7Z" fill="#292A2C"/>
<path d="M289.3 289.8C313.1 289.8 332.4 278.7 332.4 264.9C332.4 251.2 313.1 240 289.3 240C265.5 240 246.2 251.1 246.2 264.9C246.2 278.7 265.5 289.8 289.3 289.8Z" fill="#78797C"/>
<path d="M296.5 286.6C296.4 286.9 296.1 287.2 295.7 287.5C294.6 288.1 292.7 288.1 291.6 287.5C291.2 287.3 290.9 287 290.8 286.6C290.6 286.1 290.9 285.5 291.6 285.1C292.7 284.5 294.6 284.5 295.7 285.1C296.4 285.5 296.7 286.1 296.5 286.6Z" fill="#CDCDCD"/>
<path d="M296.5 286.6C296.4 286.9 296.1 287.2 295.7 287.5C294.6 288.1 292.7 288.1 291.6 287.5C291.2 287.3 290.9 287 290.8 286.6C290.9 286.3 291.2 286 291.6 285.7C292.7 285 294.6 285 295.7 285.7C296.2 286 296.4 286.3 296.5 286.6Z" fill="#231F20"/>
<path d="M312.8 283.5C312.7 283.8 312.4 284.1 312 284.4C310.9 285.1 309 285.1 307.9 284.4C307.5 284.2 307.2 283.9 307.1 283.5C306.9 283 307.2 282.4 307.9 282C309 281.3 310.9 281.3 312 282C312.7 282.4 313 283 312.8 283.5Z" fill="#CDCDCD"/>
<path d="M312.8 283.5C312.7 283.8 312.4 284.1 312 284.4C310.9 285.1 309 285.1 307.9 284.4C307.5 284.2 307.2 283.9 307.1 283.5C307.2 283.2 307.5 282.9 307.9 282.6C309 281.9 310.9 281.9 312 282.6C312.4 282.9 312.7 283.2 312.8 283.5Z" fill="#231F20"/>
<path d="M325 275.8C324.9 276.1 324.6 276.4 324.2 276.7C323.1 277.3 321.2 277.3 320.1 276.7C319.7 276.5 319.4 276.2 319.3 275.8C319.1 275.3 319.4 274.7 320.1 274.3C321.2 273.6 323.1 273.6 324.2 274.3C324.9 274.7 325.2 275.2 325 275.8Z" fill="#CDCDCD"/>
<path d="M325 275.8C324.9 276.1 324.6 276.4 324.2 276.7C323.1 277.3 321.2 277.3 320.1 276.7C319.7 276.5 319.4 276.2 319.3 275.8C319.4 275.5 319.7 275.2 320.1 274.9C321.2 274.3 323.1 274.3 324.2 274.9C324.6 275.1 324.9 275.4 325 275.8Z" fill="#231F20"/>
<path d="M274.6 285.6C274.7 285.9 275 286.2 275.4 286.5C276.5 287.1 278.4 287.1 279.5 286.5C279.9 286.3 280.2 286 280.3 285.6C280.5 285.1 280.2 284.5 279.5 284.1C278.4 283.4 276.5 283.4 275.4 284.1C274.7 284.5 274.4 285 274.6 285.6Z" fill="#CDCDCD"/>
<path d="M274.6 285.6C274.7 285.9 275 286.2 275.4 286.5C276.5 287.2 278.4 287.2 279.5 286.5C279.9 286.3 280.2 286 280.3 285.6C280.2 285.3 279.9 285 279.5 284.7C278.4 284 276.5 284 275.4 284.7C275 284.9 274.7 285.2 274.6 285.6Z" fill="#231F20"/>
<path d="M258.3 279.1C258.4 279.4 258.7 279.7 259.1 280C260.2 280.6 262.1 280.6 263.2 280C263.6 279.8 263.9 279.5 264 279.1C264.2 278.6 263.9 278 263.2 277.6C262.1 276.9 260.2 276.9 259.1 277.6C258.4 278 258.2 278.6 258.3 279.1Z" fill="#CDCDCD"/>
<path d="M258.3 279.1C258.4 279.4 258.7 279.7 259.1 280C260.2 280.6 262.1 280.6 263.2 280C263.6 279.8 263.9 279.5 264 279.1C263.9 278.8 263.6 278.5 263.2 278.2C262.1 277.6 260.2 277.6 259.1 278.2C258.7 278.5 258.4 278.8 258.3 279.1Z" fill="#231F20"/>
<path d="M320.6 267.7C319.6 271.4 316.6 275 311.7 277.8C299.3 285 279.3 285 266.9 277.8C261.9 274.9 259 271.4 258 267.7C256.5 262.1 259.5 256.3 266.9 252C279.3 244.8 299.3 244.8 311.7 252C319.1 256.3 322.1 262.1 320.6 267.7Z" fill="#231F20"/>
<path d="M320.6 267.7C319.6 271.4 316.6 275 311.7 277.8C299.3 285 279.3 285 266.9 277.8C261.9 274.9 259 271.4 258 267.7C259 264 262 260.4 266.9 257.6C279.3 250.4 299.3 250.4 311.7 257.6C316.6 260.4 319.6 264 320.6 267.7Z" fill="#D8F4FF"/>
<path d="M276.5 202.2L283 205.9L289.5 202.2L283 198.5L276.5 202.2Z" fill="url(#paint27_linear)"/>
<path d="M276.5 202.2V209.7L283 213.4V205.9L276.5 202.2Z" fill="url(#paint28_linear)"/>
<path d="M289.5 202.2V209.7L283 213.4V205.9L289.5 202.2Z" fill="url(#paint29_linear)"/>
<path d="M299.2 215.2L302.4 217.1L305.6 215.2L302.3 213.3L299.2 215.2Z" fill="#C4C4C4"/>
<path d="M299.2 215.2V219L302.4 220.9V217.1L299.2 215.2Z" fill="#CDCDCD"/>
<path d="M305.7 215.2V219L302.5 220.9V217.1L305.7 215.2Z" fill="#BABABA"/>
<path d="M292.7 196.6L296 198.5L299.2 196.6L295.9 194.7L292.7 196.6Z" fill="url(#paint30_linear)"/>
<path d="M292.7 196.6V200.4L296 202.3V198.4L292.7 196.6Z" fill="url(#paint31_linear)"/>
<path d="M299.2 196.6V200.4L296 202.3V198.4L299.2 196.6Z" fill="url(#paint32_linear)"/>
<path d="M280.9 174.8L289.5 179.8L298.1 174.8L289.5 169.8L280.9 174.8Z" fill="url(#paint33_linear)"/>
<path d="M280.9 174.8V184.7L289.5 189.7V179.8L280.9 174.8Z" fill="url(#paint34_linear)"/>
<path d="M298.1 174.8V184.7L289.5 189.7V179.8L298.1 174.8Z" fill="url(#paint35_linear)"/>
<path d="M271.3 168.8L274.5 170.7L277.7 168.8L274.5 166.9L271.3 168.8Z" fill="url(#paint36_linear)"/>
<path d="M271.3 168.8V172.5L274.5 174.4V170.7L271.3 168.8Z" fill="url(#paint37_linear)"/>
<path d="M277.8 168.8V172.5L274.6 174.4V170.7L277.8 168.8Z" fill="url(#paint38_linear)"/>
<path d="M288.4 156.3L294.1 159.6L299.7 156.3L294 153L288.4 156.3Z" fill="#C4C4C4"/>
<path d="M288.4 156.3V162.8L294.1 166.1V159.6L288.4 156.3Z" fill="#CDCDCD"/>
<path d="M299.6 156.3V162.8L294 166.1V159.6L299.6 156.3Z" fill="#BABABA"/>
<path d="M304.5 173L306.9 174.4L309.3 173L306.9 171.6L304.5 173Z" fill="#C4C4C4"/>
<path d="M304.5 173V175.8L306.9 177.2V174.4L304.5 173Z" fill="#CDCDCD"/>
<path d="M309.4 173V175.8L307 177.2V174.4L309.4 173Z" fill="#BABABA"/>
<path d="M274.1 223.2L276.5 224.6L278.9 223.2L276.5 221.8L274.1 223.2Z" fill="#C4C4C4"/>
<path d="M274.1 223.2V226L276.5 227.4V224.6L274.1 223.2Z" fill="#CDCDCD"/>
<path d="M279 223.2V226L276.6 227.4V224.6L279 223.2Z" fill="#BABABA"/>
<path d="M281.5 239.5L289.5 244.1L297.5 239.5L289.5 234.9L281.5 239.5Z" fill="url(#paint39_linear)"/>
<path d="M281.5 239.5V248.7L289.5 253.3V244.1L281.5 239.5Z" fill="url(#paint40_linear)"/>
<path d="M297.5 239.5V248.7L289.5 253.3V244.1L297.5 239.5Z" fill="url(#paint41_linear)"/>
</g>
<defs>
<filter id="filter0_d" x="-30" y="-16" width="660" height="510" filterUnits="userSpaceOnUse" color-interpolation-filters="sRGB">
<feFlood flood-opacity="0" result="BackgroundImageFix"/>
<feColorMatrix in="SourceAlpha" type="matrix" values="0 0 0 0 0 0 0 0 0 0 0 0 0 0 0 0 0 0 127 0" result="hardAlpha"/>
<feOffset dy="10"/>
<feGaussianBlur stdDeviation="15"/>
<feColorMatrix type="matrix" values="0 0 0 0 0 0 0 0 0 0 0 0 0 0 0 0 0 0 0.25 0"/>
<feBlend mode="normal" in2="BackgroundImageFix" result="effect1_dropShadow"/>
<feBlend mode="normal" in="SourceGraphic" in2="effect1_dropShadow" result="shape"/>
</filter>
<linearGradient id="paint0_linear" x1="73.5059" y1="65.0738" x2="134.096" y2="65.0738" gradientUnits="userSpaceOnUse">
<stop stop-color="#71439A"/>
<stop offset="0.8668" stop-color="#A76CAD"/>
</linearGradient>
<linearGradient id="paint1_linear" x1="419.242" y1="158.854" x2="435.214" y2="158.854" gradientUnits="userSpaceOnUse">
<stop stop-color="#71439A"/>
<stop offset="0.8668" stop-color="#A76CAD"/>
</linearGradient>
<linearGradient id="paint2_linear" x1="427.222" y1="165.768" x2="435.213" y2="165.768" gradientUnits="userSpaceOnUse">
<stop stop-color="#71439A"/>
<stop offset="0.8668" stop-color="#A76CAD"/>
</linearGradient>
<linearGradient id="paint3_linear" x1="419.242" y1="165.771" x2="427.233" y2="165.771" gradientUnits="userSpaceOnUse">
<stop stop-color="#71439A"/>
<stop offset="0.8668" stop-color="#A76CAD"/>
</linearGradient>
<linearGradient id="paint4_linear" x1="395.949" y1="129.913" x2="404.711" y2="129.913" gradientUnits="userSpaceOnUse">
<stop stop-color="#71439A"/>
<stop offset="0.8668" stop-color="#A76CAD"/>
</linearGradient>
<linearGradient id="paint5_linear" x1="400.326" y1="133.706" x2="404.71" y2="133.706" gradientUnits="userSpaceOnUse">
<stop stop-color="#71439A"/>
<stop offset="0.8668" stop-color="#A76CAD"/>
</linearGradient>
<linearGradient id="paint6_linear" x1="395.949" y1="133.708" x2="400.332" y2="133.708" gradientUnits="userSpaceOnUse">
<stop stop-color="#71439A"/>
<stop offset="0.8668" stop-color="#A76CAD"/>
</linearGradient>
<linearGradient id="paint7_linear" x1="410.725" y1="125.628" x2="416.815" y2="125.628" gradientUnits="userSpaceOnUse">
<stop stop-color="#71439A"/>
<stop offset="0.8668" stop-color="#A76CAD"/>
</linearGradient>
<linearGradient id="paint8_linear" x1="413.768" y1="128.264" x2="416.814" y2="128.264" gradientUnits="userSpaceOnUse">
<stop stop-color="#71439A"/>
<stop offset="0.8668" stop-color="#A76CAD"/>
</linearGradient>
<linearGradient id="paint9_linear" x1="410.725" y1="128.265" x2="413.773" y2="128.265" gradientUnits="userSpaceOnUse">
<stop stop-color="#71439A"/>
<stop offset="0.8668" stop-color="#A76CAD"/>
</linearGradient>
<linearGradient id="paint10_linear" x1="222.044" y1="72.1697" x2="228.231" y2="72.1697" gradientUnits="userSpaceOnUse">
<stop stop-color="#71439A"/>
<stop offset="0.8668" stop-color="#A76CAD"/>
</linearGradient>
<linearGradient id="paint11_linear" x1="161.251" y1="34.2625" x2="169.058" y2="34.2625" gradientUnits="userSpaceOnUse">
<stop stop-color="#71439A"/>
<stop offset="0.8668" stop-color="#A76CAD"/>
</linearGradient>
<linearGradient id="paint12_linear" x1="170.042" y1="59.4693" x2="177.849" y2="59.4693" gradientUnits="userSpaceOnUse">
<stop stop-color="#71439A"/>
<stop offset="0.8668" stop-color="#A76CAD"/>
</linearGradient>
<linearGradient id="paint13_linear" x1="211.756" y1="100.671" x2="217.858" y2="100.671" gradientUnits="userSpaceOnUse">
<stop stop-color="#71439A"/>
<stop offset="0.8668" stop-color="#A76CAD"/>
</linearGradient>
<linearGradient id="paint14_linear" x1="100.036" y1="120.187" x2="109.058" y2="120.187" gradientUnits="userSpaceOnUse">
<stop stop-color="#71439A"/>
<stop offset="0.8668" stop-color="#A76CAD"/>
</linearGradient>
<linearGradient id="paint15_linear" x1="218.103" y1="148.285" x2="224.686" y2="148.285" gradientUnits="userSpaceOnUse">
<stop stop-color="#71439A"/>
<stop offset="0.8668" stop-color="#A76CAD"/>
</linearGradient>
<linearGradient id="paint16_linear" x1="125.442" y1="125.092" x2="131.714" y2="125.092" gradientUnits="userSpaceOnUse">
<stop stop-color="#71439A"/>
<stop offset="0.8668" stop-color="#A76CAD"/>
</linearGradient>
<linearGradient id="paint17_linear" x1="103.802" y1="164.028" x2="110.074" y2="164.028" gradientUnits="userSpaceOnUse">
<stop stop-color="#71439A"/>
<stop offset="0.8668" stop-color="#A76CAD"/>
</linearGradient>
<linearGradient id="paint18_linear" x1="124.84" y1="173.78" x2="132.134" y2="173.78" gradientUnits="userSpaceOnUse">
<stop stop-color="#71439A"/>
<stop offset="0.8668" stop-color="#A76CAD"/>
</linearGradient>
<linearGradient id="paint19_linear" x1="107.271" y1="318.548" x2="116.462" y2="318.548" gradientUnits="userSpaceOnUse">
<stop stop-color="#71439A"/>
<stop offset="0.8668" stop-color="#A76CAD"/>
</linearGradient>
<linearGradient id="paint20_linear" x1="187.969" y1="359.905" x2="200.023" y2="359.905" gradientUnits="userSpaceOnUse">
<stop stop-color="#71439A"/>
<stop offset="0.8668" stop-color="#A76CAD"/>
</linearGradient>
<linearGradient id="paint21_linear" x1="126.056" y1="310.627" x2="140.797" y2="310.627" gradientUnits="userSpaceOnUse">
<stop stop-color="#71439A"/>
<stop offset="0.8668" stop-color="#A76CAD"/>
</linearGradient>
<linearGradient id="paint22_linear" x1="120.425" y1="321.406" x2="134.284" y2="321.406" gradientUnits="userSpaceOnUse">
<stop stop-color="#71439A"/>
<stop offset="0.8668" stop-color="#A76CAD"/>
</linearGradient>
<linearGradient id="paint23_linear" x1="162.332" y1="331.694" x2="171.354" y2="331.694" gradientUnits="userSpaceOnUse">
<stop stop-color="#71439A"/>
<stop offset="0.8668" stop-color="#A76CAD"/>
</linearGradient>
<linearGradient id="paint24_linear" x1="156.457" y1="342.092" x2="167.006" y2="342.092" gradientUnits="userSpaceOnUse">
<stop stop-color="#71439A"/>
<stop offset="0.8668" stop-color="#A76CAD"/>
</linearGradient>
<linearGradient id="paint25_linear" x1="103.616" y1="311.007" x2="108.286" y2="311.007" gradientUnits="userSpaceOnUse">
<stop stop-color="#71439A"/>
<stop offset="0.8668" stop-color="#A76CAD"/>
</linearGradient>
<linearGradient id="paint26_linear" x1="197.45" y1="351.588" x2="202.28" y2="351.588" gradientUnits="userSpaceOnUse">
<stop stop-color="#71439A"/>
<stop offset="0.8668" stop-color="#A76CAD"/>
</linearGradient>
<linearGradient id="paint27_linear" x1="276.539" y1="202.168" x2="289.48" y2="202.168" gradientUnits="userSpaceOnUse">
<stop stop-color="#71439A"/>
<stop offset="0.8668" stop-color="#A76CAD"/>
</linearGradient>
<linearGradient id="paint28_linear" x1="276.539" y1="207.774" x2="283.017" y2="207.774" gradientUnits="userSpaceOnUse">
<stop stop-color="#71439A"/>
<stop offset="0.8668" stop-color="#A76CAD"/>
</linearGradient>
<linearGradient id="paint29_linear" x1="283.017" y1="207.778" x2="289.479" y2="207.778" gradientUnits="userSpaceOnUse">
<stop stop-color="#71439A"/>
<stop offset="0.8668" stop-color="#A76CAD"/>
</linearGradient>
<linearGradient id="paint30_linear" x1="292.726" y1="196.558" x2="299.218" y2="196.558" gradientUnits="userSpaceOnUse">
<stop stop-color="#71439A"/>
<stop offset="0.8668" stop-color="#A76CAD"/>
</linearGradient>
<linearGradient id="paint31_linear" x1="292.726" y1="199.37" x2="295.976" y2="199.37" gradientUnits="userSpaceOnUse">
<stop stop-color="#71439A"/>
<stop offset="0.8668" stop-color="#A76CAD"/>
</linearGradient>
<linearGradient id="paint32_linear" x1="295.975" y1="199.373" x2="299.218" y2="199.373" gradientUnits="userSpaceOnUse">
<stop stop-color="#71439A"/>
<stop offset="0.8668" stop-color="#A76CAD"/>
</linearGradient>
<linearGradient id="paint33_linear" x1="280.894" y1="174.765" x2="298.094" y2="174.765" gradientUnits="userSpaceOnUse">
<stop stop-color="#71439A"/>
<stop offset="0.8668" stop-color="#A76CAD"/>
</linearGradient>
<linearGradient id="paint34_linear" x1="280.894" y1="182.215" x2="289.504" y2="182.215" gradientUnits="userSpaceOnUse">
<stop stop-color="#71439A"/>
<stop offset="0.8668" stop-color="#A76CAD"/>
</linearGradient>
<linearGradient id="paint35_linear" x1="289.504" y1="182.22" x2="298.094" y2="182.22" gradientUnits="userSpaceOnUse">
<stop stop-color="#71439A"/>
<stop offset="0.8668" stop-color="#A76CAD"/>
</linearGradient>
<linearGradient id="paint36_linear" x1="271.341" y1="168.832" x2="277.787" y2="168.832" gradientUnits="userSpaceOnUse">
<stop stop-color="#71439A"/>
<stop offset="0.8668" stop-color="#A76CAD"/>
</linearGradient>
<linearGradient id="paint37_linear" x1="271.341" y1="171.625" x2="274.568" y2="171.625" gradientUnits="userSpaceOnUse">
<stop stop-color="#71439A"/>
<stop offset="0.8668" stop-color="#A76CAD"/>
</linearGradient>
<linearGradient id="paint38_linear" x1="274.568" y1="171.627" x2="277.787" y2="171.627" gradientUnits="userSpaceOnUse">
<stop stop-color="#71439A"/>
<stop offset="0.8668" stop-color="#A76CAD"/>
</linearGradient>
<linearGradient id="paint39_linear" x1="281.523" y1="239.468" x2="297.484" y2="239.468" gradientUnits="userSpaceOnUse">
<stop stop-color="#71439A"/>
<stop offset="0.8668" stop-color="#A76CAD"/>
</linearGradient>
<linearGradient id="paint40_linear" x1="281.523" y1="246.382" x2="289.512" y2="246.382" gradientUnits="userSpaceOnUse">
<stop stop-color="#71439A"/>
<stop offset="0.8668" stop-color="#A76CAD"/>
</linearGradient>
<linearGradient id="paint41_linear" x1="289.512" y1="246.388" x2="297.484" y2="246.388" gradientUnits="userSpaceOnUse">
<stop stop-color="#71439A"/>
<stop offset="0.8668" stop-color="#A76CAD"/>
</linearGradient>
</defs>
</svg>
