<svg width="650" height="501" viewBox="0 0 650 501" fill="none" xmlns="http://www.w3.org/2000/svg">
<g filter="url(#filter0_d)">
<path d="M259.344 434.7C259.344 434.7 261.444 437.6 267.344 440.7C273.244 443.8 284.544 444.4 283.144 449.3C281.844 454.1 276.744 462.3 268.844 459.4C260.944 456.5 252.144 451.8 248.844 447.4C245.544 443 248.844 434.8 248.844 434.8H259.344V434.7Z" fill="#E0E0E0"/>
<path d="M154.843 119.5H497.843C500.043 119.5 502.243 119.9 504.243 120.8C506.243 121.6 508.143 122.9 509.643 124.4C511.143 125.9 512.443 127.8 513.243 129.8C514.043 131.8 514.543 134 514.543 136.2V408.4H138.143V136.1C138.143 131.7 139.943 127.4 143.043 124.3C146.143 121.2 150.443 119.5 154.843 119.5Z" fill="#E9F7FE"/>
<path d="M154.843 119.5H497.843C500.043 119.5 502.243 119.9 504.243 120.8C506.243 121.6 508.143 122.9 509.643 124.4C511.143 125.9 512.443 127.8 513.243 129.8C514.043 131.8 514.543 134 514.543 136.2V157H138.143V136.1C138.143 131.7 139.943 127.4 143.043 124.3C146.143 121.2 150.443 119.5 154.843 119.5Z" fill="#7B7C7F"/>
<path d="M255.543 132.3H160.143C157.043 132.3 154.543 134.8 154.543 137.9V139.7C154.543 142.8 157.043 145.3 160.143 145.3H255.543C258.643 145.3 261.143 142.8 261.143 139.7V137.9C261.143 134.7 258.643 132.3 255.543 132.3Z" fill="white"/>
<path d="M437.342 138.7C437.342 139.5 437.042 140.4 436.642 141.1C436.142 141.8 435.542 142.4 434.742 142.7C433.942 143 433.142 143.1 432.242 142.9C431.442 142.7 430.642 142.3 430.042 141.7C429.442 141.1 429.042 140.3 428.842 139.5C428.642 138.7 428.742 137.8 429.042 137C429.342 136.2 429.942 135.5 430.642 135.1C431.342 134.6 432.142 134.4 433.042 134.4C433.642 134.4 434.142 134.5 434.642 134.7C435.142 134.9 435.642 135.2 436.042 135.6C436.442 136 436.742 136.5 436.942 137C437.242 137.6 437.342 138.1 437.342 138.7Z" fill="#00BAFF"/>
<path d="M454.544 138.7C454.544 139.5 454.244 140.4 453.844 141.1C453.444 141.8 452.744 142.4 451.944 142.7C451.144 143 450.344 143.1 449.444 142.9C448.644 142.7 447.844 142.3 447.244 141.7C446.644 141.1 446.244 140.3 446.044 139.5C445.844 138.7 445.944 137.8 446.244 137C446.544 136.2 447.144 135.5 447.844 135.1C448.544 134.6 449.344 134.4 450.244 134.4C451.344 134.4 452.444 134.9 453.244 135.7C454.144 136.5 454.544 137.6 454.544 138.7Z" fill="#00BAFF"/>
<path d="M472.243 138.7C472.243 139.5 471.943 140.4 471.543 141.1C471.043 141.8 470.443 142.4 469.643 142.7C468.843 143 468.043 143.1 467.143 142.9C466.343 142.7 465.543 142.3 464.943 141.7C464.343 141.1 463.943 140.3 463.743 139.5C463.543 138.7 463.643 137.8 463.943 137C464.243 136.2 464.843 135.5 465.543 135.1C466.243 134.6 467.043 134.4 467.943 134.4C469.043 134.4 470.143 134.9 470.943 135.7C471.743 136.5 472.243 137.6 472.243 138.7Z" fill="#26C5FF"/>
<path d="M417.543 173.4H235.143C227.943 173.4 222.143 179.2 222.143 186.4V215.6C222.143 222.8 227.943 228.6 235.143 228.6H417.543C424.743 228.6 430.543 222.8 430.543 215.6V186.4C430.543 179.3 424.743 173.4 417.543 173.4Z" fill="white"/>
<path d="M417.543 246H235.143C227.943 246 222.143 251.8 222.143 259V376.4C222.143 383.6 227.943 389.4 235.143 389.4H417.543C424.743 389.4 430.543 383.6 430.543 376.4V259C430.543 251.8 424.743 246 417.543 246Z" fill="white"/>
<path d="M485.443 173.4H459.543C452.343 173.4 446.543 179.2 446.543 186.4V215.2C446.543 222.4 452.343 228.2 459.543 228.2H485.443C492.643 228.2 498.443 222.4 498.443 215.2V186.4C498.443 179.3 492.643 173.4 485.443 173.4Z" fill="white"/>
<path d="M485.443 246H459.543C452.343 246 446.543 251.8 446.543 259V376.4C446.543 383.6 452.343 389.4 459.543 389.4H485.443C492.643 389.4 498.443 383.6 498.443 376.4V259C498.443 251.8 492.643 246 485.443 246Z" fill="white"/>
<path d="M199.043 173.4H162.743C156.843 173.4 152.143 178.2 152.143 184V365.7C152.143 371.6 156.943 376.3 162.743 376.3H199.043C204.943 376.3 209.643 371.6 209.643 365.7V184.1C209.643 178.2 204.943 173.4 199.043 173.4Z" fill="white"/>
<path d="M194.043 204.9C197.343 196.9 193.543 187.8 185.543 184.5C177.543 181.2 168.443 185 165.143 193C161.843 201 165.643 210.1 173.643 213.4C181.643 216.7 190.743 212.9 194.043 204.9Z" fill="#EFEFF0"/>
<path d="M284.743 313.3H255.543C248.343 313.3 242.543 319.1 242.543 326.3V355.5C242.543 362.7 248.343 368.5 255.543 368.5H284.743C291.943 368.5 297.743 362.7 297.743 355.5V326.3C297.743 319.1 291.943 313.3 284.743 313.3Z" fill="#EFEFF0"/>
<path d="M76.3429 264.1H66.6429C62.9429 264.1 59.9429 267.1 59.9429 270.8V280.5C59.9429 284.2 62.9429 287.2 66.6429 287.2H76.3429C80.0429 287.2 83.0429 284.2 83.0429 280.5V270.8C83.0429 267.1 80.0429 264.1 76.3429 264.1Z" fill="url(#paint0_linear)"/>
<path d="M422.043 185.3C422.043 184.2 421.143 183.3 420.043 183.3H236.043C234.943 183.3 234.043 184.2 234.043 185.3V185.7C234.043 186.8 234.943 187.7 236.043 187.7H420.043C421.143 187.7 422.043 186.8 422.043 185.7V185.3Z" fill="#EAEAEA"/>
<path d="M421.842 195.8C421.842 194.7 420.942 193.8 419.842 193.8H235.842C234.742 193.8 233.842 194.7 233.842 195.8V196.2C233.842 197.3 234.742 198.2 235.842 198.2H419.842C420.942 198.2 421.842 197.3 421.842 196.2V195.8Z" fill="#EAEAEA"/>
<path d="M421.842 206.9C421.842 205.8 420.942 204.9 419.842 204.9H235.842C234.742 204.9 233.842 205.8 233.842 206.9V207.3C233.842 208.4 234.742 209.3 235.842 209.3H419.842C420.942 209.3 421.842 208.4 421.842 207.3V206.9Z" fill="#EAEAEA"/>
<path d="M421.842 218C421.842 216.9 420.942 216 419.842 216H235.842C234.742 216 233.842 216.9 233.842 218V218.4C233.842 219.5 234.742 220.4 235.842 220.4H419.842C420.942 220.4 421.842 219.5 421.842 218.4V218Z" fill="#EAEAEA"/>
<path d="M420.443 260.8C420.443 259.7 419.543 258.8 418.443 258.8H234.443C233.343 258.8 232.443 259.7 232.443 260.8V261.2C232.443 262.3 233.343 263.2 234.443 263.2H418.443C419.543 263.2 420.443 262.3 420.443 261.2V260.8Z" fill="#EAEAEA"/>
<path d="M420.443 274.8C420.443 273.7 419.543 272.8 418.443 272.8H234.443C233.343 272.8 232.443 273.7 232.443 274.8V275.2C232.443 276.3 233.343 277.2 234.443 277.2H418.443C419.543 277.2 420.443 276.3 420.443 275.2V274.8Z" fill="#EAEAEA"/>
<path d="M420.443 289.2C420.443 288.1 419.543 287.2 418.443 287.2H234.443C233.343 287.2 232.443 288.1 232.443 289.2V289.6C232.443 290.7 233.343 291.6 234.443 291.6H418.443C419.543 291.6 420.443 290.7 420.443 289.6V289.2Z" fill="#EAEAEA"/>
<path d="M420.443 303.9C420.443 302.8 419.543 301.9 418.443 301.9H234.443C233.343 301.9 232.443 302.8 232.443 303.9V304.3C232.443 305.4 233.343 306.3 234.443 306.3H418.443C419.543 306.3 420.443 305.4 420.443 304.3V303.9Z" fill="#EAEAEA"/>
<path d="M419.742 319.3C419.742 318.2 418.842 317.3 417.742 317.3H306.242C305.142 317.3 304.242 318.2 304.242 319.3V319.7C304.242 320.8 305.142 321.7 306.242 321.7H417.842C418.942 321.7 419.842 320.8 419.842 319.7V319.3H419.742Z" fill="#EAEAEA"/>
<path d="M419.742 332.7C419.742 331.6 418.842 330.7 417.742 330.7H306.242C305.142 330.7 304.242 331.6 304.242 332.7V333.1C304.242 334.2 305.142 335.1 306.242 335.1H417.842C418.942 335.1 419.842 334.2 419.842 333.1V332.7H419.742Z" fill="#EAEAEA"/>
<path d="M420.143 347.7C420.143 346.6 419.243 345.7 418.143 345.7H306.543C305.443 345.7 304.543 346.6 304.543 347.7V348.1C304.543 349.2 305.443 350.1 306.543 350.1H418.143C419.243 350.1 420.143 349.2 420.143 348.1V347.7Z" fill="#EAEAEA"/>
<path d="M420.143 364.2C420.143 363.1 419.243 362.2 418.143 362.2H306.543C305.443 362.2 304.543 363.1 304.543 364.2V364.6C304.543 365.7 305.443 366.6 306.543 366.6H418.143C419.243 366.6 420.143 365.7 420.143 364.6V364.2Z" fill="#EAEAEA"/>
<path d="M207.543 315.3L205.443 312.2C191.243 307.7 191.743 333.1 207.043 325.2L208.043 325.8L207.543 315.3ZM206.143 324.1C193.443 330.7 193.643 309.7 205.343 313.5L206.043 313.8L206.643 316L207.043 324.7L206.143 324.1Z" fill="#0092C8"/>
<path d="M86.5425 300.2C86.5425 300.2 46.9425 326.8 52.5425 368.2C58.7425 414.4 86.3425 436.3 131.343 438.4C188.543 441 226.943 424 233.643 404C240.343 384 215.243 338.8 197.743 336.4C170.843 332.6 145.743 301.6 138.943 295.5C132.143 289.4 115.943 287.7 106.343 290.5C96.6425 293.2 86.5425 300.2 86.5425 300.2Z" fill="#00BAFF"/>
<path d="M93.4425 310C87.1425 322.7 85.8425 337.4 89.9425 351C98.2425 378.8 115.343 395.3 146.743 395.5C204.143 395.9 204.343 382.4 207.043 376.3C209.743 370.2 220.143 351.9 192.843 352.8C165.643 353.7 119.443 299.8 119.443 299.8L93.4425 310Z" fill="#26C5FF"/>
<path d="M126.043 322.7L124.643 330.4L114.143 329.3C114.143 329.3 113.943 328.7 113.543 327.8C112.643 325.3 110.643 320.7 109.543 320C107.943 319.1 102.743 316.9 102.043 315.4C101.343 313.9 97.4429 305.9 97.5429 305.5C97.6429 305.1 99.0429 291.4 99.0429 291.4L106.843 288.7L109.143 287.8L114.243 285.7L116.143 288.7C119.143 292.5 121.543 296.8 123.043 301.5C124.543 306.2 125.443 313.3 124.043 314.4C122.643 315.6 121.043 315.4 121.943 317.1C122.843 318.7 126.043 322.7 126.043 322.7Z" fill="#E0E0E0"/>
<path d="M115.943 327.6L113.543 327.7C112.643 325.2 110.643 320.6 109.543 319.9C107.943 319 102.743 316.8 102.043 315.3C101.343 313.8 97.4429 305.8 97.5429 305.4C97.6429 305 99.0429 291.3 99.0429 291.3L106.843 288.6L109.143 287.7C110.543 288.9 111.843 290.1 111.843 290.1C111.843 290.1 105.643 294.4 106.343 297.5C107.043 300.6 112.543 306 110.343 308C108.143 310 108.743 315.9 110.543 317.2C112.443 318.5 114.743 324.1 114.743 324.1L115.943 327.6Z" fill="#A8A8A8"/>
<path d="M115.143 276.5C116.043 279.1 115.743 278.9 116.943 283.9C117.143 284.7 117.043 285.5 116.843 286.3C116.643 287.1 116.143 287.8 115.643 288.3C113.643 290.5 106.843 290.3 105.043 293.8C103.343 297.3 102.443 302.1 104.543 303.6C106.643 305 107.943 305.5 106.843 305.5C105.743 305.5 100.343 304.9 100.743 306.5C101.043 307.4 101.543 308.1 102.143 308.8C102.743 309.5 103.543 310 104.343 310.4C106.943 311.3 104.543 317.3 105.843 318.1C107.143 318.8 104.343 320.5 97.5426 316.7C90.7426 312.9 84.0426 302.9 87.5426 296.6C91.0426 290.3 88.1426 288 93.8426 283C97.5426 279.7 105.143 280.2 106.043 278.2C106.943 276.2 107.143 269.9 108.443 272.3C109.743 274.7 110.543 279.8 110.543 279.8C110.543 279.8 111.143 271.8 112.943 272.7C114.243 273.3 114.543 274.7 115.143 276.5Z" fill="black"/>
<path d="M175.042 410.9C175.042 410.9 169.042 415 167.642 419.1C166.342 423.3 161.442 443.8 165.842 447.3C170.242 450.8 175.742 449.9 177.942 444.2C180.142 438.5 186.542 422.9 189.642 419.8L192.742 416.7L175.042 410.9Z" fill="#E0E0E0"/>
<path d="M237.043 355.3C226.443 379.9 191.943 426.4 191.943 426.4L177.743 413.3L172.543 408.6L207.043 363.7C207.043 363.7 196.143 364 193.543 361C190.943 357.9 176.943 352.3 176.943 352.3C176.943 352.3 174.143 351.1 171.443 350L172.343 345.7L191.943 343.5C191.943 343.5 231.743 334.6 239.043 341.3C241.043 343.2 239.943 348.4 237.043 355.3Z" fill="#1631A4"/>
<path d="M237.042 355.3C226.442 379.9 191.942 426.4 191.942 426.4L177.742 413.3L237.042 355.3Z" fill="#020089"/>
<path d="M193.143 316.1V323.2C186.943 325.6 180.543 327.5 174.043 329C169.743 330 165.443 330.8 161.143 331.3C153.443 332.2 147.743 331.1 144.043 329.8C141.943 329.1 139.943 328.1 138.143 326.7L148.143 317C148.143 317 149.243 317.4 150.743 318C152.343 318.6 154.643 319.4 156.643 320C158.243 320.6 159.943 320.8 161.743 320.8C164.943 320.2 174.943 318 182.743 317C186.143 316.6 189.643 316.3 193.143 316.1Z" fill="#E0E0E0"/>
<path d="M156.342 380.7C156.342 380.7 185.542 400.8 199.742 408.7C213.942 416.6 242.342 450.9 242.342 450.9L262.142 432.1C262.142 432.1 200.042 370.3 194.442 366.6C188.742 362.9 167.642 355.3 167.642 355.3L156.442 361.9L156.342 380.7Z" fill="#1631A4"/>
<path d="M207.142 363.7C207.142 363.7 207.042 363.7 207.142 363.7C206.542 364.1 197.542 369.5 194.342 366.6C191.042 363.5 169.742 358.5 169.742 358.5L171.542 350C174.242 351.2 177.042 352.3 177.042 352.3C177.042 352.3 191.042 357.9 193.642 361C196.242 364.1 207.142 363.7 207.142 363.7Z" fill="#020089"/>
<path d="M174.043 329.1C169.743 330.1 165.443 330.9 161.143 331.4C153.443 332.3 147.743 331.2 144.043 329.9L143.943 326.8L147.843 321.6C147.843 321.6 150.243 318.6 150.443 318.2C150.443 318.2 150.543 318.1 150.743 318.1C152.343 318.7 154.643 319.5 156.643 320.1C156.643 320.1 156.643 326.5 158.443 327.5C160.243 328.5 173.543 329.1 174.043 329.1Z" fill="#BFBFBF"/>
<path d="M191.943 343.5C191.943 343.5 181.343 347.4 169.743 358.4C166.243 361.7 162.743 367.7 160.243 372.6C152.143 368.8 134.843 364.3 130.843 361.8C126.243 358.9 141.243 335.9 141.243 335.9L115.943 355.3L105.243 348.9L103.243 344.9C103.243 344.9 102.943 335.6 104.943 331.7C107.943 326.1 124.043 319.9 124.043 319.9C127.943 318.2 132.443 318 136.543 319.2C142.643 321 161.243 334.8 174.243 334.8C184.743 334.9 191.943 343.5 191.943 343.5Z" fill="white"/>
<path d="M196.843 313.6C200.143 313.6 202.443 312.7 202.643 315.3C202.943 319 203.443 323.8 201.243 325.3C199.443 326.5 190.643 324.2 190.643 320.9C190.643 317.5 193.143 313.6 196.843 313.6Z" fill="#BFBFBF"/>
<path d="M143.043 319.4V299.5L152.143 293.6V313.5L145.543 320.9H142.443L143.043 319.4Z" fill="#58595B"/>
<path d="M129.342 318.5C129.342 318.5 129.842 316.7 133.342 316.5C136.842 316.3 148.442 317.1 148.442 317.1L146.442 324.6L143.942 326.8L129.342 318.5Z" fill="#EAEAEA"/>
<path d="M141.842 315.9V299.3L150.842 293.4L152.142 293.6L143.042 299.5V319.4L141.242 319.1L141.842 315.9Z" fill="#414042"/>
<path d="M160.143 372.6C157.843 377.1 156.343 380.7 156.343 380.7C156.343 380.7 153.843 378.7 146.143 375.9C138.443 373 123.243 371.5 119.743 369.7C116.143 367.9 109.943 359.9 109.943 359.9L109.543 357.5L105.143 348.9L115.843 355.3L141.143 335.9C141.143 335.9 126.043 359 130.743 361.8C134.843 364.3 152.143 368.8 160.143 372.6Z" fill="#EAEAEA"/>
<path d="M154.343 321C153.543 325 144.043 331.8 144.043 331.8C144.043 331.8 142.943 333.4 141.243 335.9C135.243 344.5 121.343 363.4 116.343 361.7C112.843 360.4 109.443 358.6 106.343 356.5C106.343 356.5 109.643 351.1 112.043 347.4C112.743 346.2 113.543 345.1 114.443 344.2C115.443 343.8 118.743 347.1 118.743 347.1C122.043 344.2 125.243 341.1 128.243 337.9C131.143 334.5 139.243 326.8 139.943 323.9C140.643 321 138.543 317.5 139.543 314.1C140.543 310.7 142.743 317.5 143.143 319.5C143.543 321.5 144.043 318.3 145.943 314C147.443 310.4 148.143 311.6 152.343 313.6C156.443 315.6 155.443 315.4 154.343 321Z" fill="#E0E0E0"/>
<path d="M198.642 313.6C201.042 313.6 202.642 312.7 202.742 315.3C202.942 319 203.342 323.8 201.742 325.3C200.442 326.5 194.242 324.2 194.242 320.9C194.242 317.5 195.942 313.6 198.642 313.6Z" fill="#E0E0E0"/>
<path d="M205.443 310H217.643V322.8C217.643 323.5 217.543 324.2 217.243 324.8C216.943 325.4 216.543 326 216.143 326.5C215.643 327 215.043 327.4 214.443 327.6C213.843 327.9 213.143 328 212.443 328H210.743C209.343 328 208.043 327.4 207.043 326.5C206.043 325.5 205.543 324.2 205.543 322.8V310H205.443Z" fill="#00BAFF"/>
<path d="M141.243 335.9C135.243 344.5 121.343 363.4 116.343 361.7C112.843 360.4 109.443 358.6 106.343 356.5C106.343 356.5 109.643 351.1 112.043 347.4L114.543 350.7C114.543 350.7 112.543 355.4 116.043 355.3C119.443 355.2 140.543 336.5 141.243 335.9Z" fill="#C8C8C8"/>
<path d="M118.543 345.2C118.543 345.2 114.543 338.4 113.443 337.1C109.843 332.9 99.4427 333.2 100.643 343.6C101.443 350.2 105.043 357.8 105.043 357.8C110.643 355.1 115.343 350.7 118.543 345.2Z" fill="white"/>
<path d="M77.5429 319C71.0429 320.8 67.9429 335.6 67.5429 345C66.5429 366.8 68.8429 406 97.4429 415.8C137.643 429.5 185.943 425.2 155.243 412.8C124.443 400.4 101.143 399.1 91.6429 382.6C83.4429 368.1 85.8429 319.4 77.5429 319C77.6429 319 77.5429 319 77.5429 319Z" fill="#38C9FF"/>
<path d="M150.743 330.6C150.443 332.6 151.043 334.7 152.143 336.3C153.143 337.7 153.943 340.1 151.943 343.1C148.643 348 143.343 353 147.443 351.2C151.543 349.4 166.843 336.4 162.343 335.8C154.343 334.7 151.043 328.6 150.743 330.6Z" fill="#EAEAEA"/>
<path d="M433.343 411.8L436.643 419.3H408.643C408.643 419.3 421.243 413.1 422.643 411.8C424.043 410.5 429.243 409.2 429.243 409.2L433.343 411.8Z" fill="#E0E0E0"/>
<path d="M459.543 406.2L463.043 414.8H433.043C433.043 414.8 445.343 409.6 447.243 407.5C449.143 405.4 457.543 403.9 457.543 403.9L459.543 406.2Z" fill="#E0E0E0"/>
<path d="M436.642 343.3L434.642 384.6L433.342 411.8H426.042L421.742 344.5L426.342 344.1L436.642 343.3Z" fill="#E0E0E0"/>
<path d="M445.742 342.8L451.542 406.3H459.442L460.742 339.5L445.742 342.8Z" fill="#E0E0E0"/>
<path d="M460.843 339.5H460.543L448.643 342.1C450.443 344.7 455.343 352.9 455.743 362.4C456.143 373.8 458.943 390.6 459.043 391.2L460.543 360.7L460.843 339.5Z" fill="#C2C2C2"/>
<path d="M464.743 306.6C464.743 306.6 466.643 310.1 464.943 319.4C463.543 326.5 468.543 343.3 468.543 343.3L444.243 342.7L428.543 337.7L429.843 320.4L444.643 303.4L464.743 306.6Z" fill="#00A7E6"/>
<path d="M436.643 343.3L434.643 384.6C434.543 384.1 432.343 370.8 432.043 361.7C431.743 352.5 425.943 344.8 425.943 344.8L426.443 344.2L436.643 343.3Z" fill="#C2C2C2"/>
<path d="M417.042 308.4L414.342 344.1L444.742 346.1C444.742 346.1 443.542 336.5 444.642 331.1C447.642 316.6 443.842 312.4 443.842 312.4L439.542 306.1L417.042 308.4Z" fill="#00BAFF"/>
<path d="M441.642 231.7C441.642 231.7 441.042 232.6 440.342 233.7C439.142 235.5 437.542 238 437.442 238.2C437.242 238.5 432.342 239.7 432.342 239.7C432.342 239.7 429.142 238 428.842 237.8C428.542 237.6 425.542 232.4 425.542 232.4C425.442 231.7 425.342 231 425.542 230.4C425.742 228.7 425.542 224.6 425.542 224.6L424.342 223.7L427.242 219.4C427.242 219.4 430.942 219.8 434.242 220.4C436.842 220.9 439.242 221.7 439.142 222.6C439.242 224.6 441.642 231.7 441.642 231.7Z" fill="#C8C8C8"/>
<path d="M439.342 200.9C438.142 205.2 436.442 209.4 434.242 213.3C433.742 210.2 433.142 206.6 433.142 206.6L425.642 197.8C425.642 197.8 420.842 195.4 418.842 195.4C418.242 195.4 417.542 195.4 416.842 195.4L432.242 193.8L439.342 200.9Z" fill="#F6DADF"/>
<path d="M434.142 213.3C432.742 215.8 431.142 218.2 429.342 220.4C427.942 222.1 426.542 223.7 424.942 225.3C420.642 229.4 419.042 228.6 417.942 228.2C415.842 227.4 414.442 221.8 413.942 211.8C413.842 209.3 413.942 206.7 414.342 204.2C414.742 201.2 415.542 198.3 416.842 195.5H416.942C417.642 195.5 418.342 195.5 418.942 195.5C420.942 195.5 425.742 197.9 425.742 197.9L433.242 206.7C433.042 206.6 433.642 210.1 434.142 213.3Z" fill="#E0E0E0"/>
<path d="M412.542 263.7C411.742 267.2 410.642 270.7 409.342 274C408.742 273.5 399.742 265.8 396.542 259.3C394.942 256.1 393.342 252.1 391.842 248.7C390.142 244.9 388.742 241.7 388.042 241.3C386.642 240.4 381.842 238.8 382.742 236.6C383.642 234.4 383.142 230.7 384.642 229.8C386.042 228.9 387.442 228.8 387.442 227.7C387.442 226.6 383.342 219.9 383.342 219.3C383.342 219 383.442 218.8 383.542 218.6C383.742 218.4 383.942 218.2 384.142 218.1C384.342 218 384.642 218 384.942 218.1C385.142 218.2 385.442 218.3 385.642 218.5C385.842 218.7 385.942 218.9 386.142 219.2C386.842 220.7 390.042 226.5 391.042 227.4C392.042 228.3 393.842 229 395.042 231.9C396.242 234.9 395.342 237.5 396.042 238.7C397.142 240.7 398.542 242.6 400.142 244.4C403.342 248 408.542 253.8 411.242 257.1C411.942 257.9 412.442 258.6 412.742 259C413.042 259.8 412.942 261.7 412.542 263.7Z" fill="#E0E0E0"/>
<path d="M459.142 256.6C459.142 256.6 461.542 263.3 460.742 265.6C460.142 267 459.142 268.2 457.742 268.9C456.442 269.6 454.842 269.8 453.342 269.5L449.842 268.7V255.8L455.342 252.7L459.142 256.6Z" fill="#E0E0E0"/>
<path d="M443.242 233C446.442 234 449.242 236 451.042 238.9C454.442 244.1 460.342 256.2 460.342 256.2C460.342 256.2 454.842 258.5 450.742 257.4L446.642 256.3L443.242 233Z" fill="#C8C8C8"/>
<path d="M434.142 213.3C432.742 215.8 431.142 218.2 429.342 220.4C427.942 222.1 426.542 223.7 424.942 225.3C424.842 225.1 422.142 219.7 422.442 217C422.742 214.3 420.642 216.4 418.742 217.6C416.842 218.8 418.642 209.4 417.442 209.6C416.242 209.8 415.142 206.7 415.142 205.6C415.142 205.3 415.042 205 414.842 204.7C414.642 204.4 414.442 204.2 414.242 204C414.642 201 415.442 198.1 416.742 195.3H416.842C417.542 195.3 418.242 195.3 418.842 195.3C420.842 195.3 425.642 197.7 425.642 197.7L433.142 206.5C433.042 206.6 433.642 210.1 434.142 213.3Z" fill="#C8C8C8"/>
<path d="M441.642 231.7C441.642 231.7 441.042 232.6 440.342 233.7L438.442 233C438.042 231.1 437.442 229.2 436.842 227.3C436.042 225.7 432.642 225.9 432.642 225.9L431.242 222.2L434.442 220.5C437.042 221 439.442 221.8 439.342 222.7C439.242 224.6 441.642 231.7 441.642 231.7Z" fill="#C8C8C8"/>
<path d="M423.443 310.1C423.443 310.1 434.943 314.6 432.243 323.4C429.543 332.2 423.743 340 430.343 335.5C436.943 331 445.443 316.3 441.443 310.1C437.443 303.9 423.443 310.1 423.443 310.1Z" fill="#38C9FF"/>
<path d="M466.643 305.4C466.643 305.4 457.143 312.4 440.543 312.4C426.243 312.4 408.943 305.6 408.943 305.6C408.943 305.6 408.743 303.8 410.843 285.2C411.043 283.4 411.243 281.6 411.443 279.9C412.443 271.8 413.643 265 414.843 259.3C420.743 231 427.943 231 427.943 231L429.343 230.7C434.943 229.5 440.643 230.5 445.543 233.4C446.643 234 447.643 234.8 448.443 235.8C453.043 242.4 466.643 305.4 466.643 305.4Z" fill="#F1F1F1"/>
<path d="M412.343 186.2C412.243 186.1 412.143 186 411.943 186C411.843 186 411.643 186 411.543 186C411.443 186 411.243 186.1 411.143 186.2C411.043 186.3 410.943 186.4 410.943 186.6C410.443 188.9 409.943 193.2 411.343 196.6C413.243 201.1 415.143 201 415.843 203.4C416.543 205.9 416.643 206.9 418.543 206.8C420.443 206.6 420.743 205.4 420.643 207.5C420.643 209.2 420.443 211 420.143 212.7C419.843 214.1 418.143 216.2 419.743 215C421.343 213.8 422.743 208.5 424.443 209.1C426.143 209.7 428.543 213.2 426.543 214.3C424.543 215.4 423.543 217.7 424.143 219.2C424.743 220.7 425.643 224.2 427.343 225.2C429.043 226.2 435.043 226.3 437.543 225.2C440.843 223.7 443.943 219.6 444.843 216.4C445.643 213.6 446.243 202.1 443.343 195.8C440.343 189.5 433.943 184.8 429.643 185C426.543 185.1 418.943 191 416.043 189.2C414.743 188.3 413.443 187.3 412.343 186.2Z" fill="black"/>
<path d="M428.442 267.4C432.142 276.2 411.842 277.3 411.842 277.3C412.842 269.2 413.642 265.1 414.842 259.4C416.742 255.9 420.442 248.3 420.442 248.3L429.342 244.1C429.342 244 424.842 258.8 428.442 267.4Z" fill="#F1F1F1"/>
<path d="M424.842 256.7C424.842 256.7 420.642 269.7 417.942 272.5C416.842 273.6 415.442 274.5 414.042 275.2C413.242 275.6 412.342 275.7 411.442 275.5C410.542 275.3 409.842 274.8 409.242 274C408.942 273.6 408.742 273.2 408.642 272.7C407.942 269.7 407.542 265.6 408.842 262.4C408.942 262.2 409.042 261.9 409.142 261.7C409.842 259.9 410.442 258.3 410.942 256.9C411.942 254.1 412.442 252.3 412.442 252.3L420.242 250L420.742 250.7L424.842 256.7Z" fill="#E0E0E0"/>
<path d="M428.743 239.4C426.643 234.7 419.543 234.3 416.543 238.8C416.343 239.1 416.143 239.4 416.043 239.8C413.843 244.7 411.043 251.5 411.043 251.5C415.843 254.6 421.343 256.4 427.043 256.9C427.043 256.9 429.243 247.5 429.443 244C429.643 242.4 429.443 240.8 428.743 239.4Z" fill="#C8C8C8"/>
<path d="M280.442 77.7999C280.442 77.8999 280.142 78.3999 279.842 79.1999C279.542 79.9999 279.142 80.9 278.642 82C277.342 85.1 275.742 88.6999 275.742 88.6999C273.442 87.7999 271.442 86.1999 270.042 84.1999C268.042 80.9999 260.842 76.5999 260.842 76.5999L261.142 73.2L261.442 69.7H276.142C276.142 69.7 279.142 74.6999 280.142 76.7999C280.342 77.1999 280.442 77.4999 280.442 77.7999Z" fill="black"/>
<path d="M390.743 110.4C390.743 110.4 415.343 115.2 425.643 111.5C435.943 107.9 480.843 73.1 484.843 74.5C488.843 75.9 506.443 86.5 506.443 86.5C506.443 86.5 491.443 65.8 486.243 64.4C481.043 63 436.843 86.4 423.143 90.6C411.443 94.1 375.443 85 375.443 85L390.743 110.4Z" fill="#E0E0E0"/>
<path d="M509.143 112.9C509.143 112.9 494.343 98.6 490.743 96.4C488.743 95.1 471.543 102.2 454.943 108.8C442.043 114 429.543 118.9 424.743 119.4C413.843 120.7 390.943 110.6 390.943 110.6L384.443 90.9L381.643 82.4C381.643 82.4 385.043 84.1 390.043 86.4C392.943 87.7 396.443 89.3 400.043 90.8C409.743 94.9 420.943 98.8 426.943 98.4C441.243 97.4 489.543 84.3 494.243 86.8C499.143 89.4 509.143 112.9 509.143 112.9Z" fill="#E0E0E0"/>
<path d="M266.243 65.1C265.943 66.7 265.443 68.3 264.743 69.8C264.043 71.3 263.243 72.8 262.443 74.2C261.943 75.1 261.443 75.9 260.943 76.6C259.743 78.3 258.743 79.8 258.143 80.5C254.743 85.1 250.343 80.7 246.243 75.1C243.943 71.8 242.043 68.2 240.543 64.4C239.643 62.1 239.043 60.5 239.043 60.5C239.043 60.5 247.743 50.8 248.443 50.4C248.543 50.4 248.643 50.3 248.843 50.4C250.043 50.5 251.343 50.7 252.543 50.9C254.243 51.2 255.943 51.6 255.943 51.6C257.843 53 259.743 54.6 261.443 56.3C263.943 59.2 266.543 62.5 266.243 65.1Z" fill="#E0E0E0"/>
<path d="M254.343 116.6H210.143V119.5H254.343V116.6Z" fill="#58595B"/>
<path d="M210.142 116.6L197.242 75.2L200.042 74.1L213.442 116.5H210.142V116.6Z" fill="#58595B"/>
<path d="M280.143 76.9C280.143 77.7 280.043 78.4 279.843 79.2C279.743 80.2 279.343 81.2 278.643 82C278.343 82.3 277.943 82.6 277.443 82.7C276.943 82.8 276.543 82.7 276.143 82.5C273.543 81.6 267.843 78.1 262.343 74.2C261.943 73.9 261.443 73.6 261.043 73.3C257.443 70.9 254.943 67.2 253.843 63.1C252.243 58.2 240.943 64.3 240.443 64.6C239.543 62.3 238.943 60.7 238.943 60.7C238.943 60.7 247.643 51 248.343 50.6C248.443 50.6 248.543 50.5 248.743 50.6H251.543L252.443 51.1L261.243 56.5C263.943 59.2 266.543 62.5 266.143 65.2C265.843 66.8 265.343 68.4 264.643 69.9H276.043C276.143 69.8 279.143 74.8 280.143 76.9Z" fill="#C8C8C8"/>
<path d="M239.942 63.1C238.042 61 236.742 58.4 236.042 55.6C235.142 51.3 241.642 40.9 250.842 39.9C262.342 38.7 266.442 41.5 274.342 49.3C282.242 57.1 285.142 60 290.942 60.3C300.242 60.7 301.642 66.8 302.042 70.1C302.442 73.1 301.342 81.2 291.342 81.8C281.342 82.4 264.042 76.2 261.442 69.9C258.842 63.6 259.042 57.1 252.642 55.9C246.442 54.7 239.942 63.1 239.942 63.1Z" fill="black"/>
<path d="M454.943 108.8C442.043 114 429.543 118.9 424.743 119.4C413.843 120.7 390.943 110.6 390.943 110.6L384.443 90.9L390.043 86.5C392.943 87.8 396.443 89.4 400.043 90.9C400.043 90.9 400.443 100.4 409.143 105.3C417.943 110.3 454.943 108.8 454.943 108.8Z" fill="#D8D9DA"/>
<path d="M394.443 92.1C394.543 101.4 390.543 119.4 390.543 119.4C390.543 119.4 344.043 119.3 336.643 119.4C329.343 119.5 310.743 119.4 303.843 118.9C293.743 118.2 291.543 112.5 287.843 107C284.143 101.5 278.043 98.6 273.443 93.5C269.843 89.4 269.043 84.1 269.343 83.3C269.643 82.5 277.043 80.8 275.643 76.1C274.343 71.4 301.843 69.9 301.843 69.9C301.843 69.9 324.643 82.3 337.143 80C349.643 77.7 357.743 71.3 371.643 71.3C375.243 71.3 393.043 69.6 393.043 69.6C393.043 69.6 393.643 74.5 394.043 82.1C394.343 85.2 394.443 88.5 394.443 92.1Z" fill="white"/>
<path d="M295.543 99.7C294.143 104.5 291.643 108.9 288.243 112.6C284.043 117 279.143 118.9 274.943 118.9C270.143 118.9 250.243 106.5 245.143 102.7C240.043 98.9 235.043 98.8 233.743 100C232.443 101.2 229.743 101.5 227.143 102.1C224.543 102.7 222.443 99.9 222.143 98.8C221.843 97.6 223.343 96.7 222.743 96.2C222.043 95.7 217.343 98 216.343 98.3C215.243 98.6 214.443 98.7 214.043 98.3C213.643 97.9 220.243 94.5 222.443 93.8C224.643 93 234.743 92.6 239.943 92.7C245.143 92.8 263.643 102.6 267.443 103.9C273.943 106.1 275.143 104.5 277.443 101C279.343 98 280.943 95 282.443 91.8C282.743 91.8 299.743 86.2 295.543 99.7Z" fill="#E0E0E0"/>
<path d="M213.143 116.7V116.6C213.143 116.3 212.943 116.1 212.643 116.1H210.643C210.343 116.1 210.143 116.3 210.143 116.6V116.7C210.143 117 210.343 117.2 210.643 117.2H212.643C212.943 117.1 213.143 116.9 213.143 116.7Z" fill="#00BAFF"/>
<path d="M394.243 82.3001C385.243 84.5001 375.043 90.6001 360.443 95.4001C340.443 101.9 300.843 76.1001 292.443 79.3001C284.043 82.5001 269.543 83.5 269.543 83.5C269.843 82.7 277.243 81 275.843 76.3C274.543 71.6 302.043 70.1 302.043 70.1C302.043 70.1 324.843 82.5 337.343 80.2C349.843 77.9 357.943 71.5 371.843 71.5C375.443 71.5 393.243 69.8 393.243 69.8C393.243 69.8 393.843 74.7001 394.243 82.3001Z" fill="#F6F6F6"/>
<path d="M279.043 89.8L297.543 102.2C297.543 102.2 301.443 93.9 302.543 87.3C302.843 85.4 302.843 83.4999 302.643 81.6999C302.543 80.6999 302.143 79.6999 301.643 78.7999C301.143 77.8999 300.343 77.0999 299.543 76.5999C298.643 75.9999 297.643 75.6 296.643 75.4C295.643 75.2 294.543 75.2999 293.543 75.5999C290.943 76.1999 288.643 77.5 286.743 79.4C283.643 82.2 279.043 89.8 279.043 89.8Z" fill="#F1F2F2"/>
<path d="M126.342 269.6V224.7C126.342 223.4 126.842 222.1 127.742 221.2C128.642 220.3 129.942 219.8 131.242 219.8H266.642C267.942 219.8 269.242 220.3 270.142 221.2C271.042 222.1 271.542 223.4 271.542 224.7V257.1C271.542 258.4 271.042 259.7 270.142 260.6C269.242 261.5 267.942 262 266.642 262H135.542C134.842 262 134.242 262.1 133.542 262.4C132.942 262.7 132.342 263.1 131.942 263.6L126.342 269.6Z" fill="#6ACFF6"/>
<path d="M327.143 26.2V44.4C327.143 46 326.443 47.6 325.343 48.8C324.143 50 322.643 50.6 320.943 50.6H302.743C301.943 50.6 301.143 50.4 300.343 50.1C299.543 49.8 298.943 49.3 298.343 48.8C297.743 48.2 297.343 47.5 297.043 46.8C296.743 46 296.543 45.2 296.543 44.4V44L288.543 43.5C288.443 43.5 288.343 43.4 288.243 43.4C288.143 43.3 288.043 43.2 288.043 43.1C288.043 43 288.043 42.9 288.043 42.7C288.043 42.6 288.143 42.5 288.243 42.4L296.643 36V26.2C296.643 25.4 296.843 24.6 297.143 23.8C297.443 23 297.943 22.4 298.443 21.8C299.043 21.2 299.743 20.8 300.443 20.5C301.243 20.2 302.043 20 302.843 20H321.043C321.843 20 322.643 20.2 323.443 20.5C324.243 20.8 324.843 21.3 325.443 21.8C326.043 22.4 326.443 23.1 326.743 23.8C327.043 24.6 327.143 25.4 327.143 26.2Z" fill="url(#paint1_linear)"/>
<path d="M71.5428 272.1C71.7428 271.9 71.9428 271.6 72.1428 271.4C72.5428 271 73.1428 270.8 73.7428 270.7C74.3428 270.6 74.9428 270.6 75.4428 270.8C76.0428 271 76.4428 271.3 76.8428 271.8C77.2428 272.2 77.4428 272.8 77.5428 273.4C77.6428 274.3 77.5428 275.2 77.0428 275.9C76.5428 276.7 75.9428 277.4 75.1428 278.1C74.0428 279.1 72.8428 280 71.5428 280.7H71.4428H71.3428C69.7428 279.8 68.2428 278.7 67.0428 277.4C66.4428 276.8 65.9428 276.1 65.6428 275.3C65.4428 274.8 65.3428 274.4 65.3428 273.9C65.3428 273.4 65.4428 272.9 65.7428 272.5C65.9428 272.1 66.3428 271.7 66.7428 271.4C67.1428 271.1 67.6428 270.9 68.0428 270.8C68.6428 270.7 69.3428 270.7 69.9428 270.9C70.5428 271.1 71.0428 271.5 71.4428 272.1H71.5428Z" fill="white"/>
<path d="M172.543 81.8H162.843C159.143 81.8 156.143 84.8 156.143 88.5V98.2C156.143 101.9 159.143 104.9 162.843 104.9H172.543C176.243 104.9 179.243 101.9 179.243 98.2V88.5C179.243 84.8 176.243 81.8 172.543 81.8Z" fill="white"/>
<path d="M167.743 89.8C167.943 89.6 168.143 89.3 168.343 89.1C168.743 88.7 169.343 88.5 169.943 88.4C170.543 88.3 171.143 88.3 171.643 88.5C172.243 88.7 172.643 89 173.043 89.5C173.443 89.9 173.643 90.5 173.743 91.1C173.843 92 173.743 92.9 173.243 93.6C172.743 94.4 172.143 95.1 171.343 95.8C170.243 96.8 169.043 97.7 167.743 98.4H167.643H167.543C165.943 97.5 164.443 96.4 163.243 95.1C162.643 94.5 162.143 93.8 161.843 93C161.643 92.5 161.543 92.1 161.543 91.6C161.543 91.1 161.643 90.6 161.943 90.2C162.143 89.8 162.543 89.4 162.943 89.1C163.343 88.8 163.843 88.6 164.243 88.5C164.843 88.4 165.543 88.4 166.143 88.6C166.743 88.8 167.243 89.2 167.643 89.8H167.743Z" fill="#00BAFF"/>
<path d="M501.343 258.5H491.643C487.943 258.5 484.943 261.5 484.943 265.2V274.9C484.943 278.6 487.943 281.6 491.643 281.6H501.343C505.043 281.6 508.043 278.6 508.043 274.9V265.2C508.043 261.5 505.043 258.5 501.343 258.5Z" fill="url(#paint2_linear)"/>
<path d="M496.442 266C496.642 265.8 496.842 265.5 497.042 265.3C497.442 264.9 498.042 264.7 498.642 264.6C499.242 264.5 499.842 264.5 500.342 264.7C500.942 264.9 501.342 265.2 501.742 265.7C502.142 266.1 502.342 266.7 502.442 267.3C502.542 268.2 502.442 269.1 501.942 269.8C501.442 270.6 500.842 271.3 500.042 272C498.942 273 497.742 273.9 496.442 274.6H496.342H496.242C494.642 273.7 493.142 272.6 491.942 271.3C491.342 270.7 490.842 270 490.542 269.2C490.342 268.7 490.242 268.3 490.242 267.8C490.242 267.3 490.342 266.8 490.642 266.4C490.842 266 491.242 265.6 491.642 265.3C492.042 265 492.542 264.8 492.942 264.7C493.542 264.6 494.242 264.6 494.842 264.8C495.442 265 495.942 265.4 496.342 266H496.442Z" fill="white"/>
<path d="M158.742 242.9C159.842 236.3 155.342 230 148.642 228.9C142.042 227.8 135.742 232.3 134.642 239C133.542 245.6 138.042 251.9 144.742 253C151.342 254 157.642 249.5 158.742 242.9Z" fill="white"/>
<path d="M311.542 31.7999C311.842 31.4999 312.142 31.2 312.442 30.9C313.042 30.4 313.842 30 314.542 29.9C315.342 29.8 316.142 29.8 316.942 30.1C317.742 30.4 318.342 30.8 318.942 31.4C319.442 32 319.842 32.8 319.942 33.5C320.142 34.7 319.842 35.9 319.242 36.9C318.542 38 317.742 39 316.742 39.9C315.242 41.1999 313.542 42.4 311.842 43.4H311.742H311.642C309.442 42.1999 307.442 40.6 305.742 38.9C304.942 38.1 304.242 37.1 303.742 36.1C303.442 35.5 303.342 34.8 303.342 34.1C303.342 33.4 303.542 32.8 303.842 32.2C304.142 31.6 304.642 31.1 305.142 30.7C305.642 30.3 306.342 30 306.942 29.9C307.842 29.7 308.742 29.8 309.542 30.1C310.342 30.4 311.042 31 311.542 31.7V31.7999Z" fill="white"/>
<path d="M453.342 218.7V173.8C453.342 172.5 453.842 171.2 454.742 170.3C455.642 169.4 456.942 168.9 458.242 168.9H593.642C594.942 168.9 596.242 169.4 597.142 170.3C598.042 171.2 598.542 172.5 598.542 173.8V206.2C598.542 207.5 598.042 208.8 597.142 209.7C596.242 210.6 594.942 211.1 593.642 211.1H462.542C461.842 211.1 461.242 211.2 460.542 211.5C459.942 211.8 459.342 212.2 458.942 212.7L453.342 218.7Z" fill="#6DCFF6"/>
<path d="M484.343 190.9C484.943 184.2 479.842 178.2 473.142 177.7C466.442 177.1 460.443 182.2 459.943 188.9C459.343 195.6 464.442 201.6 471.142 202.1C477.942 202.7 483.843 197.6 484.343 190.9Z" fill="white"/>
<path d="M267.743 231.6C267.743 232.5 266.843 233.2 265.743 233.2H164.443C163.343 233.2 162.443 232.5 162.443 231.6C162.443 230.7 163.343 230 164.443 230H265.643C266.843 230 267.743 230.7 267.743 231.6Z" fill="white"/>
<path d="M592.942 180.8C592.942 181.7 592.042 182.4 590.942 182.4H489.742C488.642 182.4 487.742 181.7 487.742 180.8C487.742 179.9 488.642 179.2 489.742 179.2H590.942C592.042 179.2 592.942 179.9 592.942 180.8Z" fill="white"/>
<path d="M592.942 190.5C592.942 191.4 592.042 192.1 590.942 192.1H489.742C488.642 192.1 487.742 191.4 487.742 190.5C487.742 189.6 488.642 188.9 489.742 188.9H590.942C592.042 188.8 592.942 189.6 592.942 190.5Z" fill="white"/>
<path d="M592.743 200C592.743 200.9 591.843 201.6 590.743 201.6H489.543C488.443 201.6 487.543 200.9 487.543 200C487.543 199.1 488.443 198.4 489.543 198.4H590.743C591.843 198.4 592.743 199.1 592.743 200Z" fill="white"/>
<path d="M267.743 241.1C267.743 242 266.843 242.7 265.743 242.7H164.443C163.343 242.7 162.443 242 162.443 241.1C162.443 240.2 163.343 239.5 164.443 239.5H265.643C266.843 239.5 267.743 240.2 267.743 241.1Z" fill="white"/>
<path d="M267.843 250.6C267.843 251.5 266.943 252.2 265.843 252.2H164.643C163.543 252.2 162.643 251.5 162.643 250.6C162.643 249.7 163.543 249 164.643 249H265.843C266.943 248.9 267.843 249.7 267.843 250.6Z" fill="white"/>
</g>
<defs>
<filter id="filter0_d" x="-30" y="-5" width="710" height="510" filterUnits="userSpaceOnUse" color-interpolation-filters="sRGB">
<feFlood flood-opacity="0" result="BackgroundImageFix"/>
<feColorMatrix in="SourceAlpha" type="matrix" values="0 0 0 0 0 0 0 0 0 0 0 0 0 0 0 0 0 0 127 0" result="hardAlpha"/>
<feOffset dy="10"/>
<feGaussianBlur stdDeviation="15"/>
<feColorMatrix type="matrix" values="0 0 0 0 0 0 0 0 0 0 0 0 0 0 0 0 0 0 0.25 0"/>
<feBlend mode="normal" in2="BackgroundImageFix" result="effect1_dropShadow"/>
<feBlend mode="normal" in="SourceGraphic" in2="effect1_dropShadow" result="shape"/>
</filter>
<linearGradient id="paint0_linear" x1="59.9685" y1="275.649" x2="83.0612" y2="275.649" gradientUnits="userSpaceOnUse">
<stop stop-color="#71439A"/>
<stop offset="0.8668" stop-color="#A76CAD"/>
</linearGradient>
<linearGradient id="paint1_linear" x1="288.027" y1="35.2809" x2="327.181" y2="35.2809" gradientUnits="userSpaceOnUse">
<stop stop-color="#71439A"/>
<stop offset="0.8668" stop-color="#A76CAD"/>
</linearGradient>
<linearGradient id="paint2_linear" x1="484.912" y1="270.004" x2="508.004" y2="270.004" gradientUnits="userSpaceOnUse">
<stop stop-color="#71439A"/>
<stop offset="0.8668" stop-color="#A76CAD"/>
</linearGradient>
</defs>
</svg>
