<svg width="650" height="465" viewBox="0 0 650 465" fill="none" xmlns="http://www.w3.org/2000/svg">
<g filter="url(#filter0_d)">
<path d="M259.344 422.7C259.344 422.7 261.444 425.6 267.344 428.7C273.244 431.8 284.544 432.4 283.144 437.3C281.844 442.1 276.744 450.3 268.844 447.4C260.944 444.5 252.144 439.8 248.844 435.4C245.544 431 248.844 422.8 248.844 422.8H259.344V422.7Z" fill="#E0E0E0"/>
<path d="M154.843 107.5H497.843C500.043 107.5 502.243 107.9 504.243 108.8C506.243 109.6 508.143 110.9 509.643 112.4C511.143 113.9 512.443 115.8 513.243 117.8C514.043 119.8 514.543 122 514.543 124.2V396.4H138.143V124.1C138.143 119.7 139.943 115.4 143.043 112.3C146.143 109.2 150.443 107.5 154.843 107.5Z" fill="#E9F7FE"/>
<path d="M154.843 107.5H497.843C500.043 107.5 502.243 107.9 504.243 108.8C506.243 109.6 508.143 110.9 509.643 112.4C511.143 113.9 512.443 115.8 513.243 117.8C514.043 119.8 514.543 122 514.543 124.2V145H138.143V124.1C138.143 119.7 139.943 115.4 143.043 112.3C146.143 109.2 150.443 107.5 154.843 107.5Z" fill="#7B7C7F"/>
<path d="M255.543 120.3H160.143C157.043 120.3 154.543 122.8 154.543 125.9V127.7C154.543 130.8 157.043 133.3 160.143 133.3H255.543C258.643 133.3 261.143 130.8 261.143 127.7V125.9C261.143 122.7 258.643 120.3 255.543 120.3Z" fill="white"/>
<path d="M437.342 126.7C437.342 127.5 437.042 128.4 436.642 129.1C436.142 129.8 435.542 130.4 434.742 130.7C433.942 131 433.142 131.1 432.242 130.9C431.442 130.7 430.642 130.3 430.042 129.7C429.442 129.1 429.042 128.3 428.842 127.5C428.642 126.7 428.742 125.8 429.042 125C429.342 124.2 429.942 123.5 430.642 123.1C431.342 122.6 432.142 122.4 433.042 122.4C433.642 122.4 434.142 122.5 434.642 122.7C435.142 122.9 435.642 123.2 436.042 123.6C436.442 124 436.742 124.5 436.942 125C437.242 125.6 437.342 126.1 437.342 126.7Z" fill="#00BAFF"/>
<path d="M454.544 126.7C454.544 127.5 454.244 128.4 453.844 129.1C453.444 129.8 452.744 130.4 451.944 130.7C451.144 131 450.344 131.1 449.444 130.9C448.644 130.7 447.844 130.3 447.244 129.7C446.644 129.1 446.244 128.3 446.044 127.5C445.844 126.7 445.944 125.8 446.244 125C446.544 124.2 447.144 123.5 447.844 123.1C448.544 122.6 449.344 122.4 450.244 122.4C451.344 122.4 452.444 122.9 453.244 123.7C454.144 124.5 454.544 125.6 454.544 126.7Z" fill="#00BAFF"/>
<path d="M472.243 126.7C472.243 127.5 471.943 128.4 471.543 129.1C471.043 129.8 470.443 130.4 469.643 130.7C468.843 131 468.043 131.1 467.143 130.9C466.343 130.7 465.543 130.3 464.943 129.7C464.343 129.1 463.943 128.3 463.743 127.5C463.543 126.7 463.643 125.8 463.943 125C464.243 124.2 464.843 123.5 465.543 123.1C466.243 122.6 467.043 122.4 467.943 122.4C469.043 122.4 470.143 122.9 470.943 123.7C471.743 124.5 472.243 125.6 472.243 126.7Z" fill="#26C5FF"/>
<path d="M417.543 161.4H235.143C227.943 161.4 222.143 167.2 222.143 174.4V203.6C222.143 210.8 227.943 216.6 235.143 216.6H417.543C424.743 216.6 430.543 210.8 430.543 203.6V174.4C430.543 167.3 424.743 161.4 417.543 161.4Z" fill="white"/>
<path d="M417.543 234H235.143C227.943 234 222.143 239.8 222.143 247V364.4C222.143 371.6 227.943 377.4 235.143 377.4H417.543C424.743 377.4 430.543 371.6 430.543 364.4V247C430.543 239.8 424.743 234 417.543 234Z" fill="white"/>
<path d="M485.443 161.4H459.543C452.343 161.4 446.543 167.2 446.543 174.4V203.2C446.543 210.4 452.343 216.2 459.543 216.2H485.443C492.643 216.2 498.443 210.4 498.443 203.2V174.4C498.443 167.3 492.643 161.4 485.443 161.4Z" fill="white"/>
<path d="M485.443 234H459.543C452.343 234 446.543 239.8 446.543 247V364.4C446.543 371.6 452.343 377.4 459.543 377.4H485.443C492.643 377.4 498.443 371.6 498.443 364.4V247C498.443 239.8 492.643 234 485.443 234Z" fill="white"/>
<path d="M199.043 161.4H162.743C156.843 161.4 152.143 166.2 152.143 172V353.7C152.143 359.6 156.943 364.3 162.743 364.3H199.043C204.943 364.3 209.643 359.6 209.643 353.7V172.1C209.643 166.2 204.943 161.4 199.043 161.4Z" fill="white"/>
<path d="M194.043 192.9C197.343 184.9 193.543 175.8 185.543 172.5C177.543 169.2 168.443 173 165.143 181C161.843 189 165.643 198.1 173.643 201.4C181.643 204.7 190.743 200.9 194.043 192.9Z" fill="#EFEFF0"/>
<path d="M284.743 301.3H255.543C248.343 301.3 242.543 307.1 242.543 314.3V343.5C242.543 350.7 248.343 356.5 255.543 356.5H284.743C291.943 356.5 297.743 350.7 297.743 343.5V314.3C297.743 307.1 291.943 301.3 284.743 301.3Z" fill="#EFEFF0"/>
<path d="M76.3429 252.1H66.6429C62.9429 252.1 59.9429 255.1 59.9429 258.8V268.5C59.9429 272.2 62.9429 275.2 66.6429 275.2H76.3429C80.0429 275.2 83.0429 272.2 83.0429 268.5V258.8C83.0429 255.1 80.0429 252.1 76.3429 252.1Z" fill="url(#paint0_linear)"/>
<path d="M422.043 173.3C422.043 172.2 421.143 171.3 420.043 171.3H236.043C234.943 171.3 234.043 172.2 234.043 173.3V173.7C234.043 174.8 234.943 175.7 236.043 175.7H420.043C421.143 175.7 422.043 174.8 422.043 173.7V173.3Z" fill="#EAEAEA"/>
<path d="M421.842 183.8C421.842 182.7 420.942 181.8 419.842 181.8H235.842C234.742 181.8 233.842 182.7 233.842 183.8V184.2C233.842 185.3 234.742 186.2 235.842 186.2H419.842C420.942 186.2 421.842 185.3 421.842 184.2V183.8Z" fill="#EAEAEA"/>
<path d="M421.842 194.9C421.842 193.8 420.942 192.9 419.842 192.9H235.842C234.742 192.9 233.842 193.8 233.842 194.9V195.3C233.842 196.4 234.742 197.3 235.842 197.3H419.842C420.942 197.3 421.842 196.4 421.842 195.3V194.9Z" fill="#EAEAEA"/>
<path d="M421.842 206C421.842 204.9 420.942 204 419.842 204H235.842C234.742 204 233.842 204.9 233.842 206V206.4C233.842 207.5 234.742 208.4 235.842 208.4H419.842C420.942 208.4 421.842 207.5 421.842 206.4V206Z" fill="#EAEAEA"/>
<path d="M420.443 248.8C420.443 247.7 419.543 246.8 418.443 246.8H234.443C233.343 246.8 232.443 247.7 232.443 248.8V249.2C232.443 250.3 233.343 251.2 234.443 251.2H418.443C419.543 251.2 420.443 250.3 420.443 249.2V248.8Z" fill="#EAEAEA"/>
<path d="M420.443 262.8C420.443 261.7 419.543 260.8 418.443 260.8H234.443C233.343 260.8 232.443 261.7 232.443 262.8V263.2C232.443 264.3 233.343 265.2 234.443 265.2H418.443C419.543 265.2 420.443 264.3 420.443 263.2V262.8Z" fill="#EAEAEA"/>
<path d="M420.443 277.2C420.443 276.1 419.543 275.2 418.443 275.2H234.443C233.343 275.2 232.443 276.1 232.443 277.2V277.6C232.443 278.7 233.343 279.6 234.443 279.6H418.443C419.543 279.6 420.443 278.7 420.443 277.6V277.2Z" fill="#EAEAEA"/>
<path d="M420.443 291.9C420.443 290.8 419.543 289.9 418.443 289.9H234.443C233.343 289.9 232.443 290.8 232.443 291.9V292.3C232.443 293.4 233.343 294.3 234.443 294.3H418.443C419.543 294.3 420.443 293.4 420.443 292.3V291.9Z" fill="#EAEAEA"/>
<path d="M419.742 307.3C419.742 306.2 418.842 305.3 417.742 305.3H306.242C305.142 305.3 304.242 306.2 304.242 307.3V307.7C304.242 308.8 305.142 309.7 306.242 309.7H417.842C418.942 309.7 419.842 308.8 419.842 307.7V307.3H419.742Z" fill="#EAEAEA"/>
<path d="M419.742 320.7C419.742 319.6 418.842 318.7 417.742 318.7H306.242C305.142 318.7 304.242 319.6 304.242 320.7V321.1C304.242 322.2 305.142 323.1 306.242 323.1H417.842C418.942 323.1 419.842 322.2 419.842 321.1V320.7H419.742Z" fill="#EAEAEA"/>
<path d="M420.143 335.7C420.143 334.6 419.243 333.7 418.143 333.7H306.543C305.443 333.7 304.543 334.6 304.543 335.7V336.1C304.543 337.2 305.443 338.1 306.543 338.1H418.143C419.243 338.1 420.143 337.2 420.143 336.1V335.7Z" fill="#EAEAEA"/>
<path d="M420.143 352.2C420.143 351.1 419.243 350.2 418.143 350.2H306.543C305.443 350.2 304.543 351.1 304.543 352.2V352.6C304.543 353.7 305.443 354.6 306.543 354.6H418.143C419.243 354.6 420.143 353.7 420.143 352.6V352.2Z" fill="#EAEAEA"/>
<path d="M207.543 303.3L205.443 300.2C191.243 295.7 191.743 321.1 207.043 313.2L208.043 313.8L207.543 303.3ZM206.143 312.1C193.443 318.7 193.643 297.7 205.343 301.5L206.043 301.8L206.643 304L207.043 312.7L206.143 312.1Z" fill="#0092C8"/>
<path d="M86.5425 288.2C86.5425 288.2 46.9425 314.8 52.5425 356.2C58.7425 402.4 86.3425 424.3 131.343 426.4C188.543 429 226.943 412 233.643 392C240.342 372 215.243 326.8 197.743 324.4C170.843 320.6 145.743 289.6 138.943 283.5C132.143 277.4 115.943 275.7 106.343 278.5C96.6425 281.2 86.5425 288.2 86.5425 288.2Z" fill="#00BAFF"/>
<path d="M93.4425 298C87.1425 310.7 85.8425 325.4 89.9425 339C98.2425 366.8 115.343 383.3 146.743 383.5C204.143 383.9 204.343 370.4 207.043 364.3C209.743 358.2 220.143 339.9 192.843 340.8C165.643 341.7 119.443 287.8 119.443 287.8L93.4425 298Z" fill="#26C5FF"/>
<path d="M126.043 310.7L124.643 318.4L114.143 317.3C114.143 317.3 113.943 316.7 113.543 315.8C112.643 313.3 110.643 308.7 109.543 308C107.943 307.1 102.743 304.9 102.043 303.4C101.343 301.9 97.4429 293.9 97.5429 293.5C97.6429 293.1 99.0429 279.4 99.0429 279.4L106.843 276.7L109.143 275.8L114.243 273.7L116.143 276.7C119.143 280.5 121.543 284.8 123.043 289.5C124.543 294.2 125.443 301.3 124.043 302.4C122.643 303.6 121.043 303.4 121.943 305.1C122.843 306.7 126.043 310.7 126.043 310.7Z" fill="#E0E0E0"/>
<path d="M115.943 315.6L113.543 315.7C112.643 313.2 110.643 308.6 109.543 307.9C107.943 307 102.743 304.8 102.043 303.3C101.343 301.8 97.4429 293.8 97.5429 293.4C97.6429 293 99.0429 279.3 99.0429 279.3L106.843 276.6L109.143 275.7C110.543 276.9 111.843 278.1 111.843 278.1C111.843 278.1 105.643 282.4 106.343 285.5C107.043 288.6 112.543 294 110.343 296C108.143 298 108.743 303.9 110.543 305.2C112.443 306.5 114.743 312.1 114.743 312.1L115.943 315.6Z" fill="#A8A8A8"/>
<path d="M115.143 264.5C116.043 267.1 115.743 266.9 116.943 271.9C117.143 272.7 117.043 273.5 116.843 274.3C116.643 275.1 116.143 275.8 115.643 276.3C113.643 278.5 106.843 278.3 105.043 281.8C103.343 285.3 102.443 290.1 104.543 291.6C106.643 293 107.943 293.5 106.843 293.5C105.743 293.5 100.343 292.9 100.743 294.5C101.043 295.4 101.543 296.1 102.143 296.8C102.743 297.5 103.543 298 104.343 298.4C106.943 299.3 104.543 305.3 105.843 306.1C107.143 306.8 104.343 308.5 97.5426 304.7C90.7426 300.9 84.0426 290.9 87.5426 284.6C91.0426 278.3 88.1426 276 93.8426 271C97.5426 267.7 105.143 268.2 106.043 266.2C106.943 264.2 107.143 257.9 108.443 260.3C109.743 262.7 110.543 267.8 110.543 267.8C110.543 267.8 111.143 259.8 112.943 260.7C114.243 261.3 114.543 262.7 115.143 264.5Z" fill="black"/>
<path d="M175.042 398.9C175.042 398.9 169.042 403 167.642 407.1C166.342 411.3 161.442 431.8 165.842 435.3C170.242 438.8 175.742 437.9 177.942 432.2C180.142 426.5 186.542 410.9 189.642 407.8L192.742 404.7L175.042 398.9Z" fill="#E0E0E0"/>
<path d="M237.043 343.3C226.443 367.9 191.943 414.4 191.943 414.4L177.743 401.3L172.543 396.6L207.043 351.7C207.043 351.7 196.143 352 193.543 349C190.943 345.9 176.943 340.3 176.943 340.3C176.943 340.3 174.143 339.1 171.443 338L172.343 333.7L191.943 331.5C191.943 331.5 231.743 322.6 239.043 329.3C241.043 331.2 239.943 336.4 237.043 343.3Z" fill="#1631A4"/>
<path d="M237.042 343.3C226.442 367.9 191.942 414.4 191.942 414.4L177.742 401.3L237.042 343.3Z" fill="#020089"/>
<path d="M193.143 304.1V311.2C186.943 313.6 180.543 315.5 174.043 317C169.743 318 165.443 318.8 161.143 319.3C153.443 320.2 147.743 319.1 144.043 317.8C141.943 317.1 139.943 316.1 138.143 314.7L148.143 305C148.143 305 149.243 305.4 150.743 306C152.343 306.6 154.643 307.4 156.643 308C158.243 308.6 159.943 308.8 161.743 308.8C164.943 308.2 174.943 306 182.743 305C186.143 304.6 189.643 304.3 193.143 304.1Z" fill="#E0E0E0"/>
<path d="M156.342 368.7C156.342 368.7 185.542 388.8 199.742 396.7C213.942 404.6 242.342 438.9 242.342 438.9L262.142 420.1C262.142 420.1 200.042 358.3 194.442 354.6C188.742 350.9 167.642 343.3 167.642 343.3L156.442 349.9L156.342 368.7Z" fill="#1631A4"/>
<path d="M207.142 351.7C207.142 351.7 207.042 351.7 207.142 351.7C206.542 352.1 197.542 357.5 194.342 354.6C191.042 351.5 169.742 346.5 169.742 346.5L171.542 338C174.242 339.2 177.042 340.3 177.042 340.3C177.042 340.3 191.042 345.9 193.642 349C196.242 352.1 207.142 351.7 207.142 351.7Z" fill="#020089"/>
<path d="M174.043 317.1C169.743 318.1 165.443 318.9 161.143 319.4C153.443 320.3 147.743 319.2 144.043 317.9L143.943 314.8L147.843 309.6C147.843 309.6 150.243 306.6 150.443 306.2C150.443 306.2 150.543 306.1 150.743 306.1C152.343 306.7 154.643 307.5 156.643 308.1C156.643 308.1 156.643 314.5 158.443 315.5C160.243 316.5 173.543 317.1 174.043 317.1Z" fill="#BFBFBF"/>
<path d="M191.943 331.5C191.943 331.5 181.343 335.4 169.743 346.4C166.243 349.7 162.743 355.7 160.243 360.6C152.143 356.8 134.843 352.3 130.843 349.8C126.243 346.9 141.243 323.9 141.243 323.9L115.943 343.3L105.243 336.9L103.243 332.9C103.243 332.9 102.943 323.6 104.943 319.7C107.943 314.1 124.043 307.9 124.043 307.9C127.943 306.2 132.443 306 136.543 307.2C142.643 309 161.243 322.8 174.243 322.8C184.743 322.9 191.943 331.5 191.943 331.5Z" fill="white"/>
<path d="M196.843 301.6C200.143 301.6 202.443 300.7 202.643 303.3C202.943 307 203.443 311.8 201.243 313.3C199.443 314.5 190.643 312.2 190.643 308.9C190.643 305.5 193.143 301.6 196.843 301.6Z" fill="#BFBFBF"/>
<path d="M143.043 307.4V287.5L152.143 281.6V301.5L145.543 308.9H142.443L143.043 307.4Z" fill="#58595B"/>
<path d="M129.342 306.5C129.342 306.5 129.842 304.7 133.342 304.5C136.842 304.3 148.442 305.1 148.442 305.1L146.442 312.6L143.942 314.8L129.342 306.5Z" fill="#EAEAEA"/>
<path d="M141.842 303.9V287.3L150.842 281.4L152.142 281.6L143.042 287.5V307.4L141.242 307.1L141.842 303.9Z" fill="#414042"/>
<path d="M160.143 360.6C157.843 365.1 156.343 368.7 156.343 368.7C156.343 368.7 153.843 366.7 146.143 363.9C138.443 361 123.243 359.5 119.743 357.7C116.143 355.9 109.943 347.9 109.943 347.9L109.543 345.5L105.143 336.9L115.843 343.3L141.143 323.9C141.143 323.9 126.043 347 130.743 349.8C134.843 352.3 152.143 356.8 160.143 360.6Z" fill="#EAEAEA"/>
<path d="M154.343 309C153.543 313 144.043 319.8 144.043 319.8C144.043 319.8 142.943 321.4 141.243 323.9C135.243 332.5 121.343 351.4 116.343 349.7C112.843 348.4 109.443 346.6 106.343 344.5C106.343 344.5 109.643 339.1 112.043 335.4C112.743 334.2 113.543 333.1 114.443 332.2C115.443 331.8 118.743 335.1 118.743 335.1C122.043 332.2 125.243 329.1 128.243 325.9C131.143 322.5 139.243 314.8 139.943 311.9C140.643 309 138.543 305.5 139.543 302.1C140.543 298.7 142.743 305.5 143.143 307.5C143.543 309.5 144.043 306.3 145.943 302C147.443 298.4 148.143 299.6 152.343 301.6C156.443 303.6 155.443 303.4 154.343 309Z" fill="#E0E0E0"/>
<path d="M198.642 301.6C201.042 301.6 202.642 300.7 202.742 303.3C202.942 307 203.342 311.8 201.742 313.3C200.442 314.5 194.242 312.2 194.242 308.9C194.242 305.5 195.942 301.6 198.642 301.6Z" fill="#E0E0E0"/>
<path d="M205.443 298H217.643V310.8C217.643 311.5 217.543 312.2 217.243 312.8C216.943 313.4 216.543 314 216.143 314.5C215.643 315 215.043 315.4 214.443 315.6C213.843 315.9 213.143 316 212.443 316H210.743C209.343 316 208.043 315.4 207.043 314.5C206.043 313.5 205.543 312.2 205.543 310.8V298H205.443Z" fill="#00BAFF"/>
<path d="M141.243 323.9C135.243 332.5 121.343 351.4 116.343 349.7C112.843 348.4 109.443 346.6 106.343 344.5C106.343 344.5 109.643 339.1 112.043 335.4L114.543 338.7C114.543 338.7 112.543 343.4 116.043 343.3C119.443 343.2 140.543 324.5 141.243 323.9Z" fill="#C8C8C8"/>
<path d="M118.543 333.2C118.543 333.2 114.543 326.4 113.443 325.1C109.843 320.9 99.4427 321.2 100.643 331.6C101.443 338.2 105.043 345.8 105.043 345.8C110.643 343.1 115.343 338.7 118.543 333.2Z" fill="white"/>
<path d="M77.5429 307C71.0429 308.8 67.9429 323.6 67.5429 333C66.5429 354.8 68.8429 394 97.4429 403.8C137.643 417.5 185.943 413.2 155.243 400.8C124.443 388.4 101.143 387.1 91.6429 370.6C83.4429 356.1 85.8429 307.4 77.5429 307C77.5429 307 77.6429 307 77.5429 307Z" fill="#38C9FF"/>
<path d="M150.743 318.6C150.443 320.6 151.043 322.7 152.143 324.3C153.143 325.7 153.943 328.1 151.943 331.1C148.643 336 143.343 341 147.443 339.2C151.543 337.4 166.843 324.4 162.343 323.8C154.343 322.7 151.043 316.6 150.743 318.6Z" fill="#EAEAEA"/>
<path d="M433.343 399.8L436.643 407.3H408.643C408.643 407.3 421.243 401.1 422.643 399.8C424.043 398.5 429.243 397.2 429.243 397.2L433.343 399.8Z" fill="#E0E0E0"/>
<path d="M459.543 394.2L463.043 402.8H433.043C433.043 402.8 445.343 397.6 447.243 395.5C449.143 393.4 457.543 391.9 457.543 391.9L459.543 394.2Z" fill="#E0E0E0"/>
<path d="M436.642 331.3L434.642 372.6L433.342 399.8H426.042L421.742 332.5L426.342 332.1L436.642 331.3Z" fill="#E0E0E0"/>
<path d="M445.742 330.8L451.542 394.3H459.442L460.742 327.5L445.742 330.8Z" fill="#E0E0E0"/>
<path d="M460.843 327.5H460.543L448.643 330.1C450.443 332.7 455.343 340.9 455.743 350.4C456.143 361.8 458.943 378.6 459.043 379.2L460.543 348.7L460.843 327.5Z" fill="#C2C2C2"/>
<path d="M464.743 294.6C464.743 294.6 466.643 298.1 464.943 307.4C463.543 314.5 468.543 331.3 468.543 331.3L444.243 330.7L428.543 325.7L429.843 308.4L444.643 291.4L464.743 294.6Z" fill="#00A7E6"/>
<path d="M436.643 331.3L434.643 372.6C434.543 372.1 432.343 358.8 432.043 349.7C431.743 340.5 425.943 332.8 425.943 332.8L426.443 332.2L436.643 331.3Z" fill="#C2C2C2"/>
<path d="M417.042 296.4L414.342 332.1L444.742 334.1C444.742 334.1 443.542 324.5 444.642 319.1C447.642 304.6 443.842 300.4 443.842 300.4L439.542 294.1L417.042 296.4Z" fill="#00BAFF"/>
<path d="M441.642 219.7C441.642 219.7 441.042 220.6 440.342 221.7C439.142 223.5 437.542 226 437.442 226.2C437.242 226.5 432.342 227.7 432.342 227.7C432.342 227.7 429.142 226 428.842 225.8C428.542 225.6 425.542 220.4 425.542 220.4C425.442 219.7 425.342 219 425.542 218.4C425.742 216.7 425.542 212.6 425.542 212.6L424.342 211.7L427.242 207.4C427.242 207.4 430.942 207.8 434.242 208.4C436.842 208.9 439.242 209.7 439.142 210.6C439.242 212.6 441.642 219.7 441.642 219.7Z" fill="#C8C8C8"/>
<path d="M439.342 188.9C438.142 193.2 436.442 197.4 434.242 201.3C433.742 198.2 433.142 194.6 433.142 194.6L425.642 185.8C425.642 185.8 420.842 183.4 418.842 183.4C418.242 183.4 417.542 183.4 416.842 183.4L432.242 181.8L439.342 188.9Z" fill="#F6DADF"/>
<path d="M434.142 201.3C432.742 203.8 431.142 206.2 429.342 208.4C427.942 210.1 426.542 211.7 424.942 213.3C420.642 217.4 419.042 216.6 417.942 216.2C415.842 215.4 414.442 209.8 413.942 199.8C413.842 197.3 413.942 194.7 414.342 192.2C414.742 189.2 415.542 186.3 416.842 183.5H416.942C417.642 183.5 418.342 183.5 418.942 183.5C420.942 183.5 425.742 185.9 425.742 185.9L433.242 194.7C433.042 194.6 433.642 198.1 434.142 201.3Z" fill="#E0E0E0"/>
<path d="M412.542 251.7C411.742 255.2 410.642 258.7 409.342 262C408.742 261.5 399.742 253.8 396.542 247.3C394.942 244.1 393.342 240.1 391.842 236.7C390.142 232.9 388.742 229.7 388.042 229.3C386.642 228.4 381.842 226.8 382.742 224.6C383.642 222.4 383.142 218.7 384.642 217.8C386.042 216.9 387.442 216.8 387.442 215.7C387.442 214.6 383.342 207.9 383.342 207.3C383.342 207 383.442 206.8 383.542 206.6C383.742 206.4 383.942 206.2 384.142 206.1C384.342 206 384.642 206 384.942 206.1C385.142 206.2 385.442 206.3 385.642 206.5C385.842 206.7 385.942 206.9 386.142 207.2C386.842 208.7 390.042 214.5 391.042 215.4C392.042 216.3 393.842 217 395.042 219.9C396.242 222.9 395.342 225.5 396.042 226.7C397.142 228.7 398.542 230.6 400.142 232.4C403.342 236 408.542 241.8 411.242 245.1C411.942 245.9 412.442 246.6 412.742 247C413.042 247.8 412.942 249.7 412.542 251.7Z" fill="#E0E0E0"/>
<path d="M459.142 244.6C459.142 244.6 461.542 251.3 460.742 253.6C460.142 255 459.142 256.2 457.742 256.9C456.442 257.6 454.842 257.8 453.342 257.5L449.842 256.7V243.8L455.342 240.7L459.142 244.6Z" fill="#E0E0E0"/>
<path d="M443.242 221C446.442 222 449.242 224 451.042 226.9C454.442 232.1 460.342 244.2 460.342 244.2C460.342 244.2 454.842 246.5 450.742 245.4L446.642 244.3L443.242 221Z" fill="#C8C8C8"/>
<path d="M434.142 201.3C432.742 203.8 431.142 206.2 429.342 208.4C427.942 210.1 426.542 211.7 424.942 213.3C424.842 213.1 422.142 207.7 422.442 205C422.742 202.3 420.642 204.4 418.742 205.6C416.842 206.8 418.642 197.4 417.442 197.6C416.242 197.8 415.142 194.7 415.142 193.6C415.142 193.3 415.042 193 414.842 192.7C414.642 192.4 414.442 192.2 414.242 192C414.642 189 415.442 186.1 416.742 183.3H416.842C417.542 183.3 418.242 183.3 418.842 183.3C420.842 183.3 425.642 185.7 425.642 185.7L433.142 194.5C433.042 194.6 433.642 198.1 434.142 201.3Z" fill="#C8C8C8"/>
<path d="M441.642 219.7C441.642 219.7 441.042 220.6 440.342 221.7L438.442 221C438.042 219.1 437.442 217.2 436.842 215.3C436.042 213.7 432.642 213.9 432.642 213.9L431.242 210.2L434.442 208.5C437.042 209 439.442 209.8 439.342 210.7C439.242 212.6 441.642 219.7 441.642 219.7Z" fill="#C8C8C8"/>
<path d="M423.443 298.1C423.443 298.1 434.943 302.6 432.243 311.4C429.543 320.2 423.743 328 430.343 323.5C436.943 319 445.443 304.3 441.443 298.1C437.443 291.9 423.443 298.1 423.443 298.1Z" fill="#38C9FF"/>
<path d="M466.643 293.4C466.643 293.4 457.143 300.4 440.543 300.4C426.243 300.4 408.943 293.6 408.943 293.6C408.943 293.6 408.743 291.8 410.843 273.2C411.043 271.4 411.243 269.6 411.443 267.9C412.443 259.8 413.643 253 414.843 247.3C420.743 219 427.943 219 427.943 219L429.343 218.7C434.943 217.5 440.643 218.5 445.543 221.4C446.643 222 447.643 222.8 448.443 223.8C453.043 230.4 466.643 293.4 466.643 293.4Z" fill="#F1F1F1"/>
<path d="M412.343 174.2C412.243 174.1 412.143 174 411.943 174C411.843 174 411.643 174 411.543 174C411.443 174 411.243 174.1 411.143 174.2C411.043 174.3 410.943 174.4 410.943 174.6C410.443 176.9 409.943 181.2 411.343 184.6C413.243 189.1 415.143 189 415.843 191.4C416.543 193.9 416.643 194.9 418.543 194.8C420.443 194.6 420.743 193.4 420.643 195.5C420.643 197.2 420.443 199 420.143 200.7C419.843 202.1 418.143 204.2 419.743 203C421.343 201.8 422.743 196.5 424.443 197.1C426.143 197.7 428.543 201.2 426.543 202.3C424.543 203.4 423.543 205.7 424.143 207.2C424.743 208.7 425.643 212.2 427.343 213.2C429.043 214.2 435.043 214.3 437.543 213.2C440.843 211.7 443.943 207.6 444.843 204.4C445.643 201.6 446.243 190.1 443.343 183.8C440.343 177.5 433.943 172.8 429.643 173C426.543 173.1 418.943 179 416.043 177.2C414.743 176.3 413.443 175.3 412.343 174.2Z" fill="black"/>
<path d="M428.442 255.4C432.142 264.2 411.842 265.3 411.842 265.3C412.842 257.2 413.642 253.1 414.842 247.4C416.742 243.9 420.442 236.3 420.442 236.3L429.342 232.1C429.342 232 424.842 246.8 428.442 255.4Z" fill="#F1F1F1"/>
<path d="M424.842 244.7C424.842 244.7 420.642 257.7 417.942 260.5C416.842 261.6 415.442 262.5 414.042 263.2C413.242 263.6 412.342 263.7 411.442 263.5C410.542 263.3 409.842 262.8 409.242 262C408.942 261.6 408.742 261.2 408.642 260.7C407.942 257.7 407.542 253.6 408.842 250.4C408.942 250.2 409.042 249.9 409.142 249.7C409.842 247.9 410.442 246.3 410.942 244.9C411.942 242.1 412.442 240.3 412.442 240.3L420.242 238L420.742 238.7L424.842 244.7Z" fill="#E0E0E0"/>
<path d="M428.743 227.4C426.643 222.7 419.543 222.3 416.543 226.8C416.343 227.1 416.143 227.4 416.043 227.8C413.843 232.7 411.043 239.5 411.043 239.5C415.843 242.6 421.343 244.4 427.043 244.9C427.043 244.9 429.243 235.5 429.443 232C429.643 230.4 429.443 228.8 428.743 227.4Z" fill="#C8C8C8"/>
<path d="M280.442 65.7999C280.442 65.9 280.142 66.3999 279.842 67.1999C279.542 67.9999 279.142 68.9 278.642 70C277.342 73.1 275.742 76.6999 275.742 76.6999C273.442 75.7999 271.442 74.1999 270.042 72.1999C268.042 68.9999 260.842 64.5999 260.842 64.5999L261.142 61.2L261.442 57.7H276.142C276.142 57.7 279.142 62.6999 280.142 64.7999C280.342 65.1999 280.442 65.4999 280.442 65.7999Z" fill="black"/>
<path d="M390.743 98.4C390.743 98.4 415.343 103.2 425.643 99.5C435.943 95.9 480.843 61.1 484.843 62.5C488.843 63.9 506.443 74.5 506.443 74.5C506.443 74.5 491.443 53.8 486.243 52.4C481.043 51 436.843 74.4 423.143 78.6C411.443 82.1 375.443 73 375.443 73L390.743 98.4Z" fill="#E0E0E0"/>
<path d="M509.143 100.9C509.143 100.9 494.343 86.6 490.743 84.4C488.743 83.1 471.543 90.2 454.943 96.8C442.043 102 429.543 106.9 424.743 107.4C413.843 108.7 390.943 98.6 390.943 98.6L384.443 78.9L381.643 70.4C381.643 70.4 385.043 72.1 390.043 74.4C392.943 75.7 396.443 77.3 400.043 78.8C409.743 82.9 420.943 86.8 426.943 86.4C441.243 85.4 489.543 72.3 494.243 74.8C499.143 77.4 509.143 100.9 509.143 100.9Z" fill="#E0E0E0"/>
<path d="M266.243 53.1C265.943 54.7 265.443 56.3 264.743 57.8C264.043 59.3 263.243 60.8 262.443 62.2C261.943 63.1 261.443 63.9 260.943 64.6C259.743 66.3 258.743 67.8 258.143 68.5C254.743 73.1 250.343 68.7 246.243 63.1C243.943 59.8 242.043 56.2 240.543 52.4C239.643 50.1 239.043 48.5 239.043 48.5C239.043 48.5 247.743 38.8 248.443 38.4C248.543 38.4 248.643 38.3 248.843 38.4C250.043 38.5 251.343 38.7 252.543 38.9C254.243 39.2 255.943 39.6 255.943 39.6C257.843 41 259.743 42.6 261.443 44.3C263.943 47.2 266.543 50.5 266.243 53.1Z" fill="#E0E0E0"/>
<path d="M254.343 104.6H210.143V107.5H254.343V104.6Z" fill="#58595B"/>
<path d="M210.142 104.6L197.242 63.2L200.042 62.1L213.442 104.5H210.142V104.6Z" fill="#58595B"/>
<path d="M280.143 64.9C280.143 65.7 280.043 66.4 279.843 67.2C279.743 68.2 279.343 69.2 278.643 70C278.343 70.3 277.943 70.6 277.443 70.7C276.943 70.8 276.543 70.7 276.143 70.5C273.543 69.6 267.843 66.1 262.343 62.2C261.943 61.9 261.443 61.6 261.043 61.3C257.443 58.9 254.943 55.2 253.843 51.1C252.243 46.2 240.943 52.3 240.443 52.6C239.543 50.3 238.943 48.7 238.943 48.7C238.943 48.7 247.643 39 248.343 38.6C248.443 38.6 248.543 38.5 248.743 38.6H251.543L252.443 39.1L261.243 44.5C263.943 47.2 266.543 50.5 266.143 53.2C265.843 54.8 265.343 56.4 264.643 57.9H276.043C276.143 57.8 279.143 62.8 280.143 64.9Z" fill="#C8C8C8"/>
<path d="M239.942 51.1C238.042 49 236.742 46.4 236.042 43.6C235.142 39.3 241.642 28.9 250.842 27.9C262.342 26.7 266.442 29.5 274.342 37.3C282.242 45.1 285.142 48 290.942 48.3C300.242 48.7 301.642 54.8 302.042 58.1C302.442 61.1 301.342 69.2 291.342 69.8C281.342 70.4 264.042 64.2 261.442 57.9C258.842 51.6 259.042 45.1 252.642 43.9C246.442 42.7 239.942 51.1 239.942 51.1Z" fill="black"/>
<path d="M454.943 96.8C442.043 102 429.543 106.9 424.743 107.4C413.843 108.7 390.943 98.6 390.943 98.6L384.443 78.9L390.043 74.5C392.943 75.8 396.443 77.4 400.043 78.9C400.043 78.9 400.443 88.4 409.143 93.3C417.943 98.3 454.943 96.8 454.943 96.8Z" fill="#D8D9DA"/>
<path d="M394.443 80.1C394.543 89.4 390.543 107.4 390.543 107.4C390.543 107.4 344.043 107.3 336.643 107.4C329.343 107.5 310.743 107.4 303.843 106.9C293.743 106.2 291.543 100.5 287.843 95C284.143 89.5 278.043 86.6 273.443 81.5C269.843 77.4 269.043 72.1 269.343 71.3C269.643 70.5 277.043 68.8 275.643 64.1C274.343 59.4 301.843 57.9 301.843 57.9C301.843 57.9 324.643 70.3 337.143 68C349.643 65.7 357.743 59.3 371.643 59.3C375.243 59.3 393.043 57.6 393.043 57.6C393.043 57.6 393.643 62.5 394.043 70.1C394.343 73.2 394.443 76.5 394.443 80.1Z" fill="white"/>
<path d="M295.543 87.7C294.143 92.5 291.643 96.9 288.243 100.6C284.043 105 279.143 106.9 274.943 106.9C270.143 106.9 250.243 94.5 245.143 90.7C240.043 86.9 235.043 86.8 233.743 88C232.443 89.2 229.743 89.5 227.143 90.1C224.543 90.7 222.443 87.9 222.143 86.8C221.843 85.6 223.343 84.7 222.743 84.2C222.043 83.7 217.343 86 216.343 86.3C215.243 86.6 214.443 86.7 214.043 86.3C213.643 85.9 220.243 82.5 222.443 81.8C224.643 81 234.743 80.6 239.943 80.7C245.143 80.8 263.643 90.6 267.443 91.9C273.943 94.1 275.143 92.5 277.443 89C279.343 86 280.943 83 282.443 79.8C282.743 79.8 299.743 74.2 295.543 87.7Z" fill="#E0E0E0"/>
<path d="M213.143 104.7V104.6C213.143 104.3 212.943 104.1 212.643 104.1H210.643C210.343 104.1 210.143 104.3 210.143 104.6V104.7C210.143 105 210.343 105.2 210.643 105.2H212.643C212.943 105.1 213.143 104.9 213.143 104.7Z" fill="#00BAFF"/>
<path d="M394.243 70.3001C385.243 72.5001 375.043 78.6001 360.443 83.4001C340.443 89.9001 300.843 64.1001 292.443 67.3001C284.043 70.5001 269.543 71.5 269.543 71.5C269.843 70.7 277.243 69 275.843 64.3C274.543 59.6 302.043 58.1 302.043 58.1C302.043 58.1 324.843 70.5 337.343 68.2C349.843 65.9 357.943 59.5 371.843 59.5C375.443 59.5 393.243 57.8 393.243 57.8C393.243 57.8 393.843 62.7001 394.243 70.3001Z" fill="#F6F6F6"/>
<path d="M279.043 77.8L297.543 90.1999C297.543 90.1999 301.443 81.9 302.543 75.3C302.843 73.4 302.843 71.4999 302.643 69.6999C302.543 68.6999 302.143 67.6999 301.643 66.7999C301.143 65.8999 300.343 65.0999 299.543 64.5999C298.643 63.9999 297.643 63.6 296.643 63.4C295.643 63.2 294.543 63.2999 293.543 63.5999C290.943 64.1999 288.643 65.5 286.743 67.4C283.643 70.2 279.043 77.8 279.043 77.8Z" fill="#F1F2F2"/>
<path d="M126.342 257.6V212.7C126.342 211.4 126.842 210.1 127.742 209.2C128.642 208.3 129.942 207.8 131.242 207.8H266.642C267.942 207.8 269.242 208.3 270.142 209.2C271.042 210.1 271.542 211.4 271.542 212.7V245.1C271.542 246.4 271.042 247.7 270.142 248.6C269.242 249.5 267.942 250 266.642 250H135.542C134.842 250 134.242 250.1 133.542 250.4C132.942 250.7 132.342 251.1 131.942 251.6L126.342 257.6Z" fill="#6ACFF6"/>
<path d="M327.143 14.2V32.4C327.143 34 326.443 35.6 325.343 36.8C324.143 38 322.643 38.6 320.943 38.6H302.743C301.943 38.6 301.143 38.4 300.343 38.1C299.543 37.8 298.943 37.3 298.343 36.8C297.743 36.2 297.343 35.5 297.043 34.8C296.743 34 296.543 33.2 296.543 32.4V32L288.543 31.5C288.443 31.5 288.343 31.4 288.243 31.4C288.143 31.3 288.043 31.2 288.043 31.1C288.043 31 288.043 30.9 288.043 30.7C288.043 30.6 288.143 30.5 288.243 30.4L296.643 24V14.2C296.643 13.4 296.843 12.6 297.143 11.8C297.443 11 297.943 10.4 298.443 9.8C299.043 9.2 299.743 8.8 300.443 8.5C301.243 8.2 302.043 8 302.843 8H321.043C321.843 8 322.643 8.2 323.443 8.5C324.243 8.8 324.843 9.3 325.443 9.8C326.043 10.4 326.443 11.1 326.743 11.8C327.043 12.6 327.143 13.4 327.143 14.2Z" fill="url(#paint1_linear)"/>
<path d="M71.5428 260.1C71.7428 259.9 71.9428 259.6 72.1428 259.4C72.5428 259 73.1428 258.8 73.7428 258.7C74.3428 258.6 74.9428 258.6 75.4428 258.8C76.0428 259 76.4428 259.3 76.8428 259.8C77.2428 260.2 77.4428 260.8 77.5428 261.4C77.6428 262.3 77.5428 263.2 77.0428 263.9C76.5428 264.7 75.9428 265.4 75.1428 266.1C74.0428 267.1 72.8428 268 71.5428 268.7H71.4428H71.3428C69.7428 267.8 68.2428 266.7 67.0428 265.4C66.4428 264.8 65.9428 264.1 65.6428 263.3C65.4428 262.8 65.3428 262.4 65.3428 261.9C65.3428 261.4 65.4428 260.9 65.7428 260.5C65.9428 260.1 66.3428 259.7 66.7428 259.4C67.1428 259.1 67.6428 258.9 68.0428 258.8C68.6428 258.7 69.3428 258.7 69.9428 258.9C70.5428 259.1 71.0428 259.5 71.4428 260.1H71.5428Z" fill="white"/>
<path d="M172.543 69.8H162.843C159.143 69.8 156.143 72.8 156.143 76.5V86.2C156.143 89.9 159.143 92.9 162.843 92.9H172.543C176.243 92.9 179.243 89.9 179.243 86.2V76.5C179.243 72.8 176.243 69.8 172.543 69.8Z" fill="white"/>
<path d="M167.743 77.8C167.943 77.6 168.143 77.3 168.343 77.1C168.743 76.7 169.343 76.5 169.943 76.4C170.543 76.3 171.143 76.3 171.643 76.5C172.243 76.7 172.643 77 173.043 77.5C173.443 77.9 173.643 78.5 173.743 79.1C173.843 80 173.743 80.9 173.243 81.6C172.743 82.4 172.143 83.1 171.343 83.8C170.243 84.8 169.043 85.7 167.743 86.4H167.643H167.543C165.943 85.5 164.443 84.4 163.243 83.1C162.643 82.5 162.143 81.8 161.843 81C161.643 80.5 161.543 80.1 161.543 79.6C161.543 79.1 161.643 78.6 161.943 78.2C162.143 77.8 162.543 77.4 162.943 77.1C163.343 76.8 163.843 76.6 164.243 76.5C164.843 76.4 165.543 76.4 166.143 76.6C166.743 76.8 167.243 77.2 167.643 77.8H167.743Z" fill="#00BAFF"/>
<path d="M501.343 246.5H491.643C487.943 246.5 484.943 249.5 484.943 253.2V262.9C484.943 266.6 487.943 269.6 491.643 269.6H501.343C505.043 269.6 508.043 266.6 508.043 262.9V253.2C508.043 249.5 505.043 246.5 501.343 246.5Z" fill="url(#paint2_linear)"/>
<path d="M496.442 254C496.642 253.8 496.842 253.5 497.042 253.3C497.442 252.9 498.042 252.7 498.642 252.6C499.242 252.5 499.842 252.5 500.342 252.7C500.942 252.9 501.342 253.2 501.742 253.7C502.142 254.1 502.342 254.7 502.442 255.3C502.542 256.2 502.442 257.1 501.942 257.8C501.442 258.6 500.842 259.3 500.042 260C498.942 261 497.742 261.9 496.442 262.6H496.342H496.242C494.642 261.7 493.142 260.6 491.942 259.3C491.342 258.7 490.842 258 490.542 257.2C490.342 256.7 490.242 256.3 490.242 255.8C490.242 255.3 490.342 254.8 490.642 254.4C490.842 254 491.242 253.6 491.642 253.3C492.042 253 492.542 252.8 492.942 252.7C493.542 252.6 494.242 252.6 494.842 252.8C495.442 253 495.942 253.4 496.342 254H496.442Z" fill="white"/>
<path d="M158.742 230.9C159.842 224.3 155.342 218 148.642 216.9C142.042 215.8 135.742 220.3 134.642 227C133.542 233.6 138.042 239.9 144.742 241C151.342 242 157.642 237.5 158.742 230.9Z" fill="white"/>
<path d="M311.542 19.7999C311.842 19.4999 312.142 19.1999 312.442 18.9C313.042 18.4 313.842 18 314.542 17.9C315.342 17.8 316.142 17.8 316.942 18.1C317.742 18.4 318.342 18.8 318.942 19.4C319.442 19.9999 319.842 20.8 319.942 21.5C320.142 22.7 319.842 23.9 319.242 24.9C318.542 26 317.742 27 316.742 27.9C315.242 29.2 313.542 30.4 311.842 31.4H311.742H311.642C309.442 30.2 307.442 28.5999 305.742 26.9C304.942 26.0999 304.242 25.1 303.742 24.1C303.442 23.5 303.342 22.8 303.342 22.1C303.342 21.4 303.542 20.8 303.842 20.2C304.142 19.6 304.642 19.1 305.142 18.7C305.642 18.3 306.342 18 306.942 17.9C307.842 17.7 308.742 17.8 309.542 18.1C310.342 18.4 311.042 19 311.542 19.7V19.7999Z" fill="white"/>
<path d="M453.342 206.7V161.8C453.342 160.5 453.842 159.2 454.742 158.3C455.642 157.4 456.942 156.9 458.242 156.9H593.642C594.942 156.9 596.242 157.4 597.142 158.3C598.042 159.2 598.542 160.5 598.542 161.8V194.2C598.542 195.5 598.042 196.8 597.142 197.7C596.242 198.6 594.942 199.1 593.642 199.1H462.542C461.842 199.1 461.242 199.2 460.542 199.5C459.942 199.8 459.342 200.2 458.942 200.7L453.342 206.7Z" fill="#6DCFF6"/>
<path d="M484.343 178.9C484.943 172.2 479.842 166.2 473.142 165.7C466.442 165.1 460.443 170.2 459.943 176.9C459.343 183.6 464.442 189.6 471.142 190.1C477.942 190.7 483.843 185.6 484.343 178.9Z" fill="white"/>
<path d="M267.743 219.6C267.743 220.5 266.843 221.2 265.743 221.2H164.443C163.343 221.2 162.443 220.5 162.443 219.6C162.443 218.7 163.343 218 164.443 218H265.643C266.843 218 267.743 218.7 267.743 219.6Z" fill="white"/>
<path d="M592.942 168.8C592.942 169.7 592.042 170.4 590.942 170.4H489.742C488.642 170.4 487.742 169.7 487.742 168.8C487.742 167.9 488.642 167.2 489.742 167.2H590.942C592.042 167.2 592.942 167.9 592.942 168.8Z" fill="white"/>
<path d="M592.942 178.5C592.942 179.4 592.042 180.1 590.942 180.1H489.742C488.642 180.1 487.742 179.4 487.742 178.5C487.742 177.6 488.642 176.9 489.742 176.9H590.942C592.042 176.8 592.942 177.6 592.942 178.5Z" fill="white"/>
<path d="M592.743 188C592.743 188.9 591.843 189.6 590.743 189.6H489.543C488.443 189.6 487.543 188.9 487.543 188C487.543 187.1 488.443 186.4 489.543 186.4H590.743C591.843 186.4 592.743 187.1 592.743 188Z" fill="white"/>
<path d="M267.743 229.1C267.743 230 266.843 230.7 265.743 230.7H164.443C163.343 230.7 162.443 230 162.443 229.1C162.443 228.2 163.343 227.5 164.443 227.5H265.643C266.843 227.5 267.743 228.2 267.743 229.1Z" fill="white"/>
<path d="M267.843 238.6C267.843 239.5 266.943 240.2 265.843 240.2H164.643C163.543 240.2 162.643 239.5 162.643 238.6C162.643 237.7 163.543 237 164.643 237H265.843C266.943 236.9 267.843 237.7 267.843 238.6Z" fill="white"/>
</g>
<defs>
<filter id="filter0_d" x="-12" y="-5" width="674" height="474" filterUnits="userSpaceOnUse" color-interpolation-filters="sRGB">
<feFlood flood-opacity="0" result="BackgroundImageFix"/>
<feColorMatrix in="SourceAlpha" type="matrix" values="0 0 0 0 0 0 0 0 0 0 0 0 0 0 0 0 0 0 127 0" result="hardAlpha"/>
<feOffset dy="4"/>
<feGaussianBlur stdDeviation="6"/>
<feColorMatrix type="matrix" values="0 0 0 0 0 0 0 0 0 0 0 0 0 0 0 0 0 0 0.3 0"/>
<feBlend mode="normal" in2="BackgroundImageFix" result="effect1_dropShadow"/>
<feBlend mode="normal" in="SourceGraphic" in2="effect1_dropShadow" result="shape"/>
</filter>
<linearGradient id="paint0_linear" x1="59.9685" y1="263.649" x2="83.0612" y2="263.649" gradientUnits="userSpaceOnUse">
<stop stop-color="#71439A"/>
<stop offset="0.8668" stop-color="#A76CAD"/>
</linearGradient>
<linearGradient id="paint1_linear" x1="288.027" y1="23.2809" x2="327.181" y2="23.2809" gradientUnits="userSpaceOnUse">
<stop stop-color="#71439A"/>
<stop offset="0.8668" stop-color="#A76CAD"/>
</linearGradient>
<linearGradient id="paint2_linear" x1="484.912" y1="258.004" x2="508.004" y2="258.004" gradientUnits="userSpaceOnUse">
<stop stop-color="#71439A"/>
<stop offset="0.8668" stop-color="#A76CAD"/>
</linearGradient>
</defs>
</svg>
