<svg width="694" height="475" viewBox="0 0 694 475" fill="none" xmlns="http://www.w3.org/2000/svg">
<g filter="url(#filter0_d)">
<path d="M191.493 133.577C191.493 133.577 202.997 109.144 224.53 100.55" stroke="#6D6E71" stroke-width="2" stroke-miterlimit="10" stroke-dasharray="12 12"/>
<path d="M182.896 120.645C182.896 120.645 173.562 34.4546 396.262 35.1912" stroke="#6D6E71" stroke-width="2" stroke-miterlimit="10" stroke-dasharray="12 12"/>
<path d="M196.528 229.835C196.528 229.835 196.528 330.39 296.375 308.126" stroke="#6D6E71" stroke-width="2" stroke-miterlimit="10" stroke-dasharray="12 12"/>
<path d="M220.436 181.584C220.436 181.584 315.247 163.085 463.646 192.552" stroke="#6D6E71" stroke-width="2" stroke-miterlimit="10" stroke-dasharray="12 12"/>
<path d="M210.897 172.375C210.897 172.375 286.345 144.382 382.589 136.483" stroke="#6D6E71" stroke-width="2" stroke-miterlimit="10" stroke-dasharray="12 12"/>
<path d="M298.34 206.957C298.34 208.103 297.44 209.003 296.293 209.003H290.89C289.743 209.003 288.843 208.103 288.843 206.957V192.019C288.843 190.873 289.743 189.973 290.89 189.973H296.293C297.44 189.973 298.34 190.873 298.34 192.019V206.957Z" fill="url(#paint0_linear)"/>
<path d="M645.449 126.497C645.449 127.152 644.917 127.725 644.221 127.725H622.688C621.992 127.725 621.46 127.152 621.46 126.497V126.129C621.46 125.474 621.992 124.901 622.688 124.901H644.221C644.917 124.901 645.449 125.474 645.449 126.129V126.497Z" fill="url(#paint1_linear)"/>
<path d="M393.151 156.332C393.151 156.987 392.619 157.56 391.923 157.56H370.39C369.694 157.56 369.162 156.987 369.162 156.332V155.964C369.162 155.309 369.694 154.736 370.39 154.736H391.923C392.619 154.736 393.151 155.309 393.151 155.964V156.332Z" fill="url(#paint2_linear)"/>
<path d="M365.764 66.8676C365.764 67.5224 365.232 68.0954 364.536 68.0954H343.044C342.389 68.0954 341.815 67.5224 341.815 66.8676V66.4993C341.815 65.8035 342.389 65.2715 343.044 65.2715H364.577C365.273 65.2715 365.805 65.8035 365.805 66.4993V66.8676H365.764Z" fill="url(#paint3_linear)"/>
<path d="M284.667 203.601C284.667 204.256 284.094 204.829 283.439 204.829H261.906C261.21 204.829 260.678 204.256 260.678 203.601V203.233C260.678 202.537 261.21 202.005 261.906 202.005H283.439C284.094 202.005 284.667 202.537 284.667 203.233V203.601Z" fill="url(#paint4_linear)"/>
<path d="M298.627 186.044C298.627 186.699 298.094 187.272 297.398 187.272H275.865C275.169 187.272 274.637 186.699 274.637 186.044V185.676C274.637 185.021 275.169 184.448 275.865 184.448H297.398C298.094 184.448 298.627 185.021 298.627 185.676V186.044Z" fill="url(#paint5_linear)"/>
<path d="M554.69 191.201C554.69 192.347 553.79 193.247 552.644 193.247H532.748C531.602 193.247 530.701 192.347 530.701 191.201V186.003C530.701 184.857 531.602 183.957 532.748 183.957H552.644C553.79 183.957 554.69 184.857 554.69 186.003V191.201Z" fill="url(#paint6_linear)"/>
<path d="M629.811 88.0261C629.811 89.172 628.911 90.0724 627.764 90.0724H607.869C606.722 90.0724 605.822 89.172 605.822 88.0261V82.8285C605.822 81.6826 606.722 80.7822 607.869 80.7822H627.764C628.911 80.7822 629.811 81.6826 629.811 82.8285V88.0261Z" fill="#DCF2FD"/>
<path d="M642.624 119.867C642.624 121.013 641.724 121.913 640.577 121.913H607.95C606.804 121.913 605.903 121.013 605.903 119.867V114.669C605.903 113.523 606.804 112.623 607.95 112.623H640.577C641.724 112.623 642.624 113.523 642.624 114.669V119.867Z" fill="#DCF2FD"/>
<path d="M609.711 266.709C609.711 267.855 608.81 268.756 607.664 268.756H575.037C573.89 268.756 572.99 267.855 572.99 266.709V261.512C572.99 260.366 573.89 259.465 575.037 259.465H607.664C608.81 259.465 609.711 260.366 609.711 261.512V266.709Z" fill="url(#paint7_linear)"/>
<path d="M382.016 77.2219C382.016 78.3678 381.116 79.2682 379.969 79.2682H347.342C346.196 79.2682 345.295 78.3678 345.295 77.2219V72.0243C345.295 70.8784 346.196 69.978 347.342 69.978H379.969C381.116 69.978 382.016 70.8784 382.016 72.0243V77.2219Z" fill="url(#paint8_linear)"/>
<path d="M583.634 253.818C583.634 254.964 582.733 255.864 581.587 255.864H574.873C573.727 255.864 572.826 254.964 572.826 253.818V248.62C572.826 247.474 573.727 246.574 574.873 246.574H581.587C582.733 246.574 583.634 247.474 583.634 248.62V253.818Z" fill="url(#paint9_linear)"/>
<path d="M381.484 65.4353C381.484 66.5812 380.583 67.4816 379.437 67.4816H372.723C371.577 67.4816 370.676 66.5812 370.676 65.4353V60.2377C370.676 59.0918 371.577 58.1914 372.723 58.1914H379.437C380.583 58.1914 381.484 59.0918 381.484 60.2377V65.4353Z" fill="url(#paint10_linear)"/>
<g opacity="0.7">
<path opacity="0.7" d="M394.994 124.819C394.994 125.965 394.093 126.865 392.947 126.865H389.835C388.689 126.865 387.789 125.965 387.789 124.819V86.3075C387.789 85.1616 388.689 84.2612 389.835 84.2612H392.947C394.093 84.2612 394.994 85.1616 394.994 86.3075V124.819Z" fill="#43B5E8"/>
</g>
<path d="M653.841 296.953C653.841 297.649 653.309 298.181 652.613 298.181H607.582C606.886 298.181 606.354 297.649 606.354 296.953V296.503C606.354 295.807 606.886 295.275 607.582 295.275H652.613C653.309 295.275 653.841 295.807 653.841 296.503V296.953Z" fill="url(#paint11_linear)"/>
<path d="M662.888 301.782C662.888 302.478 662.315 303.01 661.66 303.01H616.629C615.933 303.01 615.401 302.478 615.401 301.782V301.332C615.401 300.677 615.933 300.104 616.629 300.104H661.66C662.315 300.104 662.888 300.677 662.888 301.332V301.782Z" fill="url(#paint12_linear)"/>
<g opacity="0.7">
<path opacity="0.7" d="M596.324 331.045C596.324 331.699 595.751 332.272 595.096 332.272H550.065C549.41 332.272 548.836 331.699 548.836 331.045V330.594C548.836 329.899 549.41 329.367 550.065 329.367H595.096C595.751 329.367 596.324 329.899 596.324 330.594V331.045Z" fill="#43B5E8"/>
</g>
<g opacity="0.7">
<path opacity="0.7" d="M605.371 335.874C605.371 336.57 604.839 337.102 604.143 337.102H559.112C558.416 337.102 557.884 336.57 557.884 335.874V335.424C557.884 334.728 558.416 334.196 559.112 334.196H604.143C604.839 334.196 605.371 334.728 605.371 335.424V335.874Z" fill="#43B5E8"/>
</g>
<g opacity="0.7">
<path opacity="0.7" d="M303.048 139.961C303.048 140.78 302.147 141.434 301.001 141.434H257.607C256.461 141.434 255.561 140.78 255.561 139.961C255.561 139.143 256.461 138.488 257.607 138.488H301.001C302.147 138.488 303.048 139.143 303.048 139.961Z" fill="#43B5E8"/>
</g>
<g opacity="0.7">
<path opacity="0.7" d="M294.574 133.495C294.574 134.641 293.673 135.542 292.527 135.542H249.133C247.987 135.542 247.086 134.641 247.086 133.495V133.413C247.086 132.268 247.987 131.367 249.133 131.367H292.527C293.673 131.367 294.574 132.268 294.574 133.413V133.495Z" fill="#43B5E8"/>
</g>
<path d="M258.795 277.063C258.795 278.209 257.894 279.109 256.748 279.109H236.852C235.706 279.109 234.805 278.209 234.805 277.063V271.866C234.805 270.72 235.706 269.819 236.852 269.819H256.748C257.894 269.819 258.795 270.72 258.795 271.866V277.063Z" fill="url(#paint13_linear)"/>
<path d="M476.255 171.433C476.255 172.579 475.354 173.48 474.208 173.48H468.968C467.822 173.48 466.921 172.579 466.921 171.433V168.446C466.921 167.3 467.822 166.399 468.968 166.399H474.208C475.354 166.399 476.255 167.3 476.255 168.446V171.433Z" fill="url(#paint14_linear)"/>
<path d="M562.673 196.971C562.673 197.626 562.141 198.199 561.445 198.199H539.871C539.216 198.199 538.643 197.626 538.643 196.971V196.398C538.643 195.743 539.216 195.17 539.871 195.17H561.445C562.141 195.17 562.673 195.743 562.673 196.398V196.971Z" fill="url(#paint15_linear)"/>
<path d="M490.337 178.064C490.337 178.718 489.805 179.291 489.109 179.291H467.535C466.839 179.291 466.307 178.718 466.307 178.064V177.531C466.307 176.877 466.839 176.304 467.535 176.304H489.109C489.805 176.304 490.337 176.877 490.337 177.531V178.064Z" fill="url(#paint16_linear)"/>
<path d="M466.593 181.583C466.593 182.279 466.061 182.811 465.365 182.811H443.791C443.095 182.811 442.563 182.279 442.563 181.583V181.051C442.563 180.396 443.095 179.823 443.791 179.823H465.365C466.061 179.823 466.593 180.396 466.593 181.051V181.583Z" fill="url(#paint17_linear)"/>
<path d="M295.843 243.095C295.843 243.791 295.311 244.323 294.615 244.323H273.041C272.345 244.323 271.812 243.791 271.812 243.095V242.563C271.812 241.867 272.345 241.335 273.041 241.335H294.615C295.311 241.335 295.843 241.867 295.843 242.563V243.095Z" fill="url(#paint18_linear)"/>
<path d="M550.556 180.56C550.556 181.706 549.655 182.607 548.509 182.607H539.503C538.357 182.607 537.456 181.706 537.456 180.56V178.023C537.456 176.877 538.357 175.977 539.503 175.977H548.509C549.655 175.977 550.556 176.877 550.556 178.023V180.56Z" fill="url(#paint19_linear)"/>
<path d="M243.729 264.704C243.729 265.85 242.829 266.75 241.683 266.75H232.676C231.53 266.75 230.629 265.85 230.629 264.704V262.166C230.629 261.02 231.53 260.12 232.676 260.12H241.683C242.829 260.12 243.729 261.02 243.729 262.166V264.704Z" fill="url(#paint20_linear)"/>
<path d="M401.912 150.643C401.912 151.789 401.012 152.689 399.865 152.689H379.97C378.823 152.689 377.923 151.789 377.923 150.643V145.445C377.923 144.299 378.823 143.399 379.97 143.399H399.865C401.012 143.399 401.912 144.299 401.912 145.445V150.643Z" fill="url(#paint21_linear)"/>
<path d="M285.731 196.767C285.731 197.913 284.83 198.813 283.684 198.813H263.789C262.642 198.813 261.742 197.913 261.742 196.767V191.569C261.742 190.423 262.642 189.523 263.789 189.523H283.684C284.83 189.523 285.731 190.423 285.731 191.569V196.767Z" fill="url(#paint22_linear)"/>
<path d="M655.847 89.2948C655.847 89.9497 655.274 90.5226 654.619 90.5226H633.086C632.39 90.5226 631.858 89.9497 631.858 89.2948V88.9265C631.858 88.2717 632.39 87.6987 633.086 87.6987H654.619C655.274 87.6987 655.847 88.2717 655.847 88.9265V89.2948Z" fill="url(#paint23_linear)"/>
<path d="M663.257 83.852C663.257 84.5068 662.725 85.0797 662.029 85.0797H640.496C639.8 85.0797 639.268 84.5068 639.268 83.852V83.4836C639.268 82.8288 639.8 82.2559 640.496 82.2559H662.029C662.725 82.2559 663.257 82.8288 663.257 83.4836V83.852Z" fill="url(#paint24_linear)"/>
<path d="M508.35 300.759C508.35 303.01 506.508 304.852 504.256 304.852H415.299C413.047 304.852 411.205 303.01 411.205 300.759V298.508C411.205 296.257 413.047 294.416 415.299 294.416H504.297C506.548 294.416 508.391 296.257 508.391 298.508V300.759H508.35Z" fill="#7C7D80"/>
<path d="M565.089 211.786C565.089 214.037 563.246 215.879 560.995 215.879H444.65C442.399 215.879 440.557 214.037 440.557 211.786V207.202C440.557 204.952 442.399 203.11 444.65 203.11H560.995C563.246 203.11 565.089 204.952 565.089 207.202V211.786Z" fill="#7C7D80"/>
<path d="M548.059 35.5593C548.059 37.8102 546.217 39.6519 543.965 39.6519H410.059C407.807 39.6519 405.965 37.8102 405.965 35.5593V25.0413C405.965 22.7904 407.807 20.9487 410.059 20.9487H543.965C546.217 20.9487 548.059 22.7904 548.059 25.0413V35.5593Z" fill="#7C7D80"/>
<path d="M404.532 180.56C404.532 182.811 402.69 184.653 400.438 184.653H305.873C303.621 184.653 301.779 182.811 301.779 180.56V171.27C301.779 169.019 303.621 167.177 305.873 167.177H400.438C402.69 167.177 404.532 169.019 404.532 171.27V180.56Z" fill="#7C7D80"/>
<path d="M56.4404 249.848L78.4239 253.163L86.5295 219.931L92.2198 220.626C92.5473 237.57 91.7695 254.104 86.9798 262.166C84.4826 265.727 71.9148 266.914 65.4467 266.627L56.4404 249.848Z" fill="url(#paint25_linear)"/>
<path d="M94.7169 221.731C94.7169 221.731 98.9744 219.112 99.22 216.206C99.4656 213.096 93.4887 210.518 91.5647 211.418C89.6406 212.318 91.8103 215.961 90.7869 216.125C89.8044 216.288 89.5588 214.61 88.6581 215.101C87.7575 215.552 89.395 219.562 89.395 219.562L94.7169 221.731Z" fill="#FBD783"/>
<path d="M117.028 222.427L101.103 230.776C98.6063 232.086 95.9044 232.904 93.0797 233.15C90.2959 233.395 87.4713 233.109 84.7694 232.25C83.746 231.922 82.7225 231.513 81.74 231.063C78.1784 229.344 75.19 226.643 73.0613 223.328C70.9325 219.972 69.7863 216.125 69.7453 212.196C69.7044 208.226 70.7278 204.338 72.7747 200.982C74.7806 197.585 77.7281 194.843 81.2078 193.002L97.1325 184.612C93.1616 186.699 92.3019 193.288 94.4716 200.9C95.2494 203.52 96.2728 206.098 97.5828 208.513C103.068 218.949 111.747 225.169 117.028 222.427Z" fill="url(#paint26_linear)"/>
<path d="M127.303 217.106C126.525 217.475 125.748 217.884 124.929 218.293L117.069 222.427C111.788 225.21 103.109 218.948 97.6236 208.512C96.3545 206.097 95.2901 203.519 94.5123 200.9C92.3426 193.288 93.2023 186.698 97.1733 184.611L105.033 180.478C105.852 180.068 106.63 179.659 107.367 179.209C106.753 180.273 106.343 181.46 106.18 182.647C106.016 183.752 105.934 184.898 105.975 186.044C106.016 187.19 106.098 188.335 106.302 189.44C107.039 193.738 108.472 197.912 110.519 201.718C112.975 206.67 116.496 210.968 120.835 214.364C121.736 215.06 122.718 215.633 123.742 216.124C124.888 216.656 126.075 216.984 127.303 217.106Z" fill="white"/>
<path opacity="0.9" d="M189.446 211.95C186.049 213.874 182.323 215.101 178.475 215.633C164.434 217.066 159.235 203.274 132.38 214.774C130.783 215.429 129.105 216.247 127.303 217.148C126.075 217.025 124.888 216.698 123.783 216.166C122.759 215.674 121.777 215.101 120.876 214.406C116.537 211.009 113.016 206.712 110.56 201.76C108.472 197.913 107.039 193.779 106.343 189.482C106.139 188.377 106.057 187.231 106.016 186.085C105.975 184.939 106.057 183.793 106.22 182.688C106.384 181.46 106.794 180.314 107.408 179.25C109.168 178.309 110.765 177.368 112.238 176.426C136.965 160.875 128.531 148.761 137.742 137.997C140.362 135.132 143.474 132.799 146.953 131.081L148.345 133.7L163.083 161.775L168.855 172.784L173.317 181.297L188.055 209.372L189.446 211.95Z" fill="url(#paint27_linear)"/>
<path d="M147.854 182.115C136.145 159.77 135.736 136.851 146.953 130.958C158.17 125.065 176.796 138.406 188.545 160.752C200.254 183.098 200.663 206.016 189.446 211.909C178.188 217.844 159.603 204.502 147.854 182.115Z" fill="white"/>
<path d="M191.125 159.401C188.218 153.835 184.738 148.556 180.726 143.727C169.1 129.812 155.304 123.223 145.561 128.338C141.836 130.426 139.052 133.823 137.701 137.874C133.976 147.819 135.736 163.126 142.982 178.882C143.678 180.396 144.415 181.911 145.234 183.466C154.281 200.777 167.135 212.646 178.434 215.552C182.528 216.779 186.99 216.411 190.838 214.528C203.692 207.817 203.856 183.588 191.125 159.401ZM188.054 209.29C178.434 214.283 161.24 201.228 150.474 180.724C150.064 179.864 149.614 179.087 149.205 178.227C139.625 158.501 139.134 138.406 148.304 133.577C156.573 129.239 170.451 138.283 181.013 153.958C181.627 154.899 182.241 155.841 182.855 156.823C183.92 158.501 184.943 160.302 185.885 162.102C186.826 163.903 187.686 165.745 188.505 167.546C196.774 186.371 196.815 204.706 188.054 209.29Z" fill="url(#paint28_linear)"/>
<path opacity="0.9" d="M182.733 176.263L172.498 181.624C171.598 182.115 170.533 182.197 169.551 181.91C168.568 181.624 167.749 180.928 167.299 180.028C164.352 176.263 162.1 171.965 160.667 167.382C160.176 166.481 160.094 165.417 160.422 164.435C160.708 163.453 161.404 162.634 162.305 162.184L172.539 156.823C173.808 156.168 175.2 155.759 176.674 155.595C178.107 155.472 179.58 155.636 180.931 156.045C182.323 156.495 183.592 157.191 184.698 158.092C185.803 159.033 186.703 160.138 187.399 161.447C188.054 162.716 188.464 164.108 188.628 165.581C188.75 167.013 188.587 168.487 188.177 169.837C187.727 171.229 187.031 172.497 186.13 173.602C185.148 174.707 184.002 175.608 182.733 176.263Z" fill="url(#paint29_linear)"/>
<path opacity="0.9" d="M132.216 269.533L121.818 274.976C116.946 277.513 111.706 275.999 111.256 271.947L109.373 255.168L106.343 227.993L119.402 221.158L124.438 218.539L137.128 261.184C137.374 262.903 137.005 264.703 136.105 266.177C135.204 267.732 133.853 268.878 132.216 269.533Z" fill="url(#paint30_linear)"/>
<path opacity="0.5" d="M132.216 269.533L121.818 274.976C116.946 277.513 111.706 275.999 111.256 271.947L109.373 255.168C112.484 255.413 115.595 254.922 118.461 253.776C120.794 252.999 122.759 251.403 124.028 249.315C124.847 247.392 125.215 245.264 125.011 243.176C124.724 235.81 122.923 228.525 119.771 221.854C119.648 221.649 119.525 221.404 119.402 221.158L124.438 218.539L137.128 261.184C137.374 262.903 137.005 264.663 136.105 266.177C135.204 267.732 133.853 268.878 132.216 269.533Z" fill="#2BACE2"/>
<path d="M79.9795 422.678C79.693 423.905 79.8158 425.215 80.2661 426.402C81.0439 428.571 69.7451 429.267 69.7451 429.267C69.4176 427.302 69.868 425.256 70.9323 423.619C71.9558 422.268 72.6108 420.713 72.7745 419.035L79.9795 422.678Z" fill="#E6E7E7"/>
<path d="M63.4814 313.651C65.2008 341.522 74.6983 351.917 74.6574 362.68C74.6164 373.444 70.6046 420.386 70.6046 420.386C74.0433 422.473 78.178 423.169 82.108 422.309C87.6755 395.994 92.9974 365.709 92.7927 356.705C92.2605 341.399 89.5586 326.256 84.7689 311.687L63.4814 313.651Z" fill="#211239"/>
<path d="M69.0083 427.179C68.2714 428.243 67.8211 429.512 67.6574 430.781C67.5346 432.09 67.7392 433.4 68.2305 434.587C76.9502 434.751 85.4652 435.119 93.6117 434.751C93.6117 431.599 85.3424 427.425 80.7164 426.115C78.9561 427.138 76.9911 427.793 74.9852 427.957C72.9792 428.162 70.9324 427.916 69.0083 427.179Z" fill="#211239"/>
<path d="M44.8958 418.258C44.3637 419.404 44.1999 420.713 44.4046 421.982C44.6912 424.274 33.5562 422.637 33.5562 422.637C33.638 420.632 34.4977 418.749 35.8896 417.317C37.1587 416.212 38.1002 414.779 38.6324 413.183L44.8958 418.258Z" fill="#E6E7E7"/>
<path d="M50.9546 308.126C46.9428 335.751 54.1478 347.865 51.8553 358.424C49.6037 368.983 36.1353 414.083 36.1353 414.083C39.0828 416.825 42.9718 418.339 47.0246 418.299C57.8731 393.661 69.2537 365.095 70.8912 356.255C73.5112 341.153 73.9206 325.765 72.2012 310.582L50.9546 308.126Z" fill="#211239"/>
<path d="M33.2698 420.427C32.3282 421.327 31.6323 422.473 31.2229 423.701C30.8135 424.97 30.7726 426.279 31.0182 427.548C39.5332 429.512 47.7616 431.559 55.8263 432.909C56.4813 429.84 49.2354 424.028 44.9369 421.818C43.0129 422.473 40.966 422.678 38.9191 422.432C36.9132 422.228 34.9891 421.491 33.2698 420.427Z" fill="#211239"/>
<path d="M46.8199 314.715C52.4693 319.79 79.2834 319.381 86.9796 314.306C88.9446 299.491 86.2018 275.508 82.9268 250.502C72.4878 246.205 53.6156 246.573 46.7381 250.83C38.7552 257.828 47.1065 286.476 46.8199 314.715Z" fill="url(#paint31_linear)"/>
<path d="M53.4517 247.924C55.0892 244.445 55.7851 240.639 55.5395 236.833L66.306 236.137C65.3645 240.271 66.0604 244.568 68.271 248.169C67.4932 249.97 54.4751 250.134 53.4517 247.924Z" fill="#E6E7E7"/>
<path d="M55.2943 242.767C61.1484 241.13 67.0843 239.534 68.2305 235.605C69.7452 229.835 63.6046 217.025 57.6687 210.927L39.6152 223.9L55.2943 242.767Z" fill="#E6E7E7"/>
<path d="M52.3878 242.194C55.5809 242.317 54.9668 246.369 61.4759 242.113C62.2946 241.458 62.9906 240.639 63.4409 239.698C63.9321 238.757 64.1778 237.733 64.2187 236.669C64.2596 235.605 64.055 234.582 63.6456 233.6C63.2362 232.618 62.6221 231.758 61.8443 231.063C59.0606 231.226 55.9084 231.717 54.7621 230.326C53.4931 229.344 53.7387 227.87 54.5165 226.479C55.9903 226.479 57.4231 226.765 58.7331 227.338L58.774 224.637L54.0253 221.118C58.2009 218.416 63.6865 216.534 62.704 213.669C66.5112 211.254 59.429 199.672 56.6043 198.322C51.9784 203.888 46.2062 208.43 39.7381 211.664C35.2759 213.546 38.469 222.591 37.4456 226.438C37.1999 228.484 37.4456 230.571 38.1006 232.536C38.7556 234.5 39.8199 236.26 41.2528 237.774C42.6856 239.289 44.4049 240.435 46.329 241.212C48.294 241.99 50.3409 242.317 52.3878 242.194Z" fill="#2A215B"/>
<path opacity="0.1" d="M92.6701 432.786C86.4885 433.605 80.1841 432.172 74.9851 428.735L74.9441 428.694C74.7394 428.53 74.6166 428.284 74.4938 428.039C74.1254 426.074 74.2891 424.11 74.9441 422.227C75.0669 421.654 75.2307 421.041 75.3944 420.386C79.2835 408.19 82.4766 395.789 85.0557 383.266C89.3951 358.587 84.3598 335.996 75.4763 324.742C75.6401 324.742 75.7629 324.742 75.9266 324.701C78.0963 324.619 80.2251 324.373 82.3538 323.923C84.196 323.514 85.9973 322.9 87.7576 322.082C90.6641 333.418 92.3426 345 92.7519 356.705C92.9566 365.709 87.6348 395.994 82.0673 422.309C81.4123 422.555 80.7163 422.637 79.9794 422.637C79.6929 423.864 79.7748 425.174 80.2251 426.361C80.3888 426.279 80.5116 426.197 80.7163 426.115C85.1785 427.343 89.3132 429.635 92.6701 432.786Z" fill="#010101"/>
<path opacity="0.1" d="M71.5462 352.203V352.244C71.3006 353.677 71.0959 355.068 70.8503 356.296C69.2128 365.095 57.8321 393.661 46.9837 418.34C46.2468 418.421 45.5509 418.421 44.814 418.34C44.3637 419.486 44.1999 420.754 44.3637 421.982C44.5274 421.941 44.7321 421.859 44.8959 421.818C48.9487 423.906 52.4284 426.893 55.1712 430.536C49.2762 429.39 41.0478 426.32 39.3284 423.128C39.1646 422.841 39.0418 422.473 39.0009 422.146C38.9599 421.777 39.0418 421.45 39.1646 421.123C39.4103 420.55 40.0653 419.158 40.884 417.153C41.0887 416.662 41.3343 416.211 41.539 415.598C47.434 402.01 61.7212 368.696 64.3412 359.611C67.3296 349.257 67.6571 344.018 64.5049 336.242C67.6571 341.194 69.9906 346.556 71.5462 352.203Z" fill="#010101"/>
<path d="M82.8859 250.379L100.571 263.844L123.619 238.552L128.286 241.867C120.426 256.887 111.829 271.006 103.764 275.794C99.834 277.718 88.2897 272.725 82.7222 269.369L82.8859 250.379Z" fill="url(#paint32_linear)"/>
<path d="M128.285 241.908C128.285 241.908 133.034 240.353 133.935 237.57C134.876 234.582 129.677 230.735 127.589 231.144C125.502 231.554 126.771 235.605 125.747 235.564C124.724 235.523 124.888 233.805 123.905 234.05C122.923 234.296 123.619 238.593 123.619 238.593L128.285 241.908Z" fill="#E6E7E7"/>
<path opacity="0.1" d="M119.934 256.764C116.004 264.212 110.478 270.719 103.764 275.794C100.407 277.431 91.4827 274.075 85.4649 270.924C87.5527 285.248 88.044 299.777 86.9796 314.224V314.265C83.0905 316.311 78.833 317.498 74.4937 317.743C74.7802 317.293 75.1077 316.843 75.4761 316.434C77.4821 312.873 78.5465 308.862 78.5465 304.811C79.2015 290.528 78.7512 276.244 77.2365 262.043C77.2365 262.043 79.4062 263.435 82.6812 265.194C83.3771 265.563 84.0321 265.931 84.8099 266.34C89.8452 269.041 95.2899 270.842 100.98 271.702C108.513 272.275 113.016 265.645 119.934 256.764Z" fill="#010101"/>
<path d="M404.655 291.878C404.655 294.129 402.813 295.971 400.561 295.971H305.955C303.703 295.971 301.861 294.129 301.861 291.878V177.163C301.861 174.912 303.703 173.07 305.955 173.07H400.561C402.813 173.07 404.655 174.912 404.655 177.163V291.878Z" fill="#E1F4FD"/>
<path d="M564.925 282.915C564.925 285.166 563.083 287.008 560.832 287.008H444.733C442.481 287.008 440.639 285.166 440.639 282.915V212.768C440.639 210.517 442.481 208.676 444.733 208.676H560.832C563.083 208.676 564.925 210.517 564.925 212.768V282.915Z" fill="#E1F4FD"/>
<path d="M558.539 241.294C558.539 243.545 556.697 245.386 554.445 245.386H481.454C479.202 245.386 477.36 243.545 477.36 241.294V223.409C477.36 221.158 479.202 219.316 481.454 219.316H554.445C556.697 219.316 558.539 221.158 558.539 223.409V241.294Z" fill="url(#paint33_linear)"/>
<path d="M473.102 271.825C473.102 274.076 471.26 275.917 469.008 275.917H451.119C448.867 275.917 447.025 274.076 447.025 271.825V255.495C447.025 253.245 448.867 251.403 451.119 251.403H469.008C471.26 251.403 473.102 253.245 473.102 255.495V271.825Z" fill="url(#paint34_linear)"/>
<path d="M558.047 260.857C558.047 261.512 557.515 262.044 556.819 262.044H478.956C478.26 262.044 477.728 261.512 477.728 260.857C477.728 260.202 478.26 259.67 478.956 259.67H556.819C557.515 259.67 558.047 260.202 558.047 260.857Z" fill="#D1D3D4"/>
<path d="M558.047 253.531C558.047 254.185 557.515 254.717 556.819 254.717H478.506C477.81 254.717 477.278 254.185 477.278 253.531C477.278 252.876 477.81 252.344 478.506 252.344H556.819C557.515 252.344 558.047 252.876 558.047 253.531Z" fill="#D1D3D4"/>
<path d="M558.048 273.871C558.048 274.526 557.515 275.058 556.819 275.058H478.015C477.319 275.058 476.787 274.526 476.787 273.871C476.787 273.216 477.319 272.684 478.015 272.684H556.819C557.515 272.684 558.048 273.216 558.048 273.871Z" fill="#D1D3D4"/>
<path d="M557.966 267.159C557.966 267.814 557.434 268.346 556.738 268.346H478.834C478.138 268.346 477.605 267.814 477.605 267.159C477.605 266.504 478.138 265.972 478.834 265.972H556.738C557.393 265.972 557.966 266.504 557.966 267.159Z" fill="#D1D3D4"/>
<path d="M460.002 245.591C467.35 245.591 473.307 239.636 473.307 232.29C473.307 224.944 467.35 218.989 460.002 218.989C452.654 218.989 446.697 224.944 446.697 232.29C446.697 239.636 452.654 245.591 460.002 245.591Z" fill="white"/>
<path d="M459.92 273.543C465.279 273.543 469.623 269.201 469.623 263.844C469.623 258.487 465.279 254.145 459.92 254.145C454.562 254.145 450.218 258.487 450.218 263.844C450.218 269.201 454.562 273.543 459.92 273.543Z" fill="white"/>
<path d="M555.141 225.947C555.141 226.601 554.568 227.133 553.913 227.133H482.886C482.19 227.133 481.658 226.601 481.658 225.947C481.658 225.292 482.19 224.76 482.886 224.76H553.913C554.609 224.76 555.141 225.292 555.141 225.947Z" fill="white"/>
<path d="M555.141 237.447C555.141 238.101 554.568 238.633 553.913 238.633H482.886C482.19 238.633 481.658 238.101 481.658 237.447C481.658 236.792 482.19 236.26 482.886 236.26H553.913C554.609 236.26 555.141 236.792 555.141 237.447Z" fill="white"/>
<path d="M555.141 231.84C555.141 232.495 554.568 233.027 553.913 233.027H482.886C482.19 233.027 481.658 232.495 481.658 231.84C481.658 231.185 482.19 230.653 482.886 230.653H553.913C554.609 230.653 555.141 231.185 555.141 231.84Z" fill="white"/>
<path d="M548.1 112.132C548.1 114.383 546.258 116.224 544.006 116.224H410.059C407.807 116.224 405.965 114.383 405.965 112.132V30.4026C405.965 28.1517 407.807 26.3101 410.059 26.3101H544.006C546.258 26.3101 548.1 28.1517 548.1 30.4026V112.132Z" fill="#E1F4FD"/>
<path d="M540.772 62.202C540.772 64.4529 538.93 66.2946 536.679 66.2946H451.651C449.4 66.2946 447.558 64.4529 447.558 62.202V45.5042C447.558 43.2533 449.4 41.4116 451.651 41.4116H536.679C538.93 41.4116 540.772 43.2533 540.772 45.5042V62.202Z" fill="url(#paint35_linear)"/>
<path d="M539.175 79.2683C539.175 79.964 538.643 80.496 537.947 80.496H413.906C413.21 80.496 412.678 79.964 412.678 79.2683V79.0227C412.678 78.3679 413.21 77.7949 413.906 77.7949H537.988C538.684 77.7949 539.216 78.3679 539.216 79.0227V79.2683H539.175Z" fill="#D1D3D4"/>
<path d="M538.602 86.635C538.602 87.2898 538.07 87.8627 537.374 87.8627H414.152C413.497 87.8627 412.924 87.2898 412.924 86.635V86.3894C412.924 85.7346 413.497 85.1616 414.152 85.1616H537.333C538.029 85.1616 538.561 85.7346 538.561 86.3894V86.635H538.602Z" fill="#D1D3D4"/>
<path d="M538.971 93.8376C538.971 94.4924 538.439 95.0654 537.743 95.0654H414.357C413.702 95.0654 413.129 94.4924 413.129 93.8376V93.592C413.129 92.8963 413.702 92.3643 414.357 92.3643H537.702C538.398 92.3643 538.93 92.8963 538.93 93.592V93.8376H538.971Z" fill="#D1D3D4"/>
<path d="M539.134 100.836C539.134 101.491 538.602 102.064 537.906 102.064H414.521C413.866 102.064 413.292 101.491 413.292 100.836V100.591C413.292 99.8948 413.866 99.3628 414.521 99.3628H537.906C538.602 99.3628 539.134 99.8948 539.134 100.591V100.836Z" fill="#D1D3D4"/>
<path d="M539.298 108.162C539.298 108.817 538.766 109.39 538.07 109.39H414.685C413.989 109.39 413.457 108.817 413.457 108.162V107.916C413.457 107.261 413.989 106.688 414.685 106.688H538.029C538.725 106.688 539.258 107.261 539.258 107.916V108.162H539.298Z" fill="#D1D3D4"/>
<path d="M427.498 67.9319C435.162 67.9319 441.376 61.7203 441.376 54.058C441.376 46.3956 435.162 40.1841 427.498 40.1841C419.833 40.1841 413.62 46.3956 413.62 54.058C413.62 61.7203 419.833 67.9319 427.498 67.9319Z" fill="white"/>
<path d="M459.225 62.898C464.199 62.898 468.231 58.8669 468.231 53.8943C468.231 48.9217 464.199 44.8906 459.225 44.8906C454.251 44.8906 450.218 48.9217 450.218 53.8943C450.218 58.8669 454.251 62.898 459.225 62.898Z" fill="white"/>
<path d="M537.415 46.7733C537.415 47.3054 536.883 47.7146 536.187 47.7146H473.143C472.447 47.7146 471.915 47.3054 471.915 46.7733C471.915 46.2413 472.447 45.832 473.143 45.832H536.187C536.883 45.832 537.415 46.2413 537.415 46.7733Z" fill="white"/>
<path d="M537.415 51.1112C537.415 51.6433 536.883 52.0525 536.187 52.0525H473.143C472.447 52.0525 471.915 51.6433 471.915 51.1112C471.915 50.5792 472.447 50.1699 473.143 50.1699H536.187C536.883 50.1699 537.415 50.5792 537.415 51.1112Z" fill="white"/>
<path d="M537.415 55.7357C537.415 56.2678 536.883 56.677 536.187 56.677H473.143C472.447 56.677 471.915 56.2678 471.915 55.7357C471.915 55.2037 472.447 54.7944 473.143 54.7944H536.187C536.883 54.7944 537.415 55.2446 537.415 55.7357Z" fill="white"/>
<path d="M537.415 60.0741C537.415 60.6061 536.883 61.0154 536.187 61.0154H473.143C472.447 61.0154 471.915 60.6061 471.915 60.0741C471.915 59.5421 472.447 59.1328 473.143 59.1328H536.187C536.883 59.1328 537.415 59.5421 537.415 60.0741Z" fill="white"/>
<path d="M508.391 355.477C508.391 357.728 506.548 359.57 504.297 359.57H415.299C413.047 359.57 411.205 357.728 411.205 355.477V303.828C411.205 301.578 413.047 299.736 415.299 299.736H504.338C506.589 299.736 508.432 301.578 508.432 303.828V355.477H508.391Z" fill="#E1F4FD"/>
<path d="M503.396 321.345C503.396 323.596 501.554 325.438 499.302 325.438H421.071C418.819 325.438 416.977 323.596 416.977 321.345V312.505C416.977 310.254 418.819 308.413 421.071 308.413H499.302C501.554 308.413 503.396 310.254 503.396 312.505V321.345Z" fill="url(#paint36_linear)"/>
<path d="M502.987 334.769C502.987 335.26 502.455 335.71 501.759 335.71H417.673C416.977 335.71 416.445 335.301 416.445 334.769C416.445 334.278 416.977 333.828 417.673 333.828H501.759C502.414 333.828 502.987 334.237 502.987 334.769Z" fill="#D1D3D4"/>
<path d="M502.905 339.27C502.905 339.761 502.373 340.212 501.677 340.212H418.205C417.509 340.212 416.977 339.802 416.977 339.27C416.977 338.738 417.509 338.329 418.205 338.329H501.677C502.332 338.329 502.905 338.779 502.905 339.27Z" fill="#D1D3D4"/>
<path d="M502.823 344.182C502.823 344.673 502.291 345.123 501.595 345.123H418.001C417.305 345.123 416.772 344.714 416.772 344.182C416.772 343.649 417.305 343.24 418.001 343.24H501.595C502.25 343.24 502.823 343.649 502.823 344.182Z" fill="#D1D3D4"/>
<path d="M502.823 349.093C502.823 349.584 502.291 350.034 501.595 350.034H418.001C417.305 350.034 416.772 349.625 416.772 349.093C416.772 348.602 417.305 348.151 418.001 348.151H501.595C502.25 348.151 502.823 348.602 502.823 349.093Z" fill="#D1D3D4"/>
<path opacity="0.7" d="M310.785 210.804V187.517C310.785 186.822 310.99 186.208 311.358 185.717C311.727 185.226 312.259 184.98 312.791 184.98H367.934C368.466 184.98 368.957 185.266 369.367 185.717C369.735 186.208 369.94 186.863 369.94 187.517V204.297C369.94 204.993 369.735 205.607 369.367 206.098C368.998 206.589 368.466 206.834 367.934 206.834H314.51C314.224 206.834 313.978 206.916 313.692 207.039C313.446 207.162 313.2 207.366 313.037 207.653L310.785 210.804Z" fill="#43B5E8"/>
<path opacity="0.7" d="M558.211 152.444V128.134C558.211 127.438 557.966 126.742 557.515 126.251C557.065 125.76 556.492 125.474 555.878 125.474H492.384C491.77 125.474 491.197 125.76 490.746 126.251C490.296 126.742 490.05 127.438 490.05 128.134V145.65C490.05 146.346 490.296 147.042 490.746 147.533C491.197 148.024 491.77 148.31 492.384 148.31H553.872C554.199 148.31 554.486 148.392 554.772 148.515C555.059 148.679 555.305 148.883 555.55 149.129L558.211 152.444Z" fill="#43B5E8"/>
<path opacity="0.7" d="M300.06 271.333V250.052C300.06 249.438 299.855 248.824 299.527 248.415C299.2 247.965 298.709 247.719 298.258 247.719H248.192C247.701 247.719 247.25 247.965 246.923 248.415C246.595 248.865 246.391 249.438 246.391 250.052V265.399C246.391 266.013 246.595 266.627 246.923 267.036C247.25 267.486 247.742 267.732 248.192 267.732H296.621C296.867 267.732 297.112 267.814 297.358 267.937C297.603 268.059 297.808 268.264 297.972 268.469L300.06 271.333Z" fill="#43B5E8"/>
<path opacity="0.7" d="M230.138 135.869V87.9445C230.138 86.553 230.67 85.2024 231.653 84.2202C232.594 83.238 233.904 82.665 235.255 82.665H375.958C377.309 82.665 378.619 83.238 379.56 84.2202C380.502 85.2024 381.075 86.553 381.075 87.9445V122.486C381.075 123.877 380.543 125.228 379.56 126.21C378.619 127.192 377.309 127.765 375.958 127.765H239.718C239.022 127.765 238.326 127.929 237.671 128.216C237.016 128.502 236.443 128.911 235.951 129.443L230.138 135.869Z" fill="#43B5E8"/>
<path opacity="0.7" d="M310.58 251.198V231.39C310.58 230.817 310.785 230.244 311.153 229.835C311.522 229.425 312.054 229.18 312.586 229.18H367.934C368.466 229.18 368.998 229.425 369.366 229.835C369.735 230.244 369.939 230.776 369.939 231.39V245.673C369.939 246.246 369.735 246.819 369.366 247.228C368.998 247.637 368.466 247.883 367.934 247.883H314.346C314.06 247.883 313.814 247.965 313.528 248.047C313.282 248.169 313.036 248.333 312.873 248.538L310.58 251.198Z" fill="#43B5E8"/>
<path opacity="0.7" d="M399.415 227.993V212.523C399.415 212.073 399.21 211.623 398.883 211.336C398.514 211.009 398.064 210.845 397.532 210.845H345.705C345.214 210.845 344.722 211.009 344.354 211.336C343.986 211.664 343.822 212.073 343.822 212.523V223.696C343.822 224.146 344.026 224.596 344.354 224.883C344.722 225.21 345.173 225.374 345.705 225.374H395.894C396.14 225.374 396.426 225.415 396.631 225.497C396.877 225.579 397.081 225.742 397.245 225.906L399.415 227.993Z" fill="#97C7EB"/>
<path opacity="0.7" d="M399.415 270.965V255.495C399.415 255.045 399.21 254.595 398.842 254.308C398.473 253.981 397.982 253.817 397.45 253.817H343.699C343.167 253.817 342.675 253.981 342.307 254.308C341.939 254.636 341.734 255.045 341.734 255.495V266.668C341.734 267.118 341.939 267.568 342.307 267.855C342.675 268.182 343.167 268.346 343.699 268.346H395.771C396.058 268.346 396.304 268.387 396.549 268.469C396.795 268.551 397 268.714 397.204 268.878L399.415 270.965Z" fill="#97C7EB"/>
<path opacity="0.7" d="M399.415 287.376V276.899C399.415 276.613 399.21 276.285 398.883 276.081C398.514 275.876 398.064 275.753 397.573 275.753H346.483C345.992 275.753 345.5 275.876 345.173 276.081C344.804 276.285 344.641 276.572 344.641 276.899V284.471C344.641 284.757 344.845 285.085 345.173 285.289C345.541 285.494 345.992 285.617 346.483 285.617H395.935C396.181 285.617 396.427 285.657 396.672 285.698C396.918 285.78 397.123 285.862 397.286 285.985L399.415 287.376Z" fill="#97C7EB"/>
<path d="M591.248 87.8218H573.481V92.9375H591.248V87.8218Z" fill="url(#paint37_linear)"/>
<path d="M599.231 86.6348H569.183C568.691 86.6348 568.241 86.7166 567.791 86.9212C567.34 87.0849 566.972 87.3714 566.603 87.6988C566.276 88.0262 565.989 88.4355 565.826 88.8857C565.662 89.3359 565.539 89.7861 565.539 90.2772V156.7C565.539 157.641 565.907 158.583 566.603 159.278C567.299 159.974 568.2 160.342 569.183 160.342H599.231C599.722 160.342 600.172 160.261 600.622 160.056C601.073 159.892 601.482 159.606 601.81 159.278C602.137 158.951 602.424 158.542 602.587 158.091C602.751 157.641 602.874 157.191 602.874 156.7V90.2362C602.874 89.7451 602.792 89.2949 602.587 88.8448C602.383 88.3946 602.137 88.0262 601.81 87.6579C601.482 87.3305 601.073 87.044 600.622 86.8803C600.172 86.7166 599.722 86.6348 599.231 86.6348ZM579.171 88.5583C579.171 88.4764 579.212 88.4355 579.253 88.3537C579.294 88.3127 579.294 88.3127 579.335 88.3127C579.376 88.3127 579.417 88.2718 579.458 88.3127H587.645C587.686 88.3127 587.727 88.3127 587.768 88.3537C587.809 88.3537 587.85 88.3946 587.85 88.3946C587.891 88.4355 587.891 88.4355 587.891 88.4764C587.891 88.5174 587.932 88.5583 587.932 88.5992C587.932 88.6811 587.891 88.722 587.85 88.8038C587.809 88.8448 587.727 88.8857 587.645 88.8857H579.458C579.417 88.8857 579.376 88.8857 579.335 88.8857C579.294 88.8857 579.253 88.8448 579.253 88.8448C579.212 88.8038 579.212 88.8038 579.212 88.7629C579.171 88.6401 579.171 88.5992 579.171 88.5583ZM588.751 88.5583C588.751 88.5174 588.751 88.4355 588.792 88.3946C588.833 88.3537 588.873 88.3127 588.914 88.3127C588.955 88.2718 589.037 88.2718 589.078 88.3127C589.119 88.3127 589.16 88.3537 589.201 88.3946C589.242 88.4355 589.283 88.4764 589.283 88.5174C589.283 88.5583 589.283 88.6401 589.283 88.6811C589.283 88.722 589.242 88.7629 589.201 88.8038C589.16 88.8448 589.119 88.8448 589.037 88.8448C588.955 88.8448 588.914 88.8038 588.832 88.7629C588.751 88.722 588.751 88.6401 588.751 88.5583Z" fill="#231F20"/>
<path d="M592.885 87.7397C591.698 89.4585 589.651 90.4817 587.44 90.4817H581.013C578.802 90.4817 576.756 89.4585 575.568 87.7397H568.773C568.527 87.7397 568.281 87.7806 568.036 87.9034C567.79 87.9852 567.586 88.1489 567.422 88.3126C567.258 88.4763 567.094 88.681 567.012 88.9265C566.931 89.1721 566.849 89.4176 566.849 89.6632V157.15C566.849 157.396 566.89 157.641 567.012 157.887C567.094 158.132 567.258 158.337 567.422 158.501C567.586 158.664 567.79 158.828 568.036 158.91C568.281 158.992 568.527 159.074 568.773 159.074H599.681C600.172 159.074 600.663 158.869 601.031 158.542C601.4 158.173 601.564 157.723 601.564 157.191V89.6223C601.564 89.3767 601.523 89.1311 601.4 88.8856C601.318 88.64 601.154 88.4354 600.991 88.2717C600.827 88.108 600.622 87.9443 600.376 87.8624C600.131 87.7806 599.885 87.6987 599.64 87.6987H592.885V87.7397Z" fill="url(#paint38_linear)"/>
<path d="M575.569 87.74C575.569 87.7809 575.61 87.7809 575.651 87.8218C575.692 87.8627 575.733 87.9446 575.774 87.9855C575.814 88.0265 575.855 88.0674 575.896 88.1083C575.937 88.1492 575.978 88.1901 576.019 88.2311C576.06 88.272 576.101 88.3129 576.142 88.3539C576.183 88.3948 576.224 88.4357 576.265 88.4766C576.306 88.5176 576.347 88.5585 576.388 88.5994C576.469 88.6813 576.592 88.7631 576.674 88.845C576.715 88.8859 576.756 88.9268 576.838 88.9677L577.002 89.0905C577.043 89.1314 577.124 89.1724 577.165 89.2133C577.206 89.2542 577.288 89.2951 577.329 89.3361C577.37 89.377 577.452 89.4179 577.493 89.4179C577.616 89.4998 577.698 89.5407 577.82 89.6226C577.861 89.6635 577.943 89.6635 577.984 89.7044C578.025 89.7453 578.107 89.7453 578.148 89.7863C578.189 89.8272 578.271 89.8272 578.312 89.8681C578.434 89.909 578.557 89.95 578.68 89.9909C578.721 90.0318 578.803 90.0318 578.885 90.0727C578.967 90.1137 579.049 90.1137 579.13 90.1546H579.171C579.253 90.1955 579.376 90.1955 579.458 90.2364C579.499 90.2364 579.581 90.2774 579.622 90.2774C579.704 90.2774 579.744 90.3183 579.826 90.3183C579.867 90.3183 579.867 90.3183 579.908 90.3183C579.949 90.3183 579.99 90.3183 580.031 90.3183C580.072 90.3183 580.113 90.3183 580.113 90.3183H580.236C580.277 90.3183 580.318 90.3183 580.399 90.3183C580.522 90.3183 580.645 90.3183 580.727 90.3183C580.809 90.3183 580.891 90.3183 581.014 90.3183H587.441C587.523 90.3183 587.604 90.3183 587.686 90.3183C587.809 90.3183 587.891 90.3183 588.014 90.3183C588.096 90.3183 588.137 90.3183 588.219 90.3183C588.259 90.3183 588.3 90.3183 588.3 90.3183C588.341 90.3183 588.382 90.3183 588.464 90.3183C588.546 90.3183 588.628 90.2774 588.71 90.2774C588.792 90.2774 588.874 90.2364 588.955 90.2364C589.037 90.2364 589.119 90.1955 589.201 90.1955C589.283 90.1955 589.365 90.1546 589.447 90.1137C589.529 90.0727 589.61 90.0727 589.692 90.0318C589.774 89.9909 589.815 89.9909 589.897 89.95C589.938 89.95 590.02 89.909 590.061 89.8681C590.224 89.7863 590.388 89.7453 590.511 89.6635C590.552 89.6226 590.634 89.6226 590.675 89.5816C590.716 89.5407 590.798 89.5407 590.839 89.4998C590.879 89.4589 590.961 89.4179 591.002 89.4179C591.043 89.377 591.125 89.3361 591.166 89.2952C591.207 89.2542 591.248 89.2133 591.33 89.2133C591.371 89.1724 591.453 89.1314 591.494 89.0905C591.575 89.0496 591.657 88.9677 591.739 88.8859C591.821 88.845 591.903 88.7631 591.944 88.6813C591.985 88.6403 592.026 88.5994 592.067 88.5585C592.108 88.5176 592.149 88.4766 592.23 88.3948C592.271 88.3539 592.312 88.272 592.394 88.2311C592.435 88.1901 592.476 88.1492 592.517 88.1083C592.558 88.0674 592.599 87.9855 592.64 87.9446C592.722 87.8627 592.804 87.74 592.885 87.6172L575.569 87.74ZM587.809 88.7631C587.768 88.804 587.768 88.804 587.727 88.804C587.686 88.804 587.645 88.845 587.604 88.804H579.417C579.376 88.804 579.335 88.804 579.294 88.804C579.253 88.804 579.212 88.7631 579.212 88.7631C579.171 88.7222 579.171 88.7222 579.171 88.6813C579.171 88.6403 579.13 88.5994 579.13 88.5585C579.13 88.4766 579.171 88.4357 579.212 88.3539C579.253 88.3129 579.253 88.3129 579.294 88.3129C579.335 88.3129 579.376 88.272 579.417 88.3129H587.604C587.686 88.3129 587.727 88.3539 587.809 88.3948C587.85 88.4357 587.891 88.5176 587.891 88.5994C587.891 88.6403 587.891 88.6813 587.85 88.6813C587.85 88.6813 587.85 88.7222 587.809 88.7631ZM588.996 88.845C588.955 88.845 588.874 88.845 588.833 88.804C588.792 88.7631 588.751 88.7222 588.751 88.6813C588.751 88.6403 588.71 88.5585 588.751 88.5176C588.751 88.4766 588.792 88.4357 588.833 88.3948C588.874 88.3539 588.914 88.3129 588.955 88.3129C588.996 88.3129 589.078 88.3129 589.119 88.3129C589.16 88.3539 589.201 88.3539 589.242 88.3948C589.283 88.4357 589.283 88.4766 589.283 88.5585C589.283 88.5994 589.283 88.6403 589.242 88.6813C589.242 88.7222 589.201 88.7631 589.201 88.7631C589.16 88.804 589.16 88.804 589.119 88.804C589.078 88.845 589.037 88.845 588.996 88.845Z" fill="#231F20"/>
<path d="M594.564 113.851V94.2063C594.564 93.6333 594.728 93.1013 595.055 92.692C595.383 92.2828 595.792 92.0781 596.201 92.0781H641.478C641.929 92.0781 642.338 92.3237 642.625 92.692C642.952 93.1013 643.116 93.6333 643.116 94.2063V108.408C643.116 108.981 642.952 109.513 642.625 109.922C642.297 110.331 641.888 110.536 641.478 110.536H597.675C597.43 110.536 597.225 110.577 597.02 110.699C596.816 110.822 596.611 110.986 596.488 111.191L594.564 113.851Z" fill="#DCF2FD"/>
<path d="M568.978 140.534V131.244C568.978 130.957 569.06 130.712 569.224 130.507C569.387 130.303 569.551 130.221 569.756 130.221H591.207C591.412 130.221 591.616 130.343 591.739 130.507C591.903 130.712 591.985 130.957 591.985 131.244V137.956C591.985 138.242 591.903 138.488 591.739 138.692C591.575 138.897 591.412 138.979 591.207 138.979H570.452C570.329 138.979 570.247 139.02 570.124 139.061C570.042 139.102 569.92 139.183 569.879 139.306L568.978 140.534Z" fill="#DCF2FD"/>
<path d="M600.213 126.865V116.92C600.213 116.633 600.09 116.347 599.886 116.142C599.681 115.938 599.435 115.815 599.149 115.815H570.288C570.001 115.815 569.756 115.938 569.551 116.142C569.346 116.347 569.224 116.633 569.224 116.92V124.082C569.224 124.368 569.346 124.655 569.551 124.86C569.756 125.064 570.001 125.187 570.288 125.187H598.207C598.371 125.187 598.494 125.228 598.617 125.269C598.74 125.31 598.862 125.433 598.985 125.514L600.213 126.865Z" fill="#ABE1FA"/>
<path d="M599.804 154.285V144.34C599.804 144.054 599.681 143.767 599.476 143.563C599.271 143.358 599.026 143.235 598.739 143.235H569.878C569.592 143.235 569.346 143.358 569.141 143.563C568.937 143.767 568.814 144.054 568.814 144.34V151.502C568.814 151.789 568.937 152.075 569.141 152.28C569.346 152.485 569.592 152.607 569.878 152.607H597.798C597.962 152.607 598.084 152.648 598.207 152.689C598.33 152.73 598.453 152.853 598.576 152.935L599.804 154.285Z" fill="#ABE1FA"/>
<path d="M365.682 190.996C365.682 191.61 365.109 192.101 364.454 192.101H315.902C315.206 192.101 314.674 191.61 314.674 190.996C314.674 190.382 315.206 189.891 315.902 189.891H364.454C365.15 189.932 365.682 190.423 365.682 190.996Z" fill="white"/>
<path d="M373.665 92.8964C373.665 94.0423 372.765 94.9427 371.618 94.9427H243.197C242.051 94.9427 241.15 94.0423 241.15 92.8964V91.7914C241.15 90.6455 242.051 89.7451 243.197 89.7451H371.618C372.765 89.7451 373.665 90.6455 373.665 91.7914V92.8964Z" fill="white"/>
<path d="M373.665 104.396C373.665 105.542 372.765 106.443 371.618 106.443H243.197C242.051 106.443 241.15 105.542 241.15 104.396V103.291C241.15 102.145 242.051 101.245 243.197 101.245H371.618C372.765 101.245 373.665 102.145 373.665 103.291V104.396Z" fill="white"/>
<path d="M374.156 116.06C374.156 117.206 373.256 118.107 372.109 118.107H243.688C242.542 118.107 241.642 117.206 241.642 116.06V114.955C241.642 113.81 242.542 112.909 243.688 112.909H372.109C373.256 112.909 374.156 113.81 374.156 114.955V116.06Z" fill="white"/>
<path d="M571.598 295.193V274.689C571.598 274.076 571.844 273.503 572.253 273.093C572.663 272.684 573.236 272.438 573.809 272.438H634.806C635.379 272.438 635.952 272.684 636.361 273.093C636.771 273.503 637.016 274.076 637.016 274.689V289.505C637.016 290.118 636.771 290.691 636.361 291.101C635.952 291.51 635.379 291.756 634.806 291.756H575.733C575.446 291.756 575.119 291.837 574.832 291.96C574.546 292.083 574.3 292.247 574.095 292.492L571.598 295.193Z" fill="url(#paint39_linear)"/>
<path d="M633.045 276.531C633.045 277.145 632.513 277.636 631.817 277.636H577.493C576.797 277.636 576.265 277.145 576.265 276.531C576.265 275.917 576.797 275.426 577.493 275.426H631.817C632.513 275.426 633.045 275.917 633.045 276.531Z" fill="white"/>
<path d="M633.045 281.483C633.045 282.097 632.513 282.588 631.817 282.588H577.493C576.797 282.588 576.265 282.097 576.265 281.483C576.265 280.869 576.797 280.378 577.493 280.378H631.817C632.513 280.337 633.045 280.829 633.045 281.483Z" fill="white"/>
<path d="M633.291 286.476C633.291 287.09 632.759 287.581 632.063 287.581H577.739C577.043 287.581 576.511 287.09 576.511 286.476C576.511 285.862 577.043 285.371 577.739 285.371H632.063C632.718 285.33 633.291 285.862 633.291 286.476Z" fill="white"/>
<path d="M514.081 329.244V308.74C514.081 308.126 514.327 307.553 514.736 307.144C515.145 306.734 515.719 306.489 516.333 306.489H578.189C578.803 306.489 579.376 306.734 579.786 307.144C580.195 307.553 580.441 308.126 580.441 308.74V323.555C580.441 324.169 580.195 324.742 579.786 325.151C579.376 325.56 578.803 325.806 578.189 325.806H518.298C517.97 325.806 517.684 325.888 517.397 326.01C517.11 326.133 516.865 326.297 516.66 326.542L514.081 329.244Z" fill="url(#paint40_linear)"/>
<path d="M575.569 310.623C575.569 311.236 575.037 311.728 574.341 311.728H520.017C519.321 311.728 518.789 311.236 518.789 310.623C518.789 310.009 519.321 309.518 520.017 309.518H574.341C574.996 309.477 575.569 309.968 575.569 310.623Z" fill="white"/>
<path d="M575.569 315.534C575.569 316.148 575.037 316.639 574.341 316.639H520.017C519.321 316.639 518.789 316.148 518.789 315.534C518.789 314.92 519.321 314.429 520.017 314.429H574.341C574.996 314.429 575.569 314.92 575.569 315.534Z" fill="white"/>
<path d="M575.773 320.526C575.773 321.14 575.241 321.631 574.545 321.631H520.221C519.525 321.631 518.993 321.14 518.993 320.526C518.993 319.912 519.525 319.421 520.221 319.421H574.545C575.2 319.421 575.773 319.912 575.773 320.526Z" fill="white"/>
<path d="M407.684 179.168V158.665C407.684 158.051 407.889 157.478 408.257 157.068C408.626 156.659 409.117 156.414 409.608 156.414H462.09C462.581 156.414 463.072 156.659 463.441 157.068C463.809 157.478 464.014 158.051 464.014 158.665V173.48C464.014 174.094 463.809 174.667 463.441 175.076C463.072 175.485 462.581 175.731 462.09 175.731H411.246C411 175.731 410.713 175.812 410.468 175.935C410.222 176.058 410.017 176.222 409.813 176.467L407.684 179.168Z" fill="url(#paint41_linear)"/>
<path d="M459.798 160.506C459.798 161.12 459.266 161.611 458.57 161.611H412.883C412.228 161.611 411.655 161.12 411.655 160.506C411.655 159.892 412.228 159.401 412.883 159.401H458.57C459.225 159.401 459.798 159.892 459.798 160.506Z" fill="white"/>
<path d="M459.798 165.417C459.798 166.031 459.266 166.523 458.57 166.523H412.883C412.228 166.523 411.655 166.031 411.655 165.417C411.655 164.804 412.228 164.312 412.883 164.312H458.57C459.225 164.312 459.798 164.804 459.798 165.417Z" fill="white"/>
<path d="M459.961 170.451C459.961 171.065 459.429 171.556 458.733 171.556H413.088C412.433 171.556 411.86 171.065 411.86 170.451C411.86 169.837 412.433 169.346 413.088 169.346H458.774C459.429 169.305 459.961 169.837 459.961 170.451Z" fill="white"/>
<path d="M297.48 252.385C297.48 252.999 296.907 253.49 296.252 253.49H249.952C249.297 253.49 248.724 252.999 248.724 252.385C248.724 251.771 249.297 251.28 249.952 251.28H296.252C296.948 251.28 297.48 251.771 297.48 252.385Z" fill="white"/>
<path d="M297.48 257.296C297.48 257.91 296.907 258.401 296.252 258.401H249.952C249.297 258.401 248.724 257.91 248.724 257.296C248.724 256.682 249.297 256.191 249.952 256.191H296.252C296.948 256.191 297.48 256.682 297.48 257.296Z" fill="white"/>
<path d="M297.685 262.33C297.685 262.944 297.153 263.435 296.457 263.435H250.156C249.46 263.435 248.928 262.944 248.928 262.33C248.928 261.716 249.46 261.225 250.156 261.225H296.457C297.153 261.184 297.685 261.716 297.685 262.33Z" fill="white"/>
<path d="M365.559 196.153C365.559 196.767 365.027 197.258 364.331 197.258H315.779C315.124 197.258 314.551 196.767 314.551 196.153C314.551 195.539 315.124 195.048 315.779 195.048H364.331C365.027 195.048 365.559 195.539 365.559 196.153Z" fill="white"/>
<path d="M397.081 215.47C397.081 216.084 396.508 216.575 395.853 216.575H347.301C346.605 216.575 346.073 216.084 346.073 215.47C346.073 214.856 346.605 214.365 347.301 214.365H395.853C396.549 214.365 397.081 214.856 397.081 215.47Z" fill="white"/>
<path d="M396.222 258.115C396.222 258.729 395.69 259.22 394.994 259.22H346.442C345.787 259.22 345.214 258.729 345.214 258.115C345.214 257.501 345.787 257.01 346.442 257.01H394.994C395.649 257.01 396.222 257.501 396.222 258.115Z" fill="white"/>
<path d="M397.081 220.258C397.081 220.872 396.508 221.363 395.853 221.363H347.301C346.605 221.363 346.073 220.872 346.073 220.258C346.073 219.644 346.605 219.153 347.301 219.153H395.853C396.549 219.194 397.081 219.685 397.081 220.258Z" fill="white"/>
<path d="M365.682 233.968C365.682 234.582 365.109 235.073 364.454 235.073H315.902C315.206 235.073 314.674 234.582 314.674 233.968C314.674 233.354 315.206 232.863 315.902 232.863H364.454C365.15 232.863 365.682 233.354 365.682 233.968Z" fill="white"/>
<path d="M365.805 238.552C365.805 239.166 365.273 239.657 364.577 239.657H316.025C315.37 239.657 314.797 239.166 314.797 238.552C314.797 237.938 315.37 237.447 316.025 237.447H364.577C365.232 237.447 365.805 237.938 365.805 238.552Z" fill="white"/>
<path d="M354.752 243.217C354.752 243.831 354.22 244.322 353.524 244.322H316.189C315.493 244.322 314.961 243.831 314.961 243.217C314.961 242.603 315.493 242.112 316.189 242.112H353.524C354.179 242.112 354.752 242.603 354.752 243.217Z" fill="white"/>
<path d="M396.468 263.148C396.468 263.762 395.894 264.253 395.239 264.253H357.904C357.208 264.253 356.676 263.762 356.676 263.148C356.676 262.535 357.208 262.043 357.904 262.043H395.239C395.894 262.043 396.468 262.535 396.468 263.148Z" fill="white"/>
<path d="M397.286 280.665C397.286 281.278 396.713 281.77 396.058 281.77H358.723C358.068 281.77 357.495 281.278 357.495 280.665C357.495 280.051 358.068 279.56 358.723 279.56H396.058C396.754 279.56 397.286 280.051 397.286 280.665Z" fill="white"/>
<path d="M365.559 200.818C365.559 201.432 365.027 201.923 364.331 201.923H315.779C315.124 201.923 314.551 201.432 314.551 200.818C314.551 200.204 315.124 199.713 315.779 199.713H364.331C365.027 199.713 365.559 200.204 365.559 200.818Z" fill="white"/>
<path d="M404.491 172.743H301.697V177.736H404.491V172.743Z" fill="#7C7D80"/>
<path d="M547.977 25.9414H405.924V31.9575H547.977V25.9414Z" fill="#7C7D80"/>
<path d="M565.089 207.162H440.68V213.914H565.089V207.162Z" fill="#7C7D80"/>
<path d="M508.309 299H411.205V302.969H508.309V299Z" fill="#7C7D80"/>
<path d="M309.802 174.339C310.865 174.339 311.727 173.478 311.727 172.416C311.727 171.353 310.865 170.492 309.802 170.492C308.74 170.492 307.878 171.353 307.878 172.416C307.878 173.478 308.74 174.339 309.802 174.339Z" fill="white"/>
<path d="M316.23 174.298C317.292 174.298 318.154 173.437 318.154 172.375C318.154 171.312 317.292 170.451 316.23 170.451C315.167 170.451 314.306 171.312 314.306 172.375C314.306 173.437 315.167 174.298 316.23 174.298Z" fill="white"/>
<path d="M322.616 174.298C323.679 174.298 324.54 173.437 324.54 172.375C324.54 171.312 323.679 170.451 322.616 170.451C321.553 170.451 320.692 171.312 320.692 172.375C320.692 173.437 321.553 174.298 322.616 174.298Z" fill="white"/>
<path d="M415.462 29.0521C416.525 29.0521 417.386 28.1909 417.386 27.1286C417.386 26.0663 416.525 25.2051 415.462 25.2051C414.4 25.2051 413.538 26.0663 413.538 27.1286C413.538 28.1909 414.4 29.0521 415.462 29.0521Z" fill="white"/>
<path d="M421.889 29.0111C422.952 29.0111 423.813 28.1499 423.813 27.0876C423.813 26.0253 422.952 25.1641 421.889 25.1641C420.827 25.1641 419.965 26.0253 419.965 27.0876C419.965 28.1499 420.827 29.0111 421.889 29.0111Z" fill="white"/>
<path d="M428.276 29.0111C429.338 29.0111 430.2 28.1499 430.2 27.0876C430.2 26.0253 429.338 25.1641 428.276 25.1641C427.213 25.1641 426.352 26.0253 426.352 27.0876C426.352 28.1499 427.213 29.0111 428.276 29.0111Z" fill="white"/>
<path d="M447.803 210.6C448.753 210.6 449.522 209.83 449.522 208.881C449.522 207.932 448.753 207.162 447.803 207.162C446.853 207.162 446.083 207.932 446.083 208.881C446.083 209.83 446.853 210.6 447.803 210.6Z" fill="white"/>
<path d="M453.452 210.559C454.402 210.559 455.172 209.789 455.172 208.84C455.172 207.891 454.402 207.121 453.452 207.121C452.503 207.121 451.733 207.891 451.733 208.84C451.733 209.789 452.503 210.559 453.452 210.559Z" fill="white"/>
<path d="M459.102 210.559C460.051 210.559 460.821 209.789 460.821 208.84C460.821 207.891 460.051 207.121 459.102 207.121C458.152 207.121 457.382 207.891 457.382 208.84C457.382 209.789 458.152 210.559 459.102 210.559Z" fill="white"/>
<path d="M417.673 299.941C418.396 299.941 418.983 299.355 418.983 298.631C418.983 297.908 418.396 297.322 417.673 297.322C416.949 297.322 416.363 297.908 416.363 298.631C416.363 299.355 416.949 299.941 417.673 299.941Z" fill="white"/>
<path d="M422.094 299.941C422.818 299.941 423.404 299.355 423.404 298.631C423.404 297.908 422.818 297.322 422.094 297.322C421.371 297.322 420.784 297.908 420.784 298.631C420.784 299.355 421.371 299.941 422.094 299.941Z" fill="white"/>
<path d="M426.434 299.941C427.157 299.941 427.744 299.355 427.744 298.631C427.744 297.908 427.157 297.322 426.434 297.322C425.71 297.322 425.124 297.908 425.124 298.631C425.124 299.355 425.71 299.941 426.434 299.941Z" fill="white"/>
<path d="M553.872 129.402C553.872 129.934 553.299 130.344 552.644 130.344H496.191C495.495 130.344 494.963 129.934 494.963 129.402C494.963 128.87 495.495 128.461 496.191 128.461H552.644C553.299 128.461 553.872 128.911 553.872 129.402Z" fill="white"/>
<path d="M553.954 134.027C553.954 134.559 553.422 134.969 552.726 134.969H496.273C495.618 134.969 495.045 134.559 495.045 134.027C495.045 133.495 495.618 133.086 496.273 133.086H552.726C553.422 133.086 553.954 133.495 553.954 134.027Z" fill="white"/>
<path d="M553.954 138.815C553.954 139.347 553.422 139.757 552.726 139.757H496.273C495.618 139.757 495.045 139.347 495.045 138.815C495.045 138.283 495.618 137.874 496.273 137.874H552.726C553.422 137.874 553.954 138.324 553.954 138.815Z" fill="white"/>
<path d="M554.2 143.522C554.2 144.054 553.667 144.463 552.971 144.463H496.519C495.823 144.463 495.291 144.054 495.291 143.522C495.291 142.99 495.823 142.581 496.519 142.581H552.971C553.626 142.581 554.2 143.031 554.2 143.522Z" fill="white"/>
</g>
<defs>
<filter id="filter0_d" x="-12" y="-18" width="715" height="502" filterUnits="userSpaceOnUse" color-interpolation-filters="sRGB">
<feFlood flood-opacity="0" result="BackgroundImageFix"/>
<feColorMatrix in="SourceAlpha" type="matrix" values="0 0 0 0 0 0 0 0 0 0 0 0 0 0 0 0 0 0 127 0" result="hardAlpha"/>
<feOffset dy="10"/>
<feGaussianBlur stdDeviation="15"/>
<feColorMatrix type="matrix" values="0 0 0 0 0 0 0 0 0 0 0 0 0 0 0 0 0 0 0.25 0"/>
<feBlend mode="normal" in2="BackgroundImageFix" result="effect1_dropShadow"/>
<feBlend mode="normal" in="SourceGraphic" in2="effect1_dropShadow" result="shape"/>
</filter>
<linearGradient id="paint0_linear" x1="288.871" y1="199.472" x2="298.36" y2="199.472" gradientUnits="userSpaceOnUse">
<stop stop-color="#71459B"/>
<stop offset="0.8668" stop-color="#A76DAE"/>
</linearGradient>
<linearGradient id="paint1_linear" x1="621.484" y1="126.329" x2="645.461" y2="126.329" gradientUnits="userSpaceOnUse">
<stop stop-color="#71459B"/>
<stop offset="0.8668" stop-color="#A76DAE"/>
</linearGradient>
<linearGradient id="paint2_linear" x1="369.161" y1="156.16" x2="393.137" y2="156.16" gradientUnits="userSpaceOnUse">
<stop stop-color="#71459B"/>
<stop offset="0.8668" stop-color="#A76DAE"/>
</linearGradient>
<linearGradient id="paint3_linear" x1="341.798" y1="66.678" x2="365.775" y2="66.678" gradientUnits="userSpaceOnUse">
<stop stop-color="#71459B"/>
<stop offset="0.8668" stop-color="#A76DAE"/>
</linearGradient>
<linearGradient id="paint4_linear" x1="260.684" y1="203.432" x2="284.661" y2="203.432" gradientUnits="userSpaceOnUse">
<stop stop-color="#71459B"/>
<stop offset="0.8668" stop-color="#A76DAE"/>
</linearGradient>
<linearGradient id="paint5_linear" x1="274.631" y1="185.865" x2="298.608" y2="185.865" gradientUnits="userSpaceOnUse">
<stop stop-color="#71459B"/>
<stop offset="0.8668" stop-color="#A76DAE"/>
</linearGradient>
<linearGradient id="paint6_linear" x1="530.704" y1="188.631" x2="554.681" y2="188.631" gradientUnits="userSpaceOnUse">
<stop stop-color="#7DD3F7"/>
<stop offset="1" stop-color="#43B5E8"/>
</linearGradient>
<linearGradient id="paint7_linear" x1="572.973" y1="264.128" x2="609.694" y2="264.128" gradientUnits="userSpaceOnUse">
<stop stop-color="#71459B"/>
<stop offset="0.8668" stop-color="#A76DAE"/>
</linearGradient>
<linearGradient id="paint8_linear" x1="345.309" y1="74.6354" x2="382.03" y2="74.6354" gradientUnits="userSpaceOnUse">
<stop stop-color="#71459B"/>
<stop offset="0.8668" stop-color="#A76DAE"/>
</linearGradient>
<linearGradient id="paint9_linear" x1="572.827" y1="251.217" x2="583.623" y2="251.217" gradientUnits="userSpaceOnUse">
<stop stop-color="#71459B"/>
<stop offset="0.8668" stop-color="#A76DAE"/>
</linearGradient>
<linearGradient id="paint10_linear" x1="370.692" y1="62.8647" x2="381.488" y2="62.8647" gradientUnits="userSpaceOnUse">
<stop stop-color="#71459B"/>
<stop offset="0.8668" stop-color="#A76DAE"/>
</linearGradient>
<linearGradient id="paint11_linear" x1="606.34" y1="296.728" x2="653.822" y2="296.728" gradientUnits="userSpaceOnUse">
<stop stop-color="#71459B"/>
<stop offset="0.8668" stop-color="#A76DAE"/>
</linearGradient>
<linearGradient id="paint12_linear" x1="615.389" y1="301.553" x2="662.872" y2="301.553" gradientUnits="userSpaceOnUse">
<stop stop-color="#71459B"/>
<stop offset="0.8668" stop-color="#A76DAE"/>
</linearGradient>
<linearGradient id="paint13_linear" x1="234.827" y1="274.465" x2="258.804" y2="274.465" gradientUnits="userSpaceOnUse">
<stop stop-color="#7DD3F7"/>
<stop offset="1" stop-color="#43B5E8"/>
</linearGradient>
<linearGradient id="paint14_linear" x1="466.917" y1="169.961" x2="476.25" y2="169.961" gradientUnits="userSpaceOnUse">
<stop stop-color="#7DD3F7"/>
<stop offset="1" stop-color="#43B5E8"/>
</linearGradient>
<linearGradient id="paint15_linear" x1="538.63" y1="196.685" x2="562.667" y2="196.685" gradientUnits="userSpaceOnUse">
<stop stop-color="#7DD3F7"/>
<stop offset="1" stop-color="#43B5E8"/>
</linearGradient>
<linearGradient id="paint16_linear" x1="466.311" y1="177.784" x2="490.347" y2="177.784" gradientUnits="userSpaceOnUse">
<stop stop-color="#7DD3F7"/>
<stop offset="1" stop-color="#43B5E8"/>
</linearGradient>
<linearGradient id="paint17_linear" x1="442.549" y1="181.302" x2="466.585" y2="181.302" gradientUnits="userSpaceOnUse">
<stop stop-color="#7DD3F7"/>
<stop offset="1" stop-color="#43B5E8"/>
</linearGradient>
<linearGradient id="paint18_linear" x1="271.814" y1="242.806" x2="295.851" y2="242.806" gradientUnits="userSpaceOnUse">
<stop stop-color="#7DD3F7"/>
<stop offset="1" stop-color="#43B5E8"/>
</linearGradient>
<linearGradient id="paint19_linear" x1="537.453" y1="179.296" x2="550.551" y2="179.296" gradientUnits="userSpaceOnUse">
<stop stop-color="#7DD3F7"/>
<stop offset="1" stop-color="#43B5E8"/>
</linearGradient>
<linearGradient id="paint20_linear" x1="230.633" y1="263.448" x2="243.731" y2="263.448" gradientUnits="userSpaceOnUse">
<stop stop-color="#7DD3F7"/>
<stop offset="1" stop-color="#43B5E8"/>
</linearGradient>
<linearGradient id="paint21_linear" x1="377.917" y1="148.04" x2="401.893" y2="148.04" gradientUnits="userSpaceOnUse">
<stop stop-color="#71459B"/>
<stop offset="0.8668" stop-color="#A76DAE"/>
</linearGradient>
<linearGradient id="paint22_linear" x1="261.765" y1="194.159" x2="285.742" y2="194.159" gradientUnits="userSpaceOnUse">
<stop stop-color="#71459B"/>
<stop offset="0.8668" stop-color="#A76DAE"/>
</linearGradient>
<linearGradient id="paint23_linear" x1="631.888" y1="89.1178" x2="655.865" y2="89.1178" gradientUnits="userSpaceOnUse">
<stop stop-color="#71459B"/>
<stop offset="0.8668" stop-color="#A76DAE"/>
</linearGradient>
<linearGradient id="paint24_linear" x1="639.273" y1="83.6781" x2="663.25" y2="83.6781" gradientUnits="userSpaceOnUse">
<stop stop-color="#71459B"/>
<stop offset="0.8668" stop-color="#A76DAE"/>
</linearGradient>
<linearGradient id="paint25_linear" x1="56.4434" y1="243.277" x2="92.2953" y2="243.277" gradientUnits="userSpaceOnUse">
<stop stop-color="#71459B"/>
<stop offset="0.8668" stop-color="#A76DAE"/>
</linearGradient>
<linearGradient id="paint26_linear" x1="118.736" y1="214.249" x2="70.8958" y2="204.313" gradientUnits="userSpaceOnUse">
<stop stop-color="#7DD3F7"/>
<stop offset="1" stop-color="#43B5E8"/>
</linearGradient>
<linearGradient id="paint27_linear" x1="194.821" y1="186.062" x2="109.152" y2="168.269" gradientUnits="userSpaceOnUse">
<stop stop-color="#7DD3F7"/>
<stop offset="1" stop-color="#43B5E8"/>
</linearGradient>
<linearGradient id="paint28_linear" x1="204.413" y1="179.003" x2="131.988" y2="163.961" gradientUnits="userSpaceOnUse">
<stop stop-color="#7DD3F7"/>
<stop offset="1" stop-color="#43B5E8"/>
</linearGradient>
<linearGradient id="paint29_linear" x1="187.817" y1="171.569" x2="160.091" y2="165.81" gradientUnits="userSpaceOnUse">
<stop stop-color="#7DD3F7"/>
<stop offset="1" stop-color="#43B5E8"/>
</linearGradient>
<linearGradient id="paint30_linear" x1="139.602" y1="251.41" x2="103.084" y2="243.825" gradientUnits="userSpaceOnUse">
<stop stop-color="#7DD3F7"/>
<stop offset="1" stop-color="#43B5E8"/>
</linearGradient>
<linearGradient id="paint31_linear" x1="43.2557" y1="282.879" x2="87.6314" y2="282.879" gradientUnits="userSpaceOnUse">
<stop stop-color="#71459B"/>
<stop offset="0.8668" stop-color="#A76DAE"/>
</linearGradient>
<linearGradient id="paint32_linear" x1="82.7193" y1="257.409" x2="128.282" y2="257.409" gradientUnits="userSpaceOnUse">
<stop stop-color="#71459B"/>
<stop offset="0.8668" stop-color="#A76DAE"/>
</linearGradient>
<linearGradient id="paint33_linear" x1="477.357" y1="232.367" x2="558.551" y2="232.367" gradientUnits="userSpaceOnUse">
<stop stop-color="#7DD3F7"/>
<stop offset="1" stop-color="#43B5E8"/>
</linearGradient>
<linearGradient id="paint34_linear" x1="447.006" y1="263.655" x2="473.083" y2="263.655" gradientUnits="userSpaceOnUse">
<stop stop-color="#7DD3F7"/>
<stop offset="1" stop-color="#43B5E8"/>
</linearGradient>
<linearGradient id="paint35_linear" x1="447.586" y1="53.8689" x2="540.781" y2="53.8689" gradientUnits="userSpaceOnUse">
<stop stop-color="#7DD3F7"/>
<stop offset="1" stop-color="#43B5E8"/>
</linearGradient>
<linearGradient id="paint36_linear" x1="416.967" y1="316.932" x2="503.396" y2="316.932" gradientUnits="userSpaceOnUse">
<stop stop-color="#7DD3F7"/>
<stop offset="1" stop-color="#43B5E8"/>
</linearGradient>
<linearGradient id="paint37_linear" x1="582.329" y1="86.6432" x2="582.309" y2="82.1899" gradientUnits="userSpaceOnUse">
<stop stop-color="white"/>
<stop offset="1" stop-color="#43B5E8"/>
</linearGradient>
<linearGradient id="paint38_linear" x1="576.881" y1="157.613" x2="592.037" y2="86.869" gradientUnits="userSpaceOnUse">
<stop stop-color="#7DD3F7"/>
<stop offset="1" stop-color="#43B5E8"/>
</linearGradient>
<linearGradient id="paint39_linear" x1="571.584" y1="283.797" x2="637.03" y2="283.797" gradientUnits="userSpaceOnUse">
<stop stop-color="#71459B"/>
<stop offset="0.8668" stop-color="#A76DAE"/>
</linearGradient>
<linearGradient id="paint40_linear" x1="514.078" y1="317.865" x2="580.448" y2="317.865" gradientUnits="userSpaceOnUse">
<stop stop-color="#7DD3F7"/>
<stop offset="1" stop-color="#43B5E8"/>
</linearGradient>
<linearGradient id="paint41_linear" x1="407.666" y1="167.766" x2="463.946" y2="167.766" gradientUnits="userSpaceOnUse">
<stop stop-color="#7DD3F7"/>
<stop offset="1" stop-color="#43B5E8"/>
</linearGradient>
</defs>
</svg>
