<svg width="605" height="407" viewBox="0 0 605 407" fill="none" xmlns="http://www.w3.org/2000/svg">
<g filter="url(#filter0_d)">
<path d="M407.096 313.842C407.096 314.897 406.266 315.726 405.209 315.726H207.663C206.606 315.726 205.775 314.897 205.775 313.842V95.9463C205.775 94.8911 206.606 94.062 207.663 94.062H405.209C406.266 94.062 407.096 94.8911 407.096 95.9463V313.842Z" fill="#808285"/>
<path d="M404.982 311.619C404.982 312.674 404.151 313.503 403.094 313.503H209.474C208.417 313.503 207.587 312.674 207.587 311.619V98.019C207.587 96.9638 208.417 96.1348 209.474 96.1348H403.094C404.151 96.1348 404.982 96.9638 404.982 98.019V311.619Z" fill="#B9E5FB"/>
<path d="M199.735 298.655C199.735 299.71 198.905 300.539 197.848 300.539H88.0706C87.0136 300.539 86.1831 299.71 86.1831 298.655V177.422C86.1831 176.367 87.0136 175.538 88.0706 175.538H197.848C198.905 175.538 199.735 176.367 199.735 177.422V298.655Z" fill="#E1F4FD"/>
<path d="M506.114 327.56C506.114 328.615 505.283 329.444 504.226 329.444H412.758C411.701 329.444 410.871 328.615 410.871 327.56V226.45C410.871 225.395 411.701 224.566 412.758 224.566H504.226C505.283 224.566 506.114 225.395 506.114 226.45V327.56Z" fill="#E1F4FD"/>
<path d="M484.596 215.71C484.596 216.765 483.766 217.594 482.709 217.594H412.758C411.701 217.594 410.871 216.765 410.871 215.71V116.937C410.871 115.882 411.701 115.053 412.758 115.053H482.709C483.766 115.053 484.596 115.882 484.596 116.937V215.71Z" fill="#C9EBFC"/>
<path d="M199.282 167.36C199.282 168.415 198.451 169.244 197.394 169.244H127.444C126.387 169.244 125.556 168.415 125.556 167.36V89.917C125.556 88.8618 126.387 88.0327 127.444 88.0327H197.394C198.451 88.0327 199.282 88.8618 199.282 89.917V167.36Z" fill="#CCECFC"/>
<path d="M76.821 217.594C76.821 218.649 75.9905 219.478 74.9335 219.478H39.4485C38.3915 219.478 37.561 218.649 37.561 217.594V178.1C37.561 177.045 38.3915 176.216 39.4485 176.216H74.9335C75.9905 176.216 76.821 177.045 76.821 178.1V217.594Z" fill="#BFE7FB"/>
<path d="M119.479 127.149C119.479 128.205 118.648 129.034 117.591 129.034H99.4334C98.3764 129.034 97.5459 128.205 97.5459 127.149V106.762C97.5459 105.707 98.3764 104.877 99.4334 104.877H117.591C118.648 104.877 119.479 105.707 119.479 106.762V127.149Z" fill="url(#paint0_linear)"/>
<path d="M198.074 329.368C198.074 330.423 197.244 331.252 196.187 331.252H178.029C176.972 331.252 176.142 330.423 176.142 329.368V308.98C176.142 307.925 176.972 307.096 178.029 307.096H196.187C197.244 307.096 198.074 307.925 198.074 308.98V329.368Z" fill="#E1F4FD"/>
<path d="M537.22 254.299C537.22 255.354 536.389 256.184 535.332 256.184H517.175C516.118 256.184 515.287 255.354 515.287 254.299V233.912C515.287 232.856 516.118 232.027 517.175 232.027H535.332C536.389 232.027 537.22 232.856 537.22 233.912V254.299Z" fill="#B9E5FB"/>
<path d="M326.009 88.5978C326.009 89.6529 325.178 90.482 324.121 90.482H291.845C290.788 90.482 289.958 89.6529 289.958 88.5978V58.4873C289.958 57.4321 290.788 56.603 291.845 56.603H324.121C325.178 56.603 326.009 57.4321 326.009 58.4873V88.5978Z" fill="#E1F4FD"/>
<path d="M404.642 353.299C404.642 354.354 403.812 355.183 402.755 355.183H345.412C344.355 355.183 343.525 354.354 343.525 353.299V320.173C343.525 319.118 344.355 318.289 345.412 318.289H402.755C403.812 318.289 404.642 319.118 404.642 320.173V353.299Z" fill="#CFEDFC"/>
<path d="M281.464 87.6557C281.464 88.7109 280.634 89.54 279.577 89.54H261.419C260.362 89.54 259.531 88.7109 259.531 87.6557V67.268C259.531 66.2129 260.362 65.3838 261.419 65.3838H279.577C280.634 65.3838 281.464 66.2129 281.464 67.268V87.6557Z" fill="#D1EEFC"/>
<path d="M516.382 164.571C516.382 165.626 515.552 166.455 514.495 166.455H492.487C491.43 166.455 490.599 165.626 490.599 164.571V128.996C490.599 127.941 491.43 127.112 492.487 127.112H514.495C515.552 127.112 516.382 127.941 516.382 128.996V164.571Z" fill="#E1F4FD"/>
<path d="M579.764 218.951C579.764 220.006 578.934 220.835 577.877 220.835H559.719C558.662 220.835 557.832 220.006 557.832 218.951V198.563C557.832 197.508 558.662 196.679 559.719 196.679H577.877C578.934 196.679 579.764 197.508 579.764 198.563V218.951Z" fill="#808285"/>
<path d="M406.492 89.7285C406.492 90.7837 405.661 91.6127 404.604 91.6127H339.259C338.202 91.6127 337.372 90.7837 337.372 89.7285V69.9814C337.372 68.9262 338.202 68.0972 339.259 68.0972H404.604C405.661 68.0972 406.492 68.9262 406.492 69.9814V89.7285Z" fill="#E1F4FD"/>
<path d="M463.91 109.174C463.91 110.229 463.079 111.058 462.022 111.058H414.382C413.325 111.058 412.494 110.229 412.494 109.174V94.2129C412.494 93.1577 413.325 92.3286 414.382 92.3286H462.022C463.079 92.3286 463.91 93.1577 463.91 94.2129V109.174Z" fill="#E6E7E8"/>
<path d="M462.777 352.281C462.777 353.336 461.946 354.165 460.889 354.165H413.249C412.192 354.165 411.361 353.336 411.361 352.281V337.32C411.361 336.265 412.192 335.436 413.249 335.436H460.889C461.946 335.436 462.777 336.265 462.777 337.32V352.281Z" fill="#E1F4FD"/>
<path d="M335.673 340.335C335.673 341.39 334.842 342.219 333.785 342.219H286.145C285.088 342.219 284.257 341.39 284.257 340.335V325.374C284.257 324.318 285.088 323.489 286.145 323.489H333.785C334.842 323.489 335.673 324.318 335.673 325.374V340.335Z" fill="#E1F4FD"/>
<path d="M254.208 89.9923C254.208 91.0474 253.378 91.8765 252.321 91.8765H204.68C203.623 91.8765 202.793 91.0474 202.793 89.9923V73.9761C202.793 72.9209 203.623 72.0918 204.68 72.0918H252.321C253.378 72.0918 254.208 72.9209 254.208 73.9761V89.9923Z" fill="#939598"/>
<path d="M279.501 363.813C279.501 364.868 278.67 365.697 277.613 365.697H209.965C208.908 365.697 208.078 364.868 208.078 363.813V319.721C208.078 318.666 208.908 317.837 209.965 317.837H277.613C278.67 317.837 279.501 318.666 279.501 319.721V363.813Z" fill="#C4E9FB"/>
<path d="M118.762 167.209C118.762 168.264 117.931 169.093 116.874 169.093H56.8138C55.7568 169.093 54.9263 168.264 54.9263 167.209V134.159C54.9263 133.104 55.7568 132.275 56.8138 132.275H116.874C117.931 132.275 118.762 133.104 118.762 134.159V167.209Z" fill="#E6E7E8"/>
<path d="M552.735 219.29C552.735 220.345 551.905 221.175 550.848 221.175H490.523C489.466 221.175 488.636 220.345 488.636 219.29V175.236C488.636 174.181 489.466 173.352 490.523 173.352H550.848C551.905 173.352 552.735 174.181 552.735 175.236V219.29Z" fill="#E1F4FD"/>
<path d="M305.699 171.166L305.812 102.88L292.676 132.124L281.426 110.154L274.216 130.843L260.437 111.171L264.59 172.673C264.59 172.711 287.277 171.241 305.699 171.166Z" fill="url(#paint1_linear)"/>
<path d="M305.624 171.166L305.775 102.88L318.798 132.199L330.123 110.304L337.22 131.031L351.112 111.397L346.733 172.899C346.771 172.899 324.083 171.317 305.624 171.166Z" fill="url(#paint2_linear)"/>
<path d="M305.699 174.934C328.508 174.934 346.998 173.922 346.998 172.673C346.998 171.424 328.508 170.412 305.699 170.412C282.891 170.412 264.401 171.424 264.401 172.673C264.401 173.922 282.891 174.934 305.699 174.934Z" fill="url(#paint3_linear)"/>
<path d="M392.902 186.014C392.902 187.069 392.071 187.898 391.014 187.898H223.367C222.31 187.898 221.479 187.069 221.479 186.014V185.185C221.479 184.13 222.31 183.301 223.367 183.301H391.014C392.071 183.301 392.902 184.13 392.902 185.185V186.014Z" fill="url(#paint4_linear)"/>
<path d="M392.902 195.888C392.902 196.943 392.071 197.772 391.014 197.772H223.367C222.31 197.772 221.479 196.943 221.479 195.888V195.059C221.479 194.003 222.31 193.174 223.367 193.174H391.014C392.071 193.174 392.902 194.003 392.902 195.059V195.888Z" fill="url(#paint5_linear)"/>
<path d="M392.599 207.08C392.599 208.135 391.769 208.964 390.712 208.964H223.064C222.007 208.964 221.177 208.135 221.177 207.08V206.251C221.177 205.196 222.007 204.367 223.064 204.367H390.712C391.769 204.367 392.599 205.196 392.599 206.251V207.08Z" fill="url(#paint6_linear)"/>
<g opacity="0.75">
<g opacity="0.75">
<path opacity="0.75" d="M192.374 187.446C192.374 188.426 191.544 189.255 190.487 189.255H98.1878C97.1308 189.255 96.3003 188.464 96.3003 187.446C96.3003 186.466 97.1685 185.637 98.1878 185.637H190.487C191.544 185.637 192.374 186.429 192.374 187.446Z" fill="url(#paint7_linear)"/>
</g>
<g opacity="0.75">
<path opacity="0.75" d="M192.374 195.134C192.374 196.114 191.544 196.943 190.487 196.943H98.1878C97.1308 196.943 96.3003 196.152 96.3003 195.134C96.3003 194.154 97.1685 193.325 98.1878 193.325H190.487C191.544 193.325 192.374 194.154 192.374 195.134Z" fill="url(#paint8_linear)"/>
</g>
<g opacity="0.75">
<path opacity="0.75" d="M192.185 203.802C192.185 204.781 191.355 205.61 190.298 205.61H97.9988C96.9418 205.61 96.1113 204.819 96.1113 203.802C96.1113 202.822 96.9418 201.993 97.9988 201.993H190.298C191.355 202.03 192.185 202.822 192.185 203.802Z" fill="url(#paint9_linear)"/>
</g>
</g>
<path d="M191.884 218.763C191.884 219.743 191.053 220.572 189.996 220.572H97.66C96.603 220.572 95.7725 219.78 95.7725 218.763C95.7725 217.783 96.603 216.954 97.66 216.954H189.959C191.016 216.992 191.884 217.783 191.884 218.763Z" fill="url(#paint10_linear)"/>
<path d="M191.883 226.451C191.883 227.431 191.052 228.26 189.995 228.26H97.659C96.602 228.26 95.7715 227.469 95.7715 226.451C95.7715 225.471 96.602 224.642 97.659 224.642H189.958C191.015 224.68 191.883 225.471 191.883 226.451Z" fill="url(#paint11_linear)"/>
<path d="M191.694 235.156C191.694 236.136 190.864 236.965 189.807 236.965H97.5081C96.4511 236.965 95.6206 236.174 95.6206 235.156C95.6206 234.176 96.4511 233.347 97.5081 233.347H189.807C190.864 233.347 191.694 234.176 191.694 235.156Z" fill="url(#paint12_linear)"/>
<path d="M194.639 144.975C194.639 145.842 193.808 146.558 192.751 146.558H131.332C130.275 146.558 129.444 145.842 129.444 144.975C129.444 144.109 130.275 143.393 131.332 143.393H192.713C193.77 143.393 194.639 144.109 194.639 144.975Z" fill="url(#paint13_linear)"/>
<path d="M194.79 152.324C194.79 153.19 193.959 153.906 192.902 153.906H131.521C130.464 153.906 129.633 153.19 129.633 152.324C129.633 151.457 130.464 150.741 131.521 150.741H192.902C193.959 150.741 194.79 151.457 194.79 152.324Z" fill="url(#paint14_linear)"/>
<path d="M194.488 159.484C194.488 160.351 193.657 161.067 192.6 161.067H131.219C130.162 161.067 129.331 160.351 129.331 159.484C129.331 158.617 130.162 157.901 131.219 157.901H192.6C193.657 157.901 194.488 158.58 194.488 159.484Z" fill="url(#paint15_linear)"/>
<path d="M113.816 144.335C113.816 145.051 112.985 145.616 111.928 145.616H62.5135C61.4565 145.616 60.626 145.051 60.626 144.335C60.626 143.619 61.4565 143.053 62.5135 143.053H111.928C112.985 143.053 113.816 143.619 113.816 144.335Z" fill="url(#paint16_linear)"/>
<path d="M113.816 138.343C113.816 139.059 112.985 139.624 111.928 139.624H62.5135C61.4565 139.624 60.626 139.059 60.626 138.343C60.626 137.627 61.4565 137.062 62.5135 137.062H111.928C112.985 137.062 113.816 137.627 113.816 138.343Z" fill="url(#paint17_linear)"/>
<path d="M114.005 150.251C114.005 150.967 113.174 151.532 112.117 151.532H62.7024C61.6454 151.532 60.8149 150.967 60.8149 150.251C60.8149 149.535 61.6454 148.97 62.7024 148.97H112.117C113.136 148.97 114.005 149.535 114.005 150.251Z" fill="url(#paint18_linear)"/>
<path d="M113.702 156.168C113.702 156.884 112.872 157.449 111.815 157.449H62.4002C61.3432 157.449 60.5127 156.884 60.5127 156.168C60.5127 155.452 61.3432 154.886 62.4002 154.886H111.815C112.872 154.886 113.702 155.452 113.702 156.168Z" fill="url(#paint19_linear)"/>
<path d="M113.627 162.046C113.627 162.762 112.797 163.328 111.74 163.328H62.325C61.268 163.328 60.4375 162.762 60.4375 162.046C60.4375 161.33 61.268 160.765 62.325 160.765H111.74C112.759 160.765 113.627 161.33 113.627 162.046Z" fill="url(#paint20_linear)"/>
<path d="M397.62 74.6924C397.62 75.4085 396.79 75.9737 395.733 75.9737H346.318C345.261 75.9737 344.431 75.4085 344.431 74.6924C344.431 73.9764 345.261 73.4111 346.318 73.4111H395.733C396.752 73.4111 397.62 73.9764 397.62 74.6924Z" fill="url(#paint21_linear)"/>
<path d="M397.62 80.2698C397.62 80.9858 396.79 81.5511 395.733 81.5511H346.318C345.261 81.5511 344.431 80.9858 344.431 80.2698C344.431 79.5538 345.261 78.9885 346.318 78.9885H395.733C396.752 78.9508 397.62 79.5538 397.62 80.2698Z" fill="url(#paint22_linear)"/>
<path d="M397.659 85.7339C397.659 86.4499 396.828 87.0152 395.771 87.0152H346.356C345.299 87.0152 344.469 86.4499 344.469 85.7339C344.469 85.0179 345.299 84.4526 346.356 84.4526H395.771C396.828 84.4526 397.659 85.0179 397.659 85.7339Z" fill="url(#paint23_linear)"/>
<path d="M396.186 339.468C396.186 340.184 395.355 340.75 394.298 340.75H352.169C351.112 340.75 350.282 340.184 350.282 339.468C350.282 338.752 351.112 338.187 352.169 338.187H394.298C395.355 338.187 396.186 338.752 396.186 339.468Z" fill="url(#paint24_linear)"/>
<path d="M396.186 344.556C396.186 345.272 395.355 345.837 394.298 345.837H352.169C351.112 345.837 350.282 345.272 350.282 344.556C350.282 343.84 351.112 343.274 352.169 343.274H394.298C395.355 343.274 396.186 343.877 396.186 344.556Z" fill="url(#paint25_linear)"/>
<path d="M396.186 349.907C396.186 350.623 395.355 351.189 394.298 351.189H352.169C351.112 351.189 350.282 350.623 350.282 349.907C350.282 349.191 351.112 348.626 352.169 348.626H394.298C395.355 348.626 396.186 349.191 396.186 349.907Z" fill="url(#paint26_linear)"/>
<path d="M545.449 182.02C545.449 182.736 544.619 183.301 543.562 183.301H494.147C493.09 183.301 492.26 182.736 492.26 182.02C492.26 181.304 493.09 180.738 494.147 180.738H543.562C544.581 180.738 545.449 181.304 545.449 182.02Z" fill="url(#paint27_linear)"/>
<path d="M545.299 187.861C545.299 188.577 544.468 189.142 543.411 189.142H493.996C492.939 189.142 492.109 188.577 492.109 187.861C492.109 187.145 492.939 186.58 493.996 186.58H543.411C544.43 186.58 545.299 187.145 545.299 187.861Z" fill="url(#paint28_linear)"/>
<path d="M545.336 193.853C545.336 194.569 544.506 195.134 543.449 195.134H494.034C492.977 195.134 492.146 194.569 492.146 193.853C492.146 193.137 492.977 192.571 494.034 192.571H543.449C544.506 192.571 545.336 193.137 545.336 193.853Z" fill="url(#paint29_linear)"/>
<path d="M393.241 260.028C393.241 261.083 392.411 261.913 391.354 261.913H223.706C222.649 261.913 221.818 261.083 221.818 260.028V259.199C221.818 258.144 222.649 257.315 223.706 257.315H391.354C392.411 257.315 393.241 258.144 393.241 259.199V260.028Z" fill="url(#paint30_linear)"/>
<path d="M393.241 269.902C393.241 270.957 392.411 271.786 391.354 271.786H223.706C222.649 271.786 221.818 270.957 221.818 269.902V269.073C221.818 268.018 222.649 267.188 223.706 267.188H391.354C392.411 267.188 393.241 268.018 393.241 269.073V269.902Z" fill="url(#paint31_linear)"/>
<path d="M392.902 281.057C392.902 282.112 392.071 282.941 391.014 282.941H223.367C222.31 282.941 221.479 282.112 221.479 281.057V280.228C221.479 279.172 222.31 278.343 223.367 278.343H391.014C392.071 278.343 392.902 279.172 392.902 280.228V281.057Z" fill="url(#paint32_linear)"/>
<path d="M297.583 248.27C297.583 249.325 296.752 250.154 295.695 250.154H224.008C222.951 250.154 222.121 249.325 222.121 248.27V219.629C222.121 218.574 222.951 217.745 224.008 217.745H295.658C296.715 217.745 297.545 218.574 297.545 219.629V248.27H297.583Z" fill="url(#paint33_linear)"/>
<g opacity="0.75">
<path opacity="0.75" d="M193.053 286.671C193.053 287.727 192.223 288.556 191.166 288.556H97.9988C96.9418 288.556 96.1113 287.727 96.1113 286.671V253.433C96.1113 252.378 96.9418 251.549 97.9988 251.549H191.166C192.223 251.549 193.053 252.378 193.053 253.433V286.671Z" fill="url(#paint34_linear)"/>
</g>
<path d="M496.375 322.661C496.375 323.716 495.544 324.545 494.487 324.545H462.475C461.418 324.545 460.588 323.716 460.588 322.661V235.495C460.588 234.44 461.418 233.611 462.475 233.611H494.487C495.544 233.611 496.375 234.44 496.375 235.495V322.661Z" fill="#C7C8CA"/>
<g opacity="0.75">
<path opacity="0.75" d="M396.979 333.1C396.979 334.155 396.148 334.984 395.091 334.984H351.566C350.509 334.984 349.678 334.155 349.678 333.1V324.432C349.678 323.377 350.509 322.548 351.566 322.548H395.129C396.186 322.548 397.017 323.377 397.017 324.432V333.1H396.979Z" fill="url(#paint35_linear)"/>
</g>
<g opacity="0.75">
<path opacity="0.75" d="M546.846 212.469C546.846 213.524 546.016 214.354 544.959 214.354H493.996C492.939 214.354 492.109 213.524 492.109 212.469V201.088C492.109 200.033 492.939 199.204 493.996 199.204H544.959C546.016 199.204 546.846 200.033 546.846 201.088V212.469Z" fill="url(#paint36_linear)"/>
</g>
<path d="M195.469 136.044C195.469 137.099 194.639 137.928 193.582 137.928H164.514C163.457 137.928 162.627 137.099 162.627 136.044V94.7783C162.627 93.7231 163.457 92.894 164.514 92.894H193.582C194.639 92.894 195.469 93.7231 195.469 94.7783V136.044Z" fill="#C7C8CA"/>
<path d="M160.739 136.044C160.739 137.099 159.909 137.928 158.852 137.928H130.313C129.256 137.928 128.425 137.099 128.425 136.044V94.7783C128.425 93.7231 129.256 92.894 130.313 92.894H158.852C159.909 92.894 160.739 93.7231 160.739 94.7783V136.044Z" fill="#C7C8CA"/>
<path d="M157.38 110.832C157.38 111.887 156.549 112.716 155.492 112.716H133.559C132.502 112.716 131.672 111.887 131.672 110.832V98.1699C131.672 97.1147 132.502 96.2856 133.559 96.2856H155.492C156.549 96.2856 157.38 97.1147 157.38 98.1699V110.832Z" fill="#F1F2F2"/>
<path d="M191.619 111.247C191.619 112.302 190.788 113.131 189.731 113.131H167.799C166.742 113.131 165.911 112.302 165.911 111.247V98.5845C165.911 97.5293 166.742 96.7002 167.799 96.7002H189.731C190.788 96.7002 191.619 97.5293 191.619 98.5845V111.247Z" fill="white"/>
<path d="M220.196 87.4299C220.196 88.4851 219.365 89.3141 218.308 89.3141H206.908C205.851 89.3141 205.02 88.4851 205.02 87.4299V76.1997C205.02 75.1445 205.851 74.3154 206.908 74.3154H218.308C219.365 74.3154 220.196 75.1445 220.196 76.1997V87.4299Z" fill="white"/>
<path d="M252.585 87.4299C252.585 88.4851 251.755 89.3141 250.698 89.3141H224.197C223.14 89.3141 222.31 88.4851 222.31 87.4299V76.1997C222.31 75.1445 223.14 74.3154 224.197 74.3154H250.698C251.755 74.3154 252.585 75.1445 252.585 76.1997V87.4299Z" fill="white"/>
<path d="M446.846 107.328C446.846 108.383 446.016 109.212 444.959 109.212H416.76C415.703 109.212 414.872 108.383 414.872 107.328V96.4365C414.872 95.3813 415.703 94.5522 416.76 94.5522H444.959C446.016 94.5522 446.846 95.3813 446.846 96.4365V107.328Z" fill="white"/>
<path d="M462.173 107.252C462.173 108.307 461.343 109.137 460.286 109.137H449.98C448.923 109.137 448.092 108.307 448.092 107.252V96.3613C448.092 95.3061 448.923 94.4771 449.98 94.4771H460.286C461.343 94.4771 462.173 95.3061 462.173 96.3613V107.252Z" fill="white"/>
<path d="M457.379 321.191C457.379 322.246 456.548 323.075 455.491 323.075H419.818C418.761 323.075 417.93 322.246 417.93 321.191V272.125C417.93 271.07 418.761 270.241 419.818 270.241H455.491C456.548 270.241 457.379 271.07 457.379 272.125V321.191Z" fill="white"/>
<path d="M457.983 347.646C457.983 348.701 457.152 349.53 456.095 349.53H417.703C416.646 349.53 415.816 348.701 415.816 347.646V341.428C415.816 340.373 416.646 339.544 417.703 339.544H456.095C457.152 339.544 457.983 340.373 457.983 341.428V347.646Z" fill="white"/>
<path d="M331.067 335.436C331.067 336.491 330.237 337.321 329.18 337.321H290.788C289.731 337.321 288.9 336.491 288.9 335.436V329.218C288.9 328.163 289.731 327.334 290.788 327.334H329.18C330.237 327.334 331.067 328.163 331.067 329.218V335.436Z" fill="white"/>
<path d="M273.536 359.743C273.536 360.798 272.706 361.627 271.649 361.627H214.986C213.929 361.627 213.099 360.798 213.099 359.743V323.301C213.099 322.246 213.929 321.417 214.986 321.417H271.649C272.706 321.417 273.536 322.246 273.536 323.301V359.743Z" fill="white"/>
<path d="M491.392 252.34C491.392 253.396 490.561 254.225 489.504 254.225H467.572C466.515 254.225 465.684 253.396 465.684 252.34V239.678C465.684 238.623 466.515 237.794 467.572 237.794H489.504C490.561 237.794 491.392 238.623 491.392 239.678V252.34Z" fill="white"/>
<path d="M491.09 282.865C491.09 283.92 490.259 284.75 489.202 284.75H467.269C466.212 284.75 465.382 283.92 465.382 282.865V270.203C465.382 269.148 466.212 268.319 467.269 268.319H489.202C490.259 268.319 491.09 269.148 491.09 270.203V282.865Z" fill="white"/>
<path d="M491.09 314.182C491.09 315.237 490.259 316.066 489.202 316.066H467.269C466.212 316.066 465.382 315.237 465.382 314.182V301.52C465.382 300.464 466.212 299.635 467.269 299.635H489.202C490.259 299.635 491.09 300.464 491.09 301.52V314.182Z" fill="white"/>
<path d="M491.241 257.277C491.241 257.805 490.75 258.219 490.108 258.219H466.665C466.061 258.219 465.533 257.805 465.533 257.277C465.533 256.749 466.061 256.335 466.665 256.335H490.108C490.712 256.335 491.241 256.787 491.241 257.277Z" fill="white"/>
<path d="M157.266 117.503C157.266 118.03 156.738 118.445 156.134 118.445H132.691C132.087 118.445 131.559 118.03 131.559 117.503C131.559 116.975 132.087 116.561 132.691 116.561H156.134C156.776 116.561 157.266 116.975 157.266 117.503Z" fill="white"/>
<path d="M153.114 108.797C153.114 109.136 152.774 109.4 152.359 109.4H136.994C136.579 109.4 136.239 109.136 136.239 108.797C136.239 108.458 136.579 108.194 136.994 108.194H152.359C152.774 108.194 153.114 108.458 153.114 108.797Z" fill="url(#paint37_linear)"/>
<path d="M187.579 108.722C187.579 109.061 187.24 109.325 186.824 109.325H171.46C171.045 109.325 170.705 109.061 170.705 108.722C170.705 108.383 171.045 108.119 171.46 108.119H186.824C187.24 108.081 187.579 108.383 187.579 108.722Z" fill="url(#paint38_linear)"/>
<path d="M422.837 106.122C422.837 107.177 422.007 108.006 420.95 108.006H418.081C417.024 108.006 416.193 107.177 416.193 106.122V97.4165C416.193 96.3613 417.024 95.5322 418.081 95.5322H420.95C422.007 95.5322 422.837 96.3613 422.837 97.4165V106.122Z" fill="url(#paint39_linear)"/>
<path d="M445.336 96.663C445.336 96.9268 444.997 97.1529 444.581 97.1529H425.14C424.725 97.1529 424.385 96.9268 424.385 96.663C424.385 96.3992 424.725 96.1731 425.14 96.1731H444.581C444.997 96.1354 445.336 96.3615 445.336 96.663Z" fill="url(#paint40_linear)"/>
<path d="M445.336 98.8861C445.336 99.1499 444.997 99.376 444.581 99.376H425.14C424.725 99.376 424.385 99.1499 424.385 98.8861C424.385 98.6223 424.725 98.3962 425.14 98.3962H444.581C444.997 98.3585 445.336 98.5846 445.336 98.8861Z" fill="url(#paint41_linear)"/>
<path d="M445.336 101.11C445.336 101.373 444.997 101.599 444.581 101.599H425.14C424.725 101.599 424.385 101.373 424.385 101.11C424.385 100.846 424.725 100.62 425.14 100.62H444.581C444.997 100.62 445.336 100.846 445.336 101.11Z" fill="url(#paint42_linear)"/>
<path d="M445.375 103.597C445.375 103.861 445.035 104.087 444.62 104.087H425.178C424.763 104.087 424.423 103.861 424.423 103.597C424.423 103.333 424.763 103.107 425.178 103.107H444.62C445.035 103.069 445.375 103.296 445.375 103.597Z" fill="url(#paint43_linear)"/>
<path d="M445.299 105.933C445.299 106.197 444.959 106.423 444.544 106.423H425.103C424.687 106.423 424.348 106.197 424.348 105.933C424.348 105.67 424.687 105.444 425.103 105.444H444.544C444.959 105.406 445.299 105.632 445.299 105.933Z" fill="url(#paint44_linear)"/>
<path d="M455.755 105.896C455.755 106.951 454.925 107.78 453.868 107.78H450.999C449.942 107.78 449.111 106.951 449.111 105.896V97.1904C449.111 96.1729 449.942 95.3062 450.999 95.3062H453.868C454.925 95.3062 455.755 96.1352 455.755 97.1904V105.896Z" fill="url(#paint45_linear)"/>
<path d="M191.694 117.503C191.694 118.03 191.166 118.445 190.562 118.445H167.119C166.515 118.445 165.986 118.03 165.986 117.503C165.986 116.975 166.515 116.561 167.119 116.561H190.562C191.203 116.561 191.694 116.975 191.694 117.503Z" fill="white"/>
<path d="M191.694 121.535C191.694 122.062 191.166 122.477 190.562 122.477H167.119C166.515 122.477 165.986 122.062 165.986 121.535C165.986 121.007 166.515 120.593 167.119 120.593H190.562C191.203 120.593 191.694 121.007 191.694 121.535Z" fill="white"/>
<path d="M191.694 125.906C191.694 126.434 191.166 126.849 190.562 126.849H167.119C166.515 126.849 165.986 126.434 165.986 125.906C165.986 125.379 166.515 124.964 167.119 124.964H190.562C191.203 124.964 191.694 125.417 191.694 125.906Z" fill="white"/>
<path d="M191.543 130.127C191.543 130.655 191.015 131.069 190.411 131.069H166.968C166.326 131.069 165.835 130.655 165.835 130.127C165.835 129.6 166.326 129.185 166.968 129.185H190.411C191.015 129.185 191.543 129.6 191.543 130.127Z" fill="white"/>
<path d="M157.191 121.611C157.191 122.138 156.662 122.553 156.058 122.553H132.615C132.011 122.553 131.483 122.138 131.483 121.611C131.483 121.083 132.011 120.668 132.615 120.668H156.058C156.7 120.668 157.191 121.121 157.191 121.611Z" fill="white"/>
<path d="M157.38 125.756C157.38 126.283 156.851 126.698 156.247 126.698H132.804C132.2 126.698 131.672 126.283 131.672 125.756C131.672 125.228 132.2 124.813 132.804 124.813H156.247C156.851 124.813 157.38 125.228 157.38 125.756Z" fill="white"/>
<path d="M157.266 129.977C157.266 130.504 156.738 130.919 156.134 130.919H132.691C132.087 130.919 131.559 130.504 131.559 129.977C131.559 129.449 132.087 129.034 132.691 129.034H156.134C156.776 128.997 157.266 129.449 157.266 129.977Z" fill="white"/>
<path d="M185.428 258.521C185.428 259.048 184.899 259.463 184.295 259.463H132.615C132.011 259.463 131.483 259.048 131.483 258.521C131.483 257.993 132.011 257.579 132.615 257.579H184.295C184.937 257.579 185.428 257.993 185.428 258.521Z" fill="white"/>
<path d="M185.428 262.779C185.428 263.307 184.899 263.721 184.295 263.721H132.615C132.011 263.721 131.483 263.307 131.483 262.779C131.483 262.251 132.011 261.837 132.615 261.837H184.295C184.937 261.837 185.428 262.251 185.428 262.779Z" fill="white"/>
<path d="M185.428 267.038C185.428 267.565 184.899 267.98 184.295 267.98H132.615C132.011 267.98 131.483 267.565 131.483 267.038C131.483 266.51 132.011 266.096 132.615 266.096H184.295C184.937 266.096 185.428 266.548 185.428 267.038Z" fill="white"/>
<path d="M185.428 274.499C185.428 275.027 184.899 275.441 184.295 275.441H132.615C132.011 275.441 131.483 275.027 131.483 274.499C131.483 273.972 132.011 273.557 132.615 273.557H184.295C184.937 273.557 185.428 274.009 185.428 274.499Z" fill="white"/>
<path d="M185.579 279.059C185.579 279.586 185.05 280.001 184.446 280.001H132.766C132.162 280.001 131.634 279.586 131.634 279.059C131.634 278.531 132.162 278.117 132.766 278.117H184.446C185.05 278.117 185.579 278.531 185.579 279.059Z" fill="white"/>
<path d="M185.579 283.695C185.579 284.222 185.05 284.637 184.446 284.637H132.766C132.162 284.637 131.634 284.222 131.634 283.695C131.634 283.167 132.162 282.752 132.766 282.752H184.446C185.05 282.752 185.579 283.205 185.579 283.695Z" fill="white"/>
<path d="M491.241 261.046C491.241 261.573 490.75 261.988 490.108 261.988H466.665C466.061 261.988 465.533 261.573 465.533 261.046C465.533 260.518 466.061 260.104 466.665 260.104H490.108C490.712 260.104 491.241 260.518 491.241 261.046Z" fill="white"/>
<path d="M491.09 296.243C491.09 296.771 490.599 297.186 489.957 297.186H466.514C465.873 297.186 465.382 296.771 465.382 296.243C465.382 295.716 465.873 295.301 466.514 295.301H489.957C490.561 295.301 491.09 295.716 491.09 296.243Z" fill="white"/>
<path d="M491.392 264.927C491.392 265.455 490.901 265.869 490.259 265.869H466.817C466.175 265.869 465.684 265.455 465.684 264.927C465.684 264.399 466.175 263.985 466.817 263.985H490.259C490.863 263.985 491.392 264.399 491.392 264.927Z" fill="white"/>
<path d="M491.09 292.174C491.09 292.701 490.599 293.116 489.957 293.116H466.514C465.873 293.116 465.382 292.701 465.382 292.174C465.382 291.646 465.873 291.231 466.514 291.231H489.957C490.561 291.231 491.09 291.684 491.09 292.174Z" fill="white"/>
<path d="M491.09 287.99C491.09 288.518 490.599 288.933 489.957 288.933H466.514C465.873 288.933 465.382 288.518 465.382 287.99C465.382 287.463 465.873 287.048 466.514 287.048H489.957C490.561 287.048 491.09 287.463 491.09 287.99Z" fill="white"/>
<path d="M480.444 211.527C480.444 212.583 479.613 213.412 478.556 213.412H437.182C436.125 213.412 435.295 212.583 435.295 211.527V121.724C435.295 120.668 436.125 119.839 437.182 119.839H478.556C479.613 119.839 480.444 120.668 480.444 121.724V211.527Z" fill="#F1F2F2"/>
<g opacity="0.75">
<path opacity="0.75" d="M431.143 210.924C431.143 211.979 430.312 212.808 429.255 212.808H417.175C416.118 212.808 415.288 211.979 415.288 210.924V121.686C415.288 120.63 416.118 119.801 417.175 119.801H429.255C430.312 119.801 431.143 120.63 431.143 121.686V210.924Z" fill="url(#paint46_linear)"/>
</g>
<path d="M478.255 209.568C478.255 210.623 477.424 211.452 476.367 211.452H439.523C438.466 211.452 437.636 210.623 437.636 209.568V152.475C437.636 151.419 438.466 150.59 439.523 150.59H476.367C477.424 150.59 478.255 151.419 478.255 152.475V209.568Z" fill="url(#paint47_linear)"/>
<path d="M390.297 248.571C390.297 249.627 389.467 250.456 388.41 250.456H316.76C315.703 250.456 314.873 249.627 314.873 248.571V219.931C314.873 218.875 315.703 218.046 316.76 218.046H388.41C389.467 218.046 390.297 218.875 390.297 219.931V248.571Z" fill="url(#paint48_linear)"/>
<path d="M307.247 85.0934C313.543 85.0934 318.647 79.998 318.647 73.7125C318.647 67.427 313.543 62.3315 307.247 62.3315C300.95 62.3315 295.846 67.427 295.846 73.7125C295.846 79.998 300.95 85.0934 307.247 85.0934Z" fill="url(#paint49_linear)"/>
<path d="M503.547 148.895C508.718 148.895 512.909 144.71 512.909 139.549C512.909 134.387 508.718 130.203 503.547 130.203C498.377 130.203 494.185 134.387 494.185 139.549C494.185 144.71 498.377 148.895 503.547 148.895Z" fill="white"/>
<path d="M113.929 283.242C121.33 283.242 127.33 277.253 127.33 269.864C127.33 262.475 121.33 256.486 113.929 256.486C106.528 256.486 100.528 262.475 100.528 269.864C100.528 277.253 106.528 283.242 113.929 283.242Z" fill="#F1F2F2"/>
<path d="M526.235 252.68C530.926 252.68 534.729 248.883 534.729 244.2C534.729 239.517 530.926 235.721 526.235 235.721C521.544 235.721 517.741 239.517 517.741 244.2C517.741 248.883 521.544 252.68 526.235 252.68Z" fill="url(#paint50_linear)"/>
<path d="M108.531 125.04C113.222 125.04 117.025 121.244 117.025 116.561C117.025 111.878 113.222 108.082 108.531 108.082C103.84 108.082 100.037 111.878 100.037 116.561C100.037 121.244 103.84 125.04 108.531 125.04Z" fill="white"/>
<path d="M144.469 106.687C146.846 106.687 148.773 104.764 148.773 102.391C148.773 100.018 146.846 98.0947 144.469 98.0947C142.092 98.0947 140.166 100.018 140.166 102.391C140.166 104.764 142.092 106.687 144.469 106.687Z" fill="url(#paint51_linear)"/>
<path d="M178.935 106.574C181.208 106.574 183.05 104.735 183.05 102.466C183.05 100.197 181.208 98.3584 178.935 98.3584C176.663 98.3584 174.82 100.197 174.82 102.466C174.82 104.735 176.663 106.574 178.935 106.574Z" fill="url(#paint52_linear)"/>
<path d="M457.907 146.897C464.204 146.897 469.308 141.802 469.308 135.516C469.308 129.231 464.204 124.135 457.907 124.135C451.611 124.135 446.507 129.231 446.507 135.516C446.507 141.802 451.611 146.897 457.907 146.897Z" fill="url(#paint53_linear)"/>
<path d="M56.2096 203.576C62.5059 203.576 67.6101 198.48 67.6101 192.195C67.6101 185.909 62.5059 180.814 56.2096 180.814C49.9133 180.814 44.8091 185.909 44.8091 192.195C44.8091 198.48 49.9133 203.576 56.2096 203.576Z" fill="#939598"/>
<path d="M437.9 267.904C447.907 267.904 456.02 259.806 456.02 249.815C456.02 239.825 447.907 231.727 437.9 231.727C427.892 231.727 419.78 239.825 419.78 249.815C419.78 259.806 427.892 267.904 437.9 267.904Z" fill="url(#paint54_linear)"/>
<path d="M269.384 357.444C269.384 358.499 268.553 359.328 267.496 359.328H246.62C245.563 359.328 244.733 358.499 244.733 357.444V326.203C244.733 325.148 245.563 324.319 246.62 324.319H267.496C268.553 324.319 269.384 325.148 269.384 326.203V357.444Z" fill="#E6E7E8"/>
<path d="M240.58 357.105C240.58 358.16 239.75 358.989 238.693 358.989H217.817C216.76 358.989 215.93 358.16 215.93 357.105V325.864C215.93 324.809 216.76 323.979 217.817 323.979H238.693C239.75 323.979 240.58 324.809 240.58 325.864V357.105Z" fill="#E6E7E8"/>
<path d="M238.466 330.952C238.466 332.007 237.636 332.836 236.579 332.836H220.12C219.063 332.836 218.232 332.007 218.232 330.952V327.522C218.232 326.467 219.063 325.638 220.12 325.638H236.579C237.636 325.638 238.466 326.467 238.466 327.522V330.952Z" fill="url(#paint55_linear)"/>
<path d="M73.2347 207.382C73.2347 207.947 72.7062 208.437 72.1022 208.437H41.3737C40.732 208.437 40.2412 207.985 40.2412 207.382C40.2412 206.817 40.732 206.327 41.3737 206.327H72.1022C72.7062 206.327 73.2347 206.817 73.2347 207.382Z" fill="url(#paint56_linear)"/>
<path d="M73.2347 211.452C73.2347 212.017 72.7062 212.507 72.1022 212.507H41.3737C40.732 212.507 40.2412 212.055 40.2412 211.452C40.2412 210.886 40.732 210.396 41.3737 210.396H72.1022C72.7062 210.396 73.2347 210.849 73.2347 211.452Z" fill="url(#paint57_linear)"/>
<path d="M73.2347 215.597C73.2347 216.162 72.7062 216.652 72.1022 216.652H41.3737C40.732 216.652 40.2412 216.2 40.2412 215.597C40.2412 215.032 40.732 214.542 41.3737 214.542H72.1022C72.7062 214.542 73.2347 215.032 73.2347 215.597Z" fill="url(#paint58_linear)"/>
<path d="M577.688 216.276C577.688 217.331 576.858 218.16 575.801 218.16H562.022C560.965 218.16 560.134 217.331 560.134 216.276V201.013C560.134 199.958 560.965 199.129 562.022 199.129H575.801C576.858 199.129 577.688 199.958 577.688 201.013V216.276Z" fill="#B9E5FB"/>
<path d="M454.019 274.311C454.019 274.725 453.679 275.064 453.264 275.064H421.856C421.441 275.064 421.101 274.725 421.101 274.311V274.235C421.101 273.821 421.441 273.481 421.856 273.481H453.264C453.679 273.481 454.019 273.821 454.019 274.235V274.311Z" fill="url(#paint59_linear)"/>
<path d="M454.019 277.627C454.019 278.041 453.679 278.381 453.264 278.381H421.856C421.441 278.381 421.101 278.041 421.101 277.627V277.552C421.101 277.137 421.441 276.798 421.856 276.798H453.264C453.679 276.798 454.019 277.137 454.019 277.552V277.627Z" fill="url(#paint60_linear)"/>
<path d="M454.132 281.094C454.132 281.508 453.793 281.847 453.377 281.847H421.969C421.554 281.847 421.214 281.508 421.214 281.094V281.018C421.214 280.604 421.554 280.265 421.969 280.265H453.377C453.793 280.265 454.132 280.604 454.132 281.018V281.094Z" fill="url(#paint61_linear)"/>
<path d="M454.132 290.251C454.132 290.666 453.793 291.005 453.377 291.005H421.969C421.554 291.005 421.214 290.666 421.214 290.251V290.176C421.214 289.762 421.554 289.422 421.969 289.422H453.377C453.793 289.422 454.132 289.762 454.132 290.176V290.251Z" fill="url(#paint62_linear)"/>
<path d="M454.132 293.832C454.132 294.246 453.793 294.585 453.377 294.585H421.969C421.554 294.585 421.214 294.246 421.214 293.832V293.756C421.214 293.342 421.554 293.002 421.969 293.002H453.377C453.793 293.002 454.132 293.342 454.132 293.756V293.832Z" fill="url(#paint63_linear)"/>
<path d="M454.132 297.487C454.132 297.901 453.793 298.241 453.377 298.241H421.969C421.554 298.241 421.214 297.901 421.214 297.487V297.411C421.214 296.997 421.554 296.658 421.969 296.658H453.377C453.793 296.658 454.132 296.997 454.132 297.411V297.487Z" fill="url(#paint64_linear)"/>
<path d="M454.132 304.572C454.132 304.986 453.793 305.325 453.377 305.325H421.969C421.554 305.325 421.214 304.986 421.214 304.572V304.496C421.214 304.082 421.554 303.743 421.969 303.743H453.377C453.793 303.743 454.132 304.082 454.132 304.496V304.572Z" fill="url(#paint65_linear)"/>
<path d="M454.132 308.228C454.132 308.642 453.793 308.981 453.377 308.981H421.969C421.554 308.981 421.214 308.642 421.214 308.228V308.152C421.214 307.738 421.554 307.398 421.969 307.398H453.377C453.793 307.398 454.132 307.738 454.132 308.152V308.228Z" fill="url(#paint66_linear)"/>
<path d="M454.132 312.071C454.132 312.486 453.793 312.825 453.377 312.825H421.969C421.554 312.825 421.214 312.486 421.214 312.071V311.996C421.214 311.581 421.554 311.242 421.969 311.242H453.377C453.793 311.242 454.132 311.581 454.132 311.996V312.071Z" fill="url(#paint67_linear)"/>
<path d="M238.466 336.341C238.466 337.245 237.636 337.999 236.579 337.999H220.12C219.063 337.999 218.232 337.245 218.232 336.341C218.232 335.436 219.063 334.683 220.12 334.683H236.579C237.636 334.683 238.466 335.436 238.466 336.341Z" fill="url(#paint68_linear)"/>
<path d="M266.816 350.171C266.816 351.075 265.986 351.829 264.929 351.829H248.47C247.413 351.829 246.583 351.075 246.583 350.171C246.583 349.266 247.413 348.513 248.47 348.513H264.929C265.986 348.513 266.816 349.229 266.816 350.171Z" fill="url(#paint69_linear)"/>
<path d="M238.466 341.541C238.466 342.445 237.636 343.199 236.579 343.199H220.12C219.063 343.199 218.232 342.445 218.232 341.541C218.232 340.637 219.063 339.883 220.12 339.883H236.579C237.636 339.883 238.466 340.637 238.466 341.541Z" fill="url(#paint70_linear)"/>
<path d="M266.741 355.259C266.741 356.163 265.911 356.917 264.854 356.917H248.395C247.338 356.917 246.507 356.163 246.507 355.259C246.507 354.354 247.338 353.601 248.395 353.601H264.854C265.911 353.601 266.741 354.354 266.741 355.259Z" fill="url(#paint71_linear)"/>
<path d="M475.234 154.924C475.234 155.452 474.743 155.866 474.102 155.866H441.448C440.806 155.866 440.315 155.452 440.315 154.924C440.315 154.396 440.806 153.982 441.448 153.982H474.102C474.743 153.982 475.234 154.396 475.234 154.924Z" fill="white"/>
<path d="M475.234 158.994C475.234 159.521 474.743 159.936 474.102 159.936H441.448C440.806 159.936 440.315 159.521 440.315 158.994C440.315 158.466 440.806 158.052 441.448 158.052H474.102C474.743 158.052 475.234 158.466 475.234 158.994Z" fill="white"/>
<path d="M475.234 163.102C475.234 163.629 474.743 164.044 474.102 164.044H441.448C440.806 164.044 440.315 163.629 440.315 163.102C440.315 162.574 440.806 162.16 441.448 162.16H474.102C474.743 162.16 475.234 162.574 475.234 163.102Z" fill="white"/>
<path d="M474.932 173.277C474.932 173.804 474.442 174.219 473.8 174.219H441.146C440.504 174.219 440.014 173.804 440.014 173.277C440.014 172.749 440.504 172.334 441.146 172.334H473.8C474.442 172.334 474.932 172.749 474.932 173.277Z" fill="white"/>
<path d="M474.932 177.497C474.932 178.025 474.442 178.439 473.8 178.439H441.146C440.504 178.439 440.014 178.025 440.014 177.497C440.014 176.97 440.504 176.555 441.146 176.555H473.8C474.442 176.555 474.932 176.97 474.932 177.497Z" fill="white"/>
<path d="M474.932 181.756C474.932 182.284 474.442 182.698 473.8 182.698H441.146C440.504 182.698 440.014 182.284 440.014 181.756C440.014 181.228 440.504 180.814 441.146 180.814H473.8C474.442 180.814 474.932 181.228 474.932 181.756Z" fill="white"/>
<path d="M474.932 190.31C474.932 190.838 474.442 191.252 473.8 191.252H441.146C440.504 191.252 440.014 190.838 440.014 190.31C440.014 189.783 440.504 189.368 441.146 189.368H473.8C474.442 189.368 474.932 189.82 474.932 190.31Z" fill="white"/>
<path d="M474.932 195.096C474.932 195.624 474.442 196.039 473.8 196.039H441.146C440.504 196.039 440.014 195.624 440.014 195.096C440.014 194.569 440.504 194.154 441.146 194.154H473.8C474.442 194.154 474.932 194.569 474.932 195.096Z" fill="white"/>
<path d="M474.932 199.883C474.932 200.41 474.442 200.825 473.8 200.825H441.146C440.504 200.825 440.014 200.41 440.014 199.883C440.014 199.355 440.504 198.94 441.146 198.94H473.8C474.442 198.94 474.932 199.355 474.932 199.883Z" fill="white"/>
</g>
<defs>
<filter id="filter0_d" x="-25" y="-11" width="654" height="457" filterUnits="userSpaceOnUse" color-interpolation-filters="sRGB">
<feFlood flood-opacity="0" result="BackgroundImageFix"/>
<feColorMatrix in="SourceAlpha" type="matrix" values="0 0 0 0 0 0 0 0 0 0 0 0 0 0 0 0 0 0 127 0" result="hardAlpha"/>
<feOffset dy="14"/>
<feGaussianBlur stdDeviation="12.5"/>
<feColorMatrix type="matrix" values="0 0 0 0 0 0 0 0 0 0 0 0 0 0 0 0 0 0 0.25 0"/>
<feBlend mode="normal" in2="BackgroundImageFix" result="effect1_dropShadow"/>
<feBlend mode="normal" in="SourceGraphic" in2="effect1_dropShadow" result="shape"/>
</filter>
<linearGradient id="paint0_linear" x1="97.5484" y1="116.966" x2="119.495" y2="116.966" gradientUnits="userSpaceOnUse">
<stop stop-color="#71459B"/>
<stop offset="0.8668" stop-color="#A76DAE"/>
</linearGradient>
<linearGradient id="paint1_linear" x1="260.436" y1="137.798" x2="305.832" y2="137.798" gradientUnits="userSpaceOnUse">
<stop stop-color="#71459B"/>
<stop offset="0.8668" stop-color="#A76DAE"/>
</linearGradient>
<linearGradient id="paint2_linear" x1="305.638" y1="137.893" x2="351.147" y2="137.893" gradientUnits="userSpaceOnUse">
<stop stop-color="#71459B"/>
<stop offset="0.8668" stop-color="#A76DAE"/>
</linearGradient>
<linearGradient id="paint3_linear" x1="264.391" y1="172.671" x2="346.989" y2="172.671" gradientUnits="userSpaceOnUse">
<stop stop-color="#71459B"/>
<stop offset="0.8668" stop-color="#A76DAE"/>
</linearGradient>
<linearGradient id="paint4_linear" x1="221.491" y1="185.595" x2="392.909" y2="185.595" gradientUnits="userSpaceOnUse">
<stop stop-color="#7DD3F7"/>
<stop offset="1" stop-color="#43B5E8"/>
</linearGradient>
<linearGradient id="paint5_linear" x1="221.491" y1="195.484" x2="392.909" y2="195.484" gradientUnits="userSpaceOnUse">
<stop stop-color="#7DD3F7"/>
<stop offset="1" stop-color="#43B5E8"/>
</linearGradient>
<linearGradient id="paint6_linear" x1="221.171" y1="206.648" x2="392.59" y2="206.648" gradientUnits="userSpaceOnUse">
<stop stop-color="#7DD3F7"/>
<stop offset="1" stop-color="#43B5E8"/>
</linearGradient>
<linearGradient id="paint7_linear" x1="96.2886" y1="187.43" x2="192.38" y2="187.43" gradientUnits="userSpaceOnUse">
<stop stop-color="#7DD3F7"/>
<stop offset="1" stop-color="#43B5E8"/>
</linearGradient>
<linearGradient id="paint8_linear" x1="96.2886" y1="195.128" x2="192.38" y2="195.128" gradientUnits="userSpaceOnUse">
<stop stop-color="#7DD3F7"/>
<stop offset="1" stop-color="#43B5E8"/>
</linearGradient>
<linearGradient id="paint9_linear" x1="96.1093" y1="203.818" x2="192.201" y2="203.818" gradientUnits="userSpaceOnUse">
<stop stop-color="#7DD3F7"/>
<stop offset="1" stop-color="#43B5E8"/>
</linearGradient>
<linearGradient id="paint10_linear" x1="95.791" y1="218.767" x2="191.883" y2="218.767" gradientUnits="userSpaceOnUse">
<stop stop-color="#71459B"/>
<stop offset="0.8668" stop-color="#A76DAE"/>
</linearGradient>
<linearGradient id="paint11_linear" x1="95.7901" y1="226.464" x2="191.882" y2="226.464" gradientUnits="userSpaceOnUse">
<stop stop-color="#71459B"/>
<stop offset="0.8668" stop-color="#A76DAE"/>
</linearGradient>
<linearGradient id="paint12_linear" x1="95.6111" y1="235.155" x2="191.703" y2="235.155" gradientUnits="userSpaceOnUse">
<stop stop-color="#71459B"/>
<stop offset="0.8668" stop-color="#A76DAE"/>
</linearGradient>
<linearGradient id="paint13_linear" x1="129.459" y1="144.969" x2="194.62" y2="144.969" gradientUnits="userSpaceOnUse">
<stop stop-color="#7DD3F7"/>
<stop offset="1" stop-color="#43B5E8"/>
</linearGradient>
<linearGradient id="paint14_linear" x1="129.642" y1="152.327" x2="194.803" y2="152.327" gradientUnits="userSpaceOnUse">
<stop stop-color="#7DD3F7"/>
<stop offset="1" stop-color="#43B5E8"/>
</linearGradient>
<linearGradient id="paint15_linear" x1="129.338" y1="159.47" x2="194.499" y2="159.47" gradientUnits="userSpaceOnUse">
<stop stop-color="#7DD3F7"/>
<stop offset="1" stop-color="#43B5E8"/>
</linearGradient>
<linearGradient id="paint16_linear" x1="60.627" y1="144.334" x2="113.819" y2="144.334" gradientUnits="userSpaceOnUse">
<stop stop-color="#7DD3F7"/>
<stop offset="1" stop-color="#43B5E8"/>
</linearGradient>
<linearGradient id="paint17_linear" x1="60.627" y1="138.345" x2="113.819" y2="138.345" gradientUnits="userSpaceOnUse">
<stop stop-color="#7DD3F7"/>
<stop offset="1" stop-color="#43B5E8"/>
</linearGradient>
<linearGradient id="paint18_linear" x1="60.8099" y1="150.259" x2="114.002" y2="150.259" gradientUnits="userSpaceOnUse">
<stop stop-color="#7DD3F7"/>
<stop offset="1" stop-color="#43B5E8"/>
</linearGradient>
<linearGradient id="paint19_linear" x1="60.5278" y1="156.172" x2="113.72" y2="156.172" gradientUnits="userSpaceOnUse">
<stop stop-color="#7DD3F7"/>
<stop offset="1" stop-color="#43B5E8"/>
</linearGradient>
<linearGradient id="paint20_linear" x1="60.421" y1="162.055" x2="113.613" y2="162.055" gradientUnits="userSpaceOnUse">
<stop stop-color="#7DD3F7"/>
<stop offset="1" stop-color="#43B5E8"/>
</linearGradient>
<linearGradient id="paint21_linear" x1="344.422" y1="74.6945" x2="397.614" y2="74.6945" gradientUnits="userSpaceOnUse">
<stop stop-color="#7DD3F7"/>
<stop offset="1" stop-color="#43B5E8"/>
</linearGradient>
<linearGradient id="paint22_linear" x1="344.422" y1="80.2547" x2="397.614" y2="80.2547" gradientUnits="userSpaceOnUse">
<stop stop-color="#7DD3F7"/>
<stop offset="1" stop-color="#43B5E8"/>
</linearGradient>
<linearGradient id="paint23_linear" x1="344.481" y1="85.7453" x2="397.673" y2="85.7453" gradientUnits="userSpaceOnUse">
<stop stop-color="#7DD3F7"/>
<stop offset="1" stop-color="#43B5E8"/>
</linearGradient>
<linearGradient id="paint24_linear" x1="350.268" y1="339.476" x2="396.188" y2="339.476" gradientUnits="userSpaceOnUse">
<stop stop-color="#7DD3F7"/>
<stop offset="1" stop-color="#43B5E8"/>
</linearGradient>
<linearGradient id="paint25_linear" x1="350.268" y1="344.574" x2="396.188" y2="344.574" gradientUnits="userSpaceOnUse">
<stop stop-color="#7DD3F7"/>
<stop offset="1" stop-color="#43B5E8"/>
</linearGradient>
<linearGradient id="paint26_linear" x1="350.268" y1="349.907" x2="396.188" y2="349.907" gradientUnits="userSpaceOnUse">
<stop stop-color="#7DD3F7"/>
<stop offset="1" stop-color="#43B5E8"/>
</linearGradient>
<linearGradient id="paint27_linear" x1="492.247" y1="182.014" x2="545.439" y2="182.014" gradientUnits="userSpaceOnUse">
<stop stop-color="#7DD3F7"/>
<stop offset="1" stop-color="#43B5E8"/>
</linearGradient>
<linearGradient id="paint28_linear" x1="492.097" y1="187.874" x2="545.289" y2="187.874" gradientUnits="userSpaceOnUse">
<stop stop-color="#7DD3F7"/>
<stop offset="1" stop-color="#43B5E8"/>
</linearGradient>
<linearGradient id="paint29_linear" x1="492.148" y1="193.852" x2="545.34" y2="193.852" gradientUnits="userSpaceOnUse">
<stop stop-color="#7DD3F7"/>
<stop offset="1" stop-color="#43B5E8"/>
</linearGradient>
<linearGradient id="paint30_linear" x1="221.811" y1="259.594" x2="393.23" y2="259.594" gradientUnits="userSpaceOnUse">
<stop stop-color="#7DD3F7"/>
<stop offset="1" stop-color="#43B5E8"/>
</linearGradient>
<linearGradient id="paint31_linear" x1="221.811" y1="269.482" x2="393.23" y2="269.482" gradientUnits="userSpaceOnUse">
<stop stop-color="#7DD3F7"/>
<stop offset="1" stop-color="#43B5E8"/>
</linearGradient>
<linearGradient id="paint32_linear" x1="221.492" y1="280.647" x2="392.911" y2="280.647" gradientUnits="userSpaceOnUse">
<stop stop-color="#7DD3F7"/>
<stop offset="1" stop-color="#43B5E8"/>
</linearGradient>
<linearGradient id="paint33_linear" x1="222.134" y1="233.94" x2="297.566" y2="233.94" gradientUnits="userSpaceOnUse">
<stop stop-color="#7DD3F7"/>
<stop offset="1" stop-color="#43B5E8"/>
</linearGradient>
<linearGradient id="paint34_linear" x1="96.1087" y1="270.053" x2="193.047" y2="270.053" gradientUnits="userSpaceOnUse">
<stop stop-color="#7DD3F7"/>
<stop offset="1" stop-color="#43B5E8"/>
</linearGradient>
<linearGradient id="paint35_linear" x1="349.662" y1="328.762" x2="396.988" y2="328.762" gradientUnits="userSpaceOnUse">
<stop stop-color="#7DD3F7"/>
<stop offset="1" stop-color="#43B5E8"/>
</linearGradient>
<linearGradient id="paint36_linear" x1="492.106" y1="206.796" x2="546.829" y2="206.796" gradientUnits="userSpaceOnUse">
<stop stop-color="#7DD3F7"/>
<stop offset="1" stop-color="#43B5E8"/>
</linearGradient>
<linearGradient id="paint37_linear" x1="136.229" y1="108.801" x2="153.095" y2="108.801" gradientUnits="userSpaceOnUse">
<stop stop-color="#71459B"/>
<stop offset="0.8668" stop-color="#A76DAE"/>
</linearGradient>
<linearGradient id="paint38_linear" x1="170.72" y1="108.708" x2="187.586" y2="108.708" gradientUnits="userSpaceOnUse">
<stop stop-color="#71459B"/>
<stop offset="0.8668" stop-color="#A76DAE"/>
</linearGradient>
<linearGradient id="paint39_linear" x1="416.173" y1="101.769" x2="422.823" y2="101.769" gradientUnits="userSpaceOnUse">
<stop stop-color="#71459B"/>
<stop offset="0.8668" stop-color="#A76DAE"/>
</linearGradient>
<linearGradient id="paint40_linear" x1="424.379" y1="96.6526" x2="445.334" y2="96.6526" gradientUnits="userSpaceOnUse">
<stop stop-color="#71459B"/>
<stop offset="0.8668" stop-color="#A76DAE"/>
</linearGradient>
<linearGradient id="paint41_linear" x1="424.379" y1="98.8732" x2="445.334" y2="98.8732" gradientUnits="userSpaceOnUse">
<stop stop-color="#71459B"/>
<stop offset="0.8668" stop-color="#A76DAE"/>
</linearGradient>
<linearGradient id="paint42_linear" x1="424.379" y1="101.128" x2="445.334" y2="101.128" gradientUnits="userSpaceOnUse">
<stop stop-color="#71459B"/>
<stop offset="0.8668" stop-color="#A76DAE"/>
</linearGradient>
<linearGradient id="paint43_linear" x1="424.413" y1="103.589" x2="445.369" y2="103.589" gradientUnits="userSpaceOnUse">
<stop stop-color="#71459B"/>
<stop offset="0.8668" stop-color="#A76DAE"/>
</linearGradient>
<linearGradient id="paint44_linear" x1="424.345" y1="105.918" x2="445.3" y2="105.918" gradientUnits="userSpaceOnUse">
<stop stop-color="#71459B"/>
<stop offset="0.8668" stop-color="#A76DAE"/>
</linearGradient>
<linearGradient id="paint45_linear" x1="449.122" y1="101.543" x2="455.771" y2="101.543" gradientUnits="userSpaceOnUse">
<stop stop-color="#71459B"/>
<stop offset="0.8668" stop-color="#A76DAE"/>
</linearGradient>
<linearGradient id="paint46_linear" x1="415.277" y1="166.292" x2="431.147" y2="166.292" gradientUnits="userSpaceOnUse">
<stop stop-color="#7DD3F7"/>
<stop offset="1" stop-color="#43B5E8"/>
</linearGradient>
<linearGradient id="paint47_linear" x1="437.63" y1="181.033" x2="478.255" y2="181.033" gradientUnits="userSpaceOnUse">
<stop stop-color="#71459B"/>
<stop offset="0.8668" stop-color="#A76DAE"/>
</linearGradient>
<linearGradient id="paint48_linear" x1="314.871" y1="234.26" x2="390.303" y2="234.26" gradientUnits="userSpaceOnUse">
<stop stop-color="#7DD3F7"/>
<stop offset="1" stop-color="#43B5E8"/>
</linearGradient>
<linearGradient id="paint49_linear" x1="295.838" y1="73.7201" x2="318.649" y2="73.7201" gradientUnits="userSpaceOnUse">
<stop stop-color="#7DD3F7"/>
<stop offset="1" stop-color="#43B5E8"/>
</linearGradient>
<linearGradient id="paint50_linear" x1="517.742" y1="244.184" x2="534.712" y2="244.184" gradientUnits="userSpaceOnUse">
<stop stop-color="#71459B"/>
<stop offset="0.8668" stop-color="#A76DAE"/>
</linearGradient>
<linearGradient id="paint51_linear" x1="140.144" y1="102.384" x2="148.769" y2="102.384" gradientUnits="userSpaceOnUse">
<stop stop-color="#71459B"/>
<stop offset="0.8668" stop-color="#A76DAE"/>
</linearGradient>
<linearGradient id="paint52_linear" x1="174.853" y1="102.45" x2="183.051" y2="102.45" gradientUnits="userSpaceOnUse">
<stop stop-color="#71459B"/>
<stop offset="0.8668" stop-color="#A76DAE"/>
</linearGradient>
<linearGradient id="paint53_linear" x1="446.485" y1="135.526" x2="469.296" y2="135.526" gradientUnits="userSpaceOnUse">
<stop stop-color="#7DD3F7"/>
<stop offset="1" stop-color="#43B5E8"/>
</linearGradient>
<linearGradient id="paint54_linear" x1="419.791" y1="249.825" x2="456.035" y2="249.825" gradientUnits="userSpaceOnUse">
<stop stop-color="#7DD3F7"/>
<stop offset="1" stop-color="#43B5E8"/>
</linearGradient>
<linearGradient id="paint55_linear" x1="218.241" y1="329.231" x2="238.468" y2="329.231" gradientUnits="userSpaceOnUse">
<stop stop-color="#71459B"/>
<stop offset="0.8668" stop-color="#A76DAE"/>
</linearGradient>
<linearGradient id="paint56_linear" x1="40.2356" y1="207.379" x2="73.2207" y2="207.379" gradientUnits="userSpaceOnUse">
<stop stop-color="#71459B"/>
<stop offset="0.8668" stop-color="#A76DAE"/>
</linearGradient>
<linearGradient id="paint57_linear" x1="40.2356" y1="211.441" x2="73.2207" y2="211.441" gradientUnits="userSpaceOnUse">
<stop stop-color="#71459B"/>
<stop offset="0.8668" stop-color="#A76DAE"/>
</linearGradient>
<linearGradient id="paint58_linear" x1="40.2356" y1="215.595" x2="73.2207" y2="215.595" gradientUnits="userSpaceOnUse">
<stop stop-color="#71459B"/>
<stop offset="0.8668" stop-color="#A76DAE"/>
</linearGradient>
<linearGradient id="paint59_linear" x1="421.083" y1="274.292" x2="454.007" y2="274.292" gradientUnits="userSpaceOnUse">
<stop stop-color="#71459B"/>
<stop offset="0.8668" stop-color="#A76DAE"/>
</linearGradient>
<linearGradient id="paint60_linear" x1="421.083" y1="277.579" x2="454.007" y2="277.579" gradientUnits="userSpaceOnUse">
<stop stop-color="#71459B"/>
<stop offset="0.8668" stop-color="#A76DAE"/>
</linearGradient>
<linearGradient id="paint61_linear" x1="421.203" y1="281.046" x2="454.127" y2="281.046" gradientUnits="userSpaceOnUse">
<stop stop-color="#71459B"/>
<stop offset="0.8668" stop-color="#A76DAE"/>
</linearGradient>
<linearGradient id="paint62_linear" x1="421.207" y1="290.213" x2="454.13" y2="290.213" gradientUnits="userSpaceOnUse">
<stop stop-color="#71459B"/>
<stop offset="0.8668" stop-color="#A76DAE"/>
</linearGradient>
<linearGradient id="paint63_linear" x1="421.207" y1="293.797" x2="454.13" y2="293.797" gradientUnits="userSpaceOnUse">
<stop stop-color="#71459B"/>
<stop offset="0.8668" stop-color="#A76DAE"/>
</linearGradient>
<linearGradient id="paint64_linear" x1="421.207" y1="297.444" x2="454.13" y2="297.444" gradientUnits="userSpaceOnUse">
<stop stop-color="#71459B"/>
<stop offset="0.8668" stop-color="#A76DAE"/>
</linearGradient>
<linearGradient id="paint65_linear" x1="421.207" y1="304.55" x2="454.13" y2="304.55" gradientUnits="userSpaceOnUse">
<stop stop-color="#71459B"/>
<stop offset="0.8668" stop-color="#A76DAE"/>
</linearGradient>
<linearGradient id="paint66_linear" x1="421.207" y1="308.197" x2="454.13" y2="308.197" gradientUnits="userSpaceOnUse">
<stop stop-color="#71459B"/>
<stop offset="0.8668" stop-color="#A76DAE"/>
</linearGradient>
<linearGradient id="paint67_linear" x1="421.207" y1="312.033" x2="454.13" y2="312.033" gradientUnits="userSpaceOnUse">
<stop stop-color="#71459B"/>
<stop offset="0.8668" stop-color="#A76DAE"/>
</linearGradient>
<linearGradient id="paint68_linear" x1="218.241" y1="336.356" x2="238.468" y2="336.356" gradientUnits="userSpaceOnUse">
<stop stop-color="#71459B"/>
<stop offset="0.8668" stop-color="#A76DAE"/>
</linearGradient>
<linearGradient id="paint69_linear" x1="246.598" y1="350.166" x2="266.825" y2="350.166" gradientUnits="userSpaceOnUse">
<stop stop-color="#71459B"/>
<stop offset="0.8668" stop-color="#A76DAE"/>
</linearGradient>
<linearGradient id="paint70_linear" x1="218.241" y1="341.544" x2="238.468" y2="341.544" gradientUnits="userSpaceOnUse">
<stop stop-color="#71459B"/>
<stop offset="0.8668" stop-color="#A76DAE"/>
</linearGradient>
<linearGradient id="paint71_linear" x1="246.524" y1="355.261" x2="266.751" y2="355.261" gradientUnits="userSpaceOnUse">
<stop stop-color="#71459B"/>
<stop offset="0.8668" stop-color="#A76DAE"/>
</linearGradient>
</defs>
</svg>
