<svg width="65" height="65" viewBox="0 0 65 65" fill="none" xmlns="http://www.w3.org/2000/svg">
<path d="M32.3002 47.6C11.9002 45.1 16.7002 25 16.7002 25L21.3002 26.7L16.7002 15.5L3.2002 19.5L7.7002 21.5C7.7002 21.5 -0.899807 54.1 33.8002 57.4" stroke="#00B9F2" stroke-width="2" stroke-miterlimit="10" stroke-linecap="round" stroke-linejoin="round"/>
<path d="M18.8 20.6C31 4.10004 46.1 18.1 46.1 18.1L42.4 21.3L54.4 22.7L57.6 9.00004L53.6 12C53.6 12 29.3 -11.5 9.5 17.1" stroke="#00B9F2" stroke-width="2" stroke-miterlimit="10" stroke-linecap="round" stroke-linejoin="round"/>
<path d="M48.6998 22.6001C57.0998 41.3001 37.3998 47.6001 37.3998 47.6001L36.4998 42.8001L29.2998 52.5001L39.5998 62.0001L38.9998 57.1001C38.9998 57.1001 71.3998 47.6001 56.2998 16.2001" stroke="#00B9F2" stroke-width="2" stroke-miterlimit="10" stroke-linecap="round" stroke-linejoin="round"/>
</svg>
