<svg width="635" height="424" viewBox="0 0 635 424" fill="none" xmlns="http://www.w3.org/2000/svg">
<g filter="url(#filter0_d)">
<path d="M318.239 373.16C435.946 373.16 531.367 359.924 531.367 343.597C531.367 327.271 435.946 314.035 318.239 314.035C200.532 314.035 105.112 327.271 105.112 343.597C105.112 359.924 200.532 373.16 318.239 373.16Z" fill="#D1EEFC"/>
<path d="M238.876 328.364H167.166C167.166 328.364 174.781 315.095 171.562 297.978C171.562 297.978 183.573 307.047 183.18 317.882C183.18 317.882 175.566 293.463 183.573 278.78C183.573 278.78 194.798 299.038 191.187 314.035C191.187 314.035 205.199 292.756 199.587 276.699C199.587 276.699 215.601 292.05 213.599 311.954C213.599 311.954 226.826 311.601 226.826 301.118C226.865 301.158 227.65 329.424 238.876 328.364Z" fill="url(#paint0_linear)"/>
<path d="M276.32 325.302H204.61C204.61 325.302 212.225 318.942 209.006 310.737C209.006 310.737 221.017 315.095 220.624 320.277C220.624 320.277 213.01 308.578 221.017 301.551C221.017 301.551 232.242 311.248 228.631 318.432C228.631 318.432 242.644 308.225 237.031 300.53C237.031 300.53 253.045 307.871 251.043 317.411C251.043 317.411 264.27 317.254 264.27 312.229C264.27 312.268 265.095 325.813 276.32 325.302Z" fill="url(#paint1_linear)"/>
<path d="M332.644 321.573H260.935C260.935 321.573 268.549 319.217 265.331 316.155C265.331 316.155 277.341 317.765 276.949 319.688C276.949 319.688 269.334 315.331 277.341 312.7C277.341 312.7 288.567 316.312 284.956 318.982C284.956 318.982 298.968 315.174 293.355 312.308C293.355 312.308 309.369 315.056 307.367 318.589C307.367 318.589 320.595 318.511 320.595 316.665C320.634 316.705 321.458 321.769 332.644 321.573Z" fill="url(#paint2_linear)"/>
<path d="M200.646 332.134H128.937C128.937 332.134 136.551 314.428 133.333 291.618C133.333 291.618 145.343 303.749 144.951 318.157C144.951 318.157 137.336 285.533 145.343 265.982C145.343 265.982 156.569 292.992 152.958 313.054C152.958 313.054 166.97 284.63 161.357 263.194C161.357 263.194 177.371 283.688 175.369 310.266C175.369 310.266 188.597 309.795 188.597 295.819C188.636 295.819 189.421 333.547 200.646 332.134Z" fill="url(#paint3_linear)"/>
<path d="M494.393 304.495L123.677 246.195L126.267 238.107L497.023 296.407L494.393 304.495Z" fill="#20C4F4"/>
<path d="M319.496 274.422H308.584V334.646H319.496V274.422Z" fill="#20C4F4"/>
<path d="M359.216 333.546H270.55V338.886H359.216V333.546Z" fill="#20C4F4"/>
<path d="M271.885 333.546H243.979V343.008H271.885V333.546Z" fill="#20C4F4"/>
<path d="M385.121 333.468H357.214V342.93H385.121V333.468Z" fill="#20C4F4"/>
<path d="M243.272 345.443H171.562C171.562 345.443 179.177 341.438 175.958 336.256C175.958 336.256 187.969 339.004 187.576 342.302C187.576 342.302 179.962 334.882 187.969 330.446C187.969 330.446 199.194 336.57 195.583 341.124C195.583 341.124 209.595 334.686 203.983 329.817C203.983 329.817 219.997 334.489 217.995 340.496C217.995 340.496 231.222 340.378 231.222 337.198C231.261 337.198 232.046 345.757 243.272 345.443Z" fill="url(#paint4_linear)"/>
<path d="M202.844 348.505H143.498C143.498 348.505 149.817 346.228 147.148 343.244C147.148 343.244 157.079 344.814 156.765 346.66C156.765 346.66 150.445 342.459 157.079 339.907C157.079 339.907 166.381 343.401 163.398 345.992C163.398 345.992 175.016 342.302 170.345 339.554C170.345 339.554 183.612 342.223 181.963 345.639C181.963 345.639 192.914 345.56 192.914 343.754C192.875 343.833 193.542 348.701 202.844 348.505Z" fill="#A8E0F9"/>
<path d="M458.872 347.444H387.201C387.201 347.444 394.816 342.773 391.597 336.687C391.597 336.687 403.608 339.907 403.215 343.715C403.215 343.715 395.601 335.078 403.608 329.896C403.608 329.896 414.833 337.041 411.222 342.38C411.222 342.38 425.234 334.842 419.622 329.189C419.622 329.189 435.636 334.607 433.634 341.673C433.634 341.673 446.861 341.556 446.861 337.865C446.861 337.826 447.685 347.837 458.872 347.444Z" fill="url(#paint5_linear)"/>
<path d="M178.824 337.983H107.114C107.114 337.983 114.728 326.48 111.51 311.64C111.51 311.64 123.52 319.492 123.128 328.914C123.128 328.914 115.513 307.714 123.52 294.994C123.52 294.994 134.746 312.543 131.135 325.577C131.135 325.577 145.147 307.126 139.534 293.188C139.534 293.188 155.548 306.497 153.547 323.771C153.547 323.771 166.774 323.457 166.774 314.388C166.813 314.349 167.637 338.886 178.824 337.983Z" fill="url(#paint6_linear)"/>
<path d="M104.955 69.0181L185.142 68.7433C185.142 68.7433 180.982 55.5129 165.517 59.5566C165.517 59.5566 158.845 52.2544 148.404 52.2544C137.964 52.2544 134.628 58.1825 134.628 58.1825C134.628 58.1825 131.723 53.0396 121.675 53.5892C111.666 54.1388 110.41 58.9677 110.41 58.9677C110.41 58.9677 97.8503 63.3255 104.955 69.0181Z" fill="#E6E7E8"/>
<path d="M387.241 119.152L508.366 118.877C508.366 118.877 502.047 105.647 478.732 109.69C478.732 109.69 468.645 102.388 452.867 102.388C437.088 102.388 432.064 108.316 432.064 108.316C432.064 108.316 427.629 103.173 412.518 103.723C397.406 104.273 395.483 109.102 395.483 109.102C395.483 109.102 376.486 113.459 387.241 119.152Z" fill="#F1F2F2"/>
<path d="M483.56 144.474L609.631 144.199C609.631 144.199 603.077 130.969 578.781 135.013C578.781 135.013 568.262 127.71 551.855 127.71C535.449 127.71 530.189 133.639 530.189 133.639C530.189 133.639 525.597 128.496 509.819 129.045C494.04 129.595 492.078 134.424 492.078 134.424C492.078 134.424 472.413 138.821 483.56 144.474Z" fill="#F1F2F2"/>
<path d="M43.6069 105.883L123.795 105.451C123.795 105.451 119.634 84.4862 104.17 90.8855C104.17 90.8855 97.4971 79.3433 87.0566 79.3433C76.6161 79.3433 73.2799 88.7655 73.2799 88.7655C73.2799 88.7655 70.3754 80.6388 60.3274 81.5025C50.2794 82.3662 49.0626 90.061 49.0626 90.061C49.0626 90.061 36.5026 96.8922 43.6069 105.883Z" fill="#E6E7E8"/>
<path d="M231.026 152.954L311.214 152.679C311.214 152.679 307.054 139.449 291.589 143.493C291.589 143.493 284.917 136.19 274.476 136.19C264.036 136.19 260.699 142.119 260.699 142.119C260.699 142.119 257.795 136.976 247.747 137.525C237.699 138.075 236.482 142.904 236.482 142.904C236.482 142.904 223.922 147.301 231.026 152.954Z" fill="#E6E7E8"/>
<path d="M33.5981 144.514L99.5381 144.16C99.5381 144.16 96.1234 127.004 83.4064 132.265C83.4064 132.265 77.9114 122.803 69.3156 122.803C60.7199 122.803 57.9724 130.498 57.9724 130.498C57.9724 130.498 55.5781 123.863 47.3356 124.531C39.0931 125.198 38.0726 131.558 38.0726 131.558C38.0726 131.558 27.7499 137.133 33.5981 144.514Z" fill="#E6E7E8"/>
<path d="M493.805 91.6704L573.992 91.3956C573.992 91.3956 569.832 78.1653 554.367 82.209C554.367 82.209 547.695 74.9067 537.254 74.9067C526.814 74.9067 523.478 80.8349 523.478 80.8349C523.478 80.8349 520.573 75.6919 510.525 76.2416C500.516 76.7912 499.26 81.6201 499.26 81.6201C499.26 81.6201 486.7 86.0171 493.805 91.6704Z" fill="#F1F2F2"/>
<path d="M125.247 125.552L303.559 125.159C303.559 125.159 294.257 105.255 259.913 111.34C259.913 111.34 245.038 100.347 221.841 100.347C198.644 100.347 191.187 109.298 191.187 109.298C191.187 109.298 184.671 101.564 162.377 102.389C140.083 103.213 137.296 110.515 137.296 110.515C137.296 110.515 109.468 117.032 125.247 125.552Z" fill="#E6E7E8"/>
<path d="M551.659 66.898L297.555 66.5446C297.555 66.5446 310.782 49.4276 359.766 54.6883C359.766 54.6883 380.961 45.2661 414.049 45.2661C447.136 45.2661 457.734 52.9609 457.734 52.9609C457.734 52.9609 466.997 46.3261 498.75 47.0328C530.503 47.7394 534.468 54.0209 534.468 54.0209C534.468 54.0209 574.149 59.5565 551.659 66.898Z" fill="#F1F2F2"/>
<path d="M453.22 87.9014L283.896 87.7444C283.896 87.7444 292.727 80.2851 325.344 82.5622C325.344 82.5622 339.434 78.4399 361.493 78.4399C383.551 78.4399 390.577 81.777 390.577 81.777C390.577 81.777 396.739 78.8718 417.895 79.1859C439.051 79.4999 441.72 82.2088 441.72 82.2088C441.72 82.2088 468.214 84.6822 453.22 87.9014Z" fill="#F1F2F2"/>
<path d="M416.639 351.057H357.293C357.293 351.057 363.612 348.78 360.943 345.796C360.943 345.796 370.873 347.366 370.559 349.211C370.559 349.211 364.24 345.011 370.873 342.459C370.873 342.459 380.176 345.953 377.193 348.544C377.193 348.544 388.811 344.854 384.14 342.105C384.14 342.105 397.407 344.775 395.758 348.191C395.758 348.191 406.709 348.112 406.709 346.306C406.709 346.345 407.376 351.253 416.639 351.057Z" fill="#A8E0F9"/>
<path d="M277.772 351.803H218.387C218.387 351.803 224.706 349.526 222.037 346.542C222.037 346.542 231.968 348.112 231.654 349.958C231.654 349.958 225.334 345.757 231.968 343.205C231.968 343.205 241.27 346.699 238.287 349.29C238.287 349.29 249.905 345.6 245.234 342.852C245.234 342.852 258.501 345.521 256.852 348.937C256.852 348.937 267.803 348.858 267.803 347.052C267.803 347.092 268.47 351.96 277.772 351.803Z" fill="#A8E0F9"/>
<path d="M501.772 349.369H442.426C442.426 349.369 448.745 347.092 446.076 344.108C446.076 344.108 456.006 345.678 455.692 347.523C455.692 347.523 449.373 343.323 456.006 340.771C456.006 340.771 465.309 344.265 462.326 346.856C462.326 346.856 473.944 343.166 469.273 340.417C469.273 340.417 482.539 343.087 480.891 346.503C480.891 346.503 491.842 346.424 491.842 344.618C491.842 344.657 492.509 349.565 501.772 349.369Z" fill="#A8E0F9"/>
<path d="M529.561 281.764C529.561 282.863 528.698 283.727 527.599 283.727H444.703C443.604 283.727 442.74 282.863 442.74 281.764V189.936C442.74 188.837 443.604 187.973 444.703 187.973H527.599C528.698 187.973 529.561 188.837 529.561 189.936V281.764Z" fill="#808285"/>
<path d="M528.031 280.39C528.031 281.489 527.167 282.353 526.068 282.353H446.508C445.409 282.353 444.546 281.489 444.546 280.39V192.213C444.546 191.114 445.409 190.25 446.508 190.25H526.068C527.167 190.25 528.031 191.114 528.031 192.213V280.39Z" fill="#B9E5FB"/>
<path d="M441.249 274.933C441.249 276.032 440.385 276.896 439.286 276.896H395.209C394.11 276.896 393.246 276.032 393.246 274.933V225.858C393.246 224.759 394.11 223.896 395.209 223.896H439.286C440.385 223.896 441.249 224.759 441.249 225.858V274.933Z" fill="#E1F4FD"/>
<path d="M570.813 287.142C570.813 288.241 569.949 289.105 568.85 289.105H532.504C531.405 289.105 530.542 288.241 530.542 287.142V246.666C530.542 245.566 531.405 244.703 532.504 244.703H568.85C569.949 244.703 570.813 245.566 570.813 246.666V287.142Z" fill="#E1F4FD"/>
<path d="M561.706 239.795C561.706 240.895 560.843 241.758 559.744 241.758H532.504C531.405 241.758 530.542 240.895 530.542 239.795V200.261C530.542 199.162 531.405 198.298 532.504 198.298H559.744C560.843 198.298 561.706 199.162 561.706 200.261V239.795Z" fill="#C9EBFC"/>
<path d="M441.052 219.302C441.052 220.401 440.189 221.265 439.09 221.265H411.85C410.751 221.265 409.888 220.401 409.888 219.302V188.837C409.888 187.738 410.751 186.874 411.85 186.874H439.09C440.189 186.874 441.052 187.738 441.052 188.837V219.302Z" fill="#CCECFC"/>
<path d="M552.954 194.648C552.954 195.747 552.09 196.611 550.991 196.611H533.171C532.072 196.611 531.209 195.747 531.209 194.648V190.643C531.209 189.544 532.072 188.68 533.171 188.68H550.991C552.09 188.68 552.954 189.544 552.954 190.643V194.648Z" fill="#E6E7E8"/>
<path d="M557.154 273.559C557.154 274.658 556.29 275.522 555.191 275.522H537.372C536.273 275.522 535.409 274.658 535.409 273.559V269.554C535.409 268.455 536.273 267.591 537.372 267.591H555.191C556.29 267.591 557.154 268.455 557.154 269.554V273.559Z" fill="#E1F4FD"/>
<path d="M464.289 184.95C464.289 186.05 463.425 186.913 462.326 186.913H444.506C443.407 186.913 442.544 186.05 442.544 184.95V180.475C442.544 179.375 443.407 178.512 444.506 178.512H462.326C463.425 178.512 464.289 179.375 464.289 180.475V184.95Z" fill="#E6E7E8"/>
<path d="M522.928 228.175C522.928 228.724 522.065 229.156 520.966 229.156H452.396C451.297 229.156 450.434 228.724 450.434 228.175C450.434 227.625 451.297 227.193 452.396 227.193H520.966C522.065 227.193 522.928 227.625 522.928 228.175Z" fill="url(#paint7_linear)"/>
<path d="M522.928 232.376C522.928 232.925 522.065 233.357 520.966 233.357H452.396C451.297 233.357 450.434 232.925 450.434 232.376C450.434 231.826 451.297 231.394 452.396 231.394H520.966C522.065 231.394 522.928 231.826 522.928 232.376Z" fill="url(#paint8_linear)"/>
<path d="M522.81 237.086C522.81 237.636 521.947 238.068 520.848 238.068H452.278C451.179 238.068 450.315 237.636 450.315 237.086C450.315 236.537 451.179 236.105 452.278 236.105H520.848C521.907 236.105 522.81 236.576 522.81 237.086Z" fill="url(#paint9_linear)"/>
<g opacity="0.75">
<g opacity="0.75">
<path opacity="0.75" d="M438.148 228.96C438.148 229.392 437.285 229.706 436.186 229.706H399.487C398.388 229.706 397.524 229.352 397.524 228.96C397.524 228.528 398.388 228.214 399.487 228.214H436.186C437.245 228.214 438.148 228.528 438.148 228.96Z" fill="url(#paint10_linear)"/>
</g>
<g opacity="0.75">
<path opacity="0.75" d="M438.147 232.219C438.147 232.65 437.284 232.965 436.185 232.965H399.486C398.387 232.965 397.523 232.611 397.523 232.219C397.523 231.787 398.387 231.473 399.486 231.473H436.185C437.244 231.473 438.147 231.787 438.147 232.219Z" fill="url(#paint11_linear)"/>
</g>
<g opacity="0.75">
<path opacity="0.75" d="M438.069 235.909C438.069 236.34 437.206 236.655 436.107 236.655H399.408C398.309 236.655 397.445 236.301 397.445 235.909C397.445 235.516 398.309 235.163 399.408 235.163H436.107C437.206 235.123 438.069 235.477 438.069 235.909Z" fill="url(#paint12_linear)"/>
</g>
</g>
<path d="M437.952 242.23C437.952 242.662 437.088 242.976 435.989 242.976H399.291C398.192 242.976 397.328 242.622 397.328 242.23C397.328 241.837 398.192 241.484 399.291 241.484H435.989C437.049 241.484 437.952 241.798 437.952 242.23Z" fill="white"/>
<path d="M437.952 245.488C437.952 245.92 437.088 246.234 435.989 246.234H399.291C398.192 246.234 397.328 245.881 397.328 245.488C397.328 245.096 398.192 244.742 399.291 244.742H435.989C437.049 244.742 437.952 245.056 437.952 245.488Z" fill="white"/>
<path d="M437.873 249.179C437.873 249.61 437.009 249.924 435.91 249.924H399.172C398.073 249.924 397.21 249.571 397.21 249.179C397.21 248.786 398.073 248.433 399.172 248.433H435.871C436.97 248.433 437.873 248.747 437.873 249.179Z" fill="white"/>
<path d="M439.09 210.979C439.09 211.333 438.226 211.647 437.127 211.647H413.499C412.4 211.647 411.536 211.333 411.536 210.979C411.536 210.626 412.4 210.312 413.499 210.312H437.127C438.226 210.273 439.09 210.587 439.09 210.979Z" fill="url(#paint13_linear)"/>
<path d="M439.169 214.08C439.169 214.434 438.305 214.748 437.206 214.748H413.578C412.479 214.748 411.615 214.434 411.615 214.08C411.615 213.727 412.479 213.413 413.578 213.413H437.206C438.305 213.413 439.169 213.727 439.169 214.08Z" fill="url(#paint14_linear)"/>
<path d="M439.051 217.103C439.051 217.457 438.187 217.771 437.088 217.771H413.46C412.361 217.771 411.497 217.457 411.497 217.103C411.497 216.75 412.361 216.436 413.46 216.436H437.088C438.148 216.436 439.051 216.75 439.051 217.103Z" fill="url(#paint15_linear)"/>
<path d="M523.086 259.543C523.086 260.093 522.222 260.525 521.123 260.525H452.553C451.454 260.525 450.591 260.093 450.591 259.543C450.591 258.993 451.454 258.562 452.553 258.562H521.123C522.183 258.562 523.086 258.993 523.086 259.543Z" fill="url(#paint16_linear)"/>
<path d="M523.085 263.705C523.085 264.254 522.221 264.686 521.122 264.686H452.552C451.453 264.686 450.59 264.254 450.59 263.705C450.59 263.155 451.453 262.723 452.552 262.723H521.122C522.182 262.723 523.085 263.194 523.085 263.705Z" fill="url(#paint17_linear)"/>
<path d="M522.927 268.455C522.927 269.004 522.064 269.436 520.965 269.436H452.395C451.296 269.436 450.433 269.004 450.433 268.455C450.433 267.905 451.296 267.473 452.395 267.473H520.965C522.064 267.473 522.927 267.905 522.927 268.455Z" fill="url(#paint18_linear)"/>
<path d="M482.618 253.576C482.618 254.675 481.755 255.539 480.656 255.539H452.671C451.572 255.539 450.708 254.675 450.708 253.576V243.761C450.708 242.662 451.572 241.798 452.671 241.798H480.656C481.755 241.798 482.618 242.662 482.618 243.761V253.576Z" fill="url(#paint19_linear)"/>
<path d="M522.731 222.993C522.731 224.092 521.868 224.955 520.769 224.955H452.945C451.846 224.955 450.982 224.092 450.982 222.993V195.275C450.982 194.176 451.846 193.312 452.945 193.312H520.73C521.829 193.312 522.692 194.176 522.692 195.275V222.993H522.731Z" fill="url(#paint20_linear)"/>
<g opacity="0.75">
<path opacity="0.75" d="M436.774 269.829C436.774 270.928 435.91 271.792 434.811 271.792H399.408C398.309 271.792 397.445 270.928 397.445 269.829V258.09C397.445 256.991 398.309 256.127 399.408 256.127H434.811C435.91 256.127 436.774 256.991 436.774 258.09V269.829Z" fill="url(#paint21_linear)"/>
</g>
<path d="M566.848 285.062C566.848 286.161 565.985 287.025 564.886 287.025H553.543C552.444 287.025 551.58 286.161 551.58 285.062V250.474C551.58 249.375 552.444 248.511 553.543 248.511H564.886C565.985 248.511 566.848 249.375 566.848 250.474V285.062Z" fill="#D1D3D4"/>
<path d="M439.168 206.033C439.168 207.132 438.305 207.995 437.206 207.995H427.55C426.451 207.995 425.588 207.132 425.588 206.033V190.878C425.588 189.779 426.451 188.916 427.55 188.916H437.206C438.305 188.916 439.168 189.779 439.168 190.878V206.033Z" fill="#C7C8CA"/>
<path d="M424.685 206.033C424.685 207.132 423.821 207.995 422.722 207.995H413.067C411.968 207.995 411.104 207.132 411.104 206.033V190.878C411.104 189.779 411.968 188.916 413.067 188.916H422.722C423.821 188.916 424.685 189.779 424.685 190.878V206.033Z" fill="#C7C8CA"/>
<path d="M423.351 195.354C423.351 196.453 422.487 197.317 421.388 197.317H414.441C413.342 197.317 412.479 196.453 412.479 195.354V192.331C412.479 191.232 413.342 190.368 414.441 190.368H421.388C422.487 190.368 423.351 191.232 423.351 192.331V195.354Z" fill="#F1F2F2"/>
<path d="M437.833 195.511C437.833 196.61 436.97 197.474 435.871 197.474H428.923C427.824 197.474 426.961 196.61 426.961 195.511V192.488C426.961 191.389 427.824 190.525 428.923 190.525H435.871C436.97 190.525 437.833 191.389 437.833 192.488V195.511Z" fill="white"/>
<path d="M449.923 183.89C449.923 184.989 449.06 185.853 447.961 185.853H445.488C444.389 185.853 443.525 184.989 443.525 183.89V181.456C443.525 180.357 444.389 179.493 445.488 179.493H447.961C449.06 179.493 449.923 180.357 449.923 181.456V183.89Z" fill="white"/>
<path d="M463.621 183.89C463.621 184.989 462.757 185.853 461.658 185.853H452.788C451.689 185.853 450.825 184.989 450.825 183.89V181.456C450.825 180.357 451.689 179.493 452.788 179.493H461.658C462.757 179.493 463.621 180.357 463.621 181.456V183.89Z" fill="white"/>
<path d="M545.811 193.862C545.811 194.961 544.947 195.825 543.848 195.825H534.193C533.094 195.825 532.23 194.961 532.23 193.862V191.585C532.23 190.486 533.094 189.622 534.193 189.622H543.809C544.908 189.622 545.772 190.486 545.772 191.585V193.862H545.811Z" fill="white"/>
<path d="M552.208 193.823C552.208 194.922 551.345 195.786 550.246 195.786H548.205C547.106 195.786 546.242 194.922 546.242 193.823V191.546C546.242 190.447 547.106 189.583 548.205 189.583H550.246C551.345 189.583 552.208 190.447 552.208 191.546V193.823Z" fill="white"/>
<path d="M549.579 284.983C549.579 286.082 548.715 286.946 547.616 286.946H536.077C534.978 286.946 534.114 286.082 534.114 284.983V266.531C534.114 265.432 534.978 264.568 536.077 264.568H547.616C548.715 264.568 549.579 265.432 549.579 266.531V284.983Z" fill="white"/>
<path d="M564.572 255.303C564.572 256.402 563.709 257.266 562.61 257.266H555.663C554.564 257.266 553.7 256.402 553.7 255.303V252.28C553.7 251.181 554.564 250.317 555.663 250.317H562.61C563.709 250.317 564.572 251.181 564.572 252.28V255.303Z" fill="white"/>
<path d="M564.454 268.219C564.454 269.319 563.591 270.182 562.492 270.182H555.545C554.446 270.182 553.582 269.319 553.582 268.219V265.196C553.582 264.097 554.446 263.233 555.545 263.233H562.492C563.591 263.233 564.454 264.097 564.454 265.196V268.219Z" fill="white"/>
<path d="M564.454 281.489C564.454 282.588 563.591 283.452 562.492 283.452H555.545C554.446 283.452 553.582 282.588 553.582 281.489V278.466C553.582 277.367 554.446 276.503 555.545 276.503H562.492C563.591 276.503 564.454 277.367 564.454 278.466V281.489Z" fill="white"/>
<path d="M564.532 258.562C564.532 258.797 563.669 258.954 562.57 258.954H555.623C554.524 258.954 553.66 258.758 553.66 258.562C553.66 258.365 554.524 258.169 555.623 258.169H562.57C563.63 258.169 564.532 258.326 564.532 258.562Z" fill="white"/>
<path d="M423.311 199.319C423.311 199.555 422.447 199.712 421.348 199.712H414.401C413.302 199.712 412.438 199.516 412.438 199.319C412.438 199.123 413.302 198.927 414.401 198.927H421.348C422.408 198.927 423.311 199.123 423.311 199.319Z" fill="white"/>
<path d="M421.545 195.629C421.545 195.786 420.681 195.904 419.582 195.904H416.364C415.265 195.904 414.401 195.786 414.401 195.629C414.401 195.472 415.265 195.354 416.364 195.354H419.582C420.642 195.393 421.545 195.511 421.545 195.629Z" fill="url(#paint22_linear)"/>
<path d="M436.107 195.59C436.107 195.747 435.244 195.865 434.145 195.865H430.926C429.827 195.865 428.964 195.747 428.964 195.59C428.964 195.433 429.827 195.315 430.926 195.315H434.145C435.244 195.354 436.107 195.472 436.107 195.59Z" fill="url(#paint23_linear)"/>
<path d="M535.605 193.352C535.605 194.451 534.977 195.315 534.192 195.315C533.407 195.315 532.779 194.451 532.779 193.352V191.978C532.779 190.878 533.407 190.015 534.192 190.015C534.977 190.015 535.605 190.878 535.605 191.978V193.352Z" fill="url(#paint24_linear)"/>
<path d="M545.104 190.486C545.104 190.604 544.24 190.682 543.141 190.682H538.196C537.097 190.682 536.233 190.604 536.233 190.486C536.233 190.368 537.097 190.29 538.196 190.29H543.141C544.24 190.29 545.104 190.368 545.104 190.486Z" fill="url(#paint25_linear)"/>
<path d="M545.104 191.428C545.104 191.546 544.24 191.625 543.141 191.625H538.196C537.097 191.625 536.233 191.546 536.233 191.428C536.233 191.31 537.097 191.232 538.196 191.232H543.141C544.24 191.232 545.104 191.31 545.104 191.428Z" fill="url(#paint26_linear)"/>
<path d="M545.104 192.371C545.104 192.488 544.24 192.567 543.141 192.567H538.196C537.097 192.567 536.233 192.488 536.233 192.371C536.233 192.253 537.097 192.174 538.196 192.174H543.141C544.24 192.174 545.104 192.253 545.104 192.371Z" fill="url(#paint27_linear)"/>
<path d="M545.143 193.43C545.143 193.548 544.28 193.626 543.18 193.626H538.235C537.136 193.626 536.272 193.548 536.272 193.43C536.272 193.312 537.136 193.234 538.235 193.234H543.18C544.24 193.234 545.143 193.312 545.143 193.43Z" fill="url(#paint28_linear)"/>
<path d="M545.104 194.412C545.104 194.529 544.24 194.608 543.141 194.608H538.196C537.097 194.608 536.233 194.529 536.233 194.412C536.233 194.294 537.097 194.215 538.196 194.215H543.141C544.201 194.215 545.104 194.294 545.104 194.412Z" fill="url(#paint29_linear)"/>
<path d="M549.539 193.234C549.539 194.333 548.911 195.197 548.126 195.197C547.341 195.197 546.713 194.333 546.713 193.234V191.86C546.713 190.761 547.341 189.897 548.126 189.897C548.911 189.897 549.539 190.761 549.539 191.86V193.234Z" fill="url(#paint30_linear)"/>
<path d="M437.873 199.319C437.873 199.555 437.01 199.712 435.911 199.712H428.963C427.864 199.712 427.001 199.516 427.001 199.319C427.001 199.123 427.864 198.927 428.963 198.927H435.911C436.97 198.927 437.873 199.123 437.873 199.319Z" fill="white"/>
<path d="M437.873 201.046C437.873 201.282 437.01 201.439 435.911 201.439H428.963C427.864 201.439 427.001 201.243 427.001 201.046C427.001 200.811 427.864 200.654 428.963 200.654H435.911C436.97 200.654 437.873 200.811 437.873 201.046Z" fill="white"/>
<path d="M437.873 202.892C437.873 203.127 437.01 203.284 435.911 203.284H428.963C427.864 203.284 427.001 203.088 427.001 202.892C427.001 202.656 427.864 202.499 428.963 202.499H435.911C436.97 202.499 437.873 202.656 437.873 202.892Z" fill="white"/>
<path d="M437.794 204.658C437.794 204.894 436.931 205.051 435.832 205.051H428.884C427.785 205.051 426.922 204.855 426.922 204.658C426.922 204.423 427.785 204.266 428.884 204.266H435.832C436.891 204.266 437.794 204.462 437.794 204.658Z" fill="white"/>
<path d="M423.273 201.086C423.273 201.321 422.409 201.478 421.31 201.478H414.363C413.264 201.478 412.4 201.282 412.4 201.086C412.4 200.85 413.264 200.693 414.363 200.693H421.31C422.37 200.654 423.273 200.85 423.273 201.086Z" fill="white"/>
<path d="M423.351 202.813C423.351 203.049 422.487 203.206 421.388 203.206H414.441C413.342 203.206 412.479 203.01 412.479 202.813C412.479 202.578 413.342 202.421 414.441 202.421H421.388C422.448 202.421 423.351 202.617 423.351 202.813Z" fill="white"/>
<path d="M423.311 204.619C423.311 204.855 422.447 205.012 421.348 205.012H414.401C413.302 205.012 412.438 204.816 412.438 204.619C412.438 204.384 413.302 204.227 414.401 204.227H421.348C422.408 204.187 423.311 204.384 423.311 204.619Z" fill="white"/>
<path d="M435.205 259.072C435.205 259.307 434.341 259.464 433.242 259.464H414.363C413.264 259.464 412.4 259.268 412.4 259.072C412.4 258.836 413.264 258.679 414.363 258.679H433.242C434.341 258.679 435.205 258.836 435.205 259.072Z" fill="white"/>
<path d="M435.205 260.878C435.205 261.114 434.341 261.271 433.242 261.271H414.363C413.264 261.271 412.4 261.074 412.4 260.878C412.4 260.642 413.264 260.485 414.363 260.485H433.242C434.341 260.485 435.205 260.642 435.205 260.878Z" fill="white"/>
<path d="M435.205 262.684C435.205 262.919 434.341 263.076 433.242 263.076H414.363C413.264 263.076 412.4 262.88 412.4 262.684C412.4 262.448 413.264 262.291 414.363 262.291H433.242C434.341 262.291 435.205 262.448 435.205 262.684Z" fill="white"/>
<path d="M435.205 265.863C435.205 266.099 434.341 266.256 433.242 266.256H414.363C413.264 266.256 412.4 266.06 412.4 265.863C412.4 265.628 413.264 265.471 414.363 265.471H433.242C434.341 265.432 435.205 265.628 435.205 265.863Z" fill="white"/>
<path d="M435.283 267.787C435.283 268.023 434.419 268.18 433.32 268.18H414.441C413.342 268.18 412.479 267.984 412.479 267.787C412.479 267.552 413.342 267.395 414.441 267.395H433.32C434.38 267.355 435.283 267.552 435.283 267.787Z" fill="white"/>
<path d="M435.283 269.751C435.283 269.986 434.419 270.143 433.32 270.143H414.441C413.342 270.143 412.479 269.947 412.479 269.751C412.479 269.515 413.342 269.358 414.441 269.358H433.32C434.38 269.358 435.283 269.515 435.283 269.751Z" fill="white"/>
<path d="M564.532 260.132C564.532 260.367 563.669 260.524 562.57 260.524H555.623C554.524 260.524 553.66 260.328 553.66 260.132C553.66 259.896 554.524 259.739 555.623 259.739H562.57C563.63 259.739 564.532 259.936 564.532 260.132Z" fill="white"/>
<path d="M564.454 275.05C564.454 275.286 563.591 275.443 562.492 275.443H555.545C554.446 275.443 553.582 275.247 553.582 275.05C553.582 274.815 554.446 274.658 555.545 274.658H562.492C563.552 274.658 564.454 274.854 564.454 275.05Z" fill="white"/>
<path d="M564.572 261.781C564.572 262.016 563.709 262.173 562.61 262.173H555.663C554.564 262.173 553.7 261.977 553.7 261.781C553.7 261.545 554.564 261.388 555.663 261.388H562.61C563.709 261.388 564.572 261.584 564.572 261.781Z" fill="white"/>
<path d="M564.454 273.323C564.454 273.558 563.591 273.715 562.492 273.715H555.545C554.446 273.715 553.582 273.519 553.582 273.323C553.582 273.087 554.446 272.93 555.545 272.93H562.492C563.552 272.93 564.454 273.126 564.454 273.323Z" fill="white"/>
<path d="M564.454 271.556C564.454 271.792 563.591 271.949 562.492 271.949H555.545C554.446 271.949 553.582 271.752 553.582 271.556C553.582 271.321 554.446 271.164 555.545 271.164H562.492C563.552 271.164 564.454 271.321 564.454 271.556Z" fill="white"/>
<path d="M559.941 237.99C559.941 239.089 559.077 239.953 557.978 239.953H542.828C541.729 239.953 540.865 239.089 540.865 237.99V202.264C540.865 201.164 541.729 200.301 542.828 200.301H558.017C559.116 200.301 559.98 201.204 559.98 202.264V237.99H559.941Z" fill="#F1F2F2"/>
<g opacity="0.75">
<path opacity="0.75" d="M539.098 237.754C539.098 238.853 538.235 239.717 537.136 239.717H534.349C533.25 239.717 532.387 238.853 532.387 237.754V202.264C532.387 201.164 533.25 200.301 534.349 200.301H537.136C538.235 200.301 539.098 201.164 539.098 202.264V237.754Z" fill="url(#paint31_linear)"/>
</g>
<path d="M521.829 253.693C521.829 254.793 520.966 255.656 519.867 255.656H491.881C490.782 255.656 489.919 254.793 489.919 253.693V243.878C489.919 242.779 490.782 241.916 491.881 241.916H519.867C520.966 241.916 521.829 242.779 521.829 243.878V253.693Z" fill="url(#paint32_linear)"/>
<path d="M404.981 269.554C408.103 269.554 410.633 267.023 410.633 263.9C410.633 260.778 408.103 258.247 404.981 258.247C401.86 258.247 399.329 260.778 399.329 263.9C399.329 267.023 401.86 269.554 404.981 269.554Z" fill="#F1F2F2"/>
<path d="M417.894 194.726C418.892 194.726 419.7 193.917 419.7 192.92C419.7 191.922 418.892 191.114 417.894 191.114C416.897 191.114 416.089 191.922 416.089 192.92C416.089 193.917 416.897 194.726 417.894 194.726Z" fill="url(#paint33_linear)"/>
<path d="M432.456 194.687C433.41 194.687 434.183 193.913 434.183 192.959C434.183 192.005 433.41 191.232 432.456 191.232C431.503 191.232 430.729 192.005 430.729 192.959C430.729 193.913 431.503 194.687 432.456 194.687Z" fill="url(#paint34_linear)"/>
<path d="M550.403 211.803C553.069 211.803 555.231 209.641 555.231 206.974C555.231 204.307 553.069 202.146 550.403 202.146C547.737 202.146 545.575 204.307 545.575 206.974C545.575 209.641 547.737 211.803 550.403 211.803Z" fill="url(#paint35_linear)"/>
<path d="M541.964 263.037C546.191 263.037 549.618 259.61 549.618 255.382C549.618 251.154 546.191 247.726 541.964 247.726C537.737 247.726 534.311 251.154 534.311 255.382C534.311 259.61 537.737 263.037 541.964 263.037Z" fill="url(#paint36_linear)"/>
<path d="M548.794 265.746C548.794 265.942 547.931 266.06 546.832 266.06H536.823C535.724 266.06 534.86 265.903 534.86 265.746C534.86 265.589 535.724 265.432 536.823 265.432H546.832C547.891 265.432 548.794 265.589 548.794 265.746Z" fill="url(#paint37_linear)"/>
<path d="M548.794 267.159C548.794 267.356 547.931 267.474 546.832 267.474H536.823C535.724 267.474 534.86 267.317 534.86 267.159C534.86 267.002 535.724 266.845 536.823 266.845H546.832C547.891 266.806 548.794 266.963 548.794 267.159Z" fill="url(#paint38_linear)"/>
<path d="M548.832 268.612C548.832 268.808 547.969 268.926 546.87 268.926H536.861C535.762 268.926 534.898 268.769 534.898 268.612C534.898 268.455 535.762 268.298 536.861 268.298H546.87C547.929 268.298 548.832 268.416 548.832 268.612Z" fill="url(#paint39_linear)"/>
<path d="M548.832 272.499C548.832 272.695 547.969 272.813 546.87 272.813H536.861C535.762 272.813 534.898 272.656 534.898 272.499C534.898 272.302 535.762 272.185 536.861 272.185H546.87C547.929 272.185 548.832 272.302 548.832 272.499Z" fill="url(#paint40_linear)"/>
<path d="M548.832 274.03C548.832 274.226 547.969 274.344 546.87 274.344H536.861C535.762 274.344 534.898 274.187 534.898 274.03C534.898 273.833 535.762 273.716 536.861 273.716H546.87C547.929 273.676 548.832 273.833 548.832 274.03Z" fill="url(#paint41_linear)"/>
<path d="M548.832 275.561C548.832 275.757 547.969 275.875 546.87 275.875H536.861C535.762 275.875 534.898 275.718 534.898 275.561C534.898 275.404 535.762 275.247 536.861 275.247H546.87C547.929 275.247 548.832 275.364 548.832 275.561Z" fill="url(#paint42_linear)"/>
<path d="M548.832 278.584C548.832 278.78 547.969 278.898 546.87 278.898H536.861C535.762 278.898 534.898 278.741 534.898 278.584C534.898 278.387 535.762 278.27 536.861 278.27H546.87C547.929 278.23 548.832 278.387 548.832 278.584Z" fill="url(#paint43_linear)"/>
<path d="M548.832 280.115C548.832 280.311 547.969 280.429 546.87 280.429H536.861C535.762 280.429 534.898 280.272 534.898 280.115C534.898 279.958 535.762 279.801 536.861 279.801H546.87C547.929 279.801 548.832 279.919 548.832 280.115Z" fill="url(#paint44_linear)"/>
<path d="M548.832 281.763C548.832 281.96 547.969 282.078 546.87 282.078H536.861C535.762 282.078 534.898 281.921 534.898 281.763C534.898 281.567 535.762 281.449 536.861 281.449H546.87C547.929 281.41 548.832 281.567 548.832 281.763Z" fill="url(#paint45_linear)"/>
<path d="M202.413 230.844C202.413 231.943 201.549 232.807 200.45 232.807H119.242C118.143 232.807 117.279 231.943 117.279 230.844V140.862C117.279 139.763 118.143 138.899 119.242 138.899H200.45C201.51 138.899 202.413 139.763 202.413 140.862V230.844Z" fill="#939598"/>
<path d="M205.199 226.094C205.278 227.154 204.493 228.136 203.433 228.214L124.148 235.163C123.088 235.241 122.107 234.456 122.028 233.396L114.335 145.573C114.257 144.513 115.042 143.532 116.102 143.453L195.347 136.504C196.407 136.426 197.388 137.211 197.467 138.271L205.199 226.094Z" fill="#B9E5FB"/>
<path d="M239.935 197.788C240.171 198.848 239.464 199.908 238.444 200.104L206.651 206.896C205.591 207.132 204.532 206.425 204.335 205.404L195.857 165.792C195.622 164.732 196.328 163.672 197.349 163.476L229.102 156.684C230.162 156.448 231.222 157.155 231.418 158.176L239.935 197.788Z" fill="#E1F4FD"/>
<path d="M225.648 150.559C225.648 151.658 224.785 152.522 223.686 152.522H205.866C204.767 152.522 203.904 151.658 203.904 150.559V146.555C203.904 145.456 204.767 144.592 205.866 144.592H223.686C224.785 144.592 225.648 145.456 225.648 146.555V150.559Z" fill="#E6E7E8"/>
<path d="M128.308 134.384C128.426 135.444 127.641 136.426 126.581 136.544L108.879 138.467C107.819 138.585 106.838 137.8 106.72 136.74L106.249 132.304C106.132 131.244 106.917 130.262 107.976 130.144L125.678 128.221C126.738 128.103 127.719 128.888 127.837 129.948L128.308 134.384Z" fill="#E6E7E8"/>
<path d="M196.643 181.456C196.603 182.006 195.661 182.32 194.602 182.241L126.424 175.175C125.365 175.057 124.501 174.546 124.58 173.997C124.619 173.447 125.561 173.133 126.621 173.212L194.798 180.278C195.897 180.396 196.721 180.906 196.643 181.456Z" fill="url(#paint46_linear)"/>
<path d="M196.211 185.618C196.172 186.167 195.23 186.481 194.17 186.403L125.993 179.336C124.933 179.218 124.07 178.708 124.148 178.158C124.187 177.609 125.129 177.295 126.189 177.373L194.366 184.44C195.465 184.558 196.29 185.107 196.211 185.618Z" fill="url(#paint47_linear)"/>
<path d="M195.622 190.329C195.583 190.878 194.641 191.192 193.581 191.114L125.404 184.047C124.344 183.929 123.481 183.419 123.559 182.869C123.598 182.32 124.54 182.006 125.6 182.084L193.777 189.151C194.837 189.269 195.661 189.779 195.622 190.329Z" fill="url(#paint48_linear)"/>
<path d="M196.526 209.016C196.526 209.566 195.663 209.998 194.564 209.998H125.994C124.895 209.998 124.031 209.566 124.031 209.016C124.031 208.467 124.895 208.035 125.994 208.035H194.564C195.663 208.074 196.526 208.506 196.526 209.016Z" fill="url(#paint49_linear)"/>
<path d="M196.525 213.217C196.525 213.766 195.662 214.198 194.563 214.198H125.993C124.894 214.198 124.03 213.766 124.03 213.217C124.03 212.667 124.894 212.235 125.993 212.235H194.563C195.662 212.235 196.525 212.706 196.525 213.217Z" fill="url(#paint50_linear)"/>
<path d="M196.407 217.967C196.407 218.517 195.544 218.949 194.445 218.949H125.875C124.776 218.949 123.913 218.517 123.913 217.967C123.913 217.418 124.776 216.986 125.875 216.986H194.445C195.505 216.986 196.407 217.418 196.407 217.967Z" fill="url(#paint51_linear)"/>
<path d="M156.058 203.088C156.058 204.187 155.195 205.051 154.096 205.051H126.11C125.011 205.051 124.148 204.187 124.148 203.088V193.273C124.148 192.174 125.011 191.31 126.11 191.31H154.096C155.195 191.31 156.058 192.174 156.058 193.273V203.088Z" fill="url(#paint52_linear)"/>
<path d="M195.269 174.664C195.19 175.724 194.248 176.588 193.189 176.509L125.522 172.348C124.462 172.269 123.598 171.327 123.677 170.267L125.365 142.589C125.443 141.529 126.385 140.666 127.445 140.744L195.112 144.906C196.172 144.984 197.035 145.926 196.957 146.986L195.269 174.664Z" fill="url(#paint53_linear)"/>
<path d="M238.248 208.467C238.327 209.527 237.463 210.469 236.403 210.547L225.06 211.176C224 211.254 223.058 210.39 222.98 209.33L221.057 174.782C220.978 173.722 221.842 172.78 222.901 172.701L234.245 172.073C235.304 171.995 236.246 172.859 236.325 173.919L238.248 208.467Z" fill="#E6E7E8"/>
<path d="M113.904 134.856C114.021 135.916 113.236 136.897 112.177 137.015L109.704 137.29C108.644 137.408 107.663 136.622 107.545 135.562L107.27 133.128C107.153 132.068 107.938 131.087 108.997 130.969L111.47 130.694C112.53 130.577 113.511 131.362 113.629 132.422L113.904 134.856Z" fill="white"/>
<path d="M127.523 133.364C127.641 134.424 126.856 135.405 125.796 135.523L116.965 136.465C115.905 136.583 114.924 135.798 114.806 134.738L114.532 132.304C114.414 131.244 115.199 130.262 116.259 130.144L125.09 129.202C126.15 129.084 127.131 129.87 127.249 130.93L127.523 133.364Z" fill="white"/>
<path d="M218.466 149.774C218.466 150.873 217.602 151.737 216.503 151.737H206.887C205.788 151.737 204.924 150.873 204.924 149.774V147.497C204.924 146.398 205.788 145.534 206.887 145.534H216.503C217.602 145.534 218.466 146.398 218.466 147.497V149.774Z" fill="white"/>
<path d="M224.903 149.774C224.903 150.873 224.039 151.737 222.94 151.737H220.899C219.8 151.737 218.937 150.873 218.937 149.774V147.497C218.937 146.398 219.8 145.534 220.899 145.534H222.94C224.039 145.534 224.903 146.398 224.903 147.497V149.774Z" fill="white"/>
<path d="M220.742 201.086C220.742 202.185 219.879 203.049 218.78 203.049H207.24C206.141 203.049 205.278 202.185 205.278 201.086V182.634C205.278 181.535 206.141 180.671 207.24 180.671H218.78C219.879 180.671 220.742 181.535 220.742 182.634V201.086Z" fill="white"/>
<path d="M234.322 178.865C234.401 179.925 233.537 180.868 232.478 180.946L225.53 181.339C224.471 181.417 223.529 180.553 223.45 179.493L223.293 176.47C223.215 175.41 224.078 174.468 225.138 174.39L232.085 173.997C233.145 173.919 234.087 174.782 234.165 175.842L234.322 178.865Z" fill="white"/>
<path d="M234.911 191.781C234.99 192.841 234.126 193.784 233.066 193.862L226.119 194.255C225.059 194.333 224.117 193.469 224.039 192.409L223.882 189.386C223.803 188.326 224.667 187.384 225.727 187.306L232.674 186.913C233.734 186.835 234.676 187.698 234.754 188.758L234.911 191.781Z" fill="white"/>
<path d="M235.657 205.012C235.736 206.072 234.872 207.014 233.813 207.093L226.865 207.485C225.806 207.564 224.864 206.7 224.785 205.64L224.628 202.617C224.55 201.557 225.413 200.615 226.473 200.536L233.42 200.144C234.48 200.065 235.422 200.929 235.5 201.989L235.657 205.012Z" fill="white"/>
<path d="M234.44 182.124C234.44 182.359 233.577 182.556 232.517 182.634L225.57 183.027C224.51 183.105 223.607 182.948 223.607 182.752C223.607 182.556 224.471 182.32 225.531 182.242L232.478 181.849C233.538 181.77 234.44 181.888 234.44 182.124Z" fill="white"/>
<path d="M208.261 149.264C208.261 150.363 207.633 151.227 206.848 151.227C206.063 151.227 205.435 150.363 205.435 149.264V147.89C205.435 146.79 206.063 145.927 206.848 145.927C207.633 145.927 208.261 146.79 208.261 147.89V149.264Z" fill="url(#paint54_linear)"/>
<path d="M217.798 146.437C217.798 146.555 216.935 146.633 215.836 146.633H210.89C209.791 146.633 208.928 146.555 208.928 146.437C208.928 146.319 209.791 146.241 210.89 146.241H215.836C216.895 146.201 217.798 146.319 217.798 146.437Z" fill="url(#paint55_linear)"/>
<path d="M217.798 147.379C217.798 147.497 216.935 147.576 215.836 147.576H210.89C209.791 147.576 208.928 147.497 208.928 147.379C208.928 147.262 209.791 147.183 210.89 147.183H215.836C216.895 147.144 217.798 147.262 217.798 147.379Z" fill="url(#paint56_linear)"/>
<path d="M217.798 148.321C217.798 148.439 216.935 148.518 215.836 148.518H210.89C209.791 148.518 208.928 148.439 208.928 148.321C208.928 148.204 209.791 148.125 210.89 148.125H215.836C216.895 148.125 217.798 148.204 217.798 148.321Z" fill="url(#paint57_linear)"/>
<path d="M217.798 149.381C217.798 149.499 216.935 149.578 215.836 149.578H210.89C209.791 149.578 208.928 149.499 208.928 149.381C208.928 149.263 209.791 149.185 210.89 149.185H215.836C216.935 149.146 217.798 149.263 217.798 149.381Z" fill="url(#paint58_linear)"/>
<path d="M217.759 150.363C217.759 150.481 216.896 150.559 215.797 150.559H210.851C209.752 150.559 208.889 150.481 208.889 150.363C208.889 150.245 209.752 150.167 210.851 150.167H215.797C216.896 150.128 217.759 150.245 217.759 150.363Z" fill="url(#paint59_linear)"/>
<path d="M222.194 149.185C222.194 150.284 221.566 151.148 220.781 151.148C219.996 151.148 219.368 150.284 219.368 149.185V147.811C219.368 146.712 219.996 145.848 220.781 145.848C221.566 145.848 222.194 146.712 222.194 147.811V149.185Z" fill="url(#paint60_linear)"/>
<path d="M234.519 183.694C234.519 183.93 233.655 184.126 232.595 184.204L225.648 184.597C224.588 184.676 223.686 184.519 223.686 184.322C223.686 184.087 224.549 183.89 225.609 183.812L232.556 183.419C233.616 183.341 234.519 183.458 234.519 183.694Z" fill="white"/>
<path d="M235.304 198.573C235.304 198.809 234.44 199.005 233.38 199.084L226.433 199.476C225.373 199.555 224.471 199.398 224.471 199.201C224.471 198.966 225.334 198.77 226.394 198.691L233.341 198.298C234.401 198.22 235.264 198.377 235.304 198.573Z" fill="white"/>
<path d="M234.676 185.343C234.676 185.579 233.812 185.775 232.753 185.853L225.805 186.246C224.746 186.324 223.843 186.167 223.843 185.971C223.843 185.775 224.706 185.539 225.766 185.461L232.713 185.068C233.773 184.99 234.676 185.107 234.676 185.343Z" fill="white"/>
<path d="M235.186 196.885C235.186 197.121 234.322 197.317 233.262 197.395L226.315 197.788C225.255 197.866 224.353 197.709 224.353 197.513C224.353 197.317 225.216 197.081 226.276 197.003L233.223 196.61C234.283 196.532 235.186 196.649 235.186 196.885Z" fill="white"/>
<path d="M235.107 195.079C235.107 195.315 234.244 195.511 233.184 195.59L226.237 195.982C225.177 196.061 224.274 195.904 224.274 195.707C224.274 195.472 225.138 195.276 226.198 195.197L233.145 194.804C234.205 194.765 235.068 194.883 235.107 195.079Z" fill="white"/>
<path d="M195.308 203.206C195.308 204.305 194.444 205.169 193.345 205.169H165.36C164.261 205.169 163.397 204.305 163.397 203.206V193.391C163.397 192.292 164.261 191.428 165.36 191.428H193.345C194.444 191.428 195.308 192.292 195.308 193.391V203.206Z" fill="url(#paint61_linear)"/>
<path d="M205.553 182.32C209.78 182.32 213.206 178.892 213.206 174.664C213.206 170.436 209.78 167.009 205.553 167.009C201.326 167.009 197.899 170.436 197.899 174.664C197.899 178.892 201.326 182.32 205.553 182.32Z" fill="url(#paint62_linear)"/>
<path d="M217.681 180.632C217.72 180.828 216.896 181.142 215.836 181.377L206.063 183.458C205.003 183.694 204.1 183.733 204.061 183.537C204.022 183.34 204.846 183.026 205.906 182.791L215.679 180.71C216.739 180.514 217.641 180.475 217.681 180.632Z" fill="url(#paint63_linear)"/>
<path d="M217.956 182.006C217.995 182.202 217.171 182.516 216.111 182.752L206.338 184.832C205.278 185.068 204.375 185.107 204.336 184.911C204.297 184.714 205.121 184.4 206.181 184.165L215.954 182.084C217.053 181.888 217.916 181.849 217.956 182.006Z" fill="url(#paint64_linear)"/>
<path d="M218.309 183.419C218.348 183.615 217.524 183.93 216.464 184.165L206.691 186.246C205.631 186.481 204.728 186.521 204.689 186.324C204.65 186.128 205.474 185.814 206.534 185.578L216.307 183.498C217.406 183.301 218.309 183.262 218.309 183.419Z" fill="url(#paint65_linear)"/>
<path d="M219.133 187.227C219.172 187.424 218.348 187.738 217.288 187.973L207.515 190.054C206.455 190.29 205.552 190.329 205.513 190.132C205.474 189.936 206.298 189.622 207.358 189.387L217.131 187.306C218.191 187.109 219.094 187.07 219.133 187.227Z" fill="url(#paint66_linear)"/>
<path d="M219.447 188.719C219.487 188.916 218.662 189.23 217.603 189.465L207.829 191.546C206.77 191.782 205.867 191.821 205.828 191.625C205.788 191.428 206.612 191.114 207.672 190.879L217.446 188.798C218.505 188.562 219.408 188.523 219.447 188.719Z" fill="url(#paint67_linear)"/>
<path d="M219.761 190.25C219.8 190.446 218.976 190.761 217.916 190.996L208.143 193.077C207.083 193.312 206.18 193.352 206.141 193.155C206.102 192.959 206.926 192.645 207.986 192.409L217.759 190.329C218.858 190.093 219.761 190.054 219.761 190.25Z" fill="url(#paint68_linear)"/>
<path d="M220.389 193.195C220.428 193.391 219.604 193.705 218.544 193.941L208.771 196.022C207.711 196.257 206.808 196.296 206.769 196.1C206.73 195.904 207.554 195.59 208.614 195.354L218.387 193.274C219.486 193.038 220.389 192.999 220.389 193.195Z" fill="url(#paint69_linear)"/>
<path d="M220.742 194.687C220.781 194.883 219.957 195.197 218.897 195.433L209.124 197.513C208.064 197.749 207.162 197.788 207.122 197.592C207.083 197.396 207.907 197.082 208.967 196.846L218.74 194.765C219.8 194.53 220.703 194.49 220.742 194.687Z" fill="url(#paint70_linear)"/>
<path d="M221.056 196.296C221.095 196.492 220.271 196.806 219.211 197.042L209.438 199.123C208.378 199.358 207.476 199.398 207.436 199.201C207.397 199.005 208.221 198.691 209.281 198.455L219.054 196.375C220.153 196.139 221.017 196.1 221.056 196.296Z" fill="url(#paint71_linear)"/>
<path d="M112.059 238.618C111.588 239.599 110.41 240.031 109.429 239.56L69.5511 220.755C68.5698 220.284 68.1381 219.106 68.6091 218.124L87.4491 178.237C87.9201 177.255 89.0976 176.824 90.0788 177.295L129.957 196.1C130.938 196.571 131.37 197.749 130.899 198.73L112.059 238.618Z" fill="#E1F4FD"/>
<g opacity="0.75">
<g opacity="0.75">
<path opacity="0.75" d="M126.777 200.183C126.581 200.575 125.639 200.497 124.697 200.026L91.4524 184.361C90.4711 183.89 89.8039 183.223 90.0001 182.83C90.1964 182.437 91.1384 182.516 92.0804 182.987L125.286 198.651C126.267 199.123 126.934 199.79 126.777 200.183Z" fill="url(#paint72_linear)"/>
</g>
<g opacity="0.75">
<path opacity="0.75" d="M125.365 203.127C125.168 203.519 124.226 203.441 123.284 202.97L90.0788 187.305C89.0976 186.834 88.4303 186.167 88.6266 185.774C88.8228 185.382 89.7648 185.46 90.7068 185.931L123.912 201.596C124.894 202.067 125.561 202.774 125.365 203.127Z" fill="url(#paint73_linear)"/>
</g>
<g opacity="0.75">
<path opacity="0.75" d="M123.716 206.425C123.52 206.817 122.578 206.739 121.636 206.268L88.4304 190.603C87.4492 190.132 86.7819 189.465 86.9782 189.072C87.1744 188.68 88.1164 188.758 89.0584 189.229L122.264 204.894C123.245 205.365 123.912 206.071 123.716 206.425Z" fill="url(#paint74_linear)"/>
</g>
</g>
<path d="M101.5 216.476C101.304 216.868 100.362 216.79 99.4201 216.319L66.2146 200.654C65.2333 200.183 64.5661 199.516 64.7623 199.123C64.9586 198.73 65.9006 198.809 66.8426 199.28L100.048 214.944C101.029 215.416 101.697 216.083 101.5 216.476Z" fill="url(#paint75_linear)"/>
<path d="M100.127 219.42C99.9305 219.812 98.9885 219.734 98.0465 219.263L64.841 203.598C63.8598 203.127 63.1925 202.46 63.3888 202.067C63.585 201.675 64.527 201.753 65.469 202.224L98.6745 217.889C99.6558 218.36 100.323 219.027 100.127 219.42Z" fill="url(#paint76_linear)"/>
<path d="M98.4784 222.718C98.2821 223.11 97.3401 223.032 96.3981 222.561L63.1926 206.896C62.2114 206.425 61.5441 205.758 61.7404 205.365C61.9366 204.973 62.8786 205.051 63.8206 205.522L97.0261 221.187C98.0074 221.658 98.6746 222.325 98.4784 222.718Z" fill="url(#paint77_linear)"/>
<path d="M121.597 208.349C121.479 208.741 120.537 208.859 119.517 208.584L83.9954 199.319C82.9356 199.044 82.1899 198.495 82.3076 198.102C82.4254 197.71 83.3674 197.592 84.3879 197.867L119.909 207.132C120.93 207.407 121.675 207.956 121.597 208.349Z" fill="white"/>
<path d="M120.773 211.489C120.655 211.882 119.713 212 118.692 211.725L83.1712 202.46C82.1114 202.185 81.3657 201.635 81.4834 201.243C81.6012 200.85 82.5432 200.732 83.5637 201.007L119.085 210.272C120.105 210.547 120.851 211.097 120.773 211.489Z" fill="white"/>
<path d="M119.752 215.062C119.634 215.455 118.692 215.573 117.672 215.298L82.1507 206.033C81.0909 205.758 80.3452 205.208 80.4629 204.816C80.5807 204.423 81.5227 204.305 82.5432 204.58L118.064 213.845C119.085 214.081 119.87 214.63 119.752 215.062Z" fill="white"/>
<path d="M112.216 236.223C112.294 237.283 111.509 238.264 110.41 238.343L75.1247 241.248C74.065 241.327 73.0837 240.542 73.0052 239.442L72.024 227.743C71.9455 226.683 72.7305 225.702 73.8295 225.623L109.115 222.718C110.175 222.639 111.156 223.424 111.235 224.524L112.216 236.223Z" fill="url(#paint78_linear)"/>
<path d="M109.743 225.662C109.743 225.898 108.88 226.133 107.82 226.212L88.98 227.782C87.9203 227.861 87.0175 227.782 86.9783 227.547C86.939 227.311 87.8418 227.076 88.9015 226.997L107.742 225.427C108.841 225.309 109.743 225.427 109.743 225.662Z" fill="white"/>
<path d="M109.9 227.429C109.9 227.664 109.037 227.9 107.977 227.978L89.1368 229.549C88.077 229.627 87.1743 229.549 87.135 229.313C87.0958 229.077 87.9985 228.842 89.0583 228.763L107.898 227.193C108.997 227.115 109.9 227.232 109.9 227.429Z" fill="white"/>
<path d="M110.057 229.235C110.057 229.47 109.193 229.706 108.134 229.784L89.2937 231.355C88.234 231.433 87.3312 231.355 87.292 231.119C87.292 230.884 88.1555 230.648 89.2152 230.57L108.055 228.999C109.154 228.921 110.057 229.038 110.057 229.235Z" fill="white"/>
<path d="M110.332 232.415C110.332 232.651 109.468 232.886 108.409 232.965L89.5686 234.535C88.5089 234.614 87.6061 234.535 87.5669 234.3C87.5669 234.064 88.4304 233.828 89.4901 233.75L108.33 232.18C109.39 232.062 110.293 232.179 110.332 232.415Z" fill="white"/>
<path d="M110.528 234.299C110.528 234.535 109.665 234.77 108.605 234.849L89.7649 236.419C88.7052 236.498 87.8024 236.419 87.7632 236.184C87.7632 235.948 88.6267 235.713 89.6864 235.634L108.526 234.064C109.625 233.985 110.528 234.103 110.528 234.299Z" fill="white"/>
<path d="M110.685 236.262C110.685 236.498 109.822 236.733 108.762 236.812L89.9222 238.382C88.8624 238.461 87.9597 238.382 87.9204 238.147C87.9204 237.911 88.7839 237.675 89.8437 237.597L108.684 236.027C109.783 235.948 110.685 236.066 110.685 236.262Z" fill="white"/>
<path d="M80.0309 238.578C83.1524 238.578 85.6829 236.047 85.6829 232.925C85.6829 229.803 83.1524 227.271 80.0309 227.271C76.9094 227.271 74.3789 229.803 74.3789 232.925C74.3789 236.047 76.9094 238.578 80.0309 238.578Z" fill="#F1F2F2"/>
<path d="M129.878 169.757C130.271 170.738 129.8 171.916 128.818 172.309L103.62 182.634C102.639 183.026 101.461 182.555 101.069 181.574L89.4898 153.386C89.0973 152.404 89.5683 151.226 90.5496 150.834L115.748 140.469C116.729 140.077 117.907 140.548 118.299 141.529L129.878 169.757Z" fill="#CCECFC"/>
<path d="M124.894 162.808C125.051 163.161 124.344 163.75 123.324 164.182L101.501 173.133C100.519 173.526 99.5773 173.604 99.4203 173.251C99.2633 172.897 99.9698 172.309 100.99 171.877L122.853 162.926C123.834 162.494 124.776 162.455 124.894 162.808Z" fill="url(#paint79_linear)"/>
<path d="M239.621 163.515C239.778 163.868 239.072 164.457 238.051 164.889L216.189 173.84C215.208 174.232 214.266 174.311 214.109 173.958C213.952 173.604 214.658 173.015 215.679 172.583L237.541 163.632C238.522 163.24 239.464 163.2 239.621 163.515Z" fill="url(#paint80_linear)"/>
<path d="M237.973 160.217C238.13 160.57 237.423 161.159 236.403 161.591L214.541 170.542C213.559 170.934 212.617 171.013 212.46 170.66C212.303 170.306 213.01 169.717 214.03 169.286L235.893 160.334C236.874 159.942 237.816 159.903 237.973 160.217Z" fill="url(#paint81_linear)"/>
<path d="M126.15 165.635C126.307 165.988 125.6 166.577 124.58 167.009L102.717 175.96C101.736 176.352 100.794 176.431 100.637 176.078C100.48 175.724 101.187 175.135 102.207 174.704L124.069 165.752C125.09 165.36 126.032 165.321 126.15 165.635Z" fill="url(#paint82_linear)"/>
<path d="M127.209 168.501C127.366 168.854 126.66 169.443 125.639 169.875L103.777 178.826C102.796 179.218 101.854 179.297 101.697 178.944C101.54 178.59 102.246 178.001 103.267 177.569L125.129 168.618C126.11 168.226 127.052 168.147 127.209 168.501Z" fill="url(#paint83_linear)"/>
<path d="M122.185 159.707C122.421 160.767 121.754 161.827 120.694 162.062L111.235 164.143C110.175 164.378 109.115 163.711 108.88 162.651L105.622 147.85C105.386 146.79 106.054 145.73 107.113 145.495L116.573 143.414C117.632 143.178 118.692 143.846 118.928 144.906L122.185 159.707Z" fill="#C7C8CA"/>
<path d="M109.704 163.672C110.096 164.653 109.625 165.831 108.644 166.224L99.6951 169.875C98.7139 170.267 97.5364 169.796 97.1439 168.815L91.3741 154.799C90.9816 153.818 91.4526 152.64 92.4339 152.247L101.383 148.596C102.364 148.204 103.542 148.675 103.934 149.656L109.704 163.672Z" fill="#C7C8CA"/>
<path d="M104.405 154.328C104.798 155.309 104.327 156.487 103.345 156.88L96.9083 159.51C95.9271 159.903 94.7496 159.432 94.3571 158.45L93.2188 155.663C92.8263 154.681 93.2973 153.504 94.2786 153.111L100.716 150.481C101.697 150.088 102.874 150.559 103.267 151.541L104.405 154.328Z" fill="#F1F2F2"/>
<path d="M117.868 148.989C118.26 149.971 117.789 151.148 116.808 151.541L110.371 154.171C109.39 154.564 108.212 154.093 107.82 153.111L106.681 150.324C106.289 149.342 106.76 148.165 107.741 147.772L114.178 145.142C115.159 144.749 116.337 145.22 116.729 146.202L117.868 148.989Z" fill="white"/>
<path d="M105.897 158.019C105.975 158.215 105.23 158.725 104.248 159.118L97.8114 161.748C96.8302 162.141 95.9274 162.337 95.8489 162.141C95.7704 161.945 96.5162 161.434 97.4974 161.042L103.934 158.411C104.916 157.979 105.818 157.822 105.897 158.019Z" fill="white"/>
<path d="M102.835 155.27C102.874 155.388 102.128 155.859 101.108 156.252L98.1249 157.469C97.1437 157.861 96.2802 158.097 96.2017 157.979C96.1624 157.861 96.9082 157.39 97.9287 156.998L100.912 155.781C101.932 155.388 102.796 155.152 102.835 155.27Z" fill="url(#paint84_linear)"/>
<path d="M116.337 149.695C116.377 149.813 115.631 150.284 114.61 150.677L111.627 151.894C110.646 152.287 109.783 152.522 109.704 152.404C109.665 152.287 110.411 151.815 111.431 151.423L114.414 150.206C115.395 149.813 116.259 149.578 116.337 149.695Z" fill="url(#paint85_linear)"/>
<path d="M119.359 152.483C119.438 152.679 118.692 153.19 117.711 153.582L111.274 156.213C110.293 156.605 109.39 156.801 109.311 156.605C109.233 156.409 109.979 155.899 110.96 155.506L117.397 152.876C118.378 152.444 119.281 152.287 119.359 152.483Z" fill="white"/>
<path d="M119.987 154.092C120.066 154.289 119.32 154.799 118.339 155.192L111.902 157.822C110.921 158.215 110.018 158.411 109.939 158.215C109.861 158.018 110.607 157.508 111.588 157.115L118.025 154.485C119.045 154.053 119.909 153.857 119.987 154.092Z" fill="white"/>
<path d="M120.694 155.781C120.772 155.977 120.027 156.487 119.045 156.88L112.608 159.51C111.627 159.903 110.724 160.099 110.646 159.903C110.567 159.707 111.313 159.196 112.294 158.804L118.731 156.173C119.752 155.781 120.615 155.584 120.694 155.781Z" fill="white"/>
<path d="M121.322 157.469C121.401 157.665 120.655 158.175 119.674 158.568L113.237 161.198C112.255 161.591 111.353 161.787 111.274 161.591C111.196 161.395 111.941 160.884 112.923 160.492L119.36 157.861C120.341 157.43 121.244 157.273 121.322 157.469Z" fill="white"/>
<path d="M106.799 160.531C106.838 160.727 106.014 161.12 104.954 161.355L98.1642 162.886C97.1045 163.122 96.2017 163.161 96.1625 162.926C96.1232 162.729 96.9475 162.337 98.0072 162.101L104.797 160.57C105.857 160.335 106.76 160.295 106.799 160.531Z" fill="white"/>
<path d="M107.231 161.238C107.309 161.434 106.564 161.945 105.582 162.337L99.1454 164.967C98.1642 165.36 97.2614 165.556 97.1829 165.36C97.1044 165.164 97.8502 164.653 98.8314 164.261L105.268 161.63C106.289 161.199 107.152 161.042 107.231 161.238Z" fill="white"/>
<path d="M107.898 162.926C107.977 163.122 107.231 163.633 106.25 164.025L99.8129 166.656C98.8316 167.048 97.9289 167.245 97.8504 167.048C97.7719 166.852 98.5176 166.342 99.4989 165.949L105.936 163.319C106.917 162.887 107.82 162.69 107.898 162.926Z" fill="white"/>
<path d="M93.5716 158.097C94.5688 158.097 95.3771 157.289 95.3771 156.291C95.3771 155.294 94.5688 154.485 93.5716 154.485C92.5745 154.485 91.7661 155.294 91.7661 156.291C91.7661 157.289 92.5745 158.097 93.5716 158.097Z" fill="url(#paint86_linear)"/>
<path d="M111.941 150.363C112.895 150.363 113.668 149.59 113.668 148.636C113.668 147.682 112.895 146.908 111.941 146.908C110.988 146.908 110.214 147.682 110.214 148.636C110.214 149.59 110.988 150.363 111.941 150.363Z" fill="url(#paint87_linear)"/>
<path d="M198.409 239.246C198.33 240.306 197.388 241.13 196.329 241.091L169.128 239.364C168.069 239.285 167.244 238.343 167.284 237.283L169.796 197.827C169.874 196.767 170.816 195.943 171.876 195.982L199.076 197.71C200.136 197.788 200.96 198.73 200.921 199.79L198.409 239.246Z" fill="#C9EBFC"/>
<path d="M200.882 234.849C201.078 235.909 200.372 236.93 199.273 237.126L184.318 239.756C183.259 239.953 182.238 239.246 182.042 238.147L175.84 202.97C175.644 201.91 176.351 200.89 177.45 200.693L192.404 198.063C193.464 197.867 194.484 198.573 194.68 199.673L200.882 234.849Z" fill="#F1F2F2"/>
<g opacity="0.75">
<path opacity="0.75" d="M175.84 235.791C175.761 236.851 174.819 237.675 173.76 237.597L170.973 237.401C169.913 237.322 169.089 236.38 169.167 235.32L171.719 199.947C171.797 198.887 172.739 198.063 173.799 198.141L176.586 198.338C177.645 198.416 178.47 199.358 178.391 200.418L175.84 235.791Z" fill="url(#paint88_linear)"/>
</g>
<path d="M189.224 210.587C191.89 210.587 194.052 208.425 194.052 205.758C194.052 203.091 191.89 200.929 189.224 200.929C186.558 200.929 184.396 203.091 184.396 205.758C184.396 208.425 186.558 210.587 189.224 210.587Z" fill="url(#paint89_linear)"/>
<path d="M196.211 244.585C198.877 244.585 201.038 242.423 201.038 239.756C201.038 237.089 198.877 234.927 196.211 234.927C193.544 234.927 191.383 237.089 191.383 239.756C191.383 242.423 193.544 244.585 196.211 244.585Z" fill="url(#paint90_linear)"/>
<path d="M190.834 141.019C191.109 142.079 190.481 143.139 189.46 143.414L172.229 148.007C171.17 148.282 170.11 147.654 169.835 146.633L168.815 142.747C168.54 141.687 169.168 140.627 170.188 140.352L187.419 135.759C188.479 135.484 189.539 136.112 189.813 137.133L190.834 141.019Z" fill="#E1F4FD"/>
<path d="M188.361 139.606C188.636 140.666 188.008 141.726 186.987 142.001L173.564 145.573C172.504 145.848 171.444 145.22 171.17 144.199L171.091 143.885C170.816 142.825 171.444 141.765 172.465 141.49L185.888 137.918C186.948 137.643 188.008 138.271 188.283 139.292L188.361 139.606Z" fill="white"/>
</g>
<defs>
<filter id="filter0_d" x="-25" y="-10" width="678" height="474" filterUnits="userSpaceOnUse" color-interpolation-filters="sRGB">
<feFlood flood-opacity="0" result="BackgroundImageFix"/>
<feColorMatrix in="SourceAlpha" type="matrix" values="0 0 0 0 0 0 0 0 0 0 0 0 0 0 0 0 0 0 127 0" result="hardAlpha"/>
<feOffset dy="15"/>
<feGaussianBlur stdDeviation="12.5"/>
<feColorMatrix type="matrix" values="0 0 0 0 0 0 0 0 0 0 0 0 0 0 0 0 0 0 0.25 0"/>
<feBlend mode="normal" in2="BackgroundImageFix" result="effect1_dropShadow"/>
<feBlend mode="normal" in="SourceGraphic" in2="effect1_dropShadow" result="shape"/>
</filter>
<linearGradient id="paint0_linear" x1="238.869" y1="302.562" x2="167.162" y2="302.562" gradientUnits="userSpaceOnUse">
<stop stop-color="#7DD3F7"/>
<stop offset="1" stop-color="#43B5E8"/>
</linearGradient>
<linearGradient id="paint1_linear" x1="276.305" y1="312.932" x2="204.599" y2="312.932" gradientUnits="userSpaceOnUse">
<stop stop-color="#7DD3F7"/>
<stop offset="1" stop-color="#43B5E8"/>
</linearGradient>
<linearGradient id="paint2_linear" x1="332.657" y1="316.968" x2="260.951" y2="316.968" gradientUnits="userSpaceOnUse">
<stop stop-color="#7DD3F7"/>
<stop offset="1" stop-color="#43B5E8"/>
</linearGradient>
<linearGradient id="paint3_linear" x1="200.648" y1="297.692" x2="128.942" y2="297.692" gradientUnits="userSpaceOnUse">
<stop stop-color="#7DD3F7"/>
<stop offset="1" stop-color="#43B5E8"/>
</linearGradient>
<linearGradient id="paint4_linear" x1="243.271" y1="337.627" x2="171.565" y2="337.627" gradientUnits="userSpaceOnUse">
<stop stop-color="#7DD3F7"/>
<stop offset="1" stop-color="#43B5E8"/>
</linearGradient>
<linearGradient id="paint5_linear" x1="458.891" y1="338.321" x2="387.184" y2="338.321" gradientUnits="userSpaceOnUse">
<stop stop-color="#7DD3F7"/>
<stop offset="1" stop-color="#43B5E8"/>
</linearGradient>
<linearGradient id="paint6_linear" x1="178.84" y1="315.588" x2="107.133" y2="315.588" gradientUnits="userSpaceOnUse">
<stop stop-color="#7DD3F7"/>
<stop offset="1" stop-color="#43B5E8"/>
</linearGradient>
<linearGradient id="paint7_linear" x1="450.457" y1="228.176" x2="522.942" y2="228.176" gradientUnits="userSpaceOnUse">
<stop stop-color="#7DD3F7"/>
<stop offset="1" stop-color="#43B5E8"/>
</linearGradient>
<linearGradient id="paint8_linear" x1="450.457" y1="232.366" x2="522.942" y2="232.366" gradientUnits="userSpaceOnUse">
<stop stop-color="#7DD3F7"/>
<stop offset="1" stop-color="#43B5E8"/>
</linearGradient>
<linearGradient id="paint9_linear" x1="450.322" y1="237.096" x2="522.806" y2="237.096" gradientUnits="userSpaceOnUse">
<stop stop-color="#7DD3F7"/>
<stop offset="1" stop-color="#43B5E8"/>
</linearGradient>
<linearGradient id="paint10_linear" x1="397.515" y1="228.953" x2="438.148" y2="228.953" gradientUnits="userSpaceOnUse">
<stop stop-color="#7DD3F7"/>
<stop offset="1" stop-color="#43B5E8"/>
</linearGradient>
<linearGradient id="paint11_linear" x1="397.514" y1="232.215" x2="438.147" y2="232.215" gradientUnits="userSpaceOnUse">
<stop stop-color="#7DD3F7"/>
<stop offset="1" stop-color="#43B5E8"/>
</linearGradient>
<linearGradient id="paint12_linear" x1="397.439" y1="235.897" x2="438.071" y2="235.897" gradientUnits="userSpaceOnUse">
<stop stop-color="#7DD3F7"/>
<stop offset="1" stop-color="#43B5E8"/>
</linearGradient>
<linearGradient id="paint13_linear" x1="411.541" y1="210.964" x2="439.095" y2="210.964" gradientUnits="userSpaceOnUse">
<stop stop-color="#7DD3F7"/>
<stop offset="1" stop-color="#43B5E8"/>
</linearGradient>
<linearGradient id="paint14_linear" x1="411.619" y1="214.081" x2="439.173" y2="214.081" gradientUnits="userSpaceOnUse">
<stop stop-color="#7DD3F7"/>
<stop offset="1" stop-color="#43B5E8"/>
</linearGradient>
<linearGradient id="paint15_linear" x1="411.49" y1="217.107" x2="439.043" y2="217.107" gradientUnits="userSpaceOnUse">
<stop stop-color="#7DD3F7"/>
<stop offset="1" stop-color="#43B5E8"/>
</linearGradient>
<linearGradient id="paint16_linear" x1="450.593" y1="259.528" x2="523.078" y2="259.528" gradientUnits="userSpaceOnUse">
<stop stop-color="#7DD3F7"/>
<stop offset="1" stop-color="#43B5E8"/>
</linearGradient>
<linearGradient id="paint17_linear" x1="450.592" y1="263.717" x2="523.077" y2="263.717" gradientUnits="userSpaceOnUse">
<stop stop-color="#7DD3F7"/>
<stop offset="1" stop-color="#43B5E8"/>
</linearGradient>
<linearGradient id="paint18_linear" x1="450.457" y1="268.447" x2="522.942" y2="268.447" gradientUnits="userSpaceOnUse">
<stop stop-color="#7DD3F7"/>
<stop offset="1" stop-color="#43B5E8"/>
</linearGradient>
<linearGradient id="paint19_linear" x1="450.729" y1="248.659" x2="482.626" y2="248.659" gradientUnits="userSpaceOnUse">
<stop stop-color="#7DD3F7"/>
<stop offset="1" stop-color="#43B5E8"/>
</linearGradient>
<linearGradient id="paint20_linear" x1="450.999" y1="209.139" x2="522.718" y2="209.139" gradientUnits="userSpaceOnUse">
<stop stop-color="#7DD3F7"/>
<stop offset="1" stop-color="#43B5E8"/>
</linearGradient>
<linearGradient id="paint21_linear" x1="397.439" y1="263.959" x2="436.78" y2="263.959" gradientUnits="userSpaceOnUse">
<stop stop-color="#7DD3F7"/>
<stop offset="1" stop-color="#43B5E8"/>
</linearGradient>
<linearGradient id="paint22_linear" x1="414.404" y1="195.64" x2="421.536" y2="195.64" gradientUnits="userSpaceOnUse">
<stop stop-color="#71459B"/>
<stop offset="0.8668" stop-color="#A76DAE"/>
</linearGradient>
<linearGradient id="paint23_linear" x1="428.989" y1="195.601" x2="436.121" y2="195.601" gradientUnits="userSpaceOnUse">
<stop stop-color="#71459B"/>
<stop offset="0.8668" stop-color="#A76DAE"/>
</linearGradient>
<linearGradient id="paint24_linear" x1="532.778" y1="192.661" x2="535.59" y2="192.661" gradientUnits="userSpaceOnUse">
<stop stop-color="#71459B"/>
<stop offset="0.8668" stop-color="#A76DAE"/>
</linearGradient>
<linearGradient id="paint25_linear" x1="536.248" y1="190.493" x2="545.109" y2="190.493" gradientUnits="userSpaceOnUse">
<stop stop-color="#71459B"/>
<stop offset="0.8668" stop-color="#A76DAE"/>
</linearGradient>
<linearGradient id="paint26_linear" x1="536.248" y1="191.434" x2="545.109" y2="191.434" gradientUnits="userSpaceOnUse">
<stop stop-color="#71459B"/>
<stop offset="0.8668" stop-color="#A76DAE"/>
</linearGradient>
<linearGradient id="paint27_linear" x1="536.248" y1="192.39" x2="545.109" y2="192.39" gradientUnits="userSpaceOnUse">
<stop stop-color="#71459B"/>
<stop offset="0.8668" stop-color="#A76DAE"/>
</linearGradient>
<linearGradient id="paint28_linear" x1="536.262" y1="193.432" x2="545.123" y2="193.432" gradientUnits="userSpaceOnUse">
<stop stop-color="#71459B"/>
<stop offset="0.8668" stop-color="#A76DAE"/>
</linearGradient>
<linearGradient id="paint29_linear" x1="536.234" y1="194.418" x2="545.095" y2="194.418" gradientUnits="userSpaceOnUse">
<stop stop-color="#71459B"/>
<stop offset="0.8668" stop-color="#A76DAE"/>
</linearGradient>
<linearGradient id="paint30_linear" x1="546.71" y1="192.565" x2="549.522" y2="192.565" gradientUnits="userSpaceOnUse">
<stop stop-color="#71459B"/>
<stop offset="0.8668" stop-color="#A76DAE"/>
</linearGradient>
<linearGradient id="paint31_linear" x1="532.399" y1="219.998" x2="539.11" y2="219.998" gradientUnits="userSpaceOnUse">
<stop stop-color="#7DD3F7"/>
<stop offset="1" stop-color="#43B5E8"/>
</linearGradient>
<linearGradient id="paint32_linear" x1="489.943" y1="248.794" x2="521.84" y2="248.794" gradientUnits="userSpaceOnUse">
<stop stop-color="#7DD3F7"/>
<stop offset="1" stop-color="#43B5E8"/>
</linearGradient>
<linearGradient id="paint33_linear" x1="416.059" y1="192.921" x2="419.706" y2="192.921" gradientUnits="userSpaceOnUse">
<stop stop-color="#71459B"/>
<stop offset="0.8668" stop-color="#A76DAE"/>
</linearGradient>
<linearGradient id="paint34_linear" x1="430.736" y1="192.95" x2="434.202" y2="192.95" gradientUnits="userSpaceOnUse">
<stop stop-color="#71459B"/>
<stop offset="0.8668" stop-color="#A76DAE"/>
</linearGradient>
<linearGradient id="paint35_linear" x1="545.596" y1="206.962" x2="555.242" y2="206.962" gradientUnits="userSpaceOnUse">
<stop stop-color="#7DD3F7"/>
<stop offset="1" stop-color="#43B5E8"/>
</linearGradient>
<linearGradient id="paint36_linear" x1="534.309" y1="255.389" x2="549.634" y2="255.389" gradientUnits="userSpaceOnUse">
<stop stop-color="#7DD3F7"/>
<stop offset="1" stop-color="#43B5E8"/>
</linearGradient>
<linearGradient id="paint37_linear" x1="534.855" y1="265.755" x2="548.777" y2="265.755" gradientUnits="userSpaceOnUse">
<stop stop-color="#71459B"/>
<stop offset="0.8668" stop-color="#A76DAE"/>
</linearGradient>
<linearGradient id="paint38_linear" x1="534.855" y1="267.148" x2="548.777" y2="267.148" gradientUnits="userSpaceOnUse">
<stop stop-color="#71459B"/>
<stop offset="0.8668" stop-color="#A76DAE"/>
</linearGradient>
<linearGradient id="paint39_linear" x1="534.905" y1="268.617" x2="548.827" y2="268.617" gradientUnits="userSpaceOnUse">
<stop stop-color="#71459B"/>
<stop offset="0.8668" stop-color="#A76DAE"/>
</linearGradient>
<linearGradient id="paint40_linear" x1="534.906" y1="272.5" x2="548.828" y2="272.5" gradientUnits="userSpaceOnUse">
<stop stop-color="#71459B"/>
<stop offset="0.8668" stop-color="#A76DAE"/>
</linearGradient>
<linearGradient id="paint41_linear" x1="534.906" y1="274.019" x2="548.828" y2="274.019" gradientUnits="userSpaceOnUse">
<stop stop-color="#71459B"/>
<stop offset="0.8668" stop-color="#A76DAE"/>
</linearGradient>
<linearGradient id="paint42_linear" x1="534.906" y1="275.564" x2="548.828" y2="275.564" gradientUnits="userSpaceOnUse">
<stop stop-color="#71459B"/>
<stop offset="0.8668" stop-color="#A76DAE"/>
</linearGradient>
<linearGradient id="paint43_linear" x1="534.906" y1="278.575" x2="548.828" y2="278.575" gradientUnits="userSpaceOnUse">
<stop stop-color="#71459B"/>
<stop offset="0.8668" stop-color="#A76DAE"/>
</linearGradient>
<linearGradient id="paint44_linear" x1="534.906" y1="280.12" x2="548.828" y2="280.12" gradientUnits="userSpaceOnUse">
<stop stop-color="#71459B"/>
<stop offset="0.8668" stop-color="#A76DAE"/>
</linearGradient>
<linearGradient id="paint45_linear" x1="534.906" y1="281.745" x2="548.828" y2="281.745" gradientUnits="userSpaceOnUse">
<stop stop-color="#71459B"/>
<stop offset="0.8668" stop-color="#A76DAE"/>
</linearGradient>
<linearGradient id="paint46_linear" x1="124.567" y1="173.979" x2="196.668" y2="181.465" gradientUnits="userSpaceOnUse">
<stop stop-color="#7DD3F7"/>
<stop offset="1" stop-color="#43B5E8"/>
</linearGradient>
<linearGradient id="paint47_linear" x1="124.135" y1="178.147" x2="196.236" y2="185.633" gradientUnits="userSpaceOnUse">
<stop stop-color="#7DD3F7"/>
<stop offset="1" stop-color="#43B5E8"/>
</linearGradient>
<linearGradient id="paint48_linear" x1="123.512" y1="182.838" x2="195.613" y2="190.324" gradientUnits="userSpaceOnUse">
<stop stop-color="#7DD3F7"/>
<stop offset="1" stop-color="#43B5E8"/>
</linearGradient>
<linearGradient id="paint49_linear" x1="124.046" y1="209.034" x2="196.53" y2="209.034" gradientUnits="userSpaceOnUse">
<stop stop-color="#7DD3F7"/>
<stop offset="1" stop-color="#43B5E8"/>
</linearGradient>
<linearGradient id="paint50_linear" x1="124.045" y1="213.224" x2="196.529" y2="213.224" gradientUnits="userSpaceOnUse">
<stop stop-color="#7DD3F7"/>
<stop offset="1" stop-color="#43B5E8"/>
</linearGradient>
<linearGradient id="paint51_linear" x1="123.91" y1="217.954" x2="196.394" y2="217.954" gradientUnits="userSpaceOnUse">
<stop stop-color="#7DD3F7"/>
<stop offset="1" stop-color="#43B5E8"/>
</linearGradient>
<linearGradient id="paint52_linear" x1="124.181" y1="198.165" x2="156.077" y2="198.165" gradientUnits="userSpaceOnUse">
<stop stop-color="#7DD3F7"/>
<stop offset="1" stop-color="#43B5E8"/>
</linearGradient>
<linearGradient id="paint53_linear" x1="124.517" y1="156.44" x2="196.1" y2="160.845" gradientUnits="userSpaceOnUse">
<stop stop-color="#7DD3F7"/>
<stop offset="1" stop-color="#43B5E8"/>
</linearGradient>
<linearGradient id="paint54_linear" x1="205.456" y1="148.595" x2="208.268" y2="148.595" gradientUnits="userSpaceOnUse">
<stop stop-color="#71459B"/>
<stop offset="0.8668" stop-color="#A76DAE"/>
</linearGradient>
<linearGradient id="paint55_linear" x1="208.926" y1="146.427" x2="217.787" y2="146.427" gradientUnits="userSpaceOnUse">
<stop stop-color="#71459B"/>
<stop offset="0.8668" stop-color="#A76DAE"/>
</linearGradient>
<linearGradient id="paint56_linear" x1="208.926" y1="147.368" x2="217.787" y2="147.368" gradientUnits="userSpaceOnUse">
<stop stop-color="#71459B"/>
<stop offset="0.8668" stop-color="#A76DAE"/>
</linearGradient>
<linearGradient id="paint57_linear" x1="208.926" y1="148.324" x2="217.787" y2="148.324" gradientUnits="userSpaceOnUse">
<stop stop-color="#71459B"/>
<stop offset="0.8668" stop-color="#A76DAE"/>
</linearGradient>
<linearGradient id="paint58_linear" x1="208.94" y1="149.366" x2="217.801" y2="149.366" gradientUnits="userSpaceOnUse">
<stop stop-color="#71459B"/>
<stop offset="0.8668" stop-color="#A76DAE"/>
</linearGradient>
<linearGradient id="paint59_linear" x1="208.912" y1="150.353" x2="217.773" y2="150.353" gradientUnits="userSpaceOnUse">
<stop stop-color="#71459B"/>
<stop offset="0.8668" stop-color="#A76DAE"/>
</linearGradient>
<linearGradient id="paint60_linear" x1="219.388" y1="148.499" x2="222.2" y2="148.499" gradientUnits="userSpaceOnUse">
<stop stop-color="#71459B"/>
<stop offset="0.8668" stop-color="#A76DAE"/>
</linearGradient>
<linearGradient id="paint61_linear" x1="163.394" y1="198.302" x2="195.291" y2="198.302" gradientUnits="userSpaceOnUse">
<stop stop-color="#7DD3F7"/>
<stop offset="1" stop-color="#43B5E8"/>
</linearGradient>
<linearGradient id="paint62_linear" x1="198.058" y1="176.272" x2="213.047" y2="173.075" gradientUnits="userSpaceOnUse">
<stop stop-color="#7DD3F7"/>
<stop offset="1" stop-color="#43B5E8"/>
</linearGradient>
<linearGradient id="paint63_linear" x1="204.065" y1="183.569" x2="217.681" y2="180.665" gradientUnits="userSpaceOnUse">
<stop stop-color="#71459B"/>
<stop offset="0.8668" stop-color="#A76DAE"/>
</linearGradient>
<linearGradient id="paint64_linear" x1="204.356" y1="184.932" x2="217.972" y2="182.027" gradientUnits="userSpaceOnUse">
<stop stop-color="#71459B"/>
<stop offset="0.8668" stop-color="#A76DAE"/>
</linearGradient>
<linearGradient id="paint65_linear" x1="204.712" y1="186.358" x2="218.328" y2="183.453" gradientUnits="userSpaceOnUse">
<stop stop-color="#71459B"/>
<stop offset="0.8668" stop-color="#A76DAE"/>
</linearGradient>
<linearGradient id="paint66_linear" x1="205.523" y1="190.156" x2="219.139" y2="187.251" gradientUnits="userSpaceOnUse">
<stop stop-color="#71459B"/>
<stop offset="0.8668" stop-color="#A76DAE"/>
</linearGradient>
<linearGradient id="paint67_linear" x1="205.841" y1="191.641" x2="219.457" y2="188.736" gradientUnits="userSpaceOnUse">
<stop stop-color="#71459B"/>
<stop offset="0.8668" stop-color="#A76DAE"/>
</linearGradient>
<linearGradient id="paint68_linear" x1="206.163" y1="193.152" x2="219.778" y2="190.247" gradientUnits="userSpaceOnUse">
<stop stop-color="#71459B"/>
<stop offset="0.8668" stop-color="#A76DAE"/>
</linearGradient>
<linearGradient id="paint69_linear" x1="206.791" y1="196.097" x2="220.407" y2="193.192" gradientUnits="userSpaceOnUse">
<stop stop-color="#71459B"/>
<stop offset="0.8668" stop-color="#A76DAE"/>
</linearGradient>
<linearGradient id="paint70_linear" x1="207.113" y1="197.608" x2="220.729" y2="194.703" gradientUnits="userSpaceOnUse">
<stop stop-color="#71459B"/>
<stop offset="0.8668" stop-color="#A76DAE"/>
</linearGradient>
<linearGradient id="paint71_linear" x1="207.452" y1="199.197" x2="221.068" y2="196.292" gradientUnits="userSpaceOnUse">
<stop stop-color="#71459B"/>
<stop offset="0.8668" stop-color="#A76DAE"/>
</linearGradient>
<linearGradient id="paint72_linear" x1="90.0196" y1="182.851" x2="126.775" y2="200.178" gradientUnits="userSpaceOnUse">
<stop stop-color="#7DD3F7"/>
<stop offset="1" stop-color="#43B5E8"/>
</linearGradient>
<linearGradient id="paint73_linear" x1="88.6292" y1="185.801" x2="125.384" y2="203.128" gradientUnits="userSpaceOnUse">
<stop stop-color="#7DD3F7"/>
<stop offset="1" stop-color="#43B5E8"/>
</linearGradient>
<linearGradient id="paint74_linear" x1="86.9908" y1="189.099" x2="123.746" y2="206.426" gradientUnits="userSpaceOnUse">
<stop stop-color="#7DD3F7"/>
<stop offset="1" stop-color="#43B5E8"/>
</linearGradient>
<linearGradient id="paint75_linear" x1="64.7771" y1="199.137" x2="101.532" y2="216.464" gradientUnits="userSpaceOnUse">
<stop stop-color="#7DD3F7"/>
<stop offset="1" stop-color="#43B5E8"/>
</linearGradient>
<linearGradient id="paint76_linear" x1="63.3868" y1="202.086" x2="100.142" y2="219.413" gradientUnits="userSpaceOnUse">
<stop stop-color="#7DD3F7"/>
<stop offset="1" stop-color="#43B5E8"/>
</linearGradient>
<linearGradient id="paint77_linear" x1="61.7483" y1="205.385" x2="98.5034" y2="222.712" gradientUnits="userSpaceOnUse">
<stop stop-color="#7DD3F7"/>
<stop offset="1" stop-color="#43B5E8"/>
</linearGradient>
<linearGradient id="paint78_linear" x1="72.5192" y1="233.625" x2="111.726" y2="230.386" gradientUnits="userSpaceOnUse">
<stop stop-color="#7DD3F7"/>
<stop offset="1" stop-color="#43B5E8"/>
</linearGradient>
<linearGradient id="paint79_linear" x1="99.4299" y1="173.258" x2="124.924" y2="162.8" gradientUnits="userSpaceOnUse">
<stop stop-color="#7DD3F7"/>
<stop offset="1" stop-color="#43B5E8"/>
</linearGradient>
<linearGradient id="paint80_linear" x1="214.126" y1="173.986" x2="239.62" y2="163.529" gradientUnits="userSpaceOnUse">
<stop stop-color="#7DD3F7"/>
<stop offset="1" stop-color="#43B5E8"/>
</linearGradient>
<linearGradient id="paint81_linear" x1="212.479" y1="170.693" x2="237.974" y2="160.235" gradientUnits="userSpaceOnUse">
<stop stop-color="#7DD3F7"/>
<stop offset="1" stop-color="#43B5E8"/>
</linearGradient>
<linearGradient id="paint82_linear" x1="100.685" y1="176.113" x2="126.179" y2="165.655" gradientUnits="userSpaceOnUse">
<stop stop-color="#7DD3F7"/>
<stop offset="1" stop-color="#43B5E8"/>
</linearGradient>
<linearGradient id="paint83_linear" x1="101.714" y1="178.962" x2="127.208" y2="168.504" gradientUnits="userSpaceOnUse">
<stop stop-color="#7DD3F7"/>
<stop offset="1" stop-color="#43B5E8"/>
</linearGradient>
<linearGradient id="paint84_linear" x1="96.2629" y1="157.994" x2="102.862" y2="155.287" gradientUnits="userSpaceOnUse">
<stop stop-color="#71459B"/>
<stop offset="0.8668" stop-color="#A76DAE"/>
</linearGradient>
<linearGradient id="paint85_linear" x1="109.742" y1="152.42" x2="116.341" y2="149.713" gradientUnits="userSpaceOnUse">
<stop stop-color="#71459B"/>
<stop offset="0.8668" stop-color="#A76DAE"/>
</linearGradient>
<linearGradient id="paint86_linear" x1="91.8941" y1="156.993" x2="95.269" y2="155.609" gradientUnits="userSpaceOnUse">
<stop stop-color="#71459B"/>
<stop offset="0.8668" stop-color="#A76DAE"/>
</linearGradient>
<linearGradient id="paint87_linear" x1="110.352" y1="149.303" x2="113.56" y2="147.988" gradientUnits="userSpaceOnUse">
<stop stop-color="#71459B"/>
<stop offset="0.8668" stop-color="#A76DAE"/>
</linearGradient>
<linearGradient id="paint88_linear" x1="170.393" y1="217.595" x2="177.087" y2="218.075" gradientUnits="userSpaceOnUse">
<stop stop-color="#7DD3F7"/>
<stop offset="1" stop-color="#43B5E8"/>
</linearGradient>
<linearGradient id="paint89_linear" x1="184.392" y1="205.454" x2="194.018" y2="206.072" gradientUnits="userSpaceOnUse">
<stop stop-color="#7DD3F7"/>
<stop offset="1" stop-color="#43B5E8"/>
</linearGradient>
<linearGradient id="paint90_linear" x1="191.407" y1="239.452" x2="201.032" y2="240.069" gradientUnits="userSpaceOnUse">
<stop stop-color="#7DD3F7"/>
<stop offset="1" stop-color="#43B5E8"/>
</linearGradient>
</defs>
</svg>
