<svg width="643" height="434" viewBox="0 0 643 434" fill="none" xmlns="http://www.w3.org/2000/svg">
<g filter="url(#filter0_d)">
<path d="M319.277 384.627C439.795 384.627 537.495 371.079 537.495 354.367C537.495 337.656 439.795 324.108 319.277 324.108C198.758 324.108 101.059 337.656 101.059 354.367C101.059 371.079 198.758 384.627 319.277 384.627Z" fill="#D1EEFC"/>
<path d="M238.017 338.775H164.595C164.595 338.775 172.391 325.193 169.096 307.672C169.096 307.672 181.393 316.955 180.991 328.046C180.991 328.046 173.195 303.051 181.393 288.021C181.393 288.021 192.887 308.757 189.189 324.108C189.189 324.108 203.536 302.327 197.79 285.892C197.79 285.892 214.186 301.604 212.137 321.978C212.137 321.978 225.68 321.616 225.68 310.887C225.72 310.927 226.524 339.86 238.017 338.775Z" fill="url(#paint0_linear)"/>
<path d="M276.356 335.641H202.934C202.934 335.641 210.73 329.131 207.435 320.732C207.435 320.732 219.732 325.193 219.33 330.497C219.33 330.497 211.534 318.522 219.732 311.329C219.732 311.329 231.226 321.255 227.528 328.609C227.528 328.609 241.875 318.16 236.128 310.284C236.128 310.284 252.525 317.799 250.475 327.564C250.475 327.564 264.019 327.403 264.019 322.259C264.019 322.3 264.863 336.163 276.356 335.641Z" fill="url(#paint1_linear)"/>
<path d="M334.025 331.823H260.603C260.603 331.823 268.399 329.412 265.104 326.278C265.104 326.278 277.401 327.925 276.999 329.894C276.999 329.894 269.203 325.434 277.401 322.741C277.401 322.741 288.895 326.438 285.197 329.171C285.197 329.171 299.544 325.273 293.797 322.339C293.797 322.339 310.194 325.152 308.144 328.769C308.144 328.769 321.687 328.689 321.687 326.8C321.728 326.84 322.572 332.024 334.025 331.823Z" fill="url(#paint2_linear)"/>
<path d="M198.875 342.633H125.452C125.452 342.633 133.249 324.51 129.953 301.162C129.953 301.162 142.251 313.579 141.849 328.327C141.849 328.327 134.052 294.933 142.251 274.921C142.251 274.921 153.744 302.568 150.047 323.103C150.047 323.103 164.394 294.009 158.647 272.068C158.647 272.068 175.044 293.045 172.994 320.25C172.994 320.25 186.537 319.768 186.537 305.462C186.577 305.462 187.381 344.08 198.875 342.633Z" fill="url(#paint3_linear)"/>
<path d="M499.638 314.343L120.067 254.668L122.72 246.39L502.331 306.065L499.638 314.343Z" fill="#20C4F4"/>
<path d="M320.563 283.561H309.391V345.205H320.563V283.561Z" fill="#20C4F4"/>
<path d="M361.233 344.08H270.449V349.545H361.233V344.08Z" fill="#20C4F4"/>
<path d="M271.815 344.08H243.242V353.764H271.815V344.08Z" fill="#20C4F4"/>
<path d="M387.756 344H359.183V353.684H387.756V344Z" fill="#20C4F4"/>
<path d="M242.518 356.256H169.096C169.096 356.256 176.892 352.157 173.597 346.853C173.597 346.853 185.894 349.666 185.492 353.041C185.492 353.041 177.696 345.446 185.894 340.905C185.894 340.905 197.388 347.174 193.69 351.836C193.69 351.836 208.037 345.245 202.291 340.262C202.291 340.262 218.687 345.044 216.637 351.193C216.637 351.193 230.181 351.072 230.181 347.817C230.221 347.817 231.025 356.577 242.518 356.256Z" fill="url(#paint4_linear)"/>
<path d="M201.126 359.39H140.362C140.362 359.39 146.832 357.059 144.1 354.005C144.1 354.005 154.267 355.613 153.946 357.502C153.946 357.502 147.475 353.202 154.267 350.59C154.267 350.59 163.792 354.166 160.737 356.818C160.737 356.818 172.633 353.041 167.851 350.228C167.851 350.228 181.434 352.961 179.746 356.457C179.746 356.457 190.958 356.376 190.958 354.528C190.918 354.608 191.601 359.591 201.126 359.39Z" fill="#A8E0F9"/>
<path d="M463.268 358.305H389.886C389.886 358.305 397.682 353.523 394.387 347.294C394.387 347.294 406.684 350.59 406.282 354.488C406.282 354.488 398.486 345.647 406.684 340.342C406.684 340.342 418.178 347.656 414.48 353.121C414.48 353.121 428.827 345.406 423.081 339.619C423.081 339.619 439.477 345.165 437.428 352.398C437.428 352.398 450.971 352.277 450.971 348.5C450.971 348.46 451.815 358.707 463.268 358.305Z" fill="url(#paint5_linear)"/>
<path d="M176.53 348.621H103.108C103.108 348.621 110.904 336.847 107.609 321.657C107.609 321.657 119.906 329.694 119.504 339.338C119.504 339.338 111.708 317.638 119.906 304.618C119.906 304.618 131.4 322.581 127.703 335.922C127.703 335.922 142.05 317.035 136.303 302.77C136.303 302.77 152.699 316.392 150.65 334.074C150.65 334.074 164.193 333.752 164.193 324.47C164.233 324.429 165.077 349.545 176.53 348.621Z" fill="url(#paint6_linear)"/>
<path d="M100.898 73.3124L183.001 73.0311C183.001 73.0311 178.741 59.4887 162.907 63.6278C162.907 63.6278 156.075 56.1533 145.385 56.1533C134.695 56.1533 131.279 62.2213 131.279 62.2213C131.279 62.2213 128.306 56.957 118.018 57.5196C107.77 58.0822 106.484 63.025 106.484 63.025C106.484 63.025 93.6237 67.4855 100.898 73.3124Z" fill="#E6E7E8"/>
<path d="M389.927 124.628L513.945 124.347C513.945 124.347 507.475 110.805 483.604 114.944C483.604 114.944 473.276 107.469 457.12 107.469C440.965 107.469 435.821 113.537 435.821 113.537C435.821 113.537 431.28 108.273 415.807 108.836C400.335 109.398 398.366 114.341 398.366 114.341C398.366 114.341 378.915 118.801 389.927 124.628Z" fill="#F1F2F2"/>
<path d="M488.546 150.548L617.629 150.266C617.629 150.266 610.917 136.724 586.041 140.863C586.041 140.863 575.271 133.389 558.473 133.389C541.674 133.389 536.289 139.457 536.289 139.457C536.289 139.457 531.587 134.192 515.432 134.755C499.276 135.318 497.267 140.26 497.267 140.26C497.267 140.26 477.133 144.761 488.546 150.548Z" fill="#F1F2F2"/>
<path d="M38.0846 111.046L120.188 110.604C120.188 110.604 115.928 89.1451 100.094 95.6953C100.094 95.6953 93.2621 83.8809 82.5722 83.8809C71.8823 83.8809 68.4664 93.5253 68.4664 93.5253C68.4664 93.5253 65.4925 85.207 55.2045 86.091C44.9165 86.9751 43.6707 94.8514 43.6707 94.8514C43.6707 94.8514 30.8107 101.844 38.0846 111.046Z" fill="#E6E7E8"/>
<path d="M229.981 159.228L312.084 158.947C312.084 158.947 307.824 145.404 291.99 149.543C291.99 149.543 285.158 142.069 274.468 142.069C263.778 142.069 260.362 148.137 260.362 148.137C260.362 148.137 257.389 142.873 247.101 143.435C236.813 143.998 235.567 148.941 235.567 148.941C235.567 148.941 222.707 153.441 229.981 159.228Z" fill="#E6E7E8"/>
<path d="M27.8368 150.588L95.3518 150.226C95.3518 150.226 91.8555 132.666 78.8347 138.05C78.8347 138.05 73.2085 128.366 64.4074 128.366C55.6064 128.366 52.7932 136.242 52.7932 136.242C52.7932 136.242 50.3418 129.451 41.9024 130.134C33.463 130.817 32.4182 137.327 32.4182 137.327C32.4182 137.327 21.8488 143.033 27.8368 150.588Z" fill="#E6E7E8"/>
<path d="M499.035 96.4989L581.138 96.2176C581.138 96.2176 576.879 82.6752 561.045 86.8143C561.045 86.8143 554.213 79.3398 543.523 79.3398C532.833 79.3398 529.417 85.4078 529.417 85.4078C529.417 85.4078 526.443 80.1435 516.155 80.7061C505.907 81.2687 504.621 86.2115 504.621 86.2115C504.621 86.2115 491.761 90.7123 499.035 96.4989Z" fill="#F1F2F2"/>
<path d="M121.674 131.179L304.246 130.777C304.246 130.777 294.722 110.403 259.558 116.632C259.558 116.632 244.327 105.38 220.576 105.38C196.825 105.38 189.189 114.542 189.189 114.542C189.189 114.542 182.518 106.626 159.692 107.47C136.865 108.313 134.012 115.788 134.012 115.788C134.012 115.788 105.519 122.459 121.674 131.179Z" fill="#E6E7E8"/>
<path d="M558.272 71.142L298.098 70.7804C298.098 70.7804 311.641 53.2596 361.795 58.6444C361.795 58.6444 383.496 49 417.374 49C451.252 49 462.103 56.8763 462.103 56.8763C462.103 56.8763 471.587 50.085 504.099 50.8083C536.611 51.5317 540.669 57.9613 540.669 57.9613C540.669 57.9613 581.299 63.6274 558.272 71.142Z" fill="#F1F2F2"/>
<path d="M457.481 92.6412L284.112 92.4804C284.112 92.4804 293.155 84.8452 326.55 87.176C326.55 87.176 340.978 82.9565 363.563 82.9565C386.148 82.9565 393.342 86.3723 393.342 86.3723C393.342 86.3723 399.651 83.3986 421.312 83.7201C442.973 84.0415 445.706 86.8143 445.706 86.8143C445.706 86.8143 472.833 89.346 457.481 92.6412Z" fill="#F1F2F2"/>
<path d="M420.026 362.003H359.263C359.263 362.003 365.733 359.672 363 356.618C363 356.618 373.168 358.225 372.846 360.114C372.846 360.114 366.376 355.814 373.168 353.202C373.168 353.202 382.692 356.778 379.638 359.431C379.638 359.431 391.533 355.653 386.751 352.84C386.751 352.84 400.334 355.573 398.646 359.069C398.646 359.069 409.859 358.989 409.859 357.14C409.859 357.18 410.542 362.203 420.026 362.003Z" fill="#A8E0F9"/>
<path d="M277.844 362.766H217.04C217.04 362.766 223.51 360.435 220.777 357.381C220.777 357.381 230.945 358.988 230.623 360.877C230.623 360.877 224.153 356.577 230.945 353.965C230.945 353.965 240.469 357.542 237.415 360.194C237.415 360.194 249.311 356.416 244.528 353.604C244.528 353.604 258.112 356.336 256.424 359.832C256.424 359.832 267.636 359.752 267.636 357.903C267.636 357.944 268.319 362.927 277.844 362.766Z" fill="#A8E0F9"/>
<path d="M507.193 360.275H446.43C446.43 360.275 452.9 357.944 450.167 354.89C450.167 354.89 460.335 356.497 460.013 358.386C460.013 358.386 453.543 354.086 460.335 351.474C460.335 351.474 469.859 355.05 466.805 357.703C466.805 357.703 478.7 353.925 473.918 351.112C473.918 351.112 487.501 353.845 485.813 357.341C485.813 357.341 497.026 357.261 497.026 355.412C497.026 355.452 497.709 360.475 507.193 360.275Z" fill="#A8E0F9"/>
<path d="M535.646 291.076C535.646 292.201 534.762 293.085 533.636 293.085H448.76C447.635 293.085 446.751 292.201 446.751 291.076V197.083C446.751 195.957 447.635 195.073 448.76 195.073H533.636C534.762 195.073 535.646 195.957 535.646 197.083V291.076Z" fill="#6C6C6C"/>
<path d="M534.078 289.669C534.078 290.794 533.194 291.678 532.069 291.678H450.609C449.484 291.678 448.6 290.794 448.6 289.669V199.413C448.6 198.288 449.484 197.404 450.609 197.404H532.069C533.194 197.404 534.078 198.288 534.078 199.413V289.669Z" fill="#B9E5FB"/>
<path d="M445.224 284.084C445.224 285.209 444.34 286.093 443.215 286.093H398.085C396.959 286.093 396.075 285.209 396.075 284.084V233.852C396.075 232.727 396.959 231.843 398.085 231.843H443.215C444.34 231.843 445.224 232.727 445.224 233.852V284.084Z" fill="#E1F4FD"/>
<path d="M577.883 296.581C577.883 297.706 576.999 298.59 575.873 298.59H538.66C537.535 298.59 536.65 297.706 536.65 296.581V255.15C536.65 254.025 537.535 253.141 538.66 253.141H575.873C576.999 253.141 577.883 254.025 577.883 255.15V296.581Z" fill="#E1F4FD"/>
<path d="M568.559 248.118C568.559 249.243 567.675 250.127 566.55 250.127H538.66C537.535 250.127 536.65 249.243 536.65 248.118V207.651C536.65 206.526 537.535 205.642 538.66 205.642H566.55C567.675 205.642 568.559 206.526 568.559 207.651V248.118Z" fill="#C9EBFC"/>
<path d="M445.023 227.141C445.023 228.266 444.139 229.15 443.014 229.15H415.124C413.998 229.15 413.114 228.266 413.114 227.141V195.958C413.114 194.832 413.998 193.948 415.124 193.948H443.014C444.139 193.948 445.023 194.832 445.023 195.958V227.141Z" fill="#CCECFC"/>
<path d="M559.598 201.905C559.598 203.03 558.714 203.914 557.588 203.914H539.343C538.218 203.914 537.334 203.03 537.334 201.905V197.806C537.334 196.68 538.218 195.796 539.343 195.796H557.588C558.714 195.796 559.598 196.68 559.598 197.806V201.905Z" fill="#909090"/>
<path d="M563.898 282.677C563.898 283.802 563.014 284.686 561.888 284.686H543.643C542.518 284.686 541.634 283.802 541.634 282.677V278.578C541.634 277.453 542.518 276.569 543.643 276.569H561.888C563.014 276.569 563.898 277.453 563.898 278.578V282.677Z" fill="#E1F4FD"/>
<path d="M468.814 191.979C468.814 193.104 467.93 193.988 466.804 193.988H448.559C447.434 193.988 446.55 193.104 446.55 191.979V187.398C446.55 186.273 447.434 185.389 448.559 185.389H466.804C467.93 185.389 468.814 186.273 468.814 187.398V191.979Z" fill="#979797"/>
<path d="M528.854 236.223C528.854 236.785 528.332 237.228 527.649 237.228H455.834C455.15 237.228 454.628 236.785 454.628 236.223C454.628 235.66 455.15 235.218 455.834 235.218H527.649C528.332 235.218 528.854 235.66 528.854 236.223Z" fill="url(#paint7_linear)"/>
<path d="M528.854 240.523C528.854 241.085 528.332 241.527 527.649 241.527H455.834C455.15 241.527 454.628 241.085 454.628 240.523C454.628 239.96 455.15 239.518 455.834 239.518H527.649C528.332 239.518 528.854 239.96 528.854 240.523Z" fill="url(#paint8_linear)"/>
<path d="M528.733 245.345C528.733 245.908 528.211 246.35 527.528 246.35H455.712C455.029 246.35 454.507 245.908 454.507 245.345C454.507 244.782 455.029 244.34 455.712 244.34H527.528C528.171 244.34 528.733 244.823 528.733 245.345Z" fill="url(#paint9_linear)"/>
<path d="M442.049 237.027C442.049 237.469 441.688 237.79 441.245 237.79H401.259C400.817 237.79 400.455 237.429 400.455 237.027C400.455 236.585 400.817 236.263 401.259 236.263H441.245C441.688 236.263 442.049 236.585 442.049 237.027Z" fill="url(#paint10_linear)"/>
<path d="M442.049 240.362C442.049 240.804 441.688 241.126 441.245 241.126H401.259C400.817 241.126 400.455 240.764 400.455 240.362C400.455 239.92 400.817 239.599 401.259 239.599H441.245C441.688 239.599 442.049 239.92 442.049 240.362Z" fill="url(#paint11_linear)"/>
<path d="M441.969 244.139C441.969 244.581 441.607 244.903 441.165 244.903H401.179C400.737 244.903 400.375 244.541 400.375 244.139C400.375 243.737 400.737 243.376 401.179 243.376H441.165C441.607 243.335 441.969 243.697 441.969 244.139Z" fill="url(#paint12_linear)"/>
<path d="M441.848 250.609C441.848 251.051 441.486 251.373 441.044 251.373H401.058C400.616 251.373 400.254 251.011 400.254 250.609C400.254 250.207 400.616 249.846 401.058 249.846H441.044C441.486 249.846 441.848 250.167 441.848 250.609Z" fill="#909090"/>
<path d="M441.848 253.944C441.848 254.386 441.486 254.708 441.044 254.708H401.058C400.616 254.708 400.254 254.346 400.254 253.944C400.254 253.542 400.616 253.181 401.058 253.181H441.044C441.486 253.181 441.848 253.502 441.848 253.944Z" fill="#909090"/>
<path d="M441.768 257.722C441.768 258.164 441.406 258.486 440.964 258.486H400.938C400.495 258.486 400.134 258.124 400.134 257.722C400.134 257.32 400.495 256.958 400.938 256.958H440.924C441.406 256.958 441.768 257.28 441.768 257.722Z" fill="#909090"/>
<path d="M443.013 218.622C443.013 218.984 442.652 219.305 442.21 219.305H415.606C415.163 219.305 414.802 218.984 414.802 218.622C414.802 218.26 415.163 217.939 415.606 217.939H442.21C442.652 217.899 443.013 218.22 443.013 218.622Z" fill="url(#paint13_linear)"/>
<path d="M443.094 221.796C443.094 222.158 442.733 222.48 442.291 222.48H415.687C415.244 222.48 414.883 222.158 414.883 221.796C414.883 221.435 415.244 221.113 415.687 221.113H442.291C442.733 221.113 443.094 221.435 443.094 221.796Z" fill="url(#paint14_linear)"/>
<path d="M442.973 224.891C442.973 225.252 442.612 225.574 442.17 225.574H415.565C415.123 225.574 414.762 225.252 414.762 224.891C414.762 224.529 415.123 224.208 415.565 224.208H442.17C442.612 224.208 442.973 224.529 442.973 224.891Z" fill="url(#paint15_linear)"/>
<path d="M529.014 268.331C529.014 268.893 528.492 269.335 527.809 269.335H455.994C455.311 269.335 454.788 268.893 454.788 268.331C454.788 267.768 455.311 267.326 455.994 267.326H527.809C528.452 267.326 529.014 267.768 529.014 268.331Z" fill="url(#paint16_linear)"/>
<path d="M529.014 272.591C529.014 273.153 528.492 273.595 527.809 273.595H455.994C455.311 273.595 454.788 273.153 454.788 272.591C454.788 272.028 455.311 271.586 455.994 271.586H527.809C528.452 271.586 529.014 272.068 529.014 272.591Z" fill="url(#paint17_linear)"/>
<path d="M528.854 277.453C528.854 278.015 528.332 278.457 527.649 278.457H455.834C455.15 278.457 454.628 278.015 454.628 277.453C454.628 276.89 455.15 276.448 455.834 276.448H527.649C528.332 276.448 528.854 276.89 528.854 277.453Z" fill="url(#paint18_linear)"/>
<path d="M487.582 262.223C487.582 263.348 486.697 264.232 485.572 264.232H456.919C455.793 264.232 454.909 263.348 454.909 262.223V252.176C454.909 251.051 455.793 250.167 456.919 250.167H485.572C486.697 250.167 487.582 251.051 487.582 252.176V262.223Z" fill="url(#paint19_linear)"/>
<path d="M528.653 230.919C528.653 232.044 527.769 232.928 526.644 232.928H457.2C456.075 232.928 455.19 232.044 455.19 230.919V202.548C455.19 201.423 456.075 200.539 457.2 200.539H526.604C527.729 200.539 528.613 201.423 528.613 202.548V230.919H528.653Z" fill="url(#paint20_linear)"/>
<g opacity="0.75">
<path opacity="0.75" d="M440.643 278.859C440.643 279.984 439.759 280.868 438.633 280.868H402.384C401.259 280.868 400.375 279.984 400.375 278.859V266.844C400.375 265.719 401.259 264.834 402.384 264.834H438.633C439.759 264.834 440.643 265.719 440.643 266.844V278.859Z" fill="url(#paint21_linear)"/>
</g>
<path d="M573.824 294.451C573.824 295.577 572.94 296.461 571.815 296.461H560.201C559.076 296.461 558.191 295.577 558.191 294.451V259.048C558.191 257.923 559.076 257.039 560.201 257.039H571.815C572.94 257.039 573.824 257.923 573.824 259.048V294.451Z" fill="#909090"/>
<path d="M443.094 213.558C443.094 214.683 442.21 215.568 441.085 215.568H431.199C430.074 215.568 429.189 214.683 429.189 213.558V198.047C429.189 196.922 430.074 196.038 431.199 196.038H441.085C442.21 196.038 443.094 196.922 443.094 198.047V213.558Z" fill="#909090"/>
<path d="M428.265 213.558C428.265 214.683 427.381 215.568 426.256 215.568H416.37C415.244 215.568 414.36 214.683 414.36 213.558V198.047C414.36 196.922 415.244 196.038 416.37 196.038H426.256C427.381 196.038 428.265 196.922 428.265 198.047V213.558Z" fill="#919191"/>
<path d="M426.899 202.628C426.899 203.754 426.014 204.638 424.889 204.638H417.776C416.651 204.638 415.767 203.754 415.767 202.628V199.534C415.767 198.409 416.651 197.525 417.776 197.525H424.889C426.014 197.525 426.899 198.409 426.899 199.534V202.628Z" fill="#F1F2F2"/>
<path d="M441.728 202.789C441.728 203.914 440.844 204.798 439.718 204.798H432.605C431.48 204.798 430.596 203.914 430.596 202.789V199.694C430.596 198.569 431.48 197.685 432.605 197.685H439.718C440.844 197.685 441.728 198.569 441.728 199.694V202.789Z" fill="white"/>
<path d="M454.105 190.894C454.105 192.019 453.221 192.903 452.096 192.903H449.564C448.439 192.903 447.555 192.019 447.555 190.894V188.402C447.555 187.277 448.439 186.393 449.564 186.393H452.096C453.221 186.393 454.105 187.277 454.105 188.402V190.894Z" fill="white"/>
<path d="M468.13 190.894C468.13 192.019 467.246 192.903 466.121 192.903H457.039C455.913 192.903 455.029 192.019 455.029 190.894V188.402C455.029 187.277 455.913 186.393 457.039 186.393H466.121C467.246 186.393 468.13 187.277 468.13 188.402V190.894Z" fill="white"/>
<path d="M552.283 201.101C552.283 202.226 551.399 203.11 550.273 203.11H540.387C539.262 203.11 538.378 202.226 538.378 201.101V198.77C538.378 197.645 539.262 196.761 540.387 196.761H550.233C551.358 196.761 552.243 197.645 552.243 198.77V201.101H552.283Z" fill="white"/>
<path d="M558.834 201.061C558.834 202.186 557.95 203.07 556.825 203.07H554.735C553.61 203.07 552.726 202.186 552.726 201.061V198.73C552.726 197.605 553.61 196.721 554.735 196.721H556.825C557.95 196.721 558.834 197.605 558.834 198.73V201.061Z" fill="white"/>
<path d="M556.141 294.371C556.141 295.496 555.257 296.38 554.132 296.38H542.317C541.192 296.38 540.308 295.496 540.308 294.371V275.484C540.308 274.359 541.192 273.475 542.317 273.475H554.132C555.257 273.475 556.141 274.359 556.141 275.484V294.371Z" fill="white"/>
<path d="M571.493 263.991C571.493 265.116 570.609 266 569.484 266H562.371C561.245 266 560.361 265.116 560.361 263.991V260.896C560.361 259.771 561.245 258.887 562.371 258.887H569.484C570.609 258.887 571.493 259.771 571.493 260.896V263.991Z" fill="white"/>
<path d="M571.373 277.212C571.373 278.337 570.489 279.221 569.364 279.221H562.251C561.125 279.221 560.241 278.337 560.241 277.212V274.118C560.241 272.992 561.125 272.108 562.251 272.108H569.364C570.489 272.108 571.373 272.992 571.373 274.118V277.212Z" fill="white"/>
<path d="M571.373 290.794C571.373 291.92 570.489 292.804 569.364 292.804H562.251C561.125 292.804 560.241 291.92 560.241 290.794V287.7C560.241 286.575 561.125 285.691 562.251 285.691H569.364C570.489 285.691 571.373 286.575 571.373 287.7V290.794Z" fill="white"/>
<path d="M571.453 267.326C571.453 267.527 571.252 267.728 571.051 267.728H560.723C560.482 267.728 560.321 267.527 560.321 267.326C560.321 267.125 560.482 266.924 560.723 266.924H571.051C571.252 266.924 571.453 267.085 571.453 267.326Z" fill="white"/>
<path d="M426.858 206.687C426.858 206.928 426.698 207.088 426.457 207.088H416.128C415.887 207.088 415.727 206.928 415.727 206.687C415.727 206.445 415.887 206.285 416.128 206.285H426.457C426.658 206.285 426.858 206.445 426.858 206.687Z" fill="white"/>
<path d="M425.049 202.909C425.049 203.07 424.889 203.191 424.648 203.191H418.137C417.896 203.191 417.735 203.07 417.735 202.909C417.735 202.748 417.896 202.628 418.137 202.628H424.648C424.849 202.668 425.049 202.789 425.049 202.909Z" fill="url(#paint22_linear)"/>
<path d="M439.959 202.869C439.959 203.03 439.799 203.15 439.558 203.15H433.087C432.886 203.15 432.686 203.03 432.686 202.869C432.686 202.708 432.886 202.588 433.087 202.588H439.598C439.799 202.628 439.959 202.749 439.959 202.869Z" fill="url(#paint23_linear)"/>
<path d="M541.835 201.383C541.835 202.066 541.272 202.588 540.629 202.588H540.147C539.464 202.588 538.941 202.066 538.941 201.383V198.369C538.941 197.726 539.464 197.163 540.147 197.163H540.629C541.272 197.163 541.835 197.726 541.835 198.369V201.383Z" fill="url(#paint24_linear)"/>
<path d="M551.56 197.645C551.56 197.766 551.399 197.846 551.158 197.846H542.879C542.638 197.846 542.478 197.766 542.478 197.645C542.478 197.525 542.638 197.444 542.879 197.444H551.158C551.399 197.444 551.56 197.525 551.56 197.645Z" fill="url(#paint25_linear)"/>
<path d="M551.56 198.61C551.56 198.73 551.399 198.811 551.158 198.811H542.879C542.638 198.811 542.478 198.73 542.478 198.61C542.478 198.489 542.638 198.409 542.879 198.409H551.158C551.399 198.409 551.56 198.489 551.56 198.61Z" fill="url(#paint26_linear)"/>
<path d="M551.56 199.574C551.56 199.695 551.399 199.775 551.158 199.775H542.879C542.638 199.775 542.478 199.695 542.478 199.574C542.478 199.453 542.638 199.373 542.879 199.373H551.158C551.399 199.373 551.56 199.453 551.56 199.574Z" fill="url(#paint27_linear)"/>
<path d="M551.6 200.659C551.6 200.779 551.439 200.86 551.198 200.86H542.919C542.678 200.86 542.518 200.779 542.518 200.659C542.518 200.538 542.678 200.458 542.919 200.458H551.198C551.399 200.458 551.6 200.538 551.6 200.659Z" fill="url(#paint28_linear)"/>
<path d="M551.56 201.664C551.56 201.784 551.399 201.865 551.158 201.865H542.879C542.638 201.865 542.478 201.784 542.478 201.664C542.478 201.543 542.638 201.463 542.879 201.463H551.158C551.359 201.463 551.56 201.543 551.56 201.664Z" fill="url(#paint29_linear)"/>
<path d="M556.102 201.262C556.102 201.945 555.539 202.467 554.896 202.467H554.414C553.73 202.467 553.208 201.945 553.208 201.262V198.248C553.208 197.605 553.73 197.042 554.414 197.042H554.896C555.539 197.042 556.102 197.605 556.102 198.248V201.262Z" fill="url(#paint30_linear)"/>
<path d="M441.768 206.687C441.768 206.928 441.567 207.088 441.366 207.088H431.038C430.837 207.088 430.636 206.928 430.636 206.687C430.636 206.445 430.837 206.285 431.038 206.285H441.366C441.567 206.285 441.768 206.445 441.768 206.687Z" fill="white"/>
<path d="M441.768 208.455C441.768 208.656 441.567 208.857 441.366 208.857H431.038C430.837 208.857 430.636 208.656 430.636 208.455C430.636 208.254 430.837 208.053 431.038 208.053H441.366C441.567 208.053 441.768 208.214 441.768 208.455Z" fill="white"/>
<path d="M441.768 210.343C441.768 210.544 441.567 210.745 441.366 210.745H431.038C430.837 210.745 430.636 210.544 430.636 210.343C430.636 210.102 430.837 209.941 431.038 209.941H441.366C441.567 209.941 441.768 210.102 441.768 210.343Z" fill="white"/>
<path d="M441.688 212.192C441.688 212.393 441.487 212.594 441.286 212.594H430.958C430.757 212.594 430.556 212.393 430.556 212.192C430.556 211.991 430.757 211.79 430.958 211.79H441.286C441.487 211.75 441.688 211.951 441.688 212.192Z" fill="white"/>
<path d="M426.818 208.495C426.818 208.696 426.618 208.897 426.417 208.897H416.088C415.887 208.897 415.687 208.696 415.687 208.495C415.687 208.294 415.887 208.093 416.088 208.093H426.417C426.618 208.053 426.818 208.254 426.818 208.495Z" fill="white"/>
<path d="M426.899 210.263C426.899 210.464 426.698 210.665 426.497 210.665H416.168C415.968 210.665 415.767 210.464 415.767 210.263C415.767 210.022 415.968 209.861 416.168 209.861H426.497C426.698 209.861 426.899 210.022 426.899 210.263Z" fill="white"/>
<path d="M426.858 212.112C426.858 212.313 426.698 212.513 426.457 212.513H416.128C415.887 212.513 415.727 212.313 415.727 212.112C415.727 211.87 415.887 211.71 416.128 211.71H426.457C426.658 211.67 426.858 211.87 426.858 212.112Z" fill="white"/>
<path d="M439.036 267.849C439.036 268.09 438.835 268.25 438.634 268.25H416.088C415.887 268.25 415.687 268.09 415.687 267.849C415.687 267.648 415.887 267.447 416.088 267.447H438.634C438.875 267.447 439.036 267.608 439.036 267.849Z" fill="white"/>
<path d="M439.036 269.697C439.036 269.938 438.835 270.099 438.634 270.099H416.088C415.887 270.099 415.687 269.938 415.687 269.697C415.687 269.496 415.887 269.295 416.088 269.295H438.634C438.875 269.295 439.036 269.456 439.036 269.697Z" fill="white"/>
<path d="M439.036 271.545C439.036 271.787 438.835 271.947 438.634 271.947H416.088C415.887 271.947 415.687 271.787 415.687 271.545C415.687 271.344 415.887 271.144 416.088 271.144H438.634C438.875 271.144 439.036 271.304 439.036 271.545Z" fill="white"/>
<path d="M439.036 274.801C439.036 275.001 438.835 275.202 438.634 275.202H416.088C415.887 275.202 415.687 275.001 415.687 274.801C415.687 274.6 415.887 274.399 416.088 274.399H438.634C438.875 274.359 439.036 274.559 439.036 274.801Z" fill="white"/>
<path d="M439.116 276.77C439.116 276.971 438.915 277.172 438.714 277.172H416.168C415.968 277.172 415.767 276.971 415.767 276.77C415.767 276.529 415.968 276.368 416.168 276.368H438.714C438.915 276.328 439.116 276.529 439.116 276.77Z" fill="white"/>
<path d="M439.116 278.779C439.116 279.02 438.915 279.181 438.714 279.181H416.168C415.968 279.181 415.767 279.02 415.767 278.779C415.767 278.578 415.968 278.377 416.168 278.377H438.714C438.915 278.377 439.116 278.538 439.116 278.779Z" fill="white"/>
<path d="M571.453 268.934C571.453 269.135 571.252 269.335 571.051 269.335H560.723C560.482 269.335 560.321 269.135 560.321 268.934C560.321 268.733 560.482 268.532 560.723 268.532H571.051C571.252 268.532 571.453 268.692 571.453 268.934Z" fill="white"/>
<path d="M571.373 284.204C571.373 284.405 571.212 284.606 570.971 284.606H560.643C560.402 284.606 560.241 284.405 560.241 284.204C560.241 284.003 560.402 283.802 560.643 283.802H570.971C571.172 283.802 571.373 283.963 571.373 284.204Z" fill="white"/>
<path d="M571.493 270.621C571.493 270.822 571.292 271.023 571.091 271.023H560.763C560.562 271.023 560.361 270.822 560.361 270.621C560.361 270.42 560.562 270.219 560.763 270.219H571.091C571.333 270.219 571.493 270.38 571.493 270.621Z" fill="white"/>
<path d="M571.373 282.476C571.373 282.677 571.212 282.878 570.971 282.878H560.643C560.402 282.878 560.241 282.677 560.241 282.476C560.241 282.275 560.402 282.074 560.643 282.074H570.971C571.172 282.034 571.373 282.235 571.373 282.476Z" fill="white"/>
<path d="M571.373 280.627C571.373 280.828 571.212 281.029 570.971 281.029H560.643C560.402 281.029 560.241 280.828 560.241 280.627C560.241 280.386 560.402 280.226 560.643 280.226H570.971C571.172 280.226 571.373 280.386 571.373 280.627Z" fill="white"/>
<path d="M566.751 246.269C566.751 247.394 565.867 248.278 564.741 248.278H549.229C548.104 248.278 547.22 247.394 547.22 246.269V209.701C547.22 208.575 548.104 207.691 549.229 207.691H564.782C565.907 207.691 566.791 208.616 566.791 209.701V246.269H566.751Z" fill="#FAFAFA"/>
<g opacity="0.75">
<path opacity="0.75" d="M545.411 246.832C545.411 247.475 544.889 248.037 544.206 248.037H539.745C539.062 248.037 538.539 247.475 538.539 246.832V208.897C538.539 208.254 539.062 207.691 539.745 207.691H544.206C544.889 207.691 545.411 208.254 545.411 208.897V246.832Z" fill="url(#paint31_linear)"/>
</g>
<path d="M527.729 262.343C527.729 263.468 526.845 264.352 525.72 264.352H497.066C495.941 264.352 495.057 263.468 495.057 262.343V252.297C495.057 251.172 495.941 250.288 497.066 250.288H525.72C526.845 250.288 527.729 251.172 527.729 252.297V262.343Z" fill="url(#paint32_linear)"/>
<path d="M408.091 278.578C411.287 278.578 413.878 275.987 413.878 272.791C413.878 269.595 411.287 267.004 408.091 267.004C404.895 267.004 402.304 269.595 402.304 272.791C402.304 275.987 404.895 278.578 408.091 278.578Z" fill="#F1F2F2"/>
<path d="M421.312 201.985C422.333 201.985 423.161 201.158 423.161 200.137C423.161 199.116 422.333 198.288 421.312 198.288C420.292 198.288 419.464 199.116 419.464 200.137C419.464 201.158 420.292 201.985 421.312 201.985Z" fill="url(#paint33_linear)"/>
<path d="M436.222 201.945C437.199 201.945 437.991 201.153 437.991 200.177C437.991 199.2 437.199 198.409 436.222 198.409C435.246 198.409 434.454 199.2 434.454 200.177C434.454 201.153 435.246 201.945 436.222 201.945Z" fill="url(#paint34_linear)"/>
<path d="M556.985 219.466C559.715 219.466 561.928 217.253 561.928 214.523C561.928 211.793 559.715 209.58 556.985 209.58C554.255 209.58 552.042 211.793 552.042 214.523C552.042 217.253 554.255 219.466 556.985 219.466Z" fill="url(#paint35_linear)"/>
<path d="M548.345 271.908C552.673 271.908 556.182 268.399 556.182 264.071C556.182 259.744 552.673 256.235 548.345 256.235C544.017 256.235 540.509 259.744 540.509 264.071C540.509 268.399 544.017 271.908 548.345 271.908Z" fill="url(#paint36_linear)"/>
<path d="M555.338 274.68C555.338 274.881 555.177 275.001 554.936 275.001H541.473C541.232 275.001 541.071 274.841 541.071 274.68C541.071 274.519 541.232 274.358 541.473 274.358H554.936C555.137 274.358 555.338 274.519 555.338 274.68Z" fill="url(#paint37_linear)"/>
<path d="M555.338 276.127C555.338 276.328 555.177 276.448 554.936 276.448H541.473C541.232 276.448 541.071 276.288 541.071 276.127C541.071 275.966 541.232 275.806 541.473 275.806H554.936C555.137 275.765 555.338 275.926 555.338 276.127Z" fill="url(#paint38_linear)"/>
<path d="M555.378 277.613C555.378 277.814 555.177 277.935 554.976 277.935H541.513C541.272 277.935 541.111 277.774 541.111 277.613C541.111 277.453 541.272 277.292 541.513 277.292H554.976C555.177 277.292 555.378 277.413 555.378 277.613Z" fill="url(#paint39_linear)"/>
<path d="M555.378 281.592C555.378 281.793 555.217 281.913 554.976 281.913H541.513C541.272 281.913 541.111 281.753 541.111 281.592C541.111 281.391 541.272 281.271 541.513 281.271H554.976C555.177 281.271 555.378 281.391 555.378 281.592Z" fill="url(#paint40_linear)"/>
<path d="M555.378 283.159C555.378 283.36 555.217 283.481 554.976 283.481H541.513C541.272 283.481 541.111 283.32 541.111 283.159C541.111 282.958 541.272 282.838 541.513 282.838H554.976C555.177 282.798 555.378 282.958 555.378 283.159Z" fill="url(#paint41_linear)"/>
<path d="M555.378 284.726C555.378 284.927 555.217 285.048 554.976 285.048H541.513C541.272 285.048 541.111 284.887 541.111 284.726C541.111 284.566 541.272 284.405 541.513 284.405H554.976C555.177 284.405 555.378 284.525 555.378 284.726Z" fill="url(#paint42_linear)"/>
<path d="M555.378 287.821C555.378 288.022 555.217 288.142 554.976 288.142H541.513C541.272 288.142 541.111 287.982 541.111 287.821C541.111 287.62 541.272 287.499 541.513 287.499H554.976C555.177 287.459 555.378 287.62 555.378 287.821Z" fill="url(#paint43_linear)"/>
<path d="M555.378 289.388C555.378 289.589 555.217 289.709 554.976 289.709H541.513C541.272 289.709 541.111 289.549 541.111 289.388C541.111 289.227 541.272 289.066 541.513 289.066H554.976C555.177 289.066 555.378 289.187 555.378 289.388Z" fill="url(#paint44_linear)"/>
<path d="M555.378 291.076C555.378 291.277 555.217 291.397 554.976 291.397H541.513C541.272 291.397 541.111 291.236 541.111 291.076C541.111 290.875 541.272 290.754 541.513 290.754H554.976C555.177 290.714 555.378 290.875 555.378 291.076Z" fill="url(#paint45_linear)"/>
<path d="M200.683 238.956C200.683 240.081 199.799 240.965 198.674 240.965H115.526C114.401 240.965 113.517 240.081 113.517 238.956V146.851C113.517 145.726 114.401 144.842 115.526 144.842H198.674C199.759 144.842 200.683 145.726 200.683 146.851V238.956Z" fill="#727272"/>
<path d="M203.536 234.093C203.616 235.178 202.812 236.182 201.727 236.263L120.549 243.376C119.463 243.456 118.459 242.652 118.378 241.567L110.502 151.673C110.421 150.588 111.225 149.583 112.31 149.503L193.449 142.39C194.534 142.31 195.538 143.114 195.619 144.199L203.536 234.093Z" fill="#B9E5FB"/>
<path d="M239.102 205.119C239.343 206.204 238.62 207.289 237.575 207.49L205.023 214.442C203.938 214.684 202.853 213.96 202.652 212.915L193.971 172.369C193.73 171.284 194.454 170.199 195.498 169.998L228.01 163.046C229.095 162.804 230.18 163.528 230.381 164.573L239.102 205.119Z" fill="#E1F4FD"/>
<path d="M224.474 156.777C224.474 157.902 223.59 158.786 222.464 158.786H204.219C203.094 158.786 202.21 157.902 202.21 156.777V152.678C202.21 151.553 203.094 150.668 204.219 150.668H222.464C223.59 150.668 224.474 151.553 224.474 152.678V156.777Z" fill="#6D6D6D"/>
<path d="M124.809 140.22C124.929 141.305 124.126 142.31 123.041 142.431L104.916 144.4C103.831 144.52 102.826 143.717 102.706 142.632L102.223 138.091C102.103 137.006 102.907 136.001 103.992 135.88L122.116 133.911C123.201 133.791 124.206 134.595 124.327 135.68L124.809 140.22Z" fill="#828282"/>
<path d="M194.776 188.402C194.736 188.965 194.133 189.327 193.49 189.286L122.077 181.852C121.434 181.772 120.911 181.29 120.992 180.727C121.032 180.164 121.635 179.803 122.278 179.843L193.691 187.277C194.374 187.357 194.856 187.84 194.776 188.402Z" fill="url(#paint46_linear)"/>
<path d="M194.333 192.662C194.293 193.225 193.69 193.586 193.047 193.546L121.634 186.112C120.991 186.032 120.469 185.549 120.549 184.987C120.589 184.424 121.192 184.062 121.835 184.103L193.248 191.537C193.932 191.617 194.414 192.14 194.333 192.662Z" fill="url(#paint47_linear)"/>
<path d="M193.731 197.484C193.691 198.047 193.088 198.409 192.445 198.368L121.032 190.934C120.389 190.854 119.866 190.372 119.947 189.809C119.987 189.246 120.59 188.885 121.233 188.925L192.606 196.359C193.289 196.44 193.771 196.922 193.731 197.484Z" fill="url(#paint48_linear)"/>
<path d="M194.655 216.613C194.655 217.175 194.092 217.617 193.449 217.617H121.634C120.991 217.617 120.429 217.175 120.429 216.613C120.429 216.05 120.991 215.608 121.634 215.608H193.449C194.133 215.648 194.655 216.09 194.655 216.613Z" fill="url(#paint49_linear)"/>
<path d="M194.655 220.912C194.655 221.475 194.092 221.917 193.449 221.917H121.634C120.991 221.917 120.429 221.475 120.429 220.912C120.429 220.35 120.991 219.908 121.634 219.908H193.449C194.133 219.908 194.655 220.39 194.655 220.912Z" fill="url(#paint50_linear)"/>
<path d="M194.534 225.775C194.534 226.337 193.971 226.779 193.328 226.779H121.513C120.87 226.779 120.308 226.337 120.308 225.775C120.308 225.212 120.87 224.77 121.513 224.77H193.328C193.971 224.77 194.534 225.212 194.534 225.775Z" fill="url(#paint51_linear)"/>
<path d="M153.221 210.544C153.221 211.67 152.337 212.554 151.212 212.554H122.558C121.433 212.554 120.549 211.67 120.549 210.544V200.498C120.549 199.373 121.433 198.489 122.558 198.489H151.212C152.337 198.489 153.221 199.373 153.221 200.498V210.544Z" fill="url(#paint52_linear)"/>
<path d="M193.369 181.451C193.288 182.536 192.324 183.42 191.239 183.339L121.955 179.08C120.87 178.999 119.986 178.035 120.067 176.95L121.795 148.619C121.875 147.534 122.84 146.65 123.925 146.731L193.208 150.99C194.293 151.071 195.177 152.035 195.097 153.12L193.369 181.451Z" fill="url(#paint53_linear)"/>
<path d="M237.374 216.05C237.454 217.135 236.57 218.099 235.485 218.18L223.871 218.823C222.786 218.903 221.821 218.019 221.741 216.934L219.772 181.571C219.691 180.486 220.575 179.521 221.661 179.441L233.275 178.798C234.36 178.718 235.324 179.602 235.405 180.687L237.374 216.05Z" fill="#919191"/>
<path d="M110.06 140.703C110.181 141.788 109.377 142.792 108.292 142.913L105.76 143.194C104.675 143.315 103.67 142.511 103.55 141.426L103.268 138.935C103.148 137.85 103.952 136.845 105.037 136.724L107.568 136.443C108.653 136.323 109.658 137.126 109.779 138.211L110.06 140.703Z" fill="white"/>
<path d="M124.005 139.176C124.126 140.261 123.322 141.266 122.237 141.386L113.195 142.351C112.11 142.471 111.105 141.667 110.985 140.582L110.703 138.091C110.583 137.006 111.387 136.001 112.472 135.881L121.514 134.916C122.599 134.796 123.604 135.599 123.724 136.684L124.005 139.176Z" fill="white"/>
<path d="M217.12 155.973C217.12 157.098 216.235 157.982 215.11 157.982H205.264C204.139 157.982 203.255 157.098 203.255 155.973V153.642C203.255 152.517 204.139 151.633 205.264 151.633H215.11C216.235 151.633 217.12 152.517 217.12 153.642V155.973Z" fill="white"/>
<path d="M223.71 155.973C223.71 157.098 222.826 157.982 221.701 157.982H219.611C218.486 157.982 217.602 157.098 217.602 155.973V153.642C217.602 152.517 218.486 151.633 219.611 151.633H221.701C222.826 151.633 223.71 152.517 223.71 153.642V155.973Z" fill="white"/>
<path d="M219.45 208.495C219.45 209.62 218.566 210.504 217.441 210.504H205.626C204.5 210.504 203.616 209.62 203.616 208.495V189.608C203.616 188.483 204.5 187.599 205.626 187.599H217.441C218.566 187.599 219.45 188.483 219.45 189.608V208.495Z" fill="white"/>
<path d="M233.355 185.75C233.436 186.835 232.552 187.8 231.467 187.88L224.353 188.282C223.268 188.362 222.304 187.478 222.223 186.393L222.063 183.299C221.982 182.214 222.866 181.25 223.951 181.169L231.065 180.767C232.15 180.687 233.114 181.571 233.195 182.656L233.355 185.75Z" fill="white"/>
<path d="M233.959 198.971C234.039 200.056 233.155 201.021 232.07 201.101L224.957 201.503C223.872 201.583 222.907 200.699 222.827 199.614L222.666 196.52C222.586 195.435 223.47 194.471 224.555 194.39L231.668 193.988C232.753 193.908 233.718 194.792 233.798 195.877L233.959 198.971Z" fill="white"/>
<path d="M234.722 212.513C234.802 213.598 233.918 214.563 232.833 214.643L225.72 215.045C224.635 215.125 223.67 214.241 223.59 213.156L223.429 210.062C223.349 208.977 224.233 208.013 225.318 207.932L232.431 207.53C233.516 207.45 234.48 208.334 234.561 209.419L234.722 212.513Z" fill="white"/>
<path d="M233.476 189.086C233.476 189.287 233.315 189.487 233.114 189.528L222.786 190.09C222.585 190.09 222.384 189.929 222.344 189.729C222.344 189.528 222.505 189.327 222.705 189.287L233.034 188.724C233.275 188.684 233.476 188.844 233.476 189.086Z" fill="white"/>
<path d="M206.671 156.254C206.671 156.937 206.148 157.46 205.465 157.46H204.983C204.3 157.46 203.777 156.937 203.777 156.254V153.24C203.777 152.597 204.3 152.035 204.983 152.035H205.465C206.148 152.035 206.671 152.597 206.671 153.24V156.254Z" fill="url(#paint54_linear)"/>
<path d="M216.437 152.557C216.437 152.678 216.236 152.758 216.035 152.758H207.756C207.555 152.758 207.354 152.678 207.354 152.557C207.354 152.437 207.555 152.357 207.756 152.357H216.035C216.236 152.316 216.437 152.437 216.437 152.557Z" fill="url(#paint55_linear)"/>
<path d="M216.437 153.522C216.437 153.642 216.236 153.723 216.035 153.723H207.756C207.555 153.723 207.354 153.642 207.354 153.522C207.354 153.401 207.555 153.321 207.756 153.321H216.035C216.236 153.281 216.437 153.401 216.437 153.522Z" fill="url(#paint56_linear)"/>
<path d="M216.437 154.486C216.437 154.607 216.236 154.687 216.035 154.687H207.756C207.555 154.687 207.354 154.607 207.354 154.486C207.354 154.366 207.555 154.285 207.756 154.285H216.035C216.236 154.285 216.437 154.366 216.437 154.486Z" fill="url(#paint57_linear)"/>
<path d="M216.437 155.571C216.437 155.692 216.236 155.772 216.035 155.772H207.756C207.555 155.772 207.354 155.692 207.354 155.571C207.354 155.451 207.555 155.37 207.756 155.37H216.035C216.276 155.33 216.437 155.451 216.437 155.571Z" fill="url(#paint58_linear)"/>
<path d="M216.396 156.576C216.396 156.697 216.235 156.777 215.994 156.777H207.715C207.514 156.777 207.313 156.697 207.313 156.576C207.313 156.455 207.514 156.375 207.715 156.375H215.994C216.235 156.335 216.396 156.455 216.396 156.576Z" fill="url(#paint59_linear)"/>
<path d="M220.937 156.174C220.937 156.817 220.375 157.38 219.732 157.38H219.29C218.606 157.38 218.084 156.817 218.084 156.174V153.16C218.084 152.517 218.606 151.955 219.29 151.955H219.772C220.415 151.955 220.977 152.517 220.977 153.16V156.174H220.937Z" fill="url(#paint60_linear)"/>
<path d="M233.557 190.693C233.557 190.894 233.396 191.095 233.195 191.135L222.867 191.698C222.666 191.698 222.465 191.537 222.425 191.336C222.425 191.135 222.586 190.934 222.787 190.894L233.115 190.331C233.356 190.291 233.557 190.452 233.557 190.693Z" fill="white"/>
<path d="M234.36 205.964C234.36 206.165 234.2 206.365 233.999 206.406L223.671 206.968C223.47 206.968 223.269 206.808 223.229 206.607C223.229 206.406 223.389 206.205 223.59 206.165L233.918 205.602C234.16 205.522 234.32 205.723 234.36 205.964Z" fill="white"/>
<path d="M233.717 192.381C233.717 192.582 233.556 192.783 233.355 192.823L223.027 193.386C222.826 193.386 222.625 193.225 222.585 193.024C222.585 192.823 222.746 192.622 222.947 192.582L233.275 192.019C233.516 191.979 233.717 192.14 233.717 192.381Z" fill="white"/>
<path d="M234.239 204.195C234.239 204.396 234.079 204.597 233.878 204.637L223.549 205.2C223.349 205.2 223.148 205.039 223.107 204.838C223.107 204.637 223.268 204.436 223.469 204.396L233.797 203.833C234.038 203.793 234.239 203.954 234.239 204.195Z" fill="white"/>
<path d="M234.159 202.387C234.159 202.588 233.999 202.789 233.798 202.829L223.469 203.391C223.268 203.391 223.068 203.231 223.027 203.03C223.027 202.829 223.188 202.628 223.389 202.588L233.717 202.025C233.958 201.985 234.119 202.146 234.159 202.387Z" fill="white"/>
<path d="M193.409 210.665C193.409 211.79 192.525 212.674 191.399 212.674H162.746C161.62 212.674 160.736 211.79 160.736 210.665V200.619C160.736 199.493 161.62 198.609 162.746 198.609H191.399C192.525 198.609 193.409 199.493 193.409 200.619V210.665Z" fill="url(#paint61_linear)"/>
<path d="M203.898 189.286C208.226 189.286 211.735 185.778 211.735 181.45C211.735 177.123 208.226 173.614 203.898 173.614C199.57 173.614 196.062 177.123 196.062 181.45C196.062 185.778 199.57 189.286 203.898 189.286Z" fill="url(#paint62_linear)"/>
<path d="M216.315 187.558C216.356 187.759 216.195 187.92 215.994 187.96L202.853 190.773C202.652 190.813 202.411 190.693 202.37 190.532C202.33 190.331 202.491 190.17 202.692 190.13L215.833 187.317C216.074 187.277 216.275 187.398 216.315 187.558Z" fill="url(#paint63_linear)"/>
<path d="M216.598 188.965C216.638 189.166 216.477 189.327 216.276 189.367L203.135 192.18C202.934 192.22 202.693 192.1 202.653 191.939C202.612 191.738 202.773 191.577 202.974 191.537L216.116 188.724C216.357 188.684 216.558 188.804 216.598 188.965Z" fill="url(#paint64_linear)"/>
<path d="M216.959 190.412C216.999 190.613 216.839 190.774 216.638 190.814L203.496 193.627C203.295 193.667 203.054 193.546 203.014 193.386C202.974 193.185 203.135 193.024 203.336 192.984L216.477 190.171C216.718 190.131 216.959 190.251 216.959 190.412Z" fill="url(#paint65_linear)"/>
<path d="M217.803 194.31C217.843 194.511 217.682 194.672 217.481 194.712L204.34 197.525C204.139 197.565 203.898 197.444 203.858 197.284C203.818 197.083 203.978 196.922 204.179 196.882L217.321 194.069C217.562 194.029 217.763 194.149 217.803 194.31Z" fill="url(#paint66_linear)"/>
<path d="M218.124 195.837C218.164 196.038 218.004 196.198 217.803 196.238L204.661 199.051C204.46 199.092 204.219 198.971 204.179 198.81C204.139 198.65 204.3 198.449 204.501 198.408L217.642 195.595C217.883 195.555 218.084 195.636 218.124 195.837Z" fill="url(#paint67_linear)"/>
<path d="M218.445 197.404C218.486 197.605 218.325 197.766 218.124 197.806L204.983 200.619C204.782 200.659 204.541 200.538 204.5 200.378C204.46 200.177 204.621 200.016 204.822 199.976L217.963 197.163C218.204 197.082 218.445 197.203 218.445 197.404Z" fill="url(#paint68_linear)"/>
<path d="M219.089 200.418C219.129 200.619 218.968 200.779 218.768 200.82L205.626 203.632C205.425 203.673 205.184 203.552 205.144 203.391C205.104 203.19 205.264 203.03 205.465 202.989L218.607 200.177C218.848 200.096 219.089 200.217 219.089 200.418Z" fill="url(#paint69_linear)"/>
<path d="M219.45 201.945C219.49 202.146 219.33 202.307 219.129 202.347L205.987 205.16C205.787 205.2 205.545 205.079 205.505 204.919C205.465 204.718 205.626 204.557 205.827 204.517L218.968 201.704C219.209 201.664 219.41 201.744 219.45 201.945Z" fill="url(#paint70_linear)"/>
<path d="M219.772 203.592C219.812 203.793 219.651 203.954 219.45 203.994L206.309 206.807C206.108 206.847 205.867 206.727 205.827 206.566C205.786 206.365 205.947 206.205 206.148 206.164L219.289 203.351C219.53 203.271 219.731 203.392 219.772 203.592Z" fill="url(#paint71_linear)"/>
<path d="M108.171 246.912C107.689 247.917 106.483 248.359 105.478 247.877L64.648 228.628C63.6433 228.146 63.2012 226.94 63.6835 225.935L82.9735 185.107C83.4557 184.103 84.6613 183.661 85.666 184.143L126.497 203.392C127.501 203.874 127.943 205.079 127.461 206.084L108.171 246.912Z" fill="#E1F4FD"/>
<path d="M123.242 207.571C123.041 207.973 122.599 208.133 122.197 207.933L86.0279 190.854C85.6261 190.653 85.4653 190.211 85.6261 189.809C85.7868 189.407 86.2691 189.246 86.6709 189.447L122.84 206.526C123.242 206.727 123.402 207.169 123.242 207.571Z" fill="url(#paint72_linear)"/>
<path d="M121.795 210.584C121.594 210.986 121.152 211.147 120.75 210.946L84.5812 193.908C84.1793 193.707 84.0185 193.265 84.1793 192.863C84.3802 192.461 84.8223 192.3 85.2241 192.501L121.393 209.54C121.795 209.741 121.996 210.223 121.795 210.584Z" fill="url(#paint73_linear)"/>
<path d="M120.107 213.96C119.906 214.362 119.464 214.523 119.062 214.322L82.8937 197.284C82.4918 197.083 82.331 196.641 82.4918 196.239C82.6927 195.837 83.1348 195.676 83.5366 195.877L119.705 212.956C120.107 213.116 120.308 213.599 120.107 213.96Z" fill="url(#paint74_linear)"/>
<path d="M97.3607 224.248C97.1598 224.65 96.7177 224.81 96.3158 224.609L60.1471 207.531C59.7452 207.33 59.5844 206.888 59.7452 206.486C59.9461 206.084 60.3882 205.923 60.7901 206.124L96.9588 223.163C97.4009 223.364 97.5616 223.846 97.3607 224.248Z" fill="url(#paint75_linear)"/>
<path d="M95.9545 227.261C95.7535 227.663 95.3114 227.824 94.9096 227.623L58.7408 210.544C58.3389 210.343 58.1782 209.901 58.3389 209.499C58.5399 209.098 58.9819 208.937 59.3838 209.138L95.5526 226.176C95.9545 226.417 96.1554 226.859 95.9545 227.261Z" fill="url(#paint76_linear)"/>
<path d="M94.2664 230.637C94.0655 231.039 93.6235 231.2 93.2216 230.999L57.0528 213.96C56.651 213.759 56.4902 213.317 56.651 212.915C56.8519 212.514 57.294 212.353 57.6958 212.554L93.8646 229.632C94.2664 229.793 94.4674 230.235 94.2664 230.637Z" fill="url(#paint77_linear)"/>
<path d="M117.937 215.929C117.816 216.331 117.374 216.572 116.972 216.492L78.2718 206.365C77.8297 206.245 77.5886 205.843 77.7092 205.401C77.8297 204.999 78.2718 204.758 78.6737 204.838L117.374 214.965C117.776 215.085 118.017 215.527 117.937 215.929Z" fill="#9F9F9F"/>
<path d="M117.093 219.144C116.973 219.546 116.53 219.787 116.129 219.707L77.428 209.58C76.986 209.459 76.7448 209.058 76.8654 208.616C76.986 208.214 77.428 207.973 77.8299 208.053L116.53 218.18C116.932 218.3 117.173 218.742 117.093 219.144Z" fill="#9F9F9F"/>
<path d="M116.048 222.801C115.928 223.203 115.486 223.444 115.084 223.364L76.3831 213.237C75.941 213.117 75.6999 212.715 75.8205 212.273C75.941 211.871 76.3831 211.63 76.785 211.71L115.486 221.837C115.887 221.957 116.169 222.359 116.048 222.801Z" fill="#9F9F9F"/>
<path d="M108.332 244.461C108.413 245.546 107.609 246.551 106.484 246.631L70.3551 249.605C69.2701 249.685 68.2654 248.881 68.185 247.756L67.1803 235.781C67.1 234.696 67.9037 233.691 69.029 233.611L105.158 230.637C106.243 230.557 107.247 231.361 107.328 232.486L108.332 244.461Z" fill="url(#paint78_linear)"/>
<path d="M105.84 233.651C105.84 233.852 105.68 234.053 105.479 234.093L83.0138 235.942C82.8129 235.942 82.612 235.781 82.5718 235.58C82.5718 235.379 82.7325 235.178 82.9335 235.138L105.398 233.289C105.599 233.249 105.8 233.41 105.84 233.651Z" fill="white"/>
<path d="M105.961 235.5C105.961 235.701 105.8 235.902 105.599 235.942L83.1344 237.79C82.9335 237.79 82.7326 237.63 82.6924 237.429C82.6924 237.228 82.8531 237.027 83.0541 236.987L105.519 235.138C105.76 235.098 105.961 235.259 105.961 235.5Z" fill="white"/>
<path d="M106.122 237.348C106.122 237.549 105.961 237.75 105.76 237.79L83.2951 239.638C83.0942 239.638 82.8932 239.478 82.853 239.277C82.853 239.076 83.0138 238.875 83.2147 238.835L105.68 236.986C105.921 236.946 106.122 237.107 106.122 237.348Z" fill="white"/>
<path d="M106.403 240.563C106.403 240.764 106.243 240.965 106.042 241.005L83.5768 242.854C83.3759 242.854 83.175 242.693 83.1348 242.492C83.1348 242.291 83.2955 242.09 83.4965 242.05L105.961 240.161C106.162 240.161 106.363 240.322 106.403 240.563Z" fill="white"/>
<path d="M106.604 242.492C106.604 242.693 106.443 242.894 106.242 242.934L83.7775 244.782C83.5766 244.782 83.3756 244.622 83.3354 244.421C83.3354 244.22 83.4962 244.019 83.6971 243.979L106.162 242.13C106.403 242.09 106.604 242.251 106.604 242.492Z" fill="white"/>
<path d="M106.765 244.541C106.765 244.742 106.604 244.943 106.403 244.983L83.9382 246.832C83.7372 246.832 83.5363 246.671 83.4961 246.47C83.4961 246.269 83.6568 246.068 83.8578 246.028L106.323 244.179C106.564 244.139 106.765 244.3 106.765 244.541Z" fill="white"/>
<path d="M75.3783 246.872C78.5744 246.872 81.1653 244.281 81.1653 241.085C81.1653 237.889 78.5744 235.298 75.3783 235.298C72.1822 235.298 69.5913 237.889 69.5913 241.085C69.5913 244.281 72.1822 246.872 75.3783 246.872Z" fill="#F1F2F2"/>
<path d="M126.416 176.427C126.818 177.432 126.336 178.638 125.331 179.039L99.531 189.608C98.5263 190.01 97.3206 189.528 96.9188 188.523L85.0635 159.67C84.6616 158.665 85.1438 157.46 86.1485 157.058L111.949 146.449C112.954 146.047 114.159 146.53 114.561 147.534L126.416 176.427Z" fill="#CCECFC"/>
<path d="M121.313 169.315C121.473 169.676 121.232 170.078 120.83 170.239L96.2357 180.326C95.8338 180.486 95.3918 180.326 95.231 180.004C95.0703 179.642 95.3114 179.241 95.7133 179.08L120.308 168.993C120.75 168.792 121.192 168.953 121.313 169.315Z" fill="url(#paint79_linear)"/>
<path d="M238.781 170.038C238.941 170.4 238.7 170.801 238.298 170.962L213.663 181.089C213.262 181.25 212.82 181.089 212.659 180.767C212.498 180.406 212.739 180.004 213.141 179.843L237.736 169.757C238.178 169.556 238.62 169.716 238.781 170.038Z" fill="url(#paint80_linear)"/>
<path d="M237.093 166.662C237.254 167.024 237.013 167.426 236.611 167.587L212.016 177.673C211.614 177.834 211.172 177.673 211.011 177.352C210.851 176.99 211.092 176.588 211.494 176.427L236.088 166.341C236.49 166.18 236.932 166.341 237.093 166.662Z" fill="url(#paint81_linear)"/>
<path d="M122.599 172.208C122.76 172.569 122.518 172.971 122.117 173.132L97.5218 183.259C97.12 183.419 96.6779 183.259 96.5171 182.937C96.3564 182.576 96.5975 182.174 96.9994 182.013L121.594 171.927C122.036 171.726 122.478 171.886 122.599 172.208Z" fill="url(#paint82_linear)"/>
<path d="M123.684 175.141C123.845 175.503 123.603 175.905 123.202 176.066L98.6068 186.152C98.2049 186.313 97.7629 186.152 97.6021 185.831C97.4414 185.509 97.6825 185.067 98.0844 184.906L122.679 174.82C123.081 174.659 123.523 174.78 123.684 175.141Z" fill="url(#paint83_linear)"/>
<path d="M118.54 166.14C118.781 167.225 118.098 168.31 117.013 168.551L107.327 170.681C106.242 170.922 105.157 170.239 104.916 169.154L101.581 154.004C101.34 152.919 102.023 151.834 103.108 151.593L112.793 149.463C113.878 149.222 114.963 149.905 115.204 150.99L118.54 166.14Z" fill="#A0A0A0"/>
<path d="M105.76 170.199C106.162 171.203 105.68 172.409 104.675 172.811L95.5124 176.548C94.5077 176.95 93.3021 176.468 92.9002 175.463L86.9927 161.117C86.5908 160.112 87.073 158.907 88.0777 158.505L97.2405 154.768C98.2451 154.366 99.4508 154.848 99.8526 155.853L105.76 170.199Z" fill="#A7A7A7"/>
<path d="M100.335 160.634C100.737 161.639 100.254 162.845 99.2497 163.246L92.6589 165.939C91.6543 166.341 90.4486 165.858 90.0468 164.854L88.8813 162.001C88.4794 160.996 88.9617 159.791 89.9664 159.389L96.5571 156.696C97.5618 156.294 98.7674 156.777 99.1693 157.781L100.335 160.634Z" fill="#F1F2F2"/>
<path d="M114.119 155.17C114.521 156.174 114.039 157.38 113.034 157.782L106.444 160.474C105.439 160.876 104.233 160.394 103.831 159.389L102.666 156.536C102.264 155.531 102.746 154.326 103.751 153.924L110.342 151.231C111.346 150.83 112.552 151.312 112.954 152.316L114.119 155.17Z" fill="white"/>
<path d="M101.862 164.412C101.942 164.613 101.862 164.854 101.661 164.935L92.0962 168.873C91.8953 168.953 91.6541 168.873 91.5738 168.672C91.4934 168.471 91.5738 168.23 91.7747 168.149L101.339 164.211C101.54 164.091 101.781 164.211 101.862 164.412Z" fill="white"/>
<path d="M98.7271 161.599C98.7673 161.719 98.6468 161.92 98.4458 162.001L92.4177 164.452C92.2167 164.532 92.0158 164.492 91.9354 164.372C91.8952 164.251 92.0158 164.05 92.2167 163.97L98.2449 161.518C98.486 161.438 98.687 161.478 98.7271 161.599Z" fill="url(#paint84_linear)"/>
<path d="M112.552 155.893C112.592 156.013 112.471 156.214 112.271 156.295L106.242 158.746C106.041 158.826 105.841 158.786 105.76 158.665C105.72 158.545 105.841 158.344 106.041 158.264L112.07 155.812C112.271 155.732 112.471 155.772 112.552 155.893Z" fill="url(#paint85_linear)"/>
<path d="M115.646 158.786C115.726 158.987 115.646 159.228 115.445 159.309L105.88 163.247C105.679 163.327 105.438 163.247 105.358 163.046C105.278 162.845 105.358 162.604 105.559 162.523L115.124 158.585C115.324 158.465 115.566 158.545 115.646 158.786Z" fill="white"/>
<path d="M116.33 160.394C116.41 160.594 116.33 160.836 116.129 160.916L106.564 164.854C106.363 164.934 106.122 164.854 106.042 164.653C105.961 164.452 106.042 164.211 106.242 164.131L115.807 160.193C115.968 160.072 116.209 160.152 116.33 160.394Z" fill="white"/>
<path d="M117.013 162.162C117.093 162.363 117.013 162.604 116.812 162.684L107.247 166.622C107.046 166.703 106.805 166.622 106.725 166.421C106.644 166.22 106.725 165.979 106.926 165.899L116.49 161.961C116.691 161.84 116.932 161.92 117.013 162.162Z" fill="white"/>
<path d="M117.655 163.849C117.736 164.05 117.655 164.291 117.454 164.372L107.89 168.31C107.689 168.39 107.448 168.31 107.367 168.109C107.287 167.908 107.367 167.667 107.568 167.586L117.133 163.648C117.334 163.528 117.575 163.648 117.655 163.849Z" fill="white"/>
<path d="M102.786 166.984C102.826 167.185 102.706 167.426 102.465 167.466L92.3776 169.757C92.1766 169.797 91.9355 169.676 91.8953 169.435C91.8551 169.234 91.9757 168.993 92.2168 168.953L102.304 166.662C102.505 166.622 102.746 166.743 102.786 166.984Z" fill="white"/>
<path d="M103.268 167.707C103.349 167.908 103.268 168.149 103.068 168.229L93.5029 172.168C93.302 172.248 93.0609 172.168 92.9805 171.967C92.9001 171.766 92.9805 171.525 93.1814 171.444L102.746 167.506C102.907 167.386 103.148 167.506 103.268 167.707Z" fill="white"/>
<path d="M103.912 169.435C103.992 169.636 103.912 169.877 103.711 169.957L94.146 173.896C93.9451 173.976 93.7039 173.896 93.6236 173.695C93.5432 173.494 93.6236 173.253 93.8245 173.172L103.389 169.234C103.59 169.114 103.831 169.194 103.912 169.435Z" fill="white"/>
<path d="M89.2432 164.492C90.2641 164.492 91.0918 163.665 91.0918 162.644C91.0918 161.623 90.2641 160.795 89.2432 160.795C88.2222 160.795 87.3945 161.623 87.3945 162.644C87.3945 163.665 88.2222 164.492 89.2432 164.492Z" fill="url(#paint86_linear)"/>
<path d="M108.05 156.576C109.027 156.576 109.819 155.784 109.819 154.808C109.819 153.831 109.027 153.04 108.05 153.04C107.074 153.04 106.282 153.831 106.282 154.808C106.282 155.784 107.074 156.576 108.05 156.576Z" fill="url(#paint87_linear)"/>
<path d="M196.584 247.555C196.504 248.64 195.539 249.484 194.454 249.444L166.604 247.676C165.519 247.595 164.675 246.631 164.715 245.546L167.287 205.16C167.368 204.075 168.332 203.231 169.417 203.271L197.267 205.039C198.352 205.119 199.196 206.084 199.156 207.169L196.584 247.555Z" fill="#C9EBFC"/>
<path d="M199.115 243.054C199.316 244.139 198.593 245.184 197.468 245.385L182.156 248.077C181.071 248.278 180.026 247.555 179.825 246.43L173.476 210.424C173.275 209.339 173.998 208.294 175.124 208.093L190.435 205.401C191.52 205.2 192.565 205.923 192.766 207.048L199.115 243.054Z" fill="#F0F0F0"/>
<g opacity="0.75">
<path opacity="0.75" d="M173.476 244.019C173.395 245.104 172.431 245.948 171.346 245.868L168.493 245.667C167.408 245.586 166.564 244.622 166.644 243.537L169.256 207.33C169.337 206.245 170.301 205.401 171.386 205.481L174.239 205.682C175.324 205.763 176.168 206.727 176.088 207.812L173.476 244.019Z" fill="url(#paint88_linear)"/>
</g>
<path d="M187.18 218.22C189.91 218.22 192.123 216.007 192.123 213.277C192.123 210.547 189.91 208.334 187.18 208.334C184.45 208.334 182.237 210.547 182.237 213.277C182.237 216.007 184.45 218.22 187.18 218.22Z" fill="url(#paint89_linear)"/>
<path d="M194.334 253.02C197.064 253.02 199.277 250.807 199.277 248.078C199.277 245.348 197.064 243.135 194.334 243.135C191.604 243.135 189.391 245.348 189.391 248.078C189.391 250.807 191.604 253.02 194.334 253.02Z" fill="url(#paint90_linear)"/>
<path d="M188.827 147.012C189.108 148.097 188.465 149.182 187.421 149.463L169.778 154.165C168.693 154.446 167.608 153.803 167.327 152.759L166.282 148.78C166.001 147.695 166.644 146.61 167.689 146.329L185.331 141.627C186.416 141.346 187.501 141.989 187.782 143.034L188.827 147.012Z" fill="#E1F4FD"/>
<path d="M186.296 145.565C186.577 146.65 185.934 147.735 184.889 148.016L171.145 151.673C170.06 151.955 168.975 151.312 168.693 150.267L168.613 149.945C168.332 148.86 168.975 147.775 170.02 147.494L183.764 143.837C184.849 143.556 185.934 144.199 186.215 145.244L186.296 145.565Z" fill="white"/>
</g>
<defs>
<filter id="filter0_d" x="-12" y="-8" width="667" height="458" filterUnits="userSpaceOnUse" color-interpolation-filters="sRGB">
<feFlood flood-opacity="0" result="BackgroundImageFix"/>
<feColorMatrix in="SourceAlpha" type="matrix" values="0 0 0 0 0 0 0 0 0 0 0 0 0 0 0 0 0 0 127 0" result="hardAlpha"/>
<feOffset dy="4"/>
<feGaussianBlur stdDeviation="6"/>
<feColorMatrix type="matrix" values="0 0 0 0 0 0 0 0 0 0 0 0 0 0 0 0 0 0 0.4 0"/>
<feBlend mode="normal" in2="BackgroundImageFix" result="effect1_dropShadow"/>
<feBlend mode="normal" in="SourceGraphic" in2="effect1_dropShadow" result="shape"/>
</filter>
<linearGradient id="paint0_linear" x1="238.01" y1="312.365" x2="164.591" y2="312.365" gradientUnits="userSpaceOnUse">
<stop stop-color="#7DD3F7"/>
<stop offset="1" stop-color="#43B5E8"/>
</linearGradient>
<linearGradient id="paint1_linear" x1="276.341" y1="322.979" x2="202.922" y2="322.979" gradientUnits="userSpaceOnUse">
<stop stop-color="#7DD3F7"/>
<stop offset="1" stop-color="#43B5E8"/>
</linearGradient>
<linearGradient id="paint2_linear" x1="334.038" y1="327.109" x2="260.619" y2="327.109" gradientUnits="userSpaceOnUse">
<stop stop-color="#7DD3F7"/>
<stop offset="1" stop-color="#43B5E8"/>
</linearGradient>
<linearGradient id="paint3_linear" x1="198.877" y1="307.379" x2="125.458" y2="307.379" gradientUnits="userSpaceOnUse">
<stop stop-color="#7DD3F7"/>
<stop offset="1" stop-color="#43B5E8"/>
</linearGradient>
<linearGradient id="paint4_linear" x1="242.518" y1="348.256" x2="169.099" y2="348.256" gradientUnits="userSpaceOnUse">
<stop stop-color="#7DD3F7"/>
<stop offset="1" stop-color="#43B5E8"/>
</linearGradient>
<linearGradient id="paint5_linear" x1="463.288" y1="348.967" x2="389.869" y2="348.967" gradientUnits="userSpaceOnUse">
<stop stop-color="#7DD3F7"/>
<stop offset="1" stop-color="#43B5E8"/>
</linearGradient>
<linearGradient id="paint6_linear" x1="176.547" y1="325.698" x2="103.128" y2="325.698" gradientUnits="userSpaceOnUse">
<stop stop-color="#7DD3F7"/>
<stop offset="1" stop-color="#43B5E8"/>
</linearGradient>
<linearGradient id="paint7_linear" x1="454.652" y1="236.224" x2="528.868" y2="236.224" gradientUnits="userSpaceOnUse">
<stop stop-color="#7DD3F7"/>
<stop offset="1" stop-color="#43B5E8"/>
</linearGradient>
<linearGradient id="paint8_linear" x1="454.652" y1="240.513" x2="528.868" y2="240.513" gradientUnits="userSpaceOnUse">
<stop stop-color="#7DD3F7"/>
<stop offset="1" stop-color="#43B5E8"/>
</linearGradient>
<linearGradient id="paint9_linear" x1="454.513" y1="245.354" x2="528.729" y2="245.354" gradientUnits="userSpaceOnUse">
<stop stop-color="#7DD3F7"/>
<stop offset="1" stop-color="#43B5E8"/>
</linearGradient>
<linearGradient id="paint10_linear" x1="400.446" y1="237.02" x2="442.049" y2="237.02" gradientUnits="userSpaceOnUse">
<stop stop-color="#7DD3F7"/>
<stop offset="1" stop-color="#43B5E8"/>
</linearGradient>
<linearGradient id="paint11_linear" x1="400.446" y1="240.358" x2="442.049" y2="240.358" gradientUnits="userSpaceOnUse">
<stop stop-color="#7DD3F7"/>
<stop offset="1" stop-color="#43B5E8"/>
</linearGradient>
<linearGradient id="paint12_linear" x1="400.369" y1="244.127" x2="441.971" y2="244.127" gradientUnits="userSpaceOnUse">
<stop stop-color="#7DD3F7"/>
<stop offset="1" stop-color="#43B5E8"/>
</linearGradient>
<linearGradient id="paint13_linear" x1="414.807" y1="218.606" x2="443.019" y2="218.606" gradientUnits="userSpaceOnUse">
<stop stop-color="#7DD3F7"/>
<stop offset="1" stop-color="#43B5E8"/>
</linearGradient>
<linearGradient id="paint14_linear" x1="414.887" y1="221.797" x2="443.098" y2="221.797" gradientUnits="userSpaceOnUse">
<stop stop-color="#7DD3F7"/>
<stop offset="1" stop-color="#43B5E8"/>
</linearGradient>
<linearGradient id="paint15_linear" x1="414.755" y1="224.895" x2="442.966" y2="224.895" gradientUnits="userSpaceOnUse">
<stop stop-color="#7DD3F7"/>
<stop offset="1" stop-color="#43B5E8"/>
</linearGradient>
<linearGradient id="paint16_linear" x1="454.791" y1="268.315" x2="529.006" y2="268.315" gradientUnits="userSpaceOnUse">
<stop stop-color="#7DD3F7"/>
<stop offset="1" stop-color="#43B5E8"/>
</linearGradient>
<linearGradient id="paint17_linear" x1="454.791" y1="272.604" x2="529.006" y2="272.604" gradientUnits="userSpaceOnUse">
<stop stop-color="#7DD3F7"/>
<stop offset="1" stop-color="#43B5E8"/>
</linearGradient>
<linearGradient id="paint18_linear" x1="454.653" y1="277.445" x2="528.869" y2="277.445" gradientUnits="userSpaceOnUse">
<stop stop-color="#7DD3F7"/>
<stop offset="1" stop-color="#43B5E8"/>
</linearGradient>
<linearGradient id="paint19_linear" x1="454.931" y1="257.19" x2="487.589" y2="257.19" gradientUnits="userSpaceOnUse">
<stop stop-color="#7DD3F7"/>
<stop offset="1" stop-color="#43B5E8"/>
</linearGradient>
<linearGradient id="paint20_linear" x1="455.208" y1="216.738" x2="528.639" y2="216.738" gradientUnits="userSpaceOnUse">
<stop stop-color="#7DD3F7"/>
<stop offset="1" stop-color="#43B5E8"/>
</linearGradient>
<linearGradient id="paint21_linear" x1="400.368" y1="272.851" x2="440.649" y2="272.851" gradientUnits="userSpaceOnUse">
<stop stop-color="#7DD3F7"/>
<stop offset="1" stop-color="#43B5E8"/>
</linearGradient>
<linearGradient id="paint22_linear" x1="417.738" y1="202.921" x2="425.04" y2="202.921" gradientUnits="userSpaceOnUse">
<stop stop-color="#71459B"/>
<stop offset="0.8668" stop-color="#A76DAE"/>
</linearGradient>
<linearGradient id="paint23_linear" x1="432.671" y1="202.881" x2="439.973" y2="202.881" gradientUnits="userSpaceOnUse">
<stop stop-color="#71459B"/>
<stop offset="0.8668" stop-color="#A76DAE"/>
</linearGradient>
<linearGradient id="paint24_linear" x1="538.94" y1="199.872" x2="541.819" y2="199.872" gradientUnits="userSpaceOnUse">
<stop stop-color="#71459B"/>
<stop offset="0.8668" stop-color="#A76DAE"/>
</linearGradient>
<linearGradient id="paint25_linear" x1="542.493" y1="197.653" x2="551.565" y2="197.653" gradientUnits="userSpaceOnUse">
<stop stop-color="#71459B"/>
<stop offset="0.8668" stop-color="#A76DAE"/>
</linearGradient>
<linearGradient id="paint26_linear" x1="542.493" y1="198.616" x2="551.565" y2="198.616" gradientUnits="userSpaceOnUse">
<stop stop-color="#71459B"/>
<stop offset="0.8668" stop-color="#A76DAE"/>
</linearGradient>
<linearGradient id="paint27_linear" x1="542.493" y1="199.594" x2="551.565" y2="199.594" gradientUnits="userSpaceOnUse">
<stop stop-color="#71459B"/>
<stop offset="0.8668" stop-color="#A76DAE"/>
</linearGradient>
<linearGradient id="paint28_linear" x1="542.507" y1="200.66" x2="551.58" y2="200.66" gradientUnits="userSpaceOnUse">
<stop stop-color="#71459B"/>
<stop offset="0.8668" stop-color="#A76DAE"/>
</linearGradient>
<linearGradient id="paint29_linear" x1="542.478" y1="201.671" x2="551.55" y2="201.671" gradientUnits="userSpaceOnUse">
<stop stop-color="#71459B"/>
<stop offset="0.8668" stop-color="#A76DAE"/>
</linearGradient>
<linearGradient id="paint30_linear" x1="553.206" y1="199.773" x2="556.085" y2="199.773" gradientUnits="userSpaceOnUse">
<stop stop-color="#71459B"/>
<stop offset="0.8668" stop-color="#A76DAE"/>
</linearGradient>
<linearGradient id="paint31_linear" x1="538.552" y1="227.853" x2="545.423" y2="227.853" gradientUnits="userSpaceOnUse">
<stop stop-color="#7DD3F7"/>
<stop offset="1" stop-color="#43B5E8"/>
</linearGradient>
<linearGradient id="paint32_linear" x1="495.081" y1="257.329" x2="527.74" y2="257.329" gradientUnits="userSpaceOnUse">
<stop stop-color="#7DD3F7"/>
<stop offset="1" stop-color="#43B5E8"/>
</linearGradient>
<linearGradient id="paint33_linear" x1="419.433" y1="200.138" x2="423.168" y2="200.138" gradientUnits="userSpaceOnUse">
<stop stop-color="#71459B"/>
<stop offset="0.8668" stop-color="#A76DAE"/>
</linearGradient>
<linearGradient id="paint34_linear" x1="434.461" y1="200.167" x2="438.01" y2="200.167" gradientUnits="userSpaceOnUse">
<stop stop-color="#71459B"/>
<stop offset="0.8668" stop-color="#A76DAE"/>
</linearGradient>
<linearGradient id="paint35_linear" x1="552.063" y1="214.511" x2="561.939" y2="214.511" gradientUnits="userSpaceOnUse">
<stop stop-color="#7DD3F7"/>
<stop offset="1" stop-color="#43B5E8"/>
</linearGradient>
<linearGradient id="paint36_linear" x1="540.507" y1="264.079" x2="556.199" y2="264.079" gradientUnits="userSpaceOnUse">
<stop stop-color="#7DD3F7"/>
<stop offset="1" stop-color="#43B5E8"/>
</linearGradient>
<linearGradient id="paint37_linear" x1="541.066" y1="274.689" x2="555.32" y2="274.689" gradientUnits="userSpaceOnUse">
<stop stop-color="#71459B"/>
<stop offset="0.8668" stop-color="#A76DAE"/>
</linearGradient>
<linearGradient id="paint38_linear" x1="541.066" y1="276.115" x2="555.32" y2="276.115" gradientUnits="userSpaceOnUse">
<stop stop-color="#71459B"/>
<stop offset="0.8668" stop-color="#A76DAE"/>
</linearGradient>
<linearGradient id="paint39_linear" x1="541.118" y1="277.618" x2="555.372" y2="277.618" gradientUnits="userSpaceOnUse">
<stop stop-color="#71459B"/>
<stop offset="0.8668" stop-color="#A76DAE"/>
</linearGradient>
<linearGradient id="paint40_linear" x1="541.119" y1="281.594" x2="555.374" y2="281.594" gradientUnits="userSpaceOnUse">
<stop stop-color="#71459B"/>
<stop offset="0.8668" stop-color="#A76DAE"/>
</linearGradient>
<linearGradient id="paint41_linear" x1="541.119" y1="283.148" x2="555.374" y2="283.148" gradientUnits="userSpaceOnUse">
<stop stop-color="#71459B"/>
<stop offset="0.8668" stop-color="#A76DAE"/>
</linearGradient>
<linearGradient id="paint42_linear" x1="541.119" y1="284.73" x2="555.374" y2="284.73" gradientUnits="userSpaceOnUse">
<stop stop-color="#71459B"/>
<stop offset="0.8668" stop-color="#A76DAE"/>
</linearGradient>
<linearGradient id="paint43_linear" x1="541.119" y1="287.811" x2="555.374" y2="287.811" gradientUnits="userSpaceOnUse">
<stop stop-color="#71459B"/>
<stop offset="0.8668" stop-color="#A76DAE"/>
</linearGradient>
<linearGradient id="paint44_linear" x1="541.119" y1="289.393" x2="555.374" y2="289.393" gradientUnits="userSpaceOnUse">
<stop stop-color="#71459B"/>
<stop offset="0.8668" stop-color="#A76DAE"/>
</linearGradient>
<linearGradient id="paint45_linear" x1="541.119" y1="291.057" x2="555.374" y2="291.057" gradientUnits="userSpaceOnUse">
<stop stop-color="#71459B"/>
<stop offset="0.8668" stop-color="#A76DAE"/>
</linearGradient>
<linearGradient id="paint46_linear" x1="120.979" y1="180.749" x2="194.802" y2="188.416" gradientUnits="userSpaceOnUse">
<stop stop-color="#7DD3F7"/>
<stop offset="1" stop-color="#43B5E8"/>
</linearGradient>
<linearGradient id="paint47_linear" x1="120.536" y1="185.015" x2="194.358" y2="192.682" gradientUnits="userSpaceOnUse">
<stop stop-color="#7DD3F7"/>
<stop offset="1" stop-color="#43B5E8"/>
</linearGradient>
<linearGradient id="paint48_linear" x1="119.898" y1="189.817" x2="193.721" y2="197.484" gradientUnits="userSpaceOnUse">
<stop stop-color="#7DD3F7"/>
<stop offset="1" stop-color="#43B5E8"/>
</linearGradient>
<linearGradient id="paint49_linear" x1="120.443" y1="216.631" x2="194.659" y2="216.631" gradientUnits="userSpaceOnUse">
<stop stop-color="#7DD3F7"/>
<stop offset="1" stop-color="#43B5E8"/>
</linearGradient>
<linearGradient id="paint50_linear" x1="120.443" y1="220.92" x2="194.659" y2="220.92" gradientUnits="userSpaceOnUse">
<stop stop-color="#7DD3F7"/>
<stop offset="1" stop-color="#43B5E8"/>
</linearGradient>
<linearGradient id="paint51_linear" x1="120.305" y1="225.761" x2="194.52" y2="225.761" gradientUnits="userSpaceOnUse">
<stop stop-color="#7DD3F7"/>
<stop offset="1" stop-color="#43B5E8"/>
</linearGradient>
<linearGradient id="paint52_linear" x1="120.582" y1="205.506" x2="153.241" y2="205.506" gradientUnits="userSpaceOnUse">
<stop stop-color="#7DD3F7"/>
<stop offset="1" stop-color="#43B5E8"/>
</linearGradient>
<linearGradient id="paint53_linear" x1="120.927" y1="162.797" x2="194.219" y2="167.308" gradientUnits="userSpaceOnUse">
<stop stop-color="#7DD3F7"/>
<stop offset="1" stop-color="#43B5E8"/>
</linearGradient>
<linearGradient id="paint54_linear" x1="203.8" y1="154.766" x2="206.678" y2="154.766" gradientUnits="userSpaceOnUse">
<stop stop-color="#71459B"/>
<stop offset="0.8668" stop-color="#A76DAE"/>
</linearGradient>
<linearGradient id="paint55_linear" x1="207.353" y1="152.548" x2="216.425" y2="152.548" gradientUnits="userSpaceOnUse">
<stop stop-color="#71459B"/>
<stop offset="0.8668" stop-color="#A76DAE"/>
</linearGradient>
<linearGradient id="paint56_linear" x1="207.353" y1="153.511" x2="216.425" y2="153.511" gradientUnits="userSpaceOnUse">
<stop stop-color="#71459B"/>
<stop offset="0.8668" stop-color="#A76DAE"/>
</linearGradient>
<linearGradient id="paint57_linear" x1="207.353" y1="154.488" x2="216.425" y2="154.488" gradientUnits="userSpaceOnUse">
<stop stop-color="#71459B"/>
<stop offset="0.8668" stop-color="#A76DAE"/>
</linearGradient>
<linearGradient id="paint58_linear" x1="207.367" y1="155.555" x2="216.44" y2="155.555" gradientUnits="userSpaceOnUse">
<stop stop-color="#71459B"/>
<stop offset="0.8668" stop-color="#A76DAE"/>
</linearGradient>
<linearGradient id="paint59_linear" x1="207.337" y1="156.566" x2="216.41" y2="156.566" gradientUnits="userSpaceOnUse">
<stop stop-color="#71459B"/>
<stop offset="0.8668" stop-color="#A76DAE"/>
</linearGradient>
<linearGradient id="paint60_linear" x1="218.065" y1="154.668" x2="220.944" y2="154.668" gradientUnits="userSpaceOnUse">
<stop stop-color="#71459B"/>
<stop offset="0.8668" stop-color="#A76DAE"/>
</linearGradient>
<linearGradient id="paint61_linear" x1="160.733" y1="205.645" x2="193.391" y2="205.645" gradientUnits="userSpaceOnUse">
<stop stop-color="#7DD3F7"/>
<stop offset="1" stop-color="#43B5E8"/>
</linearGradient>
<linearGradient id="paint62_linear" x1="196.224" y1="183.096" x2="211.571" y2="179.821" gradientUnits="userSpaceOnUse">
<stop stop-color="#7DD3F7"/>
<stop offset="1" stop-color="#43B5E8"/>
</linearGradient>
<linearGradient id="paint63_linear" x1="202.375" y1="190.566" x2="216.315" y2="187.591" gradientUnits="userSpaceOnUse">
<stop stop-color="#71459B"/>
<stop offset="0.8668" stop-color="#A76DAE"/>
</linearGradient>
<linearGradient id="paint64_linear" x1="202.673" y1="191.96" x2="216.614" y2="188.985" gradientUnits="userSpaceOnUse">
<stop stop-color="#71459B"/>
<stop offset="0.8668" stop-color="#A76DAE"/>
</linearGradient>
<linearGradient id="paint65_linear" x1="203.037" y1="193.42" x2="216.978" y2="190.445" gradientUnits="userSpaceOnUse">
<stop stop-color="#71459B"/>
<stop offset="0.8668" stop-color="#A76DAE"/>
</linearGradient>
<linearGradient id="paint66_linear" x1="203.868" y1="197.307" x2="217.809" y2="194.332" gradientUnits="userSpaceOnUse">
<stop stop-color="#71459B"/>
<stop offset="0.8668" stop-color="#A76DAE"/>
</linearGradient>
<linearGradient id="paint67_linear" x1="204.193" y1="198.827" x2="218.133" y2="195.852" gradientUnits="userSpaceOnUse">
<stop stop-color="#71459B"/>
<stop offset="0.8668" stop-color="#A76DAE"/>
</linearGradient>
<linearGradient id="paint68_linear" x1="204.522" y1="200.374" x2="218.463" y2="197.399" gradientUnits="userSpaceOnUse">
<stop stop-color="#71459B"/>
<stop offset="0.8668" stop-color="#A76DAE"/>
</linearGradient>
<linearGradient id="paint69_linear" x1="205.166" y1="203.388" x2="219.107" y2="200.413" gradientUnits="userSpaceOnUse">
<stop stop-color="#71459B"/>
<stop offset="0.8668" stop-color="#A76DAE"/>
</linearGradient>
<linearGradient id="paint70_linear" x1="205.496" y1="204.935" x2="219.437" y2="201.96" gradientUnits="userSpaceOnUse">
<stop stop-color="#71459B"/>
<stop offset="0.8668" stop-color="#A76DAE"/>
</linearGradient>
<linearGradient id="paint71_linear" x1="205.843" y1="206.562" x2="219.784" y2="203.587" gradientUnits="userSpaceOnUse">
<stop stop-color="#71459B"/>
<stop offset="0.8668" stop-color="#A76DAE"/>
</linearGradient>
<linearGradient id="paint72_linear" x1="85.6058" y1="189.831" x2="123.235" y2="207.575" gradientUnits="userSpaceOnUse">
<stop stop-color="#7DD3F7"/>
<stop offset="1" stop-color="#43B5E8"/>
</linearGradient>
<linearGradient id="paint73_linear" x1="84.182" y1="192.85" x2="121.811" y2="210.594" gradientUnits="userSpaceOnUse">
<stop stop-color="#7DD3F7"/>
<stop offset="1" stop-color="#43B5E8"/>
</linearGradient>
<linearGradient id="paint74_linear" x1="82.5047" y1="196.226" x2="120.134" y2="213.97" gradientUnits="userSpaceOnUse">
<stop stop-color="#7DD3F7"/>
<stop offset="1" stop-color="#43B5E8"/>
</linearGradient>
<linearGradient id="paint75_linear" x1="59.7604" y1="206.5" x2="97.3893" y2="224.244" gradientUnits="userSpaceOnUse">
<stop stop-color="#7DD3F7"/>
<stop offset="1" stop-color="#43B5E8"/>
</linearGradient>
<linearGradient id="paint76_linear" x1="58.3369" y1="209.519" x2="95.9658" y2="227.263" gradientUnits="userSpaceOnUse">
<stop stop-color="#7DD3F7"/>
<stop offset="1" stop-color="#43B5E8"/>
</linearGradient>
<linearGradient id="paint77_linear" x1="56.6591" y1="212.895" x2="94.2881" y2="230.639" gradientUnits="userSpaceOnUse">
<stop stop-color="#7DD3F7"/>
<stop offset="1" stop-color="#43B5E8"/>
</linearGradient>
<linearGradient id="paint78_linear" x1="67.6874" y1="241.802" x2="107.831" y2="238.484" gradientUnits="userSpaceOnUse">
<stop stop-color="#7DD3F7"/>
<stop offset="1" stop-color="#43B5E8"/>
</linearGradient>
<linearGradient id="paint79_linear" x1="95.2408" y1="180.011" x2="121.342" y2="169.302" gradientUnits="userSpaceOnUse">
<stop stop-color="#7DD3F7"/>
<stop offset="1" stop-color="#43B5E8"/>
</linearGradient>
<linearGradient id="paint80_linear" x1="212.676" y1="180.756" x2="238.777" y2="170.047" gradientUnits="userSpaceOnUse">
<stop stop-color="#7DD3F7"/>
<stop offset="1" stop-color="#43B5E8"/>
</linearGradient>
<linearGradient id="paint81_linear" x1="210.991" y1="177.385" x2="237.092" y2="166.676" gradientUnits="userSpaceOnUse">
<stop stop-color="#7DD3F7"/>
<stop offset="1" stop-color="#43B5E8"/>
</linearGradient>
<linearGradient id="paint82_linear" x1="96.5256" y1="182.933" x2="122.626" y2="172.224" gradientUnits="userSpaceOnUse">
<stop stop-color="#7DD3F7"/>
<stop offset="1" stop-color="#43B5E8"/>
</linearGradient>
<linearGradient id="paint83_linear" x1="97.5796" y1="185.849" x2="123.681" y2="175.14" gradientUnits="userSpaceOnUse">
<stop stop-color="#7DD3F7"/>
<stop offset="1" stop-color="#43B5E8"/>
</linearGradient>
<linearGradient id="paint84_linear" x1="91.9981" y1="164.386" x2="98.7539" y2="161.614" gradientUnits="userSpaceOnUse">
<stop stop-color="#71459B"/>
<stop offset="0.8668" stop-color="#A76DAE"/>
</linearGradient>
<linearGradient id="paint85_linear" x1="105.799" y1="158.681" x2="112.555" y2="155.909" gradientUnits="userSpaceOnUse">
<stop stop-color="#71459B"/>
<stop offset="0.8668" stop-color="#A76DAE"/>
</linearGradient>
<linearGradient id="paint86_linear" x1="87.5256" y1="163.362" x2="90.9808" y2="161.944" gradientUnits="userSpaceOnUse">
<stop stop-color="#71459B"/>
<stop offset="0.8668" stop-color="#A76DAE"/>
</linearGradient>
<linearGradient id="paint87_linear" x1="106.424" y1="155.491" x2="109.707" y2="154.144" gradientUnits="userSpaceOnUse">
<stop stop-color="#71459B"/>
<stop offset="0.8668" stop-color="#A76DAE"/>
</linearGradient>
<linearGradient id="paint88_linear" x1="167.899" y1="225.393" x2="174.752" y2="225.885" gradientUnits="userSpaceOnUse">
<stop stop-color="#7DD3F7"/>
<stop offset="1" stop-color="#43B5E8"/>
</linearGradient>
<linearGradient id="paint89_linear" x1="182.233" y1="212.967" x2="192.088" y2="213.599" gradientUnits="userSpaceOnUse">
<stop stop-color="#7DD3F7"/>
<stop offset="1" stop-color="#43B5E8"/>
</linearGradient>
<linearGradient id="paint90_linear" x1="189.415" y1="247.766" x2="199.27" y2="248.398" gradientUnits="userSpaceOnUse">
<stop stop-color="#7DD3F7"/>
<stop offset="1" stop-color="#43B5E8"/>
</linearGradient>
</defs>
</svg>
