<svg width="652" height="434" viewBox="0 0 652 434" fill="none" xmlns="http://www.w3.org/2000/svg">
<g filter="url(#filter0_d)">
<path d="M323.277 384.627C443.795 384.627 541.495 371.079 541.495 354.367C541.495 337.656 443.795 324.108 323.277 324.108C202.758 324.108 105.059 337.656 105.059 354.367C105.059 371.079 202.758 384.627 323.277 384.627Z" fill="#D1EEFC"/>
<path d="M242.017 338.775H168.595C168.595 338.775 176.391 325.193 173.096 307.672C173.096 307.672 185.393 316.955 184.991 328.046C184.991 328.046 177.195 303.051 185.393 288.021C185.393 288.021 196.887 308.757 193.189 324.108C193.189 324.108 207.536 302.327 201.79 285.892C201.79 285.892 218.186 301.604 216.137 321.978C216.137 321.978 229.68 321.616 229.68 310.887C229.72 310.927 230.524 339.86 242.017 338.775Z" fill="url(#paint0_linear)"/>
<path d="M280.356 335.641H206.934C206.934 335.641 214.73 329.131 211.435 320.732C211.435 320.732 223.732 325.193 223.33 330.497C223.33 330.497 215.534 318.522 223.732 311.329C223.732 311.329 235.226 321.255 231.528 328.609C231.528 328.609 245.875 318.16 240.128 310.284C240.128 310.284 256.525 317.799 254.475 327.564C254.475 327.564 268.019 327.403 268.019 322.259C268.019 322.3 268.863 336.163 280.356 335.641Z" fill="url(#paint1_linear)"/>
<path d="M338.025 331.823H264.603C264.603 331.823 272.399 329.412 269.104 326.278C269.104 326.278 281.401 327.925 280.999 329.894C280.999 329.894 273.203 325.434 281.401 322.741C281.401 322.741 292.895 326.438 289.197 329.171C289.197 329.171 303.544 325.273 297.797 322.339C297.797 322.339 314.194 325.152 312.144 328.769C312.144 328.769 325.687 328.689 325.687 326.8C325.728 326.84 326.572 332.024 338.025 331.823Z" fill="url(#paint2_linear)"/>
<path d="M202.875 342.633H129.452C129.452 342.633 137.249 324.51 133.953 301.162C133.953 301.162 146.251 313.579 145.849 328.327C145.849 328.327 138.052 294.933 146.251 274.921C146.251 274.921 157.744 302.568 154.047 323.103C154.047 323.103 168.394 294.009 162.647 272.068C162.647 272.068 179.044 293.045 176.994 320.25C176.994 320.25 190.537 319.768 190.537 305.462C190.577 305.462 191.381 344.08 202.875 342.633Z" fill="url(#paint3_linear)"/>
<path d="M503.638 314.343L124.067 254.668L126.72 246.39L506.331 306.065L503.638 314.343Z" fill="#20C4F4"/>
<path d="M324.563 283.561H313.391V345.205H324.563V283.561Z" fill="#20C4F4"/>
<path d="M365.233 344.08H274.449V349.545H365.233V344.08Z" fill="#20C4F4"/>
<path d="M275.815 344.08H247.242V353.764H275.815V344.08Z" fill="#20C4F4"/>
<path d="M391.756 344H363.183V353.684H391.756V344Z" fill="#20C4F4"/>
<path d="M246.518 356.256H173.096C173.096 356.256 180.892 352.157 177.597 346.853C177.597 346.853 189.894 349.666 189.492 353.041C189.492 353.041 181.696 345.446 189.894 340.905C189.894 340.905 201.388 347.174 197.69 351.836C197.69 351.836 212.037 345.245 206.291 340.262C206.291 340.262 222.687 345.044 220.637 351.193C220.637 351.193 234.181 351.072 234.181 347.817C234.221 347.817 235.025 356.577 246.518 356.256Z" fill="url(#paint4_linear)"/>
<path d="M205.126 359.39H144.362C144.362 359.39 150.832 357.059 148.1 354.005C148.1 354.005 158.267 355.613 157.946 357.502C157.946 357.502 151.475 353.202 158.267 350.59C158.267 350.59 167.792 354.166 164.737 356.818C164.737 356.818 176.633 353.041 171.851 350.228C171.851 350.228 185.434 352.961 183.746 356.457C183.746 356.457 194.958 356.376 194.958 354.528C194.918 354.608 195.601 359.591 205.126 359.39Z" fill="#A8E0F9"/>
<path d="M467.268 358.305H393.886C393.886 358.305 401.682 353.523 398.387 347.294C398.387 347.294 410.684 350.59 410.282 354.488C410.282 354.488 402.486 345.647 410.684 340.342C410.684 340.342 422.178 347.656 418.48 353.121C418.48 353.121 432.827 345.406 427.081 339.619C427.081 339.619 443.477 345.165 441.428 352.398C441.428 352.398 454.971 352.277 454.971 348.5C454.971 348.46 455.815 358.707 467.268 358.305Z" fill="url(#paint5_linear)"/>
<path d="M180.53 348.621H107.108C107.108 348.621 114.904 336.847 111.609 321.657C111.609 321.657 123.906 329.694 123.504 339.338C123.504 339.338 115.708 317.638 123.906 304.618C123.906 304.618 135.4 322.581 131.703 335.922C131.703 335.922 146.05 317.035 140.303 302.77C140.303 302.77 156.699 316.392 154.65 334.074C154.65 334.074 168.193 333.752 168.193 324.47C168.233 324.429 169.077 349.545 180.53 348.621Z" fill="url(#paint6_linear)"/>
<path d="M104.898 73.3124L187.001 73.0311C187.001 73.0311 182.741 59.4887 166.907 63.6278C166.907 63.6278 160.075 56.1533 149.385 56.1533C138.695 56.1533 135.279 62.2213 135.279 62.2213C135.279 62.2213 132.306 56.957 122.018 57.5196C111.77 58.0822 110.484 63.025 110.484 63.025C110.484 63.025 97.6237 67.4855 104.898 73.3124Z" fill="#E6E7E8"/>
<path d="M393.927 124.628L517.945 124.347C517.945 124.347 511.475 110.805 487.604 114.944C487.604 114.944 477.276 107.469 461.12 107.469C444.965 107.469 439.821 113.537 439.821 113.537C439.821 113.537 435.28 108.273 419.807 108.836C404.335 109.398 402.366 114.341 402.366 114.341C402.366 114.341 382.915 118.801 393.927 124.628Z" fill="#F1F2F2"/>
<path d="M492.546 150.548L621.629 150.266C621.629 150.266 614.917 136.724 590.041 140.863C590.041 140.863 579.271 133.389 562.473 133.389C545.674 133.389 540.289 139.457 540.289 139.457C540.289 139.457 535.587 134.192 519.432 134.755C503.276 135.318 501.267 140.26 501.267 140.26C501.267 140.26 481.133 144.761 492.546 150.548Z" fill="#F1F2F2"/>
<path d="M42.0846 111.046L124.188 110.604C124.188 110.604 119.928 89.1451 104.094 95.6953C104.094 95.6953 97.2621 83.8809 86.5722 83.8809C75.8823 83.8809 72.4664 93.5253 72.4664 93.5253C72.4664 93.5253 69.4925 85.207 59.2045 86.091C48.9165 86.9751 47.6707 94.8514 47.6707 94.8514C47.6707 94.8514 34.8107 101.844 42.0846 111.046Z" fill="#E6E7E8"/>
<path d="M233.981 159.228L316.084 158.947C316.084 158.947 311.824 145.404 295.99 149.543C295.99 149.543 289.158 142.069 278.468 142.069C267.778 142.069 264.362 148.137 264.362 148.137C264.362 148.137 261.389 142.873 251.101 143.435C240.813 143.998 239.567 148.941 239.567 148.941C239.567 148.941 226.707 153.441 233.981 159.228Z" fill="#E6E7E8"/>
<path d="M31.8368 150.588L99.3518 150.226C99.3518 150.226 95.8555 132.666 82.8347 138.05C82.8347 138.05 77.2085 128.366 68.4074 128.366C59.6064 128.366 56.7932 136.242 56.7932 136.242C56.7932 136.242 54.3418 129.451 45.9024 130.134C37.463 130.817 36.4182 137.327 36.4182 137.327C36.4182 137.327 25.8488 143.033 31.8368 150.588Z" fill="#E6E7E8"/>
<path d="M503.035 96.4989L585.138 96.2176C585.138 96.2176 580.879 82.6752 565.045 86.8143C565.045 86.8143 558.213 79.3398 547.523 79.3398C536.833 79.3398 533.417 85.4078 533.417 85.4078C533.417 85.4078 530.443 80.1435 520.155 80.7061C509.907 81.2687 508.621 86.2115 508.621 86.2115C508.621 86.2115 495.761 90.7123 503.035 96.4989Z" fill="#F1F2F2"/>
<path d="M125.674 131.179L308.246 130.777C308.246 130.777 298.722 110.403 263.558 116.632C263.558 116.632 248.327 105.38 224.576 105.38C200.825 105.38 193.189 114.542 193.189 114.542C193.189 114.542 186.518 106.626 163.692 107.47C140.865 108.313 138.012 115.788 138.012 115.788C138.012 115.788 109.519 122.459 125.674 131.179Z" fill="#E6E7E8"/>
<path d="M562.272 71.142L302.098 70.7804C302.098 70.7804 315.641 53.2596 365.795 58.6444C365.795 58.6444 387.496 49 421.374 49C455.252 49 466.103 56.8763 466.103 56.8763C466.103 56.8763 475.587 50.085 508.099 50.8083C540.611 51.5317 544.669 57.9613 544.669 57.9613C544.669 57.9613 585.299 63.6274 562.272 71.142Z" fill="#F1F2F2"/>
<path d="M461.481 92.6412L288.112 92.4804C288.112 92.4804 297.155 84.8452 330.55 87.176C330.55 87.176 344.978 82.9565 367.563 82.9565C390.148 82.9565 397.342 86.3723 397.342 86.3723C397.342 86.3723 403.651 83.3986 425.312 83.7201C446.973 84.0415 449.706 86.8143 449.706 86.8143C449.706 86.8143 476.833 89.346 461.481 92.6412Z" fill="#F1F2F2"/>
<path d="M424.026 362.003H363.263C363.263 362.003 369.733 359.672 367 356.618C367 356.618 377.168 358.225 376.846 360.114C376.846 360.114 370.376 355.814 377.168 353.202C377.168 353.202 386.692 356.778 383.638 359.431C383.638 359.431 395.533 355.653 390.751 352.84C390.751 352.84 404.334 355.573 402.646 359.069C402.646 359.069 413.859 358.989 413.859 357.14C413.859 357.18 414.542 362.203 424.026 362.003Z" fill="#A8E0F9"/>
<path d="M281.844 362.766H221.04C221.04 362.766 227.51 360.435 224.777 357.381C224.777 357.381 234.945 358.988 234.623 360.877C234.623 360.877 228.153 356.577 234.945 353.965C234.945 353.965 244.469 357.542 241.415 360.194C241.415 360.194 253.311 356.416 248.528 353.604C248.528 353.604 262.112 356.336 260.424 359.832C260.424 359.832 271.636 359.752 271.636 357.903C271.636 357.944 272.319 362.927 281.844 362.766Z" fill="#A8E0F9"/>
<path d="M511.193 360.275H450.43C450.43 360.275 456.9 357.944 454.167 354.89C454.167 354.89 464.335 356.497 464.013 358.386C464.013 358.386 457.543 354.086 464.335 351.474C464.335 351.474 473.859 355.05 470.805 357.703C470.805 357.703 482.7 353.925 477.918 351.112C477.918 351.112 491.501 353.845 489.813 357.341C489.813 357.341 501.026 357.261 501.026 355.412C501.026 355.452 501.709 360.475 511.193 360.275Z" fill="#A8E0F9"/>
<path d="M539.646 291.076C539.646 292.201 538.762 293.085 537.636 293.085H452.76C451.635 293.085 450.751 292.201 450.751 291.076V197.083C450.751 195.957 451.635 195.073 452.76 195.073H537.636C538.762 195.073 539.646 195.957 539.646 197.083V291.076Z" fill="#808285"/>
<path d="M538.078 289.669C538.078 290.794 537.194 291.678 536.069 291.678H454.609C453.484 291.678 452.6 290.794 452.6 289.669V199.413C452.6 198.288 453.484 197.404 454.609 197.404H536.069C537.194 197.404 538.078 198.288 538.078 199.413V289.669Z" fill="#B9E5FB"/>
<path d="M449.224 284.084C449.224 285.209 448.34 286.093 447.215 286.093H402.085C400.959 286.093 400.075 285.209 400.075 284.084V233.852C400.075 232.727 400.959 231.843 402.085 231.843H447.215C448.34 231.843 449.224 232.727 449.224 233.852V284.084Z" fill="#E1F4FD"/>
<path d="M581.883 296.581C581.883 297.706 580.999 298.59 579.873 298.59H542.66C541.535 298.59 540.65 297.706 540.65 296.581V255.15C540.65 254.025 541.535 253.141 542.66 253.141H579.873C580.999 253.141 581.883 254.025 581.883 255.15V296.581Z" fill="#E1F4FD"/>
<path d="M572.559 248.118C572.559 249.243 571.675 250.127 570.55 250.127H542.66C541.535 250.127 540.65 249.243 540.65 248.118V207.651C540.65 206.526 541.535 205.642 542.66 205.642H570.55C571.675 205.642 572.559 206.526 572.559 207.651V248.118Z" fill="#C9EBFC"/>
<path d="M449.023 227.141C449.023 228.266 448.139 229.15 447.014 229.15H419.124C417.998 229.15 417.114 228.266 417.114 227.141V195.958C417.114 194.832 417.998 193.948 419.124 193.948H447.014C448.139 193.948 449.023 194.832 449.023 195.958V227.141Z" fill="#CCECFC"/>
<path d="M563.598 201.905C563.598 203.03 562.714 203.914 561.588 203.914H543.343C542.218 203.914 541.334 203.03 541.334 201.905V197.806C541.334 196.68 542.218 195.796 543.343 195.796H561.588C562.714 195.796 563.598 196.68 563.598 197.806V201.905Z" fill="#E6E7E8"/>
<path d="M567.898 282.677C567.898 283.802 567.014 284.686 565.888 284.686H547.643C546.518 284.686 545.634 283.802 545.634 282.677V278.578C545.634 277.453 546.518 276.569 547.643 276.569H565.888C567.014 276.569 567.898 277.453 567.898 278.578V282.677Z" fill="#E1F4FD"/>
<path d="M472.814 191.979C472.814 193.104 471.93 193.988 470.804 193.988H452.559C451.434 193.988 450.55 193.104 450.55 191.979V187.398C450.55 186.273 451.434 185.389 452.559 185.389H470.804C471.93 185.389 472.814 186.273 472.814 187.398V191.979Z" fill="#E6E7E8"/>
<path d="M532.854 236.223C532.854 236.785 532.332 237.228 531.649 237.228H459.834C459.15 237.228 458.628 236.785 458.628 236.223C458.628 235.66 459.15 235.218 459.834 235.218H531.649C532.332 235.218 532.854 235.66 532.854 236.223Z" fill="url(#paint7_linear)"/>
<path d="M532.854 240.523C532.854 241.085 532.332 241.527 531.649 241.527H459.834C459.15 241.527 458.628 241.085 458.628 240.523C458.628 239.96 459.15 239.518 459.834 239.518H531.649C532.332 239.518 532.854 239.96 532.854 240.523Z" fill="url(#paint8_linear)"/>
<path d="M532.733 245.345C532.733 245.908 532.211 246.35 531.528 246.35H459.712C459.029 246.35 458.507 245.908 458.507 245.345C458.507 244.782 459.029 244.34 459.712 244.34H531.528C532.171 244.34 532.733 244.823 532.733 245.345Z" fill="url(#paint9_linear)"/>
<path d="M446.049 237.027C446.049 237.469 445.688 237.79 445.245 237.79H405.259C404.817 237.79 404.455 237.429 404.455 237.027C404.455 236.585 404.817 236.263 405.259 236.263H445.245C445.688 236.263 446.049 236.585 446.049 237.027Z" fill="url(#paint10_linear)"/>
<path d="M446.049 240.362C446.049 240.804 445.688 241.126 445.245 241.126H405.259C404.817 241.126 404.455 240.764 404.455 240.362C404.455 239.92 404.817 239.599 405.259 239.599H445.245C445.688 239.599 446.049 239.92 446.049 240.362Z" fill="url(#paint11_linear)"/>
<path d="M445.969 244.139C445.969 244.581 445.607 244.903 445.165 244.903H405.179C404.737 244.903 404.375 244.541 404.375 244.139C404.375 243.737 404.737 243.376 405.179 243.376H445.165C445.607 243.335 445.969 243.697 445.969 244.139Z" fill="url(#paint12_linear)"/>
<path d="M445.848 250.609C445.848 251.051 445.486 251.373 445.044 251.373H405.058C404.616 251.373 404.254 251.011 404.254 250.609C404.254 250.207 404.616 249.846 405.058 249.846H445.044C445.486 249.846 445.848 250.167 445.848 250.609Z" fill="white"/>
<path d="M445.848 253.944C445.848 254.386 445.486 254.708 445.044 254.708H405.058C404.616 254.708 404.254 254.346 404.254 253.944C404.254 253.542 404.616 253.181 405.058 253.181H445.044C445.486 253.181 445.848 253.502 445.848 253.944Z" fill="white"/>
<path d="M445.768 257.722C445.768 258.164 445.406 258.486 444.964 258.486H404.938C404.495 258.486 404.134 258.124 404.134 257.722C404.134 257.32 404.495 256.958 404.938 256.958H444.924C445.406 256.958 445.768 257.28 445.768 257.722Z" fill="white"/>
<path d="M447.013 218.622C447.013 218.984 446.652 219.305 446.21 219.305H419.606C419.163 219.305 418.802 218.984 418.802 218.622C418.802 218.26 419.163 217.939 419.606 217.939H446.21C446.652 217.899 447.013 218.22 447.013 218.622Z" fill="url(#paint13_linear)"/>
<path d="M447.094 221.796C447.094 222.158 446.733 222.48 446.291 222.48H419.687C419.244 222.48 418.883 222.158 418.883 221.796C418.883 221.435 419.244 221.113 419.687 221.113H446.291C446.733 221.113 447.094 221.435 447.094 221.796Z" fill="url(#paint14_linear)"/>
<path d="M446.973 224.891C446.973 225.252 446.612 225.574 446.17 225.574H419.565C419.123 225.574 418.762 225.252 418.762 224.891C418.762 224.529 419.123 224.208 419.565 224.208H446.17C446.612 224.208 446.973 224.529 446.973 224.891Z" fill="url(#paint15_linear)"/>
<path d="M533.014 268.331C533.014 268.893 532.492 269.335 531.809 269.335H459.994C459.311 269.335 458.788 268.893 458.788 268.331C458.788 267.768 459.311 267.326 459.994 267.326H531.809C532.452 267.326 533.014 267.768 533.014 268.331Z" fill="url(#paint16_linear)"/>
<path d="M533.014 272.591C533.014 273.153 532.492 273.595 531.809 273.595H459.994C459.311 273.595 458.788 273.153 458.788 272.591C458.788 272.028 459.311 271.586 459.994 271.586H531.809C532.452 271.586 533.014 272.068 533.014 272.591Z" fill="url(#paint17_linear)"/>
<path d="M532.854 277.453C532.854 278.015 532.332 278.457 531.649 278.457H459.834C459.15 278.457 458.628 278.015 458.628 277.453C458.628 276.89 459.15 276.448 459.834 276.448H531.649C532.332 276.448 532.854 276.89 532.854 277.453Z" fill="url(#paint18_linear)"/>
<path d="M491.582 262.223C491.582 263.348 490.697 264.232 489.572 264.232H460.919C459.793 264.232 458.909 263.348 458.909 262.223V252.176C458.909 251.051 459.793 250.167 460.919 250.167H489.572C490.697 250.167 491.582 251.051 491.582 252.176V262.223Z" fill="url(#paint19_linear)"/>
<path d="M532.653 230.919C532.653 232.044 531.769 232.928 530.644 232.928H461.2C460.075 232.928 459.19 232.044 459.19 230.919V202.548C459.19 201.423 460.075 200.539 461.2 200.539H530.604C531.729 200.539 532.613 201.423 532.613 202.548V230.919H532.653Z" fill="url(#paint20_linear)"/>
<g opacity="0.75">
<path opacity="0.75" d="M444.643 278.859C444.643 279.984 443.759 280.868 442.633 280.868H406.384C405.259 280.868 404.375 279.984 404.375 278.859V266.844C404.375 265.719 405.259 264.834 406.384 264.834H442.633C443.759 264.834 444.643 265.719 444.643 266.844V278.859Z" fill="url(#paint21_linear)"/>
</g>
<path d="M577.824 294.451C577.824 295.577 576.94 296.461 575.815 296.461H564.201C563.076 296.461 562.191 295.577 562.191 294.451V259.048C562.191 257.923 563.076 257.039 564.201 257.039H575.815C576.94 257.039 577.824 257.923 577.824 259.048V294.451Z" fill="#D1D3D4"/>
<path d="M447.094 213.558C447.094 214.683 446.21 215.568 445.085 215.568H435.199C434.074 215.568 433.189 214.683 433.189 213.558V198.047C433.189 196.922 434.074 196.038 435.199 196.038H445.085C446.21 196.038 447.094 196.922 447.094 198.047V213.558Z" fill="#C7C8CA"/>
<path d="M432.265 213.558C432.265 214.683 431.381 215.568 430.256 215.568H420.37C419.244 215.568 418.36 214.683 418.36 213.558V198.047C418.36 196.922 419.244 196.038 420.37 196.038H430.256C431.381 196.038 432.265 196.922 432.265 198.047V213.558Z" fill="#C7C8CA"/>
<path d="M430.899 202.628C430.899 203.754 430.014 204.638 428.889 204.638H421.776C420.651 204.638 419.767 203.754 419.767 202.628V199.534C419.767 198.409 420.651 197.525 421.776 197.525H428.889C430.014 197.525 430.899 198.409 430.899 199.534V202.628Z" fill="#F1F2F2"/>
<path d="M445.728 202.789C445.728 203.914 444.844 204.798 443.718 204.798H436.605C435.48 204.798 434.596 203.914 434.596 202.789V199.694C434.596 198.569 435.48 197.685 436.605 197.685H443.718C444.844 197.685 445.728 198.569 445.728 199.694V202.789Z" fill="white"/>
<path d="M458.105 190.894C458.105 192.019 457.221 192.903 456.096 192.903H453.564C452.439 192.903 451.555 192.019 451.555 190.894V188.402C451.555 187.277 452.439 186.393 453.564 186.393H456.096C457.221 186.393 458.105 187.277 458.105 188.402V190.894Z" fill="white"/>
<path d="M472.13 190.894C472.13 192.019 471.246 192.903 470.121 192.903H461.039C459.913 192.903 459.029 192.019 459.029 190.894V188.402C459.029 187.277 459.913 186.393 461.039 186.393H470.121C471.246 186.393 472.13 187.277 472.13 188.402V190.894Z" fill="white"/>
<path d="M556.283 201.101C556.283 202.226 555.399 203.11 554.273 203.11H544.387C543.262 203.11 542.378 202.226 542.378 201.101V198.77C542.378 197.645 543.262 196.761 544.387 196.761H554.233C555.358 196.761 556.243 197.645 556.243 198.77V201.101H556.283Z" fill="white"/>
<path d="M562.834 201.061C562.834 202.186 561.95 203.07 560.825 203.07H558.735C557.61 203.07 556.726 202.186 556.726 201.061V198.73C556.726 197.605 557.61 196.721 558.735 196.721H560.825C561.95 196.721 562.834 197.605 562.834 198.73V201.061Z" fill="white"/>
<path d="M560.141 294.371C560.141 295.496 559.257 296.38 558.132 296.38H546.317C545.192 296.38 544.308 295.496 544.308 294.371V275.484C544.308 274.359 545.192 273.475 546.317 273.475H558.132C559.257 273.475 560.141 274.359 560.141 275.484V294.371Z" fill="white"/>
<path d="M575.493 263.991C575.493 265.116 574.609 266 573.484 266H566.371C565.245 266 564.361 265.116 564.361 263.991V260.896C564.361 259.771 565.245 258.887 566.371 258.887H573.484C574.609 258.887 575.493 259.771 575.493 260.896V263.991Z" fill="white"/>
<path d="M575.373 277.212C575.373 278.337 574.489 279.221 573.364 279.221H566.251C565.125 279.221 564.241 278.337 564.241 277.212V274.118C564.241 272.992 565.125 272.108 566.251 272.108H573.364C574.489 272.108 575.373 272.992 575.373 274.118V277.212Z" fill="white"/>
<path d="M575.373 290.794C575.373 291.92 574.489 292.804 573.364 292.804H566.251C565.125 292.804 564.241 291.92 564.241 290.794V287.7C564.241 286.575 565.125 285.691 566.251 285.691H573.364C574.489 285.691 575.373 286.575 575.373 287.7V290.794Z" fill="white"/>
<path d="M575.453 267.326C575.453 267.527 575.252 267.728 575.051 267.728H564.723C564.482 267.728 564.321 267.527 564.321 267.326C564.321 267.125 564.482 266.924 564.723 266.924H575.051C575.252 266.924 575.453 267.085 575.453 267.326Z" fill="white"/>
<path d="M430.858 206.687C430.858 206.928 430.698 207.088 430.457 207.088H420.128C419.887 207.088 419.727 206.928 419.727 206.687C419.727 206.445 419.887 206.285 420.128 206.285H430.457C430.658 206.285 430.858 206.445 430.858 206.687Z" fill="white"/>
<path d="M429.049 202.909C429.049 203.07 428.889 203.191 428.648 203.191H422.137C421.896 203.191 421.735 203.07 421.735 202.909C421.735 202.748 421.896 202.628 422.137 202.628H428.648C428.849 202.668 429.049 202.789 429.049 202.909Z" fill="url(#paint22_linear)"/>
<path d="M443.959 202.869C443.959 203.03 443.799 203.15 443.558 203.15H437.087C436.886 203.15 436.686 203.03 436.686 202.869C436.686 202.708 436.886 202.588 437.087 202.588H443.598C443.799 202.628 443.959 202.749 443.959 202.869Z" fill="url(#paint23_linear)"/>
<path d="M545.835 201.383C545.835 202.066 545.272 202.588 544.629 202.588H544.147C543.464 202.588 542.941 202.066 542.941 201.383V198.369C542.941 197.726 543.464 197.163 544.147 197.163H544.629C545.272 197.163 545.835 197.726 545.835 198.369V201.383Z" fill="url(#paint24_linear)"/>
<path d="M555.56 197.645C555.56 197.766 555.399 197.846 555.158 197.846H546.879C546.638 197.846 546.478 197.766 546.478 197.645C546.478 197.525 546.638 197.444 546.879 197.444H555.158C555.399 197.444 555.56 197.525 555.56 197.645Z" fill="url(#paint25_linear)"/>
<path d="M555.56 198.61C555.56 198.73 555.399 198.811 555.158 198.811H546.879C546.638 198.811 546.478 198.73 546.478 198.61C546.478 198.489 546.638 198.409 546.879 198.409H555.158C555.399 198.409 555.56 198.489 555.56 198.61Z" fill="url(#paint26_linear)"/>
<path d="M555.56 199.574C555.56 199.695 555.399 199.775 555.158 199.775H546.879C546.638 199.775 546.478 199.695 546.478 199.574C546.478 199.453 546.638 199.373 546.879 199.373H555.158C555.399 199.373 555.56 199.453 555.56 199.574Z" fill="url(#paint27_linear)"/>
<path d="M555.6 200.659C555.6 200.779 555.439 200.86 555.198 200.86H546.919C546.678 200.86 546.518 200.779 546.518 200.659C546.518 200.538 546.678 200.458 546.919 200.458H555.198C555.399 200.458 555.6 200.538 555.6 200.659Z" fill="url(#paint28_linear)"/>
<path d="M555.56 201.664C555.56 201.784 555.399 201.865 555.158 201.865H546.879C546.638 201.865 546.478 201.784 546.478 201.664C546.478 201.543 546.638 201.463 546.879 201.463H555.158C555.359 201.463 555.56 201.543 555.56 201.664Z" fill="url(#paint29_linear)"/>
<path d="M560.102 201.262C560.102 201.945 559.539 202.467 558.896 202.467H558.414C557.73 202.467 557.208 201.945 557.208 201.262V198.248C557.208 197.605 557.73 197.042 558.414 197.042H558.896C559.539 197.042 560.102 197.605 560.102 198.248V201.262Z" fill="url(#paint30_linear)"/>
<path d="M445.768 206.687C445.768 206.928 445.567 207.088 445.366 207.088H435.038C434.837 207.088 434.636 206.928 434.636 206.687C434.636 206.445 434.837 206.285 435.038 206.285H445.366C445.567 206.285 445.768 206.445 445.768 206.687Z" fill="white"/>
<path d="M445.768 208.455C445.768 208.656 445.567 208.857 445.366 208.857H435.038C434.837 208.857 434.636 208.656 434.636 208.455C434.636 208.254 434.837 208.053 435.038 208.053H445.366C445.567 208.053 445.768 208.214 445.768 208.455Z" fill="white"/>
<path d="M445.768 210.343C445.768 210.544 445.567 210.745 445.366 210.745H435.038C434.837 210.745 434.636 210.544 434.636 210.343C434.636 210.102 434.837 209.941 435.038 209.941H445.366C445.567 209.941 445.768 210.102 445.768 210.343Z" fill="white"/>
<path d="M445.688 212.192C445.688 212.393 445.487 212.594 445.286 212.594H434.958C434.757 212.594 434.556 212.393 434.556 212.192C434.556 211.991 434.757 211.79 434.958 211.79H445.286C445.487 211.75 445.688 211.951 445.688 212.192Z" fill="white"/>
<path d="M430.818 208.495C430.818 208.696 430.618 208.897 430.417 208.897H420.088C419.887 208.897 419.687 208.696 419.687 208.495C419.687 208.294 419.887 208.093 420.088 208.093H430.417C430.618 208.053 430.818 208.254 430.818 208.495Z" fill="white"/>
<path d="M430.899 210.263C430.899 210.464 430.698 210.665 430.497 210.665H420.168C419.968 210.665 419.767 210.464 419.767 210.263C419.767 210.022 419.968 209.861 420.168 209.861H430.497C430.698 209.861 430.899 210.022 430.899 210.263Z" fill="white"/>
<path d="M430.858 212.112C430.858 212.313 430.698 212.513 430.457 212.513H420.128C419.887 212.513 419.727 212.313 419.727 212.112C419.727 211.87 419.887 211.71 420.128 211.71H430.457C430.658 211.67 430.858 211.87 430.858 212.112Z" fill="white"/>
<path d="M443.036 267.849C443.036 268.09 442.835 268.25 442.634 268.25H420.088C419.887 268.25 419.687 268.09 419.687 267.849C419.687 267.648 419.887 267.447 420.088 267.447H442.634C442.875 267.447 443.036 267.608 443.036 267.849Z" fill="white"/>
<path d="M443.036 269.697C443.036 269.938 442.835 270.099 442.634 270.099H420.088C419.887 270.099 419.687 269.938 419.687 269.697C419.687 269.496 419.887 269.295 420.088 269.295H442.634C442.875 269.295 443.036 269.456 443.036 269.697Z" fill="white"/>
<path d="M443.036 271.545C443.036 271.787 442.835 271.947 442.634 271.947H420.088C419.887 271.947 419.687 271.787 419.687 271.545C419.687 271.344 419.887 271.144 420.088 271.144H442.634C442.875 271.144 443.036 271.304 443.036 271.545Z" fill="white"/>
<path d="M443.036 274.801C443.036 275.001 442.835 275.202 442.634 275.202H420.088C419.887 275.202 419.687 275.001 419.687 274.801C419.687 274.6 419.887 274.399 420.088 274.399H442.634C442.875 274.359 443.036 274.559 443.036 274.801Z" fill="white"/>
<path d="M443.116 276.77C443.116 276.971 442.915 277.172 442.714 277.172H420.168C419.968 277.172 419.767 276.971 419.767 276.77C419.767 276.529 419.968 276.368 420.168 276.368H442.714C442.915 276.328 443.116 276.529 443.116 276.77Z" fill="white"/>
<path d="M443.116 278.779C443.116 279.02 442.915 279.181 442.714 279.181H420.168C419.968 279.181 419.767 279.02 419.767 278.779C419.767 278.578 419.968 278.377 420.168 278.377H442.714C442.915 278.377 443.116 278.538 443.116 278.779Z" fill="white"/>
<path d="M575.453 268.934C575.453 269.135 575.252 269.335 575.051 269.335H564.723C564.482 269.335 564.321 269.135 564.321 268.934C564.321 268.733 564.482 268.532 564.723 268.532H575.051C575.252 268.532 575.453 268.692 575.453 268.934Z" fill="white"/>
<path d="M575.373 284.204C575.373 284.405 575.212 284.606 574.971 284.606H564.643C564.402 284.606 564.241 284.405 564.241 284.204C564.241 284.003 564.402 283.802 564.643 283.802H574.971C575.172 283.802 575.373 283.963 575.373 284.204Z" fill="white"/>
<path d="M575.493 270.621C575.493 270.822 575.292 271.023 575.091 271.023H564.763C564.562 271.023 564.361 270.822 564.361 270.621C564.361 270.42 564.562 270.219 564.763 270.219H575.091C575.333 270.219 575.493 270.38 575.493 270.621Z" fill="white"/>
<path d="M575.373 282.476C575.373 282.677 575.212 282.878 574.971 282.878H564.643C564.402 282.878 564.241 282.677 564.241 282.476C564.241 282.275 564.402 282.074 564.643 282.074H574.971C575.172 282.034 575.373 282.235 575.373 282.476Z" fill="white"/>
<path d="M575.373 280.627C575.373 280.828 575.212 281.029 574.971 281.029H564.643C564.402 281.029 564.241 280.828 564.241 280.627C564.241 280.386 564.402 280.226 564.643 280.226H574.971C575.172 280.226 575.373 280.386 575.373 280.627Z" fill="white"/>
<path d="M570.751 246.269C570.751 247.394 569.867 248.278 568.741 248.278H553.229C552.104 248.278 551.22 247.394 551.22 246.269V209.701C551.22 208.575 552.104 207.691 553.229 207.691H568.782C569.907 207.691 570.791 208.616 570.791 209.701V246.269H570.751Z" fill="#F1F2F2"/>
<g opacity="0.75">
<path opacity="0.75" d="M549.411 246.832C549.411 247.475 548.889 248.037 548.206 248.037H543.745C543.062 248.037 542.539 247.475 542.539 246.832V208.897C542.539 208.254 543.062 207.691 543.745 207.691H548.206C548.889 207.691 549.411 208.254 549.411 208.897V246.832Z" fill="url(#paint31_linear)"/>
</g>
<path d="M531.729 262.343C531.729 263.468 530.845 264.352 529.72 264.352H501.066C499.941 264.352 499.057 263.468 499.057 262.343V252.297C499.057 251.172 499.941 250.288 501.066 250.288H529.72C530.845 250.288 531.729 251.172 531.729 252.297V262.343Z" fill="url(#paint32_linear)"/>
<path d="M412.091 278.578C415.287 278.578 417.878 275.987 417.878 272.791C417.878 269.595 415.287 267.004 412.091 267.004C408.895 267.004 406.304 269.595 406.304 272.791C406.304 275.987 408.895 278.578 412.091 278.578Z" fill="#F1F2F2"/>
<path d="M425.312 201.985C426.333 201.985 427.161 201.158 427.161 200.137C427.161 199.116 426.333 198.288 425.312 198.288C424.292 198.288 423.464 199.116 423.464 200.137C423.464 201.158 424.292 201.985 425.312 201.985Z" fill="url(#paint33_linear)"/>
<path d="M440.222 201.945C441.199 201.945 441.991 201.153 441.991 200.177C441.991 199.2 441.199 198.409 440.222 198.409C439.246 198.409 438.454 199.2 438.454 200.177C438.454 201.153 439.246 201.945 440.222 201.945Z" fill="url(#paint34_linear)"/>
<path d="M560.985 219.466C563.715 219.466 565.928 217.253 565.928 214.523C565.928 211.793 563.715 209.58 560.985 209.58C558.255 209.58 556.042 211.793 556.042 214.523C556.042 217.253 558.255 219.466 560.985 219.466Z" fill="url(#paint35_linear)"/>
<path d="M552.345 271.908C556.673 271.908 560.182 268.399 560.182 264.071C560.182 259.744 556.673 256.235 552.345 256.235C548.017 256.235 544.509 259.744 544.509 264.071C544.509 268.399 548.017 271.908 552.345 271.908Z" fill="url(#paint36_linear)"/>
<path d="M559.338 274.68C559.338 274.881 559.177 275.001 558.936 275.001H545.473C545.232 275.001 545.071 274.841 545.071 274.68C545.071 274.519 545.232 274.358 545.473 274.358H558.936C559.137 274.358 559.338 274.519 559.338 274.68Z" fill="url(#paint37_linear)"/>
<path d="M559.338 276.127C559.338 276.328 559.177 276.448 558.936 276.448H545.473C545.232 276.448 545.071 276.288 545.071 276.127C545.071 275.966 545.232 275.806 545.473 275.806H558.936C559.137 275.765 559.338 275.926 559.338 276.127Z" fill="url(#paint38_linear)"/>
<path d="M559.378 277.613C559.378 277.814 559.177 277.935 558.976 277.935H545.513C545.272 277.935 545.111 277.774 545.111 277.613C545.111 277.453 545.272 277.292 545.513 277.292H558.976C559.177 277.292 559.378 277.413 559.378 277.613Z" fill="url(#paint39_linear)"/>
<path d="M559.378 281.592C559.378 281.793 559.217 281.913 558.976 281.913H545.513C545.272 281.913 545.111 281.753 545.111 281.592C545.111 281.391 545.272 281.271 545.513 281.271H558.976C559.177 281.271 559.378 281.391 559.378 281.592Z" fill="url(#paint40_linear)"/>
<path d="M559.378 283.159C559.378 283.36 559.217 283.481 558.976 283.481H545.513C545.272 283.481 545.111 283.32 545.111 283.159C545.111 282.958 545.272 282.838 545.513 282.838H558.976C559.177 282.798 559.378 282.958 559.378 283.159Z" fill="url(#paint41_linear)"/>
<path d="M559.378 284.726C559.378 284.927 559.217 285.048 558.976 285.048H545.513C545.272 285.048 545.111 284.887 545.111 284.726C545.111 284.566 545.272 284.405 545.513 284.405H558.976C559.177 284.405 559.378 284.525 559.378 284.726Z" fill="url(#paint42_linear)"/>
<path d="M559.378 287.821C559.378 288.022 559.217 288.142 558.976 288.142H545.513C545.272 288.142 545.111 287.982 545.111 287.821C545.111 287.62 545.272 287.499 545.513 287.499H558.976C559.177 287.459 559.378 287.62 559.378 287.821Z" fill="url(#paint43_linear)"/>
<path d="M559.378 289.388C559.378 289.589 559.217 289.709 558.976 289.709H545.513C545.272 289.709 545.111 289.549 545.111 289.388C545.111 289.227 545.272 289.066 545.513 289.066H558.976C559.177 289.066 559.378 289.187 559.378 289.388Z" fill="url(#paint44_linear)"/>
<path d="M559.378 291.076C559.378 291.277 559.217 291.397 558.976 291.397H545.513C545.272 291.397 545.111 291.236 545.111 291.076C545.111 290.875 545.272 290.754 545.513 290.754H558.976C559.177 290.714 559.378 290.875 559.378 291.076Z" fill="url(#paint45_linear)"/>
<path d="M204.683 238.956C204.683 240.081 203.799 240.965 202.674 240.965H119.526C118.401 240.965 117.517 240.081 117.517 238.956V146.851C117.517 145.726 118.401 144.842 119.526 144.842H202.674C203.759 144.842 204.683 145.726 204.683 146.851V238.956Z" fill="#939598"/>
<path d="M207.536 234.093C207.616 235.178 206.812 236.182 205.727 236.263L124.549 243.376C123.463 243.456 122.459 242.652 122.378 241.567L114.502 151.673C114.421 150.588 115.225 149.583 116.31 149.503L197.449 142.39C198.534 142.31 199.538 143.114 199.619 144.199L207.536 234.093Z" fill="#B9E5FB"/>
<path d="M243.102 205.119C243.343 206.204 242.62 207.289 241.575 207.49L209.023 214.442C207.938 214.684 206.853 213.96 206.652 212.915L197.971 172.369C197.73 171.284 198.454 170.199 199.498 169.998L232.01 163.046C233.095 162.804 234.18 163.528 234.381 164.573L243.102 205.119Z" fill="#E1F4FD"/>
<path d="M228.474 156.777C228.474 157.902 227.59 158.786 226.464 158.786H208.219C207.094 158.786 206.21 157.902 206.21 156.777V152.678C206.21 151.553 207.094 150.668 208.219 150.668H226.464C227.59 150.668 228.474 151.553 228.474 152.678V156.777Z" fill="#E6E7E8"/>
<path d="M128.809 140.22C128.929 141.305 128.126 142.31 127.041 142.431L108.916 144.4C107.831 144.52 106.826 143.717 106.706 142.632L106.223 138.091C106.103 137.006 106.907 136.001 107.992 135.88L126.116 133.911C127.201 133.791 128.206 134.595 128.327 135.68L128.809 140.22Z" fill="#E6E7E8"/>
<path d="M198.776 188.402C198.736 188.965 198.133 189.327 197.49 189.286L126.077 181.852C125.434 181.772 124.911 181.29 124.992 180.727C125.032 180.164 125.635 179.803 126.278 179.843L197.691 187.277C198.374 187.357 198.856 187.84 198.776 188.402Z" fill="url(#paint46_linear)"/>
<path d="M198.333 192.662C198.293 193.225 197.69 193.586 197.047 193.546L125.634 186.112C124.991 186.032 124.469 185.549 124.549 184.987C124.589 184.424 125.192 184.062 125.835 184.103L197.248 191.537C197.932 191.617 198.414 192.14 198.333 192.662Z" fill="url(#paint47_linear)"/>
<path d="M197.731 197.484C197.691 198.047 197.088 198.409 196.445 198.368L125.032 190.934C124.389 190.854 123.866 190.372 123.947 189.809C123.987 189.246 124.59 188.885 125.233 188.925L196.606 196.359C197.289 196.44 197.771 196.922 197.731 197.484Z" fill="url(#paint48_linear)"/>
<path d="M198.655 216.613C198.655 217.175 198.092 217.617 197.449 217.617H125.634C124.991 217.617 124.429 217.175 124.429 216.613C124.429 216.05 124.991 215.608 125.634 215.608H197.449C198.133 215.648 198.655 216.09 198.655 216.613Z" fill="url(#paint49_linear)"/>
<path d="M198.655 220.912C198.655 221.475 198.092 221.917 197.449 221.917H125.634C124.991 221.917 124.429 221.475 124.429 220.912C124.429 220.35 124.991 219.908 125.634 219.908H197.449C198.133 219.908 198.655 220.39 198.655 220.912Z" fill="url(#paint50_linear)"/>
<path d="M198.534 225.775C198.534 226.337 197.971 226.779 197.328 226.779H125.513C124.87 226.779 124.308 226.337 124.308 225.775C124.308 225.212 124.87 224.77 125.513 224.77H197.328C197.971 224.77 198.534 225.212 198.534 225.775Z" fill="url(#paint51_linear)"/>
<path d="M157.221 210.544C157.221 211.67 156.337 212.554 155.212 212.554H126.558C125.433 212.554 124.549 211.67 124.549 210.544V200.498C124.549 199.373 125.433 198.489 126.558 198.489H155.212C156.337 198.489 157.221 199.373 157.221 200.498V210.544Z" fill="url(#paint52_linear)"/>
<path d="M197.369 181.451C197.288 182.536 196.324 183.42 195.239 183.339L125.955 179.08C124.87 178.999 123.986 178.035 124.067 176.95L125.795 148.619C125.875 147.534 126.84 146.65 127.925 146.731L197.208 150.99C198.293 151.071 199.177 152.035 199.097 153.12L197.369 181.451Z" fill="url(#paint53_linear)"/>
<path d="M241.374 216.05C241.454 217.135 240.57 218.099 239.485 218.18L227.871 218.823C226.786 218.903 225.821 218.019 225.741 216.934L223.772 181.571C223.691 180.486 224.575 179.521 225.661 179.441L237.275 178.798C238.36 178.718 239.324 179.602 239.405 180.687L241.374 216.05Z" fill="#E6E7E8"/>
<path d="M114.06 140.703C114.181 141.788 113.377 142.792 112.292 142.913L109.76 143.194C108.675 143.315 107.67 142.511 107.55 141.426L107.268 138.935C107.148 137.85 107.952 136.845 109.037 136.724L111.568 136.443C112.653 136.323 113.658 137.126 113.779 138.211L114.06 140.703Z" fill="white"/>
<path d="M128.005 139.176C128.126 140.261 127.322 141.266 126.237 141.386L117.195 142.351C116.11 142.471 115.105 141.667 114.985 140.582L114.703 138.091C114.583 137.006 115.387 136.001 116.472 135.881L125.514 134.916C126.599 134.796 127.604 135.599 127.724 136.684L128.005 139.176Z" fill="white"/>
<path d="M221.12 155.973C221.12 157.098 220.235 157.982 219.11 157.982H209.264C208.139 157.982 207.255 157.098 207.255 155.973V153.642C207.255 152.517 208.139 151.633 209.264 151.633H219.11C220.235 151.633 221.12 152.517 221.12 153.642V155.973Z" fill="white"/>
<path d="M227.71 155.973C227.71 157.098 226.826 157.982 225.701 157.982H223.611C222.486 157.982 221.602 157.098 221.602 155.973V153.642C221.602 152.517 222.486 151.633 223.611 151.633H225.701C226.826 151.633 227.71 152.517 227.71 153.642V155.973Z" fill="white"/>
<path d="M223.45 208.495C223.45 209.62 222.566 210.504 221.441 210.504H209.626C208.5 210.504 207.616 209.62 207.616 208.495V189.608C207.616 188.483 208.5 187.599 209.626 187.599H221.441C222.566 187.599 223.45 188.483 223.45 189.608V208.495Z" fill="white"/>
<path d="M237.355 185.75C237.436 186.835 236.552 187.8 235.467 187.88L228.353 188.282C227.268 188.362 226.304 187.478 226.223 186.393L226.063 183.299C225.982 182.214 226.866 181.25 227.951 181.169L235.065 180.767C236.15 180.687 237.114 181.571 237.195 182.656L237.355 185.75Z" fill="white"/>
<path d="M237.959 198.971C238.039 200.056 237.155 201.021 236.07 201.101L228.957 201.503C227.872 201.583 226.907 200.699 226.827 199.614L226.666 196.52C226.586 195.435 227.47 194.471 228.555 194.39L235.668 193.988C236.753 193.908 237.718 194.792 237.798 195.877L237.959 198.971Z" fill="white"/>
<path d="M238.722 212.513C238.802 213.598 237.918 214.563 236.833 214.643L229.72 215.045C228.635 215.125 227.67 214.241 227.59 213.156L227.429 210.062C227.349 208.977 228.233 208.013 229.318 207.932L236.431 207.53C237.516 207.45 238.48 208.334 238.561 209.419L238.722 212.513Z" fill="white"/>
<path d="M237.476 189.086C237.476 189.287 237.315 189.487 237.114 189.528L226.786 190.09C226.585 190.09 226.384 189.929 226.344 189.729C226.344 189.528 226.505 189.327 226.705 189.287L237.034 188.724C237.275 188.684 237.476 188.844 237.476 189.086Z" fill="white"/>
<path d="M210.671 156.254C210.671 156.937 210.148 157.46 209.465 157.46H208.983C208.3 157.46 207.777 156.937 207.777 156.254V153.24C207.777 152.597 208.3 152.035 208.983 152.035H209.465C210.148 152.035 210.671 152.597 210.671 153.24V156.254Z" fill="url(#paint54_linear)"/>
<path d="M220.437 152.557C220.437 152.678 220.236 152.758 220.035 152.758H211.756C211.555 152.758 211.354 152.678 211.354 152.557C211.354 152.437 211.555 152.357 211.756 152.357H220.035C220.236 152.316 220.437 152.437 220.437 152.557Z" fill="url(#paint55_linear)"/>
<path d="M220.437 153.522C220.437 153.642 220.236 153.723 220.035 153.723H211.756C211.555 153.723 211.354 153.642 211.354 153.522C211.354 153.401 211.555 153.321 211.756 153.321H220.035C220.236 153.281 220.437 153.401 220.437 153.522Z" fill="url(#paint56_linear)"/>
<path d="M220.437 154.486C220.437 154.607 220.236 154.687 220.035 154.687H211.756C211.555 154.687 211.354 154.607 211.354 154.486C211.354 154.366 211.555 154.285 211.756 154.285H220.035C220.236 154.285 220.437 154.366 220.437 154.486Z" fill="url(#paint57_linear)"/>
<path d="M220.437 155.571C220.437 155.692 220.236 155.772 220.035 155.772H211.756C211.555 155.772 211.354 155.692 211.354 155.571C211.354 155.451 211.555 155.37 211.756 155.37H220.035C220.276 155.33 220.437 155.451 220.437 155.571Z" fill="url(#paint58_linear)"/>
<path d="M220.396 156.576C220.396 156.697 220.235 156.777 219.994 156.777H211.715C211.514 156.777 211.313 156.697 211.313 156.576C211.313 156.455 211.514 156.375 211.715 156.375H219.994C220.235 156.335 220.396 156.455 220.396 156.576Z" fill="url(#paint59_linear)"/>
<path d="M224.937 156.174C224.937 156.817 224.375 157.38 223.732 157.38H223.29C222.606 157.38 222.084 156.817 222.084 156.174V153.16C222.084 152.517 222.606 151.955 223.29 151.955H223.772C224.415 151.955 224.977 152.517 224.977 153.16V156.174H224.937Z" fill="url(#paint60_linear)"/>
<path d="M237.557 190.693C237.557 190.894 237.396 191.095 237.195 191.135L226.867 191.698C226.666 191.698 226.465 191.537 226.425 191.336C226.425 191.135 226.586 190.934 226.787 190.894L237.115 190.331C237.356 190.291 237.557 190.452 237.557 190.693Z" fill="white"/>
<path d="M238.36 205.964C238.36 206.165 238.2 206.365 237.999 206.406L227.671 206.968C227.47 206.968 227.269 206.808 227.229 206.607C227.229 206.406 227.389 206.205 227.59 206.165L237.918 205.602C238.16 205.522 238.32 205.723 238.36 205.964Z" fill="white"/>
<path d="M237.717 192.381C237.717 192.582 237.556 192.783 237.355 192.823L227.027 193.386C226.826 193.386 226.625 193.225 226.585 193.024C226.585 192.823 226.746 192.622 226.947 192.582L237.275 192.019C237.516 191.979 237.717 192.14 237.717 192.381Z" fill="white"/>
<path d="M238.239 204.195C238.239 204.396 238.079 204.597 237.878 204.637L227.549 205.2C227.349 205.2 227.148 205.039 227.107 204.838C227.107 204.637 227.268 204.436 227.469 204.396L237.797 203.833C238.038 203.793 238.239 203.954 238.239 204.195Z" fill="white"/>
<path d="M238.159 202.387C238.159 202.588 237.999 202.789 237.798 202.829L227.469 203.391C227.268 203.391 227.068 203.231 227.027 203.03C227.027 202.829 227.188 202.628 227.389 202.588L237.717 202.025C237.958 201.985 238.119 202.146 238.159 202.387Z" fill="white"/>
<path d="M197.409 210.665C197.409 211.79 196.525 212.674 195.399 212.674H166.746C165.62 212.674 164.736 211.79 164.736 210.665V200.619C164.736 199.493 165.62 198.609 166.746 198.609H195.399C196.525 198.609 197.409 199.493 197.409 200.619V210.665Z" fill="url(#paint61_linear)"/>
<path d="M207.898 189.286C212.226 189.286 215.735 185.778 215.735 181.45C215.735 177.123 212.226 173.614 207.898 173.614C203.57 173.614 200.062 177.123 200.062 181.45C200.062 185.778 203.57 189.286 207.898 189.286Z" fill="url(#paint62_linear)"/>
<path d="M220.315 187.558C220.356 187.759 220.195 187.92 219.994 187.96L206.853 190.773C206.652 190.813 206.411 190.693 206.37 190.532C206.33 190.331 206.491 190.17 206.692 190.13L219.833 187.317C220.074 187.277 220.275 187.398 220.315 187.558Z" fill="url(#paint63_linear)"/>
<path d="M220.598 188.965C220.638 189.166 220.477 189.327 220.276 189.367L207.135 192.18C206.934 192.22 206.693 192.1 206.653 191.939C206.612 191.738 206.773 191.577 206.974 191.537L220.116 188.724C220.357 188.684 220.558 188.804 220.598 188.965Z" fill="url(#paint64_linear)"/>
<path d="M220.959 190.412C220.999 190.613 220.839 190.774 220.638 190.814L207.496 193.627C207.295 193.667 207.054 193.546 207.014 193.386C206.974 193.185 207.135 193.024 207.336 192.984L220.477 190.171C220.718 190.131 220.959 190.251 220.959 190.412Z" fill="url(#paint65_linear)"/>
<path d="M221.803 194.31C221.843 194.511 221.682 194.672 221.481 194.712L208.34 197.525C208.139 197.565 207.898 197.444 207.858 197.284C207.818 197.083 207.978 196.922 208.179 196.882L221.321 194.069C221.562 194.029 221.763 194.149 221.803 194.31Z" fill="url(#paint66_linear)"/>
<path d="M222.124 195.837C222.164 196.038 222.004 196.198 221.803 196.238L208.661 199.051C208.46 199.092 208.219 198.971 208.179 198.81C208.139 198.65 208.3 198.449 208.501 198.408L221.642 195.595C221.883 195.555 222.084 195.636 222.124 195.837Z" fill="url(#paint67_linear)"/>
<path d="M222.445 197.404C222.486 197.605 222.325 197.766 222.124 197.806L208.983 200.619C208.782 200.659 208.541 200.538 208.5 200.378C208.46 200.177 208.621 200.016 208.822 199.976L221.963 197.163C222.204 197.082 222.445 197.203 222.445 197.404Z" fill="url(#paint68_linear)"/>
<path d="M223.089 200.418C223.129 200.619 222.968 200.779 222.768 200.82L209.626 203.632C209.425 203.673 209.184 203.552 209.144 203.391C209.104 203.19 209.264 203.03 209.465 202.989L222.607 200.177C222.848 200.096 223.089 200.217 223.089 200.418Z" fill="url(#paint69_linear)"/>
<path d="M223.45 201.945C223.49 202.146 223.33 202.307 223.129 202.347L209.987 205.16C209.787 205.2 209.545 205.079 209.505 204.919C209.465 204.718 209.626 204.557 209.827 204.517L222.968 201.704C223.209 201.664 223.41 201.744 223.45 201.945Z" fill="url(#paint70_linear)"/>
<path d="M223.772 203.592C223.812 203.793 223.651 203.954 223.45 203.994L210.309 206.807C210.108 206.847 209.867 206.727 209.827 206.566C209.786 206.365 209.947 206.205 210.148 206.164L223.289 203.351C223.53 203.271 223.731 203.392 223.772 203.592Z" fill="url(#paint71_linear)"/>
<path d="M112.171 246.912C111.689 247.917 110.483 248.359 109.478 247.877L68.648 228.628C67.6433 228.146 67.2012 226.94 67.6835 225.935L86.9735 185.107C87.4557 184.103 88.6613 183.661 89.666 184.143L130.497 203.392C131.501 203.874 131.943 205.079 131.461 206.084L112.171 246.912Z" fill="#E1F4FD"/>
<path d="M127.242 207.571C127.041 207.973 126.599 208.133 126.197 207.933L90.0279 190.854C89.6261 190.653 89.4653 190.211 89.6261 189.809C89.7868 189.407 90.2691 189.246 90.6709 189.447L126.84 206.526C127.242 206.727 127.402 207.169 127.242 207.571Z" fill="url(#paint72_linear)"/>
<path d="M125.795 210.584C125.594 210.986 125.152 211.147 124.75 210.946L88.5812 193.908C88.1793 193.707 88.0185 193.265 88.1793 192.863C88.3802 192.461 88.8223 192.3 89.2241 192.501L125.393 209.54C125.795 209.741 125.996 210.223 125.795 210.584Z" fill="url(#paint73_linear)"/>
<path d="M124.107 213.96C123.906 214.362 123.464 214.523 123.062 214.322L86.8937 197.284C86.4918 197.083 86.331 196.641 86.4918 196.239C86.6927 195.837 87.1348 195.676 87.5366 195.877L123.705 212.956C124.107 213.116 124.308 213.599 124.107 213.96Z" fill="url(#paint74_linear)"/>
<path d="M101.361 224.248C101.16 224.65 100.718 224.81 100.316 224.609L64.1471 207.531C63.7452 207.33 63.5844 206.888 63.7452 206.486C63.9461 206.084 64.3882 205.923 64.7901 206.124L100.959 223.163C101.401 223.364 101.562 223.846 101.361 224.248Z" fill="url(#paint75_linear)"/>
<path d="M99.9545 227.261C99.7535 227.663 99.3114 227.824 98.9096 227.623L62.7408 210.544C62.3389 210.343 62.1782 209.901 62.3389 209.499C62.5399 209.098 62.9819 208.937 63.3838 209.138L99.5526 226.176C99.9545 226.417 100.155 226.859 99.9545 227.261Z" fill="url(#paint76_linear)"/>
<path d="M98.2664 230.637C98.0655 231.039 97.6235 231.2 97.2216 230.999L61.0528 213.96C60.651 213.759 60.4902 213.317 60.651 212.915C60.8519 212.514 61.294 212.353 61.6958 212.554L97.8646 229.632C98.2664 229.793 98.4674 230.235 98.2664 230.637Z" fill="url(#paint77_linear)"/>
<path d="M121.937 215.929C121.816 216.331 121.374 216.572 120.972 216.492L82.2718 206.365C81.8297 206.245 81.5886 205.843 81.7092 205.401C81.8297 204.999 82.2718 204.758 82.6737 204.838L121.374 214.965C121.776 215.085 122.017 215.527 121.937 215.929Z" fill="white"/>
<path d="M121.093 219.144C120.973 219.546 120.53 219.787 120.129 219.707L81.428 209.58C80.986 209.459 80.7448 209.058 80.8654 208.616C80.986 208.214 81.428 207.973 81.8299 208.053L120.53 218.18C120.932 218.3 121.173 218.742 121.093 219.144Z" fill="white"/>
<path d="M120.048 222.801C119.928 223.203 119.486 223.444 119.084 223.364L80.3831 213.237C79.941 213.117 79.6999 212.715 79.8205 212.273C79.941 211.871 80.3831 211.63 80.785 211.71L119.486 221.837C119.887 221.957 120.169 222.359 120.048 222.801Z" fill="white"/>
<path d="M112.332 244.461C112.413 245.546 111.609 246.551 110.484 246.631L74.3551 249.605C73.2701 249.685 72.2654 248.881 72.185 247.756L71.1803 235.781C71.1 234.696 71.9037 233.691 73.029 233.611L109.158 230.637C110.243 230.557 111.247 231.361 111.328 232.486L112.332 244.461Z" fill="url(#paint78_linear)"/>
<path d="M109.84 233.651C109.84 233.852 109.68 234.053 109.479 234.093L87.0138 235.942C86.8129 235.942 86.612 235.781 86.5718 235.58C86.5718 235.379 86.7325 235.178 86.9335 235.138L109.398 233.289C109.599 233.249 109.8 233.41 109.84 233.651Z" fill="white"/>
<path d="M109.961 235.5C109.961 235.701 109.8 235.902 109.599 235.942L87.1344 237.79C86.9335 237.79 86.7326 237.63 86.6924 237.429C86.6924 237.228 86.8531 237.027 87.0541 236.987L109.519 235.138C109.76 235.098 109.961 235.259 109.961 235.5Z" fill="white"/>
<path d="M110.122 237.348C110.122 237.549 109.961 237.75 109.76 237.79L87.2951 239.638C87.0942 239.638 86.8932 239.478 86.853 239.277C86.853 239.076 87.0138 238.875 87.2147 238.835L109.68 236.986C109.921 236.946 110.122 237.107 110.122 237.348Z" fill="white"/>
<path d="M110.403 240.563C110.403 240.764 110.243 240.965 110.042 241.005L87.5768 242.854C87.3759 242.854 87.175 242.693 87.1348 242.492C87.1348 242.291 87.2955 242.09 87.4965 242.05L109.961 240.161C110.162 240.161 110.363 240.322 110.403 240.563Z" fill="white"/>
<path d="M110.604 242.492C110.604 242.693 110.443 242.894 110.242 242.934L87.7775 244.782C87.5766 244.782 87.3756 244.622 87.3354 244.421C87.3354 244.22 87.4962 244.019 87.6971 243.979L110.162 242.13C110.403 242.09 110.604 242.251 110.604 242.492Z" fill="white"/>
<path d="M110.765 244.541C110.765 244.742 110.604 244.943 110.403 244.983L87.9382 246.832C87.7372 246.832 87.5363 246.671 87.4961 246.47C87.4961 246.269 87.6568 246.068 87.8578 246.028L110.323 244.179C110.564 244.139 110.765 244.3 110.765 244.541Z" fill="white"/>
<path d="M79.3783 246.872C82.5744 246.872 85.1653 244.281 85.1653 241.085C85.1653 237.889 82.5744 235.298 79.3783 235.298C76.1822 235.298 73.5913 237.889 73.5913 241.085C73.5913 244.281 76.1822 246.872 79.3783 246.872Z" fill="#F1F2F2"/>
<path d="M130.416 176.427C130.818 177.432 130.336 178.638 129.331 179.039L103.531 189.608C102.526 190.01 101.321 189.528 100.919 188.523L89.0635 159.67C88.6616 158.665 89.1438 157.46 90.1485 157.058L115.949 146.449C116.954 146.047 118.159 146.53 118.561 147.534L130.416 176.427Z" fill="#CCECFC"/>
<path d="M125.313 169.315C125.473 169.676 125.232 170.078 124.83 170.239L100.236 180.326C99.8338 180.486 99.3918 180.326 99.231 180.004C99.0703 179.642 99.3114 179.241 99.7133 179.08L124.308 168.993C124.75 168.792 125.192 168.953 125.313 169.315Z" fill="url(#paint79_linear)"/>
<path d="M242.781 170.038C242.941 170.4 242.7 170.801 242.298 170.962L217.663 181.089C217.262 181.25 216.82 181.089 216.659 180.767C216.498 180.406 216.739 180.004 217.141 179.843L241.736 169.757C242.178 169.556 242.62 169.716 242.781 170.038Z" fill="url(#paint80_linear)"/>
<path d="M241.093 166.662C241.254 167.024 241.013 167.426 240.611 167.587L216.016 177.673C215.614 177.834 215.172 177.673 215.011 177.352C214.851 176.99 215.092 176.588 215.494 176.427L240.088 166.341C240.49 166.18 240.932 166.341 241.093 166.662Z" fill="url(#paint81_linear)"/>
<path d="M126.599 172.208C126.76 172.569 126.518 172.971 126.117 173.132L101.522 183.259C101.12 183.419 100.678 183.259 100.517 182.937C100.356 182.576 100.598 182.174 100.999 182.013L125.594 171.927C126.036 171.726 126.478 171.886 126.599 172.208Z" fill="url(#paint82_linear)"/>
<path d="M127.684 175.141C127.845 175.503 127.603 175.905 127.202 176.066L102.607 186.152C102.205 186.313 101.763 186.152 101.602 185.831C101.441 185.509 101.682 185.067 102.084 184.906L126.679 174.82C127.081 174.659 127.523 174.78 127.684 175.141Z" fill="url(#paint83_linear)"/>
<path d="M122.54 166.14C122.781 167.225 122.098 168.31 121.013 168.551L111.327 170.681C110.242 170.922 109.157 170.239 108.916 169.154L105.581 154.004C105.34 152.919 106.023 151.834 107.108 151.593L116.793 149.463C117.878 149.222 118.963 149.905 119.204 150.99L122.54 166.14Z" fill="#C7C8CA"/>
<path d="M109.76 170.199C110.162 171.203 109.68 172.409 108.675 172.811L99.5124 176.548C98.5077 176.95 97.3021 176.468 96.9002 175.463L90.9927 161.117C90.5908 160.112 91.073 158.907 92.0777 158.505L101.24 154.768C102.245 154.366 103.451 154.848 103.853 155.853L109.76 170.199Z" fill="#C7C8CA"/>
<path d="M104.335 160.634C104.737 161.639 104.254 162.845 103.25 163.246L96.6589 165.939C95.6543 166.341 94.4486 165.858 94.0468 164.854L92.8813 162.001C92.4794 160.996 92.9617 159.791 93.9664 159.389L100.557 156.696C101.562 156.294 102.767 156.777 103.169 157.781L104.335 160.634Z" fill="#F1F2F2"/>
<path d="M118.119 155.17C118.521 156.174 118.039 157.38 117.034 157.782L110.444 160.474C109.439 160.876 108.233 160.394 107.831 159.389L106.666 156.536C106.264 155.531 106.746 154.326 107.751 153.924L114.342 151.231C115.346 150.83 116.552 151.312 116.954 152.316L118.119 155.17Z" fill="white"/>
<path d="M105.862 164.412C105.942 164.613 105.862 164.854 105.661 164.935L96.0962 168.873C95.8953 168.953 95.6541 168.873 95.5738 168.672C95.4934 168.471 95.5738 168.23 95.7747 168.149L105.339 164.211C105.54 164.091 105.781 164.211 105.862 164.412Z" fill="white"/>
<path d="M102.727 161.599C102.767 161.719 102.647 161.92 102.446 162.001L96.4177 164.452C96.2167 164.532 96.0158 164.492 95.9354 164.372C95.8952 164.251 96.0158 164.05 96.2167 163.97L102.245 161.518C102.486 161.438 102.687 161.478 102.727 161.599Z" fill="url(#paint84_linear)"/>
<path d="M116.552 155.893C116.592 156.013 116.471 156.214 116.271 156.295L110.242 158.746C110.041 158.826 109.841 158.786 109.76 158.665C109.72 158.545 109.841 158.344 110.041 158.264L116.07 155.812C116.271 155.732 116.471 155.772 116.552 155.893Z" fill="url(#paint85_linear)"/>
<path d="M119.646 158.786C119.726 158.987 119.646 159.228 119.445 159.309L109.88 163.247C109.679 163.327 109.438 163.247 109.358 163.046C109.278 162.845 109.358 162.604 109.559 162.523L119.124 158.585C119.324 158.465 119.566 158.545 119.646 158.786Z" fill="white"/>
<path d="M120.33 160.394C120.41 160.594 120.33 160.836 120.129 160.916L110.564 164.854C110.363 164.934 110.122 164.854 110.042 164.653C109.961 164.452 110.042 164.211 110.242 164.131L119.807 160.193C119.968 160.072 120.209 160.152 120.33 160.394Z" fill="white"/>
<path d="M121.013 162.162C121.093 162.363 121.013 162.604 120.812 162.684L111.247 166.622C111.046 166.703 110.805 166.622 110.725 166.421C110.644 166.22 110.725 165.979 110.926 165.899L120.49 161.961C120.691 161.84 120.932 161.92 121.013 162.162Z" fill="white"/>
<path d="M121.655 163.849C121.736 164.05 121.655 164.291 121.454 164.372L111.89 168.31C111.689 168.39 111.448 168.31 111.367 168.109C111.287 167.908 111.367 167.667 111.568 167.586L121.133 163.648C121.334 163.528 121.575 163.648 121.655 163.849Z" fill="white"/>
<path d="M106.786 166.984C106.826 167.185 106.706 167.426 106.465 167.466L96.3776 169.757C96.1766 169.797 95.9355 169.676 95.8953 169.435C95.8551 169.234 95.9757 168.993 96.2168 168.953L106.304 166.662C106.505 166.622 106.746 166.743 106.786 166.984Z" fill="white"/>
<path d="M107.268 167.707C107.349 167.908 107.268 168.149 107.068 168.229L97.5029 172.168C97.302 172.248 97.0609 172.168 96.9805 171.967C96.9001 171.766 96.9805 171.525 97.1814 171.444L106.746 167.506C106.907 167.386 107.148 167.506 107.268 167.707Z" fill="white"/>
<path d="M107.912 169.435C107.992 169.636 107.912 169.877 107.711 169.957L98.146 173.896C97.9451 173.976 97.7039 173.896 97.6236 173.695C97.5432 173.494 97.6236 173.253 97.8245 173.172L107.389 169.234C107.59 169.114 107.831 169.194 107.912 169.435Z" fill="white"/>
<path d="M93.2432 164.492C94.2641 164.492 95.0918 163.665 95.0918 162.644C95.0918 161.623 94.2641 160.795 93.2432 160.795C92.2222 160.795 91.3945 161.623 91.3945 162.644C91.3945 163.665 92.2222 164.492 93.2432 164.492Z" fill="url(#paint86_linear)"/>
<path d="M112.05 156.576C113.027 156.576 113.819 155.784 113.819 154.808C113.819 153.831 113.027 153.04 112.05 153.04C111.074 153.04 110.282 153.831 110.282 154.808C110.282 155.784 111.074 156.576 112.05 156.576Z" fill="url(#paint87_linear)"/>
<path d="M200.584 247.555C200.504 248.64 199.539 249.484 198.454 249.444L170.604 247.676C169.519 247.595 168.675 246.631 168.715 245.546L171.287 205.16C171.368 204.075 172.332 203.231 173.417 203.271L201.267 205.039C202.352 205.119 203.196 206.084 203.156 207.169L200.584 247.555Z" fill="#C9EBFC"/>
<path d="M203.115 243.054C203.316 244.139 202.593 245.184 201.468 245.385L186.156 248.077C185.071 248.278 184.026 247.555 183.825 246.43L177.476 210.424C177.275 209.339 177.998 208.294 179.124 208.093L194.435 205.401C195.52 205.2 196.565 205.923 196.766 207.048L203.115 243.054Z" fill="#F1F2F2"/>
<g opacity="0.75">
<path opacity="0.75" d="M177.476 244.019C177.395 245.104 176.431 245.948 175.346 245.868L172.493 245.667C171.408 245.586 170.564 244.622 170.644 243.537L173.256 207.33C173.337 206.245 174.301 205.401 175.386 205.481L178.239 205.682C179.324 205.763 180.168 206.727 180.088 207.812L177.476 244.019Z" fill="url(#paint88_linear)"/>
</g>
<path d="M191.18 218.22C193.91 218.22 196.123 216.007 196.123 213.277C196.123 210.547 193.91 208.334 191.18 208.334C188.45 208.334 186.237 210.547 186.237 213.277C186.237 216.007 188.45 218.22 191.18 218.22Z" fill="url(#paint89_linear)"/>
<path d="M198.334 253.02C201.064 253.02 203.277 250.807 203.277 248.078C203.277 245.348 201.064 243.135 198.334 243.135C195.604 243.135 193.391 245.348 193.391 248.078C193.391 250.807 195.604 253.02 198.334 253.02Z" fill="url(#paint90_linear)"/>
<path d="M192.827 147.012C193.108 148.097 192.465 149.182 191.421 149.463L173.778 154.165C172.693 154.446 171.608 153.803 171.327 152.759L170.282 148.78C170.001 147.695 170.644 146.61 171.689 146.329L189.331 141.627C190.416 141.346 191.501 141.989 191.782 143.034L192.827 147.012Z" fill="#E1F4FD"/>
<path d="M190.296 145.565C190.577 146.65 189.934 147.735 188.889 148.016L175.145 151.673C174.06 151.955 172.975 151.312 172.693 150.267L172.613 149.945C172.332 148.86 172.975 147.775 174.02 147.494L187.764 143.837C188.849 143.556 189.934 144.199 190.215 145.244L190.296 145.565Z" fill="white"/>
</g>
<defs>
<filter id="filter0_d" x="-26" y="-20" width="703" height="494" filterUnits="userSpaceOnUse" color-interpolation-filters="sRGB">
<feFlood flood-opacity="0" result="BackgroundImageFix"/>
<feColorMatrix in="SourceAlpha" type="matrix" values="0 0 0 0 0 0 0 0 0 0 0 0 0 0 0 0 0 0 127 0" result="hardAlpha"/>
<feOffset dy="10"/>
<feGaussianBlur stdDeviation="15"/>
<feColorMatrix type="matrix" values="0 0 0 0 0 0 0 0 0 0 0 0 0 0 0 0 0 0 0.25 0"/>
<feBlend mode="normal" in2="BackgroundImageFix" result="effect1_dropShadow"/>
<feBlend mode="normal" in="SourceGraphic" in2="effect1_dropShadow" result="shape"/>
</filter>
<linearGradient id="paint0_linear" x1="242.01" y1="312.365" x2="168.591" y2="312.365" gradientUnits="userSpaceOnUse">
<stop stop-color="#7DD3F7"/>
<stop offset="1" stop-color="#43B5E8"/>
</linearGradient>
<linearGradient id="paint1_linear" x1="280.341" y1="322.979" x2="206.922" y2="322.979" gradientUnits="userSpaceOnUse">
<stop stop-color="#7DD3F7"/>
<stop offset="1" stop-color="#43B5E8"/>
</linearGradient>
<linearGradient id="paint2_linear" x1="338.038" y1="327.109" x2="264.619" y2="327.109" gradientUnits="userSpaceOnUse">
<stop stop-color="#7DD3F7"/>
<stop offset="1" stop-color="#43B5E8"/>
</linearGradient>
<linearGradient id="paint3_linear" x1="202.877" y1="307.379" x2="129.458" y2="307.379" gradientUnits="userSpaceOnUse">
<stop stop-color="#7DD3F7"/>
<stop offset="1" stop-color="#43B5E8"/>
</linearGradient>
<linearGradient id="paint4_linear" x1="246.518" y1="348.256" x2="173.099" y2="348.256" gradientUnits="userSpaceOnUse">
<stop stop-color="#7DD3F7"/>
<stop offset="1" stop-color="#43B5E8"/>
</linearGradient>
<linearGradient id="paint5_linear" x1="467.288" y1="348.967" x2="393.869" y2="348.967" gradientUnits="userSpaceOnUse">
<stop stop-color="#7DD3F7"/>
<stop offset="1" stop-color="#43B5E8"/>
</linearGradient>
<linearGradient id="paint6_linear" x1="180.547" y1="325.698" x2="107.128" y2="325.698" gradientUnits="userSpaceOnUse">
<stop stop-color="#7DD3F7"/>
<stop offset="1" stop-color="#43B5E8"/>
</linearGradient>
<linearGradient id="paint7_linear" x1="458.652" y1="236.224" x2="532.868" y2="236.224" gradientUnits="userSpaceOnUse">
<stop stop-color="#7DD3F7"/>
<stop offset="1" stop-color="#43B5E8"/>
</linearGradient>
<linearGradient id="paint8_linear" x1="458.652" y1="240.513" x2="532.868" y2="240.513" gradientUnits="userSpaceOnUse">
<stop stop-color="#7DD3F7"/>
<stop offset="1" stop-color="#43B5E8"/>
</linearGradient>
<linearGradient id="paint9_linear" x1="458.513" y1="245.354" x2="532.729" y2="245.354" gradientUnits="userSpaceOnUse">
<stop stop-color="#7DD3F7"/>
<stop offset="1" stop-color="#43B5E8"/>
</linearGradient>
<linearGradient id="paint10_linear" x1="404.446" y1="237.02" x2="446.049" y2="237.02" gradientUnits="userSpaceOnUse">
<stop stop-color="#7DD3F7"/>
<stop offset="1" stop-color="#43B5E8"/>
</linearGradient>
<linearGradient id="paint11_linear" x1="404.446" y1="240.358" x2="446.049" y2="240.358" gradientUnits="userSpaceOnUse">
<stop stop-color="#7DD3F7"/>
<stop offset="1" stop-color="#43B5E8"/>
</linearGradient>
<linearGradient id="paint12_linear" x1="404.369" y1="244.127" x2="445.971" y2="244.127" gradientUnits="userSpaceOnUse">
<stop stop-color="#7DD3F7"/>
<stop offset="1" stop-color="#43B5E8"/>
</linearGradient>
<linearGradient id="paint13_linear" x1="418.807" y1="218.606" x2="447.019" y2="218.606" gradientUnits="userSpaceOnUse">
<stop stop-color="#7DD3F7"/>
<stop offset="1" stop-color="#43B5E8"/>
</linearGradient>
<linearGradient id="paint14_linear" x1="418.887" y1="221.797" x2="447.098" y2="221.797" gradientUnits="userSpaceOnUse">
<stop stop-color="#7DD3F7"/>
<stop offset="1" stop-color="#43B5E8"/>
</linearGradient>
<linearGradient id="paint15_linear" x1="418.755" y1="224.895" x2="446.966" y2="224.895" gradientUnits="userSpaceOnUse">
<stop stop-color="#7DD3F7"/>
<stop offset="1" stop-color="#43B5E8"/>
</linearGradient>
<linearGradient id="paint16_linear" x1="458.791" y1="268.315" x2="533.006" y2="268.315" gradientUnits="userSpaceOnUse">
<stop stop-color="#7DD3F7"/>
<stop offset="1" stop-color="#43B5E8"/>
</linearGradient>
<linearGradient id="paint17_linear" x1="458.791" y1="272.604" x2="533.006" y2="272.604" gradientUnits="userSpaceOnUse">
<stop stop-color="#7DD3F7"/>
<stop offset="1" stop-color="#43B5E8"/>
</linearGradient>
<linearGradient id="paint18_linear" x1="458.653" y1="277.445" x2="532.869" y2="277.445" gradientUnits="userSpaceOnUse">
<stop stop-color="#7DD3F7"/>
<stop offset="1" stop-color="#43B5E8"/>
</linearGradient>
<linearGradient id="paint19_linear" x1="458.931" y1="257.19" x2="491.589" y2="257.19" gradientUnits="userSpaceOnUse">
<stop stop-color="#7DD3F7"/>
<stop offset="1" stop-color="#43B5E8"/>
</linearGradient>
<linearGradient id="paint20_linear" x1="459.208" y1="216.738" x2="532.639" y2="216.738" gradientUnits="userSpaceOnUse">
<stop stop-color="#7DD3F7"/>
<stop offset="1" stop-color="#43B5E8"/>
</linearGradient>
<linearGradient id="paint21_linear" x1="404.368" y1="272.851" x2="444.649" y2="272.851" gradientUnits="userSpaceOnUse">
<stop stop-color="#7DD3F7"/>
<stop offset="1" stop-color="#43B5E8"/>
</linearGradient>
<linearGradient id="paint22_linear" x1="421.738" y1="202.921" x2="429.04" y2="202.921" gradientUnits="userSpaceOnUse">
<stop stop-color="#71459B"/>
<stop offset="0.8668" stop-color="#A76DAE"/>
</linearGradient>
<linearGradient id="paint23_linear" x1="436.671" y1="202.881" x2="443.973" y2="202.881" gradientUnits="userSpaceOnUse">
<stop stop-color="#71459B"/>
<stop offset="0.8668" stop-color="#A76DAE"/>
</linearGradient>
<linearGradient id="paint24_linear" x1="542.94" y1="199.872" x2="545.819" y2="199.872" gradientUnits="userSpaceOnUse">
<stop stop-color="#71459B"/>
<stop offset="0.8668" stop-color="#A76DAE"/>
</linearGradient>
<linearGradient id="paint25_linear" x1="546.493" y1="197.653" x2="555.565" y2="197.653" gradientUnits="userSpaceOnUse">
<stop stop-color="#71459B"/>
<stop offset="0.8668" stop-color="#A76DAE"/>
</linearGradient>
<linearGradient id="paint26_linear" x1="546.493" y1="198.616" x2="555.565" y2="198.616" gradientUnits="userSpaceOnUse">
<stop stop-color="#71459B"/>
<stop offset="0.8668" stop-color="#A76DAE"/>
</linearGradient>
<linearGradient id="paint27_linear" x1="546.493" y1="199.594" x2="555.565" y2="199.594" gradientUnits="userSpaceOnUse">
<stop stop-color="#71459B"/>
<stop offset="0.8668" stop-color="#A76DAE"/>
</linearGradient>
<linearGradient id="paint28_linear" x1="546.507" y1="200.66" x2="555.58" y2="200.66" gradientUnits="userSpaceOnUse">
<stop stop-color="#71459B"/>
<stop offset="0.8668" stop-color="#A76DAE"/>
</linearGradient>
<linearGradient id="paint29_linear" x1="546.478" y1="201.671" x2="555.55" y2="201.671" gradientUnits="userSpaceOnUse">
<stop stop-color="#71459B"/>
<stop offset="0.8668" stop-color="#A76DAE"/>
</linearGradient>
<linearGradient id="paint30_linear" x1="557.206" y1="199.773" x2="560.085" y2="199.773" gradientUnits="userSpaceOnUse">
<stop stop-color="#71459B"/>
<stop offset="0.8668" stop-color="#A76DAE"/>
</linearGradient>
<linearGradient id="paint31_linear" x1="542.552" y1="227.853" x2="549.423" y2="227.853" gradientUnits="userSpaceOnUse">
<stop stop-color="#7DD3F7"/>
<stop offset="1" stop-color="#43B5E8"/>
</linearGradient>
<linearGradient id="paint32_linear" x1="499.081" y1="257.329" x2="531.74" y2="257.329" gradientUnits="userSpaceOnUse">
<stop stop-color="#7DD3F7"/>
<stop offset="1" stop-color="#43B5E8"/>
</linearGradient>
<linearGradient id="paint33_linear" x1="423.433" y1="200.138" x2="427.168" y2="200.138" gradientUnits="userSpaceOnUse">
<stop stop-color="#71459B"/>
<stop offset="0.8668" stop-color="#A76DAE"/>
</linearGradient>
<linearGradient id="paint34_linear" x1="438.461" y1="200.167" x2="442.01" y2="200.167" gradientUnits="userSpaceOnUse">
<stop stop-color="#71459B"/>
<stop offset="0.8668" stop-color="#A76DAE"/>
</linearGradient>
<linearGradient id="paint35_linear" x1="556.063" y1="214.511" x2="565.939" y2="214.511" gradientUnits="userSpaceOnUse">
<stop stop-color="#7DD3F7"/>
<stop offset="1" stop-color="#43B5E8"/>
</linearGradient>
<linearGradient id="paint36_linear" x1="544.507" y1="264.079" x2="560.199" y2="264.079" gradientUnits="userSpaceOnUse">
<stop stop-color="#7DD3F7"/>
<stop offset="1" stop-color="#43B5E8"/>
</linearGradient>
<linearGradient id="paint37_linear" x1="545.066" y1="274.689" x2="559.32" y2="274.689" gradientUnits="userSpaceOnUse">
<stop stop-color="#71459B"/>
<stop offset="0.8668" stop-color="#A76DAE"/>
</linearGradient>
<linearGradient id="paint38_linear" x1="545.066" y1="276.115" x2="559.32" y2="276.115" gradientUnits="userSpaceOnUse">
<stop stop-color="#71459B"/>
<stop offset="0.8668" stop-color="#A76DAE"/>
</linearGradient>
<linearGradient id="paint39_linear" x1="545.118" y1="277.618" x2="559.372" y2="277.618" gradientUnits="userSpaceOnUse">
<stop stop-color="#71459B"/>
<stop offset="0.8668" stop-color="#A76DAE"/>
</linearGradient>
<linearGradient id="paint40_linear" x1="545.119" y1="281.594" x2="559.374" y2="281.594" gradientUnits="userSpaceOnUse">
<stop stop-color="#71459B"/>
<stop offset="0.8668" stop-color="#A76DAE"/>
</linearGradient>
<linearGradient id="paint41_linear" x1="545.119" y1="283.148" x2="559.374" y2="283.148" gradientUnits="userSpaceOnUse">
<stop stop-color="#71459B"/>
<stop offset="0.8668" stop-color="#A76DAE"/>
</linearGradient>
<linearGradient id="paint42_linear" x1="545.119" y1="284.73" x2="559.374" y2="284.73" gradientUnits="userSpaceOnUse">
<stop stop-color="#71459B"/>
<stop offset="0.8668" stop-color="#A76DAE"/>
</linearGradient>
<linearGradient id="paint43_linear" x1="545.119" y1="287.811" x2="559.374" y2="287.811" gradientUnits="userSpaceOnUse">
<stop stop-color="#71459B"/>
<stop offset="0.8668" stop-color="#A76DAE"/>
</linearGradient>
<linearGradient id="paint44_linear" x1="545.119" y1="289.393" x2="559.374" y2="289.393" gradientUnits="userSpaceOnUse">
<stop stop-color="#71459B"/>
<stop offset="0.8668" stop-color="#A76DAE"/>
</linearGradient>
<linearGradient id="paint45_linear" x1="545.119" y1="291.057" x2="559.374" y2="291.057" gradientUnits="userSpaceOnUse">
<stop stop-color="#71459B"/>
<stop offset="0.8668" stop-color="#A76DAE"/>
</linearGradient>
<linearGradient id="paint46_linear" x1="124.979" y1="180.749" x2="198.802" y2="188.416" gradientUnits="userSpaceOnUse">
<stop stop-color="#7DD3F7"/>
<stop offset="1" stop-color="#43B5E8"/>
</linearGradient>
<linearGradient id="paint47_linear" x1="124.536" y1="185.015" x2="198.358" y2="192.682" gradientUnits="userSpaceOnUse">
<stop stop-color="#7DD3F7"/>
<stop offset="1" stop-color="#43B5E8"/>
</linearGradient>
<linearGradient id="paint48_linear" x1="123.898" y1="189.817" x2="197.721" y2="197.484" gradientUnits="userSpaceOnUse">
<stop stop-color="#7DD3F7"/>
<stop offset="1" stop-color="#43B5E8"/>
</linearGradient>
<linearGradient id="paint49_linear" x1="124.443" y1="216.631" x2="198.659" y2="216.631" gradientUnits="userSpaceOnUse">
<stop stop-color="#7DD3F7"/>
<stop offset="1" stop-color="#43B5E8"/>
</linearGradient>
<linearGradient id="paint50_linear" x1="124.443" y1="220.92" x2="198.659" y2="220.92" gradientUnits="userSpaceOnUse">
<stop stop-color="#7DD3F7"/>
<stop offset="1" stop-color="#43B5E8"/>
</linearGradient>
<linearGradient id="paint51_linear" x1="124.305" y1="225.761" x2="198.52" y2="225.761" gradientUnits="userSpaceOnUse">
<stop stop-color="#7DD3F7"/>
<stop offset="1" stop-color="#43B5E8"/>
</linearGradient>
<linearGradient id="paint52_linear" x1="124.582" y1="205.506" x2="157.241" y2="205.506" gradientUnits="userSpaceOnUse">
<stop stop-color="#7DD3F7"/>
<stop offset="1" stop-color="#43B5E8"/>
</linearGradient>
<linearGradient id="paint53_linear" x1="124.927" y1="162.797" x2="198.219" y2="167.308" gradientUnits="userSpaceOnUse">
<stop stop-color="#7DD3F7"/>
<stop offset="1" stop-color="#43B5E8"/>
</linearGradient>
<linearGradient id="paint54_linear" x1="207.8" y1="154.766" x2="210.678" y2="154.766" gradientUnits="userSpaceOnUse">
<stop stop-color="#71459B"/>
<stop offset="0.8668" stop-color="#A76DAE"/>
</linearGradient>
<linearGradient id="paint55_linear" x1="211.353" y1="152.548" x2="220.425" y2="152.548" gradientUnits="userSpaceOnUse">
<stop stop-color="#71459B"/>
<stop offset="0.8668" stop-color="#A76DAE"/>
</linearGradient>
<linearGradient id="paint56_linear" x1="211.353" y1="153.511" x2="220.425" y2="153.511" gradientUnits="userSpaceOnUse">
<stop stop-color="#71459B"/>
<stop offset="0.8668" stop-color="#A76DAE"/>
</linearGradient>
<linearGradient id="paint57_linear" x1="211.353" y1="154.488" x2="220.425" y2="154.488" gradientUnits="userSpaceOnUse">
<stop stop-color="#71459B"/>
<stop offset="0.8668" stop-color="#A76DAE"/>
</linearGradient>
<linearGradient id="paint58_linear" x1="211.367" y1="155.555" x2="220.44" y2="155.555" gradientUnits="userSpaceOnUse">
<stop stop-color="#71459B"/>
<stop offset="0.8668" stop-color="#A76DAE"/>
</linearGradient>
<linearGradient id="paint59_linear" x1="211.337" y1="156.566" x2="220.41" y2="156.566" gradientUnits="userSpaceOnUse">
<stop stop-color="#71459B"/>
<stop offset="0.8668" stop-color="#A76DAE"/>
</linearGradient>
<linearGradient id="paint60_linear" x1="222.065" y1="154.668" x2="224.944" y2="154.668" gradientUnits="userSpaceOnUse">
<stop stop-color="#71459B"/>
<stop offset="0.8668" stop-color="#A76DAE"/>
</linearGradient>
<linearGradient id="paint61_linear" x1="164.733" y1="205.645" x2="197.391" y2="205.645" gradientUnits="userSpaceOnUse">
<stop stop-color="#7DD3F7"/>
<stop offset="1" stop-color="#43B5E8"/>
</linearGradient>
<linearGradient id="paint62_linear" x1="200.224" y1="183.096" x2="215.571" y2="179.821" gradientUnits="userSpaceOnUse">
<stop stop-color="#7DD3F7"/>
<stop offset="1" stop-color="#43B5E8"/>
</linearGradient>
<linearGradient id="paint63_linear" x1="206.375" y1="190.566" x2="220.315" y2="187.591" gradientUnits="userSpaceOnUse">
<stop stop-color="#71459B"/>
<stop offset="0.8668" stop-color="#A76DAE"/>
</linearGradient>
<linearGradient id="paint64_linear" x1="206.673" y1="191.96" x2="220.614" y2="188.985" gradientUnits="userSpaceOnUse">
<stop stop-color="#71459B"/>
<stop offset="0.8668" stop-color="#A76DAE"/>
</linearGradient>
<linearGradient id="paint65_linear" x1="207.037" y1="193.42" x2="220.978" y2="190.445" gradientUnits="userSpaceOnUse">
<stop stop-color="#71459B"/>
<stop offset="0.8668" stop-color="#A76DAE"/>
</linearGradient>
<linearGradient id="paint66_linear" x1="207.868" y1="197.307" x2="221.809" y2="194.332" gradientUnits="userSpaceOnUse">
<stop stop-color="#71459B"/>
<stop offset="0.8668" stop-color="#A76DAE"/>
</linearGradient>
<linearGradient id="paint67_linear" x1="208.193" y1="198.827" x2="222.133" y2="195.852" gradientUnits="userSpaceOnUse">
<stop stop-color="#71459B"/>
<stop offset="0.8668" stop-color="#A76DAE"/>
</linearGradient>
<linearGradient id="paint68_linear" x1="208.522" y1="200.374" x2="222.463" y2="197.399" gradientUnits="userSpaceOnUse">
<stop stop-color="#71459B"/>
<stop offset="0.8668" stop-color="#A76DAE"/>
</linearGradient>
<linearGradient id="paint69_linear" x1="209.166" y1="203.388" x2="223.107" y2="200.413" gradientUnits="userSpaceOnUse">
<stop stop-color="#71459B"/>
<stop offset="0.8668" stop-color="#A76DAE"/>
</linearGradient>
<linearGradient id="paint70_linear" x1="209.496" y1="204.935" x2="223.437" y2="201.96" gradientUnits="userSpaceOnUse">
<stop stop-color="#71459B"/>
<stop offset="0.8668" stop-color="#A76DAE"/>
</linearGradient>
<linearGradient id="paint71_linear" x1="209.843" y1="206.562" x2="223.784" y2="203.587" gradientUnits="userSpaceOnUse">
<stop stop-color="#71459B"/>
<stop offset="0.8668" stop-color="#A76DAE"/>
</linearGradient>
<linearGradient id="paint72_linear" x1="89.6058" y1="189.831" x2="127.235" y2="207.575" gradientUnits="userSpaceOnUse">
<stop stop-color="#7DD3F7"/>
<stop offset="1" stop-color="#43B5E8"/>
</linearGradient>
<linearGradient id="paint73_linear" x1="88.182" y1="192.85" x2="125.811" y2="210.594" gradientUnits="userSpaceOnUse">
<stop stop-color="#7DD3F7"/>
<stop offset="1" stop-color="#43B5E8"/>
</linearGradient>
<linearGradient id="paint74_linear" x1="86.5047" y1="196.226" x2="124.134" y2="213.97" gradientUnits="userSpaceOnUse">
<stop stop-color="#7DD3F7"/>
<stop offset="1" stop-color="#43B5E8"/>
</linearGradient>
<linearGradient id="paint75_linear" x1="63.7604" y1="206.5" x2="101.389" y2="224.244" gradientUnits="userSpaceOnUse">
<stop stop-color="#7DD3F7"/>
<stop offset="1" stop-color="#43B5E8"/>
</linearGradient>
<linearGradient id="paint76_linear" x1="62.3369" y1="209.519" x2="99.9658" y2="227.263" gradientUnits="userSpaceOnUse">
<stop stop-color="#7DD3F7"/>
<stop offset="1" stop-color="#43B5E8"/>
</linearGradient>
<linearGradient id="paint77_linear" x1="60.6591" y1="212.895" x2="98.2881" y2="230.639" gradientUnits="userSpaceOnUse">
<stop stop-color="#7DD3F7"/>
<stop offset="1" stop-color="#43B5E8"/>
</linearGradient>
<linearGradient id="paint78_linear" x1="71.6874" y1="241.802" x2="111.831" y2="238.484" gradientUnits="userSpaceOnUse">
<stop stop-color="#7DD3F7"/>
<stop offset="1" stop-color="#43B5E8"/>
</linearGradient>
<linearGradient id="paint79_linear" x1="99.2408" y1="180.011" x2="125.342" y2="169.302" gradientUnits="userSpaceOnUse">
<stop stop-color="#7DD3F7"/>
<stop offset="1" stop-color="#43B5E8"/>
</linearGradient>
<linearGradient id="paint80_linear" x1="216.676" y1="180.756" x2="242.777" y2="170.047" gradientUnits="userSpaceOnUse">
<stop stop-color="#7DD3F7"/>
<stop offset="1" stop-color="#43B5E8"/>
</linearGradient>
<linearGradient id="paint81_linear" x1="214.991" y1="177.385" x2="241.092" y2="166.676" gradientUnits="userSpaceOnUse">
<stop stop-color="#7DD3F7"/>
<stop offset="1" stop-color="#43B5E8"/>
</linearGradient>
<linearGradient id="paint82_linear" x1="100.526" y1="182.933" x2="126.626" y2="172.224" gradientUnits="userSpaceOnUse">
<stop stop-color="#7DD3F7"/>
<stop offset="1" stop-color="#43B5E8"/>
</linearGradient>
<linearGradient id="paint83_linear" x1="101.58" y1="185.849" x2="127.681" y2="175.14" gradientUnits="userSpaceOnUse">
<stop stop-color="#7DD3F7"/>
<stop offset="1" stop-color="#43B5E8"/>
</linearGradient>
<linearGradient id="paint84_linear" x1="95.9981" y1="164.386" x2="102.754" y2="161.614" gradientUnits="userSpaceOnUse">
<stop stop-color="#71459B"/>
<stop offset="0.8668" stop-color="#A76DAE"/>
</linearGradient>
<linearGradient id="paint85_linear" x1="109.799" y1="158.681" x2="116.555" y2="155.909" gradientUnits="userSpaceOnUse">
<stop stop-color="#71459B"/>
<stop offset="0.8668" stop-color="#A76DAE"/>
</linearGradient>
<linearGradient id="paint86_linear" x1="91.5256" y1="163.362" x2="94.9808" y2="161.944" gradientUnits="userSpaceOnUse">
<stop stop-color="#71459B"/>
<stop offset="0.8668" stop-color="#A76DAE"/>
</linearGradient>
<linearGradient id="paint87_linear" x1="110.424" y1="155.491" x2="113.707" y2="154.144" gradientUnits="userSpaceOnUse">
<stop stop-color="#71459B"/>
<stop offset="0.8668" stop-color="#A76DAE"/>
</linearGradient>
<linearGradient id="paint88_linear" x1="171.899" y1="225.393" x2="178.752" y2="225.885" gradientUnits="userSpaceOnUse">
<stop stop-color="#7DD3F7"/>
<stop offset="1" stop-color="#43B5E8"/>
</linearGradient>
<linearGradient id="paint89_linear" x1="186.233" y1="212.967" x2="196.088" y2="213.599" gradientUnits="userSpaceOnUse">
<stop stop-color="#7DD3F7"/>
<stop offset="1" stop-color="#43B5E8"/>
</linearGradient>
<linearGradient id="paint90_linear" x1="193.415" y1="247.766" x2="203.27" y2="248.398" gradientUnits="userSpaceOnUse">
<stop stop-color="#7DD3F7"/>
<stop offset="1" stop-color="#43B5E8"/>
</linearGradient>
</defs>
</svg>
