<svg width="577" height="389" viewBox="0 0 577 389" fill="none" xmlns="http://www.w3.org/2000/svg">
<g filter="url(#filter0_d)">
<path d="M447.572 304.392C447.572 305.401 446.778 306.193 445.768 306.193H136.244C135.234 306.193 134.441 305.401 134.441 304.392V96.9254C134.441 95.9169 135.234 95.1245 136.244 95.1245H445.768C446.778 95.1245 447.572 95.9169 447.572 96.9254V304.392Z" fill="#6D6E71"/>
<path d="M443.569 299.89C443.569 300.898 442.775 301.691 441.766 301.691H140.103C139.093 301.691 138.3 300.898 138.3 299.89V101.248C138.3 100.239 139.093 99.4468 140.103 99.4468H441.766C442.775 99.4468 443.569 100.239 443.569 101.248V299.89Z" fill="#E1F4FD"/>
<path d="M480.388 310.731L480.497 323.194L308.875 324.419L308.767 311.956L480.388 310.731Z" fill="url(#paint0_linear)"/>
<path d="M477.323 310.839L477.431 323.266L481.362 323.23L481.29 310.803L477.323 310.839Z" fill="url(#paint1_linear)"/>
<path d="M471.587 316.224L471.637 323.248L472.214 323.244L472.164 316.22L471.587 316.224Z" fill="white"/>
<path d="M460.877 316.344L460.927 323.367L461.504 323.363L461.454 316.339L460.877 316.344Z" fill="white"/>
<path d="M451.54 316.371L451.59 323.395L452.167 323.391L452.117 316.367L451.54 316.371Z" fill="white"/>
<path d="M441.112 316.443L441.162 323.466L441.739 323.462L441.689 316.439L441.112 316.443Z" fill="white"/>
<path d="M428.801 316.571L428.851 323.594L429.428 323.59L429.378 316.566L428.801 316.571Z" fill="white"/>
<path d="M415.437 316.67L415.488 323.693L416.065 323.689L416.014 316.666L415.437 316.67Z" fill="white"/>
<path d="M402.04 316.761L402.091 323.784L402.668 323.78L402.618 316.756L402.04 316.761Z" fill="white"/>
<path d="M390.53 316.846L390.58 323.87L391.157 323.866L391.107 316.842L390.53 316.846Z" fill="white"/>
<path d="M378.503 316.965L378.554 323.988L379.131 323.984L379.08 316.961L378.503 316.965Z" fill="white"/>
<path d="M366.44 317.048L366.49 324.071L367.067 324.067L367.017 317.044L366.44 317.048Z" fill="white"/>
<path d="M349.669 317.253L349.72 324.276L350.297 324.272L350.246 317.249L349.669 317.253Z" fill="white"/>
<path d="M335.437 317.25L335.487 324.273L336.064 324.269L336.014 317.246L335.437 317.25Z" fill="white"/>
<path d="M319.108 317.273L319.159 324.296L319.736 324.292L319.685 317.269L319.108 317.273Z" fill="white"/>
<path d="M119.943 89.6502C122.971 89.6502 125.425 84.7479 125.425 78.7006C125.425 72.6533 122.971 67.751 119.943 67.751C116.916 67.751 114.462 72.6533 114.462 78.7006C114.462 84.7479 116.916 89.6502 119.943 89.6502Z" fill="url(#paint2_linear)"/>
<path d="M131.267 67.751H118.646V89.5422H131.267V67.751Z" fill="url(#paint3_linear)"/>
<path d="M131.663 89.5418C134.611 89.5418 137.001 84.6395 137.001 78.5922C137.001 72.5449 134.611 67.6426 131.663 67.6426C128.716 67.6426 126.326 72.5449 126.326 78.5922C126.326 84.6395 128.716 89.5418 131.663 89.5418Z" fill="url(#paint4_linear)"/>
<path d="M126.11 76.9712H114.714V242.981H126.11V76.9712Z" fill="url(#paint5_linear)"/>
<path d="M126.074 240.171H114.714V243.773H126.074V240.171Z" fill="url(#paint6_linear)"/>
<path d="M121.097 234.913H114.714V235.453H121.097V234.913Z" fill="white"/>
<path d="M121.097 225.188H114.714V225.728H121.097V225.188Z" fill="white"/>
<path d="M121.097 216.651H114.714V217.191H121.097V216.651Z" fill="white"/>
<path d="M121.097 207.143H114.714V207.683H121.097V207.143Z" fill="white"/>
<path d="M121.097 195.94H114.714V196.481H121.097V195.94Z" fill="white"/>
<path d="M121.097 183.802H114.714V184.343H121.097V183.802Z" fill="white"/>
<path d="M121.062 171.592H114.679V172.132H121.062V171.592Z" fill="white"/>
<path d="M121.062 161.111H114.679V161.651H121.062V161.111Z" fill="white"/>
<path d="M121.062 150.125H114.679V150.665H121.062V150.125Z" fill="white"/>
<path d="M121.062 139.175H114.679V139.716H121.062V139.175Z" fill="white"/>
<path d="M120.953 123.903H114.57V124.444H120.953V123.903Z" fill="white"/>
<path d="M121.062 110.937H114.679V111.477H121.062V110.937Z" fill="white"/>
<path d="M121.169 96.061H114.786V96.6013H121.169V96.061Z" fill="white"/>
<path d="M121.169 84.6074H114.786V85.1477H121.169V84.6074Z" fill="white"/>
<path d="M121.278 75.3145H114.895V75.8547H121.278V75.3145Z" fill="white"/>
<path d="M124.559 68.543H118.176V69.0832H124.559V68.543Z" fill="white"/>
<path d="M506.065 264.304C506.065 267.257 503.613 269.706 500.655 269.706H465.819C462.862 269.706 460.41 267.257 460.41 264.304V216.759C460.41 213.806 462.862 211.356 465.819 211.356H500.655C503.613 211.356 506.065 213.806 506.065 216.759V264.304Z" fill="#E6E7E8"/>
<path d="M408.479 85.8317C408.479 88.7852 406.027 91.2345 403.07 91.2345H368.234C365.276 91.2345 362.824 88.7852 362.824 85.8317V59.4301C362.824 56.4766 365.276 54.0273 368.234 54.0273H403.07C406.027 54.0273 408.479 56.4766 408.479 59.4301V85.8317Z" fill="#E6E7E8"/>
<path d="M353.052 84.4631C353.052 87.4166 350.6 89.8659 347.642 89.8659H323.661C320.704 89.8659 318.251 87.4166 318.251 84.4631V74.0898C318.251 71.1363 320.704 68.687 323.661 68.687H347.642C350.6 68.687 353.052 71.1363 353.052 74.0898V84.4631Z" fill="#EDEDEE"/>
<path d="M515.08 280.368C515.08 282.349 513.458 283.969 511.474 283.969H464.773C462.79 283.969 461.167 282.349 461.167 280.368V279.791C461.167 277.81 462.79 276.189 464.773 276.189H511.474C513.458 276.189 515.08 277.81 515.08 279.791V280.368Z" fill="#EDEDEE"/>
<path d="M462.14 296.036C464.411 296.036 466.252 294.294 466.252 292.146C466.252 289.997 464.411 288.256 462.14 288.256C459.87 288.256 458.029 289.997 458.029 292.146C458.029 294.294 459.87 296.036 462.14 296.036Z" fill="#EDEDEE"/>
<path d="M526.26 289.408C526.26 290.417 525.466 291.209 524.457 291.209H474.149C473.14 291.209 472.346 290.417 472.346 289.408V288.976C472.346 287.968 473.14 287.175 474.149 287.175H524.457C525.466 287.175 526.26 287.968 526.26 288.976V289.408Z" fill="#F1F2F2"/>
<path d="M93.8703 74.8822C93.8703 76.8633 92.2475 78.4841 90.2641 78.4841H52.2542C50.2708 78.4841 48.6479 76.8633 48.6479 74.8822V74.306C48.6479 72.3249 50.2708 70.7041 52.2542 70.7041H90.2641C92.2475 70.7041 93.8703 72.3249 93.8703 74.306V74.8822Z" fill="#EDEDEE"/>
<path d="M348.472 60.6191C348.472 62.6001 346.849 64.2209 344.866 64.2209H306.856C304.872 64.2209 303.25 62.6001 303.25 60.6191V60.0428C303.25 58.0618 304.872 56.4409 306.856 56.4409H344.866C346.849 56.4409 348.472 58.0618 348.472 60.0428V60.6191Z" fill="#EDEDEE"/>
<path d="M515.658 199.146C515.658 201.127 514.035 202.748 512.052 202.748H474.042C472.058 202.748 470.436 201.127 470.436 199.146V198.57C470.436 196.589 472.058 194.968 474.042 194.968H512.052C514.035 194.968 515.658 196.589 515.658 198.57V199.146Z" fill="#F1F2F2"/>
<path d="M48.3597 89.8298C50.6302 89.8298 52.4708 88.0882 52.4708 85.9398C52.4708 83.7914 50.6302 82.0498 48.3597 82.0498C46.0892 82.0498 44.2485 83.7914 44.2485 85.9398C44.2485 88.0882 46.0892 89.8298 48.3597 89.8298Z" fill="#EDEDEE"/>
<path d="M103.283 83.9226C103.283 84.9311 102.489 85.7235 101.48 85.7235H59.8275C58.8178 85.7235 58.0244 84.9311 58.0244 83.9226V83.4904C58.0244 82.4819 58.8178 81.6895 59.8275 81.6895H101.444C102.453 81.6895 103.247 82.4819 103.247 83.4904V83.9226H103.283Z" fill="#F1F2F2"/>
<path d="M104.689 163.091C104.689 166.045 102.237 168.494 99.2798 168.494H69.6364C66.6793 168.494 64.2271 166.045 64.2271 163.091V94.9804C64.2271 92.0269 66.6793 89.5776 69.6364 89.5776H99.2798C102.237 89.5776 104.689 92.0269 104.689 94.9804V163.091Z" fill="#EDEDEE"/>
<path d="M57.1946 153.042C57.1946 155.023 55.5718 156.644 53.5884 156.644H51.1722C49.1887 156.644 47.5659 155.023 47.5659 153.042V98.1502C47.5659 96.1692 49.1887 94.5483 51.1722 94.5483H53.5884C55.5718 94.5483 57.1946 96.1692 57.1946 98.1502V153.042Z" fill="#E6E7E8"/>
<path d="M220.594 41.8891C220.594 43.8701 218.972 45.4909 216.988 45.4909H178.978C176.995 45.4909 175.372 43.8701 175.372 41.8891V41.3128C175.372 39.3318 176.995 37.7109 178.978 37.7109H216.988C218.972 37.7109 220.594 39.3318 220.594 41.3128V41.8891Z" fill="#BCE6FB"/>
<path d="M267.656 82.4823C267.656 84.4634 266.033 86.0842 264.05 86.0842H226.04C224.056 86.0842 222.434 84.4634 222.434 82.4823V81.906C222.434 79.925 224.056 78.3042 226.04 78.3042H264.05C266.033 78.3042 267.656 79.925 267.656 81.906V82.4823Z" fill="#DCF2FD"/>
<path d="M94.6641 251.157C94.6641 253.138 93.0413 254.758 91.0579 254.758H66.2469C64.2634 254.758 62.6406 253.138 62.6406 251.157V250.58C62.6406 248.599 64.2634 246.979 66.2469 246.979H91.0579C93.0413 246.979 94.6641 248.599 94.6641 250.58V251.157Z" fill="#BCE6FB"/>
<path d="M220.883 56.5847C223.153 56.5847 224.994 54.8431 224.994 52.6947C224.994 50.5463 223.153 48.8047 220.883 48.8047C218.612 48.8047 216.771 50.5463 216.771 52.6947C216.771 54.8431 218.612 56.5847 220.883 56.5847Z" fill="#DCF2FD"/>
<path d="M251.32 335.764C253.59 335.764 255.431 334.023 255.431 331.874C255.431 329.726 253.59 327.984 251.32 327.984C249.049 327.984 247.208 329.726 247.208 331.874C247.208 334.023 249.049 335.764 251.32 335.764Z" fill="#DCF2FD"/>
<path d="M158.35 322.329C160.621 322.329 162.461 320.588 162.461 318.439C162.461 316.291 160.621 314.549 158.35 314.549C156.08 314.549 154.239 316.291 154.239 318.439C154.239 320.588 156.08 322.329 158.35 322.329Z" fill="#DCF2FD"/>
<path d="M90.6609 243.557C92.9314 243.557 94.7721 241.815 94.7721 239.667C94.7721 237.518 92.9314 235.777 90.6609 235.777C88.3904 235.777 86.5498 237.518 86.5498 239.667C86.5498 241.815 88.3904 243.557 90.6609 243.557Z" fill="url(#paint7_linear)"/>
<path d="M113.993 294.955C116.264 294.955 118.105 293.214 118.105 291.065C118.105 288.917 116.264 287.175 113.993 287.175C111.723 287.175 109.882 288.917 109.882 291.065C109.882 293.214 111.723 294.955 113.993 294.955Z" fill="url(#paint8_linear)"/>
<path d="M172.451 49.7776C172.451 50.7861 171.658 51.5785 170.648 51.5785H129.032C128.022 51.5785 127.229 50.7861 127.229 49.7776V49.3454C127.229 48.3368 128.022 47.5444 129.032 47.5444H170.648C171.658 47.5444 172.451 48.3368 172.451 49.3454V49.7776Z" fill="url(#paint9_linear)"/>
<path d="M256.729 344.012C256.729 345.021 255.935 345.813 254.926 345.813H213.309C212.3 345.813 211.506 345.021 211.506 344.012V343.58C211.506 342.572 212.3 341.779 213.309 341.779H254.926C255.935 341.779 256.729 342.572 256.729 343.58V344.012Z" fill="url(#paint10_linear)"/>
<path d="M275.553 71.4963C275.553 72.5048 274.76 73.2973 273.75 73.2973H232.134C231.124 73.2973 230.331 72.5048 230.331 71.4963V71.0641C230.331 70.0556 231.124 69.2632 232.134 69.2632H273.75C274.76 69.2632 275.553 70.0556 275.553 71.0641V71.4963Z" fill="url(#paint11_linear)"/>
<path d="M108.909 249.716C108.909 251.697 107.286 253.318 105.303 253.318H102.887C100.903 253.318 99.2803 251.697 99.2803 249.716V220.325C99.2803 218.344 100.903 216.723 102.887 216.723H105.303C107.286 216.723 108.909 218.344 108.909 220.325V249.716Z" fill="#DCF2FD"/>
<path d="M113.993 278.567C113.993 281.52 111.541 283.97 108.584 283.97H67.6892C64.732 283.97 62.2798 281.52 62.2798 278.567V264.412C62.2798 261.458 64.732 259.009 67.6892 259.009H108.584C111.541 259.009 113.993 261.458 113.993 264.412V278.567Z" fill="#BCE6FB"/>
<path d="M214.86 80.8614C214.86 83.8149 212.408 86.2641 209.451 86.2641H153.482C150.525 86.2641 148.072 83.8149 148.072 80.8614V61.1953C148.072 58.2417 150.525 55.7925 153.482 55.7925H209.451C212.408 55.7925 214.86 58.2417 214.86 61.1953V80.8614Z" fill="#BCE6FB"/>
<path d="M242.664 330.866C242.664 333.819 240.212 336.269 237.255 336.269H179.122C176.165 336.269 173.713 333.819 173.713 330.866V318.476C173.713 315.522 176.165 313.073 179.122 313.073H237.255C240.212 313.073 242.664 315.522 242.664 318.476V330.866Z" fill="#BCE6FB"/>
<path d="M434.733 192.807C434.733 192.807 434.373 192.05 433.651 190.934" stroke="#662D91" stroke-miterlimit="10"/>
<path d="M431.091 187.404C426.511 182.073 418.145 177.21 409.562 196.12C396.724 224.431 465.495 220.757 470.507 177.463C475.484 134.168 415.62 151.637 421.535 114.754C427.449 77.8714 463.944 93.5755 462.754 105.534C461.564 117.492 438.989 111.729 423.338 88.0647C410.932 69.335 428.747 52.1542 436.717 45.8149" stroke="#662D91" stroke-miterlimit="10" stroke-dasharray="12.12 12.12"/>
<path d="M438.448 44.5185C439.53 43.69 440.215 43.2578 440.215 43.2578" stroke="#662D91" stroke-miterlimit="10"/>
<path d="M438.231 44.6627C440.107 43.0059 442.09 41.4571 444.074 39.9803C446.057 38.4675 448.113 37.0268 450.168 35.6221C452.224 34.2173 454.315 32.8486 456.443 31.5159C458.571 30.1833 460.698 28.9226 462.934 27.77C461.059 29.4269 459.076 30.9757 457.092 32.4524C455.109 33.9292 453.053 35.4059 450.998 36.8107C448.942 38.2154 446.85 39.5841 444.723 40.9168C442.631 42.2134 440.467 43.5101 438.231 44.6627Z" fill="#662D91"/>
<path d="M134.152 258.469C134.152 258.469 133.467 258.901 132.385 259.693" stroke="#662D91" stroke-miterlimit="10"/>
<path d="M129.103 262.358C123.946 267.077 117.419 275.577 123.333 285.014C132.349 299.421 145.764 303.203 146.666 296.072C147.567 288.94 125.966 278.963 121.819 300.934C117.96 321.609 149.659 314.441 150.416 334.972" stroke="#662D91" stroke-miterlimit="10" stroke-dasharray="11.73 11.73"/>
<path d="M150.38 337.133C150.344 337.818 150.272 338.538 150.164 339.294" stroke="#662D91" stroke-miterlimit="10"/>
<path d="M435.815 166.153C435.815 168.134 434.193 169.755 432.209 169.755H148.866C146.883 169.755 145.26 168.134 145.26 166.153V110.685C145.26 108.704 146.883 107.083 148.866 107.083H432.209C434.193 107.083 435.815 108.704 435.815 110.685V166.153Z" fill="url(#paint12_linear)"/>
<path d="M435.815 166.153C435.815 168.134 434.193 169.755 432.209 169.755H148.866C146.883 169.755 145.26 168.134 145.26 166.153V110.685C145.26 108.704 146.883 107.083 148.866 107.083H432.209C434.193 107.083 435.815 108.704 435.815 110.685V166.153Z" stroke="#939598" stroke-miterlimit="10" stroke-dasharray="16 16"/>
<path d="M285.11 285.591C285.11 287.572 283.487 289.193 281.504 289.193H150.308C148.325 289.193 146.702 287.572 146.702 285.591V255.299C146.702 253.318 148.325 251.697 150.308 251.697H281.504C283.487 251.697 285.11 253.318 285.11 255.299V285.591Z" fill="url(#paint13_linear)"/>
<path d="M285.11 285.591C285.11 287.572 283.487 289.193 281.504 289.193H150.308C148.325 289.193 146.702 287.572 146.702 285.591V255.299C146.702 253.318 148.325 251.697 150.308 251.697H281.504C283.487 251.697 285.11 253.318 285.11 255.299V285.591Z" stroke="#939598" stroke-miterlimit="10" stroke-dasharray="16 16"/>
<path d="M228.601 161.723C228.601 163.704 226.978 165.325 224.994 165.325H155.574C153.591 165.325 151.968 163.704 151.968 161.723V115.979C151.968 113.998 153.591 112.377 155.574 112.377H224.994C226.978 112.377 228.601 113.998 228.601 115.979V161.723Z" fill="white"/>
<path d="M223.551 158.409C223.551 160.39 221.929 162.011 219.945 162.011H160.406C158.423 162.011 156.8 160.39 156.8 158.409V135.249C156.8 133.268 158.423 131.647 160.406 131.647H219.945C221.929 131.647 223.551 133.268 223.551 135.249V158.409Z" fill="#E6E7E8"/>
<path d="M223.011 126.641C223.011 127.614 222.217 128.406 221.207 128.406H158.062C157.052 128.406 156.259 127.614 156.259 126.641C156.259 125.669 157.052 124.876 158.062 124.876H221.207C222.181 124.876 223.011 125.669 223.011 126.641Z" fill="#D1D3D4"/>
<path d="M223.011 119.473C223.011 120.446 222.217 121.238 221.207 121.238H158.062C157.052 121.238 156.259 120.446 156.259 119.473C156.259 118.501 157.052 117.708 158.062 117.708H221.207C222.181 117.745 223.011 118.501 223.011 119.473Z" fill="#D1D3D4"/>
<path d="M177.103 282.205C177.103 284.186 175.481 285.807 173.497 285.807H154.132C152.148 285.807 150.525 284.186 150.525 282.205V258.469C150.525 256.488 152.148 254.867 154.132 254.867H173.497C175.481 254.867 177.103 256.488 177.103 258.469V282.205Z" fill="white"/>
<path d="M210.425 282.205C210.425 284.186 208.802 285.807 206.818 285.807H187.453C185.469 285.807 183.847 284.186 183.847 282.205V258.469C183.847 256.488 185.469 254.867 187.453 254.867H206.818C208.802 254.867 210.425 256.488 210.425 258.469V282.205Z" fill="white"/>
<path d="M246.163 282.205C246.163 284.186 244.54 285.807 242.557 285.807H223.191C221.208 285.807 219.585 284.186 219.585 282.205V258.469C219.585 256.488 221.208 254.867 223.191 254.867H242.557C244.54 254.867 246.163 256.488 246.163 258.469V282.205Z" fill="white"/>
<path d="M281.216 282.205C281.216 284.186 279.593 285.807 277.61 285.807H258.244C256.261 285.807 254.638 284.186 254.638 282.205V258.469C254.638 256.488 256.261 254.867 258.244 254.867H277.61C279.593 254.867 281.216 256.488 281.216 258.469V282.205Z" fill="white"/>
<path d="M435.094 285.195C435.094 287.176 433.472 288.796 431.488 288.796H300.257C298.273 288.796 296.65 287.176 296.65 285.195V254.903C296.65 252.922 298.273 251.301 300.257 251.301H431.452C433.435 251.301 435.058 252.922 435.058 254.903V285.195H435.094Z" fill="url(#paint14_linear)"/>
<path d="M435.094 285.195C435.094 287.176 433.472 288.796 431.488 288.796H300.257C298.273 288.796 296.65 287.176 296.65 285.195V254.903C296.65 252.922 298.273 251.301 300.257 251.301H431.452C433.435 251.301 435.058 252.922 435.058 254.903V285.195H435.094Z" stroke="#939598" stroke-miterlimit="10" stroke-dasharray="16 16"/>
<path d="M327.051 281.809C327.051 283.79 325.428 285.411 323.444 285.411H304.079C302.095 285.411 300.473 283.79 300.473 281.809V258.073C300.473 256.092 302.095 254.471 304.079 254.471H323.444C325.428 254.471 327.051 256.092 327.051 258.073V281.809Z" fill="white"/>
<path d="M360.409 281.809C360.409 283.79 358.786 285.411 356.802 285.411H337.437C335.453 285.411 333.831 283.79 333.831 281.809V258.073C333.831 256.092 335.453 254.471 337.437 254.471H356.802C358.786 254.471 360.409 256.092 360.409 258.073V281.809Z" fill="white"/>
<path d="M396.146 281.809C396.146 283.79 394.524 285.411 392.54 285.411H373.175C371.191 285.411 369.568 283.79 369.568 281.809V258.073C369.568 256.092 371.191 254.471 373.175 254.471H392.54C394.524 254.471 396.146 256.092 396.146 258.073V281.809Z" fill="white"/>
<path d="M431.199 281.809C431.199 283.79 429.576 285.411 427.593 285.411H408.227C406.244 285.411 404.621 283.79 404.621 281.809V258.073C404.621 256.092 406.244 254.471 408.227 254.471H427.593C429.576 254.471 431.199 256.092 431.199 258.073V281.809Z" fill="white"/>
<path d="M327.592 162.047C327.592 164.028 325.969 165.649 323.986 165.649H254.566C252.582 165.649 250.959 164.028 250.959 162.047V116.304C250.959 114.322 252.582 112.702 254.566 112.702H323.986C325.969 112.702 327.592 114.322 327.592 116.304V162.047Z" fill="white"/>
<path d="M427.881 161.399C427.881 163.38 426.259 165.001 424.275 165.001H354.855C352.871 165.001 351.249 163.38 351.249 161.399V115.619C351.249 113.638 352.871 112.018 354.855 112.018H424.275C426.259 112.018 427.881 113.638 427.881 115.619V161.399Z" fill="white"/>
<path d="M210.533 239.883C210.533 241.865 208.91 243.485 206.927 243.485H150.308C148.325 243.485 146.702 241.865 146.702 239.883V181.678C146.702 179.697 148.325 178.076 150.308 178.076H206.927C208.91 178.076 210.533 179.697 210.533 181.678V239.883Z" fill="#A7A9AC"/>
<path d="M210.533 239.883C210.533 241.865 208.91 243.485 206.927 243.485H150.308C148.325 243.485 146.702 241.865 146.702 239.883V181.678C146.702 179.697 148.325 178.076 150.308 178.076H206.927C208.91 178.076 210.533 179.697 210.533 181.678V239.883Z" stroke="#939598" stroke-miterlimit="10" stroke-dasharray="16 16"/>
<path d="M178.077 218.488C187.637 218.488 195.387 210.748 195.387 201.2C195.387 191.651 187.637 183.911 178.077 183.911C168.517 183.911 160.767 191.651 160.767 201.2C160.767 210.748 168.517 218.488 178.077 218.488Z" fill="white"/>
<path d="M284.208 239.559C284.208 241.54 282.586 243.161 280.602 243.161H223.948C221.965 243.161 220.342 241.54 220.342 239.559V181.353C220.342 179.372 221.965 177.751 223.948 177.751H280.566C282.55 177.751 284.172 179.372 284.172 181.353V239.559H284.208Z" fill="#BCBEC0"/>
<path d="M284.208 239.559C284.208 241.54 282.586 243.161 280.602 243.161H223.948C221.965 243.161 220.342 241.54 220.342 239.559V181.353C220.342 179.372 221.965 177.751 223.948 177.751H280.566C282.55 177.751 284.172 179.372 284.172 181.353V239.559H284.208Z" stroke="#939598" stroke-miterlimit="10" stroke-dasharray="16 16"/>
<path d="M251.716 218.164C261.276 218.164 269.026 210.424 269.026 200.875C269.026 191.327 261.276 183.586 251.716 183.586C242.156 183.586 234.406 191.327 234.406 200.875C234.406 210.424 242.156 218.164 251.716 218.164Z" fill="white"/>
<path d="M360.409 239.091C360.409 241.072 358.786 242.693 356.803 242.693H300.184C298.201 242.693 296.578 241.072 296.578 239.091V180.885C296.578 178.904 298.201 177.283 300.184 177.283H356.803C358.786 177.283 360.409 178.904 360.409 180.885V239.091Z" fill="#A7A9AC"/>
<path d="M360.409 239.091C360.409 241.072 358.786 242.693 356.803 242.693H300.184C298.201 242.693 296.578 241.072 296.578 239.091V180.885C296.578 178.904 298.201 177.283 300.184 177.283H356.803C358.786 177.283 360.409 178.904 360.409 180.885V239.091Z" stroke="#939598" stroke-miterlimit="10" stroke-dasharray="16 16"/>
<path d="M327.916 217.696C337.477 217.696 345.226 209.955 345.226 200.407C345.226 190.859 337.477 183.118 327.916 183.118C318.356 183.118 310.606 190.859 310.606 200.407C310.606 209.955 318.356 217.696 327.916 217.696Z" fill="white"/>
<path d="M435.13 240.063C435.13 242.044 433.508 243.665 431.524 243.665H374.906C372.923 243.665 371.3 242.044 371.3 240.063V181.857C371.3 179.876 372.923 178.255 374.906 178.255H431.524C433.508 178.255 435.13 179.876 435.13 181.857V240.063Z" fill="#BCBEC0"/>
<path d="M435.13 240.063C435.13 242.044 433.508 243.665 431.524 243.665H374.906C372.923 243.665 371.3 242.044 371.3 240.063V181.857C371.3 179.876 372.923 178.255 374.906 178.255H431.524C433.508 178.255 435.13 179.876 435.13 181.857V240.063Z" stroke="#939598" stroke-miterlimit="10" stroke-dasharray="16 16"/>
<path d="M402.674 218.669C412.234 218.669 419.984 210.928 419.984 201.38C419.984 191.831 412.234 184.091 402.674 184.091C393.114 184.091 385.364 191.831 385.364 201.38C385.364 210.928 393.114 218.669 402.674 218.669Z" fill="white"/>
<path d="M322.615 149.837C322.615 151.818 320.992 153.439 319.009 153.439H259.47C257.486 153.439 255.863 151.818 255.863 149.837V126.677C255.863 124.696 257.486 123.075 259.47 123.075H319.009C320.992 123.075 322.615 124.696 322.615 126.677V149.837Z" fill="#E6E7E8"/>
<path d="M423.301 141.877C423.301 143.858 421.679 145.479 419.695 145.479H360.156C358.173 145.479 356.55 143.858 356.55 141.877V118.717C356.55 116.736 358.173 115.115 360.156 115.115H419.695C421.679 115.115 423.301 116.736 423.301 118.717V141.877Z" fill="#E6E7E8"/>
<path d="M322.687 118.213C322.687 119.185 321.894 119.978 320.884 119.978H257.739C256.729 119.978 255.936 119.185 255.936 118.213C255.936 117.24 256.729 116.448 257.739 116.448H320.884C321.894 116.484 322.687 117.276 322.687 118.213Z" fill="#D1D3D4"/>
<path d="M322.507 158.445C322.507 159.418 321.713 160.21 320.703 160.21H257.558C256.548 160.21 255.755 159.418 255.755 158.445C255.755 157.473 256.548 156.68 257.558 156.68H320.703C321.713 156.68 322.507 157.473 322.507 158.445Z" fill="#D1D3D4"/>
<path d="M423.626 150.954C423.626 151.926 422.833 152.719 421.823 152.719H358.678C357.668 152.719 356.875 151.926 356.875 150.954C356.875 149.981 357.668 149.189 358.678 149.189H421.823C422.833 149.189 423.626 149.981 423.626 150.954Z" fill="#D1D3D4"/>
<path d="M423.626 158.445C423.626 159.418 422.833 160.21 421.823 160.21H358.678C357.668 160.21 356.875 159.418 356.875 158.445C356.875 157.473 357.668 156.68 358.678 156.68H421.823C422.833 156.68 423.626 157.473 423.626 158.445Z" fill="#D1D3D4"/>
<path d="M205.845 223.747C205.845 224.323 205.34 224.828 204.763 224.828H152.761C152.184 224.828 151.679 224.323 151.679 223.747V223.135C151.679 222.522 152.184 222.054 152.761 222.054H204.799C205.376 222.054 205.881 222.522 205.881 223.135V223.747H205.845Z" fill="white"/>
<path d="M278.619 223.747C278.619 224.323 278.15 224.828 277.537 224.828H225.499C224.886 224.828 224.417 224.323 224.417 223.747V223.135C224.417 222.522 224.886 222.054 225.499 222.054H277.537C278.15 222.054 278.619 222.522 278.619 223.135V223.747Z" fill="white"/>
<path d="M278.439 230.014C278.439 230.626 277.97 231.095 277.357 231.095H225.319C224.742 231.095 224.237 230.626 224.237 230.014V229.402C224.237 228.826 224.742 228.321 225.319 228.321H277.357C277.97 228.321 278.439 228.826 278.439 229.402V230.014Z" fill="white"/>
<path d="M355.865 223.747C355.865 224.323 355.396 224.828 354.783 224.828H302.744C302.131 224.828 301.663 224.323 301.663 223.747V223.135C301.663 222.522 302.131 222.054 302.744 222.054H354.783C355.396 222.054 355.865 222.522 355.865 223.135V223.747Z" fill="white"/>
<path d="M356.01 230.014C356.01 230.626 355.505 231.095 354.928 231.095H302.889C302.276 231.095 301.808 230.626 301.808 230.014V229.402C301.808 228.826 302.276 228.321 302.889 228.321H354.928C355.505 228.321 356.01 228.826 356.01 229.402V230.014Z" fill="white"/>
<path d="M431.019 223.747C431.019 224.323 430.55 224.828 429.937 224.828H377.899C377.322 224.828 376.817 224.323 376.817 223.747V223.135C376.817 222.522 377.322 222.054 377.899 222.054H429.937C430.55 222.054 431.019 222.522 431.019 223.135V223.747Z" fill="white"/>
<path d="M431.344 229.87C431.344 230.446 430.875 230.951 430.262 230.951H378.223C377.61 230.951 377.142 230.446 377.142 229.87V229.258C377.142 228.645 377.61 228.177 378.223 228.177H430.262C430.875 228.177 431.344 228.645 431.344 229.258V229.87Z" fill="white"/>
<path d="M205.773 229.762C205.773 230.375 205.304 230.843 204.691 230.843H152.653C152.076 230.843 151.571 230.375 151.571 229.762V229.15C151.571 228.574 152.076 228.069 152.653 228.069H204.691C205.304 228.069 205.773 228.574 205.773 229.15V229.762Z" fill="white"/>
</g>
<defs>
<filter id="filter0_d" x="-25" y="-10" width="627" height="439" filterUnits="userSpaceOnUse" color-interpolation-filters="sRGB">
<feFlood flood-opacity="0" result="BackgroundImageFix"/>
<feColorMatrix in="SourceAlpha" type="matrix" values="0 0 0 0 0 0 0 0 0 0 0 0 0 0 0 0 0 0 127 0" result="hardAlpha"/>
<feOffset dy="15"/>
<feGaussianBlur stdDeviation="12.5"/>
<feColorMatrix type="matrix" values="0 0 0 0 0 0 0 0 0 0 0 0 0 0 0 0 0 0 0.25 0"/>
<feBlend mode="normal" in2="BackgroundImageFix" result="effect1_dropShadow"/>
<feBlend mode="normal" in="SourceGraphic" in2="effect1_dropShadow" result="shape"/>
</filter>
<linearGradient id="paint0_linear" x1="308.763" y1="317.549" x2="480.477" y2="317.477" gradientUnits="userSpaceOnUse">
<stop stop-color="#7DD3F7"/>
<stop offset="1" stop-color="#43B5E8"/>
</linearGradient>
<linearGradient id="paint1_linear" x1="477.333" y1="317.024" x2="481.363" y2="317.024" gradientUnits="userSpaceOnUse">
<stop stop-color="#71459B"/>
<stop offset="0.8668" stop-color="#A76DAE"/>
</linearGradient>
<linearGradient id="paint2_linear" x1="114.459" y1="78.7083" x2="125.444" y2="78.7083" gradientUnits="userSpaceOnUse">
<stop stop-color="#7DD3F7"/>
<stop offset="1" stop-color="#43B5E8"/>
</linearGradient>
<linearGradient id="paint3_linear" x1="118.663" y1="78.64" x2="131.292" y2="78.64" gradientUnits="userSpaceOnUse">
<stop stop-color="#7DD3F7"/>
<stop offset="1" stop-color="#43B5E8"/>
</linearGradient>
<linearGradient id="paint4_linear" x1="126.354" y1="78.6067" x2="137.003" y2="78.6067" gradientUnits="userSpaceOnUse">
<stop stop-color="#7DD3F7"/>
<stop offset="1" stop-color="#43B5E8"/>
</linearGradient>
<linearGradient id="paint5_linear" x1="114.722" y1="159.979" x2="126.105" y2="159.979" gradientUnits="userSpaceOnUse">
<stop stop-color="#7DD3F7"/>
<stop offset="1" stop-color="#43B5E8"/>
</linearGradient>
<linearGradient id="paint6_linear" x1="114.701" y1="241.984" x2="126.048" y2="241.984" gradientUnits="userSpaceOnUse">
<stop stop-color="#71459B"/>
<stop offset="0.8668" stop-color="#A76DAE"/>
</linearGradient>
<linearGradient id="paint7_linear" x1="86.5379" y1="239.654" x2="94.7666" y2="239.654" gradientUnits="userSpaceOnUse">
<stop stop-color="#7DD3F7"/>
<stop offset="1" stop-color="#43B5E8"/>
</linearGradient>
<linearGradient id="paint8_linear" x1="109.895" y1="291.072" x2="118.124" y2="291.072" gradientUnits="userSpaceOnUse">
<stop stop-color="#7DD3F7"/>
<stop offset="1" stop-color="#43B5E8"/>
</linearGradient>
<linearGradient id="paint9_linear" x1="127.234" y1="49.5516" x2="172.459" y2="49.5516" gradientUnits="userSpaceOnUse">
<stop stop-color="#7DD3F7"/>
<stop offset="1" stop-color="#43B5E8"/>
</linearGradient>
<linearGradient id="paint10_linear" x1="211.49" y1="343.808" x2="256.715" y2="343.808" gradientUnits="userSpaceOnUse">
<stop stop-color="#7DD3F7"/>
<stop offset="1" stop-color="#43B5E8"/>
</linearGradient>
<linearGradient id="paint11_linear" x1="230.335" y1="71.2894" x2="275.561" y2="71.2894" gradientUnits="userSpaceOnUse">
<stop stop-color="#7DD3F7"/>
<stop offset="1" stop-color="#43B5E8"/>
</linearGradient>
<linearGradient id="paint12_linear" x1="145.254" y1="138.422" x2="435.826" y2="138.422" gradientUnits="userSpaceOnUse">
<stop stop-color="#7DD3F7"/>
<stop offset="1" stop-color="#43B5E8"/>
</linearGradient>
<linearGradient id="paint13_linear" x1="146.694" y1="270.428" x2="285.112" y2="270.428" gradientUnits="userSpaceOnUse">
<stop stop-color="#7DD3F7"/>
<stop offset="1" stop-color="#43B5E8"/>
</linearGradient>
<linearGradient id="paint14_linear" x1="296.659" y1="270.049" x2="435.077" y2="270.049" gradientUnits="userSpaceOnUse">
<stop stop-color="#7DD3F7"/>
<stop offset="1" stop-color="#43B5E8"/>
</linearGradient>
</defs>
</svg>
