<svg width="631" height="426" viewBox="0 0 631 426" fill="none" xmlns="http://www.w3.org/2000/svg">
<g filter="url(#filter0_d)">
<path d="M493.069 341.933C493.069 343.038 492.201 343.906 491.097 343.906H152.605C151.501 343.906 150.633 343.038 150.633 341.933V114.733C150.633 113.629 151.501 112.761 152.605 112.761H491.097C492.201 112.761 493.069 113.629 493.069 114.733V341.933Z" fill="#6D6E71"/>
<path d="M488.691 337.003C488.691 338.107 487.824 338.975 486.72 338.975H156.825C155.721 338.975 154.853 338.107 154.853 337.003V119.467C154.853 118.362 155.721 117.495 156.825 117.495H486.72C487.824 117.495 488.691 118.362 488.691 119.467V337.003Z" fill="#E1F4FD"/>
<path d="M528.957 348.875L529.075 362.523L341.392 363.864L341.274 350.217L528.957 348.875Z" fill="url(#paint0_linear)"/>
<path d="M525.605 348.994L525.723 362.602L530.022 362.562L529.943 348.954L525.605 348.994Z" fill="url(#paint1_linear)"/>
<path d="M519.332 354.891L519.387 362.583L520.018 362.578L519.963 354.887L519.332 354.891Z" fill="white"/>
<path d="M507.619 355.022L507.674 362.713L508.305 362.709L508.25 355.017L507.619 355.022Z" fill="white"/>
<path d="M497.408 355.052L497.463 362.744L498.094 362.739L498.039 355.047L497.408 355.052Z" fill="white"/>
<path d="M486.005 355.13L486.06 362.822L486.691 362.817L486.636 355.126L486.005 355.13Z" fill="white"/>
<path d="M472.541 355.27L472.596 362.962L473.227 362.957L473.172 355.266L472.541 355.27Z" fill="white"/>
<path d="M457.927 355.379L457.982 363.07L458.613 363.066L458.558 355.374L457.927 355.379Z" fill="white"/>
<path d="M443.276 355.478L443.332 363.169L443.963 363.165L443.908 355.473L443.276 355.478Z" fill="white"/>
<path d="M430.688 355.572L430.743 363.263L431.374 363.259L431.319 355.567L430.688 355.572Z" fill="white"/>
<path d="M417.536 355.701L417.591 363.393L418.222 363.389L418.167 355.697L417.536 355.701Z" fill="white"/>
<path d="M404.344 355.792L404.399 363.484L405.03 363.479L404.975 355.788L404.344 355.792Z" fill="white"/>
<path d="M386.004 356.017L386.059 363.708L386.69 363.704L386.635 356.012L386.004 356.017Z" fill="white"/>
<path d="M370.44 356.014L370.495 363.706L371.126 363.701L371.071 356.009L370.44 356.014Z" fill="white"/>
<path d="M352.583 356.039L352.638 363.731L353.269 363.726L353.214 356.035L352.583 356.039Z" fill="white"/>
<path d="M134.779 106.765C138.09 106.765 140.774 101.397 140.774 94.7743C140.774 88.1518 138.09 82.7832 134.779 82.7832C131.469 82.7832 128.785 88.1518 128.785 94.7743C128.785 101.397 131.469 106.765 134.779 106.765Z" fill="url(#paint2_linear)"/>
<path d="M147.162 82.7837H133.359V106.648H147.162V82.7837Z" fill="url(#paint3_linear)"/>
<path d="M147.597 106.647C150.82 106.647 153.433 101.279 153.433 94.6561C153.433 88.0336 150.82 82.665 147.597 82.665C144.373 82.665 141.76 88.0336 141.76 94.6561C141.76 101.279 144.373 106.647 147.597 106.647Z" fill="url(#paint4_linear)"/>
<path d="M141.523 92.8813H129.061V274.681H141.523V92.8813Z" fill="url(#paint5_linear)"/>
<path d="M141.483 271.604H129.061V275.548H141.483V271.604Z" fill="url(#paint6_linear)"/>
<path d="M136.041 265.845H129.061V266.437H136.041V265.845Z" fill="white"/>
<path d="M136.041 255.195H129.061V255.787H136.041V255.195Z" fill="white"/>
<path d="M136.041 245.847H129.061V246.438H136.041V245.847Z" fill="white"/>
<path d="M136.041 235.434H129.061V236.025H136.041V235.434Z" fill="white"/>
<path d="M136.041 223.166H129.061V223.758H136.041V223.166Z" fill="white"/>
<path d="M136.041 209.874H129.061V210.465H136.041V209.874Z" fill="white"/>
<path d="M136.001 196.501H129.021V197.093H136.001V196.501Z" fill="white"/>
<path d="M136.001 185.023H129.021V185.615H136.001V185.023Z" fill="white"/>
<path d="M136.001 172.993H129.021V173.584H136.001V172.993Z" fill="white"/>
<path d="M136.001 161.001H129.021V161.593H136.001V161.001Z" fill="white"/>
<path d="M135.884 144.277H128.903V144.869H135.884V144.277Z" fill="white"/>
<path d="M136.001 130.077H129.021V130.669H136.001V130.077Z" fill="white"/>
<path d="M136.12 113.787H129.14V114.378H136.12V113.787Z" fill="white"/>
<path d="M136.12 101.243H129.14V101.835H136.12V101.243Z" fill="white"/>
<path d="M136.238 91.0669H129.258V91.6586H136.238V91.0669Z" fill="white"/>
<path d="M139.827 83.6514H132.847V84.243H139.827V83.6514Z" fill="white"/>
<path d="M557.037 298.032C557.037 301.266 554.355 303.948 551.121 303.948H513.025C509.791 303.948 507.109 301.266 507.109 298.032V245.965C507.109 242.731 509.791 240.048 513.025 240.048H551.121C554.355 240.048 557.037 242.731 557.037 245.965V298.032Z" fill="#E6E7E8"/>
<path d="M450.318 102.584C450.318 105.819 447.637 108.501 444.403 108.501H406.306C403.072 108.501 400.391 105.819 400.391 102.584V73.6715C400.391 70.4371 403.072 67.7549 406.306 67.7549H444.403C447.637 67.7549 450.318 70.4371 450.318 73.6715V102.584Z" fill="#E6E7E8"/>
<path d="M389.703 101.085C389.703 104.32 387.021 107.002 383.788 107.002H357.562C354.328 107.002 351.646 104.32 351.646 101.085V89.7253C351.646 86.4908 354.328 83.8086 357.562 83.8086H383.788C387.021 83.8086 389.703 86.4908 389.703 89.7253V101.085Z" fill="#EDEDEE"/>
<path d="M566.896 315.624C566.896 317.793 565.121 319.568 562.952 319.568H511.881C509.712 319.568 507.937 317.793 507.937 315.624V314.993C507.937 312.823 509.712 311.048 511.881 311.048H562.952C565.121 311.048 566.896 312.823 566.896 314.993V315.624Z" fill="#EDEDEE"/>
<path d="M509.002 332.782C511.485 332.782 513.498 330.875 513.498 328.522C513.498 326.169 511.485 324.262 509.002 324.262C506.519 324.262 504.506 326.169 504.506 328.522C504.506 330.875 506.519 332.782 509.002 332.782Z" fill="#EDEDEE"/>
<path d="M579.122 325.524C579.122 326.629 578.254 327.496 577.15 327.496H522.134C521.03 327.496 520.163 326.629 520.163 325.524V325.051C520.163 323.946 521.03 323.079 522.134 323.079H577.15C578.254 323.079 579.122 323.946 579.122 325.051V325.524Z" fill="#F1F2F2"/>
<path d="M106.266 90.5931C106.266 92.7626 104.491 94.5376 102.322 94.5376H60.7548C58.5857 94.5376 56.811 92.7626 56.811 90.5931V89.962C56.811 87.7926 58.5857 86.0176 60.7548 86.0176H102.322C104.491 86.0176 106.266 87.7926 106.266 89.962V90.5931Z" fill="#EDEDEE"/>
<path d="M384.695 74.9735C384.695 77.143 382.92 78.9179 380.751 78.9179H339.184C337.015 78.9179 335.24 77.143 335.24 74.9735V74.3424C335.24 72.1729 337.015 70.3979 339.184 70.3979H380.751C382.92 70.3979 384.695 72.1729 384.695 74.3424V74.9735Z" fill="#EDEDEE"/>
<path d="M567.527 226.677C567.527 228.846 565.753 230.621 563.584 230.621H522.017C519.847 230.621 518.073 228.846 518.073 226.677V226.046C518.073 223.876 519.847 222.101 522.017 222.101H563.584C565.753 222.101 567.527 223.876 567.527 226.046V226.677Z" fill="#F1F2F2"/>
<path d="M56.4959 106.963C58.9789 106.963 60.9917 105.056 60.9917 102.703C60.9917 100.35 58.9789 98.4429 56.4959 98.4429C54.0129 98.4429 52 100.35 52 102.703C52 105.056 54.0129 106.963 56.4959 106.963Z" fill="#EDEDEE"/>
<path d="M116.559 100.494C116.559 101.598 115.691 102.466 114.587 102.466H69.0368C67.9326 102.466 67.0649 101.598 67.0649 100.494V100.021C67.0649 98.9161 67.9326 98.0483 69.0368 98.0483H114.548C115.652 98.0483 116.52 98.9161 116.52 100.021V100.494H116.559Z" fill="#F1F2F2"/>
<path d="M118.098 187.193C118.098 190.427 115.416 193.109 112.182 193.109H79.7643C76.5304 193.109 73.8486 190.427 73.8486 187.193V112.603C73.8486 109.369 76.5304 106.687 79.7643 106.687H112.182C115.416 106.687 118.098 109.369 118.098 112.603V187.193Z" fill="#EDEDEE"/>
<path d="M66.1577 176.188C66.1577 178.357 64.3831 180.132 62.214 180.132H59.5717C57.4026 180.132 55.6279 178.357 55.6279 176.188V116.074C55.6279 113.905 57.4026 112.13 59.5717 112.13H62.214C64.3831 112.13 66.1577 113.905 66.1577 116.074V176.188Z" fill="#E6E7E8"/>
<path d="M244.849 54.4623C244.849 56.6317 243.074 58.4067 240.905 58.4067H199.338C197.169 58.4067 195.395 56.6317 195.395 54.4623V53.8312C195.395 51.6617 197.169 49.8867 199.338 49.8867H240.905C243.074 49.8867 244.849 51.6617 244.849 53.8312V54.4623Z" fill="#BCE6FB"/>
<path d="M296.315 98.9164C296.315 101.086 294.541 102.861 292.372 102.861H250.805C248.636 102.861 246.861 101.086 246.861 98.9164V98.2853C246.861 96.1158 248.636 94.3408 250.805 94.3408H292.372C294.541 94.3408 296.315 96.1158 296.315 98.2853V98.9164Z" fill="#DCF2FD"/>
<path d="M107.134 283.635C107.134 285.804 105.359 287.579 103.19 287.579H76.057C73.888 287.579 72.1133 285.804 72.1133 283.635V283.004C72.1133 280.834 73.888 279.059 76.057 279.059H103.19C105.359 279.059 107.134 280.834 107.134 283.004V283.635Z" fill="#BCE6FB"/>
<path d="M245.165 70.5556C247.648 70.5556 249.661 68.6484 249.661 66.2956C249.661 63.9429 247.648 62.0356 245.165 62.0356C242.682 62.0356 240.669 63.9429 240.669 66.2956C240.669 68.6484 242.682 70.5556 245.165 70.5556Z" fill="#DCF2FD"/>
<path d="M278.45 376.29C280.933 376.29 282.946 374.382 282.946 372.03C282.946 369.677 280.933 367.77 278.45 367.77C275.967 367.77 273.955 369.677 273.955 372.03C273.955 374.382 275.967 376.29 278.45 376.29Z" fill="#DCF2FD"/>
<path d="M176.78 361.577C179.263 361.577 181.276 359.669 181.276 357.317C181.276 354.964 179.263 353.057 176.78 353.057C174.297 353.057 172.284 354.964 172.284 357.317C172.284 359.669 174.297 361.577 176.78 361.577Z" fill="#DCF2FD"/>
<path d="M102.756 275.312C105.239 275.312 107.252 273.404 107.252 271.052C107.252 268.699 105.239 266.792 102.756 266.792C100.273 266.792 98.2603 268.699 98.2603 271.052C98.2603 273.404 100.273 275.312 102.756 275.312Z" fill="url(#paint7_linear)"/>
<path d="M128.272 331.599C130.755 331.599 132.768 329.691 132.768 327.339C132.768 324.986 130.755 323.079 128.272 323.079C125.789 323.079 123.776 324.986 123.776 327.339C123.776 329.691 125.789 331.599 128.272 331.599Z" fill="url(#paint8_linear)"/>
<path d="M192.2 63.1008C192.2 64.2053 191.333 65.0731 190.228 65.0731H144.717C143.613 65.0731 142.746 64.2053 142.746 63.1008V62.6275C142.746 61.5231 143.613 60.6553 144.717 60.6553H190.228C191.333 60.6553 192.2 61.5231 192.2 62.6275V63.1008Z" fill="url(#paint9_linear)"/>
<path d="M284.366 385.322C284.366 386.426 283.498 387.294 282.394 387.294H236.883C235.779 387.294 234.911 386.426 234.911 385.322V384.849C234.911 383.744 235.779 382.876 236.883 382.876H282.394C283.498 382.876 284.366 383.744 284.366 384.849V385.322Z" fill="url(#paint10_linear)"/>
<path d="M304.952 86.8855C304.952 87.9899 304.085 88.8577 302.98 88.8577H257.469C256.365 88.8577 255.498 87.9899 255.498 86.8855V86.4122C255.498 85.3077 256.365 84.4399 257.469 84.4399H302.98C304.085 84.4399 304.952 85.3077 304.952 86.4122V86.8855Z" fill="url(#paint11_linear)"/>
<path d="M122.711 282.056C122.711 284.226 120.937 286.001 118.768 286.001H116.125C113.956 286.001 112.182 284.226 112.182 282.056V249.87C112.182 247.7 113.956 245.925 116.125 245.925H118.768C120.937 245.925 122.711 247.7 122.711 249.87V282.056Z" fill="#DCF2FD"/>
<path d="M128.272 313.652C128.272 316.886 125.59 319.568 122.356 319.568H77.6344C74.4005 319.568 71.7188 316.886 71.7188 313.652V298.15C71.7188 294.916 74.4005 292.233 77.6344 292.233H122.356C125.59 292.233 128.272 294.916 128.272 298.15V313.652Z" fill="#BCE6FB"/>
<path d="M238.579 97.1413C238.579 100.376 235.897 103.058 232.663 103.058H171.456C168.222 103.058 165.541 100.376 165.541 97.1413V75.6047C165.541 72.3702 168.222 69.688 171.456 69.688H232.663C235.897 69.688 238.579 72.3702 238.579 75.6047V97.1413Z" fill="#BCE6FB"/>
<path d="M268.985 370.925C268.985 374.159 266.303 376.842 263.069 376.842H199.496C196.262 376.842 193.581 374.159 193.581 370.925V357.356C193.581 354.122 196.262 351.439 199.496 351.439H263.069C266.303 351.439 268.985 354.122 268.985 357.356V370.925Z" fill="#BCE6FB"/>
<path d="M479.029 219.734C479.029 219.734 478.634 218.906 477.846 217.683" stroke="#662D91" stroke-miterlimit="10"/>
<path d="M475.046 213.817C470.037 207.98 460.888 202.655 451.502 223.363C437.462 254.366 512.669 250.343 518.151 202.931C523.593 155.518 458.127 174.649 464.595 134.258C471.063 93.8668 510.973 111.065 509.672 124.16C508.37 137.256 483.683 130.945 466.567 105.03C453 84.5185 472.482 65.7035 481.198 58.7612" stroke="#662D91" stroke-miterlimit="10" stroke-dasharray="12.12 12.12"/>
<path d="M483.091 57.3415C484.274 56.4343 485.024 55.9609 485.024 55.9609" stroke="#662D91" stroke-miterlimit="10"/>
<path d="M482.854 57.4994C484.905 55.685 487.074 53.9889 489.243 52.3717C491.412 50.715 493.66 49.1372 495.908 47.5989C498.156 46.0606 500.444 44.5617 502.77 43.1022C505.097 41.6428 507.424 40.2622 509.869 39C507.818 40.8144 505.649 42.5106 503.48 44.1278C501.311 45.745 499.063 47.3622 496.815 48.9006C494.567 50.4389 492.28 51.9378 489.953 53.3972C487.666 54.8172 485.3 56.2372 482.854 57.4994Z" fill="#662D91"/>
<path d="M150.318 291.642C150.318 291.642 149.568 292.115 148.385 292.983" stroke="#662D91" stroke-miterlimit="10"/>
<path d="M144.796 295.901C139.157 301.069 132.019 310.377 138.486 320.712C148.346 336.49 163.016 340.631 164.002 332.821C164.988 325.011 141.365 314.085 136.83 338.146C132.61 360.787 167.276 352.938 168.104 375.421" stroke="#662D91" stroke-miterlimit="10" stroke-dasharray="11.73 11.73"/>
<path d="M168.065 377.788C168.025 378.538 167.946 379.326 167.828 380.155" stroke="#662D91" stroke-miterlimit="10"/>
<path d="M480.213 190.546C480.213 192.715 478.438 194.49 476.269 194.49H166.409C164.24 194.49 162.465 192.715 162.465 190.546V129.801C162.465 127.632 164.24 125.857 166.409 125.857H476.269C478.438 125.857 480.213 127.632 480.213 129.801V190.546Z" fill="url(#paint12_linear)"/>
<path d="M480.213 190.546C480.213 192.715 478.438 194.49 476.269 194.49H166.409C164.24 194.49 162.465 192.715 162.465 190.546V129.801C162.465 127.632 164.24 125.857 166.409 125.857H476.269C478.438 125.857 480.213 127.632 480.213 129.801V190.546Z" stroke="#939598" stroke-miterlimit="10" stroke-dasharray="16 16"/>
<path d="M315.404 321.344C315.404 323.513 313.629 325.288 311.46 325.288H167.986C165.817 325.288 164.042 323.513 164.042 321.344V288.171C164.042 286.002 165.817 284.227 167.986 284.227H311.46C313.629 284.227 315.404 286.002 315.404 288.171V321.344Z" fill="url(#paint13_linear)"/>
<path d="M315.404 321.344C315.404 323.513 313.629 325.288 311.46 325.288H167.986C165.817 325.288 164.042 323.513 164.042 321.344V288.171C164.042 286.002 165.817 284.227 167.986 284.227H311.46C313.629 284.227 315.404 286.002 315.404 288.171V321.344Z" stroke="#939598" stroke-miterlimit="10" stroke-dasharray="16 16"/>
<path d="M253.605 185.694C253.605 187.864 251.83 189.639 249.661 189.639H173.744C171.575 189.639 169.8 187.864 169.8 185.694V135.6C169.8 133.43 171.575 131.655 173.744 131.655H249.661C251.83 131.655 253.605 133.43 253.605 135.6V185.694Z" fill="white"/>
<path d="M248.084 182.065C248.084 184.234 246.309 186.009 244.14 186.009H179.029C176.86 186.009 175.085 184.234 175.085 182.065V156.702C175.085 154.533 176.86 152.758 179.029 152.758H244.14C246.309 152.758 248.084 154.533 248.084 156.702V182.065Z" fill="#E6E7E8"/>
<path d="M247.492 147.276C247.492 148.341 246.624 149.208 245.52 149.208H176.465C175.361 149.208 174.493 148.341 174.493 147.276C174.493 146.211 175.361 145.343 176.465 145.343H245.52C246.585 145.343 247.492 146.211 247.492 147.276Z" fill="#D1D3D4"/>
<path d="M247.492 139.426C247.492 140.491 246.624 141.359 245.52 141.359H176.465C175.361 141.359 174.493 140.491 174.493 139.426C174.493 138.361 175.361 137.493 176.465 137.493H245.52C246.585 137.533 247.492 138.361 247.492 139.426Z" fill="#D1D3D4"/>
<path d="M197.288 317.636C197.288 319.806 195.513 321.581 193.344 321.581H172.166C169.997 321.581 168.223 319.806 168.223 317.636V291.642C168.223 289.473 169.997 287.698 172.166 287.698H193.344C195.513 287.698 197.288 289.473 197.288 291.642V317.636Z" fill="white"/>
<path d="M233.729 317.636C233.729 319.806 231.954 321.581 229.785 321.581H208.607C206.438 321.581 204.663 319.806 204.663 317.636V291.642C204.663 289.473 206.438 287.698 208.607 287.698H229.785C231.954 287.698 233.729 289.473 233.729 291.642V317.636Z" fill="white"/>
<path d="M272.811 317.636C272.811 319.806 271.036 321.581 268.867 321.581H247.689C245.52 321.581 243.746 319.806 243.746 317.636V291.642C243.746 289.473 245.52 287.698 247.689 287.698H268.867C271.036 287.698 272.811 289.473 272.811 291.642V317.636Z" fill="white"/>
<path d="M311.145 317.636C311.145 319.806 309.37 321.581 307.201 321.581H286.023C283.854 321.581 282.079 319.806 282.079 317.636V291.642C282.079 289.473 283.854 287.698 286.023 287.698H307.201C309.37 287.698 311.145 289.473 311.145 291.642V317.636Z" fill="white"/>
<path d="M479.424 320.91C479.424 323.079 477.649 324.854 475.48 324.854H331.967C329.798 324.854 328.023 323.079 328.023 320.91V287.737C328.023 285.567 329.798 283.792 331.967 283.792H475.441C477.61 283.792 479.385 285.567 479.385 287.737V320.91H479.424Z" fill="url(#paint14_linear)"/>
<path d="M479.424 320.91C479.424 323.079 477.649 324.854 475.48 324.854H331.967C329.798 324.854 328.023 323.079 328.023 320.91V287.737C328.023 285.567 329.798 283.792 331.967 283.792H475.441C477.61 283.792 479.385 285.567 479.385 287.737V320.91H479.424Z" stroke="#939598" stroke-miterlimit="10" stroke-dasharray="16 16"/>
<path d="M361.27 317.202C361.27 319.371 359.495 321.146 357.326 321.146H336.148C333.979 321.146 332.204 319.371 332.204 317.202V291.208C332.204 289.039 333.979 287.264 336.148 287.264H357.326C359.495 287.264 361.27 289.039 361.27 291.208V317.202Z" fill="white"/>
<path d="M397.749 317.202C397.749 319.371 395.974 321.146 393.805 321.146H372.627C370.458 321.146 368.684 319.371 368.684 317.202V291.208C368.684 289.039 370.458 287.264 372.627 287.264H393.805C395.974 287.264 397.749 289.039 397.749 291.208V317.202Z" fill="white"/>
<path d="M436.832 317.202C436.832 319.371 435.057 321.146 432.888 321.146H411.71C409.541 321.146 407.766 319.371 407.766 317.202V291.208C407.766 289.039 409.541 287.264 411.71 287.264H432.888C435.057 287.264 436.832 289.039 436.832 291.208V317.202Z" fill="white"/>
<path d="M475.165 317.202C475.165 319.371 473.39 321.146 471.221 321.146H450.043C447.874 321.146 446.099 319.371 446.099 317.202V291.208C446.099 289.039 447.874 287.264 450.043 287.264H471.221C473.39 287.264 475.165 289.039 475.165 291.208V317.202Z" fill="white"/>
<path d="M361.861 186.049C361.861 188.219 360.086 189.994 357.917 189.994H282C279.831 189.994 278.056 188.219 278.056 186.049V135.955C278.056 133.785 279.831 132.01 282 132.01H357.917C360.086 132.01 361.861 133.785 361.861 135.955V186.049Z" fill="white"/>
<path d="M471.537 185.339C471.537 187.509 469.762 189.284 467.593 189.284H391.676C389.507 189.284 387.732 187.509 387.732 185.339V135.205C387.732 133.036 389.507 131.261 391.676 131.261H467.593C469.762 131.261 471.537 133.036 471.537 135.205V185.339Z" fill="white"/>
<path d="M233.847 271.289C233.847 273.458 232.072 275.233 229.903 275.233H167.986C165.817 275.233 164.042 273.458 164.042 271.289V207.546C164.042 205.377 165.817 203.602 167.986 203.602H229.903C232.072 203.602 233.847 205.377 233.847 207.546V271.289Z" fill="#A7A9AC"/>
<path d="M233.847 271.289C233.847 273.458 232.072 275.233 229.903 275.233H167.986C165.817 275.233 164.042 273.458 164.042 271.289V207.546C164.042 205.377 165.817 203.602 167.986 203.602H229.903C232.072 203.602 233.847 205.377 233.847 207.546V271.289Z" stroke="#939598" stroke-miterlimit="10" stroke-dasharray="16 16"/>
<path d="M198.353 247.859C208.808 247.859 217.283 239.382 217.283 228.926C217.283 218.469 208.808 209.992 198.353 209.992C187.898 209.992 179.423 218.469 179.423 228.926C179.423 239.382 187.898 247.859 198.353 247.859Z" fill="white"/>
<path d="M314.418 270.934C314.418 273.103 312.643 274.878 310.474 274.878H248.517C246.348 274.878 244.574 273.103 244.574 270.934V207.192C244.574 205.022 246.348 203.247 248.517 203.247H310.434C312.603 203.247 314.378 205.022 314.378 207.192V270.934H314.418Z" fill="#BCBEC0"/>
<path d="M314.418 270.934C314.418 273.103 312.643 274.878 310.474 274.878H248.517C246.348 274.878 244.574 273.103 244.574 270.934V207.192C244.574 205.022 246.348 203.247 248.517 203.247H310.434C312.603 203.247 314.378 205.022 314.378 207.192V270.934H314.418Z" stroke="#939598" stroke-miterlimit="10" stroke-dasharray="16 16"/>
<path d="M278.884 247.504C289.339 247.504 297.814 239.027 297.814 228.571C297.814 218.114 289.339 209.637 278.884 209.637C268.429 209.637 259.954 218.114 259.954 228.571C259.954 239.027 268.429 247.504 278.884 247.504Z" fill="white"/>
<path d="M397.749 270.421C397.749 272.59 395.974 274.365 393.805 274.365H331.888C329.719 274.365 327.944 272.59 327.944 270.421V206.679C327.944 204.509 329.719 202.734 331.888 202.734H393.805C395.974 202.734 397.749 204.509 397.749 206.679V270.421Z" fill="#A7A9AC"/>
<path d="M397.749 270.421C397.749 272.59 395.974 274.365 393.805 274.365H331.888C329.719 274.365 327.944 272.59 327.944 270.421V206.679C327.944 204.509 329.719 202.734 331.888 202.734H393.805C395.974 202.734 397.749 204.509 397.749 206.679V270.421Z" stroke="#939598" stroke-miterlimit="10" stroke-dasharray="16 16"/>
<path d="M362.216 246.991C372.67 246.991 381.146 238.514 381.146 228.057C381.146 217.601 372.67 209.124 362.216 209.124C351.761 209.124 343.286 217.601 343.286 228.057C343.286 238.514 351.761 246.991 362.216 246.991Z" fill="white"/>
<path d="M479.464 271.486C479.464 273.655 477.689 275.43 475.52 275.43H413.603C411.434 275.43 409.659 273.655 409.659 271.486V207.744C409.659 205.574 411.434 203.799 413.603 203.799H475.52C477.689 203.799 479.464 205.574 479.464 207.744V271.486Z" fill="#BCBEC0"/>
<path d="M479.464 271.486C479.464 273.655 477.689 275.43 475.52 275.43H413.603C411.434 275.43 409.659 273.655 409.659 271.486V207.744C409.659 205.574 411.434 203.799 413.603 203.799H475.52C477.689 203.799 479.464 205.574 479.464 207.744V271.486Z" stroke="#939598" stroke-miterlimit="10" stroke-dasharray="16 16"/>
<path d="M443.97 248.056C454.425 248.056 462.9 239.579 462.9 229.123C462.9 218.666 454.425 210.189 443.97 210.189C433.515 210.189 425.04 218.666 425.04 229.123C425.04 239.579 433.515 248.056 443.97 248.056Z" fill="white"/>
<path d="M356.418 172.677C356.418 174.847 354.644 176.622 352.474 176.622H287.363C285.194 176.622 283.419 174.847 283.419 172.677V147.315C283.419 145.145 285.194 143.37 287.363 143.37H352.474C354.644 143.37 356.418 145.145 356.418 147.315V172.677Z" fill="#E6E7E8"/>
<path d="M466.528 163.961C466.528 166.13 464.753 167.905 462.584 167.905H397.473C395.304 167.905 393.529 166.13 393.529 163.961V138.598C393.529 136.428 395.304 134.653 397.473 134.653H462.584C464.753 134.653 466.528 136.428 466.528 138.598V163.961Z" fill="#E6E7E8"/>
<path d="M356.497 138.045C356.497 139.11 355.63 139.978 354.525 139.978H285.47C284.366 139.978 283.499 139.11 283.499 138.045C283.499 136.98 284.366 136.112 285.47 136.112H354.525C355.63 136.152 356.497 137.02 356.497 138.045Z" fill="#D1D3D4"/>
<path d="M356.3 182.105C356.3 183.17 355.432 184.037 354.328 184.037H285.273C284.169 184.037 283.301 183.17 283.301 182.105C283.301 181.04 284.169 180.172 285.273 180.172H354.328C355.432 180.172 356.3 181.04 356.3 182.105Z" fill="#D1D3D4"/>
<path d="M466.883 173.901C466.883 174.966 466.015 175.833 464.911 175.833H395.856C394.752 175.833 393.884 174.966 393.884 173.901C393.884 172.836 394.752 171.968 395.856 171.968H464.911C466.015 171.968 466.883 172.836 466.883 173.901Z" fill="#D1D3D4"/>
<path d="M466.883 182.105C466.883 183.17 466.015 184.037 464.911 184.037H395.856C394.752 184.037 393.884 183.17 393.884 182.105C393.884 181.04 394.752 180.172 395.856 180.172H464.911C466.015 180.172 466.883 181.04 466.883 182.105Z" fill="#D1D3D4"/>
<path d="M228.72 253.263C228.72 254.091 228.01 254.761 227.143 254.761H171.062C170.195 254.761 169.485 254.091 169.485 253.263C169.485 252.434 170.195 251.764 171.062 251.764H227.182C228.01 251.764 228.72 252.434 228.72 253.263Z" fill="white"/>
<path d="M308.305 253.263C308.305 254.091 307.595 254.761 306.727 254.761H250.608C249.74 254.761 249.03 254.091 249.03 253.263C249.03 252.434 249.74 251.764 250.608 251.764H306.727C307.595 251.764 308.305 252.434 308.305 253.263Z" fill="white"/>
<path d="M308.108 260.165C308.108 260.993 307.398 261.664 306.53 261.664H250.411C249.543 261.664 248.833 260.993 248.833 260.165C248.833 259.337 249.543 258.666 250.411 258.666H306.53C307.398 258.627 308.108 259.297 308.108 260.165Z" fill="white"/>
<path d="M392.78 253.263C392.78 254.091 392.07 254.761 391.202 254.761H335.083C334.215 254.761 333.505 254.091 333.505 253.263C333.505 252.434 334.215 251.764 335.083 251.764H391.202C392.07 251.764 392.78 252.434 392.78 253.263Z" fill="white"/>
<path d="M392.938 260.165C392.938 260.993 392.228 261.664 391.36 261.664H335.241C334.373 261.664 333.663 260.993 333.663 260.165C333.663 259.337 334.373 258.666 335.241 258.666H391.36C392.228 258.627 392.938 259.297 392.938 260.165Z" fill="white"/>
<path d="M474.967 253.263C474.967 254.091 474.258 254.761 473.39 254.761H417.27C416.403 254.761 415.693 254.091 415.693 253.263C415.693 252.434 416.403 251.764 417.27 251.764H473.39C474.258 251.764 474.967 252.434 474.967 253.263Z" fill="white"/>
<path d="M475.322 259.968C475.322 260.796 474.613 261.467 473.745 261.467H417.625C416.758 261.467 416.048 260.796 416.048 259.968C416.048 259.14 416.758 258.469 417.625 258.469H473.745C474.613 258.469 475.322 259.14 475.322 259.968Z" fill="white"/>
<path d="M228.641 259.85C228.641 260.678 227.931 261.349 227.063 261.349H170.944C170.076 261.349 169.366 260.678 169.366 259.85C169.366 259.022 170.076 258.351 170.944 258.351H227.063C227.931 258.351 228.641 259.022 228.641 259.85Z" fill="white"/>
</g>
<defs>
<filter id="filter0_d" x="-12" y="-8" width="655" height="450" filterUnits="userSpaceOnUse" color-interpolation-filters="sRGB">
<feFlood flood-opacity="0" result="BackgroundImageFix"/>
<feColorMatrix in="SourceAlpha" type="matrix" values="0 0 0 0 0 0 0 0 0 0 0 0 0 0 0 0 0 0 127 0" result="hardAlpha"/>
<feOffset dy="4"/>
<feGaussianBlur stdDeviation="6"/>
<feColorMatrix type="matrix" values="0 0 0 0 0 0 0 0 0 0 0 0 0 0 0 0 0 0 0.3 0"/>
<feBlend mode="normal" in2="BackgroundImageFix" result="effect1_dropShadow"/>
<feBlend mode="normal" in="SourceGraphic" in2="effect1_dropShadow" result="shape"/>
</filter>
<linearGradient id="paint0_linear" x1="341.269" y1="356.341" x2="529.053" y2="356.263" gradientUnits="userSpaceOnUse">
<stop stop-color="#7DD3F7"/>
<stop offset="1" stop-color="#43B5E8"/>
</linearGradient>
<linearGradient id="paint1_linear" x1="525.616" y1="355.767" x2="530.024" y2="355.767" gradientUnits="userSpaceOnUse">
<stop stop-color="#71459B"/>
<stop offset="0.8668" stop-color="#A76DAE"/>
</linearGradient>
<linearGradient id="paint2_linear" x1="128.782" y1="94.7827" x2="140.795" y2="94.7827" gradientUnits="userSpaceOnUse">
<stop stop-color="#7DD3F7"/>
<stop offset="1" stop-color="#43B5E8"/>
</linearGradient>
<linearGradient id="paint3_linear" x1="133.378" y1="94.7084" x2="147.189" y2="94.7084" gradientUnits="userSpaceOnUse">
<stop stop-color="#7DD3F7"/>
<stop offset="1" stop-color="#43B5E8"/>
</linearGradient>
<linearGradient id="paint4_linear" x1="141.79" y1="94.672" x2="153.435" y2="94.672" gradientUnits="userSpaceOnUse">
<stop stop-color="#7DD3F7"/>
<stop offset="1" stop-color="#43B5E8"/>
</linearGradient>
<linearGradient id="paint5_linear" x1="129.069" y1="183.784" x2="141.518" y2="183.784" gradientUnits="userSpaceOnUse">
<stop stop-color="#7DD3F7"/>
<stop offset="1" stop-color="#43B5E8"/>
</linearGradient>
<linearGradient id="paint6_linear" x1="129.045" y1="273.589" x2="141.455" y2="273.589" gradientUnits="userSpaceOnUse">
<stop stop-color="#71459B"/>
<stop offset="0.8668" stop-color="#A76DAE"/>
</linearGradient>
<linearGradient id="paint7_linear" x1="98.2472" y1="271.037" x2="107.246" y2="271.037" gradientUnits="userSpaceOnUse">
<stop stop-color="#7DD3F7"/>
<stop offset="1" stop-color="#43B5E8"/>
</linearGradient>
<linearGradient id="paint8_linear" x1="123.79" y1="327.346" x2="132.789" y2="327.346" gradientUnits="userSpaceOnUse">
<stop stop-color="#7DD3F7"/>
<stop offset="1" stop-color="#43B5E8"/>
</linearGradient>
<linearGradient id="paint9_linear" x1="142.751" y1="62.8534" x2="192.209" y2="62.8534" gradientUnits="userSpaceOnUse">
<stop stop-color="#7DD3F7"/>
<stop offset="1" stop-color="#43B5E8"/>
</linearGradient>
<linearGradient id="paint10_linear" x1="234.893" y1="385.098" x2="284.351" y2="385.098" gradientUnits="userSpaceOnUse">
<stop stop-color="#7DD3F7"/>
<stop offset="1" stop-color="#43B5E8"/>
</linearGradient>
<linearGradient id="paint11_linear" x1="255.502" y1="86.6589" x2="304.96" y2="86.6589" gradientUnits="userSpaceOnUse">
<stop stop-color="#7DD3F7"/>
<stop offset="1" stop-color="#43B5E8"/>
</linearGradient>
<linearGradient id="paint12_linear" x1="162.458" y1="160.177" x2="480.225" y2="160.177" gradientUnits="userSpaceOnUse">
<stop stop-color="#7DD3F7"/>
<stop offset="1" stop-color="#43B5E8"/>
</linearGradient>
<linearGradient id="paint13_linear" x1="164.034" y1="304.739" x2="315.406" y2="304.739" gradientUnits="userSpaceOnUse">
<stop stop-color="#7DD3F7"/>
<stop offset="1" stop-color="#43B5E8"/>
</linearGradient>
<linearGradient id="paint14_linear" x1="328.033" y1="304.324" x2="479.405" y2="304.324" gradientUnits="userSpaceOnUse">
<stop stop-color="#7DD3F7"/>
<stop offset="1" stop-color="#43B5E8"/>
</linearGradient>
</defs>
</svg>
