<svg width="144" height="144" viewBox="0 0 144 144" fill="none" xmlns="http://www.w3.org/2000/svg">
<rect width="144" height="144" fill="white"/>
<path d="M96.7284 74.3525C86.3312 74.3525 77.9041 82.7795 77.9041 93.1749C77.9041 103.571 86.3312 112 96.7284 112C107.124 112 115.551 103.571 115.551 93.1749C115.551 82.7795 107.124 74.3525 96.7284 74.3525V74.3525ZM47.8233 74.3534C37.4279 74.3543 29 82.7795 29 93.1758C29 103.571 37.4279 111.999 47.8233 111.999C58.2196 111.999 66.6475 103.571 66.6475 93.1758C66.6475 82.7795 58.2196 74.3534 47.8224 74.3534H47.8233ZM91.0987 50.8233C91.0987 61.2187 82.6717 69.6484 72.2763 69.6484C61.8791 69.6484 53.4521 61.2187 53.4521 50.8233C53.4521 40.4279 61.8791 32 72.2763 32C82.6717 32 91.0978 40.4279 91.0978 50.8233H91.0987Z" fill="url(#paint0_radial)"/>
<defs>
<radialGradient id="paint0_radial" cx="0" cy="0" r="1" gradientUnits="userSpaceOnUse" gradientTransform="translate(72.2754 75.7216) scale(57.3511 53.0104)">
<stop stop-color="#FFB900"/>
<stop offset="0.6" stop-color="#F95D8F"/>
<stop offset="0.9991" stop-color="#F95353"/>
</radialGradient>
</defs>
</svg>
