<svg width="144" height="144" viewBox="0 0 144 144" fill="none" xmlns="http://www.w3.org/2000/svg">
<rect width="144" height="144" fill="#1856ED"/>
<path fill-rule="evenodd" clip-rule="evenodd" d="M83.5129 64.7418C84.2225 66.8705 86.2093 68.1477 88.4799 68.1477C89.0475 68.1477 89.6152 68.0058 90.1828 67.8638C92.8792 66.8705 94.2983 63.8903 93.3049 61.1939C91.602 56.5108 88.0542 52.821 83.0872 50.5504C80.5327 49.4151 77.4107 50.5504 76.1334 53.1049C74.9981 55.6593 76.1334 58.7814 78.6879 60.0586C81.2423 61.1939 82.8034 62.755 83.5129 64.7418Z" fill="#FF9E1A"/>
<path fill-rule="evenodd" clip-rule="evenodd" d="M81.8123 32.1026C78.974 31.535 76.2777 33.3798 75.71 36.2181C75.1424 39.0564 76.9873 41.7527 79.8255 42.3204C91.6043 44.591 99.5515 52.5381 101.538 64.0331C101.964 66.5875 104.235 68.2905 106.647 68.2905C106.931 68.2905 107.215 68.2905 107.499 68.1486C110.337 67.5809 112.182 64.8846 111.756 62.1882C109.06 46.5778 97.8485 35.2247 81.8123 32.1026Z" fill="#FF9E1A"/>
<path fill-rule="evenodd" clip-rule="evenodd" d="M68.614 84.043C63.9309 84.043 59.9573 80.2114 59.9573 75.3863C59.9573 70.7032 63.789 66.7296 68.614 66.7296C71.4523 66.7296 73.8648 64.459 73.8648 61.4788C73.8648 58.4986 71.5942 56.228 68.614 56.228C58.1125 56.228 49.5977 64.7428 49.5977 75.2444C49.5977 85.746 58.1125 94.2608 68.614 94.2608C79.1156 94.2608 87.6304 85.746 87.6304 75.2444C87.6304 72.4061 85.3598 69.9936 82.3796 69.9936C79.5414 69.9936 77.1288 72.2642 77.1288 75.2444C77.2707 80.2114 73.2972 84.043 68.614 84.043Z" fill="white"/>
<path fill-rule="evenodd" clip-rule="evenodd" d="M99.9765 70.2777C97.1382 70.2777 94.7257 72.5483 94.7257 75.5285C94.7257 90.0036 82.9469 101.782 68.4717 101.782C53.9966 101.782 42.2178 90.0036 42.2178 75.5285C42.2178 61.0533 53.9966 49.2745 68.4717 49.2745C71.31 49.2745 73.7225 47.0039 73.7225 44.0237C73.7225 41.1855 71.4519 38.7729 68.4717 38.7729C48.4619 38.7729 32 55.2349 32 75.3866C32 95.5382 48.4619 112 68.6136 112C88.7653 112 105.227 95.5382 105.227 75.3866C105.227 72.5483 102.957 70.2777 99.9765 70.2777Z" fill="white"/>
</svg>
