<svg width="65" height="65" viewBox="0 0 65 65" fill="none" xmlns="http://www.w3.org/2000/svg">
<path d="M56.9 4H7.5V39.3H56.9V4Z" stroke="#00BFF2" stroke-width="2" stroke-miterlimit="10" stroke-linecap="round" stroke-linejoin="round"/>
<path d="M7.5 9.90002H56.9H7.5Z" stroke="#00BFF2" stroke-width="2" stroke-miterlimit="10" stroke-linecap="round" stroke-linejoin="round"/>
<path d="M23.9004 6.90002H53.3004H23.9004Z" stroke="#00BFF2" stroke-width="2" stroke-miterlimit="10" stroke-linecap="round" stroke-linejoin="round"/>
<path d="M36.5996 16.6H47.5996H36.5996Z" stroke="#00BFF2" stroke-width="2" stroke-miterlimit="10" stroke-linecap="round" stroke-linejoin="round"/>
<path d="M38.5996 26.8H51.3996H38.5996Z" stroke="#00BFF2" stroke-width="2" stroke-miterlimit="10" stroke-linecap="round" stroke-linejoin="round"/>
<path d="M38.5996 23.4H45.3996H38.5996Z" stroke="#00BFF2" stroke-width="2" stroke-miterlimit="10" stroke-linecap="round" stroke-linejoin="round"/>
<path d="M28.0996 23.4H19.0996H28.0996Z" stroke="#00BFF2" stroke-width="2" stroke-miterlimit="10" stroke-linecap="round" stroke-linejoin="round"/>
<path d="M29.9996 26.8H19.0996H29.9996Z" stroke="#00BFF2" stroke-width="2" stroke-miterlimit="10" stroke-linecap="round" stroke-linejoin="round"/>
<path d="M23.8998 29.8H13.2998H23.8998Z" stroke="#00BFF2" stroke-width="2" stroke-miterlimit="10" stroke-linecap="round" stroke-linejoin="round"/>
<path d="M19.0996 33.3H29.9996H19.0996Z" stroke="#00BFF2" stroke-width="2" stroke-miterlimit="10" stroke-linecap="round" stroke-linejoin="round"/>
<path d="M21.7004 12.2L17.4004 20L21.7004 12.2Z" stroke="#00BFF2" stroke-width="2" stroke-miterlimit="10" stroke-linecap="round" stroke-linejoin="round"/>
<path d="M46.6996 29.8L43.0996 36.4L46.6996 29.8Z" stroke="#00BFF2" stroke-width="2" stroke-miterlimit="10" stroke-linecap="round" stroke-linejoin="round"/>
<path d="M15.0004 13.9L10.9004 16.6L15.0004 19.1" stroke="#00BFF2" stroke-width="2" stroke-miterlimit="10" stroke-linecap="round" stroke-linejoin="round"/>
<path d="M23.8996 13.9L28.0996 16.6L23.5996 19.5" stroke="#00BFF2" stroke-width="2" stroke-miterlimit="10" stroke-linecap="round" stroke-linejoin="round"/>
<path d="M40.9996 30.5L36.5996 33.3L40.9996 35.8" stroke="#00BFF2" stroke-width="2" stroke-miterlimit="10" stroke-linecap="round" stroke-linejoin="round"/>
<path d="M49.7998 30.5L53.8998 33.3L49.7998 36.4" stroke="#00BFF2" stroke-width="2" stroke-miterlimit="10" stroke-linecap="round" stroke-linejoin="round"/>
<path d="M7.5 13.9H4V49.8L61 49.4L60.5 13.9H56.9" stroke="#00BFF2" stroke-width="2" stroke-miterlimit="10" stroke-linecap="round" stroke-linejoin="round"/>
<path d="M4 43.3H61H4Z" stroke="#00BFF2" stroke-width="2" stroke-miterlimit="10" stroke-linecap="round" stroke-linejoin="round"/>
<path d="M33.8 46.2H30.5" stroke="#00BFF2" stroke-width="2" stroke-miterlimit="10" stroke-linecap="round" stroke-linejoin="round"/>
<path d="M35.2002 23.7H33.2002" stroke="#00BFF2" stroke-width="2" stroke-miterlimit="10" stroke-linecap="round" stroke-linejoin="round"/>
<path d="M35.0996 26.8H33.0996" stroke="#00BFF2" stroke-width="2" stroke-miterlimit="10" stroke-linecap="round" stroke-linejoin="round"/>
<path d="M50.9004 23.7H48.9004" stroke="#00BFF2" stroke-width="2" stroke-miterlimit="10" stroke-linecap="round" stroke-linejoin="round"/>
<path d="M15.7002 26.8H13.7002" stroke="#00BFF2" stroke-width="2" stroke-miterlimit="10" stroke-linecap="round" stroke-linejoin="round"/>
<path d="M15.7002 33.4H13.7002" stroke="#00BFF2" stroke-width="2" stroke-miterlimit="10" stroke-linecap="round" stroke-linejoin="round"/>
<path d="M12.4004 7H11.9004" stroke="#00BFF2" stroke-width="2" stroke-miterlimit="10" stroke-linecap="round" stroke-linejoin="round"/>
<path d="M20.2998 7H19.7998" stroke="#00BFF2" stroke-width="2" stroke-miterlimit="10" stroke-linecap="round" stroke-linejoin="round"/>
<path d="M16.2998 7H15.7998" stroke="#00BFF2" stroke-width="2" stroke-miterlimit="10" stroke-linecap="round" stroke-linejoin="round"/>
<path d="M26.2998 49.8V54.9H38.5998V49.6" stroke="#00BFF2" stroke-width="2" stroke-miterlimit="10" stroke-linecap="round" stroke-linejoin="round"/>
<path d="M45.7996 54.9H18.5996V61.2H45.7996V54.9Z" stroke="#00BFF2" stroke-width="2" stroke-miterlimit="10" stroke-linecap="round" stroke-linejoin="round"/>
</svg>
