<svg width="144" height="144" viewBox="0 0 144 144" fill="none" xmlns="http://www.w3.org/2000/svg">
<rect width="144" height="144" fill="white"/>
<path d="M33.1364 105.517H47.4545V70.7442L27 55.4033V99.3806C27 102.776 29.7511 105.517 33.1364 105.517Z" fill="#4285F4"/>
<path d="M96.5469 105.517H110.865C114.261 105.517 117.001 102.766 117.001 99.3806V55.4033L96.5469 70.7442" fill="#34A853"/>
<path d="M96.5469 44.1538V70.7447L117.001 55.4038V47.222C117.001 39.6333 108.339 35.3072 102.274 39.8583" fill="#FBBC04"/>
<path d="M47.4551 70.7442V44.1533L72.0005 62.5624L96.546 44.1533V70.7442L72.0005 89.1533" fill="#EA4335"/>
<path d="M27 47.222V55.4038L47.4545 70.7447V44.1538L41.7273 39.8583C35.6523 35.3072 27 39.6333 27 47.222" fill="#C5221F"/>
</svg>
