<svg width="144" height="144" viewBox="0 0 144 144" fill="none" xmlns="http://www.w3.org/2000/svg">
<rect width="144" height="144" fill="white"/>
<path d="M107.626 52.0322H33.7805C32.0259 52.0322 30.6035 53.4546 30.6035 55.2092V108.823C30.6035 110.577 32.0259 112 33.7805 112H107.626C109.38 112 110.802 110.577 110.802 108.823V55.2092C110.802 53.4546 109.38 52.0322 107.626 52.0322Z" fill="#4989F5"/>
<path d="M106.699 51.582H34.6188C32.3859 51.582 30.6484 68.8623 30.6484 71.0951L70.1217 112H106.699C108.938 111.994 110.753 110.18 110.759 107.94V55.6411C110.752 53.4017 108.938 51.5881 106.699 51.582V51.582Z" fill="url(#paint0_linear)"/>
<path d="M48.916 62.0752H71.83V32.001H52.3471L48.916 62.0752Z" fill="#3C4BA6"/>
<path d="M94.7441 62.0752H71.8301V32.001H91.313L94.7441 62.0752ZM110.803 37.7019L110.831 37.8044C110.824 37.7682 110.811 37.7346 110.803 37.7019Z" fill="#7BABF7"/>
<path d="M110.833 37.8034L110.804 37.7009C110.078 34.3744 107.133 32.0022 103.728 32H91.3145L94.7429 62.075H117.657L110.833 37.8034Z" fill="#3F51B5"/>
<path d="M32.8585 37.7012L32.8301 37.8037C32.837 37.7675 32.8508 37.7339 32.8585 37.7012Z" fill="#7BABF7"/>
<path d="M32.8285 37.8034L32.857 37.7009C33.5834 34.3744 36.5278 32.0022 39.9327 32H52.3476L48.914 62.075H26L32.8285 37.8034Z" fill="#7BABF7"/>
<path fill-rule="evenodd" clip-rule="evenodd" d="M48.9558 62.0674C48.9558 68.3913 43.8291 73.5179 37.5052 73.5179C31.1813 73.5179 26.0547 68.3913 26.0547 62.0674H48.9558Z" fill="#709BE0"/>
<path fill-rule="evenodd" clip-rule="evenodd" d="M71.8562 62.0674C71.8562 68.3913 66.7295 73.5179 60.4056 73.5179C54.0817 73.5179 48.9551 68.3913 48.9551 62.0674H71.8562Z" fill="#3C4BA6"/>
<path fill-rule="evenodd" clip-rule="evenodd" d="M94.7565 62.0674C94.7565 68.3913 89.6299 73.5179 83.306 73.5179C76.9821 73.5179 71.8555 68.3913 71.8555 62.0674H94.7565Z" fill="#709BE0"/>
<path fill-rule="evenodd" clip-rule="evenodd" d="M117.657 62.0674C117.657 68.3913 112.53 73.5179 106.206 73.5179C99.8825 73.5179 94.7559 68.3913 94.7559 62.0674H117.657Z" fill="#3C4BA6"/>
<path d="M106.205 93.0899C106.165 92.5446 106.098 92.0467 106.002 91.411H93.5114C93.5114 93.158 93.5114 95.0643 93.5045 96.8122H100.74C100.587 97.6267 100.274 98.4029 99.819 99.0961C99.3644 99.7892 98.7774 100.386 98.0916 100.851C98.0916 100.851 98.0916 100.821 98.0864 100.82C97.2007 101.402 96.203 101.791 95.1575 101.964C94.1094 102.155 93.0348 102.151 91.9884 101.95C90.9258 101.73 89.9198 101.294 89.0328 100.669C87.7236 99.7404 86.7137 98.45 86.1272 96.956C86.0824 96.8397 86.0411 96.7226 85.9988 96.6037V96.5908L86.01 96.5822C85.4407 94.9113 85.4392 93.0992 86.0057 91.4274C86.4048 90.2546 87.0615 89.1861 87.9276 88.3004C89.9594 86.1986 92.9953 85.408 95.7941 86.2519C96.8674 86.5811 97.848 87.1583 98.6567 87.9369L101.098 85.4956C101.529 85.0606 101.976 84.6393 102.39 84.1897C101.152 83.035 99.6993 82.1352 98.114 81.5416C95.2289 80.4955 92.0727 80.4678 89.1698 81.4632C89.0687 81.4977 88.9682 81.5336 88.8683 81.5709C85.7364 82.7483 83.1599 85.0573 81.6478 88.042C81.1138 89.0984 80.7249 90.2221 80.4917 91.3826C79.109 98.2544 83.302 105.018 90.0717 106.837C92.2847 107.429 94.6372 107.415 96.8675 106.908C98.8938 106.451 100.767 105.477 102.307 104.082C103.912 102.604 105.063 100.636 105.666 98.5454C106.17 96.7737 106.353 94.926 106.205 93.0899Z" fill="white"/>
<defs>
<linearGradient id="paint0_linear" x1="30.6484" y1="81.7904" x2="110.758" y2="81.7904" gradientUnits="userSpaceOnUse">
<stop offset="0.03" stop-color="#4079D8"/>
<stop offset="1" stop-color="#4989F5"/>
</linearGradient>
</defs>
</svg>
