<svg width="144" height="144" viewBox="0 0 144 144" fill="none" xmlns="http://www.w3.org/2000/svg">
<rect width="144" height="144" fill="#FF7A59"/>
<path d="M105.374 69.9982C103.592 66.9562 101.049 64.4302 97.9957 62.6683C95.6643 61.3134 93.2536 60.4529 90.5316 60.0806V50.3338C91.8516 49.7868 92.9772 48.8564 93.7628 47.6628C94.5483 46.4693 94.9577 45.0674 94.9381 43.6387C94.9429 42.6738 94.757 41.7176 94.3911 40.8248C94.0252 39.932 93.4865 39.1203 92.806 38.4363C92.1254 37.7524 91.3164 37.2096 90.4254 36.8393C89.5345 36.4689 88.5791 36.2783 87.6143 36.2783C85.6599 36.2783 83.7853 37.053 82.401 38.4326C81.0168 39.8123 80.2359 41.6844 80.2295 43.6387C80.2295 46.6292 81.8163 49.1803 84.5444 50.3338V60.0256C82.2845 60.3527 80.092 61.0409 78.0507 62.0641L51.9597 42.3082C52.1428 41.6186 52.3015 40.9045 52.3015 40.1538C52.3015 35.6497 48.6518 32 44.1477 32C39.6436 32 36 35.6497 36 40.1538C36 44.6579 39.6497 48.3076 44.1538 48.3076C45.6918 48.3076 47.1138 47.856 48.3406 47.1175L50.0494 48.4114L73.455 65.2865C72.216 66.4217 71.0626 67.7156 70.141 69.1681C68.2734 72.1282 67.1321 75.3811 67.1321 78.9332V79.6656C67.1404 82.0744 67.5743 84.4629 68.4138 86.7208C69.1218 88.6494 70.1593 90.4071 71.4471 91.9939L63.6716 99.7876C61.3708 98.9332 58.7891 99.5008 57.0497 101.24C55.8657 102.418 55.2005 104.023 55.2066 105.695C55.2127 107.368 55.8657 108.961 57.0558 110.151C58.246 111.341 59.8389 112 61.5111 112C63.1834 112 64.7885 111.341 65.9664 110.151C67.1443 108.961 67.8157 107.368 67.8096 105.695C67.8091 105.054 67.7103 104.415 67.5166 103.803L75.5484 95.7717C76.6469 96.5346 77.837 97.1755 79.1187 97.7247C81.7529 98.8801 84.5975 99.4785 87.4739 99.4825H88.0232C91.3921 99.4825 94.5719 98.689 97.5563 97.0717C100.624 95.4267 103.201 92.9988 105.027 90.0348C106.9 87.0442 107.926 83.7302 107.926 80.0867V79.9036C107.926 76.321 107.096 73.0192 105.362 69.9921L105.374 69.9982ZM95.5667 86.8551C93.3879 89.278 90.8795 90.7733 88.0476 90.7733H87.5105C85.8932 90.7733 84.3064 90.3277 82.7623 89.5099C81.0692 88.6295 79.6347 87.3233 78.5999 85.7199C77.477 84.133 76.8666 82.3998 76.8666 80.5627V80.0134C76.8666 78.2069 77.2145 76.4919 78.0873 74.8746C79.0211 73.0436 80.2844 71.7315 81.9628 70.639C83.6411 69.5465 85.3683 69.0217 87.3335 69.0217H87.5166C89.2865 69.0217 90.9771 69.3695 92.5639 70.1813C94.1715 71.0267 95.5368 72.2681 96.531 73.7882C97.5152 75.3126 98.1238 77.0486 98.307 78.8538L98.3497 79.9951C98.3497 82.4791 97.3976 84.78 95.4995 86.8673L95.5667 86.8551Z" fill="white"/>
</svg>
