<svg width="144" height="144" viewBox="0 0 144 144" fill="none" xmlns="http://www.w3.org/2000/svg">
<rect width="144" height="144" fill="url(#paint0_radial)"/>
<path d="M45.8077 34.098C43.173 35.1226 40.9449 36.4887 38.7168 38.7168C36.4887 40.9286 35.1226 43.173 34.098 45.7914C33.1059 48.3285 32.4391 51.2397 32.244 55.5007C32.0488 59.7617 32 61.1279 32 71.9919C32 82.8559 32.0488 84.222 32.244 88.483C32.4391 92.7441 33.1222 95.6552 34.098 98.1923C35.1226 100.827 36.4887 103.055 38.7168 105.283C40.9449 107.511 43.173 108.877 45.8077 109.902C48.3448 110.894 51.2559 111.561 55.517 111.756C59.778 111.951 61.1441 112 72.0081 112C82.8721 112 84.2383 111.951 88.4993 111.756C92.7603 111.561 95.6715 110.878 98.2086 109.902C100.843 108.877 103.071 107.511 105.299 105.283C107.528 103.055 108.894 100.827 109.918 98.1923C110.91 95.6552 111.577 92.7441 111.772 88.483C111.967 84.222 112.016 82.8559 112.016 71.9919C112.016 61.1279 111.967 59.7617 111.772 55.5007C111.577 51.2397 110.894 48.3285 109.918 45.7914C108.894 43.173 107.528 40.9286 105.316 38.7168C103.088 36.4887 100.86 35.1226 98.2248 34.098C95.6877 33.1059 92.7766 32.4391 88.5155 32.244C84.2545 32.0488 82.8884 32 72.0244 32C61.1604 32 59.7943 32.0488 55.5332 32.244C51.2559 32.4229 48.3448 33.1059 45.8077 34.098ZM88.174 39.4324C92.0772 39.6113 94.1915 40.2618 95.6064 40.8148C97.4767 41.5467 98.8103 42.4086 100.209 43.8073C101.608 45.2059 102.47 46.5395 103.201 48.4098C103.754 49.8248 104.405 51.939 104.584 55.8422C104.779 60.0545 104.812 61.323 104.812 72.0081C104.812 82.6932 104.763 83.9618 104.584 88.174C104.405 92.0773 103.754 94.1915 103.201 95.6064C102.47 97.4767 101.608 98.8103 100.209 100.209C98.8103 101.608 97.4767 102.47 95.6064 103.201C94.1915 103.754 92.0772 104.405 88.174 104.584C83.9618 104.779 82.6932 104.812 72.0081 104.812C61.323 104.812 60.0545 104.763 55.8422 104.584C51.939 104.405 49.8248 103.754 48.4098 103.201C46.5395 102.47 45.2059 101.608 43.8073 100.209C42.4086 98.8103 41.5467 97.4767 40.8148 95.6064C40.2618 94.1915 39.6113 92.0773 39.4324 88.174C39.2372 83.9618 39.2047 82.6932 39.2047 72.0081C39.2047 61.323 39.2535 60.0545 39.4324 55.8422C39.6113 51.939 40.2618 49.8248 40.8148 48.4098C41.5467 46.5395 42.4086 45.2059 43.8073 43.8073C45.2059 42.4086 46.5395 41.5467 48.4098 40.8148C49.8248 40.2618 51.939 39.6113 55.8422 39.4324C60.0545 39.2372 61.323 39.2047 72.0081 39.2047C82.6932 39.2047 83.9618 39.2372 88.174 39.4324Z" fill="white"/>
<path d="M51.4668 72.0085C51.4668 83.3604 60.6719 92.5493 72.0076 92.5493C83.3432 92.5493 92.5483 83.3442 92.5483 72.0085C92.5483 60.6729 83.3595 51.4678 72.0076 51.4678C60.6557 51.4678 51.4668 60.6566 51.4668 72.0085ZM85.3436 72.0085C85.3436 79.3759 79.3749 85.3446 72.0076 85.3446C64.6402 85.3446 58.6715 79.3759 58.6715 72.0085C58.6715 64.6412 64.6402 58.6725 72.0076 58.6725C79.3749 58.6725 85.3436 64.6412 85.3436 72.0085Z" fill="white"/>
<path d="M93.3778 55.4519C96.0275 55.4519 98.1755 53.3039 98.1755 50.6542C98.1755 48.0045 96.0275 45.8564 93.3778 45.8564C90.7281 45.8564 88.5801 48.0045 88.5801 50.6542C88.5801 53.3039 90.7281 55.4519 93.3778 55.4519Z" fill="white"/>
<defs>
<radialGradient id="paint0_radial" cx="0" cy="0" r="1" gradientUnits="userSpaceOnUse" gradientTransform="translate(2.62009 130.816) rotate(-3.0007) scale(208.19 176.995)">
<stop stop-color="#FED576"/>
<stop offset="0.2634" stop-color="#F47133"/>
<stop offset="0.6091" stop-color="#BC3081"/>
<stop offset="1" stop-color="#4C63D2"/>
</radialGradient>
</defs>
</svg>
