<svg width="144" height="144" viewBox="0 0 144 144" fill="none" xmlns="http://www.w3.org/2000/svg">
<rect width="144" height="144" fill="#208DEC"/>
<g clip-path="url(#clip0)">
<rect width="75" height="75" transform="translate(35 34)" fill="white"/>
<path d="M105.522 27.2832H38.3581C32.2014 27.2832 27.1641 32.3205 27.1641 38.4772V105.641C27.1641 111.798 32.2014 116.835 38.3581 116.835H105.522C111.679 116.835 116.716 111.798 116.716 105.641V38.4772C116.716 32.3205 111.679 27.2832 105.522 27.2832ZM83.9738 43.7944C83.9738 42.1153 85.373 40.716 87.0521 40.716C88.7312 40.716 90.1305 42.1153 90.1305 43.7944V83.5332C90.1305 85.2123 88.7312 86.6116 87.0521 86.6116C85.373 86.6116 83.9738 85.2123 83.9738 83.5332V43.7944ZM68.8618 42.1153C68.8618 40.4362 70.2611 39.0369 71.9402 39.0369C73.6193 39.0369 75.0185 40.4362 75.0185 42.1153V85.4922C75.0185 87.1713 73.6193 88.5705 71.9402 88.5705C70.2611 88.5705 68.8618 87.1713 68.8618 85.4922V42.1153ZM54.0297 43.7944C54.0297 42.1153 55.429 40.716 57.1081 40.716C58.7872 40.716 60.1865 42.1153 60.1865 43.7944V83.5332C60.1865 85.2123 58.7872 86.6116 57.1081 86.6116C55.429 86.6116 54.0297 85.2123 54.0297 83.5332V43.7944ZM39.1976 49.6713C39.1976 47.9922 40.5969 46.5929 42.276 46.5929C43.9551 46.5929 45.0745 47.9922 45.0745 49.6713V76.5369C45.0745 78.216 43.6753 79.6153 41.9962 79.6153C40.317 79.6153 38.9178 78.216 38.9178 76.5369V49.6713H39.1976ZM103.843 95.2869C103.283 95.5668 92.3693 105.082 71.9402 105.082C51.5111 105.082 40.5969 95.5668 40.0372 95.2869C38.9178 94.1675 38.6379 92.2086 39.7573 91.0892C40.8768 89.9698 42.8357 89.6899 43.9551 90.8093C44.235 91.0892 54.0297 98.925 71.9402 98.925C90.1305 98.925 99.6454 90.8093 99.9253 90.8093C101.045 89.6899 103.004 89.9698 104.123 91.0892C105.242 92.2086 104.963 94.1675 103.843 95.2869ZM104.683 76.5369C104.683 78.216 103.283 79.6153 101.604 79.6153C99.9253 79.6153 98.526 78.216 98.526 76.5369V49.6713C98.526 47.9922 99.9253 46.5929 101.604 46.5929C103.283 46.5929 104.683 47.9922 104.683 49.6713V76.5369Z" fill="#208DEC"/>
</g>
<defs>
<clipPath id="clip0">
<rect width="75" height="75" fill="white" transform="translate(35 34)"/>
</clipPath>
</defs>
</svg>
