<svg width="144" height="144" viewBox="0 0 144 144" fill="none" xmlns="http://www.w3.org/2000/svg">
<rect width="144" height="144" fill="#36A635"/>
<path d="M97.8212 103.733L90.6734 111.136C89.6523 112.412 88.1207 112.157 86.8443 111.136L61.5719 85.3528V109.349C61.5719 110.881 60.5508 111.902 58.7638 111.902H48.5528C47.0211 111.902 46 110.881 46 109.349V34.5528C46 33.0211 47.0211 32 48.5528 32H58.7638C60.5508 32 61.5719 33.0211 61.5719 34.5528V59.0593H96.0342C97.5659 59.0593 98.587 60.0804 98.587 61.6121V72.0785C98.587 73.6101 97.5659 74.6312 96.0342 74.6312H72.5488L97.8212 100.159C98.8423 101.18 98.8423 102.456 97.8212 103.733V103.733Z" fill="white"/>
</svg>
