<svg width="144" height="144" viewBox="0 0 144 144" fill="none" xmlns="http://www.w3.org/2000/svg">
<rect width="144" height="144" fill="#0072C6"/>
<path d="M81.5176 48.9614V64.6099L86.9861 68.0533C87.1304 68.0953 87.4428 68.0983 87.5871 68.0533L111.123 52.1855C111.123 50.3075 109.371 48.9614 108.383 48.9614H81.5176Z" fill="white"/>
<path d="M81.5167 70.4479L86.5075 73.8763C87.2106 74.3931 88.0579 73.8763 88.0579 73.8763C87.2136 74.3931 111.125 58.5103 111.125 58.5103V87.2712C111.125 90.4021 109.121 91.7151 106.867 91.7151H81.5137V70.4479H81.5167Z" fill="white"/>
<path d="M55.6778 63.2339C53.9772 63.2339 52.6221 64.0331 51.6215 65.6286C50.6209 67.2241 50.1191 69.3364 50.1191 71.9655C50.1191 74.6337 50.6209 76.743 51.6215 78.2934C52.6221 79.8468 53.9351 80.619 55.5576 80.619C57.2313 80.619 58.5593 79.8649 59.5389 78.3565C60.5184 76.8482 61.0112 74.7539 61.0112 72.0767C61.0112 69.2853 60.5364 67.1129 59.5839 65.5595C58.6314 64.0091 57.3304 63.2339 55.6778 63.2339Z" fill="white"/>
<path d="M32 41.0141V102.235L78.5728 112V32L32 41.0141V41.0141ZM63.1647 81.9741C61.1966 84.5641 58.6306 85.8622 55.4637 85.8622C52.3778 85.8622 49.8659 84.6062 47.9219 82.0973C45.9808 79.5854 45.0073 76.3162 45.0073 72.2839C45.0073 68.0263 45.9929 64.5829 47.9669 61.9538C49.941 59.3247 52.5551 58.0086 55.8092 58.0086C58.883 58.0086 61.3709 59.2646 63.2669 61.7825C65.1658 64.3005 66.1153 67.6177 66.1153 71.7371C66.1183 75.9707 65.1328 79.384 63.1647 81.9741Z" fill="white"/>
</svg>
