<svg width="144" height="144" viewBox="0 0 144 144" fill="none" xmlns="http://www.w3.org/2000/svg">
<rect width="144" height="144" fill="#2CA01C"/>
<path fill-rule="evenodd" clip-rule="evenodd" d="M28 71.998C28 85.1037 38.6041 95.728 51.6851 95.728H55.0687V86.914H51.6851C43.4752 86.914 36.7973 80.2235 36.7973 71.998C36.7973 63.7738 43.4752 57.082 51.6851 57.082H59.8151V103.186C59.8151 108.054 63.7536 112 68.6125 112V48.2679H51.6851C38.6041 48.2679 28 58.8936 28 71.998ZM92.3016 48.272H88.918V57.086H92.3016C100.509 57.086 107.189 63.7779 107.189 72.002C107.189 80.2262 100.509 86.918 92.3016 86.918H84.1675V40.814C84.1675 35.946 80.229 32 75.3702 32V95.7321H92.3016C105.381 95.7321 115.987 85.1078 115.987 72.002C115.987 58.8963 105.381 48.272 92.3016 48.272Z" fill="white"/>
</svg>
