<svg width="144" height="144" viewBox="0 0 144 144" fill="none" xmlns="http://www.w3.org/2000/svg">
<rect width="144" height="144" fill="#00A1E0"/>
<path fill-rule="evenodd" clip-rule="evenodd" d="M63.5931 44.6393C66.818 41.2822 71.3064 39.2033 76.2649 39.2033C82.8763 39.2033 88.6062 42.8763 91.6916 48.349C94.4303 47.1247 97.3967 46.4926 100.397 46.4942C112.297 46.4942 121.957 56.2276 121.957 68.2383C121.957 80.2491 112.297 89.9825 100.397 89.9825C98.9421 89.9825 97.5243 89.8363 96.1359 89.5601C93.4362 94.3718 88.2757 97.6407 82.3989 97.6407C80.0062 97.6455 77.6442 97.1027 75.4936 96.054C72.7572 102.482 66.3846 107 58.9651 107C51.2151 107 44.6404 102.114 42.106 95.2459C40.978 95.484 39.8283 95.6036 38.6754 95.6029C29.4562 95.6029 22 88.0366 22 78.7439C22 72.4998 25.3571 67.0637 30.3377 64.1253C29.2811 61.6912 28.7372 59.0656 28.74 56.412C28.74 45.6868 37.445 37.0186 48.1701 37.0186C54.451 37.0186 60.0707 40.0121 63.5968 44.6584" fill="white"/>
<path fill-rule="evenodd" clip-rule="evenodd" d="M36.5598 73.2896C36.497 73.4534 36.5822 73.4876 36.6024 73.5166C36.7901 73.6525 36.9808 73.7509 37.1717 73.8615C38.1928 74.4014 39.1552 74.5594 40.1616 74.5594C42.2111 74.5594 43.4856 73.4685 43.4856 71.7128V71.6783C43.4856 70.0548 42.0458 69.4634 40.7015 69.041L40.5256 68.9841C39.5081 68.6543 38.6303 68.367 38.6303 67.6986V67.6644C38.6303 67.0914 39.1445 66.669 39.9379 66.669C40.8194 66.669 41.8699 66.9625 42.542 67.3338C42.542 67.3338 42.7411 67.4624 42.8135 67.2703C42.8528 67.1663 43.1955 66.2492 43.2322 66.1463C43.2711 66.0387 43.2028 65.9576 43.1327 65.9157C42.3613 65.4455 41.2962 65.126 40.1943 65.126L39.9897 65.1267C38.1128 65.1267 36.8015 66.2617 36.8015 67.8851V67.92C36.8015 69.6317 38.2487 70.19 39.6003 70.5756L39.8178 70.6432C40.8021 70.9459 41.6543 71.2088 41.6543 71.8994V71.9339C41.6543 72.5693 41.0997 73.0431 40.2108 73.0431C39.8652 73.0431 38.7636 73.0373 37.5699 72.2828C37.4256 72.1987 37.3433 72.1381 37.232 72.0702C37.1732 72.0345 37.0263 71.9703 36.9624 72.1627L36.5584 73.2867L36.5598 73.2896ZM66.5668 73.2867C66.504 73.4505 66.5892 73.4846 66.6101 73.5137C66.7971 73.6496 66.9885 73.748 67.1794 73.8585C68.2005 74.3985 69.1629 74.5564 70.1693 74.5564C72.2188 74.5564 73.4933 73.4655 73.4933 71.7098V71.6753C73.4933 70.0518 72.0572 69.4605 70.7092 69.0381L70.5333 68.9812C69.5158 68.6513 68.638 68.3641 68.638 67.6956V67.6615C68.638 67.0885 69.1522 66.6661 69.9456 66.6661C70.8271 66.6661 71.8739 66.9595 72.5497 67.3309C72.5497 67.3309 72.7488 67.4594 72.8215 67.2673C72.8605 67.1634 73.2035 66.2463 73.2366 66.1434C73.2759 66.0358 73.2072 65.9546 73.1374 65.9127C72.3661 65.4426 71.3009 65.123 70.199 65.123L69.9941 65.1238C68.1172 65.1238 66.8059 66.2587 66.8059 67.8822V67.9171C66.8059 69.6287 68.2531 70.187 69.6047 70.5727L69.8218 70.6403C70.8098 70.9429 71.6583 71.2059 71.6583 71.8964V71.931C71.6583 72.5664 71.1037 73.0402 70.2148 73.0402C69.8685 73.0402 68.764 73.0343 67.5739 72.2799C67.4296 72.1958 67.3451 72.1377 67.2356 72.0672C67.1985 72.0437 67.0255 71.9761 66.9664 72.1598L66.5624 73.2837L66.5668 73.2867ZM87.0577 69.8458C87.0577 70.8375 86.8726 71.6199 86.5105 72.1745C86.149 72.7218 85.6032 72.9899 84.8429 72.9899C84.0826 72.9899 83.539 72.724 83.1827 72.1782C82.8239 71.6272 82.6428 70.8412 82.6428 69.8495C82.6428 68.8578 82.825 68.0791 83.1827 67.5318C83.5383 66.9882 84.0789 66.7274 84.8429 66.7274C85.6069 66.7274 86.1505 66.9908 86.5105 67.5318C86.8748 68.0791 87.0577 68.8578 87.0577 69.8495V69.8458ZM88.7694 68.0093C88.6008 67.44 88.3396 66.9404 87.9907 66.5217C87.6414 66.103 87.201 65.7651 86.6757 65.5227C86.1542 65.2784 85.5371 65.1554 84.8392 65.1554C84.1414 65.1554 83.528 65.2791 83.0027 65.5227C82.4812 65.7666 82.0367 66.103 81.6878 66.5217C81.3396 66.9404 81.0781 67.44 80.9091 68.0093C80.742 68.5749 80.6572 69.192 80.6572 69.8495C80.6572 70.5069 80.742 71.124 80.9091 71.6896C81.077 72.259 81.3389 72.7585 81.6878 73.1772C82.0371 73.5959 82.4812 73.9302 83.0027 74.1689C83.528 74.4069 84.145 74.5281 84.8392 74.5281C85.5334 74.5281 86.1505 74.4069 86.6721 74.1689C87.1936 73.9309 87.6381 73.5959 87.987 73.1772C88.3356 72.7585 88.5967 72.259 88.7657 71.6896C88.9324 71.124 89.0173 70.5069 89.0173 69.8495C89.0173 69.1957 88.9324 68.5749 88.7657 68.0093H88.7694ZM102.833 72.7107C102.777 72.5443 102.615 72.6072 102.615 72.6072C102.366 72.7023 102.101 72.7904 101.818 72.8345C101.533 72.8793 101.215 72.9017 100.881 72.9017C100.055 72.9017 99.3935 72.6553 98.9234 72.1671C98.4496 71.6786 98.1851 70.8926 98.1888 69.8274C98.1913 68.8578 98.4257 68.1305 98.8462 67.5722C99.2613 67.0213 99.9004 66.7348 100.745 66.7348C101.45 66.7348 101.99 66.8167 102.556 66.9937C102.556 66.9937 102.69 67.0521 102.754 66.8754C102.905 66.4604 103.015 66.1629 103.177 65.7074C103.222 65.577 103.111 65.5219 103.07 65.5061C102.848 65.4195 102.324 65.2773 101.928 65.2174C101.557 65.1609 101.127 65.1315 100.642 65.1315C99.9221 65.1315 99.283 65.2545 98.7357 65.4984C98.1884 65.7419 97.7256 66.0788 97.3583 66.4975C96.991 66.9162 96.7119 67.4157 96.5245 67.9851C96.3391 68.5507 96.2454 69.1714 96.2454 69.8289C96.2454 71.2467 96.6274 72.3963 97.384 73.2374C98.1407 74.0822 99.2793 74.5083 100.763 74.5083C101.641 74.5083 102.541 74.3309 103.187 74.0749C103.187 74.0749 103.311 74.0154 103.257 73.8714L102.835 72.7107H102.833ZM105.828 68.8908C105.91 68.3399 106.061 67.8807 106.298 67.5245C106.654 66.9808 107.195 66.6833 107.955 66.6833C108.715 66.6833 109.218 66.9823 109.578 67.5245C109.817 67.8826 109.921 68.3582 109.96 68.8908L105.81 68.8901L105.828 68.8908ZM111.595 67.6787C111.449 67.1314 111.088 66.5768 110.853 66.3234C110.478 65.923 110.115 65.6402 109.751 65.4859C109.226 65.2627 108.661 65.1481 108.091 65.1491C107.367 65.1491 106.71 65.2714 106.177 65.5201C105.645 65.7706 105.196 66.1115 104.844 66.5375C104.492 66.9636 104.227 67.4668 104.058 68.0435C103.889 68.6128 103.804 69.2372 103.804 69.891C103.804 70.5595 103.892 71.1802 104.066 71.7422C104.242 72.3078 104.525 72.8037 104.907 73.215C105.289 73.6301 105.778 73.9533 106.366 74.181C106.95 74.4069 107.659 74.5241 108.47 74.5215C110.145 74.516 111.027 74.1432 111.387 73.9412C111.451 73.9052 111.511 73.8431 111.436 73.6642L111.058 72.6027C110.999 72.4444 110.839 72.5017 110.839 72.5017C110.424 72.6567 109.837 72.9352 108.459 72.9315C107.559 72.93 106.895 72.6645 106.476 72.2483C106.05 71.8222 105.837 71.2015 105.804 70.32L111.607 70.3244C111.607 70.3244 111.76 70.3229 111.776 70.1738C111.782 70.1121 111.974 68.9837 111.603 67.6798L111.595 67.6787ZM59.4382 68.8908C59.5201 68.3399 59.6715 67.8807 59.9084 67.5245C60.2639 66.9808 60.8046 66.6833 61.5649 66.6833C62.3252 66.6833 62.8284 66.9823 63.1884 67.5245C63.4267 67.8826 63.5311 68.3582 63.5704 68.8908L59.4199 68.8901L59.4382 68.8908ZM65.2048 67.6787C65.0594 67.1314 64.698 66.5768 64.4629 66.3234C64.0882 65.923 63.7246 65.6402 63.361 65.4859C62.836 65.2627 62.2713 65.1481 61.7008 65.1491C60.9772 65.1491 60.3197 65.2714 59.7872 65.5201C59.2546 65.7706 58.8065 66.1115 58.4539 66.5375C58.1024 66.9636 57.8368 67.4668 57.6678 68.0435C57.4992 68.6128 57.4144 69.2372 57.4144 69.891C57.4144 70.5595 57.5022 71.1802 57.6774 71.7422C57.853 72.3078 58.1365 72.8037 58.5148 73.215C58.8968 73.6301 59.3853 73.9533 59.973 74.181C60.557 74.4069 61.2622 74.5241 62.0776 74.5215C63.7525 74.516 64.6341 74.1432 64.994 73.9412C65.0579 73.9052 65.1189 73.8431 65.0429 73.6642L64.6645 72.6027C64.6061 72.4444 64.446 72.5017 64.446 72.5017C64.0309 72.6567 63.4433 72.9352 62.0659 72.9315C61.1697 72.93 60.5012 72.6645 60.0825 72.2483C59.6564 71.8222 59.4434 71.2015 59.4103 70.32L65.2137 70.3244C65.2137 70.3244 65.3665 70.3229 65.3822 70.1738C65.3885 70.1121 65.581 68.9837 65.2089 67.6798L65.2048 67.6787ZM46.9133 72.674C46.6859 72.4926 46.6543 72.4481 46.579 72.3302C46.4641 72.1528 46.4053 71.9005 46.4053 71.5772C46.4053 71.0704 46.5743 70.7031 46.9232 70.457C46.9195 70.4577 47.4227 70.0236 48.6054 70.0383C49.1319 70.0477 49.6571 70.0925 50.1775 70.1723V72.8059H50.1782C50.1782 72.8059 49.4436 72.9642 48.6135 73.0141C47.4345 73.085 46.9129 72.6747 46.9166 72.6758L46.9133 72.674ZM49.2199 68.597C48.9849 68.5797 48.68 68.5713 48.3164 68.5713C47.8205 68.5713 47.3394 68.633 46.8912 68.7542C46.4395 68.8761 46.0318 69.0649 45.6828 69.3161C45.3329 69.5658 45.0451 69.8925 44.8417 70.2711C44.6364 70.6531 44.5317 71.1012 44.5317 71.6081C44.5317 72.1223 44.621 72.5668 44.7973 72.9304C44.97 73.2911 45.2301 73.6029 45.5539 73.8376C45.876 74.072 46.2738 74.2453 46.7329 74.3482C47.1884 74.4521 47.7026 74.5046 48.2683 74.5046C48.8633 74.5046 49.4546 74.4547 50.0276 74.3581C50.5156 74.2739 51.0018 74.1794 51.4858 74.0745C51.679 74.0301 51.8935 73.9717 51.8935 73.9717C52.0368 73.9353 52.0257 73.7822 52.0257 73.7822L52.0224 68.493C52.0224 67.3324 51.7124 66.4692 51.1005 65.9366C50.4908 65.404 49.5983 65.1359 48.4413 65.1359C48.0078 65.1359 47.3063 65.1947 46.8876 65.2788C46.8876 65.2788 45.6241 65.5241 45.1025 65.9326C45.1025 65.9326 44.9879 66.0031 45.0503 66.1629L45.4617 67.2648C45.5128 67.4077 45.652 67.3588 45.652 67.3588C45.652 67.3588 45.6957 67.3415 45.7471 67.3111C46.86 66.705 48.2705 66.7234 48.2705 66.7234C48.8949 66.7234 49.3797 66.8501 49.7029 67.098C50.0192 67.3408 50.1804 67.7077 50.1804 68.4791V68.7241C49.6846 68.6521 49.2254 68.6106 49.2254 68.6106L49.2199 68.597ZM95.8671 65.6108C95.8754 65.5915 95.8798 65.5706 95.8799 65.5495C95.88 65.5284 95.8759 65.5075 95.8678 65.488C95.8597 65.4686 95.8477 65.4509 95.8326 65.4362C95.8176 65.4214 95.7997 65.4099 95.78 65.4022C95.6812 65.3647 95.1887 65.2608 94.8103 65.2373C94.0831 65.1917 93.6791 65.3144 93.3154 65.4775C92.9562 65.6395 92.5588 65.8999 92.3384 66.2011L92.3377 65.4959C92.3377 65.3989 92.269 65.3207 92.1713 65.3207H90.6874C90.5912 65.3207 90.5214 65.3989 90.5214 65.4959V74.1274C90.5215 74.174 90.54 74.2187 90.573 74.2517C90.606 74.2847 90.6507 74.3033 90.6973 74.3033H92.2179C92.2645 74.3033 92.3092 74.2847 92.3421 74.2517C92.375 74.2187 92.3935 74.174 92.3935 74.1274V69.7933C92.3935 69.2129 92.4574 68.6363 92.5849 68.2726C92.7105 67.9131 92.8813 67.6262 93.0917 67.4205C93.2925 67.2218 93.5382 67.0744 93.808 66.9908C94.0612 66.9181 94.3233 66.8813 94.5867 66.8813C94.8897 66.8813 95.2221 66.9592 95.2221 66.9592C95.3338 66.9717 95.3958 66.9034 95.4337 66.8027C95.5332 66.5379 95.8157 65.7449 95.8707 65.5869" fill="#00A1E0"/>
<path fill-rule="evenodd" clip-rule="evenodd" d="M81.6641 61.6268C81.4761 61.57 81.2849 61.5246 81.0915 61.4909C80.8313 61.4475 80.5678 61.4271 80.304 61.43C79.2561 61.43 78.43 61.726 77.8501 62.3107C77.2741 62.8911 76.8822 63.7752 76.6857 64.9384L76.6148 65.331H75.2995C75.2995 65.331 75.139 65.3244 75.1052 65.4996L74.8892 66.7044C74.8742 66.8197 74.9238 66.8917 75.078 66.891H76.3584L75.0593 74.1426C74.9576 74.7266 74.8411 75.207 74.7122 75.571C74.5851 75.9302 74.461 76.1995 74.3082 76.3949C74.1602 76.584 74.0198 76.7232 73.7778 76.8044C73.578 76.8716 73.3481 76.9025 73.0961 76.9025C72.9558 76.9025 72.7692 76.879 72.6315 76.8514C72.4937 76.8242 72.4221 76.7934 72.3189 76.75C72.3189 76.75 72.1687 76.6927 72.1095 76.8433C72.0614 76.9664 71.7202 77.9048 71.6798 78.0209C71.6386 78.1355 71.6963 78.2259 71.769 78.2519C71.9395 78.3129 72.0662 78.3518 72.2983 78.4066C72.6208 78.4826 72.8926 78.4874 73.1471 78.4874C73.6805 78.4874 74.1664 78.4124 74.5693 78.267C74.9748 78.1204 75.3278 77.8652 75.64 77.5195C75.9776 77.1467 76.1899 76.7563 76.393 76.2237C76.5939 75.6959 76.765 75.0406 76.9021 74.277L78.2074 66.891H80.1159C80.1159 66.891 80.2768 66.8968 80.3102 66.7224L80.5262 65.5176C80.5413 65.4023 80.492 65.3303 80.337 65.331H78.4847C78.4939 65.2892 78.578 64.6376 78.7907 64.0242C78.8814 63.7623 79.0522 63.5511 79.1969 63.406C79.3321 63.2678 79.4985 63.1643 79.6821 63.1041C79.8835 63.0419 80.0933 63.0116 80.304 63.0145C80.4785 63.0145 80.6496 63.0354 80.78 63.0626C80.9596 63.1008 81.0294 63.121 81.0764 63.135C81.2652 63.1926 81.2906 63.1368 81.3277 63.0453L81.7706 61.8288C81.8162 61.6981 81.7052 61.643 81.6641 61.6268V61.6268ZM55.779 74.158C55.779 74.255 55.7099 74.3339 55.613 74.3339H54.0765C53.9792 74.3339 53.9102 74.255 53.9102 74.158V61.7917C53.9102 61.6951 53.9792 61.6169 54.0765 61.6169H55.613C55.7099 61.6169 55.779 61.6951 55.779 61.7917V74.158" fill="#00A1E0"/>
</svg>
