<svg width="65" height="65" viewBox="0 0 65 65" fill="none" xmlns="http://www.w3.org/2000/svg">
<path d="M60.1 21H4V61H60.1V21Z" stroke="#00BFF2" stroke-width="2" stroke-miterlimit="10" stroke-linecap="round" stroke-linejoin="round"/>
<path d="M46.5 4V17.2H60.2V4H4V17.2H43.1" stroke="#00BFF2" stroke-width="2" stroke-miterlimit="10" stroke-linecap="round" stroke-linejoin="round"/>
<path d="M9.2998 7.5V14.1V7.5Z" stroke="#00BFF2" stroke-width="2" stroke-miterlimit="10" stroke-linecap="round" stroke-linejoin="round"/>
<path d="M9.2998 26.8H35.4998H9.2998Z" stroke="#00BFF2" stroke-width="2" stroke-miterlimit="10" stroke-linecap="round" stroke-linejoin="round"/>
<path d="M9.2998 33.6H44.2998H9.2998Z" stroke="#00BFF2" stroke-width="2" stroke-miterlimit="10" stroke-linecap="round" stroke-linejoin="round"/>
<path d="M9.2998 53H42.3998H9.2998Z" stroke="#00BFF2" stroke-width="2" stroke-miterlimit="10" stroke-linecap="round" stroke-linejoin="round"/>
<path d="M9.2998 46.5H37.6998H9.2998Z" stroke="#00BFF2" stroke-width="2" stroke-miterlimit="10" stroke-linecap="round" stroke-linejoin="round"/>
<path d="M9.2998 40H26.7998H9.2998Z" stroke="#00BFF2" stroke-width="2" stroke-miterlimit="10" stroke-linecap="round" stroke-linejoin="round"/>
<path d="M57.2004 9.6C57.2004 11.1 56.0004 12.3 54.5004 12.3C53.8004 12.3 53.2004 12 52.7004 11.6C52.2004 11.1 51.9004 10.4 51.9004 9.7C51.9004 8.2 53.1004 7 54.6004 7C56.1004 7 57.2004 8.1 57.2004 9.6Z" stroke="#00BFF2" stroke-width="2" stroke-miterlimit="10" stroke-linecap="round" stroke-linejoin="round"/>
<path d="M52.7998 11.5L49.7998 14.5L52.7998 11.5Z" stroke="#00BFF2" stroke-width="2" stroke-miterlimit="10" stroke-linecap="round" stroke-linejoin="round"/>
</svg>
