<svg width="144" height="144" viewBox="0 0 144 144" fill="none" xmlns="http://www.w3.org/2000/svg">
<rect width="144" height="144" fill="black"/>
<g clip-path="url(#clip0)">
<path d="M166.391 63.5625C164.281 61.7656 161.547 60.5156 158.5 60.5156C156.391 60.5156 153.656 61.7656 153.656 64.1875C153.656 66.9219 156.703 67.8594 158.812 68.4844L161.859 69.4219C168.266 71.2188 173.109 74.2656 173.109 81.6094C173.109 86.1406 171.859 90.75 168.578 93.7969C164.906 96.8437 160.375 98.0937 155.766 98.0937C149.984 98.0937 144.516 96.2969 139.906 92.9375L144.75 83.4844C147.797 85.9063 151.156 88.0156 155.062 88.0156C157.797 88.0156 160.844 86.5313 160.844 83.4844C160.844 80.125 156.312 78.9531 153.812 78.3281C146.469 76.2187 141.625 74.3438 141.625 65.5156C141.625 56.375 148.031 50.2813 157.172 50.2813C161.703 50.2813 167.25 51.7656 171.156 53.9531L166.391 63.5625ZM198.969 77.3125C198.344 74.2656 195.609 72.4687 192.875 72.4687C189.828 72.4687 187.094 74.2656 186.469 77.3125H198.969ZM209.047 83.4062H186.156C186.156 87.9375 188.578 90.4375 192.875 90.4375C195.297 90.4375 196.859 89.8125 198.031 87.7031H208.344C206.547 95.2812 199.828 98.3281 192.797 98.3281C182.719 98.3281 175.141 92.5469 175.141 81.9219C175.141 71.6094 182.172 65.5156 192.172 65.5156C202.797 65.5156 208.891 72.2344 208.891 82.5469V83.4062H209.047ZM222.406 72.7031C224.828 68.1719 228.187 66.9219 232.484 66.9219H234.594V77.2344C232.797 76.2969 231.547 76.2969 230.062 76.2969C223.969 76.2969 222.484 80.2813 222.484 85.4375V97.9375H211.781V67.1563H222.406V72.7031ZM252.25 82.7813L259.594 67.2344H271.781L255.609 97.7031H248.578L232.719 67.2344H244.906L252.25 82.7813ZM283.891 97.7031H272.641V66.9219H283.891V97.7031ZM284.516 56.6094C284.516 59.9687 281.781 62.7031 278.422 62.7031C275.062 62.7031 272.328 59.9687 272.328 56.6094C272.328 53.25 275.062 50.5156 278.422 50.5156C281.781 50.5156 284.516 53.25 284.516 56.6094ZM311.625 76.375C309.828 75.125 307.953 74.2656 305.844 74.2656C301.547 74.2656 298.266 77.625 298.266 81.8437C298.266 86.375 301.625 89.4219 305.844 89.4219C307.641 89.4219 309.516 88.4844 311.312 87.3125V96.4531C308.578 97.7031 306.156 98.25 303.734 98.25C294.594 98.25 287.016 91.5312 287.016 82.1562C287.016 72.3906 294.594 65.4375 304.359 65.4375C306.781 65.4375 309.516 66.0625 311.703 67.2344V76.375H311.625ZM338.109 77.3125C337.484 74.2656 334.75 72.4687 332.016 72.4687C328.969 72.4687 326.234 74.2656 325.609 77.3125H338.109ZM348.109 83.4062H325.297C325.297 87.9375 327.719 90.4375 332.016 90.4375C334.437 90.4375 336 89.8125 337.172 87.7031H347.484C345.687 95.2812 338.969 98.3281 331.937 98.3281C321.859 98.3281 314.281 92.5469 314.281 81.9219C314.281 71.6094 321.312 65.5156 331.312 65.5156C341.937 65.5156 348.031 72.2344 348.031 82.5469V83.4062H348.109ZM369.75 97.7031H358.5V62.7031H348.422V52.9375H379.437V62.7031H369.672V97.7031H369.75ZM392.875 97.7031H381.937V66.9219H392.875V97.7031ZM393.5 56.6094C393.5 59.9687 390.766 62.7031 387.406 62.7031C384.047 62.7031 381.312 59.9687 381.312 56.6094C381.312 53.25 384.047 50.5156 387.406 50.5156C390.766 50.5156 393.5 53.25 393.5 56.6094ZM410.531 97.7031H399.594V76.0625H396.234V67.2344H399.594V57.7813H410.531V67.2344H416.625V76.0625H410.531V97.7031ZM427.562 82.4687C427.562 86.4531 429.984 89.5 434.594 89.5C439.125 89.5 441.625 86.4531 441.625 82.4687C441.625 78.7969 439.203 75.4375 434.594 75.4375C430.297 75.4375 427.562 78.7969 427.562 82.4687ZM452.25 97.7031H441.312V94.3437C439.516 97.3906 435.531 98.875 432.172 98.875C423.031 98.875 416.625 91.2969 416.625 82.4687C416.625 73.6406 423.031 66.0625 431.859 66.0625C435.531 66.0625 438.891 67.3125 441.312 70.0469V67H452.25V97.7031ZM466.547 71.2187C469.281 67.5469 472.328 66.375 476.625 66.375C484.828 66.375 488.187 71.5313 488.187 79.1875V98.0937H477.25V83.1719C477.25 80.125 477.875 75.2813 472.406 75.2813C467.875 75.2813 466.625 78.6406 466.625 82.3125V98.1719H455.687V67.3906H466.625V71.2187H466.547ZM493.656 65.4375V66.6875H494.594C495.219 66.6875 496.391 66.6875 496.391 66.0625C496.391 65.4375 495.766 65.4375 495.141 65.4375H493.656ZM496.937 69.9687H496L494.75 67.5469H493.5V69.9687H492.875V64.5H494.984C495.922 64.5 496.781 64.8125 496.781 65.9844C496.781 66.9219 496.156 67.4688 495.297 67.4688L496.937 69.9687ZM490.922 67.2344C490.922 69.3437 492.719 71.2187 494.906 71.2187C497.016 71.2187 498.891 69.4219 498.891 67.2344C498.891 65.125 497.094 63.25 494.906 63.25C492.719 63.3281 490.922 64.8125 490.922 67.2344ZM489.984 67.2344C489.984 64.5 492.094 62.3906 494.828 62.3906C497.562 62.3906 499.672 64.5 499.672 67.2344C499.672 69.9687 497.562 72.0781 494.828 72.0781C492.094 71.8437 489.984 69.6562 489.984 67.2344ZM38.5781 104.969C38.5781 104.969 43.1094 106.766 43.1094 108.641C43.1094 108.641 42.7969 110.125 41.3125 110.125C39.8281 110.125 37.6406 107.703 37.6406 106.453C37.6406 105.203 38.5781 104.969 38.5781 104.969ZM33.7344 82.1562C33.4219 81.8437 33.4219 82.1562 33.7344 82.1562C33.4219 81.8437 33.4219 81.8437 33.4219 81.8437C32.4844 82.1562 31 83.3281 31 85.5156C31 93.7188 53.1875 94.6562 65.375 109.578C66.625 111.062 68.7344 112 70.8437 112C73.5781 112 76.3125 111.687 78.7344 111.375C79.0469 111.375 79.3594 111.062 79.3594 110.75C79.3594 110.437 79.3594 110.125 79.3594 109.812C64.4375 89.5 36.1562 94.3437 33.7344 82.1562ZM65.6875 56.2969C64.2031 54.8125 60.2187 55.9844 58.1094 57.7813C56 59.5781 56.8594 60.8281 56.8594 60.8281C58.6562 58.4063 61.3906 57.1563 63.2656 56.8438C64.75 56.9219 65.6875 56.2969 65.6875 56.2969ZM111.312 60.5156C111.312 60.5156 108.266 61.1406 105.531 58.0938C105.531 58.0938 106.781 58.0937 107.016 56.6094C106.781 56.6094 108.578 59.9688 111.312 60.5156ZM110.375 74.5781C110.375 74.5781 109.75 77.9375 105.844 77.9375C101.547 77.9375 97.9531 72.1563 96.7031 58.4844C97.6406 59.9688 98.8125 61.5312 99.4375 63.3281C99.4375 61.5312 100.375 58.1719 96.0781 55.125C96.0781 55.125 107.328 57.5469 107.641 69.1094C107.641 71.2188 106.391 73.0937 105.844 73.9531C105.844 73.9531 105.219 74.2656 105.531 75.2031C105.844 75.8281 106.781 75.8281 107.641 74.8906C108.5 73.9531 110.375 72.7031 110.375 74.5781ZM94.5937 80.9062C94.5937 80.9062 91.5469 86.6875 87.25 86.6875C85.4531 86.6875 84.2031 85.4375 84.2031 83.9531C84.2031 82.4688 86.3125 76.375 95.1406 76.375C97.25 76.375 98.8125 76.6875 98.8125 78.1719C99.125 79.1094 97.0156 81.2187 94.5937 80.9062ZM94.5937 52C94.5937 52 93.3437 51.6875 93.6562 49.8906C93.9687 49.2656 93.9687 49.2656 93.9687 48.4062C93.9687 47.4687 94.2812 46.6094 94.9062 46.2969C94.9062 46.2969 96.1562 46.2969 96.1562 49.6563C96.0781 51.1406 94.5937 52 94.5937 52ZM90.6094 52C88.8125 51.6875 89.9844 48.9531 88.8125 48.9531C88.1875 48.9531 88.1875 52 87.5625 51.6875C86.3125 50.75 87.25 48.6406 87.25 47.7031C87.25 46.7656 87.875 45.5937 86.9375 46.2187C86 46.8437 85.4531 48.3281 85.1406 49.5781C84.8281 50.8281 85.4531 51.375 86.0781 52.9375C86.7031 54.4219 85.7656 53.875 85.7656 53.875C81.2344 51.1406 84.5156 45.0469 84.5156 45.0469C86.625 41.6875 89.6719 42.625 89.6719 42.625C90.2969 42.9375 90.2969 43.25 90.2969 43.875C90.2969 44.5 90.6094 44.8125 91.2344 45.125C92.1719 45.4375 92.4844 46.375 92.4844 48.1719C92.4844 50.2031 91.2344 52.3125 90.6094 52ZM97.6406 51.6875L105.219 54.1094C105.219 54.1094 106.703 56.8438 103.734 55.9063C101 54.9688 98.2656 54.4219 98.2656 54.4219C98.2656 54.4219 97.0156 53.5625 97.6406 51.6875ZM60.2187 63.25C54.75 64.1875 52.875 62.625 52.875 61.1406C52.875 56.8438 65.375 53.5625 68.7344 53.5625C69.3594 54.5 68.1094 54.5 67.7969 55.9844C67.1719 57.4687 66 58.0938 64.125 58.4063C62.3281 58.7188 60.4531 59.6563 59.2812 60.5156C58.0312 61.4531 59.2812 62 61.3906 61.4531C63.5 60.8281 63.8125 61.7656 64.75 61.4531C65.6875 61.1406 64.75 59.9688 65.375 59.9688C66 59.6563 67.1719 60.5937 67.1719 60.5937L70.2187 62.7031L66.5469 64.5C66.2344 64.5 65.9219 64.8125 65.9219 65.4375C65.9219 66.0625 67.7187 66.0625 68.6562 66.0625C69.2812 66.0625 69.5937 67.3125 69.5937 67.3125C68.6562 68.5625 65.9219 68.5625 65.9219 68.5625C66.5469 69.8125 69.9062 69.5 70.4531 69.8125C71.0781 69.8125 71.0781 70.75 71.7031 72.2344C72.0156 73.7188 74.125 74.3437 74.125 74.3437C74.75 76.7656 72.0156 77.3906 70.1406 77.3906C58.9687 76.6875 60.2187 63.25 60.2187 63.25ZM61.3906 46.2187C61.0781 46.2187 61.0781 46.2187 61.3906 46.2187C60.4531 41.6875 62.3281 36.4531 62.3281 36.4531C62.3281 36.4531 57.7969 40.125 58.0312 46.2187C54.0469 46.2187 48.2656 46.5312 44.9063 49.5781C40.0625 53.5625 39.4375 61.1406 39.125 63.25C39.125 63.25 39.125 63.5625 38.8125 63.5625H38.5C37.25 62.9375 34.8281 60.5156 36.7031 55.3594C39.125 48.6406 46.4687 35.2812 60.7656 34.3437C60.7656 34.3437 65.2969 34.0313 68.1094 35.8281C68.1094 35.8281 68.4219 35.8281 68.4219 36.1406V36.4531C67.1719 37.3906 63.2656 40.9844 62.0156 46.5313C62.0156 46.8438 61.7031 46.8437 61.7031 46.8437C61.7031 46.2187 61.3906 46.2187 61.3906 46.2187ZM72.0937 64.1875C72.0937 64.1875 73.3437 69.9687 76.0781 72.0781C76.0781 72.0781 76.0781 72.7031 75.1406 72.7031C74.2031 72.7031 72.7187 71.4531 72.0937 68.1719C71.4687 65.125 72.0937 64.1875 72.0937 64.1875ZM76 49.5781C72.6406 49.5781 71.1562 46.5313 71.1562 46.5313C71.1562 46.5313 75.1406 50.2031 80.6094 47.1563C80.6094 47.4688 79.3594 49.5781 76 49.5781ZM118.031 54.5C117.094 52.7031 115.922 51.4531 113.187 50.8281C110.766 50.2031 108.656 50.5156 107.094 51.7656L102.25 49.9687C101.625 48.7187 101.312 47.5469 100.766 46.6094C100.453 45.6719 99.8281 45.125 99.2812 44.8125C95.9219 43.0156 87.0937 38.4063 83.7344 43.0156C83.7344 43.0156 83.4219 43.3281 83.4219 43.6406L82.1719 43.3281C81.5469 41.5312 79.75 39.9688 77.3281 39.3438C75.8437 39.0313 74.2812 39.0313 73.0312 39.6563C72.0937 39.9688 72.0937 41.1406 73.0312 41.4531L77.0156 42.9375C77.9531 43.25 78.5 44.1875 77.9531 45.0469C77.6406 45.9844 76.7031 46.5313 75.8437 45.9844C75.8437 45.9844 73.4219 45.3594 71.5469 44.7344C70.6094 44.4219 69.75 45.3594 70.0625 46.2187C70.6875 48.0156 72.4844 49.8906 74.9062 50.5156C77.0156 51.1406 79.2031 50.5156 80.6875 49.5781L81.625 49.8906C81.625 52 83.4219 54.7344 84.9844 55.6719C87.4062 57.1563 89.5156 55.9844 92.0156 54.4219C92.0156 54.4219 98.4219 59.2656 95.375 73.5625C87.4844 74.5 84.4375 77.2344 81.7031 80.2812C79.9062 79.6562 74.3594 79.0313 71.3906 79.9688C72.3281 79.0313 73.5 78.1719 75.375 77.5469C76.3125 77.2344 76.625 76.6094 76.625 75.75C76.625 75.75 80.2969 74.5 80.2969 73.3281C80.2969 72.0781 75.7656 72.0781 73.8906 62.3906C73.5781 61.1406 73.2656 60.2813 71.4687 59.6563C71.4687 59.6563 70.8437 58.7187 71.7812 57.5469C72.7187 56.2969 73.0312 56.0625 72.7187 55.125C72.4062 54.1875 71.2344 53.6406 71.2344 53.6406V52.1563C71.2344 52.1563 67.5625 49.4219 67.5625 45.4375C67.5625 41.4531 72.7187 36.9219 73.9687 35.6719V35.3594C73.9687 35.3594 73.9687 35.0469 73.6562 35.0469C71.8594 33.7969 68.5 32 63.0312 32C41.7031 32 36.8594 51.1406 32.25 60.2812C32.25 60.5937 32.25 60.5938 32.25 60.9063C36.7813 70.0469 44.125 69.1094 44.75 77C45.0625 83.0937 43.5 83.0938 42.3281 83.0938C41.3906 83.0938 39.9062 82.1563 39.2812 81.6094H38.9687C38.9687 81.6094 38.6562 81.9219 38.9687 81.9219C39.5937 83.4063 41.0781 87.0781 46 87.0781C48.4219 87.0781 49.0469 84.9688 49.0469 82.7813V75.75C49.0469 75.125 48.7344 74.5 48.4219 73.9531C46.9375 72.4687 43.2656 69.1094 43.2656 66.375C43.2656 65.125 44.2031 64.5781 45.0625 64.5781C46.8594 64.5781 48.7344 67.3125 50.2187 70.9844C50.5312 71.9219 51.1562 72.4687 51.4687 72.7812H51.7812C51.7812 72.7812 51.7812 72.7812 51.7812 72.4687C51.1562 70.3594 51.1562 68.1719 50.8437 67.3125C50.8437 67 50.5312 66.375 50.2187 66.0625C48.7344 64.8125 45.0625 61.2188 45.0625 55.75C45.0625 48.4063 56.9375 49.0313 59.3594 49.0313C59.9844 51.4531 61.4687 52.7031 62.4062 53.0156C58.7344 54.2656 50.8437 57 50.8437 61.5313C50.8437 66.375 59.0469 66.0625 59.0469 66.0625C59.0469 66.0625 57.7969 75.8281 66.9375 78.875C66.9375 78.875 65.4531 80.3594 60.5313 80.3594C56 80.3594 53.8125 78.25 52.6406 75.8281C52.6406 75.8281 52.6406 75.5156 52.3281 75.5156C52.3281 75.5156 52.0156 75.5156 52.0156 75.8281C51.7031 76.4531 51.7031 77.625 52.3281 78.875C53.5781 80.9844 55.375 82.2344 55.375 84.9687C55.375 87.0781 53.5781 88.3281 52.6406 88.6406C54.4375 88.9531 62.7187 91.0625 68.1875 93.7969C68.8125 93.4844 73.6562 90.4375 73.9687 86.2188C73.9687 86.2188 74.2812 83.4844 70.2969 83.1719C70.2969 83.1719 72.0937 82.5469 75.1406 82.5469C78.1875 82.5469 81.5469 84.9687 75.4531 97.7812C75.4531 97.7812 75.4531 97.7812 75.4531 98.0937C76.3906 98.7187 83.3437 103.25 87.9531 107.547H88.2656C88.2656 107.547 88.5781 107.547 88.5781 107.234C89.2031 106.609 90.375 104.5 91 99.3437C91 98.7187 91.3125 98.4063 91.9375 98.4063C94.6719 97.4688 103.812 94.7344 107.797 89.2656C112.328 82.8594 114.203 81.9219 114.203 81.9219C114.203 81.9219 117.25 80.125 116 75.5156C115.375 73.0937 111.703 67 108.109 60.5937C109.047 61.2187 109.906 61.5312 110.844 61.8437C112.953 62.4687 115.141 62.1563 116.625 61.2188C116.937 60.9063 117.25 60.5937 117.25 60.2812C117.25 59.9687 116.937 59.6563 116.625 59.3438L112.641 57.8594C111.703 57.5469 111.156 56.375 111.391 55.4375C111.703 54.5 112.875 53.9531 113.812 54.1875L117.484 55.4375C117.797 55.4375 118.109 55.4375 118.422 55.125C118.344 54.7344 118.031 55.0469 118.031 54.5ZM64.125 65.9844C64.125 65.9844 62.6406 66.2969 62.875 68.7188C63.1875 70.8281 64.9844 70.8281 64.9844 70.8281C63.5 69.0312 64.125 65.9844 64.125 65.9844ZM37.6406 96.1406C43.1094 99.1875 55.2969 102.859 57.7187 109.266C57.7187 109.266 58.6562 110.75 53.7344 110.75C50.0625 110.75 49.2031 109.812 46.7031 106.766C43.0312 102.469 35.4531 99.7344 35.4531 96.4531C35.2187 96.7656 35.5312 94.9687 37.6406 96.1406Z" fill="white"/>
</g>
<defs>
<clipPath id="clip0">
<rect width="100" height="104" fill="white" transform="translate(22 20)"/>
</clipPath>
</defs>
</svg>
