<svg width="144" height="144" viewBox="0 0 144 144" fill="none" xmlns="http://www.w3.org/2000/svg">
<rect width="144" height="144" fill="white"/>
<path d="M48.8797 82.5736C48.8797 87.2233 45.1218 90.9813 40.4721 90.9813C35.8224 90.9813 32.0645 87.2233 32.0645 82.5736C32.0645 77.924 35.8224 74.166 40.4721 74.166H48.8797V82.5736ZM53.0835 82.5736C53.0835 77.924 56.8415 74.166 61.4912 74.166C66.1408 74.166 69.8988 77.924 69.8988 82.5736V103.593C69.8988 108.242 66.1408 112 61.4912 112C56.8415 112 53.0835 108.242 53.0835 103.593V82.5736Z" fill="#E01E5A"/>
<path d="M61.4904 48.8153C56.8407 48.8153 53.0828 45.0573 53.0828 40.4076C53.0828 35.758 56.8407 32 61.4904 32C66.1401 32 69.898 35.758 69.898 40.4076V48.8153H61.4904ZM61.4904 53.0828C66.1401 53.0828 69.898 56.8407 69.898 61.4904C69.898 66.1401 66.1401 69.898 61.4904 69.898H40.4076C35.758 69.898 32 66.1401 32 61.4904C32 56.8407 35.758 53.0828 40.4076 53.0828H61.4904Z" fill="#36C5F0"/>
<path d="M95.1851 61.4904C95.1851 56.8407 98.943 53.0828 103.593 53.0828C108.242 53.0828 112 56.8407 112 61.4904C112 66.1401 108.242 69.898 103.593 69.898H95.1851V61.4904ZM90.9813 61.4904C90.9813 66.1401 87.2233 69.898 82.5736 69.898C77.924 69.898 74.166 66.1401 74.166 61.4904V40.4076C74.166 35.758 77.924 32 82.5736 32C87.2233 32 90.9813 35.758 90.9813 40.4076V61.4904V61.4904Z" fill="#2EB67D"/>
<path d="M82.5736 95.1851C87.2233 95.1851 90.9813 98.943 90.9813 103.593C90.9813 108.242 87.2233 112 82.5736 112C77.924 112 74.166 108.242 74.166 103.593V95.1851H82.5736ZM82.5736 90.9813C77.924 90.9813 74.166 87.2233 74.166 82.5736C74.166 77.924 77.924 74.166 82.5736 74.166H103.656C108.306 74.166 112.064 77.924 112.064 82.5736C112.064 87.2233 108.306 90.9813 103.656 90.9813H82.5736Z" fill="#ECB22E"/>
</svg>
