<svg width="144" height="144" viewBox="0 0 144 144" fill="none" xmlns="http://www.w3.org/2000/svg">
<rect width="144" height="144" fill="#FFFC00"/>
<path d="M72.067 111.004C71.8315 111.004 71.6068 110.995 71.4359 110.987C71.3003 110.999 71.1602 111.004 71.02 111.004C66.0726 111.004 62.7646 108.665 59.8454 106.6C57.753 105.122 55.7797 103.726 53.468 103.342C52.3326 103.154 51.2032 103.058 50.1119 103.058C48.1457 103.058 46.5918 103.363 45.4573 103.585C44.7592 103.721 44.1572 103.838 43.692 103.838C43.2047 103.838 42.6126 103.73 42.3659 102.887C42.1703 102.223 42.03 101.579 41.8947 100.959C41.556 99.4094 41.3103 98.4636 40.7302 98.3739C34.525 97.4165 30.8587 96.0061 30.1284 94.2981C30.0519 94.1186 30.0091 93.938 29.9996 93.7594C29.9712 93.2503 30.3306 92.8038 30.8325 92.7206C35.7603 91.9092 40.1419 89.3046 43.8562 84.9768C46.7336 81.6262 48.1466 78.425 48.2983 78.0715C48.3049 78.0556 48.3126 78.0389 48.3205 78.0237C49.0365 76.571 49.179 75.3157 48.7452 74.2936C47.9457 72.4081 45.2977 71.568 43.5458 71.0121C43.1101 70.8743 42.6979 70.7438 42.3696 70.6134C40.8166 70 38.2625 68.7039 38.6028 66.915C38.8506 65.6105 40.576 64.702 41.9705 64.702C42.3577 64.702 42.7008 64.7699 42.9897 64.9055C44.5654 65.6438 45.983 66.0179 47.2022 66.0179C48.7183 66.0179 49.4506 65.4407 49.6277 65.2766C49.584 64.4678 49.5307 63.6127 49.4791 62.8039C49.4791 62.803 49.478 62.7933 49.478 62.7933C49.1221 57.1319 48.6782 50.0864 50.4804 46.0461C55.8743 33.9522 67.3133 33.0117 70.6897 33.0117C70.7797 33.0117 72.1613 32.9981 72.1613 32.9981C72.2237 32.997 72.2914 32.9961 72.3615 32.9961C75.7471 32.9961 87.21 33.9376 92.6072 46.0388C94.4094 50.0818 93.9651 57.1332 93.6081 62.8006L93.5913 63.0718C93.5424 63.8414 93.4972 64.5697 93.459 65.2757C93.6257 65.4292 94.2959 65.9584 95.6592 66.012C96.8215 65.9675 98.1571 65.595 99.6278 64.9064C100.083 64.6929 100.586 64.6486 100.928 64.6486C101.444 64.6486 101.97 64.7492 102.408 64.932L102.432 64.941C103.68 65.384 104.497 66.2693 104.515 67.1994C104.53 68.0664 103.886 69.3623 100.717 70.6139C100.392 70.7424 99.9782 70.8739 99.5407 71.0126C97.7873 71.5691 95.1415 72.4088 94.3419 74.2932C93.9075 75.3152 94.0504 76.5701 94.7666 78.0223C94.7746 78.0382 94.7814 78.0543 94.7891 78.0711C95.0096 78.5879 100.347 90.7577 112.255 92.7195C112.757 92.8031 113.117 93.2501 113.088 93.7583C113.077 93.9409 113.033 94.1235 112.956 94.3019C112.231 96.0004 108.565 97.4087 102.358 98.3675C101.775 98.4575 101.53 99.399 101.194 100.94C101.055 101.577 100.914 102.201 100.721 102.857C100.54 103.473 100.139 103.775 99.4935 103.775H99.3963C98.9762 103.775 98.3811 103.699 97.6305 103.552C96.3185 103.296 94.8471 103.059 92.9759 103.059C91.8849 103.059 90.7557 103.154 89.619 103.342C87.3097 103.727 85.3366 105.12 83.248 106.597C80.323 108.665 77.0139 111.004 72.067 111.004Z" fill="white"/>
<path d="M72.3608 33.9929C75.5481 33.9929 86.5239 34.8491 91.6962 46.4451C93.3994 50.2636 92.9628 57.1806 92.6126 62.737C92.558 63.6188 92.5037 64.4735 92.4596 65.2895L92.4411 65.6404L92.6753 65.9017C92.7699 66.0066 93.6552 66.9319 95.6243 67.0079L95.656 67.0097L95.6891 67.009C96.991 66.9594 98.4573 66.555 100.05 65.809C100.284 65.6992 100.597 65.6457 100.927 65.6457C101.303 65.6457 101.703 65.7164 102.033 65.8554L102.083 65.8752C102.918 66.1678 103.508 66.7195 103.517 67.2187C103.522 67.501 103.311 68.5177 100.351 69.687C100.062 69.8013 99.6811 69.9228 99.2396 70.0619C97.3133 70.6736 94.4031 71.5966 93.4237 73.9046C92.8722 75.2047 93.0232 76.7389 93.8722 78.4642C94.2214 79.2794 99.7199 91.6646 112.093 93.7033C112.09 93.762 112.075 93.8262 112.042 93.9018C111.832 94.3957 110.499 96.1022 102.205 97.382C100.907 97.5809 100.589 99.0358 100.22 100.727C100.087 101.333 99.9519 101.944 99.7658 102.575C99.7089 102.766 99.6983 102.777 99.4939 102.777C99.4657 102.777 99.4326 102.777 99.3964 102.777C99.0286 102.777 98.4703 102.7 97.8231 102.573C96.6445 102.344 95.0344 102.062 92.976 102.062C91.8272 102.062 90.6438 102.162 89.4564 102.36C86.9182 102.782 84.854 104.242 82.668 105.788C79.7322 107.862 76.6978 110.009 72.0682 110.009C71.866 110.009 71.6686 110.002 71.4708 109.992L71.4188 109.99L71.3665 109.994C71.253 110.004 71.1385 110.009 71.0217 110.009C66.3926 110.009 63.357 107.863 60.4225 105.788C58.236 104.242 56.1708 102.782 53.633 102.36C52.4467 102.163 51.2622 102.062 50.114 102.062C48.0561 102.062 46.444 102.377 45.2678 102.607C44.6206 102.734 44.0603 102.842 43.6936 102.842C43.3933 102.842 43.3876 102.824 43.3241 102.607C43.138 101.976 43.0019 101.35 42.8694 100.745C42.4998 99.0523 42.1816 97.5895 40.8844 97.3904C32.5906 96.1095 31.2575 94.4001 31.0471 93.9075C31.0143 93.8299 30.9995 93.7638 30.9962 93.7051C43.3686 91.6681 48.866 79.2824 49.2163 78.4642C50.0668 76.7403 50.2176 75.2062 49.6644 73.9046C48.6849 71.5979 45.7752 70.6736 43.8502 70.063C43.4076 69.923 43.0266 69.8013 42.7371 69.687C40.2375 68.6994 39.4686 67.7045 39.5828 67.1016C39.7153 66.4064 40.9206 65.6995 41.9724 65.6995C42.2088 65.6995 42.416 65.7376 42.5693 65.8093C44.2775 66.6099 45.8369 67.0159 47.2047 67.0159C49.3548 67.0159 50.3118 66.0154 50.4146 65.9012L50.6476 65.6406L50.6289 65.2915C50.5854 64.4759 50.5319 63.6214 50.4754 62.7414C50.1264 57.1836 49.6898 50.2713 51.3923 46.4526C56.5454 34.8992 67.4676 34.0086 70.6918 34.0086C70.7712 34.0086 72.1729 33.9942 72.1729 33.9942C72.2302 33.9938 72.294 33.9929 72.3608 33.9929ZM72.3608 32H72.357C72.2836 32 72.2146 32 72.1489 32.0009C71.625 32.0062 70.7637 32.0146 70.6863 32.0154C68.7974 32.0154 65.0182 32.2822 60.9588 34.0741C58.6378 35.0978 56.5501 36.4822 54.7538 38.1886C52.6123 40.2219 50.8677 42.7288 49.5694 45.6408C47.668 49.9044 48.1193 57.086 48.4818 62.8572L48.4832 62.8662C48.522 63.4843 48.5628 64.1297 48.6 64.7586C48.3211 64.8867 47.8688 65.0219 47.2023 65.0219C46.1297 65.0219 44.8544 64.679 43.4125 64.0034C42.9882 63.8058 42.504 63.7059 41.9697 63.7059C41.1113 63.7059 40.2064 63.9586 39.4214 64.4201C38.4338 65 37.7956 65.8196 37.6223 66.7283C37.5081 67.3294 37.5136 68.5175 38.8333 69.7223C39.5592 70.3856 40.6256 70.9973 42.0019 71.5412C42.3631 71.6835 42.7918 71.8193 43.2458 71.9633C44.8213 72.464 47.2058 73.2206 47.8276 74.6841C48.1427 75.4261 48.0071 76.4025 47.4256 77.5826C47.4104 77.6148 47.3952 77.6463 47.3813 77.6794C47.236 78.0187 45.8804 81.0895 43.0996 84.328C41.5195 86.1696 39.779 87.7087 37.9295 88.9039C35.672 90.3629 33.2292 91.3168 30.6698 91.7384C29.6648 91.9034 28.9471 92.7988 29.0031 93.8165C29.0203 94.1097 29.0891 94.4021 29.2084 94.685C29.2092 94.6868 29.2103 94.6885 29.2112 94.6901C29.6176 95.6407 30.5598 96.4481 32.0916 97.1604C33.9635 98.0298 36.763 98.7612 40.4117 99.3334C40.596 99.684 40.7874 100.565 40.9199 101.168C41.0586 101.81 41.2033 102.469 41.4094 103.169C41.6319 103.928 42.209 104.835 43.6914 104.835C44.2533 104.835 44.8993 104.708 45.6475 104.563C46.7432 104.348 48.2415 104.055 50.1116 104.055C51.1484 104.055 52.2229 104.146 53.3045 104.326C55.3893 104.673 57.1866 105.943 59.2662 107.413C62.31 109.565 65.7554 112 71.0195 112C71.163 112 71.307 111.995 71.4492 111.985C71.6232 111.994 71.8388 112 72.0664 112C77.332 112 80.7765 109.564 83.817 107.414L83.8219 107.409C85.9019 105.941 87.6972 104.673 89.7814 104.326C90.8625 104.146 91.9368 104.055 92.974 104.055C94.7606 104.055 96.1751 104.283 97.4381 104.529C98.2624 104.691 98.9029 104.769 99.3944 104.769L99.4425 104.77H99.4923C100.577 104.77 101.373 104.175 101.677 103.134C101.879 102.448 102.023 101.804 102.166 101.152C102.29 100.587 102.488 99.6805 102.672 99.3262C106.323 98.7529 109.121 98.023 110.994 97.1538C112.522 96.4448 113.463 95.6382 113.872 94.6916C113.994 94.4078 114.066 94.1137 114.082 93.8142C114.14 92.7984 113.421 91.9012 112.415 91.7362C101.04 89.8615 95.9162 78.174 95.7043 77.6774C95.6906 77.6448 95.6752 77.6124 95.6591 77.5808C95.0776 76.4002 94.9434 75.425 95.2587 74.6816C95.8792 73.2195 98.2621 72.4629 99.8387 71.9624C100.295 71.8186 100.725 71.6819 101.084 71.5404C102.636 70.9274 103.745 70.2623 104.477 69.5071C105.351 68.6068 105.521 67.7442 105.511 67.1797C105.484 65.8139 104.44 64.6003 102.779 64.006C102.218 63.774 101.579 63.6516 100.927 63.6516C100.484 63.6516 99.8271 63.7125 99.2055 64.0027C97.8747 64.6254 96.6827 64.9659 95.6593 65.0144C95.1151 64.9868 94.7334 64.8688 94.4863 64.7561C94.5173 64.2234 94.5517 63.6761 94.5872 63.1055L94.602 62.8611C94.9665 57.0862 95.4194 49.8991 93.5171 45.6324C92.2133 42.71 90.4625 40.1968 88.3124 38.1591C86.5091 36.4515 84.4143 35.0674 82.085 34.0443C78.0312 32.2657 74.2522 32 72.3608 32Z" fill="#020202"/>
</svg>
