<svg width="65" height="65" viewBox="0 0 65 65" fill="none" xmlns="http://www.w3.org/2000/svg">
<path d="M13.7 24.3C17.9526 24.3 21.4 20.8526 21.4 16.6C21.4 12.3474 17.9526 8.90002 13.7 8.90002C9.44741 8.90002 6 12.3474 6 16.6C6 20.8526 9.44741 24.3 13.7 24.3Z" stroke="#00BFF2" stroke-width="2" stroke-miterlimit="10" stroke-linecap="round" stroke-linejoin="round"/>
<path d="M36.2 19.4C40.4526 19.4 43.9 15.9526 43.9 11.7C43.9 7.44741 40.4526 4 36.2 4C31.9474 4 28.5 7.44741 28.5 11.7C28.5 15.9526 31.9474 19.4 36.2 19.4Z" stroke="#00BFF2" stroke-width="2" stroke-miterlimit="10" stroke-linecap="round" stroke-linejoin="round"/>
<path d="M50.9002 38.2C55.1528 38.2 58.6002 34.7526 58.6002 30.5C58.6002 26.2474 55.1528 22.8 50.9002 22.8C46.6476 22.8 43.2002 26.2474 43.2002 30.5C43.2002 34.7526 46.6476 38.2 50.9002 38.2Z" stroke="#00BFF2" stroke-width="2" stroke-miterlimit="10" stroke-linecap="round" stroke-linejoin="round"/>
<path d="M13.9002 16.9C15.1152 16.9 16.1002 15.915 16.1002 14.7C16.1002 13.485 15.1152 12.5 13.9002 12.5C12.6852 12.5 11.7002 13.485 11.7002 14.7C11.7002 15.915 12.6852 16.9 13.9002 16.9Z" stroke="#00BFF2" stroke-width="2" stroke-miterlimit="10" stroke-linecap="round" stroke-linejoin="round"/>
<path d="M36.2 12C37.415 12 38.4 11.015 38.4 9.79998C38.4 8.58495 37.415 7.59998 36.2 7.59998C34.985 7.59998 34 8.58495 34 9.79998C34 11.015 34.985 12 36.2 12Z" stroke="#00BFF2" stroke-width="2" stroke-miterlimit="10" stroke-linecap="round" stroke-linejoin="round"/>
<path d="M50.9002 30.8C52.1152 30.8 53.1002 29.8151 53.1002 28.6C53.1002 27.385 52.1152 26.4 50.9002 26.4C49.6852 26.4 48.7002 27.385 48.7002 28.6C48.7002 29.8151 49.6852 30.8 50.9002 30.8Z" stroke="#00BFF2" stroke-width="2" stroke-miterlimit="10" stroke-linecap="round" stroke-linejoin="round"/>
<path d="M10.5996 23.6V17.8H17.1996V23.4" stroke="#00BFF2" stroke-width="2" stroke-miterlimit="10" stroke-linecap="round" stroke-linejoin="round"/>
<path d="M32.9004 18.7V12.9H39.4004V18.5" stroke="#00BFF2" stroke-width="2" stroke-miterlimit="10" stroke-linecap="round" stroke-linejoin="round"/>
<path d="M47.5996 37.2V32H54.1996V37" stroke="#00BFF2" stroke-width="2" stroke-miterlimit="10" stroke-linecap="round" stroke-linejoin="round"/>
<path d="M17.9 38.2C19.5016 38.2 20.8 36.9017 20.8 35.3C20.8 33.6984 19.5016 32.4 17.9 32.4C16.2984 32.4 15 33.6984 15 35.3C15 36.9017 16.2984 38.2 17.9 38.2Z" stroke="#00BFF2" stroke-width="2" stroke-miterlimit="10" stroke-linecap="round" stroke-linejoin="round"/>
<path d="M24.9005 36.1C24.9005 36.1 23.9005 32.4 28.0005 31.1C32.1005 29.8 34.2005 33.7 34.3005 35.7C34.3005 37.6 32.4005 40.5 28.9005 40.2" stroke="#00BFF2" stroke-width="2" stroke-miterlimit="10" stroke-linecap="round" stroke-linejoin="round"/>
<path d="M27.0002 31.5L18.2002 22.9L27.0002 31.5Z" stroke="#00BFF2" stroke-width="2" stroke-miterlimit="10" stroke-linecap="round" stroke-linejoin="round"/>
<path d="M30.7998 31L35.0998 19.4L30.7998 31Z" stroke="#00BFF2" stroke-width="2" stroke-miterlimit="10" stroke-linecap="round" stroke-linejoin="round"/>
<path d="M34.0996 34.6L43.3996 32L34.0996 34.6Z" stroke="#00BFF2" stroke-width="2" stroke-miterlimit="10" stroke-linecap="round" stroke-linejoin="round"/>
<path d="M14.6997 50.5H11.6997C11.6997 50.5 11.5997 45.2 11.6997 42.5C11.7997 39.8 12.7997 39.3 12.7997 39.3H20.6997L25.3997 37.2L28.3997 34.6L30.7997 36.7L26.8997 40.2L21.1997 43.3L20.6997 61.3H14.2997L14.4997 43.4" stroke="#00BFF2" stroke-width="2" stroke-miterlimit="10" stroke-linecap="round" stroke-linejoin="round"/>
<path d="M17.9004 49.4V61.2" stroke="#00BFF2" stroke-width="2" stroke-miterlimit="10" stroke-linecap="round" stroke-linejoin="round"/>
</svg>
