<svg width="144" height="144" viewBox="0 0 144 144" fill="none" xmlns="http://www.w3.org/2000/svg">
<rect width="144" height="144" fill="black"/>
<path d="M39.7402 100.46L40.0027 101.201C39.9691 101.116 39.873 100.857 39.7402 100.46ZM50.1253 83.6697C50.5862 79.6885 52.1512 77.4595 55.1003 75.1744C59.3199 72.0797 64.5909 73.8303 64.5909 73.8303V63.4452C65.8723 63.411 67.1543 63.4902 68.4217 63.682V77.0466C68.4217 77.0466 63.1523 75.296 58.9327 78.3924C55.9852 80.6758 54.417 82.9064 53.9578 86.8877C53.9434 89.0495 54.3322 91.8754 56.1228 94.3189C55.6801 94.082 55.2288 93.8121 54.769 93.5092C50.8246 90.7457 50.1061 86.5996 50.1253 83.6697ZM90.1856 44.2431C87.2829 40.9243 86.1852 37.5736 85.7884 35.2197H89.44C89.44 35.2197 88.7119 41.3916 94.0181 47.461L94.0917 47.5426C92.6616 46.6041 91.3501 45.4962 90.1856 44.2431V44.2431ZM107.776 53.6521V66.7479C107.776 66.7479 103.117 66.5575 99.6683 65.6422C94.8533 64.3621 91.7586 62.3986 91.7586 62.3986C91.7586 62.3986 89.6208 60.9985 89.448 60.9009V87.9438C89.448 89.4495 89.0527 93.2099 87.8478 96.3463C86.2748 100.449 83.8474 103.142 83.4009 103.693C83.4009 103.693 80.4486 107.333 75.24 109.785C70.5451 111.996 66.4231 111.94 65.191 111.996C65.191 111.996 58.0654 112.29 51.6535 107.943C50.267 106.984 48.9727 105.899 47.7875 104.701L47.8195 104.725C54.233 109.072 61.357 108.778 61.357 108.778C62.5907 108.722 66.7127 108.778 71.406 106.567C76.6098 104.115 79.5669 100.475 79.5669 100.475C80.0086 99.9243 82.4472 97.2312 84.0138 93.1267C85.2155 89.992 85.614 86.23 85.614 84.7242V57.6845C85.7868 57.7837 87.923 59.1839 87.923 59.1839C87.923 59.1839 91.0193 61.1489 95.8342 62.4274C99.2842 63.3427 103.942 63.5332 103.942 63.5332V53.2713C105.536 53.6441 106.895 53.7449 107.776 53.6521V53.6521Z" fill="#EE1D52"/>
<path d="M103.945 53.2713V63.53C103.945 63.53 99.2872 63.3395 95.8373 62.4242C91.0223 61.1441 87.926 59.1807 87.926 59.1807C87.926 59.1807 85.7898 57.7805 85.617 57.6813V84.7274C85.617 86.2332 85.2217 89.9952 84.0168 93.1299C82.4438 97.2344 80.0164 99.9275 79.5699 100.478C79.5699 100.478 76.616 104.118 71.409 106.57C66.7157 108.781 62.5937 108.725 61.36 108.781C61.36 108.781 54.236 109.076 47.8225 104.728L47.7905 104.704C47.1134 104.02 46.476 103.298 45.8815 102.541C43.8349 99.9371 42.5803 96.8583 42.2651 95.9798C42.2646 95.9761 42.2646 95.9724 42.2651 95.9686C41.7579 94.4421 40.6921 90.7761 40.8378 87.2253C41.0954 80.9606 43.2076 77.1154 43.7661 76.1521C45.2451 73.5252 47.1688 71.1749 49.4515 69.2058C51.4658 67.5066 53.749 66.1546 56.2074 65.2053C58.865 64.0908 61.7108 63.4934 64.5923 63.4452V73.8303C64.5923 73.8303 59.3213 72.0861 55.1033 75.1744C52.1542 77.4595 50.5892 79.6885 50.1284 83.6697C50.1092 86.5996 50.8276 90.7457 54.7689 93.5108C55.2286 93.8148 55.6799 94.0847 56.1226 94.3205C56.8111 95.2543 57.6492 96.068 58.6029 96.7287C62.4529 99.2714 65.6788 99.449 69.8041 97.7976C72.5548 96.6935 74.6254 94.2052 75.5855 91.4482C76.1888 89.7264 76.1808 87.9934 76.1808 86.2012V35.2197H85.7818C86.1786 37.5736 87.2763 40.9243 90.1791 44.2431C91.3435 45.4962 92.655 46.6041 94.0851 47.5426C94.5075 47.9987 96.6678 50.2533 99.4408 51.6375C100.875 52.353 102.386 52.9011 103.945 53.2713V53.2713Z" fill="white"/>
<path d="M38.4434 92.791V92.799L38.6802 93.4727C38.653 93.3943 38.565 93.1559 38.4434 92.791Z" fill="#69C9D0"/>
<path d="M56.2065 65.2051C53.7481 66.1543 51.465 67.5063 49.4506 69.2055C47.1672 71.1791 45.244 73.5343 43.7668 76.1662C43.2083 77.1263 41.0961 80.9748 40.8385 87.2394C40.6929 90.7902 41.7586 94.4562 42.2658 95.9828C42.2653 95.9865 42.2653 95.9902 42.2658 95.994C42.5859 96.8645 43.8356 99.9432 45.8822 102.555C46.4767 103.312 47.1141 104.034 47.7912 104.718C45.6217 103.218 43.6868 101.404 42.0498 99.3351C40.0208 96.754 38.7695 93.7073 38.443 92.808C38.4426 92.8016 38.4426 92.7952 38.443 92.7888V92.7776C37.9342 91.2527 36.8653 87.5851 37.0141 84.0295C37.2717 77.7648 39.3839 73.9196 39.9424 72.9563C41.4191 70.3241 43.3424 67.9688 45.6262 65.9955C47.6401 64.2958 49.9234 62.9438 52.3821 61.9951C53.9157 61.3588 55.5134 60.8894 57.1474 60.595C59.61 60.1651 62.1252 60.1278 64.5994 60.4846V63.4449C61.7153 63.4921 58.8666 64.0895 56.2065 65.2051V65.2051Z" fill="#69C9D0"/>
<path d="M85.7886 35.2195H76.1876V86.2026C76.1876 87.9948 76.1876 89.723 75.5923 91.4496C74.6226 94.2051 72.56 96.6933 69.8109 97.7975C65.6841 99.4552 62.4581 99.2712 58.6097 96.7285C57.6544 96.0708 56.8142 95.2598 56.123 94.3283C59.4018 96.0773 62.3365 96.0469 65.9721 94.5875C68.7196 93.4834 70.7854 90.9951 71.7519 88.238C72.3568 86.5162 72.3488 84.7833 72.3488 82.9927V32H85.6062C85.6062 32 85.4574 33.2673 85.7886 35.2195ZM103.944 50.434V53.2711C102.388 52.9004 100.879 52.3522 99.4477 51.6373C96.6746 50.2532 94.5144 47.9985 94.0919 47.5425C94.5821 47.8643 95.0908 48.1571 95.6153 48.4194C98.9868 50.1027 102.307 50.6052 103.944 50.434V50.434Z" fill="#69C9D0"/>
</svg>
