<svg width="144" height="144" viewBox="0 0 144 144" fill="none" xmlns="http://www.w3.org/2000/svg">
<rect width="144" height="144" fill="#71B2E7"/>
<path d="M115.561 47.0785C114.218 47.6742 112.837 48.177 111.426 48.5852C113.096 46.696 114.37 44.473 115.148 42.0404C115.322 41.4952 115.141 40.8983 114.693 40.5417C114.245 40.1848 113.623 40.1421 113.131 40.4342C110.134 42.2114 106.901 43.4887 103.511 44.2355C100.096 40.8989 95.4586 39 90.6641 39C80.5436 39 72.3098 47.2335 72.3098 57.3537C72.3098 58.1508 72.3603 58.9435 72.4601 59.7251C59.9015 58.6224 48.226 52.4497 40.2085 42.6149C39.9227 42.2644 39.4825 42.0755 39.0319 42.1116C38.581 42.1469 38.1758 42.4012 37.948 42.792C36.3219 45.5823 35.4622 48.7736 35.4622 52.0206C35.4622 56.443 37.0412 60.6391 39.8303 63.9178C38.9822 63.6241 38.1593 63.257 37.3738 62.8209C36.9521 62.5862 36.4374 62.5898 36.0185 62.83C35.5993 63.0703 35.3364 63.5121 35.3254 63.995C35.3235 64.0764 35.3235 64.1578 35.3235 64.2402C35.3235 70.8415 38.8763 76.7848 44.3082 80.024C43.8416 79.9774 43.3752 79.9099 42.9119 79.8213C42.4342 79.73 41.943 79.8975 41.6208 80.2618C41.2981 80.6258 41.1914 81.1333 41.3401 81.5967C43.3507 87.8739 48.5272 92.4911 54.7851 93.8988C49.5948 97.1496 43.6593 98.8524 37.4284 98.8524C36.1283 98.8524 34.8207 98.776 33.541 98.6246C32.9052 98.5491 32.2974 98.9244 32.0809 99.529C31.8644 100.134 32.0938 100.808 32.6347 101.155C40.6393 106.287 49.8949 109 59.4004 109C78.087 109 89.7768 100.188 96.2926 92.7958C104.418 83.5783 109.078 71.3777 109.078 59.3227C109.078 58.8191 109.07 58.3105 109.054 57.8036C112.26 55.3884 115.02 52.4654 117.266 49.1059C117.607 48.5957 117.57 47.9213 117.175 47.4517C116.78 46.9817 116.122 46.8297 115.561 47.0785Z" fill="white"/>
</svg>
