<svg width="144" height="144" viewBox="0 0 144 144" fill="none" xmlns="http://www.w3.org/2000/svg">
<rect width="144" height="144" fill="#71C42C"/>
<path fill-rule="evenodd" clip-rule="evenodd" d="M106.561 99.1437C112.058 95.1578 115.571 89.2673 115.571 82.7168C115.571 70.7195 103.895 60.991 89.4952 60.991C75.0955 60.991 63.4193 70.7195 63.4193 82.7168C63.4193 94.7177 75.0955 104.446 89.4952 104.446C92.4711 104.446 95.3424 104.024 98.008 103.256L98.7728 103.14C99.2742 103.14 99.7286 103.295 100.158 103.541L105.868 106.838L106.369 107C106.849 107 107.239 106.61 107.239 106.131L107.098 105.496L105.922 101.113L105.832 100.558C105.832 99.9733 106.12 99.4575 106.561 99.1437V99.1437ZM60.2919 37C43.0101 37 29 48.6727 29 63.076C29 70.9323 33.2131 78.0059 39.8106 82.7853C40.3408 83.1605 40.6871 83.7809 40.6871 84.4843L40.5789 85.148L39.1685 90.4072L38.999 91.1683C38.999 91.7454 39.4679 92.2144 40.0414 92.2144L40.6474 92.0196L47.4974 88.0626C48.0096 87.7668 48.5543 87.5828 49.1567 87.5828L50.0765 87.7199C53.2724 88.6397 56.7208 89.1519 60.2919 89.1519L62.0089 89.1086C61.3307 87.0742 60.9592 84.9316 60.9592 82.7204C60.9592 69.5868 73.7357 58.9386 89.4952 58.9386L91.1942 58.9819C88.8387 46.5264 75.8999 37 60.2919 37V37ZM80.802 79.2431C78.883 79.2431 77.3284 77.6848 77.3284 75.7658C77.3284 73.8432 78.883 72.2886 80.802 72.2886C82.7246 72.2886 84.2793 73.8432 84.2793 75.7658C84.2793 77.6848 82.7246 79.2431 80.802 79.2431ZM98.1884 79.2431C96.2658 79.2431 94.7111 77.6848 94.7111 75.7658C94.7111 73.8432 96.2658 72.2886 98.1884 72.2886C100.107 72.2886 101.662 73.8432 101.662 75.7658C101.662 77.6848 100.107 79.2431 98.1884 79.2431ZM49.86 58.9025C47.5551 58.9025 45.6902 57.034 45.6902 54.7327C45.6902 52.4277 47.5551 50.5592 49.86 50.5592C52.165 50.5592 54.0335 52.4277 54.0335 54.7327C54.0335 57.034 52.165 58.9025 49.86 58.9025ZM70.7201 58.9025C68.4151 58.9025 66.5502 57.034 66.5502 54.7327C66.5502 52.4277 68.4151 50.5592 70.7201 50.5592C73.025 50.5592 74.8935 52.4277 74.8935 54.7327C74.8935 57.034 73.025 58.9025 70.7201 58.9025Z" fill="white"/>
</svg>
