<svg width="144" height="144" viewBox="0 0 144 144" fill="none" xmlns="http://www.w3.org/2000/svg">
<rect width="144" height="144" fill="#82E97D"/>
<path d="M32 112L37.6233 91.4567C34.1533 85.4433 32.33 78.6267 32.3333 71.6367C32.3433 49.7833 50.1267 32 71.9767 32C82.58 32.0033 92.5333 36.1333 100.02 43.6267C107.503 51.12 111.623 61.08 111.62 71.6733C111.61 93.53 93.8267 111.313 71.9767 111.313C65.3433 111.31 58.8067 109.647 53.0167 106.487L32 112V112ZM53.99 99.31C59.5767 102.627 64.91 104.613 71.9633 104.617C90.1233 104.617 104.917 89.8367 104.927 71.6667C104.933 53.46 90.21 38.7 71.99 38.6933C53.8167 38.6933 39.0333 53.4733 39.0267 71.64C39.0233 79.0567 41.1967 84.61 44.8467 90.42L41.5167 102.58L53.99 99.31V99.31ZM91.9467 81.0967C91.7 80.6833 91.04 80.4367 90.0467 79.94C89.0567 79.4433 84.1867 77.0467 83.2767 76.7167C82.37 76.3867 81.71 76.22 81.0467 77.2133C80.3867 78.2033 78.4867 80.4367 77.91 81.0967C77.3333 81.7567 76.7533 81.84 75.7633 81.3433C74.7733 80.8467 71.58 79.8033 67.7967 76.4267C64.8533 73.8 62.8633 70.5567 62.2867 69.5633C61.71 68.5733 62.2267 68.0367 62.72 67.5433C63.1667 67.1 63.71 66.3867 64.2067 65.8067C64.71 65.2333 64.8733 64.82 65.2067 64.1567C65.5367 63.4967 65.3733 62.9167 65.1233 62.42C64.8733 61.9267 62.8933 57.05 62.07 55.0667C61.2633 53.1367 60.4467 53.3967 59.84 53.3667L57.94 53.3333C57.28 53.3333 56.2067 53.58 55.3 54.5733C54.3933 55.5667 51.8333 57.96 51.8333 62.8367C51.8333 67.7133 55.3833 72.4233 55.8767 73.0833C56.3733 73.7433 62.86 83.75 72.7967 88.04C75.16 89.06 77.0067 89.67 78.4433 90.1267C80.8167 90.88 82.9767 90.7733 84.6833 90.52C86.5867 90.2367 90.5433 88.1233 91.37 85.81C92.1967 83.4933 92.1967 81.51 91.9467 81.0967V81.0967Z" fill="white"/>
</svg>
