<svg width="65" height="65" viewBox="0 0 65 65" fill="none" xmlns="http://www.w3.org/2000/svg">
<path d="M32.2 60.4C47.7744 60.4 60.4 47.7744 60.4 32.2C60.4 16.6256 47.7744 4 32.2 4C16.6256 4 4 16.6256 4 32.2C4 47.7744 16.6256 60.4 32.2 60.4Z" stroke="#00BFF2" stroke-width="2" stroke-miterlimit="10" stroke-linecap="round" stroke-linejoin="round"/>
<path d="M6.2998 21L18.6998 57L6.2998 21Z" stroke="#00BFF2" stroke-width="2" stroke-miterlimit="10" stroke-linecap="round" stroke-linejoin="round"/>
<path d="M32.6998 38.3L23.2998 59L32.6998 38.3Z" stroke="#00BFF2" stroke-width="2" stroke-miterlimit="10" stroke-linecap="round" stroke-linejoin="round"/>
<path d="M15.0996 19.1L26.6996 51.4L15.0996 19.1Z" stroke="#00BFF2" stroke-width="2" stroke-miterlimit="10" stroke-linecap="round" stroke-linejoin="round"/>
<path d="M26.4004 19.1L41.2004 59L26.4004 19.1Z" stroke="#00BFF2" stroke-width="2" stroke-miterlimit="10" stroke-linecap="round" stroke-linejoin="round"/>
<path d="M36.2002 19.1L47.3002 48.7L36.2002 19.1Z" stroke="#00BFF2" stroke-width="2" stroke-miterlimit="10" stroke-linecap="round" stroke-linejoin="round"/>
<path d="M43 58.3L59 23.3L43 58.3Z" stroke="#00BFF2" stroke-width="2" stroke-miterlimit="10" stroke-linecap="round" stroke-linejoin="round"/>
<path d="M53.6998 13.9C53.6998 13.9 49.0998 13.4 47.6998 17.1C46.2998 20.8 54.1998 32 53.6998 33.8" stroke="#00BFF2" stroke-width="2" stroke-miterlimit="10" stroke-linecap="round" stroke-linejoin="round"/>
<path d="M7.7998 18.9H19.1998H7.7998Z" stroke="#00BFF2" stroke-width="2" stroke-miterlimit="10" stroke-linecap="round" stroke-linejoin="round"/>
<path d="M23.2998 18.9H39.9998H23.2998Z" stroke="#00BFF2" stroke-width="2" stroke-miterlimit="10" stroke-linecap="round" stroke-linejoin="round"/>
</svg>
