<svg width="144" height="144" viewBox="0 0 144 144" fill="none" xmlns="http://www.w3.org/2000/svg">
<rect width="144" height="144" fill="#D92F2F"/>
<path d="M48.5477 69.5496L64.1131 77.1446C67.1131 78.6135 66.6444 83.0057 63.4102 83.8184L46.6099 88.0071C44.5164 88.5384 42.4365 87.0853 42.2023 84.9446C41.671 80.3493 42.2023 75.8182 43.6085 71.6136C44.2976 69.5653 46.6258 68.6121 48.5477 69.5496ZM55.4242 106.932C59.1272 109.463 63.363 111.199 67.8335 111.949C69.9587 112.309 71.9274 110.715 71.9916 108.559L72.6008 91.2434C72.71 87.9151 68.6164 86.2572 66.3806 88.7278L54.7853 101.606C53.346 103.212 53.6428 105.714 55.4242 106.932ZM78.1318 89.7572L87.3208 104.448C88.4617 106.276 90.9617 106.682 92.6348 105.307C96.135 102.416 98.9332 98.8055 100.871 94.7433C101.792 92.7902 100.793 90.4759 98.7454 89.8043L82.2739 84.4592C79.1005 83.4434 76.3662 86.9276 78.1318 89.7572ZM101.308 69.0964C99.4644 64.8606 96.7444 61.1887 93.4315 58.2668C91.8223 56.8451 89.3222 57.1731 88.1175 58.9545L78.4285 73.3171C76.5692 76.0825 79.1629 79.662 82.3659 78.7404L99.0252 73.9731C101.105 73.3637 102.168 71.0823 101.308 69.0964ZM51.5491 36.7154C49.6741 37.606 48.9713 39.9186 50.0023 41.7168L66.2709 69.9089C68.0991 73.0653 72.9288 71.7684 72.9288 68.1277V35.5747C72.9446 33.4966 71.1787 31.8403 69.1008 32.0123C65.4881 32.2935 58.8928 33.2154 51.5491 36.7154Z" fill="white"/>
</svg>
