<svg width="144" height="144" viewBox="0 0 144 144" fill="none" xmlns="http://www.w3.org/2000/svg">
<rect width="144" height="144" fill="#FF0000"/>
<path d="M112.929 51.3885C111.941 47.7174 109.047 44.8237 105.376 43.8352C98.6703 42 71.8464 42 71.8464 42C71.8464 42 45.0232 42 38.3172 43.7652C34.7174 44.7531 31.7525 47.7181 30.7646 51.3885C29 58.0938 29 72 29 72C29 72 29 85.9762 30.7646 92.6115C31.7531 96.2819 34.6468 99.1763 38.3179 100.165C45.0938 102 71.8471 102 71.8471 102C71.8471 102 98.6703 102 105.376 100.235C109.047 99.2469 111.941 96.3525 112.93 92.6821C114.694 85.9762 114.694 72.0706 114.694 72.0706C114.694 72.0706 114.765 58.0938 112.929 51.3885Z" fill="white"/>
<path d="M63.3066 84.8475L85.6122 72.0004L63.3066 59.1533V84.8475Z" fill="#FF0000"/>
</svg>
