<svg width="300" height="108" viewBox="0 0 300 108" fill="none" xmlns="http://www.w3.org/2000/svg">
<path d="M90.043 78.0403H103.665V75.8587H90.043V78.0403Z" fill="#B3D079"/>
<path d="M127.674 91.7156C136.933 91.7156 141.35 86.8202 143.638 81.6055L142.627 81.1266C139.913 87.0862 136.188 89.4807 130.707 89.4807C123.896 89.4807 118.895 83.3614 118.895 71.7082C118.895 60.4275 122.566 53.8293 128.419 53.8293C134.592 53.8293 137.785 58.9376 141.562 67.0789H142.414V52.5522H141.775L139.274 55.3192C136.774 53.9357 133.262 52.8183 129.324 52.8183C118.469 52.8183 109.157 60.3211 109.157 72.9853C109.157 84.6917 116.021 91.7156 127.674 91.7156Z" fill="#B3D079"/>
<path d="M160.182 91.2367C168.27 91.2367 173.378 86.2881 173.378 78.3064C173.378 70.378 168.536 65.6954 160.182 65.6954C152.041 65.6954 146.932 70.5908 146.932 78.5192C146.932 86.5009 151.721 91.2367 160.182 91.2367ZM160.395 90.1725C156.776 90.1725 155.606 85.5963 155.606 78.4128C155.606 71.2293 156.351 66.7596 159.916 66.7596C163.534 66.7596 164.705 71.2293 164.705 78.4128C164.705 85.5963 163.907 90.1725 160.395 90.1725Z" fill="#B3D079"/>
<path d="M187.382 91.2367C191.692 91.2367 193.821 89.3211 195.257 85.3303L194.566 85.011C193.555 87.4055 192.384 88.4165 190.681 88.4165C188.287 88.4165 187.542 86.9798 187.542 84V68.2495H195.045V66.4935H187.542V57.3945L179.454 59.6293V66.3871L174.718 67.3449V68.3559H179.347V83.5211C179.347 89.3211 183.019 91.2367 187.382 91.2367Z" fill="#B3D079"/>
<path d="M208.024 91.2367C212.334 91.2367 214.463 89.3211 215.9 85.3303L215.208 85.011C214.197 87.4055 213.026 88.4165 211.323 88.4165C208.929 88.4165 208.184 86.9798 208.184 84V68.2495H215.687V66.4935H208.184V57.3945L200.096 59.6293V66.3871L195.36 67.3449V68.3559H199.989V83.5211C199.989 89.3211 203.661 91.2367 208.024 91.2367Z" fill="#B3D079"/>
<path d="M225.668 91.0771C229.286 91.0771 231.734 89.1082 233.596 86.9798H233.809C234.395 89.6404 235.938 91.0238 239.556 91.0238C241.844 91.0238 243.6 90.066 245.622 88.6293L245.303 88.044C242.536 89.2679 241.472 88.6826 241.472 86.0752V74.6348C241.472 68.4091 238.013 65.855 231.042 65.855C222.848 65.855 219.496 67.877 219.496 71.1229C219.496 73.3046 221.305 75.0073 223.54 75.0073C226.2 75.0073 227.584 73.5174 227.584 71.0697C227.584 69.7926 227.105 68.7816 226.094 67.877C226.998 67.2917 228.275 66.9192 229.659 66.9192C232.266 66.9192 233.33 68.4091 233.33 72.0275V76.8165C231.149 77.4018 225.189 76.8697 221.464 78.8917C219.229 80.1156 218.006 82.4569 218.006 84.5321C218.006 87.6715 220.347 91.0771 225.668 91.0771ZM230.031 87.778C227.956 87.778 226.626 86.2348 226.626 83.7339C226.626 79.7963 228.009 78.466 233.33 77.8807V85.8624C232.639 86.9798 231.308 87.778 230.031 87.778Z" fill="#B3D079"/>
<path d="M258.624 100.495C253.516 100.495 250.802 99.1651 250.802 95.7596C250.802 94.2697 251.44 93.2587 252.771 92.2477H260.539C264.903 92.2477 266.233 93.4183 266.233 95.3339C266.233 98.633 263.147 100.495 258.624 100.495ZM258.517 81.4458C255.804 81.4458 254.846 79.2642 254.846 74.1027C254.846 68.9413 255.378 66.8128 258.039 66.8128C260.806 66.8128 261.71 69.4734 261.71 74.1027C261.71 79.2642 261.125 81.4458 258.517 81.4458ZM258.305 65.855C251.76 65.855 247.077 69.1009 247.077 74.2091C247.077 78.1468 249.525 80.5945 253.25 81.7651C249.152 82.6165 247.024 85.011 247.024 86.767C247.024 88.7358 248.301 91.0238 251.494 92.0881V92.1945C247.237 92.833 245.694 94.1633 245.694 96.3982C245.694 99.4844 250.642 101.453 257.24 101.453C265.754 101.453 271.448 97.3027 271.448 92.4605C271.448 88.2037 268.468 86.0752 262.668 86.0752H256.442C253.303 86.0752 252.026 85.5431 252.026 84.4789C252.026 83.4147 252.771 82.7229 254.899 82.1376C255.963 82.2972 257.081 82.4036 258.305 82.4036C264.796 82.4036 269.479 79.1578 269.479 73.9963C269.479 70.5908 267.404 68.2495 264.264 66.9724C265.009 65.6954 266.18 64.6312 267.244 64.1523C267.244 66.1211 268.787 67.3449 270.171 67.3449C272.033 67.3449 272.991 66.0146 272.991 64.5247C272.991 62.7156 271.82 61.3853 269.585 61.3853C266.712 61.3853 264.53 63.7266 263.306 66.6C261.817 66.1211 260.114 65.855 258.305 65.855Z" fill="#B3D079"/>
<path d="M286.876 91.2367C292.091 91.2367 295.55 88.9486 298.051 85.0642L297.465 84.6917C295.497 87.4055 293.368 88.9486 290.229 88.9486C285.121 88.9486 282.407 85.5431 282.407 78.8385V78.7321V77.9871H298.157C298.53 70.644 294.432 65.6954 286.823 65.6954C279.587 65.6954 273.787 70.4844 273.787 78.8385C273.787 86.9266 279.108 91.2367 286.876 91.2367ZM286.504 66.7596C289.431 66.7596 290.654 70.7504 289.963 76.9229H282.407C282.62 70.644 283.737 66.7596 286.504 66.7596Z" fill="#B3D079"/>
<path d="M21.2317 91.7156C27.7234 91.7156 32.8849 89.8 36.184 87.8844V76.9761C36.184 74.7945 37.195 74.2624 40.1216 74.1027V73.411H22.0831V74.1027C26.4996 74.2624 27.7234 75.1669 27.7234 77.0293V89.1082C26.2867 90.2257 24.3711 90.7046 22.1363 90.7046C16.3363 90.7046 11.8665 84.7449 11.8665 72.2403C11.8665 59.7357 16.2831 53.8293 21.7638 53.8293C27.4574 53.8293 30.8629 58.4055 34.6409 66.0146H35.4922V52.5522H34.8537L32.0867 55.3192C29.639 53.9357 26.3932 52.8183 22.0831 52.8183C10.8023 52.8183 2.12891 60.5339 2.12891 72.3468C2.12891 84.5321 10.0041 91.7156 21.2317 91.7156Z" fill="#EACF6D"/>
<path d="M61.9739 91.7156C72.8822 91.7156 80.7042 84.1064 80.7042 72.1339C80.7042 60.2146 73.1482 52.8183 61.9739 52.8183C51.1188 52.8183 43.2968 60.4807 43.2968 72.3468C43.2968 84.3193 50.8528 91.7156 61.9739 91.7156ZM62.24 90.7046C56.0143 90.7046 53.0344 85.011 53.0344 72.2403C53.0344 59.5229 55.5886 53.8293 61.7611 53.8293C67.9335 53.8293 70.9666 59.5229 70.9666 72.2403C70.9666 85.011 68.4124 90.7046 62.24 90.7046Z" fill="#EACF6D"/>
<path fill-rule="evenodd" clip-rule="evenodd" d="M161.596 5.80762L186.224 30.4359L181.521 35.1392L161.596 15.2141L150.296 26.5142L145.592 21.811L161.596 5.80762Z" fill="#B3D079"/>
<path d="M134.29 5.80762L158.919 30.4359L154.215 35.1392L134.29 15.2141L114.365 35.1392L109.662 30.4359L116.461 23.6373V10.1067H124.546V15.5519L134.29 5.80762Z" fill="#EACF6D"/>
<path d="M130.206 28.2987H138.291V36.7884H130.206V28.2987Z" fill="#EACF6D"/>
<path d="M295.094 55.325C297.382 55.325 299.226 53.4758 299.226 51.1928C299.226 48.9097 297.377 47.0606 295.094 47.0606C292.811 47.0606 290.962 48.9097 290.962 51.1928C290.962 53.4758 292.811 55.325 295.094 55.325ZM295.094 54.2351C293.415 54.2351 292.057 52.8715 292.057 51.1928C292.057 49.5141 293.415 48.1504 295.094 48.1504C296.778 48.1504 298.136 49.5141 298.136 51.1928C298.136 52.8767 296.778 54.2351 295.094 54.2351ZM293.601 53.0523H294.593V51.7713H295.228L295.817 53.0523H296.902L296.179 51.5853C296.545 51.3787 296.788 51.012 296.788 50.5006C296.788 49.7 296.189 49.2403 295.466 49.2403H293.601V53.0523ZM294.593 51.0533V49.9738H295.218C295.497 49.9738 295.745 50.1236 295.745 50.5006C295.745 50.8674 295.502 51.0533 295.213 51.0533H294.593Z" fill="#CAC6A5"/>
</svg>
