<?xml version="1.0" encoding="UTF-8"?> <svg xmlns="http://www.w3.org/2000/svg" width="96" height="22" viewBox="0 0 96 22" fill="none"><path d="M14.6145 6.10826L17.6853 3.14869C15.3139 0.988923 13.0094 0.0212402 10.2681 0.0212402C4.22256 0.0212402 0 4.58778 0 11.1258C0 17.4265 4.30015 21.9998 10.2245 21.9998C13.0354 21.9998 15.2554 21.1384 17.368 19.2161L14.5741 16.0134C13.231 17.1987 12.15 17.6475 10.7012 17.6475C7.27374 17.6475 4.78592 14.8276 4.78592 10.9416C4.78592 7.19747 7.23601 4.37412 10.4844 4.37412C12.0761 4.37412 13.3979 4.92692 14.6145 6.10826Z" fill="white"></path><path d="M34.7926 0.427883V2.5413C33.4166 0.930943 31.2142 0 28.6679 0C23.064 0 18.9972 4.54054 18.9972 10.7971C18.9972 17.0786 23.0816 21.6378 28.7088 21.6378C31.1451 21.6378 33.4065 20.6492 34.7926 19.0445V21.2099H39.5036V0.427883H34.7926ZM34.7527 10.7547C34.7527 14.7504 31.9338 16.8412 29.1499 16.8412C26.0987 16.8412 23.7082 14.1676 23.7082 10.7547C23.7082 7.3571 26.0477 4.79546 29.1499 4.79546C31.904 4.79546 34.7527 7.02475 34.7527 10.7547Z" fill="white"></path><path d="M84.7095 0C78.3861 0 74.1375 4.42523 74.1375 11.0119C74.1375 17.3663 78.5471 21.9786 84.6224 21.9786C90.5504 21.9786 95.1944 17.2425 95.1944 11.1973C95.1944 4.70898 90.7848 0 84.7095 0ZM84.6659 17.6263C81.2055 17.6263 78.8809 14.968 78.8809 11.0125C78.8809 7.05696 81.2231 4.39866 84.7095 4.39866C88.2513 4.39866 90.451 6.96822 90.451 11.1052C90.4516 14.8832 88.0185 17.6263 84.6659 17.6263Z" fill="white"></path><path d="M53.8246 4.35288C54.9131 4.35288 55.883 4.6191 56.7748 5.16512C57.2617 3.80121 57.918 2.54299 58.7328 1.41422C57.1208 0.451058 55.4802 0 53.6078 0C47.6144 0 43.3939 4.52075 43.3445 10.9927L43.3397 11.42V21.2404H48.124L48.14 10.558C48.317 6.962 50.7017 4.35288 53.8246 4.35288Z" fill="white"></path><path d="M69.4893 4.35288C70.3902 4.35288 71.2124 4.54223 71.9883 4.92998C72.5033 3.57398 73.1905 2.32877 74.0377 1.21639C72.5315 0.387751 71.0046 0 69.2725 0C63.2791 0 59.0586 4.52075 59.0092 10.9927L59.0044 11.42V21.2404H63.7888L63.8047 10.558C63.9822 6.962 66.3664 4.35288 69.4893 4.35288Z" fill="white"></path></svg> 