<svg width="275" height="114" viewBox="0 0 275 114" fill="none" xmlns="http://www.w3.org/2000/svg">
<g clip-path="url(#clip0)">
<path d="M11.6507 91.3596V95.0043H0.227539V79.8184H11.6507V83.328H4.8002V85.53H10.343V88.9046H4.8002V91.385L11.6507 91.3596Z" fill="white"/>
<path d="M21.8677 95.0043L21.024 92.0093H16.9576L16.0127 95.0043H12.2246L16.9154 79.8184H21.8424L26.6006 95.0043H21.8677ZM17.7 88.6768H20.231L18.9992 84.2729L17.7 88.6768Z" fill="white"/>
<path d="M26.457 90.5925L30.785 89.8163C31.1478 91.0396 32.0843 91.6471 33.586 91.6471C34.7587 91.6471 35.3408 91.3349 35.3408 90.719C35.3492 90.5664 35.3159 90.4143 35.2446 90.2791C35.1733 90.1439 35.0666 90.0306 34.9358 89.9513C34.483 89.7097 33.9923 89.547 33.4847 89.4704C30.8272 88.9642 29.1146 88.2893 28.3553 87.471C27.622 86.6832 27.2176 85.6449 27.2248 84.5688C27.2113 83.8887 27.3507 83.2143 27.6325 82.5952C27.9143 81.9761 28.3314 81.4281 28.853 80.9916C30.1924 79.9648 31.8599 79.4609 33.5438 79.5743C36.6316 79.5743 38.6732 80.8144 39.6688 83.2948L35.8132 84.4675C35.6317 83.98 35.2943 83.5661 34.8534 83.29C34.4126 83.0139 33.8929 82.891 33.3751 82.9405C32.3627 82.9405 31.848 83.2526 31.848 83.8854C31.8452 84.0154 31.8755 84.144 31.936 84.2591C31.9965 84.3742 32.0853 84.472 32.1939 84.5434C32.6118 84.7621 33.0617 84.913 33.5269 84.9906C34.8406 85.2334 36.1349 85.5717 37.3993 86.003C38.1736 86.3091 38.8399 86.8375 39.3144 87.5216C39.8351 88.2611 40.1042 89.1484 40.0822 90.0526C40.0966 90.7807 39.9337 91.5015 39.6074 92.1526C39.2811 92.8038 38.8012 93.3657 38.2092 93.79C36.7805 94.7995 35.0549 95.3015 33.3076 95.2158C29.6123 95.2158 27.3288 93.6747 26.457 90.5925Z" fill="white"/>
<path d="M48.2831 83.4377V95.0043H43.8539V83.4377H40.707V79.8184H51.4468V83.4545L48.2831 83.4377Z" fill="white"/>
<path d="M66.8014 89.1918L71.0619 89.4449C70.9648 91.0901 70.2219 92.6304 68.9949 93.7307C67.6368 94.7819 65.9435 95.3048 64.2292 95.2024C62.5148 95.1 60.8958 94.3792 59.6725 93.1739C58.3278 91.6083 57.6442 89.5815 57.7658 87.5214C57.6654 85.4473 58.3053 83.4051 59.5712 81.7591C60.8123 80.4588 62.5026 79.6808 64.2975 79.5836C66.0925 79.4864 67.8569 80.0774 69.2312 81.2361C70.3509 82.4464 71.0004 84.0176 71.0619 85.6653L66.7086 85.9015C66.7756 85.1223 66.5698 84.3439 66.1265 83.6996C65.9636 83.4893 65.7553 83.3187 65.5172 83.2003C65.2791 83.082 65.0172 83.019 64.7513 83.0162C63.2833 83.0162 62.5494 84.4926 62.5494 87.4454C62.4504 88.6008 62.6479 89.7623 63.123 90.8201C63.2852 91.0994 63.5196 91.3299 63.8017 91.4873C64.0838 91.6447 64.4031 91.7231 64.726 91.7144C65.9578 91.7059 66.6327 90.8707 66.8014 89.1918Z" fill="white"/>
<path d="M79.2872 95.2158C78.3166 95.2517 77.3493 95.0816 76.4492 94.7166C75.5491 94.3516 74.7365 93.8 74.065 93.0982C72.6707 91.542 71.9462 89.4989 72.0486 87.4119C71.97 85.3637 72.659 83.36 73.9806 81.7932C74.649 81.0463 75.4767 80.4591 76.4025 80.0751C77.3283 79.691 78.3286 79.5199 79.3294 79.5743C80.2895 79.5386 81.2463 79.7057 82.1374 80.0648C83.0285 80.4239 83.8339 80.9668 84.501 81.6582C85.8753 83.1844 86.5909 85.1918 86.4921 87.2432C86.5978 89.3622 85.8781 91.4397 84.4842 93.0392C83.8259 93.755 83.0207 94.3201 82.1237 94.6957C81.2267 95.0714 80.2591 95.2488 79.2872 95.2158ZM79.2872 91.7737C79.6389 91.7892 79.9872 91.6995 80.2877 91.5162C80.5883 91.3329 80.8274 91.0642 80.9745 90.7444C81.3978 89.5376 81.5729 88.2578 81.4892 86.9817C81.4892 84.3438 80.7805 83.0221 79.3631 83.0165C77.8333 83.0165 77.0684 84.5238 77.0684 87.5385C77.0937 90.3563 77.8277 91.7737 79.2872 91.7737Z" fill="white"/>
<path d="M96.4136 95.0043L95.57 92.0093H91.5035L90.5755 95.0043H86.7959L91.4782 79.8184H96.4052L101.172 95.0043H96.4136ZM92.2797 88.6937H94.7348L93.5114 84.2898L92.2797 88.6937Z" fill="white"/>
<path d="M101.003 90.5926L105.322 89.8164C105.685 91.0397 106.622 91.6471 108.132 91.6471C109.305 91.6471 109.887 91.335 109.887 90.7191C109.895 90.5665 109.862 90.4144 109.791 90.2792C109.719 90.1439 109.612 90.0306 109.482 89.9514C109.028 89.7111 108.538 89.5485 108.031 89.4705C105.365 88.9643 103.66 88.2894 102.901 87.471C102.16 86.688 101.755 85.6466 101.771 84.5688C101.757 83.8887 101.897 83.2143 102.178 82.5953C102.46 81.9762 102.877 81.4282 103.399 80.9917C104.735 79.9647 106.4 79.4607 108.081 79.5743C111.175 79.5743 113.219 80.8145 114.215 83.2949L110.351 84.4676C110.172 83.9799 109.836 83.5654 109.397 83.2891C108.957 83.0127 108.438 82.8901 107.921 82.9405C106.9 82.9405 106.394 83.2527 106.394 83.8855C106.391 84.0155 106.421 84.144 106.482 84.2591C106.542 84.3742 106.631 84.4721 106.74 84.5435C107.157 84.7635 107.607 84.9145 108.073 84.9906C109.386 85.2357 110.68 85.574 111.945 86.003C112.719 86.3092 113.386 86.8375 113.86 87.5216C114.377 88.263 114.646 89.149 114.628 90.0526C114.643 90.7808 114.48 91.5016 114.153 92.1527C113.827 92.8038 113.347 93.3658 112.755 93.79C111.326 94.7984 109.601 95.3002 107.853 95.2158C104.153 95.2158 101.869 93.6747 101.003 90.5926Z" fill="white"/>
<path d="M122.82 83.4377V95.0043H118.408V83.4377H115.261V79.8184H125.967V83.4545L122.82 83.4377Z" fill="white"/>
<path d="M145.869 79.8184V95.0043H141.204V89.0986H137.652V95.0043H132.986V79.8184H137.652V85.4034H141.204V79.8184H145.869Z" fill="white"/>
<path d="M155.065 95.2158C154.094 95.2517 153.127 95.0816 152.227 94.7166C151.326 94.3516 150.514 93.8 149.842 93.0982C148.448 91.542 147.724 89.4989 147.826 87.4119C147.747 85.3637 148.436 83.36 149.758 81.7932C150.426 81.0463 151.254 80.4591 152.18 80.0751C153.106 79.691 154.106 79.5199 155.107 79.5743C156.067 79.5386 157.024 79.7057 157.915 80.0648C158.806 80.4239 159.611 80.9668 160.278 81.6582C161.656 83.1825 162.372 85.1913 162.269 87.2432C162.375 89.3622 161.655 91.4397 160.262 93.0392C159.603 93.755 158.798 94.3201 157.901 94.6957C157.004 95.0714 156.036 95.2488 155.065 95.2158ZM155.065 91.7737C155.416 91.7892 155.765 91.6995 156.065 91.5162C156.366 91.3329 156.605 91.0642 156.752 90.7444C157.175 89.5376 157.35 88.2578 157.267 86.9817C157.267 84.3438 156.558 83.0221 155.141 83.0165C153.611 83.0165 152.846 84.5238 152.846 87.5385C152.837 90.3563 153.571 91.7737 155.039 91.7737H155.065Z" fill="white"/>
<path d="M180.746 79.8184V95.0043H176.418V84.1295L173.609 95.0043H170.656L167.737 84.1463V95.0043H164.244V79.8184H170.335L172.537 87.8838L174.621 79.8184H180.746Z" fill="white"/>
<path d="M194.819 91.3596V95.0043H183.396V79.8184H194.819V83.328H187.968V85.53H193.503V88.9046H187.968V91.385L194.819 91.3596Z" fill="white"/>
<path d="M221.377 79.8184L217.353 95.0043H213.43L211.304 86.6267L209.305 95.0043H205.23L201.188 79.8184H205.576L207.702 88.5587L209.777 79.8184H213.43L215.683 88.5756L217.809 79.8184H221.377Z" fill="white"/>
<path d="M230.497 95.0043L229.653 92.0093H225.587L224.659 95.0043H220.879L225.561 79.8184H230.488L235.255 95.0043H230.497ZM226.363 88.6937H228.818L227.594 84.2898L226.363 88.6937Z" fill="white"/>
<path d="M242.021 83.4377V95.0043H237.609V83.4377H234.462V79.8184H245.168V83.4545L242.021 83.4377Z" fill="white"/>
<path d="M254.845 89.1918L259.106 89.4449C259.012 91.0891 258.272 92.6295 257.047 93.7307C255.688 94.7825 253.993 95.3057 252.277 95.2033C250.562 95.1009 248.941 94.3799 247.716 93.1739C246.379 91.6048 245.699 89.5798 245.818 87.5214C245.719 85.4488 246.355 83.4079 247.615 81.7591C248.856 80.4588 250.547 79.6808 252.341 79.5836C254.136 79.4864 255.901 80.0774 257.275 81.2361C258.395 82.4464 259.044 84.0176 259.106 85.6653L254.761 85.9015C254.833 85.1206 254.623 84.3397 254.17 83.6996C254.009 83.4895 253.803 83.3189 253.566 83.2005C253.329 83.0821 253.068 83.0191 252.804 83.0162C251.336 83.0162 250.602 84.4926 250.602 87.4454C250.501 88.6 250.695 89.7613 251.167 90.8201C251.331 91.0995 251.567 91.3298 251.851 91.4871C252.134 91.6444 252.454 91.7229 252.778 91.7144C254.01 91.7059 254.702 90.8707 254.845 89.1918Z" fill="white"/>
<path d="M273.684 79.8184V95.0043H269.027V89.0986H265.467V95.0043H260.81V79.8184H265.467V85.4034H269.027V79.8184H273.684Z" fill="white"/>
<path d="M51.8849 113.641C51.1466 113.669 50.4128 113.515 49.7479 113.192C49.083 112.87 48.5074 112.39 48.0715 111.793C47.1261 110.46 46.6431 108.854 46.6964 107.221C46.6415 105.592 47.1578 103.995 48.1559 102.707C48.6098 102.121 49.1955 101.651 49.8655 101.334C50.5354 101.018 51.2707 100.864 52.0114 100.885C52.7469 100.859 53.4778 101.011 54.1417 101.328C54.8057 101.645 55.3832 102.118 55.8248 102.707C56.7901 104.022 57.2835 105.624 57.2253 107.254C57.3026 108.92 56.7852 110.558 55.7657 111.878C55.3005 112.453 54.7075 112.912 54.0338 113.218C53.3601 113.524 52.6243 113.669 51.8849 113.641V113.641ZM51.8849 111.844C52.2792 111.848 52.6692 111.761 53.0237 111.588C53.3781 111.415 53.6873 111.162 53.9265 110.848C54.489 110.185 54.7702 108.978 54.7702 107.229C54.8354 106.063 54.597 104.901 54.0784 103.854C53.8751 103.47 53.5662 103.151 53.1881 102.936C52.8101 102.721 52.3784 102.618 51.9439 102.64C50.0316 102.64 49.0755 104.178 49.0755 107.254C49.0047 108.425 49.2587 109.593 49.8095 110.629C50.0074 111.011 50.3081 111.331 50.6777 111.551C51.0474 111.772 51.4713 111.885 51.9017 111.878L51.8849 111.844Z" fill="white"/>
<path d="M63.4182 113.447H61.1318V101.079H68.9526V102.994H63.4182V106.369H67.7715V108.233H63.4182V113.447Z" fill="white"/>
<path d="M88.6094 113.447H86.2303L85.2432 110.503H80.4849L79.5147 113.447H77.5996L81.7082 101.079H84.4501L88.6094 113.447ZM84.6442 108.723L82.8388 103.197L81.0333 108.723H84.6442Z" fill="white"/>
<path d="M104.091 113.447H101.813V102.598L98.388 113.422H97.2153L93.7731 102.598V113.422H91.9424V101.079H95.4351L98.0252 109.043L100.556 101.079H104.066L104.091 113.447Z" fill="white"/>
<path d="M116.712 113.447H108.672V101.079H116.628V102.918H110.899V106.293H115.506V108.081H110.899V111.549H116.712V113.447Z" fill="white"/>
<path d="M128.102 113.447H120.509V101.079H122.854V111.431H128.119L128.102 113.447Z" fill="white"/>
<path d="M133.83 113.447H131.595V101.079H133.83V113.447Z" fill="white"/>
<path d="M148.105 113.447H145.726L144.739 110.503H139.98L139.01 113.447H137.104L141.212 101.079H143.954L148.105 113.447ZM144.14 108.723L142.334 103.197L140.529 108.723H144.14Z" fill="white"/>
<path d="M160.177 113.447H157.95V101.079H160.177V113.447Z" fill="white"/>
<path d="M163.459 110.469L165.619 110.005C165.88 111.228 166.876 111.844 168.614 111.844C169.256 111.888 169.896 111.723 170.436 111.372C170.632 111.246 170.793 111.074 170.905 110.871C171.017 110.668 171.076 110.439 171.077 110.207C171.079 109.873 170.979 109.546 170.79 109.271C170.466 108.906 170.024 108.667 169.542 108.596L167.18 107.98C166.545 107.837 165.938 107.592 165.383 107.255C164.981 106.96 164.662 106.568 164.455 106.116C164.225 105.624 164.107 105.089 164.109 104.546C164.092 104.038 164.195 103.533 164.409 103.071C164.623 102.61 164.942 102.205 165.34 101.889C166.241 101.194 167.359 100.838 168.496 100.885C169.491 100.869 170.473 101.11 171.347 101.585C171.736 101.785 172.079 102.063 172.354 102.403C172.628 102.743 172.829 103.137 172.942 103.559L170.824 104.091C170.661 103.631 170.345 103.24 169.929 102.984C169.513 102.728 169.022 102.621 168.538 102.682C167.974 102.642 167.415 102.797 166.952 103.121C166.778 103.247 166.637 103.414 166.542 103.606C166.447 103.798 166.399 104.011 166.403 104.226C166.403 104.934 166.977 105.424 168.091 105.711L170.191 106.234C171.173 106.4 172.068 106.9 172.722 107.651C173.153 108.257 173.38 108.983 173.372 109.726C173.394 110.28 173.28 110.83 173.042 111.329C172.804 111.829 172.448 112.263 172.005 112.595C170.968 113.331 169.715 113.699 168.445 113.641C167.323 113.663 166.214 113.399 165.222 112.873C164.78 112.614 164.396 112.267 164.092 111.853C163.789 111.44 163.574 110.969 163.459 110.469Z" fill="white"/>
<path d="M184.821 113.447H177.228V101.079H179.573V111.431H184.837L184.821 113.447Z" fill="white"/>
<path d="M198.025 113.447H195.646L194.659 110.503H189.9L188.964 113.447H187.023L191.132 101.079H193.874L198.025 113.447ZM194.06 108.723L192.254 103.197L190.449 108.723H194.06Z" fill="white"/>
<path d="M210.713 113.447H208.545L203.854 105.551L203.5 104.96L203.162 104.386V113.447H201.365V101.079H203.837L208.165 108.368L208.958 109.701V101.079H210.713V113.447Z" fill="white"/>
<path d="M215.227 113.447V101.079H219.782C220.55 101.049 221.315 101.195 222.018 101.505C222.721 101.815 223.344 102.281 223.84 102.867C224.877 104.103 225.424 105.676 225.376 107.288C225.426 108.9 224.862 110.472 223.798 111.684C223.219 112.288 222.516 112.759 221.736 113.064C220.956 113.368 220.12 113.499 219.285 113.447H215.227ZM217.513 111.625H219.377C219.855 111.632 220.329 111.535 220.766 111.341C221.203 111.148 221.593 110.861 221.908 110.503C222.68 109.555 223.054 108.346 222.955 107.128C222.991 106.033 222.671 104.955 222.043 104.057C221.779 103.664 221.421 103.343 221.001 103.123C220.581 102.904 220.113 102.793 219.639 102.8H217.513V111.625Z" fill="white"/>
<path d="M137.02 58.9631C136.348 58.9728 135.68 58.8643 135.045 58.6425C126.178 55.4113 119.952 48.9657 116.004 38.9514C116.041 38.6945 116.153 38.4541 116.325 38.2596C116.993 37.7601 117.695 37.3064 118.425 36.9013L118.788 36.6904C120.197 40.8355 122.427 44.6544 125.343 47.9196C128.591 51.4883 131.662 53.7155 134.986 54.9473C135.655 55.1843 136.36 55.3041 137.07 55.3016C137.752 55.3133 138.429 55.187 139.061 54.9304C146.258 51.8004 151.37 46.2913 154.703 38.1078C154.88 37.6859 155.04 37.2641 155.226 36.7748L155.572 36.9773C156.333 37.3938 157.063 37.8646 157.757 38.3862C157.908 38.6156 157.979 38.8884 157.959 39.1624C154.019 48.9741 147.835 55.3438 139.12 58.6088C138.446 58.85 137.735 58.97 137.02 58.9631V58.9631Z" fill="white"/>
<path d="M159.672 28.5161C158.697 27.9597 157.756 27.3455 156.854 26.6769V26.6769C156.699 26.3124 156.636 25.9157 156.668 25.5211C156.626 22.9901 156.576 20.0626 156.668 17.2448C156.723 16.924 156.712 16.5955 156.636 16.2791C156.56 15.9628 156.42 15.6653 156.225 15.4048C156.03 15.1443 155.784 14.9262 155.502 14.7639C155.22 14.6016 154.908 14.4984 154.585 14.4607C152.644 14.0136 150.721 13.5495 148.789 13.0771C145.456 12.2756 142.039 11.4404 138.597 10.7317C138.147 10.6447 137.689 10.6023 137.23 10.6052C136.092 10.6378 134.961 10.7934 133.856 11.0692C131.384 11.6176 128.87 12.225 126.449 12.8071C124.247 13.3386 121.969 13.8954 119.699 14.3932C118.012 14.7813 117.253 15.7093 117.32 17.3966C117.371 18.4512 117.32 19.5395 117.32 20.5941C117.32 21.8427 117.32 23.1251 117.362 24.399C117.48 26.2045 116.957 27.1325 115.506 27.7231C114.943 27.9563 114.401 28.2386 113.886 28.5667C113.854 28.3036 113.837 28.0388 113.836 27.7737C113.836 26.2298 113.836 24.6943 113.836 23.1588C113.836 19.9614 113.836 16.6458 113.785 13.3977C113.785 12.4444 113.996 12.1659 114.975 11.9381C118.265 11.1788 121.538 10.3942 124.82 9.60964C128.507 8.76598 132.194 7.85483 135.889 7.00273C136.196 6.93297 136.511 6.899 136.826 6.90149C137.28 6.90116 137.733 6.95496 138.175 7.06178C141.221 7.76202 144.258 8.48758 147.295 9.20469C150.982 10.0483 154.796 10.9848 158.55 11.8369C159.756 12.1153 160.026 12.4528 159.992 13.6677C159.908 16.882 159.925 20.147 159.942 23.3023C159.942 24.5678 159.942 25.8333 159.942 27.1072V28.7186L159.672 28.5161Z" fill="white"/>
<path d="M154.373 18.4426C154.424 17.1012 153.918 16.6034 152.618 16.3166C147.717 15.2283 142.849 13.9965 137.956 12.8407C137.473 12.7014 136.967 12.6697 136.471 12.7479C131.274 13.9572 126.082 15.1973 120.897 16.4685C120.467 16.5781 119.775 16.9662 119.766 17.2446C119.682 20.0203 119.716 22.7959 119.716 25.9344C120.72 25.3269 121.302 24.9894 121.884 24.6267C126.49 21.792 131.164 18.991 135.695 16.0973C136.083 15.7914 136.563 15.6251 137.057 15.6251C137.551 15.6251 138.031 15.7914 138.42 16.0973C142.925 18.9741 147.489 21.7667 152.036 24.5845C152.652 24.9641 153.293 25.31 154.348 25.909C154.323 23.1587 154.255 20.7627 154.373 18.4426Z" fill="white"/>
<path d="M152.256 34.1349C147.548 31.1033 142.798 28.1392 138.006 25.2427C137.719 25.1073 137.405 25.0371 137.087 25.0371C136.769 25.0371 136.455 25.1073 136.167 25.2427C131.308 28.1505 126.491 31.123 121.715 34.1602C121.456 34.4086 121.26 34.7169 121.147 35.0581C121.034 35.3993 121.006 35.763 121.066 36.1175C122.172 39.6721 123.983 42.9674 126.391 45.8069C128.798 48.6465 131.753 50.972 135.079 52.6448C135.686 52.9654 136.344 53.1679 136.935 53.4125C137.391 53.2522 137.779 53.1594 138.099 53.0076C145.625 49.5401 150.425 43.6682 153.032 35.9234C153.061 35.5843 153.006 35.2432 152.87 34.931C152.735 34.6187 152.524 34.3451 152.256 34.1349V34.1349ZM136.437 46.1233H130.861C130.712 46.1244 130.564 46.096 130.425 46.0397C130.287 45.9833 130.162 45.9003 130.056 45.7952C129.95 45.6901 129.866 45.5651 129.809 45.4274C129.751 45.2897 129.722 45.142 129.722 44.9928V39.4162H136.471L136.437 46.1233ZM136.437 38.176H129.688V32.5741C129.688 32.4249 129.718 32.2772 129.775 32.1395C129.832 32.0018 129.916 31.8768 130.022 31.7717C130.128 31.6666 130.254 31.5835 130.392 31.5272C130.53 31.4709 130.678 31.4425 130.827 31.4436H136.404L136.437 38.176ZM144.385 44.9928C144.382 45.2934 144.261 45.5809 144.048 45.7927C143.835 46.0045 143.546 46.1233 143.246 46.1233H137.669V39.4162H144.418L144.385 44.9928ZM144.385 38.176H137.635V31.4689H143.212C143.512 31.4689 143.801 31.5877 144.014 31.7995C144.228 32.0113 144.349 32.2988 144.351 32.5994L144.385 38.176Z" fill="white"/>
<path d="M168.716 15.2532V0.109486H168.538C168.074 0.109486 167.695 0.0588682 167.29 0.0588682H144.511C130.531 0.0588682 118.762 0.0588574 106.766 0.00823768C106.323 -0.046448 105.874 0.0485912 105.492 0.278216C105.306 0.463821 105.222 0.902519 105.23 1.69556C105.281 23.0233 105.281 44.0221 105.23 64.1265C105.23 64.9702 105.323 65.4089 105.525 65.6114C105.935 65.8682 106.422 65.9727 106.901 65.9067V65.9067C116.83 65.9067 126.98 65.856 137.053 65.856C146.932 65.856 157.022 65.856 167.087 65.9067C167.572 65.9707 168.064 65.8728 168.488 65.6283C168.682 65.4258 168.766 64.9786 168.766 64.194C168.716 47.8607 168.716 31.2828 168.716 15.2532ZM109.17 6.36946C109.126 6.0134 109.154 5.65215 109.253 5.30719C109.351 4.96224 109.518 4.64063 109.744 4.36154C110.268 3.92432 110.945 3.71207 111.625 3.77098H118.248C126.122 3.77098 133.996 3.77098 141.87 3.77098H159.435H160.971C161.553 3.77098 162.143 3.77098 162.726 3.77098H163.367C163.685 3.73681 164.005 3.81398 164.273 3.98934C164.54 4.16471 164.739 4.42742 164.835 4.73275C164.895 4.95242 164.912 5.18154 164.885 5.40768C164.793 7.09501 164.793 8.892 164.793 10.5878V31.1056C164.793 31.19 164.793 31.3925 164.793 31.6624C164.73 32.3242 164.716 32.9897 164.75 33.6535C164.748 33.6339 164.748 33.614 164.75 33.5944V35.2396L163.063 34.0669L150.408 26.2124L147.253 24.2635C144.283 22.4243 141.212 20.5261 138.226 18.5857C137.902 18.3453 137.515 18.2046 137.112 18.1807C136.686 18.2118 136.277 18.3608 135.931 18.611C131.552 21.336 127.115 24.0779 122.728 26.7776L109.162 35.2143L109.212 23.268C109.178 17.6605 109.153 12.0276 109.136 6.36946H109.17ZM164.362 61.2075C163.714 61.7366 162.883 61.9883 162.051 61.9077H161.924C158.55 61.8655 154.947 61.8487 150.298 61.8487H123.816C119.142 61.8487 115.548 61.8487 112.157 61.8993H112.055C111.235 61.9777 110.416 61.7291 109.777 61.2075C109.254 60.5349 109.014 59.6838 109.111 58.8368C109.221 52.8046 109.178 46.8484 109.111 41.2633C109.066 40.6182 109.208 39.9739 109.519 39.4071C109.83 38.8402 110.298 38.3747 110.866 38.0658C120.146 32.4049 127.84 27.6466 135.138 23.074C135.687 22.6929 136.334 22.479 137.002 22.4581C137.7 22.4835 138.374 22.7123 138.943 23.1161C146.932 28.1781 155.031 33.1895 163.012 38.0911C163.643 38.4095 164.166 38.9066 164.515 39.5203C164.865 40.134 165.026 40.837 164.978 41.5417C164.877 48.4597 164.877 53.7664 164.978 58.7271C165.044 59.171 165.02 59.6234 164.908 60.058C164.797 60.4926 164.6 60.9006 164.329 61.2581L164.362 61.2075Z" fill="white"/>
<path d="M38.3866 106.647H0V108.807H38.3866V106.647Z" fill="white"/>
<path d="M275 106.647H236.613V108.807H275V106.647Z" fill="white"/>
</g>
<defs>
<clipPath id="clip0">
<rect width="275" height="113.641" fill="white"/>
</clipPath>
</defs>
</svg>
