<svg width="652" height="440" viewBox="0 0 652 440" fill="none" xmlns="http://www.w3.org/2000/svg">
<g filter="url(#filter0_d)">
<path d="M169.764 275.652L166.708 282.497L173.391 291.745L169.764 275.652Z" fill="#808285"/>
<path d="M466.995 275.733L469.806 282.578L463.694 291.826L466.995 275.733Z" fill="#808285"/>
<path d="M451.224 357.948C363.856 336.967 272.739 336.967 185.371 357.948C179.381 332.933 173.35 307.959 167.36 282.944C266.586 259.111 370.01 259.111 469.236 282.944C463.246 307.959 457.215 332.974 451.224 357.948Z" fill="#808285"/>
<path d="M449.676 350.207C363.245 330 273.31 330 186.838 350.207C181.011 325.396 175.225 300.545 169.397 275.733C267.32 252.837 369.195 252.796 467.076 275.733C461.29 300.545 455.503 325.396 449.676 350.207Z" fill="url(#paint0_linear)"/>
<path d="M186.594 285.307C186.838 286.407 185.983 287.507 184.76 287.793C183.538 288.037 182.315 288.322 181.093 288.607C179.87 288.893 178.648 288.2 178.403 287.141C178.199 286.244 177.996 285.307 177.792 284.411C177.547 283.311 178.362 282.211 179.626 281.926C180.848 281.641 182.111 281.396 183.334 281.111C184.597 280.826 185.82 281.519 186.023 282.619C186.227 283.474 186.431 284.37 186.594 285.307Z" fill="#E6E7E8"/>
<path d="M196.822 283.107C197.026 284.207 196.17 285.307 194.947 285.552C193.725 285.796 192.502 286.04 191.28 286.285C190.017 286.529 188.835 285.837 188.59 284.737C188.387 283.84 188.224 282.903 188.02 282.007C187.775 280.907 188.631 279.807 189.894 279.563C191.117 279.318 192.38 279.074 193.603 278.829C194.866 278.585 196.088 279.277 196.292 280.377C196.496 281.274 196.659 282.211 196.822 283.107Z" fill="#A7A9AC"/>
<path d="M206.765 281.396C206.969 282.496 206.113 283.596 204.85 283.8C203.627 284.004 202.405 284.248 201.142 284.493C199.878 284.737 198.697 284.004 198.493 282.904C198.33 281.967 198.126 281.07 197.963 280.133C197.759 279.033 198.615 277.933 199.878 277.689C201.142 277.444 202.364 277.241 203.627 276.996C204.891 276.752 206.072 277.485 206.276 278.585C206.439 279.563 206.602 280.459 206.765 281.396Z" fill="white"/>
<path d="M216.341 279.767C216.504 280.867 215.649 281.926 214.385 282.13C213.163 282.333 211.9 282.537 210.677 282.741C209.414 282.945 208.232 282.211 208.069 281.111C207.906 280.174 207.743 279.278 207.58 278.341C207.376 277.241 208.273 276.141 209.536 275.937C210.799 275.733 212.022 275.53 213.285 275.326C214.548 275.122 215.73 275.856 215.893 276.956C216.015 277.933 216.178 278.83 216.341 279.767Z" fill="white"/>
<path d="M226.04 278.299C226.203 279.399 225.306 280.459 224.043 280.662C222.82 280.866 221.557 281.029 220.335 281.233C219.071 281.437 217.93 280.703 217.727 279.562C217.564 278.625 217.441 277.729 217.278 276.792C217.115 275.692 218.012 274.633 219.275 274.429C220.538 274.225 221.761 274.062 223.024 273.859C224.287 273.655 225.469 274.429 225.632 275.529C225.754 276.425 225.877 277.362 226.04 278.299Z" fill="#E6E7E8"/>
<path d="M198.534 291.256C198.737 292.356 197.922 293.456 196.7 293.7C195.477 293.944 194.296 294.189 193.073 294.433C191.851 294.678 190.669 293.985 190.424 292.885C190.221 291.989 190.058 291.052 189.854 290.156C189.609 289.056 190.465 287.956 191.688 287.711C192.91 287.467 194.133 287.222 195.355 286.978C196.618 286.733 197.8 287.426 198.004 288.526C198.167 289.422 198.371 290.319 198.534 291.256Z" fill="white"/>
<path d="M188.305 293.292C188.55 294.392 187.735 295.492 186.512 295.777C185.29 296.022 184.108 296.307 182.886 296.552C181.663 296.837 180.441 296.144 180.196 295.044C179.992 294.148 179.789 293.211 179.585 292.314C179.34 291.214 180.155 290.114 181.378 289.829C182.6 289.544 183.823 289.3 185.045 289.014C186.268 288.729 187.49 289.422 187.735 290.522C187.939 291.459 188.142 292.396 188.305 293.292Z" fill="white"/>
<path d="M208.314 289.422C208.517 290.522 207.662 291.622 206.439 291.826C205.217 292.03 203.994 292.274 202.812 292.478C201.59 292.722 200.408 291.989 200.204 290.889C200.041 289.952 199.838 289.056 199.675 288.119C199.471 287.019 200.327 285.919 201.549 285.674C202.772 285.43 203.994 285.226 205.217 284.982C206.48 284.737 207.662 285.471 207.825 286.571C207.988 287.589 208.151 288.526 208.314 289.422Z" fill="#E6E7E8"/>
<path d="M217.768 287.833C217.931 288.933 217.075 289.992 215.853 290.196C214.63 290.4 213.408 290.604 212.185 290.807C210.963 291.011 209.781 290.278 209.577 289.178C209.414 288.241 209.251 287.344 209.088 286.407C208.884 285.307 209.74 284.207 211.003 284.003C212.226 283.8 213.448 283.596 214.712 283.392C215.975 283.189 217.116 283.922 217.32 285.022C217.442 286 217.605 286.937 217.768 287.833Z" fill="#A7A9AC"/>
<path d="M227.466 286.367C227.629 287.467 226.733 288.526 225.51 288.73C224.288 288.893 223.065 289.096 221.843 289.3C220.62 289.504 219.438 288.73 219.275 287.63C219.112 286.693 218.99 285.797 218.827 284.859C218.664 283.759 219.52 282.7 220.783 282.497C222.006 282.293 223.228 282.13 224.491 281.926C225.755 281.722 226.896 282.497 227.059 283.597C227.181 284.493 227.303 285.43 227.466 286.367Z" fill="white"/>
<path d="M396.619 336.559C396.456 337.659 395.397 338.433 394.256 338.311C342.707 331.467 290.425 331.63 238.917 338.759C237.776 338.922 236.716 338.148 236.553 337.048C233.619 316.433 230.685 295.819 227.751 275.204C227.588 274.104 228.485 273.044 229.789 272.882C287.246 264.937 345.519 264.733 403.017 272.352C404.28 272.515 405.217 273.574 405.054 274.674C402.243 295.289 399.431 315.904 396.619 336.559Z" fill="#E9F7FE"/>
<path d="M180.726 277.037C180.97 278.096 180.155 279.156 178.974 279.4C177.751 279.685 176.61 279.033 176.366 277.974C176.121 276.915 176.936 275.856 178.118 275.611C179.34 275.367 180.522 275.978 180.726 277.037Z" fill="white"/>
<path d="M186.879 275.733C187.083 276.792 186.308 277.852 185.086 278.096C183.863 278.341 182.722 277.73 182.478 276.67C182.233 275.611 183.048 274.552 184.271 274.307C185.493 274.022 186.634 274.674 186.879 275.733Z" fill="white"/>
<path d="M192.706 274.552C192.91 275.612 192.095 276.63 190.913 276.875C189.691 277.119 188.55 276.467 188.346 275.408C188.142 274.349 188.957 273.289 190.139 273.045C191.362 272.841 192.503 273.493 192.706 274.552Z" fill="white"/>
<path d="M198.859 273.371C199.063 274.43 198.248 275.448 197.026 275.693C195.803 275.937 194.662 275.245 194.458 274.226C194.255 273.167 195.07 272.148 196.292 271.904C197.515 271.659 198.656 272.311 198.859 273.371Z" fill="white"/>
<path d="M189.365 300.829C189.772 302.703 188.387 304.578 186.349 305.026C184.271 305.474 182.274 304.333 181.867 302.459C181.459 300.585 182.804 298.711 184.882 298.222C186.96 297.774 188.957 298.955 189.365 300.829Z" fill="white"/>
<path d="M199.39 298.793C199.756 300.667 198.371 302.541 196.293 302.948C194.214 303.356 192.218 302.174 191.851 300.3C191.443 298.426 192.829 296.552 194.948 296.145C197.026 295.696 199.023 296.919 199.39 298.793Z" fill="white"/>
<path d="M209.373 296.959C209.699 298.833 208.273 300.667 206.235 301.033C204.157 301.4 202.201 300.219 201.834 298.344C201.468 296.47 202.894 294.596 204.972 294.23C207.05 293.822 209.047 295.045 209.373 296.959Z" fill="white"/>
<path d="M218.868 295.248C219.153 297.122 217.727 298.956 215.649 299.281C213.571 299.648 211.615 298.385 211.289 296.511C210.963 294.637 212.389 292.804 214.508 292.437C216.627 292.111 218.583 293.374 218.868 295.248Z" fill="white"/>
<path d="M228.24 293.822C228.526 295.737 227.059 297.489 224.98 297.815C222.902 298.141 220.946 296.878 220.661 294.963C220.376 293.089 221.843 291.256 223.921 290.93C226.04 290.645 227.996 291.908 228.24 293.822Z" fill="white"/>
<path d="M196.252 344.015C196.496 345.115 196.007 346.174 195.151 346.337C194.296 346.5 193.44 345.767 193.195 344.667C190.587 332.811 187.939 320.956 185.331 309.1C185.086 308 185.616 306.941 186.512 306.737C187.409 306.533 188.346 307.267 188.591 308.367C191.117 320.263 193.684 332.159 196.252 344.015Z" fill="#E6E7E8"/>
<path d="M205.991 341.815C206.195 342.915 205.706 343.934 204.85 344.137C203.994 344.3 203.138 343.567 202.935 342.467C200.53 330.571 198.126 318.674 195.681 306.737C195.477 305.637 196.007 304.578 196.904 304.415C197.8 304.252 198.737 304.986 198.941 306.086C201.305 317.982 203.627 329.919 205.991 341.815Z" fill="white"/>
<path d="M214.956 340.348C215.159 341.448 214.63 342.467 213.774 342.63C212.918 342.793 212.062 342.019 211.859 340.919C209.617 328.982 207.417 317.045 205.176 305.108C204.972 304.008 205.542 302.948 206.439 302.785C207.335 302.622 208.232 303.396 208.436 304.496C210.636 316.433 212.796 328.371 214.956 340.348Z" fill="#E6E7E8"/>
<path d="M223.799 338.882C223.962 339.982 223.432 341 222.576 341.163C221.72 341.285 220.905 340.511 220.702 339.411C218.664 327.433 216.627 315.456 214.589 303.478C214.385 302.378 214.997 301.359 215.893 301.196C216.79 301.033 217.686 301.808 217.849 302.948C219.846 314.926 221.843 326.904 223.799 338.882Z" fill="white"/>
<path d="M232.6 337.619C232.763 338.719 232.193 339.737 231.378 339.859C230.522 339.982 229.707 339.208 229.544 338.067C227.67 326.048 225.836 314.071 223.961 302.052C223.798 300.952 224.41 299.933 225.306 299.77C226.203 299.648 227.099 300.422 227.262 301.522C229.014 313.582 230.807 325.6 232.6 337.619Z" fill="#E6E7E8"/>
<path d="M195.844 334.115C195.966 334.726 195.151 335.378 193.969 335.622C193.154 335.785 192.339 335.989 191.524 336.152C190.383 336.396 189.324 336.152 189.202 335.541C189.079 334.971 189.894 334.278 191.035 333.993C191.85 333.83 192.665 333.626 193.48 333.463C194.662 333.259 195.722 333.545 195.844 334.115Z" fill="#A7A9AC"/>
<path d="M206.276 335.092C206.398 335.704 205.543 336.355 204.402 336.559C203.587 336.722 202.772 336.885 201.957 337.048C200.816 337.292 199.797 337.007 199.675 336.396C199.552 335.785 200.408 335.133 201.549 334.889C202.364 334.726 203.179 334.563 203.994 334.4C205.094 334.196 206.154 334.522 206.276 335.092Z" fill="#A7A9AC"/>
<path d="M210.962 308.937C211.084 309.548 210.188 310.2 208.965 310.404C208.11 310.567 207.254 310.73 206.398 310.893C205.216 311.096 204.116 310.811 204.035 310.241C203.912 309.63 204.809 308.978 205.991 308.733C206.846 308.57 207.702 308.408 208.558 308.245C209.78 308.041 210.84 308.367 210.962 308.937Z" fill="#A7A9AC"/>
<path d="M220.865 312.807C220.946 313.418 220.05 314.029 218.868 314.233C218.012 314.355 217.197 314.518 216.341 314.64C215.16 314.844 214.1 314.518 213.978 313.948C213.856 313.337 214.752 312.685 215.975 312.481C216.83 312.318 217.686 312.196 218.501 312.033C219.683 311.87 220.742 312.196 220.865 312.807Z" fill="#A7A9AC"/>
<path d="M229.381 304.17C229.463 304.781 228.566 305.392 227.344 305.596C226.488 305.718 225.632 305.84 224.776 306.003C223.554 306.207 222.494 305.84 222.413 305.27C222.331 304.659 223.228 304.048 224.45 303.844C225.306 303.722 226.162 303.6 227.018 303.437C228.24 303.233 229.3 303.559 229.381 304.17Z" fill="#A7A9AC"/>
<path d="M409.456 335.867C409.619 334.767 408.844 333.707 407.703 333.544C406.562 333.382 405.421 333.178 404.321 333.015C403.18 332.852 402.08 333.626 401.958 334.726C401.835 335.663 401.672 336.559 401.55 337.496C401.387 338.596 402.202 339.656 403.343 339.819C404.443 339.981 405.584 340.144 406.685 340.307C407.826 340.47 408.885 339.737 409.048 338.637C409.17 337.7 409.293 336.763 409.456 335.867Z" fill="white"/>
<path d="M418.828 337.537C419.032 336.437 418.258 335.378 417.076 335.174C415.935 334.971 414.834 334.808 413.693 334.604C412.552 334.4 411.452 335.174 411.289 336.274C411.126 337.211 411.004 338.108 410.841 339.045C410.678 340.145 411.452 341.204 412.593 341.408C413.693 341.611 414.834 341.774 415.935 341.978C417.076 342.182 418.135 341.448 418.339 340.348C418.502 339.371 418.665 338.434 418.828 337.537Z" fill="#A7A9AC"/>
<path d="M427.875 339.085C428.079 337.985 427.304 336.885 426.163 336.681C425.022 336.478 423.922 336.274 422.781 336.07C421.64 335.866 420.54 336.6 420.336 337.7C420.173 338.637 420.01 339.533 419.847 340.47C419.643 341.57 420.417 342.629 421.559 342.833C422.659 343.037 423.8 343.24 424.9 343.444C426.041 343.648 427.141 342.915 427.345 341.815C427.508 340.918 427.671 339.981 427.875 339.085Z" fill="white"/>
<path d="M436.513 340.797C436.758 339.697 435.984 338.597 434.843 338.393C433.702 338.149 432.601 337.945 431.46 337.7C430.319 337.456 429.219 338.189 429.015 339.289C428.852 340.226 428.649 341.123 428.486 342.06C428.282 343.16 429.015 344.219 430.156 344.463C431.257 344.667 432.398 344.912 433.498 345.115C434.639 345.36 435.739 344.626 435.943 343.526C436.147 342.63 436.35 341.693 436.513 340.797Z" fill="#E6E7E8"/>
<path d="M445.275 342.67C445.52 341.57 444.786 340.47 443.645 340.226C442.504 339.981 441.404 339.737 440.263 339.492C439.122 339.248 437.981 339.941 437.777 341.041C437.573 341.937 437.41 342.874 437.207 343.77C436.962 344.87 437.696 345.97 438.837 346.215C439.937 346.459 441.037 346.704 442.178 346.948C443.319 347.192 444.419 346.5 444.664 345.4C444.868 344.504 445.071 343.607 445.275 342.67Z" fill="#E6E7E8"/>
<path d="M420.376 329.348C420.58 328.248 419.765 327.189 418.624 326.985C417.483 326.781 416.342 326.577 415.201 326.414C414.019 326.211 412.919 326.985 412.756 328.085C412.593 329.022 412.471 329.918 412.308 330.855C412.145 331.955 412.919 333.014 414.06 333.218C415.201 333.422 416.342 333.585 417.442 333.788C418.583 333.992 419.684 333.259 419.887 332.159C420.05 331.222 420.213 330.285 420.376 329.348Z" fill="white"/>
<path d="M410.759 327.759C410.922 326.659 410.107 325.6 408.966 325.396C407.825 325.233 406.684 325.029 405.502 324.866C404.321 324.703 403.261 325.477 403.098 326.577C402.976 327.515 402.813 328.411 402.691 329.348C402.528 330.448 403.343 331.507 404.484 331.67C405.625 331.833 406.766 331.996 407.907 332.2C409.048 332.363 410.148 331.629 410.311 330.529C410.474 329.592 410.596 328.696 410.759 327.759Z" fill="#E6E7E8"/>
<path d="M429.505 331.059C429.708 329.959 428.934 328.859 427.793 328.656C426.652 328.452 425.511 328.248 424.37 328.004C423.188 327.8 422.088 328.533 421.884 329.633C421.721 330.57 421.558 331.467 421.395 332.404C421.192 333.504 421.966 334.563 423.107 334.767C424.248 334.97 425.389 335.174 426.489 335.378C427.63 335.582 428.73 334.889 428.975 333.789C429.138 332.893 429.342 331.956 429.505 331.059Z" fill="#E6E7E8"/>
<path d="M438.306 332.811C438.551 331.711 437.777 330.611 436.636 330.367C435.495 330.122 434.354 329.919 433.213 329.674C432.072 329.43 430.931 330.163 430.727 331.263C430.564 332.2 430.36 333.096 430.197 334.033C429.993 335.133 430.768 336.233 431.909 336.437C433.05 336.641 434.15 336.885 435.291 337.13C436.432 337.374 437.573 336.641 437.777 335.581C437.899 334.604 438.103 333.707 438.306 332.811Z" fill="#A7A9AC"/>
<path d="M447.312 334.726C447.557 333.626 446.823 332.526 445.641 332.281C444.5 332.037 443.359 331.793 442.218 331.548C441.077 331.304 439.936 331.996 439.692 333.096C439.488 333.993 439.325 334.93 439.121 335.826C438.877 336.926 439.651 338.026 440.792 338.27C441.933 338.515 443.033 338.759 444.174 339.004C445.315 339.248 446.456 338.555 446.701 337.455C446.905 336.559 447.108 335.622 447.312 334.726Z" fill="white"/>
<path d="M411.452 320.222C411.737 318.348 410.352 316.556 408.314 316.23C406.277 315.904 404.443 317.207 404.158 319.122C403.873 321.037 405.299 322.789 407.296 323.074C409.292 323.359 411.126 322.096 411.452 320.222Z" fill="white"/>
<path d="M421.11 321.811C421.436 319.937 420.091 318.104 418.054 317.778C416.016 317.452 414.142 318.715 413.856 320.589C413.571 322.463 414.916 324.256 416.913 324.622C418.909 324.948 420.784 323.685 421.11 321.811Z" fill="white"/>
<path d="M430.686 323.563C431.053 321.689 429.708 319.855 427.712 319.489C425.715 319.122 423.8 320.344 423.474 322.259C423.148 324.133 424.492 325.967 426.489 326.333C428.404 326.659 430.32 325.437 430.686 323.563Z" fill="white"/>
<path d="M439.774 325.437C440.181 323.563 438.836 321.689 436.84 321.282C434.843 320.874 432.887 322.096 432.52 323.97C432.153 325.845 433.457 327.678 435.454 328.085C437.451 328.493 439.366 327.311 439.774 325.437Z" fill="white"/>
<path d="M448.657 327.352C449.065 325.478 447.801 323.604 445.764 323.156C443.767 322.707 441.811 323.889 441.404 325.763C440.996 327.637 442.3 329.511 444.297 329.919C446.294 330.407 448.25 329.226 448.657 327.352Z" fill="white"/>
<path d="M415.813 276.67C415.976 275.57 415.365 274.552 414.427 274.389C413.49 274.266 412.593 275.041 412.43 276.141C410.637 288.159 408.885 300.178 407.092 312.196C406.929 313.296 407.5 314.315 408.396 314.437C409.293 314.559 410.148 313.785 410.311 312.685C412.145 300.666 413.979 288.689 415.813 276.67Z" fill="#E6E7E8"/>
<path d="M426.693 278.626C426.896 277.526 426.285 276.467 425.307 276.345C424.37 276.182 423.433 276.956 423.27 278.056C421.273 290.034 419.317 302.012 417.32 313.989C417.157 315.089 417.728 316.108 418.584 316.271C419.48 316.434 420.336 315.66 420.54 314.519C422.618 302.582 424.655 290.604 426.693 278.626Z" fill="white"/>
<path d="M436.636 280.215C436.84 279.115 436.228 278.056 435.291 277.893C434.354 277.73 433.417 278.463 433.213 279.604C431.053 291.541 428.853 303.519 426.693 315.456C426.489 316.556 427.06 317.574 427.915 317.737C428.812 317.9 429.668 317.126 429.871 316.026C432.153 304.089 434.395 292.152 436.636 280.215Z" fill="#E6E7E8"/>
<path d="M446.416 282.007C446.619 280.907 446.049 279.848 445.112 279.685C444.174 279.481 443.237 280.255 442.993 281.355C440.629 293.292 438.266 305.189 435.902 317.126C435.698 318.226 436.228 319.285 437.084 319.448C437.98 319.611 438.877 318.878 439.081 317.778C441.566 305.84 443.971 293.944 446.416 282.007Z" fill="white"/>
<path d="M456.073 283.963C456.318 282.863 455.747 281.804 454.81 281.6C453.873 281.397 452.936 282.13 452.691 283.23C450.165 295.126 447.597 306.982 445.071 318.878C444.826 319.978 445.356 321.037 446.253 321.2C447.108 321.404 448.046 320.671 448.29 319.571C450.857 307.674 453.465 295.819 456.073 283.963Z" fill="#E6E7E8"/>
<path d="M416.139 286.611C416.22 286 415.283 285.348 414.06 285.185C413.164 285.062 412.308 284.9 411.412 284.777C410.148 284.574 409.089 284.94 409.007 285.551C408.926 286.162 409.863 286.774 411.126 286.977C412.023 287.1 412.879 287.222 413.775 287.385C414.957 287.548 416.057 287.222 416.139 286.611Z" fill="#A7A9AC"/>
<path d="M427.263 285.349C427.386 284.738 426.448 284.086 425.185 283.882C424.289 283.719 423.392 283.597 422.536 283.434C421.273 283.23 420.173 283.556 420.091 284.127C420.01 284.738 420.947 285.39 422.17 285.593C423.066 285.756 423.922 285.878 424.818 286.041C426.041 286.286 427.182 285.96 427.263 285.349Z" fill="#A7A9AC"/>
<path d="M432.398 311.545C432.52 310.934 431.624 310.282 430.442 310.038C429.586 309.875 428.73 309.712 427.875 309.549C426.693 309.345 425.593 309.63 425.511 310.241C425.389 310.852 426.285 311.504 427.508 311.708C428.364 311.871 429.219 312.034 430.034 312.156C431.216 312.441 432.316 312.156 432.398 311.545Z" fill="#A7A9AC"/>
<path d="M442.504 308C442.626 307.389 441.729 306.737 440.548 306.493C439.692 306.33 438.836 306.167 437.98 305.963C436.758 305.719 435.698 306.004 435.576 306.615C435.454 307.226 436.35 307.878 437.573 308.123C438.429 308.286 439.284 308.448 440.14 308.652C441.281 308.856 442.381 308.611 442.504 308Z" fill="#A7A9AC"/>
<path d="M450.572 317.126C450.695 316.555 449.839 315.822 448.657 315.577C447.801 315.374 446.986 315.211 446.131 315.048C444.949 314.803 443.849 315.089 443.726 315.659C443.604 316.27 444.46 316.922 445.642 317.207C446.497 317.37 447.313 317.574 448.168 317.737C449.35 317.981 450.45 317.696 450.572 317.126Z" fill="#A7A9AC"/>
<path d="M201.223 230.022C201.223 232.263 199.39 234.096 197.148 234.096H63.4476C61.2063 234.096 59.3726 232.263 59.3726 230.022V142.959C59.3726 140.718 61.2063 138.885 63.4476 138.885H197.148C199.39 138.885 201.223 140.718 201.223 142.959V230.022Z" fill="#E1F4FD"/>
<path d="M201.305 147.237C201.305 149.477 199.471 151.311 197.23 151.311H63.4476C61.2063 151.311 59.3726 149.477 59.3726 147.237V142.959C59.3726 140.718 61.2063 138.885 63.4476 138.885H197.23C199.471 138.885 201.305 140.718 201.305 142.959V147.237Z" fill="#6D6E71"/>
<path d="M194.052 180.115C194.052 182.355 192.218 184.189 189.977 184.189H105.013C102.772 184.189 100.938 182.355 100.938 180.115V163.411C100.938 161.17 102.772 159.337 105.013 159.337H189.977C192.218 159.337 194.052 161.17 194.052 163.411V180.115Z" fill="url(#paint1_linear)"/>
<path d="M193.603 200.689C193.603 201.097 193.237 201.423 192.788 201.423H68.0118C67.5635 201.423 67.1968 201.097 67.1968 200.689C67.1968 200.282 67.5635 199.956 68.0118 199.956H192.788C193.237 199.997 193.603 200.323 193.603 200.689Z" fill="#C7C8CA"/>
<path d="M193.603 207.574C193.603 207.982 193.237 208.307 192.788 208.307H68.0118C67.5635 208.307 67.1968 207.982 67.1968 207.574C67.1968 207.167 67.5635 206.841 68.0118 206.841H192.788C193.237 206.841 193.603 207.167 193.603 207.574Z" fill="#C7C8CA"/>
<path d="M193.44 215.559C193.44 215.967 193.073 216.293 192.625 216.293H67.8487C67.4004 216.293 67.0337 215.967 67.0337 215.559C67.0337 215.152 67.4004 214.826 67.8487 214.826H192.625C193.073 214.826 193.44 215.152 193.44 215.559Z" fill="#C7C8CA"/>
<path d="M193.44 222.81C193.44 223.218 193.073 223.544 192.625 223.544H67.8487C67.4004 223.544 67.0337 223.218 67.0337 222.81C67.0337 222.403 67.4004 222.077 67.8487 222.077H192.625C193.073 222.077 193.44 222.403 193.44 222.81Z" fill="#C7C8CA"/>
<path d="M81.4183 187.937C89.7454 187.937 96.4958 181.188 96.4958 172.863C96.4958 164.538 89.7454 157.789 81.4183 157.789C73.0912 157.789 66.3408 164.538 66.3408 172.863C66.3408 181.188 73.0912 187.937 81.4183 187.937Z" fill="url(#paint2_linear)"/>
<path d="M576.898 243.263C576.898 245.504 575.064 247.337 572.823 247.337H441.689C439.448 247.337 437.614 245.504 437.614 243.263V157.952C437.614 155.711 439.448 153.878 441.689 153.878H572.823C575.064 153.878 576.898 155.711 576.898 157.952V243.263Z" fill="#E1F4FD"/>
<path d="M576.898 162.026C576.898 164.267 575.064 166.1 572.823 166.1H441.689C439.448 166.1 437.614 164.267 437.614 162.026V157.952C437.614 155.711 439.448 153.878 441.689 153.878H572.823C575.064 153.878 576.898 155.711 576.898 157.952V162.026Z" fill="#6D6E71"/>
<path d="M523.963 237.152C523.963 239.392 522.13 241.226 519.888 241.226H488.633C486.392 241.226 484.558 239.392 484.558 237.152V206.107C484.558 203.867 486.392 202.033 488.633 202.033H519.888C522.13 202.033 523.963 203.867 523.963 206.107V237.152Z" fill="url(#paint3_linear)"/>
<path d="M257.785 119.696C257.785 121.937 255.951 123.77 253.71 123.77H203.791C201.55 123.77 199.716 121.937 199.716 119.696V98.9588C199.716 96.7181 201.55 94.8848 203.791 94.8848H253.71C255.951 94.8848 257.785 96.7181 257.785 98.9588V119.696Z" fill="url(#paint4_linear)"/>
<path d="M450.654 124.585C450.654 126.826 448.82 128.659 446.579 128.659H417.932C415.691 128.659 413.857 126.826 413.857 124.585V77.7333C413.857 75.4925 415.691 73.6592 417.932 73.6592H446.579C448.82 73.6592 450.654 75.4925 450.654 77.7333V124.585Z" fill="#F1F2F2"/>
<path d="M569.114 237.152C569.114 239.392 567.281 241.226 565.039 241.226H533.784C531.543 241.226 529.709 239.392 529.709 237.152V206.107C529.709 203.867 531.543 202.033 533.784 202.033H565.039C567.281 202.033 569.114 203.867 569.114 206.107V237.152Z" fill="url(#paint5_linear)"/>
<path d="M571.437 177.915C571.437 178.322 571.071 178.648 570.622 178.648H482.113C481.665 178.648 481.298 178.322 481.298 177.915C481.298 177.508 481.665 177.182 482.113 177.182H570.622C571.071 177.182 571.437 177.508 571.437 177.915Z" fill="#C7C8CA"/>
<path d="M571.559 185.289C571.559 185.696 571.193 186.022 570.744 186.022H482.235C481.787 186.022 481.42 185.696 481.42 185.289C481.42 184.882 481.787 184.556 482.235 184.556H570.744C571.193 184.596 571.559 184.922 571.559 185.289Z" fill="#C7C8CA"/>
<path d="M571.315 193.192C571.315 193.6 570.948 193.926 570.5 193.926H481.991C481.543 193.926 481.176 193.6 481.176 193.192C481.176 192.785 481.543 192.459 481.991 192.459H570.5C570.948 192.459 571.315 192.785 571.315 193.192Z" fill="#C7C8CA"/>
<path d="M459.864 201.177C468.033 201.177 474.656 194.556 474.656 186.388C474.656 178.221 468.033 171.6 459.864 171.6C451.694 171.6 445.071 178.221 445.071 186.388C445.071 194.556 451.694 201.177 459.864 201.177Z" fill="url(#paint6_linear)"/>
<path d="M129.422 283.27C136.241 283.27 141.769 277.743 141.769 270.926C141.769 264.108 136.241 258.581 129.422 258.581C122.603 258.581 117.075 264.108 117.075 270.926C117.075 277.743 122.603 283.27 129.422 283.27Z" fill="url(#paint7_linear)"/>
<path d="M114.793 260.252C118.551 260.252 121.598 257.206 121.598 253.448C121.598 249.691 118.551 246.645 114.793 246.645C111.034 246.645 107.987 249.691 107.987 253.448C107.987 257.206 111.034 260.252 114.793 260.252Z" fill="url(#paint8_linear)"/>
<path d="M131.297 245.83C133.435 245.83 135.168 244.097 135.168 241.959C135.168 239.822 133.435 238.089 131.297 238.089C129.159 238.089 127.425 239.822 127.425 241.959C127.425 244.097 129.159 245.83 131.297 245.83Z" fill="url(#paint9_linear)"/>
<path d="M51.3856 221.507C53.051 221.507 54.4011 220.157 54.4011 218.492C54.4011 216.827 53.051 215.478 51.3856 215.478C49.7202 215.478 48.3701 216.827 48.3701 218.492C48.3701 220.157 49.7202 221.507 51.3856 221.507Z" fill="url(#paint10_linear)"/>
<path d="M582.521 238.211C583.782 238.211 584.803 237.19 584.803 235.93C584.803 234.67 583.782 233.648 582.521 233.648C581.261 233.648 580.239 234.67 580.239 235.93C580.239 237.19 581.261 238.211 582.521 238.211Z" fill="url(#paint11_linear)"/>
<path d="M244.011 80.3402C250.83 80.3402 256.358 74.8135 256.358 67.9958C256.358 61.1782 250.83 55.6514 244.011 55.6514C237.192 55.6514 231.664 61.1782 231.664 67.9958C231.664 74.8135 237.192 80.3402 244.011 80.3402Z" fill="#F1F2F2"/>
<path d="M224.695 82.622C227.936 82.622 230.563 79.9954 230.563 76.7553C230.563 73.5153 227.936 70.8887 224.695 70.8887C221.454 70.8887 218.827 73.5153 218.827 76.7553C218.827 79.9954 221.454 82.622 224.695 82.622Z" fill="#F1F2F2"/>
<path d="M412.553 70.0331C415.794 70.0331 418.421 67.4065 418.421 64.1665C418.421 60.9264 415.794 58.2998 412.553 58.2998C409.312 58.2998 406.685 60.9264 406.685 64.1665C406.685 67.4065 409.312 70.0331 412.553 70.0331Z" fill="#F1F2F2"/>
<path d="M569.563 276.264C572.804 276.264 575.431 273.637 575.431 270.397C575.431 267.157 572.804 264.53 569.563 264.53C566.322 264.53 563.695 267.157 563.695 270.397C563.695 273.637 566.322 276.264 569.563 276.264Z" fill="#F1F2F2"/>
<path d="M104.972 274.389C108.213 274.389 110.84 271.762 110.84 268.522C110.84 265.282 108.213 262.655 104.972 262.655C101.731 262.655 99.104 265.282 99.104 268.522C99.104 271.762 101.731 274.389 104.972 274.389Z" fill="#F1F2F2"/>
<path d="M236.024 89.4668C237.622 89.4668 238.917 88.1718 238.917 86.5742C238.917 84.9767 237.622 83.6816 236.024 83.6816C234.426 83.6816 233.131 84.9767 233.131 86.5742C233.131 88.1718 234.426 89.4668 236.024 89.4668Z" fill="#F1F2F2"/>
<path d="M253.832 132.57C255.43 132.57 256.725 131.275 256.725 129.678C256.725 128.08 255.43 126.785 253.832 126.785C252.234 126.785 250.938 128.08 250.938 129.678C250.938 131.275 252.234 132.57 253.832 132.57Z" fill="#F1F2F2"/>
<path d="M424.778 68.6885C426.376 68.6885 427.671 67.3934 427.671 65.7959C427.671 64.1984 426.376 62.9033 424.778 62.9033C423.18 62.9033 421.885 64.1984 421.885 65.7959C421.885 67.3934 423.18 68.6885 424.778 68.6885Z" fill="#F1F2F2"/>
<path d="M506.889 256.096C508.487 256.096 509.783 254.801 509.783 253.203C509.783 251.606 508.487 250.311 506.889 250.311C505.291 250.311 503.996 251.606 503.996 253.203C503.996 254.801 505.291 256.096 506.889 256.096Z" fill="#F1F2F2"/>
<path d="M405.055 127.682C406.653 127.682 407.948 126.387 407.948 124.789C407.948 123.192 406.653 121.896 405.055 121.896C403.457 121.896 402.162 123.192 402.162 124.789C402.162 126.387 403.457 127.682 405.055 127.682Z" fill="#F1F2F2"/>
<path d="M111.655 243.385C113.253 243.385 114.548 242.09 114.548 240.492C114.548 238.895 113.253 237.6 111.655 237.6C110.057 237.6 108.762 238.895 108.762 240.492C108.762 242.09 110.057 243.385 111.655 243.385Z" fill="#F1F2F2"/>
<path d="M253.017 54.6329C254.615 54.6329 255.91 53.3378 255.91 51.7403C255.91 50.1427 254.615 48.8477 253.017 48.8477C251.419 48.8477 250.124 50.1427 250.124 51.7403C250.124 53.3378 251.419 54.6329 253.017 54.6329Z" fill="#F1F2F2"/>
<path d="M479.872 124.952C484.238 124.952 487.777 121.413 487.777 117.048C487.777 112.683 484.238 109.145 479.872 109.145C475.506 109.145 471.966 112.683 471.966 117.048C471.966 121.413 475.506 124.952 479.872 124.952Z" fill="url(#paint12_linear)"/>
<path d="M462.635 118.352C465.493 118.352 467.81 116.036 467.81 113.178C467.81 110.32 465.493 108.004 462.635 108.004C459.777 108.004 457.459 110.32 457.459 113.178C457.459 116.036 459.777 118.352 462.635 118.352Z" fill="url(#paint13_linear)"/>
<path d="M252.365 93.0522C255.223 93.0522 257.54 90.7357 257.54 87.8782C257.54 85.0206 255.223 82.7041 252.365 82.7041C249.506 82.7041 247.189 85.0206 247.189 87.8782C247.189 90.7357 249.506 93.0522 252.365 93.0522Z" fill="url(#paint14_linear)"/>
<path d="M471.478 107.718C473.706 107.718 475.512 105.912 475.512 103.685C475.512 101.457 473.706 99.6514 471.478 99.6514C469.25 99.6514 467.443 101.457 467.443 103.685C467.443 105.912 469.25 107.718 471.478 107.718Z" fill="url(#paint15_linear)"/>
<path d="M432.643 101.037C439.462 101.037 444.99 95.5098 444.99 88.6921C444.99 81.8745 439.462 76.3477 432.643 76.3477C425.823 76.3477 420.295 81.8745 420.295 88.6921C420.295 95.5098 425.823 101.037 432.643 101.037Z" fill="#D1D3D4"/>
<path d="M503.466 229.778C510.286 229.778 515.814 224.251 515.814 217.433C515.814 210.616 510.286 205.089 503.466 205.089C496.647 205.089 491.119 210.616 491.119 217.433C491.119 224.251 496.647 229.778 503.466 229.778Z" fill="white"/>
<path d="M548.454 229.33C555.273 229.33 560.801 223.803 560.801 216.985C560.801 210.167 555.273 204.641 548.454 204.641C541.635 204.641 536.107 210.167 536.107 216.985C536.107 223.803 541.635 229.33 548.454 229.33Z" fill="white"/>
<path d="M399.798 134.893C399.798 137.134 397.965 138.967 395.723 138.967H264.549C262.308 138.967 260.474 137.134 260.474 134.893V49.6229C260.474 47.3822 262.308 45.5488 264.549 45.5488H395.683C397.924 45.5488 399.758 47.3822 399.758 49.6229V134.893H399.798Z" fill="#E1F4FD"/>
<path d="M399.798 54.7967C399.798 57.0374 397.965 58.8708 395.723 58.8708H264.549C262.308 58.8708 260.474 57.0374 260.474 54.7967V49.5819C260.474 47.3411 262.308 45.5078 264.549 45.5078H395.683C397.924 45.5078 399.758 47.3411 399.758 49.5819V54.7967H399.798Z" fill="#6D6E71"/>
<path d="M561.861 272.841C561.861 275.082 560.027 276.915 557.786 276.915H515.773C513.532 276.915 511.698 275.082 511.698 272.841V259.03C511.698 256.789 513.532 254.956 515.773 254.956H557.786C560.027 254.956 561.861 256.789 561.861 259.03V272.841Z" fill="url(#paint16_linear)"/>
<path d="M104.402 257.522C104.402 259.763 102.568 261.596 100.327 261.596H59.3729C57.1316 261.596 55.2979 259.763 55.2979 257.522V243.711C55.2979 241.47 57.1316 239.637 59.3729 239.637H100.327C102.568 239.637 104.402 241.47 104.402 243.711V257.522Z" fill="#F1F2F2"/>
<path d="M102.242 245.992C102.242 247.988 100.408 249.618 98.1668 249.618H61.1658C58.9246 249.618 57.0908 247.988 57.0908 245.992C57.0908 243.996 58.9246 242.366 61.1658 242.366H98.1668C100.408 242.366 102.242 243.996 102.242 245.992Z" fill="#D1D3D4"/>
<path d="M394.338 69.7069C394.338 70.155 393.971 70.5217 393.523 70.5217H305.014C304.565 70.5217 304.199 70.155 304.199 69.7069V69.6254C304.199 69.1772 304.565 68.8105 305.014 68.8105H393.523C393.971 68.8105 394.338 69.1772 394.338 69.6254V69.7069Z" fill="#C7C8CA"/>
<path d="M394.582 75.6961C394.582 76.1442 394.215 76.5109 393.767 76.5109H305.217C304.769 76.5109 304.402 76.1442 304.402 75.6961V75.6146C304.402 75.1665 304.769 74.7998 305.217 74.7998H393.726C394.175 74.7998 394.541 75.1665 394.541 75.6146V75.6961H394.582Z" fill="#C7C8CA"/>
<path d="M394.582 82.2967C394.582 82.7448 394.215 83.1115 393.767 83.1115H305.217C304.769 83.1115 304.402 82.7448 304.402 82.2967V82.2152C304.402 81.7671 304.769 81.4004 305.217 81.4004H393.726C394.175 81.4004 394.541 81.7671 394.541 82.2152V82.2967H394.582Z" fill="#C7C8CA"/>
<path d="M446.539 104.988C446.539 105.355 446.172 105.681 445.724 105.681H419.644C419.195 105.681 418.829 105.355 418.829 104.988C418.829 104.622 419.195 104.296 419.644 104.296H445.724C446.172 104.296 446.539 104.622 446.539 104.988Z" fill="white"/>
<path d="M446.539 108.574C446.539 108.941 446.172 109.267 445.724 109.267H419.644C419.195 109.267 418.829 108.941 418.829 108.574C418.829 108.208 419.195 107.882 419.644 107.882H445.724C446.172 107.882 446.539 108.208 446.539 108.574Z" fill="white"/>
<path d="M446.539 112.608C446.539 112.974 446.172 113.3 445.724 113.3H419.644C419.195 113.3 418.829 112.974 418.829 112.608C418.829 112.241 419.195 111.915 419.644 111.915H445.724C446.172 111.915 446.539 112.241 446.539 112.608Z" fill="white"/>
<path d="M446.539 116.723C446.539 117.09 446.172 117.415 445.724 117.415H419.644C419.195 117.415 418.829 117.09 418.829 116.723C418.829 116.356 419.195 116.03 419.644 116.03H445.724C446.172 116.03 446.539 116.356 446.539 116.723Z" fill="white"/>
<path d="M446.539 121.04C446.539 121.407 446.172 121.733 445.724 121.733H419.644C419.195 121.733 418.829 121.407 418.829 121.04C418.829 120.674 419.195 120.348 419.644 120.348H445.724C446.172 120.348 446.539 120.633 446.539 121.04Z" fill="white"/>
<path d="M563.002 233.892C563.002 234.3 562.635 234.666 562.187 234.666H536.107C535.659 234.666 535.292 234.34 535.292 233.892C535.292 233.485 535.659 233.118 536.107 233.118H562.187C562.635 233.118 563.002 233.485 563.002 233.892Z" fill="white"/>
<path d="M517.606 233.933C517.606 234.382 517.24 234.707 516.791 234.707H490.711C490.263 234.707 489.896 234.341 489.896 233.933C489.896 233.485 490.263 233.159 490.711 233.159H516.791C517.24 233.119 517.606 233.485 517.606 233.933Z" fill="white"/>
<path d="M251.305 101.974C251.305 102.341 250.938 102.626 250.49 102.626H208.232C207.784 102.626 207.417 102.341 207.417 101.974C207.417 101.607 207.784 101.322 208.232 101.322H250.531C250.938 101.322 251.305 101.607 251.305 101.974Z" fill="white"/>
<path d="M251.59 105.682C251.59 106.048 251.224 106.334 250.775 106.334H208.518C208.069 106.334 207.703 106.048 207.703 105.682C207.703 105.315 208.069 105.03 208.518 105.03H250.816C251.224 104.989 251.59 105.315 251.59 105.682Z" fill="white"/>
<path d="M251.998 111.956C251.998 112.323 251.632 112.608 251.183 112.608H208.885C208.437 112.608 208.07 112.323 208.07 111.956C208.07 111.589 208.437 111.304 208.885 111.304H251.183C251.632 111.263 251.998 111.589 251.998 111.956Z" fill="white"/>
<path d="M251.998 115.419C251.998 115.786 251.632 116.071 251.183 116.071H208.885C208.437 116.071 208.07 115.786 208.07 115.419C208.07 115.052 208.437 114.767 208.885 114.767H251.183C251.632 114.726 251.998 115.052 251.998 115.419Z" fill="white"/>
<path d="M558.275 259.07C558.275 259.437 557.908 259.722 557.46 259.722H515.243C514.794 259.722 514.428 259.437 514.428 259.07C514.428 258.704 514.794 258.418 515.243 258.418H557.46C557.908 258.378 558.275 258.704 558.275 259.07Z" fill="white"/>
<path d="M558.968 262.737C558.968 263.103 558.601 263.389 558.153 263.389H515.936C515.487 263.389 515.121 263.103 515.121 262.737C515.121 262.37 515.487 262.085 515.936 262.085H558.153C558.601 262.085 558.968 262.37 558.968 262.737Z" fill="white"/>
<path d="M558.968 269.012C558.968 269.378 558.601 269.664 558.153 269.664H515.936C515.487 269.664 515.121 269.378 515.121 269.012C515.121 268.645 515.487 268.36 515.936 268.36H558.153C558.601 268.319 558.968 268.645 558.968 269.012Z" fill="white"/>
<path d="M558.968 272.433C558.968 272.8 558.601 273.085 558.153 273.085H515.936C515.487 273.085 515.121 272.8 515.121 272.433C515.121 272.066 515.487 271.781 515.936 271.781H558.153C558.601 271.781 558.968 272.066 558.968 272.433Z" fill="white"/>
<path d="M187.287 165.041C187.287 165.448 186.92 165.815 186.472 165.815H106.561C106.113 165.815 105.746 165.448 105.746 165.041C105.746 164.633 106.113 164.267 106.561 164.267H186.472C186.92 164.267 187.287 164.633 187.287 165.041Z" fill="white"/>
<path d="M187.287 171.315C187.287 171.722 186.92 172.089 186.472 172.089H106.561C106.113 172.089 105.746 171.722 105.746 171.315C105.746 170.908 106.113 170.541 106.561 170.541H186.472C186.92 170.541 187.287 170.867 187.287 171.315Z" fill="white"/>
<path d="M187.45 177.548C187.45 177.956 187.083 178.323 186.635 178.323H106.724C106.276 178.323 105.909 177.956 105.909 177.548C105.909 177.141 106.276 176.774 106.724 176.774H186.635C187.083 176.774 187.45 177.1 187.45 177.548Z" fill="white"/>
<path d="M282.765 89.9558C289.809 89.9558 295.519 84.2467 295.519 77.204C295.519 70.1613 289.809 64.4521 282.765 64.4521C275.72 64.4521 270.01 70.1613 270.01 77.204C270.01 84.2467 275.72 89.9558 282.765 89.9558Z" fill="url(#paint17_linear)"/>
<path d="M205.747 98.755C205.747 100.996 203.913 102.829 201.672 102.829H158.069C155.828 102.829 153.994 100.996 153.994 98.755V93.8661C153.994 91.6253 155.828 89.792 158.069 89.792H201.631C203.872 89.792 205.706 91.6253 205.706 93.8661V98.755H205.747Z" fill="url(#paint18_linear)"/>
<path d="M209.251 85.148C209.251 86.2887 208.354 87.185 207.213 87.185H183.13C181.989 87.185 181.093 86.2887 181.093 85.148V84.6591C181.093 83.5184 181.989 82.6221 183.13 82.6221H207.213C208.354 82.6221 209.251 83.5184 209.251 84.6591V85.148Z" fill="url(#paint19_linear)"/>
<path d="M179.178 86.5737C179.178 87.1034 178.281 87.5108 177.14 87.5108H160.718C159.577 87.5108 158.681 87.1034 158.681 86.5737C158.681 86.0441 159.577 85.6367 160.718 85.6367H177.14C178.281 85.6367 179.178 86.0849 179.178 86.5737Z" fill="url(#paint20_linear)"/>
<path d="M164.752 105.396C164.752 105.926 164.019 106.333 163.122 106.333H145.885C144.988 106.333 144.255 105.926 144.255 105.396C144.255 104.866 144.988 104.459 145.885 104.459H163.122C164.019 104.459 164.752 104.866 164.752 105.396Z" fill="url(#paint21_linear)"/>
<path d="M610.394 238.741C610.394 239.27 609.864 239.678 609.172 239.678H591.119C590.467 239.678 589.897 239.27 589.897 238.741C589.897 238.211 590.467 237.804 591.119 237.804H609.172C609.824 237.804 610.394 238.252 610.394 238.741Z" fill="url(#paint22_linear)"/>
<path d="M481.746 90.4038C481.746 90.9335 481.216 91.3409 480.524 91.3409H462.472C461.779 91.3409 461.249 90.9335 461.249 90.4038C461.249 89.8742 461.779 89.4668 462.472 89.4668H480.524C481.176 89.4668 481.746 89.8742 481.746 90.4038Z" fill="url(#paint23_linear)"/>
<path d="M38.4269 222.485C38.4269 223.015 37.8972 223.422 37.2044 223.422H19.1522C18.4594 223.422 17.9297 223.015 17.9297 222.485C17.9297 221.955 18.4594 221.548 19.1522 221.548H37.2044C37.8564 221.548 38.4269 221.955 38.4269 222.485Z" fill="url(#paint24_linear)"/>
<path d="M464.672 95.7004C464.672 96.23 464.102 96.6374 463.45 96.6374H457.337C456.644 96.6374 456.115 96.23 456.115 95.7004C456.115 95.1707 456.644 94.7633 457.337 94.7633H463.45C464.143 94.7226 464.672 95.1707 464.672 95.7004Z" fill="url(#paint25_linear)"/>
<path d="M446.009 66.4889C446.009 66.9371 445.642 67.3037 445.194 67.3037H438.266C437.818 67.3037 437.451 66.9371 437.451 66.4889V66.2445C437.451 65.7964 437.818 65.4297 438.266 65.4297H445.194C445.642 65.4297 446.009 65.7964 446.009 66.2445V66.4889Z" fill="url(#paint26_linear)"/>
<path d="M563.002 251.411C563.002 251.941 562.431 252.348 561.779 252.348H555.667C554.974 252.348 554.444 251.941 554.444 251.411C554.444 250.882 554.974 250.474 555.667 250.474H561.779C562.431 250.434 563.002 250.882 563.002 251.411Z" fill="url(#paint27_linear)"/>
<path d="M74.5316 237.315C74.5316 237.763 74.1649 238.13 73.7166 238.13H66.7891C66.3409 238.13 65.9741 237.763 65.9741 237.315V237.071C65.9741 236.623 66.3409 236.256 66.7891 236.256H73.7166C74.1649 236.256 74.5316 236.623 74.5316 237.071V237.315Z" fill="url(#paint28_linear)"/>
<path d="M215.242 89.589C215.242 90.1187 214.508 90.5261 213.612 90.5261H208.314C207.418 90.5261 206.684 90.1187 206.684 89.589C206.684 89.0594 207.418 88.652 208.314 88.652H213.612C214.508 88.6112 215.242 89.0594 215.242 89.589Z" fill="url(#paint29_linear)"/>
<path d="M626.979 266.485C626.979 267.015 626.45 267.422 625.757 267.422H619.644C618.992 267.422 618.422 267.015 618.422 266.485C618.422 265.955 618.992 265.548 619.644 265.548H625.757C626.409 265.548 626.979 265.955 626.979 266.485Z" fill="url(#paint30_linear)"/>
<path d="M320.661 34.3444C320.661 34.7926 320.295 35.1592 319.846 35.1592H312.919C312.471 35.1592 312.104 34.7926 312.104 34.3444V34.1C312.104 33.6518 312.471 33.2852 312.919 33.2852H319.846C320.295 33.2852 320.661 33.6518 320.661 34.1V34.3444Z" fill="url(#paint31_linear)"/>
<path d="M354.892 41.1081C354.892 41.5562 354.525 41.9229 354.077 41.9229H335.21C334.761 41.9229 334.395 41.5562 334.395 41.1081V40.8636C334.395 40.4155 334.761 40.0488 335.21 40.0488H354.077C354.525 40.0488 354.892 40.4155 354.892 40.8636V41.1081Z" fill="url(#paint32_linear)"/>
<path d="M191.036 109.511C191.036 110.041 190.302 110.448 189.406 110.448H172.169C171.272 110.448 170.539 110.041 170.539 109.511C170.539 108.982 171.272 108.574 172.169 108.574H189.406C190.302 108.574 191.036 108.982 191.036 109.511Z" fill="url(#paint33_linear)"/>
<path d="M631.543 262.452C631.543 262.981 631.013 263.389 630.321 263.389H612.268C611.576 263.389 611.046 262.981 611.046 262.452C611.046 261.922 611.576 261.515 612.268 261.515H630.321C631.013 261.515 631.543 261.963 631.543 262.452Z" fill="url(#paint34_linear)"/>
<path d="M43.358 246.115C43.358 247.256 42.4615 248.152 41.3205 248.152H17.2372C16.0962 248.152 15.1997 247.256 15.1997 246.115V245.667C15.1997 244.526 16.0962 243.63 17.2372 243.63H41.3205C42.4615 243.63 43.358 244.526 43.358 245.667V246.115Z" fill="url(#paint35_linear)"/>
<path d="M490.956 85.189C490.956 86.3298 490.06 87.2261 488.919 87.2261H464.835C463.694 87.2261 462.798 86.3298 462.798 85.189V84.7001C462.798 83.5594 463.694 82.6631 464.835 82.6631H488.919C490.06 82.6631 490.956 83.5594 490.956 84.7001V85.189Z" fill="url(#paint36_linear)"/>
<path d="M614.836 267.3C614.836 268.441 613.94 269.337 612.799 269.337H588.715C587.574 269.337 586.678 268.441 586.678 267.3V266.811C586.678 265.671 587.574 264.774 588.715 264.774H612.799C613.94 264.774 614.836 265.671 614.836 266.811V267.3Z" fill="url(#paint37_linear)"/>
<path d="M481.339 76.7548C481.339 78.9955 479.505 80.8289 477.264 80.8289H447.842C445.601 80.8289 443.767 78.9955 443.767 76.7548V74.5956C443.767 72.3548 445.601 70.5215 447.842 70.5215H477.264C479.505 70.5215 481.339 72.3548 481.339 74.5956V76.7548Z" fill="url(#paint38_linear)"/>
<path d="M608.479 257.359C608.479 259.6 606.645 261.433 604.404 261.433H570.541C568.3 261.433 566.466 259.6 566.466 257.359V247.256C566.466 245.015 568.3 243.182 570.541 243.182H604.404C606.645 243.182 608.479 245.015 608.479 247.256V257.359Z" fill="url(#paint39_linear)"/>
<path d="M62.9991 237.355C62.9991 239.596 61.1654 241.429 58.9241 241.429H27.9134C25.6721 241.429 23.8384 239.596 23.8384 237.355V230.225C23.8384 227.985 25.6721 226.151 27.9134 226.151H58.9649C61.2061 226.151 63.0399 227.985 63.0399 230.225V237.355H62.9991Z" fill="url(#paint40_linear)"/>
<path d="M297.067 260.374C297.067 260.374 298.494 263.634 300.287 267.667C303.261 274.43 307.296 283.515 307.54 284.249C307.988 285.471 320.58 289.789 320.58 289.789C320.58 289.789 328.812 283.434 329.423 282.823C330.075 282.171 337.817 263.023 337.817 263.023C338.225 260.578 338.225 258.052 337.858 255.567C337.451 249.252 337.94 234.056 337.94 234.056L340.996 230.837L333.661 214.989C333.661 214.989 324.166 216.252 315.812 218.697C309.089 220.652 303.098 223.382 303.18 226.763C303.424 234.382 297.067 260.374 297.067 260.374Z" fill="#C8C8C8"/>
<path d="M297.067 261.474C297.067 261.474 298.494 263.715 300.327 266.526L305.177 264.774C306.195 259.844 307.622 254.955 309.455 250.27C311.411 246.196 320.132 246.644 320.132 246.644L323.799 237.152L315.772 232.711C309.048 234.055 303.058 235.929 303.18 238.292C303.384 243.507 297.067 261.474 297.067 261.474Z" fill="#C8C8C8"/>
<path d="M317.483 327.27C310.189 344.666 350.246 346.948 350.246 346.948C348.29 330.814 346.741 322.748 344.419 311.544C340.588 304.618 333.416 289.463 333.416 289.463L315.812 281.029C315.812 281.029 324.614 310.24 317.483 327.27Z" fill="#F2F2F2"/>
<path d="M280.726 292.763C280.726 292.763 270.987 322.911 265.975 329.103C263.897 331.548 261.574 333.544 259.129 335.011C257.743 335.907 256.236 336.029 254.891 335.418C253.546 334.807 252.405 333.422 251.753 331.629C251.753 331.589 251.712 331.589 251.712 331.548C251.386 330.57 251.183 329.511 251.101 328.37C250.734 321.118 250.938 311.381 253.709 304.048C253.913 303.518 254.117 302.948 254.32 302.418C255.869 298.344 257.173 294.596 258.232 291.459C260.474 284.9 261.696 280.703 261.696 280.703L274.655 276.548L275.307 278.3L280.726 292.763Z" fill="#E6E7E8"/>
<path d="M292.91 259.967C285.738 260.333 279.3 262.411 274.736 265.874C266.138 272.189 250.856 287.915 250.856 287.915C250.856 287.915 262.348 293.089 271.435 292.845L280.522 292.6L292.91 259.967Z" fill="url(#paint41_linear)"/>
<path d="M326.489 167.2C326.489 167.2 307.988 163.981 292.951 175.267C277.915 186.552 293.644 235.318 293.644 235.318C293.644 235.318 306.562 254.67 314.59 255.485C322.617 256.3 322.617 265.141 322.617 265.141C322.617 265.141 325.429 257.074 332.071 255.485C338.714 253.855 355.829 226.07 356.195 213.563C356.521 201.056 351.631 170.459 326.489 167.2Z" fill="#3D3D3E"/>
<path d="M314.141 167.852C314.141 167.852 302.894 170.174 299.39 158.033C299.39 158.033 295.682 167.689 304.606 178.241" fill="#3D3D3E"/>
<path d="M355.543 293.741C355.543 293.741 362.919 324.785 367.402 331.426C369.317 334.033 371.436 336.233 373.759 337.904C375.063 338.922 376.571 339.167 377.956 338.637C379.342 338.107 380.564 336.844 381.379 335.052C381.379 335.052 381.42 335.011 381.42 334.97C381.827 334.033 382.113 332.974 382.276 331.833C383.213 324.581 383.743 314.763 381.542 307.185C381.379 306.615 381.216 306.044 381.053 305.515C379.831 301.319 378.852 297.448 377.997 294.189C376.285 287.426 375.389 283.107 375.389 283.107L362.756 277.893L361.982 279.604L355.543 293.741Z" fill="#E6E7E8"/>
<path d="M345.071 260.496C352.202 261.433 358.437 264 362.756 267.829C370.825 274.796 384.843 291.663 384.843 291.663C384.843 291.663 372.985 295.941 363.938 294.963L354.892 293.985L345.071 260.496Z" fill="url(#paint42_linear)"/>
<path d="M251.264 315.985C251.264 315.985 247.637 343.404 261.778 375.874C261.778 375.874 259.007 389.482 254.076 397.589C254.076 397.589 256.521 398.16 258.151 396.897C259.781 395.634 268.827 379.378 269.316 376.322C269.805 373.267 272.128 317.289 262.348 313.541C252.568 309.793 251.264 315.985 251.264 315.985Z" fill="#E6E7E8"/>
<path d="M245.722 395.633C245.722 395.633 267.483 408.874 305.828 409.037C338.795 409.2 378.689 396.489 378.689 396.489C378.689 396.489 379.056 393.148 374.37 357.908C373.922 354.445 373.433 351.145 372.944 347.885C370.621 332.445 368.054 319.57 365.323 308.856C351.835 255.241 335.372 255.241 335.372 255.241L332.153 254.711C319.357 252.471 306.032 254.222 294.744 259.641C292.177 260.782 289.895 262.289 288.061 264.163C277.589 276.304 245.722 395.633 245.722 395.633Z" fill="#F2F2F2"/>
<path d="M290.181 181.093C290.181 181.093 272.169 218.004 285.087 230.837C298.005 243.671 287.776 259.722 284.842 259.722C281.908 259.722 278.282 279.604 289.692 282.822C301.142 286.041 316.22 314.885 302.609 318.104C288.958 321.322 298.942 351.145 305.788 351.145C305.788 351.145 316.505 349.556 315.527 357.541C315.527 357.541 322.577 351.756 320.132 347.6C317.687 343.445 319.643 337.008 331.583 337.008C343.522 337.008 354.688 322.259 341.322 309.426C327.956 296.593 334.761 287.304 342.3 286C349.839 284.737 361.778 276.385 351.55 257.767C341.322 239.148 354.973 238.211 352.773 225.704C350.572 213.196 290.181 181.093 290.181 181.093Z" fill="#3D3D3E"/>
<path d="M303.302 132.489C303.302 134.729 301.469 136.563 299.227 136.563H267.768C265.527 136.563 263.693 134.729 263.693 132.489V98.6737C263.693 96.4329 265.527 94.5996 267.768 94.5996H299.227C301.469 94.5996 303.302 96.4329 303.302 98.6737V132.489Z" fill="white"/>
<path d="M349.635 132.489C349.635 134.729 347.801 136.563 345.56 136.563H314.101C311.86 136.563 310.026 134.729 310.026 132.489V98.6737C310.026 96.4329 311.86 94.5996 314.101 94.5996H345.56C347.801 94.5996 349.635 96.4329 349.635 98.6737V132.489Z" fill="url(#paint43_linear)"/>
<path d="M395.397 132.489C395.397 134.729 393.563 136.563 391.322 136.563H359.863C357.622 136.563 355.788 134.729 355.788 132.489V98.6737C355.788 96.4329 357.622 94.5996 359.863 94.5996H391.322C393.563 94.5996 395.397 96.4329 395.397 98.6737V132.489Z" fill="white"/>
<path d="M399.758 53.0039H260.393V58.8706H399.758V53.0039Z" fill="#6D6E71"/>
<path d="M201.264 146.748H59.332V152.615H201.264V146.748Z" fill="#6D6E71"/>
<path d="M576.939 160.804H437.777V166.67H576.939V160.804Z" fill="#6D6E71"/>
<path d="M352.039 52.3111C352.039 53.8593 350.206 55.1222 347.964 55.1222H268.135C265.894 55.1222 264.06 53.8593 264.06 52.3111C264.06 50.763 265.894 49.5 268.135 49.5H347.964C350.206 49.5 352.039 50.763 352.039 52.3111Z" fill="#F1F2F2"/>
<path d="M392.219 55.0001C393.636 55.0001 394.786 53.8692 394.786 52.4742C394.786 51.0791 393.636 49.9482 392.219 49.9482C390.801 49.9482 389.651 51.0791 389.651 52.4742C389.651 53.8692 390.801 55.0001 392.219 55.0001Z" fill="#F1F2F2"/>
<path d="M384.272 55.0001C385.69 55.0001 386.84 53.8692 386.84 52.4742C386.84 51.0791 385.69 49.9482 384.272 49.9482C382.854 49.9482 381.705 51.0791 381.705 52.4742C381.705 53.8692 382.854 55.0001 384.272 55.0001Z" fill="#F1F2F2"/>
<path d="M375.715 55.0812C377.133 55.0812 378.282 53.9503 378.282 52.5552C378.282 51.1602 377.133 50.0293 375.715 50.0293C374.297 50.0293 373.148 51.1602 373.148 52.5552C373.148 53.9503 374.297 55.0812 375.715 55.0812Z" fill="#F1F2F2"/>
<path d="M152.853 145.893C152.853 147.481 151.02 148.785 148.778 148.785H67.4822C65.241 148.785 63.4072 147.481 63.4072 145.893C63.4072 144.304 65.241 143 67.4822 143H148.738C151.02 143 152.853 144.304 152.853 145.893Z" fill="#F1F2F2"/>
<path d="M193.685 148.704C195.125 148.704 196.293 147.537 196.293 146.097C196.293 144.657 195.125 143.489 193.685 143.489C192.245 143.489 191.077 144.657 191.077 146.097C191.077 147.537 192.245 148.704 193.685 148.704Z" fill="#F1F2F2"/>
<path d="M185.616 148.704C187.057 148.704 188.224 147.537 188.224 146.097C188.224 144.657 187.057 143.489 185.616 143.489C184.176 143.489 183.008 144.657 183.008 146.097C183.008 147.537 184.176 148.704 185.616 148.704Z" fill="#F1F2F2"/>
<path d="M176.937 148.744C178.377 148.744 179.545 147.577 179.545 146.137C179.545 144.697 178.377 143.529 176.937 143.529C175.496 143.529 174.329 144.697 174.329 146.137C174.329 147.577 175.496 148.744 176.937 148.744Z" fill="#F1F2F2"/>
<path d="M528.242 160.478C528.242 162.026 526.408 163.289 524.167 163.289H445.194C442.952 163.289 441.119 162.026 441.119 160.478C441.119 158.93 442.952 157.667 445.194 157.667H524.167C526.408 157.667 528.242 158.93 528.242 160.478Z" fill="#F1F2F2"/>
<path d="M568.014 163.249C569.432 163.249 570.581 162.099 570.581 160.682C570.581 159.264 569.432 158.115 568.014 158.115C566.596 158.115 565.447 159.264 565.447 160.682C565.447 162.099 566.596 163.249 568.014 163.249Z" fill="#F1F2F2"/>
<path d="M560.15 163.249C561.568 163.249 562.717 162.099 562.717 160.682C562.717 159.264 561.568 158.115 560.15 158.115C558.732 158.115 557.583 159.264 557.583 160.682C557.583 162.099 558.732 163.249 560.15 163.249Z" fill="#F1F2F2"/>
<path d="M551.714 163.29C553.132 163.29 554.281 162.14 554.281 160.723C554.281 159.305 553.132 158.156 551.714 158.156C550.296 158.156 549.147 159.305 549.147 160.723C549.147 162.14 550.296 163.29 551.714 163.29Z" fill="#F1F2F2"/>
<path d="M329.138 96.9219C329.138 96.9219 338.714 106.903 345.927 109.348C345.927 109.348 336.676 130.329 329.26 134.689C321.803 130.452 312.43 109.47 312.43 109.47C319.602 106.985 329.138 96.9219 329.138 96.9219Z" fill="#A7A9AC"/>
<path d="M329.016 97.8184C329.016 97.8184 338.144 107.311 344.99 109.633C344.99 109.633 336.188 129.596 329.138 133.752C322.047 129.718 313.123 109.755 313.123 109.755C319.928 107.352 328.975 97.8184 329.016 97.8184C328.975 97.8184 328.975 97.8184 329.016 97.8184C328.975 97.8184 329.016 97.8184 329.016 97.8184Z" fill="url(#paint44_linear)"/>
<path d="M329.097 122.548C333.846 122.548 337.696 118.699 337.696 113.952C337.696 109.204 333.846 105.355 329.097 105.355C324.349 105.355 320.499 109.204 320.499 113.952C320.499 118.699 324.349 122.548 329.097 122.548Z" fill="white"/>
<path d="M328.445 119.777C328.323 119.777 328.201 119.736 328.119 119.696C327.997 119.655 327.915 119.574 327.834 119.451L324.452 115.133C324.289 114.929 324.207 114.644 324.207 114.359C324.207 114.074 324.289 113.788 324.452 113.585C324.615 113.381 324.818 113.259 325.063 113.259C325.307 113.259 325.511 113.381 325.674 113.585L328.445 117.129L333.62 110.529C333.783 110.325 333.987 110.203 334.232 110.203C334.476 110.203 334.68 110.325 334.843 110.529C335.006 110.733 335.087 111.018 335.087 111.303C335.087 111.588 335.006 111.873 334.843 112.077L329.056 119.451C328.975 119.574 328.893 119.655 328.771 119.696C328.649 119.777 328.567 119.777 328.445 119.777Z" fill="url(#paint45_linear)"/>
<path d="M203.954 204.192C209.805 204.192 214.549 199.45 214.549 193.599C214.549 187.749 209.805 183.007 203.954 183.007C198.102 183.007 193.359 187.749 193.359 193.599C193.359 199.45 198.102 204.192 203.954 204.192Z" fill="url(#paint46_linear)"/>
<path d="M202.324 200.77C202.201 200.77 202.038 200.729 201.916 200.647C201.794 200.566 201.672 200.484 201.59 200.362L197.393 195.025C197.189 194.781 197.067 194.414 197.067 194.047C197.067 193.681 197.189 193.355 197.393 193.07C197.597 192.825 197.882 192.662 198.126 192.662C198.412 192.662 198.697 192.784 198.86 193.07L202.283 197.429L208.64 189.321C208.844 189.077 209.129 188.914 209.414 188.914C209.699 188.914 209.985 189.077 210.188 189.321C210.392 189.566 210.514 189.933 210.514 190.299C210.514 190.666 210.392 190.992 210.188 191.277L203.057 200.362C202.976 200.484 202.853 200.607 202.69 200.647C202.609 200.729 202.487 200.77 202.324 200.77Z" fill="white"/>
<path d="M579.913 207.289C584.189 207.289 587.655 203.823 587.655 199.548C587.655 195.273 584.189 191.808 579.913 191.808C575.637 191.808 572.17 195.273 572.17 199.548C572.17 203.823 575.637 207.289 579.913 207.289Z" fill="url(#paint47_linear)"/>
<path d="M578.731 204.804C578.609 204.804 578.528 204.763 578.446 204.723C578.365 204.682 578.283 204.6 578.202 204.519L575.145 200.608C574.982 200.404 574.901 200.16 574.942 199.915C574.942 199.671 575.023 199.386 575.186 199.223C575.349 199.019 575.512 198.937 575.716 198.937C575.92 198.937 576.123 199.019 576.246 199.223L578.731 202.4L583.377 196.452C583.54 196.248 583.703 196.167 583.947 196.167C584.151 196.167 584.355 196.289 584.518 196.452C584.681 196.615 584.762 196.9 584.762 197.145C584.762 197.389 584.681 197.674 584.518 197.837L579.302 204.478C579.22 204.56 579.139 204.641 579.057 204.682C578.935 204.763 578.853 204.804 578.731 204.804Z" fill="white"/>
<path d="M58.0687 168.096C62.3447 168.096 65.8112 164.63 65.8112 160.355C65.8112 156.08 62.3447 152.614 58.0687 152.614C53.7926 152.614 50.3262 156.08 50.3262 160.355C50.3262 164.63 53.7926 168.096 58.0687 168.096Z" fill="url(#paint48_linear)"/>
<path d="M56.887 165.57C56.7648 165.57 56.6833 165.529 56.6018 165.488C56.5203 165.447 56.4388 165.366 56.3573 165.284L53.301 161.373C53.138 161.17 53.0565 160.925 53.0973 160.681C53.0973 160.436 53.1788 160.151 53.3418 159.988C53.5048 159.784 53.6678 159.703 53.8715 159.703C54.0753 159.703 54.279 159.784 54.4013 159.988L56.887 163.166L61.5325 157.218C61.6955 157.014 61.8585 156.933 62.103 156.933C62.3068 156.933 62.5105 157.055 62.6735 157.218C62.8365 157.381 62.918 157.666 62.918 157.91C62.918 158.155 62.8365 158.44 62.6735 158.603L57.4575 165.284C57.376 165.366 57.2945 165.447 57.213 165.488C57.0908 165.529 57.0093 165.57 56.887 165.57Z" fill="white"/>
<g opacity="0.1">
<path opacity="0.1" d="M438.673 37.6446V51.6187C438.673 52.8816 438.184 54.1039 437.288 55.0002C436.391 55.8965 435.169 56.3853 433.905 56.3853H419.928C419.317 56.3853 418.665 56.2631 418.094 56.0187C417.524 55.7742 416.994 55.4076 416.546 55.0002C416.098 54.552 415.731 54.0224 415.527 53.452C415.283 52.8816 415.16 52.2705 415.16 51.6187V51.3742L408.966 50.9668C408.885 50.9668 408.763 50.9261 408.722 50.8853C408.64 50.8446 408.6 50.7631 408.559 50.6409C408.518 50.5594 408.518 50.4372 408.559 50.3557C408.6 50.2742 408.64 50.1927 408.722 50.1113L415.16 45.1409V37.6446C415.16 37.0335 415.283 36.3816 415.527 35.8113C415.772 35.2409 416.138 34.7113 416.546 34.2631C416.994 33.815 417.524 33.4483 418.094 33.2446C418.665 33.0002 419.276 32.8779 419.928 32.8779H433.905C434.517 32.8779 435.169 33.0002 435.739 33.2446C436.31 33.489 436.839 33.8557 437.288 34.2631C437.736 34.7113 438.103 35.2409 438.306 35.8113C438.551 36.3816 438.673 36.9927 438.673 37.6446Z" fill="#010101"/>
<path opacity="0.1" d="M426.652 41.9223C426.856 41.6778 427.1 41.4334 427.345 41.2297C427.834 40.8223 428.404 40.5371 428.975 40.4556C429.586 40.3334 430.197 40.3741 430.809 40.6186C431.379 40.8223 431.909 41.1889 432.316 41.6371C432.724 42.126 433.009 42.6963 433.091 43.2667C433.254 44.2038 433.05 45.1408 432.52 45.9149C431.99 46.7704 431.338 47.5445 430.564 48.1963C429.382 49.2556 428.119 50.1519 426.774 50.926C426.734 50.9667 426.734 50.9667 426.693 50.9667C426.652 50.9667 426.611 50.9667 426.611 50.926C424.941 49.9889 423.392 48.8075 422.047 47.4223C421.395 46.7704 420.906 46.0371 420.54 45.2223C420.336 44.7334 420.254 44.2445 420.254 43.7149C420.295 43.1852 420.417 42.6963 420.662 42.2075C420.906 41.7593 421.232 41.3519 421.681 41.026C422.088 40.7 422.577 40.4963 423.107 40.4149C423.759 40.2519 424.452 40.3334 425.104 40.5778C425.756 40.8223 426.285 41.2704 426.652 41.8V41.9223Z" fill="#010101"/>
</g>
<path d="M434.313 33.9776V47.9517C434.313 49.2146 433.824 50.4369 432.928 51.3332C432.031 52.2295 430.809 52.7183 429.546 52.7183H415.568C414.957 52.7183 414.305 52.5961 413.735 52.3517C413.164 52.1072 412.634 51.7406 412.186 51.3332C411.738 50.885 411.371 50.3554 411.167 49.785C410.923 49.2146 410.801 48.6035 410.801 47.9517V47.7072L404.607 47.2998C404.525 47.2998 404.403 47.2591 404.362 47.2183C404.281 47.1776 404.24 47.0961 404.199 46.9739C404.158 46.8924 404.158 46.7702 404.199 46.6887C404.24 46.6072 404.281 46.5258 404.362 46.4443L410.801 41.4739V33.9776C410.801 33.3665 410.923 32.7146 411.167 32.1443C411.412 31.5739 411.779 31.0443 412.186 30.5961C412.634 30.148 413.164 29.7813 413.735 29.5776C414.305 29.3332 414.916 29.2109 415.568 29.2109H429.546C430.157 29.2109 430.809 29.3332 431.379 29.5776C431.95 29.822 432.48 30.1887 432.928 30.5961C433.376 31.0443 433.743 31.5739 433.947 32.1443C434.191 32.7554 434.313 33.3665 434.313 33.9776Z" fill="url(#paint49_linear)"/>
<path d="M422.292 38.2963C422.496 38.0518 422.741 37.8074 422.985 37.6037C423.474 37.1963 424.045 36.9111 424.615 36.8296C425.226 36.7074 425.838 36.7481 426.449 36.9926C427.019 37.1963 427.549 37.563 427.957 38.0111C428.364 38.5 428.649 39.0704 428.731 39.6407C428.894 40.5778 428.69 41.5148 428.16 42.2889C427.631 43.1444 426.979 43.9185 426.204 44.5704C425.023 45.6296 423.759 46.5259 422.415 47.3C422.374 47.3407 422.374 47.3407 422.333 47.3407C422.292 47.3407 422.252 47.3407 422.252 47.3C420.581 46.363 419.032 45.1815 417.688 43.7963C417.036 43.1444 416.547 42.4111 416.18 41.5963C415.976 41.1074 415.895 40.6185 415.895 40.0889C415.935 39.5593 416.058 39.0704 416.302 38.5815C416.547 38.1333 416.873 37.7259 417.321 37.4C417.728 37.0741 418.217 36.8704 418.747 36.7889C419.399 36.6259 420.092 36.7074 420.744 36.9518C421.396 37.1963 421.926 37.6444 422.292 38.1741V38.2963Z" fill="white"/>
<g opacity="0.1">
<path opacity="0.1" d="M396.661 156.689V170.703C396.661 171.966 397.15 173.189 398.046 174.085C398.943 174.981 400.165 175.47 401.428 175.47H415.406C416.017 175.47 416.669 175.348 417.239 175.103C417.81 174.859 418.34 174.492 418.788 174.085C419.236 173.637 419.603 173.107 419.807 172.537C420.051 171.966 420.173 171.355 420.173 170.703V170.459L426.367 170.052C426.449 170.052 426.571 170.011 426.612 169.97C426.693 169.929 426.734 169.848 426.775 169.726C426.816 169.644 426.816 169.522 426.775 169.44C426.734 169.359 426.693 169.277 426.612 169.196L420.173 164.226V156.689C420.173 156.077 420.051 155.426 419.807 154.855C419.562 154.285 419.195 153.755 418.788 153.307C418.34 152.859 417.81 152.492 417.239 152.289C416.669 152.044 416.058 151.922 415.406 151.922H401.428C400.817 151.922 400.165 152.044 399.595 152.289C399.024 152.533 398.494 152.9 398.046 153.307C397.598 153.755 397.231 154.285 397.027 154.855C396.783 155.466 396.661 156.077 396.661 156.689Z" fill="#010101"/>
<path opacity="0.1" d="M408.682 160.966C408.478 160.722 408.234 160.477 407.989 160.274C407.5 159.866 406.93 159.581 406.359 159.5C405.748 159.377 405.137 159.418 404.525 159.663C403.955 159.866 403.425 160.233 403.018 160.681C402.61 161.17 402.325 161.74 402.243 162.311C402.08 163.248 402.284 164.185 402.814 164.959C403.344 165.814 403.996 166.588 404.77 167.24C405.952 168.3 407.215 169.196 408.56 169.97C408.6 170.011 408.6 170.011 408.641 170.011C408.682 170.011 408.723 170.011 408.723 169.97C410.393 169.033 411.942 167.851 413.287 166.466C413.939 165.814 414.428 165.081 414.794 164.266C414.998 163.777 415.08 163.288 415.08 162.759C415.039 162.229 414.917 161.74 414.672 161.251C414.428 160.803 414.102 160.396 413.653 160.07C413.246 159.744 412.757 159.54 412.227 159.459C411.575 159.296 410.882 159.377 410.23 159.622C409.578 159.866 409.049 160.314 408.682 160.844V160.966Z" fill="#010101"/>
</g>
<path d="M401.021 153.062V167.036C401.021 168.299 401.51 169.522 402.407 170.418C403.303 171.314 404.525 171.803 405.789 171.803H419.766C420.377 171.803 421.029 171.681 421.6 171.436C422.17 171.192 422.7 170.825 423.148 170.418C423.596 169.97 423.963 169.44 424.167 168.87C424.411 168.299 424.534 167.688 424.534 167.036V166.792L430.728 166.385C430.809 166.385 430.931 166.344 430.972 166.303C431.054 166.262 431.094 166.181 431.135 166.059C431.176 165.977 431.176 165.855 431.135 165.773C431.094 165.692 431.054 165.61 430.972 165.529L424.534 160.559V153.022C424.534 152.41 424.411 151.759 424.167 151.188C423.922 150.618 423.556 150.088 423.148 149.64C422.741 149.192 422.17 148.825 421.6 148.622C421.029 148.377 420.418 148.255 419.766 148.255H405.789C405.177 148.255 404.525 148.377 403.955 148.622C403.384 148.866 402.855 149.233 402.407 149.64C401.958 150.088 401.592 150.618 401.388 151.188C401.143 151.799 401.021 152.451 401.021 153.062Z" fill="url(#paint50_linear)"/>
<path d="M413.042 157.34C412.838 157.096 412.594 156.851 412.349 156.648C411.86 156.24 411.29 155.955 410.719 155.874C410.108 155.751 409.497 155.792 408.886 156.037C408.315 156.24 407.785 156.607 407.378 157.055C406.97 157.544 406.685 158.114 406.604 158.685C406.441 159.622 406.644 160.559 407.174 161.333C407.704 162.188 408.356 162.962 409.13 163.614C410.312 164.674 411.575 165.57 412.92 166.344C412.961 166.385 412.961 166.385 413.001 166.385C413.042 166.385 413.083 166.385 413.083 166.344C414.754 165.407 416.302 164.225 417.647 162.84C418.299 162.188 418.788 161.455 419.155 160.64C419.358 160.151 419.44 159.662 419.44 159.133C419.399 158.603 419.277 158.114 419.032 157.625C418.788 157.177 418.462 156.77 418.014 156.444C417.606 156.118 417.117 155.914 416.587 155.833C415.935 155.67 415.243 155.751 414.591 155.996C413.939 156.24 413.409 156.688 413.042 157.218V157.34Z" fill="white"/>
<g opacity="0.1">
<path opacity="0.1" d="M219.724 44.8558V54.8373C219.724 55.7336 220.09 56.5892 220.702 57.241C221.354 57.8929 222.209 58.2188 223.106 58.2188H233.09C233.538 58.2188 233.986 58.1373 234.394 57.9743C234.801 57.8114 235.168 57.5669 235.494 57.241C235.82 56.9151 236.064 56.5484 236.227 56.141C236.39 55.7336 236.472 55.2855 236.472 54.8373V54.6336L240.873 54.3484C240.954 54.3484 240.995 54.3077 241.077 54.2669C241.117 54.2262 241.158 54.1854 241.199 54.104C241.199 54.0225 241.199 53.9817 241.199 53.9003C241.158 53.8188 241.158 53.778 241.077 53.7373L236.472 50.1929V44.8151C236.472 44.3669 236.39 43.9188 236.227 43.5114C236.064 43.104 235.82 42.7373 235.494 42.4114C235.168 42.0854 234.801 41.841 234.394 41.678C233.986 41.5151 233.538 41.4336 233.09 41.4336H223.147C222.698 41.4336 222.25 41.5151 221.843 41.678C221.435 41.841 221.068 42.0854 220.742 42.4114C220.416 42.7373 220.172 43.104 220.009 43.5114C219.846 43.9595 219.724 44.4077 219.724 44.8558Z" fill="#010101"/>
<path opacity="0.1" d="M228.322 47.9115C228.159 47.7486 227.996 47.5856 227.833 47.4226C227.507 47.1374 227.099 46.9337 226.651 46.8523C226.203 46.7708 225.754 46.8115 225.347 46.9745C224.939 47.1374 224.573 47.3819 224.287 47.7078C224.002 48.0337 223.798 48.4412 223.717 48.8893C223.595 49.5411 223.758 50.2337 224.124 50.7634C224.491 51.3745 224.98 51.9041 225.51 52.393C226.325 53.1263 227.262 53.7782 228.24 54.3485C228.24 54.3485 228.281 54.3893 228.322 54.3893C228.362 54.3893 228.362 54.3893 228.403 54.3893C229.585 53.6967 230.685 52.8819 231.663 51.9041C232.111 51.456 232.478 50.9263 232.763 50.356C232.926 50.03 232.967 49.6634 232.967 49.256C232.967 48.8893 232.845 48.5226 232.682 48.1967C232.519 47.8708 232.274 47.5856 231.948 47.3819C231.663 47.1782 231.296 47.0152 230.93 46.9337C230.441 46.8115 229.952 46.8523 229.503 47.056C229.055 47.2189 228.648 47.5449 228.403 47.9115H228.322Z" fill="#010101"/>
</g>
<path d="M222.861 42.2484V52.2299C222.861 53.1262 223.228 53.9817 223.839 54.6336C224.491 55.2854 225.347 55.6114 226.244 55.6114H236.227C236.676 55.6114 237.124 55.5299 237.531 55.3669C237.939 55.2039 238.306 54.9595 238.632 54.6336C238.958 54.3077 239.202 53.941 239.365 53.5336C239.528 53.1262 239.61 52.678 239.61 52.2299V52.0262L244.011 51.741C244.092 51.741 244.133 51.7002 244.214 51.6595C244.255 51.6188 244.296 51.578 244.337 51.4965C244.337 51.4151 244.337 51.3743 244.337 51.2928C244.296 51.2114 244.296 51.1706 244.214 51.1299L239.61 47.5854V42.2077C239.61 41.7595 239.528 41.3114 239.365 40.9039C239.202 40.4965 238.958 40.1299 238.632 39.8039C238.306 39.478 237.939 39.2336 237.531 39.0706C237.124 38.9077 236.676 38.8262 236.227 38.8262H226.284C225.836 38.8262 225.388 38.9077 224.98 39.0706C224.573 39.2336 224.206 39.478 223.88 39.8039C223.554 40.1299 223.31 40.4965 223.147 40.9039C222.943 41.3521 222.861 41.8002 222.861 42.2484Z" fill="url(#paint51_linear)"/>
<path d="M231.419 45.3041C231.256 45.1411 231.093 44.9782 230.93 44.8152C230.604 44.53 230.196 44.3263 229.748 44.2448C229.3 44.1634 228.852 44.2041 228.444 44.3671C228.037 44.53 227.67 44.7745 227.385 45.1004C227.099 45.4263 226.896 45.8337 226.814 46.2819C226.692 46.9337 226.855 47.6263 227.222 48.156C227.588 48.7671 228.077 49.2967 228.607 49.7856C229.422 50.5189 230.359 51.1708 231.337 51.7411C231.337 51.7411 231.378 51.7819 231.419 51.7819C231.46 51.7819 231.46 51.7819 231.5 51.7819C232.682 51.0893 233.782 50.2745 234.76 49.2967C235.209 48.8485 235.575 48.3189 235.861 47.7485C236.024 47.4226 236.064 47.056 236.064 46.6485C236.064 46.2819 235.942 45.9152 235.779 45.5893C235.616 45.2634 235.372 44.9782 235.046 44.7745C234.76 44.5708 234.394 44.4078 234.027 44.3263C233.538 44.2041 233.049 44.2448 232.601 44.4485C232.152 44.6115 231.745 44.9374 231.5 45.3041H231.419Z" fill="white"/>
</g>
<defs>
<filter id="filter0_d" x="-12" y="-8" width="676" height="464" filterUnits="userSpaceOnUse" color-interpolation-filters="sRGB">
<feFlood flood-opacity="0" result="BackgroundImageFix"/>
<feColorMatrix in="SourceAlpha" type="matrix" values="0 0 0 0 0 0 0 0 0 0 0 0 0 0 0 0 0 0 127 0" result="hardAlpha"/>
<feOffset dy="4"/>
<feGaussianBlur stdDeviation="6"/>
<feColorMatrix type="matrix" values="0 0 0 0 0 0 0 0 0 0 0 0 0 0 0 0 0 0 0.3 0"/>
<feBlend mode="normal" in2="BackgroundImageFix" result="effect1_dropShadow"/>
<feBlend mode="normal" in="SourceGraphic" in2="effect1_dropShadow" result="shape"/>
</filter>
<linearGradient id="paint0_linear" x1="169.427" y1="304.38" x2="467.114" y2="304.38" gradientUnits="userSpaceOnUse">
<stop stop-color="#7FD1F5"/>
<stop offset="1" stop-color="#44B4E7"/>
</linearGradient>
<linearGradient id="paint1_linear" x1="100.945" y1="171.777" x2="194.057" y2="171.777" gradientUnits="userSpaceOnUse">
<stop stop-color="#7FD1F5"/>
<stop offset="1" stop-color="#44B4E7"/>
</linearGradient>
<linearGradient id="paint2_linear" x1="66.3439" y1="172.861" x2="96.5175" y2="172.861" gradientUnits="userSpaceOnUse">
<stop stop-color="#7FD1F5"/>
<stop offset="1" stop-color="#44B4E7"/>
</linearGradient>
<linearGradient id="paint3_linear" x1="484.554" y1="221.638" x2="523.955" y2="221.638" gradientUnits="userSpaceOnUse">
<stop stop-color="#7FD1F5"/>
<stop offset="1" stop-color="#44B4E7"/>
</linearGradient>
<linearGradient id="paint4_linear" x1="199.709" y1="109.318" x2="257.775" y2="109.318" gradientUnits="userSpaceOnUse">
<stop stop-color="#7FD1F5"/>
<stop offset="1" stop-color="#44B4E7"/>
</linearGradient>
<linearGradient id="paint5_linear" x1="529.695" y1="221.638" x2="569.096" y2="221.638" gradientUnits="userSpaceOnUse">
<stop stop-color="#7FD1F5"/>
<stop offset="1" stop-color="#44B4E7"/>
</linearGradient>
<linearGradient id="paint6_linear" x1="445.071" y1="186.385" x2="474.68" y2="186.385" gradientUnits="userSpaceOnUse">
<stop stop-color="#7FD1F5"/>
<stop offset="1" stop-color="#44B4E7"/>
</linearGradient>
<linearGradient id="paint7_linear" x1="117.04" y1="270.921" x2="141.77" y2="270.921" gradientUnits="userSpaceOnUse">
<stop stop-color="#7FD1F5"/>
<stop offset="1" stop-color="#44B4E7"/>
</linearGradient>
<linearGradient id="paint8_linear" x1="107.988" y1="253.462" x2="121.619" y2="253.462" gradientUnits="userSpaceOnUse">
<stop stop-color="#7FD1F5"/>
<stop offset="1" stop-color="#44B4E7"/>
</linearGradient>
<linearGradient id="paint9_linear" x1="127.439" y1="241.949" x2="135.18" y2="241.949" gradientUnits="userSpaceOnUse">
<stop stop-color="#7FD1F5"/>
<stop offset="1" stop-color="#44B4E7"/>
</linearGradient>
<linearGradient id="paint10_linear" x1="48.3624" y1="218.492" x2="54.4314" y2="218.492" gradientUnits="userSpaceOnUse">
<stop stop-color="#7FD1F5"/>
<stop offset="1" stop-color="#44B4E7"/>
</linearGradient>
<linearGradient id="paint11_linear" x1="580.275" y1="235.92" x2="584.798" y2="235.92" gradientUnits="userSpaceOnUse">
<stop stop-color="#7FD1F5"/>
<stop offset="1" stop-color="#44B4E7"/>
</linearGradient>
<linearGradient id="paint12_linear" x1="471.988" y1="117.04" x2="487.768" y2="117.04" gradientUnits="userSpaceOnUse">
<stop stop-color="#7FD1F5"/>
<stop offset="1" stop-color="#44B4E7"/>
</linearGradient>
<linearGradient id="paint13_linear" x1="457.461" y1="113.188" x2="467.81" y2="113.188" gradientUnits="userSpaceOnUse">
<stop stop-color="#7FD1F5"/>
<stop offset="1" stop-color="#44B4E7"/>
</linearGradient>
<linearGradient id="paint14_linear" x1="247.192" y1="87.8614" x2="257.541" y2="87.8614" gradientUnits="userSpaceOnUse">
<stop stop-color="#7FD1F5"/>
<stop offset="1" stop-color="#44B4E7"/>
</linearGradient>
<linearGradient id="paint15_linear" x1="467.445" y1="103.673" x2="475.48" y2="103.673" gradientUnits="userSpaceOnUse">
<stop stop-color="#7FD1F5"/>
<stop offset="1" stop-color="#44B4E7"/>
</linearGradient>
<linearGradient id="paint16_linear" x1="511.692" y1="265.934" x2="561.847" y2="265.934" gradientUnits="userSpaceOnUse">
<stop stop-color="#7FD1F5"/>
<stop offset="1" stop-color="#44B4E7"/>
</linearGradient>
<linearGradient id="paint17_linear" x1="270.011" y1="77.1992" x2="295.512" y2="77.1992" gradientUnits="userSpaceOnUse">
<stop stop-color="#7FD1F5"/>
<stop offset="1" stop-color="#44B4E7"/>
</linearGradient>
<linearGradient id="paint18_linear" x1="154.003" y1="96.3112" x2="205.727" y2="96.3112" gradientUnits="userSpaceOnUse">
<stop stop-color="#71459B"/>
<stop offset="0.8668" stop-color="#A76CAD"/>
</linearGradient>
<linearGradient id="paint19_linear" x1="181.106" y1="84.8954" x2="209.246" y2="84.8954" gradientUnits="userSpaceOnUse">
<stop stop-color="#71459B"/>
<stop offset="0.8668" stop-color="#A76CAD"/>
</linearGradient>
<linearGradient id="paint20_linear" x1="158.714" y1="86.5923" x2="179.195" y2="86.5923" gradientUnits="userSpaceOnUse">
<stop stop-color="#71459B"/>
<stop offset="0.8668" stop-color="#A76CAD"/>
</linearGradient>
<linearGradient id="paint21_linear" x1="144.266" y1="105.405" x2="164.746" y2="105.405" gradientUnits="userSpaceOnUse">
<stop stop-color="#71459B"/>
<stop offset="0.8668" stop-color="#A76CAD"/>
</linearGradient>
<linearGradient id="paint22_linear" x1="589.907" y1="238.758" x2="610.388" y2="238.758" gradientUnits="userSpaceOnUse">
<stop stop-color="#71459B"/>
<stop offset="0.8668" stop-color="#A76CAD"/>
</linearGradient>
<linearGradient id="paint23_linear" x1="461.247" y1="90.4028" x2="481.728" y2="90.4028" gradientUnits="userSpaceOnUse">
<stop stop-color="#71459B"/>
<stop offset="0.8668" stop-color="#A76CAD"/>
</linearGradient>
<linearGradient id="paint24_linear" x1="17.939" y1="222.483" x2="38.4199" y2="222.483" gradientUnits="userSpaceOnUse">
<stop stop-color="#71459B"/>
<stop offset="0.8668" stop-color="#A76CAD"/>
</linearGradient>
<linearGradient id="paint25_linear" x1="456.129" y1="95.6867" x2="464.683" y2="95.6867" gradientUnits="userSpaceOnUse">
<stop stop-color="#71459B"/>
<stop offset="0.8668" stop-color="#A76CAD"/>
</linearGradient>
<linearGradient id="paint26_linear" x1="437.444" y1="66.3472" x2="445.998" y2="66.3472" gradientUnits="userSpaceOnUse">
<stop stop-color="#71459B"/>
<stop offset="0.8668" stop-color="#A76CAD"/>
</linearGradient>
<linearGradient id="paint27_linear" x1="554.439" y1="251.391" x2="562.993" y2="251.391" gradientUnits="userSpaceOnUse">
<stop stop-color="#71459B"/>
<stop offset="0.8668" stop-color="#A76CAD"/>
</linearGradient>
<linearGradient id="paint28_linear" x1="65.9653" y1="237.188" x2="74.519" y2="237.188" gradientUnits="userSpaceOnUse">
<stop stop-color="#71459B"/>
<stop offset="0.8668" stop-color="#A76CAD"/>
</linearGradient>
<linearGradient id="paint29_linear" x1="206.705" y1="89.5722" x2="215.259" y2="89.5722" gradientUnits="userSpaceOnUse">
<stop stop-color="#71459B"/>
<stop offset="0.8668" stop-color="#A76CAD"/>
</linearGradient>
<linearGradient id="paint30_linear" x1="618.408" y1="266.495" x2="626.962" y2="266.495" gradientUnits="userSpaceOnUse">
<stop stop-color="#71459B"/>
<stop offset="0.8668" stop-color="#A76CAD"/>
</linearGradient>
<linearGradient id="paint31_linear" x1="312.105" y1="34.2184" x2="320.659" y2="34.2184" gradientUnits="userSpaceOnUse">
<stop stop-color="#71459B"/>
<stop offset="0.8668" stop-color="#A76CAD"/>
</linearGradient>
<linearGradient id="paint32_linear" x1="334.4" y1="40.9976" x2="354.88" y2="40.9976" gradientUnits="userSpaceOnUse">
<stop stop-color="#71459B"/>
<stop offset="0.8668" stop-color="#A76CAD"/>
</linearGradient>
<linearGradient id="paint33_linear" x1="170.542" y1="109.503" x2="191.023" y2="109.503" gradientUnits="userSpaceOnUse">
<stop stop-color="#71459B"/>
<stop offset="0.8668" stop-color="#A76CAD"/>
</linearGradient>
<linearGradient id="paint34_linear" x1="611.067" y1="262.471" x2="631.548" y2="262.471" gradientUnits="userSpaceOnUse">
<stop stop-color="#71459B"/>
<stop offset="0.8668" stop-color="#A76CAD"/>
</linearGradient>
<linearGradient id="paint35_linear" x1="15.1978" y1="245.899" x2="43.3378" y2="245.899" gradientUnits="userSpaceOnUse">
<stop stop-color="#71459B"/>
<stop offset="0.8668" stop-color="#A76CAD"/>
</linearGradient>
<linearGradient id="paint36_linear" x1="462.798" y1="84.9365" x2="490.938" y2="84.9365" gradientUnits="userSpaceOnUse">
<stop stop-color="#71459B"/>
<stop offset="0.8668" stop-color="#A76CAD"/>
</linearGradient>
<linearGradient id="paint37_linear" x1="586.716" y1="267.044" x2="614.856" y2="267.044" gradientUnits="userSpaceOnUse">
<stop stop-color="#71459B"/>
<stop offset="0.8668" stop-color="#A76CAD"/>
</linearGradient>
<linearGradient id="paint38_linear" x1="443.772" y1="75.6755" x2="481.354" y2="75.6755" gradientUnits="userSpaceOnUse">
<stop stop-color="#71459B"/>
<stop offset="0.8668" stop-color="#A76CAD"/>
</linearGradient>
<linearGradient id="paint39_linear" x1="566.451" y1="252.302" x2="608.475" y2="252.302" gradientUnits="userSpaceOnUse">
<stop stop-color="#71459B"/>
<stop offset="0.8668" stop-color="#A76CAD"/>
</linearGradient>
<linearGradient id="paint40_linear" x1="23.8223" y1="233.791" x2="63.0142" y2="233.791" gradientUnits="userSpaceOnUse">
<stop stop-color="#71459B"/>
<stop offset="0.8668" stop-color="#A76CAD"/>
</linearGradient>
<linearGradient id="paint41_linear" x1="293.477" y1="276.046" x2="250.463" y2="277.554" gradientUnits="userSpaceOnUse">
<stop stop-color="#71459B"/>
<stop offset="0.8668" stop-color="#A76DAE"/>
</linearGradient>
<linearGradient id="paint42_linear" x1="343.241" y1="276.479" x2="386.005" y2="281.353" gradientUnits="userSpaceOnUse">
<stop stop-color="#71459B"/>
<stop offset="0.8668" stop-color="#A76DAE"/>
</linearGradient>
<linearGradient id="paint43_linear" x1="310.023" y1="115.571" x2="349.632" y2="115.571" gradientUnits="userSpaceOnUse">
<stop stop-color="#71459B"/>
<stop offset="0.8668" stop-color="#A76CAD"/>
</linearGradient>
<linearGradient id="paint44_linear" x1="313.097" y1="115.762" x2="344.962" y2="115.762" gradientUnits="userSpaceOnUse">
<stop stop-color="#43B5E8"/>
<stop offset="1" stop-color="#B3E3F9"/>
</linearGradient>
<linearGradient id="paint45_linear" x1="324.183" y1="114.989" x2="335.09" y2="114.989" gradientUnits="userSpaceOnUse">
<stop stop-color="#71459B"/>
<stop offset="0.8668" stop-color="#A76DAE"/>
</linearGradient>
<linearGradient id="paint46_linear" x1="193.347" y1="193.618" x2="214.545" y2="193.618" gradientUnits="userSpaceOnUse">
<stop stop-color="#7FD1F5"/>
<stop offset="1" stop-color="#44B4E7"/>
</linearGradient>
<linearGradient id="paint47_linear" x1="572.189" y1="199.562" x2="587.67" y2="199.562" gradientUnits="userSpaceOnUse">
<stop stop-color="#7FD1F5"/>
<stop offset="1" stop-color="#44B4E7"/>
</linearGradient>
<linearGradient id="paint48_linear" x1="50.3294" y1="160.337" x2="65.8101" y2="160.337" gradientUnits="userSpaceOnUse">
<stop stop-color="#7FD1F5"/>
<stop offset="1" stop-color="#44B4E7"/>
</linearGradient>
<linearGradient id="paint49_linear" x1="404.164" y1="40.989" x2="434.322" y2="40.989" gradientUnits="userSpaceOnUse">
<stop stop-color="#7DD3F7"/>
<stop offset="1" stop-color="#43B5E8"/>
</linearGradient>
<linearGradient id="paint50_linear" x1="431.178" y1="160.058" x2="401.02" y2="160.058" gradientUnits="userSpaceOnUse">
<stop stop-color="#7DD3F7"/>
<stop offset="1" stop-color="#43B5E8"/>
</linearGradient>
<linearGradient id="paint51_linear" x1="244.342" y1="47.2388" x2="222.851" y2="47.2388" gradientUnits="userSpaceOnUse">
<stop stop-color="#7DD3F7"/>
<stop offset="1" stop-color="#43B5E8"/>
</linearGradient>
</defs>
</svg>
