<svg width="677" height="450" viewBox="0 0 677 450" fill="none" xmlns="http://www.w3.org/2000/svg">
<g filter="url(#filter0_d)">
<path d="M184.764 275.652L181.708 282.497L188.391 291.745L184.764 275.652Z" fill="#808285"/>
<path d="M481.995 275.733L484.806 282.578L478.694 291.826L481.995 275.733Z" fill="#808285"/>
<path d="M466.224 357.948C378.856 336.967 287.739 336.967 200.371 357.948C194.381 332.933 188.35 307.959 182.36 282.944C281.586 259.111 385.01 259.111 484.236 282.944C478.246 307.959 472.215 332.974 466.224 357.948Z" fill="#808285"/>
<path d="M464.676 350.207C378.245 330 288.31 330 201.838 350.207C196.011 325.396 190.225 300.545 184.397 275.733C282.32 252.837 384.195 252.796 482.076 275.733C476.29 300.545 470.503 325.396 464.676 350.207Z" fill="url(#paint0_linear)"/>
<path d="M201.594 285.307C201.838 286.407 200.983 287.507 199.76 287.793C198.538 288.037 197.315 288.322 196.093 288.607C194.87 288.893 193.648 288.2 193.403 287.141C193.199 286.244 192.996 285.307 192.792 284.411C192.547 283.311 193.362 282.211 194.626 281.926C195.848 281.641 197.111 281.396 198.334 281.111C199.597 280.826 200.82 281.519 201.023 282.619C201.227 283.474 201.431 284.37 201.594 285.307Z" fill="#E6E7E8"/>
<path d="M211.822 283.107C212.026 284.207 211.17 285.307 209.947 285.552C208.725 285.796 207.502 286.04 206.28 286.285C205.017 286.529 203.835 285.837 203.59 284.737C203.387 283.84 203.224 282.903 203.02 282.007C202.775 280.907 203.631 279.807 204.894 279.563C206.117 279.318 207.38 279.074 208.603 278.829C209.866 278.585 211.088 279.277 211.292 280.377C211.496 281.274 211.659 282.211 211.822 283.107Z" fill="#A7A9AC"/>
<path d="M221.765 281.396C221.969 282.496 221.113 283.596 219.85 283.8C218.627 284.004 217.405 284.248 216.142 284.493C214.878 284.737 213.697 284.004 213.493 282.904C213.33 281.967 213.126 281.07 212.963 280.133C212.759 279.033 213.615 277.933 214.878 277.689C216.142 277.444 217.364 277.241 218.627 276.996C219.891 276.752 221.072 277.485 221.276 278.585C221.439 279.563 221.602 280.459 221.765 281.396Z" fill="white"/>
<path d="M231.341 279.767C231.504 280.867 230.649 281.926 229.385 282.13C228.163 282.333 226.9 282.537 225.677 282.741C224.414 282.945 223.232 282.211 223.069 281.111C222.906 280.174 222.743 279.278 222.58 278.341C222.376 277.241 223.273 276.141 224.536 275.937C225.799 275.733 227.022 275.53 228.285 275.326C229.548 275.122 230.73 275.856 230.893 276.956C231.015 277.933 231.178 278.83 231.341 279.767Z" fill="white"/>
<path d="M241.04 278.299C241.203 279.399 240.306 280.459 239.043 280.662C237.82 280.866 236.557 281.029 235.335 281.233C234.071 281.437 232.93 280.703 232.727 279.562C232.564 278.625 232.441 277.729 232.278 276.792C232.115 275.692 233.012 274.633 234.275 274.429C235.538 274.225 236.761 274.062 238.024 273.859C239.287 273.655 240.469 274.429 240.632 275.529C240.754 276.425 240.877 277.362 241.04 278.299Z" fill="#E6E7E8"/>
<path d="M213.534 291.256C213.737 292.356 212.922 293.456 211.7 293.7C210.477 293.944 209.296 294.189 208.073 294.433C206.851 294.678 205.669 293.985 205.424 292.885C205.221 291.989 205.058 291.052 204.854 290.156C204.609 289.056 205.465 287.956 206.688 287.711C207.91 287.467 209.133 287.222 210.355 286.978C211.618 286.733 212.8 287.426 213.004 288.526C213.167 289.422 213.371 290.319 213.534 291.256Z" fill="white"/>
<path d="M203.305 293.292C203.55 294.392 202.735 295.492 201.512 295.777C200.29 296.022 199.108 296.307 197.886 296.552C196.663 296.837 195.441 296.144 195.196 295.044C194.992 294.148 194.789 293.211 194.585 292.314C194.34 291.214 195.155 290.114 196.378 289.829C197.6 289.544 198.823 289.3 200.045 289.014C201.268 288.729 202.49 289.422 202.735 290.522C202.939 291.459 203.142 292.396 203.305 293.292Z" fill="white"/>
<path d="M223.314 289.422C223.517 290.522 222.662 291.622 221.439 291.826C220.217 292.03 218.994 292.274 217.812 292.478C216.59 292.722 215.408 291.989 215.204 290.889C215.041 289.952 214.838 289.056 214.675 288.119C214.471 287.019 215.327 285.919 216.549 285.674C217.772 285.43 218.994 285.226 220.217 284.982C221.48 284.737 222.662 285.471 222.825 286.571C222.988 287.589 223.151 288.526 223.314 289.422Z" fill="#E6E7E8"/>
<path d="M232.768 287.833C232.931 288.933 232.075 289.992 230.853 290.196C229.63 290.4 228.408 290.604 227.185 290.807C225.963 291.011 224.781 290.278 224.577 289.178C224.414 288.241 224.251 287.344 224.088 286.407C223.884 285.307 224.74 284.207 226.003 284.003C227.226 283.8 228.448 283.596 229.712 283.392C230.975 283.189 232.116 283.922 232.32 285.022C232.442 286 232.605 286.937 232.768 287.833Z" fill="#A7A9AC"/>
<path d="M242.466 286.367C242.629 287.467 241.733 288.526 240.51 288.73C239.288 288.893 238.065 289.096 236.843 289.3C235.62 289.504 234.438 288.73 234.275 287.63C234.112 286.693 233.99 285.797 233.827 284.859C233.664 283.759 234.52 282.7 235.783 282.497C237.006 282.293 238.228 282.13 239.491 281.926C240.755 281.722 241.896 282.497 242.059 283.597C242.181 284.493 242.303 285.43 242.466 286.367Z" fill="white"/>
<path d="M411.619 336.559C411.456 337.659 410.397 338.433 409.256 338.311C357.707 331.467 305.425 331.63 253.917 338.759C252.776 338.922 251.716 338.148 251.553 337.048C248.619 316.433 245.685 295.819 242.751 275.204C242.588 274.104 243.485 273.044 244.789 272.882C302.246 264.937 360.519 264.733 418.017 272.352C419.28 272.515 420.217 273.574 420.054 274.674C417.243 295.289 414.431 315.904 411.619 336.559Z" fill="#E9F7FE"/>
<path d="M195.726 277.037C195.97 278.096 195.155 279.156 193.974 279.4C192.751 279.685 191.61 279.033 191.366 277.974C191.121 276.915 191.936 275.856 193.118 275.611C194.34 275.367 195.522 275.978 195.726 277.037Z" fill="white"/>
<path d="M201.879 275.733C202.083 276.792 201.308 277.852 200.086 278.096C198.863 278.341 197.722 277.73 197.478 276.67C197.233 275.611 198.048 274.552 199.271 274.307C200.493 274.022 201.634 274.674 201.879 275.733Z" fill="white"/>
<path d="M207.706 274.552C207.91 275.612 207.095 276.63 205.913 276.875C204.691 277.119 203.55 276.467 203.346 275.408C203.142 274.349 203.957 273.289 205.139 273.045C206.362 272.841 207.503 273.493 207.706 274.552Z" fill="white"/>
<path d="M213.859 273.371C214.063 274.43 213.248 275.448 212.026 275.693C210.803 275.937 209.662 275.245 209.458 274.226C209.255 273.167 210.07 272.148 211.292 271.904C212.515 271.659 213.656 272.311 213.859 273.371Z" fill="white"/>
<path d="M204.365 300.829C204.772 302.703 203.387 304.578 201.349 305.026C199.271 305.474 197.274 304.333 196.867 302.459C196.459 300.585 197.804 298.711 199.882 298.222C201.96 297.774 203.957 298.955 204.365 300.829Z" fill="white"/>
<path d="M214.39 298.793C214.756 300.667 213.371 302.541 211.293 302.948C209.214 303.356 207.218 302.174 206.851 300.3C206.443 298.426 207.829 296.552 209.948 296.145C212.026 295.696 214.023 296.919 214.39 298.793Z" fill="white"/>
<path d="M224.373 296.959C224.699 298.833 223.273 300.667 221.235 301.033C219.157 301.4 217.201 300.219 216.834 298.344C216.468 296.47 217.894 294.596 219.972 294.23C222.05 293.822 224.047 295.045 224.373 296.959Z" fill="white"/>
<path d="M233.868 295.248C234.153 297.122 232.727 298.956 230.649 299.281C228.571 299.648 226.615 298.385 226.289 296.511C225.963 294.637 227.389 292.804 229.508 292.437C231.627 292.111 233.583 293.374 233.868 295.248Z" fill="white"/>
<path d="M243.24 293.822C243.526 295.737 242.059 297.489 239.98 297.815C237.902 298.141 235.946 296.878 235.661 294.963C235.376 293.089 236.843 291.256 238.921 290.93C241.04 290.645 242.996 291.908 243.24 293.822Z" fill="white"/>
<path d="M211.252 344.015C211.496 345.115 211.007 346.174 210.151 346.337C209.296 346.5 208.44 345.767 208.195 344.667C205.587 332.811 202.939 320.956 200.331 309.1C200.086 308 200.616 306.941 201.512 306.737C202.409 306.533 203.346 307.267 203.591 308.367C206.117 320.263 208.684 332.159 211.252 344.015Z" fill="#E6E7E8"/>
<path d="M220.991 341.815C221.195 342.915 220.706 343.934 219.85 344.137C218.994 344.3 218.138 343.567 217.935 342.467C215.53 330.571 213.126 318.674 210.681 306.737C210.477 305.637 211.007 304.578 211.904 304.415C212.8 304.252 213.737 304.986 213.941 306.086C216.305 317.982 218.627 329.919 220.991 341.815Z" fill="white"/>
<path d="M229.956 340.348C230.159 341.448 229.63 342.467 228.774 342.63C227.918 342.793 227.062 342.019 226.859 340.919C224.617 328.982 222.417 317.045 220.176 305.108C219.972 304.008 220.542 302.948 221.439 302.785C222.335 302.622 223.232 303.396 223.436 304.496C225.636 316.433 227.796 328.371 229.956 340.348Z" fill="#E6E7E8"/>
<path d="M238.799 338.882C238.962 339.982 238.432 341 237.576 341.163C236.72 341.285 235.905 340.511 235.702 339.411C233.664 327.433 231.627 315.456 229.589 303.478C229.385 302.378 229.997 301.359 230.893 301.196C231.79 301.033 232.686 301.808 232.849 302.948C234.846 314.926 236.843 326.904 238.799 338.882Z" fill="white"/>
<path d="M247.6 337.619C247.763 338.719 247.193 339.737 246.378 339.859C245.522 339.982 244.707 339.208 244.544 338.067C242.67 326.048 240.836 314.071 238.961 302.052C238.798 300.952 239.41 299.933 240.306 299.77C241.203 299.648 242.099 300.422 242.262 301.522C244.014 313.582 245.807 325.6 247.6 337.619Z" fill="#E6E7E8"/>
<path d="M210.844 334.115C210.966 334.726 210.151 335.378 208.969 335.622C208.154 335.785 207.339 335.989 206.524 336.152C205.383 336.396 204.324 336.152 204.202 335.541C204.079 334.971 204.894 334.278 206.035 333.993C206.85 333.83 207.665 333.626 208.48 333.463C209.662 333.259 210.722 333.545 210.844 334.115Z" fill="#A7A9AC"/>
<path d="M221.276 335.092C221.398 335.704 220.543 336.355 219.402 336.559C218.587 336.722 217.772 336.885 216.957 337.048C215.816 337.292 214.797 337.007 214.675 336.396C214.552 335.785 215.408 335.133 216.549 334.889C217.364 334.726 218.179 334.563 218.994 334.4C220.094 334.196 221.154 334.522 221.276 335.092Z" fill="#A7A9AC"/>
<path d="M225.962 308.937C226.084 309.548 225.188 310.2 223.965 310.404C223.11 310.567 222.254 310.73 221.398 310.893C220.216 311.096 219.116 310.811 219.035 310.241C218.912 309.63 219.809 308.978 220.991 308.733C221.846 308.57 222.702 308.408 223.558 308.245C224.78 308.041 225.84 308.367 225.962 308.937Z" fill="#A7A9AC"/>
<path d="M235.865 312.807C235.946 313.418 235.05 314.029 233.868 314.233C233.012 314.355 232.197 314.518 231.341 314.64C230.16 314.844 229.1 314.518 228.978 313.948C228.856 313.337 229.752 312.685 230.975 312.481C231.83 312.318 232.686 312.196 233.501 312.033C234.683 311.87 235.742 312.196 235.865 312.807Z" fill="#A7A9AC"/>
<path d="M244.381 304.17C244.463 304.781 243.566 305.392 242.344 305.596C241.488 305.718 240.632 305.84 239.776 306.003C238.554 306.207 237.494 305.84 237.413 305.27C237.331 304.659 238.228 304.048 239.45 303.844C240.306 303.722 241.162 303.6 242.018 303.437C243.24 303.233 244.3 303.559 244.381 304.17Z" fill="#A7A9AC"/>
<path d="M424.456 335.867C424.619 334.767 423.844 333.707 422.703 333.544C421.562 333.382 420.421 333.178 419.321 333.015C418.18 332.852 417.08 333.626 416.958 334.726C416.835 335.663 416.672 336.559 416.55 337.496C416.387 338.596 417.202 339.656 418.343 339.819C419.443 339.981 420.584 340.144 421.685 340.307C422.826 340.47 423.885 339.737 424.048 338.637C424.17 337.7 424.293 336.763 424.456 335.867Z" fill="white"/>
<path d="M433.828 337.537C434.032 336.437 433.258 335.378 432.076 335.174C430.935 334.971 429.834 334.808 428.693 334.604C427.552 334.4 426.452 335.174 426.289 336.274C426.126 337.211 426.004 338.108 425.841 339.045C425.678 340.145 426.452 341.204 427.593 341.408C428.693 341.611 429.834 341.774 430.935 341.978C432.076 342.182 433.135 341.448 433.339 340.348C433.502 339.371 433.665 338.434 433.828 337.537Z" fill="#A7A9AC"/>
<path d="M442.875 339.085C443.079 337.985 442.304 336.885 441.163 336.681C440.022 336.478 438.922 336.274 437.781 336.07C436.64 335.866 435.54 336.6 435.336 337.7C435.173 338.637 435.01 339.533 434.847 340.47C434.643 341.57 435.417 342.629 436.559 342.833C437.659 343.037 438.8 343.24 439.9 343.444C441.041 343.648 442.141 342.915 442.345 341.815C442.508 340.918 442.671 339.981 442.875 339.085Z" fill="white"/>
<path d="M451.513 340.797C451.758 339.697 450.984 338.597 449.843 338.393C448.702 338.149 447.601 337.945 446.46 337.7C445.319 337.456 444.219 338.189 444.015 339.289C443.852 340.226 443.649 341.123 443.486 342.06C443.282 343.16 444.015 344.219 445.156 344.463C446.257 344.667 447.398 344.912 448.498 345.115C449.639 345.36 450.739 344.626 450.943 343.526C451.147 342.63 451.35 341.693 451.513 340.797Z" fill="#E6E7E8"/>
<path d="M460.275 342.67C460.52 341.57 459.786 340.47 458.645 340.226C457.504 339.981 456.404 339.737 455.263 339.492C454.122 339.248 452.981 339.941 452.777 341.041C452.573 341.937 452.41 342.874 452.207 343.77C451.962 344.87 452.696 345.97 453.837 346.215C454.937 346.459 456.037 346.704 457.178 346.948C458.319 347.192 459.419 346.5 459.664 345.4C459.868 344.504 460.071 343.607 460.275 342.67Z" fill="#E6E7E8"/>
<path d="M435.376 329.348C435.58 328.248 434.765 327.189 433.624 326.985C432.483 326.781 431.342 326.577 430.201 326.414C429.019 326.211 427.919 326.985 427.756 328.085C427.593 329.022 427.471 329.918 427.308 330.855C427.145 331.955 427.919 333.014 429.06 333.218C430.201 333.422 431.342 333.585 432.442 333.788C433.583 333.992 434.684 333.259 434.887 332.159C435.05 331.222 435.213 330.285 435.376 329.348Z" fill="white"/>
<path d="M425.759 327.759C425.922 326.659 425.107 325.6 423.966 325.396C422.825 325.233 421.684 325.029 420.502 324.866C419.321 324.703 418.261 325.477 418.098 326.577C417.976 327.515 417.813 328.411 417.691 329.348C417.528 330.448 418.343 331.507 419.484 331.67C420.625 331.833 421.766 331.996 422.907 332.2C424.048 332.363 425.148 331.629 425.311 330.529C425.474 329.592 425.596 328.696 425.759 327.759Z" fill="#E6E7E8"/>
<path d="M444.505 331.059C444.708 329.959 443.934 328.859 442.793 328.656C441.652 328.452 440.511 328.248 439.37 328.004C438.188 327.8 437.088 328.533 436.884 329.633C436.721 330.57 436.558 331.467 436.395 332.404C436.192 333.504 436.966 334.563 438.107 334.767C439.248 334.97 440.389 335.174 441.489 335.378C442.63 335.582 443.73 334.889 443.975 333.789C444.138 332.893 444.342 331.956 444.505 331.059Z" fill="#E6E7E8"/>
<path d="M453.306 332.811C453.551 331.711 452.777 330.611 451.636 330.367C450.495 330.122 449.354 329.919 448.213 329.674C447.072 329.43 445.931 330.163 445.727 331.263C445.564 332.2 445.36 333.096 445.197 334.033C444.993 335.133 445.768 336.233 446.909 336.437C448.05 336.641 449.15 336.885 450.291 337.13C451.432 337.374 452.573 336.641 452.777 335.581C452.899 334.604 453.103 333.707 453.306 332.811Z" fill="#A7A9AC"/>
<path d="M462.312 334.726C462.557 333.626 461.823 332.526 460.641 332.281C459.5 332.037 458.359 331.793 457.218 331.548C456.077 331.304 454.936 331.996 454.692 333.096C454.488 333.993 454.325 334.93 454.121 335.826C453.877 336.926 454.651 338.026 455.792 338.27C456.933 338.515 458.033 338.759 459.174 339.004C460.315 339.248 461.456 338.555 461.701 337.455C461.905 336.559 462.108 335.622 462.312 334.726Z" fill="white"/>
<path d="M426.452 320.222C426.737 318.348 425.352 316.556 423.314 316.23C421.277 315.904 419.443 317.207 419.158 319.122C418.873 321.037 420.299 322.789 422.296 323.074C424.292 323.359 426.126 322.096 426.452 320.222Z" fill="white"/>
<path d="M436.11 321.811C436.436 319.937 435.091 318.104 433.054 317.778C431.016 317.452 429.142 318.715 428.856 320.589C428.571 322.463 429.916 324.256 431.913 324.622C433.909 324.948 435.784 323.685 436.11 321.811Z" fill="white"/>
<path d="M445.686 323.563C446.053 321.689 444.708 319.855 442.712 319.489C440.715 319.122 438.8 320.344 438.474 322.259C438.148 324.133 439.492 325.967 441.489 326.333C443.404 326.659 445.32 325.437 445.686 323.563Z" fill="white"/>
<path d="M454.774 325.437C455.181 323.563 453.836 321.689 451.84 321.282C449.843 320.874 447.887 322.096 447.52 323.97C447.153 325.845 448.457 327.678 450.454 328.085C452.451 328.493 454.366 327.311 454.774 325.437Z" fill="white"/>
<path d="M463.657 327.352C464.065 325.478 462.801 323.604 460.764 323.156C458.767 322.707 456.811 323.889 456.404 325.763C455.996 327.637 457.3 329.511 459.297 329.919C461.294 330.407 463.25 329.226 463.657 327.352Z" fill="white"/>
<path d="M430.813 276.67C430.976 275.57 430.365 274.552 429.427 274.389C428.49 274.266 427.593 275.041 427.43 276.141C425.637 288.159 423.885 300.178 422.092 312.196C421.929 313.296 422.5 314.315 423.396 314.437C424.293 314.559 425.148 313.785 425.311 312.685C427.145 300.666 428.979 288.689 430.813 276.67Z" fill="#E6E7E8"/>
<path d="M441.693 278.626C441.896 277.526 441.285 276.467 440.307 276.345C439.37 276.182 438.433 276.956 438.27 278.056C436.273 290.034 434.317 302.012 432.32 313.989C432.157 315.089 432.728 316.108 433.584 316.271C434.48 316.434 435.336 315.66 435.54 314.519C437.618 302.582 439.655 290.604 441.693 278.626Z" fill="white"/>
<path d="M451.636 280.215C451.84 279.115 451.228 278.056 450.291 277.893C449.354 277.73 448.417 278.463 448.213 279.604C446.053 291.541 443.853 303.519 441.693 315.456C441.489 316.556 442.06 317.574 442.915 317.737C443.812 317.9 444.668 317.126 444.871 316.026C447.153 304.089 449.395 292.152 451.636 280.215Z" fill="#E6E7E8"/>
<path d="M461.416 282.007C461.619 280.907 461.049 279.848 460.112 279.685C459.174 279.481 458.237 280.255 457.993 281.355C455.629 293.292 453.266 305.189 450.902 317.126C450.698 318.226 451.228 319.285 452.084 319.448C452.98 319.611 453.877 318.878 454.081 317.778C456.566 305.84 458.971 293.944 461.416 282.007Z" fill="white"/>
<path d="M471.073 283.963C471.318 282.863 470.747 281.804 469.81 281.6C468.873 281.397 467.936 282.13 467.691 283.23C465.165 295.126 462.597 306.982 460.071 318.878C459.826 319.978 460.356 321.037 461.253 321.2C462.108 321.404 463.046 320.671 463.29 319.571C465.857 307.674 468.465 295.819 471.073 283.963Z" fill="#E6E7E8"/>
<path d="M431.139 286.611C431.22 286 430.283 285.348 429.06 285.185C428.164 285.062 427.308 284.9 426.412 284.777C425.148 284.574 424.089 284.94 424.007 285.551C423.926 286.162 424.863 286.774 426.126 286.977C427.023 287.1 427.879 287.222 428.775 287.385C429.957 287.548 431.057 287.222 431.139 286.611Z" fill="#A7A9AC"/>
<path d="M442.263 285.349C442.386 284.738 441.448 284.086 440.185 283.882C439.289 283.719 438.392 283.597 437.536 283.434C436.273 283.23 435.173 283.556 435.091 284.127C435.01 284.738 435.947 285.39 437.17 285.593C438.066 285.756 438.922 285.878 439.818 286.041C441.041 286.286 442.182 285.96 442.263 285.349Z" fill="#A7A9AC"/>
<path d="M447.398 311.545C447.52 310.934 446.624 310.282 445.442 310.038C444.586 309.875 443.73 309.712 442.875 309.549C441.693 309.345 440.593 309.63 440.511 310.241C440.389 310.852 441.285 311.504 442.508 311.708C443.364 311.871 444.219 312.034 445.034 312.156C446.216 312.441 447.316 312.156 447.398 311.545Z" fill="#A7A9AC"/>
<path d="M457.504 308C457.626 307.389 456.729 306.737 455.548 306.493C454.692 306.33 453.836 306.167 452.98 305.963C451.758 305.719 450.698 306.004 450.576 306.615C450.454 307.226 451.35 307.878 452.573 308.123C453.429 308.286 454.284 308.448 455.14 308.652C456.281 308.856 457.381 308.611 457.504 308Z" fill="#A7A9AC"/>
<path d="M465.572 317.126C465.695 316.555 464.839 315.822 463.657 315.577C462.801 315.374 461.986 315.211 461.131 315.048C459.949 314.803 458.849 315.089 458.726 315.659C458.604 316.27 459.46 316.922 460.642 317.207C461.497 317.37 462.313 317.574 463.168 317.737C464.35 317.981 465.45 317.696 465.572 317.126Z" fill="#A7A9AC"/>
<path d="M216.223 230.022C216.223 232.263 214.39 234.096 212.148 234.096H78.4476C76.2063 234.096 74.3726 232.263 74.3726 230.022V142.959C74.3726 140.718 76.2063 138.885 78.4476 138.885H212.148C214.39 138.885 216.223 140.718 216.223 142.959V230.022Z" fill="#E1F4FD"/>
<path d="M216.305 147.237C216.305 149.477 214.471 151.311 212.23 151.311H78.4476C76.2063 151.311 74.3726 149.477 74.3726 147.237V142.959C74.3726 140.718 76.2063 138.885 78.4476 138.885H212.23C214.471 138.885 216.305 140.718 216.305 142.959V147.237Z" fill="#6D6E71"/>
<path d="M209.052 180.115C209.052 182.355 207.218 184.189 204.977 184.189H120.013C117.772 184.189 115.938 182.355 115.938 180.115V163.411C115.938 161.17 117.772 159.337 120.013 159.337H204.977C207.218 159.337 209.052 161.17 209.052 163.411V180.115Z" fill="url(#paint1_linear)"/>
<path d="M208.603 200.689C208.603 201.097 208.237 201.423 207.788 201.423H83.0118C82.5635 201.423 82.1968 201.097 82.1968 200.689C82.1968 200.282 82.5635 199.956 83.0118 199.956H207.788C208.237 199.997 208.603 200.323 208.603 200.689Z" fill="#C7C8CA"/>
<path d="M208.603 207.574C208.603 207.982 208.237 208.307 207.788 208.307H83.0118C82.5635 208.307 82.1968 207.982 82.1968 207.574C82.1968 207.167 82.5635 206.841 83.0118 206.841H207.788C208.237 206.841 208.603 207.167 208.603 207.574Z" fill="#C7C8CA"/>
<path d="M208.44 215.559C208.44 215.967 208.073 216.293 207.625 216.293H82.8487C82.4004 216.293 82.0337 215.967 82.0337 215.559C82.0337 215.152 82.4004 214.826 82.8487 214.826H207.625C208.073 214.826 208.44 215.152 208.44 215.559Z" fill="#C7C8CA"/>
<path d="M208.44 222.81C208.44 223.218 208.073 223.544 207.625 223.544H82.8487C82.4004 223.544 82.0337 223.218 82.0337 222.81C82.0337 222.403 82.4004 222.077 82.8487 222.077H207.625C208.073 222.077 208.44 222.403 208.44 222.81Z" fill="#C7C8CA"/>
<path d="M96.4183 187.937C104.745 187.937 111.496 181.188 111.496 172.863C111.496 164.538 104.745 157.789 96.4183 157.789C88.0912 157.789 81.3408 164.538 81.3408 172.863C81.3408 181.188 88.0912 187.937 96.4183 187.937Z" fill="url(#paint2_linear)"/>
<path d="M591.898 243.263C591.898 245.504 590.064 247.337 587.823 247.337H456.689C454.448 247.337 452.614 245.504 452.614 243.263V157.952C452.614 155.711 454.448 153.878 456.689 153.878H587.823C590.064 153.878 591.898 155.711 591.898 157.952V243.263Z" fill="#E1F4FD"/>
<path d="M591.898 162.026C591.898 164.267 590.064 166.1 587.823 166.1H456.689C454.448 166.1 452.614 164.267 452.614 162.026V157.952C452.614 155.711 454.448 153.878 456.689 153.878H587.823C590.064 153.878 591.898 155.711 591.898 157.952V162.026Z" fill="#6D6E71"/>
<path d="M538.963 237.152C538.963 239.392 537.13 241.226 534.888 241.226H503.633C501.392 241.226 499.558 239.392 499.558 237.152V206.107C499.558 203.867 501.392 202.033 503.633 202.033H534.888C537.13 202.033 538.963 203.867 538.963 206.107V237.152Z" fill="url(#paint3_linear)"/>
<path d="M272.785 119.696C272.785 121.937 270.951 123.77 268.71 123.77H218.791C216.55 123.77 214.716 121.937 214.716 119.696V98.9588C214.716 96.7181 216.55 94.8848 218.791 94.8848H268.71C270.951 94.8848 272.785 96.7181 272.785 98.9588V119.696Z" fill="url(#paint4_linear)"/>
<path d="M465.654 124.585C465.654 126.826 463.82 128.659 461.579 128.659H432.932C430.691 128.659 428.857 126.826 428.857 124.585V77.7333C428.857 75.4925 430.691 73.6592 432.932 73.6592H461.579C463.82 73.6592 465.654 75.4925 465.654 77.7333V124.585Z" fill="#F1F2F2"/>
<path d="M584.114 237.152C584.114 239.392 582.281 241.226 580.039 241.226H548.784C546.543 241.226 544.709 239.392 544.709 237.152V206.107C544.709 203.867 546.543 202.033 548.784 202.033H580.039C582.281 202.033 584.114 203.867 584.114 206.107V237.152Z" fill="url(#paint5_linear)"/>
<path d="M586.437 177.915C586.437 178.322 586.071 178.648 585.622 178.648H497.113C496.665 178.648 496.298 178.322 496.298 177.915C496.298 177.508 496.665 177.182 497.113 177.182H585.622C586.071 177.182 586.437 177.508 586.437 177.915Z" fill="#C7C8CA"/>
<path d="M586.559 185.289C586.559 185.696 586.193 186.022 585.744 186.022H497.235C496.787 186.022 496.42 185.696 496.42 185.289C496.42 184.882 496.787 184.556 497.235 184.556H585.744C586.193 184.596 586.559 184.922 586.559 185.289Z" fill="#C7C8CA"/>
<path d="M586.315 193.192C586.315 193.6 585.948 193.926 585.5 193.926H496.991C496.543 193.926 496.176 193.6 496.176 193.192C496.176 192.785 496.543 192.459 496.991 192.459H585.5C585.948 192.459 586.315 192.785 586.315 193.192Z" fill="#C7C8CA"/>
<path d="M474.864 201.177C483.033 201.177 489.656 194.556 489.656 186.388C489.656 178.221 483.033 171.6 474.864 171.6C466.694 171.6 460.071 178.221 460.071 186.388C460.071 194.556 466.694 201.177 474.864 201.177Z" fill="url(#paint6_linear)"/>
<path d="M144.422 283.27C151.241 283.27 156.769 277.743 156.769 270.926C156.769 264.108 151.241 258.581 144.422 258.581C137.603 258.581 132.075 264.108 132.075 270.926C132.075 277.743 137.603 283.27 144.422 283.27Z" fill="url(#paint7_linear)"/>
<path d="M129.793 260.252C133.551 260.252 136.598 257.206 136.598 253.448C136.598 249.691 133.551 246.645 129.793 246.645C126.034 246.645 122.987 249.691 122.987 253.448C122.987 257.206 126.034 260.252 129.793 260.252Z" fill="url(#paint8_linear)"/>
<path d="M146.297 245.83C148.435 245.83 150.168 244.097 150.168 241.959C150.168 239.822 148.435 238.089 146.297 238.089C144.159 238.089 142.425 239.822 142.425 241.959C142.425 244.097 144.159 245.83 146.297 245.83Z" fill="url(#paint9_linear)"/>
<path d="M66.3856 221.507C68.051 221.507 69.4011 220.157 69.4011 218.492C69.4011 216.827 68.051 215.478 66.3856 215.478C64.7202 215.478 63.3701 216.827 63.3701 218.492C63.3701 220.157 64.7202 221.507 66.3856 221.507Z" fill="url(#paint10_linear)"/>
<path d="M597.521 238.211C598.782 238.211 599.803 237.19 599.803 235.93C599.803 234.67 598.782 233.648 597.521 233.648C596.261 233.648 595.239 234.67 595.239 235.93C595.239 237.19 596.261 238.211 597.521 238.211Z" fill="url(#paint11_linear)"/>
<path d="M259.011 80.3402C265.83 80.3402 271.358 74.8135 271.358 67.9958C271.358 61.1782 265.83 55.6514 259.011 55.6514C252.192 55.6514 246.664 61.1782 246.664 67.9958C246.664 74.8135 252.192 80.3402 259.011 80.3402Z" fill="#F1F2F2"/>
<path d="M239.695 82.622C242.936 82.622 245.563 79.9954 245.563 76.7553C245.563 73.5153 242.936 70.8887 239.695 70.8887C236.454 70.8887 233.827 73.5153 233.827 76.7553C233.827 79.9954 236.454 82.622 239.695 82.622Z" fill="#F1F2F2"/>
<path d="M427.553 70.0331C430.794 70.0331 433.421 67.4065 433.421 64.1665C433.421 60.9264 430.794 58.2998 427.553 58.2998C424.312 58.2998 421.685 60.9264 421.685 64.1665C421.685 67.4065 424.312 70.0331 427.553 70.0331Z" fill="#F1F2F2"/>
<path d="M584.563 276.264C587.804 276.264 590.431 273.637 590.431 270.397C590.431 267.157 587.804 264.53 584.563 264.53C581.322 264.53 578.695 267.157 578.695 270.397C578.695 273.637 581.322 276.264 584.563 276.264Z" fill="#F1F2F2"/>
<path d="M119.972 274.389C123.213 274.389 125.84 271.762 125.84 268.522C125.84 265.282 123.213 262.655 119.972 262.655C116.731 262.655 114.104 265.282 114.104 268.522C114.104 271.762 116.731 274.389 119.972 274.389Z" fill="#F1F2F2"/>
<path d="M251.024 89.4668C252.622 89.4668 253.917 88.1718 253.917 86.5742C253.917 84.9767 252.622 83.6816 251.024 83.6816C249.426 83.6816 248.131 84.9767 248.131 86.5742C248.131 88.1718 249.426 89.4668 251.024 89.4668Z" fill="#F1F2F2"/>
<path d="M268.832 132.57C270.43 132.57 271.725 131.275 271.725 129.678C271.725 128.08 270.43 126.785 268.832 126.785C267.234 126.785 265.938 128.08 265.938 129.678C265.938 131.275 267.234 132.57 268.832 132.57Z" fill="#F1F2F2"/>
<path d="M439.778 68.6885C441.376 68.6885 442.671 67.3934 442.671 65.7959C442.671 64.1984 441.376 62.9033 439.778 62.9033C438.18 62.9033 436.885 64.1984 436.885 65.7959C436.885 67.3934 438.18 68.6885 439.778 68.6885Z" fill="#F1F2F2"/>
<path d="M521.889 256.096C523.487 256.096 524.783 254.801 524.783 253.203C524.783 251.606 523.487 250.311 521.889 250.311C520.291 250.311 518.996 251.606 518.996 253.203C518.996 254.801 520.291 256.096 521.889 256.096Z" fill="#F1F2F2"/>
<path d="M420.055 127.682C421.653 127.682 422.948 126.387 422.948 124.789C422.948 123.192 421.653 121.896 420.055 121.896C418.457 121.896 417.162 123.192 417.162 124.789C417.162 126.387 418.457 127.682 420.055 127.682Z" fill="#F1F2F2"/>
<path d="M126.655 243.385C128.253 243.385 129.548 242.09 129.548 240.492C129.548 238.895 128.253 237.6 126.655 237.6C125.057 237.6 123.762 238.895 123.762 240.492C123.762 242.09 125.057 243.385 126.655 243.385Z" fill="#F1F2F2"/>
<path d="M268.017 54.6329C269.615 54.6329 270.91 53.3378 270.91 51.7403C270.91 50.1427 269.615 48.8477 268.017 48.8477C266.419 48.8477 265.124 50.1427 265.124 51.7403C265.124 53.3378 266.419 54.6329 268.017 54.6329Z" fill="#F1F2F2"/>
<path d="M494.872 124.952C499.238 124.952 502.777 121.413 502.777 117.048C502.777 112.683 499.238 109.145 494.872 109.145C490.506 109.145 486.966 112.683 486.966 117.048C486.966 121.413 490.506 124.952 494.872 124.952Z" fill="url(#paint12_linear)"/>
<path d="M477.635 118.352C480.493 118.352 482.81 116.036 482.81 113.178C482.81 110.32 480.493 108.004 477.635 108.004C474.777 108.004 472.459 110.32 472.459 113.178C472.459 116.036 474.777 118.352 477.635 118.352Z" fill="url(#paint13_linear)"/>
<path d="M267.365 93.0522C270.223 93.0522 272.54 90.7357 272.54 87.8782C272.54 85.0206 270.223 82.7041 267.365 82.7041C264.506 82.7041 262.189 85.0206 262.189 87.8782C262.189 90.7357 264.506 93.0522 267.365 93.0522Z" fill="url(#paint14_linear)"/>
<path d="M486.478 107.718C488.706 107.718 490.512 105.912 490.512 103.685C490.512 101.457 488.706 99.6514 486.478 99.6514C484.25 99.6514 482.443 101.457 482.443 103.685C482.443 105.912 484.25 107.718 486.478 107.718Z" fill="url(#paint15_linear)"/>
<path d="M447.643 101.037C454.462 101.037 459.99 95.5098 459.99 88.6921C459.99 81.8745 454.462 76.3477 447.643 76.3477C440.823 76.3477 435.295 81.8745 435.295 88.6921C435.295 95.5098 440.823 101.037 447.643 101.037Z" fill="#D1D3D4"/>
<path d="M518.466 229.778C525.286 229.778 530.814 224.251 530.814 217.433C530.814 210.616 525.286 205.089 518.466 205.089C511.647 205.089 506.119 210.616 506.119 217.433C506.119 224.251 511.647 229.778 518.466 229.778Z" fill="white"/>
<path d="M563.454 229.33C570.273 229.33 575.801 223.803 575.801 216.985C575.801 210.167 570.273 204.641 563.454 204.641C556.635 204.641 551.107 210.167 551.107 216.985C551.107 223.803 556.635 229.33 563.454 229.33Z" fill="white"/>
<path d="M414.798 134.893C414.798 137.134 412.965 138.967 410.723 138.967H279.549C277.308 138.967 275.474 137.134 275.474 134.893V49.6229C275.474 47.3822 277.308 45.5488 279.549 45.5488H410.683C412.924 45.5488 414.758 47.3822 414.758 49.6229V134.893H414.798Z" fill="#E1F4FD"/>
<path d="M414.798 54.7967C414.798 57.0374 412.965 58.8708 410.723 58.8708H279.549C277.308 58.8708 275.474 57.0374 275.474 54.7967V49.5819C275.474 47.3411 277.308 45.5078 279.549 45.5078H410.683C412.924 45.5078 414.758 47.3411 414.758 49.5819V54.7967H414.798Z" fill="#6D6E71"/>
<path d="M576.861 272.841C576.861 275.082 575.027 276.915 572.786 276.915H530.773C528.532 276.915 526.698 275.082 526.698 272.841V259.03C526.698 256.789 528.532 254.956 530.773 254.956H572.786C575.027 254.956 576.861 256.789 576.861 259.03V272.841Z" fill="url(#paint16_linear)"/>
<path d="M119.402 257.522C119.402 259.763 117.568 261.596 115.327 261.596H74.3729C72.1316 261.596 70.2979 259.763 70.2979 257.522V243.711C70.2979 241.47 72.1316 239.637 74.3729 239.637H115.327C117.568 239.637 119.402 241.47 119.402 243.711V257.522Z" fill="#F1F2F2"/>
<path d="M117.242 245.992C117.242 247.988 115.408 249.618 113.167 249.618H76.1658C73.9246 249.618 72.0908 247.988 72.0908 245.992C72.0908 243.996 73.9246 242.366 76.1658 242.366H113.167C115.408 242.366 117.242 243.996 117.242 245.992Z" fill="#D1D3D4"/>
<path d="M409.338 69.7069C409.338 70.155 408.971 70.5217 408.523 70.5217H320.014C319.565 70.5217 319.199 70.155 319.199 69.7069V69.6254C319.199 69.1772 319.565 68.8105 320.014 68.8105H408.523C408.971 68.8105 409.338 69.1772 409.338 69.6254V69.7069Z" fill="#C7C8CA"/>
<path d="M409.582 75.6961C409.582 76.1442 409.215 76.5109 408.767 76.5109H320.217C319.769 76.5109 319.402 76.1442 319.402 75.6961V75.6146C319.402 75.1665 319.769 74.7998 320.217 74.7998H408.726C409.175 74.7998 409.541 75.1665 409.541 75.6146V75.6961H409.582Z" fill="#C7C8CA"/>
<path d="M409.582 82.2967C409.582 82.7448 409.215 83.1115 408.767 83.1115H320.217C319.769 83.1115 319.402 82.7448 319.402 82.2967V82.2152C319.402 81.7671 319.769 81.4004 320.217 81.4004H408.726C409.175 81.4004 409.541 81.7671 409.541 82.2152V82.2967H409.582Z" fill="#C7C8CA"/>
<path d="M461.539 104.988C461.539 105.355 461.172 105.681 460.724 105.681H434.644C434.195 105.681 433.829 105.355 433.829 104.988C433.829 104.622 434.195 104.296 434.644 104.296H460.724C461.172 104.296 461.539 104.622 461.539 104.988Z" fill="white"/>
<path d="M461.539 108.574C461.539 108.941 461.172 109.267 460.724 109.267H434.644C434.195 109.267 433.829 108.941 433.829 108.574C433.829 108.208 434.195 107.882 434.644 107.882H460.724C461.172 107.882 461.539 108.208 461.539 108.574Z" fill="white"/>
<path d="M461.539 112.608C461.539 112.974 461.172 113.3 460.724 113.3H434.644C434.195 113.3 433.829 112.974 433.829 112.608C433.829 112.241 434.195 111.915 434.644 111.915H460.724C461.172 111.915 461.539 112.241 461.539 112.608Z" fill="white"/>
<path d="M461.539 116.723C461.539 117.09 461.172 117.415 460.724 117.415H434.644C434.195 117.415 433.829 117.09 433.829 116.723C433.829 116.356 434.195 116.03 434.644 116.03H460.724C461.172 116.03 461.539 116.356 461.539 116.723Z" fill="white"/>
<path d="M461.539 121.04C461.539 121.407 461.172 121.733 460.724 121.733H434.644C434.195 121.733 433.829 121.407 433.829 121.04C433.829 120.674 434.195 120.348 434.644 120.348H460.724C461.172 120.348 461.539 120.633 461.539 121.04Z" fill="white"/>
<path d="M578.002 233.892C578.002 234.3 577.635 234.666 577.187 234.666H551.107C550.659 234.666 550.292 234.34 550.292 233.892C550.292 233.485 550.659 233.118 551.107 233.118H577.187C577.635 233.118 578.002 233.485 578.002 233.892Z" fill="white"/>
<path d="M532.606 233.933C532.606 234.382 532.24 234.707 531.791 234.707H505.711C505.263 234.707 504.896 234.341 504.896 233.933C504.896 233.485 505.263 233.159 505.711 233.159H531.791C532.24 233.119 532.606 233.485 532.606 233.933Z" fill="white"/>
<path d="M266.305 101.974C266.305 102.341 265.938 102.626 265.49 102.626H223.232C222.784 102.626 222.417 102.341 222.417 101.974C222.417 101.607 222.784 101.322 223.232 101.322H265.531C265.938 101.322 266.305 101.607 266.305 101.974Z" fill="white"/>
<path d="M266.59 105.682C266.59 106.048 266.224 106.334 265.775 106.334H223.518C223.069 106.334 222.703 106.048 222.703 105.682C222.703 105.315 223.069 105.03 223.518 105.03H265.816C266.224 104.989 266.59 105.315 266.59 105.682Z" fill="white"/>
<path d="M266.998 111.956C266.998 112.323 266.632 112.608 266.183 112.608H223.885C223.437 112.608 223.07 112.323 223.07 111.956C223.07 111.589 223.437 111.304 223.885 111.304H266.183C266.632 111.263 266.998 111.589 266.998 111.956Z" fill="white"/>
<path d="M266.998 115.419C266.998 115.786 266.632 116.071 266.183 116.071H223.885C223.437 116.071 223.07 115.786 223.07 115.419C223.07 115.052 223.437 114.767 223.885 114.767H266.183C266.632 114.726 266.998 115.052 266.998 115.419Z" fill="white"/>
<path d="M573.275 259.07C573.275 259.437 572.908 259.722 572.46 259.722H530.243C529.794 259.722 529.428 259.437 529.428 259.07C529.428 258.704 529.794 258.418 530.243 258.418H572.46C572.908 258.378 573.275 258.704 573.275 259.07Z" fill="white"/>
<path d="M573.968 262.737C573.968 263.103 573.601 263.389 573.153 263.389H530.936C530.487 263.389 530.121 263.103 530.121 262.737C530.121 262.37 530.487 262.085 530.936 262.085H573.153C573.601 262.085 573.968 262.37 573.968 262.737Z" fill="white"/>
<path d="M573.968 269.012C573.968 269.378 573.601 269.664 573.153 269.664H530.936C530.487 269.664 530.121 269.378 530.121 269.012C530.121 268.645 530.487 268.36 530.936 268.36H573.153C573.601 268.319 573.968 268.645 573.968 269.012Z" fill="white"/>
<path d="M573.968 272.433C573.968 272.8 573.601 273.085 573.153 273.085H530.936C530.487 273.085 530.121 272.8 530.121 272.433C530.121 272.066 530.487 271.781 530.936 271.781H573.153C573.601 271.781 573.968 272.066 573.968 272.433Z" fill="white"/>
<path d="M202.287 165.041C202.287 165.448 201.92 165.815 201.472 165.815H121.561C121.113 165.815 120.746 165.448 120.746 165.041C120.746 164.633 121.113 164.267 121.561 164.267H201.472C201.92 164.267 202.287 164.633 202.287 165.041Z" fill="white"/>
<path d="M202.287 171.315C202.287 171.722 201.92 172.089 201.472 172.089H121.561C121.113 172.089 120.746 171.722 120.746 171.315C120.746 170.908 121.113 170.541 121.561 170.541H201.472C201.92 170.541 202.287 170.867 202.287 171.315Z" fill="white"/>
<path d="M202.45 177.548C202.45 177.956 202.083 178.323 201.635 178.323H121.724C121.276 178.323 120.909 177.956 120.909 177.548C120.909 177.141 121.276 176.774 121.724 176.774H201.635C202.083 176.774 202.45 177.1 202.45 177.548Z" fill="white"/>
<path d="M297.765 89.9558C304.809 89.9558 310.519 84.2467 310.519 77.204C310.519 70.1613 304.809 64.4521 297.765 64.4521C290.72 64.4521 285.01 70.1613 285.01 77.204C285.01 84.2467 290.72 89.9558 297.765 89.9558Z" fill="url(#paint17_linear)"/>
<path d="M220.747 98.755C220.747 100.996 218.913 102.829 216.672 102.829H173.069C170.828 102.829 168.994 100.996 168.994 98.755V93.8661C168.994 91.6253 170.828 89.792 173.069 89.792H216.631C218.872 89.792 220.706 91.6253 220.706 93.8661V98.755H220.747Z" fill="url(#paint18_linear)"/>
<path d="M224.251 85.148C224.251 86.2887 223.354 87.185 222.213 87.185H198.13C196.989 87.185 196.093 86.2887 196.093 85.148V84.6591C196.093 83.5184 196.989 82.6221 198.13 82.6221H222.213C223.354 82.6221 224.251 83.5184 224.251 84.6591V85.148Z" fill="url(#paint19_linear)"/>
<path d="M194.178 86.5737C194.178 87.1034 193.281 87.5108 192.14 87.5108H175.718C174.577 87.5108 173.681 87.1034 173.681 86.5737C173.681 86.0441 174.577 85.6367 175.718 85.6367H192.14C193.281 85.6367 194.178 86.0849 194.178 86.5737Z" fill="url(#paint20_linear)"/>
<path d="M179.752 105.396C179.752 105.926 179.019 106.333 178.122 106.333H160.885C159.988 106.333 159.255 105.926 159.255 105.396C159.255 104.866 159.988 104.459 160.885 104.459H178.122C179.019 104.459 179.752 104.866 179.752 105.396Z" fill="url(#paint21_linear)"/>
<path d="M625.394 238.741C625.394 239.27 624.864 239.678 624.172 239.678H606.119C605.467 239.678 604.897 239.27 604.897 238.741C604.897 238.211 605.467 237.804 606.119 237.804H624.172C624.824 237.804 625.394 238.252 625.394 238.741Z" fill="url(#paint22_linear)"/>
<path d="M496.746 90.4038C496.746 90.9335 496.216 91.3409 495.524 91.3409H477.472C476.779 91.3409 476.249 90.9335 476.249 90.4038C476.249 89.8742 476.779 89.4668 477.472 89.4668H495.524C496.176 89.4668 496.746 89.8742 496.746 90.4038Z" fill="url(#paint23_linear)"/>
<path d="M53.4269 222.485C53.4269 223.015 52.8972 223.422 52.2044 223.422H34.1522C33.4594 223.422 32.9297 223.015 32.9297 222.485C32.9297 221.955 33.4594 221.548 34.1522 221.548H52.2044C52.8564 221.548 53.4269 221.955 53.4269 222.485Z" fill="url(#paint24_linear)"/>
<path d="M479.672 95.7004C479.672 96.23 479.102 96.6374 478.45 96.6374H472.337C471.644 96.6374 471.115 96.23 471.115 95.7004C471.115 95.1707 471.644 94.7633 472.337 94.7633H478.45C479.143 94.7226 479.672 95.1707 479.672 95.7004Z" fill="url(#paint25_linear)"/>
<path d="M461.009 66.4889C461.009 66.9371 460.642 67.3037 460.194 67.3037H453.266C452.818 67.3037 452.451 66.9371 452.451 66.4889V66.2445C452.451 65.7964 452.818 65.4297 453.266 65.4297H460.194C460.642 65.4297 461.009 65.7964 461.009 66.2445V66.4889Z" fill="url(#paint26_linear)"/>
<path d="M578.002 251.411C578.002 251.941 577.431 252.348 576.779 252.348H570.667C569.974 252.348 569.444 251.941 569.444 251.411C569.444 250.882 569.974 250.474 570.667 250.474H576.779C577.431 250.434 578.002 250.882 578.002 251.411Z" fill="url(#paint27_linear)"/>
<path d="M89.5316 237.315C89.5316 237.763 89.1649 238.13 88.7166 238.13H81.7891C81.3409 238.13 80.9741 237.763 80.9741 237.315V237.071C80.9741 236.623 81.3409 236.256 81.7891 236.256H88.7166C89.1649 236.256 89.5316 236.623 89.5316 237.071V237.315Z" fill="url(#paint28_linear)"/>
<path d="M230.242 89.589C230.242 90.1187 229.508 90.5261 228.612 90.5261H223.314C222.418 90.5261 221.684 90.1187 221.684 89.589C221.684 89.0594 222.418 88.652 223.314 88.652H228.612C229.508 88.6112 230.242 89.0594 230.242 89.589Z" fill="url(#paint29_linear)"/>
<path d="M641.979 266.485C641.979 267.015 641.45 267.422 640.757 267.422H634.644C633.992 267.422 633.422 267.015 633.422 266.485C633.422 265.955 633.992 265.548 634.644 265.548H640.757C641.409 265.548 641.979 265.955 641.979 266.485Z" fill="url(#paint30_linear)"/>
<path d="M335.661 34.3444C335.661 34.7926 335.295 35.1592 334.846 35.1592H327.919C327.471 35.1592 327.104 34.7926 327.104 34.3444V34.1C327.104 33.6518 327.471 33.2852 327.919 33.2852H334.846C335.295 33.2852 335.661 33.6518 335.661 34.1V34.3444Z" fill="url(#paint31_linear)"/>
<path d="M369.892 41.1081C369.892 41.5562 369.525 41.9229 369.077 41.9229H350.21C349.761 41.9229 349.395 41.5562 349.395 41.1081V40.8636C349.395 40.4155 349.761 40.0488 350.21 40.0488H369.077C369.525 40.0488 369.892 40.4155 369.892 40.8636V41.1081Z" fill="url(#paint32_linear)"/>
<path d="M206.036 109.511C206.036 110.041 205.302 110.448 204.406 110.448H187.169C186.272 110.448 185.539 110.041 185.539 109.511C185.539 108.982 186.272 108.574 187.169 108.574H204.406C205.302 108.574 206.036 108.982 206.036 109.511Z" fill="url(#paint33_linear)"/>
<path d="M646.543 262.452C646.543 262.981 646.013 263.389 645.321 263.389H627.268C626.576 263.389 626.046 262.981 626.046 262.452C626.046 261.922 626.576 261.515 627.268 261.515H645.321C646.013 261.515 646.543 261.963 646.543 262.452Z" fill="url(#paint34_linear)"/>
<path d="M58.358 246.115C58.358 247.256 57.4615 248.152 56.3205 248.152H32.2372C31.0962 248.152 30.1997 247.256 30.1997 246.115V245.667C30.1997 244.526 31.0962 243.63 32.2372 243.63H56.3205C57.4615 243.63 58.358 244.526 58.358 245.667V246.115Z" fill="url(#paint35_linear)"/>
<path d="M505.956 85.189C505.956 86.3298 505.06 87.2261 503.919 87.2261H479.835C478.694 87.2261 477.798 86.3298 477.798 85.189V84.7001C477.798 83.5594 478.694 82.6631 479.835 82.6631H503.919C505.06 82.6631 505.956 83.5594 505.956 84.7001V85.189Z" fill="url(#paint36_linear)"/>
<path d="M629.836 267.3C629.836 268.441 628.94 269.337 627.799 269.337H603.715C602.574 269.337 601.678 268.441 601.678 267.3V266.811C601.678 265.671 602.574 264.774 603.715 264.774H627.799C628.94 264.774 629.836 265.671 629.836 266.811V267.3Z" fill="url(#paint37_linear)"/>
<path d="M496.339 76.7548C496.339 78.9955 494.505 80.8289 492.264 80.8289H462.842C460.601 80.8289 458.767 78.9955 458.767 76.7548V74.5956C458.767 72.3548 460.601 70.5215 462.842 70.5215H492.264C494.505 70.5215 496.339 72.3548 496.339 74.5956V76.7548Z" fill="url(#paint38_linear)"/>
<path d="M623.479 257.359C623.479 259.6 621.645 261.433 619.404 261.433H585.541C583.3 261.433 581.466 259.6 581.466 257.359V247.256C581.466 245.015 583.3 243.182 585.541 243.182H619.404C621.645 243.182 623.479 245.015 623.479 247.256V257.359Z" fill="url(#paint39_linear)"/>
<path d="M77.9991 237.355C77.9991 239.596 76.1654 241.429 73.9241 241.429H42.9134C40.6721 241.429 38.8384 239.596 38.8384 237.355V230.225C38.8384 227.985 40.6721 226.151 42.9134 226.151H73.9649C76.2061 226.151 78.0399 227.985 78.0399 230.225V237.355H77.9991Z" fill="url(#paint40_linear)"/>
<path d="M312.067 260.374C312.067 260.374 313.494 263.634 315.287 267.667C318.261 274.43 322.296 283.515 322.54 284.249C322.988 285.471 335.58 289.789 335.58 289.789C335.58 289.789 343.812 283.434 344.423 282.823C345.075 282.171 352.817 263.023 352.817 263.023C353.225 260.578 353.225 258.052 352.858 255.567C352.451 249.252 352.94 234.056 352.94 234.056L355.996 230.837L348.661 214.989C348.661 214.989 339.166 216.252 330.812 218.697C324.089 220.652 318.098 223.382 318.18 226.763C318.424 234.382 312.067 260.374 312.067 260.374Z" fill="#C8C8C8"/>
<path d="M312.067 261.474C312.067 261.474 313.494 263.715 315.327 266.526L320.177 264.774C321.195 259.844 322.622 254.955 324.455 250.27C326.411 246.196 335.132 246.644 335.132 246.644L338.799 237.152L330.772 232.711C324.048 234.055 318.058 235.929 318.18 238.292C318.384 243.507 312.067 261.474 312.067 261.474Z" fill="#C8C8C8"/>
<path d="M332.483 327.27C325.189 344.666 365.246 346.948 365.246 346.948C363.29 330.814 361.741 322.748 359.419 311.544C355.588 304.618 348.416 289.463 348.416 289.463L330.812 281.029C330.812 281.029 339.614 310.24 332.483 327.27Z" fill="#F2F2F2"/>
<path d="M295.726 292.763C295.726 292.763 285.987 322.911 280.975 329.103C278.897 331.548 276.574 333.544 274.129 335.011C272.743 335.907 271.236 336.029 269.891 335.418C268.546 334.807 267.405 333.422 266.753 331.629C266.753 331.589 266.712 331.589 266.712 331.548C266.386 330.57 266.183 329.511 266.101 328.37C265.734 321.118 265.938 311.381 268.709 304.048C268.913 303.518 269.117 302.948 269.32 302.418C270.869 298.344 272.173 294.596 273.232 291.459C275.474 284.9 276.696 280.703 276.696 280.703L289.655 276.548L290.307 278.3L295.726 292.763Z" fill="#E6E7E8"/>
<path d="M307.91 259.967C300.738 260.333 294.3 262.411 289.736 265.874C281.138 272.189 265.856 287.915 265.856 287.915C265.856 287.915 277.348 293.089 286.435 292.845L295.522 292.6L307.91 259.967Z" fill="url(#paint41_linear)"/>
<path d="M341.489 167.2C341.489 167.2 322.988 163.981 307.951 175.267C292.915 186.552 308.644 235.318 308.644 235.318C308.644 235.318 321.562 254.67 329.59 255.485C337.617 256.3 337.617 265.141 337.617 265.141C337.617 265.141 340.429 257.074 347.071 255.485C353.714 253.855 370.829 226.07 371.195 213.563C371.521 201.056 366.631 170.459 341.489 167.2Z" fill="#3D3D3E"/>
<path d="M329.141 167.852C329.141 167.852 317.894 170.174 314.39 158.033C314.39 158.033 310.682 167.689 319.606 178.241" fill="#3D3D3E"/>
<path d="M370.543 293.741C370.543 293.741 377.919 324.785 382.402 331.426C384.317 334.033 386.436 336.233 388.759 337.904C390.063 338.922 391.571 339.167 392.956 338.637C394.342 338.107 395.564 336.844 396.379 335.052C396.379 335.052 396.42 335.011 396.42 334.97C396.827 334.033 397.113 332.974 397.276 331.833C398.213 324.581 398.743 314.763 396.542 307.185C396.379 306.615 396.216 306.044 396.053 305.515C394.831 301.319 393.852 297.448 392.997 294.189C391.285 287.426 390.389 283.107 390.389 283.107L377.756 277.893L376.982 279.604L370.543 293.741Z" fill="#E6E7E8"/>
<path d="M360.071 260.496C367.202 261.433 373.437 264 377.756 267.829C385.825 274.796 399.843 291.663 399.843 291.663C399.843 291.663 387.985 295.941 378.938 294.963L369.892 293.985L360.071 260.496Z" fill="url(#paint42_linear)"/>
<path d="M266.264 315.985C266.264 315.985 262.637 343.404 276.778 375.874C276.778 375.874 274.007 389.482 269.076 397.589C269.076 397.589 271.521 398.16 273.151 396.897C274.781 395.634 283.827 379.378 284.316 376.322C284.805 373.267 287.128 317.289 277.348 313.541C267.568 309.793 266.264 315.985 266.264 315.985Z" fill="#E6E7E8"/>
<path d="M260.722 395.633C260.722 395.633 282.483 408.874 320.828 409.037C353.795 409.2 393.689 396.489 393.689 396.489C393.689 396.489 394.056 393.148 389.37 357.908C388.922 354.445 388.433 351.145 387.944 347.885C385.621 332.445 383.054 319.57 380.323 308.856C366.835 255.241 350.372 255.241 350.372 255.241L347.153 254.711C334.357 252.471 321.032 254.222 309.744 259.641C307.177 260.782 304.895 262.289 303.061 264.163C292.589 276.304 260.722 395.633 260.722 395.633Z" fill="#F2F2F2"/>
<path d="M305.181 181.093C305.181 181.093 287.169 218.004 300.087 230.837C313.005 243.671 302.776 259.722 299.842 259.722C296.908 259.722 293.282 279.604 304.692 282.822C316.142 286.041 331.22 314.885 317.609 318.104C303.958 321.322 313.942 351.145 320.788 351.145C320.788 351.145 331.505 349.556 330.527 357.541C330.527 357.541 337.577 351.756 335.132 347.6C332.687 343.445 334.643 337.008 346.583 337.008C358.522 337.008 369.688 322.259 356.322 309.426C342.956 296.593 349.761 287.304 357.3 286C364.839 284.737 376.778 276.385 366.55 257.767C356.322 239.148 369.973 238.211 367.773 225.704C365.572 213.196 305.181 181.093 305.181 181.093Z" fill="#3D3D3E"/>
<path d="M318.302 132.489C318.302 134.729 316.469 136.563 314.227 136.563H282.768C280.527 136.563 278.693 134.729 278.693 132.489V98.6737C278.693 96.4329 280.527 94.5996 282.768 94.5996H314.227C316.469 94.5996 318.302 96.4329 318.302 98.6737V132.489Z" fill="white"/>
<path d="M364.635 132.489C364.635 134.729 362.801 136.563 360.56 136.563H329.101C326.86 136.563 325.026 134.729 325.026 132.489V98.6737C325.026 96.4329 326.86 94.5996 329.101 94.5996H360.56C362.801 94.5996 364.635 96.4329 364.635 98.6737V132.489Z" fill="url(#paint43_linear)"/>
<path d="M410.397 132.489C410.397 134.729 408.563 136.563 406.322 136.563H374.863C372.622 136.563 370.788 134.729 370.788 132.489V98.6737C370.788 96.4329 372.622 94.5996 374.863 94.5996H406.322C408.563 94.5996 410.397 96.4329 410.397 98.6737V132.489Z" fill="white"/>
<path d="M414.758 53.0039H275.393V58.8706H414.758V53.0039Z" fill="#6D6E71"/>
<path d="M216.264 146.748H74.332V152.615H216.264V146.748Z" fill="#6D6E71"/>
<path d="M591.939 160.804H452.777V166.67H591.939V160.804Z" fill="#6D6E71"/>
<path d="M367.039 52.3111C367.039 53.8593 365.206 55.1222 362.964 55.1222H283.135C280.894 55.1222 279.06 53.8593 279.06 52.3111C279.06 50.763 280.894 49.5 283.135 49.5H362.964C365.206 49.5 367.039 50.763 367.039 52.3111Z" fill="#F1F2F2"/>
<path d="M407.219 55.0001C408.636 55.0001 409.786 53.8692 409.786 52.4742C409.786 51.0791 408.636 49.9482 407.219 49.9482C405.801 49.9482 404.651 51.0791 404.651 52.4742C404.651 53.8692 405.801 55.0001 407.219 55.0001Z" fill="#F1F2F2"/>
<path d="M399.272 55.0001C400.69 55.0001 401.84 53.8692 401.84 52.4742C401.84 51.0791 400.69 49.9482 399.272 49.9482C397.854 49.9482 396.705 51.0791 396.705 52.4742C396.705 53.8692 397.854 55.0001 399.272 55.0001Z" fill="#F1F2F2"/>
<path d="M390.715 55.0812C392.133 55.0812 393.282 53.9503 393.282 52.5552C393.282 51.1602 392.133 50.0293 390.715 50.0293C389.297 50.0293 388.148 51.1602 388.148 52.5552C388.148 53.9503 389.297 55.0812 390.715 55.0812Z" fill="#F1F2F2"/>
<path d="M167.853 145.893C167.853 147.481 166.02 148.785 163.778 148.785H82.4822C80.241 148.785 78.4072 147.481 78.4072 145.893C78.4072 144.304 80.241 143 82.4822 143H163.738C166.02 143 167.853 144.304 167.853 145.893Z" fill="#F1F2F2"/>
<path d="M208.685 148.704C210.125 148.704 211.293 147.537 211.293 146.097C211.293 144.657 210.125 143.489 208.685 143.489C207.245 143.489 206.077 144.657 206.077 146.097C206.077 147.537 207.245 148.704 208.685 148.704Z" fill="#F1F2F2"/>
<path d="M200.616 148.704C202.057 148.704 203.224 147.537 203.224 146.097C203.224 144.657 202.057 143.489 200.616 143.489C199.176 143.489 198.008 144.657 198.008 146.097C198.008 147.537 199.176 148.704 200.616 148.704Z" fill="#F1F2F2"/>
<path d="M191.937 148.744C193.377 148.744 194.545 147.577 194.545 146.137C194.545 144.697 193.377 143.529 191.937 143.529C190.496 143.529 189.329 144.697 189.329 146.137C189.329 147.577 190.496 148.744 191.937 148.744Z" fill="#F1F2F2"/>
<path d="M543.242 160.478C543.242 162.026 541.408 163.289 539.167 163.289H460.194C457.952 163.289 456.119 162.026 456.119 160.478C456.119 158.93 457.952 157.667 460.194 157.667H539.167C541.408 157.667 543.242 158.93 543.242 160.478Z" fill="#F1F2F2"/>
<path d="M583.014 163.249C584.432 163.249 585.581 162.099 585.581 160.682C585.581 159.264 584.432 158.115 583.014 158.115C581.596 158.115 580.447 159.264 580.447 160.682C580.447 162.099 581.596 163.249 583.014 163.249Z" fill="#F1F2F2"/>
<path d="M575.15 163.249C576.568 163.249 577.717 162.099 577.717 160.682C577.717 159.264 576.568 158.115 575.15 158.115C573.732 158.115 572.583 159.264 572.583 160.682C572.583 162.099 573.732 163.249 575.15 163.249Z" fill="#F1F2F2"/>
<path d="M566.714 163.29C568.132 163.29 569.281 162.14 569.281 160.723C569.281 159.305 568.132 158.156 566.714 158.156C565.296 158.156 564.147 159.305 564.147 160.723C564.147 162.14 565.296 163.29 566.714 163.29Z" fill="#F1F2F2"/>
<path d="M344.138 96.9219C344.138 96.9219 353.714 106.903 360.927 109.348C360.927 109.348 351.676 130.329 344.26 134.689C336.803 130.452 327.43 109.47 327.43 109.47C334.602 106.985 344.138 96.9219 344.138 96.9219Z" fill="#A7A9AC"/>
<path d="M344.016 97.8184C344.016 97.8184 353.144 107.311 359.99 109.633C359.99 109.633 351.188 129.596 344.138 133.752C337.047 129.718 328.123 109.755 328.123 109.755C334.928 107.352 343.975 97.8184 344.016 97.8184C343.975 97.8184 343.975 97.8184 344.016 97.8184C343.975 97.8184 344.016 97.8184 344.016 97.8184Z" fill="url(#paint44_linear)"/>
<path d="M344.097 122.548C348.846 122.548 352.696 118.699 352.696 113.952C352.696 109.204 348.846 105.355 344.097 105.355C339.349 105.355 335.499 109.204 335.499 113.952C335.499 118.699 339.349 122.548 344.097 122.548Z" fill="white"/>
<path d="M343.445 119.777C343.323 119.777 343.201 119.736 343.119 119.696C342.997 119.655 342.915 119.574 342.834 119.451L339.452 115.133C339.289 114.929 339.207 114.644 339.207 114.359C339.207 114.074 339.289 113.788 339.452 113.585C339.615 113.381 339.818 113.259 340.063 113.259C340.307 113.259 340.511 113.381 340.674 113.585L343.445 117.129L348.62 110.529C348.783 110.325 348.987 110.203 349.232 110.203C349.476 110.203 349.68 110.325 349.843 110.529C350.006 110.733 350.087 111.018 350.087 111.303C350.087 111.588 350.006 111.873 349.843 112.077L344.056 119.451C343.975 119.574 343.893 119.655 343.771 119.696C343.649 119.777 343.567 119.777 343.445 119.777Z" fill="url(#paint45_linear)"/>
<path d="M218.954 204.192C224.805 204.192 229.549 199.45 229.549 193.599C229.549 187.749 224.805 183.007 218.954 183.007C213.102 183.007 208.359 187.749 208.359 193.599C208.359 199.45 213.102 204.192 218.954 204.192Z" fill="url(#paint46_linear)"/>
<path d="M217.324 200.77C217.201 200.77 217.038 200.729 216.916 200.647C216.794 200.566 216.672 200.484 216.59 200.362L212.393 195.025C212.189 194.781 212.067 194.414 212.067 194.047C212.067 193.681 212.189 193.355 212.393 193.07C212.597 192.825 212.882 192.662 213.126 192.662C213.412 192.662 213.697 192.784 213.86 193.07L217.283 197.429L223.64 189.321C223.844 189.077 224.129 188.914 224.414 188.914C224.699 188.914 224.985 189.077 225.188 189.321C225.392 189.566 225.514 189.933 225.514 190.299C225.514 190.666 225.392 190.992 225.188 191.277L218.057 200.362C217.976 200.484 217.853 200.607 217.69 200.647C217.609 200.729 217.487 200.77 217.324 200.77Z" fill="white"/>
<path d="M594.913 207.289C599.189 207.289 602.655 203.823 602.655 199.548C602.655 195.273 599.189 191.808 594.913 191.808C590.637 191.808 587.17 195.273 587.17 199.548C587.17 203.823 590.637 207.289 594.913 207.289Z" fill="url(#paint47_linear)"/>
<path d="M593.731 204.804C593.609 204.804 593.528 204.763 593.446 204.723C593.365 204.682 593.283 204.6 593.202 204.519L590.145 200.608C589.982 200.404 589.901 200.16 589.942 199.915C589.942 199.671 590.023 199.386 590.186 199.223C590.349 199.019 590.512 198.937 590.716 198.937C590.92 198.937 591.123 199.019 591.246 199.223L593.731 202.4L598.377 196.452C598.54 196.248 598.703 196.167 598.947 196.167C599.151 196.167 599.355 196.289 599.518 196.452C599.681 196.615 599.762 196.9 599.762 197.145C599.762 197.389 599.681 197.674 599.518 197.837L594.302 204.478C594.22 204.56 594.139 204.641 594.057 204.682C593.935 204.763 593.853 204.804 593.731 204.804Z" fill="white"/>
<path d="M73.0687 168.096C77.3447 168.096 80.8112 164.63 80.8112 160.355C80.8112 156.08 77.3447 152.614 73.0687 152.614C68.7926 152.614 65.3262 156.08 65.3262 160.355C65.3262 164.63 68.7926 168.096 73.0687 168.096Z" fill="url(#paint48_linear)"/>
<path d="M71.887 165.57C71.7648 165.57 71.6833 165.529 71.6018 165.488C71.5203 165.447 71.4388 165.366 71.3573 165.284L68.301 161.373C68.138 161.17 68.0565 160.925 68.0973 160.681C68.0973 160.436 68.1788 160.151 68.3418 159.988C68.5048 159.784 68.6678 159.703 68.8715 159.703C69.0753 159.703 69.279 159.784 69.4013 159.988L71.887 163.166L76.5325 157.218C76.6955 157.014 76.8585 156.933 77.103 156.933C77.3068 156.933 77.5105 157.055 77.6735 157.218C77.8365 157.381 77.918 157.666 77.918 157.91C77.918 158.155 77.8365 158.44 77.6735 158.603L72.4575 165.284C72.376 165.366 72.2945 165.447 72.213 165.488C72.0908 165.529 72.0093 165.57 71.887 165.57Z" fill="white"/>
<g opacity="0.1">
<path opacity="0.1" d="M453.673 37.6446V51.6187C453.673 52.8816 453.184 54.1039 452.288 55.0002C451.391 55.8965 450.169 56.3853 448.905 56.3853H434.928C434.317 56.3853 433.665 56.2631 433.094 56.0187C432.524 55.7742 431.994 55.4076 431.546 55.0002C431.098 54.552 430.731 54.0224 430.527 53.452C430.283 52.8816 430.16 52.2705 430.16 51.6187V51.3742L423.966 50.9668C423.885 50.9668 423.763 50.9261 423.722 50.8853C423.64 50.8446 423.6 50.7631 423.559 50.6409C423.518 50.5594 423.518 50.4372 423.559 50.3557C423.6 50.2742 423.64 50.1927 423.722 50.1113L430.16 45.1409V37.6446C430.16 37.0335 430.283 36.3816 430.527 35.8113C430.772 35.2409 431.138 34.7113 431.546 34.2631C431.994 33.815 432.524 33.4483 433.094 33.2446C433.665 33.0002 434.276 32.8779 434.928 32.8779H448.905C449.517 32.8779 450.169 33.0002 450.739 33.2446C451.31 33.489 451.839 33.8557 452.288 34.2631C452.736 34.7113 453.103 35.2409 453.306 35.8113C453.551 36.3816 453.673 36.9927 453.673 37.6446Z" fill="#010101"/>
<path opacity="0.1" d="M441.652 41.9223C441.856 41.6778 442.1 41.4334 442.345 41.2297C442.834 40.8223 443.404 40.5371 443.975 40.4556C444.586 40.3334 445.197 40.3741 445.809 40.6186C446.379 40.8223 446.909 41.1889 447.316 41.6371C447.724 42.126 448.009 42.6963 448.091 43.2667C448.254 44.2038 448.05 45.1408 447.52 45.9149C446.99 46.7704 446.338 47.5445 445.564 48.1963C444.382 49.2556 443.119 50.1519 441.774 50.926C441.734 50.9667 441.734 50.9667 441.693 50.9667C441.652 50.9667 441.611 50.9667 441.611 50.926C439.941 49.9889 438.392 48.8075 437.047 47.4223C436.395 46.7704 435.906 46.0371 435.54 45.2223C435.336 44.7334 435.254 44.2445 435.254 43.7149C435.295 43.1852 435.417 42.6963 435.662 42.2075C435.906 41.7593 436.232 41.3519 436.681 41.026C437.088 40.7 437.577 40.4963 438.107 40.4149C438.759 40.2519 439.452 40.3334 440.104 40.5778C440.756 40.8223 441.285 41.2704 441.652 41.8V41.9223Z" fill="#010101"/>
</g>
<path d="M449.313 33.9776V47.9517C449.313 49.2146 448.824 50.4369 447.928 51.3332C447.031 52.2295 445.809 52.7183 444.546 52.7183H430.568C429.957 52.7183 429.305 52.5961 428.735 52.3517C428.164 52.1072 427.634 51.7406 427.186 51.3332C426.738 50.885 426.371 50.3554 426.167 49.785C425.923 49.2146 425.801 48.6035 425.801 47.9517V47.7072L419.607 47.2998C419.525 47.2998 419.403 47.2591 419.362 47.2183C419.281 47.1776 419.24 47.0961 419.199 46.9739C419.158 46.8924 419.158 46.7702 419.199 46.6887C419.24 46.6072 419.281 46.5258 419.362 46.4443L425.801 41.4739V33.9776C425.801 33.3665 425.923 32.7146 426.167 32.1443C426.412 31.5739 426.779 31.0443 427.186 30.5961C427.634 30.148 428.164 29.7813 428.735 29.5776C429.305 29.3332 429.916 29.2109 430.568 29.2109H444.546C445.157 29.2109 445.809 29.3332 446.379 29.5776C446.95 29.822 447.48 30.1887 447.928 30.5961C448.376 31.0443 448.743 31.5739 448.947 32.1443C449.191 32.7554 449.313 33.3665 449.313 33.9776Z" fill="url(#paint49_linear)"/>
<path d="M437.292 38.2963C437.496 38.0518 437.741 37.8074 437.985 37.6037C438.474 37.1963 439.045 36.9111 439.615 36.8296C440.226 36.7074 440.838 36.7481 441.449 36.9926C442.019 37.1963 442.549 37.563 442.957 38.0111C443.364 38.5 443.649 39.0704 443.731 39.6407C443.894 40.5778 443.69 41.5148 443.16 42.2889C442.631 43.1444 441.979 43.9185 441.204 44.5704C440.023 45.6296 438.759 46.5259 437.415 47.3C437.374 47.3407 437.374 47.3407 437.333 47.3407C437.292 47.3407 437.252 47.3407 437.252 47.3C435.581 46.363 434.032 45.1815 432.688 43.7963C432.036 43.1444 431.547 42.4111 431.18 41.5963C430.976 41.1074 430.895 40.6185 430.895 40.0889C430.935 39.5593 431.058 39.0704 431.302 38.5815C431.547 38.1333 431.873 37.7259 432.321 37.4C432.728 37.0741 433.217 36.8704 433.747 36.7889C434.399 36.6259 435.092 36.7074 435.744 36.9518C436.396 37.1963 436.926 37.6444 437.292 38.1741V38.2963Z" fill="white"/>
<g opacity="0.1">
<path opacity="0.1" d="M411.661 156.689V170.703C411.661 171.966 412.15 173.189 413.046 174.085C413.943 174.981 415.165 175.47 416.428 175.47H430.406C431.017 175.47 431.669 175.348 432.239 175.103C432.81 174.859 433.34 174.492 433.788 174.085C434.236 173.637 434.603 173.107 434.807 172.537C435.051 171.966 435.173 171.355 435.173 170.703V170.459L441.367 170.052C441.449 170.052 441.571 170.011 441.612 169.97C441.693 169.929 441.734 169.848 441.775 169.726C441.816 169.644 441.816 169.522 441.775 169.44C441.734 169.359 441.693 169.277 441.612 169.196L435.173 164.226V156.689C435.173 156.077 435.051 155.426 434.807 154.855C434.562 154.285 434.195 153.755 433.788 153.307C433.34 152.859 432.81 152.492 432.239 152.289C431.669 152.044 431.058 151.922 430.406 151.922H416.428C415.817 151.922 415.165 152.044 414.595 152.289C414.024 152.533 413.494 152.9 413.046 153.307C412.598 153.755 412.231 154.285 412.027 154.855C411.783 155.466 411.661 156.077 411.661 156.689Z" fill="#010101"/>
<path opacity="0.1" d="M423.682 160.966C423.478 160.722 423.234 160.477 422.989 160.274C422.5 159.866 421.93 159.581 421.359 159.5C420.748 159.377 420.137 159.418 419.525 159.663C418.955 159.866 418.425 160.233 418.018 160.681C417.61 161.17 417.325 161.74 417.243 162.311C417.08 163.248 417.284 164.185 417.814 164.959C418.344 165.814 418.996 166.588 419.77 167.24C420.952 168.3 422.215 169.196 423.56 169.97C423.6 170.011 423.6 170.011 423.641 170.011C423.682 170.011 423.723 170.011 423.723 169.97C425.393 169.033 426.942 167.851 428.287 166.466C428.939 165.814 429.428 165.081 429.794 164.266C429.998 163.777 430.08 163.288 430.08 162.759C430.039 162.229 429.917 161.74 429.672 161.251C429.428 160.803 429.102 160.396 428.653 160.07C428.246 159.744 427.757 159.54 427.227 159.459C426.575 159.296 425.882 159.377 425.23 159.622C424.578 159.866 424.049 160.314 423.682 160.844V160.966Z" fill="#010101"/>
</g>
<path d="M416.021 153.062V167.036C416.021 168.299 416.51 169.522 417.407 170.418C418.303 171.314 419.525 171.803 420.789 171.803H434.766C435.377 171.803 436.029 171.681 436.6 171.436C437.17 171.192 437.7 170.825 438.148 170.418C438.596 169.97 438.963 169.44 439.167 168.87C439.411 168.299 439.534 167.688 439.534 167.036V166.792L445.728 166.385C445.809 166.385 445.931 166.344 445.972 166.303C446.054 166.262 446.094 166.181 446.135 166.059C446.176 165.977 446.176 165.855 446.135 165.773C446.094 165.692 446.054 165.61 445.972 165.529L439.534 160.559V153.022C439.534 152.41 439.411 151.759 439.167 151.188C438.922 150.618 438.556 150.088 438.148 149.64C437.741 149.192 437.17 148.825 436.6 148.622C436.029 148.377 435.418 148.255 434.766 148.255H420.789C420.177 148.255 419.525 148.377 418.955 148.622C418.384 148.866 417.855 149.233 417.407 149.64C416.958 150.088 416.592 150.618 416.388 151.188C416.143 151.799 416.021 152.451 416.021 153.062Z" fill="url(#paint50_linear)"/>
<path d="M428.042 157.34C427.838 157.096 427.594 156.851 427.349 156.648C426.86 156.24 426.29 155.955 425.719 155.874C425.108 155.751 424.497 155.792 423.886 156.037C423.315 156.24 422.785 156.607 422.378 157.055C421.97 157.544 421.685 158.114 421.604 158.685C421.441 159.622 421.644 160.559 422.174 161.333C422.704 162.188 423.356 162.962 424.13 163.614C425.312 164.674 426.575 165.57 427.92 166.344C427.961 166.385 427.961 166.385 428.001 166.385C428.042 166.385 428.083 166.385 428.083 166.344C429.754 165.407 431.302 164.225 432.647 162.84C433.299 162.188 433.788 161.455 434.155 160.64C434.358 160.151 434.44 159.662 434.44 159.133C434.399 158.603 434.277 158.114 434.032 157.625C433.788 157.177 433.462 156.77 433.014 156.444C432.606 156.118 432.117 155.914 431.587 155.833C430.935 155.67 430.243 155.751 429.591 155.996C428.939 156.24 428.409 156.688 428.042 157.218V157.34Z" fill="white"/>
<g opacity="0.1">
<path opacity="0.1" d="M234.724 44.8558V54.8373C234.724 55.7336 235.09 56.5892 235.702 57.241C236.354 57.8929 237.209 58.2188 238.106 58.2188H248.09C248.538 58.2188 248.986 58.1373 249.394 57.9743C249.801 57.8114 250.168 57.5669 250.494 57.241C250.82 56.9151 251.064 56.5484 251.227 56.141C251.39 55.7336 251.472 55.2855 251.472 54.8373V54.6336L255.873 54.3484C255.954 54.3484 255.995 54.3077 256.077 54.2669C256.117 54.2262 256.158 54.1854 256.199 54.104C256.199 54.0225 256.199 53.9817 256.199 53.9003C256.158 53.8188 256.158 53.778 256.077 53.7373L251.472 50.1929V44.8151C251.472 44.3669 251.39 43.9188 251.227 43.5114C251.064 43.104 250.82 42.7373 250.494 42.4114C250.168 42.0854 249.801 41.841 249.394 41.678C248.986 41.5151 248.538 41.4336 248.09 41.4336H238.147C237.698 41.4336 237.25 41.5151 236.843 41.678C236.435 41.841 236.068 42.0854 235.742 42.4114C235.416 42.7373 235.172 43.104 235.009 43.5114C234.846 43.9595 234.724 44.4077 234.724 44.8558Z" fill="#010101"/>
<path opacity="0.1" d="M243.322 47.9115C243.159 47.7486 242.996 47.5856 242.833 47.4226C242.507 47.1374 242.099 46.9337 241.651 46.8523C241.203 46.7708 240.754 46.8115 240.347 46.9745C239.939 47.1374 239.573 47.3819 239.287 47.7078C239.002 48.0337 238.798 48.4412 238.717 48.8893C238.595 49.5411 238.758 50.2337 239.124 50.7634C239.491 51.3745 239.98 51.9041 240.51 52.393C241.325 53.1263 242.262 53.7782 243.24 54.3485C243.24 54.3485 243.281 54.3893 243.322 54.3893C243.362 54.3893 243.362 54.3893 243.403 54.3893C244.585 53.6967 245.685 52.8819 246.663 51.9041C247.111 51.456 247.478 50.9263 247.763 50.356C247.926 50.03 247.967 49.6634 247.967 49.256C247.967 48.8893 247.845 48.5226 247.682 48.1967C247.519 47.8708 247.274 47.5856 246.948 47.3819C246.663 47.1782 246.296 47.0152 245.93 46.9337C245.441 46.8115 244.952 46.8523 244.503 47.056C244.055 47.2189 243.648 47.5449 243.403 47.9115H243.322Z" fill="#010101"/>
</g>
<path d="M237.861 42.2484V52.2299C237.861 53.1262 238.228 53.9817 238.839 54.6336C239.491 55.2854 240.347 55.6114 241.244 55.6114H251.227C251.676 55.6114 252.124 55.5299 252.531 55.3669C252.939 55.2039 253.306 54.9595 253.632 54.6336C253.958 54.3077 254.202 53.941 254.365 53.5336C254.528 53.1262 254.61 52.678 254.61 52.2299V52.0262L259.011 51.741C259.092 51.741 259.133 51.7002 259.214 51.6595C259.255 51.6188 259.296 51.578 259.337 51.4965C259.337 51.4151 259.337 51.3743 259.337 51.2928C259.296 51.2114 259.296 51.1706 259.214 51.1299L254.61 47.5854V42.2077C254.61 41.7595 254.528 41.3114 254.365 40.9039C254.202 40.4965 253.958 40.1299 253.632 39.8039C253.306 39.478 252.939 39.2336 252.531 39.0706C252.124 38.9077 251.676 38.8262 251.227 38.8262H241.284C240.836 38.8262 240.388 38.9077 239.98 39.0706C239.573 39.2336 239.206 39.478 238.88 39.8039C238.554 40.1299 238.31 40.4965 238.147 40.9039C237.943 41.3521 237.861 41.8002 237.861 42.2484Z" fill="url(#paint51_linear)"/>
<path d="M246.419 45.3041C246.256 45.1411 246.093 44.9782 245.93 44.8152C245.604 44.53 245.196 44.3263 244.748 44.2448C244.3 44.1634 243.852 44.2041 243.444 44.3671C243.037 44.53 242.67 44.7745 242.385 45.1004C242.099 45.4263 241.896 45.8337 241.814 46.2819C241.692 46.9337 241.855 47.6263 242.222 48.156C242.588 48.7671 243.077 49.2967 243.607 49.7856C244.422 50.5189 245.359 51.1708 246.337 51.7411C246.337 51.7411 246.378 51.7819 246.419 51.7819C246.46 51.7819 246.46 51.7819 246.5 51.7819C247.682 51.0893 248.782 50.2745 249.76 49.2967C250.209 48.8485 250.575 48.3189 250.861 47.7485C251.024 47.4226 251.064 47.056 251.064 46.6485C251.064 46.2819 250.942 45.9152 250.779 45.5893C250.616 45.2634 250.372 44.9782 250.046 44.7745C249.76 44.5708 249.394 44.4078 249.027 44.3263C248.538 44.2041 248.049 44.2448 247.601 44.4485C247.152 44.6115 246.745 44.9374 246.5 45.3041H246.419Z" fill="white"/>
</g>
<defs>
<filter id="filter0_d" x="-15" y="-20" width="712" height="500" filterUnits="userSpaceOnUse" color-interpolation-filters="sRGB">
<feFlood flood-opacity="0" result="BackgroundImageFix"/>
<feColorMatrix in="SourceAlpha" type="matrix" values="0 0 0 0 0 0 0 0 0 0 0 0 0 0 0 0 0 0 127 0" result="hardAlpha"/>
<feOffset dy="10"/>
<feGaussianBlur stdDeviation="15"/>
<feColorMatrix type="matrix" values="0 0 0 0 0 0 0 0 0 0 0 0 0 0 0 0 0 0 0.25 0"/>
<feBlend mode="normal" in2="BackgroundImageFix" result="effect1_dropShadow"/>
<feBlend mode="normal" in="SourceGraphic" in2="effect1_dropShadow" result="shape"/>
</filter>
<linearGradient id="paint0_linear" x1="184.427" y1="304.38" x2="482.114" y2="304.38" gradientUnits="userSpaceOnUse">
<stop stop-color="#7FD1F5"/>
<stop offset="1" stop-color="#44B4E7"/>
</linearGradient>
<linearGradient id="paint1_linear" x1="115.945" y1="171.777" x2="209.057" y2="171.777" gradientUnits="userSpaceOnUse">
<stop stop-color="#7FD1F5"/>
<stop offset="1" stop-color="#44B4E7"/>
</linearGradient>
<linearGradient id="paint2_linear" x1="81.3439" y1="172.861" x2="111.517" y2="172.861" gradientUnits="userSpaceOnUse">
<stop stop-color="#7FD1F5"/>
<stop offset="1" stop-color="#44B4E7"/>
</linearGradient>
<linearGradient id="paint3_linear" x1="499.554" y1="221.638" x2="538.955" y2="221.638" gradientUnits="userSpaceOnUse">
<stop stop-color="#7FD1F5"/>
<stop offset="1" stop-color="#44B4E7"/>
</linearGradient>
<linearGradient id="paint4_linear" x1="214.709" y1="109.318" x2="272.775" y2="109.318" gradientUnits="userSpaceOnUse">
<stop stop-color="#7FD1F5"/>
<stop offset="1" stop-color="#44B4E7"/>
</linearGradient>
<linearGradient id="paint5_linear" x1="544.695" y1="221.638" x2="584.096" y2="221.638" gradientUnits="userSpaceOnUse">
<stop stop-color="#7FD1F5"/>
<stop offset="1" stop-color="#44B4E7"/>
</linearGradient>
<linearGradient id="paint6_linear" x1="460.071" y1="186.385" x2="489.68" y2="186.385" gradientUnits="userSpaceOnUse">
<stop stop-color="#7FD1F5"/>
<stop offset="1" stop-color="#44B4E7"/>
</linearGradient>
<linearGradient id="paint7_linear" x1="132.04" y1="270.921" x2="156.77" y2="270.921" gradientUnits="userSpaceOnUse">
<stop stop-color="#7FD1F5"/>
<stop offset="1" stop-color="#44B4E7"/>
</linearGradient>
<linearGradient id="paint8_linear" x1="122.988" y1="253.462" x2="136.619" y2="253.462" gradientUnits="userSpaceOnUse">
<stop stop-color="#7FD1F5"/>
<stop offset="1" stop-color="#44B4E7"/>
</linearGradient>
<linearGradient id="paint9_linear" x1="142.439" y1="241.949" x2="150.18" y2="241.949" gradientUnits="userSpaceOnUse">
<stop stop-color="#7FD1F5"/>
<stop offset="1" stop-color="#44B4E7"/>
</linearGradient>
<linearGradient id="paint10_linear" x1="63.3624" y1="218.492" x2="69.4314" y2="218.492" gradientUnits="userSpaceOnUse">
<stop stop-color="#7FD1F5"/>
<stop offset="1" stop-color="#44B4E7"/>
</linearGradient>
<linearGradient id="paint11_linear" x1="595.275" y1="235.92" x2="599.798" y2="235.92" gradientUnits="userSpaceOnUse">
<stop stop-color="#7FD1F5"/>
<stop offset="1" stop-color="#44B4E7"/>
</linearGradient>
<linearGradient id="paint12_linear" x1="486.988" y1="117.04" x2="502.768" y2="117.04" gradientUnits="userSpaceOnUse">
<stop stop-color="#7FD1F5"/>
<stop offset="1" stop-color="#44B4E7"/>
</linearGradient>
<linearGradient id="paint13_linear" x1="472.461" y1="113.188" x2="482.81" y2="113.188" gradientUnits="userSpaceOnUse">
<stop stop-color="#7FD1F5"/>
<stop offset="1" stop-color="#44B4E7"/>
</linearGradient>
<linearGradient id="paint14_linear" x1="262.192" y1="87.8614" x2="272.541" y2="87.8614" gradientUnits="userSpaceOnUse">
<stop stop-color="#7FD1F5"/>
<stop offset="1" stop-color="#44B4E7"/>
</linearGradient>
<linearGradient id="paint15_linear" x1="482.445" y1="103.673" x2="490.48" y2="103.673" gradientUnits="userSpaceOnUse">
<stop stop-color="#7FD1F5"/>
<stop offset="1" stop-color="#44B4E7"/>
</linearGradient>
<linearGradient id="paint16_linear" x1="526.692" y1="265.934" x2="576.847" y2="265.934" gradientUnits="userSpaceOnUse">
<stop stop-color="#7FD1F5"/>
<stop offset="1" stop-color="#44B4E7"/>
</linearGradient>
<linearGradient id="paint17_linear" x1="285.011" y1="77.1992" x2="310.512" y2="77.1992" gradientUnits="userSpaceOnUse">
<stop stop-color="#7FD1F5"/>
<stop offset="1" stop-color="#44B4E7"/>
</linearGradient>
<linearGradient id="paint18_linear" x1="169.003" y1="96.3112" x2="220.727" y2="96.3112" gradientUnits="userSpaceOnUse">
<stop stop-color="#71459B"/>
<stop offset="0.8668" stop-color="#A76CAD"/>
</linearGradient>
<linearGradient id="paint19_linear" x1="196.106" y1="84.8954" x2="224.246" y2="84.8954" gradientUnits="userSpaceOnUse">
<stop stop-color="#71459B"/>
<stop offset="0.8668" stop-color="#A76CAD"/>
</linearGradient>
<linearGradient id="paint20_linear" x1="173.714" y1="86.5923" x2="194.195" y2="86.5923" gradientUnits="userSpaceOnUse">
<stop stop-color="#71459B"/>
<stop offset="0.8668" stop-color="#A76CAD"/>
</linearGradient>
<linearGradient id="paint21_linear" x1="159.266" y1="105.405" x2="179.746" y2="105.405" gradientUnits="userSpaceOnUse">
<stop stop-color="#71459B"/>
<stop offset="0.8668" stop-color="#A76CAD"/>
</linearGradient>
<linearGradient id="paint22_linear" x1="604.907" y1="238.758" x2="625.388" y2="238.758" gradientUnits="userSpaceOnUse">
<stop stop-color="#71459B"/>
<stop offset="0.8668" stop-color="#A76CAD"/>
</linearGradient>
<linearGradient id="paint23_linear" x1="476.247" y1="90.4028" x2="496.728" y2="90.4028" gradientUnits="userSpaceOnUse">
<stop stop-color="#71459B"/>
<stop offset="0.8668" stop-color="#A76CAD"/>
</linearGradient>
<linearGradient id="paint24_linear" x1="32.939" y1="222.483" x2="53.4199" y2="222.483" gradientUnits="userSpaceOnUse">
<stop stop-color="#71459B"/>
<stop offset="0.8668" stop-color="#A76CAD"/>
</linearGradient>
<linearGradient id="paint25_linear" x1="471.129" y1="95.6867" x2="479.683" y2="95.6867" gradientUnits="userSpaceOnUse">
<stop stop-color="#71459B"/>
<stop offset="0.8668" stop-color="#A76CAD"/>
</linearGradient>
<linearGradient id="paint26_linear" x1="452.444" y1="66.3472" x2="460.998" y2="66.3472" gradientUnits="userSpaceOnUse">
<stop stop-color="#71459B"/>
<stop offset="0.8668" stop-color="#A76CAD"/>
</linearGradient>
<linearGradient id="paint27_linear" x1="569.439" y1="251.391" x2="577.993" y2="251.391" gradientUnits="userSpaceOnUse">
<stop stop-color="#71459B"/>
<stop offset="0.8668" stop-color="#A76CAD"/>
</linearGradient>
<linearGradient id="paint28_linear" x1="80.9653" y1="237.188" x2="89.519" y2="237.188" gradientUnits="userSpaceOnUse">
<stop stop-color="#71459B"/>
<stop offset="0.8668" stop-color="#A76CAD"/>
</linearGradient>
<linearGradient id="paint29_linear" x1="221.705" y1="89.5722" x2="230.259" y2="89.5722" gradientUnits="userSpaceOnUse">
<stop stop-color="#71459B"/>
<stop offset="0.8668" stop-color="#A76CAD"/>
</linearGradient>
<linearGradient id="paint30_linear" x1="633.408" y1="266.495" x2="641.962" y2="266.495" gradientUnits="userSpaceOnUse">
<stop stop-color="#71459B"/>
<stop offset="0.8668" stop-color="#A76CAD"/>
</linearGradient>
<linearGradient id="paint31_linear" x1="327.105" y1="34.2184" x2="335.659" y2="34.2184" gradientUnits="userSpaceOnUse">
<stop stop-color="#71459B"/>
<stop offset="0.8668" stop-color="#A76CAD"/>
</linearGradient>
<linearGradient id="paint32_linear" x1="349.4" y1="40.9976" x2="369.88" y2="40.9976" gradientUnits="userSpaceOnUse">
<stop stop-color="#71459B"/>
<stop offset="0.8668" stop-color="#A76CAD"/>
</linearGradient>
<linearGradient id="paint33_linear" x1="185.542" y1="109.503" x2="206.023" y2="109.503" gradientUnits="userSpaceOnUse">
<stop stop-color="#71459B"/>
<stop offset="0.8668" stop-color="#A76CAD"/>
</linearGradient>
<linearGradient id="paint34_linear" x1="626.067" y1="262.471" x2="646.548" y2="262.471" gradientUnits="userSpaceOnUse">
<stop stop-color="#71459B"/>
<stop offset="0.8668" stop-color="#A76CAD"/>
</linearGradient>
<linearGradient id="paint35_linear" x1="30.1978" y1="245.899" x2="58.3378" y2="245.899" gradientUnits="userSpaceOnUse">
<stop stop-color="#71459B"/>
<stop offset="0.8668" stop-color="#A76CAD"/>
</linearGradient>
<linearGradient id="paint36_linear" x1="477.798" y1="84.9365" x2="505.938" y2="84.9365" gradientUnits="userSpaceOnUse">
<stop stop-color="#71459B"/>
<stop offset="0.8668" stop-color="#A76CAD"/>
</linearGradient>
<linearGradient id="paint37_linear" x1="601.716" y1="267.044" x2="629.856" y2="267.044" gradientUnits="userSpaceOnUse">
<stop stop-color="#71459B"/>
<stop offset="0.8668" stop-color="#A76CAD"/>
</linearGradient>
<linearGradient id="paint38_linear" x1="458.772" y1="75.6755" x2="496.354" y2="75.6755" gradientUnits="userSpaceOnUse">
<stop stop-color="#71459B"/>
<stop offset="0.8668" stop-color="#A76CAD"/>
</linearGradient>
<linearGradient id="paint39_linear" x1="581.451" y1="252.302" x2="623.475" y2="252.302" gradientUnits="userSpaceOnUse">
<stop stop-color="#71459B"/>
<stop offset="0.8668" stop-color="#A76CAD"/>
</linearGradient>
<linearGradient id="paint40_linear" x1="38.8223" y1="233.791" x2="78.0142" y2="233.791" gradientUnits="userSpaceOnUse">
<stop stop-color="#71459B"/>
<stop offset="0.8668" stop-color="#A76CAD"/>
</linearGradient>
<linearGradient id="paint41_linear" x1="308.477" y1="276.046" x2="265.463" y2="277.554" gradientUnits="userSpaceOnUse">
<stop stop-color="#71459B"/>
<stop offset="0.8668" stop-color="#A76DAE"/>
</linearGradient>
<linearGradient id="paint42_linear" x1="358.241" y1="276.479" x2="401.005" y2="281.353" gradientUnits="userSpaceOnUse">
<stop stop-color="#71459B"/>
<stop offset="0.8668" stop-color="#A76DAE"/>
</linearGradient>
<linearGradient id="paint43_linear" x1="325.023" y1="115.571" x2="364.632" y2="115.571" gradientUnits="userSpaceOnUse">
<stop stop-color="#71459B"/>
<stop offset="0.8668" stop-color="#A76CAD"/>
</linearGradient>
<linearGradient id="paint44_linear" x1="328.097" y1="115.762" x2="359.962" y2="115.762" gradientUnits="userSpaceOnUse">
<stop stop-color="#43B5E8"/>
<stop offset="1" stop-color="#B3E3F9"/>
</linearGradient>
<linearGradient id="paint45_linear" x1="339.183" y1="114.989" x2="350.09" y2="114.989" gradientUnits="userSpaceOnUse">
<stop stop-color="#71459B"/>
<stop offset="0.8668" stop-color="#A76DAE"/>
</linearGradient>
<linearGradient id="paint46_linear" x1="208.347" y1="193.618" x2="229.545" y2="193.618" gradientUnits="userSpaceOnUse">
<stop stop-color="#7FD1F5"/>
<stop offset="1" stop-color="#44B4E7"/>
</linearGradient>
<linearGradient id="paint47_linear" x1="587.189" y1="199.562" x2="602.67" y2="199.562" gradientUnits="userSpaceOnUse">
<stop stop-color="#7FD1F5"/>
<stop offset="1" stop-color="#44B4E7"/>
</linearGradient>
<linearGradient id="paint48_linear" x1="65.3294" y1="160.337" x2="80.8101" y2="160.337" gradientUnits="userSpaceOnUse">
<stop stop-color="#7FD1F5"/>
<stop offset="1" stop-color="#44B4E7"/>
</linearGradient>
<linearGradient id="paint49_linear" x1="419.164" y1="40.989" x2="449.322" y2="40.989" gradientUnits="userSpaceOnUse">
<stop stop-color="#7DD3F7"/>
<stop offset="1" stop-color="#43B5E8"/>
</linearGradient>
<linearGradient id="paint50_linear" x1="446.178" y1="160.058" x2="416.02" y2="160.058" gradientUnits="userSpaceOnUse">
<stop stop-color="#7DD3F7"/>
<stop offset="1" stop-color="#43B5E8"/>
</linearGradient>
<linearGradient id="paint51_linear" x1="259.342" y1="47.2388" x2="237.851" y2="47.2388" gradientUnits="userSpaceOnUse">
<stop stop-color="#7DD3F7"/>
<stop offset="1" stop-color="#43B5E8"/>
</linearGradient>
</defs>
</svg>
