<svg width="615" height="437" viewBox="0 0 615 437" fill="none" xmlns="http://www.w3.org/2000/svg">
<g filter="url(#filter0_d)">
<path d="M552.869 146.194C552.869 148.302 551.142 150.027 549.031 150.027H454.015C451.904 150.027 450.177 148.302 450.177 146.194V84.9368C450.177 82.8285 451.904 81.1035 454.015 81.1035H549.031C551.142 81.1035 552.869 82.8285 552.869 84.9368V146.194Z" fill="#E1F4FD"/>
<path d="M552.946 86.2785C552.946 88.3868 551.219 90.1118 549.108 90.1118H453.938C451.827 90.1118 450.101 88.3868 450.101 86.2785V84.9368C450.101 82.8285 451.827 81.1035 453.938 81.1035H549.108C551.219 81.1035 552.946 82.8285 552.946 84.9368V86.2785Z" fill="#7C7D80"/>
<path d="M547.573 107.17C547.573 109.279 545.846 111.004 543.736 111.004H484.868C482.758 111.004 481.031 109.279 481.031 107.17V101.689C481.031 99.5805 482.758 97.8555 484.868 97.8555H543.736C545.846 97.8555 547.573 99.5805 547.573 101.689V107.17Z" fill="url(#paint0_linear)"/>
<path d="M543.582 117.673C543.582 118.21 541.855 118.632 539.744 118.632H486.058C483.947 118.632 482.22 118.21 482.22 117.673C482.22 117.137 483.947 116.715 486.058 116.715H539.744C541.855 116.715 543.582 117.175 543.582 117.673Z" fill="#D1D3D4"/>
<path d="M543.428 122.695C543.428 123.231 541.702 123.653 539.591 123.653H485.904C483.794 123.653 482.067 123.231 482.067 122.695C482.067 122.158 483.794 121.736 485.904 121.736H539.591C541.702 121.736 543.428 122.158 543.428 122.695Z" fill="#D1D3D4"/>
<path d="M543.582 128.024C543.582 128.56 541.855 128.982 539.744 128.982H486.058C483.947 128.982 482.22 128.56 482.22 128.024C482.22 127.487 483.947 127.065 486.058 127.065H539.744C541.855 127.065 543.582 127.487 543.582 128.024Z" fill="#D1D3D4"/>
<path d="M538.018 132.93C538.018 133.467 536.291 133.888 534.18 133.888H486.096C483.986 133.888 482.259 133.467 482.259 132.93C482.259 132.393 483.986 131.972 486.096 131.972H534.18C536.291 131.972 538.018 132.393 538.018 132.93Z" fill="#D1D3D4"/>
<path d="M538.248 138.335C538.248 138.872 536.521 139.294 534.411 139.294H486.327C484.216 139.294 482.489 138.872 482.489 138.335C482.489 137.799 484.216 137.377 486.327 137.377H534.411C536.521 137.377 538.248 137.799 538.248 138.335Z" fill="#D1D3D4"/>
<path d="M466.563 115.987C472.604 115.987 477.5 111.095 477.5 105.062C477.5 99.028 472.604 94.1367 466.563 94.1367C460.523 94.1367 455.626 99.028 455.626 105.062C455.626 111.095 460.523 115.987 466.563 115.987Z" fill="white"/>
<path d="M544.349 102.187C544.349 102.724 542.623 103.184 540.512 103.184H488.706C486.595 103.184 484.868 102.762 484.868 102.187C484.868 101.65 486.595 101.19 488.706 101.19H540.512C542.623 101.229 544.349 101.65 544.349 102.187Z" fill="white"/>
<path d="M544.349 106.595C544.349 107.132 542.623 107.592 540.512 107.592H488.706C486.595 107.592 484.868 107.17 484.868 106.595C484.868 106.059 486.595 105.599 488.706 105.599H540.512C542.623 105.599 544.349 106.059 544.349 106.595Z" fill="white"/>
<path d="M456.932 87.0447C457.716 87.0447 458.351 86.4097 458.351 85.6263C458.351 84.843 457.716 84.208 456.932 84.208C456.147 84.208 455.512 84.843 455.512 85.6263C455.512 86.4097 456.147 87.0447 456.932 87.0447Z" fill="white"/>
<path d="M461.613 87.0066C462.397 87.0066 463.033 86.3716 463.033 85.5883C463.033 84.8049 462.397 84.1699 461.613 84.1699C460.829 84.1699 460.193 84.8049 460.193 85.5883C460.193 86.3716 460.829 87.0066 461.613 87.0066Z" fill="white"/>
<path d="M466.219 87.0066C467.003 87.0066 467.639 86.3716 467.639 85.5883C467.639 84.8049 467.003 84.1699 466.219 84.1699C465.435 84.1699 464.799 84.8049 464.799 85.5883C464.799 86.3716 465.435 87.0066 466.219 87.0066Z" fill="white"/>
<g opacity="0.66">
<g opacity="0.66">
<path opacity="0.66" d="M552.869 146.04C552.869 148.149 551.142 149.874 549.031 149.874H454.015C451.904 149.874 450.177 148.149 450.177 146.04V84.7835C450.177 82.6752 451.904 80.9502 454.015 80.9502H549.031C551.142 80.9502 552.869 82.6752 552.869 84.7835V146.04Z" fill="#27AAE1"/>
</g>
<g opacity="0.66">
<path opacity="0.66" d="M552.946 86.1252C552.946 88.2335 551.219 89.9585 549.108 89.9585H453.938C451.827 89.9585 450.101 88.2335 450.101 86.1252V84.7835C450.101 82.6752 451.827 80.9502 453.938 80.9502H549.108C551.219 80.9502 552.946 82.6752 552.946 84.7835V86.1252Z" fill="#27AAE1"/>
</g>
<g opacity="0.66">
<path opacity="0.66" d="M547.573 107.055C547.573 109.164 545.846 110.889 543.736 110.889H484.868C482.758 110.889 481.031 109.164 481.031 107.055V101.574C481.031 99.4652 482.758 97.7402 484.868 97.7402H543.736C545.846 97.7402 547.573 99.4652 547.573 101.574V107.055Z" fill="#27AAE1"/>
</g>
<g opacity="0.66">
<path opacity="0.66" d="M543.582 117.558C543.582 118.095 541.855 118.516 539.744 118.516H486.058C483.947 118.516 482.22 118.095 482.22 117.558C482.22 117.021 483.947 116.6 486.058 116.6H539.744C541.855 116.6 543.582 117.021 543.582 117.558Z" fill="#27AAE1"/>
</g>
<g opacity="0.66">
<path opacity="0.66" d="M543.428 122.541C543.428 123.078 541.702 123.5 539.591 123.5H485.904C483.794 123.5 482.067 123.078 482.067 122.541C482.067 122.005 483.794 121.583 485.904 121.583H539.591C541.702 121.583 543.428 122.005 543.428 122.541Z" fill="#27AAE1"/>
</g>
<g opacity="0.66">
<path opacity="0.66" d="M543.582 127.87C543.582 128.407 541.855 128.829 539.744 128.829H486.058C483.947 128.829 482.22 128.407 482.22 127.87C482.22 127.334 483.947 126.912 486.058 126.912H539.744C541.855 126.912 543.582 127.334 543.582 127.87Z" fill="#27AAE1"/>
</g>
<g opacity="0.66">
<path opacity="0.66" d="M538.018 132.777C538.018 133.313 536.291 133.735 534.18 133.735H486.096C483.986 133.735 482.259 133.313 482.259 132.777C482.259 132.24 483.986 131.818 486.096 131.818H534.18C536.291 131.857 538.018 132.278 538.018 132.777Z" fill="#27AAE1"/>
</g>
<g opacity="0.66">
<path opacity="0.66" d="M538.248 138.182C538.248 138.719 536.521 139.14 534.411 139.14H486.327C484.216 139.14 482.489 138.719 482.489 138.182C482.489 137.645 484.216 137.224 486.327 137.224H534.411C536.521 137.224 538.248 137.684 538.248 138.182Z" fill="#27AAE1"/>
</g>
<path opacity="0.66" d="M466.563 115.871C472.604 115.871 477.5 110.98 477.5 104.946C477.5 98.9128 472.604 94.0215 466.563 94.0215C460.523 94.0215 455.626 98.9128 455.626 104.946C455.626 110.98 460.523 115.871 466.563 115.871Z" fill="#27AAE1"/>
<g opacity="0.66">
<path opacity="0.66" d="M544.349 102.072C544.349 102.609 542.623 103.069 540.512 103.069H488.706C486.595 103.069 484.868 102.647 484.868 102.072C484.868 101.535 486.595 101.075 488.706 101.075H540.512C542.623 101.075 544.349 101.535 544.349 102.072Z" fill="#27AAE1"/>
</g>
<g opacity="0.66">
<path opacity="0.66" d="M544.349 106.442C544.349 106.979 542.623 107.439 540.512 107.439H488.706C486.595 107.439 484.868 107.017 484.868 106.442C484.868 105.905 486.595 105.445 488.706 105.445H540.512C542.623 105.484 544.349 105.905 544.349 106.442Z" fill="#27AAE1"/>
</g>
<g opacity="0.66">
<path opacity="0.66" d="M456.932 86.9304C457.716 86.9304 458.351 86.2954 458.351 85.5121C458.351 84.7288 457.716 84.0938 456.932 84.0938C456.147 84.0938 455.512 84.7288 455.512 85.5121C455.512 86.2954 456.147 86.9304 456.932 86.9304Z" fill="#27AAE1"/>
<path opacity="0.66" d="M461.613 86.8923C462.397 86.8923 463.033 86.2573 463.033 85.474C463.033 84.6907 462.397 84.0557 461.613 84.0557C460.829 84.0557 460.193 84.6907 460.193 85.474C460.193 86.2573 460.829 86.8923 461.613 86.8923Z" fill="#27AAE1"/>
<path opacity="0.66" d="M466.219 86.8923C467.003 86.8923 467.639 86.2573 467.639 85.474C467.639 84.6907 467.003 84.0557 466.219 84.0557C465.435 84.0557 464.799 84.6907 464.799 85.474C464.799 86.2573 465.435 86.8923 466.219 86.8923Z" fill="#27AAE1"/>
</g>
</g>
<path d="M485.214 142.168C485.214 144.277 483.487 146.002 481.376 146.002H362.414C360.303 146.002 358.576 144.277 358.576 142.168V64.6966C358.576 62.5883 360.303 60.8633 362.414 60.8633H481.376C483.487 60.8633 485.214 62.5883 485.214 64.6966V142.168Z" fill="#E1F4FD"/>
<path d="M485.29 68.1466C485.29 70.255 483.564 71.98 481.453 71.98H362.414C360.303 71.98 358.576 70.255 358.576 68.1466V64.6966C358.576 62.5883 360.303 60.8633 362.414 60.8633H481.453C483.564 60.8633 485.29 62.5883 485.29 64.6966V68.1466Z" fill="#7C7D80"/>
<path d="M437.36 136.61C437.36 138.718 435.633 140.443 433.523 140.443H405.24C403.13 140.443 401.403 138.718 401.403 136.61V108.55C401.403 106.442 403.13 104.717 405.24 104.717H433.523C435.633 104.717 437.36 106.442 437.36 108.55V136.61Z" fill="url(#paint1_linear)"/>
<path d="M478.536 136.61C478.536 138.718 476.81 140.443 474.699 140.443H446.417C444.306 140.443 442.579 138.718 442.579 136.61V108.55C442.579 106.442 444.306 104.717 446.417 104.717H474.699C476.81 104.717 478.536 106.442 478.536 108.55V136.61Z" fill="url(#paint2_linear)"/>
<path d="M480.685 83.2882C480.685 83.9399 478.958 84.5149 476.848 84.5149H402.285C400.175 84.5149 398.448 83.9782 398.448 83.2882C398.448 82.6365 400.175 82.0615 402.285 82.0615H476.848C478.958 82.0999 480.685 82.6365 480.685 83.2882Z" fill="#D1D3D4"/>
<path d="M480.801 90.7638C480.801 91.4154 479.074 91.9904 476.963 91.9904H402.4C400.29 91.9904 398.563 91.4538 398.563 90.7638C398.563 90.0738 400.29 89.5371 402.4 89.5371H476.963C479.074 89.5754 480.801 90.1121 480.801 90.7638Z" fill="#D1D3D4"/>
<path d="M480.801 97.7403C480.801 98.392 479.074 98.967 476.963 98.967H402.4C400.29 98.967 398.563 98.4303 398.563 97.7403C398.563 97.0503 400.29 96.5137 402.4 96.5137H476.963C479.074 96.5137 480.801 97.0503 480.801 97.7403Z" fill="#D1D3D4"/>
<path d="M434.904 130.361C434.904 131.013 433.178 131.588 431.067 131.588H408.004C405.893 131.588 404.166 131.051 404.166 130.361C404.166 129.671 405.893 129.135 408.004 129.135H431.067C433.178 129.173 434.904 129.71 434.904 130.361Z" fill="white"/>
<path d="M476.119 130.553C476.119 131.205 474.392 131.78 472.281 131.78H449.218C447.107 131.78 445.38 131.243 445.38 130.553C445.38 129.863 447.107 129.326 449.218 129.326H472.281C474.392 129.326 476.119 129.863 476.119 130.553Z" fill="white"/>
<path d="M476.119 135.498C476.119 136.15 474.392 136.725 472.281 136.725H449.218C447.107 136.725 445.38 136.188 445.38 135.498C445.38 134.808 447.107 134.271 449.218 134.271H472.281C474.392 134.31 476.119 134.846 476.119 135.498Z" fill="white"/>
<path d="M434.904 135.345C434.904 135.996 433.178 136.571 431.067 136.571H408.004C405.893 136.571 404.166 136.035 404.166 135.345C404.166 134.655 405.893 134.118 408.004 134.118H431.067C433.178 134.118 434.904 134.655 434.904 135.345Z" fill="white"/>
<path d="M378.915 103.951C386.375 103.951 392.423 97.9094 392.423 90.4572C392.423 83.005 386.375 76.9639 378.915 76.9639C371.455 76.9639 365.407 83.005 365.407 90.4572C365.407 97.9094 371.455 103.951 378.915 103.951Z" fill="white"/>
<path d="M418.787 126.682C423.576 126.682 427.459 122.803 427.459 118.019C427.459 113.234 423.576 109.355 418.787 109.355C413.997 109.355 410.114 113.234 410.114 118.019C410.114 122.803 413.997 126.682 418.787 126.682Z" fill="white"/>
<path d="M460.577 127.142C465.6 127.142 469.672 123.074 469.672 118.057C469.672 113.039 465.6 108.972 460.577 108.972C455.554 108.972 451.482 113.039 451.482 118.057C451.482 123.074 455.554 127.142 460.577 127.142Z" fill="white"/>
<path d="M485.214 65.4629H381.064V72.3629H485.214V65.4629Z" fill="#7C7D80"/>
<g opacity="0.27">
<g opacity="0.27">
<path opacity="0.27" d="M485.175 142.245C485.175 144.353 483.449 146.078 481.338 146.078H362.337C360.226 146.078 358.5 144.353 358.5 142.245V64.7347C358.5 62.6264 360.226 60.9014 362.337 60.9014H481.376C483.487 60.9014 485.214 62.6264 485.214 64.7347V142.245H485.175Z" fill="#27AAE1"/>
</g>
<g opacity="0.27">
<path opacity="0.27" d="M485.598 68.2228C485.598 70.3311 483.871 72.0561 481.76 72.0561H362.337C360.226 72.0561 358.5 70.3311 358.5 68.2228V64.7728C358.5 62.6645 360.226 60.9395 362.337 60.9395H481.76C483.871 60.9395 485.598 62.6645 485.598 64.7728V68.2228Z" fill="#27AAE1"/>
</g>
<g opacity="0.27">
<path opacity="0.27" d="M437.284 136.686C437.284 138.795 435.557 140.52 433.446 140.52H405.164C403.053 140.52 401.326 138.795 401.326 136.686V108.626C401.326 106.518 403.053 104.793 405.164 104.793H433.446C435.557 104.793 437.284 106.518 437.284 108.626V136.686Z" fill="#27AAE1"/>
</g>
<g opacity="0.27">
<path opacity="0.27" d="M478.498 136.686C478.498 138.795 476.771 140.52 474.66 140.52H446.378C444.267 140.52 442.541 138.795 442.541 136.686V108.626C442.541 106.518 444.267 104.793 446.378 104.793H474.66C476.771 104.793 478.498 106.518 478.498 108.626V136.686Z" fill="#27AAE1"/>
</g>
<g opacity="0.27">
<path opacity="0.27" d="M480.647 83.3653C480.647 84.017 478.92 84.592 476.81 84.592H402.209C400.098 84.592 398.371 84.0553 398.371 83.3653C398.371 82.6753 400.098 82.1387 402.209 82.1387H476.81C478.92 82.1387 480.647 82.6753 480.647 83.3653Z" fill="#27AAE1"/>
</g>
<g opacity="0.27">
<path opacity="0.27" d="M480.762 90.8399C480.762 91.4916 479.035 92.0666 476.925 92.0666H402.324C400.213 92.0666 398.486 91.5299 398.486 90.8399C398.486 90.1499 400.213 89.6133 402.324 89.6133H476.925C479.035 89.6133 480.762 90.1499 480.762 90.8399Z" fill="#27AAE1"/>
</g>
<g opacity="0.27">
<path opacity="0.27" d="M480.762 97.7774C480.762 98.4291 479.035 99.0041 476.925 99.0041H402.324C400.213 99.0041 398.486 98.4674 398.486 97.7774C398.486 97.0874 400.213 96.5508 402.324 96.5508H476.925C479.035 96.5891 480.762 97.1258 480.762 97.7774Z" fill="#27AAE1"/>
</g>
<g opacity="0.27">
<path opacity="0.27" d="M434.866 130.438C434.866 131.089 433.139 131.664 431.028 131.664H407.965C405.854 131.664 404.127 131.128 404.127 130.438C404.127 129.786 405.854 129.211 407.965 129.211H431.028C433.139 129.211 434.866 129.748 434.866 130.438Z" fill="#27AAE1"/>
</g>
<g opacity="0.27">
<path opacity="0.27" d="M476.081 130.592C476.081 131.244 474.354 131.819 472.243 131.819H449.18C447.069 131.819 445.342 131.282 445.342 130.592C445.342 129.902 447.069 129.365 449.18 129.365H472.243C474.354 129.404 476.081 129.94 476.081 130.592Z" fill="#27AAE1"/>
</g>
<g opacity="0.27">
<path opacity="0.27" d="M476.081 135.575C476.081 136.227 474.354 136.802 472.243 136.802H449.18C447.069 136.802 445.342 136.265 445.342 135.575C445.342 134.924 447.069 134.349 449.18 134.349H472.243C474.354 134.349 476.081 134.924 476.081 135.575Z" fill="#27AAE1"/>
</g>
<g opacity="0.27">
<path opacity="0.27" d="M434.866 135.383C434.866 136.035 433.139 136.61 431.028 136.61H407.965C405.854 136.61 404.127 136.073 404.127 135.383C404.127 134.693 405.854 134.156 407.965 134.156H431.028C433.139 134.195 434.866 134.731 434.866 135.383Z" fill="#27AAE1"/>
</g>
<path opacity="0.27" d="M378.838 104.027C386.298 104.027 392.346 97.9855 392.346 90.5334C392.346 83.0812 386.298 77.04 378.838 77.04C371.378 77.04 365.33 83.0812 365.33 90.5334C365.33 97.9855 371.378 104.027 378.838 104.027Z" fill="#27AAE1"/>
<path opacity="0.27" d="M418.748 126.72C423.538 126.72 427.421 122.842 427.421 118.057C427.421 113.272 423.538 109.394 418.748 109.394C413.959 109.394 410.076 113.272 410.076 118.057C410.076 122.842 413.959 126.72 418.748 126.72Z" fill="#27AAE1"/>
<path opacity="0.27" d="M460.539 127.218C465.562 127.218 469.634 123.15 469.634 118.133C469.634 113.115 465.562 109.048 460.539 109.048C455.516 109.048 451.444 113.115 451.444 118.133C451.444 123.15 455.516 127.218 460.539 127.218Z" fill="#27AAE1"/>
<g opacity="0.27">
<path opacity="0.27" d="M365.138 68.1082C366.092 68.1082 366.865 67.3359 366.865 66.3832C366.865 65.4305 366.092 64.6582 365.138 64.6582C364.185 64.6582 363.412 65.4305 363.412 66.3832C363.412 67.3359 364.185 68.1082 365.138 68.1082Z" fill="#27AAE1"/>
<path opacity="0.27" d="M370.895 68.0701C371.849 68.0701 372.622 67.2978 372.622 66.3451C372.622 65.3924 371.849 64.6201 370.895 64.6201C369.941 64.6201 369.168 65.3924 369.168 66.3451C369.168 67.2978 369.941 68.0701 370.895 68.0701Z" fill="#27AAE1"/>
<path opacity="0.27" d="M376.613 68.0701C377.566 68.0701 378.339 67.2978 378.339 66.3451C378.339 65.3924 377.566 64.6201 376.613 64.6201C375.659 64.6201 374.886 65.3924 374.886 66.3451C374.886 67.2978 375.659 68.0701 376.613 68.0701Z" fill="#27AAE1"/>
</g>
</g>
<path d="M175.566 147.842C175.566 149.95 173.839 151.675 171.729 151.675H69.1139C67.0032 151.675 65.2764 149.95 65.2764 147.842V81.5638C65.2764 79.4555 67.0032 77.7305 69.1139 77.7305H171.767C173.878 77.7305 175.604 79.4555 175.604 81.5638V147.842H175.566Z" fill="#E1F4FD"/>
<path d="M175.604 83.5571C175.604 85.6655 173.878 87.3905 171.767 87.3905H69.1139C67.0032 87.3905 65.2764 85.6655 65.2764 83.5571V81.5638C65.2764 79.4555 67.0032 77.7305 69.1139 77.7305H171.767C173.878 77.7305 175.604 79.4555 175.604 81.5638V83.5571Z" fill="#7C7D80"/>
<path d="M169.964 109.087C169.964 111.195 168.237 112.92 166.126 112.92H101.426C99.3153 112.92 97.5884 111.195 97.5884 109.087V97.472C97.5884 95.3637 99.3153 93.6387 101.426 93.6387H166.126C168.237 93.6387 169.964 95.3637 169.964 97.472V109.087Z" fill="url(#paint3_linear)"/>
<path d="M169.465 123.501C169.465 124.076 167.738 124.536 165.627 124.536H75.0621C72.9515 124.536 71.2246 124.076 71.2246 123.501C71.2246 122.926 72.9515 122.466 75.0621 122.466H165.627C167.738 122.466 169.465 122.926 169.465 123.501Z" fill="#D1D3D4"/>
<path d="M169.387 128.638C169.387 129.213 167.661 129.673 165.55 129.673H75.6373C73.5267 129.673 71.7998 129.213 71.7998 128.638C71.7998 128.063 73.5267 127.603 75.6373 127.603H165.55C167.661 127.564 169.387 128.063 169.387 128.638Z" fill="#D1D3D4"/>
<path d="M169.311 134.195C169.311 134.77 167.584 135.23 165.474 135.23H75.4459C73.3353 135.23 71.6084 134.77 71.6084 134.195C71.6084 133.62 73.3353 133.16 75.4459 133.16H165.474C167.584 133.122 169.311 133.62 169.311 134.195Z" fill="#D1D3D4"/>
<path d="M169.311 139.754C169.311 140.329 167.584 140.789 165.474 140.789H75.4459C73.3353 140.789 71.6084 140.329 71.6084 139.754C71.6084 139.179 73.3353 138.719 75.4459 138.719H165.474C167.584 138.719 169.311 139.179 169.311 139.754Z" fill="#D1D3D4"/>
<path d="M82.8907 115.182C89.376 115.182 94.6334 109.93 94.6334 103.452C94.6334 96.9734 89.376 91.7217 82.8907 91.7217C76.4054 91.7217 71.1479 96.9734 71.1479 103.452C71.1479 109.93 76.4054 115.182 82.8907 115.182Z" fill="white"/>
<path d="M106.606 110.276C110.464 110.276 113.591 107.152 113.591 103.299C113.591 99.4458 110.464 96.3223 106.606 96.3223C102.749 96.3223 99.6221 99.4458 99.6221 103.299C99.6221 107.152 102.749 110.276 106.606 110.276Z" fill="white"/>
<path d="M167.354 100.117C167.354 100.692 165.627 101.152 163.516 101.152H120.306C118.196 101.152 116.469 100.692 116.469 100.117C116.469 99.542 118.196 99.082 120.306 99.082H163.478C165.627 99.082 167.354 99.542 167.354 100.117Z" fill="white"/>
<path d="M167.277 105.599C167.277 106.174 165.55 106.634 163.44 106.634H120.268C118.157 106.634 116.43 106.174 116.43 105.599C116.43 105.024 118.157 104.564 120.268 104.564H163.44C165.55 104.525 167.277 105.024 167.277 105.599Z" fill="white"/>
<path d="M72.6446 84.0164C73.4711 84.0164 74.1412 83.3471 74.1412 82.5214C74.1412 81.6957 73.4711 81.0264 72.6446 81.0264C71.818 81.0264 71.1479 81.6957 71.1479 82.5214C71.1479 83.3471 71.818 84.0164 72.6446 84.0164Z" fill="white"/>
<path d="M77.6333 83.9783C78.4599 83.9783 79.13 83.3089 79.13 82.4833C79.13 81.6576 78.4599 80.9883 77.6333 80.9883C76.8068 80.9883 76.1367 81.6576 76.1367 82.4833C76.1367 83.3089 76.8068 83.9783 77.6333 83.9783Z" fill="white"/>
<path d="M82.584 83.9783C83.4106 83.9783 84.0807 83.3089 84.0807 82.4833C84.0807 81.6576 83.4106 80.9883 82.584 80.9883C81.7575 80.9883 81.0874 81.6576 81.0874 82.4833C81.0874 83.3089 81.7575 83.9783 82.584 83.9783Z" fill="white"/>
<g opacity="0.6">
<g opacity="0.6">
<path opacity="0.6" d="M175.566 147.918C175.566 150.027 173.839 151.752 171.729 151.752H69.1139C67.0032 151.752 65.2764 150.027 65.2764 147.918V81.64C65.2764 79.5316 67.0032 77.8066 69.1139 77.8066H171.767C173.878 77.8066 175.604 79.5316 175.604 81.64V147.918H175.566Z" fill="#27AAE1"/>
</g>
<g opacity="0.6">
<path opacity="0.6" d="M175.604 83.6333C175.604 85.7416 173.878 87.4666 171.767 87.4666H69.1139C67.0032 87.4666 65.2764 85.7416 65.2764 83.6333V81.64C65.2764 79.5316 67.0032 77.8066 69.1139 77.8066H171.767C173.878 77.8066 175.604 79.5316 175.604 81.64V83.6333Z" fill="#27AAE1"/>
</g>
<g opacity="0.6">
<path opacity="0.6" d="M169.964 109.163C169.964 111.272 168.237 112.997 166.126 112.997H101.426C99.3153 112.997 97.5884 111.272 97.5884 109.163V97.5482C97.5884 95.4398 99.3153 93.7148 101.426 93.7148H166.126C168.237 93.7148 169.964 95.4398 169.964 97.5482V109.163Z" fill="#27AAE1"/>
</g>
<g opacity="0.6">
<path opacity="0.6" d="M169.465 123.577C169.465 124.152 167.738 124.612 165.627 124.612H75.0621C72.9515 124.612 71.2246 124.152 71.2246 123.577C71.2246 123.002 72.9515 122.542 75.0621 122.542H165.627C167.738 122.542 169.465 123.002 169.465 123.577Z" fill="#27AAE1"/>
</g>
<g opacity="0.6">
<path opacity="0.6" d="M169.387 128.714C169.387 129.289 167.661 129.749 165.55 129.749H75.6373C73.5267 129.749 71.7998 129.289 71.7998 128.714C71.7998 128.139 73.5267 127.679 75.6373 127.679H165.55C167.661 127.64 169.387 128.139 169.387 128.714Z" fill="#27AAE1"/>
</g>
<g opacity="0.6">
<path opacity="0.6" d="M169.311 134.271C169.311 134.846 167.584 135.306 165.474 135.306H75.4459C73.3353 135.306 71.6084 134.846 71.6084 134.271C71.6084 133.696 73.3353 133.236 75.4459 133.236H165.474C167.584 133.198 169.311 133.696 169.311 134.271Z" fill="#27AAE1"/>
</g>
<g opacity="0.6">
<path opacity="0.6" d="M169.311 139.868C169.311 140.443 167.584 140.903 165.474 140.903H75.4459C73.3353 140.903 71.6084 140.443 71.6084 139.868C71.6084 139.293 73.3353 138.833 75.4459 138.833H165.474C167.584 138.795 169.311 139.255 169.311 139.868Z" fill="#27AAE1"/>
</g>
<path opacity="0.6" d="M82.8907 115.258C89.376 115.258 94.6334 110.006 94.6334 103.528C94.6334 97.0495 89.376 91.7979 82.8907 91.7979C76.4054 91.7979 71.1479 97.0495 71.1479 103.528C71.1479 110.006 76.4054 115.258 82.8907 115.258Z" fill="#27AAE1"/>
<path opacity="0.6" d="M106.606 110.39C110.464 110.39 113.591 107.266 113.591 103.413C113.591 99.5601 110.464 96.4365 106.606 96.4365C102.749 96.4365 99.6221 99.5601 99.6221 103.413C99.6221 107.266 102.749 110.39 106.606 110.39Z" fill="#27AAE1"/>
<g opacity="0.6">
<path opacity="0.6" d="M167.354 100.193C167.354 100.768 165.627 101.228 163.516 101.228H120.306C118.196 101.228 116.469 100.768 116.469 100.193C116.469 99.6182 118.196 99.1582 120.306 99.1582H163.478C165.627 99.1582 167.354 99.6182 167.354 100.193Z" fill="#27AAE1"/>
</g>
<g opacity="0.6">
<path opacity="0.6" d="M167.277 105.675C167.277 106.25 165.55 106.71 163.44 106.71H120.268C118.157 106.71 116.43 106.25 116.43 105.675C116.43 105.1 118.157 104.64 120.268 104.64H163.44C165.55 104.64 167.277 105.1 167.277 105.675Z" fill="#27AAE1"/>
</g>
<g opacity="0.6">
<path opacity="0.6" d="M72.6446 84.1316C73.4711 84.1316 74.1412 83.4623 74.1412 82.6366C74.1412 81.8109 73.4711 81.1416 72.6446 81.1416C71.818 81.1416 71.1479 81.8109 71.1479 82.6366C71.1479 83.4623 71.818 84.1316 72.6446 84.1316Z" fill="#27AAE1"/>
<path opacity="0.6" d="M77.6333 84.0935C78.4599 84.0935 79.13 83.4242 79.13 82.5985C79.13 81.7729 78.4599 81.1035 77.6333 81.1035C76.8068 81.1035 76.1367 81.7729 76.1367 82.5985C76.1367 83.4242 76.8068 84.0935 77.6333 84.0935Z" fill="#27AAE1"/>
<path opacity="0.6" d="M82.584 84.0935C83.4106 84.0935 84.0807 83.4242 84.0807 82.5985C84.0807 81.7729 83.4106 81.1035 82.584 81.1035C81.7575 81.1035 81.0874 81.7729 81.0874 82.5985C81.0874 83.4242 81.7575 84.0935 82.584 84.0935Z" fill="#27AAE1"/>
</g>
</g>
<path d="M255.77 143.242C255.77 145.35 254.043 147.075 251.932 147.075H133.814C131.703 147.075 129.977 145.35 129.977 143.242V66.1917C129.977 64.0834 131.703 62.3584 133.814 62.3584H251.894C254.005 62.3584 255.731 64.0834 255.731 66.1917V143.242H255.77Z" fill="#E1F4FD"/>
<path d="M255.77 69.6034C255.77 71.7117 254.043 73.4367 251.933 73.4367H133.853C131.742 73.4367 130.015 71.7117 130.015 69.6034V66.1917C130.015 64.0834 131.742 62.3584 133.853 62.3584H251.933C254.043 62.3584 255.77 64.0834 255.77 66.1917V69.6034Z" fill="#7C7D80"/>
<path d="M137.229 69.948C138.183 69.948 138.956 69.1757 138.956 68.223C138.956 67.2704 138.183 66.498 137.229 66.498C136.276 66.498 135.502 67.2704 135.502 68.223C135.502 69.1757 136.276 69.948 137.229 69.948Z" fill="white"/>
<path d="M142.947 69.91C143.901 69.91 144.674 69.1376 144.674 68.185C144.674 67.2323 143.901 66.46 142.947 66.46C141.993 66.46 141.22 67.2323 141.22 68.185C141.22 69.1376 141.993 69.91 142.947 69.91Z" fill="white"/>
<path d="M148.627 69.91C149.58 69.91 150.354 69.1376 150.354 68.185C150.354 67.2323 149.58 66.46 148.627 66.46C147.673 66.46 146.9 67.2323 146.9 68.185C146.9 69.1376 147.673 69.91 148.627 69.91Z" fill="white"/>
<path d="M285.05 70.2168H129.977V75.5835H285.05V70.2168Z" fill="#7C7D80"/>
<path d="M478.422 392.447C478.422 394.555 476.695 396.28 474.584 396.28H143.715C141.604 396.28 139.877 394.555 139.877 392.447V191.963C139.877 189.855 141.604 188.13 143.715 188.13H474.623C476.733 188.13 478.46 189.855 478.46 191.963V392.447H478.422Z" fill="#E1F4FD"/>
<path d="M478.844 202.467C478.844 204.575 477.117 206.3 475.006 206.3H143.715C141.604 206.3 139.877 204.575 139.877 202.467V191.925C139.877 189.817 141.604 188.092 143.715 188.092H475.006C477.117 188.092 478.844 189.817 478.844 191.925V202.467Z" fill="#7C7D80"/>
<path d="M470.286 247.241C470.286 249.349 468.559 251.074 466.448 251.074H244.833C242.722 251.074 240.995 249.349 240.995 247.241V216.076C240.995 213.967 242.722 212.242 244.833 212.242H466.487C468.597 212.242 470.324 213.967 470.324 216.076V247.241H470.286Z" fill="url(#paint4_linear)"/>
<path d="M473.548 293.739C473.548 295.847 471.821 297.572 469.71 297.572H244.948C242.837 297.572 241.11 295.847 241.11 293.739V262.574C241.11 260.465 242.837 258.74 244.948 258.74H469.672C471.782 258.74 473.509 260.465 473.509 262.574V293.739H473.548Z" fill="url(#paint5_linear)"/>
<path d="M379.337 384.473C379.337 386.582 377.611 388.307 375.5 388.307H154.921C152.81 388.307 151.083 386.582 151.083 384.473V307.385C151.083 305.277 152.81 303.552 154.921 303.552H375.5C377.611 303.552 379.337 305.277 379.337 307.385V384.473Z" fill="url(#paint6_linear)"/>
<path d="M237.734 294.697C237.734 296.805 236.007 298.53 233.896 298.53H154.69C152.579 298.53 150.853 296.805 150.853 294.697V215.194C150.853 213.085 152.579 211.36 154.69 211.36H233.896C236.007 211.36 237.734 213.085 237.734 215.194V294.697Z" fill="url(#paint7_linear)"/>
<path d="M472.128 383.515C472.128 385.623 470.401 387.348 468.29 387.348H387.549C385.439 387.348 383.712 385.623 383.712 383.515V308.152C383.712 306.043 385.439 304.318 387.549 304.318H468.29C470.401 304.318 472.128 306.043 472.128 308.152V383.515Z" fill="url(#paint8_linear)"/>
<path d="M230.25 378.838C230.25 380.947 228.523 382.672 226.413 382.672H159.103C156.993 382.672 155.266 380.947 155.266 378.838V312.982C155.266 310.873 156.993 309.148 159.103 309.148H226.413C228.523 309.148 230.25 310.873 230.25 312.982V378.838Z" fill="white"/>
<path d="M269.585 338.894C269.585 341.003 267.858 342.728 265.747 342.728H239.461C237.35 342.728 235.623 341.003 235.623 338.894V313.249C235.623 311.141 237.35 309.416 239.461 309.416H265.747C267.858 309.416 269.585 311.141 269.585 313.249V338.894Z" fill="white"/>
<path d="M269.316 377.804C269.316 379.912 267.589 381.637 265.479 381.637H239.192C237.081 381.637 235.354 379.912 235.354 377.804V352.159C235.354 350.05 237.081 348.325 239.192 348.325H265.479C267.589 348.325 269.316 350.05 269.316 352.159V377.804Z" fill="white"/>
<path d="M310.032 338.627C310.032 340.735 308.305 342.46 306.195 342.46H279.908C277.797 342.46 276.07 340.735 276.07 338.627V312.982C276.07 310.873 277.797 309.148 279.908 309.148H306.195C308.305 309.148 310.032 310.873 310.032 312.982V338.627Z" fill="white"/>
<path d="M374.31 338.627C374.31 340.735 372.583 342.46 370.472 342.46H317.63C315.519 342.46 313.792 340.735 313.792 338.627V312.982C313.792 310.873 315.519 309.148 317.63 309.148H370.472C372.583 309.148 374.31 310.873 374.31 312.982V338.627Z" fill="white"/>
<path d="M374.31 377.535C374.31 379.643 372.583 381.368 370.472 381.368H317.63C315.519 381.368 313.792 379.643 313.792 377.535V351.89C313.792 349.782 315.519 348.057 317.63 348.057H370.472C372.583 348.057 374.31 349.782 374.31 351.89V377.535Z" fill="white"/>
<path d="M310.032 377.266C310.032 379.375 308.305 381.1 306.195 381.1H279.908C277.797 381.1 276.07 379.375 276.07 377.266V351.621C276.07 349.513 277.797 347.788 279.908 347.788H306.195C308.305 347.788 310.032 349.513 310.032 351.621V377.266Z" fill="white"/>
<path d="M225.492 272.501C225.492 274.111 223.765 275.453 221.654 275.453H169.195C167.085 275.453 165.358 274.111 165.358 272.501C165.358 270.891 167.085 269.55 169.195 269.55H221.654C223.765 269.55 225.492 270.853 225.492 272.501Z" fill="white"/>
<path d="M463.801 266.521C463.801 267.595 462.956 268.438 461.882 268.438H246.445C245.37 268.438 244.526 267.595 244.526 266.521V266.483C244.526 265.41 245.37 264.566 246.445 264.566H461.882C462.956 264.566 463.801 265.41 463.801 266.521Z" fill="white"/>
<path d="M463.801 276.91C463.801 277.983 462.956 278.827 461.882 278.827H246.445C245.37 278.827 244.526 277.983 244.526 276.91V276.872C244.526 275.798 245.37 274.955 246.445 274.955H461.882C462.956 274.955 463.801 275.837 463.801 276.91Z" fill="white"/>
<path d="M436.861 286.608C436.861 287.682 436.017 288.525 434.943 288.525H246.713C245.639 288.525 244.794 287.682 244.794 286.608V286.57C244.794 285.497 245.639 284.653 246.713 284.653H434.943C435.979 284.692 436.861 285.535 436.861 286.608Z" fill="white"/>
<path d="M463.302 310.95C463.302 312.023 462.458 312.867 461.383 312.867H394.611C393.536 312.867 392.692 312.023 392.692 310.95V310.912C392.692 309.838 393.536 308.995 394.611 308.995H461.383C462.458 308.995 463.302 309.838 463.302 310.95Z" fill="white"/>
<path d="M463.033 318.617C463.033 319.69 462.189 320.534 461.114 320.534H394.342C393.267 320.534 392.423 319.69 392.423 318.617V318.579C392.423 317.505 393.267 316.662 394.342 316.662H461.114C462.189 316.662 463.033 317.544 463.033 318.617Z" fill="white"/>
<path d="M463.033 326.667C463.033 327.74 462.189 328.584 461.114 328.584H394.342C393.267 328.584 392.423 327.74 392.423 326.667V326.629C392.423 325.555 393.267 324.712 394.342 324.712H461.114C462.189 324.712 463.033 325.594 463.033 326.667Z" fill="white"/>
<path d="M463.57 343.304C463.57 344.377 462.726 345.22 461.652 345.22H394.879C393.805 345.22 392.96 344.377 392.96 343.304V343.265C392.96 342.192 393.805 341.349 394.879 341.349H461.652C462.726 341.349 463.57 342.192 463.57 343.304Z" fill="white"/>
<path d="M463.724 350.971C463.724 352.044 462.88 352.887 461.805 352.887H395.033C393.958 352.887 393.114 352.044 393.114 350.971V350.932C393.114 349.859 393.958 349.016 395.033 349.016H461.805C462.841 349.016 463.724 349.897 463.724 350.971Z" fill="white"/>
<path d="M463.724 359.288C463.724 360.361 462.88 361.205 461.805 361.205H395.033C393.958 361.205 393.114 360.361 393.114 359.288V359.25C393.114 358.176 393.958 357.333 395.033 357.333H461.805C462.841 357.333 463.724 358.176 463.724 359.288Z" fill="white"/>
<path d="M463.724 373.395C463.724 374.469 462.88 375.312 461.805 375.312H395.033C393.958 375.312 393.114 374.469 393.114 373.395V373.357C393.114 372.284 393.958 371.44 395.033 371.44H461.805C462.841 371.479 463.724 372.322 463.724 373.395Z" fill="white"/>
<path d="M463.724 380.717C463.724 381.79 462.88 382.633 461.805 382.633H395.033C393.958 382.633 393.114 381.79 393.114 380.717V380.678C393.114 379.605 393.958 378.762 395.033 378.762H461.805C462.841 378.762 463.724 379.643 463.724 380.717Z" fill="white"/>
<path d="M225.492 282.468C225.492 284.078 223.765 285.42 221.654 285.42H169.195C167.085 285.42 165.358 284.078 165.358 282.468C165.358 280.858 167.085 279.517 169.195 279.517H221.654C223.765 279.517 225.492 280.858 225.492 282.468Z" fill="white"/>
<path d="M193.103 264.336C206.243 264.336 216.896 253.695 216.896 240.569C216.896 227.443 206.243 216.803 193.103 216.803C179.963 216.803 169.311 227.443 169.311 240.569C169.311 253.695 179.963 264.336 193.103 264.336Z" fill="white"/>
<path d="M160.485 201.47C162.837 201.47 164.744 199.565 164.744 197.215C164.744 194.865 162.837 192.96 160.485 192.96C158.132 192.96 156.225 194.865 156.225 197.215C156.225 199.565 158.132 201.47 160.485 201.47Z" fill="white"/>
<path d="M174.53 201.355C176.882 201.355 178.789 199.45 178.789 197.1C178.789 194.75 176.882 192.845 174.53 192.845C172.177 192.845 170.27 194.75 170.27 197.1C170.27 199.45 172.177 201.355 174.53 201.355Z" fill="white"/>
<path d="M188.498 201.355C190.851 201.355 192.758 199.45 192.758 197.1C192.758 194.75 190.851 192.845 188.498 192.845C186.146 192.845 184.239 194.75 184.239 197.1C184.239 199.45 186.146 201.355 188.498 201.355Z" fill="white"/>
<path d="M365.215 68.0701C366.169 68.0701 366.942 67.2978 366.942 66.3451C366.942 65.3924 366.169 64.6201 365.215 64.6201C364.261 64.6201 363.488 65.3924 363.488 66.3451C363.488 67.2978 364.261 68.0701 365.215 68.0701Z" fill="white"/>
<path d="M370.972 68.032C371.925 68.032 372.698 67.2597 372.698 66.307C372.698 65.3543 371.925 64.582 370.972 64.582C370.018 64.582 369.245 65.3543 369.245 66.307C369.245 67.2597 370.018 68.032 370.972 68.032Z" fill="white"/>
<path d="M376.689 68.032C377.643 68.032 378.416 67.2597 378.416 66.307C378.416 65.3543 377.643 64.582 376.689 64.582C375.736 64.582 374.962 65.3543 374.962 66.307C374.962 67.2597 375.736 68.032 376.689 68.032Z" fill="white"/>
<path d="M249.284 101.266C249.284 103.375 247.558 105.1 245.447 105.1H170.961C168.85 105.1 167.124 103.375 167.124 101.266V82.598C167.124 80.4896 168.85 78.7646 170.961 78.7646H245.447C247.558 78.7646 249.284 80.4896 249.284 82.598V101.266Z" fill="url(#paint9_linear)"/>
<path d="M162.787 132.048C162.787 134.156 161.06 135.881 158.949 135.881H140.261C138.15 135.881 136.423 134.156 136.423 132.048V114.951C136.423 112.843 138.15 111.118 140.261 111.118H158.949C161.06 111.118 162.787 112.843 162.787 114.951V132.048Z" fill="url(#paint10_linear)"/>
<path d="M248.632 120.702C248.632 121.354 246.905 121.89 244.794 121.89H171.306C169.196 121.89 167.469 121.354 167.469 120.702C167.469 120.05 169.196 119.514 171.306 119.514H244.794C246.905 119.475 248.632 120.012 248.632 120.702Z" fill="#D1D3D4"/>
<path d="M248.632 113.265C248.632 113.917 246.905 114.454 244.794 114.454H170.846C168.735 114.454 167.008 113.917 167.008 113.265C167.008 112.614 168.735 112.077 170.846 112.077H244.794C246.905 112.077 248.632 112.614 248.632 113.265Z" fill="#D1D3D4"/>
<path d="M248.632 133.811C248.632 134.463 246.905 135 244.794 135H170.385C168.275 135 166.548 134.463 166.548 133.811C166.548 133.16 168.275 132.623 170.385 132.623H244.794C246.905 132.623 248.632 133.16 248.632 133.811Z" fill="#D1D3D4"/>
<path d="M248.517 127.065C248.517 127.717 246.79 128.253 244.679 128.253H171.153C169.042 128.253 167.315 127.717 167.315 127.065C167.315 126.413 169.042 125.877 171.153 125.877H244.679C246.79 125.838 248.517 126.413 248.517 127.065Z" fill="#D1D3D4"/>
<path d="M149.586 105.253C157.004 105.253 163.017 99.2464 163.017 91.8366C163.017 84.4268 157.004 78.4199 149.586 78.4199C142.168 78.4199 136.155 84.4268 136.155 91.8366C136.155 99.2464 142.168 105.253 149.586 105.253Z" fill="white"/>
<path d="M149.471 133.506C154.897 133.506 159.295 129.112 159.295 123.692C159.295 118.272 154.897 113.879 149.471 113.879C144.045 113.879 139.647 118.272 139.647 123.692C139.647 129.112 144.045 133.506 149.471 133.506Z" fill="white"/>
<path d="M245.716 85.4354C245.716 86.0871 243.989 86.6237 241.878 86.6237H175.297C173.187 86.6237 171.46 86.0871 171.46 85.4354C171.46 84.7837 173.187 84.2471 175.297 84.2471H241.878C243.989 84.2471 245.716 84.7837 245.716 85.4354Z" fill="white"/>
<path d="M245.716 97.0497C245.716 97.7013 243.989 98.238 241.878 98.238H175.297C173.187 98.238 171.46 97.7013 171.46 97.0497C171.46 96.398 173.187 95.8613 175.297 95.8613H241.878C243.989 95.8613 245.716 96.398 245.716 97.0497Z" fill="white"/>
<path d="M245.716 91.3768C245.716 92.0285 243.989 92.5651 241.878 92.5651H175.297C173.187 92.5651 171.46 92.0285 171.46 91.3768C171.46 90.7251 173.187 90.1885 175.297 90.1885H241.878C243.989 90.1885 245.716 90.7251 245.716 91.3768Z" fill="white"/>
<g opacity="0.28">
<g opacity="0.28">
<path opacity="0.28" d="M255.463 143.204C255.463 145.312 253.736 147.037 251.625 147.037H133.737C131.627 147.037 129.9 145.312 129.9 143.204V66.1536C129.9 64.0453 131.627 62.3203 133.737 62.3203H251.625C253.736 62.3203 255.463 64.0453 255.463 66.1536V143.204Z" fill="#27AAE1"/>
</g>
<g opacity="0.28">
<path opacity="0.28" d="M255.463 69.5653C255.463 71.6737 253.736 73.3987 251.625 73.3987H133.123C131.013 73.3987 129.286 71.6737 129.286 69.5653V66.1536C129.286 64.0453 131.013 62.3203 133.123 62.3203H251.625C253.736 62.3203 255.463 64.0453 255.463 66.1536V69.5653Z" fill="#27AAE1"/>
</g>
<g opacity="0.28">
<path opacity="0.28" d="M249.016 101.228C249.016 103.337 247.289 105.062 245.178 105.062H170.846C168.735 105.062 167.008 103.337 167.008 101.228V82.5599C167.008 80.4516 168.735 78.7266 170.846 78.7266H245.178C247.289 78.7266 249.016 80.4516 249.016 82.5599V101.228Z" fill="#27AAE1"/>
</g>
<g opacity="0.28">
<path opacity="0.28" d="M162.634 132.01C162.634 134.118 160.907 135.843 158.796 135.843H140.146C138.035 135.843 136.309 134.118 136.309 132.01V114.913C136.309 112.805 138.035 111.08 140.146 111.08H158.796C160.907 111.08 162.634 112.805 162.634 114.913V132.01Z" fill="#27AAE1"/>
</g>
<g opacity="0.28">
<path opacity="0.28" d="M248.363 120.664C248.363 121.316 246.637 121.852 244.526 121.852H171.153C169.042 121.852 167.315 121.316 167.315 120.664C167.315 120.012 169.042 119.476 171.153 119.476H244.526C246.637 119.437 248.363 119.974 248.363 120.664Z" fill="#27AAE1"/>
</g>
<g opacity="0.28">
<path opacity="0.28" d="M248.363 113.227C248.363 113.879 246.636 114.416 244.525 114.416H170.692C168.581 114.416 166.854 113.879 166.854 113.227C166.854 112.576 168.581 112.039 170.692 112.039H244.525C246.636 112.039 248.363 112.576 248.363 113.227Z" fill="#27AAE1"/>
</g>
<g opacity="0.28">
<path opacity="0.28" d="M248.363 133.774C248.363 134.426 246.637 134.963 244.526 134.963H170.232C168.121 134.963 166.395 134.426 166.395 133.774C166.395 133.123 168.121 132.586 170.232 132.586H244.526C246.637 132.586 248.363 133.123 248.363 133.774Z" fill="#27AAE1"/>
</g>
<g opacity="0.28">
<path opacity="0.28" d="M248.248 127.027C248.248 127.679 246.521 128.216 244.411 128.216H171.038C168.927 128.216 167.2 127.679 167.2 127.027C167.2 126.376 168.927 125.839 171.038 125.839H244.449C246.521 125.839 248.248 126.376 248.248 127.027Z" fill="#27AAE1"/>
</g>
<path opacity="0.28" d="M149.432 105.215C156.85 105.215 162.863 99.2083 162.863 91.7985C162.863 84.3887 156.85 78.3818 149.432 78.3818C142.014 78.3818 136.001 84.3887 136.001 91.7985C136.001 99.2083 142.014 105.215 149.432 105.215Z" fill="#27AAE1"/>
<path opacity="0.28" d="M149.356 133.466C154.76 133.466 159.142 129.073 159.142 123.653C159.142 118.233 154.76 113.84 149.356 113.84C143.951 113.84 139.57 118.233 139.57 123.653C139.57 129.073 143.951 133.466 149.356 133.466Z" fill="#27AAE1"/>
<g opacity="0.28">
<path opacity="0.28" d="M245.408 85.3973C245.408 86.049 243.681 86.5856 241.571 86.5856H175.144C173.033 86.5856 171.306 86.049 171.306 85.3973C171.306 84.7457 173.033 84.209 175.144 84.209H241.609C243.681 84.209 245.408 84.7457 245.408 85.3973Z" fill="#27AAE1"/>
</g>
<g opacity="0.28">
<path opacity="0.28" d="M245.408 97.0116C245.408 97.6632 243.681 98.1999 241.571 98.1999H175.144C173.033 98.1999 171.306 97.6632 171.306 97.0116C171.306 96.3599 173.033 95.8232 175.144 95.8232H241.609C243.681 95.8232 245.408 96.3599 245.408 97.0116Z" fill="#27AAE1"/>
</g>
<g opacity="0.28">
<path opacity="0.28" d="M245.408 91.3387C245.408 91.9904 243.681 92.5271 241.571 92.5271H175.144C173.033 92.5271 171.306 91.9904 171.306 91.3387C171.306 90.6871 173.033 90.1504 175.144 90.1504H241.609C243.681 90.1504 245.408 90.6871 245.408 91.3387Z" fill="#27AAE1"/>
</g>
<g opacity="0.28">
<path opacity="0.28" d="M137.153 69.91C138.106 69.91 138.88 69.1377 138.88 68.185C138.88 67.2323 138.106 66.46 137.153 66.46C136.199 66.46 135.426 67.2323 135.426 68.185C135.426 69.1377 136.199 69.91 137.153 69.91Z" fill="#27AAE1"/>
<path opacity="0.28" d="M142.832 69.8719C143.786 69.8719 144.559 69.0996 144.559 68.1469C144.559 67.1942 143.786 66.4219 142.832 66.4219C141.879 66.4219 141.105 67.1942 141.105 68.1469C141.105 69.0996 141.879 69.8719 142.832 69.8719Z" fill="#27AAE1"/>
<path opacity="0.28" d="M148.512 69.8719C149.465 69.8719 150.238 69.0996 150.238 68.1469C150.238 67.1942 149.465 66.4219 148.512 66.4219C147.558 66.4219 146.785 67.1942 146.785 68.1469C146.785 69.0996 147.558 69.8719 148.512 69.8719Z" fill="#27AAE1"/>
</g>
</g>
<path d="M380.757 138.259C380.757 140.367 379.03 142.092 376.92 142.092H229.752C227.641 142.092 225.914 140.367 225.914 138.259V42.0804C225.914 39.9721 227.641 38.2471 229.752 38.2471H376.92C379.03 38.2471 380.757 39.9721 380.757 42.0804V138.259Z" fill="#E1F4FD"/>
<path d="M380.872 47.9837C380.872 50.0921 379.145 51.8171 377.035 51.8171H229.752C227.641 51.8171 225.914 50.0921 225.914 47.9837V42.0804C225.914 39.9721 227.641 38.2471 229.752 38.2471H376.996C379.107 38.2471 380.834 39.9721 380.834 42.0804V47.9837H380.872Z" fill="#7C7D80"/>
<path d="M323.501 80.528C323.501 82.6364 321.774 84.3614 319.664 84.3614H276.147C274.036 84.3614 272.309 82.6364 272.309 80.528V67.763C272.309 65.6547 274.036 63.9297 276.147 63.9297H319.664C321.774 63.9297 323.501 65.6547 323.501 67.763V80.528Z" fill="url(#paint11_linear)"/>
<path d="M374.041 70.37C374.041 70.9834 373.543 71.52 372.89 71.52H328.337C327.684 71.52 327.186 70.9834 327.186 70.37V69.7184C327.186 69.105 327.684 68.5684 328.337 68.5684H372.89C373.543 68.5684 374.041 69.105 374.041 69.7184V70.37Z" fill="#C7C8CA"/>
<path d="M374.234 78.1903C374.234 78.8037 373.735 79.3403 373.082 79.3403H328.567C327.915 79.3403 327.416 78.8037 327.416 78.1903V77.5387C327.416 76.9253 327.915 76.3887 328.567 76.3887H373.121C373.773 76.3887 374.272 76.9253 374.272 77.5387V78.1903H374.234Z" fill="#D1D3D4"/>
<path d="M321.161 70.3319C321.161 70.9453 320.662 71.4819 320.009 71.4819H275.456C274.804 71.4819 274.305 70.9453 274.305 70.3319V69.6803C274.305 69.0286 274.804 68.5303 275.456 68.5303H320.009C320.662 68.5303 321.161 69.0286 321.161 69.6803V70.3319Z" fill="white"/>
<path d="M321.161 77.3085C321.161 77.9602 320.662 78.4585 320.009 78.4585H275.456C274.804 78.4585 274.305 77.9602 274.305 77.3085V76.6568C274.305 76.0052 274.804 75.5068 275.456 75.5068H320.009C320.662 75.5068 321.161 76.0052 321.161 76.6568V77.3085Z" fill="white"/>
<path d="M364.179 99.2353C364.179 99.8486 363.642 100.385 363.028 100.385H234.242C233.628 100.385 233.09 99.8486 233.09 99.2353V98.5836C233.09 97.9703 233.628 97.4336 234.242 97.4336H362.99C363.604 97.4336 364.141 97.9703 364.141 98.5836V99.2353H364.179Z" fill="#D1D3D4"/>
<path d="M364.026 107.323C364.026 107.975 363.488 108.473 362.874 108.473H234.088C233.474 108.473 232.937 107.975 232.937 107.323V106.671C232.937 106.058 233.474 105.521 234.088 105.521H362.836C363.45 105.521 363.987 106.058 363.987 106.671V107.323H364.026Z" fill="#D1D3D4"/>
<path d="M364.026 115.22C364.026 115.833 363.488 116.37 362.874 116.37H234.088C233.474 116.37 232.937 115.833 232.937 115.22V114.568C232.937 113.916 233.474 113.418 234.088 113.418H362.836C363.45 113.418 363.987 113.916 363.987 114.568V115.22H364.026Z" fill="#D1D3D4"/>
<path d="M363.834 123.845C363.834 124.458 363.335 124.995 362.683 124.995H233.934C233.282 124.995 232.783 124.458 232.783 123.845V123.193C232.783 122.58 233.282 122.043 233.934 122.043H362.683C363.335 122.043 363.834 122.58 363.834 123.193V123.845Z" fill="#D1D3D4"/>
<path d="M250.704 90.8021C259.796 90.8021 267.167 83.4394 267.167 74.3571C267.167 65.2748 259.796 57.9121 250.704 57.9121C241.612 57.9121 234.241 65.2748 234.241 74.3571C234.241 83.4394 241.612 90.8021 250.704 90.8021Z" fill="white"/>
<path d="M37.3008 123.04C37.3008 124.075 36.6868 124.343 35.9193 123.615L30.5468 118.248C29.8177 117.52 29.8177 116.293 30.5468 115.526L36.0345 110.045C36.7636 109.316 37.3776 109.546 37.3776 110.62L37.3008 123.04Z" fill="url(#paint12_linear)"/>
<path d="M53.6871 116.714C53.6871 117.788 52.8429 118.631 51.7684 118.631H37.3777C36.3032 118.631 35.459 117.788 35.459 116.714V116.293C35.459 115.219 36.3032 114.376 37.3777 114.376H51.7684C52.8429 114.376 53.6871 115.219 53.6871 116.293V116.714Z" fill="url(#paint13_linear)"/>
<path d="M577.16 116.485C577.16 115.45 577.774 115.182 578.542 115.91L583.914 121.277C584.643 122.005 584.643 123.232 583.914 123.999L578.427 129.48C577.697 130.209 577.083 129.979 577.083 128.905L577.16 116.485Z" fill="url(#paint14_linear)"/>
<path d="M560.736 122.81C560.736 121.737 561.58 120.894 562.655 120.894H577.045C578.12 120.894 578.964 121.737 578.964 122.81V123.232C578.964 124.305 578.12 125.149 577.045 125.149H562.655C561.58 125.149 560.736 124.305 560.736 123.232V122.81Z" fill="url(#paint15_linear)"/>
<path d="M299.632 153.515C298.596 153.515 298.097 152.71 298.558 151.752L306.348 135.46C306.809 134.502 307.538 134.502 307.998 135.46L315.903 152.02C316.364 152.978 315.865 153.745 314.829 153.707L299.632 153.515Z" fill="#A7A9AC"/>
<path d="M307.039 193.574C305.964 193.574 305.12 192.73 305.12 191.657V150.947C305.12 149.874 305.964 149.03 307.039 149.03H308.152C309.226 149.03 310.07 149.874 310.07 150.947V191.657C310.07 192.73 309.226 193.574 308.152 193.574H307.039Z" fill="#A7A9AC"/>
<path d="M301.858 151.79C300.822 151.79 300.323 150.985 300.783 150.027L308.574 133.735C309.034 132.777 309.763 132.777 310.224 133.735L318.129 150.295C318.589 151.254 318.091 152.02 317.054 151.982L301.858 151.79Z" fill="url(#paint16_linear)"/>
<path d="M309.226 191.849C308.151 191.849 307.307 190.967 307.307 189.932V149.222C307.307 148.149 308.151 147.306 309.226 147.306H310.339C311.413 147.306 312.257 148.149 312.257 149.222V189.932C312.257 191.006 311.413 191.849 310.339 191.849H309.226Z" fill="url(#paint17_linear)"/>
<g opacity="0.1">
<path opacity="0.1" d="M82.1997 186.098V208.907C82.1997 210.977 83.0056 212.97 84.5022 214.427C85.9605 215.883 87.956 216.727 90.0282 216.727H112.861C113.897 216.727 114.895 216.535 115.855 216.152C116.814 215.768 117.658 215.193 118.387 214.465C119.116 213.737 119.692 212.893 120.076 211.935C120.46 210.977 120.651 209.98 120.651 208.945V208.523L130.744 207.872C130.898 207.872 131.051 207.795 131.166 207.718C131.281 207.603 131.396 207.488 131.435 207.335C131.473 207.182 131.473 207.028 131.435 206.875C131.396 206.722 131.281 206.607 131.166 206.492L120.651 198.365V186.06C120.651 185.025 120.46 184.028 120.076 183.07C119.692 182.112 119.116 181.268 118.387 180.54C117.658 179.812 116.814 179.237 115.855 178.853C114.895 178.47 113.897 178.278 112.861 178.278H90.0282C88.9921 178.278 87.9943 178.47 87.035 178.853C86.0756 179.237 85.2313 179.812 84.5022 180.54C83.7731 181.268 83.1975 182.112 82.8137 183.07C82.3916 184.028 82.1997 185.063 82.1997 186.098Z" fill="#010101"/>
<path opacity="0.1" d="M101.886 193.075C101.541 192.654 101.157 192.27 100.773 191.925C100.006 191.274 99.085 190.814 98.0872 190.66C97.0895 190.469 96.0534 190.545 95.094 190.89C94.1346 191.235 93.2904 191.81 92.638 192.577C91.9856 193.344 91.5251 194.264 91.3716 195.26C91.103 196.755 91.4484 198.289 92.2926 199.554C93.1752 200.934 94.2497 202.199 95.4777 203.272C97.3965 204.959 99.4687 206.454 101.694 207.719C101.733 207.757 101.81 207.757 101.848 207.795C101.886 207.795 101.963 207.795 102.001 207.757C104.726 206.224 107.259 204.307 109.485 202.084C110.521 201.049 111.365 199.822 111.979 198.519C112.324 197.752 112.478 196.909 112.439 196.027C112.401 195.184 112.171 194.34 111.787 193.612C111.403 192.845 110.828 192.194 110.137 191.695C109.446 191.197 108.679 190.852 107.834 190.699C106.76 190.469 105.609 190.545 104.573 190.929C103.536 191.312 102.654 192.04 102.001 192.922L101.886 193.075Z" fill="#010101"/>
</g>
<path d="M87.6489 181.536V204.383C87.6489 206.453 88.4548 208.446 89.9514 209.903C91.4097 211.36 93.4052 212.203 95.4774 212.203H118.311C119.347 212.203 120.344 212.011 121.304 211.628C122.263 211.245 123.107 210.67 123.837 209.941C124.566 209.213 125.141 208.37 125.525 207.411C125.909 206.453 126.101 205.456 126.101 204.421V204L136.193 203.348C136.347 203.348 136.5 203.271 136.615 203.195C136.731 203.08 136.846 202.965 136.884 202.811C136.922 202.658 136.922 202.505 136.884 202.351C136.846 202.198 136.731 202.083 136.615 201.968L126.101 193.88V181.575C126.101 180.54 125.909 179.543 125.525 178.585C125.141 177.626 124.566 176.783 123.837 176.055C123.107 175.326 122.263 174.751 121.304 174.368C120.344 173.985 119.347 173.793 118.311 173.793H95.4774C94.4413 173.793 93.4436 173.985 92.4842 174.368C91.5248 174.751 90.6806 175.326 89.9514 176.055C89.2223 176.783 88.6467 177.626 88.2629 178.585C87.8408 179.505 87.6489 180.54 87.6489 181.536Z" fill="url(#paint18_linear)"/>
<path d="M107.297 188.551C106.952 188.129 106.568 187.746 106.184 187.401C105.417 186.749 104.496 186.289 103.498 186.136C102.5 185.944 101.464 186.021 100.505 186.366C99.5453 186.711 98.701 187.286 98.0486 188.053C97.3963 188.819 96.9358 189.739 96.7823 190.736C96.5136 192.231 96.859 193.764 97.7033 195.029C98.5859 196.409 99.6604 197.674 100.888 198.748C102.807 200.434 104.879 201.929 107.105 203.194C107.144 203.233 107.22 203.233 107.259 203.271C107.297 203.271 107.374 203.271 107.412 203.233C110.137 201.699 112.67 199.783 114.895 197.559C115.931 196.524 116.776 195.298 117.39 193.994C117.735 193.228 117.889 192.384 117.85 191.503C117.812 190.659 117.582 189.816 117.198 189.088C116.814 188.321 116.238 187.669 115.548 187.171C114.857 186.673 114.089 186.328 113.245 186.174C112.171 185.944 111.019 186.021 109.983 186.404C108.947 186.788 108.065 187.516 107.412 188.398L107.297 188.551Z" fill="white"/>
<g opacity="0.1">
<path opacity="0.1" d="M422.509 29.1232V44.3416C422.509 45.7216 421.972 47.0249 420.974 48.0216C420.015 48.9799 418.672 49.5549 417.29 49.5549H402.055C401.364 49.5549 400.712 49.4016 400.06 49.1716C399.446 48.9032 398.87 48.5199 398.371 48.0599C397.872 47.5616 397.489 46.9866 397.258 46.3732C396.99 45.7599 396.875 45.0699 396.875 44.3799V44.1116L390.159 43.6899C390.044 43.6899 389.967 43.6516 389.89 43.5749C389.814 43.4982 389.737 43.4216 389.737 43.3066C389.698 43.1916 389.698 43.1149 389.737 42.9999C389.775 42.8849 389.814 42.8082 389.929 42.7699L396.951 37.3649V29.1232C396.951 28.4332 397.105 27.7816 397.335 27.1299C397.604 26.5166 397.987 25.9416 398.448 25.4432C398.947 24.9449 399.522 24.5616 400.136 24.3316C400.75 24.0632 401.441 23.9482 402.132 23.9482H417.367C418.058 23.9482 418.71 24.1016 419.362 24.3316C419.976 24.5999 420.552 24.9832 421.051 25.4432C421.55 25.9416 421.933 26.5166 422.164 27.1299C422.356 27.7816 422.509 28.4332 422.509 29.1232Z" fill="#010101"/>
<path opacity="0.1" d="M409.385 33.8003C409.615 33.5319 409.845 33.2636 410.114 33.0336C410.613 32.6119 411.265 32.3053 411.918 32.1903C412.57 32.0753 413.261 32.1136 413.913 32.3436C414.565 32.5736 415.103 32.9569 415.563 33.4553C415.985 33.9536 416.292 34.6053 416.407 35.2569C416.561 36.2536 416.369 37.2886 415.793 38.1319C415.218 39.0519 414.489 39.8953 413.683 40.6236C412.416 41.7353 411.035 42.7319 409.538 43.5753C409.5 43.6136 409.462 43.6136 409.423 43.6136C409.385 43.6136 409.346 43.6136 409.308 43.5753C407.466 42.5403 405.816 41.2753 404.319 39.7803C403.629 39.0903 403.053 38.2853 402.669 37.4036C402.439 36.8669 402.324 36.3303 402.362 35.7553C402.401 35.1803 402.516 34.6436 402.784 34.1453C403.053 33.6469 403.437 33.2253 403.859 32.8803C404.319 32.5353 404.857 32.3053 405.394 32.1903C406.123 32.0369 406.852 32.0753 407.543 32.3436C408.234 32.6119 408.809 33.0719 409.231 33.6853L409.385 33.8003Z" fill="#010101"/>
</g>
<path d="M417.75 25.175V40.3933C417.75 41.7733 417.213 43.0767 416.215 44.0733C415.256 45.0317 413.913 45.6067 412.531 45.6067H397.335C396.644 45.6067 395.992 45.4533 395.339 45.2233C394.725 44.955 394.15 44.5717 393.651 44.1117C393.152 43.6133 392.768 43.0383 392.538 42.425C392.269 41.8117 392.154 41.1217 392.154 40.4317V40.1633L385.439 39.7417C385.324 39.7417 385.247 39.7033 385.17 39.6267C385.093 39.55 385.017 39.4733 385.017 39.3583C384.978 39.2433 384.978 39.1667 385.017 39.0517C385.055 38.9367 385.093 38.86 385.208 38.8217L392.231 33.4167V25.175C392.231 24.485 392.385 23.8333 392.615 23.1817C392.883 22.5683 393.267 21.9933 393.728 21.495C394.227 20.9967 394.802 20.6133 395.416 20.3833C396.03 20.115 396.721 20 397.412 20H412.647C413.337 20 413.99 20.1533 414.642 20.3833C415.256 20.6517 415.832 21.035 416.331 21.495C416.829 21.9933 417.213 22.5683 417.443 23.1817C417.597 23.8333 417.75 24.485 417.75 25.175Z" fill="url(#paint19_linear)"/>
<path d="M404.626 29.813C404.856 29.5446 405.087 29.2763 405.355 29.0463C405.854 28.6246 406.506 28.318 407.159 28.203C407.811 28.088 408.502 28.1263 409.154 28.3563C409.807 28.5863 410.344 28.9696 410.804 29.468C411.227 29.9663 411.534 30.618 411.649 31.2696C411.802 32.2663 411.61 33.3013 411.035 34.1446C410.459 35.0646 409.73 35.908 408.924 36.6363C407.658 37.748 406.276 38.7446 404.78 39.588C404.741 39.6263 404.703 39.6263 404.664 39.6263C404.626 39.6263 404.588 39.6263 404.549 39.588C402.707 38.553 401.057 37.288 399.561 35.793C398.87 35.103 398.294 34.298 397.91 33.4163C397.68 32.8796 397.565 32.343 397.603 31.768C397.642 31.193 397.757 30.6563 398.026 30.158C398.294 29.6596 398.678 29.238 399.1 28.893C399.561 28.548 400.098 28.318 400.635 28.203C401.364 28.0496 402.093 28.088 402.784 28.3563C403.475 28.6246 404.05 29.0846 404.473 29.698L404.626 29.813Z" fill="white"/>
<path d="M380.066 22.5687C380.258 22.3387 380.45 22.147 380.68 21.9553C381.103 21.6103 381.601 21.3803 382.139 21.2653C382.676 21.1503 383.213 21.227 383.75 21.3803C384.249 21.572 384.71 21.8787 385.094 22.3003C385.439 22.722 385.669 23.2203 385.784 23.757C385.938 24.562 385.746 25.4053 385.285 26.0953C384.825 26.862 384.249 27.5137 383.559 28.0887C382.522 29.0087 381.41 29.8137 380.22 30.5037C380.182 30.5037 380.182 30.542 380.143 30.542C380.105 30.542 380.066 30.542 380.066 30.5037C378.57 29.6603 377.227 28.6253 376.037 27.437C375.461 26.862 375.039 26.2103 374.694 25.5203C374.502 25.0987 374.425 24.6387 374.464 24.1787C374.464 23.7187 374.617 23.2587 374.809 22.8753C375.039 22.4537 375.308 22.1087 375.692 21.8403C376.075 21.572 376.498 21.3803 376.92 21.3037C377.495 21.1887 378.109 21.227 378.685 21.4187C379.261 21.6103 379.721 21.9937 380.066 22.492V22.5687Z" fill="url(#paint20_linear)"/>
<path d="M429.57 48.4818C429.762 48.2518 429.954 48.0601 430.184 47.8684C430.606 47.5234 431.105 47.2934 431.642 47.1784C432.179 47.0634 432.717 47.1401 433.254 47.2934C433.753 47.4851 434.213 47.7918 434.597 48.2134C434.942 48.6351 435.173 49.1334 435.288 49.6701C435.441 50.4751 435.249 51.3184 434.789 52.0084C434.328 52.7751 433.753 53.4268 433.062 54.0018C432.026 54.9218 430.913 55.7268 429.723 56.4168C429.685 56.4168 429.685 56.4551 429.647 56.4551C429.608 56.4551 429.57 56.4551 429.57 56.4168C428.073 55.5734 426.73 54.5384 425.54 53.3501C424.965 52.7751 424.543 52.1234 424.197 51.4334C424.005 51.0118 423.929 50.5518 423.967 50.0918C423.967 49.6318 424.121 49.1718 424.312 48.7884C424.543 48.3668 424.811 48.0218 425.195 47.7534C425.579 47.4851 426.001 47.2934 426.423 47.2168C426.999 47.1018 427.613 47.1401 428.188 47.3318C428.764 47.5618 429.224 47.9068 429.57 48.4051V48.4818Z" fill="url(#paint21_linear)"/>
<path d="M123.338 225.62C123.645 225.237 123.99 224.892 124.335 224.547C125.026 223.934 125.909 223.55 126.791 223.359C127.712 223.205 128.633 223.282 129.516 223.589C130.399 223.895 131.166 224.432 131.78 225.16C132.394 225.85 132.778 226.732 132.97 227.652C133.2 229.032 132.893 230.45 132.125 231.6C131.32 232.865 130.36 234.015 129.209 235.012C127.444 236.584 125.525 237.925 123.491 239.075C123.453 239.114 123.414 239.114 123.338 239.114C123.299 239.114 123.222 239.114 123.184 239.075C120.651 237.657 118.349 235.894 116.315 233.862C115.356 232.904 114.588 231.792 114.012 230.565C113.705 229.837 113.552 229.07 113.59 228.304C113.629 227.537 113.821 226.77 114.204 226.08C114.588 225.39 115.087 224.777 115.701 224.317C116.315 223.857 117.044 223.55 117.812 223.397C118.809 223.167 119.845 223.244 120.805 223.627C121.764 224.01 122.57 224.624 123.146 225.467L123.338 225.62Z" fill="url(#paint22_linear)"/>
<path d="M142.295 170.535C142.563 170.228 142.794 169.96 143.101 169.692C143.676 169.232 144.329 168.887 145.058 168.772C145.787 168.657 146.516 168.695 147.207 168.925C147.898 169.155 148.512 169.577 148.972 170.152C149.433 170.727 149.778 171.378 149.893 172.107C150.085 173.18 149.855 174.292 149.241 175.212C148.627 176.208 147.821 177.128 146.938 177.895C145.557 179.122 144.06 180.195 142.448 181.115C142.41 181.153 142.372 181.153 142.333 181.153C142.295 181.153 142.256 181.153 142.218 181.115C140.223 180.003 138.419 178.623 136.807 177.013C136.04 176.247 135.464 175.403 135.004 174.407C134.773 173.832 134.658 173.218 134.658 172.605C134.697 171.992 134.85 171.378 135.119 170.842C135.387 170.305 135.809 169.845 136.308 169.462C136.807 169.078 137.383 168.848 137.958 168.733C138.726 168.542 139.57 168.618 140.299 168.887C141.028 169.193 141.681 169.692 142.141 170.343L142.295 170.535Z" fill="url(#paint23_linear)"/>
<path d="M72.4909 176.285C72.6828 176.055 72.913 175.825 73.1433 175.595C73.6038 175.212 74.141 174.943 74.755 174.828C75.3307 174.713 75.9447 174.752 76.5203 174.982C77.0959 175.173 77.5948 175.518 77.9785 175.978C78.3623 176.438 78.6309 176.975 78.746 177.588C78.8995 178.47 78.7076 179.39 78.2088 180.157C77.7099 181 77.0575 181.728 76.3284 182.38C75.1772 183.377 73.9492 184.258 72.6444 185.025C72.606 185.063 72.606 185.063 72.5677 185.063C72.5293 185.063 72.4909 185.063 72.4909 185.025C70.8792 184.105 69.3825 182.955 68.0394 181.652C67.4254 181.038 66.9265 180.31 66.5812 179.543C66.3893 179.083 66.2742 178.585 66.3125 178.087C66.3509 177.588 66.466 177.09 66.6963 176.63C66.9265 176.17 67.2719 175.787 67.6557 175.48C68.0778 175.173 68.5383 174.982 69.0372 174.867C69.6895 174.713 70.3419 174.79 70.9559 175.02C71.5699 175.25 72.1072 175.672 72.4909 176.208V176.285Z" fill="url(#paint24_linear)"/>
<path d="M478.69 201.509H139.801V206.875H478.69V201.509Z" fill="#7C7D80"/>
<path d="M380.795 45.3379H225.875V52.1996H380.795V45.3379Z" fill="#7C7D80"/>
<path d="M236.083 47.2928C237.249 47.2928 238.194 46.3489 238.194 45.1845C238.194 44.0201 237.249 43.0762 236.083 43.0762C234.918 43.0762 233.973 44.0201 233.973 45.1845C233.973 46.3489 234.918 47.2928 236.083 47.2928Z" fill="white"/>
<path d="M243.106 47.2548C244.272 47.2548 245.217 46.3108 245.217 45.1464C245.217 43.982 244.272 43.0381 243.106 43.0381C241.941 43.0381 240.996 43.982 240.996 45.1464C240.996 46.3108 241.941 47.2548 243.106 47.2548Z" fill="white"/>
<path d="M250.052 47.2548C251.217 47.2548 252.162 46.3108 252.162 45.1464C252.162 43.982 251.217 43.0381 250.052 43.0381C248.886 43.0381 247.941 43.982 247.941 45.1464C247.941 46.3108 248.886 47.2548 250.052 47.2548Z" fill="white"/>
<path d="M246.751 237.426V235.049L254.465 231.408L246.751 227.728V225.428L256.959 230.411V232.404L246.751 237.426Z" fill="#F1F2F2" stroke="#F1F2F2" stroke-width="0.5" stroke-miterlimit="10"/>
<path d="M267.128 222.055L269.009 222.898L259.991 243.713L258.11 242.87L267.128 222.055Z" fill="#F1F2F2" stroke="#F1F2F2" stroke-width="0.5" stroke-miterlimit="10"/>
<path d="M277.912 222.055L279.792 222.898L270.774 243.713L268.894 242.87L277.912 222.055Z" fill="#F1F2F2" stroke="#F1F2F2" stroke-width="0.5" stroke-miterlimit="10"/>
<path d="M279.907 240.685H291.688V242.831H279.907V240.685Z" fill="#F1F2F2" stroke="#F1F2F2" stroke-width="0.5" stroke-miterlimit="10"/>
<path d="M291.688 240.685H303.47V242.831H291.688V240.685Z" fill="#F1F2F2" stroke="#F1F2F2" stroke-width="0.5" stroke-miterlimit="10"/>
<path d="M303.47 240.685H315.251V242.831H303.47V240.685Z" fill="#F1F2F2" stroke="#F1F2F2" stroke-width="0.5" stroke-miterlimit="10"/>
<path d="M315.251 240.685H327.032V242.831H315.251V240.685Z" fill="#F1F2F2" stroke="#F1F2F2" stroke-width="0.5" stroke-miterlimit="10"/>
<path d="M327.032 233.363H331.56V235.357H327.032V233.363Z" fill="#F1F2F2" stroke="#F1F2F2" stroke-width="0.5" stroke-miterlimit="10"/>
<path d="M331.599 233.363H336.127V235.357H331.599V233.363Z" fill="#F1F2F2" stroke="#F1F2F2" stroke-width="0.5" stroke-miterlimit="10"/>
<path d="M336.127 233.363H340.655V235.357H336.127V233.363Z" fill="#F1F2F2" stroke="#F1F2F2" stroke-width="0.5" stroke-miterlimit="10"/>
<path d="M340.655 240.685H352.436V242.831H340.655V240.685Z" fill="#F1F2F2" stroke="#F1F2F2" stroke-width="0.5" stroke-miterlimit="10"/>
<path d="M352.475 240.685H364.256V242.831H352.475V240.685Z" fill="#F1F2F2" stroke="#F1F2F2" stroke-width="0.5" stroke-miterlimit="10"/>
<path d="M364.256 240.685H376.037V242.831H364.256V240.685Z" fill="#F1F2F2" stroke="#F1F2F2" stroke-width="0.5" stroke-miterlimit="10"/>
<path d="M376.037 240.685H387.818V242.831H376.037V240.685Z" fill="#F1F2F2" stroke="#F1F2F2" stroke-width="0.5" stroke-miterlimit="10"/>
<path d="M390.696 231.14H388.202L392.193 223.627H395.301L399.292 231.14H396.798L393.766 225.505L390.696 231.14Z" fill="#F1F2F2" stroke="#F1F2F2" stroke-width="0.5" stroke-miterlimit="10"/>
<path d="M399.638 240.685H411.419V242.831H399.638V240.685Z" fill="#F1F2F2" stroke="#F1F2F2" stroke-width="0.5" stroke-miterlimit="10"/>
<path d="M411.418 240.685H423.2V242.831H411.418V240.685Z" fill="#F1F2F2" stroke="#F1F2F2" stroke-width="0.5" stroke-miterlimit="10"/>
<path d="M423.2 240.685H434.981V242.831H423.2V240.685Z" fill="#F1F2F2" stroke="#F1F2F2" stroke-width="0.5" stroke-miterlimit="10"/>
<path d="M450.254 222.055L452.134 222.898L443.116 243.713L441.236 242.87L450.254 222.055Z" fill="#F1F2F2" stroke="#F1F2F2" stroke-width="0.5" stroke-miterlimit="10"/>
<path d="M461.076 222.055L462.956 222.898L453.938 243.713L452.058 242.87L461.076 222.055Z" fill="#F1F2F2" stroke="#F1F2F2" stroke-width="0.5" stroke-miterlimit="10"/>
</g>
<defs>
<filter id="filter0_d" x="-30" y="-19" width="674" height="474" filterUnits="userSpaceOnUse" color-interpolation-filters="sRGB">
<feFlood flood-opacity="0" result="BackgroundImageFix"/>
<feColorMatrix in="SourceAlpha" type="matrix" values="0 0 0 0 0 0 0 0 0 0 0 0 0 0 0 0 0 0 127 0" result="hardAlpha"/>
<feOffset dy="10"/>
<feGaussianBlur stdDeviation="15"/>
<feColorMatrix type="matrix" values="0 0 0 0 0 0 0 0 0 0 0 0 0 0 0 0 0 0 0.25 0"/>
<feBlend mode="normal" in2="BackgroundImageFix" result="effect1_dropShadow"/>
<feBlend mode="normal" in="SourceGraphic" in2="effect1_dropShadow" result="shape"/>
</filter>
<linearGradient id="paint0_linear" x1="481.04" y1="104.426" x2="547.584" y2="104.426" gradientUnits="userSpaceOnUse">
<stop stop-color="#7DD3F7"/>
<stop offset="1" stop-color="#43B5E8"/>
</linearGradient>
<linearGradient id="paint1_linear" x1="401.408" y1="122.605" x2="437.349" y2="122.605" gradientUnits="userSpaceOnUse">
<stop stop-color="#7DD3F7"/>
<stop offset="1" stop-color="#43B5E8"/>
</linearGradient>
<linearGradient id="paint2_linear" x1="442.585" y1="122.605" x2="478.526" y2="122.605" gradientUnits="userSpaceOnUse">
<stop stop-color="#7DD3F7"/>
<stop offset="1" stop-color="#43B5E8"/>
</linearGradient>
<linearGradient id="paint3_linear" x1="97.5812" y1="103.278" x2="169.952" y2="103.278" gradientUnits="userSpaceOnUse">
<stop stop-color="#7DD3F7"/>
<stop offset="1" stop-color="#43B5E8"/>
</linearGradient>
<linearGradient id="paint4_linear" x1="240.981" y1="231.66" x2="470.293" y2="231.66" gradientUnits="userSpaceOnUse">
<stop stop-color="#7DD3F7"/>
<stop offset="1" stop-color="#43B5E8"/>
</linearGradient>
<linearGradient id="paint5_linear" x1="241.129" y1="278.165" x2="473.536" y2="278.165" gradientUnits="userSpaceOnUse">
<stop stop-color="#7DD3F7"/>
<stop offset="1" stop-color="#43B5E8"/>
</linearGradient>
<linearGradient id="paint6_linear" x1="151.098" y1="345.916" x2="379.353" y2="345.916" gradientUnits="userSpaceOnUse">
<stop stop-color="#7DD3F7"/>
<stop offset="1" stop-color="#43B5E8"/>
</linearGradient>
<linearGradient id="paint7_linear" x1="150.852" y1="254.943" x2="237.739" y2="254.943" gradientUnits="userSpaceOnUse">
<stop stop-color="#7DD3F7"/>
<stop offset="1" stop-color="#43B5E8"/>
</linearGradient>
<linearGradient id="paint8_linear" x1="383.694" y1="345.82" x2="472.121" y2="345.82" gradientUnits="userSpaceOnUse">
<stop stop-color="#7DD3F7"/>
<stop offset="1" stop-color="#43B5E8"/>
</linearGradient>
<linearGradient id="paint9_linear" x1="167.14" y1="91.9173" x2="249.29" y2="91.9173" gradientUnits="userSpaceOnUse">
<stop stop-color="#7DD3F7"/>
<stop offset="1" stop-color="#43B5E8"/>
</linearGradient>
<linearGradient id="paint10_linear" x1="136.422" y1="123.507" x2="162.772" y2="123.507" gradientUnits="userSpaceOnUse">
<stop stop-color="#7DD3F7"/>
<stop offset="1" stop-color="#43B5E8"/>
</linearGradient>
<linearGradient id="paint11_linear" x1="272.292" y1="74.1309" x2="323.49" y2="74.1309" gradientUnits="userSpaceOnUse">
<stop stop-color="#7DD3F7"/>
<stop offset="1" stop-color="#43B5E8"/>
</linearGradient>
<linearGradient id="paint12_linear" x1="29.981" y1="116.803" x2="37.3728" y2="116.803" gradientUnits="userSpaceOnUse">
<stop stop-color="#71459B"/>
<stop offset="0.8668" stop-color="#A76CAD"/>
</linearGradient>
<linearGradient id="paint13_linear" x1="35.4541" y1="116.502" x2="53.6995" y2="116.502" gradientUnits="userSpaceOnUse">
<stop stop-color="#71459B"/>
<stop offset="0.8668" stop-color="#A76CAD"/>
</linearGradient>
<linearGradient id="paint14_linear" x1="577.064" y1="122.728" x2="584.455" y2="122.728" gradientUnits="userSpaceOnUse">
<stop stop-color="#71459B"/>
<stop offset="0.8668" stop-color="#A76CAD"/>
</linearGradient>
<linearGradient id="paint15_linear" x1="560.737" y1="123.029" x2="578.982" y2="123.029" gradientUnits="userSpaceOnUse">
<stop stop-color="#71459B"/>
<stop offset="0.8668" stop-color="#A76CAD"/>
</linearGradient>
<linearGradient id="paint16_linear" x1="300.578" y1="142.52" x2="318.271" y2="142.52" gradientUnits="userSpaceOnUse">
<stop stop-color="#71459B"/>
<stop offset="0.8668" stop-color="#A76CAD"/>
</linearGradient>
<linearGradient id="paint17_linear" x1="307.293" y1="169.59" x2="312.258" y2="169.59" gradientUnits="userSpaceOnUse">
<stop stop-color="#71459B"/>
<stop offset="0.8668" stop-color="#A76CAD"/>
</linearGradient>
<linearGradient id="paint18_linear" x1="136.901" y1="192.96" x2="87.6454" y2="192.96" gradientUnits="userSpaceOnUse">
<stop stop-color="#7DD3F7"/>
<stop offset="1" stop-color="#43B5E8"/>
</linearGradient>
<linearGradient id="paint19_linear" x1="384.916" y1="32.7792" x2="417.751" y2="32.7792" gradientUnits="userSpaceOnUse">
<stop stop-color="#7DD3F7"/>
<stop offset="1" stop-color="#43B5E8"/>
</linearGradient>
<linearGradient id="paint20_linear" x1="374.394" y1="25.8459" x2="385.789" y2="25.8459" gradientUnits="userSpaceOnUse">
<stop stop-color="#71459B"/>
<stop offset="0.8668" stop-color="#A76CAD"/>
</linearGradient>
<linearGradient id="paint21_linear" x1="423.892" y1="51.753" x2="435.288" y2="51.753" gradientUnits="userSpaceOnUse">
<stop stop-color="#71459B"/>
<stop offset="0.8668" stop-color="#A76CAD"/>
</linearGradient>
<linearGradient id="paint22_linear" x1="113.649" y1="231.224" x2="133.065" y2="231.224" gradientUnits="userSpaceOnUse">
<stop stop-color="#71459B"/>
<stop offset="0.8668" stop-color="#A76CAD"/>
</linearGradient>
<linearGradient id="paint23_linear" x1="134.672" y1="174.943" x2="149.962" y2="174.943" gradientUnits="userSpaceOnUse">
<stop stop-color="#71459B"/>
<stop offset="0.8668" stop-color="#A76CAD"/>
</linearGradient>
<linearGradient id="paint24_linear" x1="66.2355" y1="179.895" x2="78.7764" y2="179.895" gradientUnits="userSpaceOnUse">
<stop stop-color="#71459B"/>
<stop offset="0.8668" stop-color="#A76CAD"/>
</linearGradient>
</defs>
</svg>
