<svg width="717" height="502" viewBox="0 0 717 502" fill="none" xmlns="http://www.w3.org/2000/svg">
<g filter="url(#filter0_d)">
<path d="M645.581 169.53C645.581 171.995 643.565 174.012 641.1 174.012H530.144C527.68 174.012 525.663 171.995 525.663 169.53V97.9161C525.663 95.4512 527.68 93.4346 530.144 93.4346H641.1C643.565 93.4346 645.581 95.4512 645.581 97.9161V169.53Z" fill="#E1F4FD"/>
<path d="M645.671 99.4846C645.671 101.949 643.655 103.966 641.19 103.966H530.055C527.59 103.966 525.574 101.949 525.574 99.4846V97.9161C525.574 95.4512 527.59 93.4346 530.055 93.4346H641.19C643.655 93.4346 645.671 95.4512 645.671 97.9161V99.4846Z" fill="#7C7D80"/>
<path d="M639.397 123.909C639.397 126.373 637.381 128.39 634.916 128.39H566.174C563.709 128.39 561.692 126.373 561.692 123.909V117.5C561.692 115.035 563.709 113.019 566.174 113.019H634.916C637.381 113.019 639.397 115.035 639.397 117.5V123.909Z" fill="url(#paint0_linear)"/>
<path d="M634.737 136.188C634.737 136.815 632.72 137.308 630.256 137.308H567.563C565.098 137.308 563.082 136.815 563.082 136.188C563.082 135.56 565.098 135.067 567.563 135.067H630.256C632.72 135.067 634.737 135.605 634.737 136.188Z" fill="#D1D3D4"/>
<path d="M634.558 142.059C634.558 142.686 632.541 143.179 630.077 143.179H567.384C564.919 143.179 562.903 142.686 562.903 142.059C562.903 141.431 564.919 140.938 567.384 140.938H630.077C632.541 140.938 634.558 141.431 634.558 142.059Z" fill="#D1D3D4"/>
<path d="M634.737 148.287C634.737 148.915 632.72 149.408 630.256 149.408H567.563C565.098 149.408 563.082 148.915 563.082 148.287C563.082 147.66 565.098 147.167 567.563 147.167H630.256C632.72 147.167 634.737 147.66 634.737 148.287Z" fill="#D1D3D4"/>
<path d="M628.239 154.024C628.239 154.651 626.223 155.144 623.758 155.144H567.608C565.144 155.144 563.127 154.651 563.127 154.024C563.127 153.396 565.144 152.903 567.608 152.903H623.758C626.223 152.903 628.239 153.396 628.239 154.024Z" fill="#D1D3D4"/>
<path d="M628.508 160.343C628.508 160.97 626.491 161.463 624.027 161.463H567.877C565.412 161.463 563.396 160.97 563.396 160.343C563.396 159.716 565.412 159.223 567.877 159.223H624.027C626.491 159.223 628.508 159.716 628.508 160.343Z" fill="#D1D3D4"/>
<path d="M544.798 134.216C551.852 134.216 557.57 128.498 557.57 121.444C557.57 114.39 551.852 108.672 544.798 108.672C537.745 108.672 532.027 114.39 532.027 121.444C532.027 128.498 537.745 134.216 544.798 134.216Z" fill="white"/>
<path d="M635.633 118.082C635.633 118.71 633.617 119.247 631.152 119.247H570.655C568.19 119.247 566.174 118.754 566.174 118.082C566.174 117.455 568.19 116.917 570.655 116.917H631.152C633.617 116.962 635.633 117.455 635.633 118.082Z" fill="white"/>
<path d="M635.633 123.236C635.633 123.864 633.617 124.402 631.152 124.402H570.655C568.19 124.402 566.174 123.909 566.174 123.236C566.174 122.609 568.19 122.071 570.655 122.071H631.152C633.617 122.071 635.633 122.609 635.633 123.236Z" fill="white"/>
<path d="M533.55 100.381C534.466 100.381 535.208 99.6384 535.208 98.7226C535.208 97.8068 534.466 97.0645 533.55 97.0645C532.634 97.0645 531.892 97.8068 531.892 98.7226C531.892 99.6384 532.634 100.381 533.55 100.381Z" fill="white"/>
<path d="M539.017 100.336C539.933 100.336 540.675 99.5934 540.675 98.6777C540.675 97.7619 539.933 97.0195 539.017 97.0195C538.102 97.0195 537.359 97.7619 537.359 98.6777C537.359 99.5934 538.102 100.336 539.017 100.336Z" fill="white"/>
<path d="M544.395 100.336C545.311 100.336 546.053 99.5934 546.053 98.6777C546.053 97.7619 545.311 97.0195 544.395 97.0195C543.479 97.0195 542.737 97.7619 542.737 98.6777C542.737 99.5934 543.479 100.336 544.395 100.336Z" fill="white"/>
<path d="M204.985 171.458C204.985 173.922 202.968 175.939 200.504 175.939H80.6751C78.2104 175.939 76.1938 173.922 76.1938 171.458V93.9727C76.1938 91.5079 78.2104 89.4912 80.6751 89.4912H200.549C203.013 89.4912 205.03 91.5079 205.03 93.9727V171.458H204.985Z" fill="#E1F4FD"/>
<path d="M205.03 96.3031C205.03 98.7679 203.013 100.785 200.549 100.785H80.6751C78.2104 100.785 76.1938 98.7679 76.1938 96.3031V93.9727C76.1938 91.5079 78.2104 89.4912 80.6751 89.4912H200.549C203.013 89.4912 205.03 91.5079 205.03 93.9727V96.3031Z" fill="#7C7D80"/>
<path d="M198.442 126.15C198.442 128.615 196.426 130.632 193.961 130.632H118.407C115.942 130.632 113.926 128.615 113.926 126.15V112.571C113.926 110.107 115.942 108.09 118.407 108.09H193.961C196.426 108.09 198.442 110.107 198.442 112.571V126.15Z" fill="url(#paint1_linear)"/>
<path d="M197.86 143C197.86 143.672 195.843 144.21 193.378 144.21H87.6209C85.1562 144.21 83.1396 143.672 83.1396 143C83.1396 142.328 85.1562 141.79 87.6209 141.79H193.378C195.843 141.79 197.86 142.328 197.86 143Z" fill="#D1D3D4"/>
<path d="M197.77 149.005C197.77 149.678 195.754 150.215 193.289 150.215H88.2933C85.8286 150.215 83.812 149.678 83.812 149.005C83.812 148.333 85.8286 147.795 88.2933 147.795H193.289C195.754 147.751 197.77 148.333 197.77 149.005Z" fill="#D1D3D4"/>
<path d="M197.68 155.503C197.68 156.176 195.664 156.713 193.199 156.713H88.0691C85.6045 156.713 83.5879 156.176 83.5879 155.503C83.5879 154.831 85.6045 154.293 88.0691 154.293H193.199C195.664 154.249 197.68 154.831 197.68 155.503Z" fill="#D1D3D4"/>
<path d="M197.68 162.002C197.68 162.674 195.664 163.212 193.199 163.212H88.0691C85.6045 163.212 83.5879 162.674 83.5879 162.002C83.5879 161.33 85.6045 160.792 88.0691 160.792H193.199C195.664 160.792 197.68 161.33 197.68 162.002Z" fill="#D1D3D4"/>
<path d="M96.7629 133.275C104.336 133.275 110.476 127.136 110.476 119.562C110.476 111.988 104.336 105.849 96.7629 105.849C89.1896 105.849 83.0503 111.988 83.0503 119.562C83.0503 127.136 89.1896 133.275 96.7629 133.275Z" fill="white"/>
<path d="M124.457 127.539C128.961 127.539 132.613 123.887 132.613 119.383C132.613 114.878 128.961 111.227 124.457 111.227C119.952 111.227 116.301 114.878 116.301 119.383C116.301 123.887 119.952 127.539 124.457 127.539Z" fill="white"/>
<path d="M195.395 115.663C195.395 116.335 193.378 116.873 190.914 116.873H140.455C137.99 116.873 135.974 116.335 135.974 115.663C135.974 114.991 137.99 114.453 140.455 114.453H190.869C193.378 114.453 195.395 114.991 195.395 115.663Z" fill="white"/>
<path d="M195.306 122.072C195.306 122.744 193.289 123.282 190.825 123.282H140.41C137.946 123.282 135.929 122.744 135.929 122.072C135.929 121.4 137.946 120.862 140.41 120.862H190.825C193.289 120.817 195.306 121.4 195.306 122.072Z" fill="white"/>
<path d="M84.798 96.8413C85.7632 96.8413 86.5457 96.0588 86.5457 95.0935C86.5457 94.1282 85.7632 93.3457 84.798 93.3457C83.8328 93.3457 83.0503 94.1282 83.0503 95.0935C83.0503 96.0588 83.8328 96.8413 84.798 96.8413Z" fill="white"/>
<path d="M90.6237 96.7963C91.5889 96.7963 92.3713 96.0138 92.3713 95.0486C92.3713 94.0833 91.5889 93.3008 90.6237 93.3008C89.6584 93.3008 88.876 94.0833 88.876 95.0486C88.876 96.0138 89.6584 96.7963 90.6237 96.7963Z" fill="white"/>
<path d="M96.4044 96.7963C97.3697 96.7963 98.1521 96.0138 98.1521 95.0486C98.1521 94.0833 97.3697 93.3008 96.4044 93.3008C95.4392 93.3008 94.6567 94.0833 94.6567 95.0486C94.6567 96.0138 95.4392 96.7963 96.4044 96.7963Z" fill="white"/>
<path d="M558.645 457.421C558.645 459.885 556.628 461.902 554.164 461.902H167.79C165.326 461.902 163.309 459.885 163.309 457.421V223.039C163.309 220.574 165.326 218.558 167.79 218.558H554.209C556.673 218.558 558.69 220.574 558.69 223.039V457.421H558.645Z" fill="#E1F4FD"/>
<path d="M559.138 235.318C559.138 237.783 557.121 239.8 554.657 239.8H167.79C165.326 239.8 163.309 237.783 163.309 235.318V222.994C163.309 220.529 165.326 218.513 167.79 218.513H554.657C557.121 218.513 559.138 220.529 559.138 222.994V235.318Z" fill="#7C7D80"/>
<path d="M549.145 287.662C549.145 290.127 547.129 292.144 544.664 292.144H285.872C283.407 292.144 281.391 290.127 281.391 287.662V251.228C281.391 248.763 283.407 246.746 285.872 246.746H544.709C547.174 246.746 549.19 248.763 549.19 251.228V287.662H549.145Z" fill="url(#paint2_linear)"/>
<path d="M552.954 342.022C552.954 344.487 550.938 346.504 548.473 346.504H286.006C283.541 346.504 281.525 344.487 281.525 342.022V305.588C281.525 303.123 283.541 301.106 286.006 301.106H548.428C550.893 301.106 552.909 303.123 552.909 305.588V342.022H552.954Z" fill="url(#paint3_linear)"/>
<path d="M442.939 448.099C442.939 450.564 440.923 452.581 438.458 452.581H180.876C178.411 452.581 176.395 450.564 176.395 448.099V357.977C176.395 355.512 178.411 353.495 180.876 353.495H438.458C440.923 353.495 442.939 355.512 442.939 357.977V448.099Z" fill="url(#paint4_linear)"/>
<path d="M277.581 343.143C277.581 345.608 275.565 347.625 273.1 347.625H180.607C178.143 347.625 176.126 345.608 176.126 343.143V250.197C176.126 247.732 178.143 245.716 180.607 245.716H273.1C275.565 245.716 277.581 247.732 277.581 250.197V343.143Z" fill="url(#paint5_linear)"/>
<path d="M551.296 446.979C551.296 449.444 549.279 451.461 546.815 451.461H452.529C450.064 451.461 448.048 449.444 448.048 446.979V358.873C448.048 356.408 450.064 354.392 452.529 354.392H546.815C549.279 354.392 551.296 356.408 551.296 358.873V446.979Z" fill="url(#paint6_linear)"/>
<path d="M268.843 441.511C268.843 443.976 266.826 445.993 264.362 445.993H185.761C183.296 445.993 181.279 443.976 181.279 441.511V364.52C181.279 362.055 183.296 360.038 185.761 360.038H264.362C266.826 360.038 268.843 362.055 268.843 364.52V441.511Z" fill="white"/>
<path d="M314.776 394.814C314.776 397.279 312.759 399.296 310.294 399.296H279.598C277.133 399.296 275.117 397.279 275.117 394.814V364.833C275.117 362.368 277.133 360.352 279.598 360.352H310.294C312.759 360.352 314.776 362.368 314.776 364.833V394.814Z" fill="white"/>
<path d="M314.462 440.301C314.462 442.766 312.445 444.783 309.981 444.783H279.284C276.819 444.783 274.803 442.766 274.803 440.301V410.32C274.803 407.856 276.819 405.839 279.284 405.839H309.981C312.445 405.839 314.462 407.856 314.462 410.32V440.301Z" fill="white"/>
<path d="M362.008 394.501C362.008 396.966 359.991 398.982 357.526 398.982H326.83C324.365 398.982 322.349 396.966 322.349 394.501V364.52C322.349 362.055 324.365 360.038 326.83 360.038H357.526C359.991 360.038 362.008 362.055 362.008 364.52V394.501Z" fill="white"/>
<path d="M437.069 394.501C437.069 396.966 435.052 398.982 432.587 398.982H370.881C368.416 398.982 366.399 396.966 366.399 394.501V364.52C366.399 362.055 368.416 360.038 370.881 360.038H432.587C435.052 360.038 437.069 362.055 437.069 364.52V394.501Z" fill="white"/>
<path d="M437.069 439.988C437.069 442.453 435.052 444.469 432.587 444.469H370.881C368.416 444.469 366.399 442.453 366.399 439.988V410.007C366.399 407.542 368.416 405.525 370.881 405.525H432.587C435.052 405.525 437.069 407.542 437.069 410.007V439.988Z" fill="white"/>
<path d="M362.008 439.675C362.008 442.139 359.991 444.156 357.526 444.156H326.83C324.365 444.156 322.349 442.139 322.349 439.675V409.693C322.349 407.229 324.365 405.212 326.83 405.212H357.526C359.991 405.212 362.008 407.229 362.008 409.693V439.675Z" fill="white"/>
<path d="M263.286 317.195C263.286 319.077 261.27 320.646 258.805 320.646H197.546C195.082 320.646 193.065 319.077 193.065 317.195C193.065 315.313 195.082 313.744 197.546 313.744H258.805C261.27 313.744 263.286 315.268 263.286 317.195Z" fill="white"/>
<path d="M541.572 309.442C541.572 310.697 540.586 311.683 539.331 311.683H287.754C286.499 311.683 285.513 310.697 285.513 309.442V309.397C285.513 308.142 286.499 307.156 287.754 307.156H539.331C540.586 307.156 541.572 308.187 541.572 309.442Z" fill="white"/>
<path d="M541.572 320.871C541.572 322.125 540.586 323.111 539.331 323.111H287.754C286.499 323.111 285.513 322.125 285.513 320.871V320.826C285.513 319.571 286.499 318.585 287.754 318.585H539.331C540.586 318.585 541.572 319.616 541.572 320.871Z" fill="white"/>
<path d="M510.113 333.687C510.113 334.942 509.127 335.928 507.873 335.928H288.067C286.813 335.928 285.827 334.942 285.827 333.687V333.642C285.827 332.387 286.813 331.401 288.067 331.401H507.873C509.083 331.446 510.113 332.432 510.113 333.687Z" fill="white"/>
<path d="M540.989 362.144C540.989 363.399 540.003 364.385 538.749 364.385H460.775C459.52 364.385 458.534 363.399 458.534 362.144V362.099C458.534 360.844 459.52 359.858 460.775 359.858H538.749C540.003 359.858 540.989 360.844 540.989 362.144Z" fill="white"/>
<path d="M540.676 371.107C540.676 372.362 539.69 373.348 538.435 373.348H460.461C459.207 373.348 458.221 372.362 458.221 371.107V371.062C458.221 369.807 459.207 368.821 460.461 368.821H538.435C539.69 368.821 540.676 369.852 540.676 371.107Z" fill="white"/>
<path d="M540.676 380.518C540.676 381.773 539.69 382.759 538.435 382.759H460.461C459.207 382.759 458.221 381.773 458.221 380.518V380.473C458.221 379.218 459.207 378.232 460.461 378.232H538.435C539.69 378.232 540.676 379.263 540.676 380.518Z" fill="white"/>
<path d="M541.303 399.968C541.303 401.223 540.317 402.209 539.063 402.209H461.089C459.834 402.209 458.848 401.223 458.848 399.968V399.923C458.848 398.669 459.834 397.683 461.089 397.683H539.063C540.317 397.683 541.303 398.669 541.303 399.968Z" fill="white"/>
<path d="M541.482 408.931C541.482 410.186 540.496 411.172 539.241 411.172H461.267C460.013 411.172 459.027 410.186 459.027 408.931V408.886C459.027 407.631 460.013 406.646 461.267 406.646H539.241C540.451 406.646 541.482 407.676 541.482 408.931Z" fill="white"/>
<path d="M541.482 418.656C541.482 419.91 540.496 420.896 539.241 420.896H461.267C460.013 420.896 459.027 419.91 459.027 418.656V418.611C459.027 417.356 460.013 416.37 461.267 416.37H539.241C540.451 416.37 541.482 417.356 541.482 418.656Z" fill="white"/>
<path d="M541.482 435.148C541.482 436.403 540.496 437.389 539.241 437.389H461.267C460.013 437.389 459.027 436.403 459.027 435.148V435.103C459.027 433.848 460.013 432.862 461.267 432.862H539.241C540.451 432.907 541.482 433.893 541.482 435.148Z" fill="white"/>
<path d="M541.482 443.707C541.482 444.962 540.496 445.948 539.241 445.948H461.267C460.013 445.948 459.027 444.962 459.027 443.707V443.663C459.027 442.408 460.013 441.422 461.267 441.422H539.241C540.451 441.422 541.482 442.453 541.482 443.707Z" fill="white"/>
<path d="M263.286 328.847C263.286 330.729 261.27 332.298 258.805 332.298H197.546C195.082 332.298 193.065 330.729 193.065 328.847C193.065 326.965 195.082 325.396 197.546 325.396H258.805C261.27 325.396 263.286 326.965 263.286 328.847Z" fill="white"/>
<path d="M225.464 307.649C240.809 307.649 253.248 295.21 253.248 279.864C253.248 264.519 240.809 252.079 225.464 252.079C210.12 252.079 197.681 264.519 197.681 279.864C197.681 295.21 210.12 307.649 225.464 307.649Z" fill="white"/>
<path d="M187.374 234.153C190.121 234.153 192.348 231.926 192.348 229.179C192.348 226.431 190.121 224.204 187.374 224.204C184.626 224.204 182.399 226.431 182.399 229.179C182.399 231.926 184.626 234.153 187.374 234.153Z" fill="white"/>
<path d="M203.775 234.018C206.522 234.018 208.749 231.791 208.749 229.044C208.749 226.296 206.522 224.069 203.775 224.069C201.028 224.069 198.801 226.296 198.801 229.044C198.801 231.791 201.028 234.018 203.775 234.018Z" fill="white"/>
<path d="M220.086 234.018C222.834 234.018 225.061 231.791 225.061 229.044C225.061 226.296 222.834 224.069 220.086 224.069C217.339 224.069 215.112 226.296 215.112 229.044C215.112 231.791 217.339 234.018 220.086 234.018Z" fill="white"/>
<g opacity="0.66">
<g opacity="0.66">
<path opacity="0.66" d="M645.581 168.723C645.581 171.188 643.565 173.205 641.1 173.205H530.144C527.68 173.205 525.663 171.188 525.663 168.723V97.1094C525.663 94.6446 527.68 92.6279 530.144 92.6279H641.1C643.565 92.6279 645.581 94.6446 645.581 97.1094V168.723Z" fill="#27AAE1"/>
</g>
<g opacity="0.66">
<path opacity="0.66" d="M645.671 98.6779C645.671 101.143 643.655 103.159 641.19 103.159H530.055C527.59 103.159 525.574 101.143 525.574 98.6779V97.1094C525.574 94.6446 527.59 92.6279 530.055 92.6279H641.19C643.655 92.6279 645.671 94.6446 645.671 97.1094V98.6779Z" fill="#27AAE1"/>
</g>
<g opacity="0.66">
<path opacity="0.66" d="M639.397 123.102C639.397 125.567 637.381 127.583 634.916 127.583H566.174C563.709 127.583 561.692 125.567 561.692 123.102V116.693C561.692 114.229 563.709 112.212 566.174 112.212H634.916C637.381 112.212 639.397 114.229 639.397 116.693V123.102Z" fill="#27AAE1"/>
</g>
<g opacity="0.66">
<path opacity="0.66" d="M634.737 135.426C634.737 136.053 632.72 136.546 630.256 136.546H567.563C565.098 136.546 563.082 136.053 563.082 135.426C563.082 134.799 565.098 134.306 567.563 134.306H630.256C632.72 134.306 634.737 134.799 634.737 135.426Z" fill="#27AAE1"/>
</g>
<g opacity="0.66">
<path opacity="0.66" d="M634.558 141.252C634.558 141.88 632.541 142.373 630.077 142.373H567.384C564.919 142.373 562.903 141.88 562.903 141.252C562.903 140.625 564.919 140.132 567.384 140.132H630.077C632.541 140.132 634.558 140.625 634.558 141.252Z" fill="#27AAE1"/>
</g>
<g opacity="0.66">
<path opacity="0.66" d="M634.737 147.481C634.737 148.108 632.72 148.601 630.256 148.601H567.563C565.098 148.601 563.082 148.108 563.082 147.481C563.082 146.853 565.098 146.36 567.563 146.36H630.256C632.72 146.36 634.737 146.853 634.737 147.481Z" fill="#27AAE1"/>
</g>
<g opacity="0.66">
<path opacity="0.66" d="M628.239 153.217C628.239 153.844 626.223 154.337 623.758 154.337H567.608C565.144 154.337 563.127 153.844 563.127 153.217C563.127 152.59 565.144 152.097 567.608 152.097H623.758C626.223 152.097 628.239 152.59 628.239 153.217Z" fill="#27AAE1"/>
</g>
<g opacity="0.66">
<path opacity="0.66" d="M628.508 159.536C628.508 160.164 626.491 160.657 624.027 160.657H567.877C565.412 160.657 563.396 160.164 563.396 159.536C563.396 158.909 565.412 158.416 567.877 158.416H624.027C626.491 158.416 628.508 158.909 628.508 159.536Z" fill="#27AAE1"/>
</g>
<path opacity="0.66" d="M544.798 133.41C551.852 133.41 557.57 127.691 557.57 120.637C557.57 113.584 551.852 107.865 544.798 107.865C537.745 107.865 532.027 113.584 532.027 120.637C532.027 127.691 537.745 133.41 544.798 133.41Z" fill="#27AAE1"/>
<g opacity="0.66">
<path opacity="0.66" d="M635.633 117.32C635.633 117.948 633.617 118.486 631.152 118.486H570.655C568.19 118.486 566.174 117.993 566.174 117.32C566.174 116.693 568.19 116.155 570.655 116.155H631.152C633.617 116.155 635.633 116.693 635.633 117.32Z" fill="#27AAE1"/>
</g>
<g opacity="0.66">
<path opacity="0.66" d="M635.633 122.43C635.633 123.057 633.617 123.595 631.152 123.595H570.655C568.19 123.595 566.174 123.102 566.174 122.43C566.174 121.802 568.19 121.265 570.655 121.265H631.152C633.617 121.265 635.633 121.802 635.633 122.43Z" fill="#27AAE1"/>
</g>
<g opacity="0.66">
<path opacity="0.66" d="M533.55 99.5741C534.466 99.5741 535.208 98.8317 535.208 97.916C535.208 97.0002 534.466 96.2578 533.55 96.2578C532.634 96.2578 531.892 97.0002 531.892 97.916C531.892 98.8317 532.634 99.5741 533.55 99.5741Z" fill="#27AAE1"/>
<path opacity="0.66" d="M539.017 99.5741C539.933 99.5741 540.675 98.8317 540.675 97.916C540.675 97.0002 539.933 96.2578 539.017 96.2578C538.102 96.2578 537.359 97.0002 537.359 97.916C537.359 98.8317 538.102 99.5741 539.017 99.5741Z" fill="#27AAE1"/>
<path opacity="0.66" d="M544.395 99.5741C545.311 99.5741 546.053 98.8317 546.053 97.916C546.053 97.0002 545.311 96.2578 544.395 96.2578C543.479 96.2578 542.737 97.0002 542.737 97.916C542.737 98.8317 543.479 99.5741 544.395 99.5741Z" fill="#27AAE1"/>
</g>
</g>
<g opacity="0.6">
<g opacity="0.6">
<path opacity="0.6" d="M204.985 170.651C204.985 173.116 202.968 175.132 200.504 175.132H80.6751C78.2104 175.132 76.1938 173.116 76.1938 170.651V93.1661C76.1938 90.7012 78.2104 88.6846 80.6751 88.6846H200.549C203.013 88.6846 205.03 90.7012 205.03 93.1661V170.651H204.985Z" fill="#27AAE1"/>
</g>
<g opacity="0.6">
<path opacity="0.6" d="M205.03 95.4964C205.03 97.9612 203.013 99.9779 200.549 99.9779H80.6751C78.2104 99.9779 76.1938 97.9612 76.1938 95.4964V93.1661C76.1938 90.7012 78.2104 88.6846 80.6751 88.6846H200.549C203.013 88.6846 205.03 90.7012 205.03 93.1661V95.4964Z" fill="#27AAE1"/>
</g>
<g opacity="0.6">
<path opacity="0.6" d="M198.442 125.344C198.442 127.808 196.426 129.825 193.961 129.825H118.407C115.942 129.825 113.926 127.808 113.926 125.344V111.765C113.926 109.3 115.942 107.283 118.407 107.283H193.961C196.426 107.283 198.442 109.3 198.442 111.765V125.344Z" fill="#27AAE1"/>
</g>
<g opacity="0.6">
<path opacity="0.6" d="M197.86 142.193C197.86 142.866 195.843 143.403 193.378 143.403H87.6209C85.1562 143.403 83.1396 142.866 83.1396 142.193C83.1396 141.521 85.1562 140.983 87.6209 140.983H193.378C195.843 140.983 197.86 141.521 197.86 142.193Z" fill="#27AAE1"/>
</g>
<g opacity="0.6">
<path opacity="0.6" d="M197.77 148.199C197.77 148.871 195.754 149.409 193.289 149.409H88.2933C85.8286 149.409 83.812 148.871 83.812 148.199C83.812 147.527 85.8286 146.989 88.2933 146.989H193.289C195.754 146.944 197.77 147.527 197.77 148.199Z" fill="#27AAE1"/>
</g>
<g opacity="0.6">
<path opacity="0.6" d="M197.68 154.697C197.68 155.369 195.664 155.907 193.199 155.907H88.0691C85.6045 155.907 83.5879 155.369 83.5879 154.697C83.5879 154.025 85.6045 153.487 88.0691 153.487H193.199C195.664 153.442 197.68 154.025 197.68 154.697Z" fill="#27AAE1"/>
</g>
<g opacity="0.6">
<path opacity="0.6" d="M197.68 161.24C197.68 161.912 195.664 162.45 193.199 162.45H88.0691C85.6045 162.45 83.5879 161.912 83.5879 161.24C83.5879 160.568 85.6045 160.03 88.0691 160.03H193.199C195.664 159.985 197.68 160.523 197.68 161.24Z" fill="#27AAE1"/>
</g>
<path opacity="0.6" d="M96.7629 132.469C104.336 132.469 110.476 126.329 110.476 118.755C110.476 111.182 104.336 105.042 96.7629 105.042C89.1896 105.042 83.0503 111.182 83.0503 118.755C83.0503 126.329 89.1896 132.469 96.7629 132.469Z" fill="#27AAE1"/>
<path opacity="0.6" d="M124.457 126.777C128.961 126.777 132.613 123.126 132.613 118.621C132.613 114.117 128.961 110.465 124.457 110.465C119.952 110.465 116.301 114.117 116.301 118.621C116.301 123.126 119.952 126.777 124.457 126.777Z" fill="#27AAE1"/>
<g opacity="0.6">
<path opacity="0.6" d="M195.395 114.856C195.395 115.529 193.378 116.066 190.914 116.066H140.455C137.99 116.066 135.974 115.529 135.974 114.856C135.974 114.184 137.99 113.646 140.455 113.646H190.869C193.378 113.646 195.395 114.184 195.395 114.856Z" fill="#27AAE1"/>
</g>
<g opacity="0.6">
<path opacity="0.6" d="M195.306 121.265C195.306 121.937 193.289 122.475 190.825 122.475H140.41C137.946 122.475 135.929 121.937 135.929 121.265C135.929 120.592 137.946 120.055 140.41 120.055H190.825C193.289 120.055 195.306 120.592 195.306 121.265Z" fill="#27AAE1"/>
</g>
<g opacity="0.6">
<path opacity="0.6" d="M84.798 96.0795C85.7632 96.0795 86.5457 95.297 86.5457 94.3318C86.5457 93.3665 85.7632 92.584 84.798 92.584C83.8328 92.584 83.0503 93.3665 83.0503 94.3318C83.0503 95.297 83.8328 96.0795 84.798 96.0795Z" fill="#27AAE1"/>
<path opacity="0.6" d="M90.6237 96.0346C91.5889 96.0346 92.3713 95.2521 92.3713 94.2868C92.3713 93.3216 91.5889 92.5391 90.6237 92.5391C89.6584 92.5391 88.876 93.3216 88.876 94.2868C88.876 95.2521 89.6584 96.0346 90.6237 96.0346Z" fill="#27AAE1"/>
<path opacity="0.6" d="M96.4044 96.0346C97.3697 96.0346 98.1521 95.2521 98.1521 94.2868C98.1521 93.3216 97.3697 92.5391 96.4044 92.5391C95.4392 92.5391 94.6567 93.3216 94.6567 94.2868C94.6567 95.2521 95.4392 96.0346 96.4044 96.0346Z" fill="#27AAE1"/>
</g>
</g>
<path d="M566.577 164.825C566.577 167.289 564.56 169.306 562.096 169.306H423.177C420.712 169.306 418.696 167.289 418.696 164.825V74.2539C418.696 71.7891 420.712 69.7725 423.177 69.7725H562.096C564.56 69.7725 566.577 71.7891 566.577 74.2539V164.825Z" fill="#E1F4FD"/>
<path d="M567.07 78.2873C567.07 80.7521 565.053 82.7688 562.589 82.7688H423.177C420.712 82.7688 418.696 80.7521 418.696 78.2873V74.2539C418.696 71.7891 420.712 69.7725 423.177 69.7725H562.589C565.053 69.7725 567.07 71.7891 567.07 74.2539V78.2873Z" fill="#7C7D80"/>
<path d="M510.696 158.326C510.696 160.791 508.679 162.807 506.215 162.807H473.188C470.723 162.807 468.707 160.791 468.707 158.326V125.522C468.707 123.057 470.723 121.04 473.188 121.04H506.215C508.679 121.04 510.696 123.057 510.696 125.522V158.326Z" fill="url(#paint7_linear)"/>
<path d="M558.78 158.326C558.78 160.791 556.763 162.807 554.299 162.807H521.272C518.807 162.807 516.791 160.791 516.791 158.326V125.522C516.791 123.057 518.807 121.04 521.272 121.04H554.299C556.763 121.04 558.78 123.057 558.78 125.522V158.326Z" fill="url(#paint8_linear)"/>
<path d="M561.289 95.9888C561.289 96.7506 559.272 97.4228 556.808 97.4228H469.737C467.272 97.4228 465.256 96.7954 465.256 95.9888C465.256 95.2269 467.272 94.5547 469.737 94.5547H556.808C559.272 94.5995 561.289 95.2269 561.289 95.9888Z" fill="#D1D3D4"/>
<path d="M561.423 104.728C561.423 105.49 559.407 106.162 556.942 106.162H469.871C467.407 106.162 465.39 105.535 465.39 104.728C465.39 103.921 467.407 103.294 469.871 103.294H556.942C559.407 103.339 561.423 103.966 561.423 104.728Z" fill="#D1D3D4"/>
<path d="M561.423 112.884C561.423 113.646 559.407 114.318 556.942 114.318H469.871C467.407 114.318 465.39 113.691 465.39 112.884C465.39 112.078 467.407 111.45 469.871 111.45H556.942C559.407 111.45 561.423 112.078 561.423 112.884Z" fill="#D1D3D4"/>
<path d="M507.828 151.022C507.828 151.784 505.811 152.456 503.347 152.456H476.414C473.95 152.456 471.933 151.829 471.933 151.022C471.933 150.215 473.95 149.588 476.414 149.588H503.347C505.811 149.633 507.828 150.26 507.828 151.022Z" fill="white"/>
<path d="M555.956 151.246C555.956 152.007 553.94 152.68 551.475 152.68H524.543C522.078 152.68 520.062 152.052 520.062 151.246C520.062 150.439 522.078 149.812 524.543 149.812H551.475C553.94 149.812 555.956 150.439 555.956 151.246Z" fill="white"/>
<path d="M555.956 157.027C555.956 157.789 553.94 158.461 551.475 158.461H524.543C522.078 158.461 520.062 157.834 520.062 157.027C520.062 156.22 522.078 155.593 524.543 155.593H551.475C553.94 155.638 555.956 156.265 555.956 157.027Z" fill="white"/>
<path d="M507.828 156.848C507.828 157.61 505.811 158.282 503.347 158.282H476.414C473.95 158.282 471.933 157.655 471.933 156.848C471.933 156.041 473.95 155.414 476.414 155.414H503.347C505.811 155.414 507.828 156.041 507.828 156.848Z" fill="white"/>
<path d="M442.446 120.144C451.158 120.144 458.22 113.082 458.22 104.37C458.22 95.6574 451.158 88.5947 442.446 88.5947C433.735 88.5947 426.672 95.6574 426.672 104.37C426.672 113.082 433.735 120.144 442.446 120.144Z" fill="white"/>
<path d="M489.007 146.719C494.6 146.719 499.134 142.185 499.134 136.591C499.134 130.997 494.6 126.463 489.007 126.463C483.413 126.463 478.879 130.997 478.879 136.591C478.879 142.185 483.413 146.719 489.007 146.719Z" fill="white"/>
<path d="M537.808 147.257C543.673 147.257 548.428 142.502 548.428 136.636C548.428 130.77 543.673 126.015 537.808 126.015C531.942 126.015 527.187 130.77 527.187 136.636C527.187 142.502 531.942 147.257 537.808 147.257Z" fill="white"/>
<path d="M426.448 78.1974C427.562 78.1974 428.465 77.2945 428.465 76.1807C428.465 75.067 427.562 74.1641 426.448 74.1641C425.334 74.1641 424.432 75.067 424.432 76.1807C424.432 77.2945 425.334 78.1974 426.448 78.1974Z" fill="white"/>
<path d="M433.17 78.1525C434.284 78.1525 435.187 77.2496 435.187 76.1358C435.187 75.022 434.284 74.1191 433.17 74.1191C432.056 74.1191 431.153 75.022 431.153 76.1358C431.153 77.2496 432.056 78.1525 433.17 78.1525Z" fill="white"/>
<path d="M439.847 78.1525C440.961 78.1525 441.864 77.2496 441.864 76.1358C441.864 75.022 440.961 74.1191 439.847 74.1191C438.733 74.1191 437.831 75.022 437.831 76.1358C437.831 77.2496 438.733 78.1525 439.847 78.1525Z" fill="white"/>
<path d="M298.643 166.08C298.643 168.545 296.626 170.561 294.162 170.561H156.229C153.764 170.561 151.748 168.545 151.748 166.08V76.002C151.748 73.5372 153.764 71.5205 156.229 71.5205H294.117C296.582 71.5205 298.598 73.5372 298.598 76.002V166.08H298.643Z" fill="#E1F4FD"/>
<path d="M298.643 79.9905C298.643 82.4553 296.627 84.472 294.162 84.472H155.512C153.047 84.472 151.031 82.4553 151.031 79.9905V76.002C151.031 73.5372 153.047 71.5205 155.512 71.5205H294.162C296.627 71.5205 298.643 73.5372 298.643 76.002V79.9905Z" fill="#7C7D80"/>
<path d="M291.07 117.007C291.07 119.472 289.053 121.489 286.589 121.489H199.608C197.143 121.489 195.126 119.472 195.126 117.007V95.1827C195.126 92.7178 197.143 90.7012 199.608 90.7012H286.589C289.053 90.7012 291.07 92.7178 291.07 95.1827V117.007Z" fill="url(#paint9_linear)"/>
<path d="M190.063 152.993C190.063 155.458 188.046 157.475 185.581 157.475H163.758C161.293 157.475 159.276 155.458 159.276 152.993V133.006C159.276 130.541 161.293 128.524 163.758 128.524H185.581C188.046 128.524 190.063 130.541 190.063 133.006V152.993Z" fill="url(#paint10_linear)"/>
<path d="M290.308 139.728C290.308 140.49 288.292 141.118 285.827 141.118H200.011C197.546 141.118 195.53 140.49 195.53 139.728C195.53 138.967 197.546 138.339 200.011 138.339H285.827C288.292 138.294 290.308 138.922 290.308 139.728Z" fill="#D1D3D4"/>
<path d="M290.308 131.035C290.308 131.797 288.291 132.424 285.827 132.424H199.473C197.008 132.424 194.992 131.797 194.992 131.035C194.992 130.273 197.008 129.646 199.473 129.646H285.827C288.291 129.646 290.308 130.273 290.308 131.035Z" fill="#D1D3D4"/>
<path d="M290.308 155.055C290.308 155.817 288.291 156.445 285.827 156.445H198.935C196.471 156.445 194.454 155.817 194.454 155.055C194.454 154.293 196.471 153.666 198.935 153.666H285.827C288.291 153.666 290.308 154.293 290.308 155.055Z" fill="#D1D3D4"/>
<path d="M290.174 147.168C290.174 147.93 288.157 148.557 285.693 148.557H199.832C197.367 148.557 195.351 147.93 195.351 147.168C195.351 146.406 197.367 145.778 199.832 145.778H285.693C288.157 145.734 290.174 146.406 290.174 147.168Z" fill="#D1D3D4"/>
<path d="M174.647 121.668C183.309 121.668 190.331 114.646 190.331 105.983C190.331 97.3203 183.309 90.2979 174.647 90.2979C165.985 90.2979 158.962 97.3203 158.962 105.983C158.962 114.646 165.985 121.668 174.647 121.668Z" fill="white"/>
<path d="M174.513 154.696C180.848 154.696 185.985 149.56 185.985 143.224C185.985 136.887 180.848 131.751 174.513 131.751C168.177 131.751 163.041 136.887 163.041 143.224C163.041 149.56 168.177 154.696 174.513 154.696Z" fill="white"/>
<path d="M286.902 98.4996C286.902 99.2615 284.886 99.8889 282.421 99.8889H204.671C202.207 99.8889 200.19 99.2615 200.19 98.4996C200.19 97.7378 202.207 97.1104 204.671 97.1104H282.421C284.886 97.1104 286.902 97.7378 286.902 98.4996Z" fill="white"/>
<path d="M286.902 112.078C286.902 112.84 284.886 113.467 282.421 113.467H204.671C202.207 113.467 200.19 112.84 200.19 112.078C200.19 111.316 202.207 110.688 204.671 110.688H282.421C284.886 110.688 286.902 111.316 286.902 112.078Z" fill="white"/>
<path d="M286.902 105.446C286.902 106.208 284.886 106.835 282.421 106.835H204.671C202.207 106.835 200.19 106.208 200.19 105.446C200.19 104.684 202.207 104.057 204.671 104.057H282.421C284.886 104.057 286.902 104.684 286.902 105.446Z" fill="white"/>
<path d="M160.217 80.3937C161.331 80.3937 162.234 79.4908 162.234 78.377C162.234 77.2632 161.331 76.3604 160.217 76.3604C159.104 76.3604 158.201 77.2632 158.201 78.377C158.201 79.4908 159.104 80.3937 160.217 80.3937Z" fill="white"/>
<path d="M166.894 80.3488C168.008 80.3488 168.911 79.4459 168.911 78.3321C168.911 77.2183 168.008 76.3154 166.894 76.3154C165.781 76.3154 164.878 77.2183 164.878 78.3321C164.878 79.4459 165.781 80.3488 166.894 80.3488Z" fill="white"/>
<path d="M173.526 80.3488C174.64 80.3488 175.543 79.4459 175.543 78.3321C175.543 77.2183 174.64 76.3154 173.526 76.3154C172.413 76.3154 171.51 77.2183 171.51 78.3321C171.51 79.4459 172.413 80.3488 173.526 80.3488Z" fill="white"/>
<g opacity="0.27">
<g opacity="0.27">
<path opacity="0.27" d="M566.577 164.018C566.577 166.483 564.56 168.499 562.096 168.499H423.177C420.712 168.499 418.696 166.483 418.696 164.018V73.4473C418.696 70.9825 420.712 68.9658 423.177 68.9658H562.096C564.56 68.9658 566.577 70.9825 566.577 73.4473V164.018Z" fill="#27AAE1"/>
</g>
<g opacity="0.27">
<path opacity="0.27" d="M567.07 77.4806C567.07 79.9454 565.053 81.9621 562.589 81.9621H423.177C420.712 81.9621 418.696 79.9454 418.696 77.4806V73.4473C418.696 70.9825 420.712 68.9658 423.177 68.9658H562.589C565.053 68.9658 567.07 70.9825 567.07 73.4473V77.4806Z" fill="#27AAE1"/>
</g>
<g opacity="0.27">
<path opacity="0.27" d="M510.696 157.564C510.696 160.029 508.679 162.046 506.215 162.046H473.188C470.723 162.046 468.707 160.029 468.707 157.564V124.76C468.707 122.295 470.723 120.278 473.188 120.278H506.215C508.679 120.278 510.696 122.295 510.696 124.76V157.564Z" fill="#27AAE1"/>
</g>
<g opacity="0.27">
<path opacity="0.27" d="M558.78 157.564C558.78 160.029 556.763 162.046 554.299 162.046H521.272C518.807 162.046 516.791 160.029 516.791 157.564V124.76C516.791 122.295 518.807 120.278 521.272 120.278H554.299C556.763 120.278 558.78 122.295 558.78 124.76V157.564Z" fill="#27AAE1"/>
</g>
<g opacity="0.27">
<path opacity="0.27" d="M561.289 95.1821C561.289 95.944 559.272 96.6162 556.808 96.6162H469.737C467.272 96.6162 465.256 95.9888 465.256 95.1821C465.256 94.3755 467.272 93.748 469.737 93.748H556.808C559.272 93.7929 561.289 94.4203 561.289 95.1821Z" fill="#27AAE1"/>
</g>
<g opacity="0.27">
<path opacity="0.27" d="M561.423 103.921C561.423 104.683 559.407 105.355 556.942 105.355H469.871C467.407 105.355 465.39 104.728 465.39 103.921C465.39 103.16 467.407 102.487 469.871 102.487H556.942C559.407 102.532 561.423 103.16 561.423 103.921Z" fill="#27AAE1"/>
</g>
<g opacity="0.27">
<path opacity="0.27" d="M561.423 112.078C561.423 112.839 559.407 113.512 556.942 113.512H469.871C467.407 113.512 465.39 112.884 465.39 112.078C465.39 111.271 467.407 110.644 469.871 110.644H556.942C559.407 110.644 561.423 111.316 561.423 112.078Z" fill="#27AAE1"/>
</g>
<g opacity="0.27">
<path opacity="0.27" d="M507.828 150.215C507.828 150.977 505.811 151.649 503.347 151.649H476.414C473.95 151.649 471.933 151.022 471.933 150.215C471.933 149.409 473.95 148.781 476.414 148.781H503.347C505.811 148.826 507.828 149.453 507.828 150.215Z" fill="#27AAE1"/>
</g>
<g opacity="0.27">
<path opacity="0.27" d="M555.956 150.439C555.956 151.201 553.94 151.873 551.475 151.873H524.543C522.078 151.873 520.062 151.246 520.062 150.439C520.062 149.632 522.078 149.005 524.543 149.005H551.475C553.94 149.005 555.956 149.677 555.956 150.439Z" fill="#27AAE1"/>
</g>
<g opacity="0.27">
<path opacity="0.27" d="M555.956 156.265C555.956 157.027 553.94 157.699 551.475 157.699H524.543C522.078 157.699 520.062 157.072 520.062 156.265C520.062 155.458 522.078 154.831 524.543 154.831H551.475C553.94 154.831 555.956 155.458 555.956 156.265Z" fill="#27AAE1"/>
</g>
<g opacity="0.27">
<path opacity="0.27" d="M507.828 156.041C507.828 156.803 505.811 157.476 503.347 157.476H476.414C473.95 157.476 471.933 156.848 471.933 156.041C471.933 155.235 473.95 154.607 476.414 154.607H503.347C505.811 154.607 507.828 155.28 507.828 156.041Z" fill="#27AAE1"/>
</g>
<path opacity="0.27" d="M442.446 119.383C451.158 119.383 458.22 112.32 458.22 103.608C458.22 94.8956 451.158 87.833 442.446 87.833C433.735 87.833 426.672 94.8956 426.672 103.608C426.672 112.32 433.735 119.383 442.446 119.383Z" fill="#27AAE1"/>
<path opacity="0.27" d="M489.007 145.913C494.6 145.913 499.134 141.378 499.134 135.784C499.134 130.191 494.6 125.656 489.007 125.656C483.413 125.656 478.879 130.191 478.879 135.784C478.879 141.378 483.413 145.913 489.007 145.913Z" fill="#27AAE1"/>
<path opacity="0.27" d="M537.808 146.496C543.673 146.496 548.428 141.741 548.428 135.875C548.428 130.009 543.673 125.254 537.808 125.254C531.942 125.254 527.187 130.009 527.187 135.875C527.187 141.741 531.942 146.496 537.808 146.496Z" fill="#27AAE1"/>
<g opacity="0.27">
<path opacity="0.27" d="M426.448 77.3908C427.562 77.3908 428.465 76.4879 428.465 75.3741C428.465 74.2603 427.562 73.3574 426.448 73.3574C425.334 73.3574 424.432 74.2603 424.432 75.3741C424.432 76.4879 425.334 77.3908 426.448 77.3908Z" fill="#27AAE1"/>
<path opacity="0.27" d="M433.17 77.3458C434.284 77.3458 435.187 76.4429 435.187 75.3292C435.187 74.2154 434.284 73.3125 433.17 73.3125C432.056 73.3125 431.153 74.2154 431.153 75.3292C431.153 76.4429 432.056 77.3458 433.17 77.3458Z" fill="#27AAE1"/>
<path opacity="0.27" d="M439.847 77.3458C440.961 77.3458 441.864 76.4429 441.864 75.3292C441.864 74.2154 440.961 73.3125 439.847 73.3125C438.733 73.3125 437.831 74.2154 437.831 75.3292C437.831 76.4429 438.733 77.3458 439.847 77.3458Z" fill="#27AAE1"/>
</g>
</g>
<g opacity="0.28">
<g opacity="0.28">
<path opacity="0.28" d="M298.643 165.273C298.643 167.738 296.626 169.755 294.162 169.755H156.229C153.764 169.755 151.748 167.738 151.748 165.273V75.1953C151.748 72.7305 153.764 70.7139 156.229 70.7139H294.117C296.582 70.7139 298.598 72.7305 298.598 75.1953V165.273H298.643Z" fill="#27AAE1"/>
</g>
<g opacity="0.28">
<path opacity="0.28" d="M298.643 79.1839C298.643 81.6487 296.627 83.6654 294.162 83.6654H155.512C153.047 83.6654 151.031 81.6487 151.031 79.1839V75.1954C151.031 72.7305 153.047 70.7139 155.512 70.7139H294.162C296.627 70.7139 298.643 72.7305 298.643 75.1954V79.1839Z" fill="#27AAE1"/>
</g>
<g opacity="0.28">
<path opacity="0.28" d="M291.07 116.201C291.07 118.666 289.053 120.682 286.589 120.682H199.608C197.143 120.682 195.126 118.666 195.126 116.201V94.376C195.126 91.9112 197.143 89.8945 199.608 89.8945H286.589C289.053 89.8945 291.07 91.9112 291.07 94.376V116.201Z" fill="#27AAE1"/>
</g>
<g opacity="0.28">
<path opacity="0.28" d="M190.063 152.188C190.063 154.653 188.046 156.669 185.581 156.669H163.758C161.293 156.669 159.276 154.653 159.276 152.188V132.245C159.276 129.78 161.293 127.764 163.758 127.764H185.581C188.046 127.764 190.063 129.78 190.063 132.245V152.188Z" fill="#27AAE1"/>
</g>
<g opacity="0.28">
<path opacity="0.28" d="M290.308 138.922C290.308 139.684 288.292 140.312 285.827 140.312H200.011C197.546 140.312 195.53 139.684 195.53 138.922C195.53 138.161 197.546 137.533 200.011 137.533H285.827C288.292 137.533 290.308 138.161 290.308 138.922Z" fill="#27AAE1"/>
</g>
<g opacity="0.28">
<path opacity="0.28" d="M290.308 130.228C290.308 130.99 288.291 131.617 285.827 131.617H199.473C197.008 131.617 194.992 130.99 194.992 130.228C194.992 129.466 197.008 128.839 199.473 128.839H285.827C288.291 128.839 290.308 129.466 290.308 130.228Z" fill="#27AAE1"/>
</g>
<g opacity="0.28">
<path opacity="0.28" d="M290.308 154.249C290.308 155.01 288.291 155.638 285.827 155.638H198.935C196.471 155.638 194.454 155.01 194.454 154.249C194.454 153.487 196.471 152.859 198.935 152.859H285.827C288.291 152.859 290.308 153.487 290.308 154.249Z" fill="#27AAE1"/>
</g>
<g opacity="0.28">
<path opacity="0.28" d="M290.174 146.361C290.174 147.123 288.157 147.75 285.693 147.75H199.832C197.367 147.75 195.351 147.123 195.351 146.361C195.351 145.599 197.367 144.972 199.832 144.972H285.693C288.157 144.972 290.174 145.599 290.174 146.361Z" fill="#27AAE1"/>
</g>
<path opacity="0.28" d="M174.647 120.862C183.309 120.862 190.331 113.839 190.331 105.176C190.331 96.5137 183.309 89.4912 174.647 89.4912C165.985 89.4912 158.962 96.5137 158.962 105.176C158.962 113.839 165.985 120.862 174.647 120.862Z" fill="#27AAE1"/>
<path opacity="0.28" d="M174.513 153.89C180.848 153.89 185.985 148.753 185.985 142.417C185.985 136.081 180.848 130.944 174.513 130.944C168.177 130.944 163.041 136.081 163.041 142.417C163.041 148.753 168.177 153.89 174.513 153.89Z" fill="#27AAE1"/>
<g opacity="0.28">
<path opacity="0.28" d="M286.902 97.693C286.902 98.4548 284.886 99.0822 282.421 99.0822H204.671C202.207 99.0822 200.19 98.4548 200.19 97.693C200.19 96.9311 202.207 96.3037 204.671 96.3037H282.421C284.886 96.3037 286.902 96.9311 286.902 97.693Z" fill="#27AAE1"/>
</g>
<g opacity="0.28">
<path opacity="0.28" d="M286.902 111.316C286.902 112.078 284.886 112.706 282.421 112.706H204.671C202.207 112.706 200.19 112.078 200.19 111.316C200.19 110.554 202.207 109.927 204.671 109.927H282.421C284.886 109.882 286.902 110.51 286.902 111.316Z" fill="#27AAE1"/>
</g>
<g opacity="0.28">
<path opacity="0.28" d="M286.902 104.639C286.902 105.401 284.886 106.029 282.421 106.029H204.671C202.207 106.029 200.19 105.401 200.19 104.639C200.19 103.877 202.207 103.25 204.671 103.25H282.421C284.886 103.25 286.902 103.877 286.902 104.639Z" fill="#27AAE1"/>
</g>
<g opacity="0.28">
<path opacity="0.28" d="M160.217 79.587C161.331 79.587 162.234 78.6841 162.234 77.5704C162.234 76.4566 161.331 75.5537 160.217 75.5537C159.104 75.5537 158.201 76.4566 158.201 77.5704C158.201 78.6841 159.104 79.587 160.217 79.587Z" fill="#27AAE1"/>
<path opacity="0.28" d="M166.894 79.5421C168.008 79.5421 168.911 78.6392 168.911 77.5255C168.911 76.4117 168.008 75.5088 166.894 75.5088C165.781 75.5088 164.878 76.4117 164.878 77.5255C164.878 78.6392 165.781 79.5421 166.894 79.5421Z" fill="#27AAE1"/>
<path opacity="0.28" d="M173.526 79.5421C174.64 79.5421 175.543 78.6392 175.543 77.5255C175.543 76.4117 174.64 75.5088 173.526 75.5088C172.413 75.5088 171.51 76.4117 171.51 77.5255C171.51 78.6392 172.413 79.5421 173.526 79.5421Z" fill="#27AAE1"/>
</g>
</g>
<path d="M444.598 160.254C444.598 162.719 442.581 164.735 440.116 164.735H268.261C265.796 164.735 263.779 162.719 263.779 160.254V47.8135C263.779 45.3487 265.796 43.332 268.261 43.332H440.116C442.581 43.332 444.598 45.3487 444.598 47.8135V160.254Z" fill="#E1F4FD"/>
<path d="M444.732 54.715C444.732 57.1798 442.716 59.1965 440.251 59.1965H268.261C265.796 59.1965 263.779 57.1798 263.779 54.715V47.8135C263.779 45.3487 265.796 43.332 268.261 43.332H440.206C442.671 43.332 444.687 45.3487 444.687 47.8135V54.715H444.732Z" fill="#7C7D80"/>
<path d="M377.737 92.7632C377.737 95.228 375.721 97.2447 373.256 97.2447H322.439C319.974 97.2447 317.958 95.228 317.958 92.7632V77.8399C317.958 75.3751 319.974 73.3584 322.439 73.3584H373.256C375.721 73.3584 377.737 75.3751 377.737 77.8399V92.7632Z" fill="url(#paint11_linear)"/>
<path d="M436.755 80.8866C436.755 81.6036 436.173 82.231 435.411 82.231H383.383C382.622 82.231 382.039 81.6036 382.039 80.8866V80.1247C382.039 79.4077 382.622 78.7803 383.383 78.7803H435.411C436.173 78.7803 436.755 79.4077 436.755 80.1247V80.8866Z" fill="#C7C8CA"/>
<path d="M436.979 90.0291C436.979 90.7462 436.397 91.3736 435.635 91.3736H383.652C382.891 91.3736 382.308 90.7462 382.308 90.0291V89.2673C382.308 88.5503 382.891 87.9229 383.652 87.9229H435.68C436.442 87.9229 437.024 88.5503 437.024 89.2673V90.0291H436.979Z" fill="#D1D3D4"/>
<path d="M375.004 80.8416C375.004 81.5587 374.421 82.1861 373.659 82.1861H321.632C320.87 82.1861 320.288 81.5587 320.288 80.8416V80.0798C320.288 79.3179 320.87 78.7354 321.632 78.7354H373.659C374.421 78.7354 375.004 79.3179 375.004 80.0798V80.8416Z" fill="white"/>
<path d="M375.004 88.9979C375.004 89.7597 374.421 90.3423 373.659 90.3423H321.632C320.87 90.3423 320.288 89.7597 320.288 88.9979V88.236C320.288 87.4742 320.87 86.8916 321.632 86.8916H373.659C374.421 86.8916 375.004 87.4742 375.004 88.236V88.9979Z" fill="white"/>
<path d="M425.238 114.633C425.238 115.35 424.611 115.977 423.894 115.977H273.503C272.786 115.977 272.159 115.35 272.159 114.633V113.871C272.159 113.154 272.786 112.526 273.503 112.526H423.849C424.566 112.526 425.193 113.154 425.193 113.871V114.633H425.238Z" fill="#D1D3D4"/>
<path d="M425.059 124.089C425.059 124.851 424.432 125.433 423.715 125.433H273.324C272.607 125.433 271.98 124.851 271.98 124.089V123.327C271.98 122.61 272.607 121.982 273.324 121.982H423.67C424.387 121.982 425.015 122.61 425.015 123.327V124.089H425.059Z" fill="#D1D3D4"/>
<path d="M425.059 133.32C425.059 134.037 424.432 134.665 423.715 134.665H273.324C272.607 134.665 271.98 134.037 271.98 133.32V132.558C271.98 131.796 272.607 131.214 273.324 131.214H423.67C424.387 131.214 425.015 131.796 425.015 132.558V133.32H425.059Z" fill="#D1D3D4"/>
<path d="M424.835 143.403C424.835 144.12 424.253 144.748 423.491 144.748H273.145C272.383 144.748 271.801 144.12 271.801 143.403V142.641C271.801 141.924 272.383 141.297 273.145 141.297H423.491C424.253 141.297 424.835 141.924 424.835 142.641V143.403Z" fill="#D1D3D4"/>
<path d="M292.728 104.772C303.345 104.772 311.953 96.1648 311.953 85.5468C311.953 74.9289 303.345 66.3213 292.728 66.3213C282.111 66.3213 273.503 74.9289 273.503 85.5468C273.503 96.1648 282.111 104.772 292.728 104.772Z" fill="white"/>
<path d="M43.5256 142.463C43.5256 143.673 42.8086 143.986 41.9123 143.135L35.6386 136.861C34.7871 136.009 34.7871 134.575 35.6386 133.679L42.0468 127.27C42.8982 126.419 43.6152 126.688 43.6152 127.943L43.5256 142.463Z" fill="url(#paint12_linear)"/>
<path d="M62.6604 135.068C62.6604 136.323 61.6746 137.308 60.4198 137.308H43.6151C42.3604 137.308 41.3745 136.323 41.3745 135.068V134.575C41.3745 133.32 42.3604 132.334 43.6151 132.334H60.4198C61.6746 132.334 62.6604 133.32 62.6604 134.575V135.068Z" fill="url(#paint13_linear)"/>
<path d="M673.948 134.799C673.948 133.589 674.665 133.276 675.561 134.127L681.835 140.401C682.686 141.253 682.686 142.687 681.835 143.583L675.426 149.992C674.575 150.843 673.858 150.574 673.858 149.319L673.948 134.799Z" fill="url(#paint14_linear)"/>
<path d="M654.768 142.194C654.768 140.939 655.754 139.953 657.009 139.953H673.813C675.068 139.953 676.054 140.939 676.054 142.194V142.687C676.054 143.942 675.068 144.928 673.813 144.928H657.009C655.754 144.928 654.768 143.942 654.768 142.687V142.194Z" fill="url(#paint15_linear)"/>
<path d="M349.864 178.09C348.654 178.09 348.071 177.149 348.609 176.028L357.706 156.982C358.244 155.862 359.095 155.862 359.633 156.982L368.864 176.342C369.402 177.462 368.82 178.359 367.61 178.314L349.864 178.09Z" fill="#A7A9AC"/>
<path d="M358.513 224.92C357.258 224.92 356.272 223.935 356.272 222.68V175.086C356.272 173.832 357.258 172.846 358.513 172.846H359.812C361.067 172.846 362.053 173.832 362.053 175.086V222.68C362.053 223.935 361.067 224.92 359.812 224.92H358.513Z" fill="#A7A9AC"/>
<path d="M352.463 176.073C351.253 176.073 350.671 175.132 351.208 174.012L360.305 154.965C360.843 153.845 361.694 153.845 362.232 154.965L371.464 174.325C372.001 175.446 371.419 176.342 370.209 176.297L352.463 176.073Z" fill="url(#paint16_linear)"/>
<path d="M361.067 222.904C359.812 222.904 358.826 221.873 358.826 220.663V173.07C358.826 171.815 359.812 170.829 361.067 170.829H362.366C363.621 170.829 364.607 171.815 364.607 173.07V220.663C364.607 221.918 363.621 222.904 362.366 222.904H361.067Z" fill="url(#paint17_linear)"/>
<g opacity="0.1">
<path opacity="0.1" d="M95.9561 216.182V242.847C95.9561 245.267 96.8971 247.597 98.6448 249.3C100.348 251.003 102.678 251.989 105.098 251.989H131.761C132.971 251.989 134.136 251.765 135.257 251.317C136.377 250.869 137.363 250.197 138.214 249.345C139.066 248.494 139.738 247.508 140.186 246.387C140.634 245.267 140.858 244.102 140.858 242.892V242.399L152.644 241.637C152.823 241.637 153.002 241.547 153.137 241.458C153.271 241.323 153.406 241.189 153.45 241.01C153.495 240.83 153.495 240.651 153.45 240.472C153.406 240.293 153.271 240.158 153.137 240.024L140.858 230.523V216.137C140.858 214.927 140.634 213.762 140.186 212.642C139.738 211.522 139.066 210.536 138.214 209.684C137.363 208.833 136.377 208.16 135.257 207.712C134.136 207.264 132.971 207.04 131.761 207.04H105.098C103.888 207.04 102.723 207.264 101.602 207.712C100.482 208.16 99.4962 208.833 98.6448 209.684C97.7934 210.536 97.1212 211.522 96.6731 212.642C96.1801 213.762 95.9561 214.972 95.9561 216.182Z" fill="#010101"/>
<path opacity="0.1" d="M118.945 224.339C118.542 223.846 118.094 223.398 117.645 222.994C116.749 222.233 115.674 221.695 114.509 221.516C113.343 221.291 112.134 221.381 111.013 221.784C109.893 222.188 108.907 222.86 108.145 223.756C107.383 224.653 106.846 225.728 106.666 226.893C106.353 228.641 106.756 230.434 107.742 231.913C108.773 233.526 110.027 235.005 111.461 236.26C113.702 238.231 116.122 239.979 118.721 241.458C118.766 241.503 118.855 241.503 118.9 241.548C118.945 241.548 119.035 241.548 119.079 241.503C122.261 239.71 125.219 237.47 127.818 234.87C129.028 233.66 130.014 232.226 130.731 230.703C131.134 229.806 131.313 228.82 131.268 227.79C131.224 226.804 130.955 225.818 130.507 224.966C130.059 224.07 129.386 223.308 128.58 222.726C127.773 222.143 126.877 221.74 125.891 221.56C124.636 221.291 123.292 221.381 122.082 221.829C120.872 222.277 119.841 223.129 119.079 224.16L118.945 224.339Z" fill="#010101"/>
</g>
<path d="M102.319 210.849V237.559C102.319 239.979 103.26 242.309 105.008 244.012C106.711 245.715 109.041 246.701 111.461 246.701H138.125C139.334 246.701 140.5 246.477 141.62 246.029C142.74 245.581 143.726 244.909 144.578 244.057C145.429 243.206 146.101 242.22 146.549 241.099C146.997 239.979 147.221 238.814 147.221 237.604V237.111L159.007 236.349C159.186 236.349 159.366 236.259 159.5 236.17C159.635 236.035 159.769 235.901 159.814 235.722C159.859 235.542 159.859 235.363 159.814 235.184C159.769 235.005 159.635 234.87 159.5 234.736L147.221 225.28V210.894C147.221 209.684 146.997 208.519 146.549 207.399C146.101 206.278 145.429 205.292 144.578 204.441C143.726 203.589 142.74 202.917 141.62 202.469C140.5 202.021 139.334 201.797 138.125 201.797H111.461C110.251 201.797 109.086 202.021 107.966 202.469C106.845 202.917 105.86 203.589 105.008 204.441C104.157 205.292 103.484 206.278 103.036 207.399C102.543 208.474 102.319 209.684 102.319 210.849Z" fill="url(#paint18_linear)"/>
<path d="M125.263 219.051C124.86 218.558 124.412 218.11 123.964 217.706C123.068 216.945 121.992 216.407 120.827 216.227C119.662 216.003 118.452 216.093 117.332 216.496C116.211 216.9 115.225 217.572 114.464 218.468C113.702 219.364 113.164 220.44 112.985 221.605C112.671 223.353 113.074 225.146 114.06 226.624C115.091 228.238 116.346 229.717 117.78 230.972C120.02 232.943 122.44 234.691 125.039 236.17C125.084 236.215 125.174 236.215 125.219 236.26C125.263 236.26 125.353 236.26 125.398 236.215C128.579 234.422 131.537 232.182 134.136 229.582C135.346 228.372 136.332 226.938 137.049 225.415C137.452 224.518 137.632 223.532 137.587 222.502C137.542 221.516 137.273 220.53 136.825 219.678C136.377 218.782 135.705 218.02 134.898 217.437C134.091 216.855 133.195 216.452 132.209 216.272C130.955 216.003 129.61 216.093 128.4 216.541C127.19 216.989 126.16 217.841 125.398 218.872L125.263 219.051Z" fill="white"/>
<g opacity="0.1">
<path opacity="0.1" d="M493.354 32.6662V50.4577C493.354 52.071 492.726 53.5947 491.561 54.7599C490.441 55.8803 488.873 56.5525 487.259 56.5525H469.469C468.662 56.5525 467.9 56.3733 467.138 56.1044C466.421 55.7907 465.749 55.3425 465.167 54.8047C464.584 54.2221 464.136 53.5499 463.867 52.8329C463.553 52.1158 463.419 51.3092 463.419 50.5025V50.1888L455.577 49.6958C455.442 49.6958 455.353 49.651 455.263 49.5614C455.174 49.4718 455.084 49.3821 455.084 49.2477C455.039 49.1132 455.039 49.0236 455.084 48.8892C455.129 48.7547 455.174 48.6651 455.308 48.6203L463.509 42.3014V32.6662C463.509 31.8595 463.688 31.0977 463.957 30.3358C464.27 29.6188 464.719 28.9466 465.256 28.364C465.839 27.7814 466.511 27.3332 467.228 27.0644C467.945 26.7507 468.752 26.6162 469.558 26.6162H487.349C488.156 26.6162 488.917 26.7955 489.679 27.0644C490.396 27.3781 491.068 27.8262 491.651 28.364C492.234 28.9466 492.682 29.6188 492.95 30.3358C493.175 31.0977 493.354 31.8595 493.354 32.6662Z" fill="#010101"/>
<path opacity="0.1" d="M478.028 38.1336C478.297 37.8198 478.566 37.5061 478.879 37.2373C479.462 36.7443 480.224 36.3858 480.986 36.2513C481.747 36.1169 482.554 36.1617 483.316 36.4306C484.078 36.6995 484.705 37.1476 485.243 37.7302C485.736 38.3128 486.094 39.0747 486.229 39.8365C486.408 41.0017 486.184 42.2117 485.512 43.1976C484.84 44.2732 483.988 45.2591 483.047 46.1106C481.568 47.4102 479.955 48.5754 478.207 49.5613C478.162 49.6061 478.118 49.6061 478.073 49.6061C478.028 49.6061 477.983 49.6061 477.938 49.5613C475.787 48.3513 473.86 46.8724 472.113 45.1247C471.306 44.318 470.634 43.3769 470.186 42.3461C469.917 41.7187 469.783 41.0913 469.827 40.4191C469.872 39.7469 470.007 39.1195 470.32 38.5369C470.634 37.9543 471.082 37.4613 471.575 37.058C472.113 36.6547 472.74 36.3858 473.368 36.2513C474.219 36.0721 475.07 36.1169 475.877 36.4306C476.684 36.7443 477.356 37.2821 477.849 37.9991L478.028 38.1336Z" fill="#010101"/>
</g>
<path d="M487.797 28.05V45.8415C487.797 47.4548 487.169 48.9785 486.004 50.1437C484.884 51.2641 483.315 51.9363 481.702 51.9363H463.956C463.15 51.9363 462.388 51.757 461.626 51.4881C460.909 51.1744 460.237 50.7263 459.654 50.1885C459.072 49.6059 458.624 48.9337 458.355 48.2167C458.041 47.4996 457.907 46.693 457.907 45.8863V45.5726L450.065 45.0796C449.93 45.0796 449.841 45.0348 449.751 44.9452C449.661 44.8556 449.572 44.7659 449.572 44.6315C449.527 44.497 449.527 44.4074 449.572 44.273C449.617 44.1385 449.661 44.0489 449.796 44.0041L457.996 37.6852V28.05C457.996 27.2433 458.176 26.4815 458.445 25.7196C458.758 25.0026 459.206 24.3304 459.744 23.7478C460.327 23.1652 460.999 22.717 461.716 22.4481C462.433 22.1344 463.239 22 464.046 22H481.837C482.643 22 483.405 22.1793 484.167 22.4481C484.884 22.7619 485.556 23.21 486.139 23.7478C486.721 24.3304 487.169 25.0026 487.438 25.7196C487.617 26.4815 487.797 27.2433 487.797 28.05Z" fill="url(#paint19_linear)"/>
<path d="M472.471 33.4724C472.74 33.1587 473.009 32.845 473.322 32.5761C473.905 32.0832 474.667 31.7246 475.428 31.5902C476.19 31.4558 476.997 31.5006 477.759 31.7695C478.521 32.0383 479.148 32.4865 479.686 33.0691C480.179 33.6517 480.537 34.4135 480.672 35.1754C480.851 36.3406 480.627 37.5506 479.955 38.5365C479.282 39.612 478.431 40.598 477.49 41.4495C476.011 42.7491 474.398 43.9143 472.65 44.9002C472.605 44.945 472.56 44.945 472.516 44.945C472.471 44.945 472.426 44.945 472.381 44.9002C470.23 43.6902 468.303 42.2113 466.556 40.4635C465.749 39.6569 465.077 38.7158 464.629 37.685C464.36 37.0576 464.225 36.4302 464.27 35.758C464.315 35.0858 464.449 34.4583 464.763 33.8758C465.077 33.2932 465.525 32.8002 466.018 32.3969C466.556 31.9935 467.183 31.7246 467.81 31.5902C468.662 31.4109 469.513 31.4558 470.32 31.7695C471.126 32.0832 471.799 32.6209 472.292 33.338L472.471 33.4724Z" fill="white"/>
<path d="M443.791 25.0025C444.015 24.7336 444.239 24.5095 444.508 24.2855C445.001 23.8821 445.583 23.6132 446.211 23.4788C446.838 23.3444 447.465 23.434 448.093 23.6132C448.675 23.8373 449.213 24.1958 449.661 24.6888C450.064 25.1818 450.333 25.7644 450.468 26.3918C450.647 27.3329 450.423 28.3188 449.885 29.1255C449.347 30.0218 448.675 30.7836 447.869 31.4558C446.659 32.5314 445.359 33.4725 443.97 34.2792C443.925 34.2792 443.925 34.324 443.88 34.324C443.835 34.324 443.791 34.324 443.791 34.2792C442.043 33.2932 440.475 32.0832 439.085 30.694C438.413 30.0218 437.92 29.2599 437.517 28.4532C437.293 27.9603 437.203 27.4225 437.248 26.8847C437.248 26.3469 437.427 25.8092 437.651 25.361C437.92 24.8681 438.234 24.4647 438.682 24.151C439.13 23.8373 439.623 23.6132 440.116 23.5236C440.788 23.3892 441.505 23.434 442.177 23.6581C442.85 23.8821 443.387 24.3303 443.791 24.9129V25.0025Z" fill="url(#paint20_linear)"/>
<path d="M501.599 55.2974C501.823 55.0285 502.047 54.8045 502.316 54.5804C502.809 54.1771 503.391 53.9082 504.019 53.7737C504.646 53.6393 505.273 53.7289 505.901 53.9082C506.483 54.1322 507.021 54.4908 507.469 54.9837C507.872 55.4767 508.141 56.0593 508.276 56.6867C508.455 57.6278 508.231 58.6137 507.693 59.4204C507.155 60.3167 506.483 61.0785 505.677 61.7508C504.467 62.8263 503.167 63.7674 501.778 64.5741C501.733 64.5741 501.733 64.6189 501.688 64.6189C501.644 64.6189 501.599 64.6189 501.599 64.5741C499.851 63.5882 498.283 62.3782 496.893 60.9889C496.221 60.3167 495.728 59.5548 495.325 58.7482C495.101 58.2552 495.011 57.7174 495.056 57.1796C495.056 56.6419 495.235 56.1041 495.459 55.6559C495.728 55.163 496.042 54.7596 496.49 54.4459C496.938 54.1322 497.431 53.9082 497.924 53.8185C498.596 53.6841 499.313 53.7289 499.985 53.953C500.658 54.2219 501.195 54.6252 501.599 55.2078V55.2974Z" fill="url(#paint21_linear)"/>
<path d="M143.995 262.386C144.354 261.938 144.757 261.535 145.16 261.131C145.967 260.414 146.998 259.966 148.028 259.742C149.104 259.563 150.179 259.653 151.21 260.011C152.241 260.37 153.137 260.997 153.854 261.848C154.571 262.655 155.019 263.686 155.243 264.761C155.512 266.375 155.153 268.033 154.257 269.377C153.316 270.856 152.196 272.201 150.851 273.366C148.79 275.203 146.549 276.772 144.174 278.116C144.13 278.161 144.085 278.161 143.995 278.161C143.95 278.161 143.861 278.161 143.816 278.116C140.858 276.458 138.169 274.397 135.794 272.021C134.674 270.901 133.778 269.601 133.106 268.167C132.747 267.316 132.568 266.42 132.613 265.523C132.658 264.627 132.882 263.731 133.33 262.924C133.778 262.117 134.36 261.4 135.077 260.863C135.794 260.325 136.646 259.966 137.542 259.787C138.707 259.518 139.917 259.608 141.037 260.056C142.158 260.504 143.099 261.221 143.771 262.207L143.995 262.386Z" fill="url(#paint22_linear)"/>
<path d="M166.133 197.988C166.446 197.629 166.715 197.315 167.074 197.002C167.746 196.464 168.508 196.061 169.359 195.926C170.21 195.792 171.062 195.836 171.869 196.105C172.675 196.374 173.392 196.867 173.93 197.539C174.468 198.212 174.871 198.974 175.005 199.825C175.229 201.08 174.961 202.379 174.244 203.455C173.527 204.62 172.586 205.696 171.555 206.592C169.942 208.026 168.194 209.281 166.312 210.356C166.267 210.401 166.222 210.401 166.177 210.401C166.133 210.401 166.088 210.401 166.043 210.356C163.713 209.057 161.606 207.444 159.724 205.561C158.828 204.665 158.156 203.679 157.618 202.514C157.349 201.842 157.215 201.125 157.215 200.408C157.26 199.691 157.439 198.974 157.753 198.346C158.066 197.719 158.559 197.181 159.142 196.733C159.724 196.285 160.397 196.016 161.069 195.881C161.965 195.657 162.951 195.747 163.802 196.061C164.654 196.419 165.416 197.002 165.953 197.764L166.133 197.988Z" fill="url(#paint23_linear)"/>
<path d="M84.6184 204.71C84.8425 204.441 85.1114 204.172 85.3802 203.903C85.918 203.455 86.5454 203.141 87.2624 203.007C87.9345 202.873 88.6515 202.917 89.3237 203.186C89.9959 203.41 90.5785 203.814 91.0266 204.351C91.4747 204.889 91.7884 205.517 91.9229 206.234C92.1021 207.264 91.878 208.34 91.2955 209.236C90.7129 210.222 89.9511 211.074 89.0997 211.836C87.7553 213.001 86.3213 214.031 84.7977 214.928C84.7529 214.973 84.7529 214.973 84.708 214.973C84.6632 214.973 84.6184 214.973 84.6184 214.928C82.7363 213.852 80.9886 212.508 79.4202 210.984C78.7032 210.267 78.1206 209.416 77.7173 208.519C77.4932 207.981 77.3588 207.399 77.4036 206.816C77.4484 206.234 77.5829 205.651 77.8517 205.113C78.1206 204.576 78.5239 204.127 78.972 203.769C79.465 203.41 80.0027 203.186 80.5853 203.052C81.3471 202.873 82.1089 202.962 82.8259 203.231C83.5429 203.5 84.1703 203.993 84.6184 204.62V204.71Z" fill="url(#paint24_linear)"/>
<path d="M444.822 53.3701H263.734V59.6442H444.822V53.3701Z" fill="#7C7D80"/>
<path d="M558.959 234.198H163.22V240.472H558.959V234.198Z" fill="#7C7D80"/>
<path d="M275.654 53.9081C277.015 53.9081 278.119 52.8046 278.119 51.4433C278.119 50.0821 277.015 48.9785 275.654 48.9785C274.293 48.9785 273.189 50.0821 273.189 51.4433C273.189 52.8046 274.293 53.9081 275.654 53.9081Z" fill="white"/>
<path d="M283.855 53.8632C285.216 53.8632 286.32 52.7597 286.32 51.3984C286.32 50.0371 285.216 48.9336 283.855 48.9336C282.494 48.9336 281.39 50.0371 281.39 51.3984C281.39 52.7597 282.494 53.8632 283.855 53.8632Z" fill="white"/>
<path d="M291.966 53.8632C293.327 53.8632 294.431 52.7597 294.431 51.3984C294.431 50.0371 293.327 48.9336 291.966 48.9336C290.605 48.9336 289.501 50.0371 289.501 51.3984C289.501 52.7597 290.605 53.8632 291.966 53.8632Z" fill="white"/>
<path d="M300.774 295.018L283.236 288.146V283.105L305.895 293.134V297.008L283.236 307.063V301.969L300.774 295.018ZM312.767 315.58H308.548L324.68 273.633H328.872L312.767 315.58ZM329.217 315.58H324.998L341.13 273.633H345.322L329.217 315.58ZM371.324 316.27H347.02V312.264H371.324V316.27ZM395.84 316.27H371.536V312.264H395.84V316.27ZM420.356 316.27H396.052V312.264H420.356V316.27ZM444.871 316.27H420.568V312.264H444.871V316.27ZM458.907 297.857H445.959V293.85H458.907V297.857ZM473.924 297.857H460.977V293.85H473.924V297.857ZM293.611 361.857H280.663V357.85H293.611V361.857ZM319.108 380.27H294.805V376.264H319.108V380.27ZM343.624 380.27H319.32V376.264H343.624V380.27ZM368.14 380.27H343.836V376.264H368.14V380.27ZM392.656 380.27H368.352V376.264H392.656V380.27ZM404.065 344.133L399.024 356.922H394.46L402.393 337.633H405.763L413.669 356.922H409.132L404.065 344.133ZM439.883 380.27H415.58V376.264H439.883V380.27ZM464.399 380.27H440.096V376.264H464.399V380.27ZM304.091 444.27H279.787V440.264H304.091V444.27ZM322.372 443.58H318.153L334.285 401.633H338.477L322.372 443.58ZM338.822 443.58H334.603L350.735 401.633H354.927L338.822 443.58Z" fill="#F1F2F2"/>
<path d="M300.774 295.018L300.866 295.25L301.456 295.016L300.866 294.785L300.774 295.018ZM283.236 288.146H282.986V288.316L283.145 288.379L283.236 288.146ZM283.236 283.105L283.338 282.876L282.986 282.721V283.105H283.236ZM305.895 293.134H306.145V292.971L305.996 292.905L305.895 293.134ZM305.895 297.008L305.996 297.236L306.145 297.17V297.008H305.895ZM283.236 307.063H282.986V307.448L283.338 307.292L283.236 307.063ZM283.236 301.969L283.144 301.737L282.986 301.799V301.969H283.236ZM300.866 294.785L283.328 287.913L283.145 288.379L300.683 295.25L300.866 294.785ZM283.486 288.146V283.105H282.986V288.146H283.486ZM283.135 283.333L305.794 293.362L305.996 292.905L283.338 282.876L283.135 283.333ZM305.645 293.134V297.008H306.145V293.134H305.645ZM305.794 296.779L283.135 306.835L283.338 307.292L305.996 297.236L305.794 296.779ZM283.486 307.063V301.969H282.986V307.063H283.486ZM283.329 302.202L300.866 295.25L300.682 294.785L283.144 301.737L283.329 302.202ZM312.767 315.58V315.83H312.939L313 315.67L312.767 315.58ZM308.548 315.58L308.315 315.49L308.184 315.83H308.548V315.58ZM324.68 273.633V273.383H324.508L324.447 273.543L324.68 273.633ZM328.872 273.633L329.105 273.722L329.236 273.383H328.872V273.633ZM312.767 315.33H308.548V315.83H312.767V315.33ZM308.782 315.67L324.913 273.722L324.447 273.543L308.315 315.49L308.782 315.67ZM324.68 273.883H328.872V273.383H324.68V273.883ZM328.639 273.543L312.534 315.491L313 315.67L329.105 273.722L328.639 273.543ZM329.217 315.58V315.83H329.389L329.45 315.67L329.217 315.58ZM324.998 315.58L324.765 315.49L324.634 315.83H324.998V315.58ZM341.13 273.633V273.383H340.958L340.897 273.543L341.13 273.633ZM345.322 273.633L345.556 273.722L345.686 273.383H345.322V273.633ZM329.217 315.33H324.998V315.83H329.217V315.33ZM325.232 315.67L341.363 273.722L340.897 273.543L324.765 315.49L325.232 315.67ZM341.13 273.883H345.322V273.383H341.13V273.883ZM345.089 273.543L328.984 315.491L329.45 315.67L345.556 273.722L345.089 273.543ZM371.324 316.27V316.52H371.574V316.27H371.324ZM347.02 316.27H346.77V316.52H347.02V316.27ZM347.02 312.264V312.014H346.77V312.264H347.02ZM371.324 312.264H371.574V312.014H371.324V312.264ZM371.324 316.02H347.02V316.52H371.324V316.02ZM347.27 316.27V312.264H346.77V316.27H347.27ZM347.02 312.514H371.324V312.014H347.02V312.514ZM371.074 312.264V316.27H371.574V312.264H371.074ZM395.84 316.27V316.52H396.09V316.27H395.84ZM371.536 316.27H371.286V316.52H371.536V316.27ZM371.536 312.264V312.014H371.286V312.264H371.536ZM395.84 312.264H396.09V312.014H395.84V312.264ZM395.84 316.02H371.536V316.52H395.84V316.02ZM371.786 316.27V312.264H371.286V316.27H371.786ZM371.536 312.514H395.84V312.014H371.536V312.514ZM395.59 312.264V316.27H396.09V312.264H395.59ZM420.356 316.27V316.52H420.606V316.27H420.356ZM396.052 316.27H395.802V316.52H396.052V316.27ZM396.052 312.264V312.014H395.802V312.264H396.052ZM420.356 312.264H420.606V312.014H420.356V312.264ZM420.356 316.02H396.052V316.52H420.356V316.02ZM396.302 316.27V312.264H395.802V316.27H396.302ZM396.052 312.514H420.356V312.014H396.052V312.514ZM420.106 312.264V316.27H420.606V312.264H420.106ZM444.871 316.27V316.52H445.121V316.27H444.871ZM420.568 316.27H420.318V316.52H420.568V316.27ZM420.568 312.264V312.014H420.318V312.264H420.568ZM444.871 312.264H445.121V312.014H444.871V312.264ZM444.871 316.02H420.568V316.52H444.871V316.02ZM420.818 316.27V312.264H420.318V316.27H420.818ZM420.568 312.514H444.871V312.014H420.568V312.514ZM444.621 312.264V316.27H445.121V312.264H444.621ZM458.907 297.857V298.107H459.157V297.857H458.907ZM445.959 297.857H445.709V298.107H445.959V297.857ZM445.959 293.85V293.6H445.709V293.85H445.959ZM458.907 293.85H459.157V293.6H458.907V293.85ZM458.907 297.607H445.959V298.107H458.907V297.607ZM446.209 297.857V293.85H445.709V297.857H446.209ZM445.959 294.1H458.907V293.6H445.959V294.1ZM458.657 293.85V297.857H459.157V293.85H458.657ZM473.924 297.857V298.107H474.174V297.857H473.924ZM460.977 297.857H460.727V298.107H460.977V297.857ZM460.977 293.85V293.6H460.727V293.85H460.977ZM473.924 293.85H474.174V293.6H473.924V293.85ZM473.924 297.607H460.977V298.107H473.924V297.607ZM461.227 297.857V293.85H460.727V297.857H461.227ZM460.977 294.1H473.924V293.6H460.977V294.1ZM473.674 293.85V297.857H474.174V293.85H473.674ZM293.611 361.857V362.107H293.861V361.857H293.611ZM280.663 361.857H280.413V362.107H280.663V361.857ZM280.663 357.85V357.6H280.413V357.85H280.663ZM293.611 357.85H293.861V357.6H293.611V357.85ZM293.611 361.607H280.663V362.107H293.611V361.607ZM280.913 361.857V357.85H280.413V361.857H280.913ZM280.663 358.1H293.611V357.6H280.663V358.1ZM293.361 357.85V361.857H293.861V357.85H293.361ZM319.108 380.27V380.52H319.358V380.27H319.108ZM294.805 380.27H294.555V380.52H294.805V380.27ZM294.805 376.264V376.014H294.555V376.264H294.805ZM319.108 376.264H319.358V376.014H319.108V376.264ZM319.108 380.02H294.805V380.52H319.108V380.02ZM295.055 380.27V376.264H294.555V380.27H295.055ZM294.805 376.514H319.108V376.014H294.805V376.514ZM318.858 376.264V380.27H319.358V376.264H318.858ZM343.624 380.27V380.52H343.874V380.27H343.624ZM319.32 380.27H319.07V380.52H319.32V380.27ZM319.32 376.264V376.014H319.07V376.264H319.32ZM343.624 376.264H343.874V376.014H343.624V376.264ZM343.624 380.02H319.32V380.52H343.624V380.02ZM319.57 380.27V376.264H319.07V380.27H319.57ZM319.32 376.514H343.624V376.014H319.32V376.514ZM343.374 376.264V380.27H343.874V376.264H343.374ZM368.14 380.27V380.52H368.39V380.27H368.14ZM343.836 380.27H343.586V380.52H343.836V380.27ZM343.836 376.264V376.014H343.586V376.264H343.836ZM368.14 376.264H368.39V376.014H368.14V376.264ZM368.14 380.02H343.836V380.52H368.14V380.02ZM344.086 380.27V376.264H343.586V380.27H344.086ZM343.836 376.514H368.14V376.014H343.836V376.514ZM367.89 376.264V380.27H368.39V376.264H367.89ZM392.656 380.27V380.52H392.906V380.27H392.656ZM368.352 380.27H368.102V380.52H368.352V380.27ZM368.352 376.264V376.014H368.102V376.264H368.352ZM392.656 376.264H392.906V376.014H392.656V376.264ZM392.656 380.02H368.352V380.52H392.656V380.02ZM368.602 380.27V376.264H368.102V380.27H368.602ZM368.352 376.514H392.656V376.014H368.352V376.514ZM392.406 376.264V380.27H392.906V376.264H392.406ZM404.065 344.133L404.297 344.041L404.064 343.453L403.832 344.041L404.065 344.133ZM399.024 356.922V357.172H399.194L399.256 357.013L399.024 356.922ZM394.46 356.922L394.229 356.827L394.087 357.172H394.46V356.922ZM402.393 337.633V337.383H402.226L402.162 337.538L402.393 337.633ZM405.763 337.633L405.994 337.538L405.93 337.383H405.763V337.633ZM413.669 356.922V357.172H414.042L413.901 356.827L413.669 356.922ZM409.132 356.922L408.9 357.014L408.963 357.172H409.132V356.922ZM403.832 344.041L398.791 356.83L399.256 357.013L404.297 344.225L403.832 344.041ZM399.024 356.672H394.46V357.172H399.024V356.672ZM394.691 357.017L402.624 337.728L402.162 337.538L394.229 356.827L394.691 357.017ZM402.393 337.883H405.763V337.383H402.393V337.883ZM405.531 337.727L413.438 357.016L413.901 356.827L405.994 337.538L405.531 337.727ZM413.669 356.672H409.132V357.172H413.669V356.672ZM409.365 356.83L404.297 344.041L403.832 344.225L408.9 357.014L409.365 356.83ZM439.883 380.27V380.52H440.133V380.27H439.883ZM415.58 380.27H415.33V380.52H415.58V380.27ZM415.58 376.264V376.014H415.33V376.264H415.58ZM439.883 376.264H440.133V376.014H439.883V376.264ZM439.883 380.02H415.58V380.52H439.883V380.02ZM415.83 380.27V376.264H415.33V380.27H415.83ZM415.58 376.514H439.883V376.014H415.58V376.514ZM439.633 376.264V380.27H440.133V376.264H439.633ZM464.399 380.27V380.52H464.649V380.27H464.399ZM440.096 380.27H439.846V380.52H440.096V380.27ZM440.096 376.264V376.014H439.846V376.264H440.096ZM464.399 376.264H464.649V376.014H464.399V376.264ZM464.399 380.02H440.096V380.52H464.399V380.02ZM440.346 380.27V376.264H439.846V380.27H440.346ZM440.096 376.514H464.399V376.014H440.096V376.514ZM464.149 376.264V380.27H464.649V376.264H464.149ZM304.091 444.27V444.52H304.341V444.27H304.091ZM279.787 444.27H279.537V444.52H279.787V444.27ZM279.787 440.264V440.014H279.537V440.264H279.787ZM304.091 440.264H304.341V440.014H304.091V440.264ZM304.091 444.02H279.787V444.52H304.091V444.02ZM280.037 444.27V440.264H279.537V444.27H280.037ZM279.787 440.514H304.091V440.014H279.787V440.514ZM303.841 440.264V444.27H304.341V440.264H303.841ZM322.372 443.58V443.83H322.543L322.605 443.67L322.372 443.58ZM318.153 443.58L317.92 443.49L317.789 443.83H318.153V443.58ZM334.285 401.633V401.383H334.113L334.051 401.543L334.285 401.633ZM338.477 401.633L338.71 401.722L338.841 401.383H338.477V401.633ZM322.372 443.33H318.153V443.83H322.372V443.33ZM318.386 443.67L334.518 401.722L334.051 401.543L317.92 443.49L318.386 443.67ZM334.285 401.883H338.477V401.383H334.285V401.883ZM338.243 401.543L322.138 443.491L322.605 443.67L338.71 401.722L338.243 401.543ZM338.822 443.58V443.83H338.994L339.055 443.67L338.822 443.58ZM334.603 443.58L334.37 443.49L334.239 443.83H334.603V443.58ZM350.735 401.633V401.383H350.563L350.501 401.543L350.735 401.633ZM354.927 401.633L355.16 401.722L355.291 401.383H354.927V401.633ZM338.822 443.33H334.603V443.83H338.822V443.33ZM334.836 443.67L350.968 401.722L350.501 401.543L334.37 443.49L334.836 443.67ZM350.735 401.883H354.927V401.383H350.735V401.883ZM354.693 401.543L338.588 443.491L339.055 443.67L355.16 401.722L354.693 401.543Z" fill="#F1F2F2"/>
</g>
<defs>
<filter id="filter0_d" x="-30" y="-20" width="777" height="544" filterUnits="userSpaceOnUse" color-interpolation-filters="sRGB">
<feFlood flood-opacity="0" result="BackgroundImageFix"/>
<feColorMatrix in="SourceAlpha" type="matrix" values="0 0 0 0 0 0 0 0 0 0 0 0 0 0 0 0 0 0 127 0" result="hardAlpha"/>
<feOffset dy="10"/>
<feGaussianBlur stdDeviation="15"/>
<feColorMatrix type="matrix" values="0 0 0 0 0 0 0 0 0 0 0 0 0 0 0 0 0 0 0.25 0"/>
<feBlend mode="normal" in2="BackgroundImageFix" result="effect1_dropShadow"/>
<feBlend mode="normal" in="SourceGraphic" in2="effect1_dropShadow" result="shape"/>
</filter>
<linearGradient id="paint0_linear" x1="561.703" y1="120.7" x2="639.41" y2="120.7" gradientUnits="userSpaceOnUse">
<stop stop-color="#7DD3F7"/>
<stop offset="1" stop-color="#43B5E8"/>
</linearGradient>
<linearGradient id="paint1_linear" x1="113.917" y1="119.36" x2="198.429" y2="119.36" gradientUnits="userSpaceOnUse">
<stop stop-color="#7DD3F7"/>
<stop offset="1" stop-color="#43B5E8"/>
</linearGradient>
<linearGradient id="paint2_linear" x1="281.374" y1="269.447" x2="549.153" y2="269.447" gradientUnits="userSpaceOnUse">
<stop stop-color="#7DD3F7"/>
<stop offset="1" stop-color="#43B5E8"/>
</linearGradient>
<linearGradient id="paint3_linear" x1="281.546" y1="323.816" x2="552.94" y2="323.816" gradientUnits="userSpaceOnUse">
<stop stop-color="#7DD3F7"/>
<stop offset="1" stop-color="#43B5E8"/>
</linearGradient>
<linearGradient id="paint4_linear" x1="176.412" y1="403.022" x2="442.957" y2="403.022" gradientUnits="userSpaceOnUse">
<stop stop-color="#7DD3F7"/>
<stop offset="1" stop-color="#43B5E8"/>
</linearGradient>
<linearGradient id="paint5_linear" x1="176.125" y1="296.668" x2="277.588" y2="296.668" gradientUnits="userSpaceOnUse">
<stop stop-color="#7DD3F7"/>
<stop offset="1" stop-color="#43B5E8"/>
</linearGradient>
<linearGradient id="paint6_linear" x1="448.027" y1="402.911" x2="551.288" y2="402.911" gradientUnits="userSpaceOnUse">
<stop stop-color="#7DD3F7"/>
<stop offset="1" stop-color="#43B5E8"/>
</linearGradient>
<linearGradient id="paint7_linear" x1="468.713" y1="141.953" x2="510.683" y2="141.953" gradientUnits="userSpaceOnUse">
<stop stop-color="#7DD3F7"/>
<stop offset="1" stop-color="#43B5E8"/>
</linearGradient>
<linearGradient id="paint8_linear" x1="516.797" y1="141.953" x2="558.767" y2="141.953" gradientUnits="userSpaceOnUse">
<stop stop-color="#7DD3F7"/>
<stop offset="1" stop-color="#43B5E8"/>
</linearGradient>
<linearGradient id="paint9_linear" x1="195.146" y1="106.078" x2="291.077" y2="106.078" gradientUnits="userSpaceOnUse">
<stop stop-color="#7DD3F7"/>
<stop offset="1" stop-color="#43B5E8"/>
</linearGradient>
<linearGradient id="paint10_linear" x1="159.275" y1="143.008" x2="190.045" y2="143.008" gradientUnits="userSpaceOnUse">
<stop stop-color="#7DD3F7"/>
<stop offset="1" stop-color="#43B5E8"/>
</linearGradient>
<linearGradient id="paint11_linear" x1="317.937" y1="85.2845" x2="377.724" y2="85.2845" gradientUnits="userSpaceOnUse">
<stop stop-color="#7DD3F7"/>
<stop offset="1" stop-color="#43B5E8"/>
</linearGradient>
<linearGradient id="paint12_linear" x1="34.9779" y1="135.171" x2="43.6097" y2="135.171" gradientUnits="userSpaceOnUse">
<stop stop-color="#71459B"/>
<stop offset="0.8668" stop-color="#A76CAD"/>
</linearGradient>
<linearGradient id="paint13_linear" x1="41.3689" y1="134.819" x2="62.675" y2="134.819" gradientUnits="userSpaceOnUse">
<stop stop-color="#71459B"/>
<stop offset="0.8668" stop-color="#A76CAD"/>
</linearGradient>
<linearGradient id="paint14_linear" x1="673.835" y1="142.098" x2="682.467" y2="142.098" gradientUnits="userSpaceOnUse">
<stop stop-color="#71459B"/>
<stop offset="0.8668" stop-color="#A76CAD"/>
</linearGradient>
<linearGradient id="paint15_linear" x1="654.77" y1="142.449" x2="676.076" y2="142.449" gradientUnits="userSpaceOnUse">
<stop stop-color="#71459B"/>
<stop offset="0.8668" stop-color="#A76CAD"/>
</linearGradient>
<linearGradient id="paint16_linear" x1="350.968" y1="165.235" x2="371.629" y2="165.235" gradientUnits="userSpaceOnUse">
<stop stop-color="#71459B"/>
<stop offset="0.8668" stop-color="#A76CAD"/>
</linearGradient>
<linearGradient id="paint17_linear" x1="358.809" y1="196.881" x2="364.608" y2="196.881" gradientUnits="userSpaceOnUse">
<stop stop-color="#71459B"/>
<stop offset="0.8668" stop-color="#A76CAD"/>
</linearGradient>
<linearGradient id="paint18_linear" x1="159.834" y1="224.205" x2="102.315" y2="224.205" gradientUnits="userSpaceOnUse">
<stop stop-color="#7DD3F7"/>
<stop offset="1" stop-color="#43B5E8"/>
</linearGradient>
<linearGradient id="paint19_linear" x1="449.455" y1="36.94" x2="487.797" y2="36.94" gradientUnits="userSpaceOnUse">
<stop stop-color="#7DD3F7"/>
<stop offset="1" stop-color="#43B5E8"/>
</linearGradient>
<linearGradient id="paint20_linear" x1="437.166" y1="28.8339" x2="450.473" y2="28.8339" gradientUnits="userSpaceOnUse">
<stop stop-color="#71459B"/>
<stop offset="0.8668" stop-color="#A76CAD"/>
</linearGradient>
<linearGradient id="paint21_linear" x1="494.969" y1="59.1217" x2="508.276" y2="59.1217" gradientUnits="userSpaceOnUse">
<stop stop-color="#71459B"/>
<stop offset="0.8668" stop-color="#A76CAD"/>
</linearGradient>
<linearGradient id="paint22_linear" x1="132.681" y1="268.937" x2="155.355" y2="268.937" gradientUnits="userSpaceOnUse">
<stop stop-color="#71459B"/>
<stop offset="0.8668" stop-color="#A76CAD"/>
</linearGradient>
<linearGradient id="paint23_linear" x1="157.23" y1="203.14" x2="175.086" y2="203.14" gradientUnits="userSpaceOnUse">
<stop stop-color="#71459B"/>
<stop offset="0.8668" stop-color="#A76CAD"/>
</linearGradient>
<linearGradient id="paint24_linear" x1="77.3136" y1="208.93" x2="91.9583" y2="208.93" gradientUnits="userSpaceOnUse">
<stop stop-color="#71459B"/>
<stop offset="0.8668" stop-color="#A76CAD"/>
</linearGradient>
</defs>
</svg>
