<svg width="614" height="414" viewBox="0 0 614 414" fill="none" xmlns="http://www.w3.org/2000/svg">
<g filter="url(#filter0_d)">
<path d="M552.869 145.194C552.869 147.302 551.142 149.027 549.031 149.027H454.015C451.904 149.027 450.177 147.302 450.177 145.194V83.9368C450.177 81.8285 451.904 80.1035 454.015 80.1035H549.031C551.142 80.1035 552.869 81.8285 552.869 83.9368V145.194Z" fill="#E1F4FD"/>
<path d="M552.946 85.2785C552.946 87.3868 551.219 89.1118 549.108 89.1118H453.938C451.827 89.1118 450.101 87.3868 450.101 85.2785V83.9368C450.101 81.8285 451.827 80.1035 453.938 80.1035H549.108C551.219 80.1035 552.946 81.8285 552.946 83.9368V85.2785Z" fill="#7C7D80"/>
<path d="M547.573 106.17C547.573 108.279 545.846 110.004 543.736 110.004H484.868C482.758 110.004 481.031 108.279 481.031 106.17V100.689C481.031 98.5805 482.758 96.8555 484.868 96.8555H543.736C545.846 96.8555 547.573 98.5805 547.573 100.689V106.17Z" fill="url(#paint0_linear)"/>
<path d="M543.582 116.673C543.582 117.21 541.855 117.632 539.744 117.632H486.058C483.947 117.632 482.22 117.21 482.22 116.673C482.22 116.137 483.947 115.715 486.058 115.715H539.744C541.855 115.715 543.582 116.175 543.582 116.673Z" fill="#D1D3D4"/>
<path d="M543.428 121.695C543.428 122.231 541.702 122.653 539.591 122.653H485.904C483.794 122.653 482.067 122.231 482.067 121.695C482.067 121.158 483.794 120.736 485.904 120.736H539.591C541.702 120.736 543.428 121.158 543.428 121.695Z" fill="#D1D3D4"/>
<path d="M543.582 127.024C543.582 127.56 541.855 127.982 539.744 127.982H486.058C483.947 127.982 482.22 127.56 482.22 127.024C482.22 126.487 483.947 126.065 486.058 126.065H539.744C541.855 126.065 543.582 126.487 543.582 127.024Z" fill="#D1D3D4"/>
<path d="M538.018 131.93C538.018 132.467 536.291 132.888 534.18 132.888H486.096C483.986 132.888 482.259 132.467 482.259 131.93C482.259 131.393 483.986 130.972 486.096 130.972H534.18C536.291 130.972 538.018 131.393 538.018 131.93Z" fill="#D1D3D4"/>
<path d="M538.248 137.335C538.248 137.872 536.521 138.294 534.411 138.294H486.327C484.216 138.294 482.489 137.872 482.489 137.335C482.489 136.799 484.216 136.377 486.327 136.377H534.411C536.521 136.377 538.248 136.799 538.248 137.335Z" fill="#D1D3D4"/>
<path d="M466.563 114.987C472.604 114.987 477.5 110.095 477.5 104.062C477.5 98.028 472.604 93.1367 466.563 93.1367C460.523 93.1367 455.626 98.028 455.626 104.062C455.626 110.095 460.523 114.987 466.563 114.987Z" fill="white"/>
<path d="M544.349 101.187C544.349 101.724 542.623 102.184 540.512 102.184H488.706C486.595 102.184 484.868 101.762 484.868 101.187C484.868 100.65 486.595 100.19 488.706 100.19H540.512C542.623 100.229 544.349 100.65 544.349 101.187Z" fill="white"/>
<path d="M544.349 105.595C544.349 106.132 542.623 106.592 540.512 106.592H488.706C486.595 106.592 484.868 106.17 484.868 105.595C484.868 105.059 486.595 104.599 488.706 104.599H540.512C542.623 104.599 544.349 105.059 544.349 105.595Z" fill="white"/>
<path d="M456.932 86.0447C457.716 86.0447 458.351 85.4097 458.351 84.6263C458.351 83.843 457.716 83.208 456.932 83.208C456.147 83.208 455.512 83.843 455.512 84.6263C455.512 85.4097 456.147 86.0447 456.932 86.0447Z" fill="white"/>
<path d="M461.613 86.0066C462.397 86.0066 463.033 85.3716 463.033 84.5883C463.033 83.8049 462.397 83.1699 461.613 83.1699C460.829 83.1699 460.193 83.8049 460.193 84.5883C460.193 85.3716 460.829 86.0066 461.613 86.0066Z" fill="white"/>
<path d="M466.219 86.0066C467.003 86.0066 467.639 85.3716 467.639 84.5883C467.639 83.8049 467.003 83.1699 466.219 83.1699C465.435 83.1699 464.799 83.8049 464.799 84.5883C464.799 85.3716 465.435 86.0066 466.219 86.0066Z" fill="white"/>
<g opacity="0.66">
<g opacity="0.66">
<path opacity="0.66" d="M552.869 145.04C552.869 147.149 551.142 148.874 549.031 148.874H454.015C451.904 148.874 450.177 147.149 450.177 145.04V83.7835C450.177 81.6752 451.904 79.9502 454.015 79.9502H549.031C551.142 79.9502 552.869 81.6752 552.869 83.7835V145.04Z" fill="#27AAE1"/>
</g>
<g opacity="0.66">
<path opacity="0.66" d="M552.946 85.1252C552.946 87.2335 551.219 88.9585 549.108 88.9585H453.938C451.827 88.9585 450.101 87.2335 450.101 85.1252V83.7835C450.101 81.6752 451.827 79.9502 453.938 79.9502H549.108C551.219 79.9502 552.946 81.6752 552.946 83.7835V85.1252Z" fill="#27AAE1"/>
</g>
<g opacity="0.66">
<path opacity="0.66" d="M547.573 106.055C547.573 108.164 545.846 109.889 543.736 109.889H484.868C482.758 109.889 481.031 108.164 481.031 106.055V100.574C481.031 98.4652 482.758 96.7402 484.868 96.7402H543.736C545.846 96.7402 547.573 98.4652 547.573 100.574V106.055Z" fill="#27AAE1"/>
</g>
<g opacity="0.66">
<path opacity="0.66" d="M543.582 116.558C543.582 117.095 541.855 117.516 539.744 117.516H486.058C483.947 117.516 482.22 117.095 482.22 116.558C482.22 116.021 483.947 115.6 486.058 115.6H539.744C541.855 115.6 543.582 116.021 543.582 116.558Z" fill="#27AAE1"/>
</g>
<g opacity="0.66">
<path opacity="0.66" d="M543.428 121.541C543.428 122.078 541.702 122.5 539.591 122.5H485.904C483.794 122.5 482.067 122.078 482.067 121.541C482.067 121.005 483.794 120.583 485.904 120.583H539.591C541.702 120.583 543.428 121.005 543.428 121.541Z" fill="#27AAE1"/>
</g>
<g opacity="0.66">
<path opacity="0.66" d="M543.582 126.87C543.582 127.407 541.855 127.829 539.744 127.829H486.058C483.947 127.829 482.22 127.407 482.22 126.87C482.22 126.334 483.947 125.912 486.058 125.912H539.744C541.855 125.912 543.582 126.334 543.582 126.87Z" fill="#27AAE1"/>
</g>
<g opacity="0.66">
<path opacity="0.66" d="M538.018 131.777C538.018 132.313 536.291 132.735 534.18 132.735H486.096C483.986 132.735 482.259 132.313 482.259 131.777C482.259 131.24 483.986 130.818 486.096 130.818H534.18C536.291 130.857 538.018 131.278 538.018 131.777Z" fill="#27AAE1"/>
</g>
<g opacity="0.66">
<path opacity="0.66" d="M538.248 137.182C538.248 137.719 536.521 138.14 534.411 138.14H486.327C484.216 138.14 482.489 137.719 482.489 137.182C482.489 136.645 484.216 136.224 486.327 136.224H534.411C536.521 136.224 538.248 136.684 538.248 137.182Z" fill="#27AAE1"/>
</g>
<path opacity="0.66" d="M466.563 114.871C472.604 114.871 477.5 109.98 477.5 103.946C477.5 97.9128 472.604 93.0215 466.563 93.0215C460.523 93.0215 455.626 97.9128 455.626 103.946C455.626 109.98 460.523 114.871 466.563 114.871Z" fill="#27AAE1"/>
<g opacity="0.66">
<path opacity="0.66" d="M544.349 101.072C544.349 101.609 542.623 102.069 540.512 102.069H488.706C486.595 102.069 484.868 101.647 484.868 101.072C484.868 100.535 486.595 100.075 488.706 100.075H540.512C542.623 100.075 544.349 100.535 544.349 101.072Z" fill="#27AAE1"/>
</g>
<g opacity="0.66">
<path opacity="0.66" d="M544.349 105.442C544.349 105.979 542.623 106.439 540.512 106.439H488.706C486.595 106.439 484.868 106.017 484.868 105.442C484.868 104.905 486.595 104.445 488.706 104.445H540.512C542.623 104.484 544.349 104.905 544.349 105.442Z" fill="#27AAE1"/>
</g>
<g opacity="0.66">
<path opacity="0.66" d="M456.932 85.9304C457.716 85.9304 458.351 85.2954 458.351 84.5121C458.351 83.7288 457.716 83.0938 456.932 83.0938C456.147 83.0938 455.512 83.7288 455.512 84.5121C455.512 85.2954 456.147 85.9304 456.932 85.9304Z" fill="#27AAE1"/>
<path opacity="0.66" d="M461.613 85.8923C462.397 85.8923 463.033 85.2573 463.033 84.474C463.033 83.6907 462.397 83.0557 461.613 83.0557C460.829 83.0557 460.193 83.6907 460.193 84.474C460.193 85.2573 460.829 85.8923 461.613 85.8923Z" fill="#27AAE1"/>
<path opacity="0.66" d="M466.219 85.8923C467.003 85.8923 467.639 85.2573 467.639 84.474C467.639 83.6907 467.003 83.0557 466.219 83.0557C465.435 83.0557 464.799 83.6907 464.799 84.474C464.799 85.2573 465.435 85.8923 466.219 85.8923Z" fill="#27AAE1"/>
</g>
</g>
<path d="M485.214 141.168C485.214 143.277 483.487 145.002 481.376 145.002H362.414C360.303 145.002 358.576 143.277 358.576 141.168V63.6966C358.576 61.5883 360.303 59.8633 362.414 59.8633H481.376C483.487 59.8633 485.214 61.5883 485.214 63.6966V141.168Z" fill="#E1F4FD"/>
<path d="M485.29 67.1466C485.29 69.255 483.564 70.98 481.453 70.98H362.414C360.303 70.98 358.576 69.255 358.576 67.1466V63.6966C358.576 61.5883 360.303 59.8633 362.414 59.8633H481.453C483.564 59.8633 485.29 61.5883 485.29 63.6966V67.1466Z" fill="#7C7D80"/>
<path d="M437.36 135.61C437.36 137.718 435.633 139.443 433.523 139.443H405.24C403.13 139.443 401.403 137.718 401.403 135.61V107.55C401.403 105.442 403.13 103.717 405.24 103.717H433.523C435.633 103.717 437.36 105.442 437.36 107.55V135.61Z" fill="url(#paint1_linear)"/>
<path d="M478.536 135.61C478.536 137.718 476.81 139.443 474.699 139.443H446.417C444.306 139.443 442.579 137.718 442.579 135.61V107.55C442.579 105.442 444.306 103.717 446.417 103.717H474.699C476.81 103.717 478.536 105.442 478.536 107.55V135.61Z" fill="url(#paint2_linear)"/>
<path d="M480.685 82.2882C480.685 82.9399 478.958 83.5149 476.848 83.5149H402.285C400.175 83.5149 398.448 82.9782 398.448 82.2882C398.448 81.6365 400.175 81.0615 402.285 81.0615H476.848C478.958 81.0999 480.685 81.6365 480.685 82.2882Z" fill="#D1D3D4"/>
<path d="M480.801 89.7638C480.801 90.4154 479.074 90.9904 476.963 90.9904H402.4C400.29 90.9904 398.563 90.4538 398.563 89.7638C398.563 89.0738 400.29 88.5371 402.4 88.5371H476.963C479.074 88.5754 480.801 89.1121 480.801 89.7638Z" fill="#D1D3D4"/>
<path d="M480.801 96.7403C480.801 97.392 479.074 97.967 476.963 97.967H402.4C400.29 97.967 398.563 97.4303 398.563 96.7403C398.563 96.0503 400.29 95.5137 402.4 95.5137H476.963C479.074 95.5137 480.801 96.0503 480.801 96.7403Z" fill="#D1D3D4"/>
<path d="M434.904 129.361C434.904 130.013 433.178 130.588 431.067 130.588H408.004C405.893 130.588 404.166 130.051 404.166 129.361C404.166 128.671 405.893 128.135 408.004 128.135H431.067C433.178 128.173 434.904 128.71 434.904 129.361Z" fill="white"/>
<path d="M476.119 129.553C476.119 130.205 474.392 130.78 472.281 130.78H449.218C447.107 130.78 445.38 130.243 445.38 129.553C445.38 128.863 447.107 128.326 449.218 128.326H472.281C474.392 128.326 476.119 128.863 476.119 129.553Z" fill="white"/>
<path d="M476.119 134.498C476.119 135.15 474.392 135.725 472.281 135.725H449.218C447.107 135.725 445.38 135.188 445.38 134.498C445.38 133.808 447.107 133.271 449.218 133.271H472.281C474.392 133.31 476.119 133.846 476.119 134.498Z" fill="white"/>
<path d="M434.904 134.345C434.904 134.996 433.178 135.571 431.067 135.571H408.004C405.893 135.571 404.166 135.035 404.166 134.345C404.166 133.655 405.893 133.118 408.004 133.118H431.067C433.178 133.118 434.904 133.655 434.904 134.345Z" fill="white"/>
<path d="M378.915 102.951C386.375 102.951 392.423 96.9094 392.423 89.4572C392.423 82.005 386.375 75.9639 378.915 75.9639C371.455 75.9639 365.407 82.005 365.407 89.4572C365.407 96.9094 371.455 102.951 378.915 102.951Z" fill="white"/>
<path d="M418.787 125.682C423.576 125.682 427.459 121.803 427.459 117.019C427.459 112.234 423.576 108.355 418.787 108.355C413.997 108.355 410.114 112.234 410.114 117.019C410.114 121.803 413.997 125.682 418.787 125.682Z" fill="white"/>
<path d="M460.577 126.142C465.6 126.142 469.672 122.074 469.672 117.057C469.672 112.039 465.6 107.972 460.577 107.972C455.554 107.972 451.482 112.039 451.482 117.057C451.482 122.074 455.554 126.142 460.577 126.142Z" fill="white"/>
<path d="M485.214 64.4629H381.064V71.3629H485.214V64.4629Z" fill="#7C7D80"/>
<g opacity="0.27">
<g opacity="0.27">
<path opacity="0.27" d="M485.175 141.245C485.175 143.353 483.449 145.078 481.338 145.078H362.337C360.226 145.078 358.5 143.353 358.5 141.245V63.7347C358.5 61.6264 360.226 59.9014 362.337 59.9014H481.376C483.487 59.9014 485.214 61.6264 485.214 63.7347V141.245H485.175Z" fill="#27AAE1"/>
</g>
<g opacity="0.27">
<path opacity="0.27" d="M485.598 67.2228C485.598 69.3311 483.871 71.0561 481.76 71.0561H362.337C360.226 71.0561 358.5 69.3311 358.5 67.2228V63.7728C358.5 61.6645 360.226 59.9395 362.337 59.9395H481.76C483.871 59.9395 485.598 61.6645 485.598 63.7728V67.2228Z" fill="#27AAE1"/>
</g>
<g opacity="0.27">
<path opacity="0.27" d="M437.284 135.686C437.284 137.795 435.557 139.52 433.446 139.52H405.164C403.053 139.52 401.326 137.795 401.326 135.686V107.626C401.326 105.518 403.053 103.793 405.164 103.793H433.446C435.557 103.793 437.284 105.518 437.284 107.626V135.686Z" fill="#27AAE1"/>
</g>
<g opacity="0.27">
<path opacity="0.27" d="M478.498 135.686C478.498 137.795 476.771 139.52 474.66 139.52H446.378C444.267 139.52 442.541 137.795 442.541 135.686V107.626C442.541 105.518 444.267 103.793 446.378 103.793H474.66C476.771 103.793 478.498 105.518 478.498 107.626V135.686Z" fill="#27AAE1"/>
</g>
<g opacity="0.27">
<path opacity="0.27" d="M480.647 82.3653C480.647 83.017 478.92 83.592 476.81 83.592H402.209C400.098 83.592 398.371 83.0553 398.371 82.3653C398.371 81.6753 400.098 81.1387 402.209 81.1387H476.81C478.92 81.1387 480.647 81.6753 480.647 82.3653Z" fill="#27AAE1"/>
</g>
<g opacity="0.27">
<path opacity="0.27" d="M480.762 89.8399C480.762 90.4916 479.035 91.0666 476.925 91.0666H402.324C400.213 91.0666 398.486 90.5299 398.486 89.8399C398.486 89.1499 400.213 88.6133 402.324 88.6133H476.925C479.035 88.6133 480.762 89.1499 480.762 89.8399Z" fill="#27AAE1"/>
</g>
<g opacity="0.27">
<path opacity="0.27" d="M480.762 96.7774C480.762 97.4291 479.035 98.0041 476.925 98.0041H402.324C400.213 98.0041 398.486 97.4674 398.486 96.7774C398.486 96.0874 400.213 95.5508 402.324 95.5508H476.925C479.035 95.5891 480.762 96.1258 480.762 96.7774Z" fill="#27AAE1"/>
</g>
<g opacity="0.27">
<path opacity="0.27" d="M434.866 129.438C434.866 130.089 433.139 130.664 431.028 130.664H407.965C405.854 130.664 404.127 130.128 404.127 129.438C404.127 128.786 405.854 128.211 407.965 128.211H431.028C433.139 128.211 434.866 128.748 434.866 129.438Z" fill="#27AAE1"/>
</g>
<g opacity="0.27">
<path opacity="0.27" d="M476.081 129.592C476.081 130.244 474.354 130.819 472.243 130.819H449.18C447.069 130.819 445.342 130.282 445.342 129.592C445.342 128.902 447.069 128.365 449.18 128.365H472.243C474.354 128.404 476.081 128.94 476.081 129.592Z" fill="#27AAE1"/>
</g>
<g opacity="0.27">
<path opacity="0.27" d="M476.081 134.575C476.081 135.227 474.354 135.802 472.243 135.802H449.18C447.069 135.802 445.342 135.265 445.342 134.575C445.342 133.924 447.069 133.349 449.18 133.349H472.243C474.354 133.349 476.081 133.924 476.081 134.575Z" fill="#27AAE1"/>
</g>
<g opacity="0.27">
<path opacity="0.27" d="M434.866 134.383C434.866 135.035 433.139 135.61 431.028 135.61H407.965C405.854 135.61 404.127 135.073 404.127 134.383C404.127 133.693 405.854 133.156 407.965 133.156H431.028C433.139 133.195 434.866 133.731 434.866 134.383Z" fill="#27AAE1"/>
</g>
<path opacity="0.27" d="M378.838 103.027C386.298 103.027 392.346 96.9855 392.346 89.5334C392.346 82.0812 386.298 76.04 378.838 76.04C371.378 76.04 365.33 82.0812 365.33 89.5334C365.33 96.9855 371.378 103.027 378.838 103.027Z" fill="#27AAE1"/>
<path opacity="0.27" d="M418.748 125.72C423.538 125.72 427.421 121.842 427.421 117.057C427.421 112.272 423.538 108.394 418.748 108.394C413.959 108.394 410.076 112.272 410.076 117.057C410.076 121.842 413.959 125.72 418.748 125.72Z" fill="#27AAE1"/>
<path opacity="0.27" d="M460.539 126.218C465.562 126.218 469.634 122.15 469.634 117.133C469.634 112.115 465.562 108.048 460.539 108.048C455.516 108.048 451.444 112.115 451.444 117.133C451.444 122.15 455.516 126.218 460.539 126.218Z" fill="#27AAE1"/>
<g opacity="0.27">
<path opacity="0.27" d="M365.138 67.1082C366.092 67.1082 366.865 66.3359 366.865 65.3832C366.865 64.4305 366.092 63.6582 365.138 63.6582C364.185 63.6582 363.412 64.4305 363.412 65.3832C363.412 66.3359 364.185 67.1082 365.138 67.1082Z" fill="#27AAE1"/>
<path opacity="0.27" d="M370.895 67.0701C371.849 67.0701 372.622 66.2978 372.622 65.3451C372.622 64.3924 371.849 63.6201 370.895 63.6201C369.941 63.6201 369.168 64.3924 369.168 65.3451C369.168 66.2978 369.941 67.0701 370.895 67.0701Z" fill="#27AAE1"/>
<path opacity="0.27" d="M376.613 67.0701C377.566 67.0701 378.339 66.2978 378.339 65.3451C378.339 64.3924 377.566 63.6201 376.613 63.6201C375.659 63.6201 374.886 64.3924 374.886 65.3451C374.886 66.2978 375.659 67.0701 376.613 67.0701Z" fill="#27AAE1"/>
</g>
</g>
<path d="M175.566 146.842C175.566 148.95 173.839 150.675 171.729 150.675H69.1139C67.0032 150.675 65.2764 148.95 65.2764 146.842V80.5638C65.2764 78.4555 67.0032 76.7305 69.1139 76.7305H171.767C173.878 76.7305 175.604 78.4555 175.604 80.5638V146.842H175.566Z" fill="#E1F4FD"/>
<path d="M175.604 82.5571C175.604 84.6655 173.878 86.3905 171.767 86.3905H69.1139C67.0032 86.3905 65.2764 84.6655 65.2764 82.5571V80.5638C65.2764 78.4555 67.0032 76.7305 69.1139 76.7305H171.767C173.878 76.7305 175.604 78.4555 175.604 80.5638V82.5571Z" fill="#7C7D80"/>
<path d="M169.964 108.087C169.964 110.195 168.237 111.92 166.126 111.92H101.426C99.3153 111.92 97.5884 110.195 97.5884 108.087V96.472C97.5884 94.3637 99.3153 92.6387 101.426 92.6387H166.126C168.237 92.6387 169.964 94.3637 169.964 96.472V108.087Z" fill="url(#paint3_linear)"/>
<path d="M169.465 122.501C169.465 123.076 167.738 123.536 165.627 123.536H75.0621C72.9515 123.536 71.2246 123.076 71.2246 122.501C71.2246 121.926 72.9515 121.466 75.0621 121.466H165.627C167.738 121.466 169.465 121.926 169.465 122.501Z" fill="#D1D3D4"/>
<path d="M169.387 127.638C169.387 128.213 167.661 128.673 165.55 128.673H75.6373C73.5267 128.673 71.7998 128.213 71.7998 127.638C71.7998 127.063 73.5267 126.603 75.6373 126.603H165.55C167.661 126.564 169.387 127.063 169.387 127.638Z" fill="#D1D3D4"/>
<path d="M169.311 133.195C169.311 133.77 167.584 134.23 165.474 134.23H75.4459C73.3353 134.23 71.6084 133.77 71.6084 133.195C71.6084 132.62 73.3353 132.16 75.4459 132.16H165.474C167.584 132.122 169.311 132.62 169.311 133.195Z" fill="#D1D3D4"/>
<path d="M169.311 138.754C169.311 139.329 167.584 139.789 165.474 139.789H75.4459C73.3353 139.789 71.6084 139.329 71.6084 138.754C71.6084 138.179 73.3353 137.719 75.4459 137.719H165.474C167.584 137.719 169.311 138.179 169.311 138.754Z" fill="#D1D3D4"/>
<path d="M82.8907 114.182C89.376 114.182 94.6334 108.93 94.6334 102.452C94.6334 95.9734 89.376 90.7217 82.8907 90.7217C76.4054 90.7217 71.1479 95.9734 71.1479 102.452C71.1479 108.93 76.4054 114.182 82.8907 114.182Z" fill="white"/>
<path d="M106.606 109.276C110.464 109.276 113.591 106.152 113.591 102.299C113.591 98.4458 110.464 95.3223 106.606 95.3223C102.749 95.3223 99.6221 98.4458 99.6221 102.299C99.6221 106.152 102.749 109.276 106.606 109.276Z" fill="white"/>
<path d="M167.354 99.117C167.354 99.692 165.627 100.152 163.516 100.152H120.306C118.196 100.152 116.469 99.692 116.469 99.117C116.469 98.542 118.196 98.082 120.306 98.082H163.478C165.627 98.082 167.354 98.542 167.354 99.117Z" fill="white"/>
<path d="M167.277 104.599C167.277 105.174 165.55 105.634 163.44 105.634H120.268C118.157 105.634 116.43 105.174 116.43 104.599C116.43 104.024 118.157 103.564 120.268 103.564H163.44C165.55 103.525 167.277 104.024 167.277 104.599Z" fill="white"/>
<path d="M72.6446 83.0164C73.4711 83.0164 74.1412 82.3471 74.1412 81.5214C74.1412 80.6957 73.4711 80.0264 72.6446 80.0264C71.818 80.0264 71.1479 80.6957 71.1479 81.5214C71.1479 82.3471 71.818 83.0164 72.6446 83.0164Z" fill="white"/>
<path d="M77.6333 82.9783C78.4599 82.9783 79.13 82.3089 79.13 81.4833C79.13 80.6576 78.4599 79.9883 77.6333 79.9883C76.8068 79.9883 76.1367 80.6576 76.1367 81.4833C76.1367 82.3089 76.8068 82.9783 77.6333 82.9783Z" fill="white"/>
<path d="M82.584 82.9783C83.4106 82.9783 84.0807 82.3089 84.0807 81.4833C84.0807 80.6576 83.4106 79.9883 82.584 79.9883C81.7575 79.9883 81.0874 80.6576 81.0874 81.4833C81.0874 82.3089 81.7575 82.9783 82.584 82.9783Z" fill="white"/>
<g opacity="0.6">
<g opacity="0.6">
<path opacity="0.6" d="M175.566 146.918C175.566 149.027 173.839 150.752 171.729 150.752H69.1139C67.0032 150.752 65.2764 149.027 65.2764 146.918V80.64C65.2764 78.5316 67.0032 76.8066 69.1139 76.8066H171.767C173.878 76.8066 175.604 78.5316 175.604 80.64V146.918H175.566Z" fill="#27AAE1"/>
</g>
<g opacity="0.6">
<path opacity="0.6" d="M175.604 82.6333C175.604 84.7416 173.878 86.4666 171.767 86.4666H69.1139C67.0032 86.4666 65.2764 84.7416 65.2764 82.6333V80.64C65.2764 78.5316 67.0032 76.8066 69.1139 76.8066H171.767C173.878 76.8066 175.604 78.5316 175.604 80.64V82.6333Z" fill="#27AAE1"/>
</g>
<g opacity="0.6">
<path opacity="0.6" d="M169.964 108.163C169.964 110.272 168.237 111.997 166.126 111.997H101.426C99.3153 111.997 97.5884 110.272 97.5884 108.163V96.5482C97.5884 94.4398 99.3153 92.7148 101.426 92.7148H166.126C168.237 92.7148 169.964 94.4398 169.964 96.5482V108.163Z" fill="#27AAE1"/>
</g>
<g opacity="0.6">
<path opacity="0.6" d="M169.465 122.577C169.465 123.152 167.738 123.612 165.627 123.612H75.0621C72.9515 123.612 71.2246 123.152 71.2246 122.577C71.2246 122.002 72.9515 121.542 75.0621 121.542H165.627C167.738 121.542 169.465 122.002 169.465 122.577Z" fill="#27AAE1"/>
</g>
<g opacity="0.6">
<path opacity="0.6" d="M169.387 127.714C169.387 128.289 167.661 128.749 165.55 128.749H75.6373C73.5267 128.749 71.7998 128.289 71.7998 127.714C71.7998 127.139 73.5267 126.679 75.6373 126.679H165.55C167.661 126.64 169.387 127.139 169.387 127.714Z" fill="#27AAE1"/>
</g>
<g opacity="0.6">
<path opacity="0.6" d="M169.311 133.271C169.311 133.846 167.584 134.306 165.474 134.306H75.4459C73.3353 134.306 71.6084 133.846 71.6084 133.271C71.6084 132.696 73.3353 132.236 75.4459 132.236H165.474C167.584 132.198 169.311 132.696 169.311 133.271Z" fill="#27AAE1"/>
</g>
<g opacity="0.6">
<path opacity="0.6" d="M169.311 138.868C169.311 139.443 167.584 139.903 165.474 139.903H75.4459C73.3353 139.903 71.6084 139.443 71.6084 138.868C71.6084 138.293 73.3353 137.833 75.4459 137.833H165.474C167.584 137.795 169.311 138.255 169.311 138.868Z" fill="#27AAE1"/>
</g>
<path opacity="0.6" d="M82.8907 114.258C89.376 114.258 94.6334 109.006 94.6334 102.528C94.6334 96.0495 89.376 90.7979 82.8907 90.7979C76.4054 90.7979 71.1479 96.0495 71.1479 102.528C71.1479 109.006 76.4054 114.258 82.8907 114.258Z" fill="#27AAE1"/>
<path opacity="0.6" d="M106.606 109.39C110.464 109.39 113.591 106.266 113.591 102.413C113.591 98.5601 110.464 95.4365 106.606 95.4365C102.749 95.4365 99.6221 98.5601 99.6221 102.413C99.6221 106.266 102.749 109.39 106.606 109.39Z" fill="#27AAE1"/>
<g opacity="0.6">
<path opacity="0.6" d="M167.354 99.1932C167.354 99.7682 165.627 100.228 163.516 100.228H120.306C118.196 100.228 116.469 99.7682 116.469 99.1932C116.469 98.6182 118.196 98.1582 120.306 98.1582H163.478C165.627 98.1582 167.354 98.6182 167.354 99.1932Z" fill="#27AAE1"/>
</g>
<g opacity="0.6">
<path opacity="0.6" d="M167.277 104.675C167.277 105.25 165.55 105.71 163.44 105.71H120.268C118.157 105.71 116.43 105.25 116.43 104.675C116.43 104.1 118.157 103.64 120.268 103.64H163.44C165.55 103.64 167.277 104.1 167.277 104.675Z" fill="#27AAE1"/>
</g>
<g opacity="0.6">
<path opacity="0.6" d="M72.6446 83.1316C73.4711 83.1316 74.1412 82.4623 74.1412 81.6366C74.1412 80.8109 73.4711 80.1416 72.6446 80.1416C71.818 80.1416 71.1479 80.8109 71.1479 81.6366C71.1479 82.4623 71.818 83.1316 72.6446 83.1316Z" fill="#27AAE1"/>
<path opacity="0.6" d="M77.6333 83.0935C78.4599 83.0935 79.13 82.4242 79.13 81.5985C79.13 80.7729 78.4599 80.1035 77.6333 80.1035C76.8068 80.1035 76.1367 80.7729 76.1367 81.5985C76.1367 82.4242 76.8068 83.0935 77.6333 83.0935Z" fill="#27AAE1"/>
<path opacity="0.6" d="M82.584 83.0935C83.4106 83.0935 84.0807 82.4242 84.0807 81.5985C84.0807 80.7729 83.4106 80.1035 82.584 80.1035C81.7575 80.1035 81.0874 80.7729 81.0874 81.5985C81.0874 82.4242 81.7575 83.0935 82.584 83.0935Z" fill="#27AAE1"/>
</g>
</g>
<path d="M255.77 142.242C255.77 144.35 254.043 146.075 251.932 146.075H133.814C131.703 146.075 129.977 144.35 129.977 142.242V65.1917C129.977 63.0834 131.703 61.3584 133.814 61.3584H251.894C254.005 61.3584 255.731 63.0834 255.731 65.1917V142.242H255.77Z" fill="#E1F4FD"/>
<path d="M255.77 68.6034C255.77 70.7117 254.043 72.4367 251.933 72.4367H133.853C131.742 72.4367 130.015 70.7117 130.015 68.6034V65.1917C130.015 63.0834 131.742 61.3584 133.853 61.3584H251.933C254.043 61.3584 255.77 63.0834 255.77 65.1917V68.6034Z" fill="#7C7D80"/>
<path d="M137.229 68.948C138.183 68.948 138.956 68.1757 138.956 67.223C138.956 66.2704 138.183 65.498 137.229 65.498C136.276 65.498 135.502 66.2704 135.502 67.223C135.502 68.1757 136.276 68.948 137.229 68.948Z" fill="white"/>
<path d="M142.947 68.91C143.901 68.91 144.674 68.1376 144.674 67.185C144.674 66.2323 143.901 65.46 142.947 65.46C141.993 65.46 141.22 66.2323 141.22 67.185C141.22 68.1376 141.993 68.91 142.947 68.91Z" fill="white"/>
<path d="M148.627 68.91C149.58 68.91 150.354 68.1376 150.354 67.185C150.354 66.2323 149.58 65.46 148.627 65.46C147.673 65.46 146.9 66.2323 146.9 67.185C146.9 68.1376 147.673 68.91 148.627 68.91Z" fill="white"/>
<path d="M285.05 69.2168H129.977V74.5835H285.05V69.2168Z" fill="#7C7D80"/>
<path d="M478.422 391.447C478.422 393.555 476.695 395.28 474.584 395.28H143.715C141.604 395.28 139.877 393.555 139.877 391.447V190.963C139.877 188.855 141.604 187.13 143.715 187.13H474.623C476.733 187.13 478.46 188.855 478.46 190.963V391.447H478.422Z" fill="#E1F4FD"/>
<path d="M478.844 201.467C478.844 203.575 477.117 205.3 475.006 205.3H143.715C141.604 205.3 139.877 203.575 139.877 201.467V190.925C139.877 188.817 141.604 187.092 143.715 187.092H475.006C477.117 187.092 478.844 188.817 478.844 190.925V201.467Z" fill="#7C7D80"/>
<path d="M470.286 246.241C470.286 248.349 468.559 250.074 466.448 250.074H244.833C242.722 250.074 240.995 248.349 240.995 246.241V215.076C240.995 212.967 242.722 211.242 244.833 211.242H466.487C468.597 211.242 470.324 212.967 470.324 215.076V246.241H470.286Z" fill="url(#paint4_linear)"/>
<path d="M473.548 292.739C473.548 294.847 471.821 296.572 469.71 296.572H244.948C242.837 296.572 241.11 294.847 241.11 292.739V261.574C241.11 259.465 242.837 257.74 244.948 257.74H469.672C471.782 257.74 473.509 259.465 473.509 261.574V292.739H473.548Z" fill="url(#paint5_linear)"/>
<path d="M379.337 383.473C379.337 385.582 377.611 387.307 375.5 387.307H154.921C152.81 387.307 151.083 385.582 151.083 383.473V306.385C151.083 304.277 152.81 302.552 154.921 302.552H375.5C377.611 302.552 379.337 304.277 379.337 306.385V383.473Z" fill="url(#paint6_linear)"/>
<path d="M237.734 293.697C237.734 295.805 236.007 297.53 233.896 297.53H154.69C152.579 297.53 150.853 295.805 150.853 293.697V214.194C150.853 212.085 152.579 210.36 154.69 210.36H233.896C236.007 210.36 237.734 212.085 237.734 214.194V293.697Z" fill="url(#paint7_linear)"/>
<path d="M472.128 382.515C472.128 384.623 470.401 386.348 468.29 386.348H387.549C385.439 386.348 383.712 384.623 383.712 382.515V307.152C383.712 305.043 385.439 303.318 387.549 303.318H468.29C470.401 303.318 472.128 305.043 472.128 307.152V382.515Z" fill="url(#paint8_linear)"/>
<path d="M230.25 377.838C230.25 379.947 228.523 381.672 226.413 381.672H159.103C156.993 381.672 155.266 379.947 155.266 377.838V311.982C155.266 309.873 156.993 308.148 159.103 308.148H226.413C228.523 308.148 230.25 309.873 230.25 311.982V377.838Z" fill="white"/>
<path d="M269.585 337.894C269.585 340.003 267.858 341.728 265.747 341.728H239.461C237.35 341.728 235.623 340.003 235.623 337.894V312.249C235.623 310.141 237.35 308.416 239.461 308.416H265.747C267.858 308.416 269.585 310.141 269.585 312.249V337.894Z" fill="white"/>
<path d="M269.316 376.804C269.316 378.912 267.589 380.637 265.479 380.637H239.192C237.081 380.637 235.354 378.912 235.354 376.804V351.159C235.354 349.05 237.081 347.325 239.192 347.325H265.479C267.589 347.325 269.316 349.05 269.316 351.159V376.804Z" fill="white"/>
<path d="M310.032 337.627C310.032 339.735 308.305 341.46 306.195 341.46H279.908C277.797 341.46 276.07 339.735 276.07 337.627V311.982C276.07 309.873 277.797 308.148 279.908 308.148H306.195C308.305 308.148 310.032 309.873 310.032 311.982V337.627Z" fill="white"/>
<path d="M374.31 337.627C374.31 339.735 372.583 341.46 370.472 341.46H317.63C315.519 341.46 313.792 339.735 313.792 337.627V311.982C313.792 309.873 315.519 308.148 317.63 308.148H370.472C372.583 308.148 374.31 309.873 374.31 311.982V337.627Z" fill="white"/>
<path d="M374.31 376.535C374.31 378.643 372.583 380.368 370.472 380.368H317.63C315.519 380.368 313.792 378.643 313.792 376.535V350.89C313.792 348.782 315.519 347.057 317.63 347.057H370.472C372.583 347.057 374.31 348.782 374.31 350.89V376.535Z" fill="white"/>
<path d="M310.032 376.266C310.032 378.375 308.305 380.1 306.195 380.1H279.908C277.797 380.1 276.07 378.375 276.07 376.266V350.621C276.07 348.513 277.797 346.788 279.908 346.788H306.195C308.305 346.788 310.032 348.513 310.032 350.621V376.266Z" fill="white"/>
<path d="M225.492 271.501C225.492 273.111 223.765 274.453 221.654 274.453H169.195C167.085 274.453 165.358 273.111 165.358 271.501C165.358 269.891 167.085 268.55 169.195 268.55H221.654C223.765 268.55 225.492 269.853 225.492 271.501Z" fill="white"/>
<path d="M463.801 265.521C463.801 266.595 462.956 267.438 461.882 267.438H246.445C245.37 267.438 244.526 266.595 244.526 265.521V265.483C244.526 264.41 245.37 263.566 246.445 263.566H461.882C462.956 263.566 463.801 264.41 463.801 265.521Z" fill="white"/>
<path d="M463.801 275.91C463.801 276.983 462.956 277.827 461.882 277.827H246.445C245.37 277.827 244.526 276.983 244.526 275.91V275.872C244.526 274.798 245.37 273.955 246.445 273.955H461.882C462.956 273.955 463.801 274.837 463.801 275.91Z" fill="white"/>
<path d="M436.861 285.608C436.861 286.682 436.017 287.525 434.943 287.525H246.713C245.639 287.525 244.794 286.682 244.794 285.608V285.57C244.794 284.497 245.639 283.653 246.713 283.653H434.943C435.979 283.692 436.861 284.535 436.861 285.608Z" fill="white"/>
<path d="M463.302 309.95C463.302 311.023 462.458 311.867 461.383 311.867H394.611C393.536 311.867 392.692 311.023 392.692 309.95V309.912C392.692 308.838 393.536 307.995 394.611 307.995H461.383C462.458 307.995 463.302 308.838 463.302 309.95Z" fill="white"/>
<path d="M463.033 317.617C463.033 318.69 462.189 319.534 461.114 319.534H394.342C393.267 319.534 392.423 318.69 392.423 317.617V317.579C392.423 316.505 393.267 315.662 394.342 315.662H461.114C462.189 315.662 463.033 316.544 463.033 317.617Z" fill="white"/>
<path d="M463.033 325.667C463.033 326.74 462.189 327.584 461.114 327.584H394.342C393.267 327.584 392.423 326.74 392.423 325.667V325.629C392.423 324.555 393.267 323.712 394.342 323.712H461.114C462.189 323.712 463.033 324.594 463.033 325.667Z" fill="white"/>
<path d="M463.57 342.304C463.57 343.377 462.726 344.22 461.652 344.22H394.879C393.805 344.22 392.96 343.377 392.96 342.304V342.265C392.96 341.192 393.805 340.349 394.879 340.349H461.652C462.726 340.349 463.57 341.192 463.57 342.304Z" fill="white"/>
<path d="M463.724 349.971C463.724 351.044 462.88 351.887 461.805 351.887H395.033C393.958 351.887 393.114 351.044 393.114 349.971V349.932C393.114 348.859 393.958 348.016 395.033 348.016H461.805C462.841 348.016 463.724 348.897 463.724 349.971Z" fill="white"/>
<path d="M463.724 358.288C463.724 359.361 462.88 360.205 461.805 360.205H395.033C393.958 360.205 393.114 359.361 393.114 358.288V358.25C393.114 357.176 393.958 356.333 395.033 356.333H461.805C462.841 356.333 463.724 357.176 463.724 358.288Z" fill="white"/>
<path d="M463.724 372.395C463.724 373.469 462.88 374.312 461.805 374.312H395.033C393.958 374.312 393.114 373.469 393.114 372.395V372.357C393.114 371.284 393.958 370.44 395.033 370.44H461.805C462.841 370.479 463.724 371.322 463.724 372.395Z" fill="white"/>
<path d="M463.724 379.717C463.724 380.79 462.88 381.633 461.805 381.633H395.033C393.958 381.633 393.114 380.79 393.114 379.717V379.678C393.114 378.605 393.958 377.762 395.033 377.762H461.805C462.841 377.762 463.724 378.643 463.724 379.717Z" fill="white"/>
<path d="M225.492 281.468C225.492 283.078 223.765 284.42 221.654 284.42H169.195C167.085 284.42 165.358 283.078 165.358 281.468C165.358 279.858 167.085 278.517 169.195 278.517H221.654C223.765 278.517 225.492 279.858 225.492 281.468Z" fill="white"/>
<path d="M193.103 263.336C206.243 263.336 216.896 252.695 216.896 239.569C216.896 226.443 206.243 215.803 193.103 215.803C179.963 215.803 169.311 226.443 169.311 239.569C169.311 252.695 179.963 263.336 193.103 263.336Z" fill="white"/>
<path d="M160.485 200.47C162.837 200.47 164.744 198.565 164.744 196.215C164.744 193.865 162.837 191.96 160.485 191.96C158.132 191.96 156.225 193.865 156.225 196.215C156.225 198.565 158.132 200.47 160.485 200.47Z" fill="white"/>
<path d="M174.53 200.355C176.882 200.355 178.789 198.45 178.789 196.1C178.789 193.75 176.882 191.845 174.53 191.845C172.177 191.845 170.27 193.75 170.27 196.1C170.27 198.45 172.177 200.355 174.53 200.355Z" fill="white"/>
<path d="M188.498 200.355C190.851 200.355 192.758 198.45 192.758 196.1C192.758 193.75 190.851 191.845 188.498 191.845C186.146 191.845 184.239 193.75 184.239 196.1C184.239 198.45 186.146 200.355 188.498 200.355Z" fill="white"/>
<path d="M365.215 67.0701C366.169 67.0701 366.942 66.2978 366.942 65.3451C366.942 64.3924 366.169 63.6201 365.215 63.6201C364.261 63.6201 363.488 64.3924 363.488 65.3451C363.488 66.2978 364.261 67.0701 365.215 67.0701Z" fill="white"/>
<path d="M370.972 67.032C371.925 67.032 372.698 66.2597 372.698 65.307C372.698 64.3543 371.925 63.582 370.972 63.582C370.018 63.582 369.245 64.3543 369.245 65.307C369.245 66.2597 370.018 67.032 370.972 67.032Z" fill="white"/>
<path d="M376.689 67.032C377.643 67.032 378.416 66.2597 378.416 65.307C378.416 64.3543 377.643 63.582 376.689 63.582C375.736 63.582 374.962 64.3543 374.962 65.307C374.962 66.2597 375.736 67.032 376.689 67.032Z" fill="white"/>
<path d="M249.284 100.266C249.284 102.375 247.558 104.1 245.447 104.1H170.961C168.85 104.1 167.124 102.375 167.124 100.266V81.598C167.124 79.4896 168.85 77.7646 170.961 77.7646H245.447C247.558 77.7646 249.284 79.4896 249.284 81.598V100.266Z" fill="url(#paint9_linear)"/>
<path d="M162.787 131.048C162.787 133.156 161.06 134.881 158.949 134.881H140.261C138.15 134.881 136.423 133.156 136.423 131.048V113.951C136.423 111.843 138.15 110.118 140.261 110.118H158.949C161.06 110.118 162.787 111.843 162.787 113.951V131.048Z" fill="url(#paint10_linear)"/>
<path d="M248.632 119.702C248.632 120.354 246.905 120.89 244.794 120.89H171.306C169.196 120.89 167.469 120.354 167.469 119.702C167.469 119.05 169.196 118.514 171.306 118.514H244.794C246.905 118.475 248.632 119.012 248.632 119.702Z" fill="#D1D3D4"/>
<path d="M248.632 112.265C248.632 112.917 246.905 113.454 244.794 113.454H170.846C168.735 113.454 167.008 112.917 167.008 112.265C167.008 111.614 168.735 111.077 170.846 111.077H244.794C246.905 111.077 248.632 111.614 248.632 112.265Z" fill="#D1D3D4"/>
<path d="M248.632 132.811C248.632 133.463 246.905 134 244.794 134H170.385C168.275 134 166.548 133.463 166.548 132.811C166.548 132.16 168.275 131.623 170.385 131.623H244.794C246.905 131.623 248.632 132.16 248.632 132.811Z" fill="#D1D3D4"/>
<path d="M248.517 126.065C248.517 126.717 246.79 127.253 244.679 127.253H171.153C169.042 127.253 167.315 126.717 167.315 126.065C167.315 125.413 169.042 124.877 171.153 124.877H244.679C246.79 124.838 248.517 125.413 248.517 126.065Z" fill="#D1D3D4"/>
<path d="M149.586 104.253C157.004 104.253 163.017 98.2464 163.017 90.8366C163.017 83.4268 157.004 77.4199 149.586 77.4199C142.168 77.4199 136.155 83.4268 136.155 90.8366C136.155 98.2464 142.168 104.253 149.586 104.253Z" fill="white"/>
<path d="M149.471 132.506C154.897 132.506 159.295 128.112 159.295 122.692C159.295 117.272 154.897 112.879 149.471 112.879C144.045 112.879 139.647 117.272 139.647 122.692C139.647 128.112 144.045 132.506 149.471 132.506Z" fill="white"/>
<path d="M245.716 84.4354C245.716 85.0871 243.989 85.6237 241.878 85.6237H175.297C173.187 85.6237 171.46 85.0871 171.46 84.4354C171.46 83.7837 173.187 83.2471 175.297 83.2471H241.878C243.989 83.2471 245.716 83.7837 245.716 84.4354Z" fill="white"/>
<path d="M245.716 96.0497C245.716 96.7013 243.989 97.238 241.878 97.238H175.297C173.187 97.238 171.46 96.7013 171.46 96.0497C171.46 95.398 173.187 94.8613 175.297 94.8613H241.878C243.989 94.8613 245.716 95.398 245.716 96.0497Z" fill="white"/>
<path d="M245.716 90.3768C245.716 91.0285 243.989 91.5651 241.878 91.5651H175.297C173.187 91.5651 171.46 91.0285 171.46 90.3768C171.46 89.7251 173.187 89.1885 175.297 89.1885H241.878C243.989 89.1885 245.716 89.7251 245.716 90.3768Z" fill="white"/>
<g opacity="0.28">
<g opacity="0.28">
<path opacity="0.28" d="M255.463 142.204C255.463 144.312 253.736 146.037 251.625 146.037H133.737C131.627 146.037 129.9 144.312 129.9 142.204V65.1536C129.9 63.0453 131.627 61.3203 133.737 61.3203H251.625C253.736 61.3203 255.463 63.0453 255.463 65.1536V142.204Z" fill="#27AAE1"/>
</g>
<g opacity="0.28">
<path opacity="0.28" d="M255.463 68.5653C255.463 70.6737 253.736 72.3987 251.625 72.3987H133.123C131.013 72.3987 129.286 70.6737 129.286 68.5653V65.1536C129.286 63.0453 131.013 61.3203 133.123 61.3203H251.625C253.736 61.3203 255.463 63.0453 255.463 65.1536V68.5653Z" fill="#27AAE1"/>
</g>
<g opacity="0.28">
<path opacity="0.28" d="M249.016 100.228C249.016 102.337 247.289 104.062 245.178 104.062H170.846C168.735 104.062 167.008 102.337 167.008 100.228V81.5599C167.008 79.4516 168.735 77.7266 170.846 77.7266H245.178C247.289 77.7266 249.016 79.4516 249.016 81.5599V100.228Z" fill="#27AAE1"/>
</g>
<g opacity="0.28">
<path opacity="0.28" d="M162.634 131.01C162.634 133.118 160.907 134.843 158.796 134.843H140.146C138.035 134.843 136.309 133.118 136.309 131.01V113.913C136.309 111.805 138.035 110.08 140.146 110.08H158.796C160.907 110.08 162.634 111.805 162.634 113.913V131.01Z" fill="#27AAE1"/>
</g>
<g opacity="0.28">
<path opacity="0.28" d="M248.363 119.664C248.363 120.316 246.637 120.852 244.526 120.852H171.153C169.042 120.852 167.315 120.316 167.315 119.664C167.315 119.012 169.042 118.476 171.153 118.476H244.526C246.637 118.437 248.363 118.974 248.363 119.664Z" fill="#27AAE1"/>
</g>
<g opacity="0.28">
<path opacity="0.28" d="M248.363 112.227C248.363 112.879 246.636 113.416 244.525 113.416H170.692C168.581 113.416 166.854 112.879 166.854 112.227C166.854 111.576 168.581 111.039 170.692 111.039H244.525C246.636 111.039 248.363 111.576 248.363 112.227Z" fill="#27AAE1"/>
</g>
<g opacity="0.28">
<path opacity="0.28" d="M248.363 132.774C248.363 133.426 246.637 133.963 244.526 133.963H170.232C168.121 133.963 166.395 133.426 166.395 132.774C166.395 132.123 168.121 131.586 170.232 131.586H244.526C246.637 131.586 248.363 132.123 248.363 132.774Z" fill="#27AAE1"/>
</g>
<g opacity="0.28">
<path opacity="0.28" d="M248.248 126.027C248.248 126.679 246.521 127.216 244.411 127.216H171.038C168.927 127.216 167.2 126.679 167.2 126.027C167.2 125.376 168.927 124.839 171.038 124.839H244.449C246.521 124.839 248.248 125.376 248.248 126.027Z" fill="#27AAE1"/>
</g>
<path opacity="0.28" d="M149.432 104.215C156.85 104.215 162.863 98.2083 162.863 90.7985C162.863 83.3887 156.85 77.3818 149.432 77.3818C142.014 77.3818 136.001 83.3887 136.001 90.7985C136.001 98.2083 142.014 104.215 149.432 104.215Z" fill="#27AAE1"/>
<path opacity="0.28" d="M149.356 132.466C154.76 132.466 159.142 128.073 159.142 122.653C159.142 117.233 154.76 112.84 149.356 112.84C143.951 112.84 139.57 117.233 139.57 122.653C139.57 128.073 143.951 132.466 149.356 132.466Z" fill="#27AAE1"/>
<g opacity="0.28">
<path opacity="0.28" d="M245.408 84.3973C245.408 85.049 243.681 85.5856 241.571 85.5856H175.144C173.033 85.5856 171.306 85.049 171.306 84.3973C171.306 83.7457 173.033 83.209 175.144 83.209H241.609C243.681 83.209 245.408 83.7457 245.408 84.3973Z" fill="#27AAE1"/>
</g>
<g opacity="0.28">
<path opacity="0.28" d="M245.408 96.0116C245.408 96.6632 243.681 97.1999 241.571 97.1999H175.144C173.033 97.1999 171.306 96.6632 171.306 96.0116C171.306 95.3599 173.033 94.8232 175.144 94.8232H241.609C243.681 94.8232 245.408 95.3599 245.408 96.0116Z" fill="#27AAE1"/>
</g>
<g opacity="0.28">
<path opacity="0.28" d="M245.408 90.3387C245.408 90.9904 243.681 91.5271 241.571 91.5271H175.144C173.033 91.5271 171.306 90.9904 171.306 90.3387C171.306 89.6871 173.033 89.1504 175.144 89.1504H241.609C243.681 89.1504 245.408 89.6871 245.408 90.3387Z" fill="#27AAE1"/>
</g>
<g opacity="0.28">
<path opacity="0.28" d="M137.153 68.91C138.106 68.91 138.88 68.1377 138.88 67.185C138.88 66.2323 138.106 65.46 137.153 65.46C136.199 65.46 135.426 66.2323 135.426 67.185C135.426 68.1377 136.199 68.91 137.153 68.91Z" fill="#27AAE1"/>
<path opacity="0.28" d="M142.832 68.8719C143.786 68.8719 144.559 68.0996 144.559 67.1469C144.559 66.1942 143.786 65.4219 142.832 65.4219C141.879 65.4219 141.105 66.1942 141.105 67.1469C141.105 68.0996 141.879 68.8719 142.832 68.8719Z" fill="#27AAE1"/>
<path opacity="0.28" d="M148.512 68.8719C149.465 68.8719 150.238 68.0996 150.238 67.1469C150.238 66.1942 149.465 65.4219 148.512 65.4219C147.558 65.4219 146.785 66.1942 146.785 67.1469C146.785 68.0996 147.558 68.8719 148.512 68.8719Z" fill="#27AAE1"/>
</g>
</g>
<path d="M380.757 137.259C380.757 139.367 379.03 141.092 376.92 141.092H229.752C227.641 141.092 225.914 139.367 225.914 137.259V41.0804C225.914 38.9721 227.641 37.2471 229.752 37.2471H376.92C379.03 37.2471 380.757 38.9721 380.757 41.0804V137.259Z" fill="#E1F4FD"/>
<path d="M380.872 46.9837C380.872 49.0921 379.145 50.8171 377.035 50.8171H229.752C227.641 50.8171 225.914 49.0921 225.914 46.9837V41.0804C225.914 38.9721 227.641 37.2471 229.752 37.2471H376.996C379.107 37.2471 380.834 38.9721 380.834 41.0804V46.9837H380.872Z" fill="#7C7D80"/>
<path d="M323.501 79.528C323.501 81.6364 321.774 83.3614 319.664 83.3614H276.147C274.036 83.3614 272.309 81.6364 272.309 79.528V66.763C272.309 64.6547 274.036 62.9297 276.147 62.9297H319.664C321.774 62.9297 323.501 64.6547 323.501 66.763V79.528Z" fill="url(#paint11_linear)"/>
<path d="M374.041 69.37C374.041 69.9834 373.543 70.52 372.89 70.52H328.337C327.684 70.52 327.186 69.9834 327.186 69.37V68.7184C327.186 68.105 327.684 67.5684 328.337 67.5684H372.89C373.543 67.5684 374.041 68.105 374.041 68.7184V69.37Z" fill="#C7C8CA"/>
<path d="M374.234 77.1903C374.234 77.8037 373.735 78.3403 373.082 78.3403H328.567C327.915 78.3403 327.416 77.8037 327.416 77.1903V76.5387C327.416 75.9253 327.915 75.3887 328.567 75.3887H373.121C373.773 75.3887 374.272 75.9253 374.272 76.5387V77.1903H374.234Z" fill="#D1D3D4"/>
<path d="M321.161 69.3319C321.161 69.9453 320.662 70.4819 320.009 70.4819H275.456C274.804 70.4819 274.305 69.9453 274.305 69.3319V68.6803C274.305 68.0286 274.804 67.5303 275.456 67.5303H320.009C320.662 67.5303 321.161 68.0286 321.161 68.6803V69.3319Z" fill="white"/>
<path d="M321.161 76.3085C321.161 76.9602 320.662 77.4585 320.009 77.4585H275.456C274.804 77.4585 274.305 76.9602 274.305 76.3085V75.6568C274.305 75.0052 274.804 74.5068 275.456 74.5068H320.009C320.662 74.5068 321.161 75.0052 321.161 75.6568V76.3085Z" fill="white"/>
<path d="M364.179 98.2353C364.179 98.8486 363.642 99.3853 363.028 99.3853H234.242C233.628 99.3853 233.09 98.8486 233.09 98.2353V97.5836C233.09 96.9703 233.628 96.4336 234.242 96.4336H362.99C363.604 96.4336 364.141 96.9703 364.141 97.5836V98.2353H364.179Z" fill="#D1D3D4"/>
<path d="M364.026 106.323C364.026 106.975 363.488 107.473 362.874 107.473H234.088C233.474 107.473 232.937 106.975 232.937 106.323V105.671C232.937 105.058 233.474 104.521 234.088 104.521H362.836C363.45 104.521 363.987 105.058 363.987 105.671V106.323H364.026Z" fill="#D1D3D4"/>
<path d="M364.026 114.22C364.026 114.833 363.488 115.37 362.874 115.37H234.088C233.474 115.37 232.937 114.833 232.937 114.22V113.568C232.937 112.916 233.474 112.418 234.088 112.418H362.836C363.45 112.418 363.987 112.916 363.987 113.568V114.22H364.026Z" fill="#D1D3D4"/>
<path d="M363.834 122.845C363.834 123.458 363.335 123.995 362.683 123.995H233.934C233.282 123.995 232.783 123.458 232.783 122.845V122.193C232.783 121.58 233.282 121.043 233.934 121.043H362.683C363.335 121.043 363.834 121.58 363.834 122.193V122.845Z" fill="#D1D3D4"/>
<path d="M250.704 89.8021C259.796 89.8021 267.167 82.4394 267.167 73.3571C267.167 64.2748 259.796 56.9121 250.704 56.9121C241.612 56.9121 234.241 64.2748 234.241 73.3571C234.241 82.4394 241.612 89.8021 250.704 89.8021Z" fill="white"/>
<path d="M37.3008 122.04C37.3008 123.075 36.6868 123.343 35.9193 122.615L30.5468 117.248C29.8177 116.52 29.8177 115.293 30.5468 114.526L36.0345 109.045C36.7636 108.316 37.3776 108.546 37.3776 109.62L37.3008 122.04Z" fill="url(#paint12_linear)"/>
<path d="M53.6871 115.714C53.6871 116.788 52.8429 117.631 51.7684 117.631H37.3777C36.3032 117.631 35.459 116.788 35.459 115.714V115.293C35.459 114.219 36.3032 113.376 37.3777 113.376H51.7684C52.8429 113.376 53.6871 114.219 53.6871 115.293V115.714Z" fill="url(#paint13_linear)"/>
<path d="M577.16 115.485C577.16 114.45 577.774 114.182 578.542 114.91L583.914 120.277C584.643 121.005 584.643 122.232 583.914 122.999L578.427 128.48C577.697 129.209 577.083 128.979 577.083 127.905L577.16 115.485Z" fill="url(#paint14_linear)"/>
<path d="M560.736 121.81C560.736 120.737 561.58 119.894 562.655 119.894H577.045C578.12 119.894 578.964 120.737 578.964 121.81V122.232C578.964 123.305 578.12 124.149 577.045 124.149H562.655C561.58 124.149 560.736 123.305 560.736 122.232V121.81Z" fill="url(#paint15_linear)"/>
<path d="M299.632 152.515C298.596 152.515 298.097 151.71 298.558 150.752L306.348 134.46C306.809 133.502 307.538 133.502 307.998 134.46L315.903 151.02C316.364 151.978 315.865 152.745 314.829 152.707L299.632 152.515Z" fill="#A7A9AC"/>
<path d="M307.039 192.574C305.964 192.574 305.12 191.73 305.12 190.657V149.947C305.12 148.874 305.964 148.03 307.039 148.03H308.152C309.226 148.03 310.07 148.874 310.07 149.947V190.657C310.07 191.73 309.226 192.574 308.152 192.574H307.039Z" fill="#A7A9AC"/>
<path d="M301.858 150.79C300.822 150.79 300.323 149.985 300.783 149.027L308.574 132.735C309.034 131.777 309.763 131.777 310.224 132.735L318.129 149.295C318.589 150.254 318.091 151.02 317.054 150.982L301.858 150.79Z" fill="url(#paint16_linear)"/>
<path d="M309.226 190.849C308.151 190.849 307.307 189.967 307.307 188.932V148.222C307.307 147.149 308.151 146.306 309.226 146.306H310.339C311.413 146.306 312.257 147.149 312.257 148.222V188.932C312.257 190.006 311.413 190.849 310.339 190.849H309.226Z" fill="url(#paint17_linear)"/>
<g opacity="0.1">
<path opacity="0.1" d="M82.1997 185.098V207.907C82.1997 209.977 83.0056 211.97 84.5022 213.427C85.9605 214.883 87.956 215.727 90.0282 215.727H112.861C113.897 215.727 114.895 215.535 115.855 215.152C116.814 214.768 117.658 214.193 118.387 213.465C119.116 212.737 119.692 211.893 120.076 210.935C120.46 209.977 120.651 208.98 120.651 207.945V207.523L130.744 206.872C130.898 206.872 131.051 206.795 131.166 206.718C131.281 206.603 131.396 206.488 131.435 206.335C131.473 206.182 131.473 206.028 131.435 205.875C131.396 205.722 131.281 205.607 131.166 205.492L120.651 197.365V185.06C120.651 184.025 120.46 183.028 120.076 182.07C119.692 181.112 119.116 180.268 118.387 179.54C117.658 178.812 116.814 178.237 115.855 177.853C114.895 177.47 113.897 177.278 112.861 177.278H90.0282C88.9921 177.278 87.9943 177.47 87.035 177.853C86.0756 178.237 85.2313 178.812 84.5022 179.54C83.7731 180.268 83.1975 181.112 82.8137 182.07C82.3916 183.028 82.1997 184.063 82.1997 185.098Z" fill="#010101"/>
<path opacity="0.1" d="M101.886 192.075C101.541 191.654 101.157 191.27 100.773 190.925C100.006 190.274 99.085 189.814 98.0872 189.66C97.0895 189.469 96.0534 189.545 95.094 189.89C94.1346 190.235 93.2904 190.81 92.638 191.577C91.9856 192.344 91.5251 193.264 91.3716 194.26C91.103 195.755 91.4484 197.289 92.2926 198.554C93.1752 199.934 94.2497 201.199 95.4777 202.272C97.3965 203.959 99.4687 205.454 101.694 206.719C101.733 206.757 101.81 206.757 101.848 206.795C101.886 206.795 101.963 206.795 102.001 206.757C104.726 205.224 107.259 203.307 109.485 201.084C110.521 200.049 111.365 198.822 111.979 197.519C112.324 196.752 112.478 195.909 112.439 195.027C112.401 194.184 112.171 193.34 111.787 192.612C111.403 191.845 110.828 191.194 110.137 190.695C109.446 190.197 108.679 189.852 107.834 189.699C106.76 189.469 105.609 189.545 104.573 189.929C103.536 190.312 102.654 191.04 102.001 191.922L101.886 192.075Z" fill="#010101"/>
</g>
<path d="M87.6489 180.536V203.383C87.6489 205.453 88.4548 207.446 89.9514 208.903C91.4097 210.36 93.4052 211.203 95.4774 211.203H118.311C119.347 211.203 120.344 211.011 121.304 210.628C122.263 210.245 123.107 209.67 123.837 208.941C124.566 208.213 125.141 207.37 125.525 206.411C125.909 205.453 126.101 204.456 126.101 203.421V203L136.193 202.348C136.347 202.348 136.5 202.271 136.615 202.195C136.731 202.08 136.846 201.965 136.884 201.811C136.922 201.658 136.922 201.505 136.884 201.351C136.846 201.198 136.731 201.083 136.615 200.968L126.101 192.88V180.575C126.101 179.54 125.909 178.543 125.525 177.585C125.141 176.626 124.566 175.783 123.837 175.055C123.107 174.326 122.263 173.751 121.304 173.368C120.344 172.985 119.347 172.793 118.311 172.793H95.4774C94.4413 172.793 93.4436 172.985 92.4842 173.368C91.5248 173.751 90.6806 174.326 89.9514 175.055C89.2223 175.783 88.6467 176.626 88.2629 177.585C87.8408 178.505 87.6489 179.54 87.6489 180.536Z" fill="url(#paint18_linear)"/>
<path d="M107.297 187.551C106.952 187.129 106.568 186.746 106.184 186.401C105.417 185.749 104.496 185.289 103.498 185.136C102.5 184.944 101.464 185.021 100.505 185.366C99.5453 185.711 98.701 186.286 98.0486 187.053C97.3963 187.819 96.9358 188.739 96.7823 189.736C96.5136 191.231 96.859 192.764 97.7033 194.029C98.5859 195.409 99.6604 196.674 100.888 197.748C102.807 199.434 104.879 200.929 107.105 202.194C107.144 202.233 107.22 202.233 107.259 202.271C107.297 202.271 107.374 202.271 107.412 202.233C110.137 200.699 112.67 198.783 114.895 196.559C115.931 195.524 116.776 194.298 117.39 192.994C117.735 192.228 117.889 191.384 117.85 190.503C117.812 189.659 117.582 188.816 117.198 188.088C116.814 187.321 116.238 186.669 115.548 186.171C114.857 185.673 114.089 185.328 113.245 185.174C112.171 184.944 111.019 185.021 109.983 185.404C108.947 185.788 108.065 186.516 107.412 187.398L107.297 187.551Z" fill="white"/>
<g opacity="0.1">
<path opacity="0.1" d="M422.509 28.1232V43.3416C422.509 44.7216 421.972 46.0249 420.974 47.0216C420.015 47.9799 418.672 48.5549 417.29 48.5549H402.055C401.364 48.5549 400.712 48.4016 400.06 48.1716C399.446 47.9032 398.87 47.5199 398.371 47.0599C397.872 46.5616 397.489 45.9866 397.258 45.3732C396.99 44.7599 396.875 44.0699 396.875 43.3799V43.1116L390.159 42.6899C390.044 42.6899 389.967 42.6516 389.89 42.5749C389.814 42.4982 389.737 42.4216 389.737 42.3066C389.698 42.1916 389.698 42.1149 389.737 41.9999C389.775 41.8849 389.814 41.8082 389.929 41.7699L396.951 36.3649V28.1232C396.951 27.4332 397.105 26.7816 397.335 26.1299C397.604 25.5166 397.987 24.9416 398.448 24.4432C398.947 23.9449 399.522 23.5616 400.136 23.3316C400.75 23.0632 401.441 22.9482 402.132 22.9482H417.367C418.058 22.9482 418.71 23.1016 419.362 23.3316C419.976 23.5999 420.552 23.9832 421.051 24.4432C421.55 24.9416 421.933 25.5166 422.164 26.1299C422.356 26.7816 422.509 27.4332 422.509 28.1232Z" fill="#010101"/>
<path opacity="0.1" d="M409.385 32.8003C409.615 32.5319 409.845 32.2636 410.114 32.0336C410.613 31.6119 411.265 31.3053 411.918 31.1903C412.57 31.0753 413.261 31.1136 413.913 31.3436C414.565 31.5736 415.103 31.9569 415.563 32.4553C415.985 32.9536 416.292 33.6053 416.407 34.2569C416.561 35.2536 416.369 36.2886 415.793 37.1319C415.218 38.0519 414.489 38.8953 413.683 39.6236C412.416 40.7353 411.035 41.7319 409.538 42.5753C409.5 42.6136 409.462 42.6136 409.423 42.6136C409.385 42.6136 409.346 42.6136 409.308 42.5753C407.466 41.5403 405.816 40.2753 404.319 38.7803C403.629 38.0903 403.053 37.2853 402.669 36.4036C402.439 35.8669 402.324 35.3303 402.362 34.7553C402.401 34.1803 402.516 33.6436 402.784 33.1453C403.053 32.6469 403.437 32.2253 403.859 31.8803C404.319 31.5353 404.857 31.3053 405.394 31.1903C406.123 31.0369 406.852 31.0753 407.543 31.3436C408.234 31.6119 408.809 32.0719 409.231 32.6853L409.385 32.8003Z" fill="#010101"/>
</g>
<path d="M417.75 24.175V39.3933C417.75 40.7733 417.213 42.0767 416.215 43.0733C415.256 44.0317 413.913 44.6067 412.531 44.6067H397.335C396.644 44.6067 395.992 44.4533 395.339 44.2233C394.725 43.955 394.15 43.5717 393.651 43.1117C393.152 42.6133 392.768 42.0383 392.538 41.425C392.269 40.8117 392.154 40.1217 392.154 39.4317V39.1633L385.439 38.7417C385.324 38.7417 385.247 38.7033 385.17 38.6267C385.093 38.55 385.017 38.4733 385.017 38.3583C384.978 38.2433 384.978 38.1667 385.017 38.0517C385.055 37.9367 385.093 37.86 385.208 37.8217L392.231 32.4167V24.175C392.231 23.485 392.385 22.8333 392.615 22.1817C392.883 21.5683 393.267 20.9933 393.728 20.495C394.227 19.9967 394.802 19.6133 395.416 19.3833C396.03 19.115 396.721 19 397.412 19H412.647C413.337 19 413.99 19.1533 414.642 19.3833C415.256 19.6517 415.832 20.035 416.331 20.495C416.829 20.9933 417.213 21.5683 417.443 22.1817C417.597 22.8333 417.75 23.485 417.75 24.175Z" fill="url(#paint19_linear)"/>
<path d="M404.626 28.813C404.856 28.5446 405.087 28.2763 405.355 28.0463C405.854 27.6246 406.506 27.318 407.159 27.203C407.811 27.088 408.502 27.1263 409.154 27.3563C409.807 27.5863 410.344 27.9696 410.804 28.468C411.227 28.9663 411.534 29.618 411.649 30.2696C411.802 31.2663 411.61 32.3013 411.035 33.1446C410.459 34.0646 409.73 34.908 408.924 35.6363C407.658 36.748 406.276 37.7446 404.78 38.588C404.741 38.6263 404.703 38.6263 404.664 38.6263C404.626 38.6263 404.588 38.6263 404.549 38.588C402.707 37.553 401.057 36.288 399.561 34.793C398.87 34.103 398.294 33.298 397.91 32.4163C397.68 31.8796 397.565 31.343 397.603 30.768C397.642 30.193 397.757 29.6563 398.026 29.158C398.294 28.6596 398.678 28.238 399.1 27.893C399.561 27.548 400.098 27.318 400.635 27.203C401.364 27.0496 402.093 27.088 402.784 27.3563C403.475 27.6246 404.05 28.0846 404.473 28.698L404.626 28.813Z" fill="white"/>
<path d="M380.066 21.5687C380.258 21.3387 380.45 21.147 380.68 20.9553C381.103 20.6103 381.601 20.3803 382.139 20.2653C382.676 20.1503 383.213 20.227 383.75 20.3803C384.249 20.572 384.71 20.8787 385.094 21.3003C385.439 21.722 385.669 22.2203 385.784 22.757C385.938 23.562 385.746 24.4053 385.285 25.0953C384.825 25.862 384.249 26.5137 383.559 27.0887C382.522 28.0087 381.41 28.8137 380.22 29.5037C380.182 29.5037 380.182 29.542 380.143 29.542C380.105 29.542 380.066 29.542 380.066 29.5037C378.57 28.6603 377.227 27.6253 376.037 26.437C375.461 25.862 375.039 25.2103 374.694 24.5203C374.502 24.0987 374.425 23.6387 374.464 23.1787C374.464 22.7187 374.617 22.2587 374.809 21.8753C375.039 21.4537 375.308 21.1087 375.692 20.8403C376.075 20.572 376.498 20.3803 376.92 20.3037C377.495 20.1887 378.109 20.227 378.685 20.4187C379.261 20.6103 379.721 20.9937 380.066 21.492V21.5687Z" fill="url(#paint20_linear)"/>
<path d="M429.57 47.4818C429.762 47.2518 429.954 47.0601 430.184 46.8684C430.606 46.5234 431.105 46.2934 431.642 46.1784C432.179 46.0634 432.717 46.1401 433.254 46.2934C433.753 46.4851 434.213 46.7918 434.597 47.2134C434.942 47.6351 435.173 48.1334 435.288 48.6701C435.441 49.4751 435.249 50.3184 434.789 51.0084C434.328 51.7751 433.753 52.4268 433.062 53.0018C432.026 53.9218 430.913 54.7268 429.723 55.4168C429.685 55.4168 429.685 55.4551 429.647 55.4551C429.608 55.4551 429.57 55.4551 429.57 55.4168C428.073 54.5734 426.73 53.5384 425.54 52.3501C424.965 51.7751 424.543 51.1234 424.197 50.4334C424.005 50.0118 423.929 49.5518 423.967 49.0918C423.967 48.6318 424.121 48.1718 424.312 47.7884C424.543 47.3668 424.811 47.0218 425.195 46.7534C425.579 46.4851 426.001 46.2934 426.423 46.2168C426.999 46.1018 427.613 46.1401 428.188 46.3318C428.764 46.5618 429.224 46.9068 429.57 47.4051V47.4818Z" fill="url(#paint21_linear)"/>
<path d="M123.338 224.62C123.645 224.237 123.99 223.892 124.335 223.547C125.026 222.934 125.909 222.55 126.791 222.359C127.712 222.205 128.633 222.282 129.516 222.589C130.399 222.895 131.166 223.432 131.78 224.16C132.394 224.85 132.778 225.732 132.97 226.652C133.2 228.032 132.893 229.45 132.125 230.6C131.32 231.865 130.36 233.015 129.209 234.012C127.444 235.584 125.525 236.925 123.491 238.075C123.453 238.114 123.414 238.114 123.338 238.114C123.299 238.114 123.222 238.114 123.184 238.075C120.651 236.657 118.349 234.894 116.315 232.862C115.356 231.904 114.588 230.792 114.012 229.565C113.705 228.837 113.552 228.07 113.59 227.304C113.629 226.537 113.821 225.77 114.204 225.08C114.588 224.39 115.087 223.777 115.701 223.317C116.315 222.857 117.044 222.55 117.812 222.397C118.809 222.167 119.845 222.244 120.805 222.627C121.764 223.01 122.57 223.624 123.146 224.467L123.338 224.62Z" fill="url(#paint22_linear)"/>
<path d="M142.295 169.535C142.563 169.228 142.794 168.96 143.101 168.692C143.676 168.232 144.329 167.887 145.058 167.772C145.787 167.657 146.516 167.695 147.207 167.925C147.898 168.155 148.512 168.577 148.972 169.152C149.433 169.727 149.778 170.378 149.893 171.107C150.085 172.18 149.855 173.292 149.241 174.212C148.627 175.208 147.821 176.128 146.938 176.895C145.557 178.122 144.06 179.195 142.448 180.115C142.41 180.153 142.372 180.153 142.333 180.153C142.295 180.153 142.256 180.153 142.218 180.115C140.223 179.003 138.419 177.623 136.807 176.013C136.04 175.247 135.464 174.403 135.004 173.407C134.773 172.832 134.658 172.218 134.658 171.605C134.697 170.992 134.85 170.378 135.119 169.842C135.387 169.305 135.809 168.845 136.308 168.462C136.807 168.078 137.383 167.848 137.958 167.733C138.726 167.542 139.57 167.618 140.299 167.887C141.028 168.193 141.681 168.692 142.141 169.343L142.295 169.535Z" fill="url(#paint23_linear)"/>
<path d="M72.4909 175.285C72.6828 175.055 72.913 174.825 73.1433 174.595C73.6038 174.212 74.141 173.943 74.755 173.828C75.3307 173.713 75.9447 173.752 76.5203 173.982C77.0959 174.173 77.5948 174.518 77.9785 174.978C78.3623 175.438 78.6309 175.975 78.746 176.588C78.8995 177.47 78.7076 178.39 78.2088 179.157C77.7099 180 77.0575 180.728 76.3284 181.38C75.1772 182.377 73.9492 183.258 72.6444 184.025C72.606 184.063 72.606 184.063 72.5677 184.063C72.5293 184.063 72.4909 184.063 72.4909 184.025C70.8792 183.105 69.3825 181.955 68.0394 180.652C67.4254 180.038 66.9265 179.31 66.5812 178.543C66.3893 178.083 66.2742 177.585 66.3125 177.087C66.3509 176.588 66.466 176.09 66.6963 175.63C66.9265 175.17 67.2719 174.787 67.6557 174.48C68.0778 174.173 68.5383 173.982 69.0372 173.867C69.6895 173.713 70.3419 173.79 70.9559 174.02C71.5699 174.25 72.1072 174.672 72.4909 175.208V175.285Z" fill="url(#paint24_linear)"/>
<path d="M478.69 200.509H139.801V205.875H478.69V200.509Z" fill="#7C7D80"/>
<path d="M380.795 44.3379H225.875V51.1996H380.795V44.3379Z" fill="#7C7D80"/>
<path d="M236.083 46.2928C237.249 46.2928 238.194 45.3489 238.194 44.1845C238.194 43.0201 237.249 42.0762 236.083 42.0762C234.918 42.0762 233.973 43.0201 233.973 44.1845C233.973 45.3489 234.918 46.2928 236.083 46.2928Z" fill="white"/>
<path d="M243.106 46.2548C244.272 46.2548 245.217 45.3108 245.217 44.1464C245.217 42.982 244.272 42.0381 243.106 42.0381C241.941 42.0381 240.996 42.982 240.996 44.1464C240.996 45.3108 241.941 46.2548 243.106 46.2548Z" fill="white"/>
<path d="M250.052 46.2548C251.217 46.2548 252.162 45.3108 252.162 44.1464C252.162 42.982 251.217 42.0381 250.052 42.0381C248.886 42.0381 247.941 42.982 247.941 44.1464C247.941 45.3108 248.886 46.2548 250.052 46.2548Z" fill="white"/>
<path d="M246.751 236.426V234.049L254.465 230.408L246.751 226.728V224.428L256.959 229.411V231.404L246.751 236.426Z" fill="#F1F2F2" stroke="#F1F2F2" stroke-width="0.5" stroke-miterlimit="10"/>
<path d="M267.128 221.055L269.009 221.898L259.991 242.713L258.11 241.87L267.128 221.055Z" fill="#F1F2F2" stroke="#F1F2F2" stroke-width="0.5" stroke-miterlimit="10"/>
<path d="M277.912 221.055L279.792 221.898L270.774 242.713L268.894 241.87L277.912 221.055Z" fill="#F1F2F2" stroke="#F1F2F2" stroke-width="0.5" stroke-miterlimit="10"/>
<path d="M279.907 239.685H291.688V241.831H279.907V239.685Z" fill="#F1F2F2" stroke="#F1F2F2" stroke-width="0.5" stroke-miterlimit="10"/>
<path d="M291.688 239.685H303.47V241.831H291.688V239.685Z" fill="#F1F2F2" stroke="#F1F2F2" stroke-width="0.5" stroke-miterlimit="10"/>
<path d="M303.47 239.685H315.251V241.831H303.47V239.685Z" fill="#F1F2F2" stroke="#F1F2F2" stroke-width="0.5" stroke-miterlimit="10"/>
<path d="M315.251 239.685H327.032V241.831H315.251V239.685Z" fill="#F1F2F2" stroke="#F1F2F2" stroke-width="0.5" stroke-miterlimit="10"/>
<path d="M327.032 232.363H331.56V234.357H327.032V232.363Z" fill="#F1F2F2" stroke="#F1F2F2" stroke-width="0.5" stroke-miterlimit="10"/>
<path d="M331.599 232.363H336.127V234.357H331.599V232.363Z" fill="#F1F2F2" stroke="#F1F2F2" stroke-width="0.5" stroke-miterlimit="10"/>
<path d="M336.127 232.363H340.655V234.357H336.127V232.363Z" fill="#F1F2F2" stroke="#F1F2F2" stroke-width="0.5" stroke-miterlimit="10"/>
<path d="M340.655 239.685H352.436V241.831H340.655V239.685Z" fill="#F1F2F2" stroke="#F1F2F2" stroke-width="0.5" stroke-miterlimit="10"/>
<path d="M352.475 239.685H364.256V241.831H352.475V239.685Z" fill="#F1F2F2" stroke="#F1F2F2" stroke-width="0.5" stroke-miterlimit="10"/>
<path d="M364.256 239.685H376.037V241.831H364.256V239.685Z" fill="#F1F2F2" stroke="#F1F2F2" stroke-width="0.5" stroke-miterlimit="10"/>
<path d="M376.037 239.685H387.818V241.831H376.037V239.685Z" fill="#F1F2F2" stroke="#F1F2F2" stroke-width="0.5" stroke-miterlimit="10"/>
<path d="M390.696 230.14H388.202L392.193 222.627H395.301L399.292 230.14H396.798L393.766 224.505L390.696 230.14Z" fill="#F1F2F2" stroke="#F1F2F2" stroke-width="0.5" stroke-miterlimit="10"/>
<path d="M399.638 239.685H411.419V241.831H399.638V239.685Z" fill="#F1F2F2" stroke="#F1F2F2" stroke-width="0.5" stroke-miterlimit="10"/>
<path d="M411.418 239.685H423.2V241.831H411.418V239.685Z" fill="#F1F2F2" stroke="#F1F2F2" stroke-width="0.5" stroke-miterlimit="10"/>
<path d="M423.2 239.685H434.981V241.831H423.2V239.685Z" fill="#F1F2F2" stroke="#F1F2F2" stroke-width="0.5" stroke-miterlimit="10"/>
<path d="M450.254 221.055L452.134 221.898L443.116 242.713L441.236 241.87L450.254 221.055Z" fill="#F1F2F2" stroke="#F1F2F2" stroke-width="0.5" stroke-miterlimit="10"/>
<path d="M461.076 221.055L462.956 221.898L453.938 242.713L452.058 241.87L461.076 221.055Z" fill="#F1F2F2" stroke="#F1F2F2" stroke-width="0.5" stroke-miterlimit="10"/>
</g>
<defs>
<filter id="filter0_d" x="-12" y="-8" width="638" height="438" filterUnits="userSpaceOnUse" color-interpolation-filters="sRGB">
<feFlood flood-opacity="0" result="BackgroundImageFix"/>
<feColorMatrix in="SourceAlpha" type="matrix" values="0 0 0 0 0 0 0 0 0 0 0 0 0 0 0 0 0 0 127 0" result="hardAlpha"/>
<feOffset dy="4"/>
<feGaussianBlur stdDeviation="6"/>
<feColorMatrix type="matrix" values="0 0 0 0 0 0 0 0 0 0 0 0 0 0 0 0 0 0 0.3 0"/>
<feBlend mode="normal" in2="BackgroundImageFix" result="effect1_dropShadow"/>
<feBlend mode="normal" in="SourceGraphic" in2="effect1_dropShadow" result="shape"/>
</filter>
<linearGradient id="paint0_linear" x1="481.04" y1="103.426" x2="547.584" y2="103.426" gradientUnits="userSpaceOnUse">
<stop stop-color="#7DD3F7"/>
<stop offset="1" stop-color="#43B5E8"/>
</linearGradient>
<linearGradient id="paint1_linear" x1="401.408" y1="121.605" x2="437.349" y2="121.605" gradientUnits="userSpaceOnUse">
<stop stop-color="#7DD3F7"/>
<stop offset="1" stop-color="#43B5E8"/>
</linearGradient>
<linearGradient id="paint2_linear" x1="442.585" y1="121.605" x2="478.526" y2="121.605" gradientUnits="userSpaceOnUse">
<stop stop-color="#7DD3F7"/>
<stop offset="1" stop-color="#43B5E8"/>
</linearGradient>
<linearGradient id="paint3_linear" x1="97.5812" y1="102.278" x2="169.952" y2="102.278" gradientUnits="userSpaceOnUse">
<stop stop-color="#7DD3F7"/>
<stop offset="1" stop-color="#43B5E8"/>
</linearGradient>
<linearGradient id="paint4_linear" x1="240.981" y1="230.66" x2="470.293" y2="230.66" gradientUnits="userSpaceOnUse">
<stop stop-color="#7DD3F7"/>
<stop offset="1" stop-color="#43B5E8"/>
</linearGradient>
<linearGradient id="paint5_linear" x1="241.129" y1="277.165" x2="473.536" y2="277.165" gradientUnits="userSpaceOnUse">
<stop stop-color="#7DD3F7"/>
<stop offset="1" stop-color="#43B5E8"/>
</linearGradient>
<linearGradient id="paint6_linear" x1="151.098" y1="344.916" x2="379.353" y2="344.916" gradientUnits="userSpaceOnUse">
<stop stop-color="#7DD3F7"/>
<stop offset="1" stop-color="#43B5E8"/>
</linearGradient>
<linearGradient id="paint7_linear" x1="150.852" y1="253.943" x2="237.739" y2="253.943" gradientUnits="userSpaceOnUse">
<stop stop-color="#7DD3F7"/>
<stop offset="1" stop-color="#43B5E8"/>
</linearGradient>
<linearGradient id="paint8_linear" x1="383.694" y1="344.82" x2="472.121" y2="344.82" gradientUnits="userSpaceOnUse">
<stop stop-color="#7DD3F7"/>
<stop offset="1" stop-color="#43B5E8"/>
</linearGradient>
<linearGradient id="paint9_linear" x1="167.14" y1="90.9173" x2="249.29" y2="90.9173" gradientUnits="userSpaceOnUse">
<stop stop-color="#7DD3F7"/>
<stop offset="1" stop-color="#43B5E8"/>
</linearGradient>
<linearGradient id="paint10_linear" x1="136.422" y1="122.507" x2="162.772" y2="122.507" gradientUnits="userSpaceOnUse">
<stop stop-color="#7DD3F7"/>
<stop offset="1" stop-color="#43B5E8"/>
</linearGradient>
<linearGradient id="paint11_linear" x1="272.292" y1="73.1309" x2="323.49" y2="73.1309" gradientUnits="userSpaceOnUse">
<stop stop-color="#7DD3F7"/>
<stop offset="1" stop-color="#43B5E8"/>
</linearGradient>
<linearGradient id="paint12_linear" x1="29.981" y1="115.803" x2="37.3728" y2="115.803" gradientUnits="userSpaceOnUse">
<stop stop-color="#71459B"/>
<stop offset="0.8668" stop-color="#A76CAD"/>
</linearGradient>
<linearGradient id="paint13_linear" x1="35.4541" y1="115.502" x2="53.6995" y2="115.502" gradientUnits="userSpaceOnUse">
<stop stop-color="#71459B"/>
<stop offset="0.8668" stop-color="#A76CAD"/>
</linearGradient>
<linearGradient id="paint14_linear" x1="577.064" y1="121.728" x2="584.455" y2="121.728" gradientUnits="userSpaceOnUse">
<stop stop-color="#71459B"/>
<stop offset="0.8668" stop-color="#A76CAD"/>
</linearGradient>
<linearGradient id="paint15_linear" x1="560.737" y1="122.029" x2="578.982" y2="122.029" gradientUnits="userSpaceOnUse">
<stop stop-color="#71459B"/>
<stop offset="0.8668" stop-color="#A76CAD"/>
</linearGradient>
<linearGradient id="paint16_linear" x1="300.578" y1="141.52" x2="318.271" y2="141.52" gradientUnits="userSpaceOnUse">
<stop stop-color="#71459B"/>
<stop offset="0.8668" stop-color="#A76CAD"/>
</linearGradient>
<linearGradient id="paint17_linear" x1="307.293" y1="168.59" x2="312.258" y2="168.59" gradientUnits="userSpaceOnUse">
<stop stop-color="#71459B"/>
<stop offset="0.8668" stop-color="#A76CAD"/>
</linearGradient>
<linearGradient id="paint18_linear" x1="136.901" y1="191.96" x2="87.6454" y2="191.96" gradientUnits="userSpaceOnUse">
<stop stop-color="#7DD3F7"/>
<stop offset="1" stop-color="#43B5E8"/>
</linearGradient>
<linearGradient id="paint19_linear" x1="384.916" y1="31.7792" x2="417.751" y2="31.7792" gradientUnits="userSpaceOnUse">
<stop stop-color="#7DD3F7"/>
<stop offset="1" stop-color="#43B5E8"/>
</linearGradient>
<linearGradient id="paint20_linear" x1="374.394" y1="24.8459" x2="385.789" y2="24.8459" gradientUnits="userSpaceOnUse">
<stop stop-color="#71459B"/>
<stop offset="0.8668" stop-color="#A76CAD"/>
</linearGradient>
<linearGradient id="paint21_linear" x1="423.892" y1="50.753" x2="435.288" y2="50.753" gradientUnits="userSpaceOnUse">
<stop stop-color="#71459B"/>
<stop offset="0.8668" stop-color="#A76CAD"/>
</linearGradient>
<linearGradient id="paint22_linear" x1="113.649" y1="230.224" x2="133.065" y2="230.224" gradientUnits="userSpaceOnUse">
<stop stop-color="#71459B"/>
<stop offset="0.8668" stop-color="#A76CAD"/>
</linearGradient>
<linearGradient id="paint23_linear" x1="134.672" y1="173.943" x2="149.962" y2="173.943" gradientUnits="userSpaceOnUse">
<stop stop-color="#71459B"/>
<stop offset="0.8668" stop-color="#A76CAD"/>
</linearGradient>
<linearGradient id="paint24_linear" x1="66.2355" y1="178.895" x2="78.7764" y2="178.895" gradientUnits="userSpaceOnUse">
<stop stop-color="#71459B"/>
<stop offset="0.8668" stop-color="#A76CAD"/>
</linearGradient>
</defs>
</svg>
