<svg width="698" height="458" viewBox="0 0 698 458" fill="none" xmlns="http://www.w3.org/2000/svg">
<g filter="url(#filter0_d)">
<path d="M608.36 363.309C608.36 363.309 617.444 330.08 633.541 320.58L639.33 334.133L636.203 319.44C636.203 319.44 658.553 314.162 667.384 316.738C667.384 316.738 661.976 338.482 652.469 345.322L640.006 343.211L651.202 346.631C651.202 346.631 646.47 350.051 643.174 351.233L632.401 348.7L641.02 352.331C641.062 352.331 624.753 362.76 608.36 363.309Z" fill="#8BD7F8"/>
<path d="M665.651 317.581C665.651 317.581 617.486 350.303 607.853 361.408L665.651 317.581Z" fill="url(#paint0_linear)"/>
<path d="M665.651 317.581C660.962 321.423 656.145 325.097 651.286 328.728C648.878 330.585 646.428 332.317 644.019 334.174L636.71 339.537L622.092 350.219L618.458 352.921C617.233 353.808 616.05 354.737 614.825 355.666C612.416 357.481 610.05 359.339 607.811 361.408C609.628 358.959 611.825 356.805 613.98 354.694C616.219 352.625 618.5 350.599 620.824 348.657C625.472 344.772 630.288 341.057 635.189 337.468C637.64 335.694 640.09 333.921 642.583 332.19C645.076 330.459 647.568 328.728 650.103 327.081C655.216 323.788 660.328 320.579 665.651 317.581Z" fill="#0092D7"/>
<path d="M608.867 364.026C608.867 364.026 625.556 348.573 632.95 344.139L628.006 350.431L634.006 343.591C634.006 343.591 640.724 341.099 641.273 342.324C641.273 342.324 630.457 352.415 625.556 355.624L624.077 354.653L624.711 356.215C624.711 356.215 622.26 357.819 621.077 358.368L620.106 357.186L620.148 358.875C620.148 358.875 612.289 363.73 608.867 364.026Z" fill="url(#paint1_linear)"/>
<path d="M640.555 342.704C640.555 342.704 616.472 357.946 609.628 363.14L640.555 342.704Z" fill="url(#paint2_linear)"/>
<path d="M640.555 342.704C638.231 344.815 635.781 346.715 633.288 348.531C630.795 350.346 628.26 352.12 625.683 353.809C623.106 355.497 620.486 357.102 617.825 358.664C615.163 360.226 612.459 361.704 609.67 363.14C611.825 360.86 614.276 358.917 616.726 357.017C619.177 355.16 621.712 353.386 624.331 351.697C626.908 350.009 629.57 348.404 632.274 346.884C634.894 345.364 637.64 343.929 640.555 342.704Z" fill="#0092D7"/>
<path d="M612.754 371.542C612.754 371.542 628.64 355.117 638.273 352.457L635.358 360.564L639.709 352.246C639.709 352.246 650.103 352.795 652.469 355.497C652.469 355.497 642.287 366.306 636.118 368.544L632.231 365.546L635.146 369.051C635.146 369.051 632.062 370.148 630.414 370.317L627.33 367.362L629.189 370.613C629.147 370.571 619.091 373.695 612.754 371.542Z" fill="#8BD7F8"/>
<path d="M651.456 355.666C651.456 355.666 621.036 365.968 613.262 370.444L651.456 355.666Z" fill="url(#paint3_linear)"/>
<path d="M651.456 355.666C648.372 357.27 645.245 358.622 642.119 359.973C638.95 361.282 635.781 362.548 632.612 363.73C629.401 364.913 626.19 366.053 622.979 367.15C619.768 368.248 616.515 369.304 613.304 370.444C614.656 369.388 616.135 368.459 617.656 367.615C619.177 366.77 620.698 366.01 622.261 365.25C625.388 363.815 628.556 362.506 631.767 361.282C634.978 360.099 638.232 359.002 641.527 358.03C644.696 357.144 648.034 356.257 651.456 355.666Z" fill="#0092D7"/>
<path d="M612.67 372.005C612.67 372.005 624.753 366.263 629.19 364.997L624.965 367.614L629.781 364.87C629.781 364.87 633.246 364.574 632.992 365.292C632.992 365.292 625.134 369.092 622.092 370.063L621.88 369.345L621.542 370.274C621.542 370.274 620.021 370.739 619.388 370.865L619.472 370.105L618.838 370.992C618.838 370.95 614.064 372.343 612.67 372.005Z" fill="url(#paint4_linear)"/>
<path d="M632.57 365.335C632.57 365.335 617.782 369.895 613.262 371.626L632.57 365.335Z" fill="url(#paint5_linear)"/>
<path d="M632.57 365.335C631.091 366.348 629.57 367.108 628.007 367.784C626.444 368.459 624.88 369.051 623.275 369.557C621.669 370.064 620.022 370.528 618.374 370.866C616.726 371.204 615.036 371.499 613.262 371.584C614.656 370.486 616.177 369.684 617.74 368.966C619.303 368.248 620.867 367.657 622.472 367.151C624.078 366.644 625.725 366.222 627.415 365.884C629.105 365.588 630.795 365.335 632.57 365.335Z" fill="#0092D7"/>
<path d="M610.177 348.108C610.177 348.108 626.063 316.146 635.696 306.097L632.823 318.468L637.133 304.788C637.133 304.788 647.526 298.286 649.892 300.143C649.892 300.143 639.71 321.043 633.541 328.137L629.654 326.997L632.612 329.488C632.612 329.488 629.528 333.035 627.838 334.386L624.711 332.739L626.57 335.61C626.612 335.568 616.557 346.503 610.177 348.108Z" fill="url(#paint6_linear)"/>
<path d="M613.177 326.87C613.177 326.87 610.05 304.535 617.064 294.697L623.866 301.41L618.289 293.346C618.289 293.346 630.035 284.479 635.823 283.804C635.823 283.804 638.147 298.286 634.344 304.83L626.528 306.73L633.922 305.97C633.922 305.97 632.021 309.221 630.415 310.784L623.486 312.008H629.443C629.486 311.966 622.599 322.395 613.177 326.87Z" fill="#9DDCF9"/>
<path d="M635.02 284.775C635.02 284.775 615.163 316.738 612.374 325.9L635.02 284.775Z" fill="url(#paint7_linear)"/>
<path d="M635.02 284.775C633.415 288.364 631.598 291.869 629.781 295.331C627.922 298.793 626.021 302.213 624.077 305.591C622.134 308.969 620.148 312.346 618.162 315.724C617.191 317.413 616.177 319.06 615.205 320.749C614.191 322.438 613.261 324.126 612.374 325.9C612.754 323.958 613.388 322.058 614.064 320.2C614.782 318.342 615.585 316.569 616.388 314.753C618.078 311.206 619.937 307.702 621.88 304.324C623.824 300.904 625.894 297.569 628.049 294.318C630.246 291.066 632.527 287.858 635.02 284.775Z" fill="#0092D7"/>
<path d="M648.878 301.115C648.878 301.115 618.458 335.231 610.642 346.377L648.878 301.115Z" fill="url(#paint8_linear)"/>
<path d="M648.878 301.115C646.005 305.169 642.921 309.053 639.836 312.895C636.71 316.737 633.541 320.537 630.33 324.253C627.119 328.011 623.866 331.684 620.57 335.4L610.642 346.42C611.867 344.266 613.219 342.197 614.655 340.129C616.05 338.102 617.528 336.117 619.049 334.133C622.049 330.206 625.218 326.364 628.429 322.649C631.64 318.891 634.978 315.217 638.358 311.629C641.738 307.955 645.202 304.451 648.878 301.115Z" fill="#0092D7"/>
<path d="M89.0232 364.11C89.0232 364.11 79.9395 330.882 63.8422 321.382L58.054 334.935L61.1805 320.242C61.1805 320.242 38.8302 314.964 30 317.539C30 317.539 35.408 339.284 44.9142 346.124L57.378 344.013L46.1817 347.433C46.1817 347.433 50.9137 350.853 54.2092 352.035L64.983 349.502L56.364 353.133C56.3217 353.133 72.6302 363.562 89.0232 364.11Z" fill="#8BD7F8"/>
<path d="M31.7744 318.384C31.7744 318.384 79.9394 351.106 89.5724 362.211L31.7744 318.384Z" fill="url(#paint9_linear)"/>
<path d="M31.7744 318.384C37.0557 321.382 42.2102 324.59 47.2802 327.926C49.8152 329.573 52.3079 331.304 54.8007 333.035C57.2934 334.766 59.7439 336.539 62.1944 338.313C67.0954 341.902 71.8697 345.617 76.5594 349.502C78.8832 351.444 81.1647 353.47 83.4039 355.539C85.6009 357.65 87.7979 359.804 89.5724 362.253C87.3332 360.184 84.9672 358.326 82.5589 356.511C81.3759 355.582 80.1507 354.695 78.9254 353.766L75.2919 351.064L60.6734 340.382L53.3642 335.019C50.9559 333.204 48.5054 331.43 46.0972 329.573C41.2807 325.942 36.4642 322.268 31.7744 318.384Z" fill="#0092D7"/>
<path d="M88.5161 364.828C88.5161 364.828 71.8274 349.375 64.4336 344.941L69.3769 351.232L63.3774 344.392C63.3774 344.392 56.6596 341.901 56.1104 343.126C56.1104 343.126 66.9264 353.217 71.8274 356.426L73.3061 355.455L72.6724 357.017C72.6724 357.017 75.1229 358.621 76.3059 359.17L77.2776 357.988L77.2354 359.677C77.2354 359.719 85.0939 364.575 88.5161 364.828Z" fill="url(#paint10_linear)"/>
<path d="M56.8711 343.548C56.8711 343.548 80.9536 358.79 87.7981 363.983L56.8711 343.548Z" fill="url(#paint11_linear)"/>
<path d="M56.8711 343.548C59.7441 344.772 62.4903 346.208 65.2366 347.686C67.9406 349.206 70.5601 350.81 73.1796 352.499C75.7568 354.188 78.2918 355.961 80.7846 357.819C83.2351 359.719 85.6856 361.661 87.8403 363.941C85.0518 362.548 82.3478 361.028 79.6861 359.466C77.0243 357.903 74.4048 356.299 71.8276 354.61C69.2503 352.921 66.7153 351.19 64.2226 349.332C61.6453 347.517 59.1948 345.617 56.8711 343.548Z" fill="#0092D7"/>
<path d="M84.6715 372.343C84.6715 372.343 68.7855 355.919 59.1525 353.259L62.0678 361.366L57.716 353.048C57.716 353.048 47.3225 353.597 44.9565 356.299C44.9565 356.299 55.1388 367.108 61.3073 369.346L65.1943 366.348L62.279 369.852C62.279 369.852 65.3633 370.95 67.011 371.119L70.0953 368.163L68.2363 371.415C68.2363 371.372 78.2918 374.497 84.6715 372.343Z" fill="#8BD7F8"/>
<path d="M45.9707 356.469C45.9707 356.469 76.3907 366.771 84.1647 371.247L45.9707 356.469Z" fill="url(#paint12_linear)"/>
<path d="M45.9707 356.469C49.393 357.06 52.6885 357.947 55.984 358.918C59.2795 359.889 62.5327 360.987 65.7437 362.169C68.9547 363.351 72.1235 364.66 75.25 366.138C76.8132 366.898 78.3342 367.658 79.8552 368.502C81.334 369.347 82.855 370.233 84.207 371.331C80.9537 370.149 77.7427 369.135 74.5317 368.038C71.3207 366.94 68.1097 365.8 64.8987 364.618C61.6877 363.435 58.519 362.211 55.3925 360.86C52.1815 359.467 49.0127 358.073 45.9707 356.469Z" fill="#0092D7"/>
<path d="M84.7559 372.808C84.7559 372.808 72.6724 367.066 68.2362 365.799L72.4612 368.417L67.6447 365.673C67.6447 365.673 64.1802 365.377 64.4337 366.095C64.4337 366.095 72.2922 369.895 75.3342 370.866L75.5454 370.148L75.8834 371.077C75.8834 371.077 77.4044 371.542 78.0382 371.668L77.9537 370.908L78.5874 371.795C78.5452 371.753 83.3617 373.188 84.7559 372.808Z" fill="url(#paint13_linear)"/>
<path d="M64.814 366.18C64.814 366.18 79.6015 370.74 84.1222 372.471L64.814 366.18Z" fill="url(#paint14_linear)"/>
<path d="M64.814 366.18C66.5885 366.18 68.2785 366.433 69.9685 366.729C71.6585 367.066 73.264 367.489 74.9117 367.995C76.5172 368.502 78.1227 369.135 79.6437 369.811C81.207 370.529 82.728 371.331 84.1222 372.429C82.3477 372.344 80.7 372.049 79.01 371.711C77.3622 371.373 75.7145 370.909 74.109 370.402C72.5035 369.895 70.898 369.304 69.377 368.629C67.8137 367.911 66.2927 367.151 64.814 366.18Z" fill="#0092D7"/>
<path d="M87.2487 348.911C87.2487 348.911 71.3627 316.948 61.7297 306.899L64.6027 319.271L60.2932 305.591C60.2932 305.591 49.8997 299.088 47.5337 300.946C47.5337 300.946 57.7159 321.846 63.8844 328.939L67.7714 327.799L64.8139 330.291C64.8139 330.291 67.8982 333.837 69.5882 335.188L72.7147 333.542L70.8557 336.413C70.7712 336.371 80.8689 347.306 87.2487 348.911Z" fill="url(#paint15_linear)"/>
<path d="M84.2488 327.715C84.2488 327.715 87.3753 305.38 80.3618 295.542L73.5596 302.255L79.1366 294.191C79.1366 294.191 67.3911 285.324 61.6028 284.648C61.6028 284.648 59.2791 299.131 63.0816 305.675L70.8978 307.575L63.5041 306.815C63.5041 306.815 65.4053 310.066 67.0108 311.628L73.9398 312.853H67.9826C67.8981 312.811 74.8271 323.24 84.2488 327.715Z" fill="#9DDCF9"/>
<path d="M62.3633 285.619C62.3633 285.619 82.2208 317.581 85.0093 326.744L62.3633 285.619Z" fill="url(#paint16_linear)"/>
<path d="M62.3633 285.619C64.856 288.659 67.1375 291.91 69.2923 295.161C71.447 298.455 73.5173 301.79 75.4608 305.168C77.4043 308.588 79.2633 312.05 80.9533 315.597C81.756 317.37 82.601 319.186 83.277 321.044C83.9953 322.901 84.629 324.801 84.967 326.744C84.0798 324.97 83.1503 323.281 82.1363 321.593C81.1645 319.904 80.1505 318.215 79.1788 316.568C77.193 313.19 75.2073 309.855 73.2638 306.435C71.3203 303.057 69.419 299.637 67.56 296.175C65.7855 292.712 64.011 289.208 62.3633 285.619Z" fill="#0092D7"/>
<path d="M48.5054 301.917C48.5054 301.917 78.9254 336.033 86.7416 347.179L48.5054 301.917Z" fill="url(#paint17_linear)"/>
<path d="M48.5054 301.917C52.1811 305.253 55.6456 308.799 59.0679 312.388C62.4479 315.977 65.7856 319.65 68.9966 323.408C72.2076 327.166 75.3341 331.008 78.3761 334.893C79.8549 336.877 81.3336 338.861 82.7701 340.888C84.1644 342.915 85.5586 344.984 86.7839 347.179L76.8551 336.159C73.5596 332.486 70.3064 328.77 67.0954 325.013C63.8844 321.255 60.7156 317.497 57.5891 313.655C54.4626 309.855 51.3784 305.97 48.5054 301.917Z" fill="#0092D7"/>
<path d="M110.951 375.257C110.951 376.439 110.022 377.368 108.839 377.368H83.9113C82.7283 377.368 81.7988 376.439 81.7988 375.257V264.551C81.7988 263.368 82.7283 262.439 83.9113 262.439H108.839C110.022 262.439 110.951 263.368 110.951 264.551V375.257Z" fill="#E6E7E8"/>
<path d="M149.821 373.187C149.821 374.369 148.892 375.298 147.709 375.298H122.781C121.598 375.298 120.669 374.369 120.669 373.187V234.276C120.669 233.094 121.598 232.165 122.781 232.165H147.709C148.892 232.165 149.821 233.094 149.821 234.276V373.187Z" fill="#D1D3D4"/>
<path d="M190.043 373.187C190.043 374.37 189.114 375.298 187.931 375.298H163.003C161.82 375.298 160.891 374.37 160.891 373.187V205.945C160.891 204.763 161.82 203.834 163.003 203.834H187.931C189.114 203.834 190.043 204.763 190.043 205.945V373.187Z" fill="#F1F2F2"/>
<path d="M227.561 356.172C227.561 357.354 226.632 358.283 225.449 358.283H200.521C199.338 358.283 198.409 357.354 198.409 356.172V185.257C198.409 184.074 199.338 183.146 200.521 183.146H225.449C226.632 183.146 227.561 184.074 227.561 185.257V356.172Z" fill="#7ED3F7"/>
<path d="M266.389 350.05C266.389 351.232 265.46 352.161 264.277 352.161H239.349C238.166 352.161 237.237 351.232 237.237 350.05V163.892C237.237 162.71 238.166 161.781 239.349 161.781H264.277C265.46 161.781 266.389 162.71 266.389 163.892V350.05Z" fill="#E6E7E8"/>
<path d="M305.259 342.534C305.259 343.717 304.329 344.645 303.146 344.645H278.219C277.036 344.645 276.106 343.717 276.106 342.534V144.217C276.106 143.034 277.036 142.105 278.219 142.105H303.146C304.329 142.105 305.259 143.034 305.259 144.217V342.534Z" fill="#D1D3D4"/>
<path d="M344.129 339.832C344.129 341.014 343.2 341.943 342.017 341.943H317.089C315.906 341.943 314.977 341.014 314.977 339.832V174.194C314.977 173.012 315.906 172.083 317.089 172.083H342.017C343.2 172.083 344.129 173.012 344.129 174.194V339.832Z" fill="#F1F2F2"/>
<path d="M382.999 337.763C382.999 338.946 382.069 339.874 380.886 339.874H355.959C354.776 339.874 353.846 338.946 353.846 337.763V167.143C353.846 165.961 354.776 165.032 355.959 165.032H380.886C382.069 165.032 382.999 165.961 382.999 167.143V337.763Z" fill="#7ED3F7"/>
<path d="M422.545 337.763C422.545 338.946 421.615 339.874 420.432 339.874H395.505C394.322 339.874 393.393 338.946 393.393 337.763V142.95C393.393 141.768 394.322 140.839 395.505 140.839H420.432C421.615 140.839 422.545 141.768 422.545 142.95V337.763Z" fill="#E6E7E8"/>
<path d="M462.091 339.833C462.091 341.015 461.162 341.944 459.979 341.944H435.051C433.868 341.944 432.938 341.015 432.938 339.833V120.446C432.938 119.264 433.868 118.335 435.051 118.335H459.979C461.162 118.335 462.091 119.264 462.091 120.446V339.833Z" fill="#D1D3D4"/>
<path d="M500.242 345.954C500.242 347.137 499.313 348.065 498.13 348.065H473.202C472.019 348.065 471.09 347.137 471.09 345.954V105.33C471.09 104.148 472.019 103.219 473.202 103.219H498.13C499.313 103.219 500.242 104.148 500.242 105.33V345.954Z" fill="#F1F2F2"/>
<path d="M538.437 352.076C538.437 353.259 537.507 354.187 536.324 354.187H511.397C510.214 354.187 509.284 353.259 509.284 352.076V90.1297C509.284 88.9474 510.214 88.0186 511.397 88.0186H536.324C537.507 88.0186 538.437 88.9474 538.437 90.1297V352.076Z" fill="#7ED3F7"/>
<path d="M577.307 360.268C577.307 361.45 576.377 362.379 575.194 362.379H550.267C549.084 362.379 548.154 361.45 548.154 360.268V74.6765C548.154 73.4943 549.084 72.5654 550.267 72.5654H575.194C576.377 72.5654 577.307 73.4943 577.307 74.6765V360.268Z" fill="#E6E7E8"/>
<path d="M616.134 375.257C616.134 376.439 615.205 377.368 614.022 377.368H589.094C587.911 377.368 586.982 376.439 586.982 375.257V56.5633C586.982 55.381 587.911 54.4521 589.094 54.4521H614.022C615.205 54.4521 616.134 55.381 616.134 56.5633V375.257Z" fill="#D1D3D4"/>
<path d="M201.704 367.276C201.704 367.276 198.577 304.83 173.692 281.65L158.144 303.394L169.467 278.525C169.467 278.525 131.865 260.454 115.176 261.552C115.176 261.552 116.317 302.254 130.428 318.088L153.328 319.228L132.118 320.916C132.118 320.916 139.174 328.812 144.54 332.232L164.608 331.936L147.92 335.061C148.004 335.061 172.889 359.93 201.704 367.276Z" fill="#49C8F5"/>
<path d="M118.006 263.832C118.006 263.832 190.676 340.676 203.394 364.152L118.006 263.832Z" fill="url(#paint18_linear)"/>
<path d="M118.006 263.832C125.907 271.474 133.597 279.37 141.159 287.35C144.962 291.319 148.68 295.372 152.398 299.425C156.116 303.479 159.749 307.574 163.425 311.712C167.059 315.85 170.65 319.988 174.199 324.21C175.973 326.321 177.706 328.432 179.48 330.543L182.1 333.752L184.677 336.961C188.099 341.268 191.437 345.659 194.648 350.134C196.253 352.372 197.817 354.652 199.295 356.974C200.774 359.296 202.168 361.661 203.394 364.152C202.633 363.012 201.915 361.83 201.112 360.732C200.732 360.183 200.352 359.592 199.929 359.043L198.704 357.396C197.056 355.201 195.366 353.048 193.634 350.894C191.902 348.741 190.169 346.63 188.437 344.519C186.663 342.408 184.93 340.296 183.156 338.228C179.565 334.048 176.016 329.868 172.382 325.772C168.791 321.634 165.157 317.496 161.524 313.401L139.723 288.701C132.414 280.468 125.147 272.192 118.006 263.832Z" fill="#0092D7"/>
<path d="M200.563 368.332C200.563 368.332 177.03 334.427 165.622 323.661L171.96 336.75L164.017 322.31C164.017 322.31 153.074 315.301 151.595 317.201C151.595 317.201 166.847 339.367 174.283 346.925L177.283 345.785L175.509 348.318C175.509 348.318 179.227 352.118 181.128 353.554L183.283 351.865L182.564 354.821C182.522 354.821 194.563 366.516 200.563 368.332Z" fill="url(#paint19_linear)"/>
<path d="M152.694 318.214C152.694 318.214 189.409 354.694 199.591 366.516L152.694 318.214Z" fill="url(#paint20_linear)"/>
<path d="M152.694 318.214C157.046 321.803 161.186 325.561 165.284 329.403C167.355 331.303 169.34 333.287 171.368 335.229C173.354 337.214 175.34 339.198 177.326 341.183C181.255 345.194 185.1 349.289 188.86 353.469C192.578 357.649 196.296 361.914 199.549 366.516C195.451 362.632 191.395 358.789 187.423 354.821C183.41 350.894 179.438 346.967 175.509 342.956L169.636 336.918C167.735 334.892 165.749 332.865 163.848 330.796C160.088 326.701 156.327 322.521 152.694 318.214Z" fill="#0092D7"/>
<path d="M147.413 383.279C147.413 383.279 145.934 339.241 133.977 322.859L126.499 338.228L131.907 320.706C131.907 320.706 113.866 307.955 105.881 308.757C105.881 308.757 106.43 337.468 113.19 348.615L124.175 349.417L113.993 350.599C113.993 350.599 117.373 356.173 119.95 358.579L129.583 358.368L121.598 360.564C121.64 360.564 133.597 378.086 147.413 383.279Z" fill="#44C8F5"/>
<path d="M107.275 310.318C107.275 310.318 142.132 364.532 148.258 381.083L107.275 310.318Z" fill="url(#paint21_linear)"/>
<path d="M107.275 310.318C111.374 315.765 115.261 321.423 119.021 327.123C120.922 329.952 122.739 332.865 124.556 335.736C126.372 338.607 128.147 341.563 129.921 344.476C133.428 350.345 136.808 356.298 139.977 362.336C140.737 363.856 141.54 365.376 142.301 366.896L142.85 368.036L143.399 369.218L144.498 371.541C145.934 374.665 147.244 377.832 148.216 381.125C146.695 378.043 145.089 375.087 143.357 372.132C141.667 369.176 139.935 366.263 138.202 363.307L127.724 345.785L122.485 337.003C120.795 334.047 119.021 331.134 117.289 328.178C113.909 322.267 110.529 316.356 107.275 310.318Z" fill="#0092D7"/>
<path d="M146.864 384.039C146.864 384.039 135.583 360.141 130.09 352.541L133.132 361.788L129.33 351.57C129.33 351.57 124.091 346.63 123.373 347.981C123.373 347.981 130.682 363.603 134.273 368.966L135.71 368.163L134.865 369.979C134.865 369.979 136.639 372.639 137.569 373.652L138.583 372.47L138.245 374.581C138.202 374.497 143.991 382.772 146.864 384.039Z" fill="url(#paint22_linear)"/>
<path d="M123.921 348.656C123.921 348.656 141.54 374.37 146.398 382.73L123.921 348.656Z" fill="url(#paint23_linear)"/>
<path d="M123.921 348.656C126.287 351.19 128.4 353.85 130.47 356.552C132.54 359.254 134.484 362.041 136.385 364.87C138.286 367.698 140.103 370.612 141.793 373.567C143.483 376.523 145.089 379.563 146.398 382.772C144.201 380.112 142.131 377.41 140.145 374.665C138.117 371.921 136.174 369.134 134.315 366.305C132.414 363.476 130.597 360.605 128.865 357.692C127.09 354.736 125.4 351.781 123.921 348.656Z" fill="#0092D7"/>
<path d="M204.45 339.62C204.45 339.62 188.775 276.751 175.593 255.134L175.889 278.229L173.565 252.263C173.565 252.263 157.637 236.683 152.694 239.047C152.694 239.047 162.623 280.087 170.735 295.076L178.128 294.569L171.96 297.82C171.96 297.82 176.016 305.294 178.466 308.334L184.635 306.603L180.199 310.951C180.199 310.951 193.761 334.258 204.45 339.62Z" fill="#00C0F3"/>
<path d="M207.45 300.818C207.45 300.818 221.73 262.396 213.154 242.214L198.451 251.418L211.464 239.258C211.464 239.258 194.141 218.95 184.086 215.487C184.086 215.487 174.284 240.272 178.466 253.361L191.564 259.778L178.72 255.514C178.72 255.514 180.832 262.058 183.072 265.436L194.902 270.292L184.339 268.012C184.339 268.012 192.493 289.207 207.45 300.818Z" fill="#12C3F4"/>
<path d="M185.142 217.599C185.142 217.599 207.872 282.072 209.266 299.383L185.142 217.599Z" fill="url(#paint24_linear)"/>
<path d="M185.142 217.599C187.972 224.143 190.55 230.772 192.958 237.485C194.183 240.821 195.324 244.199 196.507 247.576C197.648 250.954 198.746 254.332 199.802 257.752C201.957 264.55 203.901 271.39 205.633 278.314C206.478 281.776 207.281 285.239 207.957 288.785C208.59 292.29 209.182 295.836 209.266 299.425C208.633 295.921 207.745 292.501 206.774 289.081C206.309 287.392 205.802 285.661 205.295 283.972L203.774 278.863C201.704 272.065 199.549 265.31 197.436 258.512L194.268 248.336C193.254 244.916 192.155 241.539 191.141 238.161C189.029 231.321 187.001 224.481 185.142 217.599Z" fill="#0092D7"/>
<path d="M154.13 241.116C154.13 241.116 194.775 313.527 204.239 336.327L154.13 241.116Z" fill="url(#paint25_linear)"/>
<path d="M154.13 241.116C158.989 248.674 163.552 256.401 168.031 264.17C170.27 268.054 172.467 271.981 174.664 275.865C176.861 279.792 178.973 283.718 181.128 287.687C183.241 291.656 185.353 295.625 187.381 299.594C189.409 303.605 191.479 307.574 193.423 311.627C194.395 313.654 195.366 315.681 196.338 317.707C197.31 319.734 198.197 321.803 199.127 323.83C199.591 324.843 200.056 325.898 200.479 326.912L201.788 330.036C202.676 332.105 203.436 334.216 204.197 336.327L202.676 333.33L201.915 331.81C201.662 331.303 201.408 330.838 201.112 330.332C200.056 328.347 199.042 326.363 197.986 324.378L191.606 312.556C189.451 308.63 187.381 304.661 185.184 300.734L178.804 288.912L172.467 277.047C170.397 273.078 168.242 269.11 166.214 265.141C162.158 257.203 158.06 249.223 154.13 241.116Z" fill="#0092D7"/>
<path d="M498.214 359.888C498.214 359.888 501.341 297.441 526.226 274.261L541.774 296.006L530.451 271.137C530.451 271.137 568.054 253.066 584.742 254.163C584.742 254.163 583.602 294.866 569.49 310.699L546.591 311.839L567.8 313.528C567.8 313.528 560.744 321.423 555.379 324.843L535.31 324.548L551.999 327.672C551.956 327.672 527.071 352.541 498.214 359.888Z" fill="#63CDF6"/>
<path d="M581.912 256.443C581.912 256.443 509.242 333.288 496.524 356.763L581.912 256.443Z" fill="url(#paint26_linear)"/>
<path d="M581.912 256.443C574.772 264.803 567.505 273.037 560.238 281.312L538.437 306.012C534.803 310.108 531.17 314.246 527.578 318.383C523.945 322.521 520.396 326.659 516.805 330.839C515.03 332.908 513.256 335.019 511.523 337.13C509.749 339.241 508.017 341.352 506.327 343.506C504.594 345.617 502.904 347.812 501.257 350.008L500.031 351.654C499.609 352.203 499.229 352.794 498.848 353.343C498.046 354.441 497.327 355.623 496.567 356.763C497.792 354.314 499.186 351.908 500.665 349.586C502.144 347.263 503.707 344.983 505.313 342.746C508.524 338.27 511.861 333.879 515.284 329.572L517.861 326.363L520.48 323.154C522.213 321.043 523.987 318.932 525.762 316.821C529.311 312.599 532.944 308.461 536.535 304.323C540.169 300.228 543.845 296.09 547.563 292.037C551.281 287.983 554.999 283.93 558.801 279.961C566.322 271.981 574.011 264.086 581.912 256.443Z" fill="#0092D7"/>
<path d="M499.397 360.943C499.397 360.943 522.93 327.039 534.338 316.272L528 329.361L535.943 314.921C535.943 314.921 546.886 307.912 548.365 309.812C548.365 309.812 533.112 331.979 525.676 339.536L522.677 338.396L524.451 340.93C524.451 340.93 520.733 344.73 518.832 346.165L516.677 344.476L517.395 347.432C517.395 347.432 505.354 359.128 499.397 360.943Z" fill="url(#paint27_linear)"/>
<path d="M547.225 310.825C547.225 310.825 510.509 347.305 500.327 359.127L547.225 310.825Z" fill="url(#paint28_linear)"/>
<path d="M547.225 310.825C543.633 315.132 539.831 319.312 536.028 323.407C534.127 325.476 532.184 327.503 530.24 329.53L524.367 335.567C520.438 339.579 516.467 343.505 512.453 347.432C508.439 351.359 504.383 355.243 500.327 359.127C503.623 354.525 507.298 350.261 511.016 346.081C514.777 341.901 518.621 337.805 522.551 333.794C524.536 331.81 526.522 329.825 528.508 327.841C530.536 325.899 532.522 323.914 534.592 322.014C538.69 318.172 542.873 314.414 547.225 310.825Z" fill="#0092D7"/>
<path d="M552.505 375.89C552.505 375.89 553.984 331.852 565.941 315.47L573.419 330.838L568.011 313.316C568.011 313.316 586.052 300.565 594.037 301.367C594.037 301.367 593.488 330.078 586.728 341.225L575.743 342.027L585.925 343.21C585.925 343.21 582.545 348.783 579.968 351.19L570.335 350.978L578.32 353.174C578.278 353.132 566.321 370.696 552.505 375.89Z" fill="#78D2F7"/>
<path d="M592.643 302.93C592.643 302.93 557.787 357.143 551.661 373.694L592.643 302.93Z" fill="url(#paint29_linear)"/>
<path d="M592.643 302.93C589.39 308.967 586.01 314.879 582.588 320.747C580.898 323.703 579.123 326.616 577.391 329.572L572.152 338.354L561.674 355.876C559.942 358.832 558.209 361.745 556.519 364.701C554.787 367.656 553.224 370.654 551.661 373.694C552.675 370.443 553.984 367.234 555.379 364.11L556.477 361.787L557.026 360.605L557.576 359.465C558.336 357.945 559.139 356.425 559.899 354.905C563.068 348.867 566.448 342.914 569.955 337.045C571.729 334.132 573.504 331.219 575.321 328.305C577.137 325.434 578.954 322.521 580.855 319.692C584.658 313.992 588.545 308.376 592.643 302.93Z" fill="#0092D7"/>
<path d="M553.055 376.649C553.055 376.649 564.335 352.751 569.828 345.151L566.786 354.398L570.588 344.18C570.588 344.18 575.827 339.24 576.546 340.591C576.546 340.591 569.236 356.214 565.645 361.576L564.209 360.774L565.054 362.589C565.054 362.589 563.279 365.249 562.35 366.263L561.336 365.08L561.674 367.191C561.716 367.107 555.928 375.34 553.055 376.649Z" fill="url(#paint30_linear)"/>
<path d="M575.997 341.268C575.997 341.268 558.378 366.981 553.52 375.341L575.997 341.268Z" fill="url(#paint31_linear)"/>
<path d="M575.996 341.268C574.517 344.392 572.827 347.348 571.095 350.261C569.363 353.174 567.504 356.045 565.645 358.874C563.744 361.703 561.8 364.49 559.814 367.234C557.786 369.979 555.716 372.681 553.562 375.341C554.829 372.132 556.477 369.134 558.167 366.136C559.857 363.181 561.673 360.31 563.575 357.439C565.476 354.61 567.419 351.823 569.49 349.121C571.518 346.461 573.63 343.801 575.996 341.268Z" fill="#0092D7"/>
<path d="M495.468 332.232C495.468 332.232 511.143 269.363 524.325 247.745L524.029 270.841L526.353 244.874C526.353 244.874 542.281 229.294 547.225 231.658C547.225 231.658 537.296 272.698 529.184 287.687L521.79 287.181L527.958 290.432C527.958 290.432 523.903 297.905 521.452 300.945L515.283 299.214L519.72 303.563C519.72 303.563 506.158 326.869 495.468 332.232Z" fill="#00BFF3"/>
<path d="M492.469 293.43C492.469 293.43 478.188 255.008 486.765 234.825L501.468 244.03L488.455 231.87C488.455 231.87 505.777 211.561 515.833 208.099C515.833 208.099 525.635 232.883 521.452 245.972L508.355 252.39L521.199 248.125C521.199 248.125 519.086 254.67 516.847 258.048L505.017 262.903L515.579 260.623C515.579 260.581 507.467 281.819 492.469 293.43Z" fill="#00C2F3"/>
<path d="M514.776 210.21C514.776 210.21 492.046 274.683 490.651 291.994L514.776 210.21Z" fill="url(#paint32_linear)"/>
<path d="M514.776 210.21C512.917 217.092 510.889 223.932 508.819 230.73C507.805 234.15 506.707 237.528 505.693 240.905L502.524 251.081C500.411 257.879 498.257 264.634 496.186 271.432L494.665 276.541C494.158 278.23 493.651 279.961 493.187 281.65C492.215 285.07 491.328 288.49 490.694 291.994C490.778 288.405 491.37 284.859 492.004 281.354C492.68 277.85 493.44 274.345 494.327 270.883C496.06 263.959 498.003 257.119 500.158 250.321C501.256 246.943 502.355 243.523 503.453 240.145C504.636 236.768 505.735 233.39 507.002 230.054C509.368 223.383 511.946 216.754 514.776 210.21Z" fill="#0092D7"/>
<path d="M545.788 233.728C545.788 233.728 505.143 306.139 495.679 328.939L545.788 233.728Z" fill="url(#paint33_linear)"/>
<path d="M545.788 233.728C541.859 241.792 537.76 249.772 533.62 257.752C531.55 261.721 529.437 265.69 527.367 269.659L521.029 281.523L514.65 293.345C512.495 297.272 510.425 301.241 508.228 305.168L501.848 316.99C500.749 318.932 499.778 320.959 498.721 322.943C498.468 323.45 498.172 323.914 497.919 324.421L497.158 325.941L495.637 328.939C496.44 326.828 497.158 324.716 498.045 322.648L499.355 319.523C499.778 318.468 500.242 317.454 500.707 316.441C501.637 314.414 502.566 312.345 503.496 310.319C504.467 308.292 505.439 306.265 506.411 304.239C508.354 300.185 510.425 296.216 512.453 292.205C514.523 288.194 516.635 284.268 518.706 280.299C520.86 276.372 522.973 272.403 525.17 268.476C527.367 264.55 529.564 260.623 531.803 256.781C536.366 249.012 540.929 241.328 545.788 233.728Z" fill="#0092D7"/>
<path d="M358.241 417.437C503.542 417.437 621.331 400.329 621.331 379.226C621.331 358.122 503.542 341.015 358.241 341.015C212.94 341.015 95.1499 358.122 95.1499 379.226C95.1499 400.329 212.94 417.437 358.241 417.437Z" fill="#A8E0F9"/>
<path d="M200.859 395.862H141.878C141.878 395.862 148.131 393.962 145.512 391.471C145.512 391.471 155.398 392.78 155.06 394.342C155.06 394.342 148.807 390.837 155.398 388.726C155.398 388.726 164.609 391.64 161.651 393.793C161.651 393.793 173.186 390.711 168.58 388.431C168.58 388.431 181.762 390.626 180.115 393.497C180.115 393.497 190.973 393.455 190.973 391.935C190.973 391.935 191.607 396.031 200.859 395.862Z" fill="#B9E5FB"/>
<path d="M559.224 394.637H500.243C500.243 394.637 506.496 392.737 503.877 390.246C503.877 390.246 513.763 391.555 513.425 393.117C513.425 393.117 507.172 389.613 513.763 387.502C513.763 387.502 522.974 390.415 520.016 392.568C520.016 392.568 531.55 389.486 526.945 387.206C526.945 387.206 540.127 389.402 538.479 392.273C538.479 392.273 549.338 392.231 549.338 390.711C549.338 390.711 549.971 394.806 559.224 394.637Z" fill="#B9E5FB"/>
<path d="M456.26 374.581C456.26 238.161 256.502 234.868 246.785 364.617C225.153 362.548 203.479 360.479 181.847 358.453C197.606 148.059 521.452 153.464 521.452 374.581C499.736 374.581 477.977 374.581 456.26 374.581Z" fill="#6D6E71"/>
<path d="M435.896 309.349C383.379 240.231 247.376 261.553 246.405 373.4C224.688 373.146 202.972 372.893 181.213 372.64C182.776 191.338 403.237 156.758 488.37 268.815C470.921 282.326 453.387 295.838 435.896 309.349Z" fill="#6D6E71"/>
<path d="M377.126 272.615C317.68 259.104 246.405 293.135 246.405 374.581C224.688 374.581 202.972 374.581 181.213 374.581C181.213 242.51 296.724 187.41 393.139 209.239C387.815 230.35 382.492 251.461 377.126 272.615Z" fill="#6D6E71"/>
<path d="M306.062 278.948C272.388 293.515 246.405 325.392 246.405 374.581C224.688 374.581 202.972 374.581 181.213 374.581C181.213 294.823 223.336 243.143 277.923 219.499C287.345 239.301 296.682 259.146 306.062 278.948Z" fill="#6D6E71"/>
<path d="M464.457 262.354H245.18V373.99H464.457V262.354Z" fill="#F1F2F2"/>
<path d="M452.204 374.539C452.204 242.764 259.206 239.555 249.785 364.912C228.871 362.928 207.957 360.944 187.043 358.917C202.253 155.659 515.199 160.852 515.199 374.497C494.201 374.539 473.203 374.539 452.204 374.539Z" fill="#939598"/>
<path d="M432.517 311.501C381.774 244.705 250.419 265.352 249.49 373.357C228.491 373.103 207.493 372.892 186.537 372.639C188.058 197.459 401.04 164.019 483.343 272.319C466.359 285.366 449.459 298.454 432.517 311.501Z" fill="#A7A9AC"/>
<path d="M375.775 275.993C318.315 262.988 249.489 295.837 249.489 374.539C228.491 374.539 207.493 374.539 186.495 374.539C186.495 246.944 298.119 193.659 391.238 214.771C386.084 235.164 380.929 255.599 375.775 275.993Z" fill="#BCBEC0"/>
<path d="M307.118 282.115C274.586 296.217 249.447 326.997 249.447 374.539C228.449 374.539 207.45 374.539 186.452 374.539C186.452 297.483 227.139 247.535 279.909 224.692C288.993 243.861 298.034 262.988 307.118 282.115Z" fill="#D1D3D4"/>
<path d="M354.565 361.281C354.311 360.353 355.072 359.381 356.17 359.086L420.052 342.999C421.193 342.704 422.291 343.253 422.545 344.181C422.798 345.11 422.038 346.081 420.939 346.377L357.057 362.464C355.917 362.717 354.818 362.21 354.565 361.281Z" fill="url(#paint34_linear)"/>
<path d="M350.298 370.782C354.871 370.782 358.579 367.076 358.579 362.506C358.579 357.936 354.871 354.23 350.298 354.23C345.724 354.23 342.017 357.936 342.017 362.506C342.017 367.076 345.724 370.782 350.298 370.782Z" fill="url(#paint35_linear)"/>
<path d="M414.645 341.606C414.391 340.466 415.152 339.495 416.292 339.452L443.881 338.397C445.022 338.355 445.149 338.735 444.093 339.241L418.954 351.57C417.898 352.077 416.842 351.57 416.588 350.43L414.645 341.606Z" fill="url(#paint36_linear)"/>
<path d="M350.086 223.426C350.086 224.608 349.453 225.537 348.734 225.537C348.016 225.537 347.382 224.608 347.382 223.426V212.364C347.382 211.182 348.016 210.253 348.734 210.253C349.453 210.253 350.086 211.182 350.086 212.364V223.426Z" fill="url(#paint37_linear)"/>
<path d="M319.497 226.381C319.709 227.521 319.286 228.577 318.568 228.703C317.807 228.83 317.047 228.028 316.836 226.888L314.765 215.995C314.554 214.855 314.977 213.799 315.695 213.672C316.455 213.546 317.216 214.348 317.427 215.488L319.497 226.381Z" fill="url(#paint38_linear)"/>
<path d="M296.555 232.377C296.936 233.475 296.682 234.573 295.964 234.826C295.246 235.079 294.358 234.404 293.978 233.306L290.218 222.877C289.838 221.779 290.091 220.682 290.809 220.428C291.528 220.175 292.415 220.85 292.795 221.948L296.555 232.377Z" fill="url(#paint39_linear)"/>
<path d="M270.952 243.861C271.544 244.874 271.501 245.972 270.868 246.394C270.234 246.774 269.22 246.268 268.628 245.255L262.967 235.712C262.375 234.699 262.418 233.601 263.051 233.179C263.685 232.799 264.699 233.306 265.291 234.319L270.952 243.861Z" fill="url(#paint40_linear)"/>
<path d="M249.743 258.513C250.503 259.399 250.672 260.497 250.081 261.004C249.532 261.51 248.433 261.173 247.673 260.286L240.406 251.926C239.645 251.039 239.476 249.942 240.068 249.435C240.617 248.928 241.715 249.266 242.476 250.153L249.743 258.513Z" fill="url(#paint41_linear)"/>
<path d="M232.547 275.697C233.434 276.415 233.814 277.512 233.35 278.103C232.885 278.695 231.744 278.568 230.857 277.85L222.196 270.926C221.308 270.208 220.928 269.11 221.393 268.519C221.858 267.928 222.998 268.055 223.886 268.772L232.547 275.697Z" fill="url(#paint42_linear)"/>
<path d="M218.985 295.415C219.999 295.963 220.548 296.977 220.168 297.61C219.787 298.286 218.689 298.37 217.675 297.779L207.957 292.459C206.943 291.91 206.394 290.897 206.774 290.263C207.155 289.588 208.253 289.503 209.267 290.095L218.985 295.415Z" fill="url(#paint43_linear)"/>
<path d="M207.999 320.241C209.098 320.621 209.816 321.465 209.563 322.183C209.309 322.901 208.253 323.197 207.112 322.817L196.592 319.354C195.493 318.974 194.775 318.13 195.029 317.412C195.282 316.694 196.338 316.399 197.479 316.779L207.999 320.241Z" fill="url(#paint44_linear)"/>
<path d="M202.042 344.434C203.183 344.603 204.028 345.363 203.901 346.123C203.775 346.883 202.761 347.305 201.62 347.136L190.677 345.405C189.537 345.236 188.692 344.476 188.818 343.716C188.945 342.956 189.959 342.534 191.1 342.703L202.042 344.434Z" fill="url(#paint45_linear)"/>
<path d="M199.761 368.079C200.944 368.079 201.873 368.712 201.873 369.43C201.873 370.148 200.944 370.781 199.761 370.781H188.691C187.508 370.781 186.579 370.148 186.579 369.43C186.579 368.712 187.508 368.079 188.691 368.079H199.761Z" fill="url(#paint46_linear)"/>
<path d="M501.342 365.63C500.201 365.673 499.187 365.124 499.187 364.364C499.187 363.604 500.074 362.97 501.215 362.886L512.285 362.379C513.425 362.337 514.439 362.886 514.439 363.646C514.482 364.406 513.552 365.039 512.411 365.124L501.342 365.63Z" fill="url(#paint47_linear)"/>
<path d="M498.722 343.506C497.581 343.717 496.525 343.295 496.398 342.577C496.272 341.817 497.074 341.057 498.215 340.846L509.116 338.777C510.256 338.566 511.313 338.988 511.439 339.706C511.566 340.466 510.763 341.226 509.623 341.437L498.722 343.506Z" fill="url(#paint48_linear)"/>
<path d="M492.723 320.579C491.624 320.959 490.525 320.706 490.272 319.988C490.018 319.271 490.694 318.384 491.793 318.004L502.229 314.246C503.327 313.866 504.426 314.12 504.679 314.837C504.933 315.555 504.257 316.442 503.158 316.822L492.723 320.579Z" fill="url(#paint49_linear)"/>
<path d="M481.231 294.993C480.217 295.584 479.118 295.542 478.696 294.908C478.315 294.275 478.822 293.262 479.836 292.671L489.385 287.013C490.399 286.422 491.497 286.464 491.92 287.097C492.3 287.731 491.793 288.744 490.779 289.335L481.231 294.993Z" fill="url(#paint50_linear)"/>
<path d="M466.57 273.797C465.683 274.557 464.584 274.726 464.077 274.135C463.57 273.543 463.908 272.488 464.795 271.728L473.161 264.466C474.048 263.706 475.147 263.537 475.654 264.128C476.161 264.719 475.823 265.775 474.935 266.535L466.57 273.797Z" fill="url(#paint51_linear)"/>
<path d="M449.331 256.613C448.613 257.499 447.515 257.879 446.923 257.415C446.332 256.95 446.458 255.81 447.177 254.924L454.106 246.268C454.824 245.381 455.922 245.001 456.514 245.466C457.105 245.93 456.979 247.07 456.26 247.957L449.331 256.613Z" fill="url(#paint52_linear)"/>
<path d="M429.643 243.059C429.094 244.073 428.08 244.622 427.446 244.242C426.77 243.862 426.686 242.764 427.277 241.751L432.601 232.039C433.15 231.026 434.164 230.477 434.798 230.857C435.474 231.237 435.558 232.335 434.967 233.348L429.643 243.059Z" fill="url(#paint53_linear)"/>
<path d="M404.8 232.082C404.42 233.179 403.575 233.897 402.856 233.644C402.138 233.39 401.842 232.335 402.223 231.195L405.687 220.682C406.067 219.584 406.912 218.866 407.631 219.119C408.349 219.373 408.645 220.428 408.264 221.568L404.8 232.082Z" fill="url(#paint54_linear)"/>
<path d="M380.591 226.129C380.422 227.269 379.662 228.113 378.901 227.986C378.141 227.86 377.718 226.846 377.887 225.706L379.619 214.771C379.788 213.631 380.549 212.786 381.309 212.913C382.07 213.04 382.492 214.053 382.323 215.193L380.591 226.129Z" fill="url(#paint55_linear)"/>
<path d="M290.556 120.657L56.1531 270.715L53.8716 267.126L288.275 117.068L290.556 120.657Z" fill="url(#paint56_linear)"/>
<path d="M335.806 163.555L285.613 119.981L288.401 116.772L338.594 160.346L335.806 163.555Z" fill="url(#paint57_linear)"/>
<path d="M563.322 53.5236L335.679 163.597L333.82 159.797L561.505 49.7236L563.322 53.5236Z" fill="url(#paint58_linear)"/>
<path d="M557.66 48.6681C557.196 47.6125 557.745 46.5147 558.843 46.2614L588.672 39.0836C589.813 38.8303 589.982 39.1681 589.052 39.8859L564.378 58.8014C563.449 59.5192 562.308 59.2236 561.843 58.1681L557.66 48.6681Z" fill="url(#paint59_linear)"/>
<path d="M201.409 377.79H100.431C100.431 377.79 111.163 373.188 106.642 367.235C106.642 367.235 123.584 370.401 122.993 374.159C122.993 374.159 112.261 365.672 123.542 360.563C123.542 360.563 139.343 367.615 134.273 372.808C134.273 372.808 154.004 365.419 146.103 359.846C146.103 359.846 168.665 365.166 165.834 372.09C165.834 372.09 184.466 371.963 184.466 368.332C184.466 368.29 185.607 378.128 201.409 377.79Z" fill="url(#paint60_linear)"/>
<path d="M615.205 378.55H514.228C514.228 378.55 524.959 373.948 520.438 367.994C520.438 367.994 537.381 371.161 536.789 374.919C536.789 374.919 526.058 366.432 537.338 361.323C537.338 361.323 553.14 368.374 548.07 373.568C548.07 373.568 567.801 366.179 559.9 360.605C559.9 360.605 582.461 365.925 579.631 372.85C579.631 372.85 598.263 372.723 598.263 369.092C598.305 369.092 599.404 378.93 615.205 378.55Z" fill="url(#paint61_linear)"/>
<path d="M200.859 395.861H141.878C141.878 395.861 148.131 393.961 145.512 391.47C145.512 391.47 155.398 392.779 155.06 394.341C155.06 394.341 148.807 390.836 155.398 388.725C155.398 388.725 164.609 391.639 161.651 393.792C161.651 393.792 173.186 390.71 168.58 388.43C168.58 388.43 181.762 390.625 180.115 393.496C180.115 393.496 190.973 393.454 190.973 391.934C190.973 391.934 191.607 396.03 200.859 395.861Z" fill="url(#paint62_linear)"/>
<path d="M559.224 394.637H500.243C500.243 394.637 506.496 392.737 503.877 390.246C503.877 390.246 513.763 391.555 513.425 393.117C513.425 393.117 507.172 389.613 513.763 387.502C513.763 387.502 522.974 390.415 520.016 392.568C520.016 392.568 531.55 389.486 526.945 387.206C526.945 387.206 540.127 389.402 538.479 392.273C538.479 392.273 549.338 392.231 549.338 390.711C549.338 390.711 549.971 394.806 559.224 394.637Z" fill="url(#paint63_linear)"/>
</g>
<defs>
<filter id="filter0_d" x="-19" y="-20" width="736" height="516" filterUnits="userSpaceOnUse" color-interpolation-filters="sRGB">
<feFlood flood-opacity="0" result="BackgroundImageFix"/>
<feColorMatrix in="SourceAlpha" type="matrix" values="0 0 0 0 0 0 0 0 0 0 0 0 0 0 0 0 0 0 127 0" result="hardAlpha"/>
<feOffset dy="10"/>
<feGaussianBlur stdDeviation="15"/>
<feColorMatrix type="matrix" values="0 0 0 0 0 0 0 0 0 0 0 0 0 0 0 0 0 0 0.25 0"/>
<feBlend mode="normal" in2="BackgroundImageFix" result="effect1_dropShadow"/>
<feBlend mode="normal" in="SourceGraphic" in2="effect1_dropShadow" result="shape"/>
</filter>
<linearGradient id="paint0_linear" x1="659.698" y1="344.551" x2="613.786" y2="334.437" gradientUnits="userSpaceOnUse">
<stop stop-color="#43B5E8"/>
<stop offset="1" stop-color="#43B5E8"/>
</linearGradient>
<linearGradient id="paint1_linear" x1="627.292" y1="355.502" x2="622.835" y2="350.788" gradientUnits="userSpaceOnUse">
<stop stop-color="#43B5E8"/>
<stop offset="1" stop-color="#43B5E8"/>
</linearGradient>
<linearGradient id="paint2_linear" x1="627.252" y1="355.248" x2="622.853" y2="350.596" gradientUnits="userSpaceOnUse">
<stop stop-color="#43B5E8"/>
<stop offset="1" stop-color="#43B5E8"/>
</linearGradient>
<linearGradient id="paint3_linear" x1="639.085" y1="369.186" x2="625.617" y2="356.89" gradientUnits="userSpaceOnUse">
<stop stop-color="#43B5E8"/>
<stop offset="1" stop-color="#43B5E8"/>
</linearGradient>
<linearGradient id="paint4_linear" x1="623.17" y1="369.964" x2="622.366" y2="366.602" gradientUnits="userSpaceOnUse">
<stop stop-color="#43B5E8"/>
<stop offset="1" stop-color="#43B5E8"/>
</linearGradient>
<linearGradient id="paint5_linear" x1="623.106" y1="369.29" x2="622.727" y2="367.703" gradientUnits="userSpaceOnUse">
<stop stop-color="#43B5E8"/>
<stop offset="1" stop-color="#43B5E8"/>
</linearGradient>
<linearGradient id="paint6_linear" x1="636.91" y1="327.364" x2="623.205" y2="320.819" gradientUnits="userSpaceOnUse">
<stop stop-color="#43B5E8"/>
<stop offset="1" stop-color="#43B5E8"/>
</linearGradient>
<linearGradient id="paint7_linear" x1="638.379" y1="302.547" x2="608.99" y2="308.115" gradientUnits="userSpaceOnUse">
<stop stop-color="#43B5E8"/>
<stop offset="1" stop-color="#43B5E8"/>
</linearGradient>
<linearGradient id="paint8_linear" x1="636.56" y1="326.946" x2="623.033" y2="320.486" gradientUnits="userSpaceOnUse">
<stop stop-color="#43B5E8"/>
<stop offset="1" stop-color="#43B5E8"/>
</linearGradient>
<linearGradient id="paint9_linear" x1="37.6982" y1="345.38" x2="83.6098" y2="335.266" gradientUnits="userSpaceOnUse">
<stop stop-color="#43B5E8"/>
<stop offset="1" stop-color="#43B5E8"/>
</linearGradient>
<linearGradient id="paint10_linear" x1="70.0925" y1="356.306" x2="74.5492" y2="351.592" gradientUnits="userSpaceOnUse">
<stop stop-color="#43B5E8"/>
<stop offset="1" stop-color="#43B5E8"/>
</linearGradient>
<linearGradient id="paint11_linear" x1="70.1331" y1="356.052" x2="74.5314" y2="351.4" gradientUnits="userSpaceOnUse">
<stop stop-color="#43B5E8"/>
<stop offset="1" stop-color="#43B5E8"/>
</linearGradient>
<linearGradient id="paint12_linear" x1="58.3075" y1="369.996" x2="71.7753" y2="357.699" gradientUnits="userSpaceOnUse">
<stop stop-color="#43B5E8"/>
<stop offset="1" stop-color="#43B5E8"/>
</linearGradient>
<linearGradient id="paint13_linear" x1="74.2459" y1="370.791" x2="75.0496" y2="367.429" gradientUnits="userSpaceOnUse">
<stop stop-color="#43B5E8"/>
<stop offset="1" stop-color="#43B5E8"/>
</linearGradient>
<linearGradient id="paint14_linear" x1="74.3102" y1="370.117" x2="74.6895" y2="368.53" gradientUnits="userSpaceOnUse">
<stop stop-color="#43B5E8"/>
<stop offset="1" stop-color="#43B5E8"/>
</linearGradient>
<linearGradient id="paint15_linear" x1="60.4875" y1="328.178" x2="74.1931" y2="321.633" gradientUnits="userSpaceOnUse">
<stop stop-color="#43B5E8"/>
<stop offset="1" stop-color="#43B5E8"/>
</linearGradient>
<linearGradient id="paint16_linear" x1="59.022" y1="303.372" x2="88.4108" y2="308.94" gradientUnits="userSpaceOnUse">
<stop stop-color="#43B5E8"/>
<stop offset="1" stop-color="#43B5E8"/>
</linearGradient>
<linearGradient id="paint17_linear" x1="60.8374" y1="327.759" x2="74.3638" y2="321.299" gradientUnits="userSpaceOnUse">
<stop stop-color="#43B5E8"/>
<stop offset="1" stop-color="#43B5E8"/>
</linearGradient>
<linearGradient id="paint18_linear" x1="118.012" y1="313.997" x2="203.41" y2="313.997" gradientUnits="userSpaceOnUse">
<stop stop-color="#43B5E8"/>
<stop offset="1" stop-color="#43B5E8"/>
</linearGradient>
<linearGradient id="paint19_linear" x1="171.149" y1="346.07" x2="180.897" y2="339.448" gradientUnits="userSpaceOnUse">
<stop stop-color="#43B5E8"/>
<stop offset="1" stop-color="#43B5E8"/>
</linearGradient>
<linearGradient id="paint20_linear" x1="171.32" y1="345.635" x2="180.941" y2="339.1" gradientUnits="userSpaceOnUse">
<stop stop-color="#43B5E8"/>
<stop offset="1" stop-color="#43B5E8"/>
</linearGradient>
<linearGradient id="paint21_linear" x1="107.278" y1="345.694" x2="148.24" y2="345.694" gradientUnits="userSpaceOnUse">
<stop stop-color="#43B5E8"/>
<stop offset="1" stop-color="#43B5E8"/>
</linearGradient>
<linearGradient id="paint22_linear" x1="133.087" y1="367.339" x2="137.931" y2="364.049" gradientUnits="userSpaceOnUse">
<stop stop-color="#43B5E8"/>
<stop offset="1" stop-color="#43B5E8"/>
</linearGradient>
<linearGradient id="paint23_linear" x1="134.927" y1="365.867" x2="135.389" y2="365.553" gradientUnits="userSpaceOnUse">
<stop stop-color="#43B5E8"/>
<stop offset="1" stop-color="#43B5E8"/>
</linearGradient>
<linearGradient id="paint24_linear" x1="172.234" y1="247.833" x2="222.188" y2="269.193" gradientUnits="userSpaceOnUse">
<stop stop-color="#43B5E8"/>
<stop offset="1" stop-color="#43B5E8"/>
</linearGradient>
<linearGradient id="paint25_linear" x1="165.942" y1="291.824" x2="192.463" y2="285.651" gradientUnits="userSpaceOnUse">
<stop stop-color="#43B5E8"/>
<stop offset="1" stop-color="#43B5E8"/>
</linearGradient>
<linearGradient id="paint26_linear" x1="581.911" y1="306.605" x2="496.512" y2="306.605" gradientUnits="userSpaceOnUse">
<stop stop-color="#43B5E8"/>
<stop offset="1" stop-color="#43B5E8"/>
</linearGradient>
<linearGradient id="paint27_linear" x1="528.773" y1="338.677" x2="519.025" y2="332.055" gradientUnits="userSpaceOnUse">
<stop stop-color="#43B5E8"/>
<stop offset="1" stop-color="#43B5E8"/>
</linearGradient>
<linearGradient id="paint28_linear" x1="528.603" y1="338.243" x2="518.983" y2="331.708" gradientUnits="userSpaceOnUse">
<stop stop-color="#43B5E8"/>
<stop offset="1" stop-color="#43B5E8"/>
</linearGradient>
<linearGradient id="paint29_linear" x1="592.645" y1="338.301" x2="551.683" y2="338.301" gradientUnits="userSpaceOnUse">
<stop stop-color="#43B5E8"/>
<stop offset="1" stop-color="#43B5E8"/>
</linearGradient>
<linearGradient id="paint30_linear" x1="566.835" y1="359.945" x2="561.992" y2="356.655" gradientUnits="userSpaceOnUse">
<stop stop-color="#43B5E8"/>
<stop offset="1" stop-color="#43B5E8"/>
</linearGradient>
<linearGradient id="paint31_linear" x1="564.996" y1="358.475" x2="564.534" y2="358.161" gradientUnits="userSpaceOnUse">
<stop stop-color="#43B5E8"/>
<stop offset="1" stop-color="#43B5E8"/>
</linearGradient>
<linearGradient id="paint32_linear" x1="527.688" y1="240.44" x2="477.735" y2="261.8" gradientUnits="userSpaceOnUse">
<stop stop-color="#43B5E8"/>
<stop offset="1" stop-color="#43B5E8"/>
</linearGradient>
<linearGradient id="paint33_linear" x1="533.981" y1="284.432" x2="507.46" y2="278.258" gradientUnits="userSpaceOnUse">
<stop stop-color="#43B5E8"/>
<stop offset="1" stop-color="#43B5E8"/>
</linearGradient>
<linearGradient id="paint34_linear" x1="354.578" y1="361.328" x2="422.548" y2="344.126" gradientUnits="userSpaceOnUse">
<stop stop-color="#71459B"/>
<stop offset="0.8668" stop-color="#A76CAD"/>
</linearGradient>
<linearGradient id="paint35_linear" x1="342.05" y1="362.515" x2="358.581" y2="362.515" gradientUnits="userSpaceOnUse">
<stop stop-color="#71459B"/>
<stop offset="0.8668" stop-color="#A76CAD"/>
</linearGradient>
<linearGradient id="paint36_linear" x1="415.483" y1="346.075" x2="444.793" y2="338.657" gradientUnits="userSpaceOnUse">
<stop stop-color="#71459B"/>
<stop offset="0.8668" stop-color="#A76CAD"/>
</linearGradient>
<linearGradient id="paint37_linear" x1="347.34" y1="217.891" x2="350.077" y2="217.891" gradientUnits="userSpaceOnUse">
<stop stop-color="#71459B"/>
<stop offset="0.8668" stop-color="#A76CAD"/>
</linearGradient>
<linearGradient id="paint38_linear" x1="315.765" y1="221.459" x2="318.453" y2="220.944" gradientUnits="userSpaceOnUse">
<stop stop-color="#71459B"/>
<stop offset="0.8668" stop-color="#A76CAD"/>
</linearGradient>
<linearGradient id="paint39_linear" x1="292.089" y1="228.081" x2="294.663" y2="227.152" gradientUnits="userSpaceOnUse">
<stop stop-color="#71459B"/>
<stop offset="0.8668" stop-color="#A76CAD"/>
</linearGradient>
<linearGradient id="paint40_linear" x1="265.759" y1="240.498" x2="268.114" y2="239.104" gradientUnits="userSpaceOnUse">
<stop stop-color="#71459B"/>
<stop offset="0.8668" stop-color="#A76CAD"/>
</linearGradient>
<linearGradient id="paint41_linear" x1="244.037" y1="256.12" x2="246.106" y2="254.329" gradientUnits="userSpaceOnUse">
<stop stop-color="#71459B"/>
<stop offset="0.8668" stop-color="#A76CAD"/>
</linearGradient>
<linearGradient id="paint42_linear" x1="226.502" y1="274.378" x2="228.21" y2="272.24" gradientUnits="userSpaceOnUse">
<stop stop-color="#71459B"/>
<stop offset="0.8668" stop-color="#A76CAD"/>
</linearGradient>
<linearGradient id="paint43_linear" x1="212.785" y1="295.165" x2="214.101" y2="292.766" gradientUnits="userSpaceOnUse">
<stop stop-color="#71459B"/>
<stop offset="0.8668" stop-color="#A76CAD"/>
</linearGradient>
<linearGradient id="paint44_linear" x1="201.847" y1="321.104" x2="202.701" y2="318.505" gradientUnits="userSpaceOnUse">
<stop stop-color="#71459B"/>
<stop offset="0.8668" stop-color="#A76CAD"/>
</linearGradient>
<linearGradient id="paint45_linear" x1="196.137" y1="346.258" x2="196.566" y2="343.557" gradientUnits="userSpaceOnUse">
<stop stop-color="#71459B"/>
<stop offset="0.8668" stop-color="#A76CAD"/>
</linearGradient>
<linearGradient id="paint46_linear" x1="194.213" y1="370.813" x2="194.213" y2="368.077" gradientUnits="userSpaceOnUse">
<stop stop-color="#71459B"/>
<stop offset="0.8668" stop-color="#A76CAD"/>
</linearGradient>
<linearGradient id="paint47_linear" x1="506.748" y1="362.646" x2="506.875" y2="365.379" gradientUnits="userSpaceOnUse">
<stop stop-color="#71459B"/>
<stop offset="0.8668" stop-color="#A76CAD"/>
</linearGradient>
<linearGradient id="paint48_linear" x1="503.645" y1="339.782" x2="504.158" y2="342.469" gradientUnits="userSpaceOnUse">
<stop stop-color="#71459B"/>
<stop offset="0.8668" stop-color="#A76CAD"/>
</linearGradient>
<linearGradient id="paint49_linear" x1="497.027" y1="316.112" x2="497.955" y2="318.686" gradientUnits="userSpaceOnUse">
<stop stop-color="#71459B"/>
<stop offset="0.8668" stop-color="#A76CAD"/>
</linearGradient>
<linearGradient id="paint50_linear" x1="484.59" y1="289.813" x2="485.982" y2="292.168" gradientUnits="userSpaceOnUse">
<stop stop-color="#71459B"/>
<stop offset="0.8668" stop-color="#A76CAD"/>
</linearGradient>
<linearGradient id="paint51_linear" x1="468.968" y1="268.112" x2="470.758" y2="270.182" gradientUnits="userSpaceOnUse">
<stop stop-color="#71459B"/>
<stop offset="0.8668" stop-color="#A76CAD"/>
</linearGradient>
<linearGradient id="paint52_linear" x1="450.707" y1="250.57" x2="452.845" y2="252.279" gradientUnits="userSpaceOnUse">
<stop stop-color="#71459B"/>
<stop offset="0.8668" stop-color="#A76CAD"/>
</linearGradient>
<linearGradient id="paint53_linear" x1="429.886" y1="236.872" x2="432.285" y2="238.189" gradientUnits="userSpaceOnUse">
<stop stop-color="#71459B"/>
<stop offset="0.8668" stop-color="#A76CAD"/>
</linearGradient>
<linearGradient id="paint54_linear" x1="403.926" y1="225.932" x2="406.526" y2="226.786" gradientUnits="userSpaceOnUse">
<stop stop-color="#71459B"/>
<stop offset="0.8668" stop-color="#A76CAD"/>
</linearGradient>
<linearGradient id="paint55_linear" x1="378.768" y1="220.22" x2="381.471" y2="220.649" gradientUnits="userSpaceOnUse">
<stop stop-color="#71459B"/>
<stop offset="0.8668" stop-color="#A76CAD"/>
</linearGradient>
<linearGradient id="paint56_linear" x1="55.0173" y1="268.91" x2="289.317" y2="118.715" gradientUnits="userSpaceOnUse">
<stop stop-color="#71459B"/>
<stop offset="0.8668" stop-color="#A76CAD"/>
</linearGradient>
<linearGradient id="paint57_linear" x1="286.971" y1="118.375" x2="337.117" y2="161.954" gradientUnits="userSpaceOnUse">
<stop stop-color="#71459B"/>
<stop offset="0.8668" stop-color="#A76CAD"/>
</linearGradient>
<linearGradient id="paint58_linear" x1="334.754" y1="161.72" x2="562.355" y2="51.5379" gradientUnits="userSpaceOnUse">
<stop stop-color="#71459B"/>
<stop offset="0.8668" stop-color="#A76CAD"/>
</linearGradient>
<linearGradient id="paint59_linear" x1="559.591" y1="53.4695" x2="589.595" y2="39.1035" gradientUnits="userSpaceOnUse">
<stop stop-color="#71459B"/>
<stop offset="0.8668" stop-color="#A76CAD"/>
</linearGradient>
<linearGradient id="paint60_linear" x1="201.406" y1="368.799" x2="100.418" y2="368.799" gradientUnits="userSpaceOnUse">
<stop stop-color="#7DD3F7"/>
<stop offset="1" stop-color="#43B5E8"/>
</linearGradient>
<linearGradient id="paint61_linear" x1="615.212" y1="369.585" x2="514.224" y2="369.585" gradientUnits="userSpaceOnUse">
<stop stop-color="#7DD3F7"/>
<stop offset="1" stop-color="#43B5E8"/>
</linearGradient>
<linearGradient id="paint62_linear" x1="200.852" y1="392.139" x2="141.88" y2="392.139" gradientUnits="userSpaceOnUse">
<stop stop-color="#7DD3F7"/>
<stop offset="1" stop-color="#43B5E8"/>
</linearGradient>
<linearGradient id="paint63_linear" x1="559.211" y1="390.934" x2="500.239" y2="390.934" gradientUnits="userSpaceOnUse">
<stop stop-color="#7DD3F7"/>
<stop offset="1" stop-color="#43B5E8"/>
</linearGradient>
</defs>
</svg>
