<svg width="654" height="440" viewBox="0 0 654 440" fill="none" xmlns="http://www.w3.org/2000/svg">
<g filter="url(#filter0_d)">
<path opacity="0.75" d="M641.568 373.674H515.732C515.732 373.674 529.098 366.096 523.475 356.278C523.475 356.278 544.543 361.492 543.85 367.685C543.85 367.685 530.484 353.711 544.543 345.318C544.543 345.318 564.225 356.889 557.909 365.485C557.909 365.485 582.522 353.304 572.66 344.096C572.66 344.096 600.778 352.896 597.273 364.263C597.273 364.263 620.46 364.059 620.46 358.07C620.46 358.07 621.886 374.244 641.568 373.674Z" fill="url(#paint0_linear)"/>
<path opacity="0.75" d="M41.3208 372.982H167.157C167.157 372.982 153.791 365.404 159.414 355.585C159.414 355.585 138.347 360.8 139.039 366.993C139.039 366.993 152.405 353.019 138.347 344.626C138.347 344.626 118.664 356.196 124.981 364.793C124.981 364.793 100.368 352.611 110.229 343.404C110.229 343.404 82.1115 352.204 85.6161 363.57C85.6161 363.57 62.4293 363.367 62.4293 357.378C62.3885 357.378 61.003 373.552 41.3208 372.982Z" fill="url(#paint1_linear)"/>
<path d="M511.698 75.4927H116.667C107.417 75.4927 99.9189 83.0704 99.9189 92.4408V359.782C99.9189 369.152 107.417 376.73 116.667 376.73H511.738C520.989 376.73 528.487 369.152 528.487 359.782V92.4408C528.446 83.0704 520.948 75.4927 511.698 75.4927Z" fill="#808285"/>
<path d="M507.582 79.1187H120.905C111.859 79.1187 104.524 86.4927 104.524 95.6187V355.87C104.524 364.956 111.859 372.37 120.905 372.37H507.582C516.629 372.37 523.964 364.996 523.964 355.87V95.6187C523.964 86.5335 516.629 79.1187 507.582 79.1187Z" fill="#E9F7FE"/>
<path d="M146.333 98.0223H126.732C125.958 98.0223 125.224 97.7371 124.695 97.1667C124.165 96.6371 123.839 95.9038 123.839 95.1297C123.839 94.763 123.92 94.3964 124.043 94.0297C124.206 93.663 124.409 93.3778 124.654 93.0926C124.939 92.8075 125.224 92.6038 125.591 92.4815C125.958 92.3593 126.325 92.2778 126.691 92.2778H146.292C146.659 92.2778 147.026 92.3593 147.392 92.4815C147.759 92.6445 148.044 92.8482 148.33 93.0926C148.615 93.3778 148.819 93.663 148.941 94.0297C149.063 94.3964 149.145 94.763 149.145 95.1297C149.145 95.9038 148.859 96.6371 148.289 97.1667C147.8 97.7371 147.066 98.0223 146.333 98.0223Z" fill="#E2E3E4"/>
<path d="M193.114 98.0221H173.514C173.147 98.0221 172.78 97.9406 172.413 97.8184C172.047 97.6554 171.761 97.4517 171.476 97.2072C171.191 96.9221 170.987 96.6369 170.865 96.2702C170.702 95.9035 170.661 95.5369 170.661 95.1702C170.661 94.8035 170.743 94.4369 170.865 94.0702C171.028 93.7035 171.232 93.4184 171.476 93.1332C171.761 92.848 172.047 92.6443 172.413 92.5221C172.78 92.3591 173.147 92.3184 173.514 92.3184H193.114C193.889 92.3184 194.622 92.6035 195.152 93.1739C195.682 93.7035 196.008 94.4369 196.008 95.2109C196.008 95.985 195.722 96.7184 195.152 97.248C194.622 97.7369 193.889 98.0221 193.114 98.0221Z" fill="#E2E3E4"/>
<path d="M236.513 98.0223H216.912C216.138 98.0223 215.404 97.7371 214.874 97.1667C214.345 96.6371 214.019 95.9038 214.019 95.1297C214.019 94.763 214.1 94.3964 214.222 94.0297C214.385 93.663 214.589 93.3778 214.834 93.0926C215.119 92.8075 215.404 92.6038 215.771 92.4815C216.138 92.3186 216.504 92.2778 216.871 92.2778H236.472C237.246 92.2778 237.98 92.563 238.509 93.1334C239.039 93.663 239.365 94.3964 239.365 95.1704C239.365 95.9445 239.08 96.6778 238.509 97.2075C237.98 97.7371 237.246 98.0223 236.513 98.0223Z" fill="#E2E3E4"/>
<path d="M382.887 101.933H280.442C279.545 101.933 278.69 101.77 277.834 101.404C277.019 101.078 276.285 100.548 275.633 99.9371C275.022 99.326 274.492 98.5519 274.166 97.7371C273.84 96.9223 273.637 96.026 273.637 95.1297C273.637 93.3371 274.37 91.626 275.633 90.363C276.897 89.1 278.608 88.3667 280.401 88.3667H382.887C384.68 88.3667 386.392 89.0593 387.655 90.363C388.918 91.626 389.652 93.3371 389.652 95.1297C389.652 96.9223 388.959 98.6334 387.655 99.8963C386.433 101.2 384.68 101.933 382.887 101.933Z" fill="#E2E3E4"/>
<path d="M513.083 95.1702C513.083 96.1887 512.798 97.1665 512.227 97.9813C511.657 98.7962 510.883 99.448 509.946 99.8554C509.008 100.222 507.99 100.344 507.012 100.141C506.034 99.9369 505.137 99.448 504.404 98.7554C503.711 98.0628 503.222 97.1665 503.018 96.148C502.814 95.1702 502.937 94.1517 503.303 93.2147C503.67 92.2776 504.322 91.5036 505.178 90.9332C505.993 90.3628 506.971 90.0776 507.99 90.0776C509.334 90.0776 510.598 90.6073 511.576 91.5443C512.553 92.5221 513.083 93.8258 513.083 95.1702Z" fill="url(#paint2_linear)"/>
<path d="M497.231 95.1702C497.231 96.1887 496.945 97.1665 496.375 97.9813C495.804 98.7962 495.03 99.448 494.093 99.8554C493.156 100.222 492.137 100.344 491.159 100.141C490.181 99.9369 489.285 99.448 488.551 98.7554C487.858 98.0628 487.369 97.1665 487.166 96.148C486.962 95.1702 487.084 94.1517 487.451 93.2147C487.818 92.2776 488.47 91.5036 489.325 90.9332C490.14 90.3628 491.118 90.0776 492.137 90.0776C493.482 90.0776 494.745 90.6073 495.723 91.5443C496.701 92.5221 497.231 93.8258 497.231 95.1702Z" fill="url(#paint3_linear)"/>
<path d="M480.484 94.9666C480.484 95.9851 480.198 96.9629 479.628 97.7777C479.057 98.5925 478.283 99.2444 477.346 99.6518C476.409 100.059 475.39 100.141 474.412 99.937C473.434 99.7333 472.537 99.2444 471.804 98.5518C471.111 97.8592 470.622 96.9629 470.418 95.9444C470.215 94.9666 470.337 93.9481 470.704 93.0111C471.07 92.074 471.722 91.2999 472.578 90.7296C473.393 90.1592 474.371 89.874 475.39 89.874C476.735 89.874 477.998 90.4036 478.976 91.3407C479.954 92.3592 480.484 93.6222 480.484 94.9666Z" fill="url(#paint4_linear)"/>
<path d="M510.19 350.37C510.19 352.611 508.356 354.445 506.115 354.445H397.638C395.397 354.445 393.563 352.611 393.563 350.37V119.004C393.563 116.763 395.397 114.93 397.638 114.93H506.115C508.356 114.93 510.19 116.763 510.19 119.004V350.37Z" fill="url(#paint5_linear)"/>
<path d="M381.705 350.37C381.705 352.611 379.871 354.445 377.63 354.445H120.172C117.93 354.445 116.097 352.611 116.097 350.37V119.004C116.097 116.763 117.93 114.93 120.172 114.93H377.63C379.871 114.93 381.705 116.763 381.705 119.004V350.37Z" fill="url(#paint6_linear)"/>
<path d="M505.3 151.922C505.3 154.163 503.466 155.996 501.225 155.996H401.958C399.717 155.996 397.883 154.163 397.883 151.922V123.73C397.883 121.489 399.717 119.656 401.958 119.656H501.225C503.466 119.656 505.3 121.489 505.3 123.73V151.922Z" fill="white"/>
<path d="M505.586 199.059C505.586 199.833 504.852 200.444 503.956 200.444H399.799C398.902 200.444 398.169 199.833 398.169 199.059C398.169 198.285 398.902 197.674 399.799 197.674H503.956C504.852 197.674 505.586 198.285 505.586 199.059Z" fill="white"/>
<path d="M505.586 206.352C505.586 207.126 504.852 207.737 503.956 207.737H399.799C398.902 207.737 398.169 207.126 398.169 206.352C398.169 205.578 398.902 204.967 399.799 204.967H503.956C504.852 204.967 505.586 205.619 505.586 206.352Z" fill="white"/>
<path d="M505.586 213.522C505.586 214.296 504.852 214.908 503.956 214.908H399.799C398.902 214.908 398.169 214.296 398.169 213.522C398.169 212.748 398.902 212.137 399.799 212.137H503.956C504.852 212.137 505.586 212.789 505.586 213.522Z" fill="white"/>
<path d="M505.586 221.793C505.586 222.567 504.852 223.178 503.956 223.178H399.799C398.902 223.178 398.169 222.567 398.169 221.793C398.169 221.019 398.902 220.408 399.799 220.408H503.956C504.852 220.408 505.586 221.019 505.586 221.793Z" fill="white"/>
<path d="M505.586 229.9C505.586 230.674 504.852 231.285 503.956 231.285H399.799C398.902 231.285 398.169 230.674 398.169 229.9C398.169 229.126 398.902 228.515 399.799 228.515H503.956C504.852 228.515 505.586 229.126 505.586 229.9Z" fill="white"/>
<path d="M505.341 250.596C505.341 251.37 504.608 251.981 503.711 251.981H399.595C398.698 251.981 397.965 251.37 397.965 250.596C397.965 249.822 398.698 249.211 399.595 249.211H503.752C504.608 249.211 505.341 249.863 505.341 250.596Z" fill="white"/>
<path d="M505.341 259.111C505.341 259.885 504.608 260.496 503.711 260.496H399.595C398.698 260.496 397.965 259.885 397.965 259.111C397.965 258.337 398.698 257.726 399.595 257.726H503.752C504.608 257.726 505.341 258.378 505.341 259.111Z" fill="white"/>
<path d="M505.341 267.626C505.341 268.4 504.608 269.011 503.711 269.011H399.595C398.698 269.011 397.965 268.4 397.965 267.626C397.965 266.852 398.698 266.241 399.595 266.241H503.752C504.608 266.241 505.341 266.852 505.341 267.626Z" fill="white"/>
<path d="M505.341 275.693C505.341 276.467 504.608 277.078 503.711 277.078H399.595C398.698 277.078 397.965 276.467 397.965 275.693C397.965 274.919 398.698 274.308 399.595 274.308H503.752C504.608 274.308 505.341 274.959 505.341 275.693Z" fill="white"/>
<path d="M505.341 284.859C505.341 285.633 504.608 286.244 503.711 286.244H399.595C398.698 286.244 397.965 285.633 397.965 284.859C397.965 284.085 398.698 283.474 399.595 283.474H503.752C504.608 283.474 505.341 284.085 505.341 284.859Z" fill="white"/>
<path d="M505.341 304.293C505.341 305.067 504.608 305.678 503.711 305.678H399.595C398.698 305.678 397.965 305.067 397.965 304.293C397.965 303.519 398.698 302.908 399.595 302.908H503.752C504.608 302.908 505.341 303.519 505.341 304.293Z" fill="white"/>
<path d="M505.341 312.808C505.341 313.582 504.608 314.193 503.711 314.193H399.595C398.698 314.193 397.965 313.582 397.965 312.808C397.965 312.033 398.698 311.422 399.595 311.422H503.752C504.608 311.422 505.341 312.033 505.341 312.808Z" fill="white"/>
<path d="M505.341 321.73C505.341 322.504 504.608 323.115 503.711 323.115H399.595C398.698 323.115 397.965 322.504 397.965 321.73C397.965 320.956 398.698 320.345 399.595 320.345H503.752C504.608 320.345 505.341 320.956 505.341 321.73Z" fill="white"/>
<path d="M505.341 331.1C505.341 331.874 504.608 332.485 503.711 332.485H399.595C398.698 332.485 397.965 331.874 397.965 331.1C397.965 330.326 398.698 329.715 399.595 329.715H503.752C504.608 329.715 505.341 330.367 505.341 331.1Z" fill="white"/>
<path d="M138.061 351.43C135.942 351.43 134.189 349.596 134.189 347.356V264.978C134.189 262.737 135.942 260.904 138.061 260.904C140.18 260.904 141.932 262.737 141.932 264.978V347.356C141.932 349.596 140.18 351.43 138.061 351.43Z" fill="white"/>
<path d="M164.385 351.43C162.266 351.43 160.514 349.596 160.514 347.356V253.041C160.514 250.8 162.266 248.967 164.385 248.967C166.504 248.967 168.256 250.8 168.256 253.041V347.356C168.256 349.596 166.504 351.43 164.385 351.43Z" fill="white"/>
<path d="M190.344 351.43C188.225 351.43 186.473 349.596 186.473 347.356V236.256C186.473 234.015 188.225 232.182 190.344 232.182C192.463 232.182 194.215 234.015 194.215 236.256V347.356C194.215 349.596 192.463 351.43 190.344 351.43Z" fill="white"/>
<path d="M415.732 187.978C422.659 187.978 428.283 182.356 428.283 175.43C428.283 168.504 422.659 162.882 415.732 162.882C408.804 162.882 403.181 168.504 403.181 175.43C403.181 182.356 408.804 187.978 415.732 187.978Z" fill="white"/>
<path d="M452.366 189.078C459.294 189.078 464.917 183.456 464.917 176.53C464.917 169.604 459.294 163.981 452.366 163.981C445.439 163.981 439.815 169.604 439.815 176.53C439.815 183.456 445.439 189.078 452.366 189.078Z" fill="white"/>
<path d="M489 188.426C495.928 188.426 501.551 182.804 501.551 175.878C501.551 168.952 495.928 163.33 489 163.33C482.073 163.33 476.449 168.952 476.449 175.878C476.449 182.804 482.073 188.426 489 188.426Z" fill="white"/>
<path d="M593.605 148.296C593.605 153.919 589.041 158.482 583.418 158.482H547.15C541.527 158.482 536.963 153.919 536.963 148.296V48.4816C536.963 42.8593 541.527 38.2964 547.15 38.2964H583.418C589.041 38.2964 593.605 42.8593 593.605 48.4816V148.296Z" fill="#808285"/>
<path d="M591.242 145.567C591.242 151.189 586.678 155.752 581.054 155.752H549.555C543.931 155.752 539.367 151.189 539.367 145.567V50.1925C539.367 44.5703 543.931 40.0073 549.555 40.0073H581.054C586.678 40.0073 591.242 44.5703 591.242 50.1925V145.567Z" fill="#E4E5E6"/>
<path d="M566.181 148.419C573.788 148.419 579.954 142.253 579.954 134.648C579.954 127.043 573.788 120.878 566.181 120.878C558.574 120.878 552.407 127.043 552.407 134.648C552.407 142.253 558.574 148.419 566.181 148.419Z" fill="#A3A5A8"/>
<path d="M565.609 112.037C573.216 112.037 579.383 105.872 579.383 98.267C579.383 90.6618 573.216 84.4966 565.609 84.4966C558.003 84.4966 551.836 90.6618 551.836 98.267C551.836 105.872 558.003 112.037 565.609 112.037Z" fill="#6DCFF6"/>
<path d="M565.895 74.4738C573.501 74.4738 579.668 68.3086 579.668 60.7035C579.668 53.0983 573.501 46.9331 565.895 46.9331C558.288 46.9331 552.121 53.0983 552.121 60.7035C552.121 68.3086 558.288 74.4738 565.895 74.4738Z" fill="url(#paint7_linear)"/>
<path d="M569.767 157.3H560.843V371.148H569.767V157.3Z" fill="#808285"/>
<path d="M116.667 232.304H119.112" stroke="#EDEDEE" stroke-width="2" stroke-miterlimit="10"/>
<path d="M123.961 232.304L304.687 231.896" stroke="#EDEDEE" stroke-width="2" stroke-miterlimit="10" stroke-dasharray="11.83 11.83"/>
<path d="M307.092 231.896H309.537V234.341" stroke="#EDEDEE" stroke-width="2" stroke-miterlimit="10"/>
<path d="M309.536 239.148V342.304" stroke="#EDEDEE" stroke-width="2" stroke-miterlimit="10" stroke-dasharray="11.78 11.78"/>
<path d="M309.536 344.708V347.152" stroke="#EDEDEE" stroke-width="2" stroke-miterlimit="10"/>
<path d="M116.667 180.197H119.112" stroke="#DADBDC" stroke-width="2" stroke-miterlimit="10"/>
<path d="M124.083 180.156L368.787 179.585" stroke="#DADBDC" stroke-width="2" stroke-miterlimit="10" stroke-dasharray="12.13 12.13"/>
<path d="M371.272 179.585H373.717V182.03" stroke="#DADBDC" stroke-width="2" stroke-miterlimit="10"/>
<path d="M373.718 186.959V342.671" stroke="#DADBDC" stroke-width="2" stroke-miterlimit="10" stroke-dasharray="12.13 12.13"/>
<path d="M373.718 345.115V347.56" stroke="#DADBDC" stroke-width="2" stroke-miterlimit="10"/>
<path d="M505.341 376.526H613.165C613.165 376.526 601.715 373.307 606.523 369.192C606.523 369.192 588.471 371.392 589.041 374C589.041 374 600.492 368.092 588.43 364.548C588.43 364.548 571.56 369.437 576.979 373.063C576.979 373.063 555.912 367.929 564.347 364.059C564.347 364.059 540.264 367.767 543.279 372.574C543.279 372.574 523.393 372.492 523.393 369.966C523.393 369.926 522.211 376.77 505.341 376.526Z" fill="url(#paint8_linear)"/>
<path d="M122.128 376.811H14.3032C14.3032 376.811 25.754 373.593 20.9455 369.478C20.9455 369.478 38.9977 371.678 38.4272 374.285C38.4272 374.285 26.9765 368.378 39.0385 364.834C39.0385 364.834 55.909 369.723 50.4892 373.348C50.4892 373.348 71.557 368.215 63.1217 364.345C63.1217 364.345 87.205 368.052 84.1895 372.86C84.1895 372.86 104.075 372.778 104.075 370.252C104.075 370.211 105.298 377.056 122.128 376.811Z" fill="url(#paint9_linear)"/>
<path d="M215.934 351.104C213.815 351.104 212.062 349.27 212.062 347.03V219.674C212.062 217.433 213.815 215.6 215.934 215.6C218.053 215.6 219.805 217.433 219.805 219.674V346.989C219.805 349.27 218.053 351.104 215.934 351.104Z" fill="white"/>
<path d="M242.259 351.104C240.14 351.104 238.388 349.271 238.388 347.03V202.034C238.388 199.793 240.14 197.959 242.259 197.959C244.378 197.959 246.13 199.793 246.13 202.034V347.03C246.13 349.271 244.378 351.104 242.259 351.104Z" fill="white"/>
<path d="M268.217 351.104C266.098 351.104 264.346 349.271 264.346 347.03V192.622C264.346 190.382 266.098 188.548 268.217 188.548C270.336 188.548 272.088 190.382 272.088 192.622V347.03C272.088 349.271 270.336 351.104 268.217 351.104Z" fill="white"/>
<path d="M294.581 351.796C292.462 351.796 290.71 349.963 290.71 347.722V176C290.71 173.759 292.462 171.926 294.581 171.926C296.7 171.926 298.452 173.759 298.452 176V347.722C298.452 349.963 296.7 351.796 294.581 351.796Z" fill="white"/>
<path d="M320.132 351.43C318.013 351.43 316.261 349.596 316.261 347.356V152.004C316.261 149.763 318.013 147.93 320.132 147.93C322.251 147.93 324.003 149.763 324.003 152.004V347.356C324.003 349.596 322.292 351.43 320.132 351.43Z" fill="white"/>
<path d="M346.497 351.43C344.378 351.43 342.626 349.596 342.626 347.356V134.77C342.626 132.53 344.378 130.696 346.497 130.696C348.616 130.696 350.369 132.53 350.369 134.77V347.356C350.369 349.596 348.616 351.43 346.497 351.43Z" fill="white"/>
<path d="M80.9296 401.215L77.9956 408.63L105.094 407.611C105.094 407.611 92.6656 402.111 91.2801 400.848C89.8946 399.585 84.8009 398.607 84.8009 398.607L80.9296 401.215Z" fill="#E6E7E8"/>
<path d="M55.3795 396.733L52.3232 405.207L81.3372 404.148C81.3372 404.148 69.2345 399.585 67.36 397.63C65.4855 395.674 57.254 394.493 57.254 394.493L55.3795 396.733Z" fill="#E6E7E8"/>
<path d="M75.3062 335.174L78.6884 374.978L80.9297 401.215L87.9387 400.971L89.6502 335.785L85.2084 335.582L75.3062 335.174Z" fill="#E6E7E8"/>
<path d="M66.4227 334.93L63.0404 396.448L55.3794 396.733L51.7119 332.241L66.4227 334.93Z" fill="#E6E7E8"/>
<path d="M51.7524 332.281H52.0784L63.6922 334.4C62.1029 337.007 57.5797 345.074 57.6204 354.281C57.6204 365.281 55.5422 381.618 55.4607 382.189L52.9342 352.774L51.7524 332.281Z" fill="#D1D3D4"/>
<path d="M46.8218 300.707C46.8218 300.707 45.0696 304.17 47.1478 313.052C48.7371 319.896 44.5806 336.274 44.5806 336.274L68.0118 334.848L82.9671 329.429L81.0926 312.726L66.1373 296.837L46.8218 300.707Z" fill="#1EA6DF"/>
<path d="M75.3062 335.174L78.6884 374.978C78.7699 374.489 80.4407 361.534 80.3999 352.734C80.3999 343.811 85.6974 336.193 85.6974 336.193L85.2084 335.582L75.3062 335.174Z" fill="#D1D3D4"/>
<path d="M92.9507 300.667L96.8627 335.052L67.5634 338.067C67.5634 338.067 68.3784 328.778 67.1152 323.604C63.7329 309.67 67.1967 305.556 67.1967 305.556L71.1087 299.322L92.9507 300.667Z" fill="#43B5E8"/>
<path d="M66.4224 227.455C66.4224 227.455 66.9929 228.27 67.7264 229.33C68.9489 231.041 70.5381 233.363 70.6604 233.567C70.8234 233.893 75.6726 234.83 75.6726 234.83C75.6726 234.83 78.7289 233.037 78.9326 232.874C79.1771 232.711 81.9074 227.578 81.9074 227.578C82.0296 226.926 81.9889 226.274 81.8666 225.622C81.6629 223.993 81.6629 220 81.6629 220L82.7631 219.104L79.8291 215.07C79.8291 215.07 76.2431 215.559 73.1054 216.293C70.5789 216.904 68.3376 217.718 68.4191 218.574C68.5414 220.57 66.4224 227.455 66.4224 227.455Z" fill="#E6E7E8"/>
<path d="M67.6045 197.633C68.8677 201.789 70.7015 205.74 73.0242 209.407C73.391 206.352 73.8392 202.929 73.8392 202.929L80.726 194.17C80.726 194.17 85.2493 191.644 87.246 191.603C87.7758 191.603 88.4685 191.563 89.1613 191.522L74.206 190.503L67.6045 197.633Z" fill="#F6DADF"/>
<path d="M73.0244 209.407C74.4914 211.77 76.1214 214.011 77.9552 216.089C79.3407 217.678 80.8077 219.226 82.3562 220.652C86.6349 224.481 88.1834 223.667 89.2837 223.137C91.2397 222.241 92.5029 216.781 92.5844 207.126C92.6251 204.681 92.4214 202.237 91.9731 199.793C91.4841 196.9 90.5469 194.089 89.2022 191.481H89.1207C88.4279 191.522 87.7759 191.522 87.2054 191.563C85.2494 191.604 80.7262 194.13 80.7262 194.13L73.8394 202.889C73.8394 202.93 73.3912 206.352 73.0244 209.407Z" fill="#E6E7E8"/>
<path d="M95.6811 257.4C96.5776 260.781 97.7593 264.081 99.1856 267.259C99.1856 267.259 99.1856 267.259 99.2263 267.218C99.7561 266.729 108.232 258.948 111.085 252.592C112.47 249.455 113.978 245.544 115.282 242.163C116.749 238.415 118.012 235.318 118.746 234.829C120.09 233.933 124.614 232.181 123.676 230.063C122.739 227.985 123.024 224.359 121.639 223.544C120.213 222.729 118.909 222.648 118.868 221.589C118.827 220.57 122.576 213.889 122.535 213.318C122.535 213.074 122.413 212.829 122.291 212.626C122.128 212.422 121.924 212.3 121.68 212.218C121.435 212.137 121.191 212.137 120.946 212.218C120.702 212.3 120.498 212.422 120.335 212.626C120.172 212.829 120.009 213.074 119.927 213.318C119.275 214.785 116.423 220.529 115.526 221.466C114.589 222.363 112.878 223.096 111.777 225.989C110.677 228.881 111.655 231.407 111.044 232.548C111.044 232.548 111.044 232.589 111.003 232.589C109.984 234.585 108.721 236.5 107.295 238.252C104.32 241.796 99.5116 247.622 97.0258 250.881C96.3738 251.696 95.9256 252.348 95.6403 252.796C95.0698 253.652 95.2328 255.403 95.6811 257.4Z" fill="#E6E7E8"/>
<path d="M50.4078 252.144C50.4078 252.144 48.3295 258.663 49.1445 260.863C49.7558 262.207 50.8153 263.266 52.16 263.918C53.5048 264.57 55.0125 264.692 56.398 264.326L59.7803 263.47L59.3321 251.044L53.8715 248.274L50.4078 252.144Z" fill="#E6E7E8"/>
<path d="M64.9556 228.759C61.8994 229.819 59.2914 231.896 57.6206 234.707C54.5236 239.8 49.3076 251.778 49.3076 251.778C49.3076 251.778 54.7274 253.856 58.6394 252.633L62.5514 251.411L64.9556 228.759Z" fill="#939598"/>
<path d="M73.0244 209.407C74.4914 211.77 76.1214 214.011 77.9552 216.089C79.3407 217.678 80.8077 219.226 82.3562 220.652C82.4377 220.489 84.8419 215.111 84.4752 212.585C84.1084 209.978 86.1459 211.974 88.0612 213.033C89.9357 214.092 87.8574 205.048 89.0392 205.252C90.2209 205.415 91.1174 202.359 91.1174 201.341C91.1174 201.055 91.1989 200.77 91.3619 200.485C91.4842 200.24 91.6879 199.996 91.9324 199.833C91.4434 196.94 90.5062 194.129 89.1614 191.522H89.0799C88.3872 191.563 87.7352 191.563 87.1647 191.603C85.2087 191.644 80.6854 194.17 80.6854 194.17L73.7987 202.929C73.8394 202.929 73.3912 206.352 73.0244 209.407Z" fill="#C8C8C8"/>
<path d="M66.4224 227.456C66.4224 227.456 66.9929 228.27 67.7264 229.33L69.5601 228.596C69.8861 226.722 70.3344 224.848 70.9456 223.015C71.6384 221.426 74.9391 221.467 74.9391 221.467L76.2024 217.8L73.1054 216.252C70.5789 216.863 68.3376 217.678 68.4191 218.533C68.5414 220.57 66.4224 227.456 66.4224 227.456Z" fill="#C8C8C8"/>
<path d="M86.8384 302.541C86.8384 302.541 75.8766 307.308 78.8514 315.7C81.8261 324.093 87.6126 331.426 81.0926 327.311C74.5726 323.197 65.8521 309.263 69.4381 303.152C73.0241 297.082 86.8384 302.541 86.8384 302.541Z" fill="#4DC6F3"/>
<path d="M44.9067 299.607C44.9067 299.607 54.2792 306.004 70.3755 305.393C84.1897 304.904 100.653 297.733 100.653 297.733C100.653 297.733 100.734 296.022 98.0447 278.137C97.8002 276.385 97.515 274.715 97.2705 273.045C96.0072 265.222 94.6625 258.704 93.277 253.285C86.5125 226.152 79.6257 226.437 79.6257 226.437L78.281 226.233C72.8612 225.296 67.3192 226.437 62.7145 229.37C61.655 229.982 60.7585 230.796 60.025 231.774C55.8277 238.211 44.9067 299.607 44.9067 299.607Z" fill="#F2F2F2"/>
<path d="M93.1139 182.519C93.1954 182.396 93.3177 182.356 93.4807 182.315C93.6029 182.274 93.7659 182.274 93.8882 182.315C94.0104 182.356 94.1327 182.396 94.2549 182.519C94.3364 182.6 94.4179 182.722 94.4587 182.885C95.0699 185.085 95.6812 189.2 94.4587 192.541C92.8287 196.941 90.9542 196.9 90.3837 199.304C89.8539 201.707 89.7317 202.767 87.8572 202.685C86.0234 202.604 85.6567 201.422 85.8197 203.419C85.9012 205.089 86.1049 206.759 86.4717 208.43C86.8384 209.774 88.5092 211.689 86.9607 210.63C85.4122 209.57 83.8637 204.437 82.1929 205.048C80.5629 205.659 78.3624 209.163 80.3999 210.141C82.4374 211.119 83.3747 213.319 82.8857 214.744C82.3967 216.211 81.5817 219.593 79.9924 220.611C78.4032 221.63 72.5759 221.915 70.1717 220.937C66.8709 219.633 63.7739 215.763 62.7959 212.748C61.9402 210.1 60.8807 198.978 63.5294 192.826C66.1782 186.674 72.2092 181.867 76.3657 181.867C79.3812 181.867 86.9607 187.285 89.6502 185.452C90.9134 184.596 92.0952 183.619 93.1139 182.519Z" fill="#010101"/>
<path d="M80.4405 261.515C77.2213 270.152 96.822 270.478 96.822 270.478C95.5588 262.656 94.6215 258.745 93.2768 253.326C91.28 250.026 87.4903 242.774 87.4903 242.774L78.729 238.985C78.729 238.945 83.619 253.041 80.4405 261.515Z" fill="#F2F2F2"/>
<path d="M83.5376 251.004C83.5376 251.004 88.0609 263.43 90.7911 266.037C91.9321 267.056 93.2361 267.911 94.6216 268.563C95.3959 268.93 96.2924 269.011 97.1481 268.808C98.0039 268.563 98.6966 268.034 99.1856 267.3C99.1856 267.3 99.1856 267.3 99.2264 267.26C99.4709 266.852 99.6339 266.445 99.7154 265.997C100.245 263.063 100.53 259.111 99.1856 256.097C99.1041 255.852 98.9819 255.648 98.9004 255.445C98.1669 253.774 97.5556 252.226 97.0259 250.922C95.9664 248.234 95.3959 246.482 95.3959 246.482L87.8164 244.567L87.3681 245.259L83.5376 251.004Z" fill="#E6E7E8"/>
<path d="M79.2183 234.463C81.0928 229.86 87.9388 229.208 90.9543 233.404C91.158 233.689 91.3618 234.015 91.5248 234.341C93.8068 238.985 96.8223 245.504 96.8223 245.504C92.2991 248.641 87.0423 250.637 81.5818 251.289C81.5818 251.289 79.1776 242.326 78.7701 238.945C78.4033 237.437 78.607 235.889 79.2183 234.463Z" fill="#939598"/>
</g>
<defs>
<filter id="filter0_d" x="-12" y="-8" width="676" height="464" filterUnits="userSpaceOnUse" color-interpolation-filters="sRGB">
<feFlood flood-opacity="0" result="BackgroundImageFix"/>
<feColorMatrix in="SourceAlpha" type="matrix" values="0 0 0 0 0 0 0 0 0 0 0 0 0 0 0 0 0 0 127 0" result="hardAlpha"/>
<feOffset dy="4"/>
<feGaussianBlur stdDeviation="6"/>
<feColorMatrix type="matrix" values="0 0 0 0 0 0 0 0 0 0 0 0 0 0 0 0 0 0 0.3 0"/>
<feBlend mode="normal" in2="BackgroundImageFix" result="effect1_dropShadow"/>
<feBlend mode="normal" in="SourceGraphic" in2="effect1_dropShadow" result="shape"/>
</filter>
<linearGradient id="paint0_linear" x1="641.561" y1="358.888" x2="515.742" y2="358.888" gradientUnits="userSpaceOnUse">
<stop stop-color="#71459B"/>
<stop offset="0.8668" stop-color="#A76DAE"/>
</linearGradient>
<linearGradient id="paint1_linear" x1="41.3095" y1="358.19" x2="167.129" y2="358.19" gradientUnits="userSpaceOnUse">
<stop stop-color="#71459B"/>
<stop offset="0.8668" stop-color="#A76DAE"/>
</linearGradient>
<linearGradient id="paint2_linear" x1="502.949" y1="95.1638" x2="513.07" y2="95.1638" gradientUnits="userSpaceOnUse">
<stop stop-color="#71459B"/>
<stop offset="0.8668" stop-color="#A76DAE"/>
</linearGradient>
<linearGradient id="paint3_linear" x1="487.107" y1="95.1638" x2="497.229" y2="95.1638" gradientUnits="userSpaceOnUse">
<stop stop-color="#71459B"/>
<stop offset="0.8668" stop-color="#A76DAE"/>
</linearGradient>
<linearGradient id="paint4_linear" x1="470.357" y1="94.9819" x2="480.479" y2="94.9819" gradientUnits="userSpaceOnUse">
<stop stop-color="#71459B"/>
<stop offset="0.8668" stop-color="#A76DAE"/>
</linearGradient>
<linearGradient id="paint5_linear" x1="393.569" y1="234.695" x2="510.189" y2="234.695" gradientUnits="userSpaceOnUse">
<stop stop-color="#7DD3F7"/>
<stop offset="1" stop-color="#43B5E8"/>
</linearGradient>
<linearGradient id="paint6_linear" x1="116.109" y1="234.695" x2="381.719" y2="234.695" gradientUnits="userSpaceOnUse">
<stop stop-color="#7DD3F7"/>
<stop offset="1" stop-color="#43B5E8"/>
</linearGradient>
<linearGradient id="paint7_linear" x1="552.115" y1="60.7114" x2="579.671" y2="60.7114" gradientUnits="userSpaceOnUse">
<stop stop-color="#71459B"/>
<stop offset="0.8668" stop-color="#A76DAE"/>
</linearGradient>
<linearGradient id="paint8_linear" x1="505.341" y1="370.279" x2="613.172" y2="370.279" gradientUnits="userSpaceOnUse">
<stop stop-color="#71459B"/>
<stop offset="0.8668" stop-color="#A76DAE"/>
</linearGradient>
<linearGradient id="paint9_linear" x1="122.146" y1="370.572" x2="14.3145" y2="370.572" gradientUnits="userSpaceOnUse">
<stop stop-color="#71459B"/>
<stop offset="0.8668" stop-color="#A76DAE"/>
</linearGradient>
</defs>
</svg>
