<svg width="742" height="526" viewBox="0 0 742 526" fill="none" xmlns="http://www.w3.org/2000/svg">
<g filter="url(#filter0_d)">
<path d="M102.767 372.503C102.025 369.673 99.799 367.446 96.9701 366.658C91.8689 365.266 71.3711 365.266 71.3711 365.266C71.3711 365.266 50.8734 365.266 45.7721 366.658C42.9432 367.4 40.7172 369.673 39.9752 372.503C38.584 377.652 38.584 388.368 38.584 388.368C38.584 388.368 38.584 399.084 39.9752 404.233C40.7172 407.062 42.9432 409.289 45.7721 410.078C50.8734 411.469 71.3711 411.469 71.3711 411.469C71.3711 411.469 91.8689 411.469 96.9701 410.078C99.799 409.336 102.025 407.062 102.767 404.233C104.158 399.084 104.158 388.368 104.158 388.368C104.158 388.368 104.158 377.652 102.767 372.503Z" fill="#EDEDEE"/>
<path opacity="0.75" d="M64.6934 398.156V378.626L81.8057 388.368L64.6934 398.156Z" fill="white"/>
<path d="M470.289 81.1343C476.92 85.3557 484.758 87.8607 493.198 87.8607C520.93 87.8607 536.605 64.4343 535.677 43.4201C538.599 41.3326 541.15 38.6885 543.144 35.6732C540.454 36.8793 537.579 37.6679 534.564 38.039C537.625 36.1835 540.037 33.261 541.15 29.7818C538.274 31.4982 535.074 32.7507 531.643 33.4001C528.907 30.4776 525.011 28.6685 520.745 28.6685C511.099 28.6685 504.003 37.6679 506.183 47.0385C493.754 46.4354 482.763 40.4512 475.39 31.4054C471.494 38.1318 473.349 46.8993 480.027 51.3526C477.569 51.2598 475.251 50.6104 473.257 49.4971C473.117 56.409 478.033 62.9035 485.221 64.3415C483.134 64.8982 480.816 65.0373 478.497 64.5735C480.398 70.5112 485.917 74.8254 492.456 74.9646C486.149 79.8818 478.219 82.0621 470.289 81.1343Z" fill="#EDEDEE"/>
<path d="M95.0225 156.284H109.492V120.008H119.601L120.668 107.854H109.492C109.492 107.854 109.492 103.308 109.492 100.942C109.492 98.0661 110.048 96.9527 112.831 96.9527C115.057 96.9527 120.668 96.9527 120.668 96.9527V84.335C120.668 84.335 112.413 84.335 110.651 84.335C99.8919 84.335 95.0225 89.0666 95.0225 98.1589C95.0225 106.091 95.0225 107.854 95.0225 107.854H87.5098V120.147H95.0225V156.284Z" fill="#EDEDEE"/>
<path d="M301.808 16.7927C309.46 16.7927 310.388 16.8391 313.402 16.9783C316.184 17.1174 317.715 17.5813 318.735 17.9524C320.08 18.4627 321.054 19.1122 322.028 20.0863C323.048 21.1069 323.651 22.0347 324.161 23.3799C324.532 24.4005 325.042 25.9313 325.135 28.7147C325.274 31.7299 325.32 32.6577 325.32 40.3119C325.32 47.9661 325.274 48.8938 325.135 51.9091C324.996 54.6924 324.532 56.2233 324.161 57.2438C323.651 58.5891 323.002 59.5633 322.028 60.5374C321.007 61.558 320.08 62.1611 318.735 62.6713C317.715 63.0424 316.184 63.5527 313.402 63.6455C310.388 63.7847 309.46 63.8311 301.808 63.8311C294.156 63.8311 293.229 63.7847 290.214 63.6455C287.432 63.5063 285.902 63.0424 284.881 62.6713C283.536 62.1611 282.563 61.5116 281.589 60.5374C280.568 59.5169 279.966 58.5891 279.455 57.2438C279.084 56.2233 278.574 54.6924 278.482 51.9091C278.342 48.8938 278.296 47.9661 278.296 40.3119C278.296 32.6577 278.342 31.7299 278.482 28.7147C278.621 25.9313 279.084 24.4005 279.455 23.3799C279.966 22.0347 280.615 21.0605 281.589 20.0863C282.609 19.0658 283.536 18.4627 284.881 17.9524C285.902 17.5813 287.432 17.0711 290.214 16.9783C293.229 16.8391 294.11 16.7927 301.808 16.7927ZM301.808 11.5972C294.017 11.5972 293.043 11.6436 289.983 11.7827C286.922 11.9219 284.835 12.3858 283.026 13.128C281.125 13.8702 279.548 14.8444 277.925 16.4216C276.348 17.9988 275.328 19.6224 274.632 21.5244C273.937 23.3336 273.427 25.4211 273.288 28.4827C273.148 31.5444 273.102 32.5186 273.102 40.3119C273.102 48.1052 273.148 49.0794 273.288 52.1411C273.427 55.2027 273.89 57.2902 274.632 59.0994C275.374 61.0013 276.348 62.5785 277.925 64.2022C279.502 65.7794 281.125 66.7999 283.026 67.4958C284.835 68.1916 286.922 68.7019 289.983 68.841C293.043 68.9802 294.017 69.0266 301.808 69.0266C309.599 69.0266 310.573 68.9802 313.634 68.841C316.695 68.7019 318.781 68.238 320.59 67.4958C322.491 66.7536 324.068 65.7794 325.691 64.2022C327.268 62.6249 328.288 61.0013 328.984 59.0994C329.68 57.2902 330.19 55.2027 330.329 52.1411C330.468 49.0794 330.514 48.1052 330.514 40.3119C330.514 32.5186 330.468 31.5444 330.329 28.4827C330.19 25.4211 329.726 23.3336 328.984 21.5244C328.242 19.6224 327.268 18.0452 325.691 16.4216C324.115 14.8444 322.491 13.8238 320.59 13.128C318.781 12.4322 316.695 11.9219 313.634 11.7827C310.573 11.6436 309.599 11.5972 301.808 11.5972Z" fill="#EDEDEE"/>
<path d="M301.808 25.6064C293.646 25.6064 287.061 32.1937 287.061 40.3581C287.061 48.5226 293.646 55.1098 301.808 55.1098C309.97 55.1098 316.556 48.5226 316.556 40.3581C316.556 32.1937 309.924 25.6064 301.808 25.6064ZM301.808 49.9142C296.522 49.9142 292.209 45.6464 292.209 40.3117C292.209 35.0234 296.475 30.7092 301.808 30.7092C307.095 30.7092 311.408 34.977 311.408 40.3117C311.362 45.6464 307.095 49.9142 301.808 49.9142Z" fill="#EDEDEE"/>
<path d="M320.59 25.0036C320.59 26.9055 319.06 28.4364 317.158 28.4364C315.257 28.4364 313.727 26.9055 313.727 25.0036C313.727 23.1016 315.257 21.5708 317.158 21.5708C319.013 21.5708 320.59 23.1016 320.59 25.0036Z" fill="#EDEDEE"/>
<path d="M228.999 416.711H216.524V456.977H228.999V416.711Z" fill="#EDEDEE"/>
<path d="M222.692 411.469C226.773 411.469 230.066 408.129 230.066 404.047C230.066 399.965 226.773 396.625 222.692 396.625C218.611 396.625 215.319 399.965 215.319 404.047C215.319 408.129 218.611 411.469 222.692 411.469Z" fill="#EDEDEE"/>
<path d="M248.894 435.87C248.894 430.211 251.491 426.824 256.5 426.824C261.091 426.824 263.271 430.071 263.271 435.87C263.271 441.669 263.271 456.977 263.271 456.977H275.653C275.653 456.977 275.653 442.272 275.653 431.51C275.653 420.747 269.531 415.505 260.998 415.505C252.465 415.505 248.894 422.139 248.894 422.139V416.711H236.93V456.977H248.894C248.894 456.977 248.894 442.04 248.894 435.87Z" fill="#EDEDEE"/>
<path d="M681.944 359.653H654.629L654.676 367.493H673.087C670.907 377.003 664.183 382.848 655.139 382.848C643.314 382.848 633.714 373.245 633.714 361.416C633.714 349.587 643.314 339.984 655.139 339.984C660.751 339.984 665.899 342.165 669.701 345.69L675.73 340.495C670.443 335.253 663.162 332.052 655.093 332.052C638.862 332.052 625.738 345.226 625.738 361.416C625.738 377.606 638.908 390.78 655.093 390.78C670.675 390.78 681.944 378.905 681.944 362.668V359.653Z" fill="#EDEDEE"/>
<path d="M346.514 207.868L368.542 195.158L390.57 207.868V233.289L368.542 246L346.514 233.289V207.868Z" fill="#EDEDEE"/>
<path d="M394.93 216.496L409.491 208.054L424.1 216.496V233.336L409.491 241.778L394.93 233.336V216.496Z" fill="#EDEDEE"/>
<path d="M323.095 249.386L344.056 237.279L365.064 249.386V273.648L344.056 285.755L323.095 273.648V249.386Z" fill="#EDEDEE"/>
<path d="M371.557 249.757L391.869 238.021L412.181 249.757V273.23L391.869 284.967L371.557 273.23V249.757Z" fill="url(#paint0_linear)"/>
<path d="M283.954 233.197C283.954 235.748 281.867 237.836 279.316 237.836H119.833C117.282 237.836 115.195 235.748 115.195 233.197V129.239C115.195 126.688 117.282 124.601 119.833 124.601H279.27C281.821 124.601 283.908 126.688 283.908 129.239V233.197H283.954Z" fill="#E1F4FD"/>
<path d="M283.954 134.76C283.954 137.311 281.867 139.399 279.316 139.399H119.833C117.282 139.399 115.195 137.311 115.195 134.76V129.239C115.195 126.688 117.282 124.601 119.833 124.601H279.316C281.867 124.601 283.954 126.688 283.954 129.239V134.76Z" fill="#7C7D80"/>
<path d="M275.329 173.865C275.329 176.417 273.242 178.504 270.691 178.504H169.269C166.718 178.504 164.631 176.417 164.631 173.865V153.593C164.631 151.042 166.718 148.955 169.269 148.955H270.691C273.242 148.955 275.329 151.042 275.329 153.593V173.865Z" fill="url(#paint1_linear)"/>
<path d="M274.586 194.741C274.586 195.622 272.499 196.364 269.949 196.364H128.969C126.418 196.364 124.331 195.622 124.331 194.741C124.331 193.859 126.418 193.117 128.969 193.117H269.995C272.499 193.117 274.586 193.813 274.586 194.741Z" fill="#D1D3D4"/>
<path d="M274.447 202.534C274.447 203.415 272.36 204.157 269.81 204.157H129.85C127.299 204.157 125.212 203.415 125.212 202.534C125.212 201.652 127.299 200.91 129.85 200.91H269.81C272.36 200.957 274.447 201.652 274.447 202.534Z" fill="#D1D3D4"/>
<path d="M274.354 211.069C274.354 211.951 272.267 212.693 269.717 212.693H129.525C126.975 212.693 124.888 211.951 124.888 211.069C124.888 210.188 126.975 209.446 129.525 209.446H269.67C272.267 209.446 274.354 210.188 274.354 211.069Z" fill="#D1D3D4"/>
<path d="M274.354 219.605C274.354 220.486 272.267 221.229 269.717 221.229H129.525C126.975 221.229 124.888 220.486 124.888 219.605C124.888 218.724 126.975 217.981 129.525 217.981H269.67C272.267 218.028 274.354 218.724 274.354 219.605Z" fill="#D1D3D4"/>
<path d="M142.186 181.937C152.098 181.937 160.133 173.9 160.133 163.985C160.133 154.07 152.098 146.032 142.186 146.032C132.274 146.032 124.239 154.07 124.239 163.985C124.239 173.9 132.274 181.937 142.186 181.937Z" fill="white"/>
<path d="M178.451 174.515C184.367 174.515 189.164 169.718 189.164 163.799C189.164 157.881 184.367 153.083 178.451 153.083C172.534 153.083 167.738 157.881 167.738 163.799C167.738 169.718 172.534 174.515 178.451 174.515Z" fill="white"/>
<path d="M459.251 181.195C459.251 183.746 457.165 185.834 454.614 185.834H295.687C293.136 185.834 291.049 183.746 291.049 181.195V77.2375C291.049 74.6861 293.136 72.5986 295.687 72.5986H454.614C457.165 72.5986 459.251 74.6861 459.251 77.2375V181.195Z" fill="#E1F4FD"/>
<path d="M459.808 82.7578C459.808 85.3092 457.721 87.3967 455.17 87.3967H295.687C293.136 87.3967 291.049 85.3092 291.049 82.7578V77.2375C291.049 74.6861 293.136 72.5986 295.687 72.5986H455.17C457.721 72.5986 459.808 74.6861 459.808 77.2375V82.7578Z" fill="#7C7D80"/>
<path d="M395.672 173.819C395.672 176.371 393.585 178.458 391.034 178.458H352.589C350.039 178.458 347.952 176.371 347.952 173.819V135.595C347.952 133.044 350.039 130.956 352.589 130.956H391.034C393.585 130.956 395.672 133.044 395.672 135.595V173.819Z" fill="url(#paint2_linear)"/>
<path d="M450.394 173.819C450.394 176.371 448.307 178.458 445.756 178.458H407.311C404.761 178.458 402.674 176.371 402.674 173.819V135.595C402.674 133.044 404.761 130.956 407.311 130.956H445.756C448.307 130.956 450.394 133.044 450.394 135.595V173.819Z" fill="url(#paint3_linear)"/>
<path d="M453.223 102.427C453.223 103.308 451.136 104.05 448.585 104.05H348.647C346.097 104.05 344.01 103.308 344.01 102.427C344.01 101.545 346.097 100.803 348.647 100.803H448.585C451.136 100.803 453.223 101.545 453.223 102.427Z" fill="#D1D3D4"/>
<path d="M453.408 112.354C453.408 113.235 451.322 113.977 448.771 113.977H348.786C346.236 113.977 344.149 113.235 344.149 112.354C344.149 111.472 346.236 110.73 348.786 110.73H448.725C451.322 110.776 453.408 111.472 453.408 112.354Z" fill="#D1D3D4"/>
<path d="M453.408 121.631C453.408 122.513 451.322 123.255 448.771 123.255H348.786C346.236 123.255 344.149 122.513 344.149 121.631C344.149 120.75 346.236 120.008 348.786 120.008H448.725C451.322 120.008 453.408 120.75 453.408 121.631Z" fill="#D1D3D4"/>
<path d="M392.425 165.052C392.425 165.933 390.338 166.675 387.788 166.675H356.253C353.702 166.675 351.615 165.933 351.615 165.052C351.615 164.17 353.702 163.428 356.253 163.428H387.788C390.338 163.428 392.425 164.17 392.425 165.052Z" fill="white"/>
<path d="M271.34 158.882C271.34 159.763 269.253 160.506 266.703 160.506H198.207C195.656 160.506 193.569 159.763 193.569 158.882C193.569 158.001 195.656 157.258 198.207 157.258H266.703C269.253 157.305 271.34 158.001 271.34 158.882Z" fill="white"/>
<path d="M271.247 167.278C271.247 168.16 269.16 168.902 266.609 168.902H198.114C195.563 168.902 193.476 168.16 193.476 167.278C193.476 166.397 195.563 165.655 198.114 165.655H266.609C269.16 165.655 271.247 166.397 271.247 167.278Z" fill="white"/>
<path d="M447.194 165.284C447.194 166.165 445.107 166.907 442.556 166.907H411.021C408.471 166.907 406.384 166.165 406.384 165.284C406.384 164.402 408.471 163.66 411.021 163.66H442.556C445.107 163.66 447.194 164.402 447.194 165.284Z" fill="white"/>
<path d="M447.194 171.871C447.194 172.752 445.107 173.494 442.556 173.494H411.021C408.471 173.494 406.384 172.752 406.384 171.871C406.384 170.989 408.471 170.247 411.021 170.247H442.556C445.107 170.293 447.194 170.989 447.194 171.871Z" fill="white"/>
<path d="M392.425 171.639C392.425 172.52 390.338 173.262 387.788 173.262H356.253C353.702 173.262 351.615 172.52 351.615 171.639C351.615 170.757 353.702 170.015 356.253 170.015H387.788C390.338 170.015 392.425 170.757 392.425 171.639Z" fill="white"/>
<path d="M318.039 129.935C327.951 129.935 335.987 121.898 335.987 111.983C335.987 102.068 327.951 94.0303 318.039 94.0303C308.127 94.0303 300.092 102.068 300.092 111.983C300.092 121.898 308.127 129.935 318.039 129.935Z" fill="white"/>
<path d="M371.046 160.181C377.424 160.181 382.594 155.009 382.594 148.63C382.594 142.251 377.424 137.079 371.046 137.079C364.669 137.079 359.499 142.251 359.499 148.63C359.499 155.009 364.669 160.181 371.046 160.181Z" fill="white"/>
<path d="M426.511 160.737C433.17 160.737 438.568 155.338 438.568 148.676C438.568 142.015 433.17 136.615 426.511 136.615C419.851 136.615 414.453 142.015 414.453 148.676C414.453 155.338 419.851 160.737 426.511 160.737Z" fill="white"/>
<path d="M222.368 357.195C222.368 359.746 220.281 361.833 217.731 361.833H59.0818C56.5312 361.833 54.4443 359.746 54.4443 357.195V253.191C54.4443 250.639 56.5312 248.552 59.0818 248.552H217.731C220.281 248.552 222.368 250.639 222.368 253.191V357.195Z" fill="#E1F4FD"/>
<path d="M222.368 258.711C222.368 261.262 220.281 263.35 217.73 263.35H58.2469C55.6962 263.35 53.6094 261.262 53.6094 258.711V253.191C53.6094 250.639 55.6962 248.552 58.2469 248.552H217.73C220.281 248.552 222.368 250.639 222.368 253.191V258.711Z" fill="#7C7D80"/>
<path d="M213.742 301.018C213.742 303.569 211.655 305.656 209.105 305.656H108.703C106.152 305.656 104.065 303.569 104.065 301.018V275.086C104.065 272.535 106.152 270.447 108.703 270.447H209.105C211.655 270.447 213.742 272.535 213.742 275.086V301.018Z" fill="url(#paint4_linear)"/>
<path d="M98.2221 342.211C98.2221 344.762 96.1352 346.85 93.5846 346.85H67.7073C65.1567 346.85 63.0698 344.762 63.0698 342.211V318.413C63.0698 315.862 65.1567 313.774 67.7073 313.774H93.6309C96.1816 313.774 98.2684 315.862 98.2684 318.413V342.211H98.2221Z" fill="url(#paint5_linear)"/>
<path d="M212.861 326.531C212.861 327.413 210.774 328.155 208.223 328.155H109.12C106.569 328.155 104.482 327.413 104.482 326.531C104.482 325.65 106.569 324.908 109.12 324.908H208.223C210.774 324.954 212.861 325.65 212.861 326.531Z" fill="#D1D3D4"/>
<path d="M212.861 316.604C212.861 317.485 210.774 318.228 208.224 318.228H108.517C105.967 318.228 103.88 317.485 103.88 316.604C103.88 315.723 105.967 314.98 108.517 314.98H208.224C210.774 315.027 212.861 315.723 212.861 316.604Z" fill="#D1D3D4"/>
<path d="M212.861 344.066C212.861 344.948 210.774 345.69 208.223 345.69H107.914C105.364 345.69 103.277 344.948 103.277 344.066C103.277 343.185 105.364 342.443 107.914 342.443H208.223C210.774 342.489 212.861 343.185 212.861 344.066Z" fill="#D1D3D4"/>
<path d="M212.722 335.067C212.722 335.948 210.635 336.691 208.085 336.691H108.935C106.384 336.691 104.297 335.948 104.297 335.067C104.297 334.186 106.384 333.443 108.935 333.443H208.085C210.635 333.443 212.722 334.186 212.722 335.067Z" fill="#D1D3D4"/>
<path d="M80.5995 305.935C90.5114 305.935 98.5466 297.897 98.5466 287.982C98.5466 278.067 90.5114 270.03 80.5995 270.03C70.6875 270.03 62.6523 278.067 62.6523 287.982C62.6523 297.897 70.6875 305.935 80.5995 305.935Z" fill="white"/>
<path d="M80.4606 343.649C87.6832 343.649 93.5383 337.792 93.5383 330.567C93.5383 323.343 87.6832 317.486 80.4606 317.486C73.2379 317.486 67.3828 323.343 67.3828 330.567C67.3828 337.792 73.2379 343.649 80.4606 343.649Z" fill="white"/>
<path d="M636.543 203.322C636.543 205.874 634.456 207.961 631.906 207.961H472.654C470.103 207.961 468.017 205.874 468.017 203.322V99.365C468.017 96.8136 470.103 94.7261 472.654 94.7261H631.906C634.456 94.7261 636.543 96.8136 636.543 99.365V203.322Z" fill="#E1F4FD"/>
<path d="M636.682 104.885C636.682 107.437 634.596 109.524 632.045 109.524H472.561C470.011 109.524 467.924 107.437 467.924 104.885V99.365C467.924 96.8136 470.011 94.7261 472.561 94.7261H632.045C634.596 94.7261 636.682 96.8136 636.682 99.365V104.885Z" fill="#7C7D80"/>
<path d="M627.871 139.213C627.871 141.765 625.784 143.852 623.233 143.852H523.295C520.745 143.852 518.658 141.765 518.658 139.213V126.874C518.658 124.322 520.745 122.235 523.295 122.235H623.233C625.784 122.235 627.871 124.322 627.871 126.874V139.213Z" fill="url(#paint6_linear)"/>
<path d="M621.332 154.846C621.332 155.728 619.245 156.423 616.695 156.423H525.289C522.739 156.423 520.652 155.728 520.652 154.846C520.652 153.965 522.739 153.269 525.289 153.269H616.695C619.245 153.269 621.332 153.965 621.332 154.846Z" fill="#D1D3D4"/>
<path d="M621.008 163.057C621.008 163.938 618.921 164.634 616.37 164.634H524.965C522.415 164.634 520.328 163.938 520.328 163.057C520.328 162.175 522.415 161.479 524.965 161.479H616.37C618.921 161.479 621.008 162.175 621.008 163.057Z" fill="#D1D3D4"/>
<path d="M621.332 171.824C621.332 172.706 619.245 173.402 616.695 173.402H525.289C522.739 173.402 520.652 172.706 520.652 171.824C520.652 170.943 522.739 170.247 525.289 170.247H616.695C619.245 170.247 621.332 170.943 621.332 171.824Z" fill="#D1D3D4"/>
<path d="M612.15 179.896C612.15 180.777 610.063 181.473 607.512 181.473H525.289C522.739 181.473 520.652 180.777 520.652 179.896C520.652 179.015 522.739 178.319 525.289 178.319H607.512C610.063 178.319 612.15 179.015 612.15 179.896Z" fill="#D1D3D4"/>
<path d="M612.521 188.756C612.521 189.638 610.434 190.334 607.883 190.334H525.66C523.11 190.334 521.023 189.638 521.023 188.756C521.023 187.875 523.11 187.179 525.66 187.179H607.883C610.434 187.179 612.521 187.921 612.521 188.756Z" fill="#D1D3D4"/>
<path d="M494.914 152.063C504.826 152.063 512.861 144.025 512.861 134.11C512.861 124.195 504.826 116.158 494.914 116.158C485.002 116.158 476.967 124.195 476.967 134.11C476.967 144.025 485.002 152.063 494.914 152.063Z" fill="white"/>
<path d="M685.655 323.887C685.655 326.439 683.568 328.526 681.017 328.526H521.626C519.076 328.526 516.989 326.439 516.989 323.887V219.884C516.989 217.332 519.076 215.245 521.626 215.245H681.017C683.568 215.245 685.655 217.332 685.655 219.884V323.887Z" fill="#E1F4FD"/>
<path d="M685.747 225.404C685.747 227.955 683.66 230.043 681.11 230.043H521.626C519.076 230.043 516.989 227.955 516.989 225.404V219.884C516.989 217.332 519.076 215.245 521.626 215.245H681.11C683.66 215.245 685.747 217.332 685.747 219.884V225.404Z" fill="#7C7D80"/>
<path d="M623.234 260.937C623.234 263.489 621.147 265.576 618.596 265.576H572.082C569.532 265.576 567.445 263.489 567.445 260.937V247.902C567.445 245.351 569.532 243.263 572.082 243.263H618.596C621.147 243.263 623.234 245.351 623.234 247.902V260.937Z" fill="url(#paint7_linear)"/>
<path d="M678.327 249.943C678.327 250.825 676.24 251.567 673.689 251.567H631.952C629.401 251.567 627.314 250.825 627.314 249.943C627.314 249.062 629.401 248.32 631.952 248.32H673.689C676.24 248.32 678.327 249.062 678.327 249.943Z" fill="#C7C8CA"/>
<path d="M678.559 258.479C678.559 259.36 676.472 260.102 673.921 260.102H632.184C629.633 260.102 627.546 259.36 627.546 258.479C627.546 257.597 629.633 256.855 632.184 256.855H673.921C676.472 256.901 678.559 257.597 678.559 258.479Z" fill="#D1D3D4"/>
<path d="M620.683 249.897C620.683 250.778 618.596 251.521 616.045 251.521H574.308C571.757 251.521 569.67 250.778 569.67 249.897C569.67 249.016 571.757 248.273 574.308 248.273H616.045C618.596 248.32 620.683 249.016 620.683 249.897Z" fill="white"/>
<path d="M620.683 257.504C620.683 258.386 618.596 259.128 616.045 259.128H574.308C571.757 259.128 569.67 258.386 569.67 257.504C569.67 256.623 571.757 255.881 574.308 255.881H616.045C618.596 255.881 620.683 256.623 620.683 257.504Z" fill="white"/>
<path d="M667.568 281.441C667.568 282.323 665.481 283.065 662.93 283.065H529.463C526.913 283.065 524.826 282.323 524.826 281.441C524.826 280.56 526.913 279.818 529.463 279.818H662.93C665.481 279.818 667.568 280.56 667.568 281.441Z" fill="#D1D3D4"/>
<path d="M667.383 290.255C667.383 291.137 665.296 291.879 662.745 291.879H529.278C526.728 291.879 524.641 291.137 524.641 290.255C524.641 289.374 526.728 288.632 529.278 288.632H662.745C665.296 288.632 667.383 289.374 667.383 290.255Z" fill="#D1D3D4"/>
<path d="M667.383 298.884C667.383 299.765 665.296 300.508 662.745 300.508H529.278C526.728 300.508 524.641 299.765 524.641 298.884C524.641 298.002 526.728 297.26 529.278 297.26H662.745C665.296 297.26 667.383 298.002 667.383 298.884Z" fill="#D1D3D4"/>
<path d="M667.197 308.3C667.197 309.182 665.11 309.924 662.559 309.924H529.092C526.541 309.924 524.455 309.182 524.455 308.3C524.455 307.419 526.541 306.677 529.092 306.677H662.559C665.11 306.677 667.197 307.419 667.197 308.3Z" fill="#D1D3D4"/>
<path d="M543.979 272.628C553.891 272.628 561.926 264.59 561.926 254.675C561.926 244.76 553.891 236.723 543.979 236.723C534.067 236.723 526.032 244.76 526.032 254.675C526.032 264.59 534.067 272.628 543.979 272.628Z" fill="white"/>
<path d="M403.833 407.387C403.833 409.939 401.746 412.026 399.196 412.026H239.991C237.44 412.026 235.353 409.939 235.353 407.387V303.43C235.353 300.879 237.44 298.791 239.991 298.791H399.196C401.746 298.791 403.833 300.879 403.833 303.43V407.387Z" fill="#E1F4FD"/>
<path d="M404.112 308.95C404.112 311.502 402.025 313.589 399.474 313.589H239.991C237.44 313.589 235.353 311.502 235.353 308.95V303.43C235.353 300.879 237.44 298.791 239.991 298.791H399.474C402.025 298.791 404.112 300.879 404.112 303.43V308.95Z" fill="#7C7D80"/>
<path d="M395.486 344.438C395.486 346.989 393.399 349.077 390.849 349.077H346.746C344.195 349.077 342.108 346.989 342.108 344.438V331.403C342.108 328.851 344.195 326.764 346.746 326.764H390.849C393.399 326.764 395.486 328.851 395.486 331.403V344.438Z" fill="url(#paint8_linear)"/>
<path d="M338.259 344.623C338.259 347.175 336.172 349.262 333.621 349.262H289.519C286.968 349.262 284.881 347.175 284.881 344.623V331.588C284.881 329.037 286.968 326.949 289.519 326.949H333.621C336.172 326.949 338.259 329.037 338.259 331.588V344.623Z" fill="url(#paint9_linear)"/>
<path d="M394.883 360.813C394.883 361.694 392.796 362.437 390.245 362.437H279.734C277.183 362.437 275.096 361.694 275.096 360.813C275.096 359.932 277.183 359.189 279.734 359.189H390.245C392.796 359.189 394.883 359.932 394.883 360.813Z" fill="#D1D3D4"/>
<path d="M394.744 368.931C394.744 369.812 392.657 370.554 390.107 370.554H279.595C277.044 370.554 274.958 369.812 274.958 368.931C274.958 368.049 277.044 367.307 279.595 367.307H390.107C392.657 367.307 394.744 368.049 394.744 368.931Z" fill="#D1D3D4"/>
<path d="M394.465 385.26C394.465 386.141 392.378 386.883 389.828 386.883H279.316C276.766 386.883 274.679 386.141 274.679 385.26C274.679 384.378 276.766 383.636 279.316 383.636H389.828C392.378 383.636 394.465 384.378 394.465 385.26Z" fill="#D1D3D4"/>
<path d="M394.883 394.352C394.883 395.234 392.796 395.976 390.245 395.976H279.734C277.183 395.976 275.096 395.234 275.096 394.352C275.096 393.471 277.183 392.729 279.734 392.729H390.245C392.796 392.729 394.883 393.471 394.883 394.352Z" fill="#D1D3D4"/>
<path d="M262.343 356.128C272.255 356.128 280.29 348.09 280.29 338.175C280.29 328.26 272.255 320.223 262.343 320.223C252.431 320.223 244.396 328.26 244.396 338.175C244.396 348.09 252.431 356.128 262.343 356.128Z" fill="white"/>
<path d="M622.538 129.378C622.538 130.26 620.451 131.002 617.9 131.002H529.556C527.005 131.002 524.918 130.26 524.918 129.378C524.918 128.497 527.005 127.755 529.556 127.755H617.9C620.451 127.801 622.538 128.497 622.538 129.378Z" fill="white"/>
<path d="M622.538 136.569C622.538 137.45 620.451 138.193 617.9 138.193H529.556C527.005 138.193 524.918 137.45 524.918 136.569C524.918 135.688 527.005 134.945 529.556 134.945H617.9C620.451 134.992 622.538 135.688 622.538 136.569Z" fill="white"/>
<path d="M208.966 279.4C208.966 280.282 206.879 281.024 204.328 281.024H114.453C111.903 281.024 109.816 280.282 109.816 279.4C109.816 278.519 111.903 277.777 114.453 277.777H204.282C206.879 277.777 208.966 278.519 208.966 279.4Z" fill="white"/>
<path d="M208.966 294.941C208.966 295.822 206.879 296.564 204.328 296.564H114.453C111.903 296.564 109.816 295.822 109.816 294.941C109.816 294.059 111.903 293.317 114.453 293.317H204.282C206.879 293.363 208.966 294.059 208.966 294.941Z" fill="white"/>
<path d="M208.966 287.379C208.966 288.26 206.879 289.003 204.328 289.003H114.453C111.903 289.003 109.816 288.26 109.816 287.379C109.816 286.498 111.903 285.755 114.453 285.755H204.282C206.879 285.755 208.966 286.451 208.966 287.379Z" fill="white"/>
<path d="M311.176 346.572C315.863 346.572 319.663 342.771 319.663 338.082C319.663 333.394 315.863 329.593 311.176 329.593C306.489 329.593 302.689 333.394 302.689 338.082C302.689 342.771 306.489 346.572 311.176 346.572Z" fill="white"/>
<path d="M368.449 346.386C373.136 346.386 376.936 342.585 376.936 337.896C376.936 333.208 373.136 329.407 368.449 329.407C363.762 329.407 359.962 333.208 359.962 337.896C359.962 342.585 363.762 346.386 368.449 346.386Z" fill="white"/>
<path d="M126.464 134.296C127.745 134.296 128.783 133.258 128.783 131.977C128.783 130.696 127.745 129.657 126.464 129.657C125.184 129.657 124.146 130.696 124.146 131.977C124.146 133.258 125.184 134.296 126.464 134.296Z" fill="white"/>
<path d="M134.116 134.203C135.397 134.203 136.435 133.165 136.435 131.884C136.435 130.603 135.397 129.564 134.116 129.564C132.836 129.564 131.797 130.603 131.797 131.884C131.797 133.165 132.836 134.203 134.116 134.203Z" fill="white"/>
<path d="M141.675 134.203C142.956 134.203 143.994 133.165 143.994 131.884C143.994 130.603 142.956 129.564 141.675 129.564C140.395 129.564 139.356 130.603 139.356 131.884C139.356 133.165 140.395 134.203 141.675 134.203Z" fill="white"/>
<path d="M299.907 82.1999C301.188 82.1999 302.226 81.1615 302.226 79.8805C302.226 78.5995 301.188 77.561 299.907 77.561C298.627 77.561 297.588 78.5995 297.588 79.8805C297.588 81.1615 298.627 82.1999 299.907 82.1999Z" fill="white"/>
<path d="M307.513 82.1545C308.793 82.1545 309.831 81.1161 309.831 79.8351C309.831 78.5541 308.793 77.5156 307.513 77.5156C306.232 77.5156 305.194 78.5541 305.194 79.8351C305.194 81.1161 306.232 82.1545 307.513 82.1545Z" fill="white"/>
<path d="M315.118 82.1545C316.399 82.1545 317.437 81.1161 317.437 79.8351C317.437 78.5541 316.399 77.5156 315.118 77.5156C313.837 77.5156 312.799 78.5541 312.799 79.8351C312.799 81.1161 313.837 82.1545 315.118 82.1545Z" fill="white"/>
<path d="M479.1 104.467C480.381 104.467 481.419 103.428 481.419 102.147C481.419 100.866 480.381 99.8276 479.1 99.8276C477.82 99.8276 476.782 100.866 476.782 102.147C476.782 103.428 477.82 104.467 479.1 104.467Z" fill="white"/>
<path d="M486.752 104.421C488.033 104.421 489.071 103.383 489.071 102.102C489.071 100.821 488.033 99.7822 486.752 99.7822C485.472 99.7822 484.434 100.821 484.434 102.102C484.434 103.383 485.472 104.421 486.752 104.421Z" fill="white"/>
<path d="M494.311 104.421C495.592 104.421 496.63 103.383 496.63 102.102C496.63 100.821 495.592 99.7822 494.311 99.7822C493.031 99.7822 491.993 100.821 491.993 102.102C491.993 103.383 493.031 104.421 494.311 104.421Z" fill="white"/>
<path d="M528.072 225.171C529.352 225.171 530.39 224.132 530.39 222.851C530.39 221.57 529.352 220.532 528.072 220.532C526.791 220.532 525.753 221.57 525.753 222.851C525.753 224.132 526.791 225.171 528.072 225.171Z" fill="white"/>
<path d="M535.677 225.125C536.958 225.125 537.996 224.087 537.996 222.806C537.996 221.525 536.958 220.486 535.677 220.486C534.397 220.486 533.358 221.525 533.358 222.806C533.358 224.087 534.397 225.125 535.677 225.125Z" fill="white"/>
<path d="M543.283 225.125C544.563 225.125 545.601 224.087 545.601 222.806C545.601 221.525 544.563 220.486 543.283 220.486C542.002 220.486 540.964 221.525 540.964 222.806C540.964 224.087 542.002 225.125 543.283 225.125Z" fill="white"/>
<path d="M245.416 309.042C246.697 309.042 247.735 308.003 247.735 306.722C247.735 305.441 246.697 304.403 245.416 304.403C244.136 304.403 243.098 305.441 243.098 306.722C243.098 308.003 244.136 309.042 245.416 309.042Z" fill="white"/>
<path d="M253.068 308.996C254.349 308.996 255.387 307.958 255.387 306.677C255.387 305.396 254.349 304.357 253.068 304.357C251.788 304.357 250.75 305.396 250.75 306.677C250.75 307.958 251.788 308.996 253.068 308.996Z" fill="white"/>
<path d="M260.627 308.996C261.908 308.996 262.946 307.958 262.946 306.677C262.946 305.396 261.908 304.357 260.627 304.357C259.347 304.357 258.309 305.396 258.309 306.677C258.309 307.958 259.347 308.996 260.627 308.996Z" fill="white"/>
<path d="M64.1366 258.71C65.4172 258.71 66.4554 257.671 66.4554 256.39C66.4554 255.109 65.4172 254.071 64.1366 254.071C62.856 254.071 61.8179 255.109 61.8179 256.39C61.8179 257.671 62.856 258.71 64.1366 258.71Z" fill="white"/>
<path d="M71.7885 258.664C73.0691 258.664 74.1072 257.626 74.1072 256.345C74.1072 255.064 73.0691 254.025 71.7885 254.025C70.5079 254.025 69.4697 255.064 69.4697 256.345C69.4697 257.626 70.5079 258.664 71.7885 258.664Z" fill="white"/>
<path d="M79.3476 258.664C80.6282 258.664 81.6663 257.626 81.6663 256.345C81.6663 255.064 80.6282 254.025 79.3476 254.025C78.0669 254.025 77.0288 255.064 77.0288 256.345C77.0288 257.626 78.0669 258.664 79.3476 258.664Z" fill="white"/>
<path d="M92.843 281.952C92.5647 280.885 91.73 280.05 90.6634 279.725C88.7156 279.215 80.971 279.215 80.971 279.215C80.971 279.215 73.2264 279.215 71.2786 279.725C70.212 280.003 69.3772 280.838 69.099 281.952C68.5889 283.9 68.5889 287.936 68.5889 287.936C68.5889 287.936 68.5889 292.018 69.099 293.92C69.3772 294.987 70.212 295.822 71.2786 296.147C73.2264 296.657 80.971 296.657 80.971 296.657C80.971 296.657 88.7156 296.657 90.6634 296.147C91.73 295.869 92.5647 295.033 92.843 293.92C93.3531 291.972 93.3531 287.936 93.3531 287.936C93.3531 287.936 93.3531 283.9 92.843 281.952Z" fill="url(#paint10_linear)"/>
<path d="M78.4204 291.647V284.271L84.9129 287.936L78.4204 291.647Z" fill="white"/>
<path d="M482.717 142.739C485.036 144.223 487.772 145.058 490.694 145.058C500.34 145.058 505.812 136.894 505.487 129.564C506.508 128.822 507.389 127.894 508.084 126.874C507.157 127.291 506.137 127.569 505.116 127.709C506.183 127.059 507.018 126.039 507.389 124.833C506.369 125.436 505.256 125.853 504.096 126.085C503.169 125.064 501.777 124.461 500.293 124.461C496.954 124.461 494.45 127.616 495.239 130.863C490.926 130.631 487.077 128.59 484.526 125.436C483.181 127.755 483.83 130.817 486.149 132.394C485.314 132.348 484.48 132.116 483.784 131.744C483.738 134.157 485.453 136.43 487.958 136.894C487.216 137.079 486.427 137.126 485.593 136.986C486.242 139.074 488.19 140.558 490.462 140.605C488.236 142.275 485.5 143.063 482.717 142.739Z" fill="url(#paint11_linear)"/>
<path d="M138.43 176.556H143.206V164.634H146.545L146.916 160.645H143.253C143.253 160.645 143.253 159.16 143.253 158.372C143.253 157.444 143.438 157.073 144.366 157.073C145.108 157.073 146.963 157.073 146.963 157.073V152.944C146.963 152.944 144.226 152.944 143.67 152.944C140.145 152.944 138.522 154.522 138.522 157.49C138.522 160.088 138.522 160.691 138.522 160.691H136.064V164.727H138.522V176.556H138.43Z" fill="url(#paint12_linear)"/>
<path d="M318.365 101.592C321.611 101.592 322.028 101.592 323.28 101.685C324.486 101.731 325.135 101.917 325.553 102.102C326.109 102.334 326.527 102.566 326.944 103.03C327.361 103.447 327.64 103.865 327.871 104.422C328.057 104.839 328.242 105.489 328.289 106.695C328.335 107.994 328.382 108.365 328.382 111.612C328.382 114.859 328.382 115.277 328.289 116.529C328.242 117.735 328.057 118.385 327.871 118.802C327.64 119.359 327.408 119.776 326.944 120.194C326.527 120.611 326.109 120.89 325.553 121.122C325.135 121.307 324.486 121.493 323.28 121.539C321.982 121.586 321.611 121.632 318.365 121.632C315.118 121.632 314.701 121.632 313.449 121.539C312.243 121.493 311.594 121.307 311.176 121.122C310.62 120.89 310.203 120.658 309.785 120.194C309.368 119.776 309.09 119.359 308.858 118.802C308.672 118.385 308.487 117.735 308.44 116.529C308.394 115.23 308.348 114.859 308.348 111.612C308.348 108.365 308.348 107.947 308.44 106.695C308.487 105.489 308.672 104.839 308.858 104.422C309.09 103.865 309.321 103.447 309.785 103.03C310.203 102.612 310.62 102.334 311.176 102.102C311.594 101.917 312.243 101.731 313.449 101.685C314.701 101.592 315.118 101.592 318.365 101.592ZM318.365 99.4116C315.026 99.4116 314.655 99.4116 313.31 99.5044C312.011 99.5508 311.13 99.7827 310.342 100.061C309.553 100.386 308.858 100.803 308.162 101.453C307.466 102.149 307.049 102.798 306.771 103.633C306.446 104.422 306.261 105.303 306.214 106.602C306.168 107.901 306.122 108.318 306.122 111.658C306.122 114.998 306.122 115.369 306.214 116.715C306.261 118.014 306.493 118.895 306.771 119.684C307.095 120.472 307.513 121.168 308.162 121.864C308.858 122.56 309.507 122.977 310.342 123.256C311.13 123.58 312.011 123.766 313.31 123.812C314.608 123.859 315.026 123.905 318.365 123.905C321.704 123.905 322.075 123.905 323.419 123.812C324.718 123.766 325.599 123.534 326.387 123.256C327.176 122.931 327.871 122.513 328.567 121.864C329.263 121.168 329.68 120.519 329.958 119.684C330.283 118.895 330.468 118.014 330.515 116.715C330.561 115.416 330.608 114.998 330.608 111.658C330.608 108.318 330.608 107.947 330.515 106.602C330.468 105.303 330.237 104.422 329.958 103.633C329.634 102.844 329.216 102.149 328.567 101.453C327.871 100.757 327.222 100.339 326.387 100.061C325.599 99.7363 324.718 99.5508 323.419 99.5044C322.121 99.4116 321.704 99.4116 318.365 99.4116Z" fill="url(#paint13_linear)"/>
<path d="M318.365 105.35C314.887 105.35 312.104 108.179 312.104 111.612C312.104 115.091 314.933 117.875 318.365 117.875C321.843 117.875 324.625 115.045 324.625 111.612C324.625 108.133 321.843 105.35 318.365 105.35ZM318.365 115.694C316.139 115.694 314.284 113.885 314.284 111.612C314.284 109.385 316.092 107.53 318.365 107.53C320.591 107.53 322.446 109.339 322.446 111.612C322.446 113.885 320.637 115.694 318.365 115.694Z" fill="url(#paint14_linear)"/>
<path d="M326.341 105.071C326.341 105.859 325.692 106.555 324.857 106.555C324.069 106.555 323.373 105.906 323.373 105.071C323.373 104.236 324.022 103.586 324.857 103.586C325.692 103.633 326.341 104.282 326.341 105.071Z" fill="url(#paint15_linear)"/>
<path d="M257.474 334.047H253.579V346.618H257.474V334.047Z" fill="url(#paint16_linear)"/>
<path d="M255.526 332.377C256.778 332.377 257.845 331.356 257.845 330.057C257.845 328.758 256.825 327.738 255.526 327.738C254.274 327.738 253.208 328.758 253.208 330.057C253.208 331.356 254.228 332.377 255.526 332.377Z" fill="url(#paint17_linear)"/>
<path d="M263.688 339.985C263.688 338.222 264.523 337.155 266.054 337.155C267.491 337.155 268.187 338.176 268.187 339.985C268.187 341.794 268.187 346.572 268.187 346.572H272.082C272.082 346.572 272.082 341.979 272.082 338.593C272.082 335.207 270.181 333.583 267.491 333.583C264.801 333.583 263.688 335.671 263.688 335.671V333.954H259.932V346.526H263.688C263.688 346.618 263.688 341.933 263.688 339.985Z" fill="url(#paint18_linear)"/>
<path d="M555.434 253.794H544.072V257.041H551.724C550.796 260.984 548.014 263.443 544.257 263.443C539.341 263.443 535.353 259.453 535.353 254.536C535.353 249.619 539.341 245.63 544.257 245.63C546.576 245.63 548.709 246.511 550.332 247.995L552.837 245.815C550.611 243.635 547.596 242.29 544.257 242.29C537.533 242.29 532.061 247.763 532.061 254.49C532.061 261.216 537.533 266.69 544.257 266.69C550.75 266.69 555.434 261.726 555.434 255V253.794Z" fill="url(#paint19_linear)"/>
<path d="M479.749 281.21C479.749 281.21 486.52 296.286 489.998 299.255C491.436 300.415 493.059 301.343 494.728 301.992C495.702 302.41 496.722 302.41 497.65 302.038C498.577 301.667 499.366 300.925 499.829 299.951C499.829 299.951 499.829 299.905 499.876 299.905C500.108 299.394 500.247 298.838 500.293 298.235C500.525 294.477 500.386 289.513 498.485 285.849C498.345 285.57 498.206 285.292 498.067 285.06C497.001 283.019 496.119 281.163 495.331 279.586C493.801 276.293 492.92 274.205 492.92 274.205L483.923 272.628L483.459 273.556L479.749 281.21Z" fill="#E6E7E8"/>
<path d="M472.886 475.579L471.309 485.46L504.374 476.878C504.374 476.878 487.587 473.491 485.546 472.285C483.506 471.079 476.967 471.265 476.967 471.265L472.886 475.579Z" fill="#E6E7E8"/>
<path d="M440.284 470.987L438.707 482.213L474.23 473.445C474.23 473.445 458.138 470.94 455.356 468.992C452.527 467.044 442.092 467.693 442.092 467.693L440.284 470.987Z" fill="#E6E7E8"/>
<path d="M468.99 393.888L471.402 444.174L472.978 477.342H481.836L487.03 395.326L481.465 394.862L468.99 393.888Z" fill="#E6E7E8"/>
<path d="M457.814 393.239L450.718 470.569H441.026L439.403 389.157L457.814 393.239Z" fill="#E6E7E8"/>
<path d="M439.449 389.203L439.867 389.249L454.382 392.45C452.249 395.651 446.22 405.624 445.803 417.222C445.292 431.092 441.907 451.549 441.768 452.292L439.959 415.088L439.449 389.203Z" fill="#D1D3D4"/>
<path d="M434.719 349.17C434.719 349.17 432.354 353.437 434.534 364.756C436.203 373.477 430.221 393.888 430.221 393.888L459.808 393.146L478.868 387.023L477.245 365.916L459.159 345.227L434.719 349.17Z" fill="url(#paint20_linear)"/>
<path d="M468.99 393.888L471.402 444.174C471.494 443.571 474.231 427.288 474.602 416.248C475.019 404.975 482.068 395.651 482.068 395.651L481.511 394.862L468.99 393.888Z" fill="#D1D3D4"/>
<path d="M492.781 339.845L496.12 394.167L459.066 397.182C459.066 397.182 460.55 382.616 459.205 374.405C455.588 352.324 460.133 346.015 460.133 346.015L465.373 336.459L492.781 339.845Z" fill="url(#paint21_linear)"/>
<path d="M448.771 258.015C448.771 258.015 449.605 258.99 450.626 260.196C452.341 262.237 454.66 264.927 454.799 265.159C455.078 265.53 461.245 266.134 461.245 266.134C461.245 266.134 464.863 263.536 465.095 263.304C465.373 263.072 468.155 256.299 468.155 256.299C468.248 255.464 468.109 254.629 467.831 253.84C467.367 251.799 466.903 246.789 466.903 246.789L468.202 245.537L464.028 240.805C464.028 240.805 459.576 241.826 455.727 243.171C452.62 244.238 449.93 245.537 450.115 246.604C450.625 249.109 448.771 258.015 448.771 258.015Z" fill="#D1D3D4"/>
<path d="M473.396 220.44C471.309 225.496 468.526 230.274 465.187 234.589C465.095 230.692 464.955 226.331 464.955 226.331L457.35 214.502C457.35 214.502 451.97 210.791 449.513 210.466C448.817 210.374 447.982 210.281 447.147 210.142L466.022 210.698L473.396 220.44Z" fill="#F6DADF"/>
<path d="M465.187 234.589C463.054 237.372 460.735 239.97 458.185 242.382C456.237 244.238 454.243 245.954 452.11 247.578C446.266 251.892 444.458 250.64 443.159 249.897C440.794 248.552 439.913 241.547 440.933 229.393C441.211 226.332 441.768 223.27 442.603 220.301C443.53 216.729 445.061 213.297 447.055 210.188H447.147C448.029 210.281 448.863 210.42 449.513 210.513C451.97 210.838 457.35 214.549 457.35 214.549L464.955 226.378C464.955 226.332 465.095 230.692 465.187 234.589Z" fill="#E6E7E8"/>
<path d="M436.991 294.199C437.362 298.188 437.409 302.224 437.084 306.26H437.038C436.296 305.935 424.006 300.879 418.441 295.08C415.705 292.25 412.552 288.586 409.816 285.478C406.755 281.998 404.158 279.169 403.184 278.937C401.375 278.519 395.81 278.38 395.996 275.736C396.181 273.092 394.419 269.288 395.625 267.85C396.831 266.412 398.222 265.809 397.851 264.649C397.48 263.489 390.802 257.783 390.616 257.134C390.524 256.856 390.524 256.577 390.616 256.299C390.709 256.021 390.848 255.789 391.08 255.603C391.312 255.417 391.59 255.325 391.869 255.278C392.147 255.278 392.425 255.325 392.703 255.464C392.982 255.603 393.213 255.789 393.445 256.021C394.744 257.319 400.077 262.469 401.422 263.072C402.767 263.675 404.946 263.767 407.265 266.504C409.584 269.241 409.537 272.349 410.65 273.324C410.65 273.324 410.697 273.324 410.697 273.37C412.598 275.133 414.685 276.71 416.957 278.009C421.549 280.699 429.061 285.106 433.003 287.611C434.023 288.261 434.812 288.771 435.229 289.142C436.157 289.884 436.713 291.833 436.991 294.199Z" fill="#E6E7E8"/>
<path d="M431.983 276.988C431.983 276.988 427.067 287.518 427.299 291.508C427.577 293.966 428.505 296.1 429.896 297.585C431.287 299.069 433.096 299.719 434.951 299.533L439.403 299.023L443.298 277.684L437.641 271.375L431.983 276.988Z" fill="#E6E7E8"/>
<path d="M446.406 259.453C442.232 260.891 438.754 263.257 436.667 266.087C432.679 271.282 426.325 283.204 426.325 283.204C426.325 283.204 434.023 284.318 439.357 282.601L444.69 280.885L446.406 259.453Z" fill="url(#paint22_linear)"/>
<path d="M465.187 234.589C463.054 237.372 460.735 239.97 458.185 242.382C456.237 244.237 454.243 245.954 452.109 247.577C452.017 247.392 449.652 240.341 450.44 237.186C451.228 233.985 448.399 236.212 445.895 237.325C443.391 238.439 447.101 227.352 445.571 227.398C444.087 227.491 443.298 223.502 443.437 222.249C443.484 221.878 443.391 221.507 443.252 221.136C443.113 220.811 442.881 220.486 442.603 220.254C443.53 216.682 445.06 213.25 447.055 210.142H447.147C448.028 210.234 448.863 210.374 449.512 210.466C451.97 210.791 457.35 214.502 457.35 214.502L464.955 226.331C464.955 226.331 465.094 230.692 465.187 234.589Z" fill="#D1D3D4"/>
<path d="M448.771 258.015C448.771 258.015 449.605 258.99 450.626 260.196L452.805 259.036C452.991 256.624 453.315 254.258 453.872 251.892C454.521 249.851 458.695 249.48 458.695 249.48L459.808 244.748L455.727 243.171C452.62 244.238 449.93 245.537 450.115 246.604C450.625 249.109 448.771 258.015 448.771 258.015Z" fill="#E6E7E8"/>
<path d="M485.036 353.344C485.036 353.344 470.985 358.818 474.37 369.58C477.709 380.296 484.665 389.806 476.642 384.332C468.62 378.858 458.278 360.906 463.101 353.391C467.924 345.829 485.036 353.344 485.036 353.344Z" fill="url(#paint23_linear)"/>
<path d="M431.473 350.839C431.473 350.839 444.04 357.705 464.121 355.061C481.372 352.788 501.174 341.794 501.174 341.794C501.174 341.794 501.082 339.66 495.563 317.486C495.006 315.305 494.496 313.218 493.94 311.223C491.389 301.574 488.931 293.549 486.566 286.915C474.833 253.701 466.208 254.861 466.208 254.861L464.492 254.768C457.582 254.258 450.765 256.345 445.339 260.613C444.087 261.494 443.02 262.654 442.232 263.953C437.78 272.442 431.473 350.839 431.473 350.839Z" fill="#F2F2F2"/>
<path d="M443.206 198.405C443.113 198.266 442.974 198.174 442.789 198.081C442.603 198.034 442.464 197.988 442.279 198.034C442.093 198.081 441.954 198.127 441.815 198.22C441.676 198.313 441.583 198.452 441.49 198.637C440.47 201.328 439.171 206.431 440.331 210.745C441.861 216.497 444.226 216.636 444.597 219.744C445.015 222.852 445.015 224.151 447.333 224.29C449.652 224.383 450.255 222.945 449.838 225.45C449.559 227.538 449.049 229.625 448.4 231.666C447.797 233.29 445.432 235.517 447.519 234.403C449.606 233.243 452.156 227.027 454.151 228.002C456.145 228.976 458.463 233.661 455.82 234.635C453.13 235.609 451.693 238.253 452.156 240.109C452.62 242.011 453.223 246.372 455.078 247.81C456.933 249.294 464.214 250.361 467.367 249.433C471.634 248.181 476.04 243.681 477.616 240.016C479.008 236.815 481.651 222.992 479.1 214.92C476.503 206.848 469.547 200.122 464.307 199.612C460.504 199.24 450.394 205.132 447.241 202.534C445.757 201.235 444.412 199.89 443.206 198.405Z" fill="#010101"/>
<path d="M470.474 299.023C467.46 310.249 492.085 308.301 492.085 308.301C489.534 298.652 487.911 293.827 485.593 287.194C482.671 283.297 477.06 274.622 477.06 274.622L465.605 270.911C465.605 270.958 473.396 288.029 470.474 299.023Z" fill="#F2F2F2"/>
<path d="M470.381 256.716C474.787 256.763 478.822 257.922 481.697 259.964C487.123 263.675 496.861 272.999 496.861 272.999C496.861 272.999 489.905 276.432 484.294 276.478L478.682 276.524L470.381 256.716Z" fill="url(#paint24_linear)"/>
</g>
<defs>
<filter id="filter0_d" x="-25" y="-10" width="792" height="551" filterUnits="userSpaceOnUse" color-interpolation-filters="sRGB">
<feFlood flood-opacity="0" result="BackgroundImageFix"/>
<feColorMatrix in="SourceAlpha" type="matrix" values="0 0 0 0 0 0 0 0 0 0 0 0 0 0 0 0 0 0 127 0" result="hardAlpha"/>
<feOffset dy="15"/>
<feGaussianBlur stdDeviation="12.5"/>
<feColorMatrix type="matrix" values="0 0 0 0 0 0 0 0 0 0 0 0 0 0 0 0 0 0 0.25 0"/>
<feBlend mode="normal" in2="BackgroundImageFix" result="effect1_dropShadow"/>
<feBlend mode="normal" in="SourceGraphic" in2="effect1_dropShadow" result="shape"/>
</filter>
<linearGradient id="paint0_linear" x1="371.567" y1="261.515" x2="412.211" y2="261.515" gradientUnits="userSpaceOnUse">
<stop stop-color="#7DD3F7"/>
<stop offset="1" stop-color="#43B5E8"/>
</linearGradient>
<linearGradient id="paint1_linear" x1="164.645" y1="163.73" x2="275.341" y2="163.73" gradientUnits="userSpaceOnUse">
<stop stop-color="#7DD3F7"/>
<stop offset="1" stop-color="#43B5E8"/>
</linearGradient>
<linearGradient id="paint2_linear" x1="347.947" y1="154.714" x2="395.682" y2="154.714" gradientUnits="userSpaceOnUse">
<stop stop-color="#7DD3F7"/>
<stop offset="1" stop-color="#43B5E8"/>
</linearGradient>
<linearGradient id="paint3_linear" x1="402.636" y1="154.714" x2="450.371" y2="154.714" gradientUnits="userSpaceOnUse">
<stop stop-color="#7DD3F7"/>
<stop offset="1" stop-color="#43B5E8"/>
</linearGradient>
<linearGradient id="paint4_linear" x1="104.063" y1="288.071" x2="213.743" y2="288.071" gradientUnits="userSpaceOnUse">
<stop stop-color="#7DD3F7"/>
<stop offset="1" stop-color="#43B5E8"/>
</linearGradient>
<linearGradient id="paint5_linear" x1="63.0517" y1="330.305" x2="98.2324" y2="330.305" gradientUnits="userSpaceOnUse">
<stop stop-color="#7DD3F7"/>
<stop offset="1" stop-color="#43B5E8"/>
</linearGradient>
<linearGradient id="paint6_linear" x1="518.653" y1="133.055" x2="627.855" y2="133.055" gradientUnits="userSpaceOnUse">
<stop stop-color="#7DD3F7"/>
<stop offset="1" stop-color="#43B5E8"/>
</linearGradient>
<linearGradient id="paint7_linear" x1="567.489" y1="254.407" x2="623.256" y2="254.407" gradientUnits="userSpaceOnUse">
<stop stop-color="#7DD3F7"/>
<stop offset="1" stop-color="#43B5E8"/>
</linearGradient>
<linearGradient id="paint8_linear" x1="342.105" y1="337.919" x2="395.468" y2="337.919" gradientUnits="userSpaceOnUse">
<stop stop-color="#7DD3F7"/>
<stop offset="1" stop-color="#43B5E8"/>
</linearGradient>
<linearGradient id="paint9_linear" x1="284.897" y1="338.13" x2="338.261" y2="338.13" gradientUnits="userSpaceOnUse">
<stop stop-color="#7DD3F7"/>
<stop offset="1" stop-color="#43B5E8"/>
</linearGradient>
<linearGradient id="paint10_linear" x1="68.56" y1="287.947" x2="93.3404" y2="287.947" gradientUnits="userSpaceOnUse">
<stop stop-color="#71459B"/>
<stop offset="0.8668" stop-color="#A76DAE"/>
</linearGradient>
<linearGradient id="paint11_linear" x1="482.735" y1="134.752" x2="508.097" y2="134.752" gradientUnits="userSpaceOnUse">
<stop stop-color="#71459B"/>
<stop offset="0.8668" stop-color="#A76DAE"/>
</linearGradient>
<linearGradient id="paint12_linear" x1="135.934" y1="164.756" x2="146.835" y2="164.756" gradientUnits="userSpaceOnUse">
<stop stop-color="#71459B"/>
<stop offset="0.8668" stop-color="#A76DAE"/>
</linearGradient>
<linearGradient id="paint13_linear" x1="306.154" y1="111.614" x2="330.58" y2="111.614" gradientUnits="userSpaceOnUse">
<stop stop-color="#71459B"/>
<stop offset="0.8668" stop-color="#A76DAE"/>
</linearGradient>
<linearGradient id="paint14_linear" x1="312.096" y1="111.614" x2="324.639" y2="111.614" gradientUnits="userSpaceOnUse">
<stop stop-color="#71459B"/>
<stop offset="0.8668" stop-color="#A76DAE"/>
</linearGradient>
<linearGradient id="paint15_linear" x1="323.421" y1="105.092" x2="326.352" y2="105.092" gradientUnits="userSpaceOnUse">
<stop stop-color="#71459B"/>
<stop offset="0.8668" stop-color="#A76DAE"/>
</linearGradient>
<linearGradient id="paint16_linear" x1="253.582" y1="340.319" x2="257.476" y2="340.319" gradientUnits="userSpaceOnUse">
<stop stop-color="#71459B"/>
<stop offset="0.8668" stop-color="#A76DAE"/>
</linearGradient>
<linearGradient id="paint17_linear" x1="253.208" y1="330.058" x2="257.813" y2="330.058" gradientUnits="userSpaceOnUse">
<stop stop-color="#71459B"/>
<stop offset="0.8668" stop-color="#A76DAE"/>
</linearGradient>
<linearGradient id="paint18_linear" x1="259.966" y1="340.127" x2="272.069" y2="340.127" gradientUnits="userSpaceOnUse">
<stop stop-color="#71459B"/>
<stop offset="0.8668" stop-color="#A76DAE"/>
</linearGradient>
<linearGradient id="paint19_linear" x1="532.084" y1="254.517" x2="555.46" y2="254.517" gradientUnits="userSpaceOnUse">
<stop stop-color="#71459B"/>
<stop offset="0.8668" stop-color="#A76DAE"/>
</linearGradient>
<linearGradient id="paint20_linear" x1="430.218" y1="369.57" x2="478.888" y2="369.57" gradientUnits="userSpaceOnUse">
<stop stop-color="#71459B"/>
<stop offset="0.8668" stop-color="#A76DAE"/>
</linearGradient>
<linearGradient id="paint21_linear" x1="457.799" y1="366.814" x2="496.111" y2="366.814" gradientUnits="userSpaceOnUse">
<stop stop-color="#71459B"/>
<stop offset="0.8668" stop-color="#A76DAE"/>
</linearGradient>
<linearGradient id="paint22_linear" x1="426.31" y1="271.518" x2="446.416" y2="271.518" gradientUnits="userSpaceOnUse">
<stop stop-color="#71459B"/>
<stop offset="0.8668" stop-color="#A76DAE"/>
</linearGradient>
<linearGradient id="paint23_linear" x1="461.847" y1="367.971" x2="485.025" y2="367.971" gradientUnits="userSpaceOnUse">
<stop stop-color="#71459B"/>
<stop offset="0.8668" stop-color="#A76DAE"/>
</linearGradient>
<linearGradient id="paint24_linear" x1="470.371" y1="266.631" x2="496.871" y2="266.631" gradientUnits="userSpaceOnUse">
<stop stop-color="#71459B"/>
<stop offset="0.8668" stop-color="#A76DAE"/>
</linearGradient>
</defs>
</svg>
