<svg width="654" height="444" viewBox="0 0 654 444" fill="none" xmlns="http://www.w3.org/2000/svg">
<g filter="url(#filter0_d)">
<path d="M90.5788 327.892C89.9248 325.401 87.9628 323.441 85.4694 322.747C80.9732 321.522 62.9064 321.522 62.9064 321.522C62.9064 321.522 44.8397 321.522 40.3434 322.747C37.8501 323.4 35.8881 325.401 35.2341 327.892C34.0078 332.424 34.0078 341.857 34.0078 341.857C34.0078 341.857 34.0078 351.289 35.2341 355.822C35.8881 358.313 37.8501 360.273 40.3434 360.967C44.8397 362.192 62.9064 362.192 62.9064 362.192C62.9064 362.192 80.9732 362.192 85.4694 360.967C87.9628 360.314 89.9248 358.313 90.5788 355.822C91.8051 351.289 91.8051 341.857 91.8051 341.857C91.8051 341.857 91.8051 332.424 90.5788 327.892Z" fill="#A7A9AC"/>
<path d="M57.0205 350.473V333.282L72.1034 341.857L57.0205 350.473Z" fill="white"/>
<path d="M414.513 71.4178C420.358 75.1337 427.266 77.3387 434.705 77.3387C459.149 77.3387 472.964 56.7178 472.147 38.2204C474.722 36.3829 476.97 34.0554 478.728 31.4012C476.357 32.4629 473.823 33.157 471.166 33.4837C473.864 31.8504 475.989 29.2779 476.97 26.2154C474.436 27.7262 471.616 28.8287 468.591 29.4004C466.179 26.8279 462.746 25.2354 458.985 25.2354C450.483 25.2354 444.229 33.157 446.15 41.4054C435.196 40.8745 425.509 35.607 419.009 27.6445C415.576 33.5653 417.211 41.2828 423.097 45.2028C420.931 45.1212 418.887 44.5495 417.129 43.5695C417.007 49.6537 421.339 55.3703 427.675 56.6362C425.836 57.1262 423.792 57.2487 421.748 56.8403C423.424 62.067 428.288 65.8645 434.051 65.987C428.492 70.3153 421.503 72.2345 414.513 71.4178Z" fill="#A7A9AC"/>
<path d="M83.7526 137.568H96.5056V105.636H105.416L106.356 94.9379H96.5056C96.5056 94.9379 96.5056 90.9362 96.5056 88.8537C96.5056 86.322 96.9961 85.342 99.4486 85.342C101.411 85.342 106.356 85.342 106.356 85.342V74.2354C106.356 74.2354 99.0807 74.2354 97.5275 74.2354C88.0445 74.2354 83.7526 78.4004 83.7526 86.4037C83.7526 93.3862 83.7526 94.9379 83.7526 94.9379H77.1309V105.759H83.7526V137.568Z" fill="#A7A9AC"/>
<path d="M266.014 14.7818C272.758 14.7818 273.576 14.8227 276.233 14.9452C278.685 15.0677 280.034 15.476 280.933 15.8027C282.119 16.2518 282.977 16.8235 283.836 17.681C284.735 18.5793 285.266 19.396 285.716 20.5802C286.043 21.4785 286.492 22.826 286.574 25.276C286.697 27.9302 286.738 28.7468 286.738 35.4843C286.738 42.2218 286.697 43.0385 286.574 45.6927C286.452 48.1427 286.043 49.4902 285.716 50.3885C285.266 51.5727 284.694 52.4302 283.836 53.2877C282.936 54.186 282.119 54.7168 280.933 55.166C280.034 55.4927 278.685 55.9418 276.233 56.0235C273.576 56.146 272.758 56.1868 266.014 56.1868C259.27 56.1868 258.452 56.146 255.795 56.0235C253.343 55.901 251.994 55.4927 251.095 55.166C249.909 54.7168 249.051 54.1452 248.193 53.2877C247.293 52.3893 246.762 51.5727 246.312 50.3885C245.985 49.4902 245.536 48.1427 245.454 45.6927C245.331 43.0385 245.29 42.2218 245.29 35.4843C245.29 28.7468 245.331 27.9302 245.454 25.276C245.577 22.826 245.985 21.4785 246.312 20.5802C246.762 19.396 247.334 18.5385 248.193 17.681C249.092 16.7827 249.909 16.2518 251.095 15.8027C251.994 15.476 253.343 15.0268 255.795 14.9452C258.452 14.8227 259.229 14.7818 266.014 14.7818ZM266.014 10.2085C259.147 10.2085 258.289 10.2493 255.591 10.3718C252.893 10.4943 251.054 10.9027 249.46 11.556C247.784 12.2093 246.394 13.0668 244.963 14.4552C243.574 15.8435 242.674 17.2727 242.061 18.9468C241.448 20.5393 240.999 22.3768 240.876 25.0718C240.753 27.7668 240.712 28.6243 240.712 35.4843C240.712 42.3443 240.753 43.2018 240.876 45.8968C240.999 48.5918 241.407 50.4293 242.061 52.0218C242.715 53.696 243.574 55.0843 244.963 56.5135C246.353 57.9018 247.784 58.8002 249.46 59.4127C251.054 60.0252 252.893 60.4743 255.591 60.5968C258.289 60.7193 259.147 60.7602 266.014 60.7602C272.881 60.7602 273.739 60.7193 276.437 60.5968C279.135 60.4743 280.974 60.066 282.568 59.4127C284.244 58.7593 285.634 57.9018 287.065 56.5135C288.454 55.1252 289.354 53.696 289.967 52.0218C290.58 50.4293 291.03 48.5918 291.152 45.8968C291.275 43.2018 291.316 42.3443 291.316 35.4843C291.316 28.6243 291.275 27.7668 291.152 25.0718C291.03 22.3768 290.621 20.5393 289.967 18.9468C289.313 17.2727 288.454 15.8843 287.065 14.4552C285.675 13.0668 284.244 12.1685 282.568 11.556C280.974 10.9435 279.135 10.4943 276.437 10.3718C273.739 10.2493 272.881 10.2085 266.014 10.2085Z" fill="#A7A9AC"/>
<path d="M266.014 22.54C258.82 22.54 253.016 28.3384 253.016 35.525C253.016 42.7117 258.82 48.51 266.014 48.51C273.208 48.51 279.012 42.7117 279.012 35.525C279.012 28.3384 273.167 22.54 266.014 22.54ZM266.014 43.9367C261.354 43.9367 257.553 40.18 257.553 35.4842C257.553 30.8292 261.313 27.0317 266.014 27.0317C270.674 27.0317 274.475 30.7884 274.475 35.4842C274.434 40.18 270.674 43.9367 266.014 43.9367Z" fill="#A7A9AC"/>
<path d="M282.568 22.0095C282.568 23.6836 281.22 25.0311 279.544 25.0311C277.868 25.0311 276.519 23.6836 276.519 22.0095C276.519 20.3353 277.868 18.9878 279.544 18.9878C281.179 18.9878 282.568 20.3353 282.568 22.0095Z" fill="#A7A9AC"/>
<path d="M201.84 366.806H190.845V402.249H201.84V366.806Z" fill="#A7A9AC"/>
<path d="M196.281 362.192C199.878 362.192 202.78 359.252 202.78 355.658C202.78 352.065 199.878 349.125 196.281 349.125C192.684 349.125 189.782 352.065 189.782 355.658C189.782 359.252 192.684 362.192 196.281 362.192Z" fill="#A7A9AC"/>
<path d="M219.376 383.67C219.376 378.688 221.665 375.707 226.079 375.707C230.126 375.707 232.047 378.566 232.047 383.67C232.047 388.774 232.047 402.249 232.047 402.249H242.961C242.961 402.249 242.961 389.305 242.961 379.832C242.961 370.358 237.565 365.744 230.044 365.744C222.523 365.744 219.376 371.583 219.376 371.583V366.806H208.83V402.249H219.376C219.376 402.249 219.376 389.101 219.376 383.67Z" fill="#A7A9AC"/>
<path d="M601.066 316.581H576.991L577.032 323.482H593.259C591.338 331.853 585.411 336.998 577.441 336.998C567.017 336.998 558.556 328.545 558.556 318.133C558.556 307.72 567.017 299.268 577.441 299.268C582.386 299.268 586.924 301.187 590.275 304.29L595.589 299.717C590.929 295.103 584.512 292.285 577.4 292.285C563.093 292.285 551.526 303.882 551.526 318.133C551.526 332.383 563.134 343.98 577.4 343.98C591.134 343.98 601.066 333.527 601.066 319.235V316.581Z" fill="#A7A9AC"/>
<path d="M305.418 182.974L324.834 171.786L344.249 182.974V205.351L324.834 216.539L305.418 205.351V182.974Z" fill="#EDEDEE"/>
<path d="M348.091 190.569L360.926 183.138L373.802 190.569V205.392L360.926 212.824L348.091 205.392V190.569Z" fill="#EDEDEE"/>
<path d="M284.776 219.52L303.251 208.863L321.768 219.52V240.876L303.251 251.534L284.776 240.876V219.52Z" fill="#EDEDEE"/>
<path d="M327.49 219.847L345.393 209.516L363.297 219.847V240.509L345.393 250.839L327.49 240.509V219.847Z" fill="url(#paint0_linear)"/>
<path d="M250.278 205.269C250.278 207.515 248.438 209.352 246.19 209.352H105.621C103.373 209.352 101.534 207.515 101.534 205.269V113.762C101.534 111.516 103.373 109.678 105.621 109.678H246.149C248.398 109.678 250.237 111.516 250.237 113.762V205.269H250.278Z" fill="#E1F4FD"/>
<path d="M250.278 118.621C250.278 120.867 248.438 122.704 246.19 122.704H105.621C103.373 122.704 101.534 120.867 101.534 118.621V113.762C101.534 111.516 103.373 109.678 105.621 109.678H246.19C248.438 109.678 250.278 111.516 250.278 113.762V118.621Z" fill="#7C7D80"/>
<path d="M242.675 153.043C242.675 155.289 240.836 157.127 238.588 157.127H149.194C146.946 157.127 145.106 155.289 145.106 153.043V135.199C145.106 132.953 146.946 131.116 149.194 131.116H238.588C240.836 131.116 242.675 132.953 242.675 135.199V153.043Z" fill="url(#paint1_linear)"/>
<path d="M242.021 171.418C242.021 172.194 241.285 172.848 240.386 172.848H111.221C110.322 172.848 109.586 172.194 109.586 171.418C109.586 170.643 110.322 169.989 111.221 169.989H240.427C241.285 169.989 242.021 170.602 242.021 171.418Z" fill="#D1D3D4"/>
<path d="M241.898 178.278C241.898 179.054 241.162 179.707 240.263 179.707H111.997C111.098 179.707 110.362 179.054 110.362 178.278C110.362 177.502 111.098 176.849 111.997 176.849H240.263C241.162 176.89 241.898 177.502 241.898 178.278Z" fill="#D1D3D4"/>
<path d="M241.817 185.792C241.817 186.568 241.081 187.221 240.182 187.221H111.712C110.812 187.221 110.077 186.568 110.077 185.792C110.077 185.016 110.812 184.363 111.712 184.363H240.141C241.081 184.363 241.817 185.016 241.817 185.792Z" fill="#D1D3D4"/>
<path d="M241.817 193.305C241.817 194.081 241.081 194.734 240.182 194.734H111.712C110.812 194.734 110.077 194.081 110.077 193.305C110.077 192.529 110.812 191.876 111.712 191.876H240.141C241.081 191.917 241.817 192.529 241.817 193.305Z" fill="#D1D3D4"/>
<path d="M125.323 160.148C134.059 160.148 141.142 153.073 141.142 144.346C141.142 135.618 134.059 128.543 125.323 128.543C116.587 128.543 109.504 135.618 109.504 144.346C109.504 153.073 116.587 160.148 125.323 160.148Z" fill="white"/>
<path d="M157.287 153.615C162.502 153.615 166.729 149.392 166.729 144.182C166.729 138.973 162.502 134.75 157.287 134.75C152.073 134.75 147.845 138.973 147.845 144.182C147.845 149.392 152.073 153.615 157.287 153.615Z" fill="white"/>
<path d="M404.785 159.495C404.785 161.741 402.946 163.578 400.697 163.578H260.619C258.371 163.578 256.531 161.741 256.531 159.495V67.9876C256.531 65.7418 258.371 63.9043 260.619 63.9043H400.697C402.946 63.9043 404.785 65.7418 404.785 67.9876V159.495Z" fill="#E1F4FD"/>
<path d="M404.908 72.8468C404.908 75.0926 403.068 76.9301 400.82 76.9301H260.619C258.371 76.9301 256.531 75.0926 256.531 72.8468V67.9876C256.531 65.7418 258.371 63.9043 260.619 63.9043H400.82C403.068 63.9043 404.908 65.7418 404.908 67.9876V72.8468Z" fill="#7C7D80"/>
<path d="M348.745 153.002C348.745 155.248 346.906 157.086 344.658 157.086H310.773C308.524 157.086 306.685 155.248 306.685 153.002V119.356C306.685 117.11 308.524 115.272 310.773 115.272H344.658C346.906 115.272 348.745 117.11 348.745 119.356V153.002Z" fill="url(#paint2_linear)"/>
<path d="M396.978 153.002C396.978 155.248 395.139 157.086 392.891 157.086H359.005C356.757 157.086 354.918 155.248 354.918 153.002V119.356C354.918 117.11 356.757 115.272 359.005 115.272H392.891C395.139 115.272 396.978 117.11 396.978 119.356V153.002Z" fill="url(#paint3_linear)"/>
<path d="M399.472 90.3645C399.472 91.0586 398.899 91.5895 398.245 91.5895H304.437C303.742 91.5895 303.211 91.0586 303.211 90.3645V89.997C303.211 89.3436 303.742 88.772 304.437 88.772H398.245C398.899 88.772 399.472 89.3436 399.472 89.997V90.3645Z" fill="#D1D3D4"/>
<path d="M399.635 99.1028C399.635 99.7561 399.104 100.328 398.409 100.328H304.56C303.865 100.328 303.333 99.7561 303.333 99.1028V98.7353C303.333 98.0411 303.865 97.5103 304.56 97.5103H398.368C399.063 97.5103 399.594 98.0411 399.594 98.7353V99.1028H399.635Z" fill="#D1D3D4"/>
<path d="M399.635 107.269C399.635 107.923 399.104 108.494 398.409 108.494H304.56C303.865 108.494 303.333 107.923 303.333 107.269V106.902C303.333 106.248 303.865 105.677 304.56 105.677H398.368C399.063 105.677 399.594 106.248 399.594 106.902V107.269H399.635Z" fill="#D1D3D4"/>
<path d="M345.885 145.285C345.885 146.061 345.149 146.714 344.25 146.714H311.55C310.65 146.714 309.915 146.061 309.915 145.285C309.915 144.509 310.65 143.856 311.55 143.856H344.25C345.149 143.856 345.885 144.509 345.885 145.285Z" fill="white"/>
<path d="M239.16 139.854C239.16 140.63 238.424 141.284 237.525 141.284H172.247C171.348 141.284 170.612 140.63 170.612 139.854C170.612 139.079 171.348 138.425 172.247 138.425H237.525C238.424 138.466 239.16 139.079 239.16 139.854Z" fill="white"/>
<path d="M239.078 147.245C239.078 148.021 238.342 148.674 237.443 148.674H172.166C171.267 148.674 170.531 148.021 170.531 147.245C170.531 146.469 171.267 145.816 172.166 145.816H237.443C238.342 145.816 239.078 146.469 239.078 147.245Z" fill="white"/>
<path d="M394.158 145.489C394.158 146.265 393.422 146.918 392.523 146.918H359.823C358.923 146.918 358.188 146.265 358.188 145.489C358.188 144.713 358.923 144.06 359.823 144.06H392.523C393.422 144.06 394.158 144.713 394.158 145.489Z" fill="white"/>
<path d="M394.158 151.288C394.158 152.063 393.422 152.717 392.523 152.717H359.823C358.923 152.717 358.188 152.063 358.188 151.288C358.188 150.512 358.923 149.858 359.823 149.858H392.523C393.422 149.899 394.158 150.512 394.158 151.288Z" fill="white"/>
<path d="M345.885 151.083C345.885 151.859 345.149 152.513 344.25 152.513H311.55C310.65 152.513 309.915 151.859 309.915 151.083C309.915 150.308 310.65 149.654 311.55 149.654H344.25C345.149 149.654 345.885 150.308 345.885 151.083Z" fill="white"/>
<path d="M280.321 114.374C289.057 114.374 296.14 107.299 296.14 98.5715C296.14 89.8441 289.057 82.769 280.321 82.769C271.585 82.769 264.502 89.8441 264.502 98.5715C264.502 107.299 271.585 114.374 280.321 114.374Z" fill="white"/>
<path d="M327.041 140.998C332.662 140.998 337.219 136.445 337.219 130.83C337.219 125.215 332.662 120.663 327.041 120.663C321.42 120.663 316.863 125.215 316.863 130.83C316.863 136.445 321.42 140.998 327.041 140.998Z" fill="white"/>
<path d="M375.927 141.488C381.797 141.488 386.555 136.734 386.555 130.871C386.555 125.008 381.797 120.254 375.927 120.254C370.058 120.254 365.3 125.008 365.3 130.871C365.3 136.734 370.058 141.488 375.927 141.488Z" fill="white"/>
<path d="M195.996 314.417C195.996 316.663 194.156 318.5 191.908 318.5H52.0748C49.8267 318.5 47.9873 316.663 47.9873 314.417V222.868C47.9873 220.623 49.8267 218.785 52.0748 218.785H191.908C194.156 218.785 195.996 220.623 195.996 222.868V314.417Z" fill="#E1F4FD"/>
<path d="M196.037 227.728C196.037 229.974 194.197 231.811 191.949 231.811H52.1158C49.8677 231.811 48.0283 229.974 48.0283 227.728V222.869C48.0283 220.623 49.8677 218.785 52.1158 218.785H191.99C194.238 218.785 196.078 220.623 196.078 222.869V227.728H196.037Z" fill="#7C7D80"/>
<path d="M188.393 264.968C188.393 267.214 186.554 269.051 184.306 269.051H95.8111C93.563 269.051 91.7236 267.214 91.7236 264.968V242.142C91.7236 239.896 93.563 238.059 95.8111 238.059H184.306C186.554 238.059 188.393 239.896 188.393 242.142V264.968Z" fill="url(#paint4_linear)"/>
<path d="M86.5731 301.228C86.5731 303.473 84.7337 305.311 82.4856 305.311H59.6773C57.4292 305.311 55.5898 303.473 55.5898 301.228V280.28C55.5898 278.034 57.4292 276.197 59.6773 276.197H82.5265C84.7746 276.197 86.614 278.034 86.614 280.28V301.228H86.5731Z" fill="url(#paint5_linear)"/>
<path d="M187.616 287.426C187.616 288.202 186.88 288.855 185.981 288.855H93.7263C92.8271 288.855 92.0913 288.202 92.0913 287.426C92.0913 286.65 92.8271 285.997 93.7263 285.997H185.981C186.88 286.038 187.616 286.65 187.616 287.426Z" fill="#D1D3D4"/>
<path d="M187.616 278.687C187.616 279.463 186.881 280.117 185.981 280.117H93.1951C92.2958 280.117 91.5601 279.463 91.5601 278.687C91.5601 277.912 92.2958 277.258 93.1951 277.258H185.981C186.881 277.299 187.616 277.912 187.616 278.687Z" fill="#D1D3D4"/>
<path d="M187.616 302.861C187.616 303.637 186.881 304.29 185.981 304.29H92.6638C91.7646 304.29 91.0288 303.637 91.0288 302.861C91.0288 302.085 91.7646 301.432 92.6638 301.432H185.981C186.881 301.472 187.616 302.085 187.616 302.861Z" fill="#D1D3D4"/>
<path d="M187.493 294.939C187.493 295.715 186.758 296.369 185.858 296.369H93.5627C92.6635 296.369 91.9277 295.715 91.9277 294.939C91.9277 294.164 92.6635 293.51 93.5627 293.51H185.858C186.758 293.51 187.493 294.164 187.493 294.939Z" fill="#D1D3D4"/>
<path d="M71.0408 269.296C79.7772 269.296 86.8594 262.221 86.8594 253.493C86.8594 244.766 79.7772 237.691 71.0408 237.691C62.3044 237.691 55.2222 244.766 55.2222 253.493C55.2222 262.221 62.3044 269.296 71.0408 269.296Z" fill="white"/>
<path d="M70.9184 302.493C77.2844 302.493 82.4451 297.338 82.4451 290.978C82.4451 284.619 77.2844 279.463 70.9184 279.463C64.5523 279.463 59.3916 284.619 59.3916 290.978C59.3916 297.338 64.5523 302.493 70.9184 302.493Z" fill="white"/>
<path d="M561.051 178.973C561.051 181.218 559.211 183.056 556.963 183.056H416.598C414.35 183.056 412.511 181.218 412.511 178.973V87.4652C412.511 85.2193 414.35 83.3818 416.598 83.3818H556.963C559.211 83.3818 561.051 85.2193 561.051 87.4652V178.973Z" fill="#E1F4FD"/>
<path d="M561.173 92.3243C561.173 94.5702 559.333 96.4077 557.085 96.4077H416.516C414.268 96.4077 412.429 94.5702 412.429 92.3243V87.4652C412.429 85.2193 414.268 83.3818 416.516 83.3818H557.085C559.333 83.3818 561.173 85.2193 561.173 87.4652V92.3243Z" fill="#7C7D80"/>
<path d="M553.407 122.541C553.407 124.787 551.567 126.625 549.319 126.625H461.233C458.985 126.625 457.146 124.787 457.146 122.541V111.68C457.146 109.434 458.985 107.596 461.233 107.596H549.319C551.567 107.596 553.407 109.434 553.407 111.68V122.541Z" fill="url(#paint6_linear)"/>
<path d="M547.643 136.465C547.643 137.119 547.112 137.69 546.417 137.69H460.13C459.435 137.69 458.904 137.119 458.904 136.465V136.139C458.904 135.444 459.435 134.914 460.13 134.914H546.417C547.112 134.914 547.643 135.444 547.643 136.139V136.465Z" fill="#D1D3D4"/>
<path d="M547.357 143.693C547.357 144.346 546.785 144.918 546.131 144.918H459.844C459.149 144.918 458.618 144.346 458.618 143.693V143.366C458.618 142.713 459.149 142.141 459.844 142.141H546.131C546.785 142.141 547.357 142.713 547.357 143.366V143.693Z" fill="#D1D3D4"/>
<path d="M547.643 151.41C547.643 152.063 547.112 152.635 546.417 152.635H460.13C459.435 152.635 458.904 152.063 458.904 151.41V151.083C458.904 150.43 459.435 149.858 460.13 149.858H546.417C547.112 149.858 547.643 150.43 547.643 151.083V151.41Z" fill="#D1D3D4"/>
<path d="M539.55 158.515C539.55 159.168 539.019 159.74 538.324 159.74H460.13C459.435 159.74 458.904 159.168 458.904 158.515V158.188C458.904 157.535 459.435 156.963 460.13 156.963H538.324C539.019 156.963 539.55 157.535 539.55 158.188V158.515Z" fill="#D1D3D4"/>
<path d="M539.877 166.314C539.877 166.968 539.345 167.539 538.651 167.539H460.457C459.803 167.539 459.23 166.968 459.23 166.314V165.988C459.23 165.334 459.803 164.763 460.457 164.763H538.651C539.345 164.763 539.877 165.334 539.877 165.988V166.314Z" fill="#D1D3D4"/>
<path d="M436.218 133.852C444.954 133.852 452.037 126.777 452.037 118.049C452.037 109.322 444.954 102.247 436.218 102.247C427.482 102.247 420.399 109.322 420.399 118.049C420.399 126.777 427.482 133.852 436.218 133.852Z" fill="white"/>
<path d="M604.337 285.098C604.337 287.344 602.498 289.182 600.25 289.182H459.762C457.514 289.182 455.675 287.344 455.675 285.098V193.55C455.675 191.304 457.514 189.467 459.762 189.467H600.25C602.498 189.467 604.337 191.304 604.337 193.55V285.098Z" fill="#E1F4FD"/>
<path d="M604.419 198.409C604.419 200.655 602.58 202.493 600.331 202.493H459.762C457.514 202.493 455.675 200.655 455.675 198.409V193.55C455.675 191.304 457.514 189.467 459.762 189.467H600.331C602.58 189.467 604.419 191.304 604.419 193.55V198.409Z" fill="#7C7D80"/>
<path d="M549.319 229.688C549.319 231.934 547.48 233.771 545.232 233.771H504.234C501.986 233.771 500.146 231.934 500.146 229.688V218.214C500.146 215.968 501.986 214.13 504.234 214.13H545.232C547.48 214.13 549.319 215.968 549.319 218.214V229.688Z" fill="url(#paint7_linear)"/>
<path d="M597.878 220.215C597.878 220.868 597.347 221.44 596.652 221.44H554.142C553.488 221.44 552.916 220.868 552.916 220.215V219.847C552.916 219.194 553.488 218.622 554.142 218.622H596.652C597.347 218.622 597.878 219.194 597.878 219.847V220.215Z" fill="#C7C8CA"/>
<path d="M598.083 227.728C598.083 228.422 597.551 228.953 596.856 228.953H554.346C553.692 228.953 553.12 228.422 553.12 227.728V227.36C553.12 226.666 553.692 226.135 554.346 226.135H596.856C597.551 226.135 598.083 226.666 598.083 227.36V227.728Z" fill="#D1D3D4"/>
<path d="M547.071 219.969C547.071 220.745 546.335 221.398 545.436 221.398H503.743C502.844 221.398 502.108 220.745 502.108 219.969C502.108 219.193 502.844 218.54 503.743 218.54H545.436C546.335 218.581 547.071 219.193 547.071 219.969Z" fill="white"/>
<path d="M547.071 226.666C547.071 227.442 546.335 228.095 545.436 228.095H503.743C502.844 228.095 502.108 227.442 502.108 226.666C502.108 225.89 502.844 225.237 503.743 225.237H545.436C546.335 225.237 547.071 225.89 547.071 226.666Z" fill="white"/>
<path d="M588.396 247.899C588.396 248.593 587.864 249.124 587.17 249.124H463.809C463.114 249.124 462.583 248.593 462.583 247.899V247.532C462.583 246.837 463.114 246.307 463.809 246.307H587.17C587.864 246.307 588.396 246.837 588.396 247.532V247.899Z" fill="#D1D3D4"/>
<path d="M588.232 255.657C588.232 256.311 587.66 256.882 587.006 256.882H463.645C462.95 256.882 462.419 256.311 462.419 255.657V255.29C462.419 254.637 462.95 254.065 463.645 254.065H587.006C587.66 254.065 588.232 254.637 588.232 255.29V255.657Z" fill="#D1D3D4"/>
<path d="M588.232 263.294C588.232 263.988 587.66 264.519 587.006 264.519H463.645C462.95 264.519 462.419 263.988 462.419 263.294V262.926C462.419 262.273 462.95 261.701 463.645 261.701H587.006C587.66 261.701 588.232 262.273 588.232 262.926V263.294Z" fill="#D1D3D4"/>
<path d="M588.069 271.542C588.069 272.236 587.537 272.767 586.842 272.767H463.482C462.787 272.767 462.255 272.236 462.255 271.542V271.174C462.255 270.48 462.787 269.949 463.482 269.949H586.842C587.537 269.949 588.069 270.48 588.069 271.174V271.542Z" fill="#D1D3D4"/>
<path d="M479.464 239.978C488.2 239.978 495.283 232.903 495.283 224.175C495.283 215.448 488.2 208.373 479.464 208.373C470.728 208.373 463.646 215.448 463.646 224.175C463.646 232.903 470.728 239.978 479.464 239.978Z" fill="white"/>
<path d="M355.939 358.598C355.939 360.844 354.1 362.681 351.852 362.681H211.528C209.28 362.681 207.44 360.844 207.44 358.598V267.091C207.44 264.845 209.28 263.007 211.528 263.007H351.852C354.1 263.007 355.939 264.845 355.939 267.091V358.598Z" fill="#E1F4FD"/>
<path d="M356.184 271.95C356.184 274.196 354.345 276.033 352.097 276.033H211.528C209.28 276.033 207.44 274.196 207.44 271.95V267.091C207.44 264.845 209.28 263.007 211.528 263.007H352.097C354.345 263.007 356.184 264.845 356.184 267.091V271.95Z" fill="#7C7D80"/>
<path d="M348.582 303.188C348.582 305.434 346.743 307.271 344.495 307.271H305.623C303.375 307.271 301.535 305.434 301.535 303.188V291.714C301.535 289.468 303.375 287.63 305.623 287.63H344.495C346.743 287.63 348.582 289.468 348.582 291.714V303.188Z" fill="url(#paint8_linear)"/>
<path d="M298.142 303.351C298.142 305.597 296.303 307.434 294.055 307.434H255.183C252.935 307.434 251.095 305.597 251.095 303.351V291.877C251.095 289.631 252.935 287.793 255.183 287.793H294.055C296.303 287.793 298.142 289.631 298.142 291.877V303.351Z" fill="url(#paint9_linear)"/>
<path d="M348.051 317.806C348.051 318.5 347.519 319.031 346.825 319.031H243.697C243.043 319.031 242.471 318.5 242.471 317.806V317.438C242.471 316.744 243.043 316.213 243.697 316.213H346.825C347.519 316.213 348.051 316.744 348.051 317.438V317.806Z" fill="#D1D3D4"/>
<path d="M347.928 324.911C347.928 325.605 347.356 326.136 346.702 326.136H243.574C242.88 326.136 242.348 325.605 242.348 324.911V324.543C242.348 323.849 242.88 323.318 243.574 323.318H346.702C347.356 323.318 347.928 323.849 347.928 324.543V324.911Z" fill="#D1D3D4"/>
<path d="M347.683 339.325C347.683 339.979 347.151 340.55 346.456 340.55H243.329C242.675 340.55 242.103 339.979 242.103 339.325V338.917C242.103 338.264 242.675 337.692 243.329 337.692H346.456C347.151 337.692 347.683 338.264 347.683 338.917V339.325Z" fill="#D1D3D4"/>
<path d="M348.051 347.287C348.051 347.941 347.479 348.512 346.825 348.512H243.697C243.002 348.512 242.471 347.941 242.471 347.287V346.92C242.471 346.266 243.002 345.695 243.697 345.695H346.825C347.479 345.695 348.051 346.266 348.051 346.92V347.287Z" fill="#D1D3D4"/>
<path d="M231.23 313.478C239.966 313.478 247.048 306.403 247.048 297.675C247.048 288.948 239.966 281.873 231.23 281.873C222.493 281.873 215.411 288.948 215.411 297.675C215.411 306.403 222.493 313.478 231.23 313.478Z" fill="white"/>
<path d="M548.706 113.884C548.706 114.66 547.97 115.313 547.071 115.313H464.299C463.4 115.313 462.664 114.66 462.664 113.884C462.664 113.108 463.4 112.455 464.299 112.455H547.071C547.97 112.496 548.706 113.108 548.706 113.884Z" fill="white"/>
<path d="M548.706 120.213C548.706 120.989 547.97 121.643 547.071 121.643H464.299C463.4 121.643 462.664 120.989 462.664 120.213C462.664 119.438 463.4 118.784 464.299 118.784H547.071C547.97 118.825 548.706 119.438 548.706 120.213Z" fill="white"/>
<path d="M184.183 245.939C184.183 246.715 183.447 247.369 182.548 247.369H98.427C97.5277 247.369 96.792 246.715 96.792 245.939C96.792 245.164 97.5277 244.51 98.427 244.51H182.507C183.447 244.51 184.183 245.164 184.183 245.939Z" fill="white"/>
<path d="M184.183 259.619C184.183 260.394 183.447 261.048 182.548 261.048H98.427C97.5277 261.048 96.792 260.394 96.792 259.619C96.792 258.843 97.5277 258.189 98.427 258.189H182.507C183.447 258.23 184.183 258.843 184.183 259.619Z" fill="white"/>
<path d="M184.183 252.963C184.183 253.739 183.447 254.392 182.548 254.392H98.427C97.5277 254.392 96.792 253.739 96.792 252.963C96.792 252.187 97.5277 251.534 98.427 251.534H182.507C183.447 251.534 184.183 252.146 184.183 252.963Z" fill="white"/>
<path d="M274.272 305.066C278.403 305.066 281.752 301.721 281.752 297.594C281.752 293.467 278.403 290.121 274.272 290.121C270.14 290.121 266.792 293.467 266.792 297.594C266.792 301.721 270.14 305.066 274.272 305.066Z" fill="white"/>
<path d="M324.752 304.903C328.883 304.903 332.232 301.557 332.232 297.43C332.232 293.303 328.883 289.958 324.752 289.958C320.621 289.958 317.272 293.303 317.272 297.43C317.272 301.557 320.621 304.903 324.752 304.903Z" fill="white"/>
<path d="M250.318 116.988H101.574V123.072H250.318V116.988Z" fill="#7C7D80"/>
<path d="M404.867 71.7441H256.531V77.8283H404.867V71.7441Z" fill="#7C7D80"/>
<path d="M561.173 90.7314H412.429V96.8156H561.173V90.7314Z" fill="#7C7D80"/>
<path d="M604.419 196.653H455.675V202.737H604.419V196.653Z" fill="#7C7D80"/>
<path d="M356.184 270.807H207.44V276.891H356.184V270.807Z" fill="#7C7D80"/>
<path d="M196.037 225.931H48.0283V232.015H196.037V225.931Z" fill="#7C7D80"/>
<path d="M111.466 118.213C112.595 118.213 113.51 117.299 113.51 116.171C113.51 115.043 112.595 114.129 111.466 114.129C110.337 114.129 109.422 115.043 109.422 116.171C109.422 117.299 110.337 118.213 111.466 118.213Z" fill="white"/>
<path d="M118.21 118.131C119.339 118.131 120.254 117.217 120.254 116.09C120.254 114.962 119.339 114.048 118.21 114.048C117.082 114.048 116.167 114.962 116.167 116.09C116.167 117.217 117.082 118.131 118.21 118.131Z" fill="white"/>
<path d="M124.873 118.131C126.002 118.131 126.917 117.217 126.917 116.09C126.917 114.962 126.002 114.048 124.873 114.048C123.745 114.048 122.83 114.962 122.83 116.09C122.83 117.217 123.745 118.131 124.873 118.131Z" fill="white"/>
<path d="M264.339 72.3572C265.467 72.3572 266.382 71.4432 266.382 70.3156C266.382 69.188 265.467 68.2739 264.339 68.2739C263.21 68.2739 262.295 69.188 262.295 70.3156C262.295 71.4432 263.21 72.3572 264.339 72.3572Z" fill="white"/>
<path d="M271.042 72.3158C272.171 72.3158 273.086 71.4017 273.086 70.2741C273.086 69.1465 272.171 68.2324 271.042 68.2324C269.914 68.2324 268.999 69.1465 268.999 70.2741C268.999 71.4017 269.914 72.3158 271.042 72.3158Z" fill="white"/>
<path d="M277.746 72.3158C278.875 72.3158 279.79 71.4017 279.79 70.2741C279.79 69.1465 278.875 68.2324 277.746 68.2324C276.617 68.2324 275.702 69.1465 275.702 70.2741C275.702 71.4017 276.617 72.3158 277.746 72.3158Z" fill="white"/>
<path d="M422.28 91.9573C423.408 91.9573 424.323 91.0433 424.323 89.9157C424.323 88.7881 423.408 87.874 422.28 87.874C421.151 87.874 420.236 88.7881 420.236 89.9157C420.236 91.0433 421.151 91.9573 422.28 91.9573Z" fill="white"/>
<path d="M429.024 91.9158C430.153 91.9158 431.068 91.0018 431.068 89.8742C431.068 88.7466 430.153 87.8325 429.024 87.8325C427.895 87.8325 426.98 88.7466 426.98 89.8742C426.98 91.0018 427.895 91.9158 429.024 91.9158Z" fill="white"/>
<path d="M435.687 91.9158C436.816 91.9158 437.731 91.0018 437.731 89.8742C437.731 88.7466 436.816 87.8325 435.687 87.8325C434.558 87.8325 433.643 88.7466 433.643 89.8742C433.643 91.0018 434.558 91.9158 435.687 91.9158Z" fill="white"/>
<path d="M465.444 198.206C466.572 198.206 467.487 197.292 467.487 196.164C467.487 195.037 466.572 194.123 465.444 194.123C464.315 194.123 463.4 195.037 463.4 196.164C463.4 197.292 464.315 198.206 465.444 198.206Z" fill="white"/>
<path d="M472.147 198.164C473.276 198.164 474.191 197.25 474.191 196.123C474.191 194.995 473.276 194.081 472.147 194.081C471.019 194.081 470.104 194.995 470.104 196.123C470.104 197.25 471.019 198.164 472.147 198.164Z" fill="white"/>
<path d="M478.85 198.164C479.979 198.164 480.894 197.25 480.894 196.123C480.894 194.995 479.979 194.081 478.85 194.081C477.722 194.081 476.807 194.995 476.807 196.123C476.807 197.25 477.722 198.164 478.85 198.164Z" fill="white"/>
<path d="M216.311 272.033C217.44 272.033 218.355 271.118 218.355 269.991C218.355 268.863 217.44 267.949 216.311 267.949C215.182 267.949 214.267 268.863 214.267 269.991C214.267 271.118 215.182 272.033 216.311 272.033Z" fill="white"/>
<path d="M223.055 271.991C224.184 271.991 225.099 271.077 225.099 269.949C225.099 268.822 224.184 267.908 223.055 267.908C221.926 267.908 221.011 268.822 221.011 269.949C221.011 271.077 221.926 271.991 223.055 271.991Z" fill="white"/>
<path d="M229.718 271.991C230.847 271.991 231.762 271.077 231.762 269.949C231.762 268.822 230.847 267.908 229.718 267.908C228.589 267.908 227.674 268.822 227.674 269.949C227.674 271.077 228.589 271.991 229.718 271.991Z" fill="white"/>
<path d="M56.5301 227.728C57.6588 227.728 58.5738 226.814 58.5738 225.687C58.5738 224.559 57.6588 223.645 56.5301 223.645C55.4013 223.645 54.4863 224.559 54.4863 225.687C54.4863 226.814 55.4013 227.728 56.5301 227.728Z" fill="white"/>
<path d="M63.2742 227.687C64.403 227.687 65.318 226.773 65.318 225.645C65.318 224.518 64.403 223.604 63.2742 223.604C62.1455 223.604 61.2305 224.518 61.2305 225.645C61.2305 226.773 62.1455 227.687 63.2742 227.687Z" fill="white"/>
<path d="M69.9373 227.687C71.066 227.687 71.981 226.773 71.981 225.645C71.981 224.518 71.066 223.604 69.9373 223.604C68.8086 223.604 67.8936 224.518 67.8936 225.645C67.8936 226.773 68.8086 227.687 69.9373 227.687Z" fill="white"/>
<path d="M81.8317 248.185C81.5865 247.246 80.8507 246.511 79.9106 246.225C78.1938 245.776 71.3677 245.776 71.3677 245.776C71.3677 245.776 64.5416 245.776 62.8249 246.225C61.8847 246.47 61.149 247.205 60.9037 248.185C60.4541 249.9 60.4541 253.453 60.4541 253.453C60.4541 253.453 60.4541 257.046 60.9037 258.72C61.149 259.659 61.8847 260.394 62.8249 260.68C64.5416 261.129 71.3677 261.129 71.3677 261.129C71.3677 261.129 78.1938 261.129 79.9106 260.68C80.8507 260.435 81.5865 259.7 81.8317 258.72C82.2813 257.005 82.2813 253.453 82.2813 253.453C82.2813 253.453 82.2813 249.9 81.8317 248.185Z" fill="url(#paint10_linear)"/>
<path d="M69.1196 256.719V250.227L74.8421 253.452L69.1196 256.719Z" fill="white"/>
<path d="M425.468 125.644C427.512 126.951 429.923 127.686 432.498 127.686C441 127.686 445.823 120.499 445.537 114.047C446.437 113.394 447.213 112.577 447.826 111.679C447.009 112.046 446.11 112.291 445.21 112.414C446.15 111.842 446.886 110.944 447.213 109.882C446.314 110.413 445.333 110.781 444.311 110.985C443.494 110.086 442.267 109.556 440.959 109.556C438.016 109.556 435.809 112.332 436.504 115.191C432.703 114.986 429.31 113.19 427.062 110.413C425.877 112.455 426.449 115.15 428.493 116.538C427.757 116.497 427.021 116.293 426.408 115.966C426.367 118.09 427.879 120.091 430.087 120.499C429.433 120.662 428.738 120.703 428.002 120.581C428.574 122.418 430.291 123.725 432.294 123.766C430.332 125.236 427.92 125.93 425.468 125.644Z" fill="url(#paint11_linear)"/>
<path d="M122.012 155.412H126.222V144.917H129.165L129.492 141.406H126.263C126.263 141.406 126.263 140.099 126.263 139.405C126.263 138.588 126.426 138.262 127.244 138.262C127.898 138.262 129.533 138.262 129.533 138.262V134.627C129.533 134.627 127.121 134.627 126.631 134.627C123.524 134.627 122.094 136.016 122.094 138.629C122.094 140.916 122.094 141.447 122.094 141.447H119.927V144.999H122.094V155.412H122.012Z" fill="url(#paint12_linear)"/>
<path d="M280.607 89.425C283.468 89.425 283.836 89.425 284.94 89.5067C286.002 89.5475 286.575 89.7109 286.943 89.8742C287.433 90.0784 287.801 90.2825 288.169 90.6909C288.537 91.0584 288.782 91.4259 288.986 91.9159C289.15 92.2834 289.313 92.855 289.354 93.9167C289.395 95.06 289.436 95.3867 289.436 98.245C289.436 101.103 289.436 101.471 289.354 102.573C289.313 103.635 289.15 104.207 288.986 104.574C288.782 105.064 288.578 105.432 288.169 105.799C287.801 106.167 287.433 106.412 286.943 106.616C286.575 106.779 286.002 106.943 284.94 106.983C283.795 107.024 283.468 107.065 280.607 107.065C277.746 107.065 277.378 107.065 276.274 106.983C275.211 106.943 274.639 106.779 274.271 106.616C273.781 106.412 273.413 106.208 273.045 105.799C272.677 105.432 272.432 105.064 272.228 104.574C272.064 104.207 271.901 103.635 271.86 102.573C271.819 101.43 271.778 101.103 271.778 98.245C271.778 95.3867 271.778 95.0192 271.86 93.9167C271.901 92.855 272.064 92.2834 272.228 91.9159C272.432 91.4259 272.636 91.0584 273.045 90.6909C273.413 90.3234 273.781 90.0784 274.271 89.8742C274.639 89.7109 275.211 89.5475 276.274 89.5067C277.378 89.425 277.746 89.425 280.607 89.425ZM280.607 87.5059C277.664 87.5059 277.337 87.5059 276.152 87.5875C275.007 87.6284 274.23 87.8325 273.536 88.0775C272.841 88.3634 272.228 88.7309 271.614 89.3025C271.001 89.915 270.633 90.4867 270.388 91.2217C270.102 91.9159 269.939 92.6917 269.898 93.835C269.857 94.9784 269.816 95.3459 269.816 98.2859C269.816 101.226 269.816 101.553 269.898 102.737C269.939 103.88 270.143 104.656 270.388 105.35C270.674 106.044 271.042 106.657 271.614 107.269C272.228 107.882 272.8 108.249 273.536 108.494C274.23 108.78 275.007 108.943 276.152 108.984C277.296 109.025 277.664 109.066 280.607 109.066C283.55 109.066 283.877 109.066 285.062 108.984C286.207 108.943 286.983 108.739 287.678 108.494C288.373 108.208 288.986 107.841 289.599 107.269C290.213 106.657 290.58 106.085 290.826 105.35C291.112 104.656 291.275 103.88 291.316 102.737C291.357 101.593 291.398 101.226 291.398 98.2859C291.398 95.3459 291.398 95.0192 291.316 93.835C291.275 92.6917 291.071 91.9159 290.826 91.2217C290.54 90.5275 290.172 89.915 289.599 89.3025C288.986 88.69 288.414 88.3225 287.678 88.0775C286.983 87.7917 286.207 87.6284 285.062 87.5875C283.918 87.5059 283.55 87.5059 280.607 87.5059Z" fill="url(#paint13_linear)"/>
<path d="M280.607 92.7324C277.541 92.7324 275.089 95.2233 275.089 98.2449C275.089 101.307 277.582 103.757 280.607 103.757C283.673 103.757 286.125 101.267 286.125 98.2449C286.125 95.1824 283.673 92.7324 280.607 92.7324ZM280.607 101.838C278.645 101.838 277.01 100.246 277.01 98.2449C277.01 96.2849 278.604 94.6516 280.607 94.6516C282.569 94.6516 284.204 96.2441 284.204 98.2449C284.204 100.246 282.61 101.838 280.607 101.838Z" fill="url(#paint14_linear)"/>
<path d="M287.638 92.4873C287.638 93.1815 287.065 93.794 286.329 93.794C285.635 93.794 285.021 93.2223 285.021 92.4873C285.021 91.7523 285.594 91.1807 286.329 91.1807C287.065 91.2215 287.638 91.7932 287.638 92.4873Z" fill="url(#paint15_linear)"/>
<path d="M226.938 294.041H223.504V305.106H226.938V294.041Z" fill="url(#paint16_linear)"/>
<path d="M225.221 292.571C226.325 292.571 227.265 291.672 227.265 290.529C227.265 289.386 226.365 288.487 225.221 288.487C224.117 288.487 223.177 289.386 223.177 290.529C223.177 291.672 224.076 292.571 225.221 292.571Z" fill="url(#paint17_linear)"/>
<path d="M232.415 299.267C232.415 297.716 233.151 296.777 234.5 296.777C235.767 296.777 236.38 297.675 236.38 299.267C236.38 300.86 236.38 305.066 236.38 305.066H239.813C239.813 305.066 239.813 301.023 239.813 298.042C239.813 295.062 238.137 293.632 235.767 293.632C233.396 293.632 232.415 295.47 232.415 295.47V293.959H229.104V305.025H232.415C232.415 305.107 232.415 300.982 232.415 299.267Z" fill="url(#paint18_linear)"/>
<path d="M489.56 223.399H479.546V226.257H486.29C485.472 229.728 483.02 231.892 479.709 231.892C475.376 231.892 471.861 228.381 471.861 224.052C471.861 219.724 475.376 216.212 479.709 216.212C481.753 216.212 483.633 216.988 485.064 218.295L487.271 216.376C485.309 214.457 482.652 213.272 479.709 213.272C473.782 213.272 468.959 218.091 468.959 224.012C468.959 229.932 473.782 234.751 479.709 234.751C485.432 234.751 489.56 230.382 489.56 224.461V223.399Z" fill="url(#paint19_linear)"/>
<path d="M422.852 247.532C422.852 247.532 428.82 260.803 431.885 263.416C433.153 264.437 434.583 265.253 436.055 265.825C436.913 266.193 437.812 266.193 438.63 265.866C439.447 265.539 440.142 264.886 440.551 264.028C440.551 264.028 440.551 263.988 440.592 263.988C440.796 263.538 440.919 263.048 440.96 262.518C441.164 259.21 441.041 254.841 439.366 251.615C439.243 251.37 439.12 251.125 438.998 250.921C438.058 249.124 437.281 247.491 436.586 246.103C435.237 243.203 434.461 241.366 434.461 241.366L426.531 239.978L426.122 240.794L422.852 247.532Z" fill="#E6E7E8"/>
<path d="M416.803 418.623L415.413 427.321L444.557 419.767C444.557 419.767 429.76 416.786 427.962 415.724C426.163 414.663 420.4 414.826 420.4 414.826L416.803 418.623Z" fill="#E6E7E8"/>
<path d="M388.067 414.581L386.678 424.463L417.988 416.745C417.988 416.745 403.804 414.54 401.352 412.825C398.858 411.11 389.662 411.682 389.662 411.682L388.067 414.581Z" fill="#E6E7E8"/>
<path d="M413.369 346.716L415.495 390.979L416.884 420.175H424.691L429.269 347.982L424.364 347.573L413.369 346.716Z" fill="#E6E7E8"/>
<path d="M403.518 346.144L397.264 414.213H388.721L387.291 342.551L403.518 346.144Z" fill="#E6E7E8"/>
<path d="M387.332 342.592L387.699 342.633L400.493 345.45C398.613 348.268 393.299 357.047 392.931 367.255C392.482 379.464 389.498 397.472 389.375 398.125L387.781 365.377L387.332 342.592Z" fill="#D1D3D4"/>
<path d="M383.162 307.353C383.162 307.353 381.078 311.109 382.999 321.073C384.47 328.749 379.197 346.716 379.197 346.716L405.276 346.063L422.075 340.673L420.645 322.094L404.703 303.882L383.162 307.353Z" fill="url(#paint20_linear)"/>
<path d="M413.369 346.716L415.495 390.979C415.576 390.448 417.988 376.116 418.315 366.398C418.683 356.475 424.896 348.268 424.896 348.268L424.405 347.573L413.369 346.716Z" fill="#D1D3D4"/>
<path d="M434.338 299.145L437.281 346.961L404.622 349.615C404.622 349.615 405.93 336.794 404.744 329.566C401.556 310.13 405.562 304.576 405.562 304.576L410.181 296.165L434.338 299.145Z" fill="url(#paint21_linear)"/>
<path d="M395.547 227.115C395.547 227.115 396.283 227.973 397.182 229.035C398.695 230.831 400.738 233.2 400.861 233.404C401.106 233.73 406.543 234.261 406.543 234.261C406.543 234.261 409.731 231.975 409.935 231.77C410.181 231.566 412.633 225.605 412.633 225.605C412.715 224.87 412.592 224.135 412.347 223.44C411.938 221.644 411.529 217.234 411.529 217.234L412.674 216.131L408.995 211.966C408.995 211.966 405.071 212.865 401.679 214.049C398.94 214.988 396.569 216.131 396.733 217.07C397.182 219.275 395.547 227.115 395.547 227.115Z" fill="#D1D3D4"/>
<path d="M417.252 194.04C415.413 198.491 412.96 202.697 410.017 206.494C409.935 203.064 409.813 199.226 409.813 199.226L403.109 188.813C403.109 188.813 398.368 185.547 396.201 185.261C395.588 185.179 394.852 185.098 394.117 184.975L410.753 185.465L417.252 194.04Z" fill="#F6DADF"/>
<path d="M410.017 206.494C408.137 208.944 406.093 211.231 403.845 213.354C402.129 214.988 400.371 216.499 398.491 217.928C393.34 221.725 391.746 220.623 390.602 219.969C388.517 218.785 387.741 212.619 388.64 201.921C388.885 199.226 389.376 196.531 390.111 193.918C390.929 190.774 392.278 187.752 394.035 185.016H394.117C394.894 185.098 395.629 185.22 396.202 185.302C398.368 185.588 403.11 188.854 403.11 188.854L409.813 199.267C409.813 199.226 409.936 203.064 410.017 206.494Z" fill="#E6E7E8"/>
<path d="M385.165 258.965C385.492 262.477 385.533 266.029 385.247 269.582H385.206C384.552 269.296 373.72 264.845 368.815 259.741C366.404 257.25 363.624 254.024 361.213 251.289C358.515 248.226 356.226 245.735 355.367 245.531C353.773 245.164 348.868 245.041 349.032 242.714C349.195 240.386 347.642 237.038 348.705 235.772C349.768 234.506 350.994 233.975 350.667 232.954C350.34 231.934 344.454 226.911 344.29 226.339C344.209 226.094 344.209 225.849 344.29 225.604C344.372 225.359 344.495 225.155 344.699 224.992C344.903 224.829 345.149 224.747 345.394 224.706C345.639 224.706 345.884 224.747 346.13 224.869C346.375 224.992 346.579 225.155 346.784 225.359C347.928 226.503 352.629 231.035 353.814 231.566C355 232.097 356.921 232.179 358.964 234.588C361.008 236.997 360.967 239.733 361.948 240.59C361.948 240.59 361.989 240.59 361.989 240.631C363.665 242.183 365.504 243.571 367.507 244.714C371.554 247.083 378.176 250.962 381.65 253.167C382.549 253.739 383.244 254.188 383.612 254.514C384.43 255.168 384.92 256.883 385.165 258.965Z" fill="#E6E7E8"/>
<path d="M380.751 243.816C380.751 243.816 376.418 253.085 376.622 256.597C376.867 258.761 377.685 260.639 378.911 261.946C380.137 263.253 381.732 263.824 383.367 263.661L387.291 263.212L390.724 244.428L385.737 238.875L380.751 243.816Z" fill="#E6E7E8"/>
<path d="M393.463 228.381C389.784 229.647 386.719 231.729 384.879 234.22C381.364 238.793 375.764 249.288 375.764 249.288C375.764 249.288 382.549 250.268 387.25 248.757L391.951 247.246L393.463 228.381Z" fill="url(#paint22_linear)"/>
<path d="M410.017 206.494C408.137 208.944 406.093 211.231 403.845 213.354C402.129 214.988 400.371 216.498 398.491 217.928C398.409 217.764 396.324 211.558 397.019 208.781C397.714 205.963 395.221 207.923 393.013 208.903C390.806 209.883 394.076 200.124 392.727 200.165C391.419 200.247 390.724 196.735 390.847 195.633C390.888 195.306 390.806 194.979 390.684 194.653C390.561 194.367 390.357 194.081 390.111 193.877C390.929 190.733 392.278 187.711 394.035 184.975H394.117C394.894 185.057 395.629 185.179 396.202 185.261C398.368 185.547 403.11 188.813 403.11 188.813L409.813 199.226C409.813 199.226 409.936 203.064 410.017 206.494Z" fill="#D1D3D4"/>
<path d="M395.547 227.115C395.547 227.115 396.283 227.973 397.182 229.034L399.104 228.013C399.267 225.89 399.553 223.808 400.044 221.725C400.616 219.928 404.295 219.602 404.295 219.602L405.276 215.437L401.679 214.048C398.94 214.988 396.569 216.131 396.733 217.07C397.182 219.275 395.547 227.115 395.547 227.115Z" fill="#E6E7E8"/>
<path d="M427.512 311.028C427.512 311.028 415.127 315.846 418.11 325.319C421.053 334.752 427.185 343.123 420.113 338.304C413.042 333.486 403.927 317.683 408.178 311.068C412.429 304.413 427.512 311.028 427.512 311.028Z" fill="url(#paint23_linear)"/>
<path d="M380.301 308.823C380.301 308.823 391.378 314.866 409.077 312.539C424.283 310.538 441.736 300.86 441.736 300.86C441.736 300.86 441.655 298.982 436.79 279.464C436.3 277.544 435.85 275.707 435.36 273.951C433.112 265.458 430.945 258.394 428.861 252.554C418.519 223.318 410.917 224.339 410.917 224.339L409.404 224.257C403.314 223.808 397.305 225.645 392.523 229.402C391.419 230.178 390.479 231.199 389.784 232.342C385.86 239.814 380.301 308.823 380.301 308.823Z" fill="#F2F2F2"/>
<path d="M390.643 174.644C390.561 174.522 390.438 174.44 390.275 174.359C390.111 174.318 389.989 174.277 389.825 174.318C389.662 174.359 389.539 174.399 389.416 174.481C389.294 174.563 389.212 174.685 389.13 174.849C388.231 177.217 387.086 181.709 388.108 185.506C389.457 190.569 391.542 190.692 391.869 193.428C392.237 196.164 392.237 197.307 394.28 197.429C396.324 197.511 396.856 196.245 396.488 198.45C396.242 200.288 395.793 202.125 395.221 203.922C394.689 205.351 392.605 207.311 394.444 206.331C396.283 205.31 398.531 199.839 400.289 200.696C402.047 201.554 404.09 205.678 401.761 206.535C399.39 207.393 398.123 209.72 398.531 211.354C398.94 213.028 399.472 216.866 401.107 218.132C402.742 219.439 409.159 220.378 411.938 219.561C415.699 218.459 419.582 214.498 420.972 211.272C422.198 208.454 424.528 196.286 422.28 189.181C419.991 182.076 413.86 176.155 409.241 175.706C405.889 175.379 396.978 180.565 394.199 178.279C392.891 177.135 391.705 175.951 390.643 174.644Z" fill="#010101"/>
<path d="M414.677 263.212C412.02 273.093 433.725 271.378 433.725 271.378C431.477 262.885 430.046 258.638 428.002 252.799C425.427 249.369 420.481 241.733 420.481 241.733L410.385 238.467C410.385 238.508 417.252 253.534 414.677 263.212Z" fill="#F2F2F2"/>
<path d="M414.595 225.972C418.478 226.013 422.034 227.033 424.569 228.83C429.351 232.097 437.935 240.304 437.935 240.304C437.935 240.304 431.804 243.326 426.858 243.367L421.912 243.408L414.595 225.972Z" fill="url(#paint24_linear)"/>
</g>
<defs>
<filter id="filter0_d" x="-12" y="-8" width="678" height="465" filterUnits="userSpaceOnUse" color-interpolation-filters="sRGB">
<feFlood flood-opacity="0" result="BackgroundImageFix"/>
<feColorMatrix in="SourceAlpha" type="matrix" values="0 0 0 0 0 0 0 0 0 0 0 0 0 0 0 0 0 0 127 0" result="hardAlpha"/>
<feOffset dy="4"/>
<feGaussianBlur stdDeviation="6"/>
<feColorMatrix type="matrix" values="0 0 0 0 0 0 0 0 0 0 0 0 0 0 0 0 0 0 0.3 0"/>
<feBlend mode="normal" in2="BackgroundImageFix" result="effect1_dropShadow"/>
<feBlend mode="normal" in="SourceGraphic" in2="effect1_dropShadow" result="shape"/>
</filter>
<linearGradient id="paint0_linear" x1="327.499" y1="230.196" x2="363.323" y2="230.196" gradientUnits="userSpaceOnUse">
<stop stop-color="#7DD3F7"/>
<stop offset="1" stop-color="#43B5E8"/>
</linearGradient>
<linearGradient id="paint1_linear" x1="145.119" y1="144.122" x2="242.686" y2="144.122" gradientUnits="userSpaceOnUse">
<stop stop-color="#7DD3F7"/>
<stop offset="1" stop-color="#43B5E8"/>
</linearGradient>
<linearGradient id="paint2_linear" x1="306.681" y1="136.185" x2="348.754" y2="136.185" gradientUnits="userSpaceOnUse">
<stop stop-color="#7DD3F7"/>
<stop offset="1" stop-color="#43B5E8"/>
</linearGradient>
<linearGradient id="paint3_linear" x1="354.884" y1="136.185" x2="396.958" y2="136.185" gradientUnits="userSpaceOnUse">
<stop stop-color="#7DD3F7"/>
<stop offset="1" stop-color="#43B5E8"/>
</linearGradient>
<linearGradient id="paint4_linear" x1="91.7219" y1="253.572" x2="188.394" y2="253.572" gradientUnits="userSpaceOnUse">
<stop stop-color="#7DD3F7"/>
<stop offset="1" stop-color="#43B5E8"/>
</linearGradient>
<linearGradient id="paint5_linear" x1="55.5739" y1="290.747" x2="86.5822" y2="290.747" gradientUnits="userSpaceOnUse">
<stop stop-color="#7DD3F7"/>
<stop offset="1" stop-color="#43B5E8"/>
</linearGradient>
<linearGradient id="paint6_linear" x1="457.141" y1="117.12" x2="553.393" y2="117.12" gradientUnits="userSpaceOnUse">
<stop stop-color="#7DD3F7"/>
<stop offset="1" stop-color="#43B5E8"/>
</linearGradient>
<linearGradient id="paint7_linear" x1="500.185" y1="223.939" x2="549.338" y2="223.939" gradientUnits="userSpaceOnUse">
<stop stop-color="#7DD3F7"/>
<stop offset="1" stop-color="#43B5E8"/>
</linearGradient>
<linearGradient id="paint8_linear" x1="301.532" y1="297.45" x2="348.566" y2="297.45" gradientUnits="userSpaceOnUse">
<stop stop-color="#7DD3F7"/>
<stop offset="1" stop-color="#43B5E8"/>
</linearGradient>
<linearGradient id="paint9_linear" x1="251.109" y1="297.636" x2="298.144" y2="297.636" gradientUnits="userSpaceOnUse">
<stop stop-color="#7DD3F7"/>
<stop offset="1" stop-color="#43B5E8"/>
</linearGradient>
<linearGradient id="paint10_linear" x1="60.4286" y1="253.463" x2="82.2701" y2="253.463" gradientUnits="userSpaceOnUse">
<stop stop-color="#71459B"/>
<stop offset="0.8668" stop-color="#A76DAE"/>
</linearGradient>
<linearGradient id="paint11_linear" x1="425.484" y1="118.614" x2="447.837" y2="118.614" gradientUnits="userSpaceOnUse">
<stop stop-color="#71459B"/>
<stop offset="0.8668" stop-color="#A76DAE"/>
</linearGradient>
<linearGradient id="paint12_linear" x1="119.812" y1="145.025" x2="129.421" y2="145.025" gradientUnits="userSpaceOnUse">
<stop stop-color="#71459B"/>
<stop offset="0.8668" stop-color="#A76DAE"/>
</linearGradient>
<linearGradient id="paint13_linear" x1="269.845" y1="98.2467" x2="291.374" y2="98.2467" gradientUnits="userSpaceOnUse">
<stop stop-color="#71459B"/>
<stop offset="0.8668" stop-color="#A76DAE"/>
</linearGradient>
<linearGradient id="paint14_linear" x1="275.082" y1="98.2466" x2="286.137" y2="98.2466" gradientUnits="userSpaceOnUse">
<stop stop-color="#71459B"/>
<stop offset="0.8668" stop-color="#A76DAE"/>
</linearGradient>
<linearGradient id="paint15_linear" x1="285.064" y1="92.5062" x2="287.647" y2="92.5062" gradientUnits="userSpaceOnUse">
<stop stop-color="#71459B"/>
<stop offset="0.8668" stop-color="#A76DAE"/>
</linearGradient>
<linearGradient id="paint16_linear" x1="223.508" y1="299.562" x2="226.94" y2="299.562" gradientUnits="userSpaceOnUse">
<stop stop-color="#71459B"/>
<stop offset="0.8668" stop-color="#A76DAE"/>
</linearGradient>
<linearGradient id="paint17_linear" x1="223.178" y1="290.529" x2="227.237" y2="290.529" gradientUnits="userSpaceOnUse">
<stop stop-color="#71459B"/>
<stop offset="0.8668" stop-color="#A76DAE"/>
</linearGradient>
<linearGradient id="paint18_linear" x1="229.134" y1="299.393" x2="239.802" y2="299.393" gradientUnits="userSpaceOnUse">
<stop stop-color="#71459B"/>
<stop offset="0.8668" stop-color="#A76DAE"/>
</linearGradient>
<linearGradient id="paint19_linear" x1="468.98" y1="224.036" x2="489.583" y2="224.036" gradientUnits="userSpaceOnUse">
<stop stop-color="#71459B"/>
<stop offset="0.8668" stop-color="#A76DAE"/>
</linearGradient>
<linearGradient id="paint20_linear" x1="379.195" y1="325.31" x2="422.093" y2="325.31" gradientUnits="userSpaceOnUse">
<stop stop-color="#71459B"/>
<stop offset="0.8668" stop-color="#A76DAE"/>
</linearGradient>
<linearGradient id="paint21_linear" x1="403.505" y1="322.884" x2="437.273" y2="322.884" gradientUnits="userSpaceOnUse">
<stop stop-color="#71459B"/>
<stop offset="0.8668" stop-color="#A76DAE"/>
</linearGradient>
<linearGradient id="paint22_linear" x1="375.751" y1="239.001" x2="393.472" y2="239.001" gradientUnits="userSpaceOnUse">
<stop stop-color="#71459B"/>
<stop offset="0.8668" stop-color="#A76DAE"/>
</linearGradient>
<linearGradient id="paint23_linear" x1="407.073" y1="323.903" x2="427.501" y2="323.903" gradientUnits="userSpaceOnUse">
<stop stop-color="#71459B"/>
<stop offset="0.8668" stop-color="#A76DAE"/>
</linearGradient>
<linearGradient id="paint24_linear" x1="414.586" y1="234.699" x2="437.943" y2="234.699" gradientUnits="userSpaceOnUse">
<stop stop-color="#71459B"/>
<stop offset="0.8668" stop-color="#A76DAE"/>
</linearGradient>
</defs>
</svg>
