<svg width="690" height="532" viewBox="0 0 690 532" fill="none" xmlns="http://www.w3.org/2000/svg">
<g filter="url(#filter0_d)">
<path d="M108.564 353.669C107.869 351.092 105.836 349.06 103.258 348.367C98.5964 347.128 79.9017 347.128 79.9017 347.128C79.9017 347.128 61.2069 347.128 56.5456 348.367C53.9671 349.06 51.9339 351.092 51.2397 353.669C50 358.376 50 368.137 50 368.137C50 368.137 50 377.899 51.2397 382.606C51.9339 385.183 53.9671 387.214 56.5456 387.908C61.2069 389.147 79.9017 389.147 79.9017 389.147C79.9017 389.147 98.5964 389.147 103.258 387.908C105.836 387.214 107.869 385.183 108.564 382.606C109.803 377.899 109.803 368.137 109.803 368.137C109.803 368.137 109.803 358.326 108.564 353.669Z" fill="#EDEDEE"/>
<path opacity="0.75" d="M73.8023 377.007V359.268L89.4226 368.137L73.8023 377.007Z" fill="white"/>
<path d="M443.631 88.325C449.681 92.1899 456.821 94.4197 464.507 94.4197C489.797 94.4197 504.079 73.0635 503.236 53.937C505.914 52.0045 508.195 49.6261 510.029 46.9008C507.6 47.9909 504.971 48.7342 502.194 49.0315C505.021 47.3468 507.153 44.671 508.195 41.4998C505.566 43.0359 502.641 44.1755 499.566 44.8197C497.087 42.1935 493.517 40.5088 489.599 40.5088C480.822 40.5088 474.326 48.6846 476.309 57.2073C465.003 56.6622 454.937 51.2117 448.242 42.9863C444.672 49.1306 446.408 57.1082 452.457 61.1713C450.226 61.1218 448.143 60.4776 446.309 59.4866C446.16 65.7795 450.672 71.676 457.218 73.0139C455.284 73.559 453.201 73.6581 451.069 73.2617C452.805 78.6627 457.813 82.6267 463.813 82.7258C458.061 87.1853 450.821 89.1674 443.631 88.325Z" fill="#EDEDEE"/>
<path d="M101.472 156.755H114.663V123.705H123.886L124.878 112.655H114.663C114.663 112.655 114.663 108.542 114.663 106.362C114.663 103.736 115.208 102.745 117.688 102.745C119.721 102.745 124.829 102.745 124.829 102.745V91.249C124.829 91.249 117.291 91.249 115.704 91.249C105.886 91.249 101.472 95.5599 101.472 103.835C101.472 111.02 101.472 112.655 101.472 112.655H94.6293V123.853H101.472V156.755Z" fill="#EDEDEE"/>
<path d="M290.007 29.7073C296.999 29.7073 297.842 29.7568 300.569 29.8559C303.098 29.955 304.486 30.401 305.429 30.7479C306.668 31.2434 307.511 31.7884 308.453 32.7299C309.346 33.6218 309.941 34.5137 310.437 35.7524C310.784 36.6939 311.23 38.0813 311.33 40.6084C311.478 43.3832 311.478 44.176 311.478 51.1626C311.478 58.1493 311.429 58.9916 311.33 61.7169C311.23 64.2935 310.784 65.6314 310.437 66.5728C309.941 67.8116 309.396 68.654 308.453 69.5954C307.561 70.4873 306.668 71.0819 305.429 71.5774C304.486 71.9243 303.098 72.3702 300.569 72.4693C297.792 72.618 296.999 72.618 290.007 72.618C283.015 72.618 282.172 72.5685 279.444 72.4693C276.866 72.3702 275.527 71.9243 274.585 71.5774C273.345 71.0819 272.502 70.5369 271.56 69.5954C270.667 68.7035 270.072 67.8116 269.576 66.5728C269.229 65.6314 268.783 64.244 268.684 61.7169C268.535 58.9421 268.535 58.1493 268.535 51.1626C268.535 44.176 268.585 43.3337 268.684 40.6084C268.783 38.0318 269.229 36.6939 269.576 35.7524C270.072 34.5137 270.618 33.6713 271.56 32.7299C272.452 31.838 273.345 31.2434 274.585 30.7479C275.527 30.401 276.915 29.955 279.444 29.8559C282.172 29.7568 282.965 29.7073 290.007 29.7073ZM290.007 25C282.916 25 282.023 25.0495 279.196 25.1486C276.42 25.2973 274.486 25.7433 272.849 26.3874C271.114 27.0811 269.676 27.973 268.188 29.41C266.75 30.847 265.857 32.3335 265.163 34.0677C264.518 35.7524 264.072 37.6354 263.923 40.4102C263.775 43.185 263.775 44.0769 263.775 51.2122C263.775 58.2979 263.824 59.1898 263.923 62.0142C264.072 64.789 264.469 66.7215 265.163 68.3567C265.808 70.0909 266.75 71.5279 268.188 73.0144C269.626 74.4514 271.114 75.3433 272.849 76.037C274.535 76.6811 276.42 77.1271 279.196 77.2757C281.973 77.4244 282.866 77.4244 290.007 77.4244C297.098 77.4244 297.99 77.3748 300.817 77.2757C303.594 77.1271 305.528 76.6811 307.164 76.037C308.9 75.3433 310.338 74.4514 311.825 73.0144C313.264 71.5774 314.156 70.0909 314.85 68.3567C315.495 66.6719 315.941 64.789 316.09 62.0142C316.239 59.2394 316.239 58.3475 316.239 51.2122C316.239 44.1265 316.189 43.2346 316.09 40.4102C315.941 37.6354 315.495 35.7029 314.85 34.0677C314.156 32.3335 313.264 30.8965 311.825 29.41C310.387 27.973 308.9 27.0811 307.164 26.3874C305.478 25.7433 303.594 25.2973 300.817 25.1486C297.99 25 297.098 25 290.007 25Z" fill="#EDEDEE"/>
<path d="M290.007 37.7344C282.568 37.7344 276.568 43.73 276.568 51.1626C276.568 58.5951 282.568 64.5907 290.007 64.5907C297.445 64.5907 303.445 58.5951 303.445 51.1626C303.445 43.73 297.395 37.7344 290.007 37.7344ZM290.007 59.8834C285.197 59.8834 281.279 55.9689 281.279 51.1626C281.279 46.3562 285.197 42.4417 290.007 42.4417C294.817 42.4417 298.734 46.3562 298.734 51.1626C298.734 55.9689 294.817 59.8834 290.007 59.8834Z" fill="#EDEDEE"/>
<path d="M307.115 37.19C307.115 38.9243 305.726 40.3117 303.99 40.3117C302.255 40.3117 300.866 38.9243 300.866 37.19C300.866 35.4558 302.255 34.0684 303.99 34.0684C305.726 34.0684 307.115 35.4558 307.115 37.19Z" fill="#EDEDEE"/>
<path d="M223.608 393.952H212.253V430.62H223.608V393.952Z" fill="#EDEDEE"/>
<path d="M217.906 389.146C221.625 389.146 224.6 386.124 224.6 382.358C224.6 378.642 221.575 375.619 217.906 375.619C214.186 375.619 211.211 378.642 211.211 382.358C211.162 386.124 214.186 389.146 217.906 389.146Z" fill="#EDEDEE"/>
<path d="M241.758 411.343C241.758 406.19 244.138 403.118 248.7 403.118C252.865 403.118 254.898 406.041 254.898 411.343C254.898 416.645 254.898 430.569 254.898 430.569H266.204C266.204 430.569 266.204 417.19 266.204 407.379C266.204 397.568 260.651 392.812 252.865 392.812C245.08 392.812 241.807 398.857 241.807 398.857V393.902H230.898V430.569H241.807C241.758 430.569 241.758 416.992 241.758 411.343Z" fill="#EDEDEE"/>
<path d="M636.529 341.975H611.635L611.685 349.11H628.495C626.512 357.781 620.363 363.133 612.131 363.133C601.321 363.133 592.594 354.412 592.594 343.61C592.594 332.808 601.321 324.087 612.131 324.087C617.239 324.087 621.95 326.069 625.421 329.29L630.925 324.533C626.066 319.776 619.47 316.853 612.131 316.853C597.354 316.853 585.354 328.844 585.354 343.61C585.354 358.376 597.354 370.367 612.131 370.367C626.314 370.367 636.578 359.565 636.578 344.749L636.529 341.975Z" fill="#EDEDEE"/>
<path d="M330.719 203.729L350.802 192.134L370.885 203.729V226.869L350.802 238.414L330.719 226.819V203.729Z" fill="#EDEDEE"/>
<path d="M374.902 211.607L388.191 203.927L401.481 211.607V226.968L388.191 234.599L374.902 226.918V211.607Z" fill="#EDEDEE"/>
<path d="M309.396 241.536L328.537 230.486L347.678 241.536V263.636L328.537 274.685L309.396 263.636V241.536Z" fill="#EDEDEE"/>
<path d="M353.579 241.883L372.125 231.18L390.671 241.883V263.239L372.125 273.942L353.579 263.239V241.883Z" fill="url(#paint0_linear)"/>
<path d="M273.692 226.075C273.692 228.801 271.461 231.03 268.733 231.03H124.829C122.101 231.03 119.87 228.801 119.87 226.075V132.821C119.87 130.096 122.101 127.866 124.829 127.866H268.733C271.461 127.866 273.692 130.096 273.692 132.821V226.075V226.075Z" fill="#E1F4FD"/>
<path d="M273.742 136.389C273.742 139.114 271.51 141.344 268.783 141.344H124.829C122.101 141.344 119.87 139.114 119.87 136.389V132.821C119.87 130.096 122.101 127.866 124.829 127.866H268.783C271.51 127.866 273.742 130.096 273.742 132.821V136.389Z" fill="#7C7D80"/>
<path d="M265.857 172.016C265.857 174.742 263.626 176.971 260.898 176.971H169.904C167.177 176.971 164.945 174.742 164.945 172.016V155.02C164.945 152.295 167.177 150.065 169.904 150.065H260.898C263.626 150.065 265.857 152.295 265.857 155.02V172.016Z" fill="url(#paint1_linear)"/>
<path d="M265.213 191.737C265.213 192.529 262.981 193.223 260.254 193.223H133.159C130.432 193.223 128.201 192.579 128.201 191.737C128.201 190.944 130.432 190.25 133.159 190.25H260.254C262.981 190.3 265.213 190.944 265.213 191.737Z" fill="#D1D3D4"/>
<path d="M265.064 198.872C265.064 199.665 262.832 200.359 260.105 200.359H134.002C131.275 200.359 129.044 199.715 129.044 198.872C129.044 198.079 131.275 197.386 134.002 197.386H260.155C262.832 197.435 265.064 198.079 265.064 198.872Z" fill="#D1D3D4"/>
<path d="M264.965 206.652C264.965 207.444 262.733 208.138 260.006 208.138H133.655C130.928 208.138 128.696 207.494 128.696 206.652C128.696 205.809 130.928 205.165 133.655 205.165H259.956C262.733 205.165 264.965 205.809 264.965 206.652Z" fill="#D1D3D4"/>
<path d="M264.965 214.432C264.965 215.225 262.733 215.918 260.006 215.918H133.655C130.928 215.918 128.696 215.274 128.696 214.432C128.696 213.639 130.928 212.945 133.655 212.945H259.956C262.733 212.945 264.965 213.639 264.965 214.432Z" fill="#D1D3D4"/>
<path d="M144.515 180.092C153.553 180.092 160.879 172.771 160.879 163.74C160.879 154.71 153.553 147.389 144.515 147.389C135.477 147.389 128.151 154.71 128.151 163.74C128.151 172.771 135.477 180.092 144.515 180.092Z" fill="white"/>
<path d="M177.541 173.354C182.936 173.354 187.31 168.984 187.31 163.592C187.31 158.201 182.936 153.831 177.541 153.831C172.146 153.831 167.772 158.201 167.772 163.592C167.772 168.984 172.146 173.354 177.541 173.354Z" fill="white"/>
<path d="M433.564 178.705C433.564 181.431 431.333 183.66 428.606 183.66H285.147C282.42 183.66 280.188 181.431 280.188 178.705V85.5009C280.188 82.7757 282.42 80.5459 285.147 80.5459H428.556C431.283 80.5459 433.515 82.7757 433.515 85.5009V178.705H433.564Z" fill="#E1F4FD"/>
<path d="M434.06 89.0686C434.06 91.7939 431.829 94.0236 429.102 94.0236H285.147C282.42 94.0236 280.188 91.7939 280.188 89.0686V85.5009C280.188 82.7757 282.42 80.5459 285.147 80.5459H429.102C431.829 80.5459 434.06 82.7757 434.06 85.5009V89.0686Z" fill="#7C7D80"/>
<path d="M375.596 171.967C375.596 174.692 373.364 176.922 370.637 176.922H337.016C334.289 176.922 332.057 174.692 332.057 171.967V138.619C332.057 135.894 334.289 133.664 337.016 133.664H370.637C373.364 133.664 375.596 135.894 375.596 138.619V171.967Z" fill="url(#paint2_linear)"/>
<path d="M425.432 171.967C425.432 174.692 423.201 176.922 420.473 176.922H386.852C384.125 176.922 381.894 174.692 381.894 171.967V138.619C381.894 135.894 384.125 133.664 386.852 133.664H420.473C423.201 133.664 425.432 135.894 425.432 138.619V171.967Z" fill="url(#paint3_linear)"/>
<path d="M428.06 107.698C428.06 108.491 425.829 109.185 423.102 109.185H333.396C330.669 109.185 328.438 108.541 328.438 107.698C328.438 106.906 330.669 106.212 333.396 106.212H423.052C425.829 106.212 428.06 106.906 428.06 107.698Z" fill="#D1D3D4"/>
<path d="M428.209 116.767C428.209 117.56 425.977 118.253 423.25 118.253H333.595C330.867 118.253 328.636 117.609 328.636 116.767C328.636 115.974 330.867 115.28 333.595 115.28H423.25C425.977 115.28 428.209 115.924 428.209 116.767Z" fill="#D1D3D4"/>
<path d="M428.209 125.192C428.209 125.984 425.977 126.678 423.25 126.678H333.595C330.867 126.678 328.636 126.034 328.636 125.192C328.636 124.399 330.867 123.705 333.595 123.705H423.25C425.977 123.705 428.209 124.399 428.209 125.192Z" fill="#D1D3D4"/>
<path d="M372.621 164.733C372.621 165.525 370.389 166.219 367.662 166.219H340.388C337.661 166.219 335.43 165.575 335.43 164.733C335.43 163.94 337.661 163.246 340.388 163.246H367.662C370.389 163.246 372.621 163.89 372.621 164.733Z" fill="white"/>
<path d="M262.237 159.133C262.237 159.926 260.006 160.62 257.278 160.62H196.285C193.558 160.62 191.326 159.975 191.326 159.133C191.326 158.34 193.558 157.646 196.285 157.646H257.278C260.006 157.646 262.237 158.34 262.237 159.133Z" fill="white"/>
<path d="M262.138 166.763C262.138 167.556 259.907 168.249 257.179 168.249H196.186C193.459 168.249 191.227 167.605 191.227 166.763C191.227 165.97 193.459 165.276 196.186 165.276H257.179C259.907 165.276 262.138 165.921 262.138 166.763Z" fill="white"/>
<path d="M422.506 164.931C422.506 165.724 420.275 166.417 417.548 166.417H390.274C387.547 166.417 385.315 165.773 385.315 164.931C385.315 164.138 387.547 163.444 390.274 163.444H417.548C420.275 163.444 422.506 164.138 422.506 164.931Z" fill="white"/>
<path d="M422.506 170.926C422.506 171.719 420.275 172.412 417.548 172.412H390.274C387.547 172.412 385.315 171.768 385.315 170.926C385.315 170.133 387.547 169.439 390.274 169.439H417.548C420.275 169.489 422.506 170.133 422.506 170.926Z" fill="white"/>
<path d="M372.621 170.729C372.621 171.522 370.389 172.215 367.662 172.215H340.388C337.661 172.215 335.43 171.571 335.43 170.729C335.43 169.936 337.661 169.242 340.388 169.242H367.662C370.389 169.292 372.621 169.936 372.621 170.729Z" fill="white"/>
<path d="M304.784 132.772C313.822 132.772 321.148 125.451 321.148 116.42C321.148 107.389 313.822 100.068 304.784 100.068C295.746 100.068 288.42 107.389 288.42 116.42C288.42 125.451 295.746 132.772 304.784 132.772Z" fill="white"/>
<path d="M353.132 160.273C358.938 160.273 363.645 155.57 363.645 149.768C363.645 143.967 358.938 139.264 353.132 139.264C347.326 139.264 342.62 143.967 342.62 149.768C342.62 155.57 347.326 160.273 353.132 160.273Z" fill="white"/>
<path d="M403.712 160.818C409.792 160.818 414.721 155.893 414.721 149.818C414.721 143.742 409.792 138.817 403.712 138.817C397.633 138.817 392.704 143.742 392.704 149.818C392.704 155.893 397.633 160.818 403.712 160.818Z" fill="white"/>
<path d="M217.558 339.001C217.558 341.726 215.327 343.956 212.6 343.956H69.4881C66.7607 343.956 64.5292 341.726 64.5292 339.001V245.747C64.5292 243.022 66.7607 240.792 69.4881 240.792H212.649C215.376 240.792 217.608 243.022 217.608 245.747V339.001H217.558Z" fill="#E1F4FD"/>
<path d="M217.558 249.315C217.558 252.04 215.327 254.27 212.6 254.27H68.6947C65.9674 254.27 63.7359 252.04 63.7359 249.315V245.747C63.7359 243.022 65.9674 240.792 68.6947 240.792H212.649C215.377 240.792 217.608 243.022 217.608 245.747V249.315H217.558Z" fill="#7C7D80"/>
<path d="M209.723 287.815C209.723 290.54 207.492 292.77 204.765 292.77H114.663C111.936 292.77 109.704 290.54 109.704 287.815V265.666C109.704 262.941 111.936 260.711 114.663 260.711H204.715C207.442 260.711 209.674 262.941 209.674 265.666V287.815H209.723Z" fill="url(#paint4_linear)"/>
<path d="M104.398 325.325C104.398 328.05 102.167 330.28 99.4393 330.28H77.2733C74.546 330.28 72.3145 328.05 72.3145 325.325V305.108C72.3145 302.383 74.546 300.153 77.2733 300.153H99.4393C102.167 300.153 104.398 302.383 104.398 305.108V325.325Z" fill="url(#paint5_linear)"/>
<path d="M208.93 311.798C208.93 312.591 206.698 313.285 203.971 313.285H115.06C112.332 313.285 110.101 312.64 110.101 311.798C110.101 310.956 112.332 310.312 115.06 310.312H203.971C206.698 310.312 208.93 311.005 208.93 311.798Z" fill="#D1D3D4"/>
<path d="M208.93 302.78C208.93 303.573 206.699 304.267 203.971 304.267H114.514C111.787 304.267 109.555 303.623 109.555 302.78C109.555 301.938 111.787 301.294 114.514 301.294H203.971C206.699 301.294 208.93 301.938 208.93 302.78Z" fill="#D1D3D4"/>
<path d="M208.93 327.753C208.93 328.546 206.698 329.24 203.971 329.24H113.969C111.241 329.24 109.01 328.595 109.01 327.753C109.01 326.911 111.241 326.267 113.969 326.267H203.971C206.698 326.316 208.93 326.96 208.93 327.753Z" fill="#D1D3D4"/>
<path d="M208.781 319.528C208.781 320.32 206.55 321.014 203.822 321.014H114.911C112.183 321.014 109.952 320.37 109.952 319.528C109.952 318.685 112.183 318.041 114.911 318.041H203.822C206.55 318.091 208.781 318.735 208.781 319.528Z" fill="#D1D3D4"/>
<path d="M88.3316 293.019C97.3693 293.019 104.696 285.698 104.696 276.667C104.696 267.636 97.3693 260.315 88.3316 260.315C79.294 260.315 71.9675 267.636 71.9675 276.667C71.9675 285.698 79.294 293.019 88.3316 293.019Z" fill="white"/>
<path d="M88.1828 327.407C94.783 327.407 100.134 322.06 100.134 315.465C100.134 308.87 94.783 303.523 88.1828 303.523C81.5826 303.523 76.2321 308.87 76.2321 315.465C76.2321 322.06 81.5826 327.407 88.1828 327.407Z" fill="white"/>
<path d="M595.172 198.873C595.172 201.598 592.941 203.828 590.214 203.828H446.458C443.73 203.828 441.499 201.598 441.499 198.873V105.619C441.499 102.894 443.73 100.664 446.458 100.664H590.164C592.891 100.664 595.123 102.894 595.123 105.619V198.873H595.172Z" fill="#E1F4FD"/>
<path d="M595.271 109.187C595.271 111.912 593.04 114.142 590.313 114.142H446.408C443.68 114.142 441.449 111.912 441.449 109.187V105.619C441.449 102.894 443.68 100.664 446.408 100.664H590.362C593.09 100.664 595.321 102.894 595.321 105.619V109.187H595.271Z" fill="#7C7D80"/>
<path d="M587.238 140.502C587.238 143.227 585.007 145.457 582.279 145.457H492.624C489.897 145.457 487.665 143.227 487.665 140.502V130.74C487.665 128.015 489.897 125.785 492.624 125.785H582.279C585.007 125.785 587.238 128.015 587.238 130.74V140.502Z" fill="url(#paint6_linear)"/>
<path d="M581.288 155.467C581.288 156.26 579.056 156.904 576.329 156.904H494.459C491.731 156.904 489.5 156.26 489.5 155.467C489.5 154.674 491.731 154.03 494.459 154.03H576.329C579.056 154.03 581.288 154.674 581.288 155.467Z" fill="#D1D3D4"/>
<path d="M581.04 162.899C581.04 163.692 578.808 164.336 576.081 164.336H494.211C491.484 164.336 489.252 163.692 489.252 162.899C489.252 162.106 491.484 161.462 494.211 161.462H576.081C578.808 161.462 581.04 162.106 581.04 162.899Z" fill="#D1D3D4"/>
<path d="M581.288 170.876C581.288 171.669 579.056 172.313 576.329 172.313H494.459C491.731 172.313 489.5 171.669 489.5 170.876C489.5 170.084 491.731 169.439 494.459 169.439H576.329C579.056 169.439 581.288 170.084 581.288 170.876Z" fill="#D1D3D4"/>
<path d="M572.907 178.26C572.907 179.053 570.676 179.697 567.948 179.697H494.459C491.731 179.697 489.5 179.053 489.5 178.26C489.5 177.467 491.731 176.823 494.459 176.823H567.948C570.676 176.823 572.907 177.467 572.907 178.26Z" fill="#D1D3D4"/>
<path d="M573.254 186.336C573.254 187.129 571.023 187.773 568.295 187.773H494.806C492.079 187.773 489.847 187.129 489.847 186.336C489.847 185.544 492.079 184.899 494.806 184.899H568.295C571.023 184.899 573.254 185.544 573.254 186.336Z" fill="#D1D3D4"/>
<path d="M466.045 152.89C475.082 152.89 482.409 145.569 482.409 136.538C482.409 127.507 475.082 120.187 466.045 120.187C457.007 120.187 449.68 127.507 449.68 136.538C449.68 145.569 457.007 152.89 466.045 152.89Z" fill="white"/>
<path d="M639.95 308.626C639.95 311.352 637.719 313.581 634.992 313.581H491.136C488.409 313.581 486.177 311.352 486.177 308.626V215.422C486.177 212.697 488.409 210.467 491.136 210.467H634.992C637.719 210.467 639.95 212.697 639.95 215.422V308.626V308.626Z" fill="#E1F4FD"/>
<path d="M640 218.989C640 221.715 637.769 223.945 635.041 223.945H491.087C488.359 223.945 486.128 221.715 486.128 218.989V215.422C486.128 212.697 488.359 210.467 491.087 210.467H635.041C637.769 210.467 640 212.697 640 215.422V218.989Z" fill="#7C7D80"/>
<path d="M583.073 251.297C583.073 254.022 580.841 256.252 578.114 256.252H537.204C534.476 256.252 532.245 254.022 532.245 251.297V240.892C532.245 238.166 534.476 235.937 537.204 235.937H578.114C580.841 235.937 583.073 238.166 583.073 240.892V251.297Z" fill="url(#paint7_linear)"/>
<path d="M633.256 242.03C633.256 242.823 631.025 243.517 628.297 243.517H591.701C588.974 243.517 586.742 242.873 586.742 242.03C586.742 241.188 588.974 240.544 591.701 240.544H628.297C631.025 240.593 633.256 241.238 633.256 242.03Z" fill="#C7C8CA"/>
<path d="M633.454 249.811C633.454 250.604 631.223 251.297 628.495 251.297H591.899C589.172 251.297 586.941 250.653 586.941 249.811C586.941 248.968 589.172 248.324 591.899 248.324H628.495C631.223 248.374 633.454 249.018 633.454 249.811Z" fill="#D1D3D4"/>
<path d="M580.742 242.03C580.742 242.823 578.511 243.517 575.783 243.517H539.187C536.46 243.517 534.229 242.873 534.229 242.03C534.229 241.238 536.46 240.544 539.187 240.544H575.783C578.511 240.544 580.742 241.238 580.742 242.03Z" fill="white"/>
<path d="M580.742 248.918C580.742 249.711 578.511 250.405 575.783 250.405H539.187C536.46 250.405 534.229 249.761 534.229 248.918C534.229 248.125 536.46 247.432 539.187 247.432H575.783C578.511 247.481 580.742 248.125 580.742 248.918Z" fill="white"/>
<path d="M623.437 270.72C623.437 271.513 621.206 272.206 618.479 272.206H498.277C495.55 272.206 493.318 271.562 493.318 270.72C493.318 269.878 495.55 269.233 498.277 269.233H618.528C621.206 269.233 623.437 269.927 623.437 270.72Z" fill="#D1D3D4"/>
<path d="M623.289 278.748C623.289 279.541 621.057 280.235 618.33 280.235H498.079C495.351 280.235 493.12 279.591 493.12 278.748C493.12 277.906 495.351 277.262 498.079 277.262H618.33C621.057 277.262 623.289 277.955 623.289 278.748Z" fill="#D1D3D4"/>
<path d="M623.289 286.627C623.289 287.42 621.057 288.114 618.33 288.114H498.079C495.351 288.114 493.12 287.469 493.12 286.627C493.12 285.785 495.351 285.141 498.079 285.141H618.33C621.057 285.141 623.289 285.834 623.289 286.627Z" fill="#D1D3D4"/>
<path d="M623.14 295.198C623.14 295.991 620.908 296.685 618.181 296.685H497.93C495.202 296.685 492.971 296.041 492.971 295.198C492.971 294.406 495.202 293.712 497.93 293.712H618.181C620.908 293.712 623.14 294.356 623.14 295.198Z" fill="#D1D3D4"/>
<path d="M510.773 262.693C519.811 262.693 527.137 255.372 527.137 246.341C527.137 237.31 519.811 229.989 510.773 229.989C501.736 229.989 494.409 237.31 494.409 246.341C494.409 255.372 501.736 262.693 510.773 262.693Z" fill="white"/>
<path d="M382.985 384.687C382.985 387.412 380.753 389.642 378.026 389.642H234.369C231.641 389.642 229.41 387.412 229.41 384.687V291.482C229.41 288.757 231.641 286.527 234.369 286.527H378.075C380.803 286.527 383.034 288.757 383.034 291.482V384.687H382.985Z" fill="#E1F4FD"/>
<path d="M383.233 295.05C383.233 297.775 381.001 300.005 378.274 300.005H234.369C231.641 300.005 229.41 297.775 229.41 295.05V291.482C229.41 288.757 231.641 286.527 234.369 286.527H378.274C381.001 286.527 383.233 288.757 383.233 291.482V295.05Z" fill="#7C7D80"/>
<path d="M375.398 327.357C375.398 330.082 373.166 332.312 370.439 332.312H331.71C328.983 332.312 326.752 330.082 326.752 327.357V316.951C326.752 314.226 328.983 311.996 331.71 311.996H370.439C373.166 311.996 375.398 314.226 375.398 316.951V327.357Z" fill="url(#paint8_linear)"/>
<path d="M323.231 327.554C323.231 330.279 320.999 332.509 318.272 332.509H279.544C276.816 332.509 274.585 330.279 274.585 327.554V317.148C274.585 314.423 276.816 312.193 279.544 312.193H318.272C320.999 312.193 323.231 314.423 323.231 317.148V327.554Z" fill="url(#paint9_linear)"/>
<path d="M374.852 343.014C374.852 343.807 372.621 344.5 369.893 344.5H270.618C267.89 344.5 265.659 343.856 265.659 343.014C265.659 342.172 267.89 341.527 270.618 341.527H369.893C372.621 341.527 374.852 342.221 374.852 343.014Z" fill="#D1D3D4"/>
<path d="M374.703 350.398C374.703 351.19 372.472 351.884 369.744 351.884H270.469C267.742 351.884 265.51 351.24 265.51 350.398C265.51 349.555 267.742 348.911 270.469 348.911H369.744C372.472 348.911 374.703 349.605 374.703 350.398Z" fill="#D1D3D4"/>
<path d="M374.455 365.262C374.455 366.055 372.224 366.748 369.497 366.748H270.221C267.494 366.748 265.262 366.104 265.262 365.262C265.262 364.42 267.494 363.775 270.221 363.775H369.497C372.224 363.825 374.455 364.469 374.455 365.262Z" fill="#D1D3D4"/>
<path d="M374.852 373.538C374.852 374.331 372.621 375.025 369.893 375.025H270.618C267.89 375.025 265.659 374.381 265.659 373.538C265.659 372.696 267.89 372.052 270.618 372.052H369.893C372.621 372.101 374.852 372.745 374.852 373.538Z" fill="#D1D3D4"/>
<path d="M254.006 338.753C263.043 338.753 270.37 331.432 270.37 322.401C270.37 313.371 263.043 306.05 254.006 306.05C244.968 306.05 237.642 313.371 237.642 322.401C237.642 331.432 244.968 338.753 254.006 338.753Z" fill="white"/>
<path d="M582.378 132.277C582.378 133.069 580.147 133.763 577.42 133.763H498.376C495.649 133.763 493.417 133.119 493.417 132.277C493.417 131.484 495.649 130.79 498.376 130.79H577.42C580.147 130.79 582.378 131.434 582.378 132.277Z" fill="white"/>
<path d="M582.378 138.818C582.378 139.61 580.147 140.304 577.42 140.304H498.376C495.649 140.304 493.417 139.66 493.417 138.818C493.417 137.975 495.649 137.331 498.376 137.331H577.42C580.147 137.331 582.378 138.025 582.378 138.818Z" fill="white"/>
<path d="M205.36 268.887C205.36 269.68 203.128 270.373 200.401 270.373H119.919C117.192 270.373 114.96 269.729 114.96 268.887C114.96 268.045 117.192 267.4 119.919 267.4H200.351C203.128 267.4 205.36 268.045 205.36 268.887Z" fill="white"/>
<path d="M205.36 283.01C205.36 283.803 203.128 284.496 200.401 284.496H119.919C117.192 284.496 114.96 283.852 114.96 283.01C114.96 282.168 117.192 281.523 119.919 281.523H200.351C203.128 281.573 205.36 282.217 205.36 283.01Z" fill="white"/>
<path d="M205.36 276.121C205.36 276.914 203.128 277.608 200.401 277.608H119.919C117.192 277.608 114.96 276.964 114.96 276.121C114.96 275.328 117.192 274.635 119.919 274.635H200.351C203.128 274.635 205.36 275.328 205.36 276.121Z" fill="white"/>
<path d="M298.536 330.033C302.808 330.033 306.272 326.572 306.272 322.303C306.272 318.034 302.808 314.573 298.536 314.573C294.264 314.573 290.8 318.034 290.8 322.303C290.8 326.572 294.264 330.033 298.536 330.033Z" fill="white"/>
<path d="M350.752 329.885C355.025 329.885 358.488 326.424 358.488 322.155C358.488 317.886 355.025 314.425 350.752 314.425C346.48 314.425 343.017 317.886 343.017 322.155C343.017 326.424 346.48 329.885 350.752 329.885Z" fill="white"/>
<path d="M130.184 136.687C131.334 136.687 132.267 135.755 132.267 134.606C132.267 133.456 131.334 132.524 130.184 132.524C129.034 132.524 128.101 133.456 128.101 134.606C128.101 135.755 129.034 136.687 130.184 136.687Z" fill="white"/>
<path d="M137.126 136.637C138.277 136.637 139.209 135.705 139.209 134.556C139.209 133.406 138.277 132.475 137.126 132.475C135.976 132.475 135.044 133.406 135.044 134.556C135.044 135.705 135.976 136.637 137.126 136.637Z" fill="white"/>
<path d="M144.019 136.637C145.169 136.637 146.102 135.705 146.102 134.556C146.102 133.406 145.169 132.475 144.019 132.475C142.869 132.475 141.936 133.406 141.936 134.556C141.936 135.705 142.869 136.637 144.019 136.637Z" fill="white"/>
<path d="M288.271 89.2179C289.421 89.2179 290.354 88.2862 290.354 87.1368C290.354 85.9874 289.421 85.0557 288.271 85.0557C287.121 85.0557 286.188 85.9874 286.188 87.1368C286.188 88.2862 287.121 89.2179 288.271 89.2179Z" fill="white"/>
<path d="M295.213 89.1681C296.364 89.1681 297.296 88.2364 297.296 87.087C297.296 85.9376 296.364 85.0059 295.213 85.0059C294.063 85.0059 293.131 85.9376 293.131 87.087C293.131 88.2364 294.063 89.1681 295.213 89.1681Z" fill="white"/>
<path d="M302.106 89.1681C303.257 89.1681 304.189 88.2364 304.189 87.087C304.189 85.9376 303.257 85.0059 302.106 85.0059C300.956 85.0059 300.024 85.9376 300.024 87.087C300.024 88.2364 300.956 89.1681 302.106 89.1681Z" fill="white"/>
<path d="M451.664 109.532C452.814 109.532 453.747 108.601 453.747 107.451C453.747 106.302 452.814 105.37 451.664 105.37C450.514 105.37 449.581 106.302 449.581 107.451C449.581 108.601 450.514 109.532 451.664 109.532Z" fill="white"/>
<path d="M458.606 109.483C459.757 109.483 460.689 108.551 460.689 107.401C460.689 106.252 459.757 105.32 458.606 105.32C457.456 105.32 456.524 106.252 456.524 107.401C456.524 108.551 457.456 109.483 458.606 109.483Z" fill="white"/>
<path d="M465.499 109.483C466.65 109.483 467.582 108.551 467.582 107.401C467.582 106.252 466.65 105.32 465.499 105.32C464.349 105.32 463.417 106.252 463.417 107.401C463.417 108.551 464.349 109.483 465.499 109.483Z" fill="white"/>
<path d="M496.244 219.437C497.394 219.437 498.326 218.505 498.326 217.356C498.326 216.206 497.394 215.274 496.244 215.274C495.094 215.274 494.161 216.206 494.161 217.356C494.161 218.505 495.094 219.437 496.244 219.437Z" fill="white"/>
<path d="M503.236 219.386C504.386 219.386 505.318 218.454 505.318 217.305C505.318 216.155 504.386 215.224 503.236 215.224C502.086 215.224 501.153 216.155 501.153 217.305C501.153 218.454 502.086 219.386 503.236 219.386Z" fill="white"/>
<path d="M510.129 219.386C511.279 219.386 512.211 218.454 512.211 217.305C512.211 216.155 511.279 215.224 510.129 215.224C508.978 215.224 508.046 216.155 508.046 217.305C508.046 218.454 508.978 219.386 510.129 219.386Z" fill="white"/>
<path d="M238.584 295.844C239.734 295.844 240.667 294.912 240.667 293.763C240.667 292.613 239.734 291.682 238.584 291.682C237.434 291.682 236.501 292.613 236.501 293.763C236.501 294.912 237.434 295.844 238.584 295.844Z" fill="white"/>
<path d="M245.576 295.792C246.726 295.792 247.658 294.86 247.658 293.711C247.658 292.562 246.726 291.63 245.576 291.63C244.425 291.63 243.493 292.562 243.493 293.711C243.493 294.86 244.425 295.792 245.576 295.792Z" fill="white"/>
<path d="M252.469 295.792C253.619 295.792 254.551 294.86 254.551 293.711C254.551 292.562 253.619 291.63 252.469 291.63C251.318 291.63 250.386 292.562 250.386 293.711C250.386 294.86 251.318 295.792 252.469 295.792Z" fill="white"/>
<path d="M73.3064 250.008C74.4566 250.008 75.3891 249.076 75.3891 247.927C75.3891 246.777 74.4566 245.846 73.3064 245.846C72.1562 245.846 71.2237 246.777 71.2237 247.927C71.2237 249.076 72.1562 250.008 73.3064 250.008Z" fill="white"/>
<path d="M80.2983 249.958C81.4485 249.958 82.381 249.026 82.381 247.877C82.381 246.728 81.4485 245.796 80.2983 245.796C79.148 245.796 78.2156 246.728 78.2156 247.877C78.2156 249.026 79.148 249.958 80.2983 249.958Z" fill="white"/>
<path d="M87.1911 249.958C88.3413 249.958 89.2738 249.026 89.2738 247.877C89.2738 246.728 88.3413 245.796 87.1911 245.796C86.0409 245.796 85.1084 246.728 85.1084 247.877C85.1084 249.026 86.0409 249.958 87.1911 249.958Z" fill="white"/>
<path d="M99.489 271.167C99.2411 270.176 98.4477 269.432 97.5055 269.135C95.7203 268.64 88.6788 268.64 88.6788 268.64C88.6788 268.64 81.6373 268.64 79.8521 269.135C78.8603 269.383 78.1165 270.176 77.8686 271.167C77.3727 272.951 77.3727 276.617 77.3727 276.617C77.3727 276.617 77.3727 280.334 77.8686 282.068C78.1165 283.059 78.9099 283.802 79.8521 284.099C81.6373 284.595 88.6788 284.595 88.6788 284.595C88.6788 284.595 95.7203 284.595 97.5055 284.099C98.4972 283.852 99.2411 283.059 99.489 282.068C99.9849 280.284 99.9849 276.617 99.9849 276.617C99.9849 276.617 99.9353 272.951 99.489 271.167Z" fill="url(#paint10_linear)"/>
<path d="M86.3481 279.987V273.298L92.2491 276.667L86.3481 279.987Z" fill="white"/>
<path d="M454.937 144.417C457.02 145.755 459.549 146.548 462.226 146.548C471.053 146.548 476.012 139.115 475.715 132.426C476.657 131.782 477.45 130.94 478.095 129.949C477.252 130.345 476.31 130.593 475.367 130.692C476.359 130.097 477.103 129.156 477.45 128.066C476.558 128.611 475.516 129.007 474.425 129.205C473.582 128.264 472.343 127.719 470.954 127.719C467.88 127.719 465.648 130.593 466.342 133.516C462.375 133.318 458.904 131.435 456.573 128.561C455.334 130.692 455.929 133.467 458.061 134.904C457.268 134.904 456.573 134.656 455.929 134.309C455.879 136.489 457.466 138.57 459.747 139.016C459.102 139.214 458.359 139.214 457.615 139.115C458.21 140.998 459.945 142.386 462.028 142.386C459.995 144.021 457.466 144.715 454.937 144.417Z" fill="url(#paint11_linear)"/>
<path d="M141.044 175.238H145.358V164.386H148.383L148.73 160.769H145.358C145.358 160.769 145.358 159.431 145.358 158.688C145.358 157.846 145.507 157.499 146.35 157.499C146.994 157.499 148.68 157.499 148.68 157.499V153.684C148.68 153.684 146.201 153.684 145.656 153.684C142.432 153.684 140.994 155.121 140.994 157.846C140.994 160.224 140.994 160.72 140.994 160.72H138.763V164.386H140.994V175.238H141.044Z" fill="url(#paint12_linear)"/>
<path d="M305.081 106.957C308.057 106.957 308.404 106.957 309.594 107.007C310.685 107.056 311.28 107.255 311.677 107.403C312.173 107.602 312.569 107.849 312.966 108.246C313.363 108.642 313.611 108.989 313.809 109.534C313.958 109.93 314.156 110.525 314.206 111.615C314.255 112.804 314.255 113.151 314.255 116.124C314.255 119.097 314.255 119.444 314.206 120.633C314.156 121.723 313.958 122.318 313.809 122.714C313.611 123.21 313.363 123.606 312.966 124.003C312.569 124.399 312.222 124.647 311.677 124.845C311.28 124.994 310.685 125.192 309.594 125.241C308.404 125.291 308.057 125.291 305.081 125.291C302.106 125.291 301.759 125.291 300.569 125.241C299.478 125.192 298.883 124.994 298.486 124.845C297.99 124.647 297.594 124.399 297.197 124.003C296.8 123.606 296.552 123.259 296.354 122.714C296.205 122.318 296.007 121.723 295.957 120.633C295.908 119.444 295.908 119.097 295.908 116.124C295.908 113.151 295.908 112.804 295.957 111.615C296.007 110.525 296.205 109.93 296.354 109.534C296.552 109.038 296.8 108.642 297.197 108.246C297.594 107.849 297.941 107.602 298.486 107.403C298.883 107.255 299.478 107.056 300.569 107.007C301.759 106.957 302.106 106.957 305.081 106.957ZM305.081 104.926C302.057 104.926 301.66 104.926 300.47 104.975C299.28 105.025 298.486 105.223 297.742 105.471C296.999 105.768 296.403 106.115 295.759 106.759C295.164 107.354 294.767 107.998 294.47 108.741C294.172 109.435 294.023 110.277 293.974 111.466C293.924 112.656 293.924 113.052 293.924 116.075C293.924 119.097 293.924 119.494 293.974 120.683C294.023 121.872 294.222 122.665 294.47 123.408C294.767 124.151 295.114 124.746 295.759 125.39C296.354 125.985 296.999 126.381 297.742 126.678C298.437 126.976 299.28 127.124 300.47 127.174C301.66 127.224 302.057 127.224 305.081 127.224C308.106 127.224 308.503 127.224 309.693 127.174C310.883 127.124 311.677 126.926 312.421 126.678C313.164 126.381 313.759 126.034 314.404 125.39C314.999 124.796 315.396 124.151 315.693 123.408C315.991 122.714 316.14 121.872 316.189 120.683C316.239 119.494 316.239 119.097 316.239 116.075C316.239 113.052 316.239 112.656 316.189 111.466C316.14 110.277 315.941 109.484 315.693 108.741C315.396 107.998 315.049 107.403 314.404 106.759C313.809 106.165 313.164 105.768 312.421 105.471C311.726 105.174 310.883 105.025 309.693 104.975C308.503 104.975 308.106 104.926 305.081 104.926Z" fill="url(#paint13_linear)"/>
<path d="M305.081 110.376C301.908 110.376 299.379 112.953 299.379 116.074C299.379 119.246 301.957 121.773 305.081 121.773C308.255 121.773 310.784 119.196 310.784 116.074C310.834 112.903 308.255 110.376 305.081 110.376ZM305.081 119.791C303.048 119.791 301.362 118.106 301.362 116.074C301.362 114.043 303.048 112.358 305.081 112.358C307.115 112.358 308.801 114.043 308.801 116.074C308.801 118.106 307.164 119.791 305.081 119.791Z" fill="url(#paint14_linear)"/>
<path d="M312.371 110.128C312.371 110.871 311.776 111.466 311.032 111.466C310.288 111.466 309.693 110.871 309.693 110.128C309.693 109.385 310.288 108.79 311.032 108.79C311.776 108.79 312.371 109.385 312.371 110.128Z" fill="url(#paint15_linear)"/>
<path d="M249.592 318.637H246.022V330.083H249.592V318.637Z" fill="url(#paint16_linear)"/>
<path d="M247.807 317.1C248.948 317.1 249.89 316.159 249.89 314.97C249.89 313.78 248.948 312.839 247.807 312.839C246.667 312.839 245.724 313.78 245.724 314.97C245.724 316.159 246.617 317.1 247.807 317.1Z" fill="url(#paint17_linear)"/>
<path d="M255.245 324.039C255.245 322.403 255.989 321.462 257.427 321.462C258.716 321.462 259.361 322.403 259.361 324.039C259.361 325.674 259.361 330.034 259.361 330.034H262.882C262.882 330.034 262.882 325.872 262.882 322.8C262.882 319.728 261.146 318.241 258.717 318.241C256.287 318.241 255.245 320.124 255.245 320.124V318.588H251.824V330.084H255.245C255.245 330.084 255.245 325.822 255.245 324.039Z" fill="url(#paint18_linear)"/>
<path d="M521.236 245.55H510.872V248.523H517.864C517.021 252.14 514.492 254.32 511.071 254.32C506.608 254.32 502.938 250.703 502.938 246.194C502.938 241.685 506.558 238.067 511.071 238.067C513.203 238.067 515.137 238.91 516.575 240.248L518.856 238.266C516.823 236.284 514.096 235.045 511.021 235.045C504.872 235.045 499.864 240.05 499.864 246.194C499.864 252.338 504.872 257.343 511.021 257.343C516.922 257.343 521.187 252.834 521.187 246.689L521.236 245.55Z" fill="url(#paint19_linear)"/>
<path d="M452.21 270.522C452.21 270.522 458.359 284.248 461.532 286.973C462.871 288.014 464.309 288.856 465.846 289.451C466.739 289.797 467.681 289.797 468.524 289.5C469.367 289.153 470.111 288.46 470.508 287.617C470.508 287.617 470.508 287.617 470.508 287.568C470.706 287.122 470.855 286.577 470.905 286.081C471.152 282.662 471.004 278.104 469.219 274.784C469.07 274.536 468.971 274.288 468.822 274.04C467.83 272.207 467.037 270.473 466.342 269.036C464.904 266.063 464.161 264.13 464.161 264.13L455.929 262.693L455.532 263.536L452.21 270.522Z" fill="#C8C8C8"/>
<path d="M445.962 447.566L444.523 456.584L474.673 448.755C474.673 448.755 459.35 445.683 457.516 444.593C455.631 443.503 449.681 443.651 449.681 443.651L445.962 447.566Z" fill="#C8C8C8"/>
<path d="M416.209 443.355L414.771 453.562L447.152 445.585C447.152 445.585 432.473 443.305 429.945 441.521C427.366 439.787 417.845 440.332 417.845 440.332L416.209 443.355Z" fill="#C8C8C8"/>
<path d="M442.391 373.141L444.573 418.975L446.011 449.201H454.094L458.855 374.478L453.797 374.082L442.391 373.141Z" fill="#C8C8C8"/>
<path d="M432.226 372.546L425.73 442.958H416.952L415.465 368.83L432.226 372.546Z" fill="#C8C8C8"/>
<path d="M415.465 368.881L415.862 368.93L429.102 371.854C427.168 374.777 421.663 383.845 421.267 394.449C420.82 407.084 417.696 425.715 417.597 426.359L415.961 392.467L415.465 368.881Z" fill="#C2C2C2"/>
<path d="M411.2 332.411C411.2 332.411 409.068 336.326 411.052 346.583C412.589 354.511 407.084 373.142 407.084 373.142L434.06 372.498L451.466 366.948L449.978 347.722L433.465 328.844L411.2 332.411Z" fill="url(#paint20_linear)"/>
<path d="M442.391 373.141L444.573 418.975C444.672 418.43 447.152 403.614 447.499 393.555C447.846 383.298 454.293 374.825 454.293 374.825L453.797 374.132L442.391 373.141Z" fill="#C2C2C2"/>
<path d="M464.111 323.938L467.136 373.389L433.366 376.115C433.366 376.115 434.705 362.835 433.465 355.403C430.143 335.285 434.308 329.537 434.308 329.537L439.069 320.816L464.111 323.938Z" fill="url(#paint21_linear)"/>
<path d="M423.994 249.414C423.994 249.414 424.738 250.305 425.68 251.396C427.267 253.229 429.35 255.706 429.498 255.905C429.746 256.252 435.35 256.797 435.35 256.797C435.35 256.797 438.623 254.418 438.871 254.22C439.118 253.972 441.647 247.828 441.647 247.828C441.697 247.085 441.598 246.341 441.35 245.598C440.904 243.765 440.507 239.157 440.507 239.157L441.697 238.017L437.879 233.706C437.879 233.706 433.862 234.648 430.341 235.837C427.515 236.828 425.035 237.967 425.234 238.958C425.68 241.287 423.994 249.414 423.994 249.414Z" fill="#C8C8C8"/>
<path d="M446.457 215.175C444.573 219.783 442.044 224.094 438.97 228.058C438.87 224.54 438.771 220.576 438.771 220.576L431.829 209.774C431.829 209.774 426.92 206.404 424.688 206.107C424.093 206.008 423.3 205.909 422.506 205.81L439.713 206.305L446.457 215.175Z" fill="#F6DADF"/>
<path d="M438.97 228.058C437.036 230.585 434.903 232.963 432.573 235.143C430.837 236.828 428.953 238.414 427.019 239.851C421.663 243.765 420.027 242.626 418.837 241.932C416.704 240.693 415.861 234.301 416.804 223.251C417.052 220.427 417.547 217.652 418.341 214.976C419.184 211.706 420.572 208.634 422.407 205.81H422.506C423.3 205.909 424.043 206.008 424.688 206.107C426.92 206.404 431.829 209.774 431.829 209.774L438.771 220.576C438.771 220.526 438.87 224.49 438.97 228.058Z" fill="#C8C8C8"/>
<path d="M413.233 282.365C413.581 286.032 413.581 289.698 413.333 293.365C413.333 293.365 413.333 293.365 413.283 293.365C412.589 293.068 401.431 288.46 396.324 283.207C393.844 280.631 390.968 277.311 388.439 274.437C385.613 271.266 383.282 268.689 382.39 268.441C380.753 268.045 375.646 267.946 375.794 265.518C375.943 263.139 374.356 259.671 375.447 258.333C376.538 257.045 377.827 256.45 377.48 255.409C377.133 254.369 371.034 249.117 370.885 248.571C370.836 248.324 370.836 248.076 370.885 247.828C370.984 247.58 371.133 247.382 371.331 247.184C371.53 247.035 371.778 246.936 372.026 246.887C372.274 246.887 372.522 246.936 372.769 247.035C373.017 247.184 373.216 247.333 373.414 247.531C374.604 248.72 379.464 253.427 380.704 253.972C381.943 254.518 383.877 254.617 386.01 257.094C388.142 259.572 388.092 262.396 389.084 263.288H389.134C390.869 264.874 392.803 266.311 394.836 267.5C399.051 269.928 405.894 273.941 409.465 276.27C410.407 276.865 411.101 277.311 411.498 277.658C412.49 278.401 412.986 280.185 413.233 282.365Z" fill="#C8C8C8"/>
<path d="M408.671 266.658C408.671 266.658 404.208 276.221 404.407 279.888C404.655 282.117 405.498 284.099 406.787 285.437C408.076 286.775 409.713 287.37 411.399 287.221L415.465 286.775L419.035 267.351L413.878 261.604L408.671 266.658Z" fill="#C8C8C8"/>
<path d="M421.812 250.702C417.994 251.99 414.87 254.171 412.936 256.747C409.316 261.504 403.514 272.356 403.514 272.356C403.514 272.356 410.506 273.347 415.366 271.811L420.225 270.275L421.812 250.702Z" fill="url(#paint22_linear)"/>
<path d="M438.97 228.058C437.036 230.585 434.904 232.963 432.573 235.143C430.837 236.828 428.953 238.414 427.019 239.851C426.969 239.652 424.788 233.26 425.482 230.387C426.176 227.463 423.597 229.495 421.316 230.486C419.035 231.477 422.407 221.418 421.019 221.467C419.68 221.517 418.986 217.949 419.035 216.76C419.085 216.413 418.986 216.066 418.887 215.769C418.738 215.472 418.539 215.175 418.292 214.976C419.135 211.706 420.523 208.634 422.358 205.81H422.457C423.25 205.909 423.994 206.008 424.639 206.107C426.87 206.404 431.779 209.774 431.779 209.774L438.722 220.576C438.722 220.526 438.871 224.49 438.97 228.058Z" fill="#C8C8C8"/>
<path d="M423.994 249.414C423.994 249.414 424.738 250.306 425.68 251.396L427.664 250.356C427.812 248.175 428.159 245.995 428.655 243.865C429.25 241.982 433.019 241.684 433.019 241.684L434.06 237.373L430.341 235.937C427.515 236.928 425.035 238.067 425.234 239.058C425.68 241.288 423.994 249.414 423.994 249.414Z" fill="#C8C8C8"/>
<path d="M457.02 336.226C457.02 336.226 444.226 341.23 447.3 350.992C450.375 360.753 456.722 369.424 449.383 364.42C442.044 359.415 432.672 343.064 437.036 336.226C441.449 329.388 457.02 336.226 457.02 336.226Z" fill="url(#paint23_linear)"/>
<path d="M408.175 333.898C408.175 333.898 419.63 340.141 437.928 337.763C453.697 335.681 471.698 325.672 471.698 325.672C471.698 325.672 471.598 323.74 466.59 303.523C466.094 301.541 465.598 299.658 465.102 297.825C462.772 289.005 460.54 281.721 458.358 275.676C447.647 245.401 439.812 246.491 439.812 246.491L438.226 246.392C431.928 245.946 425.729 247.828 420.771 251.693C419.63 252.536 418.688 253.576 417.944 254.766C413.928 262.495 408.175 333.898 408.175 333.898Z" fill="#F2F2F2"/>
<path d="M418.936 195.107C418.837 194.958 418.688 194.859 418.539 194.809C418.391 194.76 418.242 194.71 418.093 194.76C417.944 194.76 417.796 194.859 417.647 194.958C417.498 195.057 417.448 195.206 417.349 195.354C416.407 197.782 415.267 202.44 416.308 206.355C417.696 211.557 419.829 211.706 420.225 214.53C420.572 217.355 420.622 218.544 422.705 218.643C424.837 218.742 425.383 217.404 424.986 219.684C424.738 221.616 424.292 223.499 423.697 225.332C423.101 226.819 421.019 228.851 422.903 227.81C424.787 226.769 427.118 221.071 428.953 221.963C430.788 222.855 432.92 227.116 430.49 227.959C428.06 228.851 426.721 231.229 427.118 232.963C427.515 234.697 428.06 238.662 429.746 239.999C431.432 241.337 438.077 242.328 440.953 241.486C444.871 240.346 448.838 236.234 450.325 232.914C451.565 229.99 453.995 217.404 451.664 210.071C449.334 202.737 442.937 196.593 438.176 196.147C434.705 195.8 425.482 201.152 422.606 198.823C421.217 197.683 420.027 196.445 418.936 195.107Z" fill="#010101"/>
<path d="M443.78 286.775C441.052 296.982 463.516 295.198 463.516 295.198C461.185 286.378 459.747 282.018 457.565 275.973C454.937 272.405 449.78 264.527 449.78 264.527L439.317 261.157C439.317 261.157 446.457 276.716 443.78 286.775Z" fill="#F2F2F2"/>
<path d="M443.68 248.225C447.697 248.274 451.367 249.315 453.995 251.198C458.954 254.567 467.83 263.09 467.83 263.09C467.83 263.09 461.483 266.211 456.375 266.261L451.267 266.311L443.68 248.225Z" fill="url(#paint24_linear)"/>
</g>
<defs>
<filter id="filter0_d" x="-5" y="-9" width="700" height="550" filterUnits="userSpaceOnUse" color-interpolation-filters="sRGB">
<feFlood flood-opacity="0" result="BackgroundImageFix"/>
<feColorMatrix in="SourceAlpha" type="matrix" values="0 0 0 0 0 0 0 0 0 0 0 0 0 0 0 0 0 0 127 0" result="hardAlpha"/>
<feOffset dy="25"/>
<feGaussianBlur stdDeviation="25"/>
<feColorMatrix type="matrix" values="0 0 0 0 0 0 0 0 0 0 0 0 0 0 0 0 0 0 0.25 0"/>
<feBlend mode="normal" in2="BackgroundImageFix" result="effect1_dropShadow"/>
<feBlend mode="normal" in="SourceGraphic" in2="effect1_dropShadow" result="shape"/>
</filter>
<linearGradient id="paint0_linear" x1="353.596" y1="252.581" x2="390.651" y2="252.581" gradientUnits="userSpaceOnUse">
<stop stop-color="#7DD3F7"/>
<stop offset="1" stop-color="#43B5E8"/>
</linearGradient>
<linearGradient id="paint1_linear" x1="164.953" y1="163.528" x2="265.871" y2="163.528" gradientUnits="userSpaceOnUse">
<stop stop-color="#7DD3F7"/>
<stop offset="1" stop-color="#43B5E8"/>
</linearGradient>
<linearGradient id="paint2_linear" x1="332.063" y1="155.316" x2="375.581" y2="155.316" gradientUnits="userSpaceOnUse">
<stop stop-color="#7DD3F7"/>
<stop offset="1" stop-color="#43B5E8"/>
</linearGradient>
<linearGradient id="paint3_linear" x1="381.922" y1="155.316" x2="425.44" y2="155.316" gradientUnits="userSpaceOnUse">
<stop stop-color="#7DD3F7"/>
<stop offset="1" stop-color="#43B5E8"/>
</linearGradient>
<linearGradient id="paint4_linear" x1="109.723" y1="276.765" x2="209.715" y2="276.765" gradientUnits="userSpaceOnUse">
<stop stop-color="#7DD3F7"/>
<stop offset="1" stop-color="#43B5E8"/>
</linearGradient>
<linearGradient id="paint5_linear" x1="72.3342" y1="315.227" x2="104.407" y2="315.227" gradientUnits="userSpaceOnUse">
<stop stop-color="#7DD3F7"/>
<stop offset="1" stop-color="#43B5E8"/>
</linearGradient>
<linearGradient id="paint6_linear" x1="487.69" y1="135.591" x2="587.246" y2="135.591" gradientUnits="userSpaceOnUse">
<stop stop-color="#7DD3F7"/>
<stop offset="1" stop-color="#43B5E8"/>
</linearGradient>
<linearGradient id="paint7_linear" x1="532.212" y1="246.107" x2="583.053" y2="246.107" gradientUnits="userSpaceOnUse">
<stop stop-color="#7DD3F7"/>
<stop offset="1" stop-color="#43B5E8"/>
</linearGradient>
<linearGradient id="paint8_linear" x1="326.737" y1="322.161" x2="375.387" y2="322.161" gradientUnits="userSpaceOnUse">
<stop stop-color="#7DD3F7"/>
<stop offset="1" stop-color="#43B5E8"/>
</linearGradient>
<linearGradient id="paint9_linear" x1="274.583" y1="322.353" x2="323.233" y2="322.353" gradientUnits="userSpaceOnUse">
<stop stop-color="#7DD3F7"/>
<stop offset="1" stop-color="#43B5E8"/>
</linearGradient>
<linearGradient id="paint10_linear" x1="77.3556" y1="276.653" x2="99.9471" y2="276.653" gradientUnits="userSpaceOnUse">
<stop stop-color="#71459B"/>
<stop offset="0.8668" stop-color="#A76DAE"/>
</linearGradient>
<linearGradient id="paint11_linear" x1="454.945" y1="137.138" x2="478.067" y2="137.138" gradientUnits="userSpaceOnUse">
<stop stop-color="#71459B"/>
<stop offset="0.8668" stop-color="#A76DAE"/>
</linearGradient>
<linearGradient id="paint12_linear" x1="138.778" y1="164.463" x2="148.716" y2="164.463" gradientUnits="userSpaceOnUse">
<stop stop-color="#71459B"/>
<stop offset="0.8668" stop-color="#A76DAE"/>
</linearGradient>
<linearGradient id="paint13_linear" x1="293.962" y1="116.066" x2="316.231" y2="116.066" gradientUnits="userSpaceOnUse">
<stop stop-color="#71459B"/>
<stop offset="0.8668" stop-color="#A76DAE"/>
</linearGradient>
<linearGradient id="paint14_linear" x1="299.379" y1="116.066" x2="310.814" y2="116.066" gradientUnits="userSpaceOnUse">
<stop stop-color="#71459B"/>
<stop offset="0.8668" stop-color="#A76DAE"/>
</linearGradient>
<linearGradient id="paint15_linear" x1="309.704" y1="110.127" x2="312.376" y2="110.127" gradientUnits="userSpaceOnUse">
<stop stop-color="#71459B"/>
<stop offset="0.8668" stop-color="#A76DAE"/>
</linearGradient>
<linearGradient id="paint16_linear" x1="246.034" y1="324.348" x2="249.584" y2="324.348" gradientUnits="userSpaceOnUse">
<stop stop-color="#71459B"/>
<stop offset="0.8668" stop-color="#A76DAE"/>
</linearGradient>
<linearGradient id="paint17_linear" x1="245.693" y1="315.002" x2="249.891" y2="315.002" gradientUnits="userSpaceOnUse">
<stop stop-color="#71459B"/>
<stop offset="0.8668" stop-color="#A76DAE"/>
</linearGradient>
<linearGradient id="paint18_linear" x1="251.854" y1="324.174" x2="262.888" y2="324.174" gradientUnits="userSpaceOnUse">
<stop stop-color="#71459B"/>
<stop offset="0.8668" stop-color="#A76DAE"/>
</linearGradient>
<linearGradient id="paint19_linear" x1="499.935" y1="246.208" x2="521.246" y2="246.208" gradientUnits="userSpaceOnUse">
<stop stop-color="#71459B"/>
<stop offset="0.8668" stop-color="#A76DAE"/>
</linearGradient>
<linearGradient id="paint20_linear" x1="407.067" y1="350.986" x2="451.438" y2="350.986" gradientUnits="userSpaceOnUse">
<stop stop-color="#71459B"/>
<stop offset="0.8668" stop-color="#A76DAE"/>
</linearGradient>
<linearGradient id="paint21_linear" x1="432.212" y1="348.476" x2="467.139" y2="348.476" gradientUnits="userSpaceOnUse">
<stop stop-color="#71459B"/>
<stop offset="0.8668" stop-color="#A76DAE"/>
</linearGradient>
<linearGradient id="paint22_linear" x1="403.505" y1="261.69" x2="421.834" y2="261.69" gradientUnits="userSpaceOnUse">
<stop stop-color="#71459B"/>
<stop offset="0.8668" stop-color="#A76DAE"/>
</linearGradient>
<linearGradient id="paint23_linear" x1="435.902" y1="349.529" x2="457.032" y2="349.529" gradientUnits="userSpaceOnUse">
<stop stop-color="#71459B"/>
<stop offset="0.8668" stop-color="#A76DAE"/>
</linearGradient>
<linearGradient id="paint24_linear" x1="443.673" y1="257.239" x2="467.832" y2="257.239" gradientUnits="userSpaceOnUse">
<stop stop-color="#71459B"/>
<stop offset="0.8668" stop-color="#A76DAE"/>
</linearGradient>
</defs>
</svg>
