<svg width="647" height="522" viewBox="0 0 647 522" fill="none" xmlns="http://www.w3.org/2000/svg">
<g filter="url(#filter0_d)">
<path d="M563.189 376.076C578.702 407.751 562.964 431.489 562.964 431.489H560.566L87.0078 436.582C15.5132 381.093 48.7125 356.681 83.2607 326.952C111.664 302.615 141.041 274.683 114.137 223.088C113.762 222.339 113.387 221.59 113.013 220.842C70.3707 142.962 101.921 74.4439 177.987 94.2132C191.927 97.9574 205.341 103.499 217.857 110.688C300.143 156.591 256.302 33.9318 351.478 21.1267C403.413 14.1625 420.35 46.2876 443.807 68.528C458.645 82.8308 476.032 93.0899 506.683 86.6499C549.7 77.6639 578.103 92.7904 582.524 120.048C586.196 142.813 573.306 173.964 538.309 206.689C533.362 211.256 528.941 215.749 525.119 220.018L524.819 220.317C496.791 251.469 494.393 275.582 503.161 296.699C507.208 305.909 512.678 314.521 519.198 322.234C524.219 328.449 529.84 334.44 535.461 340.506C540.257 345.673 545.128 350.84 549.7 356.082C550.374 356.905 551.124 357.729 551.723 358.478C554.646 361.997 557.344 365.742 559.742 369.635C561.091 371.957 562.215 373.979 563.189 376.076Z" fill="#ABE1FA"/>
<path d="M105.743 358.478C110.315 355.782 121.856 343.501 123.954 346.721C126.577 354.509 127.252 362.821 125.903 370.909C125.453 374.578 124.179 378.097 122.231 381.243C112.563 395.021 103.87 398.466 95.9259 397.268C88.7315 396.219 86.1834 392.924 80.5628 392.101C79.9632 392.026 79.2888 391.951 78.6892 391.951C78.3895 391.951 78.0897 391.951 77.7899 391.951C71.195 392.101 65.2746 397.717 52.9092 392.026C44.6656 388.207 41.3681 378.397 40.6936 371.807C40.3189 368.063 40.7686 365.367 41.5929 365.517C42.4922 365.667 43.6913 367.539 45.2651 369.71C47.8881 373.305 51.4853 377.948 55.8319 377.573C62.9514 377.049 64.3753 380.044 63.2512 375.626C62.1271 371.208 58.0802 374.653 52.6094 369.336C51.9349 368.662 51.4103 367.913 50.9607 367.09C49.0122 363.345 47.8881 359.302 47.6632 355.108C46.9888 351.064 47.4384 346.871 49.0871 343.127C51.9349 339.233 51.7101 350.316 59.2043 353.011C60.7781 353.536 62.4268 354.06 64.0006 354.434C67.373 355.183 69.3964 354.734 69.5463 353.161C69.6213 352.637 69.5463 352.113 69.3964 351.663C68.1974 347.994 48.9373 340.73 53.9584 332.718C58.9795 324.705 65.9491 319.463 66.4737 324.331C66.9983 329.198 67.2981 337.436 71.0452 336.762C74.7173 336.013 75.3918 332.868 72.1693 328.075C68.9468 323.283 64.3753 320.886 66.3238 317.517C67.373 316.019 68.4971 314.596 69.7711 313.323C74.1178 308.306 79.0639 303.813 84.4598 299.919C87.8322 297.747 90.8298 296.774 92.4786 298.346C98.4739 304.037 103.87 310.328 108.666 317.067C110.015 318.715 110.989 320.662 111.289 322.833C110.839 326.652 100.273 325.23 99.2233 330.097C98.2491 334.964 100.123 339.682 107.617 332.643C115.111 325.604 121.106 322.683 120.732 334.066C120.432 345.448 111.814 349.417 106.792 351.813C101.921 354.135 101.172 361.099 105.743 358.478Z" fill="url(#paint0_linear)"/>
<path d="M554.346 387.533C558.918 384.837 570.459 372.556 572.557 375.776C575.18 383.564 575.855 391.876 574.506 399.963C574.056 403.633 572.782 407.152 570.834 410.297C561.166 424.076 552.473 427.521 544.529 426.322C537.335 425.274 534.786 421.979 529.166 421.155C528.566 421.081 527.892 421.006 527.292 421.006C526.993 421.006 526.693 421.006 526.393 421.006C519.798 421.155 513.878 426.772 501.512 421.081C493.269 417.261 489.971 407.452 489.297 400.862C488.922 397.118 489.372 394.422 490.196 394.572C491.095 394.721 492.294 396.594 493.868 398.765C496.491 402.36 500.088 407.002 504.435 406.628C511.554 406.104 512.978 409.099 511.854 404.681C510.655 400.263 506.683 403.707 501.212 398.391C500.538 397.717 500.013 396.968 499.564 396.144C497.615 392.4 496.491 388.356 496.266 384.163C495.592 380.119 496.041 375.926 497.69 372.181C500.538 368.287 500.313 379.37 507.807 382.066C509.381 382.59 511.03 383.114 512.604 383.489C515.976 384.238 517.999 383.788 518.149 382.216C518.224 381.692 518.149 381.167 517.999 380.718C516.8 377.049 497.54 369.785 502.561 361.773C507.583 353.76 514.552 348.518 515.077 353.386C515.601 358.253 515.901 366.49 519.648 365.816C523.32 365.067 523.995 361.922 520.772 357.13C517.55 352.337 512.978 349.941 514.927 346.571C515.976 345.074 517.1 343.651 518.374 342.378C522.721 337.361 527.667 332.867 533.063 328.974C536.435 326.802 539.433 325.828 541.082 327.401C547.077 333.092 552.473 339.382 557.269 346.122C558.618 347.769 559.592 349.716 559.892 351.888C559.442 355.707 548.876 354.284 547.826 359.152C546.852 364.019 548.726 368.737 556.22 361.698C563.714 354.659 569.71 351.738 569.335 363.121C569.035 374.503 560.417 378.472 555.396 380.868C550.524 383.189 549.775 390.228 554.346 387.533Z" fill="url(#paint1_linear)"/>
<path d="M86.933 436.357C85.2843 434.859 83.3358 433.736 81.1625 433.212C75.9165 431.564 70.5956 430.291 65.1998 429.542C62.352 429.018 59.5042 428.793 56.6564 428.793C52.3098 429.018 43.6165 423.477 39.12 420.332C37.3214 419.059 36.1973 418.16 36.1973 418.16C36.1973 418.16 49.1622 411.121 62.427 412.918C73.4434 414.416 83.111 429.542 86.0337 434.634C86.5583 435.758 86.933 436.357 86.933 436.357Z" fill="url(#paint2_linear)"/>
<path d="M480.378 432.613C481.652 431.789 482.627 430.666 483.376 429.393C485.325 426.248 486.973 422.953 488.397 419.583C489.147 417.861 489.821 415.989 490.271 414.116C490.87 411.196 495.891 406.478 498.664 404.007C499.788 403.034 500.538 402.435 500.538 402.435C500.538 402.435 503.011 412.02 499.713 420.407C496.941 427.371 485.474 431.19 481.652 432.238C480.828 432.463 480.378 432.613 480.378 432.613Z" fill="url(#paint3_linear)"/>
<path d="M113.238 436.357C115.261 435.533 117.135 434.185 118.484 432.463C122.156 428.419 125.528 424.076 128.526 419.508C130.175 417.187 131.599 414.715 132.798 412.094C134.446 408.051 143.14 402.509 147.861 399.739C149.735 398.615 151.009 397.941 151.009 397.941C151.009 397.941 151.983 412.619 144.713 423.926C138.718 433.286 120.957 435.683 115.111 436.207C113.912 436.357 113.238 436.357 113.238 436.357Z" fill="url(#paint4_linear)"/>
<path d="M88.8066 374.952C86.1087 377.723 84.6099 381.392 84.5349 385.361C82.8862 381.093 80.7129 377.124 77.94 373.38C85.5092 366.79 95.2517 370.834 98.3992 365.142C100.198 361.997 88.9565 352.712 81.2375 359.901C78.2398 363.121 76.5911 367.314 76.741 371.807C74.5677 368.887 72.1695 365.891 69.6215 362.821C74.6426 355.707 83.7106 357.504 85.2094 352.038C86.1087 348.968 74.7925 342.977 69.7714 350.54C67.8978 353.685 67.3732 357.429 68.1976 361.099C66.324 358.852 64.4505 356.531 62.502 354.06C62.1273 345.598 69.0969 341.03 66.1742 335.488C64.4505 332.194 51.2607 334.964 53.2841 345.223C54.4083 349.417 57.0312 353.161 60.7034 355.782C62.5769 358.178 64.4505 360.425 66.2491 362.596C64.2257 361.174 61.9025 360.275 59.5043 359.975C49.7619 358.927 48.0382 370.609 51.2607 371.882C57.0312 374.203 61.0032 366.64 70.296 367.464C72.9189 370.609 75.3171 373.829 77.5653 377.199C73.8182 374.128 69.0969 372.481 64.3006 372.481C53.2841 373.23 53.9586 386.934 57.7806 387.682C64.8252 389.18 67.5981 379.37 78.5396 378.771C81.3874 383.189 83.111 388.132 83.7106 393.149C80.9377 389.255 76.741 386.335 72.0196 385.211C61.5278 383.339 58.68 395.77 62.0523 397.417C68.2725 400.413 73.2936 392.25 83.7855 394.272C83.9354 396.294 83.7855 398.316 83.4858 400.338C82.9612 403.782 82.7363 407.302 82.7363 410.896C80.638 408.051 77.6403 405.879 74.1929 404.906C65.5746 402.884 62.502 412.993 65.2748 414.566C70.1461 417.261 74.6426 411.196 82.7363 412.768C82.8113 417.561 83.3359 422.354 84.3101 427.146C82.9612 425.723 81.1626 424.75 79.289 424.226C72.6192 422.653 70.296 430.516 72.3943 431.639C75.9166 433.586 79.289 429.468 84.9846 430.142C85.5841 432.762 86.1837 434.335 86.2586 434.56C86.3336 434.859 86.5584 435.159 86.8581 435.308C87.1579 435.458 87.4577 435.533 87.8324 435.533H87.9823C88.282 435.458 88.5818 435.234 88.7317 434.934C88.8816 434.635 88.9565 434.335 88.8066 433.961C87.9073 431.19 87.2329 428.344 86.7832 425.499C92.254 422.129 97.7997 425.723 100.423 422.653C101.847 420.931 96.151 414.341 90.6052 417.711C88.4319 419.208 87.008 421.455 86.5584 424.076C85.6591 418.609 85.3593 413.068 85.5841 407.601C92.7036 403.108 99.973 407.901 103.345 403.857C105.219 401.686 97.7997 393.074 90.6802 397.492C88.282 399.065 86.6333 401.386 85.809 404.157C85.8839 403.183 86.0338 402.135 86.1837 401.087C86.8581 396.893 86.5584 392.55 85.4342 388.356C92.6287 381.767 101.996 385.735 105.069 380.269C106.793 376.899 96.151 368.138 88.8066 374.952Z" fill="url(#paint5_linear)"/>
<path d="M141.865 351.139C146.437 353.161 149.734 356.98 151.308 361.923C151.758 355.707 153.107 349.492 155.205 343.277C142.915 339.008 131.973 349.417 125.678 343.95C122.156 340.88 133.097 323.283 145.762 328.075C150.858 330.471 154.531 334.89 156.104 340.581C157.753 335.788 159.702 330.696 161.875 325.454C152.657 319.239 141.715 326.353 137.594 320.287C135.27 316.917 147.486 303.289 156.929 310.103C160.526 313.098 162.699 317.517 162.999 322.534C164.498 318.715 166.072 314.821 167.645 310.702C164.873 299.844 154.156 297.822 155.73 289.36C156.704 284.268 174.765 280.674 176.114 294.602C176.339 300.443 174.39 306.584 170.643 311.825C169.144 315.794 167.57 319.688 166.147 323.432C168.245 320.587 170.868 318.19 173.866 316.468C186.006 309.878 192.751 323.657 189.079 327.027C182.559 333.017 174.54 325.754 162.849 331.67C160.676 336.986 158.802 342.378 157.154 347.844C160.826 342.004 166.296 337.361 172.442 334.815C186.906 329.797 191.327 347.395 186.681 350.465C178.212 356.157 170.868 345.298 156.479 350.39C154.531 357.504 154.156 364.618 155.355 371.283C157.453 364.843 161.725 359.002 167.346 354.958C180.161 346.946 188.629 361.024 184.882 364.918C178.062 372.032 168.395 364.469 155.655 372.631C156.254 375.252 157.154 377.723 158.353 380.044C160.301 384.163 162.025 388.431 163.374 392.85C164.947 388.132 168.02 383.864 172.067 380.718C182.409 373.455 190.278 384.612 187.28 387.982C182.109 393.973 173.941 388.731 164.048 395.096C165.772 401.162 166.896 407.527 167.57 413.967C168.77 411.496 170.643 409.249 172.891 407.602C180.91 401.985 186.905 410.597 184.657 413.218C180.835 417.561 174.99 414.191 167.87 418.085C168.095 421.755 167.945 424.001 167.945 424.301C167.945 424.75 167.72 425.199 167.421 425.574C167.121 425.948 166.746 426.248 166.296 426.323H166.147C165.697 426.397 165.247 426.323 164.947 426.023C164.648 425.724 164.498 425.349 164.498 424.9C164.573 420.931 164.348 417.037 163.898 413.143C155.58 411.795 149.809 419.358 145.238 416.887C142.69 415.539 147.561 404.082 155.954 405.43C159.327 406.179 162.025 408.276 163.673 411.196C162.699 403.783 161.051 396.669 158.577 389.929C147.711 388.057 140.142 398.017 134.221 394.797C130.999 393.074 137.219 378.172 148.086 379.97C151.758 380.718 154.83 382.74 156.854 385.736C156.329 384.537 155.805 383.339 155.205 382.141C152.807 377.199 151.458 371.657 151.308 365.742C139.542 361.324 128.9 371.358 122.905 366.116C119.458 363.271 129.8 346.571 141.865 351.139Z" fill="url(#paint6_linear)"/>
<path d="M453.175 356.681C457.521 358.702 460.819 362.372 462.392 367.015C462.692 361.174 463.816 355.258 465.765 349.492C453.999 345.223 443.807 354.883 437.737 349.567C434.364 346.646 444.406 330.172 456.547 334.964C461.418 337.286 465.015 341.554 466.589 346.946C468.088 342.453 469.887 337.735 471.76 332.718C462.842 326.652 452.65 333.242 448.603 327.401C446.355 324.181 457.671 311.526 466.814 318.115C470.261 320.961 472.435 325.155 472.809 330.022C474.158 326.428 475.582 322.758 477.006 318.939C474.158 308.605 463.966 306.509 465.315 298.571C466.14 293.778 483.301 290.708 484.8 303.888C485.1 309.429 483.376 315.195 479.929 320.062C478.58 323.807 477.156 327.476 475.882 330.921C477.756 328.225 480.304 326.053 483.076 324.481C494.468 318.49 501.137 331.595 497.69 334.74C491.62 340.281 483.826 333.242 472.884 338.634C470.936 343.651 469.212 348.743 467.788 353.835C471.161 348.369 476.257 344.1 482.027 341.779C495.742 337.361 500.238 353.985 495.892 356.83C487.948 361.997 480.828 351.663 467.189 356.231C465.465 362.896 465.24 369.635 466.514 375.926C468.388 369.86 472.36 364.469 477.606 360.724C489.596 353.386 497.915 366.865 494.468 370.459C488.098 377.049 478.805 369.71 466.814 377.199C467.489 379.67 468.388 382.066 469.512 384.313C471.46 388.207 473.109 392.325 474.533 396.519C475.957 392.101 478.805 388.132 482.552 385.211C492.294 378.547 499.864 389.255 497.166 392.4C492.294 397.942 484.5 392.849 475.208 398.69C476.931 404.456 478.205 410.447 478.88 416.588C480.004 414.266 481.728 412.169 483.826 410.672C491.32 405.505 497.24 413.742 495.067 416.213C491.545 420.257 485.849 416.962 479.18 420.482C479.404 423.926 479.404 426.098 479.404 426.397C479.404 426.847 479.254 427.221 478.955 427.595C478.655 427.97 478.28 428.195 477.905 428.269H477.756C477.306 428.344 476.931 428.195 476.631 427.97C476.332 427.745 476.182 427.296 476.182 426.847C476.182 423.102 475.882 419.358 475.357 415.764C467.414 414.341 462.093 421.38 457.746 418.984C455.348 417.636 459.695 406.928 467.713 408.35C470.936 409.099 473.559 411.121 475.133 413.967C474.083 407.002 472.36 400.188 469.887 393.823C459.545 391.876 452.575 401.087 446.805 397.942C443.657 396.219 449.353 382.291 459.695 384.163C463.217 384.912 466.14 386.859 468.163 389.704C467.638 388.581 467.114 387.383 466.514 386.26C464.116 381.542 462.767 376.225 462.542 370.684C451.301 366.266 441.334 375.551 435.563 370.534C432.116 367.763 441.634 352.113 453.175 356.681Z" fill="url(#paint7_linear)"/>
<path d="M552.623 431.04C552.697 431.04 552.772 431.115 552.922 431.04C552.997 431.04 553.072 431.04 553.147 430.965C553.222 430.89 553.297 430.89 553.372 430.816C553.447 430.741 553.447 430.666 553.522 430.591C554.046 428.943 554.646 427.221 555.245 425.574C557.943 421.979 560.941 418.61 564.239 415.539C564.239 415.165 564.239 414.79 564.239 414.416C564.089 412.17 564.089 409.923 564.313 407.751C564.388 407.377 564.463 406.928 564.613 406.553C564.613 406.478 564.688 406.403 564.688 406.403C565.812 403.932 567.536 401.836 569.859 400.413C572.032 398.616 574.655 397.492 577.428 397.193C578.028 395.47 578.403 394.347 578.403 394.347C570.983 395.396 564.014 398.466 558.318 403.258C551.648 409.474 552.323 424.226 552.697 429.018L552.173 430.366C552.173 430.441 552.173 430.516 552.173 430.666C552.173 430.741 552.248 430.816 552.248 430.89C552.323 430.965 552.323 431.04 552.398 431.115C552.473 430.965 552.548 430.965 552.623 431.04Z" fill="url(#paint8_linear)"/>
<path d="M516.425 370.909C514.702 374.578 514.327 378.697 515.376 382.666C512.753 378.996 509.606 375.701 506.083 372.931C511.179 363.87 521.297 364.693 522.646 358.029C523.395 354.285 510.58 348.818 505.484 358.478C503.61 362.672 503.236 367.389 504.585 371.732C501.812 369.561 498.739 367.389 495.592 365.143C498.289 356.456 507.058 355.258 506.983 349.267C506.908 345.898 494.992 343.651 492.369 352.862C491.545 356.606 492.069 360.5 493.793 363.87C491.47 362.297 489.147 360.575 486.673 358.778C484.05 350.466 489.147 343.651 485.025 339.158C482.552 336.462 471.16 343.576 475.807 353.086C477.98 356.831 481.427 359.751 485.474 361.099C487.872 362.821 490.196 364.469 492.444 366.041C490.196 365.292 487.798 365.143 485.474 365.667C476.256 367.839 477.83 380.045 481.128 380.194C487.048 380.569 488.622 371.807 497.39 369.486C500.613 371.732 503.76 374.204 506.758 376.75C502.486 374.952 497.69 374.878 493.343 376.45C483.376 380.793 487.723 394.198 491.545 393.748C498.439 392.925 498.289 382.291 508.257 378.023C512.079 381.467 515.076 385.811 516.95 390.603C513.353 387.608 508.706 386.185 504.06 386.559C493.868 388.132 494.617 401.461 498.214 401.911C504.734 402.809 507.133 392.999 517.325 391.577C517.999 393.524 518.449 395.62 518.749 397.642C519.198 401.237 519.948 404.831 520.922 408.351C518.224 406.179 514.852 405.056 511.479 405.205C502.936 406.029 502.936 417.112 505.859 417.711C511.03 418.759 513.503 411.271 521.446 410.148C522.87 414.866 524.669 419.433 526.842 423.852C525.194 422.953 523.32 422.504 521.446 422.653C514.852 423.253 514.852 431.864 517.1 432.313C520.922 433.062 522.87 427.895 528.266 426.622C529.54 429.019 530.514 430.441 530.589 430.591C530.739 430.891 531.039 431.04 531.339 431.115C531.639 431.19 531.938 431.115 532.238 430.966L532.388 430.891C532.688 430.666 532.838 430.366 532.913 430.067C532.988 429.692 532.913 429.393 532.688 429.093C531.114 426.622 529.69 424.001 528.491 421.38C532.538 416.288 538.683 418.011 540.257 414.117C541.156 411.945 534.037 407.227 529.915 412.469C528.341 414.716 527.667 417.412 527.892 420.107C525.568 414.94 523.77 409.549 522.496 404.082C527.742 397.268 535.76 399.589 537.859 394.497C538.983 391.726 529.84 385.586 524.444 392.326C522.721 394.722 521.821 397.567 521.821 400.488C521.671 399.439 521.446 398.391 521.297 397.343C520.772 392.925 519.348 388.731 517.1 384.912C521.896 376.001 531.639 376.825 532.913 370.385C533.437 366.94 521.297 361.773 516.425 370.909Z" fill="url(#paint9_linear)"/>
<path d="M560.866 393.074C558.693 394.497 557.044 396.594 556.295 399.065C556.07 396.144 555.47 393.299 554.496 390.528C560.417 387.383 565.663 391.277 568.66 388.132C570.384 386.335 565.213 378.996 559.068 382.441C556.595 384.013 554.796 386.484 554.046 389.33C553.297 387.158 552.323 384.987 551.349 382.665C555.845 378.846 561.016 381.243 563.04 378.023C564.164 376.225 558.393 370.834 553.747 374.952C552.023 376.675 550.974 378.996 550.749 381.467C550.075 379.82 549.325 378.097 548.576 376.225C549.925 370.834 555.096 368.887 554.346 364.993C553.897 362.671 545.203 362.596 544.529 369.336C544.379 372.107 545.353 374.877 547.077 377.049C547.751 378.846 548.501 380.494 549.175 382.141C548.201 380.943 546.927 380.044 545.503 379.52C539.733 377.498 536.435 384.687 538.159 385.96C541.306 388.207 545.203 384.013 550.749 385.736C551.798 388.057 552.623 390.453 553.372 392.924C551.648 390.453 549.025 388.731 546.103 388.132C539.133 387.083 536.96 395.845 539.208 396.893C543.255 398.84 546.777 392.999 553.747 394.123C554.646 397.343 554.796 400.637 554.196 403.932C553.222 401.087 551.199 398.69 548.501 397.268C542.356 394.647 538.234 402.06 540.032 403.633C543.33 406.403 547.976 401.91 554.046 404.606C553.747 405.879 553.297 407.152 552.772 408.35C551.798 410.447 550.974 412.694 550.299 414.865C549.55 412.769 548.126 411.046 546.178 409.923C541.231 407.452 537.409 413.443 538.833 414.79C541.306 417.187 545.278 413.967 550 416.063C549.175 419.134 548.576 422.204 548.276 425.349C547.676 424.301 546.777 423.402 545.728 422.803C541.906 420.856 538.983 425.499 540.032 426.547C541.831 428.269 544.679 426.098 548.051 427.296C547.976 429.018 547.976 430.142 547.976 430.291C547.976 430.516 548.051 430.666 548.201 430.816C548.351 430.965 548.501 431.04 548.726 431.04H548.801C549.025 431.04 549.25 430.965 549.4 430.741C549.55 430.516 549.625 430.366 549.625 430.142C549.625 428.27 549.7 426.397 550 424.525C553.972 423.177 556.744 426.173 558.918 424.6C560.117 423.702 557.869 418.759 553.822 420.107C552.173 420.781 550.899 421.979 550.075 423.552C550.599 419.957 551.424 416.438 552.623 412.993C557.869 411.121 561.466 415.165 564.314 413.068C565.887 411.945 562.965 405.43 557.719 407.302C555.995 407.976 554.496 409.249 553.447 410.822C553.672 410.223 553.972 409.549 554.271 408.949C555.47 406.403 556.145 403.558 556.22 400.787C561.915 397.567 567.012 401.386 569.859 398.391C571.583 396.818 566.637 389.779 560.866 393.074Z" fill="url(#paint10_linear)"/>
<path d="M473.784 417.261C471.535 417.261 469.362 418.01 467.713 419.433C468.912 417.261 469.812 414.94 470.411 412.469C476.107 412.993 478.055 418.235 481.728 417.336C483.751 416.887 483.526 409.099 477.531 408.8C474.983 408.8 472.585 409.698 470.711 411.421C471.161 409.548 471.535 407.452 471.91 405.355C476.931 404.681 479.554 408.874 482.477 407.452C484.126 406.628 482.477 400.113 477.231 400.937C475.208 401.386 473.334 402.509 472.06 404.232C472.36 402.734 472.585 401.087 472.959 399.439C476.482 396.219 481.128 397.193 482.402 394.048C483.151 392.175 476.931 388.057 473.259 392.625C471.835 394.572 471.236 396.968 471.535 399.364C471.236 400.937 470.936 402.509 470.711 404.007C470.561 402.734 470.037 401.461 469.287 400.413C466.065 396.219 460.369 399.888 460.969 401.611C462.168 404.681 466.964 403.483 470.112 407.302C469.737 409.474 469.287 411.57 468.688 413.742C468.613 411.196 467.489 408.725 465.69 406.853C461.193 402.884 455.498 408.126 456.622 409.923C458.645 413.218 463.891 410.672 468.388 414.715C467.563 417.411 466.065 419.957 464.116 421.979C464.716 419.433 464.416 416.812 463.142 414.566C459.994 409.773 453.549 413.293 454.074 415.165C455.123 418.684 460.594 417.636 463.667 422.428C462.842 423.252 461.943 423.926 460.969 424.525C459.245 425.574 457.671 426.772 456.172 428.12C456.622 426.247 456.397 424.301 455.498 422.653C453.1 418.534 447.554 421.081 447.929 422.728C448.603 425.574 452.95 425.124 455.348 428.868C453.325 430.666 451.451 432.613 449.727 434.709C449.802 433.661 449.577 432.613 449.053 431.714C447.179 428.569 442.908 430.516 443.207 431.789C443.732 433.886 446.73 433.661 448.678 436.132C447.779 437.33 447.329 438.154 447.254 438.229C447.179 438.379 447.104 438.528 447.179 438.753C447.179 438.903 447.329 439.053 447.479 439.202L447.554 439.277C447.704 439.352 447.929 439.427 448.079 439.352C448.228 439.277 448.453 439.202 448.528 439.053C449.428 437.705 450.402 436.357 451.451 435.159C454.973 436.057 455.498 439.502 457.821 439.427C459.095 439.352 459.77 434.709 456.247 433.811C454.748 433.511 453.25 433.811 451.901 434.56C453.924 432.163 456.172 430.067 458.645 428.12C463.292 429.243 463.966 433.811 467.039 433.661C468.688 433.586 469.587 427.521 465.015 426.397C463.442 426.098 461.793 426.247 460.294 426.921C460.744 426.622 461.268 426.247 461.718 425.948C463.816 424.675 465.54 422.953 466.964 421.006C472.51 421.38 474.383 426.472 477.905 425.648C479.779 424.974 479.479 417.636 473.784 417.261Z" fill="url(#paint11_linear)"/>
<path d="M184.508 389.405C182.859 391.876 182.11 394.871 182.409 397.867C180.836 394.871 178.887 392.101 176.639 389.555C181.435 383.489 188.779 385.361 190.578 380.568C191.552 377.873 182.709 372.331 177.838 378.846C175.964 381.692 175.215 385.136 175.665 388.506C173.866 386.559 171.843 384.612 169.744 382.59C172.742 376.525 179.337 376.675 180.011 372.256C180.386 369.785 171.768 366.715 168.77 373.155C167.721 375.776 167.646 378.771 168.62 381.467C167.121 380.044 165.547 378.472 163.899 376.899C162.85 370.459 167.496 366.041 164.873 362.297C163.299 359.975 154.081 363.944 156.479 371.433C157.679 374.503 159.852 376.974 162.7 378.472C164.273 380.044 165.772 381.542 167.271 382.965C165.697 382.141 163.899 381.767 162.175 381.841C155.13 382.291 154.906 391.427 157.304 392.026C161.65 392.999 163.824 386.784 170.494 386.11C172.667 388.132 174.69 390.303 176.639 392.625C173.641 390.828 170.119 390.154 166.746 390.828C158.878 392.849 160.601 403.183 163.449 403.333C168.62 403.558 169.744 395.695 177.538 393.748C180.011 396.743 181.66 400.263 182.559 404.007C180.236 401.386 176.939 399.739 173.491 399.514C165.772 399.439 164.873 409.324 167.421 410.148C172.142 411.57 175.065 404.681 182.709 404.831C183.009 406.328 183.084 407.901 183.084 409.474C183.009 412.169 183.159 414.865 183.459 417.561C181.735 415.689 179.337 414.416 176.789 414.116C170.419 413.667 169.145 421.829 171.243 422.653C174.99 424.076 177.688 418.834 183.608 418.984C184.133 422.653 184.957 426.248 186.007 429.692C184.882 428.794 183.533 428.269 182.11 428.12C177.163 427.82 176.189 434.11 177.838 434.709C180.536 435.758 182.634 432.163 186.681 431.864C187.356 433.811 187.88 434.934 187.955 435.084C188.03 435.308 188.255 435.458 188.48 435.533C188.704 435.608 188.929 435.608 189.154 435.533L189.229 435.458C189.454 435.383 189.604 435.159 189.754 434.934C189.829 434.709 189.829 434.41 189.754 434.185C188.854 432.163 188.105 430.067 187.505 427.97C191.103 424.675 195.374 426.697 197.023 424.001C197.922 422.503 193.201 418.235 189.529 421.53C188.105 422.953 187.281 424.9 187.131 426.921C186.007 422.878 185.257 418.684 184.957 414.491C189.604 410.148 195.299 412.768 197.398 409.249C198.522 407.302 192.452 401.761 187.73 406.029C186.156 407.527 185.182 409.548 184.882 411.72C184.882 410.971 184.882 410.148 184.882 409.324C184.957 406.029 184.433 402.734 183.159 399.664C187.73 393.673 194.85 395.47 196.498 390.902C197.548 388.581 189.154 383.339 184.508 389.405Z" fill="url(#paint12_linear)"/>
<path d="M142.989 243.981V270.939C142.989 272.736 142.24 274.533 140.965 275.806C139.691 277.079 137.893 277.828 136.094 277.828H43.466C41.6673 277.828 39.8687 277.079 38.5947 275.806C37.3207 274.533 36.5713 272.736 36.5713 270.939V244.205C36.5713 242.408 37.3207 240.611 38.5947 239.338C39.8687 238.065 41.6673 237.316 43.466 237.316H136.094C137.893 237.316 139.617 238.065 140.891 239.263C142.09 240.536 142.839 242.183 142.989 243.981Z" fill="#E6E7E8"/>
<path d="M142.989 249.522V270.939C142.989 272.736 142.24 274.533 140.965 275.806C139.691 277.079 137.893 277.828 136.094 277.828H43.466C41.6673 277.828 39.8687 277.079 38.5947 275.806C37.3207 274.533 36.5713 272.736 36.5713 270.939V255.662C40.5432 254.015 45.0397 253.79 49.1615 255.063C54.7822 257.16 60.3279 259.556 65.6488 262.327C76.0657 266.371 87.6068 266.446 98.1736 262.552C101.321 261.428 104.319 259.856 107.092 257.984C112.263 254.165 116.235 248.548 122.23 246.302C125.452 245.403 128.825 245.179 132.122 245.628C135.42 246.077 138.642 247.126 141.49 248.773C141.94 249.073 142.464 249.297 142.989 249.522Z" fill="#F0EFF4"/>
<path d="M103.495 262.102L104.32 264.648C104.32 264.723 104.395 264.798 104.469 264.873C104.544 264.948 104.619 264.948 104.694 264.948H107.392C107.467 264.948 107.542 264.948 107.617 265.023C107.692 265.098 107.767 265.173 107.767 265.247C107.767 265.322 107.767 265.397 107.767 265.472C107.767 265.547 107.692 265.622 107.617 265.697L105.444 267.269C105.369 267.344 105.294 267.419 105.294 267.494C105.294 267.569 105.294 267.644 105.294 267.719L106.118 270.265C106.118 270.34 106.193 270.414 106.118 270.489C106.118 270.564 106.043 270.639 105.968 270.714C105.893 270.789 105.818 270.789 105.744 270.789C105.669 270.789 105.594 270.789 105.519 270.714L103.345 269.141C103.27 269.066 103.195 269.066 103.121 269.066C103.046 269.066 102.971 269.066 102.896 269.141L100.722 270.714C100.647 270.789 100.573 270.789 100.498 270.789C100.423 270.789 100.348 270.789 100.273 270.714C100.198 270.639 100.123 270.564 100.123 270.489C100.123 270.414 100.123 270.34 100.123 270.265L100.947 267.719C100.947 267.644 100.947 267.569 100.947 267.494C100.947 267.419 100.872 267.344 100.797 267.269L98.624 265.697C98.5491 265.622 98.4741 265.547 98.4741 265.472C98.4741 265.397 98.4741 265.322 98.4741 265.247C98.4741 265.173 98.5491 265.098 98.624 265.023C98.699 264.948 98.7739 264.948 98.8488 264.948H101.547C101.622 264.948 101.697 264.948 101.772 264.873C101.847 264.798 101.921 264.723 101.921 264.648L102.746 262.102C102.746 262.027 102.821 261.953 102.896 261.878C102.971 261.803 103.046 261.803 103.121 261.803C103.195 261.803 103.27 261.803 103.345 261.878C103.42 261.953 103.495 262.027 103.495 262.102Z" fill="url(#paint13_linear)"/>
<path d="M93.1534 262.102L93.9778 264.648C93.9778 264.723 94.0527 264.798 94.1277 264.873C94.2026 264.948 94.2776 264.948 94.3525 264.948H97.0504C97.1254 264.948 97.2003 264.948 97.2753 265.023C97.3502 265.098 97.4251 265.173 97.4251 265.247C97.4251 265.322 97.4251 265.397 97.4251 265.472C97.4251 265.547 97.3502 265.622 97.2753 265.697L95.1019 267.269C95.027 267.344 94.9521 267.419 94.9521 267.494C94.9521 267.569 94.9521 267.644 94.9521 267.719L95.7764 270.265C95.7764 270.34 95.8514 270.414 95.7764 270.489C95.7764 270.564 95.7015 270.639 95.6265 270.714C95.5516 270.789 95.4766 270.789 95.4017 270.789C95.3268 270.789 95.2518 270.789 95.1769 270.714L93.0036 269.141C92.9286 269.066 92.8537 269.066 92.7787 269.066C92.7038 269.066 92.6288 269.066 92.5539 269.141L90.3806 270.714C90.3056 270.789 90.2307 270.789 90.1558 270.789C90.0808 270.789 90.0059 270.789 89.9309 270.714C89.856 270.639 89.7811 270.564 89.7811 270.489C89.7811 270.414 89.7811 270.34 89.7811 270.265L90.6054 267.719C90.6054 267.644 90.6054 267.569 90.6054 267.494C90.6054 267.419 90.5305 267.344 90.4555 267.269L88.2822 265.697C88.2073 265.622 88.1323 265.547 88.1323 265.472C88.1323 265.397 88.1323 265.322 88.1323 265.247C88.1323 265.173 88.2073 265.098 88.2822 265.023C88.3572 264.948 88.4321 264.948 88.507 264.948H91.2049C91.2799 264.948 91.3548 264.948 91.4298 264.873C91.5047 264.798 91.5797 264.723 91.5797 264.648L92.404 262.102C92.404 262.027 92.479 261.953 92.5539 261.878C92.6288 261.803 92.7038 261.803 92.7787 261.803C92.8537 261.803 92.9286 261.803 93.0036 261.878C93.0785 261.953 93.1534 262.027 93.1534 262.102Z" fill="url(#paint14_linear)"/>
<path d="M82.8112 262.102L83.6355 264.648C83.6355 264.723 83.7105 264.798 83.7854 264.873C83.8603 264.948 83.9353 264.948 84.0102 264.948H86.7081C86.7831 264.948 86.858 264.948 86.933 265.023C87.0079 265.098 87.0828 265.173 87.0828 265.247C87.0828 265.322 87.0828 265.397 87.0828 265.472C87.0828 265.547 87.0079 265.622 86.933 265.697L84.7596 267.269C84.6847 267.344 84.6098 267.419 84.6098 267.494C84.6098 267.569 84.6098 267.644 84.6098 267.719L85.4341 270.265C85.4341 270.34 85.5091 270.414 85.4341 270.489C85.4341 270.564 85.3592 270.639 85.2842 270.714C85.2093 270.789 85.1344 270.789 85.0594 270.789C84.9845 270.789 84.9095 270.789 84.8346 270.714L82.6613 269.141C82.5863 269.066 82.5114 269.066 82.4364 269.066C82.3615 269.066 82.2866 269.066 82.2116 269.141L80.0383 270.714C79.9634 270.789 79.8884 270.789 79.8135 270.789C79.7385 270.789 79.6636 270.789 79.5886 270.714C79.5137 270.639 79.4388 270.564 79.4388 270.489C79.4388 270.414 79.4388 270.34 79.4388 270.265L80.2631 267.719C80.2631 267.644 80.2631 267.569 80.2631 267.494C80.2631 267.419 80.1882 267.344 80.1132 267.269L77.9399 265.697C77.865 265.622 77.79 265.547 77.79 265.472C77.79 265.397 77.79 265.322 77.79 265.247C77.79 265.173 77.865 265.098 77.9399 265.023C78.0149 264.948 78.0898 264.948 78.1647 264.948H80.8627C80.9376 264.948 81.0125 264.948 81.0875 264.873C81.1624 264.798 81.2374 264.723 81.2374 264.648L82.0617 262.102C82.0617 262.027 82.1367 261.953 82.2116 261.878C82.2866 261.803 82.3615 261.803 82.4364 261.803C82.5114 261.803 82.5863 261.803 82.6613 261.878C82.7362 261.953 82.7362 262.027 82.8112 262.102Z" fill="url(#paint15_linear)"/>
<path d="M113.613 262.102L112.788 264.648C112.788 264.723 112.713 264.798 112.638 264.873C112.563 264.948 112.488 264.948 112.413 264.948H109.716C109.641 264.948 109.566 264.948 109.491 265.023C109.416 265.098 109.341 265.173 109.341 265.247C109.341 265.322 109.341 265.397 109.341 265.472C109.341 265.547 109.416 265.622 109.491 265.697L111.664 267.269C111.739 267.344 111.814 267.419 111.814 267.494C111.814 267.569 111.814 267.644 111.814 267.719L110.99 270.265C110.99 270.34 110.915 270.414 110.99 270.489C110.99 270.564 111.064 270.639 111.139 270.714C111.214 270.789 111.289 270.789 111.364 270.789C111.439 270.789 111.514 270.789 111.589 270.714L113.762 269.141C113.837 269.066 113.912 269.066 113.987 269.066C114.062 269.066 114.137 269.066 114.212 269.141L116.385 270.714C116.46 270.789 116.535 270.789 116.61 270.789C116.685 270.789 116.76 270.789 116.835 270.714C116.91 270.639 116.985 270.564 116.985 270.489C116.985 270.414 116.985 270.34 116.985 270.265L116.161 267.719C116.161 267.644 116.161 267.569 116.161 267.494C116.161 267.419 116.235 267.344 116.31 267.269L118.484 265.697C118.559 265.622 118.634 265.547 118.634 265.472C118.634 265.397 118.634 265.322 118.634 265.247C118.634 265.173 118.559 265.098 118.484 265.023C118.409 264.948 118.334 264.948 118.259 264.948H115.561C115.486 264.948 115.411 264.948 115.336 264.873C115.261 264.798 115.186 264.723 115.186 264.648L114.362 262.102C114.362 262.027 114.287 261.953 114.212 261.878C114.137 261.803 114.062 261.803 113.987 261.803C113.912 261.803 113.837 261.803 113.762 261.878C113.687 261.953 113.687 262.027 113.613 262.102Z" fill="url(#paint16_linear)"/>
<path d="M124.03 262.103L123.205 264.649C123.205 264.723 123.13 264.798 123.055 264.873C122.98 264.948 122.905 264.948 122.83 264.948H120.133C120.058 264.948 119.983 264.948 119.908 265.023C119.833 265.098 119.758 265.173 119.758 265.248C119.758 265.323 119.758 265.397 119.758 265.472C119.758 265.547 119.833 265.622 119.908 265.697L122.081 267.27C122.156 267.344 122.231 267.419 122.231 267.494C122.231 267.569 122.231 267.644 122.231 267.719L121.407 270.265C121.407 270.34 121.332 270.415 121.407 270.49C121.407 270.564 121.481 270.639 121.556 270.714C121.631 270.789 121.706 270.789 121.781 270.789C121.856 270.789 121.931 270.789 122.006 270.714L124.179 269.142C124.254 269.067 124.329 269.067 124.404 269.067C124.479 269.067 124.554 269.067 124.629 269.142L126.802 270.714C126.877 270.789 126.952 270.789 127.027 270.789C127.102 270.789 127.177 270.789 127.252 270.714C127.327 270.639 127.402 270.564 127.402 270.49C127.402 270.415 127.402 270.34 127.402 270.265L126.578 267.719C126.578 267.644 126.578 267.569 126.578 267.494C126.578 267.419 126.652 267.344 126.727 267.27L128.901 265.697C128.976 265.622 129.051 265.547 129.051 265.472C129.051 265.397 129.051 265.323 129.051 265.248C129.051 265.173 128.976 265.098 128.901 265.023C128.826 264.948 128.751 264.948 128.676 264.948H125.978C125.903 264.948 125.828 264.948 125.753 264.873C125.678 264.798 125.603 264.723 125.603 264.649L124.779 262.103C124.779 262.028 124.704 261.953 124.629 261.953C124.554 261.878 124.479 261.878 124.404 261.878C124.329 261.878 124.254 261.878 124.179 261.953C124.104 262.028 124.03 262.028 124.03 262.103Z" fill="url(#paint17_linear)"/>
<path d="M55.0077 270.789C62.277 270.789 68.1975 264.873 68.1975 257.609C68.1975 250.346 62.277 244.43 55.0077 244.43C47.7383 244.43 41.8179 250.346 41.8179 257.609C41.8179 264.873 47.7383 270.789 55.0077 270.789Z" fill="white"/>
<path d="M99.748 245.628H78.6144C78.1647 245.628 77.79 246.002 77.79 246.452V251.843C77.79 252.293 78.1647 252.667 78.6144 252.667H99.748C100.198 252.667 100.572 252.293 100.572 251.843V246.452C100.647 246.002 100.198 245.628 99.748 245.628Z" fill="white"/>
<path d="M61.9773 266.146H60.5534V262.851C60.5534 262.102 60.4785 261.354 60.1787 260.68C59.8789 260.006 59.5042 259.407 58.9796 258.882C58.455 258.358 57.8555 257.909 57.181 257.684C56.5065 257.385 55.7571 257.235 55.0077 257.235C54.2583 257.235 53.5838 257.385 52.8344 257.684C52.1599 257.984 51.5604 258.358 51.0358 258.882C50.5112 259.407 50.1365 260.006 49.8367 260.68C49.5369 261.354 49.462 262.102 49.462 262.851V266.146H48.0381V262.851C48.0381 260.979 48.7875 259.257 50.0615 257.984C51.3355 256.711 53.1341 255.962 54.9328 255.962C56.8063 255.962 58.53 256.711 59.804 257.984C61.078 259.257 61.8274 261.054 61.8274 262.851V266.146H61.9773Z" fill="url(#paint18_linear)"/>
<path d="M55.0076 258.733C58.1552 258.733 60.7032 256.187 60.7032 253.042C60.7032 249.897 58.1552 247.351 55.0076 247.351C51.86 247.351 49.312 249.897 49.312 253.042C49.387 256.262 51.935 258.733 55.0076 258.733Z" fill="url(#paint19_linear)"/>
<path d="M190.728 162.507C190.728 165.053 190.203 167.524 189.229 169.846C188.255 172.167 186.831 174.264 185.032 176.061C183.234 177.858 181.135 179.281 178.812 180.255C176.489 181.228 173.941 181.752 171.468 181.752C168.92 181.752 166.446 181.228 164.123 180.255C161.8 179.281 159.702 177.858 157.903 176.061C156.104 174.264 154.681 172.167 153.706 169.846C152.732 167.524 152.208 164.978 152.208 162.507C152.208 161.384 152.282 160.261 152.507 159.137C153.332 154.42 155.955 150.151 159.777 147.231C163.599 144.31 168.395 142.888 173.191 143.337C177.988 143.786 182.484 145.958 185.707 149.477C188.854 153.072 190.728 157.715 190.728 162.507Z" fill="url(#paint20_linear)"/>
<path d="M169.819 159.811C169.894 160.56 169.819 161.309 169.594 161.983C169.369 162.657 168.994 163.331 168.545 163.855C168.095 164.379 167.495 164.828 166.821 165.203C166.146 165.502 165.397 165.652 164.723 165.727C164.048 165.727 163.299 165.577 162.699 165.278C162.025 164.978 161.5 164.604 160.975 164.08C160.526 163.555 160.151 162.956 159.926 162.282C159.701 161.608 159.627 160.934 159.701 160.186C159.627 159.437 159.701 158.688 159.926 158.014C160.151 157.34 160.526 156.666 160.975 156.142C161.5 155.618 162.025 155.168 162.699 154.869C163.374 154.569 164.123 154.42 164.797 154.42C165.472 154.42 166.221 154.569 166.821 154.794C167.495 155.094 168.02 155.468 168.545 155.992C168.994 156.516 169.369 157.115 169.594 157.789C169.894 158.388 169.968 159.137 169.819 159.811ZM162.924 160.036C162.924 161.983 163.598 163.331 164.797 163.331C166.072 163.331 166.596 162.058 166.596 160.036C166.596 158.164 166.072 156.741 164.723 156.741C163.374 156.666 162.924 158.164 162.924 160.036ZM164.947 173.44L175.589 154.345H177.912L167.271 173.44H164.947ZM183.158 167.524C183.233 168.273 183.158 169.022 182.933 169.696C182.709 170.37 182.334 171.044 181.884 171.568C181.435 172.092 180.835 172.541 180.161 172.916C179.486 173.215 178.737 173.365 178.062 173.44C177.388 173.44 176.638 173.29 176.039 172.991C175.364 172.691 174.84 172.317 174.315 171.793C173.865 171.268 173.491 170.669 173.266 169.995C173.041 169.321 172.966 168.648 173.041 167.899C172.966 167.15 173.041 166.401 173.266 165.727C173.491 165.053 173.865 164.379 174.315 163.855C174.765 163.331 175.364 162.881 176.039 162.582C176.713 162.282 177.388 162.133 178.137 162.133C178.812 162.133 179.561 162.282 180.161 162.507C180.835 162.807 181.36 163.181 181.884 163.705C182.334 164.229 182.709 164.828 182.933 165.502C183.158 166.101 183.233 166.775 183.158 167.524ZM176.264 167.674C176.264 169.621 176.863 170.969 178.137 170.969C179.411 170.969 179.936 169.696 179.936 167.674C179.936 165.802 179.486 164.379 178.137 164.379C176.788 164.379 176.264 165.877 176.264 167.674Z" fill="white"/>
<path opacity="0.17" d="M190.728 162.507C190.728 165.053 190.203 167.524 189.229 169.846C188.255 172.167 186.831 174.264 185.032 176.061C183.234 177.858 181.135 179.281 178.812 180.255C176.489 181.228 173.941 181.752 171.468 181.752C168.92 181.752 166.446 181.228 164.123 180.255C161.8 179.281 159.702 177.858 157.903 176.061C156.104 174.264 154.681 172.167 153.706 169.846C152.732 167.524 152.208 164.978 152.208 162.507C152.208 161.384 152.282 160.261 152.507 159.137C152.807 158.913 153.182 158.688 153.556 158.463C156.554 157.265 159.927 157.265 162.924 158.463C165.847 159.662 168.92 160.485 172.142 161.009C174.24 161.234 176.414 160.785 178.287 159.811C180.161 158.838 181.735 157.265 182.784 155.468C183.683 153.596 184.058 151.499 183.983 149.328C183.983 148.878 183.833 148.279 183.833 147.68C186.006 149.477 187.73 151.724 188.929 154.27C190.053 156.891 190.653 159.662 190.728 162.507Z" fill="url(#paint21_linear)"/>
<path d="M532.014 111.661C531.039 111.661 530.065 111.961 529.166 112.41C528.342 112.934 527.592 113.683 527.143 114.507C526.693 115.405 526.468 116.379 526.543 117.352C526.618 118.326 526.918 119.299 527.442 120.123L512.004 135.549C511.105 134.95 510.056 134.725 508.932 134.725C507.882 134.725 506.833 135.1 505.934 135.774L501.362 131.206C501.887 130.382 502.262 129.409 502.262 128.435C502.337 127.462 502.112 126.488 501.662 125.589C501.213 124.691 500.463 123.942 499.639 123.493C498.814 122.969 497.84 122.744 496.791 122.744C495.817 122.744 494.842 123.043 493.943 123.493C493.119 124.017 492.369 124.766 491.92 125.589C491.47 126.488 491.245 127.462 491.32 128.435C491.395 129.409 491.695 130.382 492.22 131.206L482.477 140.941C481.578 140.342 480.529 139.967 479.404 139.967C478.205 139.967 477.006 140.342 476.032 141.09C475.058 141.839 474.383 142.888 474.084 144.086C473.784 145.284 473.859 146.557 474.383 147.68C474.908 148.803 475.732 149.702 476.856 150.301C477.906 150.9 479.18 151.05 480.379 150.825C481.578 150.601 482.702 150.002 483.526 149.103C484.351 148.204 484.8 147.006 484.95 145.808C485.025 144.61 484.725 143.337 484.051 142.363L493.793 132.629C494.693 133.228 495.742 133.602 496.866 133.602C497.99 133.602 499.039 133.303 499.939 132.629L504.51 137.196C503.985 138.02 503.686 138.994 503.611 140.042C503.611 141.016 503.836 142.064 504.285 142.888C504.81 143.786 505.484 144.46 506.384 144.984C507.283 145.509 508.257 145.733 509.231 145.658C510.206 145.658 511.18 145.359 512.079 144.76C512.904 144.236 513.578 143.412 514.028 142.513C514.477 141.615 514.627 140.566 514.552 139.593C514.477 138.619 514.103 137.646 513.503 136.822L528.941 121.396C529.616 121.845 530.44 122.22 531.339 122.295C532.164 122.37 533.063 122.295 533.887 121.995C534.712 121.696 535.461 121.246 535.986 120.647C536.585 120.048 537.035 119.299 537.26 118.476C537.485 117.652 537.559 116.753 537.41 115.93C537.26 115.106 536.96 114.282 536.435 113.608C535.911 112.934 535.236 112.335 534.487 111.961C533.737 111.811 532.913 111.661 532.014 111.661ZM479.554 148.953C478.88 148.953 478.205 148.729 477.681 148.354C477.156 147.98 476.707 147.456 476.407 146.856C476.182 146.257 476.107 145.583 476.182 144.909C476.332 144.236 476.632 143.636 477.081 143.187C477.531 142.738 478.13 142.363 478.805 142.289C479.479 142.139 480.154 142.214 480.753 142.513C481.353 142.738 481.878 143.187 482.252 143.786C482.627 144.31 482.852 144.984 482.852 145.658C482.852 146.557 482.477 147.456 481.878 148.055C481.353 148.579 480.454 148.953 479.554 148.953ZM496.866 131.655C496.191 131.655 495.517 131.43 494.992 131.056C494.468 130.682 494.018 130.157 493.718 129.558C493.419 128.959 493.419 128.285 493.494 127.611C493.643 126.937 493.943 126.338 494.393 125.889C494.842 125.44 495.442 125.065 496.116 124.99C496.791 124.841 497.465 124.916 498.065 125.215C498.665 125.44 499.189 125.889 499.564 126.488C499.939 127.012 500.163 127.686 500.163 128.36C500.163 129.259 499.789 130.157 499.189 130.756C498.665 131.281 497.84 131.655 496.866 131.655ZM509.156 143.711C508.482 143.711 507.807 143.487 507.283 143.112C506.758 142.738 506.309 142.214 506.009 141.615C505.784 141.016 505.709 140.342 505.784 139.668C505.934 138.994 506.234 138.395 506.683 137.945C507.133 137.496 507.733 137.122 508.407 137.047C509.081 136.897 509.756 136.972 510.355 137.271C510.955 137.496 511.48 137.945 511.854 138.544C512.229 139.069 512.454 139.743 512.454 140.416C512.454 141.315 512.079 142.214 511.48 142.813C510.955 143.337 510.056 143.711 509.156 143.711ZM532.014 120.497C531.339 120.497 530.665 120.273 530.14 119.898C529.616 119.524 529.166 119 528.866 118.401C528.641 117.802 528.566 117.128 528.641 116.454C528.791 115.78 529.091 115.181 529.541 114.731C529.99 114.282 530.59 113.908 531.264 113.833C531.939 113.683 532.613 113.758 533.213 114.057C533.812 114.282 534.337 114.731 534.712 115.33C535.086 115.855 535.311 116.529 535.311 117.203C535.311 118.101 534.936 119 534.337 119.599C533.812 120.198 532.913 120.497 532.014 120.497Z" fill="url(#paint22_linear)"/>
<path opacity="0.1" d="M524.819 220.018C524.444 219.569 523.995 219.119 523.545 218.745C515.226 211.931 500.688 215.45 486.674 226.458C481.877 230.352 477.456 234.695 473.559 239.413C456.622 260.156 451.9 283.37 462.917 292.431C466.214 295.051 470.336 296.325 474.533 295.95C484.275 299.02 490.945 293.254 503.161 296.399C494.393 275.282 496.791 251.17 524.819 220.018ZM551.798 358.178L548.276 361.249L533.287 346.796L535.461 340.131C529.84 334.066 524.294 328.075 519.198 321.86L505.184 347.844C504.585 349.492 504.585 351.214 505.109 352.862C505.634 354.509 506.758 355.857 508.182 356.831L517.1 364.169C521.222 367.539 526.618 367.165 527.892 363.345L529.99 356.98C530.215 357.205 530.365 357.504 530.59 357.804C531.114 358.478 531.639 359.227 532.163 359.826C532.538 360.35 532.913 360.874 533.287 361.324C534.112 362.447 535.011 363.495 535.836 364.469C536.135 364.843 536.51 365.218 536.885 365.592C537.559 366.341 538.309 367.165 538.983 367.764C539.283 368.063 539.583 368.363 539.882 368.587C540.632 369.336 541.456 370.085 542.281 370.684L543.255 371.433C544.004 371.957 544.754 372.406 545.578 372.856C545.728 372.931 545.803 373.08 545.953 373.08C546.103 373.155 546.178 373.08 546.252 373.155C546.702 373.305 547.152 373.38 547.601 373.38C547.826 373.38 548.051 373.38 548.276 373.305C548.726 373.305 549.25 373.23 549.7 373.155L550.599 372.931C551.124 372.781 551.723 372.631 552.248 372.406C552.473 372.331 552.772 372.257 553.072 372.182C553.747 371.957 554.421 371.658 555.096 371.433C555.246 371.283 555.47 371.208 555.695 371.208C556.594 370.834 557.569 370.384 558.468 369.935C558.918 369.785 559.367 369.561 559.742 369.336C557.419 365.517 554.721 361.773 551.798 358.178ZM563.264 375.551C563.189 377.723 563.114 379.82 563.039 381.842V382.665C562.965 387.832 563.039 392.7 563.264 397.118C563.264 397.268 563.339 397.343 563.339 397.567C563.489 399.514 563.564 401.461 563.789 403.333C563.864 403.558 563.864 403.932 563.939 404.157C564.089 405.954 564.388 407.826 564.763 409.624V409.698C564.688 409.848 564.613 409.998 564.613 410.148C564.314 411.421 563.939 412.544 563.714 413.817C563.489 414.716 563.339 415.539 563.114 416.363L562.515 419.059C562.29 420.332 561.99 421.605 561.84 422.878C561.616 423.926 561.541 424.9 561.316 425.948C561.091 426.997 561.016 427.97 560.866 428.944C560.791 429.618 560.716 430.291 560.641 430.891H563.039C563.114 431.04 578.852 407.302 563.264 375.551Z" fill="black"/>
<path d="M462.542 195.531C460.968 193.958 459.544 192.386 458.121 190.663L460.594 188.642C461.943 190.289 463.367 191.862 464.79 193.284L462.542 195.531Z" fill="#939598"/>
<path d="M454.299 185.646C451.901 182.202 449.802 178.532 447.854 174.788L450.702 173.365C452.575 177.035 454.599 180.479 456.922 183.849L454.299 185.646ZM442.758 163.256C442.008 161.309 441.259 159.362 440.584 157.415L443.582 156.367C444.257 158.314 445.006 160.261 445.755 162.133L442.758 163.256Z" fill="#939598"/>
<path d="M77.715 190.139L74.8672 188.716C75.7665 186.844 76.6658 184.972 77.64 183.1L80.4878 184.523C79.5136 186.47 78.6143 188.342 77.715 190.139ZM86.1834 173.665L83.4106 172.092C85.434 168.423 87.5324 164.754 89.6308 161.234L92.4036 162.881C90.2303 166.401 88.2069 169.995 86.1834 173.665ZM95.5512 157.64L92.8533 155.992C95.1015 152.398 97.3498 148.878 99.598 145.508L102.221 147.306C99.9728 150.675 97.7245 154.12 95.5512 157.64ZM436.687 145.508C435.488 141.54 434.364 137.496 433.24 133.527L436.312 132.703C437.437 136.672 438.561 140.641 439.76 144.61L436.687 145.508ZM109.34 137.121L106.718 135.249C107.992 133.527 109.191 131.88 110.465 130.232L113.013 132.179C111.739 133.827 110.54 135.474 109.34 137.121ZM431.516 127.536L430.842 124.915C430.017 121.77 429.118 118.625 428.294 115.555L431.366 114.731C432.191 117.801 433.09 120.947 433.914 124.092L434.589 126.713L431.516 127.536ZM120.657 122.519L118.184 120.497C120.882 117.202 123.579 114.057 126.352 110.987L128.75 113.084C125.978 116.154 123.28 119.299 120.657 122.519ZM324.424 121.396C322.251 121.171 320.152 120.797 318.054 120.273L318.878 117.202C320.827 117.727 322.775 118.101 324.724 118.251L324.424 121.396ZM337.164 120.872L336.64 117.727C340.612 117.053 344.509 116.004 348.256 114.507L349.38 117.502C345.483 119.074 341.361 120.198 337.164 120.872ZM355.3 114.881L353.876 112.035C357.473 110.238 360.921 108.067 364.143 105.595L366.092 108.141C362.719 110.687 359.122 113.009 355.3 114.881ZM306.663 113.458C304.639 111.062 303.515 107.992 303.59 104.847C303.59 103.274 303.815 101.776 304.265 100.279L307.337 101.177C306.963 102.375 306.813 103.574 306.813 104.847C306.813 107.243 307.637 109.564 309.211 111.436L306.663 113.458ZM132.872 108.516L130.549 106.344C133.397 103.274 136.32 100.279 139.242 97.4331L141.491 99.6796C138.568 102.525 135.72 105.521 132.872 108.516ZM424.846 103.648C424.247 101.627 423.572 99.6796 422.973 97.8075L425.97 96.7591C426.645 98.7061 427.244 100.728 427.919 102.75L424.846 103.648ZM375.534 99.2303L372.912 97.3582L373.136 97.1335C374.485 95.6358 375.684 94.1382 376.883 92.7154L379.431 94.6624C378.232 96.16 376.958 97.6577 375.534 99.2303ZM309.735 95.9354L307.038 94.2879C309.361 90.6935 312.208 87.3986 315.431 84.6279L317.604 87.0242C314.532 89.5703 311.909 92.5656 309.735 95.9354ZM150.484 91.2177L148.31 88.8214C149.884 87.3986 151.458 86.0507 152.957 84.7028L155.055 87.0991C153.556 88.447 152.057 89.8698 150.484 91.2177ZM418.551 86.2754C416.977 82.5312 415.029 78.9368 412.856 75.4921L415.554 73.7698C417.802 77.3642 419.75 81.1084 421.474 85.0024L418.551 86.2754ZM386.326 83.954L383.478 82.4563C385.352 78.9368 386.776 75.1177 387.675 71.2238L390.823 71.8977C389.848 76.1661 388.35 80.2098 386.326 83.954ZM327.197 79.461L325.398 76.84C327.047 75.7168 328.846 74.5935 330.719 73.4703L332.368 76.1661C330.569 77.2893 328.846 78.4126 327.197 79.461ZM164.648 79.2363L162.624 76.6903C165.847 74.1442 169.219 71.5982 172.592 69.2019L174.465 71.8228C171.168 74.2191 167.87 76.7652 164.648 79.2363ZM409.333 70.6247C406.86 67.5545 403.863 64.8586 400.49 62.7619L402.214 60.0661C405.886 62.3875 409.109 65.3079 411.806 68.6777L409.333 70.6247ZM343.085 70.1005L341.586 67.2549C345.483 65.2331 349.305 63.4359 352.902 61.8633L354.176 64.7838C350.729 66.4312 346.982 68.1535 343.085 70.1005ZM179.561 68.2284L177.763 65.6075C181.21 63.2112 184.732 60.9647 188.254 58.7931L189.978 61.4889C186.456 63.6605 182.934 65.907 179.561 68.2284ZM391.647 65.5326L388.424 65.3828C388.424 64.8586 388.499 64.3345 388.499 63.8103C388.499 62.0131 388.35 60.141 387.975 58.3438C386.551 58.1191 385.052 58.0442 383.553 57.9693L383.628 54.7493C384.827 54.7493 386.026 54.8242 387.15 54.974C387.001 54.5996 386.926 54.1503 386.776 53.7758L389.773 52.7275C391.047 56.247 391.722 59.9912 391.647 63.8103C391.722 64.4093 391.722 65.0084 391.647 65.5326ZM359.947 62.6121L358.822 59.6168C362.794 58.1191 366.841 56.9959 370.963 56.0972L371.638 59.2424C367.666 60.0661 363.769 61.1893 359.947 62.6121ZM200.545 55.2735L198.971 52.5028C200.845 51.4545 202.643 50.481 204.442 49.5075L205.941 52.2782C204.217 53.2517 202.344 54.2252 200.545 55.2735ZM217.032 46.8117L215.683 43.8912C219.43 42.094 223.327 40.4466 227.149 38.874L228.348 41.7945C224.601 43.367 220.779 45.0893 217.032 46.8117ZM380.78 43.7414C379.431 42.2438 378.008 40.8959 376.509 39.6228L378.532 37.1517C380.181 38.4996 381.755 39.9972 383.179 41.6447L380.78 43.7414ZM234.119 39.5479L232.995 36.5526C236.892 35.0549 240.864 33.6321 244.761 32.3591L245.735 35.4293C241.838 36.7024 237.941 38.0503 234.119 39.5479ZM366.317 33.1828C362.644 31.3856 358.897 29.9628 355 28.7647L355.9 25.6945C359.947 26.8926 363.918 28.4652 367.741 30.2624L366.317 33.1828ZM257.576 31.9098L256.751 28.8396C258.775 28.3154 260.798 27.7912 262.822 27.267L263.571 30.4121C261.548 30.7865 259.599 31.3107 257.576 31.9098ZM275.637 27.7912L275.037 24.6461C277.36 24.1968 279.609 23.8224 281.782 23.5228C283.656 23.2233 285.529 22.9986 287.403 22.774L287.777 25.9191C285.979 26.1438 284.105 26.3684 282.232 26.6679C280.133 26.9675 277.885 27.3419 275.637 27.7912ZM349.08 27.267C345.108 26.3684 341.061 25.6196 337.014 25.0954L337.389 21.9503C341.586 22.4745 345.708 23.2233 349.754 24.1219L349.08 27.267ZM293.998 25.1703L293.698 22.0252C297.895 21.5759 302.091 21.2763 306.138 21.0517L306.288 24.2717C302.241 24.4214 298.119 24.721 293.998 25.1703ZM324.799 24.047C322.775 23.9721 320.752 23.8972 318.654 23.8972V20.6772C320.827 20.6772 322.85 20.7521 324.949 20.827L324.799 24.047Z" fill="#939598"/>
<path d="M69.6962 207.812L66.7734 206.539C67.5978 204.517 68.4971 202.57 69.3215 200.623L72.2442 201.896C71.4198 203.918 70.5955 205.865 69.6962 207.812Z" fill="url(#paint23_linear)"/>
<path d="M81.9866 206.464C81.9866 209.609 80.8625 212.679 78.914 215.075C76.9655 217.546 74.1927 219.194 71.1201 219.868C68.0474 220.542 64.8249 220.092 62.0521 218.67C59.2792 217.247 57.031 214.851 55.7569 212.005C54.4829 209.159 54.2581 205.939 55.0825 202.869C55.9068 199.799 57.7804 197.178 60.3284 195.306C62.8764 193.434 66.024 192.535 69.0966 192.76C72.2442 192.91 75.2419 194.183 77.5651 196.279C78.989 197.552 80.1131 199.125 80.8625 200.922C81.6119 202.645 81.9866 204.517 81.9866 206.464Z" fill="url(#paint24_linear)"/>
<path d="M68.2724 217.022C74.1179 217.022 78.8392 212.305 78.8392 206.464C78.8392 200.623 74.1179 195.905 68.2724 195.905C62.4269 195.905 57.7056 200.623 57.7056 206.464C57.7056 212.305 62.4269 217.022 68.2724 217.022Z" fill="white"/>
<path d="M68.2724 209.235C69.8461 209.235 71.0452 207.962 71.0452 206.464C71.0452 204.966 69.7712 203.693 68.2724 203.693C66.6986 203.693 65.4995 204.966 65.4995 206.464C65.4995 207.962 66.6986 209.235 68.2724 209.235Z" fill="url(#paint25_linear)"/>
<path d="M68.8719 183.999H67.5979C67.448 183.999 67.373 184.073 67.373 184.223V188.716C67.373 188.866 67.448 188.941 67.5979 188.941H68.8719C69.0218 188.941 69.0967 188.866 69.0967 188.716V184.223C69.0967 184.148 69.0218 183.999 68.8719 183.999Z" fill="url(#paint26_linear)"/>
<path d="M45.9399 205.865V207.138C45.9399 207.288 46.0149 207.362 46.1648 207.362H50.6613C50.8112 207.362 50.8861 207.288 50.8861 207.138V205.865C50.8861 205.715 50.8112 205.64 50.6613 205.64H46.1648C46.0149 205.64 45.9399 205.715 45.9399 205.865Z" fill="url(#paint27_linear)"/>
<path d="M67.823 228.854H69.097C69.2469 228.854 69.3218 228.779 69.3218 228.629V224.136C69.3218 223.986 69.2469 223.912 69.097 223.912H67.823C67.6731 223.912 67.5981 223.986 67.5981 224.136V228.629C67.5981 228.704 67.6731 228.854 67.823 228.854Z" fill="url(#paint28_linear)"/>
<path d="M90.7548 206.988V205.715C90.7548 205.565 90.6798 205.49 90.5299 205.49H86.0334C85.8835 205.49 85.8086 205.565 85.8086 205.715V206.988C85.8086 207.138 85.8835 207.213 86.0334 207.213H90.5299C90.6798 207.213 90.7548 207.063 90.7548 206.988Z" fill="url(#paint29_linear)"/>
<path d="M586.646 306.134L565.363 310.777L555.321 278.802L549.775 279.85C550.524 296.399 552.323 312.574 557.494 320.138C560.192 323.507 572.557 323.807 578.852 323.133L586.646 306.134Z" fill="#C0C2C4"/>
<path d="M549.85 279.775C549.85 279.775 546.253 276.405 546.627 273.56C547.002 270.49 553.297 269.291 554.946 270.49C556.595 271.688 553.822 274.833 554.721 275.132C555.62 275.507 556.22 273.934 556.969 274.533C557.719 275.132 555.321 278.652 555.321 278.652L549.85 279.775Z" fill="#FBD783"/>
<path d="M528.267 276.031L541.906 287.263C544.004 288.986 546.477 290.334 549.1 291.157C551.723 291.981 554.496 292.206 557.269 291.981C558.318 291.906 559.367 291.681 560.417 291.457C564.164 290.483 567.611 288.536 570.309 285.766C573.007 282.995 574.88 279.55 575.705 275.731C576.529 271.987 576.304 268.018 575.03 264.349C573.756 260.68 571.508 257.46 568.51 254.988L554.871 243.756C558.243 246.527 557.794 253.041 554.196 259.931C552.922 262.327 551.424 264.574 549.7 266.595C542.356 275.432 532.763 279.7 528.267 276.031Z" fill="url(#paint30_linear)"/>
<path d="M519.423 268.842C520.098 269.366 520.772 269.89 521.447 270.49L528.192 276.031C532.688 279.7 542.281 275.507 549.625 266.521C551.349 264.424 552.848 262.177 554.122 259.856C557.719 252.967 558.168 246.452 554.796 243.681L548.051 238.14C547.377 237.616 546.702 237.017 546.028 236.417C546.402 237.541 546.552 238.739 546.477 239.937C546.402 241.06 546.253 242.184 546.028 243.232C545.803 244.355 545.428 245.404 545.054 246.452C543.48 250.421 541.306 254.165 538.534 257.385C535.236 261.653 530.964 265.098 526.093 267.494C525.119 267.944 523.995 268.318 522.946 268.617C521.896 268.917 520.622 268.992 519.423 268.842Z" fill="white"/>
<path opacity="0.9" d="M460.818 251.544C463.666 254.09 467.039 255.962 470.636 257.235C483.826 261.429 491.619 249.223 515.076 265.622C516.5 266.521 517.924 267.644 519.498 268.917C520.697 269.067 521.896 268.992 523.095 268.692C524.144 268.468 525.268 268.093 526.243 267.569C531.114 265.173 535.311 261.728 538.683 257.46C541.456 254.165 543.629 250.496 545.203 246.527C545.578 245.478 545.952 244.43 546.177 243.307C546.402 242.258 546.627 241.135 546.627 240.012C546.702 238.814 546.552 237.616 546.177 236.492C544.678 235.219 543.33 234.021 542.13 232.823C521.446 212.979 532.013 203.019 525.268 190.888C523.32 187.593 520.772 184.748 517.774 182.426L515.901 184.673L496.116 208.561L488.397 217.996L482.402 225.26L462.692 249.297L460.818 251.544Z" fill="url(#paint31_linear)"/>
<path d="M506.683 231.175C522.421 212.08 527.367 190.139 517.774 182.276C508.182 174.414 487.648 183.474 471.91 202.57C456.172 221.665 451.226 243.606 460.819 251.469C470.411 259.407 490.945 250.346 506.683 231.175Z" fill="white"/>
<path d="M458.945 253.79C462.243 256.411 466.439 257.609 470.636 257.235C482.027 256.711 496.791 247.875 508.931 233.048C509.981 231.775 511.03 230.427 512.004 229.079C522.121 215.375 526.843 201.072 525.269 190.738C524.819 186.62 522.796 182.726 519.648 180.03C511.33 173.216 496.716 176.735 482.777 187.818C477.98 191.637 473.559 195.98 469.662 200.773C452.65 221.441 447.929 244.729 458.945 253.79ZM462.692 249.297C455.198 243.157 458.87 225.559 470.561 209.16C471.685 207.587 472.884 206.015 474.158 204.442C475.432 202.869 476.781 201.372 478.13 199.949C478.88 199.125 479.704 198.302 480.453 197.553C493.718 184.598 508.856 178.682 515.976 184.523C523.845 191.038 519.348 210.133 506.233 227.207C505.709 227.956 505.109 228.629 504.51 229.378C490.046 246.826 470.936 255.962 462.692 249.297Z" fill="url(#paint32_linear)"/>
<path opacity="0.9" d="M474.383 218.595L483.151 225.784C483.901 226.458 484.95 226.757 485.924 226.608C486.899 226.533 487.873 226.009 488.472 225.26C492.07 222.189 495.067 218.52 497.39 214.476C498.065 213.728 498.365 212.679 498.215 211.706C498.14 210.732 497.615 209.759 496.866 209.16L488.098 201.971C486.974 201.072 485.774 200.398 484.351 199.949C483.002 199.575 481.578 199.425 480.154 199.5C478.73 199.649 477.381 200.024 476.107 200.698C474.833 201.372 473.784 202.27 472.884 203.394C471.985 204.517 471.311 205.715 470.861 207.138C470.486 208.486 470.336 209.909 470.411 211.331C470.561 212.754 470.936 214.102 471.61 215.375C472.36 216.648 473.259 217.696 474.383 218.595Z" fill="url(#paint33_linear)"/>
<path opacity="0.9" d="M504.285 318.19L513.203 325.529C517.325 328.974 522.721 328.524 523.995 324.705L529.166 308.98L537.484 283.519L526.318 274.383L522.046 270.864L501.362 309.279C500.763 310.927 500.763 312.649 501.362 314.296C501.737 315.869 502.861 317.292 504.285 318.19Z" fill="url(#paint34_linear)"/>
<path opacity="0.5" d="M504.285 318.19L513.203 325.529C517.325 328.974 522.721 328.524 523.995 324.705L529.166 308.98C526.168 308.605 523.245 307.482 520.697 305.834C518.599 304.636 517.025 302.689 516.201 300.443C515.751 298.421 515.901 296.324 516.501 294.377C518.224 287.338 521.372 280.748 525.793 274.982C525.943 274.758 526.093 274.608 526.318 274.383L522.046 270.864L501.362 309.279C500.763 310.927 500.763 312.649 501.362 314.296C501.737 315.869 502.861 317.292 504.285 318.19Z" fill="#00AEEF"/>
<path d="M567.911 469.68C568.21 470.878 568.06 472.151 567.611 473.349C566.861 475.446 577.878 476.195 577.878 476.195C578.178 474.248 577.803 472.301 576.754 470.654C575.779 469.381 575.105 467.808 574.955 466.161L567.911 469.68Z" fill="#E6E7E8"/>
<path d="M584.698 362.896C582.899 390.229 573.531 400.338 573.531 410.897C573.531 421.455 577.203 467.509 577.203 467.509C573.831 469.531 569.784 470.205 565.887 469.306C560.566 443.471 555.545 413.742 555.77 404.981C556.37 390.004 559.067 375.177 563.864 360.949L584.698 362.896Z" fill="#211139"/>
<path d="M578.627 474.173C579.377 475.222 579.826 476.42 579.901 477.693C580.051 478.966 579.826 480.239 579.302 481.437C570.758 481.587 562.365 481.886 554.421 481.512C554.421 478.442 562.59 474.398 567.086 473.125C568.81 474.173 570.758 474.772 572.707 474.997C574.805 475.147 576.754 474.847 578.627 474.173Z" fill="#211139"/>
<path d="M602.384 465.561C602.908 466.685 603.058 467.958 602.833 469.231C602.534 471.477 613.475 469.905 613.475 469.905C613.4 467.958 612.576 466.086 611.227 464.663C609.953 463.614 609.054 462.192 608.529 460.619L602.384 465.561Z" fill="#E6E7E8"/>
<path d="M596.988 357.579C600.81 384.687 593.691 396.519 595.864 406.853C598.038 417.187 611.003 461.518 611.003 461.518C608.08 464.214 604.258 465.636 600.286 465.636C589.794 441.449 578.777 413.368 577.204 404.681C574.731 389.854 574.356 374.802 576.154 359.901L596.988 357.579Z" fill="#211139"/>
<path d="M613.775 467.733C614.674 468.632 615.424 469.755 615.799 470.953C616.173 472.151 616.248 473.499 615.948 474.772C607.555 476.644 599.461 478.666 591.592 479.939C590.993 476.944 598.112 471.252 602.309 469.156C604.183 469.83 606.206 470.054 608.229 469.755C610.178 469.455 612.051 468.781 613.775 467.733Z" fill="#211139"/>
<path d="M600.136 369.036C594.89 374.353 568.66 375.626 560.791 371.133C557.944 356.756 559.143 333.167 560.791 308.456C570.759 303.588 589.269 302.764 596.239 306.509C604.483 312.874 598.112 341.404 600.136 369.036Z" fill="white"/>
<path d="M585.372 304.636C584.023 302.165 583.349 299.469 583.349 296.699H575.555C576.454 299.619 576.079 302.764 574.73 305.535C575.33 306.808 584.773 306.284 585.372 304.636Z" fill="#E6E7E8"/>
<path d="M583.873 301.042C579.527 300.143 575.18 299.245 574.206 296.474C572.857 292.355 576.679 282.77 580.726 278.127L594.365 286.664L583.873 301.042Z" fill="#E6E7E8"/>
<path d="M585.897 300.443C583.573 300.667 584.248 303.588 579.302 300.817C578.702 300.368 578.178 299.844 577.728 299.17C577.353 298.496 577.128 297.747 577.053 296.998C576.979 296.249 577.053 295.5 577.353 294.752C577.578 294.003 578.028 293.404 578.552 292.805C580.576 292.805 582.899 293.029 583.648 291.906C584.548 291.157 584.248 290.109 583.648 289.135C582.599 289.21 581.55 289.435 580.651 289.959L580.501 288.012L583.798 285.241C580.651 283.444 576.604 282.396 577.203 280.224C574.356 278.652 578.927 269.965 580.875 268.842C584.473 272.661 588.894 275.656 593.691 277.753C596.988 278.876 595.114 285.616 596.014 288.312C596.239 289.809 596.239 291.307 595.789 292.73C595.414 294.152 594.74 295.5 593.765 296.699C592.791 297.822 591.592 298.795 590.243 299.394C588.894 300.143 587.395 300.443 585.897 300.443Z" fill="#2A195B"/>
<path opacity="0.1" d="M555.396 479.565C561.466 480.388 567.611 479.04 572.782 475.671L572.857 475.596C573.082 475.446 573.232 475.221 573.307 474.922C573.681 473.05 573.531 471.028 572.857 469.231C572.707 468.706 572.632 468.033 572.407 467.433C568.66 455.452 565.588 443.321 563.115 430.965C558.993 406.778 564.014 384.612 572.782 373.679C572.632 373.679 572.482 373.679 572.332 373.604C570.234 373.529 568.136 373.305 566.037 372.855C564.239 372.406 562.44 371.807 560.791 371.058C557.869 382.141 556.22 393.523 555.77 404.98C555.545 413.817 560.567 443.546 565.962 469.38C566.637 469.605 567.311 469.755 567.986 469.755C568.286 470.953 568.136 472.226 567.761 473.424C567.611 473.349 567.461 473.274 567.311 473.2C562.815 474.248 558.768 476.494 555.396 479.565Z" fill="black"/>
<path opacity="0.1" d="M576.529 400.637C576.754 402.06 576.979 403.408 577.204 404.681C578.778 413.293 589.794 441.374 600.286 465.636C600.96 465.711 601.71 465.711 602.384 465.636C602.834 466.76 602.984 468.033 602.834 469.231C602.684 469.156 602.459 469.081 602.309 469.081C598.337 471.103 594.89 474.023 592.192 477.618C597.963 476.569 606.056 473.574 607.78 470.429C607.93 470.129 608.08 469.83 608.08 469.455C608.08 469.081 608.08 468.782 607.93 468.407C607.705 467.883 607.106 466.46 606.281 464.513C606.056 464.064 605.832 463.615 605.607 463.015C599.911 449.686 586.047 416.962 583.499 407.976C580.576 397.867 580.351 392.7 583.424 385.062C580.426 389.929 578.103 395.171 576.529 400.637Z" fill="black"/>
<path d="M560.791 308.306L544.304 322.609L520.173 299.32L515.826 302.839C524.445 316.992 533.737 330.322 541.981 334.515C545.953 336.163 556.969 330.546 562.14 326.877L560.791 308.306Z" fill="white"/>
<path d="M515.826 302.914C515.826 302.914 511.105 301.716 509.981 299.02C508.856 296.174 513.728 292.056 515.826 292.355C517.925 292.655 516.875 296.699 517.925 296.549C518.899 296.474 518.674 294.826 519.648 294.976C520.622 295.126 520.248 299.394 520.248 299.394L515.826 302.914Z" fill="#E6E7E8"/>
<path opacity="0.1" d="M524.969 316.917C529.315 323.957 535.086 329.947 541.981 334.515C545.353 335.938 553.896 332.044 559.592 328.599C558.468 342.752 558.843 356.98 560.791 371.058V371.133C564.688 372.856 568.96 373.754 573.231 373.754C572.932 373.305 572.557 372.93 572.182 372.556C570.009 369.186 568.735 365.367 568.435 361.398C566.936 347.47 566.412 333.467 567.011 319.464C567.011 319.464 564.988 320.961 561.84 322.908C561.166 323.283 560.566 323.732 559.817 324.181C555.02 327.102 549.849 329.273 544.379 330.471C537.109 331.37 532.238 325.155 524.969 316.917Z" fill="black"/>
<path d="M132.273 398.166C128.826 398.84 125.678 400.562 123.355 403.033C124.779 399.664 125.753 396.144 126.128 392.625C135.046 391.576 139.018 398.316 144.488 395.994C147.561 394.721 145.613 384.088 136.32 385.361C132.423 386.11 128.901 388.132 126.353 391.052C126.652 388.281 126.802 385.361 127.027 382.291C134.521 379.894 139.392 384.837 143.664 381.991C146.062 380.419 142.24 371.807 134.371 374.503C131.299 375.701 128.676 377.873 127.027 380.568C127.102 378.397 127.252 376.075 127.477 373.679C132.273 368.138 139.542 368.138 140.891 363.42C141.716 360.574 131.374 356.83 126.652 364.169C124.929 367.314 124.404 370.833 125.228 374.053C125.079 376.375 124.929 378.621 124.854 380.793C124.329 379.071 123.355 377.498 121.931 376.225C116.16 371.433 108.067 378.172 109.416 380.344C111.814 384.238 118.933 381.093 124.554 385.511C124.404 388.581 124.104 391.726 123.58 394.796C122.905 391.277 120.807 388.207 117.659 386.185C109.94 381.991 102.296 391.052 104.32 393.149C108.067 397.043 115.636 391.951 123.28 396.219C122.53 400.263 120.732 404.157 118.109 407.601C118.634 403.932 117.584 400.338 115.186 397.567C109.416 391.951 100.123 398.69 101.397 401.161C103.72 405.654 111.889 402.584 117.584 408.275C116.46 409.623 115.186 410.896 113.837 412.02C111.439 414.041 109.191 416.138 107.092 418.46C107.392 415.764 106.718 413.143 105.069 411.046C100.572 406.104 92.5537 411.271 93.453 413.442C95.0268 417.186 101.622 415.24 106.043 419.658C103.27 422.803 100.797 426.023 98.549 429.467C98.4741 427.97 97.9495 426.622 96.9753 425.499C93.5279 421.68 87.3077 425.723 88.0572 427.296C89.1813 430.066 93.8277 428.793 97.2001 431.639C96.076 433.586 95.4764 434.859 95.4015 435.009C95.3265 435.233 95.2516 435.533 95.3265 435.758C95.4015 435.982 95.6263 436.207 95.8511 436.282L95.9261 436.357C96.2258 436.432 96.5256 436.432 96.7504 436.282C97.0502 436.132 97.275 435.982 97.35 435.683C98.3992 433.511 99.6732 431.414 101.022 429.393C106.568 429.542 108.067 434.185 111.664 433.361C113.612 432.912 113.762 426.247 108.142 426.098C105.818 426.173 103.57 426.996 101.697 428.419C104.395 424.525 107.392 420.856 110.84 417.486C118.184 417.561 120.132 423.701 124.779 422.578C127.327 421.979 127.552 413.293 120.207 413.143C117.734 413.143 115.186 413.966 113.088 415.314C113.762 414.715 114.437 414.116 115.111 413.517C118.034 411.121 120.432 408.2 122.156 405.055C130.774 403.857 134.596 410.372 139.842 408.126C142.915 406.927 141.116 396.893 132.273 398.166Z" fill="url(#paint35_linear)"/>
<path d="M188.029 243.381H441.483C446.355 243.381 451.076 245.328 454.523 248.773C457.971 252.218 459.919 256.935 459.919 261.803V429.992H169.594V261.803C169.594 256.935 171.542 252.218 174.99 248.773C178.437 245.328 183.158 243.381 188.029 243.381Z" fill="#231F20"/>
<path d="M451.6 260.005C451.6 255.887 448.228 252.517 444.106 252.517H185.406C181.284 252.517 177.912 255.887 177.912 260.005V406.478C177.912 410.597 181.284 413.966 185.406 413.966H444.106C448.228 413.966 451.6 410.597 451.6 406.478V260.005Z" fill="url(#paint36_linear)"/>
<path opacity="0.5" d="M459.919 423.027H169.594V430.066H459.919V423.027Z" fill="white"/>
<path d="M162.324 442.722H467.113C470.486 442.722 473.708 441.374 476.106 438.978C478.505 436.581 479.854 433.361 479.854 429.992H149.659C149.659 433.361 151.008 436.581 153.406 438.978C155.804 441.374 159.027 442.722 162.324 442.722Z" fill="#F1F2F2"/>
<path d="M333.866 435.458H295.421C293.997 435.458 292.573 434.859 291.599 433.886C290.55 432.837 290.025 431.489 290.025 430.066H339.337C339.337 430.815 339.187 431.489 338.888 432.163C338.588 432.837 338.213 433.436 337.689 433.886C337.164 434.41 336.564 434.784 335.965 435.084C335.29 435.308 334.616 435.458 333.866 435.458Z" fill="#666666"/>
<path d="M189.828 251.244C189.828 251.244 177.613 249.747 176.713 260.155" stroke="#231F20" stroke-width="3" stroke-miterlimit="10"/>
<path opacity="0.74" d="M424.546 442.573H195.674C195.599 440.925 196.348 439.203 197.697 437.63C202.718 432.164 216.957 428.719 231.421 427.296C245.885 425.873 261.098 426.098 275.936 425.574C290.625 425.199 305.014 423.702 318.054 421.006C319.103 420.781 320.077 420.557 320.977 420.332C332.742 417.636 341.661 413.368 346.082 408.351C348.33 405.655 348.705 402.734 347.056 399.889C345.408 397.118 341.885 394.497 336.789 392.475C329.745 390.154 321.426 388.432 312.508 387.608C296.246 385.661 279.084 384.313 264.47 380.868C249.857 377.424 238.166 370.984 241.163 364.469C241.838 363.046 243.037 361.698 244.686 360.5H364.293C367.366 362.896 368.715 365.517 368.19 368.138C367.066 373.754 357.698 378.772 358.073 384.388C358.523 390.079 368.715 394.797 376.958 399.44C385.277 404.082 392.321 410.148 386.251 415.24C383.628 417.037 380.705 418.759 377.483 420.332C374.56 421.755 373.136 423.477 373.361 425.274C373.886 426.323 375.085 427.371 376.808 428.27C378.532 429.168 380.78 429.842 383.328 430.292C388.499 431.19 393.895 431.789 399.366 432.239C407.909 433.062 416.228 434.26 424.172 435.683C425.296 435.908 426.42 436.133 427.544 436.357L430.242 438.753C432.715 440.85 430.092 442.573 424.546 442.573Z" fill="#E6E7E8"/>
<path d="M404.387 252.068L387.3 268.842L369.314 286.739L345.483 310.028L329.895 325.379L321.352 333.766C319.553 335.563 317.08 336.537 314.532 336.537C311.984 336.537 309.511 335.638 307.712 333.841L297.745 324.331L297.445 324.031L289.351 316.393L240.864 270.19L223.402 253.491L240.639 236.567L280.133 197.628L280.658 197.178L306.438 171.793C308.237 169.995 310.635 169.022 313.183 169.022C315.731 169.022 318.129 169.921 320.003 171.718L342.035 192.76L346.607 197.103L354.326 204.517H354.401L374.86 224.062L386.851 235.444L404.387 252.068Z" fill="#C9CACC"/>
<path d="M377.333 146.782L376.434 298.346C376.359 300.518 375.459 302.615 373.886 304.112C372.312 305.61 370.213 306.434 368.04 306.434H255.477C254.428 306.434 253.304 306.284 252.33 305.835C251.355 305.46 250.456 304.861 249.632 304.112C248.882 303.363 248.283 302.465 247.833 301.491C247.384 300.518 247.159 299.469 247.159 298.346L247.309 270.04L247.458 244.954L247.683 210.807L248.058 146.856C248.058 144.685 248.957 142.588 250.531 141.09C252.105 139.593 254.203 138.694 256.377 138.769H369.014C370.064 138.769 371.188 138.919 372.162 139.368C373.136 139.742 374.035 140.342 374.86 141.09C375.609 141.839 376.209 142.738 376.658 143.711C377.183 144.61 377.333 145.733 377.333 146.782Z" fill="white"/>
<path opacity="0.3" d="M336.64 154.045H312.808C312.433 154.045 312.059 153.97 311.759 153.821C311.384 153.671 311.084 153.446 310.86 153.222C310.56 152.997 310.41 152.623 310.26 152.323C310.11 151.949 310.035 151.649 310.035 151.275C310.035 150.526 310.335 149.777 310.86 149.328C311.384 148.803 312.134 148.504 312.883 148.504H336.715C337.089 148.504 337.464 148.579 337.764 148.729C338.138 148.878 338.438 149.103 338.663 149.328C338.963 149.552 339.113 149.927 339.263 150.226C339.412 150.601 339.487 150.9 339.487 151.275C339.487 152.023 339.188 152.697 338.663 153.222C338.063 153.746 337.389 154.045 336.64 154.045Z" fill="#BCBEC0"/>
<path opacity="0.3" d="M336.564 163.032H312.733C312.358 163.032 311.983 162.957 311.684 162.807C311.309 162.657 311.009 162.433 310.784 162.208C310.485 161.983 310.335 161.609 310.185 161.309C310.035 160.935 309.96 160.635 309.96 160.261C309.96 159.512 310.26 158.763 310.784 158.314C311.309 157.79 312.058 157.49 312.808 157.49H336.639C337.014 157.49 337.389 157.565 337.688 157.715C338.063 157.865 338.363 158.089 338.588 158.314C338.888 158.539 339.037 158.913 339.187 159.213C339.337 159.587 339.412 159.887 339.412 160.261C339.412 161.01 339.112 161.759 338.588 162.208C338.063 162.732 337.314 163.032 336.564 163.032Z" fill="#BCBEC0"/>
<path opacity="0.3" d="M359.721 190.289H312.583C312.208 190.289 311.834 190.214 311.534 190.065C311.159 189.915 310.859 189.69 310.634 189.466C310.335 189.241 310.185 188.866 310.035 188.567C309.885 188.193 309.81 187.893 309.81 187.519L309.885 180.554C309.885 179.806 310.185 179.132 310.709 178.607C311.234 178.083 311.983 177.784 312.733 177.784H359.871C360.246 177.784 360.621 177.859 360.921 178.008C361.295 178.158 361.595 178.383 361.82 178.607C362.12 178.832 362.269 179.206 362.419 179.506C362.569 179.88 362.644 180.18 362.644 180.554L362.569 187.519C362.569 188.267 362.269 188.941 361.745 189.466C361.22 190.065 360.471 190.289 359.721 190.289Z" fill="#BCBEC0"/>
<path opacity="0.3" d="M359.572 220.991H260.873C260.498 220.991 260.124 220.916 259.824 220.767C259.449 220.617 259.149 220.392 258.924 220.167C258.625 219.943 258.475 219.568 258.325 219.269C258.175 218.894 258.1 218.595 258.1 218.22L258.175 207.437C258.175 206.688 258.475 206.014 258.999 205.49C259.524 204.966 260.273 204.667 261.023 204.667H359.647C360.021 204.667 360.396 204.741 360.696 204.891C361.07 205.041 361.37 205.266 361.595 205.49C361.895 205.715 362.045 206.089 362.195 206.389C362.344 206.763 362.419 207.063 362.419 207.437L362.344 218.22C362.344 218.969 362.045 219.643 361.52 220.167C360.995 220.692 360.321 220.991 359.572 220.991Z" fill="#BCBEC0"/>
<path opacity="0.3" d="M359.347 247.351H260.723C260.348 247.351 259.974 247.276 259.674 247.126C259.374 246.976 258.999 246.751 258.775 246.527C258.475 246.302 258.325 245.928 258.175 245.628C258.025 245.254 257.95 244.954 257.95 244.58L258.025 233.797C258.025 233.048 258.325 232.299 258.849 231.85C259.374 231.325 260.124 231.026 260.873 231.026H359.497C359.871 231.026 360.246 231.101 360.546 231.251C360.92 231.4 361.22 231.625 361.445 231.85C361.745 232.074 361.895 232.449 362.045 232.748C362.195 233.123 362.269 233.422 362.269 233.797L362.194 244.58C362.194 245.329 361.895 246.003 361.37 246.527C360.846 247.126 360.096 247.425 359.347 247.351Z" fill="#BCBEC0"/>
<path opacity="0.86" d="M359.122 291.157H329.745C329.37 291.157 328.995 291.083 328.695 290.933C328.321 290.783 328.021 290.558 327.796 290.334C327.496 290.109 327.346 289.735 327.197 289.435C327.047 289.061 326.972 288.761 326.972 288.387L327.122 264.274C327.122 263.525 327.421 262.776 327.946 262.327C328.471 261.803 329.22 261.503 329.969 261.503H359.347C359.721 261.503 360.096 261.578 360.396 261.728C360.771 261.878 361.07 262.102 361.295 262.327C361.595 262.552 361.745 262.926 361.895 263.226C362.045 263.6 362.12 263.9 362.12 264.274L361.97 288.387C361.97 289.136 361.67 289.884 361.145 290.334C360.546 290.933 359.871 291.157 359.122 291.157Z" fill="url(#paint37_linear)"/>
<path opacity="0.3" d="M311.908 268.168H260.573C260.198 268.168 259.824 268.093 259.524 267.943C259.149 267.794 258.849 267.569 258.625 267.344C258.325 267.12 258.175 266.745 258.025 266.446C257.875 266.071 257.8 265.772 257.8 265.397V264.274C257.8 263.525 258.1 262.776 258.625 262.327C259.149 261.803 259.899 261.503 260.648 261.503H311.983C312.358 261.503 312.733 261.578 313.033 261.728C313.407 261.878 313.707 262.102 313.932 262.327C314.232 262.552 314.381 262.926 314.531 263.226C314.681 263.6 314.756 263.9 314.756 264.274V265.397C314.756 266.146 314.456 266.895 313.857 267.344C313.407 267.869 312.658 268.168 311.908 268.168Z" fill="#BCBEC0"/>
<path opacity="0.3" d="M311.908 279.7H260.573C260.198 279.7 259.824 279.625 259.524 279.476C259.149 279.326 258.849 279.101 258.625 278.877C258.325 278.652 258.175 278.278 258.025 277.978C257.875 277.678 257.8 277.304 257.8 276.93V275.806C257.8 275.057 258.1 274.309 258.625 273.859C259.149 273.41 259.899 273.036 260.648 273.036H311.983C312.358 273.036 312.733 273.111 313.033 273.26C313.407 273.41 313.707 273.635 313.932 273.859C314.232 274.084 314.381 274.458 314.531 274.758C314.681 275.132 314.756 275.432 314.756 275.806V276.93C314.756 277.678 314.456 278.352 313.932 278.877C313.332 279.401 312.658 279.7 311.908 279.7Z" fill="#BCBEC0"/>
<path opacity="0.3" d="M311.759 291.157H260.423C260.049 291.157 259.674 291.083 259.374 290.933C258.999 290.783 258.7 290.558 258.475 290.334C258.175 290.109 258.025 289.735 257.875 289.435C257.725 289.061 257.65 288.761 257.65 288.387V287.264C257.65 286.515 257.95 285.766 258.475 285.242C258.999 284.718 259.749 284.418 260.498 284.418H311.833C312.208 284.418 312.583 284.493 312.883 284.643C313.257 284.792 313.557 285.017 313.782 285.242C314.082 285.466 314.232 285.841 314.382 286.14C314.531 286.515 314.606 286.814 314.606 287.189V288.312C314.606 289.061 314.307 289.81 313.782 290.259C313.257 290.708 312.508 291.232 311.759 291.157Z" fill="#BCBEC0"/>
<path d="M345.408 267.045L347.206 272.661C347.281 272.811 347.356 272.961 347.506 273.11C347.656 273.185 347.806 273.26 348.031 273.26H354.101C354.251 273.26 354.476 273.335 354.626 273.41C354.776 273.485 354.926 273.635 354.926 273.859C355 274.009 355 274.234 354.926 274.383C354.851 274.533 354.776 274.683 354.626 274.833L349.755 278.277C349.605 278.352 349.455 278.502 349.455 278.727C349.38 278.877 349.38 279.101 349.455 279.251L351.253 284.867C351.328 285.017 351.328 285.242 351.253 285.391C351.178 285.541 351.103 285.691 350.954 285.841C350.804 285.916 350.654 285.99 350.429 285.99C350.279 285.99 350.054 285.916 349.904 285.841L345.033 282.396C344.883 282.321 344.733 282.246 344.509 282.246C344.359 282.246 344.134 282.321 343.984 282.396L339.113 285.841C338.963 285.916 338.813 285.99 338.588 285.99C338.438 285.99 338.213 285.916 338.064 285.841C337.914 285.766 337.764 285.616 337.764 285.391C337.689 285.242 337.689 285.017 337.764 284.867L339.637 279.251C339.712 279.101 339.712 278.877 339.637 278.727C339.562 278.577 339.487 278.427 339.338 278.277L334.466 274.833C334.316 274.758 334.167 274.533 334.167 274.383C334.092 274.234 334.092 274.009 334.167 273.859C334.242 273.71 334.316 273.56 334.466 273.41C334.616 273.335 334.766 273.26 334.991 273.26H341.061C341.211 273.26 341.436 273.185 341.586 273.11C341.736 273.036 341.886 272.886 341.886 272.661L343.759 267.045C343.834 266.895 343.909 266.67 344.059 266.596C344.209 266.521 344.434 266.446 344.583 266.446C344.808 266.446 344.958 266.521 345.108 266.596C345.258 266.745 345.333 266.895 345.408 267.045Z" fill="#F3EFFE"/>
<path d="M337.764 138.619H317.08C317.155 135.923 318.279 133.302 320.227 131.43C322.176 129.558 324.799 128.51 327.497 128.51C328.845 128.51 330.194 128.734 331.394 129.259C332.668 129.783 333.792 130.532 334.766 131.43C335.74 132.404 336.49 133.527 337.014 134.725C337.464 135.923 337.764 137.271 337.764 138.619Z" fill="#DDDDDD"/>
<path opacity="0.1" d="M333.267 138.619C331.244 139.218 329.445 140.491 328.171 142.139C326.897 143.786 326.223 145.733 326.148 147.83L325.623 233.497L325.398 264.199H247.384L247.534 240.236L247.758 207.587L248.133 146.407C248.133 144.31 249.033 142.363 250.606 140.866C252.18 139.443 254.278 138.619 256.452 138.619H333.267Z" fill="black"/>
<path d="M327.422 128.51C324.724 128.51 322.101 129.558 320.152 131.505C318.204 133.452 317.08 136.073 317.005 138.919L316.48 230.651L316.255 263.525H232.021L232.47 183.999L232.695 138.769C232.77 135.998 233.894 133.303 235.843 131.43C237.791 129.483 240.414 128.435 243.112 128.435L327.422 128.51Z" fill="#FBFBFB"/>
<path d="M294.597 186.694C294.597 190.214 293.698 193.734 291.974 196.879C290.325 200.024 287.927 202.72 284.929 204.741C281.032 207.437 276.461 208.86 271.815 208.86C267.093 208.86 262.522 207.437 258.7 204.741C255.777 202.72 253.454 200.024 251.805 196.879C250.156 193.734 249.332 190.289 249.332 186.769C249.407 180.854 251.88 175.162 256.152 171.044C260.423 166.925 266.119 164.604 272.114 164.679C275.037 164.604 277.96 165.203 280.658 166.251C283.356 167.3 285.829 168.947 287.927 171.044C290.026 173.066 291.674 175.537 292.798 178.233C293.997 180.854 294.597 183.774 294.597 186.694Z" fill="url(#paint38_linear)"/>
<path d="M283.431 199.575V200.473C280.058 202.795 276.011 204.068 271.889 204.068C267.768 204.068 263.721 202.795 260.423 200.473V199.575C260.423 197.403 261.098 195.306 262.297 193.509C263.496 191.712 265.22 190.289 267.243 189.465C265.744 188.641 264.47 187.443 263.571 185.946C262.672 184.448 262.222 182.801 262.222 181.003C262.297 178.457 263.346 175.986 265.22 174.189C267.093 172.392 269.566 171.418 272.114 171.418C274.288 171.343 276.386 172.092 278.11 173.365C279.833 174.638 281.032 176.51 281.632 178.607C282.157 180.704 282.007 182.875 281.107 184.897C280.208 186.844 278.709 188.492 276.761 189.465C278.035 189.989 279.159 190.738 280.133 191.712C281.182 192.76 282.007 193.958 282.606 195.306C283.131 196.579 283.431 198.077 283.431 199.575Z" fill="#F3EFFE"/>
<path d="M405.287 352.038C405.287 356.98 403.338 361.773 399.891 365.292C396.443 368.812 391.647 370.834 386.701 370.909L243.262 372.032C240.789 372.032 238.316 371.583 236.068 370.684C233.744 369.785 231.721 368.437 229.922 366.715C228.199 364.993 226.775 362.896 225.8 360.65C224.826 358.403 224.377 355.932 224.302 353.461L223.852 299.395L223.402 251.319L307.712 298.047C309.586 299.769 311.984 300.743 314.532 300.743C317.08 300.743 319.478 299.694 321.352 297.972L404.312 249.896L404.537 271.163L405.287 352.038Z" fill="white"/>
<path d="M405.286 354.209C405.286 359.152 403.338 363.944 399.89 367.464C396.443 370.983 391.647 373.005 386.701 373.08L243.262 374.203C240.788 374.203 238.315 373.754 236.067 372.855C233.744 371.957 231.72 370.609 229.922 368.812C228.123 367.014 226.774 364.992 225.8 362.746C224.826 360.499 224.376 358.028 224.301 355.557L223.852 301.491C232.395 301.416 240.863 302.989 248.807 306.059C265.519 311.9 281.257 320.137 298.494 324.181C315.655 328.225 335.215 327.401 349.005 316.468C357.398 309.878 362.794 300.368 369.164 291.831C375.459 283.294 383.628 275.132 393.97 273.26C397.417 272.661 401.014 272.661 404.462 273.185L405.286 354.209Z" fill="#E6E7E8"/>
</g>
<defs>
<filter id="filter0_d" x="-30" y="-14" width="706" height="543" filterUnits="userSpaceOnUse" color-interpolation-filters="sRGB">
<feFlood flood-opacity="0" result="BackgroundImageFix"/>
<feColorMatrix in="SourceAlpha" type="matrix" values="0 0 0 0 0 0 0 0 0 0 0 0 0 0 0 0 0 0 127 0" result="hardAlpha"/>
<feOffset dy="10"/>
<feGaussianBlur stdDeviation="15"/>
<feColorMatrix type="matrix" values="0 0 0 0 0 0 0 0 0 0 0 0 0 0 0 0 0 0 0.25 0"/>
<feBlend mode="normal" in2="BackgroundImageFix" result="effect1_dropShadow"/>
<feBlend mode="normal" in="SourceGraphic" in2="effect1_dropShadow" result="shape"/>
</filter>
<linearGradient id="paint0_linear" x1="40.5872" y1="347.493" x2="126.582" y2="347.493" gradientUnits="userSpaceOnUse">
<stop stop-color="#75DAFF"/>
<stop offset="1" stop-color="#00BAFF"/>
</linearGradient>
<linearGradient id="paint1_linear" x1="489.176" y1="376.591" x2="575.171" y2="376.591" gradientUnits="userSpaceOnUse">
<stop stop-color="#75DAFF"/>
<stop offset="1" stop-color="#00BAFF"/>
</linearGradient>
<linearGradient id="paint2_linear" x1="36.1259" y1="424.505" x2="86.911" y2="424.505" gradientUnits="userSpaceOnUse">
<stop stop-color="#71439A"/>
<stop offset="0.8668" stop-color="#A76CAD"/>
</linearGradient>
<linearGradient id="paint3_linear" x1="496.403" y1="401.413" x2="488.139" y2="434.562" gradientUnits="userSpaceOnUse">
<stop stop-color="#71439A"/>
<stop offset="0.8668" stop-color="#A76CAD"/>
</linearGradient>
<linearGradient id="paint4_linear" x1="145.299" y1="395.298" x2="123.981" y2="441.357" gradientUnits="userSpaceOnUse">
<stop stop-color="#71439A"/>
<stop offset="0.8668" stop-color="#A76CAD"/>
</linearGradient>
<linearGradient id="paint5_linear" x1="39.0342" y1="366.337" x2="109.712" y2="405.724" gradientUnits="userSpaceOnUse">
<stop stop-color="#71439A"/>
<stop offset="0.8668" stop-color="#A76CAD"/>
</linearGradient>
<linearGradient id="paint6_linear" x1="202.788" y1="313.561" x2="126.792" y2="401.1" gradientUnits="userSpaceOnUse">
<stop stop-color="#75DAFF"/>
<stop offset="1" stop-color="#00BAFF"/>
</linearGradient>
<linearGradient id="paint7_linear" x1="510.386" y1="322.262" x2="439.782" y2="403.6" gradientUnits="userSpaceOnUse">
<stop stop-color="#75DAFF"/>
<stop offset="1" stop-color="#00BAFF"/>
</linearGradient>
<linearGradient id="paint8_linear" x1="-987.215" y1="412.614" x2="-943.677" y2="412.614" gradientUnits="userSpaceOnUse">
<stop stop-color="#71439A"/>
<stop offset="0.8668" stop-color="#A76CAD"/>
</linearGradient>
<linearGradient id="paint9_linear" x1="474.609" y1="385.549" x2="540.084" y2="385.549" gradientUnits="userSpaceOnUse">
<stop stop-color="#71439A"/>
<stop offset="0.8668" stop-color="#A76CAD"/>
</linearGradient>
<linearGradient id="paint10_linear" x1="537.836" y1="397.345" x2="570.266" y2="397.345" gradientUnits="userSpaceOnUse">
<stop stop-color="#71439A"/>
<stop offset="0.8668" stop-color="#A76CAD"/>
</linearGradient>
<linearGradient id="paint11_linear" x1="455.226" y1="409.62" x2="478.542" y2="424.779" gradientUnits="userSpaceOnUse">
<stop stop-color="#71439A"/>
<stop offset="0.8668" stop-color="#A76CAD"/>
</linearGradient>
<linearGradient id="paint12_linear" x1="162.025" y1="404.483" x2="196.365" y2="389.746" gradientUnits="userSpaceOnUse">
<stop stop-color="#71439A"/>
<stop offset="0.8668" stop-color="#A76CAD"/>
</linearGradient>
<linearGradient id="paint13_linear" x1="98.4735" y1="266.351" x2="107.821" y2="266.351" gradientUnits="userSpaceOnUse">
<stop stop-color="#71439A"/>
<stop offset="0.8668" stop-color="#A76CAD"/>
</linearGradient>
<linearGradient id="paint14_linear" x1="88.1137" y1="266.351" x2="97.4614" y2="266.351" gradientUnits="userSpaceOnUse">
<stop stop-color="#71439A"/>
<stop offset="0.8668" stop-color="#A76CAD"/>
</linearGradient>
<linearGradient id="paint15_linear" x1="77.7281" y1="266.351" x2="87.0759" y2="266.351" gradientUnits="userSpaceOnUse">
<stop stop-color="#71439A"/>
<stop offset="0.8668" stop-color="#A76CAD"/>
</linearGradient>
<linearGradient id="paint16_linear" x1="109.352" y1="266.351" x2="118.7" y2="266.351" gradientUnits="userSpaceOnUse">
<stop stop-color="#71439A"/>
<stop offset="0.8668" stop-color="#A76CAD"/>
</linearGradient>
<linearGradient id="paint17_linear" x1="119.739" y1="266.364" x2="129.086" y2="266.364" gradientUnits="userSpaceOnUse">
<stop stop-color="#71439A"/>
<stop offset="0.8668" stop-color="#A76CAD"/>
</linearGradient>
<linearGradient id="paint18_linear" x1="48.1136" y1="261.016" x2="61.9761" y2="261.016" gradientUnits="userSpaceOnUse">
<stop stop-color="#71439A"/>
<stop offset="0.8668" stop-color="#A76CAD"/>
</linearGradient>
<linearGradient id="paint19_linear" x1="49.3754" y1="253.109" x2="60.703" y2="253.109" gradientUnits="userSpaceOnUse">
<stop stop-color="#71439A"/>
<stop offset="0.8668" stop-color="#A76CAD"/>
</linearGradient>
<linearGradient id="paint20_linear" x1="152.193" y1="162.506" x2="190.694" y2="162.506" gradientUnits="userSpaceOnUse">
<stop stop-color="#71439A"/>
<stop offset="0.8668" stop-color="#A76CAD"/>
</linearGradient>
<linearGradient id="paint21_linear" x1="149.268" y1="164.742" x2="187.768" y2="164.742" gradientUnits="userSpaceOnUse">
<stop stop-color="#71439A"/>
<stop offset="0.8668" stop-color="#A76CAD"/>
</linearGradient>
<linearGradient id="paint22_linear" x1="474.04" y1="131.338" x2="537.516" y2="131.338" gradientUnits="userSpaceOnUse">
<stop stop-color="#71439A"/>
<stop offset="0.8668" stop-color="#A76CAD"/>
</linearGradient>
<linearGradient id="paint23_linear" x1="66.7849" y1="204.233" x2="72.2614" y2="204.233" gradientUnits="userSpaceOnUse">
<stop stop-color="#71439A"/>
<stop offset="0.8668" stop-color="#A76CAD"/>
</linearGradient>
<linearGradient id="paint24_linear" x1="54.563" y1="206.401" x2="82.0163" y2="206.401" gradientUnits="userSpaceOnUse">
<stop stop-color="#71439A"/>
<stop offset="0.8668" stop-color="#A76CAD"/>
</linearGradient>
<linearGradient id="paint25_linear" x1="65.4698" y1="206.427" x2="71.0353" y2="206.427" gradientUnits="userSpaceOnUse">
<stop stop-color="#71439A"/>
<stop offset="0.8668" stop-color="#A76CAD"/>
</linearGradient>
<linearGradient id="paint26_linear" x1="67.3962" y1="186.49" x2="69.1125" y2="186.49" gradientUnits="userSpaceOnUse">
<stop stop-color="#71439A"/>
<stop offset="0.8668" stop-color="#A76CAD"/>
</linearGradient>
<linearGradient id="paint27_linear" x1="45.9309" y1="206.514" x2="50.8698" y2="206.514" gradientUnits="userSpaceOnUse">
<stop stop-color="#71439A"/>
<stop offset="0.8668" stop-color="#A76CAD"/>
</linearGradient>
<linearGradient id="paint28_linear" x1="67.5814" y1="226.353" x2="69.2977" y2="226.353" gradientUnits="userSpaceOnUse">
<stop stop-color="#71439A"/>
<stop offset="0.8668" stop-color="#A76CAD"/>
</linearGradient>
<linearGradient id="paint29_linear" x1="85.8245" y1="206.331" x2="90.7626" y2="206.331" gradientUnits="userSpaceOnUse">
<stop stop-color="#71439A"/>
<stop offset="0.8668" stop-color="#A76CAD"/>
</linearGradient>
<linearGradient id="paint30_linear" x1="528.254" y1="267.819" x2="576.174" y2="267.819" gradientUnits="userSpaceOnUse">
<stop stop-color="#71439A"/>
<stop offset="0.8668" stop-color="#A76CAD"/>
</linearGradient>
<linearGradient id="paint31_linear" x1="460.814" y1="225.608" x2="546.626" y2="225.608" gradientUnits="userSpaceOnUse">
<stop stop-color="#75DAFF"/>
<stop offset="1" stop-color="#00BAFF"/>
</linearGradient>
<linearGradient id="paint32_linear" x1="453.012" y1="216.922" x2="525.557" y2="216.922" gradientUnits="userSpaceOnUse">
<stop stop-color="#71439A"/>
<stop offset="0.8668" stop-color="#A76CAD"/>
</linearGradient>
<linearGradient id="paint33_linear" x1="470.431" y1="213.094" x2="498.203" y2="213.094" gradientUnits="userSpaceOnUse">
<stop stop-color="#75DAFF"/>
<stop offset="1" stop-color="#00BAFF"/>
</linearGradient>
<linearGradient id="paint34_linear" x1="500.805" y1="299.328" x2="537.384" y2="299.328" gradientUnits="userSpaceOnUse">
<stop stop-color="#75DAFF"/>
<stop offset="1" stop-color="#00BAFF"/>
</linearGradient>
<linearGradient id="paint35_linear" x1="104.611" y1="371.646" x2="127.77" y2="426.612" gradientUnits="userSpaceOnUse">
<stop stop-color="#71439A"/>
<stop offset="0.8668" stop-color="#A76CAD"/>
</linearGradient>
<linearGradient id="paint36_linear" x1="177.911" y1="333.195" x2="451.589" y2="333.195" gradientUnits="userSpaceOnUse">
<stop stop-color="#75DAFF"/>
<stop offset="1" stop-color="#00BAFF"/>
</linearGradient>
<linearGradient id="paint37_linear" x1="326.884" y1="276.328" x2="362.116" y2="276.328" gradientUnits="userSpaceOnUse">
<stop stop-color="#71439A"/>
<stop offset="0.8668" stop-color="#A76CAD"/>
</linearGradient>
<linearGradient id="paint38_linear" x1="249.31" y1="186.713" x2="294.603" y2="186.713" gradientUnits="userSpaceOnUse">
<stop stop-color="#71439A"/>
<stop offset="0.8668" stop-color="#A76CAD"/>
</linearGradient>
</defs>
</svg>
