<svg width="65" height="65" viewBox="0 0 65 65" fill="none" xmlns="http://www.w3.org/2000/svg">
<path d="M43.1004 14.4L38.9004 25.4L50.7004 21.8L45.4004 19.9L43.1004 14.4Z" stroke="#00B9F2" stroke-width="2" stroke-miterlimit="10" stroke-linecap="round" stroke-linejoin="round"/>
<path d="M45.4004 19.9L56.8004 8.50005V2.30005L49.7004 8.80005L49.8004 14.4" stroke="#00B9F2" stroke-width="2" stroke-miterlimit="10" stroke-linecap="round" stroke-linejoin="round"/>
<path d="M56.8006 8.5H62.4006L56.3006 15.4L51.1006 14.4" stroke="#00B9F2" stroke-width="2" stroke-miterlimit="10" stroke-linecap="round" stroke-linejoin="round"/>
<path d="M27.1002 34.4001C29.8064 34.4001 32.0002 32.2063 32.0002 29.5001C32.0002 26.7939 29.8064 24.6001 27.1002 24.6001C24.394 24.6001 22.2002 26.7939 22.2002 29.5001C22.2002 32.2063 24.394 34.4001 27.1002 34.4001Z" stroke="#00B9F2" stroke-width="2" stroke-miterlimit="10" stroke-linecap="round" stroke-linejoin="round"/>
<path d="M40.5001 21.4C40.5001 21.4 34.4001 15.7 24.1001 17C13.8001 18.3 7.50007 28.7 6.90007 33.8C6.30006 38.9 6.80006 48.4 14.7001 54.1C22.6001 59.8 34.8001 60.4 42.9001 51.6C51.0001 42.8 49.4001 31.1 43.3001 24" stroke="#00B9F2" stroke-width="2" stroke-miterlimit="10" stroke-linecap="round" stroke-linejoin="round"/>
<path d="M41.2004 17.3C34.1004 11.4 23.3004 13.1 23.3004 13.1C11.0004 14.6 3.60041 27.1 2.80041 33.3C2.00041 39.5 2.70041 50.8 12.2004 57.6C21.7004 64.4 36.3004 65.1 45.9004 54.6C45.9004 54.6 59.0004 39.5 48.0004 23.5" stroke="#00B9F2" stroke-width="2" stroke-miterlimit="10" stroke-linecap="round" stroke-linejoin="round"/>
<path d="M21 36.3C21 36.3 29.6 30.7 36.7 39.3" stroke="#00B9F2" stroke-width="2" stroke-miterlimit="10" stroke-linecap="round" stroke-linejoin="round"/>
<path d="M17.6004 37.8001L21.7004 37.6001L15.6004 31.2001L9.40039 37.6001H13.0004C13.0004 37.6001 12.3004 47.3001 21.7004 51.5001C31.1004 55.7001 41.8004 49.4001 42.7004 37.6001H37.3004C37.3004 37.6001 37.4004 46.4001 28.9004 47.6001C20.4004 48.8001 16.9004 40.7001 17.6004 37.8001Z" stroke="#00B9F2" stroke-width="2" stroke-miterlimit="10" stroke-linecap="round" stroke-linejoin="round"/>
<path d="M33.4004 23.7001L41.0004 31.2001L33.4004 23.7001Z" stroke="#00B9F2" stroke-width="2" stroke-miterlimit="10" stroke-linecap="round" stroke-linejoin="round"/>
</svg>
