<svg width="65" height="65" viewBox="0 0 65 65" fill="none" xmlns="http://www.w3.org/2000/svg">
<path d="M23.4998 37.8C31.8945 37.8 38.6998 30.9948 38.6998 22.6C38.6998 14.2053 31.8945 7.40002 23.4998 7.40002C15.1051 7.40002 8.2998 14.2053 8.2998 22.6C8.2998 30.9948 15.1051 37.8 23.4998 37.8Z" stroke="#00B9F2" stroke-width="2" stroke-miterlimit="10"/>
<path d="M23.5002 42.6C34.4354 42.6 43.3002 33.7352 43.3002 22.8C43.3002 11.8648 34.4354 3 23.5002 3C12.565 3 3.7002 11.8648 3.7002 22.8C3.7002 33.7352 12.565 42.6 23.5002 42.6Z" stroke="#00B9F2" stroke-width="2" stroke-miterlimit="10"/>
<path d="M12.6006 21.9C12.6006 21.9 13.6006 18.5 15.5006 16.6" stroke="#00B9F2" stroke-width="2" stroke-miterlimit="10" stroke-linecap="round" stroke-linejoin="round"/>
<path d="M17.4004 14.5C17.4004 14.5 19.1004 12.7 20.9004 12.2" stroke="#00B9F2" stroke-width="2" stroke-miterlimit="10" stroke-linecap="round" stroke-linejoin="round"/>
<path d="M57.5998 60C56.4998 61.1 54.6998 61.1 53.5998 60L40.4998 46.9001C39.3998 45.8001 39.3998 44.0001 40.4998 42.9001L43.8998 39.5C44.9998 38.4 46.7998 38.4 47.8998 39.5L60.9998 52.6C62.0998 53.7 62.0998 55.5 60.9998 56.6L57.5998 60Z" stroke="#00B9F2" stroke-width="2" stroke-miterlimit="10" stroke-linecap="round" stroke-linejoin="round"/>
<path d="M35.5 38.6L40.1 42.9" stroke="#00B9F2" stroke-width="2" stroke-miterlimit="10" stroke-linecap="round" stroke-linejoin="round"/>
<path d="M39.2002 34.8L43.5002 38.8" stroke="#00B9F2" stroke-width="2" stroke-miterlimit="10" stroke-linecap="round" stroke-linejoin="round"/>
<path d="M49 41.8L43 48" stroke="#00B9F2" stroke-width="2" stroke-miterlimit="10" stroke-linecap="round" stroke-linejoin="round"/>
<path d="M58.7002 51.7L52.7002 57.9" stroke="#00B9F2" stroke-width="2" stroke-miterlimit="10" stroke-linecap="round" stroke-linejoin="round"/>
</svg>
