<svg width="65" height="65" viewBox="0 0 65 65" fill="none" xmlns="http://www.w3.org/2000/svg">
<path d="M16.8998 8.80005L18.3998 11.7L21.4998 12.2L19.1998 14.5L19.7998 17.6L16.8998 16.1L14.0998 17.6L14.5998 14.5L12.2998 12.2L15.4998 11.7L16.8998 8.80005Z" stroke="#00B9F2" stroke-width="2" stroke-miterlimit="10" stroke-linecap="round" stroke-linejoin="round"/>
<path d="M10.5 9.40002H4.5V50.1H13.9" stroke="#00B9F2" stroke-width="2" stroke-miterlimit="10" stroke-linecap="round" stroke-linejoin="round"/>
<path d="M19.9004 50.1H45.0004" stroke="#00B9F2" stroke-width="2" stroke-miterlimit="10" stroke-linecap="round" stroke-linejoin="round"/>
<path d="M56.4 9.40002H60.2V50.1H50" stroke="#00B9F2" stroke-width="2" stroke-miterlimit="10" stroke-linecap="round" stroke-linejoin="round"/>
<path d="M2.5 53.8H20.5L24.2 56.2001H41.2L44.1 53.8H62.5V59.5L2.5 59.9001V53.8Z" stroke="#00B9F2" stroke-width="2" stroke-miterlimit="10" stroke-linecap="round" stroke-linejoin="round"/>
<path d="M18 28C18 28 18.8 33.6 24.8 33.6C30.8 33.6 31.6 28.3 31.6 28.3" stroke="#00B9F2" stroke-width="2" stroke-miterlimit="10" stroke-linecap="round" stroke-linejoin="round"/>
<path d="M10.0996 22.9H43.0996L41.1996 44.3H12.2996L10.0996 22.9Z" stroke="#00B9F2" stroke-width="2" stroke-miterlimit="10" stroke-linecap="round" stroke-linejoin="round"/>
<path d="M39.2998 22.9L37.2998 44.3" stroke="#00B9F2" stroke-width="2" stroke-miterlimit="10" stroke-linecap="round" stroke-linejoin="round"/>
<path d="M26.5996 19.7L27.6996 9.40002H52.8996L55.0996 40.7H44.9996" stroke="#00B9F2" stroke-width="2" stroke-miterlimit="10" stroke-linecap="round" stroke-linejoin="round"/>
<path d="M48.7002 9.40002L50.8002 40.7" stroke="#00B9F2" stroke-width="2" stroke-miterlimit="10" stroke-linecap="round" stroke-linejoin="round"/>
<path d="M33.5002 12.4C33.5002 12.4 31.7002 3.4 38.2002 3.3C44.7002 3.2 43.1002 12.4 43.1002 12.4" stroke="#00B9F2" stroke-width="2" stroke-miterlimit="10" stroke-linecap="round" stroke-linejoin="round"/>
<path d="M39.5002 9.40005C39.5002 9.40005 37.7002 3.90005 44.2002 3.80005C50.7002 3.80005 49.1002 9.40005 49.1002 9.40005" stroke="#00B9F2" stroke-width="2" stroke-miterlimit="10" stroke-linecap="round" stroke-linejoin="round"/>
<path d="M20.8996 38.1H20.0996V38.9H20.8996V38.1Z" stroke="#00B9F2" stroke-width="2" stroke-miterlimit="10" stroke-linecap="round" stroke-linejoin="round"/>
<path d="M25.2004 38.1H24.4004V38.9H25.2004V38.1Z" stroke="#00B9F2" stroke-width="2" stroke-miterlimit="10" stroke-linecap="round" stroke-linejoin="round"/>
<path d="M29.0002 38.1H28.2002V38.9H29.0002V38.1Z" stroke="#00B9F2" stroke-width="2" stroke-miterlimit="10" stroke-linecap="round" stroke-linejoin="round"/>
<path d="M34.8 16.8H34V17.6H34.8V16.8Z" stroke="#00B9F2" stroke-width="2" stroke-miterlimit="10" stroke-linecap="round" stroke-linejoin="round"/>
<path d="M38.8 16.8H38V17.6H38.8V16.8Z" stroke="#00B9F2" stroke-width="2" stroke-miterlimit="10" stroke-linecap="round" stroke-linejoin="round"/>
<path d="M42.5998 16.8H41.7998V17.6H42.5998V16.8Z" stroke="#00B9F2" stroke-width="2" stroke-miterlimit="10" stroke-linecap="round" stroke-linejoin="round"/>
</svg>
