<svg width="690" height="520" viewBox="0 0 690 520" fill="none" xmlns="http://www.w3.org/2000/svg">
<g filter="url(#filter0_d)">
<path d="M618.125 284.705C617.55 291.028 611.917 296.201 605.594 296.201H193.791C187.468 296.201 182.754 291.028 183.444 284.705L207.587 36.4965C208.161 30.1734 213.795 25 220.118 25H629.507C635.83 25 640.428 30.1734 639.968 36.4965L618.125 284.705Z" fill="#939598"/>
<path d="M615.021 280.107C614.446 286.43 608.813 291.603 602.49 291.603H197.355C191.032 291.603 186.318 286.43 187.008 280.107L210.691 40.2904C211.266 33.9674 217.014 28.7939 223.222 28.7939H625.943C632.266 28.7939 636.864 33.9674 636.405 40.2904L615.021 280.107Z" fill="#E1F4FD"/>
<path d="M73.3079 195.837C73.3079 195.837 67.9045 215.841 64.1107 220.21C62.5012 221.934 60.7767 223.429 58.7074 224.579C57.5577 225.268 56.2931 225.498 55.0285 225.153C53.7639 224.923 52.7292 224.119 51.9244 222.969C51.5796 222.394 51.2347 221.704 51.1197 221.015C50.085 216.416 49.2803 210.208 51.0047 205.264C51.1197 204.92 51.2347 204.575 51.3496 204.23C52.2693 201.471 53.0741 199.056 53.6489 196.872C54.9135 192.503 55.6033 189.744 55.6033 189.744L66.41 185.95L67.0998 186.985L73.3079 195.837Z" fill="#C7C7C7"/>
<path d="M80.2055 163.647C74.6872 164.567 69.9737 166.752 66.7547 169.856C60.7765 175.489 50.5447 188.94 50.5447 188.94C50.5447 188.94 59.8568 191.814 66.7547 190.779L73.6526 189.744L80.2055 163.647Z" fill="url(#paint0_linear)"/>
<path d="M532.017 63.7428L529.717 61.0986L542.708 49.4872H583.291L582.831 53.1661H543.743L532.017 63.7428Z" fill="url(#paint1_linear)"/>
<path d="M600.995 43.5094H577.082C576.508 43.5094 575.933 43.9693 575.818 44.659L574.438 57.1902C574.323 57.765 574.783 58.3398 575.473 58.3398H599.386C599.96 58.3398 600.535 57.88 600.65 57.1902L602.03 44.659C602.145 43.9693 601.685 43.5094 600.995 43.5094Z" fill="url(#paint2_linear)"/>
<path d="M586.51 47.5332H579.842L579.612 49.4876H586.28L586.51 47.5332Z" fill="white"/>
<path d="M597.431 52.1317H579.267L579.037 54.0861H597.316L597.431 52.1317Z" fill="white"/>
<path d="M483.961 88.3455L486.835 85.7013L476.373 74.0898H435.906L435.561 77.7687H474.534L483.961 88.3455Z" fill="url(#paint3_linear)"/>
<path d="M417.742 82.9421H441.539C442.114 82.9421 442.689 82.4823 442.804 81.7925L444.069 69.2613C444.184 68.6865 443.724 68.1117 443.034 68.1117H419.236C418.661 68.1117 418.087 68.5716 417.972 69.2613L416.707 81.7925C416.707 82.3673 417.167 82.9421 417.742 82.9421Z" fill="url(#paint4_linear)"/>
<path d="M432.687 74.0899H439.355L439.585 72.1355H432.917L432.687 74.0899Z" fill="white"/>
<path d="M420.846 78.6884H438.895L439.125 76.734H421.076L420.846 78.6884Z" fill="white"/>
<path d="M527.763 123.065L524.889 125.709L535.236 137.321H575.703L576.163 133.642H537.305L527.763 123.065Z" fill="url(#paint5_linear)"/>
<path d="M593.867 128.468H570.07C569.495 128.468 568.92 128.928 568.805 129.618L567.426 142.149C567.311 142.724 567.77 143.298 568.46 143.298H592.258C592.833 143.298 593.408 142.839 593.523 142.149L594.902 129.618C594.902 129.043 594.442 128.468 593.867 128.468Z" fill="url(#paint6_linear)"/>
<path d="M579.382 132.377H572.714L572.484 134.331H579.152L579.382 132.377Z" fill="white"/>
<path d="M590.074 137.205H572.024L571.794 139.16H589.844L590.074 137.205Z" fill="white"/>
<path d="M513.507 119.041L512.128 132.032C503.046 132.032 494.653 128.698 488.445 122.605C482.352 116.512 478.903 108.119 478.903 99.152C478.903 97.8874 479.018 96.5078 479.133 95.2432C479.593 90.4147 481.087 85.5862 483.387 81.1026C485.686 76.6189 488.905 72.5952 492.699 69.1462L500.976 78.3434C497.297 81.6774 494.538 85.9311 493.044 90.5297C491.664 95.1282 491.549 99.9568 492.929 104.325C494.308 108.694 496.953 112.373 500.631 115.017C504.31 117.661 508.794 119.041 513.507 119.041Z" fill="white"/>
<path d="M552.94 95.2433H539.834C540.294 90.5297 539.489 85.9312 537.19 82.0224C535.006 78.1136 531.557 75.0095 527.418 73.2851C523.279 71.4456 518.451 70.9858 513.737 71.9055C509.024 72.8252 504.54 75.1245 500.861 78.4585L492.584 69.2613C498.332 64.0879 505.23 60.6389 512.588 59.2594C519.945 57.8798 527.303 58.5696 533.741 61.3287C540.179 64.0879 545.467 68.8014 548.801 74.8945C552.365 80.8727 553.745 88.0005 552.94 95.2433Z" fill="url(#paint7_linear)"/>
<path d="M552.94 95.2435C551.905 105.016 546.962 114.443 539.259 121.34C531.557 128.238 521.785 132.147 512.013 132.147L513.392 119.156C518.106 119.156 522.934 117.777 527.188 115.132C530.637 112.948 533.626 110.074 535.81 106.625C537.995 103.176 539.374 99.3823 539.834 95.4735L552.94 95.2435Z" fill="white"/>
<path d="M552.94 95.2432C551.905 104.67 547.307 113.753 540.064 120.65C532.821 127.548 523.509 131.572 513.967 132.147C504.54 132.607 495.573 129.503 489.02 123.41C482.467 117.316 478.788 108.694 478.903 99.267C479.822 100.187 480.627 101.106 481.432 102.141C483.271 105.015 484.651 108.119 485.686 111.453C486.49 114.327 487.755 116.972 489.594 119.271C490.974 120.65 492.584 121.8 494.308 122.72C499.826 125.479 506.379 126.169 512.932 124.674C516.151 123.984 519.255 122.605 522.014 120.65C524.084 119.156 525.923 117.316 527.303 115.132C532.706 111.798 536.73 106.625 538.684 100.762C540.639 94.8983 540.409 88.6903 537.88 83.5168C539.949 84.2066 541.673 85.3563 543.743 85.9311C546.617 86.6209 549.606 86.391 552.48 85.2413C553.17 88.3454 553.285 91.7943 552.94 95.2432Z" fill="white"/>
<path d="M280.244 161.233C279.554 167.556 273.806 172.615 267.483 172.615H223.106C216.783 172.615 212.185 167.441 212.875 161.233L221.267 82.7123C221.957 76.3893 227.705 71.3308 234.028 71.3308H278.519C284.842 71.3308 289.441 76.5042 288.751 82.7123L280.244 161.233Z" fill="url(#paint8_linear)"/>
<path d="M394.059 90.8748C393.139 97.0828 387.276 102.256 380.953 102.256H311.974C305.651 102.256 301.168 97.0828 302.087 90.8748L302.662 86.966C303.582 80.7579 309.445 75.5845 315.768 75.5845H384.747C391.07 75.5845 395.554 80.7579 394.634 86.966L394.059 90.8748Z" fill="#C2C2C2"/>
<path d="M605.709 252.745C605.134 259.068 599.501 264.241 593.178 264.241H400.842C394.519 264.241 389.805 259.068 390.38 252.745L397.393 174.109C397.968 167.786 403.601 162.613 409.924 162.613H602.26C608.583 162.613 613.297 167.786 612.722 174.109L605.709 252.745Z" fill="#C2C2C2"/>
<path d="M397.393 57.075C395.438 60.294 388.656 62.8232 382.333 62.8232H235.178C228.855 62.8232 225.291 60.1791 227.245 57.075C229.2 53.856 235.983 51.3268 242.306 51.3268H389.46C395.783 51.3268 399.347 53.971 397.393 57.075Z" fill="url(#paint9_linear)"/>
<path d="M393.254 116.627C392.91 120.076 387.391 122.95 381.068 122.95H308.64C302.317 122.95 297.489 120.076 297.834 116.627C298.179 113.178 303.697 110.304 310.02 110.304H382.448C388.771 110.304 393.599 113.178 393.254 116.627Z" fill="url(#paint10_linear)"/>
<path d="M386.241 82.1375C385.897 82.8273 380.493 83.4021 374.17 83.4021H322.896C316.573 83.4021 311.629 82.8273 311.974 82.1375C312.319 81.4477 317.723 80.8729 324.046 80.8729H375.32C381.643 80.758 386.471 81.3328 386.241 82.1375Z" fill="white"/>
<path d="M384.977 88.0006C384.632 88.6904 379.229 89.2652 372.905 89.2652H321.631C315.308 89.2652 310.365 88.6904 310.71 88.0006C311.055 87.3108 316.458 86.736 322.781 86.736H374.055C380.378 86.736 385.322 87.3108 384.977 88.0006Z" fill="white"/>
<path d="M384.747 94.5536C384.402 95.2433 378.999 95.8182 372.676 95.8182H321.401C315.078 95.8182 310.135 95.2433 310.48 94.5536C310.825 93.8638 316.228 93.2889 322.551 93.2889H373.825C380.033 93.174 384.977 93.7488 384.747 94.5536Z" fill="white"/>
<path d="M283.118 81.3327C282.888 84.4368 277.485 86.966 271.162 86.966H237.132C230.809 86.966 225.866 84.4368 226.096 81.3327C226.326 78.2287 231.729 75.6995 238.052 75.6995H271.967C278.29 75.6995 283.348 78.2287 283.118 81.3327Z" fill="white"/>
<path d="M282.314 91.7944C282.084 92.5991 276.68 93.1739 270.357 93.1739H236.328C230.005 93.1739 225.061 92.4842 225.291 91.7944C225.521 90.9896 230.924 90.4148 237.247 90.4148H271.277C277.6 90.4148 282.544 90.9896 282.314 91.7944Z" fill="white"/>
<path d="M278.865 116.512C278.635 117.316 273.231 117.891 266.908 117.891H232.879C226.556 117.891 221.612 117.201 221.842 116.512C222.072 115.707 227.475 115.132 233.799 115.132H267.828C274.151 115.132 279.095 115.707 278.865 116.512Z" fill="white"/>
<path d="M278.52 122.835C278.29 123.64 272.886 124.215 266.563 124.215H232.534C226.211 124.215 221.267 123.525 221.497 122.835C221.727 122.03 227.13 121.455 233.454 121.455H267.368C273.691 121.34 278.75 122.03 278.52 122.835Z" fill="white"/>
<path d="M277.14 129.848C276.91 130.652 271.507 131.227 265.184 131.227H231.154C224.831 131.227 219.888 130.537 220.118 129.848C220.347 129.043 225.751 128.468 232.074 128.468H266.103C272.426 128.468 277.37 129.043 277.14 129.848Z" fill="white"/>
<path d="M276.335 141.804C276.105 142.609 270.702 143.184 264.379 143.184H230.349C224.026 143.184 219.083 142.494 219.313 141.804C219.543 141 224.946 140.425 231.269 140.425H265.299C271.507 140.31 276.565 141 276.335 141.804Z" fill="white"/>
<path d="M275.416 148.817C275.186 149.621 269.782 150.196 263.459 150.196H229.43C223.107 150.196 218.163 149.507 218.393 148.817C218.623 148.012 224.026 147.437 230.35 147.437H264.379C270.702 147.322 275.646 148.012 275.416 148.817Z" fill="white"/>
<path d="M274.496 155.83C274.266 156.635 268.863 157.209 262.54 157.209H228.51C222.187 157.209 217.244 156.52 217.474 155.83C217.703 155.025 223.107 154.45 229.43 154.45H263.459C269.667 154.45 274.726 155.025 274.496 155.83Z" fill="white"/>
<path d="M281.164 97.6576C280.934 98.4624 275.531 99.0372 269.208 99.0372H235.178C228.855 99.0372 223.912 98.3474 224.141 97.6576C224.371 96.8529 229.775 96.2781 236.098 96.2781H270.127C276.45 96.2781 281.394 96.9679 281.164 97.6576Z" fill="white"/>
<path d="M280.359 103.866C280.129 104.67 274.726 105.245 268.403 105.245H234.373C228.05 105.245 223.107 104.555 223.337 103.866C223.567 103.061 228.97 102.486 235.293 102.486H269.323C275.531 102.486 280.589 103.061 280.359 103.866Z" fill="white"/>
<path d="M390.035 138.47C389.69 141.919 384.172 144.793 377.849 144.793H305.421C299.098 144.793 294.27 141.919 294.615 138.47C294.959 135.021 300.478 132.147 306.801 132.147H379.228C385.552 132.147 390.38 135.021 390.035 138.47Z" fill="url(#paint11_linear)"/>
<path d="M387.736 159.968C387.391 163.417 381.873 166.292 375.55 166.292H303.122C296.799 166.292 291.971 163.417 292.315 159.968C292.66 156.52 298.179 153.645 304.502 153.645H376.929C383.252 153.53 388.081 156.405 387.736 159.968Z" fill="url(#paint12_linear)"/>
<path d="M383.023 252.4C382.333 258.723 376.585 263.781 370.262 263.781H212.645C206.322 263.781 201.723 258.608 202.413 252.4L208.736 193.078C209.426 186.755 215.174 181.697 221.497 181.697H379.114C385.437 181.697 390.035 186.87 389.346 193.078L383.023 252.4Z" fill="url(#paint13_linear)"/>
<path d="M234.258 228.257L231.039 252.745C230.924 253.55 230.579 254.239 230.005 254.699C229.43 255.274 228.74 255.504 227.935 255.619H222.302C221.957 255.619 221.612 255.504 221.267 255.389C220.922 255.274 220.693 255.044 220.463 254.699C220.233 254.469 220.118 254.124 220.003 253.78C219.888 253.435 219.888 253.09 220.003 252.745L223.222 228.257C223.337 227.453 223.682 226.763 224.256 226.188C224.831 225.613 225.521 225.383 226.326 225.268H231.959C232.304 225.268 232.649 225.383 232.994 225.498C233.339 225.613 233.569 225.843 233.798 226.188C234.028 226.418 234.143 226.763 234.258 227.108C234.373 227.453 234.258 227.913 234.258 228.257Z" fill="url(#paint14_linear)"/>
<path d="M253.802 218.025L249.204 252.745C249.089 253.55 248.744 254.239 248.169 254.699C247.594 255.274 246.904 255.504 246.1 255.619H240.466C240.121 255.619 239.777 255.504 239.432 255.389C239.087 255.274 238.857 255.044 238.627 254.699C238.397 254.469 238.282 254.124 238.167 253.779C238.052 253.435 238.052 253.09 238.167 252.745L242.766 218.025C242.881 217.221 243.225 216.531 243.8 216.071C244.375 215.496 245.065 215.266 245.87 215.151H251.503C251.848 215.151 252.193 215.266 252.538 215.381C252.883 215.496 253.112 215.726 253.342 216.071C253.572 216.301 253.687 216.646 253.802 216.991C253.802 217.336 253.802 217.681 253.802 218.025Z" fill="white"/>
<path d="M271.277 222.624L267.253 252.745C267.138 253.55 266.793 254.239 266.219 254.699C265.644 255.274 264.954 255.504 264.149 255.619H258.516C258.171 255.619 257.826 255.504 257.481 255.389C257.136 255.274 256.906 255.044 256.676 254.699C256.447 254.469 256.332 254.124 256.217 253.78C256.102 253.435 256.102 253.09 256.217 252.745L260.24 222.624C260.355 221.819 260.7 221.13 261.275 220.67C261.85 220.095 262.54 219.865 263.344 219.75H268.978C269.323 219.75 269.667 219.865 270.012 219.98C270.357 220.095 270.587 220.325 270.817 220.67C271.047 220.9 271.162 221.245 271.277 221.589C271.392 221.934 271.392 222.279 271.277 222.624Z" fill="url(#paint15_linear)"/>
<path d="M290.821 212.622L285.532 252.745C285.418 253.55 285.073 254.239 284.498 254.699C283.923 255.274 283.233 255.504 282.428 255.619H276.795C276.45 255.619 276.105 255.504 275.761 255.389C275.416 255.274 275.186 255.044 274.956 254.699C274.726 254.469 274.611 254.124 274.496 253.779C274.381 253.435 274.381 253.09 274.496 252.745L279.784 212.622C279.899 211.817 280.244 211.128 280.819 210.668C281.394 210.093 282.084 209.863 282.888 209.748H288.522C288.866 209.748 289.211 209.863 289.556 209.978C289.901 210.093 290.131 210.323 290.361 210.668C290.591 210.898 290.706 211.243 290.821 211.587C290.821 211.932 290.936 212.277 290.821 212.622Z" fill="#C2C2C2"/>
<path d="M305.307 240.559L303.697 252.745C303.582 253.55 303.237 254.24 302.662 254.814C302.088 255.389 301.398 255.619 300.593 255.734H294.96C294.615 255.734 294.27 255.619 293.925 255.504C293.58 255.389 293.35 255.159 293.12 254.814C292.89 254.584 292.775 254.239 292.66 253.895C292.545 253.55 292.545 253.205 292.66 252.86L294.27 240.674C294.385 239.869 294.73 239.179 295.305 238.719C295.879 238.144 296.569 237.915 297.374 237.8H303.007C303.352 237.8 303.697 237.915 304.042 238.03C304.387 238.144 304.617 238.374 304.847 238.719C305.077 238.949 305.192 239.294 305.307 239.639C305.307 239.869 305.307 240.214 305.307 240.559Z" fill="white"/>
<path d="M326.805 202.965L320.252 252.745C320.137 253.55 319.792 254.239 319.217 254.699C318.642 255.274 317.952 255.504 317.148 255.619H311.514C311.17 255.619 310.825 255.504 310.48 255.389C310.135 255.274 309.905 255.044 309.675 254.699C309.445 254.469 309.33 254.124 309.215 253.78C309.1 253.435 309.1 253.09 309.215 252.745L315.768 202.965C315.883 202.16 316.228 201.471 316.803 201.011C317.378 200.436 318.067 200.206 318.872 200.091H324.505C324.85 200.091 325.195 200.206 325.54 200.321C325.885 200.436 326.115 200.666 326.345 201.011C326.575 201.241 326.69 201.586 326.805 201.93C326.805 202.275 326.805 202.62 326.805 202.965Z" fill="#C2C2C2"/>
<path d="M344.049 222.624L340.026 252.745C339.911 253.55 339.566 254.239 338.991 254.699C338.416 255.274 337.726 255.504 336.922 255.619H331.288C330.943 255.619 330.599 255.504 330.254 255.389C329.909 255.274 329.679 255.044 329.449 254.699C329.219 254.469 329.104 254.124 328.989 253.78C328.874 253.435 328.874 253.09 328.989 252.745L333.013 222.624C333.128 221.819 333.473 221.13 334.047 220.67C334.622 220.095 335.312 219.865 336.117 219.75H341.75C342.095 219.75 342.44 219.865 342.785 219.98C343.13 220.095 343.36 220.325 343.59 220.67C343.819 220.9 343.934 221.245 344.049 221.589C344.049 221.934 344.049 222.279 344.049 222.624Z" fill="url(#paint16_linear)"/>
<path d="M363.479 212.622L358.19 252.745C358.075 253.55 357.73 254.239 357.156 254.699C356.581 255.274 355.891 255.504 355.086 255.619H349.453C349.108 255.619 348.763 255.504 348.418 255.389C348.073 255.274 347.843 255.044 347.613 254.699C347.384 254.469 347.269 254.124 347.154 253.779C347.039 253.435 347.039 253.09 347.154 252.745L352.442 212.622C352.557 211.817 352.902 211.128 353.477 210.668C354.051 210.093 354.741 209.863 355.546 209.748H361.179C361.524 209.748 361.869 209.863 362.214 209.978C362.559 210.093 362.789 210.323 363.019 210.668C363.249 210.898 363.364 211.243 363.479 211.587C363.479 211.932 363.594 212.277 363.479 212.622Z" fill="white"/>
<path d="M115.615 431.86L113.661 444.276L155.163 433.469C155.163 433.469 134.124 429.215 131.48 427.721C128.836 426.226 120.673 426.456 120.673 426.456L115.615 431.86Z" fill="#C7C7C7"/>
<path d="M74.5723 426.111L72.6179 440.137L117.224 429.216C117.224 429.216 97.1054 425.997 93.5415 423.582C89.9776 421.168 76.8716 421.973 76.8716 421.973L74.5723 426.111Z" fill="#C7C7C7"/>
<path d="M110.671 329.426L113.66 392.542L115.615 434.159H126.766L133.319 331.266L126.307 330.691L110.671 329.426Z" fill="#C7C7C7"/>
<path d="M96.6455 328.507L87.6782 425.537H75.607L73.5376 323.448L96.6455 328.507Z" fill="#C7C7C7"/>
<path d="M73.5376 323.448H74.1124L92.2768 327.472C89.6326 331.496 82.045 344.027 81.4702 358.512C80.8953 375.872 76.5267 401.624 76.4117 402.544L74.1124 355.868L73.5376 323.448Z" fill="#C1C1C1"/>
<path d="M67.6745 273.208C67.6745 273.208 64.6854 278.612 67.4446 292.752C69.514 303.674 62.0413 329.311 62.0413 329.311L99.1748 328.391L123.087 320.689L121.018 294.247L98.3701 268.38L67.6745 273.208Z" fill="url(#paint17_linear)"/>
<path d="M110.671 329.426L113.66 392.542C113.775 391.852 117.224 371.388 117.684 357.478C118.144 343.337 126.996 331.611 126.996 331.611L126.307 330.576L110.671 329.426Z" fill="#C1C1C1"/>
<path d="M140.562 261.597L144.701 329.771L98.2553 333.565C98.2553 333.565 100.095 315.286 98.3703 305.054C93.7717 277.347 99.5199 269.415 99.5199 269.415L106.073 257.344L140.562 261.597Z" fill="url(#paint18_linear)"/>
<path d="M107.337 165.947C107.337 165.947 106.533 168.361 105.498 171.465C103.773 176.638 101.589 183.536 101.474 184.111C101.244 185.031 93.7715 188.48 93.7715 188.48C93.7715 188.48 88.7131 183.766 88.3682 183.306C88.0233 182.846 83.0798 168.476 83.0798 168.476C82.8499 166.636 82.7349 164.682 82.9648 162.843C83.0798 158.129 82.62 146.633 82.62 146.633L80.7805 144.218L84.9192 132.147C84.9192 132.147 90.6675 132.952 95.7259 134.791C99.7497 136.171 103.429 138.125 103.429 140.769C103.084 146.288 107.337 165.947 107.337 165.947Z" fill="#C7C7C7"/>
<path d="M79.8608 108.464C81.0105 115.247 83.0798 121.8 85.954 128.008C87.1036 123.295 88.4832 118.006 88.4832 118.006L101.014 105.59C101.014 105.59 108.602 102.486 111.706 102.831C112.511 102.946 113.66 103.061 114.695 103.061L91.4723 98.4623L79.8608 108.464Z" fill="#F5D9DE"/>
<path d="M85.9539 128.008C87.7933 132.032 89.8627 135.826 92.3919 139.505C94.2313 142.264 96.3007 145.023 98.37 147.552C104.348 154.45 106.877 153.415 108.717 152.84C111.936 151.806 115.04 143.528 117.109 128.353C117.684 124.559 117.799 120.65 117.569 116.742C117.454 112.143 116.534 107.544 114.925 103.176H114.81C113.66 103.061 112.626 102.946 111.821 102.946C108.717 102.601 101.129 105.705 101.129 105.705L88.598 118.121C88.4831 118.006 87.1035 123.295 85.9539 128.008Z" fill="#C7C7C7"/>
<path d="M85.9539 128.008C87.7933 132.032 89.8627 135.826 92.3919 139.505C94.2313 142.264 96.3007 145.023 98.37 147.552C98.485 147.322 103.314 139.39 103.314 135.251C103.314 131.112 106.073 134.676 108.832 136.631C111.591 138.7 110.096 124.1 111.936 124.559C113.775 125.019 115.73 120.421 115.96 118.811C116.075 118.351 116.19 117.891 116.534 117.547C116.764 117.202 117.224 116.857 117.569 116.627C117.454 112.028 116.534 107.43 114.925 103.061H114.81C113.66 102.946 112.626 102.831 111.821 102.831C108.717 102.486 101.129 105.59 101.129 105.59L88.598 118.006C88.4831 118.006 87.1035 123.295 85.9539 128.008Z" fill="#C7C7C7"/>
<path d="M107.222 161.118C107.222 161.118 106.418 162.498 105.383 164.222L102.394 163.188C101.704 160.199 100.784 157.324 99.6348 154.565C98.3702 152.151 93.1968 152.496 93.1968 152.496L90.8975 146.863L95.611 144.104C99.6348 144.793 103.314 145.828 103.199 147.323C103.199 150.427 107.222 161.118 107.222 161.118Z" fill="#C7C7C7"/>
<path d="M130.79 278.497C130.79 278.497 113.201 285.395 117.339 298.846C121.593 312.297 130.33 324.253 120.213 317.355C110.097 310.457 97.2206 287.924 103.199 278.497C109.292 269.07 130.79 278.497 130.79 278.497Z" fill="url(#paint19_linear)"/>
<path d="M146.77 272.634C146.77 272.634 132.515 283.555 107.108 284.245C85.2643 284.82 58.5925 275.048 58.5925 275.048C58.5925 275.048 58.2476 272.404 60.7768 243.893C61.0068 241.133 61.2367 238.374 61.5816 235.845C62.8462 223.314 64.3407 212.967 65.9502 204.23C73.9978 160.773 84.9194 160.543 84.9194 160.543L86.9887 160.083C95.3812 158.129 104.348 159.394 111.936 163.532C113.661 164.452 115.155 165.602 116.42 167.096C123.662 176.753 146.77 272.634 146.77 272.634Z" fill="#F1F2F2"/>
<path d="M122.858 89.8398C122.973 89.7248 123.203 89.6099 123.433 89.6099C123.662 89.6099 123.892 89.6098 124.122 89.7248C124.352 89.8398 124.467 89.9547 124.697 90.0697C124.812 90.2996 124.927 90.4146 124.927 90.6445C125.387 94.2084 125.617 100.761 122.973 105.82C119.524 112.373 116.65 111.913 115.27 115.592C113.89 119.271 113.546 120.88 110.671 120.42C107.797 119.961 107.452 118.006 107.337 121.11C107.108 123.754 107.108 126.399 107.337 129.043C107.682 131.227 109.867 134.561 107.682 132.607C105.498 130.652 104.003 122.26 101.359 122.95C98.6001 123.639 94.4614 128.698 97.4505 130.537C100.44 132.377 101.474 136.056 100.44 138.24C99.4049 140.424 97.4505 145.598 94.8063 146.862C92.1621 148.127 82.965 147.437 79.2861 145.368C74.4576 142.609 70.3189 135.941 69.2842 130.997C68.4794 126.743 69.0542 109.039 74.4576 99.8417C79.8609 90.7595 90.2077 84.4364 96.7607 85.2412C101.474 85.816 112.281 95.8179 116.88 93.5186C119.064 92.5989 121.018 91.3343 122.858 89.8398Z" fill="black"/>
<path d="M133.664 200.436C134.009 205.494 134.699 210.438 135.849 215.381C136.768 214.807 150.909 206.184 156.772 197.907C159.646 193.883 162.75 188.71 165.624 184.341C168.728 179.397 171.373 175.374 172.522 174.914C174.707 173.994 181.604 172.73 180.8 169.511C180.11 166.292 181.49 161.233 179.65 159.739C177.811 158.244 175.971 157.669 176.201 156.175C176.431 154.68 183.559 146.288 183.674 145.483C183.674 145.138 183.674 144.793 183.444 144.448C183.329 144.103 182.984 143.873 182.754 143.643C182.409 143.414 182.064 143.414 181.719 143.414C181.375 143.414 181.03 143.529 180.685 143.758C180.34 143.988 180.11 144.333 179.88 144.563C178.5 146.403 172.982 153.875 171.373 154.91C169.763 155.945 167.119 156.52 164.82 160.313C162.52 164.107 163.095 168.016 161.946 169.396C159.876 171.925 157.692 174.339 155.163 176.408C149.989 180.662 141.597 187.56 137.113 191.469C135.964 192.503 135.159 193.308 134.584 193.768C133.779 194.918 133.549 197.447 133.664 200.436Z" fill="#C7C7C7"/>
<path d="M132.285 182.617C132.285 182.617 141.252 197.102 142.057 202.85C142.402 206.414 141.827 209.748 140.447 212.047C139.068 214.347 136.998 215.611 134.584 215.611H128.836L118.259 185.376L123.662 175.374L132.285 182.617Z" fill="#C7C7C7"/>
<path d="M110.441 162.383C115.96 163.303 120.673 165.602 123.777 168.706C129.755 174.339 139.987 187.905 139.987 187.905C139.987 187.905 130.675 190.779 123.777 189.744L116.879 188.71L110.441 162.383Z" fill="url(#paint20_linear)"/>
<path d="M453.036 122.72C452.231 122.72 451.426 122.95 450.736 123.295C450.047 123.755 449.472 124.329 449.012 125.019C448.552 125.709 448.322 126.514 448.322 127.319C448.322 128.123 448.437 128.928 448.897 129.503L435.561 141.919C434.871 141.459 434.067 141.229 433.262 141.229C432.457 141.229 431.537 141.574 430.848 142.034L427.629 138.355C428.088 137.665 428.433 136.976 428.548 136.171C428.663 135.366 428.548 134.561 428.318 133.872C427.973 133.182 427.514 132.607 426.939 132.147C426.249 131.687 425.559 131.572 424.754 131.572C423.95 131.572 423.145 131.802 422.455 132.147C421.765 132.607 421.076 133.182 420.731 133.872C420.271 134.561 420.041 135.366 420.041 136.171C420.041 136.976 420.156 137.78 420.616 138.355L412.108 146.173C411.419 145.713 410.614 145.368 409.694 145.368C408.774 145.368 407.74 145.713 406.935 146.288C406.13 146.863 405.44 147.782 405.096 148.702C404.751 149.622 404.751 150.656 404.981 151.576C405.325 152.496 405.9 153.186 406.705 153.645C407.51 154.105 408.544 154.22 409.464 154.105C410.499 153.99 411.419 153.416 412.108 152.726C412.798 152.036 413.373 151.116 413.488 150.082C413.603 149.047 413.488 148.127 413.028 147.322L421.535 139.505C422.225 139.965 423.03 140.31 423.95 140.31C424.869 140.31 425.674 140.08 426.479 139.505L429.813 143.184C429.238 143.873 429.008 144.678 428.893 145.598C428.778 146.748 429.123 147.897 429.928 148.702C430.618 149.507 431.767 149.967 432.917 149.967C434.067 149.967 435.216 149.507 436.136 148.702C437.056 147.897 437.631 146.748 437.745 145.598C437.86 144.678 437.631 143.758 437.056 142.954L450.392 130.653C450.966 130.997 451.541 131.342 452.231 131.342C452.921 131.457 453.611 131.342 454.3 131.112C454.99 130.882 455.565 130.538 456.14 129.963C456.6 129.503 457.06 128.813 457.289 128.238C457.519 127.548 457.634 126.859 457.634 126.169C457.519 125.479 457.404 124.904 456.945 124.329C456.6 123.755 456.14 123.295 455.565 123.065C454.415 122.835 453.726 122.72 453.036 122.72ZM408.659 152.611C408.085 152.611 407.625 152.496 407.165 152.151C406.705 151.806 406.475 151.461 406.245 150.886C406.13 150.426 406.13 149.852 406.245 149.277C406.36 148.702 406.705 148.242 407.165 147.897C407.625 147.552 408.085 147.207 408.659 147.207C409.234 147.092 409.694 147.207 410.269 147.322C410.729 147.552 411.074 147.897 411.419 148.357C411.648 148.817 411.763 149.277 411.763 149.852C411.763 150.196 411.648 150.541 411.419 150.886C411.304 151.231 410.959 151.576 410.729 151.806C410.499 152.036 410.154 152.266 409.809 152.381C409.349 152.496 409.004 152.611 408.659 152.611ZM423.835 138.7C423.26 138.7 422.8 138.585 422.34 138.24C421.88 137.895 421.65 137.55 421.42 136.976C421.306 136.516 421.306 135.941 421.42 135.366C421.535 134.791 421.88 134.331 422.34 133.987C422.8 133.642 423.26 133.297 423.835 133.297C424.41 133.182 424.869 133.297 425.329 133.412C425.789 133.642 426.134 133.986 426.479 134.446C426.709 134.906 426.824 135.481 426.824 135.941C426.824 136.286 426.709 136.631 426.479 136.976C426.364 137.32 426.134 137.665 425.789 137.895C425.559 138.125 425.214 138.355 424.869 138.47C424.64 138.7 424.18 138.7 423.835 138.7ZM432.687 148.357C432.112 148.357 431.652 148.242 431.192 147.897C430.733 147.552 430.503 147.207 430.273 146.633C430.158 146.173 430.158 145.598 430.273 145.023C430.388 144.448 430.733 143.988 431.192 143.644C431.652 143.299 432.112 142.954 432.687 142.954C433.262 142.839 433.722 142.954 434.182 143.069C434.641 143.299 435.101 143.644 435.331 144.103C435.561 144.563 435.676 145.023 435.676 145.598C435.561 146.288 435.216 146.977 434.756 147.552C434.067 148.127 433.377 148.357 432.687 148.357ZM452.461 129.848C451.886 129.848 451.426 129.733 450.966 129.388C450.507 129.043 450.277 128.698 450.047 128.123C449.932 127.663 449.932 127.089 450.047 126.514C450.162 125.939 450.507 125.479 450.851 125.134C451.311 124.789 451.771 124.444 452.231 124.444C452.806 124.329 453.266 124.444 453.726 124.559C454.185 124.789 454.645 125.134 454.875 125.594C455.105 126.054 455.22 126.514 455.22 127.089C455.105 127.778 454.875 128.468 454.3 129.043C453.841 129.503 453.151 129.848 452.461 129.848Z" fill="url(#paint21_linear)"/>
<path d="M394.864 258.608L422.915 195.952L430.733 224.119L455.22 175.259L449.702 231.476L463.957 211.128L473.615 227.798L482.352 210.208L499.826 225.958L512.358 210.208L532.131 252.17L560.643 166.521L572.714 207.449L588.809 185.376L602.145 248.951" stroke="#8D9092" stroke-width="0.75" stroke-miterlimit="10" stroke-dasharray="4 4"/>
<path d="M409.924 258.953L436.366 202.275L443.724 227.682L466.717 183.421L461.543 234.35L474.994 215.956L484.076 231.016L492.239 215.151L508.794 229.292L520.405 215.151L539.03 253.09L565.931 175.604L577.198 212.622L592.373 192.618L604.904 250.216" stroke="#EDF0F2" stroke-width="0.75" stroke-miterlimit="10" stroke-dasharray="4 4"/>
</g>
<defs>
<filter id="filter0_d" x="-5" y="-15" width="700" height="550" filterUnits="userSpaceOnUse" color-interpolation-filters="sRGB">
<feFlood flood-opacity="0" result="BackgroundImageFix"/>
<feColorMatrix in="SourceAlpha" type="matrix" values="0 0 0 0 0 0 0 0 0 0 0 0 0 0 0 0 0 0 127 0" result="hardAlpha"/>
<feOffset dy="25"/>
<feGaussianBlur stdDeviation="25"/>
<feColorMatrix type="matrix" values="0 0 0 0 0 0 0 0 0 0 0 0 0 0 0 0 0 0 0.25 0"/>
<feBlend mode="normal" in2="BackgroundImageFix" result="effect1_dropShadow"/>
<feBlend mode="normal" in="SourceGraphic" in2="effect1_dropShadow" result="shape"/>
</filter>
<linearGradient id="paint0_linear" x1="82.1263" y1="175.965" x2="49.2779" y2="181.146" gradientUnits="userSpaceOnUse">
<stop stop-color="#75DAFF"/>
<stop offset="1" stop-color="#00BAFF"/>
</linearGradient>
<linearGradient id="paint1_linear" x1="556.186" y1="63.7892" x2="556.609" y2="48.9567" gradientUnits="userSpaceOnUse">
<stop stop-color="#75DAFF"/>
<stop offset="1" stop-color="#00BAFF"/>
</linearGradient>
<linearGradient id="paint2_linear" x1="587.858" y1="58.3082" x2="588.769" y2="42.9132" gradientUnits="userSpaceOnUse">
<stop stop-color="#75DAFF"/>
<stop offset="1" stop-color="#00BAFF"/>
</linearGradient>
<linearGradient id="paint3_linear" x1="460.953" y1="88.4173" x2="461.376" y2="73.5869" gradientUnits="userSpaceOnUse">
<stop stop-color="#75DAFF"/>
<stop offset="1" stop-color="#00BAFF"/>
</linearGradient>
<linearGradient id="paint4_linear" x1="430.887" y1="68.0528" x2="429.977" y2="83.4407" gradientUnits="userSpaceOnUse">
<stop stop-color="#75DAFF"/>
<stop offset="1" stop-color="#00BAFF"/>
</linearGradient>
<linearGradient id="paint5_linear" x1="550.336" y1="137.315" x2="550.76" y2="122.483" gradientUnits="userSpaceOnUse">
<stop stop-color="#75DAFF"/>
<stop offset="1" stop-color="#00BAFF"/>
</linearGradient>
<linearGradient id="paint6_linear" x1="580.71" y1="143.332" x2="581.62" y2="127.941" gradientUnits="userSpaceOnUse">
<stop stop-color="#75DAFF"/>
<stop offset="1" stop-color="#00BAFF"/>
</linearGradient>
<linearGradient id="paint7_linear" x1="522.035" y1="95.3578" x2="524.368" y2="57.0627" gradientUnits="userSpaceOnUse">
<stop stop-color="#75DAFF"/>
<stop offset="1" stop-color="#00BAFF"/>
</linearGradient>
<linearGradient id="paint8_linear" x1="244.112" y1="170.739" x2="257.709" y2="70.0309" gradientUnits="userSpaceOnUse">
<stop stop-color="#75DAFF"/>
<stop offset="1" stop-color="#00BAFF"/>
</linearGradient>
<linearGradient id="paint9_linear" x1="226.678" y1="57.1223" x2="397.939" y2="57.1223" gradientUnits="userSpaceOnUse">
<stop stop-color="#75DAFF"/>
<stop offset="1" stop-color="#00BAFF"/>
</linearGradient>
<linearGradient id="paint10_linear" x1="345.396" y1="122.9" x2="345.574" y2="109.963" gradientUnits="userSpaceOnUse">
<stop stop-color="#75DAFF"/>
<stop offset="1" stop-color="#00BAFF"/>
</linearGradient>
<linearGradient id="paint11_linear" x1="342.209" y1="144.755" x2="342.386" y2="131.817" gradientUnits="userSpaceOnUse">
<stop stop-color="#75DAFF"/>
<stop offset="1" stop-color="#00BAFF"/>
</linearGradient>
<linearGradient id="paint12_linear" x1="339.89" y1="166.17" x2="340.069" y2="153.234" gradientUnits="userSpaceOnUse">
<stop stop-color="#75DAFF"/>
<stop offset="1" stop-color="#00BAFF"/>
</linearGradient>
<linearGradient id="paint13_linear" x1="294.018" y1="263.456" x2="297.822" y2="179.313" gradientUnits="userSpaceOnUse">
<stop stop-color="#75DAFF"/>
<stop offset="1" stop-color="#00BAFF"/>
</linearGradient>
<linearGradient id="paint14_linear" x1="219.908" y1="240.518" x2="234.274" y2="240.518" gradientUnits="userSpaceOnUse">
<stop stop-color="#71449A"/>
<stop offset="0.8668" stop-color="#A66CAC"/>
</linearGradient>
<linearGradient id="paint15_linear" x1="256.214" y1="237.673" x2="271.321" y2="237.673" gradientUnits="userSpaceOnUse">
<stop stop-color="#71449A"/>
<stop offset="0.8668" stop-color="#A66CAC"/>
</linearGradient>
<linearGradient id="paint16_linear" x1="328.907" y1="237.673" x2="344.043" y2="237.673" gradientUnits="userSpaceOnUse">
<stop stop-color="#71449A"/>
<stop offset="0.8668" stop-color="#A66CAC"/>
</linearGradient>
<linearGradient id="paint17_linear" x1="62.0109" y1="298.859" x2="123.086" y2="298.859" gradientUnits="userSpaceOnUse">
<stop stop-color="#75DAFF"/>
<stop offset="1" stop-color="#00BAFF"/>
</linearGradient>
<linearGradient id="paint18_linear" x1="96.6213" y1="295.402" x2="144.698" y2="295.402" gradientUnits="userSpaceOnUse">
<stop stop-color="#75DAFF"/>
<stop offset="1" stop-color="#00BAFF"/>
</linearGradient>
<linearGradient id="paint19_linear" x1="101.702" y1="296.854" x2="130.786" y2="296.854" gradientUnits="userSpaceOnUse">
<stop stop-color="#75DAFF"/>
<stop offset="1" stop-color="#00BAFF"/>
</linearGradient>
<linearGradient id="paint20_linear" x1="137.698" y1="173.408" x2="112.776" y2="177.339" gradientUnits="userSpaceOnUse">
<stop stop-color="#75DAFF"/>
<stop offset="1" stop-color="#00BAFF"/>
</linearGradient>
<linearGradient id="paint21_linear" x1="429.764" y1="154.345" x2="431.886" y2="121.553" gradientUnits="userSpaceOnUse">
<stop stop-color="#71449A"/>
<stop offset="0.8668" stop-color="#A66CAC"/>
</linearGradient>
</defs>
</svg>
