<svg width="600" height="451" viewBox="0 0 600 451" fill="none" xmlns="http://www.w3.org/2000/svg">
<g filter="url(#filter0_d)">
<path d="M542.1 272.2C541.6 277.7 536.7 282.2 531.2 282.2H173C167.5 282.2 163.4 277.7 164 272.2L185 56.2998C185.5 50.7998 190.4 46.2998 195.9 46.2998H552C557.5 46.2998 561.5 50.7998 561.1 56.2998L542.1 272.2Z" fill="#808285"/>
<path d="M539.4 268.2C538.9 273.7 534 278.2 528.5 278.2H176.1C170.6 278.2 166.5 273.7 167.1 268.2L187.7 59.5996C188.2 54.0996 193.2 49.5996 198.6 49.5996H548.9C554.4 49.5996 558.4 54.0996 558 59.5996L539.4 268.2Z" fill="#E1F4FD"/>
<path d="M68.2002 194.9C68.2002 194.9 63.5002 212.3 60.2002 216.1C58.8002 217.6 57.3002 218.9 55.5002 219.9C54.5002 220.5 53.4002 220.7 52.3002 220.4C51.2002 220.2 50.3002 219.5 49.6002 218.5C49.3002 218 49.0002 217.4 48.9002 216.8C48.0002 212.8 47.3002 207.4 48.8002 203.1C48.9002 202.8 49.0002 202.5 49.1002 202.2C49.9002 199.8 50.6002 197.7 51.1002 195.8C52.2002 192 52.8002 189.6 52.8002 189.6L62.2002 186.3L62.8002 187.2L68.2002 194.9Z" fill="#E6E7E8"/>
<path d="M74.1999 166.9C69.3999 167.7 65.2999 169.6 62.4999 172.3C57.2999 177.2 48.3999 188.9 48.3999 188.9C48.3999 188.9 56.4999 191.4 62.4999 190.5L68.4999 189.6L74.1999 166.9Z" fill="url(#paint0_linear)"/>
<path d="M467.2 80.0006L465.2 77.7006L476.5 67.6006H511.8L511.4 70.8006H477.4L467.2 80.0006Z" fill="url(#paint1_linear)"/>
<path d="M527.2 62.4004H506.4C505.9 62.4004 505.4 62.8004 505.3 63.4004L504.1 74.3004C504 74.8004 504.4 75.3004 505 75.3004H525.8C526.3 75.3004 526.8 74.9004 526.9 74.3004L528.1 63.4004C528.2 62.8004 527.8 62.4004 527.2 62.4004Z" fill="url(#paint2_linear)"/>
<path d="M514.6 65.9004H508.8L508.6 67.6004H514.4L514.6 65.9004Z" fill="white"/>
<path d="M524.1 69.9004H508.3L508.1 71.6004H524L524.1 69.9004Z" fill="white"/>
<path d="M425.4 101.4L427.9 99.1L418.8 89H383.6L383.3 92.2H417.2L425.4 101.4Z" fill="url(#paint3_linear)"/>
<path d="M367.8 96.7008H388.5C389 96.7008 389.5 96.3008 389.6 95.7008L390.7 84.8008C390.8 84.3008 390.4 83.8008 389.8 83.8008H369.1C368.6 83.8008 368.1 84.2008 368 84.8008L366.9 95.7008C366.9 96.2008 367.3 96.7008 367.8 96.7008Z" fill="url(#paint4_linear)"/>
<path d="M380.8 89.0008H386.6L386.8 87.3008H381L380.8 89.0008Z" fill="white"/>
<path d="M370.5 93.0008H386.2L386.4 91.3008H370.7L370.5 93.0008Z" fill="white"/>
<path d="M463.5 131.601L461 133.901L470 144.001H505.2L505.6 140.801H471.8L463.5 131.601Z" fill="url(#paint5_linear)"/>
<path d="M521 136.301H500.3C499.8 136.301 499.3 136.701 499.2 137.301L498 148.201C497.9 148.701 498.3 149.201 498.9 149.201H519.6C520.1 149.201 520.6 148.801 520.7 148.201L521.9 137.301C521.9 136.801 521.5 136.301 521 136.301Z" fill="url(#paint6_linear)"/>
<path d="M508.4 139.7H502.6L502.4 141.4H508.2L508.4 139.7Z" fill="white"/>
<path d="M517.7 143.9H502L501.8 145.6H517.5L517.7 143.9Z" fill="white"/>
<path d="M451.1 128.1L449.9 139.4C442 139.4 434.7 136.5 429.3 131.2C424 125.9 421 118.6 421 110.8C421 109.7 421.1 108.5 421.2 107.4C421.6 103.2 422.9 99.0002 424.9 95.1002C426.9 91.2002 429.7 87.7002 433 84.7002L440.2 92.7002C437 95.6002 434.6 99.3002 433.3 103.3C432.1 107.3 432 111.5 433.2 115.3C434.4 119.1 436.7 122.3 439.9 124.6C443.1 126.9 447 128.1 451.1 128.1Z" fill="white"/>
<path d="M485.4 107.4H474C474.4 103.3 473.7 99.3 471.7 95.9C469.8 92.5 466.8 89.8 463.2 88.3C459.6 86.7 455.4 86.3 451.3 87.1C447.2 87.9 443.3 89.9 440.1 92.8L432.9 84.8C437.9 80.3 443.9 77.3 450.3 76.1C456.7 74.9 463.1 75.5 468.7 77.9C474.3 80.3 478.9 84.4 481.8 89.7C484.9 94.9 486.1 101.1 485.4 107.4Z" fill="url(#paint7_linear)"/>
<path d="M485.4 107.4C484.5 115.9 480.2 124.1 473.5 130.1C466.8 136.1 458.3 139.5 449.8 139.5L451 128.2C455.1 128.2 459.3 127 463 124.7C466 122.8 468.6 120.3 470.5 117.3C472.4 114.3 473.6 111 474 107.6L485.4 107.4Z" fill="white"/>
<path d="M485.4 107.4C484.5 115.6 480.5 123.5 474.2 129.5C467.9 135.5 459.8 139 451.5 139.5C443.3 139.9 435.5 137.2 429.8 131.9C424.1 126.6 420.9 119.1 421 110.9C421.8 111.7 422.5 112.5 423.2 113.4C424.8 115.9 426 118.6 426.9 121.5C427.6 124 428.7 126.3 430.3 128.3C431.5 129.5 432.9 130.5 434.4 131.3C439.2 133.7 444.9 134.3 450.6 133C453.4 132.4 456.1 131.2 458.5 129.5C460.3 128.2 461.9 126.6 463.1 124.7C467.8 121.8 471.3 117.3 473 112.2C474.7 107.1 474.5 101.7 472.3 97.2002C474.1 97.8002 475.6 98.8002 477.4 99.3002C479.9 99.9002 482.5 99.7002 485 98.7002C485.6 101.4 485.7 104.4 485.4 107.4Z" fill="white"/>
<path d="M248.2 164.8C247.6 170.3 242.6 174.7 237.1 174.7H198.5C193 174.7 189 170.2 189.6 164.8L196.9 96.4996C197.5 90.9996 202.5 86.5996 208 86.5996H246.7C252.2 86.5996 256.2 91.0996 255.6 96.4996L248.2 164.8Z" fill="url(#paint8_linear)"/>
<path d="M347.2 103.6C346.4 109 341.3 113.5 335.8 113.5H275.8C270.3 113.5 266.4 109 267.2 103.6L267.7 100.2C268.5 94.7998 273.6 90.2998 279.1 90.2998H339.1C344.6 90.2998 348.5 94.7998 347.7 100.2L347.2 103.6Z" fill="#C2C2C2"/>
<path d="M531.3 244.4C530.8 249.9 525.9 254.4 520.4 254.4H353.1C347.6 254.4 343.5 249.9 344 244.4L350.1 176C350.6 170.5 355.5 166 361 166H528.3C533.8 166 537.9 170.5 537.4 176L531.3 244.4Z" fill="#C2C2C2"/>
<path d="M350.1 74.2002C348.4 77.0002 342.5 79.2002 337 79.2002H209C203.5 79.2002 200.4 76.9002 202.1 74.2002C203.8 71.4002 209.7 69.2002 215.2 69.2002H343.2C348.7 69.2002 351.8 71.5002 350.1 74.2002Z" fill="url(#paint9_linear)"/>
<path d="M346.5 126C346.2 129 341.4 131.5 335.9 131.5H272.9C267.4 131.5 263.2 129 263.5 126C263.8 123 268.6 120.5 274.1 120.5H337.1C342.6 120.5 346.8 123 346.5 126Z" fill="url(#paint10_linear)"/>
<path d="M340.4 96.0004C340.1 96.6004 335.4 97.1004 329.9 97.1004H285.3C279.8 97.1004 275.5 96.6004 275.8 96.0004C276.1 95.4004 280.8 94.9004 286.3 94.9004H330.9C336.4 94.8004 340.6 95.3004 340.4 96.0004Z" fill="white"/>
<path d="M339.3 101.1C339 101.7 334.3 102.2 328.8 102.2H284.2C278.7 102.2 274.4 101.7 274.7 101.1C275 100.5 279.7 100 285.2 100H329.8C335.3 100 339.6 100.5 339.3 101.1Z" fill="white"/>
<path d="M339.1 106.8C338.8 107.4 334.1 107.9 328.6 107.9H284C278.5 107.9 274.2 107.4 274.5 106.8C274.8 106.2 279.5 105.7 285 105.7H329.6C335 105.6 339.3 106.1 339.1 106.8Z" fill="white"/>
<path d="M250.7 95.3004C250.5 98.0004 245.8 100.2 240.3 100.2H210.7C205.2 100.2 200.9 98.0004 201.1 95.3004C201.3 92.6004 206 90.4004 211.5 90.4004H241C246.5 90.4004 250.9 92.6004 250.7 95.3004Z" fill="white"/>
<path d="M250 104.4C249.8 105.1 245.1 105.6 239.6 105.6H210C204.5 105.6 200.2 105 200.4 104.4C200.6 103.7 205.3 103.2 210.8 103.2H240.4C245.9 103.2 250.2 103.7 250 104.4Z" fill="white"/>
<path d="M247 125.9C246.8 126.6 242.1 127.1 236.6 127.1H207C201.5 127.1 197.2 126.5 197.4 125.9C197.6 125.2 202.3 124.7 207.8 124.7H237.4C242.9 124.7 247.2 125.2 247 125.9Z" fill="white"/>
<path d="M246.7 131.4C246.5 132.1 241.8 132.6 236.3 132.6H206.7C201.2 132.6 196.9 132 197.1 131.4C197.3 130.7 202 130.2 207.5 130.2H237C242.5 130.1 246.9 130.7 246.7 131.4Z" fill="white"/>
<path d="M245.5 137.5C245.3 138.2 240.6 138.7 235.1 138.7H205.5C200 138.7 195.7 138.1 195.9 137.5C196.1 136.8 200.8 136.3 206.3 136.3H235.9C241.4 136.3 245.7 136.8 245.5 137.5Z" fill="white"/>
<path d="M244.8 147.9C244.6 148.6 239.9 149.1 234.4 149.1H204.8C199.3 149.1 195 148.5 195.2 147.9C195.4 147.2 200.1 146.7 205.6 146.7H235.2C240.6 146.6 245 147.2 244.8 147.9Z" fill="white"/>
<path d="M244 154C243.8 154.7 239.1 155.2 233.6 155.2H204C198.5 155.2 194.2 154.6 194.4 154C194.6 153.3 199.3 152.8 204.8 152.8H234.4C239.9 152.7 244.2 153.3 244 154Z" fill="white"/>
<path d="M243.2 160.1C243 160.8 238.3 161.3 232.8 161.3H203.2C197.7 161.3 193.4 160.7 193.6 160.1C193.8 159.4 198.5 158.9 204 158.9H233.6C239 158.9 243.4 159.4 243.2 160.1Z" fill="white"/>
<path d="M249 109.5C248.8 110.2 244.1 110.7 238.6 110.7H209C203.5 110.7 199.2 110.1 199.4 109.5C199.6 108.8 204.3 108.3 209.8 108.3H239.4C244.9 108.3 249.2 108.9 249 109.5Z" fill="white"/>
<path d="M248.3 114.9C248.1 115.6 243.4 116.1 237.9 116.1H208.3C202.8 116.1 198.5 115.5 198.7 114.9C198.9 114.2 203.6 113.7 209.1 113.7H238.7C244.1 113.7 248.5 114.2 248.3 114.9Z" fill="white"/>
<path d="M343.7 145C343.4 148 338.6 150.5 333.1 150.5H270.1C264.6 150.5 260.4 148 260.7 145C261 142 265.8 139.5 271.3 139.5H334.3C339.8 139.5 344 142 343.7 145Z" fill="url(#paint11_linear)"/>
<path d="M341.7 163.7C341.4 166.7 336.6 169.2 331.1 169.2H268.1C262.6 169.2 258.4 166.7 258.7 163.7C259 160.7 263.8 158.2 269.3 158.2H332.3C337.8 158.1 342 160.6 341.7 163.7Z" fill="url(#paint12_linear)"/>
<path d="M337.6 244.1C337 249.6 332 254 326.5 254H189.4C183.9 254 179.9 249.5 180.5 244.1L186 192.5C186.6 187 191.6 182.6 197.1 182.6H334.2C339.7 182.6 343.7 187.1 343.1 192.5L337.6 244.1Z" fill="url(#paint13_linear)"/>
<path d="M208.2 223.1L205.4 244.4C205.3 245.1 205 245.7 204.5 246.1C204 246.6 203.4 246.8 202.7 246.9H197.8C197.5 246.9 197.2 246.8 196.9 246.7C196.6 246.6 196.4 246.4 196.2 246.1C196 245.9 195.9 245.6 195.8 245.3C195.7 245 195.7 244.7 195.8 244.4L198.6 223.1C198.7 222.4 199 221.8 199.5 221.3C200 220.8 200.6 220.6 201.3 220.5H206.2C206.5 220.5 206.8 220.6 207.1 220.7C207.4 220.8 207.6 221 207.8 221.3C208 221.5 208.1 221.8 208.2 222.1C208.3 222.4 208.2 222.8 208.2 223.1Z" fill="url(#paint14_linear)"/>
<path d="M225.2 214.2L221.2 244.4C221.1 245.1 220.8 245.7 220.3 246.1C219.8 246.6 219.2 246.8 218.5 246.9H213.6C213.3 246.9 213 246.8 212.7 246.7C212.4 246.6 212.2 246.4 212 246.1C211.8 245.9 211.7 245.6 211.6 245.3C211.5 245 211.5 244.7 211.6 244.4L215.6 214.2C215.7 213.5 216 212.9 216.5 212.5C217 212 217.6 211.8 218.3 211.7H223.2C223.5 211.7 223.8 211.8 224.1 211.9C224.4 212 224.6 212.2 224.8 212.5C225 212.7 225.1 213 225.2 213.3C225.2 213.6 225.2 213.9 225.2 214.2Z" fill="white"/>
<path d="M240.4 218.2L236.9 244.4C236.8 245.1 236.5 245.7 236 246.1C235.5 246.6 234.9 246.8 234.2 246.9H229.3C229 246.9 228.7 246.8 228.4 246.7C228.1 246.6 227.9 246.4 227.7 246.1C227.5 245.9 227.4 245.6 227.3 245.3C227.2 245 227.2 244.7 227.3 244.4L230.8 218.2C230.9 217.5 231.2 216.9 231.7 216.5C232.2 216 232.8 215.8 233.5 215.7H238.4C238.7 215.7 239 215.8 239.3 215.9C239.6 216 239.8 216.2 240 216.5C240.2 216.7 240.3 217 240.4 217.3C240.5 217.6 240.5 217.9 240.4 218.2Z" fill="url(#paint15_linear)"/>
<path d="M257.4 209.5L252.8 244.4C252.7 245.1 252.4 245.7 251.9 246.1C251.4 246.6 250.8 246.8 250.1 246.9H245.2C244.9 246.9 244.6 246.8 244.3 246.7C244 246.6 243.8 246.4 243.6 246.1C243.4 245.9 243.3 245.6 243.2 245.3C243.1 245 243.1 244.7 243.2 244.4L247.8 209.5C247.9 208.8 248.2 208.2 248.7 207.8C249.2 207.3 249.8 207.1 250.5 207H255.4C255.7 207 256 207.1 256.3 207.2C256.6 207.3 256.8 207.5 257 207.8C257.2 208 257.3 208.3 257.4 208.6C257.4 208.9 257.5 209.2 257.4 209.5Z" fill="#C2C2C2"/>
<path d="M270 233.8L268.6 244.4C268.5 245.1 268.2 245.7 267.7 246.2C267.2 246.7 266.6 246.9 265.9 247H261C260.7 247 260.4 246.9 260.1 246.8C259.8 246.7 259.6 246.5 259.4 246.2C259.2 246 259.1 245.7 259 245.4C258.9 245.1 258.9 244.8 259 244.5L260.4 233.9C260.5 233.2 260.8 232.6 261.3 232.2C261.8 231.7 262.4 231.5 263.1 231.4H268C268.3 231.4 268.6 231.5 268.9 231.6C269.2 231.7 269.4 231.9 269.6 232.2C269.8 232.4 269.9 232.7 270 233C270 233.2 270 233.5 270 233.8Z" fill="white"/>
<path d="M288.7 201.1L283 244.4C282.9 245.1 282.6 245.7 282.1 246.1C281.6 246.6 281 246.8 280.3 246.9H275.4C275.1 246.9 274.8 246.8 274.5 246.7C274.2 246.6 274 246.4 273.8 246.1C273.6 245.9 273.5 245.6 273.4 245.3C273.3 245 273.3 244.7 273.4 244.4L279.1 201.1C279.2 200.4 279.5 199.8 280 199.4C280.5 198.9 281.1 198.7 281.8 198.6H286.7C287 198.6 287.3 198.7 287.6 198.8C287.9 198.9 288.1 199.1 288.3 199.4C288.5 199.6 288.6 199.9 288.7 200.2C288.7 200.5 288.7 200.8 288.7 201.1Z" fill="#C2C2C2"/>
<path d="M303.7 218.2L300.2 244.4C300.1 245.1 299.8 245.7 299.3 246.1C298.8 246.6 298.2 246.8 297.5 246.9H292.6C292.3 246.9 292 246.8 291.7 246.7C291.4 246.6 291.2 246.4 291 246.1C290.8 245.9 290.7 245.6 290.6 245.3C290.5 245 290.5 244.7 290.6 244.4L294.1 218.2C294.2 217.5 294.5 216.9 295 216.5C295.5 216 296.1 215.8 296.8 215.7H301.7C302 215.7 302.3 215.8 302.6 215.9C302.9 216 303.1 216.2 303.3 216.5C303.5 216.7 303.6 217 303.7 217.3C303.7 217.6 303.7 217.9 303.7 218.2Z" fill="url(#paint16_linear)"/>
<path d="M320.6 209.5L316 244.4C315.9 245.1 315.6 245.7 315.1 246.1C314.6 246.6 314 246.8 313.3 246.9H308.4C308.1 246.9 307.8 246.8 307.5 246.7C307.2 246.6 307 246.4 306.8 246.1C306.6 245.9 306.5 245.6 306.4 245.3C306.3 245 306.3 244.7 306.4 244.4L311 209.5C311.1 208.8 311.4 208.2 311.9 207.8C312.4 207.3 313 207.1 313.7 207H318.6C318.9 207 319.2 207.1 319.5 207.2C319.8 207.3 320 207.5 320.2 207.8C320.4 208 320.5 208.3 320.6 208.6C320.6 208.9 320.7 209.2 320.6 209.5Z" fill="white"/>
<path d="M105 400.2L103.3 411L139.4 401.6C139.4 401.6 121.1 397.9 118.8 396.6C116.5 395.3 109.4 395.5 109.4 395.5L105 400.2Z" fill="#E6E7E8"/>
<path d="M69.3001 395.2L67.6001 407.4L106.4 397.9C106.4 397.9 88.9001 395.1 85.8001 393C82.7001 390.9 71.3001 391.6 71.3001 391.6L69.3001 395.2Z" fill="#E6E7E8"/>
<path d="M100.7 311.1L103.3 366L105 402.2H114.7L120.4 312.7L114.3 312.2L100.7 311.1Z" fill="#E6E7E8"/>
<path d="M88.4999 310.3L80.6999 394.7H70.1999L68.3999 305.9L88.4999 310.3Z" fill="#E6E7E8"/>
<path d="M68.3999 305.9H68.8999L84.6999 309.4C82.3999 312.9 75.7999 323.8 75.2999 336.4C74.7999 351.5 70.9999 373.9 70.8999 374.7L68.8999 334.1L68.3999 305.9Z" fill="#DCDDDE"/>
<path d="M63.2999 262.2C63.2999 262.2 60.6999 266.9 63.0999 279.2C64.8999 288.7 58.3999 311 58.3999 311L90.6999 310.2L111.5 303.5L109.7 280.5L89.9999 258L63.2999 262.2Z" fill="url(#paint17_linear)"/>
<path d="M100.7 311.1L103.3 366C103.4 365.4 106.4 347.6 106.8 335.5C107.2 323.2 114.9 313 114.9 313L114.3 312.1L100.7 311.1Z" fill="#DCDDDE"/>
<path d="M126.7 252.1L130.3 311.4L89.9002 314.7C89.9002 314.7 91.5002 298.8 90.0002 289.9C86.0002 265.8 91.0002 258.9 91.0002 258.9L96.7002 248.4L126.7 252.1Z" fill="url(#paint18_linear)"/>
<path d="M97.8002 168.9C97.8002 168.9 97.1002 171 96.2002 173.7C94.7002 178.2 92.8002 184.2 92.7002 184.7C92.5002 185.5 86.0002 188.5 86.0002 188.5C86.0002 188.5 81.6002 184.4 81.3002 184C81.0002 183.6 76.7002 171.1 76.7002 171.1C76.5002 169.5 76.4002 167.8 76.6002 166.2C76.7002 162.1 76.3002 152.1 76.3002 152.1L74.7002 150L78.3002 139.5C78.3002 139.5 83.3002 140.2 87.7002 141.8C91.2002 143 94.4002 144.7 94.4002 147C94.1002 151.8 97.8002 168.9 97.8002 168.9Z" fill="#DCDDDE"/>
<path d="M73.8999 118.9C74.8999 124.8 76.6999 130.5 79.1999 135.9C80.1999 131.8 81.3999 127.2 81.3999 127.2L92.2999 116.4C92.2999 116.4 98.8999 113.7 101.6 114C102.3 114.1 103.3 114.2 104.2 114.2L83.9999 110.2L73.8999 118.9Z" fill="#F5D9DE"/>
<path d="M79.2002 135.9C80.8002 139.4 82.6002 142.7 84.8002 145.9C86.4002 148.3 88.2002 150.7 90.0002 152.9C95.2002 158.9 97.4002 158 99.0002 157.5C101.8 156.6 104.5 149.4 106.3 136.2C106.8 132.9 106.9 129.5 106.7 126.1C106.6 122.1 105.8 118.1 104.4 114.3H104.3C103.3 114.2 102.4 114.1 101.7 114.1C99.0002 113.8 92.4002 116.5 92.4002 116.5L81.5002 127.3C81.4002 127.2 80.2002 131.8 79.2002 135.9Z" fill="#E6E7E8"/>
<path d="M79.2002 135.9C80.8002 139.4 82.6002 142.7 84.8002 145.9C86.4002 148.3 88.2002 150.7 90.0002 152.9C90.1002 152.7 94.3002 145.8 94.3002 142.2C94.3002 138.6 96.7002 141.7 99.1002 143.4C101.5 145.2 100.2 132.5 101.8 132.9C103.4 133.3 105.1 129.3 105.3 127.9C105.4 127.5 105.5 127.1 105.8 126.8C106 126.5 106.4 126.2 106.7 126C106.6 122 105.8 118 104.4 114.2H104.3C103.3 114.1 102.4 114 101.7 114C99.0002 113.7 92.4002 116.4 92.4002 116.4L81.5002 127.2C81.4002 127.2 80.2002 131.8 79.2002 135.9Z" fill="#DCDDDE"/>
<path d="M97.7 164.7C97.7 164.7 97 165.9 96.1 167.4L93.5 166.5C92.9 163.9 92.1 161.4 91.1 159C90 156.9 85.5 157.2 85.5 157.2L83.5 152.3L87.6 149.9C91.1 150.5 94.3 151.4 94.2 152.7C94.2 155.4 97.7 164.7 97.7 164.7Z" fill="#E6E7E8"/>
<path d="M118.2 266.8C118.2 266.8 102.9 272.8 106.5 284.5C110.2 296.2 117.8 306.6 109 300.6C100.2 294.6 89.0001 275 94.2001 266.8C99.5001 258.6 118.2 266.8 118.2 266.8Z" fill="url(#paint19_linear)"/>
<path d="M132.1 261.7C132.1 261.7 119.7 271.2 97.6 271.8C78.6 272.3 55.4 263.8 55.4 263.8C55.4 263.8 55.1 261.5 57.3 236.7C57.5 234.3 57.7 231.9 58 229.7C59.1 218.8 60.4 209.8 61.8 202.2C68.8 164.4 78.3 164.2 78.3 164.2L80.1 163.8C87.4 162.1 95.2 163.2 101.8 166.8C103.3 167.6 104.6 168.6 105.7 169.9C112 178.3 132.1 261.7 132.1 261.7Z" fill="#F1F2F2"/>
<path d="M111.3 102.7C111.4 102.6 111.6 102.5 111.8 102.5C112 102.5 112.2 102.5 112.4 102.6C112.6 102.7 112.7 102.8 112.9 102.9C113 103.1 113.1 103.2 113.1 103.4C113.5 106.5 113.7 112.2 111.4 116.6C108.4 122.3 105.9 121.9 104.7 125.1C103.5 128.3 103.2 129.7 100.7 129.3C98.2 128.9 97.9 127.2 97.8 129.9C97.6 132.2 97.6 134.5 97.8 136.8C98.1 138.7 100 141.6 98.1 139.9C96.2 138.2 94.9 130.9 92.6 131.5C90.2 132.1 86.6 136.5 89.2 138.1C91.8 139.7 92.7 142.9 91.8 144.8C90.9 146.7 89.2 151.2 86.9 152.3C84.6 153.4 76.6 152.8 73.4 151C69.2 148.6 65.6 142.8 64.7 138.5C64 134.8 64.5 119.4 69.2 111.4C73.9 103.5 82.9 97.9996 88.6 98.6996C92.7 99.1996 102.1 107.9 106.1 105.9C108 105.1 109.7 104 111.3 102.7Z" fill="black"/>
<path d="M120.7 198.9C121 203.3 121.6 207.6 122.6 211.9C123.4 211.4 135.7 203.9 140.8 196.7C143.3 193.2 146 188.7 148.5 184.9C151.2 180.6 153.5 177.1 154.5 176.7C156.4 175.9 162.4 174.8 161.7 172C161.1 169.2 162.3 164.8 160.7 163.5C159.1 162.2 157.5 161.7 157.7 160.4C157.9 159.1 164.1 151.8 164.2 151.1C164.2 150.8 164.2 150.5 164 150.2C163.9 149.9 163.6 149.7 163.4 149.5C163.1 149.3 162.8 149.3 162.5 149.3C162.2 149.3 161.9 149.4 161.6 149.6C161.3 149.8 161.1 150.1 160.9 150.3C159.7 151.9 154.9 158.4 153.5 159.3C152.1 160.2 149.8 160.7 147.8 164C145.8 167.3 146.3 170.7 145.3 171.9C143.5 174.1 141.6 176.2 139.4 178C134.9 181.7 127.6 187.7 123.7 191.1C122.7 192 122 192.7 121.5 193.1C120.8 194.1 120.6 196.3 120.7 198.9Z" fill="#E6E7E8"/>
<path d="M119.5 183.4C119.5 183.4 127.3 196 128 201C128.3 204.1 127.8 207 126.6 209C125.4 211 123.6 212.1 121.5 212.1H116.5L107.3 185.8L112 177.1L119.5 183.4Z" fill="#E6E7E8"/>
<path d="M100.5 165.8C105.3 166.6 109.4 168.6 112.1 171.3C117.3 176.2 126.2 188 126.2 188C126.2 188 118.1 190.5 112.1 189.6L106.1 188.7L100.5 165.8Z" fill="url(#paint20_linear)"/>
<path d="M398.5 131.3C397.8 131.3 397.1 131.5 396.5 131.8C395.9 132.2 395.4 132.7 395 133.3C394.6 133.9 394.4 134.6 394.4 135.3C394.4 136 394.5 136.7 394.9 137.2L383.3 148C382.7 147.6 382 147.4 381.3 147.4C380.6 147.4 379.8 147.7 379.2 148.1L376.4 144.9C376.8 144.3 377.1 143.7 377.2 143C377.3 142.3 377.2 141.6 377 141C376.7 140.4 376.3 139.9 375.8 139.5C375.2 139.1 374.6 139 373.9 139C373.2 139 372.5 139.2 371.9 139.5C371.3 139.9 370.7 140.4 370.4 141C370 141.6 369.8 142.3 369.8 143C369.8 143.7 369.9 144.4 370.3 144.9L362.9 151.7C362.3 151.3 361.6 151 360.8 151C360 151 359.1 151.3 358.4 151.8C357.7 152.3 357.1 153.1 356.8 153.9C356.5 154.7 356.5 155.6 356.7 156.4C357 157.2 357.5 157.8 358.2 158.2C358.9 158.6 359.8 158.7 360.6 158.6C361.5 158.5 362.3 158 362.9 157.4C363.5 156.8 364 156 364.1 155.1C364.2 154.2 364.1 153.4 363.7 152.7L371.1 145.9C371.7 146.3 372.4 146.6 373.2 146.6C374 146.6 374.7 146.4 375.4 145.9L378.3 149.1C377.8 149.7 377.6 150.4 377.5 151.2C377.4 152.2 377.7 153.2 378.4 153.9C379 154.6 380 155 381 155C382 155 383 154.6 383.8 153.9C384.6 153.2 385.1 152.2 385.2 151.2C385.3 150.4 385.1 149.6 384.6 148.9L396.2 138.2C396.7 138.5 397.2 138.8 397.8 138.8C398.4 138.9 399 138.8 399.6 138.6C400.2 138.4 400.7 138.1 401.2 137.6C401.6 137.2 402 136.6 402.2 136.1C402.4 135.5 402.5 134.9 402.5 134.3C402.4 133.7 402.3 133.2 401.9 132.7C401.6 132.2 401.2 131.8 400.7 131.6C399.7 131.4 399.1 131.3 398.5 131.3ZM359.9 157.3C359.4 157.3 359 157.2 358.6 156.9C358.2 156.6 358 156.3 357.8 155.8C357.7 155.4 357.7 154.9 357.8 154.4C357.9 153.9 358.2 153.5 358.6 153.2C359 152.9 359.4 152.6 359.9 152.6C360.4 152.5 360.8 152.6 361.3 152.7C361.7 152.9 362 153.2 362.3 153.6C362.5 154 362.6 154.4 362.6 154.9C362.6 155.2 362.5 155.5 362.3 155.8C362.2 156.1 361.9 156.4 361.7 156.6C361.5 156.8 361.2 157 360.9 157.1C360.5 157.2 360.2 157.3 359.9 157.3ZM373.1 145.2C372.6 145.2 372.2 145.1 371.8 144.8C371.4 144.5 371.2 144.2 371 143.7C370.9 143.3 370.9 142.8 371 142.3C371.1 141.8 371.4 141.4 371.8 141.1C372.2 140.8 372.6 140.5 373.1 140.5C373.6 140.4 374 140.5 374.4 140.6C374.8 140.8 375.1 141.1 375.4 141.5C375.6 141.9 375.7 142.4 375.7 142.8C375.7 143.1 375.6 143.4 375.4 143.7C375.3 144 375.1 144.3 374.8 144.5C374.6 144.7 374.3 144.9 374 145C373.8 145.2 373.4 145.2 373.1 145.2ZM380.8 153.6C380.3 153.6 379.9 153.5 379.5 153.2C379.1 152.9 378.9 152.6 378.7 152.1C378.6 151.7 378.6 151.2 378.7 150.7C378.8 150.2 379.1 149.8 379.5 149.5C379.9 149.2 380.3 148.9 380.8 148.9C381.3 148.8 381.7 148.9 382.1 149C382.5 149.2 382.9 149.5 383.1 149.9C383.3 150.3 383.4 150.7 383.4 151.2C383.3 151.8 383 152.4 382.6 152.9C382 153.4 381.4 153.6 380.8 153.6ZM398 137.5C397.5 137.5 397.1 137.4 396.7 137.1C396.3 136.8 396.1 136.5 395.9 136C395.8 135.6 395.8 135.1 395.9 134.6C396 134.1 396.3 133.7 396.6 133.4C397 133.1 397.4 132.8 397.8 132.8C398.3 132.7 398.7 132.8 399.1 132.9C399.5 133.1 399.9 133.4 400.1 133.8C400.3 134.2 400.4 134.6 400.4 135.1C400.3 135.7 400.1 136.3 399.6 136.8C399.2 137.2 398.6 137.5 398 137.5Z" fill="url(#paint21_linear)"/>
<path d="M347.9 249.5L372.3 195L379.1 219.5L400.4 177L395.6 225.9L408 208.2L416.4 222.7L424 207.4L439.2 221.1L450.1 207.4L467.3 243.9L492.1 169.4L502.6 205L516.6 185.8L528.2 241.1" stroke="#8D9092" stroke-width="0.75" stroke-miterlimit="10" stroke-dasharray="4 4"/>
<path d="M361 249.8L384 200.5L390.4 222.6L410.4 184.1L405.9 228.4L417.6 212.4L425.5 225.5L432.6 211.7L447 224L457.1 211.7L473.3 244.7L496.7 177.3L506.5 209.5L519.7 192.1L530.6 242.2" stroke="#EDF0F2" stroke-width="0.75" stroke-miterlimit="10" stroke-dasharray="4 4"/>
</g>
<defs>
<filter id="filter0_d" x="-30" y="-20" width="660" height="510" filterUnits="userSpaceOnUse" color-interpolation-filters="sRGB">
<feFlood flood-opacity="0" result="BackgroundImageFix"/>
<feColorMatrix in="SourceAlpha" type="matrix" values="0 0 0 0 0 0 0 0 0 0 0 0 0 0 0 0 0 0 127 0" result="hardAlpha"/>
<feOffset dy="10"/>
<feGaussianBlur stdDeviation="15"/>
<feColorMatrix type="matrix" values="0 0 0 0 0 0 0 0 0 0 0 0 0 0 0 0 0 0 0.25 0"/>
<feBlend mode="normal" in2="BackgroundImageFix" result="effect1_dropShadow"/>
<feBlend mode="normal" in="SourceGraphic" in2="effect1_dropShadow" result="shape"/>
</filter>
<linearGradient id="paint0_linear" x1="75.8706" y1="177.615" x2="47.298" y2="182.122" gradientUnits="userSpaceOnUse">
<stop stop-color="#75DAFF"/>
<stop offset="1" stop-color="#00BAFF"/>
</linearGradient>
<linearGradient id="paint1_linear" x1="488.223" y1="80.041" x2="488.591" y2="67.1392" gradientUnits="userSpaceOnUse">
<stop stop-color="#75DAFF"/>
<stop offset="1" stop-color="#00BAFF"/>
</linearGradient>
<linearGradient id="paint2_linear" x1="515.773" y1="75.2729" x2="516.565" y2="61.8818" gradientUnits="userSpaceOnUse">
<stop stop-color="#75DAFF"/>
<stop offset="1" stop-color="#00BAFF"/>
</linearGradient>
<linearGradient id="paint3_linear" x1="405.386" y1="101.463" x2="405.754" y2="88.5625" gradientUnits="userSpaceOnUse">
<stop stop-color="#75DAFF"/>
<stop offset="1" stop-color="#00BAFF"/>
</linearGradient>
<linearGradient id="paint4_linear" x1="379.234" y1="83.7496" x2="378.442" y2="97.1345" gradientUnits="userSpaceOnUse">
<stop stop-color="#75DAFF"/>
<stop offset="1" stop-color="#00BAFF"/>
</linearGradient>
<linearGradient id="paint5_linear" x1="483.135" y1="143.995" x2="483.503" y2="131.095" gradientUnits="userSpaceOnUse">
<stop stop-color="#75DAFF"/>
<stop offset="1" stop-color="#00BAFF"/>
</linearGradient>
<linearGradient id="paint6_linear" x1="509.555" y1="149.23" x2="510.347" y2="135.843" gradientUnits="userSpaceOnUse">
<stop stop-color="#75DAFF"/>
<stop offset="1" stop-color="#00BAFF"/>
</linearGradient>
<linearGradient id="paint7_linear" x1="458.518" y1="107.5" x2="460.547" y2="74.1893" gradientUnits="userSpaceOnUse">
<stop stop-color="#75DAFF"/>
<stop offset="1" stop-color="#00BAFF"/>
</linearGradient>
<linearGradient id="paint8_linear" x1="216.771" y1="173.068" x2="228.599" y2="85.4689" gradientUnits="userSpaceOnUse">
<stop stop-color="#75DAFF"/>
<stop offset="1" stop-color="#00BAFF"/>
</linearGradient>
<linearGradient id="paint9_linear" x1="201.606" y1="74.2413" x2="350.575" y2="74.2413" gradientUnits="userSpaceOnUse">
<stop stop-color="#75DAFF"/>
<stop offset="1" stop-color="#00BAFF"/>
</linearGradient>
<linearGradient id="paint10_linear" x1="304.871" y1="131.456" x2="305.026" y2="120.204" gradientUnits="userSpaceOnUse">
<stop stop-color="#75DAFF"/>
<stop offset="1" stop-color="#00BAFF"/>
</linearGradient>
<linearGradient id="paint11_linear" x1="302.1" y1="150.467" x2="302.254" y2="139.213" gradientUnits="userSpaceOnUse">
<stop stop-color="#75DAFF"/>
<stop offset="1" stop-color="#00BAFF"/>
</linearGradient>
<linearGradient id="paint12_linear" x1="300.082" y1="169.095" x2="300.238" y2="157.843" gradientUnits="userSpaceOnUse">
<stop stop-color="#75DAFF"/>
<stop offset="1" stop-color="#00BAFF"/>
</linearGradient>
<linearGradient id="paint13_linear" x1="260.181" y1="253.716" x2="263.49" y2="180.526" gradientUnits="userSpaceOnUse">
<stop stop-color="#75DAFF"/>
<stop offset="1" stop-color="#00BAFF"/>
</linearGradient>
<linearGradient id="paint14_linear" x1="195.718" y1="233.764" x2="208.214" y2="233.764" gradientUnits="userSpaceOnUse">
<stop stop-color="#71449A"/>
<stop offset="0.8668" stop-color="#A66CAC"/>
</linearGradient>
<linearGradient id="paint15_linear" x1="227.298" y1="231.29" x2="240.438" y2="231.29" gradientUnits="userSpaceOnUse">
<stop stop-color="#71449A"/>
<stop offset="0.8668" stop-color="#A66CAC"/>
</linearGradient>
<linearGradient id="paint16_linear" x1="290.529" y1="231.29" x2="303.694" y2="231.29" gradientUnits="userSpaceOnUse">
<stop stop-color="#71449A"/>
<stop offset="0.8668" stop-color="#A66CAC"/>
</linearGradient>
<linearGradient id="paint17_linear" x1="58.3735" y1="284.512" x2="111.499" y2="284.512" gradientUnits="userSpaceOnUse">
<stop stop-color="#75DAFF"/>
<stop offset="1" stop-color="#00BAFF"/>
</linearGradient>
<linearGradient id="paint18_linear" x1="88.4789" y1="281.505" x2="130.298" y2="281.505" gradientUnits="userSpaceOnUse">
<stop stop-color="#75DAFF"/>
<stop offset="1" stop-color="#00BAFF"/>
</linearGradient>
<linearGradient id="paint19_linear" x1="92.8979" y1="282.767" x2="118.196" y2="282.767" gradientUnits="userSpaceOnUse">
<stop stop-color="#75DAFF"/>
<stop offset="1" stop-color="#00BAFF"/>
</linearGradient>
<linearGradient id="paint20_linear" x1="124.208" y1="175.39" x2="102.531" y2="178.809" gradientUnits="userSpaceOnUse">
<stop stop-color="#75DAFF"/>
<stop offset="1" stop-color="#00BAFF"/>
</linearGradient>
<linearGradient id="paint21_linear" x1="378.258" y1="158.808" x2="380.103" y2="130.285" gradientUnits="userSpaceOnUse">
<stop stop-color="#71449A"/>
<stop offset="0.8668" stop-color="#A66CAC"/>
</linearGradient>
</defs>
</svg>
