<svg width="671" height="432" viewBox="0 0 671 432" fill="none" xmlns="http://www.w3.org/2000/svg">
<g filter="url(#filter0_d)">
<path d="M95.5811 128.703C108.42 128.703 118.828 118.286 118.828 105.437C118.828 92.5875 108.42 82.1709 95.5811 82.1709C82.7421 82.1709 72.334 92.5875 72.334 105.437C72.334 118.286 82.7421 128.703 95.5811 128.703Z" fill="url(#paint0_linear)"/>
<path d="M273.025 77.3823C284.256 77.3823 293.361 68.2701 293.361 57.0295C293.361 45.789 284.256 36.6768 273.025 36.6768C261.793 36.6768 252.688 45.789 252.688 57.0295C252.688 68.2701 261.793 77.3823 273.025 77.3823Z" fill="url(#paint1_linear)"/>
<path d="M447.199 138.64C460.214 138.64 470.765 128.081 470.765 115.055C470.765 102.029 460.214 91.4697 447.199 91.4697C434.184 91.4697 423.633 102.029 423.633 115.055C423.633 128.081 434.184 138.64 447.199 138.64Z" fill="url(#paint2_linear)"/>
<path d="M556.735 211.472C569.002 211.472 578.946 201.52 578.946 189.243C578.946 176.967 569.002 167.015 556.735 167.015C544.469 167.015 534.525 176.967 534.525 189.243C534.525 201.52 544.469 211.472 556.735 211.472Z" fill="url(#paint3_linear)"/>
<path d="M618.622 309.763C630.492 309.763 640.114 300.133 640.114 288.253C640.114 276.374 630.492 266.743 618.622 266.743C606.751 266.743 597.129 276.374 597.129 288.253C597.129 300.133 606.751 309.763 618.622 309.763Z" fill="url(#paint4_linear)"/>
<path d="M67.4293 292.484C80.1362 292.484 90.4371 282.174 90.4371 269.457C90.4371 256.74 80.1362 246.431 67.4293 246.431C54.7224 246.431 44.4214 256.74 44.4214 269.457C44.4214 282.174 54.7224 292.484 67.4293 292.484Z" fill="url(#paint5_linear)"/>
<path d="M84.8144 188.165C88.0297 188.165 90.6362 185.556 90.6362 182.338C90.6362 179.12 88.0297 176.512 84.8144 176.512C81.5992 176.512 78.9927 179.12 78.9927 182.338C78.9927 185.556 81.5992 188.165 84.8144 188.165Z" fill="url(#paint6_linear)"/>
<path d="M344.8 63.2547C347.266 63.2547 349.266 61.2536 349.266 58.7851C349.266 56.3166 347.266 54.3154 344.8 54.3154C342.333 54.3154 340.334 56.3166 340.334 58.7851C340.334 61.2536 342.333 63.2547 344.8 63.2547Z" fill="url(#paint7_linear)"/>
<path d="M209.663 97.5754C212.504 97.5754 214.807 95.2706 214.807 92.4274C214.807 89.5842 212.504 87.2793 209.663 87.2793C206.823 87.2793 204.52 89.5842 204.52 92.4274C204.52 95.2706 206.823 97.5754 209.663 97.5754Z" fill="url(#paint8_linear)"/>
<path d="M592.423 129.82C596.013 129.82 598.923 126.908 598.923 123.315C598.923 119.723 596.013 116.811 592.423 116.811C588.834 116.811 585.924 119.723 585.924 123.315C585.924 126.908 588.834 129.82 592.423 129.82Z" fill="url(#paint9_linear)"/>
<path d="M615.75 241.721C617.446 241.721 618.82 240.345 618.82 238.648C618.82 236.951 617.446 235.575 615.75 235.575C614.054 235.575 612.68 236.951 612.68 238.648C612.68 240.345 614.054 241.721 615.75 241.721Z" fill="url(#paint10_linear)"/>
<path d="M145.186 306.251C146.881 306.251 148.256 304.875 148.256 303.178C148.256 301.481 146.881 300.105 145.186 300.105C143.49 300.105 142.115 301.481 142.115 303.178C142.115 304.875 143.49 306.251 145.186 306.251Z" fill="url(#paint11_linear)"/>
<path opacity="0.3" d="M395.281 115.574L383.319 119.605L383.877 121.281L395.84 117.25L395.281 115.574Z" fill="url(#paint12_linear)"/>
<path opacity="0.3" d="M399.628 128.544L387.666 132.575L388.224 134.251L400.186 130.22L399.628 128.544Z" fill="url(#paint13_linear)"/>
<path opacity="0.3" d="M404.014 141.514L392.052 145.544L392.61 147.22L404.572 143.19L404.014 141.514Z" fill="url(#paint14_linear)"/>
<path opacity="0.3" d="M408.361 154.484L396.398 158.515L396.956 160.191L408.919 156.16L408.361 154.484Z" fill="url(#paint15_linear)"/>
<path opacity="0.3" d="M412.707 167.454L400.744 171.485L401.302 173.161L413.265 169.13L412.707 167.454Z" fill="url(#paint16_linear)"/>
<path d="M300.778 338.257H253.964L258.949 332.032C262.737 327.323 264.771 321.456 264.771 315.391V271.852H289.932V315.391C289.932 321.417 292.005 327.283 295.753 332.032L300.778 338.257Z" fill="#E6E7E8"/>
<path d="M300.778 338.258H253.964V342.129H300.778V338.258Z" fill="url(#paint17_linear)"/>
<path d="M289.932 276.76V310.681L264.771 301.383V276.76H289.932Z" fill="url(#paint18_linear)"/>
<path d="M411.79 109.189V254.931H142.953V109.189C142.953 108.71 143.032 108.271 143.192 107.792C143.471 107.034 143.989 106.355 144.667 105.877C145.345 105.398 146.143 105.158 146.94 105.158H407.723C408.241 105.158 408.759 105.278 409.238 105.477C409.716 105.677 410.155 105.956 410.554 106.355C410.913 106.715 411.232 107.154 411.431 107.672C411.67 108.111 411.79 108.63 411.79 109.189Z" fill="#231F20"/>
<path d="M142.993 254.931H411.79V281.868C411.79 283.704 411.072 285.5 409.756 286.777C408.44 288.094 406.686 288.812 404.852 288.812H149.931C148.097 288.812 146.302 288.094 145.026 286.777C143.71 285.46 142.993 283.704 142.993 281.868V254.931Z" fill="#E6E7E8"/>
<path d="M405.649 113.459C405.649 112.342 404.772 111.464 403.655 111.464H151.366C150.25 111.464 149.373 112.342 149.373 113.459V247.309C149.373 248.426 150.25 249.304 151.366 249.304H403.655C404.772 249.304 405.649 248.426 405.649 247.309V113.459Z" fill="url(#paint19_linear)"/>
<path d="M284.07 273.448C284.947 269.736 282.635 266.025 278.926 265.147C275.218 264.269 271.509 266.584 270.632 270.295C269.755 274.006 272.068 277.718 275.776 278.596C279.484 279.474 283.193 277.159 284.07 273.448Z" fill="#231F20"/>
<path d="M118.19 252.616H95.5811V259.121H118.19V252.616Z" fill="url(#paint20_linear)"/>
<path d="M128.358 251.099H90.1979C89.5998 251.099 89.0017 251.219 88.4434 251.458C87.8852 251.698 87.3668 252.017 86.9681 252.456C86.5294 252.895 86.2104 253.374 85.9712 253.933C85.7319 254.491 85.6123 255.09 85.6123 255.689V340.212C85.6123 341.45 86.0908 342.607 86.9681 343.485C87.8453 344.363 89.0017 344.842 90.2378 344.842H128.398C128.996 344.842 129.594 344.722 130.153 344.483C130.711 344.243 131.229 343.924 131.628 343.485C132.067 343.046 132.386 342.567 132.625 342.008C132.864 341.45 132.984 340.851 132.984 340.252V255.689C132.984 255.09 132.864 254.491 132.625 253.933C132.386 253.374 132.067 252.855 131.628 252.456C131.189 252.017 130.711 251.698 130.153 251.458C129.555 251.179 128.956 251.059 128.358 251.099ZM102.838 253.534C102.838 253.454 102.878 253.374 102.958 253.294C102.998 253.254 103.038 253.254 103.078 253.214C103.117 253.214 103.157 253.174 103.197 253.174H113.644C113.684 253.174 113.724 253.174 113.764 253.214C113.804 253.214 113.844 253.254 113.884 253.294C113.924 253.334 113.924 253.374 113.963 253.414C113.963 253.454 114.003 253.494 114.003 253.534C114.003 253.613 113.963 253.693 113.884 253.773C113.804 253.853 113.724 253.853 113.644 253.853H103.197C103.157 253.853 103.117 253.853 103.078 253.813C103.038 253.813 102.998 253.773 102.958 253.733C102.918 253.693 102.918 253.653 102.878 253.613C102.838 253.613 102.838 253.574 102.838 253.534ZM115.04 253.534C115.04 253.454 115.04 253.414 115.08 253.334C115.12 253.294 115.16 253.214 115.239 253.214C115.319 253.214 115.359 253.174 115.439 253.174C115.519 253.174 115.558 253.214 115.598 253.254C115.638 253.294 115.678 253.374 115.678 253.414C115.678 253.494 115.678 253.534 115.678 253.613C115.678 253.693 115.598 253.733 115.558 253.773C115.519 253.813 115.439 253.813 115.359 253.813C115.279 253.813 115.2 253.773 115.12 253.733C115.08 253.733 115.04 253.613 115.04 253.534Z" fill="#231F20"/>
<path d="M120.303 252.497C118.788 254.692 116.196 256.009 113.365 256.009H105.191C102.36 256.009 99.7678 254.692 98.2526 252.497H89.6396C89.3206 252.497 89.0016 252.577 88.7224 252.696C88.4433 252.816 88.1642 252.976 87.9648 253.215C87.7256 253.455 87.5661 253.694 87.4464 254.013C87.3268 254.293 87.2471 254.612 87.2471 254.931V340.812C87.2471 341.131 87.3268 341.451 87.4464 341.73C87.5661 342.009 87.7256 342.289 87.9648 342.528C88.2041 342.767 88.4433 342.927 88.7224 343.047C89.0016 343.167 89.3206 343.246 89.6396 343.246H128.877C129.515 343.246 130.113 343.007 130.551 342.528C130.99 342.089 131.269 341.451 131.269 340.852V254.891C131.269 254.572 131.189 254.253 131.07 253.974C130.95 253.694 130.791 253.415 130.551 253.175C130.312 252.936 130.073 252.776 129.794 252.657C129.515 252.537 129.196 252.457 128.877 252.457H120.303V252.497Z" fill="url(#paint21_linear)"/>
<path d="M98.2524 252.496C98.2923 252.536 98.2923 252.576 98.3322 252.616C98.3721 252.696 98.4518 252.775 98.4917 252.815C98.5316 252.895 98.5714 252.935 98.6512 253.015C98.6911 253.095 98.7309 253.135 98.8107 253.175C98.8506 253.214 98.9303 253.294 98.9702 253.374C99.0101 253.414 99.0898 253.494 99.1297 253.534C99.1696 253.574 99.2493 253.653 99.2892 253.693C99.4088 253.813 99.5284 253.893 99.6481 254.013C99.7278 254.052 99.7677 254.132 99.8474 254.172L100.047 254.332C100.127 254.372 100.166 254.412 100.246 254.491C100.326 254.531 100.366 254.571 100.446 254.611C100.525 254.651 100.565 254.691 100.645 254.731C100.765 254.811 100.924 254.891 101.084 254.97C101.163 255.01 101.243 255.05 101.323 255.09C101.403 255.13 101.482 255.17 101.562 255.21C101.642 255.25 101.722 255.29 101.801 255.33C101.961 255.409 102.12 255.449 102.28 255.529C102.36 255.569 102.439 255.569 102.519 255.609C102.639 255.649 102.758 255.689 102.838 255.729H102.878C102.998 255.769 103.117 255.808 103.237 255.808C103.317 255.808 103.396 255.848 103.476 255.848C103.556 255.848 103.636 255.888 103.715 255.888C103.755 255.888 103.795 255.888 103.795 255.888C103.835 255.888 103.875 255.888 103.915 255.928C103.955 255.928 103.994 255.928 104.034 255.928C104.034 255.928 104.034 255.928 104.074 255.928L104.234 255.968C104.313 255.968 104.353 255.968 104.433 255.968C104.593 255.968 104.712 256.008 104.872 256.008C104.991 256.008 105.111 256.008 105.231 256.008H113.405C113.525 256.008 113.604 256.008 113.724 256.008C113.844 256.008 114.003 256.008 114.123 255.968C114.202 255.968 114.322 255.968 114.402 255.928C114.442 255.928 114.482 255.928 114.521 255.928C114.601 255.928 114.641 255.928 114.721 255.888C114.84 255.888 114.92 255.848 115.04 255.848C115.159 255.848 115.239 255.808 115.359 255.769C115.478 255.729 115.558 255.729 115.678 255.689C115.797 255.649 115.877 255.649 115.997 255.609C116.116 255.569 116.236 255.529 116.316 255.489C116.396 255.449 116.475 255.409 116.555 255.409C116.635 255.369 116.715 255.369 116.754 255.33C116.954 255.25 117.153 255.17 117.353 255.05C117.432 255.01 117.512 254.97 117.592 254.93C117.672 254.891 117.751 254.851 117.791 254.811C117.871 254.771 117.911 254.731 117.991 254.691C118.07 254.651 118.11 254.611 118.19 254.571C118.27 254.531 118.31 254.491 118.389 254.452C118.469 254.412 118.509 254.372 118.589 254.292C118.708 254.212 118.788 254.132 118.868 254.052C118.948 253.973 119.067 253.893 119.147 253.813C119.187 253.773 119.267 253.733 119.306 253.653C119.386 253.574 119.426 253.534 119.506 253.454C119.586 253.374 119.625 253.334 119.705 253.254C119.745 253.214 119.785 253.175 119.825 253.095C119.865 253.015 119.944 252.975 119.984 252.895C120.104 252.775 120.184 252.616 120.263 252.496H98.2524ZM113.883 253.773C113.844 253.813 113.804 253.813 113.764 253.853C113.724 253.853 113.684 253.893 113.644 253.893H103.197C103.157 253.893 103.117 253.893 103.077 253.853C103.037 253.853 102.998 253.813 102.958 253.773C102.918 253.733 102.918 253.693 102.878 253.653C102.878 253.613 102.838 253.574 102.838 253.534C102.838 253.454 102.878 253.374 102.958 253.294C102.998 253.254 103.037 253.254 103.077 253.214C103.117 253.214 103.157 253.175 103.197 253.175H113.644C113.724 253.175 113.844 253.214 113.883 253.294C113.963 253.374 114.003 253.454 114.003 253.534C114.003 253.574 114.003 253.613 113.963 253.653C113.923 253.693 113.883 253.733 113.883 253.773ZM115.359 253.893C115.279 253.893 115.239 253.853 115.159 253.853C115.12 253.813 115.04 253.773 115.04 253.693C115 253.614 115 253.574 115.04 253.494C115.04 253.414 115.08 253.374 115.12 253.334C115.159 253.294 115.239 253.254 115.279 253.254C115.359 253.254 115.399 253.254 115.478 253.294C115.558 253.334 115.598 253.374 115.638 253.414C115.678 253.454 115.678 253.534 115.678 253.614C115.678 253.653 115.678 253.693 115.638 253.733C115.638 253.773 115.598 253.813 115.558 253.853C115.518 253.893 115.478 253.893 115.439 253.933C115.478 253.853 115.399 253.893 115.359 253.893Z" fill="#231F20"/>
<path d="M432.605 221.408H589.792C592.822 221.408 595.733 222.605 597.886 224.76C600.04 226.915 601.236 229.829 601.236 232.862V337.419H421.121V232.902C421.121 229.869 422.317 226.955 424.47 224.8C426.663 222.645 429.574 221.408 432.605 221.408Z" fill="#231F20"/>
<path d="M596.092 231.066C596.092 228.871 594.298 227.075 592.105 227.075H430.332C428.139 227.075 426.344 228.871 426.344 231.066V323.372C426.344 325.567 428.139 327.363 430.332 327.363H592.105C594.298 327.363 596.092 325.567 596.092 323.372V231.066Z" fill="url(#paint22_linear)"/>
<path opacity="0.9" d="M601.276 333.069H421.161V337.419H601.276V333.069Z" fill="white"/>
<path d="M416.694 345.281H605.742C607.815 345.281 609.809 344.443 611.284 342.966C612.76 341.489 613.597 339.494 613.597 337.419H408.839C408.839 339.494 409.676 341.489 411.152 342.966C412.587 344.443 414.581 345.281 416.694 345.281Z" fill="#E6E7E8"/>
<path d="M523.081 340.771H499.236C498.358 340.771 497.481 340.412 496.843 339.773C496.205 339.135 495.846 338.297 495.846 337.379H526.43C526.43 337.818 526.351 338.257 526.191 338.656C526.032 339.055 525.792 339.454 525.473 339.733C525.154 340.053 524.795 340.292 524.397 340.452C523.958 340.691 523.519 340.771 523.081 340.771Z" fill="#676767"/>
<path d="M433.721 226.277C433.721 226.277 426.145 225.359 425.547 231.824" stroke="#231F20" stroke-width="3" stroke-miterlimit="10"/>
<path d="M401.701 166.376C401.701 168.571 399.907 170.367 397.714 170.367H158.145C155.952 170.367 154.157 168.571 154.157 166.376V119.605C154.157 117.41 155.952 115.614 158.145 115.614H397.714C399.907 115.614 401.701 117.41 401.701 119.605V166.376Z" fill="white"/>
<path d="M400.186 181.302C400.186 181.94 399.667 182.499 398.99 182.499H229.601C228.923 182.499 228.404 181.94 228.404 181.302V181.022C228.404 180.384 228.923 179.825 229.601 179.825H398.99C399.667 179.825 400.186 180.384 400.186 181.022V181.302Z" fill="white"/>
<path d="M400.186 189.164C400.186 189.803 399.667 190.361 398.99 190.361H229.601C228.923 190.361 228.404 189.803 228.404 189.164V188.885C228.404 188.206 228.923 187.688 229.601 187.688H398.99C399.667 187.688 400.186 188.206 400.186 188.885V189.164Z" fill="white"/>
<path d="M400.186 197.744C400.186 198.383 399.667 198.941 398.99 198.941H229.601C228.923 198.941 228.404 198.383 228.404 197.744V197.465C228.404 196.826 228.923 196.268 229.601 196.268H398.99C399.667 196.268 400.186 196.826 400.186 197.465V197.744Z" fill="white"/>
<path d="M399.707 215.702C399.707 216.381 399.149 216.899 398.511 216.899H229.162C228.524 216.899 227.966 216.381 227.966 215.702V215.423C227.966 214.744 228.524 214.226 229.162 214.226H398.511C399.149 214.226 399.707 214.744 399.707 215.423V215.702Z" fill="white"/>
<path d="M399.707 223.523C399.707 224.202 399.149 224.721 398.511 224.721H229.162C228.524 224.721 227.966 224.202 227.966 223.523V223.244C227.966 222.566 228.524 222.047 229.162 222.047H398.511C399.149 222.047 399.707 222.566 399.707 223.244V223.523Z" fill="white"/>
<path d="M399.707 232.144C399.707 232.822 399.149 233.341 398.511 233.341H229.162C228.524 233.341 227.966 232.822 227.966 232.144V231.864C227.966 231.186 228.524 230.667 229.162 230.667H398.511C399.149 230.667 399.707 231.186 399.707 231.864V232.144Z" fill="white"/>
<path d="M590.948 277.159C590.948 277.598 590.589 277.957 590.15 277.957H487.193C486.754 277.957 486.396 277.598 486.396 277.159V276.8C486.396 276.361 486.754 276.002 487.193 276.002H590.15C590.589 276.002 590.948 276.361 590.948 276.8V277.159Z" fill="white"/>
<path d="M590.948 282.866C590.948 283.305 590.589 283.664 590.15 283.664H487.193C486.754 283.664 486.396 283.305 486.396 282.866V282.507C486.396 282.068 486.754 281.709 487.193 281.709H590.15C590.589 281.709 590.948 282.068 590.948 282.507V282.866Z" fill="white"/>
<path d="M590.948 289.172C590.948 289.611 590.589 289.97 590.15 289.97H487.193C486.754 289.97 486.396 289.611 486.396 289.172V288.813C486.396 288.374 486.754 288.015 487.193 288.015H590.15C590.589 288.015 590.948 288.374 590.948 288.813V289.172Z" fill="white"/>
<path d="M590.669 304.536C590.669 304.975 590.31 305.334 589.871 305.334H486.914C486.476 305.334 486.117 304.975 486.117 304.536V304.177C486.117 303.738 486.476 303.379 486.914 303.379H589.871C590.31 303.379 590.669 303.738 590.669 304.177V304.536Z" fill="white"/>
<path d="M590.669 310.243C590.669 310.682 590.31 311.041 589.871 311.041H486.914C486.476 311.041 486.117 310.682 486.117 310.243V309.884C486.117 309.445 486.476 309.086 486.914 309.086H589.871C590.31 309.086 590.669 309.445 590.669 309.884V310.243Z" fill="white"/>
<path d="M590.669 316.548C590.669 316.987 590.31 317.346 589.871 317.346H486.914C486.476 317.346 486.117 316.987 486.117 316.548V316.189C486.117 315.75 486.476 315.391 486.914 315.391H589.871C590.31 315.391 590.669 315.75 590.669 316.189V316.548Z" fill="white"/>
<path d="M129.515 319.142C129.515 319.341 129.316 319.541 129.116 319.541H89.8792C89.64 319.541 89.4805 319.341 89.4805 319.142V319.062C89.4805 318.863 89.64 318.663 89.8792 318.663H129.116C129.316 318.663 129.515 318.863 129.515 319.062V319.142Z" fill="white"/>
<path d="M129.515 321.257C129.515 321.457 129.316 321.656 129.116 321.656H89.8792C89.64 321.656 89.4805 321.457 89.4805 321.257V321.177C89.4805 320.978 89.64 320.778 89.8792 320.778H129.116C129.316 320.778 129.515 320.978 129.515 321.177V321.257Z" fill="white"/>
<path d="M129.515 323.652C129.515 323.851 129.316 324.051 129.116 324.051H89.8792C89.64 324.051 89.4805 323.851 89.4805 323.652V323.572C89.4805 323.372 89.64 323.173 89.8792 323.173H129.116C129.316 323.173 129.515 323.372 129.515 323.572V323.652Z" fill="white"/>
<path d="M129.515 331.154C129.515 331.393 129.316 331.553 129.116 331.553H89.8792C89.64 331.553 89.4805 331.393 89.4805 331.154V331.074C89.4805 330.874 89.64 330.675 89.8792 330.675H129.116C129.316 330.675 129.515 330.874 129.515 331.074V331.154Z" fill="white"/>
<path d="M129.515 333.149C129.515 333.348 129.316 333.548 129.116 333.548H89.8792C89.64 333.548 89.4805 333.348 89.4805 333.149V333.069C89.4805 332.869 89.64 332.67 89.8792 332.67H129.116C129.316 332.67 129.515 332.869 129.515 333.069V333.149Z" fill="white"/>
<path d="M129.515 335.424C129.515 335.624 129.316 335.823 129.116 335.823H89.8792C89.64 335.823 89.4805 335.624 89.4805 335.424V335.344C89.4805 335.145 89.64 334.945 89.8792 334.945H129.116C129.316 334.945 129.515 335.145 129.515 335.344V335.424Z" fill="white"/>
<path d="M592.065 261.715C592.065 263.91 590.27 265.706 588.077 265.706H433.641C431.448 265.706 429.654 263.91 429.654 261.715V233.78C429.654 231.585 431.448 229.789 433.641 229.789H588.077C590.27 229.789 592.065 231.585 592.065 233.78V261.715Z" fill="white"/>
<path d="M129.754 271.692C129.754 272.371 129.196 272.89 128.558 272.89H90.3574C89.6795 272.89 89.1611 272.371 89.1611 271.692V259.002C89.1611 258.323 89.6795 257.805 90.3574 257.805H128.558C129.196 257.805 129.754 258.323 129.754 259.002V271.692Z" fill="white"/>
<path d="M188.011 242.559C206.158 242.559 220.868 227.837 220.868 209.676C220.868 191.515 206.158 176.792 188.011 176.792C169.865 176.792 155.154 191.515 155.154 209.676C155.154 227.837 169.865 242.559 188.011 242.559Z" fill="white"/>
<path d="M457.487 322.774C471.999 322.774 483.764 310.999 483.764 296.475C483.764 281.95 471.999 270.176 457.487 270.176C442.974 270.176 431.209 281.95 431.209 296.475C431.209 310.999 442.974 322.774 457.487 322.774Z" fill="white"/>
<path d="M109.059 313.515C119.387 313.515 127.76 305.135 127.76 294.799C127.76 284.462 119.387 276.082 109.059 276.082C98.7303 276.082 90.3574 284.462 90.3574 294.799C90.3574 305.135 98.7303 313.515 109.059 313.515Z" fill="white"/>
<path d="M187.732 215.104C196.959 215.104 204.44 207.617 204.44 198.382C204.44 189.147 196.959 181.661 187.732 181.661C178.505 181.661 171.024 189.147 171.024 198.382C171.024 207.617 178.505 215.104 187.732 215.104Z" fill="url(#paint23_linear)"/>
<path d="M213.173 222.008C213.173 223.325 211.737 224.442 209.983 224.442H166.678C164.924 224.442 163.488 223.364 163.488 222.008C163.488 220.651 164.924 219.573 166.678 219.573H209.983C211.737 219.613 213.173 220.691 213.173 222.008Z" fill="url(#paint24_linear)"/>
<path d="M209.903 227.316C209.903 228.114 209.185 228.752 208.308 228.752H168.353C167.476 228.752 166.758 228.114 166.758 227.316C166.758 226.517 167.476 225.879 168.353 225.879H208.308C209.185 225.879 209.903 226.517 209.903 227.316Z" fill="url(#paint25_linear)"/>
<path d="M473.317 312.757C473.317 313.356 472.799 313.835 472.121 313.835H442.374C441.696 313.835 441.178 313.356 441.178 312.757C441.178 312.159 441.696 311.68 442.374 311.68H472.121C472.799 311.68 473.317 312.198 473.317 312.757Z" fill="url(#paint26_linear)"/>
<path d="M119.466 305.813C119.466 306.212 119.107 306.531 118.669 306.531H99.3292C98.8906 306.531 98.5317 306.212 98.5317 305.813C98.5317 305.414 98.8906 305.095 99.3292 305.095H118.669C119.107 305.095 119.466 305.414 119.466 305.813Z" fill="url(#paint27_linear)"/>
<path d="M457.407 303.179C464.74 303.179 470.685 297.229 470.685 289.89C470.685 282.55 464.74 276.601 457.407 276.601C450.073 276.601 444.128 282.55 444.128 289.89C444.128 297.229 450.073 303.179 457.407 303.179Z" fill="url(#paint28_linear)"/>
<path d="M477.583 308.646C477.583 309.684 476.706 310.562 475.59 310.562H440.181C439.064 310.562 438.187 309.684 438.187 308.646C438.187 307.608 439.064 306.73 440.181 306.73H475.59C476.706 306.73 477.583 307.608 477.583 308.646Z" fill="url(#paint29_linear)"/>
<path d="M109.099 299.069C114.054 299.069 118.071 295.049 118.071 290.09C118.071 285.13 114.054 281.11 109.099 281.11C104.144 281.11 100.127 285.13 100.127 290.09C100.127 295.049 104.144 299.069 109.099 299.069Z" fill="url(#paint30_linear)"/>
<path d="M122.776 302.9C122.776 303.578 122.218 304.097 121.58 304.097H97.2558C96.6178 304.097 96.0596 303.578 96.0596 302.9V302.7C96.0596 302.022 96.6178 301.503 97.2558 301.503H121.58C122.218 301.503 122.776 302.022 122.776 302.7V302.9Z" fill="url(#paint31_linear)"/>
<path d="M180.914 139.479C180.914 140.597 180.036 141.474 178.92 141.474H160.976C159.86 141.474 158.982 140.597 158.982 139.479V121.521C158.982 120.403 159.86 119.525 160.976 119.525H178.92C180.036 119.525 180.914 120.403 180.914 121.521V139.479Z" fill="url(#paint32_linear)"/>
<path d="M180.754 163.863C180.754 164.98 179.877 165.858 178.76 165.858H160.817C159.7 165.858 158.823 164.98 158.823 163.863V145.905C158.823 144.787 159.7 143.909 160.817 143.909H178.76C179.877 143.909 180.754 144.787 180.754 145.905V163.863Z" fill="#E6E7E8"/>
<path d="M205.277 139.678C205.277 140.796 204.4 141.674 203.284 141.674H185.34C184.223 141.674 183.346 140.796 183.346 139.678V121.72C183.346 120.603 184.223 119.725 185.34 119.725H203.284C204.4 119.725 205.277 120.603 205.277 121.72V139.678Z" fill="#E6E7E8"/>
<path d="M226.211 163.583C226.211 164.7 225.334 165.578 224.218 165.578H209.304C208.188 165.578 207.311 164.7 207.311 163.583V121.76C207.311 120.643 208.188 119.765 209.304 119.765H224.218C225.334 119.765 226.211 120.643 226.211 121.76V163.583Z" fill="#E6E7E8"/>
<path d="M231.275 164.382C231.275 165.02 230.717 165.579 230.079 165.579H229.521C228.843 165.579 228.325 165.02 228.325 164.382V127.906C228.325 127.268 228.843 126.709 229.521 126.709H230.079C230.717 126.709 231.275 127.268 231.275 127.906V164.382Z" fill="#E6E7E8"/>
<path d="M235.981 164.381C235.981 165.02 235.463 165.579 234.785 165.579H234.227C233.589 165.579 233.03 165.02 233.03 164.381V124.873C233.03 124.234 233.589 123.676 234.227 123.676H234.785C235.463 123.676 235.981 124.234 235.981 124.873V164.381Z" fill="#D1D3D4"/>
<path d="M240.686 164.621C240.686 165.259 240.168 165.818 239.49 165.818H238.932C238.254 165.818 237.735 165.259 237.735 164.621V131.936C237.735 131.298 238.254 130.739 238.932 130.739H239.49C240.168 130.739 240.686 131.298 240.686 131.936V164.621Z" fill="#E6E7E8"/>
<path d="M245.391 164.82C245.391 165.459 244.873 166.017 244.195 166.017H243.637C242.959 166.017 242.44 165.459 242.44 164.82V130.46C242.44 129.781 242.959 129.263 243.637 129.263H244.195C244.873 129.263 245.391 129.781 245.391 130.46V164.82Z" fill="#E6E7E8"/>
<path d="M250.336 165.06C250.336 165.698 249.818 166.257 249.14 166.257H248.582C247.904 166.257 247.385 165.698 247.385 165.06V128.425C247.385 127.786 247.904 127.228 248.582 127.228H249.14C249.818 127.228 250.336 127.786 250.336 128.425V165.06Z" fill="#D1D3D4"/>
<path d="M255.041 165.06C255.041 165.698 254.483 166.257 253.845 166.257H253.287C252.609 166.257 252.09 165.698 252.09 165.06V137.923C252.09 137.284 252.609 136.726 253.287 136.726H253.845C254.483 136.726 255.041 137.284 255.041 137.923V165.06Z" fill="#E6E7E8"/>
<path d="M286.543 165.06C286.543 165.698 286.024 166.257 285.346 166.257H284.788C284.15 166.257 283.592 165.698 283.592 165.06V137.923C283.592 137.284 284.15 136.726 284.788 136.726H285.346C286.024 136.726 286.543 137.284 286.543 137.923V165.06Z" fill="#E6E7E8"/>
<path d="M259.826 165.059C259.826 165.698 259.268 166.257 258.63 166.257H258.072C257.394 166.257 256.875 165.698 256.875 165.059V133.652C256.875 133.014 257.394 132.455 258.072 132.455H258.63C259.268 132.455 259.826 133.014 259.826 133.652V165.059Z" fill="#E6E7E8"/>
<path d="M265.209 165.06C265.209 165.699 264.691 166.257 264.013 166.257H263.415C262.777 166.257 262.219 165.699 262.219 165.06V126.15C262.219 125.512 262.777 124.953 263.415 124.953H263.973C264.651 124.953 265.169 125.512 265.169 126.15V165.06H265.209Z" fill="#D1D3D4"/>
<path d="M280.96 165.659C280.96 166.337 280.402 166.856 279.764 166.856H279.206C278.528 166.856 278.009 166.337 278.009 165.659V126.749C278.009 126.11 278.528 125.552 279.206 125.552H279.764C280.402 125.552 280.96 126.11 280.96 126.749V165.659Z" fill="#D1D3D4"/>
<path d="M270.433 165.259C270.433 165.898 269.875 166.457 269.237 166.457H268.679C268.001 166.457 267.482 165.898 267.482 165.259V131.977C267.482 131.338 268.001 130.779 268.679 130.779H269.237C269.875 130.779 270.433 131.338 270.433 131.977V165.259Z" fill="#E6E7E8"/>
<path d="M275.457 165.259C275.457 165.898 274.939 166.457 274.261 166.457H273.703C273.025 166.457 272.506 165.898 272.506 165.259V131.977C272.506 131.338 273.025 130.779 273.703 130.779H274.261C274.939 130.779 275.457 131.338 275.457 131.977V165.259Z" fill="#E6E7E8"/>
<path d="M398.073 164.181C398.073 165.299 397.196 166.177 396.079 166.177H372.513C371.397 166.177 370.52 165.299 370.52 164.181V122.319C370.52 121.201 371.397 120.323 372.513 120.323H396.079C397.196 120.323 398.073 121.201 398.073 122.319V164.181Z" fill="#E6E7E8"/>
<path d="M365.495 127.707C365.495 128.824 364.618 129.702 363.501 129.702H293.281C292.165 129.702 291.288 128.824 291.288 127.707V122.559C291.288 121.441 292.165 120.563 293.281 120.563H363.501C364.618 120.563 365.495 121.441 365.495 122.559V127.707Z" fill="url(#paint33_linear)"/>
<path d="M365.734 138.521C365.734 139.639 364.857 140.517 363.74 140.517H293.521C292.404 140.517 291.527 139.639 291.527 138.521V133.373C291.527 132.256 292.404 131.378 293.521 131.378H363.74C364.857 131.378 365.734 132.256 365.734 133.373V138.521Z" fill="#D1D3D4"/>
<path d="M365.495 163.583C365.495 164.701 364.618 165.579 363.501 165.579H293.281C292.165 165.579 291.288 164.701 291.288 163.583V144.109C291.288 142.991 292.165 142.113 293.281 142.113H363.501C364.618 142.113 365.495 142.991 365.495 144.109V163.583Z" fill="url(#paint34_linear)"/>
<path d="M205.078 164.062C205.078 165.18 204.2 166.057 203.084 166.057H185.14C184.024 166.057 183.146 165.18 183.146 164.062V146.104C183.146 144.986 184.024 144.108 185.14 144.108H203.084C204.2 144.108 205.078 144.986 205.078 146.104V164.062Z" fill="url(#paint35_linear)"/>
<path d="M169.629 133.213C173.02 133.213 175.77 130.462 175.77 127.068C175.77 123.673 173.02 120.922 169.629 120.922C166.238 120.922 163.488 123.673 163.488 127.068C163.488 130.462 166.238 133.213 169.629 133.213Z" fill="white"/>
<path d="M194.232 133.493C197.624 133.493 200.373 130.741 200.373 127.347C200.373 123.953 197.624 121.201 194.232 121.201C190.841 121.201 188.091 123.953 188.091 127.347C188.091 130.741 190.841 133.493 194.232 133.493Z" fill="white"/>
<path d="M169.429 157.637C172.821 157.637 175.57 154.886 175.57 151.491C175.57 148.097 172.821 145.346 169.429 145.346C166.038 145.346 163.289 148.097 163.289 151.491C163.289 154.886 166.038 157.637 169.429 157.637Z" fill="white"/>
<path d="M194.351 157.716C197.743 157.716 200.492 154.965 200.492 151.571C200.492 148.176 197.743 145.425 194.351 145.425C190.96 145.425 188.21 148.176 188.21 151.571C188.21 154.965 190.96 157.716 194.351 157.716Z" fill="white"/>
<path d="M186.935 136.167C186.257 136.167 185.738 135.848 185.738 135.409C185.738 135.01 186.257 134.65 186.935 134.65H202.127C202.805 134.65 203.323 134.97 203.323 135.409C203.323 135.808 202.805 136.167 202.127 136.167H186.935Z" fill="white"/>
<path d="M296.152 124.434C295.514 124.434 294.956 124.115 294.956 123.676C294.956 123.277 295.514 122.918 296.152 122.918H360.79C361.428 122.918 361.986 123.237 361.986 123.676C361.986 124.075 361.428 124.434 360.79 124.434H296.152Z" fill="white"/>
<path d="M295.993 127.267C295.315 127.267 294.797 126.948 294.797 126.509C294.797 126.11 295.315 125.751 295.993 125.751H360.63C361.308 125.751 361.827 126.07 361.827 126.509C361.827 126.908 361.308 127.267 360.63 127.267H295.993Z" fill="white"/>
<path d="M295.913 146.503C295.275 146.503 294.717 146.184 294.717 145.745C294.717 145.346 295.275 144.986 295.913 144.986H360.55C361.188 144.986 361.747 145.306 361.747 145.745C361.747 146.144 361.188 146.503 360.55 146.503H295.913Z" fill="white"/>
<path d="M295.913 150.294C295.275 150.294 294.717 149.975 294.717 149.536C294.717 149.137 295.275 148.777 295.913 148.777H360.55C361.188 148.777 361.747 149.097 361.747 149.536C361.747 149.935 361.188 150.294 360.55 150.294H295.913Z" fill="white"/>
<path d="M295.793 154.085C295.116 154.085 294.597 153.766 294.597 153.327C294.597 152.928 295.116 152.568 295.793 152.568H360.431C361.109 152.568 361.627 152.888 361.627 153.327C361.627 153.726 361.109 154.085 360.431 154.085H295.793Z" fill="white"/>
<path d="M295.793 157.877C295.116 157.877 294.597 157.558 294.597 157.119C294.597 156.72 295.116 156.36 295.793 156.36H360.431C361.109 156.36 361.627 156.68 361.627 157.119C361.627 157.518 361.109 157.877 360.431 157.877H295.793Z" fill="white"/>
<path d="M295.793 161.748C295.116 161.748 294.597 161.429 294.597 160.99C294.597 160.591 295.116 160.231 295.793 160.231H360.431C361.109 160.231 361.627 160.551 361.627 160.99C361.627 161.389 361.109 161.748 360.431 161.748H295.793Z" fill="white"/>
<path d="M162.491 136.366C161.853 136.366 161.295 136.047 161.295 135.608C161.295 135.209 161.853 134.85 162.491 134.85H177.684C178.322 134.85 178.88 135.169 178.88 135.608C178.88 136.007 178.322 136.366 177.684 136.366H162.491Z" fill="white"/>
<path d="M162.252 160.71C161.614 160.71 161.056 160.391 161.056 159.952C161.056 159.553 161.614 159.193 162.252 159.193H177.444C178.082 159.193 178.641 159.513 178.641 159.952C178.641 160.351 178.082 160.71 177.444 160.71H162.252Z" fill="white"/>
<path d="M186.935 160.71C186.257 160.71 185.738 160.391 185.738 159.952C185.738 159.553 186.257 159.193 186.935 159.193H202.127C202.805 159.193 203.323 159.513 203.323 159.952C203.323 160.351 202.805 160.71 202.127 160.71H186.935Z" fill="white"/>
<path d="M186.855 163.503C186.217 163.503 185.659 163.184 185.659 162.745C185.659 162.345 186.217 161.986 186.855 161.986H202.047C202.685 161.986 203.244 162.306 203.244 162.745C203.244 163.144 202.685 163.503 202.047 163.503H186.855Z" fill="white"/>
<path d="M186.935 138.841C186.257 138.841 185.738 138.521 185.738 138.082C185.738 137.683 186.257 137.324 186.935 137.324H202.127C202.805 137.324 203.323 137.643 203.323 138.082C203.323 138.482 202.805 138.841 202.127 138.841H186.935Z" fill="white"/>
<path d="M162.611 139C161.933 139 161.415 138.681 161.415 138.242C161.415 137.803 161.933 137.483 162.611 137.483H177.803C178.441 137.483 178.999 137.803 178.999 138.242C178.999 138.681 178.441 139 177.803 139H162.611Z" fill="white"/>
<path d="M162.172 163.543C161.534 163.543 160.976 163.224 160.976 162.785C160.976 162.386 161.534 162.026 162.172 162.026H177.365C178.003 162.026 178.561 162.346 178.561 162.785C178.561 163.184 178.003 163.543 177.365 163.543H162.172Z" fill="white"/>
<path d="M448.196 244.754C448.196 245.872 447.318 246.75 446.202 246.75H435.914C434.798 246.75 433.92 245.872 433.92 244.754V234.458C433.92 233.341 434.798 232.463 435.914 232.463H446.202C447.318 232.463 448.196 233.341 448.196 234.458V244.754Z" fill="url(#paint36_linear)"/>
<path d="M448.076 260.638C448.076 261.756 447.199 262.633 446.082 262.633H435.795C434.678 262.633 433.801 261.756 433.801 260.638V250.342C433.801 249.225 434.678 248.347 435.795 248.347H446.082C447.199 248.347 448.076 249.225 448.076 250.342V260.638Z" fill="#E6E7E8"/>
<path d="M464.066 244.874C464.066 245.992 463.189 246.87 462.072 246.87H451.784C450.668 246.87 449.791 245.992 449.791 244.874V234.578C449.791 233.461 450.668 232.583 451.784 232.583H462.072C463.189 232.583 464.066 233.461 464.066 234.578V244.874Z" fill="#E6E7E8"/>
<path d="M477.703 260.438C477.703 261.556 476.826 262.434 475.709 262.434H467.376C466.259 262.434 465.382 261.556 465.382 260.438V234.578C465.382 233.461 466.259 232.583 467.376 232.583H475.709C476.826 232.583 477.703 233.461 477.703 234.578V260.438Z" fill="#E6E7E8"/>
<path d="M481.013 261.237C481.013 261.875 480.574 262.434 480.056 262.434C479.537 262.434 479.099 261.875 479.099 261.237V238.29C479.099 237.612 479.537 237.093 480.056 237.093C480.574 237.093 481.013 237.612 481.013 238.29V261.237Z" fill="#E6E7E8"/>
<path d="M484.083 261.236C484.083 261.875 483.645 262.433 483.126 262.433C482.608 262.433 482.169 261.875 482.169 261.236V236.334C482.169 235.656 482.608 235.137 483.126 235.137C483.645 235.137 484.083 235.656 484.083 236.334V261.236Z" fill="#D1D3D4"/>
<path d="M487.154 261.396C487.154 262.075 486.715 262.594 486.197 262.594C485.678 262.594 485.24 262.075 485.24 261.396V240.924C485.24 240.285 485.678 239.727 486.197 239.727C486.715 239.727 487.154 240.285 487.154 240.924V261.396Z" fill="#E6E7E8"/>
<path d="M490.184 261.556C490.184 262.234 489.745 262.753 489.227 262.753C488.709 262.753 488.27 262.234 488.27 261.556V240.006C488.27 239.367 488.709 238.809 489.227 238.809C489.745 238.809 490.184 239.367 490.184 240.006V261.556Z" fill="#E6E7E8"/>
<path d="M493.414 261.676C493.414 262.314 492.975 262.873 492.457 262.873C491.939 262.873 491.5 262.314 491.5 261.676V238.649C491.5 237.971 491.939 237.452 492.457 237.452C492.975 237.452 493.414 237.971 493.414 238.649V261.676Z" fill="#D1D3D4"/>
<path d="M496.484 261.676C496.484 262.314 496.046 262.873 495.527 262.873C495.009 262.873 494.57 262.314 494.57 261.676V244.835C494.57 244.156 495.009 243.638 495.527 243.638C496.046 243.638 496.484 244.156 496.484 244.835V261.676Z" fill="#E6E7E8"/>
<path d="M516.98 261.676C516.98 262.314 516.541 262.873 516.023 262.873C515.505 262.873 515.066 262.314 515.066 261.676V244.835C515.066 244.156 515.505 243.638 516.023 243.638C516.541 243.638 516.98 244.156 516.98 244.835V261.676Z" fill="#E6E7E8"/>
<path d="M499.595 261.675C499.595 262.314 499.156 262.873 498.638 262.873C498.119 262.873 497.681 262.314 497.681 261.675V242.041C497.681 241.363 498.119 240.844 498.638 240.844C499.156 240.844 499.595 241.363 499.595 242.041V261.675Z" fill="#E6E7E8"/>
<path d="M503.103 261.676C503.103 262.314 502.665 262.873 502.146 262.873C501.628 262.873 501.189 262.314 501.189 261.676V237.173C501.189 236.494 501.628 235.976 502.146 235.976C502.665 235.976 503.103 236.494 503.103 237.173V261.676Z" fill="#D1D3D4"/>
<path d="M513.351 262.074C513.351 262.753 512.913 263.272 512.394 263.272C511.876 263.272 511.438 262.753 511.438 262.074V237.571C511.438 236.933 511.876 236.374 512.394 236.374C512.913 236.374 513.351 236.933 513.351 237.571V262.074Z" fill="#D1D3D4"/>
<path d="M506.533 261.835C506.533 262.514 506.094 263.033 505.576 263.033C505.057 263.033 504.619 262.514 504.619 261.835V241.004C504.619 240.365 505.057 239.807 505.576 239.807C506.094 239.807 506.533 240.365 506.533 241.004V261.835Z" fill="#E6E7E8"/>
<path d="M509.803 261.835C509.803 262.514 509.364 263.033 508.846 263.033C508.327 263.033 507.889 262.514 507.889 261.835V241.004C507.889 240.365 508.327 239.807 508.846 239.807C509.364 239.807 509.803 240.365 509.803 241.004V261.835Z" fill="#E6E7E8"/>
<path d="M589.672 260.838C589.672 261.955 588.795 262.833 587.678 262.833H573.722C572.606 262.833 571.729 261.955 571.729 260.838V234.978C571.729 233.86 572.606 232.982 573.722 232.982H587.678C588.795 232.982 589.672 233.86 589.672 234.978V260.838Z" fill="#E6E7E8"/>
<path d="M568.459 236.096C568.459 237.732 566.664 239.089 564.471 239.089H524.078C521.885 239.089 520.09 237.732 520.09 236.096C520.09 234.459 521.885 233.103 524.078 233.103H564.471C566.664 233.103 568.459 234.459 568.459 236.096Z" fill="url(#paint37_linear)"/>
<path d="M568.618 243.118C568.618 244.754 566.824 246.111 564.631 246.111H524.237C522.044 246.111 520.25 244.754 520.25 243.118C520.25 241.482 522.044 240.125 524.237 240.125H564.631C566.824 240.125 568.618 241.482 568.618 243.118Z" fill="#D1D3D4"/>
<path d="M568.459 258.443C568.459 260.638 566.664 262.434 564.471 262.434H524.078C521.885 262.434 520.09 260.638 520.09 258.443V251.14C520.09 248.945 521.885 247.149 524.078 247.149H564.471C566.664 247.149 568.459 248.945 568.459 251.14V258.443Z" fill="url(#paint38_linear)"/>
<path d="M463.947 260.758C463.947 261.876 463.069 262.754 461.953 262.754H451.665C450.549 262.754 449.671 261.876 449.671 260.758V250.462C449.671 249.345 450.549 248.467 451.665 248.467H461.953C463.069 248.467 463.947 249.345 463.947 250.462V260.758Z" fill="url(#paint39_linear)"/>
<path d="M440.819 241.322C443.021 241.322 444.806 239.536 444.806 237.332C444.806 235.128 443.021 233.341 440.819 233.341C438.616 233.341 436.831 235.128 436.831 237.332C436.831 239.536 438.616 241.322 440.819 241.322Z" fill="white"/>
<path d="M456.888 241.523C459.091 241.523 460.876 239.736 460.876 237.532C460.876 235.328 459.091 233.541 456.888 233.541C454.686 233.541 452.901 235.328 452.901 237.532C452.901 239.736 454.686 241.523 456.888 241.523Z" fill="white"/>
<path d="M440.699 257.246C442.902 257.246 444.687 255.459 444.687 253.255C444.687 251.051 442.902 249.265 440.699 249.265C438.497 249.265 436.712 251.051 436.712 253.255C436.712 255.459 438.497 257.246 440.699 257.246Z" fill="white"/>
<path d="M456.928 257.326C459.131 257.326 460.916 255.54 460.916 253.335C460.916 251.131 459.131 249.345 456.928 249.345C454.726 249.345 452.941 251.131 452.941 253.335C452.941 255.54 454.726 257.326 456.928 257.326Z" fill="white"/>
<path d="M452.143 243.278C451.705 243.278 451.346 243.079 451.346 242.799C451.346 242.52 451.705 242.32 452.143 242.32H462.032C462.471 242.32 462.83 242.52 462.83 242.799C462.83 243.079 462.471 243.278 462.032 243.278H452.143Z" fill="white"/>
<path d="M523.28 235.616C522.842 235.616 522.483 235.416 522.483 235.137C522.483 234.858 522.842 234.658 523.28 234.658H565.349C565.787 234.658 566.146 234.858 566.146 235.137C566.146 235.416 565.787 235.616 565.349 235.616H523.28Z" fill="white"/>
<path d="M523.2 237.452C522.762 237.452 522.403 237.252 522.403 236.973C522.403 236.694 522.762 236.494 523.2 236.494H565.269C565.707 236.494 566.066 236.694 566.066 236.973C566.066 237.252 565.707 237.452 565.269 237.452H523.2Z" fill="white"/>
<path d="M523.121 250.023C522.682 250.023 522.323 249.824 522.323 249.544C522.323 249.265 522.682 249.065 523.121 249.065H565.189C565.628 249.065 565.986 249.265 565.986 249.544C565.986 249.824 565.628 250.023 565.189 250.023H523.121Z" fill="white"/>
<path d="M523.121 252.457C522.682 252.457 522.323 252.257 522.323 251.978C522.323 251.699 522.682 251.499 523.121 251.499H565.189C565.628 251.499 565.986 251.699 565.986 251.978C565.986 252.257 565.628 252.457 565.189 252.457H523.121Z" fill="white"/>
<path d="M523.041 254.931C522.603 254.931 522.244 254.732 522.244 254.453C522.244 254.173 522.603 253.974 523.041 253.974H565.109C565.548 253.974 565.907 254.173 565.907 254.453C565.907 254.732 565.548 254.931 565.109 254.931H523.041Z" fill="white"/>
<path d="M523.041 257.406C522.603 257.406 522.244 257.206 522.244 256.927C522.244 256.648 522.603 256.448 523.041 256.448H565.109C565.548 256.448 565.907 256.648 565.907 256.927C565.907 257.206 565.548 257.406 565.109 257.406H523.041Z" fill="white"/>
<path d="M523.041 259.96C522.603 259.96 522.244 259.76 522.244 259.481C522.244 259.201 522.603 259.002 523.041 259.002H565.109C565.548 259.002 565.907 259.201 565.907 259.481C565.907 259.76 565.548 259.96 565.109 259.96H523.041Z" fill="white"/>
<path d="M436.193 243.398C435.755 243.398 435.396 243.199 435.396 242.919C435.396 242.64 435.755 242.44 436.193 242.44H446.083C446.521 242.44 446.88 242.64 446.88 242.919C446.88 243.199 446.521 243.398 446.083 243.398H436.193Z" fill="white"/>
<path d="M436.034 259.281C435.595 259.281 435.236 259.081 435.236 258.802C435.236 258.523 435.595 258.323 436.034 258.323H445.923C446.361 258.323 446.72 258.523 446.72 258.802C446.72 259.081 446.361 259.281 445.923 259.281H436.034Z" fill="white"/>
<path d="M452.143 259.281C451.705 259.281 451.346 259.081 451.346 258.802C451.346 258.523 451.705 258.323 452.143 258.323H462.032C462.471 258.323 462.83 258.523 462.83 258.802C462.83 259.081 462.471 259.281 462.032 259.281H452.143Z" fill="white"/>
<path d="M452.104 261.077C451.665 261.077 451.306 260.877 451.306 260.598C451.306 260.319 451.665 260.119 452.104 260.119H461.993C462.431 260.119 462.79 260.319 462.79 260.598C462.79 260.877 462.431 261.077 461.993 261.077H452.104Z" fill="white"/>
<path d="M452.143 245.034C451.705 245.034 451.346 244.834 451.346 244.555C451.346 244.276 451.705 244.076 452.143 244.076H462.032C462.471 244.076 462.83 244.276 462.83 244.555C462.83 244.834 462.471 245.034 462.032 245.034H452.143Z" fill="white"/>
<path d="M436.273 245.114C435.834 245.114 435.476 244.915 435.476 244.635C435.476 244.356 435.834 244.156 436.273 244.156H446.162C446.601 244.156 446.96 244.356 446.96 244.635C446.96 244.915 446.601 245.114 446.162 245.114H436.273Z" fill="white"/>
<path d="M435.994 261.117C435.555 261.117 435.196 260.917 435.196 260.638C435.196 260.359 435.555 260.159 435.994 260.159H445.883C446.321 260.159 446.68 260.359 446.68 260.638C446.68 260.917 446.321 261.117 445.883 261.117H435.994Z" fill="white"/>
<path d="M96.9366 263.75C96.9366 264.389 96.4183 264.948 95.7404 264.948H91.7529C91.075 264.948 90.5566 264.389 90.5566 263.75V259.76C90.5566 259.081 91.075 258.562 91.7529 258.562H95.7404C96.4183 258.562 96.9366 259.081 96.9366 259.76V263.75Z" fill="url(#paint40_linear)"/>
<path d="M96.8571 270.894C96.8571 271.533 96.3387 272.091 95.6608 272.091H91.6733C91.0353 272.091 90.4771 271.533 90.4771 270.894V266.903C90.4771 266.265 91.0353 265.706 91.6733 265.706H95.6608C96.3387 265.706 96.8571 266.265 96.8571 266.903V270.894Z" fill="#E6E7E8"/>
<path d="M104.035 263.831C104.035 264.509 103.516 265.028 102.839 265.028H98.851C98.1732 265.028 97.6548 264.509 97.6548 263.831V259.84C97.6548 259.201 98.1732 258.643 98.851 258.643H102.839C103.516 258.643 104.035 259.201 104.035 259.84V263.831Z" fill="#E6E7E8"/>
<path d="M110.136 271.213C110.136 271.652 109.777 272.012 109.338 272.012H105.43C104.992 272.012 104.633 271.652 104.633 271.213V259.441C104.633 259.002 104.992 258.643 105.43 258.643H109.338C109.777 258.643 110.136 259.002 110.136 259.441V271.213Z" fill="#E6E7E8"/>
<path d="M111.611 271.612C111.611 271.812 111.452 272.011 111.212 272.011H111.133C110.893 272.011 110.734 271.812 110.734 271.612V261.077C110.734 260.877 110.893 260.678 111.133 260.678H111.212C111.452 260.678 111.611 260.877 111.611 261.077V271.612Z" fill="#E6E7E8"/>
<path d="M113.007 271.612C113.007 271.812 112.847 272.011 112.608 272.011H112.528C112.289 272.011 112.129 271.812 112.129 271.612V260.159C112.129 259.959 112.289 259.76 112.528 259.76H112.608C112.847 259.76 113.007 259.959 113.007 260.159V271.612Z" fill="#D1D3D4"/>
<path d="M114.362 271.652C114.362 271.852 114.203 272.051 113.963 272.051H113.884C113.644 272.051 113.485 271.852 113.485 271.652V262.194C113.485 261.994 113.644 261.795 113.884 261.795H113.963C114.203 261.795 114.362 261.994 114.362 262.194V271.652Z" fill="#E6E7E8"/>
<path d="M115.718 271.733C115.718 271.972 115.519 272.132 115.319 272.132H115.24C115.04 272.132 114.841 271.972 114.841 271.733V261.796C114.841 261.596 115 261.396 115.24 261.396H115.319C115.519 261.396 115.718 261.596 115.718 261.796V271.733Z" fill="#E6E7E8"/>
<path d="M117.153 271.812C117.153 272.012 116.954 272.211 116.754 272.211H116.675C116.435 272.211 116.276 272.012 116.276 271.812V261.197C116.276 260.997 116.435 260.798 116.675 260.798H116.754C116.954 260.798 117.153 260.997 117.153 261.197V271.812Z" fill="#D1D3D4"/>
<path d="M118.549 271.812C118.549 272.011 118.35 272.211 118.15 272.211H118.071C117.871 272.211 117.672 272.011 117.672 271.812V263.99C117.672 263.79 117.871 263.591 118.071 263.591H118.15C118.35 263.591 118.549 263.79 118.549 263.99V271.812Z" fill="#E6E7E8"/>
<path d="M127.72 271.812C127.72 272.011 127.521 272.211 127.321 272.211H127.242C127.042 272.211 126.843 272.011 126.843 271.812V263.99C126.843 263.79 127.042 263.591 127.242 263.591H127.321C127.521 263.591 127.72 263.79 127.72 263.99V271.812Z" fill="#E6E7E8"/>
<path d="M119.945 271.812C119.945 272.011 119.785 272.211 119.546 272.211H119.466C119.227 272.211 119.067 272.011 119.067 271.812V262.753C119.067 262.513 119.227 262.354 119.466 262.354H119.546C119.785 262.354 119.945 262.513 119.945 262.753V271.812Z" fill="#E6E7E8"/>
<path d="M121.499 271.812C121.499 272.012 121.34 272.211 121.101 272.211H121.061C120.822 272.211 120.662 272.012 120.662 271.812V260.558C120.662 260.359 120.822 260.159 121.061 260.159H121.141C121.38 260.159 121.539 260.359 121.539 260.558V271.812H121.499Z" fill="#D1D3D4"/>
<path d="M126.125 271.971C126.125 272.171 125.966 272.37 125.727 272.37H125.647C125.408 272.37 125.248 272.171 125.248 271.971V260.717C125.248 260.518 125.408 260.318 125.647 260.318H125.727C125.966 260.318 126.125 260.518 126.125 260.717V271.971Z" fill="#D1D3D4"/>
<path d="M123.055 271.852C123.055 272.051 122.856 272.251 122.656 272.251H122.576C122.377 272.251 122.178 272.051 122.178 271.852V262.234C122.178 262.034 122.377 261.835 122.576 261.835H122.656C122.856 261.835 123.055 262.034 123.055 262.234V271.852Z" fill="#E6E7E8"/>
<path d="M124.53 271.852C124.53 272.051 124.371 272.251 124.131 272.251H124.052C123.812 272.251 123.653 272.051 123.653 271.852V262.234C123.653 262.034 123.812 261.835 124.052 261.835H124.131C124.371 261.835 124.53 262.034 124.53 262.234V271.852Z" fill="#E6E7E8"/>
<path d="M103.955 270.934C103.955 271.612 103.436 272.131 102.758 272.131H98.771C98.133 272.131 97.5747 271.612 97.5747 270.934V266.943C97.5747 266.265 98.133 265.746 98.771 265.746H102.758C103.436 265.746 103.955 266.265 103.955 266.943V270.934Z" fill="url(#paint41_linear)"/>
<path d="M93.6274 262.554C94.6184 262.554 95.4218 261.75 95.4218 260.758C95.4218 259.766 94.6184 258.962 93.6274 258.962C92.6364 258.962 91.833 259.766 91.833 260.758C91.833 261.75 92.6364 262.554 93.6274 262.554Z" fill="white"/>
<path d="M100.805 262.634C101.796 262.634 102.599 261.83 102.599 260.838C102.599 259.846 101.796 259.042 100.805 259.042C99.8136 259.042 99.0103 259.846 99.0103 260.838C99.0103 261.83 99.8136 262.634 100.805 262.634Z" fill="white"/>
<path d="M93.5473 269.697C94.5383 269.697 95.3417 268.893 95.3417 267.901C95.3417 266.909 94.5383 266.105 93.5473 266.105C92.5563 266.105 91.7529 266.909 91.7529 267.901C91.7529 268.893 92.5563 269.697 93.5473 269.697Z" fill="white"/>
<path d="M100.845 269.697C101.836 269.697 102.639 268.893 102.639 267.901C102.639 266.909 101.836 266.105 100.845 266.105C99.8537 266.105 99.0503 266.909 99.0503 267.901C99.0503 268.893 99.8537 269.697 100.845 269.697Z" fill="white"/>
<path d="M98.7313 263.391C98.492 263.391 98.3325 263.311 98.3325 263.192C98.3325 263.072 98.492 262.992 98.7313 262.992H103.078C103.317 262.992 103.476 263.072 103.476 263.192C103.476 263.311 103.317 263.391 103.078 263.391H98.7313Z" fill="white"/>
<path d="M91.5936 263.471C91.3543 263.471 91.1948 263.392 91.1948 263.272C91.1948 263.152 91.3543 263.072 91.5936 263.072H95.9399C96.1792 263.072 96.3387 263.152 96.3387 263.272C96.3387 263.392 96.1792 263.471 95.9399 263.471H91.5936Z" fill="white"/>
<path d="M91.5135 270.575C91.3141 270.575 91.1147 270.495 91.1147 270.375C91.1147 270.256 91.3141 270.176 91.5135 270.176H95.8599C96.0593 270.176 96.2586 270.256 96.2586 270.375C96.2586 270.495 96.0593 270.575 95.8599 270.575H91.5135Z" fill="white"/>
<path d="M98.7313 270.575C98.492 270.575 98.3325 270.495 98.3325 270.375C98.3325 270.256 98.492 270.176 98.7313 270.176H103.078C103.317 270.176 103.476 270.256 103.476 270.375C103.476 270.495 103.317 270.575 103.078 270.575H98.7313Z" fill="white"/>
<path d="M568.817 183.177C568.538 182.099 567.701 181.261 566.664 180.982C564.79 180.463 557.214 180.463 557.214 180.463C557.214 180.463 549.638 180.463 547.763 180.982C546.727 181.261 545.889 182.099 545.61 183.177C545.092 185.092 545.092 189.123 545.092 189.123C545.092 189.123 545.092 193.153 545.61 195.069C545.889 196.147 546.727 196.985 547.763 197.264C549.638 197.783 557.214 197.783 557.214 197.783C557.214 197.783 564.79 197.783 566.664 197.264C567.701 196.985 568.538 196.147 568.817 195.069C569.336 193.153 569.336 189.123 569.336 189.123C569.336 189.123 569.336 185.092 568.817 183.177Z" fill="white"/>
<path d="M554.742 192.754V185.451L561.082 189.123L554.742 192.754Z" fill="url(#paint42_linear)"/>
<path d="M435.715 122.198C437.788 123.555 440.301 124.313 442.972 124.313C451.745 124.313 456.689 116.891 456.41 110.266C457.327 109.588 458.125 108.749 458.763 107.832C457.925 108.191 457.008 108.47 456.051 108.59C457.008 107.991 457.766 107.073 458.125 105.956C457.208 106.515 456.211 106.874 455.134 107.113C454.257 106.195 453.06 105.637 451.705 105.637C448.674 105.637 446.401 108.47 447.119 111.423C443.211 111.224 439.702 109.348 437.39 106.475C436.153 108.59 436.752 111.383 438.865 112.78C438.107 112.74 437.35 112.541 436.712 112.182C436.672 114.376 438.227 116.412 440.5 116.891C439.822 117.09 439.104 117.13 438.387 116.97C438.985 118.846 440.739 120.203 442.813 120.243C440.699 121.799 438.187 122.518 435.715 122.198Z" fill="white"/>
<path d="M62.4452 285.978H68.9847V269.616H73.5305L74.009 264.149H68.9847C68.9847 264.149 68.9847 262.113 68.9847 261.036C68.9847 259.759 69.2638 259.24 70.5 259.24C71.4968 259.24 74.0488 259.24 74.0488 259.24V253.533C74.0488 253.533 70.3405 253.533 69.543 253.533C64.6782 253.533 62.4851 255.688 62.4851 259.759C62.4851 263.311 62.4851 264.109 62.4851 264.109H59.0957V269.656H62.4851V285.978H62.4452Z" fill="white"/>
<path d="M95.4617 93.2256C98.9308 93.2256 99.3295 93.2256 100.725 93.3054C102.001 93.3454 102.679 93.5848 103.158 93.7444C103.756 93.9839 104.194 94.2632 104.633 94.7022C105.072 95.1412 105.351 95.5802 105.59 96.2187C105.749 96.6577 105.989 97.376 106.029 98.653C106.108 100.01 106.108 100.449 106.108 103.921C106.108 107.393 106.108 107.792 106.029 109.189C105.989 110.466 105.749 111.144 105.59 111.623C105.351 112.222 105.072 112.661 104.633 113.139C104.194 113.578 103.756 113.858 103.158 114.097C102.719 114.257 102.001 114.496 100.725 114.536C99.3694 114.616 98.9308 114.616 95.4617 114.616C91.9925 114.616 91.5938 114.616 90.1982 114.536C88.9222 114.496 88.2443 114.257 87.7658 114.097C87.1677 113.858 86.729 113.578 86.2505 113.139C85.8119 112.7 85.5328 112.261 85.2935 111.623C85.134 111.184 84.8948 110.466 84.8549 109.189C84.7752 107.832 84.7752 107.393 84.7752 103.921C84.7752 100.449 84.7752 100.05 84.8549 98.653C84.8948 97.376 85.134 96.6976 85.2935 96.2187C85.5328 95.6201 85.8119 95.1811 86.2505 94.7022C86.6892 94.2632 87.1278 93.9839 87.7658 93.7444C88.2044 93.5848 88.9222 93.3454 90.1982 93.3054C91.5938 93.2256 91.9925 93.2256 95.4617 93.2256ZM95.4617 90.8711C91.9128 90.8711 91.4742 90.8711 90.1184 90.9509C88.7228 91.0307 87.8057 91.2303 86.9683 91.5495C86.1309 91.8688 85.3733 92.3078 84.6555 93.066C83.9378 93.7843 83.4992 94.5027 83.1403 95.3806C82.8213 96.2187 82.582 97.1366 82.5422 98.5333C82.4624 99.9301 82.4624 100.369 82.4624 103.881C82.4624 107.433 82.4624 107.872 82.5422 109.229C82.6219 110.625 82.8213 111.543 83.1403 112.381C83.4593 113.219 83.8979 113.977 84.6555 114.696C85.3733 115.414 86.091 115.853 86.9683 116.212C87.8057 116.532 88.7228 116.771 90.1184 116.811C91.514 116.891 91.9527 116.891 95.4617 116.891C99.0105 116.891 99.4492 116.891 100.805 116.811C102.201 116.731 103.118 116.532 103.955 116.212C104.792 115.893 105.55 115.454 106.268 114.696C106.986 113.977 107.424 113.259 107.783 112.381C108.102 111.543 108.341 110.625 108.381 109.229C108.461 107.832 108.461 107.393 108.461 103.881C108.461 100.329 108.461 99.8902 108.381 98.5333C108.301 97.1366 108.102 96.2187 107.783 95.3806C107.464 94.5426 107.025 93.7843 106.268 93.066C105.55 92.3477 104.832 91.9087 103.955 91.5495C103.118 91.2303 102.201 90.9908 100.805 90.9509C99.4492 90.911 99.0105 90.8711 95.4617 90.8711Z" fill="white"/>
<path d="M95.4619 97.2158C91.7535 97.2158 88.8027 100.209 88.8027 103.88C88.8027 107.552 91.7934 110.545 95.4619 110.545C99.1702 110.545 102.121 107.552 102.121 103.88C102.121 100.209 99.1702 97.2158 95.4619 97.2158ZM95.4619 108.23C93.0694 108.23 91.1155 106.275 91.1155 103.88C91.1155 101.486 93.0694 99.5304 95.4619 99.5304C97.8544 99.5304 99.8082 101.486 99.8082 103.88C99.8082 106.315 97.8544 108.23 95.4619 108.23Z" fill="white"/>
<path d="M103.995 96.9372C103.995 97.8152 103.277 98.4936 102.44 98.4936C101.563 98.4936 100.885 97.7753 100.885 96.9372C100.885 96.0593 101.603 95.3809 102.44 95.3809C103.277 95.3809 103.995 96.0992 103.995 96.9372Z" fill="white"/>
<path d="M267.163 52.041H263.096V65.1706H267.163V52.041Z" fill="white"/>
<path d="M265.13 50.3248C266.446 50.3248 267.522 49.2473 267.522 47.8904C267.522 46.5336 266.446 45.4561 265.13 45.4561C263.814 45.4561 262.737 46.5336 262.737 47.8904C262.737 49.2473 263.774 50.3248 265.13 50.3248Z" fill="white"/>
<path d="M273.663 58.2661C273.663 56.4304 274.501 55.313 276.135 55.313C277.611 55.313 278.368 56.3505 278.368 58.2661C278.368 60.1417 278.368 65.1701 278.368 65.1701H282.396C282.396 65.1701 282.396 60.3812 282.396 56.8294C282.396 53.3176 280.402 51.6016 277.611 51.6016C274.819 51.6016 273.663 53.7566 273.663 53.7566V52.0006H269.755V65.1302H273.663C273.663 65.1701 273.663 60.3014 273.663 58.2661Z" fill="white"/>
<path d="M631.063 287.295H618.981V290.767H627.115C626.158 294.998 623.167 297.552 619.18 297.552C613.956 297.552 609.69 293.321 609.69 288.054C609.69 282.786 613.916 278.556 619.18 278.556C621.652 278.556 623.925 279.513 625.64 281.07L628.311 278.755C625.959 276.441 622.729 275.004 619.18 275.004C612.002 275.004 606.181 280.83 606.181 288.014C606.181 295.197 612.002 301.024 619.18 301.024C626.078 301.024 631.063 295.756 631.063 288.572V287.295Z" fill="white"/>
<path d="M66.4325 308.207C66.4325 308.207 65.6749 307.768 64.3989 306.97" stroke="#9357A3" stroke-width="2" stroke-miterlimit="10"/>
<path d="M60.4114 304.296C48.0501 295.556 22.1314 273.288 35.4098 248.186C52.556 215.781 103.277 242.918 105.949 210.234C108.62 177.55 102.4 124.712 56.4638 132.614C10.5278 140.516 110.215 202.292 118.948 132.694C127.681 63.0953 190.284 21.4719 213.332 46.8929C236.38 72.3139 290.53 95.3006 319.12 71.7951C347.711 48.2897 313.299 13.2909 294.956 23.5471C276.654 33.7634 319.639 93.9437 385.393 92.3475C451.147 90.7512 489.347 65.3301 534.326 134.45C579.305 203.569 435.516 190.24 452.223 155.242C468.931 120.243 525.553 72.5933 566.704 121.28C605.822 167.533 636.565 229.828 625.081 258.881" stroke="#9357A3" stroke-width="2" stroke-miterlimit="10" stroke-dasharray="12.03 12.03"/>
<path d="M624.124 261.076C623.765 261.794 623.367 262.473 622.968 263.151" stroke="#9357A3" stroke-width="2" stroke-miterlimit="10"/>
<g opacity="0.3">
<path opacity="0.3" d="M400.665 113.618C402.619 112.58 402.38 111.742 400.187 111.742L153.4 111.463C151.207 111.463 149.413 113.259 149.413 115.454V243.237C149.413 245.432 151.008 246.39 152.922 245.352L400.665 113.618Z" fill="white"/>
</g>
<g opacity="0.3">
<path opacity="0.3" d="M592.144 229.27C594.018 228.153 593.779 227.235 591.586 227.235L430.371 227.035C428.178 227.035 426.384 228.831 426.384 231.026V322.494C426.384 324.689 427.939 325.567 429.813 324.449L592.144 229.27Z" fill="white"/>
</g>
<g opacity="0.3">
<path opacity="0.3" d="M130.751 256.247C131.748 254.292 130.751 252.656 128.558 252.656L91.2346 252.496C89.0414 252.496 87.2471 254.292 87.2471 256.487V338.975C87.2471 341.17 88.0446 341.37 89.0414 339.414L130.751 256.247Z" fill="white"/>
</g>
</g>
<defs>
<filter id="filter0_d" x="-17" y="-19" width="698" height="491" filterUnits="userSpaceOnUse" color-interpolation-filters="sRGB">
<feFlood flood-opacity="0" result="BackgroundImageFix"/>
<feColorMatrix in="SourceAlpha" type="matrix" values="0 0 0 0 0 0 0 0 0 0 0 0 0 0 0 0 0 0 127 0" result="hardAlpha"/>
<feOffset dy="10"/>
<feGaussianBlur stdDeviation="15"/>
<feColorMatrix type="matrix" values="0 0 0 0 0 0 0 0 0 0 0 0 0 0 0 0 0 0 0.25 0"/>
<feBlend mode="normal" in2="BackgroundImageFix" result="effect1_dropShadow"/>
<feBlend mode="normal" in="SourceGraphic" in2="effect1_dropShadow" result="shape"/>
</filter>
<linearGradient id="paint0_linear" x1="72.3494" y1="105.45" x2="118.823" y2="105.45" gradientUnits="userSpaceOnUse">
<stop stop-color="#7DD3F7"/>
<stop offset="1" stop-color="#43B5E8"/>
</linearGradient>
<linearGradient id="paint1_linear" x1="252.679" y1="57.0467" x2="293.361" y2="57.0467" gradientUnits="userSpaceOnUse">
<stop stop-color="#7DD3F7"/>
<stop offset="1" stop-color="#43B5E8"/>
</linearGradient>
<linearGradient id="paint2_linear" x1="423.616" y1="115.064" x2="470.784" y2="115.064" gradientUnits="userSpaceOnUse">
<stop stop-color="#7DD3F7"/>
<stop offset="1" stop-color="#43B5E8"/>
</linearGradient>
<linearGradient id="paint3_linear" x1="534.538" y1="189.244" x2="578.919" y2="189.244" gradientUnits="userSpaceOnUse">
<stop stop-color="#7DD3F7"/>
<stop offset="1" stop-color="#43B5E8"/>
</linearGradient>
<linearGradient id="paint4_linear" x1="597.145" y1="288.272" x2="640.099" y2="288.272" gradientUnits="userSpaceOnUse">
<stop stop-color="#7DD3F7"/>
<stop offset="1" stop-color="#43B5E8"/>
</linearGradient>
<linearGradient id="paint5_linear" x1="44.4334" y1="269.455" x2="90.4221" y2="269.455" gradientUnits="userSpaceOnUse">
<stop stop-color="#7DD3F7"/>
<stop offset="1" stop-color="#43B5E8"/>
</linearGradient>
<linearGradient id="paint6_linear" x1="78.9875" y1="182.35" x2="90.6492" y2="182.35" gradientUnits="userSpaceOnUse">
<stop stop-color="#7DD3F7"/>
<stop offset="1" stop-color="#43B5E8"/>
</linearGradient>
<linearGradient id="paint7_linear" x1="340.346" y1="58.7739" x2="349.264" y2="58.7739" gradientUnits="userSpaceOnUse">
<stop stop-color="#7DD3F7"/>
<stop offset="1" stop-color="#43B5E8"/>
</linearGradient>
<linearGradient id="paint8_linear" x1="204.522" y1="92.4145" x2="214.812" y2="92.4145" gradientUnits="userSpaceOnUse">
<stop stop-color="#71459B"/>
<stop offset="0.8668" stop-color="#A76DAE"/>
</linearGradient>
<linearGradient id="paint9_linear" x1="585.926" y1="123.308" x2="598.96" y2="123.308" gradientUnits="userSpaceOnUse">
<stop stop-color="#7DD3F7"/>
<stop offset="1" stop-color="#43B5E8"/>
</linearGradient>
<linearGradient id="paint10_linear" x1="612.679" y1="238.647" x2="618.853" y2="238.647" gradientUnits="userSpaceOnUse">
<stop stop-color="#71459B"/>
<stop offset="0.8668" stop-color="#A76DAE"/>
</linearGradient>
<linearGradient id="paint11_linear" x1="142.098" y1="303.181" x2="148.272" y2="303.181" gradientUnits="userSpaceOnUse">
<stop stop-color="#71459B"/>
<stop offset="0.8668" stop-color="#A76DAE"/>
</linearGradient>
<linearGradient id="paint12_linear" x1="2089.07" y1="-452.191" x2="2100.96" y2="-456.178" gradientUnits="userSpaceOnUse">
<stop stop-color="#456AB3"/>
<stop offset="1" stop-color="#3560AC"/>
</linearGradient>
<linearGradient id="paint13_linear" x1="2085.19" y1="-436.448" x2="2097.09" y2="-440.435" gradientUnits="userSpaceOnUse">
<stop stop-color="#456AB3"/>
<stop offset="1" stop-color="#3560AC"/>
</linearGradient>
<linearGradient id="paint14_linear" x1="2081.29" y1="-420.719" x2="2093.19" y2="-424.706" gradientUnits="userSpaceOnUse">
<stop stop-color="#456AB3"/>
<stop offset="1" stop-color="#3560AC"/>
</linearGradient>
<linearGradient id="paint15_linear" x1="2077.65" y1="-404.728" x2="2089.55" y2="-408.715" gradientUnits="userSpaceOnUse">
<stop stop-color="#456AB3"/>
<stop offset="1" stop-color="#3560AC"/>
</linearGradient>
<linearGradient id="paint16_linear" x1="2073.5" y1="-389.238" x2="2085.4" y2="-393.225" gradientUnits="userSpaceOnUse">
<stop stop-color="#456AB3"/>
<stop offset="1" stop-color="#3560AC"/>
</linearGradient>
<linearGradient id="paint17_linear" x1="277.172" y1="314.056" x2="277.414" y2="345.458" gradientUnits="userSpaceOnUse">
<stop stop-color="white"/>
<stop offset="1" stop-color="#494A4B"/>
</linearGradient>
<linearGradient id="paint18_linear" x1="276.38" y1="261.681" x2="277.248" y2="285.606" gradientUnits="userSpaceOnUse">
<stop stop-color="white"/>
<stop offset="1" stop-color="#979899"/>
</linearGradient>
<linearGradient id="paint19_linear" x1="273.648" y1="249.317" x2="281.632" y2="106.866" gradientUnits="userSpaceOnUse">
<stop stop-color="#7DD3F7"/>
<stop offset="1" stop-color="#43B5E8"/>
</linearGradient>
<linearGradient id="paint20_linear" x1="106.881" y1="251.092" x2="106.856" y2="245.426" gradientUnits="userSpaceOnUse">
<stop stop-color="white"/>
<stop offset="1" stop-color="#43B5E8"/>
</linearGradient>
<linearGradient id="paint21_linear" x1="99.9577" y1="341.381" x2="119.258" y2="251.389" gradientUnits="userSpaceOnUse">
<stop stop-color="#7DD3F7"/>
<stop offset="1" stop-color="#43B5E8"/>
</linearGradient>
<linearGradient id="paint22_linear" x1="508.14" y1="327.188" x2="514.497" y2="223.911" gradientUnits="userSpaceOnUse">
<stop stop-color="#7DD3F7"/>
<stop offset="1" stop-color="#43B5E8"/>
</linearGradient>
<linearGradient id="paint23_linear" x1="171.02" y1="198.378" x2="204.467" y2="198.378" gradientUnits="userSpaceOnUse">
<stop stop-color="#71459B"/>
<stop offset="0.8668" stop-color="#A76DAE"/>
</linearGradient>
<linearGradient id="paint24_linear" x1="163.5" y1="222.024" x2="213.184" y2="222.024" gradientUnits="userSpaceOnUse">
<stop stop-color="#71459B"/>
<stop offset="0.8668" stop-color="#A76DAE"/>
</linearGradient>
<linearGradient id="paint25_linear" x1="166.77" y1="227.324" x2="209.914" y2="227.324" gradientUnits="userSpaceOnUse">
<stop stop-color="#71459B"/>
<stop offset="0.8668" stop-color="#A76DAE"/>
</linearGradient>
<linearGradient id="paint26_linear" x1="441.198" y1="312.774" x2="473.318" y2="312.774" gradientUnits="userSpaceOnUse">
<stop stop-color="#71459B"/>
<stop offset="0.8668" stop-color="#A76DAE"/>
</linearGradient>
<linearGradient id="paint27_linear" x1="98.5455" y1="305.805" x2="119.462" y2="305.805" gradientUnits="userSpaceOnUse">
<stop stop-color="#71459B"/>
<stop offset="0.8668" stop-color="#A76DAE"/>
</linearGradient>
<linearGradient id="paint28_linear" x1="444.157" y1="289.902" x2="470.676" y2="289.902" gradientUnits="userSpaceOnUse">
<stop stop-color="#71459B"/>
<stop offset="0.8668" stop-color="#A76DAE"/>
</linearGradient>
<linearGradient id="paint29_linear" x1="438.195" y1="308.65" x2="477.588" y2="308.65" gradientUnits="userSpaceOnUse">
<stop stop-color="#71459B"/>
<stop offset="0.8668" stop-color="#A76DAE"/>
</linearGradient>
<linearGradient id="paint30_linear" x1="100.105" y1="290.077" x2="118.079" y2="290.077" gradientUnits="userSpaceOnUse">
<stop stop-color="#71459B"/>
<stop offset="0.8668" stop-color="#A76DAE"/>
</linearGradient>
<linearGradient id="paint31_linear" x1="96.0639" y1="302.784" x2="122.764" y2="302.784" gradientUnits="userSpaceOnUse">
<stop stop-color="#71459B"/>
<stop offset="0.8668" stop-color="#A76DAE"/>
</linearGradient>
<linearGradient id="paint32_linear" x1="159.016" y1="130.527" x2="180.932" y2="130.527" gradientUnits="userSpaceOnUse">
<stop stop-color="#7DD3F7"/>
<stop offset="1" stop-color="#43B5E8"/>
</linearGradient>
<linearGradient id="paint33_linear" x1="291.292" y1="125.143" x2="365.513" y2="125.143" gradientUnits="userSpaceOnUse">
<stop stop-color="#7DD3F7"/>
<stop offset="1" stop-color="#43B5E8"/>
</linearGradient>
<linearGradient id="paint34_linear" x1="291.292" y1="153.857" x2="365.513" y2="153.857" gradientUnits="userSpaceOnUse">
<stop stop-color="#7DD3F7"/>
<stop offset="1" stop-color="#43B5E8"/>
</linearGradient>
<linearGradient id="paint35_linear" x1="183.18" y1="155.086" x2="205.097" y2="155.086" gradientUnits="userSpaceOnUse">
<stop stop-color="#7DD3F7"/>
<stop offset="1" stop-color="#43B5E8"/>
</linearGradient>
<linearGradient id="paint36_linear" x1="433.92" y1="239.601" x2="448.2" y2="239.601" gradientUnits="userSpaceOnUse">
<stop stop-color="#7DD3F7"/>
<stop offset="1" stop-color="#43B5E8"/>
</linearGradient>
<linearGradient id="paint37_linear" x1="520.104" y1="236.094" x2="568.463" y2="236.094" gradientUnits="userSpaceOnUse">
<stop stop-color="#7DD3F7"/>
<stop offset="1" stop-color="#43B5E8"/>
</linearGradient>
<linearGradient id="paint38_linear" x1="520.104" y1="254.802" x2="568.463" y2="254.802" gradientUnits="userSpaceOnUse">
<stop stop-color="#7DD3F7"/>
<stop offset="1" stop-color="#43B5E8"/>
</linearGradient>
<linearGradient id="paint39_linear" x1="449.665" y1="255.604" x2="463.945" y2="255.604" gradientUnits="userSpaceOnUse">
<stop stop-color="#7DD3F7"/>
<stop offset="1" stop-color="#43B5E8"/>
</linearGradient>
<linearGradient id="paint40_linear" x1="90.5237" y1="261.766" x2="96.9205" y2="261.766" gradientUnits="userSpaceOnUse">
<stop stop-color="#7DD3F7"/>
<stop offset="1" stop-color="#43B5E8"/>
</linearGradient>
<linearGradient id="paint41_linear" x1="97.5766" y1="268.935" x2="103.973" y2="268.935" gradientUnits="userSpaceOnUse">
<stop stop-color="#7DD3F7"/>
<stop offset="1" stop-color="#43B5E8"/>
</linearGradient>
<linearGradient id="paint42_linear" x1="554.744" y1="189.116" x2="561.08" y2="189.116" gradientUnits="userSpaceOnUse">
<stop stop-color="#7DD3F7"/>
<stop offset="1" stop-color="#43B5E8"/>
</linearGradient>
</defs>
</svg>
