<svg width="691" height="457" viewBox="0 0 691 457" fill="none" xmlns="http://www.w3.org/2000/svg">
<g filter="url(#filter0_d)">
<path d="M112.928 171.512C125.379 171.512 135.473 161.434 135.473 149.002C135.473 136.571 125.379 126.493 112.928 126.493C100.477 126.493 90.384 136.571 90.384 149.002C90.384 161.434 100.477 171.512 112.928 171.512Z" fill="url(#paint0_linear)"/>
<path d="M285.008 121.86C295.9 121.86 304.729 113.044 304.729 102.17C304.729 91.2947 295.9 82.4789 285.008 82.4789C274.116 82.4789 265.286 91.2947 265.286 102.17C265.286 113.044 274.116 121.86 285.008 121.86Z" fill="url(#paint1_linear)"/>
<path d="M453.917 181.126C466.538 181.126 476.77 170.91 476.77 158.307C476.77 145.705 466.538 135.489 453.917 135.489C441.295 135.489 431.063 145.705 431.063 158.307C431.063 170.91 441.295 181.126 453.917 181.126Z" fill="url(#paint2_linear)"/>
<path d="M560.142 251.587C572.038 251.587 581.681 241.959 581.681 230.082C581.681 218.205 572.038 208.576 560.142 208.576C548.246 208.576 538.603 218.205 538.603 230.082C538.603 241.959 548.246 251.587 560.142 251.587Z" fill="url(#paint3_linear)"/>
<path d="M620.157 346.682C631.668 346.682 641 337.365 641 325.872C641 314.378 631.668 305.061 620.157 305.061C608.646 305.061 599.314 314.378 599.314 325.872C599.314 337.365 608.646 346.682 620.157 346.682Z" fill="url(#paint4_linear)"/>
<path d="M85.6278 329.964C97.9505 329.964 107.94 319.99 107.94 307.686C107.94 295.383 97.9505 285.409 85.6278 285.409C73.305 285.409 63.3154 295.383 63.3154 307.686C63.3154 319.99 73.305 329.964 85.6278 329.964Z" fill="url(#paint5_linear)"/>
<path d="M102.488 229.039C105.606 229.039 108.133 226.516 108.133 223.402C108.133 220.289 105.606 217.765 102.488 217.765C99.3695 217.765 96.8418 220.289 96.8418 223.402C96.8418 226.516 99.3695 229.039 102.488 229.039Z" fill="url(#paint6_linear)"/>
<path d="M354.613 108.193C357.005 108.193 358.944 106.257 358.944 103.868C358.944 101.48 357.005 99.5442 354.613 99.5442C352.221 99.5442 350.282 101.48 350.282 103.868C350.282 106.257 352.221 108.193 354.613 108.193Z" fill="url(#paint7_linear)"/>
<path d="M223.562 141.396C226.317 141.396 228.55 139.166 228.55 136.416C228.55 133.665 226.317 131.435 223.562 131.435C220.807 131.435 218.573 133.665 218.573 136.416C218.573 139.166 220.807 141.396 223.562 141.396Z" fill="url(#paint8_linear)"/>
<path d="M434.775 254.946C438.448 254.946 441.426 251.973 441.426 248.306C441.426 244.638 438.448 241.665 434.775 241.665C431.102 241.665 428.124 244.638 428.124 248.306C428.124 251.973 431.102 254.946 434.775 254.946Z" fill="#E6E7E8"/>
<path d="M594.751 172.593C598.232 172.593 601.055 169.775 601.055 166.299C601.055 162.824 598.232 160.006 594.751 160.006C591.27 160.006 588.448 162.824 588.448 166.299C588.448 169.775 591.27 172.593 594.751 172.593Z" fill="url(#paint9_linear)"/>
<path d="M617.373 280.853C619.017 280.853 620.35 279.522 620.35 277.88C620.35 276.238 619.017 274.907 617.373 274.907C615.728 274.907 614.395 276.238 614.395 277.88C614.395 279.522 615.728 280.853 617.373 280.853Z" fill="url(#paint10_linear)"/>
<path d="M161.033 343.284C162.678 343.284 164.011 341.953 164.011 340.312C164.011 338.67 162.678 337.339 161.033 337.339C159.389 337.339 158.056 338.67 158.056 340.312C158.056 341.953 159.389 343.284 161.033 343.284Z" fill="url(#paint11_linear)"/>
<path opacity="0.3" d="M403.569 158.81L391.968 162.709L392.509 164.331L404.11 160.431L403.569 158.81Z" fill="url(#paint12_linear)"/>
<path opacity="0.3" d="M407.784 171.357L396.183 175.257L396.724 176.879L408.325 172.979L407.784 171.357Z" fill="url(#paint13_linear)"/>
<path opacity="0.3" d="M412.037 183.906L400.437 187.805L400.978 189.427L412.579 185.527L412.037 183.906Z" fill="url(#paint14_linear)"/>
<path opacity="0.3" d="M416.252 196.453L404.652 200.353L405.193 201.974L416.794 198.075L416.252 196.453Z" fill="url(#paint15_linear)"/>
<path opacity="0.3" d="M420.468 209.001L408.867 212.901L409.408 214.523L421.009 210.623L420.468 209.001Z" fill="url(#paint16_linear)"/>
<path d="M311.922 374.249H266.524L271.358 368.226C275.031 363.67 277.003 357.994 277.003 352.126V310.003H301.404V352.126C301.404 357.956 303.415 363.631 307.05 368.226L311.922 374.249Z" fill="url(#paint17_linear)"/>
<path d="M311.922 374.249H266.524V377.994H311.922V374.249V374.249Z" fill="url(#paint18_linear)"/>
<path d="M301.404 314.752V347.57L277.003 338.574V314.752H301.404Z" fill="url(#paint19_linear)"/>
<path d="M419.578 152.632V293.633H158.868V152.632C158.868 152.168 158.945 151.744 159.1 151.28C159.371 150.547 159.873 149.89 160.531 149.427C161.188 148.964 161.961 148.732 162.735 148.732H415.634C416.136 148.732 416.639 148.848 417.103 149.041C417.567 149.234 417.993 149.504 418.379 149.89C418.727 150.238 419.037 150.663 419.23 151.165C419.462 151.589 419.578 152.091 419.578 152.632Z" fill="#231F20"/>
<path d="M158.906 293.633H419.578V319.694C419.578 321.47 418.882 323.207 417.606 324.443C416.33 325.717 414.628 326.412 412.849 326.412H165.635C163.856 326.412 162.116 325.717 160.879 324.443C159.603 323.169 158.906 321.47 158.906 319.694V293.633V293.633Z" fill="url(#paint20_linear)"/>
<path d="M413.623 156.763C413.623 155.682 412.772 154.833 411.69 154.833H167.027C165.944 154.833 165.094 155.682 165.094 156.763V286.258C165.094 287.339 165.944 288.189 167.027 288.189H411.69C412.772 288.189 413.623 287.339 413.623 286.258V156.763Z" fill="url(#paint21_linear)"/>
<path d="M295.719 311.547C296.57 307.957 294.327 304.366 290.731 303.517C287.135 302.667 283.538 304.907 282.688 308.497C281.837 312.088 284.08 315.679 287.676 316.528C291.272 317.377 294.869 315.138 295.719 311.547Z" fill="#231F20"/>
<path d="M134.854 291.394H112.928V297.687H134.854V291.394Z" fill="url(#paint22_linear)"/>
<path d="M144.715 289.926H107.708C107.128 289.926 106.548 290.042 106.007 290.274C105.465 290.506 104.962 290.814 104.576 291.239C104.15 291.664 103.841 292.127 103.609 292.668C103.377 293.208 103.261 293.787 103.261 294.366V376.141C103.261 377.338 103.725 378.457 104.576 379.307C105.426 380.156 106.548 380.62 107.747 380.62H144.753C145.333 380.62 145.913 380.504 146.455 380.272C146.996 380.04 147.499 379.732 147.886 379.307C148.311 378.882 148.62 378.419 148.852 377.878C149.084 377.338 149.2 376.759 149.2 376.179V294.366C149.2 293.787 149.084 293.208 148.852 292.668C148.62 292.127 148.311 291.625 147.886 291.239C147.46 290.814 146.996 290.506 146.455 290.274C145.875 290.004 145.295 289.888 144.715 289.926ZM119.966 292.282C119.966 292.204 120.005 292.127 120.082 292.05C120.121 292.011 120.16 292.011 120.198 291.973C120.237 291.973 120.276 291.934 120.314 291.934H130.446C130.484 291.934 130.523 291.934 130.562 291.973C130.6 291.973 130.639 292.011 130.678 292.05C130.716 292.089 130.716 292.127 130.755 292.166C130.755 292.204 130.794 292.243 130.794 292.282C130.794 292.359 130.755 292.436 130.678 292.513C130.6 292.59 130.523 292.59 130.446 292.59H120.314C120.276 292.59 120.237 292.59 120.198 292.552C120.16 292.552 120.121 292.513 120.082 292.475C120.044 292.436 120.044 292.397 120.005 292.359C119.966 292.359 119.966 292.32 119.966 292.282ZM131.799 292.282C131.799 292.204 131.799 292.166 131.838 292.089C131.876 292.05 131.915 291.973 131.992 291.973C132.07 291.973 132.108 291.934 132.186 291.934C132.263 291.934 132.302 291.973 132.34 292.011C132.379 292.05 132.418 292.127 132.418 292.166C132.418 292.243 132.418 292.282 132.418 292.359C132.418 292.436 132.34 292.475 132.302 292.513C132.263 292.552 132.186 292.552 132.108 292.552C132.031 292.552 131.954 292.513 131.876 292.475C131.838 292.475 131.799 292.359 131.799 292.282Z" fill="#231F20"/>
<path d="M136.904 291.277C135.434 293.401 132.921 294.675 130.175 294.675H122.248C119.502 294.675 116.989 293.401 115.519 291.277H107.167C106.857 291.277 106.548 291.355 106.277 291.47C106.007 291.586 105.736 291.741 105.542 291.972C105.31 292.204 105.156 292.436 105.04 292.745C104.924 293.015 104.846 293.324 104.846 293.633V376.72C104.846 377.029 104.924 377.337 105.04 377.608C105.156 377.878 105.31 378.148 105.542 378.38C105.775 378.611 106.007 378.766 106.277 378.882C106.548 378.998 106.857 379.075 107.167 379.075H145.217C145.836 379.075 146.416 378.843 146.842 378.38C147.267 377.955 147.538 377.337 147.538 376.758V293.594C147.538 293.285 147.46 292.976 147.344 292.706C147.228 292.436 147.074 292.165 146.842 291.934C146.61 291.702 146.378 291.548 146.107 291.432C145.836 291.316 145.527 291.239 145.217 291.239H136.904V291.277Z" fill="url(#paint23_linear)"/>
<path d="M115.52 291.278C115.558 291.316 115.558 291.355 115.597 291.393C115.636 291.471 115.713 291.548 115.752 291.586C115.79 291.664 115.829 291.702 115.906 291.78C115.945 291.857 115.984 291.895 116.061 291.934C116.1 291.973 116.177 292.05 116.216 292.127C116.254 292.166 116.332 292.243 116.37 292.281C116.409 292.32 116.486 292.397 116.525 292.436C116.641 292.552 116.757 292.629 116.873 292.745C116.95 292.783 116.989 292.861 117.066 292.899L117.26 293.054C117.337 293.092 117.376 293.131 117.453 293.208C117.53 293.247 117.569 293.285 117.646 293.324C117.724 293.362 117.762 293.401 117.84 293.44C117.956 293.517 118.11 293.594 118.265 293.671C118.342 293.71 118.42 293.749 118.497 293.787C118.574 293.826 118.652 293.864 118.729 293.903C118.806 293.942 118.884 293.98 118.961 294.019C119.116 294.096 119.27 294.135 119.425 294.212C119.502 294.25 119.58 294.25 119.657 294.289C119.773 294.328 119.889 294.366 119.967 294.405H120.005C120.121 294.444 120.237 294.482 120.353 294.482C120.431 294.482 120.508 294.521 120.585 294.521C120.663 294.521 120.74 294.559 120.817 294.559C120.856 294.559 120.895 294.559 120.895 294.559C120.933 294.559 120.972 294.559 121.011 294.598C121.049 294.598 121.088 294.598 121.127 294.598C121.127 294.598 121.127 294.598 121.165 294.598L121.32 294.637C121.397 294.637 121.436 294.637 121.513 294.637C121.668 294.637 121.784 294.675 121.939 294.675C122.055 294.675 122.171 294.675 122.287 294.675H130.214C130.33 294.675 130.407 294.675 130.523 294.675C130.639 294.675 130.794 294.675 130.91 294.637C130.987 294.637 131.103 294.637 131.181 294.598C131.219 294.598 131.258 294.598 131.297 294.598C131.374 294.598 131.413 294.598 131.49 294.559C131.606 294.559 131.683 294.521 131.799 294.521C131.915 294.521 131.993 294.482 132.109 294.444C132.225 294.405 132.302 294.405 132.418 294.366C132.534 294.328 132.611 294.328 132.727 294.289C132.843 294.25 132.96 294.212 133.037 294.173C133.114 294.135 133.192 294.096 133.269 294.096C133.346 294.057 133.424 294.057 133.462 294.019C133.656 293.942 133.849 293.864 134.042 293.749C134.12 293.71 134.197 293.671 134.274 293.633C134.352 293.594 134.429 293.556 134.468 293.517C134.545 293.478 134.584 293.44 134.661 293.401C134.738 293.362 134.777 293.324 134.854 293.285C134.932 293.247 134.97 293.208 135.048 293.169C135.125 293.131 135.164 293.092 135.241 293.015C135.357 292.938 135.434 292.861 135.512 292.783C135.589 292.706 135.705 292.629 135.782 292.552C135.821 292.513 135.898 292.474 135.937 292.397C136.014 292.32 136.053 292.281 136.13 292.204C136.208 292.127 136.246 292.088 136.324 292.011C136.362 291.973 136.401 291.934 136.44 291.857C136.478 291.78 136.556 291.741 136.594 291.664C136.71 291.548 136.788 291.393 136.865 291.278H115.52ZM130.678 292.513C130.639 292.552 130.601 292.552 130.562 292.59C130.523 292.59 130.485 292.629 130.446 292.629H120.315C120.276 292.629 120.237 292.629 120.199 292.59C120.16 292.59 120.121 292.552 120.083 292.513C120.044 292.474 120.044 292.436 120.005 292.397C120.005 292.359 119.967 292.32 119.967 292.281C119.967 292.204 120.005 292.127 120.083 292.05C120.121 292.011 120.16 292.011 120.199 291.973C120.237 291.973 120.276 291.934 120.315 291.934H130.446C130.523 291.934 130.639 291.973 130.678 292.05C130.755 292.127 130.794 292.204 130.794 292.281C130.794 292.32 130.794 292.359 130.755 292.397C130.717 292.436 130.678 292.474 130.678 292.513ZM132.109 292.629C132.031 292.629 131.993 292.59 131.915 292.59C131.877 292.552 131.799 292.513 131.799 292.436C131.761 292.359 131.761 292.32 131.799 292.243C131.799 292.166 131.838 292.127 131.877 292.088C131.915 292.05 131.993 292.011 132.031 292.011C132.109 292.011 132.147 292.011 132.225 292.05C132.302 292.088 132.341 292.127 132.379 292.166C132.418 292.204 132.418 292.281 132.418 292.359C132.418 292.397 132.418 292.436 132.379 292.474C132.379 292.513 132.341 292.552 132.302 292.59C132.263 292.629 132.225 292.629 132.186 292.668C132.225 292.59 132.147 292.629 132.109 292.629Z" fill="#231F20"/>
<path d="M439.764 261.201H592.199C595.138 261.201 597.961 262.359 600.049 264.444C602.137 266.529 603.297 269.347 603.297 272.282V373.438H428.627V272.32C428.627 269.386 429.787 266.567 431.875 264.482C434.002 262.398 436.825 261.201 439.764 261.201Z" fill="#231F20"/>
<path d="M598.309 270.544C598.309 268.421 596.569 266.683 594.442 266.683H437.56C435.433 266.683 433.693 268.421 433.693 270.544V359.847C433.693 361.971 435.433 363.708 437.56 363.708H594.442C596.569 363.708 598.309 361.971 598.309 359.847V270.544Z" fill="url(#paint24_linear)"/>
<path opacity="0.5" d="M603.336 369.23H428.666V373.438H603.336V369.23Z" fill="white"/>
<path d="M424.334 381.044H607.667C609.677 381.044 611.611 380.233 613.042 378.805C614.472 377.376 615.285 375.446 615.285 373.438H416.716C416.716 375.446 417.528 377.376 418.959 378.805C420.351 380.233 422.285 381.044 424.334 381.044Z" fill="#CACACA"/>
<path d="M527.505 376.681H504.38C503.53 376.681 502.679 376.334 502.06 375.716C501.442 375.098 501.094 374.287 501.094 373.399H530.753C530.753 373.824 530.676 374.249 530.521 374.635C530.366 375.021 530.134 375.407 529.825 375.677C529.516 375.986 529.168 376.218 528.781 376.372C528.356 376.604 527.93 376.681 527.505 376.681Z" fill="#676767"/>
<path d="M440.846 265.912C440.846 265.912 433.499 265.024 432.919 271.278" stroke="#231F20" stroke-width="3" stroke-miterlimit="10"/>
<path d="M409.794 207.959C409.794 210.083 408.054 211.82 405.928 211.82H173.601C171.474 211.82 169.734 210.083 169.734 207.959V162.709C169.734 160.586 171.474 158.848 173.601 158.848H405.928C408.054 158.848 409.794 160.586 409.794 162.709V207.959Z" fill="white"/>
<path d="M408.325 222.244C408.325 222.939 406.585 223.557 404.458 223.557H245.604C243.477 223.557 241.737 222.978 241.737 222.244C241.737 221.549 243.477 220.932 245.604 220.932H404.458C406.585 220.97 408.325 221.549 408.325 222.244Z" fill="white"/>
<path d="M408.325 229.85C408.325 230.545 406.585 231.163 404.458 231.163H245.604C243.477 231.163 241.737 230.584 241.737 229.85C241.737 229.117 243.477 228.538 245.604 228.538H404.458C406.585 228.538 408.325 229.155 408.325 229.85Z" fill="white"/>
<path d="M408.325 238.19C408.325 238.885 406.585 239.503 404.458 239.503H245.604C243.477 239.503 241.737 238.924 241.737 238.19C241.737 237.456 243.477 236.877 245.604 236.877H404.458C406.585 236.877 408.325 237.456 408.325 238.19Z" fill="white"/>
<path d="M407.861 255.525C407.861 256.22 406.121 256.838 403.994 256.838H245.178C243.051 256.838 241.311 256.259 241.311 255.525C241.311 254.83 243.051 254.213 245.178 254.213H403.994C406.121 254.213 407.861 254.83 407.861 255.525Z" fill="white"/>
<path d="M407.861 263.132C407.861 263.827 406.121 264.445 403.994 264.445H245.178C243.051 264.445 241.311 263.865 241.311 263.132C241.311 262.437 243.051 261.819 245.178 261.819H403.994C406.121 261.819 407.861 262.398 407.861 263.132Z" fill="white"/>
<path d="M407.861 271.471C407.861 272.166 406.121 272.784 403.994 272.784H245.178C243.051 272.784 241.311 272.205 241.311 271.471C241.311 270.738 243.051 270.158 245.178 270.158H403.994C406.121 270.158 407.861 270.738 407.861 271.471Z" fill="white"/>
<path d="M593.32 314.945C593.32 315.447 591.58 315.91 589.453 315.91H495.796C493.669 315.91 491.929 315.486 491.929 314.945C491.929 314.404 493.669 313.98 495.796 313.98H589.453C591.58 314.018 593.32 314.443 593.32 314.945Z" fill="white"/>
<path d="M593.32 320.505C593.32 321.007 591.58 321.47 589.453 321.47H495.796C493.669 321.47 491.929 321.046 491.929 320.505C491.929 320.003 493.669 319.54 495.796 319.54H589.453C591.58 319.54 593.32 319.964 593.32 320.505Z" fill="white"/>
<path d="M593.32 326.566C593.32 327.068 591.58 327.532 589.453 327.532H495.796C493.669 327.532 491.929 327.107 491.929 326.566C491.929 326.064 493.669 325.601 495.796 325.601H589.453C591.58 325.64 593.32 326.064 593.32 326.566Z" fill="white"/>
<path d="M593.049 341.431C593.049 341.933 591.309 342.396 589.182 342.396H495.525C493.398 342.396 491.658 341.971 491.658 341.431C491.658 340.89 493.398 340.466 495.525 340.466H589.182C591.309 340.504 593.049 340.929 593.049 341.431Z" fill="white"/>
<path d="M593.049 346.991C593.049 347.493 591.309 347.956 589.182 347.956H495.525C493.398 347.956 491.658 347.531 491.658 346.991C491.658 346.489 493.398 346.026 495.525 346.026H589.182C591.309 346.026 593.049 346.45 593.049 346.991Z" fill="white"/>
<path d="M593.049 353.052C593.049 353.554 591.309 354.017 589.182 354.017H495.525C493.398 354.017 491.658 353.593 491.658 353.052C491.658 352.55 493.398 352.087 495.525 352.087H589.182C591.309 352.126 593.049 352.55 593.049 353.052Z" fill="white"/>
<path d="M145.836 355.717C145.836 355.948 144.096 356.141 141.969 356.141H110.879C108.752 356.141 107.012 355.948 107.012 355.717C107.012 355.485 108.752 355.292 110.879 355.292H141.969C144.096 355.292 145.836 355.485 145.836 355.717Z" fill="white"/>
<path d="M145.836 357.763C145.836 357.995 144.096 358.188 141.969 358.188H110.879C108.752 358.188 107.012 357.995 107.012 357.763C107.012 357.531 108.752 357.338 110.879 357.338H141.969C144.096 357.338 145.836 357.531 145.836 357.763Z" fill="white"/>
<path d="M145.836 360.08C145.836 360.311 144.096 360.504 141.969 360.504H110.879C108.752 360.504 107.012 360.311 107.012 360.08C107.012 359.848 108.752 359.655 110.879 359.655H141.969C144.096 359.655 145.836 359.848 145.836 360.08Z" fill="white"/>
<path d="M145.836 367.338C145.836 367.57 144.096 367.763 141.969 367.763H110.879C108.752 367.763 107.012 367.57 107.012 367.338C107.012 367.106 108.752 366.913 110.879 366.913H141.969C144.096 366.913 145.836 367.106 145.836 367.338Z" fill="white"/>
<path d="M145.836 369.268C145.836 369.5 144.096 369.693 141.969 369.693H110.879C108.752 369.693 107.012 369.5 107.012 369.268C107.012 369.037 108.752 368.844 110.879 368.844H141.969C144.096 368.844 145.836 369.037 145.836 369.268Z" fill="white"/>
<path d="M145.836 371.469C145.836 371.701 144.096 371.894 141.969 371.894H110.879C108.752 371.894 107.012 371.701 107.012 371.469C107.012 371.238 108.752 371.044 110.879 371.044H141.969C144.096 371.044 145.836 371.238 145.836 371.469Z" fill="white"/>
<path d="M594.403 300.197C594.403 302.32 592.663 304.057 590.536 304.057H440.769C438.642 304.057 436.902 302.32 436.902 300.197V273.17C436.902 271.047 438.642 269.309 440.769 269.309H590.536C592.663 269.309 594.403 271.047 594.403 273.17V300.197Z" fill="white"/>
<path d="M146.068 307.146C146.068 309.27 144.328 311.007 142.201 311.007H110.569C108.443 311.007 106.702 309.27 106.702 307.146V300.274C106.702 298.15 108.443 296.413 110.569 296.413H142.201C144.328 296.413 146.068 298.15 146.068 300.274V307.146Z" fill="white"/>
<path d="M202.564 281.664C220.162 281.664 234.428 267.42 234.428 249.85C234.428 232.28 220.162 218.036 202.564 218.036C184.967 218.036 170.701 232.28 170.701 249.85C170.701 267.42 184.967 281.664 202.564 281.664Z" fill="white"/>
<path d="M463.893 359.269C477.967 359.269 489.377 347.877 489.377 333.825C489.377 319.773 477.967 308.382 463.893 308.382C449.819 308.382 438.41 319.773 438.41 333.825C438.41 347.877 449.819 359.269 463.893 359.269Z" fill="white"/>
<path d="M125.999 350.311C136.015 350.311 144.135 342.204 144.135 332.203C144.135 322.203 136.015 314.096 125.999 314.096C115.982 314.096 107.863 322.203 107.863 332.203C107.863 342.204 115.982 350.311 125.999 350.311Z" fill="white"/>
<path d="M202.294 255.101C211.242 255.101 218.496 247.858 218.496 238.923C218.496 229.989 211.242 222.746 202.294 222.746C193.345 222.746 186.091 229.989 186.091 238.923C186.091 247.858 193.345 255.101 202.294 255.101Z" fill="url(#paint25_linear)"/>
<path d="M226.965 261.78C226.965 263.054 225.225 264.135 223.098 264.135H182.649C180.523 264.135 178.782 263.093 178.782 261.78C178.782 260.467 180.523 259.425 182.649 259.425H223.098C225.225 259.463 226.965 260.506 226.965 261.78Z" fill="url(#paint26_linear)"/>
<path d="M223.794 266.915C223.794 267.687 222.054 268.305 219.927 268.305H185.821C183.694 268.305 181.954 267.687 181.954 266.915C181.954 266.143 183.694 265.525 185.821 265.525H219.927C222.054 265.525 223.794 266.143 223.794 266.915Z" fill="url(#paint27_linear)"/>
<path d="M479.245 349.578C479.245 350.157 477.505 350.62 475.378 350.62H451.944C449.818 350.62 448.077 350.157 448.077 349.578C448.077 348.999 449.818 348.535 451.944 348.535H475.378C477.505 348.535 479.245 349.037 479.245 349.578Z" fill="url(#paint28_linear)"/>
<path d="M136.092 342.86C136.092 343.246 134.351 343.554 132.225 343.554H119.657C117.53 343.554 115.79 343.246 115.79 342.86C115.79 342.473 117.53 342.165 119.657 342.165H132.225C134.351 342.165 136.092 342.473 136.092 342.86Z" fill="url(#paint29_linear)"/>
<path d="M463.816 340.311C470.927 340.311 476.693 334.555 476.693 327.455C476.693 320.354 470.927 314.598 463.816 314.598C456.704 314.598 450.939 320.354 450.939 327.455C450.939 334.555 456.704 340.311 463.816 340.311Z" fill="url(#paint30_linear)"/>
<path d="M483.383 345.601C483.383 346.605 481.642 347.454 479.516 347.454H449.044C446.917 347.454 445.177 346.605 445.177 345.601C445.177 344.597 446.917 343.748 449.044 343.748H479.516C481.642 343.748 483.383 344.597 483.383 345.601Z" fill="url(#paint31_linear)"/>
<path d="M126.037 336.335C130.843 336.335 134.738 332.445 134.738 327.648C134.738 322.85 130.843 318.96 126.037 318.96C121.232 318.96 117.337 322.85 117.337 327.648C117.337 332.445 121.232 336.335 126.037 336.335Z" fill="url(#paint32_linear)"/>
<path d="M139.301 339.925C139.301 340.62 137.561 341.199 135.434 341.199H117.259C115.132 341.199 113.392 340.62 113.392 339.925C113.392 339.23 115.132 338.651 117.259 338.651H135.434C137.561 338.69 139.301 339.23 139.301 339.925Z" fill="url(#paint33_linear)"/>
<path d="M195.681 180.006C195.681 182.129 193.941 183.867 191.814 183.867H178.28C176.153 183.867 174.413 182.129 174.413 180.006V166.493C174.413 164.369 176.153 162.632 178.28 162.632H191.814C193.941 162.632 195.681 164.369 195.681 166.493V180.006Z" fill="url(#paint34_linear)"/>
<path d="M195.526 203.596C195.526 205.72 193.786 207.457 191.659 207.457H178.125C175.998 207.457 174.258 205.72 174.258 203.596V190.083C174.258 187.959 175.998 186.222 178.125 186.222H191.659C193.786 186.222 195.526 187.959 195.526 190.083V203.596Z" fill="#E6E7E8"/>
<path d="M219.308 180.199C219.308 182.322 217.568 184.06 215.441 184.06H201.907C199.78 184.06 198.04 182.322 198.04 180.199V166.685C198.04 164.562 199.78 162.824 201.907 162.824H215.441C217.568 162.824 219.308 164.562 219.308 166.685V180.199Z" fill="#E6E7E8"/>
<path d="M239.61 203.326C239.61 205.449 237.87 207.186 235.743 207.186H225.147C223.021 207.186 221.281 205.449 221.281 203.326V166.685C221.281 164.562 223.021 162.824 225.147 162.824H235.743C237.87 162.824 239.61 164.562 239.61 166.685V203.326Z" fill="#E6E7E8"/>
<path d="M244.521 203.326C244.521 205.449 243.863 207.186 243.09 207.186C242.317 207.186 241.659 205.449 241.659 203.326V173.442C241.659 171.318 242.317 169.581 243.09 169.581C243.863 169.581 244.521 171.318 244.521 173.442V203.326Z" fill="#E6E7E8"/>
<path d="M249.084 203.326C249.084 205.449 248.426 207.186 247.653 207.186C246.88 207.186 246.222 205.449 246.222 203.326V170.508C246.222 168.384 246.88 166.647 247.653 166.647C248.426 166.647 249.084 168.384 249.084 170.508V203.326Z" fill="#D1D3D4"/>
<path d="M253.647 203.557C253.647 205.681 252.989 207.418 252.216 207.418C251.443 207.418 250.785 205.681 250.785 203.557V177.342C250.785 175.218 251.443 173.481 252.216 173.481C252.989 173.481 253.647 175.218 253.647 177.342V203.557Z" fill="#E6E7E8"/>
<path d="M258.21 203.75C258.21 205.874 257.553 207.611 256.779 207.611C256.006 207.611 255.348 205.874 255.348 203.75V175.913C255.348 173.79 256.006 172.052 256.779 172.052C257.553 172.052 258.21 173.79 258.21 175.913V203.75Z" fill="#E6E7E8"/>
<path d="M263.005 203.982C263.005 206.105 262.347 207.843 261.574 207.843C260.801 207.843 260.143 206.105 260.143 203.982V173.944C260.143 171.82 260.801 170.083 261.574 170.083C262.347 170.083 263.005 171.82 263.005 173.944V203.982Z" fill="#D1D3D4"/>
<path d="M267.568 203.982C267.568 206.105 266.91 207.843 266.137 207.843C265.364 207.843 264.706 206.105 264.706 203.982V183.133C264.706 181.009 265.364 179.272 266.137 179.272C266.91 179.272 267.568 181.009 267.568 183.133V203.982Z" fill="#E6E7E8"/>
<path d="M298.117 203.982C298.117 206.105 297.46 207.843 296.686 207.843C295.913 207.843 295.255 206.105 295.255 203.982V183.133C295.255 181.009 295.913 179.272 296.686 179.272C297.46 179.272 298.117 181.009 298.117 183.133V203.982Z" fill="#E6E7E8"/>
<path d="M272.208 203.982C272.208 206.106 271.551 207.843 270.777 207.843C270.004 207.843 269.346 206.106 269.346 203.982V179.002C269.346 176.879 270.004 175.141 270.777 175.141C271.551 175.141 272.208 176.879 272.208 179.002V203.982Z" fill="#E6E7E8"/>
<path d="M277.429 203.982C277.429 206.106 276.771 207.843 275.998 207.843C275.225 207.843 274.567 206.106 274.567 203.982V171.743C274.567 169.62 275.225 167.883 275.998 167.883C276.771 167.883 277.429 169.62 277.429 171.743V203.982Z" fill="#D1D3D4"/>
<path d="M292.703 204.561C292.703 206.685 292.046 208.422 291.272 208.422C290.499 208.422 289.842 206.685 289.842 204.561V172.323C289.842 170.199 290.499 168.462 291.272 168.462C292.046 168.462 292.703 170.199 292.703 172.323V204.561Z" fill="#D1D3D4"/>
<path d="M282.494 204.175C282.494 206.299 281.837 208.036 281.064 208.036C280.29 208.036 279.633 206.299 279.633 204.175V177.38C279.633 175.257 280.29 173.519 281.064 173.519C281.837 173.519 282.494 175.257 282.494 177.38V204.175Z" fill="#E6E7E8"/>
<path d="M287.367 204.175C287.367 206.299 286.709 208.036 285.936 208.036C285.163 208.036 284.505 206.299 284.505 204.175V177.38C284.505 175.257 285.163 173.519 285.936 173.519C286.709 173.519 287.367 175.257 287.367 177.38V204.175Z" fill="#E6E7E8"/>
<path d="M406.275 203.905C406.275 206.028 404.535 207.766 402.408 207.766H383.422C381.295 207.766 379.555 206.028 379.555 203.905V167.265C379.555 165.141 381.295 163.404 383.422 163.404H402.408C404.535 163.404 406.275 165.141 406.275 167.265V203.905Z" fill="#E6E7E8"/>
<path d="M374.683 168.616C374.683 170.74 372.942 172.477 370.816 172.477H306.585C304.459 172.477 302.719 170.74 302.719 168.616V167.497C302.719 165.373 304.459 163.636 306.585 163.636H370.816C372.942 163.636 374.683 165.373 374.683 167.497V168.616Z" fill="url(#paint35_linear)"/>
<path d="M374.914 179.079C374.914 181.203 373.174 182.94 371.047 182.94H306.817C304.691 182.94 302.95 181.203 302.95 179.079V177.96C302.95 175.836 304.691 174.099 306.817 174.099H371.047C373.174 174.099 374.914 175.836 374.914 177.96V179.079Z" fill="#D1D3D4"/>
<path d="M374.683 203.325C374.683 205.449 372.942 207.186 370.816 207.186H306.585C304.459 207.186 302.719 205.449 302.719 203.325V188.345C302.719 186.222 304.459 184.484 306.585 184.484H370.816C372.942 184.484 374.683 186.222 374.683 188.345V203.325Z" fill="url(#paint36_linear)"/>
<path d="M219.115 203.789C219.115 205.912 217.375 207.65 215.248 207.65H201.714C199.587 207.65 197.847 205.912 197.847 203.789V190.276C197.847 188.152 199.587 186.415 201.714 186.415H215.248C217.375 186.415 219.115 188.152 219.115 190.276V203.789Z" fill="url(#paint37_linear)"/>
<path d="M184.738 175.875C188.027 175.875 190.693 173.213 190.693 169.929C190.693 166.645 188.027 163.983 184.738 163.983C181.449 163.983 178.782 166.645 178.782 169.929C178.782 173.213 181.449 175.875 184.738 175.875Z" fill="white"/>
<path d="M208.597 176.145C211.886 176.145 214.552 173.483 214.552 170.199C214.552 166.915 211.886 164.253 208.597 164.253C205.308 164.253 202.642 166.915 202.642 170.199C202.642 173.483 205.308 176.145 208.597 176.145Z" fill="white"/>
<path d="M184.544 199.503C187.833 199.503 190.499 196.841 190.499 193.558C190.499 190.274 187.833 187.612 184.544 187.612C181.255 187.612 178.589 190.274 178.589 193.558C178.589 196.841 181.255 199.503 184.544 199.503Z" fill="white"/>
<path d="M208.713 199.581C212.002 199.581 214.668 196.919 214.668 193.635C214.668 190.351 212.002 187.689 208.713 187.689C205.424 187.689 202.758 190.351 202.758 193.635C202.758 196.919 205.424 199.581 208.713 199.581Z" fill="white"/>
<path d="M204.227 178.732C202.1 178.732 200.36 178.423 200.36 177.998C200.36 177.612 202.1 177.264 204.227 177.264H213.546C215.673 177.264 217.413 177.573 217.413 177.998C217.413 178.384 215.673 178.732 213.546 178.732H204.227Z" fill="white"/>
<path d="M310.143 167.38C308.016 167.38 306.276 167.072 306.276 166.647C306.276 166.261 308.016 165.913 310.143 165.913H367.412C369.539 165.913 371.279 166.222 371.279 166.647C371.279 167.033 369.539 167.38 367.412 167.38H310.143Z" fill="white"/>
<path d="M309.988 170.122C307.861 170.122 306.121 169.813 306.121 169.388C306.121 169.002 307.861 168.655 309.988 168.655H367.258C369.385 168.655 371.125 168.963 371.125 169.388C371.125 169.774 369.385 170.122 367.258 170.122H309.988Z" fill="white"/>
<path d="M309.911 188.732C307.784 188.732 306.044 188.423 306.044 187.998C306.044 187.612 307.784 187.264 309.911 187.264H367.181C369.308 187.264 371.048 187.573 371.048 187.998C371.048 188.384 369.308 188.732 367.181 188.732H309.911Z" fill="white"/>
<path d="M309.911 192.399C307.784 192.399 306.044 192.09 306.044 191.666C306.044 191.28 307.784 190.932 309.911 190.932H367.181C369.308 190.932 371.048 191.241 371.048 191.666C371.048 192.052 369.308 192.399 367.181 192.399H309.911Z" fill="white"/>
<path d="M309.795 196.067C307.668 196.067 305.928 195.758 305.928 195.333C305.928 194.947 307.668 194.6 309.795 194.6H367.065C369.191 194.6 370.931 194.909 370.931 195.333C370.931 195.72 369.191 196.067 367.065 196.067H309.795Z" fill="white"/>
<path d="M309.795 199.735C307.668 199.735 305.928 199.426 305.928 199.002C305.928 198.616 307.668 198.268 309.795 198.268H367.065C369.191 198.268 370.931 198.577 370.931 199.002C370.931 199.388 369.191 199.735 367.065 199.735H309.795Z" fill="white"/>
<path d="M309.795 203.48C307.668 203.48 305.928 203.171 305.928 202.747C305.928 202.36 307.668 202.013 309.795 202.013H367.065C369.191 202.013 370.931 202.322 370.931 202.747C370.931 203.133 369.191 203.48 367.065 203.48H309.795Z" fill="white"/>
<path d="M180.522 178.925C178.396 178.925 176.656 178.616 176.656 178.191C176.656 177.805 178.396 177.458 180.522 177.458H189.842C191.969 177.458 193.709 177.766 193.709 178.191C193.709 178.577 191.969 178.925 189.842 178.925H180.522Z" fill="white"/>
<path d="M180.291 202.476C178.164 202.476 176.424 202.167 176.424 201.743C176.424 201.357 178.164 201.009 180.291 201.009H189.61C191.737 201.009 193.477 201.318 193.477 201.743C193.477 202.129 191.737 202.476 189.61 202.476H180.291Z" fill="white"/>
<path d="M204.227 202.476C202.1 202.476 200.36 202.167 200.36 201.743C200.36 201.357 202.1 201.009 204.227 201.009H213.546C215.673 201.009 217.413 201.318 217.413 201.743C217.413 202.129 215.673 202.476 213.546 202.476H204.227Z" fill="white"/>
<path d="M204.15 205.179C202.023 205.179 200.283 204.87 200.283 204.445C200.283 204.059 202.023 203.712 204.15 203.712H213.469C215.596 203.712 217.336 204.021 217.336 204.445C217.336 204.832 215.596 205.179 213.469 205.179H204.15Z" fill="white"/>
<path d="M204.227 181.318C202.1 181.318 200.36 181.01 200.36 180.585C200.36 180.199 202.1 179.851 204.227 179.851H213.546C215.673 179.851 217.413 180.16 217.413 180.585C217.413 180.971 215.673 181.318 213.546 181.318H204.227Z" fill="white"/>
<path d="M180.639 181.473C178.512 181.473 176.772 181.164 176.772 180.739C176.772 180.315 178.512 180.006 180.639 180.006H189.958C192.085 180.006 193.825 180.315 193.825 180.739C193.825 181.164 192.085 181.473 189.958 181.473H180.639Z" fill="white"/>
<path d="M180.213 205.218C178.087 205.218 176.346 204.909 176.346 204.484C176.346 204.098 178.087 203.751 180.213 203.751H189.533C191.66 203.751 193.4 204.06 193.4 204.484C193.4 204.87 191.66 205.218 189.533 205.218H180.213Z" fill="white"/>
<path d="M454.883 281.857C454.883 283.98 453.143 285.718 451.016 285.718H444.906C442.779 285.718 441.039 283.98 441.039 281.857V275.756C441.039 273.633 442.779 271.896 444.906 271.896H451.016C453.143 271.896 454.883 273.633 454.883 275.756V281.857Z" fill="url(#paint38_linear)"/>
<path d="M454.767 297.223C454.767 299.347 453.027 301.084 450.9 301.084H444.791C442.664 301.084 440.924 299.347 440.924 297.223V291.123C440.924 288.999 442.664 287.262 444.791 287.262H450.9C453.027 287.262 454.767 288.999 454.767 291.123V297.223Z" fill="#E6E7E8"/>
<path d="M470.274 281.973C470.274 284.096 468.533 285.834 466.407 285.834H460.297C458.17 285.834 456.43 284.096 456.43 281.973V275.872C456.43 273.749 458.17 272.011 460.297 272.011H466.407C468.533 272.011 470.274 273.749 470.274 275.872V281.973Z" fill="#E6E7E8"/>
<path d="M483.499 297.03C483.499 299.154 481.759 300.891 479.632 300.891H475.417C473.29 300.891 471.55 299.154 471.55 297.03V275.872C471.55 273.749 473.29 272.011 475.417 272.011H479.632C481.759 272.011 483.499 273.749 483.499 275.872V297.03Z" fill="#E6E7E8"/>
<path d="M486.708 297.03C486.708 299.154 486.283 300.891 485.78 300.891C485.277 300.891 484.852 299.154 484.852 297.03V280.235C484.852 278.112 485.277 276.375 485.78 276.375C486.283 276.375 486.708 278.112 486.708 280.235V297.03Z" fill="#E6E7E8"/>
<path d="M489.686 297.03C489.686 299.154 489.26 300.891 488.758 300.891C488.255 300.891 487.83 299.154 487.83 297.03V278.344C487.83 276.22 488.255 274.483 488.758 274.483C489.26 274.483 489.686 276.22 489.686 278.344V297.03Z" fill="#D1D3D4"/>
<path d="M492.663 297.185C492.663 299.308 492.238 301.046 491.735 301.046C491.232 301.046 490.807 299.308 490.807 297.185V282.784C490.807 280.66 491.232 278.923 491.735 278.923C492.238 278.923 492.663 280.66 492.663 282.784V297.185Z" fill="#E6E7E8"/>
<path d="M495.602 297.339C495.602 299.463 495.177 301.2 494.674 301.2C494.171 301.2 493.746 299.463 493.746 297.339V281.896C493.746 279.772 494.171 278.035 494.674 278.035C495.177 278.035 495.602 279.772 495.602 281.896V297.339Z" fill="#E6E7E8"/>
<path d="M498.735 297.455C498.735 299.578 498.309 301.316 497.807 301.316C497.304 301.316 496.878 299.578 496.878 297.455V280.583C496.878 278.459 497.304 276.722 497.807 276.722C498.309 276.722 498.735 278.459 498.735 280.583V297.455Z" fill="#D1D3D4"/>
<path d="M501.712 297.455C501.712 299.579 501.287 301.316 500.784 301.316C500.281 301.316 499.856 299.579 499.856 297.455V286.567C499.856 284.444 500.281 282.706 500.784 282.706C501.287 282.706 501.712 284.444 501.712 286.567V297.455Z" fill="#E6E7E8"/>
<path d="M521.588 297.455C521.588 299.579 521.163 301.316 520.66 301.316C520.157 301.316 519.732 299.579 519.732 297.455V286.567C519.732 284.444 520.157 282.706 520.66 282.706C521.163 282.706 521.588 284.444 521.588 286.567V297.455Z" fill="#E6E7E8"/>
<path d="M504.728 297.455C504.728 299.579 504.303 301.316 503.8 301.316C503.297 301.316 502.872 299.579 502.872 297.455V283.865C502.872 281.741 503.297 280.004 503.8 280.004C504.303 280.004 504.728 281.741 504.728 283.865V297.455Z" fill="#E6E7E8"/>
<path d="M508.131 297.455C508.131 299.578 507.706 301.316 507.203 301.316C506.7 301.316 506.275 299.578 506.275 297.455V279.154C506.275 277.031 506.7 275.293 507.203 275.293C507.706 275.293 508.131 277.031 508.131 279.154V297.455Z" fill="#D1D3D4"/>
<path d="M518.069 297.841C518.069 299.964 517.644 301.702 517.141 301.702C516.638 301.702 516.213 299.964 516.213 297.841V279.54C516.213 277.417 516.638 275.679 517.141 275.679C517.644 275.679 518.069 277.417 518.069 279.54V297.841Z" fill="#D1D3D4"/>
<path d="M511.457 297.61C511.457 299.733 511.031 301.471 510.529 301.471C510.026 301.471 509.601 299.733 509.601 297.61V282.861C509.601 280.737 510.026 279 510.529 279C511.031 279 511.457 280.737 511.457 282.861V297.61Z" fill="#E6E7E8"/>
<path d="M514.628 297.61C514.628 299.733 514.202 301.471 513.7 301.471C513.197 301.471 512.771 299.733 512.771 297.61V282.861C512.771 280.737 513.197 279 513.7 279C514.202 279 514.628 280.737 514.628 282.861V297.61Z" fill="#E6E7E8"/>
<path d="M592.083 297.416C592.083 299.54 590.343 301.277 588.216 301.277H578.548C576.422 301.277 574.681 299.54 574.681 297.416V276.258C574.681 274.135 576.422 272.397 578.548 272.397H588.216C590.343 272.397 592.083 274.135 592.083 276.258V297.416Z" fill="#E6E7E8"/>
<path d="M571.511 275.409C571.511 276.992 569.77 278.305 567.644 278.305H528.471C526.344 278.305 524.604 276.992 524.604 275.409C524.604 273.826 526.344 272.513 528.471 272.513H567.644C569.77 272.513 571.511 273.826 571.511 275.409Z" fill="url(#paint39_linear)"/>
<path d="M571.666 282.205C571.666 283.788 569.925 285.1 567.799 285.1H528.626C526.499 285.1 524.759 283.788 524.759 282.205C524.759 280.622 526.499 279.309 528.626 279.309H567.799C569.925 279.309 571.666 280.622 571.666 282.205Z" fill="#D1D3D4"/>
<path d="M571.511 297.03C571.511 299.154 569.77 300.891 567.644 300.891H528.471C526.344 300.891 524.604 299.154 524.604 297.03V289.965C524.604 287.841 526.344 286.104 528.471 286.104H567.644C569.77 286.104 571.511 287.841 571.511 289.965V297.03Z" fill="url(#paint40_linear)"/>
<path d="M470.158 297.339C470.158 299.463 468.418 301.2 466.291 301.2H460.181C458.054 301.2 456.314 299.463 456.314 297.339V291.239C456.314 289.115 458.054 287.378 460.181 287.378H466.291C468.418 287.378 470.158 289.115 470.158 291.239V297.339Z" fill="url(#paint41_linear)"/>
<path d="M447.729 280.467C449.865 280.467 451.596 278.739 451.596 276.606C451.596 274.474 449.865 272.745 447.729 272.745C445.594 272.745 443.862 274.474 443.862 276.606C443.862 278.739 445.594 280.467 447.729 280.467Z" fill="white"/>
<path d="M463.313 280.66C465.449 280.66 467.18 278.931 467.18 276.799C467.18 274.667 465.449 272.938 463.313 272.938C461.178 272.938 459.446 274.667 459.446 276.799C459.446 278.931 461.178 280.66 463.313 280.66Z" fill="white"/>
<path d="M447.613 295.872C449.749 295.872 451.48 294.144 451.48 292.011C451.48 289.879 449.749 288.15 447.613 288.15C445.478 288.15 443.746 289.879 443.746 292.011C443.746 294.144 445.478 295.872 447.613 295.872Z" fill="white"/>
<path d="M463.352 295.949C465.487 295.949 467.219 294.221 467.219 292.088C467.219 289.956 465.487 288.227 463.352 288.227C461.216 288.227 459.485 289.956 459.485 292.088C459.485 294.221 461.216 295.949 463.352 295.949Z" fill="white"/>
<path d="M461.805 282.359C459.678 282.359 457.938 282.166 457.938 281.896C457.938 281.625 459.678 281.432 461.805 281.432H465.208C467.335 281.432 469.075 281.625 469.075 281.896C469.075 282.166 467.335 282.359 465.208 282.359H461.805Z" fill="white"/>
<path d="M530.792 274.946C528.665 274.946 526.925 274.753 526.925 274.483C526.925 274.212 528.665 274.019 530.792 274.019H565.401C567.528 274.019 569.268 274.212 569.268 274.483C569.268 274.753 567.528 274.946 565.401 274.946H530.792Z" fill="white"/>
<path d="M530.714 276.722C528.587 276.722 526.847 276.529 526.847 276.258C526.847 275.988 528.587 275.795 530.714 275.795H565.323C567.45 275.795 569.19 275.988 569.19 276.258C569.19 276.529 567.45 276.722 565.323 276.722H530.714Z" fill="white"/>
<path d="M530.637 288.884C528.51 288.884 526.77 288.691 526.77 288.421C526.77 288.15 528.51 287.957 530.637 287.957H565.246C567.373 287.957 569.113 288.15 569.113 288.421C569.113 288.691 567.373 288.884 565.246 288.884H530.637Z" fill="white"/>
<path d="M530.637 291.239C528.51 291.239 526.77 291.046 526.77 290.776C526.77 290.505 528.51 290.312 530.637 290.312H565.246C567.373 290.312 569.113 290.505 569.113 290.776C569.113 291.046 567.373 291.239 565.246 291.239H530.637Z" fill="white"/>
<path d="M530.559 293.633C528.433 293.633 526.692 293.44 526.692 293.169C526.692 292.899 528.433 292.706 530.559 292.706H565.169C567.295 292.706 569.036 292.899 569.036 293.169C569.036 293.44 567.295 293.633 565.169 293.633H530.559Z" fill="white"/>
<path d="M530.559 296.026C528.433 296.026 526.692 295.833 526.692 295.563C526.692 295.293 528.433 295.1 530.559 295.1H565.169C567.295 295.1 569.036 295.293 569.036 295.563C569.036 295.833 567.295 296.026 565.169 296.026H530.559Z" fill="white"/>
<path d="M530.559 298.497C528.433 298.497 526.692 298.304 526.692 298.034C526.692 297.764 528.433 297.571 530.559 297.571H565.169C567.295 297.571 569.036 297.764 569.036 298.034C569.036 298.304 567.295 298.497 565.169 298.497H530.559Z" fill="white"/>
<path d="M446.337 282.474C444.211 282.474 442.47 282.281 442.47 282.011C442.47 281.741 444.211 281.548 446.337 281.548H449.74C451.867 281.548 453.607 281.741 453.607 282.011C453.607 282.281 451.867 282.474 449.74 282.474H446.337Z" fill="white"/>
<path d="M446.182 297.841C444.056 297.841 442.315 297.648 442.315 297.378C442.315 297.107 444.056 296.914 446.182 296.914H449.585C451.712 296.914 453.452 297.107 453.452 297.378C453.452 297.648 451.712 297.841 449.585 297.841H446.182Z" fill="white"/>
<path d="M461.805 297.841C459.678 297.841 457.938 297.648 457.938 297.378C457.938 297.107 459.678 296.914 461.805 296.914H465.208C467.335 296.914 469.075 297.107 469.075 297.378C469.075 297.648 467.335 297.841 465.208 297.841H461.805Z" fill="white"/>
<path d="M461.766 299.579C459.64 299.579 457.899 299.386 457.899 299.115C457.899 298.845 459.64 298.652 461.766 298.652H465.169C467.296 298.652 469.036 298.845 469.036 299.115C469.036 299.386 467.296 299.579 465.169 299.579H461.766Z" fill="white"/>
<path d="M461.805 284.058C459.678 284.058 457.938 283.865 457.938 283.594C457.938 283.324 459.678 283.131 461.805 283.131H465.208C467.335 283.131 469.075 283.324 469.075 283.594C469.075 283.865 467.335 284.058 465.208 284.058H461.805Z" fill="white"/>
<path d="M446.415 284.135C444.288 284.135 442.548 283.942 442.548 283.672C442.548 283.401 444.288 283.208 446.415 283.208H449.818C451.944 283.208 453.684 283.401 453.684 283.672C453.684 283.942 451.944 284.135 449.818 284.135H446.415Z" fill="white"/>
<path d="M446.144 299.617C444.017 299.617 442.277 299.424 442.277 299.154C442.277 298.884 444.017 298.691 446.144 298.691H449.547C451.674 298.691 453.414 298.884 453.414 299.154C453.414 299.424 451.674 299.617 449.547 299.617H446.144Z" fill="white"/>
<path d="M111.111 303.324C112.819 303.324 114.204 301.941 114.204 300.235C114.204 298.529 112.819 297.146 111.111 297.146C109.402 297.146 108.017 298.529 108.017 300.235C108.017 301.941 109.402 303.324 111.111 303.324Z" fill="url(#paint42_linear)"/>
<path d="M111.072 310.235C112.781 310.235 114.166 308.852 114.166 307.146C114.166 305.44 112.781 304.057 111.072 304.057C109.364 304.057 107.979 305.44 107.979 307.146C107.979 308.852 109.364 310.235 111.072 310.235Z" fill="#E6E7E8"/>
<path d="M118.033 303.401C119.741 303.401 121.126 302.018 121.126 300.312C121.126 298.606 119.741 297.223 118.033 297.223C116.324 297.223 114.939 298.606 114.939 300.312C114.939 302.018 116.324 303.401 118.033 303.401Z" fill="#E6E7E8"/>
<path d="M127.043 306.297C127.043 308.42 125.844 310.157 124.375 310.157C122.905 310.157 121.706 308.42 121.706 306.297V301.084C121.706 298.961 122.905 297.223 124.375 297.223C125.844 297.223 127.043 298.961 127.043 301.084V306.297Z" fill="#E6E7E8"/>
<path d="M128.474 306.297C128.474 308.42 128.28 310.158 128.048 310.158C127.816 310.158 127.623 308.42 127.623 306.297V303.054C127.623 300.93 127.816 299.193 128.048 299.193C128.28 299.193 128.474 300.93 128.474 303.054V306.297Z" fill="#E6E7E8"/>
<path d="M129.827 306.297C129.827 308.42 129.633 310.158 129.401 310.158C129.169 310.158 128.976 308.42 128.976 306.297V302.166C128.976 300.042 129.169 298.305 129.401 298.305C129.633 298.305 129.827 300.042 129.827 302.166V306.297Z" fill="#D1D3D4"/>
<path d="M131.141 306.335C131.141 308.459 130.948 310.196 130.716 310.196C130.484 310.196 130.291 308.459 130.291 306.335V304.135C130.291 302.011 130.484 300.274 130.716 300.274C130.948 300.274 131.141 302.011 131.141 304.135V306.335Z" fill="#E6E7E8"/>
<path d="M132.456 306.412C132.456 308.536 132.263 310.273 132.031 310.273C131.799 310.273 131.606 308.536 131.606 306.412V303.748C131.606 301.625 131.799 299.887 132.031 299.887C132.263 299.887 132.456 301.625 132.456 303.748V306.412Z" fill="#E6E7E8"/>
<path d="M133.849 306.49C133.849 308.613 133.655 310.351 133.423 310.351C133.191 310.351 132.998 308.613 132.998 306.49V303.17C132.998 301.046 133.191 299.309 133.423 299.309C133.655 299.309 133.849 301.046 133.849 303.17V306.49Z" fill="#D1D3D4"/>
<path d="M135.202 306.49C135.202 308.613 135.009 310.351 134.777 310.351C134.545 310.351 134.351 308.613 134.351 306.49V305.872C134.351 303.748 134.545 302.011 134.777 302.011C135.009 302.011 135.202 303.748 135.202 305.872V306.49Z" fill="#E6E7E8"/>
<path d="M144.096 306.49C144.096 308.613 143.903 310.351 143.671 310.351C143.439 310.351 143.245 308.613 143.245 306.49V305.872C143.245 303.748 143.439 302.011 143.671 302.011C143.903 302.011 144.096 303.748 144.096 305.872V306.49Z" fill="#E6E7E8"/>
<path d="M136.555 306.49C136.555 308.613 136.362 310.351 136.13 310.351C135.898 310.351 135.705 308.613 135.705 306.49V304.675C135.705 302.552 135.898 300.814 136.13 300.814C136.362 300.814 136.555 302.552 136.555 304.675V306.49Z" fill="#E6E7E8"/>
<path d="M138.064 306.49C138.064 308.613 137.87 310.351 137.638 310.351C137.406 310.351 137.213 308.613 137.213 306.49V302.552C137.213 300.428 137.406 298.691 137.638 298.691C137.87 298.691 138.064 300.428 138.064 302.552V306.49Z" fill="#D1D3D4"/>
<path d="M142.549 306.644C142.549 308.767 142.356 310.505 142.124 310.505C141.892 310.505 141.698 308.767 141.698 306.644V302.706C141.698 300.582 141.892 298.845 142.124 298.845C142.356 298.845 142.549 300.582 142.549 302.706V306.644Z" fill="#D1D3D4"/>
<path d="M139.571 306.528C139.571 308.652 139.378 310.389 139.146 310.389C138.914 310.389 138.721 308.652 138.721 306.528V304.173C138.721 302.049 138.914 300.312 139.146 300.312C139.378 300.312 139.571 302.049 139.571 304.173V306.528Z" fill="#E6E7E8"/>
<path d="M141.002 306.528C141.002 308.652 140.809 310.389 140.577 310.389C140.345 310.389 140.152 308.652 140.152 306.528V304.173C140.152 302.049 140.345 300.312 140.577 300.312C140.809 300.312 141.002 302.049 141.002 304.173V306.528Z" fill="#E6E7E8"/>
<path d="M117.955 310.273C119.664 310.273 121.049 308.891 121.049 307.185C121.049 305.479 119.664 304.096 117.955 304.096C116.247 304.096 114.862 305.479 114.862 307.185C114.862 308.891 116.247 310.273 117.955 310.273Z" fill="url(#paint43_linear)"/>
<path d="M111.033 301.007C111.994 301.007 112.773 300.229 112.773 299.27C112.773 298.31 111.994 297.532 111.033 297.532C110.072 297.532 109.293 298.31 109.293 299.27C109.293 300.229 110.072 301.007 111.033 301.007Z" fill="white"/>
<path d="M117.994 301.084C118.955 301.084 119.734 300.306 119.734 299.347C119.734 298.387 118.955 297.609 117.994 297.609C117.033 297.609 116.254 298.387 116.254 299.347C116.254 300.306 117.033 301.084 117.994 301.084Z" fill="white"/>
<path d="M110.956 307.918C111.917 307.918 112.696 307.14 112.696 306.181C112.696 305.221 111.917 304.443 110.956 304.443C109.995 304.443 109.216 305.221 109.216 306.181C109.216 307.14 109.995 307.918 110.956 307.918Z" fill="white"/>
<path d="M118.033 307.918C118.994 307.918 119.773 307.14 119.773 306.181C119.773 305.221 118.994 304.443 118.033 304.443C117.072 304.443 116.292 305.221 116.292 306.181C116.292 307.14 117.072 307.918 118.033 307.918Z" fill="white"/>
<path d="M118.071 301.818C119.438 301.818 120.546 301.731 120.546 301.625C120.546 301.518 119.438 301.432 118.071 301.432C116.704 301.432 115.596 301.518 115.596 301.625C115.596 301.731 116.704 301.818 118.071 301.818Z" fill="white"/>
<path d="M111.149 301.895C112.516 301.895 113.624 301.809 113.624 301.702C113.624 301.595 112.516 301.509 111.149 301.509C109.783 301.509 108.675 301.595 108.675 301.702C108.675 301.809 109.783 301.895 111.149 301.895Z" fill="white"/>
<path d="M111.111 308.768C112.478 308.768 113.586 308.681 113.586 308.575C113.586 308.468 112.478 308.382 111.111 308.382C109.744 308.382 108.636 308.468 108.636 308.575C108.636 308.681 109.744 308.768 111.111 308.768Z" fill="white"/>
<path d="M118.071 308.768C119.438 308.768 120.546 308.681 120.546 308.575C120.546 308.468 119.438 308.382 118.071 308.382C116.704 308.382 115.596 308.468 115.596 308.575C115.596 308.681 116.704 308.768 118.071 308.768Z" fill="white"/>
<path d="M118.071 309.54C119.438 309.54 120.546 309.453 120.546 309.347C120.546 309.24 119.438 309.154 118.071 309.154C116.704 309.154 115.596 309.24 115.596 309.347C115.596 309.453 116.704 309.54 118.071 309.54Z" fill="white"/>
<path d="M118.071 302.59C119.438 302.59 120.546 302.504 120.546 302.397C120.546 302.291 119.438 302.204 118.071 302.204C116.704 302.204 115.596 302.291 115.596 302.397C115.596 302.504 116.704 302.59 118.071 302.59Z" fill="white"/>
<path d="M111.188 302.628C112.555 302.628 113.663 302.542 113.663 302.435C113.663 302.329 112.555 302.242 111.188 302.242C109.821 302.242 108.713 302.329 108.713 302.435C108.713 302.542 109.821 302.628 111.188 302.628Z" fill="white"/>
<path d="M111.072 309.54C112.439 309.54 113.547 309.453 113.547 309.347C113.547 309.24 112.439 309.154 111.072 309.154C109.705 309.154 108.597 309.24 108.597 309.347C108.597 309.453 109.705 309.54 111.072 309.54Z" fill="white"/>
<path d="M571.859 224.214C571.588 223.171 570.776 222.36 569.771 222.09C567.953 221.588 560.606 221.588 560.606 221.588C560.606 221.588 553.259 221.588 551.441 222.09C550.436 222.36 549.624 223.171 549.353 224.214C548.851 226.067 548.851 229.966 548.851 229.966C548.851 229.966 548.851 233.866 549.353 235.719C549.624 236.762 550.436 237.572 551.441 237.843C553.259 238.345 560.606 238.345 560.606 238.345C560.606 238.345 567.953 238.345 569.771 237.843C570.776 237.572 571.588 236.762 571.859 235.719C572.362 233.866 572.362 229.966 572.362 229.966C572.362 229.966 572.362 226.067 571.859 224.214Z" fill="white"/>
<path d="M558.208 233.48V226.414L564.357 229.966L558.208 233.48Z" fill="url(#paint44_linear)"/>
<path d="M442.78 165.219C444.791 166.531 447.227 167.265 449.818 167.265C458.325 167.265 463.12 160.084 462.849 153.674C463.739 153.018 464.512 152.207 465.131 151.319C464.319 151.667 463.429 151.937 462.501 152.053C463.429 151.474 464.164 150.586 464.512 149.505C463.623 150.045 462.656 150.393 461.612 150.624C460.761 149.736 459.601 149.196 458.286 149.196C455.347 149.196 453.143 151.937 453.839 154.794C450.05 154.601 446.647 152.786 444.404 150.007C443.205 152.053 443.785 154.756 445.835 156.107C445.1 156.068 444.365 155.875 443.747 155.528C443.708 157.651 445.216 159.62 447.42 160.084C446.763 160.277 446.067 160.315 445.371 160.161C445.951 161.975 447.652 163.288 449.663 163.327C447.613 164.833 445.177 165.528 442.78 165.219Z" fill="white"/>
<path d="M80.7939 323.671H87.1357V307.841H91.544L92.0081 302.551H87.1357C87.1357 302.551 87.1357 300.582 87.1357 299.54C87.1357 298.304 87.4064 297.802 88.6052 297.802C89.5719 297.802 92.0467 297.802 92.0467 297.802V292.281C92.0467 292.281 88.4505 292.281 87.6771 292.281C82.9594 292.281 80.8326 294.366 80.8326 298.304C80.8326 301.741 80.8326 302.513 80.8326 302.513H77.5457V307.879H80.8326V323.671H80.7939Z" fill="white"/>
<path d="M112.813 137.188C116.177 137.188 116.564 137.188 117.917 137.265C119.154 137.304 119.812 137.536 120.276 137.69C120.856 137.922 121.281 138.192 121.707 138.617C122.132 139.041 122.403 139.466 122.635 140.084C122.789 140.509 123.021 141.203 123.06 142.439C123.137 143.752 123.137 144.176 123.137 147.535C123.137 150.894 123.137 151.28 123.06 152.632C123.021 153.867 122.789 154.524 122.635 154.987C122.403 155.566 122.132 155.991 121.707 156.454C121.281 156.879 120.856 157.149 120.276 157.381C119.85 157.535 119.154 157.767 117.917 157.805C116.602 157.883 116.177 157.883 112.813 157.883C109.448 157.883 109.062 157.883 107.708 157.805C106.471 157.767 105.813 157.535 105.349 157.381C104.769 157.149 104.344 156.879 103.88 156.454C103.455 156.029 103.184 155.605 102.952 154.987C102.797 154.562 102.565 153.867 102.526 152.632C102.449 151.319 102.449 150.894 102.449 147.535C102.449 144.176 102.449 143.79 102.526 142.439C102.565 141.203 102.797 140.547 102.952 140.084C103.184 139.505 103.455 139.08 103.88 138.617C104.305 138.192 104.731 137.922 105.349 137.69C105.775 137.536 106.471 137.304 107.708 137.265C109.062 137.188 109.448 137.188 112.813 137.188ZM112.813 134.91C109.371 134.91 108.946 134.91 107.631 134.987C106.277 135.065 105.388 135.258 104.576 135.567C103.764 135.875 103.029 136.3 102.333 137.034C101.637 137.729 101.212 138.424 100.864 139.273C100.554 140.084 100.322 140.972 100.284 142.323C100.206 143.674 100.206 144.099 100.206 147.497C100.206 150.933 100.206 151.358 100.284 152.67C100.361 154.022 100.554 154.91 100.864 155.721C101.173 156.531 101.598 157.265 102.333 157.96C103.029 158.655 103.725 159.08 104.576 159.427C105.388 159.736 106.277 159.968 107.631 160.006C108.984 160.083 109.41 160.083 112.813 160.083C116.254 160.083 116.68 160.083 117.994 160.006C119.348 159.929 120.237 159.736 121.049 159.427C121.861 159.118 122.596 158.693 123.292 157.96C123.988 157.265 124.413 156.57 124.761 155.721C125.071 154.91 125.303 154.022 125.342 152.67C125.419 151.319 125.419 150.894 125.419 147.497C125.419 144.061 125.419 143.636 125.342 142.323C125.264 140.972 125.071 140.084 124.761 139.273C124.452 138.462 124.027 137.729 123.292 137.034C122.596 136.339 121.9 135.914 121.049 135.567C120.237 135.258 119.348 135.026 117.994 134.987C116.68 134.949 116.254 134.91 112.813 134.91Z" fill="white"/>
<path d="M112.813 141.049C109.216 141.049 106.355 143.945 106.355 147.497C106.355 151.049 109.255 153.945 112.813 153.945C116.409 153.945 119.27 151.049 119.27 147.497C119.27 143.945 116.409 141.049 112.813 141.049ZM112.813 151.705C110.492 151.705 108.598 149.813 108.598 147.497C108.598 145.18 110.492 143.288 112.813 143.288C115.133 143.288 117.028 145.18 117.028 147.497C117.028 149.852 115.133 151.705 112.813 151.705Z" fill="white"/>
<path d="M121.088 140.779C121.088 141.628 120.392 142.284 119.58 142.284C118.729 142.284 118.072 141.59 118.072 140.779C118.072 139.929 118.768 139.273 119.58 139.273C120.392 139.273 121.088 139.968 121.088 140.779Z" fill="white"/>
<path d="M279.324 97.3434H275.379V110.046H279.324V97.3434Z" fill="white"/>
<path d="M277.351 95.6831C278.628 95.6831 279.672 94.6407 279.672 93.3279C279.672 92.0152 278.628 90.9728 277.351 90.9728C276.075 90.9728 275.031 92.0152 275.031 93.3279C275.031 94.6407 276.037 95.6831 277.351 95.6831Z" fill="white"/>
<path d="M285.627 103.366C285.627 101.59 286.439 100.509 288.024 100.509C289.455 100.509 290.19 101.513 290.19 103.366C290.19 105.181 290.19 110.046 290.19 110.046H294.095C294.095 110.046 294.095 105.413 294.095 101.977C294.095 98.5789 292.162 96.9187 289.455 96.9187C286.748 96.9187 285.627 99.0036 285.627 99.0036V97.3048H281.837V110.007H285.627C285.627 110.046 285.627 105.336 285.627 103.366Z" fill="white"/>
<path d="M632.222 324.945H620.505V328.304H628.394C627.466 332.396 624.565 334.867 620.698 334.867C615.633 334.867 611.495 330.775 611.495 325.678C611.495 320.582 615.594 316.489 620.698 316.489C623.096 316.489 625.3 317.416 626.963 318.922L629.554 316.682C627.272 314.443 624.14 313.053 620.698 313.053C613.738 313.053 608.092 318.69 608.092 325.64C608.092 332.589 613.738 338.226 620.698 338.226C627.388 338.226 632.222 333.13 632.222 326.18V324.945Z" fill="white"/>
<path d="M84.6609 345.176C84.6609 345.176 83.9261 344.751 82.6887 343.979" stroke="#9357A3" stroke-width="2" stroke-miterlimit="10"/>
<path d="M78.8219 341.392C66.8344 332.937 41.6992 311.393 54.5761 287.108C71.204 255.757 120.392 282.011 122.983 250.39C125.573 218.769 119.541 167.651 74.9937 175.295C30.4463 182.94 127.12 242.707 135.589 175.373C144.057 108.038 204.769 67.7687 227.12 92.3628C249.471 116.957 301.984 139.196 329.71 116.455C357.436 93.7141 324.064 59.8539 306.276 69.7764C288.527 79.6604 330.213 137.883 393.979 136.339C457.745 134.794 494.79 110.2 538.41 177.071C582.029 243.943 442.587 231.047 458.789 197.187C474.992 163.327 529.902 117.227 569.809 164.33C607.744 209.079 637.558 269.348 626.422 297.455" stroke="#9357A3" stroke-width="2" stroke-miterlimit="10" stroke-dasharray="12.03 12.03"/>
<path d="M625.494 299.579C625.145 300.274 624.759 300.93 624.372 301.586" stroke="#9357A3" stroke-width="2" stroke-miterlimit="10"/>
<path opacity="0.3" d="M408.441 157.11C410.336 156.106 410.104 155.296 407.977 155.296L168.651 155.025C166.525 155.025 164.784 156.763 164.784 158.886V282.513C164.784 284.637 166.331 285.563 168.187 284.559L408.441 157.11Z" fill="white"/>
<path opacity="0.3" d="M594.596 269C596.414 267.919 596.182 267.031 594.055 267.031L437.714 266.838C435.587 266.838 433.847 268.576 433.847 270.699V359.191C433.847 361.315 435.355 362.164 437.173 361.083L594.596 269Z" fill="white"/>
<path opacity="0.3" d="M147.344 294.907C148.311 293.015 147.344 291.471 145.218 291.432L108.675 291.278C106.548 291.278 104.808 293.015 104.808 295.139V374.944C104.808 377.067 105.581 377.26 106.548 375.369L147.344 294.907Z" fill="white"/>
</g>
<defs>
<filter id="filter0_d" x="-4" y="-25" width="700" height="550" filterUnits="userSpaceOnUse" color-interpolation-filters="sRGB">
<feFlood flood-opacity="0" result="BackgroundImageFix"/>
<feColorMatrix in="SourceAlpha" type="matrix" values="0 0 0 0 0 0 0 0 0 0 0 0 0 0 0 0 0 0 127 0" result="hardAlpha"/>
<feOffset dy="25"/>
<feGaussianBlur stdDeviation="25"/>
<feColorMatrix type="matrix" values="0 0 0 0 0 0 0 0 0 0 0 0 0 0 0 0 0 0 0.25 0"/>
<feBlend mode="normal" in2="BackgroundImageFix" result="effect1_dropShadow"/>
<feBlend mode="normal" in="SourceGraphic" in2="effect1_dropShadow" result="shape"/>
</filter>
<linearGradient id="paint0_linear" x1="90.399" y1="149.015" x2="135.467" y2="149.015" gradientUnits="userSpaceOnUse">
<stop stop-color="#7DD3F7"/>
<stop offset="1" stop-color="#43B5E8"/>
</linearGradient>
<linearGradient id="paint1_linear" x1="265.277" y1="102.186" x2="304.73" y2="102.186" gradientUnits="userSpaceOnUse">
<stop stop-color="#7DD3F7"/>
<stop offset="1" stop-color="#43B5E8"/>
</linearGradient>
<linearGradient id="paint2_linear" x1="431.046" y1="158.316" x2="476.788" y2="158.316" gradientUnits="userSpaceOnUse">
<stop stop-color="#7DD3F7"/>
<stop offset="1" stop-color="#43B5E8"/>
</linearGradient>
<linearGradient id="paint3_linear" x1="538.616" y1="230.083" x2="581.655" y2="230.083" gradientUnits="userSpaceOnUse">
<stop stop-color="#7DD3F7"/>
<stop offset="1" stop-color="#43B5E8"/>
</linearGradient>
<linearGradient id="paint4_linear" x1="599.33" y1="325.89" x2="640.985" y2="325.89" gradientUnits="userSpaceOnUse">
<stop stop-color="#7DD3F7"/>
<stop offset="1" stop-color="#43B5E8"/>
</linearGradient>
<linearGradient id="paint5_linear" x1="63.3271" y1="307.684" x2="107.926" y2="307.684" gradientUnits="userSpaceOnUse">
<stop stop-color="#7DD3F7"/>
<stop offset="1" stop-color="#43B5E8"/>
</linearGradient>
<linearGradient id="paint6_linear" x1="96.8368" y1="223.414" x2="108.146" y2="223.414" gradientUnits="userSpaceOnUse">
<stop stop-color="#7DD3F7"/>
<stop offset="1" stop-color="#43B5E8"/>
</linearGradient>
<linearGradient id="paint7_linear" x1="350.294" y1="103.858" x2="358.942" y2="103.858" gradientUnits="userSpaceOnUse">
<stop stop-color="#7DD3F7"/>
<stop offset="1" stop-color="#43B5E8"/>
</linearGradient>
<linearGradient id="paint8_linear" x1="218.576" y1="136.403" x2="228.554" y2="136.403" gradientUnits="userSpaceOnUse">
<stop stop-color="#71459B"/>
<stop offset="0.8668" stop-color="#A76DAE"/>
</linearGradient>
<linearGradient id="paint9_linear" x1="588.45" y1="166.293" x2="601.09" y2="166.293" gradientUnits="userSpaceOnUse">
<stop stop-color="#7DD3F7"/>
<stop offset="1" stop-color="#43B5E8"/>
</linearGradient>
<linearGradient id="paint10_linear" x1="614.394" y1="277.879" x2="620.382" y2="277.879" gradientUnits="userSpaceOnUse">
<stop stop-color="#71459B"/>
<stop offset="0.8668" stop-color="#A76DAE"/>
</linearGradient>
<linearGradient id="paint11_linear" x1="158.039" y1="340.314" x2="164.026" y2="340.314" gradientUnits="userSpaceOnUse">
<stop stop-color="#71459B"/>
<stop offset="0.8668" stop-color="#A76DAE"/>
</linearGradient>
<linearGradient id="paint12_linear" x1="2046.15" y1="-390.484" x2="2057.68" y2="-394.358" gradientUnits="userSpaceOnUse">
<stop stop-color="#456AB3"/>
<stop offset="1" stop-color="#3560AC"/>
</linearGradient>
<linearGradient id="paint13_linear" x1="2042.4" y1="-375.258" x2="2053.93" y2="-379.132" gradientUnits="userSpaceOnUse">
<stop stop-color="#456AB3"/>
<stop offset="1" stop-color="#3560AC"/>
</linearGradient>
<linearGradient id="paint14_linear" x1="2038.62" y1="-360.037" x2="2050.15" y2="-363.91" gradientUnits="userSpaceOnUse">
<stop stop-color="#456AB3"/>
<stop offset="1" stop-color="#3560AC"/>
</linearGradient>
<linearGradient id="paint15_linear" x1="2035.07" y1="-344.569" x2="2046.61" y2="-348.442" gradientUnits="userSpaceOnUse">
<stop stop-color="#456AB3"/>
<stop offset="1" stop-color="#3560AC"/>
</linearGradient>
<linearGradient id="paint16_linear" x1="2031.07" y1="-329.582" x2="2042.6" y2="-333.456" gradientUnits="userSpaceOnUse">
<stop stop-color="#456AB3"/>
<stop offset="1" stop-color="#3560AC"/>
</linearGradient>
<linearGradient id="paint17_linear" x1="266.53" y1="342.134" x2="311.924" y2="342.134" gradientUnits="userSpaceOnUse">
<stop stop-color="white"/>
<stop offset="1" stop-color="#A5A6A6"/>
</linearGradient>
<linearGradient id="paint18_linear" x1="289.03" y1="350.834" x2="289.264" y2="381.215" gradientUnits="userSpaceOnUse">
<stop stop-color="white"/>
<stop offset="1" stop-color="#494A4B"/>
</linearGradient>
<linearGradient id="paint19_linear" x1="288.261" y1="300.164" x2="289.099" y2="323.31" gradientUnits="userSpaceOnUse">
<stop stop-color="white"/>
<stop offset="1" stop-color="#979899"/>
</linearGradient>
<linearGradient id="paint20_linear" x1="288.225" y1="238.666" x2="289.254" y2="308.822" gradientUnits="userSpaceOnUse">
<stop stop-color="white"/>
<stop offset="1" stop-color="#ABABAB"/>
</linearGradient>
<linearGradient id="paint21_linear" x1="285.613" y1="288.201" x2="293.318" y2="150.383" gradientUnits="userSpaceOnUse">
<stop stop-color="#7DD3F7"/>
<stop offset="1" stop-color="#43B5E8"/>
</linearGradient>
<linearGradient id="paint22_linear" x1="123.887" y1="289.919" x2="123.863" y2="284.438" gradientUnits="userSpaceOnUse">
<stop stop-color="white"/>
<stop offset="1" stop-color="#43B5E8"/>
</linearGradient>
<linearGradient id="paint23_linear" x1="117.173" y1="377.27" x2="135.805" y2="290.187" gradientUnits="userSpaceOnUse">
<stop stop-color="#7DD3F7"/>
<stop offset="1" stop-color="#43B5E8"/>
</linearGradient>
<linearGradient id="paint24_linear" x1="513.016" y1="363.539" x2="519.152" y2="263.62" gradientUnits="userSpaceOnUse">
<stop stop-color="#7DD3F7"/>
<stop offset="1" stop-color="#43B5E8"/>
</linearGradient>
<linearGradient id="paint25_linear" x1="186.086" y1="238.919" x2="218.522" y2="238.919" gradientUnits="userSpaceOnUse">
<stop stop-color="#71459B"/>
<stop offset="0.8668" stop-color="#A76DAE"/>
</linearGradient>
<linearGradient id="paint26_linear" x1="178.794" y1="261.795" x2="226.976" y2="261.795" gradientUnits="userSpaceOnUse">
<stop stop-color="#71459B"/>
<stop offset="0.8668" stop-color="#A76DAE"/>
</linearGradient>
<linearGradient id="paint27_linear" x1="181.965" y1="266.923" x2="223.805" y2="266.923" gradientUnits="userSpaceOnUse">
<stop stop-color="#71459B"/>
<stop offset="0.8668" stop-color="#A76DAE"/>
</linearGradient>
<linearGradient id="paint28_linear" x1="448.097" y1="349.594" x2="479.246" y2="349.594" gradientUnits="userSpaceOnUse">
<stop stop-color="#71459B"/>
<stop offset="0.8668" stop-color="#A76DAE"/>
</linearGradient>
<linearGradient id="paint29_linear" x1="115.803" y1="342.852" x2="136.088" y2="342.852" gradientUnits="userSpaceOnUse">
<stop stop-color="#71459B"/>
<stop offset="0.8668" stop-color="#A76DAE"/>
</linearGradient>
<linearGradient id="paint30_linear" x1="450.967" y1="327.466" x2="476.684" y2="327.466" gradientUnits="userSpaceOnUse">
<stop stop-color="#71459B"/>
<stop offset="0.8668" stop-color="#A76DAE"/>
</linearGradient>
<linearGradient id="paint31_linear" x1="445.184" y1="345.605" x2="483.387" y2="345.605" gradientUnits="userSpaceOnUse">
<stop stop-color="#71459B"/>
<stop offset="0.8668" stop-color="#A76DAE"/>
</linearGradient>
<linearGradient id="paint32_linear" x1="117.316" y1="327.636" x2="134.746" y2="327.636" gradientUnits="userSpaceOnUse">
<stop stop-color="#71459B"/>
<stop offset="0.8668" stop-color="#A76DAE"/>
</linearGradient>
<linearGradient id="paint33_linear" x1="113.397" y1="339.929" x2="139.289" y2="339.929" gradientUnits="userSpaceOnUse">
<stop stop-color="#71459B"/>
<stop offset="0.8668" stop-color="#A76DAE"/>
</linearGradient>
<linearGradient id="paint34_linear" x1="174.445" y1="173.275" x2="195.699" y2="173.275" gradientUnits="userSpaceOnUse">
<stop stop-color="#7DD3F7"/>
<stop offset="1" stop-color="#43B5E8"/>
</linearGradient>
<linearGradient id="paint35_linear" x1="302.722" y1="168.066" x2="374.7" y2="168.066" gradientUnits="userSpaceOnUse">
<stop stop-color="#7DD3F7"/>
<stop offset="1" stop-color="#43B5E8"/>
</linearGradient>
<linearGradient id="paint36_linear" x1="302.722" y1="195.846" x2="374.7" y2="195.846" gradientUnits="userSpaceOnUse">
<stop stop-color="#7DD3F7"/>
<stop offset="1" stop-color="#43B5E8"/>
</linearGradient>
<linearGradient id="paint37_linear" x1="197.879" y1="197.035" x2="219.133" y2="197.035" gradientUnits="userSpaceOnUse">
<stop stop-color="#7DD3F7"/>
<stop offset="1" stop-color="#43B5E8"/>
</linearGradient>
<linearGradient id="paint38_linear" x1="441.039" y1="278.802" x2="454.887" y2="278.802" gradientUnits="userSpaceOnUse">
<stop stop-color="#7DD3F7"/>
<stop offset="1" stop-color="#43B5E8"/>
</linearGradient>
<linearGradient id="paint39_linear" x1="524.618" y1="275.408" x2="571.515" y2="275.408" gradientUnits="userSpaceOnUse">
<stop stop-color="#7DD3F7"/>
<stop offset="1" stop-color="#43B5E8"/>
</linearGradient>
<linearGradient id="paint40_linear" x1="524.618" y1="293.508" x2="571.515" y2="293.508" gradientUnits="userSpaceOnUse">
<stop stop-color="#7DD3F7"/>
<stop offset="1" stop-color="#43B5E8"/>
</linearGradient>
<linearGradient id="paint41_linear" x1="456.308" y1="294.283" x2="470.156" y2="294.283" gradientUnits="userSpaceOnUse">
<stop stop-color="#7DD3F7"/>
<stop offset="1" stop-color="#43B5E8"/>
</linearGradient>
<linearGradient id="paint42_linear" x1="108.024" y1="300.246" x2="114.227" y2="300.246" gradientUnits="userSpaceOnUse">
<stop stop-color="#7DD3F7"/>
<stop offset="1" stop-color="#43B5E8"/>
</linearGradient>
<linearGradient id="paint43_linear" x1="114.864" y1="307.181" x2="121.067" y2="307.181" gradientUnits="userSpaceOnUse">
<stop stop-color="#7DD3F7"/>
<stop offset="1" stop-color="#43B5E8"/>
</linearGradient>
<linearGradient id="paint44_linear" x1="558.211" y1="229.96" x2="564.355" y2="229.96" gradientUnits="userSpaceOnUse">
<stop stop-color="#7DD3F7"/>
<stop offset="1" stop-color="#43B5E8"/>
</linearGradient>
</defs>
</svg>
