<svg width="640" height="431" viewBox="0 0 640 431" fill="none" xmlns="http://www.w3.org/2000/svg">
<g filter="url(#filter0_d)">
<path d="M82.5811 127.703C95.4202 127.703 105.828 117.286 105.828 104.437C105.828 91.5875 95.4202 81.1709 82.5811 81.1709C69.7421 81.1709 59.334 91.5875 59.334 104.437C59.334 117.286 69.7421 127.703 82.5811 127.703Z" fill="url(#paint0_linear)"/>
<path d="M260.025 76.3823C271.256 76.3823 280.361 67.2701 280.361 56.0295C280.361 44.789 271.256 35.6768 260.025 35.6768C248.793 35.6768 239.688 44.789 239.688 56.0295C239.688 67.2701 248.793 76.3823 260.025 76.3823Z" fill="url(#paint1_linear)"/>
<path d="M434.199 137.64C447.214 137.64 457.765 127.081 457.765 114.055C457.765 101.029 447.214 90.4697 434.199 90.4697C421.184 90.4697 410.633 101.029 410.633 114.055C410.633 127.081 421.184 137.64 434.199 137.64Z" fill="url(#paint2_linear)"/>
<path d="M543.735 210.472C556.002 210.472 565.946 200.52 565.946 188.243C565.946 175.967 556.002 166.015 543.735 166.015C531.469 166.015 521.525 175.967 521.525 188.243C521.525 200.52 531.469 210.472 543.735 210.472Z" fill="url(#paint3_linear)"/>
<path d="M605.622 308.763C617.492 308.763 627.114 299.133 627.114 287.253C627.114 275.374 617.492 265.743 605.622 265.743C593.751 265.743 584.129 275.374 584.129 287.253C584.129 299.133 593.751 308.763 605.622 308.763Z" fill="url(#paint4_linear)"/>
<path d="M54.4293 291.484C67.1362 291.484 77.4371 281.174 77.4371 268.457C77.4371 255.74 67.1362 245.431 54.4293 245.431C41.7224 245.431 31.4214 255.74 31.4214 268.457C31.4214 281.174 41.7224 291.484 54.4293 291.484Z" fill="url(#paint5_linear)"/>
<path d="M71.8144 187.165C75.0297 187.165 77.6362 184.556 77.6362 181.338C77.6362 178.12 75.0297 175.512 71.8144 175.512C68.5992 175.512 65.9927 178.12 65.9927 181.338C65.9927 184.556 68.5992 187.165 71.8144 187.165Z" fill="url(#paint6_linear)"/>
<path d="M331.8 62.2547C334.266 62.2547 336.266 60.2536 336.266 57.7851C336.266 55.3166 334.266 53.3154 331.8 53.3154C329.333 53.3154 327.334 55.3166 327.334 57.7851C327.334 60.2536 329.333 62.2547 331.8 62.2547Z" fill="url(#paint7_linear)"/>
<path d="M196.663 96.5754C199.504 96.5754 201.807 94.2706 201.807 91.4274C201.807 88.5842 199.504 86.2793 196.663 86.2793C193.823 86.2793 191.52 88.5842 191.52 91.4274C191.52 94.2706 193.823 96.5754 196.663 96.5754Z" fill="url(#paint8_linear)"/>
<path d="M579.423 128.82C583.013 128.82 585.923 125.908 585.923 122.315C585.923 118.723 583.013 115.811 579.423 115.811C575.834 115.811 572.924 118.723 572.924 122.315C572.924 125.908 575.834 128.82 579.423 128.82Z" fill="url(#paint9_linear)"/>
<path d="M602.75 240.721C604.446 240.721 605.82 239.345 605.82 237.648C605.82 235.951 604.446 234.575 602.75 234.575C601.054 234.575 599.68 235.951 599.68 237.648C599.68 239.345 601.054 240.721 602.75 240.721Z" fill="url(#paint10_linear)"/>
<path d="M132.186 305.251C133.881 305.251 135.256 303.875 135.256 302.178C135.256 300.481 133.881 299.105 132.186 299.105C130.49 299.105 129.115 300.481 129.115 302.178C129.115 303.875 130.49 305.251 132.186 305.251Z" fill="url(#paint11_linear)"/>
<path opacity="0.3" d="M382.281 114.574L370.319 118.605L370.877 120.281L382.84 116.25L382.281 114.574Z" fill="url(#paint12_linear)"/>
<path opacity="0.3" d="M386.628 127.544L374.666 131.575L375.224 133.251L387.186 129.22L386.628 127.544Z" fill="url(#paint13_linear)"/>
<path opacity="0.3" d="M391.014 140.514L379.052 144.544L379.61 146.22L391.572 142.19L391.014 140.514Z" fill="url(#paint14_linear)"/>
<path opacity="0.3" d="M395.361 153.484L383.398 157.515L383.956 159.191L395.919 155.16L395.361 153.484Z" fill="url(#paint15_linear)"/>
<path opacity="0.3" d="M399.707 166.454L387.744 170.485L388.302 172.161L400.265 168.13L399.707 166.454Z" fill="url(#paint16_linear)"/>
<path d="M287.778 337.257H240.964L245.949 331.032C249.737 326.323 251.771 320.456 251.771 314.391V270.852H276.932V314.391C276.932 320.417 279.005 326.283 282.753 331.032L287.778 337.257Z" fill="#E6E7E8"/>
<path d="M287.778 337.258H240.964V341.129H287.778V337.258Z" fill="url(#paint17_linear)"/>
<path d="M276.932 275.76V309.681L251.771 300.383V275.76H276.932Z" fill="url(#paint18_linear)"/>
<path d="M398.79 108.189V253.931H129.953V108.189C129.953 107.71 130.032 107.271 130.192 106.792C130.471 106.034 130.989 105.355 131.667 104.877C132.345 104.398 133.143 104.158 133.94 104.158H394.723C395.241 104.158 395.759 104.278 396.238 104.477C396.716 104.677 397.155 104.956 397.554 105.355C397.913 105.715 398.232 106.154 398.431 106.672C398.67 107.111 398.79 107.63 398.79 108.189Z" fill="#231F20"/>
<path d="M129.993 253.931H398.79V280.868C398.79 282.704 398.072 284.5 396.756 285.777C395.44 287.094 393.686 287.812 391.852 287.812H136.931C135.097 287.812 133.302 287.094 132.026 285.777C130.71 284.46 129.993 282.704 129.993 280.868V253.931Z" fill="#E6E7E8"/>
<path d="M392.649 112.459C392.649 111.342 391.772 110.464 390.655 110.464H138.366C137.25 110.464 136.373 111.342 136.373 112.459V246.309C136.373 247.426 137.25 248.304 138.366 248.304H390.655C391.772 248.304 392.649 247.426 392.649 246.309V112.459Z" fill="url(#paint19_linear)"/>
<path d="M271.07 272.448C271.947 268.736 269.635 265.025 265.926 264.147C262.218 263.269 258.509 265.584 257.632 269.295C256.755 273.006 259.068 276.718 262.776 277.596C266.484 278.474 270.193 276.159 271.07 272.448Z" fill="#231F20"/>
<path d="M105.19 251.616H82.5811V258.121H105.19V251.616Z" fill="url(#paint20_linear)"/>
<path d="M115.358 250.099H77.1979C76.5998 250.099 76.0017 250.219 75.4434 250.458C74.8852 250.698 74.3668 251.017 73.9681 251.456C73.5294 251.895 73.2104 252.374 72.9712 252.933C72.7319 253.491 72.6123 254.09 72.6123 254.689V339.212C72.6123 340.45 73.0908 341.607 73.9681 342.485C74.8453 343.363 76.0017 343.842 77.2378 343.842H115.398C115.996 343.842 116.594 343.722 117.153 343.483C117.711 343.243 118.229 342.924 118.628 342.485C119.067 342.046 119.386 341.567 119.625 341.008C119.864 340.45 119.984 339.851 119.984 339.252V254.689C119.984 254.09 119.864 253.491 119.625 252.933C119.386 252.374 119.067 251.855 118.628 251.456C118.189 251.017 117.711 250.698 117.153 250.458C116.555 250.179 115.956 250.059 115.358 250.099ZM89.8383 252.534C89.8383 252.454 89.8782 252.374 89.9579 252.294C89.9978 252.254 90.0377 252.254 90.0775 252.214C90.1174 252.214 90.1573 252.174 90.1972 252.174H100.644C100.684 252.174 100.724 252.174 100.764 252.214C100.804 252.214 100.844 252.254 100.884 252.294C100.924 252.334 100.924 252.374 100.963 252.414C100.963 252.454 101.003 252.494 101.003 252.534C101.003 252.613 100.963 252.693 100.884 252.773C100.804 252.853 100.724 252.853 100.644 252.853H90.1972C90.1573 252.853 90.1174 252.853 90.0775 252.813C90.0377 252.813 89.9978 252.773 89.9579 252.733C89.9181 252.693 89.918 252.653 89.8782 252.613C89.8383 252.613 89.8383 252.574 89.8383 252.534ZM102.04 252.534C102.04 252.454 102.04 252.414 102.08 252.334C102.12 252.294 102.16 252.214 102.239 252.214C102.319 252.214 102.359 252.174 102.439 252.174C102.519 252.174 102.558 252.214 102.598 252.254C102.638 252.294 102.678 252.374 102.678 252.414C102.678 252.494 102.678 252.534 102.678 252.613C102.678 252.693 102.598 252.733 102.558 252.773C102.519 252.813 102.439 252.813 102.359 252.813C102.279 252.813 102.2 252.773 102.12 252.733C102.08 252.733 102.04 252.613 102.04 252.534Z" fill="#231F20"/>
<path d="M107.303 251.497C105.788 253.692 103.196 255.009 100.365 255.009H92.1908C89.3597 255.009 86.7678 253.692 85.2526 251.497H76.6396C76.3206 251.497 76.0016 251.577 75.7224 251.696C75.4433 251.816 75.1642 251.976 74.9648 252.215C74.7256 252.455 74.5661 252.694 74.4464 253.013C74.3268 253.293 74.2471 253.612 74.2471 253.931V339.812C74.2471 340.131 74.3268 340.451 74.4464 340.73C74.5661 341.009 74.7256 341.289 74.9648 341.528C75.2041 341.767 75.4433 341.927 75.7224 342.047C76.0016 342.167 76.3206 342.246 76.6396 342.246H115.877C116.515 342.246 117.113 342.007 117.551 341.528C117.99 341.089 118.269 340.451 118.269 339.852V253.891C118.269 253.572 118.189 253.253 118.07 252.974C117.95 252.694 117.791 252.415 117.551 252.175C117.312 251.936 117.073 251.776 116.794 251.657C116.515 251.537 116.196 251.457 115.877 251.457H107.303V251.497Z" fill="url(#paint21_linear)"/>
<path d="M85.2524 251.496C85.2923 251.536 85.2923 251.576 85.3322 251.616C85.3721 251.696 85.4518 251.775 85.4917 251.815C85.5316 251.895 85.5714 251.935 85.6512 252.015C85.6911 252.095 85.7309 252.135 85.8107 252.175C85.8506 252.214 85.9303 252.294 85.9702 252.374C86.0101 252.414 86.0898 252.494 86.1297 252.534C86.1696 252.574 86.2493 252.653 86.2892 252.693C86.4088 252.813 86.5284 252.893 86.6481 253.013C86.7278 253.052 86.7677 253.132 86.8474 253.172L87.0468 253.332C87.1266 253.372 87.1664 253.412 87.2462 253.491C87.3259 253.531 87.3658 253.571 87.4456 253.611C87.5253 253.651 87.5652 253.691 87.6449 253.731C87.7646 253.811 87.9241 253.891 88.0836 253.97C88.1633 254.01 88.2431 254.05 88.3228 254.09C88.4026 254.13 88.4823 254.17 88.5621 254.21C88.6418 254.25 88.7216 254.29 88.8013 254.33C88.9608 254.409 89.1203 254.449 89.2798 254.529C89.3596 254.569 89.4393 254.569 89.5191 254.609C89.6387 254.649 89.7583 254.689 89.8381 254.729H89.8779C89.9976 254.769 90.1172 254.808 90.2368 254.808C90.3166 254.808 90.3963 254.848 90.4761 254.848C90.5558 254.848 90.6356 254.888 90.7153 254.888C90.7552 254.888 90.7951 254.888 90.7951 254.888C90.8349 254.888 90.8748 254.888 90.9147 254.928C90.9546 254.928 90.9944 254.928 91.0343 254.928C91.0343 254.928 91.0343 254.928 91.0742 254.928L91.2337 254.968C91.3134 254.968 91.3533 254.968 91.4331 254.968C91.5926 254.968 91.7122 255.008 91.8717 255.008C91.9913 255.008 92.1109 255.008 92.2306 255.008H100.405C100.525 255.008 100.604 255.008 100.724 255.008C100.844 255.008 101.003 255.008 101.123 254.968C101.202 254.968 101.322 254.968 101.402 254.928C101.442 254.928 101.482 254.928 101.521 254.928C101.601 254.928 101.641 254.928 101.721 254.888C101.84 254.888 101.92 254.848 102.04 254.848C102.159 254.848 102.239 254.808 102.359 254.769C102.478 254.729 102.558 254.729 102.678 254.689C102.797 254.649 102.877 254.649 102.997 254.609C103.116 254.569 103.236 254.529 103.316 254.489C103.396 254.449 103.475 254.409 103.555 254.409C103.635 254.369 103.715 254.369 103.754 254.33C103.954 254.25 104.153 254.17 104.353 254.05C104.432 254.01 104.512 253.97 104.592 253.93C104.672 253.891 104.751 253.851 104.791 253.811C104.871 253.771 104.911 253.731 104.991 253.691C105.07 253.651 105.11 253.611 105.19 253.571C105.27 253.531 105.31 253.491 105.389 253.452C105.469 253.412 105.509 253.372 105.589 253.292C105.708 253.212 105.788 253.132 105.868 253.052C105.948 252.973 106.067 252.893 106.147 252.813C106.187 252.773 106.267 252.733 106.306 252.653C106.386 252.574 106.426 252.534 106.506 252.454C106.586 252.374 106.625 252.334 106.705 252.254C106.745 252.214 106.785 252.175 106.825 252.095C106.865 252.015 106.944 251.975 106.984 251.895C107.104 251.775 107.184 251.616 107.263 251.496H85.2524ZM100.883 252.773C100.844 252.813 100.804 252.813 100.764 252.853C100.724 252.853 100.684 252.893 100.644 252.893H90.1969C90.1571 252.893 90.1172 252.893 90.0773 252.853C90.0374 252.853 89.9976 252.813 89.9577 252.773C89.9178 252.733 89.9178 252.693 89.8779 252.653C89.8779 252.613 89.8381 252.574 89.8381 252.534C89.8381 252.454 89.8779 252.374 89.9577 252.294C89.9976 252.254 90.0374 252.254 90.0773 252.214C90.1172 252.214 90.1571 252.175 90.1969 252.175H100.644C100.724 252.175 100.844 252.214 100.883 252.294C100.963 252.374 101.003 252.454 101.003 252.534C101.003 252.574 101.003 252.613 100.963 252.653C100.923 252.693 100.883 252.733 100.883 252.773ZM102.359 252.893C102.279 252.893 102.239 252.853 102.159 252.853C102.12 252.813 102.04 252.773 102.04 252.693C102 252.614 102 252.574 102.04 252.494C102.04 252.414 102.08 252.374 102.12 252.334C102.159 252.294 102.239 252.254 102.279 252.254C102.359 252.254 102.399 252.254 102.478 252.294C102.558 252.334 102.598 252.374 102.638 252.414C102.678 252.454 102.678 252.534 102.678 252.614C102.678 252.653 102.678 252.693 102.638 252.733C102.638 252.773 102.598 252.813 102.558 252.853C102.518 252.893 102.478 252.893 102.439 252.933C102.478 252.853 102.399 252.893 102.359 252.893Z" fill="#231F20"/>
<path d="M419.605 220.408H576.792C579.822 220.408 582.733 221.605 584.886 223.76C587.04 225.915 588.236 228.829 588.236 231.862V336.419H408.121V231.902C408.121 228.869 409.317 225.955 411.47 223.8C413.663 221.645 416.574 220.408 419.605 220.408Z" fill="#231F20"/>
<path d="M583.092 230.066C583.092 227.871 581.298 226.075 579.105 226.075H417.332C415.139 226.075 413.344 227.871 413.344 230.066V322.372C413.344 324.567 415.139 326.363 417.332 326.363H579.105C581.298 326.363 583.092 324.567 583.092 322.372V230.066Z" fill="url(#paint22_linear)"/>
<path opacity="0.9" d="M588.276 332.069H408.161V336.419H588.276V332.069Z" fill="white"/>
<path d="M403.694 344.281H592.742C594.815 344.281 596.809 343.443 598.284 341.966C599.76 340.489 600.597 338.494 600.597 336.419H395.839C395.839 338.494 396.676 340.489 398.152 341.966C399.587 343.443 401.581 344.281 403.694 344.281Z" fill="#E6E7E8"/>
<path d="M510.081 339.771H486.236C485.358 339.771 484.481 339.412 483.843 338.773C483.205 338.135 482.846 337.297 482.846 336.379H513.43C513.43 336.818 513.351 337.257 513.191 337.656C513.032 338.055 512.792 338.454 512.473 338.733C512.154 339.053 511.795 339.292 511.397 339.452C510.958 339.691 510.519 339.771 510.081 339.771Z" fill="#676767"/>
<path d="M420.721 225.277C420.721 225.277 413.145 224.359 412.547 230.824" stroke="#231F20" stroke-width="3" stroke-miterlimit="10"/>
<path d="M388.701 165.376C388.701 167.571 386.907 169.367 384.714 169.367H145.145C142.952 169.367 141.157 167.571 141.157 165.376V118.605C141.157 116.41 142.952 114.614 145.145 114.614H384.714C386.907 114.614 388.701 116.41 388.701 118.605V165.376Z" fill="white"/>
<path d="M387.186 180.302C387.186 180.94 386.667 181.499 385.99 181.499H216.601C215.923 181.499 215.404 180.94 215.404 180.302V180.022C215.404 179.384 215.923 178.825 216.601 178.825H385.99C386.667 178.825 387.186 179.384 387.186 180.022V180.302Z" fill="white"/>
<path d="M387.186 188.164C387.186 188.803 386.667 189.361 385.99 189.361H216.601C215.923 189.361 215.404 188.803 215.404 188.164V187.885C215.404 187.206 215.923 186.688 216.601 186.688H385.99C386.667 186.688 387.186 187.206 387.186 187.885V188.164Z" fill="white"/>
<path d="M387.186 196.744C387.186 197.383 386.667 197.941 385.99 197.941H216.601C215.923 197.941 215.404 197.383 215.404 196.744V196.465C215.404 195.826 215.923 195.268 216.601 195.268H385.99C386.667 195.268 387.186 195.826 387.186 196.465V196.744Z" fill="white"/>
<path d="M386.707 214.702C386.707 215.381 386.149 215.899 385.511 215.899H216.162C215.524 215.899 214.966 215.381 214.966 214.702V214.423C214.966 213.744 215.524 213.226 216.162 213.226H385.511C386.149 213.226 386.707 213.744 386.707 214.423V214.702Z" fill="white"/>
<path d="M386.707 222.523C386.707 223.202 386.149 223.721 385.511 223.721H216.162C215.524 223.721 214.966 223.202 214.966 222.523V222.244C214.966 221.566 215.524 221.047 216.162 221.047H385.511C386.149 221.047 386.707 221.566 386.707 222.244V222.523Z" fill="white"/>
<path d="M386.707 231.144C386.707 231.822 386.149 232.341 385.511 232.341H216.162C215.524 232.341 214.966 231.822 214.966 231.144V230.864C214.966 230.186 215.524 229.667 216.162 229.667H385.511C386.149 229.667 386.707 230.186 386.707 230.864V231.144Z" fill="white"/>
<path d="M577.948 276.159C577.948 276.598 577.589 276.957 577.15 276.957H474.193C473.754 276.957 473.396 276.598 473.396 276.159V275.8C473.396 275.361 473.754 275.002 474.193 275.002H577.15C577.589 275.002 577.948 275.361 577.948 275.8V276.159Z" fill="white"/>
<path d="M577.948 281.866C577.948 282.305 577.589 282.664 577.15 282.664H474.193C473.754 282.664 473.396 282.305 473.396 281.866V281.507C473.396 281.068 473.754 280.709 474.193 280.709H577.15C577.589 280.709 577.948 281.068 577.948 281.507V281.866Z" fill="white"/>
<path d="M577.948 288.172C577.948 288.611 577.589 288.97 577.15 288.97H474.193C473.754 288.97 473.396 288.611 473.396 288.172V287.813C473.396 287.374 473.754 287.015 474.193 287.015H577.15C577.589 287.015 577.948 287.374 577.948 287.813V288.172Z" fill="white"/>
<path d="M577.669 303.536C577.669 303.975 577.31 304.334 576.871 304.334H473.914C473.476 304.334 473.117 303.975 473.117 303.536V303.177C473.117 302.738 473.476 302.379 473.914 302.379H576.871C577.31 302.379 577.669 302.738 577.669 303.177V303.536Z" fill="white"/>
<path d="M577.669 309.243C577.669 309.682 577.31 310.041 576.871 310.041H473.914C473.476 310.041 473.117 309.682 473.117 309.243V308.884C473.117 308.445 473.476 308.086 473.914 308.086H576.871C577.31 308.086 577.669 308.445 577.669 308.884V309.243Z" fill="white"/>
<path d="M577.669 315.548C577.669 315.987 577.31 316.346 576.871 316.346H473.914C473.476 316.346 473.117 315.987 473.117 315.548V315.189C473.117 314.75 473.476 314.391 473.914 314.391H576.871C577.31 314.391 577.669 314.75 577.669 315.189V315.548Z" fill="white"/>
<path d="M116.515 318.142C116.515 318.341 116.316 318.541 116.116 318.541H76.8792C76.64 318.541 76.4805 318.341 76.4805 318.142V318.062C76.4805 317.863 76.64 317.663 76.8792 317.663H116.116C116.316 317.663 116.515 317.863 116.515 318.062V318.142Z" fill="white"/>
<path d="M116.515 320.257C116.515 320.457 116.316 320.656 116.116 320.656H76.8792C76.64 320.656 76.4805 320.457 76.4805 320.257V320.177C76.4805 319.978 76.64 319.778 76.8792 319.778H116.116C116.316 319.778 116.515 319.978 116.515 320.177V320.257Z" fill="white"/>
<path d="M116.515 322.652C116.515 322.851 116.316 323.051 116.116 323.051H76.8792C76.64 323.051 76.4805 322.851 76.4805 322.652V322.572C76.4805 322.372 76.64 322.173 76.8792 322.173H116.116C116.316 322.173 116.515 322.372 116.515 322.572V322.652Z" fill="white"/>
<path d="M116.515 330.154C116.515 330.393 116.316 330.553 116.116 330.553H76.8792C76.64 330.553 76.4805 330.393 76.4805 330.154V330.074C76.4805 329.874 76.64 329.675 76.8792 329.675H116.116C116.316 329.675 116.515 329.874 116.515 330.074V330.154Z" fill="white"/>
<path d="M116.515 332.149C116.515 332.348 116.316 332.548 116.116 332.548H76.8792C76.64 332.548 76.4805 332.348 76.4805 332.149V332.069C76.4805 331.869 76.64 331.67 76.8792 331.67H116.116C116.316 331.67 116.515 331.869 116.515 332.069V332.149Z" fill="white"/>
<path d="M116.515 334.424C116.515 334.624 116.316 334.823 116.116 334.823H76.8792C76.64 334.823 76.4805 334.624 76.4805 334.424V334.344C76.4805 334.145 76.64 333.945 76.8792 333.945H116.116C116.316 333.945 116.515 334.145 116.515 334.344V334.424Z" fill="white"/>
<path d="M579.065 260.715C579.065 262.91 577.27 264.706 575.077 264.706H420.641C418.448 264.706 416.654 262.91 416.654 260.715V232.78C416.654 230.585 418.448 228.789 420.641 228.789H575.077C577.27 228.789 579.065 230.585 579.065 232.78V260.715Z" fill="white"/>
<path d="M116.754 270.692C116.754 271.371 116.196 271.89 115.558 271.89H77.3574C76.6795 271.89 76.1611 271.371 76.1611 270.692V258.002C76.1611 257.323 76.6795 256.805 77.3574 256.805H115.558C116.196 256.805 116.754 257.323 116.754 258.002V270.692Z" fill="white"/>
<path d="M175.011 241.559C193.158 241.559 207.868 226.837 207.868 208.676C207.868 190.515 193.158 175.792 175.011 175.792C156.865 175.792 142.154 190.515 142.154 208.676C142.154 226.837 156.865 241.559 175.011 241.559Z" fill="white"/>
<path d="M444.487 321.774C458.999 321.774 470.764 309.999 470.764 295.475C470.764 280.95 458.999 269.176 444.487 269.176C429.974 269.176 418.209 280.95 418.209 295.475C418.209 309.999 429.974 321.774 444.487 321.774Z" fill="white"/>
<path d="M96.0588 312.515C106.387 312.515 114.76 304.135 114.76 293.799C114.76 283.462 106.387 275.082 96.0588 275.082C85.7303 275.082 77.3574 283.462 77.3574 293.799C77.3574 304.135 85.7303 312.515 96.0588 312.515Z" fill="white"/>
<path d="M174.732 214.104C183.959 214.104 191.44 206.617 191.44 197.382C191.44 188.147 183.959 180.661 174.732 180.661C165.505 180.661 158.024 188.147 158.024 197.382C158.024 206.617 165.505 214.104 174.732 214.104Z" fill="url(#paint23_linear)"/>
<path d="M200.173 221.008C200.173 222.325 198.737 223.442 196.983 223.442H153.678C151.924 223.442 150.488 222.364 150.488 221.008C150.488 219.651 151.924 218.573 153.678 218.573H196.983C198.737 218.613 200.173 219.691 200.173 221.008Z" fill="url(#paint24_linear)"/>
<path d="M196.903 226.316C196.903 227.114 196.185 227.752 195.308 227.752H155.353C154.476 227.752 153.758 227.114 153.758 226.316C153.758 225.517 154.476 224.879 155.353 224.879H195.308C196.185 224.879 196.903 225.517 196.903 226.316Z" fill="url(#paint25_linear)"/>
<path d="M460.317 311.757C460.317 312.356 459.799 312.835 459.121 312.835H429.374C428.696 312.835 428.178 312.356 428.178 311.757C428.178 311.159 428.696 310.68 429.374 310.68H459.121C459.799 310.68 460.317 311.198 460.317 311.757Z" fill="url(#paint26_linear)"/>
<path d="M106.466 304.813C106.466 305.212 106.107 305.531 105.669 305.531H86.3292C85.8906 305.531 85.5317 305.212 85.5317 304.813C85.5317 304.414 85.8906 304.095 86.3292 304.095H105.669C106.107 304.095 106.466 304.414 106.466 304.813Z" fill="url(#paint27_linear)"/>
<path d="M444.407 302.179C451.74 302.179 457.685 296.229 457.685 288.89C457.685 281.55 451.74 275.601 444.407 275.601C437.073 275.601 431.128 281.55 431.128 288.89C431.128 296.229 437.073 302.179 444.407 302.179Z" fill="url(#paint28_linear)"/>
<path d="M464.583 307.646C464.583 308.684 463.706 309.562 462.59 309.562H427.181C426.064 309.562 425.187 308.684 425.187 307.646C425.187 306.608 426.064 305.73 427.181 305.73H462.59C463.706 305.73 464.583 306.608 464.583 307.646Z" fill="url(#paint29_linear)"/>
<path d="M96.0988 298.069C101.054 298.069 105.071 294.049 105.071 289.09C105.071 284.13 101.054 280.11 96.0988 280.11C91.1438 280.11 87.127 284.13 87.127 289.09C87.127 294.049 91.1438 298.069 96.0988 298.069Z" fill="url(#paint30_linear)"/>
<path d="M109.776 301.9C109.776 302.578 109.218 303.097 108.58 303.097H84.2558C83.6178 303.097 83.0596 302.578 83.0596 301.9V301.7C83.0596 301.022 83.6178 300.503 84.2558 300.503H108.58C109.218 300.503 109.776 301.022 109.776 301.7V301.9Z" fill="url(#paint31_linear)"/>
<path d="M167.914 138.479C167.914 139.597 167.036 140.474 165.92 140.474H147.976C146.86 140.474 145.982 139.597 145.982 138.479V120.521C145.982 119.403 146.86 118.525 147.976 118.525H165.92C167.036 118.525 167.914 119.403 167.914 120.521V138.479Z" fill="url(#paint32_linear)"/>
<path d="M167.754 162.863C167.754 163.98 166.877 164.858 165.76 164.858H147.817C146.7 164.858 145.823 163.98 145.823 162.863V144.905C145.823 143.787 146.7 142.909 147.817 142.909H165.76C166.877 142.909 167.754 143.787 167.754 144.905V162.863Z" fill="#E6E7E8"/>
<path d="M192.277 138.678C192.277 139.796 191.4 140.674 190.284 140.674H172.34C171.223 140.674 170.346 139.796 170.346 138.678V120.72C170.346 119.603 171.223 118.725 172.34 118.725H190.284C191.4 118.725 192.277 119.603 192.277 120.72V138.678Z" fill="#E6E7E8"/>
<path d="M213.211 162.583C213.211 163.7 212.334 164.578 211.218 164.578H196.304C195.188 164.578 194.311 163.7 194.311 162.583V120.76C194.311 119.643 195.188 118.765 196.304 118.765H211.218C212.334 118.765 213.211 119.643 213.211 120.76V162.583Z" fill="#E6E7E8"/>
<path d="M218.275 163.382C218.275 164.02 217.717 164.579 217.079 164.579H216.521C215.843 164.579 215.325 164.02 215.325 163.382V126.906C215.325 126.268 215.843 125.709 216.521 125.709H217.079C217.717 125.709 218.275 126.268 218.275 126.906V163.382Z" fill="#E6E7E8"/>
<path d="M222.981 163.381C222.981 164.02 222.463 164.579 221.785 164.579H221.227C220.589 164.579 220.03 164.02 220.03 163.381V123.873C220.03 123.234 220.589 122.676 221.227 122.676H221.785C222.463 122.676 222.981 123.234 222.981 123.873V163.381Z" fill="#D1D3D4"/>
<path d="M227.686 163.621C227.686 164.259 227.168 164.818 226.49 164.818H225.932C225.254 164.818 224.735 164.259 224.735 163.621V130.936C224.735 130.298 225.254 129.739 225.932 129.739H226.49C227.168 129.739 227.686 130.298 227.686 130.936V163.621Z" fill="#E6E7E8"/>
<path d="M232.391 163.82C232.391 164.459 231.873 165.017 231.195 165.017H230.637C229.959 165.017 229.44 164.459 229.44 163.82V129.46C229.44 128.781 229.959 128.263 230.637 128.263H231.195C231.873 128.263 232.391 128.781 232.391 129.46V163.82Z" fill="#E6E7E8"/>
<path d="M237.336 164.06C237.336 164.698 236.818 165.257 236.14 165.257H235.582C234.904 165.257 234.385 164.698 234.385 164.06V127.425C234.385 126.786 234.904 126.228 235.582 126.228H236.14C236.818 126.228 237.336 126.786 237.336 127.425V164.06Z" fill="#D1D3D4"/>
<path d="M242.041 164.06C242.041 164.698 241.483 165.257 240.845 165.257H240.287C239.609 165.257 239.09 164.698 239.09 164.06V136.923C239.09 136.284 239.609 135.726 240.287 135.726H240.845C241.483 135.726 242.041 136.284 242.041 136.923V164.06Z" fill="#E6E7E8"/>
<path d="M273.543 164.06C273.543 164.698 273.024 165.257 272.346 165.257H271.788C271.15 165.257 270.592 164.698 270.592 164.06V136.923C270.592 136.284 271.15 135.726 271.788 135.726H272.346C273.024 135.726 273.543 136.284 273.543 136.923V164.06Z" fill="#E6E7E8"/>
<path d="M246.826 164.059C246.826 164.698 246.268 165.257 245.63 165.257H245.072C244.394 165.257 243.875 164.698 243.875 164.059V132.652C243.875 132.014 244.394 131.455 245.072 131.455H245.63C246.268 131.455 246.826 132.014 246.826 132.652V164.059Z" fill="#E6E7E8"/>
<path d="M252.209 164.06C252.209 164.699 251.691 165.257 251.013 165.257H250.415C249.777 165.257 249.219 164.699 249.219 164.06V125.15C249.219 124.512 249.777 123.953 250.415 123.953H250.973C251.651 123.953 252.169 124.512 252.169 125.15V164.06H252.209Z" fill="#D1D3D4"/>
<path d="M267.96 164.659C267.96 165.337 267.402 165.856 266.764 165.856H266.206C265.528 165.856 265.009 165.337 265.009 164.659V125.749C265.009 125.11 265.528 124.552 266.206 124.552H266.764C267.402 124.552 267.96 125.11 267.96 125.749V164.659Z" fill="#D1D3D4"/>
<path d="M257.433 164.259C257.433 164.898 256.875 165.457 256.237 165.457H255.679C255.001 165.457 254.482 164.898 254.482 164.259V130.977C254.482 130.338 255.001 129.779 255.679 129.779H256.237C256.875 129.779 257.433 130.338 257.433 130.977V164.259Z" fill="#E6E7E8"/>
<path d="M262.457 164.259C262.457 164.898 261.939 165.457 261.261 165.457H260.703C260.025 165.457 259.506 164.898 259.506 164.259V130.977C259.506 130.338 260.025 129.779 260.703 129.779H261.261C261.939 129.779 262.457 130.338 262.457 130.977V164.259Z" fill="#E6E7E8"/>
<path d="M385.073 163.181C385.073 164.299 384.196 165.177 383.079 165.177H359.513C358.397 165.177 357.52 164.299 357.52 163.181V121.319C357.52 120.201 358.397 119.323 359.513 119.323H383.079C384.196 119.323 385.073 120.201 385.073 121.319V163.181Z" fill="#E6E7E8"/>
<path d="M352.495 126.707C352.495 127.824 351.618 128.702 350.501 128.702H280.281C279.165 128.702 278.288 127.824 278.288 126.707V121.559C278.288 120.441 279.165 119.563 280.281 119.563H350.501C351.618 119.563 352.495 120.441 352.495 121.559V126.707Z" fill="url(#paint33_linear)"/>
<path d="M352.734 137.521C352.734 138.639 351.857 139.517 350.74 139.517H280.521C279.404 139.517 278.527 138.639 278.527 137.521V132.373C278.527 131.256 279.404 130.378 280.521 130.378H350.74C351.857 130.378 352.734 131.256 352.734 132.373V137.521Z" fill="#D1D3D4"/>
<path d="M352.495 162.583C352.495 163.701 351.618 164.579 350.501 164.579H280.281C279.165 164.579 278.288 163.701 278.288 162.583V143.109C278.288 141.991 279.165 141.113 280.281 141.113H350.501C351.618 141.113 352.495 141.991 352.495 143.109V162.583Z" fill="url(#paint34_linear)"/>
<path d="M192.078 163.062C192.078 164.18 191.2 165.057 190.084 165.057H172.14C171.024 165.057 170.146 164.18 170.146 163.062V145.104C170.146 143.986 171.024 143.108 172.14 143.108H190.084C191.2 143.108 192.078 143.986 192.078 145.104V163.062Z" fill="url(#paint35_linear)"/>
<path d="M156.629 132.213C160.02 132.213 162.77 129.462 162.77 126.068C162.77 122.673 160.02 119.922 156.629 119.922C153.238 119.922 150.488 122.673 150.488 126.068C150.488 129.462 153.238 132.213 156.629 132.213Z" fill="white"/>
<path d="M181.232 132.493C184.624 132.493 187.373 129.741 187.373 126.347C187.373 122.953 184.624 120.201 181.232 120.201C177.841 120.201 175.091 122.953 175.091 126.347C175.091 129.741 177.841 132.493 181.232 132.493Z" fill="white"/>
<path d="M156.429 156.637C159.821 156.637 162.57 153.886 162.57 150.491C162.57 147.097 159.821 144.346 156.429 144.346C153.038 144.346 150.289 147.097 150.289 150.491C150.289 153.886 153.038 156.637 156.429 156.637Z" fill="white"/>
<path d="M181.351 156.716C184.743 156.716 187.492 153.965 187.492 150.571C187.492 147.176 184.743 144.425 181.351 144.425C177.96 144.425 175.21 147.176 175.21 150.571C175.21 153.965 177.96 156.716 181.351 156.716Z" fill="white"/>
<path d="M173.935 135.167C173.257 135.167 172.738 134.848 172.738 134.409C172.738 134.01 173.257 133.65 173.935 133.65H189.127C189.805 133.65 190.323 133.97 190.323 134.409C190.323 134.808 189.805 135.167 189.127 135.167H173.935Z" fill="white"/>
<path d="M283.152 123.434C282.514 123.434 281.956 123.115 281.956 122.676C281.956 122.277 282.514 121.918 283.152 121.918H347.79C348.428 121.918 348.986 122.237 348.986 122.676C348.986 123.075 348.428 123.434 347.79 123.434H283.152Z" fill="white"/>
<path d="M282.993 126.267C282.315 126.267 281.797 125.948 281.797 125.509C281.797 125.11 282.315 124.751 282.993 124.751H347.63C348.308 124.751 348.827 125.07 348.827 125.509C348.827 125.908 348.308 126.267 347.63 126.267H282.993Z" fill="white"/>
<path d="M282.913 145.503C282.275 145.503 281.717 145.184 281.717 144.745C281.717 144.346 282.275 143.986 282.913 143.986H347.55C348.188 143.986 348.747 144.306 348.747 144.745C348.747 145.144 348.188 145.503 347.55 145.503H282.913Z" fill="white"/>
<path d="M282.913 149.294C282.275 149.294 281.717 148.975 281.717 148.536C281.717 148.137 282.275 147.777 282.913 147.777H347.55C348.188 147.777 348.747 148.097 348.747 148.536C348.747 148.935 348.188 149.294 347.55 149.294H282.913Z" fill="white"/>
<path d="M282.793 153.085C282.116 153.085 281.597 152.766 281.597 152.327C281.597 151.928 282.116 151.568 282.793 151.568H347.431C348.109 151.568 348.627 151.888 348.627 152.327C348.627 152.726 348.109 153.085 347.431 153.085H282.793Z" fill="white"/>
<path d="M282.793 156.877C282.116 156.877 281.597 156.558 281.597 156.119C281.597 155.72 282.116 155.36 282.793 155.36H347.431C348.109 155.36 348.627 155.68 348.627 156.119C348.627 156.518 348.109 156.877 347.431 156.877H282.793Z" fill="white"/>
<path d="M282.793 160.748C282.116 160.748 281.597 160.429 281.597 159.99C281.597 159.591 282.116 159.231 282.793 159.231H347.431C348.109 159.231 348.627 159.551 348.627 159.99C348.627 160.389 348.109 160.748 347.431 160.748H282.793Z" fill="white"/>
<path d="M149.491 135.366C148.853 135.366 148.295 135.047 148.295 134.608C148.295 134.209 148.853 133.85 149.491 133.85H164.684C165.322 133.85 165.88 134.169 165.88 134.608C165.88 135.007 165.322 135.366 164.684 135.366H149.491Z" fill="white"/>
<path d="M149.252 159.71C148.614 159.71 148.056 159.391 148.056 158.952C148.056 158.553 148.614 158.193 149.252 158.193H164.444C165.082 158.193 165.641 158.513 165.641 158.952C165.641 159.351 165.082 159.71 164.444 159.71H149.252Z" fill="white"/>
<path d="M173.935 159.71C173.257 159.71 172.738 159.391 172.738 158.952C172.738 158.553 173.257 158.193 173.935 158.193H189.127C189.805 158.193 190.323 158.513 190.323 158.952C190.323 159.351 189.805 159.71 189.127 159.71H173.935Z" fill="white"/>
<path d="M173.855 162.503C173.217 162.503 172.659 162.184 172.659 161.745C172.659 161.345 173.217 160.986 173.855 160.986H189.047C189.685 160.986 190.244 161.306 190.244 161.745C190.244 162.144 189.685 162.503 189.047 162.503H173.855Z" fill="white"/>
<path d="M173.935 137.841C173.257 137.841 172.738 137.521 172.738 137.082C172.738 136.683 173.257 136.324 173.935 136.324H189.127C189.805 136.324 190.323 136.643 190.323 137.082C190.323 137.482 189.805 137.841 189.127 137.841H173.935Z" fill="white"/>
<path d="M149.611 138C148.933 138 148.415 137.681 148.415 137.242C148.415 136.803 148.933 136.483 149.611 136.483H164.803C165.441 136.483 165.999 136.803 165.999 137.242C165.999 137.681 165.441 138 164.803 138H149.611Z" fill="white"/>
<path d="M149.172 162.543C148.534 162.543 147.976 162.224 147.976 161.785C147.976 161.386 148.534 161.026 149.172 161.026H164.365C165.003 161.026 165.561 161.346 165.561 161.785C165.561 162.184 165.003 162.543 164.365 162.543H149.172Z" fill="white"/>
<path d="M435.196 243.754C435.196 244.872 434.318 245.75 433.202 245.75H422.914C421.798 245.75 420.92 244.872 420.92 243.754V233.458C420.92 232.341 421.798 231.463 422.914 231.463H433.202C434.318 231.463 435.196 232.341 435.196 233.458V243.754Z" fill="url(#paint36_linear)"/>
<path d="M435.076 259.638C435.076 260.756 434.199 261.633 433.082 261.633H422.795C421.678 261.633 420.801 260.756 420.801 259.638V249.342C420.801 248.225 421.678 247.347 422.795 247.347H433.082C434.199 247.347 435.076 248.225 435.076 249.342V259.638Z" fill="#E6E7E8"/>
<path d="M451.066 243.874C451.066 244.992 450.189 245.87 449.072 245.87H438.784C437.668 245.87 436.791 244.992 436.791 243.874V233.578C436.791 232.461 437.668 231.583 438.784 231.583H449.072C450.189 231.583 451.066 232.461 451.066 233.578V243.874Z" fill="#E6E7E8"/>
<path d="M464.703 259.438C464.703 260.556 463.826 261.434 462.709 261.434H454.376C453.259 261.434 452.382 260.556 452.382 259.438V233.578C452.382 232.461 453.259 231.583 454.376 231.583H462.709C463.826 231.583 464.703 232.461 464.703 233.578V259.438Z" fill="#E6E7E8"/>
<path d="M468.013 260.237C468.013 260.875 467.574 261.434 467.056 261.434C466.537 261.434 466.099 260.875 466.099 260.237V237.29C466.099 236.612 466.537 236.093 467.056 236.093C467.574 236.093 468.013 236.612 468.013 237.29V260.237Z" fill="#E6E7E8"/>
<path d="M471.083 260.236C471.083 260.875 470.645 261.433 470.126 261.433C469.608 261.433 469.169 260.875 469.169 260.236V235.334C469.169 234.656 469.608 234.137 470.126 234.137C470.645 234.137 471.083 234.656 471.083 235.334V260.236Z" fill="#D1D3D4"/>
<path d="M474.154 260.396C474.154 261.075 473.715 261.594 473.197 261.594C472.678 261.594 472.24 261.075 472.24 260.396V239.924C472.24 239.285 472.678 238.727 473.197 238.727C473.715 238.727 474.154 239.285 474.154 239.924V260.396Z" fill="#E6E7E8"/>
<path d="M477.184 260.556C477.184 261.234 476.745 261.753 476.227 261.753C475.709 261.753 475.27 261.234 475.27 260.556V239.006C475.27 238.367 475.709 237.809 476.227 237.809C476.745 237.809 477.184 238.367 477.184 239.006V260.556Z" fill="#E6E7E8"/>
<path d="M480.414 260.676C480.414 261.314 479.975 261.873 479.457 261.873C478.939 261.873 478.5 261.314 478.5 260.676V237.649C478.5 236.971 478.939 236.452 479.457 236.452C479.975 236.452 480.414 236.971 480.414 237.649V260.676Z" fill="#D1D3D4"/>
<path d="M483.484 260.676C483.484 261.314 483.046 261.873 482.527 261.873C482.009 261.873 481.57 261.314 481.57 260.676V243.835C481.57 243.156 482.009 242.638 482.527 242.638C483.046 242.638 483.484 243.156 483.484 243.835V260.676Z" fill="#E6E7E8"/>
<path d="M503.98 260.676C503.98 261.314 503.541 261.873 503.023 261.873C502.505 261.873 502.066 261.314 502.066 260.676V243.835C502.066 243.156 502.505 242.638 503.023 242.638C503.541 242.638 503.98 243.156 503.98 243.835V260.676Z" fill="#E6E7E8"/>
<path d="M486.595 260.675C486.595 261.314 486.156 261.873 485.638 261.873C485.119 261.873 484.681 261.314 484.681 260.675V241.041C484.681 240.363 485.119 239.844 485.638 239.844C486.156 239.844 486.595 240.363 486.595 241.041V260.675Z" fill="#E6E7E8"/>
<path d="M490.103 260.676C490.103 261.314 489.665 261.873 489.146 261.873C488.628 261.873 488.189 261.314 488.189 260.676V236.173C488.189 235.494 488.628 234.976 489.146 234.976C489.665 234.976 490.103 235.494 490.103 236.173V260.676Z" fill="#D1D3D4"/>
<path d="M500.351 261.074C500.351 261.753 499.913 262.272 499.394 262.272C498.876 262.272 498.438 261.753 498.438 261.074V236.571C498.438 235.933 498.876 235.374 499.394 235.374C499.913 235.374 500.351 235.933 500.351 236.571V261.074Z" fill="#D1D3D4"/>
<path d="M493.533 260.835C493.533 261.514 493.094 262.033 492.576 262.033C492.057 262.033 491.619 261.514 491.619 260.835V240.004C491.619 239.365 492.057 238.807 492.576 238.807C493.094 238.807 493.533 239.365 493.533 240.004V260.835Z" fill="#E6E7E8"/>
<path d="M496.803 260.835C496.803 261.514 496.364 262.033 495.846 262.033C495.327 262.033 494.889 261.514 494.889 260.835V240.004C494.889 239.365 495.327 238.807 495.846 238.807C496.364 238.807 496.803 239.365 496.803 240.004V260.835Z" fill="#E6E7E8"/>
<path d="M576.672 259.838C576.672 260.955 575.795 261.833 574.678 261.833H560.722C559.606 261.833 558.729 260.955 558.729 259.838V233.978C558.729 232.86 559.606 231.982 560.722 231.982H574.678C575.795 231.982 576.672 232.86 576.672 233.978V259.838Z" fill="#E6E7E8"/>
<path d="M555.459 235.096C555.459 236.732 553.664 238.089 551.471 238.089H511.078C508.885 238.089 507.09 236.732 507.09 235.096C507.09 233.459 508.885 232.103 511.078 232.103H551.471C553.664 232.103 555.459 233.459 555.459 235.096Z" fill="url(#paint37_linear)"/>
<path d="M555.618 242.118C555.618 243.754 553.824 245.111 551.631 245.111H511.237C509.044 245.111 507.25 243.754 507.25 242.118C507.25 240.482 509.044 239.125 511.237 239.125H551.631C553.824 239.125 555.618 240.482 555.618 242.118Z" fill="#D1D3D4"/>
<path d="M555.459 257.443C555.459 259.638 553.664 261.434 551.471 261.434H511.078C508.885 261.434 507.09 259.638 507.09 257.443V250.14C507.09 247.945 508.885 246.149 511.078 246.149H551.471C553.664 246.149 555.459 247.945 555.459 250.14V257.443Z" fill="url(#paint38_linear)"/>
<path d="M450.947 259.758C450.947 260.876 450.069 261.754 448.953 261.754H438.665C437.549 261.754 436.671 260.876 436.671 259.758V249.462C436.671 248.345 437.549 247.467 438.665 247.467H448.953C450.069 247.467 450.947 248.345 450.947 249.462V259.758Z" fill="url(#paint39_linear)"/>
<path d="M427.819 240.322C430.021 240.322 431.806 238.536 431.806 236.332C431.806 234.128 430.021 232.341 427.819 232.341C425.616 232.341 423.831 234.128 423.831 236.332C423.831 238.536 425.616 240.322 427.819 240.322Z" fill="white"/>
<path d="M443.888 240.523C446.091 240.523 447.876 238.736 447.876 236.532C447.876 234.328 446.091 232.541 443.888 232.541C441.686 232.541 439.901 234.328 439.901 236.532C439.901 238.736 441.686 240.523 443.888 240.523Z" fill="white"/>
<path d="M427.699 256.246C429.902 256.246 431.687 254.459 431.687 252.255C431.687 250.051 429.902 248.265 427.699 248.265C425.497 248.265 423.712 250.051 423.712 252.255C423.712 254.459 425.497 256.246 427.699 256.246Z" fill="white"/>
<path d="M443.928 256.326C446.131 256.326 447.916 254.54 447.916 252.335C447.916 250.131 446.131 248.345 443.928 248.345C441.726 248.345 439.941 250.131 439.941 252.335C439.941 254.54 441.726 256.326 443.928 256.326Z" fill="white"/>
<path d="M439.143 242.278C438.705 242.278 438.346 242.079 438.346 241.799C438.346 241.52 438.705 241.32 439.143 241.32H449.032C449.471 241.32 449.83 241.52 449.83 241.799C449.83 242.079 449.471 242.278 449.032 242.278H439.143Z" fill="white"/>
<path d="M510.28 234.616C509.842 234.616 509.483 234.416 509.483 234.137C509.483 233.858 509.842 233.658 510.28 233.658H552.349C552.787 233.658 553.146 233.858 553.146 234.137C553.146 234.416 552.787 234.616 552.349 234.616H510.28Z" fill="white"/>
<path d="M510.2 236.452C509.762 236.452 509.403 236.252 509.403 235.973C509.403 235.694 509.762 235.494 510.2 235.494H552.269C552.707 235.494 553.066 235.694 553.066 235.973C553.066 236.252 552.707 236.452 552.269 236.452H510.2Z" fill="white"/>
<path d="M510.121 249.023C509.682 249.023 509.323 248.824 509.323 248.544C509.323 248.265 509.682 248.065 510.121 248.065H552.189C552.628 248.065 552.986 248.265 552.986 248.544C552.986 248.824 552.628 249.023 552.189 249.023H510.121Z" fill="white"/>
<path d="M510.121 251.457C509.682 251.457 509.323 251.257 509.323 250.978C509.323 250.699 509.682 250.499 510.121 250.499H552.189C552.628 250.499 552.986 250.699 552.986 250.978C552.986 251.257 552.628 251.457 552.189 251.457H510.121Z" fill="white"/>
<path d="M510.041 253.931C509.603 253.931 509.244 253.732 509.244 253.453C509.244 253.173 509.603 252.974 510.041 252.974H552.109C552.548 252.974 552.907 253.173 552.907 253.453C552.907 253.732 552.548 253.931 552.109 253.931H510.041Z" fill="white"/>
<path d="M510.041 256.406C509.603 256.406 509.244 256.206 509.244 255.927C509.244 255.648 509.603 255.448 510.041 255.448H552.109C552.548 255.448 552.907 255.648 552.907 255.927C552.907 256.206 552.548 256.406 552.109 256.406H510.041Z" fill="white"/>
<path d="M510.041 258.96C509.603 258.96 509.244 258.76 509.244 258.481C509.244 258.201 509.603 258.002 510.041 258.002H552.109C552.548 258.002 552.907 258.201 552.907 258.481C552.907 258.76 552.548 258.96 552.109 258.96H510.041Z" fill="white"/>
<path d="M423.193 242.398C422.755 242.398 422.396 242.199 422.396 241.919C422.396 241.64 422.755 241.44 423.193 241.44H433.083C433.521 241.44 433.88 241.64 433.88 241.919C433.88 242.199 433.521 242.398 433.083 242.398H423.193Z" fill="white"/>
<path d="M423.034 258.281C422.595 258.281 422.236 258.081 422.236 257.802C422.236 257.523 422.595 257.323 423.034 257.323H432.923C433.361 257.323 433.72 257.523 433.72 257.802C433.72 258.081 433.361 258.281 432.923 258.281H423.034Z" fill="white"/>
<path d="M439.143 258.281C438.705 258.281 438.346 258.081 438.346 257.802C438.346 257.523 438.705 257.323 439.143 257.323H449.032C449.471 257.323 449.83 257.523 449.83 257.802C449.83 258.081 449.471 258.281 449.032 258.281H439.143Z" fill="white"/>
<path d="M439.104 260.077C438.665 260.077 438.306 259.877 438.306 259.598C438.306 259.319 438.665 259.119 439.104 259.119H448.993C449.431 259.119 449.79 259.319 449.79 259.598C449.79 259.877 449.431 260.077 448.993 260.077H439.104Z" fill="white"/>
<path d="M439.143 244.034C438.705 244.034 438.346 243.834 438.346 243.555C438.346 243.276 438.705 243.076 439.143 243.076H449.032C449.471 243.076 449.83 243.276 449.83 243.555C449.83 243.834 449.471 244.034 449.032 244.034H439.143Z" fill="white"/>
<path d="M423.273 244.114C422.834 244.114 422.476 243.915 422.476 243.635C422.476 243.356 422.834 243.156 423.273 243.156H433.162C433.601 243.156 433.96 243.356 433.96 243.635C433.96 243.915 433.601 244.114 433.162 244.114H423.273Z" fill="white"/>
<path d="M422.994 260.117C422.555 260.117 422.196 259.917 422.196 259.638C422.196 259.359 422.555 259.159 422.994 259.159H432.883C433.321 259.159 433.68 259.359 433.68 259.638C433.68 259.917 433.321 260.117 432.883 260.117H422.994Z" fill="white"/>
<path d="M83.9366 262.75C83.9366 263.389 83.4183 263.948 82.7404 263.948H78.7529C78.075 263.948 77.5566 263.389 77.5566 262.75V258.76C77.5566 258.081 78.075 257.562 78.7529 257.562H82.7404C83.4183 257.562 83.9366 258.081 83.9366 258.76V262.75Z" fill="url(#paint40_linear)"/>
<path d="M83.8571 269.894C83.8571 270.533 83.3387 271.091 82.6608 271.091H78.6733C78.0353 271.091 77.4771 270.533 77.4771 269.894V265.903C77.4771 265.265 78.0353 264.706 78.6733 264.706H82.6608C83.3387 264.706 83.8571 265.265 83.8571 265.903V269.894Z" fill="#E6E7E8"/>
<path d="M91.0348 262.831C91.0348 263.509 90.5164 264.028 89.8385 264.028H85.851C85.1732 264.028 84.6548 263.509 84.6548 262.831V258.84C84.6548 258.201 85.1732 257.643 85.851 257.643H89.8385C90.5164 257.643 91.0348 258.201 91.0348 258.84V262.831Z" fill="#E6E7E8"/>
<path d="M97.1356 270.213C97.1356 270.652 96.7767 271.012 96.3381 271.012H92.4303C91.9917 271.012 91.6328 270.652 91.6328 270.213V258.441C91.6328 258.002 91.9917 257.643 92.4303 257.643H96.3381C96.7767 257.643 97.1356 258.002 97.1356 258.441V270.213Z" fill="#E6E7E8"/>
<path d="M98.6111 270.612C98.6111 270.812 98.4516 271.011 98.2124 271.011H98.1326C97.8934 271.011 97.7339 270.812 97.7339 270.612V260.077C97.7339 259.877 97.8934 259.678 98.1326 259.678H98.2124C98.4516 259.678 98.6111 259.877 98.6111 260.077V270.612Z" fill="#E6E7E8"/>
<path d="M100.007 270.612C100.007 270.812 99.8471 271.011 99.6079 271.011H99.5281C99.2889 271.011 99.1294 270.812 99.1294 270.612V259.159C99.1294 258.959 99.2889 258.76 99.5281 258.76H99.6079C99.8471 258.76 100.007 258.959 100.007 259.159V270.612Z" fill="#D1D3D4"/>
<path d="M101.362 270.652C101.362 270.852 101.203 271.051 100.963 271.051H100.884C100.644 271.051 100.485 270.852 100.485 270.652V261.194C100.485 260.994 100.644 260.795 100.884 260.795H100.963C101.203 260.795 101.362 260.994 101.362 261.194V270.652Z" fill="#E6E7E8"/>
<path d="M102.718 270.733C102.718 270.972 102.519 271.132 102.319 271.132H102.24C102.04 271.132 101.841 270.972 101.841 270.733V260.796C101.841 260.596 102 260.396 102.24 260.396H102.319C102.519 260.396 102.718 260.596 102.718 260.796V270.733Z" fill="#E6E7E8"/>
<path d="M104.153 270.812C104.153 271.012 103.954 271.211 103.754 271.211H103.675C103.435 271.211 103.276 271.012 103.276 270.812V260.197C103.276 259.997 103.435 259.798 103.675 259.798H103.754C103.954 259.798 104.153 259.997 104.153 260.197V270.812Z" fill="#D1D3D4"/>
<path d="M105.549 270.812C105.549 271.011 105.35 271.211 105.15 271.211H105.071C104.871 271.211 104.672 271.011 104.672 270.812V262.99C104.672 262.79 104.871 262.591 105.071 262.591H105.15C105.35 262.591 105.549 262.79 105.549 262.99V270.812Z" fill="#E6E7E8"/>
<path d="M114.72 270.812C114.72 271.011 114.521 271.211 114.321 271.211H114.242C114.042 271.211 113.843 271.011 113.843 270.812V262.99C113.843 262.79 114.042 262.591 114.242 262.591H114.321C114.521 262.591 114.72 262.79 114.72 262.99V270.812Z" fill="#E6E7E8"/>
<path d="M106.945 270.812C106.945 271.011 106.785 271.211 106.546 271.211H106.466C106.227 271.211 106.067 271.011 106.067 270.812V261.753C106.067 261.513 106.227 261.354 106.466 261.354H106.546C106.785 261.354 106.945 261.513 106.945 261.753V270.812Z" fill="#E6E7E8"/>
<path d="M108.499 270.812C108.499 271.012 108.34 271.211 108.101 271.211H108.061C107.822 271.211 107.662 271.012 107.662 270.812V259.558C107.662 259.359 107.822 259.159 108.061 259.159H108.141C108.38 259.159 108.539 259.359 108.539 259.558V270.812H108.499Z" fill="#D1D3D4"/>
<path d="M113.125 270.971C113.125 271.171 112.966 271.37 112.727 271.37H112.647C112.408 271.37 112.248 271.171 112.248 270.971V259.717C112.248 259.518 112.408 259.318 112.647 259.318H112.727C112.966 259.318 113.125 259.518 113.125 259.717V270.971Z" fill="#D1D3D4"/>
<path d="M110.055 270.852C110.055 271.051 109.856 271.251 109.656 271.251H109.576C109.377 271.251 109.178 271.051 109.178 270.852V261.234C109.178 261.034 109.377 260.835 109.576 260.835H109.656C109.856 260.835 110.055 261.034 110.055 261.234V270.852Z" fill="#E6E7E8"/>
<path d="M111.53 270.852C111.53 271.051 111.371 271.251 111.131 271.251H111.052C110.812 271.251 110.653 271.051 110.653 270.852V261.234C110.653 261.034 110.812 260.835 111.052 260.835H111.131C111.371 260.835 111.53 261.034 111.53 261.234V270.852Z" fill="#E6E7E8"/>
<path d="M90.9547 269.934C90.9547 270.612 90.4363 271.131 89.7584 271.131H85.771C85.133 271.131 84.5747 270.612 84.5747 269.934V265.943C84.5747 265.265 85.133 264.746 85.771 264.746H89.7584C90.4363 264.746 90.9547 265.265 90.9547 265.943V269.934Z" fill="url(#paint41_linear)"/>
<path d="M80.6274 261.554C81.6184 261.554 82.4218 260.75 82.4218 259.758C82.4218 258.766 81.6184 257.962 80.6274 257.962C79.6364 257.962 78.833 258.766 78.833 259.758C78.833 260.75 79.6364 261.554 80.6274 261.554Z" fill="white"/>
<path d="M87.8046 261.634C88.7956 261.634 89.599 260.83 89.599 259.838C89.599 258.846 88.7956 258.042 87.8046 258.042C86.8136 258.042 86.0103 258.846 86.0103 259.838C86.0103 260.83 86.8136 261.634 87.8046 261.634Z" fill="white"/>
<path d="M80.5473 268.697C81.5383 268.697 82.3417 267.893 82.3417 266.901C82.3417 265.909 81.5383 265.105 80.5473 265.105C79.5563 265.105 78.7529 265.909 78.7529 266.901C78.7529 267.893 79.5563 268.697 80.5473 268.697Z" fill="white"/>
<path d="M87.8447 268.697C88.8357 268.697 89.639 267.893 89.639 266.901C89.639 265.909 88.8357 265.105 87.8447 265.105C86.8537 265.105 86.0503 265.909 86.0503 266.901C86.0503 267.893 86.8537 268.697 87.8447 268.697Z" fill="white"/>
<path d="M85.7313 262.391C85.492 262.391 85.3325 262.311 85.3325 262.192C85.3325 262.072 85.492 261.992 85.7313 261.992H90.0776C90.3169 261.992 90.4764 262.072 90.4764 262.192C90.4764 262.311 90.3169 262.391 90.0776 262.391H85.7313Z" fill="white"/>
<path d="M78.5936 262.471C78.3543 262.471 78.1948 262.392 78.1948 262.272C78.1948 262.152 78.3543 262.072 78.5936 262.072H82.9399C83.1792 262.072 83.3387 262.152 83.3387 262.272C83.3387 262.392 83.1792 262.471 82.9399 262.471H78.5936Z" fill="white"/>
<path d="M78.5135 269.575C78.3141 269.575 78.1147 269.495 78.1147 269.375C78.1147 269.256 78.3141 269.176 78.5135 269.176H82.8599C83.0593 269.176 83.2586 269.256 83.2586 269.375C83.2586 269.495 83.0593 269.575 82.8599 269.575H78.5135Z" fill="white"/>
<path d="M85.7313 269.575C85.492 269.575 85.3325 269.495 85.3325 269.375C85.3325 269.256 85.492 269.176 85.7313 269.176H90.0776C90.3169 269.176 90.4764 269.256 90.4764 269.375C90.4764 269.495 90.3169 269.575 90.0776 269.575H85.7313Z" fill="white"/>
<path d="M555.817 182.177C555.538 181.099 554.701 180.261 553.664 179.982C551.79 179.463 544.214 179.463 544.214 179.463C544.214 179.463 536.638 179.463 534.763 179.982C533.727 180.261 532.889 181.099 532.61 182.177C532.092 184.092 532.092 188.123 532.092 188.123C532.092 188.123 532.092 192.153 532.61 194.069C532.889 195.147 533.727 195.985 534.763 196.264C536.638 196.783 544.214 196.783 544.214 196.783C544.214 196.783 551.79 196.783 553.664 196.264C554.701 195.985 555.538 195.147 555.817 194.069C556.336 192.153 556.336 188.123 556.336 188.123C556.336 188.123 556.336 184.092 555.817 182.177Z" fill="white"/>
<path d="M541.742 191.754V184.451L548.082 188.123L541.742 191.754Z" fill="url(#paint42_linear)"/>
<path d="M422.715 121.198C424.788 122.555 427.301 123.313 429.972 123.313C438.745 123.313 443.689 115.891 443.41 109.266C444.327 108.588 445.125 107.749 445.763 106.832C444.925 107.191 444.008 107.47 443.051 107.59C444.008 106.991 444.766 106.073 445.125 104.956C444.208 105.515 443.211 105.874 442.134 106.113C441.257 105.195 440.06 104.637 438.705 104.637C435.674 104.637 433.401 107.47 434.119 110.423C430.211 110.224 426.702 108.348 424.39 105.475C423.153 107.59 423.752 110.383 425.865 111.78C425.107 111.74 424.35 111.541 423.712 111.182C423.672 113.376 425.227 115.412 427.5 115.891C426.822 116.09 426.104 116.13 425.387 115.97C425.985 117.846 427.739 119.203 429.813 119.243C427.699 120.799 425.187 121.518 422.715 121.198Z" fill="white"/>
<path d="M49.4452 284.978H55.9847V268.616H60.5305L61.009 263.149H55.9847C55.9847 263.149 55.9847 261.113 55.9847 260.036C55.9847 258.759 56.2638 258.24 57.5 258.24C58.4968 258.24 61.0488 258.24 61.0488 258.24V252.533C61.0488 252.533 57.3405 252.533 56.543 252.533C51.6782 252.533 49.4851 254.688 49.4851 258.759C49.4851 262.311 49.4851 263.109 49.4851 263.109H46.0957V268.656H49.4851V284.978H49.4452Z" fill="white"/>
<path d="M82.4617 92.2256C85.9308 92.2256 86.3295 92.2256 87.7252 92.3054C89.0012 92.3454 89.679 92.5848 90.1575 92.7444C90.7557 92.9839 91.1943 93.2632 91.6329 93.7022C92.0715 94.1412 92.3507 94.5802 92.5899 95.2187C92.7494 95.6577 92.9887 96.376 93.0285 97.653C93.1083 99.0099 93.1083 99.4489 93.1083 102.921C93.1083 106.393 93.1083 106.792 93.0285 108.189C92.9887 109.466 92.7494 110.144 92.5899 110.623C92.3507 111.222 92.0715 111.661 91.6329 112.139C91.1943 112.578 90.7557 112.858 90.1575 113.097C89.7189 113.257 89.0012 113.496 87.7252 113.536C86.3694 113.616 85.9308 113.616 82.4617 113.616C78.9925 113.616 78.5938 113.616 77.1982 113.536C75.9222 113.496 75.2443 113.257 74.7658 113.097C74.1677 112.858 73.729 112.578 73.2505 112.139C72.8119 111.7 72.5328 111.261 72.2935 110.623C72.134 110.184 71.8948 109.466 71.8549 108.189C71.7752 106.832 71.7752 106.393 71.7752 102.921C71.7752 99.4489 71.7752 99.0498 71.8549 97.653C71.8948 96.376 72.134 95.6976 72.2935 95.2187C72.5328 94.6201 72.8119 94.1811 73.2505 93.7022C73.6892 93.2632 74.1278 92.9839 74.7658 92.7444C75.2044 92.5848 75.9222 92.3454 77.1982 92.3054C78.5938 92.2256 78.9925 92.2256 82.4617 92.2256ZM82.4617 89.8711C78.9128 89.8711 78.4742 89.8711 77.1184 89.9509C75.7228 90.0307 74.8057 90.2303 73.9683 90.5495C73.1309 90.8688 72.3733 91.3078 71.6555 92.066C70.9378 92.7843 70.4992 93.5027 70.1403 94.3806C69.8213 95.2187 69.582 96.1366 69.5422 97.5333C69.4624 98.9301 69.4624 99.3691 69.4624 102.881C69.4624 106.433 69.4624 106.872 69.5422 108.229C69.6219 109.625 69.8213 110.543 70.1403 111.381C70.4593 112.219 70.8979 112.977 71.6555 113.696C72.3733 114.414 73.091 114.853 73.9683 115.212C74.8057 115.532 75.7228 115.771 77.1184 115.811C78.514 115.891 78.9527 115.891 82.4617 115.891C86.0105 115.891 86.4492 115.891 87.8049 115.811C89.2005 115.731 90.1177 115.532 90.955 115.212C91.7924 114.893 92.55 114.454 93.2678 113.696C93.9855 112.977 94.4242 112.259 94.783 111.381C95.102 110.543 95.3413 109.625 95.3812 108.229C95.4609 106.832 95.4609 106.393 95.4609 102.881C95.4609 99.3291 95.4609 98.8902 95.3812 97.5333C95.3014 96.1366 95.102 95.2187 94.783 94.3806C94.464 93.5426 94.0254 92.7843 93.2678 92.066C92.55 91.3477 91.8323 90.9087 90.955 90.5495C90.1177 90.2303 89.2005 89.9908 87.8049 89.9509C86.4492 89.911 86.0105 89.8711 82.4617 89.8711Z" fill="white"/>
<path d="M82.4619 96.2158C78.7535 96.2158 75.8027 99.2089 75.8027 102.88C75.8027 106.552 78.7934 109.545 82.4619 109.545C86.1702 109.545 89.121 106.552 89.121 102.88C89.121 99.2089 86.1702 96.2158 82.4619 96.2158ZM82.4619 107.23C80.0694 107.23 78.1155 105.275 78.1155 102.88C78.1155 100.486 80.0694 98.5304 82.4619 98.5304C84.8544 98.5304 86.8082 100.486 86.8082 102.88C86.8082 105.315 84.8544 107.23 82.4619 107.23Z" fill="white"/>
<path d="M90.995 95.9372C90.995 96.8152 90.2773 97.4936 89.4399 97.4936C88.5626 97.4936 87.8848 96.7753 87.8848 95.9372C87.8848 95.0593 88.6025 94.3809 89.4399 94.3809C90.2773 94.3809 90.995 95.0992 90.995 95.9372Z" fill="white"/>
<path d="M254.163 51.041H250.096V64.1706H254.163V51.041Z" fill="white"/>
<path d="M252.13 49.3248C253.446 49.3248 254.522 48.2473 254.522 46.8904C254.522 45.5336 253.446 44.4561 252.13 44.4561C250.814 44.4561 249.737 45.5336 249.737 46.8904C249.737 48.2473 250.774 49.3248 252.13 49.3248Z" fill="white"/>
<path d="M260.663 57.2661C260.663 55.4304 261.501 54.313 263.135 54.313C264.611 54.313 265.368 55.3505 265.368 57.2661C265.368 59.1417 265.368 64.1701 265.368 64.1701H269.396C269.396 64.1701 269.396 59.3812 269.396 55.8294C269.396 52.3176 267.402 50.6016 264.611 50.6016C261.819 50.6016 260.663 52.7566 260.663 52.7566V51.0006H256.755V64.1302H260.663C260.663 64.1701 260.663 59.3014 260.663 57.2661Z" fill="white"/>
<path d="M618.063 286.295H605.981V289.767H614.115C613.158 293.998 610.167 296.552 606.18 296.552C600.956 296.552 596.69 292.321 596.69 287.054C596.69 281.786 600.916 277.556 606.18 277.556C608.652 277.556 610.925 278.513 612.64 280.07L615.311 277.755C612.959 275.441 609.729 274.004 606.18 274.004C599.002 274.004 593.181 279.83 593.181 287.014C593.181 294.197 599.002 300.024 606.18 300.024C613.078 300.024 618.063 294.756 618.063 287.572V286.295Z" fill="white"/>
<path d="M53.4325 307.207C53.4325 307.207 52.6749 306.768 51.3989 305.97" stroke="#9357A3" stroke-width="2" stroke-miterlimit="10"/>
<path d="M47.4114 303.296C35.0501 294.556 9.1314 272.288 22.4098 247.186C39.556 214.781 90.277 241.918 92.9487 209.234C95.6203 176.55 89.3998 123.712 43.4638 131.614C-2.47222 139.516 97.2153 201.292 105.948 131.694C114.681 62.0953 177.284 20.4719 200.332 45.8929C223.38 71.3139 277.53 94.3006 306.12 70.7951C334.711 47.2897 300.299 12.2909 281.956 22.5471C263.654 32.7634 306.639 92.9437 372.393 91.3475C438.147 89.7512 476.347 64.3301 521.326 133.45C566.305 202.569 422.516 189.24 439.223 154.242C455.931 119.243 512.553 71.5933 553.704 120.28C592.822 166.533 623.565 228.828 612.081 257.881" stroke="#9357A3" stroke-width="2" stroke-miterlimit="10" stroke-dasharray="12.03 12.03"/>
<path d="M611.124 260.076C610.765 260.794 610.367 261.473 609.968 262.151" stroke="#9357A3" stroke-width="2" stroke-miterlimit="10"/>
<g opacity="0.3">
<path opacity="0.3" d="M387.665 112.618C389.619 111.58 389.38 110.742 387.187 110.742L140.4 110.463C138.207 110.463 136.413 112.259 136.413 114.454V242.237C136.413 244.432 138.008 245.39 139.922 244.352L387.665 112.618Z" fill="white"/>
</g>
<g opacity="0.3">
<path opacity="0.3" d="M579.144 228.27C581.018 227.153 580.779 226.235 578.586 226.235L417.371 226.035C415.178 226.035 413.384 227.831 413.384 230.026V321.494C413.384 323.689 414.939 324.567 416.813 323.449L579.144 228.27Z" fill="white"/>
</g>
<g opacity="0.3">
<path opacity="0.3" d="M117.751 255.247C118.748 253.292 117.751 251.656 115.558 251.656L78.2346 251.496C76.0414 251.496 74.2471 253.292 74.2471 255.487V337.975C74.2471 340.17 75.0446 340.37 76.0414 338.414L117.751 255.247Z" fill="white"/>
</g>
</g>
<defs>
<filter id="filter0_d" x="-12" y="-8" width="662" height="455" filterUnits="userSpaceOnUse" color-interpolation-filters="sRGB">
<feFlood flood-opacity="0" result="BackgroundImageFix"/>
<feColorMatrix in="SourceAlpha" type="matrix" values="0 0 0 0 0 0 0 0 0 0 0 0 0 0 0 0 0 0 127 0" result="hardAlpha"/>
<feOffset dy="4"/>
<feGaussianBlur stdDeviation="6"/>
<feColorMatrix type="matrix" values="0 0 0 0 0 0 0 0 0 0 0 0 0 0 0 0 0 0 0.3 0"/>
<feBlend mode="normal" in2="BackgroundImageFix" result="effect1_dropShadow"/>
<feBlend mode="normal" in="SourceGraphic" in2="effect1_dropShadow" result="shape"/>
</filter>
<linearGradient id="paint0_linear" x1="59.3494" y1="104.45" x2="105.823" y2="104.45" gradientUnits="userSpaceOnUse">
<stop stop-color="#7DD3F7"/>
<stop offset="1" stop-color="#43B5E8"/>
</linearGradient>
<linearGradient id="paint1_linear" x1="239.679" y1="56.0467" x2="280.361" y2="56.0467" gradientUnits="userSpaceOnUse">
<stop stop-color="#7DD3F7"/>
<stop offset="1" stop-color="#43B5E8"/>
</linearGradient>
<linearGradient id="paint2_linear" x1="410.616" y1="114.064" x2="457.784" y2="114.064" gradientUnits="userSpaceOnUse">
<stop stop-color="#7DD3F7"/>
<stop offset="1" stop-color="#43B5E8"/>
</linearGradient>
<linearGradient id="paint3_linear" x1="521.538" y1="188.244" x2="565.919" y2="188.244" gradientUnits="userSpaceOnUse">
<stop stop-color="#7DD3F7"/>
<stop offset="1" stop-color="#43B5E8"/>
</linearGradient>
<linearGradient id="paint4_linear" x1="584.145" y1="287.272" x2="627.099" y2="287.272" gradientUnits="userSpaceOnUse">
<stop stop-color="#7DD3F7"/>
<stop offset="1" stop-color="#43B5E8"/>
</linearGradient>
<linearGradient id="paint5_linear" x1="31.4334" y1="268.455" x2="77.4221" y2="268.455" gradientUnits="userSpaceOnUse">
<stop stop-color="#7DD3F7"/>
<stop offset="1" stop-color="#43B5E8"/>
</linearGradient>
<linearGradient id="paint6_linear" x1="65.9875" y1="181.35" x2="77.6492" y2="181.35" gradientUnits="userSpaceOnUse">
<stop stop-color="#7DD3F7"/>
<stop offset="1" stop-color="#43B5E8"/>
</linearGradient>
<linearGradient id="paint7_linear" x1="327.346" y1="57.7739" x2="336.264" y2="57.7739" gradientUnits="userSpaceOnUse">
<stop stop-color="#7DD3F7"/>
<stop offset="1" stop-color="#43B5E8"/>
</linearGradient>
<linearGradient id="paint8_linear" x1="191.522" y1="91.4145" x2="201.812" y2="91.4145" gradientUnits="userSpaceOnUse">
<stop stop-color="#71459B"/>
<stop offset="0.8668" stop-color="#A76DAE"/>
</linearGradient>
<linearGradient id="paint9_linear" x1="572.926" y1="122.308" x2="585.96" y2="122.308" gradientUnits="userSpaceOnUse">
<stop stop-color="#7DD3F7"/>
<stop offset="1" stop-color="#43B5E8"/>
</linearGradient>
<linearGradient id="paint10_linear" x1="599.679" y1="237.647" x2="605.853" y2="237.647" gradientUnits="userSpaceOnUse">
<stop stop-color="#71459B"/>
<stop offset="0.8668" stop-color="#A76DAE"/>
</linearGradient>
<linearGradient id="paint11_linear" x1="129.098" y1="302.181" x2="135.272" y2="302.181" gradientUnits="userSpaceOnUse">
<stop stop-color="#71459B"/>
<stop offset="0.8668" stop-color="#A76DAE"/>
</linearGradient>
<linearGradient id="paint12_linear" x1="2076.07" y1="-453.191" x2="2087.96" y2="-457.178" gradientUnits="userSpaceOnUse">
<stop stop-color="#456AB3"/>
<stop offset="1" stop-color="#3560AC"/>
</linearGradient>
<linearGradient id="paint13_linear" x1="2072.19" y1="-437.448" x2="2084.09" y2="-441.435" gradientUnits="userSpaceOnUse">
<stop stop-color="#456AB3"/>
<stop offset="1" stop-color="#3560AC"/>
</linearGradient>
<linearGradient id="paint14_linear" x1="2068.29" y1="-421.719" x2="2080.19" y2="-425.706" gradientUnits="userSpaceOnUse">
<stop stop-color="#456AB3"/>
<stop offset="1" stop-color="#3560AC"/>
</linearGradient>
<linearGradient id="paint15_linear" x1="2064.65" y1="-405.728" x2="2076.55" y2="-409.715" gradientUnits="userSpaceOnUse">
<stop stop-color="#456AB3"/>
<stop offset="1" stop-color="#3560AC"/>
</linearGradient>
<linearGradient id="paint16_linear" x1="2060.5" y1="-390.238" x2="2072.4" y2="-394.225" gradientUnits="userSpaceOnUse">
<stop stop-color="#456AB3"/>
<stop offset="1" stop-color="#3560AC"/>
</linearGradient>
<linearGradient id="paint17_linear" x1="264.172" y1="313.056" x2="264.414" y2="344.458" gradientUnits="userSpaceOnUse">
<stop stop-color="white"/>
<stop offset="1" stop-color="#494A4B"/>
</linearGradient>
<linearGradient id="paint18_linear" x1="263.38" y1="260.681" x2="264.248" y2="284.606" gradientUnits="userSpaceOnUse">
<stop stop-color="white"/>
<stop offset="1" stop-color="#979899"/>
</linearGradient>
<linearGradient id="paint19_linear" x1="260.648" y1="248.317" x2="268.632" y2="105.866" gradientUnits="userSpaceOnUse">
<stop stop-color="#7DD3F7"/>
<stop offset="1" stop-color="#43B5E8"/>
</linearGradient>
<linearGradient id="paint20_linear" x1="93.8807" y1="250.092" x2="93.8563" y2="244.426" gradientUnits="userSpaceOnUse">
<stop stop-color="white"/>
<stop offset="1" stop-color="#43B5E8"/>
</linearGradient>
<linearGradient id="paint21_linear" x1="86.9577" y1="340.381" x2="106.258" y2="250.389" gradientUnits="userSpaceOnUse">
<stop stop-color="#7DD3F7"/>
<stop offset="1" stop-color="#43B5E8"/>
</linearGradient>
<linearGradient id="paint22_linear" x1="495.14" y1="326.188" x2="501.497" y2="222.911" gradientUnits="userSpaceOnUse">
<stop stop-color="#7DD3F7"/>
<stop offset="1" stop-color="#43B5E8"/>
</linearGradient>
<linearGradient id="paint23_linear" x1="158.02" y1="197.378" x2="191.467" y2="197.378" gradientUnits="userSpaceOnUse">
<stop stop-color="#71459B"/>
<stop offset="0.8668" stop-color="#A76DAE"/>
</linearGradient>
<linearGradient id="paint24_linear" x1="150.5" y1="221.024" x2="200.184" y2="221.024" gradientUnits="userSpaceOnUse">
<stop stop-color="#71459B"/>
<stop offset="0.8668" stop-color="#A76DAE"/>
</linearGradient>
<linearGradient id="paint25_linear" x1="153.77" y1="226.324" x2="196.914" y2="226.324" gradientUnits="userSpaceOnUse">
<stop stop-color="#71459B"/>
<stop offset="0.8668" stop-color="#A76DAE"/>
</linearGradient>
<linearGradient id="paint26_linear" x1="428.198" y1="311.774" x2="460.318" y2="311.774" gradientUnits="userSpaceOnUse">
<stop stop-color="#71459B"/>
<stop offset="0.8668" stop-color="#A76DAE"/>
</linearGradient>
<linearGradient id="paint27_linear" x1="85.5455" y1="304.805" x2="106.462" y2="304.805" gradientUnits="userSpaceOnUse">
<stop stop-color="#71459B"/>
<stop offset="0.8668" stop-color="#A76DAE"/>
</linearGradient>
<linearGradient id="paint28_linear" x1="431.157" y1="288.902" x2="457.676" y2="288.902" gradientUnits="userSpaceOnUse">
<stop stop-color="#71459B"/>
<stop offset="0.8668" stop-color="#A76DAE"/>
</linearGradient>
<linearGradient id="paint29_linear" x1="425.195" y1="307.65" x2="464.588" y2="307.65" gradientUnits="userSpaceOnUse">
<stop stop-color="#71459B"/>
<stop offset="0.8668" stop-color="#A76DAE"/>
</linearGradient>
<linearGradient id="paint30_linear" x1="87.1052" y1="289.077" x2="105.079" y2="289.077" gradientUnits="userSpaceOnUse">
<stop stop-color="#71459B"/>
<stop offset="0.8668" stop-color="#A76DAE"/>
</linearGradient>
<linearGradient id="paint31_linear" x1="83.0639" y1="301.784" x2="109.764" y2="301.784" gradientUnits="userSpaceOnUse">
<stop stop-color="#71459B"/>
<stop offset="0.8668" stop-color="#A76DAE"/>
</linearGradient>
<linearGradient id="paint32_linear" x1="146.016" y1="129.527" x2="167.932" y2="129.527" gradientUnits="userSpaceOnUse">
<stop stop-color="#7DD3F7"/>
<stop offset="1" stop-color="#43B5E8"/>
</linearGradient>
<linearGradient id="paint33_linear" x1="278.292" y1="124.143" x2="352.513" y2="124.143" gradientUnits="userSpaceOnUse">
<stop stop-color="#7DD3F7"/>
<stop offset="1" stop-color="#43B5E8"/>
</linearGradient>
<linearGradient id="paint34_linear" x1="278.292" y1="152.857" x2="352.513" y2="152.857" gradientUnits="userSpaceOnUse">
<stop stop-color="#7DD3F7"/>
<stop offset="1" stop-color="#43B5E8"/>
</linearGradient>
<linearGradient id="paint35_linear" x1="170.18" y1="154.086" x2="192.097" y2="154.086" gradientUnits="userSpaceOnUse">
<stop stop-color="#7DD3F7"/>
<stop offset="1" stop-color="#43B5E8"/>
</linearGradient>
<linearGradient id="paint36_linear" x1="420.92" y1="238.601" x2="435.2" y2="238.601" gradientUnits="userSpaceOnUse">
<stop stop-color="#7DD3F7"/>
<stop offset="1" stop-color="#43B5E8"/>
</linearGradient>
<linearGradient id="paint37_linear" x1="507.104" y1="235.094" x2="555.463" y2="235.094" gradientUnits="userSpaceOnUse">
<stop stop-color="#7DD3F7"/>
<stop offset="1" stop-color="#43B5E8"/>
</linearGradient>
<linearGradient id="paint38_linear" x1="507.104" y1="253.802" x2="555.463" y2="253.802" gradientUnits="userSpaceOnUse">
<stop stop-color="#7DD3F7"/>
<stop offset="1" stop-color="#43B5E8"/>
</linearGradient>
<linearGradient id="paint39_linear" x1="436.665" y1="254.604" x2="450.945" y2="254.604" gradientUnits="userSpaceOnUse">
<stop stop-color="#7DD3F7"/>
<stop offset="1" stop-color="#43B5E8"/>
</linearGradient>
<linearGradient id="paint40_linear" x1="77.5237" y1="260.766" x2="83.9205" y2="260.766" gradientUnits="userSpaceOnUse">
<stop stop-color="#7DD3F7"/>
<stop offset="1" stop-color="#43B5E8"/>
</linearGradient>
<linearGradient id="paint41_linear" x1="84.5766" y1="267.935" x2="90.9734" y2="267.935" gradientUnits="userSpaceOnUse">
<stop stop-color="#7DD3F7"/>
<stop offset="1" stop-color="#43B5E8"/>
</linearGradient>
<linearGradient id="paint42_linear" x1="541.744" y1="188.116" x2="548.08" y2="188.116" gradientUnits="userSpaceOnUse">
<stop stop-color="#7DD3F7"/>
<stop offset="1" stop-color="#43B5E8"/>
</linearGradient>
</defs>
</svg>
