<svg width="65" height="65" viewBox="0 0 65 65" fill="none" xmlns="http://www.w3.org/2000/svg">
<path d="M14.5 13H2V29H14.5V13Z" stroke="#00B9F2" stroke-width="2" stroke-miterlimit="10" stroke-linecap="round" stroke-linejoin="round"/>
<path d="M26.6 18.8C31.0735 18.8 34.7 15.1735 34.7 10.7C34.7 6.22647 31.0735 2.59998 26.6 2.59998C22.1265 2.59998 18.5 6.22647 18.5 10.7C18.5 15.1735 22.1265 18.8 26.6 18.8Z" stroke="#00B9F2" stroke-width="2" stroke-miterlimit="10" stroke-linecap="round" stroke-linejoin="round"/>
<path d="M52.8998 46.2C54.6119 46.2 55.9998 44.8121 55.9998 43.1C55.9998 41.3879 54.6119 40 52.8998 40C51.1877 40 49.7998 41.3879 49.7998 43.1C49.7998 44.8121 51.1877 46.2 52.8998 46.2Z" stroke="#00B9F2" stroke-width="2" stroke-miterlimit="10" stroke-linecap="round" stroke-linejoin="round"/>
<path d="M24.7002 7.59998V13.9L31.0002 11L24.7002 7.59998Z" stroke="#00B9F2" stroke-width="2" stroke-miterlimit="10" stroke-linecap="round" stroke-linejoin="round"/>
<path d="M11.2998 16.7H8.2998H11.2998Z" stroke="#00B9F2" stroke-width="2" stroke-miterlimit="10" stroke-linecap="round" stroke-linejoin="round"/>
<path d="M11.3004 20.9H5.90039H11.3004Z" stroke="#00B9F2" stroke-width="2" stroke-miterlimit="10" stroke-linecap="round" stroke-linejoin="round"/>
<path d="M11.2998 25.2999H6.2998H11.2998Z" stroke="#00B9F2" stroke-width="2" stroke-miterlimit="10" stroke-linecap="round" stroke-linejoin="round"/>
<path d="M44.7998 7.60002C44.7998 7.60002 44.7998 6.60002 44.7998 5.50002C44.7998 4.40002 46.0998 3.40002 47.5998 3.40002H58.0998C59.6998 3.40002 60.8998 4.70002 60.8998 6.20002V17.2C60.8998 18.8 59.5998 20 58.0998 20H47.6998C46.0998 20 44.8998 18.7 44.8998 17.2V11.2" stroke="#00B9F2" stroke-width="2" stroke-miterlimit="10" stroke-linecap="round" stroke-linejoin="round"/>
<path d="M61.0004 47.1999C61.0004 47.1999 61.0004 48.1999 61.0004 49.2999C61.0004 50.3999 59.7004 51.3999 58.2004 51.3999H47.7004C46.1004 51.3999 44.9004 50.0999 44.9004 48.5999V37.5999C44.9004 35.9999 46.2004 34.7999 47.7004 34.7999H58.2004C59.8004 34.7999 61.0004 36.0999 61.0004 37.5999V43.5999" stroke="#00B9F2" stroke-width="2" stroke-miterlimit="10" stroke-linecap="round" stroke-linejoin="round"/>
<path d="M33.3002 26.7999L32.1002 24.2999L18.2002 36.5999L21.0002 41.8999" stroke="#00B9F2" stroke-width="2" stroke-miterlimit="10" stroke-linecap="round" stroke-linejoin="round"/>
<path d="M22.4004 45.1999L40.3004 38.9999L35.0004 29.7999" stroke="#00B9F2" stroke-width="2" stroke-miterlimit="10" stroke-linecap="round" stroke-linejoin="round"/>
<path d="M18.4002 36.4L13.8002 38.6C12.4002 39.3 11.9002 40.9 12.7002 42.3L14.9002 46C15.7002 47.3 17.5002 47.9 18.8002 47.1L22.1002 45.4" stroke="#00B9F2" stroke-width="2" stroke-miterlimit="10" stroke-linecap="round" stroke-linejoin="round"/>
<path d="M20.2998 46.7L22.8998 51.5C22.8998 51.5 23.9998 53.4999 25.7998 52.2999C27.5998 51.1999 26.6998 49.5 26.6998 49.5L24.1998 44.7" stroke="#00B9F2" stroke-width="2" stroke-miterlimit="10" stroke-linecap="round" stroke-linejoin="round"/>
<path d="M12.6004 43.1L9.80037 44.6C9.80037 44.6 9.10037 46.4 10.0004 47.5C11.0004 48.6 14.5004 46.5 14.5004 46.5" stroke="#00B9F2" stroke-width="2" stroke-miterlimit="10" stroke-linecap="round" stroke-linejoin="round"/>
<path d="M15.4998 33.7999H5.2998V55.3999" stroke="#00B9F2" stroke-width="2" stroke-miterlimit="10" stroke-linecap="round" stroke-linejoin="round"/>
<path d="M33.9004 44.6V55.4" stroke="#00B9F2" stroke-width="2" stroke-miterlimit="10" stroke-linecap="round" stroke-linejoin="round"/>
<path d="M2 55.9H37.3" stroke="#00B9F2" stroke-width="2" stroke-miterlimit="10" stroke-linecap="round" stroke-linejoin="round"/>
<path d="M2.5 55.9V59.5C2.5 61.1 3.8 62.3 5.3 62.3H33.9C35.5 62.3 36.7 61 36.7 59.5V55.9" stroke="#00B9F2" stroke-width="2" stroke-miterlimit="10" stroke-linecap="round" stroke-linejoin="round"/>
<path d="M9.5 59.2V62.4" stroke="#00B9F2" stroke-width="2" stroke-miterlimit="10" stroke-linecap="round" stroke-linejoin="round"/>
<path d="M29.7002 59.2V62.4" stroke="#00B9F2" stroke-width="2" stroke-miterlimit="10" stroke-linecap="round" stroke-linejoin="round"/>
<path d="M36.0996 23.4L40.1996 18.2L36.0996 23.4Z" stroke="#00B9F2" stroke-width="2" stroke-miterlimit="10" stroke-linecap="round" stroke-linejoin="round"/>
<path d="M38.9004 27.5L44.8004 23.2L38.9004 27.5Z" stroke="#00B9F2" stroke-width="2" stroke-miterlimit="10" stroke-linecap="round" stroke-linejoin="round"/>
<path d="M41.5996 31.1999L48.7996 29.7999L41.5996 31.1999Z" stroke="#00B9F2" stroke-width="2" stroke-miterlimit="10" stroke-linecap="round" stroke-linejoin="round"/>
<path d="M56.7998 7.59998C56.7998 7.59998 55.6998 7.59998 54.2998 7.59998C52.8998 7.59998 51.7998 8.89998 51.7998 10.4V16.6" stroke="#00B9F2" stroke-width="2" stroke-miterlimit="10" stroke-linecap="round" stroke-linejoin="round"/>
<path d="M49.0996 12.1H54.6996" stroke="#00B9F2" stroke-width="2" stroke-miterlimit="10" stroke-linecap="round" stroke-linejoin="round"/>
</svg>
