<svg width="526" height="469" viewBox="0 0 526 469" fill="none" xmlns="http://www.w3.org/2000/svg">
<g filter="url(#filter0_d)">
<path d="M290.408 327.321C291.133 325.955 277.168 317.122 259.215 307.592C241.263 298.062 226.122 291.444 225.397 292.81C224.672 294.176 238.637 303.009 256.589 312.539C274.542 322.069 289.683 328.687 290.408 327.321Z" fill="#9D9FA2"/>
<path d="M233.788 276.113C234.021 275.674 229.741 272.945 224.229 270.019C218.716 267.093 214.058 265.077 213.825 265.516C213.592 265.955 217.872 268.683 223.385 271.609C228.897 274.535 233.555 276.552 233.788 276.113Z" fill="#9D9FA2"/>
<path d="M208.772 270.322C209.005 269.883 207.81 268.793 206.103 267.886C204.395 266.98 202.822 266.601 202.589 267.04C202.356 267.479 203.551 268.57 205.259 269.476C206.966 270.382 208.539 270.761 208.772 270.322Z" fill="#9D9FA2"/>
<path d="M241.868 249.334C242.101 248.895 240.906 247.804 239.198 246.898C237.491 245.992 235.918 245.613 235.685 246.052C235.452 246.491 236.647 247.581 238.354 248.488C240.062 249.394 241.635 249.773 241.868 249.334Z" fill="#EBEBEC"/>
<path d="M332.798 314.891C333.032 314.452 331.836 313.361 330.129 312.455C328.422 311.548 326.848 311.169 326.615 311.608C326.382 312.047 327.577 313.138 329.285 314.044C330.992 314.951 332.565 315.33 332.798 314.891Z" fill="#9D9FA2"/>
<path d="M311.973 335.343C312.207 334.904 307.927 332.176 302.414 329.25C296.902 326.323 292.244 324.307 292.011 324.746C291.778 325.185 296.058 327.913 301.57 330.84C307.083 333.766 311.74 335.782 311.973 335.343Z" fill="#9D9FA2"/>
<path d="M318.532 308.23C318.765 307.791 314.485 305.063 308.973 302.136C303.46 299.21 298.803 297.194 298.569 297.633C298.336 298.072 302.616 300.8 308.129 303.726C313.641 306.653 318.299 308.669 318.532 308.23Z" fill="#9D9FA2"/>
<path d="M416.3 192.8C417 195.4 417.9 198 419 200.4C419.2 200.8 419.4 201.2 419.6 201.6L437 237L438.2 239.4L453.9 271.4C454.6 272.9 456 273.7 456.7 273L491 242.7C494.1 240 495.8 235.1 495.3 228.5C494.8 222.6 492.6 216.3 489.3 210.7C486 205.1 481.7 200.3 476.9 197.1C466.8 190.4 458.1 193.3 455.9 202.8C455.8 203.3 455 202.9 454.9 202.2C452.7 190.2 444.1 177.3 433.9 172.3C424.3 167.5 416.4 171.9 415.4 182.4C415.1 185.7 415.4 189.2 416.3 192.8Z" fill="#9D9FA2"/>
<path d="M390.099 194.6C390.699 188.2 395.499 185.5 401.299 188.4C407.499 191.5 412.799 199.3 414.099 206.6C414.199 207 414.599 207.3 414.699 207C415.999 201.2 421.299 199.5 427.499 203.5C433.399 207.4 438.199 215.5 438.699 222.6C438.999 226.6 437.999 229.6 436.099 231.3L415.199 249.8C414.799 250.2 413.899 249.7 413.499 248.8L392.699 206.2C390.799 202.4 389.799 198.3 390.099 194.6Z" fill="#9D9FA2"/>
<path d="M451.9 201.899C451.9 201.899 446.2 178.499 425.1 174.399C425.2 174.399 435.7 189.899 451.9 201.899Z" fill="#E3E3E8"/>
<path d="M434.899 227.099C434.899 227.099 439.099 213.599 423.899 205.199C423.899 205.199 434.499 213.299 434.899 227.099Z" fill="#E3E3E8"/>
<path d="M412.1 208.8C412.1 208.8 410.3 195.9 396.6 189.1C396.6 189.2 406.5 200.8 412.1 208.8Z" fill="#E3E3E8"/>
<path d="M491.5 228.999C491.5 219.799 482.5 199.899 464.5 196.899C464.5 196.899 473.4 199.199 482.2 209.999C489.5 218.999 491.5 228.999 491.5 228.999Z" fill="#E3E3E8"/>
<path d="M428.799 217.1C428.899 215.4 430.199 214.8 431.699 215.5C433.299 216.3 434.699 218.3 434.999 220.2C434.999 220.3 435.099 220.4 435.199 220.3C435.499 218.8 436.899 218.3 438.499 219.4C439.999 220.4 441.299 222.5 441.399 224.4C441.499 225.4 441.199 226.2 440.699 226.6L435.299 231.4C435.199 231.5 434.999 231.4 434.899 231.1L429.499 220.1C428.999 219.1 428.699 218.1 428.799 217.1Z" fill="#E3E3E8"/>
<path d="M109 337.899V329.099L136.5 320.399L221.6 362.599V371.199L194.6 386.999L109 337.899Z" fill="#E0E0E0"/>
<path d="M107.6 328.299V325.999L136.5 311.699L223.5 359.299V361.599L194.6 378.299L107.6 328.299Z" fill="#00BAFF"/>
<path d="M107.6 325.899L136.5 309.199L223.5 359.199L194.6 375.899L107.6 325.899Z" fill="url(#paint0_linear)"/>
<path d="M194.899 378.1V386.9L221.899 371.1V362.5L194.899 378.1Z" fill="#F8F8F8"/>
<path d="M174.599 267.099L261.299 217.099V212.699L195.399 214.599L107.199 223.799V228.199L174.599 267.099Z" fill="#E3E3E8"/>
<path d="M174.599 265.699L261.299 215.699V214.199L193.899 176.699L107.199 225.299V226.799L174.599 265.699Z" fill="url(#paint1_linear)"/>
<path d="M174.599 264.2L261.299 214.2L193.899 175.3L107.199 225.4L174.599 264.2Z" fill="#FE2E57"/>
<path d="M174.599 262.7L261.299 212.7L193.899 173.8L107.199 223.9L174.599 262.7Z" fill="#A5A5AF"/>
<path opacity="0.85" d="M261.2 206.1L174.5 256.1L162.3 249.1L157.6 246.4L155.6 245.2L125.6 227.9L124.5 227.3L119.2 224.2L107.1 217.2L193.8 167.1L261.2 206.1Z" fill="#85DEFF"/>
<path d="M261.2 212.699V214.199L174.5 264.199L107.1 225.299V223.799L174.5 262.699L261.2 212.699Z" fill="#EFEDED"/>
<path d="M376.799 383.8L463.499 333.8V332.3L397.599 331.3L309.399 343.5V345L376.799 383.8Z" fill="url(#paint2_linear)"/>
<path d="M376.799 382.399L463.499 332.399V330.899L396.099 293.399L309.399 341.999V343.499L376.799 382.399Z" fill="#F8F8F8"/>
<path d="M376.799 380.9L463.499 330.9L396.099 292L309.399 342L376.799 380.9Z" fill="#FE2E57"/>
<path d="M376.799 379.4L463.499 329.4L396.099 290.5L309.399 340.6L376.799 379.4Z" fill="url(#paint3_linear)"/>
<path opacity="0.85" d="M463.499 322.8L376.799 372.8L364.599 365.8L359.899 363.1L357.899 361.9L327.899 344.6L326.799 344L321.499 340.9L309.399 333.9L396.099 283.8L463.499 322.8Z" fill="#EBF2FC"/>
<path d="M463.499 329.399V330.899L376.799 380.899L309.399 341.999V340.499L376.799 379.399L463.499 329.399Z" fill="#00BAFF"/>
<path d="M45.9998 237.599C45.3998 226.499 37.8998 222.899 37.7998 222.899L38.0998 222.199C38.1998 222.199 46.0998 225.999 46.6998 237.499L45.9998 237.599Z" fill="#C0C2D1"/>
<path d="M116.8 278.4L116.1 278.3C117.8 266.2 127.4 261.6 127.5 261.6L127.8 262.3C127.7 262.3 118.4 266.7 116.8 278.4Z" fill="#C0C2D1"/>
<path d="M52.0996 252.799L136 289.399V290.899L116.8 301.999L30.0996 251.899V250.399L52.0996 252.799Z" fill="url(#paint4_linear)"/>
<path d="M49.2996 239.3L136 289.3L116.8 300.4L30.0996 250.3L49.2996 239.3Z" fill="#F8F8F8"/>
<path d="M129.699 288.399L127.199 289.899L115.299 296.799L39.1992 252.699L36.6992 251.199L51.0992 242.899L129.699 288.399Z" fill="#E3E3E8"/>
<path d="M64.8998 256.1C63.3998 247.7 65.1998 242 67.0998 238.7C69.0998 235.1 71.3998 233.6 71.4998 233.5L71.8998 234.1C71.7998 234.2 62.7998 240.3 65.5998 256L64.8998 256.1Z" fill="#C0C2D1"/>
<path d="M56.0996 224.199L63.9996 229.999C63.9996 229.999 71.7996 221.599 70.1996 214.599C70.0996 214.599 62.5996 213.999 56.0996 224.199Z" fill="url(#paint5_linear)"/>
<path d="M50.7998 223.6L56.9998 219.8C56.9998 219.8 53.0998 211.3 47.8998 211.5C47.7998 211.5 45.6998 216.3 50.7998 223.6Z" fill="url(#paint6_linear)"/>
<path d="M79.2998 238.3L87.7998 240C87.7998 240 91.3998 229.4 86.5998 225.3C86.5998 225.3 80.7998 227.7 79.2998 238.3Z" fill="url(#paint7_linear)"/>
<path d="M56.1996 233.8C57.4996 228.4 63.9996 220.8 63.9996 220.8C63.9996 220.8 57.9996 226.7 55.9996 232C54.9996 223.1 50.5996 216.3 50.5996 216.3C50.6996 216.5 60.0996 234.2 52.6996 248.8L53.3996 249.1C55.8996 244.1 56.4996 238.7 56.1996 233.8Z" fill="#C0C2D1"/>
<path d="M91.1992 241.299L93.4992 245.899C93.4992 245.899 99.7992 243.699 99.8992 239.899C99.9992 239.999 96.6992 238.099 91.1992 241.299Z" fill="#E0E0E0"/>
<path d="M127.1 289.9L115.2 296.8L95.5996 285.4L95.4996 285.3L83.5996 278.4L80.8996 276.8L62.0996 266L60.1996 264.9L39.0996 252.7L50.9996 245.8L54.3996 247.8L56.1996 248.8L62.8996 252.7L63.4996 253L74.6996 259.5L78.9996 262L82.7996 264.2L84.6996 265.3L96.7996 272.3L98.6996 273.4L101 274.7L104.6 276.8L108 278.8L110.3 280.2L127.1 289.9Z" fill="#C0C2D1"/>
<path d="M116.8 301.899V311.599L72.4996 286.499L71.9996 286.199L71.7996 286.099C70.9996 285.599 70.4996 285.399 70.4996 285.399L39.6996 267.899L33.5996 253.899L97.2996 290.699L116.8 301.899Z" fill="#E0E0E0"/>
<path d="M108 248L112.5 255.8C112.5 255.8 123.9 251.6 126.1 244.3C126.1 244.4 117.3 241.8 108 248Z" fill="url(#paint8_linear)"/>
<path d="M133.9 292L132.1 302.7L128.3 304.9L116.8 311.6V301.9L121.9 298.9L133.9 292Z" fill="#F8F8F8"/>
<path d="M85.5994 263.7C84.2994 246.6 95.6994 241.8 95.6994 241.8C95.6994 241.8 92.9994 243.1 90.4994 246.4C88.1994 249.5 85.5994 254.9 86.2994 263.6L85.5994 263.7Z" fill="#C0C2D1"/>
<path d="M93.9998 270.6L93.2998 270.5C94.6998 263.4 101.3 257.6 106.6 254C110.1 251.6 114 249.8 118.1 248.5C117.9 248.5 96.6998 257.4 93.9998 270.6Z" fill="#C0C2D1"/>
<path d="M85.7001 269.4C78.8001 248.1 85.1001 231 85.1001 231C84.2001 235 83.5001 239.1 83.1001 243.2C82.6001 249 82.8001 258.2 86.4001 269.2L85.7001 269.4Z" fill="#C0C2D1"/>
<path d="M98.6994 275.1C97.8994 280.4 96.7994 283.5 95.4994 285.4L83.5994 278.5L80.8994 276.9C80.8994 275.2 81.0994 273.6 81.2994 271.9C81.2994 271.9 81.8994 268.2 82.6994 264.2C83.6994 259.2 84.8994 253.6 85.5994 253.9C86.7994 254.3 86.3994 263.4 87.7994 262.4C89.1994 261.3 88.7994 248.9 90.2994 249C91.8994 249.1 90.7994 267.8 92.6994 267.2C94.5994 266.5 92.8994 253.5 95.4994 254C97.5994 254.4 98.2994 268.5 98.4994 273.5C98.6994 274.5 98.6994 275.1 98.6994 275.1Z" fill="#E0E0E0"/>
<path d="M127.1 289.9L115.2 296.8L95.5996 285.4C95.7996 281.8 96.1996 276.8 96.6996 272.3C97.3996 266.2 98.2996 261 99.2996 260.9C100.7 260.8 100.7 268.4 100.8 274.7C100.9 279.1 101.2 282.8 102.2 282.7C103.6 282.7 103.9 279.5 104.4 276.8C104.7 274.8 105.2 273 106.2 272.7C107.6 272.2 107.6 275.8 107.9 278.8C108.1 281 108.4 282.8 109.3 282.5C109.8 282.3 110.1 281.4 110.2 280.2C110.7 275.6 109.7 266 111.3 266.6C113.3 267.3 113.3 280.3 114.8 279.9C116.3 279.5 113.5 258.7 116.7 258.4C119.9 258.2 120.8 280.2 123.2 280.5C125.5 280.9 124.5 267.2 127.1 268C129.7 268.9 127.1 289.9 127.1 289.9Z" fill="url(#paint9_linear)"/>
<path d="M84.6992 265.3C84.5992 270.7 84.1992 275.9 83.6992 278.5L62.0992 266L60.1992 264.9C60.4992 263.4 61.0992 262 61.7992 260.7C61.7992 260.7 62.4992 257 63.4992 253C64.6992 248.1 66.2992 242.6 67.5992 242.7C69.8992 242.8 65.7992 254 67.5992 254.6C69.3992 255.2 71.9992 240.2 74.0992 240.8C75.6992 241.2 73.7992 253 74.6992 259.5C74.9992 261.6 75.5992 263.2 76.6992 263.6C77.6992 264 78.4992 263.3 79.0992 262C81.0992 257.5 81.2992 246.1 83.0992 246.9C84.2992 247.4 84.7992 256.7 84.6992 265.3Z" fill="url(#paint10_linear)"/>
<path d="M62.0997 266L39.0997 252.6C39.0997 252.6 37.8997 235.2 40.4997 235.4C43.0997 235.6 42.6997 245.3 43.8997 245.7C45.1997 246.1 42.6997 227.2 45.9997 227.6C49.2997 228 47.0997 244.4 49.2997 243.7C51.4997 243 49.3997 232.8 52.7997 232.9C55.3997 232.9 54.1997 242.8 54.2997 247.7C54.3997 249.1 54.4997 250.1 54.9997 250.3C55.4997 250.5 55.8997 249.8 56.0997 248.7C56.7997 245.6 57.0997 239.1 59.5997 240.1C61.4997 240.8 62.4997 246.5 62.7997 252.6C63.0997 257.8 62.7997 263.1 62.0997 266Z" fill="#E0E0E0"/>
<path d="M36.5998 224.9C37.8998 224.9 38.8998 223.9 38.8998 222.6C38.8998 221.3 37.8998 220.3 36.5998 220.3C35.2998 220.3 34.2998 221.3 34.2998 222.6C34.2998 223.9 35.2998 224.9 36.5998 224.9Z" fill="#E0E0E0"/>
<path d="M127.6 264.299C128.9 264.299 129.9 263.299 129.9 261.999C129.9 260.699 128.9 259.699 127.6 259.699C126.3 259.699 125.3 260.699 125.3 261.999C125.3 263.299 126.3 264.299 127.6 264.299Z" fill="url(#paint11_linear)"/>
<path d="M72.4994 235.8C73.6994 235.8 74.5994 234.9 74.5994 233.7C74.5994 232.5 73.6994 231.6 72.4994 231.6C71.2994 231.6 70.3994 232.5 70.3994 233.7C70.3994 234.9 71.2994 235.8 72.4994 235.8Z" fill="#E0E0E0"/>
<path d="M116.8 301.9V311.6L72.5 286.5C77.9 289.5 92.7 297.4 95.1 296.3C98 294.9 97.3 290.7 97.3 290.7L116.8 301.9Z" fill="#E0E0E0"/>
<path d="M128.3 304.899L116.8 311.599V301.899L121.9 298.899C121.9 298.899 121.9 298.999 122 298.999C122 298.999 121.2 302.599 122 304.799C122.7 306.999 128.3 304.899 128.3 304.899Z" fill="#E0E0E0"/>
<path d="M248.3 354.4C247.7 343.3 240.2 339.7 240.1 339.7L240.4 339C240.5 339 248.4 342.8 249 354.3L248.3 354.4Z" fill="#C0C2D1"/>
<path d="M319.099 395.199L318.399 395.099C320.099 382.999 329.699 378.399 329.799 378.399L330.099 379.099C329.999 379.099 320.699 383.499 319.099 395.199Z" fill="#C0C2D1"/>
<path d="M254.4 369.6L338.3 406.2V407.7L319 418.7L232.3 368.6V367.1L254.4 369.6Z" fill="url(#paint12_linear)"/>
<path d="M251.6 356.1L338.3 406.1L319 417.2L232.3 367.1L251.6 356.1Z" fill="#F8F8F8"/>
<path d="M331.899 405.199L329.399 406.699L317.499 413.599L241.399 369.499L238.899 367.999L253.299 359.699L331.899 405.199Z" fill="#E3E3E8"/>
<path d="M267.2 372.799C265.7 364.399 267.5 358.699 269.4 355.399C271.4 351.799 273.7 350.299 273.8 350.199L274.2 350.799C274.1 350.899 265.1 356.999 267.9 372.699L267.2 372.799Z" fill="#C0C2D1"/>
<path d="M258.399 340.999L266.299 346.799C266.299 346.799 274.099 338.399 272.499 331.399C272.399 331.399 264.799 330.799 258.399 340.999Z" fill="url(#paint13_linear)"/>
<path d="M253.1 340.399L259.3 336.599C259.3 336.599 255.4 328.099 250.2 328.299C250.1 328.299 247.9 333.099 253.1 340.399Z" fill="#E0E0E0"/>
<path d="M281.6 355.1L290.1 356.8C290.1 356.8 293.7 346.2 288.9 342.1C288.9 342.1 283.1 344.5 281.6 355.1Z" fill="url(#paint14_linear)"/>
<path d="M258.499 350.6C259.799 345.2 266.299 337.6 266.299 337.6C266.299 337.6 260.299 343.5 258.299 348.8C257.299 339.9 252.899 333.1 252.899 333.1C252.999 333.3 262.399 351 254.999 365.6L255.699 365.9C258.199 360.9 258.799 355.5 258.499 350.6Z" fill="#C0C2D1"/>
<path d="M293.5 358.1L295.8 362.7C295.8 362.7 302.1 360.5 302.2 356.7C302.3 356.7 299 354.9 293.5 358.1Z" fill="url(#paint15_linear)"/>
<path d="M329.399 406.7L317.499 413.6L297.899 402.2L297.799 402.1L285.899 395.2L283.199 393.6L264.399 382.7L262.499 381.6L241.399 369.4L253.299 362.5L256.699 364.5L258.499 365.5L265.199 369.4L265.799 369.7L276.999 376.2L281.299 378.7L285.099 380.9L286.999 382L299.099 389L300.999 390.1L303.299 391.4L306.899 393.5L310.299 395.5L312.599 396.9L329.399 406.7Z" fill="#C0C2D1"/>
<path d="M318.999 418.699V428.399L274.699 403.299L274.199 402.999L273.999 402.899C273.199 402.399 272.699 402.199 272.699 402.199L241.999 384.699L235.899 370.699L299.599 407.499L318.999 418.699Z" fill="#E0E0E0"/>
<path d="M310.3 364.8L314.8 372.6C314.8 372.6 326.2 368.4 328.4 361.1C328.4 361.1 319.5 358.6 310.3 364.8Z" fill="url(#paint16_linear)"/>
<path d="M336.1 408.8L334.3 419.5L330.5 421.7L319 428.4V418.7L324.1 415.7L336.1 408.8Z" fill="#F8F8F8"/>
<path d="M287.899 380.5C286.599 363.4 297.999 358.6 297.999 358.6C297.999 358.6 295.299 359.9 292.799 363.2C290.499 366.3 287.899 371.7 288.599 380.4L287.899 380.5Z" fill="#C0C2D1"/>
<path d="M296.3 387.4L295.6 387.3C297 380.2 303.6 374.4 308.9 370.8C312.4 368.4 316.3 366.6 320.4 365.3C320.2 365.3 299 374.2 296.3 387.4Z" fill="#C0C2D1"/>
<path d="M288 386.2C281.1 364.9 287.4 347.8 287.4 347.8C286.5 351.8 285.8 355.9 285.4 360C284.9 365.8 285.1 375 288.7 386L288 386.2Z" fill="#C0C2D1"/>
<path d="M300.999 391.899C300.199 397.199 299.099 400.299 297.799 402.199L285.899 395.299L283.199 393.699C283.199 391.999 283.399 390.399 283.599 388.699C283.599 388.699 284.199 384.999 284.999 380.999C285.999 375.999 287.199 370.399 287.899 370.699C289.099 371.099 288.699 380.199 290.099 379.199C291.499 378.099 291.099 365.699 292.599 365.799C294.199 365.899 293.099 384.599 294.999 383.999C296.899 383.299 295.199 370.299 297.799 370.799C299.899 371.199 300.599 385.299 300.799 390.299C300.899 391.299 300.999 391.899 300.999 391.899Z" fill="url(#paint17_linear)"/>
<path d="M329.399 406.7L317.499 413.6L297.899 402.2C298.099 398.6 298.499 393.6 298.999 389.1C299.699 383 300.599 377.8 301.599 377.7C302.999 377.6 302.999 385.2 303.099 391.5C303.199 395.9 303.499 399.6 304.499 399.5C305.899 399.5 306.199 396.3 306.699 393.6C306.999 391.6 307.499 389.8 308.499 389.5C309.899 389 309.899 392.6 310.199 395.6C310.399 397.8 310.699 399.6 311.599 399.3C312.099 399.1 312.399 398.2 312.499 397C312.999 392.4 311.999 382.8 313.599 383.4C315.599 384.1 315.599 397.1 317.099 396.7C318.599 396.3 315.799 375.5 318.999 375.2C322.199 375 323.099 397 325.499 397.3C327.799 397.7 326.799 384 329.399 384.8C331.999 385.7 329.399 406.7 329.399 406.7Z" fill="url(#paint18_linear)"/>
<path d="M287 382.1C286.9 387.5 286.5 392.7 286 395.3L264.5 382.8L262.6 381.7C262.9 380.2 263.5 378.8 264.2 377.5C264.2 377.5 264.9 373.8 265.9 369.8C267.1 364.9 268.7 359.4 270 359.5C272.3 359.6 268.2 370.8 270 371.4C271.8 372 274.4 357 276.5 357.6C278.1 358 276.2 369.8 277.1 376.3C277.4 378.4 278 380 279.1 380.4C280.1 380.8 280.9 380.1 281.5 378.8C283.5 374.3 283.7 362.9 285.5 363.7C286.6 364.2 287.1 373.5 287 382.1Z" fill="#E0E0E0"/>
<path d="M264.4 382.8L241.4 369.4C241.4 369.4 240.2 352 242.8 352.2C245.4 352.4 245 362.1 246.2 362.5C247.5 362.9 245 344 248.3 344.4C251.6 344.8 249.4 361.2 251.6 360.5C253.8 359.8 251.7 349.6 255.1 349.7C257.8 349.7 256.5 359.6 256.6 364.5C256.7 365.9 256.8 366.9 257.3 367.1C257.8 367.3 258.2 366.6 258.4 365.5C259.1 362.4 259.4 355.9 261.9 356.9C263.8 357.6 264.8 363.3 265.1 369.4C265.4 374.6 265.1 379.9 264.4 382.8Z" fill="url(#paint19_linear)"/>
<path d="M241.1 339.9C241.4 338.7 240.6 337.5 239.4 337.2C238.2 336.9 237 337.7 236.7 338.9C236.4 340.1 237.2 341.3 238.4 341.6C239.6 341.9 240.8 341.1 241.1 339.9Z" fill="#E0E0E0"/>
<path d="M331.9 380.1C332.6 379 332.3 377.6 331.2 376.9C330.1 376.2 328.7 376.5 328 377.6C327.3 378.7 327.6 380.1 328.7 380.8C329.7 381.4 331.2 381.1 331.9 380.1Z" fill="url(#paint20_linear)"/>
<path d="M274.7 352.599C275.9 352.599 276.8 351.699 276.8 350.499C276.8 349.299 275.9 348.399 274.7 348.399C273.5 348.399 272.6 349.299 272.6 350.499C272.6 351.699 273.6 352.599 274.7 352.599Z" fill="url(#paint21_linear)"/>
<path d="M318.999 418.7V428.4L274.699 403.3C280.099 406.3 294.899 414.2 297.299 413.1C300.199 411.7 299.499 407.5 299.499 407.5L318.999 418.7Z" fill="#E0E0E0"/>
<path d="M330.6 421.699L319.1 428.399V418.699L324.2 415.699C324.2 415.699 324.2 415.799 324.3 415.799C324.3 415.799 323.5 419.399 324.3 421.599C325 423.799 330.6 421.699 330.6 421.699Z" fill="#E0E0E0"/>
<path d="M285 20.8997L367.6 68.5997C369.7 69.7997 371.4 71.4997 372.6 73.5997C373.8 75.6997 374.4 77.9997 374.4 80.3997V275.8C374.4 276.6 374.2 277.4 373.8 278.1C373.4 278.8 372.8 279.4 372.1 279.8C371.4 280.2 370.6 280.4 369.8 280.4C369 280.4 368.2 280.2 367.5 279.8L284.9 232.1C282.8 230.9 281.1 229.2 279.9 227.1C278.7 225 278.1 222.7 278.1 220.3V24.8997C278.1 24.0997 278.3 23.2997 278.7 22.5997C279.1 21.8997 279.7 21.2997 280.4 20.8997C281.1 20.4997 281.9 20.2997 282.7 20.2997C283.5 20.1997 284.3 20.4997 285 20.8997Z" fill="url(#paint22_linear)"/>
<path d="M280.1 21.0996L272.6 26.8996L274.6 30.1996L283.3 27.3996L280.1 21.0996Z" fill="url(#paint23_linear)"/>
<path d="M372.599 279.5L365.499 285L362.399 282.2L371.999 275.5L372.599 279.5Z" fill="url(#paint24_linear)"/>
<path d="M277.799 26.3998L360.399 74.0998C362.499 75.2998 364.199 76.9998 365.399 79.0998C366.599 81.1998 367.199 83.4998 367.199 85.8998V281.3C367.199 282.1 366.999 282.9 366.599 283.6C366.199 284.3 365.599 284.9 364.899 285.3C364.199 285.7 363.399 285.9 362.599 285.9C361.799 285.9 360.999 285.7 360.299 285.3L277.699 237.6C275.599 236.4 273.899 234.7 272.699 232.6C271.499 230.5 270.899 228.2 270.899 225.8V30.3998C270.899 29.5998 271.099 28.7998 271.499 28.0998C271.899 27.3998 272.499 26.7998 273.199 26.3998C273.899 25.9998 274.699 25.7998 275.499 25.7998C276.299 25.7998 277.099 25.9998 277.799 26.3998Z" fill="#636466"/>
<path d="M363.799 91.4994V271.899C363.799 272.699 363.599 273.499 363.199 274.199C362.799 274.899 362.199 275.499 361.499 275.899C360.799 276.299 359.999 276.499 359.199 276.499C358.399 276.499 357.599 276.299 356.899 275.899L353.399 273.899L346.599 269.999L345.899 269.599L293.299 239.199L289.499 236.999L281.699 232.499L281.199 232.199C279.099 230.999 277.399 229.299 276.199 227.199C274.999 225.099 274.399 222.799 274.399 220.399V39.9994C274.399 39.1994 274.599 38.3994 274.999 37.6994C275.399 36.9994 275.999 36.3994 276.699 35.9994C277.399 35.5994 278.199 35.3994 278.999 35.3994C279.799 35.3994 280.599 35.5994 281.299 35.9994L293.399 42.9994L341.399 70.6994L356.899 79.6994C358.999 80.8994 360.699 82.5994 361.899 84.6994C363.099 86.6994 363.799 89.0994 363.799 91.4994Z" fill="#F8F8F8"/>
<path d="M343.9 71.1998L332.7 77.6998C332 78.0998 331.1 78.2998 330.3 78.2998C329.5 78.2998 328.6 78.0998 327.9 77.6998L303.9 63.7998C302.3 62.8998 301.1 61.3998 300.4 59.5998L294.1 41.7998L343.9 71.1998Z" fill="#656668"/>
<path d="M317.5 64.8999C317.5 66.2999 316.6 66.7999 315.4 66.0999C314.2 65.3999 313.3 63.7999 313.3 62.3999C313.3 60.9999 314.2 60.4999 315.4 61.1999C316.5 61.8999 317.5 63.4999 317.5 64.8999Z" fill="url(#paint25_linear)"/>
<path d="M316.8 64.4999C316.8 65.4999 316.1 65.7999 315.3 65.3999C314.9 65.0999 314.5 64.6999 314.2 64.2999C313.9 63.7999 313.8 63.2999 313.8 62.7999C313.8 61.7999 314.5 61.4999 315.3 61.8999C315.7 62.1999 316.1 62.5999 316.4 62.9999C316.7 63.4999 316.8 63.9999 316.8 64.4999Z" fill="#F8F8F8"/>
<path d="M291.1 184.899L289.5 236.899L281.7 232.399C281.4 221.899 280.5 181.499 281.8 180.799C283.2 180.099 291.1 184.899 291.1 184.899Z" fill="#E3E3E8"/>
<path d="M357.5 262.499C356.5 265.599 354.7 270.299 353.3 273.799L346.5 269.899C347.9 264.899 350.2 256.599 350 254.599C349.6 249.399 346.1 222.399 346.1 222.399L355.8 224.899C355.8 224.899 359.3 256.899 357.5 262.499Z" fill="#E3E3E8"/>
<path d="M360.1 231.599C360.1 231.599 352.3 234.499 345 225.599L345.8 269.499L293.2 239.099V192.299C293.2 192.299 284.9 193.399 277.5 180.999C277.5 180.999 283.8 143.499 288.5 142.599C290.5 142.199 295 143.399 299.4 144.799C300 144.999 300.6 145.199 301.3 145.399C303.1 145.999 304.9 146.699 306.4 147.199C307.1 147.399 307.7 147.699 308.3 147.899C310.2 148.599 311.4 149.099 311.4 149.099C319.8 152.399 323.3 154.899 330.9 160.499C331.6 160.999 332.4 161.599 333.1 162.199C335.6 164.199 338.5 166.599 341.3 169.099C341.9 169.599 342.5 170.099 343 170.699C348.3 175.499 353 180.299 353.9 181.999C358.4 191.199 360.1 231.599 360.1 231.599Z" fill="url(#paint26_linear)"/>
<path d="M313.3 139.199L314 149.499L310.6 148.799C310.6 148.799 310.9 157.199 321.1 163.099C331 168.799 331 160.599 331 160.599L327.1 157.399L327.6 147.899L313.3 139.199Z" fill="#E3E3E8"/>
<path d="M313.3 140.199C313.3 140.199 316 148.599 320.3 151.199C324.6 153.799 327.5 147.699 327.5 147.699L320 145.099L313.3 140.199Z" fill="#C4C4C4"/>
<path d="M309.699 128.599C309.699 128.599 311.099 137.299 311.799 138.299C312.499 139.299 318.199 146.199 320.199 147.199C322.199 148.199 328.299 147.999 329.299 147.199C330.299 146.399 332.299 129.099 332.299 128.099C332.299 126.999 316.599 98.3994 316.599 98.3994C316.599 98.3994 309.299 104.799 309.099 104.999C308.899 105.199 306.799 115.199 309.699 128.599Z" fill="#E3E3E8"/>
<path d="M308.2 116.1C308.2 116.1 306.2 114 304.6 114.9C303 115.8 305.4 124 309.2 126.2C313 128.4 309.2 120.8 309.2 120.8L308.2 116.1Z" fill="#E3E3E8"/>
<path d="M332.299 129.699C332.299 129.699 336.099 131.299 336.099 133.599C336.099 135.099 335.399 140.599 333.499 140.099C331.599 139.599 331.199 138.799 331.199 138.799V131.399L332.299 129.699Z" fill="#E3E3E8"/>
<path d="M306.7 116.1C306.7 116.1 307.5 118 308.7 117.3C309.9 116.6 308.8 114 309.6 114.2C310.4 114.4 313.7 114.3 313.1 112.1C312.5 109.9 313.7 109.4 314.2 110.1C314.7 110.8 315 110.8 315.4 110.7C315.8 110.6 316.8 114.6 318.5 115.4C320.2 116.2 320.6 119.1 321.6 119.4C322.6 119.7 323.9 123.6 325.7 124.2C327.4 124.7 327.3 128.1 328.6 128.7C329.8 129.3 331 131.3 332.1 132.1C333.2 132.9 333.7 132.9 333.7 132.9L333.2 126.9L326.4 112.8C326.4 112.8 311.2 98.2 310.6 97.7C310 97.2 302.3 103.3 302.3 103.3L306.7 116.1Z" fill="#C4C4C4"/>
<path d="M314.9 108C314.9 108 316 113 318.4 114.5C320.8 116 320.4 117.4 322 118.5C323.7 119.6 324.5 122.8 326.1 123.4C327.7 123.9 327.7 127.1 329.9 128.4C332.1 129.7 331.4 129.4 332.2 129.8C333 130.2 332.4 132.1 333.5 132.9C334.6 133.6 331.8 139.1 332.3 139.9C332.8 140.7 331 138.9 331 138.9L329.6 146.5C329.6 146.5 333.5 150.4 333.4 147.8C333.3 145.1 334.8 148.1 337.3 148.7C339.8 149.3 337 144.7 340.4 146.7C343.8 148.7 339.6 141.7 342.2 141.4C344.8 141.1 342 137.8 343.8 136.6C345.6 135.4 343 132.6 345.5 132.2C348 131.8 344.6 127 346 124.7C347.5 122.4 346.6 119.1 344.6 117.6C342.6 116.1 343.8 114.1 345.7 112.1C347.7 110.1 343 105.3 340.5 104.8C338 104.3 341.1 99.4997 337.9 96.5997C334.7 93.6997 335.2 97.1997 332.6 95.0997C330 92.9997 335.2 92.1997 330.7 87.3997C326.2 82.5997 326.4 86.5997 324.3 85.2997C322.2 83.9997 321.6 79.2997 319.1 78.8997C316.6 78.4997 317.2 81.1997 314.7 79.5997C312.2 77.9997 311.8 73.9997 309 73.7997C306.2 73.5997 306.7 76.8997 305.3 77.2997C303.8 77.6997 303.2 74.7997 301.7 76.3997C300.1 77.9997 301.9 79.9997 300 80.0997C298.1 80.1997 297.1 78.9997 296.6 81.1997C296.1 83.3997 298.2 85.1997 296.6 85.4997C295 85.7997 292.3 83.1997 293.2 85.6997C294 88.1997 292.9 88.9997 291.7 89.9997C290.5 90.9997 290.7 93.4997 291.7 95.1997C292.7 96.8997 292.7 97.5997 292.6 99.8997C292.5 102.2 290.6 101.5 292.1 104.8C293.6 108 294.8 108.5 294.6 111C294.4 113.5 294.3 115.9 296.4 117.9C298.5 119.9 298.8 118.7 299.9 122.1C301 125.5 301.9 128.4 304 129.9C306 131.3 307.7 131.3 308.1 133.2C308.5 135.1 311.3 137.4 311.3 137.4L309.1 126.3C309.1 126.3 305.7 121.8 306.2 121.2C306.6 120.6 307.2 120.6 306.5 118.9C305.8 117.2 306.1 115.4 306.6 116.2C307.1 117 308.1 117.1 308.1 116.2C308.1 115.4 309 112.6 310.1 112.9C311.2 113.2 313.3 111.8 312 108.9C310.8 106.1 313.8 110.4 314.9 108Z" fill="url(#paint27_linear)"/>
<path d="M319.2 134.699L322.1 136.299C322.1 136.299 320.9 137.799 319.9 137.399C318.9 136.999 318.5 134.799 318.5 134.799L319.2 134.699Z" fill="#C4C4C4"/>
<path d="M317.199 139.899C319.199 140.799 321.199 141.899 322.899 143.199C322.899 143.199 320.199 142.599 317.199 139.899Z" fill="#C4C4C4"/>
<path d="M319 142.3L321.1 143.5C321.1 143.5 320 144 319 142.3Z" fill="#C4C4C4"/>
<path d="M306.5 117.3C306.5 117.3 307.5 117.7 307.8 120.1C308.1 122.4 307.4 121.7 307.4 121.7C307.6 120.2 307.3 118.6 306.5 117.3Z" fill="#C4C4C4"/>
<path d="M333.1 133.399C333.1 133.399 332.4 133.099 332 134.799C331.6 136.599 332 136.399 332 136.399C332 136.399 331.8 135.799 332.2 135.399C332.7 134.999 332.5 133.599 333.1 133.399Z" fill="#C4C4C4"/>
<path d="M325.999 240.3C329.899 238.1 329.899 230.9 325.999 224.2C322.099 217.5 315.899 213.9 311.999 216.1C308.099 218.3 308.099 225.5 311.999 232.2C315.899 238.9 322.199 242.5 325.999 240.3Z" fill="#E3E3E8"/>
<path d="M324.399 237.399C327.399 235.699 327.399 230.199 324.399 224.999C321.399 219.899 316.699 217.099 313.699 218.799C310.699 220.499 310.699 225.999 313.699 231.199C316.699 236.399 321.399 239.099 324.399 237.399Z" fill="#F8F8F8"/>
<path d="M350.7 250C352.3 249.1 352.3 246 350.7 243.1C349.1 240.3 346.4 238.7 344.8 239.7C343.2 240.6 343.2 243.7 344.8 246.6C346.4 249.4 349.1 251 350.7 250Z" fill="url(#paint28_linear)"/>
<path d="M352.3 244.299C351.5 243.799 350.8 244.199 350.8 245.199C350.8 244.699 350.6 244.199 350.4 243.699C350.1 243.199 349.8 242.899 349.3 242.599C350.1 243.099 350.8 242.699 350.8 241.699C350.8 242.199 351 242.699 351.2 243.199C351.5 243.599 351.9 243.999 352.3 244.299Z" fill="#F8F8F8"/>
<path d="M352.199 241.7C351.699 241.4 351.299 241.6 351.299 242.2C351.299 241.9 351.199 241.6 350.999 241.3C350.799 241 350.599 240.8 350.399 240.6C350.899 240.9 351.299 240.7 351.299 240.1C351.299 240.4 351.399 240.7 351.599 241C351.699 241.3 351.899 241.5 352.199 241.7Z" fill="#F8F8F8"/>
<path d="M349.099 249C348.599 249 347.999 248.8 347.599 248.5C346.499 247.8 345.499 246.6 344.899 245.2V245.1V245C344.899 245 344.899 244.9 344.999 244.9L345.099 244.8H345.199H345.299C345.299 244.8 345.399 244.8 345.399 244.9L345.499 245C345.999 246.3 346.899 247.4 347.899 248C348.799 248.5 349.599 248.5 349.999 247.9C350.099 247.8 350.099 247.8 350.199 247.7C350.299 247.7 350.399 247.7 350.499 247.8C350.599 247.9 350.599 247.9 350.699 248C350.699 248.1 350.699 248.2 350.599 248.3C350.399 248.5 350.199 248.7 349.899 248.9C349.699 249 349.399 249 349.099 249Z" fill="#F8F8F8"/>
<path d="M345.899 243.2C345.899 243.6 345.599 243.7 345.299 243.5C345.099 243.4 344.999 243.2 344.899 243.1C344.799 242.9 344.699 242.7 344.699 242.5C344.699 242.1 344.999 242 345.299 242.2C345.499 242.3 345.599 242.5 345.699 242.6C345.899 242.8 345.899 243 345.899 243.2Z" fill="#F8F8F8"/>
<path d="M350.599 245.9C350.599 246.3 350.299 246.4 349.999 246.2C349.799 246.1 349.699 246 349.599 245.8C349.499 245.6 349.399 245.4 349.399 245.2C349.399 244.8 349.699 244.7 349.999 244.9C350.199 245 350.299 245.2 350.399 245.3C350.499 245.5 350.599 245.7 350.599 245.9Z" fill="#F8F8F8"/>
<path d="M291.2 207.899V206.899L289.8 206.999H289.3L289.8 207.699L291.1 209.399V208.599C292.4 209.799 293.4 211.799 293.4 213.399C293.4 215.299 292.2 216.099 290.6 215.399L291.2 216.099H290.7C292.6 216.899 294 215.899 294 213.699C294.1 211.699 292.9 209.299 291.2 207.899Z" fill="url(#paint29_linear)"/>
<path d="M290.399 215.3L289.099 213.6V214.3C287.799 213.1 286.799 211.1 286.799 209.5C286.799 207.6 287.999 206.8 289.599 207.4L289.099 206.7H289.599C287.699 205.8 286.199 206.9 286.199 209.1C286.199 211.2 287.399 213.6 289.099 215V216.1L290.499 216H290.999L290.399 215.3Z" fill="url(#paint30_linear)"/>
<path d="M348.4 84.6994C348.2 84.7994 348.2 85.0995 348.4 85.3995L351.1 90.0995C351.2 90.2995 351.1 90.4995 351 90.3995L343.5 86.0995C343.3 85.9995 343.1 86.0995 343.1 86.2995C343.1 86.3995 343.1 86.5994 343.2 86.6995C343.3 86.7994 343.4 86.8995 343.5 86.9995L351 91.2995C351.2 91.3995 351.3 91.6995 351.1 91.7995L348.4 93.3995C348.2 93.4995 348.2 93.7995 348.4 94.0995C348.6 94.3995 348.8 94.4995 349 94.3995L352.7 92.1995C352.9 92.0995 352.9 91.7995 352.7 91.5995L349 84.9995C348.8 84.7995 348.6 84.5994 348.4 84.6994Z" fill="#A5A5AF"/>
<path d="M369.5 135.5V143.7C369.5 144.5 370.1 144.8 370.8 144.4C371.2 144.2 371.5 143.8 371.7 143.5C371.9 143.1 372 142.7 372.1 142.3V134.1C372.1 133.3 371.5 133 370.8 133.4C370.4 133.6 370.1 134 369.9 134.3C369.6 134.7 369.5 135.1 369.5 135.5Z" fill="#E3E3E8"/>
<path d="M372.7 134.5V142.7C372.7 143.1 372.6 143.6 372.3 143.9C372.1 144.3 371.8 144.6 371.4 144.8C371.3 144.9 371.1 145 371 145C370.8 145 370.7 145 370.5 144.9C370.4 144.8 370.3 144.7 370.2 144.6C370.1 144.5 370.1 144.3 370.1 144.2V144.1V135.9C370.1 135.5 370.2 135.1 370.4 134.8C370.6 134.4 370.8 134.1 371.2 133.9C371.3 133.9 371.3 133.8 371.4 133.8C371.5 133.7 371.7 133.7 371.8 133.6C371.9 133.6 372.1 133.6 372.2 133.7C372.6 133.8 372.7 134.1 372.7 134.5Z" fill="#F8F8F8"/>
<path d="M348.2 264.9L289.8 231.2C289.5 231 289.3 230.8 289.1 230.5C288.9 230.2 288.8 229.9 288.8 229.6C288.8 229 289.2 228.7 289.8 229L348.2 262.7C348.5 262.9 348.7 263.1 348.9 263.4C349.1 263.7 349.2 264 349.2 264.3C349.2 264.9 348.8 265.2 348.2 264.9Z" fill="#A5A5AF"/>
<path d="M146.8 215.6C146.8 215.6 133.7 219.7 130.8 221.7C129.2 222.8 126.6 225.3 124.6 227.3L119.3 224.2C121.4 222 124.2 219.1 125.5 218.1C127.6 216.4 142.8 211.1 142.8 211.1L146.8 215.6Z" fill="#E3E3E8"/>
<path d="M182.199 236.899C182.199 236.899 171.399 244.899 169.999 245.999C169.299 246.599 165.699 247.899 162.399 248.999L157.699 246.299C160.199 245.299 162.999 244.099 164.499 243.399C167.799 241.899 174.999 234.199 174.999 234.199L182.199 236.899Z" fill="#E3E3E8"/>
<path d="M201.1 224.5C200.3 227.8 181.8 239.7 181.8 239.7C181.8 239.7 173.7 239.3 171.8 235.5L155.6 245.2L125.6 227.9L143.9 217.4C143.9 217.4 136.2 216.3 136 211.6C136 211.6 160 201.9 164.5 202.4C166.4 202.6 169.7 203.7 172.8 204.8C173.2 205 173.7 205.1 174.1 205.3C175.4 205.8 176.6 206.3 177.6 206.7C178.1 206.9 178.5 207.1 178.9 207.2C180.1 207.7 180.9 208.1 180.9 208.1C186.4 210.4 188.2 211.7 192 214.6C192.3 214.9 192.7 215.2 193.1 215.5C194.3 216.5 195.5 217.7 196.7 218.8C196.9 219 197.2 219.3 197.4 219.5C199.5 221.7 201.2 223.8 201.1 224.5Z" fill="url(#paint31_linear)"/>
<path d="M187.399 205.5L182.899 208.6L180.299 207.8C180.299 207.8 176.399 210.2 182.299 213.6C187.899 216.9 191.999 214.5 191.999 214.5L190.299 213L195.399 210.3L187.399 205.5Z" fill="#E3E3E8"/>
<path d="M186.899 205.8C186.899 205.8 184.999 208.7 187.399 210.1C189.699 211.6 195.299 210.3 195.299 210.3L190.099 208.3L186.899 205.8Z" fill="#E3E3E8"/>
<path d="M189.6 201.799C189.6 201.799 186.4 204.499 186.6 204.899C186.7 205.299 188.2 208.199 189.4 208.799C190.6 209.399 195.9 210.399 197.2 210.299C198.5 210.199 208.7 205.599 209.3 205.299C209.8 204.999 210.5 194.199 210.5 194.199C210.5 194.199 201.1 194.799 200.8 194.899C200.5 194.999 193.8 197.499 189.6 201.799Z" fill="#E3E3E8"/>
<path d="M194.5 198C194.5 198 193.8 197.1 192 197.1C190.2 197.1 188.2 199.8 190.4 201.1C192.6 202.4 193.1 199.6 193.1 199.6L194.5 198Z" fill="#E3E3E8"/>
<path d="M208.4 205.899C208.4 205.899 210.9 206.999 209.7 207.599C208.9 207.999 205.6 209.499 204.2 208.999C202.8 208.599 202.9 208.199 202.9 208.199L206.6 206.099L208.4 205.899Z" fill="#E3E3E8"/>
<path d="M193.199 197.8C193.199 197.8 192.899 198.5 194.399 198.5C195.799 198.5 196.099 197.6 196.699 197.8C197.299 198 200.199 198.5 200.799 197.8C201.299 197.1 202.699 197.1 202.699 197.4C202.699 197.7 202.999 197.7 203.399 197.8C203.799 197.8 202.699 199.1 203.799 199.7C204.899 200.2 203.699 201.1 204.499 201.4C205.199 201.7 204.399 203 205.599 203.4C206.799 203.8 205.099 204.8 205.799 205.2C206.599 205.6 206.599 206.3 207.099 206.7C207.399 206.9 207.699 207.1 208.099 207.2L210.699 205.4L211.899 200.2C211.899 200.2 206.099 193.5 205.799 193.3C205.499 193.1 195.899 193.5 195.899 193.5L193.199 197.8Z" fill="#C7C7C7"/>
<path d="M204.299 196.8C204.299 196.8 202.799 198.4 204.099 199.2C205.399 200 204.299 200.4 205.199 201C206.099 201.6 205.199 202.6 206.299 203.1C207.399 203.5 205.899 204.4 207.099 205.2C208.399 206 207.899 205.7 208.399 206C208.899 206.2 207.499 206.7 207.999 207.1C208.599 207.5 203.999 209 203.599 208.9C203.499 208.9 202.899 208.5 202.899 208.5L197.899 210.5C197.899 210.5 199.299 212.3 200.599 211.5C201.899 210.7 201.599 211.8 203.499 212.4C205.299 213 205.199 211.2 207.199 212.3C209.199 213.4 208.999 210.7 211.399 211.1C213.799 211.4 212.999 210 215.099 210C217.199 210 216.399 208.7 218.699 209C220.999 209.3 220.499 207.4 222.899 206.9C225.299 206.5 226.199 205.4 225.299 204.6C224.299 203.8 226.299 203.5 228.999 203.2C231.699 203 230.099 200.8 228.199 200.2C226.299 199.7 231.399 198.8 229.999 197.4C228.699 196 227.399 197.1 226.199 196.1C224.999 195.1 229.899 195.7 228.399 193.6C226.899 191.5 225.099 192.7 223.999 191.9C222.899 191.2 224.699 189.7 222.699 189.2C220.699 188.7 219.999 189.5 218.599 188.7C217.199 187.8 218.899 186.6 216.599 186.1C214.299 185.6 213.099 186.6 211.699 186.5C210.299 186.4 211.199 185.4 208.999 185.6C206.899 185.8 207.399 186.7 205.699 186.4C203.999 186.1 203.699 185.6 202.199 186.2C200.699 186.8 201.499 187.6 200.099 187.4C198.599 187.2 197.599 186 197.099 186.9C196.599 187.8 195.199 187.8 193.699 187.9C192.199 188 191.099 188.7 191.099 189.4C191.199 190.1 190.799 190.3 189.599 190.9C188.399 191.6 187.099 191 186.699 192.2C186.299 193.4 187.199 193.7 185.699 194.4C184.299 195.1 182.999 195.7 183.799 196.7C184.599 197.6 185.499 197.3 184.799 198.5C184.099 199.7 183.399 200.7 184.499 201.4C185.599 202.1 186.999 202.4 186.399 203C185.799 203.6 186.999 204.7 186.999 204.7L190.699 201.2C190.699 201.2 189.999 199.4 190.699 199.3C191.399 199.2 191.899 199.3 192.099 198.7C192.299 198.1 193.499 197.6 193.499 197.9C193.599 198.2 194.399 198.4 194.799 198.2C195.199 198 197.299 197.3 198.199 197.6C198.999 197.9 201.499 197.8 201.799 196.8C201.699 195.6 202.099 197.3 204.299 196.8Z" fill="url(#paint32_linear)"/>
<path d="M194.7 205.2L196.3 206.1C196.3 206.1 194.5 206.3 193.8 206C193.1 205.7 193.9 205 193.9 205L194.7 205.2Z" fill="#C4C4C4"/>
<path d="M190.399 206.3C191.599 206.8 192.699 207.4 193.699 208.2C193.699 208.2 191.599 207.6 190.399 206.3Z" fill="#C4C4C4"/>
<path d="M190.699 207.3L191.899 208C191.899 208 190.799 208 190.699 207.3Z" fill="#C4C4C4"/>
<path d="M192.4 198.1C192.4 198.1 193.1 198.4 192.1 199.1C191.2 199.8 191 199.5 191 199.5C191 199.5 192.5 198.9 192.4 198.1Z" fill="#C4C4C4"/>
<path d="M207.299 207.1C207.299 207.1 206.899 206.9 205.599 207.3C204.399 207.7 204.799 207.8 204.799 207.8C204.799 207.8 204.899 207.6 205.499 207.5C206.099 207.5 206.599 207 207.299 207.1Z" fill="#C4C4C4"/>
<path d="M349.1 332.3C349.1 332.3 336 336.4 333.1 338.4C331.5 339.5 328.9 342 326.9 344L321.6 340.9C323.7 338.7 326.5 335.8 327.8 334.8C329.9 333.1 345.1 327.8 345.1 327.8L349.1 332.3Z" fill="#EFEFEF"/>
<path d="M384.399 353.7C384.399 353.7 373.599 361.7 372.199 362.8C371.499 363.4 367.899 364.7 364.599 365.8L359.899 363.1C362.399 362.1 365.199 360.9 366.699 360.2C369.999 358.7 377.199 351 377.199 351L384.399 353.7Z" fill="#EFEFEF"/>
<path d="M403.3 341.2C402.5 344.5 384 356.4 384 356.4C384 356.4 375.9 356 374 352.2L357.8 361.9L327.8 344.6L346.1 334.1C346.1 334.1 338.4 333.1 338.2 328.3C338.2 328.3 362.2 318.6 366.7 319.1C368.6 319.3 371.9 320.4 375 321.5C375.4 321.7 375.9 321.8 376.3 322C377.6 322.5 378.8 323 379.8 323.4C380.3 323.6 380.7 323.8 381.1 323.9C382.3 324.4 383.1 324.8 383.1 324.8C388.6 327.1 390.4 328.4 394.2 331.3C394.5 331.6 394.9 331.9 395.3 332.2C396.5 333.2 397.7 334.4 398.9 335.5C399.1 335.7 399.4 336 399.6 336.2C401.8 338.4 403.5 340.5 403.3 341.2Z" fill="#A5A5AF"/>
<path d="M389.6 322.199L385.1 325.299L382.5 324.499C382.5 324.499 378.6 326.899 384.5 330.299C390.1 333.599 394.2 331.199 394.2 331.199L392.5 329.699L397.6 326.999L389.6 322.199Z" fill="#EFEFEF"/>
<path d="M389.2 322.5C389.2 322.5 387.3 325.4 389.7 326.8C392 328.3 397.6 327 397.6 327L392.4 325L389.2 322.5Z" fill="#C6C6C6"/>
<path d="M391.9 318.6C391.9 318.6 388.7 321.3 388.9 321.7C389 322.1 390.5 325 391.7 325.6C392.9 326.2 398.2 327.2 399.5 327.1C400.8 327 411 322.4 411.6 322.1C412.1 321.8 412.8 311 412.8 311C412.8 311 403.4 311.6 403.1 311.7C402.8 311.8 396 314.2 391.9 318.6Z" fill="#EFEFEF"/>
<path d="M396.8 314.7C396.8 314.7 396.1 313.8 394.3 313.8C392.5 313.8 390.5 316.5 392.7 317.8C394.9 319.1 395.4 316.3 395.4 316.3L396.8 314.7Z" fill="#EFEFEF"/>
<path d="M410.599 322.6C410.599 322.6 413.099 323.7 411.899 324.3C411.099 324.7 407.799 326.2 406.399 325.7C404.999 325.3 405.099 324.9 405.099 324.9L408.799 322.8L410.599 322.6Z" fill="#EFEFEF"/>
<path d="M395.5 314.499C395.5 314.499 395.2 315.199 396.7 315.199C398.1 315.199 398.4 314.299 399 314.499C399.6 314.699 402.5 315.199 403.1 314.499C403.6 313.799 405 313.799 405 314.099C405 314.399 405.3 314.399 405.7 314.499C406.1 314.499 405 315.799 406.1 316.399C407.2 316.899 406 317.799 406.8 318.099C407.5 318.399 406.7 319.699 407.9 320.099C409.1 320.499 407.4 321.499 408.1 321.899C408.9 322.299 408.9 322.999 409.4 323.399C409.7 323.599 410 323.799 410.4 323.899L413 322.099L414.2 316.899C414.2 316.899 408.4 310.199 408.1 309.999C407.8 309.799 398.2 310.199 398.2 310.199L395.5 314.499Z" fill="#C6C6C6"/>
<path d="M406.5 313.5C406.5 313.5 405 315.1 406.3 315.9C407.6 316.7 406.5 317.1 407.4 317.7C408.3 318.3 407.4 319.3 408.5 319.8C409.6 320.2 408.1 321.1 409.3 321.9C410.6 322.7 410.1 322.4 410.6 322.7C411.1 322.9 409.7 323.4 410.2 323.8C410.8 324.2 406.2 325.7 405.8 325.6C405.7 325.6 405.1 325.2 405.1 325.2L400.1 327.2C400.1 327.2 401.5 329 402.8 328.2C404.1 327.4 403.8 328.5 405.7 329.1C407.5 329.7 407.4 327.9 409.4 329C411.4 330.1 411.2 327.4 413.6 327.8C416 328.1 415.2 326.7 417.3 326.7C419.4 326.7 418.6 325.4 420.9 325.7C423.2 326 422.7 324.1 425.1 323.6C427.5 323.2 428.4 322.1 427.5 321.3C426.5 320.5 428.5 320.2 431.2 319.9C433.9 319.7 432.3 317.5 430.4 316.9C428.5 316.4 433.6 315.5 432.2 314.1C430.9 312.7 429.6 313.8 428.4 312.8C427.2 311.8 432.1 312.4 430.6 310.3C429.1 308.2 427.3 309.4 426.2 308.6C425.1 307.9 426.9 306.4 424.9 305.9C422.9 305.4 422.2 306.2 420.8 305.4C419.4 304.5 421.1 303.3 418.8 302.8C416.5 302.3 415.3 303.3 413.9 303.2C412.5 303.1 413.4 302.1 411.2 302.3C409.1 302.5 409.6 303.4 407.9 303.1C406.2 302.8 405.9 302.3 404.4 302.9C402.9 303.5 403.7 304.3 402.3 304.1C400.8 303.9 399.8 302.7 399.3 303.6C398.8 304.5 397.4 304.5 395.9 304.6C394.4 304.7 393.3 305.4 393.3 306.1C393.4 306.8 393 307 391.8 307.6C390.6 308.3 389.3 307.7 388.9 308.9C388.5 310.1 389.4 310.4 387.9 311.1C386.5 311.8 385.2 312.4 386 313.4C386.8 314.3 387.7 314 387 315.2C386.3 316.4 385.6 317.4 386.7 318.1C387.8 318.8 389.2 319.1 388.6 319.7C388 320.3 389.2 321.4 389.2 321.4L392.9 317.9C392.9 317.9 392.2 316.1 392.9 316C393.6 315.9 394.1 316 394.3 315.4C394.5 314.8 395.7 314.3 395.7 314.6C395.8 314.9 396.6 315.1 397 314.9C397.4 314.7 399.5 314 400.4 314.3C401.2 314.6 403.7 314.5 404 313.5C403.9 312.3 404.3 314 406.5 313.5Z" fill="#A5A5AF"/>
<path d="M397 321.899L398.6 322.799C398.6 322.799 396.8 322.999 396.1 322.699C395.4 322.399 396.2 321.699 396.2 321.699L397 321.899Z" fill="#C6C6C6"/>
<path d="M392.6 323C393.8 323.5 394.9 324.1 395.9 324.9C395.9 324.9 393.9 324.3 392.6 323Z" fill="#C6C6C6"/>
<path d="M393 324L394.2 324.7C394.2 324.7 393.1 324.7 393 324Z" fill="#C6C6C6"/>
<path d="M394.7 314.8C394.7 314.8 395.4 315.1 394.4 315.8C393.5 316.5 393.3 316.2 393.3 316.2C393.3 316.2 394.8 315.7 394.7 314.8Z" fill="#C6C6C6"/>
<path d="M409.599 323.8C409.599 323.8 409.199 323.6 407.899 324C406.699 324.4 407.099 324.5 407.099 324.5C407.099 324.5 407.199 324.3 407.799 324.2C408.399 324.1 408.899 323.7 409.599 323.8Z" fill="#C6C6C6"/>
<path d="M198.6 100.2L252.5 131.3C253.9 132.1 255 134 255 135.6V174C255 175.6 253.9 176.2 252.5 175.4L198.6 144.3C197.2 143.5 196.1 141.6 196.1 140V101.6C196.1 100.1 197.3 99.3999 198.6 100.2Z" fill="#9D9FA2"/>
<path opacity="0.74" d="M196.3 101.6L250.2 132.7C251.6 133.5 252.7 135.4 252.7 137V175.4C252.7 177 251.6 177.6 250.2 176.8L196.3 145.7C194.9 144.9 193.8 143 193.8 141.4V103C193.8 101.4 194.9 100.8 196.3 101.6Z" fill="#00BAFF"/>
<path d="M228.5 149.499L215.9 142.199L199 132.499L213.1 121.399L221.9 137.499L228.5 149.499Z" fill="#E3E3E8"/>
<path d="M238.9 151.4L232.6 151.9L230.2 150.5L223.6 138.5L229.3 134L238.9 151.4Z" fill="#E3E3E8"/>
<path d="M231.5 131.4C231.5 132.8 230.5 133.4 229.3 132.7C228.1 132 227.1 130.3 227.1 128.9C227.1 127.5 228.1 126.9 229.3 127.6C230.5 128.3 231.5 130 231.5 131.4Z" fill="#E3E3E8"/>
<path d="M248.4 155.799L242.6 156.199L240 156.399L232.5 156.999L231.1 153.399L234.3 153.199L240.6 152.699L246.9 152.199C247.3 152.199 247.9 152.699 248.1 153.299L248.6 154.599C249 155.199 248.8 155.799 248.4 155.799Z" fill="#E3E3E8"/>
<path d="M230.3 153.399L231.7 156.999H231L229.6 153.399H230.3Z" fill="#E3E3E8"/>
<path d="M230.7 157L228.6 155.5L228.5 155.4C228.5 155.3 228.5 155.3 228.5 155.2L229.4 153.5L230.7 157Z" fill="#E3E3E8"/>
<path d="M414.099 193.3C414.799 195.9 415.699 198.5 416.799 200.9C416.999 201.3 417.199 201.7 417.399 202.1L434.699 237.5L435.899 239.9L451.599 271.9C452.299 273.4 453.699 274.2 454.399 273.5L488.699 243.2C491.799 240.5 493.499 235.6 492.999 229C492.499 223.1 490.299 216.8 486.999 211.2C483.699 205.6 479.399 200.8 474.599 197.6C464.499 190.9 455.799 193.8 453.599 203.3C453.499 203.8 452.699 203.4 452.599 202.7C450.399 190.7 441.799 177.8 431.599 172.8C421.999 168 414.099 172.4 413.099 182.9C412.799 186.3 413.199 189.8 414.099 193.3Z" fill="url(#paint33_linear)"/>
<path d="M387.799 195.1C388.399 188.7 393.199 186 398.999 188.9C405.199 192 410.499 199.8 411.799 207.1C411.899 207.5 412.299 207.8 412.399 207.5C413.699 201.7 418.999 200 425.199 204C431.099 207.9 435.899 216 436.399 223.1C436.699 227.1 435.699 230.1 433.799 231.8L412.999 250.4C412.599 250.8 411.699 250.3 411.299 249.4L390.499 206.8C388.499 203 387.499 198.8 387.799 195.1Z" fill="url(#paint34_linear)"/>
<path d="M372.3 133.599C372.2 133.499 372 133.499 371.9 133.499C371.8 133.499 371.6 133.599 371.5 133.699C371.4 133.699 371.4 133.799 371.3 133.799C371.2 133.699 371.2 133.599 371.1 133.499L371.6 133.199L372.3 133.599Z" fill="#E3E3E8"/>
<path d="M449.699 202.5C449.699 202.5 443.999 179.1 422.899 175C422.899 175 433.399 190.4 449.699 202.5Z" fill="#8DE0FF"/>
<path d="M432.6 227.599C432.6 227.599 436.8 214.099 421.6 205.699C421.7 205.799 432.2 213.899 432.6 227.599Z" fill="#8DE0FF"/>
<path d="M409.8 209.399C409.8 209.399 408 196.499 394.3 189.699C394.3 189.699 404.2 201.299 409.8 209.399Z" fill="#8DE0FF"/>
<path d="M489.199 229.499C489.199 220.299 480.199 200.399 462.199 197.399C462.199 197.399 471.099 199.699 479.899 210.499C487.199 219.499 489.199 229.499 489.199 229.499Z" fill="#8DE0FF"/>
<path d="M370.599 145L369.899 144.6L370.199 144.3C370.199 144.4 370.199 144.6 370.299 144.7C370.399 144.8 370.499 144.9 370.599 145Z" fill="#E3E3E8"/>
<path d="M369.5 120.199V128.399C369.5 129.199 370.1 129.499 370.8 129.099C371.2 128.899 371.5 128.499 371.7 128.199C371.9 127.799 372 127.399 372.1 126.999V118.799C372.1 117.999 371.5 117.699 370.8 118.099C370.4 118.299 370.1 118.699 369.9 118.999C369.7 119.299 369.5 119.799 369.5 120.199Z" fill="#E3E3E8"/>
<path d="M372.7 119.2V127.4C372.7 127.8 372.6 128.3 372.3 128.6C372.1 129 371.8 129.3 371.4 129.5C371.3 129.6 371.1 129.7 371 129.7C370.8 129.7 370.7 129.7 370.5 129.6C370.4 129.5 370.3 129.4 370.2 129.3C370.1 129.2 370.1 129 370.1 128.9V128.8V120.6C370.1 120.2 370.2 119.8 370.4 119.5C370.6 119.1 370.8 118.8 371.2 118.6C371.3 118.6 371.3 118.5 371.4 118.5C371.5 118.4 371.7 118.4 371.8 118.3C371.9 118.3 372.1 118.3 372.2 118.4C372.6 118.5 372.7 118.8 372.7 119.2Z" fill="#F8F8F8"/>
<path d="M372.3 118.4C372.2 118.3 372 118.3 371.9 118.3C371.8 118.3 371.6 118.4 371.5 118.5C371.4 118.5 371.4 118.6 371.3 118.6C371.2 118.5 371.2 118.4 371.1 118.3L371.6 118L372.3 118.4Z" fill="#E3E3E8"/>
<path d="M370.599 129.7L369.899 129.3L370.199 129C370.199 129.1 370.199 129.3 370.299 129.4C370.399 129.5 370.499 129.6 370.599 129.7Z" fill="#E3E3E8"/>
<path d="M426.6 217.699C426.7 215.999 428 215.399 429.5 216.099C431.1 216.899 432.5 218.899 432.8 220.799C432.8 220.899 432.9 220.999 433 220.899C433.3 219.399 434.7 218.899 436.3 219.999C437.8 220.999 439.1 223.099 439.2 224.999C439.3 225.999 439 226.799 438.5 227.199L433.1 231.999C433 232.099 432.8 231.999 432.7 231.699L427.3 220.699C426.7 219.699 426.5 218.599 426.6 217.699Z" fill="url(#paint35_linear)"/>
<path d="M243.699 110.099C243.799 108.599 244.899 107.999 246.299 108.699C247.699 109.399 248.899 111.199 249.199 112.899C249.199 112.999 249.299 113.099 249.299 112.999C249.599 111.699 250.799 111.299 252.199 112.199C253.499 113.099 254.599 114.999 254.799 116.599C254.899 117.499 254.599 118.199 254.199 118.599L249.399 122.799C249.299 122.899 249.099 122.799 248.999 122.599L244.199 112.799C243.799 111.899 243.599 110.899 243.699 110.099Z" fill="url(#paint36_linear)"/>
<path d="M235.5 95.9999C235.6 94.8999 236.4 94.4999 237.3 94.9999C238.3 95.4999 239.2 96.7999 239.4 97.9999C239.4 98.0999 239.5 98.0999 239.5 98.0999C239.7 97.0999 240.6 96.8999 241.6 97.4999C242.6 98.0999 243.4 99.4999 243.4 100.6C243.5 101.3 243.3 101.8 243 102L239.6 105C239.5 105.1 239.4 105 239.3 104.8L235.9 97.7999C235.7 97.2999 235.5 96.5999 235.5 95.9999Z" fill="url(#paint37_linear)"/>
<path d="M202.5 253.899C202.6 252.799 203.4 252.399 204.3 252.899C205.3 253.399 206.2 254.699 206.4 255.899C206.4 255.999 206.5 255.999 206.5 255.999C206.7 254.999 207.6 254.799 208.6 255.399C209.6 255.999 210.4 257.399 210.4 258.499C210.5 259.199 210.3 259.699 210 259.899L206.6 262.899C206.5 262.999 206.4 262.899 206.3 262.699L202.9 255.699C202.6 255.199 202.5 254.499 202.5 253.899Z" fill="url(#paint38_linear)"/>
<path d="M327.5 296.1C327.6 295 328.4 294.6 329.3 295.1C330.3 295.6 331.2 296.9 331.4 298.1C331.4 298.2 331.5 298.2 331.5 298.2C331.7 297.2 332.6 297 333.6 297.6C334.6 298.2 335.4 299.6 335.4 300.7C335.5 301.4 335.3 301.9 335 302.1L331.6 305.1C331.5 305.2 331.4 305.1 331.3 304.9L327.9 297.9C327.6 297.3 327.5 296.7 327.5 296.1Z" fill="url(#paint39_linear)"/>
<path d="M209.1 273.7C209.2 272.6 210 272.2 210.9 272.7C211.9 273.2 212.8 274.5 213 275.7C213 275.8 213.1 275.8 213.1 275.8C213.3 274.8 214.2 274.6 215.2 275.2C216.2 275.8 217 277.2 217 278.3C217.1 279 216.9 279.5 216.6 279.7L213.2 282.7C213.1 282.8 213 282.7 212.9 282.5L209.5 275.5C209.3 275 209.1 274.3 209.1 273.7Z" fill="url(#paint40_linear)"/>
<path d="M270.799 243.899C270.899 242.799 271.699 242.399 272.599 242.899C273.599 243.399 274.499 244.699 274.699 245.899C274.699 245.999 274.799 245.999 274.799 245.999C274.999 244.999 275.899 244.799 276.899 245.399C277.899 245.999 278.699 247.399 278.699 248.499C278.799 249.199 278.599 249.699 278.299 249.899L274.899 252.899C274.799 252.999 274.699 252.899 274.599 252.699L271.199 245.699C270.899 245.199 270.699 244.499 270.799 243.899Z" fill="url(#paint41_linear)"/>
<path d="M319.799 274.5C319.899 273.4 320.699 273 321.599 273.5C322.599 274 323.499 275.3 323.699 276.5C323.699 276.6 323.799 276.6 323.799 276.6C323.999 275.6 324.899 275.4 325.899 276C326.899 276.6 327.699 278 327.699 279.1C327.799 279.8 327.599 280.3 327.299 280.5L323.899 283.5C323.799 283.6 323.699 283.5 323.599 283.3L320.199 276.3C319.899 275.8 319.699 275.1 319.799 274.5Z" fill="url(#paint42_linear)"/>
<path d="M282.4 310.5C282.5 309.4 283.3 309 284.2 309.5C285.2 310 286.1 311.3 286.3 312.5C286.3 312.6 286.4 312.6 286.4 312.6C286.6 311.6 287.5 311.4 288.5 312C289.5 312.6 290.3 314 290.3 315.1C290.4 315.8 290.2 316.3 289.9 316.5L286.5 319.5C286.4 319.6 286.3 319.5 286.2 319.3L282.8 312.3C282.5 311.8 282.3 311.1 282.4 310.5Z" fill="url(#paint43_linear)"/>
<path d="M269.6 255.5L262.3 238.8C262.3 238.8 262.6 231.1 262.3 230.5C262 229.8 259.3 225.3 255.4 225.8C251.5 226.3 251.6 240.7 253.4 242.6L239.8 235.6C239.8 235.6 234 235.6 238.6 243.7C238.6 243.7 237.1 246.8 240.1 250.9C240.1 250.9 239.1 254.8 241.6 257.9C241.6 257.9 239.6 262 245.9 268.4L266.5 280.3L268.6 279.8L272.1 282.9L272.3 259.2L269.6 255.5Z" fill="#CFD1D2"/>
<path d="M270.2 255C270.2 255 271.5 269.4 269.4 281.6C269.4 281.6 269.3 282.6 272.7 284.6C276.1 286.6 285.3 291.7 285.3 291.7C285.3 291.7 287.1 292.7 287 289.7C287 286.7 288.2 267.2 288.2 267.2C288.2 267.2 288.7 264.6 285.9 263C283.2 261.4 270.2 255 270.2 255Z" fill="#CFD1D2"/>
<path d="M267.1 256.201L259.8 239.501C259.8 239.501 260.1 231.801 259.8 231.201C259.5 230.501 256.8 226.001 252.9 226.501C249 227.001 249.1 241.401 250.9 243.301L237.3 236.301C237.3 236.301 231.5 236.301 236.1 244.401C236.1 244.401 234.6 247.501 237.6 251.601C237.6 251.601 236.6 255.501 239.1 258.601C239.1 258.601 237.1 262.701 243.4 269.101L264 281.001L266.1 280.501L269.6 283.601L269.8 259.901L267.1 256.201Z" fill="url(#paint44_linear)"/>
<path d="M267.6 255.7C267.6 255.7 268.9 270.1 266.8 282.3C266.8 282.3 266.7 283.3 270.1 285.3C273.5 287.3 282.7 292.4 282.7 292.4C282.7 292.4 284.5 293.4 284.4 290.4C284.3 287.4 285.6 267.9 285.6 267.9C285.6 267.9 286.1 265.3 283.3 263.7C280.6 262.1 267.6 255.7 267.6 255.7Z" fill="url(#paint45_linear)"/>
<path d="M296.2 263.3V277.6C296.2 278.9 296.6 280.4 297.3 281.8C298 283.2 299 284.4 300.1 285.1L311.6 292.6C312.1 292.9 312.6 293.1 313.1 293.2C313.6 293.2 314 293.1 314.4 292.9C314.8 292.6 315 292.2 315.2 291.7C315.4 291.2 315.5 290.5 315.5 289.8V289.5L320.6 292.2C320.7 292.2 320.8 292.2 320.8 292.2C320.9 292.2 320.9 292.1 320.9 292C320.9 291.9 320.9 291.8 320.9 291.7C320.9 291.6 320.8 291.5 320.8 291.4L315.5 282.5V274C315.5 273.3 315.4 272.5 315.2 271.8C315 271 314.7 270.3 314.3 269.6C313.9 268.9 313.5 268.3 313 267.8C312.5 267.3 312 266.9 311.5 266.6L300.1 260.6C299.6 260.3 299.1 260.2 298.6 260.2C298.1 260.2 297.7 260.3 297.3 260.6C296.9 260.9 296.7 261.2 296.5 261.7C296.3 262.1 296.2 262.7 296.2 263.3Z" fill="url(#paint46_linear)"/>
<path d="M306.1 273.401C305.9 273.001 305.7 272.701 305.5 272.301C305.1 271.601 304.6 271.101 304.1 270.701C303.6 270.301 303.1 270.101 302.6 270.001C302.1 269.901 301.7 270.101 301.4 270.401C301.1 270.701 300.9 271.201 300.8 271.801C300.7 272.701 300.8 273.801 301.3 274.801C301.7 276.001 302.3 277.101 302.9 278.201C303.9 279.901 304.9 281.501 306 283.001C306 283.001 306 283.101 306.1 283.101H306.2C307.6 282.901 308.8 282.401 309.9 281.601C310.4 281.201 310.8 280.701 311.1 279.901C311.3 279.501 311.3 278.901 311.3 278.401C311.3 277.801 311.2 277.201 311 276.601C310.8 276.001 310.5 275.401 310.2 274.801C309.9 274.301 309.5 273.801 309 273.501C308.5 273.001 307.9 272.801 307.4 272.701C306.9 272.701 306.5 272.901 306.1 273.401Z" fill="white"/>
<path d="M233.2 254.2L233.3 266.6C233.3 267.7 233 268.6 232.4 269C231.8 269.4 231.1 269.4 230.3 268.8L221.5 263.1C221.1 262.8 220.7 262.5 220.4 262.1C220 261.7 219.7 261.2 219.4 260.6C219.1 260.1 218.9 259.5 218.7 258.9C218.5 258.3 218.5 257.8 218.5 257.3V257.1L214.6 254.4C214.5 254.4 214.5 254.3 214.4 254.2C214.4 254.1 214.3 254 214.3 254C214.3 253.9 214.3 253.8 214.3 253.8L214.4 253.7L218.4 252.2V246.2C218.4 245.7 218.5 245.2 218.6 244.9C218.7 244.5 219 244.2 219.2 244C219.5 243.8 219.8 243.7 220.2 243.7C220.6 243.7 220.9 243.8 221.3 244L230 248.6C230.4 248.8 230.8 249.1 231.1 249.5C231.5 249.9 231.8 250.4 232.1 250.9C232.4 251.4 232.6 252 232.8 252.6C233.2 253 233.2 253.6 233.2 254.2Z" fill="url(#paint47_linear)"/>
<path d="M225.699 253.6C225.799 253.5 225.999 253.4 226.099 253.2C226.399 253 226.699 253 227.099 253.1C227.499 253.2 227.899 253.5 228.199 253.9C228.599 254.3 228.899 254.8 229.099 255.3C229.399 255.9 229.499 256.4 229.599 257C229.699 257.9 229.599 258.6 229.299 259.1C228.999 259.6 228.599 260.1 228.099 260.3C227.399 260.7 226.599 261 225.699 261.1C225.699 261.1 225.699 261.1 225.599 261.1C225.599 261.1 225.599 261.1 225.499 261C224.399 259.6 223.499 258 222.599 256.3C222.199 255.5 221.899 254.7 221.599 253.9C221.499 253.4 221.399 253 221.399 252.6C221.399 252.2 221.499 251.8 221.599 251.5C221.799 251.2 221.999 251 222.199 250.9C222.499 250.8 222.799 250.8 223.099 250.9C223.499 251 223.899 251.3 224.299 251.7C224.699 252.1 224.999 252.7 225.299 253.3L225.699 253.6Z" fill="white"/>
<path d="M292.899 303.4V314.3C292.899 315.3 293.199 316.4 293.799 317.5C294.399 318.6 295.099 319.5 295.899 320L304.699 325.7C305.099 326 305.499 326.1 305.799 326.1C306.199 326.1 306.499 326 306.799 325.8C307.099 325.6 307.299 325.3 307.399 324.9C307.499 324.5 307.599 324 307.599 323.5V323.3L311.499 325.4C311.599 325.4 311.599 325.4 311.699 325.4L311.799 325.3C311.799 325.2 311.799 325.1 311.799 325.1C311.799 325 311.699 324.9 311.699 324.8L307.699 318V311.5C307.699 311 307.599 310.4 307.499 309.8C307.299 309.2 307.099 308.7 306.799 308.1C306.499 307.6 306.199 307.1 305.799 306.7C305.399 306.3 305.099 306 304.699 305.8L295.999 301.2C295.599 301 295.199 300.9 294.899 300.9C294.499 300.9 294.199 301 293.899 301.2C293.599 301.4 293.399 301.7 293.299 302.1C292.999 302.5 292.899 302.9 292.899 303.4Z" fill="url(#paint48_linear)"/>
<path d="M300.5 311.101C300.4 310.801 300.2 310.501 300.1 310.301C299.8 309.801 299.4 309.401 299.1 309.101C298.7 308.801 298.3 308.601 298 308.601C297.6 308.601 297.3 308.701 297.1 308.901C296.8 309.101 296.7 309.501 296.6 309.901C296.5 310.601 296.6 311.401 297 312.201C297.3 313.101 297.7 314.001 298.2 314.801C298.9 316.101 299.7 317.301 300.6 318.501C300.6 318.501 300.6 318.601 300.7 318.601C300.7 318.601 300.7 318.601 300.8 318.601C301.8 318.501 302.8 318.101 303.7 317.501C304.1 317.201 304.4 316.801 304.6 316.201C304.7 315.901 304.8 315.501 304.8 315.001C304.8 314.601 304.7 314.101 304.5 313.601C304.3 313.101 304.1 312.701 303.9 312.301C303.6 311.901 303.3 311.501 303 311.301C302.6 310.901 302.2 310.701 301.8 310.701C301.1 310.601 300.8 310.701 300.5 311.101Z" fill="white"/>
</g>
<defs>
<filter id="filter0_d" x="-18" y="-17" width="560" height="500" filterUnits="userSpaceOnUse" color-interpolation-filters="sRGB">
<feFlood flood-opacity="0" result="BackgroundImageFix"/>
<feColorMatrix in="SourceAlpha" type="matrix" values="0 0 0 0 0 0 0 0 0 0 0 0 0 0 0 0 0 0 127 0" result="hardAlpha"/>
<feOffset dy="10"/>
<feGaussianBlur stdDeviation="15"/>
<feColorMatrix type="matrix" values="0 0 0 0 0 0 0 0 0 0 0 0 0 0 0 0 0 0 0.25 0"/>
<feBlend mode="normal" in2="BackgroundImageFix" result="effect1_dropShadow"/>
<feBlend mode="normal" in="SourceGraphic" in2="effect1_dropShadow" result="shape"/>
</filter>
<linearGradient id="paint0_linear" x1="163.536" y1="375.906" x2="167.664" y2="306.977" gradientUnits="userSpaceOnUse">
<stop stop-color="#75DAFF"/>
<stop offset="1" stop-color="#00BAFF"/>
</linearGradient>
<linearGradient id="paint1_linear" x1="181.476" y1="265.687" x2="187.012" y2="173.66" gradientUnits="userSpaceOnUse">
<stop stop-color="#71449A"/>
<stop offset="0.8668" stop-color="#A66CAC"/>
</linearGradient>
<linearGradient id="paint2_linear" x1="384.852" y1="383.905" x2="386.789" y2="329.387" gradientUnits="userSpaceOnUse">
<stop stop-color="#75DAFF"/>
<stop offset="1" stop-color="#00BAFF"/>
</linearGradient>
<linearGradient id="paint3_linear" x1="383.784" y1="379.478" x2="389.32" y2="287.451" gradientUnits="userSpaceOnUse">
<stop stop-color="#75DAFF"/>
<stop offset="1" stop-color="#00BAFF"/>
</linearGradient>
<linearGradient id="paint4_linear" x1="81.443" y1="301.961" x2="84.146" y2="248.613" gradientUnits="userSpaceOnUse">
<stop stop-color="#75DAFF"/>
<stop offset="1" stop-color="#00BAFF"/>
</linearGradient>
<linearGradient id="paint5_linear" x1="62.1862" y1="229.851" x2="63.9501" y2="214.099" gradientUnits="userSpaceOnUse">
<stop stop-color="#75DAFF"/>
<stop offset="1" stop-color="#00BAFF"/>
</linearGradient>
<linearGradient id="paint6_linear" x1="47.3697" y1="217.53" x2="56.9727" y2="217.53" gradientUnits="userSpaceOnUse">
<stop stop-color="#71449A"/>
<stop offset="0.8668" stop-color="#A66CAC"/>
</linearGradient>
<linearGradient id="paint7_linear" x1="83.6185" y1="239.959" x2="85.9625" y2="225.043" gradientUnits="userSpaceOnUse">
<stop stop-color="#71449A"/>
<stop offset="0.8668" stop-color="#A66CAC"/>
</linearGradient>
<linearGradient id="paint8_linear" x1="116.421" y1="255.797" x2="117.271" y2="243.436" gradientUnits="userSpaceOnUse">
<stop stop-color="#75DAFF"/>
<stop offset="1" stop-color="#00BAFF"/>
</linearGradient>
<linearGradient id="paint9_linear" x1="110.033" y1="296.652" x2="114.855" y2="257.335" gradientUnits="userSpaceOnUse">
<stop stop-color="#75DAFF"/>
<stop offset="1" stop-color="#00BAFF"/>
</linearGradient>
<linearGradient id="paint10_linear" x1="70.8814" y1="278.333" x2="77.0138" y2="240.125" gradientUnits="userSpaceOnUse">
<stop stop-color="#71449A"/>
<stop offset="0.8668" stop-color="#A66CAC"/>
</linearGradient>
<linearGradient id="paint11_linear" x1="125.294" y1="261.966" x2="129.977" y2="261.966" gradientUnits="userSpaceOnUse">
<stop stop-color="#71449A"/>
<stop offset="0.8668" stop-color="#A66CAC"/>
</linearGradient>
<linearGradient id="paint12_linear" x1="283.73" y1="418.753" x2="286.433" y2="365.406" gradientUnits="userSpaceOnUse">
<stop stop-color="#75DAFF"/>
<stop offset="1" stop-color="#00BAFF"/>
</linearGradient>
<linearGradient id="paint13_linear" x1="258.353" y1="339.041" x2="272.646" y2="339.041" gradientUnits="userSpaceOnUse">
<stop stop-color="#71449A"/>
<stop offset="0.8668" stop-color="#A66CAC"/>
</linearGradient>
<linearGradient id="paint14_linear" x1="285.905" y1="356.75" x2="288.249" y2="341.834" gradientUnits="userSpaceOnUse">
<stop stop-color="#75DAFF"/>
<stop offset="1" stop-color="#00BAFF"/>
</linearGradient>
<linearGradient id="paint15_linear" x1="297.497" y1="362.694" x2="298.014" y2="356.003" gradientUnits="userSpaceOnUse">
<stop stop-color="#75DAFF"/>
<stop offset="1" stop-color="#00BAFF"/>
</linearGradient>
<linearGradient id="paint16_linear" x1="318.708" y1="372.589" x2="319.557" y2="360.227" gradientUnits="userSpaceOnUse">
<stop stop-color="#75DAFF"/>
<stop offset="1" stop-color="#00BAFF"/>
</linearGradient>
<linearGradient id="paint17_linear" x1="289.78" y1="401.75" x2="297.517" y2="365.587" gradientUnits="userSpaceOnUse">
<stop stop-color="#75DAFF"/>
<stop offset="1" stop-color="#00BAFF"/>
</linearGradient>
<linearGradient id="paint18_linear" x1="297.902" y1="394.37" x2="330.558" y2="394.37" gradientUnits="userSpaceOnUse">
<stop stop-color="#71449A"/>
<stop offset="0.8668" stop-color="#A66CAC"/>
</linearGradient>
<linearGradient id="paint19_linear" x1="250.718" y1="382.492" x2="257.128" y2="343.76" gradientUnits="userSpaceOnUse">
<stop stop-color="#71449A"/>
<stop offset="0.8668" stop-color="#A66CAC"/>
</linearGradient>
<linearGradient id="paint20_linear" x1="331.726" y1="380.252" x2="328.002" y2="377.168" gradientUnits="userSpaceOnUse">
<stop stop-color="#75DAFF"/>
<stop offset="1" stop-color="#00BAFF"/>
</linearGradient>
<linearGradient id="paint21_linear" x1="274.529" y1="352.621" x2="274.978" y2="348.307" gradientUnits="userSpaceOnUse">
<stop stop-color="#75DAFF"/>
<stop offset="1" stop-color="#00BAFF"/>
</linearGradient>
<linearGradient id="paint22_linear" x1="292.157" y1="271.42" x2="362.582" y2="21.131" gradientUnits="userSpaceOnUse">
<stop stop-color="#7DD2F6"/>
<stop offset="1" stop-color="#42B4E7"/>
</linearGradient>
<linearGradient id="paint23_linear" x1="272.546" y1="25.6175" x2="283.286" y2="25.6175" gradientUnits="userSpaceOnUse">
<stop stop-color="#7DD2F6"/>
<stop offset="1" stop-color="#42B4E7"/>
</linearGradient>
<linearGradient id="paint24_linear" x1="362.387" y1="280.212" x2="372.553" y2="280.212" gradientUnits="userSpaceOnUse">
<stop stop-color="#7DD2F6"/>
<stop offset="1" stop-color="#42B4E7"/>
</linearGradient>
<linearGradient id="paint25_linear" x1="314.975" y1="66.3651" x2="315.726" y2="60.7809" gradientUnits="userSpaceOnUse">
<stop stop-color="#75DAFF"/>
<stop offset="1" stop-color="#00BAFF"/>
</linearGradient>
<linearGradient id="paint26_linear" x1="308.936" y1="268.192" x2="329.531" y2="139.686" gradientUnits="userSpaceOnUse">
<stop stop-color="#75DAFF"/>
<stop offset="1" stop-color="#00BAFF"/>
</linearGradient>
<linearGradient id="paint27_linear" x1="313.653" y1="148.085" x2="324.362" y2="71.6661" gradientUnits="userSpaceOnUse">
<stop stop-color="#71449A"/>
<stop offset="0.8668" stop-color="#A66CAC"/>
</linearGradient>
<linearGradient id="paint28_linear" x1="343.564" y1="244.872" x2="351.964" y2="244.872" gradientUnits="userSpaceOnUse">
<stop stop-color="#71449A"/>
<stop offset="0.8668" stop-color="#A66CAC"/>
</linearGradient>
<linearGradient id="paint29_linear" x1="289.354" y1="211.675" x2="294.102" y2="211.675" gradientUnits="userSpaceOnUse">
<stop stop-color="#71449A"/>
<stop offset="0.8668" stop-color="#A66CAC"/>
</linearGradient>
<linearGradient id="paint30_linear" x1="286.165" y1="211.336" x2="290.927" y2="211.336" gradientUnits="userSpaceOnUse">
<stop stop-color="#71449A"/>
<stop offset="0.8668" stop-color="#A66CAC"/>
</linearGradient>
<linearGradient id="paint31_linear" x1="162.232" y1="245.197" x2="164.853" y2="200.883" gradientUnits="userSpaceOnUse">
<stop stop-color="#75DAFF"/>
<stop offset="1" stop-color="#00BAFF"/>
</linearGradient>
<linearGradient id="paint32_linear" x1="206.062" y1="212.378" x2="207.719" y2="184.61" gradientUnits="userSpaceOnUse">
<stop stop-color="#7DD2F6"/>
<stop offset="1" stop-color="#42B4E7"/>
</linearGradient>
<linearGradient id="paint33_linear" x1="444.365" y1="272.948" x2="458.423" y2="167.988" gradientUnits="userSpaceOnUse">
<stop stop-color="#75DAFF"/>
<stop offset="1" stop-color="#00BAFF"/>
</linearGradient>
<linearGradient id="paint34_linear" x1="406.868" y1="249.95" x2="415.433" y2="185.996" gradientUnits="userSpaceOnUse">
<stop stop-color="#75DAFF"/>
<stop offset="1" stop-color="#00BAFF"/>
</linearGradient>
<linearGradient id="paint35_linear" x1="431.496" y1="231.871" x2="433.715" y2="215.305" gradientUnits="userSpaceOnUse">
<stop stop-color="#71449A"/>
<stop offset="0.8668" stop-color="#A66CAC"/>
</linearGradient>
<linearGradient id="paint36_linear" x1="248.035" y1="122.627" x2="250.001" y2="107.955" gradientUnits="userSpaceOnUse">
<stop stop-color="#71449A"/>
<stop offset="0.8668" stop-color="#A66CAC"/>
</linearGradient>
<linearGradient id="paint37_linear" x1="238.664" y1="105.022" x2="240.07" y2="94.5219" gradientUnits="userSpaceOnUse">
<stop stop-color="#71449A"/>
<stop offset="0.8668" stop-color="#A66CAC"/>
</linearGradient>
<linearGradient id="paint38_linear" x1="205.633" y1="262.926" x2="207.039" y2="252.426" gradientUnits="userSpaceOnUse">
<stop stop-color="#71449A"/>
<stop offset="0.8668" stop-color="#A66CAC"/>
</linearGradient>
<linearGradient id="paint39_linear" x1="330.646" y1="305.057" x2="332.052" y2="294.557" gradientUnits="userSpaceOnUse">
<stop stop-color="#71449A"/>
<stop offset="0.8668" stop-color="#A66CAC"/>
</linearGradient>
<linearGradient id="paint40_linear" x1="212.271" y1="282.671" x2="213.677" y2="272.171" gradientUnits="userSpaceOnUse">
<stop stop-color="#71449A"/>
<stop offset="0.8668" stop-color="#A66CAC"/>
</linearGradient>
<linearGradient id="paint41_linear" x1="273.902" y1="252.877" x2="275.308" y2="242.377" gradientUnits="userSpaceOnUse">
<stop stop-color="#71449A"/>
<stop offset="0.8668" stop-color="#A66CAC"/>
</linearGradient>
<linearGradient id="paint42_linear" x1="322.914" y1="283.51" x2="324.321" y2="273.01" gradientUnits="userSpaceOnUse">
<stop stop-color="#71449A"/>
<stop offset="0.8668" stop-color="#A66CAC"/>
</linearGradient>
<linearGradient id="paint43_linear" x1="285.525" y1="319.516" x2="286.931" y2="309.015" gradientUnits="userSpaceOnUse">
<stop stop-color="#71449A"/>
<stop offset="0.8668" stop-color="#A66CAC"/>
</linearGradient>
<linearGradient id="paint44_linear" x1="269.767" y1="254.977" x2="234.364" y2="254.977" gradientUnits="userSpaceOnUse">
<stop stop-color="#7DD2F6"/>
<stop offset="1" stop-color="#42B4E7"/>
</linearGradient>
<linearGradient id="paint45_linear" x1="285.722" y1="274.131" x2="266.824" y2="274.131" gradientUnits="userSpaceOnUse">
<stop stop-color="#7DD2F6"/>
<stop offset="1" stop-color="#42B4E7"/>
</linearGradient>
<linearGradient id="paint46_linear" x1="320.957" y1="276.616" x2="296.225" y2="276.616" gradientUnits="userSpaceOnUse">
<stop stop-color="#75DAFF"/>
<stop offset="1" stop-color="#00BAFF"/>
</linearGradient>
<linearGradient id="paint47_linear" x1="214.434" y1="256.363" x2="233.304" y2="256.363" gradientUnits="userSpaceOnUse">
<stop stop-color="#75DAFF"/>
<stop offset="1" stop-color="#00BAFF"/>
</linearGradient>
<linearGradient id="paint48_linear" x1="311.81" y1="313.568" x2="292.946" y2="313.568" gradientUnits="userSpaceOnUse">
<stop stop-color="#75DAFF"/>
<stop offset="1" stop-color="#00BAFF"/>
</linearGradient>
</defs>
</svg>
