<svg width="500" height="442" viewBox="0 0 500 442" fill="none" xmlns="http://www.w3.org/2000/svg">
<g filter="url(#filter0_d)">
<path d="M278.408 324.321C279.133 322.955 265.168 314.122 247.215 304.592C229.263 295.062 214.122 288.444 213.397 289.81C212.672 291.176 226.637 300.009 244.589 309.539C262.542 319.069 277.683 325.687 278.408 324.321Z" fill="#9D9FA2"/>
<path d="M221.788 273.113C222.021 272.674 217.741 269.945 212.229 267.019C206.716 264.093 202.058 262.077 201.825 262.516C201.592 262.955 205.872 265.683 211.385 268.609C216.897 271.535 221.555 273.552 221.788 273.113Z" fill="#9D9FA2"/>
<path d="M196.772 267.322C197.005 266.883 195.81 265.793 194.103 264.886C192.395 263.98 190.822 263.601 190.589 264.04C190.356 264.479 191.551 265.57 193.259 266.476C194.966 267.382 196.539 267.761 196.772 267.322Z" fill="#9D9FA2"/>
<path d="M229.868 246.334C230.101 245.895 228.906 244.804 227.198 243.898C225.491 242.992 223.918 242.613 223.685 243.052C223.452 243.491 224.647 244.581 226.354 245.488C228.062 246.394 229.635 246.773 229.868 246.334Z" fill="#EBEBEC"/>
<path d="M320.798 311.891C321.032 311.452 319.836 310.361 318.129 309.455C316.422 308.548 314.848 308.169 314.615 308.608C314.382 309.047 315.577 310.138 317.285 311.044C318.992 311.951 320.565 312.33 320.798 311.891Z" fill="#9D9FA2"/>
<path d="M299.973 332.343C300.207 331.904 295.927 329.176 290.414 326.25C284.902 323.323 280.244 321.307 280.011 321.746C279.778 322.185 284.058 324.913 289.57 327.84C295.083 330.766 299.74 332.782 299.973 332.343Z" fill="#9D9FA2"/>
<path d="M306.532 305.23C306.765 304.791 302.485 302.063 296.973 299.136C291.46 296.21 286.803 294.194 286.569 294.633C286.336 295.072 290.616 297.8 296.129 300.726C301.641 303.653 306.299 305.669 306.532 305.23Z" fill="#9D9FA2"/>
<path d="M404.3 189.8C405 192.4 405.9 195 407 197.4C407.2 197.8 407.4 198.2 407.6 198.6L425 234L426.2 236.4L441.9 268.4C442.6 269.9 444 270.7 444.7 270L479 239.7C482.1 237 483.8 232.1 483.3 225.5C482.8 219.6 480.6 213.3 477.3 207.7C474 202.1 469.7 197.3 464.9 194.1C454.8 187.4 446.1 190.3 443.9 199.8C443.8 200.3 443 199.9 442.9 199.2C440.7 187.2 432.1 174.3 421.9 169.3C412.3 164.5 404.4 168.9 403.4 179.4C403.1 182.7 403.4 186.2 404.3 189.8Z" fill="#9D9FA2"/>
<path d="M378.099 191.6C378.699 185.2 383.499 182.5 389.299 185.4C395.499 188.5 400.799 196.3 402.099 203.6C402.199 204 402.599 204.3 402.699 204C403.999 198.2 409.299 196.5 415.499 200.5C421.399 204.4 426.199 212.5 426.699 219.6C426.999 223.6 425.999 226.6 424.099 228.3L403.199 246.8C402.799 247.2 401.899 246.7 401.499 245.8L380.699 203.2C378.799 199.4 377.799 195.3 378.099 191.6Z" fill="#9D9FA2"/>
<path d="M439.9 198.899C439.9 198.899 434.2 175.499 413.1 171.399C413.2 171.399 423.7 186.899 439.9 198.899Z" fill="#E3E3E8"/>
<path d="M422.899 224.099C422.899 224.099 427.099 210.599 411.899 202.199C411.899 202.199 422.499 210.299 422.899 224.099Z" fill="#E3E3E8"/>
<path d="M400.1 205.8C400.1 205.8 398.3 192.9 384.6 186.1C384.6 186.2 394.5 197.8 400.1 205.8Z" fill="#E3E3E8"/>
<path d="M479.5 225.999C479.5 216.799 470.5 196.899 452.5 193.899C452.5 193.899 461.4 196.199 470.2 206.999C477.5 215.999 479.5 225.999 479.5 225.999Z" fill="#E3E3E8"/>
<path d="M416.799 214.1C416.899 212.4 418.199 211.8 419.699 212.5C421.299 213.3 422.699 215.3 422.999 217.2C422.999 217.3 423.099 217.4 423.199 217.3C423.499 215.8 424.899 215.3 426.499 216.4C427.999 217.4 429.299 219.5 429.399 221.4C429.499 222.4 429.199 223.2 428.699 223.6L423.299 228.4C423.199 228.5 422.999 228.4 422.899 228.1L417.499 217.1C416.999 216.1 416.699 215.1 416.799 214.1Z" fill="#E3E3E8"/>
<path d="M97 334.899V326.099L124.5 317.399L209.6 359.599V368.199L182.6 383.999L97 334.899Z" fill="#E0E0E0"/>
<path d="M95.5996 325.299V322.999L124.5 308.699L211.5 356.299V358.599L182.6 375.299L95.5996 325.299Z" fill="#00BAFF"/>
<path d="M95.5996 322.899L124.5 306.199L211.5 356.199L182.6 372.899L95.5996 322.899Z" fill="url(#paint0_linear)"/>
<path d="M182.899 375.1V383.9L209.899 368.1V359.5L182.899 375.1Z" fill="#F8F8F8"/>
<path d="M162.599 264.099L249.299 214.099V209.699L183.399 211.599L95.1992 220.799V225.199L162.599 264.099Z" fill="#E3E3E8"/>
<path d="M162.599 262.699L249.299 212.699V211.199L181.899 173.699L95.1992 222.299V223.799L162.599 262.699Z" fill="url(#paint1_linear)"/>
<path d="M162.599 261.2L249.299 211.2L181.899 172.3L95.1992 222.4L162.599 261.2Z" fill="#FE2E57"/>
<path d="M162.599 259.7L249.299 209.7L181.899 170.8L95.1992 220.9L162.599 259.7Z" fill="#A5A5AF"/>
<path opacity="0.85" d="M249.2 203.1L162.5 253.1L150.3 246.1L145.6 243.4L143.6 242.2L113.6 224.9L112.5 224.3L107.2 221.2L95.0996 214.2L181.8 164.1L249.2 203.1Z" fill="#85DEFF"/>
<path d="M249.2 209.699V211.199L162.5 261.199L95.0996 222.299V220.799L162.5 259.699L249.2 209.699Z" fill="#EFEDED"/>
<path d="M364.799 380.8L451.499 330.8V329.3L385.599 328.3L297.399 340.5V342L364.799 380.8Z" fill="url(#paint2_linear)"/>
<path d="M364.799 379.399L451.499 329.399V327.899L384.099 290.399L297.399 338.999V340.499L364.799 379.399Z" fill="#F8F8F8"/>
<path d="M364.799 377.9L451.499 327.9L384.099 289L297.399 339L364.799 377.9Z" fill="#FE2E57"/>
<path d="M364.799 376.4L451.499 326.4L384.099 287.5L297.399 337.6L364.799 376.4Z" fill="url(#paint3_linear)"/>
<path opacity="0.85" d="M451.499 319.8L364.799 369.8L352.599 362.8L347.899 360.1L345.899 358.9L315.899 341.6L314.799 341L309.499 337.9L297.399 330.9L384.099 280.8L451.499 319.8Z" fill="#EBF2FC"/>
<path d="M451.499 326.399V327.899L364.799 377.899L297.399 338.999V337.499L364.799 376.399L451.499 326.399Z" fill="#00BAFF"/>
<path d="M33.9998 234.599C33.3998 223.499 25.8998 219.899 25.7998 219.899L26.0998 219.199C26.1998 219.199 34.0998 222.999 34.6998 234.499L33.9998 234.599Z" fill="#C0C2D1"/>
<path d="M104.8 275.4L104.1 275.3C105.8 263.2 115.4 258.6 115.5 258.6L115.8 259.3C115.7 259.3 106.4 263.7 104.8 275.4Z" fill="#C0C2D1"/>
<path d="M40.0996 249.799L124 286.399V287.899L104.8 298.999L18.0996 248.899V247.399L40.0996 249.799Z" fill="url(#paint4_linear)"/>
<path d="M37.2996 236.3L124 286.3L104.8 297.4L18.0996 247.3L37.2996 236.3Z" fill="#F8F8F8"/>
<path d="M117.699 285.399L115.199 286.899L103.299 293.799L27.1992 249.699L24.6992 248.199L39.0992 239.899L117.699 285.399Z" fill="#E3E3E8"/>
<path d="M52.8998 253.1C51.3998 244.7 53.1998 239 55.0998 235.7C57.0998 232.1 59.3998 230.6 59.4998 230.5L59.8998 231.1C59.7998 231.2 50.7998 237.3 53.5998 253L52.8998 253.1Z" fill="#C0C2D1"/>
<path d="M44.0996 221.199L51.9996 226.999C51.9996 226.999 59.7996 218.599 58.1996 211.599C58.0996 211.599 50.5996 210.999 44.0996 221.199Z" fill="url(#paint5_linear)"/>
<path d="M38.7998 220.6L44.9998 216.8C44.9998 216.8 41.0998 208.3 35.8998 208.5C35.7998 208.5 33.6998 213.3 38.7998 220.6Z" fill="url(#paint6_linear)"/>
<path d="M67.2998 235.3L75.7998 237C75.7998 237 79.3998 226.4 74.5998 222.3C74.5998 222.3 68.7998 224.7 67.2998 235.3Z" fill="url(#paint7_linear)"/>
<path d="M44.1996 230.8C45.4996 225.4 51.9996 217.8 51.9996 217.8C51.9996 217.8 45.9996 223.7 43.9996 229C42.9996 220.1 38.5996 213.3 38.5996 213.3C38.6996 213.5 48.0996 231.2 40.6996 245.8L41.3996 246.1C43.8996 241.1 44.4996 235.7 44.1996 230.8Z" fill="#C0C2D1"/>
<path d="M79.1992 238.299L81.4992 242.899C81.4992 242.899 87.7992 240.699 87.8992 236.899C87.9992 236.999 84.6992 235.099 79.1992 238.299Z" fill="#E0E0E0"/>
<path d="M115.1 286.9L103.2 293.8L83.5996 282.4L83.4996 282.3L71.5996 275.4L68.8996 273.8L50.0996 263L48.1996 261.9L27.0996 249.7L38.9996 242.8L42.3996 244.8L44.1996 245.8L50.8996 249.7L51.4996 250L62.6996 256.5L66.9996 259L70.7996 261.2L72.6996 262.3L84.7996 269.3L86.6996 270.4L88.9996 271.7L92.5996 273.8L95.9996 275.8L98.2996 277.2L115.1 286.9Z" fill="#C0C2D1"/>
<path d="M104.8 298.899V308.599L60.4996 283.499L59.9996 283.199L59.7996 283.099C58.9996 282.599 58.4996 282.399 58.4996 282.399L27.6996 264.899L21.5996 250.899L85.2996 287.699L104.8 298.899Z" fill="#E0E0E0"/>
<path d="M96 245L100.5 252.8C100.5 252.8 111.9 248.6 114.1 241.3C114.1 241.4 105.3 238.8 96 245Z" fill="url(#paint8_linear)"/>
<path d="M121.9 289L120.1 299.7L116.3 301.9L104.8 308.6V298.9L109.9 295.9L121.9 289Z" fill="#F8F8F8"/>
<path d="M73.5994 260.7C72.2994 243.6 83.6994 238.8 83.6994 238.8C83.6994 238.8 80.9994 240.1 78.4994 243.4C76.1994 246.5 73.5994 251.9 74.2994 260.6L73.5994 260.7Z" fill="#C0C2D1"/>
<path d="M81.9998 267.6L81.2998 267.5C82.6998 260.4 89.2998 254.6 94.5998 251C98.0998 248.6 102 246.8 106.1 245.5C105.9 245.5 84.6998 254.4 81.9998 267.6Z" fill="#C0C2D1"/>
<path d="M73.7001 266.4C66.8001 245.1 73.1001 228 73.1001 228C72.2001 232 71.5001 236.1 71.1001 240.2C70.6001 246 70.8001 255.2 74.4001 266.2L73.7001 266.4Z" fill="#C0C2D1"/>
<path d="M86.6994 272.1C85.8994 277.4 84.7994 280.5 83.4994 282.4L71.5994 275.5L68.8994 273.9C68.8994 272.2 69.0994 270.6 69.2994 268.9C69.2994 268.9 69.8994 265.2 70.6994 261.2C71.6994 256.2 72.8994 250.6 73.5994 250.9C74.7994 251.3 74.3994 260.4 75.7994 259.4C77.1994 258.3 76.7994 245.9 78.2994 246C79.8994 246.1 78.7994 264.8 80.6994 264.2C82.5994 263.5 80.8994 250.5 83.4994 251C85.5994 251.4 86.2994 265.5 86.4994 270.5C86.6994 271.5 86.6994 272.1 86.6994 272.1Z" fill="#E0E0E0"/>
<path d="M115.1 286.9L103.2 293.8L83.5996 282.4C83.7996 278.8 84.1996 273.8 84.6996 269.3C85.3996 263.2 86.2996 258 87.2996 257.9C88.6996 257.8 88.6996 265.4 88.7996 271.7C88.8996 276.1 89.1996 279.8 90.1996 279.7C91.5996 279.7 91.8996 276.5 92.3996 273.8C92.6996 271.8 93.1996 270 94.1996 269.7C95.5996 269.2 95.5996 272.8 95.8996 275.8C96.0996 278 96.3996 279.8 97.2996 279.5C97.7996 279.3 98.0996 278.4 98.1996 277.2C98.6996 272.6 97.6996 263 99.2996 263.6C101.3 264.3 101.3 277.3 102.8 276.9C104.3 276.5 101.5 255.7 104.7 255.4C107.9 255.2 108.8 277.2 111.2 277.5C113.5 277.9 112.5 264.2 115.1 265C117.7 265.9 115.1 286.9 115.1 286.9Z" fill="url(#paint9_linear)"/>
<path d="M72.6992 262.3C72.5992 267.7 72.1992 272.9 71.6992 275.5L50.0992 263L48.1992 261.9C48.4992 260.4 49.0992 259 49.7992 257.7C49.7992 257.7 50.4992 254 51.4992 250C52.6992 245.1 54.2992 239.6 55.5992 239.7C57.8992 239.8 53.7992 251 55.5992 251.6C57.3992 252.2 59.9992 237.2 62.0992 237.8C63.6992 238.2 61.7992 250 62.6992 256.5C62.9992 258.6 63.5992 260.2 64.6992 260.6C65.6992 261 66.4992 260.3 67.0992 259C69.0992 254.5 69.2992 243.1 71.0992 243.9C72.2992 244.4 72.7992 253.7 72.6992 262.3Z" fill="url(#paint10_linear)"/>
<path d="M50.0997 263L27.0997 249.6C27.0997 249.6 25.8997 232.2 28.4997 232.4C31.0997 232.6 30.6997 242.3 31.8997 242.7C33.1997 243.1 30.6997 224.2 33.9997 224.6C37.2997 225 35.0997 241.4 37.2997 240.7C39.4997 240 37.3997 229.8 40.7997 229.9C43.3997 229.9 42.1997 239.8 42.2997 244.7C42.3997 246.1 42.4997 247.1 42.9997 247.3C43.4997 247.5 43.8997 246.8 44.0997 245.7C44.7997 242.6 45.0997 236.1 47.5997 237.1C49.4997 237.8 50.4997 243.5 50.7997 249.6C51.0997 254.8 50.7997 260.1 50.0997 263Z" fill="#E0E0E0"/>
<path d="M24.5998 221.9C25.8998 221.9 26.8998 220.9 26.8998 219.6C26.8998 218.3 25.8998 217.3 24.5998 217.3C23.2998 217.3 22.2998 218.3 22.2998 219.6C22.2998 220.9 23.2998 221.9 24.5998 221.9Z" fill="#E0E0E0"/>
<path d="M115.6 261.299C116.9 261.299 117.9 260.299 117.9 258.999C117.9 257.699 116.9 256.699 115.6 256.699C114.3 256.699 113.3 257.699 113.3 258.999C113.3 260.299 114.3 261.299 115.6 261.299Z" fill="url(#paint11_linear)"/>
<path d="M60.4994 232.8C61.6994 232.8 62.5994 231.9 62.5994 230.7C62.5994 229.5 61.6994 228.6 60.4994 228.6C59.2994 228.6 58.3994 229.5 58.3994 230.7C58.3994 231.9 59.2994 232.8 60.4994 232.8Z" fill="#E0E0E0"/>
<path d="M104.8 298.9V308.6L60.5 283.5C65.9 286.5 80.7 294.4 83.1 293.3C86 291.9 85.3 287.7 85.3 287.7L104.8 298.9Z" fill="#E0E0E0"/>
<path d="M116.3 301.899L104.8 308.599V298.899L109.9 295.899C109.9 295.899 109.9 295.999 110 295.999C110 295.999 109.2 299.599 110 301.799C110.7 303.999 116.3 301.899 116.3 301.899Z" fill="#E0E0E0"/>
<path d="M236.3 351.4C235.7 340.3 228.2 336.7 228.1 336.7L228.4 336C228.5 336 236.4 339.8 237 351.3L236.3 351.4Z" fill="#C0C2D1"/>
<path d="M307.099 392.199L306.399 392.099C308.099 379.999 317.699 375.399 317.799 375.399L318.099 376.099C317.999 376.099 308.699 380.499 307.099 392.199Z" fill="#C0C2D1"/>
<path d="M242.4 366.6L326.3 403.2V404.7L307 415.7L220.3 365.6V364.1L242.4 366.6Z" fill="url(#paint12_linear)"/>
<path d="M239.6 353.1L326.3 403.1L307 414.2L220.3 364.1L239.6 353.1Z" fill="#F8F8F8"/>
<path d="M319.899 402.199L317.399 403.699L305.499 410.599L229.399 366.499L226.899 364.999L241.299 356.699L319.899 402.199Z" fill="#E3E3E8"/>
<path d="M255.2 369.799C253.7 361.399 255.5 355.699 257.4 352.399C259.4 348.799 261.7 347.299 261.8 347.199L262.2 347.799C262.1 347.899 253.1 353.999 255.9 369.699L255.2 369.799Z" fill="#C0C2D1"/>
<path d="M246.399 337.999L254.299 343.799C254.299 343.799 262.099 335.399 260.499 328.399C260.399 328.399 252.799 327.799 246.399 337.999Z" fill="url(#paint13_linear)"/>
<path d="M241.1 337.399L247.3 333.599C247.3 333.599 243.4 325.099 238.2 325.299C238.1 325.299 235.9 330.099 241.1 337.399Z" fill="#E0E0E0"/>
<path d="M269.6 352.1L278.1 353.8C278.1 353.8 281.7 343.2 276.9 339.1C276.9 339.1 271.1 341.5 269.6 352.1Z" fill="url(#paint14_linear)"/>
<path d="M246.499 347.6C247.799 342.2 254.299 334.6 254.299 334.6C254.299 334.6 248.299 340.5 246.299 345.8C245.299 336.9 240.899 330.1 240.899 330.1C240.999 330.3 250.399 348 242.999 362.6L243.699 362.9C246.199 357.9 246.799 352.5 246.499 347.6Z" fill="#C0C2D1"/>
<path d="M281.5 355.1L283.8 359.7C283.8 359.7 290.1 357.5 290.2 353.7C290.3 353.7 287 351.9 281.5 355.1Z" fill="url(#paint15_linear)"/>
<path d="M317.399 403.7L305.499 410.6L285.899 399.2L285.799 399.1L273.899 392.2L271.199 390.6L252.399 379.7L250.499 378.6L229.399 366.4L241.299 359.5L244.699 361.5L246.499 362.5L253.199 366.4L253.799 366.7L264.999 373.2L269.299 375.7L273.099 377.9L274.999 379L287.099 386L288.999 387.1L291.299 388.4L294.899 390.5L298.299 392.5L300.599 393.9L317.399 403.7Z" fill="#C0C2D1"/>
<path d="M306.999 415.699V425.399L262.699 400.299L262.199 399.999L261.999 399.899C261.199 399.399 260.699 399.199 260.699 399.199L229.999 381.699L223.899 367.699L287.599 404.499L306.999 415.699Z" fill="#E0E0E0"/>
<path d="M298.3 361.8L302.8 369.6C302.8 369.6 314.2 365.4 316.4 358.1C316.4 358.1 307.5 355.6 298.3 361.8Z" fill="url(#paint16_linear)"/>
<path d="M324.1 405.8L322.3 416.5L318.5 418.7L307 425.4V415.7L312.1 412.7L324.1 405.8Z" fill="#F8F8F8"/>
<path d="M275.899 377.5C274.599 360.4 285.999 355.6 285.999 355.6C285.999 355.6 283.299 356.9 280.799 360.2C278.499 363.3 275.899 368.7 276.599 377.4L275.899 377.5Z" fill="#C0C2D1"/>
<path d="M284.3 384.4L283.6 384.3C285 377.2 291.6 371.4 296.9 367.8C300.4 365.4 304.3 363.6 308.4 362.3C308.2 362.3 287 371.2 284.3 384.4Z" fill="#C0C2D1"/>
<path d="M276 383.2C269.1 361.9 275.4 344.8 275.4 344.8C274.5 348.8 273.8 352.9 273.4 357C272.9 362.8 273.1 372 276.7 383L276 383.2Z" fill="#C0C2D1"/>
<path d="M288.999 388.899C288.199 394.199 287.099 397.299 285.799 399.199L273.899 392.299L271.199 390.699C271.199 388.999 271.399 387.399 271.599 385.699C271.599 385.699 272.199 381.999 272.999 377.999C273.999 372.999 275.199 367.399 275.899 367.699C277.099 368.099 276.699 377.199 278.099 376.199C279.499 375.099 279.099 362.699 280.599 362.799C282.199 362.899 281.099 381.599 282.999 380.999C284.899 380.299 283.199 367.299 285.799 367.799C287.899 368.199 288.599 382.299 288.799 387.299C288.899 388.299 288.999 388.899 288.999 388.899Z" fill="url(#paint17_linear)"/>
<path d="M317.399 403.7L305.499 410.6L285.899 399.2C286.099 395.6 286.499 390.6 286.999 386.1C287.699 380 288.599 374.8 289.599 374.7C290.999 374.6 290.999 382.2 291.099 388.5C291.199 392.9 291.499 396.6 292.499 396.5C293.899 396.5 294.199 393.3 294.699 390.6C294.999 388.6 295.499 386.8 296.499 386.5C297.899 386 297.899 389.6 298.199 392.6C298.399 394.8 298.699 396.6 299.599 396.3C300.099 396.1 300.399 395.2 300.499 394C300.999 389.4 299.999 379.8 301.599 380.4C303.599 381.1 303.599 394.1 305.099 393.7C306.599 393.3 303.799 372.5 306.999 372.2C310.199 372 311.099 394 313.499 394.3C315.799 394.7 314.799 381 317.399 381.8C319.999 382.7 317.399 403.7 317.399 403.7Z" fill="url(#paint18_linear)"/>
<path d="M275 379.1C274.9 384.5 274.5 389.7 274 392.3L252.5 379.8L250.6 378.7C250.9 377.2 251.5 375.8 252.2 374.5C252.2 374.5 252.9 370.8 253.9 366.8C255.1 361.9 256.7 356.4 258 356.5C260.3 356.6 256.2 367.8 258 368.4C259.8 369 262.4 354 264.5 354.6C266.1 355 264.2 366.8 265.1 373.3C265.4 375.4 266 377 267.1 377.4C268.1 377.8 268.9 377.1 269.5 375.8C271.5 371.3 271.7 359.9 273.5 360.7C274.6 361.2 275.1 370.5 275 379.1Z" fill="#E0E0E0"/>
<path d="M252.4 379.8L229.4 366.4C229.4 366.4 228.2 349 230.8 349.2C233.4 349.4 233 359.1 234.2 359.5C235.5 359.9 233 341 236.3 341.4C239.6 341.8 237.4 358.2 239.6 357.5C241.8 356.8 239.7 346.6 243.1 346.7C245.8 346.7 244.5 356.6 244.6 361.5C244.7 362.9 244.8 363.9 245.3 364.1C245.8 364.3 246.2 363.6 246.4 362.5C247.1 359.4 247.4 352.9 249.9 353.9C251.8 354.6 252.8 360.3 253.1 366.4C253.4 371.6 253.1 376.9 252.4 379.8Z" fill="url(#paint19_linear)"/>
<path d="M229.1 336.9C229.4 335.7 228.6 334.5 227.4 334.2C226.2 333.9 225 334.7 224.7 335.9C224.4 337.1 225.2 338.3 226.4 338.6C227.6 338.9 228.8 338.1 229.1 336.9Z" fill="#E0E0E0"/>
<path d="M319.9 377.1C320.6 376 320.3 374.6 319.2 373.9C318.1 373.2 316.7 373.5 316 374.6C315.3 375.7 315.6 377.1 316.7 377.8C317.7 378.4 319.2 378.1 319.9 377.1Z" fill="url(#paint20_linear)"/>
<path d="M262.7 349.599C263.9 349.599 264.8 348.699 264.8 347.499C264.8 346.299 263.9 345.399 262.7 345.399C261.5 345.399 260.6 346.299 260.6 347.499C260.6 348.699 261.6 349.599 262.7 349.599Z" fill="url(#paint21_linear)"/>
<path d="M306.999 415.7V425.4L262.699 400.3C268.099 403.3 282.899 411.2 285.299 410.1C288.199 408.7 287.499 404.5 287.499 404.5L306.999 415.7Z" fill="#E0E0E0"/>
<path d="M318.6 418.699L307.1 425.399V415.699L312.2 412.699C312.2 412.699 312.2 412.799 312.3 412.799C312.3 412.799 311.5 416.399 312.3 418.599C313 420.799 318.6 418.699 318.6 418.699Z" fill="#E0E0E0"/>
<path d="M273 17.8997L355.6 65.5997C357.7 66.7997 359.4 68.4997 360.6 70.5997C361.8 72.6997 362.4 74.9997 362.4 77.3997V272.8C362.4 273.6 362.2 274.4 361.8 275.1C361.4 275.8 360.8 276.4 360.1 276.8C359.4 277.2 358.6 277.4 357.8 277.4C357 277.4 356.2 277.2 355.5 276.8L272.9 229.1C270.8 227.9 269.1 226.2 267.9 224.1C266.7 222 266.1 219.7 266.1 217.3V21.8997C266.1 21.0997 266.3 20.2997 266.7 19.5997C267.1 18.8997 267.7 18.2997 268.4 17.8997C269.1 17.4997 269.9 17.2997 270.7 17.2997C271.5 17.1997 272.3 17.4997 273 17.8997Z" fill="url(#paint22_linear)"/>
<path d="M268.1 18.0996L260.6 23.8996L262.6 27.1996L271.3 24.3996L268.1 18.0996Z" fill="url(#paint23_linear)"/>
<path d="M360.599 276.5L353.499 282L350.399 279.2L359.999 272.5L360.599 276.5Z" fill="url(#paint24_linear)"/>
<path d="M265.799 23.3998L348.399 71.0998C350.499 72.2998 352.199 73.9998 353.399 76.0998C354.599 78.1998 355.199 80.4998 355.199 82.8998V278.3C355.199 279.1 354.999 279.9 354.599 280.6C354.199 281.3 353.599 281.9 352.899 282.3C352.199 282.7 351.399 282.9 350.599 282.9C349.799 282.9 348.999 282.7 348.299 282.3L265.699 234.6C263.599 233.4 261.899 231.7 260.699 229.6C259.499 227.5 258.899 225.2 258.899 222.8V27.3998C258.899 26.5998 259.099 25.7998 259.499 25.0998C259.899 24.3998 260.499 23.7998 261.199 23.3998C261.899 22.9998 262.699 22.7998 263.499 22.7998C264.299 22.7998 265.099 22.9998 265.799 23.3998Z" fill="#636466"/>
<path d="M351.799 88.4994V268.899C351.799 269.699 351.599 270.499 351.199 271.199C350.799 271.899 350.199 272.499 349.499 272.899C348.799 273.299 347.999 273.499 347.199 273.499C346.399 273.499 345.599 273.299 344.899 272.899L341.399 270.899L334.599 266.999L333.899 266.599L281.299 236.199L277.499 233.999L269.699 229.499L269.199 229.199C267.099 227.999 265.399 226.299 264.199 224.199C262.999 222.099 262.399 219.799 262.399 217.399V36.9994C262.399 36.1994 262.599 35.3994 262.999 34.6994C263.399 33.9994 263.999 33.3994 264.699 32.9994C265.399 32.5994 266.199 32.3994 266.999 32.3994C267.799 32.3994 268.599 32.5994 269.299 32.9994L281.399 39.9994L329.399 67.6994L344.899 76.6994C346.999 77.8994 348.699 79.5994 349.899 81.6994C351.099 83.6994 351.799 86.0994 351.799 88.4994Z" fill="#F8F8F8"/>
<path d="M331.9 68.1998L320.7 74.6998C320 75.0998 319.1 75.2998 318.3 75.2998C317.5 75.2998 316.6 75.0998 315.9 74.6998L291.9 60.7998C290.3 59.8998 289.1 58.3998 288.4 56.5998L282.1 38.7998L331.9 68.1998Z" fill="#656668"/>
<path d="M305.5 61.8999C305.5 63.2999 304.6 63.7999 303.4 63.0999C302.2 62.3999 301.3 60.7999 301.3 59.3999C301.3 57.9999 302.2 57.4999 303.4 58.1999C304.5 58.8999 305.5 60.4999 305.5 61.8999Z" fill="url(#paint25_linear)"/>
<path d="M304.8 61.4999C304.8 62.4999 304.1 62.7999 303.3 62.3999C302.9 62.0999 302.5 61.6999 302.2 61.2999C301.9 60.7999 301.8 60.2999 301.8 59.7999C301.8 58.7999 302.5 58.4999 303.3 58.8999C303.7 59.1999 304.1 59.5999 304.4 59.9999C304.7 60.4999 304.8 60.9999 304.8 61.4999Z" fill="#F8F8F8"/>
<path d="M279.1 181.899L277.5 233.899L269.7 229.399C269.4 218.899 268.5 178.499 269.8 177.799C271.2 177.099 279.1 181.899 279.1 181.899Z" fill="#E3E3E8"/>
<path d="M345.5 259.499C344.5 262.599 342.7 267.299 341.3 270.799L334.5 266.899C335.9 261.899 338.2 253.599 338 251.599C337.6 246.399 334.1 219.399 334.1 219.399L343.8 221.899C343.8 221.899 347.3 253.899 345.5 259.499Z" fill="#E3E3E8"/>
<path d="M348.1 228.599C348.1 228.599 340.3 231.499 333 222.599L333.8 266.499L281.2 236.099V189.299C281.2 189.299 272.9 190.399 265.5 177.999C265.5 177.999 271.8 140.499 276.5 139.599C278.5 139.199 283 140.399 287.4 141.799C288 141.999 288.6 142.199 289.3 142.399C291.1 142.999 292.9 143.699 294.4 144.199C295.1 144.399 295.7 144.699 296.3 144.899C298.2 145.599 299.4 146.099 299.4 146.099C307.8 149.399 311.3 151.899 318.9 157.499C319.6 157.999 320.4 158.599 321.1 159.199C323.6 161.199 326.5 163.599 329.3 166.099C329.9 166.599 330.5 167.099 331 167.699C336.3 172.499 341 177.299 341.9 178.999C346.4 188.199 348.1 228.599 348.1 228.599Z" fill="url(#paint26_linear)"/>
<path d="M301.3 136.199L302 146.499L298.6 145.799C298.6 145.799 298.9 154.199 309.1 160.099C319 165.799 319 157.599 319 157.599L315.1 154.399L315.6 144.899L301.3 136.199Z" fill="#E3E3E8"/>
<path d="M301.3 137.199C301.3 137.199 304 145.599 308.3 148.199C312.6 150.799 315.5 144.699 315.5 144.699L308 142.099L301.3 137.199Z" fill="#C4C4C4"/>
<path d="M297.699 125.599C297.699 125.599 299.099 134.299 299.799 135.299C300.499 136.299 306.199 143.199 308.199 144.199C310.199 145.199 316.299 144.999 317.299 144.199C318.299 143.399 320.299 126.099 320.299 125.099C320.299 123.999 304.599 95.3994 304.599 95.3994C304.599 95.3994 297.299 101.799 297.099 101.999C296.899 102.199 294.799 112.199 297.699 125.599Z" fill="#E3E3E8"/>
<path d="M296.2 113.1C296.2 113.1 294.2 111 292.6 111.9C291 112.8 293.4 121 297.2 123.2C301 125.4 297.2 117.8 297.2 117.8L296.2 113.1Z" fill="#E3E3E8"/>
<path d="M320.299 126.699C320.299 126.699 324.099 128.299 324.099 130.599C324.099 132.099 323.399 137.599 321.499 137.099C319.599 136.599 319.199 135.799 319.199 135.799V128.399L320.299 126.699Z" fill="#E3E3E8"/>
<path d="M294.7 113.1C294.7 113.1 295.5 115 296.7 114.3C297.9 113.6 296.8 111 297.6 111.2C298.4 111.4 301.7 111.3 301.1 109.1C300.5 106.9 301.7 106.4 302.2 107.1C302.7 107.8 303 107.8 303.4 107.7C303.8 107.6 304.8 111.6 306.5 112.4C308.2 113.2 308.6 116.1 309.6 116.4C310.6 116.7 311.9 120.6 313.7 121.2C315.4 121.7 315.3 125.1 316.6 125.7C317.8 126.3 319 128.3 320.1 129.1C321.2 129.9 321.7 129.9 321.7 129.9L321.2 123.9L314.4 109.8C314.4 109.8 299.2 95.2 298.6 94.7C298 94.2 290.3 100.3 290.3 100.3L294.7 113.1Z" fill="#C4C4C4"/>
<path d="M302.9 105C302.9 105 304 110 306.4 111.5C308.8 113 308.4 114.4 310 115.5C311.7 116.6 312.5 119.8 314.1 120.4C315.7 120.9 315.7 124.1 317.9 125.4C320.1 126.7 319.4 126.4 320.2 126.8C321 127.2 320.4 129.1 321.5 129.9C322.6 130.6 319.8 136.1 320.3 136.9C320.8 137.7 319 135.9 319 135.9L317.6 143.5C317.6 143.5 321.5 147.4 321.4 144.8C321.3 142.1 322.8 145.1 325.3 145.7C327.8 146.3 325 141.7 328.4 143.7C331.8 145.7 327.6 138.7 330.2 138.4C332.8 138.1 330 134.8 331.8 133.6C333.6 132.4 331 129.6 333.5 129.2C336 128.8 332.6 124 334 121.7C335.5 119.4 334.6 116.1 332.6 114.6C330.6 113.1 331.8 111.1 333.7 109.1C335.7 107.1 331 102.3 328.5 101.8C326 101.3 329.1 96.4997 325.9 93.5997C322.7 90.6997 323.2 94.1997 320.6 92.0997C318 89.9997 323.2 89.1997 318.7 84.3997C314.2 79.5997 314.4 83.5997 312.3 82.2997C310.2 80.9997 309.6 76.2997 307.1 75.8997C304.6 75.4997 305.2 78.1997 302.7 76.5997C300.2 74.9997 299.8 70.9997 297 70.7997C294.2 70.5997 294.7 73.8997 293.3 74.2997C291.8 74.6997 291.2 71.7997 289.7 73.3997C288.1 74.9997 289.9 76.9997 288 77.0997C286.1 77.1997 285.1 75.9997 284.6 78.1997C284.1 80.3997 286.2 82.1997 284.6 82.4997C283 82.7997 280.3 80.1997 281.2 82.6997C282 85.1997 280.9 85.9997 279.7 86.9997C278.5 87.9997 278.7 90.4997 279.7 92.1997C280.7 93.8997 280.7 94.5997 280.6 96.8997C280.5 99.1997 278.6 98.4997 280.1 101.8C281.6 105 282.8 105.5 282.6 108C282.4 110.5 282.3 112.9 284.4 114.9C286.5 116.9 286.8 115.7 287.9 119.1C289 122.5 289.9 125.4 292 126.9C294 128.3 295.7 128.3 296.1 130.2C296.5 132.1 299.3 134.4 299.3 134.4L297.1 123.3C297.1 123.3 293.7 118.8 294.2 118.2C294.6 117.6 295.2 117.6 294.5 115.9C293.8 114.2 294.1 112.4 294.6 113.2C295.1 114 296.1 114.1 296.1 113.2C296.1 112.4 297 109.6 298.1 109.9C299.2 110.2 301.3 108.8 300 105.9C298.8 103.1 301.8 107.4 302.9 105Z" fill="url(#paint27_linear)"/>
<path d="M307.2 131.699L310.1 133.299C310.1 133.299 308.9 134.799 307.9 134.399C306.9 133.999 306.5 131.799 306.5 131.799L307.2 131.699Z" fill="#C4C4C4"/>
<path d="M305.199 136.899C307.199 137.799 309.199 138.899 310.899 140.199C310.899 140.199 308.199 139.599 305.199 136.899Z" fill="#C4C4C4"/>
<path d="M307 139.3L309.1 140.5C309.1 140.5 308 141 307 139.3Z" fill="#C4C4C4"/>
<path d="M294.5 114.3C294.5 114.3 295.5 114.7 295.8 117.1C296.1 119.4 295.4 118.7 295.4 118.7C295.6 117.2 295.3 115.6 294.5 114.3Z" fill="#C4C4C4"/>
<path d="M321.1 130.399C321.1 130.399 320.4 130.099 320 131.799C319.6 133.599 320 133.399 320 133.399C320 133.399 319.8 132.799 320.2 132.399C320.7 131.999 320.5 130.599 321.1 130.399Z" fill="#C4C4C4"/>
<path d="M313.999 237.3C317.899 235.1 317.899 227.9 313.999 221.2C310.099 214.5 303.899 210.9 299.999 213.1C296.099 215.3 296.099 222.5 299.999 229.2C303.899 235.9 310.199 239.5 313.999 237.3Z" fill="#E3E3E8"/>
<path d="M312.399 234.399C315.399 232.699 315.399 227.199 312.399 221.999C309.399 216.899 304.699 214.099 301.699 215.799C298.699 217.499 298.699 222.999 301.699 228.199C304.699 233.399 309.399 236.099 312.399 234.399Z" fill="#F8F8F8"/>
<path d="M338.7 247C340.3 246.1 340.3 243 338.7 240.1C337.1 237.3 334.4 235.7 332.8 236.7C331.2 237.6 331.2 240.7 332.8 243.6C334.4 246.4 337.1 248 338.7 247Z" fill="url(#paint28_linear)"/>
<path d="M340.3 241.299C339.5 240.799 338.8 241.199 338.8 242.199C338.8 241.699 338.6 241.199 338.4 240.699C338.1 240.199 337.8 239.899 337.3 239.599C338.1 240.099 338.8 239.699 338.8 238.699C338.8 239.199 339 239.699 339.2 240.199C339.5 240.599 339.9 240.999 340.3 241.299Z" fill="#F8F8F8"/>
<path d="M340.199 238.7C339.699 238.4 339.299 238.6 339.299 239.2C339.299 238.9 339.199 238.6 338.999 238.3C338.799 238 338.599 237.8 338.399 237.6C338.899 237.9 339.299 237.7 339.299 237.1C339.299 237.4 339.399 237.7 339.599 238C339.699 238.3 339.899 238.5 340.199 238.7Z" fill="#F8F8F8"/>
<path d="M337.099 246C336.599 246 335.999 245.8 335.599 245.5C334.499 244.8 333.499 243.6 332.899 242.2V242.1V242C332.899 242 332.899 241.9 332.999 241.9L333.099 241.8H333.199H333.299C333.299 241.8 333.399 241.8 333.399 241.9L333.499 242C333.999 243.3 334.899 244.4 335.899 245C336.799 245.5 337.599 245.5 337.999 244.9C338.099 244.8 338.099 244.8 338.199 244.7C338.299 244.7 338.399 244.7 338.499 244.8C338.599 244.9 338.599 244.9 338.699 245C338.699 245.1 338.699 245.2 338.599 245.3C338.399 245.5 338.199 245.7 337.899 245.9C337.699 246 337.399 246 337.099 246Z" fill="#F8F8F8"/>
<path d="M333.899 240.2C333.899 240.6 333.599 240.7 333.299 240.5C333.099 240.4 332.999 240.2 332.899 240.1C332.799 239.9 332.699 239.7 332.699 239.5C332.699 239.1 332.999 239 333.299 239.2C333.499 239.3 333.599 239.5 333.699 239.6C333.899 239.8 333.899 240 333.899 240.2Z" fill="#F8F8F8"/>
<path d="M338.599 242.9C338.599 243.3 338.299 243.4 337.999 243.2C337.799 243.1 337.699 243 337.599 242.8C337.499 242.6 337.399 242.4 337.399 242.2C337.399 241.8 337.699 241.7 337.999 241.9C338.199 242 338.299 242.2 338.399 242.3C338.499 242.5 338.599 242.7 338.599 242.9Z" fill="#F8F8F8"/>
<path d="M279.2 204.899V203.899L277.8 203.999H277.3L277.8 204.699L279.1 206.399V205.599C280.4 206.799 281.4 208.799 281.4 210.399C281.4 212.299 280.2 213.099 278.6 212.399L279.2 213.099H278.7C280.6 213.899 282 212.899 282 210.699C282.1 208.699 280.9 206.299 279.2 204.899Z" fill="url(#paint29_linear)"/>
<path d="M278.399 212.3L277.099 210.6V211.3C275.799 210.1 274.799 208.1 274.799 206.5C274.799 204.6 275.999 203.8 277.599 204.4L277.099 203.7H277.599C275.699 202.8 274.199 203.9 274.199 206.1C274.199 208.2 275.399 210.6 277.099 212V213.1L278.499 213H278.999L278.399 212.3Z" fill="url(#paint30_linear)"/>
<path d="M336.4 81.6994C336.2 81.7994 336.2 82.0995 336.4 82.3995L339.1 87.0995C339.2 87.2995 339.1 87.4995 339 87.3995L331.5 83.0995C331.3 82.9995 331.1 83.0995 331.1 83.2995C331.1 83.3995 331.1 83.5994 331.2 83.6995C331.3 83.7994 331.4 83.8995 331.5 83.9995L339 88.2995C339.2 88.3995 339.3 88.6995 339.1 88.7995L336.4 90.3995C336.2 90.4995 336.2 90.7995 336.4 91.0995C336.6 91.3995 336.8 91.4995 337 91.3995L340.7 89.1995C340.9 89.0995 340.9 88.7995 340.7 88.5995L337 81.9995C336.8 81.7995 336.6 81.5994 336.4 81.6994Z" fill="#A5A5AF"/>
<path d="M357.5 132.5V140.7C357.5 141.5 358.1 141.8 358.8 141.4C359.2 141.2 359.5 140.8 359.7 140.5C359.9 140.1 360 139.7 360.1 139.3V131.1C360.1 130.3 359.5 130 358.8 130.4C358.4 130.6 358.1 131 357.9 131.3C357.6 131.7 357.5 132.1 357.5 132.5Z" fill="#E3E3E8"/>
<path d="M360.7 131.5V139.7C360.7 140.1 360.6 140.6 360.3 140.9C360.1 141.3 359.8 141.6 359.4 141.8C359.3 141.9 359.1 142 359 142C358.8 142 358.7 142 358.5 141.9C358.4 141.8 358.3 141.7 358.2 141.6C358.1 141.5 358.1 141.3 358.1 141.2V141.1V132.9C358.1 132.5 358.2 132.1 358.4 131.8C358.6 131.4 358.8 131.1 359.2 130.9C359.3 130.9 359.3 130.8 359.4 130.8C359.5 130.7 359.7 130.7 359.8 130.6C359.9 130.6 360.1 130.6 360.2 130.7C360.6 130.8 360.7 131.1 360.7 131.5Z" fill="#F8F8F8"/>
<path d="M336.2 261.9L277.8 228.2C277.5 228 277.3 227.8 277.1 227.5C276.9 227.2 276.8 226.9 276.8 226.6C276.8 226 277.2 225.7 277.8 226L336.2 259.7C336.5 259.9 336.7 260.1 336.9 260.4C337.1 260.7 337.2 261 337.2 261.3C337.2 261.9 336.8 262.2 336.2 261.9Z" fill="#A5A5AF"/>
<path d="M134.8 212.6C134.8 212.6 121.7 216.7 118.8 218.7C117.2 219.8 114.6 222.3 112.6 224.3L107.3 221.2C109.4 219 112.2 216.1 113.5 215.1C115.6 213.4 130.8 208.1 130.8 208.1L134.8 212.6Z" fill="#E3E3E8"/>
<path d="M170.199 233.899C170.199 233.899 159.399 241.899 157.999 242.999C157.299 243.599 153.699 244.899 150.399 245.999L145.699 243.299C148.199 242.299 150.999 241.099 152.499 240.399C155.799 238.899 162.999 231.199 162.999 231.199L170.199 233.899Z" fill="#E3E3E8"/>
<path d="M189.1 221.5C188.3 224.8 169.8 236.7 169.8 236.7C169.8 236.7 161.7 236.3 159.8 232.5L143.6 242.2L113.6 224.9L131.9 214.4C131.9 214.4 124.2 213.3 124 208.6C124 208.6 148 198.9 152.5 199.4C154.4 199.6 157.7 200.7 160.8 201.8C161.2 202 161.7 202.1 162.1 202.3C163.4 202.8 164.6 203.3 165.6 203.7C166.1 203.9 166.5 204.1 166.9 204.2C168.1 204.7 168.9 205.1 168.9 205.1C174.4 207.4 176.2 208.7 180 211.6C180.3 211.9 180.7 212.2 181.1 212.5C182.3 213.5 183.5 214.7 184.7 215.8C184.9 216 185.2 216.3 185.4 216.5C187.5 218.7 189.2 220.8 189.1 221.5Z" fill="url(#paint31_linear)"/>
<path d="M175.399 202.5L170.899 205.6L168.299 204.8C168.299 204.8 164.399 207.2 170.299 210.6C175.899 213.9 179.999 211.5 179.999 211.5L178.299 210L183.399 207.3L175.399 202.5Z" fill="#E3E3E8"/>
<path d="M174.899 202.8C174.899 202.8 172.999 205.7 175.399 207.1C177.699 208.6 183.299 207.3 183.299 207.3L178.099 205.3L174.899 202.8Z" fill="#E3E3E8"/>
<path d="M177.6 198.799C177.6 198.799 174.4 201.499 174.6 201.899C174.7 202.299 176.2 205.199 177.4 205.799C178.6 206.399 183.9 207.399 185.2 207.299C186.5 207.199 196.7 202.599 197.3 202.299C197.8 201.999 198.5 191.199 198.5 191.199C198.5 191.199 189.1 191.799 188.8 191.899C188.5 191.999 181.8 194.499 177.6 198.799Z" fill="#E3E3E8"/>
<path d="M182.5 195C182.5 195 181.8 194.1 180 194.1C178.2 194.1 176.2 196.8 178.4 198.1C180.6 199.4 181.1 196.6 181.1 196.6L182.5 195Z" fill="#E3E3E8"/>
<path d="M196.4 202.899C196.4 202.899 198.9 203.999 197.7 204.599C196.9 204.999 193.6 206.499 192.2 205.999C190.8 205.599 190.9 205.199 190.9 205.199L194.6 203.099L196.4 202.899Z" fill="#E3E3E8"/>
<path d="M181.199 194.8C181.199 194.8 180.899 195.5 182.399 195.5C183.799 195.5 184.099 194.6 184.699 194.8C185.299 195 188.199 195.5 188.799 194.8C189.299 194.1 190.699 194.1 190.699 194.4C190.699 194.7 190.999 194.7 191.399 194.8C191.799 194.8 190.699 196.1 191.799 196.7C192.899 197.2 191.699 198.1 192.499 198.4C193.199 198.7 192.399 200 193.599 200.4C194.799 200.8 193.099 201.8 193.799 202.2C194.599 202.6 194.599 203.3 195.099 203.7C195.399 203.9 195.699 204.1 196.099 204.2L198.699 202.4L199.899 197.2C199.899 197.2 194.099 190.5 193.799 190.3C193.499 190.1 183.899 190.5 183.899 190.5L181.199 194.8Z" fill="#C7C7C7"/>
<path d="M192.299 193.8C192.299 193.8 190.799 195.4 192.099 196.2C193.399 197 192.299 197.4 193.199 198C194.099 198.6 193.199 199.6 194.299 200.1C195.399 200.5 193.899 201.4 195.099 202.2C196.399 203 195.899 202.7 196.399 203C196.899 203.2 195.499 203.7 195.999 204.1C196.599 204.5 191.999 206 191.599 205.9C191.499 205.9 190.899 205.5 190.899 205.5L185.899 207.5C185.899 207.5 187.299 209.3 188.599 208.5C189.899 207.7 189.599 208.8 191.499 209.4C193.299 210 193.199 208.2 195.199 209.3C197.199 210.4 196.999 207.7 199.399 208.1C201.799 208.4 200.999 207 203.099 207C205.199 207 204.399 205.7 206.699 206C208.999 206.3 208.499 204.4 210.899 203.9C213.299 203.5 214.199 202.4 213.299 201.6C212.299 200.8 214.299 200.5 216.999 200.2C219.699 200 218.099 197.8 216.199 197.2C214.299 196.7 219.399 195.8 217.999 194.4C216.699 193 215.399 194.1 214.199 193.1C212.999 192.1 217.899 192.7 216.399 190.6C214.899 188.5 213.099 189.7 211.999 188.9C210.899 188.2 212.699 186.7 210.699 186.2C208.699 185.7 207.999 186.5 206.599 185.7C205.199 184.8 206.899 183.6 204.599 183.1C202.299 182.6 201.099 183.6 199.699 183.5C198.299 183.4 199.199 182.4 196.999 182.6C194.899 182.8 195.399 183.7 193.699 183.4C191.999 183.1 191.699 182.6 190.199 183.2C188.699 183.8 189.499 184.6 188.099 184.4C186.599 184.2 185.599 183 185.099 183.9C184.599 184.8 183.199 184.8 181.699 184.9C180.199 185 179.099 185.7 179.099 186.4C179.199 187.1 178.799 187.3 177.599 187.9C176.399 188.6 175.099 188 174.699 189.2C174.299 190.4 175.199 190.7 173.699 191.4C172.299 192.1 170.999 192.7 171.799 193.7C172.599 194.6 173.499 194.3 172.799 195.5C172.099 196.7 171.399 197.7 172.499 198.4C173.599 199.1 174.999 199.4 174.399 200C173.799 200.6 174.999 201.7 174.999 201.7L178.699 198.2C178.699 198.2 177.999 196.4 178.699 196.3C179.399 196.2 179.899 196.3 180.099 195.7C180.299 195.1 181.499 194.6 181.499 194.9C181.599 195.2 182.399 195.4 182.799 195.2C183.199 195 185.299 194.3 186.199 194.6C186.999 194.9 189.499 194.8 189.799 193.8C189.699 192.6 190.099 194.3 192.299 193.8Z" fill="url(#paint32_linear)"/>
<path d="M182.7 202.2L184.3 203.1C184.3 203.1 182.5 203.3 181.8 203C181.1 202.7 181.9 202 181.9 202L182.7 202.2Z" fill="#C4C4C4"/>
<path d="M178.399 203.3C179.599 203.8 180.699 204.4 181.699 205.2C181.699 205.2 179.599 204.6 178.399 203.3Z" fill="#C4C4C4"/>
<path d="M178.699 204.3L179.899 205C179.899 205 178.799 205 178.699 204.3Z" fill="#C4C4C4"/>
<path d="M180.4 195.1C180.4 195.1 181.1 195.4 180.1 196.1C179.2 196.8 179 196.5 179 196.5C179 196.5 180.5 195.9 180.4 195.1Z" fill="#C4C4C4"/>
<path d="M195.299 204.1C195.299 204.1 194.899 203.9 193.599 204.3C192.399 204.7 192.799 204.8 192.799 204.8C192.799 204.8 192.899 204.6 193.499 204.5C194.099 204.5 194.599 204 195.299 204.1Z" fill="#C4C4C4"/>
<path d="M337.1 329.3C337.1 329.3 324 333.4 321.1 335.4C319.5 336.5 316.9 339 314.9 341L309.6 337.9C311.7 335.7 314.5 332.8 315.8 331.8C317.9 330.1 333.1 324.8 333.1 324.8L337.1 329.3Z" fill="#EFEFEF"/>
<path d="M372.399 350.7C372.399 350.7 361.599 358.7 360.199 359.8C359.499 360.4 355.899 361.7 352.599 362.8L347.899 360.1C350.399 359.1 353.199 357.9 354.699 357.2C357.999 355.7 365.199 348 365.199 348L372.399 350.7Z" fill="#EFEFEF"/>
<path d="M391.3 338.2C390.5 341.5 372 353.4 372 353.4C372 353.4 363.9 353 362 349.2L345.8 358.9L315.8 341.6L334.1 331.1C334.1 331.1 326.4 330.1 326.2 325.3C326.2 325.3 350.2 315.6 354.7 316.1C356.6 316.3 359.9 317.4 363 318.5C363.4 318.7 363.9 318.8 364.3 319C365.6 319.5 366.8 320 367.8 320.4C368.3 320.6 368.7 320.8 369.1 320.9C370.3 321.4 371.1 321.8 371.1 321.8C376.6 324.1 378.4 325.4 382.2 328.3C382.5 328.6 382.9 328.9 383.3 329.2C384.5 330.2 385.7 331.4 386.9 332.5C387.1 332.7 387.4 333 387.6 333.2C389.8 335.4 391.5 337.5 391.3 338.2Z" fill="#A5A5AF"/>
<path d="M377.6 319.199L373.1 322.299L370.5 321.499C370.5 321.499 366.6 323.899 372.5 327.299C378.1 330.599 382.2 328.199 382.2 328.199L380.5 326.699L385.6 323.999L377.6 319.199Z" fill="#EFEFEF"/>
<path d="M377.2 319.5C377.2 319.5 375.3 322.4 377.7 323.8C380 325.3 385.6 324 385.6 324L380.4 322L377.2 319.5Z" fill="#C6C6C6"/>
<path d="M379.9 315.6C379.9 315.6 376.7 318.3 376.9 318.7C377 319.1 378.5 322 379.7 322.6C380.9 323.2 386.2 324.2 387.5 324.1C388.8 324 399 319.4 399.6 319.1C400.1 318.8 400.8 308 400.8 308C400.8 308 391.4 308.6 391.1 308.7C390.8 308.8 384 311.2 379.9 315.6Z" fill="#EFEFEF"/>
<path d="M384.8 311.7C384.8 311.7 384.1 310.8 382.3 310.8C380.5 310.8 378.5 313.5 380.7 314.8C382.9 316.1 383.4 313.3 383.4 313.3L384.8 311.7Z" fill="#EFEFEF"/>
<path d="M398.599 319.6C398.599 319.6 401.099 320.7 399.899 321.3C399.099 321.7 395.799 323.2 394.399 322.7C392.999 322.3 393.099 321.9 393.099 321.9L396.799 319.8L398.599 319.6Z" fill="#EFEFEF"/>
<path d="M383.5 311.499C383.5 311.499 383.2 312.199 384.7 312.199C386.1 312.199 386.4 311.299 387 311.499C387.6 311.699 390.5 312.199 391.1 311.499C391.6 310.799 393 310.799 393 311.099C393 311.399 393.3 311.399 393.7 311.499C394.1 311.499 393 312.799 394.1 313.399C395.2 313.899 394 314.799 394.8 315.099C395.5 315.399 394.7 316.699 395.9 317.099C397.1 317.499 395.4 318.499 396.1 318.899C396.9 319.299 396.9 319.999 397.4 320.399C397.7 320.599 398 320.799 398.4 320.899L401 319.099L402.2 313.899C402.2 313.899 396.4 307.199 396.1 306.999C395.8 306.799 386.2 307.199 386.2 307.199L383.5 311.499Z" fill="#C6C6C6"/>
<path d="M394.5 310.5C394.5 310.5 393 312.1 394.3 312.9C395.6 313.7 394.5 314.1 395.4 314.7C396.3 315.3 395.4 316.3 396.5 316.8C397.6 317.2 396.1 318.1 397.3 318.9C398.6 319.7 398.1 319.4 398.6 319.7C399.1 319.9 397.7 320.4 398.2 320.8C398.8 321.2 394.2 322.7 393.8 322.6C393.7 322.6 393.1 322.2 393.1 322.2L388.1 324.2C388.1 324.2 389.5 326 390.8 325.2C392.1 324.4 391.8 325.5 393.7 326.1C395.5 326.7 395.4 324.9 397.4 326C399.4 327.1 399.2 324.4 401.6 324.8C404 325.1 403.2 323.7 405.3 323.7C407.4 323.7 406.6 322.4 408.9 322.7C411.2 323 410.7 321.1 413.1 320.6C415.5 320.2 416.4 319.1 415.5 318.3C414.5 317.5 416.5 317.2 419.2 316.9C421.9 316.7 420.3 314.5 418.4 313.9C416.5 313.4 421.6 312.5 420.2 311.1C418.9 309.7 417.6 310.8 416.4 309.8C415.2 308.8 420.1 309.4 418.6 307.3C417.1 305.2 415.3 306.4 414.2 305.6C413.1 304.9 414.9 303.4 412.9 302.9C410.9 302.4 410.2 303.2 408.8 302.4C407.4 301.5 409.1 300.3 406.8 299.8C404.5 299.3 403.3 300.3 401.9 300.2C400.5 300.1 401.4 299.1 399.2 299.3C397.1 299.5 397.6 300.4 395.9 300.1C394.2 299.8 393.9 299.3 392.4 299.9C390.9 300.5 391.7 301.3 390.3 301.1C388.8 300.9 387.8 299.7 387.3 300.6C386.8 301.5 385.4 301.5 383.9 301.6C382.4 301.7 381.3 302.4 381.3 303.1C381.4 303.8 381 304 379.8 304.6C378.6 305.3 377.3 304.7 376.9 305.9C376.5 307.1 377.4 307.4 375.9 308.1C374.5 308.8 373.2 309.4 374 310.4C374.8 311.3 375.7 311 375 312.2C374.3 313.4 373.6 314.4 374.7 315.1C375.8 315.8 377.2 316.1 376.6 316.7C376 317.3 377.2 318.4 377.2 318.4L380.9 314.9C380.9 314.9 380.2 313.1 380.9 313C381.6 312.9 382.1 313 382.3 312.4C382.5 311.8 383.7 311.3 383.7 311.6C383.8 311.9 384.6 312.1 385 311.9C385.4 311.7 387.5 311 388.4 311.3C389.2 311.6 391.7 311.5 392 310.5C391.9 309.3 392.3 311 394.5 310.5Z" fill="#A5A5AF"/>
<path d="M385 318.899L386.6 319.799C386.6 319.799 384.8 319.999 384.1 319.699C383.4 319.399 384.2 318.699 384.2 318.699L385 318.899Z" fill="#C6C6C6"/>
<path d="M380.6 320C381.8 320.5 382.9 321.1 383.9 321.9C383.9 321.9 381.9 321.3 380.6 320Z" fill="#C6C6C6"/>
<path d="M381 321L382.2 321.7C382.2 321.7 381.1 321.7 381 321Z" fill="#C6C6C6"/>
<path d="M382.7 311.8C382.7 311.8 383.4 312.1 382.4 312.8C381.5 313.5 381.3 313.2 381.3 313.2C381.3 313.2 382.8 312.7 382.7 311.8Z" fill="#C6C6C6"/>
<path d="M397.599 320.8C397.599 320.8 397.199 320.6 395.899 321C394.699 321.4 395.099 321.5 395.099 321.5C395.099 321.5 395.199 321.3 395.799 321.2C396.399 321.1 396.899 320.7 397.599 320.8Z" fill="#C6C6C6"/>
<path d="M186.6 97.1999L240.5 128.3C241.9 129.1 243 131 243 132.6V171C243 172.6 241.9 173.2 240.5 172.4L186.6 141.3C185.2 140.5 184.1 138.6 184.1 137V98.5999C184.1 97.0999 185.3 96.3999 186.6 97.1999Z" fill="#9D9FA2"/>
<path opacity="0.74" d="M184.3 98.5999L238.2 129.7C239.6 130.5 240.7 132.4 240.7 134V172.4C240.7 174 239.6 174.6 238.2 173.8L184.3 142.7C182.9 141.9 181.8 140 181.8 138.4V99.9999C181.8 98.3999 182.9 97.7999 184.3 98.5999Z" fill="#00BAFF"/>
<path d="M216.5 146.499L203.9 139.199L187 129.499L201.1 118.399L209.9 134.499L216.5 146.499Z" fill="#E3E3E8"/>
<path d="M226.9 148.4L220.6 148.9L218.2 147.5L211.6 135.5L217.3 131L226.9 148.4Z" fill="#E3E3E8"/>
<path d="M219.5 128.4C219.5 129.8 218.5 130.4 217.3 129.7C216.1 129 215.1 127.3 215.1 125.9C215.1 124.5 216.1 123.9 217.3 124.6C218.5 125.3 219.5 127 219.5 128.4Z" fill="#E3E3E8"/>
<path d="M236.4 152.799L230.6 153.199L228 153.399L220.5 153.999L219.1 150.399L222.3 150.199L228.6 149.699L234.9 149.199C235.3 149.199 235.9 149.699 236.1 150.299L236.6 151.599C237 152.199 236.8 152.799 236.4 152.799Z" fill="#E3E3E8"/>
<path d="M218.3 150.399L219.7 153.999H219L217.6 150.399H218.3Z" fill="#E3E3E8"/>
<path d="M218.7 154L216.6 152.5L216.5 152.4C216.5 152.3 216.5 152.3 216.5 152.2L217.4 150.5L218.7 154Z" fill="#E3E3E8"/>
<path d="M402.099 190.3C402.799 192.9 403.699 195.5 404.799 197.9C404.999 198.3 405.199 198.7 405.399 199.1L422.699 234.5L423.899 236.9L439.599 268.9C440.299 270.4 441.699 271.2 442.399 270.5L476.699 240.2C479.799 237.5 481.499 232.6 480.999 226C480.499 220.1 478.299 213.8 474.999 208.2C471.699 202.6 467.399 197.8 462.599 194.6C452.499 187.9 443.799 190.8 441.599 200.3C441.499 200.8 440.699 200.4 440.599 199.7C438.399 187.7 429.799 174.8 419.599 169.8C409.999 165 402.099 169.4 401.099 179.9C400.799 183.3 401.199 186.8 402.099 190.3Z" fill="url(#paint33_linear)"/>
<path d="M375.799 192.1C376.399 185.7 381.199 183 386.999 185.9C393.199 189 398.499 196.8 399.799 204.1C399.899 204.5 400.299 204.8 400.399 204.5C401.699 198.7 406.999 197 413.199 201C419.099 204.9 423.899 213 424.399 220.1C424.699 224.1 423.699 227.1 421.799 228.8L400.999 247.4C400.599 247.8 399.699 247.3 399.299 246.4L378.499 203.8C376.499 200 375.499 195.8 375.799 192.1Z" fill="url(#paint34_linear)"/>
<path d="M360.3 130.599C360.2 130.499 360 130.499 359.9 130.499C359.8 130.499 359.6 130.599 359.5 130.699C359.4 130.699 359.4 130.799 359.3 130.799C359.2 130.699 359.2 130.599 359.1 130.499L359.6 130.199L360.3 130.599Z" fill="#E3E3E8"/>
<path d="M437.699 199.5C437.699 199.5 431.999 176.1 410.899 172C410.899 172 421.399 187.4 437.699 199.5Z" fill="#8DE0FF"/>
<path d="M420.6 224.599C420.6 224.599 424.8 211.099 409.6 202.699C409.7 202.799 420.2 210.899 420.6 224.599Z" fill="#8DE0FF"/>
<path d="M397.8 206.399C397.8 206.399 396 193.499 382.3 186.699C382.3 186.699 392.2 198.299 397.8 206.399Z" fill="#8DE0FF"/>
<path d="M477.199 226.499C477.199 217.299 468.199 197.399 450.199 194.399C450.199 194.399 459.099 196.699 467.899 207.499C475.199 216.499 477.199 226.499 477.199 226.499Z" fill="#8DE0FF"/>
<path d="M358.599 142L357.899 141.6L358.199 141.3C358.199 141.4 358.199 141.6 358.299 141.7C358.399 141.8 358.499 141.9 358.599 142Z" fill="#E3E3E8"/>
<path d="M357.5 117.199V125.399C357.5 126.199 358.1 126.499 358.8 126.099C359.2 125.899 359.5 125.499 359.7 125.199C359.9 124.799 360 124.399 360.1 123.999V115.799C360.1 114.999 359.5 114.699 358.8 115.099C358.4 115.299 358.1 115.699 357.9 115.999C357.7 116.299 357.5 116.799 357.5 117.199Z" fill="#E3E3E8"/>
<path d="M360.7 116.2V124.4C360.7 124.8 360.6 125.3 360.3 125.6C360.1 126 359.8 126.3 359.4 126.5C359.3 126.6 359.1 126.7 359 126.7C358.8 126.7 358.7 126.7 358.5 126.6C358.4 126.5 358.3 126.4 358.2 126.3C358.1 126.2 358.1 126 358.1 125.9V125.8V117.6C358.1 117.2 358.2 116.8 358.4 116.5C358.6 116.1 358.8 115.8 359.2 115.6C359.3 115.6 359.3 115.5 359.4 115.5C359.5 115.4 359.7 115.4 359.8 115.3C359.9 115.3 360.1 115.3 360.2 115.4C360.6 115.5 360.7 115.8 360.7 116.2Z" fill="#F8F8F8"/>
<path d="M360.3 115.4C360.2 115.3 360 115.3 359.9 115.3C359.8 115.3 359.6 115.4 359.5 115.5C359.4 115.5 359.4 115.6 359.3 115.6C359.2 115.5 359.2 115.4 359.1 115.3L359.6 115L360.3 115.4Z" fill="#E3E3E8"/>
<path d="M358.599 126.7L357.899 126.3L358.199 126C358.199 126.1 358.199 126.3 358.299 126.4C358.399 126.5 358.499 126.6 358.599 126.7Z" fill="#E3E3E8"/>
<path d="M414.6 214.699C414.7 212.999 416 212.399 417.5 213.099C419.1 213.899 420.5 215.899 420.8 217.799C420.8 217.899 420.9 217.999 421 217.899C421.3 216.399 422.7 215.899 424.3 216.999C425.8 217.999 427.1 220.099 427.2 221.999C427.3 222.999 427 223.799 426.5 224.199L421.1 228.999C421 229.099 420.8 228.999 420.7 228.699L415.3 217.699C414.7 216.699 414.5 215.599 414.6 214.699Z" fill="url(#paint35_linear)"/>
<path d="M231.699 107.099C231.799 105.599 232.899 104.999 234.299 105.699C235.699 106.399 236.899 108.199 237.199 109.899C237.199 109.999 237.299 110.099 237.299 109.999C237.599 108.699 238.799 108.299 240.199 109.199C241.499 110.099 242.599 111.999 242.799 113.599C242.899 114.499 242.599 115.199 242.199 115.599L237.399 119.799C237.299 119.899 237.099 119.799 236.999 119.599L232.199 109.799C231.799 108.899 231.599 107.899 231.699 107.099Z" fill="url(#paint36_linear)"/>
<path d="M223.5 92.9999C223.6 91.8999 224.4 91.4999 225.3 91.9999C226.3 92.4999 227.2 93.7999 227.4 94.9999C227.4 95.0999 227.5 95.0999 227.5 95.0999C227.7 94.0999 228.6 93.8999 229.6 94.4999C230.6 95.0999 231.4 96.4999 231.4 97.5999C231.5 98.2999 231.3 98.7999 231 98.9999L227.6 102C227.5 102.1 227.4 102 227.3 101.8L223.9 94.7999C223.7 94.2999 223.5 93.5999 223.5 92.9999Z" fill="url(#paint37_linear)"/>
<path d="M190.5 250.899C190.6 249.799 191.4 249.399 192.3 249.899C193.3 250.399 194.2 251.699 194.4 252.899C194.4 252.999 194.5 252.999 194.5 252.999C194.7 251.999 195.6 251.799 196.6 252.399C197.6 252.999 198.4 254.399 198.4 255.499C198.5 256.199 198.3 256.699 198 256.899L194.6 259.899C194.5 259.999 194.4 259.899 194.3 259.699L190.9 252.699C190.6 252.199 190.5 251.499 190.5 250.899Z" fill="url(#paint38_linear)"/>
<path d="M315.5 293.1C315.6 292 316.4 291.6 317.3 292.1C318.3 292.6 319.2 293.9 319.4 295.1C319.4 295.2 319.5 295.2 319.5 295.2C319.7 294.2 320.6 294 321.6 294.6C322.6 295.2 323.4 296.6 323.4 297.7C323.5 298.4 323.3 298.9 323 299.1L319.6 302.1C319.5 302.2 319.4 302.1 319.3 301.9L315.9 294.9C315.6 294.3 315.5 293.7 315.5 293.1Z" fill="url(#paint39_linear)"/>
<path d="M197.1 270.7C197.2 269.6 198 269.2 198.9 269.7C199.9 270.2 200.8 271.5 201 272.7C201 272.8 201.1 272.8 201.1 272.8C201.3 271.8 202.2 271.6 203.2 272.2C204.2 272.8 205 274.2 205 275.3C205.1 276 204.9 276.5 204.6 276.7L201.2 279.7C201.1 279.8 201 279.7 200.9 279.5L197.5 272.5C197.3 272 197.1 271.3 197.1 270.7Z" fill="url(#paint40_linear)"/>
<path d="M258.799 240.899C258.899 239.799 259.699 239.399 260.599 239.899C261.599 240.399 262.499 241.699 262.699 242.899C262.699 242.999 262.799 242.999 262.799 242.999C262.999 241.999 263.899 241.799 264.899 242.399C265.899 242.999 266.699 244.399 266.699 245.499C266.799 246.199 266.599 246.699 266.299 246.899L262.899 249.899C262.799 249.999 262.699 249.899 262.599 249.699L259.199 242.699C258.899 242.199 258.699 241.499 258.799 240.899Z" fill="url(#paint41_linear)"/>
<path d="M307.799 271.5C307.899 270.4 308.699 270 309.599 270.5C310.599 271 311.499 272.3 311.699 273.5C311.699 273.6 311.799 273.6 311.799 273.6C311.999 272.6 312.899 272.4 313.899 273C314.899 273.6 315.699 275 315.699 276.1C315.799 276.8 315.599 277.3 315.299 277.5L311.899 280.5C311.799 280.6 311.699 280.5 311.599 280.3L308.199 273.3C307.899 272.8 307.699 272.1 307.799 271.5Z" fill="url(#paint42_linear)"/>
<path d="M270.4 307.5C270.5 306.4 271.3 306 272.2 306.5C273.2 307 274.1 308.3 274.3 309.5C274.3 309.6 274.4 309.6 274.4 309.6C274.6 308.6 275.5 308.4 276.5 309C277.5 309.6 278.3 311 278.3 312.1C278.4 312.8 278.2 313.3 277.9 313.5L274.5 316.5C274.4 316.6 274.3 316.5 274.2 316.3L270.8 309.3C270.5 308.8 270.3 308.1 270.4 307.5Z" fill="url(#paint43_linear)"/>
<path d="M257.6 252.5L250.3 235.8C250.3 235.8 250.6 228.1 250.3 227.5C250 226.8 247.3 222.3 243.4 222.8C239.5 223.3 239.6 237.7 241.4 239.6L227.8 232.6C227.8 232.6 222 232.6 226.6 240.7C226.6 240.7 225.1 243.8 228.1 247.9C228.1 247.9 227.1 251.8 229.6 254.9C229.6 254.9 227.6 259 233.9 265.4L254.5 277.3L256.6 276.8L260.1 279.9L260.3 256.2L257.6 252.5Z" fill="#CFD1D2"/>
<path d="M258.2 252C258.2 252 259.5 266.4 257.4 278.6C257.4 278.6 257.3 279.6 260.7 281.6C264.1 283.6 273.3 288.7 273.3 288.7C273.3 288.7 275.1 289.7 275 286.7C275 283.7 276.2 264.2 276.2 264.2C276.2 264.2 276.7 261.6 273.9 260C271.2 258.4 258.2 252 258.2 252Z" fill="#CFD1D2"/>
<path d="M255.1 253.201L247.8 236.501C247.8 236.501 248.1 228.801 247.8 228.201C247.5 227.501 244.8 223.001 240.9 223.501C237 224.001 237.1 238.401 238.9 240.301L225.3 233.301C225.3 233.301 219.5 233.301 224.1 241.401C224.1 241.401 222.6 244.501 225.6 248.601C225.6 248.601 224.6 252.501 227.1 255.601C227.1 255.601 225.1 259.701 231.4 266.101L252 278.001L254.1 277.501L257.6 280.601L257.8 256.901L255.1 253.201Z" fill="url(#paint44_linear)"/>
<path d="M255.6 252.7C255.6 252.7 256.9 267.1 254.8 279.3C254.8 279.3 254.7 280.3 258.1 282.3C261.5 284.3 270.7 289.4 270.7 289.4C270.7 289.4 272.5 290.4 272.4 287.4C272.3 284.4 273.6 264.9 273.6 264.9C273.6 264.9 274.1 262.3 271.3 260.7C268.6 259.1 255.6 252.7 255.6 252.7Z" fill="url(#paint45_linear)"/>
<path d="M284.2 260.3V274.6C284.2 275.9 284.6 277.4 285.3 278.8C286 280.2 287 281.4 288.1 282.1L299.6 289.6C300.1 289.9 300.6 290.1 301.1 290.2C301.6 290.2 302 290.1 302.4 289.9C302.8 289.6 303 289.2 303.2 288.7C303.4 288.2 303.5 287.5 303.5 286.8V286.5L308.6 289.2C308.7 289.2 308.8 289.2 308.8 289.2C308.9 289.2 308.9 289.1 308.9 289C308.9 288.9 308.9 288.8 308.9 288.7C308.9 288.6 308.8 288.5 308.8 288.4L303.5 279.5V271C303.5 270.3 303.4 269.5 303.2 268.8C303 268 302.7 267.3 302.3 266.6C301.9 265.9 301.5 265.3 301 264.8C300.5 264.3 300 263.9 299.5 263.6L288.1 257.6C287.6 257.3 287.1 257.2 286.6 257.2C286.1 257.2 285.7 257.3 285.3 257.6C284.9 257.9 284.7 258.2 284.5 258.7C284.3 259.1 284.2 259.7 284.2 260.3Z" fill="url(#paint46_linear)"/>
<path d="M294.1 270.401C293.9 270.001 293.7 269.701 293.5 269.301C293.1 268.601 292.6 268.101 292.1 267.701C291.6 267.301 291.1 267.101 290.6 267.001C290.1 266.901 289.7 267.101 289.4 267.401C289.1 267.701 288.9 268.201 288.8 268.801C288.7 269.701 288.8 270.801 289.3 271.801C289.7 273.001 290.3 274.101 290.9 275.201C291.9 276.901 292.9 278.501 294 280.001C294 280.001 294 280.101 294.1 280.101H294.2C295.6 279.901 296.8 279.401 297.9 278.601C298.4 278.201 298.8 277.701 299.1 276.901C299.3 276.501 299.3 275.901 299.3 275.401C299.3 274.801 299.2 274.201 299 273.601C298.8 273.001 298.5 272.401 298.2 271.801C297.9 271.301 297.5 270.801 297 270.501C296.5 270.001 295.9 269.801 295.4 269.701C294.9 269.701 294.5 269.901 294.1 270.401Z" fill="white"/>
<path d="M221.2 251.2L221.3 263.6C221.3 264.7 221 265.6 220.4 266C219.8 266.4 219.1 266.4 218.3 265.8L209.5 260.1C209.1 259.8 208.7 259.5 208.4 259.1C208 258.7 207.7 258.2 207.4 257.6C207.1 257.1 206.9 256.5 206.7 255.9C206.5 255.3 206.5 254.8 206.5 254.3V254.1L202.6 251.4C202.5 251.4 202.5 251.3 202.4 251.2C202.4 251.1 202.3 251 202.3 251C202.3 250.9 202.3 250.8 202.3 250.8L202.4 250.7L206.4 249.2V243.2C206.4 242.7 206.5 242.2 206.6 241.9C206.7 241.5 207 241.2 207.2 241C207.5 240.8 207.8 240.7 208.2 240.7C208.6 240.7 208.9 240.8 209.3 241L218 245.6C218.4 245.8 218.8 246.1 219.1 246.5C219.5 246.9 219.8 247.4 220.1 247.9C220.4 248.4 220.6 249 220.8 249.6C221.2 250 221.2 250.6 221.2 251.2Z" fill="url(#paint47_linear)"/>
<path d="M213.699 250.6C213.799 250.5 213.999 250.4 214.099 250.2C214.399 250 214.699 250 215.099 250.1C215.499 250.2 215.899 250.5 216.199 250.9C216.599 251.3 216.899 251.8 217.099 252.3C217.399 252.9 217.499 253.4 217.599 254C217.699 254.9 217.599 255.6 217.299 256.1C216.999 256.6 216.599 257.1 216.099 257.3C215.399 257.7 214.599 258 213.699 258.1C213.699 258.1 213.699 258.1 213.599 258.1C213.599 258.1 213.599 258.1 213.499 258C212.399 256.6 211.499 255 210.599 253.3C210.199 252.5 209.899 251.7 209.599 250.9C209.499 250.4 209.399 250 209.399 249.6C209.399 249.2 209.499 248.8 209.599 248.5C209.799 248.2 209.999 248 210.199 247.9C210.499 247.8 210.799 247.8 211.099 247.9C211.499 248 211.899 248.3 212.299 248.7C212.699 249.1 212.999 249.7 213.299 250.3L213.699 250.6Z" fill="white"/>
<path d="M280.899 300.4V311.3C280.899 312.3 281.199 313.4 281.799 314.5C282.399 315.6 283.099 316.5 283.899 317L292.699 322.7C293.099 323 293.499 323.1 293.799 323.1C294.199 323.1 294.499 323 294.799 322.8C295.099 322.6 295.299 322.3 295.399 321.9C295.499 321.5 295.599 321 295.599 320.5V320.3L299.499 322.4C299.599 322.4 299.599 322.4 299.699 322.4L299.799 322.3C299.799 322.2 299.799 322.1 299.799 322.1C299.799 322 299.699 321.9 299.699 321.8L295.699 315V308.5C295.699 308 295.599 307.4 295.499 306.8C295.299 306.2 295.099 305.7 294.799 305.1C294.499 304.6 294.199 304.1 293.799 303.7C293.399 303.3 293.099 303 292.699 302.8L283.999 298.2C283.599 298 283.199 297.9 282.899 297.9C282.499 297.9 282.199 298 281.899 298.2C281.599 298.4 281.399 298.7 281.299 299.1C280.999 299.5 280.899 299.9 280.899 300.4Z" fill="url(#paint48_linear)"/>
<path d="M288.5 308.101C288.4 307.801 288.2 307.501 288.1 307.301C287.8 306.801 287.4 306.401 287.1 306.101C286.7 305.801 286.3 305.601 286 305.601C285.6 305.601 285.3 305.701 285.1 305.901C284.8 306.101 284.7 306.501 284.6 306.901C284.5 307.601 284.6 308.401 285 309.201C285.3 310.101 285.7 311.001 286.2 311.801C286.9 313.101 287.7 314.301 288.6 315.501C288.6 315.501 288.6 315.601 288.7 315.601C288.7 315.601 288.7 315.601 288.8 315.601C289.8 315.501 290.8 315.101 291.7 314.501C292.1 314.201 292.4 313.801 292.6 313.201C292.7 312.901 292.8 312.501 292.8 312.001C292.8 311.601 292.7 311.101 292.5 310.601C292.3 310.101 292.1 309.701 291.9 309.301C291.6 308.901 291.3 308.501 291 308.301C290.6 307.901 290.2 307.701 289.8 307.701C289.1 307.601 288.8 307.701 288.5 308.101Z" fill="white"/>
</g>
<defs>
<filter id="filter0_d" x="-12" y="-8" width="524" height="464" filterUnits="userSpaceOnUse" color-interpolation-filters="sRGB">
<feFlood flood-opacity="0" result="BackgroundImageFix"/>
<feColorMatrix in="SourceAlpha" type="matrix" values="0 0 0 0 0 0 0 0 0 0 0 0 0 0 0 0 0 0 127 0" result="hardAlpha"/>
<feOffset dy="4"/>
<feGaussianBlur stdDeviation="6"/>
<feColorMatrix type="matrix" values="0 0 0 0 0 0 0 0 0 0 0 0 0 0 0 0 0 0 0.3 0"/>
<feBlend mode="normal" in2="BackgroundImageFix" result="effect1_dropShadow"/>
<feBlend mode="normal" in="SourceGraphic" in2="effect1_dropShadow" result="shape"/>
</filter>
<linearGradient id="paint0_linear" x1="151.536" y1="372.906" x2="155.664" y2="303.977" gradientUnits="userSpaceOnUse">
<stop stop-color="#75DAFF"/>
<stop offset="1" stop-color="#00BAFF"/>
</linearGradient>
<linearGradient id="paint1_linear" x1="169.476" y1="262.687" x2="175.012" y2="170.66" gradientUnits="userSpaceOnUse">
<stop stop-color="#71449A"/>
<stop offset="0.8668" stop-color="#A66CAC"/>
</linearGradient>
<linearGradient id="paint2_linear" x1="372.852" y1="380.905" x2="374.789" y2="326.387" gradientUnits="userSpaceOnUse">
<stop stop-color="#75DAFF"/>
<stop offset="1" stop-color="#00BAFF"/>
</linearGradient>
<linearGradient id="paint3_linear" x1="371.784" y1="376.478" x2="377.32" y2="284.451" gradientUnits="userSpaceOnUse">
<stop stop-color="#75DAFF"/>
<stop offset="1" stop-color="#00BAFF"/>
</linearGradient>
<linearGradient id="paint4_linear" x1="69.443" y1="298.961" x2="72.146" y2="245.613" gradientUnits="userSpaceOnUse">
<stop stop-color="#75DAFF"/>
<stop offset="1" stop-color="#00BAFF"/>
</linearGradient>
<linearGradient id="paint5_linear" x1="50.1862" y1="226.851" x2="51.9501" y2="211.099" gradientUnits="userSpaceOnUse">
<stop stop-color="#75DAFF"/>
<stop offset="1" stop-color="#00BAFF"/>
</linearGradient>
<linearGradient id="paint6_linear" x1="35.3697" y1="214.53" x2="44.9727" y2="214.53" gradientUnits="userSpaceOnUse">
<stop stop-color="#71449A"/>
<stop offset="0.8668" stop-color="#A66CAC"/>
</linearGradient>
<linearGradient id="paint7_linear" x1="71.6185" y1="236.959" x2="73.9625" y2="222.043" gradientUnits="userSpaceOnUse">
<stop stop-color="#71449A"/>
<stop offset="0.8668" stop-color="#A66CAC"/>
</linearGradient>
<linearGradient id="paint8_linear" x1="104.421" y1="252.797" x2="105.271" y2="240.436" gradientUnits="userSpaceOnUse">
<stop stop-color="#75DAFF"/>
<stop offset="1" stop-color="#00BAFF"/>
</linearGradient>
<linearGradient id="paint9_linear" x1="98.0325" y1="293.652" x2="102.855" y2="254.335" gradientUnits="userSpaceOnUse">
<stop stop-color="#75DAFF"/>
<stop offset="1" stop-color="#00BAFF"/>
</linearGradient>
<linearGradient id="paint10_linear" x1="58.8814" y1="275.333" x2="65.0138" y2="237.125" gradientUnits="userSpaceOnUse">
<stop stop-color="#71449A"/>
<stop offset="0.8668" stop-color="#A66CAC"/>
</linearGradient>
<linearGradient id="paint11_linear" x1="113.294" y1="258.966" x2="117.977" y2="258.966" gradientUnits="userSpaceOnUse">
<stop stop-color="#71449A"/>
<stop offset="0.8668" stop-color="#A66CAC"/>
</linearGradient>
<linearGradient id="paint12_linear" x1="271.73" y1="415.753" x2="274.433" y2="362.406" gradientUnits="userSpaceOnUse">
<stop stop-color="#75DAFF"/>
<stop offset="1" stop-color="#00BAFF"/>
</linearGradient>
<linearGradient id="paint13_linear" x1="246.353" y1="336.041" x2="260.646" y2="336.041" gradientUnits="userSpaceOnUse">
<stop stop-color="#71449A"/>
<stop offset="0.8668" stop-color="#A66CAC"/>
</linearGradient>
<linearGradient id="paint14_linear" x1="273.905" y1="353.75" x2="276.249" y2="338.834" gradientUnits="userSpaceOnUse">
<stop stop-color="#75DAFF"/>
<stop offset="1" stop-color="#00BAFF"/>
</linearGradient>
<linearGradient id="paint15_linear" x1="285.497" y1="359.694" x2="286.014" y2="353.003" gradientUnits="userSpaceOnUse">
<stop stop-color="#75DAFF"/>
<stop offset="1" stop-color="#00BAFF"/>
</linearGradient>
<linearGradient id="paint16_linear" x1="306.708" y1="369.589" x2="307.557" y2="357.227" gradientUnits="userSpaceOnUse">
<stop stop-color="#75DAFF"/>
<stop offset="1" stop-color="#00BAFF"/>
</linearGradient>
<linearGradient id="paint17_linear" x1="277.78" y1="398.75" x2="285.517" y2="362.587" gradientUnits="userSpaceOnUse">
<stop stop-color="#75DAFF"/>
<stop offset="1" stop-color="#00BAFF"/>
</linearGradient>
<linearGradient id="paint18_linear" x1="285.902" y1="391.37" x2="318.558" y2="391.37" gradientUnits="userSpaceOnUse">
<stop stop-color="#71449A"/>
<stop offset="0.8668" stop-color="#A66CAC"/>
</linearGradient>
<linearGradient id="paint19_linear" x1="238.718" y1="379.492" x2="245.128" y2="340.76" gradientUnits="userSpaceOnUse">
<stop stop-color="#71449A"/>
<stop offset="0.8668" stop-color="#A66CAC"/>
</linearGradient>
<linearGradient id="paint20_linear" x1="319.726" y1="377.252" x2="316.002" y2="374.168" gradientUnits="userSpaceOnUse">
<stop stop-color="#75DAFF"/>
<stop offset="1" stop-color="#00BAFF"/>
</linearGradient>
<linearGradient id="paint21_linear" x1="262.529" y1="349.621" x2="262.978" y2="345.307" gradientUnits="userSpaceOnUse">
<stop stop-color="#75DAFF"/>
<stop offset="1" stop-color="#00BAFF"/>
</linearGradient>
<linearGradient id="paint22_linear" x1="280.157" y1="268.42" x2="350.582" y2="18.131" gradientUnits="userSpaceOnUse">
<stop stop-color="#7DD2F6"/>
<stop offset="1" stop-color="#42B4E7"/>
</linearGradient>
<linearGradient id="paint23_linear" x1="260.546" y1="22.6175" x2="271.286" y2="22.6175" gradientUnits="userSpaceOnUse">
<stop stop-color="#7DD2F6"/>
<stop offset="1" stop-color="#42B4E7"/>
</linearGradient>
<linearGradient id="paint24_linear" x1="350.387" y1="277.212" x2="360.553" y2="277.212" gradientUnits="userSpaceOnUse">
<stop stop-color="#7DD2F6"/>
<stop offset="1" stop-color="#42B4E7"/>
</linearGradient>
<linearGradient id="paint25_linear" x1="302.975" y1="63.3651" x2="303.726" y2="57.7809" gradientUnits="userSpaceOnUse">
<stop stop-color="#75DAFF"/>
<stop offset="1" stop-color="#00BAFF"/>
</linearGradient>
<linearGradient id="paint26_linear" x1="296.936" y1="265.192" x2="317.531" y2="136.686" gradientUnits="userSpaceOnUse">
<stop stop-color="#75DAFF"/>
<stop offset="1" stop-color="#00BAFF"/>
</linearGradient>
<linearGradient id="paint27_linear" x1="301.653" y1="145.085" x2="312.362" y2="68.6661" gradientUnits="userSpaceOnUse">
<stop stop-color="#71449A"/>
<stop offset="0.8668" stop-color="#A66CAC"/>
</linearGradient>
<linearGradient id="paint28_linear" x1="331.564" y1="241.872" x2="339.964" y2="241.872" gradientUnits="userSpaceOnUse">
<stop stop-color="#71449A"/>
<stop offset="0.8668" stop-color="#A66CAC"/>
</linearGradient>
<linearGradient id="paint29_linear" x1="277.354" y1="208.675" x2="282.102" y2="208.675" gradientUnits="userSpaceOnUse">
<stop stop-color="#71449A"/>
<stop offset="0.8668" stop-color="#A66CAC"/>
</linearGradient>
<linearGradient id="paint30_linear" x1="274.165" y1="208.336" x2="278.927" y2="208.336" gradientUnits="userSpaceOnUse">
<stop stop-color="#71449A"/>
<stop offset="0.8668" stop-color="#A66CAC"/>
</linearGradient>
<linearGradient id="paint31_linear" x1="150.232" y1="242.197" x2="152.853" y2="197.883" gradientUnits="userSpaceOnUse">
<stop stop-color="#75DAFF"/>
<stop offset="1" stop-color="#00BAFF"/>
</linearGradient>
<linearGradient id="paint32_linear" x1="194.062" y1="209.378" x2="195.719" y2="181.61" gradientUnits="userSpaceOnUse">
<stop stop-color="#7DD2F6"/>
<stop offset="1" stop-color="#42B4E7"/>
</linearGradient>
<linearGradient id="paint33_linear" x1="432.365" y1="269.948" x2="446.423" y2="164.988" gradientUnits="userSpaceOnUse">
<stop stop-color="#75DAFF"/>
<stop offset="1" stop-color="#00BAFF"/>
</linearGradient>
<linearGradient id="paint34_linear" x1="394.868" y1="246.95" x2="403.433" y2="182.996" gradientUnits="userSpaceOnUse">
<stop stop-color="#75DAFF"/>
<stop offset="1" stop-color="#00BAFF"/>
</linearGradient>
<linearGradient id="paint35_linear" x1="419.496" y1="228.871" x2="421.715" y2="212.305" gradientUnits="userSpaceOnUse">
<stop stop-color="#71449A"/>
<stop offset="0.8668" stop-color="#A66CAC"/>
</linearGradient>
<linearGradient id="paint36_linear" x1="236.035" y1="119.627" x2="238.001" y2="104.955" gradientUnits="userSpaceOnUse">
<stop stop-color="#71449A"/>
<stop offset="0.8668" stop-color="#A66CAC"/>
</linearGradient>
<linearGradient id="paint37_linear" x1="226.664" y1="102.022" x2="228.07" y2="91.5219" gradientUnits="userSpaceOnUse">
<stop stop-color="#71449A"/>
<stop offset="0.8668" stop-color="#A66CAC"/>
</linearGradient>
<linearGradient id="paint38_linear" x1="193.633" y1="259.926" x2="195.039" y2="249.426" gradientUnits="userSpaceOnUse">
<stop stop-color="#71449A"/>
<stop offset="0.8668" stop-color="#A66CAC"/>
</linearGradient>
<linearGradient id="paint39_linear" x1="318.646" y1="302.057" x2="320.052" y2="291.557" gradientUnits="userSpaceOnUse">
<stop stop-color="#71449A"/>
<stop offset="0.8668" stop-color="#A66CAC"/>
</linearGradient>
<linearGradient id="paint40_linear" x1="200.271" y1="279.671" x2="201.677" y2="269.171" gradientUnits="userSpaceOnUse">
<stop stop-color="#71449A"/>
<stop offset="0.8668" stop-color="#A66CAC"/>
</linearGradient>
<linearGradient id="paint41_linear" x1="261.902" y1="249.877" x2="263.308" y2="239.377" gradientUnits="userSpaceOnUse">
<stop stop-color="#71449A"/>
<stop offset="0.8668" stop-color="#A66CAC"/>
</linearGradient>
<linearGradient id="paint42_linear" x1="310.914" y1="280.51" x2="312.321" y2="270.01" gradientUnits="userSpaceOnUse">
<stop stop-color="#71449A"/>
<stop offset="0.8668" stop-color="#A66CAC"/>
</linearGradient>
<linearGradient id="paint43_linear" x1="273.525" y1="316.516" x2="274.931" y2="306.015" gradientUnits="userSpaceOnUse">
<stop stop-color="#71449A"/>
<stop offset="0.8668" stop-color="#A66CAC"/>
</linearGradient>
<linearGradient id="paint44_linear" x1="257.767" y1="251.977" x2="222.364" y2="251.977" gradientUnits="userSpaceOnUse">
<stop stop-color="#7DD2F6"/>
<stop offset="1" stop-color="#42B4E7"/>
</linearGradient>
<linearGradient id="paint45_linear" x1="273.722" y1="271.131" x2="254.824" y2="271.131" gradientUnits="userSpaceOnUse">
<stop stop-color="#7DD2F6"/>
<stop offset="1" stop-color="#42B4E7"/>
</linearGradient>
<linearGradient id="paint46_linear" x1="308.957" y1="273.616" x2="284.225" y2="273.616" gradientUnits="userSpaceOnUse">
<stop stop-color="#75DAFF"/>
<stop offset="1" stop-color="#00BAFF"/>
</linearGradient>
<linearGradient id="paint47_linear" x1="202.434" y1="253.363" x2="221.304" y2="253.363" gradientUnits="userSpaceOnUse">
<stop stop-color="#75DAFF"/>
<stop offset="1" stop-color="#00BAFF"/>
</linearGradient>
<linearGradient id="paint48_linear" x1="299.81" y1="310.568" x2="280.946" y2="310.568" gradientUnits="userSpaceOnUse">
<stop stop-color="#75DAFF"/>
<stop offset="1" stop-color="#00BAFF"/>
</linearGradient>
</defs>
</svg>
