<svg width="611" height="540" viewBox="0 0 611 540" fill="none" xmlns="http://www.w3.org/2000/svg">
<g filter="url(#filter0_d)">
<path d="M330.586 356.046C331.368 354.574 316.315 345.053 296.964 334.78C277.613 324.508 261.292 317.374 260.511 318.846C259.729 320.319 274.783 329.84 294.133 340.112C313.484 350.384 329.805 357.518 330.586 356.046Z" fill="#EBEBEC"/>
<path d="M269.556 300.849C269.807 300.375 265.194 297.435 259.252 294.28C253.31 291.126 248.29 288.953 248.038 289.426C247.787 289.899 252.4 292.84 258.342 295.994C264.284 299.149 269.305 301.322 269.556 300.849Z" fill="#EBEBEC"/>
<path d="M242.591 294.607C242.842 294.134 241.554 292.958 239.714 291.981C237.873 291.004 236.178 290.596 235.926 291.069C235.675 291.542 236.964 292.718 238.804 293.695C240.644 294.672 242.34 295.08 242.591 294.607Z" fill="#EBEBEC"/>
<path d="M278.265 271.984C278.516 271.511 277.228 270.335 275.387 269.358C273.547 268.381 271.851 267.973 271.6 268.446C271.349 268.919 272.637 270.095 274.478 271.072C276.318 272.049 278.014 272.457 278.265 271.984Z" fill="#EBEBEC"/>
<path d="M376.28 342.647C376.531 342.174 375.243 340.998 373.402 340.021C371.562 339.044 369.866 338.636 369.615 339.109C369.364 339.583 370.652 340.758 372.492 341.735C374.333 342.712 376.028 343.121 376.28 342.647Z" fill="#EBEBEC"/>
<path d="M353.832 364.694C354.083 364.22 349.47 361.28 343.528 358.125C337.586 354.971 332.566 352.798 332.315 353.271C332.063 353.744 336.677 356.685 342.618 359.839C348.56 362.994 353.581 365.167 353.832 364.694Z" fill="#EBEBEC"/>
<path d="M360.902 335.468C361.153 334.995 356.54 332.054 350.598 328.9C344.656 325.746 339.635 323.572 339.384 324.045C339.133 324.519 343.746 327.459 349.688 330.614C355.63 333.768 360.65 335.941 360.902 335.468Z" fill="#EBEBEC"/>
<path d="M466.286 211.046C467.041 213.849 468.011 216.651 469.197 219.238C469.412 219.669 469.628 220.1 469.843 220.532L488.599 258.689L489.892 261.276L506.815 295.769C507.57 297.386 509.079 298.248 509.833 297.494L546.806 264.833C550.147 261.923 551.979 256.641 551.441 249.527C550.902 243.168 548.53 236.377 544.973 230.341C541.416 224.304 536.781 219.13 531.607 215.681C520.72 208.459 511.343 211.585 508.971 221.825C508.863 222.364 508.001 221.933 507.893 221.178C505.522 208.243 496.252 194.339 485.257 188.949C474.909 183.775 466.394 188.518 465.316 199.836C464.993 203.393 465.316 207.166 466.286 211.046Z" fill="#E3E3E8"/>
<path d="M438.045 212.986C438.692 206.088 443.866 203.177 450.117 206.303C456.8 209.645 462.513 218.052 463.915 225.921C464.022 226.352 464.454 226.676 464.561 226.352C465.963 220.1 471.675 218.268 478.358 222.58C484.718 226.783 489.892 235.514 490.431 243.168C490.754 247.479 489.676 250.713 487.628 252.545L465.1 272.486C464.669 272.918 463.699 272.379 463.268 271.409L440.847 225.49C438.799 221.394 437.722 216.974 438.045 212.986Z" fill="#E3E3E8"/>
<path d="M504.659 220.855C504.659 220.855 498.515 195.632 475.771 191.213C475.879 191.213 487.197 207.92 504.659 220.855Z" fill="#E3E3E8"/>
<path d="M486.335 248.018C486.335 248.018 490.862 233.466 474.478 224.412C474.478 224.412 485.904 233.143 486.335 248.018Z" fill="#E3E3E8"/>
<path d="M461.759 228.292C461.759 228.292 459.819 214.387 445.051 207.058C445.051 207.165 455.723 219.669 461.759 228.292Z" fill="#E3E3E8"/>
<path d="M547.344 250.066C547.344 240.149 537.643 218.699 518.241 215.465C518.241 215.465 527.834 217.945 537.32 229.586C545.189 239.287 547.344 250.066 547.344 250.066Z" fill="#E3E3E8"/>
<path d="M479.76 237.239C479.867 235.407 481.269 234.76 482.886 235.514C484.61 236.377 486.119 238.533 486.443 240.581C486.443 240.688 486.55 240.796 486.658 240.688C486.982 239.071 488.491 238.533 490.215 239.718C491.832 240.796 493.233 243.06 493.341 245.108C493.449 246.186 493.126 247.048 492.587 247.479L486.766 252.653C486.658 252.761 486.443 252.653 486.335 252.33L480.514 240.473C479.975 239.395 479.652 238.317 479.76 237.239Z" fill="#E3E3E8"/>
<path d="M135.046 367.45V357.964L164.689 348.586L256.418 394.074V403.344L227.315 420.375L135.046 367.45Z" fill="#CDCDCD"/>
<path d="M133.537 357.102V354.623L164.689 339.209L258.466 390.517V392.996L227.315 410.997L133.537 357.102Z" fill="#00BAFF"/>
<path d="M133.537 354.515L164.689 336.514L258.466 390.409L227.315 408.41L133.537 354.515Z" fill="url(#paint0_linear)"/>
<path d="M227.638 410.782V420.267L256.742 403.236V393.966L227.638 410.782Z" fill="#D9D9DD"/>
<path d="M205.757 291.134L299.211 237.239V232.496L228.177 234.544L133.106 244.461V249.204L205.757 291.134Z" fill="#E3E3E8"/>
<path d="M205.757 289.625L299.211 235.73V234.113L226.561 193.692L133.106 246.078V247.695L205.757 289.625Z" fill="url(#paint1_linear)"/>
<path d="M205.757 288.008L299.211 234.113L226.561 192.183L133.106 246.186L205.757 288.008Z" fill="#FE2E57"/>
<path d="M205.757 286.392L299.211 232.496L226.561 190.566L133.106 244.569L205.757 286.392Z" fill="#A5A5AF"/>
<path opacity="0.85" d="M299.103 225.382L205.649 279.277L192.499 271.732L187.433 268.822L185.277 267.528L152.94 248.88L151.754 248.234L146.041 244.892L132.998 237.347L226.453 183.344L299.103 225.382Z" fill="#85DEFF"/>
<path d="M299.103 232.496V234.113L205.649 288.008L132.998 246.078V244.461L205.649 286.392L299.103 232.496Z" fill="#EFEDED"/>
<path d="M423.709 416.925L517.163 363.03V361.413L446.129 360.335L351.058 373.486V375.103L423.709 416.925Z" fill="url(#paint2_linear)"/>
<path d="M423.709 415.416L517.163 361.521V359.904L444.512 319.483L351.058 371.869V373.486L423.709 415.416Z" fill="#F8F8F8"/>
<path d="M423.709 413.8L517.163 359.905L444.512 317.974L351.058 371.869L423.709 413.8Z" fill="#FE2E57"/>
<path d="M423.709 412.183L517.163 358.288L444.512 316.357L351.058 370.36L423.709 412.183Z" fill="url(#paint3_linear)"/>
<path opacity="0.85" d="M517.163 351.173L423.709 405.069L410.558 397.523L405.492 394.613L403.336 393.319L370.999 374.672L369.814 374.025L364.101 370.684L351.058 363.138L444.512 309.135L517.163 351.173Z" fill="#EBF2FC"/>
<path d="M517.163 358.288V359.904L423.709 413.8L351.058 371.869V370.252L423.709 412.183L517.163 358.288Z" fill="#00BAFF"/>
<path d="M67.1387 259.336C66.492 247.372 58.4077 243.491 58.2999 243.491L58.6233 242.737C58.7311 242.737 67.2465 246.833 67.8933 259.228L67.1387 259.336Z" fill="#C0C2D1"/>
<path d="M143.454 303.314L142.7 303.207C144.532 290.164 154.88 285.206 154.988 285.206L155.311 285.96C155.203 285.96 145.179 290.703 143.454 303.314Z" fill="#C0C2D1"/>
<path d="M73.7139 275.72L164.15 315.172V316.788L143.454 328.753L50 274.75V273.133L73.7139 275.72Z" fill="url(#paint4_linear)"/>
<path d="M70.6957 261.169L164.15 315.064L143.454 327.029L50 273.026L70.6957 261.169Z" fill="#F8F8F8"/>
<path d="M157.359 314.094L154.664 315.711L141.837 323.148L59.8089 275.613L57.1141 273.996L72.6359 265.049L157.359 314.094Z" fill="#E3E3E8"/>
<path d="M87.5113 279.277C85.8944 270.223 87.8347 264.079 89.8827 260.522C92.0385 256.641 94.5177 255.025 94.6254 254.917L95.0566 255.563C94.9488 255.671 85.2477 262.246 88.2658 279.17L87.5113 279.277Z" fill="#C0C2D1"/>
<path d="M78.0254 244.892L86.5408 251.144C86.5408 251.144 94.9485 242.09 93.2238 234.544C93.116 234.544 85.0318 233.898 78.0254 244.892Z" fill="url(#paint5_linear)"/>
<path d="M72.3126 244.246L78.9956 240.15C78.9956 240.15 74.7918 230.987 69.1867 231.203C69.0789 231.203 66.8153 236.377 72.3126 244.246Z" fill="url(#paint6_linear)"/>
<path d="M103.033 260.091L112.195 261.923C112.195 261.923 116.075 250.498 110.901 246.078C110.901 246.078 104.65 248.665 103.033 260.091Z" fill="url(#paint7_linear)"/>
<path d="M78.1332 255.24C79.5345 249.42 86.5408 241.228 86.5408 241.228C86.5408 241.228 80.0734 247.587 77.9176 253.3C76.8397 243.707 72.0969 236.377 72.0969 236.377C72.2047 236.593 82.337 255.671 74.3605 271.409L75.1151 271.732C77.8098 266.343 78.4566 260.522 78.1332 255.24Z" fill="#C0C2D1"/>
<path d="M115.86 263.324L118.339 268.283C118.339 268.283 125.13 265.911 125.238 261.815C125.345 261.923 121.788 259.875 115.86 263.324Z" fill="#E0E0E0"/>
<path d="M154.557 315.711L141.73 323.148L120.603 310.86L120.495 310.752L107.668 303.315L104.758 301.59L84.4929 289.949L82.4449 288.763L59.7012 275.613L72.5282 268.175L76.1931 270.331L78.1333 271.409L85.3553 275.613L86.002 275.936L98.0745 282.942L102.71 285.637L106.806 288.008L108.854 289.194L121.896 296.739L123.944 297.925L126.423 299.326L130.304 301.59L133.969 303.746L136.448 305.255L154.557 315.711Z" fill="#C0C2D1"/>
<path d="M143.454 328.645V339.101L95.7031 312.046L95.1642 311.722L94.9486 311.614C94.0863 311.076 93.5473 310.86 93.5473 310.86L60.3479 291.997L53.7727 276.906L122.435 316.573L143.454 328.645Z" fill="#E0E0E0"/>
<path d="M133.969 270.546L138.819 278.954C138.819 278.954 151.107 274.427 153.479 266.558C153.479 266.666 143.993 263.863 133.969 270.546Z" fill="url(#paint8_linear)"/>
<path d="M161.886 317.974L159.946 329.508L155.85 331.879L143.454 339.101V328.645L148.952 325.412L161.886 317.974Z" fill="#CCCCCC"/>
<path d="M109.824 287.47C108.422 269.037 120.71 263.864 120.71 263.864C120.71 263.864 117.8 265.265 115.105 268.822C112.626 272.163 109.824 277.984 110.578 287.362L109.824 287.47Z" fill="#C0C2D1"/>
<path d="M118.878 294.907L118.123 294.799C119.632 287.146 126.747 280.894 132.46 277.014C136.232 274.427 140.436 272.487 144.855 271.085C144.64 271.085 121.788 280.679 118.878 294.907Z" fill="#C0C2D1"/>
<path d="M109.931 293.614C102.494 270.654 109.285 252.222 109.285 252.222C108.315 256.534 107.56 260.953 107.129 265.373C106.59 271.624 106.806 281.541 110.686 293.398L109.931 293.614Z" fill="#C0C2D1"/>
<path d="M123.944 299.757C123.082 305.47 121.896 308.812 120.495 310.86L107.668 303.422L104.757 301.698C104.757 299.865 104.973 298.141 105.189 296.308C105.189 296.308 105.835 292.32 106.698 288.008C107.776 282.619 109.069 276.583 109.824 276.906C111.117 277.337 110.686 287.146 112.195 286.068C113.704 284.882 113.273 271.516 114.89 271.624C116.614 271.732 115.429 291.889 117.477 291.242C119.525 290.487 117.692 276.475 120.495 277.014C122.758 277.445 123.513 292.643 123.729 298.033C123.944 299.111 123.944 299.757 123.944 299.757Z" fill="#E0E0E0"/>
<path d="M154.557 315.711L141.73 323.148L120.603 310.86C120.818 306.98 121.249 301.59 121.788 296.739C122.543 290.164 123.513 284.559 124.591 284.451C126.1 284.344 126.1 292.536 126.208 299.326C126.316 304.069 126.639 308.057 127.717 307.95C129.226 307.95 129.549 304.5 130.088 301.59C130.412 299.434 130.951 297.494 132.028 297.171C133.537 296.632 133.538 300.512 133.861 303.746C134.076 306.117 134.4 308.057 135.37 307.734C135.909 307.518 136.232 306.548 136.34 305.255C136.879 300.297 135.801 289.949 137.526 290.595C139.682 291.35 139.682 305.363 141.298 304.932C142.915 304.5 139.897 282.08 143.346 281.757C146.796 281.541 147.766 305.255 150.353 305.578C152.832 306.009 151.754 291.242 154.557 292.104C157.359 293.075 154.557 315.711 154.557 315.711Z" fill="url(#paint9_linear)"/>
<path d="M108.854 289.194C108.746 295.015 108.315 300.62 107.776 303.422L84.493 289.949L82.4449 288.763C82.7683 287.146 83.4151 285.637 84.1696 284.236C84.1696 284.236 84.9241 280.248 86.002 275.936C87.2955 270.654 89.0202 264.726 90.4214 264.834C92.9006 264.941 88.4812 277.014 90.4214 277.661C92.3617 278.307 95.1642 262.139 97.4278 262.786C99.1524 263.217 97.1044 275.936 98.0745 282.942C98.3979 285.206 99.0446 286.931 100.23 287.362C101.308 287.793 102.171 287.038 102.817 285.637C104.973 280.786 105.189 268.498 107.129 269.361C108.422 269.9 108.961 279.924 108.854 289.194Z" fill="url(#paint10_linear)"/>
<path d="M84.493 289.949L59.7012 275.505C59.7012 275.505 58.4077 256.749 61.2103 256.965C64.0128 257.18 63.5817 267.636 64.8752 268.067C66.2764 268.498 63.5817 248.126 67.1387 248.557C70.6958 248.988 68.3244 266.666 70.6958 265.911C73.0672 265.157 70.8036 254.162 74.4685 254.27C77.271 254.27 75.9776 264.941 76.0853 270.223C76.1931 271.732 76.3009 272.81 76.8399 273.025C77.3788 273.241 77.81 272.486 78.0256 271.301C78.7801 267.959 79.1035 260.953 81.7982 262.031C83.8462 262.785 84.9241 268.929 85.2475 275.505C85.5709 281.11 85.2475 286.823 84.493 289.949Z" fill="#E0E0E0"/>
<path d="M57.0064 245.647C58.4077 245.647 59.4856 244.569 59.4856 243.168C59.4856 241.766 58.4077 240.688 57.0064 240.688C55.6051 240.688 54.5272 241.766 54.5272 243.168C54.5272 244.569 55.6051 245.647 57.0064 245.647Z" fill="#E0E0E0"/>
<path d="M155.096 288.116C156.497 288.116 157.575 287.038 157.575 285.637C157.575 284.236 156.497 283.158 155.096 283.158C153.694 283.158 152.616 284.236 152.616 285.637C152.616 287.038 153.694 288.116 155.096 288.116Z" fill="url(#paint11_linear)"/>
<path d="M95.703 257.396C96.9965 257.396 97.9666 256.426 97.9666 255.132C97.9666 253.839 96.9965 252.869 95.703 252.869C94.4096 252.869 93.4395 253.839 93.4395 255.132C93.4395 256.426 94.4096 257.396 95.703 257.396Z" fill="#E0E0E0"/>
<path d="M143.454 328.645V339.101L95.703 312.046C101.524 315.279 117.477 323.795 120.064 322.609C123.19 321.1 122.435 316.573 122.435 316.573L143.454 328.645Z" fill="#E0E0E0"/>
<path d="M155.85 331.879L143.454 339.101V328.645L148.952 325.411C148.952 325.411 148.952 325.519 149.059 325.519C149.059 325.519 148.197 329.4 149.059 331.771C149.814 334.142 155.85 331.879 155.85 331.879Z" fill="#CCCCCC"/>
<path d="M285.198 385.235C284.552 373.27 276.467 369.39 276.36 369.39L276.683 368.635C276.791 368.635 285.306 372.732 285.953 385.127L285.198 385.235Z" fill="#C0C2D1"/>
<path d="M361.514 429.214L360.759 429.106C362.592 416.063 372.94 411.105 373.047 411.105L373.371 411.859C373.263 411.859 363.238 416.602 361.514 429.214Z" fill="#C0C2D1"/>
<path d="M291.773 401.619L382.209 441.071V442.687L361.406 454.544L267.952 400.541V398.925L291.773 401.619Z" fill="url(#paint12_linear)"/>
<path d="M288.755 387.068L382.209 440.963L361.406 452.928L267.952 398.925L288.755 387.068Z" fill="#F8F8F8"/>
<path d="M375.311 439.993L372.616 441.61L359.789 449.047L277.761 401.512L275.066 399.895L290.588 390.948L375.311 439.993Z" fill="#E3E3E8"/>
<path d="M305.571 405.069C303.954 396.014 305.894 389.87 307.942 386.313C310.098 382.433 312.577 380.816 312.685 380.708L313.116 381.355C313.008 381.463 303.307 388.038 306.325 404.961L305.571 405.069Z" fill="#C0C2D1"/>
<path d="M296.085 370.791L304.601 377.043C304.601 377.043 313.008 367.989 311.284 360.443C311.176 360.443 302.984 359.797 296.085 370.791Z" fill="url(#paint13_linear)"/>
<path d="M290.372 370.145L297.055 366.049C297.055 366.049 292.851 356.886 287.246 357.102C287.139 357.102 284.767 362.276 290.372 370.145Z" fill="#E0E0E0"/>
<path d="M321.093 385.99L330.255 387.822C330.255 387.822 334.135 376.396 328.961 371.977C328.961 371.977 322.71 374.564 321.093 385.99Z" fill="url(#paint14_linear)"/>
<path d="M296.193 381.139C297.594 375.319 304.601 367.126 304.601 367.126C304.601 367.126 298.133 373.486 295.977 379.199C294.9 369.606 290.157 362.276 290.157 362.276C290.265 362.491 300.397 381.57 292.42 397.308L293.175 397.631C295.87 392.242 296.516 386.421 296.193 381.139Z" fill="#C0C2D1"/>
<path d="M333.92 389.223L336.399 394.182C336.399 394.182 343.19 391.81 343.297 387.714C343.405 387.714 339.848 385.774 333.92 389.223Z" fill="url(#paint15_linear)"/>
<path d="M372.616 441.61L359.789 449.047L338.662 436.759L338.554 436.651L325.727 429.214L322.817 427.489L302.552 415.74L300.504 414.554L277.761 401.404L290.588 393.966L294.253 396.122L296.193 397.2L303.415 401.404L304.061 401.727L316.134 408.734L320.769 411.428L324.865 413.8L326.913 414.985L339.956 422.531L342.004 423.716L344.483 425.118L348.363 427.381L352.028 429.537L354.507 431.046L372.616 441.61Z" fill="#C0C2D1"/>
<path d="M361.406 454.545V465L313.655 437.945L313.116 437.621L312.9 437.514C312.038 436.975 311.499 436.759 311.499 436.759L278.407 417.896L271.832 402.805L340.495 442.472L361.406 454.545Z" fill="#E0E0E0"/>
<path d="M352.029 396.445L356.879 404.853C356.879 404.853 369.167 400.326 371.539 392.457C371.539 392.457 361.945 389.762 352.029 396.445Z" fill="url(#paint16_linear)"/>
<path d="M379.838 443.873L377.898 455.407L373.802 457.778L361.406 465V454.544L366.903 451.311L379.838 443.873Z" fill="#CCCCCC"/>
<path d="M327.884 413.368C326.482 394.936 338.77 389.762 338.77 389.762C338.77 389.762 335.86 391.163 333.165 394.721C330.686 398.062 327.884 403.883 328.638 413.26L327.884 413.368Z" fill="#C0C2D1"/>
<path d="M336.938 420.806L336.183 420.698C337.692 413.045 344.807 406.793 350.519 402.913C354.292 400.326 358.496 398.386 362.915 396.984C362.7 396.984 339.848 406.578 336.938 420.806Z" fill="#C0C2D1"/>
<path d="M327.991 419.513C320.554 396.553 327.345 378.121 327.345 378.121C326.374 382.433 325.62 386.852 325.189 391.272C324.65 397.523 324.865 407.44 328.746 419.297L327.991 419.513Z" fill="#C0C2D1"/>
<path d="M342.004 425.656C341.142 431.369 339.956 434.711 338.555 436.759L325.728 429.321L322.817 427.597C322.817 425.764 323.033 424.04 323.249 422.207C323.249 422.207 323.895 418.219 324.758 413.907C325.835 408.518 327.129 402.481 327.884 402.805C329.177 403.236 328.746 413.045 330.255 411.967C331.764 410.781 331.333 397.415 332.95 397.523C334.674 397.631 333.489 417.788 335.537 417.141C337.585 416.386 335.752 402.374 338.555 402.913C340.818 403.344 341.573 418.542 341.788 423.932C341.896 425.01 342.004 425.656 342.004 425.656Z" fill="url(#paint17_linear)"/>
<path d="M372.616 441.61L359.789 449.047L338.662 436.759C338.878 432.879 339.309 427.489 339.848 422.639C340.602 416.063 341.572 410.458 342.65 410.351C344.159 410.243 344.159 418.435 344.267 425.226C344.375 429.968 344.698 433.957 345.776 433.849C347.285 433.849 347.609 430.4 348.148 427.489C348.471 425.333 349.01 423.393 350.088 423.07C351.597 422.531 351.597 426.411 351.92 429.645C352.136 432.016 352.459 433.957 353.429 433.633C353.968 433.418 354.292 432.448 354.4 431.154C354.938 426.196 353.861 415.848 355.585 416.495C357.741 417.249 357.741 431.262 359.358 430.831C360.975 430.4 357.957 407.979 361.406 407.656C364.855 407.44 365.825 431.154 368.412 431.477C370.891 431.909 369.814 417.141 372.616 418.004C375.419 418.974 372.616 441.61 372.616 441.61Z" fill="url(#paint18_linear)"/>
<path d="M326.913 415.093C326.805 420.914 326.374 426.519 325.835 429.322L302.66 415.848L300.612 414.662C300.936 413.045 301.582 411.536 302.337 410.135C302.337 410.135 303.091 406.147 304.169 401.835C305.463 396.553 307.188 390.625 308.589 390.733C311.068 390.84 306.649 402.913 308.589 403.56C310.529 404.206 313.332 388.038 315.595 388.685C317.32 389.116 315.272 401.835 316.242 408.841C316.565 411.105 317.212 412.83 318.398 413.261C319.476 413.692 320.338 412.937 320.985 411.536C323.14 406.686 323.356 394.398 325.296 395.26C326.482 395.799 327.021 405.823 326.913 415.093Z" fill="#E0E0E0"/>
<path d="M302.553 415.847L277.761 401.404C277.761 401.404 276.467 382.648 279.27 382.864C282.072 383.079 281.641 393.535 282.935 393.966C284.336 394.397 281.641 374.025 285.198 374.456C288.755 374.887 286.384 392.565 288.755 391.81C291.127 391.056 288.863 380.061 292.528 380.169C295.438 380.169 294.037 390.84 294.145 396.122C294.253 397.631 294.36 398.709 294.899 398.924C295.438 399.14 295.87 398.385 296.085 397.2C296.84 393.858 297.163 386.852 299.858 387.93C301.906 388.684 302.984 394.828 303.307 401.404C303.63 407.009 303.307 412.722 302.553 415.847Z" fill="url(#paint19_linear)"/>
<path d="M277.437 369.606C277.761 368.312 276.898 367.019 275.605 366.695C274.311 366.372 273.018 367.234 272.695 368.528C272.371 369.821 273.233 371.115 274.527 371.438C275.82 371.762 277.114 370.899 277.437 369.606Z" fill="#E0E0E0"/>
<path d="M375.311 412.937C376.066 411.752 375.742 410.242 374.557 409.488C373.371 408.733 371.862 409.057 371.107 410.242C370.353 411.428 370.676 412.937 371.862 413.692C372.94 414.338 374.557 414.015 375.311 412.937Z" fill="url(#paint20_linear)"/>
<path d="M313.655 383.295C314.949 383.295 315.919 382.325 315.919 381.031C315.919 379.738 314.949 378.768 313.655 378.768C312.362 378.768 311.392 379.738 311.392 381.031C311.392 382.325 312.47 383.295 313.655 383.295Z" fill="url(#paint21_linear)"/>
<path d="M361.406 454.544V465L313.655 437.945C319.476 441.178 335.429 449.694 338.016 448.508C341.142 446.999 340.387 442.472 340.387 442.472L361.406 454.544Z" fill="#E0E0E0"/>
<path d="M373.91 457.778L361.514 465V454.544L367.011 451.311C367.011 451.311 367.011 451.418 367.119 451.418C367.119 451.418 366.257 455.299 367.119 457.67C367.874 460.042 373.91 457.778 373.91 457.778Z" fill="#CCCCCC"/>
<path d="M324.758 25.7545L413.792 77.1705C416.056 78.464 417.888 80.2964 419.182 82.56C420.475 84.8236 421.122 87.3028 421.122 89.8898V300.512C421.122 301.374 420.907 302.237 420.475 302.991C420.044 303.746 419.397 304.392 418.643 304.824C417.888 305.255 417.026 305.47 416.164 305.47C415.301 305.47 414.439 305.255 413.685 304.824L324.65 253.408C322.386 252.114 320.554 250.282 319.26 248.018C317.967 245.755 317.32 243.275 317.32 240.688V30.0662C317.32 29.2038 317.536 28.3415 317.967 27.587C318.398 26.8325 319.045 26.1857 319.799 25.7545C320.554 25.3234 321.416 25.1078 322.278 25.1078C323.141 25 324.003 25.3234 324.758 25.7545Z" fill="url(#paint22_linear)"/>
<path d="M319.476 25.97L311.392 32.2218L313.547 35.7789L322.925 32.7608L319.476 25.97Z" fill="url(#paint23_linear)"/>
<path d="M419.182 304.5L411.529 310.429L408.187 307.41L418.535 300.188L419.182 304.5Z" fill="url(#paint24_linear)"/>
<path d="M316.996 31.6831L406.031 83.0991C408.295 84.3926 410.127 86.225 411.421 88.4886C412.714 90.7522 413.361 93.2314 413.361 95.8184V306.441C413.361 307.303 413.145 308.165 412.714 308.92C412.283 309.674 411.636 310.321 410.882 310.752C410.127 311.183 409.265 311.399 408.403 311.399C407.54 311.399 406.678 311.183 405.923 310.752L316.889 259.336C314.625 258.043 312.793 256.21 311.499 253.947C310.206 251.683 309.559 249.204 309.559 246.617V35.9947C309.559 35.1324 309.774 34.2701 310.206 33.5156C310.637 32.761 311.284 32.1143 312.038 31.6831C312.793 31.252 313.655 31.0364 314.517 31.0364C315.38 31.0364 316.242 31.252 316.996 31.6831Z" fill="#636466"/>
<path d="M409.696 101.854V296.308C409.696 297.17 409.481 298.033 409.049 298.787C408.618 299.542 407.971 300.189 407.217 300.62C406.462 301.051 405.6 301.266 404.738 301.266C403.875 301.266 403.013 301.051 402.259 300.62L398.486 298.464L391.156 294.26L390.402 293.829L333.704 261.061L329.608 258.689L321.2 253.839L320.661 253.515C318.398 252.222 316.565 250.389 315.272 248.126C313.978 245.862 313.332 243.383 313.332 240.796V46.3424C313.332 45.4801 313.547 44.6177 313.978 43.8632C314.409 43.1087 315.056 42.4619 315.811 42.0308C316.565 41.5996 317.428 41.384 318.29 41.384C319.152 41.384 320.015 41.5996 320.769 42.0308L333.812 49.5761L385.551 79.434L402.259 89.1351C404.522 90.4286 406.355 92.2611 407.648 94.5246C408.942 96.6805 409.696 99.2674 409.696 101.854Z" fill="#F8F8F8"/>
<path d="M388.246 79.9733L376.173 86.9797C375.419 87.4108 374.449 87.6264 373.586 87.6264C372.724 87.6264 371.754 87.4108 371 86.9797L345.13 71.9968C343.405 71.0267 342.112 69.4099 341.357 67.4696L334.566 48.283L388.246 79.9733Z" fill="#656668"/>
<path d="M359.79 73.1821C359.79 74.6911 358.82 75.2301 357.526 74.4756C356.233 73.721 355.262 71.9964 355.262 70.4873C355.262 68.9782 356.233 68.4393 357.526 69.1938C358.712 69.9484 359.79 71.673 359.79 73.1821Z" fill="url(#paint25_linear)"/>
<path d="M359.035 72.751C359.035 73.8289 358.281 74.1523 357.418 73.7211C356.987 73.3977 356.556 72.9666 356.233 72.5354C355.909 71.9965 355.802 71.4575 355.802 70.9186C355.802 69.8407 356.556 69.5173 357.418 69.9485C357.85 70.2718 358.281 70.703 358.604 71.1341C358.927 71.6731 359.035 72.2121 359.035 72.751Z" fill="#F8F8F8"/>
<path d="M331.333 202.531L329.608 258.582L321.2 253.731C320.877 242.413 319.907 198.866 321.308 198.111C322.817 197.357 331.333 202.531 331.333 202.531Z" fill="#E3E3E8"/>
<path d="M402.906 286.176C401.828 289.517 399.887 294.583 398.378 298.356L391.049 294.152C392.558 288.763 395.037 279.816 394.821 277.66C394.39 272.055 390.617 242.952 390.617 242.952L401.073 245.647C401.073 245.647 404.846 280.14 402.906 286.176Z" fill="#E3E3E8"/>
<path d="M405.708 252.869C405.708 252.869 397.3 255.995 389.432 246.401L390.294 293.721L333.596 260.953V210.507C333.596 210.507 324.65 211.693 316.673 198.327C316.673 198.327 323.464 157.905 328.53 156.935C330.686 156.504 335.536 157.798 340.279 159.307C340.926 159.522 341.573 159.738 342.327 159.953C344.267 160.6 346.208 161.355 347.824 161.894C348.579 162.109 349.226 162.433 349.872 162.648C351.921 163.403 353.214 163.942 353.214 163.942C362.268 167.499 366.041 170.194 374.233 176.23C374.988 176.769 375.85 177.416 376.605 178.062C379.299 180.218 382.425 182.805 385.443 185.5C386.09 186.039 386.737 186.578 387.276 187.224C392.989 192.398 398.055 197.572 399.025 199.405C403.875 209.321 405.708 252.869 405.708 252.869Z" fill="url(#paint26_linear)"/>
<path d="M355.262 153.271L356.017 164.373L352.352 163.618C352.352 163.618 352.675 172.673 363.67 179.032C374.341 185.176 374.341 176.338 374.341 176.338L370.137 172.888L370.676 162.648L355.262 153.271Z" fill="#E3E3E8"/>
<path d="M355.262 154.348C355.262 154.348 358.173 163.403 362.808 166.205C367.443 169.008 370.569 162.433 370.569 162.433L362.484 159.63L355.262 154.348Z" fill="#C4C4C4"/>
<path d="M351.382 141.845C351.382 141.845 352.891 151.222 353.646 152.3C354.4 153.378 360.544 160.816 362.7 161.894C364.856 162.972 371.431 162.756 372.509 161.894C373.587 161.031 375.743 142.384 375.743 141.306C375.743 140.12 358.82 109.292 358.82 109.292C358.82 109.292 350.951 116.191 350.735 116.406C350.52 116.622 348.256 127.401 351.382 141.845Z" fill="#E3E3E8"/>
<path d="M349.765 128.371C349.765 128.371 347.609 126.107 345.884 127.077C344.159 128.047 346.746 136.886 350.842 139.258C354.939 141.629 350.842 133.437 350.842 133.437L349.765 128.371Z" fill="#E3E3E8"/>
<path d="M375.743 143.03C375.743 143.03 379.839 144.755 379.839 147.234C379.839 148.851 379.084 154.779 377.036 154.24C374.988 153.702 374.557 152.839 374.557 152.839V144.863L375.743 143.03Z" fill="#E3E3E8"/>
<path d="M348.148 128.371C348.148 128.371 349.01 130.419 350.304 129.664C351.597 128.91 350.412 126.107 351.274 126.323C352.136 126.538 355.693 126.431 355.047 124.059C354.4 121.688 355.693 121.149 356.232 121.904C356.771 122.658 357.095 122.658 357.526 122.55C357.957 122.442 359.035 126.754 360.867 127.616C362.7 128.479 363.131 131.605 364.209 131.928C365.287 132.251 366.688 136.455 368.628 137.102C370.461 137.641 370.353 141.306 371.754 141.953C373.048 142.599 374.341 144.755 375.527 145.617C376.713 146.48 377.251 146.48 377.251 146.48L376.713 140.012L369.383 124.814C369.383 124.814 352.999 109.076 352.352 108.538C351.705 107.999 343.405 114.574 343.405 114.574L348.148 128.371Z" fill="#C4C4C4"/>
<path d="M356.987 119.64C356.987 119.64 358.173 125.029 360.759 126.646C363.346 128.263 362.915 129.772 364.64 130.958C366.472 132.143 367.335 135.593 369.059 136.24C370.784 136.778 370.784 140.228 373.155 141.629C375.527 143.03 374.772 142.707 375.635 143.138C376.497 143.569 375.85 145.617 377.036 146.48C378.222 147.234 375.203 153.163 375.742 154.025C376.281 154.887 374.341 152.947 374.341 152.947L372.832 161.139C372.832 161.139 377.036 165.343 376.928 162.54C376.82 159.63 378.437 162.864 381.132 163.51C383.827 164.157 380.808 159.199 384.473 161.355C388.138 163.51 383.611 155.965 386.414 155.642C389.216 155.318 386.198 151.761 388.138 150.468C390.078 149.174 387.276 146.156 389.971 145.725C392.665 145.294 389.001 140.12 390.51 137.641C392.126 135.162 391.156 131.605 389.001 129.988C386.845 128.371 388.138 126.215 390.186 124.059C392.342 121.903 387.276 116.729 384.581 116.191C381.886 115.652 385.228 110.478 381.779 107.352C378.329 104.226 378.868 107.998 376.066 105.735C373.263 103.471 378.868 102.609 374.018 97.435C369.167 92.2611 369.383 96.5727 367.119 95.1714C364.855 93.7701 364.209 88.704 361.514 88.2728C358.819 87.8417 359.466 90.752 356.771 89.0274C354.076 87.3027 353.645 82.9911 350.627 82.7755C347.609 82.5599 348.148 86.117 346.639 86.5482C345.022 86.9793 344.375 83.8534 342.759 85.5781C341.034 87.3027 342.974 89.4585 340.926 89.5663C338.878 89.6741 337.8 88.3806 337.261 90.752C336.722 93.1234 338.986 95.0636 337.261 95.387C335.537 95.7104 332.626 92.9078 333.596 95.6026C334.459 98.2973 333.273 99.1596 331.979 100.238C330.686 101.315 330.902 104.01 331.979 105.843C333.057 107.675 333.057 108.43 332.95 110.909C332.842 113.388 330.794 112.633 332.411 116.191C334.027 119.64 335.321 120.179 335.105 122.874C334.89 125.568 334.782 128.155 337.046 130.311C339.309 132.467 339.633 131.173 340.818 134.838C342.004 138.503 342.974 141.629 345.238 143.246C347.393 144.755 349.226 144.755 349.657 146.803C350.088 148.851 353.106 151.33 353.106 151.33L350.735 139.365C350.735 139.365 347.07 134.515 347.609 133.868C348.04 133.221 348.687 133.221 347.932 131.389C347.178 129.557 347.501 127.616 348.04 128.479C348.579 129.341 349.657 129.449 349.657 128.479C349.657 127.616 350.627 124.598 351.813 124.922C352.999 125.245 355.262 123.736 353.861 120.61C352.567 117.592 355.801 122.227 356.987 119.64Z" fill="url(#paint27_linear)"/>
<path d="M361.622 148.42L364.748 150.145C364.748 150.145 363.454 151.761 362.376 151.33C361.298 150.899 360.867 148.528 360.867 148.528L361.622 148.42Z" fill="#C4C4C4"/>
<path d="M359.466 154.025C361.622 154.995 363.778 156.181 365.61 157.582C365.61 157.582 362.7 156.935 359.466 154.025Z" fill="#C4C4C4"/>
<path d="M361.406 156.612L363.67 157.906C363.67 157.906 362.484 158.444 361.406 156.612Z" fill="#C4C4C4"/>
<path d="M347.932 129.665C347.932 129.665 349.01 130.096 349.334 132.683C349.657 135.162 348.902 134.407 348.902 134.407C349.118 132.79 348.795 131.066 347.932 129.665Z" fill="#C4C4C4"/>
<path d="M376.604 147.019C376.604 147.019 375.85 146.695 375.419 148.528C374.988 150.468 375.419 150.252 375.419 150.252C375.419 150.252 375.203 149.606 375.634 149.174C376.173 148.743 375.958 147.234 376.604 147.019Z" fill="#C4C4C4"/>
<path d="M368.952 262.247C373.156 259.875 373.156 252.114 368.952 244.892C364.748 237.67 358.065 233.79 353.861 236.161C349.657 238.533 349.657 246.294 353.861 253.515C358.065 260.737 364.856 264.618 368.952 262.247Z" fill="#E3E3E8"/>
<path d="M367.227 259.121C370.461 257.288 370.461 251.36 367.227 245.755C363.993 240.257 358.927 237.239 355.693 239.072C352.46 240.904 352.46 246.832 355.693 252.438C358.927 258.043 363.993 260.953 367.227 259.121Z" fill="#F8F8F8"/>
<path d="M395.576 272.702C397.3 271.732 397.3 268.39 395.576 265.265C393.851 262.246 390.94 260.522 389.216 261.6C387.491 262.57 387.491 265.911 389.216 269.037C390.94 272.055 393.851 273.78 395.576 272.702Z" fill="url(#paint28_linear)"/>
<path d="M397.301 266.558C396.438 266.019 395.684 266.45 395.684 267.528C395.684 266.989 395.468 266.45 395.253 265.911C394.929 265.372 394.606 265.049 394.067 264.726C394.929 265.265 395.684 264.834 395.684 263.756C395.684 264.295 395.899 264.834 396.115 265.372C396.438 265.804 396.869 266.235 397.301 266.558Z" fill="#F8F8F8"/>
<path d="M397.192 263.755C396.653 263.432 396.222 263.648 396.222 264.294C396.222 263.971 396.115 263.648 395.899 263.324C395.683 263.001 395.468 262.785 395.252 262.57C395.791 262.893 396.222 262.678 396.222 262.031C396.222 262.354 396.33 262.677 396.546 263.001C396.653 263.324 396.869 263.54 397.192 263.755Z" fill="#F8F8F8"/>
<path d="M393.851 271.624C393.312 271.624 392.665 271.409 392.234 271.085C391.048 270.331 389.97 269.037 389.324 267.528V267.421V267.313C389.324 267.313 389.324 267.205 389.432 267.205L389.539 267.097H389.647H389.755C389.755 267.097 389.863 267.097 389.863 267.205L389.97 267.313C390.509 268.714 391.48 269.9 392.557 270.546C393.528 271.085 394.39 271.085 394.821 270.439C394.929 270.331 394.929 270.331 395.037 270.223C395.144 270.223 395.252 270.223 395.36 270.331C395.468 270.439 395.468 270.439 395.576 270.546C395.576 270.654 395.576 270.762 395.468 270.87C395.252 271.085 395.037 271.301 394.713 271.517C394.498 271.624 394.174 271.624 393.851 271.624Z" fill="#F8F8F8"/>
<path d="M390.402 265.372C390.402 265.803 390.078 265.911 389.755 265.696C389.54 265.588 389.432 265.372 389.324 265.264C389.216 265.049 389.108 264.833 389.108 264.618C389.108 264.187 389.432 264.079 389.755 264.294C389.971 264.402 390.079 264.618 390.186 264.725C390.402 264.941 390.402 265.157 390.402 265.372Z" fill="#F8F8F8"/>
<path d="M395.468 268.283C395.468 268.714 395.144 268.822 394.821 268.606C394.605 268.498 394.498 268.391 394.39 268.175C394.282 267.959 394.174 267.744 394.174 267.528C394.174 267.097 394.498 266.989 394.821 267.205C395.037 267.313 395.144 267.528 395.252 267.636C395.36 267.852 395.468 268.067 395.468 268.283Z" fill="#F8F8F8"/>
<path d="M331.44 227.322V226.244L329.931 226.352H329.392L329.931 227.107L331.333 228.939V228.077C332.734 229.37 333.812 231.526 333.812 233.251C333.812 235.299 332.518 236.161 330.794 235.407L331.44 236.161H330.901C332.949 237.023 334.458 235.946 334.458 233.574C334.566 231.418 333.273 228.831 331.44 227.322Z" fill="url(#paint29_linear)"/>
<path d="M330.578 235.299L329.177 233.466V234.221C327.776 232.927 326.698 230.772 326.698 229.047C326.698 226.999 327.991 226.137 329.716 226.783L329.177 226.029H329.716C327.668 225.059 326.051 226.244 326.051 228.616C326.051 230.879 327.345 233.466 329.177 234.975V236.161L330.686 236.053H331.225L330.578 235.299Z" fill="url(#paint30_linear)"/>
<path d="M393.097 94.5248C392.881 94.6326 392.881 94.9559 393.097 95.2793L396.007 100.345C396.115 100.561 396.007 100.777 395.899 100.669L387.815 96.0338C387.599 95.926 387.384 96.0338 387.384 96.2494C387.384 96.3572 387.384 96.5728 387.492 96.6806C387.599 96.7884 387.707 96.8962 387.815 97.0039L395.899 101.639C396.115 101.747 396.223 102.07 396.007 102.178L393.097 103.903C392.881 104.01 392.881 104.334 393.097 104.657C393.312 104.98 393.528 105.088 393.743 104.98L397.732 102.609C397.947 102.501 397.947 102.178 397.732 101.962L393.743 94.8481C393.528 94.6326 393.312 94.417 393.097 94.5248Z" fill="#A5A5AF"/>
<path d="M415.84 149.282V158.121C415.84 158.983 416.487 159.307 417.242 158.876C417.673 158.66 417.996 158.229 418.212 157.906C418.427 157.474 418.535 157.043 418.643 156.612V147.773C418.643 146.911 417.996 146.588 417.242 147.019C416.81 147.234 416.487 147.666 416.271 147.989C415.948 148.42 415.84 148.851 415.84 149.282Z" fill="#E3E3E8"/>
<path d="M419.29 148.204V157.043C419.29 157.474 419.182 158.013 418.858 158.337C418.643 158.768 418.319 159.091 417.888 159.307C417.781 159.414 417.565 159.522 417.457 159.522C417.242 159.522 417.134 159.522 416.918 159.414C416.81 159.307 416.703 159.199 416.595 159.091C416.487 158.983 416.487 158.768 416.487 158.66V158.552V149.713C416.487 149.282 416.595 148.851 416.81 148.528C417.026 148.096 417.242 147.773 417.673 147.557C417.781 147.557 417.781 147.45 417.888 147.45C417.996 147.342 418.212 147.342 418.319 147.234C418.427 147.234 418.643 147.234 418.751 147.342C419.182 147.45 419.29 147.773 419.29 148.204Z" fill="#F8F8F8"/>
<path d="M392.881 288.763L329.931 252.437C329.608 252.222 329.392 252.006 329.177 251.683C328.961 251.36 328.853 251.036 328.853 250.713C328.853 250.066 329.284 249.743 329.931 250.066L392.881 286.391C393.204 286.607 393.42 286.823 393.635 287.146C393.851 287.469 393.959 287.793 393.959 288.116C393.959 288.763 393.527 289.086 392.881 288.763Z" fill="#A5A5AF"/>
<path d="M175.791 235.622C175.791 235.622 161.671 240.042 158.545 242.197C156.82 243.383 154.017 246.078 151.862 248.234L146.149 244.892C148.412 242.521 151.431 239.395 152.832 238.317C155.095 236.485 171.48 230.772 171.48 230.772L175.791 235.622Z" fill="#E3E3E8"/>
<path d="M213.949 258.582C213.949 258.582 202.308 267.205 200.799 268.391C200.044 269.037 196.164 270.439 192.607 271.624L187.541 268.714C190.235 267.636 193.253 266.343 194.87 265.588C198.427 263.971 206.188 255.671 206.188 255.671L213.949 258.582Z" fill="#E3E3E8"/>
<path d="M234.321 245.216C233.459 248.773 213.518 261.6 213.518 261.6C213.518 261.6 204.787 261.169 202.739 257.073L185.277 267.528L152.94 248.88L172.665 237.562C172.665 237.562 164.365 236.377 164.15 231.311C164.15 231.311 190.02 220.855 194.87 221.394C196.918 221.61 200.475 222.795 203.817 223.981C204.248 224.196 204.787 224.304 205.218 224.52C206.619 225.059 207.913 225.598 208.991 226.029C209.53 226.244 209.961 226.46 210.392 226.568C211.685 227.107 212.548 227.538 212.548 227.538C218.476 230.017 220.416 231.418 224.512 234.544C224.836 234.868 225.267 235.191 225.698 235.514C226.992 236.592 228.285 237.886 229.579 239.072C229.794 239.287 230.118 239.61 230.333 239.826C232.597 242.197 234.429 244.461 234.321 245.216Z" fill="url(#paint31_linear)"/>
<path d="M219.554 224.735L214.704 228.077L211.901 227.215C211.901 227.215 207.697 229.802 214.057 233.466C220.093 237.023 224.513 234.436 224.513 234.436L222.68 232.82L228.177 229.909L219.554 224.735Z" fill="#E3E3E8"/>
<path d="M219.015 225.059C219.015 225.059 216.967 228.185 219.554 229.694C222.034 231.311 228.07 229.909 228.07 229.909L222.465 227.754L219.015 225.059Z" fill="#E3E3E8"/>
<path d="M221.926 220.747C221.926 220.747 218.476 223.658 218.692 224.089C218.8 224.52 220.416 227.646 221.71 228.293C223.003 228.939 228.716 230.017 230.118 229.909C231.519 229.802 242.513 224.843 243.16 224.52C243.699 224.197 244.454 212.555 244.454 212.555C244.454 212.555 234.321 213.202 233.998 213.31C233.675 213.417 226.453 216.112 221.926 220.747Z" fill="#E3E3E8"/>
<path d="M227.207 216.651C227.207 216.651 226.453 215.681 224.512 215.681C222.572 215.681 220.416 218.591 222.788 219.993C225.159 221.394 225.698 218.376 225.698 218.376L227.207 216.651Z" fill="#E3E3E8"/>
<path d="M242.19 225.167C242.19 225.167 244.885 226.352 243.591 226.999C242.729 227.43 239.172 229.047 237.663 228.508C236.154 228.077 236.261 227.646 236.261 227.646L240.25 225.382L242.19 225.167Z" fill="#E3E3E8"/>
<path d="M225.806 216.435C225.806 216.435 225.483 217.19 227.1 217.19C228.609 217.19 228.932 216.22 229.579 216.435C230.225 216.651 233.351 217.19 233.998 216.435C234.537 215.681 236.046 215.681 236.046 216.004C236.046 216.328 236.37 216.328 236.801 216.435C237.232 216.435 236.046 217.837 237.232 218.483C238.418 219.022 237.124 219.992 237.986 220.316C238.741 220.639 237.879 222.04 239.172 222.472C240.466 222.903 238.633 223.981 239.388 224.412C240.25 224.843 240.25 225.598 240.789 226.029C241.112 226.244 241.436 226.46 241.867 226.568L244.669 224.627L245.963 219.022C245.963 219.022 239.711 211.8 239.388 211.585C239.064 211.369 228.716 211.8 228.716 211.8L225.806 216.435Z" fill="#C7C7C7"/>
<path d="M237.771 215.358C237.771 215.358 236.154 217.082 237.555 217.944C238.956 218.807 237.771 219.238 238.741 219.885C239.711 220.531 238.741 221.609 239.927 222.148C241.112 222.579 239.495 223.55 240.789 224.412C242.19 225.274 241.651 224.951 242.19 225.274C242.729 225.49 241.22 226.029 241.759 226.46C242.406 226.891 237.447 228.508 237.016 228.4C236.908 228.4 236.262 227.969 236.262 227.969L230.872 230.125C230.872 230.125 232.381 232.065 233.782 231.203C235.184 230.34 234.86 231.526 236.908 232.173C238.849 232.82 238.741 230.879 240.897 232.065C243.052 233.251 242.837 230.34 245.424 230.772C248.011 231.095 247.148 229.586 249.412 229.586C251.676 229.586 250.813 228.185 253.292 228.508C255.772 228.831 255.233 226.783 257.82 226.244C260.407 225.813 261.377 224.627 260.407 223.765C259.329 222.903 261.485 222.579 264.395 222.256C267.305 222.041 265.581 219.669 263.533 219.022C261.485 218.483 266.982 217.513 265.473 216.004C264.072 214.495 262.67 215.681 261.377 214.603C260.083 213.525 265.365 214.172 263.748 211.908C262.131 209.645 260.191 210.938 259.005 210.076C257.82 209.321 259.76 207.704 257.604 207.165C255.448 206.627 254.694 207.489 253.185 206.627C251.676 205.656 253.508 204.363 251.029 203.824C248.55 203.285 247.256 204.363 245.747 204.255C244.238 204.147 245.208 203.069 242.837 203.285C240.573 203.501 241.112 204.471 239.28 204.147C237.447 203.824 237.124 203.285 235.507 203.932C233.89 204.578 234.753 205.441 233.244 205.225C231.627 205.01 230.549 203.716 230.01 204.686C229.471 205.656 227.962 205.656 226.345 205.764C224.728 205.872 223.542 206.627 223.542 207.381C223.65 208.136 223.219 208.351 221.926 208.998C220.632 209.752 219.231 209.106 218.8 210.399C218.368 211.693 219.339 212.016 217.722 212.771C216.213 213.525 214.811 214.172 215.674 215.25C216.536 216.22 217.506 215.896 216.752 217.19C215.997 218.483 215.243 219.561 216.428 220.316C217.614 221.07 219.123 221.394 218.476 222.041C217.829 222.687 219.123 223.873 219.123 223.873L223.111 220.1C223.111 220.1 222.357 218.16 223.111 218.052C223.866 217.944 224.405 218.052 224.62 217.406C224.836 216.759 226.129 216.22 226.129 216.543C226.237 216.867 227.099 217.082 227.531 216.867C227.962 216.651 230.225 215.896 231.195 216.22C232.058 216.543 234.753 216.435 235.076 215.358C234.968 214.064 235.399 215.896 237.771 215.358Z" fill="url(#paint32_linear)"/>
<path d="M227.423 224.412L229.147 225.382C229.147 225.382 227.207 225.598 226.453 225.274C225.698 224.951 226.56 224.197 226.56 224.197L227.423 224.412Z" fill="#C4C4C4"/>
<path d="M222.788 225.598C224.081 226.137 225.267 226.784 226.345 227.646C226.345 227.646 224.081 226.999 222.788 225.598Z" fill="#C4C4C4"/>
<path d="M223.111 226.676L224.405 227.43C224.405 227.43 223.219 227.43 223.111 226.676Z" fill="#C4C4C4"/>
<path d="M224.944 216.759C224.944 216.759 225.698 217.082 224.62 217.837C223.65 218.591 223.435 218.268 223.435 218.268C223.435 218.268 225.051 217.621 224.944 216.759Z" fill="#C4C4C4"/>
<path d="M241.004 226.46C241.004 226.46 240.573 226.245 239.172 226.676C237.878 227.107 238.31 227.215 238.31 227.215C238.31 227.215 238.417 226.999 239.064 226.891C239.711 226.891 240.25 226.352 241.004 226.46Z" fill="#C4C4C4"/>
<path d="M393.851 361.414C393.851 361.414 379.731 365.833 376.605 367.989C374.88 369.174 372.077 371.869 369.922 374.025L364.209 370.684C366.472 368.312 369.49 365.186 370.892 364.108C373.155 362.276 389.539 356.563 389.539 356.563L393.851 361.414Z" fill="#EFEFEF"/>
<path d="M431.901 384.481C431.901 384.481 420.259 393.104 418.75 394.29C417.996 394.936 414.115 396.338 410.558 397.523L405.492 394.613C408.187 393.535 411.205 392.242 412.822 391.487C416.379 389.87 424.14 381.57 424.14 381.57L431.901 384.481Z" fill="#EFEFEF"/>
<path d="M452.274 371.007C451.411 374.564 431.47 387.391 431.47 387.391C431.47 387.391 422.739 386.96 420.691 382.864L403.229 393.319L370.892 374.672L390.618 363.354C390.618 363.354 382.318 362.276 382.102 357.102C382.102 357.102 407.972 346.646 412.823 347.185C414.871 347.401 418.428 348.586 421.769 349.772C422.2 349.988 422.739 350.096 423.17 350.311C424.572 350.85 425.865 351.389 426.943 351.82C427.482 352.036 427.913 352.251 428.344 352.359C429.638 352.898 430.5 353.329 430.5 353.329C436.429 355.808 438.369 357.21 442.465 360.336C442.788 360.659 443.219 360.982 443.651 361.306C444.944 362.384 446.238 363.677 447.531 364.863C447.747 365.078 448.07 365.402 448.286 365.617C450.657 367.989 452.489 370.252 452.274 371.007Z" fill="#A5A5AF"/>
<path d="M437.506 350.527L432.655 353.868L429.853 353.006C429.853 353.006 425.649 355.593 432.009 359.258C438.045 362.815 442.464 360.228 442.464 360.228L440.632 358.611L446.129 355.701L437.506 350.527Z" fill="#EFEFEF"/>
<path d="M437.075 350.85C437.075 350.85 435.027 353.976 437.614 355.485C440.093 357.102 446.129 355.701 446.129 355.701L440.524 353.545L437.075 350.85Z" fill="#C6C6C6"/>
<path d="M439.985 346.646C439.985 346.646 436.536 349.557 436.752 349.988C436.859 350.419 438.476 353.545 439.77 354.191C441.063 354.838 446.776 355.916 448.177 355.808C449.579 355.701 460.573 350.742 461.22 350.419C461.759 350.095 462.514 338.454 462.514 338.454C462.514 338.454 452.381 339.101 452.058 339.209C451.735 339.316 444.405 341.903 439.985 346.646Z" fill="#EFEFEF"/>
<path d="M445.267 342.442C445.267 342.442 444.513 341.472 442.573 341.472C440.632 341.472 438.477 344.383 440.848 345.784C443.219 347.185 443.758 344.167 443.758 344.167L445.267 342.442Z" fill="#EFEFEF"/>
<path d="M460.142 350.958C460.142 350.958 462.837 352.143 461.543 352.79C460.681 353.221 457.124 354.838 455.615 354.299C454.106 353.868 454.214 353.437 454.214 353.437L458.202 351.173L460.142 350.958Z" fill="#EFEFEF"/>
<path d="M443.866 342.227C443.866 342.227 443.542 342.981 445.159 342.981C446.668 342.981 446.992 342.011 447.638 342.227C448.285 342.442 451.411 342.981 452.058 342.227C452.597 341.472 454.106 341.472 454.106 341.795C454.106 342.119 454.429 342.119 454.86 342.227C455.292 342.227 454.106 343.628 455.292 344.275C456.477 344.814 455.184 345.784 456.046 346.107C456.801 346.43 455.938 347.832 457.232 348.263C458.525 348.694 456.693 349.772 457.447 350.203C458.31 350.634 458.31 351.389 458.849 351.82C459.172 352.036 459.495 352.251 459.926 352.359L462.729 350.419L464.023 344.814C464.023 344.814 457.771 337.592 457.447 337.376C457.124 337.16 446.776 337.592 446.776 337.592L443.866 342.227Z" fill="#C6C6C6"/>
<path d="M455.723 341.149C455.723 341.149 454.106 342.873 455.507 343.736C456.908 344.598 455.723 345.029 456.693 345.676C457.663 346.323 456.693 347.401 457.878 347.94C459.064 348.371 457.447 349.341 458.741 350.203C460.142 351.066 459.603 350.742 460.142 351.066C460.681 351.281 459.172 351.82 459.711 352.251C460.358 352.682 455.399 354.299 454.968 354.191C454.86 354.191 454.214 353.76 454.214 353.76L448.824 355.916C448.824 355.916 450.333 357.856 451.734 356.994C453.136 356.132 452.812 357.317 454.86 357.964C456.801 358.611 456.693 356.671 458.849 357.856C461.004 359.042 460.789 356.132 463.376 356.563C465.963 356.886 465.1 355.377 467.364 355.377C469.628 355.377 468.765 353.976 471.244 354.299C473.724 354.623 473.185 352.575 475.772 352.036C478.359 351.604 479.329 350.419 478.359 349.556C477.281 348.694 479.436 348.371 482.347 348.047C485.257 347.832 483.532 345.46 481.484 344.814C479.436 344.275 484.934 343.305 483.425 341.796C482.023 340.286 480.622 341.472 479.329 340.394C478.035 339.316 483.317 339.963 481.7 337.7C480.083 335.436 478.143 336.729 476.957 335.867C475.772 335.113 477.712 333.496 475.556 332.957C473.4 332.418 472.646 333.28 471.137 332.418C469.628 331.448 471.46 330.154 468.981 329.615C466.502 329.076 465.208 330.154 463.699 330.046C462.19 329.939 463.16 328.861 460.789 329.076C458.525 329.292 459.064 330.262 457.232 329.939C455.399 329.615 455.076 329.076 453.459 329.723C451.842 330.37 452.704 331.232 451.195 331.017C449.579 330.801 448.501 329.507 447.962 330.478C447.423 331.448 445.914 331.448 444.297 331.555C442.68 331.663 441.494 332.418 441.494 333.172C441.602 333.927 441.171 334.142 439.877 334.789C438.584 335.544 437.183 334.897 436.752 336.19C436.32 337.484 437.29 337.807 435.674 338.562C434.165 339.316 432.763 339.963 433.626 341.041C434.488 342.011 435.458 341.688 434.703 342.981C433.949 344.275 433.194 345.353 434.38 346.107C435.566 346.862 437.075 347.185 436.428 347.832C435.781 348.479 437.075 349.664 437.075 349.664L441.063 345.892C441.063 345.892 440.309 343.951 441.063 343.844C441.818 343.736 442.357 343.844 442.572 343.197C442.788 342.55 444.081 342.011 444.081 342.335C444.189 342.658 445.051 342.873 445.483 342.658C445.914 342.442 448.177 341.688 449.147 342.011C450.01 342.334 452.704 342.227 453.028 341.149C452.92 339.855 453.351 341.688 455.723 341.149Z" fill="#A5A5AF"/>
<path d="M445.483 350.203L447.207 351.173C447.207 351.173 445.267 351.389 444.512 351.066C443.758 350.742 444.62 349.988 444.62 349.988L445.483 350.203Z" fill="#C6C6C6"/>
<path d="M440.74 351.389C442.033 351.928 443.219 352.575 444.297 353.437C444.297 353.437 442.141 352.79 440.74 351.389Z" fill="#C6C6C6"/>
<path d="M441.171 352.467L442.464 353.222C442.464 353.222 441.279 353.222 441.171 352.467Z" fill="#C6C6C6"/>
<path d="M443.003 342.55C443.003 342.55 443.758 342.873 442.68 343.628C441.71 344.382 441.494 344.059 441.494 344.059C441.494 344.059 443.111 343.52 443.003 342.55Z" fill="#C6C6C6"/>
<path d="M459.064 352.251C459.064 352.251 458.633 352.036 457.232 352.467C455.938 352.898 456.37 353.006 456.37 353.006C456.37 353.006 456.477 352.79 457.124 352.683C457.771 352.575 458.31 352.144 459.064 352.251Z" fill="#C6C6C6"/>
<path d="M231.627 111.232L289.726 144.755C291.235 145.617 292.42 147.665 292.42 149.39V190.781C292.42 192.506 291.235 193.153 289.726 192.29L231.627 158.768C230.118 157.905 228.932 155.857 228.932 154.133V112.741C228.932 111.124 230.225 110.37 231.627 111.232Z" fill="#E3E3E8"/>
<path opacity="0.42" d="M229.147 112.741L287.246 146.264C288.755 147.126 289.941 149.174 289.941 150.899V192.29C289.941 194.015 288.755 194.662 287.246 193.799L229.147 160.277C227.638 159.414 226.453 157.366 226.453 155.642V114.25C226.453 112.526 227.638 111.879 229.147 112.741Z" fill="#00BAFF"/>
<path d="M263.856 164.373L250.274 156.504L232.058 146.048L247.256 134.084L256.742 151.438L263.856 164.373Z" fill="#E3E3E8"/>
<path d="M275.066 166.421L268.275 166.96L265.688 165.451L258.574 152.516L264.718 147.666L275.066 166.421Z" fill="#E3E3E8"/>
<path d="M267.09 144.863C267.09 146.372 266.012 147.019 264.718 146.264C263.425 145.51 262.347 143.677 262.347 142.168C262.347 140.659 263.425 140.012 264.718 140.767C266.012 141.521 267.09 143.354 267.09 144.863Z" fill="#E3E3E8"/>
<path d="M285.306 171.164L279.054 171.595L276.252 171.81L268.168 172.457L266.658 168.577L270.108 168.361L276.899 167.822L283.689 167.283C284.12 167.283 284.767 167.822 284.983 168.469L285.522 169.87C285.953 170.517 285.737 171.164 285.306 171.164Z" fill="#E3E3E8"/>
<path d="M265.796 168.577L267.305 172.457H266.551L265.042 168.577H265.796Z" fill="#E3E3E8"/>
<path d="M266.227 172.457L263.964 170.84L263.856 170.733C263.856 170.625 263.856 170.625 263.856 170.517L264.826 168.685L266.227 172.457Z" fill="#E3E3E8"/>
<path d="M463.915 211.585C464.669 214.388 465.639 217.19 466.825 219.777C467.04 220.208 467.256 220.64 467.472 221.071L486.119 259.228L487.413 261.815L504.336 296.308C505.09 297.925 506.599 298.787 507.354 298.033L544.326 265.372C547.668 262.462 549.5 257.18 548.961 250.066C548.422 243.707 546.051 236.916 542.494 230.88C538.937 224.843 534.302 219.669 529.128 216.22C518.241 208.998 508.863 212.124 506.492 222.364C506.384 222.903 505.522 222.472 505.414 221.717C503.042 208.783 493.772 194.878 482.778 189.488C472.43 184.314 463.915 189.057 462.837 200.375C462.513 204.04 462.944 207.812 463.915 211.585Z" fill="url(#paint33_linear)"/>
<path d="M435.566 213.525C436.213 206.627 441.387 203.716 447.639 206.842C454.322 210.184 460.034 218.591 461.436 226.46C461.543 226.891 461.975 227.215 462.082 226.891C463.484 220.639 469.197 218.807 475.88 223.119C482.239 227.322 487.413 236.053 487.952 243.707C488.275 248.018 487.198 251.252 485.15 253.084L462.729 273.133C462.298 273.564 461.328 273.026 460.897 272.055L438.476 226.137C436.321 222.041 435.243 217.514 435.566 213.525Z" fill="url(#paint34_linear)"/>
<path d="M418.858 147.234C418.751 147.126 418.535 147.126 418.427 147.126C418.319 147.126 418.104 147.234 417.996 147.342C417.888 147.342 417.888 147.45 417.781 147.45C417.673 147.342 417.673 147.234 417.565 147.126L418.104 146.803L418.858 147.234Z" fill="#E3E3E8"/>
<path d="M502.288 221.502C502.288 221.502 496.144 196.279 473.4 191.859C473.4 191.859 484.718 208.459 502.288 221.502Z" fill="#8DE0FF"/>
<path d="M483.856 248.557C483.856 248.557 488.383 234.005 471.999 224.951C472.107 225.059 483.425 233.79 483.856 248.557Z" fill="#8DE0FF"/>
<path d="M459.28 228.939C459.28 228.939 457.34 215.034 442.573 207.705C442.573 207.705 453.244 220.208 459.28 228.939Z" fill="#8DE0FF"/>
<path d="M544.865 250.605C544.865 240.688 535.164 219.238 515.762 216.004C515.762 216.004 525.355 218.484 534.841 230.125C542.71 239.826 544.865 250.605 544.865 250.605Z" fill="#8DE0FF"/>
<path d="M417.026 159.522L416.271 159.091L416.595 158.768C416.595 158.876 416.595 159.091 416.703 159.199C416.81 159.307 416.918 159.415 417.026 159.522Z" fill="#E3E3E8"/>
<path d="M415.84 132.79V141.629C415.84 142.492 416.487 142.815 417.242 142.384C417.673 142.168 417.996 141.737 418.212 141.414C418.427 140.982 418.535 140.551 418.643 140.12V131.281C418.643 130.419 417.996 130.096 417.242 130.527C416.81 130.742 416.487 131.174 416.271 131.497C416.056 131.82 415.84 132.359 415.84 132.79Z" fill="#E3E3E8"/>
<path d="M419.29 131.712V140.551C419.29 140.982 419.182 141.521 418.858 141.845C418.643 142.276 418.319 142.599 417.888 142.815C417.781 142.922 417.565 143.03 417.457 143.03C417.242 143.03 417.134 143.03 416.918 142.922C416.81 142.815 416.703 142.707 416.595 142.599C416.487 142.491 416.487 142.276 416.487 142.168V142.06V133.221C416.487 132.79 416.595 132.359 416.81 132.036C417.026 131.605 417.242 131.281 417.673 131.066C417.781 131.066 417.781 130.958 417.888 130.958C417.996 130.85 418.212 130.85 418.319 130.742C418.427 130.742 418.643 130.742 418.751 130.85C419.182 130.958 419.29 131.281 419.29 131.712Z" fill="#F8F8F8"/>
<path d="M418.858 130.85C418.751 130.742 418.535 130.742 418.427 130.742C418.319 130.742 418.104 130.85 417.996 130.958C417.888 130.958 417.888 131.066 417.781 131.066C417.673 130.958 417.673 130.85 417.565 130.742L418.104 130.419L418.858 130.85Z" fill="#E3E3E8"/>
<path d="M417.026 143.03L416.271 142.599L416.595 142.276C416.595 142.384 416.595 142.599 416.703 142.707C416.81 142.815 416.918 142.923 417.026 143.03Z" fill="#E3E3E8"/>
<path d="M477.389 237.886C477.497 236.054 478.898 235.407 480.515 236.161C482.239 237.024 483.748 239.179 484.072 241.227C484.072 241.335 484.18 241.443 484.287 241.335C484.611 239.718 486.12 239.179 487.844 240.365C489.461 241.443 490.863 243.707 490.97 245.755C491.078 246.833 490.755 247.695 490.216 248.126L484.395 253.3C484.287 253.408 484.072 253.3 483.964 252.977L478.143 241.12C477.497 240.042 477.281 238.856 477.389 237.886Z" fill="url(#paint35_linear)"/>
<path d="M280.24 121.904C280.348 120.287 281.533 119.64 283.042 120.395C284.551 121.149 285.845 123.089 286.168 124.922C286.168 125.029 286.276 125.137 286.276 125.029C286.6 123.628 287.893 123.197 289.402 124.167C290.803 125.137 291.989 127.185 292.205 128.91C292.312 129.88 291.989 130.635 291.558 131.066L286.384 135.593C286.276 135.701 286.061 135.593 285.953 135.377L280.779 124.814C280.348 123.844 280.132 122.766 280.24 121.904Z" fill="url(#paint36_linear)"/>
<path d="M271.401 106.705C271.509 105.519 272.371 105.088 273.341 105.627C274.419 106.166 275.389 107.567 275.605 108.861C275.605 108.969 275.713 108.969 275.713 108.969C275.928 107.891 276.899 107.675 277.976 108.322C279.054 108.969 279.917 110.478 279.917 111.663C280.024 112.418 279.809 112.957 279.486 113.172L275.821 116.406C275.713 116.514 275.605 116.406 275.497 116.191L271.832 108.645C271.617 108.106 271.401 107.352 271.401 106.705Z" fill="url(#paint37_linear)"/>
<path d="M235.83 276.906C235.938 275.72 236.8 275.289 237.771 275.828C238.848 276.367 239.819 277.768 240.034 279.062C240.034 279.17 240.142 279.17 240.142 279.17C240.358 278.092 241.328 277.876 242.406 278.523C243.483 279.17 244.346 280.679 244.346 281.864C244.454 282.619 244.238 283.158 243.915 283.373L240.25 286.607C240.142 286.715 240.034 286.607 239.926 286.392L236.261 278.846C235.938 278.307 235.83 277.553 235.83 276.906Z" fill="url(#paint38_linear)"/>
<path d="M370.568 322.393C370.676 321.208 371.538 320.777 372.509 321.316C373.586 321.855 374.557 323.256 374.772 324.549C374.772 324.657 374.88 324.657 374.88 324.657C375.096 323.579 376.066 323.364 377.144 324.01C378.221 324.657 379.084 326.166 379.084 327.352C379.192 328.106 378.976 328.645 378.653 328.861L374.988 332.095C374.88 332.202 374.772 332.095 374.664 331.879L371 324.334C370.676 323.687 370.568 323.04 370.568 322.393Z" fill="url(#paint39_linear)"/>
<path d="M242.945 298.248C243.052 297.063 243.915 296.632 244.885 297.171C245.963 297.71 246.933 299.111 247.149 300.404C247.149 300.512 247.256 300.512 247.256 300.512C247.472 299.434 248.442 299.219 249.52 299.865C250.598 300.512 251.46 302.021 251.46 303.207C251.568 303.961 251.352 304.5 251.029 304.716L247.364 307.95C247.256 308.057 247.149 307.95 247.041 307.734L243.376 300.189C243.16 299.65 242.945 298.895 242.945 298.248Z" fill="url(#paint40_linear)"/>
<path d="M309.451 266.127C309.559 264.941 310.421 264.51 311.391 265.049C312.469 265.588 313.439 266.989 313.655 268.283C313.655 268.39 313.763 268.39 313.763 268.39C313.978 267.313 314.948 267.097 316.026 267.744C317.104 268.39 317.967 269.9 317.967 271.085C318.074 271.84 317.859 272.379 317.535 272.594L313.871 275.828C313.763 275.936 313.655 275.828 313.547 275.612L309.882 268.067C309.559 267.528 309.343 266.774 309.451 266.127Z" fill="url(#paint41_linear)"/>
<path d="M362.268 299.111C362.376 297.925 363.238 297.494 364.209 298.033C365.286 298.572 366.257 299.973 366.472 301.266C366.472 301.374 366.58 301.374 366.58 301.374C366.795 300.296 367.766 300.081 368.843 300.727C369.921 301.374 370.784 302.883 370.784 304.069C370.892 304.823 370.676 305.362 370.353 305.578L366.688 308.812C366.58 308.919 366.472 308.812 366.364 308.596L362.699 301.051C362.376 300.512 362.16 299.757 362.268 299.111Z" fill="url(#paint42_linear)"/>
<path d="M321.955 337.915C322.063 336.73 322.925 336.298 323.895 336.837C324.973 337.376 325.943 338.778 326.159 340.071C326.159 340.179 326.266 340.179 326.266 340.179C326.482 339.101 327.452 338.885 328.53 339.532C329.608 340.179 330.47 341.688 330.47 342.874C330.578 343.628 330.362 344.167 330.039 344.383L326.374 347.616C326.266 347.724 326.159 347.616 326.051 347.401L322.386 339.855C322.063 339.316 321.847 338.562 321.955 337.915Z" fill="url(#paint43_linear)"/>
<path d="M308.158 278.63L300.289 260.629C300.289 260.629 300.612 252.33 300.289 251.683C299.966 250.928 297.055 246.078 292.851 246.617C288.648 247.156 288.755 262.677 290.696 264.725L276.036 257.18C276.036 257.18 269.784 257.18 274.743 265.911C274.743 265.911 273.126 269.253 276.36 273.672C276.36 273.672 275.282 277.876 277.976 281.217C277.976 281.217 275.821 285.637 282.611 292.535L304.816 305.362L307.08 304.823L310.852 308.165L311.068 282.619L308.158 278.63Z" fill="#CFD1D2"/>
<path d="M308.804 278.092C308.804 278.092 310.206 293.613 307.942 306.764C307.942 306.764 307.834 307.842 311.499 309.997C315.164 312.153 325.081 317.651 325.081 317.651C325.081 317.651 327.021 318.729 326.913 315.495C326.913 312.261 328.207 291.242 328.207 291.242C328.207 291.242 328.746 288.439 325.727 286.715C322.817 284.99 308.804 278.092 308.804 278.092Z" fill="#CFD1D2"/>
<path d="M305.463 279.385L297.594 261.384C297.594 261.384 297.918 253.084 297.594 252.437C297.271 251.683 294.36 246.832 290.157 247.371C285.953 247.91 286.061 263.432 288.001 265.48L273.341 257.935C273.341 257.935 267.09 257.935 272.048 266.666C272.048 266.666 270.431 270.007 273.665 274.427C273.665 274.427 272.587 278.63 275.282 281.972C275.282 281.972 273.126 286.391 279.917 293.29L302.121 306.117L304.385 305.578L308.158 308.92L308.373 283.373L305.463 279.385Z" fill="url(#paint44_linear)"/>
<path d="M306.002 278.846C306.002 278.846 307.403 294.368 305.14 307.518C305.14 307.518 305.032 308.596 308.697 310.752C312.362 312.908 322.278 318.405 322.278 318.405C322.278 318.405 324.219 319.483 324.111 316.249C324.003 313.016 325.404 291.997 325.404 291.997C325.404 291.997 325.943 289.194 322.925 287.469C320.015 285.745 306.002 278.846 306.002 278.846Z" fill="url(#paint45_linear)"/>
<path d="M336.83 287.038V302.452C336.83 303.854 337.261 305.47 338.016 306.979C338.77 308.489 339.848 309.782 341.034 310.537L353.43 318.621C353.969 318.944 354.508 319.16 355.047 319.268C355.586 319.268 356.017 319.16 356.448 318.944C356.879 318.621 357.095 318.19 357.31 317.651C357.526 317.112 357.634 316.357 357.634 315.603V315.279L363.131 318.19C363.239 318.19 363.346 318.19 363.346 318.19C363.454 318.19 363.454 318.082 363.454 317.974C363.454 317.866 363.454 317.759 363.454 317.651C363.454 317.543 363.346 317.435 363.346 317.327L357.634 307.734V298.572C357.634 297.817 357.526 296.955 357.31 296.2C357.095 295.338 356.771 294.584 356.34 293.829C355.909 293.075 355.478 292.428 354.939 291.889C354.4 291.35 353.861 290.919 353.322 290.595L341.034 284.128C340.495 283.805 339.956 283.697 339.417 283.697C338.878 283.697 338.447 283.805 338.016 284.128C337.585 284.451 337.369 284.775 337.153 285.314C336.938 285.745 336.83 286.392 336.83 287.038Z" fill="url(#paint46_linear)"/>
<path d="M347.501 297.925C347.286 297.494 347.07 297.171 346.854 296.739C346.423 295.985 345.884 295.446 345.345 295.015C344.806 294.584 344.267 294.368 343.729 294.26C343.19 294.152 342.758 294.368 342.435 294.691C342.112 295.015 341.896 295.554 341.788 296.2C341.681 297.171 341.788 298.356 342.327 299.434C342.758 300.728 343.405 301.913 344.052 303.099C345.13 304.931 346.208 306.656 347.393 308.273C347.393 308.273 347.393 308.381 347.501 308.381H347.609C349.118 308.165 350.412 307.626 351.597 306.764C352.136 306.333 352.567 305.794 352.891 304.931C353.106 304.5 353.106 303.854 353.106 303.315C353.106 302.668 352.998 302.021 352.783 301.374C352.567 300.728 352.244 300.081 351.921 299.434C351.597 298.895 351.166 298.356 350.627 298.033C350.088 297.494 349.441 297.278 348.902 297.171C348.364 297.171 347.932 297.386 347.501 297.925Z" fill="white"/>
<path d="M268.922 277.229L269.03 290.595C269.03 291.781 268.707 292.751 268.06 293.182C267.413 293.613 266.659 293.613 265.796 292.966L256.311 286.822C255.88 286.499 255.449 286.176 255.125 285.745C254.694 285.313 254.371 284.774 254.047 284.128C253.724 283.589 253.508 282.942 253.293 282.295C253.077 281.649 253.077 281.11 253.077 280.571V280.355L248.873 277.445C248.766 277.445 248.766 277.337 248.658 277.229C248.658 277.121 248.55 277.014 248.55 277.014C248.55 276.906 248.55 276.798 248.55 276.798L248.658 276.69L252.969 275.073V268.606C252.969 268.067 253.077 267.528 253.185 267.205C253.293 266.773 253.616 266.45 253.832 266.235C254.155 266.019 254.479 265.911 254.91 265.911C255.341 265.911 255.664 266.019 256.095 266.235L265.473 271.193C265.904 271.408 266.335 271.732 266.659 272.163C267.09 272.594 267.413 273.133 267.737 273.672C268.06 274.211 268.276 274.858 268.491 275.504C268.922 275.936 268.922 276.582 268.922 277.229Z" fill="url(#paint47_linear)"/>
<path d="M260.838 276.583C260.946 276.475 261.161 276.367 261.269 276.151C261.593 275.936 261.916 275.936 262.347 276.044C262.778 276.151 263.209 276.475 263.533 276.906C263.964 277.337 264.287 277.876 264.503 278.415C264.826 279.062 264.934 279.601 265.042 280.247C265.15 281.217 265.042 281.972 264.718 282.511C264.395 283.05 263.964 283.589 263.425 283.804C262.67 284.236 261.808 284.559 260.838 284.667C260.838 284.667 260.838 284.667 260.73 284.667C260.73 284.667 260.73 284.667 260.622 284.559C259.437 283.05 258.467 281.325 257.496 279.493C257.065 278.631 256.742 277.768 256.419 276.906C256.311 276.367 256.203 275.936 256.203 275.505C256.203 275.073 256.311 274.642 256.419 274.319C256.634 273.996 256.85 273.78 257.065 273.672C257.389 273.564 257.712 273.564 258.035 273.672C258.467 273.78 258.898 274.103 259.329 274.534C259.76 274.966 260.083 275.612 260.407 276.259L260.838 276.583Z" fill="white"/>
<path d="M333.273 330.262V342.011C333.273 343.089 333.596 344.275 334.243 345.461C334.89 346.646 335.644 347.616 336.507 348.155L345.992 354.299C346.423 354.623 346.855 354.731 347.178 354.731C347.609 354.731 347.932 354.623 348.256 354.407C348.579 354.192 348.795 353.868 348.903 353.437C349.01 353.006 349.118 352.467 349.118 351.928V351.712L353.322 353.976C353.43 353.976 353.43 353.976 353.538 353.976L353.645 353.868C353.645 353.76 353.645 353.653 353.645 353.653C353.645 353.545 353.538 353.437 353.538 353.329L349.226 346V338.993C349.226 338.454 349.118 337.807 349.01 337.161C348.795 336.514 348.579 335.975 348.256 335.328C347.932 334.789 347.609 334.25 347.178 333.819C346.747 333.388 346.423 333.065 345.992 332.849L336.614 327.891C336.183 327.675 335.752 327.567 335.429 327.567C334.998 327.567 334.674 327.675 334.351 327.891C334.027 328.106 333.812 328.43 333.704 328.861C333.381 329.292 333.273 329.723 333.273 330.262Z" fill="url(#paint48_linear)"/>
<path d="M341.465 338.562C341.357 338.239 341.141 337.915 341.034 337.7C340.71 337.161 340.279 336.73 339.956 336.406C339.525 336.083 339.093 335.867 338.77 335.867C338.339 335.867 338.016 335.975 337.8 336.191C337.477 336.406 337.369 336.837 337.261 337.268C337.153 338.023 337.261 338.885 337.692 339.748C338.016 340.718 338.447 341.688 338.986 342.55C339.74 343.951 340.603 345.245 341.573 346.538C341.573 346.538 341.573 346.646 341.68 346.646C341.68 346.646 341.68 346.646 341.788 346.646C342.866 346.538 343.944 346.107 344.914 345.461C345.345 345.137 345.669 344.706 345.884 344.059C345.992 343.736 346.1 343.305 346.1 342.766C346.1 342.335 345.992 341.796 345.776 341.257C345.561 340.718 345.345 340.287 345.13 339.855C344.806 339.424 344.483 338.993 344.16 338.778C343.728 338.346 343.297 338.131 342.866 338.131C342.112 338.023 341.788 338.131 341.465 338.562Z" fill="white"/>
</g>
<defs>
<filter id="filter0_d" x="-39" y="-5" width="700" height="550" filterUnits="userSpaceOnUse" color-interpolation-filters="sRGB">
<feFlood flood-opacity="0" result="BackgroundImageFix"/>
<feColorMatrix in="SourceAlpha" type="matrix" values="0 0 0 0 0 0 0 0 0 0 0 0 0 0 0 0 0 0 127 0" result="hardAlpha"/>
<feOffset dy="25"/>
<feGaussianBlur stdDeviation="25"/>
<feColorMatrix type="matrix" values="0 0 0 0 0 0 0 0 0 0 0 0 0 0 0 0 0 0 0.25 0"/>
<feBlend mode="normal" in2="BackgroundImageFix" result="effect1_dropShadow"/>
<feBlend mode="normal" in="SourceGraphic" in2="effect1_dropShadow" result="shape"/>
</filter>
<linearGradient id="paint0_linear" x1="193.832" y1="408.418" x2="198.281" y2="334.118" gradientUnits="userSpaceOnUse">
<stop stop-color="#75DAFF"/>
<stop offset="1" stop-color="#00BAFF"/>
</linearGradient>
<linearGradient id="paint1_linear" x1="213.169" y1="289.612" x2="219.137" y2="190.416" gradientUnits="userSpaceOnUse">
<stop stop-color="#71449A"/>
<stop offset="0.8668" stop-color="#A66CAC"/>
</linearGradient>
<linearGradient id="paint2_linear" x1="432.389" y1="417.038" x2="434.477" y2="358.273" gradientUnits="userSpaceOnUse">
<stop stop-color="#75DAFF"/>
<stop offset="1" stop-color="#00BAFF"/>
</linearGradient>
<linearGradient id="paint3_linear" x1="431.237" y1="412.267" x2="437.204" y2="313.071" gradientUnits="userSpaceOnUse">
<stop stop-color="#75DAFF"/>
<stop offset="1" stop-color="#00BAFF"/>
</linearGradient>
<linearGradient id="paint4_linear" x1="105.343" y1="328.712" x2="108.257" y2="271.208" gradientUnits="userSpaceOnUse">
<stop stop-color="#75DAFF"/>
<stop offset="1" stop-color="#00BAFF"/>
</linearGradient>
<linearGradient id="paint5_linear" x1="84.5862" y1="250.984" x2="86.4875" y2="234.005" gradientUnits="userSpaceOnUse">
<stop stop-color="#75DAFF"/>
<stop offset="1" stop-color="#00BAFF"/>
</linearGradient>
<linearGradient id="paint6_linear" x1="68.6153" y1="237.703" x2="78.9664" y2="237.703" gradientUnits="userSpaceOnUse">
<stop stop-color="#71449A"/>
<stop offset="0.8668" stop-color="#A66CAC"/>
</linearGradient>
<linearGradient id="paint7_linear" x1="107.688" y1="261.879" x2="110.214" y2="245.801" gradientUnits="userSpaceOnUse">
<stop stop-color="#71449A"/>
<stop offset="0.8668" stop-color="#A66CAC"/>
</linearGradient>
<linearGradient id="paint8_linear" x1="143.046" y1="278.95" x2="143.962" y2="265.627" gradientUnits="userSpaceOnUse">
<stop stop-color="#75DAFF"/>
<stop offset="1" stop-color="#00BAFF"/>
</linearGradient>
<linearGradient id="paint9_linear" x1="136.16" y1="322.989" x2="141.358" y2="280.609" gradientUnits="userSpaceOnUse">
<stop stop-color="#75DAFF"/>
<stop offset="1" stop-color="#00BAFF"/>
</linearGradient>
<linearGradient id="paint10_linear" x1="93.9593" y1="303.243" x2="100.569" y2="262.058" gradientUnits="userSpaceOnUse">
<stop stop-color="#71449A"/>
<stop offset="0.8668" stop-color="#A66CAC"/>
</linearGradient>
<linearGradient id="paint11_linear" x1="152.61" y1="285.601" x2="157.657" y2="285.601" gradientUnits="userSpaceOnUse">
<stop stop-color="#71449A"/>
<stop offset="0.8668" stop-color="#A66CAC"/>
</linearGradient>
<linearGradient id="paint12_linear" x1="323.389" y1="454.601" x2="326.302" y2="397.099" gradientUnits="userSpaceOnUse">
<stop stop-color="#75DAFF"/>
<stop offset="1" stop-color="#00BAFF"/>
</linearGradient>
<linearGradient id="paint13_linear" x1="296.035" y1="368.68" x2="311.442" y2="368.68" gradientUnits="userSpaceOnUse">
<stop stop-color="#71449A"/>
<stop offset="0.8668" stop-color="#A66CAC"/>
</linearGradient>
<linearGradient id="paint14_linear" x1="325.734" y1="387.769" x2="328.26" y2="371.691" gradientUnits="userSpaceOnUse">
<stop stop-color="#75DAFF"/>
<stop offset="1" stop-color="#00BAFF"/>
</linearGradient>
<linearGradient id="paint15_linear" x1="338.228" y1="394.176" x2="338.785" y2="386.963" gradientUnits="userSpaceOnUse">
<stop stop-color="#75DAFF"/>
<stop offset="1" stop-color="#00BAFF"/>
</linearGradient>
<linearGradient id="paint16_linear" x1="361.091" y1="404.841" x2="362.007" y2="391.517" gradientUnits="userSpaceOnUse">
<stop stop-color="#75DAFF"/>
<stop offset="1" stop-color="#00BAFF"/>
</linearGradient>
<linearGradient id="paint17_linear" x1="329.911" y1="436.275" x2="338.251" y2="397.294" gradientUnits="userSpaceOnUse">
<stop stop-color="#75DAFF"/>
<stop offset="1" stop-color="#00BAFF"/>
</linearGradient>
<linearGradient id="paint18_linear" x1="338.665" y1="428.32" x2="373.865" y2="428.32" gradientUnits="userSpaceOnUse">
<stop stop-color="#71449A"/>
<stop offset="0.8668" stop-color="#A66CAC"/>
</linearGradient>
<linearGradient id="paint19_linear" x1="287.805" y1="415.516" x2="294.714" y2="373.766" gradientUnits="userSpaceOnUse">
<stop stop-color="#71449A"/>
<stop offset="0.8668" stop-color="#A66CAC"/>
</linearGradient>
<linearGradient id="paint20_linear" x1="375.124" y1="413.101" x2="371.11" y2="409.777" gradientUnits="userSpaceOnUse">
<stop stop-color="#75DAFF"/>
<stop offset="1" stop-color="#00BAFF"/>
</linearGradient>
<linearGradient id="paint21_linear" x1="313.472" y1="383.318" x2="313.955" y2="378.668" gradientUnits="userSpaceOnUse">
<stop stop-color="#75DAFF"/>
<stop offset="1" stop-color="#00BAFF"/>
</linearGradient>
<linearGradient id="paint22_linear" x1="332.473" y1="295.792" x2="408.384" y2="26.0039" gradientUnits="userSpaceOnUse">
<stop stop-color="#7DD2F6"/>
<stop offset="1" stop-color="#42B4E7"/>
</linearGradient>
<linearGradient id="paint23_linear" x1="311.334" y1="30.8398" x2="322.91" y2="30.8398" gradientUnits="userSpaceOnUse">
<stop stop-color="#7DD2F6"/>
<stop offset="1" stop-color="#42B4E7"/>
</linearGradient>
<linearGradient id="paint24_linear" x1="408.173" y1="305.267" x2="419.132" y2="305.267" gradientUnits="userSpaceOnUse">
<stop stop-color="#7DD2F6"/>
<stop offset="1" stop-color="#42B4E7"/>
</linearGradient>
<linearGradient id="paint25_linear" x1="357.068" y1="74.7614" x2="357.878" y2="68.7422" gradientUnits="userSpaceOnUse">
<stop stop-color="#75DAFF"/>
<stop offset="1" stop-color="#00BAFF"/>
</linearGradient>
<linearGradient id="paint26_linear" x1="350.558" y1="292.312" x2="372.758" y2="153.795" gradientUnits="userSpaceOnUse">
<stop stop-color="#75DAFF"/>
<stop offset="1" stop-color="#00BAFF"/>
</linearGradient>
<linearGradient id="paint27_linear" x1="355.643" y1="162.848" x2="367.187" y2="80.4757" gradientUnits="userSpaceOnUse">
<stop stop-color="#71449A"/>
<stop offset="0.8668" stop-color="#A66CAC"/>
</linearGradient>
<linearGradient id="paint28_linear" x1="387.884" y1="267.175" x2="396.938" y2="267.175" gradientUnits="userSpaceOnUse">
<stop stop-color="#71449A"/>
<stop offset="0.8668" stop-color="#A66CAC"/>
</linearGradient>
<linearGradient id="paint29_linear" x1="329.451" y1="231.392" x2="334.569" y2="231.392" gradientUnits="userSpaceOnUse">
<stop stop-color="#71449A"/>
<stop offset="0.8668" stop-color="#A66CAC"/>
</linearGradient>
<linearGradient id="paint30_linear" x1="326.014" y1="231.026" x2="331.147" y2="231.026" gradientUnits="userSpaceOnUse">
<stop stop-color="#71449A"/>
<stop offset="0.8668" stop-color="#A66CAC"/>
</linearGradient>
<linearGradient id="paint31_linear" x1="192.426" y1="267.526" x2="195.251" y2="219.759" gradientUnits="userSpaceOnUse">
<stop stop-color="#75DAFF"/>
<stop offset="1" stop-color="#00BAFF"/>
</linearGradient>
<linearGradient id="paint32_linear" x1="239.671" y1="232.15" x2="241.457" y2="202.219" gradientUnits="userSpaceOnUse">
<stop stop-color="#7DD2F6"/>
<stop offset="1" stop-color="#42B4E7"/>
</linearGradient>
<linearGradient id="paint33_linear" x1="496.538" y1="297.439" x2="511.691" y2="184.301" gradientUnits="userSpaceOnUse">
<stop stop-color="#75DAFF"/>
<stop offset="1" stop-color="#00BAFF"/>
</linearGradient>
<linearGradient id="paint34_linear" x1="456.12" y1="272.648" x2="465.353" y2="203.712" gradientUnits="userSpaceOnUse">
<stop stop-color="#75DAFF"/>
<stop offset="1" stop-color="#00BAFF"/>
</linearGradient>
<linearGradient id="paint35_linear" x1="482.666" y1="253.162" x2="485.058" y2="235.305" gradientUnits="userSpaceOnUse">
<stop stop-color="#71449A"/>
<stop offset="0.8668" stop-color="#A66CAC"/>
</linearGradient>
<linearGradient id="paint36_linear" x1="284.914" y1="135.408" x2="287.032" y2="119.592" gradientUnits="userSpaceOnUse">
<stop stop-color="#71449A"/>
<stop offset="0.8668" stop-color="#A66CAC"/>
</linearGradient>
<linearGradient id="paint37_linear" x1="274.812" y1="116.43" x2="276.328" y2="105.112" gradientUnits="userSpaceOnUse">
<stop stop-color="#71449A"/>
<stop offset="0.8668" stop-color="#A66CAC"/>
</linearGradient>
<linearGradient id="paint38_linear" x1="239.207" y1="286.636" x2="240.723" y2="275.318" gradientUnits="userSpaceOnUse">
<stop stop-color="#71449A"/>
<stop offset="0.8668" stop-color="#A66CAC"/>
</linearGradient>
<linearGradient id="paint39_linear" x1="373.96" y1="332.049" x2="375.476" y2="320.73" gradientUnits="userSpaceOnUse">
<stop stop-color="#71449A"/>
<stop offset="0.8668" stop-color="#A66CAC"/>
</linearGradient>
<linearGradient id="paint40_linear" x1="246.363" y1="307.918" x2="247.879" y2="296.6" gradientUnits="userSpaceOnUse">
<stop stop-color="#71449A"/>
<stop offset="0.8668" stop-color="#A66CAC"/>
</linearGradient>
<linearGradient id="paint41_linear" x1="312.795" y1="275.804" x2="314.311" y2="264.485" gradientUnits="userSpaceOnUse">
<stop stop-color="#71449A"/>
<stop offset="0.8668" stop-color="#A66CAC"/>
</linearGradient>
<linearGradient id="paint42_linear" x1="365.626" y1="308.823" x2="367.142" y2="297.504" gradientUnits="userSpaceOnUse">
<stop stop-color="#71449A"/>
<stop offset="0.8668" stop-color="#A66CAC"/>
</linearGradient>
<linearGradient id="paint43_linear" x1="325.323" y1="347.633" x2="326.839" y2="336.315" gradientUnits="userSpaceOnUse">
<stop stop-color="#71449A"/>
<stop offset="0.8668" stop-color="#A66CAC"/>
</linearGradient>
<linearGradient id="paint44_linear" x1="308.337" y1="278.066" x2="270.177" y2="278.066" gradientUnits="userSpaceOnUse">
<stop stop-color="#7DD2F6"/>
<stop offset="1" stop-color="#42B4E7"/>
</linearGradient>
<linearGradient id="paint45_linear" x1="325.535" y1="298.712" x2="305.165" y2="298.712" gradientUnits="userSpaceOnUse">
<stop stop-color="#7DD2F6"/>
<stop offset="1" stop-color="#42B4E7"/>
</linearGradient>
<linearGradient id="paint46_linear" x1="363.515" y1="301.392" x2="336.857" y2="301.392" gradientUnits="userSpaceOnUse">
<stop stop-color="#75DAFF"/>
<stop offset="1" stop-color="#00BAFF"/>
</linearGradient>
<linearGradient id="paint47_linear" x1="248.695" y1="279.561" x2="269.034" y2="279.561" gradientUnits="userSpaceOnUse">
<stop stop-color="#75DAFF"/>
<stop offset="1" stop-color="#00BAFF"/>
</linearGradient>
<linearGradient id="paint48_linear" x1="353.657" y1="341.222" x2="333.323" y2="341.222" gradientUnits="userSpaceOnUse">
<stop stop-color="#75DAFF"/>
<stop offset="1" stop-color="#00BAFF"/>
</linearGradient>
</defs>
</svg>
