<svg width="65" height="65" viewBox="0 0 65 65" fill="none" xmlns="http://www.w3.org/2000/svg">
<path d="M42.8002 36.6V31.6H38.2002V11.1H63.3002V31.8L49.6002 31.9L42.8002 36.6Z" stroke="#00B9F2" stroke-width="2" stroke-miterlimit="10" stroke-linecap="round" stroke-linejoin="round"/>
<path d="M50.7005 17.7C50.7005 17.7 49.2005 15.3 46.0005 15.9C42.8005 16.5 43.0005 20.8 44.0005 21.7C45.0005 22.6 50.8005 27.2 50.8005 27.2" stroke="#00B9F2" stroke-width="2" stroke-miterlimit="10" stroke-linecap="round" stroke-linejoin="round"/>
<path d="M51.0004 17.7C51.0004 17.7 52.5004 15.3 55.7004 15.9C58.9004 16.5 58.7004 20.8 57.7004 21.7C56.7004 22.5 50.9004 27.2 50.9004 27.2" stroke="#00B9F2" stroke-width="2" stroke-miterlimit="10" stroke-linecap="round" stroke-linejoin="round"/>
<path d="M21.2004 38.2V43.9H29.8004V57.7999H2.90039V43.7H14.5004L21.2004 38.2Z" stroke="#00B9F2" stroke-width="2" stroke-miterlimit="10" stroke-linecap="round" stroke-linejoin="round"/>
<path d="M21.4004 30.3L14.0004 24.9H2.90039V2.5H29.8004V24.7L21.4004 24.8V30.3Z" stroke="#00B9F2" stroke-width="2" stroke-miterlimit="10" stroke-linecap="round" stroke-linejoin="round"/>
<path d="M52.2004 48L44.8004 40.5C44.8004 40.5 41.5004 39.1 40.0004 40.5C38.6004 41.9 38.9004 44.4 40.0004 45.4C41.1004 46.4 45.6004 51.8 45.6004 51.8C45.6004 51.8 40.8004 57.7 45.6004 62.1" stroke="#00B9F2" stroke-width="2" stroke-miterlimit="10" stroke-linecap="round" stroke-linejoin="round"/>
<path d="M52.2006 31.9L56.3006 37.3C56.3006 37.3 58.6006 40.1 58.4006 46.5C58.2006 52.9 58.4006 63.1 58.4006 63.1H21.3006C21.3006 63.1 17.1006 62.9 17.1006 57.8" stroke="#00B9F2" stroke-width="2" stroke-miterlimit="10" stroke-linecap="round" stroke-linejoin="round"/>
<path d="M29.8008 54.8H44.1008" stroke="#00B9F2" stroke-width="2" stroke-miterlimit="10" stroke-linecap="round" stroke-linejoin="round"/>
<path d="M33 6.30005H44.5C44.5 6.30005 49.1 6.80005 49.4 11.1" stroke="#00B9F2" stroke-width="2" stroke-miterlimit="10" stroke-linecap="round" stroke-linejoin="round"/>
<path d="M17.1006 31.9V41.5" stroke="#00B9F2" stroke-width="2" stroke-miterlimit="10" stroke-linecap="round" stroke-linejoin="round"/>
<path d="M49 33.4V44" stroke="#00B9F2" stroke-width="2" stroke-miterlimit="10" stroke-linecap="round" stroke-linejoin="round"/>
<path d="M38.2 12.7H33" stroke="#00B9F2" stroke-width="2" stroke-miterlimit="10" stroke-linecap="round" stroke-linejoin="round"/>
<path d="M33.0004 59.5C33.3318 59.5 33.6004 59.2314 33.6004 58.9001C33.6004 58.5687 33.3318 58.3 33.0004 58.3C32.669 58.3 32.4004 58.5687 32.4004 58.9001C32.4004 59.2314 32.669 59.5 33.0004 59.5Z" stroke="#00B9F2" stroke-width="2" stroke-miterlimit="10" stroke-linecap="round" stroke-linejoin="round"/>
<path d="M12.9004 12.7H8.40039V21H12.9004V12.7Z" stroke="#00B9F2" stroke-width="2" stroke-miterlimit="10" stroke-linecap="round" stroke-linejoin="round"/>
<path d="M15 53.3H25.4" stroke="#00B9F2" stroke-width="2" stroke-miterlimit="10" stroke-linecap="round" stroke-linejoin="round"/>
<path d="M6.7002 48.5H17.1002" stroke="#00B9F2" stroke-width="2" stroke-miterlimit="10" stroke-linecap="round" stroke-linejoin="round"/>
<path d="M6.7002 53.3H10.6002" stroke="#00B9F2" stroke-width="2" stroke-miterlimit="10" stroke-linecap="round" stroke-linejoin="round"/>
<path d="M21 48.5H25" stroke="#00B9F2" stroke-width="2" stroke-miterlimit="10" stroke-linecap="round" stroke-linejoin="round"/>
<path d="M12.9004 20.9H23.0004V12.7H17.9004" stroke="#00B9F2" stroke-width="2" stroke-miterlimit="10" stroke-linecap="round" stroke-linejoin="round"/>
<path d="M12.9004 12.7L15.0004 10.4V6.3C15.0004 6.3 17.4004 5.3 19.3004 7.9V12.7" stroke="#00B9F2" stroke-width="2" stroke-miterlimit="10" stroke-linecap="round" stroke-linejoin="round"/>
</svg>
