<svg width="65" height="65" viewBox="0 0 65 65" fill="none" xmlns="http://www.w3.org/2000/svg">
<path d="M33 8.50005C33 8.50005 31.8 6.50005 29.1 7.00005C26.4 7.50005 26.6 11.1 27.4 11.7C28.2 12.4 33 16.2 33 16.2" stroke="#00B9F2" stroke-width="2" stroke-miterlimit="10" stroke-linecap="round" stroke-linejoin="round"/>
<path d="M33.2002 8.50005C33.2002 8.50005 34.4002 6.50005 37.1002 7.00005C39.8002 7.50005 39.6002 11.1 38.8002 11.7C38.0002 12.3 33.2002 16.2 33.2002 16.2" stroke="#00B9F2" stroke-width="2" stroke-miterlimit="10" stroke-linecap="round" stroke-linejoin="round"/>
<path d="M14.1994 17.5001C14.1994 17.5001 13.2994 16.0001 11.2994 16.4001C9.29937 16.8001 9.49937 19.4001 10.0994 19.9001C10.6994 20.4001 14.1994 23.3001 14.1994 23.3001" stroke="#00B9F2" stroke-width="2" stroke-miterlimit="10" stroke-linecap="round" stroke-linejoin="round"/>
<path d="M14.2998 17.5001C14.2998 17.5001 15.1998 16.0001 17.1998 16.4001C19.1998 16.8001 18.9998 19.4001 18.3998 19.9001C17.7998 20.4001 14.2998 23.3001 14.2998 23.3001" stroke="#00B9F2" stroke-width="2" stroke-miterlimit="10" stroke-linecap="round" stroke-linejoin="round"/>
<path d="M51.6994 17.5001C51.6994 17.5001 50.7994 16.0001 48.7994 16.4001C46.7994 16.8001 46.9994 19.4001 47.5994 19.9001C48.1994 20.4001 51.6994 23.3001 51.6994 23.3001" stroke="#00B9F2" stroke-width="2" stroke-miterlimit="10" stroke-linecap="round" stroke-linejoin="round"/>
<path d="M51.7998 17.5001C51.7998 17.5001 52.6998 16.0001 54.6998 16.4001C56.6998 16.8001 56.4998 19.4001 55.8998 19.9001C55.2998 20.4001 51.7998 23.3001 51.7998 23.3001" stroke="#00B9F2" stroke-width="2" stroke-miterlimit="10" stroke-linecap="round" stroke-linejoin="round"/>
<path d="M29.8998 2.30005H25.0998C23.4998 2.30005 22.2998 3.60005 22.2998 5.10005V16.3C22.2998 17.9 23.5998 19.1 25.0998 19.1H27.0998C28.6998 19.1 30.5998 20.0001 31.4998 21.2001C32.2998 22.3001 33.8998 22.3001 34.8998 21.2001C35.8998 20.0001 38.0998 19.1 39.5998 19.1H41.0998C42.6998 19.1 43.8998 17.8 43.8998 16.2V5.20005C43.8998 3.60005 42.5998 2.40005 41.0998 2.40005H33.1998" stroke="#00B9F2" stroke-width="2" stroke-miterlimit="10" stroke-linecap="round" stroke-linejoin="round"/>
<path d="M22.2994 12.8H8.69941C7.09941 12.8 5.89941 14.1 5.89941 15.6V22.7C5.89941 24.3 7.19941 25.5 8.69941 25.5H9.09941C10.6994 25.5 12.3994 26.2 13.0994 27C13.7994 27.8 14.8994 27.8 15.7994 27C16.6994 26.1 18.5994 25.4 20.0994 25.4C21.5994 25.4 22.7994 24.1 22.7994 22.5V19.3" stroke="#00B9F2" stroke-width="2" stroke-miterlimit="10" stroke-linecap="round" stroke-linejoin="round"/>
<path d="M44.0996 12.8H57.6996C59.2996 12.8 60.4996 14.1 60.4996 15.6V22.7C60.4996 24.3 59.1996 25.5 57.6996 25.5H57.2996C55.6996 25.5 53.9996 26.2 53.2996 27C52.6996 27.8 51.4996 27.8 50.5996 27C49.6996 26.1 47.7996 25.4 46.2996 25.4C44.7996 25.4 43.5996 24.1 43.5996 22.5V19.3" stroke="#00B9F2" stroke-width="2" stroke-miterlimit="10" stroke-linecap="round" stroke-linejoin="round"/>
<path d="M9.59953 34.6C9.59953 34.6 13.1995 32.1 15.8995 34.6C18.5995 37.1 13.5995 40.6 12.6995 40.6C11.8995 40.6 7.49953 43.3 7.49953 44.8C7.49953 44.8 5.69953 41.3 7.09953 37.1" stroke="#00B9F2" stroke-width="2" stroke-miterlimit="10" stroke-linecap="round" stroke-linejoin="round"/>
<path d="M16.5996 35.5001C16.5996 35.5001 24.3996 34.5001 20.7996 44.8001C20.7996 44.8001 19.3996 42.5001 17.9996 42.2001C16.5996 41.9001 15.0996 39.1001 15.0996 39.1001" stroke="#00B9F2" stroke-width="2" stroke-miterlimit="10" stroke-linecap="round" stroke-linejoin="round"/>
<path d="M8.2998 43.5C8.2998 43.5 9.0998 49.5 14.1998 50.8C14.1998 50.8 18.9998 49.2 20.2998 44" stroke="#00B9F2" stroke-width="2" stroke-miterlimit="10" stroke-linecap="round" stroke-linejoin="round"/>
<path d="M11.4998 49.5V53.2L6.69984 55.1C6.69984 55.1 4.09984 55.3 4.49984 62.2H60.7998V56.2" stroke="#00B9F2" stroke-width="2" stroke-miterlimit="10" stroke-linecap="round" stroke-linejoin="round"/>
<path d="M16.5996 49.8L16.6996 53.4001L21.1996 54.9001" stroke="#00B9F2" stroke-width="2" stroke-miterlimit="10" stroke-linecap="round" stroke-linejoin="round"/>
<path d="M11.5 53.2001C11.5 53.2001 14.2 55.5001 16.7 53.4001" stroke="#00B9F2" stroke-width="2" stroke-miterlimit="10" stroke-linecap="round" stroke-linejoin="round"/>
<path d="M6.7002 55.1001L11.5002 61.6001" stroke="#00B9F2" stroke-width="2" stroke-miterlimit="10" stroke-linecap="round" stroke-linejoin="round"/>
<path d="M20.6994 58L17.3994 61.6" stroke="#00B9F2" stroke-width="2" stroke-miterlimit="10" stroke-linecap="round" stroke-linejoin="round"/>
<path d="M34.1003 32.4C34.1003 32.4 33.0003 36.9 29.3003 35.5C29.3003 35.5 28.8003 37.5 26.9003 37.3C25.0003 37.1 25.6003 39.2 25.6003 39.2C25.6003 39.2 22.0003 37.3 23.9003 33.6C23.9003 33.6 21.8003 27.8 26.5003 27.8C26.5003 27.8 28.1003 23.5 31.1003 26.6C31.1003 26.6 35.2003 23.7 36.3003 28.6C36.3003 28.6 40.4003 25.5 40.1003 31C40.1003 31 44.5003 33 40.9003 37.8C40.9003 37.8 40.0003 36 39.0003 36C38.0003 36 37.8003 33.5 37.8003 33.5C37.8003 33.5 34.4003 35.1 34.1003 32.4Z" stroke="#00B9F2" stroke-width="2" stroke-miterlimit="10" stroke-linecap="round" stroke-linejoin="round"/>
<path d="M26.9002 41.6001C26.9002 41.6001 25.7002 39.8001 25.7002 37.7001" stroke="#00B9F2" stroke-width="2" stroke-miterlimit="10" stroke-linecap="round" stroke-linejoin="round"/>
<path d="M27.7002 44C27.7002 44 29.6002 47.8 33.0002 47.6C36.4002 47.4 40.4002 43.6 39.8002 36.4" stroke="#00B9F2" stroke-width="2" stroke-miterlimit="10" stroke-linecap="round" stroke-linejoin="round"/>
<path d="M29.7001 46.5V50.9L23.3001 53.8C23.3001 53.8 20.4001 54.3 21.2001 61.4" stroke="#00B9F2" stroke-width="2" stroke-miterlimit="10" stroke-linecap="round" stroke-linejoin="round"/>
<path d="M36.2998 46.5V50.9L42.6998 53.8C42.6998 53.8 45.5998 54.3 44.7998 61.4" stroke="#00B9F2" stroke-width="2" stroke-miterlimit="10" stroke-linecap="round" stroke-linejoin="round"/>
<path d="M29.7002 50.8C29.7002 50.8 33.1002 54.4 36.3002 50.8" stroke="#00B9F2" stroke-width="2" stroke-miterlimit="10" stroke-linecap="round" stroke-linejoin="round"/>
<path d="M26.8994 52.1001C26.8994 52.1001 30.4994 57.7001 30.4994 61.6001" stroke="#00B9F2" stroke-width="2" stroke-miterlimit="10" stroke-linecap="round" stroke-linejoin="round"/>
<path d="M39.2996 52.2001C39.2996 52.2001 35.4996 57.4001 35.8996 61.3001" stroke="#00B9F2" stroke-width="2" stroke-miterlimit="10" stroke-linecap="round" stroke-linejoin="round"/>
<path d="M54.1 37.7001C54.1 37.7001 53.6 43.3001 46 43.5001C46 43.5001 46 49.7001 51.8 52.1001C51.8 52.1001 62.9 45.3001 54.1 37.7001Z" stroke="#00B9F2" stroke-width="2" stroke-miterlimit="10" stroke-linecap="round" stroke-linejoin="round"/>
<path d="M44.9002 37.2001C44.9002 37.2001 42.7002 38.3001 42.7002 42.1001C42.7002 45.9001 42.7002 53.8001 42.7002 53.8001" stroke="#00B9F2" stroke-width="2" stroke-miterlimit="10" stroke-linecap="round" stroke-linejoin="round"/>
<path d="M49.4001 50.6C49.4001 50.6 48.9001 60 51.8001 61.3C51.8001 61.3 55.6001 60.1 54.5001 49.8" stroke="#00B9F2" stroke-width="2" stroke-miterlimit="10" stroke-linecap="round" stroke-linejoin="round"/>
<path d="M49.3994 53.2001L44.8994 55.1001" stroke="#00B9F2" stroke-width="2" stroke-miterlimit="10" stroke-linecap="round" stroke-linejoin="round"/>
<path d="M54.8002 53.7L60.9002 56.1C60.9002 56.1 60.7002 51.1 60.9002 45.4C61.1002 39.7 58.6002 36.4 58.6002 36.4C52.0002 31.5 47.2002 35 47.2002 35" stroke="#00B9F2" stroke-width="2" stroke-miterlimit="10" stroke-linecap="round" stroke-linejoin="round"/>
</svg>
