<svg width="668" height="469" viewBox="0 0 668 469" fill="none" xmlns="http://www.w3.org/2000/svg">
<g filter="url(#filter0_d)">
<path d="M192.3 149.06C192.3 148.517 192.342 148.057 192.426 147.682C192.509 147.306 192.593 147.013 192.76 146.721C192.927 146.429 193.135 146.137 193.386 145.844C193.636 145.552 193.97 145.218 194.388 144.842C194.68 144.508 195.014 144.216 195.306 143.882C195.599 143.589 195.891 143.255 196.141 142.921C196.392 142.587 196.601 142.211 196.768 141.835C196.935 141.459 197.018 141.042 197.018 140.541C197.018 139.58 196.726 138.787 196.183 138.16C195.64 137.534 194.847 137.242 193.845 137.242C192.843 137.242 192.008 137.534 191.382 138.16C190.756 138.745 190.338 139.539 190.213 140.541L187.499 140.248C187.624 139.413 187.875 138.703 188.251 138.035C188.626 137.409 189.086 136.866 189.628 136.407C190.171 135.989 190.839 135.655 191.549 135.404C192.259 135.154 193.052 135.07 193.845 135.07C194.68 135.07 195.432 135.196 196.141 135.404C196.851 135.655 197.477 135.989 198.02 136.407C198.563 136.866 198.98 137.409 199.273 138.077C199.565 138.745 199.732 139.497 199.732 140.374C199.732 141.042 199.648 141.627 199.44 142.169C199.231 142.712 198.98 143.172 198.688 143.631C198.396 144.09 198.02 144.508 197.603 144.926C197.185 145.343 196.768 145.761 196.308 146.178C195.974 146.471 195.724 146.721 195.557 146.972C195.348 147.181 195.223 147.431 195.139 147.682C195.056 147.932 194.972 148.183 194.931 148.475C194.889 148.767 194.889 149.101 194.889 149.561V150.939H192.384V149.06H192.3ZM193.553 153.486C194.054 153.486 194.471 153.653 194.847 154.029C195.181 154.363 195.39 154.822 195.39 155.324C195.39 155.825 195.223 156.242 194.847 156.618C194.471 156.952 194.054 157.161 193.595 157.161C193.135 157.161 192.718 156.994 192.342 156.618C191.966 156.284 191.799 155.825 191.799 155.324C191.799 154.822 191.966 154.405 192.342 154.029C192.634 153.653 193.052 153.486 193.553 153.486Z" fill="#662D91" stroke="#662D91" stroke-width="3" stroke-miterlimit="10"/>
<path d="M489.644 159.709C489.644 159.166 489.686 158.707 489.769 158.331C489.853 157.955 489.936 157.663 490.103 157.371C490.27 157.078 490.479 156.786 490.729 156.494C490.98 156.201 491.314 155.867 491.731 155.491C492.024 155.157 492.358 154.865 492.65 154.531C492.942 154.239 493.234 153.905 493.485 153.57C493.735 153.236 493.944 152.861 494.111 152.485C494.278 152.109 494.362 151.691 494.362 151.19C494.362 150.23 494.069 149.436 493.527 148.81C492.984 148.184 492.191 147.891 491.189 147.891C490.187 147.891 489.352 148.184 488.725 148.81C488.099 149.395 487.682 150.188 487.557 151.19L484.843 150.898C484.968 150.063 485.218 149.353 485.594 148.685C485.97 148.058 486.429 147.515 486.972 147.056C487.515 146.638 488.183 146.304 488.892 146.054C489.602 145.803 490.395 145.72 491.189 145.72C492.024 145.72 492.775 145.845 493.485 146.054C494.195 146.304 494.821 146.638 495.364 147.056C495.906 147.515 496.324 148.058 496.616 148.726C496.908 149.395 497.075 150.146 497.075 151.023C497.075 151.691 496.992 152.276 496.783 152.819C496.574 153.362 496.324 153.821 496.032 154.28C495.739 154.74 495.364 155.157 494.946 155.575C494.529 155.992 494.111 156.41 493.652 156.828C493.318 157.12 493.067 157.371 492.9 157.621C492.692 157.83 492.566 158.08 492.483 158.331C492.399 158.582 492.316 158.832 492.274 159.124C492.232 159.417 492.232 159.751 492.232 160.21V161.588H489.727V159.709H489.644ZM490.896 164.094C491.397 164.094 491.815 164.261 492.191 164.637C492.525 164.971 492.733 165.43 492.733 165.931C492.733 166.432 492.566 166.85 492.191 167.226C491.815 167.56 491.397 167.769 490.938 167.769C490.479 167.769 490.061 167.602 489.686 167.226C489.31 166.892 489.143 166.432 489.143 165.931C489.143 165.43 489.31 165.012 489.686 164.637C489.978 164.303 490.395 164.094 490.896 164.094Z" fill="#662D91" stroke="#662D91" stroke-width="3" stroke-miterlimit="10"/>
<path d="M337.59 42.6158C337.59 41.8224 337.632 41.196 337.757 40.6949C337.841 40.1938 338.008 39.7344 338.217 39.3586C338.425 38.941 338.718 38.5651 339.093 38.1893C339.469 37.8135 339.928 37.3124 340.471 36.7695C340.889 36.3101 341.306 35.8925 341.724 35.475C342.141 35.0574 342.559 34.598 342.893 34.1387C343.227 33.6793 343.519 33.1782 343.769 32.6353C343.978 32.0925 344.103 31.5078 344.103 30.8397C344.103 29.5034 343.728 28.4176 342.934 27.5407C342.141 26.7055 341.056 26.2879 339.678 26.2879C338.258 26.2879 337.131 26.7055 336.254 27.5407C335.378 28.3759 334.835 29.4616 334.626 30.8397L330.869 30.4221C331.077 29.2946 331.411 28.2506 331.912 27.3737C332.413 26.4967 333.081 25.745 333.833 25.1187C334.626 24.534 335.503 24.0747 336.505 23.7406C337.507 23.4065 338.592 23.2812 339.72 23.2812C340.847 23.2812 341.932 23.4483 342.893 23.7406C343.895 24.0747 344.73 24.534 345.481 25.1604C346.233 25.7868 346.817 26.5802 347.235 27.4989C347.652 28.4176 347.861 29.5034 347.861 30.7144C347.861 31.6331 347.736 32.4683 347.443 33.1782C347.193 33.9299 346.817 34.598 346.4 35.2244C345.982 35.8508 345.481 36.4354 344.855 37.02C344.27 37.6047 343.686 38.1893 343.06 38.7322C342.6 39.1498 342.266 39.5256 342.016 39.8179C341.765 40.1102 341.557 40.4443 341.39 40.7784C341.264 41.1125 341.181 41.4883 341.139 41.8641C341.097 42.2817 341.056 42.7828 341.056 43.3675V45.2884H337.549V42.6158H337.59ZM339.344 48.7544C340.054 48.7544 340.638 49.005 341.097 49.5061C341.598 50.0072 341.849 50.5918 341.849 51.26C341.849 51.9699 341.598 52.5545 341.097 53.0138C340.596 53.515 340.012 53.7655 339.344 53.7655C338.718 53.7655 338.133 53.515 337.632 53.0138C337.131 52.5127 336.839 51.9281 336.839 51.26C336.839 50.55 337.089 49.9654 337.59 49.5061C338.05 49.005 338.676 48.7544 339.344 48.7544Z" fill="#662D91" stroke="#662D91" stroke-width="5" stroke-miterlimit="10"/>
<path d="M248.746 256.675C248.746 258.972 246.868 260.851 244.571 260.851H107.506C105.21 260.851 103.331 258.972 103.331 256.675V171.027C103.331 168.73 105.21 166.851 107.506 166.851H244.571C246.868 166.851 248.746 168.73 248.746 171.027V256.675Z" fill="#E1F4FD"/>
<path d="M248.746 171.82C248.746 174.117 246.868 175.996 244.571 175.996H107.506C105.21 175.996 103.331 174.117 103.331 171.82V170.86C103.331 168.563 105.21 166.684 107.506 166.684H244.571C246.868 166.684 248.746 168.563 248.746 170.86V171.82Z" fill="#6D6E71"/>
<path d="M241.315 205.561C241.315 207.858 239.436 209.737 237.14 209.737H150.091C147.795 209.737 145.916 207.858 145.916 205.561V188.44C145.916 186.143 147.795 184.264 150.091 184.264H237.14C239.436 184.264 241.315 186.143 241.315 188.44V205.561Z" fill="url(#paint0_linear)"/>
<path d="M125.918 213.579C134.45 213.579 141.366 206.661 141.366 198.128C141.366 189.594 134.45 182.677 125.918 182.677C117.387 182.677 110.471 189.594 110.471 198.128C110.471 206.661 117.387 213.579 125.918 213.579Z" fill="url(#paint1_linear)"/>
<path d="M562.999 269.036C562.999 271.332 561.12 273.212 558.824 273.212H424.472C422.176 273.212 420.297 271.332 420.297 269.036V185.225C420.297 182.928 422.176 181.049 424.472 181.049H558.824C561.12 181.049 562.999 182.928 562.999 185.225V269.036Z" fill="#E1F4FD"/>
<path d="M562.999 185.767C562.999 188.064 561.12 189.943 558.824 189.943H424.472C422.176 189.943 420.297 188.064 420.297 185.767V184.807C420.297 182.51 422.176 180.631 424.472 180.631H558.824C561.12 180.631 562.999 182.51 562.999 184.807V185.767Z" fill="#6D6E71"/>
<path d="M508.724 262.772C508.724 265.069 506.845 266.948 504.549 266.948H472.527C470.23 266.948 468.352 265.069 468.352 262.772V230.951C468.352 228.655 470.23 226.775 472.527 226.775H504.549C506.845 226.775 508.724 228.655 508.724 230.951V262.772Z" fill="url(#paint2_linear)"/>
<path d="M268.244 134.946C268.244 137.243 266.365 139.122 264.069 139.122H212.925C210.629 139.122 208.75 137.243 208.75 134.946V113.691C208.75 111.394 210.629 109.515 212.925 109.515H264.069C266.365 109.515 268.244 111.394 268.244 113.691V134.946Z" fill="url(#paint3_linear)"/>
<path d="M461.755 162.132C461.755 164.428 459.876 166.308 457.58 166.308H427.938C425.641 166.308 423.763 164.428 423.763 162.132V114.109C423.763 111.812 425.641 109.933 427.938 109.933H457.58C459.876 109.933 461.755 111.812 461.755 114.109V162.132Z" fill="#E6E7E8"/>
<path d="M554.983 262.772C554.983 265.069 553.104 266.948 550.808 266.948H518.785C516.489 266.948 514.61 265.069 514.61 262.772V230.951C514.61 228.655 516.489 226.775 518.785 226.775H550.808C553.104 226.775 554.983 228.655 554.983 230.951V262.772Z" fill="url(#paint4_linear)"/>
<path d="M443.093 225.898C451.463 225.898 458.248 219.112 458.248 210.74C458.248 202.368 451.463 195.581 443.093 195.581C434.723 195.581 427.938 202.368 427.938 210.74C427.938 219.112 434.723 225.898 443.093 225.898Z" fill="url(#paint5_linear)"/>
<path d="M175.099 311.253C182.086 311.253 187.75 305.588 187.75 298.6C187.75 291.612 182.086 285.947 175.099 285.947C168.113 285.947 162.449 291.612 162.449 298.6C162.449 305.588 168.113 311.253 175.099 311.253Z" fill="url(#paint6_linear)"/>
<path d="M160.111 287.702C163.962 287.702 167.083 284.579 167.083 280.728C167.083 276.876 163.962 273.754 160.111 273.754C156.26 273.754 153.139 276.876 153.139 280.728C153.139 284.579 156.26 287.702 160.111 287.702Z" fill="url(#paint7_linear)"/>
<path d="M177.02 272.877C179.21 272.877 180.986 271.101 180.986 268.91C180.986 266.719 179.21 264.942 177.02 264.942C174.829 264.942 173.054 266.719 173.054 268.91C173.054 271.101 174.829 272.877 177.02 272.877Z" fill="url(#paint8_linear)"/>
<path d="M95.1481 247.989C96.8544 247.989 98.2376 246.605 98.2376 244.899C98.2376 243.192 96.8544 241.809 95.1481 241.809C93.4418 241.809 92.0586 243.192 92.0586 244.899C92.0586 246.605 93.4418 247.989 95.1481 247.989Z" fill="url(#paint9_linear)"/>
<path d="M568.76 263.858C570.052 263.858 571.098 262.811 571.098 261.519C571.098 260.228 570.052 259.181 568.76 259.181C567.469 259.181 566.422 260.228 566.422 261.519C566.422 262.811 567.469 263.858 568.76 263.858Z" fill="url(#paint10_linear)"/>
<path d="M254.132 94.6069C261.119 94.6069 266.782 88.9419 266.782 81.9538C266.782 74.9657 261.119 69.3008 254.132 69.3008C247.146 69.3008 241.482 74.9657 241.482 81.9538C241.482 88.9419 247.146 94.6069 254.132 94.6069Z" fill="#E6E7E8"/>
<path d="M234.343 96.9036C237.663 96.9036 240.355 94.2114 240.355 90.8903C240.355 87.5692 237.663 84.877 234.343 84.877C231.023 84.877 228.331 87.5692 228.331 90.8903C228.331 94.2114 231.023 96.9036 234.343 96.9036Z" fill="#E6E7E8"/>
<path d="M422.385 106.258C425.705 106.258 428.397 103.566 428.397 100.245C428.397 96.9237 425.705 94.2314 422.385 94.2314C419.065 94.2314 416.373 96.9237 416.373 100.245C416.373 103.566 419.065 106.258 422.385 106.258Z" fill="#E6E7E8"/>
<path d="M555.442 302.861C558.763 302.861 561.454 300.168 561.454 296.847C561.454 293.526 558.763 290.834 555.442 290.834C552.122 290.834 549.43 293.526 549.43 296.847C549.43 300.168 552.122 302.861 555.442 302.861Z" fill="#E6E7E8"/>
<path d="M150.05 302.151C153.37 302.151 156.062 299.458 156.062 296.137C156.062 292.816 153.37 290.124 150.05 290.124C146.729 290.124 144.038 292.816 144.038 296.137C144.038 299.458 146.729 302.151 150.05 302.151Z" fill="#E6E7E8"/>
<path d="M245.949 103.961C247.586 103.961 248.913 102.634 248.913 100.996C248.913 99.3587 247.586 98.0312 245.949 98.0312C244.312 98.0312 242.985 99.3587 242.985 100.996C242.985 102.634 244.312 103.961 245.949 103.961Z" fill="#E6E7E8"/>
<path d="M264.194 148.143C265.831 148.143 267.158 146.815 267.158 145.178C267.158 143.54 265.831 142.213 264.194 142.213C262.557 142.213 261.229 143.54 261.229 145.178C261.229 146.815 262.557 148.143 264.194 148.143Z" fill="#E6E7E8"/>
<path d="M434.952 104.879C436.589 104.879 437.916 103.552 437.916 101.914C437.916 100.277 436.589 98.9492 434.952 98.9492C433.314 98.9492 431.987 100.277 431.987 101.914C431.987 103.552 433.314 104.879 434.952 104.879Z" fill="#E6E7E8"/>
<path d="M491.23 282.19C492.867 282.19 494.195 280.862 494.195 279.225C494.195 277.587 492.867 276.26 491.23 276.26C489.593 276.26 488.266 277.587 488.266 279.225C488.266 280.862 489.593 282.19 491.23 282.19Z" fill="#E6E7E8"/>
<path d="M414.703 165.347C416.34 165.347 417.667 164.019 417.667 162.382C417.667 160.744 416.34 159.417 414.703 159.417C413.065 159.417 411.738 160.744 411.738 162.382C411.738 164.019 413.065 165.347 414.703 165.347Z" fill="#E6E7E8"/>
<path d="M156.896 270.371C158.533 270.371 159.861 269.044 159.861 267.406C159.861 265.769 158.533 264.441 156.896 264.441C155.259 264.441 153.932 265.769 153.932 267.406C153.932 269.044 155.259 270.371 156.896 270.371Z" fill="#E6E7E8"/>
<path d="M263.359 68.257C264.996 68.257 266.323 66.9295 266.323 65.2921C266.323 63.6546 264.996 62.3271 263.359 62.3271C261.722 62.3271 260.395 63.6546 260.395 65.2921C260.395 66.9295 261.722 68.257 263.359 68.257Z" fill="#E6E7E8"/>
<path d="M544.67 171.277C549.144 171.277 552.77 167.65 552.77 163.176C552.77 158.701 549.144 155.074 544.67 155.074C540.197 155.074 536.571 158.701 536.571 163.176C536.571 167.65 540.197 171.277 544.67 171.277Z" fill="url(#paint11_linear)"/>
<path d="M527.01 164.554C529.939 164.554 532.312 162.18 532.312 159.251C532.312 156.322 529.939 153.947 527.01 153.947C524.082 153.947 521.708 156.322 521.708 159.251C521.708 162.18 524.082 164.554 527.01 164.554Z" fill="url(#paint12_linear)"/>
<path d="M262.691 107.636C265.619 107.636 267.993 105.262 267.993 102.333C267.993 99.4037 265.619 97.0293 262.691 97.0293C259.763 97.0293 257.389 99.4037 257.389 102.333C257.389 105.262 259.763 107.636 262.691 107.636Z" fill="url(#paint13_linear)"/>
<path d="M536.07 153.613C538.353 153.613 540.203 151.762 540.203 149.479C540.203 147.196 538.353 145.345 536.07 145.345C533.788 145.345 531.937 147.196 531.937 149.479C531.937 151.762 533.788 153.613 536.07 153.613Z" fill="url(#paint14_linear)"/>
<path d="M443.009 138.037C449.996 138.037 455.659 132.372 455.659 125.384C455.659 118.395 449.996 112.73 443.009 112.73C436.023 112.73 430.359 118.395 430.359 125.384C430.359 132.372 436.023 138.037 443.009 138.037Z" fill="white"/>
<path d="M487.765 255.213C494.752 255.213 500.416 249.548 500.416 242.56C500.416 235.572 494.752 229.907 487.765 229.907C480.779 229.907 475.115 235.572 475.115 242.56C475.115 249.548 480.779 255.213 487.765 255.213Z" fill="white"/>
<path d="M533.857 254.753C540.844 254.753 546.508 249.088 546.508 242.1C546.508 235.112 540.844 229.447 533.857 229.447C526.871 229.447 521.207 235.112 521.207 242.1C521.207 249.088 526.871 254.753 533.857 254.753Z" fill="white"/>
<path d="M413.701 150.523C413.701 152.82 411.822 154.699 409.526 154.699H275.174C272.878 154.699 270.999 152.82 270.999 150.523V65.8351C270.999 63.5383 272.878 61.6592 275.174 61.6592H409.526C411.822 61.6592 413.701 63.5383 413.701 65.8351V150.523Z" fill="#E1F4FD"/>
<path d="M413.701 67.2549C413.701 69.5517 411.822 71.4308 409.526 71.4308H275.174C272.878 71.4308 270.999 69.5517 270.999 67.2549V65.8351C270.999 63.5383 272.878 61.6592 275.174 61.6592H409.526C411.822 61.6592 413.701 63.5383 413.701 65.8351V67.2549Z" fill="#6D6E71"/>
<path d="M405.351 141.962C405.351 144.259 403.472 146.138 401.176 146.138H319.847C317.551 146.138 315.672 144.259 315.672 141.962V111.687C315.672 109.39 317.551 107.511 319.847 107.511H401.176C403.472 107.511 405.351 109.39 405.351 111.687V141.962Z" fill="url(#paint15_linear)"/>
<path d="M546.465 299.353C546.465 301.65 544.587 303.529 542.29 303.529H500.332C498.035 303.529 496.157 301.65 496.157 299.353V285.196C496.157 282.9 498.035 281.021 500.332 281.021H542.29C544.587 281.021 546.465 282.9 546.465 285.196V299.353Z" fill="url(#paint16_linear)"/>
<path d="M149.465 284.904C149.465 287.2 147.586 289.08 145.29 289.08H103.331C101.035 289.08 99.1562 287.2 99.1562 284.904V270.747C99.1562 268.45 101.035 266.571 103.331 266.571H145.29C147.586 266.571 149.465 268.45 149.465 270.747V284.904Z" fill="#E6E7E8"/>
<path d="M147.294 273.086C147.294 275.133 145.415 276.803 143.119 276.803H105.21C102.914 276.803 101.035 275.133 101.035 273.086C101.035 271.04 102.914 269.37 105.21 269.37H143.119C145.415 269.328 147.294 271.04 147.294 273.086Z" fill="white"/>
<path d="M554.523 201.845C554.523 202.805 553.605 203.557 552.436 203.557H464.26C463.091 203.557 462.172 202.805 462.172 201.845C462.172 200.884 463.091 200.133 464.26 200.133H552.436C553.563 200.133 554.523 200.884 554.523 201.845Z" fill="#C7C8CA"/>
<path d="M554.523 210.655C554.523 211.616 553.605 212.368 552.436 212.368H464.26C463.091 212.368 462.172 211.616 462.172 210.655C462.172 209.695 463.091 208.943 464.26 208.943H552.436C553.563 208.943 554.523 209.695 554.523 210.655Z" fill="#C7C8CA"/>
<path d="M554.816 218.799C554.816 219.76 553.897 220.511 552.728 220.511H464.552C463.383 220.511 462.465 219.76 462.465 218.799C462.465 217.839 463.383 217.087 464.552 217.087H552.728C553.856 217.087 554.816 217.839 554.816 218.799Z" fill="#C7C8CA"/>
<path d="M408.524 90.8068C408.524 91.7673 407.605 92.519 406.436 92.519H318.218C317.049 92.519 316.131 91.7673 316.131 90.8068C316.131 89.8464 317.049 89.0947 318.218 89.0947H406.394C407.563 89.0947 408.524 89.8464 408.524 90.8068Z" fill="#C7C8CA"/>
<path d="M408.231 82.8723C408.231 83.8327 407.313 84.5844 406.144 84.5844H317.968C316.799 84.5844 315.88 83.8327 315.88 82.8723C315.88 81.9118 316.799 81.1602 317.968 81.1602H406.144C407.271 81.1602 408.231 81.9536 408.231 82.8723Z" fill="#C7C8CA"/>
<path d="M241.399 221.764C241.399 222.724 240.48 223.476 239.311 223.476H109.51C108.341 223.476 107.423 222.724 107.423 221.764C107.423 220.803 108.341 220.052 109.51 220.052H239.269C240.438 220.052 241.399 220.803 241.399 221.764Z" fill="#C7C8CA"/>
<path d="M241.399 231.201C241.399 232.162 240.48 232.913 239.311 232.913H109.51C108.341 232.913 107.423 232.162 107.423 231.201C107.423 230.241 108.341 229.489 109.51 229.489H239.269C240.438 229.489 241.399 230.283 241.399 231.201Z" fill="#C7C8CA"/>
<path d="M241.399 240.263C241.399 241.223 240.48 241.975 239.311 241.975H109.51C108.341 241.975 107.423 241.223 107.423 240.263C107.423 239.302 108.341 238.551 109.51 238.551H239.269C240.438 238.551 241.399 239.344 241.399 240.263Z" fill="#C7C8CA"/>
<path d="M241.399 249.993C241.399 250.954 240.48 251.706 239.311 251.706H109.51C108.341 251.706 107.423 250.954 107.423 249.993C107.423 249.033 108.341 248.281 109.51 248.281H239.269C240.438 248.281 241.399 249.033 241.399 249.993Z" fill="#C7C8CA"/>
<path d="M408.315 98.2815C408.315 99.2419 407.397 99.9936 406.228 99.9936H318.01C316.841 99.9936 315.922 99.2419 315.922 98.2815C315.922 97.321 316.841 96.5693 318.01 96.5693H406.228C407.355 96.5693 408.315 97.321 408.315 98.2815Z" fill="#C7C8CA"/>
<path d="M457.246 142.087C457.246 142.463 456.87 142.797 456.411 142.797H429.691C429.232 142.797 428.856 142.463 428.856 142.087C428.856 141.711 429.232 141.377 429.691 141.377H456.411C456.87 141.377 457.246 141.669 457.246 142.087Z" fill="white"/>
<path d="M457.079 145.929C457.079 146.304 456.703 146.639 456.244 146.639H429.524C429.065 146.639 428.689 146.304 428.689 145.929C428.689 145.553 429.065 145.219 429.524 145.219H456.244C456.703 145.219 457.079 145.511 457.079 145.929Z" fill="white"/>
<path d="M457.246 149.896C457.246 150.272 456.87 150.606 456.411 150.606H429.691C429.232 150.606 428.856 150.272 428.856 149.896C428.856 149.52 429.232 149.186 429.691 149.186H456.411C456.87 149.144 457.246 149.478 457.246 149.896Z" fill="white"/>
<path d="M457.246 154.114C457.246 154.49 456.87 154.824 456.411 154.824H429.691C429.232 154.824 428.856 154.49 428.856 154.114C428.856 153.738 429.232 153.404 429.691 153.404H456.411C456.87 153.404 457.246 153.697 457.246 154.114Z" fill="white"/>
<path d="M457.246 158.499C457.246 158.875 456.87 159.209 456.411 159.209H429.691C429.232 159.209 428.856 158.875 428.856 158.499C428.856 158.123 429.232 157.789 429.691 157.789H456.411C456.87 157.789 457.246 158.123 457.246 158.499Z" fill="white"/>
<path d="M548.762 259.431C548.762 259.849 548.386 260.225 547.927 260.225H521.207C520.747 260.225 520.372 259.89 520.372 259.431C520.372 259.014 520.747 258.638 521.207 258.638H547.927C548.386 258.638 548.762 259.014 548.762 259.431Z" fill="white"/>
<path d="M502.252 259.472C502.252 259.932 501.877 260.266 501.417 260.266H474.697C474.238 260.266 473.862 259.89 473.862 259.472C473.862 259.013 474.238 258.679 474.697 258.679H501.417C501.877 258.637 502.252 259.013 502.252 259.472Z" fill="white"/>
<path d="M261.606 116.781C261.606 117.157 261.23 117.45 260.771 117.45H217.434C216.975 117.45 216.599 117.157 216.599 116.781C216.599 116.406 216.975 116.113 217.434 116.113H260.771C261.23 116.113 261.606 116.406 261.606 116.781Z" fill="white"/>
<path d="M261.564 120.707C261.564 121.083 261.188 121.375 260.729 121.375H217.434C216.975 121.375 216.599 121.083 216.599 120.707C216.599 120.331 216.975 120.039 217.434 120.039H260.771C261.188 119.997 261.564 120.331 261.564 120.707Z" fill="white"/>
<path d="M262.315 127.013C262.315 127.388 261.939 127.681 261.48 127.681H218.144C217.684 127.681 217.309 127.388 217.309 127.013C217.309 126.637 217.684 126.344 218.144 126.344H261.48C261.939 126.303 262.315 126.637 262.315 127.013Z" fill="white"/>
<path d="M262.315 130.561C262.315 130.937 261.939 131.229 261.48 131.229H218.144C217.684 131.229 217.309 130.937 217.309 130.561C217.309 130.186 217.684 129.893 218.144 129.893H261.48C261.939 129.851 262.315 130.186 262.315 130.561Z" fill="white"/>
<path d="M543.919 285.238C543.919 285.614 543.543 285.906 543.084 285.906H499.831C499.372 285.906 498.996 285.614 498.996 285.238C498.996 284.862 499.372 284.57 499.831 284.57H543.084C543.543 284.528 543.919 284.862 543.919 285.238Z" fill="white"/>
<path d="M543.794 288.996C543.794 289.372 543.418 289.664 542.959 289.664H499.706C499.246 289.664 498.871 289.372 498.871 288.996C498.871 288.62 499.246 288.328 499.706 288.328H542.959C543.418 288.286 543.794 288.62 543.794 288.996Z" fill="white"/>
<path d="M544.587 295.386C544.587 295.762 544.211 296.054 543.752 296.054H500.499C500.04 296.054 499.664 295.762 499.664 295.386C499.664 295.01 500.04 294.718 500.499 294.718H543.752C544.211 294.718 544.587 295.052 544.587 295.386Z" fill="white"/>
<path d="M544.587 298.935C544.587 299.311 544.211 299.603 543.752 299.603H500.499C500.04 299.603 499.664 299.311 499.664 298.935C499.664 298.559 500.04 298.267 500.499 298.267H543.752C544.211 298.267 544.587 298.559 544.587 298.935Z" fill="white"/>
<path d="M234.385 190.111C234.385 190.528 234.009 190.904 233.55 190.904H151.72C151.261 190.904 150.885 190.528 150.885 190.111C150.885 189.693 151.261 189.317 151.72 189.317H233.591C234.009 189.317 234.385 189.651 234.385 190.111Z" fill="white"/>
<path d="M234.385 196.499C234.385 196.917 234.009 197.293 233.55 197.293H151.72C151.261 197.293 150.885 196.917 150.885 196.499C150.885 196.082 151.261 195.706 151.72 195.706H233.591C234.009 195.706 234.385 196.082 234.385 196.499Z" fill="white"/>
<path d="M234.551 202.888C234.551 203.306 234.176 203.682 233.716 203.682H151.886C151.427 203.682 151.051 203.306 151.051 202.888C151.051 202.471 151.427 202.095 151.886 202.095H233.758C234.176 202.095 234.551 202.471 234.551 202.888Z" fill="white"/>
<path d="M402.47 115.403C402.47 115.863 401.927 116.28 401.217 116.28H320.181C319.471 116.28 318.928 115.904 318.928 115.403C318.928 114.902 319.471 114.526 320.181 114.526H401.217C401.927 114.526 402.47 114.902 402.47 115.403Z" fill="white"/>
<path d="M402.47 121.04C402.47 121.499 401.927 121.917 401.217 121.917H320.181C319.471 121.917 318.928 121.541 318.928 121.04C318.928 120.581 319.471 120.163 320.181 120.163H401.217C401.927 120.163 402.47 120.581 402.47 121.04Z" fill="white"/>
<path d="M402.47 126.511C402.47 126.97 401.927 127.388 401.217 127.388H320.181C319.471 127.388 318.928 127.012 318.928 126.511C318.928 126.051 319.471 125.634 320.181 125.634H401.217C401.927 125.634 402.47 126.051 402.47 126.511Z" fill="white"/>
<path d="M402.303 132.357C402.303 132.817 401.76 133.234 401.05 133.234H320.014C319.304 133.234 318.761 132.859 318.761 132.357C318.761 131.898 319.304 131.48 320.014 131.48H401.05C401.718 131.48 402.303 131.856 402.303 132.357Z" fill="white"/>
<path d="M402.47 137.995C402.47 138.454 401.927 138.872 401.217 138.872H320.181C319.471 138.872 318.928 138.496 318.928 137.995C318.928 137.536 319.471 137.118 320.181 137.118H401.217C401.927 137.118 402.47 137.494 402.47 137.995Z" fill="white"/>
<path d="M293.836 107.386C302.206 107.386 308.992 100.599 308.992 92.227C308.992 83.8551 302.206 77.0684 293.836 77.0684C285.466 77.0684 278.681 83.8551 278.681 92.227C278.681 100.599 285.466 107.386 293.836 107.386Z" fill="url(#paint17_linear)"/>
<path d="M214.887 113.482C214.887 115.779 213.008 117.658 210.712 117.658H166.081C163.785 117.658 161.906 115.779 161.906 113.482V108.471C161.906 106.174 163.785 104.295 166.081 104.295H210.712C213.008 104.295 214.887 106.174 214.887 108.471V113.482Z" fill="url(#paint18_linear)"/>
<path d="M218.519 99.5344C218.519 100.704 217.601 101.622 216.432 101.622H191.757C190.588 101.622 189.67 100.704 189.67 99.5344V99.0333C189.67 97.864 190.588 96.9453 191.757 96.9453H216.432C217.601 96.9453 218.519 97.864 218.519 99.0333V99.5344Z" fill="url(#paint19_linear)"/>
<path d="M187.708 101.164C187.708 101.623 187.332 101.999 186.873 101.999H167.543C167.083 101.999 166.708 101.623 166.708 101.164V100.871C166.708 100.412 167.083 100.036 167.543 100.036H186.873C187.332 100.036 187.708 100.412 187.708 100.871V101.164Z" fill="url(#paint20_linear)"/>
<path d="M172.928 120.414C172.928 120.873 172.553 121.249 172.093 121.249H152.763C152.304 121.249 151.928 120.873 151.928 120.414V120.163C151.928 119.704 152.304 119.328 152.763 119.328H172.093C172.553 119.328 172.928 119.704 172.928 120.163V120.414Z" fill="url(#paint21_linear)"/>
<path d="M493.276 172.154C493.276 172.697 492.733 173.114 492.024 173.114H473.528C472.819 173.114 472.276 172.697 472.276 172.154C472.276 171.611 472.819 171.193 473.528 171.193H492.024C492.733 171.193 493.276 171.611 493.276 172.154Z" fill="url(#paint22_linear)"/>
<path d="M493.276 127.095C493.276 127.638 492.733 128.056 492.024 128.056H473.528C472.819 128.056 472.276 127.638 472.276 127.095C472.276 126.552 472.819 126.135 473.528 126.135H492.024C492.733 126.135 493.276 126.594 493.276 127.095Z" fill="url(#paint23_linear)"/>
<path d="M81.8718 249.116C81.8718 249.575 81.4961 249.951 81.0368 249.951H61.7066C61.2473 249.951 60.8716 249.575 60.8716 249.116V248.865C60.8716 248.406 61.2473 248.03 61.7066 248.03H81.0368C81.4961 248.03 81.8718 248.406 81.8718 248.865V249.116Z" fill="url(#paint24_linear)"/>
<path d="M503.254 115.737C503.254 116.28 502.711 116.697 502.002 116.697H495.739C495.071 116.697 494.487 116.28 494.487 115.737C494.487 115.194 495.071 114.776 495.739 114.776H502.002C502.711 114.776 503.254 115.194 503.254 115.737Z" fill="url(#paint25_linear)"/>
<path d="M504.924 144.383C504.924 144.926 504.382 145.344 503.672 145.344H497.409C496.741 145.344 496.157 144.926 496.157 144.383C496.157 143.84 496.741 143.423 497.409 143.423H503.672C504.34 143.423 504.924 143.84 504.924 144.383Z" fill="url(#paint26_linear)"/>
<path d="M548.72 277.512C548.72 277.972 548.344 278.348 547.885 278.348H540.788C540.328 278.348 539.953 277.972 539.953 277.512V277.262C539.953 276.803 540.328 276.427 540.788 276.427H547.885C548.344 276.427 548.72 276.803 548.72 277.262V277.512Z" fill="url(#paint27_linear)"/>
<path d="M118.862 264.191C118.862 264.651 118.486 265.026 118.027 265.026H110.93C110.47 265.026 110.095 264.651 110.095 264.191V263.941C110.095 263.481 110.47 263.105 110.93 263.105H118.027C118.486 263.105 118.862 263.481 118.862 263.941V264.191Z" fill="url(#paint28_linear)"/>
<path d="M224.657 104.212C224.657 104.671 224.281 105.047 223.822 105.047H216.724C216.265 105.047 215.889 104.671 215.889 104.212V103.961C215.889 103.502 216.265 103.126 216.724 103.126H223.822C224.281 103.126 224.657 103.502 224.657 103.961V104.212Z" fill="url(#paint29_linear)"/>
<path d="M66.8832 252.582C66.8832 253.041 66.5075 253.417 66.0482 253.417H58.9507C58.4915 253.417 58.1157 253.041 58.1157 252.582V252.331C58.1157 251.872 58.4915 251.496 58.9507 251.496H66.0482C66.5075 251.496 66.8832 251.872 66.8832 252.331V252.582Z" fill="url(#paint30_linear)"/>
<path d="M614.268 292.964C614.268 293.423 613.892 293.799 613.433 293.799H606.335C605.876 293.799 605.5 293.423 605.5 292.964V292.713C605.5 292.254 605.876 291.878 606.335 291.878H613.433C613.892 291.878 614.268 292.254 614.268 292.713V292.964Z" fill="url(#paint31_linear)"/>
<path d="M332.664 47.3355C332.664 47.8783 332.121 48.2959 331.411 48.2959H325.149C324.439 48.2959 323.896 47.8783 323.896 47.3355C323.896 46.7926 324.439 46.375 325.149 46.375H331.411C332.079 46.375 332.664 46.7926 332.664 47.3355Z" fill="url(#paint32_linear)"/>
<path d="M367.692 54.2681C367.692 54.811 367.108 55.2285 366.44 55.2285H347.944C347.276 55.2285 346.692 54.811 346.692 54.2681C346.692 53.7252 347.276 53.3076 347.944 53.3076H366.44C367.149 53.3076 367.692 53.767 367.692 54.2681Z" fill="url(#paint33_linear)"/>
<path d="M189.295 159.292C189.295 159.751 188.919 160.127 188.46 160.127H169.129C168.67 160.127 168.294 159.751 168.294 159.292V159.041C168.294 158.582 168.67 158.206 169.129 158.206H188.46C188.919 158.206 189.295 158.582 189.295 159.041V159.292Z" fill="url(#paint34_linear)"/>
<path d="M618.986 288.871C618.986 289.33 618.61 289.706 618.151 289.706H598.82C598.361 289.706 597.985 289.33 597.985 288.871V288.62C597.985 288.161 598.361 287.785 598.82 287.785H618.151C618.61 287.785 618.986 288.161 618.986 288.62V288.871Z" fill="url(#paint35_linear)"/>
<path d="M86.9235 273.211C86.9235 274.38 86.005 275.299 84.836 275.299H60.1617C58.9927 275.299 58.0742 274.38 58.0742 273.211V272.71C58.0742 271.541 58.9927 270.622 60.1617 270.622H84.836C86.005 270.622 86.9235 271.541 86.9235 272.71V273.211Z" fill="url(#paint36_linear)"/>
<path d="M502.712 121.75C502.712 122.919 501.793 123.838 500.624 123.838H475.95C474.781 123.838 473.862 122.919 473.862 121.75V121.249C473.862 120.08 474.781 119.161 475.95 119.161H500.624C501.793 119.161 502.712 120.08 502.712 121.249V121.75Z" fill="url(#paint37_linear)"/>
<path d="M601.868 293.631C601.868 294.8 600.949 295.719 599.78 295.719H575.106C573.937 295.719 573.019 294.8 573.019 293.631V293.13C573.019 291.961 573.937 291.042 575.106 291.042H599.78C600.949 291.042 601.868 291.961 601.868 293.13V293.631Z" fill="url(#paint38_linear)"/>
<path d="M492.9 113.106C492.9 115.403 491.021 117.282 488.725 117.282H458.582C456.285 117.282 454.407 115.403 454.407 113.106V110.893C454.407 108.596 456.285 106.717 458.582 106.717H488.725C491.021 106.717 492.9 108.596 492.9 110.893V113.106Z" fill="url(#paint39_linear)"/>
<path d="M595.355 283.484C595.355 285.781 593.476 287.66 591.18 287.66H556.486C554.189 287.66 552.311 285.781 552.311 283.484V273.128C552.311 270.831 554.189 268.952 556.486 268.952H591.18C593.476 268.952 595.355 270.831 595.355 273.128V283.484Z" fill="url(#paint40_linear)"/>
<path d="M107.047 264.233C107.047 266.53 105.168 268.409 102.872 268.409H71.0583C68.7621 268.409 66.8833 266.53 66.8833 264.233V256.925C66.8833 254.628 68.7621 252.749 71.0583 252.749H102.872C105.168 252.749 107.047 254.628 107.047 256.925V264.233Z" fill="url(#paint41_linear)"/>
<path d="M248.705 171.527H103.29V176.246H248.705V171.527Z" fill="#6D6E71"/>
<path d="M413.742 66.9619H270.999V71.6807H413.742V66.9619Z" fill="#6D6E71"/>
<path d="M562.999 185.225H420.255V189.943H562.999V185.225Z" fill="#6D6E71"/>
<path d="M181.654 171.82C181.654 172.488 181.07 173.072 180.402 173.072H108.049C107.381 173.072 106.796 172.488 106.796 171.82V171.193C106.796 170.525 107.381 169.94 108.049 169.94H180.402C181.07 169.94 181.654 170.525 181.654 171.193V171.82Z" fill="#F1F2F2"/>
<path d="M242.233 173.239C243.248 173.239 244.07 172.417 244.07 171.402C244.07 170.387 243.248 169.564 242.233 169.564C241.219 169.564 240.396 170.387 240.396 171.402C240.396 172.417 241.219 173.239 242.233 173.239Z" fill="#F1F2F2"/>
<path d="M236.597 173.239C237.612 173.239 238.434 172.417 238.434 171.402C238.434 170.387 237.612 169.564 236.597 169.564C235.583 169.564 234.76 170.387 234.76 171.402C234.76 172.417 235.583 173.239 236.597 173.239Z" fill="#F1F2F2"/>
<path d="M230.585 173.281C231.6 173.281 232.422 172.459 232.422 171.444C232.422 170.429 231.6 169.606 230.585 169.606C229.57 169.606 228.748 170.429 228.748 171.444C228.748 172.459 229.57 173.281 230.585 173.281Z" fill="#F1F2F2"/>
<path d="M346.943 66.8369C346.943 67.505 346.4 68.0897 345.69 68.0897H276.427C275.759 68.0897 275.174 67.505 275.174 66.8369V66.3358C275.174 65.6676 275.759 65.083 276.427 65.083H345.69C346.4 65.083 346.943 65.6676 346.943 66.3358V66.8369Z" fill="#F1F2F2"/>
<path d="M404.933 68.2148C405.902 68.2148 406.687 67.4296 406.687 66.4609C406.687 65.4923 405.902 64.707 404.933 64.707C403.965 64.707 403.18 65.4923 403.18 66.4609C403.18 67.4296 403.965 68.2148 404.933 68.2148Z" fill="#F1F2F2"/>
<path d="M399.589 68.2148C400.558 68.2148 401.343 67.4296 401.343 66.4609C401.343 65.4923 400.558 64.707 399.589 64.707C398.621 64.707 397.836 65.4923 397.836 66.4609C397.836 67.4296 398.621 68.2148 399.589 68.2148Z" fill="#F1F2F2"/>
<path d="M393.828 68.2568C394.796 68.2568 395.581 67.4716 395.581 66.5029C395.581 65.5343 394.796 64.749 393.828 64.749C392.859 64.749 392.074 65.5343 392.074 66.5029C392.074 67.4716 392.859 68.2568 393.828 68.2568Z" fill="#F1F2F2"/>
<path d="M497.284 185.642C497.284 186.31 496.741 186.894 496.032 186.894H426.81C426.142 186.894 425.558 186.31 425.558 185.642V185.14C425.558 184.472 426.142 183.888 426.81 183.888H496.032C496.741 183.888 497.284 184.472 497.284 185.14V185.642Z" fill="#F1F2F2"/>
<path d="M555.317 187.02C556.285 187.02 557.07 186.234 557.07 185.266C557.07 184.297 556.285 183.512 555.317 183.512C554.348 183.512 553.563 184.297 553.563 185.266C553.563 186.234 554.348 187.02 555.317 187.02Z" fill="#F1F2F2"/>
<path d="M549.931 187.02C550.899 187.02 551.684 186.234 551.684 185.266C551.684 184.297 550.899 183.512 549.931 183.512C548.962 183.512 548.177 184.297 548.177 185.266C548.177 186.234 548.962 187.02 549.931 187.02Z" fill="#F1F2F2"/>
<path d="M544.17 187.062C545.138 187.062 545.923 186.276 545.923 185.308C545.923 184.339 545.138 183.554 544.17 183.554C543.201 183.554 542.416 184.339 542.416 185.308C542.416 186.276 543.201 187.062 544.17 187.062Z" fill="#F1F2F2"/>
<path d="M309.869 276.218C309.869 276.218 311.33 279.559 313.167 283.693C316.215 290.625 320.348 299.937 320.598 300.689C321.058 301.942 333.958 306.368 333.958 306.368C333.958 306.368 342.392 299.854 343.018 299.227C343.686 298.559 351.619 278.932 351.619 278.932C352.036 276.427 352.036 273.838 351.66 271.29C351.243 264.818 351.744 249.242 351.744 249.242L354.875 245.943L347.36 229.698C347.36 229.698 337.632 230.993 329.074 233.498C322.185 235.503 316.048 238.301 316.131 241.767C316.382 249.576 309.869 276.218 309.869 276.218Z" fill="#C8C8C8"/>
<path d="M309.869 277.345C309.869 277.345 311.33 279.642 313.209 282.523L318.177 280.728C319.221 275.675 320.682 270.664 322.561 265.862C324.565 261.686 333.499 262.145 333.499 262.145L337.257 252.415L329.032 247.863C322.143 249.241 316.006 251.162 316.131 253.584C316.34 258.888 309.869 277.345 309.869 277.345Z" fill="#C8C8C8"/>
<path d="M330.785 344.786C323.312 362.617 364.353 364.956 364.353 364.956C362.349 348.419 360.762 340.151 358.382 328.667C354.458 321.568 347.11 306.034 347.11 306.034L329.074 297.348C329.074 297.389 338.133 327.331 330.785 344.786Z" fill="#F2F2F2"/>
<path d="M293.127 309.416C293.127 309.416 282.022 340.193 276.135 346.498C273.672 348.962 270.958 350.967 268.077 352.428C266.449 353.305 264.654 353.43 263.025 352.762C261.397 352.094 260.061 350.674 259.226 348.795C259.226 348.753 259.184 348.753 259.184 348.712C258.767 347.709 258.516 346.582 258.433 345.454C257.89 337.979 257.974 327.999 261.147 320.524C261.397 319.981 261.606 319.397 261.856 318.854C263.61 314.678 265.113 310.878 266.365 307.662C268.912 300.939 270.332 296.68 270.332 296.68L285.737 292.629L286.531 294.425L293.127 309.416Z" fill="#E6E7E8"/>
<path d="M305.61 275.8C298.262 276.176 291.666 278.305 286.99 281.855C278.181 288.328 262.524 304.447 262.524 304.447C262.524 304.447 274.298 309.75 283.608 309.5L292.918 309.249L305.61 275.8Z" fill="url(#paint42_linear)"/>
<path d="M340.012 180.715C340.012 180.715 321.058 177.416 305.652 188.983C290.246 200.55 306.362 250.536 306.362 250.536C306.362 250.536 319.597 270.372 327.821 271.207C336.046 272.042 336.046 281.104 336.046 281.104C336.046 281.104 338.927 272.835 345.732 271.207C352.537 269.536 370.072 241.057 370.448 228.237C370.782 215.416 365.772 184.014 340.012 180.715Z" fill="#3D3D3E"/>
<path d="M327.362 181.382C327.362 181.382 315.839 183.763 312.248 171.318C312.248 171.318 308.449 181.215 317.592 192.031" fill="#3D3D3E"/>
<path d="M261.063 350.633C261.063 350.633 232.756 328.876 216.14 286.491C216.14 286.491 201.152 276.552 189.253 273.587C189.253 273.587 190.965 270.873 193.637 270.539C196.267 270.246 219.438 276.928 222.695 279.308C225.951 281.688 279.099 330.672 273.504 342.866C267.868 355.101 261.063 350.633 261.063 350.633Z" fill="#E6E7E8"/>
<path d="M369.78 310.419C369.78 310.419 378.213 342.24 383.432 349.005C385.645 351.677 388.108 353.89 390.78 355.602C392.283 356.605 393.995 356.897 395.623 356.354C397.251 355.811 398.671 354.517 399.589 352.679C399.589 352.679 399.631 352.638 399.631 352.596C400.132 351.635 400.466 350.55 400.591 349.38C401.677 341.947 402.345 331.883 399.84 324.116C399.673 323.531 399.464 322.947 399.297 322.404C397.919 318.103 396.75 314.136 395.79 310.795C393.828 303.863 392.784 299.436 392.784 299.436L378.172 294.133L377.253 295.887L369.78 310.419Z" fill="#E6E7E8"/>
<path d="M359.05 276.343C366.357 277.303 372.744 279.934 377.17 283.859C385.436 291 399.798 308.289 399.798 308.289C399.798 308.289 387.649 312.673 378.381 311.671L369.112 310.669L359.05 276.343Z" fill="url(#paint43_linear)"/>
<path d="M396.417 355.06C396.417 355.06 426.351 335.6 446.224 294.634C446.224 294.634 461.922 285.906 474.03 283.86C474.03 283.86 472.527 281.02 469.897 280.478C467.266 279.976 443.678 284.82 440.254 286.95C436.831 289.08 380.009 333.721 384.643 346.332C389.277 358.985 396.417 355.06 396.417 355.06Z" fill="#E6E7E8"/>
<path d="M257.306 414.859C257.306 414.859 279.6 428.431 318.887 428.598C352.663 428.765 393.536 415.736 393.536 415.736C393.536 415.736 393.912 412.311 389.11 376.19C388.651 372.64 388.15 369.258 387.649 365.917C385.269 350.09 382.639 336.894 379.842 325.912C365.981 270.915 349.114 270.915 349.114 270.915L345.816 270.372C332.706 268.075 319.054 269.871 307.489 275.425C304.859 276.594 302.521 278.139 300.642 280.06C289.912 292.546 257.306 414.859 257.306 414.859Z" fill="#F2F2F2"/>
<path d="M302.813 194.954C302.813 194.954 284.36 232.788 297.594 245.942C310.829 259.096 300.35 275.549 297.344 275.549C294.338 275.549 290.622 295.928 302.312 299.227C314.044 302.526 329.491 332.092 315.547 335.391C301.561 338.689 311.789 369.257 318.803 369.257C318.803 369.257 329.784 367.629 328.782 375.813C328.782 375.813 336.004 369.884 333.499 365.624C330.994 361.365 332.998 354.767 345.231 354.767C357.464 354.767 368.903 339.65 355.209 326.496C341.515 313.342 348.488 303.821 356.211 302.484C363.935 301.19 376.168 292.629 365.689 273.545C355.209 254.461 369.196 253.501 366.941 240.68C364.687 227.86 302.813 194.954 302.813 194.954Z" fill="#3D3D3E"/>
</g>
<defs>
<filter id="filter0_d" x="-30" y="-11" width="728" height="511" filterUnits="userSpaceOnUse" color-interpolation-filters="sRGB">
<feFlood flood-opacity="0" result="BackgroundImageFix"/>
<feColorMatrix in="SourceAlpha" type="matrix" values="0 0 0 0 0 0 0 0 0 0 0 0 0 0 0 0 0 0 127 0" result="hardAlpha"/>
<feOffset dy="10"/>
<feGaussianBlur stdDeviation="15"/>
<feColorMatrix type="matrix" values="0 0 0 0 0 0 0 0 0 0 0 0 0 0 0 0 0 0 0.25 0"/>
<feBlend mode="normal" in2="BackgroundImageFix" result="effect1_dropShadow"/>
<feBlend mode="normal" in="SourceGraphic" in2="effect1_dropShadow" result="shape"/>
</filter>
<linearGradient id="paint0_linear" x1="145.927" y1="196.998" x2="241.324" y2="196.998" gradientUnits="userSpaceOnUse">
<stop stop-color="#7FD1F5"/>
<stop offset="1" stop-color="#44B4E7"/>
</linearGradient>
<linearGradient id="paint1_linear" x1="110.478" y1="198.108" x2="141.392" y2="198.108" gradientUnits="userSpaceOnUse">
<stop stop-color="#7FD1F5"/>
<stop offset="1" stop-color="#44B4E7"/>
</linearGradient>
<linearGradient id="paint2_linear" x1="468.375" y1="246.867" x2="508.742" y2="246.867" gradientUnits="userSpaceOnUse">
<stop stop-color="#7FD1F5"/>
<stop offset="1" stop-color="#44B4E7"/>
</linearGradient>
<linearGradient id="paint3_linear" x1="208.731" y1="124.309" x2="268.223" y2="124.309" gradientUnits="userSpaceOnUse">
<stop stop-color="#7FD1F5"/>
<stop offset="1" stop-color="#44B4E7"/>
</linearGradient>
<linearGradient id="paint4_linear" x1="514.623" y1="246.867" x2="554.991" y2="246.867" gradientUnits="userSpaceOnUse">
<stop stop-color="#7FD1F5"/>
<stop offset="1" stop-color="#44B4E7"/>
</linearGradient>
<linearGradient id="paint5_linear" x1="427.922" y1="210.733" x2="458.258" y2="210.733" gradientUnits="userSpaceOnUse">
<stop stop-color="#7FD1F5"/>
<stop offset="1" stop-color="#44B4E7"/>
</linearGradient>
<linearGradient id="paint6_linear" x1="162.418" y1="298.62" x2="187.754" y2="298.62" gradientUnits="userSpaceOnUse">
<stop stop-color="#7FD1F5"/>
<stop offset="1" stop-color="#44B4E7"/>
</linearGradient>
<linearGradient id="paint7_linear" x1="153.143" y1="280.725" x2="167.109" y2="280.725" gradientUnits="userSpaceOnUse">
<stop stop-color="#7FD1F5"/>
<stop offset="1" stop-color="#44B4E7"/>
</linearGradient>
<linearGradient id="paint8_linear" x1="173.071" y1="268.924" x2="181.003" y2="268.924" gradientUnits="userSpaceOnUse">
<stop stop-color="#7FD1F5"/>
<stop offset="1" stop-color="#44B4E7"/>
</linearGradient>
<linearGradient id="paint9_linear" x1="92.0544" y1="244.881" x2="98.2723" y2="244.881" gradientUnits="userSpaceOnUse">
<stop stop-color="#7FD1F5"/>
<stop offset="1" stop-color="#44B4E7"/>
</linearGradient>
<linearGradient id="paint10_linear" x1="566.444" y1="261.506" x2="571.078" y2="261.506" gradientUnits="userSpaceOnUse">
<stop stop-color="#7FD1F5"/>
<stop offset="1" stop-color="#44B4E7"/>
</linearGradient>
<linearGradient id="paint11_linear" x1="536.601" y1="163.185" x2="552.768" y2="163.185" gradientUnits="userSpaceOnUse">
<stop stop-color="#7FD1F5"/>
<stop offset="1" stop-color="#44B4E7"/>
</linearGradient>
<linearGradient id="paint12_linear" x1="521.717" y1="159.236" x2="532.32" y2="159.236" gradientUnits="userSpaceOnUse">
<stop stop-color="#7FD1F5"/>
<stop offset="1" stop-color="#44B4E7"/>
</linearGradient>
<linearGradient id="paint13_linear" x1="257.38" y1="102.315" x2="267.983" y2="102.315" gradientUnits="userSpaceOnUse">
<stop stop-color="#7FD1F5"/>
<stop offset="1" stop-color="#44B4E7"/>
</linearGradient>
<linearGradient id="paint14_linear" x1="531.946" y1="149.484" x2="540.178" y2="149.484" gradientUnits="userSpaceOnUse">
<stop stop-color="#7FD1F5"/>
<stop offset="1" stop-color="#44B4E7"/>
</linearGradient>
<linearGradient id="paint15_linear" x1="315.656" y1="126.818" x2="405.336" y2="126.818" gradientUnits="userSpaceOnUse">
<stop stop-color="#7FD1F5"/>
<stop offset="1" stop-color="#44B4E7"/>
</linearGradient>
<linearGradient id="paint16_linear" x1="496.178" y1="292.269" x2="546.469" y2="292.269" gradientUnits="userSpaceOnUse">
<stop stop-color="#7FD1F5"/>
<stop offset="1" stop-color="#44B4E7"/>
</linearGradient>
<linearGradient id="paint17_linear" x1="278.654" y1="92.2301" x2="308.99" y2="92.2301" gradientUnits="userSpaceOnUse">
<stop stop-color="#7FD1F5"/>
<stop offset="1" stop-color="#44B4E7"/>
</linearGradient>
<linearGradient id="paint18_linear" x1="161.904" y1="110.977" x2="214.897" y2="110.977" gradientUnits="userSpaceOnUse">
<stop stop-color="#71459B"/>
<stop offset="0.8668" stop-color="#A76CAD"/>
</linearGradient>
<linearGradient id="paint19_linear" x1="189.672" y1="99.2749" x2="218.502" y2="99.2749" gradientUnits="userSpaceOnUse">
<stop stop-color="#71459B"/>
<stop offset="0.8668" stop-color="#A76CAD"/>
</linearGradient>
<linearGradient id="paint20_linear" x1="166.731" y1="101.015" x2="187.714" y2="101.015" gradientUnits="userSpaceOnUse">
<stop stop-color="#71459B"/>
<stop offset="0.8668" stop-color="#A76CAD"/>
</linearGradient>
<linearGradient id="paint21_linear" x1="151.928" y1="120.297" x2="172.911" y2="120.297" gradientUnits="userSpaceOnUse">
<stop stop-color="#71459B"/>
<stop offset="0.8668" stop-color="#A76CAD"/>
</linearGradient>
<linearGradient id="paint22_linear" x1="472.306" y1="172.15" x2="493.29" y2="172.15" gradientUnits="userSpaceOnUse">
<stop stop-color="#71459B"/>
<stop offset="0.8668" stop-color="#A76CAD"/>
</linearGradient>
<linearGradient id="paint23_linear" x1="472.306" y1="127.116" x2="493.29" y2="127.116" gradientUnits="userSpaceOnUse">
<stop stop-color="#71459B"/>
<stop offset="0.8668" stop-color="#A76CAD"/>
</linearGradient>
<linearGradient id="paint24_linear" x1="60.8848" y1="248.971" x2="81.8683" y2="248.971" gradientUnits="userSpaceOnUse">
<stop stop-color="#71459B"/>
<stop offset="0.8668" stop-color="#A76CAD"/>
</linearGradient>
<linearGradient id="paint25_linear" x1="494.505" y1="115.729" x2="503.268" y2="115.729" gradientUnits="userSpaceOnUse">
<stop stop-color="#71459B"/>
<stop offset="0.8668" stop-color="#A76CAD"/>
</linearGradient>
<linearGradient id="paint26_linear" x1="496.152" y1="144.387" x2="504.915" y2="144.387" gradientUnits="userSpaceOnUse">
<stop stop-color="#71459B"/>
<stop offset="0.8668" stop-color="#A76CAD"/>
</linearGradient>
<linearGradient id="paint27_linear" x1="539.974" y1="277.363" x2="548.738" y2="277.363" gradientUnits="userSpaceOnUse">
<stop stop-color="#71459B"/>
<stop offset="0.8668" stop-color="#A76CAD"/>
</linearGradient>
<linearGradient id="paint28_linear" x1="110.089" y1="264.044" x2="118.853" y2="264.044" gradientUnits="userSpaceOnUse">
<stop stop-color="#71459B"/>
<stop offset="0.8668" stop-color="#A76CAD"/>
</linearGradient>
<linearGradient id="paint29_linear" x1="215.899" y1="104.069" x2="224.663" y2="104.069" gradientUnits="userSpaceOnUse">
<stop stop-color="#71459B"/>
<stop offset="0.8668" stop-color="#A76CAD"/>
</linearGradient>
<linearGradient id="paint30_linear" x1="58.0994" y1="252.451" x2="66.863" y2="252.451" gradientUnits="userSpaceOnUse">
<stop stop-color="#71459B"/>
<stop offset="0.8668" stop-color="#A76CAD"/>
</linearGradient>
<linearGradient id="paint31_linear" x1="605.513" y1="292.846" x2="614.277" y2="292.846" gradientUnits="userSpaceOnUse">
<stop stop-color="#71459B"/>
<stop offset="0.8668" stop-color="#A76CAD"/>
</linearGradient>
<linearGradient id="paint32_linear" x1="323.886" y1="47.331" x2="332.65" y2="47.331" gradientUnits="userSpaceOnUse">
<stop stop-color="#71459B"/>
<stop offset="0.8668" stop-color="#A76CAD"/>
</linearGradient>
<linearGradient id="paint33_linear" x1="346.727" y1="54.2795" x2="367.711" y2="54.2795" gradientUnits="userSpaceOnUse">
<stop stop-color="#71459B"/>
<stop offset="0.8668" stop-color="#A76CAD"/>
</linearGradient>
<linearGradient id="paint34_linear" x1="168.325" y1="159.174" x2="189.308" y2="159.174" gradientUnits="userSpaceOnUse">
<stop stop-color="#71459B"/>
<stop offset="0.8668" stop-color="#A76CAD"/>
</linearGradient>
<linearGradient id="paint35_linear" x1="597.993" y1="288.72" x2="618.976" y2="288.72" gradientUnits="userSpaceOnUse">
<stop stop-color="#71459B"/>
<stop offset="0.8668" stop-color="#A76CAD"/>
</linearGradient>
<linearGradient id="paint36_linear" x1="58.0759" y1="272.972" x2="86.9065" y2="272.972" gradientUnits="userSpaceOnUse">
<stop stop-color="#71459B"/>
<stop offset="0.8668" stop-color="#A76CAD"/>
</linearGradient>
<linearGradient id="paint37_linear" x1="473.895" y1="121.513" x2="502.726" y2="121.513" gradientUnits="userSpaceOnUse">
<stop stop-color="#71459B"/>
<stop offset="0.8668" stop-color="#A76CAD"/>
</linearGradient>
<linearGradient id="paint38_linear" x1="573.043" y1="293.407" x2="601.874" y2="293.407" gradientUnits="userSpaceOnUse">
<stop stop-color="#71459B"/>
<stop offset="0.8668" stop-color="#A76CAD"/>
</linearGradient>
<linearGradient id="paint39_linear" x1="454.403" y1="112.021" x2="492.907" y2="112.021" gradientUnits="userSpaceOnUse">
<stop stop-color="#71459B"/>
<stop offset="0.8668" stop-color="#A76CAD"/>
</linearGradient>
<linearGradient id="paint40_linear" x1="552.28" y1="278.298" x2="595.336" y2="278.298" gradientUnits="userSpaceOnUse">
<stop stop-color="#71459B"/>
<stop offset="0.8668" stop-color="#A76CAD"/>
</linearGradient>
<linearGradient id="paint41_linear" x1="66.9123" y1="260.563" x2="107.066" y2="260.563" gradientUnits="userSpaceOnUse">
<stop stop-color="#71459B"/>
<stop offset="0.8668" stop-color="#A76CAD"/>
</linearGradient>
<linearGradient id="paint42_linear" x1="306.197" y1="292.273" x2="262.128" y2="293.818" gradientUnits="userSpaceOnUse">
<stop stop-color="#71459B"/>
<stop offset="0.8668" stop-color="#A76DAE"/>
</linearGradient>
<linearGradient id="paint43_linear" x1="357.183" y1="292.718" x2="400.997" y2="297.708" gradientUnits="userSpaceOnUse">
<stop stop-color="#71459B"/>
<stop offset="0.8668" stop-color="#A76DAE"/>
</linearGradient>
</defs>
</svg>
