<svg width="692" height="522" viewBox="0 0 692 522" fill="none" xmlns="http://www.w3.org/2000/svg">
<g filter="url(#filter0_d)">
<path d="M198.226 181.086C198.273 178.297 198.59 176.094 199.176 174.476C199.761 172.859 200.957 171.066 202.761 169.098L207.367 164.351C209.336 162.125 210.32 159.734 210.32 157.18C210.32 154.719 209.676 152.797 208.386 151.414C207.097 150.008 205.222 149.305 202.761 149.305C200.371 149.305 198.449 149.937 196.996 151.203C195.543 152.469 194.816 154.168 194.816 156.301H188.312C188.359 152.504 189.707 149.445 192.355 147.125C195.027 144.781 198.496 143.609 202.761 143.609C207.191 143.609 210.636 144.805 213.097 147.195C215.582 149.562 216.824 152.82 216.824 156.969C216.824 161.07 214.926 165.113 211.129 169.098L207.297 172.894C205.586 174.793 204.73 177.523 204.73 181.086H198.226ZM197.945 192.23C197.945 191.176 198.261 190.297 198.894 189.594C199.551 188.867 200.511 188.504 201.777 188.504C203.043 188.504 204.004 188.867 204.66 189.594C205.316 190.297 205.644 191.176 205.644 192.23C205.644 193.285 205.316 194.164 204.66 194.867C204.004 195.547 203.043 195.887 201.777 195.887C200.511 195.887 199.551 195.547 198.894 194.867C198.261 194.164 197.945 193.285 197.945 192.23Z" fill="#662D91"/>
<path d="M198.226 181.086L196.727 181.061L196.701 182.586H198.226V181.086ZM202.761 169.098L201.685 168.053L201.67 168.068L201.656 168.084L202.761 169.098ZM207.367 164.351L208.443 165.396L208.468 165.371L208.491 165.345L207.367 164.351ZM208.386 151.414L207.281 152.428L207.289 152.437L208.386 151.414ZM194.816 156.301V157.801H196.316V156.301H194.816ZM188.312 156.301L186.812 156.282L186.794 157.801H188.312V156.301ZM192.355 147.125L193.344 148.253L193.344 148.253L192.355 147.125ZM213.097 147.195L212.052 148.271L212.057 148.276L212.063 148.281L213.097 147.195ZM211.129 169.098L212.184 170.163L212.2 170.148L212.215 170.132L211.129 169.098ZM207.297 172.894L206.241 171.829L206.211 171.859L206.182 171.89L207.297 172.894ZM204.73 181.086V182.586H206.23V181.086H204.73ZM198.894 189.594L197.781 188.588L197.779 188.59L198.894 189.594ZM204.66 189.594L203.547 190.599L203.555 190.608L203.563 190.617L204.66 189.594ZM204.66 194.867L205.739 195.909L205.748 195.9L205.756 195.891L204.66 194.867ZM198.894 194.867L197.779 195.871L197.797 195.89L197.815 195.909L198.894 194.867ZM199.726 181.111C199.772 178.398 200.08 176.382 200.586 174.987L197.765 173.965C197.099 175.805 196.775 178.195 196.727 181.061L199.726 181.111ZM200.586 174.987C201.078 173.63 202.13 172.006 203.867 170.111L201.656 168.084C199.783 170.127 198.445 172.088 197.765 173.965L200.586 174.987ZM203.838 170.142L208.443 165.396L206.29 163.307L201.685 168.053L203.838 170.142ZM208.491 165.345C210.66 162.892 211.82 160.159 211.82 157.18H208.82C208.82 159.309 208.012 161.358 206.243 163.358L208.491 165.345ZM211.82 157.18C211.82 154.457 211.102 152.127 209.484 150.391L207.289 152.437C208.249 153.466 208.82 154.98 208.82 157.18H211.82ZM209.492 150.4C207.842 148.6 205.514 147.805 202.761 147.805V150.805C204.931 150.805 206.353 151.415 207.281 152.428L209.492 150.4ZM202.761 147.805C200.099 147.805 197.798 148.515 196.011 150.072L197.981 152.334C199.1 151.36 200.643 150.805 202.761 150.805V147.805ZM196.011 150.072C194.193 151.655 193.316 153.786 193.316 156.301H196.316C196.316 154.55 196.892 153.282 197.981 152.334L196.011 150.072ZM194.816 154.801H188.312V157.801H194.816V154.801ZM189.812 156.319C189.854 152.91 191.043 150.269 193.344 148.253L191.367 145.997C188.371 148.621 186.864 152.097 186.812 156.282L189.812 156.319ZM193.344 148.253C195.69 146.195 198.783 145.109 202.761 145.109V142.109C198.208 142.109 194.364 143.367 191.366 145.997L193.344 148.253ZM202.761 145.109C206.919 145.109 209.946 146.225 212.052 148.271L214.143 146.119C211.327 143.384 207.463 142.109 202.761 142.109V145.109ZM212.063 148.281C214.189 150.307 215.324 153.138 215.324 156.969H218.324C218.324 152.502 216.974 148.817 214.132 146.109L212.063 148.281ZM215.324 156.969C215.324 160.568 213.667 164.26 210.043 168.063L212.215 170.132C216.184 165.967 218.324 161.572 218.324 156.969H215.324ZM210.073 168.032L206.241 171.829L208.352 173.96L212.184 170.163L210.073 168.032ZM206.182 171.89C204.14 174.156 203.23 177.299 203.23 181.086H206.23C206.23 177.748 207.031 175.429 208.411 173.899L206.182 171.89ZM204.73 179.586H198.226V182.586H204.73V179.586ZM199.445 192.23C199.445 191.5 199.653 190.992 200.009 190.597L197.779 188.59C196.87 189.601 196.445 190.851 196.445 192.23H199.445ZM200.007 190.599C200.302 190.273 200.804 190.004 201.777 190.004V187.004C200.219 187.004 198.8 187.461 197.781 188.588L200.007 190.599ZM201.777 190.004C202.75 190.004 203.253 190.273 203.547 190.599L205.773 188.588C204.755 187.461 203.335 187.004 201.777 187.004V190.004ZM203.563 190.617C203.934 191.015 204.144 191.516 204.144 192.23H207.144C207.144 190.836 206.698 189.579 205.756 188.57L203.563 190.617ZM204.144 192.23C204.144 192.945 203.934 193.446 203.563 193.844L205.756 195.891C206.698 194.882 207.144 193.625 207.144 192.23H204.144ZM203.581 193.825C203.293 194.123 202.779 194.387 201.777 194.387V197.387C203.306 197.387 204.714 196.971 205.739 195.909L203.581 193.825ZM201.777 194.387C200.775 194.387 200.261 194.123 199.973 193.825L197.815 195.909C198.84 196.971 200.248 197.387 201.777 197.387V194.387ZM200.009 193.864C199.653 193.468 199.445 192.96 199.445 192.23H196.445C196.445 193.61 196.87 194.86 197.779 195.871L200.009 193.864Z" fill="#662D91"/>
<path d="M512.051 192.291C512.097 189.502 512.414 187.299 513 185.682C513.586 184.065 514.781 182.272 516.586 180.303L521.191 175.557C523.16 173.33 524.144 170.94 524.144 168.385C524.144 165.924 523.5 164.002 522.211 162.619C520.922 161.213 519.047 160.51 516.586 160.51C514.195 160.51 512.273 161.143 510.82 162.408C509.367 163.674 508.64 165.373 508.64 167.506H502.136C502.183 163.709 503.531 160.651 506.179 158.33C508.851 155.986 512.32 154.815 516.586 154.815C521.015 154.815 524.461 156.01 526.922 158.401C529.406 160.768 530.648 164.026 530.648 168.174C530.648 172.276 528.75 176.318 524.953 180.303L521.121 184.1C519.41 185.998 518.554 188.729 518.554 192.291H512.051ZM511.769 203.436C511.769 202.381 512.086 201.502 512.719 200.799C513.375 200.072 514.336 199.709 515.601 199.709C516.867 199.709 517.828 200.072 518.484 200.799C519.14 201.502 519.469 202.381 519.469 203.436C519.469 204.49 519.14 205.369 518.484 206.072C517.828 206.752 516.867 207.092 515.601 207.092C514.336 207.092 513.375 206.752 512.719 206.072C512.086 205.369 511.769 204.49 511.769 203.436Z" fill="#662D91"/>
<path d="M512.051 192.291L510.551 192.266L510.525 193.791H512.051V192.291ZM516.586 180.303L515.509 179.258L515.494 179.274L515.48 179.289L516.586 180.303ZM521.191 175.557L522.268 176.601L522.292 176.576L522.315 176.55L521.191 175.557ZM522.211 162.619L521.105 163.633L521.113 163.642L522.211 162.619ZM508.64 167.506V169.006H510.14V167.506H508.64ZM502.136 167.506L500.637 167.487L500.618 169.006H502.136V167.506ZM506.179 158.33L507.168 159.458L507.169 159.458L506.179 158.33ZM526.922 158.401L525.876 159.476L525.882 159.481L525.887 159.486L526.922 158.401ZM524.953 180.303L526.009 181.368L526.024 181.353L526.039 181.338L524.953 180.303ZM521.121 184.1L520.065 183.034L520.035 183.064L520.007 183.096L521.121 184.1ZM518.554 192.291V193.791H520.054V192.291H518.554ZM512.719 200.799L511.605 199.794L511.604 199.796L512.719 200.799ZM518.484 200.799L517.371 201.804L517.379 201.813L517.388 201.822L518.484 200.799ZM518.484 206.072L519.563 207.114L519.572 207.105L519.581 207.096L518.484 206.072ZM512.719 206.072L511.604 207.076L511.621 207.095L511.639 207.114L512.719 206.072ZM513.55 192.316C513.596 189.603 513.905 187.588 514.41 186.193L511.589 185.171C510.923 187.01 510.599 189.401 510.551 192.266L513.55 192.316ZM514.41 186.193C514.902 184.835 515.954 183.211 517.691 181.316L515.48 179.289C513.608 181.332 512.27 183.294 511.589 185.171L514.41 186.193ZM517.662 181.347L522.268 176.601L520.115 174.512L515.509 179.258L517.662 181.347ZM522.315 176.55C524.484 174.097 525.644 171.364 525.644 168.385H522.644C522.644 170.515 521.836 172.563 520.067 174.563L522.315 176.55ZM525.644 168.385C525.644 165.662 524.926 163.333 523.308 161.596L521.113 163.642C522.073 164.671 522.644 166.185 522.644 168.385H525.644ZM523.316 161.606C521.666 159.806 519.338 159.01 516.586 159.01V162.01C518.755 162.01 520.177 162.62 521.105 163.633L523.316 161.606ZM516.586 159.01C513.923 159.01 511.622 159.72 509.835 161.277L511.805 163.539C512.924 162.565 514.467 162.01 516.586 162.01V159.01ZM509.835 161.277C508.017 162.86 507.14 164.991 507.14 167.506H510.14C510.14 165.755 510.716 164.488 511.805 163.539L509.835 161.277ZM508.64 166.006H502.136V169.006H508.64V166.006ZM503.636 167.524C503.678 164.116 504.867 161.474 507.168 159.458L505.191 157.202C502.195 159.827 500.688 163.302 500.637 167.487L503.636 167.524ZM507.169 159.458C509.514 157.4 512.608 156.315 516.586 156.315V153.315C512.033 153.315 508.188 154.573 505.19 157.203L507.169 159.458ZM516.586 156.315C520.743 156.315 523.77 157.43 525.876 159.476L527.967 157.325C525.151 154.59 521.287 153.315 516.586 153.315V156.315ZM525.887 159.486C528.013 161.513 529.148 164.344 529.148 168.174H532.148C532.148 163.707 530.799 160.023 527.956 157.315L525.887 159.486ZM529.148 168.174C529.148 171.774 527.491 175.465 523.867 179.268L526.039 181.338C530.008 177.172 532.148 172.777 532.148 168.174H529.148ZM523.897 179.237L520.065 183.034L522.177 185.165L526.009 181.368L523.897 179.237ZM520.007 183.096C517.964 185.362 517.054 188.504 517.054 192.291H520.054C520.054 188.953 520.856 186.635 522.235 185.104L520.007 183.096ZM518.554 190.791H512.051V193.791H518.554V190.791ZM513.269 203.436C513.269 202.706 513.478 202.198 513.833 201.802L511.604 199.796C510.694 200.806 510.269 202.056 510.269 203.436H513.269ZM513.832 201.804C514.126 201.479 514.628 201.209 515.601 201.209V198.209C514.043 198.209 512.624 198.666 511.605 199.794L513.832 201.804ZM515.601 201.209C516.574 201.209 517.077 201.479 517.371 201.804L519.597 199.794C518.579 198.666 517.159 198.209 515.601 198.209V201.209ZM517.388 201.822C517.759 202.22 517.969 202.721 517.969 203.436H520.969C520.969 202.041 520.522 200.784 519.581 199.775L517.388 201.822ZM517.969 203.436C517.969 204.15 517.759 204.651 517.388 205.049L519.581 207.096C520.522 206.087 520.969 204.83 520.969 203.436H517.969ZM517.405 205.03C517.118 205.328 516.603 205.592 515.601 205.592V208.592C517.131 208.592 518.538 208.176 519.563 207.114L517.405 205.03ZM515.601 205.592C514.599 205.592 514.085 205.328 513.798 205.03L511.639 207.114C512.664 208.176 514.072 208.592 515.601 208.592V205.592ZM513.833 205.069C513.478 204.674 513.269 204.166 513.269 203.436H510.269C510.269 204.815 510.694 206.065 511.604 207.076L513.833 205.069Z" fill="#662D91"/>
<path d="M354.122 79.9805C354.187 76.1068 354.626 73.0469 355.44 70.8008C356.254 68.5547 357.914 66.0645 360.42 63.3301L366.817 56.7383C369.551 53.6458 370.918 50.3255 370.918 46.7773C370.918 43.3594 370.023 40.6901 368.233 38.7695C366.443 36.8164 363.838 35.8398 360.42 35.8398C357.1 35.8398 354.431 36.7188 352.413 38.4766C350.394 40.2344 349.385 42.5944 349.385 45.5566H340.352C340.417 40.2832 342.289 36.0352 345.967 32.8125C349.678 29.5573 354.496 27.9297 360.42 27.9297C366.573 27.9297 371.358 29.5898 374.776 32.9102C378.226 36.1979 379.952 40.7227 379.952 46.4844C379.952 52.181 377.315 57.7962 372.042 63.3301L366.719 68.6035C364.343 71.2402 363.155 75.0326 363.155 79.9805H354.122ZM353.731 95.459C353.731 93.9941 354.17 92.7734 355.049 91.7969C355.961 90.7878 357.295 90.2832 359.053 90.2832C360.811 90.2832 362.146 90.7878 363.057 91.7969C363.969 92.7734 364.424 93.9941 364.424 95.459C364.424 96.9238 363.969 98.1445 363.057 99.1211C362.146 100.065 360.811 100.537 359.053 100.537C357.295 100.537 355.961 100.065 355.049 99.1211C354.17 98.1445 353.731 96.9238 353.731 95.459Z" fill="#662D91"/>
<path d="M354.122 79.9805L351.622 79.9385L351.579 82.4805H354.122V79.9805ZM360.42 63.3301L358.626 61.5891L358.602 61.6146L358.578 61.6408L360.42 63.3301ZM366.817 56.7383L368.611 58.4793L368.651 58.4377L368.69 58.3943L366.817 56.7383ZM368.233 38.7695L366.39 40.4588L366.397 40.4666L366.404 40.4742L368.233 38.7695ZM349.385 45.5566V48.0566H351.885V45.5566H349.385ZM340.352 45.5566L337.852 45.5258L337.821 48.0566H340.352V45.5566ZM345.967 32.8125L347.615 34.6929L347.616 34.6919L345.967 32.8125ZM374.776 32.9102L373.034 34.7034L373.043 34.7118L373.051 34.7201L374.776 32.9102ZM372.042 63.3301L373.801 65.106L373.827 65.0807L373.851 65.0547L372.042 63.3301ZM366.719 68.6035L364.96 66.8276L364.909 66.8774L364.862 66.9298L366.719 68.6035ZM363.155 79.9805V82.4805H365.655V79.9805H363.155ZM355.049 91.7969L353.194 90.1212L353.191 90.1245L355.049 91.7969ZM363.057 91.7969L361.202 93.4726L361.216 93.4877L361.229 93.5027L363.057 91.7969ZM363.057 99.1211L364.856 100.858L364.87 100.842L364.885 100.827L363.057 99.1211ZM355.049 99.1211L353.191 100.794L353.22 100.826L353.251 100.858L355.049 99.1211ZM356.621 80.0225C356.684 76.2755 357.111 73.5279 357.79 71.6524L353.089 69.9492C352.141 72.5658 351.689 75.938 351.622 79.9385L356.621 80.0225ZM357.79 71.6524C358.447 69.8394 359.87 67.6307 362.263 65.0194L358.578 61.6408C355.958 64.4982 354.06 67.2699 353.089 69.9492L357.79 71.6524ZM362.215 65.0711L368.611 58.4793L365.023 54.9973L358.626 61.5891L362.215 65.0711ZM368.69 58.3943C371.758 54.9241 373.418 51.0336 373.418 46.7773H368.418C368.418 49.6174 367.344 52.3676 364.944 55.0823L368.69 58.3943ZM373.418 46.7773C373.418 42.9235 372.401 39.5745 370.062 37.0648L366.404 40.4742C367.645 41.8057 368.418 43.7953 368.418 46.7773H373.418ZM370.076 37.0802C367.684 34.4706 364.324 33.3398 360.42 33.3398V38.3398C363.353 38.3398 365.201 39.1622 366.39 40.4588L370.076 37.0802ZM360.42 33.3398C356.647 33.3398 353.346 34.3482 350.771 36.5914L354.055 40.3618C355.516 39.0893 357.553 38.3398 360.42 38.3398V33.3398ZM350.771 36.5914C348.145 38.878 346.885 41.9581 346.885 45.5566H351.885C351.885 43.2307 352.644 41.5907 354.055 40.3618L350.771 36.5914ZM349.385 43.0566H340.352V48.0566H349.385V43.0566ZM342.852 45.5875C342.909 40.9611 344.515 37.4083 347.615 34.6929L344.32 30.9321C340.062 34.662 337.925 39.6053 337.852 45.5258L342.852 45.5875ZM347.616 34.6919C350.783 31.9135 354.975 30.4297 360.42 30.4297V25.4297C354.017 25.4297 348.573 27.2011 344.319 30.9331L347.616 34.6919ZM360.42 30.4297C366.119 30.4297 370.207 31.9572 373.034 34.7034L376.518 31.117C372.509 27.2225 367.026 25.4297 360.42 25.4297V30.4297ZM373.051 34.7201C375.905 37.4395 377.452 41.2529 377.452 46.4844H382.452C382.452 40.1924 380.547 34.9563 376.5 31.1002L373.051 34.7201ZM377.452 46.4844C377.452 51.3447 375.217 56.3738 370.232 61.6054L373.851 65.0547C379.413 59.2186 382.452 53.0173 382.452 46.4844H377.452ZM370.282 61.5542L364.96 66.8276L368.479 70.3794L373.801 65.106L370.282 61.5542ZM364.862 66.9298C361.934 70.1794 360.655 74.6582 360.655 79.9805H365.655C365.655 75.4069 366.752 72.3011 368.576 70.2772L364.862 66.9298ZM363.155 77.4805H354.122V82.4805H363.155V77.4805ZM356.231 95.459C356.231 94.5353 356.49 93.933 356.908 93.4693L353.191 90.1245C351.851 91.6139 351.231 93.453 351.231 95.459H356.231ZM356.905 93.4726C357.212 93.1318 357.783 92.7832 359.053 92.7832V87.7832C356.808 87.7832 354.709 88.4437 353.194 90.1212L356.905 93.4726ZM359.053 92.7832C360.324 92.7832 360.894 93.1318 361.202 93.4726L364.912 90.1212C363.397 88.4437 361.298 87.7832 359.053 87.7832V92.7832ZM361.229 93.5027C361.666 93.9698 361.924 94.5608 361.924 95.459H366.924C366.924 93.4275 366.272 91.577 364.885 90.0911L361.229 93.5027ZM361.924 95.459C361.924 96.3571 361.666 96.9481 361.229 97.4153L364.885 100.827C366.272 99.3409 366.924 97.4905 366.924 95.459H361.924ZM361.259 97.3846C360.962 97.6921 360.372 98.0371 359.053 98.0371V103.037C361.25 103.037 363.33 102.438 364.856 100.858L361.259 97.3846ZM359.053 98.0371C357.735 98.0371 357.145 97.6921 356.848 97.3846L353.251 100.858C354.777 102.438 356.856 103.037 359.053 103.037V98.0371ZM356.908 97.4487C356.49 96.985 356.231 96.3827 356.231 95.459H351.231C351.231 97.465 351.851 99.3041 353.191 100.794L356.908 97.4487Z" fill="#662D91"/>
<path d="M251.24 265.526C251.24 267.95 249.257 269.934 246.834 269.934H102.172C99.7484 269.934 97.7655 267.95 97.7655 265.526V171.33C97.7655 168.905 99.7484 166.922 102.172 166.922H246.834C249.257 166.922 251.24 168.905 251.24 171.33V265.526Z" fill="#E1F4FD"/>
<path d="M251.24 175.958C251.24 178.382 249.257 180.366 246.834 180.366H102.172C99.7484 180.366 97.7655 178.382 97.7655 175.958V171.33C97.7655 168.905 99.7484 166.922 102.172 166.922H246.834C249.257 166.922 251.24 168.905 251.24 171.33V175.958Z" fill="#6D6E71"/>
<path d="M243.397 211.574C243.397 213.998 241.414 215.982 238.99 215.982H147.117C144.693 215.982 142.711 213.998 142.711 211.574V193.502C142.711 191.077 144.693 189.094 147.117 189.094H238.99C241.414 189.094 243.397 191.077 243.397 193.502V211.574Z" fill="url(#paint0_linear)"/>
<path d="M242.912 233.833C242.912 234.274 240.929 234.627 238.506 234.627H110.632C108.208 234.627 106.226 234.274 106.226 233.833C106.226 233.393 108.208 233.04 110.632 233.04H238.506C240.929 233.04 242.912 233.393 242.912 233.833Z" fill="#C7C8CA"/>
<path d="M242.912 241.238C242.912 241.679 240.929 242.032 238.506 242.032H110.632C108.208 242.032 106.226 241.679 106.226 241.238C106.226 240.798 108.208 240.445 110.632 240.445H238.506C240.929 240.489 242.912 240.842 242.912 241.238Z" fill="#C7C8CA"/>
<path d="M242.736 249.922C242.736 250.363 240.753 250.716 238.329 250.716H110.456C108.032 250.716 106.049 250.363 106.049 249.922C106.049 249.482 108.032 249.129 110.456 249.129H238.329C240.753 249.129 242.736 249.482 242.736 249.922Z" fill="#C7C8CA"/>
<path d="M242.736 258.473C242.736 258.914 240.753 259.267 238.329 259.267H110.456C108.032 259.267 106.049 258.914 106.049 258.473C106.049 258.033 108.032 257.68 110.456 257.68H238.329C240.753 257.68 242.736 258.033 242.736 258.473Z" fill="#C7C8CA"/>
<path d="M121.604 220.037C130.608 220.037 137.908 212.735 137.908 203.728C137.908 194.721 130.608 187.419 121.604 187.419C112.6 187.419 105.3 194.721 105.3 203.728C105.3 212.735 112.6 220.037 121.604 220.037Z" fill="url(#paint1_linear)"/>
<path d="M582.91 278.573C582.91 280.997 580.927 282.981 578.503 282.981H436.705C434.282 282.981 432.299 280.997 432.299 278.573V186.272C432.299 183.848 434.282 181.864 436.705 181.864H578.503C580.927 181.864 582.91 183.848 582.91 186.272V278.573Z" fill="#E1F4FD"/>
<path d="M582.91 190.68C582.91 193.104 580.927 195.088 578.503 195.088H436.705C434.282 195.088 432.299 193.104 432.299 190.68V186.272C432.299 183.848 434.282 181.864 436.705 181.864H578.503C580.927 181.864 582.91 183.848 582.91 186.272V190.68Z" fill="#6D6E71"/>
<path d="M525.627 271.962C525.627 274.386 523.644 276.37 521.22 276.37H487.423C485 276.37 483.017 274.386 483.017 271.962V238.374C483.017 235.949 485 233.966 487.423 233.966H521.22C523.644 233.966 525.627 235.949 525.627 238.374V271.962Z" fill="url(#paint2_linear)"/>
<path d="M271.818 137.036C271.818 139.461 269.835 141.444 267.412 141.444H213.433C211.01 141.444 209.027 139.461 209.027 137.036V114.6C209.027 112.176 211.01 110.192 213.433 110.192H267.412C269.835 110.192 271.818 112.176 271.818 114.6V137.036Z" fill="url(#paint3_linear)"/>
<path d="M476.055 165.732C476.055 168.156 474.072 170.14 471.648 170.14H440.363C437.939 170.14 435.957 168.156 435.957 165.732V115.041C435.957 112.617 437.939 110.633 440.363 110.633H471.648C474.072 110.633 476.055 112.617 476.055 115.041V165.732Z" fill="#D1D3D4"/>
<path d="M574.45 271.962C574.45 274.386 572.467 276.37 570.043 276.37H536.246C533.822 276.37 531.84 274.386 531.84 271.962V238.374C531.84 235.949 533.822 233.966 536.246 233.966H570.043C572.467 233.966 574.45 235.949 574.45 238.374V271.962Z" fill="url(#paint4_linear)"/>
<path d="M577.005 207.871C577.005 208.312 575.022 208.665 572.599 208.665H483.942C481.519 208.665 479.536 208.312 479.536 207.871C479.536 207.431 481.519 207.078 483.942 207.078H572.599C575.022 207.078 577.005 207.431 577.005 207.871Z" fill="#C7C8CA"/>
<path d="M577.137 216.334C577.137 216.775 575.155 217.127 572.731 217.127H484.074C481.651 217.127 479.668 216.775 479.668 216.334C479.668 215.893 481.651 215.541 484.074 215.541H572.731C575.155 215.585 577.137 215.937 577.137 216.334Z" fill="#C7C8CA"/>
<path d="M576.873 224.4C576.873 224.841 574.89 225.194 572.467 225.194H483.81C481.386 225.194 479.403 224.841 479.403 224.4C479.403 223.96 481.386 223.607 483.81 223.607H572.467C574.89 223.607 576.873 223.96 576.873 224.4Z" fill="#C7C8CA"/>
<path d="M456.358 233.04C465.192 233.04 472.353 225.876 472.353 217.039C472.353 208.203 465.192 201.039 456.358 201.039C447.524 201.039 440.363 208.203 440.363 217.039C440.363 225.876 447.524 233.04 456.358 233.04Z" fill="url(#paint5_linear)"/>
<path d="M173.511 323.137C180.885 323.137 186.863 317.157 186.863 309.781C186.863 302.405 180.885 296.425 173.511 296.425C166.138 296.425 160.16 302.405 160.16 309.781C160.16 317.157 166.138 323.137 173.511 323.137Z" fill="url(#paint6_linear)"/>
<path d="M157.692 298.277C161.757 298.277 165.051 294.981 165.051 290.916C165.051 286.85 161.757 283.554 157.692 283.554C153.628 283.554 150.334 286.85 150.334 290.916C150.334 294.981 153.628 298.277 157.692 298.277Z" fill="url(#paint7_linear)"/>
<path d="M175.538 282.629C177.85 282.629 179.724 280.754 179.724 278.441C179.724 276.129 177.85 274.254 175.538 274.254C173.226 274.254 171.352 276.129 171.352 278.441C171.352 280.754 173.226 282.629 175.538 282.629Z" fill="url(#paint8_linear)"/>
<path d="M89.1288 256.358C90.9296 256.358 92.3895 254.897 92.3895 253.096C92.3895 251.294 90.9296 249.834 89.1288 249.834C87.3279 249.834 85.868 251.294 85.868 253.096C85.868 254.897 87.3279 256.358 89.1288 256.358Z" fill="url(#paint9_linear)"/>
<path d="M588.991 273.107C590.353 273.107 591.458 272.002 591.458 270.639C591.458 269.276 590.353 268.171 588.991 268.171C587.628 268.171 586.523 269.276 586.523 270.639C586.523 272.002 587.628 273.107 588.991 273.107Z" fill="url(#paint10_linear)"/>
<path d="M256.924 94.4563C264.298 94.4563 270.276 88.4766 270.276 81.1004C270.276 73.7241 264.298 67.7445 256.924 67.7445C249.551 67.7445 243.573 73.7241 243.573 81.1004C243.573 88.4766 249.551 94.4563 256.924 94.4563Z" fill="#D1D3D4"/>
<path d="M236.038 96.8805C239.542 96.8805 242.383 94.0387 242.383 90.5331C242.383 87.0276 239.542 84.1858 236.038 84.1858C232.534 84.1858 229.693 87.0276 229.693 90.5331C229.693 94.0387 232.534 96.8805 236.038 96.8805Z" fill="#D1D3D4"/>
<path d="M434.502 106.754C438.007 106.754 440.847 103.912 440.847 100.407C440.847 96.9014 438.007 94.0596 434.502 94.0596C430.998 94.0596 428.157 96.9014 428.157 100.407C428.157 103.912 430.998 106.754 434.502 106.754Z" fill="#D1D3D4"/>
<path d="M574.934 314.277C578.439 314.277 581.28 311.436 581.28 307.93C581.28 304.425 578.439 301.583 574.934 301.583C571.43 301.583 568.589 304.425 568.589 307.93C568.589 311.436 571.43 314.277 574.934 314.277Z" fill="#D1D3D4"/>
<path d="M147.073 313.528C150.577 313.528 153.418 310.686 153.418 307.181C153.418 303.675 150.577 300.833 147.073 300.833C143.569 300.833 140.728 303.675 140.728 307.181C140.728 310.686 143.569 313.528 147.073 313.528Z" fill="#D1D3D4"/>
<path d="M248.288 104.33C250.016 104.33 251.417 102.929 251.417 101.2C251.417 99.4718 250.016 98.0707 248.288 98.0707C246.56 98.0707 245.16 99.4718 245.16 101.2C245.16 102.929 246.56 104.33 248.288 104.33Z" fill="#D1D3D4"/>
<path d="M267.544 150.965C269.272 150.965 270.672 149.564 270.672 147.836C270.672 146.107 269.272 144.706 267.544 144.706C265.816 144.706 264.415 146.107 264.415 147.836C264.415 149.564 265.816 150.965 267.544 150.965Z" fill="#D1D3D4"/>
<path d="M447.766 105.3C449.494 105.3 450.894 103.899 450.894 102.17C450.894 100.442 449.494 99.0405 447.766 99.0405C446.038 99.0405 444.637 100.442 444.637 102.17C444.637 103.899 446.038 105.3 447.766 105.3Z" fill="#D1D3D4"/>
<path d="M507.164 292.458C508.892 292.458 510.292 291.057 510.292 289.329C510.292 287.6 508.892 286.199 507.164 286.199C505.436 286.199 504.035 287.6 504.035 289.329C504.035 291.057 505.436 292.458 507.164 292.458Z" fill="#D1D3D4"/>
<path d="M426.394 169.126C428.122 169.126 429.523 167.725 429.523 165.996C429.523 164.268 428.122 162.867 426.394 162.867C424.666 162.867 423.266 164.268 423.266 165.996C423.266 167.725 424.666 169.126 426.394 169.126Z" fill="#D1D3D4"/>
<path d="M154.3 279.984C156.027 279.984 157.428 278.583 157.428 276.854C157.428 275.126 156.027 273.725 154.3 273.725C152.572 273.725 151.171 275.126 151.171 276.854C151.171 278.583 152.572 279.984 154.3 279.984Z" fill="#D1D3D4"/>
<path d="M266.663 66.6426C268.391 66.6426 269.791 65.2415 269.791 63.513C269.791 61.7846 268.391 60.3834 266.663 60.3834C264.935 60.3834 263.534 61.7846 263.534 63.513C263.534 65.2415 264.935 66.6426 266.663 66.6426Z" fill="#D1D3D4"/>
<path d="M563.566 175.385C568.287 175.385 572.114 171.556 572.114 166.834C572.114 162.111 568.287 158.282 563.566 158.282C558.844 158.282 555.017 162.111 555.017 166.834C555.017 171.556 558.844 175.385 563.566 175.385Z" fill="url(#paint11_linear)"/>
<path d="M544.926 168.289C548.017 168.289 550.523 165.782 550.523 162.691C550.523 159.599 548.017 157.093 544.926 157.093C541.836 157.093 539.33 159.599 539.33 162.691C539.33 165.782 541.836 168.289 544.926 168.289Z" fill="url(#paint12_linear)"/>
<path d="M265.958 108.209C269.048 108.209 271.554 105.703 271.554 102.611C271.554 99.5194 269.048 97.0131 265.958 97.0131C262.867 97.0131 260.362 99.5194 260.362 102.611C260.362 105.703 262.867 108.209 265.958 108.209Z" fill="url(#paint13_linear)"/>
<path d="M554.488 156.74C556.898 156.74 558.851 154.786 558.851 152.376C558.851 149.966 556.898 148.012 554.488 148.012C552.079 148.012 550.126 149.966 550.126 152.376C550.126 154.786 552.079 156.74 554.488 156.74Z" fill="url(#paint14_linear)"/>
<path d="M456.27 140.298C463.644 140.298 469.621 134.319 469.621 126.942C469.621 119.566 463.644 113.586 456.27 113.586C448.896 113.586 442.919 119.566 442.919 126.942C442.919 134.319 448.896 140.298 456.27 140.298Z" fill="white"/>
<path d="M503.507 263.983C510.88 263.983 516.858 258.004 516.858 250.627C516.858 243.251 510.88 237.271 503.507 237.271C496.133 237.271 490.155 243.251 490.155 250.627C490.155 258.004 496.133 263.983 503.507 263.983Z" fill="white"/>
<path d="M552.153 263.499C559.527 263.499 565.504 257.519 565.504 250.143C565.504 242.766 559.527 236.787 552.153 236.787C544.779 236.787 538.802 242.766 538.802 250.143C538.802 257.519 544.779 263.499 552.153 263.499Z" fill="white"/>
<path d="M425.337 153.478C425.337 155.902 423.354 157.886 420.931 157.886H279.133C276.709 157.886 274.726 155.902 274.726 153.478V61.1769C274.726 58.7526 276.709 56.769 279.133 56.769H420.931C423.354 56.769 425.337 58.7526 425.337 61.1769V153.478V153.478Z" fill="#E1F4FD"/>
<path d="M425.337 65.5848C425.337 68.0091 423.354 69.9927 420.931 69.9927H279.133C276.709 69.9927 274.726 68.0091 274.726 65.5848V61.1769C274.726 58.7526 276.709 56.769 279.133 56.769H420.931C423.354 56.769 425.337 58.7526 425.337 61.1769V65.5848V65.5848Z" fill="#6D6E71"/>
<path d="M416.921 146.866C416.921 149.29 414.938 151.274 412.515 151.274H326.678C324.254 151.274 322.271 149.29 322.271 146.866V113.278C322.271 110.853 324.254 108.87 326.678 108.87H412.515C414.938 108.87 416.921 110.853 416.921 113.278V146.866Z" fill="url(#paint15_linear)"/>
<path d="M565.461 310.575C565.461 312.999 563.478 314.983 561.054 314.983H516.77C514.346 314.983 512.364 312.999 512.364 310.575V295.632C512.364 293.208 514.346 291.224 516.77 291.224H561.054C563.478 291.224 565.461 293.208 565.461 295.632V310.575Z" fill="url(#paint16_linear)"/>
<path d="M146.456 295.323C146.456 297.748 144.473 299.731 142.05 299.731H97.7653C95.3418 299.731 93.3589 297.748 93.3589 295.323V280.381C93.3589 277.956 95.3418 275.973 97.7653 275.973H142.05C144.473 275.973 146.456 277.956 146.456 280.381V295.323Z" fill="#D1D3D4"/>
<path d="M144.165 282.849C144.165 285.009 142.182 286.772 139.758 286.772H99.7481C97.3246 286.772 95.3417 285.009 95.3417 282.849C95.3417 280.689 97.3246 278.926 99.7481 278.926H139.758C142.182 278.882 144.165 280.689 144.165 282.849Z" fill="white"/>
<path d="M419.476 82.9076C419.476 83.3925 417.493 83.8333 415.07 83.8333H326.369C323.946 83.8333 321.963 83.4365 321.963 82.9076C321.963 82.3786 323.946 81.9819 326.369 81.9819H415.026C417.493 81.9819 419.476 82.3786 419.476 82.9076Z" fill="#C7C8CA"/>
<path d="M419.741 89.3871C419.741 89.8719 417.758 90.3127 415.335 90.3127H326.634C324.21 90.3127 322.227 89.916 322.227 89.3871C322.227 88.9022 324.21 88.4614 326.634 88.4614H415.29C417.758 88.5055 419.741 88.9022 419.741 89.3871Z" fill="#C7C8CA"/>
<path d="M419.741 96.5721C419.741 97.057 417.758 97.4978 415.335 97.4978H326.634C324.21 97.4978 322.227 97.1011 322.227 96.5721C322.227 96.0873 324.21 95.6465 326.634 95.6465H415.29C417.758 95.6465 419.741 96.0432 419.741 96.5721Z" fill="#C7C8CA"/>
<path d="M471.295 144.574C471.295 144.971 469.313 145.323 466.889 145.323H445.738C443.315 145.323 441.332 144.971 441.332 144.574C441.332 144.177 443.315 143.825 445.738 143.825H466.889C469.313 143.825 471.295 144.133 471.295 144.574Z" fill="white"/>
<path d="M471.295 148.453C471.295 148.85 469.313 149.202 466.889 149.202H445.738C443.315 149.202 441.332 148.85 441.332 148.453C441.332 148.056 443.315 147.704 445.738 147.704H466.889C469.313 147.704 471.295 148.012 471.295 148.453Z" fill="white"/>
<path d="M471.295 152.817C471.295 153.213 469.313 153.566 466.889 153.566H445.738C443.315 153.566 441.332 153.213 441.332 152.817C441.332 152.42 443.315 152.067 445.738 152.067H466.889C469.313 152.023 471.295 152.376 471.295 152.817Z" fill="white"/>
<path d="M471.295 157.269C471.295 157.665 469.313 158.018 466.889 158.018H445.738C443.315 158.018 441.332 157.665 441.332 157.269C441.332 156.872 443.315 156.519 445.738 156.519H466.889C469.313 156.519 471.295 156.828 471.295 157.269Z" fill="white"/>
<path d="M471.295 161.897C471.295 162.293 469.313 162.646 466.889 162.646H445.738C443.315 162.646 441.332 162.293 441.332 161.897C441.332 161.5 443.315 161.147 445.738 161.147H466.889C469.313 161.147 471.295 161.5 471.295 161.897Z" fill="white"/>
<path d="M567.884 268.435C567.884 268.876 565.901 269.273 563.478 269.273H542.327C539.904 269.273 537.921 268.92 537.921 268.435C537.921 267.994 539.904 267.598 542.327 267.598H563.478C565.901 267.598 567.884 267.994 567.884 268.435Z" fill="white"/>
<path d="M518.797 268.479C518.797 268.964 516.814 269.316 514.39 269.316H493.24C490.816 269.316 488.833 268.92 488.833 268.479C488.833 267.994 490.816 267.642 493.24 267.642H514.39C516.814 267.597 518.797 267.994 518.797 268.479Z" fill="white"/>
<path d="M264.812 117.862C264.812 118.259 262.829 118.567 260.405 118.567H221.717C219.294 118.567 217.311 118.259 217.311 117.862C217.311 117.465 219.294 117.157 221.717 117.157H260.405C262.829 117.157 264.812 117.465 264.812 117.862Z" fill="white"/>
<path d="M265.561 121.873C265.561 122.27 263.578 122.578 261.155 122.578H222.466C220.043 122.578 218.06 122.27 218.06 121.873C218.06 121.476 220.043 121.168 222.466 121.168H261.155C263.578 121.124 265.561 121.476 265.561 121.873Z" fill="white"/>
<path d="M265.561 128.661C265.561 129.058 263.578 129.367 261.155 129.367H222.466C220.043 129.367 218.06 129.058 218.06 128.661C218.06 128.265 220.043 127.956 222.466 127.956H261.155C263.578 127.912 265.561 128.265 265.561 128.661Z" fill="white"/>
<path d="M265.561 132.408C265.561 132.805 263.578 133.113 261.155 133.113H222.466C220.043 133.113 218.06 132.805 218.06 132.408C218.06 132.011 220.043 131.703 222.466 131.703H261.155C263.578 131.659 265.561 132.011 265.561 132.408Z" fill="white"/>
<path d="M562.773 295.676C562.773 296.073 560.79 296.381 558.366 296.381H519.766C517.343 296.381 515.36 296.073 515.36 295.676C515.36 295.279 517.343 294.971 519.766 294.971H558.366C560.79 294.927 562.773 295.279 562.773 295.676Z" fill="white"/>
<path d="M563.478 299.643C563.478 300.04 561.495 300.349 559.071 300.349H520.471C518.048 300.349 516.065 300.04 516.065 299.643C516.065 299.247 518.048 298.938 520.471 298.938H559.071C561.495 298.894 563.478 299.247 563.478 299.643Z" fill="white"/>
<path d="M563.478 306.387C563.478 306.784 561.495 307.093 559.071 307.093H520.471C518.048 307.093 516.065 306.784 516.065 306.387C516.065 305.991 518.048 305.682 520.471 305.682H559.071C561.495 305.682 563.478 306.035 563.478 306.387Z" fill="white"/>
<path d="M563.478 310.134C563.478 310.531 561.495 310.839 559.071 310.839H520.471C518.048 310.839 516.065 310.531 516.065 310.134C516.065 309.737 518.048 309.429 520.471 309.429H559.071C561.495 309.429 563.478 309.737 563.478 310.134Z" fill="white"/>
<path d="M236.082 195.265C236.082 195.705 234.099 196.102 231.676 196.102H152.361C149.937 196.102 147.954 195.705 147.954 195.265C147.954 194.824 149.937 194.427 152.361 194.427H231.72C234.099 194.427 236.082 194.78 236.082 195.265Z" fill="white"/>
<path d="M236.082 202.008C236.082 202.449 234.099 202.846 231.676 202.846H152.361C149.937 202.846 147.954 202.449 147.954 202.008C147.954 201.568 149.937 201.171 152.361 201.171H231.72C234.099 201.171 236.082 201.568 236.082 202.008Z" fill="white"/>
<path d="M236.258 208.753C236.258 209.193 234.276 209.59 231.852 209.59H152.537C150.113 209.59 148.13 209.193 148.13 208.753C148.13 208.312 150.113 207.915 152.537 207.915H231.896C234.276 207.915 236.258 208.312 236.258 208.753Z" fill="white"/>
<path d="M413.484 116.408C413.484 116.892 411.501 117.333 409.077 117.333H329.718C327.294 117.333 325.312 116.937 325.312 116.408C325.312 115.879 327.294 115.482 329.718 115.482H409.077C411.501 115.482 413.484 115.879 413.484 116.408Z" fill="white"/>
<path d="M413.484 122.27C413.484 122.755 411.501 123.196 409.077 123.196H329.718C327.294 123.196 325.312 122.799 325.312 122.27C325.312 121.741 327.294 121.344 329.718 121.344H409.077C411.501 121.344 413.484 121.741 413.484 122.27Z" fill="white"/>
<path d="M413.484 128.882C413.484 129.367 411.501 129.807 409.077 129.807H329.718C327.294 129.807 325.312 129.411 325.312 128.882C325.312 128.397 327.294 127.956 329.718 127.956H409.077C411.501 127.956 413.484 128.353 413.484 128.882Z" fill="white"/>
<path d="M413.484 142.282C413.484 142.767 411.501 143.208 409.077 143.208H329.718C327.294 143.208 325.312 142.811 325.312 142.282C325.312 141.797 327.294 141.356 329.718 141.356H409.077C411.501 141.356 413.484 141.753 413.484 142.282Z" fill="white"/>
<path d="M413.396 136.067C413.396 136.552 411.413 136.992 408.989 136.992H329.63C327.207 136.992 325.224 136.596 325.224 136.067C325.224 135.538 327.207 135.141 329.63 135.141H408.989C411.413 135.141 413.396 135.538 413.396 136.067Z" fill="white"/>
<path d="M298.829 107.944C307.663 107.944 314.825 100.781 314.825 91.9437C314.825 83.1068 307.663 75.9431 298.829 75.9431C289.995 75.9431 282.834 83.1068 282.834 91.9437C282.834 100.781 289.995 107.944 298.829 107.944Z" fill="url(#paint17_linear)"/>
<path d="M215.504 114.38C215.504 116.804 213.521 118.788 211.098 118.788H163.994C161.57 118.788 159.587 116.804 159.587 114.38V109.091C159.587 106.666 161.57 104.683 163.994 104.683H211.098C213.521 104.683 215.504 106.666 215.504 109.091V114.38Z" fill="url(#paint18_linear)"/>
<path d="M219.338 99.393C219.338 100.759 217.355 101.861 214.932 101.861H193.296C190.873 101.861 188.89 100.759 188.89 99.393C188.89 98.0265 190.873 96.9246 193.296 96.9246H214.932C217.355 96.9246 219.338 98.0265 219.338 99.393Z" fill="url(#paint19_linear)"/>
<path d="M186.819 101.2C186.819 101.773 184.836 102.214 182.412 102.214H169.061C166.637 102.214 164.654 101.773 164.654 101.2C164.654 100.627 166.637 100.187 169.061 100.187H182.412C184.836 100.187 186.819 100.672 186.819 101.2Z" fill="url(#paint20_linear)"/>
<path d="M171.22 121.565C171.22 122.138 169.237 122.579 166.814 122.579H153.462C151.039 122.579 149.056 122.138 149.056 121.565C149.056 120.992 151.039 120.551 153.462 120.551H166.814C169.237 120.551 171.22 120.992 171.22 121.565Z" fill="url(#paint21_linear)"/>
<path d="M509.323 176.31C509.323 176.883 507.34 177.324 504.917 177.324H491.565C489.142 177.324 487.159 176.883 487.159 176.31C487.159 175.737 489.142 175.297 491.565 175.297H504.917C507.34 175.297 509.323 175.737 509.323 176.31Z" fill="url(#paint22_linear)"/>
<path d="M509.323 128.75C509.323 129.323 507.34 129.764 504.917 129.764H491.565C489.142 129.764 487.159 129.323 487.159 128.75C487.159 128.177 489.142 127.736 491.565 127.736H504.917C507.34 127.736 509.323 128.221 509.323 128.75Z" fill="url(#paint23_linear)"/>
<path d="M75.1166 257.416C75.1166 257.989 73.1337 258.43 70.7102 258.43H57.3588C54.9353 258.43 52.9524 257.989 52.9524 257.416C52.9524 256.843 54.9353 256.402 57.3588 256.402H70.7102C73.1337 256.358 75.1166 256.843 75.1166 257.416Z" fill="url(#paint24_linear)"/>
<path d="M519.854 116.76C519.854 117.333 517.871 117.774 515.448 117.774H515.007C512.583 117.774 510.601 117.333 510.601 116.76C510.601 116.187 512.583 115.746 515.007 115.746H515.448C517.871 115.746 519.854 116.187 519.854 116.76Z" fill="url(#paint25_linear)"/>
<path d="M521.617 146.998C521.617 147.571 519.634 148.012 517.211 148.012H516.77C514.346 148.012 512.364 147.571 512.364 146.998C512.364 146.425 514.346 145.984 516.77 145.984H517.211C519.634 145.984 521.617 146.425 521.617 146.998Z" fill="url(#paint26_linear)"/>
<path d="M567.84 287.345C567.84 287.918 565.857 288.359 563.433 288.359H562.993C560.569 288.359 558.586 287.918 558.586 287.345C558.586 286.772 560.569 286.331 562.993 286.331H563.433C565.857 286.331 567.84 286.816 567.84 287.345Z" fill="url(#paint27_linear)"/>
<path d="M114.157 273.284C114.157 273.857 112.174 274.298 109.751 274.298H109.31C106.887 274.298 104.904 273.857 104.904 273.284C104.904 272.711 106.887 272.27 109.31 272.27H109.751C112.174 272.27 114.157 272.755 114.157 273.284Z" fill="url(#paint28_linear)"/>
<path d="M225.815 104.462C225.815 105.035 223.832 105.476 221.409 105.476H220.968C218.545 105.476 216.562 105.035 216.562 104.462C216.562 103.889 218.545 103.448 220.968 103.448H221.409C223.832 103.404 225.815 103.889 225.815 104.462Z" fill="url(#paint29_linear)"/>
<path d="M59.2976 261.074C59.2976 261.647 57.3147 262.088 54.8912 262.088H54.4506C52.0271 262.088 50.0442 261.647 50.0442 261.074C50.0442 260.501 52.0271 260.06 54.4506 260.06H54.8912C57.3147 260.06 59.2976 260.501 59.2976 261.074Z" fill="url(#paint30_linear)"/>
<path d="M637.02 303.698C637.02 304.271 635.037 304.712 632.614 304.712H632.173C629.749 304.712 627.767 304.271 627.767 303.698C627.767 303.125 629.749 302.685 632.173 302.685H632.614C635.037 302.685 637.02 303.125 637.02 303.698Z" fill="url(#paint31_linear)"/>
<path d="M339.809 44.5592C339.809 45.1323 337.826 45.573 335.402 45.573H334.962C332.538 45.573 330.555 45.1323 330.555 44.5592C330.555 43.9862 332.538 43.5454 334.962 43.5454H335.402C337.826 43.5454 339.809 43.9862 339.809 44.5592Z" fill="url(#paint32_linear)"/>
<path d="M376.778 51.876C376.778 52.449 374.796 52.8898 372.372 52.8898H359.021C356.597 52.8898 354.614 52.449 354.614 51.876C354.614 51.303 356.597 50.8622 359.021 50.8622H372.372C374.796 50.8622 376.778 51.3471 376.778 51.876Z" fill="url(#paint33_linear)"/>
<path d="M188.493 162.602C188.493 163.175 186.51 163.616 184.087 163.616H170.735C168.312 163.616 166.329 163.175 166.329 162.602C166.329 162.029 168.312 161.588 170.735 161.588H184.087C186.51 161.588 188.493 162.029 188.493 162.602Z" fill="url(#paint34_linear)"/>
<path d="M642 299.335C642 299.908 640.017 300.348 637.593 300.348H624.242C621.818 300.348 619.835 299.908 619.835 299.335C619.835 298.762 621.818 298.321 624.242 298.321H637.593C640.017 298.321 642 298.806 642 299.335Z" fill="url(#paint35_linear)"/>
<path d="M80.4482 282.716C80.4482 284.083 78.4653 285.185 76.0418 285.185H54.4064C51.9829 285.185 50 284.083 50 282.716C50 281.35 51.9829 280.248 54.4064 280.248H76.0418C78.4653 280.248 80.4482 281.394 80.4482 282.716Z" fill="url(#paint36_linear)"/>
<path d="M519.281 122.843C519.281 124.21 517.299 125.312 514.875 125.312H493.24C490.816 125.312 488.833 124.21 488.833 122.843C488.833 121.477 490.816 120.375 493.24 120.375H514.875C517.299 120.419 519.281 121.521 519.281 122.843Z" fill="url(#paint37_linear)"/>
<path d="M623.933 304.315C623.933 305.682 621.951 306.784 619.527 306.784H597.892C595.468 306.784 593.485 305.682 593.485 304.315C593.485 302.949 595.468 301.847 597.892 301.847H619.527C621.951 301.847 623.933 302.949 623.933 304.315Z" fill="url(#paint38_linear)"/>
<path d="M508.927 113.983C508.927 116.408 506.944 118.391 504.52 118.391H472.706C470.282 118.391 468.3 116.408 468.3 113.983V111.647C468.3 109.223 470.282 107.239 472.706 107.239H504.52C506.944 107.239 508.927 109.223 508.927 111.647V113.983Z" fill="url(#paint39_linear)"/>
<path d="M617.06 293.825C617.06 296.249 615.077 298.233 612.653 298.233H576.036C573.613 298.233 571.63 296.249 571.63 293.825V282.893C571.63 280.469 573.613 278.485 576.036 278.485H612.653C615.077 278.485 617.06 280.469 617.06 282.893V293.825Z" fill="url(#paint40_linear)"/>
<path d="M101.687 273.504C101.687 275.929 99.704 277.912 97.2805 277.912H63.7038C61.2802 277.912 59.2974 275.929 59.2974 273.504V265.79C59.2974 263.366 61.2802 261.383 63.7038 261.383H97.2805C99.704 261.383 101.687 263.366 101.687 265.79V273.504Z" fill="url(#paint41_linear)"/>
<path d="M199.641 173.49C199.641 175.209 197.659 176.663 195.235 176.663H106.534C104.111 176.663 102.128 175.253 102.128 173.49C102.128 171.726 104.111 170.316 106.534 170.316H195.191C197.659 170.316 199.641 171.726 199.641 173.49Z" fill="#F1F2F2"/>
<path d="M244.146 176.575C245.728 176.575 247.01 175.292 247.01 173.71C247.01 172.127 245.728 170.845 244.146 170.845C242.564 170.845 241.282 172.127 241.282 173.71C241.282 175.292 242.564 176.575 244.146 176.575Z" fill="#F1F2F2"/>
<path d="M235.377 176.575C236.959 176.575 238.242 175.292 238.242 173.71C238.242 172.127 236.959 170.845 235.377 170.845C233.796 170.845 232.513 172.127 232.513 173.71C232.513 175.292 233.796 176.575 235.377 176.575Z" fill="#F1F2F2"/>
<path d="M225.903 176.619C227.485 176.619 228.767 175.336 228.767 173.754C228.767 172.172 227.485 170.889 225.903 170.889C224.321 170.889 223.039 172.172 223.039 173.754C223.039 175.336 224.321 176.619 225.903 176.619Z" fill="#F1F2F2"/>
<path d="M375.765 63.3808C375.765 65.0999 373.782 66.4663 371.359 66.4663H283.01C280.587 66.4663 278.604 65.0558 278.604 63.3808C278.604 61.7058 280.587 60.2953 283.01 60.2953H371.403C373.782 60.2953 375.765 61.6617 375.765 63.3808Z" fill="#F1F2F2"/>
<path d="M420.138 66.3341C421.719 66.3341 423.002 65.0908 423.002 63.5571C423.002 62.0234 421.719 60.7802 420.138 60.7802C418.556 60.7802 417.273 62.0234 417.273 63.5571C417.273 65.0908 418.556 66.3341 420.138 66.3341Z" fill="#F1F2F2"/>
<path d="M411.413 66.3341C412.995 66.3341 414.277 65.0908 414.277 63.5571C414.277 62.0234 412.995 60.7802 411.413 60.7802C409.831 60.7802 408.549 62.0234 408.549 63.5571C408.549 65.0908 409.831 66.3341 411.413 66.3341Z" fill="#F1F2F2"/>
<path d="M401.984 66.4223C403.565 66.4223 404.848 65.179 404.848 63.6454C404.848 62.1117 403.565 60.8684 401.984 60.8684C400.402 60.8684 399.119 62.1117 399.119 63.6454C399.119 65.179 400.402 66.4223 401.984 66.4223Z" fill="#F1F2F2"/>
<path d="M532.456 188.388C532.456 190.107 530.473 191.562 528.05 191.562H439.393C436.97 191.562 434.987 190.151 434.987 188.388C434.987 186.625 436.97 185.214 439.393 185.214H528.05C530.473 185.214 532.456 186.625 532.456 188.388Z" fill="#F1F2F2"/>
<path d="M576.961 191.473C578.543 191.473 579.825 190.191 579.825 188.608C579.825 187.026 578.543 185.743 576.961 185.743C575.379 185.743 574.097 187.026 574.097 188.608C574.097 190.191 575.379 191.473 576.961 191.473Z" fill="#F1F2F2"/>
<path d="M568.192 191.473C569.774 191.473 571.056 190.191 571.056 188.608C571.056 187.026 569.774 185.743 568.192 185.743C566.61 185.743 565.328 187.026 565.328 188.608C565.328 190.191 566.61 191.473 568.192 191.473Z" fill="#F1F2F2"/>
<path d="M558.719 191.518C560.301 191.518 561.583 190.235 561.583 188.652C561.583 187.07 560.301 185.787 558.719 185.787C557.137 185.787 555.854 187.07 555.854 188.652C555.854 190.235 557.137 191.518 558.719 191.518Z" fill="#F1F2F2"/>
<path d="M315.75 286.155C315.75 286.155 317.292 289.681 319.231 294.045C322.448 301.362 326.81 311.192 327.074 311.985C327.559 313.307 341.175 317.98 341.175 317.98C341.175 317.98 350.076 311.103 350.737 310.442C351.442 309.737 359.814 289.02 359.814 289.02C360.255 286.375 360.255 283.642 359.858 280.953C359.417 274.121 359.946 257.68 359.946 257.68L363.251 254.198L355.319 237.051C355.319 237.051 345.053 238.417 336.019 241.062C328.749 243.178 322.271 246.131 322.36 249.79C322.624 258.033 315.75 286.155 315.75 286.155Z" fill="#C8C8C8"/>
<path d="M315.75 287.345C315.75 287.345 317.292 289.77 319.275 292.811L324.519 290.916C325.62 285.582 327.163 280.293 329.145 275.224C331.261 270.816 340.69 271.301 340.69 271.301L344.656 261.03L335.975 256.226C328.705 257.68 322.227 259.708 322.36 262.264C322.58 267.862 315.75 287.345 315.75 287.345Z" fill="#C8C8C8"/>
<path d="M337.826 358.532C329.938 377.354 373.253 379.823 373.253 379.823C371.138 362.367 369.464 353.64 366.952 341.518C362.81 334.025 355.055 317.627 355.055 317.627L336.019 308.459C336.019 308.503 345.581 340.108 337.826 358.532Z" fill="#F2F2F2"/>
<path d="M298.08 321.197C298.08 321.197 286.359 353.683 280.146 360.339C277.546 362.94 274.682 365.056 271.642 366.598C269.923 367.524 268.029 367.656 266.31 366.951C264.592 366.246 263.182 364.747 262.3 362.763C262.3 362.719 262.256 362.719 262.256 362.675C261.816 361.617 261.551 360.427 261.463 359.237C260.89 351.347 260.978 340.812 264.327 332.922C264.592 332.349 264.812 331.732 265.076 331.159C266.927 326.751 268.513 322.74 269.835 319.346C272.523 312.249 274.021 307.753 274.021 307.753L290.281 303.478L291.118 305.373L298.08 321.197Z" fill="#C8C8C8"/>
<path d="M311.255 285.714C303.5 286.111 296.538 288.359 291.603 292.105C282.305 298.938 265.781 315.952 265.781 315.952C265.781 315.952 278.207 321.55 288.034 321.285L297.86 321.021L311.255 285.714Z" fill="url(#paint42_linear)"/>
<path d="M347.564 185.347C347.564 185.347 327.559 181.864 311.3 194.074C295.04 206.284 312.049 259.046 312.049 259.046C312.049 259.046 326.017 279.984 334.698 280.865C343.378 281.747 343.378 291.312 343.378 291.312C343.378 291.312 346.419 282.584 353.601 280.865C360.783 279.102 379.29 249.04 379.687 235.508C380.039 221.976 374.752 188.829 347.564 185.347Z" fill="#3D3D3E"/>
<path d="M334.212 186.052C334.212 186.052 322.051 188.565 318.261 175.429C318.261 175.429 314.251 185.876 323.901 197.292" fill="#3D3D3E"/>
<path d="M264.239 364.703C264.239 364.703 234.364 341.738 216.826 296.998C216.826 296.998 201.007 286.508 188.449 283.378C188.449 283.378 190.256 280.513 193.076 280.16C195.852 279.852 220.307 286.904 223.744 289.417C227.181 291.929 283.275 343.634 277.37 356.505C271.421 369.42 264.239 364.703 264.239 364.703Z" fill="#C8C8C8"/>
<path d="M378.982 322.255C378.982 322.255 387.883 355.844 393.391 362.984C395.726 365.805 398.326 368.141 401.146 369.949C402.732 371.007 404.539 371.315 406.257 370.742C407.976 370.169 409.474 368.803 410.443 366.863C410.443 366.863 410.487 366.819 410.487 366.775C411.016 365.761 411.369 364.615 411.501 363.381C412.647 355.535 413.352 344.912 410.708 336.713C410.531 336.096 410.311 335.479 410.135 334.906C408.681 330.366 407.447 326.178 406.434 322.652C404.363 315.335 403.261 310.663 403.261 310.663L387.839 305.065L386.869 306.916L378.982 322.255Z" fill="#C8C8C8"/>
<path d="M367.657 286.287C375.368 287.301 382.11 290.078 386.781 294.221C395.506 301.759 410.664 320.007 410.664 320.007C410.664 320.007 397.841 324.636 388.059 323.578L378.277 322.52L367.657 286.287Z" fill="url(#paint43_linear)"/>
<path d="M407.095 369.376C407.095 369.376 438.688 348.835 459.663 305.594C459.663 305.594 476.231 296.381 489.01 294.222C489.01 294.222 487.423 291.224 484.647 290.651C481.871 290.122 456.975 295.235 453.362 297.483C449.748 299.731 389.777 346.852 394.668 360.163C399.56 373.519 407.095 369.376 407.095 369.376Z" fill="#C8C8C8"/>
<path d="M260.273 432.496C260.273 432.496 283.803 446.822 325.268 446.998C360.915 447.175 404.054 433.422 404.054 433.422C404.054 433.422 404.451 429.807 399.383 391.679C398.898 387.933 398.37 384.362 397.841 380.836C395.329 364.13 392.553 350.201 389.601 338.608C374.972 280.557 357.17 280.557 357.17 280.557L353.689 279.984C339.853 277.559 325.444 279.455 313.238 285.317C310.462 286.551 307.994 288.182 306.012 290.21C294.687 303.39 260.273 432.496 260.273 432.496Z" fill="#F2F2F2"/>
<path d="M308.303 200.377C308.303 200.377 288.827 240.313 302.795 254.198C316.763 268.082 305.703 285.449 302.531 285.449C299.358 285.449 295.436 306.96 307.774 310.442C320.156 313.924 336.46 345.132 321.742 348.614C306.981 352.097 317.777 384.362 325.179 384.362C325.179 384.362 336.768 382.643 335.711 391.283C335.711 391.283 343.334 385.023 340.69 380.527C338.046 376.031 340.161 369.067 353.072 369.067C365.983 369.067 378.056 353.11 363.603 339.226C349.15 325.341 356.509 315.291 364.661 313.88C372.813 312.514 385.723 303.478 374.663 283.334C363.603 263.19 378.365 262.176 375.985 248.644C373.606 235.112 308.303 200.377 308.303 200.377Z" fill="#3D3D3E"/>
</g>
<defs>
<filter id="filter0_d" x="-4" y="-23" width="700" height="550" filterUnits="userSpaceOnUse" color-interpolation-filters="sRGB">
<feFlood flood-opacity="0" result="BackgroundImageFix"/>
<feColorMatrix in="SourceAlpha" type="matrix" values="0 0 0 0 0 0 0 0 0 0 0 0 0 0 0 0 0 0 127 0" result="hardAlpha"/>
<feOffset dy="25"/>
<feGaussianBlur stdDeviation="25"/>
<feColorMatrix type="matrix" values="0 0 0 0 0 0 0 0 0 0 0 0 0 0 0 0 0 0 0.25 0"/>
<feBlend mode="normal" in2="BackgroundImageFix" result="effect1_dropShadow"/>
<feBlend mode="normal" in="SourceGraphic" in2="effect1_dropShadow" result="shape"/>
</filter>
<linearGradient id="paint0_linear" x1="142.722" y1="202.535" x2="243.406" y2="202.535" gradientUnits="userSpaceOnUse">
<stop stop-color="#7FD1F5"/>
<stop offset="1" stop-color="#44B4E7"/>
</linearGradient>
<linearGradient id="paint1_linear" x1="105.307" y1="203.707" x2="137.935" y2="203.707" gradientUnits="userSpaceOnUse">
<stop stop-color="#7FD1F5"/>
<stop offset="1" stop-color="#44B4E7"/>
</linearGradient>
<linearGradient id="paint2_linear" x1="483.041" y1="255.173" x2="525.646" y2="255.173" gradientUnits="userSpaceOnUse">
<stop stop-color="#7FD1F5"/>
<stop offset="1" stop-color="#44B4E7"/>
</linearGradient>
<linearGradient id="paint3_linear" x1="209.007" y1="125.808" x2="271.796" y2="125.808" gradientUnits="userSpaceOnUse">
<stop stop-color="#7FD1F5"/>
<stop offset="1" stop-color="#44B4E7"/>
</linearGradient>
<linearGradient id="paint4_linear" x1="531.853" y1="255.173" x2="574.459" y2="255.173" gradientUnits="userSpaceOnUse">
<stop stop-color="#7FD1F5"/>
<stop offset="1" stop-color="#44B4E7"/>
</linearGradient>
<linearGradient id="paint5_linear" x1="440.347" y1="217.032" x2="472.364" y2="217.032" gradientUnits="userSpaceOnUse">
<stop stop-color="#7FD1F5"/>
<stop offset="1" stop-color="#44B4E7"/>
</linearGradient>
<linearGradient id="paint6_linear" x1="160.127" y1="309.802" x2="186.867" y2="309.802" gradientUnits="userSpaceOnUse">
<stop stop-color="#7FD1F5"/>
<stop offset="1" stop-color="#44B4E7"/>
</linearGradient>
<linearGradient id="paint7_linear" x1="150.338" y1="290.912" x2="165.078" y2="290.912" gradientUnits="userSpaceOnUse">
<stop stop-color="#7FD1F5"/>
<stop offset="1" stop-color="#44B4E7"/>
</linearGradient>
<linearGradient id="paint8_linear" x1="171.371" y1="278.456" x2="179.742" y2="278.456" gradientUnits="userSpaceOnUse">
<stop stop-color="#7FD1F5"/>
<stop offset="1" stop-color="#44B4E7"/>
</linearGradient>
<linearGradient id="paint9_linear" x1="85.8636" y1="253.078" x2="92.4262" y2="253.078" gradientUnits="userSpaceOnUse">
<stop stop-color="#7FD1F5"/>
<stop offset="1" stop-color="#44B4E7"/>
</linearGradient>
<linearGradient id="paint10_linear" x1="586.546" y1="270.626" x2="591.437" y2="270.626" gradientUnits="userSpaceOnUse">
<stop stop-color="#7FD1F5"/>
<stop offset="1" stop-color="#44B4E7"/>
</linearGradient>
<linearGradient id="paint11_linear" x1="555.049" y1="166.843" x2="572.112" y2="166.843" gradientUnits="userSpaceOnUse">
<stop stop-color="#7FD1F5"/>
<stop offset="1" stop-color="#44B4E7"/>
</linearGradient>
<linearGradient id="paint12_linear" x1="539.34" y1="162.675" x2="550.53" y2="162.675" gradientUnits="userSpaceOnUse">
<stop stop-color="#7FD1F5"/>
<stop offset="1" stop-color="#44B4E7"/>
</linearGradient>
<linearGradient id="paint13_linear" x1="260.352" y1="102.592" x2="271.543" y2="102.592" gradientUnits="userSpaceOnUse">
<stop stop-color="#7FD1F5"/>
<stop offset="1" stop-color="#44B4E7"/>
</linearGradient>
<linearGradient id="paint14_linear" x1="550.136" y1="152.381" x2="558.823" y2="152.381" gradientUnits="userSpaceOnUse">
<stop stop-color="#7FD1F5"/>
<stop offset="1" stop-color="#44B4E7"/>
</linearGradient>
<linearGradient id="paint15_linear" x1="322.267" y1="130.088" x2="416.917" y2="130.088" gradientUnits="userSpaceOnUse">
<stop stop-color="#7FD1F5"/>
<stop offset="1" stop-color="#44B4E7"/>
</linearGradient>
<linearGradient id="paint16_linear" x1="512.386" y1="303.098" x2="565.464" y2="303.098" gradientUnits="userSpaceOnUse">
<stop stop-color="#7FD1F5"/>
<stop offset="1" stop-color="#44B4E7"/>
</linearGradient>
<linearGradient id="paint17_linear" x1="282.805" y1="91.947" x2="314.822" y2="91.947" gradientUnits="userSpaceOnUse">
<stop stop-color="#7FD1F5"/>
<stop offset="1" stop-color="#44B4E7"/>
</linearGradient>
<linearGradient id="paint18_linear" x1="159.584" y1="111.735" x2="215.515" y2="111.735" gradientUnits="userSpaceOnUse">
<stop stop-color="#71459B"/>
<stop offset="0.8668" stop-color="#A76CAD"/>
</linearGradient>
<linearGradient id="paint19_linear" x1="188.892" y1="99.3835" x2="219.32" y2="99.3835" gradientUnits="userSpaceOnUse">
<stop stop-color="#71459B"/>
<stop offset="0.8668" stop-color="#A76CAD"/>
</linearGradient>
<linearGradient id="paint20_linear" x1="164.679" y1="101.22" x2="186.825" y2="101.22" gradientUnits="userSpaceOnUse">
<stop stop-color="#71459B"/>
<stop offset="0.8668" stop-color="#A76CAD"/>
</linearGradient>
<linearGradient id="paint21_linear" x1="149.055" y1="121.574" x2="171.202" y2="121.574" gradientUnits="userSpaceOnUse">
<stop stop-color="#71459B"/>
<stop offset="0.8668" stop-color="#A76CAD"/>
</linearGradient>
<linearGradient id="paint22_linear" x1="487.191" y1="176.307" x2="509.337" y2="176.307" gradientUnits="userSpaceOnUse">
<stop stop-color="#71459B"/>
<stop offset="0.8668" stop-color="#A76CAD"/>
</linearGradient>
<linearGradient id="paint23_linear" x1="487.191" y1="128.771" x2="509.337" y2="128.771" gradientUnits="userSpaceOnUse">
<stop stop-color="#71459B"/>
<stop offset="0.8668" stop-color="#A76CAD"/>
</linearGradient>
<linearGradient id="paint24_linear" x1="52.9664" y1="257.395" x2="75.1128" y2="257.395" gradientUnits="userSpaceOnUse">
<stop stop-color="#71459B"/>
<stop offset="0.8668" stop-color="#A76CAD"/>
</linearGradient>
<linearGradient id="paint25_linear" x1="510.62" y1="116.752" x2="519.869" y2="116.752" gradientUnits="userSpaceOnUse">
<stop stop-color="#71459B"/>
<stop offset="0.8668" stop-color="#A76CAD"/>
</linearGradient>
<linearGradient id="paint26_linear" x1="512.358" y1="147.003" x2="521.607" y2="147.003" gradientUnits="userSpaceOnUse">
<stop stop-color="#71459B"/>
<stop offset="0.8668" stop-color="#A76CAD"/>
</linearGradient>
<linearGradient id="paint27_linear" x1="558.609" y1="287.364" x2="567.859" y2="287.364" gradientUnits="userSpaceOnUse">
<stop stop-color="#71459B"/>
<stop offset="0.8668" stop-color="#A76CAD"/>
</linearGradient>
<linearGradient id="paint28_linear" x1="104.898" y1="273.305" x2="114.147" y2="273.305" gradientUnits="userSpaceOnUse">
<stop stop-color="#71459B"/>
<stop offset="0.8668" stop-color="#A76CAD"/>
</linearGradient>
<linearGradient id="paint29_linear" x1="216.573" y1="104.443" x2="225.822" y2="104.443" gradientUnits="userSpaceOnUse">
<stop stop-color="#71459B"/>
<stop offset="0.8668" stop-color="#A76CAD"/>
</linearGradient>
<linearGradient id="paint30_linear" x1="50.0269" y1="261.068" x2="59.2762" y2="261.068" gradientUnits="userSpaceOnUse">
<stop stop-color="#71459B"/>
<stop offset="0.8668" stop-color="#A76CAD"/>
</linearGradient>
<linearGradient id="paint31_linear" x1="627.781" y1="303.706" x2="637.03" y2="303.706" gradientUnits="userSpaceOnUse">
<stop stop-color="#71459B"/>
<stop offset="0.8668" stop-color="#A76CAD"/>
</linearGradient>
<linearGradient id="paint32_linear" x1="330.545" y1="44.5545" x2="339.794" y2="44.5545" gradientUnits="userSpaceOnUse">
<stop stop-color="#71459B"/>
<stop offset="0.8668" stop-color="#A76CAD"/>
</linearGradient>
<linearGradient id="paint33_linear" x1="354.652" y1="51.888" x2="376.798" y2="51.888" gradientUnits="userSpaceOnUse">
<stop stop-color="#71459B"/>
<stop offset="0.8668" stop-color="#A76CAD"/>
</linearGradient>
<linearGradient id="paint34_linear" x1="166.361" y1="162.61" x2="188.507" y2="162.61" gradientUnits="userSpaceOnUse">
<stop stop-color="#71459B"/>
<stop offset="0.8668" stop-color="#A76CAD"/>
</linearGradient>
<linearGradient id="paint35_linear" x1="619.843" y1="299.352" x2="641.99" y2="299.352" gradientUnits="userSpaceOnUse">
<stop stop-color="#71459B"/>
<stop offset="0.8668" stop-color="#A76CAD"/>
</linearGradient>
<linearGradient id="paint36_linear" x1="50.0018" y1="282.729" x2="80.4303" y2="282.729" gradientUnits="userSpaceOnUse">
<stop stop-color="#71459B"/>
<stop offset="0.8668" stop-color="#A76CAD"/>
</linearGradient>
<linearGradient id="paint37_linear" x1="488.868" y1="122.857" x2="519.297" y2="122.857" gradientUnits="userSpaceOnUse">
<stop stop-color="#71459B"/>
<stop offset="0.8668" stop-color="#A76CAD"/>
</linearGradient>
<linearGradient id="paint38_linear" x1="593.511" y1="304.299" x2="623.94" y2="304.299" gradientUnits="userSpaceOnUse">
<stop stop-color="#71459B"/>
<stop offset="0.8668" stop-color="#A76CAD"/>
</linearGradient>
<linearGradient id="paint39_linear" x1="468.295" y1="112.838" x2="508.934" y2="112.838" gradientUnits="userSpaceOnUse">
<stop stop-color="#71459B"/>
<stop offset="0.8668" stop-color="#A76CAD"/>
</linearGradient>
<linearGradient id="paint40_linear" x1="571.598" y1="288.35" x2="617.04" y2="288.35" gradientUnits="userSpaceOnUse">
<stop stop-color="#71459B"/>
<stop offset="0.8668" stop-color="#A76CAD"/>
</linearGradient>
<linearGradient id="paint41_linear" x1="59.328" y1="269.63" x2="101.707" y2="269.63" gradientUnits="userSpaceOnUse">
<stop stop-color="#71459B"/>
<stop offset="0.8668" stop-color="#A76CAD"/>
</linearGradient>
<linearGradient id="paint42_linear" x1="311.875" y1="303.102" x2="265.363" y2="304.732" gradientUnits="userSpaceOnUse">
<stop stop-color="#71459B"/>
<stop offset="0.8668" stop-color="#A76DAE"/>
</linearGradient>
<linearGradient id="paint43_linear" x1="365.686" y1="303.572" x2="411.929" y2="308.838" gradientUnits="userSpaceOnUse">
<stop stop-color="#71459B"/>
<stop offset="0.8668" stop-color="#A76DAE"/>
</linearGradient>
</defs>
</svg>
