<svg width="588" height="410" viewBox="0 0 588 410" fill="none" xmlns="http://www.w3.org/2000/svg">
<g filter="url(#filter0_d)">
<path d="M176.825 156.333C176.872 153.544 177.188 151.341 177.774 149.724C178.36 148.106 179.556 146.313 181.36 144.345L185.966 139.599C187.935 137.372 188.919 134.981 188.919 132.427C188.919 129.966 188.274 128.044 186.985 126.661C185.696 125.255 183.821 124.552 181.36 124.552C178.97 124.552 177.048 125.185 175.595 126.45C174.142 127.716 173.415 129.415 173.415 131.548H166.911C166.958 127.751 168.306 124.692 170.954 122.372C173.626 120.028 177.095 118.856 181.36 118.856C185.79 118.856 189.235 120.052 191.696 122.442C194.181 124.81 195.423 128.067 195.423 132.216C195.423 136.317 193.524 140.36 189.728 144.345L185.896 148.142C184.185 150.04 183.329 152.771 183.329 156.333H176.825ZM176.544 167.478C176.544 166.423 176.86 165.544 177.493 164.841C178.149 164.114 179.11 163.751 180.376 163.751C181.642 163.751 182.603 164.114 183.259 164.841C183.915 165.544 184.243 166.423 184.243 167.478C184.243 168.532 183.915 169.411 183.259 170.114C182.603 170.794 181.642 171.134 180.376 171.134C179.11 171.134 178.149 170.794 177.493 170.114C176.86 169.411 176.544 168.532 176.544 167.478Z" fill="#662D91"/>
<path d="M176.825 156.333L175.325 156.308L175.3 157.833H176.825V156.333ZM181.36 144.345L180.284 143.3L180.269 143.315L180.255 143.331L181.36 144.345ZM185.966 139.599L187.042 140.643L187.067 140.618L187.09 140.592L185.966 139.599ZM186.985 126.661L185.88 127.675L185.888 127.684L186.985 126.661ZM173.415 131.548V133.048H174.915V131.548H173.415ZM166.911 131.548L165.411 131.529L165.393 133.048H166.911V131.548ZM170.954 122.372L171.943 123.5L171.943 123.5L170.954 122.372ZM191.696 122.442L190.651 123.518L190.656 123.523L190.662 123.528L191.696 122.442ZM189.728 144.345L190.783 145.41L190.799 145.395L190.813 145.38L189.728 144.345ZM185.896 148.142L184.84 147.076L184.81 147.106L184.781 147.137L185.896 148.142ZM183.329 156.333V157.833H184.829V156.333H183.329ZM177.493 164.841L176.38 163.835L176.378 163.837L177.493 164.841ZM183.259 164.841L182.146 165.846L182.154 165.855L182.162 165.864L183.259 164.841ZM183.259 170.114L184.338 171.156L184.347 171.147L184.355 171.138L183.259 170.114ZM177.493 170.114L176.378 171.118L176.396 171.137L176.414 171.156L177.493 170.114ZM178.325 156.358C178.371 153.645 178.679 151.629 179.185 150.235L176.364 149.213C175.698 151.052 175.374 153.443 175.325 156.308L178.325 156.358ZM179.185 150.235C179.676 148.877 180.729 147.253 182.466 145.358L180.255 143.331C178.382 145.374 177.044 147.336 176.364 149.213L179.185 150.235ZM182.437 145.389L187.042 140.643L184.889 138.554L180.284 143.3L182.437 145.389ZM187.09 140.592C189.259 138.139 190.419 135.406 190.419 132.427H187.419C187.419 134.557 186.61 136.605 184.842 138.605L187.09 140.592ZM190.419 132.427C190.419 129.704 189.701 127.375 188.083 125.638L185.888 127.684C186.848 128.713 187.419 130.227 187.419 132.427H190.419ZM188.091 125.648C186.441 123.847 184.113 123.052 181.36 123.052V126.052C183.53 126.052 184.952 126.662 185.88 127.675L188.091 125.648ZM181.36 123.052C178.698 123.052 176.397 123.762 174.61 125.319L176.58 127.581C177.699 126.607 179.241 126.052 181.36 126.052V123.052ZM174.61 125.319C172.792 126.902 171.915 129.033 171.915 131.548H174.915C174.915 129.797 175.491 128.53 176.58 127.581L174.61 125.319ZM173.415 130.048H166.911V133.048H173.415V130.048ZM168.411 131.566C168.453 128.158 169.642 125.516 171.943 123.5L169.966 121.244C166.97 123.869 165.463 127.344 165.411 131.529L168.411 131.566ZM171.943 123.5C174.289 121.442 177.382 120.356 181.36 120.356V117.356C176.807 117.356 172.963 118.615 169.965 121.244L171.943 123.5ZM181.36 120.356C185.518 120.356 188.545 121.472 190.651 123.518L192.741 121.366C189.926 118.631 186.062 117.356 181.36 117.356V120.356ZM190.662 123.528C192.788 125.555 193.923 128.386 193.923 132.216H196.923C196.923 127.749 195.573 124.065 192.731 121.356L190.662 123.528ZM193.923 132.216C193.923 135.816 192.266 139.507 188.642 143.31L190.813 145.38C194.783 141.214 196.923 136.819 196.923 132.216H193.923ZM188.672 143.279L184.84 147.076L186.951 149.207L190.783 145.41L188.672 143.279ZM184.781 147.137C182.739 149.404 181.829 152.546 181.829 156.333H184.829C184.829 152.995 185.63 150.677 187.01 149.146L184.781 147.137ZM183.329 154.833H176.825V157.833H183.329V154.833ZM178.044 167.478C178.044 166.748 178.252 166.24 178.608 165.844L176.378 163.837C175.468 164.848 175.044 166.098 175.044 167.478H178.044ZM178.606 165.846C178.9 165.521 179.403 165.251 180.376 165.251V162.251C178.818 162.251 177.398 162.708 176.38 163.835L178.606 165.846ZM180.376 165.251C181.349 165.251 181.852 165.521 182.146 165.846L184.372 163.835C183.354 162.708 181.934 162.251 180.376 162.251V165.251ZM182.162 165.864C182.533 166.262 182.743 166.763 182.743 167.478H185.743C185.743 166.083 185.297 164.826 184.355 163.817L182.162 165.864ZM182.743 167.478C182.743 168.192 182.533 168.693 182.162 169.091L184.355 171.138C185.297 170.129 185.743 168.872 185.743 167.478H182.743ZM182.18 169.072C181.892 169.37 181.378 169.634 180.376 169.634V172.634C181.905 172.634 183.313 172.218 184.338 171.156L182.18 169.072ZM180.376 169.634C179.374 169.634 178.86 169.37 178.572 169.072L176.414 171.156C177.439 172.218 178.847 172.634 180.376 172.634V169.634ZM178.608 169.111C178.252 168.715 178.044 168.208 178.044 167.478H175.044C175.044 168.857 175.468 170.107 176.378 171.118L178.608 169.111Z" fill="#662D91"/>
<path d="M438.56 165.678C438.606 162.889 438.923 160.686 439.509 159.068C440.095 157.451 441.29 155.658 443.095 153.689L447.7 148.943C449.669 146.717 450.653 144.326 450.653 141.771C450.653 139.311 450.009 137.389 448.72 136.006C447.431 134.6 445.556 133.896 443.095 133.896C440.704 133.896 438.782 134.529 437.329 135.795C435.876 137.061 435.149 138.76 435.149 140.893H428.646C428.692 137.096 430.04 134.037 432.688 131.717C435.36 129.373 438.829 128.201 443.095 128.201C447.524 128.201 450.97 129.396 453.431 131.787C455.915 134.154 457.157 137.412 457.157 141.561C457.157 145.662 455.259 149.705 451.462 153.689L447.63 157.486C445.919 159.385 445.063 162.115 445.063 165.678H438.56ZM438.278 176.822C438.278 175.768 438.595 174.889 439.228 174.186C439.884 173.459 440.845 173.096 442.11 173.096C443.376 173.096 444.337 173.459 444.993 174.186C445.649 174.889 445.978 175.768 445.978 176.822C445.978 177.877 445.649 178.756 444.993 179.459C444.337 180.139 443.376 180.479 442.11 180.479C440.845 180.479 439.884 180.139 439.228 179.459C438.595 178.756 438.278 177.877 438.278 176.822Z" fill="#662D91"/>
<path d="M438.56 165.678L437.06 165.653L437.034 167.178H438.56V165.678ZM443.095 153.689L442.018 152.645L442.003 152.66L441.989 152.676L443.095 153.689ZM447.7 148.943L448.777 149.988L448.801 149.963L448.824 149.937L447.7 148.943ZM448.72 136.006L447.614 137.019L447.623 137.029L448.72 136.006ZM435.149 140.893V142.393H436.649V140.893H435.149ZM428.646 140.893L427.146 140.874L427.127 142.393H428.646V140.893ZM432.688 131.717L433.677 132.845L433.678 132.844L432.688 131.717ZM453.431 131.787L452.385 132.863L452.391 132.868L452.396 132.873L453.431 131.787ZM451.462 153.689L452.518 154.755L452.533 154.74L452.548 154.724L451.462 153.689ZM447.63 157.486L446.574 156.421L446.544 156.451L446.516 156.482L447.63 157.486ZM445.063 165.678V167.178H446.563V165.678H445.063ZM439.228 174.186L438.114 173.18L438.113 173.182L439.228 174.186ZM444.993 174.186L443.88 175.191L443.888 175.2L443.897 175.209L444.993 174.186ZM444.993 179.459L446.072 180.501L446.081 180.492L446.09 180.482L444.993 179.459ZM439.228 179.459L438.113 180.462L438.13 180.482L438.148 180.501L439.228 179.459ZM440.059 165.703C440.105 162.99 440.414 160.974 440.919 159.579L438.099 158.557C437.432 160.397 437.108 162.787 437.06 165.653L440.059 165.703ZM440.919 159.579C441.411 158.222 442.463 156.598 444.2 154.703L441.989 152.676C440.117 154.718 438.779 156.68 438.099 158.557L440.919 159.579ZM444.171 154.734L448.777 149.988L446.624 147.899L442.018 152.645L444.171 154.734ZM448.824 149.937C450.993 147.484 452.153 144.751 452.153 141.771H449.153C449.153 143.901 448.345 145.95 446.576 147.95L448.824 149.937ZM452.153 141.771C452.153 139.049 451.435 136.719 449.817 134.983L447.623 137.029C448.582 138.058 449.153 139.572 449.153 141.771H452.153ZM449.825 134.992C448.175 133.192 445.847 132.396 443.095 132.396V135.396C445.264 135.396 446.686 136.007 447.614 137.019L449.825 134.992ZM443.095 132.396C440.432 132.396 438.131 133.107 436.344 134.664L438.314 136.926C439.433 135.952 440.976 135.396 443.095 135.396V132.396ZM436.344 134.664C434.526 136.247 433.649 138.378 433.649 140.893H436.649C436.649 139.142 437.225 137.874 438.314 136.926L436.344 134.664ZM435.149 139.393H428.646V142.393H435.149V139.393ZM430.145 140.911C430.187 137.502 431.376 134.861 433.677 132.845L431.7 130.589C428.704 133.213 427.197 136.689 427.146 140.874L430.145 140.911ZM433.678 132.844C436.023 130.787 439.117 129.701 443.095 129.701V126.701C438.542 126.701 434.697 127.959 431.699 130.589L433.678 132.844ZM443.095 129.701C447.252 129.701 450.279 130.817 452.385 132.863L454.476 130.711C451.66 127.976 447.797 126.701 443.095 126.701V129.701ZM452.396 132.873C454.522 134.899 455.657 137.73 455.657 141.561H458.657C458.657 137.094 457.308 133.409 454.465 130.701L452.396 132.873ZM455.657 141.561C455.657 145.16 454 148.852 450.376 152.655L452.548 154.724C456.518 150.559 458.657 146.164 458.657 141.561H455.657ZM450.406 152.624L446.574 156.421L448.686 158.552L452.518 154.755L450.406 152.624ZM446.516 156.482C444.473 158.748 443.563 161.891 443.563 165.678H446.563C446.563 162.34 447.365 160.021 448.744 158.491L446.516 156.482ZM445.063 164.178H438.56V167.178H445.063V164.178ZM439.778 176.822C439.778 176.092 439.987 175.584 440.342 175.189L438.113 173.182C437.203 174.193 436.778 175.443 436.778 176.822H439.778ZM440.341 175.191C440.635 174.865 441.137 174.596 442.11 174.596V171.596C440.552 171.596 439.133 172.053 438.114 173.18L440.341 175.191ZM442.11 174.596C443.084 174.596 443.586 174.865 443.88 175.191L446.106 173.18C445.088 172.053 443.668 171.596 442.11 171.596V174.596ZM443.897 175.209C444.268 175.607 444.478 176.108 444.478 176.822H447.478C447.478 175.428 447.031 174.171 446.09 173.162L443.897 175.209ZM444.478 176.822C444.478 177.537 444.268 178.038 443.897 178.436L446.09 180.482C447.031 179.474 447.478 178.217 447.478 176.822H444.478ZM443.914 178.417C443.627 178.715 443.112 178.979 442.11 178.979V181.979C443.64 181.979 445.047 181.562 446.072 180.501L443.914 178.417ZM442.11 178.979C441.108 178.979 440.594 178.715 440.307 178.417L438.148 180.501C439.173 181.562 440.581 181.979 442.11 181.979V178.979ZM440.342 178.456C439.987 178.06 439.778 177.552 439.778 176.822H436.778C436.778 178.202 437.203 179.452 438.113 180.462L440.342 178.456Z" fill="#662D91"/>
<path d="M307.654 75.4033C307.719 71.5296 308.159 68.4697 308.973 66.2236C309.786 63.9775 311.447 61.4873 313.953 58.7529L320.35 52.1611C323.084 49.0687 324.451 45.7484 324.451 42.2002C324.451 38.7822 323.556 36.113 321.766 34.1924C319.975 32.2393 317.371 31.2627 313.953 31.2627C310.633 31.2627 307.964 32.1416 305.945 33.8994C303.927 35.6572 302.918 38.0173 302.918 40.9795H293.885C293.95 35.7061 295.822 31.458 299.5 28.2354C303.211 24.9801 308.029 23.3525 313.953 23.3525C320.105 23.3525 324.891 25.0127 328.309 28.333C331.759 31.6208 333.484 36.1455 333.484 41.9072C333.484 47.6038 330.848 53.2191 325.574 58.7529L320.252 64.0264C317.876 66.6631 316.688 70.4554 316.688 75.4033H307.654ZM307.264 90.8818C307.264 89.417 307.703 88.1963 308.582 87.2197C309.493 86.2106 310.828 85.7061 312.586 85.7061C314.344 85.7061 315.678 86.2106 316.59 87.2197C317.501 88.1963 317.957 89.417 317.957 90.8818C317.957 92.3467 317.501 93.5674 316.59 94.5439C315.678 95.488 314.344 95.96 312.586 95.96C310.828 95.96 309.493 95.488 308.582 94.5439C307.703 93.5674 307.264 92.3467 307.264 90.8818Z" fill="#662D91"/>
<path d="M307.654 75.4033L305.155 75.3613L305.112 77.9033H307.654V75.4033ZM313.953 58.7529L312.159 57.0119L312.134 57.0374L312.11 57.0636L313.953 58.7529ZM320.35 52.1611L322.144 53.9021L322.184 53.8605L322.222 53.8171L320.35 52.1611ZM321.766 34.1924L319.923 35.8817L319.93 35.8894L319.937 35.8971L321.766 34.1924ZM302.918 40.9795V43.4795H305.418V40.9795H302.918ZM293.885 40.9795L291.385 40.9486L291.354 43.4795H293.885V40.9795ZM299.5 28.2354L301.147 30.1158L301.149 30.1147L299.5 28.2354ZM328.309 28.333L326.567 30.1262L326.575 30.1346L326.584 30.1429L328.309 28.333ZM325.574 58.7529L327.334 60.5288L327.359 60.5036L327.384 60.4776L325.574 58.7529ZM320.252 64.0264L318.492 62.2505L318.442 62.3002L318.395 62.3527L320.252 64.0264ZM316.688 75.4033V77.9033H319.188V75.4033H316.688ZM308.582 87.2197L306.727 85.544L306.724 85.5473L308.582 87.2197ZM316.59 87.2197L314.735 88.8954L314.748 88.9106L314.762 88.9255L316.59 87.2197ZM316.59 94.5439L318.388 96.2804L318.403 96.2652L318.417 96.2497L316.59 94.5439ZM308.582 94.5439L306.724 96.2164L306.753 96.2489L306.784 96.2804L308.582 94.5439ZM310.154 75.4453C310.217 71.6984 310.644 68.9508 311.323 67.0753L306.622 65.372C305.674 67.9887 305.222 71.3608 305.155 75.3613L310.154 75.4453ZM311.323 67.0753C311.98 65.2623 313.402 63.0536 315.796 60.4422L312.11 57.0636C309.491 59.921 307.593 62.6928 306.622 65.372L311.323 67.0753ZM315.747 60.4939L322.144 53.9021L318.555 50.4201L312.159 57.0119L315.747 60.4939ZM322.222 53.8171C325.291 50.3469 326.951 46.4565 326.951 42.2002H321.951C321.951 45.0403 320.877 47.7904 318.477 50.5051L322.222 53.8171ZM326.951 42.2002C326.951 38.3463 325.934 34.9973 323.594 32.4877L319.937 35.8971C321.178 37.2286 321.951 39.2181 321.951 42.2002H326.951ZM323.609 32.5031C321.216 29.8935 317.856 28.7627 313.953 28.7627V33.7627C316.886 33.7627 318.734 34.585 319.923 35.8817L323.609 32.5031ZM313.953 28.7627C310.18 28.7627 306.879 29.7711 304.303 32.0142L307.587 35.7846C309.048 34.5121 311.086 33.7627 313.953 33.7627V28.7627ZM304.303 32.0142C301.678 34.3009 300.418 37.381 300.418 40.9795H305.418C305.418 38.6535 306.176 37.0136 307.587 35.7846L304.303 32.0142ZM302.918 38.4795H293.885V43.4795H302.918V38.4795ZM296.385 41.0104C296.442 36.3839 298.048 32.8311 301.147 30.1158L297.853 26.3549C293.595 30.0849 291.458 35.0282 291.385 40.9486L296.385 41.0104ZM301.149 30.1147C304.316 27.3363 308.508 25.8525 313.953 25.8525V20.8525C307.549 20.8525 302.106 22.624 297.851 26.356L301.149 30.1147ZM313.953 25.8525C319.652 25.8525 323.74 27.38 326.567 30.1262L330.051 26.5398C326.042 22.6454 320.559 20.8525 313.953 20.8525V25.8525ZM326.584 30.1429C329.438 32.8624 330.984 36.6757 330.984 41.9072H335.984C335.984 35.6153 334.08 30.3792 330.033 26.5231L326.584 30.1429ZM330.984 41.9072C330.984 46.7675 328.75 51.7967 323.764 57.0283L327.384 60.4776C332.946 54.6415 335.984 48.4401 335.984 41.9072H330.984ZM323.815 56.977L318.492 62.2505L322.012 65.8023L327.334 60.5288L323.815 56.977ZM318.395 62.3527C315.466 65.6022 314.188 70.081 314.188 75.4033H319.188C319.188 70.8298 320.285 67.724 322.109 65.7L318.395 62.3527ZM316.688 72.9033H307.654V77.9033H316.688V72.9033ZM309.764 90.8818C309.764 89.9581 310.023 89.3558 310.44 88.8921L306.724 85.5473C305.383 87.0368 304.764 88.8759 304.764 90.8818H309.764ZM310.437 88.8954C310.745 88.5546 311.316 88.2061 312.586 88.2061V83.2061C310.341 83.2061 308.242 83.8666 306.727 85.544L310.437 88.8954ZM312.586 88.2061C313.856 88.2061 314.427 88.5546 314.735 88.8954L318.445 85.544C316.93 83.8666 314.831 83.2061 312.586 83.2061V88.2061ZM314.762 88.9255C315.198 89.3927 315.457 89.9837 315.457 90.8818H320.457C320.457 88.8503 319.804 86.9999 318.417 85.5139L314.762 88.9255ZM315.457 90.8818C315.457 91.78 315.198 92.371 314.762 92.8382L318.417 96.2497C319.804 94.7638 320.457 92.9134 320.457 90.8818H315.457ZM314.791 92.8075C314.494 93.1149 313.904 93.46 312.586 93.46V98.46C314.783 98.46 316.862 97.861 318.388 96.2804L314.791 92.8075ZM312.586 93.46C311.268 93.46 310.677 93.1149 310.381 92.8075L306.784 96.2804C308.31 97.861 310.389 98.46 312.586 98.46V93.46ZM310.44 92.8715C310.023 92.4079 309.764 91.8055 309.764 90.8818H304.764C304.764 92.8878 305.383 94.7269 306.724 96.2164L310.44 92.8715Z" fill="#662D91"/>
<path d="M218.956 218.019C218.956 220.04 217.303 221.694 215.281 221.694H94.6311C92.6098 221.694 90.9561 220.04 90.9561 218.019V139.464C90.9561 137.442 92.6098 135.788 94.6311 135.788H215.281C217.303 135.788 218.956 137.442 218.956 139.464V218.019Z" fill="#E1F4FD"/>
<path d="M218.956 143.324C218.956 145.345 217.303 147 215.281 147H94.6311C92.6098 147 90.9561 145.345 90.9561 143.324V139.464C90.9561 137.442 92.6098 135.788 94.6311 135.788H215.281C217.303 135.788 218.956 137.442 218.956 139.464V143.324Z" fill="#6D6E71"/>
<path d="M212.415 173.026C212.415 175.047 210.761 176.701 208.74 176.701H132.116C130.095 176.701 128.441 175.047 128.441 173.026V157.954C128.441 155.932 130.095 154.278 132.116 154.278H208.74C210.761 154.278 212.415 155.932 212.415 157.954V173.026Z" fill="url(#paint0_linear)"/>
<path d="M110.838 180.084C118.347 180.084 124.435 173.994 124.435 166.483C124.435 158.971 118.347 152.882 110.838 152.882C103.328 152.882 97.2402 158.971 97.2402 166.483C97.2402 173.994 103.328 180.084 110.838 180.084Z" fill="url(#paint1_linear)"/>
<path d="M495.574 228.9C495.574 230.922 493.92 232.576 491.899 232.576H373.637C371.616 232.576 369.962 230.922 369.962 228.9V151.926C369.962 149.904 371.616 148.25 373.637 148.25H491.899C493.92 148.25 495.574 149.904 495.574 151.926V228.9Z" fill="#E1F4FD"/>
<path d="M495.574 155.602C495.574 157.624 493.92 159.278 491.899 159.278H373.637C371.616 159.278 369.962 157.624 369.962 155.602V151.926C369.962 149.904 371.616 148.25 373.637 148.25H491.899C493.92 148.25 495.574 149.904 495.574 151.926V155.602Z" fill="#6D6E71"/>
<path d="M447.798 223.386C447.798 225.407 446.145 227.062 444.123 227.062H415.936C413.915 227.062 412.261 225.407 412.261 223.386V195.375C412.261 193.353 413.915 191.699 415.936 191.699H444.123C446.145 191.699 447.798 193.353 447.798 195.375V223.386Z" fill="url(#paint2_linear)"/>
<path d="M236.119 110.866C236.119 112.888 234.465 114.542 232.444 114.542H187.425C185.404 114.542 183.75 112.888 183.75 110.866V92.1554C183.75 90.1337 185.404 88.4795 187.425 88.4795H232.444C234.465 88.4795 236.119 90.1337 236.119 92.1554V110.866Z" fill="url(#paint3_linear)"/>
<path d="M406.455 134.796C406.455 136.818 404.801 138.472 402.78 138.472H376.688C374.666 138.472 373.013 136.818 373.013 134.796V92.5226C373.013 90.5008 374.666 88.8467 376.688 88.8467H402.78C404.801 88.8467 406.455 90.5008 406.455 92.5226V134.796Z" fill="#E6E7E8"/>
<path d="M488.518 223.386C488.518 225.407 486.864 227.062 484.843 227.062H456.655C454.634 227.062 452.98 225.407 452.98 223.386V195.375C452.98 193.353 454.634 191.699 456.655 191.699H484.843C486.864 191.699 488.518 193.353 488.518 195.375V223.386Z" fill="url(#paint4_linear)"/>
<path d="M390.028 190.927C397.395 190.927 403.368 184.953 403.368 177.584C403.368 170.214 397.395 164.24 390.028 164.24C382.66 164.24 376.688 170.214 376.688 177.584C376.688 184.953 382.66 190.927 390.028 190.927Z" fill="url(#paint5_linear)"/>
<path d="M154.129 266.063C160.279 266.063 165.265 261.077 165.265 254.925C165.265 248.774 160.279 243.787 154.129 243.787C147.98 243.787 142.994 248.774 142.994 254.925C142.994 261.077 147.98 266.063 154.129 266.063Z" fill="url(#paint6_linear)"/>
<path d="M140.936 245.331C144.326 245.331 147.073 242.583 147.073 239.193C147.073 235.802 144.326 233.054 140.936 233.054C137.547 233.054 134.799 235.802 134.799 239.193C134.799 242.583 137.547 245.331 140.936 245.331Z" fill="url(#paint7_linear)"/>
<path d="M155.82 232.281C157.748 232.281 159.311 230.718 159.311 228.789C159.311 226.86 157.748 225.297 155.82 225.297C153.892 225.297 152.329 226.86 152.329 228.789C152.329 230.718 153.892 232.281 155.82 232.281Z" fill="url(#paint8_linear)"/>
<path d="M83.7532 210.373C85.2551 210.373 86.4727 209.155 86.4727 207.653C86.4727 206.15 85.2551 204.933 83.7532 204.933C82.2513 204.933 81.0337 206.15 81.0337 207.653C81.0337 209.155 82.2513 210.373 83.7532 210.373Z" fill="url(#paint9_linear)"/>
<path d="M500.645 224.342C501.782 224.342 502.703 223.42 502.703 222.283C502.703 221.146 501.782 220.225 500.645 220.225C499.509 220.225 498.587 221.146 498.587 222.283C498.587 223.42 499.509 224.342 500.645 224.342Z" fill="url(#paint10_linear)"/>
<path d="M223.697 75.3562C229.847 75.3562 234.833 70.3695 234.833 64.2181C234.833 58.0668 229.847 53.0801 223.697 53.0801C217.547 53.0801 212.562 58.0668 212.562 64.2181C212.562 70.3695 217.547 75.3562 223.697 75.3562Z" fill="#E6E7E8"/>
<path d="M206.278 77.3777C209.201 77.3777 211.57 75.0078 211.57 72.0844C211.57 69.1609 209.201 66.791 206.278 66.791C203.355 66.791 200.986 69.1609 200.986 72.0844C200.986 75.0078 203.355 77.3777 206.278 77.3777Z" fill="#E6E7E8"/>
<path d="M371.8 85.6121C374.723 85.6121 377.092 83.2421 377.092 80.3187C377.092 77.3953 374.723 75.0254 371.8 75.0254C368.877 75.0254 366.508 77.3953 366.508 80.3187C366.508 83.2421 368.877 85.6121 371.8 85.6121Z" fill="#E6E7E8"/>
<path d="M488.922 258.675C491.845 258.675 494.214 256.305 494.214 253.381C494.214 250.458 491.845 248.088 488.922 248.088C485.999 248.088 483.63 250.458 483.63 253.381C483.63 256.305 485.999 258.675 488.922 258.675Z" fill="#E6E7E8"/>
<path d="M132.08 258.05C135.002 258.05 137.372 255.68 137.372 252.756C137.372 249.833 135.002 247.463 132.08 247.463C129.157 247.463 126.788 249.833 126.788 252.756C126.788 255.68 129.157 258.05 132.08 258.05Z" fill="#E6E7E8"/>
<path d="M216.494 83.5899C217.935 83.5899 219.103 82.4214 219.103 80.98C219.103 79.5386 217.935 78.3701 216.494 78.3701C215.053 78.3701 213.885 79.5386 213.885 80.98C213.885 82.4214 215.053 83.5899 216.494 83.5899Z" fill="#E6E7E8"/>
<path d="M232.554 122.482C233.995 122.482 235.163 121.313 235.163 119.872C235.163 118.43 233.995 117.262 232.554 117.262C231.113 117.262 229.945 118.43 229.945 119.872C229.945 121.313 231.113 122.482 232.554 122.482Z" fill="#E6E7E8"/>
<path d="M382.861 84.3985C384.302 84.3985 385.47 83.23 385.47 81.7886C385.47 80.3472 384.302 79.1787 382.861 79.1787C381.42 79.1787 380.252 80.3472 380.252 81.7886C380.252 83.23 381.42 84.3985 382.861 84.3985Z" fill="#E6E7E8"/>
<path d="M432.4 240.479C433.841 240.479 435.009 239.31 435.009 237.869C435.009 236.427 433.841 235.259 432.4 235.259C430.959 235.259 429.791 236.427 429.791 237.869C429.791 239.31 430.959 240.479 432.4 240.479Z" fill="#E6E7E8"/>
<path d="M365.037 137.626C366.479 137.626 367.647 136.458 367.647 135.016C367.647 133.575 366.479 132.406 365.037 132.406C363.596 132.406 362.428 133.575 362.428 135.016C362.428 136.458 363.596 137.626 365.037 137.626Z" fill="#E6E7E8"/>
<path d="M138.106 230.076C139.547 230.076 140.716 228.908 140.716 227.466C140.716 226.025 139.547 224.856 138.106 224.856C136.665 224.856 135.497 226.025 135.497 227.466C135.497 228.908 136.665 230.076 138.106 230.076Z" fill="#E6E7E8"/>
<path d="M231.819 52.1612C233.26 52.1612 234.428 50.9927 234.428 49.5513C234.428 48.1099 233.26 46.9414 231.819 46.9414C230.378 46.9414 229.209 48.1099 229.209 49.5513C229.209 50.9927 230.378 52.1612 231.819 52.1612Z" fill="#E6E7E8"/>
<path d="M479.441 142.847C483.378 142.847 486.57 139.654 486.57 135.715C486.57 131.777 483.378 128.584 479.441 128.584C475.503 128.584 472.311 131.777 472.311 135.715C472.311 139.654 475.503 142.847 479.441 142.847Z" fill="url(#paint11_linear)"/>
<path d="M463.895 136.929C466.473 136.929 468.563 134.838 468.563 132.26C468.563 129.682 466.473 127.592 463.895 127.592C461.318 127.592 459.228 129.682 459.228 132.26C459.228 134.838 461.318 136.929 463.895 136.929Z" fill="url(#paint12_linear)"/>
<path d="M231.231 86.8251C233.808 86.8251 235.898 84.735 235.898 82.1567C235.898 79.5784 233.808 77.4883 231.231 77.4883C228.653 77.4883 226.563 79.5784 226.563 82.1567C226.563 84.735 228.653 86.8251 231.231 86.8251Z" fill="url(#paint13_linear)"/>
<path d="M471.87 127.297C473.879 127.297 475.508 125.668 475.508 123.658C475.508 121.648 473.879 120.019 471.87 120.019C469.86 120.019 468.231 121.648 468.231 123.658C468.231 125.668 469.86 127.297 471.87 127.297Z" fill="url(#paint14_linear)"/>
<path d="M389.954 113.586C396.104 113.586 401.089 108.599 401.089 102.448C401.089 96.2963 396.104 91.3096 389.954 91.3096C383.804 91.3096 378.819 96.2963 378.819 102.448C378.819 108.599 383.804 113.586 389.954 113.586Z" fill="white"/>
<path d="M429.35 216.732C435.5 216.732 440.485 211.746 440.485 205.594C440.485 199.443 435.5 194.456 429.35 194.456C423.2 194.456 418.215 199.443 418.215 205.594C418.215 211.746 423.2 216.732 429.35 216.732Z" fill="white"/>
<path d="M469.922 216.328C476.072 216.328 481.058 211.341 481.058 205.19C481.058 199.038 476.072 194.052 469.922 194.052C463.773 194.052 458.787 199.038 458.787 205.19C458.787 211.341 463.773 216.328 469.922 216.328Z" fill="white"/>
<path d="M364.155 124.578C364.155 126.599 362.502 128.253 360.48 128.253H242.219C240.198 128.253 238.544 126.599 238.544 124.578V47.6037C238.544 45.5819 240.198 43.9277 242.219 43.9277H360.48C362.502 43.9277 364.155 45.5819 364.155 47.6037V124.578Z" fill="#E1F4FD"/>
<path d="M364.155 51.2796C364.155 53.3013 362.502 54.9555 360.48 54.9555H242.219C240.198 54.9555 238.544 53.3013 238.544 51.2796V47.6037C238.544 45.5819 240.198 43.9277 242.219 43.9277H360.48C362.502 43.9277 364.155 45.5819 364.155 47.6037V51.2796Z" fill="#6D6E71"/>
<path d="M356.806 117.041C356.806 119.063 355.152 120.717 353.131 120.717H281.542C279.52 120.717 277.867 119.063 277.867 117.041V90.3908C277.867 88.369 279.52 86.7148 281.542 86.7148H353.131C355.152 86.7148 356.806 88.369 356.806 90.3908V117.041Z" fill="url(#paint15_linear)"/>
<path d="M481.021 255.587C481.021 257.608 479.367 259.262 477.346 259.262H440.412C438.391 259.262 436.737 257.608 436.737 255.587V243.125C436.737 241.103 438.391 239.449 440.412 239.449H477.346C479.367 239.449 481.021 241.103 481.021 243.125V255.587Z" fill="url(#paint16_linear)"/>
<path d="M131.565 242.868C131.565 244.89 129.911 246.544 127.89 246.544H90.9563C88.935 246.544 87.2812 244.89 87.2812 242.868V230.406C87.2812 228.385 88.935 226.73 90.9563 226.73H127.89C129.911 226.73 131.565 228.385 131.565 230.406V242.868Z" fill="#E6E7E8"/>
<path d="M129.654 232.466C129.654 234.267 128 235.737 125.979 235.737H92.6101C90.5888 235.737 88.9351 234.267 88.9351 232.466C88.9351 230.664 90.5888 229.194 92.6101 229.194H125.979C128 229.157 129.654 230.664 129.654 232.466Z" fill="white"/>
<path d="M488.113 169.754C488.113 170.6 487.305 171.261 486.276 171.261H408.66C407.631 171.261 406.822 170.6 406.822 169.754C406.822 168.909 407.631 168.247 408.66 168.247H486.276C487.268 168.247 488.113 168.909 488.113 169.754Z" fill="#C7C8CA"/>
<path d="M488.113 177.51C488.113 178.356 487.305 179.017 486.276 179.017H408.66C407.631 179.017 406.822 178.356 406.822 177.51C406.822 176.665 407.631 176.003 408.66 176.003H486.276C487.268 176.003 488.113 176.665 488.113 177.51Z" fill="#C7C8CA"/>
<path d="M488.371 184.679C488.371 185.524 487.562 186.186 486.533 186.186H408.917C407.888 186.186 407.08 185.524 407.08 184.679C407.08 183.834 407.888 183.172 408.917 183.172H486.533C487.525 183.172 488.371 183.834 488.371 184.679Z" fill="#C7C8CA"/>
<path d="M359.599 72.011C359.599 72.8565 358.79 73.5182 357.761 73.5182H280.108C279.079 73.5182 278.271 72.8565 278.271 72.011C278.271 71.1656 279.079 70.5039 280.108 70.5039H357.724C358.753 70.5039 359.599 71.1656 359.599 72.011Z" fill="#C7C8CA"/>
<path d="M359.341 65.0267C359.341 65.8721 358.533 66.5338 357.504 66.5338H279.888C278.859 66.5338 278.05 65.8721 278.05 65.0267C278.05 64.1812 278.859 63.5195 279.888 63.5195H357.504C358.496 63.5195 359.341 64.218 359.341 65.0267Z" fill="#C7C8CA"/>
<path d="M212.488 187.288C212.488 188.134 211.68 188.796 210.651 188.796H96.3951C95.3661 188.796 94.5576 188.134 94.5576 187.288C94.5576 186.443 95.3661 185.781 96.3951 185.781H210.614C211.643 185.781 212.488 186.443 212.488 187.288Z" fill="#C7C8CA"/>
<path d="M212.488 195.596C212.488 196.441 211.68 197.103 210.651 197.103H96.3951C95.3661 197.103 94.5576 196.441 94.5576 195.596C94.5576 194.751 95.3661 194.089 96.3951 194.089H210.614C211.643 194.089 212.488 194.787 212.488 195.596Z" fill="#C7C8CA"/>
<path d="M212.488 203.573C212.488 204.418 211.68 205.08 210.651 205.08H96.3951C95.3661 205.08 94.5576 204.418 94.5576 203.573C94.5576 202.727 95.3661 202.065 96.3951 202.065H210.614C211.643 202.065 212.488 202.764 212.488 203.573Z" fill="#C7C8CA"/>
<path d="M212.488 212.138C212.488 212.983 211.68 213.645 210.651 213.645H96.3951C95.3661 213.645 94.5576 212.983 94.5576 212.138C94.5576 211.293 95.3661 210.631 96.3951 210.631H210.614C211.643 210.631 212.488 211.293 212.488 212.138Z" fill="#C7C8CA"/>
<path d="M359.415 78.5911C359.415 79.4366 358.606 80.0982 357.577 80.0982H279.924C278.895 80.0982 278.087 79.4366 278.087 78.5911C278.087 77.7457 278.895 77.084 279.924 77.084H357.577C358.569 77.084 359.415 77.7457 359.415 78.5911Z" fill="#C7C8CA"/>
<path d="M402.486 117.151C402.486 117.482 402.155 117.776 401.751 117.776H378.231C377.827 117.776 377.496 117.482 377.496 117.151C377.496 116.82 377.827 116.526 378.231 116.526H401.751C402.155 116.526 402.486 116.784 402.486 117.151Z" fill="white"/>
<path d="M402.339 120.533C402.339 120.864 402.008 121.158 401.604 121.158H378.084C377.679 121.158 377.349 120.864 377.349 120.533C377.349 120.202 377.679 119.908 378.084 119.908H401.604C402.008 119.908 402.339 120.166 402.339 120.533Z" fill="white"/>
<path d="M402.486 124.025C402.486 124.356 402.155 124.65 401.751 124.65H378.231C377.827 124.65 377.496 124.356 377.496 124.025C377.496 123.695 377.827 123.401 378.231 123.401H401.751C402.155 123.364 402.486 123.658 402.486 124.025Z" fill="white"/>
<path d="M402.486 127.738C402.486 128.069 402.155 128.363 401.751 128.363H378.231C377.827 128.363 377.496 128.069 377.496 127.738C377.496 127.407 377.827 127.113 378.231 127.113H401.751C402.155 127.113 402.486 127.371 402.486 127.738Z" fill="white"/>
<path d="M402.486 131.599C402.486 131.929 402.155 132.223 401.751 132.223H378.231C377.827 132.223 377.496 131.929 377.496 131.599C377.496 131.268 377.827 130.974 378.231 130.974H401.751C402.155 130.974 402.486 131.268 402.486 131.599Z" fill="white"/>
<path d="M483.042 220.445C483.042 220.813 482.711 221.144 482.307 221.144H458.787C458.383 221.144 458.052 220.85 458.052 220.445C458.052 220.078 458.383 219.747 458.787 219.747H482.307C482.711 219.747 483.042 220.078 483.042 220.445Z" fill="white"/>
<path d="M442.102 220.481C442.102 220.886 441.772 221.18 441.367 221.18H417.847C417.443 221.18 417.112 220.849 417.112 220.481C417.112 220.077 417.443 219.783 417.847 219.783H441.367C441.772 219.746 442.102 220.077 442.102 220.481Z" fill="white"/>
<path d="M230.275 94.8753C230.275 95.2061 229.944 95.4634 229.54 95.4634H191.394C190.989 95.4634 190.659 95.2061 190.659 94.8753C190.659 94.5444 190.989 94.2871 191.394 94.2871H229.54C229.944 94.2871 230.275 94.5444 230.275 94.8753Z" fill="white"/>
<path d="M230.9 98.2202C230.9 98.551 230.569 98.8083 230.165 98.8083H192.019C191.614 98.8083 191.284 98.551 191.284 98.2202C191.284 97.8893 191.614 97.632 192.019 97.632H230.165C230.569 97.5953 230.9 97.8893 230.9 98.2202Z" fill="white"/>
<path d="M230.9 103.881C230.9 104.212 230.569 104.469 230.165 104.469H192.019C191.614 104.469 191.284 104.212 191.284 103.881C191.284 103.55 191.614 103.293 192.019 103.293H230.165C230.569 103.256 230.9 103.55 230.9 103.881Z" fill="white"/>
<path d="M230.9 107.006C230.9 107.337 230.569 107.594 230.165 107.594H192.019C191.614 107.594 191.284 107.337 191.284 107.006C191.284 106.675 191.614 106.418 192.019 106.418H230.165C230.569 106.381 230.9 106.675 230.9 107.006Z" fill="white"/>
<path d="M478.779 243.163C478.779 243.493 478.448 243.751 478.044 243.751H439.971C439.567 243.751 439.236 243.493 439.236 243.163C439.236 242.832 439.567 242.574 439.971 242.574H478.044C478.448 242.538 478.779 242.832 478.779 243.163Z" fill="white"/>
<path d="M478.668 246.471C478.668 246.802 478.338 247.059 477.933 247.059H439.86C439.456 247.059 439.125 246.802 439.125 246.471C439.125 246.14 439.456 245.883 439.86 245.883H477.933C478.338 245.846 478.668 246.14 478.668 246.471Z" fill="white"/>
<path d="M479.367 252.095C479.367 252.426 479.036 252.683 478.632 252.683H440.559C440.154 252.683 439.824 252.426 439.824 252.095C439.824 251.764 440.154 251.507 440.559 251.507H478.632C479.036 251.507 479.367 251.801 479.367 252.095Z" fill="white"/>
<path d="M479.367 255.219C479.367 255.55 479.036 255.807 478.632 255.807H440.559C440.154 255.807 439.824 255.55 439.824 255.219C439.824 254.888 440.154 254.631 440.559 254.631H478.632C479.036 254.631 479.367 254.888 479.367 255.219Z" fill="white"/>
<path d="M206.314 159.425C206.314 159.793 205.984 160.123 205.579 160.123H133.549C133.145 160.123 132.814 159.793 132.814 159.425C132.814 159.057 133.145 158.727 133.549 158.727H205.616C205.984 158.727 206.314 159.021 206.314 159.425Z" fill="white"/>
<path d="M206.314 165.049C206.314 165.417 205.984 165.747 205.579 165.747H133.549C133.145 165.747 132.814 165.417 132.814 165.049C132.814 164.681 133.145 164.351 133.549 164.351H205.616C205.984 164.351 206.314 164.681 206.314 165.049Z" fill="white"/>
<path d="M206.461 170.673C206.461 171.041 206.131 171.371 205.726 171.371H133.696C133.292 171.371 132.961 171.041 132.961 170.673C132.961 170.305 133.292 169.975 133.696 169.975H205.763C206.131 169.975 206.461 170.305 206.461 170.673Z" fill="white"/>
<path d="M354.27 93.6626C354.27 94.0669 353.792 94.4345 353.167 94.4345H281.835C281.211 94.4345 280.733 94.1037 280.733 93.6626C280.733 93.2215 281.211 92.8906 281.835 92.8906H353.167C353.792 92.8906 354.27 93.2215 354.27 93.6626Z" fill="white"/>
<path d="M354.27 98.6245C354.27 99.0288 353.792 99.3964 353.167 99.3964H281.835C281.211 99.3964 280.733 99.0656 280.733 98.6245C280.733 98.2201 281.211 97.8525 281.835 97.8525H353.167C353.792 97.8525 354.27 98.2201 354.27 98.6245Z" fill="white"/>
<path d="M354.27 103.441C354.27 103.845 353.792 104.213 353.167 104.213H281.835C281.211 104.213 280.733 103.882 280.733 103.441C280.733 103.037 281.211 102.669 281.835 102.669H353.167C353.792 102.669 354.27 103.037 354.27 103.441Z" fill="white"/>
<path d="M354.123 108.587C354.123 108.992 353.645 109.359 353.02 109.359H281.688C281.064 109.359 280.586 109.028 280.586 108.587C280.586 108.183 281.064 107.815 281.688 107.815H353.02C353.608 107.815 354.123 108.146 354.123 108.587Z" fill="white"/>
<path d="M354.27 113.549C354.27 113.954 353.792 114.321 353.167 114.321H281.835C281.211 114.321 280.733 113.99 280.733 113.549C280.733 113.145 281.211 112.777 281.835 112.777H353.167C353.792 112.777 354.27 113.108 354.27 113.549Z" fill="white"/>
<path d="M258.646 86.6042C266.014 86.6042 271.987 80.6301 271.987 73.2606C271.987 65.8911 266.014 59.917 258.646 59.917C251.279 59.917 245.306 65.8911 245.306 73.2606C245.306 80.6301 251.279 86.6042 258.646 86.6042Z" fill="url(#paint17_linear)"/>
<path d="M189.152 91.9718C189.152 93.9936 187.498 95.6477 185.477 95.6477H146.191C144.17 95.6477 142.516 93.9936 142.516 91.9718V87.5607C142.516 85.5389 144.17 83.8848 146.191 83.8848H185.477C187.498 83.8848 189.152 85.5389 189.152 87.5607V91.9718Z" fill="url(#paint18_linear)"/>
<path d="M192.349 79.6941C192.349 80.7234 191.541 81.5321 190.512 81.5321H168.793C167.764 81.5321 166.955 80.7234 166.955 79.6941V79.253C166.955 78.2237 167.764 77.415 168.793 77.415H190.512C191.541 77.415 192.349 78.2237 192.349 79.253V79.6941Z" fill="url(#paint19_linear)"/>
<path d="M165.228 81.1273C165.228 81.5316 164.897 81.8624 164.493 81.8624H147.478C147.073 81.8624 146.743 81.5316 146.743 81.1273V80.87C146.743 80.4656 147.073 80.1348 147.478 80.1348H164.493C164.897 80.1348 165.228 80.4656 165.228 80.87V81.1273Z" fill="url(#paint20_linear)"/>
<path d="M152.219 98.0739C152.219 98.4782 151.888 98.8091 151.484 98.8091H134.468C134.064 98.8091 133.733 98.4782 133.733 98.0739V97.8533C133.733 97.449 134.064 97.1182 134.468 97.1182H151.484C151.888 97.1182 152.219 97.449 152.219 97.8533V98.0739Z" fill="url(#paint21_linear)"/>
<path d="M434.201 143.618C434.201 144.096 433.723 144.463 433.099 144.463H416.818C416.194 144.463 415.716 144.096 415.716 143.618C415.716 143.14 416.194 142.772 416.818 142.772H433.099C433.723 142.772 434.201 143.14 434.201 143.618Z" fill="url(#paint22_linear)"/>
<path d="M434.201 103.955C434.201 104.433 433.723 104.8 433.099 104.8H416.818C416.194 104.8 415.716 104.433 415.716 103.955C415.716 103.477 416.194 103.109 416.818 103.109H433.099C433.723 103.109 434.201 103.514 434.201 103.955Z" fill="url(#paint23_linear)"/>
<path d="M72.0668 211.366C72.0668 211.77 71.736 212.101 71.3318 212.101H54.3165C53.9123 212.101 53.5815 211.77 53.5815 211.366V211.145C53.5815 210.741 53.9123 210.41 54.3165 210.41H71.3318C71.736 210.41 72.0668 210.741 72.0668 211.145V211.366Z" fill="url(#paint24_linear)"/>
<path d="M442.984 93.9568C442.984 94.4347 442.506 94.8022 441.882 94.8022H436.369C435.781 94.8022 435.267 94.4347 435.267 93.9568C435.267 93.4789 435.781 93.1113 436.369 93.1113H441.882C442.506 93.1113 442.984 93.4789 442.984 93.9568Z" fill="url(#paint25_linear)"/>
<path d="M444.454 119.174C444.454 119.651 443.977 120.019 443.352 120.019H437.839C437.251 120.019 436.737 119.651 436.737 119.174C436.737 118.696 437.251 118.328 437.839 118.328H443.352C443.94 118.328 444.454 118.696 444.454 119.174Z" fill="url(#paint26_linear)"/>
<path d="M483.005 236.362C483.005 236.766 482.674 237.097 482.27 237.097H476.023C475.618 237.097 475.288 236.766 475.288 236.362V236.141C475.288 235.737 475.618 235.406 476.023 235.406H482.27C482.674 235.406 483.005 235.737 483.005 236.141V236.362Z" fill="url(#paint27_linear)"/>
<path d="M104.627 224.635C104.627 225.04 104.296 225.371 103.892 225.371H97.6447C97.2404 225.371 96.9097 225.04 96.9097 224.635V224.415C96.9097 224.011 97.2404 223.68 97.6447 223.68H103.892C104.296 223.68 104.627 224.011 104.627 224.415V224.635Z" fill="url(#paint28_linear)"/>
<path d="M197.752 83.8112C197.752 84.2156 197.421 84.5464 197.017 84.5464H190.769C190.365 84.5464 190.034 84.2156 190.034 83.8112V83.5907C190.034 83.1863 190.365 82.8555 190.769 82.8555H197.017C197.421 82.8555 197.752 83.1863 197.752 83.5907V83.8112Z" fill="url(#paint29_linear)"/>
<path d="M58.8733 214.417C58.8733 214.821 58.5425 215.152 58.1383 215.152H51.8908C51.4865 215.152 51.1558 214.821 51.1558 214.417V214.196C51.1558 213.792 51.4865 213.461 51.8908 213.461H58.1383C58.5425 213.461 58.8733 213.792 58.8733 214.196V214.417Z" fill="url(#paint30_linear)"/>
<path d="M540.702 249.963C540.702 250.367 540.372 250.698 539.967 250.698H533.72C533.316 250.698 532.985 250.367 532.985 249.963V249.742C532.985 249.338 533.316 249.007 533.72 249.007H539.967C540.372 249.007 540.702 249.338 540.702 249.742V249.963Z" fill="url(#paint31_linear)"/>
<path d="M292.824 33.7449C292.824 34.2228 292.346 34.5903 291.721 34.5903H286.209C285.584 34.5903 285.106 34.2228 285.106 33.7449C285.106 33.267 285.584 32.8994 286.209 32.8994H291.721C292.309 32.8994 292.824 33.267 292.824 33.7449Z" fill="url(#paint32_linear)"/>
<path d="M323.657 39.8474C323.657 40.3253 323.143 40.6929 322.555 40.6929H306.274C305.686 40.6929 305.172 40.3253 305.172 39.8474C305.172 39.3695 305.686 39.002 306.274 39.002H322.555C323.179 39.002 323.657 39.4063 323.657 39.8474Z" fill="url(#paint33_linear)"/>
<path d="M166.624 132.297C166.624 132.701 166.294 133.032 165.889 133.032H148.874C148.47 133.032 148.139 132.701 148.139 132.297V132.076C148.139 131.672 148.47 131.341 148.874 131.341H165.889C166.294 131.341 166.624 131.672 166.624 132.076V132.297Z" fill="url(#paint34_linear)"/>
<path d="M544.855 246.361C544.855 246.765 544.525 247.096 544.12 247.096H527.105C526.701 247.096 526.37 246.765 526.37 246.361V246.14C526.37 245.736 526.701 245.405 527.105 245.405H544.12C544.525 245.405 544.855 245.736 544.855 246.14V246.361Z" fill="url(#paint35_linear)"/>
<path d="M76.5134 232.576C76.5134 233.605 75.7049 234.414 74.6759 234.414H52.9566C51.9276 234.414 51.1191 233.605 51.1191 232.576V232.135C51.1191 231.106 51.9276 230.297 52.9566 230.297H74.6759C75.7049 230.297 76.5134 231.106 76.5134 232.135V232.576Z" fill="url(#paint36_linear)"/>
<path d="M442.507 99.2498C442.507 100.279 441.698 101.088 440.669 101.088H418.95C417.921 101.088 417.112 100.279 417.112 99.2498V98.8087C417.112 97.7794 417.921 96.9707 418.95 96.9707H440.669C441.698 96.9707 442.507 97.7794 442.507 98.8087V99.2498Z" fill="url(#paint37_linear)"/>
<path d="M529.788 250.551C529.788 251.58 528.979 252.389 527.95 252.389H506.231C505.202 252.389 504.394 251.58 504.394 250.551V250.109C504.394 249.08 505.202 248.271 506.231 248.271H527.95C528.979 248.271 529.788 249.08 529.788 250.109V250.551Z" fill="url(#paint38_linear)"/>
<path d="M433.87 91.6408C433.87 93.6625 432.217 95.3167 430.195 95.3167H403.662C401.641 95.3167 399.987 93.6625 399.987 91.6408V89.6925C399.987 87.6708 401.641 86.0166 403.662 86.0166H430.195C432.217 86.0166 433.87 87.6708 433.87 89.6925V91.6408Z" fill="url(#paint39_linear)"/>
<path d="M524.055 241.618C524.055 243.64 522.401 245.294 520.38 245.294H489.841C487.819 245.294 486.166 243.64 486.166 241.618V232.502C486.166 230.48 487.819 228.826 489.841 228.826H520.38C522.401 228.826 524.055 230.48 524.055 232.502V241.618Z" fill="url(#paint40_linear)"/>
<path d="M94.227 224.672C94.227 226.694 92.5733 228.348 90.552 228.348H62.5485C60.5273 228.348 58.8735 226.694 58.8735 224.672V218.239C58.8735 216.218 60.5273 214.563 62.5485 214.563H90.552C92.5733 214.563 94.227 216.218 94.227 218.239V224.672Z" fill="url(#paint41_linear)"/>
<path d="M175.922 141.266C175.922 142.699 174.268 143.912 172.247 143.912H98.2692C96.248 143.912 94.5942 142.736 94.5942 141.266C94.5942 139.795 96.248 138.619 98.2692 138.619H172.21C174.268 138.619 175.922 139.795 175.922 141.266Z" fill="#F1F2F2"/>
<path d="M213.04 143.839C214.359 143.839 215.428 142.77 215.428 141.45C215.428 140.13 214.359 139.061 213.04 139.061C211.72 139.061 210.651 140.13 210.651 141.45C210.651 142.77 211.72 143.839 213.04 143.839Z" fill="#F1F2F2"/>
<path d="M205.726 143.839C207.045 143.839 208.115 142.77 208.115 141.45C208.115 140.13 207.045 139.061 205.726 139.061C204.407 139.061 203.337 140.13 203.337 141.45C203.337 142.77 204.407 143.839 205.726 143.839Z" fill="#F1F2F2"/>
<path d="M197.825 143.876C199.144 143.876 200.214 142.807 200.214 141.487C200.214 140.167 199.144 139.098 197.825 139.098C196.506 139.098 195.436 140.167 195.436 141.487C195.436 142.807 196.506 143.876 197.825 143.876Z" fill="#F1F2F2"/>
<path d="M322.812 49.4413C322.812 50.8749 321.158 52.0145 319.137 52.0145H245.453C243.432 52.0145 241.778 50.8382 241.778 49.4413C241.778 48.0445 243.432 46.8682 245.453 46.8682H319.173C321.158 46.8682 322.812 48.0077 322.812 49.4413Z" fill="#F1F2F2"/>
<path d="M359.819 51.9041C361.138 51.9041 362.208 50.8673 362.208 49.5883C362.208 48.3093 361.138 47.2725 359.819 47.2725C358.5 47.2725 357.43 48.3093 357.43 49.5883C357.43 50.8673 358.5 51.9041 359.819 51.9041Z" fill="#F1F2F2"/>
<path d="M352.543 51.9041C353.862 51.9041 354.931 50.8673 354.931 49.5883C354.931 48.3093 353.862 47.2725 352.543 47.2725C351.223 47.2725 350.154 48.3093 350.154 49.5883C350.154 50.8673 351.223 51.9041 352.543 51.9041Z" fill="#F1F2F2"/>
<path d="M344.678 51.9783C345.997 51.9783 347.067 50.9415 347.067 49.6625C347.067 48.3835 345.997 47.3467 344.678 47.3467C343.359 47.3467 342.289 48.3835 342.289 49.6625C342.289 50.9415 343.359 51.9783 344.678 51.9783Z" fill="#F1F2F2"/>
<path d="M453.495 153.691C453.495 155.124 451.841 156.337 449.82 156.337H375.879C373.858 156.337 372.204 155.161 372.204 153.691C372.204 152.22 373.858 151.044 375.879 151.044H449.82C451.841 151.044 453.495 152.22 453.495 153.691Z" fill="#F1F2F2"/>
<path d="M490.612 156.264C491.932 156.264 493.001 155.194 493.001 153.875C493.001 152.555 491.932 151.485 490.612 151.485C489.293 151.485 488.224 152.555 488.224 153.875C488.224 155.194 489.293 156.264 490.612 156.264Z" fill="#F1F2F2"/>
<path d="M483.299 156.264C484.619 156.264 485.688 155.194 485.688 153.875C485.688 152.555 484.619 151.485 483.299 151.485C481.98 151.485 480.911 152.555 480.911 153.875C480.911 155.194 481.98 156.264 483.299 156.264Z" fill="#F1F2F2"/>
<path d="M475.398 156.301C476.717 156.301 477.787 155.231 477.787 153.912C477.787 152.592 476.717 151.522 475.398 151.522C474.079 151.522 473.009 152.592 473.009 153.912C473.009 155.231 474.079 156.301 475.398 156.301Z" fill="#F1F2F2"/>
<path d="M272.759 235.222C272.759 235.222 274.045 238.163 275.662 241.802C278.345 247.904 281.983 256.102 282.204 256.763C282.608 257.866 293.964 261.762 293.964 261.762C293.964 261.762 301.387 256.028 301.938 255.477C302.526 254.888 309.509 237.612 309.509 237.612C309.876 235.406 309.876 233.127 309.546 230.885C309.178 225.187 309.619 211.476 309.619 211.476L312.375 208.572L305.76 194.272C305.76 194.272 297.198 195.412 289.664 197.618C283.6 199.382 278.198 201.845 278.271 204.896C278.492 211.77 272.759 235.222 272.759 235.222Z" fill="#C8C8C8"/>
<path d="M272.759 236.215C272.759 236.215 274.045 238.236 275.699 240.773L280.072 239.192C280.991 234.744 282.277 230.333 283.931 226.106C285.695 222.43 293.559 222.834 293.559 222.834L296.867 214.269L289.627 210.263C283.563 211.476 278.161 213.167 278.271 215.299C278.455 219.967 272.759 236.215 272.759 236.215Z" fill="#C8C8C8"/>
<path d="M291.17 295.581C284.592 311.277 320.717 313.335 320.717 313.335C318.953 298.779 317.557 291.5 315.462 281.392C312.008 275.143 305.54 261.468 305.54 261.468L289.664 253.822C289.664 253.859 297.638 280.215 291.17 295.581Z" fill="#F2F2F2"/>
<path d="M258.022 264.445C258.022 264.445 248.247 291.537 243.065 297.087C240.897 299.256 238.508 301.021 235.972 302.307C234.539 303.079 232.959 303.189 231.525 302.601C230.092 302.013 228.916 300.763 228.181 299.109C228.181 299.072 228.144 299.072 228.144 299.036C227.777 298.153 227.556 297.161 227.483 296.168C227.005 289.589 227.079 280.803 229.872 274.223C230.092 273.745 230.276 273.231 230.496 272.753C232.04 269.077 233.363 265.732 234.465 262.901C236.707 256.983 237.957 253.234 237.957 253.234L251.517 249.668L252.216 251.249L258.022 264.445Z" fill="#E6E7E8"/>
<path d="M269.01 234.854C262.542 235.185 256.735 237.06 252.619 240.185C244.865 245.882 231.084 260.071 231.084 260.071C231.084 260.071 241.447 264.74 249.643 264.519L257.838 264.299L269.01 234.854Z" fill="url(#paint42_linear)"/>
<path d="M299.292 151.154C299.292 151.154 282.608 148.25 269.047 158.432C255.486 168.614 269.672 212.615 269.672 212.615C269.672 212.615 281.321 230.076 288.561 230.811C295.801 231.546 295.801 239.523 295.801 239.523C295.801 239.523 298.337 232.245 304.327 230.811C310.317 229.341 325.752 204.271 326.083 192.986C326.377 181.701 321.967 154.058 299.292 151.154Z" fill="#3D3D3E"/>
<path d="M288.157 151.742C288.157 151.742 278.014 153.837 274.853 142.883C274.853 142.883 271.509 151.595 279.557 161.115" fill="#3D3D3E"/>
<path d="M229.798 300.727C229.798 300.727 204.881 281.576 190.255 244.265C190.255 244.265 177.062 235.516 166.588 232.906C166.588 232.906 168.095 230.517 170.447 230.223C172.762 229.966 193.158 235.847 196.025 237.942C198.891 240.038 245.674 283.156 240.749 293.89C235.788 304.661 229.798 300.727 229.798 300.727Z" fill="#E6E7E8"/>
<path d="M325.495 265.328C325.495 265.328 332.919 293.339 337.512 299.294C339.46 301.646 341.628 303.595 343.98 305.102C345.303 305.984 346.81 306.241 348.243 305.763C349.677 305.286 350.926 304.146 351.735 302.529C351.735 302.529 351.771 302.492 351.771 302.455C352.212 301.61 352.506 300.654 352.617 299.625C353.572 293.082 354.16 284.223 351.955 277.385C351.808 276.871 351.624 276.356 351.477 275.878C350.265 272.092 349.236 268.6 348.39 265.659C346.663 259.557 345.744 255.661 345.744 255.661L332.882 250.992L332.073 252.536L325.495 265.328Z" fill="#E6E7E8"/>
<path d="M316.05 235.332C322.481 236.177 328.104 238.493 331.999 241.949C339.276 248.235 351.918 263.453 351.918 263.453C351.918 263.453 341.224 267.313 333.065 266.43L324.907 265.548L316.05 235.332Z" fill="url(#paint43_linear)"/>
<path d="M348.942 304.623C348.942 304.623 375.291 287.493 392.784 251.433C392.784 251.433 406.602 243.75 417.26 241.949C417.26 241.949 415.937 239.449 413.622 238.971C411.306 238.53 390.543 242.794 387.529 244.669C384.516 246.544 334.499 285.839 338.578 296.941C342.657 308.079 348.942 304.623 348.942 304.623Z" fill="#E6E7E8"/>
<path d="M226.49 357.262C226.49 357.262 246.115 369.209 280.696 369.356C310.427 369.503 346.405 358.034 346.405 358.034C346.405 358.034 346.736 355.02 342.51 323.223C342.106 320.099 341.665 317.121 341.224 314.181C339.129 300.249 336.814 288.633 334.351 278.965C322.15 230.553 307.303 230.553 307.303 230.553L304.4 230.075C292.861 228.054 280.843 229.634 270.664 234.523C268.348 235.553 266.29 236.913 264.637 238.604C255.192 249.595 226.49 357.262 226.49 357.262Z" fill="#F2F2F2"/>
<path d="M266.548 163.688C266.548 163.688 250.304 196.992 261.954 208.572C273.604 220.151 264.38 234.634 261.734 234.634C259.088 234.634 255.817 252.572 266.107 255.476C276.434 258.38 290.031 284.406 277.757 287.31C265.445 290.214 274.449 317.122 280.623 317.122C280.623 317.122 290.288 315.688 289.406 322.893C289.406 322.893 295.764 317.673 293.559 313.924C291.354 310.174 293.118 304.366 303.886 304.366C314.654 304.366 324.723 291.059 312.669 279.48C300.615 267.901 306.752 259.52 313.551 258.344C320.35 257.204 331.118 249.668 321.893 232.869C312.669 216.07 324.98 215.225 322.996 203.94C321.011 192.655 266.548 163.688 266.548 163.688Z" fill="#3D3D3E"/>
</g>
<defs>
<filter id="filter0_d" x="-30" y="-20" width="648" height="457" filterUnits="userSpaceOnUse" color-interpolation-filters="sRGB">
<feFlood flood-opacity="0" result="BackgroundImageFix"/>
<feColorMatrix in="SourceAlpha" type="matrix" values="0 0 0 0 0 0 0 0 0 0 0 0 0 0 0 0 0 0 127 0" result="hardAlpha"/>
<feOffset dy="10"/>
<feGaussianBlur stdDeviation="15"/>
<feColorMatrix type="matrix" values="0 0 0 0 0 0 0 0 0 0 0 0 0 0 0 0 0 0 0.25 0"/>
<feBlend mode="normal" in2="BackgroundImageFix" result="effect1_dropShadow"/>
<feBlend mode="normal" in="SourceGraphic" in2="effect1_dropShadow" result="shape"/>
</filter>
<linearGradient id="paint0_linear" x1="128.451" y1="165.488" x2="212.423" y2="165.488" gradientUnits="userSpaceOnUse">
<stop stop-color="#7FD1F5"/>
<stop offset="1" stop-color="#44B4E7"/>
</linearGradient>
<linearGradient id="paint1_linear" x1="97.2463" y1="166.465" x2="124.458" y2="166.465" gradientUnits="userSpaceOnUse">
<stop stop-color="#7FD1F5"/>
<stop offset="1" stop-color="#44B4E7"/>
</linearGradient>
<linearGradient id="paint2_linear" x1="412.281" y1="209.385" x2="447.815" y2="209.385" gradientUnits="userSpaceOnUse">
<stop stop-color="#7FD1F5"/>
<stop offset="1" stop-color="#44B4E7"/>
</linearGradient>
<linearGradient id="paint3_linear" x1="183.733" y1="101.502" x2="236.1" y2="101.502" gradientUnits="userSpaceOnUse">
<stop stop-color="#7FD1F5"/>
<stop offset="1" stop-color="#44B4E7"/>
</linearGradient>
<linearGradient id="paint4_linear" x1="452.992" y1="209.385" x2="488.525" y2="209.385" gradientUnits="userSpaceOnUse">
<stop stop-color="#7FD1F5"/>
<stop offset="1" stop-color="#44B4E7"/>
</linearGradient>
<linearGradient id="paint5_linear" x1="376.674" y1="177.578" x2="403.377" y2="177.578" gradientUnits="userSpaceOnUse">
<stop stop-color="#7FD1F5"/>
<stop offset="1" stop-color="#44B4E7"/>
</linearGradient>
<linearGradient id="paint6_linear" x1="142.966" y1="254.943" x2="165.268" y2="254.943" gradientUnits="userSpaceOnUse">
<stop stop-color="#7FD1F5"/>
<stop offset="1" stop-color="#44B4E7"/>
</linearGradient>
<linearGradient id="paint7_linear" x1="134.803" y1="239.19" x2="147.096" y2="239.19" gradientUnits="userSpaceOnUse">
<stop stop-color="#7FD1F5"/>
<stop offset="1" stop-color="#44B4E7"/>
</linearGradient>
<linearGradient id="paint8_linear" x1="152.344" y1="228.802" x2="159.326" y2="228.802" gradientUnits="userSpaceOnUse">
<stop stop-color="#7FD1F5"/>
<stop offset="1" stop-color="#44B4E7"/>
</linearGradient>
<linearGradient id="paint9_linear" x1="81.03" y1="207.638" x2="86.5033" y2="207.638" gradientUnits="userSpaceOnUse">
<stop stop-color="#7FD1F5"/>
<stop offset="1" stop-color="#44B4E7"/>
</linearGradient>
<linearGradient id="paint10_linear" x1="498.606" y1="222.272" x2="502.686" y2="222.272" gradientUnits="userSpaceOnUse">
<stop stop-color="#7FD1F5"/>
<stop offset="1" stop-color="#44B4E7"/>
</linearGradient>
<linearGradient id="paint11_linear" x1="472.337" y1="135.723" x2="486.568" y2="135.723" gradientUnits="userSpaceOnUse">
<stop stop-color="#7FD1F5"/>
<stop offset="1" stop-color="#44B4E7"/>
</linearGradient>
<linearGradient id="paint12_linear" x1="459.236" y1="132.248" x2="468.569" y2="132.248" gradientUnits="userSpaceOnUse">
<stop stop-color="#7FD1F5"/>
<stop offset="1" stop-color="#44B4E7"/>
</linearGradient>
<linearGradient id="paint13_linear" x1="226.556" y1="82.1411" x2="235.889" y2="82.1411" gradientUnits="userSpaceOnUse">
<stop stop-color="#7FD1F5"/>
<stop offset="1" stop-color="#44B4E7"/>
</linearGradient>
<linearGradient id="paint14_linear" x1="468.24" y1="123.662" x2="475.485" y2="123.662" gradientUnits="userSpaceOnUse">
<stop stop-color="#7FD1F5"/>
<stop offset="1" stop-color="#44B4E7"/>
</linearGradient>
<linearGradient id="paint15_linear" x1="277.853" y1="103.71" x2="356.792" y2="103.71" gradientUnits="userSpaceOnUse">
<stop stop-color="#7FD1F5"/>
<stop offset="1" stop-color="#44B4E7"/>
</linearGradient>
<linearGradient id="paint16_linear" x1="436.756" y1="249.351" x2="481.024" y2="249.351" gradientUnits="userSpaceOnUse">
<stop stop-color="#7FD1F5"/>
<stop offset="1" stop-color="#44B4E7"/>
</linearGradient>
<linearGradient id="paint17_linear" x1="245.282" y1="73.2633" x2="271.985" y2="73.2633" gradientUnits="userSpaceOnUse">
<stop stop-color="#7FD1F5"/>
<stop offset="1" stop-color="#44B4E7"/>
</linearGradient>
<linearGradient id="paint18_linear" x1="142.514" y1="89.7664" x2="189.161" y2="89.7664" gradientUnits="userSpaceOnUse">
<stop stop-color="#71459B"/>
<stop offset="0.8668" stop-color="#A76CAD"/>
</linearGradient>
<linearGradient id="paint19_linear" x1="166.957" y1="79.4657" x2="192.334" y2="79.4657" gradientUnits="userSpaceOnUse">
<stop stop-color="#71459B"/>
<stop offset="0.8668" stop-color="#A76CAD"/>
</linearGradient>
<linearGradient id="paint20_linear" x1="146.763" y1="80.9964" x2="165.233" y2="80.9964" gradientUnits="userSpaceOnUse">
<stop stop-color="#71459B"/>
<stop offset="0.8668" stop-color="#A76CAD"/>
</linearGradient>
<linearGradient id="paint21_linear" x1="133.733" y1="97.971" x2="152.203" y2="97.971" gradientUnits="userSpaceOnUse">
<stop stop-color="#71459B"/>
<stop offset="0.8668" stop-color="#A76CAD"/>
</linearGradient>
<linearGradient id="paint22_linear" x1="415.742" y1="143.615" x2="434.213" y2="143.615" gradientUnits="userSpaceOnUse">
<stop stop-color="#71459B"/>
<stop offset="0.8668" stop-color="#A76CAD"/>
</linearGradient>
<linearGradient id="paint23_linear" x1="415.742" y1="103.973" x2="434.213" y2="103.973" gradientUnits="userSpaceOnUse">
<stop stop-color="#71459B"/>
<stop offset="0.8668" stop-color="#A76CAD"/>
</linearGradient>
<linearGradient id="paint24_linear" x1="53.5932" y1="211.239" x2="72.0637" y2="211.239" gradientUnits="userSpaceOnUse">
<stop stop-color="#71459B"/>
<stop offset="0.8668" stop-color="#A76CAD"/>
</linearGradient>
<linearGradient id="paint25_linear" x1="435.283" y1="93.9497" x2="442.997" y2="93.9497" gradientUnits="userSpaceOnUse">
<stop stop-color="#71459B"/>
<stop offset="0.8668" stop-color="#A76CAD"/>
</linearGradient>
<linearGradient id="paint26_linear" x1="436.732" y1="119.177" x2="444.446" y2="119.177" gradientUnits="userSpaceOnUse">
<stop stop-color="#71459B"/>
<stop offset="0.8668" stop-color="#A76CAD"/>
</linearGradient>
<linearGradient id="paint27_linear" x1="475.307" y1="236.231" x2="483.021" y2="236.231" gradientUnits="userSpaceOnUse">
<stop stop-color="#71459B"/>
<stop offset="0.8668" stop-color="#A76CAD"/>
</linearGradient>
<linearGradient id="paint28_linear" x1="96.905" y1="224.506" x2="104.619" y2="224.506" gradientUnits="userSpaceOnUse">
<stop stop-color="#71459B"/>
<stop offset="0.8668" stop-color="#A76CAD"/>
</linearGradient>
<linearGradient id="paint29_linear" x1="190.043" y1="83.6852" x2="197.757" y2="83.6852" gradientUnits="userSpaceOnUse">
<stop stop-color="#71459B"/>
<stop offset="0.8668" stop-color="#A76CAD"/>
</linearGradient>
<linearGradient id="paint30_linear" x1="51.1414" y1="214.301" x2="58.8554" y2="214.301" gradientUnits="userSpaceOnUse">
<stop stop-color="#71459B"/>
<stop offset="0.8668" stop-color="#A76CAD"/>
</linearGradient>
<linearGradient id="paint31_linear" x1="532.997" y1="249.859" x2="540.711" y2="249.859" gradientUnits="userSpaceOnUse">
<stop stop-color="#71459B"/>
<stop offset="0.8668" stop-color="#A76CAD"/>
</linearGradient>
<linearGradient id="paint32_linear" x1="285.098" y1="33.7409" x2="292.812" y2="33.7409" gradientUnits="userSpaceOnUse">
<stop stop-color="#71459B"/>
<stop offset="0.8668" stop-color="#A76CAD"/>
</linearGradient>
<linearGradient id="paint33_linear" x1="305.203" y1="39.8574" x2="323.674" y2="39.8574" gradientUnits="userSpaceOnUse">
<stop stop-color="#71459B"/>
<stop offset="0.8668" stop-color="#A76CAD"/>
</linearGradient>
<linearGradient id="paint34_linear" x1="148.166" y1="132.193" x2="166.636" y2="132.193" gradientUnits="userSpaceOnUse">
<stop stop-color="#71459B"/>
<stop offset="0.8668" stop-color="#A76CAD"/>
</linearGradient>
<linearGradient id="paint35_linear" x1="526.377" y1="246.228" x2="544.847" y2="246.228" gradientUnits="userSpaceOnUse">
<stop stop-color="#71459B"/>
<stop offset="0.8668" stop-color="#A76CAD"/>
</linearGradient>
<linearGradient id="paint36_linear" x1="51.1206" y1="232.366" x2="76.4985" y2="232.366" gradientUnits="userSpaceOnUse">
<stop stop-color="#71459B"/>
<stop offset="0.8668" stop-color="#A76CAD"/>
</linearGradient>
<linearGradient id="paint37_linear" x1="417.141" y1="99.0408" x2="442.519" y2="99.0408" gradientUnits="userSpaceOnUse">
<stop stop-color="#71459B"/>
<stop offset="0.8668" stop-color="#A76CAD"/>
</linearGradient>
<linearGradient id="paint38_linear" x1="504.415" y1="250.353" x2="529.793" y2="250.353" gradientUnits="userSpaceOnUse">
<stop stop-color="#71459B"/>
<stop offset="0.8668" stop-color="#A76CAD"/>
</linearGradient>
<linearGradient id="paint39_linear" x1="399.983" y1="90.6858" x2="433.877" y2="90.6858" gradientUnits="userSpaceOnUse">
<stop stop-color="#71459B"/>
<stop offset="0.8668" stop-color="#A76CAD"/>
</linearGradient>
<linearGradient id="paint40_linear" x1="486.139" y1="237.053" x2="524.038" y2="237.053" gradientUnits="userSpaceOnUse">
<stop stop-color="#71459B"/>
<stop offset="0.8668" stop-color="#A76CAD"/>
</linearGradient>
<linearGradient id="paint41_linear" x1="58.8991" y1="221.442" x2="94.2439" y2="221.442" gradientUnits="userSpaceOnUse">
<stop stop-color="#71459B"/>
<stop offset="0.8668" stop-color="#A76CAD"/>
</linearGradient>
<linearGradient id="paint42_linear" x1="269.527" y1="249.355" x2="230.735" y2="250.715" gradientUnits="userSpaceOnUse">
<stop stop-color="#71459B"/>
<stop offset="0.8668" stop-color="#A76DAE"/>
</linearGradient>
<linearGradient id="paint43_linear" x1="314.406" y1="249.746" x2="352.973" y2="254.139" gradientUnits="userSpaceOnUse">
<stop stop-color="#71459B"/>
<stop offset="0.8668" stop-color="#A76DAE"/>
</linearGradient>
</defs>
</svg>
