<svg width="675" height="532" viewBox="0 0 675 532" fill="none" xmlns="http://www.w3.org/2000/svg">
<g filter="url(#filter0_d)">
<g clip-path="url(#clip0)">
<path d="M369.604 134.609C369.125 132.307 368.55 130.102 367.783 127.896C367.687 127.608 367.496 127.321 367.208 127.129C366.921 126.937 366.633 126.841 366.346 126.841L359.637 126.553C359.35 126.553 359.062 126.458 358.775 126.266C358.487 126.074 358.296 125.882 358.2 125.594C358.104 125.307 358.008 125.019 358.008 124.731C358.008 124.444 358.104 124.156 358.296 123.964L362.129 118.402C362.321 118.115 362.417 117.827 362.417 117.443C362.417 117.156 362.321 116.772 362.129 116.484C359.542 112.649 356.475 109.1 353.025 106.128C352.737 105.936 352.45 105.744 352.162 105.744C351.875 105.744 351.492 105.744 351.204 105.936L345.262 109.005C344.975 109.1 344.687 109.196 344.4 109.196C344.112 109.196 343.825 109.1 343.633 108.909C343.346 108.717 343.154 108.525 343.058 108.237C342.962 107.95 342.867 107.662 342.867 107.374L343.442 100.662C343.442 100.374 343.442 99.9904 343.25 99.7027C343.058 99.415 342.867 99.2232 342.579 99.0314C338.458 96.9217 334.05 95.4833 329.546 94.6202C329.258 94.5243 328.875 94.6202 328.587 94.7161C328.3 94.812 328.012 95.0997 327.821 95.2915L324.179 100.949C323.987 101.237 323.796 101.429 323.508 101.525C323.221 101.621 322.933 101.716 322.646 101.716C322.358 101.716 322.071 101.621 321.879 101.429C321.592 101.237 321.4 101.045 321.304 100.758L318.429 94.6202C318.333 94.3325 318.046 94.0448 317.758 93.949C317.471 93.7572 317.183 93.6613 316.8 93.7572C312.2 94.0449 307.6 94.9079 303.287 96.4422C303 96.5381 302.712 96.7299 302.521 97.0176C302.329 97.3053 302.233 97.593 302.233 97.8807L301.946 104.593C301.946 104.881 301.85 105.169 301.658 105.456C301.467 105.744 301.275 105.936 300.987 106.032C300.7 106.128 300.412 106.224 300.125 106.224C299.837 106.224 299.55 106.128 299.358 105.936L293.8 102.1C293.512 101.908 293.225 101.812 292.937 101.812C292.65 101.812 292.267 101.908 291.979 102.1C288.146 104.689 284.6 107.758 281.629 111.21C281.437 111.498 281.246 111.786 281.246 112.073C281.246 112.361 281.246 112.744 281.437 113.032L284.504 118.978C284.6 119.265 284.696 119.553 284.696 119.841C284.696 120.128 284.6 120.416 284.408 120.608C284.217 120.896 284.025 121.087 283.737 121.183C283.45 121.279 283.162 121.375 282.875 121.375L276.167 120.8C275.879 120.8 275.496 120.8 275.208 120.992C274.921 121.183 274.729 121.375 274.537 121.663C272.429 125.786 270.992 130.197 270.129 134.705C270.033 134.992 270.129 135.376 270.225 135.664C270.321 135.951 270.608 136.239 270.8 136.431L276.454 140.075C276.742 140.267 276.933 140.458 277.029 140.746C277.125 141.034 277.221 141.321 277.221 141.609C277.221 141.897 277.125 142.184 276.933 142.376C276.742 142.664 276.55 142.856 276.262 142.952L270.129 145.828C269.842 145.924 269.554 146.212 269.458 146.5C269.267 146.787 269.171 147.075 269.267 147.459C269.554 152.062 270.417 156.665 271.95 160.98C272.046 161.268 272.237 161.555 272.525 161.747C272.812 161.939 273.1 162.035 273.387 162.035L280.096 162.323C280.383 162.323 280.671 162.418 280.958 162.61C281.246 162.802 281.437 162.994 281.533 163.281C281.629 163.569 281.725 163.857 281.725 164.145C281.725 164.432 281.629 164.72 281.437 164.912L277.604 170.474C277.412 170.761 277.317 171.049 277.317 171.433C277.317 171.72 277.412 172.104 277.604 172.392C280.192 176.227 283.258 179.776 286.708 182.748C286.996 182.94 287.283 183.132 287.571 183.132C287.858 183.132 288.242 183.132 288.529 182.94L294.567 179.871C294.854 179.776 295.142 179.68 295.429 179.68C295.717 179.68 296.004 179.776 296.196 179.967C296.483 180.159 296.675 180.351 296.771 180.639C296.867 180.926 296.962 181.214 296.962 181.502L296.387 188.214C296.387 188.502 296.387 188.886 296.579 189.173C296.771 189.461 296.962 189.653 297.25 189.845C301.371 191.954 305.779 193.393 310.379 194.256C310.667 194.352 311.05 194.256 311.337 194.16C311.625 194.064 311.912 193.776 312.104 193.584L315.746 187.927C315.937 187.639 316.129 187.447 316.417 187.351C316.704 187.255 316.992 187.159 317.279 187.159C317.567 187.159 317.854 187.255 318.046 187.447C318.333 187.639 318.525 187.831 318.621 188.118L321.496 194.256C321.592 194.543 321.879 194.831 322.167 194.927C322.454 195.119 322.742 195.215 323.125 195.119C327.725 194.831 332.325 193.968 336.637 192.434C336.925 192.338 337.212 192.146 337.404 191.858C337.596 191.571 337.692 191.283 337.692 190.995L337.979 184.283C337.979 183.995 338.075 183.707 338.267 183.42C338.458 183.132 338.65 182.94 338.937 182.844C339.225 182.748 339.512 182.652 339.8 182.652C340.087 182.652 340.375 182.748 340.567 182.94L346.125 186.776C346.412 186.968 346.7 187.064 346.987 187.064C347.275 187.064 347.658 186.968 347.946 186.776C351.779 184.187 355.325 181.118 358.296 177.666C358.487 177.378 358.679 177.09 358.679 176.803C358.679 176.515 358.679 176.131 358.487 175.844L355.421 169.898C355.325 169.611 355.229 169.323 355.229 169.035C355.229 168.748 355.325 168.46 355.517 168.268C355.708 167.98 355.9 167.789 356.187 167.693C356.475 167.597 356.762 167.501 357.05 167.501L363.567 168.076C363.95 168.076 364.333 167.98 364.621 167.789C364.908 167.597 365.196 167.309 365.292 166.926L369.604 154.171C369.7 153.788 369.7 153.404 369.604 153.117C369.508 152.733 369.221 152.445 368.933 152.253L363.375 148.705C363.087 148.514 362.896 148.322 362.8 148.034C362.704 147.746 362.608 147.459 362.608 147.171C362.608 146.883 362.704 146.596 362.896 146.404C363.087 146.116 363.279 145.924 363.567 145.828L369.604 142.952C369.892 142.856 370.179 142.568 370.275 142.28C370.467 141.993 370.562 141.705 370.467 141.321C370.371 139.212 370.083 136.91 369.604 134.609ZM351.875 143.335C351.971 145.541 351.779 147.746 351.492 149.952C350.917 153.308 349.862 156.473 348.233 159.542C347.179 161.459 345.933 163.377 344.592 165.008C339.896 170.665 333.475 174.501 326.287 175.94C322.454 176.707 318.525 176.803 314.692 176.131C311.337 175.556 308.175 174.501 305.108 172.871C303.192 171.816 301.275 170.57 299.646 169.227C297.058 167.117 294.758 164.528 293.033 161.651C291.883 159.829 290.829 157.815 290.158 155.706C289.008 152.541 288.337 149.185 288.146 145.828C288.05 143.623 288.146 141.417 288.529 139.212C289.104 135.855 290.158 132.691 291.787 129.718C292.842 127.8 294.087 125.882 295.429 124.252C297.537 121.663 300.125 119.361 303 117.635C306.258 115.525 309.996 114.087 313.733 113.32C320.921 111.881 328.396 112.936 334.912 116.389C336.829 117.443 338.746 118.69 340.375 120.033C342.962 122.142 345.262 124.731 346.987 127.608C348.137 129.43 349.096 131.444 349.862 133.554C351.108 136.622 351.683 139.979 351.875 143.335Z" fill="url(#paint0_linear)"/>
<path d="M262.367 147.267C262.271 146.692 262.079 146.116 261.887 145.541C261.887 145.445 261.792 145.349 261.792 145.349C261.696 145.253 261.6 145.253 261.6 145.253L259.875 145.157C259.779 145.157 259.683 145.157 259.683 145.061C259.587 145.061 259.587 144.965 259.587 144.87C259.587 144.774 259.587 144.774 259.587 144.678C259.587 144.582 259.587 144.582 259.683 144.486L260.642 143.047C260.642 142.952 260.737 142.856 260.737 142.856C260.737 142.76 260.737 142.664 260.642 142.664C259.971 141.705 259.204 140.842 258.342 140.075C258.246 139.979 258.246 139.979 258.15 139.979C258.054 139.979 257.958 139.979 257.958 139.979L256.425 140.746C256.329 140.746 256.329 140.842 256.233 140.746C256.137 140.746 256.042 140.746 256.042 140.65C255.946 140.65 255.946 140.554 255.946 140.458C255.946 140.362 255.946 140.362 255.946 140.267L256.042 138.54C256.042 138.445 256.042 138.349 255.946 138.349C255.946 138.253 255.85 138.253 255.754 138.157C254.7 137.677 253.646 137.294 252.496 137.006C252.4 137.006 252.304 137.006 252.304 137.006C252.208 137.006 252.208 137.102 252.112 137.198L251.154 138.636C251.154 138.732 251.058 138.732 250.962 138.828C250.867 138.828 250.867 138.828 250.771 138.828C250.675 138.828 250.579 138.828 250.579 138.732C250.483 138.732 250.483 138.636 250.483 138.54L249.717 137.006C249.717 136.91 249.621 136.91 249.525 136.814C249.429 136.814 249.333 136.718 249.333 136.718C248.183 136.814 247.033 137.006 245.883 137.39C245.787 137.39 245.692 137.486 245.692 137.486C245.596 137.581 245.596 137.677 245.596 137.677L245.5 139.403C245.5 139.499 245.5 139.595 245.404 139.595C245.404 139.691 245.308 139.691 245.212 139.691C245.117 139.691 245.117 139.691 245.021 139.691C244.925 139.691 244.925 139.691 244.829 139.595L243.392 138.636C243.296 138.636 243.2 138.54 243.2 138.54C243.104 138.54 243.008 138.54 243.008 138.636C242.05 139.308 241.187 140.075 240.421 140.938C240.325 141.034 240.325 141.034 240.325 141.13C240.325 141.225 240.325 141.321 240.325 141.321L241.092 142.856C241.092 142.952 241.187 142.952 241.092 143.047C241.092 143.143 241.092 143.239 240.996 143.239C240.996 143.335 240.9 143.335 240.804 143.335C240.708 143.335 240.708 143.335 240.612 143.335L238.887 143.239C238.792 143.239 238.696 143.239 238.696 143.335C238.6 143.335 238.6 143.431 238.504 143.527C238.025 144.582 237.642 145.637 237.354 146.787C237.354 146.883 237.354 146.979 237.354 147.075C237.354 147.171 237.45 147.171 237.546 147.267L238.983 148.226C239.079 148.226 239.079 148.322 239.175 148.418C239.175 148.514 239.271 148.514 239.175 148.609C239.175 148.705 239.175 148.801 239.079 148.801C239.079 148.897 238.983 148.897 238.887 148.897L237.354 149.664C237.258 149.664 237.258 149.76 237.162 149.856C237.162 149.952 237.067 150.048 237.067 150.048C237.162 151.199 237.354 152.349 237.737 153.5C237.737 153.596 237.833 153.692 237.833 153.692C237.929 153.788 238.025 153.788 238.025 153.788L239.75 153.884C239.846 153.884 239.942 153.884 239.942 153.98C240.037 153.98 240.037 154.076 240.037 154.171C240.037 154.267 240.037 154.267 240.037 154.363C240.037 154.459 240.037 154.459 239.942 154.555L238.983 155.993C238.983 156.089 238.887 156.185 238.887 156.185C238.887 156.281 238.887 156.377 238.983 156.377C239.654 157.336 240.421 158.199 241.283 158.966C241.379 159.062 241.379 159.062 241.475 159.062C241.571 159.062 241.667 159.062 241.667 159.062L243.2 158.295C243.296 158.295 243.296 158.199 243.392 158.295C243.487 158.295 243.583 158.295 243.583 158.391C243.679 158.391 243.679 158.487 243.679 158.583C243.679 158.678 243.679 158.679 243.679 158.774L243.583 160.501C243.583 160.596 243.583 160.692 243.679 160.692C243.679 160.788 243.775 160.788 243.871 160.884C244.925 161.364 245.979 161.747 247.129 162.035C247.225 162.035 247.321 162.035 247.321 162.035C247.417 162.035 247.417 161.939 247.512 161.843L248.471 160.405C248.471 160.309 248.567 160.309 248.662 160.213C248.758 160.213 248.758 160.213 248.854 160.213C248.95 160.213 248.95 160.213 249.046 160.309C249.142 160.309 249.142 160.405 249.142 160.501L249.908 162.035C249.908 162.131 250.004 162.131 250.1 162.227C250.196 162.227 250.292 162.323 250.292 162.323C251.442 162.227 252.592 162.035 253.742 161.651C253.837 161.651 253.933 161.555 253.933 161.555C254.029 161.459 254.029 161.364 254.029 161.364L254.125 159.637C254.125 159.542 254.125 159.446 254.221 159.446C254.221 159.35 254.317 159.35 254.412 159.35C254.508 159.35 254.508 159.35 254.604 159.35C254.7 159.35 254.7 159.35 254.796 159.446L256.233 160.405C256.329 160.405 256.425 160.501 256.425 160.501C256.521 160.501 256.617 160.501 256.617 160.405C257.575 159.733 258.437 158.966 259.204 158.103C259.3 158.007 259.3 158.007 259.3 157.911C259.3 157.815 259.3 157.72 259.3 157.72L258.533 156.185C258.533 156.089 258.437 156.089 258.533 155.993C258.533 155.898 258.533 155.802 258.629 155.802C258.629 155.706 258.725 155.706 258.821 155.706C258.917 155.706 258.917 155.706 259.012 155.706L260.642 155.802C260.737 155.802 260.833 155.802 260.929 155.706C261.025 155.61 261.025 155.61 261.121 155.514L262.175 152.349C262.175 152.253 262.175 152.158 262.175 152.062C262.175 151.966 262.079 151.87 261.983 151.87L260.546 151.007C260.45 151.007 260.45 150.911 260.354 150.815C260.354 150.719 260.354 150.719 260.354 150.623C260.354 150.527 260.354 150.431 260.45 150.431C260.45 150.336 260.546 150.336 260.642 150.336L262.175 149.568C262.271 149.568 262.271 149.473 262.367 149.377C262.367 149.281 262.462 149.185 262.462 149.185C262.558 148.418 262.558 147.842 262.367 147.267ZM257.958 149.473C257.958 150.048 257.958 150.623 257.862 151.103C257.767 151.966 257.479 152.733 257 153.5C256.712 153.98 256.425 154.459 256.042 154.843C254.892 156.281 253.262 157.24 251.442 157.624C250.483 157.815 249.525 157.815 248.567 157.624C247.704 157.528 246.937 157.24 246.171 156.761C245.692 156.473 245.212 156.185 244.829 155.802C244.158 155.226 243.583 154.651 243.2 153.884C242.912 153.404 242.625 152.925 242.433 152.349C242.146 151.582 241.954 150.719 241.954 149.856C241.954 149.281 241.954 148.705 242.05 148.226C242.146 147.363 242.433 146.596 242.912 145.828C243.2 145.349 243.487 144.87 243.871 144.486C244.446 143.815 245.021 143.239 245.787 142.856C246.65 142.376 247.512 141.993 248.471 141.801C250.292 141.417 252.208 141.705 253.837 142.568C254.317 142.856 254.796 143.143 255.179 143.527C255.85 144.102 256.425 144.678 256.808 145.445C257.096 145.924 257.383 146.404 257.575 146.979C257.767 147.746 257.862 148.609 257.958 149.473Z" fill="url(#paint1_linear)"/>
<path d="M574.688 398.609C574.688 397.171 574.592 395.636 574.4 394.198C574.4 394.006 574.304 393.814 574.113 393.623C574.017 393.431 573.825 393.335 573.633 393.335L569.512 392.28C569.321 392.28 569.129 392.184 569.033 391.992C568.937 391.897 568.842 391.705 568.746 391.513C568.65 391.321 568.746 391.129 568.746 390.938C568.746 390.746 568.937 390.554 569.033 390.458L572.1 387.485C572.292 387.294 572.388 387.198 572.388 386.91C572.388 386.718 572.388 386.526 572.292 386.335C571.142 383.65 569.704 381.06 567.883 378.759C567.788 378.567 567.596 378.471 567.404 378.375C567.213 378.279 567.021 378.279 566.829 378.375L562.708 379.526C562.517 379.622 562.325 379.622 562.133 379.526C561.942 379.526 561.75 379.43 561.654 379.238C561.558 379.142 561.462 378.951 561.367 378.759C561.367 378.567 561.367 378.375 561.367 378.183L562.517 374.06C562.613 373.868 562.613 373.676 562.517 373.485C562.421 373.293 562.325 373.101 562.133 373.005C559.833 371.183 557.246 369.745 554.563 368.594C554.371 368.498 554.179 368.498 553.988 368.498C553.796 368.498 553.604 368.69 553.412 368.786L550.442 371.854C550.346 371.95 550.154 372.046 549.963 372.142C549.771 372.238 549.579 372.238 549.387 372.142C549.196 372.046 549.004 372.046 548.908 371.854C548.812 371.758 548.717 371.567 548.621 371.375L547.567 367.251C547.471 367.06 547.375 366.868 547.279 366.772C547.088 366.676 546.896 366.58 546.704 366.484C543.829 366.101 540.858 366.101 537.887 366.484C537.696 366.484 537.504 366.58 537.312 366.772C537.121 366.868 537.025 367.06 537.025 367.251L535.971 371.375C535.971 371.567 535.875 371.758 535.683 371.854C535.587 371.95 535.396 372.046 535.204 372.142C535.012 372.238 534.821 372.142 534.629 372.142C534.438 372.046 534.246 371.95 534.15 371.854L531.179 368.786C530.988 368.594 530.892 368.498 530.604 368.498C530.412 368.498 530.221 368.498 530.029 368.594C527.346 369.745 524.758 371.183 522.362 373.005C522.171 373.101 522.075 373.293 521.979 373.485C521.883 373.676 521.883 373.868 521.979 374.06L523.129 378.183C523.225 378.375 523.225 378.567 523.129 378.759C523.129 378.951 523.033 379.142 522.842 379.238C522.746 379.334 522.554 379.43 522.362 379.526C522.171 379.526 521.979 379.526 521.787 379.526L517.667 378.375C517.475 378.279 517.283 378.279 517.092 378.375C516.9 378.471 516.708 378.567 516.612 378.759C514.792 381.06 513.354 383.65 512.204 386.335C512.108 386.526 512.108 386.718 512.108 386.91C512.108 387.102 512.3 387.294 512.396 387.485L515.462 390.458C515.558 390.554 515.654 390.746 515.75 390.938C515.846 391.129 515.846 391.321 515.75 391.513C515.75 391.705 515.654 391.897 515.462 391.992C515.367 392.088 515.175 392.184 514.983 392.28L510.862 393.335C510.671 393.431 510.479 393.527 510.383 393.623C510.287 393.814 510.192 394.006 510.096 394.198C509.712 397.075 509.712 400.048 510.096 403.02C510.096 403.212 510.192 403.404 510.383 403.596C510.479 403.788 510.671 403.884 510.862 403.884L514.983 404.938C515.175 404.938 515.367 405.034 515.462 405.226C515.558 405.322 515.654 405.514 515.75 405.706C515.75 405.897 515.75 406.089 515.75 406.281C515.654 406.473 515.558 406.664 515.462 406.76L512.396 409.733C512.204 409.925 512.108 410.021 512.108 410.309C512.108 410.5 512.108 410.692 512.204 410.884C513.354 413.569 514.792 416.158 516.612 418.46C516.708 418.651 516.9 418.747 517.092 418.843C517.283 418.939 517.475 418.939 517.667 418.843L521.787 417.692C521.979 417.597 522.171 417.597 522.362 417.692C522.554 417.692 522.746 417.788 522.842 417.98C522.937 418.076 523.033 418.268 523.129 418.46C523.129 418.651 523.129 418.843 523.129 419.035L521.979 423.159C521.883 423.35 521.883 423.542 521.979 423.734C522.075 423.926 522.171 424.117 522.362 424.213C524.662 426.035 527.25 427.474 530.029 428.625C530.221 428.72 530.412 428.72 530.604 428.72C530.796 428.72 530.988 428.529 531.179 428.433L534.15 425.364C534.246 425.268 534.438 425.172 534.629 425.076C534.821 424.981 535.012 424.981 535.204 425.076C535.396 425.172 535.587 425.172 535.683 425.364C535.779 425.46 535.875 425.652 535.971 425.844L537.025 429.967C537.121 430.159 537.217 430.351 537.312 430.447C537.504 430.542 537.696 430.638 537.887 430.734C540.762 431.118 543.733 431.118 546.704 430.734C546.896 430.734 547.088 430.638 547.279 430.447C547.471 430.351 547.567 430.159 547.567 429.967L548.621 425.844C548.621 425.652 548.717 425.46 548.908 425.364C549.1 425.268 549.196 425.172 549.387 425.076C549.579 424.981 549.771 425.076 549.963 425.076C550.154 425.172 550.346 425.268 550.442 425.364L553.412 428.433C553.508 428.625 553.7 428.72 553.988 428.72C554.179 428.72 554.371 428.72 554.563 428.625C557.246 427.474 559.833 426.035 562.133 424.213C562.325 424.117 562.421 423.926 562.517 423.734C562.613 423.542 562.613 423.35 562.517 423.159L561.367 419.035C561.271 418.843 561.271 418.651 561.367 418.46C561.367 418.268 561.463 418.076 561.654 417.98C561.75 417.884 561.942 417.788 562.133 417.692C562.325 417.692 562.517 417.692 562.708 417.692L566.733 418.843C566.925 418.939 567.213 418.939 567.404 418.843C567.596 418.747 567.788 418.556 567.883 418.364L572.196 410.98C572.292 410.788 572.388 410.5 572.292 410.309C572.292 410.117 572.196 409.829 572.004 409.733L569.033 406.856C568.937 406.76 568.842 406.569 568.746 406.377C568.65 406.185 568.65 405.993 568.746 405.801C568.842 405.61 568.842 405.418 569.033 405.322C569.129 405.226 569.321 405.13 569.512 405.034L573.633 403.979C573.825 403.883 574.017 403.788 574.113 403.692C574.208 403.5 574.304 403.308 574.4 403.116C574.592 401.582 574.688 400.048 574.688 398.609ZM562.421 401.87C562.229 403.212 561.846 404.651 561.367 405.897C560.6 407.911 559.546 409.829 558.204 411.459C557.342 412.514 556.288 413.569 555.233 414.432C551.592 417.405 547.087 418.939 542.392 418.939C539.9 418.939 537.408 418.46 535.108 417.597C533.096 416.829 531.179 415.775 529.55 414.432C528.496 413.569 527.442 412.514 526.579 411.459C525.237 409.829 524.183 407.911 523.417 405.897C522.937 404.555 522.554 403.212 522.362 401.87C521.979 399.76 521.979 397.554 522.362 395.445C522.554 394.102 522.937 392.664 523.417 391.417C524.183 389.403 525.237 387.581 526.579 385.855C527.442 384.8 528.496 383.745 529.55 382.882C531.179 381.54 533.096 380.485 535.108 379.718C537.408 378.855 539.9 378.375 542.392 378.375C547.087 378.375 551.592 380.005 555.233 382.882C556.288 383.745 557.342 384.8 558.204 385.855C559.546 387.485 560.6 389.403 561.367 391.417C561.846 392.76 562.229 394.102 562.421 395.445C562.804 397.554 562.804 399.664 562.421 401.87Z" fill="url(#paint2_linear)"/>
<path d="M501.854 429.296C502.429 428.912 502.908 428.529 503.387 428.049C503.483 427.953 503.483 427.953 503.483 427.857C503.483 427.762 503.483 427.666 503.483 427.57L502.812 425.844C502.812 425.748 502.812 425.652 502.812 425.652C502.812 425.556 502.908 425.46 502.908 425.46C503.004 425.364 503.004 425.364 503.1 425.364C503.196 425.364 503.292 425.364 503.292 425.364L505.112 425.748C505.208 425.748 505.304 425.748 505.4 425.748C505.496 425.748 505.592 425.652 505.592 425.556C506.262 424.501 506.837 423.255 507.221 422.104C507.221 422.008 507.221 421.912 507.221 421.816C507.221 421.72 507.125 421.624 507.029 421.624L505.592 420.474C505.496 420.378 505.496 420.378 505.496 420.282C505.496 420.186 505.496 420.09 505.496 420.09C505.496 419.994 505.592 419.898 505.592 419.898C505.687 419.802 505.687 419.802 505.783 419.802L507.604 419.227C507.7 419.227 507.796 419.131 507.796 419.035C507.892 418.939 507.892 418.843 507.892 418.747C507.987 417.501 507.892 416.158 507.604 414.912C507.604 414.816 507.508 414.72 507.508 414.72C507.412 414.624 507.317 414.624 507.317 414.624L505.496 414.336C505.4 414.336 505.304 414.24 505.304 414.24C505.208 414.144 505.208 414.144 505.208 414.048C505.208 413.953 505.208 413.857 505.208 413.857C505.208 413.761 505.304 413.665 505.304 413.665L506.55 412.226C506.646 412.131 506.646 412.035 506.646 411.939C506.646 411.843 506.646 411.747 506.646 411.651C506.071 410.5 505.304 409.446 504.442 408.487C504.346 408.391 504.346 408.391 504.25 408.391C504.154 408.391 504.058 408.391 503.962 408.391L502.237 409.062C502.142 409.062 502.046 409.062 502.046 409.062C501.95 409.062 501.854 408.966 501.854 408.966C501.758 408.87 501.758 408.87 501.758 408.774C501.758 408.678 501.758 408.582 501.758 408.582L502.142 406.76C502.142 406.665 502.142 406.569 502.142 406.473C502.142 406.377 502.046 406.281 501.95 406.281C500.896 405.61 499.65 405.034 498.5 404.651C498.404 404.651 498.308 404.651 498.212 404.651C498.117 404.651 498.021 404.747 498.021 404.843L496.871 406.281C496.775 406.377 496.775 406.377 496.679 406.377C496.583 406.377 496.487 406.377 496.487 406.377C496.392 406.377 496.296 406.281 496.296 406.281C496.2 406.185 496.2 406.185 496.2 406.089L495.625 404.267C495.625 404.171 495.529 404.075 495.433 404.075C495.337 403.979 495.242 403.979 495.146 403.979C493.9 403.884 492.558 403.979 491.312 404.267C491.217 404.267 491.121 404.363 491.121 404.363C491.025 404.459 491.025 404.555 491.025 404.555L490.737 406.377C490.737 406.473 490.642 406.569 490.642 406.569C490.546 406.665 490.546 406.665 490.45 406.665C490.354 406.665 490.258 406.665 490.258 406.665C490.162 406.665 490.067 406.569 490.067 406.569L488.629 405.322C488.533 405.226 488.437 405.226 488.342 405.226C488.246 405.226 488.15 405.226 488.054 405.226C486.904 405.801 485.85 406.569 484.892 407.432C484.796 407.528 484.796 407.528 484.796 407.623C484.796 407.719 484.796 407.815 484.796 407.911L485.467 409.637C485.467 409.733 485.467 409.829 485.467 409.829C485.467 409.925 485.371 410.021 485.371 410.021C485.275 410.117 485.275 410.117 485.179 410.117C485.083 410.117 484.987 410.117 484.987 410.117L483.167 409.733C483.071 409.733 482.975 409.733 482.879 409.733C482.783 409.733 482.687 409.829 482.687 409.925C482.017 410.98 481.442 412.226 481.058 413.377C481.058 413.473 481.058 413.569 481.058 413.665C481.058 413.761 481.154 413.857 481.25 413.857L482.687 415.103C482.783 415.199 482.783 415.199 482.783 415.295C482.783 415.391 482.783 415.487 482.783 415.487C482.783 415.583 482.687 415.679 482.687 415.679C482.592 415.775 482.592 415.775 482.496 415.775L480.675 416.35C480.579 416.35 480.483 416.446 480.483 416.542C480.387 416.638 480.387 416.734 480.387 416.829C480.292 418.076 480.387 419.419 480.675 420.665C480.675 420.761 480.771 420.857 480.771 420.857C480.867 420.953 480.962 420.953 480.962 420.953L482.783 421.241C482.879 421.241 482.975 421.337 482.975 421.337C482.975 421.337 483.071 421.432 483.071 421.528C483.071 421.624 483.071 421.72 483.071 421.72C483.071 421.816 482.975 421.912 482.975 421.912L481.729 423.35C481.633 423.446 481.633 423.542 481.633 423.638C481.633 423.734 481.633 423.83 481.633 423.926C482.208 425.077 482.975 426.131 483.837 427.09C483.933 427.186 483.933 427.186 484.029 427.186C484.125 427.186 484.221 427.186 484.317 427.186L486.042 426.515C486.137 426.515 486.233 426.515 486.233 426.515C486.329 426.515 486.425 426.611 486.425 426.611C486.521 426.707 486.521 426.707 486.521 426.803C486.521 426.899 486.521 426.994 486.521 426.994L486.137 428.816C486.137 428.912 486.137 429.008 486.137 429.104C486.137 429.2 486.233 429.296 486.329 429.296C487.383 429.967 488.629 430.543 489.779 430.926C489.875 430.926 489.971 430.926 490.067 430.926C490.162 430.926 490.258 430.83 490.258 430.734L491.408 429.296C491.504 429.2 491.504 429.2 491.6 429.2C491.696 429.2 491.792 429.2 491.792 429.2C491.887 429.2 491.983 429.296 491.983 429.296C492.079 429.392 492.079 429.392 492.079 429.488L492.654 431.214C492.654 431.31 492.75 431.406 492.846 431.406C492.942 431.502 493.037 431.502 493.133 431.502L496.871 431.214C496.967 431.214 497.062 431.118 497.158 431.118C497.254 431.022 497.254 430.926 497.254 430.83L497.542 429.008C497.542 428.912 497.637 428.816 497.637 428.816C497.733 428.721 497.733 428.721 497.829 428.721C497.925 428.721 498.021 428.721 498.021 428.721C498.117 428.721 498.212 428.816 498.212 428.816L499.65 430.063C499.746 430.159 499.842 430.159 499.937 430.159C500.033 430.159 500.129 430.159 500.225 430.159C500.8 430.063 501.375 429.68 501.854 429.296ZM497.733 425.748C497.158 426.035 496.583 426.227 496.008 426.323C495.05 426.515 494.187 426.611 493.229 426.515C492.654 426.419 491.983 426.323 491.408 426.227C489.396 425.652 487.767 424.405 486.617 422.679C486.042 421.816 485.562 420.761 485.275 419.706C485.083 418.747 484.987 417.884 485.083 416.925C485.179 416.35 485.275 415.679 485.467 415.103C485.754 414.24 486.137 413.377 486.712 412.61C487.096 412.131 487.479 411.651 487.958 411.172C488.629 410.5 489.396 410.021 490.258 409.541C490.833 409.254 491.408 409.062 491.983 408.966C492.942 408.774 493.804 408.678 494.762 408.774C495.337 408.87 496.008 408.966 496.583 409.158C497.446 409.446 498.308 409.829 499.171 410.404C500.033 410.98 500.8 411.843 501.471 412.706C502.621 414.432 503.196 416.446 503.004 418.46C502.908 419.035 502.812 419.706 502.621 420.282C502.333 421.145 501.95 422.008 501.375 422.871C500.992 423.35 500.608 423.83 500.225 424.309C499.362 424.789 498.5 425.268 497.733 425.748Z" fill="url(#paint3_linear)"/>
<path opacity="0.9" d="M594.812 141.226C595.292 137.102 595.579 132.883 595.483 128.663C595.483 128.088 595.292 127.512 594.908 127.033C594.525 126.554 594.142 126.17 593.567 125.978L582.162 121.567C581.683 121.375 581.204 121.087 580.917 120.608C580.629 120.224 580.342 119.745 580.342 119.17C580.246 118.69 580.342 118.115 580.533 117.635C580.725 117.156 581.108 116.676 581.492 116.389L591.267 109.005C591.746 108.621 592.129 108.142 592.321 107.566C592.512 106.991 592.512 106.415 592.417 105.84C590.212 97.7849 586.954 90.0173 582.642 82.8251C582.354 82.3457 581.875 81.9621 581.396 81.6744C580.821 81.3867 580.246 81.3867 579.671 81.4826L567.596 83.4005C567.117 83.4964 566.542 83.4005 566.062 83.2087C565.583 83.0169 565.104 82.7292 564.817 82.2498C564.529 81.8662 564.242 81.3867 564.242 80.8113C564.146 80.3318 564.242 79.7565 564.433 79.277L569.225 68.0572C569.417 67.4818 569.512 66.9065 569.417 66.3311C569.321 65.7557 569.033 65.1803 568.65 64.7968C562.708 58.8512 556 53.8647 548.717 49.7412C548.237 49.4535 547.567 49.3576 546.992 49.3576C546.417 49.4535 545.842 49.6453 545.362 50.0288L535.875 57.7005C535.492 57.9882 535.012 58.2759 534.437 58.2759C533.958 58.3718 533.383 58.2759 532.904 58.0841C532.425 57.8923 531.946 57.6046 531.658 57.1251C531.371 56.7415 531.179 56.1662 531.083 55.6867L529.646 43.6038C529.55 43.0285 529.358 42.4531 528.975 42.0695C528.592 41.59 528.112 41.3023 527.537 41.1105C519.487 39.0008 511.15 37.946 502.717 38.0419C502.142 38.0419 501.567 38.2337 501.087 38.6173C500.608 39.0008 500.225 39.3844 500.033 39.9598L495.625 51.3714C495.433 51.8509 495.146 52.3303 494.667 52.618C494.283 52.9057 493.804 53.1934 493.229 53.1934C492.654 53.1934 492.175 53.1934 491.696 53.0016C491.217 52.8098 490.833 52.4262 490.45 52.0426L483.071 42.2613C482.687 41.7818 482.208 41.3982 481.633 41.2064C481.058 41.0147 480.483 41.0147 479.908 41.1105C471.858 43.3161 464.096 46.5766 456.908 50.8919C456.429 51.1796 456.046 51.6591 455.758 52.1385C455.471 52.7139 455.471 53.2893 455.567 53.8647L457.483 65.9475C457.579 66.427 457.483 67.0024 457.292 67.4818C457.1 67.9613 456.812 68.4408 456.333 68.7285C455.95 69.0162 455.471 69.3039 454.896 69.3039C454.417 69.3998 453.842 69.3039 453.362 69.1121L442.15 64.3173C441.575 64.1255 441 64.0296 440.425 64.1255C439.85 64.2214 439.275 64.5091 438.892 64.8927C432.95 70.8382 427.871 77.5509 423.846 84.8389C423.558 85.3184 423.462 85.9897 423.462 86.5651C423.558 87.1404 423.75 87.7158 424.133 88.1953L431.8 97.689C432.087 98.0725 432.375 98.552 432.471 99.1274C432.567 99.6069 432.471 100.182 432.279 100.662C432.087 101.141 431.8 101.621 431.321 101.908C430.937 102.196 430.362 102.388 429.883 102.484L417.808 103.922C417.233 104.018 416.658 104.21 416.179 104.593C415.7 104.977 415.412 105.456 415.221 106.032C413.112 114.087 412.058 122.526 412.154 130.869C412.154 131.444 412.346 132.02 412.729 132.499C413.112 132.979 413.496 133.362 414.071 133.554L425.475 137.965C425.954 138.157 426.433 138.445 426.721 138.924C427.008 139.308 427.296 139.787 427.296 140.362C427.392 140.842 427.296 141.417 427.104 141.897C426.912 142.376 426.529 142.856 426.146 143.143L416.371 150.527C415.892 150.911 415.508 151.39 415.317 151.966C415.125 152.541 415.125 153.117 415.221 153.692C417.425 161.747 420.683 169.515 424.996 176.707C425.283 177.186 425.762 177.57 426.242 177.858C426.817 178.145 427.392 178.145 427.967 178.049L440.042 176.132C440.521 176.036 441.096 176.132 441.575 176.323C442.054 176.515 442.533 176.803 442.821 177.282C443.108 177.666 443.396 178.145 443.396 178.721C443.492 179.2 443.396 179.776 443.204 180.255L438.412 191.475C438.221 192.05 438.125 192.626 438.221 193.201C438.317 193.776 438.604 194.352 438.987 194.735C444.929 200.681 451.637 205.763 458.921 209.791C459.4 210.079 460.071 210.174 460.646 210.174C461.221 210.079 461.796 209.887 462.275 209.503L471.762 201.832C472.146 201.544 472.625 201.256 473.2 201.256C473.679 201.16 474.254 201.256 474.733 201.448C475.212 201.64 475.692 201.927 475.979 202.407C476.267 202.791 476.458 203.366 476.554 203.845L477.992 215.928C478.087 216.504 478.279 217.079 478.662 217.463C479.046 217.942 479.525 218.23 480.1 218.422C488.15 220.531 496.487 221.586 504.921 221.49C505.496 221.49 506.071 221.298 506.55 220.915C507.029 220.531 507.412 220.148 507.604 219.572L512.012 208.161C512.204 207.681 512.492 207.202 512.971 206.914C513.354 206.626 513.833 206.339 514.408 206.339C514.887 206.243 515.462 206.339 515.942 206.53C516.421 206.722 516.9 207.106 517.187 207.489L524.567 217.271C524.95 217.75 525.429 218.134 526.004 218.326C526.579 218.517 527.154 218.517 527.729 218.422C535.779 216.216 543.542 212.955 550.729 208.64C551.208 208.352 551.592 207.873 551.879 207.394C552.167 206.818 552.167 206.243 552.071 205.667L550.154 193.585C550.058 193.105 550.154 192.53 550.346 192.05C550.537 191.571 550.825 191.091 551.304 190.804C551.687 190.516 552.167 190.228 552.742 190.228C553.221 190.132 553.796 190.228 554.275 190.42L565.2 195.023C565.775 195.311 566.446 195.311 567.117 195.119C567.787 194.927 568.267 194.544 568.746 194.064L583.408 174.693C583.792 174.214 583.983 173.542 583.983 172.871C583.983 172.2 583.696 171.529 583.312 171.049L575.837 161.843C575.55 161.46 575.262 160.98 575.167 160.405C575.071 159.925 575.167 159.35 575.358 158.87C575.55 158.391 575.837 157.911 576.317 157.624C576.7 157.336 577.275 157.144 577.754 157.048L589.829 155.61C590.404 155.514 590.979 155.322 591.458 154.939C591.937 154.555 592.225 154.076 592.417 153.5C593.471 149.473 594.333 145.349 594.812 141.226ZM559.354 146.02C558.3 149.856 556.767 153.596 554.85 157.048C551.975 162.418 548.237 167.405 543.829 171.624C540.954 174.405 537.792 176.803 534.437 179.008C525.812 184.379 515.942 187.447 505.879 187.735C499.746 187.927 493.708 187.16 487.767 185.529C483.933 184.474 480.196 182.94 476.65 181.022C471.283 178.145 466.3 174.405 462.083 169.994C459.304 167.117 456.908 163.953 454.704 160.596C451.446 155.418 449.05 149.76 447.612 143.815C446.654 139.979 446.079 135.951 445.983 132.02C445.792 125.882 446.558 119.745 448.187 113.895C449.242 110.059 450.775 106.32 452.692 102.771C455.567 97.4013 459.304 92.5106 463.712 88.2912C466.587 85.5102 469.75 83.1128 473.104 80.9072C478.279 77.6468 483.933 75.2494 489.875 73.8109C496.679 72.0848 503.867 71.7012 510.862 72.5643C523.992 74.1945 536.258 80.3318 545.458 89.8255C548.237 92.7024 550.633 95.8669 552.837 99.2233C556.096 104.402 558.492 110.059 559.929 116.005C560.887 119.841 561.462 123.868 561.558 127.8C561.846 134.033 561.079 140.075 559.354 146.02Z" fill="url(#paint4_linear)"/>
<path opacity="0.9" d="M229.304 328.414C229.304 327.167 229.208 325.825 229.017 324.578C229.017 324.386 228.921 324.194 228.825 324.098C228.729 324.003 228.538 323.907 228.346 323.811L224.704 322.948C224.513 322.948 224.417 322.852 224.321 322.756C224.225 322.66 224.129 322.468 224.129 322.372C224.129 322.181 224.129 322.085 224.129 321.893C224.129 321.701 224.225 321.605 224.417 321.509L227.1 318.92C227.196 318.824 227.292 318.632 227.388 318.441C227.388 318.249 227.388 318.057 227.388 317.865C226.429 315.468 225.088 313.262 223.554 311.248C223.458 311.153 223.267 310.961 223.075 310.961C222.883 310.865 222.692 310.865 222.5 310.961L218.954 312.016C218.763 312.016 218.667 312.016 218.475 312.016C218.283 312.016 218.188 311.92 218.092 311.824C217.996 311.728 217.9 311.536 217.9 311.44C217.9 311.248 217.9 311.153 217.9 310.961L218.954 307.413C219.05 307.221 218.954 307.029 218.954 306.837C218.858 306.645 218.763 306.55 218.667 306.358C216.654 304.823 214.45 303.481 212.054 302.522C211.863 302.426 211.671 302.426 211.479 302.522C211.288 302.522 211.096 302.618 211 302.81L208.413 305.495C208.317 305.591 208.125 305.686 208.029 305.782C207.837 305.782 207.742 305.782 207.55 305.782C207.358 305.782 207.263 305.686 207.167 305.591C207.071 305.495 206.975 305.303 206.975 305.207L206.112 301.563C206.112 301.371 206.017 301.275 205.825 301.083C205.729 300.988 205.538 300.892 205.346 300.892C202.854 300.508 200.267 300.508 197.679 300.892C197.488 300.892 197.296 300.988 197.2 301.083C197.104 301.179 197.008 301.371 196.912 301.563L196.05 305.207C196.05 305.399 195.954 305.495 195.858 305.591C195.762 305.686 195.571 305.782 195.475 305.782C195.283 305.782 195.187 305.782 194.996 305.782C194.804 305.782 194.708 305.686 194.612 305.495L192.025 302.81C191.929 302.714 191.737 302.618 191.546 302.522C191.354 302.522 191.162 302.522 191.067 302.522C188.671 303.481 186.467 304.728 184.454 306.358C184.358 306.454 184.167 306.645 184.167 306.837C184.071 307.029 184.071 307.221 184.167 307.413L185.221 310.961C185.221 311.153 185.221 311.248 185.221 311.44C185.221 311.632 185.125 311.728 185.029 311.824C184.933 311.92 184.742 312.016 184.646 312.016C184.454 312.016 184.358 312.016 184.167 312.016L180.621 310.961C180.429 310.865 180.237 310.961 180.046 310.961C179.854 311.057 179.758 311.153 179.567 311.248C178.033 313.262 176.692 315.468 175.733 317.865C175.637 318.057 175.637 318.249 175.733 318.441C175.733 318.632 175.829 318.824 176.021 318.92L178.704 321.509C178.8 321.605 178.896 321.797 178.992 321.893C178.992 322.085 178.992 322.181 178.992 322.372C178.992 322.564 178.896 322.66 178.8 322.756C178.704 322.852 178.512 322.948 178.417 322.948L174.775 323.811C174.583 323.811 174.487 323.907 174.296 324.098C174.2 324.194 174.104 324.386 174.104 324.578C173.721 327.071 173.721 329.66 174.104 332.25C174.104 332.441 174.2 332.633 174.296 332.729C174.392 332.825 174.583 332.921 174.775 333.017L178.417 333.88C178.608 333.88 178.704 333.976 178.8 334.072C178.896 334.167 178.992 334.359 178.992 334.455C178.992 334.647 178.992 334.743 178.992 334.935C178.992 335.126 178.896 335.222 178.704 335.318L176.021 337.907C175.925 338.003 175.829 338.195 175.733 338.387C175.733 338.579 175.733 338.77 175.733 338.962C176.692 341.36 178.033 343.565 179.567 345.579C179.662 345.675 179.854 345.867 180.046 345.867C180.237 345.963 180.429 345.963 180.621 345.867L184.167 344.812C184.358 344.812 184.454 344.812 184.646 344.812C184.837 344.812 184.933 344.908 185.029 345.004C185.125 345.1 185.221 345.291 185.221 345.387C185.221 345.579 185.221 345.675 185.221 345.867L184.167 349.415C184.071 349.607 184.167 349.798 184.167 349.99C184.262 350.182 184.358 350.278 184.454 350.47C186.467 352.004 188.671 353.347 191.067 354.306C191.258 354.401 191.45 354.401 191.546 354.306C191.737 354.306 191.929 354.21 192.025 354.018L194.612 351.333C194.708 351.237 194.9 351.141 194.996 351.045C195.187 351.045 195.283 351.045 195.475 351.045C195.667 351.045 195.762 351.141 195.858 351.237C195.954 351.333 196.05 351.525 196.05 351.621L196.912 355.265C196.912 355.456 197.008 355.552 197.2 355.744C197.296 355.84 197.488 355.936 197.679 355.936C200.171 356.319 202.758 356.319 205.346 355.936C205.538 355.936 205.729 355.84 205.825 355.744C205.921 355.648 206.017 355.456 206.112 355.265L206.975 351.621C206.975 351.429 207.071 351.333 207.167 351.237C207.263 351.141 207.454 351.045 207.55 351.045C207.742 351.045 207.837 351.045 208.029 351.045C208.221 351.045 208.317 351.141 208.413 351.333L211 354.018C211.096 354.114 211.288 354.21 211.479 354.306C211.671 354.306 211.863 354.306 211.958 354.306C214.354 353.347 216.558 352.1 218.571 350.47C218.667 350.374 218.858 350.182 218.858 349.99C218.954 349.798 218.954 349.607 218.858 349.415L217.804 345.867C217.804 345.675 217.804 345.579 217.804 345.387C217.804 345.196 217.9 345.1 217.996 345.004C218.092 344.908 218.283 344.812 218.379 344.812C218.571 344.812 218.667 344.812 218.858 344.812L222.308 345.771C222.5 345.867 222.692 345.771 222.883 345.771C223.075 345.675 223.267 345.579 223.363 345.387L227.1 338.962C227.196 338.77 227.196 338.579 227.196 338.387C227.196 338.195 227.1 338.003 226.908 337.907L224.321 335.414C224.225 335.318 224.129 335.126 224.033 335.031C224.033 334.839 224.033 334.743 224.033 334.551C224.033 334.359 224.129 334.263 224.225 334.167C224.321 334.072 224.513 333.976 224.608 333.976L228.25 333.113C228.442 333.113 228.538 333.017 228.729 332.825C228.825 332.729 228.921 332.537 228.921 332.345C229.208 331.003 229.304 329.756 229.304 328.414ZM218.667 331.195C218.475 332.441 218.188 333.592 217.708 334.743C217.038 336.469 216.079 338.099 214.929 339.538C214.163 340.497 213.3 341.36 212.342 342.127C209.179 344.716 205.25 346.059 201.225 346.059C199.021 346.059 196.912 345.675 194.9 344.908C193.175 344.237 191.546 343.278 190.108 342.127C189.15 341.36 188.287 340.497 187.521 339.538C186.371 338.099 185.412 336.469 184.742 334.743C184.262 333.592 183.975 332.441 183.783 331.195C183.496 329.373 183.496 327.455 183.783 325.633C183.975 324.386 184.262 323.235 184.742 322.085C185.412 320.359 186.371 318.728 187.521 317.29C188.287 316.331 189.15 315.468 190.108 314.701C191.546 313.55 193.175 312.591 194.9 311.92C196.912 311.153 199.021 310.769 201.225 310.769C205.25 310.769 209.179 312.207 212.342 314.701C213.3 315.468 214.163 316.331 214.929 317.29C216.079 318.728 217.038 320.359 217.708 322.085C218.188 323.235 218.475 324.386 218.667 325.633C218.954 327.551 218.954 329.373 218.667 331.195Z" fill="url(#paint5_linear)"/>
<path d="M229.017 164.049H531.083C536.929 164.049 542.487 166.35 546.608 170.474C550.729 174.597 553.029 180.159 553.029 186.009V386.814H206.975V186.105C206.975 180.255 209.275 174.693 213.396 170.57C217.517 166.35 223.171 164.049 229.017 164.049Z" fill="#231F20"/>
<path d="M543.158 184.474C543.158 179.2 538.846 174.885 533.575 174.885H226.525C221.254 174.885 216.942 179.2 216.942 184.474V357.95C216.942 363.224 221.254 367.539 226.525 367.539H533.575C538.846 367.539 543.158 363.224 543.158 357.95V184.474V184.474Z" fill="url(#paint6_linear)"/>
<path opacity="0.5" d="M553.125 378.471H206.975V386.814H553.125V378.471Z" fill="white"/>
<path d="M198.35 401.966H561.654C565.679 401.966 569.513 400.335 572.292 397.554C575.167 394.678 576.7 390.842 576.7 386.91H183.304C183.304 390.938 184.933 394.773 187.713 397.554C190.492 400.431 194.325 401.966 198.35 401.966Z" fill="#CACACA"/>
<path d="M402.858 393.335H356.954C355.229 393.335 353.6 392.664 352.354 391.417C351.108 390.17 350.438 388.54 350.438 386.814H409.279C409.279 387.677 409.088 388.54 408.8 389.307C408.513 390.075 408.033 390.842 407.363 391.417C406.788 391.992 406.021 392.472 405.254 392.856C404.488 393.143 403.721 393.335 402.858 393.335Z" fill="#666666"/>
<path opacity="0.8" d="M254.7 270.685L298.4 289.672V301.084L254.508 320.167L254.7 306.741L283.737 295.426L254.7 284.014V270.685V270.685Z" fill="#F6F6F6"/>
<path opacity="0.8" d="M321.208 338.866V326.4H366.921V338.866H321.208Z" fill="#F6F6F6"/>
<path opacity="0.9" d="M153.212 310.961C150.817 281.808 203.429 220.819 203.429 220.819C203.429 220.819 144.683 240.669 142 308.276L153.212 310.961Z" fill="url(#paint7_linear)"/>
<path opacity="0.9" d="M137.496 315.372C123.888 239.998 153.213 181.693 153.213 181.693C153.213 181.693 163.946 227.436 143.533 305.974L137.496 315.372Z" fill="url(#paint8_linear)"/>
<path opacity="0.9" d="M113.154 316.906C115.55 287.754 62.9375 226.764 62.9375 226.764C62.9375 226.764 121.683 246.615 124.367 314.221L113.154 316.906Z" fill="url(#paint9_linear)"/>
<path opacity="0.9" d="M124.846 318.249C98.9708 265.314 114.4 168.556 114.4 168.556C114.4 168.556 145.354 261.574 137.783 316.619L124.846 318.249Z" fill="url(#paint10_linear)"/>
<path d="M171.421 404.267H88.9083L103.283 312.783L130.212 312.495H158.196L171.325 402.541L171.421 404.267Z" fill="#F1F2F2"/>
<path d="M157.333 305.495H102.612C100.983 305.495 99.6417 306.837 99.6417 308.468V309.81C99.6417 311.44 100.983 312.783 102.612 312.783H157.333C158.963 312.783 160.304 311.44 160.304 309.81V308.468C160.304 306.837 158.963 305.495 157.333 305.495Z" fill="#F1F2F2"/>
<path opacity="0.5" d="M171.229 402.541L88.9083 404.363C158.1 401.103 151.871 312.591 151.871 312.591H158.1L171.229 402.541Z" fill="url(#paint11_linear)"/>
<path opacity="0.3" d="M435.154 175.652L229.496 350.278L216.942 360.922V178.912C217.325 177.954 218.187 177.09 219.146 176.515C220.2 175.94 221.35 175.652 222.596 175.652H435.154Z" fill="white"/>
<path opacity="0.3" d="M534.054 174.885L348.425 367.443H263.517L446.367 174.885H534.054V174.885Z" fill="white"/>
<path d="M231.125 173.35C231.125 173.35 216.558 171.624 215.408 183.995" stroke="#231F20" stroke-width="3" stroke-miterlimit="10"/>
<g clip-path="url(#clip1)">
<path fill-rule="evenodd" clip-rule="evenodd" d="M515.5 216.258C532.022 216.258 547 222.582 558.272 232.917C552.79 232.762 547.232 236.079 547 243.56C546.537 258.753 565.143 261.993 555.107 292.457L546.846 317.677L524.224 251.118C523.838 250.115 524.301 249.498 525.537 249.498H531.945C532.254 249.498 532.563 249.19 532.563 248.881V245.102C532.563 244.794 532.254 244.485 531.945 244.485C519.824 245.025 507.857 245.025 495.89 244.485C495.581 244.485 495.272 244.794 495.272 245.102V248.881C495.272 249.19 495.581 249.498 495.89 249.498H502.298C503.765 249.498 504.151 249.961 504.46 250.887L513.724 276.261L499.75 318.448L476.82 250.81C476.511 249.961 476.897 249.498 477.669 249.498H485.004C485.312 249.498 485.621 249.19 485.621 248.881V245.102C485.621 244.794 485.312 244.485 485.004 244.485C477.36 244.871 469.64 244.948 462.46 245.025C473.732 227.749 493.265 216.258 515.5 216.258ZM571.088 249.344C575.952 258.291 578.732 268.548 578.732 279.423C578.732 303.332 565.452 324.155 545.842 334.876L565.529 279.037C568.618 270.476 571.397 258.753 571.088 249.344ZM536.654 339.04C530.015 341.431 522.912 342.665 515.5 342.665C509.092 342.665 502.915 341.74 497.125 339.966L516.581 284.205L536.654 339.04ZM488.478 336.572C467.092 326.469 452.346 304.643 452.346 279.423C452.346 270.091 454.353 261.221 458.059 253.2L488.478 336.572ZM515.5 210.319C553.717 210.319 584.676 241.246 584.676 279.423C584.676 317.6 553.717 348.527 515.5 348.527C477.283 348.527 446.324 317.6 446.324 279.423C446.324 241.323 477.283 210.319 515.5 210.319ZM515.5 206C556.11 206 589 238.932 589 279.5C589 320.068 556.11 353 515.5 353C474.89 353 442 320.068 442 279.5C442 238.932 474.89 206 515.5 206Z" fill="white"/>
</g>
</g>
</g>
<defs>
<filter id="filter0_d" x="-13" y="-9" width="700" height="550" filterUnits="userSpaceOnUse" color-interpolation-filters="sRGB">
<feFlood flood-opacity="0" result="BackgroundImageFix"/>
<feColorMatrix in="SourceAlpha" type="matrix" values="0 0 0 0 0 0 0 0 0 0 0 0 0 0 0 0 0 0 127 0" result="hardAlpha"/>
<feOffset dy="25"/>
<feGaussianBlur stdDeviation="25"/>
<feColorMatrix type="matrix" values="0 0 0 0 0 0 0 0 0 0 0 0 0 0 0 0 0 0 0.25 0"/>
<feBlend mode="normal" in2="BackgroundImageFix" result="effect1_dropShadow"/>
<feBlend mode="normal" in="SourceGraphic" in2="effect1_dropShadow" result="shape"/>
</filter>
<linearGradient id="paint0_linear" x1="269.343" y1="144.571" x2="370.53" y2="144.571" gradientUnits="userSpaceOnUse">
<stop stop-color="#71439A"/>
<stop offset="0.8668" stop-color="#A76CAD"/>
</linearGradient>
<linearGradient id="paint1_linear" x1="237.149" y1="149.766" x2="262.631" y2="149.766" gradientUnits="userSpaceOnUse">
<stop stop-color="#71439A"/>
<stop offset="0.8668" stop-color="#A76CAD"/>
</linearGradient>
<linearGradient id="paint2_linear" x1="510.102" y1="398.618" x2="574.65" y2="398.618" gradientUnits="userSpaceOnUse">
<stop stop-color="#71439A"/>
<stop offset="0.8668" stop-color="#A76CAD"/>
</linearGradient>
<linearGradient id="paint3_linear" x1="479.692" y1="417.61" x2="508.012" y2="417.61" gradientUnits="userSpaceOnUse">
<stop stop-color="#71439A"/>
<stop offset="0.8668" stop-color="#A76CAD"/>
</linearGradient>
<linearGradient id="paint4_linear" x1="505.592" y1="38.2366" x2="501.934" y2="227.628" gradientUnits="userSpaceOnUse">
<stop stop-color="#75DAFF"/>
<stop offset="1" stop-color="#00BAFF"/>
</linearGradient>
<linearGradient id="paint5_linear" x1="198.337" y1="356.332" x2="204.34" y2="298.747" gradientUnits="userSpaceOnUse">
<stop stop-color="#75DAFF"/>
<stop offset="1" stop-color="#00BAFF"/>
</linearGradient>
<linearGradient id="paint6_linear" x1="374.144" y1="367.149" x2="386.344" y2="168.921" gradientUnits="userSpaceOnUse">
<stop stop-color="#75DAFF"/>
<stop offset="1" stop-color="#00BAFF"/>
</linearGradient>
<linearGradient id="paint7_linear" x1="165.385" y1="310.032" x2="179.37" y2="218.572" gradientUnits="userSpaceOnUse">
<stop stop-color="#75DAFF"/>
<stop offset="1" stop-color="#00BAFF"/>
</linearGradient>
<linearGradient id="paint8_linear" x1="115.111" y1="296.886" x2="177.642" y2="197.479" gradientUnits="userSpaceOnUse">
<stop stop-color="#75DAFF"/>
<stop offset="1" stop-color="#00BAFF"/>
</linearGradient>
<linearGradient id="paint9_linear" x1="86.6868" y1="316.073" x2="100.672" y2="224.613" gradientUnits="userSpaceOnUse">
<stop stop-color="#75DAFF"/>
<stop offset="1" stop-color="#00BAFF"/>
</linearGradient>
<linearGradient id="paint10_linear" x1="94.048" y1="302.301" x2="158.777" y2="181.582" gradientUnits="userSpaceOnUse">
<stop stop-color="#75DAFF"/>
<stop offset="1" stop-color="#00BAFF"/>
</linearGradient>
<linearGradient id="paint11_linear" x1="129.897" y1="404.476" x2="140.824" y2="310.432" gradientUnits="userSpaceOnUse">
<stop stop-color="#75DAFF"/>
<stop offset="1" stop-color="#00BAFF"/>
</linearGradient>
<clipPath id="clip0">
<rect width="575" height="431.53" fill="white" transform="translate(50 25)"/>
</clipPath>
<clipPath id="clip1">
<rect width="190.101" height="190.5" fill="white" transform="translate(353 180)"/>
</clipPath>
</defs>
</svg>
