<svg width="600" height="500" viewBox="0 0 600 500" fill="none" xmlns="http://www.w3.org/2000/svg">
<g filter="url(#filter0_d)">
<path d="M344.74 138.988C344.209 136.438 343.572 133.995 342.723 131.551C342.617 131.233 342.404 130.914 342.086 130.701C341.767 130.489 341.449 130.383 341.13 130.383L333.698 130.064C333.38 130.064 333.061 129.958 332.743 129.745C332.424 129.533 332.212 129.32 332.106 129.002C332 128.683 331.893 128.364 331.893 128.045C331.893 127.727 332 127.408 332.212 127.196L336.459 121.034C336.671 120.715 336.777 120.396 336.777 119.971C336.777 119.653 336.671 119.228 336.459 118.909C333.592 114.659 330.195 110.729 326.373 107.435C326.054 107.223 325.736 107.01 325.417 107.01C325.099 107.01 324.674 107.01 324.356 107.223L317.773 110.622C317.455 110.729 317.136 110.835 316.818 110.835C316.499 110.835 316.181 110.729 315.968 110.516C315.65 110.304 315.437 110.091 315.331 109.773C315.225 109.454 315.119 109.135 315.119 108.816L315.756 101.38C315.756 101.061 315.756 100.636 315.544 100.317C315.331 99.9987 315.119 99.7862 314.8 99.5737C310.235 97.2365 305.351 95.6429 300.361 94.6868C300.043 94.5805 299.618 94.6868 299.3 94.793C298.981 94.8993 298.663 95.218 298.45 95.4304L294.416 101.698C294.204 102.017 293.991 102.23 293.673 102.336C293.354 102.442 293.036 102.548 292.717 102.548C292.399 102.548 292.08 102.442 291.868 102.23C291.549 102.017 291.337 101.805 291.231 101.486L288.046 94.6868C287.94 94.3681 287.621 94.0494 287.303 93.9431C286.984 93.7306 286.666 93.6244 286.241 93.7306C281.145 94.0494 276.049 95.0055 271.271 96.7053C270.953 96.8115 270.634 97.024 270.422 97.3427C270.209 97.6614 270.103 97.9801 270.103 98.2989L269.785 105.736C269.785 106.054 269.679 106.373 269.466 106.692C269.254 107.01 269.042 107.223 268.723 107.329C268.405 107.435 268.086 107.542 267.768 107.542C267.449 107.542 267.131 107.435 266.918 107.223L260.76 102.973C260.442 102.761 260.123 102.655 259.805 102.655C259.486 102.655 259.062 102.761 258.743 102.973C254.496 105.842 250.568 109.241 247.277 113.066C247.065 113.385 246.852 113.703 246.852 114.022C246.852 114.341 246.852 114.766 247.065 115.084L250.462 121.671C250.568 121.99 250.674 122.309 250.674 122.627C250.674 122.946 250.568 123.265 250.356 123.477C250.144 123.796 249.931 124.008 249.613 124.115C249.294 124.221 248.976 124.327 248.657 124.327L241.225 123.69C240.907 123.69 240.482 123.69 240.164 123.902C239.845 124.115 239.633 124.327 239.42 124.646C237.085 129.214 235.492 134.101 234.537 139.094C234.431 139.413 234.537 139.838 234.643 140.157C234.749 140.475 235.068 140.794 235.28 141.006L241.544 145.043C241.862 145.256 242.075 145.468 242.181 145.787C242.287 146.106 242.393 146.425 242.393 146.743C242.393 147.062 242.287 147.381 242.075 147.593C241.862 147.912 241.65 148.124 241.332 148.231L234.537 151.418C234.218 151.524 233.9 151.843 233.794 152.161C233.581 152.48 233.475 152.799 233.581 153.224C233.9 158.323 234.855 163.423 236.554 168.203C236.66 168.522 236.872 168.841 237.191 169.053C237.509 169.266 237.828 169.372 238.146 169.372L245.578 169.691C245.897 169.691 246.215 169.797 246.534 170.009C246.852 170.222 247.065 170.434 247.171 170.753C247.277 171.072 247.383 171.39 247.383 171.709C247.383 172.028 247.277 172.347 247.065 172.559L242.818 178.721C242.606 179.04 242.499 179.358 242.499 179.783C242.499 180.102 242.606 180.527 242.818 180.846C245.684 185.095 249.082 189.026 252.904 192.319C253.222 192.532 253.541 192.744 253.859 192.744C254.178 192.744 254.603 192.744 254.921 192.532L261.61 189.132C261.928 189.026 262.247 188.92 262.565 188.92C262.884 188.92 263.202 189.026 263.415 189.238C263.733 189.451 263.945 189.663 264.052 189.982C264.158 190.301 264.264 190.619 264.264 190.938L263.627 198.375C263.627 198.694 263.627 199.118 263.839 199.437C264.052 199.756 264.264 199.968 264.582 200.181C269.148 202.518 274.032 204.112 279.128 205.068C279.446 205.174 279.871 205.068 280.189 204.962C280.508 204.855 280.826 204.537 281.039 204.324L285.073 198.056C285.285 197.737 285.498 197.525 285.816 197.419C286.135 197.312 286.453 197.206 286.772 197.206C287.09 197.206 287.409 197.312 287.621 197.525C287.94 197.737 288.152 197.95 288.258 198.269L291.443 205.068C291.549 205.387 291.868 205.705 292.186 205.811C292.505 206.024 292.823 206.13 293.248 206.024C298.344 205.705 303.44 204.749 308.218 203.049C308.536 202.943 308.855 202.731 309.067 202.412C309.28 202.093 309.386 201.774 309.386 201.456L309.704 194.019C309.704 193.7 309.81 193.382 310.023 193.063C310.235 192.744 310.447 192.532 310.766 192.425C311.084 192.319 311.403 192.213 311.721 192.213C312.04 192.213 312.358 192.319 312.571 192.532L318.729 196.781C319.047 196.994 319.366 197.1 319.684 197.1C320.003 197.1 320.427 196.994 320.746 196.781C324.993 193.913 328.921 190.513 332.212 186.689C332.424 186.37 332.637 186.051 332.637 185.733C332.637 185.414 332.637 184.989 332.424 184.67L329.027 178.083C328.921 177.765 328.815 177.446 328.815 177.127C328.815 176.809 328.921 176.49 329.133 176.277C329.345 175.959 329.558 175.746 329.876 175.64C330.195 175.534 330.513 175.427 330.832 175.427L338.051 176.065C338.476 176.065 338.901 175.959 339.219 175.746C339.538 175.534 339.856 175.215 339.962 174.79L344.74 160.66C344.846 160.235 344.846 159.811 344.74 159.492C344.634 159.067 344.315 158.748 343.997 158.536L337.839 154.605C337.52 154.392 337.308 154.18 337.202 153.861C337.096 153.542 336.99 153.224 336.99 152.905C336.99 152.586 337.096 152.268 337.308 152.055C337.52 151.736 337.733 151.524 338.051 151.418L344.74 148.231C345.058 148.124 345.377 147.806 345.483 147.487C345.695 147.168 345.802 146.85 345.695 146.425C345.589 144.087 345.271 141.538 344.74 138.988ZM325.099 148.656C325.205 151.099 324.993 153.542 324.674 155.986C324.037 159.704 322.869 163.21 321.064 166.61C319.896 168.734 318.516 170.859 317.03 172.665C311.828 178.933 304.714 183.183 296.752 184.776C292.505 185.626 288.152 185.733 283.905 184.989C280.189 184.351 276.686 183.183 273.288 181.377C271.165 180.208 269.042 178.827 267.237 177.34C264.37 175.003 261.822 172.134 259.911 168.947C258.637 166.928 257.469 164.697 256.726 162.36C255.452 158.854 254.709 155.136 254.496 151.418C254.39 148.974 254.496 146.531 254.921 144.087C255.558 140.369 256.726 136.863 258.531 133.57C259.699 131.445 261.079 129.32 262.565 127.514C264.901 124.646 267.768 122.096 270.953 120.184C274.562 117.847 278.703 116.253 282.844 115.403C290.806 113.81 299.087 114.978 306.307 118.803C308.43 119.971 310.554 121.352 312.358 122.84C315.225 125.177 317.773 128.045 319.684 131.233C320.958 133.251 322.02 135.482 322.869 137.819C324.249 141.219 324.886 144.937 325.099 148.656Z" fill="url(#paint0_linear)"/>
<path d="M225.937 153.011C225.831 152.374 225.619 151.737 225.406 151.099C225.406 150.993 225.3 150.887 225.3 150.887C225.194 150.78 225.088 150.78 225.088 150.78L223.177 150.674C223.071 150.674 222.965 150.674 222.965 150.568C222.858 150.568 222.858 150.462 222.858 150.355C222.858 150.249 222.858 150.249 222.858 150.143C222.858 150.037 222.858 150.037 222.965 149.93L224.026 148.337C224.026 148.231 224.132 148.124 224.132 148.124C224.132 148.018 224.132 147.912 224.026 147.912C223.283 146.85 222.434 145.893 221.478 145.044C221.372 144.937 221.372 144.937 221.266 144.937C221.16 144.937 221.053 144.937 221.053 144.937L219.355 145.787C219.249 145.787 219.249 145.893 219.142 145.787C219.036 145.787 218.93 145.787 218.93 145.681C218.824 145.681 218.824 145.575 218.824 145.468C218.824 145.362 218.824 145.362 218.824 145.256L218.93 143.344C218.93 143.237 218.93 143.131 218.824 143.131C218.824 143.025 218.718 143.025 218.612 142.919C217.444 142.388 216.276 141.963 215.002 141.644C214.896 141.644 214.79 141.644 214.79 141.644C214.683 141.644 214.683 141.75 214.577 141.856L213.515 143.45C213.515 143.556 213.409 143.556 213.303 143.662C213.197 143.662 213.197 143.662 213.091 143.662C212.985 143.662 212.878 143.662 212.878 143.556C212.772 143.556 212.772 143.45 212.772 143.344L211.923 141.644C211.923 141.538 211.817 141.538 211.711 141.431C211.604 141.431 211.498 141.325 211.498 141.325C210.224 141.431 208.95 141.644 207.676 142.069C207.57 142.069 207.464 142.175 207.464 142.175C207.358 142.281 207.358 142.388 207.358 142.388L207.252 144.3C207.252 144.406 207.252 144.512 207.145 144.512C207.145 144.619 207.039 144.619 206.933 144.619C206.827 144.619 206.827 144.619 206.721 144.619C206.615 144.619 206.615 144.619 206.508 144.512L204.916 143.45C204.81 143.45 204.704 143.344 204.704 143.344C204.597 143.344 204.491 143.344 204.491 143.45C203.429 144.194 202.474 145.044 201.625 146C201.518 146.106 201.518 146.106 201.518 146.212C201.518 146.318 201.518 146.425 201.518 146.425L202.368 148.124C202.368 148.231 202.474 148.231 202.368 148.337C202.368 148.443 202.368 148.549 202.262 148.549C202.262 148.656 202.155 148.656 202.049 148.656C201.943 148.656 201.943 148.656 201.837 148.656L199.926 148.549C199.82 148.549 199.714 148.549 199.714 148.656C199.607 148.656 199.607 148.762 199.501 148.868C198.97 150.037 198.546 151.205 198.227 152.48C198.227 152.586 198.227 152.693 198.227 152.799C198.227 152.905 198.333 152.905 198.44 153.011L200.032 154.074C200.138 154.074 200.138 154.18 200.244 154.286C200.244 154.392 200.351 154.392 200.244 154.499C200.244 154.605 200.244 154.711 200.138 154.711C200.138 154.817 200.032 154.817 199.926 154.817L198.227 155.667C198.121 155.667 198.121 155.774 198.015 155.88C198.015 155.986 197.909 156.092 197.909 156.092C198.015 157.367 198.227 158.642 198.652 159.917C198.652 160.023 198.758 160.129 198.758 160.129C198.864 160.236 198.97 160.236 198.97 160.236L200.881 160.342C200.988 160.342 201.094 160.342 201.094 160.448C201.2 160.448 201.2 160.554 201.2 160.66C201.2 160.767 201.2 160.767 201.2 160.873C201.2 160.979 201.2 160.979 201.094 161.085L200.032 162.679C200.032 162.785 199.926 162.891 199.926 162.891C199.926 162.998 199.926 163.104 200.032 163.104C200.775 164.166 201.625 165.122 202.58 165.972C202.686 166.079 202.686 166.079 202.792 166.079C202.899 166.079 203.005 166.079 203.005 166.079L204.704 165.229C204.81 165.229 204.81 165.122 204.916 165.229C205.022 165.229 205.128 165.229 205.128 165.335C205.234 165.335 205.234 165.441 205.234 165.547C205.234 165.654 205.234 165.654 205.234 165.76L205.128 167.672C205.128 167.778 205.128 167.885 205.234 167.885C205.234 167.991 205.341 167.991 205.447 168.097C206.615 168.628 207.782 169.053 209.056 169.372C209.163 169.372 209.269 169.372 209.269 169.372C209.375 169.372 209.375 169.266 209.481 169.16L210.543 167.566C210.543 167.46 210.649 167.46 210.755 167.353C210.861 167.353 210.861 167.353 210.967 167.353C211.074 167.353 211.074 167.353 211.18 167.46C211.286 167.46 211.286 167.566 211.286 167.672L212.135 169.372C212.135 169.478 212.241 169.478 212.348 169.584C212.454 169.584 212.56 169.691 212.56 169.691C213.834 169.584 215.108 169.372 216.382 168.947C216.488 168.947 216.594 168.841 216.594 168.841C216.701 168.735 216.701 168.628 216.701 168.628L216.807 166.716C216.807 166.61 216.807 166.504 216.913 166.504C216.913 166.397 217.019 166.397 217.125 166.397C217.231 166.397 217.231 166.397 217.338 166.397C217.444 166.397 217.444 166.397 217.55 166.504L219.142 167.566C219.249 167.566 219.355 167.672 219.355 167.672C219.461 167.672 219.567 167.672 219.567 167.566C220.629 166.822 221.584 165.972 222.434 165.016C222.54 164.91 222.54 164.91 222.54 164.804C222.54 164.698 222.54 164.591 222.54 164.591L221.691 162.891C221.691 162.785 221.584 162.785 221.691 162.679C221.691 162.573 221.69 162.467 221.797 162.467C221.797 162.36 221.903 162.36 222.009 162.36C222.115 162.36 222.115 162.36 222.221 162.36L224.026 162.467C224.132 162.467 224.239 162.467 224.345 162.36C224.451 162.254 224.451 162.254 224.557 162.148L225.725 158.642C225.725 158.536 225.725 158.429 225.725 158.323C225.725 158.217 225.619 158.111 225.513 158.111L223.92 157.155C223.814 157.155 223.814 157.048 223.708 156.942C223.708 156.836 223.708 156.836 223.708 156.73C223.708 156.623 223.708 156.517 223.814 156.517C223.814 156.411 223.92 156.411 224.026 156.411L225.725 155.561C225.831 155.561 225.831 155.455 225.937 155.349C225.937 155.242 226.043 155.136 226.043 155.136C226.15 154.286 226.15 153.649 225.937 153.011ZM221.053 155.455C221.053 156.092 221.053 156.73 220.947 157.261C220.841 158.217 220.523 159.067 219.992 159.917C219.673 160.448 219.355 160.979 218.93 161.404C217.656 162.998 215.851 164.06 213.834 164.485C212.772 164.698 211.711 164.698 210.649 164.485C209.693 164.379 208.844 164.06 207.995 163.529C207.464 163.21 206.933 162.891 206.508 162.467C205.765 161.829 205.128 161.192 204.704 160.342C204.385 159.811 204.066 159.279 203.854 158.642C203.536 157.792 203.323 156.836 203.323 155.88C203.323 155.242 203.323 154.605 203.429 154.074C203.536 153.118 203.854 152.268 204.385 151.418C204.703 150.887 205.022 150.355 205.447 149.93C206.084 149.187 206.721 148.549 207.57 148.124C208.526 147.593 209.481 147.168 210.543 146.956C212.56 146.531 214.683 146.85 216.488 147.806C217.019 148.124 217.55 148.443 217.975 148.868C218.718 149.506 219.355 150.143 219.779 150.993C220.098 151.524 220.416 152.055 220.629 152.693C220.841 153.543 220.947 154.499 221.053 155.455Z" fill="url(#paint1_linear)"/>
<path d="M571.941 431.46C571.941 429.867 571.835 428.167 571.623 426.574C571.623 426.361 571.517 426.149 571.304 425.936C571.198 425.724 570.986 425.617 570.773 425.617L566.208 424.449C565.996 424.449 565.783 424.343 565.677 424.13C565.571 424.024 565.465 423.811 565.359 423.599C565.253 423.386 565.359 423.174 565.359 422.961C565.359 422.749 565.571 422.537 565.677 422.43L569.075 419.137C569.287 418.924 569.393 418.818 569.393 418.499C569.393 418.287 569.393 418.075 569.287 417.862C568.013 414.887 566.42 412.019 564.403 409.469C564.297 409.257 564.085 409.151 563.872 409.044C563.66 408.938 563.448 408.938 563.235 409.044L558.67 410.319C558.458 410.425 558.245 410.425 558.033 410.319C557.821 410.319 557.608 410.213 557.502 410C557.396 409.894 557.29 409.682 557.184 409.469C557.184 409.257 557.184 409.044 557.184 408.832L558.458 404.264C558.564 404.051 558.564 403.839 558.458 403.626C558.352 403.414 558.245 403.201 558.033 403.095C555.485 401.076 552.619 399.483 549.646 398.208C549.433 398.102 549.221 398.102 549.009 398.102C548.796 398.102 548.584 398.314 548.372 398.421L545.081 401.82C544.974 401.926 544.762 402.033 544.55 402.139C544.337 402.245 544.125 402.245 543.913 402.139C543.7 402.033 543.488 402.033 543.382 401.82C543.276 401.714 543.169 401.501 543.063 401.289L541.895 396.721C541.789 396.508 541.683 396.296 541.577 396.19C541.365 396.083 541.152 395.977 540.94 395.871C537.755 395.446 534.464 395.446 531.172 395.871C530.96 395.871 530.748 395.977 530.535 396.19C530.323 396.296 530.217 396.508 530.217 396.721L529.049 401.289C529.049 401.501 528.943 401.714 528.731 401.82C528.624 401.926 528.412 402.033 528.2 402.139C527.987 402.245 527.775 402.139 527.563 402.139C527.35 402.033 527.138 401.926 527.032 401.82L523.741 398.421C523.528 398.208 523.422 398.102 523.104 398.102C522.891 398.102 522.679 398.102 522.467 398.208C519.494 399.483 516.627 401.076 513.973 403.095C513.761 403.201 513.655 403.414 513.548 403.626C513.442 403.839 513.442 404.051 513.548 404.264L514.822 408.832C514.929 409.044 514.929 409.257 514.822 409.469C514.822 409.682 514.716 409.894 514.504 410C514.398 410.107 514.185 410.213 513.973 410.319C513.761 410.319 513.548 410.319 513.336 410.319L508.771 409.044C508.558 408.938 508.346 408.938 508.134 409.044C507.921 409.151 507.709 409.257 507.603 409.469C505.586 412.019 503.993 414.887 502.719 417.862C502.613 418.075 502.613 418.287 502.613 418.499C502.613 418.712 502.825 418.924 502.931 419.137L506.329 422.43C506.435 422.537 506.541 422.749 506.647 422.961C506.754 423.174 506.754 423.386 506.647 423.599C506.647 423.811 506.541 424.024 506.329 424.13C506.223 424.236 506.01 424.343 505.798 424.449L501.233 425.617C501.02 425.724 500.808 425.83 500.702 425.936C500.596 426.149 500.49 426.361 500.383 426.574C499.959 429.761 499.959 433.054 500.383 436.347C500.383 436.56 500.49 436.772 500.702 436.985C500.808 437.197 501.02 437.304 501.233 437.304L505.798 438.472C506.01 438.472 506.223 438.578 506.329 438.791C506.435 438.897 506.541 439.11 506.647 439.322C506.647 439.535 506.647 439.747 506.647 439.96C506.541 440.172 506.435 440.384 506.329 440.491L502.931 443.784C502.719 443.997 502.613 444.103 502.613 444.421C502.613 444.634 502.613 444.846 502.719 445.059C503.993 448.034 505.586 450.902 507.603 453.452C507.709 453.664 507.921 453.77 508.134 453.877C508.346 453.983 508.558 453.983 508.771 453.877L513.336 452.602C513.548 452.496 513.761 452.496 513.973 452.602C514.185 452.602 514.398 452.708 514.504 452.92C514.61 453.027 514.716 453.239 514.822 453.452C514.822 453.664 514.822 453.877 514.822 454.089L513.548 458.657C513.442 458.87 513.442 459.082 513.548 459.295C513.655 459.507 513.761 459.72 513.973 459.826C516.521 461.844 519.388 463.438 522.467 464.713C522.679 464.819 522.891 464.819 523.104 464.819C523.316 464.819 523.528 464.607 523.741 464.5L527.032 461.101C527.138 460.995 527.35 460.888 527.563 460.782C527.775 460.676 527.987 460.676 528.2 460.782C528.412 460.888 528.624 460.888 528.731 461.101C528.837 461.207 528.943 461.42 529.049 461.632L530.217 466.2C530.323 466.413 530.429 466.625 530.535 466.731C530.748 466.838 530.96 466.944 531.172 467.05C534.357 467.475 537.649 467.475 540.94 467.05C541.152 467.05 541.365 466.944 541.577 466.731C541.789 466.625 541.895 466.413 541.895 466.2L543.063 461.632C543.063 461.42 543.169 461.207 543.382 461.101C543.594 460.995 543.7 460.888 543.913 460.782C544.125 460.676 544.337 460.782 544.55 460.782C544.762 460.888 544.974 460.995 545.081 461.101L548.372 464.5C548.478 464.713 548.69 464.819 549.009 464.819C549.221 464.819 549.433 464.819 549.646 464.713C552.619 463.438 555.485 461.844 558.033 459.826C558.245 459.72 558.352 459.507 558.458 459.295C558.564 459.082 558.564 458.87 558.458 458.657L557.184 454.089C557.078 453.877 557.078 453.664 557.184 453.452C557.184 453.239 557.29 453.027 557.502 452.92C557.608 452.814 557.821 452.708 558.033 452.602C558.245 452.602 558.458 452.602 558.67 452.602L563.129 453.877C563.342 453.983 563.66 453.983 563.872 453.877C564.085 453.77 564.297 453.558 564.403 453.345L569.181 445.165C569.287 444.953 569.393 444.634 569.287 444.421C569.287 444.209 569.181 443.89 568.969 443.784L565.677 440.597C565.571 440.491 565.465 440.278 565.359 440.066C565.253 439.853 565.253 439.641 565.359 439.428C565.465 439.216 565.465 439.003 565.677 438.897C565.783 438.791 565.996 438.685 566.208 438.578L570.773 437.41C570.986 437.304 571.198 437.197 571.304 437.091C571.41 436.879 571.517 436.666 571.623 436.454C571.835 434.754 571.941 433.054 571.941 431.46ZM558.352 435.073C558.139 436.56 557.715 438.153 557.184 439.535C556.334 441.766 555.167 443.89 553.68 445.696C552.725 446.865 551.557 448.034 550.389 448.99C546.355 452.283 541.365 453.983 536.162 453.983C533.402 453.983 530.642 453.452 528.094 452.496C525.864 451.646 523.741 450.477 521.936 448.99C520.768 448.034 519.6 446.865 518.644 445.696C517.158 443.89 515.99 441.766 515.141 439.535C514.61 438.047 514.185 436.56 513.973 435.073C513.548 432.735 513.548 430.292 513.973 427.955C514.185 426.467 514.61 424.874 515.141 423.493C515.99 421.262 517.158 419.243 518.644 417.331C519.6 416.162 520.768 414.994 521.936 414.037C523.741 412.55 525.864 411.382 528.094 410.532C530.642 409.575 533.402 409.044 536.162 409.044C541.365 409.044 546.355 410.85 550.389 414.037C551.557 414.994 552.725 416.162 553.68 417.331C555.167 419.137 556.334 421.262 557.184 423.493C557.715 424.98 558.139 426.467 558.352 427.955C558.776 430.292 558.776 432.629 558.352 435.073Z" fill="url(#paint2_linear)"/>
<path d="M491.253 465.457C491.89 465.032 492.421 464.607 492.951 464.076C493.058 463.969 493.058 463.969 493.058 463.863C493.058 463.757 493.058 463.651 493.058 463.544L492.314 461.632C492.314 461.526 492.314 461.42 492.314 461.42C492.314 461.313 492.421 461.207 492.421 461.207C492.527 461.101 492.527 461.101 492.633 461.101C492.739 461.101 492.845 461.101 492.845 461.101L494.863 461.526C494.969 461.526 495.075 461.526 495.181 461.526C495.287 461.526 495.393 461.42 495.393 461.313C496.137 460.145 496.774 458.764 497.198 457.489C497.198 457.383 497.198 457.276 497.198 457.17C497.198 457.064 497.092 456.958 496.986 456.958L495.393 455.683C495.287 455.577 495.287 455.577 495.287 455.47C495.287 455.364 495.287 455.258 495.287 455.258C495.287 455.152 495.393 455.045 495.393 455.045C495.5 454.939 495.5 454.939 495.606 454.939L497.623 454.302C497.729 454.302 497.835 454.196 497.835 454.089C497.941 453.983 497.941 453.877 497.941 453.771C498.048 452.39 497.941 450.902 497.623 449.521C497.623 449.415 497.517 449.309 497.517 449.309C497.411 449.202 497.304 449.202 497.304 449.202L495.287 448.884C495.181 448.884 495.075 448.777 495.075 448.777C494.969 448.671 494.969 448.671 494.969 448.565C494.969 448.459 494.969 448.352 494.969 448.352C494.969 448.246 495.075 448.14 495.075 448.14L496.455 446.546C496.561 446.44 496.561 446.334 496.561 446.228C496.561 446.121 496.561 446.015 496.561 445.909C495.924 444.634 495.075 443.466 494.119 442.403C494.013 442.297 494.013 442.297 493.907 442.297C493.801 442.297 493.695 442.297 493.589 442.297L491.677 443.041C491.571 443.041 491.465 443.041 491.465 443.041C491.359 443.041 491.253 442.934 491.253 442.934C491.147 442.828 491.147 442.828 491.147 442.722C491.147 442.616 491.147 442.509 491.147 442.509L491.571 440.491C491.571 440.385 491.571 440.278 491.571 440.172C491.571 440.066 491.465 439.96 491.359 439.96C490.191 439.216 488.811 438.579 487.537 438.154C487.431 438.154 487.325 438.154 487.218 438.154C487.112 438.154 487.006 438.26 487.006 438.366L485.732 439.96C485.626 440.066 485.626 440.066 485.52 440.066C485.414 440.066 485.307 440.066 485.307 440.066C485.201 440.066 485.095 439.96 485.095 439.96C484.989 439.853 484.989 439.853 484.989 439.747L484.352 437.729C484.352 437.622 484.246 437.516 484.139 437.516C484.033 437.41 483.927 437.41 483.821 437.41C482.441 437.304 480.954 437.41 479.574 437.729C479.468 437.729 479.362 437.835 479.362 437.835C479.256 437.941 479.256 438.047 479.256 438.047L478.937 440.066C478.937 440.172 478.831 440.278 478.831 440.278C478.725 440.385 478.725 440.385 478.619 440.385C478.513 440.385 478.406 440.385 478.406 440.385C478.3 440.385 478.194 440.278 478.194 440.278L476.601 438.897C476.495 438.791 476.389 438.791 476.283 438.791C476.177 438.791 476.071 438.791 475.964 438.791C474.69 439.428 473.523 440.278 472.461 441.235C472.355 441.341 472.355 441.341 472.355 441.447C472.355 441.553 472.355 441.659 472.355 441.766L473.098 443.678C473.098 443.784 473.098 443.89 473.098 443.89C473.098 443.997 472.992 444.103 472.992 444.103C472.886 444.209 472.886 444.209 472.779 444.209C472.673 444.209 472.567 444.209 472.567 444.209L470.55 443.784C470.444 443.784 470.338 443.784 470.231 443.784C470.125 443.784 470.019 443.89 470.019 443.997C469.276 445.165 468.639 446.546 468.214 447.821C468.214 447.928 468.214 448.034 468.214 448.14C468.214 448.246 468.32 448.352 468.426 448.352L470.019 449.734C470.125 449.84 470.125 449.84 470.125 449.946C470.125 450.052 470.125 450.159 470.125 450.159C470.125 450.265 470.019 450.371 470.019 450.371C469.913 450.477 469.913 450.477 469.807 450.477L467.789 451.115C467.683 451.115 467.577 451.221 467.577 451.327C467.471 451.433 467.471 451.54 467.471 451.646C467.365 453.027 467.471 454.514 467.789 455.895C467.789 456.002 467.896 456.108 467.896 456.108C468.002 456.214 468.108 456.214 468.108 456.214L470.125 456.533C470.231 456.533 470.338 456.639 470.338 456.639C470.338 456.639 470.444 456.745 470.444 456.852C470.444 456.958 470.444 457.064 470.444 457.064C470.444 457.17 470.338 457.276 470.338 457.276L468.957 458.87C468.851 458.976 468.851 459.082 468.851 459.189C468.851 459.295 468.851 459.401 468.851 459.507C469.488 460.782 470.338 461.951 471.293 463.013C471.399 463.12 471.399 463.12 471.505 463.12C471.612 463.12 471.718 463.12 471.824 463.12L473.735 462.376C473.841 462.376 473.947 462.376 473.947 462.376C474.053 462.376 474.16 462.482 474.16 462.482C474.266 462.588 474.266 462.588 474.266 462.695C474.266 462.801 474.266 462.907 474.266 462.907L473.841 464.926C473.841 465.032 473.841 465.138 473.841 465.244C473.841 465.351 473.947 465.457 474.053 465.457C475.221 466.2 476.601 466.838 477.876 467.263C477.982 467.263 478.088 467.263 478.194 467.263C478.3 467.263 478.406 467.157 478.406 467.05L479.68 465.457C479.787 465.351 479.787 465.351 479.893 465.351C479.999 465.351 480.105 465.351 480.105 465.351C480.211 465.351 480.317 465.457 480.317 465.457C480.424 465.563 480.424 465.563 480.424 465.669L481.061 467.582C481.061 467.688 481.167 467.794 481.273 467.794C481.379 467.9 481.485 467.9 481.591 467.9L485.732 467.582C485.838 467.582 485.944 467.475 486.051 467.475C486.157 467.369 486.157 467.263 486.157 467.157L486.475 465.138C486.475 465.032 486.581 464.926 486.581 464.926C486.688 464.819 486.688 464.819 486.794 464.819C486.9 464.819 487.006 464.819 487.006 464.819C487.112 464.819 487.218 464.926 487.218 464.926L488.811 466.307C488.917 466.413 489.023 466.413 489.129 466.413C489.236 466.413 489.342 466.413 489.448 466.413C490.085 466.307 490.722 465.882 491.253 465.457ZM486.688 461.526C486.051 461.845 485.413 462.057 484.776 462.163C483.715 462.376 482.759 462.482 481.698 462.376C481.061 462.27 480.317 462.163 479.68 462.057C477.451 461.42 475.646 460.039 474.372 458.126C473.735 457.17 473.204 456.002 472.886 454.833C472.673 453.771 472.567 452.814 472.673 451.752C472.779 451.115 472.886 450.371 473.098 449.734C473.416 448.777 473.841 447.821 474.478 446.971C474.903 446.44 475.327 445.909 475.858 445.378C476.601 444.634 477.451 444.103 478.406 443.572C479.043 443.253 479.68 443.041 480.317 442.934C481.379 442.722 482.335 442.616 483.396 442.722C484.033 442.828 484.776 442.934 485.413 443.147C486.369 443.466 487.325 443.89 488.28 444.528C489.236 445.165 490.085 446.121 490.828 447.078C492.102 448.99 492.739 451.221 492.527 453.452C492.421 454.089 492.314 454.833 492.102 455.47C491.784 456.427 491.359 457.383 490.722 458.339C490.297 458.87 489.873 459.401 489.448 459.932C488.492 460.464 487.537 460.995 486.688 461.526Z" fill="url(#paint3_linear)"/>
<path opacity="0.9" d="M594.236 146.318C594.767 141.75 595.086 137.076 594.98 132.401C594.98 131.764 594.767 131.126 594.343 130.595C593.918 130.064 593.493 129.639 592.856 129.427L580.222 124.54C579.691 124.327 579.16 124.009 578.842 123.477C578.523 123.052 578.205 122.521 578.205 121.884C578.099 121.353 578.205 120.715 578.417 120.184C578.63 119.653 579.054 119.122 579.479 118.803L590.308 110.623C590.839 110.198 591.264 109.666 591.476 109.029C591.688 108.392 591.688 107.754 591.582 107.117C589.14 98.1928 585.531 89.5875 580.753 81.6197C580.434 81.0885 579.904 80.6635 579.373 80.3448C578.736 80.0261 578.099 80.0261 577.462 80.1323L564.084 82.2571C563.554 82.3633 562.917 82.2571 562.386 82.0446C561.855 81.8322 561.324 81.5134 561.006 80.9822C560.687 80.5573 560.369 80.0261 560.369 79.3887C560.262 78.8575 560.369 78.2201 560.581 77.6889L565.889 65.2591C566.102 64.6216 566.208 63.9842 566.102 63.3468C565.996 62.7094 565.677 62.0719 565.252 61.647C558.67 55.0602 551.238 49.5359 543.169 44.9677C542.638 44.6489 541.895 44.5427 541.258 44.5427C540.621 44.6489 539.984 44.8614 539.453 45.2864L528.943 53.7854C528.518 54.1041 527.987 54.4228 527.35 54.4228C526.819 54.529 526.182 54.4228 525.651 54.2103C525.121 53.9979 524.59 53.6791 524.271 53.148C523.953 52.723 523.74 52.0856 523.634 51.5544L522.042 38.1684C521.935 37.531 521.723 36.8936 521.298 36.4686C520.874 35.9374 520.343 35.6187 519.706 35.4063C510.788 33.069 501.551 31.9004 492.208 32.0066C491.571 32.0066 490.934 32.2191 490.403 32.6441C489.873 33.069 489.448 33.494 489.235 34.1314L484.352 46.7737C484.139 47.3049 483.821 47.8361 483.29 48.1548C482.865 48.4735 482.335 48.7922 481.698 48.7922C481.06 48.7922 480.53 48.7922 479.999 48.5797C479.468 48.3673 479.043 47.9423 478.619 47.5174L470.444 36.6811C470.019 36.1499 469.488 35.725 468.851 35.5125C468.214 35.3 467.577 35.3 466.94 35.4063C458.022 37.8497 449.422 41.4618 441.46 46.2425C440.929 46.5612 440.504 47.0924 440.186 47.6236C439.867 48.261 439.867 48.8984 439.973 49.5359L442.097 62.9218C442.203 63.453 442.097 64.0904 441.884 64.6216C441.672 65.1528 441.353 65.684 440.823 66.0027C440.398 66.3214 439.867 66.6402 439.23 66.6402C438.699 66.7464 438.062 66.6402 437.531 66.4277L425.11 61.1158C424.473 60.9033 423.836 60.7971 423.199 60.9033C422.561 61.0096 421.924 61.3283 421.5 61.7532C414.917 68.34 409.29 75.7766 404.831 83.8507C404.513 84.3819 404.407 85.1255 404.407 85.763C404.513 86.4004 404.725 87.0378 405.15 87.569L413.643 98.0865C413.962 98.5115 414.28 99.0427 414.387 99.6801C414.493 100.211 414.386 100.849 414.174 101.38C413.962 101.911 413.643 102.442 413.112 102.761C412.688 103.08 412.051 103.292 411.52 103.398L398.143 104.992C397.506 105.098 396.869 105.311 396.338 105.736C395.807 106.161 395.488 106.692 395.276 107.329C392.94 116.253 391.773 125.602 391.879 134.845C391.879 135.482 392.091 136.12 392.516 136.651C392.94 137.182 393.365 137.607 394.002 137.819L406.636 142.706C407.167 142.919 407.698 143.238 408.016 143.769C408.335 144.194 408.653 144.725 408.653 145.362C408.76 145.894 408.653 146.531 408.441 147.062C408.229 147.593 407.804 148.125 407.379 148.443L396.55 156.624C396.019 157.048 395.595 157.58 395.382 158.217C395.17 158.855 395.17 159.492 395.276 160.129C397.718 169.053 401.328 177.659 406.105 185.626C406.424 186.158 406.955 186.583 407.486 186.901C408.123 187.22 408.76 187.22 409.397 187.114L422.774 184.989C423.305 184.883 423.942 184.989 424.473 185.201C425.003 185.414 425.534 185.733 425.853 186.264C426.171 186.689 426.49 187.22 426.49 187.857C426.596 188.389 426.49 189.026 426.277 189.557L420.969 201.987C420.757 202.624 420.65 203.262 420.757 203.899C420.863 204.537 421.181 205.174 421.606 205.599C428.188 212.186 435.62 217.816 443.689 222.278C444.22 222.597 444.963 222.703 445.6 222.703C446.237 222.597 446.874 222.385 447.405 221.96L457.916 213.461C458.34 213.142 458.871 212.823 459.508 212.823C460.039 212.717 460.676 212.823 461.207 213.036C461.738 213.248 462.269 213.567 462.587 214.098C462.906 214.523 463.118 215.161 463.224 215.692L464.817 229.078C464.923 229.715 465.135 230.353 465.56 230.777C465.985 231.309 466.515 231.627 467.152 231.84C476.071 234.177 485.307 235.346 494.65 235.239C495.287 235.239 495.924 235.027 496.455 234.602C496.986 234.177 497.41 233.752 497.623 233.115L502.507 220.472C502.719 219.941 503.037 219.41 503.568 219.091C503.993 218.773 504.524 218.454 505.161 218.454C505.692 218.348 506.329 218.454 506.86 218.666C507.39 218.879 507.921 219.304 508.24 219.729L516.415 230.565C516.839 231.096 517.37 231.521 518.007 231.734C518.644 231.946 519.281 231.946 519.918 231.84C528.836 229.396 537.436 225.784 545.399 221.004C545.93 220.685 546.354 220.154 546.673 219.623C546.991 218.985 546.991 218.348 546.885 217.71L544.762 204.324C544.656 203.793 544.762 203.156 544.974 202.624C545.186 202.093 545.505 201.562 546.036 201.243C546.46 200.925 546.991 200.606 547.628 200.606C548.159 200.5 548.796 200.606 549.327 200.818L561.43 205.918C562.067 206.237 562.81 206.237 563.554 206.024C564.297 205.812 564.828 205.387 565.358 204.855L581.602 183.395C582.027 182.864 582.239 182.121 582.239 181.377C582.239 180.633 581.921 179.89 581.496 179.358L573.215 169.16C572.897 168.735 572.578 168.203 572.472 167.566C572.366 167.035 572.472 166.397 572.684 165.866C572.897 165.335 573.215 164.804 573.746 164.485C574.171 164.166 574.808 163.954 575.338 163.848L588.716 162.254C589.353 162.148 589.99 161.935 590.521 161.51C591.051 161.086 591.37 160.554 591.582 159.917C592.75 155.455 593.706 150.887 594.236 146.318ZM554.954 151.63C553.786 155.88 552.087 160.023 549.964 163.848C546.779 169.797 542.638 175.321 537.755 179.996C534.57 183.077 531.066 185.733 527.35 188.176C517.795 194.125 506.86 197.525 495.712 197.844C488.917 198.056 482.228 197.206 475.646 195.4C471.399 194.232 467.259 192.532 463.33 190.407C457.385 187.22 451.864 183.077 447.193 178.19C444.114 175.003 441.46 171.497 439.018 167.778C435.408 162.042 432.754 155.774 431.161 149.187C430.099 144.937 429.462 140.475 429.356 136.12C429.144 129.32 429.993 122.521 431.798 116.041C432.966 111.791 434.665 107.648 436.788 103.717C439.973 97.7678 444.114 92.3497 448.998 87.6752C452.183 84.5943 455.686 81.9384 459.402 79.4949C465.135 75.8828 471.399 73.2269 477.982 71.6333C485.52 69.721 493.482 69.2961 501.233 70.2522C515.778 72.0583 529.367 78.8575 539.559 89.375C542.638 92.5622 545.293 96.068 547.735 99.7863C551.344 105.523 553.998 111.791 555.591 118.378C556.653 122.627 557.29 127.089 557.396 131.445C557.714 138.351 556.865 145.044 554.954 151.63Z" fill="url(#paint4_linear)"/>
<path opacity="0.9" d="M189.309 353.694C189.309 352.313 189.203 350.826 188.99 349.445C188.99 349.232 188.884 349.02 188.778 348.914C188.672 348.808 188.46 348.701 188.247 348.595L184.213 347.639C184 347.639 183.894 347.533 183.788 347.426C183.682 347.32 183.576 347.108 183.576 347.002C183.576 346.789 183.576 346.683 183.576 346.47C183.576 346.258 183.682 346.152 183.894 346.045L186.867 343.177C186.973 343.071 187.079 342.858 187.186 342.646C187.186 342.433 187.186 342.221 187.186 342.008C186.124 339.352 184.637 336.909 182.939 334.678C182.833 334.572 182.62 334.359 182.408 334.359C182.196 334.253 181.983 334.253 181.771 334.359L177.843 335.528C177.63 335.528 177.524 335.528 177.312 335.528C177.099 335.528 176.993 335.422 176.887 335.315C176.781 335.209 176.675 334.997 176.675 334.89C176.675 334.678 176.675 334.572 176.675 334.359L177.843 330.428C177.949 330.216 177.843 330.003 177.843 329.791C177.737 329.578 177.63 329.472 177.524 329.26C175.295 327.56 172.853 326.073 170.199 325.01C169.986 324.904 169.774 324.904 169.562 325.01C169.349 325.01 169.137 325.116 169.031 325.329L166.164 328.304C166.058 328.41 165.846 328.516 165.739 328.622C165.527 328.622 165.421 328.622 165.209 328.622C164.996 328.622 164.89 328.516 164.784 328.41C164.678 328.304 164.572 328.091 164.572 327.985L163.616 323.948C163.616 323.735 163.51 323.629 163.298 323.417C163.191 323.31 162.979 323.204 162.767 323.204C160.006 322.779 157.14 322.779 154.273 323.204C154.061 323.204 153.849 323.31 153.742 323.417C153.636 323.523 153.53 323.735 153.424 323.948L152.468 327.985C152.468 328.197 152.362 328.304 152.256 328.41C152.15 328.516 151.937 328.622 151.831 328.622C151.619 328.622 151.513 328.622 151.3 328.622C151.088 328.622 150.982 328.516 150.876 328.304L148.009 325.329C147.903 325.223 147.691 325.117 147.478 325.01C147.266 325.01 147.054 325.01 146.948 325.01C144.293 326.073 141.851 327.454 139.622 329.26C139.516 329.366 139.303 329.578 139.303 329.791C139.197 330.003 139.197 330.216 139.303 330.428L140.471 334.359C140.471 334.572 140.471 334.678 140.471 334.89C140.471 335.103 140.365 335.209 140.259 335.315C140.153 335.422 139.94 335.528 139.834 335.528C139.622 335.528 139.516 335.528 139.303 335.528L135.375 334.359C135.163 334.253 134.95 334.359 134.738 334.359C134.526 334.465 134.42 334.572 134.207 334.678C132.509 336.909 131.022 339.352 129.961 342.008C129.854 342.221 129.854 342.433 129.961 342.646C129.961 342.858 130.067 343.071 130.279 343.177L133.252 346.045C133.358 346.152 133.464 346.364 133.57 346.47C133.57 346.683 133.57 346.789 133.57 347.002C133.57 347.214 133.464 347.32 133.358 347.426C133.252 347.533 133.039 347.639 132.933 347.639L128.899 348.595C128.687 348.595 128.58 348.701 128.368 348.914C128.262 349.02 128.156 349.232 128.156 349.445C127.731 352.207 127.731 355.076 128.156 357.944C128.156 358.156 128.262 358.369 128.368 358.475C128.474 358.581 128.687 358.688 128.899 358.794L132.933 359.75C133.146 359.75 133.252 359.856 133.358 359.963C133.464 360.069 133.57 360.281 133.57 360.387C133.57 360.6 133.57 360.706 133.57 360.919C133.57 361.131 133.464 361.237 133.252 361.344L130.279 364.212C130.173 364.318 130.067 364.531 129.961 364.743C129.961 364.956 129.961 365.168 129.961 365.381C131.022 368.037 132.509 370.48 134.207 372.711C134.313 372.817 134.526 373.03 134.738 373.03C134.95 373.136 135.163 373.136 135.375 373.03L139.303 371.861C139.516 371.861 139.622 371.861 139.834 371.861C140.047 371.861 140.153 371.967 140.259 372.074C140.365 372.18 140.471 372.392 140.471 372.499C140.471 372.711 140.471 372.817 140.471 373.03L139.303 376.961C139.197 377.173 139.303 377.386 139.303 377.598C139.41 377.81 139.516 377.917 139.622 378.129C141.851 379.829 144.293 381.316 146.948 382.379C147.16 382.485 147.372 382.485 147.478 382.379C147.691 382.379 147.903 382.272 148.009 382.06L150.876 379.085C150.982 378.979 151.194 378.873 151.3 378.767C151.513 378.767 151.619 378.767 151.831 378.767C152.044 378.767 152.15 378.873 152.256 378.979C152.362 379.085 152.468 379.298 152.468 379.404L153.424 383.441C153.424 383.654 153.53 383.76 153.742 383.972C153.849 384.078 154.061 384.185 154.273 384.185C157.034 384.61 159.9 384.61 162.767 384.185C162.979 384.185 163.191 384.078 163.298 383.972C163.404 383.866 163.51 383.654 163.616 383.441L164.572 379.404C164.572 379.192 164.678 379.085 164.784 378.979C164.89 378.873 165.102 378.767 165.209 378.767C165.421 378.767 165.527 378.767 165.739 378.767C165.952 378.767 166.058 378.873 166.164 379.085L169.031 382.06C169.137 382.166 169.349 382.272 169.562 382.379C169.774 382.379 169.986 382.379 170.092 382.379C172.747 381.316 175.188 379.935 177.418 378.129C177.524 378.023 177.737 377.81 177.737 377.598C177.843 377.386 177.843 377.173 177.737 376.961L176.569 373.03C176.569 372.817 176.569 372.711 176.569 372.499C176.569 372.286 176.675 372.18 176.781 372.074C176.887 371.967 177.099 371.861 177.206 371.861C177.418 371.861 177.524 371.861 177.737 371.861L181.559 372.924C181.771 373.03 181.983 372.924 182.196 372.924C182.408 372.817 182.62 372.711 182.726 372.499L186.867 365.381C186.973 365.168 186.973 364.956 186.973 364.743C186.973 364.531 186.867 364.318 186.655 364.212L183.788 361.45C183.682 361.344 183.576 361.131 183.47 361.025C183.47 360.812 183.47 360.706 183.47 360.494C183.47 360.281 183.576 360.175 183.682 360.069C183.788 359.963 184 359.856 184.107 359.856L188.141 358.9C188.353 358.9 188.46 358.794 188.672 358.581C188.778 358.475 188.884 358.263 188.884 358.05C189.203 356.563 189.309 355.182 189.309 353.694ZM177.524 356.775C177.312 358.156 176.993 359.431 176.462 360.706C175.719 362.618 174.658 364.425 173.384 366.018C172.534 367.08 171.579 368.037 170.517 368.886C167.013 371.755 162.661 373.242 158.201 373.242C155.76 373.242 153.424 372.817 151.194 371.967C149.283 371.224 147.478 370.161 145.886 368.886C144.824 368.037 143.869 367.08 143.019 366.018C141.745 364.425 140.684 362.618 139.94 360.706C139.41 359.431 139.091 358.156 138.879 356.775C138.56 354.757 138.56 352.632 138.879 350.614C139.091 349.232 139.41 347.958 139.94 346.683C140.684 344.77 141.745 342.964 143.019 341.371C143.869 340.309 144.824 339.352 145.886 338.502C147.478 337.228 149.283 336.165 151.194 335.422C153.424 334.572 155.76 334.147 158.201 334.147C162.661 334.147 167.013 335.74 170.517 338.502C171.579 339.352 172.534 340.309 173.384 341.371C174.658 342.964 175.719 344.77 176.462 346.683C176.993 347.958 177.312 349.232 177.524 350.614C177.843 352.738 177.843 354.757 177.524 356.775Z" fill="url(#paint5_linear)"/>
<path d="M188.99 171.603H523.634C530.111 171.603 536.268 174.153 540.834 178.721C545.399 183.289 547.947 189.451 547.947 195.931V418.393H164.572V196.038C164.572 189.557 167.12 183.395 171.685 178.827C176.25 174.153 182.514 171.603 188.99 171.603Z" fill="#231F20"/>
<path d="M537.011 194.232C537.011 188.389 532.234 183.608 526.395 183.608H186.23C180.391 183.608 175.613 188.389 175.613 194.232V386.416C175.613 392.259 180.391 397.04 186.23 397.04H526.395C532.234 397.04 537.011 392.259 537.011 386.416V194.232V194.232Z" fill="url(#paint6_linear)"/>
<path opacity="0.5" d="M548.053 409.151H164.572V418.393H548.053V409.151Z" fill="white"/>
<path d="M155.017 435.179H557.503C561.962 435.179 566.208 433.373 569.287 430.292C572.472 427.105 574.171 422.855 574.171 418.5H138.348C138.348 422.961 140.153 427.211 143.232 430.292C146.311 433.479 150.558 435.179 155.017 435.179Z" fill="#CACACA"/>
<path d="M381.581 425.617H330.726C328.815 425.617 327.01 424.874 325.63 423.493C324.25 422.112 323.506 420.305 323.506 418.393H388.694C388.694 419.349 388.482 420.305 388.163 421.155C387.845 422.005 387.314 422.855 386.571 423.493C385.934 424.13 385.084 424.661 384.235 425.086C383.386 425.405 382.536 425.617 381.581 425.617Z" fill="#666666"/>
<path opacity="0.8" d="M217.444 289.74L265.857 310.775V323.417L217.231 344.558L217.444 329.685L249.613 317.149L217.444 304.507V289.74V289.74Z" fill="#F6F6F6"/>
<path opacity="0.8" d="M291.125 365.274V351.464H341.767V365.274H291.125Z" fill="#F6F6F6"/>
<path opacity="0.9" d="M105.011 334.359C102.357 302.063 160.643 234.496 160.643 234.496C160.643 234.496 95.5618 256.487 92.5891 331.385L105.011 334.359Z" fill="url(#paint7_linear)"/>
<path opacity="0.9" d="M87.5992 339.246C72.5232 255.743 105.011 191.151 105.011 191.151C105.011 191.151 116.902 241.826 94.2878 328.835L87.5992 339.246Z" fill="url(#paint8_linear)"/>
<path opacity="0.9" d="M60.6324 340.946C63.2867 308.65 5 241.082 5 241.082C5 241.082 70.0814 263.074 73.0542 337.971L60.6324 340.946Z" fill="url(#paint9_linear)"/>
<path opacity="0.9" d="M73.5849 342.433C44.9194 283.79 62.0125 176.596 62.0125 176.596C62.0125 176.596 96.305 279.647 87.9177 340.627L73.5849 342.433Z" fill="url(#paint10_linear)"/>
<path d="M125.183 437.729H33.7717L49.697 336.378L79.5305 336.059H110.532L125.077 435.816L125.183 437.729Z" fill="#F1F2F2"/>
<path d="M109.576 328.304H48.9538C47.149 328.304 45.6626 329.791 45.6626 331.597V333.085C45.6626 334.891 47.149 336.378 48.9538 336.378H109.576C111.381 336.378 112.867 334.891 112.867 333.085V331.597C112.867 329.791 111.381 328.304 109.576 328.304Z" fill="#F1F2F2"/>
<path opacity="0.5" d="M124.971 435.816L33.7717 437.835C110.426 434.223 103.525 336.165 103.525 336.165H110.426L124.971 435.816Z" fill="url(#paint11_linear)"/>
<path opacity="0.3" d="M417.359 184.458L189.521 377.917L175.613 389.709V188.07C176.038 187.008 176.993 186.051 178.055 185.414C179.223 184.777 180.497 184.458 181.877 184.458H417.359Z" fill="white"/>
<path opacity="0.3" d="M526.926 183.608L321.277 396.933H227.211L429.781 183.608H526.926V183.608Z" fill="white"/>
<path d="M191.326 181.908C191.326 181.908 175.188 179.996 173.914 193.7" stroke="#231F20" stroke-width="3" stroke-miterlimit="10"/>
<path fill-rule="evenodd" clip-rule="evenodd" d="M506.37 229.442C524.674 229.442 541.268 236.449 553.755 247.898C547.683 247.727 541.524 251.401 541.268 259.689C540.754 276.521 561.368 280.11 550.249 313.86L541.097 341.8L516.036 268.063C515.608 266.952 516.121 266.268 517.49 266.268H524.589C524.931 266.268 525.273 265.926 525.273 265.585V261.398C525.273 261.056 524.931 260.714 524.589 260.714C511.16 261.313 497.903 261.313 484.645 260.714C484.303 260.714 483.961 261.056 483.961 261.398V265.585C483.961 265.926 484.303 266.268 484.645 266.268H491.744C493.37 266.268 493.797 266.781 494.139 267.806L504.403 295.917L488.922 342.654L463.519 267.721C463.177 266.781 463.604 266.268 464.46 266.268H472.585C472.927 266.268 473.269 265.926 473.269 265.585V261.398C473.269 261.056 472.927 260.714 472.585 260.714C464.117 261.142 455.564 261.227 447.61 261.313C460.097 242.173 481.737 229.442 506.37 229.442ZM567.954 266.097C573.342 276.009 576.421 287.373 576.421 299.42C576.421 325.907 561.71 348.977 539.985 360.853L561.795 298.993C565.217 289.509 568.296 276.521 567.954 266.097ZM529.806 365.467C522.451 368.116 514.582 369.483 506.37 369.483C499.271 369.483 492.429 368.458 486.014 366.492L507.568 304.717L529.806 365.467ZM476.434 362.733C452.742 351.54 436.405 327.36 436.405 299.42C436.405 289.081 438.629 279.256 442.734 270.369L476.434 362.733ZM506.37 222.863C548.709 222.863 583.007 257.126 583.007 299.42C583.007 341.714 548.709 375.977 506.37 375.977C464.032 375.977 429.733 341.714 429.733 299.42C429.733 257.211 464.032 222.863 506.37 222.863ZM506.37 218.079C551.36 218.079 587.797 254.563 587.797 299.505C587.797 344.448 551.36 380.932 506.37 380.932C461.38 380.932 424.944 344.448 424.944 299.505C424.944 254.563 461.38 218.079 506.37 218.079Z" fill="white"/>
</g>
<defs>
<filter id="filter0_d" x="1" y="32" width="598" height="443.9" filterUnits="userSpaceOnUse" color-interpolation-filters="sRGB">
<feFlood flood-opacity="0" result="BackgroundImageFix"/>
<feColorMatrix in="SourceAlpha" type="matrix" values="0 0 0 0 0 0 0 0 0 0 0 0 0 0 0 0 0 0 127 0" result="hardAlpha"/>
<feOffset dy="4"/>
<feGaussianBlur stdDeviation="2"/>
<feComposite in2="hardAlpha" operator="out"/>
<feColorMatrix type="matrix" values="0 0 0 0 0 0 0 0 0 0 0 0 0 0 0 0 0 0 0.25 0"/>
<feBlend mode="normal" in2="BackgroundImageFix" result="effect1_dropShadow"/>
<feBlend mode="normal" in="SourceGraphic" in2="effect1_dropShadow" result="shape"/>
</filter>
<linearGradient id="paint0_linear" x1="233.665" y1="150.025" x2="345.766" y2="150.025" gradientUnits="userSpaceOnUse">
<stop stop-color="#71439A"/>
<stop offset="0.8668" stop-color="#A76CAD"/>
</linearGradient>
<linearGradient id="paint1_linear" x1="198" y1="155.78" x2="226.23" y2="155.78" gradientUnits="userSpaceOnUse">
<stop stop-color="#71439A"/>
<stop offset="0.8668" stop-color="#A76CAD"/>
</linearGradient>
<linearGradient id="paint2_linear" x1="500.39" y1="431.471" x2="571.9" y2="431.471" gradientUnits="userSpaceOnUse">
<stop stop-color="#71439A"/>
<stop offset="0.8668" stop-color="#A76CAD"/>
</linearGradient>
<linearGradient id="paint3_linear" x1="466.7" y1="452.511" x2="498.075" y2="452.511" gradientUnits="userSpaceOnUse">
<stop stop-color="#71439A"/>
<stop offset="0.8668" stop-color="#A76CAD"/>
</linearGradient>
<linearGradient id="paint4_linear" x1="495.394" y1="32.2223" x2="491.341" y2="242.039" gradientUnits="userSpaceOnUse">
<stop stop-color="#75DAFF"/>
<stop offset="1" stop-color="#00BAFF"/>
</linearGradient>
<linearGradient id="paint5_linear" x1="155.002" y1="384.624" x2="161.652" y2="320.828" gradientUnits="userSpaceOnUse">
<stop stop-color="#75DAFF"/>
<stop offset="1" stop-color="#00BAFF"/>
</linearGradient>
<linearGradient id="paint6_linear" x1="349.77" y1="396.607" x2="363.285" y2="177" gradientUnits="userSpaceOnUse">
<stop stop-color="#75DAFF"/>
<stop offset="1" stop-color="#00BAFF"/>
</linearGradient>
<linearGradient id="paint7_linear" x1="118.496" y1="333.33" x2="133.99" y2="232.007" gradientUnits="userSpaceOnUse">
<stop stop-color="#75DAFF"/>
<stop offset="1" stop-color="#00BAFF"/>
</linearGradient>
<linearGradient id="paint8_linear" x1="62.8" y1="318.767" x2="132.075" y2="208.639" gradientUnits="userSpaceOnUse">
<stop stop-color="#75DAFF"/>
<stop offset="1" stop-color="#00BAFF"/>
</linearGradient>
<linearGradient id="paint9_linear" x1="31.3106" y1="340.023" x2="46.8038" y2="238.699" gradientUnits="userSpaceOnUse">
<stop stop-color="#75DAFF"/>
<stop offset="1" stop-color="#00BAFF"/>
</linearGradient>
<linearGradient id="paint10_linear" x1="39.4656" y1="324.766" x2="111.176" y2="191.027" gradientUnits="userSpaceOnUse">
<stop stop-color="#75DAFF"/>
<stop offset="1" stop-color="#00BAFF"/>
</linearGradient>
<linearGradient id="paint11_linear" x1="79.1804" y1="437.96" x2="91.2867" y2="333.774" gradientUnits="userSpaceOnUse">
<stop stop-color="#75DAFF"/>
<stop offset="1" stop-color="#00BAFF"/>
</linearGradient>
</defs>
</svg>
