<svg width="650" height="456" viewBox="0 0 650 456" fill="none" xmlns="http://www.w3.org/2000/svg">
<g filter="url(#filter0_d)">
<path d="M580.511 345.875H429.153C429.864 343.541 431.184 341.409 432.909 339.683C434.635 337.957 436.767 336.536 439.203 335.724C441.64 334.912 444.177 334.506 446.715 334.81C449.253 335.013 451.689 335.826 453.923 337.044C455.242 332.78 458.085 328.923 461.942 326.283C465.8 323.542 470.47 322.121 475.241 322.121C478.794 322.121 482.347 322.933 485.595 324.557C487.625 319.076 491.381 314.406 496.356 310.955C501.33 307.503 507.218 305.574 513.309 305.371C519.399 305.168 525.49 306.589 530.667 309.635C535.845 312.68 540.007 317.045 542.545 322.324C547.214 321.817 551.884 322.629 556.046 324.76C560.107 326.892 563.456 330.242 565.385 334.201C566.096 334.1 566.806 333.998 567.416 334.1C570.867 334.1 574.115 335.318 576.552 337.551C578.988 339.683 580.409 342.729 580.511 345.875Z" fill="url(#paint0_linear)"/>
<path d="M620 348.718H443.975C444.787 347.601 446.309 346.485 448.34 345.672C450.37 344.759 452.908 344.15 455.649 343.642C458.39 343.135 461.435 343.033 464.379 343.135C467.323 343.236 470.165 343.642 472.703 344.251C474.327 342.119 477.576 340.191 482.042 338.871C486.509 337.551 491.889 336.841 497.473 336.841C501.635 336.841 505.797 337.247 509.451 338.059C511.888 335.318 516.151 332.983 521.937 331.257C527.724 329.532 534.525 328.618 541.631 328.415C548.737 328.314 555.843 329.024 561.832 330.547C567.923 332.07 572.695 334.201 575.638 336.841C581.019 336.536 586.5 336.942 591.272 338.059C596.043 339.074 599.9 340.8 602.134 342.729C602.946 342.627 603.758 342.627 604.57 342.627C608.529 342.627 612.285 343.236 615.229 344.353C618.173 345.571 619.899 347.094 620 348.718Z" fill="white"/>
<path d="M527.521 363.437H417.073C417.581 361.712 418.494 360.087 419.814 358.768C421.134 357.448 422.657 356.433 424.382 355.722C426.108 355.113 428.037 354.809 429.864 355.012C431.691 355.215 433.519 355.722 435.143 356.737C436.158 353.489 438.188 350.647 440.929 348.616C443.771 346.586 447.121 345.469 450.573 345.469C453.212 345.469 455.75 346.078 458.085 347.297C459.608 343.236 462.349 339.683 465.902 337.044C469.455 334.506 473.82 332.983 478.286 332.78C482.753 332.577 487.219 333.694 490.975 336.028C494.833 338.262 497.777 341.612 499.604 345.571C502.954 345.165 506.406 345.774 509.451 347.398C512.395 349.022 514.831 351.459 516.253 354.504C516.76 354.403 517.268 354.403 517.775 354.403C520.212 354.403 522.648 355.316 524.475 357.042C526.404 358.666 527.419 361.001 527.521 363.437Z" fill="url(#paint1_linear)"/>
<path d="M273.634 342.525H243.484C243.078 340.191 241.962 338.059 240.439 336.232C238.916 334.404 236.987 332.882 234.653 331.968C232.419 331.054 229.983 330.648 227.547 330.75C225.11 330.953 222.776 331.663 220.644 332.882C219.426 328.923 216.888 325.37 213.436 322.933C209.985 320.395 205.721 319.076 201.458 319.076C198.209 319.076 194.961 319.786 192.118 321.309C190.291 316.233 186.84 311.868 182.373 308.721C177.906 305.574 172.526 303.747 167.044 303.544C161.461 303.341 155.979 304.661 151.31 307.503C146.538 310.346 142.782 314.406 140.549 319.279C139.737 319.177 138.925 319.076 138.113 319.177C134.255 319.177 130.499 320.192 127.352 322.223C124.104 324.151 121.566 326.994 119.942 330.344C119.333 330.242 118.724 330.242 118.013 330.242C114.866 330.242 111.821 331.46 109.587 333.592C107.354 335.724 106.136 338.668 106.136 341.713C106.136 342.018 106.136 342.424 106.237 342.729H76.7982C75.8846 340.292 75.6815 337.653 76.0876 335.013C76.4937 332.476 77.5088 329.938 79.133 327.806C80.7572 325.674 82.7875 323.948 85.2239 322.73C87.6602 321.512 90.2996 320.903 93.0405 320.903C93.9541 320.903 94.8677 321.005 95.7813 321.106C98.1162 316.335 101.771 312.274 106.44 309.432C111.11 306.59 116.389 305.067 121.87 305.067C123.089 305.067 124.205 305.168 125.423 305.27C128.672 298.265 134.052 292.479 140.854 288.418C147.655 284.358 155.472 282.429 163.491 282.734C171.409 283.038 179.124 285.678 185.52 290.144C191.915 294.712 196.788 301.006 199.427 308.214C203.183 306.285 207.345 305.27 211.609 305.067C215.873 304.864 220.136 305.574 223.994 307.199C227.953 308.823 231.404 311.158 234.247 314.203C237.089 317.248 239.221 320.903 240.439 324.761C243.687 322.832 247.443 321.715 251.301 321.614C255.159 321.512 259.016 322.426 262.366 324.253C265.716 326.08 268.558 328.72 270.487 331.867C272.517 335.216 273.533 338.769 273.634 342.525Z" fill="url(#paint2_linear)"/>
<path d="M243.89 345.977H101.263C101.263 345.571 101.162 345.063 101.162 344.657C101.162 340.698 102.481 336.942 104.816 334.1C107.151 331.359 110.298 329.735 113.546 329.735C114.155 329.735 114.866 329.836 115.475 329.938C117.201 325.573 119.84 321.918 123.19 319.38C126.54 316.842 130.398 315.421 134.357 315.421C135.169 315.421 136.082 315.523 136.895 315.624C139.229 309.33 143.188 304.052 148.061 300.397C152.934 296.743 158.619 295.017 164.405 295.22C170.191 295.524 175.673 297.859 180.343 302.021C185.012 306.183 188.464 311.868 190.393 318.365C193.336 316.436 196.686 315.421 200.138 315.421C204.604 315.421 208.97 317.147 212.624 320.395C216.177 323.644 218.816 328.212 220.136 333.389C222.268 331.765 224.806 330.851 227.344 330.648C229.882 330.445 232.419 330.953 234.754 332.171C237.089 333.389 239.119 335.318 240.744 337.653C242.368 340.089 243.383 342.932 243.89 345.977Z" fill="white"/>
<path d="M141.361 342.221H30C30.1015 341.003 30.5076 339.785 31.1167 338.668C31.7257 337.551 32.6394 336.638 33.6545 335.826C34.6696 335.013 35.8878 334.506 37.2075 334.201C38.5272 333.897 39.8469 333.795 41.1666 334.1C42.4862 331.359 44.618 329.126 47.1559 327.501C49.7952 325.877 52.8407 325.065 55.9876 325.065C56.6982 325.065 57.3073 325.065 58.0179 325.167C59.8451 321.207 62.8906 317.857 66.7481 315.624C70.6056 313.391 75.0723 312.274 79.5389 312.376C84.0055 312.579 88.3706 314 92.0251 316.639C95.6796 319.177 98.4205 322.73 99.9432 326.892C102.075 325.776 104.41 325.167 106.846 325.065C109.283 324.963 111.719 325.37 113.952 326.283C116.185 327.197 118.216 328.516 119.84 330.242C121.464 331.968 122.682 333.998 123.291 336.232C124.814 335.318 126.641 334.709 128.469 334.506C130.296 334.303 132.123 334.506 133.849 335.115C135.575 335.724 137.199 336.638 138.417 337.856C139.737 339.074 140.752 340.495 141.361 342.221Z" fill="#EFEFF0"/>
<path d="M296.373 145.182H279.928C279.725 144.674 279.116 144.268 278.303 143.862C277.491 143.456 276.375 143.152 275.157 142.949C273.938 142.746 272.619 142.644 271.299 142.644C269.979 142.644 268.66 142.847 267.543 143.152C266.832 142.34 265.513 141.527 263.584 141.02C261.655 140.512 259.422 140.208 257.087 140.208C255.361 140.208 253.534 140.411 252.011 140.715C250.996 139.599 249.169 138.685 246.733 137.974C244.296 137.264 241.352 136.858 238.408 136.858C235.363 136.858 232.419 137.061 229.78 137.67C227.242 138.279 225.212 139.193 223.892 140.208C223.486 140.208 222.978 140.208 222.572 140.208C220.542 140.208 218.41 140.411 216.684 140.817C214.959 141.223 213.537 141.832 212.624 142.543C212.319 142.543 211.913 142.543 211.609 142.543C209.883 142.543 208.259 142.847 207.041 143.253C205.822 143.761 205.112 144.37 205.112 144.979C205.112 145.08 205.112 145.08 205.112 145.182H189.276C188.768 144.674 188.666 144.065 188.87 143.558C189.073 143.05 189.682 142.441 190.494 142.035C191.306 141.629 192.524 141.223 193.844 140.918C195.163 140.614 196.585 140.512 198.107 140.512C198.615 140.512 199.122 140.512 199.63 140.512C200.848 139.497 202.878 138.584 205.416 137.974C207.954 137.365 210.898 137.061 213.842 137.061C214.451 137.061 215.162 137.061 215.771 137.061C217.598 135.538 220.44 134.32 224.196 133.406C227.851 132.594 232.216 132.087 236.48 132.188C240.845 132.29 245.007 132.797 248.458 133.812C251.91 134.828 254.549 136.147 256.072 137.67C258.102 137.264 260.437 137.061 262.67 136.959C265.005 136.959 267.34 137.061 269.472 137.467C271.604 137.771 273.532 138.279 275.055 138.99C276.578 139.599 277.796 140.411 278.405 141.223C280.232 140.817 282.263 140.614 284.293 140.512C286.425 140.512 288.455 140.715 290.282 141.121C292.109 141.527 293.632 142.035 294.749 142.746C295.865 143.659 296.373 144.37 296.373 145.182Z" fill="#EFEFF0"/>
<path d="M280.232 145.994H202.675C202.675 145.893 202.675 145.791 202.675 145.69C202.675 144.878 203.385 144.065 204.604 143.456C205.822 142.847 207.547 142.543 209.375 142.543C209.679 142.543 210.085 142.543 210.39 142.543C211.303 141.629 212.725 140.817 214.552 140.309C216.379 139.802 218.511 139.497 220.643 139.497C221.15 139.497 221.556 139.497 222.064 139.497C223.384 138.178 225.515 136.959 228.155 136.249C230.794 135.437 233.941 135.132 237.088 135.132C240.235 135.132 243.28 135.741 245.717 136.553C248.255 137.467 250.183 138.685 251.199 140.106C252.823 139.7 254.65 139.497 256.477 139.497C258.914 139.497 261.248 139.903 263.279 140.614C265.207 141.325 266.629 142.238 267.339 143.355C268.557 143.05 269.877 142.847 271.197 142.746C272.618 142.746 273.938 142.847 275.257 143.05C276.476 143.355 277.592 143.761 278.506 144.268C279.419 144.675 279.927 145.284 280.232 145.994Z" fill="url(#paint3_linear)"/>
<path d="M224.501 143.659H163.897C163.999 143.355 164.202 143.152 164.507 142.847C164.811 142.644 165.319 142.441 165.928 142.238C166.537 142.035 167.146 141.934 167.857 141.934C168.567 141.832 169.278 141.832 169.988 141.934C170.699 141.324 171.816 140.817 173.237 140.512C174.658 140.208 176.282 140.005 178.008 140.005C178.414 140.005 178.719 140.005 179.125 140.005C180.14 139.193 181.764 138.482 183.896 137.975C186.028 137.467 188.464 137.264 190.9 137.264C193.337 137.264 195.773 137.568 197.702 138.178C199.63 138.787 201.153 139.497 201.965 140.411C203.082 140.208 204.402 140.005 205.721 140.005C207.041 140.005 208.361 140.106 209.579 140.309C210.797 140.512 211.914 140.817 212.726 141.121C213.639 141.527 214.248 141.934 214.655 142.441C215.467 142.238 216.482 142.137 217.497 142.035C218.512 142.035 219.527 142.035 220.441 142.137C221.354 142.238 222.268 142.441 222.979 142.746C223.588 142.949 224.095 143.253 224.501 143.659Z" fill="url(#paint4_linear)"/>
<path d="M367.23 82.0402H350.785C350.582 81.5327 349.973 81.1266 349.161 80.7206C348.349 80.3145 347.232 80.01 346.014 79.8069C344.796 79.6039 343.476 79.5024 342.156 79.5024C340.837 79.5024 339.517 79.7054 338.4 80.01C337.69 79.1978 336.37 78.3857 334.441 77.8782C332.513 77.3706 330.279 77.0661 327.944 77.0661C326.219 77.0661 324.391 77.2691 322.869 77.5736C321.854 76.457 320.026 75.5433 317.59 74.8327C315.154 74.1221 312.21 73.7161 309.266 73.7161C306.22 73.7161 303.277 73.9191 300.637 74.5282C298.099 75.1373 296.069 76.0509 294.749 77.0661C294.343 77.0661 293.836 77.0661 293.43 77.0661C291.399 77.0661 289.268 77.2691 287.542 77.6751C285.816 78.0812 284.395 78.6903 283.481 79.4009C283.177 79.4009 282.771 79.4009 282.466 79.4009C280.74 79.4009 279.116 79.7054 277.898 80.1115C276.68 80.619 275.969 81.2281 275.969 81.8372C275.969 81.9387 275.969 81.9387 275.969 82.0402H260.235C259.727 81.5327 259.625 80.9236 259.829 80.416C260.032 79.9084 260.641 79.2994 261.453 78.8933C262.265 78.4872 263.483 78.0812 264.803 77.7767C266.122 77.4721 267.544 77.3706 269.066 77.3706C269.574 77.3706 270.081 77.3706 270.589 77.3706C271.807 76.3555 273.837 75.4418 276.375 74.8327C278.913 74.2237 281.857 73.9191 284.801 73.9191C285.41 73.9191 286.121 73.9191 286.73 73.9191C288.557 72.3964 291.399 71.1782 295.155 70.2646C298.81 69.4525 303.175 68.9449 307.439 69.0464C311.804 69.148 315.966 69.6555 319.417 70.6707C322.869 71.6858 325.508 73.0055 327.031 74.5282C329.061 74.1221 331.396 73.9191 333.629 73.8176C335.964 73.8176 338.299 73.9191 340.431 74.3252C342.562 74.6297 344.491 75.1373 346.014 75.8479C347.537 76.457 348.755 77.2691 349.364 78.0812C351.191 77.6751 353.221 77.4721 355.252 77.3706C357.384 77.3706 359.414 77.5736 361.241 77.9797C363.068 78.3857 364.591 78.8933 365.708 79.6039C366.723 80.5175 367.23 81.2281 367.23 82.0402Z" fill="#E6E7E8"/>
<path d="M351.09 82.7508H273.533C273.533 82.6493 273.533 82.5478 273.533 82.4463C273.533 81.6341 274.244 80.822 275.462 80.213C276.68 79.6039 278.406 79.2993 280.233 79.2993C280.538 79.2993 280.944 79.2993 281.248 79.2993C282.162 78.3857 283.583 77.5736 285.41 77.066C287.238 76.5584 289.369 76.2539 291.501 76.2539C292.009 76.2539 292.415 76.2539 292.922 76.2539C294.242 74.9342 296.374 73.7161 299.013 73.0055C301.653 72.1933 304.8 71.8888 307.946 71.8888C311.093 71.9903 314.139 72.4979 316.575 73.31C319.113 74.2236 321.042 75.4418 322.057 76.863C323.681 76.4569 325.508 76.2539 327.336 76.2539C329.772 76.2539 332.107 76.66 334.137 77.3706C336.066 78.0812 337.487 78.9948 338.198 80.1114C339.416 79.8069 340.736 79.6039 342.055 79.5024C343.476 79.5024 344.796 79.6039 346.116 79.8069C347.334 80.1114 348.451 80.5175 349.364 81.0251C350.278 81.5326 350.785 82.1417 351.09 82.7508Z" fill="url(#paint5_linear)"/>
<path d="M470.064 197.766H453.619C453.416 197.259 452.807 196.853 451.995 196.447C451.183 196.041 450.066 195.736 448.848 195.533C447.63 195.33 446.31 195.228 444.99 195.228C443.671 195.228 442.351 195.431 441.234 195.736C440.524 194.924 439.204 194.112 437.275 193.604C435.347 193.097 433.113 192.792 430.778 192.792C429.053 192.792 427.225 192.995 425.703 193.3C424.688 192.183 422.86 191.269 420.424 190.559C417.988 189.848 415.044 189.442 412.1 189.442C409.054 189.442 406.11 189.645 403.471 190.254C400.933 190.863 398.903 191.777 397.583 192.792C397.177 192.792 396.67 192.792 396.264 192.792C394.233 192.792 392.102 192.995 390.376 193.401C388.65 193.807 387.229 194.416 386.315 195.127C386.011 195.127 385.605 195.127 385.3 195.127C383.574 195.127 381.95 195.432 380.732 195.838C379.514 196.345 378.803 196.954 378.803 197.563C378.803 197.665 378.803 197.665 378.803 197.766H362.967C362.459 197.259 362.358 196.65 362.561 196.142C362.764 195.635 363.373 195.025 364.185 194.619C364.997 194.213 366.215 193.807 367.535 193.503C368.855 193.198 370.276 193.097 371.799 193.097C372.306 193.097 372.814 193.097 373.321 193.097C374.54 192.082 376.57 191.168 379.108 190.559C381.646 189.95 384.589 189.645 387.533 189.645C388.142 189.645 388.853 189.645 389.462 189.645C391.289 188.122 394.132 186.904 397.888 185.991C401.542 185.179 405.907 184.671 410.171 184.773C414.536 184.874 418.698 185.382 422.15 186.397C425.601 187.412 428.241 188.732 429.763 190.254C431.794 189.848 434.128 189.645 436.362 189.544C438.697 189.544 441.031 189.645 443.163 190.051C445.295 190.356 447.224 190.863 448.746 191.574C450.269 192.183 451.487 192.995 452.096 193.807C453.924 193.401 455.954 193.198 457.984 193.097C460.116 193.097 462.146 193.3 463.974 193.706C465.801 194.112 467.324 194.619 468.44 195.33C469.557 196.142 470.064 196.954 470.064 197.766Z" fill="#E6E7E8"/>
<path d="M453.923 198.477H376.366C376.366 198.375 376.366 198.274 376.366 198.172C376.366 197.36 377.077 196.548 378.295 195.939C379.513 195.33 381.239 195.025 383.066 195.025C383.371 195.025 383.777 195.025 384.081 195.025C384.995 194.112 386.416 193.3 388.243 192.792C390.071 192.285 392.202 191.98 394.334 191.98C394.842 191.98 395.248 191.98 395.755 191.98C397.075 190.66 399.207 189.442 401.846 188.732C404.486 187.919 407.633 187.615 410.779 187.615C413.926 187.716 416.972 188.224 419.408 189.036C421.946 189.95 423.875 191.168 424.89 192.589C426.514 192.183 428.341 191.98 430.169 191.98C432.605 191.98 434.94 192.386 436.97 193.097C438.899 193.807 440.32 194.721 441.031 195.838C442.249 195.533 443.569 195.33 444.888 195.228C446.309 195.228 447.629 195.33 448.949 195.533C450.167 195.838 451.284 196.244 452.197 196.751C453.111 197.259 453.618 197.868 453.923 198.477Z" fill="#EFEFF0"/>
<path d="M398.192 196.142H337.588C337.689 195.838 337.892 195.635 338.197 195.33C338.501 195.127 339.009 194.924 339.618 194.721C340.227 194.518 340.836 194.416 341.547 194.416C342.258 194.315 342.968 194.315 343.679 194.416C344.389 193.807 345.506 193.3 346.927 192.995C348.348 192.691 349.973 192.488 351.698 192.488C352.104 192.488 352.409 192.488 352.815 192.488C353.83 191.676 355.454 190.965 357.586 190.457C359.718 189.95 362.154 189.747 364.591 189.747C367.027 189.747 369.463 190.051 371.392 190.66C373.321 191.27 374.844 191.98 375.656 192.894C376.772 192.691 378.092 192.488 379.412 192.488C380.731 192.488 382.051 192.589 383.269 192.792C384.487 192.995 385.604 193.3 386.416 193.604C387.33 194.01 387.939 194.416 388.345 194.924C389.157 194.721 390.172 194.62 391.187 194.518C392.202 194.518 393.218 194.518 394.131 194.62C395.045 194.721 395.958 194.924 396.669 195.229C397.278 195.533 397.786 195.838 398.192 196.142Z" fill="url(#paint6_linear)"/>
<path d="M255.666 283.343H239.221C239.018 282.835 238.409 282.429 237.596 282.023C236.784 281.617 235.668 281.313 234.449 281.11C233.231 280.906 231.912 280.805 230.592 280.805C229.272 280.805 227.953 281.008 226.836 281.313C226.125 280.5 224.806 279.688 222.877 279.181C220.948 278.673 218.715 278.369 216.38 278.369C214.654 278.369 212.827 278.572 211.304 278.876C210.289 277.76 208.462 276.846 206.026 276.135C203.589 275.425 200.645 275.019 197.701 275.019C194.656 275.019 191.712 275.222 189.073 275.831C186.535 276.44 184.505 277.354 183.185 278.369C182.779 278.369 182.271 278.369 181.865 278.369C179.835 278.369 177.703 278.572 175.977 278.978C174.252 279.384 172.83 279.993 171.917 280.703C171.612 280.703 171.206 280.703 170.902 280.703C169.176 280.703 167.552 281.008 166.334 281.414C165.115 281.922 164.405 282.531 164.405 283.14C164.405 283.241 164.405 283.241 164.405 283.343H148.569C148.061 282.835 147.959 282.226 148.162 281.719C148.366 281.211 148.975 280.602 149.787 280.196C150.599 279.79 151.817 279.384 153.137 279.079C154.456 278.775 155.878 278.673 157.4 278.673C157.908 278.673 158.415 278.673 158.923 278.673C160.141 277.658 162.171 276.744 164.709 276.135C167.247 275.526 170.191 275.222 173.135 275.222C173.744 275.222 174.455 275.222 175.064 275.222C176.891 273.699 179.733 272.481 183.489 271.567C187.144 270.755 191.509 270.248 195.773 270.349C200.138 270.451 204.3 270.958 207.751 271.973C211.203 272.988 213.842 274.308 215.365 275.831C217.395 275.425 219.73 275.222 221.963 275.12C224.298 275.12 226.633 275.222 228.765 275.628C230.896 275.932 232.825 276.44 234.348 277.15C235.871 277.76 237.089 278.572 237.698 279.384C239.525 278.978 241.555 278.775 243.586 278.673C245.718 278.673 247.748 278.876 249.575 279.282C251.402 279.688 252.925 280.196 254.042 280.907C255.158 281.82 255.666 282.531 255.666 283.343Z" fill="url(#paint7_linear)"/>
<path d="M239.526 284.053H161.969C161.969 283.952 161.969 283.85 161.969 283.749C161.969 282.937 162.679 282.125 163.898 281.516C165.116 280.906 166.841 280.602 168.669 280.602C168.973 280.602 169.379 280.602 169.684 280.602C170.597 279.688 172.019 278.876 173.846 278.369C175.673 277.861 177.805 277.557 179.937 277.557C180.444 277.557 180.85 277.557 181.358 277.557C182.678 276.237 184.809 275.019 187.449 274.308C190.088 273.496 193.235 273.191 196.382 273.191C199.529 273.293 202.574 273.8 205.011 274.613C207.549 275.526 209.477 276.744 210.492 278.166C212.117 277.76 213.944 277.557 215.771 277.557C218.208 277.557 220.542 277.963 222.573 278.673C224.501 279.384 225.923 280.297 226.633 281.414C227.851 281.11 229.171 280.906 230.491 280.805C231.912 280.805 233.232 280.906 234.551 281.109C235.77 281.414 236.886 281.82 237.8 282.328C238.713 282.835 239.323 283.444 239.526 284.053Z" fill="url(#paint8_linear)"/>
<path d="M183.793 281.82H123.189C123.291 281.516 123.494 281.313 123.799 281.008C124.103 280.805 124.611 280.602 125.22 280.399C125.829 280.196 126.438 280.094 127.149 280.094C127.859 279.993 128.57 279.993 129.28 280.094C129.991 279.485 131.108 278.978 132.529 278.673C133.95 278.369 135.574 278.166 137.3 278.166C137.706 278.166 138.011 278.166 138.417 278.166C139.432 277.353 141.056 276.643 143.188 276.135C145.32 275.628 147.756 275.425 150.192 275.425C152.629 275.425 155.065 275.729 156.994 276.338C158.922 276.846 160.445 277.658 161.257 278.572C162.374 278.369 163.694 278.166 165.013 278.166C166.333 278.166 167.653 278.267 168.871 278.47C170.089 278.673 171.206 278.978 172.018 279.282C172.931 279.688 173.54 280.094 173.947 280.602C174.759 280.399 175.774 280.297 176.789 280.196C177.804 280.196 178.819 280.196 179.733 280.297C180.646 280.399 181.56 280.602 182.271 280.906C182.88 281.109 183.387 281.414 183.793 281.82Z" fill="url(#paint9_linear)"/>
<path d="M561.731 253.396C561.731 254.31 561.427 255.223 560.818 256.137H534.525C534.424 254.614 533.104 253.193 530.769 252.076C528.536 251.061 525.491 250.452 522.242 250.452C521.633 250.452 520.923 250.452 520.313 250.554C518.486 248.625 515.441 247.102 511.583 246.087C507.726 245.072 503.361 244.666 499.097 244.97C496.762 242.433 492.905 240.402 488.032 238.981C483.159 237.56 477.576 236.849 471.79 236.951C466.105 237.052 460.623 237.966 456.055 239.59C451.487 241.214 448.035 243.448 446.107 246.087C443.163 245.376 439.813 244.97 436.463 244.97C431.996 244.97 427.733 245.681 424.078 246.899C420.525 248.219 417.886 249.945 416.668 251.975C414.637 251.366 412.302 250.96 409.968 250.858C407.633 250.757 405.196 250.858 402.963 251.264C400.73 251.67 398.7 252.279 397.075 253.193C395.451 254.005 394.233 255.02 393.624 256.137H360.429C360.429 254.208 361.444 252.381 363.474 250.757C365.504 249.132 368.347 247.813 371.798 246.899C375.25 245.986 379.107 245.478 383.066 245.579C387.025 245.579 390.883 246.189 394.131 247.204C395.35 245.173 397.481 243.346 400.425 241.823C403.369 240.301 406.922 239.083 410.881 238.27C414.84 237.458 419.205 237.052 423.57 237.154C427.936 237.255 432.199 237.763 435.955 238.778C438.696 235.124 443.67 231.875 450.167 229.642C456.664 227.307 464.481 225.987 472.602 225.886C480.723 225.683 488.743 226.698 495.645 228.728C502.548 230.758 508.03 233.804 511.38 237.255C512.598 237.154 513.817 237.154 515.035 237.154C520.618 237.154 526.1 237.966 530.769 239.387C535.439 240.808 539.195 242.839 541.631 245.275C542.545 245.173 543.459 245.173 544.372 245.173C546.606 245.173 548.94 245.376 551.072 245.782C553.204 246.189 555.133 246.798 556.757 247.61C558.381 248.422 559.599 249.335 560.513 250.351C561.224 251.163 561.731 252.279 561.731 253.396Z" fill="#EFEFF0"/>
<path d="M534.424 256.137H393.624C394.335 255.02 395.451 254.005 397.075 253.193C398.7 252.381 400.73 251.67 402.963 251.264C405.197 250.858 407.633 250.655 409.968 250.858C412.303 250.96 414.637 251.366 416.668 251.975C417.886 249.945 420.525 248.117 424.078 246.899C427.631 245.58 431.996 244.97 436.463 244.97C439.813 244.97 443.163 245.376 446.107 246.087C448.036 243.549 451.487 241.214 456.055 239.59C460.623 237.966 466.105 237.052 471.79 236.951C477.475 236.849 483.159 237.56 488.032 238.981C492.905 240.402 496.762 242.534 499.097 244.97C503.462 244.666 507.827 245.072 511.583 246.087C515.441 247.102 518.486 248.625 520.314 250.554C520.923 250.554 521.633 250.452 522.242 250.452C525.389 250.452 528.435 251.061 530.77 252.076C533.003 253.092 534.323 254.614 534.424 256.137Z" fill="#E6E7E8"/>
<path d="M578.582 250.858H479.504C480.011 250.046 480.824 249.336 481.94 248.828C483.057 248.219 484.478 247.813 486.102 247.508C487.625 247.204 489.351 247.102 491.077 247.204C492.701 247.305 494.325 247.508 495.746 247.914C496.66 246.493 498.487 245.174 501.025 244.361C503.563 243.549 506.608 242.94 509.755 242.94C512.09 242.94 514.425 243.245 516.557 243.752C517.876 241.925 520.313 240.402 523.561 239.184C526.809 238.068 530.667 237.357 534.626 237.255C538.687 237.154 542.646 237.661 545.996 238.677C549.447 239.692 552.087 241.113 553.812 242.94C556.858 242.737 559.903 243.042 562.644 243.752C565.283 244.463 567.517 245.58 568.735 246.899C569.141 246.899 569.648 246.798 570.054 246.899C572.288 246.899 574.42 247.305 576.044 248.016C577.567 248.727 578.48 249.742 578.582 250.858Z" fill="white"/>
<path d="M301.347 185.889C301.347 186.701 301.043 187.615 300.434 188.427H274.243C274.141 187.006 272.822 185.686 270.487 184.671C268.254 183.656 265.208 183.148 262.061 183.148C261.452 183.148 260.742 183.148 260.133 183.25C258.305 181.524 255.26 180.002 251.504 179.088C247.748 178.174 243.281 177.768 239.018 177.971C236.683 175.636 232.825 173.708 227.953 172.388C223.08 171.068 217.497 170.358 211.812 170.459C206.127 170.561 200.645 171.474 196.077 172.896C191.509 174.418 188.058 176.449 186.129 178.885C183.185 178.174 179.936 177.768 176.586 177.768C172.12 177.768 167.856 178.377 164.303 179.595C160.75 180.814 158.111 182.438 156.893 184.367C154.862 183.758 152.629 183.453 150.193 183.351C147.858 183.25 145.422 183.351 143.188 183.758C140.955 184.164 138.925 184.773 137.402 185.483C135.778 186.295 134.56 187.209 133.95 188.224H100.755C100.755 186.498 101.771 184.773 103.801 183.25C105.831 181.727 108.673 180.509 112.023 179.595C115.475 178.783 119.332 178.276 123.19 178.377C127.149 178.377 130.905 178.885 134.255 179.9C135.473 178.073 137.605 176.347 140.549 174.926C143.391 173.505 147.046 172.388 151.005 171.576C154.964 170.865 159.329 170.459 163.593 170.561C167.958 170.662 172.12 171.17 175.977 172.083C178.718 168.632 183.591 165.688 190.088 163.556C196.585 161.424 204.401 160.206 212.421 160.003C220.542 159.902 228.46 160.815 235.363 162.643C242.266 164.571 247.748 167.312 251.098 170.662C252.316 170.561 253.534 170.561 254.752 170.561C260.336 170.561 265.716 171.271 270.487 172.591C275.157 173.911 278.913 175.839 281.247 178.073C282.161 177.971 283.075 177.971 283.988 177.971C286.222 177.971 288.556 178.174 290.587 178.58C292.719 178.986 294.647 179.494 296.17 180.306C297.794 181.017 299.012 181.93 299.926 182.844C300.941 183.859 301.347 184.874 301.347 185.889Z" fill="white"/>
<path d="M274.244 188.427H133.951C134.662 187.412 135.778 186.498 137.403 185.686C139.027 184.874 141.057 184.265 143.189 183.961C145.422 183.555 147.757 183.453 150.193 183.554C152.528 183.656 154.863 183.961 156.893 184.57C158.112 182.641 160.751 181.017 164.304 179.798C167.857 178.58 172.12 177.971 176.587 177.971C179.937 177.971 183.186 178.377 186.129 179.088C188.058 176.652 191.51 174.621 196.078 173.099C200.646 171.576 206.128 170.764 211.813 170.662C217.497 170.561 223.081 171.17 227.953 172.591C232.826 173.911 236.582 175.839 239.018 178.174C243.282 177.971 247.748 178.276 251.505 179.291C255.261 180.205 258.306 181.727 260.133 183.453C260.742 183.453 261.453 183.351 262.062 183.351C265.209 183.351 268.254 183.859 270.488 184.874C272.822 185.686 274.142 187.006 274.244 188.427Z" fill="url(#paint10_linear)"/>
<path d="M315.255 185.28H233.739C234.145 184.468 234.856 183.757 235.77 183.25C236.683 182.641 237.901 182.235 239.12 181.93C240.439 181.626 241.759 181.524 243.18 181.626C244.601 181.727 245.921 181.93 247.038 182.336C247.748 180.915 249.271 179.595 251.301 178.783C253.331 177.87 255.869 177.362 258.407 177.362C260.336 177.362 262.265 177.667 263.99 178.174C265.107 176.347 267.137 174.824 269.777 173.606C272.416 172.388 275.563 171.779 278.913 171.677C282.161 171.576 285.511 172.083 288.252 173.098C291.095 174.114 293.328 175.535 294.648 177.362C297.186 177.159 299.723 177.463 301.855 178.174C304.089 178.885 305.814 180.001 306.931 181.321C307.337 181.321 307.642 181.22 308.048 181.321C309.875 181.321 311.601 181.727 312.92 182.438C314.443 183.25 315.154 184.265 315.255 185.28Z" fill="white"/>
<path d="M503.563 117.063C503.563 117.875 503.36 118.687 502.852 119.398H482.651C482.55 118.078 481.534 116.86 479.809 115.946C478.083 115.032 475.748 114.525 473.312 114.525C472.804 114.525 472.297 114.525 471.789 114.626C470.368 113.002 468.033 111.682 465.089 110.769C462.145 109.855 458.795 109.551 455.445 109.754C453.618 107.622 450.674 105.795 446.918 104.576C443.162 103.358 438.898 102.749 434.432 102.851C430.067 102.952 425.803 103.764 422.352 105.084C418.799 106.505 416.159 108.434 414.637 110.566C412.403 109.957 409.865 109.551 407.226 109.551C403.775 109.551 400.526 110.16 397.785 111.276C395.044 112.393 393.014 113.916 392.1 115.642C390.578 115.134 388.751 114.829 386.923 114.728C385.096 114.626 383.269 114.728 381.543 115.134C379.817 115.439 378.295 116.048 377.076 116.758C375.858 117.469 374.945 118.382 374.437 119.296H348.855C348.855 117.672 349.668 116.149 351.19 114.728C352.713 113.307 354.946 112.19 357.586 111.378C360.225 110.566 363.169 110.16 366.214 110.261C369.26 110.261 372.204 110.769 374.742 111.581C375.655 109.855 377.381 108.333 379.513 107.013C381.746 105.693 384.487 104.678 387.532 103.967C390.578 103.257 393.928 102.952 397.278 103.054C400.628 103.155 403.876 103.561 406.82 104.475C408.952 101.328 412.708 98.5872 417.682 96.6584C422.656 94.7296 428.747 93.5115 434.939 93.4099C441.132 93.3084 447.324 94.1205 452.603 95.8463C457.882 97.572 462.145 100.11 464.683 103.155C465.597 103.054 466.51 103.054 467.424 103.054C471.688 103.054 475.951 103.663 479.504 104.983C483.159 106.201 486.001 107.926 487.828 110.058C488.539 109.957 489.249 109.957 489.96 109.957C491.686 109.957 493.412 110.16 495.036 110.464C496.66 110.87 498.081 111.378 499.401 111.987C500.619 112.698 501.634 113.408 502.345 114.322C503.157 115.235 503.563 116.149 503.563 117.063Z" fill="white"/>
<path d="M482.652 119.397H374.336C374.844 118.484 375.757 117.57 376.975 116.86C378.193 116.149 379.716 115.54 381.442 115.235C383.168 114.931 384.995 114.728 386.822 114.829C388.649 114.931 390.375 115.235 391.999 115.743C393.015 114.017 394.943 112.495 397.684 111.378C400.425 110.261 403.775 109.652 407.125 109.652C409.663 109.652 412.201 109.957 414.536 110.667C415.957 108.434 418.698 106.505 422.251 105.186C425.804 103.866 429.966 102.952 434.331 102.952C438.696 102.851 443.061 103.46 446.817 104.678C450.573 105.896 453.517 107.723 455.344 109.855C458.694 109.652 462.044 109.957 464.988 110.87C467.932 111.784 470.267 113.104 471.688 114.728C472.196 114.728 472.703 114.626 473.211 114.626C475.647 114.626 477.982 115.134 479.708 116.048C481.535 116.86 482.55 118.078 482.652 119.397Z" fill="#EFEFF0"/>
<path d="M536.759 119.804H460.623C461.029 119.093 461.638 118.585 462.552 118.078C463.465 117.57 464.481 117.164 465.699 116.961C466.917 116.758 468.237 116.657 469.455 116.657C470.774 116.758 471.993 116.961 473.109 117.266C473.82 116.048 475.241 114.931 477.17 114.22C479.099 113.51 481.433 113.002 483.87 113.002C485.697 113.002 487.423 113.205 489.047 113.713C490.062 112.19 491.991 110.769 494.427 109.855C496.864 108.84 499.909 108.332 502.954 108.231C506 108.129 509.045 108.535 511.685 109.449C514.324 110.261 516.354 111.581 517.674 113.104C520.009 112.901 522.344 113.205 524.475 113.814C526.506 114.423 528.231 115.337 529.145 116.555C529.45 116.555 529.856 116.555 530.16 116.555C531.886 116.555 533.51 116.86 534.728 117.57C535.947 117.976 536.657 118.89 536.759 119.804Z" fill="white"/>
<path d="M487.525 208.019H190.799V221.419H487.525V208.019Z" fill="url(#paint11_linear)"/>
<path d="M218.918 221.419H209.376V360.697H218.918V221.419Z" fill="#575859"/>
<path d="M301.144 221.419H291.602V360.697H301.144V221.419Z" fill="#231F20"/>
<path d="M385.604 221.419H376.062V360.697H385.604V221.419Z" fill="#231F20"/>
<path d="M431.489 366.787H419.51C419.206 366.077 418.8 365.366 418.191 364.859C417.582 364.351 416.871 363.843 416.059 363.64C415.247 363.336 414.435 363.336 413.622 363.336C412.81 363.437 411.998 363.64 411.288 364.046C410.983 363.031 410.476 362.118 409.663 361.407C408.953 360.595 408.039 359.986 407.024 359.58C406.009 359.174 404.892 358.971 403.776 359.072C402.659 359.072 401.644 359.377 400.629 359.884C399.918 358.057 398.7 356.433 396.974 355.316C395.248 354.2 393.32 353.489 391.289 353.387C389.259 353.286 387.229 353.794 385.402 354.809C383.676 355.824 382.255 357.347 381.442 359.072C381.138 359.072 380.833 358.971 380.529 358.971C379.108 358.971 377.686 359.377 376.57 360.087C375.352 360.798 374.438 361.813 373.829 363.031C373.22 362.93 372.611 362.93 372.002 363.133C371.393 363.234 370.885 363.539 370.377 363.843C369.87 364.148 369.464 364.656 369.261 365.163C368.956 365.671 368.753 366.178 368.753 366.787H357.384C357.181 366.178 357.079 365.468 357.079 364.859C357.079 364.046 357.282 363.234 357.587 362.524C357.891 361.813 358.399 361.103 359.008 360.595C359.617 359.986 360.328 359.58 361.14 359.275C361.952 358.971 362.764 358.768 363.576 358.768C363.881 358.768 364.287 358.768 364.591 358.869C365.606 356.94 367.129 355.316 369.159 354.301C371.19 353.286 373.423 352.88 375.758 353.083C376.976 350.545 379.006 348.312 381.544 346.891C384.082 345.368 387.026 344.657 390.071 344.759C393.117 344.86 395.959 345.875 398.395 347.5C400.832 349.225 402.659 351.459 403.674 354.2C405.095 353.489 406.618 353.083 408.242 352.981C409.866 352.88 411.491 353.184 412.912 353.794C414.435 354.403 415.754 355.316 416.769 356.433C417.886 357.55 418.597 358.869 419.104 360.392C420.322 359.681 421.744 359.275 423.165 359.275C424.586 359.275 426.007 359.58 427.327 360.29C428.647 361.001 429.662 361.915 430.372 363.133C431.083 364.351 431.489 365.366 431.489 366.787Z" fill="url(#paint12_linear)"/>
<path d="M468.846 221.419H459.304V360.697H468.846V221.419Z" fill="#5A5B5D"/>
<path d="M297.49 282.023C297.388 282.023 297.287 282.023 297.185 281.922L212.827 238.88C212.624 238.778 212.523 238.677 212.523 238.474C212.421 238.271 212.523 238.068 212.624 237.966C212.726 237.763 212.827 237.661 213.03 237.661C213.233 237.56 213.436 237.661 213.538 237.661L297.896 280.703C297.997 280.805 298.2 280.906 298.2 281.008C298.302 281.11 298.302 281.313 298.2 281.414C298.2 281.516 298.099 281.719 297.896 281.82C297.794 281.922 297.591 282.023 297.49 282.023Z" fill="#636466"/>
<path d="M213.132 282.023C212.928 282.023 212.827 281.922 212.725 281.922C212.624 281.82 212.522 281.719 212.421 281.515C212.421 281.414 212.421 281.211 212.421 281.109C212.522 281.008 212.624 280.805 212.725 280.805L297.084 237.763C297.287 237.661 297.49 237.661 297.591 237.763C297.794 237.864 297.896 237.966 297.997 238.067C298.099 238.27 298.099 238.372 298.099 238.575C297.997 238.778 297.896 238.88 297.794 238.981L213.538 281.922C213.436 282.023 213.233 282.023 213.132 282.023Z" fill="#636466"/>
<path d="M297.49 325.065C297.388 325.065 297.287 325.065 297.185 324.964L212.827 281.922C212.624 281.82 212.523 281.719 212.523 281.516C212.421 281.313 212.523 281.11 212.624 281.008C212.726 280.805 212.827 280.703 213.03 280.703C213.233 280.602 213.436 280.703 213.538 280.703L297.896 323.745C297.997 323.847 298.2 323.948 298.2 324.05C298.302 324.151 298.302 324.355 298.2 324.456C298.2 324.558 298.099 324.761 297.896 324.862C297.794 324.964 297.591 325.065 297.49 325.065Z" fill="#636466"/>
<path d="M213.132 325.065C212.928 325.065 212.827 325.065 212.725 324.964C212.624 324.862 212.522 324.761 212.421 324.557C212.421 324.456 212.421 324.253 212.421 324.151C212.421 324.05 212.624 323.847 212.725 323.847L297.084 280.805C297.287 280.703 297.49 280.703 297.591 280.805C297.794 280.906 297.896 281.008 297.997 281.109C298.099 281.312 298.099 281.414 298.099 281.617C297.997 281.82 297.896 281.922 297.794 282.023L213.538 324.964C213.436 324.964 213.233 325.065 213.132 325.065Z" fill="#636466"/>
<path d="M381.847 282.023C381.746 282.023 381.644 282.023 381.543 281.922L297.184 238.88C296.981 238.778 296.88 238.677 296.88 238.474C296.778 238.271 296.88 238.068 296.981 237.966C297.083 237.763 297.184 237.661 297.388 237.661C297.591 237.56 297.794 237.661 297.895 237.661L382.253 280.703C382.355 280.805 382.558 280.906 382.558 281.008C382.659 281.11 382.659 281.313 382.558 281.414C382.558 281.516 382.456 281.719 382.253 281.82C382.152 281.922 381.949 282.023 381.847 282.023Z" fill="#636466"/>
<path d="M297.49 282.023C297.287 282.023 297.185 281.922 297.084 281.922C296.982 281.82 296.881 281.719 296.779 281.515C296.779 281.414 296.779 281.211 296.779 281.109C296.881 281.008 296.982 280.805 297.084 280.805L381.442 237.763C381.645 237.661 381.848 237.661 381.95 237.763C382.153 237.864 382.254 237.966 382.356 238.067C382.457 238.27 382.457 238.372 382.457 238.575C382.356 238.778 382.254 238.88 382.153 238.981L297.794 281.922C297.693 282.023 297.591 282.023 297.49 282.023Z" fill="#636466"/>
<path d="M381.847 325.065C381.746 325.065 381.644 325.065 381.543 324.964L297.184 281.922C296.981 281.82 296.88 281.719 296.88 281.516C296.778 281.313 296.88 281.11 296.981 281.008C297.083 280.805 297.184 280.703 297.388 280.703C297.591 280.602 297.794 280.703 297.895 280.703L382.253 323.745C382.355 323.847 382.558 323.948 382.558 324.05C382.659 324.151 382.659 324.355 382.558 324.456C382.558 324.558 382.456 324.761 382.253 324.862C382.152 324.964 381.949 325.065 381.847 325.065Z" fill="#636466"/>
<path d="M297.49 325.065C297.287 325.065 297.185 325.065 297.084 324.964C296.982 324.862 296.881 324.761 296.779 324.557C296.779 324.456 296.779 324.253 296.779 324.151C296.881 324.05 296.982 323.847 297.084 323.847L381.442 280.805C381.645 280.703 381.848 280.703 381.95 280.805C382.153 280.906 382.254 281.008 382.356 281.109C382.457 281.211 382.457 281.414 382.457 281.617C382.356 281.82 382.254 281.922 382.153 282.023L297.794 324.964C297.693 324.964 297.591 325.065 297.49 325.065Z" fill="#636466"/>
<path d="M466.002 282.023C465.901 282.023 465.799 282.023 465.698 281.922L381.34 238.88C381.137 238.778 381.035 238.677 381.035 238.474C381.035 238.271 381.035 238.068 381.137 237.966C381.238 237.763 381.34 237.661 381.543 237.661C381.746 237.56 381.949 237.661 382.05 237.661L466.409 280.703C466.51 280.805 466.713 280.906 466.713 281.008C466.815 281.11 466.815 281.313 466.713 281.414C466.612 281.516 466.612 281.719 466.409 281.82C466.307 281.922 466.206 282.023 466.002 282.023Z" fill="#636466"/>
<path d="M381.645 282.023C381.442 282.023 381.341 281.922 381.239 281.922C381.138 281.82 381.036 281.719 380.935 281.515C380.935 281.414 380.935 281.211 380.935 281.109C381.036 281.008 381.138 280.805 381.239 280.805L465.597 237.763C465.699 237.763 465.8 237.661 465.902 237.661C466.003 237.661 466.105 237.661 466.206 237.661C466.308 237.661 466.409 237.763 466.409 237.763C466.511 237.864 466.511 237.864 466.612 237.966C466.612 238.067 466.714 238.169 466.714 238.27C466.714 238.372 466.714 238.473 466.714 238.575C466.714 238.677 466.612 238.778 466.612 238.778C466.511 238.88 466.511 238.88 466.409 238.981L382.051 281.922C381.95 282.023 381.848 282.023 381.645 282.023Z" fill="#636466"/>
<path d="M466.004 325.065C465.902 325.065 465.8 325.065 465.699 324.964L381.341 281.922C381.138 281.82 381.036 281.719 381.036 281.516C380.935 281.313 381.036 281.11 381.138 281.008C381.239 280.906 381.341 280.703 381.544 280.703C381.747 280.602 381.95 280.703 382.051 280.703L466.41 323.745C466.511 323.847 466.714 323.948 466.714 324.05C466.816 324.151 466.816 324.355 466.714 324.456C466.714 324.558 466.613 324.761 466.41 324.862C466.308 324.964 466.207 325.065 466.004 325.065Z" fill="#636466"/>
<path d="M381.645 325.065C381.442 325.065 381.341 324.964 381.239 324.964C381.138 324.862 381.036 324.761 380.935 324.557C380.935 324.456 380.935 324.253 380.935 324.151C381.036 324.05 381.138 323.847 381.239 323.847L465.597 280.805C465.8 280.703 466.003 280.703 466.206 280.703C466.409 280.805 466.511 280.906 466.612 281.008C466.714 281.211 466.714 281.312 466.714 281.516C466.612 281.719 466.511 281.82 466.409 281.922L382.051 324.964C381.95 324.964 381.848 325.065 381.645 325.065Z" fill="#636466"/>
<path d="M412.708 366.28L412.2 366.178C412.302 366.178 412.505 366.178 412.708 366.28Z" fill="url(#paint13_linear)"/>
<path d="M198.31 216.445C199.325 216.039 199.833 214.922 199.426 214.009C199.02 213.095 197.802 212.588 196.787 212.994C195.772 213.4 195.264 214.516 195.67 215.43C196.178 216.344 197.295 216.851 198.31 216.445Z" fill="url(#paint14_linear)"/>
<path d="M479.606 216.953C480.621 216.547 481.128 215.43 480.722 214.516C480.316 213.603 479.098 213.095 478.083 213.501C477.068 213.907 476.56 215.024 476.966 215.937C477.474 216.851 478.591 217.359 479.606 216.953Z" fill="url(#paint15_linear)"/>
<path d="M318.909 356.128C318.909 356.737 318.808 357.347 318.605 357.854H253.839C253.839 356.636 254.143 355.519 254.854 354.403C255.463 353.387 256.377 352.474 257.493 351.966C258.61 351.459 259.828 351.053 261.148 351.154C262.468 351.154 263.686 351.56 264.701 352.169C265.107 350.951 265.818 349.733 266.731 348.718C267.645 347.703 268.863 346.992 270.081 346.485C271.401 345.977 272.822 345.774 274.142 345.774C275.563 345.875 276.883 346.18 278.202 346.789C279.116 344.454 280.639 342.424 282.77 341.003C284.902 339.582 287.44 338.668 290.079 338.566C292.719 338.465 295.257 339.074 297.49 340.394C299.723 341.713 301.449 343.541 302.566 345.875C302.972 345.875 303.378 345.774 303.784 345.774C305.611 345.774 307.337 346.281 308.86 347.195C310.382 348.109 311.6 349.428 312.311 350.951C313.123 350.85 313.935 350.85 314.747 351.053C315.559 351.256 316.27 351.662 316.879 352.169C317.488 352.677 317.996 353.286 318.3 353.997C318.605 354.707 318.909 355.316 318.909 356.128Z" fill="url(#paint16_linear)"/>
<path d="M243.078 361.103H120.754C120.754 360.696 120.652 360.392 120.652 359.986C120.652 356.636 121.769 353.489 123.799 351.154C125.83 348.819 128.469 347.5 131.311 347.5C131.92 347.5 132.428 347.601 132.936 347.703C134.357 344.048 136.692 341.003 139.534 338.871C142.376 336.739 145.726 335.623 149.178 335.623C149.888 335.623 150.701 335.623 151.411 335.826C153.441 330.547 156.791 326.08 161.055 323.035C165.217 319.989 170.191 318.467 175.064 318.771C180.038 318.974 184.809 321.004 188.768 324.456C192.727 327.907 195.773 332.679 197.397 338.16C199.935 336.536 202.777 335.724 205.721 335.724C209.579 335.724 213.335 337.145 216.38 339.886C219.426 342.627 221.76 346.383 222.877 350.748C224.704 349.428 226.836 348.616 228.968 348.413C231.1 348.21 233.333 348.718 235.363 349.733C237.394 350.748 239.119 352.372 240.439 354.403C241.759 356.23 242.774 358.565 243.078 361.103Z" fill="url(#paint17_linear)"/>
<path d="M419.51 366.787H368.753C368.854 366.178 368.956 365.671 369.261 365.163C369.565 364.656 369.971 364.25 370.377 363.843C370.885 363.539 371.392 363.234 372.001 363.133C372.61 363.031 373.22 362.93 373.829 363.031C374.438 361.813 375.351 360.798 376.57 360.087C377.788 359.377 379.107 358.971 380.529 358.971C380.833 358.971 381.138 358.971 381.442 359.072C382.254 357.347 383.675 355.824 385.401 354.809C387.127 353.794 389.157 353.286 391.289 353.388C393.319 353.489 395.35 354.098 396.974 355.316C398.598 356.534 399.918 358.057 400.628 359.884C401.643 359.377 402.659 359.174 403.775 359.072C404.892 359.072 406.009 359.174 407.024 359.58C408.039 359.986 408.953 360.595 409.663 361.407C410.374 362.219 410.983 363.133 411.287 364.046C411.998 363.64 412.81 363.336 413.622 363.336C414.434 363.234 415.246 363.336 416.059 363.64C416.871 363.945 417.581 364.351 418.19 364.859C418.799 365.366 419.307 366.077 419.51 366.787Z" fill="url(#paint18_linear)"/>
<path d="M395.959 377.243H387.635C387.432 376.736 387.127 376.228 386.721 375.924C386.315 375.619 385.807 375.213 385.3 375.111C384.792 374.908 384.183 374.908 383.574 374.908C382.965 375.01 382.457 375.111 381.95 375.416C381.747 374.705 381.341 374.096 380.833 373.589C380.326 373.081 379.717 372.675 379.006 372.371C378.295 372.066 377.585 371.964 376.773 371.964C375.961 371.964 375.25 372.168 374.539 372.472C374.032 371.254 373.22 370.137 372.001 369.325C370.885 368.513 369.464 368.107 368.042 368.005C366.621 367.904 365.2 368.31 363.982 369.021C362.764 369.731 361.85 370.746 361.241 371.964C361.038 371.964 360.835 371.964 360.632 371.964C359.617 371.964 358.703 372.269 357.891 372.777C357.079 373.284 356.368 373.995 355.962 374.807C355.556 374.705 355.15 374.807 354.744 374.807C354.338 374.908 353.932 375.111 353.627 375.314C353.323 375.518 353.018 375.822 352.815 376.228C352.612 376.533 352.511 376.939 352.409 377.345H344.593C344.39 376.939 344.39 376.431 344.39 376.025C344.39 375.517 344.491 374.908 344.694 374.401C344.897 373.893 345.202 373.386 345.709 373.081C346.115 372.675 346.623 372.371 347.131 372.168C347.638 371.965 348.247 371.863 348.856 371.863C349.059 371.863 349.364 371.863 349.567 371.863C350.277 370.543 351.394 369.427 352.714 368.716C354.135 368.005 355.658 367.701 357.282 367.904C358.094 366.077 359.515 364.656 361.343 363.64C363.068 362.625 365.2 362.118 367.23 362.219C369.261 362.321 371.291 362.93 373.017 364.148C374.641 365.265 375.961 366.889 376.671 368.716C377.686 368.208 378.701 367.904 379.818 367.904C380.935 367.904 382.051 368.005 383.067 368.412C384.082 368.818 384.995 369.427 385.706 370.239C386.416 371.051 387.026 371.964 387.33 372.98C388.142 372.472 389.157 372.168 390.173 372.168C391.188 372.168 392.203 372.371 393.015 372.878C393.929 373.386 394.639 373.995 395.147 374.807C395.654 375.619 395.959 376.33 395.959 377.243Z" fill="#EFEFF0"/>
<path d="M387.635 377.243H352.511C352.511 376.837 352.714 376.431 352.917 376.127C353.12 375.822 353.424 375.518 353.729 375.213C354.033 375.01 354.44 374.807 354.846 374.705C355.252 374.604 355.658 374.604 356.064 374.705C356.47 373.893 357.18 373.183 357.992 372.675C358.805 372.168 359.82 371.965 360.733 371.863C360.936 371.863 361.139 371.863 361.342 371.863C361.952 370.645 362.865 369.63 364.083 368.919C365.302 368.208 366.723 367.904 368.144 367.904C369.565 368.005 370.986 368.412 372.103 369.224C373.22 370.036 374.133 371.152 374.641 372.371C375.351 372.066 376.062 371.863 376.874 371.761C377.686 371.761 378.397 371.863 379.107 372.168C379.818 372.472 380.427 372.878 380.935 373.386C381.442 373.893 381.848 374.604 382.051 375.213C382.559 374.908 383.066 374.705 383.676 374.705C384.285 374.604 384.792 374.705 385.401 374.908C385.909 375.111 386.416 375.416 386.823 375.721C387.229 376.025 387.432 376.736 387.635 377.243Z" fill="url(#paint19_linear)"/>
<path d="M173.744 363.133H80.0464C80.1479 362.118 80.4524 361.001 81.0615 360.087C81.5691 359.174 82.2797 358.362 83.1933 357.651C84.1069 357.042 85.1221 356.534 86.1372 356.23C87.2539 355.925 88.3705 355.925 89.3857 356.128C90.5023 353.895 92.2281 351.966 94.4614 350.545C96.6947 349.225 99.2326 348.515 101.872 348.515C102.481 348.515 102.989 348.515 103.598 348.616C105.12 345.266 107.76 342.526 111.008 340.597C114.257 338.668 118.013 337.754 121.769 337.856C125.525 338.059 129.281 339.277 132.326 341.409C135.372 343.541 137.706 346.586 139.026 350.038C140.853 349.124 142.782 348.616 144.812 348.515C146.843 348.413 148.873 348.819 150.7 349.53C152.527 350.241 154.253 351.459 155.573 352.88C156.893 354.301 157.908 356.027 158.517 357.956C159.836 357.144 161.258 356.737 162.882 356.534C164.405 356.331 165.927 356.534 167.45 357.042C168.871 357.55 170.191 358.362 171.308 359.377C172.424 360.494 173.236 361.813 173.744 363.133Z" fill="url(#paint20_linear)"/>
<path d="M326.421 361.61H267.949C268.051 361.001 268.254 360.29 268.558 359.783C268.863 359.174 269.37 358.666 269.878 358.362C270.386 357.956 271.096 357.651 271.705 357.55C272.416 357.347 273.126 357.347 273.736 357.448C274.446 356.027 275.563 354.91 276.882 354.098C278.304 353.286 279.826 352.88 281.451 352.88C281.755 352.88 282.161 352.88 282.466 352.981C283.481 350.951 285.004 349.225 287.034 348.109C289.064 346.891 291.399 346.383 293.734 346.485C296.069 346.586 298.403 347.297 300.332 348.616C302.261 349.936 303.682 351.763 304.494 353.895C305.611 353.286 306.829 352.981 308.149 352.981C309.367 352.88 310.687 353.184 311.803 353.591C313.021 354.098 314.037 354.707 314.849 355.621C315.661 356.534 316.371 357.55 316.676 358.666C317.488 358.159 318.402 357.854 319.417 357.753C320.33 357.651 321.346 357.753 322.259 358.057C323.173 358.362 323.985 358.869 324.696 359.478C325.406 360.087 326.117 360.798 326.421 361.61Z" fill="url(#paint21_linear)"/>
<path d="M595.128 325.268H536.656C536.758 324.659 536.961 323.948 537.265 323.441C537.57 322.832 538.077 322.324 538.585 322.02C539.093 321.614 539.803 321.309 540.412 321.208C541.123 321.005 541.833 321.005 542.443 321.106C543.153 319.685 544.27 318.568 545.589 317.756C547.011 316.944 548.533 316.538 550.158 316.538C550.462 316.538 550.868 316.538 551.173 316.639C552.188 314.609 553.711 312.883 555.741 311.767C557.771 310.549 560.106 310.041 562.441 310.143C564.776 310.244 567.111 310.955 569.039 312.274C570.968 313.594 572.389 315.421 573.201 317.553C574.318 316.944 575.536 316.639 576.856 316.639C578.074 316.538 579.394 316.842 580.51 317.249C581.729 317.756 582.744 318.365 583.556 319.279C584.368 320.192 585.078 321.208 585.383 322.324C586.195 321.817 587.109 321.512 588.124 321.411C589.038 321.309 590.053 321.411 590.966 321.715C591.88 322.02 592.692 322.527 593.403 323.136C594.316 323.644 594.824 324.456 595.128 325.268Z" fill="url(#paint22_linear)"/>
<path d="M330.99 376.634C330.99 377.243 330.888 377.852 330.584 378.36H252.215C252.215 377.142 252.621 376.025 253.433 374.908C254.245 373.893 255.362 372.98 256.681 372.472C258.001 371.964 259.524 371.558 261.047 371.66C262.569 371.66 264.092 372.066 265.412 372.675C265.919 371.457 266.731 370.239 267.848 369.224C268.965 368.208 270.386 367.498 271.909 366.99C273.431 366.483 275.157 366.28 276.883 366.28C278.609 366.381 280.233 366.686 281.755 367.295C282.771 364.96 284.699 362.93 287.339 361.508C289.877 360.087 292.922 359.174 296.069 359.072C299.216 358.971 302.363 359.58 305.104 360.899C307.845 362.219 309.976 364.046 311.296 366.381C311.804 366.381 312.21 366.28 312.717 366.28C314.849 366.28 317.082 366.787 318.91 367.701C320.737 368.614 322.26 369.934 323.173 371.457C324.188 371.355 325.102 371.355 326.117 371.558C327.031 371.761 327.944 372.167 328.655 372.675C329.366 373.183 329.975 373.792 330.381 374.502C330.787 375.111 330.99 375.822 330.99 376.634Z" fill="#E6E7E8"/>
<path d="M340.024 382.116H269.37C269.472 381.507 269.675 380.796 270.081 380.289C270.487 379.68 270.994 379.172 271.705 378.868C272.416 378.462 273.126 378.157 273.938 378.055C274.75 377.852 275.562 377.852 276.476 377.954C277.288 376.533 278.608 375.416 280.334 374.604C281.958 373.792 283.887 373.386 285.917 373.386C286.323 373.386 286.729 373.386 287.237 373.487C288.455 371.457 290.384 369.731 292.82 368.615C295.256 367.396 298.099 366.889 300.941 366.99C303.783 367.092 306.524 367.803 308.859 369.122C311.194 370.442 312.92 372.269 313.833 374.401C315.153 373.792 316.676 373.487 318.198 373.487C319.721 373.386 321.244 373.69 322.665 374.096C324.086 374.604 325.304 375.213 326.421 376.127C327.436 377.04 328.248 378.055 328.654 379.172C329.669 378.665 330.786 378.36 331.903 378.258C333.019 378.157 334.238 378.258 335.354 378.563C336.471 378.868 337.486 379.375 338.298 379.984C339.009 380.492 339.719 381.304 340.024 382.116Z" fill="url(#paint23_linear)"/>
<path d="M597.058 371.559H443.67C444.381 369.427 445.7 367.6 447.527 365.975C449.253 364.351 451.486 363.133 453.923 362.422C456.359 361.61 458.999 361.306 461.536 361.509C464.074 361.712 466.612 362.422 468.845 363.539C470.267 359.681 473.109 356.23 476.967 353.794C480.824 351.357 485.595 350.038 490.366 350.038C494.021 350.038 497.574 350.748 500.822 352.169C502.954 347.297 506.71 343.033 511.684 339.886C516.659 336.841 522.648 335.014 528.84 334.81C535.033 334.607 541.225 335.927 546.504 338.668C551.782 341.409 555.945 345.368 558.584 350.139C563.254 349.632 568.025 350.444 572.187 352.372C576.349 354.301 579.699 357.245 581.628 360.9C582.338 360.798 583.049 360.798 583.759 360.798C587.211 360.798 590.561 361.915 592.997 363.945C595.433 365.975 596.956 368.716 597.058 371.559Z" fill="url(#paint24_linear)"/>
<path d="M599.9 362.93H516.151C516.557 361.61 517.268 360.493 518.182 359.478C519.095 358.463 520.313 357.753 521.633 357.245C522.953 356.737 524.374 356.636 525.795 356.737C527.216 356.839 528.536 357.245 529.754 357.956C530.465 355.621 532.089 353.489 534.221 351.966C536.353 350.444 538.89 349.631 541.53 349.631C543.56 349.631 545.489 350.139 547.215 350.951C548.331 347.906 550.463 345.368 553.102 343.439C555.843 341.51 559.092 340.495 562.442 340.292C565.792 340.191 569.142 341.003 572.086 342.627C574.928 344.251 577.263 346.789 578.684 349.631C581.222 349.327 583.861 349.834 586.095 350.951C588.328 352.169 590.155 353.997 591.272 356.128C591.678 356.027 592.084 356.027 592.388 356.027C594.317 356.027 596.043 356.737 597.464 357.956C599.088 359.478 599.9 361.103 599.9 362.93Z" fill="url(#paint25_linear)"/>
<path d="M379.818 237.966C379.716 237.966 379.615 237.966 379.513 237.865L307.134 198.68C307.032 198.579 306.931 198.477 306.829 198.274C306.829 198.071 306.829 197.969 306.931 197.766C307.032 197.665 307.134 197.563 307.337 197.462C307.54 197.462 307.641 197.462 307.844 197.462L380.224 236.646C380.325 236.748 380.427 236.849 380.528 236.951C380.63 237.052 380.63 237.255 380.528 237.357C380.528 237.458 380.427 237.662 380.325 237.662C380.122 237.966 380.021 237.966 379.818 237.966Z" fill="url(#paint26_linear)"/>
<path d="M457.882 391.354V420.996L482.651 429.219V399.17L457.882 391.354Z" fill="url(#paint27_linear)"/>
<path d="M507.421 391.354V420.996L482.651 429.219V399.17L507.421 391.354Z" fill="url(#paint28_linear)"/>
<path d="M457.882 391.354L482.651 385.365L507.421 391.354L482.651 399.17L457.882 391.354Z" fill="url(#paint29_linear)"/>
<path d="M492.904 372.878V376.837L471.789 371.356H471.688C470.876 371.356 470.267 370.442 470.267 369.427C470.267 368.31 470.876 367.498 471.688 367.498L472.195 367.6L492.904 372.878Z" fill="url(#paint30_linear)"/>
<path d="M408.952 366.28L408.444 366.178C408.647 366.178 408.749 366.178 408.952 366.28Z" fill="url(#paint31_linear)"/>
<path d="M483.464 373.792H481.027V392.064H483.464V373.792Z" fill="#252324"/>
<path d="M494.326 374.908C494.326 376.025 493.717 376.837 492.905 376.837C492.093 376.837 491.483 375.924 491.483 374.908C491.483 373.792 492.093 372.98 492.905 372.98C493.717 372.98 494.326 373.792 494.326 374.908Z" fill="#100C14"/>
<path d="M483.464 392.166C483.464 392.267 482.956 392.369 482.246 392.369C481.535 392.369 481.027 392.267 481.027 392.166C481.027 392.064 481.535 391.963 482.246 391.963C482.956 391.861 483.464 391.963 483.464 392.166Z" fill="#231F20"/>
<path d="M222.877 400.287V430.538L248.052 406.479V381.101L222.877 400.287Z" fill="url(#paint32_linear)"/>
<path d="M222.877 400.287H183.591V430.538H222.877V400.287Z" fill="#00ADEF"/>
<path d="M230.186 381.101H248.053L222.877 400.287H175.876L190.494 381.101H230.186Z" fill="url(#paint33_linear)"/>
<path d="M200.645 365.366L233.231 365.569L227.343 386.989L193.742 386.278L200.645 365.366Z" fill="#231F20"/>
<path d="M229.475 368.209L225.11 383.943C225.11 384.146 225.008 384.248 224.805 384.349C224.704 384.451 224.602 384.552 224.501 384.552C224.399 384.552 224.196 384.654 224.095 384.654L198.412 384.045C198.209 384.045 198.107 384.045 198.006 383.943C197.904 383.842 197.701 383.74 197.701 383.639C197.6 383.537 197.6 383.334 197.498 383.233C197.498 383.03 197.498 382.928 197.498 382.725L202.574 367.498C202.675 367.295 202.675 367.193 202.878 367.092C202.98 366.99 203.081 366.889 203.183 366.889C203.284 366.889 203.386 366.787 203.589 366.787L228.561 366.889C228.764 366.889 228.866 366.889 228.967 366.99C229.069 367.092 229.272 367.193 229.272 367.295C229.272 367.396 229.475 367.599 229.475 367.701C229.577 367.904 229.577 368.107 229.475 368.209Z" fill="url(#paint34_linear)"/>
<path d="M229.476 368.209L225.11 383.943C225.11 384.146 225.009 384.248 224.806 384.349L202.777 367.092C202.879 366.99 202.98 366.889 203.082 366.889C203.183 366.889 203.285 366.787 203.488 366.787L228.46 366.889C228.663 366.889 228.765 366.889 228.866 366.99C228.968 367.092 229.171 367.193 229.171 367.295C229.273 367.396 229.374 367.599 229.374 367.701C229.374 367.802 229.577 368.107 229.476 368.209Z" fill="url(#paint35_linear)"/>
<path d="M381.137 163.353C381.137 176.651 380.223 190.051 378.294 203.248C378.193 203.959 378.091 204.771 377.99 205.481C377.584 208.019 377.178 210.557 376.772 213.095C376.163 216.648 375.452 220.099 374.741 223.449C374.538 224.363 374.335 225.277 374.132 226.19C374.031 226.596 373.929 227.104 373.828 227.51C373.726 227.916 373.625 228.424 373.523 228.83C373.32 229.743 373.117 230.555 372.914 231.469C372.102 234.92 371.188 238.372 370.275 241.519C370.072 242.331 369.869 243.042 369.666 243.752C367.839 250.249 365.808 256.238 363.879 261.619C356.672 281.617 349.972 293.19 349.972 293.19C349.972 293.19 349.16 294.103 343.78 295.524C341.445 296.134 339.821 296.54 338.805 296.743C338.602 296.743 338.399 296.844 338.298 296.844C338.095 296.844 337.892 296.844 337.689 296.743C336.674 296.54 335.049 296.235 332.715 295.524C327.334 294.103 326.522 293.19 326.522 293.19C326.522 293.19 319.822 281.617 312.615 261.517C304.189 237.864 298.809 213.196 296.576 188.122C295.865 180.204 295.459 171.982 295.459 163.353C295.459 154.521 295.967 145.69 296.982 136.959C302.768 86.4054 323.781 53.2102 333.628 40.0134C336.775 29.7605 337.79 24.5833 338.095 22.6545C338.095 22.6545 338.095 22.553 338.196 22.553H338.298H338.399C338.399 22.553 338.399 22.6545 338.501 22.6545C338.704 23.5681 339.009 25.0908 339.618 27.5272C340.328 30.3696 341.343 34.5316 342.968 40.0134C354.54 55.342 381.137 97.978 381.137 163.353Z" fill="url(#paint36_linear)"/>
<path d="M312.819 261.416L293.429 280.297L282.567 290.956V242.839L288.455 236.849L302.058 223.246C304.799 236.24 308.352 249.031 312.819 261.416Z" fill="url(#paint37_linear)"/>
<path d="M394.233 242.839V290.956L363.981 261.517C368.448 249.031 372.001 236.342 374.742 223.348L394.233 242.839Z" fill="url(#paint38_linear)"/>
<path d="M382.457 266.593C382.457 292.682 393.116 310.955 393.116 310.955C393.725 311.361 394.436 311.665 395.248 311.767C396.06 311.97 396.568 312.071 396.974 312.173C397.075 312.173 397.278 312.173 397.38 312.173C397.684 312.071 398.293 311.97 399.105 311.767C399.816 311.665 400.527 311.361 401.237 310.955C401.237 310.955 411.896 292.682 411.896 266.593C411.896 249.234 406.414 236.545 402.049 229.236L400.73 227.408C400.324 226.799 399.816 226.393 399.207 226.089C398.598 225.784 397.887 225.581 397.278 225.581C396.567 225.581 395.958 225.784 395.349 226.089C394.74 226.393 394.233 226.901 393.827 227.408L392.507 229.236C387.939 236.443 382.457 249.132 382.457 266.593Z" fill="url(#paint39_linear)"/>
<path d="M336.776 142.035V193.706H327.944C317.387 193.706 306.931 191.878 297.084 188.224L296.779 188.122C296.678 187.513 296.678 187.006 296.678 186.397C305.814 189.442 315.356 190.965 325 190.965H333.933V142.035H336.776Z" fill="url(#paint40_linear)"/>
<path d="M333.831 142.035V190.965H325C315.356 190.965 305.814 189.442 296.677 186.397C296.068 178.986 295.764 171.271 295.764 163.353C295.764 154.521 296.271 145.69 297.286 136.959L301.55 138.279C309.976 140.817 318.604 142.137 327.436 142.137L333.831 142.035Z" fill="url(#paint41_linear)"/>
<path d="M336.775 193.604L333.831 190.965V142.035H336.775V193.604Z" fill="#6F7173"/>
<path d="M304.495 146.908H304.393C303.682 146.908 303.175 147.517 303.175 148.126V155.13C303.175 155.841 303.784 156.349 304.393 156.349H304.495C305.205 156.349 305.713 155.739 305.713 155.13V148.126C305.814 147.517 305.205 146.908 304.495 146.908Z" fill="url(#paint42_linear)"/>
<path d="M325.102 146.908H325C324.29 146.908 323.782 147.517 323.782 148.126V155.13C323.782 155.841 324.391 156.349 325 156.349H325.102C325.812 156.349 326.32 155.739 326.32 155.13V148.126C326.422 147.517 325.812 146.908 325.102 146.908Z" fill="url(#paint43_linear)"/>
<path d="M311.296 153.506C312.21 153.1 312.616 152.085 312.21 151.171C311.804 150.258 310.788 149.852 309.875 150.258C308.961 150.664 308.555 151.679 308.961 152.593C309.367 153.405 310.382 153.912 311.296 153.506Z" fill="url(#paint44_linear)"/>
<path d="M319.722 153.506C320.635 153.1 321.041 152.085 320.635 151.171C320.229 150.258 319.214 149.852 318.301 150.258C317.387 150.664 316.981 151.679 317.387 152.593C317.793 153.405 318.808 153.912 319.722 153.506Z" fill="url(#paint45_linear)"/>
<path d="M306.626 181.017C306.626 181.321 306.525 181.727 306.322 182.032C306.119 182.336 305.814 182.539 305.51 182.641C305.205 182.742 304.799 182.844 304.494 182.742C304.19 182.641 303.885 182.539 303.581 182.235C303.378 182.032 303.175 181.727 303.073 181.321C302.972 181.017 303.073 180.611 303.175 180.306C303.276 180.001 303.581 179.697 303.784 179.494C304.088 179.291 304.393 179.189 304.799 179.189C305.002 179.189 305.307 179.189 305.51 179.291C305.713 179.392 305.916 179.494 306.119 179.697C306.322 179.9 306.423 180.001 306.525 180.306C306.626 180.509 306.626 180.712 306.626 181.017Z" fill="url(#paint46_linear)"/>
<path d="M326.421 181.219C326.624 180.306 325.913 179.392 325 179.189C324.086 178.986 323.172 179.697 322.969 180.61C322.766 181.524 323.477 182.438 324.391 182.641C325.304 182.844 326.218 182.235 326.421 181.219Z" fill="url(#paint47_linear)"/>
<path d="M316.473 181.219C316.676 180.306 315.965 179.392 315.051 179.189C314.138 178.986 313.224 179.697 313.021 180.61C312.818 181.524 313.529 182.438 314.442 182.641C315.458 182.844 316.371 182.235 316.473 181.219Z" fill="url(#paint48_linear)"/>
<path d="M310.179 160.917V166.703C310.179 167.008 310.078 167.312 309.773 167.617C309.57 167.82 309.266 168.023 308.86 168.023H303.073V169.139H309.976C310.281 169.139 310.585 169.038 310.89 168.733C311.093 168.53 311.296 168.226 311.296 167.82V160.917H310.179V160.917Z" fill="url(#paint49_linear)"/>
<path d="M326.422 167.82H319.113C318.707 167.82 318.3 168.023 318.097 168.226C317.793 168.53 317.691 168.936 317.691 169.241V177.057H318.808V170.459C318.808 170.053 319.011 169.647 319.214 169.444C319.519 169.139 319.925 169.038 320.229 169.038H326.422V167.82Z" fill="url(#paint50_linear)"/>
<path d="M312.92 173.809H305.205C305.103 173.809 305.002 173.707 304.9 173.707C304.799 173.606 304.799 173.504 304.799 173.403C304.799 173.301 304.799 173.2 304.9 173.098C305.002 172.997 305.103 172.997 305.205 172.997H312.92C313.224 172.997 313.529 172.895 313.732 172.692C313.935 172.489 314.037 172.185 314.037 171.88V166.195C314.037 165.688 314.24 165.18 314.646 164.774C315.052 164.368 315.559 164.165 316.067 164.165H323.985C324.087 164.165 324.188 164.267 324.29 164.267C324.391 164.368 324.391 164.47 324.391 164.571C324.391 164.673 324.391 164.774 324.29 164.876C324.188 164.977 324.087 164.977 323.985 164.977H316.067C315.762 164.977 315.458 165.079 315.255 165.282C315.052 165.485 314.95 165.789 314.95 166.094V171.779C314.95 172.286 314.747 172.794 314.341 173.2C313.935 173.606 313.428 173.809 312.92 173.809Z" fill="url(#paint51_linear)"/>
<path d="M305.815 173.403C305.815 173.606 305.815 173.707 305.713 173.809C305.612 173.91 305.51 174.012 305.307 174.113C305.206 174.215 305.003 174.215 304.8 174.113C304.596 174.113 304.495 174.012 304.393 173.91C304.292 173.809 304.19 173.606 304.19 173.504C304.19 173.301 304.19 173.2 304.19 172.997C304.292 172.895 304.393 172.692 304.495 172.591C304.597 172.489 304.8 172.489 304.901 172.489C305.003 172.489 305.104 172.489 305.206 172.591C305.307 172.591 305.409 172.692 305.51 172.794C305.612 172.895 305.612 172.997 305.713 173.098C305.815 173.2 305.815 173.301 305.815 173.403Z" fill="url(#paint52_linear)"/>
<path d="M324.797 164.571C324.797 164.774 324.797 164.876 324.696 164.977C324.594 165.079 324.493 165.18 324.29 165.282C324.188 165.383 323.985 165.383 323.782 165.282C323.579 165.282 323.477 165.18 323.376 165.079C323.274 164.977 323.173 164.774 323.173 164.673C323.173 164.47 323.173 164.368 323.173 164.165C323.274 164.064 323.376 163.861 323.477 163.759C323.579 163.658 323.782 163.658 323.883 163.658C323.985 163.658 324.086 163.658 324.188 163.759C324.29 163.759 324.391 163.861 324.493 163.962C324.594 164.064 324.594 164.165 324.696 164.267C324.797 164.368 324.797 164.47 324.797 164.571Z" fill="url(#paint53_linear)"/>
<path d="M307.642 164.774C307.642 164.977 307.54 165.18 307.439 165.383C307.337 165.586 307.134 165.688 306.931 165.789C306.728 165.891 306.525 165.891 306.322 165.891C306.119 165.891 305.916 165.789 305.814 165.586C305.713 165.485 305.611 165.282 305.51 165.079C305.51 164.876 305.51 164.673 305.611 164.47C305.713 164.267 305.814 164.165 306.017 163.962C306.22 163.861 306.423 163.759 306.626 163.759C306.931 163.759 307.134 163.861 307.337 164.064C307.54 164.267 307.642 164.47 307.642 164.774Z" fill="url(#paint54_linear)"/>
<path d="M323.478 173.099C323.478 173.302 323.376 173.505 323.275 173.708C323.173 173.911 322.97 174.012 322.767 174.114C322.564 174.215 322.361 174.215 322.158 174.215C321.955 174.215 321.752 174.114 321.65 173.911C321.549 173.809 321.447 173.606 321.346 173.403C321.244 173.2 321.346 172.997 321.447 172.794C321.549 172.591 321.65 172.489 321.853 172.286C322.056 172.185 322.259 172.083 322.462 172.083C322.767 172.083 322.97 172.185 323.173 172.388C323.376 172.591 323.478 172.895 323.478 173.099Z" fill="url(#paint55_linear)"/>
<path d="M299.521 139.497C299.521 139.599 299.521 139.802 299.419 139.903C299.318 140.005 299.216 140.106 299.115 140.208C299.013 140.309 298.81 140.309 298.709 140.208C298.607 140.208 298.404 140.106 298.303 140.005C298.201 139.903 298.1 139.802 298.1 139.599C298.1 139.497 298.1 139.294 298.1 139.193C298.201 139.091 298.201 138.99 298.404 138.888C298.506 138.787 298.709 138.787 298.81 138.787C298.912 138.787 299.013 138.787 299.115 138.888C299.216 138.888 299.318 138.99 299.318 139.091C299.419 139.193 299.419 139.193 299.521 139.294C299.521 139.294 299.521 139.396 299.521 139.497Z" fill="url(#paint56_linear)"/>
<path d="M332.31 144.065C332.31 144.167 332.31 144.37 332.208 144.471C332.107 144.573 332.005 144.674 331.904 144.776C331.802 144.877 331.599 144.877 331.498 144.776C331.396 144.776 331.193 144.674 331.092 144.573C330.99 144.471 330.889 144.37 330.889 144.167C330.889 144.065 330.889 143.862 330.889 143.761C330.99 143.659 330.99 143.558 331.193 143.456C331.295 143.355 331.396 143.355 331.599 143.355C331.802 143.355 332.005 143.456 332.107 143.558C332.31 143.659 332.31 143.862 332.31 144.065Z" fill="url(#paint57_linear)"/>
<path d="M332.817 189.036C332.817 189.138 332.817 189.341 332.817 189.442C332.817 189.544 332.715 189.747 332.614 189.747C332.512 189.848 332.411 189.95 332.208 189.95C332.106 189.95 331.903 189.95 331.802 189.848C331.7 189.747 331.599 189.645 331.497 189.544C331.396 189.442 331.396 189.239 331.396 189.138C331.396 189.036 331.497 188.833 331.497 188.732C331.599 188.63 331.7 188.529 331.802 188.529C332.005 188.427 332.208 188.529 332.309 188.529C332.614 188.732 332.715 188.833 332.817 189.036Z" fill="url(#paint58_linear)"/>
<path d="M298.707 185.077C298.707 185.179 298.707 185.382 298.606 185.483C298.504 185.585 298.403 185.686 298.301 185.788C298.2 185.889 297.997 185.889 297.895 185.788C297.794 185.788 297.591 185.686 297.489 185.585C297.388 185.483 297.286 185.382 297.286 185.179C297.286 185.077 297.286 184.874 297.286 184.773C297.388 184.671 297.388 184.569 297.591 184.468C297.692 184.366 297.895 184.366 297.997 184.366C298.2 184.366 298.403 184.468 298.504 184.569C298.606 184.671 298.707 184.874 298.707 185.077Z" fill="url(#paint59_linear)"/>
<path d="M338.4 27.5272C340.735 27.5272 342.664 25.5984 342.664 23.2636C342.664 20.9288 340.735 19 338.4 19C336.065 19 334.137 20.9288 334.137 23.2636C334.238 25.6999 336.065 27.5272 338.4 27.5272Z" fill="#231F20"/>
<path d="M294.444 266.593C294.444 292.682 283.785 310.955 283.785 310.955C283.176 311.361 282.465 311.665 281.653 311.767C280.841 311.97 280.334 312.071 279.927 312.173C279.826 312.173 279.826 312.173 279.724 312.173C279.623 312.173 279.623 312.173 279.521 312.173C279.217 312.071 278.608 311.97 277.796 311.767C277.085 311.665 276.374 311.361 275.664 310.955C275.664 310.955 265.005 292.682 265.005 266.593C265.005 249.234 270.487 236.545 274.852 229.236L276.171 227.408C276.578 226.799 277.085 226.393 277.694 226.089C278.303 225.784 279.014 225.581 279.623 225.581C280.232 225.581 280.943 225.784 281.552 226.089C282.161 226.393 282.668 226.901 283.074 227.408L284.394 229.236C288.962 236.443 294.444 249.132 294.444 266.593Z" fill="url(#paint60_linear)"/>
<path d="M381.138 163.353C381.138 176.652 380.224 190.051 378.295 203.248C378.194 203.959 378.092 204.771 377.991 205.482C377.585 208.019 377.179 210.557 376.773 213.095C376.164 216.648 375.453 220.1 374.742 223.45C374.539 224.363 374.336 225.277 374.133 226.19C374.032 226.596 373.93 227.104 373.829 227.51C373.727 227.916 373.626 228.424 373.524 228.83C373.321 229.743 373.118 230.555 372.915 231.469C372.103 234.921 371.189 238.372 370.276 241.519C370.073 242.331 369.87 243.042 369.667 243.752C367.839 250.249 365.809 256.239 363.88 261.619C356.673 281.617 349.973 293.19 349.973 293.19C349.973 293.19 349.161 294.103 343.781 295.525C341.446 296.134 339.822 296.54 338.806 296.743C338.603 296.743 338.4 296.844 338.299 296.844V296.743V27.5273L339.517 27.4258C340.228 30.2682 341.243 34.4303 342.867 39.912C354.541 55.3422 381.138 97.9781 381.138 163.353Z" fill="url(#paint61_linear)"/>
<path d="M350.886 268.826H345.1C343.983 268.826 343.171 269.74 343.171 270.755V276.541C343.171 277.658 344.085 278.47 345.1 278.47H350.886C352.003 278.47 352.815 277.556 352.815 276.541V270.755C352.916 269.74 352.003 268.826 350.886 268.826Z" fill="url(#paint62_linear)"/>
<path d="M350.277 273.8C350.277 274.308 350.176 274.714 349.871 275.12C349.567 275.526 349.262 275.831 348.856 275.932C348.45 276.135 347.942 276.135 347.536 276.034C347.13 275.932 346.724 275.729 346.318 275.425C346.014 275.12 345.811 274.714 345.709 274.206C345.608 273.8 345.709 273.293 345.811 272.887C346.014 272.481 346.318 272.075 346.623 271.872C347.029 271.567 347.435 271.466 347.942 271.466C348.551 271.466 349.161 271.669 349.567 272.176C350.074 272.582 350.277 273.191 350.277 273.8Z" fill="url(#paint63_linear)"/>
<path d="M349.769 116.352C356.875 109.246 356.875 97.572 349.769 90.466C342.663 83.36 330.989 83.36 323.883 90.466C316.777 97.572 316.777 109.246 323.883 116.352C330.989 123.458 342.562 123.458 349.769 116.352Z" fill="#EFEFF0"/>
<path d="M352.613 103.257C352.613 106.404 351.699 109.449 349.973 112.088C348.248 114.728 345.811 116.758 342.867 117.875C340.025 119.093 336.777 119.397 333.731 118.788C330.686 118.179 327.843 116.657 325.61 114.423C323.377 112.19 321.854 109.348 321.245 106.302C320.636 103.257 320.94 100.008 322.159 97.1659C323.377 94.3235 325.407 91.7856 327.945 90.0599C330.584 88.3342 333.63 87.4205 336.777 87.4205C338.807 87.4205 340.939 87.8266 342.867 88.6387C344.796 89.4508 346.522 90.5675 348.045 92.0902C349.466 93.5114 350.684 95.3386 351.496 97.2674C352.207 99.1962 352.613 101.226 352.613 103.257Z" fill="url(#paint64_linear)"/>
<path d="M349.364 103.358C349.364 105.795 348.653 108.231 347.232 110.363C345.811 112.393 343.882 114.017 341.547 115.032C339.212 115.946 336.776 116.251 334.339 115.743C331.903 115.235 329.67 114.017 327.944 112.292C326.218 110.566 325 108.332 324.493 105.896C323.985 103.46 324.29 100.922 325.203 98.6887C326.117 96.3538 327.741 94.4251 329.873 93.0039C331.903 91.5827 334.339 90.8721 336.877 90.8721C338.502 90.8721 340.126 91.1766 341.648 91.7857C343.171 92.3948 344.592 93.3084 345.709 94.5266C346.826 95.6432 347.841 97.0644 348.45 98.5871C349.059 100.11 349.364 101.734 349.364 103.358Z" fill="url(#paint65_linear)"/>
<path d="M343.476 104.17C343.476 104.576 343.374 104.982 343.171 105.287C342.968 105.592 342.664 105.896 342.258 105.998C341.852 106.099 341.547 106.201 341.141 106.099C340.735 105.998 340.43 105.795 340.126 105.592C339.821 105.287 339.618 104.982 339.618 104.576C339.517 104.17 339.618 103.764 339.72 103.46C339.821 103.054 340.126 102.749 340.43 102.546C340.735 102.343 341.141 102.242 341.547 102.242C342.055 102.242 342.562 102.445 342.968 102.851C343.273 103.155 343.476 103.663 343.476 104.17Z" fill="url(#paint66_linear)"/>
<path d="M339.618 99.5007C339.618 99.7038 339.517 99.9068 339.415 100.11C339.314 100.313 339.111 100.414 338.908 100.516C338.704 100.617 338.501 100.617 338.298 100.617C338.095 100.617 337.892 100.516 337.791 100.313C337.689 100.211 337.588 100.008 337.486 99.8053C337.486 99.6022 337.486 99.3992 337.588 99.1962C337.689 98.9932 337.791 98.7901 337.994 98.6886C338.197 98.5871 338.4 98.4856 338.603 98.4856C338.705 98.4856 338.908 98.4856 339.009 98.5871C339.111 98.6886 339.212 98.6886 339.314 98.7901C339.415 98.8916 339.517 98.9932 339.517 99.0947C339.618 99.1962 339.618 99.3992 339.618 99.5007Z" fill="url(#paint67_linear)"/>
<path d="M456.562 411.149C456.461 411.149 456.359 411.149 456.359 411.149C456.156 411.149 431.387 407.19 394.74 387.801C365.403 372.371 372.103 338.262 376.569 315.624C377.787 310.346 378.599 305.067 379.006 299.687C379.006 283.038 348.653 274.917 348.348 274.917C348.247 274.917 348.044 274.816 347.942 274.714C347.841 274.613 347.739 274.511 347.638 274.41C347.536 274.308 347.536 274.207 347.536 274.105C347.536 274.004 347.536 273.902 347.638 273.8C347.739 273.699 347.739 273.597 347.841 273.496C347.942 273.394 348.044 273.394 348.247 273.293C348.348 273.293 348.551 273.191 348.653 273.191C348.856 273.191 348.957 273.191 349.059 273.191C354.744 274.816 360.124 276.947 365.098 279.587C375.656 285.272 381.239 292.175 381.239 299.585C380.934 304.965 380.122 310.447 378.802 315.726C374.437 337.856 367.737 371.356 395.958 386.278C432.199 405.363 456.359 409.22 456.664 409.322C456.968 409.322 457.171 409.525 457.374 409.626C457.577 409.829 457.577 410.032 457.577 410.235C457.577 410.438 457.374 410.642 457.171 410.743C457.07 411.048 456.765 411.149 456.562 411.149Z" fill="url(#paint68_linear)"/>
<g filter="url(#filter1_d)">
<path d="M338.095 379.375C323.477 362.727 328.959 337.348 328.959 337.348C326.116 343.947 312.513 346.789 312.513 346.789C309.468 335.013 322.36 321.918 322.36 321.918C320.026 326.182 308.757 328.517 308.757 328.517C308.25 317.045 328.451 295.118 328.451 295.118C328.451 295.118 337.587 300.499 347.231 295.118C347.231 295.118 367.433 316.944 366.925 328.517C366.925 328.517 355.657 326.182 353.322 321.918C353.322 321.918 366.214 335.115 363.169 346.789C363.169 346.789 349.566 343.947 346.724 337.348C346.724 337.348 352.104 362.727 337.587 379.375" fill="#D5D7D8"/>
<path d="M338.4 371.762C325.305 356.839 330.178 334.1 330.178 334.1C327.64 339.988 315.458 342.525 315.458 342.525C312.717 331.968 324.29 320.192 324.29 320.192C322.158 323.948 312.108 326.08 312.108 326.08C311.702 315.726 329.772 296.134 329.772 296.134C329.772 296.134 337.994 301.006 346.623 296.134C346.623 296.134 364.693 315.726 364.287 326.08C364.287 326.08 354.135 323.948 352.105 320.192C352.105 320.192 363.677 331.968 360.937 342.525C360.937 342.525 348.755 339.988 346.217 334.1C346.217 334.1 351.09 356.839 337.994 371.762" fill="url(#paint69_linear)"/>
<path d="M338.095 363.843C326.522 350.545 330.786 330.445 330.786 330.445C328.553 335.724 317.691 337.957 317.691 337.957C315.254 328.618 325.507 318.162 325.507 318.162C323.68 321.512 314.645 323.441 314.645 323.441C314.239 314.305 330.38 296.946 330.38 296.946C330.38 296.946 337.689 301.209 345.302 296.946C345.302 296.946 361.342 314.305 361.037 323.441C361.037 323.441 352.104 321.614 350.175 318.162C350.175 318.162 360.428 328.618 357.992 337.957C357.992 337.957 347.13 335.724 344.896 330.445C344.896 330.445 349.16 350.647 337.587 363.843" fill="#ADAFB2"/>
<path d="M338.299 356.027C328.147 344.454 331.904 326.791 331.904 326.791C329.975 331.359 320.432 333.288 320.432 333.288C318.301 325.065 327.335 315.929 327.335 315.929C325.711 318.873 317.895 320.497 317.895 320.497C317.59 312.477 331.599 297.25 331.599 297.25C331.599 297.25 337.994 301.006 344.694 297.25C344.694 297.25 358.805 312.477 358.399 320.497C358.399 320.497 350.582 318.873 348.958 315.929C348.958 315.929 357.993 325.065 355.861 333.288C355.861 333.288 346.42 331.359 344.39 326.791C344.39 326.791 348.146 344.454 337.994 356.027" fill="#F1F2F2"/>
</g>
</g>
<defs>
<filter id="filter0_d" x="-15" y="-5" width="680" height="480" filterUnits="userSpaceOnUse" color-interpolation-filters="sRGB">
<feFlood flood-opacity="0" result="BackgroundImageFix"/>
<feColorMatrix in="SourceAlpha" type="matrix" values="0 0 0 0 0 0 0 0 0 0 0 0 0 0 0 0 0 0 127 0" result="hardAlpha"/>
<feOffset dy="10"/>
<feGaussianBlur stdDeviation="7.5"/>
<feColorMatrix type="matrix" values="0 0 0 0 0 0 0 0 0 0 0 0 0 0 0 0 0 0 0.25 0"/>
<feBlend mode="normal" in2="BackgroundImageFix" result="effect1_dropShadow"/>
<feBlend mode="normal" in="SourceGraphic" in2="effect1_dropShadow" result="shape"/>
</filter>
<filter id="filter1_d" x="283.748" y="285.118" width="108.186" height="134.257" filterUnits="userSpaceOnUse" color-interpolation-filters="sRGB">
<feFlood flood-opacity="0" result="BackgroundImageFix"/>
<feColorMatrix in="SourceAlpha" type="matrix" values="0 0 0 0 0 0 0 0 0 0 0 0 0 0 0 0 0 0 127 0" result="hardAlpha"/>
<feOffset dy="15"/>
<feGaussianBlur stdDeviation="12.5"/>
<feColorMatrix type="matrix" values="0 0 0 0 0 0 0 0 0 0 0 0 0 0 0 0 0 0 0.25 0"/>
<feBlend mode="normal" in2="BackgroundImageFix" result="effect1_dropShadow"/>
<feBlend mode="normal" in="SourceGraphic" in2="effect1_dropShadow" result="shape"/>
</filter>
<linearGradient id="paint0_linear" x1="429.146" y1="325.584" x2="580.488" y2="325.584" gradientUnits="userSpaceOnUse">
<stop stop-color="#71439A"/>
<stop offset="0.8668" stop-color="#A76CAD"/>
</linearGradient>
<linearGradient id="paint1_linear" x1="417.061" y1="348.094" x2="527.491" y2="348.094" gradientUnits="userSpaceOnUse">
<stop stop-color="white"/>
<stop offset="0.999" stop-color="#E9E9EA"/>
</linearGradient>
<linearGradient id="paint2_linear" x1="75.8993" y1="312.596" x2="273.586" y2="312.596" gradientUnits="userSpaceOnUse">
<stop stop-color="#71439A"/>
<stop offset="0.8668" stop-color="#A76CAD"/>
</linearGradient>
<linearGradient id="paint3_linear" x1="202.641" y1="140.512" x2="280.234" y2="140.512" gradientUnits="userSpaceOnUse">
<stop stop-color="white"/>
<stop offset="0.999" stop-color="#EFEFF0"/>
</linearGradient>
<linearGradient id="paint4_linear" x1="163.881" y1="140.433" x2="224.459" y2="140.433" gradientUnits="userSpaceOnUse">
<stop stop-color="white"/>
<stop offset="0.999" stop-color="#E9E9EA"/>
</linearGradient>
<linearGradient id="paint5_linear" x1="273.499" y1="77.3475" x2="351.091" y2="77.3475" gradientUnits="userSpaceOnUse">
<stop stop-color="white"/>
<stop offset="0.999" stop-color="#E6E7E8"/>
</linearGradient>
<linearGradient id="paint6_linear" x1="337.572" y1="192.972" x2="398.15" y2="192.972" gradientUnits="userSpaceOnUse">
<stop stop-color="white"/>
<stop offset="0.999" stop-color="white"/>
</linearGradient>
<linearGradient id="paint7_linear" x1="148.167" y1="276.939" x2="255.686" y2="276.939" gradientUnits="userSpaceOnUse">
<stop offset="0.001" stop-color="#C0C2D1"/>
<stop offset="1" stop-color="#C4C4C4"/>
</linearGradient>
<linearGradient id="paint8_linear" x1="161.937" y1="278.66" x2="239.529" y2="278.66" gradientUnits="userSpaceOnUse">
<stop stop-color="white"/>
<stop offset="0.999" stop-color="#E6E7E8"/>
</linearGradient>
<linearGradient id="paint9_linear" x1="123.175" y1="278.581" x2="183.753" y2="278.581" gradientUnits="userSpaceOnUse">
<stop stop-color="white"/>
<stop offset="0.999" stop-color="white"/>
</linearGradient>
<linearGradient id="paint10_linear" x1="133.906" y1="179.479" x2="274.226" y2="179.479" gradientUnits="userSpaceOnUse">
<stop stop-color="white"/>
<stop offset="0.999" stop-color="#E9E9EA"/>
</linearGradient>
<linearGradient id="paint11_linear" x1="190.782" y1="214.705" x2="487.496" y2="214.705" gradientUnits="userSpaceOnUse">
<stop stop-color="#6D6E71"/>
<stop offset="1" stop-color="#58595B"/>
</linearGradient>
<linearGradient id="paint12_linear" x1="357.115" y1="355.741" x2="431.523" y2="355.741" gradientUnits="userSpaceOnUse">
<stop stop-color="#71439A"/>
<stop offset="0.8668" stop-color="#A76CAD"/>
</linearGradient>
<linearGradient id="paint13_linear" x1="412.161" y1="366.24" x2="412.673" y2="366.24" gradientUnits="userSpaceOnUse">
<stop stop-color="#0010FF"/>
<stop offset="1" stop-color="#2A44FF"/>
</linearGradient>
<linearGradient id="paint14_linear" x1="195.728" y1="215.464" x2="199.395" y2="213.945" gradientUnits="userSpaceOnUse">
<stop stop-color="#E9EAFF"/>
<stop offset="1" stop-color="#E9EBFF"/>
</linearGradient>
<linearGradient id="paint15_linear" x1="477.05" y1="215.948" x2="480.716" y2="214.43" gradientUnits="userSpaceOnUse">
<stop stop-color="#E9EAFF"/>
<stop offset="1" stop-color="#E9EBFF"/>
</linearGradient>
<linearGradient id="paint16_linear" x1="253.831" y1="348.177" x2="318.902" y2="348.177" gradientUnits="userSpaceOnUse">
<stop stop-color="#71439A"/>
<stop offset="0.8668" stop-color="#A76CAD"/>
</linearGradient>
<linearGradient id="paint17_linear" x1="120.714" y1="339.777" x2="243.133" y2="339.777" gradientUnits="userSpaceOnUse">
<stop stop-color="white"/>
<stop offset="0.999" stop-color="#E6E7E8"/>
</linearGradient>
<linearGradient id="paint18_linear" x1="368.786" y1="360.083" x2="419.55" y2="360.083" gradientUnits="userSpaceOnUse">
<stop stop-color="white"/>
<stop offset="0.999" stop-color="#E6E7E8"/>
</linearGradient>
<linearGradient id="paint19_linear" x1="352.522" y1="372.615" x2="387.667" y2="372.615" gradientUnits="userSpaceOnUse">
<stop stop-color="white"/>
<stop offset="0.999" stop-color="#E6E7E8"/>
</linearGradient>
<linearGradient id="paint20_linear" x1="80.0848" y1="350.562" x2="173.755" y2="350.562" gradientUnits="userSpaceOnUse">
<stop stop-color="#71439A"/>
<stop offset="0.8668" stop-color="#A76CAD"/>
</linearGradient>
<linearGradient id="paint21_linear" x1="267.953" y1="353.932" x2="326.428" y2="353.932" gradientUnits="userSpaceOnUse">
<stop stop-color="white"/>
<stop offset="0.999" stop-color="white"/>
</linearGradient>
<linearGradient id="paint22_linear" x1="536.667" y1="317.569" x2="595.141" y2="317.569" gradientUnits="userSpaceOnUse">
<stop stop-color="white"/>
<stop offset="0.999" stop-color="white"/>
</linearGradient>
<linearGradient id="paint23_linear" x1="269.347" y1="374.43" x2="340.061" y2="374.43" gradientUnits="userSpaceOnUse">
<stop stop-color="white"/>
<stop offset="0.999" stop-color="white"/>
</linearGradient>
<linearGradient id="paint24_linear" x1="443.693" y1="353.274" x2="597.039" y2="353.274" gradientUnits="userSpaceOnUse">
<stop stop-color="white"/>
<stop offset="0.999" stop-color="#E9E9EA"/>
</linearGradient>
<linearGradient id="paint25_linear" x1="516.209" y1="351.661" x2="599.95" y2="351.661" gradientUnits="userSpaceOnUse">
<stop stop-color="#71439A"/>
<stop offset="0.8668" stop-color="#A76CAD"/>
</linearGradient>
<linearGradient id="paint26_linear" x1="306.89" y1="217.765" x2="380.474" y2="217.765" gradientUnits="userSpaceOnUse">
<stop stop-color="#E9EAFF"/>
<stop offset="1" stop-color="#E9EBFF"/>
</linearGradient>
<linearGradient id="paint27_linear" x1="475.383" y1="411.827" x2="451.893" y2="403.913" gradientUnits="userSpaceOnUse">
<stop stop-color="#00BAFF"/>
<stop offset="1" stop-color="#AEE9FF"/>
</linearGradient>
<linearGradient id="paint28_linear" x1="482.675" y1="410.332" x2="507.46" y2="410.332" gradientUnits="userSpaceOnUse">
<stop stop-color="#00BAFF"/>
<stop offset="1" stop-color="#86DEFF"/>
</linearGradient>
<linearGradient id="paint29_linear" x1="457.888" y1="392.314" x2="507.46" y2="392.314" gradientUnits="userSpaceOnUse">
<stop stop-color="#00BAFF"/>
<stop offset="1" stop-color="#E9F9FF"/>
</linearGradient>
<linearGradient id="paint30_linear" x1="470.274" y1="372.193" x2="492.887" y2="372.193" gradientUnits="userSpaceOnUse">
<stop stop-color="#100C14"/>
<stop offset="1" stop-color="#424244"/>
</linearGradient>
<linearGradient id="paint31_linear" x1="408.445" y1="366.24" x2="408.927" y2="366.24" gradientUnits="userSpaceOnUse">
<stop stop-color="#0010FF"/>
<stop offset="1" stop-color="#2A44FF"/>
</linearGradient>
<linearGradient id="paint32_linear" x1="226.208" y1="411.415" x2="247.781" y2="398.369" gradientUnits="userSpaceOnUse">
<stop stop-color="#00BAFF"/>
<stop offset="1" stop-color="#A7E7FF"/>
</linearGradient>
<linearGradient id="paint33_linear" x1="175.868" y1="390.691" x2="248.044" y2="390.691" gradientUnits="userSpaceOnUse">
<stop stop-color="#00BAFF"/>
<stop offset="1" stop-color="#ABE8FF"/>
</linearGradient>
<linearGradient id="paint34_linear" x1="197.433" y1="375.724" x2="229.528" y2="375.724" gradientUnits="userSpaceOnUse">
<stop stop-color="#71439A"/>
<stop offset="0.8668" stop-color="#A76CAD"/>
</linearGradient>
<linearGradient id="paint35_linear" x1="202.818" y1="375.58" x2="229.528" y2="375.58" gradientUnits="userSpaceOnUse">
<stop stop-color="#E9EAFF"/>
<stop offset="1" stop-color="#D4DFFF"/>
</linearGradient>
<linearGradient id="paint36_linear" x1="295.707" y1="159.524" x2="381.186" y2="159.524" gradientUnits="userSpaceOnUse">
<stop stop-color="#00BAFF"/>
<stop offset="1" stop-color="#DCF6FF"/>
</linearGradient>
<linearGradient id="paint37_linear" x1="282.583" y1="257.109" x2="312.849" y2="257.109" gradientUnits="userSpaceOnUse">
<stop stop-color="#6ECFF5"/>
<stop offset="1" stop-color="#00BAFF"/>
</linearGradient>
<linearGradient id="paint38_linear" x1="364.041" y1="257.133" x2="394.268" y2="257.133" gradientUnits="userSpaceOnUse">
<stop stop-color="#00BAFF"/>
<stop offset="1" stop-color="#6ECFF6"/>
</linearGradient>
<linearGradient id="paint39_linear" x1="382.413" y1="268.867" x2="411.643" y2="268.867" gradientUnits="userSpaceOnUse">
<stop stop-color="#00BAFF"/>
<stop offset="1" stop-color="#99E3FF"/>
</linearGradient>
<linearGradient id="paint40_linear" x1="296.663" y1="167.829" x2="336.801" y2="167.829" gradientUnits="userSpaceOnUse">
<stop stop-color="#E3E3E3"/>
<stop offset="0.999" stop-color="#C1C1C1"/>
</linearGradient>
<linearGradient id="paint41_linear" x1="295.719" y1="163.941" x2="333.861" y2="163.941" gradientUnits="userSpaceOnUse">
<stop stop-color="#969797"/>
<stop offset="1" stop-color="#DEDFE0"/>
</linearGradient>
<linearGradient id="paint42_linear" x1="303.178" y1="151.684" x2="305.805" y2="151.684" gradientUnits="userSpaceOnUse">
<stop stop-color="#71439A"/>
<stop offset="0.8668" stop-color="#A76CAD"/>
</linearGradient>
<linearGradient id="paint43_linear" x1="323.772" y1="151.684" x2="326.399" y2="151.684" gradientUnits="userSpaceOnUse">
<stop stop-color="#71439A"/>
<stop offset="0.8668" stop-color="#A76CAD"/>
</linearGradient>
<linearGradient id="paint44_linear" x1="308.986" y1="152.553" x2="312.212" y2="151.209" gradientUnits="userSpaceOnUse">
<stop stop-color="#71439A"/>
<stop offset="0.8668" stop-color="#A76CAD"/>
</linearGradient>
<linearGradient id="paint45_linear" x1="317.407" y1="152.553" x2="320.632" y2="151.209" gradientUnits="userSpaceOnUse">
<stop stop-color="#71439A"/>
<stop offset="0.8668" stop-color="#A76CAD"/>
</linearGradient>
<linearGradient id="paint46_linear" x1="303.179" y1="180.978" x2="306.672" y2="180.978" gradientUnits="userSpaceOnUse">
<stop stop-color="#71439A"/>
<stop offset="0.8668" stop-color="#A76CAD"/>
</linearGradient>
<linearGradient id="paint47_linear" x1="324.371" y1="182.702" x2="324.931" y2="179.255" gradientUnits="userSpaceOnUse">
<stop stop-color="#71439A"/>
<stop offset="0.8668" stop-color="#A76CAD"/>
</linearGradient>
<linearGradient id="paint48_linear" x1="314.507" y1="182.702" x2="315.067" y2="179.255" gradientUnits="userSpaceOnUse">
<stop stop-color="#71439A"/>
<stop offset="0.8668" stop-color="#A76CAD"/>
</linearGradient>
<linearGradient id="paint49_linear" x1="303.178" y1="164.93" x2="311.321" y2="164.93" gradientUnits="userSpaceOnUse">
<stop stop-color="#71439A"/>
<stop offset="0.8668" stop-color="#A76CAD"/>
</linearGradient>
<linearGradient id="paint50_linear" x1="317.572" y1="172.436" x2="326.399" y2="172.436" gradientUnits="userSpaceOnUse">
<stop stop-color="#71439A"/>
<stop offset="0.8668" stop-color="#A76CAD"/>
</linearGradient>
<linearGradient id="paint51_linear" x1="304.773" y1="168.968" x2="324.384" y2="168.968" gradientUnits="userSpaceOnUse">
<stop stop-color="#71439A"/>
<stop offset="0.8668" stop-color="#A76CAD"/>
</linearGradient>
<linearGradient id="paint52_linear" x1="304.206" y1="173.365" x2="305.809" y2="173.365" gradientUnits="userSpaceOnUse">
<stop stop-color="white"/>
<stop offset="1" stop-color="white"/>
</linearGradient>
<linearGradient id="paint53_linear" x1="323.181" y1="164.528" x2="324.784" y2="164.528" gradientUnits="userSpaceOnUse">
<stop stop-color="white"/>
<stop offset="1" stop-color="white"/>
</linearGradient>
<linearGradient id="paint54_linear" x1="305.594" y1="164.761" x2="307.661" y2="164.761" gradientUnits="userSpaceOnUse">
<stop stop-color="#71439A"/>
<stop offset="0.8668" stop-color="#A76CAD"/>
</linearGradient>
<linearGradient id="paint55_linear" x1="321.46" y1="173.133" x2="323.527" y2="173.133" gradientUnits="userSpaceOnUse">
<stop stop-color="#71439A"/>
<stop offset="0.8668" stop-color="#A76CAD"/>
</linearGradient>
<linearGradient id="paint56_linear" x1="298.135" y1="139.454" x2="299.554" y2="139.454" gradientUnits="userSpaceOnUse">
<stop stop-color="white"/>
<stop offset="1" stop-color="white"/>
</linearGradient>
<linearGradient id="paint57_linear" x1="330.935" y1="144.03" x2="332.354" y2="144.03" gradientUnits="userSpaceOnUse">
<stop stop-color="white"/>
<stop offset="1" stop-color="white"/>
</linearGradient>
<linearGradient id="paint58_linear" x1="331.403" y1="189.276" x2="332.822" y2="189.276" gradientUnits="userSpaceOnUse">
<stop stop-color="white"/>
<stop offset="1" stop-color="white"/>
</linearGradient>
<linearGradient id="paint59_linear" x1="297.24" y1="185.029" x2="298.658" y2="185.029" gradientUnits="userSpaceOnUse">
<stop stop-color="white"/>
<stop offset="1" stop-color="white"/>
</linearGradient>
<linearGradient id="paint60_linear" x1="265.21" y1="268.867" x2="294.438" y2="268.867" gradientUnits="userSpaceOnUse">
<stop stop-color="#A8E7FF"/>
<stop offset="1" stop-color="#00BAFF"/>
</linearGradient>
<linearGradient id="paint61_linear" x1="338.448" y1="162.031" x2="381.187" y2="162.031" gradientUnits="userSpaceOnUse">
<stop stop-color="#6DD8FF"/>
<stop offset="0.189" stop-color="#7DDCFF"/>
<stop offset="0.476" stop-color="#4FCFFF"/>
<stop offset="1" stop-color="#00BAFF"/>
</linearGradient>
<linearGradient id="paint62_linear" x1="343.153" y1="273.727" x2="352.873" y2="273.727" gradientUnits="userSpaceOnUse">
<stop stop-color="#71439A"/>
<stop offset="0.8668" stop-color="#A76CAD"/>
</linearGradient>
<linearGradient id="paint63_linear" x1="345.696" y1="273.798" x2="350.322" y2="273.798" gradientUnits="userSpaceOnUse">
<stop stop-color="white"/>
<stop offset="1" stop-color="white"/>
</linearGradient>
<linearGradient id="paint64_linear" x1="320.971" y1="103.289" x2="352.635" y2="103.289" gradientUnits="userSpaceOnUse">
<stop stop-color="#71439A"/>
<stop offset="0.8668" stop-color="#A76CAD"/>
</linearGradient>
<linearGradient id="paint65_linear" x1="324.239" y1="103.386" x2="349.365" y2="103.386" gradientUnits="userSpaceOnUse">
<stop stop-color="#00BAFF"/>
<stop offset="1" stop-color="#3DCAFF"/>
</linearGradient>
<linearGradient id="paint66_linear" x1="339.597" y1="104.179" x2="343.498" y2="104.179" gradientUnits="userSpaceOnUse">
<stop stop-color="#E9EAFF"/>
<stop offset="1" stop-color="#E9EBFF"/>
</linearGradient>
<linearGradient id="paint67_linear" x1="337.464" y1="99.5119" x2="339.596" y2="99.5119" gradientUnits="userSpaceOnUse">
<stop stop-color="#E9EAFF"/>
<stop offset="1" stop-color="#E9EBFF"/>
</linearGradient>
<linearGradient id="paint68_linear" x1="347.502" y1="342.205" x2="457.688" y2="342.205" gradientUnits="userSpaceOnUse">
<stop stop-color="#71439A"/>
<stop offset="0.8668" stop-color="#A76CAD"/>
</linearGradient>
<linearGradient id="paint69_linear" x1="312.049" y1="333.935" x2="364.292" y2="333.935" gradientUnits="userSpaceOnUse">
<stop stop-color="#71439A"/>
<stop offset="0.8668" stop-color="#A76CAD"/>
</linearGradient>
</defs>
</svg>
