<svg width="681" height="494" viewBox="0 0 681 494" fill="none" xmlns="http://www.w3.org/2000/svg">
<g clip-path="url(#clip0)" filter="url(#filter0_d)">
<path opacity="0.5" d="M612.694 334.216C612.694 336.249 612.403 338.185 611.726 340.024H583.753C583.656 336.733 582.204 333.636 579.784 331.409C577.365 329.183 574.17 327.828 570.783 327.828C570.105 327.828 569.428 327.828 568.75 328.022C566.814 323.956 563.523 320.569 559.458 318.342C555.393 316.116 550.747 315.245 546.101 315.826C543.584 310.502 539.519 305.953 534.389 302.856C529.259 299.758 523.258 298.21 517.16 298.5C511.062 298.79 505.254 300.726 500.415 304.211C495.575 307.695 491.8 312.535 489.865 318.052C486.767 316.407 483.186 315.535 479.605 315.632C474.862 315.632 470.313 317.084 466.538 319.891C462.763 322.601 459.956 326.473 458.601 330.925C456.471 329.667 454.051 328.796 451.535 328.602C449.018 328.409 446.502 328.699 444.082 329.57C441.759 330.441 439.629 331.797 437.887 333.636C436.145 335.475 434.887 337.604 434.209 339.927H398.88C398.88 335.862 400.041 331.893 402.074 328.409C404.204 324.924 407.204 322.021 410.882 320.085C414.56 318.149 418.626 317.084 422.788 317.181C426.95 317.278 431.015 318.439 434.596 320.569C435.951 316.31 438.178 312.341 441.275 308.954C444.372 305.663 448.147 302.952 452.406 301.21C456.665 299.468 461.214 298.694 465.86 298.887C470.506 299.081 474.959 300.242 479.024 302.372C481.928 294.435 487.154 287.563 494.123 282.626C501.092 277.69 509.417 274.786 517.934 274.496C526.549 274.108 535.066 276.335 542.423 280.69C549.779 285.046 555.586 291.531 559.168 299.178C560.426 298.984 561.684 298.984 563.039 298.984C568.944 298.984 574.751 300.629 579.784 303.727C584.818 306.824 588.786 311.277 591.303 316.503C592.27 316.407 593.238 316.31 594.206 316.31C596.626 316.31 599.046 316.794 601.272 317.665C603.498 318.536 605.531 319.891 607.273 321.537C609.016 323.182 610.371 325.215 611.242 327.344C612.21 329.57 612.694 331.893 612.694 334.216Z" fill="url(#paint0_linear)"/>
<path d="M599.336 340.121H444.856C445.631 337.798 446.889 335.571 448.728 333.829C450.47 331.99 452.696 330.635 455.116 329.764C457.536 328.893 460.149 328.506 462.763 328.796C465.376 328.99 467.893 329.861 470.119 331.119C471.474 326.763 474.378 322.892 478.249 320.085C482.121 317.278 486.864 315.826 491.8 315.826C495.478 315.826 499.06 316.697 502.351 318.246C504.48 312.728 508.255 307.889 513.288 304.404C518.321 300.92 524.322 298.887 530.614 298.694C536.905 298.403 543.003 299.952 548.424 303.049C553.747 306.147 558.006 310.696 560.523 316.019C565.266 315.439 570.105 316.31 574.267 318.536C578.429 320.762 581.817 324.053 583.85 328.215C584.527 328.118 585.301 328.022 585.979 328.022C589.464 328.022 592.754 329.28 595.271 331.603C597.788 333.732 599.239 336.83 599.336 340.121Z" fill="#E6E7E8"/>
<path opacity="0.6" d="M630.697 328.796H525.387C525.871 327.15 526.742 325.602 528.001 324.344C529.259 323.085 530.711 322.117 532.356 321.44C534.002 320.859 535.841 320.569 537.583 320.762C539.325 320.956 541.068 321.44 542.616 322.408C543.584 319.31 545.52 316.6 548.133 314.664C550.844 312.728 554.038 311.664 557.329 311.664C559.845 311.664 562.265 312.244 564.491 313.406C565.943 309.534 568.556 306.147 571.944 303.63C575.332 301.21 579.494 299.758 583.753 299.565C588.012 299.371 592.27 300.436 595.852 302.662C599.53 304.792 602.337 307.986 604.079 311.761C607.273 311.373 610.564 311.954 613.468 313.503C616.275 315.051 618.598 317.374 619.953 320.278C620.437 320.181 620.921 320.181 621.405 320.181C623.728 320.181 626.051 321.053 627.793 322.698C629.632 324.343 630.6 326.57 630.697 328.796Z" fill="#9FA1A4"/>
<path opacity="0.5" d="M282.439 334.216H253.692C253.305 331.99 252.24 329.957 250.788 328.215C249.336 326.473 247.497 325.021 245.271 324.15C243.142 323.279 240.819 322.892 238.496 322.988C236.173 323.182 233.946 323.86 231.914 325.021C230.752 321.246 228.332 317.858 225.042 315.535C221.751 313.116 217.685 311.857 213.62 311.857C210.523 311.857 207.425 312.535 204.715 313.987C202.973 309.147 199.682 304.985 195.423 301.985C191.164 298.984 186.034 297.242 180.808 297.048C175.484 296.855 170.257 298.113 165.805 300.823C161.256 303.533 157.674 307.405 155.545 312.051C154.77 311.954 153.996 311.857 153.222 311.954C149.544 311.954 145.962 312.922 142.962 314.858C139.864 316.697 137.445 319.407 135.896 322.601C135.315 322.504 134.735 322.504 134.057 322.504C131.056 322.504 128.153 323.666 126.023 325.699C123.894 327.731 122.732 330.538 122.732 333.442C122.732 333.732 122.732 334.119 122.829 334.41H94.7594C93.8883 332.087 93.6947 329.57 94.0819 327.054C94.469 324.634 95.437 322.214 96.9856 320.181C98.5343 318.149 100.47 316.503 102.793 315.342C105.116 314.18 107.633 313.6 110.246 313.6C111.117 313.6 111.988 313.696 112.86 313.793C115.086 309.244 118.57 305.372 123.023 302.662C127.475 299.952 132.508 298.5 137.735 298.5C138.897 298.5 139.961 298.597 141.123 298.694C144.22 292.015 149.35 286.498 155.835 282.626C162.32 278.754 169.773 276.915 177.42 277.206C184.97 277.496 192.326 280.013 198.424 284.272C204.522 288.627 209.168 294.628 211.684 301.501C215.266 299.662 219.234 298.694 223.299 298.5C227.365 298.306 231.43 298.984 235.108 300.533C238.883 302.081 242.174 304.308 244.884 307.211C247.594 310.115 249.627 313.6 250.788 317.278C253.886 315.439 257.467 314.374 261.145 314.277C264.823 314.18 268.501 315.051 271.695 316.794C274.889 318.536 277.6 321.053 279.439 324.053C281.374 327.247 282.342 330.635 282.439 334.216Z" fill="url(#paint1_linear)"/>
<path d="M254.079 337.507H118.086C118.086 337.12 117.99 336.636 117.99 336.249C117.99 332.474 119.248 328.893 121.474 326.183C123.7 323.569 126.701 322.021 129.798 322.021C130.379 322.021 131.056 322.117 131.637 322.214C133.283 318.052 135.799 314.568 138.993 312.148C142.188 309.728 145.866 308.373 149.64 308.373C150.415 308.373 151.286 308.47 152.06 308.566C154.287 302.565 158.061 297.532 162.707 294.048C167.353 290.563 172.774 288.918 178.291 289.111C183.808 289.402 189.035 291.628 193.487 295.596C197.94 299.565 201.231 304.985 203.07 311.18C205.877 309.341 209.071 308.373 212.362 308.373C216.621 308.373 220.783 310.018 224.267 313.116C227.655 316.213 230.171 320.569 231.43 325.505C233.462 323.956 235.882 323.085 238.302 322.892C240.722 322.698 243.142 323.182 245.368 324.344C247.594 325.505 249.53 327.344 251.079 329.57C252.627 331.893 253.595 334.603 254.079 337.507Z" fill="url(#paint2_linear)"/>
<path opacity="0.6" d="M156.319 327.247H50.1382C50.235 326.086 50.6222 324.924 51.203 323.86C51.7837 322.795 52.6548 321.924 53.6228 321.149C54.5907 320.375 55.7522 319.891 57.0105 319.601C58.2688 319.31 59.5271 319.214 60.7854 319.504C62.0437 316.891 64.0763 314.761 66.4961 313.212C69.0127 311.664 71.9165 310.889 74.917 310.889C75.5946 310.889 76.1753 310.889 76.8528 310.986C78.5951 307.211 81.4989 304.017 85.177 301.888C88.8551 299.758 93.1139 298.694 97.3728 298.79C101.632 298.984 105.794 300.339 109.278 302.856C112.763 305.275 115.376 308.663 116.828 312.632C118.861 311.567 121.087 310.986 123.41 310.889C125.733 310.793 128.056 311.18 130.185 312.051C132.315 312.922 134.251 314.18 135.799 315.826C137.348 317.471 138.509 319.407 139.09 321.537C140.542 320.665 142.284 320.085 144.027 319.891C145.769 319.697 147.511 319.891 149.157 320.472C150.802 321.053 152.351 321.924 153.512 323.085C154.77 324.247 155.738 325.699 156.319 327.247Z" fill="url(#paint3_linear)"/>
<path opacity="0.8" d="M304.121 146.053H288.44C288.247 145.569 287.666 145.181 286.892 144.794C286.117 144.407 285.053 144.117 283.891 143.923C282.73 143.73 281.471 143.633 280.213 143.633C278.955 143.633 277.696 143.826 276.632 144.117C275.954 143.342 274.696 142.568 272.857 142.084C271.018 141.6 268.888 141.31 266.662 141.31C265.017 141.31 263.274 141.503 261.822 141.794C260.855 140.729 259.112 139.858 256.789 139.18C254.466 138.503 251.659 138.116 248.852 138.116C245.949 138.116 243.142 138.309 240.625 138.89C238.205 139.471 236.269 140.342 235.011 141.31C234.624 141.31 234.14 141.31 233.753 141.31C231.817 141.31 229.784 141.503 228.139 141.89C226.493 142.278 225.138 142.858 224.267 143.536C223.977 143.536 223.59 143.536 223.299 143.536C221.654 143.536 220.105 143.826 218.944 144.213C217.782 144.697 217.105 145.278 217.105 145.859C217.105 145.956 217.105 145.956 217.105 146.053H202.005C201.521 145.569 201.424 144.988 201.618 144.504C201.811 144.02 202.392 143.439 203.167 143.052C203.941 142.665 205.102 142.278 206.361 141.987C207.619 141.697 208.974 141.6 210.426 141.6C210.91 141.6 211.394 141.6 211.878 141.6C213.039 140.632 214.975 139.761 217.395 139.18C219.815 138.6 222.622 138.309 225.429 138.309C226.009 138.309 226.687 138.309 227.268 138.309C229.01 136.857 231.72 135.696 235.301 134.825C238.786 134.05 242.948 133.566 247.013 133.663C251.175 133.76 255.144 134.244 258.435 135.212C261.726 136.18 264.242 137.438 265.694 138.89C267.63 138.503 269.856 138.309 271.986 138.212C274.212 138.212 276.438 138.309 278.471 138.696C280.503 138.987 282.342 139.471 283.794 140.148C285.246 140.729 286.408 141.503 286.988 142.278C288.731 141.89 290.667 141.697 292.602 141.6C294.635 141.6 296.571 141.794 298.313 142.181C300.055 142.568 301.507 143.052 302.572 143.73C303.637 144.601 304.121 145.278 304.121 146.053Z" fill="url(#paint4_linear)"/>
<path d="M288.731 146.827H214.782C214.782 146.73 214.782 146.633 214.782 146.536C214.782 145.762 215.459 144.988 216.621 144.407C217.782 143.826 219.428 143.536 221.17 143.536C221.46 143.536 221.847 143.536 222.138 143.536C223.009 142.665 224.364 141.89 226.106 141.406C227.848 140.923 229.881 140.632 231.914 140.632C232.398 140.632 232.785 140.632 233.269 140.632C234.527 139.374 236.56 138.212 239.076 137.535C241.593 136.76 244.593 136.47 247.594 136.47C250.595 136.47 253.498 137.051 255.821 137.825C258.241 138.696 260.08 139.858 261.048 141.213C262.597 140.826 264.339 140.632 266.081 140.632C268.404 140.632 270.631 141.019 272.566 141.697C274.405 142.374 275.761 143.246 276.438 144.31C277.6 144.02 278.858 143.826 280.116 143.729C281.471 143.729 282.73 143.826 283.988 144.02C285.149 144.31 286.214 144.697 287.085 145.181C287.956 145.569 288.44 146.149 288.731 146.827Z" fill="url(#paint5_linear)"/>
<path opacity="0.6" d="M235.592 144.601H177.807C177.904 144.31 178.097 144.117 178.388 143.826C178.678 143.633 179.162 143.439 179.743 143.246C180.324 143.052 180.904 142.955 181.582 142.955C182.259 142.858 182.937 142.858 183.615 142.955C184.292 142.374 185.357 141.891 186.712 141.6C188.067 141.31 189.616 141.116 191.261 141.116C191.648 141.116 191.939 141.116 192.326 141.116C193.294 140.342 194.842 139.664 196.875 139.18C198.908 138.696 201.231 138.503 203.554 138.503C205.877 138.503 208.2 138.793 210.039 139.374C211.878 139.955 213.33 140.632 214.104 141.503C215.169 141.31 216.427 141.116 217.685 141.116C218.944 141.116 220.202 141.213 221.363 141.407C222.525 141.6 223.59 141.891 224.364 142.181C225.235 142.568 225.816 142.955 226.203 143.439C226.977 143.246 227.945 143.149 228.913 143.052C229.881 143.052 230.849 143.052 231.72 143.149C232.591 143.246 233.462 143.439 234.14 143.73C234.721 143.923 235.205 144.214 235.592 144.601Z" fill="url(#paint6_linear)"/>
<path opacity="0.8" d="M371.681 85.8479H356.001C355.808 85.364 355.227 84.9768 354.452 84.5896C353.678 84.2025 352.613 83.9121 351.452 83.7185C350.29 83.5249 349.032 83.4281 347.774 83.4281C346.515 83.4281 345.257 83.6217 344.192 83.9121C343.515 83.1378 342.257 82.3634 340.418 81.8795C338.579 81.3955 336.449 81.1051 334.223 81.1051C332.577 81.1051 330.835 81.2987 329.383 81.5891C328.415 80.5244 326.673 79.6532 324.35 78.9757C322.027 78.2982 319.22 77.911 316.413 77.911C313.509 77.911 310.702 78.1046 308.186 78.6853C305.766 79.2661 303.83 80.1372 302.572 81.1051C302.185 81.1051 301.701 81.1051 301.314 81.1051C299.378 81.1051 297.345 81.2987 295.7 81.6859C294.054 82.0731 292.699 82.6538 291.828 83.3313C291.538 83.3313 291.15 83.3313 290.86 83.3313C289.215 83.3313 287.666 83.6217 286.504 84.0089C285.343 84.4929 284.665 85.0736 284.665 85.6544C284.665 85.7511 284.665 85.7511 284.665 85.8479H269.663C269.179 85.364 269.082 84.7832 269.275 84.2993C269.469 83.8153 270.05 83.2346 270.824 82.8474C271.598 82.4602 272.76 82.0731 274.018 81.7827C275.277 81.4923 276.632 81.3955 278.083 81.3955C278.567 81.3955 279.051 81.3955 279.535 81.3955C280.697 80.4276 282.633 79.5565 285.053 78.9757C287.472 78.395 290.279 78.1046 293.086 78.1046C293.667 78.1046 294.345 78.1046 294.925 78.1046C296.668 76.6527 299.378 75.4912 302.959 74.6201C306.444 73.8457 310.606 73.3618 314.671 73.4586C318.833 73.5554 322.801 74.0393 326.092 75.0072C329.383 75.9752 331.9 77.2335 333.352 78.6853C335.288 78.2982 337.514 78.1046 339.643 78.0078C341.869 78.0078 344.096 78.1046 346.128 78.4917C348.161 78.7821 350 79.2661 351.452 79.9436C352.904 80.5244 354.065 81.2987 354.646 82.0731C356.388 81.6859 358.324 81.4923 360.26 81.3955C362.293 81.3955 364.228 81.5891 365.971 81.9763C367.713 82.3634 369.165 82.8474 370.23 83.5249C371.197 84.3961 371.681 85.0736 371.681 85.8479Z" fill="url(#paint7_linear)"/>
<path d="M356.292 86.5255H282.342C282.342 86.4287 282.342 86.3319 282.342 86.2351C282.342 85.4607 283.02 84.6864 284.181 84.1057C285.343 83.5249 286.988 83.2345 288.731 83.2345C289.021 83.2345 289.408 83.2345 289.699 83.2345C290.57 82.3634 291.925 81.5891 293.667 81.1051C295.409 80.6211 297.442 80.3308 299.475 80.3308C299.959 80.3308 300.346 80.3308 300.83 80.3308C302.088 79.0725 304.121 77.911 306.637 77.2334C309.154 76.4591 312.154 76.1687 315.155 76.1687C318.155 76.2655 321.059 76.7495 323.382 77.5238C325.802 78.3949 327.641 79.5564 328.609 80.9115C330.158 80.5243 331.9 80.3308 333.642 80.3308C335.965 80.3308 338.191 80.7179 340.127 81.3955C341.966 82.073 343.321 82.9442 343.999 84.0089C345.16 83.7185 346.419 83.5249 347.677 83.4281C349.032 83.4281 350.29 83.5249 351.549 83.7185C352.71 84.0089 353.775 84.396 354.646 84.88C355.517 85.3639 356.001 85.9447 356.292 86.5255Z" fill="url(#paint8_linear)"/>
<path opacity="0.85" d="M303.153 84.396H245.368C245.465 84.1056 245.658 83.912 245.949 83.6217C246.239 83.4281 246.723 83.2345 247.304 83.0409C247.884 82.8473 248.465 82.7505 249.143 82.7505C249.82 82.6537 250.498 82.6537 251.175 82.7505C251.853 82.1698 252.918 81.6858 254.273 81.3954C255.628 81.1051 257.176 80.9115 258.822 80.9115C259.209 80.9115 259.499 80.9115 259.887 80.9115C260.855 80.1371 262.403 79.4596 264.436 78.9756C266.468 78.4917 268.791 78.2981 271.114 78.2981C273.437 78.2981 275.761 78.5885 277.6 79.1692C279.439 79.6532 280.89 80.4275 281.665 81.2986C282.73 81.1051 283.988 80.9115 285.246 80.9115C286.504 80.9115 287.763 81.0083 288.924 81.2019C290.086 81.3954 291.15 81.6858 291.925 81.9762C292.796 82.3634 293.377 82.7505 293.764 83.2345C294.538 83.0409 295.506 82.9441 296.474 82.8473C297.442 82.8473 298.41 82.8473 299.281 82.9441C300.152 83.0409 301.023 83.2345 301.701 83.5249C302.282 83.7185 302.765 84.0088 303.153 84.396Z" fill="url(#paint9_linear)"/>
<path opacity="0.8" d="M469.732 196.191H454.051C453.858 195.707 453.277 195.32 452.503 194.933C451.728 194.545 450.664 194.255 449.502 194.061C448.341 193.868 447.082 193.771 445.824 193.771C444.566 193.771 443.308 193.965 442.243 194.255C441.565 193.481 440.307 192.706 438.468 192.222C436.629 191.738 434.499 191.448 432.273 191.448C430.628 191.448 428.886 191.642 427.434 191.932C426.466 190.867 424.723 189.996 422.4 189.319C420.077 188.641 417.27 188.254 414.464 188.254C411.56 188.254 408.753 188.447 406.236 189.028C403.816 189.609 401.881 190.48 400.622 191.448C400.235 191.448 399.751 191.448 399.364 191.448C397.428 191.448 395.395 191.642 393.75 192.029C392.105 192.416 390.749 192.997 389.878 193.674C389.588 193.674 389.201 193.674 388.91 193.674C387.265 193.674 385.716 193.965 384.555 194.352C383.393 194.836 382.716 195.417 382.716 195.997C382.716 196.094 382.716 196.094 382.716 196.191H367.616C367.132 195.707 367.035 195.126 367.229 194.642C367.423 194.158 368.003 193.577 368.778 193.19C369.552 192.803 370.714 192.416 371.972 192.126C373.23 191.835 374.585 191.738 376.037 191.738C376.521 191.738 377.005 191.738 377.489 191.738C378.65 190.77 380.586 189.899 383.006 189.319C385.426 188.738 388.233 188.447 391.04 188.447C391.621 188.447 392.298 188.447 392.879 188.447C394.621 186.996 397.331 185.834 400.913 184.963C404.397 184.189 408.559 183.705 412.624 183.801C416.787 183.898 420.755 184.382 424.046 185.35C427.337 186.318 429.853 187.576 431.305 189.028C433.241 188.641 435.467 188.447 437.597 188.351C439.823 188.351 442.049 188.447 444.082 188.835C446.115 189.125 447.954 189.609 449.405 190.287C450.857 190.867 452.019 191.642 452.6 192.416C454.342 192.029 456.278 191.835 458.213 191.738C460.246 191.738 462.182 191.932 463.924 192.319C465.666 192.706 467.118 193.19 468.183 193.868C469.248 194.642 469.732 195.417 469.732 196.191Z" fill="url(#paint10_linear)"/>
<path d="M454.342 196.868H380.393C380.393 196.772 380.393 196.675 380.393 196.578C380.393 195.804 381.07 195.029 382.232 194.449C383.393 193.868 385.039 193.577 386.781 193.577C387.071 193.577 387.459 193.577 387.749 193.577C388.62 192.706 389.975 191.932 391.717 191.448C393.46 190.964 395.492 190.674 397.525 190.674C398.009 190.674 398.396 190.674 398.88 190.674C400.138 189.415 402.171 188.254 404.688 187.576C407.204 186.802 410.205 186.512 413.205 186.512C416.206 186.608 419.11 187.092 421.433 187.867C423.852 188.738 425.691 189.899 426.659 191.254C428.208 190.867 429.95 190.674 431.692 190.674C434.015 190.674 436.242 191.061 438.178 191.738C440.017 192.416 441.372 193.287 442.049 194.352C443.211 194.061 444.469 193.868 445.727 193.771C447.082 193.771 448.341 193.868 449.599 194.061C450.761 194.352 451.825 194.739 452.696 195.223C453.567 195.707 454.051 196.288 454.342 196.868Z" fill="url(#paint11_linear)"/>
<path opacity="0.6" d="M401.203 194.642H343.418C343.515 194.352 343.709 194.158 343.999 193.868C344.289 193.674 344.773 193.481 345.354 193.287C345.935 193.094 346.516 192.997 347.193 192.997C347.871 192.9 348.548 192.9 349.226 192.997C349.903 192.416 350.968 191.932 352.323 191.642C353.678 191.351 355.227 191.158 356.872 191.158C357.259 191.158 357.55 191.158 357.937 191.158C358.905 190.383 360.454 189.706 362.486 189.222C364.519 188.738 366.842 188.544 369.165 188.544C371.488 188.544 373.811 188.835 375.65 189.415C377.489 189.996 378.941 190.674 379.715 191.545C380.78 191.351 382.038 191.158 383.297 191.158C384.555 191.158 385.813 191.254 386.975 191.448C388.136 191.642 389.201 191.932 389.975 192.222C390.846 192.61 391.427 192.997 391.814 193.481C392.589 193.287 393.556 193.19 394.524 193.094C395.492 193.094 396.46 193.094 397.331 193.19C398.202 193.287 399.074 193.481 399.751 193.771C400.332 194.061 400.816 194.352 401.203 194.642Z" fill="url(#paint12_linear)"/>
<path opacity="0.8" d="M265.307 277.787H249.627C249.433 277.303 248.852 276.915 248.078 276.528C247.304 276.141 246.239 275.851 245.077 275.657C243.916 275.464 242.658 275.367 241.399 275.367C240.141 275.367 238.883 275.56 237.818 275.851C237.14 275.076 235.882 274.302 234.043 273.818C232.204 273.334 230.075 273.044 227.848 273.044C226.203 273.044 224.461 273.237 223.009 273.528C222.041 272.463 220.299 271.592 217.976 270.914C215.653 270.237 212.846 269.85 210.039 269.85C207.135 269.85 204.328 270.043 201.811 270.624C199.392 271.205 197.456 272.076 196.197 273.044C195.81 273.044 195.326 273.044 194.939 273.044C193.003 273.044 190.971 273.237 189.325 273.624C187.68 274.012 186.325 274.592 185.454 275.27C185.163 275.27 184.776 275.27 184.486 275.27C182.84 275.27 181.291 275.56 180.13 275.947C178.968 276.431 178.291 277.012 178.291 277.593C178.291 277.69 178.291 277.69 178.291 277.787H163.191C162.707 277.303 162.611 276.722 162.804 276.238C162.998 275.754 163.578 275.173 164.353 274.786C165.127 274.399 166.289 274.012 167.547 273.721C168.805 273.431 170.16 273.334 171.612 273.334C172.096 273.334 172.58 273.334 173.064 273.334C174.226 272.366 176.161 271.495 178.581 270.914C181.001 270.334 183.808 270.043 186.615 270.043C187.196 270.043 187.873 270.043 188.454 270.043C190.196 268.591 192.906 267.43 196.488 266.559C199.972 265.784 204.134 265.3 208.2 265.397C212.362 265.494 216.33 265.978 219.621 266.946C222.912 267.914 225.429 269.172 226.881 270.624C228.816 270.237 231.043 270.043 233.172 269.946C235.398 269.946 237.624 270.043 239.657 270.43C241.69 270.721 243.529 271.205 244.981 271.882C246.432 272.463 247.594 273.237 248.175 274.012C249.917 273.624 251.853 273.431 253.789 273.334C255.821 273.334 257.757 273.528 259.499 273.915C261.242 274.302 262.694 274.786 263.758 275.464C264.823 276.335 265.307 277.012 265.307 277.787Z" fill="url(#paint13_linear)"/>
<path d="M249.917 278.464H175.968C175.968 278.367 175.968 278.27 175.968 278.174C175.968 277.399 176.645 276.625 177.807 276.044C178.968 275.464 180.614 275.173 182.356 275.173C182.647 275.173 183.034 275.173 183.324 275.173C184.195 274.302 185.55 273.528 187.293 273.044C189.035 272.56 191.067 272.269 193.1 272.269C193.584 272.269 193.971 272.269 194.455 272.269C195.713 271.011 197.746 269.85 200.263 269.172C202.779 268.398 205.78 268.107 208.78 268.107C211.781 268.204 214.685 268.688 217.008 269.462C219.428 270.334 221.267 271.495 222.234 272.85C223.783 272.463 225.525 272.269 227.268 272.269C229.591 272.269 231.817 272.657 233.753 273.334C235.592 274.012 236.947 274.883 237.624 275.947C238.786 275.657 240.044 275.463 241.303 275.367C242.658 275.367 243.916 275.463 245.174 275.657C246.336 275.947 247.4 276.335 248.272 276.819C249.143 277.303 249.723 277.883 249.917 278.464Z" fill="url(#paint14_linear)"/>
<path opacity="0.6" d="M196.778 276.335H138.993C139.09 276.044 139.284 275.851 139.574 275.56C139.864 275.367 140.348 275.173 140.929 274.98C141.51 274.786 142.091 274.689 142.768 274.689C143.446 274.592 144.123 274.592 144.801 274.689C145.478 274.108 146.543 273.625 147.898 273.334C149.253 273.044 150.802 272.85 152.447 272.85C152.835 272.85 153.125 272.85 153.512 272.85C154.48 272.076 156.029 271.398 158.061 270.914C160.094 270.43 162.417 270.237 164.74 270.237C167.063 270.237 169.386 270.527 171.225 271.108C173.064 271.592 174.516 272.366 175.29 273.237C176.355 273.044 177.613 272.85 178.872 272.85C180.13 272.85 181.388 272.947 182.55 273.141C183.711 273.334 184.776 273.625 185.55 273.915C186.421 274.302 187.002 274.689 187.389 275.173C188.164 274.98 189.132 274.883 190.1 274.786C191.067 274.786 192.035 274.786 192.907 274.883C193.778 274.98 194.649 275.173 195.326 275.464C195.907 275.657 196.391 275.948 196.778 276.335Z" fill="url(#paint15_linear)"/>
<path opacity="0.8" d="M557.135 249.233C557.135 250.104 556.845 250.975 556.264 251.846H531.195C531.098 250.394 529.84 249.039 527.613 247.975C525.484 247.007 522.58 246.426 519.483 246.426C518.902 246.426 518.225 246.426 517.644 246.523C515.902 244.684 512.998 243.232 509.32 242.264C505.642 241.296 501.48 240.909 497.414 241.199C495.188 238.779 491.51 236.843 486.864 235.488C482.218 234.133 476.894 233.456 471.377 233.553C465.957 233.649 460.73 234.52 456.375 236.069C452.019 237.618 448.728 239.747 446.889 242.264C444.082 241.586 440.888 241.199 437.694 241.199C433.435 241.199 429.37 241.877 425.885 243.038C422.497 244.296 419.981 245.942 418.819 247.878C416.883 247.297 414.657 246.91 412.431 246.813C410.205 246.716 407.882 246.813 405.752 247.2C403.623 247.587 401.687 248.168 400.138 249.039C398.59 249.814 397.428 250.782 396.847 251.846H365.196C365.196 250.007 366.164 248.265 368.1 246.716C370.036 245.168 372.746 243.909 376.037 243.038C379.328 242.167 383.006 241.683 386.781 241.78C390.556 241.78 394.234 242.361 397.331 243.329C398.493 241.393 400.526 239.65 403.332 238.199C406.139 236.747 409.527 235.585 413.302 234.811C417.077 234.037 421.239 233.649 425.401 233.746C429.563 233.843 433.628 234.327 437.21 235.295C439.823 231.81 444.566 228.713 450.761 226.584C456.955 224.357 464.408 223.099 472.152 223.002C479.895 222.809 487.542 223.777 494.123 225.712C500.705 227.648 505.932 230.552 509.126 233.843C510.288 233.746 511.449 233.746 512.611 233.746C517.934 233.746 523.161 234.52 527.613 235.876C532.066 237.231 535.647 239.166 537.97 241.49C538.841 241.393 539.712 241.393 540.584 241.393C542.713 241.393 544.939 241.586 546.972 241.973C549.005 242.361 550.844 242.941 552.392 243.716C553.941 244.49 555.102 245.361 555.974 246.329C556.651 247.103 557.135 248.168 557.135 249.233Z" fill="url(#paint16_linear)"/>
<path d="M531.098 251.846H396.847C397.525 250.782 398.59 249.814 400.138 249.039C401.687 248.265 403.623 247.587 405.752 247.2C407.882 246.813 410.205 246.619 412.431 246.813C414.657 246.91 416.883 247.297 418.819 247.878C419.981 245.942 422.497 244.2 425.885 243.038C429.273 241.78 433.435 241.199 437.694 241.199C440.888 241.199 444.082 241.586 446.889 242.264C448.728 239.844 452.019 237.618 456.375 236.069C460.73 234.52 465.957 233.649 471.377 233.553C476.798 233.456 482.218 234.133 486.864 235.488C491.51 236.843 495.188 238.876 497.414 241.199C501.576 240.909 505.738 241.296 509.32 242.264C512.998 243.232 515.902 244.684 517.644 246.523C518.225 246.523 518.902 246.426 519.483 246.426C522.484 246.426 525.387 247.007 527.613 247.975C529.743 248.942 531.001 250.394 531.098 251.846Z" fill="#E6E7E8"/>
<path opacity="0.6" d="M573.202 246.813H478.733C479.217 246.039 479.992 245.361 481.056 244.877C482.121 244.297 483.476 243.909 485.025 243.619C486.477 243.329 488.122 243.232 489.768 243.329C491.316 243.425 492.865 243.619 494.22 244.006C495.091 242.651 496.834 241.393 499.253 240.618C501.673 239.844 504.577 239.263 507.577 239.263C509.804 239.263 512.03 239.554 514.062 240.038C515.321 238.295 517.644 236.844 520.741 235.682C523.838 234.617 527.517 233.94 531.291 233.843C535.163 233.746 538.938 234.23 542.132 235.198C545.423 236.166 547.94 237.521 549.585 239.263C552.489 239.07 555.393 239.36 558.006 240.038C560.523 240.715 562.652 241.78 563.814 243.038C564.201 243.038 564.685 242.941 565.072 243.038C567.201 243.038 569.234 243.425 570.783 244.103C572.234 244.78 573.106 245.748 573.202 246.813Z" fill="white"/>
<path opacity="0.8" d="M308.863 184.866C308.863 185.641 308.573 186.512 307.992 187.286H283.02C282.923 185.931 281.665 184.673 279.439 183.705C277.309 182.737 274.405 182.253 271.405 182.253C270.824 182.253 270.147 182.253 269.566 182.35C267.824 180.704 264.92 179.252 261.339 178.381C257.757 177.51 253.498 177.123 249.433 177.316C247.207 175.09 243.529 173.251 238.883 171.993C234.237 170.735 228.913 170.057 223.493 170.154C218.072 170.251 212.846 171.122 208.49 172.477C204.134 173.929 200.844 175.865 199.004 178.188C196.197 177.51 193.1 177.123 189.906 177.123C185.647 177.123 181.582 177.704 178.194 178.865C174.806 180.027 172.29 181.575 171.128 183.414C169.193 182.834 167.063 182.543 164.74 182.446C162.514 182.35 160.191 182.446 158.061 182.834C155.932 183.221 153.996 183.802 152.544 184.479C150.996 185.253 149.834 186.125 149.253 187.092H117.602C117.602 185.447 118.57 183.802 120.506 182.35C122.442 180.898 125.152 179.736 128.346 178.865C131.637 178.091 135.315 177.607 138.993 177.704C142.768 177.704 146.35 178.188 149.544 179.156C150.705 177.413 152.738 175.768 155.545 174.413C158.255 173.058 161.74 171.993 165.514 171.219C169.289 170.541 173.451 170.154 177.517 170.251C181.679 170.347 185.647 170.831 189.325 171.703C191.939 168.412 196.585 165.605 202.779 163.572C208.974 161.539 216.427 160.378 224.074 160.184C231.817 160.087 239.367 160.959 245.949 162.701C252.53 164.54 257.757 167.153 260.951 170.347C262.113 170.251 263.274 170.251 264.436 170.251C269.759 170.251 274.889 170.928 279.439 172.186C283.891 173.445 287.472 175.284 289.699 177.413C290.57 177.316 291.441 177.316 292.312 177.316C294.441 177.316 296.668 177.51 298.603 177.897C300.636 178.284 302.475 178.768 303.927 179.543C305.476 180.22 306.637 181.091 307.508 181.962C308.476 182.93 308.863 183.898 308.863 184.866Z" fill="url(#paint17_linear)"/>
<path d="M283.02 187.286H149.253C149.931 186.318 150.996 185.447 152.544 184.673C154.093 183.898 156.029 183.318 158.061 183.027C160.191 182.64 162.417 182.543 164.74 182.64C166.966 182.737 169.193 183.027 171.128 183.608C172.29 181.769 174.806 180.22 178.194 179.059C181.582 177.897 185.647 177.316 189.906 177.316C193.1 177.316 196.197 177.704 199.004 178.381C200.844 176.058 204.134 174.122 208.49 172.67C212.846 171.218 218.073 170.444 223.493 170.347C228.913 170.251 234.237 170.831 238.883 172.186C243.529 173.445 247.11 175.284 249.433 177.51C253.498 177.316 257.757 177.607 261.339 178.575C264.92 179.446 267.824 180.898 269.566 182.543C270.147 182.543 270.824 182.446 271.405 182.446C274.405 182.446 277.309 182.93 279.439 183.898C281.665 184.673 282.923 185.931 283.02 187.286Z" fill="#E6E7E8"/>
<path opacity="0.6" d="M322.124 184.285H244.4C244.787 183.511 245.465 182.834 246.336 182.35C247.207 181.769 248.368 181.382 249.53 181.091C250.788 180.801 252.046 180.704 253.402 180.801C254.757 180.898 256.015 181.091 257.08 181.478C257.757 180.123 259.209 178.865 261.145 178.091C263.081 177.22 265.501 176.736 267.92 176.736C269.759 176.736 271.598 177.026 273.244 177.51C274.309 175.768 276.244 174.316 278.761 173.154C281.278 171.993 284.278 171.412 287.472 171.315C290.57 171.219 293.764 171.702 296.377 172.67C299.087 173.638 301.217 174.993 302.475 176.736C304.895 176.542 307.315 176.832 309.347 177.51C311.477 178.188 313.122 179.252 314.187 180.511C314.574 180.511 314.865 180.414 315.252 180.511C316.994 180.511 318.639 180.898 319.898 181.575C321.35 182.35 322.027 183.318 322.124 184.285Z" fill="white"/>
<path opacity="0.8" d="M501.673 119.241C501.673 120.016 501.48 120.79 500.996 121.467H481.734C481.637 120.209 480.669 119.048 479.024 118.176C477.378 117.305 475.152 116.821 472.829 116.821C472.345 116.821 471.861 116.821 471.377 116.918C470.022 115.37 467.796 114.111 464.989 113.24C462.182 112.369 458.988 112.079 455.794 112.272C454.051 110.24 451.245 108.497 447.663 107.336C444.082 106.174 440.017 105.594 435.758 105.69C431.596 105.787 427.531 106.561 424.24 107.82C420.852 109.175 418.335 111.014 416.883 113.047C414.754 112.466 412.334 112.079 409.818 112.079C406.527 112.079 403.429 112.659 400.816 113.724C398.202 114.789 396.267 116.241 395.396 117.886C393.944 117.402 392.201 117.112 390.459 117.015C388.717 116.918 386.975 117.015 385.329 117.402C383.684 117.693 382.232 118.273 381.07 118.951C379.909 119.628 379.038 120.5 378.554 121.371H354.162C354.162 119.822 354.936 118.37 356.388 117.015C357.84 115.66 359.97 114.595 362.486 113.821C365.003 113.047 367.81 112.659 370.714 112.756C373.617 112.756 376.424 113.24 378.844 114.014C379.715 112.369 381.361 110.917 383.393 109.659C385.523 108.401 388.136 107.433 391.04 106.755C393.944 106.077 397.138 105.787 400.332 105.884C403.526 105.981 406.623 106.368 409.43 107.239C411.463 104.238 415.044 101.625 419.787 99.786C424.53 97.947 430.337 96.7855 436.242 96.6887C442.146 96.5919 448.05 97.3662 453.084 99.0117C458.117 100.657 462.182 103.077 464.602 105.981C465.473 105.884 466.344 105.884 467.215 105.884C471.28 105.884 475.346 106.465 478.733 107.723C482.218 108.884 484.928 110.53 486.67 112.563C487.348 112.466 488.025 112.466 488.703 112.466C490.349 112.466 491.994 112.659 493.543 112.95C495.091 113.337 496.446 113.821 497.705 114.402C498.866 115.079 499.834 115.757 500.512 116.628C501.286 117.499 501.673 118.37 501.673 119.241Z" fill="url(#paint18_linear)"/>
<path d="M481.734 121.467H378.457C378.941 120.596 379.812 119.725 380.974 119.048C382.135 118.37 383.587 117.789 385.232 117.499C386.878 117.209 388.62 117.015 390.362 117.112C392.105 117.209 393.75 117.499 395.299 117.983C396.267 116.337 398.106 114.886 400.719 113.821C403.332 112.756 406.527 112.175 409.721 112.175C412.141 112.175 414.56 112.466 416.787 113.143C418.142 111.014 420.755 109.175 424.143 107.917C427.53 106.658 431.499 105.787 435.661 105.787C439.823 105.69 443.985 106.271 447.566 107.433C451.148 108.594 453.955 110.336 455.697 112.369C458.891 112.175 462.085 112.466 464.892 113.337C467.699 114.208 469.925 115.466 471.28 117.015C471.764 117.015 472.248 116.918 472.732 116.918C475.055 116.918 477.282 117.402 478.927 118.273C480.669 119.048 481.637 120.209 481.734 121.467Z" fill="#EBEBEC"/>
<path opacity="0.6" d="M514.063 117.209H441.469C441.856 116.531 442.436 116.047 443.308 115.563C444.179 115.079 445.147 114.692 446.308 114.498C447.47 114.305 448.728 114.208 449.889 114.208C451.148 114.305 452.309 114.498 453.374 114.789C454.051 113.627 455.407 112.563 457.246 111.885C459.085 111.111 461.311 110.724 463.634 110.724C465.376 110.724 467.022 110.917 468.57 111.401C469.538 109.949 471.377 108.594 473.7 107.723C476.023 106.755 478.927 106.271 481.831 106.174C484.735 106.078 487.638 106.465 490.155 107.336C492.671 108.11 494.607 109.368 495.866 110.82C498.092 110.627 500.318 110.917 502.351 111.498C504.287 112.079 505.932 112.95 506.803 114.111C507.094 114.111 507.481 114.111 507.771 114.111C509.417 114.111 510.965 114.402 512.127 115.079C513.288 115.466 513.966 116.337 514.063 117.209Z" fill="#EBEBEC"/>
<path d="M486.38 205.967H203.457V218.743H486.38V205.967Z" fill="url(#paint19_linear)"/>
<path d="M230.268 218.743H221.17V351.542H230.268V218.743Z" fill="#575859"/>
<path d="M308.67 218.743H299.571V351.542H308.67V218.743Z" fill="#231F20"/>
<path d="M389.201 218.743H380.102V351.542H389.201V218.743Z" fill="#231F20"/>
<path opacity="0.53" d="M432.951 357.35H421.529C421.239 356.672 420.852 355.995 420.271 355.511C419.69 355.027 419.013 354.543 418.238 354.349C417.464 354.059 416.69 354.059 415.915 354.059C415.141 354.155 414.367 354.349 413.689 354.736C413.399 353.768 412.915 352.897 412.14 352.22C411.463 351.445 410.592 350.865 409.624 350.477C408.656 350.09 407.591 349.897 406.527 349.993C405.462 349.993 404.494 350.284 403.526 350.768C402.848 349.025 401.687 347.477 400.041 346.412C398.396 345.347 396.557 344.67 394.621 344.573C392.685 344.476 390.749 344.96 389.007 345.928C387.362 346.896 386.007 348.348 385.232 349.993C384.942 349.993 384.652 349.897 384.361 349.897C383.006 349.897 381.651 350.284 380.586 350.961C379.425 351.639 378.554 352.607 377.973 353.768C377.392 353.672 376.811 353.672 376.231 353.865C375.65 353.962 375.166 354.252 374.682 354.543C374.198 354.833 373.811 355.317 373.617 355.801C373.327 356.285 373.133 356.769 373.133 357.35H362.293C362.099 356.769 362.002 356.091 362.002 355.511C362.002 354.736 362.196 353.962 362.486 353.284C362.777 352.607 363.26 351.929 363.841 351.445C364.422 350.865 365.1 350.477 365.874 350.187C366.648 349.897 367.423 349.703 368.197 349.703C368.487 349.703 368.874 349.703 369.165 349.8C370.133 347.961 371.585 346.412 373.52 345.444C375.456 344.476 377.586 344.089 379.812 344.283C380.973 341.863 382.909 339.733 385.329 338.378C387.749 336.927 390.556 336.249 393.46 336.346C396.363 336.443 399.074 337.41 401.397 338.959C403.72 340.605 405.462 342.734 406.43 345.347C407.785 344.67 409.237 344.283 410.785 344.186C412.334 344.089 413.883 344.379 415.238 344.96C416.69 345.541 417.948 346.412 418.916 347.477C419.981 348.542 420.658 349.8 421.142 351.252C422.304 350.574 423.659 350.187 425.014 350.187C426.369 350.187 427.724 350.477 428.982 351.155C430.241 351.832 431.209 352.704 431.886 353.865C432.564 355.027 432.951 355.995 432.951 357.35Z" fill="url(#paint20_linear)"/>
<path d="M468.57 218.743H459.472V351.542H468.57V218.743Z" fill="#5A5B5D"/>
<path d="M305.185 276.528C305.089 276.528 304.992 276.528 304.895 276.431L224.461 235.392C224.267 235.295 224.17 235.198 224.17 235.004C224.074 234.811 224.17 234.617 224.267 234.52C224.364 234.327 224.461 234.23 224.654 234.23C224.848 234.133 225.042 234.23 225.138 234.23L305.573 275.27C305.669 275.367 305.863 275.464 305.863 275.56C305.96 275.657 305.96 275.851 305.863 275.947C305.863 276.044 305.766 276.238 305.573 276.335C305.476 276.431 305.282 276.528 305.185 276.528Z" fill="#636466"/>
<path d="M224.751 276.528C224.558 276.528 224.461 276.431 224.364 276.431C224.267 276.335 224.17 276.238 224.074 276.044C224.074 275.947 224.074 275.754 224.074 275.657C224.17 275.56 224.267 275.367 224.364 275.367L304.798 234.327C304.992 234.23 305.185 234.23 305.282 234.327C305.476 234.424 305.573 234.52 305.669 234.617C305.766 234.811 305.766 234.908 305.766 235.101C305.669 235.295 305.573 235.392 305.476 235.488L225.138 276.431C225.042 276.528 224.848 276.528 224.751 276.528Z" fill="#636466"/>
<path d="M305.185 317.568C305.089 317.568 304.992 317.568 304.895 317.471L224.461 276.431C224.267 276.335 224.17 276.238 224.17 276.044C224.074 275.851 224.17 275.657 224.267 275.56C224.364 275.367 224.461 275.27 224.654 275.27C224.848 275.173 225.042 275.27 225.138 275.27L305.573 316.31C305.669 316.407 305.863 316.503 305.863 316.6C305.96 316.697 305.96 316.891 305.863 316.987C305.863 317.084 305.766 317.278 305.573 317.374C305.476 317.471 305.282 317.568 305.185 317.568Z" fill="#636466"/>
<path d="M224.751 317.568C224.558 317.568 224.461 317.568 224.364 317.471C224.267 317.375 224.17 317.278 224.074 317.084C224.074 316.987 224.074 316.794 224.074 316.697C224.074 316.6 224.267 316.407 224.364 316.407L304.798 275.367C304.992 275.27 305.185 275.27 305.282 275.367C305.476 275.464 305.573 275.56 305.669 275.657C305.766 275.851 305.766 275.948 305.766 276.141C305.669 276.335 305.573 276.432 305.476 276.528L225.138 317.471C225.042 317.471 224.848 317.568 224.751 317.568Z" fill="#636466"/>
<path d="M385.619 276.528C385.523 276.528 385.426 276.528 385.329 276.431L304.895 235.392C304.701 235.295 304.605 235.198 304.605 235.004C304.508 234.811 304.605 234.617 304.701 234.52C304.798 234.327 304.895 234.23 305.089 234.23C305.282 234.133 305.476 234.23 305.572 234.23L386.007 275.27C386.103 275.367 386.297 275.464 386.297 275.56C386.394 275.657 386.394 275.851 386.297 275.947C386.297 276.044 386.2 276.238 386.007 276.335C385.91 276.431 385.716 276.528 385.619 276.528Z" fill="#636466"/>
<path d="M305.185 276.528C304.992 276.528 304.895 276.431 304.798 276.431C304.701 276.335 304.605 276.238 304.508 276.044C304.508 275.947 304.508 275.754 304.508 275.657C304.605 275.56 304.701 275.367 304.798 275.367L385.232 234.327C385.426 234.23 385.619 234.23 385.716 234.327C385.91 234.424 386.007 234.52 386.103 234.617C386.2 234.811 386.2 234.908 386.2 235.101C386.103 235.295 386.007 235.392 385.91 235.488L305.476 276.431C305.379 276.528 305.282 276.528 305.185 276.528Z" fill="#636466"/>
<path d="M385.619 317.568C385.523 317.568 385.426 317.568 385.329 317.471L304.895 276.431C304.701 276.335 304.605 276.238 304.605 276.044C304.508 275.851 304.605 275.657 304.701 275.56C304.798 275.367 304.895 275.27 305.089 275.27C305.282 275.173 305.476 275.27 305.572 275.27L386.007 316.31C386.103 316.407 386.297 316.503 386.297 316.6C386.394 316.697 386.394 316.891 386.297 316.987C386.297 317.084 386.2 317.278 386.007 317.374C385.91 317.471 385.716 317.568 385.619 317.568Z" fill="#636466"/>
<path d="M305.185 317.568C304.992 317.568 304.895 317.568 304.798 317.471C304.701 317.375 304.605 317.278 304.508 317.084C304.508 316.987 304.508 316.794 304.508 316.697C304.605 316.6 304.701 316.407 304.798 316.407L385.232 275.367C385.426 275.27 385.619 275.27 385.716 275.367C385.91 275.464 386.007 275.56 386.103 275.657C386.2 275.754 386.2 275.948 386.2 276.141C386.103 276.335 386.007 276.432 385.91 276.528L305.476 317.471C305.379 317.471 305.282 317.568 305.185 317.568Z" fill="#636466"/>
<path d="M465.86 276.528C465.763 276.528 465.666 276.528 465.57 276.431L385.135 235.392C384.942 235.295 384.845 235.198 384.845 235.004C384.845 234.811 384.845 234.617 384.942 234.52C385.039 234.327 385.135 234.23 385.329 234.23C385.523 234.133 385.716 234.23 385.813 234.23L466.247 275.27C466.344 275.367 466.538 275.464 466.538 275.56C466.634 275.657 466.634 275.851 466.538 275.947C466.441 276.044 466.441 276.238 466.247 276.335C466.15 276.431 466.054 276.528 465.86 276.528Z" fill="#636466"/>
<path d="M385.426 276.528C385.232 276.528 385.135 276.431 385.039 276.431C384.942 276.335 384.845 276.238 384.748 276.044C384.748 275.947 384.748 275.754 384.748 275.657C384.845 275.56 384.942 275.367 385.039 275.367L465.473 234.327C465.57 234.327 465.666 234.23 465.763 234.23C465.86 234.23 465.957 234.23 466.054 234.23C466.15 234.23 466.247 234.327 466.247 234.327C466.344 234.424 466.344 234.424 466.441 234.52C466.441 234.617 466.538 234.714 466.538 234.811C466.538 234.908 466.538 235.004 466.538 235.101C466.538 235.198 466.441 235.295 466.441 235.295C466.344 235.392 466.344 235.392 466.247 235.488L385.813 276.431C385.716 276.528 385.619 276.528 385.426 276.528Z" fill="#636466"/>
<path d="M465.86 317.568C465.763 317.568 465.666 317.568 465.57 317.471L385.136 276.431C384.942 276.335 384.845 276.238 384.845 276.044C384.748 275.851 384.845 275.657 384.942 275.56C385.039 275.464 385.136 275.27 385.329 275.27C385.523 275.173 385.716 275.27 385.813 275.27L466.247 316.31C466.344 316.407 466.538 316.503 466.538 316.6C466.634 316.697 466.634 316.891 466.538 316.987C466.538 317.084 466.441 317.278 466.247 317.374C466.15 317.471 466.054 317.568 465.86 317.568Z" fill="#636466"/>
<path d="M385.426 317.568C385.232 317.568 385.135 317.471 385.039 317.471C384.942 317.374 384.845 317.278 384.748 317.084C384.748 316.987 384.748 316.794 384.748 316.697C384.845 316.6 384.942 316.407 385.039 316.407L465.473 275.367C465.666 275.27 465.86 275.27 466.054 275.27C466.247 275.367 466.344 275.463 466.441 275.56C466.538 275.754 466.538 275.851 466.538 276.044C466.441 276.238 466.344 276.335 466.247 276.431L385.813 317.471C385.716 317.471 385.619 317.568 385.426 317.568Z" fill="#636466"/>
<path d="M415.044 356.866L414.56 356.769C414.657 356.769 414.851 356.769 415.044 356.866Z" fill="url(#paint21_linear)"/>
<path d="M210.619 214.001C211.587 213.613 212.071 212.549 211.684 211.678C211.297 210.806 210.136 210.322 209.168 210.71C208.2 211.097 207.716 212.162 208.103 213.033C208.587 213.904 209.652 214.388 210.619 214.001Z" fill="url(#paint22_linear)"/>
<path d="M478.83 214.485C479.798 214.097 480.282 213.033 479.895 212.162C479.508 211.29 478.346 210.806 477.378 211.194C476.41 211.581 475.926 212.645 476.314 213.517C476.798 214.388 477.862 214.872 478.83 214.485Z" fill="url(#paint23_linear)"/>
<path opacity="0.58" d="M325.608 347.186C325.608 347.767 325.512 348.348 325.318 348.832H263.565C263.565 347.67 263.855 346.606 264.533 345.541C265.113 344.573 265.985 343.702 267.049 343.218C268.114 342.734 269.275 342.347 270.534 342.444C271.792 342.444 272.954 342.831 273.921 343.412C274.309 342.25 274.986 341.089 275.857 340.121C276.728 339.153 277.89 338.475 279.051 337.991C280.31 337.507 281.665 337.314 282.923 337.314C284.278 337.41 285.537 337.701 286.795 338.282C287.666 336.055 289.118 334.119 291.15 332.764C293.183 331.409 295.603 330.538 298.119 330.441C300.636 330.345 303.056 330.925 305.185 332.184C307.315 333.442 308.96 335.184 310.025 337.41C310.412 337.41 310.799 337.314 311.186 337.314C312.929 337.314 314.574 337.798 316.026 338.669C317.478 339.54 318.639 340.798 319.317 342.25C320.091 342.153 320.866 342.153 321.64 342.347C322.414 342.54 323.092 342.928 323.673 343.412C324.253 343.895 324.737 344.476 325.028 345.154C325.318 345.831 325.608 346.412 325.608 347.186Z" fill="url(#paint24_linear)"/>
<path opacity="0.8" d="M285.343 359.673H260.661C260.274 357.834 259.403 356.091 258.241 354.639C256.983 353.188 255.337 352.026 253.498 351.252C251.659 350.477 249.627 350.187 247.691 350.284C245.658 350.381 243.722 350.961 242.077 352.026C241.109 348.832 238.98 346.025 236.173 343.992C233.366 341.96 229.881 340.895 226.3 340.895C223.59 340.895 220.976 341.476 218.653 342.637C217.105 338.572 214.394 335.087 210.716 332.571C207.038 330.054 202.683 328.602 198.133 328.409C193.584 328.215 189.132 329.377 185.26 331.603C181.388 333.829 178.291 337.12 176.452 340.992C175.774 340.895 175.097 340.895 174.419 340.895C171.322 340.895 168.225 341.766 165.611 343.315C162.998 344.863 160.868 347.186 159.513 349.8C159.029 349.703 158.449 349.703 157.965 349.703C155.351 349.703 152.931 350.671 151.092 352.413C149.253 354.155 148.189 356.478 148.189 358.898C148.189 359.189 148.189 359.479 148.189 359.769H124.281C123.603 357.834 123.313 355.704 123.7 353.575C123.991 351.542 124.862 349.509 126.12 347.864C127.378 346.122 129.121 344.767 131.056 343.799C132.992 342.831 135.219 342.347 137.445 342.347C138.219 342.347 138.897 342.444 139.671 342.54C141.607 338.669 144.607 335.475 148.382 333.248C152.157 331.022 156.513 329.764 161.062 329.764C162.03 329.764 162.998 329.861 163.966 329.957C166.676 324.344 171.032 319.697 176.646 316.407C182.163 313.212 188.648 311.567 195.133 311.857C201.618 312.148 207.909 314.18 213.136 317.858C218.363 321.537 222.331 326.57 224.558 332.28C227.655 330.732 231.043 329.861 234.527 329.764C238.012 329.667 241.496 330.248 244.69 331.506C247.884 332.764 250.788 334.7 253.111 337.12C255.434 339.54 257.176 342.444 258.144 345.638C260.855 344.089 263.952 343.218 267.049 343.121C270.243 343.024 273.341 343.799 276.051 345.251C278.858 346.702 281.084 348.832 282.73 351.348C284.472 353.865 285.246 356.769 285.343 359.673Z" fill="url(#paint25_linear)"/>
<path opacity="0.8" d="M579.978 357.64C579.978 359.092 579.687 360.544 579.204 361.899H558.006C557.909 359.479 556.845 357.253 555.005 355.51C553.166 353.865 550.747 352.897 548.133 352.897C547.649 352.897 547.069 352.897 546.585 352.994C545.133 349.993 542.616 347.477 539.616 345.928C536.518 344.283 533.034 343.702 529.549 344.089C527.613 340.121 524.516 336.83 520.644 334.603C516.773 332.377 512.223 331.216 507.577 331.409C503.028 331.603 498.576 333.055 494.898 335.668C491.22 338.282 488.413 341.766 486.864 345.831C484.444 344.67 481.831 343.992 479.121 343.992C475.539 343.992 472.055 345.057 469.151 347.09C466.247 349.122 464.215 351.929 463.15 355.22C461.504 354.252 459.665 353.671 457.729 353.478C455.794 353.284 453.858 353.575 452.116 354.155C450.277 354.833 448.728 355.801 447.373 357.156C446.114 358.511 445.147 360.06 444.566 361.802H417.754C417.754 358.801 418.626 355.898 420.174 353.284C421.82 350.671 424.046 348.638 426.853 347.186C429.66 345.735 432.757 344.96 435.951 345.057C439.145 345.154 442.243 346.025 444.856 347.574C445.824 344.379 447.566 341.476 449.889 339.056C452.212 336.636 455.116 334.7 458.31 333.345C461.504 332.087 464.989 331.506 468.473 331.603C471.958 331.7 475.346 332.571 478.443 334.119C480.669 328.312 484.638 323.279 489.864 319.601C495.091 315.923 501.383 313.89 507.965 313.6C514.45 313.309 520.935 314.955 526.549 318.149C532.163 321.343 536.518 326.086 539.228 331.7C540.196 331.603 541.164 331.506 542.132 331.506C546.585 331.506 551.037 332.668 554.812 334.991C558.587 337.217 561.587 340.508 563.523 344.379C564.298 344.283 564.975 344.186 565.749 344.186C567.589 344.186 569.428 344.573 571.073 345.154C572.815 345.831 574.364 346.799 575.622 348.058C576.88 349.316 577.945 350.768 578.623 352.316C579.591 354.155 579.978 355.898 579.978 357.64Z" fill="url(#paint26_linear)"/>
<path d="M260.951 362.48H144.317C144.317 362.092 144.22 361.802 144.22 361.415C144.22 358.221 145.285 355.22 147.221 352.994C149.157 350.768 151.673 349.509 154.383 349.509C154.964 349.509 155.448 349.606 155.932 349.703C157.287 346.218 159.513 343.315 162.223 341.282C164.934 339.249 168.128 338.185 171.419 338.185C172.096 338.185 172.871 338.185 173.548 338.378C175.484 333.345 178.678 329.086 182.743 326.183C186.712 323.279 191.455 321.827 196.101 322.117C200.843 322.311 205.393 324.247 209.168 327.538C212.943 330.829 215.846 335.378 217.395 340.605C219.815 339.056 222.525 338.282 225.332 338.282C229.01 338.282 232.591 339.637 235.495 342.25C238.399 344.863 240.625 348.445 241.69 352.607C243.432 351.348 245.465 350.574 247.497 350.381C249.53 350.187 251.659 350.671 253.595 351.639C255.531 352.607 257.176 354.155 258.435 356.091C259.693 357.834 260.564 360.06 260.951 362.48Z" fill="url(#paint27_linear)"/>
<path d="M421.529 357.35H373.133C373.23 356.769 373.327 356.285 373.617 355.801C373.908 355.317 374.295 354.93 374.682 354.543C375.166 354.252 375.65 353.962 376.231 353.865C376.811 353.768 377.392 353.671 377.973 353.768C378.554 352.607 379.425 351.639 380.586 350.961C381.748 350.284 383.006 349.897 384.361 349.897C384.652 349.897 384.942 349.897 385.232 349.993C386.007 348.348 387.362 346.896 389.007 345.928C390.653 344.96 392.589 344.476 394.621 344.573C396.557 344.67 398.493 345.251 400.042 346.412C401.59 347.574 402.848 349.025 403.526 350.768C404.494 350.284 405.462 350.09 406.527 349.993C407.591 349.993 408.656 350.09 409.624 350.477C410.592 350.864 411.463 351.445 412.141 352.22C412.818 352.994 413.399 353.865 413.689 354.736C414.367 354.349 415.141 354.059 415.915 354.059C416.69 353.962 417.464 354.059 418.238 354.349C419.013 354.639 419.69 355.027 420.271 355.51C420.852 355.994 421.336 356.672 421.529 357.35Z" fill="url(#paint28_linear)"/>
<path opacity="0.8" d="M399.074 367.319H391.137C390.943 366.835 390.653 366.351 390.265 366.061C389.878 365.771 389.394 365.383 388.91 365.287C388.426 365.093 387.846 365.093 387.265 365.093C386.684 365.19 386.2 365.287 385.716 365.577C385.523 364.899 385.135 364.319 384.652 363.835C384.168 363.351 383.587 362.964 382.909 362.673C382.232 362.383 381.554 362.286 380.78 362.286C380.006 362.286 379.328 362.48 378.65 362.77C378.166 361.608 377.392 360.544 376.231 359.769C375.166 358.995 373.811 358.608 372.456 358.511C371.101 358.414 369.746 358.801 368.584 359.479C367.423 360.157 366.551 361.124 365.971 362.286C365.777 362.286 365.584 362.286 365.39 362.286C364.422 362.286 363.551 362.576 362.777 363.06C362.002 363.544 361.325 364.222 360.937 364.996C360.55 364.899 360.163 364.996 359.776 364.996C359.389 365.093 359.002 365.287 358.711 365.48C358.421 365.674 358.131 365.964 357.937 366.351C357.743 366.642 357.647 367.029 357.55 367.416H350.097C349.903 367.029 349.903 366.545 349.903 366.158C349.903 365.674 350 365.093 350.194 364.609C350.387 364.125 350.678 363.641 351.162 363.351C351.549 362.964 352.033 362.673 352.517 362.48C353.001 362.286 353.581 362.189 354.162 362.189C354.356 362.189 354.646 362.189 354.84 362.189C355.517 360.931 356.582 359.866 357.84 359.189C359.195 358.511 360.647 358.221 362.196 358.414C362.97 356.672 364.325 355.317 366.067 354.349C367.713 353.381 369.746 352.897 371.681 352.994C373.617 353.091 375.553 353.672 377.199 354.833C378.747 355.898 380.006 357.446 380.683 359.189C381.651 358.705 382.619 358.414 383.684 358.414C384.748 358.414 385.813 358.511 386.781 358.898C387.749 359.285 388.62 359.866 389.298 360.641C389.975 361.415 390.556 362.286 390.846 363.254C391.621 362.77 392.588 362.48 393.556 362.48C394.524 362.48 395.492 362.673 396.267 363.157C397.138 363.641 397.815 364.222 398.299 364.996C398.783 365.771 399.074 366.448 399.074 367.319Z" fill="url(#paint29_linear)"/>
<path d="M391.137 367.319H357.647C357.647 366.932 357.84 366.545 358.034 366.254C358.227 365.964 358.518 365.674 358.808 365.383C359.098 365.19 359.486 364.996 359.873 364.899C360.26 364.803 360.647 364.803 361.034 364.899C361.421 364.125 362.099 363.448 362.873 362.964C363.648 362.48 364.616 362.286 365.487 362.189C365.68 362.189 365.874 362.189 366.068 362.189C366.648 361.028 367.519 360.06 368.681 359.382C369.842 358.705 371.197 358.414 372.553 358.414C373.908 358.511 375.263 358.898 376.327 359.673C377.392 360.447 378.263 361.512 378.747 362.673C379.425 362.383 380.102 362.189 380.877 362.092C381.651 362.092 382.329 362.189 383.006 362.48C383.684 362.77 384.264 363.157 384.748 363.641C385.232 364.125 385.62 364.803 385.813 365.383C386.297 365.093 386.781 364.899 387.362 364.899C387.943 364.803 388.426 364.899 389.007 365.093C389.491 365.287 389.975 365.577 390.362 365.867C390.75 366.158 390.943 366.835 391.137 367.319Z" fill="url(#paint30_linear)"/>
<path opacity="0.79" d="M187.196 353.865H97.8568C97.9535 352.897 98.2439 351.832 98.8247 350.961C99.3086 350.09 99.9862 349.316 100.857 348.638C101.728 348.058 102.696 347.574 103.664 347.283C104.729 346.993 105.794 346.993 106.762 347.186C107.826 345.057 109.472 343.218 111.601 341.863C113.731 340.605 116.15 339.927 118.667 339.927C119.248 339.927 119.732 339.927 120.313 340.024C121.764 336.83 124.281 334.216 127.378 332.377C130.476 330.538 134.057 329.667 137.638 329.764C141.22 329.957 144.801 331.119 147.705 333.152C150.608 335.184 152.835 338.088 154.093 341.379C155.835 340.508 157.674 340.024 159.61 339.927C161.546 339.83 163.482 340.217 165.224 340.895C166.966 341.572 168.612 342.734 169.87 344.089C171.128 345.444 172.096 347.09 172.677 348.929C173.935 348.154 175.29 347.767 176.839 347.574C178.291 347.38 179.743 347.574 181.195 348.058C182.55 348.542 183.808 349.316 184.873 350.284C185.938 351.348 186.712 352.607 187.196 353.865Z" fill="url(#paint31_linear)"/>
<path opacity="0.6" d="M332.771 352.413H277.019C277.116 351.832 277.309 351.155 277.6 350.671C277.89 350.09 278.374 349.606 278.858 349.316C279.342 348.929 280.019 348.638 280.6 348.542C281.278 348.348 281.955 348.348 282.536 348.445C283.213 347.09 284.278 346.025 285.536 345.251C286.892 344.476 288.343 344.089 289.892 344.089C290.183 344.089 290.57 344.089 290.86 344.186C291.828 342.25 293.28 340.605 295.216 339.54C297.152 338.378 299.378 337.894 301.604 337.991C303.83 338.088 306.056 338.766 307.895 340.024C309.735 341.282 311.09 343.024 311.864 345.057C312.929 344.476 314.09 344.186 315.348 344.186C316.51 344.089 317.768 344.38 318.833 344.767C319.994 345.251 320.962 345.831 321.737 346.703C322.511 347.574 323.189 348.542 323.479 349.606C324.253 349.122 325.124 348.832 326.092 348.735C326.963 348.638 327.931 348.735 328.803 349.026C329.674 349.316 330.448 349.8 331.126 350.381C331.803 350.961 332.481 351.639 332.771 352.413Z" fill="url(#paint32_linear)"/>
<path opacity="0.85" d="M337.127 366.738C337.127 367.319 337.03 367.9 336.74 368.384H262.016C262.016 367.222 262.403 366.158 263.178 365.093C263.952 364.125 265.017 363.254 266.275 362.77C267.533 362.286 268.985 361.899 270.437 361.996C271.889 361.996 273.341 362.383 274.599 362.964C275.083 361.802 275.857 360.641 276.922 359.673C277.987 358.705 279.342 358.027 280.794 357.543C282.246 357.059 283.891 356.866 285.537 356.866C287.182 356.962 288.731 357.253 290.183 357.834C291.151 355.607 292.99 353.671 295.506 352.316C297.926 350.961 300.83 350.09 303.83 349.993C306.831 349.897 309.831 350.477 312.445 351.736C315.058 352.994 317.091 354.736 318.349 356.962C318.833 356.962 319.22 356.866 319.704 356.866C321.737 356.866 323.866 357.35 325.608 358.221C327.351 359.092 328.803 360.35 329.674 361.802C330.642 361.705 331.513 361.705 332.481 361.899C333.352 362.092 334.223 362.48 334.901 362.964C335.578 363.447 336.159 364.028 336.546 364.706C336.933 365.287 337.127 365.964 337.127 366.738Z" fill="#ADAFB2"/>
<path opacity="0.6" d="M345.741 371.965H278.374C278.471 371.384 278.664 370.707 279.051 370.223C279.439 369.642 279.923 369.158 280.6 368.868C281.278 368.481 281.955 368.19 282.73 368.093C283.504 367.9 284.278 367.9 285.149 367.997C285.924 366.642 287.182 365.577 288.827 364.803C290.376 364.028 292.215 363.641 294.151 363.641C294.538 363.641 294.925 363.641 295.409 363.738C296.571 361.802 298.41 360.157 300.733 359.092C303.056 357.93 305.766 357.446 308.476 357.543C311.186 357.64 313.8 358.318 316.026 359.576C318.252 360.834 319.898 362.576 320.769 364.609C322.027 364.028 323.479 363.738 324.931 363.738C326.383 363.641 327.835 363.931 329.19 364.319C330.545 364.803 331.706 365.383 332.771 366.254C333.739 367.126 334.513 368.094 334.9 369.158C335.868 368.674 336.933 368.384 337.998 368.287C339.063 368.19 340.224 368.287 341.289 368.577C342.353 368.868 343.321 369.352 344.096 369.933C344.773 370.417 345.451 371.191 345.741 371.965Z" fill="url(#paint33_linear)"/>
<path d="M558.006 361.899H444.566C445.147 360.157 446.115 358.608 447.373 357.253C448.631 355.898 450.277 354.93 452.116 354.252C453.955 353.575 455.794 353.381 457.73 353.575C459.665 353.768 461.505 354.349 463.15 355.317C464.215 352.123 466.247 349.219 469.151 347.186C472.055 345.154 475.539 344.089 479.121 344.089C481.831 344.089 484.444 344.67 486.864 345.928C488.413 341.863 491.22 338.282 494.898 335.765C498.576 333.152 503.028 331.7 507.578 331.506C512.127 331.313 516.676 332.474 520.644 334.7C524.516 336.926 527.613 340.314 529.549 344.186C533.034 343.799 536.615 344.379 539.616 346.025C542.713 347.67 545.133 350.09 546.585 353.091C547.069 352.994 547.649 352.994 548.133 352.994C550.65 352.994 553.167 353.962 555.006 355.607C556.845 357.253 557.909 359.576 558.006 361.899Z" fill="#E6E7E8"/>
<path opacity="0.74" d="M593.529 353.671H513.675C514.063 352.413 514.74 351.348 515.611 350.381C516.482 349.413 517.644 348.735 518.902 348.251C520.16 347.767 521.516 347.67 522.871 347.767C524.226 347.864 525.484 348.251 526.646 348.929C527.323 346.702 528.872 344.67 530.904 343.218C532.937 341.766 535.357 340.992 537.873 340.992C539.809 340.992 541.648 341.476 543.294 342.25C544.358 339.346 546.391 336.926 548.908 335.087C551.521 333.248 554.618 332.28 557.813 332.087C561.007 331.99 564.201 332.764 567.008 334.313C569.718 335.862 571.944 338.282 573.299 340.992C575.719 340.701 578.236 341.185 580.365 342.25C582.495 343.412 584.237 345.154 585.301 347.186C585.689 347.09 586.076 347.09 586.366 347.09C588.205 347.09 589.851 347.767 591.206 348.929C592.755 350.381 593.529 351.929 593.529 353.671Z" fill="url(#paint34_linear)"/>
<path d="M383.684 234.52C383.587 234.52 383.49 234.52 383.393 234.424L314.381 197.062C314.284 196.965 314.187 196.868 314.09 196.675C314.09 196.481 314.09 196.384 314.187 196.191C314.284 196.094 314.381 195.997 314.574 195.9C314.768 195.9 314.865 195.9 315.058 195.9L384.071 233.262C384.168 233.359 384.264 233.456 384.361 233.553C384.458 233.649 384.458 233.843 384.361 233.94C384.361 234.037 384.264 234.23 384.168 234.23C383.974 234.52 383.877 234.52 383.684 234.52Z" fill="url(#paint35_linear)"/>
<path d="M458.117 380.773V409.037L481.734 416.877V388.226L458.117 380.773Z" fill="url(#paint36_linear)"/>
<path d="M505.351 380.773V409.037L481.734 416.877V388.226L505.351 380.773Z" fill="url(#paint37_linear)"/>
<path d="M458.117 380.773L481.734 375.062L505.351 380.773L481.734 388.226L458.117 380.773Z" fill="url(#paint38_linear)"/>
<path d="M491.51 363.157V366.932L471.377 361.705H471.28C470.506 361.705 469.925 360.834 469.925 359.866C469.925 358.801 470.506 358.027 471.28 358.027L471.764 358.124L491.51 363.157Z" fill="url(#paint39_linear)"/>
<path d="M411.463 356.866L410.979 356.769C411.173 356.769 411.269 356.769 411.463 356.866Z" fill="url(#paint40_linear)"/>
<path d="M482.508 364.028H480.185V381.451H482.508V364.028Z" fill="#252324"/>
<path d="M492.865 365.093C492.865 366.158 492.284 366.932 491.51 366.932C490.736 366.932 490.155 366.061 490.155 365.093C490.155 364.028 490.736 363.254 491.51 363.254C492.284 363.254 492.865 364.028 492.865 365.093Z" fill="#100C14"/>
<path d="M482.508 381.548C482.508 381.644 482.024 381.741 481.347 381.741C480.669 381.741 480.185 381.644 480.185 381.548C480.185 381.451 480.669 381.354 481.347 381.354C482.024 381.257 482.508 381.354 482.508 381.548Z" fill="#231F20"/>
<path d="M234.043 389.291V418.135L258.048 395.195V370.997L234.043 389.291Z" fill="url(#paint41_linear)"/>
<path d="M234.043 389.291H196.585V418.135H234.043V389.291Z" fill="#00ADEF"/>
<path d="M241.012 370.997H258.048L234.043 389.291H189.228L203.167 370.997H241.012Z" fill="url(#paint42_linear)"/>
<path d="M212.846 355.995L243.916 356.188L238.302 376.611L206.264 375.934L212.846 355.995Z" fill="#231F20"/>
<path d="M240.335 358.705L236.173 373.707C236.173 373.901 236.076 373.998 235.882 374.095C235.785 374.191 235.689 374.288 235.592 374.288C235.495 374.288 235.301 374.385 235.205 374.385L210.716 373.804C210.523 373.804 210.426 373.804 210.329 373.707C210.232 373.611 210.039 373.514 210.039 373.417C209.942 373.32 209.942 373.127 209.845 373.03C209.845 372.836 209.845 372.74 209.845 372.546L214.685 358.027C214.782 357.834 214.782 357.737 214.975 357.64C215.072 357.543 215.169 357.446 215.266 357.446C215.362 357.446 215.459 357.35 215.653 357.35L239.464 357.446C239.657 357.446 239.754 357.446 239.851 357.543C239.947 357.64 240.141 357.737 240.141 357.834C240.141 357.93 240.335 358.124 240.335 358.221C240.431 358.414 240.431 358.608 240.335 358.705Z" fill="url(#paint43_linear)"/>
<path opacity="0.54" d="M240.335 358.705L236.173 373.707C236.173 373.901 236.076 373.998 235.882 374.095L214.878 357.64C214.975 357.543 215.072 357.446 215.169 357.446C215.265 357.446 215.362 357.35 215.556 357.35L239.367 357.446C239.56 357.446 239.657 357.446 239.754 357.543C239.851 357.64 240.044 357.737 240.044 357.834C240.141 357.93 240.238 358.124 240.238 358.221C240.238 358.318 240.431 358.608 240.335 358.705Z" fill="url(#paint44_linear)"/>
<path d="M384.942 163.378C384.942 176.058 384.071 188.835 382.232 201.418C382.135 202.095 382.038 202.869 381.941 203.547C381.554 205.967 381.167 208.387 380.78 210.806C380.199 214.194 379.522 217.485 378.844 220.679C378.65 221.55 378.457 222.421 378.263 223.293C378.167 223.68 378.07 224.164 377.973 224.551C377.876 224.938 377.779 225.422 377.683 225.809C377.489 226.68 377.295 227.455 377.102 228.326C376.327 231.617 375.456 234.908 374.585 237.908C374.392 238.682 374.198 239.36 374.004 240.038C372.262 246.232 370.326 251.943 368.487 257.073C361.615 276.141 355.227 287.175 355.227 287.175C355.227 287.175 354.452 288.046 349.322 289.401C347.096 289.982 345.548 290.369 344.58 290.563C344.386 290.563 344.193 290.66 344.096 290.66C343.902 290.66 343.709 290.66 343.515 290.563C342.547 290.369 340.998 290.079 338.772 289.401C333.642 288.046 332.868 287.175 332.868 287.175C332.868 287.175 326.48 276.141 319.607 256.976C311.574 234.424 306.444 210.903 304.314 186.995C303.637 179.446 303.25 171.606 303.25 163.378C303.25 154.957 303.733 146.536 304.701 138.212C310.219 90.0099 330.254 58.3589 339.643 45.7759C342.644 35.9999 343.612 31.0635 343.902 29.2245C343.902 29.2245 343.902 29.1277 343.999 29.1277H344.096H344.193C344.193 29.1277 344.193 29.2245 344.289 29.2245C344.483 30.0956 344.773 31.5475 345.354 33.8705C346.032 36.5807 347 40.5491 348.548 45.7759C359.582 60.3915 384.942 101.044 384.942 163.378Z" fill="url(#paint45_linear)"/>
<path d="M319.801 256.879L301.314 274.883L290.957 285.046V239.166L296.571 233.456L309.541 220.486C312.154 232.875 315.542 245.071 319.801 256.879Z" fill="url(#paint46_linear)"/>
<path d="M397.428 239.166V285.046L368.584 256.976C372.843 245.071 376.231 232.972 378.844 220.582L397.428 239.166Z" fill="url(#paint47_linear)"/>
<path d="M386.2 261.816C386.2 286.691 396.363 304.114 396.363 304.114C396.944 304.501 397.622 304.791 398.396 304.888C399.17 305.082 399.654 305.179 400.041 305.275C400.138 305.275 400.332 305.275 400.429 305.275C400.719 305.179 401.3 305.082 402.074 304.888C402.752 304.791 403.429 304.501 404.107 304.114C404.107 304.114 414.27 286.691 414.27 261.816C414.27 245.264 409.043 233.165 404.881 226.196L403.623 224.454C403.236 223.873 402.752 223.486 402.171 223.196C401.59 222.905 400.913 222.712 400.332 222.712C399.654 222.712 399.074 222.905 398.493 223.196C397.912 223.486 397.428 223.97 397.041 224.454L395.783 226.196C391.427 233.069 386.2 245.168 386.2 261.816Z" fill="url(#paint48_linear)"/>
<path d="M342.644 143.052V192.319H334.223C324.157 192.319 314.187 190.577 304.798 187.092L304.508 186.996C304.411 186.415 304.411 185.931 304.411 185.35C313.122 188.254 322.221 189.706 331.416 189.706H339.934V143.052H342.644Z" fill="url(#paint49_linear)"/>
<path d="M339.837 143.052V189.706H331.416C322.221 189.706 313.122 188.254 304.411 185.35C303.83 178.284 303.54 170.928 303.54 163.378C303.54 154.957 304.024 146.537 304.992 138.212L309.057 139.471C317.091 141.891 325.318 143.149 333.739 143.149L339.837 143.052Z" fill="url(#paint50_linear)"/>
<path d="M342.644 192.222L339.837 189.706V143.052H342.644V192.222Z" fill="#6F7173"/>
<path d="M311.864 147.698H311.767C311.09 147.698 310.606 148.279 310.606 148.859V155.538C310.606 156.216 311.186 156.7 311.767 156.7H311.864C312.542 156.7 313.026 156.119 313.026 155.538V148.859C313.122 148.279 312.542 147.698 311.864 147.698Z" fill="url(#paint51_linear)"/>
<path d="M331.513 147.698H331.416C330.738 147.698 330.254 148.279 330.254 148.859V155.538C330.254 156.216 330.835 156.7 331.416 156.7H331.513C332.19 156.7 332.674 156.119 332.674 155.538V148.859C332.771 148.279 332.19 147.698 331.513 147.698Z" fill="url(#paint52_linear)"/>
<path d="M318.349 153.989C319.22 153.602 319.607 152.634 319.22 151.763C318.833 150.892 317.865 150.505 316.994 150.892C316.123 151.279 315.736 152.247 316.123 153.118C316.51 153.893 317.478 154.377 318.349 153.989Z" fill="url(#paint53_linear)"/>
<path d="M326.383 153.989C327.254 153.602 327.641 152.634 327.254 151.763C326.867 150.892 325.899 150.505 325.028 150.892C324.157 151.279 323.769 152.247 324.157 153.118C324.544 153.893 325.512 154.377 326.383 153.989Z" fill="url(#paint54_linear)"/>
<path d="M313.897 180.22C313.897 180.511 313.8 180.898 313.606 181.188C313.413 181.478 313.122 181.672 312.832 181.769C312.542 181.866 312.154 181.962 311.864 181.866C311.574 181.769 311.283 181.672 310.993 181.382C310.799 181.188 310.606 180.898 310.509 180.511C310.412 180.22 310.509 179.833 310.606 179.543C310.702 179.252 310.993 178.962 311.186 178.768C311.477 178.575 311.767 178.478 312.154 178.478C312.348 178.478 312.638 178.478 312.832 178.575C313.025 178.671 313.219 178.768 313.413 178.962C313.606 179.155 313.703 179.252 313.8 179.543C313.897 179.736 313.897 179.93 313.897 180.22Z" fill="url(#paint55_linear)"/>
<path d="M332.771 180.414C332.965 179.543 332.287 178.671 331.416 178.478C330.545 178.284 329.674 178.962 329.48 179.833C329.286 180.704 329.964 181.575 330.835 181.769C331.706 181.962 332.577 181.382 332.771 180.414Z" fill="url(#paint56_linear)"/>
<path d="M323.285 180.414C323.479 179.543 322.802 178.671 321.93 178.478C321.059 178.284 320.188 178.962 319.995 179.833C319.801 180.704 320.479 181.575 321.35 181.769C322.318 181.962 323.189 181.382 323.285 180.414Z" fill="url(#paint57_linear)"/>
<path d="M317.284 161.055V166.572C317.284 166.863 317.188 167.153 316.897 167.444C316.704 167.637 316.413 167.831 316.026 167.831H310.509V168.895H317.091C317.381 168.895 317.672 168.799 317.962 168.508C318.155 168.315 318.349 168.024 318.349 167.637V161.055H317.284Z" fill="url(#paint58_linear)"/>
<path d="M332.771 167.637H325.802C325.415 167.637 325.028 167.831 324.834 168.024C324.544 168.315 324.447 168.702 324.447 168.992V176.445H325.512V170.154C325.512 169.767 325.705 169.379 325.899 169.186C326.189 168.896 326.576 168.799 326.867 168.799H332.771V167.637Z" fill="url(#paint59_linear)"/>
<path d="M319.898 173.348H312.541C312.445 173.348 312.348 173.251 312.251 173.251C312.154 173.154 312.154 173.058 312.154 172.961C312.154 172.864 312.154 172.767 312.251 172.67C312.348 172.574 312.445 172.574 312.541 172.574H319.898C320.188 172.574 320.478 172.477 320.672 172.283C320.866 172.09 320.962 171.799 320.962 171.509V166.088C320.962 165.605 321.156 165.121 321.543 164.733C321.93 164.346 322.414 164.153 322.898 164.153H330.448C330.545 164.153 330.642 164.249 330.738 164.249C330.835 164.346 330.835 164.443 330.835 164.54C330.835 164.637 330.835 164.733 330.738 164.83C330.642 164.927 330.545 164.927 330.448 164.927H322.898C322.608 164.927 322.317 165.024 322.124 165.217C321.93 165.411 321.834 165.701 321.834 165.992V171.412C321.834 171.896 321.64 172.38 321.253 172.767C320.866 173.154 320.382 173.348 319.898 173.348Z" fill="url(#paint60_linear)"/>
<path d="M313.122 172.961C313.122 173.154 313.122 173.251 313.025 173.348C312.929 173.445 312.832 173.541 312.638 173.638C312.542 173.735 312.348 173.735 312.154 173.638C311.961 173.638 311.864 173.541 311.767 173.445C311.67 173.348 311.574 173.154 311.574 173.058C311.574 172.864 311.574 172.767 311.574 172.574C311.67 172.477 311.767 172.283 311.864 172.186C311.961 172.09 312.154 172.09 312.251 172.09C312.348 172.09 312.445 172.09 312.542 172.186C312.638 172.186 312.735 172.283 312.832 172.38C312.929 172.477 312.929 172.574 313.025 172.67C313.122 172.767 313.122 172.864 313.122 172.961Z" fill="url(#paint61_linear)"/>
<path d="M331.222 164.54C331.222 164.733 331.222 164.83 331.126 164.927C331.029 165.024 330.932 165.121 330.738 165.217C330.642 165.314 330.448 165.314 330.254 165.217C330.061 165.217 329.964 165.121 329.867 165.024C329.771 164.927 329.674 164.733 329.674 164.637C329.674 164.443 329.674 164.346 329.674 164.153C329.77 164.056 329.867 163.862 329.964 163.765C330.061 163.669 330.254 163.669 330.351 163.669C330.448 163.669 330.545 163.669 330.642 163.765C330.738 163.765 330.835 163.862 330.932 163.959C331.029 164.056 331.029 164.153 331.126 164.249C331.222 164.346 331.222 164.443 331.222 164.54Z" fill="url(#paint62_linear)"/>
<path d="M314.865 164.733C314.865 164.927 314.768 165.121 314.671 165.314C314.574 165.508 314.381 165.605 314.187 165.701C313.993 165.798 313.8 165.798 313.606 165.798C313.413 165.798 313.219 165.701 313.122 165.508C313.025 165.411 312.929 165.217 312.832 165.024C312.832 164.83 312.832 164.637 312.929 164.443C313.025 164.249 313.122 164.153 313.316 163.959C313.509 163.862 313.703 163.766 313.897 163.766C314.187 163.766 314.381 163.862 314.574 164.056C314.768 164.249 314.865 164.443 314.865 164.733Z" fill="url(#paint63_linear)"/>
<path d="M329.964 172.67C329.964 172.864 329.867 173.058 329.77 173.251C329.674 173.445 329.48 173.542 329.287 173.638C329.093 173.735 328.899 173.735 328.706 173.735C328.512 173.735 328.319 173.638 328.222 173.445C328.125 173.348 328.028 173.154 327.931 172.961C327.835 172.767 327.931 172.574 328.028 172.38C328.125 172.186 328.222 172.09 328.415 171.896C328.609 171.799 328.803 171.702 328.996 171.702C329.287 171.702 329.48 171.799 329.674 171.993C329.867 172.186 329.964 172.477 329.964 172.67Z" fill="url(#paint64_linear)"/>
<path d="M307.121 140.632C307.121 140.729 307.121 140.923 307.024 141.019C306.928 141.116 306.831 141.213 306.734 141.31C306.637 141.406 306.444 141.406 306.347 141.31C306.25 141.31 306.057 141.213 305.96 141.116C305.863 141.019 305.766 140.922 305.766 140.729C305.766 140.632 305.766 140.439 305.766 140.342C305.863 140.245 305.863 140.148 306.057 140.051C306.153 139.955 306.347 139.955 306.444 139.955C306.54 139.955 306.637 139.955 306.734 140.051C306.831 140.051 306.928 140.148 306.928 140.245C307.024 140.342 307.024 140.342 307.121 140.439C307.121 140.439 307.121 140.535 307.121 140.632Z" fill="url(#paint65_linear)"/>
<path d="M338.385 144.988C338.385 145.085 338.385 145.278 338.288 145.375C338.191 145.472 338.095 145.569 337.998 145.665C337.901 145.762 337.707 145.762 337.611 145.665C337.514 145.665 337.32 145.569 337.223 145.472C337.127 145.375 337.03 145.278 337.03 145.085C337.03 144.988 337.03 144.794 337.03 144.697C337.127 144.601 337.127 144.504 337.32 144.407C337.417 144.31 337.514 144.31 337.707 144.31C337.901 144.31 338.095 144.407 338.191 144.504C338.385 144.601 338.385 144.794 338.385 144.988Z" fill="url(#paint66_linear)"/>
<path d="M338.869 187.867C338.869 187.963 338.869 188.157 338.869 188.254C338.869 188.351 338.772 188.544 338.675 188.544C338.579 188.641 338.482 188.738 338.288 188.738C338.191 188.738 337.998 188.738 337.901 188.641C337.804 188.544 337.707 188.447 337.611 188.351C337.514 188.254 337.514 188.06 337.514 187.963C337.514 187.867 337.611 187.673 337.611 187.576C337.707 187.48 337.804 187.383 337.901 187.383C338.095 187.286 338.288 187.383 338.385 187.383C338.675 187.576 338.772 187.673 338.869 187.867Z" fill="url(#paint67_linear)"/>
<path d="M306.347 184.092C306.347 184.189 306.347 184.382 306.25 184.479C306.153 184.576 306.056 184.673 305.96 184.769C305.863 184.866 305.669 184.866 305.572 184.769C305.476 184.769 305.282 184.673 305.185 184.576C305.089 184.479 304.992 184.382 304.992 184.189C304.992 184.092 304.992 183.898 304.992 183.801C305.088 183.705 305.088 183.608 305.282 183.511C305.379 183.414 305.572 183.414 305.669 183.414C305.863 183.414 306.056 183.511 306.153 183.608C306.25 183.705 306.347 183.898 306.347 184.092Z" fill="url(#paint68_linear)"/>
<path d="M344.193 33.8705C346.419 33.8705 348.258 32.0315 348.258 29.8053C348.258 27.579 346.419 25.74 344.193 25.74C341.966 25.74 340.127 27.579 340.127 29.8053C340.224 32.1283 341.966 33.8705 344.193 33.8705Z" fill="#231F20"/>
<path d="M302.282 261.816C302.282 286.691 292.118 304.114 292.118 304.114C291.538 304.501 290.86 304.791 290.086 304.888C289.311 305.082 288.827 305.179 288.44 305.275C288.343 305.275 288.344 305.275 288.247 305.275C288.15 305.275 288.15 305.275 288.053 305.275C287.763 305.179 287.182 305.082 286.408 304.888C285.73 304.791 285.053 304.501 284.375 304.114C284.375 304.114 274.212 286.691 274.212 261.816C274.212 245.264 279.439 233.165 283.601 226.196L284.859 224.454C285.246 223.873 285.73 223.486 286.311 223.196C286.892 222.905 287.569 222.712 288.15 222.712C288.731 222.712 289.408 222.905 289.989 223.196C290.57 223.486 291.054 223.97 291.441 224.454L292.699 226.196C297.055 233.069 302.282 245.168 302.282 261.816Z" fill="url(#paint69_linear)"/>
<path d="M384.942 163.378C384.942 176.058 384.071 188.835 382.232 201.418C382.135 202.095 382.038 202.87 381.941 203.547C381.554 205.967 381.167 208.387 380.78 210.806C380.199 214.194 379.522 217.485 378.844 220.679C378.65 221.55 378.457 222.421 378.263 223.293C378.167 223.68 378.07 224.164 377.973 224.551C377.876 224.938 377.779 225.422 377.683 225.809C377.489 226.68 377.295 227.455 377.102 228.326C376.327 231.617 375.456 234.908 374.585 237.908C374.392 238.683 374.198 239.36 374.004 240.038C372.262 246.232 370.326 251.943 368.487 257.073C361.615 276.141 355.227 287.175 355.227 287.175C355.227 287.175 354.452 288.047 349.322 289.402C347.096 289.982 345.548 290.37 344.58 290.563C344.386 290.563 344.192 290.66 344.096 290.66V290.563V33.8706L345.257 33.7738C345.935 36.484 346.903 40.4525 348.451 45.6792C359.582 60.3916 384.942 101.044 384.942 163.378Z" fill="url(#paint70_linear)"/>
<path d="M356.098 263.945H350.581C349.516 263.945 348.742 264.816 348.742 265.784V271.301C348.742 272.366 349.613 273.14 350.581 273.14H356.098C357.163 273.14 357.937 272.269 357.937 271.301V265.784C358.034 264.816 357.163 263.945 356.098 263.945Z" fill="url(#paint71_linear)"/>
<path d="M355.517 268.688C355.517 269.172 355.42 269.559 355.13 269.946C354.84 270.333 354.549 270.624 354.162 270.721C353.775 270.914 353.291 270.914 352.904 270.817C352.517 270.721 352.129 270.527 351.742 270.237C351.452 269.946 351.258 269.559 351.162 269.075C351.065 268.688 351.162 268.204 351.258 267.817C351.452 267.43 351.742 267.043 352.033 266.849C352.42 266.559 352.807 266.462 353.291 266.462C353.872 266.462 354.452 266.655 354.84 267.139C355.324 267.527 355.517 268.107 355.517 268.688Z" fill="url(#paint72_linear)"/>
<path d="M355.033 118.564C361.809 111.788 361.809 100.657 355.033 93.8816C348.258 87.1062 337.127 87.1062 330.351 93.8816C323.576 100.657 323.576 111.788 330.351 118.564C337.127 125.339 348.161 125.339 355.033 118.564Z" fill="#EFEFF0"/>
<path d="M357.743 106.077C357.743 109.078 356.872 111.982 355.227 114.498C353.581 117.015 351.258 118.951 348.451 120.016C345.741 121.177 342.644 121.467 339.74 120.887C336.836 120.306 334.126 118.854 331.997 116.725C329.867 114.595 328.415 111.885 327.835 108.981C327.254 106.077 327.544 102.98 328.706 100.27C329.867 97.5598 331.803 95.14 334.223 93.4945C336.74 91.849 339.643 90.9779 342.644 90.9779C344.58 90.9779 346.612 91.3651 348.451 92.1394C350.29 92.9137 351.936 93.9785 353.388 95.4303C354.743 96.7854 355.904 98.5277 356.679 100.367C357.356 102.206 357.743 104.142 357.743 106.077Z" fill="url(#paint73_linear)"/>
<path d="M354.646 106.174C354.646 108.497 353.969 110.82 352.613 112.853C351.258 114.789 349.419 116.337 347.193 117.305C344.967 118.176 342.644 118.467 340.321 117.983C337.998 117.499 335.868 116.337 334.223 114.692C332.577 113.046 331.416 110.917 330.932 108.594C330.448 106.271 330.738 103.851 331.61 101.722C332.481 99.4956 334.029 97.6565 336.062 96.3014C337.998 94.9463 340.321 94.2688 342.741 94.2688C344.289 94.2688 345.838 94.5592 347.29 95.1399C348.742 95.7207 350.097 96.5918 351.162 97.7533C352.226 98.818 353.194 100.173 353.775 101.625C354.356 103.077 354.646 104.626 354.646 106.174Z" fill="url(#paint74_linear)"/>
<path d="M349.032 106.949C349.032 107.336 348.935 107.723 348.742 108.013C348.548 108.304 348.258 108.594 347.871 108.691C347.483 108.788 347.193 108.884 346.806 108.788C346.419 108.691 346.128 108.497 345.838 108.304C345.548 108.013 345.354 107.723 345.354 107.336C345.257 106.949 345.354 106.561 345.451 106.271C345.548 105.884 345.838 105.593 346.128 105.4C346.419 105.206 346.806 105.109 347.193 105.109C347.677 105.109 348.161 105.303 348.548 105.69C348.839 105.981 349.032 106.465 349.032 106.949Z" fill="url(#paint75_linear)"/>
<path d="M345.354 102.496C345.354 102.69 345.257 102.883 345.16 103.077C345.064 103.27 344.87 103.367 344.676 103.464C344.483 103.561 344.289 103.561 344.096 103.561C343.902 103.561 343.709 103.464 343.612 103.27C343.515 103.174 343.418 102.98 343.321 102.786C343.321 102.593 343.321 102.399 343.418 102.206C343.515 102.012 343.612 101.819 343.805 101.722C343.999 101.625 344.193 101.528 344.386 101.528C344.483 101.528 344.676 101.528 344.773 101.625C344.87 101.722 344.967 101.722 345.064 101.819C345.16 101.915 345.257 102.012 345.257 102.109C345.354 102.206 345.354 102.399 345.354 102.496Z" fill="url(#paint76_linear)"/>
<path d="M456.858 399.648C456.762 399.648 456.665 399.648 456.665 399.648C456.471 399.648 432.854 395.873 397.912 377.386C369.939 362.673 376.327 330.151 380.586 308.566C381.748 303.533 382.522 298.5 382.909 293.37C382.909 277.496 353.968 269.753 353.678 269.753C353.581 269.753 353.388 269.656 353.291 269.559C353.194 269.462 353.097 269.366 353.001 269.269C352.904 269.172 352.904 269.075 352.904 268.978C352.904 268.882 352.904 268.785 353.001 268.688C353.097 268.591 353.097 268.494 353.194 268.398C353.291 268.301 353.388 268.301 353.581 268.204C353.678 268.204 353.872 268.107 353.968 268.107C354.162 268.107 354.259 268.107 354.356 268.107C359.776 269.656 364.906 271.689 369.649 274.205C379.715 279.626 385.039 286.207 385.039 293.273C384.748 298.403 383.974 303.63 382.716 308.663C378.554 329.764 372.165 361.705 399.074 375.934C433.628 394.131 456.665 397.809 456.955 397.905C457.246 397.905 457.439 398.099 457.633 398.196C457.826 398.389 457.826 398.583 457.826 398.777C457.826 398.97 457.633 399.164 457.439 399.261C457.342 399.551 457.052 399.648 456.858 399.648Z" fill="url(#paint77_linear)"/>
<path d="M343.902 369.352C329.964 353.478 335.191 329.28 335.191 329.28C332.481 335.571 319.51 338.282 319.51 338.282C316.607 327.054 328.899 314.567 328.899 314.567C326.673 318.633 315.929 320.859 315.929 320.859C315.445 309.921 334.707 289.014 334.707 289.014C334.707 289.014 343.418 294.144 352.613 289.014C352.613 289.014 371.875 309.825 371.391 320.859C371.391 320.859 360.647 318.633 358.421 314.567C358.421 314.567 370.713 327.15 367.81 338.282C367.81 338.282 354.84 335.571 352.129 329.28C352.129 329.28 357.259 353.478 343.418 369.352" fill="#D5D7D8"/>
<path d="M344.193 362.092C331.706 347.864 336.352 326.183 336.352 326.183C333.933 331.796 322.317 334.216 322.317 334.216C319.704 324.15 330.738 312.922 330.738 312.922C328.706 316.503 319.123 318.536 319.123 318.536C318.736 308.663 335.965 289.982 335.965 289.982C335.965 289.982 343.805 294.628 352.033 289.982C352.033 289.982 369.262 308.663 368.874 318.536C368.874 318.536 359.195 316.503 357.259 312.922C357.259 312.922 368.294 324.15 365.68 334.216C365.68 334.216 354.065 331.796 351.646 326.183C351.646 326.183 356.292 347.864 343.805 362.092" fill="url(#paint78_linear)"/>
<path d="M343.902 354.543C332.868 341.863 336.933 322.698 336.933 322.698C334.804 327.731 324.447 329.861 324.447 329.861C322.124 320.956 331.9 310.986 331.9 310.986C330.158 314.18 321.543 316.019 321.543 316.019C321.156 307.308 336.546 290.757 336.546 290.757C336.546 290.757 343.515 294.822 350.774 290.757C350.774 290.757 366.067 307.308 365.777 316.019C365.777 316.019 357.259 314.277 355.42 310.986C355.42 310.986 365.196 320.956 362.873 329.861C362.873 329.861 352.517 327.731 350.387 322.698C350.387 322.698 354.452 341.96 343.418 354.543" fill="#ADAFB2"/>
<path opacity="0.72" d="M344.096 347.09C334.416 336.055 337.998 319.213 337.998 319.213C336.159 323.569 327.06 325.408 327.06 325.408C325.028 317.568 333.642 308.857 333.642 308.857C332.093 311.664 324.64 313.212 324.64 313.212C324.35 305.566 337.707 291.047 337.707 291.047C337.707 291.047 343.805 294.628 350.194 291.047C350.194 291.047 363.648 305.566 363.261 313.212C363.261 313.212 355.808 311.664 354.259 308.857C354.259 308.857 362.873 317.568 360.841 325.408C360.841 325.408 351.839 323.569 349.903 319.213C349.903 319.213 353.485 336.055 343.805 347.09" fill="#F1F2F2"/>
</g>
<defs>
<filter id="filter0_d" x="-25" y="-2" width="750" height="550" filterUnits="userSpaceOnUse" color-interpolation-filters="sRGB">
<feFlood flood-opacity="0" result="BackgroundImageFix"/>
<feColorMatrix in="SourceAlpha" type="matrix" values="0 0 0 0 0 0 0 0 0 0 0 0 0 0 0 0 0 0 127 0" result="hardAlpha"/>
<feOffset dy="25"/>
<feGaussianBlur stdDeviation="25"/>
<feColorMatrix type="matrix" values="0 0 0 0 0 0 0 0 0 0 0 0 0 0 0 0 0 0 0.25 0"/>
<feBlend mode="normal" in2="BackgroundImageFix" result="effect1_dropShadow"/>
<feBlend mode="normal" in="SourceGraphic" in2="effect1_dropShadow" result="shape"/>
</filter>
<linearGradient id="paint0_linear" x1="398.885" y1="307.353" x2="612.721" y2="307.353" gradientUnits="userSpaceOnUse">
<stop stop-color="#71439A"/>
<stop offset="0.8668" stop-color="#A76CAD"/>
</linearGradient>
<linearGradient id="paint1_linear" x1="93.9023" y1="305.679" x2="282.393" y2="305.679" gradientUnits="userSpaceOnUse">
<stop stop-color="#71439A"/>
<stop offset="0.8668" stop-color="#A76CAD"/>
</linearGradient>
<linearGradient id="paint2_linear" x1="118.041" y1="313.33" x2="254.069" y2="313.33" gradientUnits="userSpaceOnUse">
<stop stop-color="white"/>
<stop offset="0.999" stop-color="#6E6F72"/>
</linearGradient>
<linearGradient id="paint3_linear" x1="50.0898" y1="312.98" x2="156.288" y2="312.98" gradientUnits="userSpaceOnUse">
<stop stop-color="white"/>
<stop offset="0.999" stop-color="#8C8E90"/>
</linearGradient>
<linearGradient id="paint4_linear" x1="201.62" y1="139.958" x2="304.138" y2="139.958" gradientUnits="userSpaceOnUse">
<stop offset="0.001" stop-color="#C0C2D1"/>
<stop offset="1" stop-color="#C4C4C4"/>
</linearGradient>
<linearGradient id="paint5_linear" x1="214.749" y1="141.6" x2="288.733" y2="141.6" gradientUnits="userSpaceOnUse">
<stop stop-color="white"/>
<stop offset="0.999" stop-color="#EFEFF0"/>
</linearGradient>
<linearGradient id="paint6_linear" x1="177.792" y1="141.525" x2="235.551" y2="141.525" gradientUnits="userSpaceOnUse">
<stop stop-color="white"/>
<stop offset="0.999" stop-color="#E9E9EA"/>
</linearGradient>
<linearGradient id="paint7_linear" x1="269.18" y1="79.7319" x2="371.698" y2="79.7319" gradientUnits="userSpaceOnUse">
<stop offset="0.001" stop-color="#C0C2D1"/>
<stop offset="1" stop-color="#C4C4C4"/>
</linearGradient>
<linearGradient id="paint8_linear" x1="282.309" y1="81.3735" x2="356.293" y2="81.3735" gradientUnits="userSpaceOnUse">
<stop stop-color="white"/>
<stop offset="0.999" stop-color="#E6E7E8"/>
</linearGradient>
<linearGradient id="paint9_linear" x1="245.352" y1="81.2984" x2="303.111" y2="81.2984" gradientUnits="userSpaceOnUse">
<stop stop-color="white"/>
<stop offset="0.999" stop-color="#E9E9EA"/>
</linearGradient>
<linearGradient id="paint10_linear" x1="367.232" y1="190.053" x2="469.75" y2="190.053" gradientUnits="userSpaceOnUse">
<stop offset="0.001" stop-color="#C0C2D1"/>
<stop offset="1" stop-color="#C4C4C4"/>
</linearGradient>
<linearGradient id="paint11_linear" x1="380.361" y1="191.694" x2="454.345" y2="191.694" gradientUnits="userSpaceOnUse">
<stop stop-color="white"/>
<stop offset="0.999" stop-color="#E6E7E8"/>
</linearGradient>
<linearGradient id="paint12_linear" x1="343.403" y1="191.619" x2="401.163" y2="191.619" gradientUnits="userSpaceOnUse">
<stop stop-color="white"/>
<stop offset="0.999" stop-color="white"/>
</linearGradient>
<linearGradient id="paint13_linear" x1="162.808" y1="271.68" x2="265.326" y2="271.68" gradientUnits="userSpaceOnUse">
<stop offset="0.001" stop-color="#C0C2D1"/>
<stop offset="1" stop-color="#C4C4C4"/>
</linearGradient>
<linearGradient id="paint14_linear" x1="175.937" y1="273.322" x2="249.921" y2="273.322" gradientUnits="userSpaceOnUse">
<stop stop-color="white"/>
<stop offset="0.999" stop-color="#E6E7E8"/>
</linearGradient>
<linearGradient id="paint15_linear" x1="138.98" y1="273.247" x2="196.739" y2="273.247" gradientUnits="userSpaceOnUse">
<stop stop-color="white"/>
<stop offset="0.999" stop-color="white"/>
</linearGradient>
<linearGradient id="paint16_linear" x1="365.163" y1="237.289" x2="557.113" y2="237.289" gradientUnits="userSpaceOnUse">
<stop offset="0.001" stop-color="#C0C2D1"/>
<stop offset="1" stop-color="#BEBEBE"/>
</linearGradient>
<linearGradient id="paint17_linear" x1="117.635" y1="173.801" x2="308.874" y2="173.801" gradientUnits="userSpaceOnUse">
<stop offset="0.001" stop-color="#C0C2D1"/>
<stop offset="1" stop-color="#E6E7E8"/>
</linearGradient>
<linearGradient id="paint18_linear" x1="354.138" y1="109.043" x2="501.651" y2="109.043" gradientUnits="userSpaceOnUse">
<stop offset="0.001" stop-color="#C0C2D1"/>
<stop offset="1" stop-color="#DEDFE0"/>
</linearGradient>
<linearGradient id="paint19_linear" x1="203.441" y1="212.342" x2="486.353" y2="212.342" gradientUnits="userSpaceOnUse">
<stop stop-color="#6D6E71"/>
<stop offset="1" stop-color="#58595B"/>
</linearGradient>
<linearGradient id="paint20_linear" x1="362.036" y1="346.817" x2="432.984" y2="346.817" gradientUnits="userSpaceOnUse">
<stop stop-color="#71439A"/>
<stop offset="0.8668" stop-color="#A76CAD"/>
</linearGradient>
<linearGradient id="paint21_linear" x1="414.523" y1="356.828" x2="415.011" y2="356.828" gradientUnits="userSpaceOnUse">
<stop stop-color="#0010FF"/>
<stop offset="1" stop-color="#2A44FF"/>
</linearGradient>
<linearGradient id="paint22_linear" x1="208.158" y1="213.065" x2="211.654" y2="211.617" gradientUnits="userSpaceOnUse">
<stop stop-color="#E9EAFF"/>
<stop offset="1" stop-color="#E9EBFF"/>
</linearGradient>
<linearGradient id="paint23_linear" x1="476.393" y1="213.527" x2="479.889" y2="212.079" gradientUnits="userSpaceOnUse">
<stop stop-color="#E9EAFF"/>
<stop offset="1" stop-color="#E9EBFF"/>
</linearGradient>
<linearGradient id="paint24_linear" x1="263.557" y1="339.605" x2="325.601" y2="339.605" gradientUnits="userSpaceOnUse">
<stop stop-color="#71439A"/>
<stop offset="0.8668" stop-color="#A76CAD"/>
</linearGradient>
<linearGradient id="paint25_linear" x1="123.558" y1="335.739" x2="285.302" y2="335.739" gradientUnits="userSpaceOnUse">
<stop offset="0.001" stop-color="#C0C2D1"/>
<stop offset="1" stop-color="#C4C4C4"/>
</linearGradient>
<linearGradient id="paint26_linear" x1="417.814" y1="337.879" x2="579.971" y2="337.879" gradientUnits="userSpaceOnUse">
<stop offset="0.001" stop-color="#C0C2D1"/>
<stop offset="1" stop-color="#BEBEBE"/>
</linearGradient>
<linearGradient id="paint27_linear" x1="144.272" y1="342.173" x2="260.997" y2="342.173" gradientUnits="userSpaceOnUse">
<stop stop-color="white"/>
<stop offset="0.999" stop-color="#C8C9CB"/>
</linearGradient>
<linearGradient id="paint28_linear" x1="373.164" y1="350.957" x2="421.567" y2="350.957" gradientUnits="userSpaceOnUse">
<stop stop-color="white"/>
<stop offset="0.999" stop-color="#E6E7E8"/>
</linearGradient>
<linearGradient id="paint29_linear" x1="349.953" y1="360.041" x2="399.071" y2="360.041" gradientUnits="userSpaceOnUse">
<stop offset="0.001" stop-color="#C0C2D1"/>
<stop offset="1" stop-color="#BDBDBD"/>
</linearGradient>
<linearGradient id="paint30_linear" x1="357.658" y1="362.907" x2="391.167" y2="362.907" gradientUnits="userSpaceOnUse">
<stop stop-color="white"/>
<stop offset="0.999" stop-color="#E6E7E8"/>
</linearGradient>
<linearGradient id="paint31_linear" x1="97.8933" y1="341.879" x2="187.206" y2="341.879" gradientUnits="userSpaceOnUse">
<stop stop-color="#71439A"/>
<stop offset="0.8668" stop-color="#A76CAD"/>
</linearGradient>
<linearGradient id="paint32_linear" x1="277.022" y1="345.092" x2="332.777" y2="345.092" gradientUnits="userSpaceOnUse">
<stop stop-color="white"/>
<stop offset="0.999" stop-color="white"/>
</linearGradient>
<linearGradient id="paint33_linear" x1="278.352" y1="364.636" x2="345.777" y2="364.636" gradientUnits="userSpaceOnUse">
<stop stop-color="white"/>
<stop offset="0.999" stop-color="white"/>
</linearGradient>
<linearGradient id="paint34_linear" x1="513.73" y1="342.927" x2="593.576" y2="342.927" gradientUnits="userSpaceOnUse">
<stop stop-color="#71439A"/>
<stop offset="0.8668" stop-color="#A76CAD"/>
</linearGradient>
<linearGradient id="paint35_linear" x1="314.149" y1="215.259" x2="384.31" y2="215.259" gradientUnits="userSpaceOnUse">
<stop stop-color="#E9EAFF"/>
<stop offset="1" stop-color="#E9EBFF"/>
</linearGradient>
<linearGradient id="paint36_linear" x1="474.804" y1="400.294" x2="452.407" y2="392.749" gradientUnits="userSpaceOnUse">
<stop stop-color="#00BAFF"/>
<stop offset="1" stop-color="#AEE9FF"/>
</linearGradient>
<linearGradient id="paint37_linear" x1="481.757" y1="398.869" x2="505.389" y2="398.869" gradientUnits="userSpaceOnUse">
<stop stop-color="#00BAFF"/>
<stop offset="1" stop-color="#86DEFF"/>
</linearGradient>
<linearGradient id="paint38_linear" x1="458.123" y1="381.688" x2="505.389" y2="381.688" gradientUnits="userSpaceOnUse">
<stop stop-color="#00BAFF"/>
<stop offset="1" stop-color="#E9F9FF"/>
</linearGradient>
<linearGradient id="paint39_linear" x1="469.932" y1="362.504" x2="491.494" y2="362.504" gradientUnits="userSpaceOnUse">
<stop stop-color="#100C14"/>
<stop offset="1" stop-color="#424244"/>
</linearGradient>
<linearGradient id="paint40_linear" x1="410.98" y1="356.828" x2="411.439" y2="356.828" gradientUnits="userSpaceOnUse">
<stop stop-color="#0010FF"/>
<stop offset="1" stop-color="#2A44FF"/>
</linearGradient>
<linearGradient id="paint41_linear" x1="237.22" y1="399.901" x2="257.789" y2="387.462" gradientUnits="userSpaceOnUse">
<stop stop-color="#00BAFF"/>
<stop offset="1" stop-color="#A7E7FF"/>
</linearGradient>
<linearGradient id="paint42_linear" x1="189.221" y1="380.141" x2="258.04" y2="380.141" gradientUnits="userSpaceOnUse">
<stop stop-color="#00BAFF"/>
<stop offset="1" stop-color="#ABE8FF"/>
</linearGradient>
<linearGradient id="paint43_linear" x1="209.783" y1="365.871" x2="240.386" y2="365.871" gradientUnits="userSpaceOnUse">
<stop stop-color="#71439A"/>
<stop offset="0.8668" stop-color="#A76CAD"/>
</linearGradient>
<linearGradient id="paint44_linear" x1="214.917" y1="365.733" x2="240.385" y2="365.733" gradientUnits="userSpaceOnUse">
<stop stop-color="#E9EAFF"/>
<stop offset="1" stop-color="#D4DFFF"/>
</linearGradient>
<linearGradient id="paint45_linear" x1="303.486" y1="159.727" x2="384.989" y2="159.727" gradientUnits="userSpaceOnUse">
<stop stop-color="#00BAFF"/>
<stop offset="1" stop-color="#DCF6FF"/>
</linearGradient>
<linearGradient id="paint46_linear" x1="290.972" y1="252.773" x2="319.83" y2="252.773" gradientUnits="userSpaceOnUse">
<stop stop-color="#6ECFF5"/>
<stop offset="1" stop-color="#00BAFF"/>
</linearGradient>
<linearGradient id="paint47_linear" x1="368.641" y1="252.796" x2="397.462" y2="252.796" gradientUnits="userSpaceOnUse">
<stop stop-color="#00BAFF"/>
<stop offset="1" stop-color="#6ECFF6"/>
</linearGradient>
<linearGradient id="paint48_linear" x1="386.158" y1="263.984" x2="414.029" y2="263.984" gradientUnits="userSpaceOnUse">
<stop stop-color="#00BAFF"/>
<stop offset="1" stop-color="#99E3FF"/>
</linearGradient>
<linearGradient id="paint49_linear" x1="304.397" y1="167.646" x2="342.668" y2="167.646" gradientUnits="userSpaceOnUse">
<stop stop-color="#E3E3E3"/>
<stop offset="0.999" stop-color="#C1C1C1"/>
</linearGradient>
<linearGradient id="paint50_linear" x1="303.497" y1="163.939" x2="339.865" y2="163.939" gradientUnits="userSpaceOnUse">
<stop stop-color="#969797"/>
<stop offset="1" stop-color="#DEDFE0"/>
</linearGradient>
<linearGradient id="paint51_linear" x1="310.609" y1="152.252" x2="313.113" y2="152.252" gradientUnits="userSpaceOnUse">
<stop stop-color="#71439A"/>
<stop offset="0.8668" stop-color="#A76CAD"/>
</linearGradient>
<linearGradient id="paint52_linear" x1="330.245" y1="152.252" x2="332.75" y2="152.252" gradientUnits="userSpaceOnUse">
<stop stop-color="#71439A"/>
<stop offset="0.8668" stop-color="#A76CAD"/>
</linearGradient>
<linearGradient id="paint53_linear" x1="316.147" y1="153.081" x2="319.223" y2="151.799" gradientUnits="userSpaceOnUse">
<stop stop-color="#71439A"/>
<stop offset="0.8668" stop-color="#A76CAD"/>
</linearGradient>
<linearGradient id="paint54_linear" x1="324.176" y1="153.081" x2="327.251" y2="151.799" gradientUnits="userSpaceOnUse">
<stop stop-color="#71439A"/>
<stop offset="0.8668" stop-color="#A76CAD"/>
</linearGradient>
<linearGradient id="paint55_linear" x1="310.61" y1="180.183" x2="313.94" y2="180.183" gradientUnits="userSpaceOnUse">
<stop stop-color="#71439A"/>
<stop offset="0.8668" stop-color="#A76CAD"/>
</linearGradient>
<linearGradient id="paint56_linear" x1="330.817" y1="181.828" x2="331.35" y2="178.54" gradientUnits="userSpaceOnUse">
<stop stop-color="#71439A"/>
<stop offset="0.8668" stop-color="#A76CAD"/>
</linearGradient>
<linearGradient id="paint57_linear" x1="321.411" y1="181.828" x2="321.945" y2="178.54" gradientUnits="userSpaceOnUse">
<stop stop-color="#71439A"/>
<stop offset="0.8668" stop-color="#A76CAD"/>
</linearGradient>
<linearGradient id="paint58_linear" x1="310.609" y1="164.882" x2="318.373" y2="164.882" gradientUnits="userSpaceOnUse">
<stop stop-color="#71439A"/>
<stop offset="0.8668" stop-color="#A76CAD"/>
</linearGradient>
<linearGradient id="paint59_linear" x1="324.333" y1="172.038" x2="332.75" y2="172.038" gradientUnits="userSpaceOnUse">
<stop stop-color="#71439A"/>
<stop offset="0.8668" stop-color="#A76CAD"/>
</linearGradient>
<linearGradient id="paint60_linear" x1="312.13" y1="168.732" x2="330.829" y2="168.732" gradientUnits="userSpaceOnUse">
<stop stop-color="#71439A"/>
<stop offset="0.8668" stop-color="#A76CAD"/>
</linearGradient>
<linearGradient id="paint61_linear" x1="311.589" y1="172.924" x2="313.116" y2="172.924" gradientUnits="userSpaceOnUse">
<stop stop-color="white"/>
<stop offset="1" stop-color="white"/>
</linearGradient>
<linearGradient id="paint62_linear" x1="329.682" y1="164.499" x2="331.21" y2="164.499" gradientUnits="userSpaceOnUse">
<stop stop-color="white"/>
<stop offset="1" stop-color="white"/>
</linearGradient>
<linearGradient id="paint63_linear" x1="312.913" y1="164.721" x2="314.883" y2="164.721" gradientUnits="userSpaceOnUse">
<stop stop-color="#71439A"/>
<stop offset="0.8668" stop-color="#A76CAD"/>
</linearGradient>
<linearGradient id="paint64_linear" x1="328.041" y1="172.703" x2="330.012" y2="172.703" gradientUnits="userSpaceOnUse">
<stop stop-color="#71439A"/>
<stop offset="0.8668" stop-color="#A76CAD"/>
</linearGradient>
<linearGradient id="paint65_linear" x1="305.8" y1="140.591" x2="307.153" y2="140.591" gradientUnits="userSpaceOnUse">
<stop stop-color="white"/>
<stop offset="1" stop-color="white"/>
</linearGradient>
<linearGradient id="paint66_linear" x1="337.074" y1="144.954" x2="338.427" y2="144.954" gradientUnits="userSpaceOnUse">
<stop stop-color="white"/>
<stop offset="1" stop-color="white"/>
</linearGradient>
<linearGradient id="paint67_linear" x1="337.521" y1="188.096" x2="338.874" y2="188.096" gradientUnits="userSpaceOnUse">
<stop stop-color="white"/>
<stop offset="1" stop-color="white"/>
</linearGradient>
<linearGradient id="paint68_linear" x1="304.948" y1="184.046" x2="306.3" y2="184.046" gradientUnits="userSpaceOnUse">
<stop stop-color="white"/>
<stop offset="1" stop-color="white"/>
</linearGradient>
<linearGradient id="paint69_linear" x1="274.407" y1="263.984" x2="302.275" y2="263.984" gradientUnits="userSpaceOnUse">
<stop stop-color="#A8E7FF"/>
<stop offset="1" stop-color="#00BAFF"/>
</linearGradient>
<linearGradient id="paint70_linear" x1="344.238" y1="162.118" x2="384.989" y2="162.118" gradientUnits="userSpaceOnUse">
<stop stop-color="#6DD8FF"/>
<stop offset="0.189" stop-color="#7DDCFF"/>
<stop offset="0.476" stop-color="#4FCFFF"/>
<stop offset="1" stop-color="#00BAFF"/>
</linearGradient>
<linearGradient id="paint71_linear" x1="348.725" y1="268.618" x2="357.992" y2="268.618" gradientUnits="userSpaceOnUse">
<stop stop-color="#71439A"/>
<stop offset="0.8668" stop-color="#A76CAD"/>
</linearGradient>
<linearGradient id="paint72_linear" x1="351.149" y1="268.686" x2="355.56" y2="268.686" gradientUnits="userSpaceOnUse">
<stop stop-color="white"/>
<stop offset="1" stop-color="white"/>
</linearGradient>
<linearGradient id="paint73_linear" x1="327.573" y1="106.108" x2="357.765" y2="106.108" gradientUnits="userSpaceOnUse">
<stop stop-color="#71439A"/>
<stop offset="0.8668" stop-color="#A76CAD"/>
</linearGradient>
<linearGradient id="paint74_linear" x1="330.69" y1="106.201" x2="354.648" y2="106.201" gradientUnits="userSpaceOnUse">
<stop stop-color="#00BAFF"/>
<stop offset="1" stop-color="#3DCAFF"/>
</linearGradient>
<linearGradient id="paint75_linear" x1="345.334" y1="106.957" x2="349.053" y2="106.957" gradientUnits="userSpaceOnUse">
<stop stop-color="#E9EAFF"/>
<stop offset="1" stop-color="#E9EBFF"/>
</linearGradient>
<linearGradient id="paint76_linear" x1="343.3" y1="102.507" x2="345.333" y2="102.507" gradientUnits="userSpaceOnUse">
<stop stop-color="#E9EAFF"/>
<stop offset="1" stop-color="#E9EBFF"/>
</linearGradient>
<linearGradient id="paint77_linear" x1="352.872" y1="333.911" x2="457.932" y2="333.911" gradientUnits="userSpaceOnUse">
<stop stop-color="#71439A"/>
<stop offset="0.8668" stop-color="#A76CAD"/>
</linearGradient>
<linearGradient id="paint78_linear" x1="319.066" y1="326.026" x2="368.88" y2="326.026" gradientUnits="userSpaceOnUse">
<stop stop-color="#71439A"/>
<stop offset="0.8668" stop-color="#A76CAD"/>
</linearGradient>
<clipPath id="clip0">
<rect width="650" height="450" fill="white" transform="translate(25 23)"/>
</clipPath>
</defs>
</svg>
