<svg width="600" height="455" viewBox="0 0 600 455" fill="none" xmlns="http://www.w3.org/2000/svg">
<g filter="url(#filter0_d)">
<path d="M144.9 234.9L146.5 235.8C147.6 236.4 148.8 236.7 150 236.7C151.2 236.7 152.4 236.4 153.5 235.8L225.1 194.5C225.5 194.3 225.8 194 226 193.6C226.2 193.2 226.3 192.8 226.3 192.4C226.3 192 226.2 191.6 226 191.2C225.8 190.8 225.5 190.5 225.1 190.3L223.5 189.4C222.4 188.8 221.2 188.5 220 188.5C218.8 188.5 217.6 188.8 216.5 189.4L144.9 230.7C144.5 230.9 144.2 231.2 144 231.6C143.8 232 143.7 232.4 143.7 232.8C143.7 233.2 143.8 233.6 144 234C144.2 234.4 144.5 234.7 144.9 234.9Z" fill="#A9ABAE"/>
<path d="M142.6 216.9L216.3 174.4C218.5 173.1 220.4 171.2 221.7 169C223 166.8 223.7 164.2 223.7 161.6V15.9C223.7 15.2 223.5 14.4 223.1 13.8C222.7 13.2 222.2 12.6 221.5 12.2C220.9 11.8 220.1 11.6 219.4 11.6C218.7 11.6 217.9 11.8 217.3 12.2L143.6 54.8C141.4 56.1 139.5 58 138.2 60.2C136.9 62.4 136.2 65 136.2 67.6V213.3C136.2 214 136.4 214.8 136.8 215.4C137.2 216 137.7 216.6 138.4 217C139 217.4 139.8 217.6 140.5 217.6C141.2 217.5 141.9 217.3 142.6 216.9Z" fill="#00BAFF"/>
<path d="M143.3 218.9L138.6 216.8L139 214.5L146.4 215.1L143.3 218.9Z" fill="#00BAFF"/>
<path d="M221 12L226 14.2L223 17.1L219.4 13.6L221 12Z" fill="#00BAFF"/>
<path d="M147.5 219.1L221.2 176.6C223.4 175.3 225.3 173.4 226.6 171.2C227.9 169 228.6 166.4 228.6 163.8V18.1C228.6 17.4 228.4 16.6 228 16C227.6 15.4 227.1 14.8 226.4 14.4C225.8 14 225 13.8 224.3 13.8C223.6 13.8 222.8 14 222.2 14.4L148.5 57C146.3 58.3 144.4 60.2001 143.1 62.4001C141.8 64.6001 141.1 67.2001 141.1 69.8001V215.5C141.1 216.2 141.3 217 141.7 217.6C142.1 218.2 142.6 218.8 143.3 219.2C143.9 219.6 144.7 219.8 145.4 219.8C146.1 219.6 146.8 219.4 147.5 219.1Z" fill="#231F20"/>
<path d="M225.8 160.7C225.8 163.1 225.2 165.5 223.9 167.6C222.7 169.7 220.9 171.5 218.8 172.7L149.8 212.5C149.2 212.8 148.5 213 147.8 213C147.1 213 146.4 212.8 145.8 212.5C145.2 212.2 144.7 211.6 144.3 211C144 210.4 143.8 209.7 143.8 209V72.7C143.8 70.3 144.4 67.9001 145.7 65.8001C146.9 63.7001 148.7 62 150.8 60.7001L163 53.6L205 29.3L219.7 20.8C220.3 20.5 221 20.3 221.7 20.3C222.4 20.3 223.1 20.5 223.7 20.8C224.3 21.1 224.8 21.7 225.2 22.3C225.5 22.9 225.7 23.6 225.7 24.3L225.8 160.7Z" fill="#F8F8F8"/>
<path d="M205.2 28.4L202.8 38C202.7 38.5 202.4 39 202.1 39.4C201.8 39.8 201.4 40.2 200.9 40.5L171.7 57.1C171.3 57.3 170.8 57.5 170.4 57.5C169.9 57.5 169.5 57.4 169.1 57.1L162.3 53.3L205.2 28.4Z" fill="#231F20"/>
<path d="M105.7 267.7C118.3 267.7 128.5 261.8 128.5 254.5C128.5 247.2 118.3 241.3 105.7 241.3C93.0999 241.3 82.8999 247.2 82.8999 254.5C82.8999 261.8 93.0999 267.7 105.7 267.7Z" fill="#E0E0E0"/>
<path d="M144.9 69C156.7 48.5 156.7 26.4 144.9 19.5C133.1 12.7 113.9 23.7 102.1 44.2C90.3 64.7 90.3 86.8 102.1 93.7C113.9 100.6 133.1 89.5 144.9 69Z" fill="url(#paint0_linear)"/>
<path d="M105.7 265.2C118.3 265.2 128.5 259.3 128.5 252C128.5 244.7 118.3 238.8 105.7 238.8C93.0999 238.8 82.8999 244.7 82.8999 252C82.8999 259.3 93.0999 265.2 105.7 265.2Z" fill="#00BAFF"/>
<path d="M100.2 252.1C103.4 252.1 105.9 250.6 105.9 248.8C105.9 247 103.3 245.5 100.2 245.5C96.9999 245.5 94.4999 247 94.4999 248.8C94.3999 250.6 96.9999 252.1 100.2 252.1Z" fill="#FFBDCD"/>
<path d="M122.4 249.9C123.6 253.1 122.1 256.5 117.8 259C113.6 261.4 107.9 262.3 102.5 261.7C100.6 258.7 100.4 255.1 105.7 252C110.6 249.2 116.5 248.6 122.4 249.9Z" fill="#FFBDCD"/>
<path d="M105.7 263.2C118.3 263.2 128.5 257.3 128.5 250C128.5 242.7 118.3 236.8 105.7 236.8C93.0999 236.8 82.8999 242.7 82.8999 250C82.8999 257.3 93.0999 263.2 105.7 263.2Z" fill="#E0E0E0"/>
<path d="M105.7 260.7C118.3 260.7 128.5 254.8 128.5 247.5C128.5 240.2 118.3 234.3 105.7 234.3C93.0999 234.3 82.8999 240.2 82.8999 247.5C82.8999 254.8 93.0999 260.7 105.7 260.7Z" fill="#00BAFF"/>
<path d="M100.2 247.6C103.4 247.6 105.9 246.1 105.9 244.3C105.9 242.5 103.3 241 100.2 241C96.9999 241 94.4999 242.5 94.4999 244.3C94.3999 246.1 96.9999 247.6 100.2 247.6Z" fill="#FFBDCD"/>
<path d="M122.4 245.4C123.6 248.6 122.1 252 117.8 254.5C113.6 256.9 107.9 257.8 102.5 257.2C100.6 254.2 100.4 250.6 105.7 247.5C110.6 244.7 116.5 244.1 122.4 245.4Z" fill="#FFBDCD"/>
<path d="M105.7 258.7C118.3 258.7 128.5 252.8 128.5 245.5C128.5 238.2 118.3 232.3 105.7 232.3C93.0999 232.3 82.8999 238.2 82.8999 245.5C82.8999 252.8 93.0999 258.7 105.7 258.7Z" fill="#E0E0E0"/>
<path d="M105.7 256.2C118.3 256.2 128.5 250.3 128.5 243C128.5 235.7 118.3 229.8 105.7 229.8C93.0999 229.8 82.8999 235.7 82.8999 243C82.8999 250.3 93.0999 256.2 105.7 256.2Z" fill="#00BAFF"/>
<path d="M100.2 243.1C103.4 243.1 105.9 241.6 105.9 239.8C105.9 238 103.3 236.5 100.2 236.5C96.9999 236.5 94.4999 238 94.4999 239.8C94.3999 241.6 96.9999 243.1 100.2 243.1Z" fill="#FFBDCD"/>
<path d="M122.4 240.9C123.6 244.1 122.1 247.5 117.8 250C113.6 252.4 107.9 253.3 102.5 252.7C100.6 249.7 100.4 246.1 105.7 243C110.6 240.2 116.5 239.7 122.4 240.9Z" fill="#FFBDCD"/>
<path d="M105.7 254.2C118.3 254.2 128.5 248.3 128.5 241C128.5 233.7 118.3 227.8 105.7 227.8C93.0999 227.8 82.8999 233.7 82.8999 241C82.8999 248.3 93.0999 254.2 105.7 254.2Z" fill="#E0E0E0"/>
<path d="M105.7 251.7C118.3 251.7 128.5 245.8 128.5 238.5C128.5 231.2 118.3 225.3 105.7 225.3C93.0999 225.3 82.8999 231.2 82.8999 238.5C82.8999 245.8 93.0999 251.7 105.7 251.7Z" fill="#00BAFF"/>
<path d="M100.2 238.6C103.4 238.6 105.9 237.1 105.9 235.3C105.9 233.5 103.3 232 100.2 232C96.9999 232 94.4999 233.5 94.4999 235.3C94.3999 237.1 96.9999 238.6 100.2 238.6Z" fill="#FFBDCD"/>
<path d="M122.4 236.4C123.6 239.6 122.1 243 117.8 245.5C113.6 247.9 107.9 248.8 102.5 248.2C100.6 245.2 100.4 241.6 105.7 238.5C110.6 235.7 116.5 235.2 122.4 236.4Z" fill="#FFBDCD"/>
<path d="M105.7 249.7C118.3 249.7 128.5 243.8 128.5 236.5C128.5 229.2 118.3 223.3 105.7 223.3C93.0999 223.3 82.8999 229.2 82.8999 236.5C82.8999 243.8 93.0999 249.7 105.7 249.7Z" fill="#E0E0E0"/>
<path d="M105.7 247.2C118.3 247.2 128.5 241.3 128.5 234C128.5 226.7 118.3 220.8 105.7 220.8C93.0999 220.8 82.8999 226.7 82.8999 234C82.8999 241.3 93.0999 247.2 105.7 247.2Z" fill="#00BAFF"/>
<path d="M100.2 234.1C103.4 234.1 105.9 232.6 105.9 230.8C105.9 229 103.3 227.5 100.2 227.5C96.9999 227.5 94.4999 229 94.4999 230.8C94.3999 232.6 96.9999 234.1 100.2 234.1Z" fill="white"/>
<path d="M122.4 231.9C123.6 235.1 122.1 238.5 117.8 241C113.6 243.4 107.9 244.3 102.5 243.7C100.6 240.7 100.4 237.1 105.7 234C110.6 231.2 116.5 230.7 122.4 231.9Z" fill="white"/>
<path d="M129.5 227.2C131.1 220.1 122.5 212.1 110.3 209.2C98.0002 206.4 86.8002 209.8 85.1002 216.9C83.5002 224 92.1002 232 104.3 234.9C116.6 237.8 127.9 234.3 129.5 227.2Z" fill="#E0E0E0"/>
<path d="M130.1 224.8C131.7 217.7 123.1 209.7 110.9 206.8C98.5999 204 87.3998 207.4 85.6998 214.5C84.0998 221.6 92.6999 229.6 104.9 232.5C117.2 235.3 128.5 231.8 130.1 224.8Z" fill="#00BAFF"/>
<path d="M108.8 216.5C109.2 214.7 107.1 212.7 104 212C100.9 211.3 98.1002 212.1 97.7002 213.9C97.3002 215.7 99.4002 217.7 102.5 218.4C105.5 219.1 108.4 218.3 108.8 216.5Z" fill="white"/>
<path d="M124.7 221.3C125.2 224.7 122.9 227.7 118.2 229.1C113.6 230.5 107.8 230.1 102.7 228.3C101.5 224.9 102.1 221.4 108 219.6C113.3 218 119.1 218.8 124.7 221.3Z" fill="white"/>
<path d="M95.8002 292.3C103 292.3 108.9 288.9 108.9 284.7C108.9 280.5 103 277.1 95.8002 277.1C88.6002 277.1 82.7002 280.5 82.7002 284.7C82.7002 288.9 88.5002 292.3 95.8002 292.3Z" fill="#E0E0E0"/>
<path d="M95.8002 290.8C103 290.8 108.9 287.4 108.9 283.2C108.9 279 103 275.6 95.8002 275.6C88.6002 275.6 82.7002 279 82.7002 283.2C82.7002 287.4 88.5002 290.8 95.8002 290.8Z" fill="#00BAFF"/>
<path d="M92.5998 283.3C94.3998 283.3 95.8998 282.5 95.8998 281.4C95.8998 280.4 94.3998 279.5 92.5998 279.5C90.7998 279.5 89.2998 280.3 89.2998 281.4C89.2998 282.5 90.6998 283.3 92.5998 283.3Z" fill="#FFBDCD"/>
<path d="M105.3 282.1C106 283.9 105.1 285.9 102.7 287.3C100.3 288.7 97 289.2 93.9 288.9C92.8 287.2 92.7 285.1 95.7 283.3C98.5 281.7 101.9 281.4 105.3 282.1Z" fill="#FFBDCD"/>
<path d="M95.8002 289.7C103 289.7 108.9 286.3 108.9 282.1C108.9 277.9 103 274.5 95.8002 274.5C88.6002 274.5 82.7002 277.9 82.7002 282.1C82.7002 286.3 88.5002 289.7 95.8002 289.7Z" fill="#E0E0E0"/>
<path d="M95.8002 288.2C103 288.2 108.9 284.8 108.9 280.6C108.9 276.4 103 273 95.8002 273C88.6002 273 82.7002 276.4 82.7002 280.6C82.7002 284.8 88.5002 288.2 95.8002 288.2Z" fill="#00BAFF"/>
<path d="M92.5998 280.7C94.3998 280.7 95.8998 279.9 95.8998 278.8C95.8998 277.8 94.3998 276.9 92.5998 276.9C90.7998 276.9 89.2998 277.7 89.2998 278.8C89.2998 279.9 90.6998 280.7 92.5998 280.7Z" fill="#FFBDCD"/>
<path d="M105.3 279.5C106 281.3 105.1 283.3 102.7 284.7C100.3 286.1 97 286.6 93.9 286.3C92.8 284.6 92.7 282.5 95.7 280.7C98.5 279.1 101.9 278.8 105.3 279.5Z" fill="#FFBDCD"/>
<path d="M95.8002 287.1C103 287.1 108.9 283.7 108.9 279.5C108.9 275.3 103 272 95.8002 272C88.6002 272 82.7002 275.4 82.7002 279.6C82.7002 283.8 88.5002 287.1 95.8002 287.1Z" fill="#E0E0E0"/>
<path d="M95.8002 285.7C103 285.7 108.9 282.3 108.9 278.1C108.9 273.9 103 270.5 95.8002 270.5C88.6002 270.5 82.7002 273.9 82.7002 278.1C82.7002 282.3 88.5002 285.7 95.8002 285.7Z" fill="#00BAFF"/>
<path d="M92.5998 278.2C94.3998 278.2 95.8998 277.4 95.8998 276.3C95.8998 275.3 94.3998 274.4 92.5998 274.4C90.7998 274.4 89.2998 275.2 89.2998 276.3C89.2998 277.3 90.6998 278.2 92.5998 278.2Z" fill="#FFBDCD"/>
<path d="M105.3 276.9C106 278.7 105.1 280.7 102.7 282.1C100.3 283.5 97 284 93.9 283.7C92.8 282 92.7 279.9 95.7 278.1C98.5 276.5 101.9 276.2 105.3 276.9Z" fill="#FFBDCD"/>
<path d="M95.8002 284.6C103 284.6 108.9 281.2 108.9 277C108.9 272.8 103 269.4 95.8002 269.4C88.6002 269.4 82.7002 272.8 82.7002 277C82.7002 281.2 88.5002 284.6 95.8002 284.6Z" fill="#E0E0E0"/>
<path d="M95.8002 283.1C103 283.1 108.9 279.7 108.9 275.5C108.9 271.3 103 267.9 95.8002 267.9C88.6002 267.9 82.7002 271.3 82.7002 275.5C82.7002 279.7 88.5002 283.1 95.8002 283.1Z" fill="#00BAFF"/>
<path d="M92.5998 275.6C94.3998 275.6 95.8998 274.8 95.8998 273.7C95.8998 272.7 94.3998 271.8 92.5998 271.8C90.7998 271.8 89.2998 272.6 89.2998 273.7C89.2998 274.7 90.6998 275.6 92.5998 275.6Z" fill="#FFBDCD"/>
<path d="M105.3 274.3C106 276.1 105.1 278.1 102.7 279.5C100.3 280.9 97 281.4 93.9 281.1C92.8 279.4 92.7 277.3 95.7 275.5C98.5 273.9 101.9 273.6 105.3 274.3Z" fill="#FFBDCD"/>
<path d="M95.8002 282C103 282 108.9 278.6 108.9 274.4C108.9 270.2 103 266.8 95.8002 266.8C88.6002 266.8 82.7002 270.2 82.7002 274.4C82.7002 278.6 88.5002 282 95.8002 282Z" fill="#E0E0E0"/>
<path d="M95.8002 280.5C103 280.5 108.9 277.1 108.9 272.9C108.9 268.7 103 265.3 95.8002 265.3C88.6002 265.3 82.7002 268.7 82.7002 272.9C82.7002 277.1 88.5002 280.5 95.8002 280.5Z" fill="#00BAFF"/>
<path d="M92.5998 273C94.3998 273 95.8998 272.2 95.8998 271.1C95.8998 270.1 94.3998 269.2 92.5998 269.2C90.7998 269.2 89.2998 270 89.2998 271.1C89.2998 272.2 90.6998 273 92.5998 273Z" fill="white"/>
<path d="M105.3 271.7C106 273.5 105.1 275.5 102.7 276.9C100.3 278.3 97 278.8 93.9 278.5C92.8 276.8 92.7 274.7 95.7 272.9C98.5 271.4 101.9 271 105.3 271.7Z" fill="white"/>
<path d="M109.4 269.1C110.3 265 105.4 260.4 98.4001 258.8C91.4001 257.2 84.9001 259.1 84.0001 263.2C83.1001 267.3 88.0001 271.9 95.0001 273.5C102 275.1 108.5 273.1 109.4 269.1Z" fill="#E0E0E0"/>
<path d="M109.7 267.7C110.6 263.6 105.7 259 98.6999 257.4C91.6999 255.8 85.1999 257.7 84.2999 261.8C83.3999 265.9 88.2999 270.5 95.2999 272.1C102.3 273.7 108.8 271.7 109.7 267.7Z" fill="#00BAFF"/>
<path d="M97.4999 262.9C97.6999 261.9 96.4999 260.7 94.6999 260.3C92.8999 259.9 91.2999 260.4 91.0999 261.4C90.8999 262.4 92.0999 263.6 93.8999 264C95.5999 264.4 97.2999 263.9 97.4999 262.9Z" fill="white"/>
<path d="M106.6 265.7C106.9 267.6 105.6 269.4 102.8 270.2C100.2 271 96.7999 270.8 93.8999 269.7C93.1999 267.8 93.5999 265.7 96.9999 264.7C100.1 263.8 103.4 264.2 106.6 265.7Z" fill="white"/>
<path d="M259.9 180.7C268.5 180.7 275.4 176.7 275.4 171.7C275.4 166.8 268.5 162.7 259.9 162.7C251.3 162.7 244.4 166.7 244.4 171.7C244.4 176.7 251.4 180.7 259.9 180.7Z" fill="#E0E0E0"/>
<path d="M259.9 179C268.5 179 275.4 175 275.4 170C275.4 165 268.5 161 259.9 161C251.3 161 244.4 165 244.4 170C244.4 175 251.4 179 259.9 179Z" fill="#00BAFF"/>
<path d="M256.2 170.1C258.3 170.1 260.1 169.1 260.1 167.9C260.1 166.7 258.4 165.7 256.2 165.7C254.1 165.7 252.3 166.7 252.3 167.9C252.3 169.1 254 170.1 256.2 170.1Z" fill="#FFBDCD"/>
<path d="M271.3 168.6C272.1 170.8 271.1 173.1 268.2 174.8C265.4 176.4 261.4 177 257.8 176.6C256.5 174.5 256.3 172.1 260 170C263.2 168.1 267.2 167.8 271.3 168.6Z" fill="#FFBDCD"/>
<path d="M259.9 177.7C268.5 177.7 275.4 173.7 275.4 168.7C275.4 163.8 268.5 159.7 259.9 159.7C251.3 159.7 244.4 163.7 244.4 168.7C244.4 173.7 251.4 177.7 259.9 177.7Z" fill="#E0E0E0"/>
<path d="M259.9 175.9C268.5 175.9 275.4 171.9 275.4 166.9C275.4 162 268.5 157.9 259.9 157.9C251.3 157.9 244.4 161.9 244.4 166.9C244.4 171.9 251.4 175.9 259.9 175.9Z" fill="#00BAFF"/>
<path d="M256.2 167C258.3 167 260.1 166 260.1 164.8C260.1 163.6 258.4 162.6 256.2 162.6C254.1 162.6 252.3 163.6 252.3 164.8C252.3 166 254 167 256.2 167Z" fill="#FFBDCD"/>
<path d="M271.3 165.5C272.1 167.7 271.1 170 268.2 171.7C265.4 173.3 261.4 173.9 257.8 173.5C256.5 171.4 256.3 169 260 166.9C263.2 165.1 267.2 164.7 271.3 165.5Z" fill="#FFBDCD"/>
<path d="M259.9 174.6C268.5 174.6 275.4 170.6 275.4 165.6C275.4 160.6 268.5 156.6 259.9 156.6C251.3 156.6 244.4 160.6 244.4 165.6C244.4 170.6 251.4 174.6 259.9 174.6Z" fill="#E0E0E0"/>
<path d="M259.9 172.9C268.5 172.9 275.4 168.9 275.4 163.9C275.4 159 268.5 154.9 259.9 154.9C251.3 154.9 244.4 158.9 244.4 163.9C244.4 168.9 251.4 172.9 259.9 172.9Z" fill="#00BAFF"/>
<path d="M256.2 164C258.3 164 260.1 163 260.1 161.8C260.1 160.6 258.4 159.6 256.2 159.6C254.1 159.6 252.3 160.6 252.3 161.8C252.3 163 254 164 256.2 164Z" fill="#FFBDCD"/>
<path d="M271.3 162.5C272.1 164.7 271.1 167 268.2 168.7C265.4 170.3 261.4 170.9 257.8 170.5C256.5 168.4 256.3 166 260 163.9C263.2 162 267.2 161.7 271.3 162.5Z" fill="#FFBDCD"/>
<path d="M259.9 171.6C268.5 171.6 275.4 167.6 275.4 162.6C275.4 157.7 268.5 153.6 259.9 153.6C251.3 153.6 244.4 157.6 244.4 162.6C244.4 167.6 251.4 171.6 259.9 171.6Z" fill="#E0E0E0"/>
<path d="M259.9 169.8C268.5 169.8 275.4 165.8 275.4 160.8C275.4 155.9 268.5 151.8 259.9 151.8C251.3 151.8 244.4 155.8 244.4 160.8C244.4 165.8 251.4 169.8 259.9 169.8Z" fill="#00BAFF"/>
<path d="M256.2 160.9C258.3 160.9 260.1 159.9 260.1 158.7C260.1 157.5 258.4 156.5 256.2 156.5C254.1 156.5 252.3 157.5 252.3 158.7C252.3 159.9 254 160.9 256.2 160.9Z" fill="#FFBDCD"/>
<path d="M271.3 159.4C272.1 161.6 271.1 163.9 268.2 165.6C265.4 167.2 261.4 167.8 257.8 167.4C256.5 165.3 256.3 162.9 260 160.8C263.2 159 267.2 158.6 271.3 159.4Z" fill="#FFBDCD"/>
<path d="M259.9 168.5C268.5 168.5 275.4 164.5 275.4 159.5C275.4 154.6 268.5 150.5 259.9 150.5C251.3 150.5 244.4 154.5 244.4 159.5C244.4 164.5 251.4 168.5 259.9 168.5Z" fill="#E0E0E0"/>
<path d="M259.9 166.8C268.5 166.8 275.4 162.8 275.4 157.8C275.4 152.8 268.5 148.8 259.9 148.8C251.3 148.8 244.4 152.8 244.4 157.8C244.4 162.8 251.4 166.8 259.9 166.8Z" fill="#00BAFF"/>
<path d="M256.2 157.9C258.3 157.9 260.1 156.9 260.1 155.7C260.1 154.5 258.4 153.5 256.2 153.5C254.1 153.5 252.3 154.5 252.3 155.7C252.3 156.9 254 157.9 256.2 157.9Z" fill="white"/>
<path d="M271.3 156.4C272.1 158.6 271.1 160.9 268.2 162.6C265.4 164.2 261.4 164.8 257.8 164.4C256.5 162.3 256.3 159.9 260 157.8C263.2 155.9 267.2 155.5 271.3 156.4Z" fill="white"/>
<path d="M276.1 153.2C277.2 148.4 271.4 142.9 263 141C254.7 139.1 247 141.4 245.9 146.2C244.8 151 250.6 156.5 259 158.4C267.3 160.4 275 158 276.1 153.2Z" fill="#E0E0E0"/>
<path d="M276.5 151.5C277.6 146.7 271.8 141.2 263.4 139.3C255.1 137.4 247.4 139.7 246.3 144.5C245.2 149.3 251 154.8 259.4 156.7C267.7 158.7 275.4 156.3 276.5 151.5Z" fill="#00BAFF"/>
<path d="M262 145.9C262.3 144.7 260.8 143.3 258.7 142.8C256.6 142.3 254.7 142.9 254.4 144.1C254.1 145.3 255.6 146.7 257.7 147.2C259.8 147.7 261.7 147.1 262 145.9Z" fill="white"/>
<path d="M272.8 149.2C273.1 151.5 271.6 153.5 268.3 154.5C265.2 155.5 261.2 155.2 257.7 153.9C256.9 151.6 257.3 149.2 261.3 148C265.1 146.9 269 147.4 272.8 149.2Z" fill="white"/>
<path opacity="0.76" d="M149.5 71.7C161.3 51.2 161.3 29.1 149.5 22.2C137.7 15.4 118.5 26.4 106.7 46.9C94.9001 67.4 94.9001 89.5 106.7 96.4C118.5 103.2 137.6 92.2 149.5 71.7Z" fill="white"/>
<path d="M133.4 50.3C136.4 45.2 136.4 39.6 133.4 37.9C130.4 36.2 125.6 39 122.7 44.1C119.7 49.2 119.7 54.8 122.7 56.5C125.6 58.2 130.5 55.4 133.4 50.3Z" fill="#00BAFF"/>
<path d="M147.2 62.4C143.2 72 136.1 80.9 128 85.6C120.2 90.1 113.3 89.5 109.2 85C112.3 75.5 117.9 65.2 128 59.4C137.2 54 143.6 55.7 147.2 62.4Z" fill="#00BAFF"/>
<path d="M148.3 41.4L144.2 43.8V39C144.2 38.4 143.7 38.1 143.2 38.4C142.9 38.6 142.7 38.8 142.5 39.2C142.3 39.5 142.2 39.8 142.2 40.2V45L138.1 47.4C137.8 47.6 137.6 47.9 137.4 48.2C137.2 48.5 137.1 48.8 137.1 49.2C137.1 49.8 137.6 50.1 138.1 49.8L142.2 47.4V52C142.2 52.6 142.7 52.9 143.2 52.6C143.5 52.4 143.7 52.2 143.9 51.8C144.1 51.5 144.2 51.2 144.2 50.8V46.1L148.3 43.7C148.6 43.5 148.8 43.2 149 42.9C149.2 42.6 149.3 42.3 149.3 41.9C149.3 41.4 148.9 41.1 148.3 41.4Z" fill="#00BAFF"/>
<path d="M215.9 59.6L214.9 59L215.9 57.3C216 57.1 216 56.8 215.9 56.7C215.8 56.6 215.5 56.7 215.4 57L214.4 58.8L213.4 58.2C213.3 58.1 213 58.2 212.9 58.5C212.8 58.7 212.8 59 212.9 59.1L213.9 59.7L212.9 61.4C212.8 61.6 212.8 61.9 212.9 62C213 62.1 213.3 62 213.4 61.7L214.4 60L215.4 60.6C215.5 60.7 215.8 60.6 215.9 60.3C216.1 59.9 216.1 59.7 215.9 59.6Z" fill="#D5D5DB"/>
<path d="M215.9 89.9L214.9 89.3L215.9 87.6C216 87.4 216 87.1 215.9 87C215.8 86.9 215.5 87 215.4 87.3L214.4 89.1L213.4 88.5C213.3 88.4 213 88.5 212.9 88.8C212.8 89 212.8 89.3 212.9 89.4L213.9 90L212.9 91.7C212.8 91.9 212.8 92.2 212.9 92.3C213 92.4 213.3 92.3 213.4 92L214.4 90.3L215.4 90.9C215.5 91 215.8 90.9 215.9 90.6C216.1 90.2 216.1 89.9 215.9 89.9Z" fill="#D5D5DB"/>
<path d="M215.9 120.1L214.9 119.5L215.9 117.8C216 117.6 216 117.3 215.9 117.2C215.8 117.1 215.5 117.2 215.4 117.5L214.4 119.3L213.4 118.7C213.3 118.6 213 118.7 212.9 119C212.8 119.2 212.8 119.5 212.9 119.6L213.9 120.2L212.9 121.9C212.8 122.1 212.8 122.4 212.9 122.5C213 122.6 213.3 122.5 213.4 122.2L214.4 120.5L215.4 121.1C215.5 121.2 215.8 121.1 215.9 120.8C216.1 120.4 216.1 120.2 215.9 120.1Z" fill="#D5D5DB"/>
<path d="M215.9 150.4L214.9 149.8L215.9 148.1C216 147.9 216 147.6 215.9 147.5C215.8 147.4 215.5 147.5 215.4 147.8L214.4 149.6L213.4 149C213.3 148.9 213 149 212.9 149.3C212.8 149.5 212.8 149.8 212.9 149.9L213.9 150.5L212.9 152.2C212.8 152.4 212.8 152.7 212.9 152.8C213 152.9 213.3 152.8 213.4 152.5L214.4 150.8L215.4 151.4C215.5 151.5 215.8 151.4 215.9 151.1C216.1 150.7 216.1 150.5 215.9 150.4Z" fill="#D5D5DB"/>
<path d="M168 91.6C170.6 87 170.6 82.1 168 80.6C165.4 79.1 161.1 81.5 158.5 86.1C155.9 90.7 155.9 95.6 158.5 97.1C161.1 98.6 165.4 96.2 168 91.6Z" fill="#00BAFF"/>
<path d="M164.9 85.2C164.9 85.8 164.7 86.4 164.4 86.9C164.1 87.4 163.7 87.8 163.2 88.2C162.3 88.7 161.5 88.3 161.5 87.2C161.5 86.6 161.7 86 162 85.5C162.3 85 162.7 84.6 163.2 84.2C164.2 83.7 164.9 84.1 164.9 85.2Z" fill="white"/>
<path d="M167.5 89.5C166.6 91.6 165 93.6 163.2 94.7C161.5 95.7 159.9 95.6 159 94.6C159.7 92.5 160.9 90.2 163.2 88.9C165.3 87.7 166.7 88.1 167.5 89.5Z" fill="white"/>
<path d="M168 121.9C170.6 117.3 170.6 112.4 168 110.9C165.4 109.4 161.1 111.8 158.5 116.4C155.9 121 155.9 125.9 158.5 127.4C161.1 128.9 165.4 126.5 168 121.9Z" fill="#E0E0E0"/>
<path d="M164.4 117.2C165.1 116.1 165.1 114.8 164.4 114.4C163.7 114 162.7 114.6 162 115.8C161.3 116.9 161.3 118.2 162 118.6C162.7 118.9 163.8 118.3 164.4 117.2Z" fill="#00BAFF"/>
<path d="M167.5 119.8C166.6 121.9 165 123.9 163.2 125C161.5 126 159.9 125.9 159 124.9C159.7 122.8 160.9 120.5 163.2 119.2C165.3 118 166.7 118.3 167.5 119.8Z" fill="#00BAFF"/>
<path d="M168 152.2C170.6 147.6 170.6 142.7 168 141.2C165.4 139.7 161.1 142.1 158.5 146.7C155.9 151.3 155.9 156.2 158.5 157.7C161.1 159.2 165.4 156.8 168 152.2Z" fill="#00BAFF"/>
<path d="M164.4 147.4C165.1 146.3 165.1 145 164.4 144.6C163.7 144.2 162.7 144.8 162 146C161.3 147.1 161.3 148.4 162 148.8C162.7 149.2 163.8 148.6 164.4 147.4Z" fill="white"/>
<path d="M167.5 150.1C166.6 152.2 165 154.2 163.2 155.3C161.5 156.3 159.9 156.2 159 155.2C159.7 153.1 160.9 150.8 163.2 149.5C165.3 148.3 166.7 148.6 167.5 150.1Z" fill="white"/>
<path d="M168 182.5C170.6 177.9 170.6 173 168 171.5C165.4 170 161.1 172.4 158.5 177C155.9 181.6 155.9 186.5 158.5 188C161.1 189.5 165.4 187 168 182.5Z" fill="#E0E0E0"/>
<path d="M164.9 176.1C164.9 176.7 164.7 177.3 164.4 177.8C164.1 178.3 163.7 178.7 163.2 179.1C162.3 179.6 161.5 179.2 161.5 178.1C161.5 177.5 161.7 176.9 162 176.4C162.3 175.9 162.7 175.5 163.2 175.1C164.2 174.6 164.9 175 164.9 176.1Z" fill="#00BAFF"/>
<path d="M167.5 180.4C166.6 182.5 165 184.5 163.2 185.6C161.5 186.6 159.9 186.5 159 185.5C159.7 183.4 160.9 181.1 163.2 179.8C165.3 178.6 166.7 178.9 167.5 180.4Z" fill="#00BAFF"/>
<path d="M200.5 65.4999L210 59.9999C210.4 59.6999 210.8 59.9999 210.8 60.4999V62.2999C210.8 62.5999 210.7 62.8999 210.6 63.0999C210.5 63.2999 210.3 63.4999 210 63.6999L200.5 69.1999C200.1 69.4999 199.7 69.1999 199.7 68.6999V66.8999C199.7 66.5999 199.8 66.2999 199.9 66.0999C200 65.8999 200.2 65.6999 200.5 65.4999Z" fill="#00BAFF"/>
<path d="M200.5 95.8L210 90.3C210.4 90 210.8 90.3 210.8 90.8V92.6C210.8 92.9 210.7 93.2 210.6 93.4C210.5 93.6 210.3 93.8 210 94L200.5 99.5C200.1 99.8 199.7 99.5 199.7 99V97.2C199.7 96.9 199.8 96.6 199.9 96.4C200.1 96.1 200.2 95.9 200.5 95.8Z" fill="#00BAFF"/>
<path d="M200.5 126L210 120.5C210.4 120.2 210.8 120.5 210.8 121V122.8C210.8 123.1 210.7 123.4 210.6 123.6C210.5 123.8 210.3 124 210 124.2L200.5 129.7C200.1 130 199.7 129.7 199.7 129.2V127.4C199.7 127.1 199.8 126.8 199.9 126.6C200.1 126.4 200.2 126.2 200.5 126Z" fill="#00BAFF"/>
<path d="M200.5 156.3L210 150.8C210.4 150.5 210.8 150.8 210.8 151.3V153.1C210.8 153.4 210.7 153.7 210.6 153.9C210.5 154.1 210.3 154.3 210 154.5L200.5 160C200.1 160.3 199.7 160 199.7 159.5V157.7C199.7 157.4 199.8 157.1 199.9 156.9C200.1 156.6 200.2 156.4 200.5 156.3Z" fill="#00BAFF"/>
<path d="M176.7 80.1C176.6 80.1 176.4 80.1 176.3 80C176.2 79.9 176.1 79.8 176.1 79.6C176.1 79.5 176.1 79.3 176.1 79.2C176.2 79.1 176.3 79 176.4 78.9L192.6 69.5C192.8 69.4 192.9 69.4 193.1 69.4C193.3 69.4 193.4 69.6 193.5 69.7C193.6 69.9 193.6 70 193.6 70.2C193.6 70.4 193.4 70.5 193.3 70.6L177.1 80C177 80.1 176.9 80.1 176.7 80.1Z" fill="#E0E0E0"/>
<path d="M176.7 83.3C176.6 83.3 176.4 83.3 176.3 83.2C176.2 83.1 176.1 83 176.1 82.8C176.1 82.7 176.1 82.5 176.1 82.4C176.2 82.3 176.3 82.2 176.4 82.1L192.6 72.7C192.8 72.6 192.9 72.6 193.1 72.6C193.3 72.6 193.4 72.8 193.5 72.9C193.6 73.1 193.6 73.2 193.6 73.4C193.6 73.6 193.4 73.7 193.3 73.8L177.1 83.2C177 83.2 176.9 83.3 176.7 83.3Z" fill="#E0E0E0"/>
<path d="M176.7 110.4C176.6 110.4 176.4 110.4 176.3 110.3C176.2 110.2 176.1 110.1 176.1 109.9C176.1 109.8 176.1 109.6 176.1 109.5C176.2 109.4 176.3 109.3 176.4 109.2L192.6 99.8C192.7 99.8 192.8 99.7 192.8 99.7C192.9 99.7 193 99.7 193.1 99.7C193.2 99.7 193.3 99.8 193.3 99.8C193.4 99.9 193.4 99.9 193.5 100C193.5 100.1 193.6 100.2 193.6 100.2C193.6 100.3 193.6 100.4 193.6 100.5C193.6 100.6 193.5 100.7 193.5 100.7C193.4 100.8 193.4 100.8 193.3 100.9L177.1 110.3C177 110.3 176.9 110.4 176.7 110.4Z" fill="#B0E9FF"/>
<path d="M176.7 113.5C176.6 113.5 176.4 113.5 176.3 113.4C176.2 113.3 176.1 113.2 176.1 113C176.1 112.9 176.1 112.7 176.1 112.6C176.2 112.5 176.3 112.4 176.4 112.3L192.6 102.9C192.7 102.9 192.8 102.8 192.8 102.8C192.9 102.8 193 102.8 193.1 102.8C193.2 102.8 193.3 102.9 193.3 102.9C193.3 102.9 193.4 103 193.5 103.1C193.5 103.2 193.6 103.3 193.6 103.3C193.6 103.4 193.6 103.5 193.6 103.6C193.6 103.7 193.5 103.8 193.5 103.8C193.4 103.9 193.4 103.9 193.3 104L177.1 113.4C177 113.5 176.9 113.5 176.7 113.5Z" fill="#B0E9FF"/>
<path d="M176.7 140.6C176.6 140.6 176.4 140.6 176.3 140.5C176.2 140.4 176.1 140.3 176.1 140.1C176.1 140 176.1 139.8 176.1 139.7C176.2 139.6 176.3 139.5 176.4 139.4L192.6 130C192.8 129.9 192.9 129.9 193.1 129.9C193.3 129.9 193.4 130.1 193.5 130.2C193.6 130.4 193.6 130.5 193.6 130.7C193.6 130.9 193.4 131 193.3 131.1L177.1 140.5C177 140.6 176.9 140.6 176.7 140.6Z" fill="#E0E0E0"/>
<path d="M176.7 143.8C176.6 143.8 176.4 143.8 176.3 143.7C176.2 143.6 176.1 143.5 176.1 143.3C176.1 143.2 176.1 143 176.1 142.9C176.1 142.8 176.3 142.7 176.4 142.6L192.6 133.2C192.8 133.1 192.9 133.1 193.1 133.1C193.3 133.1 193.4 133.3 193.5 133.4C193.6 133.6 193.6 133.7 193.6 133.9C193.6 134.1 193.4 134.2 193.3 134.3L177.1 143.7C177 143.8 176.9 143.8 176.7 143.8Z" fill="#E0E0E0"/>
<path d="M176.7 170.9C176.6 170.9 176.4 170.9 176.3 170.8C176.2 170.7 176.1 170.6 176.1 170.4C176.1 170.3 176.1 170.1 176.1 170C176.2 169.9 176.3 169.8 176.4 169.7L192.6 160.3C192.8 160.2 192.9 160.2 193.1 160.2C193.3 160.2 193.4 160.4 193.5 160.5C193.6 160.7 193.6 160.8 193.6 161C193.6 161.2 193.4 161.3 193.3 161.4L177.1 170.8C177 170.9 176.9 170.9 176.7 170.9Z" fill="#B0E9FF"/>
<path d="M176.7 174C176.6 174 176.4 174 176.3 173.9C176.2 173.8 176.1 173.7 176.1 173.5C176.1 173.4 176.1 173.2 176.1 173.1C176.2 173 176.3 172.9 176.4 172.8L192.6 163.4C192.7 163.4 192.8 163.3 192.8 163.3C192.9 163.3 193 163.3 193.1 163.3C193.2 163.3 193.3 163.4 193.3 163.4C193.4 163.5 193.4 163.5 193.5 163.6C193.5 163.7 193.6 163.8 193.6 163.8C193.6 163.9 193.6 164 193.6 164.1C193.6 164.2 193.5 164.3 193.5 164.3C193.4 164.4 193.4 164.4 193.3 164.5L177.1 173.9C177 174 176.9 174 176.7 174Z" fill="#B0E9FF"/>
<path d="M210.2 173.8L164.7 200C164.2 200.3 163.8 200.1 163.8 199.5C163.8 199.2 163.9 198.9 164.1 198.6C164.2 198.3 164.5 198.1 164.7 198L210.2 171.8C210.7 171.5 211.1 171.7 211.1 172.3C211.1 172.6 211 172.9 210.8 173.2C210.7 173.4 210.5 173.6 210.2 173.8Z" fill="#231F20"/>
<path d="M160.9 69.2L157.2 71.4L158.5 69C158.6 68.8 158.6 68.5 158.5 68.4C158.4 68.3 158.1 68.5 158 68.7L156 72.4L157.9 74H158H158.1C158.2 73.9 158.3 73.9 158.3 73.8C158.4 73.6 158.5 73.3 158.3 73.2L157 72.2L160.8 70C160.9 69.9 161 69.8 161 69.7C161.1 69.6 161.1 69.5 161.1 69.4C161.3 69.2 161.1 69.1 160.9 69.2Z" fill="#00BAFF"/>
<path d="M556.1 221.9L524.8 240L379 155.7V152.7L410.3 137.7L556.2 218.9V221.9H556.1Z" fill="#231F20"/>
<path d="M556.1 218.9L524.8 237L379 152.7L410.3 134.7L556.1 218.9Z" fill="#9D9FA2"/>
<path d="M386.8 152.7L391 155.1L524.9 230.9L542.8 220.6L546.9 218.2L410.2 139.6L386.8 152.7Z" fill="#424244"/>
<path d="M391 155.1L524.9 230.9L542.8 220.6L537.7 217.7L487.4 188.8L410.3 144.5L391 155.1Z" fill="#D8F4FF"/>
<path d="M384.8 159.1L389.4 182.8L524.9 261V240L384.8 159.1Z" fill="#00A6E3"/>
<path d="M553.3 223.5L551.5 245.6L524.9 261V240L553.3 223.5Z" fill="#00B1F3"/>
<path d="M399.8 68.4L472.8 72V74.4L452 86.4L483.3 104.5L504.2 152.6L514.6 158.6L525 188.7L556.3 204V206.7L525 224.8L493.8 206.8L483.4 176.7L473 170.7L452.1 122.6L420.8 104.5L399.9 116.5L399.8 68.4Z" fill="#00A6E3"/>
<path d="M556.2 204.1L524.9 222.2L496 205.4L485.6 175.3L475.2 169.3L454.3 121.2L420.7 101.8L410.9 107.4L407.9 109.1L406.1 110.1L399.8 113.7V110.1V82.6V66.3L472.7 72.1L451.9 83.8L485.5 103.2L506.4 151.3L516.8 157.3L527.2 187.4L556.2 204.1Z" fill="#00BAFF"/>
<path d="M477.8 183.8L473.8 186.1L469.8 183.8L473.8 181.5L477.8 183.8Z" fill="#C4C4C4"/>
<path d="M473.8 186.1V190.7L477.8 188.4V183.8L473.8 186.1Z" fill="#BABABA"/>
<path d="M473.8 186.1L469.8 183.8V188.4L473.8 190.7V186.1Z" fill="#CDCDCD"/>
<path d="M454.9 150.5L446.9 155.1L438.9 150.5L446.9 145.9L454.9 150.5Z" fill="url(#paint1_linear)"/>
<path d="M446.9 155.1V164.3L454.9 159.7V150.5L446.9 155.1Z" fill="url(#paint2_linear)"/>
<path d="M446.9 155.1L438.9 150.5V159.7L446.9 164.3V155.1Z" fill="url(#paint3_linear)"/>
<path d="M437.9 144.8L433.5 147.3L429.1 144.8L433.5 142.3L437.9 144.8Z" fill="#C4C4C4"/>
<path d="M433.5 147.3V152.4L437.9 149.9V144.8L433.5 147.3Z" fill="#BABABA"/>
<path d="M433.5 147.3L429.1 144.8V149.9L433.5 152.4V147.3Z" fill="#CDCDCD"/>
<path d="M424.4 121.5L420 124L415.6 121.5L420 119L424.4 121.5Z" fill="url(#paint4_linear)"/>
<path d="M420 124V129.1L424.4 126.6V121.5L420 124Z" fill="url(#paint5_linear)"/>
<path d="M420 124L415.6 121.5V126.6L420 129.1V124Z" fill="url(#paint6_linear)"/>
<path d="M436.5 117.2L433.5 119L430.5 117.2L433.5 115.4L436.5 117.2Z" fill="url(#paint7_linear)"/>
<path d="M433.5 119V122.5L436.5 120.7V117.2L433.5 119Z" fill="url(#paint8_linear)"/>
<path d="M433.5 119L430.5 117.2V120.7L433.5 122.5V119Z" fill="url(#paint9_linear)"/>
<path d="M241.7 59.3L245.6 58.1C245.6 58.1 250.7 66.5 245.6 69.4L242.5 68.2C242.6 68.2 247.3 64.1 241.7 59.3Z" fill="url(#paint10_linear)"/>
<path d="M230.9 48.9L229.1 52.6C229.1 52.6 219.5 50.5 220.9 44.8L223.9 43.4C223.8 43.4 223.6 49.7 230.9 48.9Z" fill="#E0E0E0"/>
<path d="M242.8 37L244.5 39.5C244.5 39.5 239.6 44.8 236.5 41.8L236.7 39.4C236.6 39.4 240.5 41.9 242.8 37Z" fill="#E0E0E0"/>
<path d="M188.8 26L187.9 28.9C187.9 28.9 180.7 28.5001 181 24.2001L183 22.8C183 22.8 183.5 27.4 188.8 26Z" fill="url(#paint11_linear)"/>
<path d="M197.5 51.2L196.6 54.1C196.6 54.1 189.4 53.7 189.7 49.4L191.7 48C191.8 48 192.3 52.6 197.5 51.2Z" fill="url(#paint12_linear)"/>
<path d="M234.7 88.4L237.6 89.3C237.6 89.3 237.2 96.5 232.9 96.2L231.5 94.2C231.5 94.2 236 93.6 234.7 88.4Z" fill="url(#paint13_linear)"/>
<path d="M224.7 68.3L228.3 69.4C228.3 69.4 227.8 78.4 222.4 78L220.7 75.5C220.7 75.6 226.4 74.9 224.7 68.3Z" fill="#E0E0E0"/>
<path d="M128.8 113.1L126.7 116.3C126.7 116.3 118.2 113.4 120 108.3L122.9 107.3C122.9 107.3 122 113 128.8 113.1Z" fill="url(#paint14_linear)"/>
<path d="M242.5 137L244.4 138.8C244.4 138.8 241.3 144.2 238.1 142.3L237.8 140.2C237.8 140.2 241.5 141.6 242.5 137Z" fill="url(#paint15_linear)"/>
<path d="M133.6 132.1L136.7 134.3C136.7 134.3 133.4 142.7 128.4 140.7L127.5 137.8C127.6 137.8 133.2 138.9 133.6 132.1Z" fill="#E0E0E0"/>
<path d="M238.1 125.9L237 129.5C237 129.5 228 129 228.4 123.6L230.9 121.9C230.8 121.8 231.5 127.6 238.1 125.9Z" fill="#E0E0E0"/>
<path d="M145.1 116.2L146.1 113.9C146.1 113.9 152 115 151.3 118.5L149.5 119.4C149.6 119.5 149.6 115.6 145.1 116.2Z" fill="url(#paint16_linear)"/>
<path d="M123.5 155.1L124.5 152.8C124.5 152.8 130.4 153.9 129.7 157.4L127.9 158.3C127.9 158.4 128 154.6 123.5 155.1Z" fill="url(#paint17_linear)"/>
<path d="M148.3 160.6L151.9 161.6C151.9 161.6 151.7 170.4 146.4 170.2L144.6 167.8C144.5 167.8 150.1 167 148.3 160.6Z" fill="url(#paint18_linear)"/>
<path d="M306.8 47.8L301.6 56.7H296.9L298.1 54.6H300.5L304.7 47.4L306.8 47.8Z" fill="#00BAFF"/>
<path d="M309.1 48L302.9 58.8H293.3L300.5 46.4H302.9L296.9 56.7H301.6L306.8 47.8L309.1 48Z" fill="#05B4F4"/>
<path d="M293.3 58.8L292.1 56.7L298.1 46.4H300.5L293.3 58.8Z" fill="#009CD6"/>
<path d="M306.2 35.9H309V49.7H306.3L306.2 35.9Z" fill="#00BAFF"/>
<path d="M309 49.8C311.2 49.8 313 46.7 313 42.9C313 39.1 311.2 36 309 36C306.8 36 305 39.1 305 42.9C305 46.7 306.8 49.8 309 49.8Z" fill="#00BAFF"/>
<path d="M309.1 47.7C308.1 49.4 306.8 50 305.6 49.6C305.6 49.6 290.3 48 284.9 57.4C285.1 56.9 289.8 47.9 288.1 37.4C287.6 34.3 286.6 31.2 285.1 28.4C285.1 28.4 294.6 35.9 306.1 35.9C307.2 35.8 308.3 36.5 309.1 37.9C309.8 39.2 310.2 40.7 310.3 42.1C310.4 44.2 310 46.2 309.1 47.7Z" fill="#00BAFF"/>
<path d="M309.1 47.7C308.1 49.4 306.8 49.9999 305.6 49.5999C305.6 49.5999 290.3 48 284.9 57.4C285.1 56.9 289.8 47.9 288.1 37.4L288.9 36.7C288.9 36.7 292.3 46.4 298.5 46.7999C304.7 47.1999 309.5 46.2 310.3 42.2C310.4 44.2 310 46.2 309.1 47.7Z" fill="#00BAFF"/>
<path d="M280 59.9001C285.4 59.8001 289.7 52.1 289.6 42.7001C289.5 33.3001 284.9 25.7 279.5 25.8C274.1 25.9 269.8 33.6 269.9 43C270.1 52.4 274.6 60 280 59.9001Z" fill="#0097CF"/>
<path d="M284.9 54.8C283.8 56.8 282.4 58.3 280.9 59.1C277.5 61 273.7 59.6 271 55C267.1 48.4 266.9 37.6 270.7 30.9C273 26.8 276.2 25.2 279.2 26C281.2 26.5 283.1 28.1 284.6 30.7C288.5 37.3 288.7 48.1 284.9 54.8Z" fill="#00BAFF"/>
<path d="M286.9 49.7C286.5 51.5 285.8 53.2 285 54.8C283.9 56.8 282.5 58.3 281 59.1C279.6 58.7 278.3 57.9 277.3 56.8C276.6 56.1 276 55.3 275.5 54.4C271.6 47.8 271.4 37 275.2 30.3C276.3 28.3 277.7 26.8 279.2 26C281.2 26.5 283.1 28.1 284.6 30.7C284.7 30.9 284.8 31.1 284.9 31.2C285.7 32.7 286.3 34.3 286.7 35.9C287 37.1 287.2 38.2 287.4 39.4C287.8 42.9 287.6 46.4 286.9 49.7Z" fill="#0295CC"/>
<path d="M286.9 49.7C286.5 51.5 285.8 53.2 285 54.8C283.9 56.8 282.5 58.3 281 59.1C279.6 58.7 278.3 57.9 277.3 56.8C277.4 56.9 280.5 58.4 282.8 55.8C285.3 52.9 289.2 37.1 279.2 26.1C281.2 26.6 283.1 28.2 284.6 30.8C284.7 31 284.8 31.2 284.9 31.3C285.7 32.8 286.3 34.4 286.7 36C287 37.2 287.2 38.3 287.4 39.5C287.8 42.9 287.6 46.4 286.9 49.7Z" fill="#00BAFF"/>
<path d="M287.4 47C287.3 47.9 287.1 48.8 286.9 49.7H281.8C280.6 49.7 279.4 49.4 278.4 48.8C277.4 48.2 276.5 47.3 275.9 46.3C275.3 45.3 275 44.1 275 42.9C275 41.7 275.3 40.5 275.9 39.5C276.5 38.5 277.4 37.6 278.4 37C279.4 36.4 280.6 36.1 281.8 36.1H286.7C287.6 39.6 287.9 43.3 287.4 47Z" fill="#E0E0E0"/>
<path d="M287.4 47C287.3 47.9 287.1 48.8 286.9 49.7H281.8C280.6 49.7 279.4 49.3999 278.4 48.7999C277.4 48.1999 276.5 47.2999 275.9 46.2999C275.2 45.0999 274.9 43.6 275 42.2C275.2 42.9 277 47.0999 282.4 47.0999C284.5 46.9999 286.1 47 287.4 47Z" fill="#E0E0E0"/>
<path d="M135.4 318.1C134.8 306.7 127 303 127 302.9L127.3 302.2C127.4 302.2 135.6 306.1 136.2 318L135.4 318.1Z" fill="url(#paint19_linear)"/>
<path d="M208.4 360.2L207.7 360.1C209.4 347.6 219.3 342.9 219.4 342.9L219.7 343.6C219.6 343.6 210.1 348.1 208.4 360.2Z" fill="url(#paint20_linear)"/>
<path d="M141.7 333.7L228.2 371.4V372.9L208.4 384.4L119 332.8V331.3L141.7 333.7Z" fill="#231F20"/>
<path d="M138.8 319.8L228.2 371.4L208.4 382.9L119 331.3L138.8 319.8Z" fill="#5E5F61"/>
<path d="M221.7 370.5L219 372L206.7 379.1L128.2 333.6L125.6 332.1L140.5 323.5L221.7 370.5Z" fill="#4D4D4F"/>
<path d="M154.9 337.1C153.3 328.4 155.2 322.5 157.1 319.1C159.2 315.4 161.6 313.8 161.7 313.7L162.1 314.3C162 314.4 152.7 320.7 155.6 336.9L154.9 337.1Z" fill="#C0C2D1"/>
<path d="M145.8 304.2L154 310.1C154 310.1 162.1 301.5 160.3 294.3C160.3 294.3 152.5 293.7 145.8 304.2Z" fill="url(#paint21_linear)"/>
<path d="M140.3 303.6L146.7 299.7C146.7 299.7 142.7 290.9 137.3 291.1C137.3 291.1 135 296.1 140.3 303.6Z" fill="#E0E0E0"/>
<path d="M169.8 318.8L178.6 320.6C178.6 320.6 182.3 309.7 177.4 305.4C177.3 305.4 171.3 307.9 169.8 318.8Z" fill="#00BAFF"/>
<path d="M145.9 314.1C147.3 308.5 153.9 300.7 154 300.7C154 300.7 147.8 306.8 145.7 312.2C144.7 303.1 140.1 296.1 140.1 296.1C140.2 296.3 149.9 314.6 142.2 329.6L142.9 329.9C145.6 324.8 146.2 319.2 145.9 314.1Z" fill="url(#paint22_linear)"/>
<path d="M182 321.9L184.4 326.6C184.4 326.6 190.8 324.3 191 320.4C191.1 320.5 187.7 318.6 182 321.9Z" fill="url(#paint23_linear)"/>
<path d="M219 372L206.7 379.1L186.5 367.4L186.4 367.3L174.2 360.2L171.4 358.6L152 347.4L150 346.2L128.2 333.6L140.5 326.5L144 328.5L145.9 329.6L152.8 333.6L153.4 333.9L164.9 340.6L169.4 343.2L173.3 345.5L175.3 346.7L187.8 353.9L189.7 355L192 356.4L195.7 358.6L199.3 360.7L201.7 362.1L219 372Z" fill="#231F20"/>
<path d="M208.3 384.4V394.4L172 373.4L128.4 348.2L122.6 334.9L188.3 372.8L208.3 384.4Z" fill="#5A5B5F"/>
<path d="M199.3 328.8L204 336.8C204 336.8 215.7 332.5 218 325C218 325 208.9 322.4 199.3 328.8Z" fill="#00BAFF"/>
<path d="M226 374.2L224.1 385.3L220.2 387.5L208.3 394.4V384.4L213.6 381.3L226 374.2Z" fill="#56575A"/>
<path d="M176.3 345C175 327.4 186.7 322.4 186.7 322.4C186.7 322.4 183.9 323.8 181.4 327.2C179 330.4 176.4 336 177.1 344.9L176.3 345Z" fill="url(#paint24_linear)"/>
<path d="M184.9 352.1L184.2 352C185.7 344.7 192.5 338.7 197.9 335C201.5 332.5 205.5 330.6 209.7 329.3C209.5 329.3 187.7 338.5 184.9 352.1Z" fill="#C0C2D1"/>
<path d="M176.3 350.8C169.1 328.9 175.7 311.2 175.7 311.2C174.7 315.3 174 319.5 173.7 323.8C173.2 329.8 173.4 339.3 177.1 350.6L176.3 350.8Z" fill="#C0C2D1"/>
<path d="M190 356.7C189.2 362.1 188.1 365.4 186.7 367.3L174.5 360.2L171.7 358.6C171.7 356.9 171.9 355.2 172.1 353.5C172.1 353.5 172.7 349.7 173.5 345.5C174.5 340.3 175.8 334.6 176.5 334.9C177.7 335.4 177.4 344.7 178.8 343.6C180.2 342.5 179.8 329.6 181.4 329.8C183 329.9 181.9 349.2 183.9 348.5C185.9 347.8 184.1 334.4 186.8 334.9C189 335.3 189.7 349.9 189.9 355C190 356 190 356.7 190 356.7Z" fill="#E0E0E0"/>
<path d="M219 372L206.7 379.1L186.5 367.4C186.8 363.7 187.2 358.5 187.7 353.9C188.4 347.6 189.3 342.2 190.4 342.2C191.9 342.1 191.8 350 192 356.4C192.1 360.9 192.4 364.7 193.5 364.7C195 364.7 195.3 361.4 195.8 358.6C196.1 356.6 196.6 354.7 197.6 354.3C199 353.8 199.1 357.5 199.3 360.6C199.5 362.8 199.8 364.7 200.7 364.4C201.2 364.2 201.5 363.3 201.7 362C202.3 357.3 201.2 347.4 202.8 348C204.8 348.8 204.8 362.1 206.4 361.7C208 361.3 205.1 339.8 208.4 339.6C211.7 339.4 212.7 362.1 215.1 362.4C217.5 362.8 216.5 348.6 219.1 349.5C221.7 350.3 219 372 219 372Z" fill="#00BAFF"/>
<path d="M175.3 346.6C175.2 352.2 174.8 357.5 174.2 360.2L152 347.4L150 346.2C150.3 344.7 150.9 343.2 151.6 341.8C151.6 341.8 152.3 338 153.3 333.9C154.5 328.8 156.2 323.2 157.5 323.2C159.9 323.4 155.6 334.8 157.5 335.5C159.4 336.1 162 320.7 164.2 321.3C165.8 321.8 163.9 333.9 164.8 340.6C165.1 342.8 165.7 344.4 166.8 344.9C167.8 345.3 168.6 344.6 169.3 343.2C171.4 338.6 171.6 326.8 173.5 327.6C174.9 328.2 175.4 337.7 175.3 346.6Z" fill="#00BAFF"/>
<path d="M152 347.4L128.3 333.6C128.3 333.6 127.1 315.7 129.7 315.9C132.4 316.1 131.9 326.1 133.2 326.5C134.5 326.9 131.9 307.4 135.3 307.8C138.7 308.3 136.5 325.1 138.7 324.4C140.9 323.7 138.8 313.2 142.3 313.2C145 313.2 143.7 323.4 143.9 328.4C144 329.9 144.1 330.9 144.6 331.1C145.1 331.3 145.5 330.6 145.8 329.5C146.6 326.3 146.8 319.6 149.4 320.6C151.3 321.3 152.4 327.2 152.7 333.5C153 338.8 152.8 344.4 152 347.4Z" fill="#E0E0E0"/>
<path d="M125.7 304.9C127 304.9 128 303.9 128 302.6C128 301.3 127 300.3 125.7 300.3C124.4 300.3 123.4 301.3 123.4 302.6C123.4 303.9 124.4 304.9 125.7 304.9Z" fill="url(#paint25_linear)"/>
<path d="M219.6 345.6C220.9 345.6 222 344.5 222 343.2C222 341.9 220.9 340.8 219.6 340.8C218.3 340.8 217.2 341.9 217.2 343.2C217.2 344.5 218.2 345.6 219.6 345.6Z" fill="url(#paint26_linear)"/>
<path d="M164.8 314.6C165.1 313.4 164.4 312.3 163.2 312C162 311.7 160.9 312.4 160.6 313.6C160.3 314.8 161 315.9 162.2 316.2C163.3 316.5 164.5 315.7 164.8 314.6Z" fill="#E0E0E0"/>
<path d="M208.3 384.4V394.4L172 373.4C178 376.4 184.5 379.3 186 378.6C189 377.2 188.3 372.8 188.3 372.8L208.3 384.4Z" fill="#454549"/>
<path d="M220.2 387.5L208.3 394.4V384.4L213.6 381.3C213.6 381.3 213.6 381.4 213.7 381.4C213.7 381.4 212.9 385.1 213.7 387.4C214.5 389.7 220.2 387.5 220.2 387.5Z" fill="#3E3E42"/>
<path opacity="0.4" d="M325.2 240.8C325.2 240.9 325.3 241 325.4 241C325.3 240 325.2 240.7 325.2 240.8Z" fill="#00BAFF"/>
<path d="M538.1 280.7L534.8 282.6L312.5 410.9L250 374.8L249.4 374.5C249.1 374.3 248.9 374.1 248.7 373.8C248.5 373.5 248.5 373.2 248.5 372.9C248.5 372.6 248.6 372.3 248.7 372C248.9 371.7 249.1 371.5 249.4 371.3L275.7 356.1C278.3 354.6 281.2 353.8 284.2 353.8C287.2 353.8 290.1 354.6 292.7 356.1L314.8 368.9C316.9 370.1 319.3 370.8 321.7 370.8C324.1 370.8 326.5 370.2 328.6 368.9L448.2 300L468.8 288.1C469.2 287.9 469.5 287.6 469.7 287.2C469.9 286.8 470 286.4 470 286C470 285.6 469.9 285.2 469.7 284.8C469.5 284.4 469.2 284.1 468.8 283.9L438.7 266.6L437.4 265.9C437.1 265.7 436.9 265.5 436.7 265.2C436.5 264.9 436.5 264.6 436.5 264.3C436.5 264 436.6 263.7 436.7 263.4C436.9 263.1 437.1 262.9 437.4 262.7L463.7 247.5C466.3 246 469.3 245.2 472.3 245.2C475.3 245.2 478.3 246 480.9 247.5L538.1 277V280.7Z" fill="#231F20"/>
<path d="M534.9 282.6V301L312.9 429.1L250.9 393.3C250.6 393.1 250.4 392.9 250.2 392.6C250 392.3 250 392 250 391.7V374.8L312.5 410.9L534.9 282.6Z" fill="#E6E7E8"/>
<path d="M312.5 410.9V429.1L534.9 301V282.6L312.5 410.9Z" fill="#E0E0E0"/>
<path d="M257.8 376.9V373.3L262.8 372.9L261.9 376.7L257.8 376.9Z" fill="#231F20"/>
<path d="M476.8 292.4L455.8 302L435.7 290.9L436.7 265.3L458.5 277.4L476.9 287.6C477.4 287.9 477.8 288.2 478 288.7C478.3 289.1 478.4 289.6 478.4 290.1C478.4 290.6 478.2 291.1 477.9 291.5C477.7 291.9 477.3 292.2 476.8 292.4Z" fill="#E6E7E8"/>
<path d="M445.8 268.6V264.6L449.6 264.8V268.6H445.8Z" fill="#231F20"/>
<path d="M249.5 367.8L275.8 352.6C278.4 351.1 281.3 350.3 284.3 350.3C287.3 350.3 290.2 351.1 292.8 352.6L314.9 365.4C317 366.6 319.4 367.3 321.8 367.3C324.2 367.3 326.6 366.7 328.7 365.4L468.6 284.6C469 284.4 469.3 284.1 469.5 283.7C469.7 283.3 469.8 282.9 469.8 282.5C469.8 282.1 469.7 281.7 469.5 281.3C469.3 280.9 469 280.6 468.6 280.4L437.3 262.3C437 262.1 436.8 261.9 436.6 261.6C436.4 261.3 436.4 261 436.4 260.7C436.4 260.4 436.5 260.1 436.6 259.8C436.8 259.5 437 259.3 437.3 259.1L463.6 243.9C466.2 242.4 469.2 241.6 472.2 241.6C475.2 241.6 478.2 242.4 480.8 243.9L538 277L312.5 407.3L249.4 370.9C249.1 370.7 248.9 370.5 248.7 370.2C248.5 369.9 248.5 369.6 248.5 369.3C248.5 369 248.6 368.7 248.7 368.4C248.9 368.1 249.2 367.9 249.5 367.8Z" fill="#F8F8F8"/>
<path d="M341.8 215.6L333.6 230.2C321.3 227.6 308.2 226.9 295.4 227.9L290.1 212.9C307.3 211.3 325.1 212.2 341.8 215.6Z" fill="#E6E7E8"/>
<path d="M341.8 207.3L333.6 221.9C321.3 219.3 308.2 218.6 295.4 219.6L290.1 204.6C307.3 203 325.1 203.9 341.8 207.3Z" fill="#F8F8F8"/>
<path d="M295.3 227.8V219.5L290 204.5V212.8L295.3 227.8Z" fill="#B6B6BA"/>
<path d="M412.6 272.8C412.6 273.2 412.6 273.5 412.6 273.9V274.3C412.3 288.6 403.4 302.8 385.9 314.1L367.5 303.5L367.1 303.2C387.5 289.4 391.5 270.3 379 254.4C379 254.4 378.9 254.3 378.7 254C374.9 249.3 369.6 244.8 362.8 240.9C354.3 236 344.3 232.4 333.6 230.2V196.4L341.8 181.8L360.1 196.7L405.9 232.9L403.3 244.8L412.6 272.8Z" fill="#E6E7E8"/>
<path d="M412.6 239.7V272.8C412.6 273.2 412.6 273.5 412.6 273.9V274.3C412.6 275.7 412.5 277.1 412.3 278.4C410.5 291.2 401.7 303.8 385.9 314.1V280.3L396.5 264.3L412.6 239.7Z" fill="#E6E7E8"/>
<path d="M378.6 254C374.8 249.3 369.5 244.8 362.7 240.9C354.2 236 344.2 232.4 333.5 230.2V196.4L341.7 181.8L360 196.7L359.6 205.3C359.6 205.3 358.5 224.1 364.4 233.8C369.7 242.5 377.1 252 378.6 254Z" fill="#E6E7E8"/>
<path d="M412.2 278.3C410.4 291.1 401.6 303.7 385.8 314V280.2L396.4 264.2L397.8 270.8C397.8 270.7 403.7 302 412.2 278.3Z" fill="#E6E7E8"/>
<path d="M385.8 280.2L367.4 269.6L367 269.3C393.7 251.3 392.3 224.1 362.7 207C354.2 202.1 344.2 198.5 333.5 196.3L341.7 181.7C356.2 184.6 369.8 189.5 381.4 196.2C421.4 219.3 422.9 256.1 385.8 280.2Z" fill="#F8F8F8"/>
<path d="M367.5 269.6V303.4L385.9 314V280.2L367.5 269.6Z" fill="#E0E0E0"/>
<path d="M254.3 238.6V213L235.5 202.2V227.8L254.3 238.6Z" fill="#009AD3"/>
<path d="M284.3 317.5L276.1 332.1C259.8 329.3 244.3 324.2 231.4 316.7C211.6 305.2 201.2 290.4 200.4 275.4H200.3V247.6L207.4 248.1L207.5 251C212.7 243.3 220.7 230 231.4 223.8C232.3 223.3 233.2 228.9 234.1 228.4C234.6 228.1 234.3 219.3 234.7 219L241.2 230.9L241.4 231L244.4 232.7L254.3 238.4C252.9 239.1 251.5 239.9 250.1 240.7C247.8 242 245.6 243.5 243.4 245.1C243.1 245.3 242.9 245.5 242.6 245.7C233.7 252.5 228.6 260.4 227.1 268.5C224.7 281.8 232.3 295.6 250 305.8C257.7 310.2 266.5 313.6 275.9 315.8C278.7 316.5 281.5 317 284.3 317.5Z" fill="#009BD5"/>
<path d="M284.3 291.9V317.5L276.1 332.1V306.5L284.3 291.9Z" fill="#2CC6FF"/>
<path d="M385.8 314C385.7 314.1 385.5 314.2 385.4 314.3C384.1 315.1 382.8 315.9 381.5 316.7C367.4 324.9 350.3 330.2 332.2 332.8C313.8 335.5 294.3 335.2 276 332.1V325.5L284.2 317.5C298.3 319.8 312.7 319.9 326.8 317.8C339.9 315.8 352.3 311.8 362.6 305.9C364 305.1 365.3 304.3 366.5 303.5C366.6 303.4 366.8 303.3 366.9 303.2L367.3 303.5L385.7 307.5V314H385.8Z" fill="#00A6E3"/>
<path d="M385.8 307.4C385.7 307.5 385.5 307.6 385.4 307.7C384.1 308.5 382.8 309.3 381.5 310.1C367.4 318.3 350.3 323.6 332.2 326.2C328.3 326.8 324.3 327.2 320.2 327.5C317.3 327.7 314.5 327.9 311.6 327.9C299.7 328.2 287.8 327.4 276 325.4L284.2 310.8C298.3 313.1 312.7 313.2 326.8 311.1C331.1 310.5 335.3 309.6 339.5 308.5C347.9 306.3 355.7 303.2 362.6 299.2C364 298.4 365.3 297.6 366.5 296.8C366.6 296.7 366.8 296.6 366.9 296.5L367.3 296.8L385.8 307.4Z" fill="#00BAFF"/>
<path d="M276 306.5V332.1C259.7 329.3 244.2 324.2 231.3 316.7C218.4 309.3 209.5 300.4 204.7 291C204.7 290.9 204.6 290.9 204.6 290.9C202 285.8 200.6 280.6 200.3 275.4H200.2V247.6L224.2 279.9L244.2 290.2L276 306.5Z" fill="#00A6E3"/>
<path d="M276 306.5V332.1C259.7 329.3 244.2 324.2 231.3 316.7C218.4 309.3 209.5 300.4 204.7 291C205.4 292.2 213.5 305.4 225.3 306.5C237.6 307.7 239.9 295.5 239.9 295.5L244.3 290.2L276 306.5Z" fill="#00A6E3"/>
<path d="M284.3 291.9L276.1 306.5C259.8 303.7 244.3 298.6 231.4 291.1C190 267.2 190 228.4 231.4 204.4C232.8 203.6 234.2 202.9 235.6 202.1L254.4 212.9C253 213.6 251.6 214.4 250.2 215.2C247.4 216.8 244.8 218.6 242.2 220.6C238 223.9 234.6 227.5 232.1 231.3C221.2 247.7 227.2 267 250.2 280.3C260 286 271.8 289.8 284.3 291.9Z" fill="#00BAFF"/>
<path d="M309 287.3C332.8 287.3 352.1 276.2 352.1 262.4C352.1 248.7 332.8 237.5 309 237.5C285.2 237.5 265.9 248.6 265.9 262.4C265.9 276.2 285.2 287.3 309 287.3Z" fill="#292A2C"/>
<path d="M309 281.4C332.8 281.4 352.1 270.3 352.1 256.5C352.1 242.8 332.8 231.6 309 231.6C285.2 231.6 265.9 242.7 265.9 256.5C265.9 270.3 285.2 281.4 309 281.4Z" fill="#78797C"/>
<path d="M316.2 278.2C316.1 278.5 315.8 278.8 315.4 279.1C314.3 279.7 312.4 279.7 311.3 279.1C310.9 278.9 310.6 278.6 310.5 278.2C310.3 277.7 310.6 277.1 311.3 276.7C312.4 276.1 314.3 276.1 315.4 276.7C316.1 277.1 316.4 277.7 316.2 278.2Z" fill="#CDCDCD"/>
<path d="M316.2 278.2C316.1 278.5 315.8 278.8 315.4 279.1C314.3 279.7 312.4 279.7 311.3 279.1C310.9 278.9 310.6 278.6 310.5 278.2C310.6 277.9 310.9 277.6 311.3 277.3C312.4 276.6 314.3 276.6 315.4 277.3C315.9 277.6 316.1 277.9 316.2 278.2Z" fill="#231F20"/>
<path d="M332.5 275.1C332.4 275.4 332.1 275.7 331.7 276C330.6 276.7 328.7 276.7 327.6 276C327.2 275.8 326.9 275.5 326.8 275.1C326.6 274.6 326.9 274 327.6 273.6C328.7 272.9 330.6 272.9 331.7 273.6C332.4 274 332.7 274.6 332.5 275.1Z" fill="#CDCDCD"/>
<path d="M332.5 275.1C332.4 275.4 332.1 275.7 331.7 276C330.6 276.7 328.7 276.7 327.6 276C327.2 275.8 326.9 275.5 326.8 275.1C326.9 274.8 327.2 274.5 327.6 274.2C328.7 273.5 330.6 273.5 331.7 274.2C332.1 274.5 332.4 274.8 332.5 275.1Z" fill="#231F20"/>
<path d="M344.7 267.4C344.6 267.7 344.3 268 343.9 268.3C342.8 268.9 340.9 268.9 339.8 268.3C339.4 268.1 339.1 267.8 339 267.4C338.8 266.9 339.1 266.3 339.8 265.9C340.9 265.2 342.8 265.2 343.9 265.9C344.6 266.3 344.9 266.8 344.7 267.4Z" fill="#CDCDCD"/>
<path d="M344.7 267.4C344.6 267.7 344.3 268 343.9 268.3C342.8 268.9 340.9 268.9 339.8 268.3C339.4 268.1 339.1 267.8 339 267.4C339.1 267.1 339.4 266.8 339.8 266.5C340.9 265.9 342.8 265.9 343.9 266.5C344.3 266.7 344.6 267 344.7 267.4Z" fill="#231F20"/>
<path d="M294.3 277.2C294.4 277.5 294.7 277.8 295.1 278.1C296.2 278.7 298.1 278.7 299.2 278.1C299.6 277.9 299.9 277.6 300 277.2C300.2 276.7 299.9 276.1 299.2 275.7C298.1 275 296.2 275 295.1 275.7C294.4 276.1 294.1 276.6 294.3 277.2Z" fill="#CDCDCD"/>
<path d="M294.3 277.2C294.4 277.5 294.7 277.8 295.1 278.1C296.2 278.8 298.1 278.8 299.2 278.1C299.6 277.9 299.9 277.6 300 277.2C299.9 276.9 299.6 276.6 299.2 276.3C298.1 275.6 296.2 275.6 295.1 276.3C294.7 276.5 294.4 276.8 294.3 277.2Z" fill="#231F20"/>
<path d="M278 270.7C278.1 271 278.4 271.3 278.8 271.6C279.9 272.2 281.8 272.2 282.9 271.6C283.3 271.4 283.6 271.1 283.7 270.7C283.9 270.2 283.6 269.6 282.9 269.2C281.8 268.5 279.9 268.5 278.8 269.2C278.1 269.6 277.9 270.2 278 270.7Z" fill="#CDCDCD"/>
<path d="M278 270.7C278.1 271 278.4 271.3 278.8 271.6C279.9 272.2 281.8 272.2 282.9 271.6C283.3 271.4 283.6 271.1 283.7 270.7C283.6 270.4 283.3 270.1 282.9 269.8C281.8 269.2 279.9 269.2 278.8 269.8C278.4 270.1 278.1 270.4 278 270.7Z" fill="#231F20"/>
<path d="M340.3 259.3C339.3 263 336.3 266.6 331.4 269.4C319 276.6 299 276.6 286.6 269.4C281.6 266.5 278.7 263 277.7 259.3C276.2 253.7 279.2 247.9 286.6 243.6C299 236.4 319 236.4 331.4 243.6C338.8 247.9 341.8 253.7 340.3 259.3Z" fill="#231F20"/>
<path d="M340.3 259.3C339.3 263 336.3 266.6 331.4 269.4C319 276.6 299 276.6 286.6 269.4C281.6 266.5 278.7 263 277.7 259.3C278.7 255.6 281.7 252 286.6 249.2C299 242 319 242 331.4 249.2C336.3 252 339.3 255.6 340.3 259.3Z" fill="#D8F4FF"/>
<path d="M296.2 193.8L302.7 197.5L309.2 193.8L302.7 190.1L296.2 193.8Z" fill="url(#paint27_linear)"/>
<path d="M296.2 193.8V201.3L302.7 205V197.5L296.2 193.8Z" fill="url(#paint28_linear)"/>
<path d="M309.2 193.8V201.3L302.7 205V197.5L309.2 193.8Z" fill="url(#paint29_linear)"/>
<path d="M318.9 206.8L322.1 208.7L325.3 206.8L322 204.9L318.9 206.8Z" fill="#C4C4C4"/>
<path d="M318.9 206.8V210.6L322.1 212.5V208.7L318.9 206.8Z" fill="#CDCDCD"/>
<path d="M325.4 206.8V210.6L322.2 212.5V208.7L325.4 206.8Z" fill="#BABABA"/>
<path d="M312.4 188.2L315.7 190.1L318.9 188.2L315.6 186.3L312.4 188.2Z" fill="url(#paint30_linear)"/>
<path d="M312.4 188.2V192L315.7 193.9V190L312.4 188.2Z" fill="url(#paint31_linear)"/>
<path d="M318.9 188.2V192L315.7 193.9V190L318.9 188.2Z" fill="url(#paint32_linear)"/>
<path d="M300.6 166.4L309.2 171.4L317.8 166.4L309.2 161.4L300.6 166.4Z" fill="url(#paint33_linear)"/>
<path d="M300.6 166.4V176.3L309.2 181.3V171.4L300.6 166.4Z" fill="url(#paint34_linear)"/>
<path d="M317.8 166.4V176.3L309.2 181.3V171.4L317.8 166.4Z" fill="url(#paint35_linear)"/>
<path d="M291 160.4L294.2 162.3L297.4 160.4L294.2 158.5L291 160.4Z" fill="url(#paint36_linear)"/>
<path d="M291 160.4V164.1L294.2 166V162.3L291 160.4Z" fill="url(#paint37_linear)"/>
<path d="M297.5 160.4V164.1L294.3 166V162.3L297.5 160.4Z" fill="url(#paint38_linear)"/>
<path d="M308.1 147.9L313.8 151.2L319.4 147.9L313.7 144.6L308.1 147.9Z" fill="#C4C4C4"/>
<path d="M308.1 147.9V154.4L313.8 157.7V151.2L308.1 147.9Z" fill="#CDCDCD"/>
<path d="M319.3 147.9V154.4L313.7 157.7V151.2L319.3 147.9Z" fill="#BABABA"/>
<path d="M324.2 164.6L326.6 166L329 164.6L326.6 163.2L324.2 164.6Z" fill="#C4C4C4"/>
<path d="M324.2 164.6V167.4L326.6 168.8V166L324.2 164.6Z" fill="#CDCDCD"/>
<path d="M329.1 164.6V167.4L326.7 168.8V166L329.1 164.6Z" fill="#BABABA"/>
<path d="M293.8 214.8L296.2 216.2L298.6 214.8L296.2 213.4L293.8 214.8Z" fill="#C4C4C4"/>
<path d="M293.8 214.8V217.6L296.2 219V216.2L293.8 214.8Z" fill="#CDCDCD"/>
<path d="M298.7 214.8V217.6L296.3 219V216.2L298.7 214.8Z" fill="#BABABA"/>
<path d="M301.2 231.1L309.2 235.7L317.2 231.1L309.2 226.5L301.2 231.1Z" fill="url(#paint39_linear)"/>
<path d="M301.2 231.1V240.3L309.2 244.9V235.7L301.2 231.1Z" fill="url(#paint40_linear)"/>
<path d="M317.2 231.1V240.3L309.2 244.9V235.7L317.2 231.1Z" fill="url(#paint41_linear)"/>
</g>
<defs>
<filter id="filter0_d" x="-15" y="-5" width="630" height="480" filterUnits="userSpaceOnUse" color-interpolation-filters="sRGB">
<feFlood flood-opacity="0" result="BackgroundImageFix"/>
<feColorMatrix in="SourceAlpha" type="matrix" values="0 0 0 0 0 0 0 0 0 0 0 0 0 0 0 0 0 0 127 0" result="hardAlpha"/>
<feOffset dy="10"/>
<feGaussianBlur stdDeviation="7.5"/>
<feColorMatrix type="matrix" values="0 0 0 0 0 0 0 0 0 0 0 0 0 0 0 0 0 0 0.25 0"/>
<feBlend mode="normal" in2="BackgroundImageFix" result="effect1_dropShadow"/>
<feBlend mode="normal" in="SourceGraphic" in2="effect1_dropShadow" result="shape"/>
</filter>
<linearGradient id="paint0_linear" x1="93.2061" y1="56.6737" x2="153.796" y2="56.6737" gradientUnits="userSpaceOnUse">
<stop stop-color="#71439A"/>
<stop offset="0.8668" stop-color="#A76CAD"/>
</linearGradient>
<linearGradient id="paint1_linear" x1="438.942" y1="150.454" x2="454.915" y2="150.454" gradientUnits="userSpaceOnUse">
<stop stop-color="#71439A"/>
<stop offset="0.8668" stop-color="#A76CAD"/>
</linearGradient>
<linearGradient id="paint2_linear" x1="446.922" y1="157.368" x2="454.913" y2="157.368" gradientUnits="userSpaceOnUse">
<stop stop-color="#71439A"/>
<stop offset="0.8668" stop-color="#A76CAD"/>
</linearGradient>
<linearGradient id="paint3_linear" x1="438.942" y1="157.371" x2="446.933" y2="157.371" gradientUnits="userSpaceOnUse">
<stop stop-color="#71439A"/>
<stop offset="0.8668" stop-color="#A76CAD"/>
</linearGradient>
<linearGradient id="paint4_linear" x1="415.649" y1="121.513" x2="424.411" y2="121.513" gradientUnits="userSpaceOnUse">
<stop stop-color="#71439A"/>
<stop offset="0.8668" stop-color="#A76CAD"/>
</linearGradient>
<linearGradient id="paint5_linear" x1="420.026" y1="125.306" x2="424.41" y2="125.306" gradientUnits="userSpaceOnUse">
<stop stop-color="#71439A"/>
<stop offset="0.8668" stop-color="#A76CAD"/>
</linearGradient>
<linearGradient id="paint6_linear" x1="415.649" y1="125.308" x2="420.032" y2="125.308" gradientUnits="userSpaceOnUse">
<stop stop-color="#71439A"/>
<stop offset="0.8668" stop-color="#A76CAD"/>
</linearGradient>
<linearGradient id="paint7_linear" x1="430.425" y1="117.228" x2="436.515" y2="117.228" gradientUnits="userSpaceOnUse">
<stop stop-color="#71439A"/>
<stop offset="0.8668" stop-color="#A76CAD"/>
</linearGradient>
<linearGradient id="paint8_linear" x1="433.468" y1="119.864" x2="436.514" y2="119.864" gradientUnits="userSpaceOnUse">
<stop stop-color="#71439A"/>
<stop offset="0.8668" stop-color="#A76CAD"/>
</linearGradient>
<linearGradient id="paint9_linear" x1="430.425" y1="119.865" x2="433.473" y2="119.865" gradientUnits="userSpaceOnUse">
<stop stop-color="#71439A"/>
<stop offset="0.8668" stop-color="#A76CAD"/>
</linearGradient>
<linearGradient id="paint10_linear" x1="241.745" y1="63.7697" x2="247.932" y2="63.7697" gradientUnits="userSpaceOnUse">
<stop stop-color="#71439A"/>
<stop offset="0.8668" stop-color="#A76CAD"/>
</linearGradient>
<linearGradient id="paint11_linear" x1="180.952" y1="25.8624" x2="188.758" y2="25.8624" gradientUnits="userSpaceOnUse">
<stop stop-color="#71439A"/>
<stop offset="0.8668" stop-color="#A76CAD"/>
</linearGradient>
<linearGradient id="paint12_linear" x1="189.742" y1="51.0693" x2="197.549" y2="51.0693" gradientUnits="userSpaceOnUse">
<stop stop-color="#71439A"/>
<stop offset="0.8668" stop-color="#A76CAD"/>
</linearGradient>
<linearGradient id="paint13_linear" x1="231.456" y1="92.2705" x2="237.558" y2="92.2705" gradientUnits="userSpaceOnUse">
<stop stop-color="#71439A"/>
<stop offset="0.8668" stop-color="#A76CAD"/>
</linearGradient>
<linearGradient id="paint14_linear" x1="119.737" y1="111.787" x2="128.759" y2="111.787" gradientUnits="userSpaceOnUse">
<stop stop-color="#71439A"/>
<stop offset="0.8668" stop-color="#A76CAD"/>
</linearGradient>
<linearGradient id="paint15_linear" x1="237.803" y1="139.885" x2="244.386" y2="139.885" gradientUnits="userSpaceOnUse">
<stop stop-color="#71439A"/>
<stop offset="0.8668" stop-color="#A76CAD"/>
</linearGradient>
<linearGradient id="paint16_linear" x1="145.142" y1="116.692" x2="151.414" y2="116.692" gradientUnits="userSpaceOnUse">
<stop stop-color="#71439A"/>
<stop offset="0.8668" stop-color="#A76CAD"/>
</linearGradient>
<linearGradient id="paint17_linear" x1="123.502" y1="155.628" x2="129.774" y2="155.628" gradientUnits="userSpaceOnUse">
<stop stop-color="#71439A"/>
<stop offset="0.8668" stop-color="#A76CAD"/>
</linearGradient>
<linearGradient id="paint18_linear" x1="144.541" y1="165.38" x2="151.834" y2="165.38" gradientUnits="userSpaceOnUse">
<stop stop-color="#71439A"/>
<stop offset="0.8668" stop-color="#A76CAD"/>
</linearGradient>
<linearGradient id="paint19_linear" x1="126.972" y1="310.148" x2="136.162" y2="310.148" gradientUnits="userSpaceOnUse">
<stop stop-color="#71439A"/>
<stop offset="0.8668" stop-color="#A76CAD"/>
</linearGradient>
<linearGradient id="paint20_linear" x1="207.67" y1="351.505" x2="219.723" y2="351.505" gradientUnits="userSpaceOnUse">
<stop stop-color="#71439A"/>
<stop offset="0.8668" stop-color="#A76CAD"/>
</linearGradient>
<linearGradient id="paint21_linear" x1="145.756" y1="302.227" x2="160.497" y2="302.227" gradientUnits="userSpaceOnUse">
<stop stop-color="#71439A"/>
<stop offset="0.8668" stop-color="#A76CAD"/>
</linearGradient>
<linearGradient id="paint22_linear" x1="140.125" y1="313.006" x2="153.985" y2="313.006" gradientUnits="userSpaceOnUse">
<stop stop-color="#71439A"/>
<stop offset="0.8668" stop-color="#A76CAD"/>
</linearGradient>
<linearGradient id="paint23_linear" x1="182.032" y1="323.294" x2="191.055" y2="323.294" gradientUnits="userSpaceOnUse">
<stop stop-color="#71439A"/>
<stop offset="0.8668" stop-color="#A76CAD"/>
</linearGradient>
<linearGradient id="paint24_linear" x1="176.157" y1="333.692" x2="186.706" y2="333.692" gradientUnits="userSpaceOnUse">
<stop stop-color="#71439A"/>
<stop offset="0.8668" stop-color="#A76CAD"/>
</linearGradient>
<linearGradient id="paint25_linear" x1="123.316" y1="302.607" x2="127.986" y2="302.607" gradientUnits="userSpaceOnUse">
<stop stop-color="#71439A"/>
<stop offset="0.8668" stop-color="#A76CAD"/>
</linearGradient>
<linearGradient id="paint26_linear" x1="217.151" y1="343.188" x2="221.981" y2="343.188" gradientUnits="userSpaceOnUse">
<stop stop-color="#71439A"/>
<stop offset="0.8668" stop-color="#A76CAD"/>
</linearGradient>
<linearGradient id="paint27_linear" x1="296.239" y1="193.768" x2="309.18" y2="193.768" gradientUnits="userSpaceOnUse">
<stop stop-color="#71439A"/>
<stop offset="0.8668" stop-color="#A76CAD"/>
</linearGradient>
<linearGradient id="paint28_linear" x1="296.239" y1="199.374" x2="302.717" y2="199.374" gradientUnits="userSpaceOnUse">
<stop stop-color="#71439A"/>
<stop offset="0.8668" stop-color="#A76CAD"/>
</linearGradient>
<linearGradient id="paint29_linear" x1="302.717" y1="199.378" x2="309.18" y2="199.378" gradientUnits="userSpaceOnUse">
<stop stop-color="#71439A"/>
<stop offset="0.8668" stop-color="#A76CAD"/>
</linearGradient>
<linearGradient id="paint30_linear" x1="312.426" y1="188.158" x2="318.918" y2="188.158" gradientUnits="userSpaceOnUse">
<stop stop-color="#71439A"/>
<stop offset="0.8668" stop-color="#A76CAD"/>
</linearGradient>
<linearGradient id="paint31_linear" x1="312.426" y1="190.97" x2="315.676" y2="190.97" gradientUnits="userSpaceOnUse">
<stop stop-color="#71439A"/>
<stop offset="0.8668" stop-color="#A76CAD"/>
</linearGradient>
<linearGradient id="paint32_linear" x1="315.675" y1="190.973" x2="318.918" y2="190.973" gradientUnits="userSpaceOnUse">
<stop stop-color="#71439A"/>
<stop offset="0.8668" stop-color="#A76CAD"/>
</linearGradient>
<linearGradient id="paint33_linear" x1="300.594" y1="166.365" x2="317.794" y2="166.365" gradientUnits="userSpaceOnUse">
<stop stop-color="#71439A"/>
<stop offset="0.8668" stop-color="#A76CAD"/>
</linearGradient>
<linearGradient id="paint34_linear" x1="300.594" y1="173.815" x2="309.204" y2="173.815" gradientUnits="userSpaceOnUse">
<stop stop-color="#71439A"/>
<stop offset="0.8668" stop-color="#A76CAD"/>
</linearGradient>
<linearGradient id="paint35_linear" x1="309.204" y1="173.82" x2="317.794" y2="173.82" gradientUnits="userSpaceOnUse">
<stop stop-color="#71439A"/>
<stop offset="0.8668" stop-color="#A76CAD"/>
</linearGradient>
<linearGradient id="paint36_linear" x1="291.041" y1="160.432" x2="297.488" y2="160.432" gradientUnits="userSpaceOnUse">
<stop stop-color="#71439A"/>
<stop offset="0.8668" stop-color="#A76CAD"/>
</linearGradient>
<linearGradient id="paint37_linear" x1="291.041" y1="163.225" x2="294.268" y2="163.225" gradientUnits="userSpaceOnUse">
<stop stop-color="#71439A"/>
<stop offset="0.8668" stop-color="#A76CAD"/>
</linearGradient>
<linearGradient id="paint38_linear" x1="294.268" y1="163.227" x2="297.487" y2="163.227" gradientUnits="userSpaceOnUse">
<stop stop-color="#71439A"/>
<stop offset="0.8668" stop-color="#A76CAD"/>
</linearGradient>
<linearGradient id="paint39_linear" x1="301.224" y1="231.068" x2="317.185" y2="231.068" gradientUnits="userSpaceOnUse">
<stop stop-color="#71439A"/>
<stop offset="0.8668" stop-color="#A76CAD"/>
</linearGradient>
<linearGradient id="paint40_linear" x1="301.224" y1="237.982" x2="309.212" y2="237.982" gradientUnits="userSpaceOnUse">
<stop stop-color="#71439A"/>
<stop offset="0.8668" stop-color="#A76CAD"/>
</linearGradient>
<linearGradient id="paint41_linear" x1="309.212" y1="237.988" x2="317.185" y2="237.988" gradientUnits="userSpaceOnUse">
<stop stop-color="#71439A"/>
<stop offset="0.8668" stop-color="#A76CAD"/>
</linearGradient>
</defs>
</svg>
