<svg width="678" height="490" viewBox="0 0 678 490" fill="none" xmlns="http://www.w3.org/2000/svg">
<g filter="url(#filter0_d)">
<path opacity="0.7" d="M149 171.7C149 171.7 89.7 252 123.5 290.3C157.3 328.6 165.5 290.3 165.5 290.3C165.5 290.3 198.8 275.6 149 171.7Z" fill="url(#paint0_linear)"/>
<path opacity="0.7" d="M111.9 182.7C111.9 182.7 70.4 276.7 130.1 293.5C189.9 310.3 117.3 215.1 111.9 182.7Z" fill="url(#paint1_linear)"/>
<path opacity="0.3" d="M147.4 289.6C147.4 289.6 129.2 254.6 189.4 189.5C189.3 189.5 215.5 280 147.4 289.6Z" fill="url(#paint2_linear)"/>
<path opacity="0.7" d="M75.9 211C75.9 211 134.1 228.9 155.6 275.9C177.1 322.9 118.9 299.6 118.9 299.6C118.9 299.6 75.5 274.7 75.9 211Z" fill="url(#paint3_linear)"/>
<path opacity="0.3" d="M208.8 205.7C208.8 205.7 140.6 242 143.3 289.2C146 336.5 218.4 263.4 208.8 205.7Z" fill="url(#paint4_linear)"/>
<path d="M233.9 350.7L195 393.7H89.7L50.8 350.7L89.7 277.8H195L233.9 350.7Z" fill="#F1F2F2"/>
<path d="M233.9 350.7L195 393.7H89.7C189.8 387.6 195 277.8 195 277.8L233.9 350.7Z" fill="url(#paint5_linear)"/>
<path d="M603.6 172.1H590.1V351.9H603.6V172.1Z" fill="url(#paint6_linear)"/>
<path d="M598.8 172.1H590.2V351.9H598.8V172.1Z" fill="url(#paint7_linear)"/>
<path d="M594.5 172.1H590.2V351.9H594.5V172.1Z" fill="url(#paint8_linear)"/>
<path opacity="0.3" d="M590.1 351.8H603.6V365.7C603.6 366.6 603.4 367.5 603.1 368.3C602.8 369.1 602.3 369.9 601.6 370.5C601 371.1 600.2 371.6 599.4 372C598.6 372.3 597.7 372.5 596.8 372.5C595 372.5 593.3 371.8 592 370.5C590.7 369.2 590 367.5 590 365.7V351.8H590.1Z" fill="url(#paint9_linear)"/>
<path opacity="0.3" d="M596.9 138.6L601.6 162L603.6 172H590.1L592.1 162L596.9 138.6Z" fill="url(#paint10_linear)"/>
<path opacity="0.3" d="M590.1 357.2H603.6V351.8H590.1V357.2Z" fill="url(#paint11_linear)"/>
<path opacity="0.3" d="M596.9 138.6L599.5 151.6L594.1 152.4L596.9 138.6Z" fill="url(#paint12_linear)"/>
<path opacity="0.3" d="M608.8 165.4L599.6 345L613.1 345.7L622.3 166.1L608.8 165.4Z" fill="url(#paint13_linear)"/>
<path opacity="0.3" d="M613.6 165.6L604.4 345.2L613 345.6L622.2 166L613.6 165.6Z" fill="#42B5E8"/>
<path opacity="0.3" d="M617.9 165.9L608.7 345.5L613 345.7L622.2 166.1L617.9 165.9Z" fill="url(#paint14_linear)"/>
<path d="M622.2 166.1L608.7 165.4L609.4 151.5C609.4 150.6 609.7 149.7 610 149C610.4 148.2 610.9 147.5 611.6 146.9C612.3 146.3 613 145.8 613.9 145.6C614.7 145.3 615.6 145.2 616.5 145.2C617.4 145.2 618.3 145.5 619 145.8C619.8 146.2 620.5 146.7 621.1 147.4C621.7 148.1 622.2 148.8 622.4 149.7C622.7 150.5 622.8 151.4 622.8 152.3L622.2 166.1Z" fill="url(#paint15_linear)"/>
<path opacity="0.3" d="M604.6 378.8L601.1 355.1L599.6 345L613.1 345.7L610.6 355.6L604.6 378.8Z" fill="url(#paint16_linear)"/>
<path d="M622.5 160.8L609 160.1L608.7 165.5L622.2 166.2L622.5 160.8Z" fill="url(#paint17_linear)"/>
<path opacity="0.3" d="M604.6 378.8L602.7 365.7L608.1 365.2L604.6 378.8Z" fill="url(#paint18_linear)"/>
<path d="M564 162.1L550.5 162.8L559.6 342.4L573.1 341.7L564 162.1Z" fill="url(#paint19_linear)"/>
<path d="M559.2 162.4L550.6 162.8L559.7 342.4L568.3 342L559.2 162.4Z" fill="url(#paint20_linear)"/>
<path d="M554.9 162.6L550.6 162.8L559.7 342.4L564 342.2L554.9 162.6Z" fill="url(#paint21_linear)"/>
<path opacity="0.3" d="M550.6 162.8L564.1 162.1L563.4 148.2C563.3 146.4 562.5 144.7 561.2 143.5C559.9 142.3 558.1 141.7 556.3 141.8C554.5 141.9 552.8 142.7 551.6 144C550.4 145.3 549.8 147.1 549.9 148.9L550.6 162.8Z" fill="url(#paint22_linear)"/>
<path opacity="0.3" d="M568.1 375.4L571.6 351.7L573.1 341.6L559.6 342.3L562.1 352.2L568.1 375.4Z" fill="url(#paint23_linear)"/>
<path opacity="0.3" d="M550.6 162.8L564.1 162.1L563.8 156.7L550.3 157.4L550.6 162.8Z" fill="url(#paint24_linear)"/>
<path opacity="0.3" d="M568.1 375.4L570 362.3L564.6 361.7L568.1 375.4Z" fill="url(#paint25_linear)"/>
<path opacity="0.5" d="M507.1 44.6L473.7 55.8L577.9 366.6L611.3 355.4L507.1 44.6Z" fill="url(#paint26_linear)"/>
<path opacity="0.3" d="M482.3 52.9L473.7 55.8L577.9 366.6L586.5 363.7L482.3 52.9Z" fill="url(#paint27_linear)"/>
<path opacity="0.3" d="M504.4 78.6L488 84.1L488.8 86.4L505.2 80.9L504.4 78.6Z" fill="url(#paint28_linear)"/>
<path opacity="0.3" d="M498.4 60.7999L482 66.2999L482.8 68.5999L499.2 63.0999L498.4 60.7999Z" fill="url(#paint29_linear)"/>
<path opacity="0.3" d="M510.4 96.4L494 101.9L494.8 104.2L511.2 98.7L510.4 96.4Z" fill="url(#paint30_linear)"/>
<path opacity="0.3" d="M516.3 114.2L499.9 119.7L500.7 122L517.1 116.5L516.3 114.2Z" fill="url(#paint31_linear)"/>
<path opacity="0.3" d="M522.3 131.9L505.9 137.4L506.7 139.7L523.1 134.2L522.3 131.9Z" fill="url(#paint32_linear)"/>
<path opacity="0.3" d="M528.3 149.7L511.9 155.2L512.7 157.5L529.1 152L528.3 149.7Z" fill="url(#paint33_linear)"/>
<path opacity="0.3" d="M534.2 167.5L517.8 173L518.6 175.3L535 169.8L534.2 167.5Z" fill="url(#paint34_linear)"/>
<path opacity="0.3" d="M540.2 185.3L523.8 190.8L524.6 193.1L541 187.6L540.2 185.3Z" fill="url(#paint35_linear)"/>
<path opacity="0.3" d="M546.2 203.1L529.8 208.6L530.6 210.9L547 205.4L546.2 203.1Z" fill="url(#paint36_linear)"/>
<path opacity="0.3" d="M552.1 220.9L535.7 226.4L536.5 228.7L552.9 223.2L552.1 220.9Z" fill="url(#paint37_linear)"/>
<path opacity="0.3" d="M558.1 238.7L541.7 244.2L542.5 246.5L558.9 241L558.1 238.7Z" fill="url(#paint38_linear)"/>
<path opacity="0.3" d="M564.1 256.5L547.7 262L548.5 264.3L564.9 258.8L564.1 256.5Z" fill="url(#paint39_linear)"/>
<path opacity="0.3" d="M570 274.3L553.6 279.8L554.4 282.1L570.8 276.6L570 274.3Z" fill="url(#paint40_linear)"/>
<path opacity="0.3" d="M576 292.1L559.6 297.6L560.4 299.9L576.8 294.4L576 292.1Z" fill="url(#paint41_linear)"/>
<path opacity="0.3" d="M582 309.9L565.6 315.4L566.4 317.7L582.8 312.2L582 309.9Z" fill="url(#paint42_linear)"/>
<path opacity="0.3" d="M587.9 327.6L571.5 333.1L572.3 335.4L588.7 329.9L587.9 327.6Z" fill="url(#paint43_linear)"/>
<path opacity="0.3" d="M593.9 345.4L577.5 350.9L578.3 353.2L594.7 347.7L593.9 345.4Z" fill="url(#paint44_linear)"/>
<path d="M536.4 388.7H612.2L627.3 203.9H521.3L536.4 388.7Z" fill="url(#paint45_linear)"/>
<path opacity="0.4" d="M521.3 203.9C521.3 203.9 539.8 324.8 612.2 388.7H536.4L521.3 203.9Z" fill="white"/>
<path d="M380.6 401.8H316.3L323.1 393.3C328.3 386.8 331.1 378.8 331.1 370.5V310.8H365.6V370.5C365.6 378.8 368.4 386.8 373.6 393.3L380.6 401.8Z" fill="url(#paint46_linear)"/>
<path d="M380.6 401.8H316.3V407.1H380.6V401.8Z" fill="url(#paint47_linear)"/>
<path d="M365.8 317.4V363.9L331.3 351.1V317.4H365.8Z" fill="url(#paint48_linear)"/>
<path d="M533 87.6V287.5H164V87.6C164 87 164.1 86.3 164.3 85.7C164.7 84.6 165.4 83.7 166.3 83.1C167.2 82.5 168.3 82.1 169.4 82.1H527.4C528.1 82.1 528.8 82.2 529.5 82.5C530.2 82.8 530.8 83.2 531.3 83.7C531.8 84.2 532.2 84.8 532.5 85.5C532.8 86.1 533 86.8 533 87.6Z" fill="#231F20"/>
<path d="M164 287.5H533V324.5C533 327 532 329.5 530.2 331.2C528.4 333 526 334 523.5 334H173.5C171 334 168.5 333 166.8 331.2C165 329.4 164 327 164 324.5V287.5Z" fill="url(#paint49_linear)"/>
<path d="M524.6 95.7C524.6 92.9 522.4 90.7 519.6 90.7H177.8C175 90.7 172.8 92.9 172.8 95.7V274.8C172.8 277.6 175 279.8 177.8 279.8H519.6C522.4 279.8 524.6 277.6 524.6 274.8V95.7Z" fill="url(#paint50_linear)"/>
<path d="M357.7 312.9C358.9 307.8 355.8 302.7 350.7 301.5C345.6 300.3 340.5 303.4 339.3 308.5C338.1 313.6 341.2 318.7 346.3 319.9C351.4 321.1 356.5 318 357.7 312.9Z" fill="#231F20"/>
<path opacity="0.8" d="M273.8 201.3H199.3C197.1 201.3 195.4 203.1 195.4 205.2V253.4C195.4 255.6 197.2 257.3 199.3 257.3H273.8C276 257.3 277.7 255.5 277.7 253.4V205.2C277.8 203 276 201.3 273.8 201.3Z" fill="url(#paint51_linear)"/>
<path opacity="0.9" d="M497.6 112.8H199.3C197.1 112.8 195.4 114.6 195.4 116.7V180.9C195.4 183.1 197.2 184.8 199.3 184.8H497.6C499.8 184.8 501.5 183 501.5 180.9V116.7C501.6 114.5 499.8 112.8 497.6 112.8Z" fill="url(#paint52_linear)"/>
<path opacity="0.5" d="M497.6 209.1H299.4C298.4 209.1 297.4 208.7 296.6 207.9C295.9 207.2 295.4 206.2 295.4 205.1C295.4 204.1 295.8 203.1 296.6 202.3C297.3 201.6 298.3 201.1 299.4 201.1H497.6C498.1 201.1 498.6 201.2 499.1 201.4C499.6 201.6 500 201.9 500.4 202.3C500.8 202.7 501.1 203.1 501.3 203.6C501.5 204.1 501.6 204.6 501.6 205.1C501.6 205.6 501.5 206.1 501.3 206.6C501.1 207.1 500.8 207.5 500.4 207.9C500 208.3 499.6 208.6 499.1 208.8C498.7 209 498.2 209.1 497.6 209.1Z" fill="url(#paint53_linear)"/>
<path opacity="0.5" d="M497.6 257.3H299.4C298.4 257.3 297.4 256.9 296.6 256.1C295.9 255.4 295.4 254.4 295.4 253.3C295.4 252.3 295.8 251.3 296.6 250.5C297.3 249.8 298.3 249.3 299.4 249.3H497.6C498.1 249.3 498.6 249.4 499.1 249.6C499.6 249.8 500 250.1 500.4 250.5C500.8 250.9 501.1 251.3 501.3 251.8C501.5 252.3 501.6 252.8 501.6 253.3C501.6 253.8 501.5 254.3 501.3 254.8C501.1 255.3 500.8 255.7 500.4 256.1C500 256.5 499.6 256.8 499.1 257C498.7 257.2 498.2 257.3 497.6 257.3Z" fill="url(#paint54_linear)"/>
<path opacity="0.5" d="M497.6 233.4H299.4C297.2 233.4 295.5 235.2 295.5 237.3C295.5 239.5 297.3 241.2 299.4 241.2H497.6C499.8 241.2 501.5 239.4 501.5 237.3C501.6 235.1 499.8 233.4 497.6 233.4Z" fill="url(#paint55_linear)"/>
<path opacity="0.5" d="M497.6 225.2H299.4C298.4 225.2 297.4 224.8 296.6 224C295.9 223.3 295.4 222.3 295.4 221.2C295.4 220.2 295.8 219.2 296.6 218.4C297.3 217.7 298.3 217.2 299.4 217.2H497.6C498.6 217.2 499.6 217.6 500.4 218.4C501.1 219.1 501.6 220.1 501.6 221.2C501.6 221.7 501.5 222.2 501.3 222.7C501.1 223.2 500.8 223.6 500.4 224C500 224.4 499.6 224.7 499.1 224.9C498.7 225.1 498.2 225.2 497.6 225.2Z" fill="url(#paint56_linear)"/>
<path opacity="0.3" d="M371.7 91.8L185.3 285.4L173.9 297.2V95.4C174.3 94.3 175 93.4 175.9 92.8C176.8 92.2 177.9 91.8 179 91.8H371.7Z" fill="white"/>
<path opacity="0.3" d="M492.9 90.7L329.4 280.4H254.6L415.7 90.7H492.9Z" fill="white"/>
<path d="M204.5 229.4H159.2V242.4H204.5V229.4Z" fill="url(#paint57_linear)"/>
<path d="M224.9 226.3H148.3C147.1 226.3 145.9 226.5 144.8 227C143.7 227.5 142.7 228.1 141.8 229C140.9 229.9 140.3 230.9 139.8 232C139.3 233.1 139.1 234.3 139.1 235.5V404.9C139.1 407.3 140.1 409.7 141.8 411.4C143.5 413.1 145.9 414.1 148.3 414.1H224.9C226.1 414.1 227.3 413.9 228.4 413.4C229.5 412.9 230.5 412.3 231.4 411.4C232.3 410.5 232.9 409.5 233.4 408.4C233.9 407.3 234.1 406.1 234.1 404.9V235.5C234.1 234.3 233.9 233.1 233.4 232C232.9 230.9 232.3 229.9 231.4 229C230.5 228.1 229.5 227.5 228.4 227C227.3 226.5 226.1 226.3 224.9 226.3ZM173.7 231.2C173.7 231 173.8 230.8 173.9 230.7C174 230.6 174 230.6 174.1 230.6C174.2 230.6 174.3 230.5 174.4 230.5H195.3C195.4 230.5 195.5 230.5 195.6 230.6C195.7 230.6 195.8 230.7 195.8 230.8C195.9 230.9 195.9 230.9 196 231C196 231.1 196.1 231.2 196.1 231.3C196.1 231.5 196 231.7 195.9 231.8C195.8 231.9 195.6 232 195.4 232H174.5C174.4 232 174.3 232 174.2 232C174.1 232 174 231.9 174 231.9C173.9 231.8 173.9 231.8 173.8 231.7C173.7 231.4 173.7 231.3 173.7 231.2ZM198.1 231.2C198.1 231.1 198.1 230.9 198.2 230.8C198.3 230.7 198.4 230.6 198.5 230.5C198.6 230.4 198.8 230.4 198.9 230.5C199 230.5 199.2 230.6 199.3 230.7C199.4 230.8 199.5 230.9 199.5 231.1C199.5 231.2 199.5 231.4 199.5 231.5C199.4 231.6 199.4 231.7 199.2 231.8C199 231.9 199 231.9 198.8 231.9C198.6 231.9 198.4 231.8 198.3 231.7C198.2 231.6 198.1 231.4 198.1 231.2Z" fill="#231F20"/>
<path d="M208.7 229.1C205.7 233.5 200.4 236.1 194.8 236.1H178.4C172.8 236.1 167.5 233.5 164.5 229.1H147.2C146.6 229.1 145.9 229.2 145.4 229.5C144.8 229.7 144.3 230.1 143.8 230.5C143.4 230.9 143 231.5 142.8 232.1C142.6 232.7 142.4 233.3 142.4 233.9V406C142.4 406.6 142.5 407.3 142.8 407.8C143 408.4 143.4 408.9 143.8 409.4C144.2 409.8 144.8 410.2 145.4 410.4C146 410.6 146.6 410.8 147.2 410.8H226C227.3 410.8 228.5 410.3 229.4 409.4C230.3 408.5 230.8 407.3 230.8 406V233.9C230.8 233.3 230.7 232.6 230.4 232.1C230.2 231.5 229.8 231 229.4 230.5C229 230.1 228.4 229.7 227.8 229.5C227.2 229.3 226.6 229.1 226 229.1H208.7Z" fill="url(#paint58_linear)"/>
<path d="M164.5 229.1C164.6 229.2 164.6 229.2 164.7 229.3C164.8 229.4 164.9 229.6 165 229.7C165.1 229.8 165.2 229.9 165.3 230.1C165.4 230.2 165.5 230.3 165.6 230.5C165.7 230.6 165.8 230.7 165.9 230.9C166 231 166.1 231.1 166.2 231.2C166.3 231.3 166.4 231.4 166.6 231.5C166.8 231.7 167.1 231.9 167.3 232.1C167.4 232.2 167.5 232.3 167.7 232.4L168.1 232.7C168.2 232.8 168.4 232.9 168.5 233C168.6 233.1 168.8 233.2 168.9 233.3C169 233.4 169.2 233.5 169.3 233.6C169.6 233.8 169.9 233.9 170.2 234.1C170.3 234.2 170.5 234.2 170.6 234.3C170.7 234.4 170.9 234.4 171 234.5C171.1 234.6 171.3 234.6 171.5 234.7C171.8 234.8 172.1 234.9 172.4 235.1C172.6 235.2 172.7 235.2 172.9 235.3C173.1 235.4 173.3 235.4 173.6 235.5H173.7C173.9 235.6 174.2 235.6 174.4 235.7C174.6 235.7 174.7 235.8 174.9 235.8C175.1 235.8 175.2 235.9 175.4 235.9C175.5 235.9 175.5 235.9 175.6 235.9C175.7 235.9 175.8 235.9 175.9 235.9C176 235.9 176.1 235.9 176.2 235.9H176.5C176.6 235.9 176.8 235.9 176.9 235.9C177.2 235.9 177.5 235.9 177.8 236C178 236 178.3 236 178.5 236H194.9C195.1 236 195.3 236 195.5 236C195.8 236 196 236 196.3 236C196.5 236 196.7 236 196.8 235.9C196.9 235.9 197 235.9 197.1 235.9C197.2 235.9 197.4 235.9 197.5 235.8C197.7 235.8 197.9 235.7 198.1 235.7C198.3 235.7 198.5 235.6 198.7 235.6C198.9 235.6 199.1 235.5 199.3 235.4C199.5 235.3 199.7 235.3 199.9 235.2C200.1 235.1 200.3 235.1 200.6 235C200.8 234.9 200.9 234.9 201.1 234.8C201.2 234.7 201.4 234.7 201.5 234.6C201.9 234.4 202.3 234.3 202.7 234.1C202.8 234 203 233.9 203.1 233.9C203.2 233.9 203.4 233.7 203.5 233.7C203.6 233.6 203.8 233.5 203.9 233.5C204 233.4 204.2 233.3 204.3 233.2C204.4 233.1 204.5 233 204.7 232.9C204.8 232.8 205 232.7 205.1 232.6C205.3 232.4 205.5 232.3 205.7 232.1C205.9 231.9 206.1 231.8 206.2 231.6C206.3 231.5 206.4 231.4 206.5 231.3C206.6 231.2 206.8 231.1 206.9 230.9C207 230.8 207.1 230.6 207.3 230.5C207.4 230.4 207.5 230.3 207.6 230.2C207.7 230.1 207.8 229.9 207.9 229.8C208.1 229.5 208.3 229.3 208.5 229L164.5 229.1ZM195.8 231.7C195.7 231.8 195.7 231.8 195.6 231.9C195.5 231.9 195.4 232 195.3 232H174.4C174.3 232 174.2 232 174.1 232C174 232 173.9 231.9 173.9 231.9C173.8 231.8 173.8 231.8 173.7 231.7C173.7 231.6 173.6 231.5 173.6 231.4C173.6 231.2 173.7 231 173.8 230.9C173.9 230.8 173.9 230.8 174 230.7C174.1 230.7 174.2 230.6 174.3 230.6H195.2C195.4 230.6 195.6 230.7 195.7 230.8C195.8 230.9 195.9 231.1 195.9 231.3C195.9 231.4 195.9 231.5 195.8 231.6C195.7 231.7 195.9 231.6 195.8 231.7ZM198.8 231.9C198.7 231.9 198.5 231.9 198.4 231.8C198.3 231.7 198.2 231.6 198.1 231.5C198 231.4 198 231.2 198.1 231.1C198.1 231 198.2 230.8 198.3 230.7C198.4 230.6 198.5 230.5 198.7 230.5C198.8 230.5 199 230.5 199.1 230.5C199.2 230.6 199.3 230.6 199.4 230.8C199.5 230.9 199.5 231 199.5 231.2C199.5 231.3 199.5 231.4 199.4 231.5C199.4 231.6 199.3 231.7 199.3 231.7C199.2 231.8 199.2 231.8 199.1 231.8C199 231.8 198.9 231.9 198.8 231.9Z" fill="#231F20"/>
<path opacity="0.9" d="M222.9 240.3H150.3C149.4 240.3 148.7 241 148.7 241.9V274C148.7 274.9 149.4 275.6 150.3 275.6H222.9C223.8 275.6 224.5 274.9 224.5 274V241.9C224.6 241 223.8 240.3 222.9 240.3Z" fill="url(#paint59_linear)"/>
<path opacity="0.5" d="M170.3 285.3H150.3C149.4 285.3 148.7 286 148.7 286.9V306.9C148.7 307.8 149.4 308.5 150.3 308.5H170.3C171.2 308.5 171.9 307.8 171.9 306.9V286.9C172 286 171.2 285.3 170.3 285.3Z" fill="url(#paint60_linear)"/>
<path opacity="0.5" d="M223.2 318.1H203.2C202.3 318.1 201.6 318.8 201.6 319.7V339.7C201.6 340.6 202.3 341.3 203.2 341.3H223.2C224.1 341.3 224.8 340.6 224.8 339.7V319.7C224.8 318.8 224.1 318.1 223.2 318.1Z" fill="url(#paint61_linear)"/>
<path opacity="0.5" d="M170.3 349.6H150.3C149.4 349.6 148.7 350.3 148.7 351.2V371.2C148.7 372.1 149.4 372.8 150.3 372.8H170.3C171.2 372.8 171.9 372.1 171.9 371.2V351.2C172 350.3 171.2 349.6 170.3 349.6Z" fill="url(#paint62_linear)"/>
<path opacity="0.5" d="M223.2 349.6H203.2C202.3 349.6 201.6 350.3 201.6 351.2V371.2C201.6 372.1 202.3 372.8 203.2 372.8H223.2C224.1 372.8 224.8 372.1 224.8 371.2V351.2C224.8 350.3 224.1 349.6 223.2 349.6Z" fill="url(#paint63_linear)"/>
<path opacity="0.5" d="M196.7 349.6H176.7C175.8 349.6 175.1 350.3 175.1 351.2V371.2C175.1 372.1 175.8 372.8 176.7 372.8H196.7C197.6 372.8 198.3 372.1 198.3 371.2V351.2C198.4 350.3 197.7 349.6 196.7 349.6Z" fill="url(#paint64_linear)"/>
<g opacity="0.5">
<path opacity="0.5" d="M222.9 288.5H180.1C179.7 288.5 179.2 288.3 178.9 288C178.6 287.7 178.4 287.3 178.4 286.8C178.4 286.4 178.6 285.9 178.9 285.6C179.2 285.3 179.6 285.1 180.1 285.1H222.9C223.1 285.1 223.3 285.1 223.5 285.2C223.7 285.3 223.9 285.4 224 285.6C224.2 285.8 224.3 285.9 224.4 286.1C224.5 286.3 224.5 286.5 224.5 286.7C224.5 286.9 224.5 287.1 224.4 287.3C224.3 287.5 224.2 287.7 224 287.8C223.8 288 223.7 288.1 223.5 288.2C223.3 288.4 223.1 288.5 222.9 288.5Z" fill="url(#paint65_linear)"/>
<path opacity="0.5" d="M222.9 308.6H180.1C179.7 308.6 179.2 308.4 178.9 308.1C178.6 307.8 178.4 307.4 178.4 306.9C178.4 306.5 178.6 306 178.9 305.7C179.2 305.4 179.6 305.2 180.1 305.2H222.9C223.1 305.2 223.3 305.2 223.5 305.3C223.7 305.4 223.9 305.5 224 305.7C224.2 305.9 224.3 306 224.4 306.2C224.5 306.4 224.5 306.6 224.5 306.8C224.5 307 224.5 307.2 224.4 307.4C224.3 307.6 224.2 307.8 224 307.9C223.8 308.1 223.7 308.2 223.5 308.3C223.3 308.5 223.1 308.6 222.9 308.6Z" fill="url(#paint66_linear)"/>
<path opacity="0.5" d="M222.9 301.9H180.1C179.7 301.9 179.2 301.7 178.9 301.4C178.6 301.1 178.4 300.7 178.4 300.2C178.4 299.8 178.6 299.3 178.9 299C179.2 298.7 179.6 298.5 180.1 298.5H222.9C223.1 298.5 223.3 298.5 223.5 298.6C223.7 298.7 223.9 298.8 224 299C224.2 299.2 224.3 299.3 224.4 299.5C224.5 299.7 224.5 299.9 224.5 300.1C224.5 300.3 224.5 300.5 224.4 300.7C224.3 300.9 224.2 301.1 224 301.2C223.8 301.4 223.7 301.5 223.5 301.6C223.3 301.8 223.1 301.9 222.9 301.9Z" fill="url(#paint67_linear)"/>
<path opacity="0.5" d="M222.9 291.9H180.1C179.2 291.9 178.5 292.6 178.5 293.5C178.5 294.4 179.2 295.1 180.1 295.1H222.9C223.8 295.1 224.5 294.4 224.5 293.5C224.6 292.6 223.8 291.9 222.9 291.9Z" fill="url(#paint68_linear)"/>
</g>
<g opacity="0.5">
<path opacity="0.5" d="M193.4 321.4H150.6C150.2 321.4 149.7 321.2 149.4 320.9C149.1 320.6 148.9 320.2 148.9 319.7C148.9 319.5 148.9 319.3 149 319.1C149.1 318.9 149.2 318.7 149.4 318.6C149.6 318.4 149.7 318.3 149.9 318.2C150.1 318.1 150.3 318.1 150.5 318.1H193.3C193.7 318.1 194.2 318.3 194.5 318.6C194.8 318.9 195 319.3 195 319.8C195 320.2 194.8 320.7 194.5 321C194.2 321.2 193.8 321.4 193.4 321.4Z" fill="url(#paint69_linear)"/>
<path opacity="0.5" d="M193.4 341.5H150.6C150.4 341.5 150.2 341.5 150 341.4C149.8 341.3 149.6 341.2 149.5 341C149.3 340.8 149.2 340.7 149.1 340.5C149 340.3 149 340.1 149 339.9C149 339.7 149 339.5 149.1 339.3C149.2 339.1 149.3 338.9 149.5 338.8C149.7 338.6 149.8 338.5 150 338.4C150.2 338.3 150.4 338.3 150.6 338.3H193.4C193.8 338.3 194.3 338.5 194.6 338.8C194.9 339.1 195.1 339.5 195.1 340C195.1 340.4 194.9 340.9 194.6 341.2C194.2 341.3 193.8 341.5 193.4 341.5Z" fill="url(#paint70_linear)"/>
<path opacity="0.5" d="M193.4 334.8H150.6C150.4 334.8 150.2 334.8 150 334.7C149.8 334.6 149.6 334.5 149.5 334.3C149.3 334.1 149.2 334 149.1 333.8C149 333.6 149 333.4 149 333.2C149 332.8 149.2 332.3 149.5 332C149.8 331.7 150.2 331.5 150.7 331.5H193.5C193.9 331.5 194.4 331.7 194.7 332C195 332.3 195.2 332.7 195.2 333.2C195.2 333.6 195 334.1 194.7 334.4C194.2 334.6 193.8 334.8 193.4 334.8Z" fill="url(#paint71_linear)"/>
<path opacity="0.5" d="M193.4 328.1H150.6C150.4 328.1 150.2 328.1 150 328C149.8 327.9 149.6 327.8 149.5 327.6C149.3 327.4 149.2 327.3 149.1 327.1C149 326.9 149 326.7 149 326.5C149 326.1 149.2 325.6 149.5 325.3C149.8 325 150.2 324.8 150.7 324.8H193.5C193.9 324.8 194.4 325 194.7 325.3C195 325.6 195.2 326 195.2 326.5C195.2 326.9 195 327.4 194.7 327.7C194.2 327.9 193.8 328.1 193.4 328.1Z" fill="url(#paint72_linear)"/>
</g>
</g>
<defs>
<filter id="filter0_d" x="-11" y="-25" width="700" height="550" filterUnits="userSpaceOnUse" color-interpolation-filters="sRGB">
<feFlood flood-opacity="0" result="BackgroundImageFix"/>
<feColorMatrix in="SourceAlpha" type="matrix" values="0 0 0 0 0 0 0 0 0 0 0 0 0 0 0 0 0 0 127 0" result="hardAlpha"/>
<feOffset dy="25"/>
<feGaussianBlur stdDeviation="25"/>
<feColorMatrix type="matrix" values="0 0 0 0 0 0 0 0 0 0 0 0 0 0 0 0 0 0 0.25 0"/>
<feBlend mode="normal" in2="BackgroundImageFix" result="effect1_dropShadow"/>
<feBlend mode="normal" in="SourceGraphic" in2="effect1_dropShadow" result="shape"/>
</filter>
<linearGradient id="paint0_linear" x1="134.707" y1="305.372" x2="164.647" y2="171.266" gradientUnits="userSpaceOnUse">
<stop stop-color="#71439A"/>
<stop offset="0.8668" stop-color="#A76CAD"/>
</linearGradient>
<linearGradient id="paint1_linear" x1="118.372" y1="294.197" x2="142.004" y2="182.13" gradientUnits="userSpaceOnUse">
<stop stop-color="#71439A"/>
<stop offset="0.8668" stop-color="#A76CAD"/>
</linearGradient>
<linearGradient id="paint2_linear" x1="139.405" y1="222.753" x2="182.554" y2="247.727" gradientUnits="userSpaceOnUse">
<stop stop-color="#2269F9"/>
<stop offset="1" stop-color="#165BCB"/>
</linearGradient>
<linearGradient id="paint3_linear" x1="112.06" y1="304.845" x2="123.308" y2="208.21" gradientUnits="userSpaceOnUse">
<stop stop-color="#71439A"/>
<stop offset="0.8668" stop-color="#A76CAD"/>
</linearGradient>
<linearGradient id="paint4_linear" x1="212.615" y1="238.468" x2="146.199" y2="276.357" gradientUnits="userSpaceOnUse">
<stop stop-color="#2269F9"/>
<stop offset="1" stop-color="#165BCB"/>
</linearGradient>
<linearGradient id="paint5_linear" x1="159.995" y1="393.831" x2="169.996" y2="274.338" gradientUnits="userSpaceOnUse">
<stop stop-color="#71439A"/>
<stop offset="0.8668" stop-color="#A76CAD"/>
</linearGradient>
<linearGradient id="paint6_linear" x1="2500.77" y1="642.481" x2="2470.49" y2="636.428" gradientUnits="userSpaceOnUse">
<stop stop-color="#71439A"/>
<stop offset="0.8668" stop-color="#A76CAD"/>
</linearGradient>
<linearGradient id="paint7_linear" x1="3879.71" y1="-470.518" x2="3907.51" y2="-476.715" gradientUnits="userSpaceOnUse">
<stop stop-color="#71439A"/>
<stop offset="0.8668" stop-color="#A76CAD"/>
</linearGradient>
<linearGradient id="paint8_linear" x1="3423.77" y1="135.113" x2="3427.84" y2="134.931" gradientUnits="userSpaceOnUse">
<stop stop-color="#71439A"/>
<stop offset="0.8668" stop-color="#A76CAD"/>
</linearGradient>
<linearGradient id="paint9_linear" x1="118.835" y1="-2927.44" x2="123.822" y2="-2893.16" gradientUnits="userSpaceOnUse">
<stop stop-color="#2269F9"/>
<stop offset="1" stop-color="#165BCB"/>
</linearGradient>
<linearGradient id="paint10_linear" x1="1309.47" y1="1207.22" x2="1332.3" y2="1240.76" gradientUnits="userSpaceOnUse">
<stop stop-color="#2269F9"/>
<stop offset="1" stop-color="#165BCB"/>
</linearGradient>
<linearGradient id="paint11_linear" x1="-1677.32" y1="354.531" x2="-1690.8" y2="354.531" gradientUnits="userSpaceOnUse">
<stop stop-color="#2269F9"/>
<stop offset="1" stop-color="#165BCB"/>
</linearGradient>
<linearGradient id="paint12_linear" x1="611.756" y1="321.127" x2="613.504" y2="340.898" gradientUnits="userSpaceOnUse">
<stop stop-color="#2269F9"/>
<stop offset="1" stop-color="#165BCB"/>
</linearGradient>
<linearGradient id="paint13_linear" x1="-174.571" y1="215.568" x2="-312.383" y2="208.554" gradientUnits="userSpaceOnUse">
<stop stop-color="white"/>
<stop offset="1" stop-color="#00BAFF"/>
</linearGradient>
<linearGradient id="paint14_linear" x1="-148.359" y1="216.769" x2="-217.977" y2="213.214" gradientUnits="userSpaceOnUse">
<stop stop-color="white"/>
<stop offset="1" stop-color="#00BAFF"/>
</linearGradient>
<linearGradient id="paint15_linear" x1="459.616" y1="-995.522" x2="464.266" y2="-961.169" gradientUnits="userSpaceOnUse">
<stop stop-color="#71439A"/>
<stop offset="0.8668" stop-color="#A76CAD"/>
</linearGradient>
<linearGradient id="paint16_linear" x1="6.2852" y1="204.003" x2="21.2872" y2="207.942" gradientUnits="userSpaceOnUse">
<stop stop-color="#2269F9"/>
<stop offset="1" stop-color="#165BCB"/>
</linearGradient>
<linearGradient id="paint17_linear" x1="2849.34" y1="276.523" x2="2863.06" y2="277.22" gradientUnits="userSpaceOnUse">
<stop stop-color="#71439A"/>
<stop offset="0.8668" stop-color="#A76CAD"/>
</linearGradient>
<linearGradient id="paint18_linear" x1="2866.6" y1="371.955" x2="2872.02" y2="371.955" gradientUnits="userSpaceOnUse">
<stop stop-color="#2269F9"/>
<stop offset="1" stop-color="#165BCB"/>
</linearGradient>
<linearGradient id="paint19_linear" x1="3088.27" y1="623.025" x2="3057.86" y2="618.562" gradientUnits="userSpaceOnUse">
<stop stop-color="#71439A"/>
<stop offset="0.8668" stop-color="#A76CAD"/>
</linearGradient>
<linearGradient id="paint20_linear" x1="3421.05" y1="-538.522" x2="3448.42" y2="-546.088" gradientUnits="userSpaceOnUse">
<stop stop-color="#71439A"/>
<stop offset="0.8668" stop-color="#A76CAD"/>
</linearGradient>
<linearGradient id="paint21_linear" x1="3406.76" y1="-25.7933" x2="3410.85" y2="-26.193" gradientUnits="userSpaceOnUse">
<stop stop-color="#71439A"/>
<stop offset="0.8668" stop-color="#A76CAD"/>
</linearGradient>
<linearGradient id="paint22_linear" x1="459.195" y1="-566.706" x2="463.845" y2="-532.354" gradientUnits="userSpaceOnUse">
<stop stop-color="#2269F9"/>
<stop offset="1" stop-color="white"/>
</linearGradient>
<linearGradient id="paint23_linear" x1="2278.94" y1="807.26" x2="2293.93" y2="811.199" gradientUnits="userSpaceOnUse">
<stop stop-color="#2269F9"/>
<stop offset="1" stop-color="#165BCB"/>
</linearGradient>
<linearGradient id="paint24_linear" x1="-1793.3" y1="279.289" x2="-1807.02" y2="279.987" gradientUnits="userSpaceOnUse">
<stop stop-color="#2269F9"/>
<stop offset="1" stop-color="#165BCB"/>
</linearGradient>
<linearGradient id="paint25_linear" x1="2904.63" y1="368.627" x2="2910.06" y2="368.627" gradientUnits="userSpaceOnUse">
<stop stop-color="#2269F9"/>
<stop offset="1" stop-color="#165BCB"/>
</linearGradient>
<linearGradient id="paint26_linear" x1="802.665" y1="117.473" x2="792.343" y2="120.97" gradientUnits="userSpaceOnUse">
<stop stop-color="white"/>
<stop offset="1" stop-color="#00BAFF"/>
</linearGradient>
<linearGradient id="paint27_linear" x1="661.512" y1="172.47" x2="650.48" y2="175.602" gradientUnits="userSpaceOnUse">
<stop stop-color="#2269F9"/>
<stop offset="1" stop-color="#165BCB"/>
</linearGradient>
<linearGradient id="paint28_linear" x1="2840.88" y1="-704.009" x2="2857.2" y2="-709.486" gradientUnits="userSpaceOnUse">
<stop stop-color="#2269F9"/>
<stop offset="1" stop-color="#165BCB"/>
</linearGradient>
<linearGradient id="paint29_linear" x1="2846.21" y1="-725.59" x2="2862.54" y2="-731.067" gradientUnits="userSpaceOnUse">
<stop stop-color="#2269F9"/>
<stop offset="1" stop-color="#165BCB"/>
</linearGradient>
<linearGradient id="paint30_linear" x1="2835.52" y1="-682.418" x2="2851.84" y2="-687.895" gradientUnits="userSpaceOnUse">
<stop stop-color="#2269F9"/>
<stop offset="1" stop-color="#165BCB"/>
</linearGradient>
<linearGradient id="paint31_linear" x1="2830.18" y1="-660.827" x2="2846.5" y2="-666.303" gradientUnits="userSpaceOnUse">
<stop stop-color="#2269F9"/>
<stop offset="1" stop-color="#165BCB"/>
</linearGradient>
<linearGradient id="paint32_linear" x1="2824.83" y1="-639.251" x2="2841.16" y2="-644.728" gradientUnits="userSpaceOnUse">
<stop stop-color="#2269F9"/>
<stop offset="1" stop-color="#165BCB"/>
</linearGradient>
<linearGradient id="paint33_linear" x1="2819.82" y1="-617.321" x2="2836.15" y2="-622.798" gradientUnits="userSpaceOnUse">
<stop stop-color="#2269F9"/>
<stop offset="1" stop-color="#165BCB"/>
</linearGradient>
<linearGradient id="paint34_linear" x1="2814.14" y1="-596.072" x2="2830.47" y2="-601.548" gradientUnits="userSpaceOnUse">
<stop stop-color="#2269F9"/>
<stop offset="1" stop-color="#165BCB"/>
</linearGradient>
<linearGradient id="paint35_linear" x1="2809.08" y1="-574.359" x2="2825.39" y2="-579.83" gradientUnits="userSpaceOnUse">
<stop stop-color="#2269F9"/>
<stop offset="1" stop-color="#165BCB"/>
</linearGradient>
<linearGradient id="paint36_linear" x1="2803.55" y1="-552.591" x2="2819.87" y2="-558.062" gradientUnits="userSpaceOnUse">
<stop stop-color="#2269F9"/>
<stop offset="1" stop-color="#165BCB"/>
</linearGradient>
<linearGradient id="paint37_linear" x1="2798.21" y1="-531.003" x2="2814.53" y2="-536.474" gradientUnits="userSpaceOnUse">
<stop stop-color="#2269F9"/>
<stop offset="1" stop-color="#165BCB"/>
</linearGradient>
<linearGradient id="paint38_linear" x1="2792.7" y1="-509.942" x2="2809" y2="-515.414" gradientUnits="userSpaceOnUse">
<stop stop-color="#2269F9"/>
<stop offset="1" stop-color="#165BCB"/>
</linearGradient>
<linearGradient id="paint39_linear" x1="2787.54" y1="-488.419" x2="2803.85" y2="-493.891" gradientUnits="userSpaceOnUse">
<stop stop-color="#2269F9"/>
<stop offset="1" stop-color="#165BCB"/>
</linearGradient>
<linearGradient id="paint40_linear" x1="2782.18" y1="-466.257" x2="2798.49" y2="-471.728" gradientUnits="userSpaceOnUse">
<stop stop-color="#2269F9"/>
<stop offset="1" stop-color="#165BCB"/>
</linearGradient>
<linearGradient id="paint41_linear" x1="2776.67" y1="-445.09" x2="2793" y2="-450.567" gradientUnits="userSpaceOnUse">
<stop stop-color="#2269F9"/>
<stop offset="1" stop-color="#165BCB"/>
</linearGradient>
<linearGradient id="paint42_linear" x1="2771.37" y1="-423.394" x2="2787.69" y2="-428.871" gradientUnits="userSpaceOnUse">
<stop stop-color="#2269F9"/>
<stop offset="1" stop-color="#165BCB"/>
</linearGradient>
<linearGradient id="paint43_linear" x1="2766.15" y1="-401.416" x2="2782.48" y2="-406.893" gradientUnits="userSpaceOnUse">
<stop stop-color="#2269F9"/>
<stop offset="1" stop-color="#165BCB"/>
</linearGradient>
<linearGradient id="paint44_linear" x1="2760.64" y1="-380.339" x2="2776.96" y2="-385.816" gradientUnits="userSpaceOnUse">
<stop stop-color="#2269F9"/>
<stop offset="1" stop-color="#165BCB"/>
</linearGradient>
<linearGradient id="paint45_linear" x1="550.655" y1="384.844" x2="584.408" y2="199.137" gradientUnits="userSpaceOnUse">
<stop stop-color="#75DAFF"/>
<stop offset="1" stop-color="#00BAFF"/>
</linearGradient>
<linearGradient id="paint46_linear" x1="316.366" y1="356.257" x2="380.625" y2="356.257" gradientUnits="userSpaceOnUse">
<stop stop-color="white"/>
<stop offset="1" stop-color="#A5A6A6"/>
</linearGradient>
<linearGradient id="paint47_linear" x1="348.217" y1="368.592" x2="348.549" y2="411.664" gradientUnits="userSpaceOnUse">
<stop stop-color="white"/>
<stop offset="1" stop-color="#48494A"/>
</linearGradient>
<linearGradient id="paint48_linear" x1="347.129" y1="296.754" x2="348.318" y2="329.57" gradientUnits="userSpaceOnUse">
<stop stop-color="white"/>
<stop offset="1" stop-color="#979899"/>
</linearGradient>
<linearGradient id="paint49_linear" x1="347.078" y1="209.565" x2="348.538" y2="309.029" gradientUnits="userSpaceOnUse">
<stop stop-color="white"/>
<stop offset="1" stop-color="#AAAAAA"/>
</linearGradient>
<linearGradient id="paint50_linear" x1="343.385" y1="279.682" x2="354.314" y2="84.5215" gradientUnits="userSpaceOnUse">
<stop stop-color="#75DAFF"/>
<stop offset="1" stop-color="#00BAFF"/>
</linearGradient>
<linearGradient id="paint51_linear" x1="236.051" y1="214.857" x2="251.794" y2="638.581" gradientUnits="userSpaceOnUse">
<stop stop-color="white"/>
<stop offset="1" stop-color="#2166F0"/>
</linearGradient>
<linearGradient id="paint52_linear" x1="348.739" y1="204.974" x2="350.623" y2="629.583" gradientUnits="userSpaceOnUse">
<stop stop-color="white"/>
<stop offset="1" stop-color="#2166F0"/>
</linearGradient>
<linearGradient id="paint53_linear" x1="398.565" y1="305.049" x2="398.585" y2="353.269" gradientUnits="userSpaceOnUse">
<stop stop-color="white"/>
<stop offset="1" stop-color="#2166F0"/>
</linearGradient>
<linearGradient id="paint54_linear" x1="398.548" y1="310.138" x2="398.57" y2="358.361" gradientUnits="userSpaceOnUse">
<stop stop-color="white"/>
<stop offset="1" stop-color="#2166F0"/>
</linearGradient>
<linearGradient id="paint55_linear" x1="398.555" y1="308.44" x2="398.576" y2="356.66" gradientUnits="userSpaceOnUse">
<stop stop-color="white"/>
<stop offset="1" stop-color="#2166F0"/>
</linearGradient>
<linearGradient id="paint56_linear" x1="398.559" y1="306.744" x2="398.579" y2="354.964" gradientUnits="userSpaceOnUse">
<stop stop-color="white"/>
<stop offset="1" stop-color="#2166F0"/>
</linearGradient>
<linearGradient id="paint57_linear" x1="181.803" y1="226.299" x2="181.754" y2="214.947" gradientUnits="userSpaceOnUse">
<stop stop-color="white"/>
<stop offset="1" stop-color="#00BAFF"/>
</linearGradient>
<linearGradient id="paint58_linear" x1="167.921" y1="407.21" x2="206.565" y2="226.88" gradientUnits="userSpaceOnUse">
<stop stop-color="#75DAFF"/>
<stop offset="1" stop-color="#00BAFF"/>
</linearGradient>
<linearGradient id="paint59_linear" x1="185.941" y1="219.116" x2="193.344" y2="644.123" gradientUnits="userSpaceOnUse">
<stop stop-color="white"/>
<stop offset="1" stop-color="#2166F0"/>
</linearGradient>
<linearGradient id="paint60_linear" x1="179.448" y1="405.441" x2="198.486" y2="513.473" gradientUnits="userSpaceOnUse">
<stop stop-color="white"/>
<stop offset="1" stop-color="#2166F0"/>
</linearGradient>
<linearGradient id="paint61_linear" x1="225.211" y1="398.203" x2="244.226" y2="506.213" gradientUnits="userSpaceOnUse">
<stop stop-color="white"/>
<stop offset="1" stop-color="#2166F0"/>
</linearGradient>
<linearGradient id="paint62_linear" x1="168.655" y1="408.583" x2="187.67" y2="516.617" gradientUnits="userSpaceOnUse">
<stop stop-color="white"/>
<stop offset="1" stop-color="#2166F0"/>
</linearGradient>
<linearGradient id="paint63_linear" x1="219.926" y1="399.728" x2="238.941" y2="507.76" gradientUnits="userSpaceOnUse">
<stop stop-color="white"/>
<stop offset="1" stop-color="#2166F0"/>
</linearGradient>
<linearGradient id="paint64_linear" x1="194.3" y1="404.152" x2="213.339" y2="512.184" gradientUnits="userSpaceOnUse">
<stop stop-color="white"/>
<stop offset="1" stop-color="#2166F0"/>
</linearGradient>
<linearGradient id="paint65_linear" x1="201.508" y1="293.526" x2="201.799" y2="673.557" gradientUnits="userSpaceOnUse">
<stop stop-color="white"/>
<stop offset="1" stop-color="#2166F0"/>
</linearGradient>
<linearGradient id="paint66_linear" x1="201.493" y1="294.853" x2="201.784" y2="674.879" gradientUnits="userSpaceOnUse">
<stop stop-color="white"/>
<stop offset="1" stop-color="#2166F0"/>
</linearGradient>
<linearGradient id="paint67_linear" x1="201.497" y1="294.412" x2="201.788" y2="674.439" gradientUnits="userSpaceOnUse">
<stop stop-color="white"/>
<stop offset="1" stop-color="#2166F0"/>
</linearGradient>
<linearGradient id="paint68_linear" x1="201.502" y1="293.968" x2="201.793" y2="673.998" gradientUnits="userSpaceOnUse">
<stop stop-color="white"/>
<stop offset="1" stop-color="#2166F0"/>
</linearGradient>
<linearGradient id="paint69_linear" x1="171.961" y1="299.846" x2="172.252" y2="679.876" gradientUnits="userSpaceOnUse">
<stop stop-color="white"/>
<stop offset="1" stop-color="#2166F0"/>
</linearGradient>
<linearGradient id="paint70_linear" x1="171.946" y1="301.169" x2="172.237" y2="681.235" gradientUnits="userSpaceOnUse">
<stop stop-color="white"/>
<stop offset="1" stop-color="#2166F0"/>
</linearGradient>
<linearGradient id="paint71_linear" x1="171.951" y1="300.729" x2="172.242" y2="680.792" gradientUnits="userSpaceOnUse">
<stop stop-color="white"/>
<stop offset="1" stop-color="#2166F0"/>
</linearGradient>
<linearGradient id="paint72_linear" x1="171.956" y1="300.291" x2="172.247" y2="680.32" gradientUnits="userSpaceOnUse">
<stop stop-color="white"/>
<stop offset="1" stop-color="#2166F0"/>
</linearGradient>
</defs>
</svg>
