<svg width="600" height="450" viewBox="0 0 600 450" fill="none" xmlns="http://www.w3.org/2000/svg">
<g clip-path="url(#clip0)">
<rect width="600" height="450" fill="white"/>
<g filter="url(#filter0_d)">
<path d="M147.651 239.932L149.094 240.744C150.086 241.285 151.168 241.556 152.25 241.556C153.332 241.556 154.414 241.285 155.406 240.744L219.965 203.482C220.326 203.302 220.596 203.031 220.777 202.67C220.957 202.309 221.047 201.949 221.047 201.588C221.047 201.227 220.957 200.866 220.777 200.505C220.596 200.144 220.326 199.873 219.965 199.693L218.522 198.881C217.531 198.34 216.449 198.069 215.367 198.069C214.285 198.069 213.203 198.34 212.211 198.881L147.651 236.143C147.291 236.323 147.02 236.594 146.84 236.955C146.66 237.316 146.569 237.677 146.569 238.037C146.569 238.398 146.66 238.759 146.84 239.12C147.02 239.481 147.291 239.752 147.651 239.932Z" fill="#DADBDC"/>
<path d="M273.434 351.447L298.861 336.74L315.812 346.484L426.717 293.073L404.717 331.868L297.689 378.874L273.434 351.447Z" fill="#E8E8E8"/>
<path d="M145.578 223.692L212.03 185.348C214.014 184.175 215.727 182.46 216.899 180.476C218.072 178.491 218.703 176.145 218.703 173.799V42.3454C218.703 41.7138 218.522 40.992 218.162 40.4507C217.801 39.9094 217.35 39.368 216.719 39.0072C216.178 38.6463 215.457 38.4658 214.826 38.4658C214.194 38.4658 213.473 38.6463 212.932 39.0072L146.479 77.4418C144.496 78.6147 142.782 80.3289 141.61 82.3138C140.438 84.2987 139.807 86.6445 139.807 88.9903V220.444C139.807 221.076 139.987 221.797 140.348 222.339C140.709 222.88 141.159 223.421 141.791 223.782C142.332 224.143 143.053 224.324 143.684 224.324C144.315 224.233 144.946 224.053 145.578 223.692Z" fill="#00BAFF"/>
<path d="M146.209 225.497L141.971 223.602L142.332 221.527L149.004 222.068L146.209 225.497Z" fill="#00BAFF"/>
<path d="M216.268 38.8267L220.777 40.8115L218.072 43.428L214.826 40.2702L216.268 38.8267Z" fill="#00BAFF"/>
<path d="M149.996 225.677L216.449 187.332C218.432 186.16 220.145 184.445 221.318 182.46C222.49 180.476 223.121 178.13 223.121 175.784V44.3302C223.121 43.6987 222.941 42.9769 222.58 42.4356C222.219 41.8942 221.768 41.3529 221.137 40.992C220.596 40.6311 219.875 40.4507 219.244 40.4507C218.613 40.4507 217.891 40.6311 217.35 40.992L150.897 79.4267C148.914 80.5996 147.201 82.3138 146.028 84.2987C144.856 86.2836 144.225 88.6294 144.225 90.9751V222.429C144.225 223.06 144.405 223.782 144.766 224.324C145.127 224.865 145.578 225.406 146.209 225.767C146.75 226.128 147.471 226.308 148.102 226.308C148.733 226.128 149.365 225.948 149.996 225.677Z" fill="#231F20"/>
<path d="M220.596 172.987C220.596 175.153 220.055 177.318 218.883 179.213C217.801 181.107 216.178 182.731 214.285 183.814L152.07 219.722C151.529 219.993 150.898 220.173 150.266 220.173C149.635 220.173 149.004 219.993 148.463 219.722C147.922 219.452 147.471 218.91 147.111 218.369C146.84 217.828 146.66 217.196 146.66 216.565V93.5916C146.66 91.4263 147.201 89.261 148.373 87.3663C149.455 85.4716 151.078 83.9379 152.971 82.765L163.972 76.3592L201.842 54.4352L215.096 46.7663C215.637 46.4956 216.268 46.3152 216.899 46.3152C217.531 46.3152 218.162 46.4956 218.703 46.7663C219.244 47.037 219.695 47.5783 220.055 48.1196C220.326 48.661 220.506 49.2925 220.506 49.9241L220.596 172.987Z" fill="#F8F8F8"/>
<path d="M202.022 53.6232L199.858 62.2845C199.768 62.7356 199.497 63.1867 199.227 63.5476C198.956 63.9085 198.596 64.2694 198.145 64.5401L171.816 79.5169C171.455 79.6974 171.005 79.8778 170.644 79.8778C170.193 79.8778 169.832 79.7876 169.472 79.5169L163.34 76.0885L202.022 53.6232Z" fill="#231F20"/>
<path d="M112.306 269.525C123.667 269.525 132.864 264.202 132.864 257.616C132.864 251.029 123.667 245.706 112.306 245.706C100.945 245.706 91.7482 251.029 91.7482 257.616C91.7482 264.202 100.945 269.525 112.306 269.525Z" fill="#E0E0E0"/>
<path d="M147.651 90.2534C158.291 71.7578 158.291 51.8187 147.651 45.5934C137.012 39.4583 119.7 49.3827 109.06 67.8783C98.4205 86.3738 98.4205 106.313 109.06 112.538C119.7 118.764 137.012 108.749 147.651 90.2534Z" fill="url(#paint0_linear)"/>
<path d="M112.306 267.269C123.667 267.269 132.864 261.946 132.864 255.36C132.864 248.774 123.667 243.451 112.306 243.451C100.945 243.451 91.7482 248.774 91.7482 255.36C91.7482 261.946 100.945 267.269 112.306 267.269Z" fill="#00BAFF"/>
<path d="M107.347 255.45C110.232 255.45 112.486 254.097 112.486 252.473C112.486 250.849 110.142 249.496 107.347 249.496C104.462 249.496 102.207 250.849 102.207 252.473C102.117 254.097 104.462 255.45 107.347 255.45Z" fill="#FFBDCD"/>
<path d="M127.364 253.465C128.446 256.352 127.093 259.42 123.216 261.676C119.429 263.841 114.29 264.653 109.421 264.112C107.708 261.405 107.527 258.157 112.306 255.36C116.724 252.834 122.044 252.292 127.364 253.465Z" fill="#FFBDCD"/>
<path d="M112.306 265.465C123.667 265.465 132.864 260.142 132.864 253.556C132.864 246.969 123.667 241.646 112.306 241.646C100.945 241.646 91.7482 246.969 91.7482 253.556C91.7482 260.142 100.945 265.465 112.306 265.465Z" fill="#E0E0E0"/>
<path d="M112.306 263.209C123.667 263.209 132.864 257.886 132.864 251.3C132.864 244.714 123.667 239.391 112.306 239.391C100.945 239.391 91.7482 244.714 91.7482 251.3C91.7482 257.886 100.945 263.209 112.306 263.209Z" fill="#00BAFF"/>
<path d="M107.347 251.39C110.232 251.39 112.486 250.037 112.486 248.413C112.486 246.789 110.142 245.436 107.347 245.436C104.462 245.436 102.207 246.789 102.207 248.413C102.117 250.037 104.462 251.39 107.347 251.39Z" fill="#FFBDCD"/>
<path d="M127.364 249.405C128.446 252.293 127.093 255.36 123.216 257.616C119.429 259.781 114.29 260.593 109.421 260.052C107.708 257.345 107.527 254.097 112.306 251.3C116.724 248.774 122.044 248.233 127.364 249.405Z" fill="#FFBDCD"/>
<path d="M112.306 261.405C123.667 261.405 132.864 256.082 132.864 249.496C132.864 242.909 123.667 237.586 112.306 237.586C100.945 237.586 91.7482 242.909 91.7482 249.496C91.7482 256.082 100.945 261.405 112.306 261.405Z" fill="#E0E0E0"/>
<path d="M112.306 259.149C123.667 259.149 132.864 253.826 132.864 247.24C132.864 240.654 123.667 235.331 112.306 235.331C100.945 235.331 91.7482 240.654 91.7482 247.24C91.7482 253.826 100.945 259.149 112.306 259.149Z" fill="#00BAFF"/>
<path d="M107.347 247.33C110.232 247.33 112.486 245.977 112.486 244.353C112.486 242.729 110.142 241.376 107.347 241.376C104.462 241.376 102.207 242.729 102.207 244.353C102.117 245.977 104.462 247.33 107.347 247.33Z" fill="#FFBDCD"/>
<path d="M127.364 245.345C128.446 248.233 127.093 251.3 123.216 253.556C119.429 255.721 114.29 256.533 109.421 255.992C107.708 253.285 107.527 250.037 112.306 247.24C116.724 244.714 122.044 244.263 127.364 245.345Z" fill="#FFBDCD"/>
<path d="M112.306 257.345C123.667 257.345 132.864 252.022 132.864 245.436C132.864 238.849 123.667 233.526 112.306 233.526C100.945 233.526 91.7482 238.849 91.7482 245.436C91.7482 252.022 100.945 257.345 112.306 257.345Z" fill="#E0E0E0"/>
<path d="M112.306 255.089C123.667 255.089 132.864 249.766 132.864 243.18C132.864 236.594 123.667 231.271 112.306 231.271C100.945 231.271 91.7482 236.594 91.7482 243.18C91.7482 249.766 100.945 255.089 112.306 255.089Z" fill="#00BAFF"/>
<path d="M107.347 243.27C110.232 243.27 112.486 241.917 112.486 240.293C112.486 238.669 110.142 237.316 107.347 237.316C104.462 237.316 102.207 238.669 102.207 240.293C102.117 241.917 104.462 243.27 107.347 243.27Z" fill="#FFBDCD"/>
<path d="M127.364 241.285C128.446 244.172 127.093 247.24 123.216 249.496C119.429 251.661 114.29 252.473 109.421 251.932C107.708 249.225 107.527 245.977 112.306 243.18C116.724 240.654 122.044 240.203 127.364 241.285Z" fill="#FFBDCD"/>
<path d="M112.306 253.285C123.667 253.285 132.864 247.962 132.864 241.376C132.864 234.789 123.667 229.466 112.306 229.466C100.945 229.466 91.7482 234.789 91.7482 241.376C91.7482 247.962 100.945 253.285 112.306 253.285Z" fill="#E0E0E0"/>
<path d="M112.306 251.029C123.667 251.029 132.864 245.706 132.864 239.12C132.864 232.534 123.667 227.211 112.306 227.211C100.945 227.211 91.7482 232.534 91.7482 239.12C91.7482 245.706 100.945 251.029 112.306 251.029Z" fill="#00BAFF"/>
<path d="M107.347 239.21C110.232 239.21 112.486 237.857 112.486 236.233C112.486 234.609 110.142 233.256 107.347 233.256C104.462 233.256 102.207 234.609 102.207 236.233C102.117 237.857 104.462 239.21 107.347 239.21Z" fill="white"/>
<path d="M127.364 237.225C128.446 240.112 127.093 243.18 123.216 245.436C119.429 247.601 114.29 248.413 109.421 247.872C107.708 245.165 107.527 241.917 112.306 239.12C116.724 236.594 122.044 236.143 127.364 237.225Z" fill="white"/>
<path d="M133.766 232.985C135.208 226.579 127.454 219.361 116.454 216.745C105.363 214.219 95.2646 217.286 93.7318 223.692C92.2891 230.098 100.043 237.316 111.044 239.932C122.134 242.548 132.323 239.391 133.766 232.985Z" fill="#E0E0E0"/>
<path d="M134.307 230.82C135.75 224.414 127.995 217.196 116.995 214.58C105.904 212.053 95.8056 215.121 94.2728 221.527C92.8301 227.933 100.584 235.15 111.585 237.767C122.675 240.293 132.864 237.135 134.307 230.82Z" fill="#00BAFF"/>
<path d="M115.101 223.331C115.462 221.707 113.568 219.903 110.773 219.271C107.978 218.64 105.453 219.361 105.093 220.985C104.732 222.609 106.626 224.414 109.421 225.045C112.126 225.677 114.741 224.955 115.101 223.331Z" fill="white"/>
<path d="M129.438 227.662C129.889 230.729 127.815 233.436 123.577 234.699C119.429 235.962 114.2 235.601 109.601 233.977C108.519 230.91 109.06 227.752 114.38 226.128C119.159 224.684 124.388 225.406 129.438 227.662Z" fill="white"/>
<path d="M103.38 291.72C109.872 291.72 115.191 288.652 115.191 284.863C115.191 281.073 109.872 278.006 103.38 278.006C96.8876 278.006 91.5677 281.073 91.5677 284.863C91.5677 288.652 96.7974 291.72 103.38 291.72Z" fill="#E0E0E0"/>
<path d="M103.38 290.366C109.872 290.366 115.191 287.299 115.191 283.509C115.191 279.72 109.872 276.652 103.38 276.652C96.8876 276.652 91.5677 279.72 91.5677 283.509C91.5677 287.299 96.7974 290.366 103.38 290.366Z" fill="#00BAFF"/>
<path d="M100.494 283.6C102.117 283.6 103.47 282.878 103.47 281.885C103.47 280.983 102.117 280.171 100.494 280.171C98.8713 280.171 97.5188 280.893 97.5188 281.885C97.5188 282.878 98.7811 283.6 100.494 283.6Z" fill="#FFBDCD"/>
<path d="M111.946 282.517C112.577 284.141 111.765 285.945 109.601 287.208C107.437 288.472 104.462 288.923 101.666 288.652C100.675 287.118 100.584 285.224 103.289 283.6C105.814 282.156 108.88 281.885 111.946 282.517Z" fill="#FFBDCD"/>
<path d="M103.38 289.374C109.872 289.374 115.191 286.306 115.191 282.517C115.191 278.728 109.872 275.66 103.38 275.66C96.8876 275.66 91.5677 278.728 91.5677 282.517C91.5677 286.306 96.7974 289.374 103.38 289.374Z" fill="#E0E0E0"/>
<path d="M103.38 288.021C109.872 288.021 115.191 284.953 115.191 281.164C115.191 277.374 109.872 274.307 103.38 274.307C96.8876 274.307 91.5677 277.374 91.5677 281.164C91.5677 284.953 96.7974 288.021 103.38 288.021Z" fill="#00BAFF"/>
<path d="M100.494 281.254C102.117 281.254 103.47 280.532 103.47 279.54C103.47 278.637 102.117 277.825 100.494 277.825C98.8713 277.825 97.5188 278.547 97.5188 279.54C97.5188 280.532 98.7811 281.254 100.494 281.254Z" fill="#FFBDCD"/>
<path d="M111.946 280.171C112.577 281.795 111.765 283.6 109.601 284.863C107.437 286.126 104.462 286.577 101.666 286.306C100.675 284.772 100.584 282.878 103.289 281.254C105.814 279.81 108.88 279.54 111.946 280.171Z" fill="#FFBDCD"/>
<path d="M103.38 287.028C109.872 287.028 115.191 283.96 115.191 280.171C115.191 276.382 109.872 273.405 103.38 273.405C96.8876 273.405 91.5677 276.472 91.5677 280.261C91.5677 284.051 96.7974 287.028 103.38 287.028Z" fill="#E0E0E0"/>
<path d="M103.38 285.765C109.872 285.765 115.191 282.697 115.191 278.908C115.191 275.119 109.872 272.051 103.38 272.051C96.8876 272.051 91.5677 275.119 91.5677 278.908C91.5677 282.697 96.7974 285.765 103.38 285.765Z" fill="#00BAFF"/>
<path d="M100.494 278.998C102.117 278.998 103.47 278.276 103.47 277.284C103.47 276.382 102.117 275.57 100.494 275.57C98.8713 275.57 97.5188 276.292 97.5188 277.284C97.5188 278.186 98.7811 278.998 100.494 278.998Z" fill="#FFBDCD"/>
<path d="M111.946 277.825C112.577 279.449 111.765 281.254 109.601 282.517C107.437 283.78 104.462 284.231 101.666 283.96C100.675 282.427 100.584 280.532 103.289 278.908C105.814 277.464 108.88 277.194 111.946 277.825Z" fill="#FFBDCD"/>
<path d="M103.38 284.772C109.872 284.772 115.191 281.705 115.191 277.916C115.191 274.126 109.872 271.059 103.38 271.059C96.8876 271.059 91.5677 274.126 91.5677 277.916C91.5677 281.705 96.7974 284.772 103.38 284.772Z" fill="#E0E0E0"/>
<path d="M103.38 283.419C109.872 283.419 115.191 280.352 115.191 276.562C115.191 272.773 109.872 269.705 103.38 269.705C96.8876 269.705 91.5677 272.773 91.5677 276.562C91.5677 280.352 96.7974 283.419 103.38 283.419Z" fill="#00BAFF"/>
<path d="M100.494 276.652C102.117 276.652 103.47 275.931 103.47 274.938C103.47 274.036 102.117 273.224 100.494 273.224C98.8713 273.224 97.5188 273.946 97.5188 274.938C97.5188 275.84 98.7811 276.652 100.494 276.652Z" fill="#FFBDCD"/>
<path d="M111.946 275.479C112.577 277.103 111.765 278.908 109.601 280.171C107.437 281.434 104.462 281.885 101.666 281.615C100.675 280.081 100.584 278.186 103.289 276.562C105.814 275.119 108.88 274.848 111.946 275.479Z" fill="#FFBDCD"/>
<path d="M103.38 282.427C109.872 282.427 115.191 279.359 115.191 275.57C115.191 271.78 109.872 268.713 103.38 268.713C96.8876 268.713 91.5677 271.78 91.5677 275.57C91.5677 279.359 96.7974 282.427 103.38 282.427Z" fill="#E0E0E0"/>
<path d="M103.38 281.073C109.872 281.073 115.191 278.006 115.191 274.217C115.191 270.427 109.872 267.36 103.38 267.36C96.8876 267.36 91.5677 270.427 91.5677 274.217C91.5677 278.006 96.7974 281.073 103.38 281.073Z" fill="#00BAFF"/>
<path d="M100.494 274.307C102.117 274.307 103.47 273.585 103.47 272.593C103.47 271.69 102.117 270.878 100.494 270.878C98.8713 270.878 97.5188 271.6 97.5188 272.593C97.5188 273.585 98.7811 274.307 100.494 274.307Z" fill="white"/>
<path d="M111.946 273.134C112.577 274.758 111.765 276.562 109.601 277.825C107.437 279.089 104.462 279.54 101.666 279.269C100.675 277.735 100.584 275.84 103.289 274.216C105.814 272.863 108.88 272.502 111.946 273.134Z" fill="white"/>
<path d="M115.642 270.788C116.454 267.089 112.036 262.939 105.724 261.495C99.4123 260.052 93.5515 261.766 92.74 265.465C91.9285 269.164 96.3467 273.314 102.658 274.758C108.97 276.201 114.831 274.397 115.642 270.788Z" fill="#E0E0E0"/>
<path d="M115.913 269.525C116.724 265.826 112.306 261.676 105.994 260.232C99.6828 258.789 93.822 260.503 93.0105 264.202C92.199 267.901 96.6172 272.051 102.929 273.495C109.24 274.938 115.101 273.134 115.913 269.525Z" fill="#00BAFF"/>
<path d="M104.912 265.194C105.093 264.292 104.011 263.209 102.388 262.848C100.765 262.488 99.3221 262.939 99.1418 263.841C98.9615 264.743 100.043 265.826 101.666 266.187C103.199 266.548 104.732 266.096 104.912 265.194Z" fill="white"/>
<path d="M113.118 267.721C113.388 269.435 112.216 271.059 109.691 271.781C107.347 272.502 104.281 272.322 101.666 271.329C101.035 269.615 101.396 267.721 104.462 266.818C107.257 266.006 110.232 266.367 113.118 267.721Z" fill="white"/>
<path d="M251.343 191.032C259.097 191.032 265.319 187.423 265.319 182.912C265.319 178.491 259.097 174.792 251.343 174.792C243.589 174.792 237.367 178.401 237.367 182.912C237.367 187.423 243.679 191.032 251.343 191.032Z" fill="#E0E0E0"/>
<path d="M251.343 189.498C259.097 189.498 265.319 185.889 265.319 181.378C265.319 176.867 259.097 173.258 251.343 173.258C243.589 173.258 237.367 176.867 237.367 181.378C237.367 185.889 243.679 189.498 251.343 189.498Z" fill="#00BAFF"/>
<path d="M248.007 181.468C249.901 181.468 251.523 180.566 251.523 179.483C251.523 178.401 249.991 177.498 248.007 177.498C246.113 177.498 244.49 178.401 244.49 179.483C244.49 180.566 246.023 181.468 248.007 181.468Z" fill="#FFBDCD"/>
<path d="M261.622 180.115C262.343 182.1 261.442 184.175 258.827 185.708C256.302 187.152 252.696 187.693 249.45 187.332C248.278 185.438 248.097 183.272 251.433 181.378C254.319 179.664 257.925 179.393 261.622 180.115Z" fill="#FFBDCD"/>
<path d="M251.343 188.325C259.097 188.325 265.319 184.716 265.319 180.205C265.319 175.784 259.097 172.085 251.343 172.085C243.589 172.085 237.367 175.694 237.367 180.205C237.367 184.716 243.679 188.325 251.343 188.325Z" fill="#E0E0E0"/>
<path d="M251.343 186.701C259.097 186.701 265.319 183.092 265.319 178.581C265.319 174.16 259.097 170.461 251.343 170.461C243.589 170.461 237.367 174.07 237.367 178.581C237.367 183.092 243.679 186.701 251.343 186.701Z" fill="#00BAFF"/>
<path d="M248.007 178.671C249.901 178.671 251.523 177.769 251.523 176.686C251.523 175.604 249.991 174.701 248.007 174.701C246.113 174.701 244.49 175.604 244.49 176.686C244.49 177.769 246.023 178.671 248.007 178.671Z" fill="#FFBDCD"/>
<path d="M261.622 177.318C262.343 179.303 261.442 181.378 258.827 182.912C256.302 184.355 252.696 184.897 249.45 184.536C248.278 182.641 248.097 180.476 251.433 178.581C254.319 176.957 257.925 176.596 261.622 177.318Z" fill="#FFBDCD"/>
<path d="M251.343 185.528C259.097 185.528 265.319 181.919 265.319 177.408C265.319 172.897 259.097 169.288 251.343 169.288C243.589 169.288 237.367 172.897 237.367 177.408C237.367 181.919 243.679 185.528 251.343 185.528Z" fill="#E0E0E0"/>
<path d="M251.343 183.994C259.097 183.994 265.319 180.385 265.319 175.874C265.319 171.453 259.097 167.754 251.343 167.754C243.589 167.754 237.367 171.363 237.367 175.874C237.367 180.385 243.679 183.994 251.343 183.994Z" fill="#00BAFF"/>
<path d="M248.007 175.965C249.901 175.965 251.523 175.062 251.523 173.98C251.523 172.897 249.991 171.995 248.007 171.995C246.113 171.995 244.49 172.897 244.49 173.98C244.49 175.062 246.023 175.965 248.007 175.965Z" fill="#FFBDCD"/>
<path d="M261.622 174.611C262.343 176.596 261.442 178.671 258.827 180.205C256.302 181.648 252.696 182.19 249.45 181.829C248.278 179.934 248.097 177.769 251.433 175.874C254.319 174.16 257.925 173.889 261.622 174.611Z" fill="#FFBDCD"/>
<path d="M251.343 182.821C259.097 182.821 265.319 179.213 265.319 174.701C265.319 170.281 259.097 166.581 251.343 166.581C243.589 166.581 237.367 170.19 237.367 174.701C237.367 179.213 243.679 182.821 251.343 182.821Z" fill="#E0E0E0"/>
<path d="M251.343 181.197C259.097 181.197 265.319 177.589 265.319 173.077C265.319 168.657 259.097 164.957 251.343 164.957C243.589 164.957 237.367 168.566 237.367 173.077C237.367 177.589 243.679 181.197 251.343 181.197Z" fill="#00BAFF"/>
<path d="M248.007 173.168C249.901 173.168 251.523 172.265 251.523 171.183C251.523 170.1 249.991 169.198 248.007 169.198C246.113 169.198 244.49 170.1 244.49 171.183C244.49 172.265 246.023 173.168 248.007 173.168Z" fill="#FFBDCD"/>
<path d="M261.622 171.814C262.343 173.799 261.442 175.874 258.827 177.408C256.302 178.852 252.696 179.393 249.45 179.032C248.278 177.137 248.097 174.972 251.433 173.077C254.319 171.453 257.925 171.093 261.622 171.814Z" fill="#FFBDCD"/>
<path d="M251.343 180.024C259.097 180.024 265.319 176.416 265.319 171.904C265.319 167.484 259.097 163.784 251.343 163.784C243.589 163.784 237.367 167.393 237.367 171.904C237.367 176.416 243.679 180.024 251.343 180.024Z" fill="#E0E0E0"/>
<path d="M251.343 178.491C259.097 178.491 265.319 174.882 265.319 170.371C265.319 165.86 259.097 162.251 251.343 162.251C243.589 162.251 237.367 165.86 237.367 170.371C237.367 174.882 243.679 178.491 251.343 178.491Z" fill="#00BAFF"/>
<path d="M248.007 170.461C249.901 170.461 251.523 169.559 251.523 168.476C251.523 167.393 249.991 166.491 248.007 166.491C246.113 166.491 244.49 167.393 244.49 168.476C244.49 169.559 246.023 170.461 248.007 170.461Z" fill="white"/>
<path d="M261.622 169.108C262.343 171.093 261.442 173.168 258.827 174.701C256.302 176.145 252.696 176.686 249.45 176.325C248.278 174.431 248.097 172.265 251.433 170.371C254.319 168.657 257.925 168.296 261.622 169.108Z" fill="white"/>
<path d="M265.95 166.22C266.942 161.89 261.712 156.928 254.138 155.213C246.655 153.499 239.712 155.574 238.72 159.905C237.728 164.236 242.958 169.198 250.532 170.912C258.016 172.717 264.958 170.551 265.95 166.22Z" fill="#E0E0E0"/>
<path d="M266.311 164.687C267.303 160.356 262.073 155.394 254.499 153.68C247.015 151.965 240.072 154.04 239.08 158.371C238.089 162.702 243.318 167.664 250.892 169.378C258.376 171.183 265.319 169.017 266.311 164.687Z" fill="#00BAFF"/>
<path d="M253.237 159.634C253.507 158.552 252.155 157.289 250.261 156.837C248.368 156.386 246.654 156.928 246.384 158.01C246.113 159.093 247.466 160.356 249.359 160.807C251.253 161.258 252.966 160.717 253.237 159.634Z" fill="white"/>
<path d="M262.975 162.612C263.245 164.687 261.893 166.491 258.917 167.393C256.122 168.296 252.515 168.025 249.359 166.852C248.638 164.777 248.999 162.612 252.605 161.529C256.032 160.536 259.548 160.988 262.975 162.612Z" fill="white"/>
<path opacity="0.76" d="M151.799 92.6894C162.439 74.1938 162.439 54.2547 151.799 48.0294C141.159 41.8943 123.847 51.8187 113.208 70.3143C102.568 88.8099 102.568 108.749 113.208 114.974C123.847 121.109 141.069 111.185 151.799 92.6894Z" fill="white"/>
<path d="M137.282 73.3818C139.987 68.7804 139.987 63.728 137.282 62.1942C134.577 60.6604 130.249 63.1867 127.634 67.788C124.929 72.3893 124.929 77.4418 127.634 78.9755C130.249 80.5093 134.667 77.9831 137.282 73.3818Z" fill="#00BAFF"/>
<path d="M149.725 84.2987C146.119 92.9601 139.717 100.99 132.413 105.23C125.38 109.29 119.159 108.749 115.462 104.689C118.257 96.1179 123.306 86.825 132.413 81.5921C140.709 76.7201 146.479 78.2539 149.725 84.2987Z" fill="#00BAFF"/>
<path d="M150.717 65.352L147.02 67.5174V63.1867C147.02 62.6454 146.569 62.3747 146.119 62.6454C145.848 62.8258 145.668 63.0063 145.487 63.3671C145.307 63.6378 145.217 63.9085 145.217 64.2694V68.6L141.52 70.7654C141.25 70.9458 141.069 71.2165 140.889 71.4871C140.709 71.7578 140.618 72.0285 140.618 72.3894C140.618 72.9307 141.069 73.2014 141.52 72.9307L145.217 70.7654V74.9156C145.217 75.4569 145.668 75.7276 146.119 75.4569C146.389 75.2765 146.569 75.096 146.75 74.7351C146.93 74.4645 147.02 74.1938 147.02 73.8329V69.5925L150.717 67.4271C150.988 67.2467 151.168 66.976 151.348 66.7054C151.529 66.4347 151.619 66.164 151.619 65.8031C151.619 65.352 151.258 65.0814 150.717 65.352Z" fill="#00BAFF"/>
<path d="M211.67 81.7725L210.768 81.2311L211.67 79.6974C211.76 79.5169 211.76 79.2462 211.67 79.156C211.58 79.0658 211.309 79.156 211.219 79.4267L210.317 81.0507L209.416 80.5094C209.326 80.4191 209.055 80.5094 208.965 80.78C208.875 80.9605 208.875 81.2311 208.965 81.3214L209.867 81.8627L208.965 83.3965C208.875 83.5769 208.875 83.8476 208.965 83.9378C209.055 84.028 209.326 83.9378 209.416 83.6671L210.317 82.1334L211.219 82.6747C211.309 82.7649 211.58 82.6747 211.67 82.404C211.85 82.0431 211.85 81.8627 211.67 81.7725Z" fill="#D5D5DB"/>
<path d="M211.67 109.11L210.768 108.568L211.67 107.035C211.76 106.854 211.76 106.584 211.67 106.493C211.58 106.403 211.309 106.493 211.219 106.764L210.317 108.388L209.416 107.847C209.326 107.756 209.055 107.847 208.965 108.117C208.875 108.298 208.875 108.568 208.965 108.659L209.867 109.2L208.965 110.734C208.875 110.914 208.875 111.185 208.965 111.275C209.055 111.365 209.326 111.275 209.416 111.004L210.317 109.471L211.219 110.012C211.309 110.102 211.58 110.012 211.67 109.741C211.85 109.38 211.85 109.11 211.67 109.11Z" fill="#D5D5DB"/>
<path d="M211.67 136.357L210.768 135.816L211.67 134.282C211.76 134.101 211.76 133.831 211.67 133.74C211.58 133.65 211.309 133.741 211.219 134.011L210.317 135.635L209.416 135.094C209.326 135.004 209.055 135.094 208.965 135.365C208.875 135.545 208.875 135.816 208.965 135.906L209.867 136.447L208.965 137.981C208.875 138.161 208.875 138.432 208.965 138.522C209.055 138.613 209.326 138.522 209.416 138.252L210.317 136.718L211.219 137.259C211.309 137.349 211.58 137.259 211.67 136.989C211.85 136.628 211.85 136.447 211.67 136.357Z" fill="#D5D5DB"/>
<path d="M211.67 163.694L210.768 163.153L211.67 161.619C211.76 161.439 211.76 161.168 211.67 161.078C211.58 160.988 211.309 161.078 211.219 161.348L210.317 162.972L209.416 162.431C209.326 162.341 209.055 162.431 208.965 162.702C208.875 162.882 208.875 163.153 208.965 163.243L209.867 163.784L208.965 165.318C208.875 165.499 208.875 165.769 208.965 165.86C209.055 165.95 209.326 165.86 209.416 165.589L210.317 164.055L211.219 164.596C211.309 164.687 211.58 164.596 211.67 164.326C211.85 163.965 211.85 163.784 211.67 163.694Z" fill="#D5D5DB"/>
<path d="M168.48 110.644C170.824 106.493 170.824 102.073 168.48 100.719C166.136 99.3658 162.259 101.531 159.914 105.681C157.57 109.832 157.57 114.252 159.914 115.606C162.259 116.959 166.136 114.794 168.48 110.644Z" fill="#00BAFF"/>
<path d="M165.685 104.869C165.685 105.411 165.504 105.952 165.234 106.403C164.963 106.854 164.603 107.215 164.152 107.576C163.34 108.027 162.619 107.666 162.619 106.674C162.619 106.133 162.799 105.591 163.07 105.14C163.34 104.689 163.701 104.328 164.152 103.967C165.054 103.516 165.685 103.877 165.685 104.869Z" fill="white"/>
<path d="M168.029 108.749C167.218 110.644 165.775 112.448 164.152 113.44C162.619 114.343 161.176 114.252 160.365 113.35C160.996 111.456 162.078 109.38 164.152 108.208C166.046 107.125 167.308 107.486 168.029 108.749Z" fill="white"/>
<path d="M168.48 137.981C170.824 133.831 170.824 129.41 168.48 128.056C166.136 126.703 162.259 128.868 159.914 133.019C157.57 137.169 157.57 141.59 159.914 142.943C162.259 144.296 166.136 142.131 168.48 137.981Z" fill="#E0E0E0"/>
<path d="M165.234 133.74C165.865 132.748 165.865 131.575 165.234 131.214C164.603 130.853 163.701 131.395 163.07 132.477C162.439 133.47 162.439 134.643 163.07 135.004C163.701 135.274 164.693 134.733 165.234 133.74Z" fill="#00BAFF"/>
<path d="M168.029 136.086C167.218 137.981 165.775 139.785 164.152 140.778C162.619 141.68 161.176 141.59 160.365 140.688C160.996 138.793 162.078 136.718 164.152 135.545C166.046 134.462 167.308 134.733 168.029 136.086Z" fill="#00BAFF"/>
<path d="M168.48 165.318C170.824 161.168 170.824 156.747 168.48 155.394C166.136 154.041 162.259 156.206 159.914 160.356C157.57 164.506 157.57 168.927 159.914 170.281C162.259 171.634 166.136 169.469 168.48 165.318Z" fill="#00BAFF"/>
<path d="M165.234 160.988C165.865 159.995 165.865 158.822 165.234 158.461C164.603 158.101 163.701 158.642 163.07 159.725C162.439 160.717 162.439 161.89 163.07 162.251C163.701 162.612 164.693 162.07 165.234 160.988Z" fill="white"/>
<path d="M168.029 163.424C167.218 165.318 165.775 167.123 164.152 168.115C162.619 169.017 161.176 168.927 160.365 168.025C160.996 166.13 162.078 164.055 164.152 162.882C166.046 161.8 167.308 162.07 168.029 163.424Z" fill="white"/>
<path d="M168.48 192.656C170.824 188.505 170.824 184.084 168.48 182.731C166.136 181.378 162.259 183.543 159.914 187.693C157.57 191.844 157.57 196.264 159.914 197.618C162.259 198.971 166.136 196.716 168.48 192.656Z" fill="#E0E0E0"/>
<path d="M165.685 186.881C165.685 187.423 165.504 187.964 165.234 188.415C164.963 188.866 164.603 189.227 164.152 189.588C163.34 190.039 162.619 189.678 162.619 188.686C162.619 188.144 162.799 187.603 163.07 187.152C163.34 186.701 163.701 186.34 164.152 185.979C165.054 185.528 165.685 185.889 165.685 186.881Z" fill="#00BAFF"/>
<path d="M168.029 190.761C167.218 192.656 165.775 194.46 164.152 195.452C162.619 196.355 161.176 196.264 160.365 195.362C160.996 193.468 162.078 191.392 164.152 190.22C166.046 189.137 167.308 189.408 168.029 190.761Z" fill="#00BAFF"/>
<path d="M197.784 87.0956L206.35 82.1334C206.711 81.8627 207.071 82.1334 207.071 82.5845V84.2085C207.071 84.4792 206.981 84.7498 206.891 84.9303C206.801 85.1107 206.62 85.2912 206.35 85.4716L197.784 90.4338C197.423 90.7045 197.063 90.4338 197.063 89.9827V88.3587C197.063 88.0881 197.153 87.8174 197.243 87.6369C197.333 87.4565 197.514 87.2761 197.784 87.0956Z" fill="#00BAFF"/>
<path d="M197.784 114.433L206.35 109.471C206.711 109.2 207.071 109.471 207.071 109.922V111.546C207.071 111.816 206.981 112.087 206.891 112.268C206.801 112.448 206.62 112.628 206.35 112.809L197.784 117.771C197.423 118.042 197.063 117.771 197.063 117.32V115.696C197.063 115.425 197.153 115.155 197.243 114.974C197.423 114.704 197.514 114.523 197.784 114.433Z" fill="#00BAFF"/>
<path d="M197.784 141.68L206.35 136.718C206.711 136.447 207.071 136.718 207.071 137.169V138.793C207.071 139.064 206.981 139.334 206.891 139.515C206.801 139.695 206.62 139.876 206.35 140.056L197.784 145.018C197.423 145.289 197.063 145.018 197.063 144.567V142.943C197.063 142.673 197.153 142.402 197.243 142.221C197.423 142.041 197.514 141.861 197.784 141.68Z" fill="#00BAFF"/>
<path d="M197.784 169.017L206.35 164.055C206.711 163.784 207.071 164.055 207.071 164.506V166.13C207.071 166.401 206.981 166.672 206.891 166.852C206.801 167.032 206.62 167.213 206.35 167.393L197.784 172.356C197.423 172.626 197.063 172.356 197.063 171.904V170.28C197.063 170.01 197.153 169.739 197.243 169.559C197.423 169.288 197.514 169.108 197.784 169.017Z" fill="#00BAFF"/>
<path d="M176.324 100.268C176.234 100.268 176.054 100.268 175.964 100.178C175.874 100.088 175.783 99.9974 175.783 99.8169C175.783 99.7267 175.783 99.5463 175.783 99.456C175.874 99.3658 175.964 99.2756 176.054 99.1854L190.661 90.7045C190.841 90.6143 190.931 90.6143 191.112 90.6143C191.292 90.6143 191.382 90.7947 191.472 90.8849C191.563 91.0654 191.563 91.1556 191.563 91.336C191.563 91.5165 191.382 91.6067 191.292 91.6969L176.685 100.178C176.595 100.268 176.505 100.268 176.324 100.268Z" fill="#E0E0E0"/>
<path d="M176.324 103.155C176.234 103.155 176.054 103.155 175.964 103.065C175.874 102.975 175.783 102.884 175.783 102.704C175.783 102.614 175.783 102.433 175.783 102.343C175.874 102.253 175.964 102.163 176.054 102.072L190.661 93.5916C190.841 93.5013 190.931 93.5013 191.112 93.5013C191.292 93.5013 191.382 93.6818 191.472 93.772C191.563 93.9525 191.563 94.0427 191.563 94.2231C191.563 94.4036 191.382 94.4938 191.292 94.584L176.685 103.065C176.595 103.065 176.505 103.155 176.324 103.155Z" fill="#E0E0E0"/>
<path d="M176.324 127.605C176.234 127.605 176.054 127.605 175.964 127.515C175.874 127.425 175.783 127.335 175.783 127.154C175.783 127.064 175.783 126.884 175.783 126.793C175.874 126.703 175.964 126.613 176.054 126.523L190.661 118.042C190.751 118.042 190.841 117.952 190.841 117.952C190.931 117.952 191.022 117.952 191.112 117.952C191.202 117.952 191.292 118.042 191.292 118.042C191.382 118.132 191.382 118.132 191.472 118.222C191.472 118.312 191.563 118.403 191.563 118.403C191.563 118.493 191.563 118.583 191.563 118.673C191.563 118.764 191.472 118.854 191.472 118.854C191.382 118.944 191.382 118.944 191.292 119.034L176.685 127.515C176.595 127.515 176.505 127.605 176.324 127.605Z" fill="#B0E9FF"/>
<path d="M176.324 130.402C176.234 130.402 176.054 130.402 175.964 130.312C175.874 130.222 175.783 130.132 175.783 129.951C175.783 129.861 175.783 129.681 175.783 129.59C175.874 129.5 175.964 129.41 176.054 129.32L190.661 120.839C190.751 120.839 190.841 120.749 190.841 120.749C190.931 120.749 191.022 120.749 191.112 120.749C191.202 120.749 191.292 120.839 191.292 120.839C191.292 120.839 191.382 120.929 191.472 121.019C191.472 121.109 191.563 121.2 191.563 121.2C191.563 121.29 191.563 121.38 191.563 121.47C191.563 121.561 191.472 121.651 191.472 121.651C191.382 121.741 191.382 121.741 191.292 121.831L176.685 130.312C176.595 130.402 176.505 130.402 176.324 130.402Z" fill="#B0E9FF"/>
<path d="M176.324 154.852C176.234 154.852 176.054 154.852 175.964 154.762C175.874 154.672 175.783 154.582 175.783 154.401C175.783 154.311 175.783 154.131 175.783 154.04C175.874 153.95 175.964 153.86 176.054 153.77L190.661 145.289C190.841 145.199 190.931 145.199 191.112 145.199C191.292 145.199 191.382 145.379 191.472 145.469C191.563 145.65 191.563 145.74 191.563 145.921C191.563 146.101 191.382 146.191 191.292 146.281L176.685 154.762C176.595 154.852 176.505 154.852 176.324 154.852Z" fill="#E0E0E0"/>
<path d="M176.324 157.74C176.234 157.74 176.054 157.74 175.964 157.649C175.874 157.559 175.783 157.469 175.783 157.288C175.783 157.198 175.783 157.018 175.783 156.928C175.783 156.837 175.964 156.747 176.054 156.657L190.661 148.176C190.841 148.086 190.931 148.086 191.112 148.086C191.292 148.086 191.382 148.266 191.472 148.356C191.563 148.537 191.563 148.627 191.563 148.808C191.563 148.988 191.382 149.078 191.292 149.168L176.685 157.649C176.595 157.74 176.505 157.74 176.324 157.74Z" fill="#E0E0E0"/>
<path d="M176.324 182.19C176.234 182.19 176.054 182.19 175.964 182.1C175.874 182.009 175.783 181.919 175.783 181.739C175.783 181.648 175.783 181.468 175.783 181.378C175.874 181.288 175.964 181.197 176.054 181.107L190.661 172.626C190.841 172.536 190.931 172.536 191.112 172.536C191.292 172.536 191.382 172.716 191.472 172.807C191.563 172.987 191.563 173.077 191.563 173.258C191.563 173.438 191.382 173.528 191.292 173.619L176.685 182.1C176.595 182.19 176.505 182.19 176.324 182.19Z" fill="#B0E9FF"/>
<path d="M176.324 184.987C176.234 184.987 176.054 184.987 175.964 184.897C175.874 184.806 175.783 184.716 175.783 184.536C175.783 184.445 175.783 184.265 175.783 184.175C175.874 184.085 175.964 183.994 176.054 183.904L190.661 175.423C190.751 175.423 190.841 175.333 190.841 175.333C190.931 175.333 191.022 175.333 191.112 175.333C191.202 175.333 191.292 175.423 191.292 175.423C191.382 175.513 191.382 175.513 191.472 175.604C191.472 175.694 191.563 175.784 191.563 175.784C191.563 175.874 191.563 175.965 191.563 176.055C191.563 176.145 191.472 176.235 191.472 176.235C191.382 176.325 191.382 176.325 191.292 176.416L176.685 184.897C176.595 184.987 176.505 184.987 176.324 184.987Z" fill="#B0E9FF"/>
<path d="M206.53 184.806L165.504 208.444C165.054 208.715 164.693 208.535 164.693 207.993C164.693 207.723 164.783 207.452 164.963 207.181C165.054 206.911 165.324 206.73 165.504 206.64L206.53 183.002C206.981 182.731 207.342 182.912 207.342 183.453C207.342 183.724 207.252 183.994 207.071 184.265C206.981 184.445 206.801 184.626 206.53 184.806Z" fill="#231F20"/>
<path d="M162.078 90.4339L158.742 92.4188L159.914 90.2534C160.004 90.073 160.004 89.8023 159.914 89.7121C159.824 89.6219 159.553 89.8023 159.463 89.9828L157.66 93.321L159.373 94.7645H159.463H159.553C159.644 94.6743 159.734 94.6743 159.734 94.5841C159.824 94.4037 159.914 94.133 159.734 94.0428L158.562 93.1405L161.988 91.1557C162.078 91.0654 162.168 90.9752 162.168 90.885C162.258 90.7948 162.258 90.7046 162.258 90.6143C162.439 90.4339 162.258 90.3437 162.078 90.4339Z" fill="#00BAFF"/>
<path d="M518.417 228.203L490.195 244.533L358.732 168.476V165.769L386.954 152.236L518.507 225.497V228.203H518.417Z" fill="#231F20"/>
<path d="M518.417 225.496L490.195 241.827L358.732 165.769L386.954 149.529L518.417 225.496Z" fill="#9D9FA2"/>
<path d="M365.765 165.769L369.552 167.935L490.285 236.323L506.425 227.03L510.122 224.865L386.864 153.95L365.765 165.769Z" fill="#424244"/>
<path d="M369.552 167.935L490.285 236.323L506.425 227.03L501.826 224.414L456.472 198.34L386.954 158.371L369.552 167.935Z" fill="#D8F4FF"/>
<path d="M363.961 171.544L368.109 192.926L490.285 263.48V244.533L363.961 171.544Z" fill="#00A6E3"/>
<path d="M515.892 229.647L514.269 249.586L490.285 263.48V244.533L515.892 229.647Z" fill="#00B1F3"/>
<path d="M377.486 89.712L443.308 92.96V95.1254L424.553 105.952L452.775 122.282L471.62 165.679L480.998 171.092L490.375 198.249L518.597 212.053V214.489L490.375 230.82L462.243 214.58L452.866 187.423L443.488 182.009L424.644 138.612L396.421 122.282L377.577 133.109L377.486 89.712Z" fill="#00A6E3"/>
<path d="M518.507 212.144L490.285 228.474L464.227 213.316L454.849 186.16L445.472 180.746L426.627 137.349L396.331 119.846L387.495 124.899L384.79 126.432L383.167 127.335L377.486 130.583V127.335V102.524V87.8174L443.218 93.0503L424.463 103.606L454.759 121.109L473.604 164.506L482.981 169.92L492.359 197.076L518.507 212.144Z" fill="#00BAFF"/>
<path d="M447.816 193.829L444.21 195.904L440.603 193.829L444.21 191.753L447.816 193.829Z" fill="#C4C4C4"/>
<path d="M444.21 195.904V200.054L447.816 197.979V193.828L444.21 195.904Z" fill="#BABABA"/>
<path d="M444.21 195.904L440.603 193.828V197.979L444.21 200.054V195.904Z" fill="#CDCDCD"/>
<path d="M427.168 163.785L419.955 167.935L412.741 163.785L419.955 159.634L427.168 163.785Z" fill="url(#paint1_linear)"/>
<path d="M419.955 167.935V176.235L427.168 172.085V163.784L419.955 167.935Z" fill="url(#paint2_linear)"/>
<path d="M419.955 167.935L412.741 163.784V172.085L419.955 176.235V167.935Z" fill="url(#paint3_linear)"/>
<path d="M411.84 158.642L407.872 160.897L403.905 158.642L407.872 156.386L411.84 158.642Z" fill="#C4C4C4"/>
<path d="M407.872 160.897V165.499L411.84 163.243V158.642L407.872 160.897Z" fill="#BABABA"/>
<path d="M407.872 160.897L403.905 158.642V163.243L407.872 165.499V160.897Z" fill="#CDCDCD"/>
<path d="M399.667 137.62L395.7 139.876L391.733 137.62L395.7 135.365L399.667 137.62Z" fill="url(#paint4_linear)"/>
<path d="M395.7 139.876V144.477L399.667 142.221V137.62L395.7 139.876Z" fill="url(#paint5_linear)"/>
<path d="M395.7 139.876L391.733 137.62V142.221L395.7 144.477V139.876Z" fill="url(#paint6_linear)"/>
<path d="M410.577 133.74L407.872 135.364L405.167 133.74L407.872 132.116L410.577 133.74Z" fill="url(#paint7_linear)"/>
<path d="M407.872 135.364V138.522L410.577 136.898V133.74L407.872 135.364Z" fill="url(#paint8_linear)"/>
<path d="M407.872 135.364L405.167 133.74V136.898L407.872 138.522V135.364Z" fill="url(#paint9_linear)"/>
<path d="M234.933 81.5019L238.449 80.4192C238.449 80.4192 243.048 87.9979 238.449 90.6143L235.654 89.5316C235.744 89.5316 239.982 85.8325 234.933 81.5019Z" fill="url(#paint10_linear)"/>
<path d="M225.195 72.1187L223.572 75.4569C223.572 75.4569 214.916 73.5623 216.178 68.4196L218.883 67.1565C218.793 67.1565 218.613 72.8405 225.195 72.1187Z" fill="#E0E0E0"/>
<path d="M235.925 61.3823L237.457 63.6379C237.457 63.6379 233.039 68.4197 230.244 65.713L230.424 63.5477C230.334 63.5477 233.851 65.8032 235.925 61.3823Z" fill="#E0E0E0"/>
<path d="M187.235 51.4578L186.423 54.0742C186.423 54.0742 179.931 53.7133 180.202 49.8338L182.005 48.5707C182.005 48.5707 182.456 52.7209 187.235 51.4578Z" fill="url(#paint11_linear)"/>
<path d="M195.079 74.1939L194.268 76.8103C194.268 76.8103 187.776 76.4494 188.046 72.5699L189.85 71.3068C189.94 71.3068 190.391 75.457 195.079 74.1939Z" fill="url(#paint12_linear)"/>
<path d="M228.621 107.756L231.236 108.568C231.236 108.568 230.875 115.064 226.998 114.794L225.736 112.989C225.736 112.989 229.793 112.448 228.621 107.756Z" fill="url(#paint13_linear)"/>
<path d="M219.604 89.6218L222.85 90.6143C222.85 90.6143 222.4 98.7343 217.531 98.3734L215.998 96.1178C215.998 96.208 221.137 95.5765 219.604 89.6218Z" fill="#E0E0E0"/>
<path d="M133.135 130.041L131.241 132.928C131.241 132.928 123.577 130.312 125.2 125.711L127.815 124.808C127.815 124.808 127.003 129.951 133.135 130.041Z" fill="url(#paint14_linear)"/>
<path d="M235.654 151.604L237.367 153.228C237.367 153.228 234.572 158.1 231.687 156.386L231.416 154.492C231.416 154.492 234.752 155.755 235.654 151.604Z" fill="url(#paint15_linear)"/>
<path d="M137.463 147.184L140.258 149.168C140.258 149.168 137.282 156.747 132.774 154.943L131.962 152.326C132.053 152.326 137.102 153.319 137.463 147.184Z" fill="#E0E0E0"/>
<path d="M231.687 141.59L230.695 144.838C230.695 144.838 222.58 144.387 222.941 139.515L225.195 137.981C225.105 137.891 225.736 143.124 231.687 141.59Z" fill="#E0E0E0"/>
<path d="M147.832 132.838L148.733 130.763C148.733 130.763 154.053 131.756 153.422 134.913L151.799 135.725C151.889 135.816 151.889 132.297 147.832 132.838Z" fill="url(#paint16_linear)"/>
<path d="M128.356 167.935L129.258 165.86C129.258 165.86 134.577 166.852 133.946 170.01L132.323 170.822C132.323 170.912 132.413 167.484 128.356 167.935Z" fill="url(#paint17_linear)"/>
<path d="M150.717 172.897L153.963 173.799C153.963 173.799 153.783 181.739 149.004 181.558L147.381 179.393C147.291 179.393 152.34 178.671 150.717 172.897Z" fill="url(#paint18_linear)"/>
<path d="M293.631 71.1263L288.943 79.156H284.705L285.787 77.2614H287.951L291.738 70.7654L293.631 71.1263Z" fill="#00BAFF"/>
<path d="M295.705 71.3067L290.115 81.0507H281.459L287.951 69.8632H290.115L284.705 79.156H288.943L293.631 71.1263L295.705 71.3067Z" fill="#05B4F4"/>
<path d="M281.459 81.0507L280.377 79.156L285.787 69.8632H287.951L281.459 81.0507Z" fill="#009CD6"/>
<path d="M293.09 60.3899H295.615V72.8406H293.18L293.09 60.3899Z" fill="#00BAFF"/>
<path d="M295.615 72.9308C297.599 72.9308 299.222 70.1339 299.222 66.7054C299.222 63.277 297.599 60.4801 295.615 60.4801C293.631 60.4801 292.008 63.277 292.008 66.7054C292.008 70.1339 293.631 72.9308 295.615 72.9308Z" fill="#00BAFF"/>
<path d="M295.705 71.0361C294.804 72.5698 293.631 73.1112 292.549 72.7503C292.549 72.7503 278.754 71.3067 273.885 79.7876C274.065 79.3365 278.303 71.2165 276.77 61.7432C276.319 58.9463 275.418 56.1494 274.065 53.6232C274.065 53.6232 282.631 60.3898 293 60.3898C293.992 60.2996 294.984 60.9312 295.705 62.1943C296.336 63.3672 296.697 64.7205 296.787 65.9836C296.877 67.8783 296.517 69.6827 295.705 71.0361Z" fill="#00BAFF"/>
<path d="M295.705 71.036C294.804 72.5698 293.631 73.1111 292.549 72.7502C292.549 72.7502 278.754 71.3067 273.885 79.7876C274.065 79.3365 278.303 71.2165 276.77 61.7431L277.492 61.1116C277.492 61.1116 280.557 69.8631 286.148 70.224C291.738 70.5849 296.066 69.6827 296.787 66.0738C296.877 67.8782 296.517 69.6827 295.705 71.036Z" fill="#00BAFF"/>
<path d="M269.467 82.0431C274.336 81.9529 278.213 75.0058 278.123 66.5249C278.032 58.044 273.885 51.1871 269.016 51.2774C264.147 51.3676 260.27 58.3147 260.36 66.7956C260.54 75.2765 264.598 82.1334 269.467 82.0431Z" fill="#0097CF"/>
<path d="M273.885 77.4419C272.893 79.2463 271.631 80.5996 270.278 81.3214C267.212 83.0356 263.786 81.7725 261.352 77.6223C257.835 71.6676 257.655 61.9236 261.081 55.8788C263.155 52.1796 266.04 50.7361 268.745 51.4579C270.549 51.909 272.262 53.3525 273.614 55.6983C277.131 61.653 277.311 71.397 273.885 77.4419Z" fill="#00BAFF"/>
<path d="M275.688 72.8405C275.327 74.4645 274.696 75.9983 273.975 77.4419C272.983 79.2463 271.721 80.5997 270.368 81.3214C269.106 80.9605 267.934 80.2388 267.032 79.2463C266.401 78.6148 265.86 77.893 265.409 77.081C261.893 71.1263 261.712 61.3823 265.139 55.3374C266.13 53.533 267.393 52.1797 268.745 51.4579C270.549 51.909 272.262 53.3526 273.614 55.6983C273.704 55.8788 273.795 56.0592 273.885 56.1494C274.606 57.5028 275.147 58.9463 275.508 60.3899C275.778 61.4726 275.959 62.465 276.139 63.5477C276.5 66.7054 276.319 69.8632 275.688 72.8405Z" fill="#0295CC"/>
<path d="M275.688 72.8405C275.327 74.4645 274.696 75.9983 273.975 77.4419C272.983 79.2463 271.721 80.5997 270.368 81.3214C269.106 80.9605 267.934 80.2388 267.032 79.2463C267.122 79.3365 269.917 80.6899 271.991 78.3441C274.245 75.7276 277.762 61.4725 268.745 51.5481C270.549 51.9992 272.262 53.4428 273.614 55.7885C273.704 55.969 273.795 56.1494 273.885 56.2397C274.606 57.593 275.147 59.0365 275.508 60.4801C275.778 61.5628 275.959 62.5552 276.139 63.6379C276.5 66.7054 276.319 69.8632 275.688 72.8405Z" fill="#00BAFF"/>
<path d="M276.139 70.4045C276.049 71.2165 275.868 72.0285 275.688 72.8405H271.09C270.008 72.8405 268.926 72.5699 268.024 72.0285C267.122 71.4872 266.311 70.6752 265.77 69.773C265.229 68.8708 264.958 67.7881 264.958 66.7054C264.958 65.6228 265.229 64.5401 265.77 63.6379C266.311 62.7356 267.122 61.9236 268.024 61.3823C268.926 60.841 270.008 60.5703 271.09 60.5703H275.508C276.319 63.7281 276.59 67.0663 276.139 70.4045Z" fill="#E0E0E0"/>
<path d="M276.139 70.4045C276.049 71.2165 275.868 72.0285 275.688 72.8405H271.09C270.008 72.8405 268.926 72.5699 268.024 72.0285C267.122 71.4872 266.311 70.6752 265.77 69.773C265.139 68.6903 264.868 67.337 264.958 66.0739C265.139 66.7054 266.762 70.4947 271.631 70.4947C273.524 70.4045 274.967 70.4045 276.139 70.4045Z" fill="#E0E0E0"/>
<path d="M139.086 314.997C138.545 304.712 131.512 301.373 131.512 301.283L131.782 300.652C131.872 300.652 139.266 304.17 139.807 314.907L139.086 314.997Z" fill="url(#paint19_linear)"/>
<path d="M204.907 352.98L204.276 352.89C205.809 341.613 214.735 337.372 214.826 337.372L215.096 338.004C215.006 338.004 206.44 342.064 204.907 352.98Z" fill="url(#paint20_linear)"/>
<path d="M144.766 329.072L222.76 363.085V364.439L204.907 374.814L124.298 328.26V326.906L144.766 329.072Z" fill="#231F20"/>
<path d="M142.151 316.531L222.76 363.085L204.907 373.461L124.298 326.906L142.151 316.531Z" fill="#5E5F61"/>
<path d="M216.899 362.273L214.465 363.627L203.374 370.032L132.594 328.981L130.249 327.628L143.684 319.869L216.899 362.273Z" fill="#4D4D4F"/>
<path d="M156.668 332.139C155.225 324.29 156.939 318.967 158.652 315.899C160.545 312.561 162.709 311.117 162.799 311.027L163.16 311.568C163.07 311.659 154.684 317.343 157.299 331.959L156.668 332.139Z" fill="#C0C2D1"/>
<path d="M148.463 302.456L155.857 307.779C155.857 307.779 163.16 300.02 161.537 293.524C161.537 293.524 154.504 292.983 148.463 302.456Z" fill="url(#paint21_linear)"/>
<path d="M143.504 301.915L149.274 298.396C149.274 298.396 145.668 290.456 140.799 290.637C140.799 290.637 138.725 295.148 143.504 301.915Z" fill="#E0E0E0"/>
<path d="M170.103 315.628L178.038 317.252C178.038 317.252 181.374 307.418 176.956 303.539C176.866 303.539 171.456 305.794 170.103 315.628Z" fill="#00BAFF"/>
<path d="M148.553 311.388C149.815 306.336 155.766 299.298 155.857 299.298C155.857 299.298 150.266 304.802 148.373 309.674C147.471 301.464 143.323 295.148 143.323 295.148C143.414 295.328 152.16 311.839 145.217 325.372L145.848 325.643C148.283 321.042 148.824 315.989 148.553 311.388Z" fill="url(#paint22_linear)"/>
<path d="M181.103 318.425L183.267 322.666C183.267 322.666 189.038 320.591 189.218 317.072C189.308 317.162 186.243 315.448 181.103 318.425Z" fill="url(#paint23_linear)"/>
<path d="M214.465 363.627L203.374 370.032L185.161 359.476L185.071 359.386L174.07 352.98L171.546 351.537L154.053 341.432L152.25 340.349L132.594 328.981L143.684 322.576L146.84 324.38L148.553 325.372L154.775 328.981L155.316 329.252L165.685 335.297L169.742 337.643L173.259 339.718L175.062 340.8L186.333 347.296L188.046 348.289L190.12 349.552L193.456 351.537L196.702 353.432L198.866 354.695L214.465 363.627Z" fill="#231F20"/>
<path d="M204.817 374.814V383.836L172.087 364.89L132.774 342.154L127.544 330.154L186.784 364.348L204.817 374.814Z" fill="#5A5B5F"/>
<path d="M196.702 324.651L200.94 331.868C200.94 331.868 211.49 327.989 213.563 321.222C213.563 321.222 205.358 318.876 196.702 324.651Z" fill="#00BAFF"/>
<path d="M220.777 365.612L219.063 375.626L215.547 377.611L204.817 383.836V374.814L209.596 372.017L220.777 365.612Z" fill="#56575A"/>
<path d="M175.964 339.267C174.792 323.388 185.341 318.876 185.341 318.876C185.341 318.876 182.816 320.14 180.562 323.207C178.398 326.094 176.054 331.147 176.685 339.177L175.964 339.267Z" fill="url(#paint24_linear)"/>
<path d="M183.718 345.673L183.087 345.582C184.439 338.996 190.571 333.583 195.44 330.244C198.686 327.989 202.292 326.275 206.079 325.102C205.899 325.102 186.243 333.402 183.718 345.673Z" fill="#C0C2D1"/>
<path d="M175.964 344.5C169.472 324.741 175.423 308.772 175.423 308.772C174.521 312.471 173.89 316.26 173.619 320.14C173.169 325.553 173.349 334.124 176.685 344.319L175.964 344.5Z" fill="#C0C2D1"/>
<path d="M188.317 349.823C187.595 354.695 186.603 357.672 185.341 359.386L174.341 352.981L171.816 351.537C171.816 350.003 171.997 348.469 172.177 346.936C172.177 346.936 172.718 343.507 173.439 339.718C174.341 335.026 175.513 329.884 176.144 330.154C177.226 330.605 176.956 338.996 178.218 338.004C179.48 337.011 179.12 325.373 180.562 325.553C182.005 325.643 181.013 343.056 182.816 342.425C184.62 341.793 182.997 329.703 185.431 330.154C187.415 330.515 188.046 343.688 188.226 348.289C188.317 349.191 188.317 349.823 188.317 349.823Z" fill="#E0E0E0"/>
<path d="M214.465 363.627L203.374 370.033L185.161 359.477C185.431 356.138 185.792 351.447 186.243 347.297C186.874 341.613 187.685 336.741 188.677 336.741C190.03 336.65 189.94 343.778 190.12 349.552C190.21 353.612 190.481 357.041 191.472 357.041C192.825 357.041 193.095 354.063 193.546 351.537C193.817 349.733 194.268 348.018 195.169 347.657C196.432 347.206 196.522 350.545 196.702 353.341C196.882 355.326 197.153 357.041 197.964 356.77C198.415 356.589 198.686 355.777 198.866 354.605C199.407 350.364 198.415 341.432 199.858 341.973C201.661 342.695 201.661 354.695 203.104 354.334C204.547 353.973 201.932 334.575 204.907 334.395C207.883 334.214 208.784 354.695 210.948 354.965C213.112 355.326 212.211 342.515 214.555 343.327C216.899 344.049 214.465 363.627 214.465 363.627Z" fill="#00BAFF"/>
<path d="M175.062 340.71C174.972 345.763 174.611 350.545 174.07 352.981L154.053 341.432L152.25 340.349C152.52 338.996 153.062 337.643 153.693 336.38C153.693 336.38 154.324 332.951 155.226 329.252C156.307 324.651 157.84 319.598 159.012 319.598C161.176 319.779 157.299 330.064 159.012 330.696C160.726 331.237 163.07 317.343 165.054 317.884C166.496 318.335 164.783 329.252 165.595 335.297C165.865 337.282 166.406 338.725 167.398 339.177C168.3 339.537 169.021 338.906 169.652 337.643C171.546 333.493 171.726 322.846 173.439 323.568C174.701 324.109 175.152 332.681 175.062 340.71Z" fill="#00BAFF"/>
<path d="M154.053 341.432L132.684 328.981C132.684 328.981 131.602 312.832 133.946 313.012C136.381 313.192 135.93 322.215 137.102 322.576C138.274 322.936 135.93 305.343 138.996 305.704C142.061 306.155 140.078 321.312 142.061 320.681C144.045 320.049 142.151 310.576 145.307 310.576C147.742 310.576 146.57 319.779 146.75 324.29C146.84 325.643 146.93 326.545 147.381 326.726C147.832 326.906 148.193 326.275 148.463 325.282C149.184 322.395 149.365 316.35 151.709 317.252C153.422 317.884 154.414 323.207 154.685 328.891C154.955 333.673 154.775 338.725 154.053 341.432Z" fill="#E0E0E0"/>
<path d="M130.339 303.088C131.512 303.088 132.413 302.185 132.413 301.012C132.413 299.84 131.512 298.937 130.339 298.937C129.167 298.937 128.266 299.84 128.266 301.012C128.266 302.185 129.167 303.088 130.339 303.088Z" fill="url(#paint25_linear)"/>
<path d="M215.006 339.808C216.178 339.808 217.17 338.816 217.17 337.643C217.17 336.47 216.178 335.477 215.006 335.477C213.834 335.477 212.842 336.47 212.842 337.643C212.842 338.816 213.744 339.808 215.006 339.808Z" fill="url(#paint26_linear)"/>
<path d="M165.595 311.839C165.865 310.757 165.234 309.764 164.152 309.493C163.07 309.223 162.078 309.854 161.808 310.937C161.537 312.02 162.168 313.012 163.25 313.283C164.242 313.553 165.324 312.832 165.595 311.839Z" fill="#E0E0E0"/>
<path d="M204.817 374.814V383.836L172.087 364.89C177.497 367.597 183.358 370.213 184.71 369.581C187.415 368.318 186.784 364.349 186.784 364.349L204.817 374.814Z" fill="#454549"/>
<path d="M215.547 377.611L204.817 383.836V374.814L209.596 372.017C209.596 372.017 209.596 372.108 209.686 372.108C209.686 372.108 208.965 375.446 209.686 377.521C210.407 379.596 215.547 377.611 215.547 377.611Z" fill="#3E3E42"/>
<path opacity="0.4" d="M310.222 245.255C310.222 245.345 310.312 245.436 310.402 245.436C310.312 244.533 310.222 245.165 310.222 245.255Z" fill="#00BAFF"/>
<path d="M502.187 281.254L499.211 282.968L298.771 398.723L242.417 366.153L241.876 365.882C241.605 365.702 241.425 365.521 241.244 365.251C241.064 364.98 241.064 364.709 241.064 364.439C241.064 364.168 241.154 363.897 241.244 363.627C241.425 363.356 241.605 363.176 241.876 362.995L265.589 349.281C267.934 347.928 270.549 347.206 273.254 347.206C275.959 347.206 278.573 347.928 280.918 349.281L300.845 360.83C302.738 361.912 304.902 362.544 307.066 362.544C309.23 362.544 311.394 362.003 313.288 360.83L421.127 298.667L439.701 287.93C440.062 287.75 440.332 287.479 440.513 287.118C440.693 286.757 440.783 286.396 440.783 286.036C440.783 285.675 440.693 285.314 440.513 284.953C440.332 284.592 440.062 284.321 439.701 284.141L412.561 268.532L411.389 267.901C411.118 267.72 410.938 267.54 410.758 267.269C410.577 266.999 410.577 266.728 410.577 266.457C410.577 266.187 410.668 265.916 410.758 265.645C410.938 265.375 411.118 265.194 411.389 265.014L435.103 251.3C437.447 249.947 440.152 249.225 442.857 249.225C445.562 249.225 448.267 249.947 450.611 251.3L502.187 277.916V281.254Z" fill="#231F20"/>
<path d="M499.302 282.968V299.569L299.131 415.144L243.228 382.844C242.958 382.664 242.777 382.483 242.597 382.212C242.417 381.942 242.417 381.671 242.417 381.4V366.153L298.771 398.723L499.302 282.968Z" fill="#CCCCCC"/>
<path d="M298.771 398.723V415.144L499.302 299.569V282.968L298.771 398.723Z" fill="#E0E0E0"/>
<path d="M249.45 368.048V364.8L253.958 364.439L253.146 367.867L249.45 368.048Z" fill="#231F20"/>
<path d="M446.915 291.81L427.98 300.471L409.856 290.457L410.758 267.36L430.414 278.277L447.005 287.479C447.456 287.75 447.816 288.021 447.997 288.472C448.267 288.833 448.357 289.284 448.357 289.735C448.357 290.186 448.177 290.637 447.906 290.998C447.726 291.359 447.365 291.629 446.915 291.81Z" fill="#CCCCCC"/>
<path d="M418.963 270.337V266.728L422.389 266.908V270.337H418.963Z" fill="#231F20"/>
<path d="M241.966 359.837L265.68 346.124C268.024 344.77 270.639 344.048 273.344 344.048C276.049 344.048 278.664 344.77 281.008 346.124L300.935 357.672C302.828 358.755 304.992 359.386 307.156 359.386C309.32 359.386 311.484 358.845 313.378 357.672L439.521 284.772C439.882 284.592 440.152 284.321 440.332 283.96C440.513 283.6 440.603 283.239 440.603 282.878C440.603 282.517 440.513 282.156 440.332 281.795C440.152 281.434 439.882 281.164 439.521 280.983L411.299 264.653C411.028 264.472 410.848 264.292 410.668 264.021C410.487 263.751 410.487 263.48 410.487 263.209C410.487 262.939 410.577 262.668 410.668 262.397C410.848 262.127 411.028 261.946 411.299 261.766L435.013 248.052C437.357 246.699 440.062 245.977 442.767 245.977C445.472 245.977 448.177 246.699 450.521 248.052L502.097 277.916L298.771 395.475L241.876 362.634C241.605 362.454 241.425 362.273 241.244 362.003C241.064 361.732 241.064 361.461 241.064 361.191C241.064 360.92 241.154 360.649 241.244 360.379C241.425 360.108 241.695 359.928 241.966 359.837Z" fill="#F8F8F8"/>
<path d="M302.648 297.494L309.861 293.344C310.763 292.802 311.845 292.532 312.927 292.532C314.009 292.532 315.091 292.802 315.993 293.344L323.296 297.494C323.477 297.584 323.567 297.674 323.657 297.855C323.747 298.035 323.747 298.125 323.747 298.306C323.747 298.486 323.747 298.576 323.657 298.757C323.567 298.937 323.477 299.028 323.296 299.118L316.083 303.268C315.181 303.809 314.099 304.08 313.017 304.08C311.935 304.08 310.853 303.809 309.952 303.268L302.738 299.118C302.558 299.028 302.468 298.937 302.378 298.757C302.287 298.576 302.287 298.486 302.287 298.306C302.287 298.125 302.287 298.035 302.378 297.855C302.468 297.674 302.558 297.584 302.648 297.494Z" fill="#F4F4F4"/>
<path d="M284.975 294.246L287.951 292.532C288.492 292.261 289.033 292.081 289.664 292.081C290.295 292.081 290.836 292.261 291.377 292.532L294.353 294.246C294.443 294.336 294.533 294.426 294.623 294.517C294.713 294.607 294.713 294.787 294.713 294.877C294.713 294.968 294.713 295.148 294.623 295.238C294.533 295.329 294.443 295.419 294.353 295.509L291.377 297.223C290.836 297.494 290.295 297.674 289.664 297.674C289.033 297.674 288.492 297.494 287.951 297.223L284.975 295.509C284.885 295.419 284.795 295.329 284.705 295.238C284.615 295.148 284.615 294.968 284.615 294.877C284.615 294.697 284.615 294.607 284.705 294.517C284.705 294.336 284.885 294.246 284.975 294.246Z" fill="#EFEFED"/>
<path d="M331.772 287.389L346.739 278.908C347.19 278.637 347.731 278.547 348.182 278.547C348.723 278.547 349.174 278.728 349.625 278.908L352.69 280.622C352.781 280.712 352.961 280.803 352.961 280.893C353.051 280.983 353.051 281.164 353.051 281.344C353.051 281.524 353.051 281.615 352.961 281.795C352.871 281.885 352.781 282.066 352.69 282.066L337.903 290.637C337.452 290.908 336.911 290.998 336.46 290.998C335.919 290.998 335.469 290.817 335.018 290.637L331.862 288.832C331.772 288.742 331.591 288.652 331.591 288.562C331.501 288.472 331.501 288.291 331.501 288.111C331.501 287.93 331.501 287.84 331.591 287.66C331.591 287.569 331.682 287.479 331.772 287.389Z" fill="#EFEFED"/>
<path d="M343.403 260.413L346.559 258.608C347.01 258.337 347.551 258.157 348.092 258.157C348.633 258.157 349.174 258.337 349.625 258.608L352.781 260.413C352.871 260.503 352.961 260.593 353.051 260.683C353.141 260.773 353.141 260.954 353.141 261.044C353.141 261.225 353.141 261.315 353.051 261.405C352.961 261.495 352.871 261.585 352.781 261.676L349.625 263.48C349.174 263.751 348.633 263.931 348.092 263.931C347.551 263.931 347.01 263.751 346.559 263.48L343.403 261.676C343.313 261.585 343.223 261.495 343.133 261.405C343.043 261.315 343.043 261.134 343.043 261.044C343.043 260.864 343.043 260.773 343.133 260.683C343.223 260.593 343.313 260.503 343.403 260.413Z" fill="#EFEFED"/>
<path d="M325.19 222.519L317.796 235.692C306.705 233.346 294.894 232.714 283.352 233.616L278.573 220.083C294.082 218.64 310.132 219.452 325.19 222.519Z" fill="#CDCDCD"/>
<path d="M325.19 215.031L317.796 228.203C306.705 225.857 294.894 225.226 283.352 226.128L278.573 212.595C294.082 211.151 310.132 211.963 325.19 215.031Z" fill="#E0E0E0"/>
<path d="M283.262 233.526V226.038L278.483 212.505V219.993L283.262 233.526Z" fill="#B6B6BA"/>
<path d="M389.028 274.126C389.028 274.487 389.028 274.758 389.028 275.119V275.48C388.757 288.381 380.732 301.193 364.953 311.388L348.362 301.824L348.002 301.554C366.396 289.103 370.002 271.871 358.732 257.525C358.732 257.525 358.641 257.435 358.461 257.164C355.035 252.924 350.256 248.864 344.125 245.345C336.46 240.924 327.444 237.676 317.796 235.692V205.196L325.19 192.024L341.69 205.467L382.986 238.128L380.642 248.864L389.028 274.126Z" fill="#CDCDCD"/>
<path d="M389.028 244.263V274.126C389.028 274.487 389.028 274.758 389.028 275.119V275.48C389.028 276.743 388.937 278.006 388.757 279.179C387.134 290.727 379.199 302.095 364.953 311.388V280.893L374.511 266.457L389.028 244.263Z" fill="#CDCDCD"/>
<path d="M358.371 257.164C354.945 252.924 350.166 248.864 344.035 245.345C336.37 240.924 327.354 237.676 317.706 235.692V205.196L325.099 192.024L341.6 205.467L341.239 213.226C341.239 213.226 340.247 230.188 345.567 238.94C350.346 246.789 357.019 255.36 358.371 257.164Z" fill="#CDCDCD"/>
<path d="M388.667 279.088C387.044 290.637 379.109 302.005 364.863 311.298V280.803L374.421 266.367L375.683 272.322C375.683 272.232 381.003 300.471 388.667 279.088Z" fill="#CDCDCD"/>
<path d="M364.863 280.803L348.272 271.239L347.912 270.969C371.986 254.729 370.724 230.188 344.035 214.76C336.37 210.339 327.354 207.091 317.706 205.106L325.099 191.934C338.174 194.55 350.436 198.971 360.896 205.016C396.962 225.857 398.315 259.059 364.863 280.803Z" fill="#E0E0E0"/>
<path d="M348.362 271.239V301.734L364.953 311.298V280.803L348.362 271.239Z" fill="#E0E0E0"/>
<path d="M246.294 243.27V220.173L229.343 210.429V233.526L246.294 243.27Z" fill="#009AD3"/>
<path d="M273.344 314.456L265.95 327.628C251.253 325.102 237.277 320.5 225.646 313.734C207.793 303.358 198.415 290.005 197.694 276.472H197.604V251.39L204.006 251.841L204.096 254.458C208.784 247.511 215.998 235.511 225.646 229.917C226.457 229.466 227.269 234.519 228.08 234.068C228.531 233.797 228.26 225.857 228.621 225.587L234.482 236.323L234.662 236.413L237.367 237.947L246.294 243.09C245.031 243.721 243.769 244.443 242.507 245.165C240.433 246.338 238.449 247.691 236.466 249.135C236.195 249.315 236.015 249.496 235.744 249.676C227.719 255.811 223.121 262.939 221.768 270.247C219.604 282.246 226.457 294.697 242.417 303.9C249.359 307.869 257.294 310.937 265.77 312.922C268.294 313.553 270.819 314.004 273.344 314.456Z" fill="#009BD5"/>
<path d="M273.344 291.359V314.456L265.95 327.628V304.531L273.344 291.359Z" fill="#2CC6FF"/>
<path d="M364.863 311.298C364.773 311.388 364.592 311.478 364.502 311.568C363.33 312.29 362.158 313.012 360.986 313.734C348.272 321.132 332.854 325.914 316.534 328.26C299.943 330.696 282.36 330.425 265.86 327.628V321.673L273.254 314.456C285.967 316.531 298.951 316.621 311.665 314.726C323.476 312.922 334.657 309.313 343.944 303.99C345.207 303.268 346.379 302.546 347.461 301.824C347.551 301.734 347.731 301.644 347.821 301.554L348.182 301.824L364.773 305.433V311.298H364.863Z" fill="#00A6E3"/>
<path d="M364.863 305.343C364.773 305.433 364.592 305.524 364.502 305.614C363.33 306.336 362.158 307.057 360.986 307.779C348.272 315.177 332.854 319.959 316.534 322.305C313.017 322.846 309.41 323.207 305.714 323.478C303.099 323.658 300.574 323.839 297.959 323.839C287.229 324.109 276.5 323.388 265.86 321.583L273.254 308.411C285.967 310.486 298.951 310.576 311.665 308.681C315.542 308.14 319.329 307.328 323.116 306.336C330.69 304.351 337.723 301.554 343.944 297.945C345.207 297.223 346.379 296.501 347.461 295.78C347.551 295.689 347.731 295.599 347.821 295.509L348.182 295.78L364.863 305.343Z" fill="#00BAFF"/>
<path d="M265.86 304.531V327.628C251.163 325.102 237.187 320.501 225.556 313.734C213.924 307.057 205.899 299.028 201.571 290.547C201.571 290.456 201.481 290.456 201.481 290.456C199.137 285.855 197.874 281.164 197.604 276.472H197.514V251.39L219.154 280.532L237.187 289.825L265.86 304.531Z" fill="#00A6E3"/>
<path d="M265.86 304.531V327.628C251.163 325.102 237.187 320.501 225.555 313.734C213.924 307.057 205.899 299.028 201.571 290.547C202.202 291.629 209.506 303.539 220.145 304.531C231.236 305.614 233.31 294.607 233.31 294.607L237.277 289.825L265.86 304.531Z" fill="#00A6E3"/>
<path d="M273.344 291.359L265.95 304.531C251.253 302.005 237.277 297.404 225.646 290.637C188.317 269.074 188.317 234.068 225.646 212.414C226.908 211.692 228.17 211.061 229.433 210.339L246.384 220.083C245.122 220.715 243.859 221.436 242.597 222.158C240.072 223.602 237.728 225.226 235.384 227.03C231.597 230.008 228.531 233.256 226.277 236.684C216.449 251.48 221.859 268.893 242.597 280.893C251.433 286.036 262.073 289.464 273.344 291.359Z" fill="#00BAFF"/>
<path d="M295.615 287.209C317.075 287.209 334.477 277.194 334.477 264.743C334.477 252.383 317.075 242.278 295.615 242.278C274.155 242.278 256.753 252.293 256.753 264.743C256.753 277.194 274.155 287.209 295.615 287.209Z" fill="#292A2C"/>
<path d="M295.615 281.885C317.075 281.885 334.477 271.871 334.477 259.42C334.477 247.06 317.075 236.955 295.615 236.955C274.155 236.955 256.753 246.969 256.753 259.42C256.753 271.871 274.155 281.885 295.615 281.885Z" fill="#78797C"/>
<path d="M302.107 278.998C302.017 279.269 301.746 279.54 301.386 279.81C300.394 280.352 298.681 280.352 297.689 279.81C297.328 279.63 297.058 279.359 296.968 278.998C296.787 278.547 297.058 278.006 297.689 277.645C298.681 277.104 300.394 277.104 301.386 277.645C302.017 278.006 302.287 278.547 302.107 278.998Z" fill="#CDCDCD"/>
<path d="M302.107 278.998C302.017 279.269 301.746 279.54 301.386 279.81C300.394 280.352 298.681 280.352 297.689 279.81C297.328 279.63 297.058 279.359 296.967 278.998C297.058 278.728 297.328 278.457 297.689 278.186C298.681 277.555 300.394 277.555 301.386 278.186C301.836 278.457 302.017 278.728 302.107 278.998Z" fill="#231F20"/>
<path d="M316.804 276.201C316.714 276.472 316.444 276.743 316.083 277.013C315.091 277.645 313.378 277.645 312.386 277.013C312.025 276.833 311.755 276.562 311.665 276.201C311.484 275.75 311.755 275.209 312.386 274.848C313.378 274.217 315.091 274.217 316.083 274.848C316.714 275.209 316.984 275.75 316.804 276.201Z" fill="#CDCDCD"/>
<path d="M316.804 276.201C316.714 276.472 316.443 276.743 316.083 277.013C315.091 277.645 313.378 277.645 312.386 277.013C312.025 276.833 311.755 276.562 311.665 276.201C311.755 275.931 312.025 275.66 312.386 275.389C313.378 274.758 315.091 274.758 316.083 275.389C316.443 275.66 316.714 275.931 316.804 276.201Z" fill="#231F20"/>
<path d="M327.805 269.254C327.714 269.525 327.444 269.796 327.083 270.066C326.091 270.608 324.378 270.608 323.386 270.066C323.026 269.886 322.755 269.615 322.665 269.254C322.485 268.803 322.755 268.262 323.386 267.901C324.378 267.269 326.091 267.269 327.083 267.901C327.714 268.262 327.985 268.713 327.805 269.254Z" fill="#CDCDCD"/>
<path d="M327.805 269.254C327.714 269.525 327.444 269.796 327.083 270.066C326.091 270.608 324.378 270.608 323.386 270.066C323.026 269.886 322.755 269.615 322.665 269.254C322.755 268.984 323.026 268.713 323.386 268.442C324.378 267.901 326.091 267.901 327.083 268.442C327.444 268.623 327.714 268.893 327.805 269.254Z" fill="#231F20"/>
<path d="M282.361 278.096C282.451 278.367 282.721 278.637 283.082 278.908C284.074 279.449 285.787 279.449 286.779 278.908C287.139 278.728 287.41 278.457 287.5 278.096C287.68 277.645 287.41 277.104 286.779 276.743C285.787 276.111 284.074 276.111 283.082 276.743C282.451 277.104 282.18 277.555 282.361 278.096Z" fill="#CDCDCD"/>
<path d="M282.36 278.096C282.451 278.367 282.721 278.637 283.082 278.908C284.074 279.54 285.787 279.54 286.779 278.908C287.139 278.728 287.41 278.457 287.5 278.096C287.41 277.825 287.139 277.555 286.779 277.284C285.787 276.653 284.074 276.653 283.082 277.284C282.721 277.465 282.451 277.735 282.36 278.096Z" fill="#231F20"/>
<path d="M267.663 272.232C267.753 272.502 268.024 272.773 268.385 273.044C269.376 273.585 271.09 273.585 272.081 273.044C272.442 272.863 272.713 272.593 272.803 272.232C272.983 271.781 272.713 271.239 272.081 270.878C271.09 270.247 269.376 270.247 268.385 270.878C267.753 271.239 267.573 271.781 267.663 272.232Z" fill="#CDCDCD"/>
<path d="M267.663 272.232C267.753 272.502 268.024 272.773 268.385 273.044C269.376 273.585 271.09 273.585 272.082 273.044C272.442 272.863 272.713 272.592 272.803 272.232C272.713 271.961 272.442 271.69 272.082 271.42C271.09 270.878 269.376 270.878 268.385 271.42C268.024 271.69 267.753 271.961 267.663 272.232Z" fill="#231F20"/>
<path d="M323.837 261.946C322.935 265.284 320.23 268.532 315.812 271.059C304.632 277.555 286.598 277.555 275.418 271.059C270.909 268.442 268.294 265.284 267.393 261.946C266.04 256.894 268.745 251.661 275.418 247.781C286.598 241.285 304.632 241.285 315.812 247.781C322.485 251.661 325.19 256.894 323.837 261.946Z" fill="#231F20"/>
<path d="M323.837 261.946C322.935 265.284 320.23 268.532 315.812 271.059C304.632 277.555 286.598 277.555 275.418 271.059C270.909 268.442 268.294 265.284 267.393 261.946C268.294 258.608 270.999 255.36 275.418 252.834C286.598 246.338 304.632 246.338 315.812 252.834C320.23 255.36 322.935 258.608 323.837 261.946Z" fill="#D8F4FF"/>
<path d="M284.074 202.851L289.935 206.189L295.795 202.851L289.935 199.512L284.074 202.851Z" fill="url(#paint27_linear)"/>
<path d="M284.074 202.851V209.617L289.935 212.956V206.189L284.074 202.851Z" fill="url(#paint28_linear)"/>
<path d="M295.795 202.851V209.617L289.934 212.956V206.189L295.795 202.851Z" fill="url(#paint29_linear)"/>
<path d="M304.542 214.58L307.427 216.294L310.312 214.58L307.337 212.865L304.542 214.58Z" fill="#C4C4C4"/>
<path d="M304.542 214.58V218.008L307.427 219.722V216.294L304.542 214.58Z" fill="#CDCDCD"/>
<path d="M310.402 214.58V218.008L307.517 219.722V216.294L310.402 214.58Z" fill="#BABABA"/>
<path d="M298.681 197.798L301.656 199.513L304.542 197.798L301.566 196.084L298.681 197.798Z" fill="url(#paint30_linear)"/>
<path d="M298.681 197.798V201.227L301.656 202.941V199.422L298.681 197.798Z" fill="url(#paint31_linear)"/>
<path d="M304.541 197.798V201.227L301.656 202.941V199.422L304.541 197.798Z" fill="url(#paint32_linear)"/>
<path d="M288.041 178.13L295.795 182.641L303.55 178.13L295.795 173.619L288.041 178.13Z" fill="url(#paint33_linear)"/>
<path d="M288.041 178.13V187.062L295.795 191.573V182.641L288.041 178.13Z" fill="url(#paint34_linear)"/>
<path d="M303.55 178.13V187.062L295.795 191.573V182.641L303.55 178.13Z" fill="url(#paint35_linear)"/>
<path d="M279.385 172.717L282.27 174.431L285.156 172.717L282.27 171.002L279.385 172.717Z" fill="url(#paint36_linear)"/>
<path d="M279.385 172.716V176.055L282.27 177.769V174.431L279.385 172.716Z" fill="url(#paint37_linear)"/>
<path d="M285.246 172.716V176.055L282.36 177.769V174.431L285.246 172.716Z" fill="url(#paint38_linear)"/>
<path d="M294.803 161.439L299.943 164.416L304.992 161.439L299.853 158.461L294.803 161.439Z" fill="#C4C4C4"/>
<path d="M294.803 161.439V167.303L299.943 170.28V164.416L294.803 161.439Z" fill="#CDCDCD"/>
<path d="M304.902 161.439V167.303L299.853 170.28V164.416L304.902 161.439Z" fill="#BABABA"/>
<path d="M309.32 176.506L311.484 177.769L313.648 176.506L311.484 175.243L309.32 176.506Z" fill="#C4C4C4"/>
<path d="M309.32 176.506V179.032L311.484 180.295V177.769L309.32 176.506Z" fill="#CDCDCD"/>
<path d="M313.738 176.506V179.032L311.574 180.295V177.769L313.738 176.506Z" fill="#BABABA"/>
<path d="M281.91 221.797L284.074 223.061L286.238 221.797L284.074 220.534L281.91 221.797Z" fill="#C4C4C4"/>
<path d="M281.91 221.797V224.324L284.074 225.587V223.06L281.91 221.797Z" fill="#CDCDCD"/>
<path d="M286.328 221.797V224.324L284.164 225.587V223.06L286.328 221.797Z" fill="#BABABA"/>
<path d="M288.582 236.504L295.795 240.654L303.009 236.504L295.795 232.353L288.582 236.504Z" fill="url(#paint39_linear)"/>
<path d="M288.582 236.504V244.804L295.795 248.954V240.654L288.582 236.504Z" fill="url(#paint40_linear)"/>
<path d="M303.009 236.504V244.804L295.795 248.954V240.654L303.009 236.504Z" fill="url(#paint41_linear)"/>
</g>
</g>
<defs>
<filter id="filter0_d" x="-50" y="3" width="700" height="550" filterUnits="userSpaceOnUse" color-interpolation-filters="sRGB">
<feFlood flood-opacity="0" result="BackgroundImageFix"/>
<feColorMatrix in="SourceAlpha" type="matrix" values="0 0 0 0 0 0 0 0 0 0 0 0 0 0 0 0 0 0 127 0" result="hardAlpha"/>
<feOffset dy="25"/>
<feGaussianBlur stdDeviation="25"/>
<feColorMatrix type="matrix" values="0 0 0 0 0 0 0 0 0 0 0 0 0 0 0 0 0 0 0.25 0"/>
<feBlend mode="normal" in2="BackgroundImageFix" result="effect1_dropShadow"/>
<feBlend mode="normal" in="SourceGraphic" in2="effect1_dropShadow" result="shape"/>
</filter>
<linearGradient id="paint0_linear" x1="101.041" y1="79.1323" x2="155.673" y2="79.1323" gradientUnits="userSpaceOnUse">
<stop stop-color="#71439A"/>
<stop offset="0.8668" stop-color="#A76CAD"/>
</linearGradient>
<linearGradient id="paint1_linear" x1="412.779" y1="163.743" x2="427.181" y2="163.743" gradientUnits="userSpaceOnUse">
<stop stop-color="#71439A"/>
<stop offset="0.8668" stop-color="#A76CAD"/>
</linearGradient>
<linearGradient id="paint2_linear" x1="419.975" y1="169.981" x2="427.18" y2="169.981" gradientUnits="userSpaceOnUse">
<stop stop-color="#71439A"/>
<stop offset="0.8668" stop-color="#A76CAD"/>
</linearGradient>
<linearGradient id="paint3_linear" x1="412.779" y1="169.984" x2="419.984" y2="169.984" gradientUnits="userSpaceOnUse">
<stop stop-color="#71439A"/>
<stop offset="0.8668" stop-color="#A76CAD"/>
</linearGradient>
<linearGradient id="paint4_linear" x1="391.777" y1="137.632" x2="399.677" y2="137.632" gradientUnits="userSpaceOnUse">
<stop stop-color="#71439A"/>
<stop offset="0.8668" stop-color="#A76CAD"/>
</linearGradient>
<linearGradient id="paint5_linear" x1="395.724" y1="141.054" x2="399.676" y2="141.054" gradientUnits="userSpaceOnUse">
<stop stop-color="#71439A"/>
<stop offset="0.8668" stop-color="#A76CAD"/>
</linearGradient>
<linearGradient id="paint6_linear" x1="391.777" y1="141.055" x2="395.729" y2="141.055" gradientUnits="userSpaceOnUse">
<stop stop-color="#71439A"/>
<stop offset="0.8668" stop-color="#A76CAD"/>
</linearGradient>
<linearGradient id="paint7_linear" x1="405.1" y1="133.766" x2="410.591" y2="133.766" gradientUnits="userSpaceOnUse">
<stop stop-color="#71439A"/>
<stop offset="0.8668" stop-color="#A76CAD"/>
</linearGradient>
<linearGradient id="paint8_linear" x1="407.844" y1="136.144" x2="410.59" y2="136.144" gradientUnits="userSpaceOnUse">
<stop stop-color="#71439A"/>
<stop offset="0.8668" stop-color="#A76CAD"/>
</linearGradient>
<linearGradient id="paint9_linear" x1="405.1" y1="136.145" x2="407.848" y2="136.145" gradientUnits="userSpaceOnUse">
<stop stop-color="#71439A"/>
<stop offset="0.8668" stop-color="#A76CAD"/>
</linearGradient>
<linearGradient id="paint10_linear" x1="234.973" y1="85.5345" x2="240.551" y2="85.5345" gradientUnits="userSpaceOnUse">
<stop stop-color="#71439A"/>
<stop offset="0.8668" stop-color="#A76CAD"/>
</linearGradient>
<linearGradient id="paint11_linear" x1="180.158" y1="51.3336" x2="187.197" y2="51.3336" gradientUnits="userSpaceOnUse">
<stop stop-color="#71439A"/>
<stop offset="0.8668" stop-color="#A76CAD"/>
</linearGradient>
<linearGradient id="paint12_linear" x1="188.084" y1="74.0759" x2="195.123" y2="74.0759" gradientUnits="userSpaceOnUse">
<stop stop-color="#71439A"/>
<stop offset="0.8668" stop-color="#A76CAD"/>
</linearGradient>
<linearGradient id="paint13_linear" x1="225.696" y1="111.249" x2="231.198" y2="111.249" gradientUnits="userSpaceOnUse">
<stop stop-color="#71439A"/>
<stop offset="0.8668" stop-color="#A76CAD"/>
</linearGradient>
<linearGradient id="paint14_linear" x1="124.963" y1="128.856" x2="133.098" y2="128.856" gradientUnits="userSpaceOnUse">
<stop stop-color="#71439A"/>
<stop offset="0.8668" stop-color="#A76CAD"/>
</linearGradient>
<linearGradient id="paint15_linear" x1="231.419" y1="154.207" x2="237.355" y2="154.207" gradientUnits="userSpaceOnUse">
<stop stop-color="#71439A"/>
<stop offset="0.8668" stop-color="#A76CAD"/>
</linearGradient>
<linearGradient id="paint16_linear" x1="147.87" y1="133.282" x2="153.525" y2="133.282" gradientUnits="userSpaceOnUse">
<stop stop-color="#71439A"/>
<stop offset="0.8668" stop-color="#A76CAD"/>
</linearGradient>
<linearGradient id="paint17_linear" x1="128.357" y1="168.411" x2="134.013" y2="168.411" gradientUnits="userSpaceOnUse">
<stop stop-color="#71439A"/>
<stop offset="0.8668" stop-color="#A76CAD"/>
</linearGradient>
<linearGradient id="paint18_linear" x1="147.327" y1="177.21" x2="153.904" y2="177.21" gradientUnits="userSpaceOnUse">
<stop stop-color="#71439A"/>
<stop offset="0.8668" stop-color="#A76CAD"/>
</linearGradient>
<linearGradient id="paint19_linear" x1="131.486" y1="307.823" x2="139.773" y2="307.823" gradientUnits="userSpaceOnUse">
<stop stop-color="#71439A"/>
<stop offset="0.8668" stop-color="#A76CAD"/>
</linearGradient>
<linearGradient id="paint20_linear" x1="204.249" y1="345.136" x2="215.117" y2="345.136" gradientUnits="userSpaceOnUse">
<stop stop-color="#71439A"/>
<stop offset="0.8668" stop-color="#A76CAD"/>
</linearGradient>
<linearGradient id="paint21_linear" x1="148.423" y1="300.676" x2="161.715" y2="300.676" gradientUnits="userSpaceOnUse">
<stop stop-color="#71439A"/>
<stop offset="0.8668" stop-color="#A76CAD"/>
</linearGradient>
<linearGradient id="paint22_linear" x1="143.346" y1="310.401" x2="155.843" y2="310.401" gradientUnits="userSpaceOnUse">
<stop stop-color="#71439A"/>
<stop offset="0.8668" stop-color="#A76CAD"/>
</linearGradient>
<linearGradient id="paint23_linear" x1="181.132" y1="319.683" x2="189.267" y2="319.683" gradientUnits="userSpaceOnUse">
<stop stop-color="#71439A"/>
<stop offset="0.8668" stop-color="#A76CAD"/>
</linearGradient>
<linearGradient id="paint24_linear" x1="175.835" y1="329.064" x2="185.347" y2="329.064" gradientUnits="userSpaceOnUse">
<stop stop-color="#71439A"/>
<stop offset="0.8668" stop-color="#A76CAD"/>
</linearGradient>
<linearGradient id="paint25_linear" x1="128.19" y1="301.018" x2="132.401" y2="301.018" gradientUnits="userSpaceOnUse">
<stop stop-color="#71439A"/>
<stop offset="0.8668" stop-color="#A76CAD"/>
</linearGradient>
<linearGradient id="paint26_linear" x1="212.797" y1="337.631" x2="217.152" y2="337.631" gradientUnits="userSpaceOnUse">
<stop stop-color="#71439A"/>
<stop offset="0.8668" stop-color="#A76CAD"/>
</linearGradient>
<linearGradient id="paint27_linear" x1="284.109" y1="202.822" x2="295.777" y2="202.822" gradientUnits="userSpaceOnUse">
<stop stop-color="#71439A"/>
<stop offset="0.8668" stop-color="#A76CAD"/>
</linearGradient>
<linearGradient id="paint28_linear" x1="284.109" y1="207.88" x2="289.95" y2="207.88" gradientUnits="userSpaceOnUse">
<stop stop-color="#71439A"/>
<stop offset="0.8668" stop-color="#A76CAD"/>
</linearGradient>
<linearGradient id="paint29_linear" x1="289.95" y1="207.884" x2="295.777" y2="207.884" gradientUnits="userSpaceOnUse">
<stop stop-color="#71439A"/>
<stop offset="0.8668" stop-color="#A76CAD"/>
</linearGradient>
<linearGradient id="paint30_linear" x1="298.704" y1="197.761" x2="304.558" y2="197.761" gradientUnits="userSpaceOnUse">
<stop stop-color="#71439A"/>
<stop offset="0.8668" stop-color="#A76CAD"/>
</linearGradient>
<linearGradient id="paint31_linear" x1="298.704" y1="200.298" x2="301.635" y2="200.298" gradientUnits="userSpaceOnUse">
<stop stop-color="#71439A"/>
<stop offset="0.8668" stop-color="#A76CAD"/>
</linearGradient>
<linearGradient id="paint32_linear" x1="301.633" y1="200.3" x2="304.558" y2="200.3" gradientUnits="userSpaceOnUse">
<stop stop-color="#71439A"/>
<stop offset="0.8668" stop-color="#A76CAD"/>
</linearGradient>
<linearGradient id="paint33_linear" x1="288.036" y1="178.098" x2="303.544" y2="178.098" gradientUnits="userSpaceOnUse">
<stop stop-color="#71439A"/>
<stop offset="0.8668" stop-color="#A76CAD"/>
</linearGradient>
<linearGradient id="paint34_linear" x1="288.036" y1="184.82" x2="295.799" y2="184.82" gradientUnits="userSpaceOnUse">
<stop stop-color="#71439A"/>
<stop offset="0.8668" stop-color="#A76CAD"/>
</linearGradient>
<linearGradient id="paint35_linear" x1="295.799" y1="184.825" x2="303.544" y2="184.825" gradientUnits="userSpaceOnUse">
<stop stop-color="#71439A"/>
<stop offset="0.8668" stop-color="#A76CAD"/>
</linearGradient>
<linearGradient id="paint36_linear" x1="279.422" y1="172.746" x2="285.235" y2="172.746" gradientUnits="userSpaceOnUse">
<stop stop-color="#71439A"/>
<stop offset="0.8668" stop-color="#A76CAD"/>
</linearGradient>
<linearGradient id="paint37_linear" x1="279.422" y1="175.265" x2="282.332" y2="175.265" gradientUnits="userSpaceOnUse">
<stop stop-color="#71439A"/>
<stop offset="0.8668" stop-color="#A76CAD"/>
</linearGradient>
<linearGradient id="paint38_linear" x1="282.331" y1="175.267" x2="285.235" y2="175.267" gradientUnits="userSpaceOnUse">
<stop stop-color="#71439A"/>
<stop offset="0.8668" stop-color="#A76CAD"/>
</linearGradient>
<linearGradient id="paint39_linear" x1="288.603" y1="236.475" x2="302.995" y2="236.475" gradientUnits="userSpaceOnUse">
<stop stop-color="#71439A"/>
<stop offset="0.8668" stop-color="#A76CAD"/>
</linearGradient>
<linearGradient id="paint40_linear" x1="288.603" y1="242.713" x2="295.806" y2="242.713" gradientUnits="userSpaceOnUse">
<stop stop-color="#71439A"/>
<stop offset="0.8668" stop-color="#A76CAD"/>
</linearGradient>
<linearGradient id="paint41_linear" x1="295.806" y1="242.718" x2="302.995" y2="242.718" gradientUnits="userSpaceOnUse">
<stop stop-color="#71439A"/>
<stop offset="0.8668" stop-color="#A76CAD"/>
</linearGradient>
<clipPath id="clip0">
<rect width="600" height="450" fill="white"/>
</clipPath>
</defs>
</svg>
