<svg width="657" height="511" viewBox="0 0 657 511" fill="none" xmlns="http://www.w3.org/2000/svg">
<g clip-path="url(#clip0)" filter="url(#filter0_d)">
<path d="M370.5 126.3C370 123.9 369.4 121.6 368.6 119.3C368.5 119 368.3 118.7 368 118.5C367.7 118.3 367.4 118.2 367.1 118.2L360.1 117.9C359.8 117.9 359.5 117.8 359.2 117.6C358.9 117.4 358.7 117.2 358.6 116.9C358.5 116.6 358.4 116.3 358.4 116C358.4 115.7 358.5 115.4 358.7 115.2L362.7 109.4C362.9 109.1 363 108.8 363 108.4C363 108.1 362.9 107.7 362.7 107.4C360 103.4 356.8 99.7 353.2 96.6C352.9 96.4 352.6 96.2 352.3 96.2C352 96.2 351.6 96.2 351.3 96.4L345.1 99.6C344.8 99.7 344.5 99.8 344.2 99.8C343.9 99.8 343.6 99.7 343.4 99.5C343.1 99.3 342.9 99.1 342.8 98.8C342.7 98.5 342.6 98.2 342.6 97.9L343.2 90.9C343.2 90.6 343.2 90.2 343 89.9C342.8 89.6 342.6 89.4 342.3 89.2C338 87 333.4 85.5 328.7 84.6C328.4 84.5 328 84.6 327.7 84.7C327.4 84.8 327.1 85.1 326.9 85.3L323.1 91.2C322.9 91.5 322.7 91.7 322.4 91.8C322.1 91.9 321.8 92 321.5 92C321.2 92 320.9 91.9 320.7 91.7C320.4 91.5 320.2 91.3 320.1 91L317.1 84.6C317 84.3 316.7 84 316.4 83.9C316.1 83.7 315.8 83.6 315.4 83.7C310.6 84 305.8 84.9 301.3 86.5C301 86.6 300.7 86.8 300.5 87.1C300.3 87.4 300.2 87.7 300.2 88L299.9 95C299.9 95.3 299.8 95.6 299.6 95.9C299.4 96.2 299.2 96.4 298.9 96.5C298.6 96.6 298.3 96.7 298 96.7C297.7 96.7 297.4 96.6 297.2 96.4L291.4 92.4C291.1 92.2 290.8 92.1 290.5 92.1C290.2 92.1 289.8 92.2 289.5 92.4C285.5 95.1 281.8 98.3 278.7 101.9C278.5 102.2 278.3 102.5 278.3 102.8C278.3 103.1 278.3 103.5 278.5 103.8L281.7 110C281.8 110.3 281.9 110.6 281.9 110.9C281.9 111.2 281.8 111.5 281.6 111.7C281.4 112 281.2 112.2 280.9 112.3C280.6 112.4 280.3 112.5 280 112.5L273 111.9C272.7 111.9 272.3 111.9 272 112.1C271.7 112.3 271.5 112.5 271.3 112.8C269.1 117.1 267.6 121.7 266.7 126.4C266.6 126.7 266.7 127.1 266.8 127.4C266.9 127.7 267.2 128 267.4 128.2L273.3 132C273.6 132.2 273.8 132.4 273.9 132.7C274 133 274.1 133.3 274.1 133.6C274.1 133.9 274 134.2 273.8 134.4C273.6 134.7 273.4 134.9 273.1 135L266.7 138C266.4 138.1 266.1 138.4 266 138.7C265.8 139 265.7 139.3 265.8 139.7C266.1 144.5 267 149.3 268.6 153.8C268.7 154.1 268.9 154.4 269.2 154.6C269.5 154.8 269.8 154.9 270.1 154.9L277.1 155.2C277.4 155.2 277.7 155.3 278 155.5C278.3 155.7 278.5 155.9 278.6 156.2C278.7 156.5 278.8 156.8 278.8 157.1C278.8 157.4 278.7 157.7 278.5 157.9L274.5 163.7C274.3 164 274.2 164.3 274.2 164.7C274.2 165 274.3 165.4 274.5 165.7C277.2 169.7 280.4 173.4 284 176.5C284.3 176.7 284.6 176.9 284.9 176.9C285.2 176.9 285.6 176.9 285.9 176.7L292.2 173.5C292.5 173.4 292.8 173.3 293.1 173.3C293.4 173.3 293.7 173.4 293.9 173.6C294.2 173.8 294.4 174 294.5 174.3C294.6 174.6 294.7 174.9 294.7 175.2L294.1 182.2C294.1 182.5 294.1 182.9 294.3 183.2C294.5 183.5 294.7 183.7 295 183.9C299.3 186.1 303.9 187.6 308.7 188.5C309 188.6 309.4 188.5 309.7 188.4C310 188.3 310.3 188 310.5 187.8L314.3 181.9C314.5 181.6 314.7 181.4 315 181.3C315.3 181.2 315.6 181.1 315.9 181.1C316.2 181.1 316.5 181.2 316.7 181.4C317 181.6 317.2 181.8 317.3 182.1L320.3 188.5C320.4 188.8 320.7 189.1 321 189.2C321.3 189.4 321.6 189.5 322 189.4C326.8 189.1 331.6 188.2 336.1 186.6C336.4 186.5 336.7 186.3 336.9 186C337.1 185.7 337.2 185.4 337.2 185.1L337.5 178.1C337.5 177.8 337.6 177.5 337.8 177.2C338 176.9 338.2 176.7 338.5 176.6C338.8 176.5 339.1 176.4 339.4 176.4C339.7 176.4 340 176.5 340.2 176.7L346 180.7C346.3 180.9 346.6 181 346.9 181C347.2 181 347.6 180.9 347.9 180.7C351.9 178 355.6 174.8 358.7 171.2C358.9 170.9 359.1 170.6 359.1 170.3C359.1 170 359.1 169.6 358.9 169.3L355.7 163.1C355.6 162.8 355.5 162.5 355.5 162.2C355.5 161.9 355.6 161.6 355.8 161.4C356 161.1 356.2 160.9 356.5 160.8C356.8 160.7 357.1 160.6 357.4 160.6L364.2 161.2C364.6 161.2 365 161.1 365.3 160.9C365.6 160.7 365.9 160.4 366 160L370.5 146.7C370.6 146.3 370.6 145.9 370.5 145.6C370.4 145.2 370.1 144.9 369.8 144.7L364 141C363.7 140.8 363.5 140.6 363.4 140.3C363.3 140 363.2 139.7 363.2 139.4C363.2 139.1 363.3 138.8 363.5 138.6C363.7 138.3 363.9 138.1 364.2 138L370.5 135C370.8 134.9 371.1 134.6 371.2 134.3C371.4 134 371.5 133.7 371.4 133.3C371.3 131.1 371 128.7 370.5 126.3ZM352 135.4C352.1 137.7 351.9 140 351.6 142.3C351 145.8 349.9 149.1 348.2 152.3C347.1 154.3 345.8 156.3 344.4 158C339.5 163.9 332.8 167.9 325.3 169.4C321.3 170.2 317.2 170.3 313.2 169.6C309.7 169 306.4 167.9 303.2 166.2C301.2 165.1 299.2 163.8 297.5 162.4C294.8 160.2 292.4 157.5 290.6 154.5C289.4 152.6 288.3 150.5 287.6 148.3C286.4 145 285.7 141.5 285.5 138C285.4 135.7 285.5 133.4 285.9 131.1C286.5 127.6 287.6 124.3 289.3 121.2C290.4 119.2 291.7 117.2 293.1 115.5C295.3 112.8 298 110.4 301 108.6C304.4 106.4 308.3 104.9 312.2 104.1C319.7 102.6 327.5 103.7 334.3 107.3C336.3 108.4 338.3 109.7 340 111.1C342.7 113.3 345.1 116 346.9 119C348.1 120.9 349.1 123 349.9 125.2C351.2 128.4 351.8 131.9 352 135.4Z" fill="url(#paint0_linear)"/>
<path d="M258.6 139.5C258.5 138.9 258.3 138.3 258.1 137.7C258.1 137.6 258 137.5 258 137.5C257.9 137.4 257.8 137.4 257.8 137.4L256 137.3C255.9 137.3 255.8 137.3 255.8 137.2C255.7 137.2 255.7 137.1 255.7 137C255.7 136.9 255.7 136.9 255.7 136.8C255.7 136.7 255.7 136.7 255.8 136.6L256.8 135.1C256.8 135 256.9 134.9 256.9 134.9C256.9 134.8 256.9 134.7 256.8 134.7C256.1 133.7 255.3 132.8 254.4 132C254.3 131.9 254.3 131.9 254.2 131.9C254.1 131.9 254 131.9 254 131.9L252.4 132.7C252.3 132.7 252.3 132.8 252.2 132.7C252.1 132.7 252 132.7 252 132.6C251.9 132.6 251.9 132.5 251.9 132.4C251.9 132.3 251.9 132.3 251.9 132.2L252 130.4C252 130.3 252 130.2 251.9 130.2C251.9 130.1 251.8 130.1 251.7 130C250.6 129.5 249.5 129.1 248.3 128.8C248.2 128.8 248.1 128.8 248.1 128.8C248 128.8 248 128.9 247.9 129L246.9 130.5C246.9 130.6 246.8 130.6 246.7 130.7C246.6 130.7 246.6 130.7 246.5 130.7C246.4 130.7 246.3 130.7 246.3 130.6C246.2 130.6 246.2 130.5 246.2 130.4L245.4 128.8C245.4 128.7 245.3 128.7 245.2 128.6C245.1 128.6 245 128.5 245 128.5C243.8 128.6 242.6 128.8 241.4 129.2C241.3 129.2 241.2 129.3 241.2 129.3C241.1 129.4 241.1 129.5 241.1 129.5L241 131.3C241 131.4 241 131.5 240.9 131.5C240.9 131.6 240.8 131.6 240.7 131.6C240.6 131.6 240.6 131.6 240.5 131.6C240.4 131.6 240.4 131.6 240.3 131.5L238.8 130.5C238.7 130.5 238.6 130.4 238.6 130.4C238.5 130.4 238.4 130.4 238.4 130.5C237.4 131.2 236.5 132 235.7 132.9C235.6 133 235.6 133 235.6 133.1C235.6 133.2 235.6 133.3 235.6 133.3L236.4 134.9C236.4 135 236.5 135 236.4 135.1C236.4 135.2 236.4 135.3 236.3 135.3C236.3 135.4 236.2 135.4 236.1 135.4C236 135.4 236 135.4 235.9 135.4L234.1 135.3C234 135.3 233.9 135.3 233.9 135.4C233.8 135.4 233.8 135.5 233.7 135.6C233.2 136.7 232.8 137.8 232.5 139C232.5 139.1 232.5 139.2 232.5 139.3C232.5 139.4 232.6 139.4 232.7 139.5L234.2 140.5C234.3 140.5 234.3 140.6 234.4 140.7C234.4 140.8 234.5 140.8 234.4 140.9C234.4 141 234.4 141.1 234.3 141.1C234.3 141.2 234.2 141.2 234.1 141.2L232.5 142C232.4 142 232.4 142.1 232.3 142.2C232.3 142.3 232.2 142.4 232.2 142.4C232.3 143.6 232.5 144.8 232.9 146C232.9 146.1 233 146.2 233 146.2C233.1 146.3 233.2 146.3 233.2 146.3L235 146.4C235.1 146.4 235.2 146.4 235.2 146.5C235.3 146.5 235.3 146.6 235.3 146.7C235.3 146.8 235.3 146.8 235.3 146.9C235.3 147 235.3 147 235.2 147.1L234.2 148.6C234.2 148.7 234.1 148.8 234.1 148.8C234.1 148.9 234.1 149 234.2 149C234.9 150 235.7 150.9 236.6 151.7C236.7 151.8 236.7 151.8 236.8 151.8C236.9 151.8 237 151.8 237 151.8L238.6 151C238.7 151 238.7 150.9 238.8 151C238.9 151 239 151 239 151.1C239.1 151.1 239.1 151.2 239.1 151.3C239.1 151.4 239.1 151.4 239.1 151.5L239 153.3C239 153.4 239 153.5 239.1 153.5C239.1 153.6 239.2 153.6 239.3 153.7C240.4 154.2 241.5 154.6 242.7 154.9C242.8 154.9 242.9 154.9 242.9 154.9C243 154.9 243 154.8 243.1 154.7L244.1 153.2C244.1 153.1 244.2 153.1 244.3 153C244.4 153 244.4 153 244.5 153C244.6 153 244.6 153 244.7 153.1C244.8 153.1 244.8 153.2 244.8 153.3L245.6 154.9C245.6 155 245.7 155 245.8 155.1C245.9 155.1 246 155.2 246 155.2C247.2 155.1 248.4 154.9 249.6 154.5C249.7 154.5 249.8 154.4 249.8 154.4C249.9 154.3 249.9 154.2 249.9 154.2L250 152.4C250 152.3 250 152.2 250.1 152.2C250.1 152.1 250.2 152.1 250.3 152.1C250.4 152.1 250.4 152.1 250.5 152.1C250.6 152.1 250.6 152.1 250.7 152.2L252.2 153.2C252.3 153.2 252.4 153.3 252.4 153.3C252.5 153.3 252.6 153.3 252.6 153.2C253.6 152.5 254.5 151.7 255.3 150.8C255.4 150.7 255.4 150.7 255.4 150.6C255.4 150.5 255.4 150.4 255.4 150.4L254.6 148.8C254.6 148.7 254.5 148.7 254.6 148.6C254.6 148.5 254.6 148.4 254.7 148.4C254.7 148.3 254.8 148.3 254.9 148.3C255 148.3 255 148.3 255.1 148.3L256.8 148.4C256.9 148.4 257 148.4 257.1 148.3C257.2 148.2 257.2 148.2 257.3 148.1L258.4 144.8C258.4 144.7 258.4 144.6 258.4 144.5C258.4 144.4 258.3 144.3 258.2 144.3L256.7 143.4C256.6 143.4 256.6 143.3 256.5 143.2C256.5 143.1 256.5 143.1 256.5 143C256.5 142.9 256.5 142.8 256.6 142.8C256.6 142.7 256.7 142.7 256.8 142.7L258.4 141.9C258.5 141.9 258.5 141.8 258.6 141.7C258.6 141.6 258.7 141.5 258.7 141.5C258.8 140.7 258.8 140.1 258.6 139.5ZM254 141.8C254 142.4 254 143 253.9 143.5C253.8 144.4 253.5 145.2 253 146C252.7 146.5 252.4 147 252 147.4C250.8 148.9 249.1 149.9 247.2 150.3C246.2 150.5 245.2 150.5 244.2 150.3C243.3 150.2 242.5 149.9 241.7 149.4C241.2 149.1 240.7 148.8 240.3 148.4C239.6 147.8 239 147.2 238.6 146.4C238.3 145.9 238 145.4 237.8 144.8C237.5 144 237.3 143.1 237.3 142.2C237.3 141.6 237.3 141 237.4 140.5C237.5 139.6 237.8 138.8 238.3 138C238.6 137.5 238.9 137 239.3 136.6C239.9 135.9 240.5 135.3 241.3 134.9C242.2 134.4 243.1 134 244.1 133.8C246 133.4 248 133.7 249.7 134.6C250.2 134.9 250.7 135.2 251.1 135.6C251.8 136.2 252.4 136.8 252.8 137.6C253.1 138.1 253.4 138.6 253.6 139.2C253.8 140 253.9 140.9 254 141.8Z" fill="url(#paint1_linear)"/>
<path d="M584.5 401.6C584.5 400.1 584.4 398.5 584.2 397C584.2 396.8 584.1 396.6 583.9 396.4C583.8 396.2 583.6 396.1 583.4 396.1L579.1 395C578.9 395 578.7 394.9 578.6 394.7C578.5 394.6 578.4 394.4 578.3 394.2C578.2 394 578.3 393.8 578.3 393.6C578.3 393.4 578.5 393.2 578.6 393.1L581.8 390C582 389.8 582.1 389.7 582.1 389.4C582.1 389.2 582.1 389 582 388.8C580.8 386 579.3 383.3 577.4 380.9C577.3 380.7 577.1 380.6 576.9 380.5C576.7 380.4 576.5 380.4 576.3 380.5L572 381.7C571.8 381.8 571.6 381.8 571.4 381.7C571.2 381.7 571 381.6 570.9 381.4C570.8 381.3 570.7 381.1 570.6 380.9C570.6 380.7 570.6 380.5 570.6 380.3L571.8 376C571.9 375.8 571.9 375.6 571.8 375.4C571.7 375.2 571.6 375 571.4 374.9C569 373 566.3 371.5 563.5 370.3C563.3 370.2 563.1 370.2 562.9 370.2C562.7 370.2 562.5 370.4 562.3 370.5L559.2 373.7C559.1 373.8 558.9 373.9 558.7 374C558.5 374.1 558.3 374.1 558.1 374C557.9 373.9 557.7 373.9 557.6 373.7C557.5 373.6 557.4 373.4 557.3 373.2L556.2 368.9C556.1 368.7 556 368.5 555.9 368.4C555.7 368.3 555.5 368.2 555.3 368.1C552.3 367.7 549.2 367.7 546.1 368.1C545.9 368.1 545.7 368.2 545.5 368.4C545.3 368.5 545.2 368.7 545.2 368.9L544.1 373.2C544.1 373.4 544 373.6 543.8 373.7C543.7 373.8 543.5 373.9 543.3 374C543.1 374.1 542.9 374 542.7 374C542.5 373.9 542.3 373.8 542.2 373.7L539.1 370.5C538.9 370.3 538.8 370.2 538.5 370.2C538.3 370.2 538.1 370.2 537.9 370.3C535.1 371.5 532.4 373 529.9 374.9C529.7 375 529.6 375.2 529.5 375.4C529.4 375.6 529.4 375.8 529.5 376L530.7 380.3C530.8 380.5 530.8 380.7 530.7 380.9C530.7 381.1 530.6 381.3 530.4 381.4C530.3 381.5 530.1 381.6 529.9 381.7C529.7 381.7 529.5 381.7 529.3 381.7L525 380.5C524.8 380.4 524.6 380.4 524.4 380.5C524.2 380.6 524 380.7 523.9 380.9C522 383.3 520.5 386 519.3 388.8C519.2 389 519.2 389.2 519.2 389.4C519.2 389.6 519.4 389.8 519.5 390L522.7 393.1C522.8 393.2 522.9 393.4 523 393.6C523.1 393.8 523.1 394 523 394.2C523 394.4 522.9 394.6 522.7 394.7C522.6 394.8 522.4 394.9 522.2 395L517.9 396.1C517.7 396.2 517.5 396.3 517.4 396.4C517.3 396.6 517.2 396.8 517.1 397C516.7 400 516.7 403.1 517.1 406.2C517.1 406.4 517.2 406.6 517.4 406.8C517.5 407 517.7 407.1 517.9 407.1L522.2 408.2C522.4 408.2 522.6 408.3 522.7 408.5C522.8 408.6 522.9 408.8 523 409C523 409.2 523 409.4 523 409.6C522.9 409.8 522.8 410 522.7 410.1L519.5 413.2C519.3 413.4 519.2 413.5 519.2 413.8C519.2 414 519.2 414.2 519.3 414.4C520.5 417.2 522 419.9 523.9 422.3C524 422.5 524.2 422.6 524.4 422.7C524.6 422.8 524.8 422.8 525 422.7L529.3 421.5C529.5 421.4 529.7 421.4 529.9 421.5C530.1 421.5 530.3 421.6 530.4 421.8C530.5 421.9 530.6 422.1 530.7 422.3C530.7 422.5 530.7 422.7 530.7 422.9L529.5 427.2C529.4 427.4 529.4 427.6 529.5 427.8C529.6 428 529.7 428.2 529.9 428.3C532.3 430.2 535 431.7 537.9 432.9C538.1 433 538.3 433 538.5 433C538.7 433 538.9 432.8 539.1 432.7L542.2 429.5C542.3 429.4 542.5 429.3 542.7 429.2C542.9 429.1 543.1 429.1 543.3 429.2C543.5 429.3 543.7 429.3 543.8 429.5C543.9 429.6 544 429.8 544.1 430L545.2 434.3C545.3 434.5 545.4 434.7 545.5 434.8C545.7 434.9 545.9 435 546.1 435.1C549.1 435.5 552.2 435.5 555.3 435.1C555.5 435.1 555.7 435 555.9 434.8C556.1 434.7 556.2 434.5 556.2 434.3L557.3 430C557.3 429.8 557.4 429.6 557.6 429.5C557.8 429.4 557.9 429.3 558.1 429.2C558.3 429.1 558.5 429.2 558.7 429.2C558.9 429.3 559.1 429.4 559.2 429.5L562.3 432.7C562.4 432.9 562.6 433 562.9 433C563.1 433 563.3 433 563.5 432.9C566.3 431.7 569 430.2 571.4 428.3C571.6 428.2 571.7 428 571.8 427.8C571.9 427.6 571.9 427.4 571.8 427.2L570.6 422.9C570.5 422.7 570.5 422.5 570.6 422.3C570.6 422.1 570.7 421.9 570.9 421.8C571 421.7 571.2 421.6 571.4 421.5C571.6 421.5 571.8 421.5 572 421.5L576.2 422.7C576.4 422.8 576.7 422.8 576.9 422.7C577.1 422.6 577.3 422.4 577.4 422.2L581.9 414.5C582 414.3 582.1 414 582 413.8C582 413.6 581.9 413.3 581.7 413.2L578.6 410.2C578.5 410.1 578.4 409.9 578.3 409.7C578.2 409.5 578.2 409.3 578.3 409.1C578.4 408.9 578.4 408.7 578.6 408.6C578.7 408.5 578.9 408.4 579.1 408.3L583.4 407.2C583.6 407.1 583.8 407 583.9 406.9C584 406.7 584.1 406.5 584.2 406.3C584.4 404.7 584.5 403.1 584.5 401.6ZM571.7 405C571.5 406.4 571.1 407.9 570.6 409.2C569.8 411.3 568.7 413.3 567.3 415C566.4 416.1 565.3 417.2 564.2 418.1C560.4 421.2 555.7 422.8 550.8 422.8C548.2 422.8 545.6 422.3 543.2 421.4C541.1 420.6 539.1 419.5 537.4 418.1C536.3 417.2 535.2 416.1 534.3 415C532.9 413.3 531.8 411.3 531 409.2C530.5 407.8 530.1 406.4 529.9 405C529.5 402.8 529.5 400.5 529.9 398.3C530.1 396.9 530.5 395.4 531 394.1C531.8 392 532.9 390.1 534.3 388.3C535.2 387.2 536.3 386.1 537.4 385.2C539.1 383.8 541.1 382.7 543.2 381.9C545.6 381 548.2 380.5 550.8 380.5C555.7 380.5 560.4 382.2 564.2 385.2C565.3 386.1 566.4 387.2 567.3 388.3C568.7 390 569.8 392 570.6 394.1C571.1 395.5 571.5 396.9 571.7 398.3C572.1 400.5 572.1 402.7 571.7 405Z" fill="url(#paint2_linear)"/>
<path d="M508.5 433.6C509.1 433.2 509.6 432.8 510.1 432.3C510.2 432.2 510.2 432.2 510.2 432.1C510.2 432 510.2 431.9 510.2 431.8L509.5 430C509.5 429.9 509.5 429.8 509.5 429.8C509.5 429.7 509.6 429.6 509.6 429.6C509.7 429.5 509.7 429.5 509.8 429.5C509.9 429.5 510 429.5 510 429.5L511.9 429.9C512 429.9 512.1 429.9 512.2 429.9C512.3 429.9 512.4 429.8 512.4 429.7C513.1 428.6 513.7 427.3 514.1 426.1C514.1 426 514.1 425.9 514.1 425.8C514.1 425.7 514 425.6 513.9 425.6L512.4 424.4C512.3 424.3 512.3 424.3 512.3 424.2C512.3 424.1 512.3 424 512.3 424C512.3 423.9 512.4 423.8 512.4 423.8C512.5 423.7 512.5 423.7 512.6 423.7L514.5 423.1C514.6 423.1 514.7 423 514.7 422.9C514.8 422.8 514.8 422.7 514.8 422.6C514.9 421.3 514.8 419.9 514.5 418.6C514.5 418.5 514.4 418.4 514.4 418.4C514.3 418.3 514.2 418.3 514.2 418.3L512.3 418C512.2 418 512.1 417.9 512.1 417.9C512 417.8 512 417.8 512 417.7C512 417.6 512 417.5 512 417.5C512 417.4 512.1 417.3 512.1 417.3L513.4 415.8C513.5 415.7 513.5 415.6 513.5 415.5C513.5 415.4 513.5 415.3 513.5 415.2C512.9 414 512.1 412.9 511.2 411.9C511.1 411.8 511.1 411.8 511 411.8C510.9 411.8 510.8 411.8 510.7 411.8L508.9 412.5C508.8 412.5 508.7 412.5 508.7 412.5C508.6 412.5 508.5 412.4 508.5 412.4C508.4 412.3 508.4 412.3 508.4 412.2C508.4 412.1 508.4 412 508.4 412L508.8 410.1C508.8 410 508.8 409.9 508.8 409.8C508.8 409.7 508.7 409.6 508.6 409.6C507.5 408.9 506.2 408.3 505 407.9C504.9 407.9 504.8 407.9 504.7 407.9C504.6 407.9 504.5 408 504.5 408.1L503.3 409.6C503.2 409.7 503.2 409.7 503.1 409.7C503 409.7 502.9 409.7 502.9 409.7C502.8 409.7 502.7 409.6 502.7 409.6C502.6 409.5 502.6 409.5 502.6 409.4L502 407.5C502 407.4 501.9 407.3 501.8 407.3C501.7 407.2 501.6 407.2 501.5 407.2C500.2 407.1 498.8 407.2 497.5 407.5C497.4 407.5 497.3 407.6 497.3 407.6C497.2 407.7 497.2 407.8 497.2 407.8L496.9 409.7C496.9 409.8 496.8 409.9 496.8 409.9C496.7 410 496.7 410 496.6 410C496.5 410 496.4 410 496.4 410C496.3 410 496.2 409.9 496.2 409.9L494.7 408.6C494.6 408.5 494.5 408.5 494.4 408.5C494.3 408.5 494.2 408.5 494.1 408.5C492.9 409.1 491.8 409.9 490.8 410.8C490.7 410.9 490.7 410.9 490.7 411C490.7 411.1 490.7 411.2 490.7 411.3L491.4 413.1C491.4 413.2 491.4 413.3 491.4 413.3C491.4 413.4 491.3 413.5 491.3 413.5C491.2 413.6 491.2 413.6 491.1 413.6C491 413.6 490.9 413.6 490.9 413.6L489 413.2C488.9 413.2 488.8 413.2 488.7 413.2C488.6 413.2 488.5 413.3 488.5 413.4C487.8 414.5 487.2 415.8 486.8 417C486.8 417.1 486.8 417.2 486.8 417.3C486.8 417.4 486.9 417.5 487 417.5L488.5 418.8C488.6 418.9 488.6 418.9 488.6 419C488.6 419.1 488.6 419.2 488.6 419.2C488.6 419.3 488.5 419.4 488.5 419.4C488.4 419.5 488.4 419.5 488.3 419.5L486.4 420.1C486.3 420.1 486.2 420.2 486.2 420.3C486.1 420.4 486.1 420.5 486.1 420.6C486 421.9 486.1 423.3 486.4 424.6C486.4 424.7 486.5 424.8 486.5 424.8C486.6 424.9 486.7 424.9 486.7 424.9L488.6 425.2C488.7 425.2 488.8 425.3 488.8 425.3C488.8 425.3 488.9 425.4 488.9 425.5C488.9 425.6 488.9 425.7 488.9 425.7C488.9 425.8 488.8 425.9 488.8 425.9L487.5 427.4C487.4 427.5 487.4 427.6 487.4 427.7C487.4 427.8 487.4 427.9 487.4 428C488 429.2 488.8 430.3 489.7 431.3C489.8 431.4 489.8 431.4 489.9 431.4C490 431.4 490.1 431.4 490.2 431.4L492 430.7C492.1 430.7 492.2 430.7 492.2 430.7C492.3 430.7 492.4 430.8 492.4 430.8C492.5 430.9 492.5 430.9 492.5 431C492.5 431.1 492.5 431.2 492.5 431.2L492.1 433.1C492.1 433.2 492.1 433.3 492.1 433.4C492.1 433.5 492.2 433.6 492.3 433.6C493.4 434.3 494.7 434.9 495.9 435.3C496 435.3 496.1 435.3 496.2 435.3C496.3 435.3 496.4 435.2 496.4 435.1L497.6 433.6C497.7 433.5 497.7 433.5 497.8 433.5C497.9 433.5 498 433.5 498 433.5C498.1 433.5 498.2 433.6 498.2 433.6C498.3 433.7 498.3 433.7 498.3 433.8L498.9 435.6C498.9 435.7 499 435.8 499.1 435.8C499.2 435.9 499.3 435.9 499.4 435.9L503.3 435.6C503.4 435.6 503.5 435.5 503.6 435.5C503.7 435.4 503.7 435.3 503.7 435.2L504 433.3C504 433.2 504.1 433.1 504.1 433.1C504.2 433 504.2 433 504.3 433C504.4 433 504.5 433 504.5 433C504.6 433 504.7 433.1 504.7 433.1L506.2 434.4C506.3 434.5 506.4 434.5 506.5 434.5C506.6 434.5 506.7 434.5 506.8 434.5C507.4 434.4 508 434 508.5 433.6ZM504.2 429.9C503.6 430.2 503 430.4 502.4 430.5C501.4 430.7 500.5 430.8 499.5 430.7C498.9 430.6 498.2 430.5 497.6 430.4C495.5 429.8 493.8 428.5 492.6 426.7C492 425.8 491.5 424.7 491.2 423.6C491 422.6 490.9 421.7 491 420.7C491.1 420.1 491.2 419.4 491.4 418.8C491.7 417.9 492.1 417 492.7 416.2C493.1 415.7 493.5 415.2 494 414.7C494.7 414 495.5 413.5 496.4 413C497 412.7 497.6 412.5 498.2 412.4C499.2 412.2 500.1 412.1 501.1 412.2C501.7 412.3 502.4 412.4 503 412.6C503.9 412.9 504.8 413.3 505.7 413.9C506.6 414.5 507.4 415.4 508.1 416.3C509.3 418.1 509.9 420.2 509.7 422.3C509.6 422.9 509.5 423.6 509.3 424.2C509 425.1 508.6 426 508 426.9C507.6 427.4 507.2 427.9 506.8 428.4C505.9 428.9 505 429.4 504.2 429.9Z" fill="url(#paint3_linear)"/>
<path opacity="0.9" d="M605.5 133.2C606 128.9 606.3 124.5 606.2 120.1C606.2 119.5 606 118.9 605.6 118.4C605.2 117.9 604.8 117.5 604.2 117.3L592.3 112.7C591.8 112.5 591.3 112.2 591 111.7C590.7 111.3 590.4 110.8 590.4 110.2C590.3 109.7 590.4 109.1 590.6 108.6C590.8 108.1 591.2 107.6 591.6 107.3L601.8 99.6C602.3 99.2 602.7 98.7 602.9 98.1C603.1 97.5 603.1 96.9 603 96.3C600.7 87.9 597.3 79.8 592.8 72.3C592.5 71.8 592 71.4 591.5 71.1C590.9 70.8 590.3 70.8 589.7 70.9L577.1 72.9C576.6 73 576 72.9 575.5 72.7C575 72.5 574.5 72.2 574.2 71.7C573.9 71.3 573.6 70.8 573.6 70.2C573.5 69.7 573.6 69.1 573.8 68.6L578.8 56.9C579 56.3 579.1 55.7 579 55.1C578.9 54.5 578.6 53.9 578.2 53.5C572 47.3 565 42.1 557.4 37.8C556.9 37.5 556.2 37.4 555.6 37.4C555 37.5 554.4 37.7 553.9 38.1L544 46.1C543.6 46.4 543.1 46.7 542.5 46.7C542 46.8 541.4 46.7 540.9 46.5C540.4 46.3 539.9 46 539.6 45.5C539.3 45.1 539.1 44.5 539 44L537.5 31.4C537.4 30.8 537.2 30.2 536.8 29.8C536.4 29.3 535.9 29 535.3 28.8C526.9 26.6 518.2 25.5 509.4 25.6C508.8 25.6 508.2 25.8 507.7 26.2C507.2 26.6 506.8 27 506.6 27.6L502 39.5C501.8 40 501.5 40.5 501 40.8C500.6 41.1 500.1 41.4 499.5 41.4C498.9 41.4 498.4 41.4 497.9 41.2C497.4 41 497 40.6 496.6 40.2L488.9 30C488.5 29.5 488 29.1 487.4 28.9C486.8 28.7 486.2 28.7 485.6 28.8C477.2 31.1 469.1 34.5 461.6 39C461.1 39.3 460.7 39.8 460.4 40.3C460.1 40.9 460.1 41.5 460.2 42.1L462.2 54.7C462.3 55.2 462.2 55.8 462 56.3C461.8 56.8 461.5 57.3 461 57.6C460.6 57.9 460.1 58.2 459.5 58.2C459 58.3 458.4 58.2 457.9 58L446.2 53C445.6 52.8 445 52.7 444.4 52.8C443.8 52.9 443.2 53.2 442.8 53.6C436.6 59.8 431.3 66.8 427.1 74.4C426.8 74.9 426.7 75.6 426.7 76.2C426.8 76.8 427 77.4 427.4 77.9L435.4 87.8C435.7 88.2 436 88.7 436.1 89.3C436.2 89.8 436.1 90.4 435.9 90.9C435.7 91.4 435.4 91.9 434.9 92.2C434.5 92.5 433.9 92.7 433.4 92.8L420.8 94.3C420.2 94.4 419.6 94.6 419.1 95C418.6 95.4 418.3 95.9 418.1 96.5C415.9 104.9 414.8 113.7 414.9 122.4C414.9 123 415.1 123.6 415.5 124.1C415.9 124.6 416.3 125 416.9 125.2L428.8 129.8C429.3 130 429.8 130.3 430.1 130.8C430.4 131.2 430.7 131.7 430.7 132.3C430.8 132.8 430.7 133.4 430.5 133.9C430.3 134.4 429.9 134.9 429.5 135.2L419.3 142.9C418.8 143.3 418.4 143.8 418.2 144.4C418 145 418 145.6 418.1 146.2C420.4 154.6 423.8 162.7 428.3 170.2C428.6 170.7 429.1 171.1 429.6 171.4C430.2 171.7 430.8 171.7 431.4 171.6L444 169.6C444.5 169.5 445.1 169.6 445.6 169.8C446.1 170 446.6 170.3 446.9 170.8C447.2 171.2 447.5 171.7 447.5 172.3C447.6 172.8 447.5 173.4 447.3 173.9L442.3 185.6C442.1 186.2 442 186.8 442.1 187.4C442.2 188 442.5 188.6 442.9 189C449.1 195.2 456.1 200.5 463.7 204.7C464.2 205 464.9 205.1 465.5 205.1C466.1 205 466.7 204.8 467.2 204.4L477.1 196.4C477.5 196.1 478 195.8 478.6 195.8C479.1 195.7 479.7 195.8 480.2 196C480.7 196.2 481.2 196.5 481.5 197C481.8 197.4 482 198 482.1 198.5L483.6 211.1C483.7 211.7 483.9 212.3 484.3 212.7C484.7 213.2 485.2 213.5 485.8 213.7C494.2 215.9 502.9 217 511.7 216.9C512.3 216.9 512.9 216.7 513.4 216.3C513.9 215.9 514.3 215.5 514.5 214.9L519.1 203C519.3 202.5 519.6 202 520.1 201.7C520.5 201.4 521 201.1 521.6 201.1C522.1 201 522.7 201.1 523.2 201.3C523.7 201.5 524.2 201.9 524.5 202.3L532.2 212.5C532.6 213 533.1 213.4 533.7 213.6C534.3 213.8 534.9 213.8 535.5 213.7C543.9 211.4 552 208 559.5 203.5C560 203.2 560.4 202.7 560.7 202.2C561 201.6 561 201 560.9 200.4L558.9 187.8C558.8 187.3 558.9 186.7 559.1 186.2C559.3 185.7 559.6 185.2 560.1 184.9C560.5 184.6 561 184.3 561.6 184.3C562.1 184.2 562.7 184.3 563.2 184.5L574.6 189.3C575.2 189.6 575.9 189.6 576.6 189.4C577.3 189.2 577.8 188.8 578.3 188.3L593.6 168.1C594 167.6 594.2 166.9 594.2 166.2C594.2 165.5 593.9 164.8 593.5 164.3L585.7 154.7C585.4 154.3 585.1 153.8 585 153.2C584.9 152.7 585 152.1 585.2 151.6C585.4 151.1 585.7 150.6 586.2 150.3C586.6 150 587.2 149.8 587.7 149.7L600.3 148.2C600.9 148.1 601.5 147.9 602 147.5C602.5 147.1 602.8 146.6 603 146C604.1 141.8 605 137.5 605.5 133.2ZM568.5 138.2C567.4 142.2 565.8 146.1 563.8 149.7C560.8 155.3 556.9 160.5 552.3 164.9C549.3 167.8 546 170.3 542.5 172.6C533.5 178.2 523.2 181.4 512.7 181.7C506.3 181.9 500 181.1 493.8 179.4C489.8 178.3 485.9 176.7 482.2 174.7C476.6 171.7 471.4 167.8 467 163.2C464.1 160.2 461.6 156.9 459.3 153.4C455.9 148 453.4 142.1 451.9 135.9C450.9 131.9 450.3 127.7 450.2 123.6C450 117.2 450.8 110.8 452.5 104.7C453.6 100.7 455.2 96.8 457.2 93.1C460.2 87.5 464.1 82.4 468.7 78C471.7 75.1 475 72.6 478.5 70.3C483.9 66.9 489.8 64.4 496 62.9C503.1 61.1 510.6 60.7 517.9 61.6C531.6 63.3 544.4 69.7 554 79.6C556.9 82.6 559.4 85.9 561.7 89.4C565.1 94.8 567.6 100.7 569.1 106.9C570.1 110.9 570.7 115.1 570.8 119.2C571.1 125.7 570.3 132 568.5 138.2Z" fill="url(#paint4_linear)"/>
<path opacity="0.9" d="M224.1 328.4C224.1 327.1 224 325.7 223.8 324.4C223.8 324.2 223.7 324 223.6 323.9C223.5 323.8 223.3 323.7 223.1 323.6L219.3 322.7C219.1 322.7 219 322.6 218.9 322.5C218.8 322.4 218.7 322.2 218.7 322.1C218.7 321.9 218.7 321.8 218.7 321.6C218.7 321.4 218.8 321.3 219 321.2L221.8 318.5C221.9 318.4 222 318.2 222.1 318C222.1 317.8 222.1 317.6 222.1 317.4C221.1 314.9 219.7 312.6 218.1 310.5C218 310.4 217.8 310.2 217.6 310.2C217.4 310.1 217.2 310.1 217 310.2L213.3 311.3C213.1 311.3 213 311.3 212.8 311.3C212.6 311.3 212.5 311.2 212.4 311.1C212.3 311 212.2 310.8 212.2 310.7C212.2 310.5 212.2 310.4 212.2 310.2L213.3 306.5C213.4 306.3 213.3 306.1 213.3 305.9C213.2 305.7 213.1 305.6 213 305.4C210.9 303.8 208.6 302.4 206.1 301.4C205.9 301.3 205.7 301.3 205.5 301.4C205.3 301.4 205.1 301.5 205 301.7L202.3 304.5C202.2 304.6 202 304.7 201.9 304.8C201.7 304.8 201.6 304.8 201.4 304.8C201.2 304.8 201.1 304.7 201 304.6C200.9 304.5 200.8 304.3 200.8 304.2L199.9 300.4C199.9 300.2 199.8 300.1 199.6 299.9C199.5 299.8 199.3 299.7 199.1 299.7C196.5 299.3 193.8 299.3 191.1 299.7C190.9 299.7 190.7 299.8 190.6 299.9C190.5 300 190.4 300.2 190.3 300.4L189.4 304.2C189.4 304.4 189.3 304.5 189.2 304.6C189.1 304.7 188.9 304.8 188.8 304.8C188.6 304.8 188.5 304.8 188.3 304.8C188.1 304.8 188 304.7 187.9 304.5L185.2 301.7C185.1 301.6 184.9 301.5 184.7 301.4C184.5 301.4 184.3 301.4 184.2 301.4C181.7 302.4 179.4 303.7 177.3 305.4C177.2 305.5 177 305.7 177 305.9C176.9 306.1 176.9 306.3 177 306.5L178.1 310.2C178.1 310.4 178.1 310.5 178.1 310.7C178.1 310.9 178 311 177.9 311.1C177.8 311.2 177.6 311.3 177.5 311.3C177.3 311.3 177.2 311.3 177 311.3L173.3 310.2C173.1 310.1 172.9 310.2 172.7 310.2C172.5 310.3 172.4 310.4 172.2 310.5C170.6 312.6 169.2 314.9 168.2 317.4C168.1 317.6 168.1 317.8 168.2 318C168.2 318.2 168.3 318.4 168.5 318.5L171.3 321.2C171.4 321.3 171.5 321.5 171.6 321.6C171.6 321.8 171.6 321.9 171.6 322.1C171.6 322.3 171.5 322.4 171.4 322.5C171.3 322.6 171.1 322.7 171 322.7L167.2 323.6C167 323.6 166.9 323.7 166.7 323.9C166.6 324 166.5 324.2 166.5 324.4C166.1 327 166.1 329.7 166.5 332.4C166.5 332.6 166.6 332.8 166.7 332.9C166.8 333 167 333.1 167.2 333.2L171 334.1C171.2 334.1 171.3 334.2 171.4 334.3C171.5 334.4 171.6 334.6 171.6 334.7C171.6 334.9 171.6 335 171.6 335.2C171.6 335.4 171.5 335.5 171.3 335.6L168.5 338.3C168.4 338.4 168.3 338.6 168.2 338.8C168.2 339 168.2 339.2 168.2 339.4C169.2 341.9 170.6 344.2 172.2 346.3C172.3 346.4 172.5 346.6 172.7 346.6C172.9 346.7 173.1 346.7 173.3 346.6L177 345.5C177.2 345.5 177.3 345.5 177.5 345.5C177.7 345.5 177.8 345.6 177.9 345.7C178 345.8 178.1 346 178.1 346.1C178.1 346.3 178.1 346.4 178.1 346.6L177 350.3C176.9 350.5 177 350.7 177 350.9C177.1 351.1 177.2 351.2 177.3 351.4C179.4 353 181.7 354.4 184.2 355.4C184.4 355.5 184.6 355.5 184.7 355.4C184.9 355.4 185.1 355.3 185.2 355.1L187.9 352.3C188 352.2 188.2 352.1 188.3 352C188.5 352 188.6 352 188.8 352C189 352 189.1 352.1 189.2 352.2C189.3 352.3 189.4 352.5 189.4 352.6L190.3 356.4C190.3 356.6 190.4 356.7 190.6 356.9C190.7 357 190.9 357.1 191.1 357.1C193.7 357.5 196.4 357.5 199.1 357.1C199.3 357.1 199.5 357 199.6 356.9C199.7 356.8 199.8 356.6 199.9 356.4L200.8 352.6C200.8 352.4 200.9 352.3 201 352.2C201.1 352.1 201.3 352 201.4 352C201.6 352 201.7 352 201.9 352C202.1 352 202.2 352.1 202.3 352.3L205 355.1C205.1 355.2 205.3 355.3 205.5 355.4C205.7 355.4 205.9 355.4 206 355.4C208.5 354.4 210.8 353.1 212.9 351.4C213 351.3 213.2 351.1 213.2 350.9C213.3 350.7 213.3 350.5 213.2 350.3L212.1 346.6C212.1 346.4 212.1 346.3 212.1 346.1C212.1 345.9 212.2 345.8 212.3 345.7C212.4 345.6 212.6 345.5 212.7 345.5C212.9 345.5 213 345.5 213.2 345.5L216.8 346.5C217 346.6 217.2 346.5 217.4 346.5C217.6 346.4 217.8 346.3 217.9 346.1L221.8 339.4C221.9 339.2 221.9 339 221.9 338.8C221.9 338.6 221.8 338.4 221.6 338.3L218.9 335.7C218.8 335.6 218.7 335.4 218.6 335.3C218.6 335.1 218.6 335 218.6 334.8C218.6 334.6 218.7 334.5 218.8 334.4C218.9 334.3 219.1 334.2 219.2 334.2L223 333.3C223.2 333.3 223.3 333.2 223.5 333C223.6 332.9 223.7 332.7 223.7 332.5C224 331.1 224.1 329.8 224.1 328.4ZM213 331.3C212.8 332.6 212.5 333.8 212 335C211.3 336.8 210.3 338.5 209.1 340C208.3 341 207.4 341.9 206.4 342.7C203.1 345.4 199 346.8 194.8 346.8C192.5 346.8 190.3 346.4 188.2 345.6C186.4 344.9 184.7 343.9 183.2 342.7C182.2 341.9 181.3 341 180.5 340C179.3 338.5 178.3 336.8 177.6 335C177.1 333.8 176.8 332.6 176.6 331.3C176.3 329.4 176.3 327.4 176.6 325.5C176.8 324.2 177.1 323 177.6 321.8C178.3 320 179.3 318.3 180.5 316.8C181.3 315.8 182.2 314.9 183.2 314.1C184.7 312.9 186.4 311.9 188.2 311.2C190.3 310.4 192.5 310 194.8 310C199 310 203.1 311.5 206.4 314.1C207.4 314.9 208.3 315.8 209.1 316.8C210.3 318.3 211.3 320 212 321.8C212.5 323 212.8 324.2 213 325.5C213.3 327.5 213.3 329.4 213 331.3Z" fill="url(#paint5_linear)"/>
<path d="M223.8 157H539C545.1 157 550.9 159.4 555.2 163.7C559.5 168 561.9 173.8 561.9 179.9V389.3H200.8V180C200.8 173.9 203.2 168.1 207.5 163.8C211.8 159.4 217.7 157 223.8 157Z" fill="#231F20"/>
<path d="M551.6 178.3C551.6 172.8 547.1 168.3 541.6 168.3H221.2C215.7 168.3 211.2 172.8 211.2 178.3V359.2C211.2 364.7 215.7 369.2 221.2 369.2H541.6C547.1 369.2 551.6 364.7 551.6 359.2V178.3Z" fill="url(#paint6_linear)"/>
<path opacity="0.5" d="M562 380.6H200.8V389.3H562V380.6Z" fill="white"/>
<path d="M191.8 405.1H570.9C575.1 405.1 579.1 403.4 582 400.5C585 397.5 586.6 393.5 586.6 389.4H176.1C176.1 393.6 177.8 397.6 180.7 400.5C183.6 403.5 187.6 405.1 191.8 405.1Z" fill="#CACACA"/>
<path d="M405.2 396.1H357.3C355.5 396.1 353.8 395.4 352.5 394.1C351.2 392.8 350.5 391.1 350.5 389.3H411.9C411.9 390.2 411.7 391.1 411.4 391.9C411.1 392.7 410.6 393.5 409.9 394.1C409.3 394.7 408.5 395.2 407.7 395.6C406.9 395.9 406.1 396.1 405.2 396.1Z" fill="#666666"/>
<path opacity="0.8" d="M250.6 268.2L296.2 288V299.9L250.4 319.8L250.6 305.8L280.9 294L250.6 282.1V268.2Z" fill="#F6F6F6"/>
<path opacity="0.8" d="M320 339.3V326.3H367.7V339.3H320Z" fill="#F6F6F6"/>
<path opacity="0.9" d="M144.7 310.2C142.2 279.8 197.1 216.2 197.1 216.2C197.1 216.2 135.8 236.9 133 307.4L144.7 310.2Z" fill="url(#paint7_linear)"/>
<path opacity="0.9" d="M128.3 314.8C114.1 236.2 144.7 175.4 144.7 175.4C144.7 175.4 155.9 223.1 134.6 305L128.3 314.8Z" fill="url(#paint8_linear)"/>
<path opacity="0.9" d="M102.9 316.4C105.4 286 50.5 222.4 50.5 222.4C50.5 222.4 111.8 243.1 114.6 313.6L102.9 316.4Z" fill="url(#paint9_linear)"/>
<path opacity="0.9" d="M115.1 317.8C88.1 262.6 104.2 161.7 104.2 161.7C104.2 161.7 136.5 258.7 128.6 316.1L115.1 317.8Z" fill="url(#paint10_linear)"/>
<path d="M163.7 407.5H77.6L92.6 312.1L120.7 311.8H149.9L163.6 405.7L163.7 407.5Z" fill="#F1F2F2"/>
<path d="M149 304.5H91.9C90.2 304.5 88.8 305.9 88.8 307.6V309C88.8 310.7 90.2 312.1 91.9 312.1H149C150.7 312.1 152.1 310.7 152.1 309V307.6C152.1 305.9 150.7 304.5 149 304.5Z" fill="#F1F2F2"/>
<path opacity="0.5" d="M163.5 405.7L77.6 407.6C149.8 404.2 143.3 311.9 143.3 311.9H149.8L163.5 405.7Z" fill="url(#paint11_linear)"/>
<path opacity="0.3" d="M438.9 168.1L224.3 350.2L211.2 361.3V171.5C211.6 170.5 212.5 169.6 213.5 169C214.6 168.4 215.8 168.1 217.1 168.1H438.9Z" fill="white"/>
<path opacity="0.3" d="M542.1 168.3L348.4 369.1H259.8L450.6 168.3H542.1Z" fill="white"/>
<path d="M226 166.7C226 166.7 210.8 164.9 209.6 177.8" stroke="#231F20" stroke-width="3" stroke-miterlimit="10"/>
<g clip-path="url(#clip1)">
<path fill-rule="evenodd" clip-rule="evenodd" d="M517.2 188.3C538.6 188.3 558 196.5 572.6 209.9C565.5 209.7 558.3 214 558 223.7C557.4 243.4 581.5 247.6 568.5 287.1L557.8 319.8L528.5 233.5C528 232.2 528.6 231.4 530.2 231.4H538.5C538.9 231.4 539.3 231 539.3 230.6V225.7C539.3 225.3 538.9 224.9 538.5 224.9C522.8 225.6 507.3 225.6 491.8 224.9C491.4 224.9 491 225.3 491 225.7V230.6C491 231 491.4 231.4 491.8 231.4H500.1C502 231.4 502.5 232 502.9 233.2L514.9 266.1L496.8 320.8L467.1 233.1C466.7 232 467.2 231.4 468.2 231.4H477.7C478.1 231.4 478.5 231 478.5 230.6V225.7C478.5 225.3 478.1 224.9 477.7 224.9C467.8 225.4 457.8 225.5 448.5 225.6C463.1 203.2 488.4 188.3 517.2 188.3ZM589.2 231.2C595.5 242.8 599.1 256.1 599.1 270.2C599.1 301.2 581.9 328.2 556.5 342.1L582 269.7C586 258.6 589.6 243.4 589.2 231.2ZM544.6 347.5C536 350.6 526.8 352.2 517.2 352.2C508.9 352.2 500.9 351 493.4 348.7L518.6 276.4L544.6 347.5ZM482.2 344.3C454.5 331.2 435.4 302.9 435.4 270.2C435.4 258.1 438 246.6 442.8 236.2L482.2 344.3ZM517.2 180.6C566.7 180.6 606.8 220.7 606.8 270.2C606.8 319.7 566.7 359.8 517.2 359.8C467.7 359.8 427.6 319.7 427.6 270.2C427.6 220.8 467.7 180.6 517.2 180.6ZM517.2 175C569.8 175 612.4 217.7 612.4 270.3C612.4 322.9 569.8 365.6 517.2 365.6C464.6 365.6 422 322.9 422 270.3C422 217.7 464.6 175 517.2 175Z" fill="white"/>
</g>
</g>
<defs>
<filter id="filter0_d" x="-13" y="-13" width="700" height="550" filterUnits="userSpaceOnUse" color-interpolation-filters="sRGB">
<feFlood flood-opacity="0" result="BackgroundImageFix"/>
<feColorMatrix in="SourceAlpha" type="matrix" values="0 0 0 0 0 0 0 0 0 0 0 0 0 0 0 0 0 0 127 0" result="hardAlpha"/>
<feOffset dy="25"/>
<feGaussianBlur stdDeviation="25"/>
<feColorMatrix type="matrix" values="0 0 0 0 0 0 0 0 0 0 0 0 0 0 0 0 0 0 0.25 0"/>
<feBlend mode="normal" in2="BackgroundImageFix" result="effect1_dropShadow"/>
<feBlend mode="normal" in="SourceGraphic" in2="effect1_dropShadow" result="shape"/>
</filter>
<linearGradient id="paint0_linear" x1="265.879" y1="136.689" x2="371.466" y2="136.689" gradientUnits="userSpaceOnUse">
<stop stop-color="#71439A"/>
<stop offset="0.8668" stop-color="#A76CAD"/>
</linearGradient>
<linearGradient id="paint1_linear" x1="232.286" y1="142.106" x2="258.876" y2="142.106" gradientUnits="userSpaceOnUse">
<stop stop-color="#71439A"/>
<stop offset="0.8668" stop-color="#A76CAD"/>
</linearGradient>
<linearGradient id="paint2_linear" x1="517.107" y1="401.61" x2="584.461" y2="401.61" gradientUnits="userSpaceOnUse">
<stop stop-color="#71439A"/>
<stop offset="0.8668" stop-color="#A76CAD"/>
</linearGradient>
<linearGradient id="paint3_linear" x1="485.374" y1="421.414" x2="514.926" y2="421.414" gradientUnits="userSpaceOnUse">
<stop stop-color="#71439A"/>
<stop offset="0.8668" stop-color="#A76CAD"/>
</linearGradient>
<linearGradient id="paint4_linear" x1="512.401" y1="25.803" x2="508.588" y2="223.3" gradientUnits="userSpaceOnUse">
<stop stop-color="#75DAFF"/>
<stop offset="1" stop-color="#00BAFF"/>
</linearGradient>
<linearGradient id="paint5_linear" x1="191.786" y1="357.513" x2="198.042" y2="297.462" gradientUnits="userSpaceOnUse">
<stop stop-color="#75DAFF"/>
<stop offset="1" stop-color="#00BAFF"/>
</linearGradient>
<linearGradient id="paint6_linear" x1="375.238" y1="368.793" x2="387.951" y2="162.079" gradientUnits="userSpaceOnUse">
<stop stop-color="#75DAFF"/>
<stop offset="1" stop-color="#00BAFF"/>
</linearGradient>
<linearGradient id="paint7_linear" x1="157.402" y1="309.231" x2="171.977" y2="213.855" gradientUnits="userSpaceOnUse">
<stop stop-color="#75DAFF"/>
<stop offset="1" stop-color="#00BAFF"/>
</linearGradient>
<linearGradient id="paint8_linear" x1="104.942" y1="295.523" x2="170.131" y2="191.823" gradientUnits="userSpaceOnUse">
<stop stop-color="#75DAFF"/>
<stop offset="1" stop-color="#00BAFF"/>
</linearGradient>
<linearGradient id="paint9_linear" x1="75.2819" y1="315.531" x2="89.8564" y2="220.154" gradientUnits="userSpaceOnUse">
<stop stop-color="#75DAFF"/>
<stop offset="1" stop-color="#00BAFF"/>
</linearGradient>
<linearGradient id="paint10_linear" x1="82.9631" y1="301.17" x2="150.439" y2="175.247" gradientUnits="userSpaceOnUse">
<stop stop-color="#75DAFF"/>
<stop offset="1" stop-color="#00BAFF"/>
</linearGradient>
<linearGradient id="paint11_linear" x1="120.37" y1="407.717" x2="131.758" y2="309.647" gradientUnits="userSpaceOnUse">
<stop stop-color="#75DAFF"/>
<stop offset="1" stop-color="#00BAFF"/>
</linearGradient>
<clipPath id="clip0">
<rect width="600" height="450" fill="white" transform="translate(37 12)"/>
</clipPath>
<clipPath id="clip1">
<rect width="191" height="191" fill="white" transform="translate(361 175)"/>
</clipPath>
</defs>
</svg>
