<svg width="32" height="32" viewBox="0 0 32 32" fill="none" xmlns="http://www.w3.org/2000/svg">
<rect width="32" height="32" rx="16" fill="#F6E0E0"/>
<path d="M16.8744 16.5001L22.7152 10.6591C23.0953 10.2792 23.0953 9.66488 22.7152 9.28495C22.3353 8.90502 21.721 8.90502 21.3411 9.28495L15.5001 15.1259L9.65925 9.28495C9.27914 8.90502 8.66502 8.90502 8.28508 9.28495C7.90497 9.66488 7.90497 10.2792 8.28508 10.6591L14.1259 16.5001L8.28508 22.3411C7.90497 22.721 7.90497 23.3353 8.28508 23.7153C8.47443 23.9048 8.72338 24 8.97217 24C9.22095 24 9.46973 23.9048 9.65925 23.7153L15.5001 17.8743L21.3411 23.7153C21.5306 23.9048 21.7794 24 22.0281 24C22.2769 24 22.5257 23.9048 22.7152 23.7153C23.0953 23.3353 23.0953 22.721 22.7152 22.3411L16.8744 16.5001Z" fill="#EF8080"/>
</svg>
