<svg width="690" height="453" viewBox="0 0 690 453" fill="none" xmlns="http://www.w3.org/2000/svg">
<g filter="url(#filter0_d)">
<path d="M350.894 377.9C510.563 377.9 640 366.176 640 351.713C640 337.251 510.563 325.527 350.894 325.527C191.224 325.527 61.7871 337.251 61.7871 351.713C61.7871 366.176 191.224 377.9 350.894 377.9Z" fill="#8ED8F8"/>
<path d="M255.346 133.961C255.346 133.961 246.288 107.964 214.641 100.612" stroke="#BCBEC0" stroke-miterlimit="10" stroke-dasharray="6 6"/>
<path d="M175.072 196.148C175.072 196.148 143.425 196.148 133.798 174.093" stroke="#BCBEC0" stroke-miterlimit="10" stroke-dasharray="6 6"/>
<path d="M176.209 245.868C176.209 245.868 149.073 259.435 130.994 246.437" stroke="#BCBEC0" stroke-miterlimit="10" stroke-dasharray="6 6"/>
<path d="M172.798 257.199C172.798 257.199 135.466 259.473 115.682 286.038" stroke="#BCBEC0" stroke-miterlimit="10" stroke-dasharray="6 6"/>
<path d="M457.774 129.981C457.774 129.981 454.931 78.5561 508.674 91.5546" stroke="#BCBEC0" stroke-miterlimit="10" stroke-dasharray="6 6"/>
<path d="M504.694 182.582C504.694 182.582 521.105 180.876 530.126 191.639" stroke="#BCBEC0" stroke-miterlimit="10" stroke-dasharray="6 6"/>
<path d="M504.126 230.634C504.126 230.634 523.342 235.712 533.537 257.768" stroke="#BCBEC0" stroke-miterlimit="10" stroke-dasharray="6 6"/>
<path d="M502.42 317.682C502.42 317.682 538.616 312.036 536.341 327.308" stroke="#BCBEC0" stroke-miterlimit="10" stroke-dasharray="6 6"/>
<path d="M501.89 355.616C501.89 357.701 500.184 359.406 498.1 359.406H182.198C180.113 359.406 178.407 357.701 178.407 355.616V155.145C178.407 153.06 180.113 151.355 182.198 151.355H498.138C500.222 151.355 501.928 153.06 501.928 155.145V355.616H501.89Z" fill="#7C7D80"/>
<path d="M584.096 254.963H570.111L571.589 253.106C572.726 251.704 573.333 249.961 573.333 248.142V235.144H580.837V248.142C580.837 249.961 581.443 251.704 582.58 253.106L584.096 254.963Z" fill="url(#paint0_linear)"/>
<path d="M584.096 254.963H570.111V256.138H584.096V254.963Z" fill="url(#paint1_linear)"/>
<path d="M580.875 236.622V246.74L573.371 243.973V236.622H580.875V236.622Z" fill="url(#paint2_linear)"/>
<path d="M617.26 186.598V230.066H536.986V186.598C536.986 186.447 537.024 186.333 537.062 186.182C537.138 185.954 537.289 185.765 537.517 185.613C537.706 185.462 537.971 185.386 538.199 185.386H616.085C616.236 185.386 616.388 185.424 616.54 185.462C616.691 185.499 616.805 185.613 616.919 185.727C617.032 185.84 617.108 185.954 617.184 186.106C617.222 186.295 617.26 186.447 617.26 186.598Z" fill="#231F20"/>
<path d="M536.986 230.103H617.26V238.137C617.26 238.706 617.032 239.198 616.653 239.615C616.274 239.994 615.744 240.221 615.175 240.221H539.071C538.502 240.221 538.009 239.994 537.592 239.615C537.213 239.236 536.986 238.706 536.986 238.137V230.103Z" fill="url(#paint3_linear)"/>
<path d="M615.403 189.176C615.403 188.114 614.569 187.281 613.508 187.281H540.776C539.715 187.281 538.881 188.114 538.881 189.176V226.503C538.881 227.565 539.715 228.398 540.776 228.398H613.508C614.569 228.398 615.403 227.527 615.403 226.503V189.176Z" fill="url(#paint4_linear)"/>
<path d="M579.132 235.637C579.397 234.538 578.715 233.439 577.616 233.173C576.516 232.908 575.417 233.59 575.152 234.689C574.887 235.788 575.569 236.887 576.668 237.153C577.767 237.418 578.866 236.736 579.132 235.637Z" fill="#231F20"/>
<path d="M538.729 95.3062H521.03V100.384H538.729V95.3062Z" fill="url(#paint5_linear)"/>
<path d="M546.726 94.1313H516.823C516.368 94.1313 515.875 94.2071 515.458 94.3966C515.004 94.5861 514.625 94.8514 514.283 95.1924C513.942 95.5335 513.677 95.9125 513.488 96.3672C513.298 96.822 513.222 97.2767 513.222 97.7315V163.899C513.222 164.846 513.601 165.755 514.283 166.438C514.966 167.12 515.875 167.499 516.823 167.499H546.726C547.181 167.499 547.674 167.423 548.091 167.233C548.546 167.044 548.925 166.779 549.266 166.438C549.607 166.097 549.872 165.718 550.062 165.263C550.251 164.808 550.327 164.353 550.327 163.899V97.7315C550.327 97.2388 550.251 96.7841 550.062 96.3672C549.872 95.9125 549.607 95.5335 549.266 95.1924C548.925 94.8514 548.546 94.5861 548.091 94.3966C547.636 94.2071 547.181 94.1313 546.726 94.1313ZM526.715 96.0262C526.715 95.9504 526.753 95.8746 526.791 95.8367C526.829 95.7988 526.829 95.7988 526.866 95.7609C526.904 95.7609 526.942 95.723 526.98 95.723H535.167C535.205 95.723 535.242 95.723 535.28 95.7609C535.318 95.7609 535.356 95.7988 535.356 95.8367C535.394 95.8746 535.394 95.8746 535.432 95.9125C535.432 95.9504 535.47 95.9883 535.47 96.0262C535.47 96.102 535.432 96.1778 535.394 96.2156C535.356 96.2535 535.28 96.2914 535.205 96.2914H527.018C526.98 96.2914 526.942 96.2914 526.904 96.2535C526.866 96.2535 526.829 96.2157 526.829 96.1778C526.791 96.1399 526.791 96.1399 526.753 96.102C526.715 96.102 526.715 96.0641 526.715 96.0262ZM536.266 96.0262C536.266 95.9883 536.266 95.9125 536.304 95.8746C536.342 95.8367 536.38 95.7988 536.417 95.7609C536.455 95.723 536.531 95.723 536.569 95.7609C536.607 95.7609 536.683 95.7988 536.721 95.8367C536.758 95.8746 536.796 95.9125 536.796 95.9883C536.796 96.0262 536.796 96.102 536.796 96.1399C536.759 96.1778 536.759 96.2156 536.683 96.2535C536.645 96.2914 536.569 96.2914 536.531 96.2914C536.455 96.2914 536.379 96.2535 536.342 96.2156C536.304 96.1778 536.266 96.102 536.266 96.0262Z" fill="#231F20"/>
<path d="M540.397 95.2305C539.222 96.9358 537.175 97.959 534.977 97.959H528.572C526.374 97.959 524.327 96.9358 523.152 95.2305H516.406C516.178 95.2305 515.913 95.2684 515.686 95.3821C515.458 95.4578 515.269 95.6094 515.079 95.7989C514.89 95.9884 514.776 96.1779 514.662 96.4053C514.587 96.6326 514.511 96.86 514.511 97.1253V164.315C514.511 164.543 514.549 164.808 514.662 165.036C514.738 165.263 514.89 165.452 515.079 165.642C515.269 165.831 515.458 165.945 515.686 166.059C515.913 166.135 516.14 166.21 516.406 166.21H547.143C547.636 166.21 548.129 166.021 548.47 165.642C548.811 165.301 549.038 164.808 549.038 164.315V97.1253C549.038 96.86 549 96.6326 548.887 96.4053C548.811 96.1779 548.659 95.9884 548.47 95.7989C548.28 95.6094 548.091 95.4957 547.863 95.3821C547.636 95.3063 547.409 95.2305 547.143 95.2305H540.397Z" fill="url(#paint6_linear)"/>
<path d="M523.152 95.2305C523.19 95.2684 523.19 95.3063 523.228 95.3063C523.266 95.3442 523.304 95.4199 523.342 95.4578C523.38 95.4957 523.417 95.5715 523.455 95.6094C523.493 95.6473 523.531 95.6852 523.569 95.761C523.607 95.7989 523.645 95.8747 523.683 95.9126C523.721 95.9505 523.758 95.9884 523.796 96.0642C523.834 96.1021 523.872 96.14 523.948 96.2158C524.024 96.2916 524.137 96.3674 524.213 96.481C524.251 96.5189 524.327 96.5568 524.365 96.5947L524.517 96.7084C524.554 96.7463 524.63 96.7842 524.668 96.8221C524.706 96.86 524.782 96.8979 524.82 96.9358C524.858 96.9737 524.933 97.0116 524.971 97.0495C525.085 97.1253 525.199 97.1632 525.312 97.239C525.35 97.2769 525.426 97.3148 525.502 97.3148C525.54 97.3527 525.616 97.3527 525.691 97.3906C525.767 97.4285 525.805 97.4285 525.881 97.4663C525.995 97.5042 526.108 97.58 526.26 97.6179C526.336 97.6558 526.374 97.6558 526.449 97.6937C526.525 97.7316 526.639 97.7316 526.715 97.7695H526.753C526.828 97.8074 526.942 97.8074 527.018 97.8453C527.094 97.8453 527.132 97.8832 527.207 97.8832C527.283 97.8832 527.321 97.9211 527.397 97.9211C527.435 97.9211 527.435 97.9211 527.473 97.9211C527.511 97.9211 527.549 97.9211 527.586 97.9211C527.624 97.9211 527.662 97.9211 527.7 97.9211H527.852C527.89 97.9211 527.965 97.9211 528.003 97.9211C528.117 97.9211 528.231 97.9211 528.344 97.959C528.42 97.959 528.534 97.959 528.61 97.959H535.015C535.091 97.959 535.167 97.959 535.242 97.959C535.356 97.959 535.47 97.959 535.546 97.959C535.621 97.959 535.697 97.959 535.773 97.9211C535.811 97.9211 535.849 97.9211 535.887 97.9211C535.925 97.9211 536 97.9211 536.038 97.8832C536.114 97.8832 536.19 97.8453 536.304 97.8453C536.379 97.8453 536.455 97.8074 536.531 97.8074C536.607 97.8074 536.683 97.7695 536.796 97.7316C536.872 97.6937 536.948 97.6937 537.024 97.6558C537.1 97.6179 537.213 97.6179 537.289 97.58C537.365 97.5421 537.403 97.5421 537.479 97.5042C537.516 97.4664 537.592 97.4664 537.63 97.4285C537.782 97.3527 537.933 97.2769 538.085 97.2011C538.161 97.1632 538.199 97.1253 538.274 97.1253C538.312 97.0874 538.388 97.0495 538.426 97.0495C538.464 97.0116 538.54 96.9737 538.578 96.9358C538.616 96.8979 538.691 96.86 538.729 96.8221C538.767 96.7842 538.843 96.7463 538.881 96.7084C538.919 96.6705 538.995 96.6326 539.032 96.5947C539.108 96.5189 539.184 96.481 539.26 96.4053C539.336 96.3295 539.411 96.2916 539.487 96.2158C539.525 96.1779 539.563 96.14 539.601 96.1021C539.639 96.0642 539.715 95.9884 539.753 95.9505C539.79 95.9126 539.866 95.8368 539.904 95.7989C539.942 95.761 539.98 95.7231 540.018 95.6852C540.056 95.6473 540.094 95.5715 540.169 95.5336C540.245 95.42 540.321 95.3442 540.397 95.2305H523.152ZM535.356 96.2158C535.318 96.2537 535.318 96.2537 535.28 96.2916C535.242 96.2916 535.204 96.3295 535.167 96.3295H526.98C526.942 96.3295 526.904 96.3295 526.866 96.2916C526.828 96.2916 526.791 96.2537 526.791 96.2158C526.753 96.1779 526.753 96.1779 526.715 96.14C526.677 96.1021 526.677 96.0642 526.677 96.0263C526.677 95.9505 526.715 95.8747 526.753 95.8368C526.791 95.7989 526.791 95.7989 526.828 95.761C526.866 95.761 526.904 95.7231 526.942 95.7231H535.129C535.204 95.7231 535.28 95.761 535.318 95.7989C535.356 95.8368 535.394 95.9126 535.394 95.9884C535.394 96.0263 535.394 96.0642 535.356 96.1021C535.318 96.14 535.394 96.2158 535.356 96.2158ZM536.531 96.2916C536.493 96.2916 536.417 96.2916 536.379 96.2537C536.341 96.2158 536.304 96.1779 536.266 96.14C536.228 96.1021 536.228 96.0263 536.266 95.9884C536.266 95.9505 536.304 95.8747 536.341 95.8368C536.379 95.7989 536.417 95.761 536.493 95.761C536.531 95.761 536.607 95.761 536.645 95.761C536.683 95.7989 536.72 95.7989 536.758 95.8747C536.796 95.9126 536.796 95.9884 536.796 96.0263C536.796 96.0642 536.796 96.1021 536.758 96.14C536.758 96.1779 536.721 96.2158 536.683 96.2158C536.645 96.2537 536.645 96.2537 536.607 96.2916C536.607 96.2916 536.569 96.2916 536.531 96.2916Z" fill="#231F20"/>
<path d="M202.02 72.9854H187.314V77.2297H202.02V72.9854Z" fill="url(#paint7_linear)"/>
<path d="M208.615 72H183.79C183.411 72 182.994 72.0758 182.653 72.2274C182.274 72.379 181.97 72.6063 181.667 72.8716C181.402 73.1369 181.174 73.478 181.023 73.8569C180.871 74.2359 180.795 74.6148 180.795 74.9938V129.906C180.795 130.701 181.099 131.459 181.667 132.028C182.236 132.596 182.994 132.899 183.79 132.899H208.615C208.994 132.899 209.41 132.824 209.752 132.672C210.131 132.52 210.434 132.293 210.737 132.028C211.002 131.763 211.23 131.421 211.381 131.042C211.533 130.664 211.609 130.285 211.609 129.906V74.9938C211.609 74.6148 211.533 74.198 211.381 73.8569C211.23 73.478 211.002 73.1748 210.737 72.8716C210.472 72.6063 210.131 72.379 209.752 72.2274C209.41 72.0758 209.031 72 208.615 72ZM192.052 73.5916C192.052 73.5159 192.09 73.478 192.128 73.4401C192.166 73.4022 192.166 73.4022 192.204 73.4022C192.241 73.4022 192.241 73.4022 192.279 73.4022H199.064C199.101 73.4022 199.139 73.4022 199.139 73.4022C199.177 73.4022 199.177 73.4401 199.215 73.4401C199.253 73.478 199.253 73.478 199.253 73.5159C199.253 73.5537 199.253 73.5537 199.253 73.5916C199.253 73.6674 199.215 73.7053 199.177 73.7432C199.139 73.7811 199.064 73.819 199.026 73.819H192.241C192.204 73.819 192.166 73.819 192.166 73.819C192.128 73.819 192.128 73.7811 192.09 73.7811C192.052 73.7432 192.052 73.7432 192.052 73.7053C192.052 73.6674 192.052 73.6295 192.052 73.5916ZM199.973 73.5916C199.973 73.5537 199.973 73.5159 200.011 73.478C200.049 73.4401 200.087 73.4022 200.125 73.4022C200.163 73.4022 200.201 73.3643 200.238 73.4022C200.276 73.4022 200.314 73.4401 200.352 73.478C200.39 73.5159 200.39 73.5537 200.428 73.5916C200.428 73.6295 200.428 73.6674 200.428 73.7053C200.428 73.7432 200.39 73.7811 200.352 73.819C200.314 73.8569 200.276 73.8569 200.238 73.8569C200.163 73.8569 200.125 73.819 200.087 73.7811C199.973 73.7053 199.973 73.6674 199.973 73.5916Z" fill="#231F20"/>
<path d="M203.384 72.9092C202.399 74.3113 200.693 75.183 198.874 75.183H193.568C191.749 75.183 190.043 74.3113 189.058 72.9092H183.448C183.259 72.9092 183.032 72.9471 182.842 73.0229C182.653 73.0987 182.463 73.2123 182.349 73.3639C182.198 73.5155 182.084 73.6671 182.008 73.8566C181.932 74.0461 181.895 74.2356 181.895 74.4629V130.246C181.895 130.436 181.932 130.663 182.008 130.853C182.084 131.042 182.198 131.232 182.349 131.345C182.501 131.497 182.653 131.611 182.842 131.686C183.032 131.762 183.221 131.8 183.448 131.8H208.956C209.373 131.8 209.752 131.649 210.055 131.345C210.358 131.042 210.51 130.663 210.51 130.246V74.5008C210.51 74.3113 210.472 74.084 210.396 73.8945C210.32 73.705 210.206 73.5155 210.055 73.4018C209.903 73.2502 209.752 73.1366 209.562 73.0608C209.373 72.985 209.183 72.9471 208.956 72.9471H203.384V72.9092Z" fill="url(#paint8_linear)"/>
<path d="M189.058 72.9092C189.058 72.9471 189.096 72.9471 189.096 72.985C189.133 73.0229 189.171 73.0608 189.209 73.1366C189.247 73.1745 189.285 73.2124 189.285 73.2502C189.323 73.2881 189.361 73.326 189.399 73.3639C189.437 73.4018 189.475 73.4397 189.512 73.4776C189.55 73.5155 189.588 73.5534 189.626 73.5913C189.664 73.6292 189.702 73.6671 189.74 73.705C189.816 73.7808 189.891 73.8566 189.967 73.9324C190.005 73.9703 190.043 74.0082 190.081 74.0461L190.195 74.1598C190.233 74.1977 190.27 74.2356 190.308 74.2356C190.346 74.2734 190.384 74.3113 190.46 74.3113C190.498 74.3492 190.536 74.3492 190.612 74.3871C190.687 74.425 190.801 74.5008 190.877 74.5387C190.915 74.5766 190.953 74.5766 191.028 74.6145C191.066 74.6524 191.142 74.6524 191.18 74.6903C191.218 74.7282 191.294 74.7282 191.332 74.7661C191.445 74.804 191.521 74.8419 191.635 74.8798C191.673 74.8798 191.749 74.9177 191.786 74.9177C191.862 74.9556 191.938 74.9556 192.014 74.9935H192.052C192.128 75.0314 192.203 75.0314 192.279 75.0693C192.317 75.0693 192.393 75.1072 192.431 75.1072C192.469 75.1072 192.544 75.1451 192.582 75.1451C192.62 75.1451 192.62 75.1451 192.658 75.1451C192.696 75.1451 192.734 75.1451 192.734 75.1451C192.772 75.1451 192.772 75.1451 192.81 75.1451H192.923C192.961 75.1451 192.999 75.1451 193.037 75.1451C193.113 75.1451 193.227 75.1451 193.302 75.1451C193.378 75.1451 193.454 75.1451 193.53 75.1451H198.836C198.912 75.1451 198.988 75.1451 199.025 75.1451C199.101 75.1451 199.215 75.1451 199.291 75.1451C199.367 75.1451 199.404 75.1451 199.48 75.1451C199.518 75.1451 199.518 75.1451 199.556 75.1451C199.594 75.1451 199.632 75.1451 199.67 75.1451C199.746 75.1451 199.821 75.1072 199.859 75.1072C199.935 75.1072 199.973 75.0693 200.049 75.0693C200.125 75.0693 200.2 75.0314 200.276 75.0314C200.352 75.0314 200.428 74.9935 200.466 74.9935C200.542 74.9556 200.617 74.9556 200.693 74.9177C200.731 74.8798 200.807 74.8798 200.845 74.8419C200.883 74.8419 200.921 74.804 200.996 74.804C201.11 74.7661 201.262 74.6903 201.375 74.6145C201.413 74.5766 201.489 74.5766 201.527 74.5387C201.565 74.5008 201.603 74.5008 201.679 74.4629C201.716 74.425 201.754 74.425 201.83 74.3871C201.868 74.3492 201.906 74.3113 201.982 74.3113C202.02 74.2734 202.058 74.2734 202.095 74.2356C202.133 74.1977 202.171 74.1598 202.209 74.1598C202.285 74.1219 202.323 74.0461 202.399 74.0082C202.474 73.9703 202.512 73.8945 202.588 73.8566C202.626 73.8187 202.664 73.7808 202.702 73.7808C202.74 73.7429 202.778 73.705 202.816 73.6671C202.853 73.6292 202.891 73.5913 202.929 73.5534C202.967 73.5155 203.005 73.4776 203.005 73.4397C203.043 73.4018 203.081 73.3639 203.119 73.2881C203.195 73.2124 203.232 73.1366 203.308 73.0229L189.058 72.9092ZM199.215 73.7429C199.177 73.7808 199.177 73.7808 199.139 73.7808C199.101 73.7808 199.101 73.7808 199.063 73.7808H192.279C192.241 73.7808 192.203 73.7808 192.203 73.7808C192.165 73.7808 192.165 73.7429 192.128 73.7429C192.09 73.705 192.09 73.705 192.09 73.6671C192.09 73.6292 192.09 73.6292 192.09 73.5913C192.09 73.5155 192.128 73.4776 192.165 73.4397C192.203 73.4018 192.203 73.4018 192.241 73.4018C192.279 73.4018 192.279 73.4018 192.317 73.4018H199.101C199.177 73.4018 199.215 73.4397 199.253 73.4776C199.291 73.5155 199.329 73.5913 199.329 73.6292C199.329 73.6671 199.329 73.705 199.329 73.705C199.253 73.705 199.215 73.7429 199.215 73.7429ZM200.163 73.8187C200.125 73.8187 200.087 73.8187 200.049 73.7808C200.011 73.7429 199.973 73.705 199.973 73.6671C199.973 73.6292 199.935 73.5913 199.973 73.5534C199.973 73.5155 200.011 73.4776 200.049 73.4397C200.087 73.4018 200.125 73.4018 200.163 73.3639C200.2 73.3639 200.238 73.3639 200.276 73.3639C200.314 73.3639 200.352 73.4018 200.39 73.4397C200.428 73.4776 200.428 73.5155 200.428 73.5534C200.428 73.5913 200.428 73.6292 200.428 73.6292C200.428 73.6671 200.39 73.6671 200.39 73.705C200.352 73.7429 200.352 73.7429 200.314 73.7429C200.238 73.8187 200.2 73.8187 200.163 73.8187Z" fill="#231F20"/>
<path d="M81.1544 109.669H157.638C159.116 109.669 160.518 110.237 161.58 111.298C162.641 112.36 163.209 113.762 163.209 115.24V166.021H75.583V115.24C75.583 113.762 76.1515 112.36 77.2127 111.298C78.2361 110.237 79.6763 109.669 81.1544 109.669Z" fill="#231F20"/>
<path d="M160.67 116.187C160.67 114.103 158.965 112.397 156.88 112.397H81.8745C79.79 112.397 78.0845 114.103 78.0845 116.187V157.343C78.0845 159.427 79.79 161.132 81.8745 161.132H156.88C158.965 161.132 160.67 159.427 160.67 157.343V116.187Z" fill="url(#paint9_linear)"/>
<path opacity="0.5" d="M163.171 163.898H75.583V166.021H163.171V163.898Z" fill="white"/>
<path d="M73.3846 169.848H165.37C166.393 169.848 167.34 169.431 168.061 168.711C168.781 167.991 169.198 167.006 169.198 166.021H69.5566C69.5566 167.044 69.9735 167.991 70.6937 168.711C71.4138 169.431 72.3613 169.848 73.3846 169.848Z" fill="#CACACA"/>
<path d="M125.157 167.65H113.522C113.105 167.65 112.688 167.46 112.347 167.157C112.044 166.854 111.854 166.437 111.854 165.982H126.787C126.787 166.21 126.749 166.399 126.673 166.627C126.597 166.854 126.484 167.006 126.332 167.157C126.18 167.309 125.991 167.422 125.801 167.498C125.574 167.612 125.347 167.65 125.157 167.65Z" fill="#676767"/>
<path d="M81.6849 112.018C81.6849 112.018 78.0085 111.564 77.7053 114.709" stroke="#231F20" stroke-width="3" stroke-miterlimit="10"/>
<path opacity="0.7" d="M50 219.038V196.035C50 195.353 50.2653 194.708 50.7201 194.254C51.1749 193.799 51.8192 193.534 52.5014 193.534H121.86C122.542 193.534 123.186 193.799 123.641 194.254C124.096 194.708 124.361 195.353 124.361 196.035V212.596C124.361 213.278 124.096 213.922 123.641 214.377C123.186 214.831 122.542 215.097 121.86 215.097H54.6997C54.3586 215.097 54.0175 215.172 53.6764 215.324C53.3732 215.476 53.07 215.665 52.8426 215.93L50 219.038Z" fill="#43B5E8"/>
<path opacity="0.7" d="M50.3411 258.943V239.388C50.3411 238.82 50.6064 238.289 51.0612 237.872C51.516 237.455 52.1603 237.228 52.8425 237.228H122.201C122.883 237.228 123.527 237.455 123.982 237.872C124.437 238.289 124.702 238.82 124.702 239.388V253.486C124.702 254.054 124.437 254.585 123.982 255.001C123.527 255.418 122.883 255.646 122.201 255.646H55.0787C54.7375 255.646 54.3964 255.721 54.0553 255.835C53.7521 255.949 53.4489 256.138 53.2215 256.328L50.3411 258.943Z" fill="#43B5E8"/>
<path opacity="0.7" d="M165.559 236.016V220.706C165.559 220.251 165.294 219.834 164.839 219.531C164.384 219.228 163.74 219.038 163.058 219.038H93.6994C93.0172 219.038 92.3729 219.228 91.9181 219.531C91.4633 219.834 91.198 220.289 91.198 220.706V231.733C91.198 232.188 91.4633 232.605 91.9181 232.908C92.3729 233.211 93.0172 233.401 93.6994 233.401H160.859C161.201 233.401 161.542 233.439 161.883 233.552C162.186 233.628 162.489 233.78 162.717 233.931L165.559 236.016Z" fill="#97C7EB"/>
<path d="M204.786 94.5105V78.2909C204.786 77.8361 204.938 77.3814 205.203 77.0403C205.469 76.6992 205.81 76.5098 206.151 76.5098H243.521C243.9 76.5098 244.241 76.6992 244.468 77.0403C244.734 77.3814 244.885 77.8361 244.885 78.2909V90.0009C244.885 90.4556 244.734 90.9104 244.468 91.2514C244.203 91.5925 243.862 91.782 243.521 91.782H207.326C207.136 91.782 206.947 91.8199 206.795 91.9336C206.606 92.0473 206.454 92.161 206.34 92.3504L204.786 94.5105Z" fill="url(#paint10_linear)"/>
<path d="M183.638 116.528V108.835C183.638 108.608 183.714 108.381 183.827 108.229C183.941 108.078 184.131 107.964 184.282 107.964H202.02C202.209 107.964 202.361 108.04 202.475 108.229C202.588 108.381 202.664 108.608 202.664 108.835V114.368C202.664 114.596 202.588 114.823 202.475 114.975C202.361 115.126 202.171 115.24 202.02 115.24H184.851C184.775 115.24 184.661 115.278 184.585 115.316C184.51 115.354 184.434 115.429 184.358 115.505L183.638 116.528Z" fill="url(#paint11_linear)"/>
<path d="M516.937 128.579V120.886C516.937 120.659 517.012 120.432 517.126 120.28C517.24 120.128 517.429 120.015 517.581 120.015H535.318C535.508 120.015 535.659 120.09 535.773 120.28C535.887 120.432 535.963 120.659 535.963 120.886V126.419C535.963 126.647 535.887 126.874 535.773 127.025C535.659 127.177 535.47 127.291 535.318 127.291H518.149C518.074 127.291 517.96 127.329 517.884 127.367C517.808 127.404 517.732 127.48 517.657 127.556L516.937 128.579Z" fill="url(#paint12_linear)"/>
<path d="M516.785 151.052V143.359C516.785 143.132 516.861 142.904 516.974 142.753C517.088 142.601 517.278 142.487 517.429 142.487H535.167C535.356 142.487 535.508 142.563 535.622 142.753C535.735 142.904 535.811 143.132 535.811 143.359V148.892C535.811 149.119 535.735 149.347 535.622 149.498C535.508 149.65 535.318 149.763 535.167 149.763H517.998C517.922 149.763 517.808 149.801 517.732 149.839C517.657 149.877 517.581 149.953 517.505 150.029L516.785 151.052Z" fill="url(#paint13_linear)"/>
<path d="M521.03 117.779V102.506C521.03 102.052 520.878 101.635 520.575 101.332C520.272 101.028 519.855 100.839 519.438 100.839H475.094C474.677 100.839 474.26 101.028 473.957 101.332C473.654 101.635 473.502 102.089 473.502 102.506V113.534C473.502 113.989 473.654 114.406 473.957 114.709C474.26 115.012 474.677 115.202 475.094 115.202H518.036C518.263 115.202 518.49 115.239 518.68 115.353C518.869 115.429 519.059 115.581 519.21 115.732L521.03 117.779Z" fill="#ABE1FA"/>
<path d="M545.93 140.554V132.331C545.93 132.104 545.855 131.876 545.665 131.687C545.513 131.535 545.286 131.421 545.059 131.421H521.219C520.992 131.421 520.764 131.535 520.613 131.687C520.461 131.838 520.347 132.104 520.347 132.331V138.243C520.347 138.47 520.423 138.697 520.613 138.887C520.764 139.039 520.992 139.152 521.219 139.152H544.301C544.414 139.152 544.528 139.19 544.642 139.228C544.755 139.266 544.831 139.342 544.945 139.455L545.93 140.554Z" fill="#ABE1FA"/>
<path d="M209.41 105.235V97.0116C209.41 96.7842 209.335 96.5568 209.145 96.3673C208.993 96.2157 208.766 96.1021 208.539 96.1021H184.699C184.472 96.1021 184.244 96.2157 184.093 96.3673C183.941 96.5189 183.827 96.7842 183.827 97.0116V102.923C183.827 103.151 183.903 103.378 184.093 103.568C184.244 103.719 184.472 103.833 184.699 103.833H207.781C207.894 103.833 208.008 103.871 208.122 103.909C208.235 103.947 208.311 104.022 208.425 104.136L209.41 105.235Z" fill="#ABE1FA"/>
<path d="M209.069 127.897V119.674C209.069 119.446 208.993 119.219 208.804 119.029C208.652 118.878 208.425 118.764 208.198 118.764H184.396C184.168 118.764 183.941 118.878 183.789 119.029C183.638 119.181 183.524 119.446 183.524 119.674V125.586C183.524 125.813 183.6 126.04 183.789 126.23C183.941 126.381 184.168 126.495 184.396 126.495H207.477C207.591 126.495 207.705 126.533 207.819 126.571C207.932 126.609 208.008 126.685 208.122 126.798L209.069 127.897Z" fill="#ABE1FA"/>
<path opacity="0.7" d="M510.91 283.689V266.787C510.91 266.294 511.1 265.84 511.441 265.461C511.782 265.12 512.275 264.93 512.768 264.93H563.744C564.237 264.93 564.691 265.12 565.07 265.461C565.412 265.802 565.601 266.294 565.601 266.787V278.952C565.601 279.444 565.412 279.899 565.07 280.278C564.729 280.619 564.237 280.809 563.744 280.809H514.397C514.132 280.809 513.905 280.847 513.639 280.96C513.412 281.074 513.184 281.226 513.033 281.415L510.91 283.689Z" fill="#43B5E8"/>
<path opacity="0.7" d="M511.176 312.982V298.62C511.176 298.203 511.365 297.786 511.706 297.521C512.047 297.217 512.54 297.066 513.033 297.066H564.009C564.502 297.066 564.957 297.217 565.336 297.521C565.677 297.824 565.866 298.203 565.866 298.62V308.965C565.866 309.382 565.677 309.799 565.336 310.064C564.995 310.368 564.502 310.519 564.009 310.519H514.662C514.397 310.519 514.17 310.557 513.904 310.633C513.677 310.709 513.45 310.86 513.298 311.012L511.176 312.982Z" fill="#43B5E8"/>
<path opacity="0.7" d="M595.808 296.157V284.94C595.808 284.598 595.618 284.295 595.277 284.068C594.936 283.841 594.443 283.689 593.951 283.689H542.974C542.482 283.689 542.027 283.803 541.648 284.068C541.307 284.295 541.117 284.598 541.117 284.94V293.049C541.117 293.39 541.307 293.694 541.648 293.921C541.989 294.148 542.482 294.3 542.974 294.3H592.321C592.586 294.3 592.814 294.338 593.079 294.414C593.306 294.489 593.534 294.565 593.685 294.717L595.808 296.157Z" fill="#97C7EB"/>
<path d="M527.473 339.813C527.473 339.851 527.359 340.078 527.246 340.344C527.132 340.647 526.942 341.026 526.791 341.443C526.26 342.655 525.654 344.095 525.654 344.095C524.744 343.754 523.948 343.11 523.418 342.314C522.622 341.064 519.779 339.321 519.779 339.321L519.893 337.994L520.006 336.63H525.805C525.805 336.63 526.98 338.601 527.359 339.434C527.435 339.548 527.473 339.699 527.473 339.813Z" fill="#010101"/>
<path d="M570.907 352.66C570.907 352.66 580.572 354.555 584.665 353.115C588.758 351.675 606.42 337.994 608.012 338.525C609.604 339.055 616.54 343.262 616.54 343.262C616.54 343.262 610.627 335.114 608.581 334.546C606.534 333.977 589.137 343.224 583.718 344.853C579.132 346.256 564.919 342.618 564.919 342.618L570.907 352.66Z" fill="#C8C8C8"/>
<path d="M617.563 353.608C617.563 353.608 611.726 347.999 610.286 347.128C609.49 346.635 602.706 349.402 596.187 352.016C591.108 354.063 586.181 355.996 584.286 356.223C580.003 356.716 570.983 352.736 570.983 352.736L568.444 344.968L567.344 341.633C567.344 341.633 568.671 342.315 570.642 343.224C571.779 343.755 573.143 344.361 574.583 344.968C578.411 346.559 582.808 348.113 585.196 347.962C590.843 347.545 609.831 342.391 611.726 343.376C613.621 344.361 617.563 353.608 617.563 353.608Z" fill="#C2C2C2"/>
<path d="M521.864 334.811C521.75 335.455 521.56 336.062 521.295 336.668C521.03 337.274 520.727 337.843 520.385 338.411C520.196 338.752 519.969 339.055 519.779 339.359C519.324 340.041 518.907 340.609 518.68 340.912C517.315 342.731 515.61 340.988 513.98 338.79C513.071 337.464 512.313 336.062 511.744 334.584C511.365 333.674 511.176 333.068 511.176 333.068C511.176 333.068 514.625 329.24 514.89 329.089C514.928 329.089 515.004 329.051 515.041 329.089C515.534 329.127 516.027 329.202 516.482 329.278C517.164 329.392 517.808 329.543 517.808 329.543C518.566 330.112 519.286 330.718 519.969 331.4C520.992 332.461 522.015 333.788 521.864 334.811Z" fill="#C8C8C8"/>
<path d="M527.359 339.472C527.359 339.775 527.321 340.079 527.245 340.382C527.208 340.761 527.018 341.14 526.791 341.481C526.677 341.594 526.525 341.708 526.336 341.746C526.146 341.784 525.957 341.746 525.805 341.67C524.782 341.329 522.508 339.965 520.385 338.411C520.234 338.297 520.044 338.184 519.893 338.032C518.49 337.085 517.467 335.645 517.05 334.015C516.444 332.082 511.934 334.47 511.744 334.584C511.365 333.674 511.176 333.068 511.176 333.068C511.176 333.068 514.625 329.24 514.89 329.089C514.928 329.089 515.004 329.051 515.041 329.089H516.178L516.52 329.278L520.006 331.4C521.068 332.461 522.091 333.788 521.939 334.811C521.826 335.455 521.636 336.062 521.371 336.668H525.843C525.805 336.668 526.98 338.601 527.359 339.472Z" fill="#C8C8C8"/>
<path d="M511.517 334.015C510.759 333.182 510.266 332.158 510.001 331.059C509.66 329.354 512.199 325.261 515.837 324.844C520.385 324.352 521.977 325.451 525.085 328.52C528.193 331.59 529.368 332.727 531.642 332.841C535.318 333.03 535.849 335.418 536 336.706C536.152 337.881 535.735 341.064 531.793 341.329C527.852 341.557 521.068 339.093 520.006 336.63C518.983 334.167 519.059 331.59 516.52 331.135C514.094 330.718 511.517 334.015 511.517 334.015Z" fill="#010101"/>
<path d="M596.225 352.016C591.146 354.062 586.219 355.995 584.324 356.223C580.041 356.715 571.021 352.736 571.021 352.736L568.481 344.967L570.68 343.224C571.817 343.755 573.181 344.361 574.621 344.967C574.621 344.967 574.773 348.719 578.222 350.652C581.633 352.622 596.225 352.016 596.225 352.016Z" fill="#C8C8C8"/>
<path d="M572.385 345.422C572.423 349.098 570.869 356.185 570.869 356.185C570.869 356.185 552.563 356.147 549.607 356.185C546.765 356.223 539.412 356.185 536.683 355.995C532.703 355.73 531.87 353.494 530.391 351.334C528.913 349.174 526.526 348.037 524.744 345.991C523.304 344.399 523.001 342.277 523.152 341.974C523.304 341.67 526.184 340.988 525.654 339.131C525.123 337.274 535.963 336.706 535.963 336.706C535.963 336.706 544.945 341.595 549.872 340.685C554.799 339.776 557.983 337.274 563.479 337.237C564.881 337.237 571.931 336.592 571.931 336.592C571.931 336.592 572.158 338.525 572.31 341.519C572.347 342.731 572.385 344.02 572.385 345.422Z" fill="#F2F2F2"/>
<path d="M572.271 341.557C568.709 342.428 564.691 344.816 558.968 346.711C551.085 349.288 535.508 339.093 532.21 340.344C528.913 341.595 523.152 341.974 523.152 341.974C523.304 341.67 526.184 340.988 525.654 339.131C525.123 337.274 535.963 336.706 535.963 336.706C535.963 336.706 544.945 341.595 549.872 340.685C554.799 339.776 557.983 337.274 563.478 337.237C564.881 337.237 571.93 336.592 571.93 336.592C571.93 336.592 572.158 338.601 572.271 341.557Z" fill="#F2F2F2"/>
<path d="M518.263 342.315L514.435 340.988L516.899 334.053L520.727 335.417L518.263 342.315Z" fill="url(#paint14_linear)"/>
<path d="M512.843 341.216C513.146 342.77 516.899 345.46 516.899 345.46C516.899 345.46 517.315 346.104 517.998 347.09C520.347 350.5 525.843 357.928 527.814 357.246C529.216 356.715 530.543 356.033 531.756 355.199C531.756 355.199 530.467 353.077 529.519 351.637C529.254 351.182 528.913 350.728 528.572 350.349C528.193 350.159 526.866 351.486 526.866 351.486C525.578 350.349 524.327 349.136 523.152 347.848C522.015 346.521 518.831 343.49 518.566 342.353C518.301 341.216 519.135 339.851 518.756 338.487C518.377 337.161 517.505 339.814 517.315 340.609C517.126 341.405 516.974 340.155 516.216 338.449C515.61 337.047 515.345 337.502 513.715 338.298C512.009 339.094 512.426 339.018 512.843 341.216Z" fill="#C8C8C8"/>
<path d="M527.586 351.41L529.33 343.641L536.758 346.408C536.758 346.408 532.968 355.768 530.353 355.844C527.738 355.92 527.586 351.41 527.586 351.41Z" fill="#C8C8C8"/>
<path d="M528.345 346.331L536.948 347.999C536.948 347.999 537.1 344.399 536.455 341.822C536.266 341.102 536.001 340.42 535.622 339.775C535.432 339.434 535.129 339.093 534.788 338.866C534.447 338.638 534.068 338.449 533.651 338.373C533.234 338.297 532.817 338.297 532.438 338.411C532.021 338.525 531.642 338.676 531.339 338.942C530.505 339.548 529.823 340.382 529.444 341.367C528.837 342.883 528.345 346.331 528.345 346.331Z" fill="#E0E1E0"/>
<path d="M136.452 296.043L135.466 294.641C128.909 292.557 129.137 304.305 136.224 300.629L136.717 300.894L136.452 296.043ZM135.807 300.136C129.933 303.206 130.008 293.504 135.428 295.209L135.732 295.323L135.997 296.346L136.186 300.363L135.807 300.136Z" fill="url(#paint15_linear)"/>
<path d="M80.5479 289.07C80.5479 289.07 62.2797 301.349 64.8191 320.448C67.6995 341.784 80.4342 351.94 101.204 352.888C127.621 354.1 145.358 346.256 148.466 337.009C151.574 327.762 139.976 306.919 131.903 305.782C119.51 304.039 107.874 289.676 104.728 286.872C101.583 284.03 94.1163 283.272 89.644 284.598C85.2096 285.849 80.5479 289.07 80.5479 289.07Z" fill="#43B5E8"/>
<path d="M83.7317 293.58C80.8133 299.454 80.2448 306.238 82.1019 312.528C85.9299 325.375 93.8512 332.992 108.329 333.106C134.86 333.296 134.935 327.043 136.186 324.238C137.437 321.396 142.25 312.983 129.629 313.4C117.084 313.817 95.7083 288.919 95.7083 288.919L83.7317 293.58Z" fill="#46C1F0"/>
<path d="M98.7784 299.454L98.0962 302.978L93.2449 302.447C93.2449 302.447 93.1312 302.182 92.9796 301.765C92.5627 300.628 91.6531 298.468 91.1225 298.165C90.3644 297.748 87.9767 296.763 87.6735 296.043C87.3703 295.323 85.5511 291.647 85.589 291.495C85.6269 291.306 86.3091 284.977 86.3091 284.977L89.9096 283.727L90.9709 283.31L93.3207 282.362L94.1924 283.764C95.5947 285.546 96.656 287.516 97.3761 289.676C98.0583 291.874 98.5131 295.095 97.8309 295.664C97.1866 296.194 96.4286 296.157 96.8834 296.915C97.3382 297.597 98.7784 299.454 98.7784 299.454Z" fill="#E0E1E0"/>
<path d="M94.1166 301.727L92.9796 301.803C92.5627 300.666 91.6531 298.506 91.1225 298.203C90.3644 297.786 87.9767 296.801 87.6735 296.081C87.3703 295.361 85.5511 291.685 85.589 291.533C85.6269 291.344 86.3091 285.015 86.3091 285.015L89.8717 283.765L90.933 283.348C91.5773 283.878 92.1837 284.485 92.1837 284.485C92.1837 284.485 89.3032 286.493 89.6443 287.895C89.9854 289.335 92.5248 291.799 91.5015 292.708C90.4781 293.618 90.7435 296.346 91.6152 296.99C92.4869 297.597 93.5481 300.212 93.5481 300.212L94.1166 301.727Z" fill="#A9A8A8"/>
<path d="M93.7753 278.156C94.1922 279.369 94.0785 279.255 94.6091 281.567C94.6849 281.946 94.6849 282.325 94.5712 282.666C94.4575 283.007 94.268 283.348 94.0027 283.613C93.0552 284.636 89.9094 284.523 89.1135 286.19C88.3176 287.82 87.9386 290.055 88.8861 290.7C89.8715 291.344 90.44 291.571 89.9473 291.571C89.4546 291.571 86.9532 291.268 87.1048 292.026C87.2564 292.405 87.4459 292.784 87.7491 293.087C88.0144 293.39 88.3555 293.656 88.7724 293.807C89.9473 294.224 88.8861 296.991 89.4546 297.369C90.061 297.711 88.7724 298.468 85.6267 296.725C82.4809 294.944 79.373 290.359 81.0407 287.441C82.6704 284.523 81.3439 283.462 83.959 281.15C85.6646 279.634 89.1893 279.861 89.5683 278.952C89.9852 278.004 90.0989 275.086 90.7054 276.223C91.3118 277.36 91.6529 279.672 91.6529 279.672C91.6529 279.672 91.9182 275.958 92.752 276.375C93.3584 276.64 93.4721 277.284 93.7753 278.156Z" fill="#010101"/>
<path d="M160.405 351.221C160.405 351.221 161.352 352.585 164.081 353.987C166.81 355.427 172.002 355.73 171.396 357.966C170.79 360.202 168.44 363.954 164.801 362.628C161.163 361.301 157.069 359.103 155.553 357.057C154.037 355.01 155.553 351.221 155.553 351.221H160.405V351.221Z" fill="#C8C8C8"/>
<path d="M121.443 340.23C121.443 340.23 118.638 342.125 118.032 344.02C117.425 345.953 115.189 355.427 117.236 357.056C119.283 358.648 121.822 358.269 122.807 355.616C123.831 352.964 126.787 345.763 128.189 344.323L129.629 342.883L121.443 340.23Z" fill="#C8C8C8"/>
<path d="M150.058 314.499C145.169 325.867 129.212 347.355 129.212 347.355L122.656 341.329L120.268 339.131L136.224 318.402C136.224 318.402 131.183 318.553 129.97 317.151C128.758 315.749 122.277 313.134 122.277 313.134C122.277 313.134 120.988 312.604 119.737 312.073L120.154 310.103L129.212 309.079C129.212 309.079 147.594 304.987 150.967 308.056C151.953 308.966 151.422 311.315 150.058 314.499Z" fill="#223E98"/>
<path d="M150.058 314.536C145.168 325.905 129.25 347.392 129.25 347.392L122.693 341.367L150.058 314.536Z" fill="#2A2C7B"/>
<path d="M129.781 296.422V299.719C126.901 300.818 123.944 301.727 120.95 302.409C118.979 302.864 117.009 303.243 115 303.471C111.437 303.887 108.822 303.395 107.079 302.751C106.093 302.447 105.184 301.955 104.388 301.31L108.974 296.839C108.974 296.839 109.466 297.028 110.186 297.331C110.945 297.635 111.968 297.976 112.915 298.241C113.673 298.506 114.469 298.62 115.265 298.582C116.743 298.317 121.367 297.293 124.968 296.839C126.56 296.649 128.189 296.498 129.781 296.422Z" fill="#CECECD"/>
<path d="M112.802 326.246C112.802 326.246 126.294 335.531 132.851 339.207C139.408 342.883 152.521 358.723 152.521 358.723L161.655 350.045C161.655 350.045 132.965 321.509 130.35 319.766C127.734 318.023 117.994 314.536 117.994 314.536L112.802 317.568V326.246Z" fill="#223E98"/>
<path d="M136.262 318.44C136.224 318.44 136.224 318.44 136.262 318.44C135.997 318.592 131.828 321.131 130.349 319.766C128.833 318.326 118.979 316.015 118.979 316.015L119.775 312.111C121.026 312.642 122.315 313.172 122.315 313.172C122.315 313.172 128.796 315.749 130.008 317.189C131.221 318.592 136.262 318.44 136.262 318.44Z" fill="#2A2C7B"/>
<path d="M120.988 302.448C119.017 302.902 117.046 303.281 115.038 303.509C111.475 303.926 108.86 303.433 107.116 302.789L107.078 301.349L108.898 298.961C108.898 298.961 109.997 297.559 110.073 297.408C110.073 297.408 110.148 297.37 110.224 297.37C110.982 297.673 112.005 298.014 112.953 298.279C112.953 298.279 112.953 301.235 113.787 301.728C114.583 302.145 120.723 302.41 120.988 302.448Z" fill="#C0BFBF"/>
<path d="M129.25 309.08C129.25 309.08 124.323 310.899 118.979 315.977C117.349 317.53 115.757 320.259 114.583 322.533C110.868 320.79 102.871 318.705 101.014 317.53C98.8917 316.204 105.827 305.555 105.827 305.555L94.1541 314.499L89.1891 311.543L88.2416 309.724C88.2416 309.724 88.09 305.404 89.0375 303.622C90.4019 301.045 97.8305 298.203 97.8305 298.203C99.6497 297.445 101.696 297.332 103.591 297.9C106.396 298.734 115.037 305.1 121.026 305.1C125.915 305.1 129.25 309.08 129.25 309.08Z" fill="white"/>
<path d="M131.486 295.286C133.04 295.286 134.064 294.869 134.177 296.081C134.329 297.787 134.556 300.023 133.533 300.705C132.699 301.273 128.606 300.174 128.606 298.658C128.644 297.067 129.781 295.286 131.486 295.286Z" fill="#C0BFBF"/>
<path d="M100.332 297.521C100.332 297.521 100.597 296.65 102.189 296.574C103.819 296.498 109.163 296.839 109.163 296.839L108.215 300.326L107.04 301.349L100.332 297.521Z" fill="#EAEAEA"/>
<path d="M114.545 322.533C113.484 324.579 112.763 326.247 112.763 326.247C112.763 326.247 111.626 325.337 108.064 324.011C104.501 322.684 97.4895 321.964 95.8598 321.168C94.2301 320.373 91.3117 316.659 91.3117 316.659L91.1601 315.56L89.1514 311.618L94.1164 314.574L105.79 305.631C105.79 305.631 98.816 316.28 100.976 317.606C102.834 318.667 110.831 320.789 114.545 322.533Z" fill="#EAEAEA"/>
<path d="M132.32 295.286C133.419 295.286 134.14 294.869 134.215 296.081C134.329 297.787 134.481 300.023 133.761 300.705C133.192 301.273 130.274 300.174 130.274 298.658C130.312 297.067 131.108 295.286 132.32 295.286Z" fill="#CECECD"/>
<path d="M135.466 293.58H141.113V299.491C141.113 299.795 141.037 300.136 140.924 300.439C140.81 300.742 140.621 301.007 140.393 301.235C140.166 301.462 139.9 301.652 139.597 301.765C139.294 301.879 138.991 301.955 138.65 301.955H137.892C137.247 301.955 136.641 301.689 136.186 301.235C135.731 300.78 135.466 300.174 135.466 299.529V293.58Z" fill="url(#paint16_linear)"/>
<path d="M76.4169 297.786C73.4227 298.62 71.9825 305.441 71.793 309.8C71.3003 319.842 72.3994 337.994 85.6267 342.504C104.198 348.833 126.522 346.824 112.309 341.14C98.0961 335.417 87.2944 334.811 82.9358 327.194C79.1078 320.448 80.2069 297.938 76.4169 297.786C76.4548 297.748 76.4169 297.786 76.4169 297.786Z" fill="#4DC6F3"/>
<path d="M110.224 303.13C110.111 304.077 110.338 305.025 110.907 305.783C111.361 306.427 111.74 307.526 110.793 308.928C109.277 311.202 106.813 313.513 108.746 312.68C110.641 311.884 117.691 305.858 115.644 305.555C111.892 305.025 110.376 302.22 110.262 303.092L110.224 303.13Z" fill="#EAEAEA"/>
<path d="M98.6265 293.201L97.0726 298.279L87.9006 295.475L89.4167 290.396L98.6265 293.201Z" fill="url(#paint17_linear)"/>
<path d="M97.0346 319.425L89.0376 315.332L94.0784 309.269C94.0784 309.269 103.25 315.825 102.606 318.288C102 320.752 97.0346 319.425 97.0346 319.425Z" fill="#C8C8C8"/>
<path d="M95.2914 309.875C95.2914 309.875 93.4343 306.73 92.9416 306.161C91.2739 304.229 86.4605 304.342 87.029 309.193C87.4081 312.263 89.0757 315.749 89.0757 315.749C91.6908 314.423 93.8512 312.376 95.2914 309.875Z" fill="white"/>
<path d="M97.9822 294.148C99.195 295.588 99.1192 300.78 99.1192 300.78C99.1192 300.78 99.4224 301.614 99.8393 302.94C101.355 307.525 104.425 317.757 102.454 318.932C101.014 319.69 97.7548 313.74 97.7548 313.74C97.6032 311.77 97.3379 309.799 96.9589 307.829C96.5041 305.858 95.8977 300.856 95.0639 299.795C94.1921 298.733 92.335 298.354 91.3875 297.028C90.4021 295.664 93.5099 296.99 94.3437 297.445C95.1776 297.9 94.1542 296.801 93.093 294.868C92.2213 293.276 92.8277 293.428 94.6849 292.632C96.5799 291.836 96.2388 292.139 97.9822 294.148Z" fill="#CECECD"/>
<path d="M499.464 353.191C499.464 355.275 497.759 356.981 495.674 356.981H185.154C183.069 356.981 181.364 355.275 181.364 353.191V162.686C181.364 160.602 183.069 158.896 185.154 158.896H495.674C497.759 158.896 499.464 160.602 499.464 162.686V353.191Z" fill="#E1F4FD"/>
<path d="M484.228 231.089C484.228 233.173 482.523 234.878 480.438 234.878H273.197C271.113 234.878 269.407 233.173 269.407 231.089V178.223C269.407 176.139 271.113 174.434 273.197 174.434H480.4C482.485 174.434 484.19 176.139 484.19 178.223V231.089H484.228Z" fill="#D1D3D4"/>
<path d="M259.705 341.405C259.705 343.489 257.999 345.194 255.915 345.194H194.478C192.393 345.194 190.688 343.489 190.688 341.405V286.152C190.688 284.068 192.393 282.362 194.478 282.362H255.915C257.999 282.362 259.705 284.068 259.705 286.152V341.405Z" fill="url(#paint18_linear)"/>
<path d="M438.331 307.602C438.331 309.686 440.036 311.391 442.121 311.391H482.295C484.38 311.391 486.085 309.686 486.085 307.602V286.228C486.085 284.144 484.38 282.438 482.295 282.438H442.121C440.036 282.438 438.331 284.144 438.331 286.228V307.602Z" fill="url(#paint19_linear)"/>
<path d="M438.596 340.42C438.596 342.504 440.301 344.21 442.386 344.21H483.243C485.327 344.21 487.033 342.504 487.033 340.42V318.668C487.033 316.583 485.327 314.878 483.243 314.878H442.386C440.301 314.878 438.596 316.583 438.596 318.668V340.42Z" fill="url(#paint20_linear)"/>
<path d="M440.794 291.344C440.794 293.428 442.499 295.134 444.584 295.134H478.96C481.044 295.134 482.75 293.428 482.75 291.344V289.336C482.75 287.251 481.044 285.546 478.96 285.546H444.584C442.499 285.546 440.794 287.251 440.794 289.336V291.344Z" fill="white"/>
<path d="M441.363 304.001C441.363 306.086 443.068 307.791 445.153 307.791H479.529C481.613 307.791 483.319 306.086 483.319 304.001V301.993C483.319 299.908 481.613 298.203 479.529 298.203H445.153C443.068 298.203 441.363 299.908 441.363 301.993V304.001Z" fill="white"/>
<path d="M441.666 323.821C441.666 325.905 443.371 327.611 445.456 327.611H479.831C481.916 327.611 483.622 325.905 483.622 323.821V321.813C483.622 319.728 481.916 318.023 479.831 318.023H445.456C443.371 318.023 441.666 319.728 441.666 321.813V323.821Z" fill="white"/>
<path d="M441.363 336.743C441.363 338.828 443.068 340.533 445.153 340.533H479.529C481.613 340.533 483.319 338.828 483.319 336.743V334.735C483.319 332.651 481.613 330.945 479.529 330.945H445.153C443.068 330.945 441.363 332.651 441.363 334.735V336.743Z" fill="white"/>
<path d="M200.92 327.611C200.92 328.407 202.626 329.089 204.71 329.089H244.809C246.894 329.089 248.599 328.445 248.599 327.611C248.599 326.815 246.894 326.133 244.809 326.133H204.71C202.626 326.133 200.92 326.815 200.92 327.611Z" fill="white"/>
<path d="M279.451 218.583C279.451 219.379 281.156 220.061 283.241 220.061H323.34C325.424 220.061 327.13 219.417 327.13 218.583C327.13 217.787 325.424 217.105 323.34 217.105H283.241C281.156 217.143 279.451 217.787 279.451 218.583Z" fill="#F1F2F2"/>
<path d="M279.451 224.76C279.451 225.556 281.156 226.238 283.241 226.238H323.34C325.424 226.238 327.13 225.593 327.13 224.76C327.13 223.926 325.424 223.282 323.34 223.282H283.241C281.156 223.32 279.451 223.964 279.451 224.76Z" fill="#F1F2F2"/>
<path d="M55.6472 197.816C55.6472 198.271 57.3527 198.65 59.4373 198.65H117.425C119.51 198.65 121.215 198.271 121.215 197.816C121.215 197.361 119.51 196.982 117.425 196.982H59.4373C57.3527 196.982 55.6472 197.361 55.6472 197.816Z" fill="white"/>
<path d="M96.3147 223.093C96.3147 223.547 98.0202 223.926 100.105 223.926H158.093C160.177 223.926 161.883 223.547 161.883 223.093C161.883 222.638 160.177 222.259 158.093 222.259H100.105C98.0202 222.259 96.3147 222.638 96.3147 223.093Z" fill="white"/>
<path d="M55.3818 241.549C55.3818 242.003 57.0874 242.382 59.1719 242.382H117.16C119.244 242.382 120.95 242.003 120.95 241.549C120.95 241.094 119.244 240.715 117.16 240.715H59.1719C57.0874 240.715 55.3818 241.094 55.3818 241.549Z" fill="white"/>
<path d="M55.3818 246.058C55.3818 246.513 57.0874 246.892 59.1719 246.892H117.16C119.244 246.892 120.95 246.513 120.95 246.058C120.95 245.603 119.244 245.224 117.16 245.224H59.1719C57.0874 245.224 55.3818 245.603 55.3818 246.058Z" fill="white"/>
<path d="M55.4954 250.606C55.4954 251.06 57.2009 251.439 59.2854 251.439H117.273C119.358 251.439 121.064 251.06 121.064 250.606C121.064 250.151 119.358 249.772 117.273 249.772H59.2854C57.2009 249.772 55.4954 250.113 55.4954 250.606Z" fill="white"/>
<path d="M96.3147 227.602C96.3147 228.057 98.0202 228.436 100.105 228.436H158.093C160.177 228.436 161.883 228.057 161.883 227.602C161.883 227.148 160.177 226.769 158.093 226.769H100.105C98.0202 226.769 96.3147 227.148 96.3147 227.602Z" fill="white"/>
<path d="M55.6472 202.098C55.6472 202.553 57.3527 202.932 59.4373 202.932H117.425C119.51 202.932 121.215 202.553 121.215 202.098C121.215 201.643 119.51 201.264 117.425 201.264H59.4373C57.3527 201.264 55.6472 201.643 55.6472 202.098Z" fill="white"/>
<path d="M55.6472 206.835C55.6472 207.29 57.3527 207.669 59.4373 207.669H103.478C105.562 207.669 107.268 207.29 107.268 206.835C107.268 206.38 105.562 206.001 103.478 206.001H59.4373C57.3527 206.001 55.6472 206.38 55.6472 206.835Z" fill="white"/>
<path d="M513.449 267.545C513.449 267.772 515.155 267.962 517.24 267.962H558.93C561.015 267.962 562.72 267.772 562.72 267.545C562.72 267.318 561.015 267.128 558.93 267.128H517.24C515.155 267.09 513.449 267.318 513.449 267.545Z" fill="white"/>
<path d="M513.449 270.69C513.449 270.918 515.155 271.107 517.24 271.107H558.93C561.015 271.107 562.72 270.918 562.72 270.69C562.72 270.463 561.015 270.273 558.93 270.273H517.24C515.155 270.273 513.449 270.463 513.449 270.69Z" fill="white"/>
<path d="M207.932 79.9203C207.932 80.1477 209.638 80.3371 211.722 80.3371H237.722C239.807 80.3371 241.512 80.1477 241.512 79.9203C241.512 79.6929 239.807 79.5034 237.722 79.5034H211.722C209.638 79.5034 207.932 79.6929 207.932 79.9203Z" fill="white"/>
<path d="M207.932 82.535C207.932 82.7624 209.638 82.9519 211.722 82.9519H237.722C239.807 82.9519 241.512 82.7624 241.512 82.535C241.512 82.3076 239.807 82.1182 237.722 82.1182H211.722C209.638 82.1182 207.932 82.3076 207.932 82.535Z" fill="white"/>
<path d="M474.867 103.568C474.867 103.795 476.572 103.985 478.657 103.985H514.966C517.05 103.985 518.756 103.795 518.756 103.568C518.756 103.34 517.05 103.151 514.966 103.151H478.657C476.572 103.151 474.867 103.34 474.867 103.568Z" fill="white"/>
<path d="M474.942 106.561C474.942 106.789 476.648 106.978 478.732 106.978H515.041C517.126 106.978 518.831 106.789 518.831 106.561C518.831 106.334 517.126 106.144 515.041 106.144H478.732C476.648 106.107 474.942 106.296 474.942 106.561Z" fill="white"/>
<path d="M475.094 109.593C475.094 109.821 476.8 110.01 478.884 110.01H515.193C517.277 110.01 518.983 109.821 518.983 109.593C518.983 109.366 517.277 109.176 515.193 109.176H478.884C476.8 109.176 475.094 109.366 475.094 109.593Z" fill="white"/>
<path d="M207.97 85.3392C207.97 85.5666 209.676 85.7561 211.76 85.7561H237.76C239.844 85.7561 241.55 85.5666 241.55 85.3392C241.55 85.1118 239.844 84.9224 237.76 84.9224H211.76C209.676 84.9224 207.97 85.1118 207.97 85.3392Z" fill="white"/>
<path d="M207.97 88.4847C207.97 88.7121 209.676 88.9015 211.76 88.9015H228.929C231.014 88.9015 232.719 88.7121 232.719 88.4847C232.719 88.2573 231.014 88.0678 228.929 88.0678H211.76C209.676 88.0299 207.97 88.2194 207.97 88.4847Z" fill="white"/>
<path d="M513.449 274.063C513.449 274.291 515.155 274.48 517.24 274.48H558.93C561.015 274.48 562.72 274.291 562.72 274.063C562.72 273.836 561.015 273.646 558.93 273.646H517.24C515.155 273.609 513.449 273.798 513.449 274.063Z" fill="white"/>
<path d="M513.449 277.474C513.449 277.701 515.155 277.89 517.24 277.89H558.93C561.015 277.89 562.72 277.701 562.72 277.474C562.72 277.246 561.015 277.057 558.93 277.057H517.24C515.155 277.057 513.449 277.246 513.449 277.474Z" fill="white"/>
<path d="M543.656 286.38C543.656 286.607 545.362 286.797 547.447 286.797H589.137C591.222 286.797 592.927 286.607 592.927 286.38C592.927 286.152 591.222 285.963 589.137 285.963H547.447C545.362 285.963 543.656 286.152 543.656 286.38Z" fill="white"/>
<path d="M543.732 289.904C543.732 290.132 545.438 290.321 547.522 290.321H589.213C591.298 290.321 593.003 290.132 593.003 289.904C593.003 289.677 591.298 289.487 589.213 289.487H547.522C545.438 289.487 543.732 289.677 543.732 289.904Z" fill="white"/>
<path d="M514.094 300.06C514.094 300.288 515.799 300.477 517.884 300.477H559.575C561.659 300.477 563.365 300.288 563.365 300.06C563.365 299.833 561.659 299.643 559.575 299.643H517.884C515.799 299.605 514.094 299.833 514.094 300.06Z" fill="white"/>
<path d="M514.208 303.395C514.208 303.623 515.913 303.812 517.998 303.812H559.688C561.773 303.812 563.478 303.623 563.478 303.395C563.478 303.168 561.773 302.979 559.688 302.979H517.998C515.913 302.979 514.208 303.168 514.208 303.395Z" fill="white"/>
<path d="M514.208 306.54C514.208 306.768 515.913 306.957 517.998 306.957H552.753C554.837 306.957 556.543 306.768 556.543 306.54C556.543 306.313 554.837 306.124 552.753 306.124H517.998C515.913 306.124 514.208 306.313 514.208 306.54Z" fill="white"/>
<path d="M200.92 333.03C200.92 333.826 202.626 334.508 204.71 334.508H244.809C246.894 334.508 248.599 333.863 248.599 333.03C248.599 332.234 246.894 331.552 244.809 331.552H204.71C202.626 331.59 200.92 332.234 200.92 333.03Z" fill="white"/>
<path d="M200.92 339.169C200.92 339.965 202.626 340.647 204.71 340.647H244.809C246.894 340.647 248.599 340.003 248.599 339.169C248.599 338.374 246.894 337.691 244.809 337.691H204.71C202.626 337.691 200.92 338.374 200.92 339.169Z" fill="white"/>
<path d="M436.397 341.367C436.397 343.451 434.692 345.156 432.607 345.156H273.197C271.113 345.156 269.407 343.451 269.407 341.367V286.038C269.407 283.954 271.113 282.249 273.197 282.249H432.607C434.692 282.249 436.397 283.954 436.397 286.038V341.367Z" fill="#D1D3D4"/>
<path d="M484.872 273.306C484.872 275.39 483.167 277.095 481.082 277.095H273.349C271.264 277.095 269.559 275.39 269.559 273.306V243.216C269.559 241.132 271.264 239.426 273.349 239.426H481.082C483.167 239.426 484.872 241.132 484.872 243.216V273.306V273.306Z" fill="url(#paint21_linear)"/>
<path d="M224.04 322.495C234.067 322.495 242.195 314.368 242.195 304.342C242.195 294.317 234.067 286.19 224.04 286.19C214.014 286.19 205.886 294.317 205.886 304.342C205.886 314.368 214.014 322.495 224.04 322.495Z" fill="white"/>
<path d="M302.873 213.543C312.167 213.543 319.701 206.01 319.701 196.717C319.701 187.424 312.167 179.891 302.873 179.891C293.58 179.891 286.045 187.424 286.045 196.717C286.045 206.01 293.58 213.543 302.873 213.543Z" fill="#F1F2F2"/>
<path d="M474.829 186.788C474.829 187.546 473.123 188.152 471.039 188.152H351.311C349.226 188.152 347.521 187.546 347.521 186.788C347.521 186.03 349.226 185.424 351.311 185.424H471.001C473.123 185.424 474.829 186.03 474.829 186.788Z" fill="white"/>
<path d="M474.412 195.353C474.412 196.11 472.707 196.717 470.622 196.717H351.424C349.34 196.717 347.634 196.11 347.634 195.353C347.634 194.595 349.34 193.988 351.424 193.988H470.622C472.707 193.988 474.412 194.595 474.412 195.353Z" fill="white"/>
<path d="M474.602 203.689C474.602 204.447 472.896 205.054 470.811 205.054H351.917C349.832 205.054 348.127 204.447 348.127 203.689C348.127 202.932 349.832 202.325 351.917 202.325H470.811C472.896 202.325 474.602 202.932 474.602 203.689Z" fill="white"/>
<path d="M474.601 212.254C474.601 213.012 472.896 213.619 470.811 213.619H351.235C349.15 213.619 347.445 213.012 347.445 212.254C347.445 211.496 349.15 210.89 351.235 210.89H470.849C472.896 210.89 474.601 211.496 474.601 212.254Z" fill="white"/>
<path d="M474.412 221.198C474.412 221.956 472.706 222.562 470.622 222.562H351.576C349.491 222.562 347.786 221.956 347.786 221.198C347.786 220.44 349.491 219.833 351.576 219.833H470.622C472.706 219.833 474.412 220.44 474.412 221.198Z" fill="white"/>
<path d="M157.069 124.638C157.069 126.723 155.364 128.428 153.279 128.428H104.729C102.644 128.428 100.938 126.723 100.938 124.638V118.499C100.938 116.415 102.644 114.709 104.729 114.709H153.279C155.364 114.709 157.069 116.415 157.069 118.499V124.638Z" fill="url(#paint22_linear)"/>
<path d="M158.927 135.59C158.927 137.675 157.221 139.38 155.137 139.38H83.959C81.8745 139.38 80.1689 137.675 80.1689 135.59V134.984C80.1689 132.9 81.8745 131.194 83.959 131.194H155.099C157.183 131.194 158.889 132.9 158.889 134.984V135.59H158.927Z" fill="white"/>
<path d="M98.2853 155.902C98.2853 157.986 96.5798 159.692 94.4952 159.692H84.0725C81.988 159.692 80.2825 157.986 80.2825 155.902V144.798C80.2825 142.714 81.988 141.009 84.0725 141.009H94.4952C96.5798 141.009 98.2853 142.714 98.2853 144.798V155.902Z" fill="#ABE1FA"/>
<path d="M145.093 146.011C145.093 148.096 146.798 149.801 148.883 149.801H155.061C157.145 149.801 158.851 148.096 158.851 146.011V145.405C158.851 143.321 157.145 141.615 155.061 141.615H148.883C146.798 141.615 145.093 143.321 145.093 145.405V146.011Z" fill="url(#paint23_linear)"/>
<path d="M145.661 147.452C145.661 148.172 147.367 148.74 149.451 148.74H154.303C156.387 148.74 158.093 148.172 158.093 147.452C158.093 146.732 156.387 146.163 154.303 146.163H149.451C147.367 146.163 145.661 146.732 145.661 147.452Z" fill="white"/>
<path d="M83.1631 154.386C83.1631 154.614 84.8686 154.765 86.9532 154.765H91.8044C93.889 154.765 95.5945 154.576 95.5945 154.386C95.5945 154.159 93.889 154.007 91.8044 154.007H86.9532C84.8686 154.007 83.1631 154.159 83.1631 154.386Z" fill="white"/>
<path d="M83.1631 155.827C83.1631 156.054 84.8686 156.206 86.9532 156.206H91.8044C93.889 156.206 95.5945 156.016 95.5945 155.827C95.5945 155.599 93.889 155.448 91.8044 155.448H86.9532C84.8686 155.448 83.1631 155.637 83.1631 155.827Z" fill="white"/>
<path d="M83.1631 157.456C83.1631 157.684 84.8686 157.835 86.9532 157.835H91.8044C93.889 157.835 95.5945 157.646 95.5945 157.456C95.5945 157.229 93.889 157.077 91.8044 157.077H86.9532C84.8686 157.077 83.1631 157.267 83.1631 157.456Z" fill="white"/>
<path d="M100.749 142.45C100.749 142.677 102.455 142.866 104.539 142.866H139.408C141.492 142.866 143.198 142.677 143.198 142.45C143.198 142.222 141.492 142.033 139.408 142.033H104.539C102.455 142.033 100.749 142.222 100.749 142.45Z" fill="#D1D3D4"/>
<path d="M100.749 144.534C100.749 144.761 102.455 144.95 104.539 144.95H139.408C141.492 144.95 143.198 144.761 143.198 144.534C143.198 144.306 141.492 144.117 139.408 144.117H104.539C102.455 144.117 100.749 144.306 100.749 144.534Z" fill="#D1D3D4"/>
<path d="M100.673 146.656C100.673 146.883 102.379 147.072 104.463 147.072H139.332C141.417 147.072 143.122 146.883 143.122 146.656C143.122 146.428 141.417 146.239 139.332 146.239H104.463C102.379 146.239 100.673 146.428 100.673 146.656Z" fill="#D1D3D4"/>
<path d="M100.749 148.892C100.749 149.119 102.455 149.309 104.539 149.309H139.408C141.492 149.309 143.198 149.119 143.198 148.892C143.198 148.665 141.492 148.475 139.408 148.475H104.539C102.455 148.437 100.749 148.627 100.749 148.892Z" fill="#D1D3D4"/>
<path d="M114.469 155.296C114.469 157.381 112.764 159.086 110.679 159.086H104.501C102.417 159.086 100.711 157.381 100.711 155.296V154.69C100.711 152.606 102.417 150.9 104.501 150.9H110.679C112.764 150.9 114.469 152.606 114.469 154.69V155.296Z" fill="url(#paint24_linear)"/>
<path d="M158.775 151.696C158.775 151.924 157.069 152.113 154.985 152.113H120.116C118.032 152.113 116.326 151.924 116.326 151.696C116.326 151.469 118.032 151.279 120.116 151.279H154.985C157.069 151.279 158.775 151.469 158.775 151.696Z" fill="#D1D3D4"/>
<path d="M158.775 153.818C158.775 154.046 157.069 154.235 154.985 154.235H120.116C118.032 154.235 116.326 154.046 116.326 153.818C116.326 153.591 118.032 153.401 120.116 153.401H154.985C157.069 153.401 158.775 153.591 158.775 153.818Z" fill="#D1D3D4"/>
<path d="M158.851 155.903C158.851 156.13 157.145 156.32 155.061 156.32H120.192C118.108 156.32 116.402 156.13 116.402 155.903C116.402 155.675 118.108 155.486 120.192 155.486H155.061C157.145 155.486 158.851 155.675 158.851 155.903Z" fill="#D1D3D4"/>
<path d="M158.775 158.139C158.775 158.366 157.069 158.555 154.985 158.555H120.116C118.032 158.555 116.326 158.366 116.326 158.139C116.326 157.911 118.032 157.722 120.116 157.722H154.985C157.069 157.722 158.775 157.911 158.775 158.139Z" fill="#D1D3D4"/>
<path d="M89.4166 128.769C93.3728 128.769 96.5799 125.477 96.5799 121.417C96.5799 117.356 93.3728 114.065 89.4166 114.065C85.4605 114.065 82.2534 117.356 82.2534 121.417C82.2534 125.477 85.4605 128.769 89.4166 128.769Z" fill="white"/>
<path d="M89.1893 153.022C92.2453 153.022 94.7228 150.494 94.7228 147.376C94.7228 144.257 92.2453 141.729 89.1893 141.729C86.1332 141.729 83.6558 144.257 83.6558 147.376C83.6558 150.494 86.1332 153.022 89.1893 153.022Z" fill="white"/>
<path d="M154.606 116.832C154.606 117.021 152.9 117.211 150.816 117.211H107.685C105.6 117.211 103.895 117.059 103.895 116.832C103.895 116.642 105.6 116.453 107.685 116.453H150.816C152.9 116.453 154.606 116.604 154.606 116.832Z" fill="white"/>
<path d="M154.492 119.106C154.492 119.295 152.787 119.485 150.702 119.485H107.571C105.487 119.485 103.781 119.333 103.781 119.106C103.781 118.916 105.487 118.727 107.571 118.727H150.702C152.787 118.727 154.492 118.916 154.492 119.106Z" fill="white"/>
<path d="M154.568 121.341C154.568 121.531 152.863 121.72 150.778 121.72H107.609C105.525 121.72 103.819 121.569 103.819 121.341C103.819 121.152 105.525 120.962 107.609 120.962H150.74C152.863 120.962 154.568 121.114 154.568 121.341Z" fill="white"/>
<path d="M154.568 123.615C154.568 123.804 152.863 123.994 150.778 123.994H107.609C105.525 123.994 103.819 123.842 103.819 123.615C103.819 123.425 105.525 123.236 107.609 123.236H150.74C152.863 123.236 154.568 123.425 154.568 123.615Z" fill="white"/>
<path d="M154.492 126.002C154.492 126.191 152.787 126.381 150.702 126.381H107.571C105.487 126.381 103.781 126.229 103.781 126.002C103.781 125.813 105.487 125.623 107.571 125.623H150.702C152.787 125.623 154.492 125.813 154.492 126.002Z" fill="white"/>
<path d="M612.484 197.551C612.484 199.635 610.778 201.341 608.694 201.341H564.35C562.266 201.341 560.56 199.635 560.56 197.551V193.951C560.56 191.866 562.266 190.161 564.35 190.161H608.694C610.778 190.161 612.484 191.866 612.484 193.951V197.551Z" fill="url(#paint25_linear)"/>
<path d="M614.19 206.949C614.19 208.768 612.484 210.284 610.4 210.284H545.135C543.05 210.284 541.345 208.768 541.345 206.949C541.345 205.13 543.05 203.614 545.135 203.614H610.4C612.484 203.614 614.19 205.13 614.19 206.949Z" fill="#ABE1FA"/>
<path d="M558.096 223.093C558.096 225.177 556.391 226.883 554.306 226.883H545.248C543.164 226.883 541.458 225.177 541.458 223.093V215.4C541.458 213.316 543.164 211.61 545.248 211.61H554.306C556.391 211.61 558.096 213.316 558.096 215.4V223.093Z" fill="url(#paint26_linear)"/>
<path d="M601.379 215.475C601.379 217.295 603.085 218.81 605.169 218.81H610.324C612.408 218.81 614.114 217.295 614.114 215.475C614.114 213.656 612.408 212.141 610.324 212.141H605.169C603.085 212.141 601.379 213.656 601.379 215.475Z" fill="url(#paint27_linear)"/>
<path d="M601.872 215.476C601.872 216.044 603.577 216.537 605.662 216.537H609.604C611.688 216.537 613.394 216.082 613.394 215.476C613.394 214.869 611.688 214.415 609.604 214.415H605.662C603.577 214.415 601.872 214.907 601.872 215.476Z" fill="white"/>
<path d="M544.111 222.562C544.111 222.752 545.817 222.866 547.901 222.866H551.843C553.928 222.866 555.633 222.714 555.633 222.562C555.633 222.373 553.928 222.259 551.843 222.259H547.901C545.817 222.221 544.111 222.373 544.111 222.562Z" fill="white"/>
<path d="M544.111 223.737C544.111 223.926 545.817 224.04 547.901 224.04H551.843C553.928 224.04 555.633 223.888 555.633 223.737C555.633 223.547 553.928 223.434 551.843 223.434H547.901C545.817 223.434 544.111 223.585 544.111 223.737Z" fill="white"/>
<path d="M544.111 225.063C544.111 225.253 545.817 225.367 547.901 225.367H551.843C553.928 225.367 555.633 225.215 555.633 225.063C555.633 224.874 553.928 224.76 551.843 224.76H547.901C545.817 224.76 544.111 224.912 544.111 225.063Z" fill="white"/>
<path d="M560.371 212.784C560.371 212.974 562.076 213.125 564.161 213.125H595.846C597.93 213.125 599.636 212.974 599.636 212.784C599.636 212.595 597.93 212.443 595.846 212.443H564.161C562.076 212.443 560.371 212.595 560.371 212.784Z" fill="#D1D3D4"/>
<path d="M560.371 214.528C560.371 214.718 562.076 214.869 564.161 214.869H595.846C597.93 214.869 599.636 214.718 599.636 214.528C599.636 214.339 597.93 214.187 595.846 214.187H564.161C562.076 214.187 560.371 214.339 560.371 214.528Z" fill="#D1D3D4"/>
<path d="M560.295 216.233C560.295 216.423 562 216.574 564.085 216.574H595.77C597.855 216.574 599.56 216.423 599.56 216.233C599.56 216.044 597.855 215.892 595.77 215.892H564.085C562 215.892 560.295 216.044 560.295 216.233Z" fill="#D1D3D4"/>
<path d="M560.371 218.052C560.371 218.242 562.076 218.394 564.161 218.394H595.846C597.93 218.394 599.636 218.242 599.636 218.052C599.636 217.863 597.93 217.711 595.846 217.711H564.161C562.076 217.711 560.371 217.863 560.371 218.052Z" fill="#D1D3D4"/>
<path d="M614.076 220.364C614.076 220.554 612.37 220.705 610.286 220.705H578.563C576.478 220.705 574.773 220.554 574.773 220.364C574.773 220.175 576.478 220.023 578.563 220.023H610.248C612.37 220.023 614.076 220.175 614.076 220.364Z" fill="#D1D3D4"/>
<path d="M614.076 222.07C614.076 222.259 612.37 222.411 610.286 222.411H578.563C576.478 222.411 574.773 222.259 574.773 222.07C574.773 221.88 576.478 221.729 578.563 221.729H610.248C612.37 221.729 614.076 221.88 614.076 222.07Z" fill="#D1D3D4"/>
<path d="M614.152 223.813C614.152 224.002 612.446 224.154 610.362 224.154H578.677C576.592 224.154 574.887 224.002 574.887 223.813C574.887 223.623 576.592 223.472 578.677 223.472H610.362C612.446 223.472 614.152 223.623 614.152 223.813Z" fill="#D1D3D4"/>
<path d="M614.076 225.632C614.076 225.821 612.37 225.973 610.286 225.973H578.563C576.478 225.973 574.773 225.821 574.773 225.632C574.773 225.442 576.478 225.291 578.563 225.291H610.248C612.37 225.253 614.076 225.442 614.076 225.632Z" fill="#D1D3D4"/>
<path d="M549.872 201.606C553.535 201.606 556.505 198.925 556.505 195.618C556.505 192.311 553.535 189.63 549.872 189.63C546.209 189.63 543.24 192.311 543.24 195.618C543.24 198.925 546.209 201.606 549.872 201.606Z" fill="url(#paint28_linear)"/>
<path d="M549.683 221.463C552.509 221.463 554.799 219.393 554.799 216.84C554.799 214.286 552.509 212.216 549.683 212.216C546.857 212.216 544.566 214.286 544.566 216.84C544.566 219.393 546.857 221.463 549.683 221.463Z" fill="white"/>
<path d="M610.21 191.866C610.21 192.018 608.505 192.169 606.42 192.169H567.079C564.995 192.169 563.289 192.018 563.289 191.866C563.289 191.715 564.995 191.563 567.079 191.563H606.42C608.505 191.563 610.21 191.677 610.21 191.866Z" fill="white"/>
<path d="M610.096 193.723C610.096 193.875 608.391 194.026 606.306 194.026H566.965C564.881 194.026 563.175 193.875 563.175 193.723C563.175 193.572 564.881 193.42 566.965 193.42H606.306C608.391 193.42 610.096 193.572 610.096 193.723Z" fill="white"/>
<path d="M610.172 195.542C610.172 195.694 608.467 195.846 606.382 195.846H567.041C564.957 195.846 563.251 195.694 563.251 195.542C563.251 195.391 564.957 195.239 567.041 195.239H606.382C608.467 195.239 610.172 195.391 610.172 195.542Z" fill="white"/>
<path d="M610.172 197.399C610.172 197.55 608.467 197.702 606.382 197.702H567.041C564.957 197.702 563.251 197.55 563.251 197.399C563.251 197.247 564.957 197.096 567.041 197.096H606.382C608.467 197.096 610.172 197.247 610.172 197.399Z" fill="white"/>
<path d="M610.096 199.37C610.096 199.521 608.391 199.673 606.306 199.673H566.965C564.881 199.673 563.175 199.521 563.175 199.37C563.175 199.218 564.881 199.066 566.965 199.066H606.306C608.391 199.066 610.096 199.18 610.096 199.37Z" fill="white"/>
<path d="M259.439 273.343C259.439 275.427 257.734 277.133 255.649 277.133H193.492C191.407 277.133 189.702 275.427 189.702 273.343V177.655C189.702 175.571 191.407 173.865 193.492 173.865H255.649C257.734 173.865 259.439 175.571 259.439 177.655V273.343Z" fill="url(#paint29_linear)"/>
<path d="M257.43 188.38C257.43 190.464 255.725 192.169 253.64 192.169H196.297C194.212 192.169 192.507 190.464 192.507 188.38V184.249C192.507 182.165 194.212 180.459 196.297 180.459H253.64C255.725 180.459 257.43 182.165 257.43 184.249V188.38Z" fill="#F1F2F2"/>
<path d="M257.62 196.565C257.62 197.133 255.915 197.626 253.83 197.626H196.486C194.402 197.626 192.696 197.171 192.696 196.565C192.696 195.959 194.402 195.504 196.486 195.504H253.83C255.915 195.504 257.62 195.997 257.62 196.565Z" fill="white"/>
<path d="M257.62 202.25C257.62 202.818 255.915 203.311 253.83 203.311H196.486C194.402 203.311 192.696 202.856 192.696 202.25C192.696 201.643 194.402 201.188 196.486 201.188H253.83C255.915 201.188 257.62 201.681 257.62 202.25Z" fill="white"/>
<path d="M257.052 208.124C257.052 208.692 255.346 209.185 253.262 209.185H195.918C193.833 209.185 192.128 208.73 192.128 208.124C192.128 207.517 193.833 207.062 195.918 207.062H253.262C255.346 207.1 257.052 207.555 257.052 208.124Z" fill="white"/>
<path d="M279.716 245.944C279.716 246.816 281.422 247.536 283.506 247.536H474.071C476.155 247.536 477.861 246.816 477.861 245.944C477.861 245.073 476.155 244.353 474.071 244.353H283.506C281.422 244.353 279.716 245.073 279.716 245.944Z" fill="#F1F2F2"/>
<path d="M279.716 253.448C279.716 254.319 281.422 255.039 283.506 255.039H474.071C476.155 255.039 477.861 254.319 477.861 253.448C477.861 252.576 476.155 251.856 474.071 251.856H283.506C281.422 251.856 279.716 252.576 279.716 253.448Z" fill="#F1F2F2"/>
<path d="M279.716 261.709C279.716 262.58 281.422 263.3 283.506 263.3H474.071C476.155 263.3 477.861 262.58 477.861 261.709C477.861 260.837 476.155 260.117 474.071 260.117H283.506C281.422 260.117 279.716 260.837 279.716 261.709Z" fill="#F1F2F2"/>
<path d="M279.981 270.236C279.981 271.107 281.687 271.827 283.772 271.827H474.336C476.421 271.827 478.126 271.107 478.126 270.236C478.126 269.364 476.421 268.644 474.336 268.644H283.772C281.687 268.644 279.981 269.364 279.981 270.236Z" fill="#F1F2F2"/>
<path d="M194.288 269.136C194.288 271.221 195.993 272.926 198.078 272.926H218.999C221.084 272.926 222.789 271.221 222.789 269.136V216.953C222.789 214.869 221.084 213.164 218.999 213.164H198.078C195.993 213.164 194.288 214.869 194.288 216.953V269.136Z" fill="#F1F2F2"/>
<path d="M227.337 268.834C227.337 270.918 229.043 272.623 231.127 272.623H252.048C254.133 272.623 255.838 270.918 255.838 268.834V216.65C255.838 214.566 254.133 212.861 252.048 212.861H231.127C229.043 212.861 227.337 214.566 227.337 216.65V268.834Z" fill="#F1F2F2"/>
<path d="M272.288 296.498C272.288 298.582 273.993 300.288 276.078 300.288H397.17C399.255 300.288 400.96 298.582 400.96 296.498V290.435C400.96 288.35 399.255 286.645 397.17 286.645H276.078C273.993 286.645 272.288 288.35 272.288 290.435V296.498Z" fill="#F1F2F2"/>
<path d="M272.288 313.4C272.288 315.484 273.993 317.19 276.078 317.19H397.17C399.255 317.19 400.96 315.484 400.96 313.4V307.337C400.96 305.252 399.255 303.547 397.17 303.547H276.078C273.993 303.547 272.288 305.252 272.288 307.337V313.4Z" fill="#F1F2F2"/>
<path d="M272.288 322.609C272.288 323.366 273.993 323.973 276.078 323.973H397.17C399.255 323.973 400.96 323.366 400.96 322.609C400.96 321.851 399.255 321.244 397.17 321.244H276.078C273.993 321.206 272.288 321.851 272.288 322.609Z" fill="#F1F2F2"/>
<path d="M272.288 329.203C272.288 329.961 273.993 330.567 276.078 330.567H397.17C399.255 330.567 400.96 329.961 400.96 329.203C400.96 328.445 399.255 327.838 397.17 327.838H276.078C273.993 327.838 272.288 328.445 272.288 329.203Z" fill="#F1F2F2"/>
<path d="M272.288 337.123C272.288 337.881 273.993 338.487 276.078 338.487H397.17C399.255 338.487 400.96 337.881 400.96 337.123C400.96 336.365 399.255 335.758 397.17 335.758H276.078C273.993 335.721 272.288 336.365 272.288 337.123Z" fill="#F1F2F2"/>
<path d="M404.182 337.653C404.182 339.738 405.887 341.443 407.972 341.443H428.893C430.978 341.443 432.683 339.738 432.683 337.653V289.828C432.683 287.744 430.978 286.039 428.893 286.039H407.972C405.887 286.039 404.182 287.744 404.182 289.828V337.653V337.653Z" fill="#F1F2F2"/>
<path d="M501.966 151.658V158.631H178.483V151.658C178.483 150.066 178.938 148.475 179.848 146.997C180.757 145.519 182.084 144.154 183.752 143.055C185.419 141.919 187.428 141.009 189.626 140.403C191.824 139.796 194.174 139.493 196.524 139.493H483.925C486.313 139.493 488.625 139.796 490.823 140.403C493.021 141.009 494.992 141.919 496.66 143.055C498.327 144.192 499.654 145.519 500.563 146.997C501.473 148.475 501.966 150.066 501.966 151.658Z" fill="#7C7D80"/>
<path d="M198.722 153.25C200.732 153.25 202.361 151.621 202.361 149.612C202.361 147.602 200.732 145.974 198.722 145.974C196.713 145.974 195.084 147.602 195.084 149.612C195.084 151.621 196.713 153.25 198.722 153.25Z" fill="url(#paint30_linear)"/>
<path d="M210.737 153.174C212.746 153.174 214.375 151.545 214.375 149.536C214.375 147.527 212.746 145.898 210.737 145.898C208.727 145.898 207.098 147.527 207.098 149.536C207.098 151.545 208.727 153.174 210.737 153.174Z" fill="url(#paint31_linear)"/>
<path d="M222.676 153.174C224.685 153.174 226.314 151.545 226.314 149.536C226.314 147.527 224.685 145.898 222.676 145.898C220.666 145.898 219.037 147.527 219.037 149.536C219.037 151.545 220.666 153.174 222.676 153.174Z" fill="url(#paint32_linear)"/>
<path d="M491.581 149.725C491.581 148.702 490.747 147.906 489.686 147.906H255.422C254.36 147.906 253.527 148.74 253.527 149.725C253.527 150.711 254.36 151.544 255.422 151.544H489.686C490.709 151.582 491.581 150.748 491.581 149.725Z" fill="#D1D3D4"/>
</g>
<defs>
<filter id="filter0_d" x="-5" y="-25" width="700" height="550" filterUnits="userSpaceOnUse" color-interpolation-filters="sRGB">
<feFlood flood-opacity="0" result="BackgroundImageFix"/>
<feColorMatrix in="SourceAlpha" type="matrix" values="0 0 0 0 0 0 0 0 0 0 0 0 0 0 0 0 0 0 127 0" result="hardAlpha"/>
<feOffset dy="25"/>
<feGaussianBlur stdDeviation="25"/>
<feColorMatrix type="matrix" values="0 0 0 0 0 0 0 0 0 0 0 0 0 0 0 0 0 0 0.25 0"/>
<feBlend mode="normal" in2="BackgroundImageFix" result="effect1_dropShadow"/>
<feBlend mode="normal" in="SourceGraphic" in2="effect1_dropShadow" result="shape"/>
</filter>
<linearGradient id="paint0_linear" x1="570.129" y1="245.048" x2="584.107" y2="245.048" gradientUnits="userSpaceOnUse">
<stop stop-color="white"/>
<stop offset="1" stop-color="#A5A6A6"/>
</linearGradient>
<linearGradient id="paint1_linear" x1="577.057" y1="247.731" x2="577.129" y2="257.1" gradientUnits="userSpaceOnUse">
<stop stop-color="white"/>
<stop offset="1" stop-color="#494A4B"/>
</linearGradient>
<linearGradient id="paint2_linear" x1="576.821" y1="232.106" x2="577.079" y2="239.243" gradientUnits="userSpaceOnUse">
<stop stop-color="white"/>
<stop offset="1" stop-color="#979899"/>
</linearGradient>
<linearGradient id="paint3_linear" x1="576.809" y1="213.141" x2="577.127" y2="234.775" gradientUnits="userSpaceOnUse">
<stop stop-color="white"/>
<stop offset="1" stop-color="#ABABAB"/>
</linearGradient>
<linearGradient id="paint4_linear" x1="576.008" y1="228.353" x2="578.381" y2="185.987" gradientUnits="userSpaceOnUse">
<stop stop-color="#7DD3F7"/>
<stop offset="1" stop-color="#43B5E8"/>
</linearGradient>
<linearGradient id="paint5_linear" x1="529.881" y1="94.1271" x2="529.862" y2="89.6933" gradientUnits="userSpaceOnUse">
<stop stop-color="white"/>
<stop offset="1" stop-color="#43B5E8"/>
</linearGradient>
<linearGradient id="paint6_linear" x1="524.458" y1="164.787" x2="539.55" y2="94.3533" gradientUnits="userSpaceOnUse">
<stop stop-color="#7DD3F7"/>
<stop offset="1" stop-color="#43B5E8"/>
</linearGradient>
<linearGradient id="paint7_linear" x1="194.662" y1="72.0102" x2="194.646" y2="68.3311" gradientUnits="userSpaceOnUse">
<stop stop-color="white"/>
<stop offset="1" stop-color="#43B5E8"/>
</linearGradient>
<linearGradient id="paint8_linear" x1="190.162" y1="130.642" x2="202.685" y2="72.1975" gradientUnits="userSpaceOnUse">
<stop stop-color="#7DD3F7"/>
<stop offset="1" stop-color="#43B5E8"/>
</linearGradient>
<linearGradient id="paint9_linear" x1="117.891" y1="160.958" x2="120.965" y2="110.967" gradientUnits="userSpaceOnUse">
<stop stop-color="#7DD3F7"/>
<stop offset="1" stop-color="#43B5E8"/>
</linearGradient>
<linearGradient id="paint10_linear" x1="204.781" y1="85.5" x2="244.896" y2="85.5" gradientUnits="userSpaceOnUse">
<stop stop-color="#71459B"/>
<stop offset="0.8668" stop-color="#A76CAD"/>
</linearGradient>
<linearGradient id="paint11_linear" x1="183.647" y1="112.281" x2="202.656" y2="112.281" gradientUnits="userSpaceOnUse">
<stop stop-color="#71459B"/>
<stop offset="0.8668" stop-color="#A76CAD"/>
</linearGradient>
<linearGradient id="paint12_linear" x1="516.932" y1="124.31" x2="535.941" y2="124.31" gradientUnits="userSpaceOnUse">
<stop stop-color="#71459B"/>
<stop offset="0.8668" stop-color="#A76CAD"/>
</linearGradient>
<linearGradient id="paint13_linear" x1="516.799" y1="146.775" x2="535.808" y2="146.775" gradientUnits="userSpaceOnUse">
<stop stop-color="#71459B"/>
<stop offset="0.8668" stop-color="#A76CAD"/>
</linearGradient>
<linearGradient id="paint14_linear" x1="514.453" y1="338.198" x2="520.729" y2="338.198" gradientUnits="userSpaceOnUse">
<stop stop-color="#71459B"/>
<stop offset="0.8668" stop-color="#A76CAD"/>
</linearGradient>
<linearGradient id="paint15_linear" x1="130.727" y1="297.855" x2="136.701" y2="297.855" gradientUnits="userSpaceOnUse">
<stop stop-color="#71459B"/>
<stop offset="0.8668" stop-color="#A76CAD"/>
</linearGradient>
<linearGradient id="paint16_linear" x1="135.468" y1="297.77" x2="141.107" y2="297.77" gradientUnits="userSpaceOnUse">
<stop stop-color="#71459B"/>
<stop offset="0.8668" stop-color="#A76CAD"/>
</linearGradient>
<linearGradient id="paint17_linear" x1="87.8927" y1="294.34" x2="98.6283" y2="294.34" gradientUnits="userSpaceOnUse">
<stop stop-color="#71459B"/>
<stop offset="0.8668" stop-color="#A76CAD"/>
</linearGradient>
<linearGradient id="paint18_linear" x1="190.675" y1="313.774" x2="259.689" y2="313.774" gradientUnits="userSpaceOnUse">
<stop stop-color="#7DD3F7"/>
<stop offset="1" stop-color="#43B5E8"/>
</linearGradient>
<linearGradient id="paint19_linear" x1="486.079" y1="296.908" x2="438.324" y2="296.908" gradientUnits="userSpaceOnUse">
<stop stop-color="#71459B"/>
<stop offset="0.8668" stop-color="#A76CAD"/>
</linearGradient>
<linearGradient id="paint20_linear" x1="487.063" y1="329.549" x2="438.611" y2="329.549" gradientUnits="userSpaceOnUse">
<stop stop-color="#71459B"/>
<stop offset="0.8668" stop-color="#A76CAD"/>
</linearGradient>
<linearGradient id="paint21_linear" x1="269.549" y1="258.271" x2="484.873" y2="258.271" gradientUnits="userSpaceOnUse">
<stop stop-color="#7DD3F7"/>
<stop offset="1" stop-color="#43B5E8"/>
</linearGradient>
<linearGradient id="paint22_linear" x1="100.936" y1="121.586" x2="157.056" y2="121.586" gradientUnits="userSpaceOnUse">
<stop stop-color="#71459B"/>
<stop offset="0.8668" stop-color="#A76CAD"/>
</linearGradient>
<linearGradient id="paint23_linear" x1="158.86" y1="145.731" x2="145.085" y2="145.731" gradientUnits="userSpaceOnUse">
<stop stop-color="#7DD3F7"/>
<stop offset="1" stop-color="#43B5E8"/>
</linearGradient>
<linearGradient id="paint24_linear" x1="100.682" y1="154.986" x2="114.456" y2="154.986" gradientUnits="userSpaceOnUse">
<stop stop-color="#71459B"/>
<stop offset="0.8668" stop-color="#A76CAD"/>
</linearGradient>
<linearGradient id="paint25_linear" x1="560.543" y1="195.748" x2="612.473" y2="195.748" gradientUnits="userSpaceOnUse">
<stop stop-color="#7DD3F7"/>
<stop offset="1" stop-color="#43B5E8"/>
</linearGradient>
<linearGradient id="paint26_linear" x1="541.448" y1="219.264" x2="558.104" y2="219.264" gradientUnits="userSpaceOnUse">
<stop stop-color="#71459B"/>
<stop offset="0.8668" stop-color="#A76CAD"/>
</linearGradient>
<linearGradient id="paint27_linear" x1="614.143" y1="215.483" x2="601.396" y2="215.483" gradientUnits="userSpaceOnUse">
<stop stop-color="#71459B"/>
<stop offset="0.8668" stop-color="#A76CAD"/>
</linearGradient>
<linearGradient id="paint28_linear" x1="543.229" y1="195.62" x2="556.519" y2="195.62" gradientUnits="userSpaceOnUse">
<stop stop-color="#71459B"/>
<stop offset="0.8668" stop-color="#A76CAD"/>
</linearGradient>
<linearGradient id="paint29_linear" x1="189.678" y1="225.492" x2="259.422" y2="225.492" gradientUnits="userSpaceOnUse">
<stop stop-color="#71459B"/>
<stop offset="0.8668" stop-color="#A76CAD"/>
</linearGradient>
<linearGradient id="paint30_linear" x1="195.076" y1="149.602" x2="202.338" y2="149.602" gradientUnits="userSpaceOnUse">
<stop stop-color="#7DD3F7"/>
<stop offset="1" stop-color="#43B5E8"/>
</linearGradient>
<linearGradient id="paint31_linear" x1="207.098" y1="149.52" x2="214.36" y2="149.52" gradientUnits="userSpaceOnUse">
<stop stop-color="#7DD3F7"/>
<stop offset="1" stop-color="#43B5E8"/>
</linearGradient>
<linearGradient id="paint32_linear" x1="219.038" y1="149.52" x2="226.3" y2="149.52" gradientUnits="userSpaceOnUse">
<stop stop-color="#7DD3F7"/>
<stop offset="1" stop-color="#43B5E8"/>
</linearGradient>
</defs>
</svg>
