<svg width="768" height="491" viewBox="0 0 768 491" fill="none" xmlns="http://www.w3.org/2000/svg">
<g filter="url(#filter0_d)">
<path d="M390.728 429.977C582.148 429.977 737.325 415.912 737.325 398.562C737.325 381.212 582.148 367.147 390.728 367.147C199.308 367.147 44.1309 381.212 44.1309 398.562C44.1309 415.912 199.308 429.977 390.728 429.977Z" fill="#8ED8F8"/>
<path d="M276.181 137.332C276.181 137.332 265.321 106.144 227.381 97.3242" stroke="#808285" stroke-miterlimit="10" stroke-dasharray="6 6"/>
<path d="M179.943 211.937C179.943 211.937 142.003 211.937 130.462 185.478" stroke="#808285" stroke-miterlimit="10" stroke-dasharray="6 6"/>
<path d="M181.307 271.584C181.307 271.584 148.773 287.86 127.1 272.266" stroke="#808285" stroke-miterlimit="10" stroke-dasharray="6 6"/>
<path d="M177.217 285.178C177.217 285.178 132.461 287.906 108.743 319.775" stroke="#808285" stroke-miterlimit="10" stroke-dasharray="6 6"/>
<path d="M518.862 132.558C518.862 132.558 515.454 70.8651 579.885 86.4589" stroke="#808285" stroke-miterlimit="10" stroke-dasharray="6 6"/>
<path d="M575.113 195.661C575.113 195.661 594.788 193.616 605.602 206.527" stroke="#808285" stroke-miterlimit="10" stroke-dasharray="6 6"/>
<path d="M574.432 253.308C574.432 253.308 597.468 259.4 609.691 285.859" stroke="#808285" stroke-miterlimit="10" stroke-dasharray="6 6"/>
<path d="M572.388 357.736C572.388 357.736 615.781 350.962 613.054 369.283" stroke="#808285" stroke-miterlimit="10" stroke-dasharray="6 6"/>
<path d="M571.751 403.245C571.751 405.745 569.707 407.791 567.208 407.791H188.486C185.987 407.791 183.942 405.745 183.942 403.245V162.746C183.942 160.245 185.987 158.199 188.486 158.199H567.253C569.752 158.199 571.797 160.245 571.797 162.746V403.245H571.751Z" fill="#7C7D80"/>
<path d="M670.306 282.495H653.539L655.311 280.267C656.674 278.585 657.401 276.494 657.401 274.312V258.718H666.398V274.312C666.398 276.494 667.125 278.585 668.488 280.267L670.306 282.495Z" fill="#E6E7E8"/>
<path d="M670.306 282.495H653.539V283.904H670.306V282.495Z" fill="url(#paint0_linear)"/>
<path d="M666.443 260.491V272.63L657.446 269.311V260.491H666.443Z" fill="url(#paint1_linear)"/>
<path d="M710.063 200.48V252.626H613.826V200.48C613.826 200.298 613.872 200.162 613.917 199.98C614.008 199.707 614.19 199.48 614.462 199.298C614.689 199.116 615.008 199.025 615.28 199.025H708.654C708.836 199.025 709.018 199.071 709.199 199.116C709.381 199.162 709.518 199.298 709.654 199.435C709.79 199.571 709.881 199.707 709.972 199.889C710.017 200.116 710.063 200.298 710.063 200.48Z" fill="#231F20"/>
<path d="M613.826 252.672H710.063V262.31C710.063 262.992 709.79 263.583 709.336 264.083C708.881 264.538 708.245 264.811 707.564 264.811H616.325C615.644 264.811 615.053 264.538 614.553 264.083C614.099 263.628 613.826 262.992 613.826 262.31V252.672Z" fill="#E6E7E8"/>
<path d="M707.837 203.571C707.837 202.298 706.837 201.298 705.565 201.298H618.371C617.098 201.298 616.099 202.298 616.099 203.571V248.352C616.099 249.625 617.098 250.625 618.371 250.625H705.565C706.837 250.625 707.837 249.58 707.837 248.352V203.571Z" fill="url(#paint2_linear)"/>
<path d="M664.353 259.309C664.671 257.991 663.853 256.672 662.536 256.354C661.218 256.036 659.9 256.854 659.582 258.172C659.264 259.491 660.082 260.809 661.4 261.127C662.718 261.446 664.035 260.627 664.353 259.309Z" fill="#231F20"/>
<path d="M615.917 90.959H594.697V97.051H615.917V90.959Z" fill="url(#paint3_linear)"/>
<path d="M625.504 89.5498H589.653C589.108 89.5498 588.518 89.6407 588.018 89.8681C587.472 90.0954 587.018 90.4136 586.609 90.8228C586.2 91.2319 585.882 91.6866 585.655 92.2321C585.428 92.7777 585.337 93.3232 585.337 93.8688V173.247C585.337 174.384 585.791 175.475 586.609 176.293C587.427 177.111 588.518 177.566 589.653 177.566H625.504C626.049 177.566 626.64 177.475 627.139 177.248C627.685 177.021 628.139 176.702 628.548 176.293C628.957 175.884 629.275 175.429 629.502 174.884C629.729 174.338 629.82 173.793 629.82 173.247V93.8688C629.82 93.2778 629.729 92.7322 629.502 92.2321C629.275 91.6866 628.957 91.2319 628.548 90.8228C628.139 90.4136 627.685 90.0954 627.139 89.8681C626.594 89.6407 626.049 89.5498 625.504 89.5498ZM601.513 91.823C601.513 91.732 601.558 91.6411 601.604 91.5956C601.649 91.5502 601.649 91.5502 601.694 91.5047C601.74 91.5047 601.785 91.4593 601.831 91.4593H611.645C611.691 91.4593 611.736 91.4593 611.782 91.5047C611.827 91.5047 611.872 91.5502 611.872 91.5956C611.918 91.6411 611.918 91.6411 611.963 91.6866C611.963 91.732 612.009 91.7775 612.009 91.823C612.009 91.9139 611.963 92.0048 611.918 92.0503C611.872 92.0957 611.782 92.1412 611.691 92.1412H601.876C601.831 92.1412 601.785 92.1412 601.74 92.0957C601.694 92.0957 601.649 92.0503 601.649 92.0048C601.604 91.9593 601.604 91.9593 601.558 91.9139C601.513 91.9139 601.513 91.8684 601.513 91.823ZM612.963 91.823C612.963 91.7775 612.963 91.6866 613.008 91.6411C613.054 91.5956 613.099 91.5502 613.145 91.5047C613.19 91.4593 613.281 91.4593 613.326 91.5047C613.372 91.5047 613.463 91.5502 613.508 91.5956C613.554 91.6411 613.599 91.6866 613.599 91.7775C613.599 91.823 613.599 91.9139 613.599 91.9593C613.554 92.0048 613.554 92.0503 613.463 92.0957C613.417 92.1412 613.326 92.1412 613.281 92.1412C613.19 92.1412 613.099 92.0957 613.054 92.0503C613.008 92.0048 612.963 91.9139 612.963 91.823Z" fill="#231F20"/>
<path d="M617.916 90.8682C616.507 92.914 614.053 94.1415 611.418 94.1415H603.739C601.104 94.1415 598.65 92.914 597.242 90.8682H589.154C588.881 90.8682 588.563 90.9136 588.29 91.05C588.018 91.1409 587.791 91.3228 587.563 91.5501C587.336 91.7774 587.2 92.0047 587.064 92.2775C586.973 92.5503 586.882 92.8231 586.882 93.1413V173.747C586.882 174.02 586.927 174.338 587.064 174.611C587.154 174.884 587.336 175.111 587.563 175.338C587.791 175.566 588.018 175.702 588.29 175.838C588.563 175.929 588.836 176.02 589.154 176.02H626.003C626.594 176.02 627.185 175.793 627.594 175.338C628.003 174.929 628.275 174.338 628.275 173.747V93.1413C628.275 92.8231 628.23 92.5503 628.094 92.2775C628.003 92.0047 627.821 91.7774 627.594 91.5501C627.367 91.3228 627.139 91.1864 626.867 91.05C626.594 90.9591 626.322 90.8682 626.003 90.8682H617.916Z" fill="url(#paint4_linear)"/>
<path d="M597.241 90.8682C597.287 90.9136 597.287 90.9591 597.332 90.9591C597.378 91.0046 597.423 91.0955 597.468 91.1409C597.514 91.1864 597.559 91.2773 597.605 91.3228C597.65 91.3683 597.696 91.4137 597.741 91.5046C597.786 91.5501 597.832 91.641 597.877 91.6865C597.923 91.732 597.968 91.7774 598.014 91.8683C598.059 91.9138 598.105 91.9593 598.195 92.0502C598.286 92.1411 598.423 92.2321 598.513 92.3684C598.559 92.4139 598.65 92.4594 598.695 92.5048L598.877 92.6412C598.922 92.6867 599.013 92.7321 599.059 92.7776C599.104 92.8231 599.195 92.8685 599.24 92.914C599.286 92.9595 599.377 93.0049 599.422 93.0504C599.558 93.1413 599.695 93.1868 599.831 93.2777C599.877 93.3232 599.967 93.3686 600.058 93.3686C600.104 93.4141 600.195 93.4141 600.286 93.4596C600.376 93.505 600.422 93.505 600.513 93.5505C600.649 93.5959 600.785 93.6869 600.967 93.7323C601.058 93.7778 601.103 93.7778 601.194 93.8233C601.285 93.8687 601.421 93.8687 601.512 93.9142H601.558C601.649 93.9596 601.785 93.9596 601.876 94.0051C601.967 94.0051 602.012 94.0506 602.103 94.0506C602.194 94.0506 602.239 94.096 602.33 94.096C602.376 94.096 602.376 94.096 602.421 94.096C602.466 94.096 602.512 94.096 602.557 94.096C602.603 94.096 602.648 94.096 602.694 94.096H602.875C602.921 94.096 603.012 94.096 603.057 94.096C603.193 94.096 603.33 94.096 603.466 94.1415C603.557 94.1415 603.693 94.1415 603.784 94.1415H611.463C611.554 94.1415 611.645 94.1415 611.736 94.1415C611.872 94.1415 612.008 94.1415 612.099 94.1415C612.19 94.1415 612.281 94.1415 612.372 94.096C612.417 94.096 612.463 94.096 612.508 94.096C612.554 94.096 612.645 94.096 612.69 94.0506C612.781 94.0506 612.872 94.0051 613.008 94.0051C613.099 94.0051 613.19 93.9596 613.281 93.9596C613.371 93.9596 613.462 93.9142 613.599 93.8687C613.69 93.8233 613.78 93.8233 613.871 93.7778C613.962 93.7323 614.098 93.7323 614.189 93.6869C614.28 93.6414 614.326 93.6414 614.417 93.5959C614.462 93.5505 614.553 93.5505 614.598 93.505C614.78 93.4141 614.962 93.3232 615.144 93.2322C615.234 93.1868 615.28 93.1413 615.371 93.1413C615.416 93.0958 615.507 93.0504 615.552 93.0504C615.598 93.0049 615.689 92.9595 615.734 92.914C615.78 92.8685 615.871 92.8231 615.916 92.7776C615.961 92.7321 616.052 92.6867 616.098 92.6412C616.143 92.5958 616.234 92.5503 616.279 92.5048C616.37 92.4139 616.461 92.3684 616.552 92.2775C616.643 92.1866 616.734 92.1411 616.825 92.0502C616.87 92.0047 616.916 91.9593 616.961 91.9138C617.006 91.8684 617.097 91.7774 617.143 91.732C617.188 91.6865 617.279 91.5956 617.325 91.5501C617.37 91.5046 617.415 91.4592 617.461 91.4137C617.506 91.3683 617.552 91.2773 617.643 91.2319C617.733 91.0955 617.824 91.0046 617.915 90.8682H597.241ZM611.872 92.0502C611.827 92.0957 611.827 92.0957 611.781 92.1411C611.736 92.1411 611.69 92.1866 611.645 92.1866H601.83C601.785 92.1866 601.739 92.1866 601.694 92.1411C601.649 92.1411 601.603 92.0957 601.603 92.0502C601.558 92.0047 601.558 92.0047 601.512 91.9593C601.467 91.9138 601.467 91.8683 601.467 91.8229C601.467 91.732 601.512 91.641 601.558 91.5956C601.603 91.5501 601.603 91.5501 601.649 91.5046C601.694 91.5046 601.74 91.4592 601.785 91.4592H611.599C611.69 91.4592 611.781 91.5046 611.827 91.5501C611.872 91.5956 611.917 91.6865 611.917 91.7774C611.917 91.8229 611.918 91.8684 611.872 91.9138C611.827 91.9593 611.918 92.0502 611.872 92.0502ZM613.281 92.1411C613.235 92.1411 613.144 92.1411 613.099 92.0957C613.053 92.0502 613.008 92.0047 612.963 91.9593C612.917 91.9138 612.917 91.8229 612.963 91.7774C612.963 91.732 613.008 91.641 613.053 91.5956C613.099 91.5501 613.144 91.5046 613.235 91.5046C613.281 91.5046 613.372 91.5046 613.417 91.5046C613.462 91.5501 613.508 91.5501 613.553 91.641C613.599 91.6865 613.599 91.7774 613.599 91.8229C613.599 91.8683 613.599 91.9138 613.553 91.9593C613.553 92.0047 613.508 92.0502 613.462 92.0502C613.417 92.0957 613.417 92.0957 613.372 92.1411C613.372 92.1411 613.326 92.1411 613.281 92.1411Z" fill="#231F20"/>
<path d="M212.25 64.1826H194.62V69.2745H212.25V64.1826Z" fill="url(#paint5_linear)"/>
<path d="M220.156 63H190.394C189.94 63 189.44 63.0909 189.031 63.2728C188.577 63.4546 188.213 63.7274 187.85 64.0456C187.532 64.3639 187.259 64.7731 187.077 65.2277C186.896 65.6823 186.805 66.1369 186.805 66.5916V132.467C186.805 133.422 187.168 134.331 187.85 135.013C188.531 135.695 189.44 136.059 190.394 136.059H220.156C220.61 136.059 221.11 135.968 221.519 135.786C221.973 135.604 222.337 135.332 222.7 135.013C223.018 134.695 223.291 134.286 223.473 133.831C223.654 133.377 223.745 132.922 223.745 132.467V66.5916C223.745 66.1369 223.654 65.6369 223.473 65.2277C223.291 64.7731 223.018 64.4094 222.7 64.0456C222.382 63.7274 221.973 63.4546 221.519 63.2728C221.11 63.0909 220.656 63 220.156 63ZM200.3 64.9094C200.3 64.8185 200.345 64.7731 200.39 64.7276C200.436 64.6821 200.436 64.6821 200.481 64.6821C200.527 64.6821 200.527 64.6821 200.572 64.6821H208.706C208.751 64.6821 208.796 64.6821 208.796 64.6821C208.842 64.6821 208.842 64.7276 208.887 64.7276C208.933 64.7731 208.933 64.7731 208.933 64.8185C208.933 64.864 208.933 64.864 208.933 64.9094C208.933 65.0004 208.887 65.0458 208.842 65.0913C208.796 65.1368 208.706 65.1822 208.66 65.1822H200.527C200.481 65.1822 200.436 65.1822 200.436 65.1822C200.39 65.1822 200.39 65.1368 200.345 65.1368C200.3 65.0913 200.3 65.0913 200.3 65.0458C200.3 65.0004 200.3 64.9549 200.3 64.9094ZM209.796 64.9094C209.796 64.864 209.796 64.8185 209.841 64.7731C209.887 64.7276 209.932 64.6821 209.978 64.6821C210.023 64.6821 210.069 64.6367 210.114 64.6821C210.16 64.6821 210.205 64.7276 210.25 64.7731C210.296 64.8185 210.296 64.864 210.341 64.9094C210.341 64.9549 210.341 65.0004 210.341 65.0458C210.341 65.0913 210.296 65.1368 210.25 65.1822C210.205 65.2277 210.16 65.2277 210.114 65.2277C210.023 65.2277 209.978 65.1822 209.932 65.1368C209.796 65.0458 209.796 65.0004 209.796 64.9094Z" fill="#231F20"/>
<path d="M213.885 64.0908C212.704 65.773 210.659 66.8186 208.478 66.8186H202.117C199.936 66.8186 197.891 65.773 196.71 64.0908H189.985C189.758 64.0908 189.485 64.1363 189.258 64.2272C189.031 64.3181 188.804 64.4545 188.667 64.6364C188.486 64.8182 188.349 65.0001 188.258 65.2274C188.168 65.4547 188.122 65.682 188.122 65.9548V132.876C188.122 133.104 188.168 133.376 188.258 133.604C188.349 133.831 188.486 134.058 188.667 134.195C188.849 134.377 189.031 134.513 189.258 134.604C189.485 134.695 189.712 134.74 189.985 134.74H220.564C221.064 134.74 221.519 134.558 221.882 134.195C222.246 133.831 222.427 133.376 222.427 132.876V66.0003C222.427 65.7729 222.382 65.5002 222.291 65.2729C222.2 65.0455 222.064 64.8182 221.882 64.6818C221.7 64.5 221.519 64.3636 221.291 64.2727C221.064 64.1817 220.837 64.1363 220.564 64.1363H213.885V64.0908Z" fill="url(#paint6_linear)"/>
<path d="M196.71 64.0908C196.71 64.1363 196.755 64.1363 196.755 64.1817C196.801 64.2272 196.846 64.2727 196.892 64.3636C196.937 64.4091 196.983 64.4545 196.983 64.5C197.028 64.5455 197.073 64.5909 197.119 64.6364C197.164 64.6818 197.21 64.7273 197.255 64.7728C197.301 64.8182 197.346 64.8637 197.392 64.9092C197.437 64.9546 197.482 65.0001 197.528 65.0455C197.619 65.1365 197.71 65.2274 197.8 65.3183C197.846 65.3638 197.891 65.4092 197.937 65.4547L198.073 65.5911C198.119 65.6366 198.164 65.682 198.209 65.682C198.255 65.7275 198.3 65.7729 198.391 65.7729C198.437 65.8184 198.482 65.8184 198.573 65.8639C198.664 65.9093 198.8 66.0003 198.891 66.0457C198.936 66.0912 198.982 66.0912 199.073 66.1367C199.118 66.1821 199.209 66.1821 199.254 66.2276C199.3 66.273 199.391 66.273 199.436 66.3185C199.573 66.364 199.663 66.4094 199.8 66.4549C199.845 66.4549 199.936 66.5004 199.981 66.5004C200.072 66.5458 200.163 66.5458 200.254 66.5913H200.3C200.39 66.6367 200.481 66.6367 200.572 66.6822C200.618 66.6822 200.708 66.7277 200.754 66.7277C200.799 66.7277 200.89 66.7731 200.936 66.7731C200.981 66.7731 200.981 66.7731 201.027 66.7731C201.072 66.7731 201.117 66.7731 201.117 66.7731C201.163 66.7731 201.163 66.7731 201.208 66.7731H201.345C201.39 66.7731 201.435 66.7731 201.481 66.7731C201.572 66.7731 201.708 66.7731 201.799 66.7731C201.89 66.7731 201.981 66.7731 202.072 66.7731H208.433C208.524 66.7731 208.615 66.7731 208.66 66.7731C208.751 66.7731 208.887 66.7731 208.978 66.7731C209.069 66.7731 209.114 66.7731 209.205 66.7731C209.251 66.7731 209.251 66.7731 209.296 66.7731C209.342 66.7731 209.387 66.7731 209.432 66.7731C209.523 66.7731 209.614 66.7277 209.66 66.7277C209.751 66.7277 209.796 66.6822 209.887 66.6822C209.978 66.6822 210.069 66.6367 210.159 66.6367C210.25 66.6367 210.341 66.5913 210.387 66.5913C210.478 66.5458 210.568 66.5458 210.659 66.5004C210.705 66.4549 210.796 66.4549 210.841 66.4094C210.886 66.4094 210.932 66.364 211.023 66.364C211.159 66.3185 211.341 66.2276 211.477 66.1367C211.523 66.0912 211.613 66.0912 211.659 66.0457C211.704 66.0003 211.75 66.0003 211.841 65.9548C211.886 65.9093 211.932 65.9093 212.022 65.8639C212.068 65.8184 212.113 65.7729 212.204 65.7729C212.25 65.7275 212.295 65.7275 212.34 65.682C212.386 65.6366 212.431 65.5911 212.477 65.5911C212.568 65.5456 212.613 65.4547 212.704 65.4092C212.795 65.3638 212.84 65.2729 212.931 65.2274C212.977 65.1819 213.022 65.1365 213.067 65.1365C213.113 65.091 213.158 65.0455 213.204 65.0001C213.249 64.9546 213.295 64.9092 213.34 64.8637C213.385 64.8182 213.431 64.7728 213.431 64.7273C213.476 64.6818 213.522 64.6364 213.567 64.5455C213.658 64.4545 213.704 64.3636 213.794 64.2272L196.71 64.0908ZM208.887 65.091C208.842 65.1365 208.842 65.1365 208.796 65.1365C208.751 65.1365 208.751 65.1365 208.705 65.1365H200.572C200.527 65.1365 200.481 65.1365 200.481 65.1365C200.436 65.1365 200.436 65.091 200.39 65.091C200.345 65.0455 200.345 65.0455 200.345 65.0001C200.345 64.9546 200.345 64.9546 200.345 64.9092C200.345 64.8182 200.39 64.7728 200.436 64.7273C200.481 64.6818 200.481 64.6818 200.527 64.6818C200.572 64.6818 200.572 64.6818 200.618 64.6818H208.751C208.842 64.6818 208.887 64.7273 208.933 64.7728C208.978 64.8182 209.024 64.9092 209.024 64.9546C209.024 65.0001 209.024 65.0455 209.024 65.0455C208.933 65.0455 208.887 65.091 208.887 65.091ZM210.023 65.1819C209.978 65.1819 209.932 65.1819 209.887 65.1365C209.841 65.091 209.796 65.0455 209.796 65.0001C209.796 64.9546 209.751 64.9092 209.796 64.8637C209.796 64.8182 209.841 64.7728 209.887 64.7273C209.932 64.6818 209.978 64.6818 210.023 64.6364C210.069 64.6364 210.114 64.6364 210.159 64.6364C210.205 64.6364 210.25 64.6818 210.296 64.7273C210.341 64.7728 210.341 64.8182 210.341 64.8637C210.341 64.9092 210.341 64.9546 210.341 64.9546C210.341 65.0001 210.296 65.0001 210.296 65.0455C210.25 65.091 210.25 65.091 210.205 65.091C210.114 65.1819 210.069 65.1819 210.023 65.1819Z" fill="#231F20"/>
<path d="M67.3497 108.19H159.043C160.815 108.19 162.496 108.872 163.768 110.145C165.04 111.418 165.722 113.1 165.722 114.873V175.794H60.6704V114.873C60.6704 113.1 61.352 111.418 62.6242 110.145C63.851 108.872 65.5777 108.19 67.3497 108.19Z" fill="#231F20"/>
<path d="M162.677 116.01C162.677 113.51 160.633 111.464 158.134 111.464H68.2127C65.7136 111.464 63.6689 113.51 63.6689 116.01V165.383C63.6689 167.883 65.7136 169.929 68.2127 169.929H158.134C160.633 169.929 162.677 167.883 162.677 165.383V116.01Z" fill="url(#paint7_linear)"/>
<path opacity="0.85" d="M165.676 173.248H60.6704V175.794H165.676V173.248Z" fill="white"/>
<path d="M58.035 180.386H168.312C169.539 180.386 170.675 179.886 171.538 179.022C172.401 178.158 172.901 176.976 172.901 175.794H53.4458C53.4458 177.021 53.9456 178.158 54.8089 179.022C55.6722 179.886 56.8082 180.386 58.035 180.386Z" fill="#E6E7E8"/>
<path d="M120.102 177.748H106.153C105.653 177.748 105.153 177.521 104.744 177.157C104.381 176.794 104.154 176.294 104.154 175.748H122.056C122.056 176.021 122.011 176.248 121.92 176.521C121.829 176.794 121.693 176.976 121.511 177.157C121.329 177.339 121.102 177.476 120.875 177.567C120.602 177.703 120.33 177.748 120.102 177.748Z" fill="#676767"/>
<path d="M67.9858 111.009C67.9858 111.009 63.5783 110.463 63.2148 114.237" stroke="#231F20" stroke-width="3" stroke-miterlimit="10"/>
<path opacity="0.7" d="M30 239.396V211.8C30 210.982 30.3181 210.209 30.8633 209.664C31.4086 209.118 32.181 208.8 32.9989 208.8H116.149C116.967 208.8 117.74 209.118 118.285 209.664C118.83 210.209 119.148 210.982 119.148 211.8V231.668C119.148 232.486 118.83 233.259 118.285 233.804C117.74 234.35 116.967 234.668 116.149 234.668H35.6342C35.2253 234.668 34.8164 234.759 34.4074 234.941C34.0439 235.123 33.6804 235.35 33.4078 235.668L30 239.396Z" fill="#43B5E8"/>
<path opacity="0.7" d="M30.4092 287.269V263.81C30.4092 263.128 30.7272 262.492 31.2725 261.992C31.8177 261.492 32.5902 261.219 33.4081 261.219H116.559C117.377 261.219 118.149 261.492 118.694 261.992C119.24 262.492 119.558 263.128 119.558 263.81V280.722C119.558 281.404 119.24 282.041 118.694 282.541C118.149 283.041 117.377 283.314 116.559 283.314H36.0889C35.6799 283.314 35.271 283.405 34.8621 283.541C34.4986 283.677 34.1351 283.905 33.8624 284.132L30.4092 287.269Z" fill="#43B5E8"/>
<path opacity="0.7" d="M168.539 259.764V241.397C168.539 240.851 168.221 240.351 167.676 239.987C167.13 239.624 166.358 239.396 165.54 239.396H82.3895C81.5716 239.396 80.7992 239.624 80.2539 239.987C79.7087 240.351 79.3906 240.897 79.3906 241.397V254.627C79.3906 255.172 79.7087 255.672 80.2539 256.036C80.7992 256.4 81.5716 256.627 82.3895 256.627H162.905C163.314 256.627 163.723 256.672 164.132 256.809C164.495 256.9 164.859 257.082 165.131 257.263L168.539 259.764Z" fill="#97C7EB"/>
<path d="M215.566 90.0051V70.5469C215.566 70.0014 215.748 69.4558 216.066 69.0466C216.384 68.6375 216.793 68.4102 217.202 68.4102H262.004C262.458 68.4102 262.867 68.6375 263.139 69.0466C263.458 69.4558 263.639 70.0014 263.639 70.5469V84.595C263.639 85.1405 263.458 85.6861 263.139 86.0952C262.821 86.5044 262.412 86.7317 262.004 86.7317H218.611C218.384 86.7317 218.156 86.7772 217.975 86.9136C217.747 87.05 217.566 87.1863 217.429 87.4137L215.566 90.0051Z" fill="url(#paint8_linear)"/>
<path d="M190.213 116.419V107.19C190.213 106.917 190.304 106.645 190.44 106.463C190.576 106.281 190.804 106.145 190.985 106.145H212.25C212.477 106.145 212.659 106.235 212.795 106.463C212.932 106.645 213.023 106.917 213.023 107.19V113.828C213.023 114.101 212.932 114.373 212.795 114.555C212.659 114.737 212.432 114.873 212.25 114.873H191.667C191.576 114.873 191.44 114.919 191.349 114.964C191.258 115.01 191.167 115.101 191.076 115.192L190.213 116.419Z" fill="url(#paint9_linear)"/>
<path d="M589.79 130.876V121.647C589.79 121.374 589.881 121.102 590.017 120.92C590.154 120.738 590.381 120.602 590.562 120.602H611.827C612.054 120.602 612.236 120.692 612.372 120.92C612.509 121.102 612.6 121.374 612.6 121.647V128.285C612.6 128.558 612.509 128.83 612.372 129.012C612.236 129.194 612.009 129.33 611.827 129.33H591.244C591.153 129.33 591.017 129.376 590.926 129.421C590.835 129.467 590.744 129.558 590.653 129.649L589.79 130.876Z" fill="url(#paint10_linear)"/>
<path d="M589.608 157.836V148.607C589.608 148.334 589.699 148.062 589.836 147.88C589.972 147.698 590.199 147.562 590.381 147.562H611.646C611.873 147.562 612.055 147.652 612.191 147.88C612.327 148.062 612.418 148.334 612.418 148.607V155.245C612.418 155.518 612.327 155.79 612.191 155.972C612.055 156.154 611.827 156.29 611.646 156.29H591.062C590.972 156.29 590.835 156.336 590.744 156.381C590.653 156.427 590.563 156.518 590.472 156.609L589.608 157.836Z" fill="url(#paint11_linear)"/>
<path d="M594.697 117.92V99.598C594.697 99.0525 594.516 98.5524 594.152 98.1887C593.789 97.825 593.289 97.5977 592.789 97.5977H539.627C539.127 97.5977 538.627 97.825 538.264 98.1887C537.9 98.5524 537.719 99.0979 537.719 99.598V112.828C537.719 113.373 537.9 113.873 538.264 114.237C538.627 114.601 539.127 114.828 539.627 114.828H591.108C591.38 114.828 591.653 114.874 591.88 115.01C592.107 115.101 592.335 115.283 592.516 115.465L594.697 117.92Z" fill="#ABE1FA"/>
<path d="M624.549 145.243V135.377C624.549 135.104 624.458 134.832 624.231 134.604C624.049 134.423 623.777 134.286 623.504 134.286H594.924C594.651 134.286 594.379 134.423 594.197 134.604C594.015 134.786 593.879 135.104 593.879 135.377V142.469C593.879 142.742 593.97 143.015 594.197 143.242C594.379 143.424 594.651 143.561 594.924 143.561H622.595C622.732 143.561 622.868 143.606 623.004 143.652C623.141 143.697 623.231 143.788 623.368 143.924L624.549 145.243Z" fill="#ABE1FA"/>
<path d="M221.11 102.872V93.0061C221.11 92.7334 221.019 92.4606 220.792 92.2333C220.61 92.0514 220.337 91.915 220.065 91.915H191.485C191.212 91.915 190.939 92.0514 190.758 92.2333C190.576 92.4151 190.439 92.7334 190.439 93.0061V100.098C190.439 100.371 190.53 100.644 190.758 100.871C190.939 101.053 191.212 101.189 191.485 101.189H219.156C219.292 101.189 219.429 101.235 219.565 101.28C219.701 101.326 219.792 101.417 219.928 101.553L221.11 102.872Z" fill="#ABE1FA"/>
<path d="M220.701 130.058V120.193C220.701 119.92 220.61 119.647 220.383 119.42C220.201 119.238 219.929 119.102 219.656 119.102H191.121C190.849 119.102 190.576 119.238 190.394 119.42C190.212 119.602 190.076 119.92 190.076 120.193V127.285C190.076 127.558 190.167 127.83 190.394 128.058C190.576 128.24 190.849 128.376 191.121 128.376H218.793C218.929 128.376 219.065 128.421 219.202 128.467C219.338 128.512 219.429 128.603 219.565 128.74L220.701 130.058Z" fill="#ABE1FA"/>
<path opacity="0.7" d="M582.565 316.956V296.68C582.565 296.089 582.793 295.543 583.202 295.089C583.611 294.679 584.201 294.452 584.792 294.452H645.905C646.496 294.452 647.041 294.679 647.496 295.089C647.905 295.498 648.132 296.089 648.132 296.68V311.273C648.132 311.864 647.905 312.41 647.496 312.865C647.087 313.274 646.496 313.501 645.905 313.501H586.746C586.428 313.501 586.155 313.547 585.837 313.683C585.564 313.819 585.292 314.001 585.11 314.229L582.565 316.956Z" fill="#43B5E8"/>
<path opacity="0.7" d="M582.884 352.099V334.869C582.884 334.369 583.111 333.869 583.52 333.55C583.929 333.187 584.52 333.005 585.11 333.005H646.224C646.814 333.005 647.36 333.187 647.814 333.55C648.223 333.914 648.45 334.369 648.45 334.869V347.28C648.45 347.78 648.223 348.28 647.814 348.599C647.405 348.962 646.814 349.144 646.224 349.144H587.064C586.746 349.144 586.473 349.19 586.155 349.281C585.883 349.372 585.61 349.553 585.428 349.735L582.884 352.099Z" fill="#43B5E8"/>
<path opacity="0.7" d="M684.346 331.913V318.456C684.346 318.047 684.118 317.683 683.71 317.411C683.301 317.138 682.71 316.956 682.119 316.956H621.006C620.415 316.956 619.87 317.092 619.415 317.411C619.006 317.683 618.779 318.047 618.779 318.456V328.185C618.779 328.595 619.006 328.958 619.415 329.231C619.824 329.504 620.415 329.686 621.006 329.686H680.165C680.483 329.686 680.756 329.731 681.074 329.822C681.347 329.913 681.619 330.004 681.801 330.186L684.346 331.913Z" fill="#97C7EB"/>
<path d="M602.421 384.287C602.421 384.332 602.285 384.605 602.148 384.923C602.012 385.287 601.785 385.741 601.603 386.242C600.967 387.696 600.24 389.424 600.24 389.424C599.15 389.015 598.195 388.242 597.559 387.287C596.605 385.787 593.197 383.696 593.197 383.696L593.334 382.104L593.47 380.468H600.422C600.422 380.468 601.83 382.832 602.285 383.832C602.376 383.968 602.421 384.15 602.421 384.287Z" fill="#010101"/>
<path d="M654.493 399.699C654.493 399.699 666.079 401.972 670.986 400.245C675.894 398.517 697.068 382.105 698.976 382.741C700.884 383.378 709.199 388.424 709.199 388.424C709.199 388.424 702.111 378.65 699.657 377.968C697.204 377.286 676.348 388.379 669.85 390.334C664.353 392.016 647.313 387.651 647.313 387.651L654.493 399.699Z" fill="#E6E7E8"/>
<path d="M710.426 400.835C710.426 400.835 703.429 394.107 701.702 393.061C700.748 392.47 692.615 395.789 684.8 398.926C678.711 401.381 672.804 403.699 670.532 403.972C665.398 404.563 654.584 399.789 654.584 399.789L651.539 390.469L650.222 386.469C650.222 386.469 651.812 387.287 654.175 388.378C655.538 389.015 657.174 389.742 658.9 390.469C663.489 392.379 668.76 394.243 671.623 394.061C678.393 393.561 701.157 387.378 703.429 388.56C705.701 389.742 710.426 400.835 710.426 400.835Z" fill="#E6E7E8"/>
<path d="M595.696 378.285C595.56 379.058 595.333 379.786 595.015 380.513C594.697 381.241 594.333 381.923 593.924 382.604C593.697 383.014 593.424 383.377 593.197 383.741C592.652 384.559 592.152 385.241 591.879 385.605C590.244 387.787 588.199 385.696 586.245 383.059C585.155 381.468 584.246 379.786 583.564 378.013C583.11 376.922 582.883 376.194 582.883 376.194C582.883 376.194 587.018 371.602 587.336 371.421C587.381 371.421 587.472 371.375 587.517 371.421C588.108 371.466 588.699 371.557 589.244 371.648C590.062 371.784 590.834 371.966 590.834 371.966C591.743 372.648 592.606 373.375 593.424 374.194C594.651 375.467 595.878 377.058 595.696 378.285Z" fill="#E6E7E8"/>
<path d="M602.285 383.877C602.285 384.241 602.239 384.605 602.148 384.969C602.103 385.423 601.876 385.878 601.603 386.287C601.467 386.423 601.285 386.56 601.058 386.605C600.831 386.651 600.603 386.605 600.422 386.514C599.195 386.105 596.469 384.468 593.924 382.604C593.742 382.468 593.515 382.332 593.333 382.15C591.652 381.013 590.425 379.286 589.926 377.331C589.199 375.012 583.792 377.876 583.564 378.013C583.11 376.922 582.883 376.194 582.883 376.194C582.883 376.194 587.018 371.602 587.336 371.421C587.381 371.421 587.472 371.375 587.517 371.421H588.881L589.29 371.648L593.47 374.194C594.742 375.467 595.969 377.058 595.787 378.285C595.651 379.058 595.424 379.786 595.106 380.513H600.467C600.422 380.513 601.83 382.832 602.285 383.877Z" fill="#C8C8C8"/>
<path d="M583.293 377.331C582.384 376.331 581.793 375.103 581.475 373.785C581.066 371.739 584.111 366.829 588.473 366.329C593.925 365.738 595.833 367.056 599.559 370.739C603.285 374.421 604.694 375.785 607.42 375.922C611.827 376.149 612.464 379.013 612.645 380.559C612.827 381.968 612.327 385.787 607.602 386.105C602.876 386.378 594.743 383.423 593.471 380.468C592.244 377.513 592.335 374.421 589.291 373.876C586.383 373.376 583.293 377.331 583.293 377.331Z" fill="#010101"/>
<path d="M684.845 398.925C678.757 401.38 672.85 403.699 670.578 403.972C665.443 404.563 654.629 399.789 654.629 399.789L651.585 390.469L654.22 388.378C655.583 389.014 657.219 389.742 658.946 390.469C658.946 390.469 659.128 394.97 663.262 397.289C667.352 399.653 684.845 398.925 684.845 398.925Z" fill="#C8C8C8"/>
<path d="M656.265 391.015C656.31 395.425 654.447 403.926 654.447 403.926C654.447 403.926 632.501 403.881 628.957 403.926C625.549 403.972 616.734 403.926 613.463 403.699C608.692 403.381 607.692 400.698 605.92 398.107C604.148 395.516 601.285 394.152 599.15 391.697C597.423 389.787 597.06 387.241 597.241 386.878C597.423 386.514 600.876 385.696 600.24 383.468C599.604 381.24 612.599 380.558 612.599 380.558C612.599 380.558 623.368 386.423 629.275 385.332C635.182 384.241 638.998 381.24 645.587 381.195C647.268 381.195 655.72 380.422 655.72 380.422C655.72 380.422 655.992 382.74 656.174 386.332C656.219 387.787 656.265 389.333 656.265 391.015Z" fill="#D1D3D4"/>
<path d="M656.129 386.378C651.858 387.423 647.042 390.287 640.181 392.56C630.73 395.652 612.055 383.422 608.102 384.923C604.149 386.423 597.242 386.878 597.242 386.878C597.424 386.514 600.877 385.696 600.241 383.468C599.605 381.24 612.6 380.558 612.6 380.558C612.6 380.558 623.369 386.423 629.276 385.332C635.182 384.241 638.999 381.24 645.588 381.195C647.269 381.195 655.72 380.422 655.72 380.422C655.72 380.422 655.993 382.831 656.129 386.378Z" fill="#BCBEC0"/>
<path d="M591.38 387.287L586.791 385.696L589.744 377.376L594.334 379.013L591.38 387.287Z" fill="url(#paint12_linear)"/>
<path d="M584.882 385.969C585.246 387.833 589.744 391.06 589.744 391.06C589.744 391.06 590.244 391.833 591.062 393.015C593.879 397.107 600.468 406.018 602.83 405.199C604.511 404.563 606.102 403.745 607.556 402.744C607.556 402.744 606.011 400.199 604.875 398.471C604.557 397.925 604.148 397.38 603.739 396.925C603.285 396.698 601.694 398.289 601.694 398.289C600.149 396.925 598.65 395.47 597.242 393.925C595.878 392.333 592.062 388.696 591.744 387.333C591.425 385.969 592.425 384.332 591.971 382.695C591.516 381.104 590.471 384.286 590.244 385.241C590.017 386.196 589.835 384.696 588.926 382.65C588.199 380.968 587.881 381.513 585.928 382.468C583.883 383.423 584.383 383.332 584.882 385.969Z" fill="#E6E7E8"/>
<path d="M602.558 398.199L604.648 388.879L613.553 392.198C613.553 392.198 609.01 403.427 605.875 403.518C602.739 403.609 602.558 398.199 602.558 398.199Z" fill="#E6E7E8"/>
<path d="M603.467 392.107L613.781 394.107C613.781 394.107 613.963 389.788 613.19 386.697C612.963 385.833 612.645 385.014 612.191 384.242C611.964 383.832 611.6 383.423 611.191 383.15C610.782 382.878 610.328 382.65 609.828 382.559C609.328 382.469 608.828 382.469 608.374 382.605C607.874 382.741 607.42 382.923 607.056 383.241C606.057 383.969 605.239 384.969 604.784 386.151C604.057 387.97 603.467 392.107 603.467 392.107Z" fill="#BCBEC0"/>
<path d="M133.643 331.777L132.462 330.095C124.601 327.594 124.874 341.688 133.37 337.278L133.961 337.596L133.643 331.777ZM132.871 336.687C125.828 340.369 125.919 328.731 132.416 330.777L132.78 330.913L133.098 332.141L133.325 336.96L132.871 336.687Z" fill="url(#paint13_linear)"/>
<path d="M66.6225 323.412C66.6225 323.412 44.7216 338.142 47.7659 361.055C51.2192 386.651 66.4862 398.835 91.3859 399.972C123.056 401.427 144.321 392.016 148.046 380.923C151.772 369.83 137.868 344.825 128.19 343.461C113.332 341.37 99.3829 324.14 95.6116 320.775C91.8403 317.366 82.8891 316.456 77.5275 318.048C72.2113 319.548 66.6225 323.412 66.6225 323.412Z" fill="#43B5E8"/>
<path d="M70.4396 328.821C66.9409 335.868 66.2593 344.006 68.4858 351.553C73.0749 366.965 82.5714 376.103 99.9285 376.239C131.735 376.467 131.826 368.965 133.325 365.601C134.824 362.191 140.595 352.098 125.464 352.599C110.425 353.099 84.7978 323.229 84.7978 323.229L70.4396 328.821Z" fill="#46C1F0"/>
<path d="M88.478 335.869L87.6601 340.097L81.8441 339.461C81.8441 339.461 81.7078 339.142 81.5261 338.642C81.0262 337.278 79.9357 334.687 79.2996 334.323C78.3909 333.823 75.5283 332.641 75.1648 331.777C74.8013 330.914 72.6203 326.504 72.6657 326.322C72.7112 326.095 73.529 318.502 73.529 318.502L77.8456 317.002L79.1179 316.502L81.935 315.365L82.9801 317.047C84.6612 319.184 85.9335 321.548 86.7968 324.14C87.6147 326.776 88.1599 330.641 87.3421 331.323C86.5696 331.959 85.6609 331.914 86.2061 332.823C86.7514 333.641 88.478 335.869 88.478 335.869Z" fill="#E6E7E8"/>
<path d="M82.8892 338.596L81.526 338.687C81.0262 337.324 79.9357 334.732 79.2996 334.368C78.3909 333.868 75.5283 332.686 75.1648 331.822C74.8013 330.959 72.6203 326.549 72.6657 326.367C72.7112 326.14 73.529 318.547 73.529 318.547L77.8002 317.047L79.0724 316.547C79.8449 317.183 80.5719 317.911 80.5719 317.911C80.5719 317.911 77.1186 320.32 77.5275 322.002C77.9365 323.73 80.9808 326.685 79.754 327.776C78.5272 328.867 78.8452 332.141 79.8903 332.914C80.9354 333.641 82.2076 336.778 82.2076 336.778L82.8892 338.596Z" fill="#A9A8A8"/>
<path d="M82.4804 310.319C82.9802 311.774 82.8439 311.637 83.48 314.41C83.5709 314.865 83.5709 315.32 83.4346 315.729C83.2983 316.138 83.0711 316.547 82.753 316.865C81.6171 318.093 77.8458 317.957 76.8916 319.957C75.9374 321.912 75.483 324.594 76.619 325.367C77.8004 326.14 78.4819 326.413 77.8912 326.413C77.3005 326.413 74.3017 326.049 74.4834 326.958C74.6652 327.413 74.8924 327.867 75.2559 328.231C75.5739 328.595 75.9829 328.913 76.4827 329.095C77.8912 329.595 76.619 332.914 77.3005 333.368C78.0275 333.778 76.4827 334.687 72.7114 332.596C68.94 330.459 65.2142 324.958 67.2134 321.457C69.1672 317.957 67.5769 316.684 70.7121 313.91C72.7568 312.092 76.9825 312.365 77.4369 311.273C77.9367 310.137 78.073 306.636 78.8 308C79.527 309.364 79.9359 312.137 79.9359 312.137C79.9359 312.137 80.254 307.682 81.2536 308.182C81.9806 308.5 82.1169 309.273 82.4804 310.319Z" fill="#010101"/>
<path d="M162.359 397.972C162.359 397.972 163.495 399.608 166.767 401.29C170.038 403.018 176.263 403.382 175.536 406.064C174.809 408.746 171.992 413.247 167.63 411.656C163.268 410.065 158.361 407.428 156.543 404.973C154.726 402.518 156.543 397.972 156.543 397.972H162.359Z" fill="#E6E7E8"/>
<path d="M115.65 384.787C115.65 384.787 112.287 387.06 111.56 389.333C110.833 391.652 108.153 403.018 110.606 404.973C113.06 406.882 116.104 406.428 117.285 403.245C118.512 400.063 122.056 391.425 123.738 389.697L125.464 387.97L115.65 384.787Z" fill="#E6E7E8"/>
<path d="M149.955 353.918C144.094 367.556 124.964 393.334 124.964 393.334L117.104 386.105L114.241 383.469L133.37 358.6C133.37 358.6 127.327 358.782 125.873 357.1C124.419 355.418 116.649 352.281 116.649 352.281C116.649 352.281 115.104 351.644 113.605 351.008L114.105 348.644L124.964 347.416C124.964 347.416 147.002 342.506 151.045 346.189C152.227 347.28 151.591 350.099 149.955 353.918Z" fill="#223E98"/>
<path d="M149.955 353.963C144.094 367.602 125.01 393.379 125.01 393.379L117.149 386.151L149.955 353.963Z" fill="#2A2C7B"/>
<path d="M125.646 332.231V336.187C122.193 337.505 118.648 338.596 115.059 339.415C112.696 339.96 110.333 340.415 107.925 340.688C103.654 341.188 100.519 340.597 98.4287 339.824C97.2473 339.46 96.1568 338.869 95.2026 338.096L100.701 332.732C100.701 332.732 101.291 332.959 102.155 333.323C103.063 333.686 104.29 334.095 105.426 334.414C106.335 334.732 107.289 334.868 108.243 334.823C110.015 334.505 115.559 333.277 119.875 332.732C121.784 332.504 123.737 332.322 125.646 332.231Z" fill="#E6E7E8"/>
<path d="M105.29 368.011C105.29 368.011 121.466 379.149 129.326 383.559C137.187 387.969 152.909 406.973 152.909 406.973L163.859 396.562C163.859 396.562 129.463 362.328 126.328 360.237C123.192 358.145 111.515 353.963 111.515 353.963L105.29 357.6V368.011Z" fill="#223E98"/>
<path d="M133.416 358.646C133.37 358.646 133.37 358.646 133.416 358.646C133.098 358.828 128.1 361.874 126.328 360.237C124.51 358.51 112.696 355.736 112.696 355.736L113.65 351.054C115.15 351.69 116.695 352.327 116.695 352.327C116.695 352.327 124.465 355.418 125.919 357.146C127.373 358.828 133.416 358.646 133.416 358.646Z" fill="#2A2C7B"/>
<path d="M115.104 339.46C112.742 340.006 110.379 340.46 107.971 340.733C103.699 341.233 100.564 340.642 98.4742 339.869L98.4287 338.142L100.61 335.278C100.61 335.278 101.927 333.595 102.018 333.414C102.018 333.414 102.109 333.368 102.2 333.368C103.109 333.732 104.336 334.141 105.472 334.459C105.472 334.459 105.472 338.005 106.471 338.596C107.425 339.096 114.786 339.415 115.104 339.46Z" fill="#C0BFBF"/>
<path d="M125.01 347.416C125.01 347.416 119.103 349.599 112.696 355.691C110.743 357.555 108.834 360.828 107.426 363.556C102.973 361.464 93.3855 358.964 91.1591 357.555C88.6146 355.963 96.9296 343.188 96.9296 343.188L82.9349 353.918L76.9826 350.371L75.8466 348.189C75.8466 348.189 75.6649 343.006 76.8008 340.87C78.4366 337.778 87.3423 334.368 87.3423 334.368C89.5233 333.459 91.9769 333.323 94.2488 334.005C97.6112 335.005 107.971 342.643 115.15 342.643C121.011 342.643 125.01 347.416 125.01 347.416Z" fill="white"/>
<path d="M127.691 330.868C129.553 330.868 130.78 330.368 130.917 331.823C131.098 333.869 131.371 336.551 130.144 337.369C129.145 338.051 124.237 336.733 124.237 334.914C124.283 333.005 125.646 330.868 127.691 330.868Z" fill="#C0BFBF"/>
<path d="M90.3413 333.55C90.3413 333.55 90.6594 332.505 92.5677 332.414C94.5216 332.323 100.928 332.732 100.928 332.732L99.7923 336.914L98.3837 338.142L90.3413 333.55Z" fill="#EAEAEA"/>
<path d="M107.38 363.556C106.108 366.011 105.245 368.011 105.245 368.011C105.245 368.011 103.881 366.92 99.6103 365.329C95.3392 363.738 86.9333 362.874 84.9794 361.919C83.0256 360.964 79.5269 356.509 79.5269 356.509L79.3452 355.191L76.937 350.462L82.8893 354.009L96.8841 343.279C96.8841 343.279 88.5236 356.054 91.1135 357.646C93.34 358.919 102.927 361.464 107.38 363.556Z" fill="#EAEAEA"/>
<path d="M128.69 330.868C130.008 330.868 130.871 330.368 130.962 331.823C131.099 333.869 131.28 336.551 130.417 337.369C129.736 338.051 126.237 336.733 126.237 334.914C126.282 333.005 127.236 330.868 128.69 330.868Z" fill="#E6E7E8"/>
<path d="M132.461 328.822H139.232V335.915C139.232 336.278 139.141 336.687 139.004 337.051C138.868 337.415 138.641 337.733 138.368 338.006C138.096 338.279 137.778 338.506 137.414 338.642C137.051 338.779 136.687 338.87 136.278 338.87H135.369C134.597 338.87 133.87 338.551 133.325 338.006C132.779 337.46 132.461 336.733 132.461 335.96V328.822Z" fill="url(#paint14_linear)"/>
<path d="M61.6699 333.868C58.0803 334.868 56.3537 343.051 56.1265 348.28C55.5358 360.327 56.8535 382.104 72.7112 387.514C94.9756 395.106 121.738 392.697 104.699 385.877C87.6601 379.013 74.7104 378.285 69.4851 369.147C64.8959 361.055 66.2136 334.05 61.6699 333.868C61.6699 333.868 61.7153 333.822 61.6699 333.868Z" fill="#4DC6F3"/>
<path d="M102.2 340.279C102.064 341.415 102.337 342.552 103.018 343.461C103.564 344.234 104.018 345.552 102.882 347.235C101.064 349.962 98.1111 352.736 100.428 351.735C102.7 350.781 111.152 343.552 108.698 343.188C104.2 342.552 102.382 339.188 102.246 340.233L102.2 340.279Z" fill="#EAEAEA"/>
<path d="M88.2963 328.367L86.4334 334.459L75.4375 331.095L77.255 325.003L88.2963 328.367Z" fill="url(#paint15_linear)"/>
<path d="M86.3881 359.828L76.8008 354.918L82.844 347.644C82.844 347.644 93.8399 355.509 93.0674 358.464C92.3404 361.419 86.3881 359.828 86.3881 359.828Z" fill="#E6E7E8"/>
<path d="M84.2979 348.372C84.2979 348.372 82.0714 344.598 81.4808 343.916C79.4815 341.598 73.711 341.734 74.3925 347.553C74.8469 351.236 76.8461 355.418 76.8461 355.418C79.9813 353.827 82.5713 351.372 84.2979 348.372Z" fill="white"/>
<path d="M87.5237 329.504C88.9777 331.232 88.8869 337.46 88.8869 337.46C88.8869 337.46 89.2504 338.46 89.7502 340.052C91.5677 345.553 95.2481 357.828 92.8854 359.237C91.1587 360.146 87.2511 353.008 87.2511 353.008C87.0694 350.644 86.7513 348.28 86.2969 345.916C85.7517 343.552 85.0247 337.551 84.025 336.278C82.98 335.005 80.7535 334.55 79.6176 332.959C78.4362 331.323 82.1621 332.914 83.1617 333.459C84.1614 334.005 82.9345 332.686 81.6623 330.368C80.6172 328.458 81.3442 328.64 83.5707 327.686C85.8425 326.731 85.4336 327.095 87.5237 329.504Z" fill="#E6E7E8"/>
<path d="M568.843 400.336C568.843 402.836 566.799 404.882 564.3 404.882H192.03C189.531 404.882 187.486 402.836 187.486 400.336V171.793C187.486 169.293 189.531 167.247 192.03 167.247H564.3C566.799 167.247 568.843 169.293 568.843 171.793V400.336Z" fill="#E1F4FD"/>
<path d="M550.578 253.854C550.578 256.354 548.533 258.4 546.034 258.4H297.582C295.083 258.4 293.038 256.354 293.038 253.854V190.433C293.038 187.933 295.083 185.887 297.582 185.887H545.989C548.488 185.887 550.533 187.933 550.533 190.433V253.854H550.578Z" fill="#D1D3D4"/>
<path d="M281.406 386.197C281.406 388.697 279.361 390.743 276.862 390.743H203.208C200.709 390.743 198.664 388.697 198.664 386.197V319.912C198.664 317.411 200.709 315.365 203.208 315.365H276.862C279.361 315.365 281.406 317.411 281.406 319.912V386.197Z" fill="url(#paint16_linear)"/>
<path d="M495.553 345.643C495.553 348.144 497.597 350.19 500.096 350.19H548.26C550.759 350.19 552.804 348.144 552.804 345.643V320.002C552.804 317.502 550.759 315.456 548.26 315.456H500.096C497.597 315.456 495.553 317.502 495.553 320.002V345.643Z" fill="url(#paint17_linear)"/>
<path d="M495.87 385.014C495.87 387.515 497.915 389.56 500.414 389.56H549.396C551.895 389.56 553.939 387.515 553.939 385.014V358.918C553.939 356.418 551.895 354.372 549.396 354.372H500.414C497.915 354.372 495.87 356.418 495.87 358.918V385.014Z" fill="url(#paint18_linear)"/>
<path d="M498.506 326.139C498.506 328.64 500.551 330.686 503.05 330.686H544.261C546.761 330.686 548.805 328.64 548.805 326.139V323.73C548.805 321.229 546.761 319.184 544.261 319.184H503.05C500.551 319.184 498.506 321.229 498.506 323.73V326.139Z" fill="white"/>
<path d="M499.188 341.324C499.188 343.824 501.232 345.87 503.731 345.87H544.943C547.442 345.87 549.487 343.824 549.487 341.324V338.914C549.487 336.414 547.442 334.368 544.943 334.368H503.731C501.232 334.368 499.188 336.414 499.188 338.914V341.324Z" fill="white"/>
<path d="M499.551 365.101C499.551 367.602 501.595 369.648 504.095 369.648H545.306C547.805 369.648 549.85 367.602 549.85 365.101V362.692C549.85 360.191 547.805 358.146 545.306 358.146H504.095C501.595 358.146 499.551 360.191 499.551 362.692V365.101Z" fill="white"/>
<path d="M499.188 380.604C499.188 383.105 501.232 385.151 503.731 385.151H544.943C547.442 385.151 549.487 383.105 549.487 380.604V378.195C549.487 375.694 547.442 373.648 544.943 373.648H503.731C501.232 373.648 499.188 375.694 499.188 378.195V380.604Z" fill="white"/>
<path d="M210.932 369.648C210.932 370.603 211.75 371.421 212.749 371.421H266.274C267.274 371.421 268.092 370.648 268.092 369.648C268.092 368.693 267.274 367.875 266.274 367.875H212.749C211.75 367.875 210.932 368.693 210.932 369.648Z" fill="white"/>
<path d="M305.079 238.85C305.079 239.805 306.079 240.623 307.351 240.623H359.968C361.24 240.623 362.239 239.85 362.239 238.85C362.239 237.895 361.24 237.077 359.968 237.077H307.351C306.079 237.123 305.079 237.895 305.079 238.85Z" fill="#F1F2F2"/>
<path d="M305.079 246.261C305.079 247.216 306.079 248.034 307.351 248.034H359.968C361.24 248.034 362.239 247.262 362.239 246.261C362.239 245.261 361.24 244.488 359.968 244.488H307.351C306.079 244.534 305.079 245.307 305.079 246.261Z" fill="#F1F2F2"/>
<path d="M36.77 214.028C36.77 214.528 37.179 214.937 37.6788 214.937H114.468C114.968 214.937 115.377 214.528 115.377 214.028V213.846C115.377 213.346 114.968 212.937 114.468 212.937H37.6788C37.179 212.937 36.77 213.346 36.77 213.846V214.028Z" fill="white"/>
<path d="M85.5244 244.352C85.5244 244.852 85.9334 245.261 86.4332 245.261H163.223C163.722 245.261 164.131 244.852 164.131 244.352V244.17C164.131 243.67 163.722 243.261 163.223 243.261H86.4332C85.9334 243.261 85.5244 243.67 85.5244 244.17V244.352Z" fill="white"/>
<path d="M36.4521 266.492C36.4521 266.993 36.8611 267.402 37.3609 267.402H114.15C114.65 267.402 115.059 266.993 115.059 266.492V266.311C115.059 265.811 114.65 265.401 114.15 265.401H37.3609C36.8611 265.401 36.4521 265.811 36.4521 266.311V266.492Z" fill="white"/>
<path d="M36.4521 271.903C36.4521 272.403 36.8611 272.812 37.3609 272.812H114.15C114.65 272.812 115.059 272.403 115.059 271.903V271.721C115.059 271.221 114.65 270.812 114.15 270.812H37.3609C36.8611 270.812 36.4521 271.221 36.4521 271.721V271.903Z" fill="white"/>
<path d="M36.5884 277.358C36.5884 277.858 36.9973 278.267 37.4971 278.267H114.287C114.786 278.267 115.195 277.858 115.195 277.358V277.176C115.195 276.676 114.786 276.267 114.287 276.267H37.4971C36.9973 276.267 36.5884 276.676 36.5884 277.176V277.358Z" fill="white"/>
<path d="M85.5244 249.762C85.5244 250.262 85.9334 250.671 86.4332 250.671H163.223C163.722 250.671 164.131 250.262 164.131 249.762V249.58C164.131 249.08 163.722 248.671 163.223 248.671H86.4332C85.9334 248.671 85.5244 249.08 85.5244 249.58V249.762Z" fill="white"/>
<path d="M36.77 219.165C36.77 219.665 37.179 220.075 37.6788 220.075H114.468C114.968 220.075 115.377 219.665 115.377 219.165V218.983C115.377 218.483 114.968 218.074 114.468 218.074H37.6788C37.179 218.074 36.77 218.483 36.77 218.983V219.165Z" fill="white"/>
<path d="M36.77 224.848C36.77 225.348 37.179 225.757 37.6788 225.757H97.7471C98.247 225.757 98.6559 225.348 98.6559 224.848V224.666C98.6559 224.166 98.247 223.757 97.7471 223.757H37.6788C37.179 223.757 36.77 224.166 36.77 224.666V224.848Z" fill="white"/>
<path d="M585.609 297.634C585.609 297.861 585.837 298.089 586.064 298.089H644.224C644.496 298.089 644.678 297.861 644.678 297.634V297.498C644.678 297.27 644.496 297.043 644.224 297.043H586.064C585.837 297.043 585.609 297.27 585.609 297.498V297.634Z" fill="white"/>
<path d="M585.609 301.453C585.609 301.681 585.837 301.908 586.064 301.908H644.224C644.496 301.908 644.678 301.681 644.678 301.453V301.317C644.678 301.09 644.496 300.862 644.224 300.862H586.064C585.837 300.862 585.609 301.09 585.609 301.317V301.453Z" fill="white"/>
<path d="M219.338 72.593C219.338 72.8657 219.565 73.0476 219.792 73.0476H259.141C259.368 73.0476 259.595 72.8657 259.595 72.593V72.4566C259.595 72.2293 259.368 72.002 259.141 72.002H219.792C219.565 72.002 219.338 72.2293 219.338 72.4566V72.593Z" fill="white"/>
<path d="M219.338 75.6848C219.338 75.9121 219.565 76.1394 219.792 76.1394H259.141C259.368 76.1394 259.595 75.9121 259.595 75.6848V75.5484C259.595 75.2756 259.368 75.0938 259.141 75.0938H219.792C219.565 75.0938 219.338 75.2756 219.338 75.5484V75.6848Z" fill="white"/>
<path d="M539.354 100.87C539.354 101.143 539.763 101.37 540.263 101.37H591.062C591.562 101.37 591.971 101.143 591.971 100.87C591.971 100.597 591.562 100.37 591.062 100.37H540.263C539.763 100.37 539.354 100.597 539.354 100.87Z" fill="white"/>
<path d="M539.445 104.462C539.445 104.735 539.854 104.962 540.354 104.962H591.153C591.653 104.962 592.062 104.735 592.062 104.462C592.062 104.189 591.653 103.962 591.153 103.962H540.354C539.854 103.916 539.445 104.144 539.445 104.462Z" fill="white"/>
<path d="M539.627 108.1C539.627 108.372 540.036 108.6 540.536 108.6H591.335C591.835 108.6 592.244 108.372 592.244 108.1C592.244 107.827 591.835 107.6 591.335 107.6H540.536C540.036 107.6 539.627 107.827 539.627 108.1Z" fill="white"/>
<path d="M539.627 111.418C539.627 111.691 540.036 111.918 540.536 111.918H591.335C591.835 111.918 592.244 111.691 592.244 111.418C592.244 111.145 591.835 110.918 591.335 110.918H540.536C540.036 110.873 539.627 111.145 539.627 111.418Z" fill="white"/>
<path d="M219.384 79.0939C219.384 79.3667 219.611 79.5486 219.838 79.5486H259.187C259.46 79.5486 259.641 79.3667 259.641 79.0939V78.9576C259.641 78.6848 259.46 78.5029 259.187 78.5029H219.838C219.611 78.5029 219.384 78.6848 219.384 78.9576V79.0939Z" fill="white"/>
<path d="M219.384 82.8215C219.384 83.0488 219.611 83.2761 219.838 83.2761H248.6C248.827 83.2761 249.054 83.0488 249.054 82.8215V82.6851C249.054 82.4123 248.827 82.2305 248.6 82.2305H219.838C219.611 82.2305 219.384 82.4123 219.384 82.6851V82.8215Z" fill="white"/>
<path d="M585.609 305.454C585.609 305.682 585.837 305.909 586.064 305.909H644.224C644.496 305.909 644.678 305.682 644.678 305.454V305.318C644.678 305.091 644.496 304.863 644.224 304.863H586.064C585.837 304.863 585.609 305.091 585.609 305.318V305.454Z" fill="white"/>
<path d="M585.609 309.591C585.609 309.818 585.837 310.046 586.064 310.046H644.224C644.496 310.046 644.678 309.818 644.678 309.591V309.455C644.678 309.227 644.496 309 644.224 309H586.064C585.837 309 585.609 309.227 585.609 309.455V309.591Z" fill="white"/>
<path d="M621.823 320.23C621.823 320.457 622.05 320.684 622.278 320.684H680.438C680.665 320.684 680.892 320.457 680.892 320.23V320.093C680.892 319.866 680.665 319.639 680.438 319.639H622.278C622.05 319.639 621.823 319.866 621.823 320.093V320.23Z" fill="white"/>
<path d="M621.914 324.503C621.914 324.73 622.096 324.958 622.368 324.958H680.528C680.756 324.958 680.983 324.73 680.983 324.503V324.367C680.983 324.139 680.756 323.912 680.528 323.912H622.368C622.096 323.912 621.914 324.139 621.914 324.367V324.503Z" fill="white"/>
<path d="M586.382 336.642C586.382 336.915 586.564 337.096 586.836 337.096H644.996C645.223 337.096 645.451 336.915 645.451 336.642V336.505C645.451 336.233 645.223 336.051 644.996 336.051H586.836C586.564 336.051 586.382 336.233 586.382 336.505V336.642Z" fill="white"/>
<path d="M586.519 340.688C586.519 340.915 586.7 341.142 586.973 341.142H645.133C645.406 341.142 645.587 340.915 645.587 340.688V340.551C645.587 340.324 645.406 340.097 645.133 340.097H586.973C586.7 340.097 586.519 340.324 586.519 340.551V340.688Z" fill="white"/>
<path d="M586.519 344.461C586.519 344.688 586.7 344.916 586.973 344.916H636.818C637.091 344.916 637.272 344.688 637.272 344.461V344.325C637.272 344.097 637.091 343.87 636.818 343.87H586.973C586.7 343.87 586.519 344.097 586.519 344.325V344.461Z" fill="white"/>
<path d="M210.932 376.149C210.932 377.104 211.75 377.922 212.749 377.922H266.274C267.274 377.922 268.092 377.149 268.092 376.149C268.092 375.194 267.274 374.376 266.274 374.376H212.749C211.75 374.421 210.932 375.194 210.932 376.149Z" fill="white"/>
<path d="M210.932 383.514C210.932 384.469 211.75 385.287 212.749 385.287H266.274C267.274 385.287 268.092 384.514 268.092 383.514C268.092 382.56 267.274 381.741 266.274 381.741H212.749C211.75 381.741 210.932 382.56 210.932 383.514Z" fill="white"/>
<path d="M493.236 386.151C493.236 388.651 491.191 390.697 488.692 390.697H297.582C295.083 390.697 293.038 388.651 293.038 386.151V319.775C293.038 317.274 295.083 315.229 297.582 315.229H488.692C491.191 315.229 493.236 317.274 493.236 319.775V386.151Z" fill="#D1D3D4"/>
<path d="M551.35 304.499C551.35 307 549.305 309.046 546.806 309.046H297.763C295.264 309.046 293.22 307 293.22 304.499V268.402C293.22 265.901 295.264 263.855 297.763 263.855H546.806C549.305 263.855 551.35 265.901 551.35 268.402V304.499Z" fill="url(#paint19_linear)"/>
<path d="M238.649 363.511C250.67 363.511 260.414 353.761 260.414 341.734C260.414 329.707 250.67 319.957 238.649 319.957C226.629 319.957 216.885 329.707 216.885 341.734C216.885 353.761 226.629 363.511 238.649 363.511Z" fill="white"/>
<path d="M333.159 232.804C344.301 232.804 353.333 223.766 353.333 212.618C353.333 201.47 344.301 192.433 333.159 192.433C322.017 192.433 312.984 201.47 312.984 212.618C312.984 223.766 322.017 232.804 333.159 232.804Z" fill="#F1F2F2"/>
<path d="M539.309 200.707C539.309 201.616 538.31 202.344 537.037 202.344H388.956C387.684 202.344 386.685 201.616 386.685 200.707C386.685 199.798 387.684 199.07 388.956 199.07H536.992C538.264 199.07 539.309 199.798 539.309 200.707Z" fill="white"/>
<path d="M538.809 210.981C538.809 211.891 537.809 212.618 536.537 212.618H389.092C387.82 212.618 386.82 211.891 386.82 210.981C386.82 210.072 387.82 209.345 389.092 209.345H536.537C537.809 209.345 538.809 210.072 538.809 210.981Z" fill="white"/>
<path d="M539.036 220.983C539.036 221.893 538.036 222.62 536.764 222.62H389.683C388.411 222.62 387.411 221.893 387.411 220.983C387.411 220.074 388.411 219.347 389.683 219.347H536.764C538.036 219.347 539.036 220.074 539.036 220.983Z" fill="white"/>
<path d="M539.037 231.259C539.037 232.168 538.037 232.895 536.765 232.895H388.866C387.593 232.895 386.594 232.168 386.594 231.259C386.594 230.349 387.593 229.622 388.866 229.622H536.81C538.037 229.622 539.037 230.349 539.037 231.259Z" fill="white"/>
<path d="M538.81 241.988C538.81 242.897 537.81 243.625 536.538 243.625H389.275C388.003 243.625 387.003 242.897 387.003 241.988C387.003 241.079 388.003 240.352 389.275 240.352H536.538C537.81 240.352 538.81 241.079 538.81 241.988Z" fill="white"/>
<path d="M158.361 129.33C158.361 130.057 157.725 130.694 156.998 130.694H92.431C91.6586 130.694 91.0679 130.057 91.0679 129.33V115.6C91.0679 114.873 91.6586 114.236 92.431 114.236H156.998C157.725 114.236 158.361 114.873 158.361 115.6V129.33Z" fill="url(#paint20_linear)"/>
<path d="M160.587 142.469C160.587 143.196 159.951 143.833 159.224 143.833H67.5311C66.7587 143.833 66.168 143.196 66.168 142.469V135.377C66.168 134.649 66.7587 134.013 67.5311 134.013H159.179C159.906 134.013 160.542 134.649 160.542 135.377V142.469H160.587Z" fill="white"/>
<path d="M87.8875 166.837C87.8875 167.565 87.2514 168.201 86.5244 168.201H67.6678C66.8954 168.201 66.3047 167.565 66.3047 166.837V147.152C66.3047 146.379 66.8954 145.788 67.6678 145.788H86.5244C87.2514 145.788 87.8875 146.379 87.8875 147.152V166.837Z" fill="#ABE1FA"/>
<path d="M144.003 154.972C144.003 155.699 144.639 156.336 145.366 156.336H159.134C159.861 156.336 160.497 155.699 160.497 154.972V147.88C160.497 147.152 159.861 146.516 159.134 146.516H145.366C144.639 146.516 144.003 147.152 144.003 147.88V154.972Z" fill="url(#paint21_linear)"/>
<path d="M144.82 151.471C144.82 152.198 145.456 152.835 146.183 152.835H158.406C159.133 152.835 159.769 152.198 159.769 151.471V151.107C159.769 150.38 159.133 149.743 158.406 149.743H146.229C145.502 149.743 144.866 150.38 144.866 151.107V151.471H144.82Z" fill="white"/>
<path d="M69.7578 161.836C69.7578 162.109 70.1667 162.291 70.6666 162.291H83.7526C84.2524 162.291 84.6613 162.064 84.6613 161.836C84.6613 161.564 84.2524 161.382 83.7526 161.382H70.6666C70.1667 161.382 69.7578 161.564 69.7578 161.836Z" fill="white"/>
<path d="M69.7578 163.564C69.7578 163.837 70.1667 164.019 70.6666 164.019H83.7526C84.2524 164.019 84.6613 163.791 84.6613 163.564C84.6613 163.291 84.2524 163.109 83.7526 163.109H70.6666C70.1667 163.109 69.7578 163.337 69.7578 163.564Z" fill="white"/>
<path d="M69.7578 165.519C69.7578 165.792 70.1667 165.974 70.6666 165.974H83.7526C84.2524 165.974 84.6613 165.746 84.6613 165.519C84.6613 165.246 84.2524 165.064 83.7526 165.064H70.6666C70.1667 165.064 69.7578 165.292 69.7578 165.519Z" fill="white"/>
<path d="M90.8408 147.561C90.8408 147.789 91.0226 148.016 91.2952 148.016H141.276C141.549 148.016 141.731 147.789 141.731 147.561V147.47C141.731 147.197 141.549 147.016 141.276 147.016H91.2952C91.0226 147.016 90.8408 147.197 90.8408 147.47V147.561Z" fill="#D1D3D4"/>
<path d="M90.8408 150.107C90.8408 150.334 91.0226 150.562 91.2952 150.562H141.276C141.549 150.562 141.731 150.334 141.731 150.107V150.016C141.731 149.789 141.549 149.562 141.276 149.562H91.2952C91.0226 149.562 90.8408 149.789 90.8408 150.016V150.107Z" fill="#D1D3D4"/>
<path d="M90.75 152.607C90.75 152.88 90.9317 153.062 91.2044 153.062H141.186C141.413 153.062 141.64 152.88 141.64 152.607V152.516C141.64 152.289 141.413 152.062 141.186 152.062H91.2044C90.9317 152.062 90.75 152.289 90.75 152.516V152.607Z" fill="#D1D3D4"/>
<path d="M90.8408 155.29C90.8408 155.517 91.0226 155.744 91.2952 155.744H141.276C141.549 155.744 141.731 155.517 141.731 155.29V155.199C141.731 154.971 141.549 154.744 141.276 154.744H91.2952C91.0226 154.744 90.8408 154.971 90.8408 155.199V155.29Z" fill="#D1D3D4"/>
<path d="M107.289 166.109C107.289 166.837 106.699 167.473 105.926 167.473H92.1585C91.3861 167.473 90.7954 166.837 90.7954 166.109V159.017C90.7954 158.244 91.3861 157.653 92.1585 157.653H105.926C106.699 157.653 107.289 158.244 107.289 159.017V166.109Z" fill="url(#paint22_linear)"/>
<path d="M160.406 158.654C160.406 158.881 160.178 159.109 159.951 159.109H109.97C109.697 159.109 109.516 158.881 109.516 158.654V158.563C109.516 158.336 109.697 158.108 109.97 158.108H159.951C160.178 158.108 160.406 158.336 160.406 158.563V158.654Z" fill="#D1D3D4"/>
<path d="M160.406 161.2C160.406 161.473 160.178 161.654 159.951 161.654H109.97C109.697 161.654 109.516 161.473 109.516 161.2V161.109C109.516 160.882 109.697 160.654 109.97 160.654H159.951C160.178 160.654 160.406 160.882 160.406 161.109V161.2Z" fill="#D1D3D4"/>
<path d="M160.496 163.701C160.496 163.928 160.315 164.155 160.042 164.155H110.061C109.788 164.155 109.606 163.928 109.606 163.701V163.61C109.606 163.337 109.788 163.155 110.061 163.155H160.042C160.315 163.155 160.496 163.337 160.496 163.61V163.701Z" fill="#D1D3D4"/>
<path d="M160.406 166.382C160.406 166.655 160.178 166.837 159.951 166.837H109.97C109.697 166.837 109.516 166.655 109.516 166.382V166.292C109.516 166.064 109.697 165.837 109.97 165.837H159.951C160.178 165.837 160.406 166.064 160.406 166.292V166.382Z" fill="#D1D3D4"/>
<path d="M77.2552 131.104C81.998 131.104 85.8429 127.155 85.8429 122.284C85.8429 117.413 81.998 113.464 77.2552 113.464C72.5123 113.464 68.6675 117.413 68.6675 122.284C68.6675 127.155 72.5123 131.104 77.2552 131.104Z" fill="white"/>
<path d="M76.9825 160.2C80.6463 160.2 83.6164 157.167 83.6164 153.426C83.6164 149.685 80.6463 146.652 76.9825 146.652C73.3187 146.652 70.3486 149.685 70.3486 153.426C70.3486 157.167 73.3187 160.2 76.9825 160.2Z" fill="white"/>
<path d="M155.407 116.783C155.407 117.01 155.18 117.237 154.953 117.237H95.0662C94.7936 117.237 94.6118 117.056 94.6118 116.783C94.6118 116.555 94.7936 116.328 95.0662 116.328H154.953C155.18 116.328 155.407 116.51 155.407 116.783Z" fill="white"/>
<path d="M155.271 119.51C155.271 119.738 155.09 119.965 154.817 119.965H94.9304C94.6578 119.965 94.4761 119.783 94.4761 119.51C94.4761 119.283 94.6578 119.056 94.9304 119.056H154.817C155.09 119.056 155.271 119.283 155.271 119.51Z" fill="white"/>
<path d="M155.362 122.193C155.362 122.42 155.135 122.648 154.908 122.648H94.9759C94.7032 122.648 94.5215 122.466 94.5215 122.193C94.5215 121.966 94.7032 121.738 94.9759 121.738H154.862C155.135 121.738 155.362 121.92 155.362 122.193Z" fill="white"/>
<path d="M155.362 124.92C155.362 125.148 155.135 125.375 154.908 125.375H94.9759C94.7032 125.375 94.5215 125.193 94.5215 124.92C94.5215 124.693 94.7032 124.466 94.9759 124.466H154.862C155.135 124.466 155.362 124.693 155.362 124.92Z" fill="white"/>
<path d="M155.271 127.785C155.271 128.012 155.09 128.239 154.817 128.239H94.9304C94.6578 128.239 94.4761 128.057 94.4761 127.785C94.4761 127.557 94.6578 127.33 94.9304 127.33H154.817C155.09 127.33 155.271 127.557 155.271 127.785Z" fill="white"/>
<path d="M704.338 216.802C704.338 217.529 703.748 218.165 702.975 218.165H643.452C642.68 218.165 642.089 217.529 642.089 216.802V206.118C642.089 205.39 642.68 204.754 643.452 204.754H702.975C703.748 204.754 704.338 205.39 704.338 206.118V216.802Z" fill="url(#paint23_linear)"/>
<path d="M706.383 227.53C706.383 228.258 705.792 228.894 705.02 228.894H620.415C619.642 228.894 619.052 228.258 619.052 227.53V222.256C619.052 221.484 619.642 220.893 620.415 220.893H705.02C705.792 220.893 706.383 221.484 706.383 222.256V227.53Z" fill="#ABE1FA"/>
<path d="M639.136 247.443C639.136 248.17 638.545 248.807 637.772 248.807H620.552C619.779 248.807 619.188 248.17 619.188 247.443V231.849C619.188 231.076 619.779 230.485 620.552 230.485H637.772C638.545 230.485 639.136 231.076 639.136 231.849V247.443Z" fill="url(#paint24_linear)"/>
<path d="M691.024 237.76C691.024 238.487 691.615 239.124 692.388 239.124H704.928C705.701 239.124 706.291 238.487 706.291 237.76V232.486C706.291 231.759 705.701 231.122 704.928 231.122H692.388C691.615 231.122 691.024 231.759 691.024 232.486V237.76Z" fill="url(#paint25_linear)"/>
<path d="M691.615 235.487C691.615 235.987 692.024 236.396 692.524 236.396H704.52C705.019 236.396 705.428 235.987 705.428 235.487V234.805C705.428 234.305 705.019 233.896 704.52 233.896H692.524C692.024 233.896 691.615 234.305 691.615 234.805V235.487Z" fill="white"/>
<path d="M622.369 243.625C622.369 243.852 622.596 243.988 622.824 243.988H635.728C636 243.988 636.182 243.806 636.182 243.625C636.182 243.397 636 243.261 635.728 243.261H622.824C622.551 243.215 622.369 243.397 622.369 243.625Z" fill="white"/>
<path d="M622.369 245.034C622.369 245.261 622.596 245.397 622.824 245.397H635.728C636 245.397 636.182 245.215 636.182 245.034C636.182 244.806 636 244.67 635.728 244.67H622.824C622.551 244.67 622.369 244.852 622.369 245.034Z" fill="white"/>
<path d="M622.369 246.625C622.369 246.853 622.596 246.989 622.824 246.989H635.728C636 246.989 636.182 246.807 636.182 246.625C636.182 246.398 636 246.262 635.728 246.262H622.824C622.551 246.262 622.369 246.444 622.369 246.625Z" fill="white"/>
<path d="M641.861 231.895C641.861 232.123 642.089 232.305 642.316 232.305H688.48C688.753 232.305 688.935 232.123 688.935 231.895C688.935 231.668 688.753 231.486 688.48 231.486H642.316C642.089 231.486 641.861 231.668 641.861 231.895Z" fill="#D1D3D4"/>
<path d="M641.861 233.986C641.861 234.214 642.089 234.395 642.316 234.395H688.48C688.753 234.395 688.935 234.214 688.935 233.986C688.935 233.759 688.753 233.577 688.48 233.577H642.316C642.089 233.577 641.861 233.759 641.861 233.986Z" fill="#D1D3D4"/>
<path d="M641.771 236.032C641.771 236.26 641.952 236.441 642.225 236.441H688.389C688.617 236.441 688.844 236.26 688.844 236.032C688.844 235.805 688.617 235.623 688.389 235.623H642.225C641.998 235.623 641.771 235.805 641.771 236.032Z" fill="#D1D3D4"/>
<path d="M641.861 238.214C641.861 238.441 642.089 238.623 642.316 238.623H688.48C688.753 238.623 688.935 238.441 688.935 238.214C688.935 237.987 688.753 237.805 688.48 237.805H642.316C642.089 237.805 641.861 237.987 641.861 238.214Z" fill="#D1D3D4"/>
<path d="M706.247 240.987C706.247 241.215 706.065 241.396 705.792 241.396H659.582C659.31 241.396 659.128 241.215 659.128 240.987C659.128 240.76 659.31 240.578 659.582 240.578H705.747C706.019 240.578 706.247 240.76 706.247 240.987Z" fill="#D1D3D4"/>
<path d="M706.247 243.033C706.247 243.261 706.065 243.442 705.792 243.442H659.582C659.31 243.442 659.128 243.261 659.128 243.033C659.128 242.806 659.31 242.624 659.582 242.624H705.747C706.019 242.624 706.247 242.806 706.247 243.033Z" fill="#D1D3D4"/>
<path d="M706.337 245.125C706.337 245.352 706.155 245.534 705.883 245.534H659.718C659.491 245.534 659.264 245.352 659.264 245.125C659.264 244.898 659.491 244.716 659.718 244.716H705.883C706.11 244.716 706.337 244.898 706.337 245.125Z" fill="#D1D3D4"/>
<path d="M706.247 247.307C706.247 247.534 706.065 247.716 705.792 247.716H659.582C659.31 247.716 659.128 247.534 659.128 247.307C659.128 247.079 659.31 246.897 659.582 246.897H705.747C706.019 246.852 706.247 247.079 706.247 247.307Z" fill="#D1D3D4"/>
<path d="M629.139 218.483C633.078 218.483 636.272 215.267 636.272 211.3C636.272 207.333 633.078 204.117 629.139 204.117C625.199 204.117 622.005 207.333 622.005 211.3C622.005 215.267 625.199 218.483 629.139 218.483Z" fill="url(#paint26_linear)"/>
<path d="M629.23 242.306C632.267 242.306 634.728 239.823 634.728 236.759C634.728 233.696 632.267 231.213 629.23 231.213C626.194 231.213 623.732 233.696 623.732 236.759C623.732 239.823 626.194 242.306 629.23 242.306Z" fill="white"/>
<path d="M701.611 206.799C701.611 206.981 701.429 207.163 701.157 207.163H645.814C645.541 207.163 645.359 206.981 645.359 206.799C645.359 206.617 645.541 206.436 645.814 206.436H701.157C701.384 206.436 701.611 206.572 701.611 206.799Z" fill="white"/>
<path d="M701.475 209.027C701.475 209.209 701.248 209.39 701.021 209.39H645.678C645.405 209.39 645.224 209.209 645.224 209.027C645.224 208.845 645.405 208.663 645.678 208.663H701.021C701.294 208.663 701.475 208.845 701.475 209.027Z" fill="white"/>
<path d="M701.566 211.209C701.566 211.391 701.339 211.573 701.112 211.573H645.769C645.542 211.573 645.314 211.391 645.314 211.209C645.314 211.028 645.542 210.846 645.769 210.846H701.112C701.339 210.846 701.566 211.028 701.566 211.209Z" fill="white"/>
<path d="M701.566 213.437C701.566 213.619 701.339 213.801 701.112 213.801H645.769C645.542 213.801 645.314 213.619 645.314 213.437C645.314 213.255 645.542 213.073 645.769 213.073H701.112C701.339 213.073 701.566 213.255 701.566 213.437Z" fill="white"/>
<path d="M701.475 215.801C701.475 215.983 701.248 216.165 701.021 216.165H645.678C645.405 216.165 645.224 215.983 645.224 215.801C645.224 215.619 645.405 215.438 645.678 215.438H701.021C701.294 215.438 701.475 215.574 701.475 215.801Z" fill="white"/>
<path d="M281.087 304.544C281.087 307.045 279.043 309.091 276.544 309.091H202.026C199.527 309.091 197.482 307.045 197.482 304.544V189.75C197.482 187.25 199.527 185.204 202.026 185.204H276.544C279.043 185.204 281.087 187.25 281.087 189.75V304.544Z" fill="url(#paint27_linear)"/>
<path d="M278.679 202.617C278.679 205.117 276.634 207.163 274.135 207.163H205.388C202.889 207.163 200.845 205.117 200.845 202.617V197.662C200.845 195.161 202.889 193.115 205.388 193.115H274.135C276.634 193.115 278.679 195.161 278.679 197.662V202.617Z" fill="#F1F2F2"/>
<path d="M278.907 212.437C278.907 213.119 278.271 213.71 277.544 213.71H202.435C201.708 213.71 201.072 213.164 201.072 212.437C201.072 211.71 201.708 211.164 202.435 211.164H277.544C278.271 211.164 278.907 211.755 278.907 212.437Z" fill="white"/>
<path d="M278.907 219.256C278.907 219.938 278.271 220.529 277.544 220.529H202.435C201.708 220.529 201.072 219.984 201.072 219.256C201.072 218.529 201.708 217.983 202.435 217.983H277.544C278.271 217.983 278.907 218.574 278.907 219.256Z" fill="white"/>
<path d="M278.225 226.302C278.225 226.984 277.634 227.575 276.862 227.575H201.754C201.027 227.575 200.391 227.03 200.391 226.302C200.391 225.575 201.027 225.029 201.754 225.029H276.862C277.589 225.075 278.225 225.62 278.225 226.302Z" fill="white"/>
<path d="M305.396 271.675C305.396 272.721 306.396 273.585 307.668 273.585H540.672C541.944 273.585 542.944 272.721 542.944 271.675C542.944 270.629 541.944 269.766 540.672 269.766H307.668C306.442 269.766 305.396 270.629 305.396 271.675Z" fill="#F1F2F2"/>
<path d="M305.396 280.677C305.396 281.723 306.396 282.586 307.668 282.586H540.672C541.944 282.586 542.944 281.723 542.944 280.677C542.944 279.631 541.944 278.768 540.672 278.768H307.668C306.442 278.768 305.396 279.631 305.396 280.677Z" fill="#F1F2F2"/>
<path d="M305.396 290.587C305.396 291.633 306.396 292.497 307.668 292.497H540.672C541.944 292.497 542.944 291.633 542.944 290.587C542.944 289.542 541.944 288.678 540.672 288.678H307.668C306.442 288.678 305.396 289.542 305.396 290.587Z" fill="#F1F2F2"/>
<path d="M305.715 300.817C305.715 301.862 306.714 302.726 307.987 302.726H540.99C542.262 302.726 543.262 301.862 543.262 300.817C543.262 299.771 542.262 298.907 540.99 298.907H307.987C306.714 298.907 305.715 299.771 305.715 300.817Z" fill="#F1F2F2"/>
<path d="M202.98 299.498C202.98 301.999 205.025 304.045 207.524 304.045H232.606C235.105 304.045 237.149 301.999 237.149 299.498V236.896C237.149 234.395 235.105 232.35 232.606 232.35H207.524C205.025 232.35 202.98 234.395 202.98 236.896V299.498Z" fill="#F1F2F2"/>
<path d="M242.603 299.134C242.603 301.635 244.647 303.68 247.146 303.68H272.228C274.727 303.68 276.772 301.635 276.772 299.134V236.532C276.772 234.031 274.727 231.985 272.228 231.985H247.146C244.647 231.985 242.603 234.031 242.603 236.532V299.134Z" fill="#F1F2F2"/>
<path d="M296.49 332.322C296.49 334.823 298.535 336.869 301.034 336.869H446.207C448.706 336.869 450.751 334.823 450.751 332.322V325.048C450.751 322.548 448.706 320.502 446.207 320.502H301.034C298.535 320.502 296.49 322.548 296.49 325.048V332.322Z" fill="#F1F2F2"/>
<path d="M296.49 352.599C296.49 355.099 298.535 357.145 301.034 357.145H446.207C448.706 357.145 450.751 355.099 450.751 352.599V345.325C450.751 342.824 448.706 340.778 446.207 340.778H301.034C298.535 340.778 296.49 342.824 296.49 345.325V352.599Z" fill="#F1F2F2"/>
<path d="M296.49 363.646C296.49 364.556 297.308 365.283 298.308 365.283H448.933C449.933 365.283 450.751 364.556 450.751 363.646C450.751 362.737 449.933 362.01 448.933 362.01H298.308C297.308 361.964 296.49 362.737 296.49 363.646Z" fill="#F1F2F2"/>
<path d="M296.81 372.467C296.81 373.376 297.627 374.103 298.627 374.103H449.252C450.252 374.103 451.07 373.376 451.07 372.467C451.07 371.557 450.252 370.83 449.252 370.83H298.627C297.627 370.785 296.81 371.557 296.81 372.467Z" fill="#F1F2F2"/>
<path d="M296.49 381.058C296.49 381.968 297.308 382.695 298.308 382.695H448.933C449.933 382.695 450.751 381.968 450.751 381.058C450.751 380.149 449.933 379.422 448.933 379.422H298.308C297.308 379.376 296.49 380.149 296.49 381.058Z" fill="#F1F2F2"/>
<path d="M454.613 381.696C454.613 384.196 456.658 386.242 459.157 386.242H484.239C486.738 386.242 488.782 384.196 488.782 381.696V324.322C488.782 321.821 486.738 319.775 484.239 319.775H459.157C456.658 319.775 454.613 321.821 454.613 324.322V381.696Z" fill="#F1F2F2"/>
<path d="M571.842 158.563V166.929H184.033V158.563C184.033 156.654 184.578 154.744 185.669 152.971C186.759 151.198 188.35 149.562 190.349 148.243C192.348 146.879 194.756 145.788 197.392 145.061C200.027 144.333 202.844 143.97 205.661 143.97H550.214C553.077 143.97 555.848 144.333 558.484 145.061C561.119 145.788 563.482 146.879 565.481 148.243C567.48 149.607 569.071 151.198 570.161 152.971C571.252 154.744 571.842 156.654 571.842 158.563Z" fill="#7C7D80"/>
<path d="M208.297 160.472C210.706 160.472 212.659 158.518 212.659 156.108C212.659 153.697 210.706 151.743 208.297 151.743C205.887 151.743 203.935 153.697 203.935 156.108C203.935 158.518 205.887 160.472 208.297 160.472Z" fill="url(#paint28_linear)"/>
<path d="M222.7 160.381C225.109 160.381 227.062 158.427 227.062 156.017C227.062 153.606 225.109 151.652 222.7 151.652C220.291 151.652 218.338 153.606 218.338 156.017C218.338 158.427 220.291 160.381 222.7 160.381Z" fill="url(#paint29_linear)"/>
<path d="M237.013 160.381C239.422 160.381 241.375 158.427 241.375 156.017C241.375 153.606 239.422 151.652 237.013 151.652C234.604 151.652 232.651 153.606 232.651 156.017C232.651 158.427 234.604 160.381 237.013 160.381Z" fill="url(#paint30_linear)"/>
<path d="M559.392 156.245C559.392 155.017 558.392 154.062 557.12 154.062H276.271C274.999 154.062 273.999 155.063 273.999 156.245C273.999 157.427 274.999 158.427 276.271 158.427H557.12C558.347 158.472 559.392 157.472 559.392 156.245Z" fill="#D1D3D4"/>
</g>
<defs>
<filter id="filter0_d" x="-10" y="-20" width="787" height="551" filterUnits="userSpaceOnUse" color-interpolation-filters="sRGB">
<feFlood flood-opacity="0" result="BackgroundImageFix"/>
<feColorMatrix in="SourceAlpha" type="matrix" values="0 0 0 0 0 0 0 0 0 0 0 0 0 0 0 0 0 0 127 0" result="hardAlpha"/>
<feOffset dy="10"/>
<feGaussianBlur stdDeviation="15"/>
<feColorMatrix type="matrix" values="0 0 0 0 0 0 0 0 0 0 0 0 0 0 0 0 0 0 0.25 0"/>
<feBlend mode="normal" in2="BackgroundImageFix" result="effect1_dropShadow"/>
<feBlend mode="normal" in="SourceGraphic" in2="effect1_dropShadow" result="shape"/>
</filter>
<linearGradient id="paint0_linear" x1="661.866" y1="273.819" x2="661.953" y2="285.058" gradientUnits="userSpaceOnUse">
<stop stop-color="white"/>
<stop offset="1" stop-color="#494A4B"/>
</linearGradient>
<linearGradient id="paint1_linear" x1="661.582" y1="255.074" x2="661.893" y2="263.637" gradientUnits="userSpaceOnUse">
<stop stop-color="white"/>
<stop offset="1" stop-color="#979899"/>
</linearGradient>
<linearGradient id="paint2_linear" x1="660.609" y1="250.571" x2="663.457" y2="199.745" gradientUnits="userSpaceOnUse">
<stop stop-color="#7DD3F7"/>
<stop offset="1" stop-color="#43B5E8"/>
</linearGradient>
<linearGradient id="paint3_linear" x1="605.309" y1="89.5445" x2="605.286" y2="84.2255" gradientUnits="userSpaceOnUse">
<stop stop-color="white"/>
<stop offset="1" stop-color="#43B5E8"/>
</linearGradient>
<linearGradient id="paint4_linear" x1="598.807" y1="174.313" x2="616.924" y2="89.8209" gradientUnits="userSpaceOnUse">
<stop stop-color="#7DD3F7"/>
<stop offset="1" stop-color="#43B5E8"/>
</linearGradient>
<linearGradient id="paint5_linear" x1="203.428" y1="63.0128" x2="203.409" y2="58.5991" gradientUnits="userSpaceOnUse">
<stop stop-color="white"/>
<stop offset="1" stop-color="#43B5E8"/>
</linearGradient>
<linearGradient id="paint6_linear" x1="198.033" y1="133.351" x2="213.066" y2="63.2412" gradientUnits="userSpaceOnUse">
<stop stop-color="#7DD3F7"/>
<stop offset="1" stop-color="#43B5E8"/>
</linearGradient>
<linearGradient id="paint7_linear" x1="111.391" y1="169.72" x2="115.082" y2="109.748" gradientUnits="userSpaceOnUse">
<stop stop-color="#7DD3F7"/>
<stop offset="1" stop-color="#43B5E8"/>
</linearGradient>
<linearGradient id="paint8_linear" x1="215.56" y1="79.1954" x2="263.652" y2="79.1954" gradientUnits="userSpaceOnUse">
<stop stop-color="#71459B"/>
<stop offset="0.8668" stop-color="#A76CAD"/>
</linearGradient>
<linearGradient id="paint9_linear" x1="190.223" y1="111.324" x2="213.012" y2="111.324" gradientUnits="userSpaceOnUse">
<stop stop-color="#71459B"/>
<stop offset="0.8668" stop-color="#A76CAD"/>
</linearGradient>
<linearGradient id="paint10_linear" x1="589.785" y1="125.754" x2="612.573" y2="125.754" gradientUnits="userSpaceOnUse">
<stop stop-color="#71459B"/>
<stop offset="0.8668" stop-color="#A76CAD"/>
</linearGradient>
<linearGradient id="paint11_linear" x1="589.625" y1="152.705" x2="612.414" y2="152.705" gradientUnits="userSpaceOnUse">
<stop stop-color="#71459B"/>
<stop offset="0.8668" stop-color="#A76CAD"/>
</linearGradient>
<linearGradient id="paint12_linear" x1="586.812" y1="382.349" x2="594.337" y2="382.349" gradientUnits="userSpaceOnUse">
<stop stop-color="#71459B"/>
<stop offset="0.8668" stop-color="#A76CAD"/>
</linearGradient>
<linearGradient id="paint13_linear" x1="126.78" y1="333.95" x2="133.942" y2="333.95" gradientUnits="userSpaceOnUse">
<stop stop-color="#71459B"/>
<stop offset="0.8668" stop-color="#A76CAD"/>
</linearGradient>
<linearGradient id="paint14_linear" x1="132.464" y1="333.849" x2="139.225" y2="333.849" gradientUnits="userSpaceOnUse">
<stop stop-color="#71459B"/>
<stop offset="0.8668" stop-color="#A76CAD"/>
</linearGradient>
<linearGradient id="paint15_linear" x1="75.428" y1="329.734" x2="88.2984" y2="329.734" gradientUnits="userSpaceOnUse">
<stop stop-color="#71459B"/>
<stop offset="0.8668" stop-color="#A76CAD"/>
</linearGradient>
<linearGradient id="paint16_linear" x1="198.65" y1="353.049" x2="281.387" y2="353.049" gradientUnits="userSpaceOnUse">
<stop stop-color="#7DD3F7"/>
<stop offset="1" stop-color="#43B5E8"/>
</linearGradient>
<linearGradient id="paint17_linear" x1="552.796" y1="332.814" x2="495.545" y2="332.814" gradientUnits="userSpaceOnUse">
<stop stop-color="#71459B"/>
<stop offset="0.8668" stop-color="#A76CAD"/>
</linearGradient>
<linearGradient id="paint18_linear" x1="553.975" y1="371.972" x2="495.889" y2="371.972" gradientUnits="userSpaceOnUse">
<stop stop-color="#71459B"/>
<stop offset="0.8668" stop-color="#A76CAD"/>
</linearGradient>
<linearGradient id="paint19_linear" x1="293.208" y1="286.462" x2="551.351" y2="286.462" gradientUnits="userSpaceOnUse">
<stop stop-color="#7DD3F7"/>
<stop offset="1" stop-color="#43B5E8"/>
</linearGradient>
<linearGradient id="paint20_linear" x1="91.0653" y1="122.486" x2="158.344" y2="122.486" gradientUnits="userSpaceOnUse">
<stop stop-color="#71459B"/>
<stop offset="0.8668" stop-color="#A76CAD"/>
</linearGradient>
<linearGradient id="paint21_linear" x1="160.508" y1="151.454" x2="143.994" y2="151.454" gradientUnits="userSpaceOnUse">
<stop stop-color="#7DD3F7"/>
<stop offset="1" stop-color="#43B5E8"/>
</linearGradient>
<linearGradient id="paint22_linear" x1="90.7598" y1="162.555" x2="107.274" y2="162.555" gradientUnits="userSpaceOnUse">
<stop stop-color="#71459B"/>
<stop offset="0.8668" stop-color="#A76CAD"/>
</linearGradient>
<linearGradient id="paint23_linear" x1="642.069" y1="211.456" x2="704.325" y2="211.456" gradientUnits="userSpaceOnUse">
<stop stop-color="#7DD3F7"/>
<stop offset="1" stop-color="#43B5E8"/>
</linearGradient>
<linearGradient id="paint24_linear" x1="619.176" y1="239.667" x2="639.145" y2="239.667" gradientUnits="userSpaceOnUse">
<stop stop-color="#71459B"/>
<stop offset="0.8668" stop-color="#A76CAD"/>
</linearGradient>
<linearGradient id="paint25_linear" x1="706.326" y1="235.132" x2="691.045" y2="235.132" gradientUnits="userSpaceOnUse">
<stop stop-color="#71459B"/>
<stop offset="0.8668" stop-color="#A76CAD"/>
</linearGradient>
<linearGradient id="paint26_linear" x1="621.995" y1="211.302" x2="636.245" y2="211.302" gradientUnits="userSpaceOnUse">
<stop stop-color="#71459B"/>
<stop offset="0.8668" stop-color="#A76CAD"/>
</linearGradient>
<linearGradient id="paint27_linear" x1="197.454" y1="247.139" x2="281.067" y2="247.139" gradientUnits="userSpaceOnUse">
<stop stop-color="#71459B"/>
<stop offset="0.8668" stop-color="#A76CAD"/>
</linearGradient>
<linearGradient id="paint28_linear" x1="203.925" y1="156.096" x2="212.631" y2="156.096" gradientUnits="userSpaceOnUse">
<stop stop-color="#7DD3F7"/>
<stop offset="1" stop-color="#43B5E8"/>
</linearGradient>
<linearGradient id="paint29_linear" x1="218.338" y1="155.997" x2="227.044" y2="155.997" gradientUnits="userSpaceOnUse">
<stop stop-color="#7DD3F7"/>
<stop offset="1" stop-color="#43B5E8"/>
</linearGradient>
<linearGradient id="paint30_linear" x1="232.653" y1="155.997" x2="241.358" y2="155.997" gradientUnits="userSpaceOnUse">
<stop stop-color="#7DD3F7"/>
<stop offset="1" stop-color="#43B5E8"/>
</linearGradient>
</defs>
</svg>
