<svg width="677" height="452" viewBox="0 0 677 452" fill="none" xmlns="http://www.w3.org/2000/svg">
<g filter="url(#filter0_d)">
<path d="M344.757 379.889C521.169 379.889 664.179 366.941 664.179 350.969C664.179 334.998 521.169 322.05 344.757 322.05C168.345 322.05 25.3345 334.998 25.3345 350.969C25.3345 366.941 168.345 379.889 344.757 379.889Z" fill="#8ED8F8"/>
<path d="M239.191 110.489C239.191 110.489 229.182 81.7784 194.217 73.6592" stroke="#808285" stroke-miterlimit="10" stroke-dasharray="6 6"/>
<path d="M150.499 179.168C150.499 179.168 115.533 179.168 104.897 154.811" stroke="#808285" stroke-miterlimit="10" stroke-dasharray="6 6"/>
<path d="M151.755 234.077C151.755 234.077 121.773 249.06 101.798 234.705" stroke="#808285" stroke-miterlimit="10" stroke-dasharray="6 6"/>
<path d="M147.986 246.591C147.986 246.591 106.739 249.102 84.8804 278.44" stroke="#808285" stroke-miterlimit="10" stroke-dasharray="6 6"/>
<path d="M462.844 106.094C462.844 106.094 459.704 49.3015 519.082 63.6567" stroke="#808285" stroke-miterlimit="10" stroke-dasharray="6 6"/>
<path d="M514.686 164.185C514.686 164.185 532.817 162.302 542.784 174.188" stroke="#808285" stroke-miterlimit="10" stroke-dasharray="6 6"/>
<path d="M514.058 217.253C514.058 217.253 535.288 222.861 546.553 247.219" stroke="#808285" stroke-miterlimit="10" stroke-dasharray="6 6"/>
<path d="M512.174 313.387C512.174 313.387 552.164 307.151 549.652 324.017" stroke="#808285" stroke-miterlimit="10" stroke-dasharray="6 6"/>
<path d="M511.588 355.281C511.588 357.583 509.703 359.466 507.4 359.466H158.372C156.069 359.466 154.185 357.583 154.185 355.281V133.884C154.185 131.583 156.069 129.699 158.372 129.699H507.442C509.745 129.699 511.63 131.583 511.63 133.884V355.281H511.588Z" fill="#7C7D80"/>
<path d="M602.414 244.122H586.962L588.595 242.071C589.851 240.523 590.521 238.597 590.521 236.589V222.233H598.813V236.589C598.813 238.597 599.483 240.523 600.739 242.071L602.414 244.122Z" fill="#E6E7E8"/>
<path d="M602.414 244.122H586.962V245.419H602.414V244.122Z" fill="url(#paint0_linear)"/>
<path d="M598.855 223.865V235.04L590.563 231.984V223.865H598.855Z" fill="url(#paint1_linear)"/>
<path d="M639.055 168.621V216.626H550.363V168.621C550.363 168.454 550.405 168.329 550.447 168.161C550.531 167.91 550.698 167.701 550.949 167.533C551.159 167.366 551.452 167.282 551.703 167.282H637.756C637.924 167.282 638.091 167.324 638.259 167.366C638.426 167.408 638.552 167.533 638.678 167.659C638.803 167.784 638.887 167.91 638.971 168.077C639.013 168.287 639.055 168.454 639.055 168.621Z" fill="#231F20"/>
<path d="M550.363 216.667H639.055V225.54C639.055 226.167 638.803 226.711 638.385 227.172C637.966 227.59 637.38 227.841 636.751 227.841H552.666C552.038 227.841 551.494 227.59 551.033 227.172C550.615 226.753 550.363 226.167 550.363 225.54V216.667Z" fill="#E6E7E8"/>
<path d="M637.003 171.468C637.003 170.296 636.081 169.375 634.909 169.375H554.551C553.378 169.375 552.457 170.296 552.457 171.468V212.692C552.457 213.863 553.378 214.784 554.551 214.784H634.909C636.081 214.784 637.003 213.822 637.003 212.692V171.468Z" fill="url(#paint2_linear)"/>
<path d="M596.929 222.778C597.222 221.564 596.468 220.35 595.254 220.057C594.04 219.764 592.825 220.518 592.532 221.731C592.239 222.945 592.993 224.159 594.207 224.452C595.421 224.745 596.636 223.991 596.929 222.778Z" fill="#231F20"/>
<path d="M552.29 67.8008H532.734V73.4089H552.29V67.8008Z" fill="url(#paint3_linear)"/>
<path d="M561.125 66.5029H528.086C527.583 66.5029 527.039 66.5866 526.578 66.7959C526.076 67.0052 525.657 67.2981 525.28 67.6748C524.903 68.0514 524.61 68.47 524.401 68.9722C524.191 69.4744 524.107 69.9766 524.107 70.4789V143.552C524.107 144.598 524.526 145.603 525.28 146.356C526.034 147.11 527.039 147.528 528.086 147.528H561.125C561.627 147.528 562.172 147.444 562.632 147.235C563.135 147.026 563.554 146.733 563.931 146.356C564.307 145.98 564.601 145.561 564.81 145.059C565.019 144.557 565.103 144.054 565.103 143.552V70.4789C565.103 69.9348 565.019 69.4326 564.81 68.9722C564.601 68.47 564.307 68.0514 563.931 67.6748C563.554 67.2981 563.135 67.0052 562.632 66.7959C562.13 66.5866 561.627 66.5029 561.125 66.5029ZM539.015 68.5955C539.015 68.5118 539.057 68.4281 539.099 68.3863C539.141 68.3444 539.141 68.3444 539.182 68.3026C539.224 68.3026 539.266 68.2607 539.308 68.2607H548.353C548.395 68.2607 548.437 68.2607 548.479 68.3026C548.521 68.3026 548.562 68.3444 548.562 68.3863C548.604 68.4281 548.604 68.4281 548.646 68.47C548.646 68.5118 548.688 68.5537 548.688 68.5955C548.688 68.6792 548.646 68.7629 548.604 68.8048C548.562 68.8466 548.479 68.8885 548.395 68.8885H539.35C539.308 68.8885 539.266 68.8885 539.224 68.8466C539.182 68.8466 539.141 68.8048 539.141 68.7629C539.099 68.7211 539.099 68.7211 539.057 68.6792C539.015 68.6792 539.015 68.6374 539.015 68.5955ZM549.567 68.5955C549.567 68.5537 549.567 68.47 549.609 68.4281C549.651 68.3863 549.693 68.3444 549.735 68.3026C549.777 68.2607 549.861 68.2607 549.902 68.3026C549.944 68.3026 550.028 68.3444 550.07 68.3863C550.112 68.4281 550.154 68.47 550.154 68.5537C550.154 68.5955 550.154 68.6792 550.154 68.7211C550.112 68.7629 550.112 68.8048 550.028 68.8466C549.986 68.8885 549.902 68.8885 549.861 68.8885C549.777 68.8885 549.693 68.8466 549.651 68.8048C549.609 68.7629 549.567 68.6792 549.567 68.5955Z" fill="#231F20"/>
<path d="M554.132 67.7158C552.834 69.5992 550.573 70.7292 548.144 70.7292H541.067C538.638 70.7292 536.377 69.5992 535.079 67.7158H527.625C527.374 67.7158 527.081 67.7577 526.829 67.8832C526.578 67.9669 526.369 68.1343 526.159 68.3436C525.95 68.5529 525.824 68.7621 525.699 69.0132C525.615 69.2643 525.531 69.5154 525.531 69.8084V144.012C525.531 144.263 525.573 144.556 525.699 144.807C525.783 145.058 525.95 145.267 526.159 145.477C526.369 145.686 526.578 145.811 526.829 145.937C527.081 146.021 527.332 146.104 527.625 146.104H561.586C562.13 146.104 562.674 145.895 563.051 145.477C563.428 145.1 563.679 144.556 563.679 144.012V69.8084C563.679 69.5154 563.637 69.2643 563.512 69.0132C563.428 68.7621 563.261 68.5529 563.051 68.3436C562.842 68.1343 562.633 68.0088 562.381 67.8832C562.13 67.7995 561.879 67.7158 561.586 67.7158H554.132Z" fill="url(#paint4_linear)"/>
<path d="M535.079 67.7158C535.121 67.7577 535.121 67.7995 535.163 67.7995C535.205 67.8414 535.247 67.9251 535.288 67.9669C535.33 68.0088 535.372 68.0925 535.414 68.1343C535.456 68.1762 535.498 68.218 535.54 68.3017C535.582 68.3436 535.623 68.4273 535.665 68.4692C535.707 68.511 535.749 68.5529 535.791 68.6366C535.833 68.6784 535.875 68.7203 535.958 68.804C536.042 68.8877 536.168 68.9714 536.252 69.0969C536.293 69.1388 536.377 69.1806 536.419 69.2225L536.587 69.348C536.628 69.3899 536.712 69.4317 536.754 69.4736C536.796 69.5154 536.88 69.5573 536.922 69.5992C536.963 69.641 537.047 69.6829 537.089 69.7247C537.215 69.8084 537.34 69.8503 537.466 69.934C537.508 69.9758 537.592 70.0177 537.675 70.0177C537.717 70.0595 537.801 70.0595 537.885 70.1014C537.968 70.1432 538.01 70.1432 538.094 70.1851C538.22 70.2269 538.345 70.3106 538.513 70.3525C538.597 70.3943 538.638 70.3943 538.722 70.4362C538.806 70.478 538.932 70.478 539.015 70.5199H539.057C539.141 70.5617 539.267 70.5617 539.35 70.6036C539.434 70.6036 539.476 70.6454 539.56 70.6454C539.643 70.6454 539.685 70.6873 539.769 70.6873C539.811 70.6873 539.811 70.6873 539.853 70.6873C539.895 70.6873 539.937 70.6873 539.978 70.6873C540.02 70.6873 540.062 70.6873 540.104 70.6873H540.272C540.313 70.6873 540.397 70.6873 540.439 70.6873C540.565 70.6873 540.69 70.6873 540.816 70.7291C540.9 70.7291 541.025 70.7291 541.109 70.7291H548.186C548.27 70.7291 548.353 70.7291 548.437 70.7291C548.563 70.7291 548.688 70.7291 548.772 70.7291C548.856 70.7291 548.94 70.7291 549.023 70.6873C549.065 70.6873 549.107 70.6873 549.149 70.6873C549.191 70.6873 549.275 70.6873 549.317 70.6454C549.4 70.6454 549.484 70.6036 549.61 70.6036C549.693 70.6036 549.777 70.5617 549.861 70.5617C549.945 70.5617 550.028 70.5199 550.154 70.478C550.238 70.4362 550.322 70.4362 550.405 70.3943C550.489 70.3525 550.615 70.3525 550.698 70.3106C550.782 70.2688 550.824 70.2688 550.908 70.2269C550.95 70.1851 551.033 70.1851 551.075 70.1432C551.243 70.0595 551.41 69.9758 551.578 69.8921C551.662 69.8503 551.703 69.8084 551.787 69.8084C551.829 69.7666 551.913 69.7247 551.955 69.7247C551.997 69.6829 552.08 69.641 552.122 69.5992C552.164 69.5573 552.248 69.5154 552.29 69.4736C552.332 69.4317 552.415 69.3899 552.457 69.348C552.499 69.3062 552.583 69.2643 552.625 69.2225C552.708 69.1388 552.792 69.0969 552.876 69.0132C552.96 68.9295 553.043 68.8877 553.127 68.804C553.169 68.7621 553.211 68.7203 553.253 68.6784C553.295 68.6366 553.378 68.5529 553.42 68.511C553.462 68.4692 553.546 68.3854 553.588 68.3436C553.63 68.3017 553.672 68.2599 553.713 68.218C553.755 68.1762 553.797 68.0925 553.881 68.0506C553.965 67.9251 554.048 67.8414 554.132 67.7158H535.079ZM548.563 68.804C548.521 68.8458 548.521 68.8458 548.479 68.8877C548.437 68.8877 548.395 68.9295 548.353 68.9295H539.308C539.267 68.9295 539.225 68.9295 539.183 68.8877C539.141 68.8877 539.099 68.8458 539.099 68.804C539.057 68.7621 539.057 68.7621 539.015 68.7203C538.973 68.6784 538.973 68.6366 538.973 68.5947C538.973 68.511 539.015 68.4273 539.057 68.3854C539.099 68.3436 539.099 68.3436 539.141 68.3017C539.183 68.3017 539.225 68.2599 539.267 68.2599H548.312C548.395 68.2599 548.479 68.3017 548.521 68.3436C548.563 68.3854 548.605 68.4692 548.605 68.5529C548.605 68.5947 548.605 68.6366 548.563 68.6784C548.521 68.7203 548.605 68.804 548.563 68.804ZM549.861 68.8877C549.819 68.8877 549.735 68.8877 549.693 68.8458C549.652 68.804 549.61 68.7621 549.568 68.7203C549.526 68.6784 549.526 68.5947 549.568 68.5529C549.568 68.511 549.61 68.4273 549.652 68.3854C549.693 68.3436 549.735 68.3017 549.819 68.3017C549.861 68.3017 549.945 68.3017 549.987 68.3017C550.028 68.3436 550.07 68.3436 550.112 68.4273C550.154 68.4692 550.154 68.5529 550.154 68.5947C550.154 68.6366 550.154 68.6784 550.112 68.7203C550.112 68.7621 550.07 68.804 550.028 68.804C549.987 68.8458 549.987 68.8458 549.945 68.8877C549.945 68.8877 549.903 68.8877 549.861 68.8877Z" fill="#231F20"/>
<path d="M180.272 43.1504H164.024V47.8378H180.272V43.1504Z" fill="url(#paint5_linear)"/>
<path d="M187.558 42.0615H160.13C159.712 42.0615 159.251 42.1452 158.874 42.3126C158.455 42.48 158.12 42.7312 157.785 43.0241C157.492 43.3171 157.241 43.6937 157.074 44.1123C156.906 44.5308 156.822 44.9493 156.822 45.3678V106.011C156.822 106.89 157.157 107.727 157.785 108.355C158.414 108.983 159.251 109.317 160.13 109.317H187.558C187.977 109.317 188.438 109.234 188.815 109.066C189.233 108.899 189.568 108.648 189.903 108.355C190.197 108.062 190.448 107.685 190.615 107.267C190.783 106.848 190.867 106.43 190.867 106.011V45.3678C190.867 44.9493 190.783 44.4889 190.615 44.1123C190.448 43.6937 190.197 43.3589 189.903 43.0241C189.61 42.7312 189.233 42.48 188.815 42.3126C188.438 42.1452 188.019 42.0615 187.558 42.0615ZM169.259 43.8193C169.259 43.7356 169.301 43.6937 169.343 43.6519C169.385 43.61 169.385 43.61 169.427 43.61C169.469 43.61 169.469 43.61 169.51 43.61H177.006C177.048 43.61 177.09 43.61 177.09 43.61C177.132 43.61 177.132 43.6519 177.174 43.6519C177.215 43.6937 177.215 43.6937 177.215 43.7356C177.215 43.7774 177.215 43.7774 177.215 43.8193C177.215 43.903 177.174 43.9449 177.132 43.9867C177.09 44.0286 177.006 44.0704 176.964 44.0704H169.469C169.427 44.0704 169.385 44.0704 169.385 44.0704C169.343 44.0704 169.343 44.0286 169.301 44.0286C169.259 43.9867 169.259 43.9867 169.259 43.9449C169.259 43.903 169.259 43.8612 169.259 43.8193ZM178.011 43.8193C178.011 43.7774 178.011 43.7356 178.053 43.6937C178.095 43.6519 178.137 43.61 178.178 43.61C178.22 43.61 178.262 43.5682 178.304 43.61C178.346 43.61 178.388 43.6519 178.43 43.6937C178.472 43.7356 178.472 43.7774 178.513 43.8193C178.513 43.8612 178.513 43.903 178.513 43.9449C178.513 43.9867 178.472 44.0286 178.43 44.0704C178.388 44.1123 178.346 44.1123 178.304 44.1123C178.22 44.1123 178.178 44.0704 178.137 44.0286C178.011 43.9449 178.011 43.903 178.011 43.8193Z" fill="#231F20"/>
<path d="M181.78 43.0654C180.692 44.6139 178.807 45.5765 176.797 45.5765H170.935C168.925 45.5765 167.04 44.6139 165.951 43.0654H159.754C159.545 43.0654 159.293 43.1073 159.084 43.191C158.875 43.2747 158.665 43.4002 158.54 43.5677C158.372 43.7351 158.246 43.9025 158.163 44.1117C158.079 44.321 158.037 44.5302 158.037 44.7814V106.387C158.037 106.597 158.079 106.848 158.163 107.057C158.246 107.266 158.372 107.475 158.54 107.601C158.707 107.768 158.875 107.894 159.084 107.978C159.293 108.061 159.503 108.103 159.754 108.103H187.936C188.397 108.103 188.815 107.936 189.15 107.601C189.485 107.266 189.653 106.848 189.653 106.387V44.8232C189.653 44.6139 189.611 44.3628 189.527 44.1536C189.443 43.9443 189.318 43.7351 189.15 43.6095C188.983 43.4421 188.815 43.3165 188.606 43.2328C188.397 43.1491 188.187 43.1073 187.936 43.1073H181.78V43.0654Z" fill="url(#paint6_linear)"/>
<path d="M165.951 43.0654C165.951 43.1073 165.993 43.1073 165.993 43.1491C166.035 43.191 166.077 43.2328 166.119 43.3165C166.161 43.3584 166.202 43.4002 166.202 43.4421C166.244 43.4839 166.286 43.5258 166.328 43.5677C166.37 43.6095 166.412 43.6514 166.454 43.6932C166.496 43.7351 166.537 43.7769 166.579 43.8188C166.621 43.8606 166.663 43.9025 166.705 43.9443C166.789 44.028 166.872 44.1117 166.956 44.1954C166.998 44.2373 167.04 44.2791 167.082 44.321L167.207 44.4465C167.249 44.4884 167.291 44.5302 167.333 44.5302C167.375 44.5721 167.417 44.6139 167.501 44.6139C167.542 44.6558 167.584 44.6558 167.668 44.6977C167.752 44.7395 167.877 44.8232 167.961 44.8651C168.003 44.9069 168.045 44.9069 168.129 44.9488C168.171 44.9906 168.254 44.9906 168.296 45.0325C168.338 45.0743 168.422 45.0743 168.464 45.1162C168.589 45.158 168.673 45.1999 168.799 45.2417C168.841 45.2417 168.924 45.2836 168.966 45.2836C169.05 45.3254 169.134 45.3254 169.217 45.3673H169.259C169.343 45.4091 169.427 45.4091 169.511 45.451C169.552 45.451 169.636 45.4928 169.678 45.4928C169.72 45.4928 169.804 45.5347 169.846 45.5347C169.887 45.5347 169.887 45.5347 169.929 45.5347C169.971 45.5347 170.013 45.5347 170.013 45.5347C170.055 45.5347 170.055 45.5347 170.097 45.5347H170.222C170.264 45.5347 170.306 45.5347 170.348 45.5347C170.432 45.5347 170.557 45.5347 170.641 45.5347C170.725 45.5347 170.809 45.5347 170.892 45.5347H176.755C176.839 45.5347 176.922 45.5347 176.964 45.5347C177.048 45.5347 177.174 45.5347 177.257 45.5347C177.341 45.5347 177.383 45.5347 177.467 45.5347C177.509 45.5347 177.509 45.5347 177.551 45.5347C177.592 45.5347 177.634 45.5347 177.676 45.5347C177.76 45.5347 177.844 45.4928 177.886 45.4928C177.969 45.4928 178.011 45.451 178.095 45.451C178.179 45.451 178.262 45.4091 178.346 45.4091C178.43 45.4091 178.514 45.3673 178.556 45.3673C178.639 45.3254 178.723 45.3254 178.807 45.2836C178.849 45.2417 178.932 45.2417 178.974 45.1999C179.016 45.1999 179.058 45.158 179.142 45.158C179.267 45.1162 179.435 45.0325 179.561 44.9488C179.602 44.9069 179.686 44.9069 179.728 44.8651C179.77 44.8232 179.812 44.8232 179.896 44.7814C179.937 44.7395 179.979 44.7395 180.063 44.6977C180.105 44.6558 180.147 44.6139 180.231 44.6139C180.272 44.5721 180.314 44.5721 180.356 44.5302C180.398 44.4884 180.44 44.4465 180.482 44.4465C180.566 44.4047 180.607 44.321 180.691 44.2791C180.775 44.2373 180.817 44.1536 180.901 44.1117C180.942 44.0699 180.984 44.028 181.026 44.028C181.068 43.9862 181.11 43.9443 181.152 43.9025C181.194 43.8606 181.236 43.8188 181.277 43.7769C181.319 43.7351 181.361 43.6932 181.361 43.6514C181.403 43.6095 181.445 43.5677 181.487 43.4839C181.571 43.4002 181.612 43.3165 181.696 43.191L165.951 43.0654ZM177.174 43.9862C177.132 44.028 177.132 44.028 177.09 44.028C177.048 44.028 177.048 44.028 177.006 44.028H169.511C169.469 44.028 169.427 44.028 169.427 44.028C169.385 44.028 169.385 43.9862 169.343 43.9862C169.301 43.9443 169.301 43.9443 169.301 43.9025C169.301 43.8606 169.301 43.8606 169.301 43.8188C169.301 43.7351 169.343 43.6932 169.385 43.6514C169.427 43.6095 169.427 43.6095 169.469 43.6095C169.511 43.6095 169.511 43.6095 169.552 43.6095H177.048C177.132 43.6095 177.174 43.6514 177.216 43.6932C177.257 43.7351 177.299 43.8188 177.299 43.8606C177.299 43.9025 177.299 43.9443 177.299 43.9443C177.216 43.9443 177.174 43.9862 177.174 43.9862ZM178.221 44.0699C178.179 44.0699 178.137 44.0699 178.095 44.028C178.053 43.9862 178.011 43.9443 178.011 43.9025C178.011 43.8606 177.969 43.8188 178.011 43.7769C178.011 43.7351 178.053 43.6932 178.095 43.6514C178.137 43.6095 178.179 43.6095 178.221 43.5677C178.262 43.5677 178.304 43.5677 178.346 43.5677C178.388 43.5677 178.43 43.6095 178.472 43.6514C178.514 43.6932 178.514 43.7351 178.514 43.7769C178.514 43.8188 178.514 43.8606 178.514 43.8606C178.514 43.9025 178.472 43.9025 178.472 43.9443C178.43 43.9862 178.43 43.9862 178.388 43.9862C178.304 44.0699 178.262 44.0699 178.221 44.0699Z" fill="#231F20"/>
<path d="M46.7328 83.6621H131.237C132.87 83.6621 134.419 84.2899 135.592 85.4617C136.764 86.6336 137.392 88.1821 137.392 89.8143V145.896H40.5771V89.8143C40.5771 88.1821 41.2053 86.6336 42.3778 85.4617C43.5084 84.2899 45.0996 83.6621 46.7328 83.6621Z" fill="#231F20"/>
<path d="M134.586 90.861C134.586 88.5591 132.702 86.6758 130.399 86.6758H47.5283C45.2252 86.6758 43.3408 88.5591 43.3408 90.861V136.312C43.3408 138.614 45.2252 140.497 47.5283 140.497H130.399C132.702 140.497 134.586 138.614 134.586 136.312V90.861Z" fill="url(#paint7_linear)"/>
<path d="M137.35 143.553H40.5771V145.896H137.35V143.553Z" fill="white"/>
<path d="M38.1483 150.124H139.779C140.91 150.124 141.956 149.663 142.752 148.868C143.548 148.073 144.008 146.985 144.008 145.896H33.9189C33.9189 147.026 34.3796 148.073 35.1752 148.868C35.9708 149.663 37.0177 150.124 38.1483 150.124Z" fill="#E6E7E8"/>
<path d="M95.3495 147.696H82.4939C82.0332 147.696 81.5726 147.487 81.1957 147.152C80.8607 146.817 80.6514 146.357 80.6514 145.854H97.1501C97.1501 146.106 97.1082 146.315 97.0245 146.566C96.9407 146.817 96.8151 146.984 96.6476 147.152C96.4801 147.319 96.2707 147.445 96.0614 147.529C95.8101 147.654 95.5589 147.696 95.3495 147.696Z" fill="#676767"/>
<path d="M47.3188 86.2567C47.3188 86.2567 43.2569 85.7545 42.9219 89.2282" stroke="#231F20" stroke-width="3" stroke-miterlimit="10"/>
<path opacity="0.7" d="M12.3115 204.447V179.042C12.3115 178.289 12.6046 177.578 13.1071 177.075C13.6096 176.573 14.3215 176.28 15.0753 176.28H91.7065C92.4603 176.28 93.1721 176.573 93.6746 177.075C94.1771 177.578 94.4703 178.289 94.4703 179.042V197.332C94.4703 198.085 94.1771 198.797 93.6746 199.299C93.1721 199.801 92.4603 200.094 91.7065 200.094H17.504C17.1271 200.094 16.7503 200.178 16.3734 200.345C16.0384 200.512 15.7034 200.722 15.4521 201.015L12.3115 204.447Z" fill="#43B5E8"/>
<path opacity="0.7" d="M12.6885 248.516V226.921C12.6885 226.293 12.9816 225.707 13.4841 225.247C13.9866 224.786 14.6985 224.535 15.4522 224.535H92.0835C92.8372 224.535 93.5491 224.786 94.0516 225.247C94.5541 225.707 94.8472 226.293 94.8472 226.921V242.49C94.8472 243.117 94.5541 243.703 94.0516 244.164C93.5491 244.624 92.8372 244.875 92.0835 244.875H17.9229C17.546 244.875 17.1691 244.959 16.7922 245.084C16.4572 245.21 16.1222 245.419 15.871 245.629L12.6885 248.516Z" fill="#43B5E8"/>
<path opacity="0.7" d="M139.988 223.196V206.288C139.988 205.786 139.695 205.325 139.193 204.99C138.69 204.656 137.978 204.446 137.225 204.446H60.5933C59.8396 204.446 59.1277 204.656 58.6252 204.99C58.1227 205.325 57.8296 205.827 57.8296 206.288V218.467C57.8296 218.969 58.1227 219.429 58.6252 219.764C59.1277 220.099 59.8396 220.308 60.5933 220.308H134.796C135.173 220.308 135.55 220.35 135.926 220.476C136.261 220.559 136.596 220.727 136.848 220.894L139.988 223.196Z" fill="#97C7EB"/>
<path d="M183.329 66.9216V49.009C183.329 48.5068 183.497 48.0046 183.79 47.6279C184.083 47.2513 184.46 47.042 184.837 47.042H226.125C226.544 47.042 226.921 47.2513 227.172 47.6279C227.465 48.0046 227.633 48.5068 227.633 49.009V61.9412C227.633 62.4435 227.465 62.9457 227.172 63.3224C226.879 63.699 226.502 63.9083 226.125 63.9083H186.135C185.925 63.9083 185.716 63.9501 185.548 64.0757C185.339 64.2013 185.172 64.3268 185.046 64.5361L183.329 66.9216Z" fill="url(#paint8_linear)"/>
<path d="M159.963 91.2368V82.7409C159.963 82.4898 160.047 82.2387 160.172 82.0713C160.298 81.9039 160.507 81.7783 160.675 81.7783H180.272C180.482 81.7783 180.649 81.862 180.775 82.0713C180.9 82.2387 180.984 82.4898 180.984 82.7409V88.8513C180.984 89.1024 180.9 89.3535 180.775 89.5209C180.649 89.6883 180.44 89.8139 180.272 89.8139H161.303C161.219 89.8139 161.094 89.8557 161.01 89.8976C160.926 89.9394 160.842 90.0231 160.759 90.1068L159.963 91.2368Z" fill="url(#paint9_linear)"/>
<path d="M528.211 104.546V96.0505C528.211 95.7994 528.295 95.5483 528.42 95.3809C528.546 95.2134 528.755 95.0879 528.923 95.0879H548.52C548.73 95.0879 548.897 95.1716 549.023 95.3809C549.148 95.5483 549.232 95.7994 549.232 96.0505V102.161C549.232 102.412 549.148 102.663 549.023 102.83C548.897 102.998 548.688 103.123 548.52 103.123H529.551C529.467 103.123 529.342 103.165 529.258 103.207C529.174 103.249 529.09 103.333 529.007 103.416L528.211 104.546Z" fill="url(#paint10_linear)"/>
<path d="M528.044 129.365V120.869C528.044 120.618 528.128 120.367 528.253 120.199C528.379 120.032 528.588 119.906 528.756 119.906H548.353C548.563 119.906 548.73 119.99 548.856 120.199C548.981 120.367 549.065 120.618 549.065 120.869V126.979C549.065 127.23 548.981 127.481 548.856 127.649C548.73 127.816 548.521 127.942 548.353 127.942H529.384C529.3 127.942 529.175 127.984 529.091 128.026C529.007 128.067 528.923 128.151 528.84 128.235L528.044 129.365Z" fill="url(#paint11_linear)"/>
<path d="M532.734 92.6189V75.7526C532.734 75.2504 532.566 74.79 532.231 74.4552C531.896 74.1204 531.436 73.9111 530.975 73.9111H481.981C481.521 73.9111 481.06 74.1204 480.725 74.4552C480.39 74.79 480.223 75.2922 480.223 75.7526V87.9315C480.223 88.4337 480.39 88.8941 480.725 89.2289C481.06 89.5637 481.521 89.773 481.981 89.773H529.426C529.677 89.773 529.928 89.8148 530.138 89.9404C530.347 90.0241 530.556 90.1915 530.724 90.3589L532.734 92.6189Z" fill="#ABE1FA"/>
<path d="M560.245 117.772V108.69C560.245 108.439 560.161 108.188 559.952 107.979C559.784 107.811 559.533 107.686 559.282 107.686H532.943C532.691 107.686 532.44 107.811 532.273 107.979C532.105 108.146 531.979 108.439 531.979 108.69V115.219C531.979 115.47 532.063 115.721 532.273 115.93C532.44 116.098 532.691 116.223 532.943 116.223H558.444C558.57 116.223 558.696 116.265 558.821 116.307C558.947 116.349 559.031 116.433 559.156 116.558L560.245 117.772Z" fill="#ABE1FA"/>
<path d="M188.437 78.766V69.6841C188.437 69.433 188.354 69.1819 188.144 68.9726C187.977 68.8052 187.726 68.6797 187.474 68.6797H161.135C160.884 68.6797 160.633 68.8052 160.465 68.9726C160.298 69.1401 160.172 69.433 160.172 69.6841V76.213C160.172 76.4641 160.256 76.7152 160.465 76.9245C160.633 77.0919 160.884 77.2175 161.135 77.2175H186.637C186.762 77.2175 186.888 77.2593 187.014 77.3012C187.139 77.343 187.223 77.4267 187.349 77.5523L188.437 78.766Z" fill="#ABE1FA"/>
<path d="M188.061 103.792V94.7105C188.061 94.4594 187.977 94.2083 187.768 93.999C187.6 93.8316 187.349 93.7061 187.098 93.7061H160.8C160.549 93.7061 160.298 93.8316 160.13 93.999C159.963 94.1664 159.837 94.4594 159.837 94.7105V101.239C159.837 101.49 159.921 101.742 160.13 101.951C160.298 102.118 160.549 102.244 160.8 102.244H186.302C186.428 102.244 186.553 102.286 186.679 102.328C186.804 102.369 186.888 102.453 187.014 102.579L188.061 103.792Z" fill="#ABE1FA"/>
<path opacity="0.7" d="M521.553 275.847V257.181C521.553 256.637 521.762 256.134 522.139 255.716C522.516 255.339 523.06 255.13 523.605 255.13H579.927C580.471 255.13 580.973 255.339 581.392 255.716C581.769 256.092 581.978 256.637 581.978 257.181V270.615C581.978 271.159 581.769 271.661 581.392 272.08C581.015 272.457 580.471 272.666 579.927 272.666H525.405C525.112 272.666 524.861 272.708 524.568 272.833C524.316 272.959 524.065 273.126 523.898 273.335L521.553 275.847Z" fill="#43B5E8"/>
<path opacity="0.7" d="M521.846 308.198V292.336C521.846 291.876 522.055 291.415 522.432 291.122C522.809 290.788 523.353 290.62 523.898 290.62H580.219C580.764 290.62 581.266 290.788 581.685 291.122C582.062 291.457 582.271 291.876 582.271 292.336V303.762C582.271 304.222 582.062 304.682 581.685 304.975C581.308 305.31 580.764 305.478 580.219 305.478H525.698C525.405 305.478 525.154 305.519 524.861 305.603C524.609 305.687 524.358 305.854 524.191 306.022L521.846 308.198Z" fill="#43B5E8"/>
<path opacity="0.7" d="M615.352 289.616V277.228C615.352 276.851 615.143 276.516 614.766 276.265C614.389 276.014 613.845 275.847 613.301 275.847H556.979C556.434 275.847 555.932 275.972 555.513 276.265C555.136 276.516 554.927 276.851 554.927 277.228V286.184C554.927 286.561 555.136 286.896 555.513 287.147C555.89 287.398 556.434 287.565 556.979 287.565H611.5C611.793 287.565 612.044 287.607 612.337 287.691C612.589 287.774 612.84 287.858 613.007 288.026L615.352 289.616Z" fill="#97C7EB"/>
<path d="M539.852 337.829C539.852 337.871 539.726 338.122 539.601 338.415C539.475 338.75 539.266 339.168 539.098 339.629C538.512 340.968 537.842 342.558 537.842 342.558C536.837 342.182 535.958 341.47 535.372 340.591C534.492 339.21 531.352 337.285 531.352 337.285L531.477 335.82L531.603 334.313H538.01C538.01 334.313 539.308 336.49 539.727 337.411C539.81 337.536 539.852 337.703 539.852 337.829Z" fill="#010101"/>
<path d="M587.842 352.016C587.842 352.016 598.52 354.109 603.042 352.519C607.565 350.928 627.079 335.82 628.837 336.406C630.596 336.992 638.259 341.637 638.259 341.637C638.259 341.637 631.727 332.639 629.466 332.011C627.204 331.383 607.984 341.595 601.996 343.395C596.929 344.943 581.226 340.926 581.226 340.926L587.842 352.016Z" fill="#E6E7E8"/>
<path d="M639.39 353.062C639.39 353.062 632.941 346.868 631.35 345.905C630.47 345.361 622.975 348.417 615.772 351.304C610.161 353.564 604.717 355.699 602.623 355.95C597.892 356.494 587.925 352.1 587.925 352.1L585.12 343.52L583.905 339.837C583.905 339.837 585.371 340.59 587.548 341.595C588.805 342.181 590.312 342.85 591.903 343.52C596.133 345.278 600.99 346.994 603.628 346.826C609.868 346.366 630.847 340.674 632.941 341.762C635.035 342.85 639.39 353.062 639.39 353.062Z" fill="#E6E7E8"/>
<path d="M533.655 332.304C533.53 333.015 533.32 333.685 533.027 334.355C532.734 335.024 532.399 335.652 532.022 336.28C531.813 336.657 531.562 336.991 531.352 337.326C530.85 338.08 530.389 338.707 530.138 339.042C528.63 341.051 526.746 339.126 524.945 336.698C523.94 335.234 523.103 333.685 522.475 332.053C522.056 331.048 521.847 330.379 521.847 330.379C521.847 330.379 525.657 326.152 525.95 325.984C525.992 325.984 526.076 325.943 526.118 325.984C526.662 326.026 527.207 326.11 527.709 326.194C528.463 326.319 529.175 326.487 529.175 326.487C530.012 327.114 530.808 327.784 531.562 328.537C532.692 329.709 533.823 331.174 533.655 332.304Z" fill="#E6E7E8"/>
<path d="M539.727 337.452C539.727 337.787 539.685 338.121 539.602 338.456C539.56 338.875 539.35 339.293 539.099 339.67C538.974 339.796 538.806 339.921 538.597 339.963C538.387 340.005 538.178 339.963 538.01 339.879C536.88 339.503 534.367 337.996 532.022 336.28C531.855 336.154 531.645 336.029 531.478 335.861C529.929 334.815 528.798 333.225 528.337 331.425C527.667 329.291 522.684 331.927 522.475 332.053C522.056 331.048 521.847 330.379 521.847 330.379C521.847 330.379 525.657 326.152 525.95 325.984C525.992 325.984 526.076 325.943 526.118 325.984H527.374L527.751 326.194L531.604 328.537C532.776 329.709 533.907 331.174 533.739 332.304C533.614 333.016 533.404 333.685 533.111 334.355H538.052C538.01 334.355 539.309 336.489 539.727 337.452Z" fill="#C8C8C8"/>
<path d="M522.224 331.425C521.386 330.504 520.842 329.374 520.549 328.16C520.172 326.277 522.977 321.757 526.997 321.297C532.022 320.753 533.781 321.966 537.215 325.356C540.649 328.746 541.947 330.002 544.459 330.127C548.521 330.337 549.107 332.973 549.275 334.396C549.442 335.694 548.982 339.209 544.627 339.502C540.272 339.753 532.776 337.033 531.604 334.313C530.473 331.592 530.557 328.746 527.751 328.244C525.071 327.784 522.224 331.425 522.224 331.425Z" fill="#010101"/>
<path d="M615.814 351.304C610.202 353.564 604.759 355.699 602.665 355.95C597.933 356.494 587.967 352.1 587.967 352.1L585.161 343.52L587.59 341.595C588.846 342.181 590.354 342.85 591.945 343.52C591.945 343.52 592.112 347.663 595.923 349.798C599.692 351.974 615.814 351.304 615.814 351.304Z" fill="#C8C8C8"/>
<path d="M589.475 344.023C589.516 348.083 587.8 355.909 587.8 355.909C587.8 355.909 567.574 355.867 564.308 355.909C561.167 355.951 553.043 355.909 550.028 355.7C545.631 355.407 544.71 352.937 543.077 350.552C541.444 348.166 538.806 346.911 536.838 344.651C535.246 342.893 534.911 340.549 535.079 340.214C535.246 339.88 538.429 339.126 537.843 337.076C537.256 335.025 549.233 334.397 549.233 334.397C549.233 334.397 559.157 339.796 564.601 338.791C570.045 337.787 573.562 335.025 579.634 334.983C581.183 334.983 588.972 334.271 588.972 334.271C588.972 334.271 589.223 336.406 589.391 339.712C589.433 341.051 589.475 342.474 589.475 344.023Z" fill="#D1D3D4"/>
<path d="M589.349 339.754C585.413 340.717 580.974 343.353 574.651 345.446C565.941 348.292 548.73 337.034 545.087 338.415C541.444 339.796 535.079 340.214 535.079 340.214C535.247 339.88 538.429 339.126 537.843 337.076C537.257 335.025 549.233 334.397 549.233 334.397C549.233 334.397 559.157 339.796 564.601 338.791C570.045 337.787 573.562 335.025 579.634 334.983C581.183 334.983 588.972 334.271 588.972 334.271C588.972 334.271 589.223 336.49 589.349 339.754Z" fill="#BCBEC0"/>
<path d="M529.678 340.591L525.448 339.126L528.17 331.467L532.399 332.973L529.678 340.591Z" fill="url(#paint12_linear)"/>
<path d="M523.689 339.377C524.024 341.093 528.169 344.064 528.169 344.064C528.169 344.064 528.63 344.776 529.384 345.864C531.98 349.63 538.052 357.833 540.229 357.08C541.779 356.494 543.244 355.741 544.584 354.82C544.584 354.82 543.16 352.476 542.114 350.886C541.82 350.384 541.444 349.881 541.067 349.463C540.648 349.254 539.182 350.718 539.182 350.718C537.759 349.463 536.377 348.124 535.079 346.701C533.822 345.236 530.305 341.888 530.012 340.632C529.719 339.377 530.64 337.87 530.221 336.363C529.802 334.899 528.839 337.828 528.63 338.707C528.42 339.586 528.253 338.205 527.415 336.321C526.745 334.773 526.452 335.275 524.652 336.154C522.767 337.033 523.228 336.949 523.689 339.377Z" fill="#E6E7E8"/>
<path d="M539.979 350.635L541.905 342.056L550.112 345.111C550.112 345.111 545.925 355.448 543.035 355.532C540.146 355.616 539.979 350.635 539.979 350.635Z" fill="#E6E7E8"/>
<path d="M540.815 345.027L550.321 346.868C550.321 346.868 550.489 342.893 549.777 340.047C549.567 339.251 549.274 338.498 548.855 337.787C548.646 337.41 548.311 337.033 547.934 336.782C547.557 336.531 547.139 336.322 546.678 336.238C546.217 336.154 545.757 336.154 545.338 336.28C544.877 336.405 544.459 336.573 544.124 336.866C543.202 337.535 542.449 338.456 542.03 339.544C541.36 341.218 540.815 345.027 540.815 345.027Z" fill="#BCBEC0"/>
<path d="M107.829 289.49L106.74 287.941C99.4954 285.639 99.7467 298.613 107.577 294.554L108.122 294.847L107.829 289.49ZM107.117 294.01C100.626 297.4 100.71 286.685 106.698 288.569L107.033 288.694L107.326 289.824L107.535 294.261L107.117 294.01Z" fill="url(#paint13_linear)"/>
<path d="M46.0627 281.789C46.0627 281.789 25.8789 295.349 28.6846 316.442C31.8671 340.005 45.9371 351.221 68.8846 352.268C98.0714 353.607 117.669 344.943 121.103 334.732C124.536 324.52 111.723 301.501 102.803 300.246C89.1102 298.321 76.2546 282.459 72.7789 279.362C69.3033 276.223 61.0539 275.386 56.1127 276.85C51.2133 278.232 46.0627 281.789 46.0627 281.789Z" fill="#43B5E8"/>
<path d="M49.5803 286.769C46.3559 293.256 45.7278 300.747 47.7796 307.695C52.009 321.883 60.7609 330.295 76.7571 330.42C106.07 330.63 106.153 323.724 107.535 320.627C108.917 317.488 114.235 308.197 100.291 308.657C86.4303 309.118 62.8128 281.621 62.8128 281.621L49.5803 286.769Z" fill="#46C1F0"/>
<path d="M66.2045 293.257L65.4507 297.149L60.0907 296.563C60.0907 296.563 59.9651 296.27 59.7976 295.81C59.337 294.554 58.332 292.169 57.7457 291.834C56.9082 291.374 54.2701 290.286 53.9351 289.49C53.6001 288.695 51.5901 284.636 51.632 284.468C51.6739 284.259 52.4276 277.27 52.4276 277.27L56.4057 275.889L57.5782 275.428L60.1745 274.382L61.1376 275.93C62.687 277.897 63.8595 280.074 64.6551 282.459C65.4089 284.887 65.9114 288.444 65.1576 289.072C64.4457 289.658 63.6082 289.616 64.1107 290.453C64.6132 291.206 66.2045 293.257 66.2045 293.257Z" fill="#E6E7E8"/>
<path d="M61.0539 295.767L59.7976 295.851C59.337 294.595 58.332 292.21 57.7457 291.875C56.9082 291.414 54.2701 290.326 53.9351 289.531C53.6001 288.736 51.5901 284.676 51.632 284.509C51.6739 284.3 52.4276 277.31 52.4276 277.31L56.3639 275.929L57.5364 275.469C58.2482 276.055 58.9182 276.724 58.9182 276.724C58.9182 276.724 55.7357 278.942 56.1126 280.491C56.4895 282.081 59.2951 284.802 58.1645 285.806C57.0339 286.811 57.327 289.824 58.2901 290.535C59.2532 291.205 60.4257 294.093 60.4257 294.093L61.0539 295.767Z" fill="#A9A8A8"/>
<path d="M60.6771 269.736C61.1377 271.075 61.0121 270.95 61.5984 273.503C61.6821 273.921 61.6821 274.34 61.5565 274.716C61.4309 275.093 61.2215 275.47 60.9284 275.763C59.8815 276.893 56.4059 276.767 55.5265 278.608C54.6471 280.408 54.2284 282.877 55.2752 283.589C56.364 284.3 56.9921 284.551 56.4477 284.551C55.9034 284.551 53.1396 284.217 53.3071 285.054C53.4746 285.472 53.684 285.891 54.019 286.226C54.3121 286.56 54.689 286.853 55.1496 287.021C56.4477 287.481 55.2752 290.536 55.9034 290.955C56.5734 291.331 55.1496 292.168 51.674 290.243C48.1984 288.276 44.7646 283.212 46.6071 279.99C48.4077 276.767 46.9421 275.595 49.8315 273.042C51.7159 271.368 55.6102 271.619 56.029 270.615C56.4896 269.568 56.6152 266.346 57.2852 267.601C57.9552 268.857 58.3321 271.41 58.3321 271.41C58.3321 271.41 58.6252 267.308 59.5465 267.769C60.2165 268.062 60.3421 268.773 60.6771 269.736Z" fill="#010101"/>
<path d="M134.293 350.426C134.293 350.426 135.34 351.932 138.355 353.481C141.37 355.071 147.107 355.406 146.437 357.875C145.767 360.345 143.171 364.488 139.151 363.023C135.131 361.558 130.608 359.131 128.933 356.871C127.258 354.611 128.933 350.426 128.933 350.426H134.293Z" fill="#E6E7E8"/>
<path d="M91.2456 338.289C91.2456 338.289 88.1469 340.382 87.4769 342.474C86.8069 344.609 84.3362 355.072 86.5975 356.871C88.8587 358.629 91.6644 358.211 92.7531 355.281C93.8837 352.351 97.15 344.399 98.6994 342.809L100.291 341.219L91.2456 338.289Z" fill="#E6E7E8"/>
<path d="M122.862 309.872C117.46 322.427 99.8306 346.157 99.8306 346.157L92.5862 339.503L89.9481 337.075L107.577 314.182C107.577 314.182 102.008 314.35 100.668 312.801C99.3281 311.253 92.1674 308.365 92.1674 308.365C92.1674 308.365 90.7437 307.779 89.3618 307.193L89.8224 305.017L99.8306 303.887C99.8306 303.887 120.14 299.367 123.867 302.757C124.956 303.761 124.369 306.356 122.862 309.872Z" fill="#223E98"/>
<path d="M122.862 309.913C117.46 322.469 99.8723 346.199 99.8723 346.199L92.6279 339.544L122.862 309.913Z" fill="#2A2C7B"/>
<path d="M100.459 289.908V293.549C97.2761 294.763 94.0098 295.767 90.7017 296.521C88.5242 297.023 86.3467 297.441 84.1273 297.693C80.1911 298.153 77.3017 297.609 75.3755 296.897C74.2867 296.563 73.2817 296.019 72.4023 295.307L77.4692 290.369C77.4692 290.369 78.0136 290.578 78.8092 290.913C79.6467 291.247 80.7773 291.624 81.8242 291.917C82.6617 292.21 83.5411 292.336 84.4205 292.294C86.0536 292.001 91.1623 290.871 95.1405 290.369C96.8992 290.159 98.6998 289.992 100.459 289.908Z" fill="#E6E7E8"/>
<path d="M81.6982 322.845C81.6982 322.845 96.6057 333.099 103.85 337.159C111.094 341.218 125.583 358.712 125.583 358.712L135.675 349.128C135.675 349.128 103.976 317.614 101.086 315.689C98.197 313.763 87.4351 309.913 87.4351 309.913L81.6982 313.261V322.845Z" fill="#223E98"/>
<path d="M107.619 314.225C107.577 314.225 107.577 314.225 107.619 314.225C107.326 314.392 102.72 317.196 101.086 315.689C99.4114 314.099 88.5239 311.546 88.5239 311.546L89.4033 307.235C90.7852 307.821 92.2089 308.407 92.2089 308.407C92.2089 308.407 99.3696 311.253 100.71 312.844C102.05 314.392 107.619 314.225 107.619 314.225Z" fill="#2A2C7B"/>
<path d="M90.7436 296.562C88.5661 297.064 86.3886 297.483 84.1692 297.734C80.233 298.194 77.3436 297.65 75.4174 296.939L75.3755 295.349L77.3855 292.712C77.3855 292.712 78.5999 291.163 78.6836 290.996C78.6836 290.996 78.7674 290.954 78.8511 290.954C79.6886 291.289 80.8192 291.666 81.8661 291.959C81.8661 291.959 81.8661 295.223 82.7874 295.767C83.6667 296.227 90.4505 296.52 90.7436 296.562Z" fill="#C0BFBF"/>
<path d="M99.8723 303.886C99.8723 303.886 94.4286 305.895 88.5242 311.503C86.7235 313.219 84.9648 316.233 83.6667 318.744C79.5629 316.819 70.7273 314.517 68.6754 313.219C66.3304 311.754 73.9936 299.994 73.9936 299.994L61.0961 309.871L55.6104 306.607L54.5636 304.598C54.5636 304.598 54.3961 299.827 55.4429 297.86C56.9504 295.014 65.1579 291.875 65.1579 291.875C67.1679 291.038 69.4292 290.912 71.5229 291.54C74.6217 292.461 84.1692 299.492 90.7854 299.492C96.1873 299.492 99.8723 303.886 99.8723 303.886Z" fill="white"/>
<path d="M102.343 288.653C104.06 288.653 105.19 288.192 105.316 289.531C105.483 291.415 105.735 293.884 104.604 294.637C103.683 295.265 99.1602 294.051 99.1602 292.377C99.202 290.62 100.458 288.653 102.343 288.653Z" fill="#C0BFBF"/>
<path d="M67.9219 291.122C67.9219 291.122 68.215 290.159 69.9738 290.076C71.7744 289.992 77.6788 290.369 77.6788 290.369L76.6319 294.219L75.3338 295.349L67.9219 291.122Z" fill="#EAEAEA"/>
<path d="M83.6246 318.744C82.4521 321.004 81.6565 322.846 81.6565 322.846C81.6565 322.846 80.4002 321.841 76.464 320.376C72.5277 318.911 64.7809 318.116 62.9802 317.237C61.1796 316.359 57.9552 312.257 57.9552 312.257L57.7877 311.043L55.5684 306.691L61.054 309.955L73.9515 300.078C73.9515 300.078 66.2465 311.838 68.6334 313.303C70.6852 314.475 79.5209 316.819 83.6246 318.744Z" fill="#EAEAEA"/>
<path d="M103.264 288.653C104.479 288.653 105.274 288.192 105.358 289.531C105.484 291.415 105.651 293.884 104.855 294.637C104.227 295.265 101.003 294.051 101.003 292.377C101.045 290.62 101.924 288.653 103.264 288.653Z" fill="#E6E7E8"/>
<path d="M106.74 286.77H112.979V293.298C112.979 293.633 112.895 294.01 112.77 294.345C112.644 294.68 112.435 294.973 112.183 295.224C111.932 295.475 111.639 295.684 111.304 295.81C110.969 295.935 110.634 296.019 110.257 296.019H109.42C108.708 296.019 108.038 295.726 107.535 295.224C107.033 294.721 106.74 294.052 106.74 293.34V286.77Z" fill="url(#paint14_linear)"/>
<path d="M41.4982 291.415C38.1901 292.336 36.5988 299.869 36.3894 304.682C35.8451 315.773 37.0594 335.82 51.6738 340.8C72.1926 347.79 96.8569 345.571 81.1538 339.294C65.4507 332.974 53.5163 332.304 48.7007 323.892C44.4713 316.443 45.6857 291.582 41.4982 291.415C41.4982 291.415 41.5401 291.373 41.4982 291.415Z" fill="#4DC6F3"/>
<path d="M78.8512 297.316C78.7256 298.362 78.9768 299.408 79.605 300.245C80.1075 300.957 80.5262 302.171 79.4793 303.719C77.8043 306.23 75.0824 308.783 77.2181 307.862C79.3118 306.984 87.1006 300.329 84.8393 299.994C80.6937 299.408 79.0187 296.311 78.8931 297.274L78.8512 297.316Z" fill="#EAEAEA"/>
<path d="M66.0371 286.351L64.3203 291.959L54.1865 288.862L55.8615 283.254L66.0371 286.351Z" fill="url(#paint15_linear)"/>
<path d="M64.2785 315.312L55.4429 310.792L61.0123 304.096C61.0123 304.096 71.146 311.336 70.4341 314.057C69.7641 316.777 64.2785 315.312 64.2785 315.312Z" fill="#E6E7E8"/>
<path d="M62.3519 304.766C62.3519 304.766 60.3 301.292 59.7556 300.664C57.9131 298.53 52.595 298.655 53.2231 304.012C53.6419 307.402 55.4844 311.253 55.4844 311.253C58.3737 309.788 60.7606 307.528 62.3519 304.766Z" fill="white"/>
<path d="M65.3254 287.397C66.6654 288.987 66.5816 294.721 66.5816 294.721C66.5816 294.721 66.9166 295.642 67.3772 297.107C69.0522 302.171 72.4441 313.471 70.2666 314.768C68.6754 315.605 65.0741 309.034 65.0741 309.034C64.9066 306.858 64.6135 304.682 64.1947 302.506C63.6922 300.329 63.0222 294.805 62.101 293.633C61.1379 292.461 59.086 292.043 58.0391 290.578C56.9504 289.071 60.3841 290.536 61.3054 291.038C62.2266 291.54 61.096 290.327 59.9235 288.192C58.9604 286.434 59.6304 286.602 61.6822 285.723C63.776 284.844 63.3991 285.179 65.3254 287.397Z" fill="#E6E7E8"/>
<path d="M508.907 352.603C508.907 354.905 507.023 356.788 504.72 356.788H161.638C159.335 356.788 157.45 354.905 157.45 352.603V142.214C157.45 139.912 159.335 138.028 161.638 138.028H504.72C507.023 138.028 508.907 139.912 508.907 142.214V352.603Z" fill="#E1F4FD"/>
<path d="M492.073 217.756C492.073 220.058 490.189 221.941 487.886 221.941H258.913C256.61 221.941 254.726 220.058 254.726 217.756V159.373C254.726 157.071 256.61 155.188 258.913 155.188H487.844C490.147 155.188 492.031 157.071 492.031 159.373V217.756H492.073Z" fill="#D1D3D4"/>
<path d="M244.005 339.587C244.005 341.889 242.121 343.772 239.818 343.772H171.938C169.635 343.772 167.751 341.889 167.751 339.587V278.567C167.751 276.265 169.635 274.382 171.938 274.382H239.818C242.121 274.382 244.005 276.265 244.005 278.567V339.587Z" fill="url(#paint16_linear)"/>
<path d="M441.362 302.254C441.362 304.556 443.247 306.44 445.55 306.44H489.937C492.24 306.44 494.125 304.556 494.125 302.254V278.65C494.125 276.348 492.24 274.465 489.937 274.465H445.55C443.247 274.465 441.362 276.348 441.362 278.65V302.254Z" fill="url(#paint17_linear)"/>
<path d="M441.655 338.498C441.655 340.8 443.54 342.683 445.843 342.683H490.984C493.287 342.683 495.172 340.8 495.172 338.498V314.475C495.172 312.173 493.287 310.29 490.984 310.29H445.843C443.54 310.29 441.655 312.173 441.655 314.475V338.498Z" fill="url(#paint18_linear)"/>
<path d="M444.085 284.3C444.085 286.602 445.969 288.485 448.272 288.485H486.253C488.556 288.485 490.441 286.602 490.441 284.3V282.082C490.441 279.78 488.556 277.896 486.253 277.896H448.272C445.969 277.896 444.085 279.78 444.085 282.082V284.3Z" fill="white"/>
<path d="M444.713 298.278C444.713 300.58 446.597 302.464 448.9 302.464H486.881C489.184 302.464 491.068 300.58 491.068 298.278V296.06C491.068 293.758 489.184 291.875 486.881 291.875H448.9C446.597 291.875 444.713 293.758 444.713 296.06V298.278Z" fill="white"/>
<path d="M445.048 320.167C445.048 322.469 446.932 324.352 449.235 324.352H487.216C489.519 324.352 491.403 322.469 491.403 320.167V317.949C491.403 315.647 489.519 313.764 487.216 313.764H449.235C446.932 313.764 445.048 315.647 445.048 317.949V320.167Z" fill="white"/>
<path d="M444.713 334.438C444.713 336.74 446.597 338.624 448.9 338.624H486.881C489.184 338.624 491.068 336.74 491.068 334.438V332.22C491.068 329.918 489.184 328.035 486.881 328.035H448.9C446.597 328.035 444.713 329.918 444.713 332.22V334.438Z" fill="white"/>
<path d="M179.058 324.353C179.058 325.232 179.811 325.985 180.733 325.985H230.061C230.983 325.985 231.736 325.274 231.736 324.353C231.736 323.474 230.983 322.721 230.061 322.721H180.733C179.811 322.721 179.058 323.474 179.058 324.353Z" fill="white"/>
<path d="M265.823 203.945C265.823 204.824 266.744 205.577 267.917 205.577H316.408C317.581 205.577 318.502 204.865 318.502 203.945C318.502 203.066 317.581 202.312 316.408 202.312H267.917C266.744 202.354 265.823 203.066 265.823 203.945Z" fill="#F1F2F2"/>
<path d="M265.823 210.766C265.823 211.645 266.744 212.398 267.917 212.398H316.408C317.581 212.398 318.502 211.687 318.502 210.766C318.502 209.845 317.581 209.134 316.408 209.134H267.917C266.744 209.176 265.823 209.887 265.823 210.766Z" fill="#F1F2F2"/>
<path d="M18.5508 181.093C18.5508 181.554 18.9277 181.93 19.3883 181.93H90.1571C90.6177 181.93 90.9946 181.554 90.9946 181.093V180.926C90.9946 180.466 90.6177 180.089 90.1571 180.089H19.3883C18.9277 180.089 18.5508 180.466 18.5508 180.926V181.093Z" fill="white"/>
<path d="M63.4824 209.008C63.4824 209.469 63.8593 209.845 64.3199 209.845H135.089C135.549 209.845 135.926 209.469 135.926 209.008V208.841C135.926 208.381 135.549 208.004 135.089 208.004H64.3199C63.8593 208.004 63.4824 208.381 63.4824 208.841V209.008Z" fill="white"/>
<path d="M18.2578 229.39C18.2578 229.851 18.6347 230.227 19.0953 230.227H89.8641C90.3247 230.227 90.7016 229.851 90.7016 229.39V229.223C90.7016 228.762 90.3247 228.386 89.8641 228.386H19.0953C18.6347 228.386 18.2578 228.762 18.2578 229.223V229.39Z" fill="white"/>
<path d="M18.2578 234.371C18.2578 234.831 18.6347 235.208 19.0953 235.208H89.8641C90.3247 235.208 90.7016 234.831 90.7016 234.371V234.203C90.7016 233.743 90.3247 233.366 89.8641 233.366H19.0953C18.6347 233.366 18.2578 233.743 18.2578 234.203V234.371Z" fill="white"/>
<path d="M18.3833 239.393C18.3833 239.853 18.7602 240.23 19.2208 240.23H89.9896C90.4502 240.23 90.8271 239.853 90.8271 239.393V239.226C90.8271 238.765 90.4502 238.389 89.9896 238.389H19.2208C18.7602 238.389 18.3833 238.765 18.3833 239.226V239.393Z" fill="white"/>
<path d="M63.4824 213.989C63.4824 214.449 63.8593 214.826 64.3199 214.826H135.089C135.549 214.826 135.926 214.449 135.926 213.989V213.821C135.926 213.361 135.549 212.984 135.089 212.984H64.3199C63.8593 212.984 63.4824 213.361 63.4824 213.821V213.989Z" fill="white"/>
<path d="M18.5508 185.823C18.5508 186.283 18.9277 186.66 19.3883 186.66H90.1571C90.6177 186.66 90.9946 186.283 90.9946 185.823V185.655C90.9946 185.195 90.6177 184.818 90.1571 184.818H19.3883C18.9277 184.818 18.5508 185.195 18.5508 185.655V185.823Z" fill="white"/>
<path d="M18.5508 191.054C18.5508 191.515 18.9277 191.891 19.3883 191.891H74.747C75.2077 191.891 75.5845 191.515 75.5845 191.054V190.887C75.5845 190.426 75.2077 190.05 74.747 190.05H19.3883C18.9277 190.05 18.5508 190.426 18.5508 190.887V191.054Z" fill="white"/>
<path d="M524.358 258.059C524.358 258.268 524.568 258.477 524.777 258.477H578.377C578.628 258.477 578.796 258.268 578.796 258.059V257.933C578.796 257.724 578.628 257.515 578.377 257.515H524.777C524.568 257.515 524.358 257.724 524.358 257.933V258.059Z" fill="white"/>
<path d="M524.358 261.574C524.358 261.784 524.568 261.993 524.777 261.993H578.377C578.628 261.993 578.796 261.784 578.796 261.574V261.449C578.796 261.24 578.628 261.03 578.377 261.03H524.777C524.568 261.03 524.358 261.24 524.358 261.449V261.574Z" fill="white"/>
<path d="M186.805 50.8927C186.805 51.1438 187.014 51.3112 187.223 51.3112H223.487C223.697 51.3112 223.906 51.1438 223.906 50.8927V50.7672C223.906 50.5579 223.697 50.3486 223.487 50.3486H187.223C187.014 50.3486 186.805 50.5579 186.805 50.7672V50.8927Z" fill="white"/>
<path d="M186.805 53.7384C186.805 53.9477 187.014 54.1569 187.223 54.1569H223.487C223.697 54.1569 223.906 53.9477 223.906 53.7384V53.6129C223.906 53.3617 223.697 53.1943 223.487 53.1943H187.223C187.014 53.1943 186.805 53.3617 186.805 53.6129V53.7384Z" fill="white"/>
<path d="M481.73 76.9242C481.73 77.1754 482.107 77.3846 482.568 77.3846H529.384C529.845 77.3846 530.222 77.1754 530.222 76.9242C530.222 76.6731 529.845 76.4639 529.384 76.4639H482.568C482.107 76.4639 481.73 76.6731 481.73 76.9242Z" fill="white"/>
<path d="M481.814 80.2303C481.814 80.4815 482.191 80.6907 482.652 80.6907H529.468C529.929 80.6907 530.306 80.4815 530.306 80.2303C530.306 79.9792 529.929 79.77 529.468 79.77H482.652C482.191 79.7281 481.814 79.9374 481.814 80.2303Z" fill="white"/>
<path d="M481.981 83.5785C481.981 83.8296 482.358 84.0389 482.819 84.0389H529.635C530.096 84.0389 530.473 83.8296 530.473 83.5785C530.473 83.3274 530.096 83.1182 529.635 83.1182H482.819C482.358 83.1182 481.981 83.3274 481.981 83.5785Z" fill="white"/>
<path d="M481.981 86.6339C481.981 86.885 482.358 87.0943 482.819 87.0943H529.635C530.096 87.0943 530.473 86.885 530.473 86.6339C530.473 86.3828 530.096 86.1735 529.635 86.1735H482.819C482.358 86.1317 481.981 86.3828 481.981 86.6339Z" fill="white"/>
<path d="M186.847 56.8771C186.847 57.1282 187.056 57.2956 187.265 57.2956H223.529C223.78 57.2956 223.948 57.1282 223.948 56.8771V56.7515C223.948 56.5004 223.78 56.333 223.529 56.333H187.265C187.056 56.333 186.847 56.5004 186.847 56.7515V56.8771Z" fill="white"/>
<path d="M186.847 60.3087C186.847 60.518 187.056 60.7272 187.265 60.7272H213.772C213.982 60.7272 214.191 60.518 214.191 60.3087V60.1832C214.191 59.9321 213.982 59.7646 213.772 59.7646H187.265C187.056 59.7646 186.847 59.9321 186.847 60.1832V60.3087Z" fill="white"/>
<path d="M524.358 265.258C524.358 265.467 524.568 265.676 524.777 265.676H578.377C578.628 265.676 578.796 265.467 578.796 265.258V265.132C578.796 264.923 578.628 264.714 578.377 264.714H524.777C524.568 264.714 524.358 264.923 524.358 265.132V265.258Z" fill="white"/>
<path d="M524.358 269.067C524.358 269.276 524.568 269.485 524.777 269.485H578.377C578.628 269.485 578.796 269.276 578.796 269.067V268.941C578.796 268.732 578.628 268.522 578.377 268.522H524.777C524.568 268.522 524.358 268.732 524.358 268.941V269.067Z" fill="white"/>
<path d="M557.733 278.86C557.733 279.069 557.943 279.278 558.152 279.278H611.752C611.962 279.278 612.171 279.069 612.171 278.86V278.734C612.171 278.525 611.962 278.315 611.752 278.315H558.152C557.943 278.315 557.733 278.525 557.733 278.734V278.86Z" fill="white"/>
<path d="M557.817 282.793C557.817 283.002 557.985 283.212 558.236 283.212H611.836C612.046 283.212 612.255 283.002 612.255 282.793V282.668C612.255 282.458 612.046 282.249 611.836 282.249H558.236C557.985 282.249 557.817 282.458 557.817 282.668V282.793Z" fill="white"/>
<path d="M525.07 293.968C525.07 294.219 525.238 294.386 525.489 294.386H579.089C579.298 294.386 579.508 294.219 579.508 293.968V293.842C579.508 293.591 579.298 293.424 579.089 293.424H525.489C525.238 293.424 525.07 293.591 525.07 293.842V293.968Z" fill="white"/>
<path d="M525.196 297.693C525.196 297.902 525.364 298.111 525.615 298.111H579.215C579.466 298.111 579.634 297.902 579.634 297.693V297.567C579.634 297.358 579.466 297.148 579.215 297.148H525.615C525.364 297.148 525.196 297.358 525.196 297.567V297.693Z" fill="white"/>
<path d="M525.196 301.166C525.196 301.375 525.364 301.585 525.615 301.585H571.552C571.803 301.585 571.971 301.375 571.971 301.166V301.041C571.971 300.831 571.803 300.622 571.552 300.622H525.615C525.364 300.622 525.196 300.831 525.196 301.041V301.166Z" fill="white"/>
<path d="M179.058 330.336C179.058 331.215 179.811 331.969 180.733 331.969H230.061C230.983 331.969 231.736 331.257 231.736 330.336C231.736 329.457 230.983 328.704 230.061 328.704H180.733C179.811 328.746 179.058 329.457 179.058 330.336Z" fill="white"/>
<path d="M179.058 337.118C179.058 337.996 179.811 338.75 180.733 338.75H230.061C230.983 338.75 231.736 338.038 231.736 337.118C231.736 336.239 230.983 335.485 230.061 335.485H180.733C179.811 335.485 179.058 336.239 179.058 337.118Z" fill="white"/>
<path d="M439.227 339.545C439.227 341.847 437.342 343.73 435.039 343.73H258.913C256.61 343.73 254.726 341.847 254.726 339.545V278.441C254.726 276.139 256.61 274.256 258.913 274.256H435.039C437.342 274.256 439.227 276.139 439.227 278.441V339.545Z" fill="#D1D3D4"/>
<path d="M492.785 264.378C492.785 266.68 490.901 268.564 488.598 268.564H259.081C256.778 268.564 254.894 266.68 254.894 264.378V231.148C254.894 228.846 256.778 226.963 259.081 226.963H488.598C490.901 226.963 492.785 228.846 492.785 231.148V264.378Z" fill="url(#paint19_linear)"/>
<path d="M204.602 318.702C215.68 318.702 224.66 309.727 224.66 298.655C224.66 287.584 215.68 278.608 204.602 278.608C193.524 278.608 184.544 287.584 184.544 298.655C184.544 309.727 193.524 318.702 204.602 318.702Z" fill="white"/>
<path d="M291.701 198.378C301.969 198.378 310.293 190.059 310.293 179.796C310.293 169.533 301.969 161.214 291.701 161.214C281.433 161.214 273.108 169.533 273.108 179.796C273.108 190.059 281.433 198.378 291.701 198.378Z" fill="#F1F2F2"/>
<path d="M481.688 168.831C481.688 169.668 480.767 170.338 479.595 170.338H343.124C341.952 170.338 341.03 169.668 341.03 168.831C341.03 167.994 341.952 167.324 343.124 167.324H479.553C480.725 167.324 481.688 167.994 481.688 168.831Z" fill="white"/>
<path d="M481.227 178.289C481.227 179.126 480.306 179.796 479.133 179.796H343.249C342.077 179.796 341.155 179.126 341.155 178.289C341.155 177.452 342.077 176.782 343.249 176.782H479.133C480.306 176.782 481.227 177.452 481.227 178.289Z" fill="white"/>
<path d="M481.437 187.496C481.437 188.333 480.516 189.003 479.343 189.003H343.794C342.621 189.003 341.7 188.333 341.7 187.496C341.7 186.659 342.621 185.989 343.794 185.989H479.343C480.516 185.989 481.437 186.659 481.437 187.496Z" fill="white"/>
<path d="M481.437 196.955C481.437 197.792 480.516 198.462 479.343 198.462H343.04C341.868 198.462 340.946 197.792 340.946 196.955C340.946 196.118 341.868 195.448 343.04 195.448H479.385C480.516 195.448 481.437 196.118 481.437 196.955Z" fill="white"/>
<path d="M481.228 206.833C481.228 207.67 480.306 208.339 479.134 208.339H343.417C342.244 208.339 341.323 207.67 341.323 206.833C341.323 205.996 342.244 205.326 343.417 205.326H479.134C480.306 205.326 481.228 205.996 481.228 206.833Z" fill="white"/>
<path d="M130.609 103.123C130.609 103.793 130.022 104.379 129.352 104.379H69.848C69.1362 104.379 68.5918 103.793 68.5918 103.123V90.4841C68.5918 89.8144 69.1362 89.2285 69.848 89.2285H129.352C130.022 89.2285 130.609 89.8144 130.609 90.4841V103.123Z" fill="url(#paint20_linear)"/>
<path d="M132.66 115.218C132.66 115.888 132.074 116.474 131.404 116.474H46.9003C46.1884 116.474 45.644 115.888 45.644 115.218V108.689C45.644 108.02 46.1884 107.434 46.9003 107.434H131.362C132.032 107.434 132.618 108.02 132.618 108.689V115.218H132.66Z" fill="white"/>
<path d="M65.6602 137.652C65.6602 138.321 65.0739 138.907 64.4039 138.907H47.0258C46.3139 138.907 45.7695 138.321 45.7695 137.652V119.53C45.7695 118.818 46.3139 118.274 47.0258 118.274H64.4039C65.0739 118.274 65.6602 118.818 65.6602 119.53V137.652Z" fill="#ABE1FA"/>
<path d="M117.376 126.728C117.376 127.397 117.962 127.983 118.632 127.983H131.32C131.99 127.983 132.577 127.397 132.577 126.728V120.199C132.577 119.529 131.99 118.943 131.32 118.943H118.632C117.962 118.943 117.376 119.529 117.376 120.199V126.728Z" fill="url(#paint21_linear)"/>
<path d="M118.129 123.505C118.129 124.175 118.716 124.761 119.386 124.761H130.65C131.32 124.761 131.906 124.175 131.906 123.505V123.171C131.906 122.501 131.32 121.915 130.65 121.915H119.428C118.758 121.915 118.171 122.501 118.171 123.171V123.505H118.129Z" fill="white"/>
<path d="M48.9521 133.047C48.9521 133.299 49.329 133.466 49.7896 133.466H61.8496C62.3103 133.466 62.6871 133.257 62.6871 133.047C62.6871 132.796 62.3103 132.629 61.8496 132.629H49.7896C49.329 132.629 48.9521 132.796 48.9521 133.047Z" fill="white"/>
<path d="M48.9521 134.637C48.9521 134.888 49.329 135.056 49.7896 135.056H61.8496C62.3103 135.056 62.6871 134.847 62.6871 134.637C62.6871 134.386 62.3103 134.219 61.8496 134.219H49.7896C49.329 134.219 48.9521 134.428 48.9521 134.637Z" fill="white"/>
<path d="M48.9521 136.437C48.9521 136.688 49.329 136.856 49.7896 136.856H61.8496C62.3103 136.856 62.6871 136.646 62.6871 136.437C62.6871 136.186 62.3103 136.019 61.8496 136.019H49.7896C49.329 136.019 48.9521 136.228 48.9521 136.437Z" fill="white"/>
<path d="M68.3823 119.907C68.3823 120.116 68.5498 120.325 68.8011 120.325H114.864C115.115 120.325 115.282 120.116 115.282 119.907V119.823C115.282 119.572 115.115 119.404 114.864 119.404H68.8011C68.5498 119.404 68.3823 119.572 68.3823 119.823V119.907Z" fill="#D1D3D4"/>
<path d="M68.3823 122.249C68.3823 122.459 68.5498 122.668 68.8011 122.668H114.864C115.115 122.668 115.282 122.459 115.282 122.249V122.166C115.282 121.956 115.115 121.747 114.864 121.747H68.8011C68.5498 121.747 68.3823 121.956 68.3823 122.166V122.249Z" fill="#D1D3D4"/>
<path d="M68.2983 124.551C68.2983 124.802 68.4658 124.97 68.7171 124.97H114.78C114.989 124.97 115.198 124.802 115.198 124.551V124.467C115.198 124.258 114.989 124.049 114.78 124.049H68.7171C68.4658 124.049 68.2983 124.258 68.2983 124.467V124.551Z" fill="#D1D3D4"/>
<path d="M68.3823 127.021C68.3823 127.23 68.5498 127.439 68.8011 127.439H114.864C115.115 127.439 115.282 127.23 115.282 127.021V126.937C115.282 126.728 115.115 126.519 114.864 126.519H68.8011C68.5498 126.519 68.3823 126.728 68.3823 126.937V127.021Z" fill="#D1D3D4"/>
<path d="M83.541 136.982C83.541 137.651 82.9966 138.237 82.2847 138.237H69.5966C68.8847 138.237 68.3403 137.651 68.3403 136.982V130.453C68.3403 129.741 68.8847 129.197 69.5966 129.197H82.2847C82.9966 129.197 83.541 129.741 83.541 130.453V136.982Z" fill="url(#paint22_linear)"/>
<path d="M132.493 130.117C132.493 130.327 132.283 130.536 132.074 130.536H86.0115C85.7603 130.536 85.5928 130.327 85.5928 130.117V130.034C85.5928 129.824 85.7603 129.615 86.0115 129.615H132.074C132.283 129.615 132.493 129.824 132.493 130.034V130.117Z" fill="#D1D3D4"/>
<path d="M132.493 132.462C132.493 132.713 132.283 132.881 132.074 132.881H86.0115C85.7603 132.881 85.5928 132.713 85.5928 132.462V132.378C85.5928 132.169 85.7603 131.96 86.0115 131.96H132.074C132.283 131.96 132.493 132.169 132.493 132.378V132.462Z" fill="#D1D3D4"/>
<path d="M132.576 134.764C132.576 134.973 132.409 135.182 132.158 135.182H86.095C85.8438 135.182 85.6763 134.973 85.6763 134.764V134.68C85.6763 134.429 85.8438 134.262 86.095 134.262H132.158C132.409 134.262 132.576 134.429 132.576 134.68V134.764Z" fill="#D1D3D4"/>
<path d="M132.493 137.233C132.493 137.484 132.283 137.651 132.074 137.651H86.0115C85.7603 137.651 85.5928 137.484 85.5928 137.233V137.149C85.5928 136.94 85.7603 136.73 86.0115 136.73H132.074C132.283 136.73 132.493 136.94 132.493 137.149V137.233Z" fill="#D1D3D4"/>
<path d="M55.8616 104.755C60.2326 104.755 63.776 101.12 63.776 96.6359C63.776 92.1517 60.2326 88.5166 55.8616 88.5166C51.4907 88.5166 47.9473 92.1517 47.9473 96.6359C47.9473 101.12 51.4907 104.755 55.8616 104.755Z" fill="white"/>
<path d="M55.6103 131.541C58.9869 131.541 61.7241 128.749 61.7241 125.305C61.7241 121.861 58.9869 119.069 55.6103 119.069C52.2338 119.069 49.4966 121.861 49.4966 125.305C49.4966 128.749 52.2338 131.541 55.6103 131.541Z" fill="white"/>
<path d="M127.887 91.5728C127.887 91.7821 127.677 91.9913 127.468 91.9913H72.2767C72.0254 91.9913 71.8579 91.8239 71.8579 91.5728C71.8579 91.3636 72.0254 91.1543 72.2767 91.1543H127.468C127.677 91.1543 127.887 91.3217 127.887 91.5728Z" fill="white"/>
<path d="M127.761 94.0836C127.761 94.2928 127.594 94.5021 127.342 94.5021H72.1512C71.8999 94.5021 71.7324 94.3347 71.7324 94.0836C71.7324 93.8743 71.8999 93.665 72.1512 93.665H127.342C127.594 93.665 127.761 93.8743 127.761 94.0836Z" fill="white"/>
<path d="M127.845 96.5523C127.845 96.7616 127.635 96.9708 127.426 96.9708H72.1927C71.9414 96.9708 71.7739 96.8034 71.7739 96.5523C71.7739 96.3431 71.9414 96.1338 72.1927 96.1338H127.384C127.635 96.1338 127.845 96.3012 127.845 96.5523Z" fill="white"/>
<path d="M127.845 99.064C127.845 99.2733 127.635 99.4825 127.426 99.4825H72.1927C71.9414 99.4825 71.7739 99.3151 71.7739 99.064C71.7739 98.8548 71.9414 98.6455 72.1927 98.6455H127.384C127.635 98.6455 127.845 98.8548 127.845 99.064Z" fill="white"/>
<path d="M127.761 101.701C127.761 101.91 127.594 102.119 127.342 102.119H72.1512C71.8999 102.119 71.7324 101.952 71.7324 101.701C71.7324 101.491 71.8999 101.282 72.1512 101.282H127.342C127.594 101.282 127.761 101.491 127.761 101.701Z" fill="white"/>
<path d="M633.778 183.646C633.778 184.316 633.234 184.902 632.522 184.902H577.665C576.954 184.902 576.409 184.316 576.409 183.646V173.811C576.409 173.142 576.954 172.556 577.665 172.556H632.522C633.234 172.556 633.778 173.142 633.778 173.811V183.646Z" fill="url(#paint23_linear)"/>
<path d="M635.662 193.523C635.662 194.193 635.118 194.779 634.406 194.779H556.435C555.723 194.779 555.179 194.193 555.179 193.523V188.669C555.179 187.957 555.723 187.413 556.435 187.413H634.406C635.118 187.413 635.662 187.957 635.662 188.669V193.523Z" fill="#ABE1FA"/>
<path d="M573.688 211.854C573.688 212.524 573.143 213.109 572.432 213.109H556.561C555.849 213.109 555.305 212.524 555.305 211.854V197.499C555.305 196.787 555.849 196.243 556.561 196.243H572.432C573.143 196.243 573.688 196.787 573.688 197.499V211.854Z" fill="url(#paint24_linear)"/>
<path d="M621.509 202.94C621.509 203.61 622.053 204.196 622.765 204.196H634.323C635.035 204.196 635.579 203.61 635.579 202.94V198.086C635.579 197.416 635.035 196.83 634.323 196.83H622.765C622.053 196.83 621.509 197.416 621.509 198.086V202.94Z" fill="url(#paint25_linear)"/>
<path d="M622.054 200.848C622.054 201.308 622.431 201.685 622.891 201.685H633.946C634.407 201.685 634.784 201.308 634.784 200.848V200.22C634.784 199.759 634.407 199.383 633.946 199.383H622.891C622.431 199.383 622.054 199.759 622.054 200.22V200.848Z" fill="white"/>
<path d="M558.236 208.339C558.236 208.549 558.446 208.674 558.655 208.674H570.548C570.799 208.674 570.966 208.507 570.966 208.339C570.966 208.13 570.799 208.005 570.548 208.005H558.655C558.404 207.963 558.236 208.13 558.236 208.339Z" fill="white"/>
<path d="M558.236 209.637C558.236 209.846 558.446 209.971 558.655 209.971H570.548C570.799 209.971 570.966 209.804 570.966 209.637C570.966 209.427 570.799 209.302 570.548 209.302H558.655C558.404 209.302 558.236 209.469 558.236 209.637Z" fill="white"/>
<path d="M558.236 211.101C558.236 211.311 558.446 211.436 558.655 211.436H570.548C570.799 211.436 570.966 211.269 570.966 211.101C570.966 210.892 570.799 210.767 570.548 210.767H558.655C558.404 210.767 558.236 210.934 558.236 211.101Z" fill="white"/>
<path d="M576.2 197.542C576.2 197.751 576.41 197.918 576.619 197.918H619.164C619.415 197.918 619.583 197.751 619.583 197.542C619.583 197.332 619.415 197.165 619.164 197.165H576.619C576.41 197.165 576.2 197.332 576.2 197.542Z" fill="#D1D3D4"/>
<path d="M576.2 199.467C576.2 199.676 576.41 199.843 576.619 199.843H619.164C619.415 199.843 619.583 199.676 619.583 199.467C619.583 199.257 619.415 199.09 619.164 199.09H576.619C576.41 199.09 576.2 199.257 576.2 199.467Z" fill="#D1D3D4"/>
<path d="M576.116 201.349C576.116 201.559 576.284 201.726 576.535 201.726H619.08C619.289 201.726 619.499 201.559 619.499 201.349C619.499 201.14 619.289 200.973 619.08 200.973H576.535C576.326 200.973 576.116 201.14 576.116 201.349Z" fill="#D1D3D4"/>
<path d="M576.2 203.358C576.2 203.567 576.41 203.735 576.619 203.735H619.164C619.415 203.735 619.583 203.567 619.583 203.358C619.583 203.149 619.415 202.981 619.164 202.981H576.619C576.41 202.981 576.2 203.149 576.2 203.358Z" fill="#D1D3D4"/>
<path d="M635.537 205.912C635.537 206.121 635.369 206.288 635.118 206.288H592.531C592.28 206.288 592.112 206.121 592.112 205.912C592.112 205.703 592.28 205.535 592.531 205.535H635.076C635.327 205.535 635.537 205.703 635.537 205.912Z" fill="#D1D3D4"/>
<path d="M635.537 207.796C635.537 208.005 635.369 208.172 635.118 208.172H592.531C592.28 208.172 592.112 208.005 592.112 207.796C592.112 207.586 592.28 207.419 592.531 207.419H635.076C635.327 207.419 635.537 207.586 635.537 207.796Z" fill="#D1D3D4"/>
<path d="M635.621 209.719C635.621 209.929 635.453 210.096 635.202 210.096H592.657C592.448 210.096 592.238 209.929 592.238 209.719C592.238 209.51 592.448 209.343 592.657 209.343H635.202C635.412 209.343 635.621 209.51 635.621 209.719Z" fill="#D1D3D4"/>
<path d="M635.537 211.729C635.537 211.938 635.369 212.105 635.118 212.105H592.531C592.28 212.105 592.112 211.938 592.112 211.729C592.112 211.519 592.28 211.352 592.531 211.352H635.076C635.327 211.31 635.537 211.519 635.537 211.729Z" fill="#D1D3D4"/>
<path d="M564.476 185.195C568.107 185.195 571.05 182.234 571.05 178.582C571.05 174.93 568.107 171.97 564.476 171.97C560.845 171.97 557.901 174.93 557.901 178.582C557.901 182.234 560.845 185.195 564.476 185.195Z" fill="url(#paint26_linear)"/>
<path d="M564.559 207.125C567.357 207.125 569.626 204.839 569.626 202.019C569.626 199.199 567.357 196.913 564.559 196.913C561.761 196.913 559.492 199.199 559.492 202.019C559.492 204.839 561.761 207.125 564.559 207.125Z" fill="white"/>
<path d="M631.266 174.439C631.266 174.607 631.099 174.774 630.847 174.774H579.844C579.592 174.774 579.425 174.607 579.425 174.439C579.425 174.272 579.592 174.104 579.844 174.104H630.847C631.057 174.104 631.266 174.23 631.266 174.439Z" fill="white"/>
<path d="M631.14 176.489C631.14 176.657 630.931 176.824 630.721 176.824H579.718C579.466 176.824 579.299 176.657 579.299 176.489C579.299 176.322 579.466 176.154 579.718 176.154H630.721C630.973 176.154 631.14 176.322 631.14 176.489Z" fill="white"/>
<path d="M631.224 178.498C631.224 178.665 631.015 178.833 630.805 178.833H579.802C579.592 178.833 579.383 178.665 579.383 178.498C579.383 178.33 579.592 178.163 579.802 178.163H630.805C631.015 178.163 631.224 178.33 631.224 178.498Z" fill="white"/>
<path d="M631.224 180.55C631.224 180.717 631.015 180.884 630.805 180.884H579.802C579.592 180.884 579.383 180.717 579.383 180.55C579.383 180.382 579.592 180.215 579.802 180.215H630.805C631.015 180.215 631.224 180.382 631.224 180.55Z" fill="white"/>
<path d="M631.14 182.725C631.14 182.893 630.931 183.06 630.721 183.06H579.718C579.466 183.06 579.299 182.893 579.299 182.725C579.299 182.558 579.466 182.391 579.718 182.391H630.721C630.973 182.391 631.14 182.516 631.14 182.725Z" fill="white"/>
<path d="M243.713 264.421C243.713 266.723 241.829 268.606 239.526 268.606H170.851C168.547 268.606 166.663 266.723 166.663 264.421V158.745C166.663 156.443 168.547 154.56 170.851 154.56H239.526C241.829 154.56 243.713 156.443 243.713 158.745V264.421Z" fill="url(#paint27_linear)"/>
<path d="M241.494 170.589C241.494 172.891 239.609 174.774 237.306 174.774H173.949C171.646 174.774 169.762 172.891 169.762 170.589V166.027C169.762 163.725 171.646 161.842 173.949 161.842H237.306C239.609 161.842 241.494 163.725 241.494 166.027V170.589Z" fill="#F1F2F2"/>
<path d="M241.703 179.628C241.703 180.256 241.116 180.8 240.446 180.8H171.227C170.557 180.8 169.971 180.298 169.971 179.628C169.971 178.958 170.557 178.456 171.227 178.456H240.446C241.116 178.456 241.703 179 241.703 179.628Z" fill="white"/>
<path d="M241.703 185.906C241.703 186.534 241.116 187.078 240.446 187.078H171.227C170.557 187.078 169.971 186.576 169.971 185.906C169.971 185.237 170.557 184.734 171.227 184.734H240.446C241.116 184.734 241.703 185.278 241.703 185.906Z" fill="white"/>
<path d="M241.075 192.394C241.075 193.021 240.53 193.565 239.818 193.565H170.599C169.929 193.565 169.343 193.063 169.343 192.394C169.343 191.724 169.929 191.222 170.599 191.222H239.818C240.488 191.264 241.075 191.766 241.075 192.394Z" fill="white"/>
<path d="M266.116 234.162C266.116 235.125 267.037 235.92 268.21 235.92H482.945C484.117 235.92 485.039 235.125 485.039 234.162C485.039 233.199 484.117 232.404 482.945 232.404H268.21C267.079 232.404 266.116 233.199 266.116 234.162Z" fill="#F1F2F2"/>
<path d="M266.116 242.448C266.116 243.411 267.037 244.206 268.21 244.206H482.945C484.117 244.206 485.039 243.411 485.039 242.448C485.039 241.486 484.117 240.69 482.945 240.69H268.21C267.079 240.69 266.116 241.486 266.116 242.448Z" fill="#F1F2F2"/>
<path d="M266.116 251.571C266.116 252.534 267.037 253.329 268.21 253.329H482.945C484.117 253.329 485.039 252.534 485.039 251.571C485.039 250.609 484.117 249.813 482.945 249.813H268.21C267.079 249.813 266.116 250.609 266.116 251.571Z" fill="#F1F2F2"/>
<path d="M266.409 260.988C266.409 261.951 267.33 262.746 268.503 262.746H483.238C484.41 262.746 485.332 261.951 485.332 260.988C485.332 260.026 484.41 259.23 483.238 259.23H268.503C267.33 259.23 266.409 260.026 266.409 260.988Z" fill="#F1F2F2"/>
<path d="M171.729 259.775C171.729 262.077 173.614 263.96 175.917 263.96H199.032C201.335 263.96 203.219 262.077 203.219 259.775V202.145C203.219 199.843 201.335 197.96 199.032 197.96H175.917C173.614 197.96 171.729 199.843 171.729 202.145V259.775Z" fill="#F1F2F2"/>
<path d="M208.245 259.44C208.245 261.742 210.129 263.625 212.433 263.625H235.548C237.851 263.625 239.735 261.742 239.735 259.44V201.81C239.735 199.508 237.851 197.625 235.548 197.625H212.433C210.129 197.625 208.245 199.508 208.245 201.81V259.44Z" fill="#F1F2F2"/>
<path d="M257.908 289.992C257.908 292.294 259.793 294.177 262.096 294.177H395.886C398.189 294.177 400.074 292.294 400.074 289.992V283.296C400.074 280.994 398.189 279.11 395.886 279.11H262.096C259.793 279.11 257.908 280.994 257.908 283.296V289.992Z" fill="#F1F2F2"/>
<path d="M257.908 308.658C257.908 310.96 259.793 312.843 262.096 312.843H395.886C398.189 312.843 400.074 310.96 400.074 308.658V301.962C400.074 299.66 398.189 297.776 395.886 297.776H262.096C259.793 297.776 257.908 299.66 257.908 301.962V308.658Z" fill="#F1F2F2"/>
<path d="M257.908 318.828C257.908 319.665 258.662 320.334 259.583 320.334H398.399C399.32 320.334 400.074 319.665 400.074 318.828C400.074 317.991 399.32 317.321 398.399 317.321H259.583C258.662 317.279 257.908 317.991 257.908 318.828Z" fill="#F1F2F2"/>
<path d="M258.201 326.947C258.201 327.784 258.955 328.454 259.876 328.454H398.692C399.613 328.454 400.367 327.784 400.367 326.947C400.367 326.11 399.613 325.44 398.692 325.44H259.876C258.955 325.398 258.201 326.11 258.201 326.947Z" fill="#F1F2F2"/>
<path d="M257.908 334.857C257.908 335.694 258.662 336.364 259.583 336.364H398.399C399.32 336.364 400.074 335.694 400.074 334.857C400.074 334.02 399.32 333.35 398.399 333.35H259.583C258.662 333.309 257.908 334.02 257.908 334.857Z" fill="#F1F2F2"/>
<path d="M403.633 335.443C403.633 337.745 405.517 339.628 407.82 339.628H430.935C433.238 339.628 435.123 337.745 435.123 335.443V282.626C435.123 280.324 433.238 278.44 430.935 278.44H407.82C405.517 278.44 403.633 280.324 403.633 282.626V335.443Z" fill="#F1F2F2"/>
<path d="M511.671 130.034V137.735H154.268V130.034C154.268 128.276 154.77 126.518 155.775 124.886C156.78 123.254 158.246 121.747 160.088 120.534C161.931 119.278 164.15 118.274 166.579 117.604C169.008 116.934 171.604 116.6 174.2 116.6H491.738C494.376 116.6 496.931 116.934 499.359 117.604C501.788 118.274 503.966 119.278 505.808 120.534C507.651 121.789 509.116 123.254 510.121 124.886C511.126 126.518 511.671 128.276 511.671 130.034Z" fill="#7C7D80"/>
<path d="M176.629 131.793C178.85 131.793 180.649 129.995 180.649 127.776C180.649 125.557 178.85 123.758 176.629 123.758C174.409 123.758 172.609 125.557 172.609 127.776C172.609 129.995 174.409 131.793 176.629 131.793Z" fill="url(#paint28_linear)"/>
<path d="M189.904 131.708C192.124 131.708 193.924 129.91 193.924 127.691C193.924 125.472 192.124 123.673 189.904 123.673C187.684 123.673 185.884 125.472 185.884 127.691C185.884 129.91 187.684 131.708 189.904 131.708Z" fill="url(#paint29_linear)"/>
<path d="M203.094 131.708C205.314 131.708 207.114 129.91 207.114 127.691C207.114 125.472 205.314 123.673 203.094 123.673C200.874 123.673 199.074 125.472 199.074 127.691C199.074 129.91 200.874 131.708 203.094 131.708Z" fill="url(#paint30_linear)"/>
<path d="M500.198 127.9C500.198 126.77 499.276 125.891 498.104 125.891H239.274C238.102 125.891 237.181 126.811 237.181 127.9C237.181 128.988 238.102 129.908 239.274 129.908H498.104C499.234 129.95 500.198 129.03 500.198 127.9Z" fill="#D1D3D4"/>
</g>
<defs>
<filter id="filter0_d" x="-12" y="-8" width="694" height="476" filterUnits="userSpaceOnUse" color-interpolation-filters="sRGB">
<feFlood flood-opacity="0" result="BackgroundImageFix"/>
<feColorMatrix in="SourceAlpha" type="matrix" values="0 0 0 0 0 0 0 0 0 0 0 0 0 0 0 0 0 0 127 0" result="hardAlpha"/>
<feOffset dy="4"/>
<feGaussianBlur stdDeviation="6"/>
<feColorMatrix type="matrix" values="0 0 0 0 0 0 0 0 0 0 0 0 0 0 0 0 0 0 0.3 0"/>
<feBlend mode="normal" in2="BackgroundImageFix" result="effect1_dropShadow"/>
<feBlend mode="normal" in="SourceGraphic" in2="effect1_dropShadow" result="shape"/>
</filter>
<linearGradient id="paint0_linear" x1="594.636" y1="236.135" x2="594.716" y2="246.481" gradientUnits="userSpaceOnUse">
<stop stop-color="white"/>
<stop offset="1" stop-color="#494A4B"/>
</linearGradient>
<linearGradient id="paint1_linear" x1="594.375" y1="218.878" x2="594.661" y2="226.761" gradientUnits="userSpaceOnUse">
<stop stop-color="white"/>
<stop offset="1" stop-color="#979899"/>
</linearGradient>
<linearGradient id="paint2_linear" x1="593.478" y1="214.734" x2="596.096" y2="167.946" gradientUnits="userSpaceOnUse">
<stop stop-color="#7DD3F7"/>
<stop offset="1" stop-color="#43B5E8"/>
</linearGradient>
<linearGradient id="paint3_linear" x1="542.514" y1="66.4986" x2="542.493" y2="61.6021" gradientUnits="userSpaceOnUse">
<stop stop-color="white"/>
<stop offset="1" stop-color="#43B5E8"/>
</linearGradient>
<linearGradient id="paint4_linear" x1="536.522" y1="144.533" x2="553.183" y2="66.7441" gradientUnits="userSpaceOnUse">
<stop stop-color="#7DD3F7"/>
<stop offset="1" stop-color="#43B5E8"/>
</linearGradient>
<linearGradient id="paint5_linear" x1="172.142" y1="42.0735" x2="172.125" y2="38.0104" gradientUnits="userSpaceOnUse">
<stop stop-color="white"/>
<stop offset="1" stop-color="#43B5E8"/>
</linearGradient>
<linearGradient id="paint6_linear" x1="167.171" y1="106.824" x2="180.996" y2="42.2769" gradientUnits="userSpaceOnUse">
<stop stop-color="#7DD3F7"/>
<stop offset="1" stop-color="#43B5E8"/>
</linearGradient>
<linearGradient id="paint7_linear" x1="87.3217" y1="140.304" x2="90.7153" y2="85.0956" gradientUnits="userSpaceOnUse">
<stop stop-color="#7DD3F7"/>
<stop offset="1" stop-color="#43B5E8"/>
</linearGradient>
<linearGradient id="paint8_linear" x1="183.323" y1="56.9706" x2="227.645" y2="56.9706" gradientUnits="userSpaceOnUse">
<stop stop-color="#71459B"/>
<stop offset="0.8668" stop-color="#A76CAD"/>
</linearGradient>
<linearGradient id="paint9_linear" x1="159.973" y1="86.5461" x2="180.975" y2="86.5461" gradientUnits="userSpaceOnUse">
<stop stop-color="#71459B"/>
<stop offset="0.8668" stop-color="#A76CAD"/>
</linearGradient>
<linearGradient id="paint10_linear" x1="528.206" y1="99.8311" x2="549.208" y2="99.8311" gradientUnits="userSpaceOnUse">
<stop stop-color="#71459B"/>
<stop offset="0.8668" stop-color="#A76CAD"/>
</linearGradient>
<linearGradient id="paint11_linear" x1="528.06" y1="124.641" x2="549.062" y2="124.641" gradientUnits="userSpaceOnUse">
<stop stop-color="#71459B"/>
<stop offset="0.8668" stop-color="#A76CAD"/>
</linearGradient>
<linearGradient id="paint12_linear" x1="525.468" y1="336.045" x2="532.402" y2="336.045" gradientUnits="userSpaceOnUse">
<stop stop-color="#71459B"/>
<stop offset="0.8668" stop-color="#A76CAD"/>
</linearGradient>
<linearGradient id="paint13_linear" x1="101.503" y1="291.49" x2="108.104" y2="291.49" gradientUnits="userSpaceOnUse">
<stop stop-color="#71459B"/>
<stop offset="0.8668" stop-color="#A76CAD"/>
</linearGradient>
<linearGradient id="paint14_linear" x1="106.742" y1="291.397" x2="112.973" y2="291.397" gradientUnits="userSpaceOnUse">
<stop stop-color="#71459B"/>
<stop offset="0.8668" stop-color="#A76CAD"/>
</linearGradient>
<linearGradient id="paint15_linear" x1="54.1777" y1="287.61" x2="66.0391" y2="287.61" gradientUnits="userSpaceOnUse">
<stop stop-color="#71459B"/>
<stop offset="0.8668" stop-color="#A76CAD"/>
</linearGradient>
<linearGradient id="paint16_linear" x1="167.738" y1="309.072" x2="243.988" y2="309.072" gradientUnits="userSpaceOnUse">
<stop stop-color="#7DD3F7"/>
<stop offset="1" stop-color="#43B5E8"/>
</linearGradient>
<linearGradient id="paint17_linear" x1="494.118" y1="290.444" x2="441.355" y2="290.444" gradientUnits="userSpaceOnUse">
<stop stop-color="#71459B"/>
<stop offset="0.8668" stop-color="#A76CAD"/>
</linearGradient>
<linearGradient id="paint18_linear" x1="495.205" y1="326.492" x2="441.672" y2="326.492" gradientUnits="userSpaceOnUse">
<stop stop-color="#71459B"/>
<stop offset="0.8668" stop-color="#A76CAD"/>
</linearGradient>
<linearGradient id="paint19_linear" x1="254.883" y1="247.774" x2="492.786" y2="247.774" gradientUnits="userSpaceOnUse">
<stop stop-color="#7DD3F7"/>
<stop offset="1" stop-color="#43B5E8"/>
</linearGradient>
<linearGradient id="paint20_linear" x1="68.5894" y1="96.823" x2="130.593" y2="96.823" gradientUnits="userSpaceOnUse">
<stop stop-color="#71459B"/>
<stop offset="0.8668" stop-color="#A76CAD"/>
</linearGradient>
<linearGradient id="paint21_linear" x1="132.587" y1="123.489" x2="117.368" y2="123.489" gradientUnits="userSpaceOnUse">
<stop stop-color="#7DD3F7"/>
<stop offset="1" stop-color="#43B5E8"/>
</linearGradient>
<linearGradient id="paint22_linear" x1="68.3075" y1="133.71" x2="83.5269" y2="133.71" gradientUnits="userSpaceOnUse">
<stop stop-color="#71459B"/>
<stop offset="0.8668" stop-color="#A76CAD"/>
</linearGradient>
<linearGradient id="paint23_linear" x1="576.391" y1="178.726" x2="633.766" y2="178.726" gradientUnits="userSpaceOnUse">
<stop stop-color="#7DD3F7"/>
<stop offset="1" stop-color="#43B5E8"/>
</linearGradient>
<linearGradient id="paint24_linear" x1="555.293" y1="204.696" x2="573.697" y2="204.696" gradientUnits="userSpaceOnUse">
<stop stop-color="#71459B"/>
<stop offset="0.8668" stop-color="#A76CAD"/>
</linearGradient>
<linearGradient id="paint25_linear" x1="635.611" y1="200.521" x2="621.528" y2="200.521" gradientUnits="userSpaceOnUse">
<stop stop-color="#71459B"/>
<stop offset="0.8668" stop-color="#A76CAD"/>
</linearGradient>
<linearGradient id="paint26_linear" x1="557.892" y1="178.584" x2="571.025" y2="178.584" gradientUnits="userSpaceOnUse">
<stop stop-color="#71459B"/>
<stop offset="0.8668" stop-color="#A76CAD"/>
</linearGradient>
<linearGradient id="paint27_linear" x1="166.637" y1="211.575" x2="243.694" y2="211.575" gradientUnits="userSpaceOnUse">
<stop stop-color="#71459B"/>
<stop offset="0.8668" stop-color="#A76CAD"/>
</linearGradient>
<linearGradient id="paint28_linear" x1="172.601" y1="127.765" x2="180.624" y2="127.765" gradientUnits="userSpaceOnUse">
<stop stop-color="#7DD3F7"/>
<stop offset="1" stop-color="#43B5E8"/>
</linearGradient>
<linearGradient id="paint29_linear" x1="185.884" y1="127.673" x2="193.907" y2="127.673" gradientUnits="userSpaceOnUse">
<stop stop-color="#7DD3F7"/>
<stop offset="1" stop-color="#43B5E8"/>
</linearGradient>
<linearGradient id="paint30_linear" x1="199.075" y1="127.673" x2="207.099" y2="127.673" gradientUnits="userSpaceOnUse">
<stop stop-color="#7DD3F7"/>
<stop offset="1" stop-color="#43B5E8"/>
</linearGradient>
</defs>
</svg>
