<svg width="65" height="65" viewBox="0 0 65 65" fill="none" xmlns="http://www.w3.org/2000/svg">
<path d="M61.6 49.5L49.8 37.6C49.8 37.6 48.5 26.4 47 23.8" stroke="#00B9F2" stroke-width="2" stroke-miterlimit="10" stroke-linecap="round" stroke-linejoin="round"/>
<path d="M47.8005 63.1C47.8005 63.1 34.1005 49 32.7005 48.4C31.3005 47.8 21.2005 44.5 18.5005 39.5C15.8005 34.5 16.7005 29.2 19.8005 28.6" stroke="#00B9F2" stroke-width="2" stroke-miterlimit="10" stroke-linecap="round" stroke-linejoin="round"/>
<path d="M22.1999 35.6C22.1999 35.6 16.3999 27.3 23.8999 24.4" stroke="#00B9F2" stroke-width="2" stroke-miterlimit="10" stroke-linecap="round" stroke-linejoin="round"/>
<path d="M26.4005 31.6C26.4005 31.6 20.6005 24.4 27.5005 20.6" stroke="#00B9F2" stroke-width="2" stroke-miterlimit="10" stroke-linecap="round" stroke-linejoin="round"/>
<path d="M30.0999 27.9C30.0999 27.9 24.9999 19.8 30.9999 16.4C30.9999 16.4 34.5999 15.2 38.6999 18.2" stroke="#00B9F2" stroke-width="2" stroke-miterlimit="10" stroke-linecap="round" stroke-linejoin="round"/>
<path d="M18.4001 39.5L15.3001 42.2C15.3001 42.2 -0.29988 36.3 2.30012 54.1L7.70012 48.4L13.9001 50.5L15.7001 56.4L10.2001 62C10.2001 62 26.4001 65.7 22.0001 48.7L25.6001 45.4" stroke="#00B9F2" stroke-width="2" stroke-miterlimit="10" stroke-linecap="round" stroke-linejoin="round"/>
<path d="M41.0999 16.2C41.0999 16.2 37.7999 18.8 37.7999 20.6C37.7999 22.4 37.6999 26.5 42.8999 27.1L47.6999 22.8C47.6999 22.8 62.6999 29.5 60.9999 11.3L55.4999 16.9L49.4999 14.8L47.3999 8.60001L52.7999 3.50001C52.8999 3.40001 36.8999 -0.299993 41.0999 16.2Z" stroke="#00B9F2" stroke-width="2" stroke-miterlimit="10" stroke-linecap="round" stroke-linejoin="round"/>
</svg>
