<svg width="65" height="65" viewBox="0 0 65 65" fill="none" xmlns="http://www.w3.org/2000/svg">
<path d="M62.4004 47.3C62.4004 48.9 61.1004 50.1 59.6004 50.1H5.20039C3.60039 50.1 2.40039 48.8 2.40039 47.3V8.3C2.40039 6.7 3.70039 5.5 5.20039 5.5H59.5004C61.1004 5.5 62.3004 6.8 62.3004 8.3V47.3H62.4004Z" stroke="#00B9F2" stroke-width="2" stroke-miterlimit="10" stroke-linecap="round" stroke-linejoin="round"/>
<path d="M13.3008 24.1H20.8008L23.8008 16.7L27.2008 31.7999L29.1008 24.2H33.5008L37.0008 16.7L40.4008 30L42.5008 24.2H50.9008" stroke="#00B9F2" stroke-width="2" stroke-miterlimit="10" stroke-linecap="round" stroke-linejoin="round"/>
<path d="M2.40039 42H61.9004" stroke="#00B9F2" stroke-width="2" stroke-miterlimit="10" stroke-linecap="round" stroke-linejoin="round"/>
<path d="M28.5 45H37.9" stroke="#00B9F2" stroke-width="2" stroke-miterlimit="10" stroke-linecap="round" stroke-linejoin="round"/>
<path d="M23.6006 50.1V53.7" stroke="#00B9F2" stroke-width="2" stroke-miterlimit="10" stroke-linecap="round" stroke-linejoin="round"/>
<path d="M41.3008 50.1V53.7" stroke="#00B9F2" stroke-width="2" stroke-miterlimit="10" stroke-linecap="round" stroke-linejoin="round"/>
<path d="M18.6006 59.5999H46.2006C46.2006 59.5999 46.9006 54.6 39.3006 53.7H25.0006C25.0006 53.7 18.8006 53.9999 18.6006 59.5999Z" stroke="#00B9F2" stroke-width="2" stroke-miterlimit="10" stroke-linecap="round" stroke-linejoin="round"/>
</svg>
